<?xml version="1.0" encoding="utf-8" standalone="no"?>
<!DOCTYPE svg PUBLIC "-//W3C//DTD SVG 1.1//EN"
  "http://www.w3.org/Graphics/SVG/1.1/DTD/svg11.dtd">
<svg xmlns:xlink="http://www.w3.org/1999/xlink" width="720pt" height="360pt" viewBox="0 0 720 360" xmlns="http://www.w3.org/2000/svg" version="1.1">
 <metadata>
  <rdf:RDF xmlns:dc="http://purl.org/dc/elements/1.1/" xmlns:cc="http://creativecommons.org/ns#" xmlns:rdf="http://www.w3.org/1999/02/22-rdf-syntax-ns#">
   <cc:Work>
    <dc:type rdf:resource="http://purl.org/dc/dcmitype/StillImage"/>
    <dc:date>2024-01-06T22:33:05.955609</dc:date>
    <dc:format>image/svg+xml</dc:format>
    <dc:creator>
     <cc:Agent>
      <dc:title>Matplotlib v3.7.1, https://matplotlib.org/</dc:title>
     </cc:Agent>
    </dc:creator>
   </cc:Work>
  </rdf:RDF>
 </metadata>
 <defs>
  <style type="text/css">*{stroke-linejoin: round; stroke-linecap: butt}</style>
 </defs>
 <g id="figure_1">
  <g id="patch_1">
   <path d="M 0 360 
L 720 360 
L 720 0 
L 0 0 
z
" style="fill: #ffffff"/>
  </g>
  <g id="axes_1">
   <g id="patch_2">
    <path d="M 90 225.810434 
L 648 225.810434 
L 648 137.789566 
L 90 137.789566 
z
" style="fill: #ffffff"/>
   </g>
   <g id="matplotlib.axis_1">
    <g id="xtick_1">
     <g id="line2d_1">
      <defs>
       <path id="m8b2e1c0042" d="M 0 0 
L 0 3.5 
" style="stroke: #000000; stroke-width: 0.8"/>
      </defs>
      <g>
       <use xlink:href="#m8b2e1c0042" x="107.213754" y="225.810434" style="stroke: #000000; stroke-width: 0.8"/>
      </g>
     </g>
     <g id="text_1">
      <!-- 400 -->
      <g transform="translate(97.670004 240.408872) scale(0.1 -0.1)">
       <defs>
        <path id="DejaVuSans-34" d="M 2419 4116 
L 825 1625 
L 2419 1625 
L 2419 4116 
z
M 2253 4666 
L 3047 4666 
L 3047 1625 
L 3713 1625 
L 3713 1100 
L 3047 1100 
L 3047 0 
L 2419 0 
L 2419 1100 
L 313 1100 
L 313 1709 
L 2253 4666 
z
" transform="scale(0.015625)"/>
        <path id="DejaVuSans-30" d="M 2034 4250 
Q 1547 4250 1301 3770 
Q 1056 3291 1056 2328 
Q 1056 1369 1301 889 
Q 1547 409 2034 409 
Q 2525 409 2770 889 
Q 3016 1369 3016 2328 
Q 3016 3291 2770 3770 
Q 2525 4250 2034 4250 
z
M 2034 4750 
Q 2819 4750 3233 4129 
Q 3647 3509 3647 2328 
Q 3647 1150 3233 529 
Q 2819 -91 2034 -91 
Q 1250 -91 836 529 
Q 422 1150 422 2328 
Q 422 3509 836 4129 
Q 1250 4750 2034 4750 
z
" transform="scale(0.015625)"/>
       </defs>
       <use xlink:href="#DejaVuSans-34"/>
       <use xlink:href="#DejaVuSans-30" x="63.623047"/>
       <use xlink:href="#DejaVuSans-30" x="127.246094"/>
      </g>
     </g>
    </g>
    <g id="xtick_2">
     <g id="line2d_2">
      <g>
       <use xlink:href="#m8b2e1c0042" x="224.266352" y="225.810434" style="stroke: #000000; stroke-width: 0.8"/>
      </g>
     </g>
     <g id="text_2">
      <!-- 600 -->
      <g transform="translate(214.722602 240.408872) scale(0.1 -0.1)">
       <defs>
        <path id="DejaVuSans-36" d="M 2113 2584 
Q 1688 2584 1439 2293 
Q 1191 2003 1191 1497 
Q 1191 994 1439 701 
Q 1688 409 2113 409 
Q 2538 409 2786 701 
Q 3034 994 3034 1497 
Q 3034 2003 2786 2293 
Q 2538 2584 2113 2584 
z
M 3366 4563 
L 3366 3988 
Q 3128 4100 2886 4159 
Q 2644 4219 2406 4219 
Q 1781 4219 1451 3797 
Q 1122 3375 1075 2522 
Q 1259 2794 1537 2939 
Q 1816 3084 2150 3084 
Q 2853 3084 3261 2657 
Q 3669 2231 3669 1497 
Q 3669 778 3244 343 
Q 2819 -91 2113 -91 
Q 1303 -91 875 529 
Q 447 1150 447 2328 
Q 447 3434 972 4092 
Q 1497 4750 2381 4750 
Q 2619 4750 2861 4703 
Q 3103 4656 3366 4563 
z
" transform="scale(0.015625)"/>
       </defs>
       <use xlink:href="#DejaVuSans-36"/>
       <use xlink:href="#DejaVuSans-30" x="63.623047"/>
       <use xlink:href="#DejaVuSans-30" x="127.246094"/>
      </g>
     </g>
    </g>
    <g id="xtick_3">
     <g id="line2d_3">
      <g>
       <use xlink:href="#m8b2e1c0042" x="341.318951" y="225.810434" style="stroke: #000000; stroke-width: 0.8"/>
      </g>
     </g>
     <g id="text_3">
      <!-- 800 -->
      <g transform="translate(331.775201 240.408872) scale(0.1 -0.1)">
       <defs>
        <path id="DejaVuSans-38" d="M 2034 2216 
Q 1584 2216 1326 1975 
Q 1069 1734 1069 1313 
Q 1069 891 1326 650 
Q 1584 409 2034 409 
Q 2484 409 2743 651 
Q 3003 894 3003 1313 
Q 3003 1734 2745 1975 
Q 2488 2216 2034 2216 
z
M 1403 2484 
Q 997 2584 770 2862 
Q 544 3141 544 3541 
Q 544 4100 942 4425 
Q 1341 4750 2034 4750 
Q 2731 4750 3128 4425 
Q 3525 4100 3525 3541 
Q 3525 3141 3298 2862 
Q 3072 2584 2669 2484 
Q 3125 2378 3379 2068 
Q 3634 1759 3634 1313 
Q 3634 634 3220 271 
Q 2806 -91 2034 -91 
Q 1263 -91 848 271 
Q 434 634 434 1313 
Q 434 1759 690 2068 
Q 947 2378 1403 2484 
z
M 1172 3481 
Q 1172 3119 1398 2916 
Q 1625 2713 2034 2713 
Q 2441 2713 2670 2916 
Q 2900 3119 2900 3481 
Q 2900 3844 2670 4047 
Q 2441 4250 2034 4250 
Q 1625 4250 1398 4047 
Q 1172 3844 1172 3481 
z
" transform="scale(0.015625)"/>
       </defs>
       <use xlink:href="#DejaVuSans-38"/>
       <use xlink:href="#DejaVuSans-30" x="63.623047"/>
       <use xlink:href="#DejaVuSans-30" x="127.246094"/>
      </g>
     </g>
    </g>
    <g id="xtick_4">
     <g id="line2d_4">
      <g>
       <use xlink:href="#m8b2e1c0042" x="458.37155" y="225.810434" style="stroke: #000000; stroke-width: 0.8"/>
      </g>
     </g>
     <g id="text_4">
      <!-- 1000 -->
      <g transform="translate(445.64655 240.408872) scale(0.1 -0.1)">
       <defs>
        <path id="DejaVuSans-31" d="M 794 531 
L 1825 531 
L 1825 4091 
L 703 3866 
L 703 4441 
L 1819 4666 
L 2450 4666 
L 2450 531 
L 3481 531 
L 3481 0 
L 794 0 
L 794 531 
z
" transform="scale(0.015625)"/>
       </defs>
       <use xlink:href="#DejaVuSans-31"/>
       <use xlink:href="#DejaVuSans-30" x="63.623047"/>
       <use xlink:href="#DejaVuSans-30" x="127.246094"/>
       <use xlink:href="#DejaVuSans-30" x="190.869141"/>
      </g>
     </g>
    </g>
    <g id="xtick_5">
     <g id="line2d_5">
      <g>
       <use xlink:href="#m8b2e1c0042" x="575.424148" y="225.810434" style="stroke: #000000; stroke-width: 0.8"/>
      </g>
     </g>
     <g id="text_5">
      <!-- 1200 -->
      <g transform="translate(562.699148 240.408872) scale(0.1 -0.1)">
       <defs>
        <path id="DejaVuSans-32" d="M 1228 531 
L 3431 531 
L 3431 0 
L 469 0 
L 469 531 
Q 828 903 1448 1529 
Q 2069 2156 2228 2338 
Q 2531 2678 2651 2914 
Q 2772 3150 2772 3378 
Q 2772 3750 2511 3984 
Q 2250 4219 1831 4219 
Q 1534 4219 1204 4116 
Q 875 4013 500 3803 
L 500 4441 
Q 881 4594 1212 4672 
Q 1544 4750 1819 4750 
Q 2544 4750 2975 4387 
Q 3406 4025 3406 3419 
Q 3406 3131 3298 2873 
Q 3191 2616 2906 2266 
Q 2828 2175 2409 1742 
Q 1991 1309 1228 531 
z
" transform="scale(0.015625)"/>
       </defs>
       <use xlink:href="#DejaVuSans-31"/>
       <use xlink:href="#DejaVuSans-32" x="63.623047"/>
       <use xlink:href="#DejaVuSans-30" x="127.246094"/>
       <use xlink:href="#DejaVuSans-30" x="190.869141"/>
      </g>
     </g>
    </g>
   </g>
   <g id="matplotlib.axis_2">
    <g id="ytick_1">
     <g id="line2d_6">
      <defs>
       <path id="m6b33529d45" d="M 0 0 
L -3.5 0 
" style="stroke: #000000; stroke-width: 0.8"/>
      </defs>
      <g>
       <use xlink:href="#m6b33529d45" x="90" y="218.952762" style="stroke: #000000; stroke-width: 0.8"/>
      </g>
     </g>
     <g id="text_6">
      <!-- 350 -->
      <g transform="translate(63.9125 222.751981) scale(0.1 -0.1)">
       <defs>
        <path id="DejaVuSans-33" d="M 2597 2516 
Q 3050 2419 3304 2112 
Q 3559 1806 3559 1356 
Q 3559 666 3084 287 
Q 2609 -91 1734 -91 
Q 1441 -91 1130 -33 
Q 819 25 488 141 
L 488 750 
Q 750 597 1062 519 
Q 1375 441 1716 441 
Q 2309 441 2620 675 
Q 2931 909 2931 1356 
Q 2931 1769 2642 2001 
Q 2353 2234 1838 2234 
L 1294 2234 
L 1294 2753 
L 1863 2753 
Q 2328 2753 2575 2939 
Q 2822 3125 2822 3475 
Q 2822 3834 2567 4026 
Q 2313 4219 1838 4219 
Q 1578 4219 1281 4162 
Q 984 4106 628 3988 
L 628 4550 
Q 988 4650 1302 4700 
Q 1616 4750 1894 4750 
Q 2613 4750 3031 4423 
Q 3450 4097 3450 3541 
Q 3450 3153 3228 2886 
Q 3006 2619 2597 2516 
z
" transform="scale(0.015625)"/>
        <path id="DejaVuSans-35" d="M 691 4666 
L 3169 4666 
L 3169 4134 
L 1269 4134 
L 1269 2991 
Q 1406 3038 1543 3061 
Q 1681 3084 1819 3084 
Q 2600 3084 3056 2656 
Q 3513 2228 3513 1497 
Q 3513 744 3044 326 
Q 2575 -91 1722 -91 
Q 1428 -91 1123 -41 
Q 819 9 494 109 
L 494 744 
Q 775 591 1075 516 
Q 1375 441 1709 441 
Q 2250 441 2565 725 
Q 2881 1009 2881 1497 
Q 2881 1984 2565 2268 
Q 2250 2553 1709 2553 
Q 1456 2553 1204 2497 
Q 953 2441 691 2322 
L 691 4666 
z
" transform="scale(0.015625)"/>
       </defs>
       <use xlink:href="#DejaVuSans-33"/>
       <use xlink:href="#DejaVuSans-35" x="63.623047"/>
       <use xlink:href="#DejaVuSans-30" x="127.246094"/>
      </g>
     </g>
    </g>
    <g id="ytick_2">
     <g id="line2d_7">
      <g>
       <use xlink:href="#m6b33529d45" x="90" y="189.689612" style="stroke: #000000; stroke-width: 0.8"/>
      </g>
     </g>
     <g id="text_7">
      <!-- 400 -->
      <g transform="translate(63.9125 193.488831) scale(0.1 -0.1)">
       <use xlink:href="#DejaVuSans-34"/>
       <use xlink:href="#DejaVuSans-30" x="63.623047"/>
       <use xlink:href="#DejaVuSans-30" x="127.246094"/>
      </g>
     </g>
    </g>
    <g id="ytick_3">
     <g id="line2d_8">
      <g>
       <use xlink:href="#m6b33529d45" x="90" y="160.426463" style="stroke: #000000; stroke-width: 0.8"/>
      </g>
     </g>
     <g id="text_8">
      <!-- 450 -->
      <g transform="translate(63.9125 164.225681) scale(0.1 -0.1)">
       <use xlink:href="#DejaVuSans-34"/>
       <use xlink:href="#DejaVuSans-35" x="63.623047"/>
       <use xlink:href="#DejaVuSans-30" x="127.246094"/>
      </g>
     </g>
    </g>
   </g>
   <g id="LineCollection_1">
    <path d="M 621.074662 204.321187 
L 614.033496 203.692412 
L 607.157141 203.071828 
L 600.43731 202.45958 
L 593.866051 201.855785 
L 587.435739 201.260529 
L 581.139067 200.673875 
L 574.969033 200.095859 
L 568.918932 199.526491 
L 562.982346 198.965761 
L 557.153134 198.413635 
L 551.425427 197.87006 
L 545.793611 197.33496 
L 540.252325 196.808246 
L 534.79645 196.289807 
L 529.421102 195.779517 
L 524.121619 195.277238 
L 518.893558 194.782815 
L 513.732686 194.29608 
L 508.634969 193.816855 
L 503.596569 193.344951 
L 498.613831 192.880167 
L 493.683281 192.422296 
L 488.801615 191.971121 
L 483.965692 191.52642 
L 479.17253 191.087963 
L 474.419295 190.655516 
L 469.703297 190.228841 
L 465.021983 189.807694 
L 460.372928 189.391832 
L 455.753832 188.981007 
L 451.16251 188.57497 
L 446.596889 188.173473 
L 442.055001 187.776266 
L 437.534973 187.3831 
L 433.035027 186.993728 
L 428.55347 186.607905 
L 424.088688 186.225385 
L 419.639144 185.845928 
L 415.203367 185.469296 
L 410.779949 185.095251 
L 406.367541 184.723564 
L 401.964843 184.354006 
L 397.570603 183.986353 
L 393.183607 183.620384 
L 388.802679 183.255885 
L 384.426668 182.892643 
L 380.054452 182.530452 
L 375.684923 182.169109 
L 371.316988 181.808414 
L 366.949564 181.448174 
L 362.581565 181.088196 
L 358.211907 180.728294 
L 353.839496 180.368283 
L 349.463222 180.007981 
L 345.08196 179.647208 
L 340.694558 179.285787 
L 336.299834 178.923542 
L 331.896572 178.560297 
L 327.483514 178.195875 
L 323.059357 177.830099 
L 318.622746 177.462791 
L 314.172268 177.093769 
L 309.706449 176.722848 
L 305.223746 176.349838 
L 300.722541 175.974544 
L 296.201138 175.596762 
L 291.657753 175.216282 
L 287.090514 174.832883 
L 282.49745 174.446334 
L 277.876486 174.05639 
L 273.22544 173.662792 
L 268.542013 173.265267 
L 263.823786 172.863523 
L 259.06821 172.457249 
L 254.272605 172.046112 
L 249.434147 171.629758 
L 244.549867 171.207806 
L 239.616642 170.779846 
L 234.631187 170.345443 
L 229.590052 169.904125 
L 224.489608 169.455389 
L 219.32605 168.998694 
L 214.095379 168.533459 
L 208.793402 168.059061 
L 203.415723 167.574832 
L 197.957732 167.080058 
L 192.414602 166.57397 
L 186.781276 166.055749 
L 181.052464 165.524518 
L 175.222632 164.979339 
L 169.285992 164.41921 
L 163.236497 163.843062 
L 157.067831 163.249756 
L 150.773396 162.638079 
L 144.346312 162.006737 
L 137.779398 161.354358 
L 131.065167 160.679481 
L 124.195819 159.980556 
L 117.163224 159.255937 
" clip-path="url(#pf31b944dbc)" style="fill: none; stroke: #1f77b4; stroke-width: 1.5"/>
    <path d="M 622.636364 186.832889 
L 615.603431 186.204849 
L 608.742781 185.585682 
L 602.037129 184.974727 
L 595.478524 184.372094 
L 589.059346 183.777869 
L 582.772302 183.192112 
L 576.610412 182.614858 
L 570.566999 182.04612 
L 564.635683 181.485888 
L 558.810366 180.934131 
L 553.085227 180.390799 
L 547.454709 179.855823 
L 541.913265 179.329093 
L 536.455784 178.810501 
L 531.077795 178.299962 
L 525.774712 177.797342 
L 520.542171 177.302495 
L 515.376018 176.815263 
L 510.272303 176.335476 
L 505.227269 175.862951 
L 500.237344 175.397498 
L 495.299134 174.938918 
L 490.409417 174.487001 
L 485.565131 174.041533 
L 480.763367 173.602291 
L 476.001367 173.169049 
L 471.276509 172.741574 
L 466.586306 172.31963 
L 461.928397 171.902978 
L 457.300539 171.491376 
L 452.700602 171.084579 
L 448.126562 170.682344 
L 443.576494 170.284423 
L 439.048568 169.890572 
L 434.54104 169.500546 
L 430.052249 169.114102 
L 425.580609 168.730996 
L 421.124604 168.350989 
L 416.682782 167.973844 
L 412.25375 167.599326 
L 407.836169 167.227204 
L 403.428747 166.85725 
L 399.030234 166.489239 
L 394.639418 166.122953 
L 390.25512 165.758173 
L 385.876185 165.394689 
L 381.501483 165.032292 
L 377.129897 164.670779 
L 372.760323 164.309949 
L 368.391663 163.949607 
L 364.022821 163.58956 
L 359.652696 163.229619 
L 355.280177 162.869599 
L 350.904022 162.509307 
L 346.52316 162.148567 
L 342.136478 161.787206 
L 337.742777 161.425045 
L 333.340826 161.061908 
L 328.929352 160.697616 
L 324.507038 160.331993 
L 320.072516 159.964858 
L 315.624363 159.596029 
L 311.161095 159.22532 
L 306.68116 158.85254 
L 302.182937 158.477494 
L 297.664724 158.099979 
L 293.12474 157.719784 
L 288.561111 157.336688 
L 283.971874 156.950461 
L 279.354959 156.560858 
L 274.708197 156.167623 
L 270.0293 155.770483 
L 265.315867 155.369147 
L 260.565369 154.963306 
L 255.775146 154.552631 
L 250.942401 154.136769 
L 246.064193 153.715341 
L 241.137428 153.287942 
L 236.158856 152.854138 
L 231.125059 152.413463 
L 226.032448 151.965416 
L 220.877253 151.509461 
L 215.655517 151.04502 
L 210.363086 150.571476 
L 204.995605 150.088166 
L 199.548504 149.594378 
L 194.016996 149.089352 
L 188.396065 148.572272 
L 182.680457 148.042265 
L 176.864675 147.498399 
L 170.942966 146.939679 
L 164.909314 146.36504 
L 158.757432 145.773349 
L 152.48075 145.163396 
L 146.072407 144.533896 
L 139.525243 143.883479 
L 132.831786 143.21069 
L 125.984244 142.513983 
L 118.962813 141.790514 
" clip-path="url(#pf31b944dbc)" style="fill: none; stroke: #8c564b; stroke-width: 1.5"/>
    <path d="M 619.51296 221.809486 
L 612.471794 221.180711 
L 605.578974 220.558649 
L 598.844199 219.945046 
L 592.259523 219.340022 
L 585.817321 218.74367 
L 579.510272 218.156053 
L 573.331358 217.577206 
L 567.273849 217.007143 
L 561.331294 216.445851 
L 555.497512 215.893292 
L 549.766587 215.349412 
L 544.132851 214.81413 
L 538.591136 214.287375 
L 533.136314 213.769035 
L 527.763088 213.258948 
L 522.466726 212.756965 
L 517.242705 212.262923 
L 512.086714 211.776649 
L 506.994636 211.297954 
L 501.962552 210.826641 
L 496.986725 210.362502 
L 492.063598 209.90532 
L 487.189787 209.454871 
L 482.362071 209.010925 
L 477.577391 208.573244 
L 472.83284 208.141587 
L 468.125655 207.715709 
L 463.453215 207.295361 
L 458.813031 206.880292 
L 454.202743 206.47025 
L 449.62011 206.064982 
L 445.063007 205.664234 
L 440.529418 205.267752 
L 436.017429 204.875286 
L 431.525223 204.486584 
L 427.051074 204.101398 
L 422.593338 203.719482 
L 418.150454 203.340593 
L 413.720929 202.964492 
L 409.303341 202.59094 
L 404.896327 202.219708 
L 400.498578 201.850565 
L 396.108836 201.483288 
L 391.725887 201.117657 
L 387.348553 200.753456 
L 382.975689 200.390476 
L 378.606178 200.028509 
L 374.23892 199.667353 
L 369.872834 199.306812 
L 365.506846 198.94669 
L 361.139887 198.586798 
L 356.770885 198.22695 
L 352.398761 197.866962 
L 348.022541 197.506664 
L 343.641043 197.145872 
L 339.253076 196.784405 
L 334.857477 196.422088 
L 330.453043 196.058746 
L 326.038534 195.694204 
L 321.61266 195.328286 
L 317.17408 194.960815 
L 312.721393 194.59161 
L 308.253135 194.220487 
L 303.76777 193.847256 
L 299.263689 193.471722 
L 294.739199 193.093683 
L 290.192519 192.712927 
L 285.621776 192.329234 
L 281.024994 191.942373 
L 276.400095 191.552097 
L 271.744885 191.158147 
L 267.057055 190.760249 
L 262.33417 190.358109 
L 257.573664 189.951414 
L 252.772835 189.539831 
L 247.928836 189.123001 
L 243.038671 188.700541 
L 238.099188 188.27204 
L 233.10707 187.837057 
L 228.058833 187.395119 
L 222.950813 186.945718 
L 217.779166 186.48831 
L 212.539856 186.022308 
L 207.228649 185.547087 
L 201.841108 185.061973 
L 196.372584 184.566246 
L 190.818207 184.059136 
L 185.172883 183.539815 
L 179.431281 183.007403 
L 173.587831 182.460955 
L 167.636708 181.899466 
L 161.571834 181.32186 
L 155.38686 180.726994 
L 149.075164 180.113647 
L 149.056923 180.111865 
L 142.629838 179.480524 
L 142.610597 179.478623 
L 136.043682 178.826244 
L 136.023424 178.82422 
L 129.309194 178.149342 
L 129.287906 178.14719 
L 122.418557 177.448264 
L 122.396231 177.445978 
L 115.363636 176.721359 
" clip-path="url(#pf31b944dbc)" style="fill: none; stroke: #17becf; stroke-width: 1.5"/>
   </g>
   <g id="patch_3">
    <path d="M 90 225.810434 
L 90 137.789566 
" style="fill: none; stroke: #000000; stroke-width: 0.8; stroke-linejoin: miter; stroke-linecap: square"/>
   </g>
   <g id="patch_4">
    <path d="M 648 225.810434 
L 648 137.789566 
" style="fill: none; stroke: #000000; stroke-width: 0.8; stroke-linejoin: miter; stroke-linecap: square"/>
   </g>
   <g id="patch_5">
    <path d="M 90 225.810434 
L 648 225.810434 
" style="fill: none; stroke: #000000; stroke-width: 0.8; stroke-linejoin: miter; stroke-linecap: square"/>
   </g>
   <g id="patch_6">
    <path d="M 90 137.789566 
L 648 137.789566 
" style="fill: none; stroke: #000000; stroke-width: 0.8; stroke-linejoin: miter; stroke-linecap: square"/>
   </g>
  </g>
 </g>
 <defs>
  <clipPath id="pf31b944dbc">
   <rect x="90" y="137.789566" width="558" height="88.020868"/>
  </clipPath>
 </defs>
</svg>
