<?xml version="1.0" encoding="utf-8" standalone="no"?>
<!DOCTYPE svg PUBLIC "-//W3C//DTD SVG 1.1//EN"
  "http://www.w3.org/Graphics/SVG/1.1/DTD/svg11.dtd">
<svg xmlns:xlink="http://www.w3.org/1999/xlink" width="720pt" height="360pt" viewBox="0 0 720 360" xmlns="http://www.w3.org/2000/svg" version="1.1">
 <metadata>
  <rdf:RDF xmlns:dc="http://purl.org/dc/elements/1.1/" xmlns:cc="http://creativecommons.org/ns#" xmlns:rdf="http://www.w3.org/1999/02/22-rdf-syntax-ns#">
   <cc:Work>
    <dc:type rdf:resource="http://purl.org/dc/dcmitype/StillImage"/>
    <dc:date>2024-01-06T22:45:41.988948</dc:date>
    <dc:format>image/svg+xml</dc:format>
    <dc:creator>
     <cc:Agent>
      <dc:title>Matplotlib v3.7.1, https://matplotlib.org/</dc:title>
     </cc:Agent>
    </dc:creator>
   </cc:Work>
  </rdf:RDF>
 </metadata>
 <defs>
  <style type="text/css">*{stroke-linejoin: round; stroke-linecap: butt}</style>
 </defs>
 <g id="figure_1">
  <g id="patch_1">
   <path d="M 0 360 
L 720 360 
L 720 0 
L 0 0 
z
" style="fill: #ffffff"/>
  </g>
  <g id="axes_1">
   <g id="patch_2">
    <path d="M 236.319267 320.4 
L 501.680733 320.4 
L 501.680733 43.2 
L 236.319267 43.2 
z
" style="fill: #ffffff"/>
   </g>
   <g id="matplotlib.axis_1">
    <g id="xtick_1">
     <g id="line2d_1">
      <defs>
       <path id="mdfc88ac54d" d="M 0 0 
L 0 3.5 
" style="stroke: #000000; stroke-width: 0.8"/>
      </defs>
      <g>
       <use xlink:href="#mdfc88ac54d" x="237.653907" y="320.4" style="stroke: #000000; stroke-width: 0.8"/>
      </g>
     </g>
     <g id="text_1">
      <!-- 800 -->
      <g transform="translate(228.110157 334.998438) scale(0.1 -0.1)">
       <defs>
        <path id="DejaVuSans-38" d="M 2034 2216 
Q 1584 2216 1326 1975 
Q 1069 1734 1069 1313 
Q 1069 891 1326 650 
Q 1584 409 2034 409 
Q 2484 409 2743 651 
Q 3003 894 3003 1313 
Q 3003 1734 2745 1975 
Q 2488 2216 2034 2216 
z
M 1403 2484 
Q 997 2584 770 2862 
Q 544 3141 544 3541 
Q 544 4100 942 4425 
Q 1341 4750 2034 4750 
Q 2731 4750 3128 4425 
Q 3525 4100 3525 3541 
Q 3525 3141 3298 2862 
Q 3072 2584 2669 2484 
Q 3125 2378 3379 2068 
Q 3634 1759 3634 1313 
Q 3634 634 3220 271 
Q 2806 -91 2034 -91 
Q 1263 -91 848 271 
Q 434 634 434 1313 
Q 434 1759 690 2068 
Q 947 2378 1403 2484 
z
M 1172 3481 
Q 1172 3119 1398 2916 
Q 1625 2713 2034 2713 
Q 2441 2713 2670 2916 
Q 2900 3119 2900 3481 
Q 2900 3844 2670 4047 
Q 2441 4250 2034 4250 
Q 1625 4250 1398 4047 
Q 1172 3844 1172 3481 
z
" transform="scale(0.015625)"/>
        <path id="DejaVuSans-30" d="M 2034 4250 
Q 1547 4250 1301 3770 
Q 1056 3291 1056 2328 
Q 1056 1369 1301 889 
Q 1547 409 2034 409 
Q 2525 409 2770 889 
Q 3016 1369 3016 2328 
Q 3016 3291 2770 3770 
Q 2525 4250 2034 4250 
z
M 2034 4750 
Q 2819 4750 3233 4129 
Q 3647 3509 3647 2328 
Q 3647 1150 3233 529 
Q 2819 -91 2034 -91 
Q 1250 -91 836 529 
Q 422 1150 422 2328 
Q 422 3509 836 4129 
Q 1250 4750 2034 4750 
z
" transform="scale(0.015625)"/>
       </defs>
       <use xlink:href="#DejaVuSans-38"/>
       <use xlink:href="#DejaVuSans-30" x="63.623047"/>
       <use xlink:href="#DejaVuSans-30" x="127.246094"/>
      </g>
     </g>
    </g>
    <g id="xtick_2">
     <g id="line2d_2">
      <g>
       <use xlink:href="#mdfc88ac54d" x="289.738817" y="320.4" style="stroke: #000000; stroke-width: 0.8"/>
      </g>
     </g>
     <g id="text_2">
      <!-- 900 -->
      <g transform="translate(280.195067 334.998438) scale(0.1 -0.1)">
       <defs>
        <path id="DejaVuSans-39" d="M 703 97 
L 703 672 
Q 941 559 1184 500 
Q 1428 441 1663 441 
Q 2288 441 2617 861 
Q 2947 1281 2994 2138 
Q 2813 1869 2534 1725 
Q 2256 1581 1919 1581 
Q 1219 1581 811 2004 
Q 403 2428 403 3163 
Q 403 3881 828 4315 
Q 1253 4750 1959 4750 
Q 2769 4750 3195 4129 
Q 3622 3509 3622 2328 
Q 3622 1225 3098 567 
Q 2575 -91 1691 -91 
Q 1453 -91 1209 -44 
Q 966 3 703 97 
z
M 1959 2075 
Q 2384 2075 2632 2365 
Q 2881 2656 2881 3163 
Q 2881 3666 2632 3958 
Q 2384 4250 1959 4250 
Q 1534 4250 1286 3958 
Q 1038 3666 1038 3163 
Q 1038 2656 1286 2365 
Q 1534 2075 1959 2075 
z
" transform="scale(0.015625)"/>
       </defs>
       <use xlink:href="#DejaVuSans-39"/>
       <use xlink:href="#DejaVuSans-30" x="63.623047"/>
       <use xlink:href="#DejaVuSans-30" x="127.246094"/>
      </g>
     </g>
    </g>
    <g id="xtick_3">
     <g id="line2d_3">
      <g>
       <use xlink:href="#mdfc88ac54d" x="341.823727" y="320.4" style="stroke: #000000; stroke-width: 0.8"/>
      </g>
     </g>
     <g id="text_3">
      <!-- 1000 -->
      <g transform="translate(329.098727 334.998438) scale(0.1 -0.1)">
       <defs>
        <path id="DejaVuSans-31" d="M 794 531 
L 1825 531 
L 1825 4091 
L 703 3866 
L 703 4441 
L 1819 4666 
L 2450 4666 
L 2450 531 
L 3481 531 
L 3481 0 
L 794 0 
L 794 531 
z
" transform="scale(0.015625)"/>
       </defs>
       <use xlink:href="#DejaVuSans-31"/>
       <use xlink:href="#DejaVuSans-30" x="63.623047"/>
       <use xlink:href="#DejaVuSans-30" x="127.246094"/>
       <use xlink:href="#DejaVuSans-30" x="190.869141"/>
      </g>
     </g>
    </g>
    <g id="xtick_4">
     <g id="line2d_4">
      <g>
       <use xlink:href="#mdfc88ac54d" x="393.908637" y="320.4" style="stroke: #000000; stroke-width: 0.8"/>
      </g>
     </g>
     <g id="text_4">
      <!-- 1100 -->
      <g transform="translate(381.183637 334.998438) scale(0.1 -0.1)">
       <use xlink:href="#DejaVuSans-31"/>
       <use xlink:href="#DejaVuSans-31" x="63.623047"/>
       <use xlink:href="#DejaVuSans-30" x="127.246094"/>
       <use xlink:href="#DejaVuSans-30" x="190.869141"/>
      </g>
     </g>
    </g>
    <g id="xtick_5">
     <g id="line2d_5">
      <g>
       <use xlink:href="#mdfc88ac54d" x="445.993547" y="320.4" style="stroke: #000000; stroke-width: 0.8"/>
      </g>
     </g>
     <g id="text_5">
      <!-- 1200 -->
      <g transform="translate(433.268547 334.998438) scale(0.1 -0.1)">
       <defs>
        <path id="DejaVuSans-32" d="M 1228 531 
L 3431 531 
L 3431 0 
L 469 0 
L 469 531 
Q 828 903 1448 1529 
Q 2069 2156 2228 2338 
Q 2531 2678 2651 2914 
Q 2772 3150 2772 3378 
Q 2772 3750 2511 3984 
Q 2250 4219 1831 4219 
Q 1534 4219 1204 4116 
Q 875 4013 500 3803 
L 500 4441 
Q 881 4594 1212 4672 
Q 1544 4750 1819 4750 
Q 2544 4750 2975 4387 
Q 3406 4025 3406 3419 
Q 3406 3131 3298 2873 
Q 3191 2616 2906 2266 
Q 2828 2175 2409 1742 
Q 1991 1309 1228 531 
z
" transform="scale(0.015625)"/>
       </defs>
       <use xlink:href="#DejaVuSans-31"/>
       <use xlink:href="#DejaVuSans-32" x="63.623047"/>
       <use xlink:href="#DejaVuSans-30" x="127.246094"/>
       <use xlink:href="#DejaVuSans-30" x="190.869141"/>
      </g>
     </g>
    </g>
    <g id="xtick_6">
     <g id="line2d_6">
      <g>
       <use xlink:href="#mdfc88ac54d" x="498.078458" y="320.4" style="stroke: #000000; stroke-width: 0.8"/>
      </g>
     </g>
     <g id="text_6">
      <!-- 1300 -->
      <g transform="translate(485.353458 334.998438) scale(0.1 -0.1)">
       <defs>
        <path id="DejaVuSans-33" d="M 2597 2516 
Q 3050 2419 3304 2112 
Q 3559 1806 3559 1356 
Q 3559 666 3084 287 
Q 2609 -91 1734 -91 
Q 1441 -91 1130 -33 
Q 819 25 488 141 
L 488 750 
Q 750 597 1062 519 
Q 1375 441 1716 441 
Q 2309 441 2620 675 
Q 2931 909 2931 1356 
Q 2931 1769 2642 2001 
Q 2353 2234 1838 2234 
L 1294 2234 
L 1294 2753 
L 1863 2753 
Q 2328 2753 2575 2939 
Q 2822 3125 2822 3475 
Q 2822 3834 2567 4026 
Q 2313 4219 1838 4219 
Q 1578 4219 1281 4162 
Q 984 4106 628 3988 
L 628 4550 
Q 988 4650 1302 4700 
Q 1616 4750 1894 4750 
Q 2613 4750 3031 4423 
Q 3450 4097 3450 3541 
Q 3450 3153 3228 2886 
Q 3006 2619 2597 2516 
z
" transform="scale(0.015625)"/>
       </defs>
       <use xlink:href="#DejaVuSans-31"/>
       <use xlink:href="#DejaVuSans-33" x="63.623047"/>
       <use xlink:href="#DejaVuSans-30" x="127.246094"/>
       <use xlink:href="#DejaVuSans-30" x="190.869141"/>
      </g>
     </g>
    </g>
   </g>
   <g id="matplotlib.axis_2">
    <g id="ytick_1">
     <g id="line2d_7">
      <defs>
       <path id="m20b1d91074" d="M 0 0 
L -3.5 0 
" style="stroke: #000000; stroke-width: 0.8"/>
      </defs>
      <g>
       <use xlink:href="#m20b1d91074" x="236.319267" y="272.961514" style="stroke: #000000; stroke-width: 0.8"/>
      </g>
     </g>
     <g id="text_7">
      <!-- 400 -->
      <g transform="translate(210.231767 276.760733) scale(0.1 -0.1)">
       <defs>
        <path id="DejaVuSans-34" d="M 2419 4116 
L 825 1625 
L 2419 1625 
L 2419 4116 
z
M 2253 4666 
L 3047 4666 
L 3047 1625 
L 3713 1625 
L 3713 1100 
L 3047 1100 
L 3047 0 
L 2419 0 
L 2419 1100 
L 313 1100 
L 313 1709 
L 2253 4666 
z
" transform="scale(0.015625)"/>
       </defs>
       <use xlink:href="#DejaVuSans-34"/>
       <use xlink:href="#DejaVuSans-30" x="63.623047"/>
       <use xlink:href="#DejaVuSans-30" x="127.246094"/>
      </g>
     </g>
    </g>
    <g id="ytick_2">
     <g id="line2d_8">
      <g>
       <use xlink:href="#m20b1d91074" x="236.319267" y="220.876604" style="stroke: #000000; stroke-width: 0.8"/>
      </g>
     </g>
     <g id="text_8">
      <!-- 500 -->
      <g transform="translate(210.231767 224.675823) scale(0.1 -0.1)">
       <defs>
        <path id="DejaVuSans-35" d="M 691 4666 
L 3169 4666 
L 3169 4134 
L 1269 4134 
L 1269 2991 
Q 1406 3038 1543 3061 
Q 1681 3084 1819 3084 
Q 2600 3084 3056 2656 
Q 3513 2228 3513 1497 
Q 3513 744 3044 326 
Q 2575 -91 1722 -91 
Q 1428 -91 1123 -41 
Q 819 9 494 109 
L 494 744 
Q 775 591 1075 516 
Q 1375 441 1709 441 
Q 2250 441 2565 725 
Q 2881 1009 2881 1497 
Q 2881 1984 2565 2268 
Q 2250 2553 1709 2553 
Q 1456 2553 1204 2497 
Q 953 2441 691 2322 
L 691 4666 
z
" transform="scale(0.015625)"/>
       </defs>
       <use xlink:href="#DejaVuSans-35"/>
       <use xlink:href="#DejaVuSans-30" x="63.623047"/>
       <use xlink:href="#DejaVuSans-30" x="127.246094"/>
      </g>
     </g>
    </g>
    <g id="ytick_3">
     <g id="line2d_9">
      <g>
       <use xlink:href="#m20b1d91074" x="236.319267" y="168.791694" style="stroke: #000000; stroke-width: 0.8"/>
      </g>
     </g>
     <g id="text_9">
      <!-- 600 -->
      <g transform="translate(210.231767 172.590912) scale(0.1 -0.1)">
       <defs>
        <path id="DejaVuSans-36" d="M 2113 2584 
Q 1688 2584 1439 2293 
Q 1191 2003 1191 1497 
Q 1191 994 1439 701 
Q 1688 409 2113 409 
Q 2538 409 2786 701 
Q 3034 994 3034 1497 
Q 3034 2003 2786 2293 
Q 2538 2584 2113 2584 
z
M 3366 4563 
L 3366 3988 
Q 3128 4100 2886 4159 
Q 2644 4219 2406 4219 
Q 1781 4219 1451 3797 
Q 1122 3375 1075 2522 
Q 1259 2794 1537 2939 
Q 1816 3084 2150 3084 
Q 2853 3084 3261 2657 
Q 3669 2231 3669 1497 
Q 3669 778 3244 343 
Q 2819 -91 2113 -91 
Q 1303 -91 875 529 
Q 447 1150 447 2328 
Q 447 3434 972 4092 
Q 1497 4750 2381 4750 
Q 2619 4750 2861 4703 
Q 3103 4656 3366 4563 
z
" transform="scale(0.015625)"/>
       </defs>
       <use xlink:href="#DejaVuSans-36"/>
       <use xlink:href="#DejaVuSans-30" x="63.623047"/>
       <use xlink:href="#DejaVuSans-30" x="127.246094"/>
      </g>
     </g>
    </g>
    <g id="ytick_4">
     <g id="line2d_10">
      <g>
       <use xlink:href="#m20b1d91074" x="236.319267" y="116.706784" style="stroke: #000000; stroke-width: 0.8"/>
      </g>
     </g>
     <g id="text_10">
      <!-- 700 -->
      <g transform="translate(210.231767 120.506002) scale(0.1 -0.1)">
       <defs>
        <path id="DejaVuSans-37" d="M 525 4666 
L 3525 4666 
L 3525 4397 
L 1831 0 
L 1172 0 
L 2766 4134 
L 525 4134 
L 525 4666 
z
" transform="scale(0.015625)"/>
       </defs>
       <use xlink:href="#DejaVuSans-37"/>
       <use xlink:href="#DejaVuSans-30" x="63.623047"/>
       <use xlink:href="#DejaVuSans-30" x="127.246094"/>
      </g>
     </g>
    </g>
    <g id="ytick_5">
     <g id="line2d_11">
      <g>
       <use xlink:href="#m20b1d91074" x="236.319267" y="64.621873" style="stroke: #000000; stroke-width: 0.8"/>
      </g>
     </g>
     <g id="text_11">
      <!-- 800 -->
      <g transform="translate(210.231767 68.421092) scale(0.1 -0.1)">
       <use xlink:href="#DejaVuSans-38"/>
       <use xlink:href="#DejaVuSans-30" x="63.623047"/>
       <use xlink:href="#DejaVuSans-30" x="127.246094"/>
      </g>
     </g>
    </g>
   </g>
   <g id="LineCollection_1">
    <path d="M 444.951849 57.850835 
L 454.563623 130.450185 
L 474.005246 156.229228 
L 429.402262 124.286262 
L 397.380982 101.366951 
L 389.103108 97.086555 
L 389.137655 99.357582 
L 383.637444 97.25536 
L 371.837098 90.176853 
L 364.004238 86.231996 
L 369.638679 92.924127 
L 387.45756 109.239996 
L 406.868828 126.813593 
L 417.7167 137.623492 
L 417.651893 139.814138 
L 411.569535 137.251891 
L 406.093562 135.168591 
L 404.917837 136.481792 
L 407.849616 141.039257 
L 412.554075 146.996852 
L 416.649243 152.473206 
L 418.775698 156.394595 
L 418.669504 158.552552 
L 416.820061 159.333625 
L 414.075553 159.407741 
L 411.25576 159.422393 
L 408.806588 159.729777 
L 406.632408 160.254359 
L 404.219403 160.590309 
L 400.996672 160.286705 
L 396.733306 159.161169 
L 391.758908 157.474032 
L 386.902789 155.880316 
L 383.183253 155.184317 
L 381.378114 156.000383 
L 381.652918 158.459267 
L 383.410329 162.08917 
L 385.444475 165.93765 
L 386.349999 168.894701 
L 385.00683 170.075648 
L 380.921413 169.090663 
L 374.290864 166.095434 
L 365.816118 161.643588 
L 356.415775 156.46067 
L 347.006049 151.270341 
L 338.423044 146.732988 
L 331.448446 143.466016 
L 326.83617 142.064897 
L 325.252881 143.056188 
L 327.114877 146.768697 
L 332.381098 153.169994 
L 340.407572 161.751444 
L 349.962277 171.53995 
L 359.442786 181.269853 
L 367.255089 189.682143 
L 372.237955 195.859634 
L 373.987967 199.483694 
L 372.969096 200.920784 
L 370.363306 201.104465 
L 367.705517 201.247074 
L 366.418694 202.472525 
L 367.401811 205.490862 
L 370.809036 210.423852 
L 376.086414 216.833961 
L 382.222212 223.922083 
L 388.07248 230.784682 
L 392.606438 236.607609 
L 394.997425 240.737936 
L 394.611113 242.674645 
L 391.016152 242.07704 
L 384.099759 238.856041 
L 374.242967 233.312602 
L 362.406054 226.205188 
L 349.992109 218.642012 
L 338.497644 211.805076 
L 329.120421 206.640419 
L 322.541457 203.685934 
L 318.966361 203.10402 
L 318.277884 204.802068 
L 320.029218 208.427172 
L 323.200754 213.174006 
L 326.078911 217.689118 
L 326.810091 220.508465 
L 324.633474 221.031123 
L 320.778495 220.228146 
L 317.742737 220.072222 
L 317.010632 221.73581 
L 317.185061 224.115414 
L 314.644936 224.350959 
L 306.458118 220.12653 
L 292.814314 211.591964 
L 277.029626 201.366448 
L 264.738896 193.900618 
L 263.996095 195.555981 
L 281.911535 211.950023 
L 315.780186 240.958567 
L 352.621774 272.429789 
L 373.479204 292.189968 
L 322.367235 262.243079 
L 266.821456 283.378496 
" clip-path="url(#p3a86e09db5)" style="fill: none; stroke: #1f77b4; stroke-width: 1.5"/>
    <path d="M 429.461546 59.90167 
L 436.073912 109.845982 
L 406.475441 88.660802 
L 404.558013 87.487266 
L 394.884053 82.569803 
L 393.432208 82.072751 
L 391.938609 81.72051 
L 390.417662 81.516476 
L 387.799976 81.531162 
L 378.86551 76.221323 
L 369.637041 71.657123 
L 368.187648 71.176948 
L 366.698309 70.840525 
L 365.183246 70.651067 
L 363.656925 70.610384 
L 362.133921 70.718862 
L 360.628775 70.975468 
L 359.155859 71.37775 
L 357.729239 71.921867 
L 356.362535 72.602624 
L 355.068797 73.413521 
L 353.860379 74.346815 
L 352.74882 75.393593 
L 351.744733 76.543862 
L 350.857705 77.786638 
L 350.096206 79.110054 
L 349.467508 80.501474 
L 348.977613 81.947611 
L 348.6312 83.434658 
L 348.431575 84.948415 
L 348.380646 86.474429 
L 348.478898 87.998127 
L 348.725393 89.504962 
L 349.117778 90.980544 
L 349.652305 92.410786 
L 350.323872 93.782029 
L 351.126065 95.081181 
L 352.051225 96.295837 
L 357.685666 102.987968 
L 359.086526 104.44834 
L 389.833631 132.468849 
L 389.702068 132.927109 
L 389.422918 134.466131 
L 389.299032 136.025352 
L 389.331652 137.589145 
L 389.52045 139.141843 
L 389.833901 140.536075 
L 389.776744 140.521417 
L 384.484705 139.613138 
L 382.89878 139.561434 
L 381.31579 139.67084 
L 379.752057 139.940227 
L 378.223708 140.366817 
L 374.941365 141.762276 
L 373.596326 142.450505 
L 372.324045 143.265421 
L 371.136416 144.199406 
L 369.525974 145.845924 
L 354.308729 137.456353 
L 345.051079 132.582915 
L 338.076481 129.315944 
L 335.990219 128.515173 
L 329.940446 126.750888 
L 328.474999 126.525604 
L 326.994797 126.440229 
L 325.513166 126.495534 
L 324.043448 126.69102 
L 322.598874 127.024926 
L 321.192451 127.494247 
L 319.836842 128.094757 
L 316.960964 129.81234 
L 315.69974 130.6912 
L 314.530978 131.689737 
L 313.465988 132.798285 
L 312.515079 134.006115 
L 311.687454 135.301537 
L 310.991123 136.672013 
L 310.432826 138.104279 
L 310.017967 139.584473 
L 309.75056 141.098267 
L 309.633193 142.631012 
L 309.667003 144.167872 
L 309.851663 145.693972 
L 310.185385 147.194543 
L 310.664939 148.655059 
L 311.285683 150.061387 
L 314.016149 155.288013 
L 315.048076 156.695818 
L 320.969376 163.843701 
L 329.225964 172.665978 
L 348.120652 192.040172 
L 352.031798 196.375589 
L 351.484635 197.875864 
L 351.093459 199.424151 
L 350.865756 200.981034 
L 346.035902 198.118218 
L 335.521663 192.386314 
L 327.681247 188.929987 
L 326.380996 188.539537 
L 325.05176 188.263425 
L 319.98353 187.511689 
L 318.480988 187.486087 
L 316.982934 187.604942 
L 315.503226 187.867154 
L 314.05555 188.270297 
L 312.653296 188.810643 
L 311.309435 189.483195 
L 310.036395 190.281731 
L 308.845952 191.198865 
L 307.749116 192.226115 
L 306.756033 193.353979 
L 305.875889 194.572025 
L 305.116823 195.868987 
L 303.797381 198.930916 
L 303.479601 199.832721 
L 301.205854 198.410431 
L 285.141764 188.011725 
L 271.481512 179.804783 
L 270.045024 179.203665 
L 268.555838 178.74851 
L 267.028745 178.443839 
L 265.478909 178.292678 
L 263.921724 178.296527 
L 262.372655 178.455349 
L 260.847086 178.767567 
L 259.360169 179.230079 
L 257.926671 179.838292 
L 256.560829 180.586166 
L 255.276208 181.466273 
L 254.085566 182.469872 
L 253.000727 183.586996 
L 252.032467 184.80655 
L 251.190402 186.116422 
L 249.740092 189.158966 
L 249.191215 190.558888 
L 248.779441 192.005086 
L 248.508584 193.484167 
L 248.381151 194.982435 
L 248.398324 196.486015 
L 248.559943 197.980981 
L 248.864511 199.453491 
L 249.309208 200.889907 
L 249.889916 202.276927 
L 250.601256 203.601706 
L 251.436642 204.851977 
L 252.388337 206.01616 
L 253.447527 207.083475 
L 271.747002 223.817527 
L 304.865981 252.183978 
L 261.264574 268.774508 
L 261.264574 268.774508 
" clip-path="url(#p3a86e09db5)" style="fill: none; stroke: #8c564b; stroke-width: 1.5"/>
    <path d="M 460.442152 55.8 
L 469.51436 124.323915 
L 487.340347 148.084875 
L 488.0724 149.426979 
L 488.669797 150.834197 
L 489.126819 152.293057 
L 489.439092 153.789596 
L 489.603627 155.309488 
L 489.618849 156.838185 
L 489.484611 158.361052 
L 489.202199 159.863512 
L 488.774317 161.331184 
L 488.20506 162.750018 
L 487.499877 164.106433 
L 486.665518 165.387444 
L 485.709971 166.580789 
L 484.642382 167.675046 
L 483.47297 168.659739 
L 482.21293 169.525443 
L 480.874323 170.26387 
L 479.469963 170.867953 
L 478.013293 171.331909 
L 476.518256 171.651296 
L 474.999163 171.823058 
L 473.470557 171.84555 
L 471.947068 171.718557 
L 470.443282 171.443295 
L 468.973591 171.022397 
L 467.552066 170.459895 
L 466.192313 169.761171 
L 464.907348 168.932915 
L 432.186693 145.499622 
L 431.482944 147.049137 
L 433.131686 150.225235 
L 433.632972 151.555504 
L 434.011283 152.925827 
L 434.263487 154.324861 
L 434.387497 155.741027 
L 434.276092 159.320559 
L 434.116771 160.905709 
L 433.796871 162.466396 
L 433.319717 163.986398 
L 432.690268 165.449913 
L 431.915069 166.841727 
L 431.002177 168.147373 
L 429.961083 169.353277 
L 428.802609 170.446904 
L 427.538798 171.416885 
L 426.182787 172.253136 
L 422.89923 173.728037 
L 421.533947 174.231097 
L 420.127791 174.604981 
L 418.692953 174.846448 
L 417.241875 174.953403 
L 411.620756 175.124639 
L 408.787074 175.730561 
L 404.566304 176.211931 
L 402.753866 176.146902 
L 400.299998 175.934085 
L 399.564681 177.233021 
L 398.708779 178.45587 
L 397.740103 179.591473 
L 395.324323 181.810415 
L 394.154795 182.743329 
L 392.901409 183.560121 
L 391.575656 184.253304 
L 390.189687 184.816523 
L 388.756208 185.244615 
L 387.288359 185.533657 
L 385.799596 185.680997 
L 384.090241 185.665409 
L 385.440795 187.502576 
L 386.308792 189.065007 
L 388.650505 194.083196 
L 389.10446 195.52806 
L 389.416404 197.010085 
L 389.583406 198.515348 
L 389.603897 200.029708 
L 389.477686 201.538938 
L 389.205957 203.028861 
L 388.791263 204.485478 
L 387.886824 206.58327 
L 388.02682 206.753315 
L 400.401335 221.184956 
L 404.935293 227.007883 
L 406.129495 228.779305 
L 409.254281 234.342824 
L 409.836698 235.843922 
L 410.261548 237.396985 
L 410.524319 238.985524 
L 410.622222 240.59267 
L 410.554217 242.201358 
L 409.934715 245.731217 
L 409.570433 247.188418 
L 409.067918 248.60391 
L 408.431814 249.964612 
L 407.667999 251.25795 
L 406.783531 252.471973 
L 405.786582 253.595464 
L 404.686366 254.61804 
L 403.493048 255.530252 
L 402.217656 256.323671 
L 400.871976 256.990964 
L 399.468441 257.525967 
L 398.020022 257.923735 
L 396.540102 258.180592 
L 395.042358 258.294166 
L 393.540628 258.263406 
L 392.048791 258.088597 
L 387.073224 257.196853 
L 385.724797 256.779318 
L 384.419554 256.241796 
L 376.440252 252.475416 
L 366.199345 246.708705 
L 338.984267 230.275146 
L 338.356368 231.03647 
L 337.255712 232.129326 
L 336.05213 233.107677 
L 334.757481 233.961881 
L 332.778625 234.928778 
L 363.368255 261.086572 
L 385.274827 281.942105 
L 386.212827 283.134017 
L 387.030848 284.411256 
L 387.721181 285.761788 
L 388.277323 287.172888 
L 388.694033 288.63126 
L 388.967384 290.123164 
L 389.094802 291.634541 
L 389.075086 293.151152 
L 388.908421 294.658706 
L 388.596378 296.142999 
L 388.141897 297.590046 
L 387.54926 298.986211 
L 386.824052 300.318341 
L 385.973105 301.573883 
L 385.004436 302.741007 
L 383.927175 303.808717 
L 382.751469 304.766952 
L 381.488398 305.606682 
L 380.149862 306.319998 
L 378.748473 306.900176 
L 377.297436 307.341751 
L 375.810423 307.640561 
L 374.301444 307.793792 
L 372.784717 307.8 
L 371.274535 307.659126 
L 369.785125 307.372497 
L 368.330522 306.942815 
L 366.924431 306.374127 
L 365.580102 305.671792 
L 320.927309 279.509384 
L 272.378339 297.982484 
L 272.378339 297.982484 
" clip-path="url(#p3a86e09db5)" style="fill: none; stroke: #17becf; stroke-width: 1.5"/>
   </g>
   <g id="patch_3">
    <path d="M 236.319267 320.4 
L 236.319267 43.2 
" style="fill: none; stroke: #000000; stroke-width: 0.8; stroke-linejoin: miter; stroke-linecap: square"/>
   </g>
   <g id="patch_4">
    <path d="M 501.680733 320.4 
L 501.680733 43.2 
" style="fill: none; stroke: #000000; stroke-width: 0.8; stroke-linejoin: miter; stroke-linecap: square"/>
   </g>
   <g id="patch_5">
    <path d="M 236.319267 320.4 
L 501.680733 320.4 
" style="fill: none; stroke: #000000; stroke-width: 0.8; stroke-linejoin: miter; stroke-linecap: square"/>
   </g>
   <g id="patch_6">
    <path d="M 236.319267 43.2 
L 501.680733 43.2 
" style="fill: none; stroke: #000000; stroke-width: 0.8; stroke-linejoin: miter; stroke-linecap: square"/>
   </g>
  </g>
 </g>
 <defs>
  <clipPath id="p3a86e09db5">
   <rect x="236.319267" y="43.2" width="265.361467" height="277.2"/>
  </clipPath>
 </defs>
</svg>
