<?xml version="1.0" encoding="utf-8" standalone="no"?>
<!DOCTYPE svg PUBLIC "-//W3C//DTD SVG 1.1//EN"
  "http://www.w3.org/Graphics/SVG/1.1/DTD/svg11.dtd">
<svg xmlns:xlink="http://www.w3.org/1999/xlink" width="720pt" height="360pt" viewBox="0 0 720 360" xmlns="http://www.w3.org/2000/svg" version="1.1">
 <metadata>
  <rdf:RDF xmlns:dc="http://purl.org/dc/elements/1.1/" xmlns:cc="http://creativecommons.org/ns#" xmlns:rdf="http://www.w3.org/1999/02/22-rdf-syntax-ns#">
   <cc:Work>
    <dc:type rdf:resource="http://purl.org/dc/dcmitype/StillImage"/>
    <dc:date>2024-01-11T18:09:15.612961</dc:date>
    <dc:format>image/svg+xml</dc:format>
    <dc:creator>
     <cc:Agent>
      <dc:title>Matplotlib v3.7.1, https://matplotlib.org/</dc:title>
     </cc:Agent>
    </dc:creator>
   </cc:Work>
  </rdf:RDF>
 </metadata>
 <defs>
  <style type="text/css">*{stroke-linejoin: round; stroke-linecap: butt}</style>
 </defs>
 <g id="figure_1">
  <g id="patch_1">
   <path d="M 0 360 
L 720 360 
L 720 0 
L 0 0 
z
" style="fill: #ffffff"/>
  </g>
  <g id="axes_1">
   <g id="patch_2">
    <path d="M 140.33835 320.4 
L 597.66165 320.4 
L 597.66165 43.2 
L 140.33835 43.2 
z
" style="fill: #ffffff"/>
   </g>
   <g id="matplotlib.axis_1">
    <g id="xtick_1">
     <g id="line2d_1">
      <defs>
       <path id="ma2d3d727f0" d="M 0 0 
L 0 3.5 
" style="stroke: #000000; stroke-width: 0.8"/>
      </defs>
      <g>
       <use xlink:href="#ma2d3d727f0" x="193.347764" y="320.4" style="stroke: #000000; stroke-width: 0.8"/>
      </g>
     </g>
     <g id="text_1">
      <!-- 400 -->
      <g transform="translate(183.804014 334.998438) scale(0.1 -0.1)">
       <defs>
        <path id="DejaVuSans-34" d="M 2419 4116 
L 825 1625 
L 2419 1625 
L 2419 4116 
z
M 2253 4666 
L 3047 4666 
L 3047 1625 
L 3713 1625 
L 3713 1100 
L 3047 1100 
L 3047 0 
L 2419 0 
L 2419 1100 
L 313 1100 
L 313 1709 
L 2253 4666 
z
" transform="scale(0.015625)"/>
        <path id="DejaVuSans-30" d="M 2034 4250 
Q 1547 4250 1301 3770 
Q 1056 3291 1056 2328 
Q 1056 1369 1301 889 
Q 1547 409 2034 409 
Q 2525 409 2770 889 
Q 3016 1369 3016 2328 
Q 3016 3291 2770 3770 
Q 2525 4250 2034 4250 
z
M 2034 4750 
Q 2819 4750 3233 4129 
Q 3647 3509 3647 2328 
Q 3647 1150 3233 529 
Q 2819 -91 2034 -91 
Q 1250 -91 836 529 
Q 422 1150 422 2328 
Q 422 3509 836 4129 
Q 1250 4750 2034 4750 
z
" transform="scale(0.015625)"/>
       </defs>
       <use xlink:href="#DejaVuSans-34"/>
       <use xlink:href="#DejaVuSans-30" x="63.623047"/>
       <use xlink:href="#DejaVuSans-30" x="127.246094"/>
      </g>
     </g>
    </g>
    <g id="xtick_2">
     <g id="line2d_2">
      <g>
       <use xlink:href="#ma2d3d727f0" x="283.192462" y="320.4" style="stroke: #000000; stroke-width: 0.8"/>
      </g>
     </g>
     <g id="text_2">
      <!-- 600 -->
      <g transform="translate(273.648712 334.998438) scale(0.1 -0.1)">
       <defs>
        <path id="DejaVuSans-36" d="M 2113 2584 
Q 1688 2584 1439 2293 
Q 1191 2003 1191 1497 
Q 1191 994 1439 701 
Q 1688 409 2113 409 
Q 2538 409 2786 701 
Q 3034 994 3034 1497 
Q 3034 2003 2786 2293 
Q 2538 2584 2113 2584 
z
M 3366 4563 
L 3366 3988 
Q 3128 4100 2886 4159 
Q 2644 4219 2406 4219 
Q 1781 4219 1451 3797 
Q 1122 3375 1075 2522 
Q 1259 2794 1537 2939 
Q 1816 3084 2150 3084 
Q 2853 3084 3261 2657 
Q 3669 2231 3669 1497 
Q 3669 778 3244 343 
Q 2819 -91 2113 -91 
Q 1303 -91 875 529 
Q 447 1150 447 2328 
Q 447 3434 972 4092 
Q 1497 4750 2381 4750 
Q 2619 4750 2861 4703 
Q 3103 4656 3366 4563 
z
" transform="scale(0.015625)"/>
       </defs>
       <use xlink:href="#DejaVuSans-36"/>
       <use xlink:href="#DejaVuSans-30" x="63.623047"/>
       <use xlink:href="#DejaVuSans-30" x="127.246094"/>
      </g>
     </g>
    </g>
    <g id="xtick_3">
     <g id="line2d_3">
      <g>
       <use xlink:href="#ma2d3d727f0" x="373.037161" y="320.4" style="stroke: #000000; stroke-width: 0.8"/>
      </g>
     </g>
     <g id="text_3">
      <!-- 800 -->
      <g transform="translate(363.493411 334.998438) scale(0.1 -0.1)">
       <defs>
        <path id="DejaVuSans-38" d="M 2034 2216 
Q 1584 2216 1326 1975 
Q 1069 1734 1069 1313 
Q 1069 891 1326 650 
Q 1584 409 2034 409 
Q 2484 409 2743 651 
Q 3003 894 3003 1313 
Q 3003 1734 2745 1975 
Q 2488 2216 2034 2216 
z
M 1403 2484 
Q 997 2584 770 2862 
Q 544 3141 544 3541 
Q 544 4100 942 4425 
Q 1341 4750 2034 4750 
Q 2731 4750 3128 4425 
Q 3525 4100 3525 3541 
Q 3525 3141 3298 2862 
Q 3072 2584 2669 2484 
Q 3125 2378 3379 2068 
Q 3634 1759 3634 1313 
Q 3634 634 3220 271 
Q 2806 -91 2034 -91 
Q 1263 -91 848 271 
Q 434 634 434 1313 
Q 434 1759 690 2068 
Q 947 2378 1403 2484 
z
M 1172 3481 
Q 1172 3119 1398 2916 
Q 1625 2713 2034 2713 
Q 2441 2713 2670 2916 
Q 2900 3119 2900 3481 
Q 2900 3844 2670 4047 
Q 2441 4250 2034 4250 
Q 1625 4250 1398 4047 
Q 1172 3844 1172 3481 
z
" transform="scale(0.015625)"/>
       </defs>
       <use xlink:href="#DejaVuSans-38"/>
       <use xlink:href="#DejaVuSans-30" x="63.623047"/>
       <use xlink:href="#DejaVuSans-30" x="127.246094"/>
      </g>
     </g>
    </g>
    <g id="xtick_4">
     <g id="line2d_4">
      <g>
       <use xlink:href="#ma2d3d727f0" x="462.881859" y="320.4" style="stroke: #000000; stroke-width: 0.8"/>
      </g>
     </g>
     <g id="text_4">
      <!-- 1000 -->
      <g transform="translate(450.156859 334.998438) scale(0.1 -0.1)">
       <defs>
        <path id="DejaVuSans-31" d="M 794 531 
L 1825 531 
L 1825 4091 
L 703 3866 
L 703 4441 
L 1819 4666 
L 2450 4666 
L 2450 531 
L 3481 531 
L 3481 0 
L 794 0 
L 794 531 
z
" transform="scale(0.015625)"/>
       </defs>
       <use xlink:href="#DejaVuSans-31"/>
       <use xlink:href="#DejaVuSans-30" x="63.623047"/>
       <use xlink:href="#DejaVuSans-30" x="127.246094"/>
       <use xlink:href="#DejaVuSans-30" x="190.869141"/>
      </g>
     </g>
    </g>
    <g id="xtick_5">
     <g id="line2d_5">
      <g>
       <use xlink:href="#ma2d3d727f0" x="552.726558" y="320.4" style="stroke: #000000; stroke-width: 0.8"/>
      </g>
     </g>
     <g id="text_5">
      <!-- 1200 -->
      <g transform="translate(540.001558 334.998438) scale(0.1 -0.1)">
       <defs>
        <path id="DejaVuSans-32" d="M 1228 531 
L 3431 531 
L 3431 0 
L 469 0 
L 469 531 
Q 828 903 1448 1529 
Q 2069 2156 2228 2338 
Q 2531 2678 2651 2914 
Q 2772 3150 2772 3378 
Q 2772 3750 2511 3984 
Q 2250 4219 1831 4219 
Q 1534 4219 1204 4116 
Q 875 4013 500 3803 
L 500 4441 
Q 881 4594 1212 4672 
Q 1544 4750 1819 4750 
Q 2544 4750 2975 4387 
Q 3406 4025 3406 3419 
Q 3406 3131 3298 2873 
Q 3191 2616 2906 2266 
Q 2828 2175 2409 1742 
Q 1991 1309 1228 531 
z
" transform="scale(0.015625)"/>
       </defs>
       <use xlink:href="#DejaVuSans-31"/>
       <use xlink:href="#DejaVuSans-32" x="63.623047"/>
       <use xlink:href="#DejaVuSans-30" x="127.246094"/>
       <use xlink:href="#DejaVuSans-30" x="190.869141"/>
      </g>
     </g>
    </g>
   </g>
   <g id="matplotlib.axis_2">
    <g id="ytick_1">
     <g id="line2d_6">
      <defs>
       <path id="ma6d8a23cbb" d="M 0 0 
L -3.5 0 
" style="stroke: #000000; stroke-width: 0.8"/>
      </defs>
      <g>
       <use xlink:href="#ma6d8a23cbb" x="140.33835" y="308.706433" style="stroke: #000000; stroke-width: 0.8"/>
      </g>
     </g>
     <g id="text_6">
      <!-- 200 -->
      <g transform="translate(114.25085 312.505652) scale(0.1 -0.1)">
       <use xlink:href="#DejaVuSans-32"/>
       <use xlink:href="#DejaVuSans-30" x="63.623047"/>
       <use xlink:href="#DejaVuSans-30" x="127.246094"/>
      </g>
     </g>
    </g>
    <g id="ytick_2">
     <g id="line2d_7">
      <g>
       <use xlink:href="#ma6d8a23cbb" x="140.33835" y="263.784084" style="stroke: #000000; stroke-width: 0.8"/>
      </g>
     </g>
     <g id="text_7">
      <!-- 300 -->
      <g transform="translate(114.25085 267.583302) scale(0.1 -0.1)">
       <defs>
        <path id="DejaVuSans-33" d="M 2597 2516 
Q 3050 2419 3304 2112 
Q 3559 1806 3559 1356 
Q 3559 666 3084 287 
Q 2609 -91 1734 -91 
Q 1441 -91 1130 -33 
Q 819 25 488 141 
L 488 750 
Q 750 597 1062 519 
Q 1375 441 1716 441 
Q 2309 441 2620 675 
Q 2931 909 2931 1356 
Q 2931 1769 2642 2001 
Q 2353 2234 1838 2234 
L 1294 2234 
L 1294 2753 
L 1863 2753 
Q 2328 2753 2575 2939 
Q 2822 3125 2822 3475 
Q 2822 3834 2567 4026 
Q 2313 4219 1838 4219 
Q 1578 4219 1281 4162 
Q 984 4106 628 3988 
L 628 4550 
Q 988 4650 1302 4700 
Q 1616 4750 1894 4750 
Q 2613 4750 3031 4423 
Q 3450 4097 3450 3541 
Q 3450 3153 3228 2886 
Q 3006 2619 2597 2516 
z
" transform="scale(0.015625)"/>
       </defs>
       <use xlink:href="#DejaVuSans-33"/>
       <use xlink:href="#DejaVuSans-30" x="63.623047"/>
       <use xlink:href="#DejaVuSans-30" x="127.246094"/>
      </g>
     </g>
    </g>
    <g id="ytick_3">
     <g id="line2d_8">
      <g>
       <use xlink:href="#ma6d8a23cbb" x="140.33835" y="218.861734" style="stroke: #000000; stroke-width: 0.8"/>
      </g>
     </g>
     <g id="text_8">
      <!-- 400 -->
      <g transform="translate(114.25085 222.660953) scale(0.1 -0.1)">
       <use xlink:href="#DejaVuSans-34"/>
       <use xlink:href="#DejaVuSans-30" x="63.623047"/>
       <use xlink:href="#DejaVuSans-30" x="127.246094"/>
      </g>
     </g>
    </g>
    <g id="ytick_4">
     <g id="line2d_9">
      <g>
       <use xlink:href="#ma6d8a23cbb" x="140.33835" y="173.939385" style="stroke: #000000; stroke-width: 0.8"/>
      </g>
     </g>
     <g id="text_9">
      <!-- 500 -->
      <g transform="translate(114.25085 177.738604) scale(0.1 -0.1)">
       <defs>
        <path id="DejaVuSans-35" d="M 691 4666 
L 3169 4666 
L 3169 4134 
L 1269 4134 
L 1269 2991 
Q 1406 3038 1543 3061 
Q 1681 3084 1819 3084 
Q 2600 3084 3056 2656 
Q 3513 2228 3513 1497 
Q 3513 744 3044 326 
Q 2575 -91 1722 -91 
Q 1428 -91 1123 -41 
Q 819 9 494 109 
L 494 744 
Q 775 591 1075 516 
Q 1375 441 1709 441 
Q 2250 441 2565 725 
Q 2881 1009 2881 1497 
Q 2881 1984 2565 2268 
Q 2250 2553 1709 2553 
Q 1456 2553 1204 2497 
Q 953 2441 691 2322 
L 691 4666 
z
" transform="scale(0.015625)"/>
       </defs>
       <use xlink:href="#DejaVuSans-35"/>
       <use xlink:href="#DejaVuSans-30" x="63.623047"/>
       <use xlink:href="#DejaVuSans-30" x="127.246094"/>
      </g>
     </g>
    </g>
    <g id="ytick_5">
     <g id="line2d_10">
      <g>
       <use xlink:href="#ma6d8a23cbb" x="140.33835" y="129.017036" style="stroke: #000000; stroke-width: 0.8"/>
      </g>
     </g>
     <g id="text_10">
      <!-- 600 -->
      <g transform="translate(114.25085 132.816255) scale(0.1 -0.1)">
       <use xlink:href="#DejaVuSans-36"/>
       <use xlink:href="#DejaVuSans-30" x="63.623047"/>
       <use xlink:href="#DejaVuSans-30" x="127.246094"/>
      </g>
     </g>
    </g>
    <g id="ytick_6">
     <g id="line2d_11">
      <g>
       <use xlink:href="#ma6d8a23cbb" x="140.33835" y="84.094687" style="stroke: #000000; stroke-width: 0.8"/>
      </g>
     </g>
     <g id="text_11">
      <!-- 700 -->
      <g transform="translate(114.25085 87.893905) scale(0.1 -0.1)">
       <defs>
        <path id="DejaVuSans-37" d="M 525 4666 
L 3525 4666 
L 3525 4397 
L 1831 0 
L 1172 0 
L 2766 4134 
L 525 4134 
L 525 4666 
z
" transform="scale(0.015625)"/>
       </defs>
       <use xlink:href="#DejaVuSans-37"/>
       <use xlink:href="#DejaVuSans-30" x="63.623047"/>
       <use xlink:href="#DejaVuSans-30" x="127.246094"/>
      </g>
     </g>
    </g>
   </g>
   <g id="LineCollection_1">
    <path d="M 172.234259 63.430406 
L 176.279061 69.318904 
L 180.226642 75.075331 
L 184.103613 80.666411 
L 187.93374 86.06346 
L 191.738091 91.242126 
L 195.53519 96.182143 
L 199.341156 100.867073 
L 203.169847 105.28408 
L 207.032995 109.423685 
L 210.940339 113.279549 
L 214.899754 116.848247 
L 218.917379 120.129061 
L 222.997733 123.123768 
L 227.143837 125.836444 
L 231.357328 128.273265 
L 235.638569 130.442327 
L 239.986756 132.353457 
L 244.400022 134.018044 
L 248.875537 135.448864 
L 253.409605 136.659922 
L 257.997757 137.666293 
L 262.634843 138.483968 
L 267.315116 139.129714 
L 272.032316 139.620929 
L 276.779751 139.975512 
L 281.550375 140.211732 
L 286.336859 140.348106 
L 291.131665 140.403282 
L 295.927111 140.395929 
L 300.715438 140.344628 
L 305.488869 140.267771 
L 310.239668 140.183466 
L 314.9602 140.109448 
L 319.642977 140.062991 
L 324.280714 140.06083 
L 328.866371 140.119083 
L 333.393203 140.253183 
L 337.854796 140.477812 
L 342.24511 140.80684 
L 346.558513 141.253268 
L 350.789817 141.829181 
L 354.934305 142.545697 
L 358.987764 143.412927 
L 362.946509 144.439937 
L 366.807405 145.634717 
L 370.567892 147.004151 
L 374.226001 148.553991 
L 377.780368 150.288843 
L 381.230255 152.212145 
L 384.575555 154.326158 
L 387.816806 156.631959 
L 390.955195 159.129439 
L 393.992565 161.8173 
L 396.931418 164.693062 
L 399.774917 167.753071 
L 402.526882 170.992511 
L 405.191788 174.40542 
L 407.774764 177.984709 
L 410.281579 181.722184 
L 412.718638 185.608578 
L 415.092969 189.633573 
L 417.412214 193.785841 
L 419.68461 198.053075 
L 421.918973 202.422033 
L 424.124687 206.87858 
L 426.311676 211.407735 
L 428.490388 215.993719 
L 430.671771 220.620012 
L 432.867249 225.269401 
L 435.088695 229.924048 
L 437.348406 234.565543 
L 439.659074 239.174974 
L 442.033753 243.732989 
L 444.485833 248.219873 
L 447.029002 252.615611 
L 449.677215 256.899968 
L 452.444658 261.052568 
L 455.345712 265.052969 
L 458.394915 268.880747 
L 461.606923 272.515581 
L 464.996473 275.937338 
L 468.578336 279.126163 
L 472.367281 282.06257 
L 476.378031 284.727533 
L 480.625216 287.102581 
L 485.123335 289.169897 
L 489.8867 290.912415 
L 494.929403 292.31392 
L 500.265255 293.359151 
L 505.907751 294.033903 
L 511.870011 294.325136 
L 518.164737 294.221078 
L 524.804162 293.711334 
L 531.799997 292.787 
L 539.163385 291.440768 
L 546.904842 289.667042 
L 555.034215 287.462054 
L 563.560619 284.823972 
L 572.492391 281.753023 
" clip-path="url(#p4344398dc4)" style="fill: none; stroke: #1f77b4; stroke-width: 1.5"/>
    <path d="M 161.125773 71.060812 
L 173.113229 88.465964 
L 180.877077 99.220844 
L 185.075141 104.679727 
L 189.157664 109.694193 
L 193.317057 114.478866 
L 197.566927 119.016136 
L 201.917603 123.290134 
L 206.375656 127.286701 
L 210.943508 130.993634 
L 215.61926 134.401166 
L 220.396845 137.50262 
L 225.266556 140.295081 
L 230.215905 142.779923 
L 235.230701 144.963037 
L 240.296148 146.854702 
L 245.397803 148.469115 
L 250.522249 149.823689 
L 255.657463 150.93824 
L 260.792887 151.834203 
L 265.919296 152.53394 
L 271.028545 153.060201 
L 276.113262 153.435726 
L 286.181785 153.823918 
L 296.07149 153.871861 
L 328.581233 153.593253 
L 337.012254 153.929167 
L 341.047582 154.231591 
L 344.955636 154.636066 
L 348.732466 155.150122 
L 352.375625 155.779966 
L 355.884468 156.530676 
L 359.260405 157.40649 
L 362.50705 158.411185 
L 365.630216 159.54853 
L 368.637713 160.822724 
L 371.538924 162.238777 
L 374.344206 163.802713 
L 377.064181 165.521561 
L 379.709024 167.403083 
L 382.287882 169.455297 
L 384.808492 171.685861 
L 387.277052 174.101426 
L 389.698326 176.707061 
L 392.075933 179.50583 
L 394.412728 182.498531 
L 396.711225 185.683611 
L 398.973983 189.057217 
L 401.203939 192.613341 
L 405.580528 200.239603 
L 409.879992 208.479454 
L 414.15717 217.229365 
L 425.300704 240.604952 
L 430.207813 250.195861 
L 432.820746 254.968748 
L 435.565432 259.701381 
L 438.462726 264.37371 
L 441.534766 268.964322 
L 444.804707 273.44992 
L 448.296194 277.804726 
L 452.0325 281.999883 
L 456.035274 286.003046 
L 460.322933 289.778389 
L 464.908946 293.287311 
L 469.800386 296.490022 
L 474.997311 299.347917 
L 480.493402 301.82633 
L 486.277939 303.89696 
L 492.338712 305.539271 
L 498.665057 306.740516 
L 505.250251 307.49456 
L 512.092764 307.8 
L 519.196378 307.658238 
L 526.569448 307.071923 
L 534.223739 306.043962 
L 542.173181 304.57708 
L 550.432756 302.673787 
L 559.017619 300.336605 
L 567.942455 297.568425 
L 576.874227 294.497476 
L 576.874227 294.497476 
" clip-path="url(#p4344398dc4)" style="fill: none; stroke: #8c564b; stroke-width: 1.5"/>
    <path d="M 183.342746 55.8 
L 195.136467 72.926702 
L 202.512374 83.145345 
L 206.109633 87.82537 
L 209.665558 92.202514 
L 213.191362 96.270092 
L 216.696517 100.026086 
L 220.189469 103.473017 
L 223.678388 106.617648 
L 227.171867 109.470442 
L 230.679455 112.044778 
L 234.21192 114.355966 
L 237.781136 116.420179 
L 241.399617 118.253458 
L 245.07975 119.870963 
L 248.832897 121.286567 
L 252.668564 122.512828 
L 256.593768 123.561258 
L 260.612702 124.442775 
L 264.726702 125.168213 
L 268.934454 125.748764 
L 273.232366 126.196318 
L 277.615011 126.523655 
L 286.606323 126.873609 
L 295.844588 126.919335 
L 329.265422 126.648287 
L 338.86197 127.038795 
L 343.632511 127.40174 
L 348.376039 127.899686 
L 353.085666 128.549473 
L 357.753812 129.367232 
L 362.371972 130.368054 
L 366.930562 131.565587 
L 371.418875 132.971545 
L 375.825226 134.595202 
L 380.137298 136.442916 
L 384.34269 138.517798 
L 388.429622 140.819573 
L 392.387679 143.344705 
L 396.208501 146.08677 
L 399.886291 149.037011 
L 403.41808 152.184999 
L 406.803742 155.519252 
L 410.045787 159.027775 
L 413.149009 162.698419 
L 416.120066 166.519083 
L 418.967057 170.477769 
L 421.699143 174.56252 
L 424.326234 178.761295 
L 426.858746 183.06181 
L 431.683242 191.916758 
L 436.260631 201.018507 
L 442.859753 214.868953 
L 449.43116 228.596059 
L 453.923852 237.387517 
L 456.233088 241.61302 
L 458.595784 245.69682 
L 461.019563 249.618082 
L 463.511184 253.356806 
L 466.076647 256.894445 
L 468.721507 260.214635 
L 471.451475 263.303974 
L 474.273402 266.152715 
L 477.196627 268.755174 
L 480.234579 271.109567 
L 483.406321 273.217046 
L 486.737542 275.079882 
L 490.260491 276.699015 
L 494.012581 278.071591 
L 498.033805 279.1892 
L 502.363604 280.037356 
L 507.037992 280.596339 
L 512.087616 280.842993 
L 517.536973 280.752909 
L 523.40465 280.302417 
L 529.704201 279.47008 
L 536.445276 278.237624 
L 543.634704 276.59038 
L 551.277392 274.517398 
L 559.376986 272.011372 
L 568.110555 269.00857 
L 568.110555 269.00857 
" clip-path="url(#p4344398dc4)" style="fill: none; stroke: #17becf; stroke-width: 1.5"/>
   </g>
   <g id="patch_3">
    <path d="M 140.33835 320.4 
L 140.33835 43.2 
" style="fill: none; stroke: #000000; stroke-width: 0.8; stroke-linejoin: miter; stroke-linecap: square"/>
   </g>
   <g id="patch_4">
    <path d="M 597.66165 320.4 
L 597.66165 43.2 
" style="fill: none; stroke: #000000; stroke-width: 0.8; stroke-linejoin: miter; stroke-linecap: square"/>
   </g>
   <g id="patch_5">
    <path d="M 140.33835 320.4 
L 597.66165 320.4 
" style="fill: none; stroke: #000000; stroke-width: 0.8; stroke-linejoin: miter; stroke-linecap: square"/>
   </g>
   <g id="patch_6">
    <path d="M 140.33835 43.2 
L 597.66165 43.2 
" style="fill: none; stroke: #000000; stroke-width: 0.8; stroke-linejoin: miter; stroke-linecap: square"/>
   </g>
  </g>
 </g>
 <defs>
  <clipPath id="p4344398dc4">
   <rect x="140.33835" y="43.2" width="457.3233" height="277.2"/>
  </clipPath>
 </defs>
</svg>
