<?xml version="1.0" encoding="utf-8" standalone="no"?>
<!DOCTYPE svg PUBLIC "-//W3C//DTD SVG 1.1//EN"
  "http://www.w3.org/Graphics/SVG/1.1/DTD/svg11.dtd">
<svg xmlns:xlink="http://www.w3.org/1999/xlink" width="720pt" height="360pt" viewBox="0 0 720 360" xmlns="http://www.w3.org/2000/svg" version="1.1">
 <metadata>
  <rdf:RDF xmlns:dc="http://purl.org/dc/elements/1.1/" xmlns:cc="http://creativecommons.org/ns#" xmlns:rdf="http://www.w3.org/1999/02/22-rdf-syntax-ns#">
   <cc:Work>
    <dc:type rdf:resource="http://purl.org/dc/dcmitype/StillImage"/>
    <dc:date>2024-01-17T12:56:50.765608</dc:date>
    <dc:format>image/svg+xml</dc:format>
    <dc:creator>
     <cc:Agent>
      <dc:title>Matplotlib v3.7.3, https://matplotlib.org/</dc:title>
     </cc:Agent>
    </dc:creator>
   </cc:Work>
  </rdf:RDF>
 </metadata>
 <defs>
  <style type="text/css">*{stroke-linejoin: round; stroke-linecap: butt}</style>
 </defs>
 <g id="figure_1">
  <g id="patch_1">
   <path d="M 0 360 
L 720 360 
L 720 0 
L 0 0 
z
" style="fill: #ffffff"/>
  </g>
  <g id="axes_1">
   <g id="patch_2">
    <path d="M 216.925164 320.4 
L 521.074836 320.4 
L 521.074836 43.2 
L 216.925164 43.2 
z
" style="fill: #ffffff"/>
   </g>
   <g id="matplotlib.axis_1">
    <g id="xtick_1">
     <g id="line2d_1">
      <defs>
       <path id="m8663c84d41" d="M 0 0 
L 0 3.5 
" style="stroke: #000000; stroke-width: 0.8"/>
      </defs>
      <g>
       <use xlink:href="#m8663c84d41" x="223.64348" y="320.4" style="stroke: #000000; stroke-width: 0.8"/>
      </g>
     </g>
     <g id="text_1">
      <!-- 350 -->
      <g transform="translate(214.09973 334.998438) scale(0.1 -0.1)">
       <defs>
        <path id="DejaVuSans-33" d="M 2597 2516 
Q 3050 2419 3304 2112 
Q 3559 1806 3559 1356 
Q 3559 666 3084 287 
Q 2609 -91 1734 -91 
Q 1441 -91 1130 -33 
Q 819 25 488 141 
L 488 750 
Q 750 597 1062 519 
Q 1375 441 1716 441 
Q 2309 441 2620 675 
Q 2931 909 2931 1356 
Q 2931 1769 2642 2001 
Q 2353 2234 1838 2234 
L 1294 2234 
L 1294 2753 
L 1863 2753 
Q 2328 2753 2575 2939 
Q 2822 3125 2822 3475 
Q 2822 3834 2567 4026 
Q 2313 4219 1838 4219 
Q 1578 4219 1281 4162 
Q 984 4106 628 3988 
L 628 4550 
Q 988 4650 1302 4700 
Q 1616 4750 1894 4750 
Q 2613 4750 3031 4423 
Q 3450 4097 3450 3541 
Q 3450 3153 3228 2886 
Q 3006 2619 2597 2516 
z
" transform="scale(0.015625)"/>
        <path id="DejaVuSans-35" d="M 691 4666 
L 3169 4666 
L 3169 4134 
L 1269 4134 
L 1269 2991 
Q 1406 3038 1543 3061 
Q 1681 3084 1819 3084 
Q 2600 3084 3056 2656 
Q 3513 2228 3513 1497 
Q 3513 744 3044 326 
Q 2575 -91 1722 -91 
Q 1428 -91 1123 -41 
Q 819 9 494 109 
L 494 744 
Q 775 591 1075 516 
Q 1375 441 1709 441 
Q 2250 441 2565 725 
Q 2881 1009 2881 1497 
Q 2881 1984 2565 2268 
Q 2250 2553 1709 2553 
Q 1456 2553 1204 2497 
Q 953 2441 691 2322 
L 691 4666 
z
" transform="scale(0.015625)"/>
        <path id="DejaVuSans-30" d="M 2034 4250 
Q 1547 4250 1301 3770 
Q 1056 3291 1056 2328 
Q 1056 1369 1301 889 
Q 1547 409 2034 409 
Q 2525 409 2770 889 
Q 3016 1369 3016 2328 
Q 3016 3291 2770 3770 
Q 2525 4250 2034 4250 
z
M 2034 4750 
Q 2819 4750 3233 4129 
Q 3647 3509 3647 2328 
Q 3647 1150 3233 529 
Q 2819 -91 2034 -91 
Q 1250 -91 836 529 
Q 422 1150 422 2328 
Q 422 3509 836 4129 
Q 1250 4750 2034 4750 
z
" transform="scale(0.015625)"/>
       </defs>
       <use xlink:href="#DejaVuSans-33"/>
       <use xlink:href="#DejaVuSans-35" x="63.623047"/>
       <use xlink:href="#DejaVuSans-30" x="127.246094"/>
      </g>
     </g>
    </g>
    <g id="xtick_2">
     <g id="line2d_2">
      <g>
       <use xlink:href="#m8663c84d41" x="273.518228" y="320.4" style="stroke: #000000; stroke-width: 0.8"/>
      </g>
     </g>
     <g id="text_2">
      <!-- 400 -->
      <g transform="translate(263.974478 334.998438) scale(0.1 -0.1)">
       <defs>
        <path id="DejaVuSans-34" d="M 2419 4116 
L 825 1625 
L 2419 1625 
L 2419 4116 
z
M 2253 4666 
L 3047 4666 
L 3047 1625 
L 3713 1625 
L 3713 1100 
L 3047 1100 
L 3047 0 
L 2419 0 
L 2419 1100 
L 313 1100 
L 313 1709 
L 2253 4666 
z
" transform="scale(0.015625)"/>
       </defs>
       <use xlink:href="#DejaVuSans-34"/>
       <use xlink:href="#DejaVuSans-30" x="63.623047"/>
       <use xlink:href="#DejaVuSans-30" x="127.246094"/>
      </g>
     </g>
    </g>
    <g id="xtick_3">
     <g id="line2d_3">
      <g>
       <use xlink:href="#m8663c84d41" x="323.392977" y="320.4" style="stroke: #000000; stroke-width: 0.8"/>
      </g>
     </g>
     <g id="text_3">
      <!-- 450 -->
      <g transform="translate(313.849227 334.998438) scale(0.1 -0.1)">
       <use xlink:href="#DejaVuSans-34"/>
       <use xlink:href="#DejaVuSans-35" x="63.623047"/>
       <use xlink:href="#DejaVuSans-30" x="127.246094"/>
      </g>
     </g>
    </g>
    <g id="xtick_4">
     <g id="line2d_4">
      <g>
       <use xlink:href="#m8663c84d41" x="373.267726" y="320.4" style="stroke: #000000; stroke-width: 0.8"/>
      </g>
     </g>
     <g id="text_4">
      <!-- 500 -->
      <g transform="translate(363.723976 334.998438) scale(0.1 -0.1)">
       <use xlink:href="#DejaVuSans-35"/>
       <use xlink:href="#DejaVuSans-30" x="63.623047"/>
       <use xlink:href="#DejaVuSans-30" x="127.246094"/>
      </g>
     </g>
    </g>
    <g id="xtick_5">
     <g id="line2d_5">
      <g>
       <use xlink:href="#m8663c84d41" x="423.142475" y="320.4" style="stroke: #000000; stroke-width: 0.8"/>
      </g>
     </g>
     <g id="text_5">
      <!-- 550 -->
      <g transform="translate(413.598725 334.998438) scale(0.1 -0.1)">
       <use xlink:href="#DejaVuSans-35"/>
       <use xlink:href="#DejaVuSans-35" x="63.623047"/>
       <use xlink:href="#DejaVuSans-30" x="127.246094"/>
      </g>
     </g>
    </g>
    <g id="xtick_6">
     <g id="line2d_6">
      <g>
       <use xlink:href="#m8663c84d41" x="473.017223" y="320.4" style="stroke: #000000; stroke-width: 0.8"/>
      </g>
     </g>
     <g id="text_6">
      <!-- 600 -->
      <g transform="translate(463.473473 334.998438) scale(0.1 -0.1)">
       <defs>
        <path id="DejaVuSans-36" d="M 2113 2584 
Q 1688 2584 1439 2293 
Q 1191 2003 1191 1497 
Q 1191 994 1439 701 
Q 1688 409 2113 409 
Q 2538 409 2786 701 
Q 3034 994 3034 1497 
Q 3034 2003 2786 2293 
Q 2538 2584 2113 2584 
z
M 3366 4563 
L 3366 3988 
Q 3128 4100 2886 4159 
Q 2644 4219 2406 4219 
Q 1781 4219 1451 3797 
Q 1122 3375 1075 2522 
Q 1259 2794 1537 2939 
Q 1816 3084 2150 3084 
Q 2853 3084 3261 2657 
Q 3669 2231 3669 1497 
Q 3669 778 3244 343 
Q 2819 -91 2113 -91 
Q 1303 -91 875 529 
Q 447 1150 447 2328 
Q 447 3434 972 4092 
Q 1497 4750 2381 4750 
Q 2619 4750 2861 4703 
Q 3103 4656 3366 4563 
z
" transform="scale(0.015625)"/>
       </defs>
       <use xlink:href="#DejaVuSans-36"/>
       <use xlink:href="#DejaVuSans-30" x="63.623047"/>
       <use xlink:href="#DejaVuSans-30" x="127.246094"/>
      </g>
     </g>
    </g>
   </g>
   <g id="matplotlib.axis_2">
    <g id="ytick_1">
     <g id="line2d_7">
      <defs>
       <path id="mc8a08a3df6" d="M 0 0 
L -3.5 0 
" style="stroke: #000000; stroke-width: 0.8"/>
      </defs>
      <g>
       <use xlink:href="#mc8a08a3df6" x="216.925164" y="302.909902" style="stroke: #000000; stroke-width: 0.8"/>
      </g>
     </g>
     <g id="text_7">
      <!-- 400 -->
      <g transform="translate(190.837664 306.709121) scale(0.1 -0.1)">
       <use xlink:href="#DejaVuSans-34"/>
       <use xlink:href="#DejaVuSans-30" x="63.623047"/>
       <use xlink:href="#DejaVuSans-30" x="127.246094"/>
      </g>
     </g>
    </g>
    <g id="ytick_2">
     <g id="line2d_8">
      <g>
       <use xlink:href="#mc8a08a3df6" x="216.925164" y="253.035154" style="stroke: #000000; stroke-width: 0.8"/>
      </g>
     </g>
     <g id="text_8">
      <!-- 450 -->
      <g transform="translate(190.837664 256.834372) scale(0.1 -0.1)">
       <use xlink:href="#DejaVuSans-34"/>
       <use xlink:href="#DejaVuSans-35" x="63.623047"/>
       <use xlink:href="#DejaVuSans-30" x="127.246094"/>
      </g>
     </g>
    </g>
    <g id="ytick_3">
     <g id="line2d_9">
      <g>
       <use xlink:href="#mc8a08a3df6" x="216.925164" y="203.160405" style="stroke: #000000; stroke-width: 0.8"/>
      </g>
     </g>
     <g id="text_9">
      <!-- 500 -->
      <g transform="translate(190.837664 206.959624) scale(0.1 -0.1)">
       <use xlink:href="#DejaVuSans-35"/>
       <use xlink:href="#DejaVuSans-30" x="63.623047"/>
       <use xlink:href="#DejaVuSans-30" x="127.246094"/>
      </g>
     </g>
    </g>
    <g id="ytick_4">
     <g id="line2d_10">
      <g>
       <use xlink:href="#mc8a08a3df6" x="216.925164" y="153.285656" style="stroke: #000000; stroke-width: 0.8"/>
      </g>
     </g>
     <g id="text_10">
      <!-- 550 -->
      <g transform="translate(190.837664 157.084875) scale(0.1 -0.1)">
       <use xlink:href="#DejaVuSans-35"/>
       <use xlink:href="#DejaVuSans-35" x="63.623047"/>
       <use xlink:href="#DejaVuSans-30" x="127.246094"/>
      </g>
     </g>
    </g>
    <g id="ytick_5">
     <g id="line2d_11">
      <g>
       <use xlink:href="#mc8a08a3df6" x="216.925164" y="103.410907" style="stroke: #000000; stroke-width: 0.8"/>
      </g>
     </g>
     <g id="text_11">
      <!-- 600 -->
      <g transform="translate(190.837664 107.210126) scale(0.1 -0.1)">
       <use xlink:href="#DejaVuSans-36"/>
       <use xlink:href="#DejaVuSans-30" x="63.623047"/>
       <use xlink:href="#DejaVuSans-30" x="127.246094"/>
      </g>
     </g>
    </g>
    <g id="ytick_6">
     <g id="line2d_12">
      <g>
       <use xlink:href="#mc8a08a3df6" x="216.925164" y="53.536159" style="stroke: #000000; stroke-width: 0.8"/>
      </g>
     </g>
     <g id="text_12">
      <!-- 650 -->
      <g transform="translate(190.837664 57.335377) scale(0.1 -0.1)">
       <use xlink:href="#DejaVuSans-36"/>
       <use xlink:href="#DejaVuSans-35" x="63.623047"/>
       <use xlink:href="#DejaVuSans-30" x="127.246094"/>
      </g>
     </g>
    </g>
   </g>
   <g id="LineCollection_1">
    <path d="M 479.002193 297.922427 
L 477.377076 293.274954 
L 475.735612 288.785387 
L 474.077446 284.446901 
L 472.402136 280.253041 
L 470.70918 276.197687 
L 468.99805 272.275013 
L 467.268216 268.479457 
L 465.51917 264.805691 
L 463.750449 261.248596 
L 461.961648 257.803234 
L 460.152439 254.464828 
L 458.322584 251.228744 
L 456.471942 248.09047 
L 454.600481 245.045608 
L 452.708282 242.089853 
L 450.795542 239.218989 
L 448.862578 236.428878 
L 446.909824 233.715453 
L 444.937834 231.074712 
L 442.947274 228.502716 
L 440.938918 225.995588 
L 438.913644 223.549509 
L 436.872424 221.160721 
L 434.816316 218.825529 
L 432.746455 216.540304 
L 430.66404 214.301486 
L 428.570325 212.105588 
L 426.466604 209.949207 
L 424.354199 207.829022 
L 422.234445 205.741809 
L 420.108678 203.684442 
L 417.978221 201.653905 
L 415.844365 199.6473 
L 413.708358 197.661852 
L 411.57139 195.69492 
L 409.434578 193.744003 
L 407.298949 191.806752 
L 405.16543 189.880973 
L 403.034832 187.964638 
L 400.907838 186.055891 
L 398.784988 184.153053 
L 396.666672 182.25463 
L 394.553114 180.359317 
L 392.444368 178.466002 
L 390.340302 176.573769 
L 388.240599 174.681901 
L 386.144743 172.78988 
L 384.05202 170.897388 
L 381.961512 169.004301 
L 379.872096 167.110693 
L 377.782445 165.216825 
L 375.69103 163.323139 
L 373.596122 161.430253 
L 371.495802 159.538948 
L 369.387965 157.650156 
L 367.270335 155.764947 
L 365.140475 153.88451 
L 362.995805 152.010135 
L 360.833616 150.143194 
L 358.651098 148.285112 
L 356.445358 146.437345 
L 354.213447 144.601348 
L 351.952395 142.778545 
L 349.65924 140.970292 
L 347.331062 139.177838 
L 344.965032 137.402287 
L 342.558443 135.644551 
L 340.108767 133.905301 
L 337.613702 132.184919 
L 335.071225 130.483441 
L 332.479653 128.800496 
L 329.837702 127.135248 
L 327.144561 125.486328 
L 324.399953 123.851761 
L 321.604219 122.228895 
L 318.758392 120.614322 
L 315.864285 119.003793 
L 312.92458 117.392132 
L 309.942919 115.773144 
L 306.924006 114.139521 
L 303.87371 112.482734 
L 300.799174 110.792936 
L 297.708929 109.058843 
L 294.613015 107.267626 
L 291.523106 105.404781 
L 288.45264 103.45401 
L 285.416956 101.397088 
L 282.433436 99.213722 
L 279.521655 96.881414 
L 276.703533 94.375307 
L 274.003498 91.668035 
L 271.44865 88.729565 
L 269.068936 85.527025 
L 266.897328 82.024536 
L 264.970013 78.183035 
L 263.32658 73.960087 
L 262.010224 69.3097 
L 261.067952 64.182119 
L 260.550794 58.523634 
" clip-path="url(#pf5c38d2ee7)" style="fill: none; stroke: #1f77b4; stroke-width: 1.5"/>
    <path d="M 507.249851 288.044855 
L 503.688406 278.101854 
L 500.01727 268.724774 
L 496.228234 259.86479 
L 492.314312 251.48214 
L 488.271338 243.545015 
L 484.099313 236.02819 
L 479.803328 228.911386 
L 475.393952 222.177427 
L 470.886984 215.810358 
L 466.302593 209.793742 
L 461.663961 204.109353 
L 456.995667 198.736403 
L 452.322012 193.651331 
L 445.553118 186.707885 
L 440.754657 182.02249 
L 433.974318 175.643962 
L 423.021386 165.692812 
L 380.232221 127.357437 
L 372.994936 121.304304 
L 365.586471 115.466308 
L 359.882462 111.244244 
L 354.256972 107.315296 
L 348.436342 103.484875 
L 342.456668 99.775708 
L 336.370959 96.201218 
L 327.204013 91.093949 
L 312.524789 83.058351 
L 307.274195 79.958307 
L 302.651893 76.927769 
L 298.831422 74.007325 
L 297.259084 72.609072 
L 295.914665 71.26105 
L 294.784033 69.960648 
L 293.838914 68.688739 
L 293.040372 67.400806 
L 292.347676 66.020132 
L 291.73151 64.43684 
L 291.187556 62.515171 
L 290.745137 60.107653 
L 290.351438 55.8 
L 290.351438 55.8 
" clip-path="url(#pf5c38d2ee7)" style="fill: none; stroke: #8c564b; stroke-width: 1.5"/>
    <path d="M 450.754536 307.8 
L 449.199215 303.35213 
L 447.705106 299.265594 
L 446.204673 295.339804 
L 444.698109 291.568374 
L 443.185483 287.944988 
L 441.666745 284.463362 
L 440.141723 281.117199 
L 438.610127 277.900173 
L 437.071539 274.805901 
L 435.525412 271.827946 
L 433.971061 268.959812 
L 432.407664 266.194958 
L 430.834262 263.526819 
L 429.249758 260.948835 
L 427.652935 258.45448 
L 426.042468 256.037304 
L 424.416949 253.69097 
L 422.774912 251.409297 
L 421.11487 249.186293 
L 419.43535 247.016191 
L 417.734933 244.893478 
L 416.012295 242.812916 
L 414.266245 240.769559 
L 412.49576 238.758759 
L 410.70002 236.776176 
L 408.878428 234.81777 
L 407.030636 232.879798 
L 405.156558 230.958808 
L 403.256373 229.051625 
L 401.33053 227.155345 
L 399.379741 225.267325 
L 397.40497 223.385174 
L 395.40742 221.506747 
L 393.388513 219.630144 
L 391.349867 217.75371 
L 389.293271 215.876032 
L 387.220661 213.995946 
L 385.134087 212.112541 
L 383.035686 210.225165 
L 380.92765 208.333431 
L 378.812195 206.437221 
L 376.694904 204.539716 
L 374.574596 202.638352 
L 372.452297 200.732876 
L 370.329966 198.824231 
L 368.209445 196.913624 
L 366.092426 195.002516 
L 363.980426 193.092606 
L 361.874765 191.185808 
L 359.776542 189.284221 
L 357.691801 187.394802 
L 355.617115 185.516263 
L 353.552617 183.650855 
L 351.498283 181.80096 
L 349.453775 179.968916 
L 347.418429 178.156959 
L 345.391242 176.367171 
L 343.370858 174.601419 
L 341.355548 172.8613 
L 339.343197 171.148089 
L 337.331279 169.462689 
L 335.316837 167.805584 
L 333.296461 166.176808 
L 331.266268 164.575913 
L 329.221888 163.001953 
L 327.158451 161.453479 
L 325.070593 159.928538 
L 322.952466 158.424686 
L 320.797776 156.938997 
L 318.599827 155.468084 
L 316.351592 154.0081 
L 314.0458 152.554736 
L 311.675039 151.103198 
L 309.231865 149.648152 
L 306.708926 148.183639 
L 304.099084 146.702951 
L 301.395525 145.198459 
L 298.591877 143.66139 
L 295.682308 142.081546 
L 292.68223 140.458115 
L 292.641034 140.435781 
L 289.590738 138.778994 
L 289.460201 138.707672 
L 286.385665 137.017873 
L 286.154942 136.889737 
L 283.064697 135.155645 
L 282.722722 134.960777 
L 279.626808 133.16956 
L 279.162568 132.89535 
L 276.072659 131.032505 
L 275.47571 130.663001 
L 272.405244 128.71223 
L 271.666598 128.227492 
L 268.630914 126.17057 
L 267.744439 125.546182 
L 264.760919 123.362816 
L 263.725429 122.569815 
L 260.813648 120.237507 
L 259.635747 119.24315 
L 256.817626 116.737043 
L 255.515173 115.507036 
L 252.815138 112.799765 
L 251.420736 111.302583 
L 248.865888 108.364112 
L 247.429119 106.577779 
L 245.049405 103.375239 
L 243.635935 101.295953 
L 241.464328 97.793464 
L 240.150038 95.44389 
L 238.222722 91.602388 
L 237.082537 89.035928 
L 235.439104 84.812981 
L 234.533047 82.11049 
L 233.216691 77.460102 
L 232.578205 74.718289 
L 231.635933 69.590709 
L 231.267307 66.905753 
L 230.750149 61.247267 
" clip-path="url(#pf5c38d2ee7)" style="fill: none; stroke: #17becf; stroke-width: 1.5"/>
   </g>
   <g id="patch_3">
    <path d="M 216.925164 320.4 
L 216.925164 43.2 
" style="fill: none; stroke: #000000; stroke-width: 0.8; stroke-linejoin: miter; stroke-linecap: square"/>
   </g>
   <g id="patch_4">
    <path d="M 521.074836 320.4 
L 521.074836 43.2 
" style="fill: none; stroke: #000000; stroke-width: 0.8; stroke-linejoin: miter; stroke-linecap: square"/>
   </g>
   <g id="patch_5">
    <path d="M 216.925164 320.4 
L 521.074836 320.4 
" style="fill: none; stroke: #000000; stroke-width: 0.8; stroke-linejoin: miter; stroke-linecap: square"/>
   </g>
   <g id="patch_6">
    <path d="M 216.925164 43.2 
L 521.074836 43.2 
" style="fill: none; stroke: #000000; stroke-width: 0.8; stroke-linejoin: miter; stroke-linecap: square"/>
   </g>
  </g>
 </g>
 <defs>
  <clipPath id="pf5c38d2ee7">
   <rect x="216.925164" y="43.2" width="304.149672" height="277.2"/>
  </clipPath>
 </defs>
</svg>
