<?xml version="1.0" encoding="utf-8" standalone="no"?>
<!DOCTYPE svg PUBLIC "-//W3C//DTD SVG 1.1//EN"
  "http://www.w3.org/Graphics/SVG/1.1/DTD/svg11.dtd">
<svg xmlns:xlink="http://www.w3.org/1999/xlink" width="720pt" height="360pt" viewBox="0 0 720 360" xmlns="http://www.w3.org/2000/svg" version="1.1">
 <metadata>
  <rdf:RDF xmlns:dc="http://purl.org/dc/elements/1.1/" xmlns:cc="http://creativecommons.org/ns#" xmlns:rdf="http://www.w3.org/1999/02/22-rdf-syntax-ns#">
   <cc:Work>
    <dc:type rdf:resource="http://purl.org/dc/dcmitype/StillImage"/>
    <dc:date>2024-01-17T12:56:51.047259</dc:date>
    <dc:format>image/svg+xml</dc:format>
    <dc:creator>
     <cc:Agent>
      <dc:title>Matplotlib v3.7.3, https://matplotlib.org/</dc:title>
     </cc:Agent>
    </dc:creator>
   </cc:Work>
  </rdf:RDF>
 </metadata>
 <defs>
  <style type="text/css">*{stroke-linejoin: round; stroke-linecap: butt}</style>
 </defs>
 <g id="figure_1">
  <g id="patch_1">
   <path d="M 0 360 
L 720 360 
L 720 0 
L 0 0 
z
" style="fill: #ffffff"/>
  </g>
  <g id="axes_1">
   <g id="patch_2">
    <path d="M 318.818458 320.4 
L 419.181542 320.4 
L 419.181542 43.2 
L 318.818458 43.2 
z
" style="fill: #ffffff"/>
   </g>
   <g id="matplotlib.axis_1">
    <g id="xtick_1">
     <g id="line2d_1">
      <defs>
       <path id="m6c21b032db" d="M 0 0 
L 0 3.5 
" style="stroke: #000000; stroke-width: 0.8"/>
      </defs>
      <g>
       <use xlink:href="#m6c21b032db" x="337.906548" y="320.4" style="stroke: #000000; stroke-width: 0.8"/>
      </g>
     </g>
     <g id="text_1">
      <!-- 600 -->
      <g transform="translate(328.362798 334.998438) scale(0.1 -0.1)">
       <defs>
        <path id="DejaVuSans-36" d="M 2113 2584 
Q 1688 2584 1439 2293 
Q 1191 2003 1191 1497 
Q 1191 994 1439 701 
Q 1688 409 2113 409 
Q 2538 409 2786 701 
Q 3034 994 3034 1497 
Q 3034 2003 2786 2293 
Q 2538 2584 2113 2584 
z
M 3366 4563 
L 3366 3988 
Q 3128 4100 2886 4159 
Q 2644 4219 2406 4219 
Q 1781 4219 1451 3797 
Q 1122 3375 1075 2522 
Q 1259 2794 1537 2939 
Q 1816 3084 2150 3084 
Q 2853 3084 3261 2657 
Q 3669 2231 3669 1497 
Q 3669 778 3244 343 
Q 2819 -91 2113 -91 
Q 1303 -91 875 529 
Q 447 1150 447 2328 
Q 447 3434 972 4092 
Q 1497 4750 2381 4750 
Q 2619 4750 2861 4703 
Q 3103 4656 3366 4563 
z
" transform="scale(0.015625)"/>
        <path id="DejaVuSans-30" d="M 2034 4250 
Q 1547 4250 1301 3770 
Q 1056 3291 1056 2328 
Q 1056 1369 1301 889 
Q 1547 409 2034 409 
Q 2525 409 2770 889 
Q 3016 1369 3016 2328 
Q 3016 3291 2770 3770 
Q 2525 4250 2034 4250 
z
M 2034 4750 
Q 2819 4750 3233 4129 
Q 3647 3509 3647 2328 
Q 3647 1150 3233 529 
Q 2819 -91 2034 -91 
Q 1250 -91 836 529 
Q 422 1150 422 2328 
Q 422 3509 836 4129 
Q 1250 4750 2034 4750 
z
" transform="scale(0.015625)"/>
       </defs>
       <use xlink:href="#DejaVuSans-36"/>
       <use xlink:href="#DejaVuSans-30" x="63.623047"/>
       <use xlink:href="#DejaVuSans-30" x="127.246094"/>
      </g>
     </g>
    </g>
    <g id="xtick_2">
     <g id="line2d_2">
      <g>
       <use xlink:href="#m6c21b032db" x="371.94535" y="320.4" style="stroke: #000000; stroke-width: 0.8"/>
      </g>
     </g>
     <g id="text_2">
      <!-- 650 -->
      <g transform="translate(362.4016 334.998438) scale(0.1 -0.1)">
       <defs>
        <path id="DejaVuSans-35" d="M 691 4666 
L 3169 4666 
L 3169 4134 
L 1269 4134 
L 1269 2991 
Q 1406 3038 1543 3061 
Q 1681 3084 1819 3084 
Q 2600 3084 3056 2656 
Q 3513 2228 3513 1497 
Q 3513 744 3044 326 
Q 2575 -91 1722 -91 
Q 1428 -91 1123 -41 
Q 819 9 494 109 
L 494 744 
Q 775 591 1075 516 
Q 1375 441 1709 441 
Q 2250 441 2565 725 
Q 2881 1009 2881 1497 
Q 2881 1984 2565 2268 
Q 2250 2553 1709 2553 
Q 1456 2553 1204 2497 
Q 953 2441 691 2322 
L 691 4666 
z
" transform="scale(0.015625)"/>
       </defs>
       <use xlink:href="#DejaVuSans-36"/>
       <use xlink:href="#DejaVuSans-35" x="63.623047"/>
       <use xlink:href="#DejaVuSans-30" x="127.246094"/>
      </g>
     </g>
    </g>
    <g id="xtick_3">
     <g id="line2d_3">
      <g>
       <use xlink:href="#m6c21b032db" x="405.984153" y="320.4" style="stroke: #000000; stroke-width: 0.8"/>
      </g>
     </g>
     <g id="text_3">
      <!-- 700 -->
      <g transform="translate(396.440403 334.998438) scale(0.1 -0.1)">
       <defs>
        <path id="DejaVuSans-37" d="M 525 4666 
L 3525 4666 
L 3525 4397 
L 1831 0 
L 1172 0 
L 2766 4134 
L 525 4134 
L 525 4666 
z
" transform="scale(0.015625)"/>
       </defs>
       <use xlink:href="#DejaVuSans-37"/>
       <use xlink:href="#DejaVuSans-30" x="63.623047"/>
       <use xlink:href="#DejaVuSans-30" x="127.246094"/>
      </g>
     </g>
    </g>
   </g>
   <g id="matplotlib.axis_2">
    <g id="ytick_1">
     <g id="line2d_4">
      <defs>
       <path id="maf0d832a7b" d="M 0 0 
L -3.5 0 
" style="stroke: #000000; stroke-width: 0.8"/>
      </defs>
      <g>
       <use xlink:href="#maf0d832a7b" x="318.818458" y="293.48128" style="stroke: #000000; stroke-width: 0.8"/>
      </g>
     </g>
     <g id="text_4">
      <!-- 450 -->
      <g transform="translate(292.730958 297.280499) scale(0.1 -0.1)">
       <defs>
        <path id="DejaVuSans-34" d="M 2419 4116 
L 825 1625 
L 2419 1625 
L 2419 4116 
z
M 2253 4666 
L 3047 4666 
L 3047 1625 
L 3713 1625 
L 3713 1100 
L 3047 1100 
L 3047 0 
L 2419 0 
L 2419 1100 
L 313 1100 
L 313 1709 
L 2253 4666 
z
" transform="scale(0.015625)"/>
       </defs>
       <use xlink:href="#DejaVuSans-34"/>
       <use xlink:href="#DejaVuSans-35" x="63.623047"/>
       <use xlink:href="#DejaVuSans-30" x="127.246094"/>
      </g>
     </g>
    </g>
    <g id="ytick_2">
     <g id="line2d_5">
      <g>
       <use xlink:href="#maf0d832a7b" x="318.818458" y="259.442478" style="stroke: #000000; stroke-width: 0.8"/>
      </g>
     </g>
     <g id="text_5">
      <!-- 500 -->
      <g transform="translate(292.730958 263.241697) scale(0.1 -0.1)">
       <use xlink:href="#DejaVuSans-35"/>
       <use xlink:href="#DejaVuSans-30" x="63.623047"/>
       <use xlink:href="#DejaVuSans-30" x="127.246094"/>
      </g>
     </g>
    </g>
    <g id="ytick_3">
     <g id="line2d_6">
      <g>
       <use xlink:href="#maf0d832a7b" x="318.818458" y="225.403676" style="stroke: #000000; stroke-width: 0.8"/>
      </g>
     </g>
     <g id="text_6">
      <!-- 550 -->
      <g transform="translate(292.730958 229.202895) scale(0.1 -0.1)">
       <use xlink:href="#DejaVuSans-35"/>
       <use xlink:href="#DejaVuSans-35" x="63.623047"/>
       <use xlink:href="#DejaVuSans-30" x="127.246094"/>
      </g>
     </g>
    </g>
    <g id="ytick_4">
     <g id="line2d_7">
      <g>
       <use xlink:href="#maf0d832a7b" x="318.818458" y="191.364874" style="stroke: #000000; stroke-width: 0.8"/>
      </g>
     </g>
     <g id="text_7">
      <!-- 600 -->
      <g transform="translate(292.730958 195.164092) scale(0.1 -0.1)">
       <use xlink:href="#DejaVuSans-36"/>
       <use xlink:href="#DejaVuSans-30" x="63.623047"/>
       <use xlink:href="#DejaVuSans-30" x="127.246094"/>
      </g>
     </g>
    </g>
    <g id="ytick_5">
     <g id="line2d_8">
      <g>
       <use xlink:href="#maf0d832a7b" x="318.818458" y="157.326071" style="stroke: #000000; stroke-width: 0.8"/>
      </g>
     </g>
     <g id="text_8">
      <!-- 650 -->
      <g transform="translate(292.730958 161.12529) scale(0.1 -0.1)">
       <use xlink:href="#DejaVuSans-36"/>
       <use xlink:href="#DejaVuSans-35" x="63.623047"/>
       <use xlink:href="#DejaVuSans-30" x="127.246094"/>
      </g>
     </g>
    </g>
    <g id="ytick_6">
     <g id="line2d_9">
      <g>
       <use xlink:href="#maf0d832a7b" x="318.818458" y="123.287269" style="stroke: #000000; stroke-width: 0.8"/>
      </g>
     </g>
     <g id="text_9">
      <!-- 700 -->
      <g transform="translate(292.730958 127.086488) scale(0.1 -0.1)">
       <use xlink:href="#DejaVuSans-37"/>
       <use xlink:href="#DejaVuSans-30" x="63.623047"/>
       <use xlink:href="#DejaVuSans-30" x="127.246094"/>
      </g>
     </g>
    </g>
    <g id="ytick_7">
     <g id="line2d_10">
      <g>
       <use xlink:href="#maf0d832a7b" x="318.818458" y="89.248467" style="stroke: #000000; stroke-width: 0.8"/>
      </g>
     </g>
     <g id="text_10">
      <!-- 750 -->
      <g transform="translate(292.730958 93.047686) scale(0.1 -0.1)">
       <use xlink:href="#DejaVuSans-37"/>
       <use xlink:href="#DejaVuSans-35" x="63.623047"/>
       <use xlink:href="#DejaVuSans-30" x="127.246094"/>
      </g>
     </g>
    </g>
    <g id="ytick_8">
     <g id="line2d_11">
      <g>
       <use xlink:href="#maf0d832a7b" x="318.818458" y="55.209665" style="stroke: #000000; stroke-width: 0.8"/>
      </g>
     </g>
     <g id="text_11">
      <!-- 800 -->
      <g transform="translate(292.730958 59.008884) scale(0.1 -0.1)">
       <defs>
        <path id="DejaVuSans-38" d="M 2034 2216 
Q 1584 2216 1326 1975 
Q 1069 1734 1069 1313 
Q 1069 891 1326 650 
Q 1584 409 2034 409 
Q 2484 409 2743 651 
Q 3003 894 3003 1313 
Q 3003 1734 2745 1975 
Q 2488 2216 2034 2216 
z
M 1403 2484 
Q 997 2584 770 2862 
Q 544 3141 544 3541 
Q 544 4100 942 4425 
Q 1341 4750 2034 4750 
Q 2731 4750 3128 4425 
Q 3525 4100 3525 3541 
Q 3525 3141 3298 2862 
Q 3072 2584 2669 2484 
Q 3125 2378 3379 2068 
Q 3634 1759 3634 1313 
Q 3634 634 3220 271 
Q 2806 -91 2034 -91 
Q 1263 -91 848 271 
Q 434 634 434 1313 
Q 434 1759 690 2068 
Q 947 2378 1403 2484 
z
M 1172 3481 
Q 1172 3119 1398 2916 
Q 1625 2713 2034 2713 
Q 2441 2713 2670 2916 
Q 2900 3119 2900 3481 
Q 2900 3844 2670 4047 
Q 2441 4250 2034 4250 
Q 1625 4250 1398 4047 
Q 1172 3844 1172 3481 
z
" transform="scale(0.015625)"/>
       </defs>
       <use xlink:href="#DejaVuSans-38"/>
       <use xlink:href="#DejaVuSans-30" x="63.623047"/>
       <use xlink:href="#DejaVuSans-30" x="127.246094"/>
      </g>
     </g>
    </g>
   </g>
   <g id="LineCollection_1">
    <path d="M 344.033533 306.416025 
L 343.801321 302.997161 
L 343.851573 299.703682 
L 344.160379 296.527706 
L 344.70452 293.461627 
L 345.461511 290.498112 
L 346.409631 287.630105 
L 347.527955 284.850825 
L 348.796384 282.153768 
L 350.195659 279.532703 
L 351.707385 276.981675 
L 353.314043 274.494997 
L 354.998998 272.067255 
L 356.746509 269.693295 
L 358.541729 267.368231 
L 360.370706 265.087431 
L 362.22038 262.846518 
L 364.078576 260.641363 
L 365.933994 258.468081 
L 367.776198 256.323024 
L 369.5956 254.202776 
L 371.383446 252.104145 
L 373.131793 250.02416 
L 374.83349 247.960059 
L 376.482155 245.909286 
L 378.072148 243.869481 
L 379.598546 241.838473 
L 381.057111 239.814273 
L 382.444269 237.795065 
L 383.757067 235.779198 
L 384.993153 233.765177 
L 386.150733 231.751657 
L 387.228545 229.737432 
L 388.225821 227.721425 
L 389.142253 225.702686 
L 389.977958 223.680374 
L 390.733442 221.653756 
L 391.409568 219.622197 
L 392.007517 217.585146 
L 392.528754 215.542136 
L 392.974998 213.492769 
L 393.34818 211.436711 
L 393.650418 209.37368 
L 393.88398 207.303446 
L 394.051257 205.225814 
L 394.154727 203.140624 
L 394.196931 201.047736 
L 394.180445 198.947032 
L 394.107855 196.838401 
L 393.981731 194.721739 
L 393.804606 192.596936 
L 393.578958 190.463878 
L 393.307192 188.322435 
L 392.991621 186.17246 
L 392.634458 184.013781 
L 392.237807 181.8462 
L 391.803648 179.669488 
L 391.333842 177.483381 
L 390.830125 175.287578 
L 390.29411 173.081738 
L 389.727296 170.86548 
L 389.131072 168.63838 
L 388.506735 166.39997 
L 387.855504 164.149742 
L 387.17854 161.887143 
L 386.476975 159.611581 
L 385.751937 157.322426 
L 385.004583 155.01901 
L 384.236144 152.700633 
L 383.447959 150.366568 
L 382.641532 148.016064 
L 381.818576 145.648353 
L 380.98108 143.262656 
L 380.131365 140.85819 
L 379.272159 138.434178 
L 378.406669 135.989857 
L 377.53866 133.524487 
L 376.672546 131.037365 
L 375.813478 128.527835 
L 374.967447 125.9953 
L 374.141385 123.439238 
L 373.343281 120.859217 
L 372.582296 118.254909 
L 371.868891 115.626109 
L 371.214959 112.972752 
L 370.633963 110.294933 
L 370.141083 107.592927 
L 369.753374 104.867212 
L 369.489922 102.118489 
L 369.372017 99.347708 
L 369.423333 96.556091 
L 369.670107 93.745164 
L 370.14134 90.916777 
L 370.868991 88.073137 
L 371.888197 85.216841 
L 373.237486 82.350901 
L 374.959004 79.478783 
L 377.098758 76.604437 
L 379.706856 73.732337 
L 382.837767 70.867514 
" clip-path="url(#p70dc9c65ac)" style="fill: none; stroke: #1f77b4; stroke-width: 1.5"/>
    <path d="M 364.409868 305.03205 
L 364.235175 302.460039 
L 364.259747 300.849618 
L 364.409968 299.304632 
L 364.680675 297.77928 
L 365.07451 296.23747 
L 365.597889 294.654278 
L 367.057159 291.314734 
L 369.075973 287.733354 
L 371.615124 283.945622 
L 374.592349 279.998483 
L 379.6539 273.852117 
L 390.750883 260.756427 
L 394.398645 256.139604 
L 397.89083 251.378715 
L 401.163488 246.462218 
L 404.158048 241.387373 
L 406.531755 236.776987 
L 408.01738 233.502686 
L 409.870281 228.787607 
L 411.00604 225.374477 
L 412.31812 220.59104 
L 413.069961 217.140077 
L 413.857994 212.334131 
L 414.241386 208.942484 
L 414.573857 203.552386 
L 414.591636 198.244372 
L 414.334419 193.025126 
L 413.839735 187.892619 
L 413.140969 182.838668 
L 412.266573 177.851339 
L 410.736346 170.721092 
L 409.455835 165.583892 
L 407.421777 158.295566 
L 405.178287 151.019463 
L 401.932762 141.310927 
L 393.614508 117.280957 
L 392.24107 112.715792 
L 391.11327 108.363056 
L 390.304555 104.32114 
L 389.871711 100.709086 
L 389.830175 97.638121 
L 390.143491 95.13414 
L 390.789487 93.016835 
L 391.280205 91.974531 
L 391.951333 90.854845 
L 392.887079 89.597852 
L 394.191094 88.161839 
L 396.624734 85.935028 
L 396.624734 85.935028 
" clip-path="url(#p70dc9c65ac)" style="fill: none; stroke: #8c564b; stroke-width: 1.5"/>
    <path d="M 323.657198 307.8 
L 323.380417 302.685579 
L 323.524153 297.727212 
L 324.051321 292.958923 
L 324.916599 288.407064 
L 326.070355 284.08769 
L 327.462675 280.006241 
L 329.046543 276.159 
L 330.779765 272.53546 
L 332.6257 269.120837 
L 334.553158 265.898223 
L 338.220764 260.422458 
L 340.581095 257.211717 
L 344.61991 252.086552 
L 350.440279 245.161872 
L 358.994984 235.065565 
L 363.148756 229.732401 
L 365.46776 226.438474 
L 367.433423 223.331951 
L 369.067286 220.389408 
L 370.400809 217.579187 
L 371.46981 214.860034 
L 372.308318 212.182832 
L 372.943597 209.49526 
L 373.393807 206.747925 
L 373.668641 203.899891 
L 373.772034 200.921964 
L 373.705485 197.79728 
L 373.470773 194.519734 
L 372.811883 189.322582 
L 371.804469 183.812695 
L 370.477307 178.023373 
L 368.860964 171.982436 
L 366.983279 165.703572 
L 364.113967 156.94757 
L 359.142514 142.77239 
L 355.533827 132.275811 
L 353.739756 126.587413 
L 352.038966 120.513286 
L 350.675056 114.625342 
L 349.921327 110.469013 
L 349.423259 106.815758 
L 349.085106 102.986769 
L 348.952186 98.972349 
L 349.078304 94.76998 
L 349.524515 90.388746 
L 350.355559 85.853844 
L 351.633613 81.209418 
L 353.410348 76.517445 
L 355.719952 71.851071 
L 358.576696 67.283275 
L 361.979152 62.874618 
L 365.91989 58.664823 
L 369.050801 55.8 
L 369.050801 55.8 
" clip-path="url(#p70dc9c65ac)" style="fill: none; stroke: #17becf; stroke-width: 1.5"/>
   </g>
   <g id="patch_3">
    <path d="M 318.818458 320.4 
L 318.818458 43.2 
" style="fill: none; stroke: #000000; stroke-width: 0.8; stroke-linejoin: miter; stroke-linecap: square"/>
   </g>
   <g id="patch_4">
    <path d="M 419.181542 320.4 
L 419.181542 43.2 
" style="fill: none; stroke: #000000; stroke-width: 0.8; stroke-linejoin: miter; stroke-linecap: square"/>
   </g>
   <g id="patch_5">
    <path d="M 318.818458 320.4 
L 419.181542 320.4 
" style="fill: none; stroke: #000000; stroke-width: 0.8; stroke-linejoin: miter; stroke-linecap: square"/>
   </g>
   <g id="patch_6">
    <path d="M 318.818458 43.2 
L 419.181542 43.2 
" style="fill: none; stroke: #000000; stroke-width: 0.8; stroke-linejoin: miter; stroke-linecap: square"/>
   </g>
  </g>
 </g>
 <defs>
  <clipPath id="p70dc9c65ac">
   <rect x="318.818458" y="43.2" width="100.363083" height="277.2"/>
  </clipPath>
 </defs>
</svg>
