<?xml version="1.0" encoding="utf-8" standalone="no"?>
<!DOCTYPE svg PUBLIC "-//W3C//DTD SVG 1.1//EN"
  "http://www.w3.org/Graphics/SVG/1.1/DTD/svg11.dtd">
<svg xmlns:xlink="http://www.w3.org/1999/xlink" width="720pt" height="360pt" viewBox="0 0 720 360" xmlns="http://www.w3.org/2000/svg" version="1.1">
 <metadata>
  <rdf:RDF xmlns:dc="http://purl.org/dc/elements/1.1/" xmlns:cc="http://creativecommons.org/ns#" xmlns:rdf="http://www.w3.org/1999/02/22-rdf-syntax-ns#">
   <cc:Work>
    <dc:type rdf:resource="http://purl.org/dc/dcmitype/StillImage"/>
    <dc:date>2024-01-11T18:09:15.761115</dc:date>
    <dc:format>image/svg+xml</dc:format>
    <dc:creator>
     <cc:Agent>
      <dc:title>Matplotlib v3.7.1, https://matplotlib.org/</dc:title>
     </cc:Agent>
    </dc:creator>
   </cc:Work>
  </rdf:RDF>
 </metadata>
 <defs>
  <style type="text/css">*{stroke-linejoin: round; stroke-linecap: butt}</style>
 </defs>
 <g id="figure_1">
  <g id="patch_1">
   <path d="M 0 360 
L 720 360 
L 720 0 
L 0 0 
z
" style="fill: #ffffff"/>
  </g>
  <g id="axes_1">
   <g id="patch_2">
    <path d="M 311.391183 320.4 
L 426.608817 320.4 
L 426.608817 43.2 
L 311.391183 43.2 
z
" style="fill: #ffffff"/>
   </g>
   <g id="matplotlib.axis_1">
    <g id="xtick_1">
     <g id="line2d_1">
      <defs>
       <path id="macdfb2c68a" d="M 0 0 
L 0 3.5 
" style="stroke: #000000; stroke-width: 0.8"/>
      </defs>
      <g>
       <use xlink:href="#macdfb2c68a" x="343.660502" y="320.4" style="stroke: #000000; stroke-width: 0.8"/>
      </g>
     </g>
     <g id="text_1">
      <!-- 1400 -->
      <g transform="translate(330.935502 334.998438) scale(0.1 -0.1)">
       <defs>
        <path id="DejaVuSans-31" d="M 794 531 
L 1825 531 
L 1825 4091 
L 703 3866 
L 703 4441 
L 1819 4666 
L 2450 4666 
L 2450 531 
L 3481 531 
L 3481 0 
L 794 0 
L 794 531 
z
" transform="scale(0.015625)"/>
        <path id="DejaVuSans-34" d="M 2419 4116 
L 825 1625 
L 2419 1625 
L 2419 4116 
z
M 2253 4666 
L 3047 4666 
L 3047 1625 
L 3713 1625 
L 3713 1100 
L 3047 1100 
L 3047 0 
L 2419 0 
L 2419 1100 
L 313 1100 
L 313 1709 
L 2253 4666 
z
" transform="scale(0.015625)"/>
        <path id="DejaVuSans-30" d="M 2034 4250 
Q 1547 4250 1301 3770 
Q 1056 3291 1056 2328 
Q 1056 1369 1301 889 
Q 1547 409 2034 409 
Q 2525 409 2770 889 
Q 3016 1369 3016 2328 
Q 3016 3291 2770 3770 
Q 2525 4250 2034 4250 
z
M 2034 4750 
Q 2819 4750 3233 4129 
Q 3647 3509 3647 2328 
Q 3647 1150 3233 529 
Q 2819 -91 2034 -91 
Q 1250 -91 836 529 
Q 422 1150 422 2328 
Q 422 3509 836 4129 
Q 1250 4750 2034 4750 
z
" transform="scale(0.015625)"/>
       </defs>
       <use xlink:href="#DejaVuSans-31"/>
       <use xlink:href="#DejaVuSans-34" x="63.623047"/>
       <use xlink:href="#DejaVuSans-30" x="127.246094"/>
       <use xlink:href="#DejaVuSans-30" x="190.869141"/>
      </g>
     </g>
    </g>
    <g id="xtick_2">
     <g id="line2d_2">
      <g>
       <use xlink:href="#macdfb2c68a" x="416.968733" y="320.4" style="stroke: #000000; stroke-width: 0.8"/>
      </g>
     </g>
     <g id="text_2">
      <!-- 1600 -->
      <g transform="translate(404.243733 334.998438) scale(0.1 -0.1)">
       <defs>
        <path id="DejaVuSans-36" d="M 2113 2584 
Q 1688 2584 1439 2293 
Q 1191 2003 1191 1497 
Q 1191 994 1439 701 
Q 1688 409 2113 409 
Q 2538 409 2786 701 
Q 3034 994 3034 1497 
Q 3034 2003 2786 2293 
Q 2538 2584 2113 2584 
z
M 3366 4563 
L 3366 3988 
Q 3128 4100 2886 4159 
Q 2644 4219 2406 4219 
Q 1781 4219 1451 3797 
Q 1122 3375 1075 2522 
Q 1259 2794 1537 2939 
Q 1816 3084 2150 3084 
Q 2853 3084 3261 2657 
Q 3669 2231 3669 1497 
Q 3669 778 3244 343 
Q 2819 -91 2113 -91 
Q 1303 -91 875 529 
Q 447 1150 447 2328 
Q 447 3434 972 4092 
Q 1497 4750 2381 4750 
Q 2619 4750 2861 4703 
Q 3103 4656 3366 4563 
z
" transform="scale(0.015625)"/>
       </defs>
       <use xlink:href="#DejaVuSans-31"/>
       <use xlink:href="#DejaVuSans-36" x="63.623047"/>
       <use xlink:href="#DejaVuSans-30" x="127.246094"/>
       <use xlink:href="#DejaVuSans-30" x="190.869141"/>
      </g>
     </g>
    </g>
   </g>
   <g id="matplotlib.axis_2">
    <g id="ytick_1">
     <g id="line2d_3">
      <defs>
       <path id="m5c38e1c122" d="M 0 0 
L -3.5 0 
" style="stroke: #000000; stroke-width: 0.8"/>
      </defs>
      <g>
       <use xlink:href="#m5c38e1c122" x="311.391183" y="294.370738" style="stroke: #000000; stroke-width: 0.8"/>
      </g>
     </g>
     <g id="text_3">
      <!-- 500 -->
      <g transform="translate(285.303683 298.169957) scale(0.1 -0.1)">
       <defs>
        <path id="DejaVuSans-35" d="M 691 4666 
L 3169 4666 
L 3169 4134 
L 1269 4134 
L 1269 2991 
Q 1406 3038 1543 3061 
Q 1681 3084 1819 3084 
Q 2600 3084 3056 2656 
Q 3513 2228 3513 1497 
Q 3513 744 3044 326 
Q 2575 -91 1722 -91 
Q 1428 -91 1123 -41 
Q 819 9 494 109 
L 494 744 
Q 775 591 1075 516 
Q 1375 441 1709 441 
Q 2250 441 2565 725 
Q 2881 1009 2881 1497 
Q 2881 1984 2565 2268 
Q 2250 2553 1709 2553 
Q 1456 2553 1204 2497 
Q 953 2441 691 2322 
L 691 4666 
z
" transform="scale(0.015625)"/>
       </defs>
       <use xlink:href="#DejaVuSans-35"/>
       <use xlink:href="#DejaVuSans-30" x="63.623047"/>
       <use xlink:href="#DejaVuSans-30" x="127.246094"/>
      </g>
     </g>
    </g>
    <g id="ytick_2">
     <g id="line2d_4">
      <g>
       <use xlink:href="#m5c38e1c122" x="311.391183" y="257.716623" style="stroke: #000000; stroke-width: 0.8"/>
      </g>
     </g>
     <g id="text_4">
      <!-- 600 -->
      <g transform="translate(285.303683 261.515842) scale(0.1 -0.1)">
       <use xlink:href="#DejaVuSans-36"/>
       <use xlink:href="#DejaVuSans-30" x="63.623047"/>
       <use xlink:href="#DejaVuSans-30" x="127.246094"/>
      </g>
     </g>
    </g>
    <g id="ytick_3">
     <g id="line2d_5">
      <g>
       <use xlink:href="#m5c38e1c122" x="311.391183" y="221.062508" style="stroke: #000000; stroke-width: 0.8"/>
      </g>
     </g>
     <g id="text_5">
      <!-- 700 -->
      <g transform="translate(285.303683 224.861727) scale(0.1 -0.1)">
       <defs>
        <path id="DejaVuSans-37" d="M 525 4666 
L 3525 4666 
L 3525 4397 
L 1831 0 
L 1172 0 
L 2766 4134 
L 525 4134 
L 525 4666 
z
" transform="scale(0.015625)"/>
       </defs>
       <use xlink:href="#DejaVuSans-37"/>
       <use xlink:href="#DejaVuSans-30" x="63.623047"/>
       <use xlink:href="#DejaVuSans-30" x="127.246094"/>
      </g>
     </g>
    </g>
    <g id="ytick_4">
     <g id="line2d_6">
      <g>
       <use xlink:href="#m5c38e1c122" x="311.391183" y="184.408393" style="stroke: #000000; stroke-width: 0.8"/>
      </g>
     </g>
     <g id="text_6">
      <!-- 800 -->
      <g transform="translate(285.303683 188.207611) scale(0.1 -0.1)">
       <defs>
        <path id="DejaVuSans-38" d="M 2034 2216 
Q 1584 2216 1326 1975 
Q 1069 1734 1069 1313 
Q 1069 891 1326 650 
Q 1584 409 2034 409 
Q 2484 409 2743 651 
Q 3003 894 3003 1313 
Q 3003 1734 2745 1975 
Q 2488 2216 2034 2216 
z
M 1403 2484 
Q 997 2584 770 2862 
Q 544 3141 544 3541 
Q 544 4100 942 4425 
Q 1341 4750 2034 4750 
Q 2731 4750 3128 4425 
Q 3525 4100 3525 3541 
Q 3525 3141 3298 2862 
Q 3072 2584 2669 2484 
Q 3125 2378 3379 2068 
Q 3634 1759 3634 1313 
Q 3634 634 3220 271 
Q 2806 -91 2034 -91 
Q 1263 -91 848 271 
Q 434 634 434 1313 
Q 434 1759 690 2068 
Q 947 2378 1403 2484 
z
M 1172 3481 
Q 1172 3119 1398 2916 
Q 1625 2713 2034 2713 
Q 2441 2713 2670 2916 
Q 2900 3119 2900 3481 
Q 2900 3844 2670 4047 
Q 2441 4250 2034 4250 
Q 1625 4250 1398 4047 
Q 1172 3844 1172 3481 
z
" transform="scale(0.015625)"/>
       </defs>
       <use xlink:href="#DejaVuSans-38"/>
       <use xlink:href="#DejaVuSans-30" x="63.623047"/>
       <use xlink:href="#DejaVuSans-30" x="127.246094"/>
      </g>
     </g>
    </g>
    <g id="ytick_5">
     <g id="line2d_7">
      <g>
       <use xlink:href="#m5c38e1c122" x="311.391183" y="147.754277" style="stroke: #000000; stroke-width: 0.8"/>
      </g>
     </g>
     <g id="text_7">
      <!-- 900 -->
      <g transform="translate(285.303683 151.553496) scale(0.1 -0.1)">
       <defs>
        <path id="DejaVuSans-39" d="M 703 97 
L 703 672 
Q 941 559 1184 500 
Q 1428 441 1663 441 
Q 2288 441 2617 861 
Q 2947 1281 2994 2138 
Q 2813 1869 2534 1725 
Q 2256 1581 1919 1581 
Q 1219 1581 811 2004 
Q 403 2428 403 3163 
Q 403 3881 828 4315 
Q 1253 4750 1959 4750 
Q 2769 4750 3195 4129 
Q 3622 3509 3622 2328 
Q 3622 1225 3098 567 
Q 2575 -91 1691 -91 
Q 1453 -91 1209 -44 
Q 966 3 703 97 
z
M 1959 2075 
Q 2384 2075 2632 2365 
Q 2881 2656 2881 3163 
Q 2881 3666 2632 3958 
Q 2384 4250 1959 4250 
Q 1534 4250 1286 3958 
Q 1038 3666 1038 3163 
Q 1038 2656 1286 2365 
Q 1534 2075 1959 2075 
z
" transform="scale(0.015625)"/>
       </defs>
       <use xlink:href="#DejaVuSans-39"/>
       <use xlink:href="#DejaVuSans-30" x="63.623047"/>
       <use xlink:href="#DejaVuSans-30" x="127.246094"/>
      </g>
     </g>
    </g>
    <g id="ytick_6">
     <g id="line2d_8">
      <g>
       <use xlink:href="#m5c38e1c122" x="311.391183" y="111.100162" style="stroke: #000000; stroke-width: 0.8"/>
      </g>
     </g>
     <g id="text_8">
      <!-- 1000 -->
      <g transform="translate(278.941183 114.899381) scale(0.1 -0.1)">
       <use xlink:href="#DejaVuSans-31"/>
       <use xlink:href="#DejaVuSans-30" x="63.623047"/>
       <use xlink:href="#DejaVuSans-30" x="127.246094"/>
       <use xlink:href="#DejaVuSans-30" x="190.869141"/>
      </g>
     </g>
    </g>
    <g id="ytick_7">
     <g id="line2d_9">
      <g>
       <use xlink:href="#m5c38e1c122" x="311.391183" y="74.446047" style="stroke: #000000; stroke-width: 0.8"/>
      </g>
     </g>
     <g id="text_9">
      <!-- 1100 -->
      <g transform="translate(278.941183 78.245266) scale(0.1 -0.1)">
       <use xlink:href="#DejaVuSans-31"/>
       <use xlink:href="#DejaVuSans-31" x="63.623047"/>
       <use xlink:href="#DejaVuSans-30" x="127.246094"/>
       <use xlink:href="#DejaVuSans-30" x="190.869141"/>
      </g>
     </g>
    </g>
   </g>
   <g id="LineCollection_1">
    <path d="M 416.235651 297.303068 
L 410.64163 295.557271 
L 405.862719 293.599247 
L 401.822828 291.452662 
L 398.451137 289.139417 
L 395.681815 286.679742 
L 393.453759 284.09229 
L 391.710332 281.394226 
L 390.39912 278.601315 
L 389.471691 275.728003 
L 388.883366 272.787496 
L 388.592998 269.791842 
L 388.562757 266.751998 
L 388.757932 263.677904 
L 389.146731 260.578552 
L 389.700093 257.462049 
L 390.391512 254.335676 
L 391.196861 251.205954 
L 392.094232 248.078696 
L 393.063775 244.959058 
L 394.087554 241.851598 
L 395.149398 238.760318 
L 396.234773 235.688709 
L 397.330648 232.639803 
L 398.425377 229.616203 
L 399.508583 226.620131 
L 400.571049 223.653459 
L 401.604613 220.717745 
L 402.602079 217.814266 
L 403.557118 214.944044 
L 404.464189 212.107881 
L 405.318458 209.306376 
L 406.115723 206.539956 
L 406.85235 203.808895 
L 407.525205 201.113332 
L 408.131597 198.453295 
L 408.669228 195.828711 
L 409.13614 193.239427 
L 409.530671 190.685216 
L 409.85142 188.165797 
L 410.097205 185.680838 
L 410.267034 183.229969 
L 410.36008 180.812788 
L 410.375652 178.428865 
L 410.313178 176.07775 
L 410.172186 173.758975 
L 409.952291 171.472054 
L 409.653185 169.216487 
L 409.274628 166.991759 
L 408.816443 164.797338 
L 408.278516 162.632676 
L 407.660791 160.4972 
L 406.963277 158.390316 
L 406.186052 156.311397 
L 405.329269 154.259785 
L 404.393161 152.234777 
L 403.378057 150.235626 
L 402.28439 148.26153 
L 401.11271 146.311621 
L 399.8637 144.384964 
L 398.53819 142.480545 
L 397.137172 140.597259 
L 395.66182 138.733906 
L 394.113505 136.889179 
L 392.493813 135.061652 
L 390.804566 133.249775 
L 389.047835 131.451861 
L 387.225963 129.666076 
L 385.341583 127.890433 
L 383.397631 126.122774 
L 381.39737 124.36077 
L 379.344399 122.601905 
L 377.242678 120.843468 
L 375.096532 119.082549 
L 372.910673 117.316021 
L 370.690209 115.540541 
L 368.440656 113.752539 
L 366.167945 111.94821 
L 363.878431 110.123506 
L 361.578901 108.274138 
L 359.276573 106.39556 
L 356.979099 104.482974 
L 354.694567 102.531319 
L 352.431491 100.535275 
L 350.19881 98.489257 
L 348.005879 96.387414 
L 345.862451 94.223633 
L 343.778668 91.991536 
L 341.765039 89.684486 
L 339.832417 87.295587 
L 337.991977 84.817695 
L 336.255181 82.243416 
L 334.63375 79.56512 
L 333.13962 76.77495 
L 331.784907 73.864827 
L 330.581855 70.826469 
L 329.542787 67.6514 
L 328.680048 64.330966 
L 328.005948 60.856356 
L 327.532692 57.218613 
" clip-path="url(#p9d8dc9dc08)" style="fill: none; stroke: #1f77b4; stroke-width: 1.5"/>
    <path d="M 419.51156 286.806135 
L 414.371051 285.201872 
L 410.53865 283.631654 
L 407.531307 282.03371 
L 405.23919 280.461138 
L 403.534286 278.946865 
L 402.279474 277.489646 
L 401.348855 276.049453 
L 400.649449 274.559703 
L 400.130318 272.951358 
L 399.774769 271.174288 
L 399.583944 269.205602 
L 399.562461 267.046076 
L 399.710677 264.711602 
L 400.022588 262.225173 
L 400.486676 259.611455 
L 401.808377 254.093152 
L 403.536934 248.31149 
L 406.592887 239.380256 
L 413.035877 221.286013 
L 414.982286 215.315186 
L 416.732551 209.403546 
L 418.246391 203.557376 
L 419.490926 197.780129 
L 420.438861 192.073944 
L 421.067134 186.440984 
L 421.35608 180.884615 
L 421.289141 175.410361 
L 420.853099 170.026521 
L 420.115046 165.147167 
L 419.488103 162.145387 
L 418.22396 157.441611 
L 417.263227 154.539575 
L 415.47622 150.022267 
L 414.19784 147.256279 
L 411.709882 142.59785 
L 408.889018 138.10318 
L 405.758279 133.771302 
L 402.342865 129.595702 
L 398.669634 125.564863 
L 394.767143 121.663091 
L 390.666174 117.871383 
L 384.298863 112.409761 
L 377.532307 106.932238 
L 366.270317 97.909828 
L 361.903132 94.227024 
L 357.718813 90.465424 
L 353.789259 86.600679 
L 350.184692 82.608549 
L 346.968202 78.461071 
L 345.521936 76.317416 
L 344.190672 74.118422 
L 342.978732 71.855218 
L 341.890068 69.516607 
L 340.928786 67.08885 
L 340.099793 64.555706 
L 339.409453 61.898785 
L 338.866118 59.098196 
L 338.437035 55.8 
L 338.437035 55.8 
" clip-path="url(#p9d8dc9dc08)" style="fill: none; stroke: #8c564b; stroke-width: 1.5"/>
    <path d="M 412.959741 307.8 
L 406.472596 305.732552 
L 400.703042 303.309803 
L 395.6019 300.520033 
L 391.148861 297.360971 
L 387.349168 293.854989 
L 384.217935 290.060266 
L 381.756481 286.067345 
L 379.934498 281.979016 
L 378.689154 277.885331 
L 377.938428 273.84839 
L 377.597307 269.901228 
L 377.588618 266.055246 
L 377.84721 262.309207 
L 378.319842 258.656145 
L 378.963294 255.087532 
L 379.742199 251.595363 
L 381.593438 244.815183 
L 383.687752 238.279302 
L 386.99124 228.8963 
L 392.185106 214.291952 
L 394.775688 206.179982 
L 396.208553 201.045295 
L 397.383423 196.127643 
L 398.289896 191.424127 
L 398.923758 186.930018 
L 399.285432 182.638271 
L 399.378463 178.539027 
L 399.207946 174.619169 
L 398.77891 170.862103 
L 398.094746 167.247933 
L 397.155874 163.754171 
L 395.958943 160.356973 
L 394.496796 157.032709 
L 392.759327 153.759504 
L 390.735086 150.518339 
L 388.413312 147.29344 
L 385.785969 144.071882 
L 382.849479 140.842558 
L 379.60596 137.594787 
L 376.063977 134.31681 
L 370.226901 129.310985 
L 361.600972 122.362761 
L 352.241243 114.846673 
L 347.420834 110.778136 
L 342.589922 106.427896 
L 337.824481 101.727512 
L 333.480567 96.915302 
L 331.00478 93.852263 
L 328.876379 90.967739 
L 326.848459 87.938215 
L 324.939915 84.756145 
L 323.170632 81.415688 
L 321.560961 77.913047 
L 320.131022 74.246594 
L 318.899935 70.416701 
L 317.885092 66.425267 
L 317.101604 62.274968 
L 316.628348 58.637225 
L 316.628348 58.637225 
" clip-path="url(#p9d8dc9dc08)" style="fill: none; stroke: #17becf; stroke-width: 1.5"/>
   </g>
   <g id="patch_3">
    <path d="M 311.391183 320.4 
L 311.391183 43.2 
" style="fill: none; stroke: #000000; stroke-width: 0.8; stroke-linejoin: miter; stroke-linecap: square"/>
   </g>
   <g id="patch_4">
    <path d="M 426.608817 320.4 
L 426.608817 43.2 
" style="fill: none; stroke: #000000; stroke-width: 0.8; stroke-linejoin: miter; stroke-linecap: square"/>
   </g>
   <g id="patch_5">
    <path d="M 311.391183 320.4 
L 426.608817 320.4 
" style="fill: none; stroke: #000000; stroke-width: 0.8; stroke-linejoin: miter; stroke-linecap: square"/>
   </g>
   <g id="patch_6">
    <path d="M 311.391183 43.2 
L 426.608817 43.2 
" style="fill: none; stroke: #000000; stroke-width: 0.8; stroke-linejoin: miter; stroke-linecap: square"/>
   </g>
  </g>
 </g>
 <defs>
  <clipPath id="p9d8dc9dc08">
   <rect x="311.391183" y="43.2" width="115.217635" height="277.2"/>
  </clipPath>
 </defs>
</svg>
