<?xml version="1.0" encoding="utf-8" standalone="no"?>
<!DOCTYPE svg PUBLIC "-//W3C//DTD SVG 1.1//EN"
  "http://www.w3.org/Graphics/SVG/1.1/DTD/svg11.dtd">
<svg xmlns:xlink="http://www.w3.org/1999/xlink" width="720pt" height="360pt" viewBox="0 0 720 360" xmlns="http://www.w3.org/2000/svg" version="1.1">
 <metadata>
  <rdf:RDF xmlns:dc="http://purl.org/dc/elements/1.1/" xmlns:cc="http://creativecommons.org/ns#" xmlns:rdf="http://www.w3.org/1999/02/22-rdf-syntax-ns#">
   <cc:Work>
    <dc:type rdf:resource="http://purl.org/dc/dcmitype/StillImage"/>
    <dc:date>2024-02-29T09:32:41.944206</dc:date>
    <dc:format>image/svg+xml</dc:format>
    <dc:creator>
     <cc:Agent>
      <dc:title>Matplotlib v3.7.1, https://matplotlib.org/</dc:title>
     </cc:Agent>
    </dc:creator>
   </cc:Work>
  </rdf:RDF>
 </metadata>
 <defs>
  <style type="text/css">*{stroke-linejoin: round; stroke-linecap: butt}</style>
 </defs>
 <g id="figure_1">
  <g id="patch_1">
   <path d="M 0 360 
L 720 360 
L 720 0 
L 0 0 
z
" style="fill: #ffffff"/>
  </g>
  <g id="axes_1">
   <g id="LineCollection_1">
    <path d="M 284.359926 306.302059 
L 283.805906 300.554552 
L 283.433923 295.176446 
L 283.226367 290.057014 
L 283.175506 285.185413 
L 283.273875 280.551128 
L 283.514255 276.143903 
L 283.889678 271.953665 
L 284.393428 267.970458 
L 285.019075 264.184388 
L 285.760504 260.585576 
L 286.611967 257.164137 
L 287.568129 253.910178 
L 288.624117 250.81382 
L 289.775559 247.865254 
L 291.018606 245.054807 
L 292.34993 242.373039 
L 293.766691 239.810831 
L 295.266483 237.359486 
L 296.847251 235.010801 
L 298.507197 232.757132 
L 302.058057 228.507187 
L 305.905844 224.560066 
L 310.035481 220.874392 
L 314.428544 217.415086 
L 319.06294 214.151319 
L 323.913422 211.054821 
L 328.952487 208.098744 
L 334.151369 205.257036 
L 342.185657 201.153287 
L 353.189712 195.848784 
L 372.694663 186.5003 
L 380.951464 182.293026 
L 389.061151 177.880841 
L 394.364051 174.801211 
L 399.572104 171.596084 
L 404.677509 168.253977 
L 409.674568 164.764236 
L 414.559529 161.116575 
L 419.330313 157.30047 
L 423.986111 153.30442 
L 428.526809 149.115084 
L 432.9522 144.716314 
L 437.260961 140.088106 
L 441.449369 135.205509 
L 445.509718 130.037525 
L 449.428443 124.54605 
L 453.183947 118.684935 
L 456.744203 112.399238 
L 458.437633 109.077471 
L 460.064247 105.624731 
L 461.616016 102.031497 
L 463.083831 98.287637 
L 464.457459 94.382397 
L 465.725507 90.304375 
L 466.875404 86.041477 
L 467.893383 81.580849 
L 468.764472 76.908782 
L 469.472474 72.010583 
L 469.999934 66.870427 
L 470.328087 61.47117 
L 470.436897 56.117223 
L 470.436897 56.117223 
" clip-path="url(#p832d6b211a)" style="fill: none; stroke: #1f77b4; stroke-width: 1.5"/>
    <path d="M 276.589958 307.051029 
L 276.025812 301.198467 
L 275.638861 295.603953 
L 275.422036 290.255914 
L 275.368659 285.143321 
L 275.472406 280.255656 
L 275.727271 275.582878 
L 276.127533 271.11539 
L 276.667728 266.844009 
L 277.342619 262.75994 
L 278.14717 258.854747 
L 279.076521 255.120332 
L 280.125969 251.548905 
L 281.290945 248.132972 
L 282.566998 244.865307 
L 283.949777 241.738936 
L 285.435018 238.747123 
L 287.018529 235.883348 
L 288.696181 233.141298 
L 290.463896 230.514852 
L 292.317639 227.998068 
L 294.253414 225.585173 
L 296.267254 223.270553 
L 298.355219 221.048745 
L 300.513395 218.914427 
L 302.737885 216.862414 
L 305.024818 214.887651 
L 307.370338 212.985206 
L 309.770615 211.150268 
L 312.221841 209.378143 
L 314.720232 207.664249 
L 317.262036 206.004116 
L 319.843534 204.393383 
L 322.461042 202.827798 
L 325.110922 201.303214 
L 327.789583 199.815592 
L 330.493488 198.360998 
L 333.219163 196.935604 
L 335.963198 195.535692 
L 338.722258 194.157647 
L 341.493089 192.797965 
L 344.272523 191.453248 
L 347.057487 190.12021 
L 349.84501 188.795675 
L 352.632226 187.476574 
L 355.416384 186.159954 
L 358.194852 184.842971 
L 360.965125 183.522892 
L 363.724828 182.197097 
L 366.471719 180.863076 
L 369.203701 179.518428 
L 371.918814 178.160861 
L 374.615248 176.788189 
L 377.291341 175.398329 
L 379.945578 173.989299 
L 382.576597 172.559213 
L 385.183182 171.106277 
L 387.764267 169.628785 
L 390.318929 168.125109 
L 392.846387 166.593695 
L 395.345995 165.033055 
L 397.817237 163.441756 
L 400.259718 161.818413 
L 402.673156 160.161672 
L 405.057367 158.470206 
L 407.41226 156.742694 
L 409.737817 154.977808 
L 412.03408 153.174202 
L 414.301132 151.330487 
L 416.539078 149.445216 
L 418.748025 147.516863 
L 420.928058 145.543802 
L 423.079214 143.524282 
L 425.201455 141.456402 
L 427.294638 139.338084 
L 429.358486 137.167046 
L 431.392548 134.940768 
L 433.396169 132.656466 
L 435.368446 130.311051 
L 437.308188 127.901096 
L 439.213875 125.422798 
L 441.083604 122.871938 
L 442.915047 120.243838 
L 444.705395 117.533315 
L 446.451303 114.734637 
L 448.148831 111.841475 
L 449.793386 108.846844 
L 451.379655 105.743061 
L 452.901538 102.521677 
L 454.352078 99.173427 
L 455.723389 95.688166 
L 457.006576 92.054803 
L 458.191654 88.261237 
L 459.267468 84.294287 
L 460.221602 80.139621 
L 461.04029 75.781679 
L 461.708317 71.203598 
L 462.208928 66.38713 
L 462.523717 61.312558 
L 462.632527 55.958611 
" clip-path="url(#p832d6b211a)" style="fill: none; stroke: #8c564b; stroke-width: 1.5"/>
    <path d="M 268.819991 307.8 
L 268.238435 301.73709 
L 267.839287 295.92017 
L 267.61648 290.337406 
L 267.564435 284.977666 
L 267.678009 279.830531 
L 267.952431 274.886296 
L 268.383238 270.13598 
L 268.966193 265.571333 
L 269.697204 261.184826 
L 270.572229 256.969639 
L 271.58718 252.919622 
L 272.737827 249.02924 
L 274.01972 245.293493 
L 275.428119 241.707814 
L 276.957953 238.26795 
L 278.603806 234.969836 
L 280.35994 231.809463 
L 282.220336 228.782767 
L 284.178775 225.885531 
L 286.228916 223.113315 
L 288.364397 220.461421 
L 290.578917 217.924884 
L 292.86632 215.498489 
L 297.445142 211.1248 
L 300.107548 208.825159 
L 305.197241 204.824321 
L 310.451685 201.128741 
L 315.836651 197.69426 
L 321.321019 194.478993 
L 326.876121 191.443772 
L 335.283479 187.149926 
L 346.505773 181.739978 
L 365.734634 172.525608 
L 373.66229 168.487136 
L 381.343785 164.309634 
L 388.756601 159.944655 
L 393.543556 156.90936 
L 398.205642 153.760242 
L 402.743868 150.486217 
L 407.16028 147.076349 
L 411.457332 143.519514 
L 415.63718 139.804026 
L 419.700911 135.917193 
L 423.647731 131.844773 
L 427.474116 127.570284 
L 431.172947 123.074123 
L 434.732618 118.332441 
L 438.136124 113.315695 
L 441.360075 107.986809 
L 444.373561 102.298824 
L 447.136675 96.192006 
L 448.408913 92.958543 
L 449.598418 89.590441 
L 450.696586 86.075084 
L 451.693682 82.398399 
L 452.578681 78.544773 
L 453.339104 74.496979 
L 453.96084 70.236142 
L 454.427978 65.74171 
L 454.722648 60.991465 
L 454.828157 55.8 
L 454.828157 55.8 
" clip-path="url(#p832d6b211a)" style="fill: none; stroke: #17becf; stroke-width: 1.5"/>
   </g>
  </g>
 </g>
 <defs>
  <clipPath id="p832d6b211a">
   <rect x="257.419413" y="43.2" width="223.161174" height="277.2"/>
  </clipPath>
 </defs>
</svg>
