<?xml version="1.0" encoding="utf-8" standalone="no"?>
<!DOCTYPE svg PUBLIC "-//W3C//DTD SVG 1.1//EN"
  "http://www.w3.org/Graphics/SVG/1.1/DTD/svg11.dtd">
<svg xmlns:xlink="http://www.w3.org/1999/xlink" width="720pt" height="360pt" viewBox="0 0 720 360" xmlns="http://www.w3.org/2000/svg" version="1.1">
 <metadata>
  <rdf:RDF xmlns:dc="http://purl.org/dc/elements/1.1/" xmlns:cc="http://creativecommons.org/ns#" xmlns:rdf="http://www.w3.org/1999/02/22-rdf-syntax-ns#">
   <cc:Work>
    <dc:type rdf:resource="http://purl.org/dc/dcmitype/StillImage"/>
    <dc:date>2024-02-29T09:32:41.987727</dc:date>
    <dc:format>image/svg+xml</dc:format>
    <dc:creator>
     <cc:Agent>
      <dc:title>Matplotlib v3.7.1, https://matplotlib.org/</dc:title>
     </cc:Agent>
    </dc:creator>
   </cc:Work>
  </rdf:RDF>
 </metadata>
 <defs>
  <style type="text/css">*{stroke-linejoin: round; stroke-linecap: butt}</style>
 </defs>
 <g id="figure_1">
  <g id="patch_1">
   <path d="M 0 360 
L 720 360 
L 720 0 
L 0 0 
z
" style="fill: #ffffff"/>
  </g>
  <g id="axes_1">
   <g id="LineCollection_1">
    <path d="M 339.229662 291.457107 
L 330.206584 283.580915 
L 322.553703 276.476035 
L 316.09731 270.027361 
L 310.771354 264.21874 
L 306.510227 259.042678 
L 303.245907 254.502943 
L 300.902009 250.616533 
L 299.382958 247.411775 
L 298.55844 244.915239 
L 298.252168 243.117196 
L 298.261017 241.917955 
L 298.428333 241.099476 
L 298.728834 240.387671 
L 299.264506 239.578052 
L 300.166746 238.600808 
L 301.513464 237.484624 
L 303.315273 236.291153 
L 305.538934 235.075583 
L 308.13189 233.874983 
L 311.036994 232.709646 
L 317.568503 230.509282 
L 324.752148 228.461272 
L 351.283907 221.434739 
L 358.517315 219.149306 
L 365.38653 216.613699 
L 368.663027 215.23361 
L 371.824571 213.770077 
L 374.864665 212.217801 
L 377.777012 210.572774 
L 380.555371 208.832694 
L 383.193568 206.997411 
L 385.685717 205.069329 
L 388.026664 203.053674 
L 390.212585 200.958507 
L 392.241646 198.794449 
L 394.114572 196.574095 
L 395.834996 194.311232 
L 397.40951 192.019979 
L 399.970282 187.752301 
L 401.361167 185.10701 
L 403.484304 180.573893 
L 406.188392 174.039483 
L 409.48022 165.911138 
L 411.17803 162.157467 
L 413.004984 158.602037 
L 415.026939 155.209488 
L 417.309659 151.930084 
L 419.917859 148.708701 
L 422.907349 145.49314 
L 426.313386 142.236417 
L 430.140655 138.891441 
L 443.762562 127.51611 
L 446.213132 125.257164 
L 448.657774 122.828429 
L 451.06369 120.193151 
L 453.387657 117.310619 
L 455.572194 114.139838 
L 457.542641 110.646698 
L 459.208216 106.81432 
L 460.470454 102.652812 
L 461.238912 98.201089 
L 461.446997 93.51508 
L 461.05745 88.646077 
L 460.05383 83.621563 
L 458.424896 78.438211 
L 456.151596 73.066514 
L 453.200987 67.460303 
L 449.525816 61.565371 
L 445.424655 55.8 
L 445.424655 55.8 
" clip-path="url(#p55c1edda1a)" style="fill: none; stroke: #1f77b4; stroke-width: 1.5"/>
    <path d="M 332.096853 299.628554 
L 322.948555 291.643057 
L 315.028703 284.290324 
L 308.263618 277.533326 
L 302.581164 271.3359 
L 297.910845 265.662786 
L 294.183889 260.479655 
L 291.333324 255.753144 
L 289.294054 251.450874 
L 288.002921 247.541482 
L 287.398764 243.994637 
L 287.422476 240.781057 
L 288.017046 237.87253 
L 289.127605 235.241922 
L 290.701454 232.86319 
L 292.688103 230.711392 
L 295.039286 228.762688 
L 297.708986 226.994348 
L 300.653443 225.384753 
L 303.831167 223.913392 
L 307.202937 222.560859 
L 310.731801 221.308852 
L 314.383069 220.140161 
L 318.1243 219.038661 
L 321.925287 217.989301 
L 325.758038 216.978091 
L 329.596746 215.992087 
L 333.417766 215.019374 
L 337.199578 214.049048 
L 340.922749 213.071197 
L 344.569896 212.076877 
L 348.125637 211.058091 
L 351.576544 210.007762 
L 354.911092 208.919709 
L 358.119602 207.788618 
L 361.194185 206.610013 
L 364.128677 205.380226 
L 366.918577 204.096365 
L 369.560978 202.756279 
L 372.054498 201.358528 
L 374.399206 199.902346 
L 376.596546 198.387603 
L 378.649261 196.814768 
L 380.561312 195.184873 
L 382.337796 193.499474 
L 383.98486 191.760605 
L 385.509618 189.970744 
L 386.920061 188.132768 
L 388.224968 186.249912 
L 389.433815 184.325723 
L 390.55668 182.36402 
L 391.604155 180.368847 
L 392.587244 178.34443 
L 393.517274 176.295131 
L 394.405791 174.225401 
L 395.264468 172.139738 
L 396.105004 170.042635 
L 396.939025 167.938539 
L 397.777984 165.831799 
L 398.633065 163.726625 
L 399.515076 161.627035 
L 400.434358 159.536811 
L 401.400677 157.459453 
L 402.42313 155.39813 
L 403.51004 153.355632 
L 404.668865 151.334327 
L 405.90609 149.336111 
L 407.227137 147.362363 
L 408.636264 145.413899 
L 410.136468 143.490926 
L 411.729394 141.592999 
L 413.415238 139.718972 
L 415.192654 137.866957 
L 417.058666 136.034278 
L 419.008573 134.217432 
L 421.035867 132.412041 
L 423.132142 130.612815 
L 425.287011 128.813509 
L 427.488024 127.006882 
L 429.720588 125.18466 
L 431.967887 123.337498 
L 434.21081 121.454937 
L 436.427872 119.525377 
L 438.595151 117.536034 
L 440.686212 115.472908 
L 442.672049 113.320752 
L 444.52102 111.06304 
L 446.198786 108.681935 
L 447.66826 106.158259 
L 448.889551 103.471468 
L 449.819918 100.599626 
L 450.413722 97.519377 
L 450.622385 94.205925 
L 450.394355 90.633009 
L 449.675071 86.772888 
L 448.40693 82.596318 
L 446.529267 78.072537 
L 443.978329 73.169251 
L 440.687264 67.85262 
L 436.586103 62.087249 
" clip-path="url(#p55c1edda1a)" style="fill: none; stroke: #8c564b; stroke-width: 1.5"/>
    <path d="M 324.964045 307.8 
L 315.568713 299.592108 
L 307.363563 291.964638 
L 300.268927 284.863702 
L 294.207118 278.229726 
L 289.104484 271.995044 
L 284.895708 266.081368 
L 281.532003 260.398957 
L 278.99459 254.852422 
L 277.477181 250.160316 
L 277.310297 249.362825 
L 276.587402 244.868678 
L 276.552424 243.914605 
L 276.635024 239.649518 
L 276.795611 238.608679 
L 277.656648 234.661357 
L 278.024394 233.653953 
L 279.567439 230.118181 
L 280.081703 229.256845 
L 282.166134 226.170075 
L 282.731999 225.505387 
L 285.766533 222.360263 
L 289.049556 219.719866 
L 292.506266 217.476933 
L 296.096024 215.542019 
L 299.792986 213.846486 
L 303.576154 212.338534 
L 307.425277 210.97849 
L 315.23779 208.583157 
L 323.059585 206.472481 
L 341.649505 201.630553 
L 348.314766 199.662618 
L 354.37458 197.607952 
L 359.764036 195.448746 
L 364.453933 193.184529 
L 368.456474 190.824867 
L 371.827894 188.376858 
L 374.662252 185.830088 
L 377.073252 183.147701 
L 379.170622 180.272604 
L 381.044939 177.14719 
L 382.768533 173.733318 
L 384.406789 170.021116 
L 391.565996 152.88468 
L 392.84786 150.30267 
L 395.446833 145.624369 
L 398.213199 141.329254 
L 400.084283 138.742083 
L 403.4212 134.619951 
L 405.589518 132.208473 
L 409.664483 128.098564 
L 413.971497 124.181356 
L 420.629499 118.603899 
L 427.163203 113.209323 
L 431.116385 109.677548 
L 434.483316 106.200591 
L 435.88057 104.494454 
L 437.061669 102.818224 
L 438.019951 101.172471 
L 438.760533 99.54322 
L 439.295659 97.891402 
L 439.632066 96.146351 
L 439.753975 94.210509 
L 439.611414 91.976769 
L 439.121927 89.349884 
L 438.18372 86.259938 
L 436.690816 82.663142 
L 434.542726 78.534189 
L 431.647402 73.856868 
L 427.747552 68.374498 
L 427.747552 68.374498 
" clip-path="url(#p55c1edda1a)" style="fill: none; stroke: #17becf; stroke-width: 1.5"/>
   </g>
  </g>
 </g>
 <defs>
  <clipPath id="p55c1edda1a">
   <rect x="267.307667" y="43.2" width="203.384667" height="277.2"/>
  </clipPath>
 </defs>
</svg>
