<?xml version="1.0" encoding="utf-8" standalone="no"?>
<!DOCTYPE svg PUBLIC "-//W3C//DTD SVG 1.1//EN"
  "http://www.w3.org/Graphics/SVG/1.1/DTD/svg11.dtd">
<svg xmlns:xlink="http://www.w3.org/1999/xlink" width="720pt" height="360pt" viewBox="0 0 720 360" xmlns="http://www.w3.org/2000/svg" version="1.1">
 <metadata>
  <rdf:RDF xmlns:dc="http://purl.org/dc/elements/1.1/" xmlns:cc="http://creativecommons.org/ns#" xmlns:rdf="http://www.w3.org/1999/02/22-rdf-syntax-ns#">
   <cc:Work>
    <dc:type rdf:resource="http://purl.org/dc/dcmitype/StillImage"/>
    <dc:date>2024-02-29T09:32:42.074241</dc:date>
    <dc:format>image/svg+xml</dc:format>
    <dc:creator>
     <cc:Agent>
      <dc:title>Matplotlib v3.7.1, https://matplotlib.org/</dc:title>
     </cc:Agent>
    </dc:creator>
   </cc:Work>
  </rdf:RDF>
 </metadata>
 <defs>
  <style type="text/css">*{stroke-linejoin: round; stroke-linecap: butt}</style>
 </defs>
 <g id="figure_1">
  <g id="patch_1">
   <path d="M 0 360 
L 720 360 
L 720 0 
L 0 0 
z
" style="fill: #ffffff"/>
  </g>
  <g id="axes_1">
   <g id="LineCollection_1">
    <path d="M 622.636364 100.263719 
L 613.942263 98.705084 
L 605.593616 97.877588 
L 597.601894 97.673463 
L 589.96842 97.986864 
L 582.684658 98.717962 
L 575.734267 99.775819 
L 569.09581 101.0798 
L 562.745267 102.559788 
L 556.657963 104.15565 
L 545.178083 107.499053 
L 524.310825 113.857698 
L 514.680618 116.511314 
L 505.438369 118.695543 
L 496.466707 120.390687 
L 487.655177 121.610608 
L 478.90499 122.39229 
L 470.134752 122.790632 
L 461.283736 122.877395 
L 452.311308 122.741818 
L 429.120585 122.170015 
L 419.545711 122.202355 
L 410.286415 122.577668 
L 404.930441 122.996579 
L 400.008389 123.534754 
L 395.071974 124.238511 
L 390.129646 125.122991 
L 385.191022 126.201227 
L 380.266587 127.483709 
L 375.367272 128.978052 
L 370.503929 130.688791 
L 365.686778 132.617351 
L 360.924877 134.762175 
L 356.225709 137.118988 
L 351.594895 139.681152 
L 347.036086 142.440036 
L 342.550999 145.385371 
L 338.139579 148.505536 
L 333.800247 151.787753 
L 329.530179 155.218208 
L 325.325601 158.782087 
L 321.182067 162.463563 
L 313.0584 170.110628 
L 305.118612 178.010457 
L 281.951519 201.54076 
L 274.375436 208.639084 
L 270.614331 211.923938 
L 266.873839 214.997684 
L 263.157126 217.836399 
L 259.467727 220.419104 
L 255.808596 222.728806 
L 252.180628 224.753402 
L 248.580636 226.486178 
L 244.998965 227.925497 
L 241.417238 229.073331 
L 237.807012 229.93255 
L 234.130184 230.503396 
L 230.341629 230.780124 
L 226.39371 230.749035 
L 222.241506 230.388746 
L 217.847247 229.672671 
L 213.182859 228.572856 
L 208.230357 227.063989 
L 202.980579 225.126663 
L 197.431066 222.749505 
L 191.583815 219.930251 
L 185.443329 216.676068 
L 179.015152 213.00348 
L 172.304839 208.938137 
L 165.317277 204.514626 
L 150.523876 194.775666 
L 134.726932 184.296741 
L 134.726932 184.296741 
" clip-path="url(#pe60dc1d393)" style="fill: none; stroke: #1f77b4; stroke-width: 1.5"/>
    <path d="M 619.427936 117.541184 
L 612.108786 116.182017 
L 605.057139 115.44224 
L 598.25031 115.234339 
L 591.667038 115.477419 
L 585.287439 116.096982 
L 579.092961 117.024702 
L 573.066334 118.198204 
L 567.191526 119.560835 
L 561.453695 121.061441 
L 555.839143 122.654143 
L 550.335273 124.298107 
L 544.930535 125.957323 
L 539.614389 127.600378 
L 534.377255 129.200233 
L 529.210466 130.733997 
L 524.10623 132.18271 
L 519.057577 133.531114 
L 514.058322 134.767442 
L 509.103018 135.883193 
L 504.186912 136.872919 
L 499.305903 137.734012 
L 494.456503 138.46649 
L 489.635791 139.072789 
L 484.841371 139.557555 
L 480.071339 139.927444 
L 475.324234 140.190916 
L 470.599003 140.358043 
L 465.894965 140.440311 
L 461.211767 140.450435 
L 456.549352 140.402166 
L 451.907922 140.310116 
L 447.287899 140.189578 
L 442.689895 140.056351 
L 438.114675 139.926575 
L 433.563126 139.816565 
L 429.036222 139.742655 
L 424.534999 139.721046 
L 420.060516 139.767655 
L 415.613836 139.897979 
L 411.195991 140.126955 
L 406.807958 140.468835 
L 402.45063 140.93706 
L 398.124797 141.544148 
L 393.831117 142.30158 
L 389.570099 143.219702 
L 385.342075 144.307628 
L 381.147187 145.573154 
L 376.985364 147.022677 
L 372.856308 148.661124 
L 368.759475 150.491888 
L 364.694062 152.516774 
L 360.658995 154.735949 
L 356.652915 157.147905 
L 352.674169 159.749432 
L 348.720802 162.535595 
L 344.790547 165.499723 
L 340.880825 168.63341 
L 336.988733 171.926522 
L 333.111048 175.367213 
L 329.244225 178.941959 
L 325.384393 182.635591 
L 321.527365 186.431347 
L 317.668637 190.310932 
L 313.803394 194.254592 
L 309.926523 198.241188 
L 306.032615 202.248301 
L 302.115983 206.252326 
L 298.170672 210.228597 
L 294.190475 214.151515 
L 290.168949 217.994686 
L 286.099437 221.731076 
L 281.975087 225.333179 
L 277.788875 228.773195 
L 273.533631 232.023223 
L 269.202067 235.055467 
L 264.786805 237.84245 
L 260.280408 240.357255 
L 255.675416 242.573766 
L 250.964381 244.466928 
L 246.139904 246.013025 
L 241.194678 247.189969 
L 236.121527 247.977601 
L 230.913454 248.358015 
L 225.563688 248.315886 
L 220.065733 247.838826 
L 214.41342 246.917743 
L 208.600963 245.547225 
L 202.623015 243.725938 
L 196.474726 241.457034 
L 190.15181 238.748585 
L 183.650605 235.614027 
L 176.968141 232.07262 
L 170.102212 228.149932 
L 163.051448 223.878333 
L 155.815388 219.297508 
L 148.394559 214.454992 
L 140.790559 209.406716 
L 133.006138 204.217578 
L 125.045284 198.962023 
" clip-path="url(#pe60dc1d393)" style="fill: none; stroke: #8c564b; stroke-width: 1.5"/>
    <path d="M 616.219509 134.818649 
L 609.583888 133.586414 
L 603.870538 132.987035 
L 598.306343 132.817088 
L 592.841608 133.018867 
L 587.439585 133.543492 
L 582.075119 134.346905 
L 576.732104 135.387294 
L 571.400735 136.623877 
L 566.07518 138.016661 
L 555.428599 141.116766 
L 534.00857 147.639115 
L 523.276292 150.590049 
L 512.963129 153.026831 
L 507.239915 154.178524 
L 501.930425 155.109762 
L 496.649357 155.901977 
L 491.403578 156.556488 
L 486.199966 157.077802 
L 476.298057 157.736756 
L 470.906285 157.928199 
L 461.029849 158.022336 
L 451.449596 157.876981 
L 428.850601 157.31481 
L 420.40947 157.337817 
L 412.33347 157.66443 
L 408.429562 157.968591 
L 404.611075 158.378914 
L 400.873179 158.903491 
L 397.209459 159.549794 
L 393.611959 160.324947 
L 390.071359 161.23599 
L 386.5773 162.290088 
L 383.118822 163.494643 
L 379.684874 164.857265 
L 376.264826 166.385592 
L 372.848917 168.086975 
L 369.428577 169.968067 
L 365.996601 172.03437 
L 362.547163 174.289806 
L 359.075692 176.736349 
L 355.578654 179.373753 
L 352.053269 182.199389 
L 348.497215 185.208179 
L 341.284373 191.742841 
L 333.920378 198.890355 
L 322.526852 210.490128 
L 310.506166 222.744204 
L 302.053725 230.939063 
L 297.659047 234.966643 
L 293.131863 238.91004 
L 288.455253 242.738623 
L 283.611326 246.419226 
L 278.581985 249.915546 
L 273.350193 253.187586 
L 267.901806 256.191367 
L 262.227899 258.879279 
L 256.327283 261.201446 
L 250.208529 263.108378 
L 243.890653 264.554776 
L 237.401691 265.503753 
L 230.775075 265.930313 
L 224.044591 265.822947 
L 217.239398 265.182893 
L 210.380516 264.021558 
L 203.479506 262.357207 
L 196.539148 260.212034 
L 189.555406 257.610294 
L 182.519843 254.577606 
L 175.421897 251.141202 
L 168.250742 247.330791 
L 160.996658 243.179693 
L 153.652011 238.726073 
L 146.211951 234.014125 
L 131.043518 224.028618 
L 115.363636 213.627306 
L 115.363636 213.627306 
" clip-path="url(#pe60dc1d393)" style="fill: none; stroke: #17becf; stroke-width: 1.5"/>
   </g>
  </g>
 </g>
 <defs>
  <clipPath id="pe60dc1d393">
   <rect x="90" y="89.256655" width="558" height="185.086689"/>
  </clipPath>
 </defs>
</svg>
