<?xml version="1.0" encoding="utf-8" standalone="no"?>
<!DOCTYPE svg PUBLIC "-//W3C//DTD SVG 1.1//EN"
  "http://www.w3.org/Graphics/SVG/1.1/DTD/svg11.dtd">
<svg xmlns:xlink="http://www.w3.org/1999/xlink" width="720pt" height="360pt" viewBox="0 0 720 360" xmlns="http://www.w3.org/2000/svg" version="1.1">
 <metadata>
  <rdf:RDF xmlns:dc="http://purl.org/dc/elements/1.1/" xmlns:cc="http://creativecommons.org/ns#" xmlns:rdf="http://www.w3.org/1999/02/22-rdf-syntax-ns#">
   <cc:Work>
    <dc:type rdf:resource="http://purl.org/dc/dcmitype/StillImage"/>
    <dc:date>2024-01-06T22:33:05.862093</dc:date>
    <dc:format>image/svg+xml</dc:format>
    <dc:creator>
     <cc:Agent>
      <dc:title>Matplotlib v3.7.1, https://matplotlib.org/</dc:title>
     </cc:Agent>
    </dc:creator>
   </cc:Work>
  </rdf:RDF>
 </metadata>
 <defs>
  <style type="text/css">*{stroke-linejoin: round; stroke-linecap: butt}</style>
 </defs>
 <g id="figure_1">
  <g id="patch_1">
   <path d="M 0 360 
L 720 360 
L 720 0 
L 0 0 
z
" style="fill: #ffffff"/>
  </g>
  <g id="axes_1">
   <g id="patch_2">
    <path d="M 335.012082 320.4 
L 402.987918 320.4 
L 402.987918 43.2 
L 335.012082 43.2 
z
" style="fill: #ffffff"/>
   </g>
   <g id="matplotlib.axis_1">
    <g id="xtick_1">
     <g id="line2d_1">
      <defs>
       <path id="m661afcef8b" d="M 0 0 
L 0 3.5 
" style="stroke: #000000; stroke-width: 0.8"/>
      </defs>
      <g>
       <use xlink:href="#m661afcef8b" x="346.839074" y="320.4" style="stroke: #000000; stroke-width: 0.8"/>
      </g>
     </g>
     <g id="text_1">
      <!-- 200 -->
      <g transform="translate(337.295324 334.998438) scale(0.1 -0.1)">
       <defs>
        <path id="DejaVuSans-32" d="M 1228 531 
L 3431 531 
L 3431 0 
L 469 0 
L 469 531 
Q 828 903 1448 1529 
Q 2069 2156 2228 2338 
Q 2531 2678 2651 2914 
Q 2772 3150 2772 3378 
Q 2772 3750 2511 3984 
Q 2250 4219 1831 4219 
Q 1534 4219 1204 4116 
Q 875 4013 500 3803 
L 500 4441 
Q 881 4594 1212 4672 
Q 1544 4750 1819 4750 
Q 2544 4750 2975 4387 
Q 3406 4025 3406 3419 
Q 3406 3131 3298 2873 
Q 3191 2616 2906 2266 
Q 2828 2175 2409 1742 
Q 1991 1309 1228 531 
z
" transform="scale(0.015625)"/>
        <path id="DejaVuSans-30" d="M 2034 4250 
Q 1547 4250 1301 3770 
Q 1056 3291 1056 2328 
Q 1056 1369 1301 889 
Q 1547 409 2034 409 
Q 2525 409 2770 889 
Q 3016 1369 3016 2328 
Q 3016 3291 2770 3770 
Q 2525 4250 2034 4250 
z
M 2034 4750 
Q 2819 4750 3233 4129 
Q 3647 3509 3647 2328 
Q 3647 1150 3233 529 
Q 2819 -91 2034 -91 
Q 1250 -91 836 529 
Q 422 1150 422 2328 
Q 422 3509 836 4129 
Q 1250 4750 2034 4750 
z
" transform="scale(0.015625)"/>
       </defs>
       <use xlink:href="#DejaVuSans-32"/>
       <use xlink:href="#DejaVuSans-30" x="63.623047"/>
       <use xlink:href="#DejaVuSans-30" x="127.246094"/>
      </g>
     </g>
    </g>
    <g id="xtick_2">
     <g id="line2d_2">
      <g>
       <use xlink:href="#m661afcef8b" x="392.300555" y="320.4" style="stroke: #000000; stroke-width: 0.8"/>
      </g>
     </g>
     <g id="text_2">
      <!-- 400 -->
      <g transform="translate(382.756805 334.998438) scale(0.1 -0.1)">
       <defs>
        <path id="DejaVuSans-34" d="M 2419 4116 
L 825 1625 
L 2419 1625 
L 2419 4116 
z
M 2253 4666 
L 3047 4666 
L 3047 1625 
L 3713 1625 
L 3713 1100 
L 3047 1100 
L 3047 0 
L 2419 0 
L 2419 1100 
L 313 1100 
L 313 1709 
L 2253 4666 
z
" transform="scale(0.015625)"/>
       </defs>
       <use xlink:href="#DejaVuSans-34"/>
       <use xlink:href="#DejaVuSans-30" x="63.623047"/>
       <use xlink:href="#DejaVuSans-30" x="127.246094"/>
      </g>
     </g>
    </g>
   </g>
   <g id="matplotlib.axis_2">
    <g id="ytick_1">
     <g id="line2d_3">
      <defs>
       <path id="m0bc4273a7d" d="M 0 0 
L -3.5 0 
" style="stroke: #000000; stroke-width: 0.8"/>
      </defs>
      <g>
       <use xlink:href="#m0bc4273a7d" x="335.012082" y="316.926426" style="stroke: #000000; stroke-width: 0.8"/>
      </g>
     </g>
     <g id="text_3">
      <!-- 200 -->
      <g transform="translate(308.924582 320.725645) scale(0.1 -0.1)">
       <use xlink:href="#DejaVuSans-32"/>
       <use xlink:href="#DejaVuSans-30" x="63.623047"/>
       <use xlink:href="#DejaVuSans-30" x="127.246094"/>
      </g>
     </g>
    </g>
    <g id="ytick_2">
     <g id="line2d_4">
      <g>
       <use xlink:href="#m0bc4273a7d" x="335.012082" y="271.464945" style="stroke: #000000; stroke-width: 0.8"/>
      </g>
     </g>
     <g id="text_4">
      <!-- 400 -->
      <g transform="translate(308.924582 275.264164) scale(0.1 -0.1)">
       <use xlink:href="#DejaVuSans-34"/>
       <use xlink:href="#DejaVuSans-30" x="63.623047"/>
       <use xlink:href="#DejaVuSans-30" x="127.246094"/>
      </g>
     </g>
    </g>
    <g id="ytick_3">
     <g id="line2d_5">
      <g>
       <use xlink:href="#m0bc4273a7d" x="335.012082" y="226.003464" style="stroke: #000000; stroke-width: 0.8"/>
      </g>
     </g>
     <g id="text_5">
      <!-- 600 -->
      <g transform="translate(308.924582 229.802683) scale(0.1 -0.1)">
       <defs>
        <path id="DejaVuSans-36" d="M 2113 2584 
Q 1688 2584 1439 2293 
Q 1191 2003 1191 1497 
Q 1191 994 1439 701 
Q 1688 409 2113 409 
Q 2538 409 2786 701 
Q 3034 994 3034 1497 
Q 3034 2003 2786 2293 
Q 2538 2584 2113 2584 
z
M 3366 4563 
L 3366 3988 
Q 3128 4100 2886 4159 
Q 2644 4219 2406 4219 
Q 1781 4219 1451 3797 
Q 1122 3375 1075 2522 
Q 1259 2794 1537 2939 
Q 1816 3084 2150 3084 
Q 2853 3084 3261 2657 
Q 3669 2231 3669 1497 
Q 3669 778 3244 343 
Q 2819 -91 2113 -91 
Q 1303 -91 875 529 
Q 447 1150 447 2328 
Q 447 3434 972 4092 
Q 1497 4750 2381 4750 
Q 2619 4750 2861 4703 
Q 3103 4656 3366 4563 
z
" transform="scale(0.015625)"/>
       </defs>
       <use xlink:href="#DejaVuSans-36"/>
       <use xlink:href="#DejaVuSans-30" x="63.623047"/>
       <use xlink:href="#DejaVuSans-30" x="127.246094"/>
      </g>
     </g>
    </g>
    <g id="ytick_4">
     <g id="line2d_6">
      <g>
       <use xlink:href="#m0bc4273a7d" x="335.012082" y="180.541983" style="stroke: #000000; stroke-width: 0.8"/>
      </g>
     </g>
     <g id="text_6">
      <!-- 800 -->
      <g transform="translate(308.924582 184.341202) scale(0.1 -0.1)">
       <defs>
        <path id="DejaVuSans-38" d="M 2034 2216 
Q 1584 2216 1326 1975 
Q 1069 1734 1069 1313 
Q 1069 891 1326 650 
Q 1584 409 2034 409 
Q 2484 409 2743 651 
Q 3003 894 3003 1313 
Q 3003 1734 2745 1975 
Q 2488 2216 2034 2216 
z
M 1403 2484 
Q 997 2584 770 2862 
Q 544 3141 544 3541 
Q 544 4100 942 4425 
Q 1341 4750 2034 4750 
Q 2731 4750 3128 4425 
Q 3525 4100 3525 3541 
Q 3525 3141 3298 2862 
Q 3072 2584 2669 2484 
Q 3125 2378 3379 2068 
Q 3634 1759 3634 1313 
Q 3634 634 3220 271 
Q 2806 -91 2034 -91 
Q 1263 -91 848 271 
Q 434 634 434 1313 
Q 434 1759 690 2068 
Q 947 2378 1403 2484 
z
M 1172 3481 
Q 1172 3119 1398 2916 
Q 1625 2713 2034 2713 
Q 2441 2713 2670 2916 
Q 2900 3119 2900 3481 
Q 2900 3844 2670 4047 
Q 2441 4250 2034 4250 
Q 1625 4250 1398 4047 
Q 1172 3844 1172 3481 
z
" transform="scale(0.015625)"/>
       </defs>
       <use xlink:href="#DejaVuSans-38"/>
       <use xlink:href="#DejaVuSans-30" x="63.623047"/>
       <use xlink:href="#DejaVuSans-30" x="127.246094"/>
      </g>
     </g>
    </g>
    <g id="ytick_5">
     <g id="line2d_7">
      <g>
       <use xlink:href="#m0bc4273a7d" x="335.012082" y="135.080502" style="stroke: #000000; stroke-width: 0.8"/>
      </g>
     </g>
     <g id="text_7">
      <!-- 1000 -->
      <g transform="translate(302.562082 138.879721) scale(0.1 -0.1)">
       <defs>
        <path id="DejaVuSans-31" d="M 794 531 
L 1825 531 
L 1825 4091 
L 703 3866 
L 703 4441 
L 1819 4666 
L 2450 4666 
L 2450 531 
L 3481 531 
L 3481 0 
L 794 0 
L 794 531 
z
" transform="scale(0.015625)"/>
       </defs>
       <use xlink:href="#DejaVuSans-31"/>
       <use xlink:href="#DejaVuSans-30" x="63.623047"/>
       <use xlink:href="#DejaVuSans-30" x="127.246094"/>
       <use xlink:href="#DejaVuSans-30" x="190.869141"/>
      </g>
     </g>
    </g>
    <g id="ytick_6">
     <g id="line2d_8">
      <g>
       <use xlink:href="#m0bc4273a7d" x="335.012082" y="89.619022" style="stroke: #000000; stroke-width: 0.8"/>
      </g>
     </g>
     <g id="text_8">
      <!-- 1200 -->
      <g transform="translate(302.562082 93.41824) scale(0.1 -0.1)">
       <use xlink:href="#DejaVuSans-31"/>
       <use xlink:href="#DejaVuSans-32" x="63.623047"/>
       <use xlink:href="#DejaVuSans-30" x="127.246094"/>
       <use xlink:href="#DejaVuSans-30" x="190.869141"/>
      </g>
     </g>
    </g>
    <g id="ytick_7">
     <g id="line2d_9">
      <g>
       <use xlink:href="#m0bc4273a7d" x="335.012082" y="44.157541" style="stroke: #000000; stroke-width: 0.8"/>
      </g>
     </g>
     <g id="text_9">
      <!-- 1400 -->
      <g transform="translate(302.562082 47.956759) scale(0.1 -0.1)">
       <use xlink:href="#DejaVuSans-31"/>
       <use xlink:href="#DejaVuSans-34" x="63.623047"/>
       <use xlink:href="#DejaVuSans-30" x="127.246094"/>
       <use xlink:href="#DejaVuSans-30" x="190.869141"/>
      </g>
     </g>
    </g>
   </g>
   <g id="LineCollection_1">
    <path d="M 393.209785 306.470285 
L 392.517684 302.989092 
L 391.842285 299.588987 
L 391.182744 296.265919 
L 390.538254 293.016 
L 389.908049 289.835499 
L 389.291392 286.720838 
L 388.687585 283.668587 
L 388.095958 280.675462 
L 387.515875 277.738317 
L 386.946725 274.854139 
L 386.387929 272.020049 
L 385.838933 269.233292 
L 385.299206 266.491235 
L 384.768246 263.791364 
L 384.24557 261.131277 
L 383.730718 258.508683 
L 383.223252 255.921398 
L 382.722753 253.367337 
L 382.228821 250.844516 
L 381.741076 248.351045 
L 381.259152 245.885123 
L 380.782703 243.445039 
L 380.311397 241.029164 
L 379.844916 238.63595 
L 379.382958 236.263925 
L 378.925234 233.911692 
L 378.471469 231.577922 
L 378.021397 229.261356 
L 377.574768 226.960796 
L 377.13134 224.675105 
L 376.690884 222.403204 
L 376.25318 220.144069 
L 375.818016 217.896726 
L 375.385192 215.660248 
L 374.954516 213.433757 
L 374.525802 211.216414 
L 374.098875 209.00742 
L 373.673565 206.806014 
L 373.24971 204.611468 
L 372.827154 202.423084 
L 372.405748 200.240192 
L 371.985347 198.062148 
L 371.565813 195.888332 
L 371.147012 193.71814 
L 370.728815 191.550989 
L 370.311098 189.386308 
L 369.893739 187.223537 
L 369.47662 185.062128 
L 369.059626 182.901536 
L 368.642646 180.741222 
L 368.225568 178.580646 
L 367.808283 176.419269 
L 367.390685 174.256545 
L 366.972667 172.091922 
L 366.554122 169.924838 
L 366.134943 167.75472 
L 365.715022 165.580978 
L 365.294251 163.403007 
L 364.872518 161.220178 
L 364.44971 159.031843 
L 364.025711 156.837325 
L 363.600399 154.635919 
L 363.17365 152.426891 
L 362.745334 150.209471 
L 362.315313 147.982852 
L 361.883446 145.746189 
L 361.449582 143.498593 
L 361.013562 141.239131 
L 360.575216 138.96682 
L 360.134368 136.680629 
L 359.690825 134.379469 
L 359.244387 132.062198 
L 358.794837 129.72761 
L 358.341946 127.374438 
L 357.885466 125.00135 
L 357.425134 122.606941 
L 356.960671 120.189738 
L 356.491773 117.748187 
L 356.01812 115.28066 
L 355.539368 112.785442 
L 355.055146 110.260736 
L 354.565062 107.704653 
L 354.068693 105.115213 
L 353.565591 102.490338 
L 353.055273 99.827851 
L 352.537225 97.125473 
L 352.0109 94.380814 
L 351.475713 91.591375 
L 350.93104 88.754543 
L 350.376217 85.867584 
L 349.810538 82.927642 
L 349.233249 79.931733 
L 348.64355 76.876743 
L 348.040592 73.759422 
L 347.423471 70.57638 
L 346.791229 67.324083 
L 346.14285 63.998848 
L 345.477257 60.596839 
L 344.793308 57.114063 
" clip-path="url(#p02fdc70dab)" style="fill: none; stroke: #1f77b4; stroke-width: 1.5"/>
    <path d="M 399.898107 305.140571 
L 399.206115 301.659926 
L 398.530932 298.260908 
L 397.871602 294.938907 
L 397.227322 291.69004 
L 396.597323 288.510582 
L 395.980872 285.39696 
L 395.37727 282.34575 
L 394.78585 279.35367 
L 394.205974 276.417576 
L 393.637035 273.534461 
L 393.07845 270.701443 
L 392.529667 267.915771 
L 391.990157 265.174811 
L 391.459414 262.476048 
L 390.936958 259.81708 
L 390.422327 257.195614 
L 389.915084 254.609463 
L 389.414808 252.056539 
L 388.921099 249.534856 
L 388.433575 247.04252 
L 387.951872 244.577725 
L 387.475641 242.138756 
L 387.004549 239.723981 
L 386.538279 237.331846 
L 386.076526 234.960876 
L 385.619002 232.609667 
L 385.165429 230.276889 
L 384.715542 227.961275 
L 384.26909 225.661626 
L 383.82583 223.3768 
L 383.385532 221.105715 
L 382.947975 218.847343 
L 382.512949 216.600708 
L 382.080251 214.364882 
L 381.64969 212.138983 
L 381.221079 209.922172 
L 380.794243 207.713651 
L 380.369013 205.512657 
L 379.945226 203.318462 
L 379.522726 201.130369 
L 379.101365 198.947712 
L 378.680998 196.769847 
L 378.261488 194.596157 
L 377.842702 192.426042 
L 377.424512 190.258921 
L 377.006789 188.094211 
L 376.589417 185.931374 
L 376.172279 183.769867 
L 375.755262 181.609154 
L 375.338254 179.448699 
L 374.921147 177.287971 
L 374.503832 175.126433 
L 374.086203 172.963549 
L 373.668155 170.798771 
L 373.249582 168.631546 
L 372.830379 166.461304 
L 372.410439 164.287464 
L 371.989655 162.109423 
L 371.567916 159.926562 
L 371.145109 157.738231 
L 370.721115 155.543744 
L 370.295819 153.342417 
L 369.869095 151.133519 
L 369.440814 148.916283 
L 369.01084 146.689904 
L 368.579031 144.453539 
L 368.145235 142.206298 
L 367.709294 139.947247 
L 367.271038 137.675402 
L 366.830289 135.389728 
L 366.386855 133.089131 
L 365.940533 130.772461 
L 365.491106 128.438508 
L 365.03834 126.085995 
L 364.581989 123.713576 
L 364.121787 121.319839 
L 363.65745 118.903293 
L 363.188673 116.462371 
L 362.715132 113.995427 
L 362.236479 111.50073 
L 361.752342 108.976463 
L 361.262322 106.420715 
L 360.765994 103.831485 
L 360.262902 101.206666 
L 359.752546 98.543981 
L 359.23442 95.841196 
L 358.707973 93.0959 
L 358.172614 90.305568 
L 357.627716 87.46756 
L 357.072608 84.579119 
L 356.50658 81.637365 
L 355.928873 78.63929 
L 355.338683 75.581758 
L 354.735155 72.461496 
L 354.117382 69.275094 
L 353.484401 66.018998 
L 352.835191 62.68951 
L 352.168671 59.282776 
L 351.484722 55.8 
" clip-path="url(#p02fdc70dab)" style="fill: none; stroke: #8c564b; stroke-width: 1.5"/>
    <path d="M 386.521463 307.8 
L 385.829362 304.318806 
L 385.153745 300.917603 
L 384.49399 297.593461 
L 383.849291 294.342484 
L 383.218878 291.160936 
L 382.602015 288.045234 
L 381.998002 284.991945 
L 381.40617 281.997778 
L 380.825879 279.059585 
L 380.256521 276.174351 
L 379.697515 273.339195 
L 379.148306 270.551359 
L 378.608365 267.808211 
L 378.077187 265.107237 
L 377.554292 262.446036 
L 377.039219 259.822318 
L 376.531531 257.233901 
L 376.030809 254.678704 
L 375.536655 252.154745 
L 375.048687 249.660136 
L 374.566542 247.193082 
L 374.089874 244.751876 
L 373.618351 242.334892 
L 373.151657 239.940587 
L 372.689492 237.567494 
L 372.231565 235.21422 
L 371.777603 232.879442 
L 371.327342 230.561903 
L 370.880532 228.26041 
L 370.436932 225.973831 
L 369.996313 223.701089 
L 369.558455 221.441164 
L 369.123149 219.193084 
L 368.690193 216.955926 
L 368.259397 214.728812 
L 367.830574 212.510906 
L 367.40355 210.30141 
L 366.978155 208.099563 
L 366.554226 205.904635 
L 366.131608 203.715929 
L 365.710151 201.532775 
L 365.28971 199.354525 
L 364.870146 197.180557 
L 364.451326 195.010265 
L 364.03312 192.843062 
L 363.615404 190.678388 
L 363.198054 188.515667 
L 362.780951 186.354339 
L 362.363979 184.193857 
L 361.947023 182.033674 
L 361.529974 179.873245 
L 361.11272 177.712024 
L 360.695153 175.54946 
L 360.277165 173.384995 
L 359.858648 171.218059 
L 359.439495 169.048074 
L 359.019596 166.874444 
L 358.59884 164.696556 
L 358.177118 162.513778 
L 357.754313 160.325459 
L 357.330312 158.130932 
L 356.90499 155.929473 
L 356.478221 153.720341 
L 356.049874 151.502764 
L 355.619813 149.275934 
L 355.187894 147.039002 
L 354.753967 144.79108 
L 354.317872 142.531234 
L 353.879442 140.258484 
L 353.438498 137.971801 
L 352.994852 135.6701 
L 352.548301 133.352244 
L 352.098632 131.017035 
L 351.645615 128.663215 
L 351.189007 126.28946 
L 350.728546 123.894378 
L 350.263954 121.476506 
L 349.794932 119.034309 
L 349.321162 116.566171 
L 348.842302 114.070396 
L 348.357988 111.545205 
L 347.867828 108.988731 
L 347.371407 106.399012 
L 346.868278 103.774002 
L 346.35798 101.111623 
L 345.839991 98.409546 
L 345.313766 95.665409 
L 344.778726 92.876736 
L 344.234251 90.040939 
L 343.679684 87.155308 
L 343.114321 84.217013 
L 342.537416 81.223093 
L 341.948172 78.170457 
L 341.345744 75.055878 
L 340.729234 71.875986 
L 340.097688 68.627268 
L 339.450094 65.306059 
L 338.785378 61.90854 
L 338.101893 58.428125 
" clip-path="url(#p02fdc70dab)" style="fill: none; stroke: #17becf; stroke-width: 1.5"/>
   </g>
   <g id="patch_3">
    <path d="M 335.012082 320.4 
L 335.012082 43.2 
" style="fill: none; stroke: #000000; stroke-width: 0.8; stroke-linejoin: miter; stroke-linecap: square"/>
   </g>
   <g id="patch_4">
    <path d="M 402.987918 320.4 
L 402.987918 43.2 
" style="fill: none; stroke: #000000; stroke-width: 0.8; stroke-linejoin: miter; stroke-linecap: square"/>
   </g>
   <g id="patch_5">
    <path d="M 335.012082 320.4 
L 402.987918 320.4 
" style="fill: none; stroke: #000000; stroke-width: 0.8; stroke-linejoin: miter; stroke-linecap: square"/>
   </g>
   <g id="patch_6">
    <path d="M 335.012082 43.2 
L 402.987918 43.2 
" style="fill: none; stroke: #000000; stroke-width: 0.8; stroke-linejoin: miter; stroke-linecap: square"/>
   </g>
  </g>
 </g>
 <defs>
  <clipPath id="p02fdc70dab">
   <rect x="335.012082" y="43.2" width="67.975835" height="277.2"/>
  </clipPath>
 </defs>
</svg>
