<?xml version="1.0" encoding="utf-8" standalone="no"?>
<!DOCTYPE svg PUBLIC "-//W3C//DTD SVG 1.1//EN"
  "http://www.w3.org/Graphics/SVG/1.1/DTD/svg11.dtd">
<svg xmlns:xlink="http://www.w3.org/1999/xlink" width="720pt" height="360pt" viewBox="0 0 720 360" xmlns="http://www.w3.org/2000/svg" version="1.1">
 <metadata>
  <rdf:RDF xmlns:dc="http://purl.org/dc/elements/1.1/" xmlns:cc="http://creativecommons.org/ns#" xmlns:rdf="http://www.w3.org/1999/02/22-rdf-syntax-ns#">
   <cc:Work>
    <dc:type rdf:resource="http://purl.org/dc/dcmitype/StillImage"/>
    <dc:date>2024-01-06T20:22:25.847885</dc:date>
    <dc:format>image/svg+xml</dc:format>
    <dc:creator>
     <cc:Agent>
      <dc:title>Matplotlib v3.7.1, https://matplotlib.org/</dc:title>
     </cc:Agent>
    </dc:creator>
   </cc:Work>
  </rdf:RDF>
 </metadata>
 <defs>
  <style type="text/css">*{stroke-linejoin: round; stroke-linecap: butt}</style>
 </defs>
 <g id="figure_1">
  <g id="patch_1">
   <path d="M 0 360 
L 720 360 
L 720 0 
L 0 0 
z
" style="fill: #ffffff"/>
  </g>
  <g id="axes_1">
   <g id="patch_2">
    <path d="M 324.857564 320.4 
L 413.142436 320.4 
L 413.142436 43.2 
L 324.857564 43.2 
z
" style="fill: #ffffff"/>
   </g>
   <g id="matplotlib.axis_1">
    <g id="xtick_1">
     <g id="line2d_1">
      <defs>
       <path id="m5d59dad1a2" d="M 0 0 
L 0 3.5 
" style="stroke: #000000; stroke-width: 0.8"/>
      </defs>
      <g>
       <use xlink:href="#m5d59dad1a2" x="344.677078" y="320.4" style="stroke: #000000; stroke-width: 0.8"/>
      </g>
     </g>
     <g id="text_1">
      <!-- 1250 -->
      <g transform="translate(331.952078 334.998438) scale(0.1 -0.1)">
       <defs>
        <path id="DejaVuSans-31" d="M 794 531 
L 1825 531 
L 1825 4091 
L 703 3866 
L 703 4441 
L 1819 4666 
L 2450 4666 
L 2450 531 
L 3481 531 
L 3481 0 
L 794 0 
L 794 531 
z
" transform="scale(0.015625)"/>
        <path id="DejaVuSans-32" d="M 1228 531 
L 3431 531 
L 3431 0 
L 469 0 
L 469 531 
Q 828 903 1448 1529 
Q 2069 2156 2228 2338 
Q 2531 2678 2651 2914 
Q 2772 3150 2772 3378 
Q 2772 3750 2511 3984 
Q 2250 4219 1831 4219 
Q 1534 4219 1204 4116 
Q 875 4013 500 3803 
L 500 4441 
Q 881 4594 1212 4672 
Q 1544 4750 1819 4750 
Q 2544 4750 2975 4387 
Q 3406 4025 3406 3419 
Q 3406 3131 3298 2873 
Q 3191 2616 2906 2266 
Q 2828 2175 2409 1742 
Q 1991 1309 1228 531 
z
" transform="scale(0.015625)"/>
        <path id="DejaVuSans-35" d="M 691 4666 
L 3169 4666 
L 3169 4134 
L 1269 4134 
L 1269 2991 
Q 1406 3038 1543 3061 
Q 1681 3084 1819 3084 
Q 2600 3084 3056 2656 
Q 3513 2228 3513 1497 
Q 3513 744 3044 326 
Q 2575 -91 1722 -91 
Q 1428 -91 1123 -41 
Q 819 9 494 109 
L 494 744 
Q 775 591 1075 516 
Q 1375 441 1709 441 
Q 2250 441 2565 725 
Q 2881 1009 2881 1497 
Q 2881 1984 2565 2268 
Q 2250 2553 1709 2553 
Q 1456 2553 1204 2497 
Q 953 2441 691 2322 
L 691 4666 
z
" transform="scale(0.015625)"/>
        <path id="DejaVuSans-30" d="M 2034 4250 
Q 1547 4250 1301 3770 
Q 1056 3291 1056 2328 
Q 1056 1369 1301 889 
Q 1547 409 2034 409 
Q 2525 409 2770 889 
Q 3016 1369 3016 2328 
Q 3016 3291 2770 3770 
Q 2525 4250 2034 4250 
z
M 2034 4750 
Q 2819 4750 3233 4129 
Q 3647 3509 3647 2328 
Q 3647 1150 3233 529 
Q 2819 -91 2034 -91 
Q 1250 -91 836 529 
Q 422 1150 422 2328 
Q 422 3509 836 4129 
Q 1250 4750 2034 4750 
z
" transform="scale(0.015625)"/>
       </defs>
       <use xlink:href="#DejaVuSans-31"/>
       <use xlink:href="#DejaVuSans-32" x="63.623047"/>
       <use xlink:href="#DejaVuSans-35" x="127.246094"/>
       <use xlink:href="#DejaVuSans-30" x="190.869141"/>
      </g>
     </g>
    </g>
    <g id="xtick_2">
     <g id="line2d_2">
      <g>
       <use xlink:href="#m5d59dad1a2" x="399.730993" y="320.4" style="stroke: #000000; stroke-width: 0.8"/>
      </g>
     </g>
     <g id="text_2">
      <!-- 1500 -->
      <g transform="translate(387.005993 334.998438) scale(0.1 -0.1)">
       <use xlink:href="#DejaVuSans-31"/>
       <use xlink:href="#DejaVuSans-35" x="63.623047"/>
       <use xlink:href="#DejaVuSans-30" x="127.246094"/>
       <use xlink:href="#DejaVuSans-30" x="190.869141"/>
      </g>
     </g>
    </g>
   </g>
   <g id="matplotlib.axis_2">
    <g id="ytick_1">
     <g id="line2d_3">
      <defs>
       <path id="m146f46a831" d="M 0 0 
L -3.5 0 
" style="stroke: #000000; stroke-width: 0.8"/>
      </defs>
      <g>
       <use xlink:href="#m146f46a831" x="324.857564" y="294.072807" style="stroke: #000000; stroke-width: 0.8"/>
      </g>
     </g>
     <g id="text_3">
      <!-- 200 -->
      <g transform="translate(298.770064 297.872026) scale(0.1 -0.1)">
       <use xlink:href="#DejaVuSans-32"/>
       <use xlink:href="#DejaVuSans-30" x="63.623047"/>
       <use xlink:href="#DejaVuSans-30" x="127.246094"/>
      </g>
     </g>
    </g>
    <g id="ytick_2">
     <g id="line2d_4">
      <g>
       <use xlink:href="#m146f46a831" x="324.857564" y="250.029675" style="stroke: #000000; stroke-width: 0.8"/>
      </g>
     </g>
     <g id="text_4">
      <!-- 400 -->
      <g transform="translate(298.770064 253.828893) scale(0.1 -0.1)">
       <defs>
        <path id="DejaVuSans-34" d="M 2419 4116 
L 825 1625 
L 2419 1625 
L 2419 4116 
z
M 2253 4666 
L 3047 4666 
L 3047 1625 
L 3713 1625 
L 3713 1100 
L 3047 1100 
L 3047 0 
L 2419 0 
L 2419 1100 
L 313 1100 
L 313 1709 
L 2253 4666 
z
" transform="scale(0.015625)"/>
       </defs>
       <use xlink:href="#DejaVuSans-34"/>
       <use xlink:href="#DejaVuSans-30" x="63.623047"/>
       <use xlink:href="#DejaVuSans-30" x="127.246094"/>
      </g>
     </g>
    </g>
    <g id="ytick_3">
     <g id="line2d_5">
      <g>
       <use xlink:href="#m146f46a831" x="324.857564" y="205.986542" style="stroke: #000000; stroke-width: 0.8"/>
      </g>
     </g>
     <g id="text_5">
      <!-- 600 -->
      <g transform="translate(298.770064 209.785761) scale(0.1 -0.1)">
       <defs>
        <path id="DejaVuSans-36" d="M 2113 2584 
Q 1688 2584 1439 2293 
Q 1191 2003 1191 1497 
Q 1191 994 1439 701 
Q 1688 409 2113 409 
Q 2538 409 2786 701 
Q 3034 994 3034 1497 
Q 3034 2003 2786 2293 
Q 2538 2584 2113 2584 
z
M 3366 4563 
L 3366 3988 
Q 3128 4100 2886 4159 
Q 2644 4219 2406 4219 
Q 1781 4219 1451 3797 
Q 1122 3375 1075 2522 
Q 1259 2794 1537 2939 
Q 1816 3084 2150 3084 
Q 2853 3084 3261 2657 
Q 3669 2231 3669 1497 
Q 3669 778 3244 343 
Q 2819 -91 2113 -91 
Q 1303 -91 875 529 
Q 447 1150 447 2328 
Q 447 3434 972 4092 
Q 1497 4750 2381 4750 
Q 2619 4750 2861 4703 
Q 3103 4656 3366 4563 
z
" transform="scale(0.015625)"/>
       </defs>
       <use xlink:href="#DejaVuSans-36"/>
       <use xlink:href="#DejaVuSans-30" x="63.623047"/>
       <use xlink:href="#DejaVuSans-30" x="127.246094"/>
      </g>
     </g>
    </g>
    <g id="ytick_4">
     <g id="line2d_6">
      <g>
       <use xlink:href="#m146f46a831" x="324.857564" y="161.943409" style="stroke: #000000; stroke-width: 0.8"/>
      </g>
     </g>
     <g id="text_6">
      <!-- 800 -->
      <g transform="translate(298.770064 165.742628) scale(0.1 -0.1)">
       <defs>
        <path id="DejaVuSans-38" d="M 2034 2216 
Q 1584 2216 1326 1975 
Q 1069 1734 1069 1313 
Q 1069 891 1326 650 
Q 1584 409 2034 409 
Q 2484 409 2743 651 
Q 3003 894 3003 1313 
Q 3003 1734 2745 1975 
Q 2488 2216 2034 2216 
z
M 1403 2484 
Q 997 2584 770 2862 
Q 544 3141 544 3541 
Q 544 4100 942 4425 
Q 1341 4750 2034 4750 
Q 2731 4750 3128 4425 
Q 3525 4100 3525 3541 
Q 3525 3141 3298 2862 
Q 3072 2584 2669 2484 
Q 3125 2378 3379 2068 
Q 3634 1759 3634 1313 
Q 3634 634 3220 271 
Q 2806 -91 2034 -91 
Q 1263 -91 848 271 
Q 434 634 434 1313 
Q 434 1759 690 2068 
Q 947 2378 1403 2484 
z
M 1172 3481 
Q 1172 3119 1398 2916 
Q 1625 2713 2034 2713 
Q 2441 2713 2670 2916 
Q 2900 3119 2900 3481 
Q 2900 3844 2670 4047 
Q 2441 4250 2034 4250 
Q 1625 4250 1398 4047 
Q 1172 3844 1172 3481 
z
" transform="scale(0.015625)"/>
       </defs>
       <use xlink:href="#DejaVuSans-38"/>
       <use xlink:href="#DejaVuSans-30" x="63.623047"/>
       <use xlink:href="#DejaVuSans-30" x="127.246094"/>
      </g>
     </g>
    </g>
    <g id="ytick_5">
     <g id="line2d_7">
      <g>
       <use xlink:href="#m146f46a831" x="324.857564" y="117.900276" style="stroke: #000000; stroke-width: 0.8"/>
      </g>
     </g>
     <g id="text_7">
      <!-- 1000 -->
      <g transform="translate(292.407564 121.699495) scale(0.1 -0.1)">
       <use xlink:href="#DejaVuSans-31"/>
       <use xlink:href="#DejaVuSans-30" x="63.623047"/>
       <use xlink:href="#DejaVuSans-30" x="127.246094"/>
       <use xlink:href="#DejaVuSans-30" x="190.869141"/>
      </g>
     </g>
    </g>
    <g id="ytick_6">
     <g id="line2d_8">
      <g>
       <use xlink:href="#m146f46a831" x="324.857564" y="73.857144" style="stroke: #000000; stroke-width: 0.8"/>
      </g>
     </g>
     <g id="text_8">
      <!-- 1200 -->
      <g transform="translate(292.407564 77.656363) scale(0.1 -0.1)">
       <use xlink:href="#DejaVuSans-31"/>
       <use xlink:href="#DejaVuSans-32" x="63.623047"/>
       <use xlink:href="#DejaVuSans-30" x="127.246094"/>
       <use xlink:href="#DejaVuSans-30" x="190.869141"/>
      </g>
     </g>
    </g>
   </g>
   <g id="LineCollection_1">
    <path d="M 356.788939 61.304851 
L 353.787113 63.296677 
L 351.046385 65.314781 
L 348.558335 67.358653 
L 346.314634 69.42778 
L 344.307052 71.521648 
L 342.527449 73.639745 
L 340.96778 75.781554 
L 339.620095 77.94656 
L 338.476538 80.134246 
L 337.529344 82.344094 
L 336.770847 84.575584 
L 336.19347 86.828198 
L 335.789733 89.101415 
L 335.55225 91.394712 
L 335.473727 93.707567 
L 335.546965 96.039457 
L 335.764861 98.389857 
L 336.120402 100.758241 
L 336.606672 103.144084 
L 337.216848 105.546857 
L 337.944201 107.966034 
L 338.782096 110.401083 
L 339.723993 112.851475 
L 340.763443 115.31668 
L 341.894095 117.796164 
L 343.109688 120.289396 
L 344.404059 122.79584 
L 345.771136 125.314962 
L 347.204942 127.846226 
L 348.699593 130.389096 
L 350.249301 132.943033 
L 351.848371 135.507499 
L 353.491201 138.081954 
L 355.172284 140.665858 
L 356.886207 143.258669 
L 358.627651 145.859845 
L 360.39139 148.468842 
L 362.172294 151.085116 
L 363.965325 153.708121 
L 365.765539 156.337312 
L 367.568088 158.972141 
L 369.368215 161.61206 
L 371.161261 164.25652 
L 372.942657 166.90497 
L 374.707929 169.556861 
L 376.4527 172.211639 
L 378.172682 174.868753 
L 379.863685 177.527648 
L 381.521612 180.187769 
L 383.142458 182.848561 
L 384.722314 185.509468 
L 386.257365 188.169931 
L 387.74389 190.829392 
L 389.178259 193.487291 
L 390.556942 196.143069 
L 391.876496 198.796163 
L 393.133578 201.446012 
L 394.324934 204.092052 
L 395.447409 206.733719 
L 396.497937 209.370448 
L 397.473549 212.001672 
L 398.37137 214.626825 
L 399.188618 217.245339 
L 399.922606 219.856645 
L 400.570738 222.460172 
L 401.130516 225.055351 
L 401.599534 227.641609 
L 401.97548 230.218373 
L 402.256135 232.78507 
L 402.439378 235.341126 
L 402.523176 237.885964 
L 402.505596 240.419009 
L 402.384793 242.939682 
L 402.159022 245.447406 
L 401.826627 247.941601 
L 401.386049 250.421687 
L 400.835822 252.887083 
L 400.174574 255.337206 
L 399.401027 257.771473 
L 398.513996 260.189301 
L 397.512392 262.590104 
L 396.395219 264.973297 
L 395.161574 267.338291 
L 393.81065 269.684501 
L 392.341732 272.011336 
L 390.754201 274.318208 
L 389.047529 276.604525 
L 387.221285 278.869696 
L 385.275131 281.113129 
L 383.208822 283.334229 
L 381.022209 285.532402 
L 378.715234 287.707054 
L 376.287936 289.857587 
L 373.740446 291.983405 
L 371.072991 294.083908 
L 368.285889 296.158499 
L 365.379554 298.206576 
L 362.354494 300.22754 
L 359.211311 302.220787 
" clip-path="url(#p5088c90f94)" style="fill: none; stroke: #1f77b4; stroke-width: 1.5"/>
    <path d="M 353.136261 55.8 
L 349.869897 57.976821 
L 346.852857 60.209905 
L 344.079613 62.502059 
L 341.545931 64.85559 
L 339.248919 67.271856 
L 337.186919 69.750763 
L 335.359176 72.29028 
L 333.765268 74.886097 
L 332.404349 77.531561 
L 331.27434 80.217979 
L 330.37125 82.935277 
L 329.688795 85.672929 
L 329.218404 88.420917 
L 328.949584 91.170547 
L 328.870513 93.914957 
L 328.968703 96.649299 
L 329.231597 99.370628 
L 329.647017 102.077613 
L 330.203445 104.770161 
L 330.89015 107.449052 
L 332.535114 112.550656 
L 333.636535 115.418245 
L 335.955829 120.69141 
L 338.597509 125.946937 
L 341.50947 131.193918 
L 344.643373 136.438603 
L 349.66107 144.30893 
L 356.718321 154.813336 
L 369.197719 173.201502 
L 374.272935 181.047571 
L 379.020628 188.846819 
L 381.953254 194.010018 
L 384.667152 199.136243 
L 387.13653 204.21823 
L 389.337814 209.248455 
L 391.249851 214.219359 
L 392.854101 219.123692 
L 394.134761 223.954997 
L 395.07874 228.708242 
L 395.675399 233.380531 
L 395.915952 237.971785 
L 395.792524 242.485165 
L 395.296962 246.927008 
L 394.419662 251.306108 
L 393.148776 255.632341 
L 391.470099 259.914955 
L 389.367714 264.160943 
L 386.825213 268.373947 
L 383.827088 272.553893 
L 380.359952 276.697289 
L 376.41334 280.797948 
L 371.980077 284.847861 
L 367.056293 288.837992 
L 361.641216 292.758913 
L 355.673258 296.641574 
L 355.673258 296.641574 
" clip-path="url(#p5088c90f94)" style="fill: none; stroke: #8c564b; stroke-width: 1.5"/>
    <path d="M 360.441618 66.809702 
L 357.574321 68.712262 
L 355.104607 70.530809 
L 352.898014 72.34347 
L 350.94272 74.14663 
L 349.225759 75.937387 
L 347.73304 77.714031 
L 346.449571 79.476551 
L 345.359907 81.227056 
L 344.448831 82.969992 
L 343.702153 84.712028 
L 343.107472 86.461571 
L 342.654722 88.227961 
L 342.336355 90.020508 
L 342.147151 91.847585 
L 342.083718 93.715964 
L 342.143847 95.63046 
L 342.32587 97.593914 
L 343.04863 101.670524 
L 344.233474 105.939366 
L 345.852592 110.382281 
L 347.869725 114.977555 
L 350.242927 119.704293 
L 352.927213 124.544128 
L 355.876477 129.481538 
L 360.696783 137.042886 
L 367.629926 147.362249 
L 380.2288 165.928441 
L 385.47036 174.033276 
L 390.444586 182.207794 
L 393.557777 187.691852 
L 396.472171 193.201045 
L 399.157615 198.733741 
L 401.584698 204.288494 
L 403.724541 209.863788 
L 405.548624 215.457666 
L 407.028684 221.067198 
L 408.136793 226.687833 
L 408.845694 232.312668 
L 409.126067 237.668538 
L 409.104492 240.735258 
L 408.964651 243.53207 
L 408.707596 246.320117 
L 408.331257 249.097124 
L 407.833889 251.860716 
L 407.214087 254.608472 
L 406.470791 257.337981 
L 405.603275 260.046898 
L 404.611131 262.732997 
L 403.494229 265.39422 
L 402.252685 268.028708 
L 400.886809 270.634825 
L 399.397065 273.211173 
L 397.784025 275.756587 
L 396.048328 278.270126 
L 394.190654 280.751055 
L 392.211689 283.19882 
L 388.045808 287.834119 
L 385.553785 290.339716 
L 380.66899 294.802464 
L 377.827653 297.173798 
L 372.091446 301.558793 
L 365.892548 305.806753 
L 362.749365 307.8 
L 362.749365 307.8 
" clip-path="url(#p5088c90f94)" style="fill: none; stroke: #17becf; stroke-width: 1.5"/>
   </g>
   <g id="patch_3">
    <path d="M 324.857564 320.4 
L 324.857564 43.2 
" style="fill: none; stroke: #000000; stroke-width: 0.8; stroke-linejoin: miter; stroke-linecap: square"/>
   </g>
   <g id="patch_4">
    <path d="M 413.142436 320.4 
L 413.142436 43.2 
" style="fill: none; stroke: #000000; stroke-width: 0.8; stroke-linejoin: miter; stroke-linecap: square"/>
   </g>
   <g id="patch_5">
    <path d="M 324.857564 320.4 
L 413.142436 320.4 
" style="fill: none; stroke: #000000; stroke-width: 0.8; stroke-linejoin: miter; stroke-linecap: square"/>
   </g>
   <g id="patch_6">
    <path d="M 324.857564 43.2 
L 413.142436 43.2 
" style="fill: none; stroke: #000000; stroke-width: 0.8; stroke-linejoin: miter; stroke-linecap: square"/>
   </g>
  </g>
 </g>
 <defs>
  <clipPath id="p5088c90f94">
   <rect x="324.857564" y="43.2" width="88.284872" height="277.2"/>
  </clipPath>
 </defs>
</svg>
