<?xml version="1.0" encoding="utf-8" standalone="no"?>
<!DOCTYPE svg PUBLIC "-//W3C//DTD SVG 1.1//EN"
  "http://www.w3.org/Graphics/SVG/1.1/DTD/svg11.dtd">
<svg xmlns:xlink="http://www.w3.org/1999/xlink" width="720pt" height="360pt" viewBox="0 0 720 360" xmlns="http://www.w3.org/2000/svg" version="1.1">
 <metadata>
  <rdf:RDF xmlns:dc="http://purl.org/dc/elements/1.1/" xmlns:cc="http://creativecommons.org/ns#" xmlns:rdf="http://www.w3.org/1999/02/22-rdf-syntax-ns#">
   <cc:Work>
    <dc:type rdf:resource="http://purl.org/dc/dcmitype/StillImage"/>
    <dc:date>2024-01-06T20:22:25.801907</dc:date>
    <dc:format>image/svg+xml</dc:format>
    <dc:creator>
     <cc:Agent>
      <dc:title>Matplotlib v3.7.1, https://matplotlib.org/</dc:title>
     </cc:Agent>
    </dc:creator>
   </cc:Work>
  </rdf:RDF>
 </metadata>
 <defs>
  <style type="text/css">*{stroke-linejoin: round; stroke-linecap: butt}</style>
 </defs>
 <g id="figure_1">
  <g id="patch_1">
   <path d="M 0 360 
L 720 360 
L 720 0 
L 0 0 
z
" style="fill: #ffffff"/>
  </g>
  <g id="axes_1">
   <g id="patch_2">
    <path d="M 104.945379 320.4 
L 633.054621 320.4 
L 633.054621 43.2 
L 104.945379 43.2 
z
" style="fill: #ffffff"/>
   </g>
   <g id="matplotlib.axis_1">
    <g id="xtick_1">
     <g id="line2d_1">
      <defs>
       <path id="m859668630c" d="M 0 0 
L 0 3.5 
" style="stroke: #000000; stroke-width: 0.8"/>
      </defs>
      <g>
       <use xlink:href="#m859668630c" x="131.354523" y="320.4" style="stroke: #000000; stroke-width: 0.8"/>
      </g>
     </g>
     <g id="text_1">
      <!-- 600 -->
      <g transform="translate(121.810773 334.998438) scale(0.1 -0.1)">
       <defs>
        <path id="DejaVuSans-36" d="M 2113 2584 
Q 1688 2584 1439 2293 
Q 1191 2003 1191 1497 
Q 1191 994 1439 701 
Q 1688 409 2113 409 
Q 2538 409 2786 701 
Q 3034 994 3034 1497 
Q 3034 2003 2786 2293 
Q 2538 2584 2113 2584 
z
M 3366 4563 
L 3366 3988 
Q 3128 4100 2886 4159 
Q 2644 4219 2406 4219 
Q 1781 4219 1451 3797 
Q 1122 3375 1075 2522 
Q 1259 2794 1537 2939 
Q 1816 3084 2150 3084 
Q 2853 3084 3261 2657 
Q 3669 2231 3669 1497 
Q 3669 778 3244 343 
Q 2819 -91 2113 -91 
Q 1303 -91 875 529 
Q 447 1150 447 2328 
Q 447 3434 972 4092 
Q 1497 4750 2381 4750 
Q 2619 4750 2861 4703 
Q 3103 4656 3366 4563 
z
" transform="scale(0.015625)"/>
        <path id="DejaVuSans-30" d="M 2034 4250 
Q 1547 4250 1301 3770 
Q 1056 3291 1056 2328 
Q 1056 1369 1301 889 
Q 1547 409 2034 409 
Q 2525 409 2770 889 
Q 3016 1369 3016 2328 
Q 3016 3291 2770 3770 
Q 2525 4250 2034 4250 
z
M 2034 4750 
Q 2819 4750 3233 4129 
Q 3647 3509 3647 2328 
Q 3647 1150 3233 529 
Q 2819 -91 2034 -91 
Q 1250 -91 836 529 
Q 422 1150 422 2328 
Q 422 3509 836 4129 
Q 1250 4750 2034 4750 
z
" transform="scale(0.015625)"/>
       </defs>
       <use xlink:href="#DejaVuSans-36"/>
       <use xlink:href="#DejaVuSans-30" x="63.623047"/>
       <use xlink:href="#DejaVuSans-30" x="127.246094"/>
      </g>
     </g>
    </g>
    <g id="xtick_2">
     <g id="line2d_2">
      <g>
       <use xlink:href="#m859668630c" x="239.356837" y="320.4" style="stroke: #000000; stroke-width: 0.8"/>
      </g>
     </g>
     <g id="text_2">
      <!-- 800 -->
      <g transform="translate(229.813087 334.998438) scale(0.1 -0.1)">
       <defs>
        <path id="DejaVuSans-38" d="M 2034 2216 
Q 1584 2216 1326 1975 
Q 1069 1734 1069 1313 
Q 1069 891 1326 650 
Q 1584 409 2034 409 
Q 2484 409 2743 651 
Q 3003 894 3003 1313 
Q 3003 1734 2745 1975 
Q 2488 2216 2034 2216 
z
M 1403 2484 
Q 997 2584 770 2862 
Q 544 3141 544 3541 
Q 544 4100 942 4425 
Q 1341 4750 2034 4750 
Q 2731 4750 3128 4425 
Q 3525 4100 3525 3541 
Q 3525 3141 3298 2862 
Q 3072 2584 2669 2484 
Q 3125 2378 3379 2068 
Q 3634 1759 3634 1313 
Q 3634 634 3220 271 
Q 2806 -91 2034 -91 
Q 1263 -91 848 271 
Q 434 634 434 1313 
Q 434 1759 690 2068 
Q 947 2378 1403 2484 
z
M 1172 3481 
Q 1172 3119 1398 2916 
Q 1625 2713 2034 2713 
Q 2441 2713 2670 2916 
Q 2900 3119 2900 3481 
Q 2900 3844 2670 4047 
Q 2441 4250 2034 4250 
Q 1625 4250 1398 4047 
Q 1172 3844 1172 3481 
z
" transform="scale(0.015625)"/>
       </defs>
       <use xlink:href="#DejaVuSans-38"/>
       <use xlink:href="#DejaVuSans-30" x="63.623047"/>
       <use xlink:href="#DejaVuSans-30" x="127.246094"/>
      </g>
     </g>
    </g>
    <g id="xtick_3">
     <g id="line2d_3">
      <g>
       <use xlink:href="#m859668630c" x="347.359151" y="320.4" style="stroke: #000000; stroke-width: 0.8"/>
      </g>
     </g>
     <g id="text_3">
      <!-- 1000 -->
      <g transform="translate(334.634151 334.998438) scale(0.1 -0.1)">
       <defs>
        <path id="DejaVuSans-31" d="M 794 531 
L 1825 531 
L 1825 4091 
L 703 3866 
L 703 4441 
L 1819 4666 
L 2450 4666 
L 2450 531 
L 3481 531 
L 3481 0 
L 794 0 
L 794 531 
z
" transform="scale(0.015625)"/>
       </defs>
       <use xlink:href="#DejaVuSans-31"/>
       <use xlink:href="#DejaVuSans-30" x="63.623047"/>
       <use xlink:href="#DejaVuSans-30" x="127.246094"/>
       <use xlink:href="#DejaVuSans-30" x="190.869141"/>
      </g>
     </g>
    </g>
    <g id="xtick_4">
     <g id="line2d_4">
      <g>
       <use xlink:href="#m859668630c" x="455.361465" y="320.4" style="stroke: #000000; stroke-width: 0.8"/>
      </g>
     </g>
     <g id="text_4">
      <!-- 1200 -->
      <g transform="translate(442.636465 334.998438) scale(0.1 -0.1)">
       <defs>
        <path id="DejaVuSans-32" d="M 1228 531 
L 3431 531 
L 3431 0 
L 469 0 
L 469 531 
Q 828 903 1448 1529 
Q 2069 2156 2228 2338 
Q 2531 2678 2651 2914 
Q 2772 3150 2772 3378 
Q 2772 3750 2511 3984 
Q 2250 4219 1831 4219 
Q 1534 4219 1204 4116 
Q 875 4013 500 3803 
L 500 4441 
Q 881 4594 1212 4672 
Q 1544 4750 1819 4750 
Q 2544 4750 2975 4387 
Q 3406 4025 3406 3419 
Q 3406 3131 3298 2873 
Q 3191 2616 2906 2266 
Q 2828 2175 2409 1742 
Q 1991 1309 1228 531 
z
" transform="scale(0.015625)"/>
       </defs>
       <use xlink:href="#DejaVuSans-31"/>
       <use xlink:href="#DejaVuSans-32" x="63.623047"/>
       <use xlink:href="#DejaVuSans-30" x="127.246094"/>
       <use xlink:href="#DejaVuSans-30" x="190.869141"/>
      </g>
     </g>
    </g>
    <g id="xtick_5">
     <g id="line2d_5">
      <g>
       <use xlink:href="#m859668630c" x="563.363779" y="320.4" style="stroke: #000000; stroke-width: 0.8"/>
      </g>
     </g>
     <g id="text_5">
      <!-- 1400 -->
      <g transform="translate(550.638779 334.998438) scale(0.1 -0.1)">
       <defs>
        <path id="DejaVuSans-34" d="M 2419 4116 
L 825 1625 
L 2419 1625 
L 2419 4116 
z
M 2253 4666 
L 3047 4666 
L 3047 1625 
L 3713 1625 
L 3713 1100 
L 3047 1100 
L 3047 0 
L 2419 0 
L 2419 1100 
L 313 1100 
L 313 1709 
L 2253 4666 
z
" transform="scale(0.015625)"/>
       </defs>
       <use xlink:href="#DejaVuSans-31"/>
       <use xlink:href="#DejaVuSans-34" x="63.623047"/>
       <use xlink:href="#DejaVuSans-30" x="127.246094"/>
       <use xlink:href="#DejaVuSans-30" x="190.869141"/>
      </g>
     </g>
    </g>
   </g>
   <g id="matplotlib.axis_2">
    <g id="ytick_1">
     <g id="line2d_6">
      <defs>
       <path id="mace577b58c" d="M 0 0 
L -3.5 0 
" style="stroke: #000000; stroke-width: 0.8"/>
      </defs>
      <g>
       <use xlink:href="#mace577b58c" x="104.945379" y="290.733299" style="stroke: #000000; stroke-width: 0.8"/>
      </g>
     </g>
     <g id="text_6">
      <!-- 400 -->
      <g transform="translate(78.857879 294.532518) scale(0.1 -0.1)">
       <use xlink:href="#DejaVuSans-34"/>
       <use xlink:href="#DejaVuSans-30" x="63.623047"/>
       <use xlink:href="#DejaVuSans-30" x="127.246094"/>
      </g>
     </g>
    </g>
    <g id="ytick_2">
     <g id="line2d_7">
      <g>
       <use xlink:href="#mace577b58c" x="104.945379" y="236.732142" style="stroke: #000000; stroke-width: 0.8"/>
      </g>
     </g>
     <g id="text_7">
      <!-- 500 -->
      <g transform="translate(78.857879 240.531361) scale(0.1 -0.1)">
       <defs>
        <path id="DejaVuSans-35" d="M 691 4666 
L 3169 4666 
L 3169 4134 
L 1269 4134 
L 1269 2991 
Q 1406 3038 1543 3061 
Q 1681 3084 1819 3084 
Q 2600 3084 3056 2656 
Q 3513 2228 3513 1497 
Q 3513 744 3044 326 
Q 2575 -91 1722 -91 
Q 1428 -91 1123 -41 
Q 819 9 494 109 
L 494 744 
Q 775 591 1075 516 
Q 1375 441 1709 441 
Q 2250 441 2565 725 
Q 2881 1009 2881 1497 
Q 2881 1984 2565 2268 
Q 2250 2553 1709 2553 
Q 1456 2553 1204 2497 
Q 953 2441 691 2322 
L 691 4666 
z
" transform="scale(0.015625)"/>
       </defs>
       <use xlink:href="#DejaVuSans-35"/>
       <use xlink:href="#DejaVuSans-30" x="63.623047"/>
       <use xlink:href="#DejaVuSans-30" x="127.246094"/>
      </g>
     </g>
    </g>
    <g id="ytick_3">
     <g id="line2d_8">
      <g>
       <use xlink:href="#mace577b58c" x="104.945379" y="182.730985" style="stroke: #000000; stroke-width: 0.8"/>
      </g>
     </g>
     <g id="text_8">
      <!-- 600 -->
      <g transform="translate(78.857879 186.530204) scale(0.1 -0.1)">
       <use xlink:href="#DejaVuSans-36"/>
       <use xlink:href="#DejaVuSans-30" x="63.623047"/>
       <use xlink:href="#DejaVuSans-30" x="127.246094"/>
      </g>
     </g>
    </g>
    <g id="ytick_4">
     <g id="line2d_9">
      <g>
       <use xlink:href="#mace577b58c" x="104.945379" y="128.729828" style="stroke: #000000; stroke-width: 0.8"/>
      </g>
     </g>
     <g id="text_9">
      <!-- 700 -->
      <g transform="translate(78.857879 132.529047) scale(0.1 -0.1)">
       <defs>
        <path id="DejaVuSans-37" d="M 525 4666 
L 3525 4666 
L 3525 4397 
L 1831 0 
L 1172 0 
L 2766 4134 
L 525 4134 
L 525 4666 
z
" transform="scale(0.015625)"/>
       </defs>
       <use xlink:href="#DejaVuSans-37"/>
       <use xlink:href="#DejaVuSans-30" x="63.623047"/>
       <use xlink:href="#DejaVuSans-30" x="127.246094"/>
      </g>
     </g>
    </g>
    <g id="ytick_5">
     <g id="line2d_10">
      <g>
       <use xlink:href="#mace577b58c" x="104.945379" y="74.728671" style="stroke: #000000; stroke-width: 0.8"/>
      </g>
     </g>
     <g id="text_10">
      <!-- 800 -->
      <g transform="translate(78.857879 78.52789) scale(0.1 -0.1)">
       <use xlink:href="#DejaVuSans-38"/>
       <use xlink:href="#DejaVuSans-30" x="63.623047"/>
       <use xlink:href="#DejaVuSans-30" x="127.246094"/>
      </g>
     </g>
    </g>
   </g>
   <g id="LineCollection_1">
    <path d="M 136.214627 283.713149 
L 139.918005 281.855298 
L 143.815455 280.256174 
L 147.898479 278.901221 
L 152.158707 277.776147 
L 156.587898 276.866921 
L 161.177939 276.159776 
L 165.920844 275.641208 
L 170.808757 275.297974 
L 175.833947 275.117096 
L 180.988816 275.085856 
L 186.265888 275.1918 
L 191.65782 275.422738 
L 197.157395 275.766741 
L 202.757524 276.212143 
L 208.451246 276.74754 
L 214.23173 277.361793 
L 220.09227 278.044022 
L 226.026291 278.783614 
L 232.027343 279.570215 
L 238.089108 280.393736 
L 244.205392 281.244349 
L 250.370132 282.11249 
L 256.577392 282.988857 
L 262.821364 283.86441 
L 269.096368 284.730375 
L 275.396853 285.578236 
L 281.717395 286.399742 
L 288.052698 287.186906 
L 294.397596 287.932001 
L 300.747048 288.627564 
L 307.096144 289.266395 
L 313.4401 289.841557 
L 319.774261 290.346373 
L 326.0941 290.774432 
L 332.395219 291.119583 
L 338.673345 291.375941 
L 344.924338 291.53788 
L 351.144181 291.600039 
L 357.328989 291.557319 
L 363.475002 291.404884 
L 369.578591 291.138159 
L 375.636252 290.752835 
L 381.644613 290.244862 
L 387.600425 289.610455 
L 393.500572 288.846091 
L 399.342064 287.94851 
L 405.122037 286.914714 
L 410.83776 285.741968 
L 416.486624 284.427801 
L 422.066154 282.970002 
L 427.574 281.366625 
L 433.007939 279.615985 
L 438.365878 277.716661 
L 443.645852 275.667494 
L 448.846024 273.467588 
L 453.964685 271.116309 
L 459.000252 268.613287 
L 463.951274 265.958414 
L 468.816426 263.151843 
L 473.594509 260.193993 
L 478.284457 257.085542 
L 482.885327 253.827434 
L 487.396307 250.420874 
L 491.816713 246.86733 
L 496.145988 243.168532 
L 500.383704 239.326474 
L 504.529561 235.343411 
L 508.583386 231.221862 
L 512.545134 226.964609 
L 516.414891 222.574695 
L 520.192868 218.055428 
L 523.879405 213.410376 
L 527.474971 208.643371 
L 530.98016 203.758508 
L 534.395699 198.760145 
L 537.722439 193.652901 
L 540.961361 188.44166 
L 544.113574 183.131566 
L 547.180313 177.728028 
L 550.162944 172.236716 
L 553.06296 166.663564 
L 555.881982 161.014768 
L 558.621758 155.296787 
L 561.284166 149.516341 
L 563.87121 143.680416 
L 566.385025 137.796258 
L 568.827871 131.871377 
L 571.202138 125.913544 
L 573.510343 119.930795 
L 575.755132 113.931426 
L 577.939279 107.923999 
L 580.065685 101.917336 
L 582.137379 95.920523 
L 584.157521 89.942907 
L 586.129396 83.9941 
L 588.056418 78.083975 
L 589.942129 72.222669 
L 591.790199 66.42058 
L 593.604427 60.68837 
" clip-path="url(#p500ffc88b4)" style="fill: none; stroke: #1f77b4; stroke-width: 1.5"/>
    <path d="M 143.478909 298.19353 
L 146.634497 296.610486 
L 149.448134 295.456051 
L 152.52244 294.435841 
L 155.85867 293.554784 
L 159.451868 292.817171 
L 163.292718 292.225447 
L 167.369184 291.779744 
L 171.667783 291.477892 
L 176.174484 291.315677 
L 180.875295 291.287188 
L 185.756618 291.385188 
L 196.009416 291.926943 
L 206.836918 292.867553 
L 218.153796 294.12811 
L 235.88289 296.443175 
L 279.719856 302.476467 
L 292.633451 304.036008 
L 305.633374 305.400569 
L 318.679478 306.509686 
L 331.734253 307.306441 
L 344.762445 307.737418 
L 357.440886 307.75728 
L 364.182276 307.589785 
L 370.607008 307.305831 
L 377.001031 306.895592 
L 383.360549 306.354077 
L 389.681787 305.676543 
L 395.960979 304.858512 
L 402.194365 303.895786 
L 408.378174 302.784459 
L 414.508623 301.520942 
L 420.581916 300.101978 
L 426.594241 298.524669 
L 432.541784 296.786494 
L 438.420734 294.88533 
L 444.227304 292.819473 
L 449.957749 290.587655 
L 455.608393 288.189056 
L 461.175658 285.623311 
L 466.656095 282.890518 
L 472.046416 279.99123 
L 477.343531 276.926448 
L 482.544572 273.697608 
L 487.646927 270.306563 
L 492.648264 266.755555 
L 497.546546 263.047192 
L 502.340049 259.184417 
L 507.027368 255.170483 
L 511.607418 251.008917 
L 516.079435 246.703501 
L 520.442962 242.258242 
L 524.697843 237.677355 
L 528.844204 232.965241 
L 532.882437 228.12648 
L 536.813182 223.165818 
L 540.63731 218.088161 
L 544.355902 212.898573 
L 547.97023 207.60228 
L 551.481746 202.204668 
L 554.892062 196.711293 
L 558.202937 191.127883 
L 561.416268 185.460352 
L 564.534077 179.714803 
L 570.377527 168.248744 
L 573.336328 162.074151 
L 578.768973 150.045 
L 583.877226 137.868723 
L 588.683333 125.608086 
L 593.21093 113.330283 
L 597.484984 101.107263 
L 603.478292 83.045531 
L 609.049655 65.576741 
L 609.049655 65.576741 
" clip-path="url(#p500ffc88b4)" style="fill: none; stroke: #8c564b; stroke-width: 1.5"/>
    <path d="M 128.950345 269.232767 
L 132.653723 267.374917 
L 133.7685 266.867475 
L 137.66595 265.268351 
L 138.712982 264.880349 
L 142.796006 263.525396 
L 143.761978 263.237869 
L 148.022206 262.112795 
L 148.901025 261.906719 
L 153.330216 260.997493 
L 154.121163 260.855473 
L 158.711204 260.148328 
L 159.417158 260.055401 
L 164.160063 259.536833 
L 164.786035 259.480656 
L 169.673948 259.137422 
L 170.226013 259.108111 
L 175.251204 258.927233 
L 175.735771 258.917046 
L 180.890639 258.885806 
L 181.313995 258.888773 
L 186.591067 258.994717 
L 186.959118 259.006292 
L 192.35105 259.23723 
L 192.669188 259.253991 
L 198.168763 259.597994 
L 198.44182 259.617392 
L 204.041949 260.062793 
L 204.274199 260.082948 
L 209.967922 260.618345 
L 210.163108 260.637892 
L 215.943592 261.252144 
L 216.104974 261.270112 
L 221.965514 261.952341 
L 222.095911 261.968057 
L 228.029932 262.707648 
L 228.131776 262.72067 
L 234.132829 263.507271 
L 234.208207 263.517331 
L 240.269971 264.340852 
L 240.320669 264.347821 
L 246.436953 265.198434 
L 246.464493 265.202288 
L 252.629233 266.070429 
L 258.834612 266.946529 
L 265.053546 267.818572 
L 271.28403 268.678393 
L 277.521203 269.517734 
L 283.760211 270.328643 
L 289.996219 271.103469 
L 296.224425 271.834861 
L 302.44008 272.515767 
L 308.638492 273.139437 
L 314.815048 273.699421 
L 320.965217 274.189573 
L 327.084566 274.604053 
L 333.168772 274.937323 
L 339.213632 275.184155 
L 345.215077 275.33963 
L 351.169181 275.399133 
L 357.072178 275.35836 
L 362.920474 275.213308 
L 368.71066 274.960279 
L 374.439525 274.595869 
L 380.104072 274.116964 
L 385.701531 273.520728 
L 391.229371 272.804597 
L 396.68531 271.966258 
L 402.067326 271.00364 
L 407.373665 269.914892 
L 412.60284 268.698362 
L 417.753637 267.352581 
L 422.825107 265.876236 
L 427.816557 264.268152 
L 432.727537 262.527269 
L 437.55782 260.652628 
L 442.307381 258.643351 
L 446.976367 256.498632 
L 451.565069 254.217733 
L 456.073886 251.799982 
L 460.503297 249.244778 
L 464.853825 246.551604 
L 469.12601 243.720042 
L 473.32038 240.749797 
L 477.437432 237.64072 
L 481.477613 234.392837 
L 485.441311 231.006377 
L 489.328849 227.481802 
L 493.140486 223.819835 
L 496.876422 220.021486 
L 500.536811 216.088071 
L 504.121769 212.021237 
L 507.631396 207.822974 
L 511.065789 203.495624 
L 514.425063 199.041894 
L 517.70937 194.464856 
L 520.918916 189.767946 
L 524.053978 184.954969 
L 527.11492 180.030087 
L 530.102209 174.997817 
L 533.016424 169.863024 
L 535.858271 164.63091 
L 538.628589 159.307007 
L 541.32836 153.897166 
L 543.958714 148.407551 
L 546.520936 142.844624 
L 549.016467 137.215138 
L 551.44691 131.526129 
L 553.814034 125.784905 
L 556.119771 119.999035 
L 558.366225 114.176344 
L 560.555666 108.324898 
L 562.690538 102.452998 
L 564.77346 96.569168 
L 566.807226 90.682145 
L 568.794811 84.800864 
L 570.739376 78.934447 
L 572.64427 73.092185 
L 574.513045 67.283522 
L 576.349458 61.518032 
L 578.159198 55.8 
" clip-path="url(#p500ffc88b4)" style="fill: none; stroke: #17becf; stroke-width: 1.5"/>
   </g>
   <g id="patch_3">
    <path d="M 104.945379 320.4 
L 104.945379 43.2 
" style="fill: none; stroke: #000000; stroke-width: 0.8; stroke-linejoin: miter; stroke-linecap: square"/>
   </g>
   <g id="patch_4">
    <path d="M 633.054621 320.4 
L 633.054621 43.2 
" style="fill: none; stroke: #000000; stroke-width: 0.8; stroke-linejoin: miter; stroke-linecap: square"/>
   </g>
   <g id="patch_5">
    <path d="M 104.945379 320.4 
L 633.054621 320.4 
" style="fill: none; stroke: #000000; stroke-width: 0.8; stroke-linejoin: miter; stroke-linecap: square"/>
   </g>
   <g id="patch_6">
    <path d="M 104.945379 43.2 
L 633.054621 43.2 
" style="fill: none; stroke: #000000; stroke-width: 0.8; stroke-linejoin: miter; stroke-linecap: square"/>
   </g>
  </g>
 </g>
 <defs>
  <clipPath id="p500ffc88b4">
   <rect x="104.945379" y="43.2" width="528.109241" height="277.2"/>
  </clipPath>
 </defs>
</svg>
