<?xml version="1.0" encoding="utf-8" standalone="no"?>
<!DOCTYPE svg PUBLIC "-//W3C//DTD SVG 1.1//EN"
  "http://www.w3.org/Graphics/SVG/1.1/DTD/svg11.dtd">
<svg xmlns:xlink="http://www.w3.org/1999/xlink" width="1440pt" height="1080pt" viewBox="0 0 1440 1080" xmlns="http://www.w3.org/2000/svg" version="1.1">
 <metadata>
  <rdf:RDF xmlns:dc="http://purl.org/dc/elements/1.1/" xmlns:cc="http://creativecommons.org/ns#" xmlns:rdf="http://www.w3.org/1999/02/22-rdf-syntax-ns#">
   <cc:Work>
    <dc:type rdf:resource="http://purl.org/dc/dcmitype/StillImage"/>
    <dc:date>2023-12-11T12:06:52.633249</dc:date>
    <dc:format>image/svg+xml</dc:format>
    <dc:creator>
     <cc:Agent>
      <dc:title>Matplotlib v3.7.1, https://matplotlib.org/</dc:title>
     </cc:Agent>
    </dc:creator>
   </cc:Work>
  </rdf:RDF>
 </metadata>
 <defs>
  <style type="text/css">*{stroke-linejoin: round; stroke-linecap: butt}</style>
 </defs>
 <g id="figure_1">
  <g id="patch_1">
   <path d="M 0 1080 
L 1440 1080 
L 1440 0 
L 0 0 
z
" style="fill: #ffffff"/>
  </g>
  <g id="axes_1">
   <g id="patch_2">
    <path d="M 180 872.49899 
L 1296 872.49899 
L 1296 218.30101 
L 180 218.30101 
z
" style="fill: #ffffff"/>
   </g>
   <g id="matplotlib.axis_1">
    <g id="xtick_1">
     <g id="line2d_1">
      <defs>
       <path id="m7583f84272" d="M 0 0 
L 0 3.5 
" style="stroke: #000000; stroke-width: 0.8"/>
      </defs>
      <g>
       <use xlink:href="#m7583f84272" x="240.71976" y="872.49899" style="stroke: #000000; stroke-width: 0.8"/>
      </g>
     </g>
     <g id="text_1">
      <!-- 1000 -->
      <g transform="translate(227.99476 887.097428) scale(0.1 -0.1)">
       <defs>
        <path id="DejaVuSans-31" d="M 794 531 
L 1825 531 
L 1825 4091 
L 703 3866 
L 703 4441 
L 1819 4666 
L 2450 4666 
L 2450 531 
L 3481 531 
L 3481 0 
L 794 0 
L 794 531 
z
" transform="scale(0.015625)"/>
        <path id="DejaVuSans-30" d="M 2034 4250 
Q 1547 4250 1301 3770 
Q 1056 3291 1056 2328 
Q 1056 1369 1301 889 
Q 1547 409 2034 409 
Q 2525 409 2770 889 
Q 3016 1369 3016 2328 
Q 3016 3291 2770 3770 
Q 2525 4250 2034 4250 
z
M 2034 4750 
Q 2819 4750 3233 4129 
Q 3647 3509 3647 2328 
Q 3647 1150 3233 529 
Q 2819 -91 2034 -91 
Q 1250 -91 836 529 
Q 422 1150 422 2328 
Q 422 3509 836 4129 
Q 1250 4750 2034 4750 
z
" transform="scale(0.015625)"/>
       </defs>
       <use xlink:href="#DejaVuSans-31"/>
       <use xlink:href="#DejaVuSans-30" x="63.623047"/>
       <use xlink:href="#DejaVuSans-30" x="127.246094"/>
       <use xlink:href="#DejaVuSans-30" x="190.869141"/>
      </g>
     </g>
    </g>
    <g id="xtick_2">
     <g id="line2d_2">
      <g>
       <use xlink:href="#m7583f84272" x="394.778728" y="872.49899" style="stroke: #000000; stroke-width: 0.8"/>
      </g>
     </g>
     <g id="text_2">
      <!-- 1100 -->
      <g transform="translate(382.053728 887.097428) scale(0.1 -0.1)">
       <use xlink:href="#DejaVuSans-31"/>
       <use xlink:href="#DejaVuSans-31" x="63.623047"/>
       <use xlink:href="#DejaVuSans-30" x="127.246094"/>
       <use xlink:href="#DejaVuSans-30" x="190.869141"/>
      </g>
     </g>
    </g>
    <g id="xtick_3">
     <g id="line2d_3">
      <g>
       <use xlink:href="#m7583f84272" x="548.837697" y="872.49899" style="stroke: #000000; stroke-width: 0.8"/>
      </g>
     </g>
     <g id="text_3">
      <!-- 1200 -->
      <g transform="translate(536.112697 887.097428) scale(0.1 -0.1)">
       <defs>
        <path id="DejaVuSans-32" d="M 1228 531 
L 3431 531 
L 3431 0 
L 469 0 
L 469 531 
Q 828 903 1448 1529 
Q 2069 2156 2228 2338 
Q 2531 2678 2651 2914 
Q 2772 3150 2772 3378 
Q 2772 3750 2511 3984 
Q 2250 4219 1831 4219 
Q 1534 4219 1204 4116 
Q 875 4013 500 3803 
L 500 4441 
Q 881 4594 1212 4672 
Q 1544 4750 1819 4750 
Q 2544 4750 2975 4387 
Q 3406 4025 3406 3419 
Q 3406 3131 3298 2873 
Q 3191 2616 2906 2266 
Q 2828 2175 2409 1742 
Q 1991 1309 1228 531 
z
" transform="scale(0.015625)"/>
       </defs>
       <use xlink:href="#DejaVuSans-31"/>
       <use xlink:href="#DejaVuSans-32" x="63.623047"/>
       <use xlink:href="#DejaVuSans-30" x="127.246094"/>
       <use xlink:href="#DejaVuSans-30" x="190.869141"/>
      </g>
     </g>
    </g>
    <g id="xtick_4">
     <g id="line2d_4">
      <g>
       <use xlink:href="#m7583f84272" x="702.896666" y="872.49899" style="stroke: #000000; stroke-width: 0.8"/>
      </g>
     </g>
     <g id="text_4">
      <!-- 1300 -->
      <g transform="translate(690.171666 887.097428) scale(0.1 -0.1)">
       <defs>
        <path id="DejaVuSans-33" d="M 2597 2516 
Q 3050 2419 3304 2112 
Q 3559 1806 3559 1356 
Q 3559 666 3084 287 
Q 2609 -91 1734 -91 
Q 1441 -91 1130 -33 
Q 819 25 488 141 
L 488 750 
Q 750 597 1062 519 
Q 1375 441 1716 441 
Q 2309 441 2620 675 
Q 2931 909 2931 1356 
Q 2931 1769 2642 2001 
Q 2353 2234 1838 2234 
L 1294 2234 
L 1294 2753 
L 1863 2753 
Q 2328 2753 2575 2939 
Q 2822 3125 2822 3475 
Q 2822 3834 2567 4026 
Q 2313 4219 1838 4219 
Q 1578 4219 1281 4162 
Q 984 4106 628 3988 
L 628 4550 
Q 988 4650 1302 4700 
Q 1616 4750 1894 4750 
Q 2613 4750 3031 4423 
Q 3450 4097 3450 3541 
Q 3450 3153 3228 2886 
Q 3006 2619 2597 2516 
z
" transform="scale(0.015625)"/>
       </defs>
       <use xlink:href="#DejaVuSans-31"/>
       <use xlink:href="#DejaVuSans-33" x="63.623047"/>
       <use xlink:href="#DejaVuSans-30" x="127.246094"/>
       <use xlink:href="#DejaVuSans-30" x="190.869141"/>
      </g>
     </g>
    </g>
    <g id="xtick_5">
     <g id="line2d_5">
      <g>
       <use xlink:href="#m7583f84272" x="856.955634" y="872.49899" style="stroke: #000000; stroke-width: 0.8"/>
      </g>
     </g>
     <g id="text_5">
      <!-- 1400 -->
      <g transform="translate(844.230634 887.097428) scale(0.1 -0.1)">
       <defs>
        <path id="DejaVuSans-34" d="M 2419 4116 
L 825 1625 
L 2419 1625 
L 2419 4116 
z
M 2253 4666 
L 3047 4666 
L 3047 1625 
L 3713 1625 
L 3713 1100 
L 3047 1100 
L 3047 0 
L 2419 0 
L 2419 1100 
L 313 1100 
L 313 1709 
L 2253 4666 
z
" transform="scale(0.015625)"/>
       </defs>
       <use xlink:href="#DejaVuSans-31"/>
       <use xlink:href="#DejaVuSans-34" x="63.623047"/>
       <use xlink:href="#DejaVuSans-30" x="127.246094"/>
       <use xlink:href="#DejaVuSans-30" x="190.869141"/>
      </g>
     </g>
    </g>
    <g id="xtick_6">
     <g id="line2d_6">
      <g>
       <use xlink:href="#m7583f84272" x="1011.014603" y="872.49899" style="stroke: #000000; stroke-width: 0.8"/>
      </g>
     </g>
     <g id="text_6">
      <!-- 1500 -->
      <g transform="translate(998.289603 887.097428) scale(0.1 -0.1)">
       <defs>
        <path id="DejaVuSans-35" d="M 691 4666 
L 3169 4666 
L 3169 4134 
L 1269 4134 
L 1269 2991 
Q 1406 3038 1543 3061 
Q 1681 3084 1819 3084 
Q 2600 3084 3056 2656 
Q 3513 2228 3513 1497 
Q 3513 744 3044 326 
Q 2575 -91 1722 -91 
Q 1428 -91 1123 -41 
Q 819 9 494 109 
L 494 744 
Q 775 591 1075 516 
Q 1375 441 1709 441 
Q 2250 441 2565 725 
Q 2881 1009 2881 1497 
Q 2881 1984 2565 2268 
Q 2250 2553 1709 2553 
Q 1456 2553 1204 2497 
Q 953 2441 691 2322 
L 691 4666 
z
" transform="scale(0.015625)"/>
       </defs>
       <use xlink:href="#DejaVuSans-31"/>
       <use xlink:href="#DejaVuSans-35" x="63.623047"/>
       <use xlink:href="#DejaVuSans-30" x="127.246094"/>
       <use xlink:href="#DejaVuSans-30" x="190.869141"/>
      </g>
     </g>
    </g>
    <g id="xtick_7">
     <g id="line2d_7">
      <g>
       <use xlink:href="#m7583f84272" x="1165.073572" y="872.49899" style="stroke: #000000; stroke-width: 0.8"/>
      </g>
     </g>
     <g id="text_7">
      <!-- 1600 -->
      <g transform="translate(1152.348572 887.097428) scale(0.1 -0.1)">
       <defs>
        <path id="DejaVuSans-36" d="M 2113 2584 
Q 1688 2584 1439 2293 
Q 1191 2003 1191 1497 
Q 1191 994 1439 701 
Q 1688 409 2113 409 
Q 2538 409 2786 701 
Q 3034 994 3034 1497 
Q 3034 2003 2786 2293 
Q 2538 2584 2113 2584 
z
M 3366 4563 
L 3366 3988 
Q 3128 4100 2886 4159 
Q 2644 4219 2406 4219 
Q 1781 4219 1451 3797 
Q 1122 3375 1075 2522 
Q 1259 2794 1537 2939 
Q 1816 3084 2150 3084 
Q 2853 3084 3261 2657 
Q 3669 2231 3669 1497 
Q 3669 778 3244 343 
Q 2819 -91 2113 -91 
Q 1303 -91 875 529 
Q 447 1150 447 2328 
Q 447 3434 972 4092 
Q 1497 4750 2381 4750 
Q 2619 4750 2861 4703 
Q 3103 4656 3366 4563 
z
" transform="scale(0.015625)"/>
       </defs>
       <use xlink:href="#DejaVuSans-31"/>
       <use xlink:href="#DejaVuSans-36" x="63.623047"/>
       <use xlink:href="#DejaVuSans-30" x="127.246094"/>
       <use xlink:href="#DejaVuSans-30" x="190.869141"/>
      </g>
     </g>
    </g>
   </g>
   <g id="matplotlib.axis_2">
    <g id="ytick_1">
     <g id="line2d_8">
      <defs>
       <path id="mba162b28c9" d="M 0 0 
L -3.5 0 
" style="stroke: #000000; stroke-width: 0.8"/>
      </defs>
      <g>
       <use xlink:href="#mba162b28c9" x="180" y="862.060186" style="stroke: #000000; stroke-width: 0.8"/>
      </g>
     </g>
     <g id="text_8">
      <!-- 650 -->
      <g transform="translate(153.9125 865.859405) scale(0.1 -0.1)">
       <use xlink:href="#DejaVuSans-36"/>
       <use xlink:href="#DejaVuSans-35" x="63.623047"/>
       <use xlink:href="#DejaVuSans-30" x="127.246094"/>
      </g>
     </g>
    </g>
    <g id="ytick_2">
     <g id="line2d_9">
      <g>
       <use xlink:href="#mba162b28c9" x="180" y="785.030702" style="stroke: #000000; stroke-width: 0.8"/>
      </g>
     </g>
     <g id="text_9">
      <!-- 700 -->
      <g transform="translate(153.9125 788.829921) scale(0.1 -0.1)">
       <defs>
        <path id="DejaVuSans-37" d="M 525 4666 
L 3525 4666 
L 3525 4397 
L 1831 0 
L 1172 0 
L 2766 4134 
L 525 4134 
L 525 4666 
z
" transform="scale(0.015625)"/>
       </defs>
       <use xlink:href="#DejaVuSans-37"/>
       <use xlink:href="#DejaVuSans-30" x="63.623047"/>
       <use xlink:href="#DejaVuSans-30" x="127.246094"/>
      </g>
     </g>
    </g>
    <g id="ytick_3">
     <g id="line2d_10">
      <g>
       <use xlink:href="#mba162b28c9" x="180" y="708.001218" style="stroke: #000000; stroke-width: 0.8"/>
      </g>
     </g>
     <g id="text_10">
      <!-- 750 -->
      <g transform="translate(153.9125 711.800436) scale(0.1 -0.1)">
       <use xlink:href="#DejaVuSans-37"/>
       <use xlink:href="#DejaVuSans-35" x="63.623047"/>
       <use xlink:href="#DejaVuSans-30" x="127.246094"/>
      </g>
     </g>
    </g>
    <g id="ytick_4">
     <g id="line2d_11">
      <g>
       <use xlink:href="#mba162b28c9" x="180" y="630.971733" style="stroke: #000000; stroke-width: 0.8"/>
      </g>
     </g>
     <g id="text_11">
      <!-- 800 -->
      <g transform="translate(153.9125 634.770952) scale(0.1 -0.1)">
       <defs>
        <path id="DejaVuSans-38" d="M 2034 2216 
Q 1584 2216 1326 1975 
Q 1069 1734 1069 1313 
Q 1069 891 1326 650 
Q 1584 409 2034 409 
Q 2484 409 2743 651 
Q 3003 894 3003 1313 
Q 3003 1734 2745 1975 
Q 2488 2216 2034 2216 
z
M 1403 2484 
Q 997 2584 770 2862 
Q 544 3141 544 3541 
Q 544 4100 942 4425 
Q 1341 4750 2034 4750 
Q 2731 4750 3128 4425 
Q 3525 4100 3525 3541 
Q 3525 3141 3298 2862 
Q 3072 2584 2669 2484 
Q 3125 2378 3379 2068 
Q 3634 1759 3634 1313 
Q 3634 634 3220 271 
Q 2806 -91 2034 -91 
Q 1263 -91 848 271 
Q 434 634 434 1313 
Q 434 1759 690 2068 
Q 947 2378 1403 2484 
z
M 1172 3481 
Q 1172 3119 1398 2916 
Q 1625 2713 2034 2713 
Q 2441 2713 2670 2916 
Q 2900 3119 2900 3481 
Q 2900 3844 2670 4047 
Q 2441 4250 2034 4250 
Q 1625 4250 1398 4047 
Q 1172 3844 1172 3481 
z
" transform="scale(0.015625)"/>
       </defs>
       <use xlink:href="#DejaVuSans-38"/>
       <use xlink:href="#DejaVuSans-30" x="63.623047"/>
       <use xlink:href="#DejaVuSans-30" x="127.246094"/>
      </g>
     </g>
    </g>
    <g id="ytick_5">
     <g id="line2d_12">
      <g>
       <use xlink:href="#mba162b28c9" x="180" y="553.942249" style="stroke: #000000; stroke-width: 0.8"/>
      </g>
     </g>
     <g id="text_12">
      <!-- 850 -->
      <g transform="translate(153.9125 557.741468) scale(0.1 -0.1)">
       <use xlink:href="#DejaVuSans-38"/>
       <use xlink:href="#DejaVuSans-35" x="63.623047"/>
       <use xlink:href="#DejaVuSans-30" x="127.246094"/>
      </g>
     </g>
    </g>
    <g id="ytick_6">
     <g id="line2d_13">
      <g>
       <use xlink:href="#mba162b28c9" x="180" y="476.912765" style="stroke: #000000; stroke-width: 0.8"/>
      </g>
     </g>
     <g id="text_13">
      <!-- 900 -->
      <g transform="translate(153.9125 480.711983) scale(0.1 -0.1)">
       <defs>
        <path id="DejaVuSans-39" d="M 703 97 
L 703 672 
Q 941 559 1184 500 
Q 1428 441 1663 441 
Q 2288 441 2617 861 
Q 2947 1281 2994 2138 
Q 2813 1869 2534 1725 
Q 2256 1581 1919 1581 
Q 1219 1581 811 2004 
Q 403 2428 403 3163 
Q 403 3881 828 4315 
Q 1253 4750 1959 4750 
Q 2769 4750 3195 4129 
Q 3622 3509 3622 2328 
Q 3622 1225 3098 567 
Q 2575 -91 1691 -91 
Q 1453 -91 1209 -44 
Q 966 3 703 97 
z
M 1959 2075 
Q 2384 2075 2632 2365 
Q 2881 2656 2881 3163 
Q 2881 3666 2632 3958 
Q 2384 4250 1959 4250 
Q 1534 4250 1286 3958 
Q 1038 3666 1038 3163 
Q 1038 2656 1286 2365 
Q 1534 2075 1959 2075 
z
" transform="scale(0.015625)"/>
       </defs>
       <use xlink:href="#DejaVuSans-39"/>
       <use xlink:href="#DejaVuSans-30" x="63.623047"/>
       <use xlink:href="#DejaVuSans-30" x="127.246094"/>
      </g>
     </g>
    </g>
    <g id="ytick_7">
     <g id="line2d_14">
      <g>
       <use xlink:href="#mba162b28c9" x="180" y="399.88328" style="stroke: #000000; stroke-width: 0.8"/>
      </g>
     </g>
     <g id="text_14">
      <!-- 950 -->
      <g transform="translate(153.9125 403.682499) scale(0.1 -0.1)">
       <use xlink:href="#DejaVuSans-39"/>
       <use xlink:href="#DejaVuSans-35" x="63.623047"/>
       <use xlink:href="#DejaVuSans-30" x="127.246094"/>
      </g>
     </g>
    </g>
    <g id="ytick_8">
     <g id="line2d_15">
      <g>
       <use xlink:href="#mba162b28c9" x="180" y="322.853796" style="stroke: #000000; stroke-width: 0.8"/>
      </g>
     </g>
     <g id="text_15">
      <!-- 1000 -->
      <g transform="translate(147.55 326.653015) scale(0.1 -0.1)">
       <use xlink:href="#DejaVuSans-31"/>
       <use xlink:href="#DejaVuSans-30" x="63.623047"/>
       <use xlink:href="#DejaVuSans-30" x="127.246094"/>
       <use xlink:href="#DejaVuSans-30" x="190.869141"/>
      </g>
     </g>
    </g>
    <g id="ytick_9">
     <g id="line2d_16">
      <g>
       <use xlink:href="#mba162b28c9" x="180" y="245.824312" style="stroke: #000000; stroke-width: 0.8"/>
      </g>
     </g>
     <g id="text_16">
      <!-- 1050 -->
      <g transform="translate(147.55 249.62353) scale(0.1 -0.1)">
       <use xlink:href="#DejaVuSans-31"/>
       <use xlink:href="#DejaVuSans-30" x="63.623047"/>
       <use xlink:href="#DejaVuSans-35" x="127.246094"/>
       <use xlink:href="#DejaVuSans-30" x="190.869141"/>
      </g>
     </g>
    </g>
   </g>
   <g id="LineCollection_1">
    <path d="M 1245.272727 443.217536 
L 1216.292948 409.88542 
L 1189.20746 380.598918 
L 1163.85248 355.014524 
L 1140.073553 332.818881 
L 1117.724378 313.7276 
L 1096.665886 297.484596 
L 1076.765857 283.862032 
L 1057.899529 272.660873 
L 1039.951876 263.711783 
L 1022.822224 256.875538 
L 1006.431437 252.041384 
L 992.752479 249.397243 
L 990.730454 249.121112 
L 977.879649 248.084401 
L 975.706664 248.037282 
L 963.625228 248.486164 
L 961.382817 248.706891 
L 950.016783 250.530589 
L 947.804814 251.026256 
L 937.104563 254.123899 
L 935.020787 254.864853 
L 924.940612 259.144395 
L 923.060332 260.071821 
L 911.923006 266.491092 
L 901.57879 273.976766 
L 891.976501 282.402567 
L 883.054165 291.664265 
L 874.747389 301.677345 
L 866.994533 312.372693 
L 859.739145 323.692203 
L 852.930606 335.585149 
L 846.523827 348.005478 
L 840.478522 360.909914 
L 834.758392 374.256673 
L 829.33035 388.004592 
L 824.163843 402.112553 
L 819.230305 416.539091 
L 814.502702 431.242129 
L 809.95519 446.178801 
L 805.562836 461.305337 
L 801.301417 476.576992 
L 793.077201 507.371641 
L 773.185634 583.640128 
L 769.148225 598.368268 
L 765.043318 612.799505 
L 760.851653 626.881966 
L 756.555039 640.563766 
L 752.136608 653.793247 
L 747.581127 666.519262 
L 742.875367 678.691545 
L 738.008525 690.2612 
L 732.972668 701.181357 
L 727.763176 711.408089 
L 722.379048 720.901664 
L 716.822927 729.628219 
L 711.100548 737.561875 
L 705.219249 744.687152 
L 699.18519 751.001238 
L 692.999154 756.515305 
L 686.651448 761.253702 
L 680.11733 765.250098 
L 673.355148 768.540637 
L 666.309064 771.155878 
L 658.916473 773.114554 
L 651.117853 774.421763 
L 642.865517 775.072096 
L 634.128627 775.055912 
L 624.8939 774.366085 
L 615.163218 773.00324 
L 604.949899 770.97879 
L 594.275006 768.316057 
L 583.164383 765.050153 
L 571.646573 761.227239 
L 559.751495 756.903583 
L 547.509653 752.144657 
L 534.951675 747.024353 
L 509.007707 736.03322 
L 482.058102 724.629464 
L 468.305859 719.049252 
L 454.399087 713.703827 
L 440.356714 708.71822 
L 426.193799 704.226858 
L 411.921528 700.375876 
L 397.548709 697.326505 
L 383.086294 695.259177 
L 368.556978 694.376779 
L 356.044156 694.732616 
L 354.011166 694.903043 
L 341.807624 696.608355 
L 339.546448 697.069771 
L 327.696156 700.269874 
L 325.319509 701.088696 
L 313.865876 705.928935 
L 311.533589 707.115608 
L 300.519098 713.740473 
L 298.395528 715.230092 
L 287.861343 723.782264 
L 286.063759 725.451236 
L 276.049309 736.070563 
L 274.621154 737.780666 
L 264.084203 752.242128 
L 254.43131 768.897324 
L 245.628722 787.840716 
L 237.645215 809.185699 
L 230.727273 832.058784 
L 230.727273 832.058784 
" clip-path="url(#p8d6b79931f)" style="fill: none; stroke: #1f77b4; stroke-width: 1.5"/>
    <path d="M 1231.318928 455.344509 
L 1202.717107 422.434066 
L 1176.071365 393.607184 
L 1151.230445 368.522159 
L 1128.055093 346.86625 
L 1106.417233 328.35362 
L 1086.199184 312.723366 
L 1067.292903 299.737646 
L 1049.599272 289.179884 
L 1033.027412 280.853072 
L 1017.494038 274.578149 
L 1002.922835 270.192464 
L 989.243877 267.548323 
L 976.393072 266.511611 
L 964.311637 266.960493 
L 952.945603 268.784192 
L 942.245352 271.881834 
L 932.165177 276.161376 
L 922.662874 281.538591 
L 913.699357 287.936131 
L 905.238304 295.282651 
L 897.245824 303.511999 
L 889.690148 312.56247 
L 882.541349 322.376117 
L 875.771082 332.898124 
L 869.352342 344.076237 
L 863.259257 355.860245 
L 857.466884 368.201523 
L 851.95104 381.052617 
L 846.688149 394.366888 
L 841.6551 408.098195 
L 836.829137 422.200636 
L 832.187752 436.628317 
L 827.708605 451.335181 
L 823.369458 466.274865 
L 819.148119 481.400604 
L 815.022409 496.665164 
L 810.970135 512.020822 
L 806.969082 527.419363 
L 802.997011 542.81213 
L 799.031678 558.150079 
L 795.050855 573.383887 
L 791.032369 588.464067 
L 786.95414 603.341114 
L 782.794241 617.965681 
L 778.530956 632.288761 
L 774.14285 646.261901 
L 769.608845 659.837426 
L 764.908302 672.968682 
L 760.021105 685.610286 
L 754.927757 697.718399 
L 749.609472 709.250996 
L 744.048277 720.168155 
L 738.227107 730.432345 
L 732.129913 740.008719 
L 725.741765 748.865416 
L 719.04895 756.973855 
L 712.039085 764.309032 
L 704.701211 770.849817 
L 697.025894 776.57924 
L 689.005329 781.484777 
L 680.633426 785.558621 
L 671.905906 788.797948 
L 662.820384 791.205168 
L 653.376449 792.788165 
L 643.575738 793.560519 
L 633.422004 793.541711 
L 622.921174 792.757307 
L 612.081397 791.239126 
L 600.913092 789.025382 
L 589.428976 786.160797 
L 577.644084 782.696696 
L 565.575784 778.691067 
L 553.24377 774.208593 
L 540.670053 769.320652 
L 527.878927 764.105286 
L 514.896932 758.647125 
L 501.752798 753.037287 
L 488.477367 747.373227 
L 475.103511 741.758552 
L 461.666022 736.30279 
L 448.201493 731.121112 
L 434.748172 726.334016 
L 421.345805 722.066951 
L 408.035455 718.449903 
L 394.859298 715.616914 
L 381.860405 713.705564 
L 369.082497 712.856385 
L 356.569675 713.212221 
L 344.366132 714.917534 
L 332.51584 718.117636 
L 321.062208 722.957875 
L 310.047717 729.58274 
L 299.513532 738.134912 
L 289.499081 748.754238 
L 280.04161 761.576641 
L 271.17571 776.732952 
L 262.932811 794.347674 
L 255.34065 814.537666 
L 248.422708 837.410751 
" clip-path="url(#p8d6b79931f)" style="fill: none; stroke: #8c564b; stroke-width: 1.5"/>
    <path d="M 1217.365129 467.471482 
L 1188.949058 434.774771 
L 1162.711443 406.389424 
L 1138.346539 381.785093 
L 1115.728933 360.650363 
L 1094.747253 342.699138 
L 1075.303639 327.667587 
L 1057.312905 315.310708 
L 1040.70102 305.398422 
L 1025.402335 297.711338 
L 1011.354856 292.036663 
L 998.493062 288.165481 
L 986.738656 285.893356 
L 975.991601 285.02636 
L 966.12599 285.392914 
L 956.995631 286.857895 
L 948.450229 289.331724 
L 940.356218 292.768039 
L 932.612589 297.150047 
L 925.155471 302.472423 
L 917.952435 308.726638 
L 910.991965 315.893391 
L 904.273259 323.941308 
L 897.798885 332.829126 
L 891.570528 342.508923 
L 885.587052 352.929034 
L 879.843946 364.036182 
L 874.333482 375.776822 
L 869.045139 388.097874 
L 863.966093 400.947044 
L 859.081664 414.272886 
L 854.375678 428.024726 
L 849.830767 442.15252 
L 845.428582 456.606686 
L 841.149967 471.337958 
L 836.975079 486.297255 
L 828.854235 516.704004 
L 808.861672 593.351594 
L 804.735852 608.39905 
L 800.513061 623.239712 
L 796.168757 637.827711 
L 791.677806 652.118291 
L 787.014357 666.068009 
L 782.151663 679.634901 
L 777.061865 692.778581 
L 771.715736 705.460215 
L 766.082417 717.642306 
L 760.129219 729.288203 
L 753.821627 740.361239 
L 747.123712 750.82343 
L 739.999307 760.633784 
L 732.414301 769.746458 
L 724.340371 778.109407 
L 715.759996 785.664514 
L 706.671821 792.350355 
L 697.094439 798.108203 
L 687.066322 802.890379 
L 676.640708 806.668416 
L 665.87656 809.437879 
L 654.828837 811.218102 
L 643.541493 812.047564 
L 632.044871 811.977423 
L 620.356967 811.065688 
L 608.486884 809.373389 
L 596.438792 806.962846 
L 584.215376 803.897493 
L 571.820386 800.242537 
L 559.260311 796.065957 
L 546.545387 791.439485 
L 533.690153 786.439443 
L 520.713744 781.147356 
L 494.496905 770.040934 
L 468.047842 758.846601 
L 454.868239 753.495543 
L 441.781734 748.459344 
L 428.843436 743.855508 
L 416.115132 739.803053 
L 403.665288 736.419844 
L 391.567995 733.818821 
L 379.899649 732.103113 
L 368.731525 731.360915 
L 358.116398 731.662786 
L 348.069657 733.066709 
L 338.551747 735.636965 
L 329.466781 739.476219 
L 320.690501 744.754871 
L 312.119995 751.712832 
L 303.714549 760.625969 
L 295.50284 771.759373 
L 287.560965 785.336058 
L 279.98298 801.529887 
L 272.85947 820.473586 
L 266.118144 842.762718 
L 266.118144 842.762718 
" clip-path="url(#p8d6b79931f)" style="fill: none; stroke: #17becf; stroke-width: 1.5"/>
   </g>
   <g id="patch_3">
    <path d="M 180 872.49899 
L 180 218.30101 
" style="fill: none; stroke: #000000; stroke-width: 0.8; stroke-linejoin: miter; stroke-linecap: square"/>
   </g>
   <g id="patch_4">
    <path d="M 1296 872.49899 
L 1296 218.30101 
" style="fill: none; stroke: #000000; stroke-width: 0.8; stroke-linejoin: miter; stroke-linecap: square"/>
   </g>
   <g id="patch_5">
    <path d="M 180 872.49899 
L 1296 872.49899 
" style="fill: none; stroke: #000000; stroke-width: 0.8; stroke-linejoin: miter; stroke-linecap: square"/>
   </g>
   <g id="patch_6">
    <path d="M 180 218.30101 
L 1296 218.30101 
" style="fill: none; stroke: #000000; stroke-width: 0.8; stroke-linejoin: miter; stroke-linecap: square"/>
   </g>
  </g>
 </g>
 <defs>
  <clipPath id="p8d6b79931f">
   <rect x="180" y="218.30101" width="1116" height="654.19798"/>
  </clipPath>
 </defs>
</svg>
