<?xml version="1.0" encoding="utf-8" standalone="no"?>
<!DOCTYPE svg PUBLIC "-//W3C//DTD SVG 1.1//EN"
  "http://www.w3.org/Graphics/SVG/1.1/DTD/svg11.dtd">
<svg xmlns:xlink="http://www.w3.org/1999/xlink" width="1440pt" height="1080pt" viewBox="0 0 1440 1080" xmlns="http://www.w3.org/2000/svg" version="1.1">
 <metadata>
  <rdf:RDF xmlns:dc="http://purl.org/dc/elements/1.1/" xmlns:cc="http://creativecommons.org/ns#" xmlns:rdf="http://www.w3.org/1999/02/22-rdf-syntax-ns#">
   <cc:Work>
    <dc:type rdf:resource="http://purl.org/dc/dcmitype/StillImage"/>
    <dc:date>2023-12-11T12:06:48.486362</dc:date>
    <dc:format>image/svg+xml</dc:format>
    <dc:creator>
     <cc:Agent>
      <dc:title>Matplotlib v3.7.1, https://matplotlib.org/</dc:title>
     </cc:Agent>
    </dc:creator>
   </cc:Work>
  </rdf:RDF>
 </metadata>
 <defs>
  <style type="text/css">*{stroke-linejoin: round; stroke-linecap: butt}</style>
 </defs>
 <g id="figure_1">
  <g id="patch_1">
   <path d="M 0 1080 
L 1440 1080 
L 1440 0 
L 0 0 
z
" style="fill: #ffffff"/>
  </g>
  <g id="axes_1">
   <g id="patch_2">
    <path d="M 538.985578 961.2 
L 937.014422 961.2 
L 937.014422 129.6 
L 538.985578 129.6 
z
" style="fill: #ffffff"/>
   </g>
   <g id="matplotlib.axis_1">
    <g id="xtick_1">
     <g id="line2d_1">
      <defs>
       <path id="m5d6b1181d4" d="M 0 0 
L 0 3.5 
" style="stroke: #000000; stroke-width: 0.8"/>
      </defs>
      <g>
       <use xlink:href="#m5d6b1181d4" x="556.767466" y="961.2" style="stroke: #000000; stroke-width: 0.8"/>
      </g>
     </g>
     <g id="text_1">
      <!-- 150 -->
      <g transform="translate(547.223716 975.798437) scale(0.1 -0.1)">
       <defs>
        <path id="DejaVuSans-31" d="M 794 531 
L 1825 531 
L 1825 4091 
L 703 3866 
L 703 4441 
L 1819 4666 
L 2450 4666 
L 2450 531 
L 3481 531 
L 3481 0 
L 794 0 
L 794 531 
z
" transform="scale(0.015625)"/>
        <path id="DejaVuSans-35" d="M 691 4666 
L 3169 4666 
L 3169 4134 
L 1269 4134 
L 1269 2991 
Q 1406 3038 1543 3061 
Q 1681 3084 1819 3084 
Q 2600 3084 3056 2656 
Q 3513 2228 3513 1497 
Q 3513 744 3044 326 
Q 2575 -91 1722 -91 
Q 1428 -91 1123 -41 
Q 819 9 494 109 
L 494 744 
Q 775 591 1075 516 
Q 1375 441 1709 441 
Q 2250 441 2565 725 
Q 2881 1009 2881 1497 
Q 2881 1984 2565 2268 
Q 2250 2553 1709 2553 
Q 1456 2553 1204 2497 
Q 953 2441 691 2322 
L 691 4666 
z
" transform="scale(0.015625)"/>
        <path id="DejaVuSans-30" d="M 2034 4250 
Q 1547 4250 1301 3770 
Q 1056 3291 1056 2328 
Q 1056 1369 1301 889 
Q 1547 409 2034 409 
Q 2525 409 2770 889 
Q 3016 1369 3016 2328 
Q 3016 3291 2770 3770 
Q 2525 4250 2034 4250 
z
M 2034 4750 
Q 2819 4750 3233 4129 
Q 3647 3509 3647 2328 
Q 3647 1150 3233 529 
Q 2819 -91 2034 -91 
Q 1250 -91 836 529 
Q 422 1150 422 2328 
Q 422 3509 836 4129 
Q 1250 4750 2034 4750 
z
" transform="scale(0.015625)"/>
       </defs>
       <use xlink:href="#DejaVuSans-31"/>
       <use xlink:href="#DejaVuSans-35" x="63.623047"/>
       <use xlink:href="#DejaVuSans-30" x="127.246094"/>
      </g>
     </g>
    </g>
    <g id="xtick_2">
     <g id="line2d_2">
      <g>
       <use xlink:href="#m5d6b1181d4" x="606.057707" y="961.2" style="stroke: #000000; stroke-width: 0.8"/>
      </g>
     </g>
     <g id="text_2">
      <!-- 200 -->
      <g transform="translate(596.513957 975.798437) scale(0.1 -0.1)">
       <defs>
        <path id="DejaVuSans-32" d="M 1228 531 
L 3431 531 
L 3431 0 
L 469 0 
L 469 531 
Q 828 903 1448 1529 
Q 2069 2156 2228 2338 
Q 2531 2678 2651 2914 
Q 2772 3150 2772 3378 
Q 2772 3750 2511 3984 
Q 2250 4219 1831 4219 
Q 1534 4219 1204 4116 
Q 875 4013 500 3803 
L 500 4441 
Q 881 4594 1212 4672 
Q 1544 4750 1819 4750 
Q 2544 4750 2975 4387 
Q 3406 4025 3406 3419 
Q 3406 3131 3298 2873 
Q 3191 2616 2906 2266 
Q 2828 2175 2409 1742 
Q 1991 1309 1228 531 
z
" transform="scale(0.015625)"/>
       </defs>
       <use xlink:href="#DejaVuSans-32"/>
       <use xlink:href="#DejaVuSans-30" x="63.623047"/>
       <use xlink:href="#DejaVuSans-30" x="127.246094"/>
      </g>
     </g>
    </g>
    <g id="xtick_3">
     <g id="line2d_3">
      <g>
       <use xlink:href="#m5d6b1181d4" x="655.347949" y="961.2" style="stroke: #000000; stroke-width: 0.8"/>
      </g>
     </g>
     <g id="text_3">
      <!-- 250 -->
      <g transform="translate(645.804199 975.798437) scale(0.1 -0.1)">
       <use xlink:href="#DejaVuSans-32"/>
       <use xlink:href="#DejaVuSans-35" x="63.623047"/>
       <use xlink:href="#DejaVuSans-30" x="127.246094"/>
      </g>
     </g>
    </g>
    <g id="xtick_4">
     <g id="line2d_4">
      <g>
       <use xlink:href="#m5d6b1181d4" x="704.63819" y="961.2" style="stroke: #000000; stroke-width: 0.8"/>
      </g>
     </g>
     <g id="text_4">
      <!-- 300 -->
      <g transform="translate(695.09444 975.798437) scale(0.1 -0.1)">
       <defs>
        <path id="DejaVuSans-33" d="M 2597 2516 
Q 3050 2419 3304 2112 
Q 3559 1806 3559 1356 
Q 3559 666 3084 287 
Q 2609 -91 1734 -91 
Q 1441 -91 1130 -33 
Q 819 25 488 141 
L 488 750 
Q 750 597 1062 519 
Q 1375 441 1716 441 
Q 2309 441 2620 675 
Q 2931 909 2931 1356 
Q 2931 1769 2642 2001 
Q 2353 2234 1838 2234 
L 1294 2234 
L 1294 2753 
L 1863 2753 
Q 2328 2753 2575 2939 
Q 2822 3125 2822 3475 
Q 2822 3834 2567 4026 
Q 2313 4219 1838 4219 
Q 1578 4219 1281 4162 
Q 984 4106 628 3988 
L 628 4550 
Q 988 4650 1302 4700 
Q 1616 4750 1894 4750 
Q 2613 4750 3031 4423 
Q 3450 4097 3450 3541 
Q 3450 3153 3228 2886 
Q 3006 2619 2597 2516 
z
" transform="scale(0.015625)"/>
       </defs>
       <use xlink:href="#DejaVuSans-33"/>
       <use xlink:href="#DejaVuSans-30" x="63.623047"/>
       <use xlink:href="#DejaVuSans-30" x="127.246094"/>
      </g>
     </g>
    </g>
    <g id="xtick_5">
     <g id="line2d_5">
      <g>
       <use xlink:href="#m5d6b1181d4" x="753.928431" y="961.2" style="stroke: #000000; stroke-width: 0.8"/>
      </g>
     </g>
     <g id="text_5">
      <!-- 350 -->
      <g transform="translate(744.384681 975.798437) scale(0.1 -0.1)">
       <use xlink:href="#DejaVuSans-33"/>
       <use xlink:href="#DejaVuSans-35" x="63.623047"/>
       <use xlink:href="#DejaVuSans-30" x="127.246094"/>
      </g>
     </g>
    </g>
    <g id="xtick_6">
     <g id="line2d_6">
      <g>
       <use xlink:href="#m5d6b1181d4" x="803.218673" y="961.2" style="stroke: #000000; stroke-width: 0.8"/>
      </g>
     </g>
     <g id="text_6">
      <!-- 400 -->
      <g transform="translate(793.674923 975.798437) scale(0.1 -0.1)">
       <defs>
        <path id="DejaVuSans-34" d="M 2419 4116 
L 825 1625 
L 2419 1625 
L 2419 4116 
z
M 2253 4666 
L 3047 4666 
L 3047 1625 
L 3713 1625 
L 3713 1100 
L 3047 1100 
L 3047 0 
L 2419 0 
L 2419 1100 
L 313 1100 
L 313 1709 
L 2253 4666 
z
" transform="scale(0.015625)"/>
       </defs>
       <use xlink:href="#DejaVuSans-34"/>
       <use xlink:href="#DejaVuSans-30" x="63.623047"/>
       <use xlink:href="#DejaVuSans-30" x="127.246094"/>
      </g>
     </g>
    </g>
    <g id="xtick_7">
     <g id="line2d_7">
      <g>
       <use xlink:href="#m5d6b1181d4" x="852.508914" y="961.2" style="stroke: #000000; stroke-width: 0.8"/>
      </g>
     </g>
     <g id="text_7">
      <!-- 450 -->
      <g transform="translate(842.965164 975.798437) scale(0.1 -0.1)">
       <use xlink:href="#DejaVuSans-34"/>
       <use xlink:href="#DejaVuSans-35" x="63.623047"/>
       <use xlink:href="#DejaVuSans-30" x="127.246094"/>
      </g>
     </g>
    </g>
    <g id="xtick_8">
     <g id="line2d_8">
      <g>
       <use xlink:href="#m5d6b1181d4" x="901.799156" y="961.2" style="stroke: #000000; stroke-width: 0.8"/>
      </g>
     </g>
     <g id="text_8">
      <!-- 500 -->
      <g transform="translate(892.255406 975.798437) scale(0.1 -0.1)">
       <use xlink:href="#DejaVuSans-35"/>
       <use xlink:href="#DejaVuSans-30" x="63.623047"/>
       <use xlink:href="#DejaVuSans-30" x="127.246094"/>
      </g>
     </g>
    </g>
   </g>
   <g id="matplotlib.axis_2">
    <g id="ytick_1">
     <g id="line2d_9">
      <defs>
       <path id="m13f0d5418b" d="M 0 0 
L -3.5 0 
" style="stroke: #000000; stroke-width: 0.8"/>
      </defs>
      <g>
       <use xlink:href="#m13f0d5418b" x="538.985578" y="896.311594" style="stroke: #000000; stroke-width: 0.8"/>
      </g>
     </g>
     <g id="text_9">
      <!-- 600 -->
      <g transform="translate(512.898078 900.110813) scale(0.1 -0.1)">
       <defs>
        <path id="DejaVuSans-36" d="M 2113 2584 
Q 1688 2584 1439 2293 
Q 1191 2003 1191 1497 
Q 1191 994 1439 701 
Q 1688 409 2113 409 
Q 2538 409 2786 701 
Q 3034 994 3034 1497 
Q 3034 2003 2786 2293 
Q 2538 2584 2113 2584 
z
M 3366 4563 
L 3366 3988 
Q 3128 4100 2886 4159 
Q 2644 4219 2406 4219 
Q 1781 4219 1451 3797 
Q 1122 3375 1075 2522 
Q 1259 2794 1537 2939 
Q 1816 3084 2150 3084 
Q 2853 3084 3261 2657 
Q 3669 2231 3669 1497 
Q 3669 778 3244 343 
Q 2819 -91 2113 -91 
Q 1303 -91 875 529 
Q 447 1150 447 2328 
Q 447 3434 972 4092 
Q 1497 4750 2381 4750 
Q 2619 4750 2861 4703 
Q 3103 4656 3366 4563 
z
" transform="scale(0.015625)"/>
       </defs>
       <use xlink:href="#DejaVuSans-36"/>
       <use xlink:href="#DejaVuSans-30" x="63.623047"/>
       <use xlink:href="#DejaVuSans-30" x="127.246094"/>
      </g>
     </g>
    </g>
    <g id="ytick_2">
     <g id="line2d_10">
      <g>
       <use xlink:href="#m13f0d5418b" x="538.985578" y="797.731111" style="stroke: #000000; stroke-width: 0.8"/>
      </g>
     </g>
     <g id="text_10">
      <!-- 700 -->
      <g transform="translate(512.898078 801.53033) scale(0.1 -0.1)">
       <defs>
        <path id="DejaVuSans-37" d="M 525 4666 
L 3525 4666 
L 3525 4397 
L 1831 0 
L 1172 0 
L 2766 4134 
L 525 4134 
L 525 4666 
z
" transform="scale(0.015625)"/>
       </defs>
       <use xlink:href="#DejaVuSans-37"/>
       <use xlink:href="#DejaVuSans-30" x="63.623047"/>
       <use xlink:href="#DejaVuSans-30" x="127.246094"/>
      </g>
     </g>
    </g>
    <g id="ytick_3">
     <g id="line2d_11">
      <g>
       <use xlink:href="#m13f0d5418b" x="538.985578" y="699.150628" style="stroke: #000000; stroke-width: 0.8"/>
      </g>
     </g>
     <g id="text_11">
      <!-- 800 -->
      <g transform="translate(512.898078 702.949847) scale(0.1 -0.1)">
       <defs>
        <path id="DejaVuSans-38" d="M 2034 2216 
Q 1584 2216 1326 1975 
Q 1069 1734 1069 1313 
Q 1069 891 1326 650 
Q 1584 409 2034 409 
Q 2484 409 2743 651 
Q 3003 894 3003 1313 
Q 3003 1734 2745 1975 
Q 2488 2216 2034 2216 
z
M 1403 2484 
Q 997 2584 770 2862 
Q 544 3141 544 3541 
Q 544 4100 942 4425 
Q 1341 4750 2034 4750 
Q 2731 4750 3128 4425 
Q 3525 4100 3525 3541 
Q 3525 3141 3298 2862 
Q 3072 2584 2669 2484 
Q 3125 2378 3379 2068 
Q 3634 1759 3634 1313 
Q 3634 634 3220 271 
Q 2806 -91 2034 -91 
Q 1263 -91 848 271 
Q 434 634 434 1313 
Q 434 1759 690 2068 
Q 947 2378 1403 2484 
z
M 1172 3481 
Q 1172 3119 1398 2916 
Q 1625 2713 2034 2713 
Q 2441 2713 2670 2916 
Q 2900 3119 2900 3481 
Q 2900 3844 2670 4047 
Q 2441 4250 2034 4250 
Q 1625 4250 1398 4047 
Q 1172 3844 1172 3481 
z
" transform="scale(0.015625)"/>
       </defs>
       <use xlink:href="#DejaVuSans-38"/>
       <use xlink:href="#DejaVuSans-30" x="63.623047"/>
       <use xlink:href="#DejaVuSans-30" x="127.246094"/>
      </g>
     </g>
    </g>
    <g id="ytick_4">
     <g id="line2d_12">
      <g>
       <use xlink:href="#m13f0d5418b" x="538.985578" y="600.570146" style="stroke: #000000; stroke-width: 0.8"/>
      </g>
     </g>
     <g id="text_12">
      <!-- 900 -->
      <g transform="translate(512.898078 604.369364) scale(0.1 -0.1)">
       <defs>
        <path id="DejaVuSans-39" d="M 703 97 
L 703 672 
Q 941 559 1184 500 
Q 1428 441 1663 441 
Q 2288 441 2617 861 
Q 2947 1281 2994 2138 
Q 2813 1869 2534 1725 
Q 2256 1581 1919 1581 
Q 1219 1581 811 2004 
Q 403 2428 403 3163 
Q 403 3881 828 4315 
Q 1253 4750 1959 4750 
Q 2769 4750 3195 4129 
Q 3622 3509 3622 2328 
Q 3622 1225 3098 567 
Q 2575 -91 1691 -91 
Q 1453 -91 1209 -44 
Q 966 3 703 97 
z
M 1959 2075 
Q 2384 2075 2632 2365 
Q 2881 2656 2881 3163 
Q 2881 3666 2632 3958 
Q 2384 4250 1959 4250 
Q 1534 4250 1286 3958 
Q 1038 3666 1038 3163 
Q 1038 2656 1286 2365 
Q 1534 2075 1959 2075 
z
" transform="scale(0.015625)"/>
       </defs>
       <use xlink:href="#DejaVuSans-39"/>
       <use xlink:href="#DejaVuSans-30" x="63.623047"/>
       <use xlink:href="#DejaVuSans-30" x="127.246094"/>
      </g>
     </g>
    </g>
    <g id="ytick_5">
     <g id="line2d_13">
      <g>
       <use xlink:href="#m13f0d5418b" x="538.985578" y="501.989663" style="stroke: #000000; stroke-width: 0.8"/>
      </g>
     </g>
     <g id="text_13">
      <!-- 1000 -->
      <g transform="translate(506.535578 505.788881) scale(0.1 -0.1)">
       <use xlink:href="#DejaVuSans-31"/>
       <use xlink:href="#DejaVuSans-30" x="63.623047"/>
       <use xlink:href="#DejaVuSans-30" x="127.246094"/>
       <use xlink:href="#DejaVuSans-30" x="190.869141"/>
      </g>
     </g>
    </g>
    <g id="ytick_6">
     <g id="line2d_14">
      <g>
       <use xlink:href="#m13f0d5418b" x="538.985578" y="403.40918" style="stroke: #000000; stroke-width: 0.8"/>
      </g>
     </g>
     <g id="text_14">
      <!-- 1100 -->
      <g transform="translate(506.535578 407.208399) scale(0.1 -0.1)">
       <use xlink:href="#DejaVuSans-31"/>
       <use xlink:href="#DejaVuSans-31" x="63.623047"/>
       <use xlink:href="#DejaVuSans-30" x="127.246094"/>
       <use xlink:href="#DejaVuSans-30" x="190.869141"/>
      </g>
     </g>
    </g>
    <g id="ytick_7">
     <g id="line2d_15">
      <g>
       <use xlink:href="#m13f0d5418b" x="538.985578" y="304.828697" style="stroke: #000000; stroke-width: 0.8"/>
      </g>
     </g>
     <g id="text_15">
      <!-- 1200 -->
      <g transform="translate(506.535578 308.627916) scale(0.1 -0.1)">
       <use xlink:href="#DejaVuSans-31"/>
       <use xlink:href="#DejaVuSans-32" x="63.623047"/>
       <use xlink:href="#DejaVuSans-30" x="127.246094"/>
       <use xlink:href="#DejaVuSans-30" x="190.869141"/>
      </g>
     </g>
    </g>
    <g id="ytick_8">
     <g id="line2d_16">
      <g>
       <use xlink:href="#m13f0d5418b" x="538.985578" y="206.248214" style="stroke: #000000; stroke-width: 0.8"/>
      </g>
     </g>
     <g id="text_16">
      <!-- 1300 -->
      <g transform="translate(506.535578 210.047433) scale(0.1 -0.1)">
       <use xlink:href="#DejaVuSans-31"/>
       <use xlink:href="#DejaVuSans-33" x="63.623047"/>
       <use xlink:href="#DejaVuSans-30" x="127.246094"/>
       <use xlink:href="#DejaVuSans-30" x="190.869141"/>
      </g>
     </g>
    </g>
   </g>
   <g id="LineCollection_1">
    <path d="M 749.555049 167.4 
L 732.948261 178.975186 
L 731.272346 180.283021 
L 718.649526 191.278253 
L 716.679251 193.256678 
L 706.523569 205.140367 
L 705.539824 206.659249 
L 699.713089 216.630567 
L 698.698437 218.617046 
L 697.914661 220.705422 
L 694.515485 231.835434 
L 694.224484 233.473127 
L 694.07256 235.12952 
L 693.610233 245.871028 
L 693.731673 247.494819 
L 693.986692 249.103051 
L 695.745514 257.843875 
L 696.269889 259.88101 
L 697.008315 261.850684 
L 701.409416 271.745692 
L 702.260534 273.170812 
L 707.572206 281.269574 
L 709.076127 283.272522 
L 717.043602 292.452151 
L 725.898545 300.952063 
L 735.441377 308.943338 
L 745.499443 316.542981 
L 755.913118 323.832081 
L 766.531729 330.868439 
L 777.212857 337.69443 
L 808.421789 357.242349 
L 818.153857 363.504724 
L 827.370491 369.650369 
L 835.984958 375.681473 
L 843.92004 381.594108 
L 851.10875 387.377575 
L 857.495743 393.013747 
L 863.039832 398.476833 
L 867.717899 403.734435 
L 871.53013 408.751302 
L 874.505321 413.497548 
L 876.702973 417.962372 
L 878.206953 422.171086 
L 879.106787 426.197688 
L 879.470079 430.161724 
L 879.319648 434.204263 
L 878.630016 438.452687 
L 877.344818 442.993302 
L 875.40237 447.86366 
L 872.755287 453.061678 
L 869.378841 458.561173 
L 865.270617 464.325587 
L 860.4461 470.316921 
L 854.933572 476.500311 
L 848.769808 482.845728 
L 841.996924 489.328141 
L 834.660246 495.927006 
L 826.8069 502.625536 
L 818.484903 509.409998 
L 809.742571 516.269088 
L 800.628116 523.193436 
L 791.189364 530.175217 
L 771.527168 544.285767 
L 751.124109 558.559398 
L 709.449617 587.514985 
L 688.836129 602.16154 
L 678.718751 609.524228 
L 668.77412 616.914465 
L 659.035537 624.334185 
L 649.53511 631.786241 
L 640.303855 639.274556 
L 631.37183 646.804313 
L 622.768328 654.382192 
L 614.522151 662.016668 
L 606.661993 669.718366 
L 599.216986 677.500468 
L 592.217484 685.379152 
L 585.696186 693.37399 
L 579.689715 701.508161 
L 574.240789 709.808194 
L 569.400999 718.302778 
L 565.234021 727.019928 
L 561.818477 735.981695 
L 559.248876 745.19597 
L 557.906763 752.492626 
L 557.632174 754.646262 
L 557.107166 761.952963 
L 557.077798 764.282889 
L 557.418486 771.600695 
L 557.681719 774.021462 
L 558.940744 781.351347 
L 559.510255 783.753768 
L 561.744825 791.096589 
L 562.592679 793.369878 
L 565.865111 800.726338 
L 566.928311 802.782176 
L 571.306604 810.152784 
L 572.50484 811.940036 
L 579.318277 820.8305 
L 587.386525 829.468824 
L 596.754518 837.886 
L 607.493344 846.118339 
L 619.696764 854.200842 
L 633.477496 862.163888 
L 648.964349 870.032125 
L 666.300446 877.824532 
L 685.64238 885.554998 
L 707.160072 893.233037 
L 731.037103 900.864457 
L 757.471356 908.451933 
L 786.675855 915.995446 
L 818.461637 923.4 
L 818.461637 923.4 
" clip-path="url(#pba3ffda67e)" style="fill: none; stroke: #1f77b4; stroke-width: 1.5"/>
    <path d="M 760.829065 183.574703 
L 744.222277 195.149889 
L 731.599456 206.145121 
L 722.562639 216.606522 
L 716.735904 226.577841 
L 713.764732 236.100516 
L 713.31537 245.21375 
L 715.074192 253.954574 
L 718.747068 262.357919 
L 724.05874 270.456681 
L 730.75219 278.281792 
L 738.588026 285.862281 
L 747.343864 293.225345 
L 756.813714 300.396411 
L 766.807379 307.399201 
L 777.149853 314.255796 
L 787.680724 320.9867 
L 798.253589 327.610899 
L 808.73547 334.145929 
L 819.006238 340.607927 
L 828.958048 347.011701 
L 838.494773 353.370783 
L 847.531457 359.697487 
L 855.993764 366.002969 
L 863.817444 372.297284 
L 870.947806 378.589438 
L 877.339195 384.887445 
L 882.954487 391.198379 
L 887.764584 397.52843 
L 891.747925 403.882951 
L 894.890007 410.266512 
L 897.182915 416.682949 
L 898.624862 423.135411 
L 899.219742 429.626409 
L 898.976693 436.157861 
L 897.909676 442.731139 
L 896.037059 449.34711 
L 893.381217 456.006183 
L 889.968149 462.708347 
L 885.827101 469.453213 
L 880.990205 476.240054 
L 875.492136 483.067841 
L 869.369775 489.93528 
L 862.661893 496.84085 
L 855.408845 503.782835 
L 847.652286 510.759355 
L 839.434892 517.768401 
L 830.800106 524.807862 
L 821.791894 531.875557 
L 812.454521 538.969258 
L 802.832342 546.086719 
L 792.969608 553.225697 
L 782.910292 560.38398 
L 772.697932 567.559402 
L 762.375493 574.749867 
L 751.985241 581.953368 
L 741.568647 589.167997 
L 731.166294 596.391969 
L 720.81782 603.623629 
L 710.56187 610.861465 
L 700.436066 618.104122 
L 690.477009 625.350403 
L 680.720287 632.599285 
L 671.200511 639.849914 
L 661.951377 647.101618 
L 653.005737 654.353902 
L 644.395702 661.606448 
L 636.15276 668.859119 
L 628.307926 676.111946 
L 620.891901 683.365131 
L 613.935264 690.619034 
L 607.468686 697.874163 
L 601.523163 705.131169 
L 596.130278 712.390824 
L 591.322484 719.654014 
L 587.133411 726.921714 
L 583.598203 734.194975 
L 580.753871 741.474902 
L 578.639684 748.762624 
L 577.297571 756.05928 
L 576.772563 763.365981 
L 577.11325 770.683787 
L 578.372274 778.013673 
L 580.606844 785.356494 
L 583.879276 792.712954 
L 588.257569 800.083562 
L 593.816 807.468595 
L 600.635752 814.868055 
L 608.805573 822.281624 
L 618.422456 829.708617 
L 629.592356 837.147932 
L 642.430935 844.598001 
L 657.064331 852.056732 
L 673.629966 859.521456 
L 692.277379 866.988866 
L 713.169089 874.45496 
L 736.481497 881.91497 
L 762.405806 889.363306 
L 791.148987 896.793478 
L 822.934769 904.198033 
" clip-path="url(#pba3ffda67e)" style="fill: none; stroke: #8c564b; stroke-width: 1.5"/>
    <path d="M 772.103081 199.749406 
L 756.369555 210.715916 
L 745.604745 220.092708 
L 738.669553 228.121179 
L 734.889553 234.589912 
L 733.33333 239.577643 
L 733.128486 243.73196 
L 733.986133 247.994214 
L 736.146386 252.936756 
L 739.857055 258.594453 
L 745.129764 264.758619 
L 751.803073 271.214463 
L 759.647871 277.811406 
L 768.426048 284.458701 
L 777.91349 291.106768 
L 787.906796 297.731881 
L 798.223934 304.326175 
L 829.675154 324.027858 
L 839.896076 330.607921 
L 849.802442 337.219588 
L 859.311738 343.887697 
L 868.352613 350.641221 
L 876.862807 357.514086 
L 884.78622 364.545836 
L 892.068729 371.781519 
L 898.652584 379.269665 
L 904.469884 387.056687 
L 909.437281 395.175991 
L 912.579363 401.559552 
L 913.456268 403.631875 
L 915.749176 410.048312 
L 916.424406 412.383008 
L 917.866353 418.83547 
L 918.258677 421.336033 
L 918.853557 427.827031 
L 918.922202 430.359577 
L 918.679153 436.891029 
L 918.438055 439.316955 
L 917.371038 445.890233 
L 916.880494 448.100734 
L 914.35037 456.651018 
L 910.950354 464.953242 
L 906.770235 473.024081 
L 901.882877 480.895962 
L 896.346491 488.60569 
L 890.208992 496.188001 
L 883.51212 503.672768 
L 876.294501 511.084321 
L 868.593641 518.441812 
L 860.447077 525.759947 
L 851.892962 533.049793 
L 842.970288 540.319507 
L 833.718894 547.574956 
L 824.179361 554.820208 
L 814.392838 562.057924 
L 794.245095 576.516143 
L 773.608894 590.952804 
L 732.148769 619.758564 
L 711.97131 634.093775 
L 702.156397 641.235176 
L 692.57292 648.355342 
L 683.256675 655.450956 
L 674.242815 662.518195 
L 665.565921 669.552605 
L 657.260072 676.548924 
L 649.358915 683.50087 
L 641.895711 690.400868 
L 634.903332 697.239708 
L 628.414176 704.006154 
L 622.459912 710.686496 
L 617.071011 717.264099 
L 612.275899 723.71906 
L 608.099647 730.02817 
L 604.562083 736.165557 
L 601.675377 742.104602 
L 599.441576 747.821907 
L 597.851206 753.304001 
L 596.885052 758.556687 
L 596.521604 763.614905 
L 596.751285 768.548353 
L 597.59441 773.456923 
L 599.115006 778.453621 
L 601.42228 783.640395 
L 604.658253 789.087972 
L 608.978685 794.828178 
L 614.536884 800.858846 
L 621.475619 807.155287 
L 629.926651 813.681909 
L 640.014642 820.400656 
L 651.862432 827.275783 
L 665.595959 834.275845 
L 681.348197 841.37404 
L 699.262116 848.547721 
L 719.492874 855.777609 
L 742.209485 863.046964 
L 767.59616 870.340831 
L 795.853461 877.645402 
L 827.407902 884.996065 
L 827.407902 884.996065 
" clip-path="url(#pba3ffda67e)" style="fill: none; stroke: #17becf; stroke-width: 1.5"/>
   </g>
   <g id="patch_3">
    <path d="M 538.985578 961.2 
L 538.985578 129.6 
" style="fill: none; stroke: #000000; stroke-width: 0.8; stroke-linejoin: miter; stroke-linecap: square"/>
   </g>
   <g id="patch_4">
    <path d="M 937.014422 961.2 
L 937.014422 129.6 
" style="fill: none; stroke: #000000; stroke-width: 0.8; stroke-linejoin: miter; stroke-linecap: square"/>
   </g>
   <g id="patch_5">
    <path d="M 538.985578 961.2 
L 937.014422 961.2 
" style="fill: none; stroke: #000000; stroke-width: 0.8; stroke-linejoin: miter; stroke-linecap: square"/>
   </g>
   <g id="patch_6">
    <path d="M 538.985578 129.6 
L 937.014422 129.6 
" style="fill: none; stroke: #000000; stroke-width: 0.8; stroke-linejoin: miter; stroke-linecap: square"/>
   </g>
  </g>
 </g>
 <defs>
  <clipPath id="pba3ffda67e">
   <rect x="538.985578" y="129.6" width="398.028844" height="831.6"/>
  </clipPath>
 </defs>
</svg>
