<?xml version="1.0" encoding="utf-8" standalone="no"?>
<!DOCTYPE svg PUBLIC "-//W3C//DTD SVG 1.1//EN"
  "http://www.w3.org/Graphics/SVG/1.1/DTD/svg11.dtd">
<svg xmlns:xlink="http://www.w3.org/1999/xlink" width="1440pt" height="1080pt" viewBox="0 0 1440 1080" xmlns="http://www.w3.org/2000/svg" version="1.1">
 <metadata>
  <rdf:RDF xmlns:dc="http://purl.org/dc/elements/1.1/" xmlns:cc="http://creativecommons.org/ns#" xmlns:rdf="http://www.w3.org/1999/02/22-rdf-syntax-ns#">
   <cc:Work>
    <dc:type rdf:resource="http://purl.org/dc/dcmitype/StillImage"/>
    <dc:date>2023-12-11T12:06:54.332195</dc:date>
    <dc:format>image/svg+xml</dc:format>
    <dc:creator>
     <cc:Agent>
      <dc:title>Matplotlib v3.7.1, https://matplotlib.org/</dc:title>
     </cc:Agent>
    </dc:creator>
   </cc:Work>
  </rdf:RDF>
 </metadata>
 <defs>
  <style type="text/css">*{stroke-linejoin: round; stroke-linecap: butt}</style>
 </defs>
 <g id="figure_1">
  <g id="patch_1">
   <path d="M 0 1080 
L 1440 1080 
L 1440 0 
L 0 0 
z
" style="fill: #ffffff"/>
  </g>
  <g id="axes_1">
   <g id="patch_2">
    <path d="M 498.914297 961.2 
L 977.085703 961.2 
L 977.085703 129.6 
L 498.914297 129.6 
z
" style="fill: #ffffff"/>
   </g>
   <g id="matplotlib.axis_1">
    <g id="xtick_1">
     <g id="line2d_1">
      <defs>
       <path id="m5a5430b03c" d="M 0 0 
L 0 3.5 
" style="stroke: #000000; stroke-width: 0.8"/>
      </defs>
      <g>
       <use xlink:href="#m5a5430b03c" x="561.259445" y="961.2" style="stroke: #000000; stroke-width: 0.8"/>
      </g>
     </g>
     <g id="text_1">
      <!-- 600 -->
      <g transform="translate(551.715695 975.798437) scale(0.1 -0.1)">
       <defs>
        <path id="DejaVuSans-36" d="M 2113 2584 
Q 1688 2584 1439 2293 
Q 1191 2003 1191 1497 
Q 1191 994 1439 701 
Q 1688 409 2113 409 
Q 2538 409 2786 701 
Q 3034 994 3034 1497 
Q 3034 2003 2786 2293 
Q 2538 2584 2113 2584 
z
M 3366 4563 
L 3366 3988 
Q 3128 4100 2886 4159 
Q 2644 4219 2406 4219 
Q 1781 4219 1451 3797 
Q 1122 3375 1075 2522 
Q 1259 2794 1537 2939 
Q 1816 3084 2150 3084 
Q 2853 3084 3261 2657 
Q 3669 2231 3669 1497 
Q 3669 778 3244 343 
Q 2819 -91 2113 -91 
Q 1303 -91 875 529 
Q 447 1150 447 2328 
Q 447 3434 972 4092 
Q 1497 4750 2381 4750 
Q 2619 4750 2861 4703 
Q 3103 4656 3366 4563 
z
" transform="scale(0.015625)"/>
        <path id="DejaVuSans-30" d="M 2034 4250 
Q 1547 4250 1301 3770 
Q 1056 3291 1056 2328 
Q 1056 1369 1301 889 
Q 1547 409 2034 409 
Q 2525 409 2770 889 
Q 3016 1369 3016 2328 
Q 3016 3291 2770 3770 
Q 2525 4250 2034 4250 
z
M 2034 4750 
Q 2819 4750 3233 4129 
Q 3647 3509 3647 2328 
Q 3647 1150 3233 529 
Q 2819 -91 2034 -91 
Q 1250 -91 836 529 
Q 422 1150 422 2328 
Q 422 3509 836 4129 
Q 1250 4750 2034 4750 
z
" transform="scale(0.015625)"/>
       </defs>
       <use xlink:href="#DejaVuSans-36"/>
       <use xlink:href="#DejaVuSans-30" x="63.623047"/>
       <use xlink:href="#DejaVuSans-30" x="127.246094"/>
      </g>
     </g>
    </g>
    <g id="xtick_2">
     <g id="line2d_2">
      <g>
       <use xlink:href="#m5a5430b03c" x="628.563495" y="961.2" style="stroke: #000000; stroke-width: 0.8"/>
      </g>
     </g>
     <g id="text_2">
      <!-- 700 -->
      <g transform="translate(619.019745 975.798437) scale(0.1 -0.1)">
       <defs>
        <path id="DejaVuSans-37" d="M 525 4666 
L 3525 4666 
L 3525 4397 
L 1831 0 
L 1172 0 
L 2766 4134 
L 525 4134 
L 525 4666 
z
" transform="scale(0.015625)"/>
       </defs>
       <use xlink:href="#DejaVuSans-37"/>
       <use xlink:href="#DejaVuSans-30" x="63.623047"/>
       <use xlink:href="#DejaVuSans-30" x="127.246094"/>
      </g>
     </g>
    </g>
    <g id="xtick_3">
     <g id="line2d_3">
      <g>
       <use xlink:href="#m5a5430b03c" x="695.867545" y="961.2" style="stroke: #000000; stroke-width: 0.8"/>
      </g>
     </g>
     <g id="text_3">
      <!-- 800 -->
      <g transform="translate(686.323795 975.798437) scale(0.1 -0.1)">
       <defs>
        <path id="DejaVuSans-38" d="M 2034 2216 
Q 1584 2216 1326 1975 
Q 1069 1734 1069 1313 
Q 1069 891 1326 650 
Q 1584 409 2034 409 
Q 2484 409 2743 651 
Q 3003 894 3003 1313 
Q 3003 1734 2745 1975 
Q 2488 2216 2034 2216 
z
M 1403 2484 
Q 997 2584 770 2862 
Q 544 3141 544 3541 
Q 544 4100 942 4425 
Q 1341 4750 2034 4750 
Q 2731 4750 3128 4425 
Q 3525 4100 3525 3541 
Q 3525 3141 3298 2862 
Q 3072 2584 2669 2484 
Q 3125 2378 3379 2068 
Q 3634 1759 3634 1313 
Q 3634 634 3220 271 
Q 2806 -91 2034 -91 
Q 1263 -91 848 271 
Q 434 634 434 1313 
Q 434 1759 690 2068 
Q 947 2378 1403 2484 
z
M 1172 3481 
Q 1172 3119 1398 2916 
Q 1625 2713 2034 2713 
Q 2441 2713 2670 2916 
Q 2900 3119 2900 3481 
Q 2900 3844 2670 4047 
Q 2441 4250 2034 4250 
Q 1625 4250 1398 4047 
Q 1172 3844 1172 3481 
z
" transform="scale(0.015625)"/>
       </defs>
       <use xlink:href="#DejaVuSans-38"/>
       <use xlink:href="#DejaVuSans-30" x="63.623047"/>
       <use xlink:href="#DejaVuSans-30" x="127.246094"/>
      </g>
     </g>
    </g>
    <g id="xtick_4">
     <g id="line2d_4">
      <g>
       <use xlink:href="#m5a5430b03c" x="763.171595" y="961.2" style="stroke: #000000; stroke-width: 0.8"/>
      </g>
     </g>
     <g id="text_4">
      <!-- 900 -->
      <g transform="translate(753.627845 975.798437) scale(0.1 -0.1)">
       <defs>
        <path id="DejaVuSans-39" d="M 703 97 
L 703 672 
Q 941 559 1184 500 
Q 1428 441 1663 441 
Q 2288 441 2617 861 
Q 2947 1281 2994 2138 
Q 2813 1869 2534 1725 
Q 2256 1581 1919 1581 
Q 1219 1581 811 2004 
Q 403 2428 403 3163 
Q 403 3881 828 4315 
Q 1253 4750 1959 4750 
Q 2769 4750 3195 4129 
Q 3622 3509 3622 2328 
Q 3622 1225 3098 567 
Q 2575 -91 1691 -91 
Q 1453 -91 1209 -44 
Q 966 3 703 97 
z
M 1959 2075 
Q 2384 2075 2632 2365 
Q 2881 2656 2881 3163 
Q 2881 3666 2632 3958 
Q 2384 4250 1959 4250 
Q 1534 4250 1286 3958 
Q 1038 3666 1038 3163 
Q 1038 2656 1286 2365 
Q 1534 2075 1959 2075 
z
" transform="scale(0.015625)"/>
       </defs>
       <use xlink:href="#DejaVuSans-39"/>
       <use xlink:href="#DejaVuSans-30" x="63.623047"/>
       <use xlink:href="#DejaVuSans-30" x="127.246094"/>
      </g>
     </g>
    </g>
    <g id="xtick_5">
     <g id="line2d_5">
      <g>
       <use xlink:href="#m5a5430b03c" x="830.475645" y="961.2" style="stroke: #000000; stroke-width: 0.8"/>
      </g>
     </g>
     <g id="text_5">
      <!-- 1000 -->
      <g transform="translate(817.750645 975.798437) scale(0.1 -0.1)">
       <defs>
        <path id="DejaVuSans-31" d="M 794 531 
L 1825 531 
L 1825 4091 
L 703 3866 
L 703 4441 
L 1819 4666 
L 2450 4666 
L 2450 531 
L 3481 531 
L 3481 0 
L 794 0 
L 794 531 
z
" transform="scale(0.015625)"/>
       </defs>
       <use xlink:href="#DejaVuSans-31"/>
       <use xlink:href="#DejaVuSans-30" x="63.623047"/>
       <use xlink:href="#DejaVuSans-30" x="127.246094"/>
       <use xlink:href="#DejaVuSans-30" x="190.869141"/>
      </g>
     </g>
    </g>
    <g id="xtick_6">
     <g id="line2d_6">
      <g>
       <use xlink:href="#m5a5430b03c" x="897.779695" y="961.2" style="stroke: #000000; stroke-width: 0.8"/>
      </g>
     </g>
     <g id="text_6">
      <!-- 1100 -->
      <g transform="translate(885.054695 975.798437) scale(0.1 -0.1)">
       <use xlink:href="#DejaVuSans-31"/>
       <use xlink:href="#DejaVuSans-31" x="63.623047"/>
       <use xlink:href="#DejaVuSans-30" x="127.246094"/>
       <use xlink:href="#DejaVuSans-30" x="190.869141"/>
      </g>
     </g>
    </g>
    <g id="xtick_7">
     <g id="line2d_7">
      <g>
       <use xlink:href="#m5a5430b03c" x="965.083745" y="961.2" style="stroke: #000000; stroke-width: 0.8"/>
      </g>
     </g>
     <g id="text_7">
      <!-- 1200 -->
      <g transform="translate(952.358745 975.798437) scale(0.1 -0.1)">
       <defs>
        <path id="DejaVuSans-32" d="M 1228 531 
L 3431 531 
L 3431 0 
L 469 0 
L 469 531 
Q 828 903 1448 1529 
Q 2069 2156 2228 2338 
Q 2531 2678 2651 2914 
Q 2772 3150 2772 3378 
Q 2772 3750 2511 3984 
Q 2250 4219 1831 4219 
Q 1534 4219 1204 4116 
Q 875 4013 500 3803 
L 500 4441 
Q 881 4594 1212 4672 
Q 1544 4750 1819 4750 
Q 2544 4750 2975 4387 
Q 3406 4025 3406 3419 
Q 3406 3131 3298 2873 
Q 3191 2616 2906 2266 
Q 2828 2175 2409 1742 
Q 1991 1309 1228 531 
z
" transform="scale(0.015625)"/>
       </defs>
       <use xlink:href="#DejaVuSans-31"/>
       <use xlink:href="#DejaVuSans-32" x="63.623047"/>
       <use xlink:href="#DejaVuSans-30" x="127.246094"/>
       <use xlink:href="#DejaVuSans-30" x="190.869141"/>
      </g>
     </g>
    </g>
   </g>
   <g id="matplotlib.axis_2">
    <g id="ytick_1">
     <g id="line2d_8">
      <defs>
       <path id="m5825a3bd7b" d="M 0 0 
L -3.5 0 
" style="stroke: #000000; stroke-width: 0.8"/>
      </defs>
      <g>
       <use xlink:href="#m5825a3bd7b" x="498.914297" y="866.238041" style="stroke: #000000; stroke-width: 0.8"/>
      </g>
     </g>
     <g id="text_8">
      <!-- 400 -->
      <g transform="translate(472.826797 870.037259) scale(0.1 -0.1)">
       <defs>
        <path id="DejaVuSans-34" d="M 2419 4116 
L 825 1625 
L 2419 1625 
L 2419 4116 
z
M 2253 4666 
L 3047 4666 
L 3047 1625 
L 3713 1625 
L 3713 1100 
L 3047 1100 
L 3047 0 
L 2419 0 
L 2419 1100 
L 313 1100 
L 313 1709 
L 2253 4666 
z
" transform="scale(0.015625)"/>
       </defs>
       <use xlink:href="#DejaVuSans-34"/>
       <use xlink:href="#DejaVuSans-30" x="63.623047"/>
       <use xlink:href="#DejaVuSans-30" x="127.246094"/>
      </g>
     </g>
    </g>
    <g id="ytick_2">
     <g id="line2d_9">
      <g>
       <use xlink:href="#m5825a3bd7b" x="498.914297" y="731.629941" style="stroke: #000000; stroke-width: 0.8"/>
      </g>
     </g>
     <g id="text_9">
      <!-- 600 -->
      <g transform="translate(472.826797 735.429159) scale(0.1 -0.1)">
       <use xlink:href="#DejaVuSans-36"/>
       <use xlink:href="#DejaVuSans-30" x="63.623047"/>
       <use xlink:href="#DejaVuSans-30" x="127.246094"/>
      </g>
     </g>
    </g>
    <g id="ytick_3">
     <g id="line2d_10">
      <g>
       <use xlink:href="#m5825a3bd7b" x="498.914297" y="597.021841" style="stroke: #000000; stroke-width: 0.8"/>
      </g>
     </g>
     <g id="text_10">
      <!-- 800 -->
      <g transform="translate(472.826797 600.82106) scale(0.1 -0.1)">
       <use xlink:href="#DejaVuSans-38"/>
       <use xlink:href="#DejaVuSans-30" x="63.623047"/>
       <use xlink:href="#DejaVuSans-30" x="127.246094"/>
      </g>
     </g>
    </g>
    <g id="ytick_4">
     <g id="line2d_11">
      <g>
       <use xlink:href="#m5825a3bd7b" x="498.914297" y="462.413741" style="stroke: #000000; stroke-width: 0.8"/>
      </g>
     </g>
     <g id="text_11">
      <!-- 1000 -->
      <g transform="translate(466.464297 466.21296) scale(0.1 -0.1)">
       <use xlink:href="#DejaVuSans-31"/>
       <use xlink:href="#DejaVuSans-30" x="63.623047"/>
       <use xlink:href="#DejaVuSans-30" x="127.246094"/>
       <use xlink:href="#DejaVuSans-30" x="190.869141"/>
      </g>
     </g>
    </g>
    <g id="ytick_5">
     <g id="line2d_12">
      <g>
       <use xlink:href="#m5825a3bd7b" x="498.914297" y="327.805641" style="stroke: #000000; stroke-width: 0.8"/>
      </g>
     </g>
     <g id="text_12">
      <!-- 1200 -->
      <g transform="translate(466.464297 331.60486) scale(0.1 -0.1)">
       <use xlink:href="#DejaVuSans-31"/>
       <use xlink:href="#DejaVuSans-32" x="63.623047"/>
       <use xlink:href="#DejaVuSans-30" x="127.246094"/>
       <use xlink:href="#DejaVuSans-30" x="190.869141"/>
      </g>
     </g>
    </g>
    <g id="ytick_6">
     <g id="line2d_13">
      <g>
       <use xlink:href="#m5825a3bd7b" x="498.914297" y="193.197541" style="stroke: #000000; stroke-width: 0.8"/>
      </g>
     </g>
     <g id="text_13">
      <!-- 1400 -->
      <g transform="translate(466.464297 196.99676) scale(0.1 -0.1)">
       <use xlink:href="#DejaVuSans-31"/>
       <use xlink:href="#DejaVuSans-34" x="63.623047"/>
       <use xlink:href="#DejaVuSans-30" x="127.246094"/>
       <use xlink:href="#DejaVuSans-30" x="190.869141"/>
      </g>
     </g>
    </g>
   </g>
   <g id="LineCollection_1">
    <path d="M 522.450751 923.4 
L 543.645102 921.205935 
L 563.97723 918.856597 
L 583.449504 916.33623 
L 602.065498 913.630081 
L 619.830088 910.724389 
L 636.749511 907.606363 
L 652.831406 904.264148 
L 668.08481 900.686781 
L 682.520108 896.864139 
L 696.148938 892.786903 
L 708.984022 888.446532 
L 721.038939 883.835288 
L 732.327828 878.946332 
L 742.865057 873.773932 
L 752.664875 868.31381 
L 761.741157 862.563649 
L 770.107307 856.523728 
L 777.776446 850.197609 
L 784.761944 843.592724 
L 791.07828 836.720672 
L 796.742103 829.597052 
L 801.773243 822.240786 
L 806.195425 814.673017 
L 810.036492 806.915806 
L 813.32812 798.990933 
L 816.10513 790.919002 
L 818.404608 782.718964 
L 820.265015 774.408023 
L 821.725429 766.001808 
L 822.82497 757.514709 
L 823.602413 748.960232 
L 824.095939 740.351336 
L 824.342999 731.700693 
L 824.380228 723.020872 
L 824.243397 714.32445 
L 823.586064 696.932402 
L 822.133546 671.028453 
L 821.210846 654.010522 
L 820.58503 637.323564 
L 820.445304 629.131258 
L 820.450611 621.052716 
L 820.62084 613.096509 
L 820.973967 605.270091 
L 821.526001 597.579637 
L 822.290974 590.029883 
L 823.280956 582.623987 
L 824.506104 575.363415 
L 825.974737 568.247868 
L 827.693431 561.275267 
L 829.667111 554.441796 
L 831.89912 547.74202 
L 834.391255 541.169043 
L 837.14374 534.714712 
L 840.155143 528.369819 
L 843.422235 522.124283 
L 846.939814 515.967283 
L 850.700522 509.887326 
L 854.694672 503.872252 
L 858.910104 497.909178 
L 863.332106 491.984401 
L 867.943374 486.08328 
L 877.651692 474.28799 
L 903.586753 443.91219 
L 908.811354 437.508747 
L 913.963595 430.939901 
L 919.004152 424.178856 
L 923.891977 417.198441 
L 928.584466 409.971588 
L 933.037737 402.471883 
L 937.207081 394.674153 
L 941.04763 386.555004 
L 944.515221 378.093206 
L 947.56741 369.269825 
L 950.164525 360.06804 
L 952.270592 350.472677 
L 953.854025 340.469561 
L 954.888014 330.044856 
L 955.350639 319.184576 
L 955.224821 307.874363 
L 954.498227 296.09957 
L 953.163266 283.84562 
L 951.21721 271.098537 
L 948.662499 257.845579 
L 945.507186 244.075896 
L 941.765516 229.781167 
L 937.458594 214.956198 
L 932.615114 199.599477 
L 927.272132 183.713691 
L 921.509588 167.4 
L 921.509588 167.4 
" clip-path="url(#pce0a60fee4)" style="fill: none; stroke: #1f77b4; stroke-width: 1.5"/>
    <path d="M 521.550056 914.696957 
L 542.64114 912.514199 
L 562.854588 910.179391 
L 582.191476 907.677617 
L 600.653983 904.995161 
L 618.245488 902.11955 
L 634.970656 899.039573 
L 650.835519 895.745308 
L 665.847526 892.22813 
L 680.015602 888.480723 
L 693.350177 884.497081 
L 705.863212 880.272503 
L 717.568218 875.803581 
L 728.480249 871.088193 
L 738.615903 866.125474 
L 747.993301 860.915796 
L 756.63206 855.460738 
L 764.553257 849.763052 
L 771.779385 843.826622 
L 778.334302 837.656426 
L 784.243168 831.258488 
L 789.532377 824.639827 
L 794.229489 817.808407 
L 798.363139 810.773079 
L 801.96296 803.543522 
L 805.059485 796.130182 
L 807.684051 788.54421 
L 809.868698 780.797391 
L 811.646062 772.902079 
L 813.049267 764.871129 
L 814.111809 756.717818 
L 814.86744 748.455781 
L 815.350054 740.098931 
L 815.593561 731.661385 
L 815.631766 723.157389 
L 815.49825 714.601244 
L 815.226239 706.007224 
L 814.848486 697.389507 
L 814.397144 688.762091 
L 813.903643 680.138725 
L 813.398565 671.532829 
L 812.91153 662.957423 
L 812.471068 654.425052 
L 812.104509 645.947717 
L 811.837868 637.536798 
L 811.695729 629.202994 
L 811.701146 620.956252 
L 811.875533 612.8057 
L 812.238572 604.759591 
L 812.808113 596.825241 
L 813.600091 589.008971 
L 814.628441 581.316056 
L 815.905023 573.750673 
L 817.439553 566.315856 
L 819.23954 559.013453 
L 821.310234 551.844088 
L 823.654576 544.807123 
L 826.273163 537.900632 
L 829.164216 531.121373 
L 832.323563 524.464769 
L 835.744628 517.92489 
L 839.41843 511.494445 
L 843.333596 505.164775 
L 847.476382 498.925858 
L 851.830705 492.766311 
L 856.378191 486.673406 
L 861.098231 480.633088 
L 865.968051 474.630004 
L 870.9628 468.647532 
L 876.055641 462.667824 
L 881.217869 456.671853 
L 886.419032 450.639466 
L 891.627078 444.54945 
L 896.808505 438.379598 
L 901.928541 432.106794 
L 906.951326 425.707092 
L 911.840122 419.15582 
L 916.557535 412.42768 
L 921.065754 405.496861 
L 925.326814 398.337166 
L 929.302865 390.922142 
L 932.956478 383.22522 
L 936.250951 375.219872 
L 939.15065 366.87977 
L 941.621365 358.17896 
L 943.63068 349.092045 
L 945.148379 339.59438 
L 946.146856 329.662275 
L 946.601562 319.273214 
L 946.491466 308.406083 
L 945.79954 297.041408 
L 944.513272 285.161607 
L 942.625195 272.751256 
L 940.133446 259.797363 
L 937.042349 246.289659 
L 933.36302 232.220897 
L 929.114002 217.587169 
L 924.321921 202.388233 
L 919.022171 186.627855 
L 913.259627 170.314164 
" clip-path="url(#pce0a60fee4)" style="fill: none; stroke: #8c564b; stroke-width: 1.5"/>
    <path d="M 520.649361 905.993913 
L 541.688778 903.816503 
L 561.791236 901.494515 
L 581.001068 899.009179 
L 599.319107 896.347713 
L 616.747279 893.498801 
L 633.288714 890.45266 
L 648.947843 887.201114 
L 663.730513 883.737668 
L 677.64411 880.05757 
L 690.697717 876.157866 
L 702.902294 872.037427 
L 714.270916 867.696936 
L 724.81904 863.138801 
L 734.564822 858.366976 
L 743.529422 853.38663 
L 751.737273 848.203675 
L 759.216191 842.824118 
L 765.997256 837.253317 
L 772.114347 831.495251 
L 777.603316 825.551964 
L 782.500881 819.423388 
L 786.843414 813.107664 
L 790.665901 806.601924 
L 794.0013 799.903409 
L 796.880396 793.010611 
L 799.332119 785.924219 
L 801.384146 778.647673 
L 803.063596 771.187315 
L 804.397639 763.552196 
L 805.413944 755.753678 
L 806.140923 747.804928 
L 806.607808 739.720424 
L 806.844601 731.515506 
L 806.881933 723.205999 
L 806.750883 714.807913 
L 806.108974 697.809648 
L 804.663116 672.028954 
L 803.729709 654.803027 
L 803.089613 637.686005 
L 802.946204 629.197247 
L 802.953621 620.769091 
L 803.1349 612.411324 
L 803.5115 604.133147 
L 804.103158 595.943218 
L 804.927705 587.849691 
L 806.000879 579.860242 
L 807.336111 571.982068 
L 808.9443 564.22184 
L 810.833603 556.585606 
L 813.00924 549.078638 
L 815.473352 541.705223 
L 818.224927 534.468416 
L 821.259797 527.36979 
L 824.570723 520.409194 
L 828.147536 513.584566 
L 831.977329 506.891811 
L 836.044669 500.324759 
L 840.331803 493.875194 
L 844.818843 487.532955 
L 849.483927 481.286074 
L 854.303345 475.120943 
L 864.246396 463.040025 
L 869.424993 456.959171 
L 884.952039 438.892631 
L 890.068941 432.799614 
L 895.097386 426.639021 
L 900.002755 420.388923 
L 904.75042 414.026775 
L 909.306103 407.529299 
L 913.636227 400.872281 
L 917.708201 394.030299 
L 921.490606 386.976409 
L 924.953221 379.681854 
L 928.06687 372.115897 
L 930.803134 364.245866 
L 933.134005 356.037526 
L 935.031622 347.455758 
L 936.468236 338.465516 
L 937.4165 329.032893 
L 937.850096 319.126136 
L 937.744635 308.716462 
L 937.078695 297.778595 
L 935.834897 286.291044 
L 934.000902 274.236175 
L 931.570299 261.600165 
L 928.543384 248.372929 
L 924.92784 234.548062 
L 920.739367 220.12285 
L 916.00228 205.09834 
L 910.750118 189.479478 
L 905.009665 173.228328 
L 905.009665 173.228328 
" clip-path="url(#pce0a60fee4)" style="fill: none; stroke: #17becf; stroke-width: 1.5"/>
   </g>
   <g id="patch_3">
    <path d="M 498.914297 961.2 
L 498.914297 129.6 
" style="fill: none; stroke: #000000; stroke-width: 0.8; stroke-linejoin: miter; stroke-linecap: square"/>
   </g>
   <g id="patch_4">
    <path d="M 977.085703 961.2 
L 977.085703 129.6 
" style="fill: none; stroke: #000000; stroke-width: 0.8; stroke-linejoin: miter; stroke-linecap: square"/>
   </g>
   <g id="patch_5">
    <path d="M 498.914297 961.2 
L 977.085703 961.2 
" style="fill: none; stroke: #000000; stroke-width: 0.8; stroke-linejoin: miter; stroke-linecap: square"/>
   </g>
   <g id="patch_6">
    <path d="M 498.914297 129.6 
L 977.085703 129.6 
" style="fill: none; stroke: #000000; stroke-width: 0.8; stroke-linejoin: miter; stroke-linecap: square"/>
   </g>
  </g>
 </g>
 <defs>
  <clipPath id="pce0a60fee4">
   <rect x="498.914297" y="129.6" width="478.171407" height="831.6"/>
  </clipPath>
 </defs>
</svg>
