<?xml version="1.0" encoding="utf-8" standalone="no"?>
<!DOCTYPE svg PUBLIC "-//W3C//DTD SVG 1.1//EN"
  "http://www.w3.org/Graphics/SVG/1.1/DTD/svg11.dtd">
<svg xmlns:xlink="http://www.w3.org/1999/xlink" width="1440pt" height="1080pt" viewBox="0 0 1440 1080" xmlns="http://www.w3.org/2000/svg" version="1.1">
 <metadata>
  <rdf:RDF xmlns:dc="http://purl.org/dc/elements/1.1/" xmlns:cc="http://creativecommons.org/ns#" xmlns:rdf="http://www.w3.org/1999/02/22-rdf-syntax-ns#">
   <cc:Work>
    <dc:type rdf:resource="http://purl.org/dc/dcmitype/StillImage"/>
    <dc:date>2023-12-11T12:06:56.853294</dc:date>
    <dc:format>image/svg+xml</dc:format>
    <dc:creator>
     <cc:Agent>
      <dc:title>Matplotlib v3.7.1, https://matplotlib.org/</dc:title>
     </cc:Agent>
    </dc:creator>
   </cc:Work>
  </rdf:RDF>
 </metadata>
 <defs>
  <style type="text/css">*{stroke-linejoin: round; stroke-linecap: butt}</style>
 </defs>
 <g id="figure_1">
  <g id="patch_1">
   <path d="M 0 1080 
L 1440 1080 
L 1440 0 
L 0 0 
z
" style="fill: #ffffff"/>
  </g>
  <g id="axes_1">
   <g id="patch_2">
    <path d="M 240.975645 961.2 
L 1235.024355 961.2 
L 1235.024355 129.6 
L 240.975645 129.6 
z
" style="fill: #ffffff"/>
   </g>
   <g id="matplotlib.axis_1">
    <g id="xtick_1">
     <g id="line2d_1">
      <defs>
       <path id="m8595d8edf8" d="M 0 0 
L 0 3.5 
" style="stroke: #000000; stroke-width: 0.8"/>
      </defs>
      <g>
       <use xlink:href="#m8595d8edf8" x="259.616439" y="961.2" style="stroke: #000000; stroke-width: 0.8"/>
      </g>
     </g>
     <g id="text_1">
      <!-- 100 -->
      <g transform="translate(250.072689 975.798437) scale(0.1 -0.1)">
       <defs>
        <path id="DejaVuSans-31" d="M 794 531 
L 1825 531 
L 1825 4091 
L 703 3866 
L 703 4441 
L 1819 4666 
L 2450 4666 
L 2450 531 
L 3481 531 
L 3481 0 
L 794 0 
L 794 531 
z
" transform="scale(0.015625)"/>
        <path id="DejaVuSans-30" d="M 2034 4250 
Q 1547 4250 1301 3770 
Q 1056 3291 1056 2328 
Q 1056 1369 1301 889 
Q 1547 409 2034 409 
Q 2525 409 2770 889 
Q 3016 1369 3016 2328 
Q 3016 3291 2770 3770 
Q 2525 4250 2034 4250 
z
M 2034 4750 
Q 2819 4750 3233 4129 
Q 3647 3509 3647 2328 
Q 3647 1150 3233 529 
Q 2819 -91 2034 -91 
Q 1250 -91 836 529 
Q 422 1150 422 2328 
Q 422 3509 836 4129 
Q 1250 4750 2034 4750 
z
" transform="scale(0.015625)"/>
       </defs>
       <use xlink:href="#DejaVuSans-31"/>
       <use xlink:href="#DejaVuSans-30" x="63.623047"/>
       <use xlink:href="#DejaVuSans-30" x="127.246094"/>
      </g>
     </g>
    </g>
    <g id="xtick_2">
     <g id="line2d_2">
      <g>
       <use xlink:href="#m8595d8edf8" x="377.96555" y="961.2" style="stroke: #000000; stroke-width: 0.8"/>
      </g>
     </g>
     <g id="text_2">
      <!-- 200 -->
      <g transform="translate(368.4218 975.798437) scale(0.1 -0.1)">
       <defs>
        <path id="DejaVuSans-32" d="M 1228 531 
L 3431 531 
L 3431 0 
L 469 0 
L 469 531 
Q 828 903 1448 1529 
Q 2069 2156 2228 2338 
Q 2531 2678 2651 2914 
Q 2772 3150 2772 3378 
Q 2772 3750 2511 3984 
Q 2250 4219 1831 4219 
Q 1534 4219 1204 4116 
Q 875 4013 500 3803 
L 500 4441 
Q 881 4594 1212 4672 
Q 1544 4750 1819 4750 
Q 2544 4750 2975 4387 
Q 3406 4025 3406 3419 
Q 3406 3131 3298 2873 
Q 3191 2616 2906 2266 
Q 2828 2175 2409 1742 
Q 1991 1309 1228 531 
z
" transform="scale(0.015625)"/>
       </defs>
       <use xlink:href="#DejaVuSans-32"/>
       <use xlink:href="#DejaVuSans-30" x="63.623047"/>
       <use xlink:href="#DejaVuSans-30" x="127.246094"/>
      </g>
     </g>
    </g>
    <g id="xtick_3">
     <g id="line2d_3">
      <g>
       <use xlink:href="#m8595d8edf8" x="496.314661" y="961.2" style="stroke: #000000; stroke-width: 0.8"/>
      </g>
     </g>
     <g id="text_3">
      <!-- 300 -->
      <g transform="translate(486.770911 975.798437) scale(0.1 -0.1)">
       <defs>
        <path id="DejaVuSans-33" d="M 2597 2516 
Q 3050 2419 3304 2112 
Q 3559 1806 3559 1356 
Q 3559 666 3084 287 
Q 2609 -91 1734 -91 
Q 1441 -91 1130 -33 
Q 819 25 488 141 
L 488 750 
Q 750 597 1062 519 
Q 1375 441 1716 441 
Q 2309 441 2620 675 
Q 2931 909 2931 1356 
Q 2931 1769 2642 2001 
Q 2353 2234 1838 2234 
L 1294 2234 
L 1294 2753 
L 1863 2753 
Q 2328 2753 2575 2939 
Q 2822 3125 2822 3475 
Q 2822 3834 2567 4026 
Q 2313 4219 1838 4219 
Q 1578 4219 1281 4162 
Q 984 4106 628 3988 
L 628 4550 
Q 988 4650 1302 4700 
Q 1616 4750 1894 4750 
Q 2613 4750 3031 4423 
Q 3450 4097 3450 3541 
Q 3450 3153 3228 2886 
Q 3006 2619 2597 2516 
z
" transform="scale(0.015625)"/>
       </defs>
       <use xlink:href="#DejaVuSans-33"/>
       <use xlink:href="#DejaVuSans-30" x="63.623047"/>
       <use xlink:href="#DejaVuSans-30" x="127.246094"/>
      </g>
     </g>
    </g>
    <g id="xtick_4">
     <g id="line2d_4">
      <g>
       <use xlink:href="#m8595d8edf8" x="614.663771" y="961.2" style="stroke: #000000; stroke-width: 0.8"/>
      </g>
     </g>
     <g id="text_4">
      <!-- 400 -->
      <g transform="translate(605.120021 975.798437) scale(0.1 -0.1)">
       <defs>
        <path id="DejaVuSans-34" d="M 2419 4116 
L 825 1625 
L 2419 1625 
L 2419 4116 
z
M 2253 4666 
L 3047 4666 
L 3047 1625 
L 3713 1625 
L 3713 1100 
L 3047 1100 
L 3047 0 
L 2419 0 
L 2419 1100 
L 313 1100 
L 313 1709 
L 2253 4666 
z
" transform="scale(0.015625)"/>
       </defs>
       <use xlink:href="#DejaVuSans-34"/>
       <use xlink:href="#DejaVuSans-30" x="63.623047"/>
       <use xlink:href="#DejaVuSans-30" x="127.246094"/>
      </g>
     </g>
    </g>
    <g id="xtick_5">
     <g id="line2d_5">
      <g>
       <use xlink:href="#m8595d8edf8" x="733.012882" y="961.2" style="stroke: #000000; stroke-width: 0.8"/>
      </g>
     </g>
     <g id="text_5">
      <!-- 500 -->
      <g transform="translate(723.469132 975.798437) scale(0.1 -0.1)">
       <defs>
        <path id="DejaVuSans-35" d="M 691 4666 
L 3169 4666 
L 3169 4134 
L 1269 4134 
L 1269 2991 
Q 1406 3038 1543 3061 
Q 1681 3084 1819 3084 
Q 2600 3084 3056 2656 
Q 3513 2228 3513 1497 
Q 3513 744 3044 326 
Q 2575 -91 1722 -91 
Q 1428 -91 1123 -41 
Q 819 9 494 109 
L 494 744 
Q 775 591 1075 516 
Q 1375 441 1709 441 
Q 2250 441 2565 725 
Q 2881 1009 2881 1497 
Q 2881 1984 2565 2268 
Q 2250 2553 1709 2553 
Q 1456 2553 1204 2497 
Q 953 2441 691 2322 
L 691 4666 
z
" transform="scale(0.015625)"/>
       </defs>
       <use xlink:href="#DejaVuSans-35"/>
       <use xlink:href="#DejaVuSans-30" x="63.623047"/>
       <use xlink:href="#DejaVuSans-30" x="127.246094"/>
      </g>
     </g>
    </g>
    <g id="xtick_6">
     <g id="line2d_6">
      <g>
       <use xlink:href="#m8595d8edf8" x="851.361992" y="961.2" style="stroke: #000000; stroke-width: 0.8"/>
      </g>
     </g>
     <g id="text_6">
      <!-- 600 -->
      <g transform="translate(841.818242 975.798437) scale(0.1 -0.1)">
       <defs>
        <path id="DejaVuSans-36" d="M 2113 2584 
Q 1688 2584 1439 2293 
Q 1191 2003 1191 1497 
Q 1191 994 1439 701 
Q 1688 409 2113 409 
Q 2538 409 2786 701 
Q 3034 994 3034 1497 
Q 3034 2003 2786 2293 
Q 2538 2584 2113 2584 
z
M 3366 4563 
L 3366 3988 
Q 3128 4100 2886 4159 
Q 2644 4219 2406 4219 
Q 1781 4219 1451 3797 
Q 1122 3375 1075 2522 
Q 1259 2794 1537 2939 
Q 1816 3084 2150 3084 
Q 2853 3084 3261 2657 
Q 3669 2231 3669 1497 
Q 3669 778 3244 343 
Q 2819 -91 2113 -91 
Q 1303 -91 875 529 
Q 447 1150 447 2328 
Q 447 3434 972 4092 
Q 1497 4750 2381 4750 
Q 2619 4750 2861 4703 
Q 3103 4656 3366 4563 
z
" transform="scale(0.015625)"/>
       </defs>
       <use xlink:href="#DejaVuSans-36"/>
       <use xlink:href="#DejaVuSans-30" x="63.623047"/>
       <use xlink:href="#DejaVuSans-30" x="127.246094"/>
      </g>
     </g>
    </g>
    <g id="xtick_7">
     <g id="line2d_7">
      <g>
       <use xlink:href="#m8595d8edf8" x="969.711103" y="961.2" style="stroke: #000000; stroke-width: 0.8"/>
      </g>
     </g>
     <g id="text_7">
      <!-- 700 -->
      <g transform="translate(960.167353 975.798437) scale(0.1 -0.1)">
       <defs>
        <path id="DejaVuSans-37" d="M 525 4666 
L 3525 4666 
L 3525 4397 
L 1831 0 
L 1172 0 
L 2766 4134 
L 525 4134 
L 525 4666 
z
" transform="scale(0.015625)"/>
       </defs>
       <use xlink:href="#DejaVuSans-37"/>
       <use xlink:href="#DejaVuSans-30" x="63.623047"/>
       <use xlink:href="#DejaVuSans-30" x="127.246094"/>
      </g>
     </g>
    </g>
    <g id="xtick_8">
     <g id="line2d_8">
      <g>
       <use xlink:href="#m8595d8edf8" x="1088.060214" y="961.2" style="stroke: #000000; stroke-width: 0.8"/>
      </g>
     </g>
     <g id="text_8">
      <!-- 800 -->
      <g transform="translate(1078.516464 975.798437) scale(0.1 -0.1)">
       <defs>
        <path id="DejaVuSans-38" d="M 2034 2216 
Q 1584 2216 1326 1975 
Q 1069 1734 1069 1313 
Q 1069 891 1326 650 
Q 1584 409 2034 409 
Q 2484 409 2743 651 
Q 3003 894 3003 1313 
Q 3003 1734 2745 1975 
Q 2488 2216 2034 2216 
z
M 1403 2484 
Q 997 2584 770 2862 
Q 544 3141 544 3541 
Q 544 4100 942 4425 
Q 1341 4750 2034 4750 
Q 2731 4750 3128 4425 
Q 3525 4100 3525 3541 
Q 3525 3141 3298 2862 
Q 3072 2584 2669 2484 
Q 3125 2378 3379 2068 
Q 3634 1759 3634 1313 
Q 3634 634 3220 271 
Q 2806 -91 2034 -91 
Q 1263 -91 848 271 
Q 434 634 434 1313 
Q 434 1759 690 2068 
Q 947 2378 1403 2484 
z
M 1172 3481 
Q 1172 3119 1398 2916 
Q 1625 2713 2034 2713 
Q 2441 2713 2670 2916 
Q 2900 3119 2900 3481 
Q 2900 3844 2670 4047 
Q 2441 4250 2034 4250 
Q 1625 4250 1398 4047 
Q 1172 3844 1172 3481 
z
" transform="scale(0.015625)"/>
       </defs>
       <use xlink:href="#DejaVuSans-38"/>
       <use xlink:href="#DejaVuSans-30" x="63.623047"/>
       <use xlink:href="#DejaVuSans-30" x="127.246094"/>
      </g>
     </g>
    </g>
    <g id="xtick_9">
     <g id="line2d_9">
      <g>
       <use xlink:href="#m8595d8edf8" x="1206.409324" y="961.2" style="stroke: #000000; stroke-width: 0.8"/>
      </g>
     </g>
     <g id="text_9">
      <!-- 900 -->
      <g transform="translate(1196.865574 975.798437) scale(0.1 -0.1)">
       <defs>
        <path id="DejaVuSans-39" d="M 703 97 
L 703 672 
Q 941 559 1184 500 
Q 1428 441 1663 441 
Q 2288 441 2617 861 
Q 2947 1281 2994 2138 
Q 2813 1869 2534 1725 
Q 2256 1581 1919 1581 
Q 1219 1581 811 2004 
Q 403 2428 403 3163 
Q 403 3881 828 4315 
Q 1253 4750 1959 4750 
Q 2769 4750 3195 4129 
Q 3622 3509 3622 2328 
Q 3622 1225 3098 567 
Q 2575 -91 1691 -91 
Q 1453 -91 1209 -44 
Q 966 3 703 97 
z
M 1959 2075 
Q 2384 2075 2632 2365 
Q 2881 2656 2881 3163 
Q 2881 3666 2632 3958 
Q 2384 4250 1959 4250 
Q 1534 4250 1286 3958 
Q 1038 3666 1038 3163 
Q 1038 2656 1286 2365 
Q 1534 2075 1959 2075 
z
" transform="scale(0.015625)"/>
       </defs>
       <use xlink:href="#DejaVuSans-39"/>
       <use xlink:href="#DejaVuSans-30" x="63.623047"/>
       <use xlink:href="#DejaVuSans-30" x="127.246094"/>
      </g>
     </g>
    </g>
   </g>
   <g id="matplotlib.axis_2">
    <g id="ytick_1">
     <g id="line2d_10">
      <defs>
       <path id="m681922fcba" d="M 0 0 
L -3.5 0 
" style="stroke: #000000; stroke-width: 0.8"/>
      </defs>
      <g>
       <use xlink:href="#m681922fcba" x="240.975645" y="933.173306" style="stroke: #000000; stroke-width: 0.8"/>
      </g>
     </g>
     <g id="text_10">
      <!-- 100 -->
      <g transform="translate(214.888145 936.972525) scale(0.1 -0.1)">
       <use xlink:href="#DejaVuSans-31"/>
       <use xlink:href="#DejaVuSans-30" x="63.623047"/>
       <use xlink:href="#DejaVuSans-30" x="127.246094"/>
      </g>
     </g>
    </g>
    <g id="ytick_2">
     <g id="line2d_11">
      <g>
       <use xlink:href="#m681922fcba" x="240.975645" y="814.824195" style="stroke: #000000; stroke-width: 0.8"/>
      </g>
     </g>
     <g id="text_11">
      <!-- 200 -->
      <g transform="translate(214.888145 818.623414) scale(0.1 -0.1)">
       <use xlink:href="#DejaVuSans-32"/>
       <use xlink:href="#DejaVuSans-30" x="63.623047"/>
       <use xlink:href="#DejaVuSans-30" x="127.246094"/>
      </g>
     </g>
    </g>
    <g id="ytick_3">
     <g id="line2d_12">
      <g>
       <use xlink:href="#m681922fcba" x="240.975645" y="696.475085" style="stroke: #000000; stroke-width: 0.8"/>
      </g>
     </g>
     <g id="text_12">
      <!-- 300 -->
      <g transform="translate(214.888145 700.274303) scale(0.1 -0.1)">
       <use xlink:href="#DejaVuSans-33"/>
       <use xlink:href="#DejaVuSans-30" x="63.623047"/>
       <use xlink:href="#DejaVuSans-30" x="127.246094"/>
      </g>
     </g>
    </g>
    <g id="ytick_4">
     <g id="line2d_13">
      <g>
       <use xlink:href="#m681922fcba" x="240.975645" y="578.125974" style="stroke: #000000; stroke-width: 0.8"/>
      </g>
     </g>
     <g id="text_13">
      <!-- 400 -->
      <g transform="translate(214.888145 581.925193) scale(0.1 -0.1)">
       <use xlink:href="#DejaVuSans-34"/>
       <use xlink:href="#DejaVuSans-30" x="63.623047"/>
       <use xlink:href="#DejaVuSans-30" x="127.246094"/>
      </g>
     </g>
    </g>
    <g id="ytick_5">
     <g id="line2d_14">
      <g>
       <use xlink:href="#m681922fcba" x="240.975645" y="459.776863" style="stroke: #000000; stroke-width: 0.8"/>
      </g>
     </g>
     <g id="text_14">
      <!-- 500 -->
      <g transform="translate(214.888145 463.576082) scale(0.1 -0.1)">
       <use xlink:href="#DejaVuSans-35"/>
       <use xlink:href="#DejaVuSans-30" x="63.623047"/>
       <use xlink:href="#DejaVuSans-30" x="127.246094"/>
      </g>
     </g>
    </g>
    <g id="ytick_6">
     <g id="line2d_15">
      <g>
       <use xlink:href="#m681922fcba" x="240.975645" y="341.427753" style="stroke: #000000; stroke-width: 0.8"/>
      </g>
     </g>
     <g id="text_15">
      <!-- 600 -->
      <g transform="translate(214.888145 345.226972) scale(0.1 -0.1)">
       <use xlink:href="#DejaVuSans-36"/>
       <use xlink:href="#DejaVuSans-30" x="63.623047"/>
       <use xlink:href="#DejaVuSans-30" x="127.246094"/>
      </g>
     </g>
    </g>
    <g id="ytick_7">
     <g id="line2d_16">
      <g>
       <use xlink:href="#m681922fcba" x="240.975645" y="223.078642" style="stroke: #000000; stroke-width: 0.8"/>
      </g>
     </g>
     <g id="text_16">
      <!-- 700 -->
      <g transform="translate(214.888145 226.877861) scale(0.1 -0.1)">
       <use xlink:href="#DejaVuSans-37"/>
       <use xlink:href="#DejaVuSans-30" x="63.623047"/>
       <use xlink:href="#DejaVuSans-30" x="127.246094"/>
      </g>
     </g>
    </g>
   </g>
   <g id="LineCollection_1">
    <path d="M 353.842138 916.909807 
L 344.089446 882.704808 
L 335.877623 850.871004 
L 329.029724 821.091563 
L 323.418582 793.199609 
L 318.927213 767.040343 
L 315.448364 742.470492 
L 312.884086 719.357787 
L 311.145293 697.580469 
L 310.151343 677.02683 
L 309.829596 657.594767 
L 310.114976 639.191365 
L 310.949526 621.732479 
L 312.281947 605.142325 
L 314.067148 589.353056 
L 316.265789 574.304337 
L 318.843835 559.942904 
L 321.772117 546.222107 
L 325.025914 533.101451 
L 328.584549 520.546119 
L 332.431009 508.526491 
L 336.551587 497.017663 
L 340.935547 485.998964 
L 345.574816 475.453472 
L 350.463708 465.367534 
L 355.598681 455.730292 
L 360.978125 446.533223 
L 366.602202 437.769687 
L 372.472725 429.43451 
L 378.59308 421.523602 
L 384.968198 414.033632 
L 391.604548 406.961772 
L 398.510136 400.305539 
L 405.69449 394.062718 
L 413.168583 388.231389 
L 420.944676 382.810022 
L 429.03605 377.797607 
L 437.456627 373.193777 
L 446.220497 368.998883 
L 455.341389 365.213968 
L 464.832137 361.840637 
L 474.704186 358.880818 
L 484.967186 356.336444 
L 495.628693 354.209071 
L 506.693976 352.499505 
L 518.165929 351.207429 
L 530.045064 350.331087 
L 542.329549 349.867015 
L 555.015287 349.809837 
L 568.096008 350.152107 
L 581.563357 350.884205 
L 595.406982 351.994269 
L 609.61461 353.468152 
L 624.172113 355.289414 
L 639.063568 357.439317 
L 654.271307 359.896842 
L 669.775969 362.638714 
L 685.556549 365.639433 
L 701.590447 368.871316 
L 717.853528 372.304542 
L 750.963394 379.64537 
L 835.82896 399.055194 
L 852.910092 402.791484 
L 869.948686 406.374865 
L 886.910687 409.757769 
L 903.761876 412.891247 
L 920.468078 415.725016 
L 936.995376 418.20746 
L 953.310329 420.285608 
L 969.380154 421.905049 
L 985.172853 423.009777 
L 1000.657219 423.541973 
L 1015.802642 423.441729 
L 1030.5786 422.646763 
L 1044.953698 421.092283 
L 1058.89417 418.711215 
L 1072.361863 415.435206 
L 1085.312064 411.196839 
L 1097.69199 405.933342 
L 1109.44115 399.59146 
L 1120.494724 392.132194 
L 1130.789942 383.533317 
L 1140.273757 373.787968 
L 1148.908911 362.899397 
L 1156.676196 350.874034 
L 1163.572774 337.715706 
L 1169.608192 323.422753 
L 1174.800164 307.988056 
L 1179.171422 291.40095 
L 1182.747994 273.649826 
L 1185.558683 254.724632 
L 1187.6353 234.618912 
L 1189.013313 213.331353 
L 1189.73264 190.86689 
L 1189.840323 167.50912 
L 1189.840323 167.50912 
" clip-path="url(#p8a471c784e)" style="fill: none; stroke: #1f77b4; stroke-width: 1.5"/>
    <path d="M 342.460817 920.154904 
L 332.667074 885.805929 
L 324.378786 853.675701 
L 317.459362 823.585224 
L 311.782874 795.368442 
L 307.233554 768.871652 
L 303.705308 743.952926 
L 301.101236 720.481548 
L 299.333159 698.337458 
L 298.321166 677.410719 
L 297.993165 657.600983 
L 298.284448 638.81698 
L 299.137261 620.976016 
L 300.500392 604.00348 
L 302.328766 587.832371 
L 304.583047 572.402826 
L 307.229257 557.661671 
L 310.238403 543.561978 
L 313.586111 530.062635 
L 317.252274 517.12793 
L 321.22071 504.727144 
L 325.478831 492.834157 
L 330.017318 481.427068 
L 334.829809 470.487825 
L 339.912602 460.001863 
L 345.26436 449.957762 
L 350.885829 440.34691 
L 356.77957 431.16318 
L 362.949694 422.402617 
L 369.401616 414.063141 
L 376.141809 406.144253 
L 383.177577 398.646764 
L 390.516832 391.572523 
L 398.167883 384.924167 
L 406.139235 378.704874 
L 414.4394 372.918133 
L 423.07671 367.567523 
L 432.059153 362.656501 
L 441.394205 358.188206 
L 451.088681 354.165269 
L 461.148592 350.589639 
L 471.579011 347.462411 
L 482.383955 344.783679 
L 493.566265 342.552387 
L 505.127506 340.766196 
L 517.067875 339.421363 
L 529.386111 338.512627 
L 542.079424 338.033112 
L 555.143429 337.974229 
L 568.57209 338.325603 
L 582.357671 339.075 
L 596.490701 340.20827 
L 610.959948 341.709293 
L 625.752396 343.559948 
L 640.853238 345.740081 
L 656.245877 348.227486 
L 671.911935 350.997899 
L 687.83127 354.025003 
L 703.982006 357.280436 
L 720.340567 360.733818 
L 736.881727 364.352781 
L 753.578661 368.103014 
L 770.403012 371.948312 
L 787.324964 375.850646 
L 804.313324 379.770225 
L 821.335612 383.66559 
L 838.358162 387.493695 
L 855.346232 391.210018 
L 872.264123 394.768665 
L 889.075301 398.122496 
L 905.74254 401.223253 
L 922.228058 404.0217 
L 938.49368 406.467774 
L 954.500991 408.510743 
L 970.211512 410.099374 
L 985.586879 411.18211 
L 1000.58903 411.707259 
L 1015.180401 411.623186 
L 1029.324133 410.878525 
L 1042.984286 409.422385 
L 1056.126059 407.204579 
L 1068.716024 404.175855 
L 1080.722364 400.288138 
L 1092.115118 395.494778 
L 1102.866445 389.750812 
L 1112.950879 383.013229 
L 1122.345609 375.241252 
L 1131.030758 366.396616 
L 1138.989671 356.443871 
L 1146.209217 345.350676 
L 1152.680091 333.088117 
L 1158.39713 319.631026 
L 1163.359634 304.958306 
L 1167.571701 289.053271 
L 1171.04256 271.903992 
L 1173.786923 253.503648 
L 1175.825335 233.850891 
L 1177.184541 212.950213 
L 1177.897855 190.81233 
L 1178.005538 167.45456 
" clip-path="url(#p8a471c784e)" style="fill: none; stroke: #8c564b; stroke-width: 1.5"/>
    <path d="M 331.079496 923.4 
L 321.207306 888.762082 
L 312.844896 856.327965 
L 305.856904 825.919339 
L 300.118636 797.371113 
L 295.51552 770.53081 
L 291.942571 745.257963 
L 289.30387 721.423499 
L 287.512062 698.909113 
L 286.487877 677.606649 
L 286.159677 657.417481 
L 286.463035 638.251906 
L 287.340336 620.028558 
L 288.74041 602.673847 
L 290.61818 586.121436 
L 292.934334 570.311745 
L 295.655002 555.191502 
L 298.751442 540.713322 
L 302.199733 526.835324 
L 305.980467 513.520784 
L 310.078435 500.737805 
L 314.482317 488.459024 
L 319.184362 476.661336 
L 324.180067 465.325643 
L 329.467834 454.436619 
L 335.048625 443.982491 
L 340.925584 433.954834 
L 347.103651 424.348364 
L 353.589134 415.160724 
L 360.389266 406.392243 
L 367.511749 398.045662 
L 374.964288 390.12579 
L 382.754162 382.639099 
L 390.887844 375.593242 
L 399.370721 368.99651 
L 408.206921 362.857252 
L 417.399288 357.183304 
L 426.949468 351.981472 
L 436.858105 347.257108 
L 447.125078 343.013813 
L 457.749748 339.253282 
L 468.731147 335.975253 
L 480.068098 333.177563 
L 491.759232 330.856244 
L 503.802926 329.005643 
L 516.197161 327.618525 
L 528.939342 326.686152 
L 542.026081 326.198321 
L 555.452995 326.143367 
L 569.214498 326.50814 
L 583.303627 327.277955 
L 597.711888 328.436531 
L 612.429138 329.965929 
L 627.443488 331.846481 
L 642.741232 334.056734 
L 658.306806 336.573401 
L 674.12276 339.371319 
L 690.16975 342.423424 
L 706.426543 345.70074 
L 722.87004 349.172379 
L 756.215598 356.56561 
L 840.921103 375.939577 
L 857.828943 379.638349 
L 874.639976 383.174519 
L 891.315422 386.501271 
L 907.815308 389.570894 
L 924.098547 392.335004 
L 940.123025 394.744814 
L 955.845704 396.751456 
L 971.222756 398.306367 
L 986.209765 399.361755 
L 1000.76202 399.871155 
L 1014.834997 399.790069 
L 1028.385105 399.076662 
L 1041.370847 397.692412 
L 1053.754484 395.602549 
L 1065.504283 392.775941 
L 1076.597129 389.184018 
L 1087.020962 384.79832 
L 1096.775946 379.586656 
L 1105.873159 373.508653 
L 1114.330136 366.51245 
L 1122.164157 358.534572 
L 1129.3857 349.50392 
L 1135.994797 339.348711 
L 1141.981477 328.003718 
L 1147.329453 315.415348 
L 1152.021021 301.543708 
L 1156.041479 286.3622 
L 1159.382212 269.85587 
L 1162.04246 252.019497 
L 1164.030123 232.856021 
L 1165.362007 212.375479 
L 1166.063822 190.594438 
L 1166.170752 167.4 
L 1166.170752 167.4 
" clip-path="url(#p8a471c784e)" style="fill: none; stroke: #17becf; stroke-width: 1.5"/>
   </g>
   <g id="patch_3">
    <path d="M 240.975645 961.2 
L 240.975645 129.6 
" style="fill: none; stroke: #000000; stroke-width: 0.8; stroke-linejoin: miter; stroke-linecap: square"/>
   </g>
   <g id="patch_4">
    <path d="M 1235.024355 961.2 
L 1235.024355 129.6 
" style="fill: none; stroke: #000000; stroke-width: 0.8; stroke-linejoin: miter; stroke-linecap: square"/>
   </g>
   <g id="patch_5">
    <path d="M 240.975645 961.2 
L 1235.024355 961.2 
" style="fill: none; stroke: #000000; stroke-width: 0.8; stroke-linejoin: miter; stroke-linecap: square"/>
   </g>
   <g id="patch_6">
    <path d="M 240.975645 129.6 
L 1235.024355 129.6 
" style="fill: none; stroke: #000000; stroke-width: 0.8; stroke-linejoin: miter; stroke-linecap: square"/>
   </g>
  </g>
 </g>
 <defs>
  <clipPath id="p8a471c784e">
   <rect x="240.975645" y="129.6" width="994.048711" height="831.6"/>
  </clipPath>
 </defs>
</svg>
