<?xml version="1.0" encoding="utf-8" standalone="no"?>
<!DOCTYPE svg PUBLIC "-//W3C//DTD SVG 1.1//EN"
  "http://www.w3.org/Graphics/SVG/1.1/DTD/svg11.dtd">
<svg xmlns:xlink="http://www.w3.org/1999/xlink" width="1440pt" height="1080pt" viewBox="0 0 1440 1080" xmlns="http://www.w3.org/2000/svg" version="1.1">
 <metadata>
  <rdf:RDF xmlns:dc="http://purl.org/dc/elements/1.1/" xmlns:cc="http://creativecommons.org/ns#" xmlns:rdf="http://www.w3.org/1999/02/22-rdf-syntax-ns#">
   <cc:Work>
    <dc:type rdf:resource="http://purl.org/dc/dcmitype/StillImage"/>
    <dc:date>2023-12-11T12:06:37.862578</dc:date>
    <dc:format>image/svg+xml</dc:format>
    <dc:creator>
     <cc:Agent>
      <dc:title>Matplotlib v3.7.1, https://matplotlib.org/</dc:title>
     </cc:Agent>
    </dc:creator>
   </cc:Work>
  </rdf:RDF>
 </metadata>
 <defs>
  <style type="text/css">*{stroke-linejoin: round; stroke-linecap: butt}</style>
 </defs>
 <g id="figure_1">
  <g id="patch_1">
   <path d="M 0 1080 
L 1440 1080 
L 1440 0 
L 0 0 
z
" style="fill: #ffffff"/>
  </g>
  <g id="axes_1">
   <g id="patch_2">
    <path d="M 493.118082 961.2 
L 982.881918 961.2 
L 982.881918 129.6 
L 493.118082 129.6 
z
" style="fill: #ffffff"/>
   </g>
   <g id="matplotlib.axis_1">
    <g id="xtick_1">
     <g id="line2d_1">
      <defs>
       <path id="ma5fd2bd66a" d="M 0 0 
L 0 3.5 
" style="stroke: #000000; stroke-width: 0.8"/>
      </defs>
      <g>
       <use xlink:href="#ma5fd2bd66a" x="558.189299" y="961.2" style="stroke: #000000; stroke-width: 0.8"/>
      </g>
     </g>
     <g id="text_1">
      <!-- 1000 -->
      <g transform="translate(545.464299 975.798437) scale(0.1 -0.1)">
       <defs>
        <path id="DejaVuSans-31" d="M 794 531 
L 1825 531 
L 1825 4091 
L 703 3866 
L 703 4441 
L 1819 4666 
L 2450 4666 
L 2450 531 
L 3481 531 
L 3481 0 
L 794 0 
L 794 531 
z
" transform="scale(0.015625)"/>
        <path id="DejaVuSans-30" d="M 2034 4250 
Q 1547 4250 1301 3770 
Q 1056 3291 1056 2328 
Q 1056 1369 1301 889 
Q 1547 409 2034 409 
Q 2525 409 2770 889 
Q 3016 1369 3016 2328 
Q 3016 3291 2770 3770 
Q 2525 4250 2034 4250 
z
M 2034 4750 
Q 2819 4750 3233 4129 
Q 3647 3509 3647 2328 
Q 3647 1150 3233 529 
Q 2819 -91 2034 -91 
Q 1250 -91 836 529 
Q 422 1150 422 2328 
Q 422 3509 836 4129 
Q 1250 4750 2034 4750 
z
" transform="scale(0.015625)"/>
       </defs>
       <use xlink:href="#DejaVuSans-31"/>
       <use xlink:href="#DejaVuSans-30" x="63.623047"/>
       <use xlink:href="#DejaVuSans-30" x="127.246094"/>
       <use xlink:href="#DejaVuSans-30" x="190.869141"/>
      </g>
     </g>
    </g>
    <g id="xtick_2">
     <g id="line2d_2">
      <g>
       <use xlink:href="#ma5fd2bd66a" x="626.232733" y="961.2" style="stroke: #000000; stroke-width: 0.8"/>
      </g>
     </g>
     <g id="text_2">
      <!-- 1100 -->
      <g transform="translate(613.507733 975.798437) scale(0.1 -0.1)">
       <use xlink:href="#DejaVuSans-31"/>
       <use xlink:href="#DejaVuSans-31" x="63.623047"/>
       <use xlink:href="#DejaVuSans-30" x="127.246094"/>
       <use xlink:href="#DejaVuSans-30" x="190.869141"/>
      </g>
     </g>
    </g>
    <g id="xtick_3">
     <g id="line2d_3">
      <g>
       <use xlink:href="#ma5fd2bd66a" x="694.276167" y="961.2" style="stroke: #000000; stroke-width: 0.8"/>
      </g>
     </g>
     <g id="text_3">
      <!-- 1200 -->
      <g transform="translate(681.551167 975.798437) scale(0.1 -0.1)">
       <defs>
        <path id="DejaVuSans-32" d="M 1228 531 
L 3431 531 
L 3431 0 
L 469 0 
L 469 531 
Q 828 903 1448 1529 
Q 2069 2156 2228 2338 
Q 2531 2678 2651 2914 
Q 2772 3150 2772 3378 
Q 2772 3750 2511 3984 
Q 2250 4219 1831 4219 
Q 1534 4219 1204 4116 
Q 875 4013 500 3803 
L 500 4441 
Q 881 4594 1212 4672 
Q 1544 4750 1819 4750 
Q 2544 4750 2975 4387 
Q 3406 4025 3406 3419 
Q 3406 3131 3298 2873 
Q 3191 2616 2906 2266 
Q 2828 2175 2409 1742 
Q 1991 1309 1228 531 
z
" transform="scale(0.015625)"/>
       </defs>
       <use xlink:href="#DejaVuSans-31"/>
       <use xlink:href="#DejaVuSans-32" x="63.623047"/>
       <use xlink:href="#DejaVuSans-30" x="127.246094"/>
       <use xlink:href="#DejaVuSans-30" x="190.869141"/>
      </g>
     </g>
    </g>
    <g id="xtick_4">
     <g id="line2d_4">
      <g>
       <use xlink:href="#ma5fd2bd66a" x="762.319602" y="961.2" style="stroke: #000000; stroke-width: 0.8"/>
      </g>
     </g>
     <g id="text_4">
      <!-- 1300 -->
      <g transform="translate(749.594602 975.798437) scale(0.1 -0.1)">
       <defs>
        <path id="DejaVuSans-33" d="M 2597 2516 
Q 3050 2419 3304 2112 
Q 3559 1806 3559 1356 
Q 3559 666 3084 287 
Q 2609 -91 1734 -91 
Q 1441 -91 1130 -33 
Q 819 25 488 141 
L 488 750 
Q 750 597 1062 519 
Q 1375 441 1716 441 
Q 2309 441 2620 675 
Q 2931 909 2931 1356 
Q 2931 1769 2642 2001 
Q 2353 2234 1838 2234 
L 1294 2234 
L 1294 2753 
L 1863 2753 
Q 2328 2753 2575 2939 
Q 2822 3125 2822 3475 
Q 2822 3834 2567 4026 
Q 2313 4219 1838 4219 
Q 1578 4219 1281 4162 
Q 984 4106 628 3988 
L 628 4550 
Q 988 4650 1302 4700 
Q 1616 4750 1894 4750 
Q 2613 4750 3031 4423 
Q 3450 4097 3450 3541 
Q 3450 3153 3228 2886 
Q 3006 2619 2597 2516 
z
" transform="scale(0.015625)"/>
       </defs>
       <use xlink:href="#DejaVuSans-31"/>
       <use xlink:href="#DejaVuSans-33" x="63.623047"/>
       <use xlink:href="#DejaVuSans-30" x="127.246094"/>
       <use xlink:href="#DejaVuSans-30" x="190.869141"/>
      </g>
     </g>
    </g>
    <g id="xtick_5">
     <g id="line2d_5">
      <g>
       <use xlink:href="#ma5fd2bd66a" x="830.363036" y="961.2" style="stroke: #000000; stroke-width: 0.8"/>
      </g>
     </g>
     <g id="text_5">
      <!-- 1400 -->
      <g transform="translate(817.638036 975.798437) scale(0.1 -0.1)">
       <defs>
        <path id="DejaVuSans-34" d="M 2419 4116 
L 825 1625 
L 2419 1625 
L 2419 4116 
z
M 2253 4666 
L 3047 4666 
L 3047 1625 
L 3713 1625 
L 3713 1100 
L 3047 1100 
L 3047 0 
L 2419 0 
L 2419 1100 
L 313 1100 
L 313 1709 
L 2253 4666 
z
" transform="scale(0.015625)"/>
       </defs>
       <use xlink:href="#DejaVuSans-31"/>
       <use xlink:href="#DejaVuSans-34" x="63.623047"/>
       <use xlink:href="#DejaVuSans-30" x="127.246094"/>
       <use xlink:href="#DejaVuSans-30" x="190.869141"/>
      </g>
     </g>
    </g>
    <g id="xtick_6">
     <g id="line2d_6">
      <g>
       <use xlink:href="#ma5fd2bd66a" x="898.40647" y="961.2" style="stroke: #000000; stroke-width: 0.8"/>
      </g>
     </g>
     <g id="text_6">
      <!-- 1500 -->
      <g transform="translate(885.68147 975.798437) scale(0.1 -0.1)">
       <defs>
        <path id="DejaVuSans-35" d="M 691 4666 
L 3169 4666 
L 3169 4134 
L 1269 4134 
L 1269 2991 
Q 1406 3038 1543 3061 
Q 1681 3084 1819 3084 
Q 2600 3084 3056 2656 
Q 3513 2228 3513 1497 
Q 3513 744 3044 326 
Q 2575 -91 1722 -91 
Q 1428 -91 1123 -41 
Q 819 9 494 109 
L 494 744 
Q 775 591 1075 516 
Q 1375 441 1709 441 
Q 2250 441 2565 725 
Q 2881 1009 2881 1497 
Q 2881 1984 2565 2268 
Q 2250 2553 1709 2553 
Q 1456 2553 1204 2497 
Q 953 2441 691 2322 
L 691 4666 
z
" transform="scale(0.015625)"/>
       </defs>
       <use xlink:href="#DejaVuSans-31"/>
       <use xlink:href="#DejaVuSans-35" x="63.623047"/>
       <use xlink:href="#DejaVuSans-30" x="127.246094"/>
       <use xlink:href="#DejaVuSans-30" x="190.869141"/>
      </g>
     </g>
    </g>
    <g id="xtick_7">
     <g id="line2d_7">
      <g>
       <use xlink:href="#ma5fd2bd66a" x="966.449904" y="961.2" style="stroke: #000000; stroke-width: 0.8"/>
      </g>
     </g>
     <g id="text_7">
      <!-- 1600 -->
      <g transform="translate(953.724904 975.798437) scale(0.1 -0.1)">
       <defs>
        <path id="DejaVuSans-36" d="M 2113 2584 
Q 1688 2584 1439 2293 
Q 1191 2003 1191 1497 
Q 1191 994 1439 701 
Q 1688 409 2113 409 
Q 2538 409 2786 701 
Q 3034 994 3034 1497 
Q 3034 2003 2786 2293 
Q 2538 2584 2113 2584 
z
M 3366 4563 
L 3366 3988 
Q 3128 4100 2886 4159 
Q 2644 4219 2406 4219 
Q 1781 4219 1451 3797 
Q 1122 3375 1075 2522 
Q 1259 2794 1537 2939 
Q 1816 3084 2150 3084 
Q 2853 3084 3261 2657 
Q 3669 2231 3669 1497 
Q 3669 778 3244 343 
Q 2819 -91 2113 -91 
Q 1303 -91 875 529 
Q 447 1150 447 2328 
Q 447 3434 972 4092 
Q 1497 4750 2381 4750 
Q 2619 4750 2861 4703 
Q 3103 4656 3366 4563 
z
" transform="scale(0.015625)"/>
       </defs>
       <use xlink:href="#DejaVuSans-31"/>
       <use xlink:href="#DejaVuSans-36" x="63.623047"/>
       <use xlink:href="#DejaVuSans-30" x="127.246094"/>
       <use xlink:href="#DejaVuSans-30" x="190.869141"/>
      </g>
     </g>
    </g>
   </g>
   <g id="matplotlib.axis_2">
    <g id="ytick_1">
     <g id="line2d_8">
      <defs>
       <path id="m1c727da01c" d="M 0 0 
L -3.5 0 
" style="stroke: #000000; stroke-width: 0.8"/>
      </defs>
      <g>
       <use xlink:href="#m1c727da01c" x="493.118082" y="936.135708" style="stroke: #000000; stroke-width: 0.8"/>
      </g>
     </g>
     <g id="text_8">
      <!-- 200 -->
      <g transform="translate(467.030582 939.934926) scale(0.1 -0.1)">
       <use xlink:href="#DejaVuSans-32"/>
       <use xlink:href="#DejaVuSans-30" x="63.623047"/>
       <use xlink:href="#DejaVuSans-30" x="127.246094"/>
      </g>
     </g>
    </g>
    <g id="ytick_2">
     <g id="line2d_9">
      <g>
       <use xlink:href="#m1c727da01c" x="493.118082" y="800.048839" style="stroke: #000000; stroke-width: 0.8"/>
      </g>
     </g>
     <g id="text_9">
      <!-- 400 -->
      <g transform="translate(467.030582 803.848058) scale(0.1 -0.1)">
       <use xlink:href="#DejaVuSans-34"/>
       <use xlink:href="#DejaVuSans-30" x="63.623047"/>
       <use xlink:href="#DejaVuSans-30" x="127.246094"/>
      </g>
     </g>
    </g>
    <g id="ytick_3">
     <g id="line2d_10">
      <g>
       <use xlink:href="#m1c727da01c" x="493.118082" y="663.961971" style="stroke: #000000; stroke-width: 0.8"/>
      </g>
     </g>
     <g id="text_10">
      <!-- 600 -->
      <g transform="translate(467.030582 667.761189) scale(0.1 -0.1)">
       <use xlink:href="#DejaVuSans-36"/>
       <use xlink:href="#DejaVuSans-30" x="63.623047"/>
       <use xlink:href="#DejaVuSans-30" x="127.246094"/>
      </g>
     </g>
    </g>
    <g id="ytick_4">
     <g id="line2d_11">
      <g>
       <use xlink:href="#m1c727da01c" x="493.118082" y="527.875102" style="stroke: #000000; stroke-width: 0.8"/>
      </g>
     </g>
     <g id="text_11">
      <!-- 800 -->
      <g transform="translate(467.030582 531.674321) scale(0.1 -0.1)">
       <defs>
        <path id="DejaVuSans-38" d="M 2034 2216 
Q 1584 2216 1326 1975 
Q 1069 1734 1069 1313 
Q 1069 891 1326 650 
Q 1584 409 2034 409 
Q 2484 409 2743 651 
Q 3003 894 3003 1313 
Q 3003 1734 2745 1975 
Q 2488 2216 2034 2216 
z
M 1403 2484 
Q 997 2584 770 2862 
Q 544 3141 544 3541 
Q 544 4100 942 4425 
Q 1341 4750 2034 4750 
Q 2731 4750 3128 4425 
Q 3525 4100 3525 3541 
Q 3525 3141 3298 2862 
Q 3072 2584 2669 2484 
Q 3125 2378 3379 2068 
Q 3634 1759 3634 1313 
Q 3634 634 3220 271 
Q 2806 -91 2034 -91 
Q 1263 -91 848 271 
Q 434 634 434 1313 
Q 434 1759 690 2068 
Q 947 2378 1403 2484 
z
M 1172 3481 
Q 1172 3119 1398 2916 
Q 1625 2713 2034 2713 
Q 2441 2713 2670 2916 
Q 2900 3119 2900 3481 
Q 2900 3844 2670 4047 
Q 2441 4250 2034 4250 
Q 1625 4250 1398 4047 
Q 1172 3844 1172 3481 
z
" transform="scale(0.015625)"/>
       </defs>
       <use xlink:href="#DejaVuSans-38"/>
       <use xlink:href="#DejaVuSans-30" x="63.623047"/>
       <use xlink:href="#DejaVuSans-30" x="127.246094"/>
      </g>
     </g>
    </g>
    <g id="ytick_5">
     <g id="line2d_12">
      <g>
       <use xlink:href="#m1c727da01c" x="493.118082" y="391.788234" style="stroke: #000000; stroke-width: 0.8"/>
      </g>
     </g>
     <g id="text_12">
      <!-- 1000 -->
      <g transform="translate(460.668082 395.587452) scale(0.1 -0.1)">
       <use xlink:href="#DejaVuSans-31"/>
       <use xlink:href="#DejaVuSans-30" x="63.623047"/>
       <use xlink:href="#DejaVuSans-30" x="127.246094"/>
       <use xlink:href="#DejaVuSans-30" x="190.869141"/>
      </g>
     </g>
    </g>
    <g id="ytick_6">
     <g id="line2d_13">
      <g>
       <use xlink:href="#m1c727da01c" x="493.118082" y="255.701365" style="stroke: #000000; stroke-width: 0.8"/>
      </g>
     </g>
     <g id="text_13">
      <!-- 1200 -->
      <g transform="translate(460.668082 259.500584) scale(0.1 -0.1)">
       <use xlink:href="#DejaVuSans-31"/>
       <use xlink:href="#DejaVuSans-32" x="63.623047"/>
       <use xlink:href="#DejaVuSans-30" x="127.246094"/>
       <use xlink:href="#DejaVuSans-30" x="190.869141"/>
      </g>
     </g>
    </g>
   </g>
   <g id="LineCollection_1">
    <path d="M 515.380074 183.420225 
L 521.062087 193.515043 
L 521.346237 194.000142 
L 527.245483 203.685102 
L 527.551037 204.167544 
L 533.665716 213.458618 
L 533.990093 213.9331 
L 540.316692 222.846503 
L 540.65667 223.308105 
L 547.190094 231.860251 
L 547.541932 232.3046 
L 554.275633 240.512056 
L 554.635226 240.935455 
L 561.56133 248.814895 
L 561.924381 249.214403 
L 569.033811 256.782564 
L 569.396003 257.156023 
L 576.678597 264.429664 
L 577.035748 264.775675 
L 584.480376 271.771537 
L 584.828571 272.089403 
L 592.423244 278.824166 
L 592.758931 279.1138 
L 600.490916 285.604047 
L 600.810966 285.865864 
L 608.666886 292.128047 
L 608.968627 292.36285 
L 616.934563 298.41325 
L 617.215774 298.622122 
L 625.277369 304.476819 
L 625.536265 304.661021 
L 633.678811 310.335859 
L 633.914004 310.496743 
L 642.12254 316.007299 
L 642.332993 316.146236 
L 650.59239 321.507795 
L 650.777371 321.626114 
L 659.072416 326.853636 
L 659.231446 326.952587 
L 667.546924 332.060684 
L 667.679735 332.1414 
L 676.000505 337.144308 
L 676.106995 337.207787 
L 684.418063 342.119345 
L 684.498265 342.166435 
L 692.784855 347.000065 
L 692.838907 347.031456 
L 701.086527 351.80014 
L 701.114648 351.816362 
L 709.311631 356.53405 
L 717.427866 361.203375 
L 725.440095 365.830079 
L 733.334739 370.424508 
L 741.100078 374.997068 
L 748.72506 379.557518 
L 756.199356 384.114975 
L 763.513412 388.677924 
L 770.658498 393.254231 
L 777.626755 397.851164 
L 784.411241 402.475423 
L 791.005969 407.133167 
L 797.405942 411.830056 
L 803.607175 416.571293 
L 809.606712 421.361675 
L 815.402625 426.205648 
L 820.994009 431.107355 
L 826.380948 436.070696 
L 831.56448 441.099375 
L 836.546536 446.196944 
L 841.329873 451.36683 
L 845.917989 456.612362 
L 850.315035 461.936772 
L 854.525721 467.343183 
L 858.55523 472.834588 
L 862.409121 478.413813 
L 866.09326 484.083475 
L 869.613751 489.845928 
L 872.976878 495.703225 
L 876.189066 501.657071 
L 879.256845 507.708796 
L 882.186827 513.859335 
L 884.985679 520.109223 
L 887.660103 526.45861 
L 890.216813 532.907283 
L 892.662499 539.454705 
L 895.003791 546.100065 
L 897.247208 552.842335 
L 899.399101 559.680339 
L 901.465584 566.61282 
L 903.452449 573.638517 
L 905.365082 580.756241 
L 907.208361 587.964955 
L 908.986552 595.263858 
L 910.703195 602.652465 
L 912.360986 610.130694 
L 913.961655 617.698958 
L 915.505839 625.358254 
L 916.992959 633.110263 
L 918.421091 640.957454 
L 919.786836 648.903196 
L 921.085199 656.951875 
L 922.309458 665.109028 
L 923.451043 673.381481 
L 924.499412 681.777505 
L 925.441916 690.306985 
L 926.263673 698.981605 
L 926.947418 707.815047 
L 927.473342 716.823202 
L 927.818917 726.024401 
L 927.958674 735.43964 
L 927.863967 745.09281 
L 927.502683 755.01091 
L 926.838924 765.22423 
L 925.832653 775.766495 
L 924.439312 786.674949 
L 922.609441 797.990381 
L 920.288304 809.757079 
L 917.415553 822.02274 
L 913.924932 834.838333 
L 909.744052 848.25796 
L 904.794211 862.338724 
L 898.990275 877.140649 
L 892.240584 892.726656 
L 884.331353 909.406223 
" clip-path="url(#pd4e96789eb)" style="fill: none; stroke: #1f77b4; stroke-width: 1.5"/>
    <path d="M 529.611056 175.410113 
L 535.293069 185.50493 
L 541.192315 195.18989 
L 547.306994 204.480964 
L 553.633593 213.394366 
L 560.167017 221.946512 
L 566.900718 230.153968 
L 573.826822 238.033408 
L 580.936252 245.601569 
L 588.218847 252.875211 
L 595.663474 259.871072 
L 603.258148 266.605835 
L 610.990133 273.096082 
L 618.846052 279.358265 
L 626.811988 285.408666 
L 634.873582 291.263363 
L 643.016128 296.9382 
L 651.224664 302.448757 
L 659.484062 307.810316 
L 667.779107 313.037838 
L 676.094585 318.145934 
L 684.415354 323.148842 
L 692.726422 328.060401 
L 701.013012 332.894031 
L 709.260633 337.662716 
L 717.455138 342.378979 
L 725.582788 347.05487 
L 733.630303 351.701951 
L 741.584914 356.331278 
L 749.434413 360.953395 
L 757.167195 365.57832 
L 764.772297 370.215536 
L 772.239438 374.873989 
L 779.55905 379.562076 
L 786.722304 384.287649 
L 793.721139 389.058007 
L 800.548282 393.879901 
L 807.197264 398.759535 
L 813.662434 403.702569 
L 819.938969 408.714123 
L 826.022878 413.798789 
L 831.911006 418.960639 
L 837.601031 424.203233 
L 843.091456 429.529637 
L 848.381599 434.942435 
L 853.471581 440.443747 
L 858.362307 446.03525 
L 863.055441 451.718195 
L 867.553382 457.493433 
L 871.859235 463.36144 
L 875.976773 469.322344 
L 879.910401 475.375952 
L 883.66511 481.521782 
L 887.246436 487.7591 
L 890.660403 494.086947 
L 893.913472 500.504186 
L 897.012477 507.009535 
L 899.964568 513.601609 
L 902.777137 520.278968 
L 905.457751 527.040157 
L 908.01407 533.883759 
L 910.453774 540.808444 
L 912.78447 547.81302 
L 915.01361 554.896487 
L 917.148393 562.058098 
L 919.19567 569.297415 
L 921.16184 576.614371 
L 923.052743 584.009335 
L 924.873553 591.483176 
L 926.62866 599.037332 
L 928.321548 606.673884 
L 929.954676 614.395624 
L 931.529347 622.206134 
L 933.045572 630.109863 
L 934.501941 638.112206 
L 935.89547 646.219589 
L 937.221463 654.439554 
L 938.473357 662.780843 
L 939.64257 671.253492 
L 940.718334 679.868922 
L 941.687539 688.640036 
L 942.534557 697.581313 
L 943.24107 706.708911 
L 943.785894 716.040768 
L 944.144792 725.596708 
L 944.290287 735.39855 
L 944.191474 745.470217 
L 943.813815 755.837848 
L 943.118943 766.529917 
L 942.064453 777.577348 
L 940.603692 789.013638 
L 938.685539 800.87498 
L 936.254189 813.200389 
L 933.248925 826.031833 
L 929.603886 839.414363 
L 925.247834 853.396248 
L 920.103912 868.029111 
L 914.089401 883.368073 
L 907.115466 899.471892 
L 899.086904 916.403112 
" clip-path="url(#pd4e96789eb)" style="fill: none; stroke: #8c564b; stroke-width: 1.5"/>
    <path d="M 543.842038 167.4 
L 549.386152 177.249822 
L 554.990589 186.450786 
L 560.79026 195.263214 
L 566.784558 203.708445 
L 572.971878 211.807546 
L 579.349608 219.581123 
L 585.914091 227.049166 
L 592.660572 234.23096 
L 599.583155 241.145032 
L 606.67477 247.809161 
L 613.927175 254.240408 
L 621.330982 260.455183 
L 628.875723 266.469316 
L 636.549928 272.298137 
L 644.341244 277.956545 
L 652.236551 283.459073 
L 660.222099 288.819933 
L 668.28364 294.053055 
L 684.576032 304.190511 
L 700.994747 313.977797 
L 725.599884 328.22462 
L 749.871113 342.259261 
L 765.66888 351.635433 
L 781.047126 361.122356 
L 788.551653 365.930648 
L 795.91976 370.793592 
L 803.142186 375.719093 
L 810.210283 380.714473 
L 817.116017 385.786444 
L 823.851972 390.941061 
L 830.41136 396.183689 
L 836.788034 401.518962 
L 842.976507 406.95075 
L 848.97198 412.482129 
L 854.770374 418.115365 
L 860.368376 423.851902 
L 865.763481 429.692378 
L 870.954041 435.636645 
L 875.939311 441.683821 
L 880.719484 447.832351 
L 885.295724 454.080087 
L 889.670172 460.424389 
L 893.84594 466.862228 
L 897.82709 473.390295 
L 901.618579 480.005116 
L 905.2262 486.703159 
L 908.656493 493.480934 
L 911.916653 500.335083 
L 915.014418 507.262464 
L 917.95796 514.260216 
L 920.755763 521.325826 
L 923.416504 528.457178 
L 925.948935 535.652598 
L 928.361762 542.910905 
L 930.663536 550.231447 
L 934.909805 564.853462 
L 936.983226 572.568819 
L 940.780295 587.787459 
L 944.298546 603.29479 
L 947.567327 619.129459 
L 950.596348 635.345836 
L 953.371014 652.015763 
L 955.847158 669.230108 
L 956.949964 678.075333 
L 957.945179 687.099931 
L 958.816279 696.321042 
L 959.543733 705.757109 
L 960.104813 715.427869 
L 960.473417 725.354331 
L 960.619926 735.558761 
L 960.511075 746.064687 
L 960.109861 756.89692 
L 959.375479 768.081622 
L 958.26327 779.646429 
L 956.724681 791.620638 
L 954.707214 804.035466 
L 952.154336 816.924377 
L 949.005344 830.323455 
L 945.195161 844.271821 
L 940.654067 858.812034 
L 935.307358 873.990486 
L 929.074962 889.857735 
L 921.871017 906.468781 
L 913.842456 923.4 
L 913.842456 923.4 
" clip-path="url(#pd4e96789eb)" style="fill: none; stroke: #17becf; stroke-width: 1.5"/>
   </g>
   <g id="patch_3">
    <path d="M 493.118082 961.2 
L 493.118082 129.6 
" style="fill: none; stroke: #000000; stroke-width: 0.8; stroke-linejoin: miter; stroke-linecap: square"/>
   </g>
   <g id="patch_4">
    <path d="M 982.881918 961.2 
L 982.881918 129.6 
" style="fill: none; stroke: #000000; stroke-width: 0.8; stroke-linejoin: miter; stroke-linecap: square"/>
   </g>
   <g id="patch_5">
    <path d="M 493.118082 961.2 
L 982.881918 961.2 
" style="fill: none; stroke: #000000; stroke-width: 0.8; stroke-linejoin: miter; stroke-linecap: square"/>
   </g>
   <g id="patch_6">
    <path d="M 493.118082 129.6 
L 982.881918 129.6 
" style="fill: none; stroke: #000000; stroke-width: 0.8; stroke-linejoin: miter; stroke-linecap: square"/>
   </g>
  </g>
 </g>
 <defs>
  <clipPath id="pd4e96789eb">
   <rect x="493.118082" y="129.6" width="489.763837" height="831.6"/>
  </clipPath>
 </defs>
</svg>
