<?xml version="1.0" encoding="utf-8" standalone="no"?>
<!DOCTYPE svg PUBLIC "-//W3C//DTD SVG 1.1//EN"
  "http://www.w3.org/Graphics/SVG/1.1/DTD/svg11.dtd">
<svg xmlns:xlink="http://www.w3.org/1999/xlink" width="1440pt" height="1080pt" viewBox="0 0 1440 1080" xmlns="http://www.w3.org/2000/svg" version="1.1">
 <metadata>
  <rdf:RDF xmlns:dc="http://purl.org/dc/elements/1.1/" xmlns:cc="http://creativecommons.org/ns#" xmlns:rdf="http://www.w3.org/1999/02/22-rdf-syntax-ns#">
   <cc:Work>
    <dc:type rdf:resource="http://purl.org/dc/dcmitype/StillImage"/>
    <dc:date>2023-12-11T12:06:35.473414</dc:date>
    <dc:format>image/svg+xml</dc:format>
    <dc:creator>
     <cc:Agent>
      <dc:title>Matplotlib v3.7.1, https://matplotlib.org/</dc:title>
     </cc:Agent>
    </dc:creator>
   </cc:Work>
  </rdf:RDF>
 </metadata>
 <defs>
  <style type="text/css">*{stroke-linejoin: round; stroke-linecap: butt}</style>
 </defs>
 <g id="figure_1">
  <g id="patch_1">
   <path d="M 0 1080 
L 1440 1080 
L 1440 0 
L 0 0 
z
" style="fill: #ffffff"/>
  </g>
  <g id="axes_1">
   <g id="patch_2">
    <path d="M 489.553784 961.2 
L 986.446216 961.2 
L 986.446216 129.6 
L 489.553784 129.6 
z
" style="fill: #ffffff"/>
   </g>
   <g id="matplotlib.axis_1">
    <g id="xtick_1">
     <g id="line2d_1">
      <defs>
       <path id="m0ee660a947" d="M 0 0 
L 0 3.5 
" style="stroke: #000000; stroke-width: 0.8"/>
      </defs>
      <g>
       <use xlink:href="#m0ee660a947" x="534.394034" y="961.2" style="stroke: #000000; stroke-width: 0.8"/>
      </g>
     </g>
     <g id="text_1">
      <!-- 1150 -->
      <g transform="translate(521.669034 975.798437) scale(0.1 -0.1)">
       <defs>
        <path id="DejaVuSans-31" d="M 794 531 
L 1825 531 
L 1825 4091 
L 703 3866 
L 703 4441 
L 1819 4666 
L 2450 4666 
L 2450 531 
L 3481 531 
L 3481 0 
L 794 0 
L 794 531 
z
" transform="scale(0.015625)"/>
        <path id="DejaVuSans-35" d="M 691 4666 
L 3169 4666 
L 3169 4134 
L 1269 4134 
L 1269 2991 
Q 1406 3038 1543 3061 
Q 1681 3084 1819 3084 
Q 2600 3084 3056 2656 
Q 3513 2228 3513 1497 
Q 3513 744 3044 326 
Q 2575 -91 1722 -91 
Q 1428 -91 1123 -41 
Q 819 9 494 109 
L 494 744 
Q 775 591 1075 516 
Q 1375 441 1709 441 
Q 2250 441 2565 725 
Q 2881 1009 2881 1497 
Q 2881 1984 2565 2268 
Q 2250 2553 1709 2553 
Q 1456 2553 1204 2497 
Q 953 2441 691 2322 
L 691 4666 
z
" transform="scale(0.015625)"/>
        <path id="DejaVuSans-30" d="M 2034 4250 
Q 1547 4250 1301 3770 
Q 1056 3291 1056 2328 
Q 1056 1369 1301 889 
Q 1547 409 2034 409 
Q 2525 409 2770 889 
Q 3016 1369 3016 2328 
Q 3016 3291 2770 3770 
Q 2525 4250 2034 4250 
z
M 2034 4750 
Q 2819 4750 3233 4129 
Q 3647 3509 3647 2328 
Q 3647 1150 3233 529 
Q 2819 -91 2034 -91 
Q 1250 -91 836 529 
Q 422 1150 422 2328 
Q 422 3509 836 4129 
Q 1250 4750 2034 4750 
z
" transform="scale(0.015625)"/>
       </defs>
       <use xlink:href="#DejaVuSans-31"/>
       <use xlink:href="#DejaVuSans-31" x="63.623047"/>
       <use xlink:href="#DejaVuSans-35" x="127.246094"/>
       <use xlink:href="#DejaVuSans-30" x="190.869141"/>
      </g>
     </g>
    </g>
    <g id="xtick_2">
     <g id="line2d_2">
      <g>
       <use xlink:href="#m0ee660a947" x="602.59876" y="961.2" style="stroke: #000000; stroke-width: 0.8"/>
      </g>
     </g>
     <g id="text_2">
      <!-- 1200 -->
      <g transform="translate(589.87376 975.798437) scale(0.1 -0.1)">
       <defs>
        <path id="DejaVuSans-32" d="M 1228 531 
L 3431 531 
L 3431 0 
L 469 0 
L 469 531 
Q 828 903 1448 1529 
Q 2069 2156 2228 2338 
Q 2531 2678 2651 2914 
Q 2772 3150 2772 3378 
Q 2772 3750 2511 3984 
Q 2250 4219 1831 4219 
Q 1534 4219 1204 4116 
Q 875 4013 500 3803 
L 500 4441 
Q 881 4594 1212 4672 
Q 1544 4750 1819 4750 
Q 2544 4750 2975 4387 
Q 3406 4025 3406 3419 
Q 3406 3131 3298 2873 
Q 3191 2616 2906 2266 
Q 2828 2175 2409 1742 
Q 1991 1309 1228 531 
z
" transform="scale(0.015625)"/>
       </defs>
       <use xlink:href="#DejaVuSans-31"/>
       <use xlink:href="#DejaVuSans-32" x="63.623047"/>
       <use xlink:href="#DejaVuSans-30" x="127.246094"/>
       <use xlink:href="#DejaVuSans-30" x="190.869141"/>
      </g>
     </g>
    </g>
    <g id="xtick_3">
     <g id="line2d_3">
      <g>
       <use xlink:href="#m0ee660a947" x="670.803485" y="961.2" style="stroke: #000000; stroke-width: 0.8"/>
      </g>
     </g>
     <g id="text_3">
      <!-- 1250 -->
      <g transform="translate(658.078485 975.798437) scale(0.1 -0.1)">
       <use xlink:href="#DejaVuSans-31"/>
       <use xlink:href="#DejaVuSans-32" x="63.623047"/>
       <use xlink:href="#DejaVuSans-35" x="127.246094"/>
       <use xlink:href="#DejaVuSans-30" x="190.869141"/>
      </g>
     </g>
    </g>
    <g id="xtick_4">
     <g id="line2d_4">
      <g>
       <use xlink:href="#m0ee660a947" x="739.00821" y="961.2" style="stroke: #000000; stroke-width: 0.8"/>
      </g>
     </g>
     <g id="text_4">
      <!-- 1300 -->
      <g transform="translate(726.28321 975.798437) scale(0.1 -0.1)">
       <defs>
        <path id="DejaVuSans-33" d="M 2597 2516 
Q 3050 2419 3304 2112 
Q 3559 1806 3559 1356 
Q 3559 666 3084 287 
Q 2609 -91 1734 -91 
Q 1441 -91 1130 -33 
Q 819 25 488 141 
L 488 750 
Q 750 597 1062 519 
Q 1375 441 1716 441 
Q 2309 441 2620 675 
Q 2931 909 2931 1356 
Q 2931 1769 2642 2001 
Q 2353 2234 1838 2234 
L 1294 2234 
L 1294 2753 
L 1863 2753 
Q 2328 2753 2575 2939 
Q 2822 3125 2822 3475 
Q 2822 3834 2567 4026 
Q 2313 4219 1838 4219 
Q 1578 4219 1281 4162 
Q 984 4106 628 3988 
L 628 4550 
Q 988 4650 1302 4700 
Q 1616 4750 1894 4750 
Q 2613 4750 3031 4423 
Q 3450 4097 3450 3541 
Q 3450 3153 3228 2886 
Q 3006 2619 2597 2516 
z
" transform="scale(0.015625)"/>
       </defs>
       <use xlink:href="#DejaVuSans-31"/>
       <use xlink:href="#DejaVuSans-33" x="63.623047"/>
       <use xlink:href="#DejaVuSans-30" x="127.246094"/>
       <use xlink:href="#DejaVuSans-30" x="190.869141"/>
      </g>
     </g>
    </g>
    <g id="xtick_5">
     <g id="line2d_5">
      <g>
       <use xlink:href="#m0ee660a947" x="807.212936" y="961.2" style="stroke: #000000; stroke-width: 0.8"/>
      </g>
     </g>
     <g id="text_5">
      <!-- 1350 -->
      <g transform="translate(794.487936 975.798437) scale(0.1 -0.1)">
       <use xlink:href="#DejaVuSans-31"/>
       <use xlink:href="#DejaVuSans-33" x="63.623047"/>
       <use xlink:href="#DejaVuSans-35" x="127.246094"/>
       <use xlink:href="#DejaVuSans-30" x="190.869141"/>
      </g>
     </g>
    </g>
    <g id="xtick_6">
     <g id="line2d_6">
      <g>
       <use xlink:href="#m0ee660a947" x="875.417661" y="961.2" style="stroke: #000000; stroke-width: 0.8"/>
      </g>
     </g>
     <g id="text_6">
      <!-- 1400 -->
      <g transform="translate(862.692661 975.798437) scale(0.1 -0.1)">
       <defs>
        <path id="DejaVuSans-34" d="M 2419 4116 
L 825 1625 
L 2419 1625 
L 2419 4116 
z
M 2253 4666 
L 3047 4666 
L 3047 1625 
L 3713 1625 
L 3713 1100 
L 3047 1100 
L 3047 0 
L 2419 0 
L 2419 1100 
L 313 1100 
L 313 1709 
L 2253 4666 
z
" transform="scale(0.015625)"/>
       </defs>
       <use xlink:href="#DejaVuSans-31"/>
       <use xlink:href="#DejaVuSans-34" x="63.623047"/>
       <use xlink:href="#DejaVuSans-30" x="127.246094"/>
       <use xlink:href="#DejaVuSans-30" x="190.869141"/>
      </g>
     </g>
    </g>
    <g id="xtick_7">
     <g id="line2d_7">
      <g>
       <use xlink:href="#m0ee660a947" x="943.622386" y="961.2" style="stroke: #000000; stroke-width: 0.8"/>
      </g>
     </g>
     <g id="text_7">
      <!-- 1450 -->
      <g transform="translate(930.897386 975.798437) scale(0.1 -0.1)">
       <use xlink:href="#DejaVuSans-31"/>
       <use xlink:href="#DejaVuSans-34" x="63.623047"/>
       <use xlink:href="#DejaVuSans-35" x="127.246094"/>
       <use xlink:href="#DejaVuSans-30" x="190.869141"/>
      </g>
     </g>
    </g>
   </g>
   <g id="matplotlib.axis_2">
    <g id="ytick_1">
     <g id="line2d_8">
      <defs>
       <path id="mc890c24256" d="M 0 0 
L -3.5 0 
" style="stroke: #000000; stroke-width: 0.8"/>
      </defs>
      <g>
       <use xlink:href="#mc890c24256" x="489.553784" y="867.474621" style="stroke: #000000; stroke-width: 0.8"/>
      </g>
     </g>
     <g id="text_8">
      <!-- 600 -->
      <g transform="translate(463.466284 871.273839) scale(0.1 -0.1)">
       <defs>
        <path id="DejaVuSans-36" d="M 2113 2584 
Q 1688 2584 1439 2293 
Q 1191 2003 1191 1497 
Q 1191 994 1439 701 
Q 1688 409 2113 409 
Q 2538 409 2786 701 
Q 3034 994 3034 1497 
Q 3034 2003 2786 2293 
Q 2538 2584 2113 2584 
z
M 3366 4563 
L 3366 3988 
Q 3128 4100 2886 4159 
Q 2644 4219 2406 4219 
Q 1781 4219 1451 3797 
Q 1122 3375 1075 2522 
Q 1259 2794 1537 2939 
Q 1816 3084 2150 3084 
Q 2853 3084 3261 2657 
Q 3669 2231 3669 1497 
Q 3669 778 3244 343 
Q 2819 -91 2113 -91 
Q 1303 -91 875 529 
Q 447 1150 447 2328 
Q 447 3434 972 4092 
Q 1497 4750 2381 4750 
Q 2619 4750 2861 4703 
Q 3103 4656 3366 4563 
z
" transform="scale(0.015625)"/>
       </defs>
       <use xlink:href="#DejaVuSans-36"/>
       <use xlink:href="#DejaVuSans-30" x="63.623047"/>
       <use xlink:href="#DejaVuSans-30" x="127.246094"/>
      </g>
     </g>
    </g>
    <g id="ytick_2">
     <g id="line2d_9">
      <g>
       <use xlink:href="#mc890c24256" x="489.553784" y="731.06517" style="stroke: #000000; stroke-width: 0.8"/>
      </g>
     </g>
     <g id="text_9">
      <!-- 700 -->
      <g transform="translate(463.466284 734.864389) scale(0.1 -0.1)">
       <defs>
        <path id="DejaVuSans-37" d="M 525 4666 
L 3525 4666 
L 3525 4397 
L 1831 0 
L 1172 0 
L 2766 4134 
L 525 4134 
L 525 4666 
z
" transform="scale(0.015625)"/>
       </defs>
       <use xlink:href="#DejaVuSans-37"/>
       <use xlink:href="#DejaVuSans-30" x="63.623047"/>
       <use xlink:href="#DejaVuSans-30" x="127.246094"/>
      </g>
     </g>
    </g>
    <g id="ytick_3">
     <g id="line2d_10">
      <g>
       <use xlink:href="#mc890c24256" x="489.553784" y="594.655719" style="stroke: #000000; stroke-width: 0.8"/>
      </g>
     </g>
     <g id="text_10">
      <!-- 800 -->
      <g transform="translate(463.466284 598.454938) scale(0.1 -0.1)">
       <defs>
        <path id="DejaVuSans-38" d="M 2034 2216 
Q 1584 2216 1326 1975 
Q 1069 1734 1069 1313 
Q 1069 891 1326 650 
Q 1584 409 2034 409 
Q 2484 409 2743 651 
Q 3003 894 3003 1313 
Q 3003 1734 2745 1975 
Q 2488 2216 2034 2216 
z
M 1403 2484 
Q 997 2584 770 2862 
Q 544 3141 544 3541 
Q 544 4100 942 4425 
Q 1341 4750 2034 4750 
Q 2731 4750 3128 4425 
Q 3525 4100 3525 3541 
Q 3525 3141 3298 2862 
Q 3072 2584 2669 2484 
Q 3125 2378 3379 2068 
Q 3634 1759 3634 1313 
Q 3634 634 3220 271 
Q 2806 -91 2034 -91 
Q 1263 -91 848 271 
Q 434 634 434 1313 
Q 434 1759 690 2068 
Q 947 2378 1403 2484 
z
M 1172 3481 
Q 1172 3119 1398 2916 
Q 1625 2713 2034 2713 
Q 2441 2713 2670 2916 
Q 2900 3119 2900 3481 
Q 2900 3844 2670 4047 
Q 2441 4250 2034 4250 
Q 1625 4250 1398 4047 
Q 1172 3844 1172 3481 
z
" transform="scale(0.015625)"/>
       </defs>
       <use xlink:href="#DejaVuSans-38"/>
       <use xlink:href="#DejaVuSans-30" x="63.623047"/>
       <use xlink:href="#DejaVuSans-30" x="127.246094"/>
      </g>
     </g>
    </g>
    <g id="ytick_4">
     <g id="line2d_11">
      <g>
       <use xlink:href="#mc890c24256" x="489.553784" y="458.246269" style="stroke: #000000; stroke-width: 0.8"/>
      </g>
     </g>
     <g id="text_11">
      <!-- 900 -->
      <g transform="translate(463.466284 462.045488) scale(0.1 -0.1)">
       <defs>
        <path id="DejaVuSans-39" d="M 703 97 
L 703 672 
Q 941 559 1184 500 
Q 1428 441 1663 441 
Q 2288 441 2617 861 
Q 2947 1281 2994 2138 
Q 2813 1869 2534 1725 
Q 2256 1581 1919 1581 
Q 1219 1581 811 2004 
Q 403 2428 403 3163 
Q 403 3881 828 4315 
Q 1253 4750 1959 4750 
Q 2769 4750 3195 4129 
Q 3622 3509 3622 2328 
Q 3622 1225 3098 567 
Q 2575 -91 1691 -91 
Q 1453 -91 1209 -44 
Q 966 3 703 97 
z
M 1959 2075 
Q 2384 2075 2632 2365 
Q 2881 2656 2881 3163 
Q 2881 3666 2632 3958 
Q 2384 4250 1959 4250 
Q 1534 4250 1286 3958 
Q 1038 3666 1038 3163 
Q 1038 2656 1286 2365 
Q 1534 2075 1959 2075 
z
" transform="scale(0.015625)"/>
       </defs>
       <use xlink:href="#DejaVuSans-39"/>
       <use xlink:href="#DejaVuSans-30" x="63.623047"/>
       <use xlink:href="#DejaVuSans-30" x="127.246094"/>
      </g>
     </g>
    </g>
    <g id="ytick_5">
     <g id="line2d_12">
      <g>
       <use xlink:href="#mc890c24256" x="489.553784" y="321.836818" style="stroke: #000000; stroke-width: 0.8"/>
      </g>
     </g>
     <g id="text_12">
      <!-- 1000 -->
      <g transform="translate(457.103784 325.636037) scale(0.1 -0.1)">
       <use xlink:href="#DejaVuSans-31"/>
       <use xlink:href="#DejaVuSans-30" x="63.623047"/>
       <use xlink:href="#DejaVuSans-30" x="127.246094"/>
       <use xlink:href="#DejaVuSans-30" x="190.869141"/>
      </g>
     </g>
    </g>
    <g id="ytick_6">
     <g id="line2d_13">
      <g>
       <use xlink:href="#mc890c24256" x="489.553784" y="185.427368" style="stroke: #000000; stroke-width: 0.8"/>
      </g>
     </g>
     <g id="text_13">
      <!-- 1100 -->
      <g transform="translate(457.103784 189.226586) scale(0.1 -0.1)">
       <use xlink:href="#DejaVuSans-31"/>
       <use xlink:href="#DejaVuSans-31" x="63.623047"/>
       <use xlink:href="#DejaVuSans-30" x="127.246094"/>
       <use xlink:href="#DejaVuSans-30" x="190.869141"/>
      </g>
     </g>
    </g>
   </g>
   <g id="LineCollection_1">
    <path d="M 512.997241 923.4 
L 554.324317 922.88756 
L 589.682654 920.966655 
L 619.900031 917.726935 
L 642.821416 913.81941 
L 645.763084 913.193361 
L 664.361049 908.433948 
L 667.99471 907.301047 
L 682.835839 901.817546 
L 687.189646 899.880244 
L 698.792864 893.78926 
L 701.304024 892.342265 
L 703.693632 890.702298 
L 712.532792 884.109861 
L 715.110269 881.999594 
L 717.486535 879.665076 
L 723.992927 872.667234 
L 726.263855 869.977743 
L 728.267663 867.083744 
L 732.832436 859.767148 
L 734.479844 856.836778 
L 735.8532 853.768405 
L 738.829708 846.210861 
L 739.787611 843.465464 
L 740.525953 840.653057 
L 742.232019 832.924072 
L 742.943347 828.354586 
L 743.663447 820.515886 
L 743.817832 817.087743 
L 743.725358 806.828037 
L 743.079144 797.472457 
L 742.167014 788.920414 
L 739.517645 766.931119 
L 739.03119 760.837795 
L 738.830978 755.373142 
L 738.920878 750.498806 
L 739.287131 746.154189 
L 739.911203 742.250806 
L 740.784286 738.67459 
L 741.919015 735.297339 
L 743.353489 731.994417 
L 745.145645 728.662306 
L 747.360687 725.229586 
L 750.057239 721.658659 
L 753.277185 717.939981 
L 757.041149 714.082847 
L 761.348831 710.106346 
L 766.182232 706.032452 
L 771.509901 701.881638 
L 777.291054 697.670606 
L 783.479003 693.411454 
L 790.023814 689.111686 
L 803.979128 680.40012 
L 826.364114 666.98693 
L 841.772427 657.694326 
L 856.654834 648.362149 
L 864.687589 643.083158 
L 872.137801 637.981898 
L 879.443956 632.742934 
L 886.578789 627.353122 
L 893.516381 621.799949 
L 900.231825 616.072006 
L 906.700955 610.159547 
L 912.900189 604.05512 
L 918.806541 597.754222 
L 924.397864 591.255894 
L 929.653327 584.563155 
L 934.5541 577.683164 
L 939.084164 570.627016 
L 943.231114 563.409128 
L 946.986796 556.046247 
L 950.34765 548.556168 
L 953.31465 540.956332 
L 955.892823 533.262476 
L 958.09042 525.487489 
L 959.917804 517.640591 
L 961.38622 509.726857 
L 962.506527 501.747095 
L 963.288016 493.698002 
L 963.737334 485.572546 
L 963.857565 477.360499 
L 963.647454 469.049072 
L 963.100782 460.623616 
L 962.205868 452.068362 
L 960.945228 443.367178 
L 959.295365 434.504316 
L 957.226731 425.465105 
L 954.703841 416.236509 
L 951.685541 406.80749 
L 948.125363 397.16905 
L 943.971883 387.313893 
L 939.168964 377.235656 
L 933.655728 366.927749 
L 927.366157 356.381915 
L 920.228268 345.5867 
L 912.16289 334.526039 
L 903.082179 323.178154 
L 892.888026 311.514871 
L 881.470547 299.501377 
L 868.706796 287.096362 
L 854.459766 274.252423 
L 838.577703 260.9166 
L 820.89368 247.030937 
L 801.225379 232.532983 
L 779.374995 217.356188 
L 755.12922 201.430189 
L 728.259235 184.68097 
L 699.156601 167.4 
L 699.156601 167.4 
" clip-path="url(#p4afc4cd981)" style="fill: none; stroke: #1f77b4; stroke-width: 1.5"/>
    <path d="M 512.568522 886.571944 
L 552.376857 886.108532 
L 585.848915 884.336176 
L 613.710634 881.420174 
L 636.632018 877.512649 
L 655.229983 872.753236 
L 670.071111 867.269735 
L 681.674329 861.178751 
L 690.513489 854.586314 
L 697.019881 847.588472 
L 701.584654 840.271875 
L 704.561162 832.714331 
L 706.267228 824.985346 
L 706.987327 817.146646 
L 706.974703 809.252677 
L 706.453392 801.351095 
L 705.620191 793.483223 
L 704.646535 785.684511 
L 703.680312 777.984955 
L 702.847605 770.409519 
L 702.254359 762.978529 
L 701.987986 755.708051 
L 702.118894 748.61026 
L 702.701956 741.693779 
L 703.777908 734.964019 
L 705.374688 728.423491 
L 707.508701 722.072105 
L 710.186036 715.907458 
L 713.403609 709.925105 
L 717.150253 704.118811 
L 721.407745 698.480799 
L 726.151777 693.001973 
L 731.352873 687.672133 
L 736.97724 682.480175 
L 742.98758 677.414283 
L 749.343831 672.462096 
L 756.003873 667.610876 
L 762.924168 662.847651 
L 770.060361 658.159361 
L 777.367821 653.532974 
L 784.802148 648.955606 
L 792.319619 644.41462 
L 799.877601 639.89772 
L 807.434906 635.393028 
L 814.952118 630.889157 
L 822.391863 626.375269 
L 829.719052 621.841128 
L 836.901068 617.277132 
L 843.907932 612.674355 
L 850.712413 608.024556 
L 857.290121 603.320203 
L 863.619542 598.554467 
L 869.682061 593.721225 
L 875.461937 588.81504 
L 880.946248 583.831149 
L 886.124811 578.765425 
L 890.990068 573.614351 
L 895.536942 568.37497 
L 899.762666 563.04484 
L 903.66659 557.621977 
L 907.249957 552.104791 
L 910.515657 546.492022 
L 913.467957 540.782663 
L 916.112211 534.975881 
L 918.454546 529.070934 
L 920.501533 523.067081 
L 922.259833 516.963489 
L 923.735833 510.759133 
L 924.935256 504.452694 
L 925.862766 498.042454 
L 926.521553 491.526187 
L 926.912904 484.901042 
L 927.035766 478.163432 
L 926.886297 471.30891 
L 926.457405 464.332053 
L 925.738282 457.226334 
L 924.713927 449.984 
L 923.364666 442.59594 
L 921.665666 435.051564 
L 919.586442 427.338665 
L 917.090368 419.443294 
L 914.134176 411.349626 
L 910.667463 403.039832 
L 906.632198 394.493941 
L 901.962224 385.689715 
L 896.58277 376.602513 
L 890.409961 367.205166 
L 883.350338 357.467843 
L 875.300382 347.357924 
L 866.146043 336.839876 
L 855.762281 325.875125 
L 844.012616 314.421936 
L 830.748683 302.435291 
L 815.809809 289.866773 
L 799.022593 276.66445 
L 780.200506 262.772762 
L 759.143503 248.132417 
L 735.637651 232.680281 
L 709.454781 216.349283 
L 680.352147 199.068313 
" clip-path="url(#p4afc4cd981)" style="fill: none; stroke: #8c564b; stroke-width: 1.5"/>
    <path d="M 512.139804 849.743887 
L 551.188262 849.289321 
L 582.956407 847.607189 
L 608.693838 844.913514 
L 628.958995 841.45881 
L 644.252777 837.544971 
L 655.066684 833.549448 
L 661.983669 829.918451 
L 665.81569 827.060447 
L 667.641733 825.096477 
L 668.551864 823.637682 
L 669.22459 821.929589 
L 669.80305 819.308991 
L 670.154076 815.487877 
L 670.146092 810.495733 
L 669.750783 804.503971 
L 669.030705 797.704316 
L 668.101154 790.258878 
L 667.136382 782.570879 
L 667.070273 782.009204 
L 666.237566 774.433768 
L 666.133864 773.340523 
L 665.540619 765.909533 
L 665.448502 764.327009 
L 665.182129 757.056531 
L 665.163697 755.028883 
L 665.294605 747.931091 
L 665.418518 745.516404 
L 666.00158 738.599924 
L 666.333291 735.879165 
L 667.409243 729.149405 
L 667.998204 726.228902 
L 669.594983 719.688373 
L 670.462101 716.693151 
L 672.596115 710.341765 
L 673.726604 707.400382 
L 676.403939 701.235735 
L 677.749442 698.46163 
L 680.967015 692.479276 
L 682.456593 689.955834 
L 686.203237 684.14954 
L 687.758495 681.9239 
L 692.015986 676.285888 
L 693.564528 674.37178 
L 698.308561 668.892953 
L 699.792227 667.27915 
L 704.993322 661.949309 
L 706.370837 660.609476 
L 711.995204 655.417519 
L 713.240884 654.31859 
L 719.251223 649.252698 
L 720.351791 648.360702 
L 726.708042 643.408515 
L 727.659064 642.69197 
L 734.319106 637.840749 
L 735.121871 637.272261 
L 742.042166 632.509037 
L 742.701281 632.065767 
L 749.837474 627.377477 
L 750.359177 627.040992 
L 757.666638 622.414605 
L 758.057687 622.170444 
L 765.492014 617.593076 
L 765.759013 617.430243 
L 773.276484 612.889257 
L 773.425505 612.799719 
L 780.983487 608.282819 
L 781.01991 608.261079 
L 788.541433 603.777716 
L 795.935037 599.347903 
L 803.14888 594.971077 
L 810.151187 590.637975 
L 816.91244 586.341365 
L 823.405791 582.075911 
L 829.607476 577.83803 
L 835.49723 573.625698 
L 841.058684 569.438204 
L 846.27974 565.275804 
L 851.152886 561.139286 
L 855.675417 557.029417 
L 859.849499 552.946287 
L 863.682034 548.888604 
L 867.184262 544.852972 
L 870.371072 540.833279 
L 873.260037 536.820276 
L 875.870219 532.801471 
L 878.220869 528.7614 
L 880.33017 524.68229 
L 882.214161 520.545044 
L 883.885986 516.33043 
L 885.355507 512.020296 
L 886.629283 507.598638 
L 887.710821 503.052396 
L 888.601005 498.371907 
L 889.298554 493.550983 
L 889.800439 488.586679 
L 890.102165 483.478792 
L 890.197893 478.229173 
L 890.080397 472.840896 
L 889.740845 467.317353 
L 889.168431 461.661282 
L 888.349845 455.873768 
L 887.268595 449.953235 
L 885.904156 443.89447 
L 884.230959 437.687729 
L 882.217212 431.318018 
L 879.823599 424.764618 
L 877.001916 418.000975 
L 873.693774 410.994986 
L 869.829488 403.709711 
L 865.327297 396.10442 
L 860.092992 388.13583 
L 854.019974 379.759329 
L 846.989667 370.929985 
L 838.872125 361.603184 
L 829.526672 351.734836 
L 818.802405 341.281172 
L 806.538459 330.198218 
L 792.563987 318.441079 
L 776.697872 305.963157 
L 758.748242 292.715388 
L 738.511832 278.645579 
L 715.773294 263.697855 
L 690.304486 247.812237 
L 661.547692 230.736626 
" clip-path="url(#p4afc4cd981)" style="fill: none; stroke: #17becf; stroke-width: 1.5"/>
   </g>
   <g id="patch_3">
    <path d="M 489.553784 961.2 
L 489.553784 129.6 
" style="fill: none; stroke: #000000; stroke-width: 0.8; stroke-linejoin: miter; stroke-linecap: square"/>
   </g>
   <g id="patch_4">
    <path d="M 986.446216 961.2 
L 986.446216 129.6 
" style="fill: none; stroke: #000000; stroke-width: 0.8; stroke-linejoin: miter; stroke-linecap: square"/>
   </g>
   <g id="patch_5">
    <path d="M 489.553784 961.2 
L 986.446216 961.2 
" style="fill: none; stroke: #000000; stroke-width: 0.8; stroke-linejoin: miter; stroke-linecap: square"/>
   </g>
   <g id="patch_6">
    <path d="M 489.553784 129.6 
L 986.446216 129.6 
" style="fill: none; stroke: #000000; stroke-width: 0.8; stroke-linejoin: miter; stroke-linecap: square"/>
   </g>
  </g>
 </g>
 <defs>
  <clipPath id="p4afc4cd981">
   <rect x="489.553784" y="129.6" width="496.892431" height="831.6"/>
  </clipPath>
 </defs>
</svg>
