<?xml version="1.0" encoding="utf-8" standalone="no"?>
<!DOCTYPE svg PUBLIC "-//W3C//DTD SVG 1.1//EN"
  "http://www.w3.org/Graphics/SVG/1.1/DTD/svg11.dtd">
<svg xmlns:xlink="http://www.w3.org/1999/xlink" width="1440pt" height="1080pt" viewBox="0 0 1440 1080" xmlns="http://www.w3.org/2000/svg" version="1.1">
 <metadata>
  <rdf:RDF xmlns:dc="http://purl.org/dc/elements/1.1/" xmlns:cc="http://creativecommons.org/ns#" xmlns:rdf="http://www.w3.org/1999/02/22-rdf-syntax-ns#">
   <cc:Work>
    <dc:type rdf:resource="http://purl.org/dc/dcmitype/StillImage"/>
    <dc:date>2023-12-11T12:06:43.642015</dc:date>
    <dc:format>image/svg+xml</dc:format>
    <dc:creator>
     <cc:Agent>
      <dc:title>Matplotlib v3.7.1, https://matplotlib.org/</dc:title>
     </cc:Agent>
    </dc:creator>
   </cc:Work>
  </rdf:RDF>
 </metadata>
 <defs>
  <style type="text/css">*{stroke-linejoin: round; stroke-linecap: butt}</style>
 </defs>
 <g id="figure_1">
  <g id="patch_1">
   <path d="M 0 1080 
L 1440 1080 
L 1440 0 
L 0 0 
z
" style="fill: #ffffff"/>
  </g>
  <g id="axes_1">
   <g id="patch_2">
    <path d="M 478.239213 961.2 
L 997.760787 961.2 
L 997.760787 129.6 
L 478.239213 129.6 
z
" style="fill: #ffffff"/>
   </g>
   <g id="matplotlib.axis_1">
    <g id="xtick_1">
     <g id="line2d_1">
      <defs>
       <path id="m6ee3f38f62" d="M 0 0 
L 0 3.5 
" style="stroke: #000000; stroke-width: 0.8"/>
      </defs>
      <g>
       <use xlink:href="#m6ee3f38f62" x="499.507071" y="961.2" style="stroke: #000000; stroke-width: 0.8"/>
      </g>
     </g>
     <g id="text_1">
      <!-- 400 -->
      <g transform="translate(489.963321 975.798437) scale(0.1 -0.1)">
       <defs>
        <path id="DejaVuSans-34" d="M 2419 4116 
L 825 1625 
L 2419 1625 
L 2419 4116 
z
M 2253 4666 
L 3047 4666 
L 3047 1625 
L 3713 1625 
L 3713 1100 
L 3047 1100 
L 3047 0 
L 2419 0 
L 2419 1100 
L 313 1100 
L 313 1709 
L 2253 4666 
z
" transform="scale(0.015625)"/>
        <path id="DejaVuSans-30" d="M 2034 4250 
Q 1547 4250 1301 3770 
Q 1056 3291 1056 2328 
Q 1056 1369 1301 889 
Q 1547 409 2034 409 
Q 2525 409 2770 889 
Q 3016 1369 3016 2328 
Q 3016 3291 2770 3770 
Q 2525 4250 2034 4250 
z
M 2034 4750 
Q 2819 4750 3233 4129 
Q 3647 3509 3647 2328 
Q 3647 1150 3233 529 
Q 2819 -91 2034 -91 
Q 1250 -91 836 529 
Q 422 1150 422 2328 
Q 422 3509 836 4129 
Q 1250 4750 2034 4750 
z
" transform="scale(0.015625)"/>
       </defs>
       <use xlink:href="#DejaVuSans-34"/>
       <use xlink:href="#DejaVuSans-30" x="63.623047"/>
       <use xlink:href="#DejaVuSans-30" x="127.246094"/>
      </g>
     </g>
    </g>
    <g id="xtick_2">
     <g id="line2d_2">
      <g>
       <use xlink:href="#m6ee3f38f62" x="562.107504" y="961.2" style="stroke: #000000; stroke-width: 0.8"/>
      </g>
     </g>
     <g id="text_2">
      <!-- 450 -->
      <g transform="translate(552.563754 975.798437) scale(0.1 -0.1)">
       <defs>
        <path id="DejaVuSans-35" d="M 691 4666 
L 3169 4666 
L 3169 4134 
L 1269 4134 
L 1269 2991 
Q 1406 3038 1543 3061 
Q 1681 3084 1819 3084 
Q 2600 3084 3056 2656 
Q 3513 2228 3513 1497 
Q 3513 744 3044 326 
Q 2575 -91 1722 -91 
Q 1428 -91 1123 -41 
Q 819 9 494 109 
L 494 744 
Q 775 591 1075 516 
Q 1375 441 1709 441 
Q 2250 441 2565 725 
Q 2881 1009 2881 1497 
Q 2881 1984 2565 2268 
Q 2250 2553 1709 2553 
Q 1456 2553 1204 2497 
Q 953 2441 691 2322 
L 691 4666 
z
" transform="scale(0.015625)"/>
       </defs>
       <use xlink:href="#DejaVuSans-34"/>
       <use xlink:href="#DejaVuSans-35" x="63.623047"/>
       <use xlink:href="#DejaVuSans-30" x="127.246094"/>
      </g>
     </g>
    </g>
    <g id="xtick_3">
     <g id="line2d_3">
      <g>
       <use xlink:href="#m6ee3f38f62" x="624.707937" y="961.2" style="stroke: #000000; stroke-width: 0.8"/>
      </g>
     </g>
     <g id="text_3">
      <!-- 500 -->
      <g transform="translate(615.164187 975.798437) scale(0.1 -0.1)">
       <use xlink:href="#DejaVuSans-35"/>
       <use xlink:href="#DejaVuSans-30" x="63.623047"/>
       <use xlink:href="#DejaVuSans-30" x="127.246094"/>
      </g>
     </g>
    </g>
    <g id="xtick_4">
     <g id="line2d_4">
      <g>
       <use xlink:href="#m6ee3f38f62" x="687.308371" y="961.2" style="stroke: #000000; stroke-width: 0.8"/>
      </g>
     </g>
     <g id="text_4">
      <!-- 550 -->
      <g transform="translate(677.764621 975.798437) scale(0.1 -0.1)">
       <use xlink:href="#DejaVuSans-35"/>
       <use xlink:href="#DejaVuSans-35" x="63.623047"/>
       <use xlink:href="#DejaVuSans-30" x="127.246094"/>
      </g>
     </g>
    </g>
    <g id="xtick_5">
     <g id="line2d_5">
      <g>
       <use xlink:href="#m6ee3f38f62" x="749.908804" y="961.2" style="stroke: #000000; stroke-width: 0.8"/>
      </g>
     </g>
     <g id="text_5">
      <!-- 600 -->
      <g transform="translate(740.365054 975.798437) scale(0.1 -0.1)">
       <defs>
        <path id="DejaVuSans-36" d="M 2113 2584 
Q 1688 2584 1439 2293 
Q 1191 2003 1191 1497 
Q 1191 994 1439 701 
Q 1688 409 2113 409 
Q 2538 409 2786 701 
Q 3034 994 3034 1497 
Q 3034 2003 2786 2293 
Q 2538 2584 2113 2584 
z
M 3366 4563 
L 3366 3988 
Q 3128 4100 2886 4159 
Q 2644 4219 2406 4219 
Q 1781 4219 1451 3797 
Q 1122 3375 1075 2522 
Q 1259 2794 1537 2939 
Q 1816 3084 2150 3084 
Q 2853 3084 3261 2657 
Q 3669 2231 3669 1497 
Q 3669 778 3244 343 
Q 2819 -91 2113 -91 
Q 1303 -91 875 529 
Q 447 1150 447 2328 
Q 447 3434 972 4092 
Q 1497 4750 2381 4750 
Q 2619 4750 2861 4703 
Q 3103 4656 3366 4563 
z
" transform="scale(0.015625)"/>
       </defs>
       <use xlink:href="#DejaVuSans-36"/>
       <use xlink:href="#DejaVuSans-30" x="63.623047"/>
       <use xlink:href="#DejaVuSans-30" x="127.246094"/>
      </g>
     </g>
    </g>
    <g id="xtick_6">
     <g id="line2d_6">
      <g>
       <use xlink:href="#m6ee3f38f62" x="812.509237" y="961.2" style="stroke: #000000; stroke-width: 0.8"/>
      </g>
     </g>
     <g id="text_6">
      <!-- 650 -->
      <g transform="translate(802.965487 975.798437) scale(0.1 -0.1)">
       <use xlink:href="#DejaVuSans-36"/>
       <use xlink:href="#DejaVuSans-35" x="63.623047"/>
       <use xlink:href="#DejaVuSans-30" x="127.246094"/>
      </g>
     </g>
    </g>
    <g id="xtick_7">
     <g id="line2d_7">
      <g>
       <use xlink:href="#m6ee3f38f62" x="875.10967" y="961.2" style="stroke: #000000; stroke-width: 0.8"/>
      </g>
     </g>
     <g id="text_7">
      <!-- 700 -->
      <g transform="translate(865.56592 975.798437) scale(0.1 -0.1)">
       <defs>
        <path id="DejaVuSans-37" d="M 525 4666 
L 3525 4666 
L 3525 4397 
L 1831 0 
L 1172 0 
L 2766 4134 
L 525 4134 
L 525 4666 
z
" transform="scale(0.015625)"/>
       </defs>
       <use xlink:href="#DejaVuSans-37"/>
       <use xlink:href="#DejaVuSans-30" x="63.623047"/>
       <use xlink:href="#DejaVuSans-30" x="127.246094"/>
      </g>
     </g>
    </g>
    <g id="xtick_8">
     <g id="line2d_8">
      <g>
       <use xlink:href="#m6ee3f38f62" x="937.710104" y="961.2" style="stroke: #000000; stroke-width: 0.8"/>
      </g>
     </g>
     <g id="text_8">
      <!-- 750 -->
      <g transform="translate(928.166354 975.798437) scale(0.1 -0.1)">
       <use xlink:href="#DejaVuSans-37"/>
       <use xlink:href="#DejaVuSans-35" x="63.623047"/>
       <use xlink:href="#DejaVuSans-30" x="127.246094"/>
      </g>
     </g>
    </g>
   </g>
   <g id="matplotlib.axis_2">
    <g id="ytick_1">
     <g id="line2d_9">
      <defs>
       <path id="mf0d91d2570" d="M 0 0 
L -3.5 0 
" style="stroke: #000000; stroke-width: 0.8"/>
      </defs>
      <g>
       <use xlink:href="#mf0d91d2570" x="478.239213" y="853.181681" style="stroke: #000000; stroke-width: 0.8"/>
      </g>
     </g>
     <g id="text_9">
      <!-- 500 -->
      <g transform="translate(452.151713 856.9809) scale(0.1 -0.1)">
       <use xlink:href="#DejaVuSans-35"/>
       <use xlink:href="#DejaVuSans-30" x="63.623047"/>
       <use xlink:href="#DejaVuSans-30" x="127.246094"/>
      </g>
     </g>
    </g>
    <g id="ytick_2">
     <g id="line2d_10">
      <g>
       <use xlink:href="#mf0d91d2570" x="478.239213" y="727.980815" style="stroke: #000000; stroke-width: 0.8"/>
      </g>
     </g>
     <g id="text_10">
      <!-- 600 -->
      <g transform="translate(452.151713 731.780033) scale(0.1 -0.1)">
       <use xlink:href="#DejaVuSans-36"/>
       <use xlink:href="#DejaVuSans-30" x="63.623047"/>
       <use xlink:href="#DejaVuSans-30" x="127.246094"/>
      </g>
     </g>
    </g>
    <g id="ytick_3">
     <g id="line2d_11">
      <g>
       <use xlink:href="#mf0d91d2570" x="478.239213" y="602.779948" style="stroke: #000000; stroke-width: 0.8"/>
      </g>
     </g>
     <g id="text_11">
      <!-- 700 -->
      <g transform="translate(452.151713 606.579167) scale(0.1 -0.1)">
       <use xlink:href="#DejaVuSans-37"/>
       <use xlink:href="#DejaVuSans-30" x="63.623047"/>
       <use xlink:href="#DejaVuSans-30" x="127.246094"/>
      </g>
     </g>
    </g>
    <g id="ytick_4">
     <g id="line2d_12">
      <g>
       <use xlink:href="#mf0d91d2570" x="478.239213" y="477.579081" style="stroke: #000000; stroke-width: 0.8"/>
      </g>
     </g>
     <g id="text_12">
      <!-- 800 -->
      <g transform="translate(452.151713 481.3783) scale(0.1 -0.1)">
       <defs>
        <path id="DejaVuSans-38" d="M 2034 2216 
Q 1584 2216 1326 1975 
Q 1069 1734 1069 1313 
Q 1069 891 1326 650 
Q 1584 409 2034 409 
Q 2484 409 2743 651 
Q 3003 894 3003 1313 
Q 3003 1734 2745 1975 
Q 2488 2216 2034 2216 
z
M 1403 2484 
Q 997 2584 770 2862 
Q 544 3141 544 3541 
Q 544 4100 942 4425 
Q 1341 4750 2034 4750 
Q 2731 4750 3128 4425 
Q 3525 4100 3525 3541 
Q 3525 3141 3298 2862 
Q 3072 2584 2669 2484 
Q 3125 2378 3379 2068 
Q 3634 1759 3634 1313 
Q 3634 634 3220 271 
Q 2806 -91 2034 -91 
Q 1263 -91 848 271 
Q 434 634 434 1313 
Q 434 1759 690 2068 
Q 947 2378 1403 2484 
z
M 1172 3481 
Q 1172 3119 1398 2916 
Q 1625 2713 2034 2713 
Q 2441 2713 2670 2916 
Q 2900 3119 2900 3481 
Q 2900 3844 2670 4047 
Q 2441 4250 2034 4250 
Q 1625 4250 1398 4047 
Q 1172 3844 1172 3481 
z
" transform="scale(0.015625)"/>
       </defs>
       <use xlink:href="#DejaVuSans-38"/>
       <use xlink:href="#DejaVuSans-30" x="63.623047"/>
       <use xlink:href="#DejaVuSans-30" x="127.246094"/>
      </g>
     </g>
    </g>
    <g id="ytick_5">
     <g id="line2d_13">
      <g>
       <use xlink:href="#mf0d91d2570" x="478.239213" y="352.378215" style="stroke: #000000; stroke-width: 0.8"/>
      </g>
     </g>
     <g id="text_13">
      <!-- 900 -->
      <g transform="translate(452.151713 356.177434) scale(0.1 -0.1)">
       <defs>
        <path id="DejaVuSans-39" d="M 703 97 
L 703 672 
Q 941 559 1184 500 
Q 1428 441 1663 441 
Q 2288 441 2617 861 
Q 2947 1281 2994 2138 
Q 2813 1869 2534 1725 
Q 2256 1581 1919 1581 
Q 1219 1581 811 2004 
Q 403 2428 403 3163 
Q 403 3881 828 4315 
Q 1253 4750 1959 4750 
Q 2769 4750 3195 4129 
Q 3622 3509 3622 2328 
Q 3622 1225 3098 567 
Q 2575 -91 1691 -91 
Q 1453 -91 1209 -44 
Q 966 3 703 97 
z
M 1959 2075 
Q 2384 2075 2632 2365 
Q 2881 2656 2881 3163 
Q 2881 3666 2632 3958 
Q 2384 4250 1959 4250 
Q 1534 4250 1286 3958 
Q 1038 3666 1038 3163 
Q 1038 2656 1286 2365 
Q 1534 2075 1959 2075 
z
" transform="scale(0.015625)"/>
       </defs>
       <use xlink:href="#DejaVuSans-39"/>
       <use xlink:href="#DejaVuSans-30" x="63.623047"/>
       <use xlink:href="#DejaVuSans-30" x="127.246094"/>
      </g>
     </g>
    </g>
    <g id="ytick_6">
     <g id="line2d_14">
      <g>
       <use xlink:href="#mf0d91d2570" x="478.239213" y="227.177348" style="stroke: #000000; stroke-width: 0.8"/>
      </g>
     </g>
     <g id="text_14">
      <!-- 1000 -->
      <g transform="translate(445.789213 230.976567) scale(0.1 -0.1)">
       <defs>
        <path id="DejaVuSans-31" d="M 794 531 
L 1825 531 
L 1825 4091 
L 703 3866 
L 703 4441 
L 1819 4666 
L 2450 4666 
L 2450 531 
L 3481 531 
L 3481 0 
L 794 0 
L 794 531 
z
" transform="scale(0.015625)"/>
       </defs>
       <use xlink:href="#DejaVuSans-31"/>
       <use xlink:href="#DejaVuSans-30" x="63.623047"/>
       <use xlink:href="#DejaVuSans-30" x="127.246094"/>
       <use xlink:href="#DejaVuSans-30" x="190.869141"/>
      </g>
     </g>
    </g>
   </g>
   <g id="LineCollection_1">
    <path d="M 517.19245 315.89221 
L 556.895424 300.555829 
L 594.309438 286.513279 
L 629.556529 273.717942 
L 662.674343 262.154701 
L 693.699859 251.807481 
L 722.669096 242.659168 
L 749.616709 234.691482 
L 774.575442 227.884757 
L 797.575389 222.217567 
L 818.643003 217.666091 
L 837.799806 214.20303 
L 855.060773 211.79576 
L 870.432561 210.403209 
L 883.912124 209.970635 
L 895.487389 210.421295 
L 905.143862 211.644396 
L 912.884853 213.481805 
L 918.775311 215.725298 
L 923.007666 218.152783 
L 925.943456 220.63296 
L 928.038605 223.258611 
L 929.642618 226.361813 
L 930.850485 230.339107 
L 931.551032 235.452119 
L 931.573969 241.774002 
L 930.788258 249.250479 
L 929.126009 257.774282 
L 926.570557 267.229727 
L 923.13848 277.510802 
L 918.86581 288.525436 
L 913.799352 300.194405 
L 907.991656 312.448815 
L 901.498212 325.227635 
L 894.37591 338.475685 
L 886.682195 352.142124 
L 878.474607 366.179345 
L 869.810518 380.542187 
L 860.746982 395.18738 
L 851.340632 410.073149 
L 831.723535 440.405299 
L 811.401484 471.226322 
L 770.335537 533.188942 
L 750.419164 563.772125 
L 740.787845 578.850797 
L 731.436552 593.748508 
L 722.410157 608.438013 
L 713.752063 622.893951 
L 705.504135 637.093121 
L 697.706664 651.014821 
L 690.398379 664.641252 
L 683.616529 677.958004 
L 677.397103 690.95463 
L 671.775241 703.6253 
L 666.78596 715.969503 
L 662.46534 727.992675 
L 658.852359 739.706514 
L 655.991565 751.128475 
L 653.936575 762.279525 
L 652.753846 773.178785 
L 652.524895 783.833435 
L 653.058949 791.892818 
L 653.343167 794.223416 
L 654.685686 801.749097 
L 655.300354 804.284377 
L 657.45685 811.276087 
L 658.459727 813.899053 
L 661.432025 820.35935 
L 662.824416 822.910853 
L 666.610485 828.845258 
L 668.320739 831.163482 
L 672.914519 836.580614 
L 674.813481 838.54832 
L 680.204703 843.460032 
L 682.146367 845.030783 
L 688.320371 849.452309 
L 690.181606 850.644099 
L 698.818985 855.463501 
L 707.994418 859.580148 
L 717.668427 863.084618 
L 727.813608 866.060046 
L 738.405094 868.581232 
L 749.41448 870.716399 
L 760.80636 872.529646 
L 772.536476 874.083202 
L 784.550733 875.439224 
L 809.162529 877.814123 
L 834.12533 880.202124 
L 846.442563 881.5768 
L 858.487807 883.170944 
L 870.121196 885.057806 
L 881.186023 887.305399 
L 891.50885 889.970176 
L 900.903519 893.087675 
L 909.184594 896.661273 
L 916.199015 900.656326 
L 921.881277 905.02068 
L 926.308666 909.764402 
L 929.676978 915.095776 
L 932.860035 923.4 
L 932.860035 923.4 
" clip-path="url(#p2c9954f878)" style="fill: none; stroke: #1f77b4; stroke-width: 1.5"/>
    <path d="M 509.52314 296.037825 
L 549.321044 280.664774 
L 586.938277 266.545951 
L 622.416819 253.666592 
L 655.799064 242.011024 
L 687.127837 231.562666 
L 716.446422 222.304031 
L 743.798573 214.216734 
L 769.228534 207.281495 
L 792.781055 201.478152 
L 814.501399 196.785659 
L 834.435359 193.182108 
L 852.62926 190.644728 
L 869.129968 189.149906 
L 883.98489 188.673196 
L 897.241981 189.189334 
L 908.949738 190.672254 
L 919.157198 193.095106 
L 927.913932 196.430275 
L 935.270039 200.6494 
L 941.276133 205.723395 
L 945.983329 211.622474 
L 949.443234 218.316176 
L 951.707921 225.773388 
L 952.829914 233.962375 
L 952.862163 242.850808 
L 951.858019 252.405797 
L 949.871207 262.593921 
L 946.955793 273.381263 
L 943.166153 284.733448 
L 938.556935 296.615677 
L 933.183023 308.992769 
L 927.099491 321.829201 
L 920.361564 335.089153 
L 913.024569 348.736549 
L 905.143882 362.735107 
L 896.774882 377.048388 
L 887.972887 391.639844 
L 878.793105 406.472871 
L 869.290564 421.510865 
L 859.520053 436.717279 
L 849.536053 452.055678 
L 839.392668 467.489804 
L 829.143548 482.983635 
L 818.841816 498.501454 
L 808.539988 514.00791 
L 798.28989 529.468096 
L 788.14257 544.847609 
L 778.148212 560.112635 
L 768.356043 575.230018 
L 758.814237 590.16734 
L 749.569815 604.893 
L 740.668546 619.376302 
L 732.15484 633.587534 
L 724.071637 647.498061 
L 716.4603 661.080409 
L 709.360496 674.308364 
L 702.810075 687.157065 
L 696.844954 699.603099 
L 691.498985 711.624604 
L 686.803828 723.20137 
L 682.788819 734.314948 
L 679.480831 744.948751 
L 676.904138 755.088174 
L 675.080264 764.720697 
L 674.027844 773.836011 
L 673.762466 782.426129 
L 674.29652 790.485512 
L 675.639039 798.011194 
L 677.795534 805.002903 
L 680.767832 811.4632 
L 684.553901 817.397605 
L 689.14768 822.814736 
L 694.538901 827.726448 
L 700.712905 832.147973 
L 707.650458 836.098068 
L 715.327561 839.599158 
L 723.715255 842.677492 
L 732.779427 845.363294 
L 742.480606 847.69092 
L 752.773755 849.699021 
L 763.608065 851.430703 
L 774.926739 852.933697 
L 786.666774 854.260525 
L 798.75874 855.468678 
L 811.12655 856.620786 
L 823.687233 857.784805 
L 836.350696 859.034195 
L 849.019485 860.448107 
L 861.588544 862.111575 
L 873.944964 864.115708 
L 885.967728 866.557887 
L 897.527461 869.541964 
L 908.486163 873.178466 
L 918.696944 877.584806 
L 928.003755 882.885487 
L 936.241113 889.212323 
L 943.23382 896.704653 
L 948.796679 905.509563 
L 952.734208 915.782114 
" clip-path="url(#p2c9954f878)" style="fill: none; stroke: #8c564b; stroke-width: 1.5"/>
    <path d="M 501.85383 276.18344 
L 541.84194 260.73796 
L 579.67549 246.539281 
L 615.400726 233.572081 
L 649.065273 221.82016 
L 680.718428 211.266499 
L 710.411537 201.89337 
L 738.198498 193.682516 
L 764.136419 186.615454 
L 788.286492 180.673973 
L 810.715137 175.840991 
L 831.495457 172.101977 
L 850.708964 169.447384 
L 868.447288 167.87671 
L 884.812918 167.405162 
L 899.916491 168.073891 
L 911.624248 169.556811 
L 913.865192 169.963482 
L 924.072652 172.386334 
L 926.732807 173.20478 
L 937.024468 177.194551 
L 938.503395 177.967388 
L 947.482382 183.217429 
L 949.005612 184.390588 
L 956.535367 190.885245 
L 957.912847 192.448055 
L 963.841579 200.042412 
L 964.890998 201.849298 
L 969.161717 210.303913 
L 969.808945 212.131296 
L 972.499748 221.222032 
L 972.795061 222.884188 
L 973.917053 231.073175 
L 974.113921 233.885152 
L 974.14617 242.773586 
L 974.029742 245.075331 
L 972.748639 256.47973 
L 970.418184 268.146998 
L 967.14473 280.12083 
L 963.009642 292.430906 
L 958.080274 305.092362 
L 952.416505 318.108035 
L 946.074419 331.471142 
L 939.10829 345.167605 
L 931.571632 359.17788 
L 923.517727 373.478327 
L 914.999871 388.042237 
L 906.071458 402.840588 
L 896.785989 417.842613 
L 887.19703 433.016229 
L 867.322824 463.745233 
L 846.875927 494.755535 
L 805.928955 556.537812 
L 786.256644 586.744703 
L 776.79615 601.554733 
L 767.650051 616.123772 
L 758.864956 630.418047 
L 750.486239 644.403952 
L 742.557904 658.047965 
L 735.122413 671.316519 
L 728.220477 684.175816 
L 721.890777 696.591572 
L 716.169575 708.528676 
L 711.090161 719.950776 
L 706.682043 730.819796 
L 702.969746 741.095463 
L 699.971049 750.735028 
L 697.694459 759.693527 
L 696.13581 767.925305 
L 695.274201 775.38795 
L 695.068381 782.050205 
L 695.456353 787.905058 
L 696.362889 792.98678 
L 697.719485 797.385085 
L 699.494759 801.243648 
L 701.720813 804.732835 
L 704.494694 808.003884 
L 707.948425 811.150432 
L 712.205803 814.199361 
L 717.351359 817.129131 
L 723.421589 819.897418 
L 730.412026 822.46295 
L 738.28956 824.797139 
L 747.003344 826.887858 
L 756.492234 828.739055 
L 766.689094 830.368852 
L 777.522968 831.80747 
L 788.92002 833.095535 
L 813.095637 835.427918 
L 838.711475 837.881378 
L 851.812013 839.347947 
L 864.996168 841.101981 
L 878.181876 843.257532 
L 891.287706 845.949327 
L 904.230888 849.340999 
L 916.919349 853.636299 
L 927.130131 858.042639 
L 929.230616 859.090032 
L 938.537428 864.390713 
L 940.968575 866.005666 
L 950.55216 873.457677 
L 951.80114 874.68991 
L 960.084689 883.702224 
L 961.227611 885.336346 
L 967.823295 895.970022 
L 968.670852 897.891678 
L 972.608381 908.164229 
L 972.608381 908.164229 
" clip-path="url(#p2c9954f878)" style="fill: none; stroke: #17becf; stroke-width: 1.5"/>
   </g>
   <g id="patch_3">
    <path d="M 478.239213 961.2 
L 478.239213 129.6 
" style="fill: none; stroke: #000000; stroke-width: 0.8; stroke-linejoin: miter; stroke-linecap: square"/>
   </g>
   <g id="patch_4">
    <path d="M 997.760787 961.2 
L 997.760787 129.6 
" style="fill: none; stroke: #000000; stroke-width: 0.8; stroke-linejoin: miter; stroke-linecap: square"/>
   </g>
   <g id="patch_5">
    <path d="M 478.239213 961.2 
L 997.760787 961.2 
" style="fill: none; stroke: #000000; stroke-width: 0.8; stroke-linejoin: miter; stroke-linecap: square"/>
   </g>
   <g id="patch_6">
    <path d="M 478.239213 129.6 
L 997.760787 129.6 
" style="fill: none; stroke: #000000; stroke-width: 0.8; stroke-linejoin: miter; stroke-linecap: square"/>
   </g>
  </g>
 </g>
 <defs>
  <clipPath id="p2c9954f878">
   <rect x="478.239213" y="129.6" width="519.521574" height="831.6"/>
  </clipPath>
 </defs>
</svg>
