<?xml version="1.0" encoding="utf-8" standalone="no"?>
<!DOCTYPE svg PUBLIC "-//W3C//DTD SVG 1.1//EN"
  "http://www.w3.org/Graphics/SVG/1.1/DTD/svg11.dtd">
<svg xmlns:xlink="http://www.w3.org/1999/xlink" width="1440pt" height="1080pt" viewBox="0 0 1440 1080" xmlns="http://www.w3.org/2000/svg" version="1.1">
 <metadata>
  <rdf:RDF xmlns:dc="http://purl.org/dc/elements/1.1/" xmlns:cc="http://creativecommons.org/ns#" xmlns:rdf="http://www.w3.org/1999/02/22-rdf-syntax-ns#">
   <cc:Work>
    <dc:type rdf:resource="http://purl.org/dc/dcmitype/StillImage"/>
    <dc:date>2023-12-11T12:06:40.823269</dc:date>
    <dc:format>image/svg+xml</dc:format>
    <dc:creator>
     <cc:Agent>
      <dc:title>Matplotlib v3.7.1, https://matplotlib.org/</dc:title>
     </cc:Agent>
    </dc:creator>
   </cc:Work>
  </rdf:RDF>
 </metadata>
 <defs>
  <style type="text/css">*{stroke-linejoin: round; stroke-linecap: butt}</style>
 </defs>
 <g id="figure_1">
  <g id="patch_1">
   <path d="M 0 1080 
L 1440 1080 
L 1440 0 
L 0 0 
z
" style="fill: #ffffff"/>
  </g>
  <g id="axes_1">
   <g id="patch_2">
    <path d="M 442.364193 961.2 
L 1033.635807 961.2 
L 1033.635807 129.6 
L 442.364193 129.6 
z
" style="fill: #ffffff"/>
   </g>
   <g id="matplotlib.axis_1">
    <g id="xtick_1">
     <g id="line2d_1">
      <defs>
       <path id="m77a51bc212" d="M 0 0 
L 0 3.5 
" style="stroke: #000000; stroke-width: 0.8"/>
      </defs>
      <g>
       <use xlink:href="#m77a51bc212" x="509.5167" y="961.2" style="stroke: #000000; stroke-width: 0.8"/>
      </g>
     </g>
     <g id="text_1">
      <!-- 250 -->
      <g transform="translate(499.97295 975.798437) scale(0.1 -0.1)">
       <defs>
        <path id="DejaVuSans-32" d="M 1228 531 
L 3431 531 
L 3431 0 
L 469 0 
L 469 531 
Q 828 903 1448 1529 
Q 2069 2156 2228 2338 
Q 2531 2678 2651 2914 
Q 2772 3150 2772 3378 
Q 2772 3750 2511 3984 
Q 2250 4219 1831 4219 
Q 1534 4219 1204 4116 
Q 875 4013 500 3803 
L 500 4441 
Q 881 4594 1212 4672 
Q 1544 4750 1819 4750 
Q 2544 4750 2975 4387 
Q 3406 4025 3406 3419 
Q 3406 3131 3298 2873 
Q 3191 2616 2906 2266 
Q 2828 2175 2409 1742 
Q 1991 1309 1228 531 
z
" transform="scale(0.015625)"/>
        <path id="DejaVuSans-35" d="M 691 4666 
L 3169 4666 
L 3169 4134 
L 1269 4134 
L 1269 2991 
Q 1406 3038 1543 3061 
Q 1681 3084 1819 3084 
Q 2600 3084 3056 2656 
Q 3513 2228 3513 1497 
Q 3513 744 3044 326 
Q 2575 -91 1722 -91 
Q 1428 -91 1123 -41 
Q 819 9 494 109 
L 494 744 
Q 775 591 1075 516 
Q 1375 441 1709 441 
Q 2250 441 2565 725 
Q 2881 1009 2881 1497 
Q 2881 1984 2565 2268 
Q 2250 2553 1709 2553 
Q 1456 2553 1204 2497 
Q 953 2441 691 2322 
L 691 4666 
z
" transform="scale(0.015625)"/>
        <path id="DejaVuSans-30" d="M 2034 4250 
Q 1547 4250 1301 3770 
Q 1056 3291 1056 2328 
Q 1056 1369 1301 889 
Q 1547 409 2034 409 
Q 2525 409 2770 889 
Q 3016 1369 3016 2328 
Q 3016 3291 2770 3770 
Q 2525 4250 2034 4250 
z
M 2034 4750 
Q 2819 4750 3233 4129 
Q 3647 3509 3647 2328 
Q 3647 1150 3233 529 
Q 2819 -91 2034 -91 
Q 1250 -91 836 529 
Q 422 1150 422 2328 
Q 422 3509 836 4129 
Q 1250 4750 2034 4750 
z
" transform="scale(0.015625)"/>
       </defs>
       <use xlink:href="#DejaVuSans-32"/>
       <use xlink:href="#DejaVuSans-35" x="63.623047"/>
       <use xlink:href="#DejaVuSans-30" x="127.246094"/>
      </g>
     </g>
    </g>
    <g id="xtick_2">
     <g id="line2d_2">
      <g>
       <use xlink:href="#m77a51bc212" x="578.687033" y="961.2" style="stroke: #000000; stroke-width: 0.8"/>
      </g>
     </g>
     <g id="text_2">
      <!-- 300 -->
      <g transform="translate(569.143283 975.798437) scale(0.1 -0.1)">
       <defs>
        <path id="DejaVuSans-33" d="M 2597 2516 
Q 3050 2419 3304 2112 
Q 3559 1806 3559 1356 
Q 3559 666 3084 287 
Q 2609 -91 1734 -91 
Q 1441 -91 1130 -33 
Q 819 25 488 141 
L 488 750 
Q 750 597 1062 519 
Q 1375 441 1716 441 
Q 2309 441 2620 675 
Q 2931 909 2931 1356 
Q 2931 1769 2642 2001 
Q 2353 2234 1838 2234 
L 1294 2234 
L 1294 2753 
L 1863 2753 
Q 2328 2753 2575 2939 
Q 2822 3125 2822 3475 
Q 2822 3834 2567 4026 
Q 2313 4219 1838 4219 
Q 1578 4219 1281 4162 
Q 984 4106 628 3988 
L 628 4550 
Q 988 4650 1302 4700 
Q 1616 4750 1894 4750 
Q 2613 4750 3031 4423 
Q 3450 4097 3450 3541 
Q 3450 3153 3228 2886 
Q 3006 2619 2597 2516 
z
" transform="scale(0.015625)"/>
       </defs>
       <use xlink:href="#DejaVuSans-33"/>
       <use xlink:href="#DejaVuSans-30" x="63.623047"/>
       <use xlink:href="#DejaVuSans-30" x="127.246094"/>
      </g>
     </g>
    </g>
    <g id="xtick_3">
     <g id="line2d_3">
      <g>
       <use xlink:href="#m77a51bc212" x="647.857366" y="961.2" style="stroke: #000000; stroke-width: 0.8"/>
      </g>
     </g>
     <g id="text_3">
      <!-- 350 -->
      <g transform="translate(638.313616 975.798437) scale(0.1 -0.1)">
       <use xlink:href="#DejaVuSans-33"/>
       <use xlink:href="#DejaVuSans-35" x="63.623047"/>
       <use xlink:href="#DejaVuSans-30" x="127.246094"/>
      </g>
     </g>
    </g>
    <g id="xtick_4">
     <g id="line2d_4">
      <g>
       <use xlink:href="#m77a51bc212" x="717.0277" y="961.2" style="stroke: #000000; stroke-width: 0.8"/>
      </g>
     </g>
     <g id="text_4">
      <!-- 400 -->
      <g transform="translate(707.48395 975.798437) scale(0.1 -0.1)">
       <defs>
        <path id="DejaVuSans-34" d="M 2419 4116 
L 825 1625 
L 2419 1625 
L 2419 4116 
z
M 2253 4666 
L 3047 4666 
L 3047 1625 
L 3713 1625 
L 3713 1100 
L 3047 1100 
L 3047 0 
L 2419 0 
L 2419 1100 
L 313 1100 
L 313 1709 
L 2253 4666 
z
" transform="scale(0.015625)"/>
       </defs>
       <use xlink:href="#DejaVuSans-34"/>
       <use xlink:href="#DejaVuSans-30" x="63.623047"/>
       <use xlink:href="#DejaVuSans-30" x="127.246094"/>
      </g>
     </g>
    </g>
    <g id="xtick_5">
     <g id="line2d_5">
      <g>
       <use xlink:href="#m77a51bc212" x="786.198033" y="961.2" style="stroke: #000000; stroke-width: 0.8"/>
      </g>
     </g>
     <g id="text_5">
      <!-- 450 -->
      <g transform="translate(776.654283 975.798437) scale(0.1 -0.1)">
       <use xlink:href="#DejaVuSans-34"/>
       <use xlink:href="#DejaVuSans-35" x="63.623047"/>
       <use xlink:href="#DejaVuSans-30" x="127.246094"/>
      </g>
     </g>
    </g>
    <g id="xtick_6">
     <g id="line2d_6">
      <g>
       <use xlink:href="#m77a51bc212" x="855.368366" y="961.2" style="stroke: #000000; stroke-width: 0.8"/>
      </g>
     </g>
     <g id="text_6">
      <!-- 500 -->
      <g transform="translate(845.824616 975.798437) scale(0.1 -0.1)">
       <use xlink:href="#DejaVuSans-35"/>
       <use xlink:href="#DejaVuSans-30" x="63.623047"/>
       <use xlink:href="#DejaVuSans-30" x="127.246094"/>
      </g>
     </g>
    </g>
    <g id="xtick_7">
     <g id="line2d_7">
      <g>
       <use xlink:href="#m77a51bc212" x="924.538699" y="961.2" style="stroke: #000000; stroke-width: 0.8"/>
      </g>
     </g>
     <g id="text_7">
      <!-- 550 -->
      <g transform="translate(914.994949 975.798437) scale(0.1 -0.1)">
       <use xlink:href="#DejaVuSans-35"/>
       <use xlink:href="#DejaVuSans-35" x="63.623047"/>
       <use xlink:href="#DejaVuSans-30" x="127.246094"/>
      </g>
     </g>
    </g>
    <g id="xtick_8">
     <g id="line2d_8">
      <g>
       <use xlink:href="#m77a51bc212" x="993.709032" y="961.2" style="stroke: #000000; stroke-width: 0.8"/>
      </g>
     </g>
     <g id="text_8">
      <!-- 600 -->
      <g transform="translate(984.165282 975.798437) scale(0.1 -0.1)">
       <defs>
        <path id="DejaVuSans-36" d="M 2113 2584 
Q 1688 2584 1439 2293 
Q 1191 2003 1191 1497 
Q 1191 994 1439 701 
Q 1688 409 2113 409 
Q 2538 409 2786 701 
Q 3034 994 3034 1497 
Q 3034 2003 2786 2293 
Q 2538 2584 2113 2584 
z
M 3366 4563 
L 3366 3988 
Q 3128 4100 2886 4159 
Q 2644 4219 2406 4219 
Q 1781 4219 1451 3797 
Q 1122 3375 1075 2522 
Q 1259 2794 1537 2939 
Q 1816 3084 2150 3084 
Q 2853 3084 3261 2657 
Q 3669 2231 3669 1497 
Q 3669 778 3244 343 
Q 2819 -91 2113 -91 
Q 1303 -91 875 529 
Q 447 1150 447 2328 
Q 447 3434 972 4092 
Q 1497 4750 2381 4750 
Q 2619 4750 2861 4703 
Q 3103 4656 3366 4563 
z
" transform="scale(0.015625)"/>
       </defs>
       <use xlink:href="#DejaVuSans-36"/>
       <use xlink:href="#DejaVuSans-30" x="63.623047"/>
       <use xlink:href="#DejaVuSans-30" x="127.246094"/>
      </g>
     </g>
    </g>
   </g>
   <g id="matplotlib.axis_2">
    <g id="ytick_1">
     <g id="line2d_9">
      <defs>
       <path id="macf6822f9f" d="M 0 0 
L -3.5 0 
" style="stroke: #000000; stroke-width: 0.8"/>
      </defs>
      <g>
       <use xlink:href="#macf6822f9f" x="442.364193" y="878.717841" style="stroke: #000000; stroke-width: 0.8"/>
      </g>
     </g>
     <g id="text_9">
      <!-- 900 -->
      <g transform="translate(416.276693 882.517059) scale(0.1 -0.1)">
       <defs>
        <path id="DejaVuSans-39" d="M 703 97 
L 703 672 
Q 941 559 1184 500 
Q 1428 441 1663 441 
Q 2288 441 2617 861 
Q 2947 1281 2994 2138 
Q 2813 1869 2534 1725 
Q 2256 1581 1919 1581 
Q 1219 1581 811 2004 
Q 403 2428 403 3163 
Q 403 3881 828 4315 
Q 1253 4750 1959 4750 
Q 2769 4750 3195 4129 
Q 3622 3509 3622 2328 
Q 3622 1225 3098 567 
Q 2575 -91 1691 -91 
Q 1453 -91 1209 -44 
Q 966 3 703 97 
z
M 1959 2075 
Q 2384 2075 2632 2365 
Q 2881 2656 2881 3163 
Q 2881 3666 2632 3958 
Q 2384 4250 1959 4250 
Q 1534 4250 1286 3958 
Q 1038 3666 1038 3163 
Q 1038 2656 1286 2365 
Q 1534 2075 1959 2075 
z
" transform="scale(0.015625)"/>
       </defs>
       <use xlink:href="#DejaVuSans-39"/>
       <use xlink:href="#DejaVuSans-30" x="63.623047"/>
       <use xlink:href="#DejaVuSans-30" x="127.246094"/>
      </g>
     </g>
    </g>
    <g id="ytick_2">
     <g id="line2d_10">
      <g>
       <use xlink:href="#macf6822f9f" x="442.364193" y="740.377174" style="stroke: #000000; stroke-width: 0.8"/>
      </g>
     </g>
     <g id="text_10">
      <!-- 1000 -->
      <g transform="translate(409.914193 744.176393) scale(0.1 -0.1)">
       <defs>
        <path id="DejaVuSans-31" d="M 794 531 
L 1825 531 
L 1825 4091 
L 703 3866 
L 703 4441 
L 1819 4666 
L 2450 4666 
L 2450 531 
L 3481 531 
L 3481 0 
L 794 0 
L 794 531 
z
" transform="scale(0.015625)"/>
       </defs>
       <use xlink:href="#DejaVuSans-31"/>
       <use xlink:href="#DejaVuSans-30" x="63.623047"/>
       <use xlink:href="#DejaVuSans-30" x="127.246094"/>
       <use xlink:href="#DejaVuSans-30" x="190.869141"/>
      </g>
     </g>
    </g>
    <g id="ytick_3">
     <g id="line2d_11">
      <g>
       <use xlink:href="#macf6822f9f" x="442.364193" y="602.036508" style="stroke: #000000; stroke-width: 0.8"/>
      </g>
     </g>
     <g id="text_11">
      <!-- 1100 -->
      <g transform="translate(409.914193 605.835727) scale(0.1 -0.1)">
       <use xlink:href="#DejaVuSans-31"/>
       <use xlink:href="#DejaVuSans-31" x="63.623047"/>
       <use xlink:href="#DejaVuSans-30" x="127.246094"/>
       <use xlink:href="#DejaVuSans-30" x="190.869141"/>
      </g>
     </g>
    </g>
    <g id="ytick_4">
     <g id="line2d_12">
      <g>
       <use xlink:href="#macf6822f9f" x="442.364193" y="463.695842" style="stroke: #000000; stroke-width: 0.8"/>
      </g>
     </g>
     <g id="text_12">
      <!-- 1200 -->
      <g transform="translate(409.914193 467.49506) scale(0.1 -0.1)">
       <use xlink:href="#DejaVuSans-31"/>
       <use xlink:href="#DejaVuSans-32" x="63.623047"/>
       <use xlink:href="#DejaVuSans-30" x="127.246094"/>
       <use xlink:href="#DejaVuSans-30" x="190.869141"/>
      </g>
     </g>
    </g>
    <g id="ytick_5">
     <g id="line2d_13">
      <g>
       <use xlink:href="#macf6822f9f" x="442.364193" y="325.355175" style="stroke: #000000; stroke-width: 0.8"/>
      </g>
     </g>
     <g id="text_13">
      <!-- 1300 -->
      <g transform="translate(409.914193 329.154394) scale(0.1 -0.1)">
       <use xlink:href="#DejaVuSans-31"/>
       <use xlink:href="#DejaVuSans-33" x="63.623047"/>
       <use xlink:href="#DejaVuSans-30" x="127.246094"/>
       <use xlink:href="#DejaVuSans-30" x="190.869141"/>
      </g>
     </g>
    </g>
    <g id="ytick_6">
     <g id="line2d_14">
      <g>
       <use xlink:href="#macf6822f9f" x="442.364193" y="187.014509" style="stroke: #000000; stroke-width: 0.8"/>
      </g>
     </g>
     <g id="text_14">
      <!-- 1400 -->
      <g transform="translate(409.914193 190.813728) scale(0.1 -0.1)">
       <use xlink:href="#DejaVuSans-31"/>
       <use xlink:href="#DejaVuSans-34" x="63.623047"/>
       <use xlink:href="#DejaVuSans-30" x="127.246094"/>
       <use xlink:href="#DejaVuSans-30" x="190.869141"/>
      </g>
     </g>
    </g>
   </g>
   <g id="LineCollection_1">
    <path d="M 502.853518 223.229898 
L 516.081779 227.042994 
L 526.738398 231.01728 
L 535.824893 235.33678 
L 543.448716 239.91994 
L 549.758745 244.706175 
L 554.938419 249.678397 
L 559.182187 254.87942 
L 562.66085 260.409609 
L 565.491876 266.401639 
L 567.730122 272.98341 
L 569.380809 280.247536 
L 570.423566 288.238677 
L 570.834468 296.957288 
L 570.599616 306.371593 
L 569.720426 316.430408 
L 568.21362 327.073148 
L 566.108802 338.236317 
L 563.445434 349.857162 
L 560.27007 361.875445 
L 556.634112 374.234114 
L 552.592111 386.879399 
L 548.200502 399.760656 
L 543.516671 412.830126 
L 538.598272 426.042701 
L 528.286694 452.728908 
L 507.278401 506.188287 
L 502.255827 519.374962 
L 497.425513 532.431288 
L 492.833583 545.335149 
L 488.524413 558.067646 
L 484.540787 570.613342 
L 480.924186 582.96047 
L 477.71523 595.10107 
L 474.954307 607.030935 
L 472.682397 618.749266 
L 470.942065 630.257828 
L 469.77848 641.559346 
L 469.240175 652.654904 
L 469.379014 663.540137 
L 470.248575 674.200405 
L 471.900096 684.605734 
L 474.375522 694.70722 
L 476.747904 701.936212 
L 477.69837 704.437287 
L 480.650509 711.243862 
L 481.864907 713.715749 
L 485.390233 720.106884 
L 486.839336 722.46159 
L 490.92769 728.446825 
L 492.556 730.607297 
L 497.193697 736.198703 
L 498.928607 738.110689 
L 505.863084 744.960194 
L 513.269334 751.172857 
L 521.068632 756.787463 
L 529.196029 761.856193 
L 537.599055 766.437395 
L 546.234606 770.590538 
L 555.065485 774.373313 
L 564.057431 777.840324 
L 573.176943 781.042749 
L 582.389873 784.028489 
L 591.660676 786.842483 
L 610.225533 792.121954 
L 637.678876 799.774501 
L 646.541102 802.383511 
L 655.187398 805.068406 
L 663.584364 807.854175 
L 671.703616 810.762737 
L 679.523522 813.81316 
L 687.031036 817.022202 
L 694.22346 820.40524 
L 701.109896 823.977573 
L 707.712121 827.755925 
L 714.064663 831.759799 
L 720.214069 836.012229 
L 726.217642 840.539411 
L 732.142255 845.368941 
L 738.063971 850.526663 
L 744.06909 856.032459 
L 763.90125 874.85362 
L 771.604371 881.78395 
L 780.116389 888.855915 
L 789.631332 895.897801 
L 800.331817 902.680923 
L 809.865551 907.751244 
L 812.36804 908.932849 
L 823.076154 913.378229 
L 825.850645 914.368318 
L 837.988651 918.017518 
L 840.87046 918.725647 
L 854.722313 921.387541 
L 857.540774 921.787143 
L 873.42061 923.249484 
L 876.039837 923.371853 
L 896.633043 923.309285 
L 919.671997 921.411828 
L 945.581035 917.4569 
L 974.842437 911.17966 
L 1006.759825 902.629769 
L 1006.759825 902.629769 
" clip-path="url(#p5a5618cb80)" style="fill: none; stroke: #1f77b4; stroke-width: 1.5"/>
    <path d="M 510.900107 195.314949 
L 525.194092 199.435244 
L 538.071887 204.237897 
L 549.578058 209.707652 
L 559.758397 215.827695 
L 568.659964 222.579642 
L 576.331107 229.943549 
L 582.821467 237.897921 
L 588.181965 246.419749 
L 592.464767 255.484547 
L 595.723246 265.066407 
L 598.01191 275.138058 
L 599.386337 285.670942 
L 599.903079 296.635292 
L 599.619566 308.000223 
L 598.593991 319.73383 
L 596.885188 331.803294 
L 594.552502 344.17499 
L 591.655643 356.814609 
L 588.25454 369.687278 
L 584.409186 382.757689 
L 580.179472 395.99023 
L 575.625022 409.349123 
L 570.805019 422.798558 
L 565.778032 436.302839 
L 560.601834 449.826523 
L 555.333224 463.334565 
L 550.027844 476.79246 
L 544.740001 490.166391 
L 539.522482 503.423367 
L 534.426377 516.531369 
L 529.500906 529.459487 
L 524.793239 542.17806 
L 520.348332 554.658806 
L 516.208764 566.874954 
L 512.414576 578.801371 
L 509.003124 590.414679 
L 506.008931 601.693374 
L 503.463559 612.617929 
L 501.39548 623.170901 
L 499.829962 633.33702 
L 498.788965 643.10328 
L 498.291055 652.459009 
L 498.351318 661.395943 
L 498.981302 669.90828 
L 500.188965 677.992728 
L 501.978642 685.648537 
L 504.351024 692.877529 
L 507.303163 699.684104 
L 510.828489 706.075239 
L 514.916844 712.060474 
L 519.554541 717.651881 
L 524.724443 722.864015 
L 530.406063 727.713861 
L 536.575682 732.22075 
L 543.2065 736.406269 
L 550.268805 740.294147 
L 557.730164 743.910131 
L 565.555649 747.28183 
L 573.708084 750.438556 
L 582.148319 753.41113 
L 590.835537 756.231677 
L 599.727589 758.9334 
L 608.781355 761.550324 
L 617.953144 764.117026 
L 627.199117 766.668337 
L 636.475756 769.239025 
L 645.74035 771.863449 
L 654.951534 774.57519 
L 664.069846 777.406658 
L 673.058334 780.38867 
L 681.883196 783.550004 
L 690.514453 786.916923 
L 698.926673 790.512674 
L 707.099719 794.356959 
L 715.019555 798.465368 
L 722.67908 802.848796 
L 730.079013 807.51282 
L 737.228818 812.457044 
L 744.147673 817.674423 
L 750.865486 823.150541 
L 757.423956 828.862865 
L 763.877681 834.779966 
L 770.295317 840.860697 
L 776.760779 847.053348 
L 783.374496 853.294755 
L 790.254721 859.509382 
L 797.538879 865.608359 
L 805.384982 871.48849 
L 813.973091 877.031213 
L 823.506825 882.101534 
L 834.214939 886.546914 
L 846.352945 890.196113 
L 860.204798 892.858006 
L 876.084634 894.320347 
L 894.338569 894.348495 
L 915.346558 892.684097 
L 939.524311 889.043733 
L 967.325271 883.117511 
L 999.242659 874.567621 
" clip-path="url(#p5a5618cb80)" style="fill: none; stroke: #8c564b; stroke-width: 1.5"/>
    <path d="M 518.946696 167.4 
L 535.345606 172.215054 
L 550.544692 178.000117 
L 562.050863 183.469872 
L 564.546238 184.808946 
L 574.726577 190.928989 
L 577.315162 192.681378 
L 586.216729 199.433326 
L 588.778524 201.621696 
L 596.449667 208.985603 
L 598.840372 211.577141 
L 605.330732 219.531513 
L 607.412465 222.429411 
L 612.772962 230.951238 
L 614.449314 234.009337 
L 618.732117 243.074135 
L 619.969409 246.131115 
L 623.227887 255.712975 
L 624.052568 258.628901 
L 626.341232 268.700553 
L 626.819228 271.379017 
L 628.405666 284.303281 
L 628.945583 297.359795 
L 628.560766 310.529826 
L 627.358666 323.806351 
L 625.433693 337.186121 
L 622.86984 350.665007 
L 619.743353 364.235695 
L 616.124941 377.886834 
L 612.081425 391.602978 
L 607.676873 405.364925 
L 602.973345 419.150202 
L 598.031348 432.933596 
L 592.910076 446.687645 
L 582.360428 473.989246 
L 561.53927 526.966538 
L 556.698048 539.673521 
L 552.100685 552.094088 
L 547.7912 564.194587 
L 543.810729 575.94123 
L 540.197098 587.300096 
L 536.984299 598.237144 
L 534.201839 608.718272 
L 531.873932 618.709486 
L 530.018514 628.177291 
L 528.646094 637.089471 
L 527.758511 645.416468 
L 527.347804 653.133634 
L 527.39562 660.22458 
L 527.873794 666.685662 
L 528.746996 672.531129 
L 529.978144 677.797689 
L 531.536558 682.546401 
L 533.407268 686.859588 
L 535.598283 690.831724 
L 538.142195 694.555938 
L 541.090451 698.110482 
L 544.502037 701.549937 
L 548.430903 704.903628 
L 552.916365 708.180245 
L 557.978475 711.37556 
L 563.617925 714.480141 
L 569.818788 717.485253 
L 576.552353 720.386486 
L 583.780882 723.185464 
L 591.460751 725.890244 
L 599.544841 728.514969 
L 607.98426 731.079166 
L 625.731578 736.126122 
L 653.944872 743.994509 
L 663.566959 746.830525 
L 673.217671 749.832952 
L 682.855799 753.039051 
L 692.440919 756.484777 
L 701.932964 760.203451 
L 711.291848 764.224 
L 720.477331 768.568755 
L 729.449423 773.250871 
L 738.169554 778.271629 
L 746.602694 783.618051 
L 754.72027 789.261331 
L 762.503468 795.156501 
L 769.946185 801.24349 
L 777.056934 807.449362 
L 783.859221 813.691343 
L 803.083081 831.948461 
L 809.323237 837.584941 
L 815.58842 842.830738 
L 821.993393 847.630837 
L 828.696724 851.957134 
L 835.925025 855.801358 
L 843.991609 859.150129 
L 853.294441 861.946955 
L 864.287853 864.059545 
L 877.441808 865.270866 
L 893.211902 865.295183 
L 912.0325 863.804085 
L 934.328464 860.447056 
L 960.533788 854.86097 
L 991.725493 846.505472 
L 991.725493 846.505472 
" clip-path="url(#p5a5618cb80)" style="fill: none; stroke: #17becf; stroke-width: 1.5"/>
   </g>
   <g id="patch_3">
    <path d="M 442.364193 961.2 
L 442.364193 129.6 
" style="fill: none; stroke: #000000; stroke-width: 0.8; stroke-linejoin: miter; stroke-linecap: square"/>
   </g>
   <g id="patch_4">
    <path d="M 1033.635807 961.2 
L 1033.635807 129.6 
" style="fill: none; stroke: #000000; stroke-width: 0.8; stroke-linejoin: miter; stroke-linecap: square"/>
   </g>
   <g id="patch_5">
    <path d="M 442.364193 961.2 
L 1033.635807 961.2 
" style="fill: none; stroke: #000000; stroke-width: 0.8; stroke-linejoin: miter; stroke-linecap: square"/>
   </g>
   <g id="patch_6">
    <path d="M 442.364193 129.6 
L 1033.635807 129.6 
" style="fill: none; stroke: #000000; stroke-width: 0.8; stroke-linejoin: miter; stroke-linecap: square"/>
   </g>
  </g>
 </g>
 <defs>
  <clipPath id="p5a5618cb80">
   <rect x="442.364193" y="129.6" width="591.271614" height="831.6"/>
  </clipPath>
 </defs>
</svg>
