<?xml version="1.0" encoding="utf-8" standalone="no"?>
<!DOCTYPE svg PUBLIC "-//W3C//DTD SVG 1.1//EN"
  "http://www.w3.org/Graphics/SVG/1.1/DTD/svg11.dtd">
<svg xmlns:xlink="http://www.w3.org/1999/xlink" width="1440pt" height="1080pt" viewBox="0 0 1440 1080" xmlns="http://www.w3.org/2000/svg" version="1.1">
 <metadata>
  <rdf:RDF xmlns:dc="http://purl.org/dc/elements/1.1/" xmlns:cc="http://creativecommons.org/ns#" xmlns:rdf="http://www.w3.org/1999/02/22-rdf-syntax-ns#">
   <cc:Work>
    <dc:type rdf:resource="http://purl.org/dc/dcmitype/StillImage"/>
    <dc:date>2023-12-11T12:06:43.946995</dc:date>
    <dc:format>image/svg+xml</dc:format>
    <dc:creator>
     <cc:Agent>
      <dc:title>Matplotlib v3.7.1, https://matplotlib.org/</dc:title>
     </cc:Agent>
    </dc:creator>
   </cc:Work>
  </rdf:RDF>
 </metadata>
 <defs>
  <style type="text/css">*{stroke-linejoin: round; stroke-linecap: butt}</style>
 </defs>
 <g id="figure_1">
  <g id="patch_1">
   <path d="M 0 1080 
L 1440 1080 
L 1440 0 
L 0 0 
z
" style="fill: #ffffff"/>
  </g>
  <g id="axes_1">
   <g id="patch_2">
    <path d="M 180 931.174068 
L 1296 931.174068 
L 1296 159.625932 
L 180 159.625932 
z
" style="fill: #ffffff"/>
   </g>
   <g id="matplotlib.axis_1">
    <g id="xtick_1">
     <g id="line2d_1">
      <defs>
       <path id="mb23ac5603d" d="M 0 0 
L 0 3.5 
" style="stroke: #000000; stroke-width: 0.8"/>
      </defs>
      <g>
       <use xlink:href="#mb23ac5603d" x="320.79814" y="931.174068" style="stroke: #000000; stroke-width: 0.8"/>
      </g>
     </g>
     <g id="text_1">
      <!-- 400 -->
      <g transform="translate(311.25439 945.772506) scale(0.1 -0.1)">
       <defs>
        <path id="DejaVuSans-34" d="M 2419 4116 
L 825 1625 
L 2419 1625 
L 2419 4116 
z
M 2253 4666 
L 3047 4666 
L 3047 1625 
L 3713 1625 
L 3713 1100 
L 3047 1100 
L 3047 0 
L 2419 0 
L 2419 1100 
L 313 1100 
L 313 1709 
L 2253 4666 
z
" transform="scale(0.015625)"/>
        <path id="DejaVuSans-30" d="M 2034 4250 
Q 1547 4250 1301 3770 
Q 1056 3291 1056 2328 
Q 1056 1369 1301 889 
Q 1547 409 2034 409 
Q 2525 409 2770 889 
Q 3016 1369 3016 2328 
Q 3016 3291 2770 3770 
Q 2525 4250 2034 4250 
z
M 2034 4750 
Q 2819 4750 3233 4129 
Q 3647 3509 3647 2328 
Q 3647 1150 3233 529 
Q 2819 -91 2034 -91 
Q 1250 -91 836 529 
Q 422 1150 422 2328 
Q 422 3509 836 4129 
Q 1250 4750 2034 4750 
z
" transform="scale(0.015625)"/>
       </defs>
       <use xlink:href="#DejaVuSans-34"/>
       <use xlink:href="#DejaVuSans-30" x="63.623047"/>
       <use xlink:href="#DejaVuSans-30" x="127.246094"/>
      </g>
     </g>
    </g>
    <g id="xtick_2">
     <g id="line2d_2">
      <g>
       <use xlink:href="#mb23ac5603d" x="549.85226" y="931.174068" style="stroke: #000000; stroke-width: 0.8"/>
      </g>
     </g>
     <g id="text_2">
      <!-- 600 -->
      <g transform="translate(540.30851 945.772506) scale(0.1 -0.1)">
       <defs>
        <path id="DejaVuSans-36" d="M 2113 2584 
Q 1688 2584 1439 2293 
Q 1191 2003 1191 1497 
Q 1191 994 1439 701 
Q 1688 409 2113 409 
Q 2538 409 2786 701 
Q 3034 994 3034 1497 
Q 3034 2003 2786 2293 
Q 2538 2584 2113 2584 
z
M 3366 4563 
L 3366 3988 
Q 3128 4100 2886 4159 
Q 2644 4219 2406 4219 
Q 1781 4219 1451 3797 
Q 1122 3375 1075 2522 
Q 1259 2794 1537 2939 
Q 1816 3084 2150 3084 
Q 2853 3084 3261 2657 
Q 3669 2231 3669 1497 
Q 3669 778 3244 343 
Q 2819 -91 2113 -91 
Q 1303 -91 875 529 
Q 447 1150 447 2328 
Q 447 3434 972 4092 
Q 1497 4750 2381 4750 
Q 2619 4750 2861 4703 
Q 3103 4656 3366 4563 
z
" transform="scale(0.015625)"/>
       </defs>
       <use xlink:href="#DejaVuSans-36"/>
       <use xlink:href="#DejaVuSans-30" x="63.623047"/>
       <use xlink:href="#DejaVuSans-30" x="127.246094"/>
      </g>
     </g>
    </g>
    <g id="xtick_3">
     <g id="line2d_3">
      <g>
       <use xlink:href="#mb23ac5603d" x="778.90638" y="931.174068" style="stroke: #000000; stroke-width: 0.8"/>
      </g>
     </g>
     <g id="text_3">
      <!-- 800 -->
      <g transform="translate(769.36263 945.772506) scale(0.1 -0.1)">
       <defs>
        <path id="DejaVuSans-38" d="M 2034 2216 
Q 1584 2216 1326 1975 
Q 1069 1734 1069 1313 
Q 1069 891 1326 650 
Q 1584 409 2034 409 
Q 2484 409 2743 651 
Q 3003 894 3003 1313 
Q 3003 1734 2745 1975 
Q 2488 2216 2034 2216 
z
M 1403 2484 
Q 997 2584 770 2862 
Q 544 3141 544 3541 
Q 544 4100 942 4425 
Q 1341 4750 2034 4750 
Q 2731 4750 3128 4425 
Q 3525 4100 3525 3541 
Q 3525 3141 3298 2862 
Q 3072 2584 2669 2484 
Q 3125 2378 3379 2068 
Q 3634 1759 3634 1313 
Q 3634 634 3220 271 
Q 2806 -91 2034 -91 
Q 1263 -91 848 271 
Q 434 634 434 1313 
Q 434 1759 690 2068 
Q 947 2378 1403 2484 
z
M 1172 3481 
Q 1172 3119 1398 2916 
Q 1625 2713 2034 2713 
Q 2441 2713 2670 2916 
Q 2900 3119 2900 3481 
Q 2900 3844 2670 4047 
Q 2441 4250 2034 4250 
Q 1625 4250 1398 4047 
Q 1172 3844 1172 3481 
z
" transform="scale(0.015625)"/>
       </defs>
       <use xlink:href="#DejaVuSans-38"/>
       <use xlink:href="#DejaVuSans-30" x="63.623047"/>
       <use xlink:href="#DejaVuSans-30" x="127.246094"/>
      </g>
     </g>
    </g>
    <g id="xtick_4">
     <g id="line2d_4">
      <g>
       <use xlink:href="#mb23ac5603d" x="1007.960501" y="931.174068" style="stroke: #000000; stroke-width: 0.8"/>
      </g>
     </g>
     <g id="text_4">
      <!-- 1000 -->
      <g transform="translate(995.235501 945.772506) scale(0.1 -0.1)">
       <defs>
        <path id="DejaVuSans-31" d="M 794 531 
L 1825 531 
L 1825 4091 
L 703 3866 
L 703 4441 
L 1819 4666 
L 2450 4666 
L 2450 531 
L 3481 531 
L 3481 0 
L 794 0 
L 794 531 
z
" transform="scale(0.015625)"/>
       </defs>
       <use xlink:href="#DejaVuSans-31"/>
       <use xlink:href="#DejaVuSans-30" x="63.623047"/>
       <use xlink:href="#DejaVuSans-30" x="127.246094"/>
       <use xlink:href="#DejaVuSans-30" x="190.869141"/>
      </g>
     </g>
    </g>
    <g id="xtick_5">
     <g id="line2d_5">
      <g>
       <use xlink:href="#mb23ac5603d" x="1237.014621" y="931.174068" style="stroke: #000000; stroke-width: 0.8"/>
      </g>
     </g>
     <g id="text_5">
      <!-- 1200 -->
      <g transform="translate(1224.289621 945.772506) scale(0.1 -0.1)">
       <defs>
        <path id="DejaVuSans-32" d="M 1228 531 
L 3431 531 
L 3431 0 
L 469 0 
L 469 531 
Q 828 903 1448 1529 
Q 2069 2156 2228 2338 
Q 2531 2678 2651 2914 
Q 2772 3150 2772 3378 
Q 2772 3750 2511 3984 
Q 2250 4219 1831 4219 
Q 1534 4219 1204 4116 
Q 875 4013 500 3803 
L 500 4441 
Q 881 4594 1212 4672 
Q 1544 4750 1819 4750 
Q 2544 4750 2975 4387 
Q 3406 4025 3406 3419 
Q 3406 3131 3298 2873 
Q 3191 2616 2906 2266 
Q 2828 2175 2409 1742 
Q 1991 1309 1228 531 
z
" transform="scale(0.015625)"/>
       </defs>
       <use xlink:href="#DejaVuSans-31"/>
       <use xlink:href="#DejaVuSans-32" x="63.623047"/>
       <use xlink:href="#DejaVuSans-30" x="127.246094"/>
       <use xlink:href="#DejaVuSans-30" x="190.869141"/>
      </g>
     </g>
    </g>
   </g>
   <g id="matplotlib.axis_2">
    <g id="ytick_1">
     <g id="line2d_6">
      <defs>
       <path id="mc483b6aab2" d="M 0 0 
L -3.5 0 
" style="stroke: #000000; stroke-width: 0.8"/>
      </defs>
      <g>
       <use xlink:href="#mc483b6aab2" x="180" y="914.459655" style="stroke: #000000; stroke-width: 0.8"/>
      </g>
     </g>
     <g id="text_6">
      <!-- 600 -->
      <g transform="translate(153.9125 918.258874) scale(0.1 -0.1)">
       <use xlink:href="#DejaVuSans-36"/>
       <use xlink:href="#DejaVuSans-30" x="63.623047"/>
       <use xlink:href="#DejaVuSans-30" x="127.246094"/>
      </g>
     </g>
    </g>
    <g id="ytick_2">
     <g id="line2d_7">
      <g>
       <use xlink:href="#mc483b6aab2" x="180" y="799.932595" style="stroke: #000000; stroke-width: 0.8"/>
      </g>
     </g>
     <g id="text_7">
      <!-- 700 -->
      <g transform="translate(153.9125 803.731814) scale(0.1 -0.1)">
       <defs>
        <path id="DejaVuSans-37" d="M 525 4666 
L 3525 4666 
L 3525 4397 
L 1831 0 
L 1172 0 
L 2766 4134 
L 525 4134 
L 525 4666 
z
" transform="scale(0.015625)"/>
       </defs>
       <use xlink:href="#DejaVuSans-37"/>
       <use xlink:href="#DejaVuSans-30" x="63.623047"/>
       <use xlink:href="#DejaVuSans-30" x="127.246094"/>
      </g>
     </g>
    </g>
    <g id="ytick_3">
     <g id="line2d_8">
      <g>
       <use xlink:href="#mc483b6aab2" x="180" y="685.405535" style="stroke: #000000; stroke-width: 0.8"/>
      </g>
     </g>
     <g id="text_8">
      <!-- 800 -->
      <g transform="translate(153.9125 689.204753) scale(0.1 -0.1)">
       <use xlink:href="#DejaVuSans-38"/>
       <use xlink:href="#DejaVuSans-30" x="63.623047"/>
       <use xlink:href="#DejaVuSans-30" x="127.246094"/>
      </g>
     </g>
    </g>
    <g id="ytick_4">
     <g id="line2d_9">
      <g>
       <use xlink:href="#mc483b6aab2" x="180" y="570.878474" style="stroke: #000000; stroke-width: 0.8"/>
      </g>
     </g>
     <g id="text_9">
      <!-- 900 -->
      <g transform="translate(153.9125 574.677693) scale(0.1 -0.1)">
       <defs>
        <path id="DejaVuSans-39" d="M 703 97 
L 703 672 
Q 941 559 1184 500 
Q 1428 441 1663 441 
Q 2288 441 2617 861 
Q 2947 1281 2994 2138 
Q 2813 1869 2534 1725 
Q 2256 1581 1919 1581 
Q 1219 1581 811 2004 
Q 403 2428 403 3163 
Q 403 3881 828 4315 
Q 1253 4750 1959 4750 
Q 2769 4750 3195 4129 
Q 3622 3509 3622 2328 
Q 3622 1225 3098 567 
Q 2575 -91 1691 -91 
Q 1453 -91 1209 -44 
Q 966 3 703 97 
z
M 1959 2075 
Q 2384 2075 2632 2365 
Q 2881 2656 2881 3163 
Q 2881 3666 2632 3958 
Q 2384 4250 1959 4250 
Q 1534 4250 1286 3958 
Q 1038 3666 1038 3163 
Q 1038 2656 1286 2365 
Q 1534 2075 1959 2075 
z
" transform="scale(0.015625)"/>
       </defs>
       <use xlink:href="#DejaVuSans-39"/>
       <use xlink:href="#DejaVuSans-30" x="63.623047"/>
       <use xlink:href="#DejaVuSans-30" x="127.246094"/>
      </g>
     </g>
    </g>
    <g id="ytick_5">
     <g id="line2d_10">
      <g>
       <use xlink:href="#mc483b6aab2" x="180" y="456.351414" style="stroke: #000000; stroke-width: 0.8"/>
      </g>
     </g>
     <g id="text_10">
      <!-- 1000 -->
      <g transform="translate(147.55 460.150633) scale(0.1 -0.1)">
       <use xlink:href="#DejaVuSans-31"/>
       <use xlink:href="#DejaVuSans-30" x="63.623047"/>
       <use xlink:href="#DejaVuSans-30" x="127.246094"/>
       <use xlink:href="#DejaVuSans-30" x="190.869141"/>
      </g>
     </g>
    </g>
    <g id="ytick_6">
     <g id="line2d_11">
      <g>
       <use xlink:href="#mc483b6aab2" x="180" y="341.824354" style="stroke: #000000; stroke-width: 0.8"/>
      </g>
     </g>
     <g id="text_11">
      <!-- 1100 -->
      <g transform="translate(147.55 345.623573) scale(0.1 -0.1)">
       <use xlink:href="#DejaVuSans-31"/>
       <use xlink:href="#DejaVuSans-31" x="63.623047"/>
       <use xlink:href="#DejaVuSans-30" x="127.246094"/>
       <use xlink:href="#DejaVuSans-30" x="190.869141"/>
      </g>
     </g>
    </g>
    <g id="ytick_7">
     <g id="line2d_12">
      <g>
       <use xlink:href="#mc483b6aab2" x="180" y="227.297294" style="stroke: #000000; stroke-width: 0.8"/>
      </g>
     </g>
     <g id="text_12">
      <!-- 1200 -->
      <g transform="translate(147.55 231.096513) scale(0.1 -0.1)">
       <use xlink:href="#DejaVuSans-31"/>
       <use xlink:href="#DejaVuSans-32" x="63.623047"/>
       <use xlink:href="#DejaVuSans-30" x="127.246094"/>
       <use xlink:href="#DejaVuSans-30" x="190.869141"/>
      </g>
     </g>
    </g>
   </g>
   <g id="LineCollection_1">
    <path d="M 255.112205 305.057945 
L 278.697298 295.362485 
L 300.478941 287.289866 
L 321.072262 280.485794 
L 340.574953 274.820327 
L 359.076093 270.17776 
L 376.656666 266.455471 
L 393.390069 263.56279 
L 409.342615 261.419889 
L 424.574059 259.956714 
L 439.138139 259.111958 
L 453.083139 258.832096 
L 466.45246 259.070487 
L 479.285196 259.786557 
L 491.616706 260.945063 
L 503.479149 262.515441 
L 514.901995 264.471235 
L 525.912482 266.789601 
L 536.53601 269.450884 
L 546.796473 272.438247 
L 556.716521 275.737344 
L 566.317745 279.336023 
L 575.620807 283.224056 
L 584.645501 287.392859 
L 593.410776 291.835227 
L 601.934726 296.545049 
L 610.234565 301.517023 
L 618.326602 306.74637 
L 626.226225 312.228539 
L 633.947908 317.958945 
L 641.505236 323.932716 
L 648.910965 330.144479 
L 656.177088 336.58819 
L 663.314929 343.257004 
L 670.335234 350.143195 
L 677.24827 357.238125 
L 684.06391 364.532249 
L 690.791711 372.015166 
L 697.440971 379.67569 
L 704.020774 387.501953 
L 710.540009 395.48153 
L 717.007374 403.601564 
L 729.820225 420.210306 
L 742.524153 437.222252 
L 755.178566 454.533916 
L 812.676709 533.895411 
L 832.219766 560.306323 
L 884.858922 631.07934 
L 898.018659 649.267249 
L 911.165613 667.86716 
L 924.329627 686.994674 
L 937.572754 706.750305 
L 950.999409 727.202313 
L 971.906001 759.274306 
L 979.210488 770.306036 
L 986.755086 781.471145 
L 994.599864 792.73828 
L 1002.817748 804.066076 
L 1011.497175 815.400823 
L 1020.744977 826.672891 
L 1030.688952 837.791127 
L 1041.478854 848.634383 
L 1053.283301 859.039629 
L 1063.885887 867.128588 
L 1066.278785 868.787892 
L 1077.690654 875.956619 
L 1080.627103 877.593154 
L 1092.974649 883.649404 
L 1096.442472 885.104682 
L 1109.86619 889.832912 
L 1113.761591 890.934097 
L 1128.417123 894.09369 
L 1132.541595 894.70558 
L 1148.600815 896.028998 
L 1152.702921 896.103698 
L 1170.355069 895.29455 
L 1174.200992 894.884771 
L 1193.653862 891.615796 
L 1197.084842 890.84369 
L 1218.566006 884.754662 
L 1221.514632 883.761972 
L 1245.272727 874.457515 
L 1245.272727 874.457515 
" clip-path="url(#pb7eae36b06)" style="fill: none; stroke: #1f77b4; stroke-width: 1.5"/>
    <path d="M 242.919739 275.398659 
L 267.025461 265.489176 
L 289.873388 257.021376 
L 311.566114 249.854058 
L 332.196816 243.860907 
L 351.849989 238.929256 
L 370.602144 234.958911 
L 388.522473 231.861048 
L 405.673474 229.557159 
L 422.111543 227.978073 
L 437.887531 227.063023 
L 453.047265 226.758782 
L 467.632039 227.018845 
L 481.679077 227.802674 
L 495.221956 229.074985 
L 508.291006 230.805096 
L 520.913684 232.966322 
L 533.114912 235.53541 
L 544.917392 238.492031 
L 556.341899 241.818309 
L 567.407543 245.498395 
L 578.132012 249.518083 
L 588.531785 253.864464 
L 598.622331 258.525619 
L 608.418283 263.490349 
L 617.933592 268.747936 
L 627.181658 274.287942 
L 636.175453 280.100034 
L 644.927614 286.173847 
L 653.450529 292.498863 
L 661.756402 299.064328 
L 669.857307 305.859191 
L 677.765227 312.872058 
L 685.49208 320.091179 
L 693.049732 327.50445 
L 700.450001 335.099434 
L 707.704656 342.863394 
L 714.825393 350.78335 
L 721.823821 358.846146 
L 728.711427 367.038521 
L 735.499542 375.347207 
L 742.199297 383.759017 
L 748.821583 392.260954 
L 755.377001 400.840318 
L 761.875807 409.484821 
L 768.327865 418.182698 
L 774.742596 426.922829 
L 781.128919 435.694848 
L 787.49521 444.489255 
L 793.849245 453.297529 
L 800.198166 462.112223 
L 806.54843 470.92706 
L 812.905785 479.73702 
L 819.275233 488.538409 
L 825.661015 497.328923 
L 832.066593 506.107698 
L 838.494651 514.875333 
L 844.947097 523.633913 
L 851.425082 532.386998 
L 857.92903 541.139601 
L 864.458676 549.898135 
L 871.013127 558.670348 
L 877.590928 567.46522 
L 884.190152 576.292842 
L 890.808497 585.164261 
L 897.443413 594.091298 
L 904.092239 603.08633 
L 910.752356 612.162042 
L 917.421375 621.331146 
L 924.097331 630.606051 
L 930.778906 639.998515 
L 937.465677 649.519234 
L 944.158384 659.177406 
L 950.859229 668.980247 
L 957.572191 678.932456 
L 964.303381 689.035642 
L 971.061413 699.287699 
L 977.857812 709.682129 
L 984.70745 720.207316 
L 991.629009 730.84575 
L 998.645482 741.573186 
L 1005.784702 752.35776 
L 1013.079906 763.159037 
L 1020.570334 773.927002 
L 1028.301862 784.600993 
L 1036.327677 795.108567 
L 1044.708981 805.364301 
L 1053.515741 815.268534 
L 1062.827471 824.70603 
L 1072.734062 833.544583 
L 1083.336648 841.633541 
L 1094.748517 848.802268 
L 1107.096063 854.858517 
L 1120.519781 859.586747 
L 1135.175313 862.74634 
L 1151.234532 864.069758 
L 1168.886681 863.26061 
L 1188.33955 859.991635 
L 1209.820714 853.902606 
L 1233.578809 844.598148 
" clip-path="url(#pb7eae36b06)" style="fill: none; stroke: #8c564b; stroke-width: 1.5"/>
    <path d="M 230.727273 245.739373 
L 255.881445 235.420248 
L 279.813097 226.57273 
L 302.620402 219.059518 
L 324.391945 212.757636 
L 345.207656 207.557152 
L 365.139683 203.360003 
L 384.253191 200.078935 
L 402.607089 197.636527 
L 420.254658 195.964303 
L 437.244096 195.001902 
L 453.618976 194.696302 
L 469.418639 195.001076 
L 484.678518 195.875681 
L 499.430421 197.284761 
L 513.702791 199.19747 
L 527.520948 201.586814 
L 540.907327 204.429016 
L 553.881732 207.702909 
L 566.461611 211.389361 
L 578.662341 215.470758 
L 590.497547 219.930535 
L 601.979431 224.752777 
L 613.11911 229.921898 
L 623.926952 235.422384 
L 634.412897 241.238629 
L 644.586741 247.354829 
L 654.458384 253.754941 
L 664.038027 260.422699 
L 673.336312 267.341655 
L 682.364407 274.495251 
L 691.134043 281.866901 
L 699.657498 289.440071 
L 707.947557 297.198362 
L 716.017434 305.125574 
L 723.880686 313.205771 
L 731.551109 321.423335 
L 739.042639 329.763015 
L 746.36925 338.209978 
L 753.54486 346.749852 
L 760.583246 355.368787 
L 767.49796 364.053508 
L 781.009086 381.570505 
L 794.17984 399.208904 
L 807.10471 416.890918 
L 864.334467 495.884948 
L 883.653284 521.992986 
L 936.685782 593.299727 
L 950.227702 612.017528 
L 963.823364 631.254464 
L 977.444315 651.048079 
L 991.077274 671.386616 
L 1004.735018 692.190837 
L 1025.433857 723.945925 
L 1032.442123 734.532678 
L 1039.530675 745.027986 
L 1046.720361 755.363617 
L 1054.033307 765.459723 
L 1061.491784 775.224525 
L 1069.116819 784.554854 
L 1076.926886 793.33819 
L 1084.93754 801.457038 
L 1093.163831 808.796444 
L 1101.628668 815.254464 
L 1110.381105 820.752585 
L 1119.526307 825.238142 
L 1129.260493 828.66681 
L 1139.891199 830.958688 
L 1151.819591 831.941691 
L 1165.482953 831.315383 
L 1181.288548 828.659317 
L 1199.577003 823.47529 
L 1221.884891 814.738782 
L 1221.884891 814.738782 
" clip-path="url(#pb7eae36b06)" style="fill: none; stroke: #17becf; stroke-width: 1.5"/>
   </g>
   <g id="patch_3">
    <path d="M 180 931.174068 
L 180 159.625932 
" style="fill: none; stroke: #000000; stroke-width: 0.8; stroke-linejoin: miter; stroke-linecap: square"/>
   </g>
   <g id="patch_4">
    <path d="M 1296 931.174068 
L 1296 159.625932 
" style="fill: none; stroke: #000000; stroke-width: 0.8; stroke-linejoin: miter; stroke-linecap: square"/>
   </g>
   <g id="patch_5">
    <path d="M 180 931.174068 
L 1296 931.174068 
" style="fill: none; stroke: #000000; stroke-width: 0.8; stroke-linejoin: miter; stroke-linecap: square"/>
   </g>
   <g id="patch_6">
    <path d="M 180 159.625932 
L 1296 159.625932 
" style="fill: none; stroke: #000000; stroke-width: 0.8; stroke-linejoin: miter; stroke-linecap: square"/>
   </g>
  </g>
 </g>
 <defs>
  <clipPath id="pb7eae36b06">
   <rect x="180" y="159.625932" width="1116" height="771.548136"/>
  </clipPath>
 </defs>
</svg>
