<?xml version="1.0" encoding="utf-8" standalone="no"?>
<!DOCTYPE svg PUBLIC "-//W3C//DTD SVG 1.1//EN"
  "http://www.w3.org/Graphics/SVG/1.1/DTD/svg11.dtd">
<svg xmlns:xlink="http://www.w3.org/1999/xlink" width="1440pt" height="1080pt" viewBox="0 0 1440 1080" xmlns="http://www.w3.org/2000/svg" version="1.1">
 <metadata>
  <rdf:RDF xmlns:dc="http://purl.org/dc/elements/1.1/" xmlns:cc="http://creativecommons.org/ns#" xmlns:rdf="http://www.w3.org/1999/02/22-rdf-syntax-ns#">
   <cc:Work>
    <dc:type rdf:resource="http://purl.org/dc/dcmitype/StillImage"/>
    <dc:date>2023-12-11T12:06:58.713499</dc:date>
    <dc:format>image/svg+xml</dc:format>
    <dc:creator>
     <cc:Agent>
      <dc:title>Matplotlib v3.7.1, https://matplotlib.org/</dc:title>
     </cc:Agent>
    </dc:creator>
   </cc:Work>
  </rdf:RDF>
 </metadata>
 <defs>
  <style type="text/css">*{stroke-linejoin: round; stroke-linecap: butt}</style>
 </defs>
 <g id="figure_1">
  <g id="patch_1">
   <path d="M 0 1080 
L 1440 1080 
L 1440 0 
L 0 0 
z
" style="fill: #ffffff"/>
  </g>
  <g id="axes_1">
   <g id="patch_2">
    <path d="M 180 744.103608 
L 1296 744.103608 
L 1296 346.696392 
L 180 346.696392 
z
" style="fill: #ffffff"/>
   </g>
   <g id="matplotlib.axis_1">
    <g id="xtick_1">
     <g id="line2d_1">
      <defs>
       <path id="mb2f557e5c4" d="M 0 0 
L 0 3.5 
" style="stroke: #000000; stroke-width: 0.8"/>
      </defs>
      <g>
       <use xlink:href="#mb2f557e5c4" x="182.510158" y="744.103608" style="stroke: #000000; stroke-width: 0.8"/>
      </g>
     </g>
     <g id="text_1">
      <!-- 300 -->
      <g transform="translate(172.966408 758.702045) scale(0.1 -0.1)">
       <defs>
        <path id="DejaVuSans-33" d="M 2597 2516 
Q 3050 2419 3304 2112 
Q 3559 1806 3559 1356 
Q 3559 666 3084 287 
Q 2609 -91 1734 -91 
Q 1441 -91 1130 -33 
Q 819 25 488 141 
L 488 750 
Q 750 597 1062 519 
Q 1375 441 1716 441 
Q 2309 441 2620 675 
Q 2931 909 2931 1356 
Q 2931 1769 2642 2001 
Q 2353 2234 1838 2234 
L 1294 2234 
L 1294 2753 
L 1863 2753 
Q 2328 2753 2575 2939 
Q 2822 3125 2822 3475 
Q 2822 3834 2567 4026 
Q 2313 4219 1838 4219 
Q 1578 4219 1281 4162 
Q 984 4106 628 3988 
L 628 4550 
Q 988 4650 1302 4700 
Q 1616 4750 1894 4750 
Q 2613 4750 3031 4423 
Q 3450 4097 3450 3541 
Q 3450 3153 3228 2886 
Q 3006 2619 2597 2516 
z
" transform="scale(0.015625)"/>
        <path id="DejaVuSans-30" d="M 2034 4250 
Q 1547 4250 1301 3770 
Q 1056 3291 1056 2328 
Q 1056 1369 1301 889 
Q 1547 409 2034 409 
Q 2525 409 2770 889 
Q 3016 1369 3016 2328 
Q 3016 3291 2770 3770 
Q 2525 4250 2034 4250 
z
M 2034 4750 
Q 2819 4750 3233 4129 
Q 3647 3509 3647 2328 
Q 3647 1150 3233 529 
Q 2819 -91 2034 -91 
Q 1250 -91 836 529 
Q 422 1150 422 2328 
Q 422 3509 836 4129 
Q 1250 4750 2034 4750 
z
" transform="scale(0.015625)"/>
       </defs>
       <use xlink:href="#DejaVuSans-33"/>
       <use xlink:href="#DejaVuSans-30" x="63.623047"/>
       <use xlink:href="#DejaVuSans-30" x="127.246094"/>
      </g>
     </g>
    </g>
    <g id="xtick_2">
     <g id="line2d_2">
      <g>
       <use xlink:href="#mb2f557e5c4" x="309.789077" y="744.103608" style="stroke: #000000; stroke-width: 0.8"/>
      </g>
     </g>
     <g id="text_2">
      <!-- 400 -->
      <g transform="translate(300.245327 758.702045) scale(0.1 -0.1)">
       <defs>
        <path id="DejaVuSans-34" d="M 2419 4116 
L 825 1625 
L 2419 1625 
L 2419 4116 
z
M 2253 4666 
L 3047 4666 
L 3047 1625 
L 3713 1625 
L 3713 1100 
L 3047 1100 
L 3047 0 
L 2419 0 
L 2419 1100 
L 313 1100 
L 313 1709 
L 2253 4666 
z
" transform="scale(0.015625)"/>
       </defs>
       <use xlink:href="#DejaVuSans-34"/>
       <use xlink:href="#DejaVuSans-30" x="63.623047"/>
       <use xlink:href="#DejaVuSans-30" x="127.246094"/>
      </g>
     </g>
    </g>
    <g id="xtick_3">
     <g id="line2d_3">
      <g>
       <use xlink:href="#mb2f557e5c4" x="437.067996" y="744.103608" style="stroke: #000000; stroke-width: 0.8"/>
      </g>
     </g>
     <g id="text_3">
      <!-- 500 -->
      <g transform="translate(427.524246 758.702045) scale(0.1 -0.1)">
       <defs>
        <path id="DejaVuSans-35" d="M 691 4666 
L 3169 4666 
L 3169 4134 
L 1269 4134 
L 1269 2991 
Q 1406 3038 1543 3061 
Q 1681 3084 1819 3084 
Q 2600 3084 3056 2656 
Q 3513 2228 3513 1497 
Q 3513 744 3044 326 
Q 2575 -91 1722 -91 
Q 1428 -91 1123 -41 
Q 819 9 494 109 
L 494 744 
Q 775 591 1075 516 
Q 1375 441 1709 441 
Q 2250 441 2565 725 
Q 2881 1009 2881 1497 
Q 2881 1984 2565 2268 
Q 2250 2553 1709 2553 
Q 1456 2553 1204 2497 
Q 953 2441 691 2322 
L 691 4666 
z
" transform="scale(0.015625)"/>
       </defs>
       <use xlink:href="#DejaVuSans-35"/>
       <use xlink:href="#DejaVuSans-30" x="63.623047"/>
       <use xlink:href="#DejaVuSans-30" x="127.246094"/>
      </g>
     </g>
    </g>
    <g id="xtick_4">
     <g id="line2d_4">
      <g>
       <use xlink:href="#mb2f557e5c4" x="564.346914" y="744.103608" style="stroke: #000000; stroke-width: 0.8"/>
      </g>
     </g>
     <g id="text_4">
      <!-- 600 -->
      <g transform="translate(554.803164 758.702045) scale(0.1 -0.1)">
       <defs>
        <path id="DejaVuSans-36" d="M 2113 2584 
Q 1688 2584 1439 2293 
Q 1191 2003 1191 1497 
Q 1191 994 1439 701 
Q 1688 409 2113 409 
Q 2538 409 2786 701 
Q 3034 994 3034 1497 
Q 3034 2003 2786 2293 
Q 2538 2584 2113 2584 
z
M 3366 4563 
L 3366 3988 
Q 3128 4100 2886 4159 
Q 2644 4219 2406 4219 
Q 1781 4219 1451 3797 
Q 1122 3375 1075 2522 
Q 1259 2794 1537 2939 
Q 1816 3084 2150 3084 
Q 2853 3084 3261 2657 
Q 3669 2231 3669 1497 
Q 3669 778 3244 343 
Q 2819 -91 2113 -91 
Q 1303 -91 875 529 
Q 447 1150 447 2328 
Q 447 3434 972 4092 
Q 1497 4750 2381 4750 
Q 2619 4750 2861 4703 
Q 3103 4656 3366 4563 
z
" transform="scale(0.015625)"/>
       </defs>
       <use xlink:href="#DejaVuSans-36"/>
       <use xlink:href="#DejaVuSans-30" x="63.623047"/>
       <use xlink:href="#DejaVuSans-30" x="127.246094"/>
      </g>
     </g>
    </g>
    <g id="xtick_5">
     <g id="line2d_5">
      <g>
       <use xlink:href="#mb2f557e5c4" x="691.625833" y="744.103608" style="stroke: #000000; stroke-width: 0.8"/>
      </g>
     </g>
     <g id="text_5">
      <!-- 700 -->
      <g transform="translate(682.082083 758.702045) scale(0.1 -0.1)">
       <defs>
        <path id="DejaVuSans-37" d="M 525 4666 
L 3525 4666 
L 3525 4397 
L 1831 0 
L 1172 0 
L 2766 4134 
L 525 4134 
L 525 4666 
z
" transform="scale(0.015625)"/>
       </defs>
       <use xlink:href="#DejaVuSans-37"/>
       <use xlink:href="#DejaVuSans-30" x="63.623047"/>
       <use xlink:href="#DejaVuSans-30" x="127.246094"/>
      </g>
     </g>
    </g>
    <g id="xtick_6">
     <g id="line2d_6">
      <g>
       <use xlink:href="#mb2f557e5c4" x="818.904752" y="744.103608" style="stroke: #000000; stroke-width: 0.8"/>
      </g>
     </g>
     <g id="text_6">
      <!-- 800 -->
      <g transform="translate(809.361002 758.702045) scale(0.1 -0.1)">
       <defs>
        <path id="DejaVuSans-38" d="M 2034 2216 
Q 1584 2216 1326 1975 
Q 1069 1734 1069 1313 
Q 1069 891 1326 650 
Q 1584 409 2034 409 
Q 2484 409 2743 651 
Q 3003 894 3003 1313 
Q 3003 1734 2745 1975 
Q 2488 2216 2034 2216 
z
M 1403 2484 
Q 997 2584 770 2862 
Q 544 3141 544 3541 
Q 544 4100 942 4425 
Q 1341 4750 2034 4750 
Q 2731 4750 3128 4425 
Q 3525 4100 3525 3541 
Q 3525 3141 3298 2862 
Q 3072 2584 2669 2484 
Q 3125 2378 3379 2068 
Q 3634 1759 3634 1313 
Q 3634 634 3220 271 
Q 2806 -91 2034 -91 
Q 1263 -91 848 271 
Q 434 634 434 1313 
Q 434 1759 690 2068 
Q 947 2378 1403 2484 
z
M 1172 3481 
Q 1172 3119 1398 2916 
Q 1625 2713 2034 2713 
Q 2441 2713 2670 2916 
Q 2900 3119 2900 3481 
Q 2900 3844 2670 4047 
Q 2441 4250 2034 4250 
Q 1625 4250 1398 4047 
Q 1172 3844 1172 3481 
z
" transform="scale(0.015625)"/>
       </defs>
       <use xlink:href="#DejaVuSans-38"/>
       <use xlink:href="#DejaVuSans-30" x="63.623047"/>
       <use xlink:href="#DejaVuSans-30" x="127.246094"/>
      </g>
     </g>
    </g>
    <g id="xtick_7">
     <g id="line2d_7">
      <g>
       <use xlink:href="#mb2f557e5c4" x="946.183671" y="744.103608" style="stroke: #000000; stroke-width: 0.8"/>
      </g>
     </g>
     <g id="text_7">
      <!-- 900 -->
      <g transform="translate(936.639921 758.702045) scale(0.1 -0.1)">
       <defs>
        <path id="DejaVuSans-39" d="M 703 97 
L 703 672 
Q 941 559 1184 500 
Q 1428 441 1663 441 
Q 2288 441 2617 861 
Q 2947 1281 2994 2138 
Q 2813 1869 2534 1725 
Q 2256 1581 1919 1581 
Q 1219 1581 811 2004 
Q 403 2428 403 3163 
Q 403 3881 828 4315 
Q 1253 4750 1959 4750 
Q 2769 4750 3195 4129 
Q 3622 3509 3622 2328 
Q 3622 1225 3098 567 
Q 2575 -91 1691 -91 
Q 1453 -91 1209 -44 
Q 966 3 703 97 
z
M 1959 2075 
Q 2384 2075 2632 2365 
Q 2881 2656 2881 3163 
Q 2881 3666 2632 3958 
Q 2384 4250 1959 4250 
Q 1534 4250 1286 3958 
Q 1038 3666 1038 3163 
Q 1038 2656 1286 2365 
Q 1534 2075 1959 2075 
z
" transform="scale(0.015625)"/>
       </defs>
       <use xlink:href="#DejaVuSans-39"/>
       <use xlink:href="#DejaVuSans-30" x="63.623047"/>
       <use xlink:href="#DejaVuSans-30" x="127.246094"/>
      </g>
     </g>
    </g>
    <g id="xtick_8">
     <g id="line2d_8">
      <g>
       <use xlink:href="#mb2f557e5c4" x="1073.462589" y="744.103608" style="stroke: #000000; stroke-width: 0.8"/>
      </g>
     </g>
     <g id="text_8">
      <!-- 1000 -->
      <g transform="translate(1060.737589 758.702045) scale(0.1 -0.1)">
       <defs>
        <path id="DejaVuSans-31" d="M 794 531 
L 1825 531 
L 1825 4091 
L 703 3866 
L 703 4441 
L 1819 4666 
L 2450 4666 
L 2450 531 
L 3481 531 
L 3481 0 
L 794 0 
L 794 531 
z
" transform="scale(0.015625)"/>
       </defs>
       <use xlink:href="#DejaVuSans-31"/>
       <use xlink:href="#DejaVuSans-30" x="63.623047"/>
       <use xlink:href="#DejaVuSans-30" x="127.246094"/>
       <use xlink:href="#DejaVuSans-30" x="190.869141"/>
      </g>
     </g>
    </g>
    <g id="xtick_9">
     <g id="line2d_9">
      <g>
       <use xlink:href="#mb2f557e5c4" x="1200.741508" y="744.103608" style="stroke: #000000; stroke-width: 0.8"/>
      </g>
     </g>
     <g id="text_9">
      <!-- 1100 -->
      <g transform="translate(1188.016508 758.702045) scale(0.1 -0.1)">
       <use xlink:href="#DejaVuSans-31"/>
       <use xlink:href="#DejaVuSans-31" x="63.623047"/>
       <use xlink:href="#DejaVuSans-30" x="127.246094"/>
       <use xlink:href="#DejaVuSans-30" x="190.869141"/>
      </g>
     </g>
    </g>
   </g>
   <g id="matplotlib.axis_2">
    <g id="ytick_1">
     <g id="line2d_10">
      <defs>
       <path id="mfb77b85191" d="M 0 0 
L -3.5 0 
" style="stroke: #000000; stroke-width: 0.8"/>
      </defs>
      <g>
       <use xlink:href="#mfb77b85191" x="180" y="739.849737" style="stroke: #000000; stroke-width: 0.8"/>
      </g>
     </g>
     <g id="text_10">
      <!-- 500 -->
      <g transform="translate(153.9125 743.648956) scale(0.1 -0.1)">
       <use xlink:href="#DejaVuSans-35"/>
       <use xlink:href="#DejaVuSans-30" x="63.623047"/>
       <use xlink:href="#DejaVuSans-30" x="127.246094"/>
      </g>
     </g>
    </g>
    <g id="ytick_2">
     <g id="line2d_11">
      <g>
       <use xlink:href="#mfb77b85191" x="180" y="676.210278" style="stroke: #000000; stroke-width: 0.8"/>
      </g>
     </g>
     <g id="text_11">
      <!-- 550 -->
      <g transform="translate(153.9125 680.009497) scale(0.1 -0.1)">
       <use xlink:href="#DejaVuSans-35"/>
       <use xlink:href="#DejaVuSans-35" x="63.623047"/>
       <use xlink:href="#DejaVuSans-30" x="127.246094"/>
      </g>
     </g>
    </g>
    <g id="ytick_3">
     <g id="line2d_12">
      <g>
       <use xlink:href="#mfb77b85191" x="180" y="612.570819" style="stroke: #000000; stroke-width: 0.8"/>
      </g>
     </g>
     <g id="text_12">
      <!-- 600 -->
      <g transform="translate(153.9125 616.370037) scale(0.1 -0.1)">
       <use xlink:href="#DejaVuSans-36"/>
       <use xlink:href="#DejaVuSans-30" x="63.623047"/>
       <use xlink:href="#DejaVuSans-30" x="127.246094"/>
      </g>
     </g>
    </g>
    <g id="ytick_4">
     <g id="line2d_13">
      <g>
       <use xlink:href="#mfb77b85191" x="180" y="548.931359" style="stroke: #000000; stroke-width: 0.8"/>
      </g>
     </g>
     <g id="text_13">
      <!-- 650 -->
      <g transform="translate(153.9125 552.730578) scale(0.1 -0.1)">
       <use xlink:href="#DejaVuSans-36"/>
       <use xlink:href="#DejaVuSans-35" x="63.623047"/>
       <use xlink:href="#DejaVuSans-30" x="127.246094"/>
      </g>
     </g>
    </g>
    <g id="ytick_5">
     <g id="line2d_14">
      <g>
       <use xlink:href="#mfb77b85191" x="180" y="485.2919" style="stroke: #000000; stroke-width: 0.8"/>
      </g>
     </g>
     <g id="text_14">
      <!-- 700 -->
      <g transform="translate(153.9125 489.091119) scale(0.1 -0.1)">
       <use xlink:href="#DejaVuSans-37"/>
       <use xlink:href="#DejaVuSans-30" x="63.623047"/>
       <use xlink:href="#DejaVuSans-30" x="127.246094"/>
      </g>
     </g>
    </g>
    <g id="ytick_6">
     <g id="line2d_15">
      <g>
       <use xlink:href="#mfb77b85191" x="180" y="421.652441" style="stroke: #000000; stroke-width: 0.8"/>
      </g>
     </g>
     <g id="text_15">
      <!-- 750 -->
      <g transform="translate(153.9125 425.451659) scale(0.1 -0.1)">
       <use xlink:href="#DejaVuSans-37"/>
       <use xlink:href="#DejaVuSans-35" x="63.623047"/>
       <use xlink:href="#DejaVuSans-30" x="127.246094"/>
      </g>
     </g>
    </g>
    <g id="ytick_7">
     <g id="line2d_16">
      <g>
       <use xlink:href="#mfb77b85191" x="180" y="358.012981" style="stroke: #000000; stroke-width: 0.8"/>
      </g>
     </g>
     <g id="text_16">
      <!-- 800 -->
      <g transform="translate(153.9125 361.8122) scale(0.1 -0.1)">
       <use xlink:href="#DejaVuSans-38"/>
       <use xlink:href="#DejaVuSans-30" x="63.623047"/>
       <use xlink:href="#DejaVuSans-30" x="127.246094"/>
      </g>
     </g>
    </g>
   </g>
   <g id="LineCollection_1">
    <path d="M 259.026384 720.483699 
L 270.236763 715.830818 
L 279.177794 713.344417 
L 288.321372 711.848433 
L 297.815571 711.187147 
L 307.70557 711.242948 
L 317.969609 711.900151 
L 328.554322 713.0347 
L 339.398057 714.517235 
L 361.679444 718.028578 
L 373.120726 719.841119 
L 384.609781 721.540282 
L 396.114102 723.044407 
L 407.602583 724.28803 
L 419.04473 725.221764 
L 430.41059 725.811901 
L 441.6713 726.039643 
L 452.80003 725.899935 
L 463.773066 725.399851 
L 474.570774 724.556636 
L 485.178259 723.395523 
L 495.585623 721.947521 
L 505.787845 720.247319 
L 515.784352 718.33144 
L 525.578418 716.236702 
L 535.176483 713.998995 
L 544.587508 711.652356 
L 562.893579 706.755258 
L 589.264787 699.275946 
L 614.767712 692.024227 
L 631.436584 687.441907 
L 656.278964 680.911978 
L 698.428674 670.106635 
L 715.836082 665.323966 
L 724.675647 662.724478 
L 733.605298 659.944058 
L 742.620824 656.95026 
L 751.714913 653.710922 
L 760.877307 650.195048 
L 770.095145 646.373743 
L 779.353512 642.221094 
L 788.636157 637.714962 
L 797.926354 632.837595 
L 807.207794 627.57604 
L 816.465439 621.922339 
L 825.68623 615.873554 
L 834.859576 609.431667 
L 843.977612 602.603458 
L 853.035206 595.400405 
L 862.02976 587.838685 
L 870.960861 579.939295 
L 879.829823 571.728305 
L 888.639179 563.237237 
L 897.392146 554.503525 
L 906.092079 545.57106 
L 923.343503 527.321134 
L 948.963455 499.864985 
L 957.41462 491.024017 
L 965.793836 482.511338 
L 974.07857 474.439077 
L 982.23509 466.927478 
L 990.214792 460.102326 
L 997.950173 454.089725 
L 1005.351845 449.006456 
L 1012.310201 444.943806 
L 1018.709243 441.944255 
L 1024.463914 439.977043 
L 1029.588258 438.933371 
L 1034.275109 438.676111 
L 1038.92217 439.157957 
L 1044.036984 440.544793 
L 1050.0554 443.231636 
L 1057.209802 447.727859 
L 1065.528066 454.515587 
L 1074.915594 463.976629 
L 1085.238413 476.391417 
L 1096.371605 491.968643 
L 1108.217198 510.875034 
L 1120.705729 533.255223 
L 1133.79172 559.242309 
L 1147.448055 588.96221 
L 1161.661078 622.534487 
L 1176.574916 660.447833 
L 1176.574916 660.447833 
" clip-path="url(#p90123b078e)" style="fill: none; stroke: #1f77b4; stroke-width: 1.5"/>
    <path d="M 244.876828 686.392592 
L 258.172398 680.874249 
L 271.22968 677.243165 
L 284.04999 675.145629 
L 296.635688 674.269016 
L 308.990068 674.338721 
L 321.11726 675.115222 
L 333.02213 676.391275 
L 344.710196 677.989245 
L 356.187536 679.758554 
L 367.460708 681.573256 
L 378.536676 683.329737 
L 389.422733 684.94453 
L 400.126439 686.352246 
L 410.655551 687.503618 
L 421.017969 688.36366 
L 431.221679 688.909927 
L 441.2747 689.130888 
L 451.185038 689.024397 
L 460.960646 688.596267 
L 470.609377 687.85894 
L 480.138954 686.830253 
L 489.556935 685.532298 
L 498.870685 683.990369 
L 508.087347 682.231999 
L 517.213823 680.286081 
L 526.256755 678.182072 
L 535.222505 675.949271 
L 544.117142 673.616187 
L 552.946436 671.209965 
L 561.715845 668.755897 
L 570.430511 666.276996 
L 579.09526 663.793637 
L 587.714598 661.323263 
L 596.292714 658.880152 
L 604.833487 656.475247 
L 613.340491 654.11603 
L 621.817 651.806466 
L 630.266006 649.546987 
L 638.690224 647.334526 
L 647.09211 645.1626 
L 655.473878 643.021433 
L 663.837514 640.898123 
L 672.184796 638.776843 
L 680.517316 636.639081 
L 688.8365 634.463911 
L 697.143632 632.228295 
L 705.439874 629.90741 
L 713.726297 627.475006 
L 722.003902 624.903779 
L 730.273647 622.165771 
L 738.536475 619.232779 
L 746.793345 616.07679 
L 755.045252 612.670416 
L 763.293265 608.987346 
L 771.538549 605.002803 
L 779.782397 600.694005 
L 788.02626 596.040626 
L 796.271775 591.025261 
L 804.520793 585.63388 
L 812.775413 579.856284 
L 821.038003 573.686545 
L 829.311234 567.123441 
L 837.598109 560.170871 
L 845.901983 552.838259 
L 854.226597 545.140934 
L 862.5761 537.100491 
L 870.955076 528.745132 
L 879.368565 520.109966 
L 887.822089 511.237296 
L 896.321673 502.176866 
L 904.873863 492.98607 
L 913.485749 483.730132 
L 922.164979 474.482238 
L 930.919779 465.32363 
L 939.758962 456.343657 
L 948.691947 447.63977 
L 957.728764 439.317478 
L 966.880068 431.490237 
L 976.157143 424.279301 
L 985.571904 417.813496 
L 995.136907 412.228949 
L 1004.865342 407.668746 
L 1014.771034 404.282523 
L 1024.868437 402.225992 
L 1035.172628 401.660398 
L 1045.699294 402.751891 
L 1056.464723 405.67084 
L 1067.485785 410.591048 
L 1078.779911 417.688904 
L 1090.365077 427.142434 
L 1102.259775 439.130279 
L 1114.482982 453.830577 
L 1127.054133 471.419753 
L 1139.993082 492.071216 
L 1153.320063 515.953958 
L 1167.055649 543.231056 
L 1181.220704 574.058069 
L 1195.836331 608.581329 
L 1210.923822 646.936127 
" clip-path="url(#p90123b078e)" style="fill: none; stroke: #8c564b; stroke-width: 1.5"/>
    <path d="M 230.727273 652.301484 
L 244.022843 646.783142 
L 248.283158 645.312803 
L 261.34044 641.681719 
L 265.269914 640.816599 
L 278.090225 638.719063 
L 281.485305 638.323952 
L 296.843941 637.358717 
L 311.348631 637.503267 
L 325.051112 638.414563 
L 338.022005 639.820593 
L 350.333827 641.509274 
L 373.284458 645.124671 
L 394.537532 648.388477 
L 404.539609 649.703917 
L 414.188805 650.759069 
L 423.531613 651.534487 
L 432.614189 652.020732 
L 441.481999 652.215643 
L 450.178968 652.12219 
L 458.746356 651.746975 
L 467.221641 651.099319 
L 475.637629 650.190841 
L 484.021922 649.035345 
L 492.396793 647.648851 
L 500.779415 646.049601 
L 509.182334 644.257958 
L 517.614077 642.296153 
L 534.581793 637.957784 
L 551.692854 633.231829 
L 603.637244 618.503384 
L 620.890025 613.846784 
L 646.391287 607.245462 
L 679.371793 598.786884 
L 695.269316 594.424617 
L 703.052864 592.139828 
L 710.727558 589.75588 
L 718.297993 587.249403 
L 725.77183 584.596474 
L 733.15977 581.772613 
L 740.47537 578.752745 
L 747.734651 575.511183 
L 754.955519 572.021691 
L 762.157028 568.25769 
L 769.35856 564.192672 
L 776.579001 559.800811 
L 783.836018 555.057781 
L 791.145511 549.9417 
L 798.521301 544.434142 
L 805.975055 538.521124 
L 813.516444 532.194006 
L 821.153472 525.450242 
L 828.89294 518.29397 
L 836.740982 510.736428 
L 844.703637 502.796215 
L 852.787441 494.499421 
L 869.350741 476.977899 
L 895.483469 448.97713 
L 904.614445 439.430717 
L 914.000228 429.906918 
L 923.687491 420.488514 
L 933.737061 411.267314 
L 944.227913 402.347598 
L 955.261083 393.852861 
L 966.961243 385.937849 
L 976.526246 380.353303 
L 979.470679 378.807656 
L 989.199114 374.247453 
L 992.925843 372.742225 
L 1002.831535 369.356002 
L 1007.404652 368.114167 
L 1017.502055 366.057637 
L 1022.845451 365.370585 
L 1033.149642 364.80499 
L 1036.067342 364.760357 
L 1038.97945 364.946345 
L 1049.506117 366.037839 
L 1052.454348 366.464389 
L 1055.35858 367.127297 
L 1068.855106 370.901716 
L 1071.511712 371.966216 
L 1082.532773 376.886424 
L 1087.12611 379.33931 
L 1098.420237 386.437166 
L 1102.115934 389.09094 
L 1113.701101 398.54447 
L 1116.566613 401.14449 
L 1128.46131 413.132335 
L 1130.641163 415.531331 
L 1144.512586 432.368135 
L 1158.332847 451.822416 
L 1172.225261 474.085105 
L 1186.287119 499.353151 
L 1200.595184 527.819594 
L 1215.211017 559.668068 
L 1230.185237 595.069622 
L 1245.272727 633.42442 
L 1245.272727 633.42442 
" clip-path="url(#p90123b078e)" style="fill: none; stroke: #17becf; stroke-width: 1.5"/>
   </g>
   <g id="patch_3">
    <path d="M 180 744.103608 
L 180 346.696392 
" style="fill: none; stroke: #000000; stroke-width: 0.8; stroke-linejoin: miter; stroke-linecap: square"/>
   </g>
   <g id="patch_4">
    <path d="M 1296 744.103608 
L 1296 346.696392 
" style="fill: none; stroke: #000000; stroke-width: 0.8; stroke-linejoin: miter; stroke-linecap: square"/>
   </g>
   <g id="patch_5">
    <path d="M 180 744.103608 
L 1296 744.103608 
" style="fill: none; stroke: #000000; stroke-width: 0.8; stroke-linejoin: miter; stroke-linecap: square"/>
   </g>
   <g id="patch_6">
    <path d="M 180 346.696392 
L 1296 346.696392 
" style="fill: none; stroke: #000000; stroke-width: 0.8; stroke-linejoin: miter; stroke-linecap: square"/>
   </g>
  </g>
 </g>
 <defs>
  <clipPath id="p90123b078e">
   <rect x="180" y="346.696392" width="1116" height="397.407216"/>
  </clipPath>
 </defs>
</svg>
