<?xml version="1.0" encoding="utf-8" standalone="no"?>
<!DOCTYPE svg PUBLIC "-//W3C//DTD SVG 1.1//EN"
  "http://www.w3.org/Graphics/SVG/1.1/DTD/svg11.dtd">
<svg xmlns:xlink="http://www.w3.org/1999/xlink" width="1440pt" height="1080pt" viewBox="0 0 1440 1080" xmlns="http://www.w3.org/2000/svg" version="1.1">
 <metadata>
  <rdf:RDF xmlns:dc="http://purl.org/dc/elements/1.1/" xmlns:cc="http://creativecommons.org/ns#" xmlns:rdf="http://www.w3.org/1999/02/22-rdf-syntax-ns#">
   <cc:Work>
    <dc:type rdf:resource="http://purl.org/dc/dcmitype/StillImage"/>
    <dc:date>2023-12-11T12:07:04.718217</dc:date>
    <dc:format>image/svg+xml</dc:format>
    <dc:creator>
     <cc:Agent>
      <dc:title>Matplotlib v3.7.1, https://matplotlib.org/</dc:title>
     </cc:Agent>
    </dc:creator>
   </cc:Work>
  </rdf:RDF>
 </metadata>
 <defs>
  <style type="text/css">*{stroke-linejoin: round; stroke-linecap: butt}</style>
 </defs>
 <g id="figure_1">
  <g id="patch_1">
   <path d="M 0 1080 
L 1440 1080 
L 1440 0 
L 0 0 
z
" style="fill: #ffffff"/>
  </g>
  <g id="axes_1">
   <g id="patch_2">
    <path d="M 510.094077 961.2 
L 965.905923 961.2 
L 965.905923 129.6 
L 510.094077 129.6 
z
" style="fill: #ffffff"/>
   </g>
   <g id="matplotlib.axis_1">
    <g id="xtick_1">
     <g id="line2d_1">
      <defs>
       <path id="m6b523bafda" d="M 0 0 
L 0 3.5 
" style="stroke: #000000; stroke-width: 0.8"/>
      </defs>
      <g>
       <use xlink:href="#m6b523bafda" x="572.071081" y="961.2" style="stroke: #000000; stroke-width: 0.8"/>
      </g>
     </g>
     <g id="text_1">
      <!-- 1000 -->
      <g transform="translate(559.346081 975.798437) scale(0.1 -0.1)">
       <defs>
        <path id="DejaVuSans-31" d="M 794 531 
L 1825 531 
L 1825 4091 
L 703 3866 
L 703 4441 
L 1819 4666 
L 2450 4666 
L 2450 531 
L 3481 531 
L 3481 0 
L 794 0 
L 794 531 
z
" transform="scale(0.015625)"/>
        <path id="DejaVuSans-30" d="M 2034 4250 
Q 1547 4250 1301 3770 
Q 1056 3291 1056 2328 
Q 1056 1369 1301 889 
Q 1547 409 2034 409 
Q 2525 409 2770 889 
Q 3016 1369 3016 2328 
Q 3016 3291 2770 3770 
Q 2525 4250 2034 4250 
z
M 2034 4750 
Q 2819 4750 3233 4129 
Q 3647 3509 3647 2328 
Q 3647 1150 3233 529 
Q 2819 -91 2034 -91 
Q 1250 -91 836 529 
Q 422 1150 422 2328 
Q 422 3509 836 4129 
Q 1250 4750 2034 4750 
z
" transform="scale(0.015625)"/>
       </defs>
       <use xlink:href="#DejaVuSans-31"/>
       <use xlink:href="#DejaVuSans-30" x="63.623047"/>
       <use xlink:href="#DejaVuSans-30" x="127.246094"/>
       <use xlink:href="#DejaVuSans-30" x="190.869141"/>
      </g>
     </g>
    </g>
    <g id="xtick_2">
     <g id="line2d_2">
      <g>
       <use xlink:href="#m6b523bafda" x="670.051382" y="961.2" style="stroke: #000000; stroke-width: 0.8"/>
      </g>
     </g>
     <g id="text_2">
      <!-- 1100 -->
      <g transform="translate(657.326382 975.798437) scale(0.1 -0.1)">
       <use xlink:href="#DejaVuSans-31"/>
       <use xlink:href="#DejaVuSans-31" x="63.623047"/>
       <use xlink:href="#DejaVuSans-30" x="127.246094"/>
       <use xlink:href="#DejaVuSans-30" x="190.869141"/>
      </g>
     </g>
    </g>
    <g id="xtick_3">
     <g id="line2d_3">
      <g>
       <use xlink:href="#m6b523bafda" x="768.031684" y="961.2" style="stroke: #000000; stroke-width: 0.8"/>
      </g>
     </g>
     <g id="text_3">
      <!-- 1200 -->
      <g transform="translate(755.306684 975.798437) scale(0.1 -0.1)">
       <defs>
        <path id="DejaVuSans-32" d="M 1228 531 
L 3431 531 
L 3431 0 
L 469 0 
L 469 531 
Q 828 903 1448 1529 
Q 2069 2156 2228 2338 
Q 2531 2678 2651 2914 
Q 2772 3150 2772 3378 
Q 2772 3750 2511 3984 
Q 2250 4219 1831 4219 
Q 1534 4219 1204 4116 
Q 875 4013 500 3803 
L 500 4441 
Q 881 4594 1212 4672 
Q 1544 4750 1819 4750 
Q 2544 4750 2975 4387 
Q 3406 4025 3406 3419 
Q 3406 3131 3298 2873 
Q 3191 2616 2906 2266 
Q 2828 2175 2409 1742 
Q 1991 1309 1228 531 
z
" transform="scale(0.015625)"/>
       </defs>
       <use xlink:href="#DejaVuSans-31"/>
       <use xlink:href="#DejaVuSans-32" x="63.623047"/>
       <use xlink:href="#DejaVuSans-30" x="127.246094"/>
       <use xlink:href="#DejaVuSans-30" x="190.869141"/>
      </g>
     </g>
    </g>
    <g id="xtick_4">
     <g id="line2d_4">
      <g>
       <use xlink:href="#m6b523bafda" x="866.011985" y="961.2" style="stroke: #000000; stroke-width: 0.8"/>
      </g>
     </g>
     <g id="text_4">
      <!-- 1300 -->
      <g transform="translate(853.286985 975.798437) scale(0.1 -0.1)">
       <defs>
        <path id="DejaVuSans-33" d="M 2597 2516 
Q 3050 2419 3304 2112 
Q 3559 1806 3559 1356 
Q 3559 666 3084 287 
Q 2609 -91 1734 -91 
Q 1441 -91 1130 -33 
Q 819 25 488 141 
L 488 750 
Q 750 597 1062 519 
Q 1375 441 1716 441 
Q 2309 441 2620 675 
Q 2931 909 2931 1356 
Q 2931 1769 2642 2001 
Q 2353 2234 1838 2234 
L 1294 2234 
L 1294 2753 
L 1863 2753 
Q 2328 2753 2575 2939 
Q 2822 3125 2822 3475 
Q 2822 3834 2567 4026 
Q 2313 4219 1838 4219 
Q 1578 4219 1281 4162 
Q 984 4106 628 3988 
L 628 4550 
Q 988 4650 1302 4700 
Q 1616 4750 1894 4750 
Q 2613 4750 3031 4423 
Q 3450 4097 3450 3541 
Q 3450 3153 3228 2886 
Q 3006 2619 2597 2516 
z
" transform="scale(0.015625)"/>
       </defs>
       <use xlink:href="#DejaVuSans-31"/>
       <use xlink:href="#DejaVuSans-33" x="63.623047"/>
       <use xlink:href="#DejaVuSans-30" x="127.246094"/>
       <use xlink:href="#DejaVuSans-30" x="190.869141"/>
      </g>
     </g>
    </g>
    <g id="xtick_5">
     <g id="line2d_5">
      <g>
       <use xlink:href="#m6b523bafda" x="963.992286" y="961.2" style="stroke: #000000; stroke-width: 0.8"/>
      </g>
     </g>
     <g id="text_5">
      <!-- 1400 -->
      <g transform="translate(951.267286 975.798437) scale(0.1 -0.1)">
       <defs>
        <path id="DejaVuSans-34" d="M 2419 4116 
L 825 1625 
L 2419 1625 
L 2419 4116 
z
M 2253 4666 
L 3047 4666 
L 3047 1625 
L 3713 1625 
L 3713 1100 
L 3047 1100 
L 3047 0 
L 2419 0 
L 2419 1100 
L 313 1100 
L 313 1709 
L 2253 4666 
z
" transform="scale(0.015625)"/>
       </defs>
       <use xlink:href="#DejaVuSans-31"/>
       <use xlink:href="#DejaVuSans-34" x="63.623047"/>
       <use xlink:href="#DejaVuSans-30" x="127.246094"/>
       <use xlink:href="#DejaVuSans-30" x="190.869141"/>
      </g>
     </g>
    </g>
   </g>
   <g id="matplotlib.axis_2">
    <g id="ytick_1">
     <g id="line2d_6">
      <defs>
       <path id="m3f08aebb3b" d="M 0 0 
L -3.5 0 
" style="stroke: #000000; stroke-width: 0.8"/>
      </defs>
      <g>
       <use xlink:href="#m3f08aebb3b" x="510.094077" y="873.553642" style="stroke: #000000; stroke-width: 0.8"/>
      </g>
     </g>
     <g id="text_6">
      <!-- 700 -->
      <g transform="translate(484.006577 877.352861) scale(0.1 -0.1)">
       <defs>
        <path id="DejaVuSans-37" d="M 525 4666 
L 3525 4666 
L 3525 4397 
L 1831 0 
L 1172 0 
L 2766 4134 
L 525 4134 
L 525 4666 
z
" transform="scale(0.015625)"/>
       </defs>
       <use xlink:href="#DejaVuSans-37"/>
       <use xlink:href="#DejaVuSans-30" x="63.623047"/>
       <use xlink:href="#DejaVuSans-30" x="127.246094"/>
      </g>
     </g>
    </g>
    <g id="ytick_2">
     <g id="line2d_7">
      <g>
       <use xlink:href="#m3f08aebb3b" x="510.094077" y="775.573341" style="stroke: #000000; stroke-width: 0.8"/>
      </g>
     </g>
     <g id="text_7">
      <!-- 800 -->
      <g transform="translate(484.006577 779.372559) scale(0.1 -0.1)">
       <defs>
        <path id="DejaVuSans-38" d="M 2034 2216 
Q 1584 2216 1326 1975 
Q 1069 1734 1069 1313 
Q 1069 891 1326 650 
Q 1584 409 2034 409 
Q 2484 409 2743 651 
Q 3003 894 3003 1313 
Q 3003 1734 2745 1975 
Q 2488 2216 2034 2216 
z
M 1403 2484 
Q 997 2584 770 2862 
Q 544 3141 544 3541 
Q 544 4100 942 4425 
Q 1341 4750 2034 4750 
Q 2731 4750 3128 4425 
Q 3525 4100 3525 3541 
Q 3525 3141 3298 2862 
Q 3072 2584 2669 2484 
Q 3125 2378 3379 2068 
Q 3634 1759 3634 1313 
Q 3634 634 3220 271 
Q 2806 -91 2034 -91 
Q 1263 -91 848 271 
Q 434 634 434 1313 
Q 434 1759 690 2068 
Q 947 2378 1403 2484 
z
M 1172 3481 
Q 1172 3119 1398 2916 
Q 1625 2713 2034 2713 
Q 2441 2713 2670 2916 
Q 2900 3119 2900 3481 
Q 2900 3844 2670 4047 
Q 2441 4250 2034 4250 
Q 1625 4250 1398 4047 
Q 1172 3844 1172 3481 
z
" transform="scale(0.015625)"/>
       </defs>
       <use xlink:href="#DejaVuSans-38"/>
       <use xlink:href="#DejaVuSans-30" x="63.623047"/>
       <use xlink:href="#DejaVuSans-30" x="127.246094"/>
      </g>
     </g>
    </g>
    <g id="ytick_3">
     <g id="line2d_8">
      <g>
       <use xlink:href="#m3f08aebb3b" x="510.094077" y="677.593039" style="stroke: #000000; stroke-width: 0.8"/>
      </g>
     </g>
     <g id="text_8">
      <!-- 900 -->
      <g transform="translate(484.006577 681.392258) scale(0.1 -0.1)">
       <defs>
        <path id="DejaVuSans-39" d="M 703 97 
L 703 672 
Q 941 559 1184 500 
Q 1428 441 1663 441 
Q 2288 441 2617 861 
Q 2947 1281 2994 2138 
Q 2813 1869 2534 1725 
Q 2256 1581 1919 1581 
Q 1219 1581 811 2004 
Q 403 2428 403 3163 
Q 403 3881 828 4315 
Q 1253 4750 1959 4750 
Q 2769 4750 3195 4129 
Q 3622 3509 3622 2328 
Q 3622 1225 3098 567 
Q 2575 -91 1691 -91 
Q 1453 -91 1209 -44 
Q 966 3 703 97 
z
M 1959 2075 
Q 2384 2075 2632 2365 
Q 2881 2656 2881 3163 
Q 2881 3666 2632 3958 
Q 2384 4250 1959 4250 
Q 1534 4250 1286 3958 
Q 1038 3666 1038 3163 
Q 1038 2656 1286 2365 
Q 1534 2075 1959 2075 
z
" transform="scale(0.015625)"/>
       </defs>
       <use xlink:href="#DejaVuSans-39"/>
       <use xlink:href="#DejaVuSans-30" x="63.623047"/>
       <use xlink:href="#DejaVuSans-30" x="127.246094"/>
      </g>
     </g>
    </g>
    <g id="ytick_4">
     <g id="line2d_9">
      <g>
       <use xlink:href="#m3f08aebb3b" x="510.094077" y="579.612738" style="stroke: #000000; stroke-width: 0.8"/>
      </g>
     </g>
     <g id="text_9">
      <!-- 1000 -->
      <g transform="translate(477.644077 583.411957) scale(0.1 -0.1)">
       <use xlink:href="#DejaVuSans-31"/>
       <use xlink:href="#DejaVuSans-30" x="63.623047"/>
       <use xlink:href="#DejaVuSans-30" x="127.246094"/>
       <use xlink:href="#DejaVuSans-30" x="190.869141"/>
      </g>
     </g>
    </g>
    <g id="ytick_5">
     <g id="line2d_10">
      <g>
       <use xlink:href="#m3f08aebb3b" x="510.094077" y="481.632437" style="stroke: #000000; stroke-width: 0.8"/>
      </g>
     </g>
     <g id="text_10">
      <!-- 1100 -->
      <g transform="translate(477.644077 485.431656) scale(0.1 -0.1)">
       <use xlink:href="#DejaVuSans-31"/>
       <use xlink:href="#DejaVuSans-31" x="63.623047"/>
       <use xlink:href="#DejaVuSans-30" x="127.246094"/>
       <use xlink:href="#DejaVuSans-30" x="190.869141"/>
      </g>
     </g>
    </g>
    <g id="ytick_6">
     <g id="line2d_11">
      <g>
       <use xlink:href="#m3f08aebb3b" x="510.094077" y="383.652136" style="stroke: #000000; stroke-width: 0.8"/>
      </g>
     </g>
     <g id="text_11">
      <!-- 1200 -->
      <g transform="translate(477.644077 387.451355) scale(0.1 -0.1)">
       <use xlink:href="#DejaVuSans-31"/>
       <use xlink:href="#DejaVuSans-32" x="63.623047"/>
       <use xlink:href="#DejaVuSans-30" x="127.246094"/>
       <use xlink:href="#DejaVuSans-30" x="190.869141"/>
      </g>
     </g>
    </g>
    <g id="ytick_7">
     <g id="line2d_12">
      <g>
       <use xlink:href="#m3f08aebb3b" x="510.094077" y="285.671835" style="stroke: #000000; stroke-width: 0.8"/>
      </g>
     </g>
     <g id="text_12">
      <!-- 1300 -->
      <g transform="translate(477.644077 289.471053) scale(0.1 -0.1)">
       <use xlink:href="#DejaVuSans-31"/>
       <use xlink:href="#DejaVuSans-33" x="63.623047"/>
       <use xlink:href="#DejaVuSans-30" x="127.246094"/>
       <use xlink:href="#DejaVuSans-30" x="190.869141"/>
      </g>
     </g>
    </g>
    <g id="ytick_8">
     <g id="line2d_13">
      <g>
       <use xlink:href="#m3f08aebb3b" x="510.094077" y="187.691533" style="stroke: #000000; stroke-width: 0.8"/>
      </g>
     </g>
     <g id="text_13">
      <!-- 1400 -->
      <g transform="translate(477.644077 191.490752) scale(0.1 -0.1)">
       <use xlink:href="#DejaVuSans-31"/>
       <use xlink:href="#DejaVuSans-34" x="63.623047"/>
       <use xlink:href="#DejaVuSans-30" x="127.246094"/>
       <use xlink:href="#DejaVuSans-30" x="190.869141"/>
      </g>
     </g>
    </g>
   </g>
   <g id="LineCollection_1">
    <path d="M 544.743155 923.4 
L 559.798096 918.507315 
L 562.500624 917.43164 
L 575.010561 911.490392 
L 577.774386 909.93039 
L 588.087013 903.10984 
L 590.680313 901.109333 
L 599.114796 893.56423 
L 601.324193 891.288286 
L 608.172639 883.159625 
L 609.884285 880.842192 
L 615.413156 872.257949 
L 616.633178 870.114467 
L 621.897755 859.361094 
L 626.004809 848.74717 
L 629.246694 838.372344 
L 631.870014 828.298455 
L 634.077267 818.568342 
L 639.743095 791.529923 
L 641.671217 783.345416 
L 643.740013 775.627858 
L 645.99894 768.377218 
L 648.485002 761.582284 
L 651.227245 755.219811 
L 654.251361 749.255379 
L 657.583573 743.646308 
L 661.252839 738.346298 
L 665.290688 733.310727 
L 669.72882 728.501171 
L 674.595407 723.887969 
L 679.911392 719.450484 
L 685.687873 715.175513 
L 691.925021 711.054753 
L 698.612404 707.082177 
L 705.730255 703.251892 
L 713.251188 699.556668 
L 721.141984 695.987129 
L 729.36521 692.531437 
L 737.880591 689.175313 
L 746.64612 685.902253 
L 764.755996 679.530034 
L 811.56872 663.559149 
L 820.87216 660.170269 
L 830.068229 656.659122 
L 839.124723 652.999533 
L 848.011004 649.164837 
L 856.697717 645.127872 
L 865.156338 640.861064 
L 873.358562 636.336644 
L 881.275531 631.527116 
L 888.876985 626.40607 
L 896.130475 620.949435 
L 903.000875 615.137182 
L 909.450497 608.955393 
L 915.440117 602.398354 
L 920.931041 595.470187 
L 925.888085 588.185418 
L 930.28291 580.568039 
L 934.096928 572.649018 
L 937.323027 564.462742 
L 939.965701 556.043237 
L 942.039718 547.421037 
L 943.567867 538.621257 
L 944.578428 529.66299 
L 945.102931 520.559759 
L 945.174479 511.320629 
L 944.826694 501.95155 
L 944.0932 492.456669 
L 943.007475 482.839434 
L 941.602943 473.103446 
L 939.913176 463.253068 
L 937.972133 453.293824 
L 935.814385 443.232652 
L 933.475314 433.078041 
L 928.399586 412.530586 
L 917.720958 370.777301 
L 915.182443 360.304493 
L 912.783949 349.863016 
L 910.5698 339.475643 
L 908.584646 329.166813 
L 906.87311 318.962558 
L 905.479349 308.890339 
L 904.446522 298.978707 
L 903.816213 289.256691 
L 903.627855 279.752804 
L 903.918341 270.493537 
L 904.722057 261.501264 
L 906.071716 252.791625 
L 908.000426 244.370732 
L 910.545269 236.232927 
L 913.752238 228.360161 
L 917.681652 220.724109 
L 922.412382 213.291456 
L 928.043104 206.031542 
L 935.380927 198.185037 
L 935.380927 198.185037 
" clip-path="url(#pe782d429d9)" style="fill: none; stroke: #1f77b4; stroke-width: 1.5"/>
    <path d="M 537.777976 901.967929 
L 552.832917 897.075245 
L 565.342855 891.133997 
L 575.655481 884.313446 
L 584.089965 876.768344 
L 590.938411 868.639683 
L 596.467283 860.055439 
L 600.918777 851.131279 
L 604.512155 841.971245 
L 607.445027 832.668426 
L 609.894602 823.305596 
L 612.018886 813.955838 
L 613.957847 804.683142 
L 615.834534 795.542982 
L 617.756158 786.582876 
L 619.815134 777.842922 
L 622.090084 769.356312 
L 624.646802 761.149833 
L 627.539183 753.244342 
L 630.810114 745.655224 
L 634.492326 738.392834 
L 638.609222 731.462916 
L 643.175656 724.867006 
L 648.198689 718.602819 
L 653.678306 712.664618 
L 659.608106 707.043561 
L 665.975951 701.728041 
L 672.764598 696.704002 
L 679.952285 691.955239 
L 687.5133 687.463691 
L 695.418514 683.209706 
L 703.635886 679.172304 
L 712.130947 675.329416 
L 720.867246 671.658112 
L 729.806781 668.134818 
L 738.910397 664.735517 
L 748.138159 661.435934 
L 757.44971 658.211717 
L 766.804592 655.038593 
L 776.162554 651.892527 
L 785.483835 648.749856 
L 794.729425 645.587419 
L 803.861305 642.382674 
L 812.84267 639.113806 
L 821.638124 635.759823 
L 830.213871 632.300642 
L 838.537874 628.717167 
L 846.580003 624.991357 
L 854.312165 621.106285 
L 861.708423 617.04619 
L 868.745086 612.796517 
L 875.400805 608.343957 
L 881.656636 603.676469 
L 887.496098 598.783306 
L 892.905223 593.655025 
L 897.872584 588.283498 
L 902.38932 582.66191 
L 906.449145 576.784761 
L 910.048354 570.647851 
L 913.185811 564.24827 
L 915.862937 557.584377 
L 918.083683 550.655781 
L 919.854503 543.463311 
L 921.184315 536.008989 
L 922.084458 528.295996 
L 922.568647 520.328633 
L 922.652919 512.112291 
L 922.355578 503.653404 
L 921.697136 494.959409 
L 920.700256 486.038704 
L 919.389682 476.900603 
L 917.792185 467.555293 
L 915.936495 458.013787 
L 913.853237 448.287879 
L 911.574872 438.390104 
L 909.135637 428.333687 
L 906.571488 418.132509 
L 903.920044 407.801058 
L 901.220538 397.354398 
L 898.513773 386.808125 
L 895.842082 376.17834 
L 893.249291 365.481609 
L 890.780693 354.734945 
L 888.483029 343.955776 
L 886.404476 333.161928 
L 884.594641 322.371609 
L 883.104571 311.603399 
L 881.986763 300.876238 
L 881.2952 290.209436 
L 881.085381 279.622667 
L 881.414374 269.135987 
L 882.340884 258.76985 
L 883.925322 248.545133 
L 886.229902 238.483166 
L 889.318745 228.605774 
L 893.258001 218.935322 
L 898.115986 209.494772 
L 903.963337 200.307748 
L 910.873186 191.398605 
L 918.921347 182.792518 
" clip-path="url(#pe782d429d9)" style="fill: none; stroke: #8c564b; stroke-width: 1.5"/>
    <path d="M 530.812797 880.535858 
L 544.481692 876.093623 
L 554.238175 871.460052 
L 561.85442 866.422831 
L 567.880148 861.03249 
L 572.77414 855.223639 
L 576.852662 848.89124 
L 580.305679 841.968784 
L 583.251453 834.459582 
L 585.784594 826.424678 
L 588.000287 817.955796 
L 590.000346 809.152799 
L 595.821154 781.415385 
L 598.048164 772.007993 
L 600.574611 762.653193 
L 603.483339 753.406759 
L 606.84408 744.324696 
L 610.710572 735.464256 
L 615.117866 726.882939 
L 620.080781 718.635436 
L 625.594418 710.769224 
L 631.637047 703.320169 
L 638.174786 696.30955 
L 645.166854 689.743341 
L 652.570125 683.613649 
L 660.342203 677.901569 
L 668.442895 672.580479 
L 676.834432 667.619066 
L 685.480956 662.983676 
L 694.347721 658.639955 
L 703.400321 654.553865 
L 712.604077 650.692249 
L 721.923649 647.023125 
L 731.322837 643.515802 
L 750.210894 636.870514 
L 796.276139 621.161704 
L 804.973759 617.996108 
L 813.407575 614.780029 
L 821.542234 611.498769 
L 829.344167 608.140045 
L 836.78211 604.694146 
L 843.827746 601.154023 
L 850.456474 597.515255 
L 856.648313 593.7758 
L 862.388902 589.935446 
L 867.670486 585.994845 
L 872.492702 581.954081 
L 876.862883 577.810801 
L 880.795581 573.558122 
L 884.311054 569.182719 
L 887.43273 564.663668 
L 890.183984 559.972584 
L 892.58492 555.075309 
L 894.649984 549.934958 
L 896.386987 544.515614 
L 897.797693 538.785802 
L 898.879622 532.720999 
L 899.628419 526.304833 
L 900.040193 519.529065 
L 900.113388 512.392704 
L 899.850033 504.900673 
L 899.256399 497.062376 
L 898.343188 488.890401 
L 897.125427 480.399448 
L 895.622182 471.60551 
L 893.856205 462.525285 
L 891.853566 453.175758 
L 889.643325 443.573927 
L 884.729498 423.680297 
L 873.940817 381.48701 
L 871.285834 370.526798 
L 868.740376 359.43301 
L 866.354123 348.217102 
L 864.179462 336.889677 
L 862.271878 325.460562 
L 860.690463 313.939026 
L 859.498508 302.334225 
L 858.764156 290.655979 
L 858.560993 278.91602 
L 858.968382 267.129799 
L 860.07121 255.318907 
L 861.95866 243.513917 
L 864.721586 231.757118 
L 868.448399 220.104244 
L 873.21994 208.623994 
L 879.104675 197.394465 
L 886.156058 186.496586 
L 894.413607 176.006087 
L 902.461768 167.4 
L 902.461768 167.4 
" clip-path="url(#pe782d429d9)" style="fill: none; stroke: #17becf; stroke-width: 1.5"/>
   </g>
   <g id="patch_3">
    <path d="M 510.094077 961.2 
L 510.094077 129.6 
" style="fill: none; stroke: #000000; stroke-width: 0.8; stroke-linejoin: miter; stroke-linecap: square"/>
   </g>
   <g id="patch_4">
    <path d="M 965.905923 961.2 
L 965.905923 129.6 
" style="fill: none; stroke: #000000; stroke-width: 0.8; stroke-linejoin: miter; stroke-linecap: square"/>
   </g>
   <g id="patch_5">
    <path d="M 510.094077 961.2 
L 965.905923 961.2 
" style="fill: none; stroke: #000000; stroke-width: 0.8; stroke-linejoin: miter; stroke-linecap: square"/>
   </g>
   <g id="patch_6">
    <path d="M 510.094077 129.6 
L 965.905923 129.6 
" style="fill: none; stroke: #000000; stroke-width: 0.8; stroke-linejoin: miter; stroke-linecap: square"/>
   </g>
  </g>
 </g>
 <defs>
  <clipPath id="pe782d429d9">
   <rect x="510.094077" y="129.6" width="455.811847" height="831.6"/>
  </clipPath>
 </defs>
</svg>
