<?xml version="1.0" encoding="utf-8" standalone="no"?>
<!DOCTYPE svg PUBLIC "-//W3C//DTD SVG 1.1//EN"
  "http://www.w3.org/Graphics/SVG/1.1/DTD/svg11.dtd">
<svg xmlns:xlink="http://www.w3.org/1999/xlink" width="1440pt" height="1080pt" viewBox="0 0 1440 1080" xmlns="http://www.w3.org/2000/svg" version="1.1">
 <metadata>
  <rdf:RDF xmlns:dc="http://purl.org/dc/elements/1.1/" xmlns:cc="http://creativecommons.org/ns#" xmlns:rdf="http://www.w3.org/1999/02/22-rdf-syntax-ns#">
   <cc:Work>
    <dc:type rdf:resource="http://purl.org/dc/dcmitype/StillImage"/>
    <dc:date>2023-12-11T12:06:56.666721</dc:date>
    <dc:format>image/svg+xml</dc:format>
    <dc:creator>
     <cc:Agent>
      <dc:title>Matplotlib v3.7.1, https://matplotlib.org/</dc:title>
     </cc:Agent>
    </dc:creator>
   </cc:Work>
  </rdf:RDF>
 </metadata>
 <defs>
  <style type="text/css">*{stroke-linejoin: round; stroke-linecap: butt}</style>
 </defs>
 <g id="figure_1">
  <g id="patch_1">
   <path d="M 0 1080 
L 1440 1080 
L 1440 0 
L 0 0 
z
" style="fill: #ffffff"/>
  </g>
  <g id="axes_1">
   <g id="patch_2">
    <path d="M 180 704.475301 
L 1296 704.475301 
L 1296 386.324699 
L 180 386.324699 
z
" style="fill: #ffffff"/>
   </g>
   <g id="matplotlib.axis_1">
    <g id="xtick_1">
     <g id="line2d_1">
      <defs>
       <path id="mcd11de9192" d="M 0 0 
L 0 3.5 
" style="stroke: #000000; stroke-width: 0.8"/>
      </defs>
      <g>
       <use xlink:href="#mcd11de9192" x="226.485759" y="704.475301" style="stroke: #000000; stroke-width: 0.8"/>
      </g>
     </g>
     <g id="text_1">
      <!-- 400 -->
      <g transform="translate(216.942009 719.073738) scale(0.1 -0.1)">
       <defs>
        <path id="DejaVuSans-34" d="M 2419 4116 
L 825 1625 
L 2419 1625 
L 2419 4116 
z
M 2253 4666 
L 3047 4666 
L 3047 1625 
L 3713 1625 
L 3713 1100 
L 3047 1100 
L 3047 0 
L 2419 0 
L 2419 1100 
L 313 1100 
L 313 1709 
L 2253 4666 
z
" transform="scale(0.015625)"/>
        <path id="DejaVuSans-30" d="M 2034 4250 
Q 1547 4250 1301 3770 
Q 1056 3291 1056 2328 
Q 1056 1369 1301 889 
Q 1547 409 2034 409 
Q 2525 409 2770 889 
Q 3016 1369 3016 2328 
Q 3016 3291 2770 3770 
Q 2525 4250 2034 4250 
z
M 2034 4750 
Q 2819 4750 3233 4129 
Q 3647 3509 3647 2328 
Q 3647 1150 3233 529 
Q 2819 -91 2034 -91 
Q 1250 -91 836 529 
Q 422 1150 422 2328 
Q 422 3509 836 4129 
Q 1250 4750 2034 4750 
z
" transform="scale(0.015625)"/>
       </defs>
       <use xlink:href="#DejaVuSans-34"/>
       <use xlink:href="#DejaVuSans-30" x="63.623047"/>
       <use xlink:href="#DejaVuSans-30" x="127.246094"/>
      </g>
     </g>
    </g>
    <g id="xtick_2">
     <g id="line2d_2">
      <g>
       <use xlink:href="#mcd11de9192" x="432.635201" y="704.475301" style="stroke: #000000; stroke-width: 0.8"/>
      </g>
     </g>
     <g id="text_2">
      <!-- 600 -->
      <g transform="translate(423.091451 719.073738) scale(0.1 -0.1)">
       <defs>
        <path id="DejaVuSans-36" d="M 2113 2584 
Q 1688 2584 1439 2293 
Q 1191 2003 1191 1497 
Q 1191 994 1439 701 
Q 1688 409 2113 409 
Q 2538 409 2786 701 
Q 3034 994 3034 1497 
Q 3034 2003 2786 2293 
Q 2538 2584 2113 2584 
z
M 3366 4563 
L 3366 3988 
Q 3128 4100 2886 4159 
Q 2644 4219 2406 4219 
Q 1781 4219 1451 3797 
Q 1122 3375 1075 2522 
Q 1259 2794 1537 2939 
Q 1816 3084 2150 3084 
Q 2853 3084 3261 2657 
Q 3669 2231 3669 1497 
Q 3669 778 3244 343 
Q 2819 -91 2113 -91 
Q 1303 -91 875 529 
Q 447 1150 447 2328 
Q 447 3434 972 4092 
Q 1497 4750 2381 4750 
Q 2619 4750 2861 4703 
Q 3103 4656 3366 4563 
z
" transform="scale(0.015625)"/>
       </defs>
       <use xlink:href="#DejaVuSans-36"/>
       <use xlink:href="#DejaVuSans-30" x="63.623047"/>
       <use xlink:href="#DejaVuSans-30" x="127.246094"/>
      </g>
     </g>
    </g>
    <g id="xtick_3">
     <g id="line2d_3">
      <g>
       <use xlink:href="#mcd11de9192" x="638.784643" y="704.475301" style="stroke: #000000; stroke-width: 0.8"/>
      </g>
     </g>
     <g id="text_3">
      <!-- 800 -->
      <g transform="translate(629.240893 719.073738) scale(0.1 -0.1)">
       <defs>
        <path id="DejaVuSans-38" d="M 2034 2216 
Q 1584 2216 1326 1975 
Q 1069 1734 1069 1313 
Q 1069 891 1326 650 
Q 1584 409 2034 409 
Q 2484 409 2743 651 
Q 3003 894 3003 1313 
Q 3003 1734 2745 1975 
Q 2488 2216 2034 2216 
z
M 1403 2484 
Q 997 2584 770 2862 
Q 544 3141 544 3541 
Q 544 4100 942 4425 
Q 1341 4750 2034 4750 
Q 2731 4750 3128 4425 
Q 3525 4100 3525 3541 
Q 3525 3141 3298 2862 
Q 3072 2584 2669 2484 
Q 3125 2378 3379 2068 
Q 3634 1759 3634 1313 
Q 3634 634 3220 271 
Q 2806 -91 2034 -91 
Q 1263 -91 848 271 
Q 434 634 434 1313 
Q 434 1759 690 2068 
Q 947 2378 1403 2484 
z
M 1172 3481 
Q 1172 3119 1398 2916 
Q 1625 2713 2034 2713 
Q 2441 2713 2670 2916 
Q 2900 3119 2900 3481 
Q 2900 3844 2670 4047 
Q 2441 4250 2034 4250 
Q 1625 4250 1398 4047 
Q 1172 3844 1172 3481 
z
" transform="scale(0.015625)"/>
       </defs>
       <use xlink:href="#DejaVuSans-38"/>
       <use xlink:href="#DejaVuSans-30" x="63.623047"/>
       <use xlink:href="#DejaVuSans-30" x="127.246094"/>
      </g>
     </g>
    </g>
    <g id="xtick_4">
     <g id="line2d_4">
      <g>
       <use xlink:href="#mcd11de9192" x="844.934085" y="704.475301" style="stroke: #000000; stroke-width: 0.8"/>
      </g>
     </g>
     <g id="text_4">
      <!-- 1000 -->
      <g transform="translate(832.209085 719.073738) scale(0.1 -0.1)">
       <defs>
        <path id="DejaVuSans-31" d="M 794 531 
L 1825 531 
L 1825 4091 
L 703 3866 
L 703 4441 
L 1819 4666 
L 2450 4666 
L 2450 531 
L 3481 531 
L 3481 0 
L 794 0 
L 794 531 
z
" transform="scale(0.015625)"/>
       </defs>
       <use xlink:href="#DejaVuSans-31"/>
       <use xlink:href="#DejaVuSans-30" x="63.623047"/>
       <use xlink:href="#DejaVuSans-30" x="127.246094"/>
       <use xlink:href="#DejaVuSans-30" x="190.869141"/>
      </g>
     </g>
    </g>
    <g id="xtick_5">
     <g id="line2d_5">
      <g>
       <use xlink:href="#mcd11de9192" x="1051.083526" y="704.475301" style="stroke: #000000; stroke-width: 0.8"/>
      </g>
     </g>
     <g id="text_5">
      <!-- 1200 -->
      <g transform="translate(1038.358526 719.073738) scale(0.1 -0.1)">
       <defs>
        <path id="DejaVuSans-32" d="M 1228 531 
L 3431 531 
L 3431 0 
L 469 0 
L 469 531 
Q 828 903 1448 1529 
Q 2069 2156 2228 2338 
Q 2531 2678 2651 2914 
Q 2772 3150 2772 3378 
Q 2772 3750 2511 3984 
Q 2250 4219 1831 4219 
Q 1534 4219 1204 4116 
Q 875 4013 500 3803 
L 500 4441 
Q 881 4594 1212 4672 
Q 1544 4750 1819 4750 
Q 2544 4750 2975 4387 
Q 3406 4025 3406 3419 
Q 3406 3131 3298 2873 
Q 3191 2616 2906 2266 
Q 2828 2175 2409 1742 
Q 1991 1309 1228 531 
z
" transform="scale(0.015625)"/>
       </defs>
       <use xlink:href="#DejaVuSans-31"/>
       <use xlink:href="#DejaVuSans-32" x="63.623047"/>
       <use xlink:href="#DejaVuSans-30" x="127.246094"/>
       <use xlink:href="#DejaVuSans-30" x="190.869141"/>
      </g>
     </g>
    </g>
    <g id="xtick_6">
     <g id="line2d_6">
      <g>
       <use xlink:href="#mcd11de9192" x="1257.232968" y="704.475301" style="stroke: #000000; stroke-width: 0.8"/>
      </g>
     </g>
     <g id="text_6">
      <!-- 1400 -->
      <g transform="translate(1244.507968 719.073738) scale(0.1 -0.1)">
       <use xlink:href="#DejaVuSans-31"/>
       <use xlink:href="#DejaVuSans-34" x="63.623047"/>
       <use xlink:href="#DejaVuSans-30" x="127.246094"/>
       <use xlink:href="#DejaVuSans-30" x="190.869141"/>
      </g>
     </g>
    </g>
   </g>
   <g id="matplotlib.axis_2">
    <g id="ytick_1">
     <g id="line2d_7">
      <defs>
       <path id="mea68300afc" d="M 0 0 
L -3.5 0 
" style="stroke: #000000; stroke-width: 0.8"/>
      </defs>
      <g>
       <use xlink:href="#mea68300afc" x="180" y="704.336129" style="stroke: #000000; stroke-width: 0.8"/>
      </g>
     </g>
     <g id="text_7">
      <!-- 1050 -->
      <g transform="translate(147.55 708.135348) scale(0.1 -0.1)">
       <defs>
        <path id="DejaVuSans-35" d="M 691 4666 
L 3169 4666 
L 3169 4134 
L 1269 4134 
L 1269 2991 
Q 1406 3038 1543 3061 
Q 1681 3084 1819 3084 
Q 2600 3084 3056 2656 
Q 3513 2228 3513 1497 
Q 3513 744 3044 326 
Q 2575 -91 1722 -91 
Q 1428 -91 1123 -41 
Q 819 9 494 109 
L 494 744 
Q 775 591 1075 516 
Q 1375 441 1709 441 
Q 2250 441 2565 725 
Q 2881 1009 2881 1497 
Q 2881 1984 2565 2268 
Q 2250 2553 1709 2553 
Q 1456 2553 1204 2497 
Q 953 2441 691 2322 
L 691 4666 
z
" transform="scale(0.015625)"/>
       </defs>
       <use xlink:href="#DejaVuSans-31"/>
       <use xlink:href="#DejaVuSans-30" x="63.623047"/>
       <use xlink:href="#DejaVuSans-35" x="127.246094"/>
       <use xlink:href="#DejaVuSans-30" x="190.869141"/>
      </g>
     </g>
    </g>
    <g id="ytick_2">
     <g id="line2d_8">
      <g>
       <use xlink:href="#mea68300afc" x="180" y="652.798768" style="stroke: #000000; stroke-width: 0.8"/>
      </g>
     </g>
     <g id="text_8">
      <!-- 1100 -->
      <g transform="translate(147.55 656.597987) scale(0.1 -0.1)">
       <use xlink:href="#DejaVuSans-31"/>
       <use xlink:href="#DejaVuSans-31" x="63.623047"/>
       <use xlink:href="#DejaVuSans-30" x="127.246094"/>
       <use xlink:href="#DejaVuSans-30" x="190.869141"/>
      </g>
     </g>
    </g>
    <g id="ytick_3">
     <g id="line2d_9">
      <g>
       <use xlink:href="#mea68300afc" x="180" y="601.261408" style="stroke: #000000; stroke-width: 0.8"/>
      </g>
     </g>
     <g id="text_9">
      <!-- 1150 -->
      <g transform="translate(147.55 605.060627) scale(0.1 -0.1)">
       <use xlink:href="#DejaVuSans-31"/>
       <use xlink:href="#DejaVuSans-31" x="63.623047"/>
       <use xlink:href="#DejaVuSans-35" x="127.246094"/>
       <use xlink:href="#DejaVuSans-30" x="190.869141"/>
      </g>
     </g>
    </g>
    <g id="ytick_4">
     <g id="line2d_10">
      <g>
       <use xlink:href="#mea68300afc" x="180" y="549.724048" style="stroke: #000000; stroke-width: 0.8"/>
      </g>
     </g>
     <g id="text_10">
      <!-- 1200 -->
      <g transform="translate(147.55 553.523266) scale(0.1 -0.1)">
       <use xlink:href="#DejaVuSans-31"/>
       <use xlink:href="#DejaVuSans-32" x="63.623047"/>
       <use xlink:href="#DejaVuSans-30" x="127.246094"/>
       <use xlink:href="#DejaVuSans-30" x="190.869141"/>
      </g>
     </g>
    </g>
    <g id="ytick_5">
     <g id="line2d_11">
      <g>
       <use xlink:href="#mea68300afc" x="180" y="498.186687" style="stroke: #000000; stroke-width: 0.8"/>
      </g>
     </g>
     <g id="text_11">
      <!-- 1250 -->
      <g transform="translate(147.55 501.985906) scale(0.1 -0.1)">
       <use xlink:href="#DejaVuSans-31"/>
       <use xlink:href="#DejaVuSans-32" x="63.623047"/>
       <use xlink:href="#DejaVuSans-35" x="127.246094"/>
       <use xlink:href="#DejaVuSans-30" x="190.869141"/>
      </g>
     </g>
    </g>
    <g id="ytick_6">
     <g id="line2d_12">
      <g>
       <use xlink:href="#mea68300afc" x="180" y="446.649327" style="stroke: #000000; stroke-width: 0.8"/>
      </g>
     </g>
     <g id="text_12">
      <!-- 1300 -->
      <g transform="translate(147.55 450.448545) scale(0.1 -0.1)">
       <defs>
        <path id="DejaVuSans-33" d="M 2597 2516 
Q 3050 2419 3304 2112 
Q 3559 1806 3559 1356 
Q 3559 666 3084 287 
Q 2609 -91 1734 -91 
Q 1441 -91 1130 -33 
Q 819 25 488 141 
L 488 750 
Q 750 597 1062 519 
Q 1375 441 1716 441 
Q 2309 441 2620 675 
Q 2931 909 2931 1356 
Q 2931 1769 2642 2001 
Q 2353 2234 1838 2234 
L 1294 2234 
L 1294 2753 
L 1863 2753 
Q 2328 2753 2575 2939 
Q 2822 3125 2822 3475 
Q 2822 3834 2567 4026 
Q 2313 4219 1838 4219 
Q 1578 4219 1281 4162 
Q 984 4106 628 3988 
L 628 4550 
Q 988 4650 1302 4700 
Q 1616 4750 1894 4750 
Q 2613 4750 3031 4423 
Q 3450 4097 3450 3541 
Q 3450 3153 3228 2886 
Q 3006 2619 2597 2516 
z
" transform="scale(0.015625)"/>
       </defs>
       <use xlink:href="#DejaVuSans-31"/>
       <use xlink:href="#DejaVuSans-33" x="63.623047"/>
       <use xlink:href="#DejaVuSans-30" x="127.246094"/>
       <use xlink:href="#DejaVuSans-30" x="190.869141"/>
      </g>
     </g>
    </g>
    <g id="ytick_7">
     <g id="line2d_13">
      <g>
       <use xlink:href="#mea68300afc" x="180" y="395.111966" style="stroke: #000000; stroke-width: 0.8"/>
      </g>
     </g>
     <g id="text_13">
      <!-- 1350 -->
      <g transform="translate(147.55 398.911185) scale(0.1 -0.1)">
       <use xlink:href="#DejaVuSans-31"/>
       <use xlink:href="#DejaVuSans-33" x="63.623047"/>
       <use xlink:href="#DejaVuSans-35" x="127.246094"/>
       <use xlink:href="#DejaVuSans-30" x="190.869141"/>
      </g>
     </g>
    </g>
   </g>
   <g id="LineCollection_1">
    <path d="M 230.727273 417.865033 
L 239.516889 444.856541 
L 249.14239 468.407325 
L 258.464662 486.799161 
L 259.619406 488.823899 
L 269.407122 504.178866 
L 270.971225 506.351438 
L 281.168708 518.949688 
L 283.203671 521.161001 
L 293.759392 531.263878 
L 296.267392 533.353212 
L 307.133706 541.204358 
L 310.025094 542.992704 
L 321.157993 548.819106 
L 324.253518 550.167753 
L 335.612394 554.180752 
L 338.692666 555.040233 
L 350.240087 557.436472 
L 353.113896 557.851225 
L 364.815396 558.813556 
L 367.363147 558.885611 
L 381.363723 558.427947 
L 395.094459 556.734262 
L 408.564272 554.023044 
L 421.79363 550.477766 
L 434.804151 546.253444 
L 447.613977 541.483185 
L 460.236373 536.283382 
L 472.679848 530.757441 
L 484.948847 524.998349 
L 497.044567 519.090429 
L 520.709009 507.128956 
L 543.700121 495.383252 
L 565.930496 484.326101 
L 576.736119 479.178699 
L 587.32591 474.339399 
L 597.692512 469.843029 
L 607.82858 465.719932 
L 617.727024 461.995954 
L 627.38132 458.692407 
L 636.785922 455.826049 
L 645.93678 453.409099 
L 654.831975 451.449355 
L 663.472425 449.950462 
L 671.862617 448.912414 
L 680.011249 448.332299 
L 687.931646 448.205317 
L 695.641782 448.525981 
L 703.163805 449.28936 
L 710.523019 450.492152 
L 717.746409 452.133364 
L 724.86092 454.214428 
L 731.891795 456.738718 
L 738.861237 459.710556 
L 745.787606 463.133919 
L 752.6852 467.011109 
L 759.56455 471.341589 
L 766.433078 476.121136 
L 773.295941 481.341349 
L 780.156901 486.989478 
L 787.01912 493.048512 
L 793.885812 499.497438 
L 800.760756 506.311594 
L 807.64865 513.463061 
L 814.555359 520.921058 
L 821.488065 528.652312 
L 835.467242 544.79106 
L 864.275304 578.75272 
L 871.741252 587.351151 
L 879.344733 595.901257 
L 887.106328 604.358613 
L 895.047814 612.678083 
L 903.191918 620.81374 
L 911.561921 628.718736 
L 920.181044 636.345152 
L 929.071567 643.6439 
L 938.253647 650.564788 
L 947.743866 657.05691 
L 957.553623 663.069535 
L 967.687621 668.553645 
L 978.1428 673.464167 
L 988.908073 677.762733 
L 999.965139 681.420598 
L 1011.290323 684.421201 
L 1022.857107 686.761893 
L 1034.638736 688.454591 
L 1046.610281 689.525448 
L 1058.749719 690.01391 
L 1071.037903 689.971605 
L 1083.457575 689.461477 
L 1095.991703 688.55734 
L 1108.621452 687.343869 
L 1134.084132 684.382126 
L 1146.954035 682.849297 
L 1159.796956 681.463396 
L 1172.55869 680.369357 
L 1185.174737 679.721107 
L 1197.572963 679.678185 
L 1209.681081 680.401902 
L 1221.441412 682.053936 
L 1234.147804 685.120876 
L 1234.147804 685.120876 
" clip-path="url(#p48915a56db)" style="fill: none; stroke: #1f77b4; stroke-width: 1.5"/>
    <path d="M 253.285186 410.573174 
L 261.491579 435.960269 
L 270.288313 457.689088 
L 279.610585 476.080924 
L 289.398301 491.435891 
L 299.595784 504.034141 
L 310.151505 514.137019 
L 321.017819 521.988165 
L 332.150718 527.814568 
L 343.509594 531.827567 
L 355.057015 534.223806 
L 366.758514 535.186137 
L 378.582389 534.88448 
L 390.499511 533.476638 
L 402.483147 531.109062 
L 414.508793 527.917584 
L 426.554015 524.0281 
L 438.598301 519.557213 
L 450.622923 514.612844 
L 462.610809 509.294796 
L 474.546422 503.695293 
L 486.415647 497.89947 
L 498.205693 491.985842 
L 509.904994 486.02673 
L 521.503121 480.088667 
L 532.990707 474.232762 
L 544.35937 468.515041 
L 555.601648 462.986762 
L 566.710943 457.694703 
L 577.681462 452.681418 
L 588.508177 447.98548 
L 599.186774 443.641697 
L 609.713626 439.681299 
L 620.085754 436.132122 
L 630.300807 433.018753 
L 640.357031 430.362676 
L 650.253257 428.182388 
L 659.988884 426.493511 
L 669.563866 425.308879 
L 678.978705 424.638621 
L 688.234446 424.49023 
L 697.33267 424.868625 
L 706.275496 425.776195 
L 715.065581 427.212849 
L 723.70612 429.176048 
L 732.200852 431.660841 
L 740.554063 434.659889 
L 748.77059 438.163495 
L 756.855824 442.159628 
L 764.815721 446.633946 
L 772.6568 451.569824 
L 780.386148 456.948384 
L 788.011426 462.748526 
L 795.540868 468.946967 
L 802.983281 475.518287 
L 810.348041 482.434978 
L 817.645093 489.66751 
L 824.884941 497.184399 
L 832.078636 504.952288 
L 839.237769 512.936051 
L 846.37445 521.098891 
L 853.501288 529.402476 
L 860.631367 537.807074 
L 867.778219 546.271713 
L 874.955786 554.75436 
L 882.178388 563.21212 
L 889.460671 571.601457 
L 896.817563 579.878434 
L 904.264216 587.998981 
L 911.815944 595.91919 
L 919.488154 603.595629 
L 927.296273 610.985693 
L 935.255662 618.047979 
L 943.381525 624.742689 
L 951.688815 631.032073 
L 960.192123 636.880896 
L 968.905567 642.256942 
L 977.842663 647.131559 
L 987.016198 651.480231 
L 996.438083 655.283196 
L 1006.119206 658.526099 
L 1016.069263 661.200685 
L 1026.296591 663.305538 
L 1036.807984 664.846859 
L 1047.608497 665.839287 
L 1058.701241 666.306773 
L 1070.087168 666.28349 
L 1081.76484 665.814801 
L 1093.730188 664.958268 
L 1105.976259 663.784718 
L 1118.492948 662.379359 
L 1131.266721 660.842945 
L 1144.280319 659.293001 
L 1157.512451 657.8651 
L 1170.937474 656.714199 
L 1184.525058 656.016028 
L 1198.239834 655.968549 
L 1212.041029 656.793463 
L 1225.882085 658.737787 
L 1239.710266 662.075493 
" clip-path="url(#p48915a56db)" style="fill: none; stroke: #8c564b; stroke-width: 1.5"/>
    <path d="M 275.8431 403.281316 
L 283.786783 427.855697 
L 291.887111 447.864325 
L 300.228964 464.3219 
L 308.668858 477.562404 
L 317.075596 487.94832 
L 325.361709 495.878956 
L 333.520518 501.773871 
L 341.643824 506.025203 
L 349.895708 508.940527 
L 358.449761 510.715604 
L 367.429697 511.454113 
L 376.885812 511.212864 
L 386.805831 510.040951 
L 397.139579 507.99934 
L 407.821129 505.164571 
L 418.78292 501.624934 
L 429.962799 497.474918 
L 441.306608 492.81049 
L 452.768466 487.725799 
L 464.310067 482.311143 
L 475.899675 476.651859 
L 499.122975 464.913243 
L 522.338797 453.05335 
L 533.898006 447.240866 
L 545.406119 441.583916 
L 556.857391 436.132277 
L 568.247934 430.931953 
L 579.575446 426.025585 
L 590.838924 421.452869 
L 602.038318 417.250956 
L 613.174111 413.454824 
L 624.246807 410.097589 
L 635.256306 407.210715 
L 646.201197 404.824061 
L 657.077986 402.965712 
L 667.880372 401.661543 
L 678.598674 400.934481 
L 689.219574 400.803521 
L 699.726319 401.282588 
L 710.099467 402.379445 
L 720.31817 404.094869 
L 730.361811 406.422313 
L 740.211762 409.348154 
L 749.852939 412.852515 
L 759.274901 416.910493 
L 768.472377 421.49356 
L 777.445214 426.570882 
L 786.197883 432.110387 
L 794.738701 438.079498 
L 803.078959 444.445518 
L 811.232076 451.175736 
L 819.212866 458.237336 
L 827.036949 465.597192 
L 834.720312 473.221612 
L 842.278996 481.076094 
L 849.728878 489.125109 
L 857.085533 497.331949 
L 871.579395 514.065831 
L 900.144297 547.743896 
L 907.272536 555.955771 
L 914.414747 563.991218 
L 921.581212 571.806222 
L 928.781302 579.357634 
L 936.023526 586.60385 
L 943.315706 593.505599 
L 950.665311 600.02683 
L 958.080021 606.135638 
L 965.568565 611.805156 
L 973.14183 617.014267 
L 980.814181 621.747977 
L 988.604792 625.997259 
L 996.538712 629.758298 
L 1004.647274 633.031165 
L 1012.967536 635.818217 
L 1021.540627 638.122674 
L 1030.409187 639.947883 
L 1039.614393 641.297673 
L 1049.193199 642.177843 
L 1059.176341 642.598566 
L 1069.58738 642.577277 
L 1080.44278 642.14159 
L 1091.752776 641.33197 
L 1103.522742 640.204045 
L 1128.462967 637.302138 
L 1141.736805 635.722656 
L 1155.487506 634.244553 
L 1169.720933 633.038247 
L 1184.442987 632.308984 
L 1199.654316 632.303598 
L 1215.338919 633.316781 
L 1229.179976 635.261105 
L 1231.444547 635.692404 
L 1245.272727 639.03011 
L 1245.272727 639.03011 
" clip-path="url(#p48915a56db)" style="fill: none; stroke: #17becf; stroke-width: 1.5"/>
   </g>
   <g id="patch_3">
    <path d="M 180 704.475301 
L 180 386.324699 
" style="fill: none; stroke: #000000; stroke-width: 0.8; stroke-linejoin: miter; stroke-linecap: square"/>
   </g>
   <g id="patch_4">
    <path d="M 1296 704.475301 
L 1296 386.324699 
" style="fill: none; stroke: #000000; stroke-width: 0.8; stroke-linejoin: miter; stroke-linecap: square"/>
   </g>
   <g id="patch_5">
    <path d="M 180 704.475301 
L 1296 704.475301 
" style="fill: none; stroke: #000000; stroke-width: 0.8; stroke-linejoin: miter; stroke-linecap: square"/>
   </g>
   <g id="patch_6">
    <path d="M 180 386.324699 
L 1296 386.324699 
" style="fill: none; stroke: #000000; stroke-width: 0.8; stroke-linejoin: miter; stroke-linecap: square"/>
   </g>
  </g>
 </g>
 <defs>
  <clipPath id="p48915a56db">
   <rect x="180" y="386.324699" width="1116" height="318.150601"/>
  </clipPath>
 </defs>
</svg>
