<?xml version="1.0" encoding="utf-8" standalone="no"?>
<!DOCTYPE svg PUBLIC "-//W3C//DTD SVG 1.1//EN"
  "http://www.w3.org/Graphics/SVG/1.1/DTD/svg11.dtd">
<svg xmlns:xlink="http://www.w3.org/1999/xlink" width="1440pt" height="1080pt" viewBox="0 0 1440 1080" xmlns="http://www.w3.org/2000/svg" version="1.1">
 <metadata>
  <rdf:RDF xmlns:dc="http://purl.org/dc/elements/1.1/" xmlns:cc="http://creativecommons.org/ns#" xmlns:rdf="http://www.w3.org/1999/02/22-rdf-syntax-ns#">
   <cc:Work>
    <dc:type rdf:resource="http://purl.org/dc/dcmitype/StillImage"/>
    <dc:date>2023-12-11T12:06:34.558230</dc:date>
    <dc:format>image/svg+xml</dc:format>
    <dc:creator>
     <cc:Agent>
      <dc:title>Matplotlib v3.7.1, https://matplotlib.org/</dc:title>
     </cc:Agent>
    </dc:creator>
   </cc:Work>
  </rdf:RDF>
 </metadata>
 <defs>
  <style type="text/css">*{stroke-linejoin: round; stroke-linecap: butt}</style>
 </defs>
 <g id="figure_1">
  <g id="patch_1">
   <path d="M 0 1080 
L 1440 1080 
L 1440 0 
L 0 0 
z
" style="fill: #ffffff"/>
  </g>
  <g id="axes_1">
   <g id="patch_2">
    <path d="M 180 688.392884 
L 1296 688.392884 
L 1296 402.407116 
L 180 402.407116 
z
" style="fill: #ffffff"/>
   </g>
   <g id="matplotlib.axis_1">
    <g id="xtick_1">
     <g id="line2d_1">
      <defs>
       <path id="m6ce707b62c" d="M 0 0 
L 0 3.5 
" style="stroke: #000000; stroke-width: 0.8"/>
      </defs>
      <g>
       <use xlink:href="#m6ce707b62c" x="337.432367" y="688.392884" style="stroke: #000000; stroke-width: 0.8"/>
      </g>
     </g>
     <g id="text_1">
      <!-- 500 -->
      <g transform="translate(327.888617 702.991322) scale(0.1 -0.1)">
       <defs>
        <path id="DejaVuSans-35" d="M 691 4666 
L 3169 4666 
L 3169 4134 
L 1269 4134 
L 1269 2991 
Q 1406 3038 1543 3061 
Q 1681 3084 1819 3084 
Q 2600 3084 3056 2656 
Q 3513 2228 3513 1497 
Q 3513 744 3044 326 
Q 2575 -91 1722 -91 
Q 1428 -91 1123 -41 
Q 819 9 494 109 
L 494 744 
Q 775 591 1075 516 
Q 1375 441 1709 441 
Q 2250 441 2565 725 
Q 2881 1009 2881 1497 
Q 2881 1984 2565 2268 
Q 2250 2553 1709 2553 
Q 1456 2553 1204 2497 
Q 953 2441 691 2322 
L 691 4666 
z
" transform="scale(0.015625)"/>
        <path id="DejaVuSans-30" d="M 2034 4250 
Q 1547 4250 1301 3770 
Q 1056 3291 1056 2328 
Q 1056 1369 1301 889 
Q 1547 409 2034 409 
Q 2525 409 2770 889 
Q 3016 1369 3016 2328 
Q 3016 3291 2770 3770 
Q 2525 4250 2034 4250 
z
M 2034 4750 
Q 2819 4750 3233 4129 
Q 3647 3509 3647 2328 
Q 3647 1150 3233 529 
Q 2819 -91 2034 -91 
Q 1250 -91 836 529 
Q 422 1150 422 2328 
Q 422 3509 836 4129 
Q 1250 4750 2034 4750 
z
" transform="scale(0.015625)"/>
       </defs>
       <use xlink:href="#DejaVuSans-35"/>
       <use xlink:href="#DejaVuSans-30" x="63.623047"/>
       <use xlink:href="#DejaVuSans-30" x="127.246094"/>
      </g>
     </g>
    </g>
    <g id="xtick_2">
     <g id="line2d_2">
      <g>
       <use xlink:href="#m6ce707b62c" x="497.309999" y="688.392884" style="stroke: #000000; stroke-width: 0.8"/>
      </g>
     </g>
     <g id="text_2">
      <!-- 600 -->
      <g transform="translate(487.766249 702.991322) scale(0.1 -0.1)">
       <defs>
        <path id="DejaVuSans-36" d="M 2113 2584 
Q 1688 2584 1439 2293 
Q 1191 2003 1191 1497 
Q 1191 994 1439 701 
Q 1688 409 2113 409 
Q 2538 409 2786 701 
Q 3034 994 3034 1497 
Q 3034 2003 2786 2293 
Q 2538 2584 2113 2584 
z
M 3366 4563 
L 3366 3988 
Q 3128 4100 2886 4159 
Q 2644 4219 2406 4219 
Q 1781 4219 1451 3797 
Q 1122 3375 1075 2522 
Q 1259 2794 1537 2939 
Q 1816 3084 2150 3084 
Q 2853 3084 3261 2657 
Q 3669 2231 3669 1497 
Q 3669 778 3244 343 
Q 2819 -91 2113 -91 
Q 1303 -91 875 529 
Q 447 1150 447 2328 
Q 447 3434 972 4092 
Q 1497 4750 2381 4750 
Q 2619 4750 2861 4703 
Q 3103 4656 3366 4563 
z
" transform="scale(0.015625)"/>
       </defs>
       <use xlink:href="#DejaVuSans-36"/>
       <use xlink:href="#DejaVuSans-30" x="63.623047"/>
       <use xlink:href="#DejaVuSans-30" x="127.246094"/>
      </g>
     </g>
    </g>
    <g id="xtick_3">
     <g id="line2d_3">
      <g>
       <use xlink:href="#m6ce707b62c" x="657.18763" y="688.392884" style="stroke: #000000; stroke-width: 0.8"/>
      </g>
     </g>
     <g id="text_3">
      <!-- 700 -->
      <g transform="translate(647.64388 702.991322) scale(0.1 -0.1)">
       <defs>
        <path id="DejaVuSans-37" d="M 525 4666 
L 3525 4666 
L 3525 4397 
L 1831 0 
L 1172 0 
L 2766 4134 
L 525 4134 
L 525 4666 
z
" transform="scale(0.015625)"/>
       </defs>
       <use xlink:href="#DejaVuSans-37"/>
       <use xlink:href="#DejaVuSans-30" x="63.623047"/>
       <use xlink:href="#DejaVuSans-30" x="127.246094"/>
      </g>
     </g>
    </g>
    <g id="xtick_4">
     <g id="line2d_4">
      <g>
       <use xlink:href="#m6ce707b62c" x="817.065262" y="688.392884" style="stroke: #000000; stroke-width: 0.8"/>
      </g>
     </g>
     <g id="text_4">
      <!-- 800 -->
      <g transform="translate(807.521512 702.991322) scale(0.1 -0.1)">
       <defs>
        <path id="DejaVuSans-38" d="M 2034 2216 
Q 1584 2216 1326 1975 
Q 1069 1734 1069 1313 
Q 1069 891 1326 650 
Q 1584 409 2034 409 
Q 2484 409 2743 651 
Q 3003 894 3003 1313 
Q 3003 1734 2745 1975 
Q 2488 2216 2034 2216 
z
M 1403 2484 
Q 997 2584 770 2862 
Q 544 3141 544 3541 
Q 544 4100 942 4425 
Q 1341 4750 2034 4750 
Q 2731 4750 3128 4425 
Q 3525 4100 3525 3541 
Q 3525 3141 3298 2862 
Q 3072 2584 2669 2484 
Q 3125 2378 3379 2068 
Q 3634 1759 3634 1313 
Q 3634 634 3220 271 
Q 2806 -91 2034 -91 
Q 1263 -91 848 271 
Q 434 634 434 1313 
Q 434 1759 690 2068 
Q 947 2378 1403 2484 
z
M 1172 3481 
Q 1172 3119 1398 2916 
Q 1625 2713 2034 2713 
Q 2441 2713 2670 2916 
Q 2900 3119 2900 3481 
Q 2900 3844 2670 4047 
Q 2441 4250 2034 4250 
Q 1625 4250 1398 4047 
Q 1172 3844 1172 3481 
z
" transform="scale(0.015625)"/>
       </defs>
       <use xlink:href="#DejaVuSans-38"/>
       <use xlink:href="#DejaVuSans-30" x="63.623047"/>
       <use xlink:href="#DejaVuSans-30" x="127.246094"/>
      </g>
     </g>
    </g>
    <g id="xtick_5">
     <g id="line2d_5">
      <g>
       <use xlink:href="#m6ce707b62c" x="976.942894" y="688.392884" style="stroke: #000000; stroke-width: 0.8"/>
      </g>
     </g>
     <g id="text_5">
      <!-- 900 -->
      <g transform="translate(967.399144 702.991322) scale(0.1 -0.1)">
       <defs>
        <path id="DejaVuSans-39" d="M 703 97 
L 703 672 
Q 941 559 1184 500 
Q 1428 441 1663 441 
Q 2288 441 2617 861 
Q 2947 1281 2994 2138 
Q 2813 1869 2534 1725 
Q 2256 1581 1919 1581 
Q 1219 1581 811 2004 
Q 403 2428 403 3163 
Q 403 3881 828 4315 
Q 1253 4750 1959 4750 
Q 2769 4750 3195 4129 
Q 3622 3509 3622 2328 
Q 3622 1225 3098 567 
Q 2575 -91 1691 -91 
Q 1453 -91 1209 -44 
Q 966 3 703 97 
z
M 1959 2075 
Q 2384 2075 2632 2365 
Q 2881 2656 2881 3163 
Q 2881 3666 2632 3958 
Q 2384 4250 1959 4250 
Q 1534 4250 1286 3958 
Q 1038 3666 1038 3163 
Q 1038 2656 1286 2365 
Q 1534 2075 1959 2075 
z
" transform="scale(0.015625)"/>
       </defs>
       <use xlink:href="#DejaVuSans-39"/>
       <use xlink:href="#DejaVuSans-30" x="63.623047"/>
       <use xlink:href="#DejaVuSans-30" x="127.246094"/>
      </g>
     </g>
    </g>
    <g id="xtick_6">
     <g id="line2d_6">
      <g>
       <use xlink:href="#m6ce707b62c" x="1136.820526" y="688.392884" style="stroke: #000000; stroke-width: 0.8"/>
      </g>
     </g>
     <g id="text_6">
      <!-- 1000 -->
      <g transform="translate(1124.095526 702.991322) scale(0.1 -0.1)">
       <defs>
        <path id="DejaVuSans-31" d="M 794 531 
L 1825 531 
L 1825 4091 
L 703 3866 
L 703 4441 
L 1819 4666 
L 2450 4666 
L 2450 531 
L 3481 531 
L 3481 0 
L 794 0 
L 794 531 
z
" transform="scale(0.015625)"/>
       </defs>
       <use xlink:href="#DejaVuSans-31"/>
       <use xlink:href="#DejaVuSans-30" x="63.623047"/>
       <use xlink:href="#DejaVuSans-30" x="127.246094"/>
       <use xlink:href="#DejaVuSans-30" x="190.869141"/>
      </g>
     </g>
    </g>
   </g>
   <g id="matplotlib.axis_2">
    <g id="ytick_1">
     <g id="line2d_7">
      <defs>
       <path id="mf5a09b8935" d="M 0 0 
L -3.5 0 
" style="stroke: #000000; stroke-width: 0.8"/>
      </defs>
      <g>
       <use xlink:href="#mf5a09b8935" x="180" y="687.907043" style="stroke: #000000; stroke-width: 0.8"/>
      </g>
     </g>
     <g id="text_7">
      <!-- 220 -->
      <g transform="translate(153.9125 691.706262) scale(0.1 -0.1)">
       <defs>
        <path id="DejaVuSans-32" d="M 1228 531 
L 3431 531 
L 3431 0 
L 469 0 
L 469 531 
Q 828 903 1448 1529 
Q 2069 2156 2228 2338 
Q 2531 2678 2651 2914 
Q 2772 3150 2772 3378 
Q 2772 3750 2511 3984 
Q 2250 4219 1831 4219 
Q 1534 4219 1204 4116 
Q 875 4013 500 3803 
L 500 4441 
Q 881 4594 1212 4672 
Q 1544 4750 1819 4750 
Q 2544 4750 2975 4387 
Q 3406 4025 3406 3419 
Q 3406 3131 3298 2873 
Q 3191 2616 2906 2266 
Q 2828 2175 2409 1742 
Q 1991 1309 1228 531 
z
" transform="scale(0.015625)"/>
       </defs>
       <use xlink:href="#DejaVuSans-32"/>
       <use xlink:href="#DejaVuSans-32" x="63.623047"/>
       <use xlink:href="#DejaVuSans-30" x="127.246094"/>
      </g>
     </g>
    </g>
    <g id="ytick_2">
     <g id="line2d_8">
      <g>
       <use xlink:href="#mf5a09b8935" x="180" y="655.931517" style="stroke: #000000; stroke-width: 0.8"/>
      </g>
     </g>
     <g id="text_8">
      <!-- 240 -->
      <g transform="translate(153.9125 659.730736) scale(0.1 -0.1)">
       <defs>
        <path id="DejaVuSans-34" d="M 2419 4116 
L 825 1625 
L 2419 1625 
L 2419 4116 
z
M 2253 4666 
L 3047 4666 
L 3047 1625 
L 3713 1625 
L 3713 1100 
L 3047 1100 
L 3047 0 
L 2419 0 
L 2419 1100 
L 313 1100 
L 313 1709 
L 2253 4666 
z
" transform="scale(0.015625)"/>
       </defs>
       <use xlink:href="#DejaVuSans-32"/>
       <use xlink:href="#DejaVuSans-34" x="63.623047"/>
       <use xlink:href="#DejaVuSans-30" x="127.246094"/>
      </g>
     </g>
    </g>
    <g id="ytick_3">
     <g id="line2d_9">
      <g>
       <use xlink:href="#mf5a09b8935" x="180" y="623.955991" style="stroke: #000000; stroke-width: 0.8"/>
      </g>
     </g>
     <g id="text_9">
      <!-- 260 -->
      <g transform="translate(153.9125 627.755209) scale(0.1 -0.1)">
       <use xlink:href="#DejaVuSans-32"/>
       <use xlink:href="#DejaVuSans-36" x="63.623047"/>
       <use xlink:href="#DejaVuSans-30" x="127.246094"/>
      </g>
     </g>
    </g>
    <g id="ytick_4">
     <g id="line2d_10">
      <g>
       <use xlink:href="#mf5a09b8935" x="180" y="591.980464" style="stroke: #000000; stroke-width: 0.8"/>
      </g>
     </g>
     <g id="text_10">
      <!-- 280 -->
      <g transform="translate(153.9125 595.779683) scale(0.1 -0.1)">
       <use xlink:href="#DejaVuSans-32"/>
       <use xlink:href="#DejaVuSans-38" x="63.623047"/>
       <use xlink:href="#DejaVuSans-30" x="127.246094"/>
      </g>
     </g>
    </g>
    <g id="ytick_5">
     <g id="line2d_11">
      <g>
       <use xlink:href="#mf5a09b8935" x="180" y="560.004938" style="stroke: #000000; stroke-width: 0.8"/>
      </g>
     </g>
     <g id="text_11">
      <!-- 300 -->
      <g transform="translate(153.9125 563.804157) scale(0.1 -0.1)">
       <defs>
        <path id="DejaVuSans-33" d="M 2597 2516 
Q 3050 2419 3304 2112 
Q 3559 1806 3559 1356 
Q 3559 666 3084 287 
Q 2609 -91 1734 -91 
Q 1441 -91 1130 -33 
Q 819 25 488 141 
L 488 750 
Q 750 597 1062 519 
Q 1375 441 1716 441 
Q 2309 441 2620 675 
Q 2931 909 2931 1356 
Q 2931 1769 2642 2001 
Q 2353 2234 1838 2234 
L 1294 2234 
L 1294 2753 
L 1863 2753 
Q 2328 2753 2575 2939 
Q 2822 3125 2822 3475 
Q 2822 3834 2567 4026 
Q 2313 4219 1838 4219 
Q 1578 4219 1281 4162 
Q 984 4106 628 3988 
L 628 4550 
Q 988 4650 1302 4700 
Q 1616 4750 1894 4750 
Q 2613 4750 3031 4423 
Q 3450 4097 3450 3541 
Q 3450 3153 3228 2886 
Q 3006 2619 2597 2516 
z
" transform="scale(0.015625)"/>
       </defs>
       <use xlink:href="#DejaVuSans-33"/>
       <use xlink:href="#DejaVuSans-30" x="63.623047"/>
       <use xlink:href="#DejaVuSans-30" x="127.246094"/>
      </g>
     </g>
    </g>
    <g id="ytick_6">
     <g id="line2d_12">
      <g>
       <use xlink:href="#mf5a09b8935" x="180" y="528.029412" style="stroke: #000000; stroke-width: 0.8"/>
      </g>
     </g>
     <g id="text_12">
      <!-- 320 -->
      <g transform="translate(153.9125 531.82863) scale(0.1 -0.1)">
       <use xlink:href="#DejaVuSans-33"/>
       <use xlink:href="#DejaVuSans-32" x="63.623047"/>
       <use xlink:href="#DejaVuSans-30" x="127.246094"/>
      </g>
     </g>
    </g>
    <g id="ytick_7">
     <g id="line2d_13">
      <g>
       <use xlink:href="#mf5a09b8935" x="180" y="496.053885" style="stroke: #000000; stroke-width: 0.8"/>
      </g>
     </g>
     <g id="text_13">
      <!-- 340 -->
      <g transform="translate(153.9125 499.853104) scale(0.1 -0.1)">
       <use xlink:href="#DejaVuSans-33"/>
       <use xlink:href="#DejaVuSans-34" x="63.623047"/>
       <use xlink:href="#DejaVuSans-30" x="127.246094"/>
      </g>
     </g>
    </g>
    <g id="ytick_8">
     <g id="line2d_14">
      <g>
       <use xlink:href="#mf5a09b8935" x="180" y="464.078359" style="stroke: #000000; stroke-width: 0.8"/>
      </g>
     </g>
     <g id="text_14">
      <!-- 360 -->
      <g transform="translate(153.9125 467.877578) scale(0.1 -0.1)">
       <use xlink:href="#DejaVuSans-33"/>
       <use xlink:href="#DejaVuSans-36" x="63.623047"/>
       <use xlink:href="#DejaVuSans-30" x="127.246094"/>
      </g>
     </g>
    </g>
    <g id="ytick_9">
     <g id="line2d_15">
      <g>
       <use xlink:href="#mf5a09b8935" x="180" y="432.102833" style="stroke: #000000; stroke-width: 0.8"/>
      </g>
     </g>
     <g id="text_15">
      <!-- 380 -->
      <g transform="translate(153.9125 435.902051) scale(0.1 -0.1)">
       <use xlink:href="#DejaVuSans-33"/>
       <use xlink:href="#DejaVuSans-38" x="63.623047"/>
       <use xlink:href="#DejaVuSans-30" x="127.246094"/>
      </g>
     </g>
    </g>
   </g>
   <g id="LineCollection_1">
    <path d="M 255.481856 659.833921 
L 269.552231 653.909446 
L 283.209431 647.640388 
L 296.454361 641.046787 
L 309.291346 634.156309 
L 321.72812 627.002825 
L 333.775585 619.625083 
L 345.447381 612.065513 
L 356.759325 604.369201 
L 367.728794 596.58305 
L 378.374101 588.755084 
L 388.7139 580.933885 
L 408.550187 565.506076 
L 436.555989 543.527505 
L 445.469836 536.703783 
L 454.186245 530.206185 
L 462.714291 524.072307 
L 471.061394 518.335993 
L 479.233648 513.02666 
L 487.23637 508.168609 
L 495.074916 503.7804 
L 502.755789 499.874396 
L 510.28799 496.456616 
L 517.684507 493.52706 
L 524.963721 491.080648 
L 532.150418 489.108792 
L 539.276049 487.601511 
L 546.377968 486.549755 
L 553.497591 485.947492 
L 560.677668 485.793065 
L 567.959178 486.089505 
L 575.378439 486.843731 
L 582.964957 488.064893 
L 590.740303 489.762294 
L 598.718019 491.943327 
L 606.90433 494.611801 
L 615.299346 497.766791 
L 623.898454 501.402059 
L 632.693657 505.505932 
L 641.674739 510.061519 
L 650.8302 515.047132 
L 660.147949 520.436812 
L 669.615809 526.200882 
L 679.221854 532.306492 
L 688.954629 538.71812 
L 698.803303 545.398028 
L 718.808624 559.403088 
L 780.857961 603.614985 
L 791.437004 610.841763 
L 802.075273 617.909057 
L 812.773845 624.773581 
L 823.535278 631.39223 
L 834.363607 637.721947 
L 845.264229 643.719509 
L 856.243641 649.341233 
L 867.308958 654.542624 
L 878.467148 659.27802 
L 889.723904 663.500339 
L 901.08216 667.161068 
L 912.540281 670.210716 
L 924.090146 672.599926 
L 935.715474 674.281425 
L 947.390914 675.212772 
L 959.082414 675.359617 
L 970.749229 674.698862 
L 982.347466 673.220943 
L 993.834603 670.930563 
L 1005.173986 667.845609 
L 1016.338339 663.994552 
L 1027.311647 659.41303 
L 1038.089315 654.140457 
L 1048.676949 648.2173 
L 1059.088369 641.683321 
L 1069.343379 634.576766 
L 1079.465737 626.934293 
L 1089.481494 618.791349 
L 1099.417793 610.182773 
L 1109.302053 601.143417 
L 1119.161492 591.708692 
L 1129.022863 581.914986 
L 1138.912368 571.799917 
L 1158.785841 550.860974 
L 1200.337026 506.530984 
L 1211.1535 495.284642 
L 1222.195323 484.053326 
L 1233.4875 472.877946 
L 1245.272727 461.589407 
L 1245.272727 461.589407 
" clip-path="url(#pf5f39de921)" style="fill: none; stroke: #1f77b4; stroke-width: 1.5"/>
    <path d="M 243.104564 630.351096 
L 256.243644 624.835131 
L 268.988812 619.00111 
L 281.358596 612.858986 
L 293.372127 606.42523 
L 305.049009 599.722034 
L 316.409192 592.77657 
L 327.47285 585.620277 
L 338.260272 578.288187 
L 348.791754 570.818291 
L 359.087503 563.250939 
L 369.16754 555.628271 
L 379.051618 547.993691 
L 388.759139 540.391364 
L 398.309085 532.865758 
L 407.719942 525.461205 
L 417.009646 518.2215 
L 426.195522 511.189535 
L 435.294234 504.406951 
L 444.321741 497.913831 
L 453.293252 491.74841 
L 462.223197 485.946823 
L 471.125191 480.542868 
L 480.012012 475.56781 
L 488.895578 471.050193 
L 497.786933 467.015688 
L 506.696232 463.486961 
L 515.632734 460.483564 
L 524.604798 458.021847 
L 533.619887 456.114889 
L 542.684566 454.77246 
L 551.804513 454.000985 
L 560.984529 453.803544 
L 570.228553 454.179881 
L 579.539682 455.126429 
L 588.920186 456.63636 
L 598.371538 458.699642 
L 607.894436 461.303114 
L 617.488836 464.430579 
L 627.153979 468.062905 
L 636.888431 472.178139 
L 646.690114 476.75164 
L 656.556348 481.756213 
L 666.48389 487.162264 
L 676.468976 492.937952 
L 686.507364 499.049362 
L 696.594383 505.46068 
L 706.724977 512.134376 
L 716.893751 519.031394 
L 727.095026 526.111347 
L 737.322882 533.332718 
L 747.571215 540.653064 
L 757.833787 548.029229 
L 768.104273 555.417546 
L 778.376323 562.774059 
L 788.643605 570.054732 
L 798.899864 577.215666 
L 809.138974 584.213309 
L 819.354988 591.004675 
L 829.542193 597.547549 
L 839.69516 603.8007 
L 849.808797 609.724083 
L 859.878399 615.279039 
L 869.899695 620.428494 
L 879.868901 625.137146 
L 889.782763 629.371648 
L 899.638607 633.100784 
L 909.434381 636.29564 
L 919.168699 638.929757 
L 928.840881 640.979287 
L 938.450996 642.423126 
L 947.999894 643.243045 
L 957.489247 643.423805 
L 966.921575 642.953258 
L 976.300285 641.822442 
L 985.629692 640.025649 
L 994.915045 637.56049 
L 1004.162553 634.427941 
L 1013.3794 630.632363 
L 1022.573765 626.181523 
L 1031.754831 621.086576 
L 1040.932796 615.362047 
L 1050.118878 609.025781 
L 1059.325321 602.098876 
L 1068.565385 594.605595 
L 1077.853349 586.573261 
L 1087.204494 578.032117 
L 1096.635093 569.015177 
L 1106.16239 559.55804 
L 1115.804577 549.698689 
L 1125.580767 539.477259 
L 1135.51096 528.935777 
L 1145.616006 518.11788 
L 1155.917559 507.0685 
L 1166.438032 495.833521 
L 1177.200543 484.45941 
L 1188.228852 472.992814 
L 1199.547302 461.480124 
L 1211.18074 449.967014 
L 1223.154447 438.497938 
" clip-path="url(#pf5f39de921)" style="fill: none; stroke: #8c564b; stroke-width: 1.5"/>
    <path d="M 230.727273 600.868271 
L 243.397456 595.549156 
L 255.220771 590.137107 
L 266.696927 584.438708 
L 277.861271 578.459726 
L 288.746734 572.210851 
L 299.383695 565.707555 
L 309.800087 558.969932 
L 320.021661 552.022442 
L 330.072372 544.893555 
L 339.974795 537.615295 
L 349.750553 530.222728 
L 369.006051 515.24674 
L 397.57308 492.831459 
L 407.085035 485.553163 
L 416.623444 478.448603 
L 426.211657 471.561239 
L 435.873034 464.934789 
L 445.630455 458.613414 
L 455.505573 452.641939 
L 465.51781 447.066014 
L 475.683067 441.932091 
L 486.012248 437.287064 
L 496.509735 433.177399 
L 507.172111 429.647674 
L 517.987457 426.738543 
L 528.935576 424.484342 
L 539.989317 422.910729 
L 551.116953 422.032852 
L 562.285217 421.854483 
L 573.462446 422.368307 
L 584.621208 423.557261 
L 595.740003 425.396572 
L 606.803901 427.856012 
L 617.804233 430.90196 
L 628.737629 434.499009 
L 639.604742 438.611032 
L 650.408916 443.201756 
L 661.154992 448.23495 
L 671.848333 453.674378 
L 682.494093 459.483613 
L 693.09671 465.625816 
L 703.659587 472.063522 
L 714.184905 478.758473 
L 724.673539 485.671508 
L 735.125046 492.762512 
L 755.908461 507.313292 
L 817.073819 550.906594 
L 827.011644 557.698333 
L 836.846918 564.236591 
L 846.567743 570.479927 
L 856.161303 576.388542 
L 865.613946 581.924792 
L 874.911338 587.053754 
L 884.038752 591.743887 
L 892.98153 595.967737 
L 901.725797 599.70267 
L 910.259495 602.931548 
L 918.573784 605.643223 
L 926.664781 607.832656 
L 934.535527 609.500463 
L 942.197897 610.65167 
L 949.674002 611.293608 
L 956.996568 611.433093 
L 964.207828 611.073348 
L 971.356768 610.211381 
L 978.495098 608.836577 
L 985.672716 606.930999 
L 992.933683 604.471381 
L 1000.313554 601.432286 
L 1007.838402 597.789631 
L 1015.525424 593.52379 
L 1023.38461 588.621817 
L 1031.420905 583.078638 
L 1039.636359 576.89735 
L 1048.031983 570.088873 
L 1056.609165 562.671231 
L 1065.37065 554.66867 
L 1074.321158 546.110762 
L 1083.467706 537.03157 
L 1092.819734 527.468914 
L 1112.189974 507.059526 
L 1154.154274 462.294037 
L 1165.427206 450.575874 
L 1177.055033 438.752781 
L 1189.062459 426.875545 
L 1201.036166 415.406469 
L 1201.036166 415.406469 
" clip-path="url(#pf5f39de921)" style="fill: none; stroke: #17becf; stroke-width: 1.5"/>
   </g>
   <g id="patch_3">
    <path d="M 180 688.392884 
L 180 402.407116 
" style="fill: none; stroke: #000000; stroke-width: 0.8; stroke-linejoin: miter; stroke-linecap: square"/>
   </g>
   <g id="patch_4">
    <path d="M 1296 688.392884 
L 1296 402.407116 
" style="fill: none; stroke: #000000; stroke-width: 0.8; stroke-linejoin: miter; stroke-linecap: square"/>
   </g>
   <g id="patch_5">
    <path d="M 180 688.392884 
L 1296 688.392884 
" style="fill: none; stroke: #000000; stroke-width: 0.8; stroke-linejoin: miter; stroke-linecap: square"/>
   </g>
   <g id="patch_6">
    <path d="M 180 402.407116 
L 1296 402.407116 
" style="fill: none; stroke: #000000; stroke-width: 0.8; stroke-linejoin: miter; stroke-linecap: square"/>
   </g>
  </g>
 </g>
 <defs>
  <clipPath id="pf5f39de921">
   <rect x="180" y="402.407116" width="1116" height="285.985769"/>
  </clipPath>
 </defs>
</svg>
