<?xml version="1.0" encoding="utf-8" standalone="no"?>
<!DOCTYPE svg PUBLIC "-//W3C//DTD SVG 1.1//EN"
  "http://www.w3.org/Graphics/SVG/1.1/DTD/svg11.dtd">
<svg xmlns:xlink="http://www.w3.org/1999/xlink" width="1440pt" height="1080pt" viewBox="0 0 1440 1080" xmlns="http://www.w3.org/2000/svg" version="1.1">
 <metadata>
  <rdf:RDF xmlns:dc="http://purl.org/dc/elements/1.1/" xmlns:cc="http://creativecommons.org/ns#" xmlns:rdf="http://www.w3.org/1999/02/22-rdf-syntax-ns#">
   <cc:Work>
    <dc:type rdf:resource="http://purl.org/dc/dcmitype/StillImage"/>
    <dc:date>2023-12-11T12:06:37.154414</dc:date>
    <dc:format>image/svg+xml</dc:format>
    <dc:creator>
     <cc:Agent>
      <dc:title>Matplotlib v3.7.1, https://matplotlib.org/</dc:title>
     </cc:Agent>
    </dc:creator>
   </cc:Work>
  </rdf:RDF>
 </metadata>
 <defs>
  <style type="text/css">*{stroke-linejoin: round; stroke-linecap: butt}</style>
 </defs>
 <g id="figure_1">
  <g id="patch_1">
   <path d="M 0 1080 
L 1440 1080 
L 1440 0 
L 0 0 
z
" style="fill: #ffffff"/>
  </g>
  <g id="axes_1">
   <g id="patch_2">
    <path d="M 653.220426 961.2 
L 822.779574 961.2 
L 822.779574 129.6 
L 653.220426 129.6 
z
" style="fill: #ffffff"/>
   </g>
   <g id="matplotlib.axis_1">
    <g id="xtick_1">
     <g id="line2d_1">
      <defs>
       <path id="mc6a7880371" d="M 0 0 
L 0 3.5 
" style="stroke: #000000; stroke-width: 0.8"/>
      </defs>
      <g>
       <use xlink:href="#mc6a7880371" x="670.049891" y="961.2" style="stroke: #000000; stroke-width: 0.8"/>
      </g>
     </g>
     <g id="text_1">
      <!-- 1550 -->
      <g transform="translate(657.324891 975.798437) scale(0.1 -0.1)">
       <defs>
        <path id="DejaVuSans-31" d="M 794 531 
L 1825 531 
L 1825 4091 
L 703 3866 
L 703 4441 
L 1819 4666 
L 2450 4666 
L 2450 531 
L 3481 531 
L 3481 0 
L 794 0 
L 794 531 
z
" transform="scale(0.015625)"/>
        <path id="DejaVuSans-35" d="M 691 4666 
L 3169 4666 
L 3169 4134 
L 1269 4134 
L 1269 2991 
Q 1406 3038 1543 3061 
Q 1681 3084 1819 3084 
Q 2600 3084 3056 2656 
Q 3513 2228 3513 1497 
Q 3513 744 3044 326 
Q 2575 -91 1722 -91 
Q 1428 -91 1123 -41 
Q 819 9 494 109 
L 494 744 
Q 775 591 1075 516 
Q 1375 441 1709 441 
Q 2250 441 2565 725 
Q 2881 1009 2881 1497 
Q 2881 1984 2565 2268 
Q 2250 2553 1709 2553 
Q 1456 2553 1204 2497 
Q 953 2441 691 2322 
L 691 4666 
z
" transform="scale(0.015625)"/>
        <path id="DejaVuSans-30" d="M 2034 4250 
Q 1547 4250 1301 3770 
Q 1056 3291 1056 2328 
Q 1056 1369 1301 889 
Q 1547 409 2034 409 
Q 2525 409 2770 889 
Q 3016 1369 3016 2328 
Q 3016 3291 2770 3770 
Q 2525 4250 2034 4250 
z
M 2034 4750 
Q 2819 4750 3233 4129 
Q 3647 3509 3647 2328 
Q 3647 1150 3233 529 
Q 2819 -91 2034 -91 
Q 1250 -91 836 529 
Q 422 1150 422 2328 
Q 422 3509 836 4129 
Q 1250 4750 2034 4750 
z
" transform="scale(0.015625)"/>
       </defs>
       <use xlink:href="#DejaVuSans-31"/>
       <use xlink:href="#DejaVuSans-35" x="63.623047"/>
       <use xlink:href="#DejaVuSans-35" x="127.246094"/>
       <use xlink:href="#DejaVuSans-30" x="190.869141"/>
      </g>
     </g>
    </g>
    <g id="xtick_2">
     <g id="line2d_2">
      <g>
       <use xlink:href="#mc6a7880371" x="710.11929" y="961.2" style="stroke: #000000; stroke-width: 0.8"/>
      </g>
     </g>
     <g id="text_2">
      <!-- 1600 -->
      <g transform="translate(697.39429 975.798437) scale(0.1 -0.1)">
       <defs>
        <path id="DejaVuSans-36" d="M 2113 2584 
Q 1688 2584 1439 2293 
Q 1191 2003 1191 1497 
Q 1191 994 1439 701 
Q 1688 409 2113 409 
Q 2538 409 2786 701 
Q 3034 994 3034 1497 
Q 3034 2003 2786 2293 
Q 2538 2584 2113 2584 
z
M 3366 4563 
L 3366 3988 
Q 3128 4100 2886 4159 
Q 2644 4219 2406 4219 
Q 1781 4219 1451 3797 
Q 1122 3375 1075 2522 
Q 1259 2794 1537 2939 
Q 1816 3084 2150 3084 
Q 2853 3084 3261 2657 
Q 3669 2231 3669 1497 
Q 3669 778 3244 343 
Q 2819 -91 2113 -91 
Q 1303 -91 875 529 
Q 447 1150 447 2328 
Q 447 3434 972 4092 
Q 1497 4750 2381 4750 
Q 2619 4750 2861 4703 
Q 3103 4656 3366 4563 
z
" transform="scale(0.015625)"/>
       </defs>
       <use xlink:href="#DejaVuSans-31"/>
       <use xlink:href="#DejaVuSans-36" x="63.623047"/>
       <use xlink:href="#DejaVuSans-30" x="127.246094"/>
       <use xlink:href="#DejaVuSans-30" x="190.869141"/>
      </g>
     </g>
    </g>
    <g id="xtick_3">
     <g id="line2d_3">
      <g>
       <use xlink:href="#mc6a7880371" x="750.188689" y="961.2" style="stroke: #000000; stroke-width: 0.8"/>
      </g>
     </g>
     <g id="text_3">
      <!-- 1650 -->
      <g transform="translate(737.463689 975.798437) scale(0.1 -0.1)">
       <use xlink:href="#DejaVuSans-31"/>
       <use xlink:href="#DejaVuSans-36" x="63.623047"/>
       <use xlink:href="#DejaVuSans-35" x="127.246094"/>
       <use xlink:href="#DejaVuSans-30" x="190.869141"/>
      </g>
     </g>
    </g>
    <g id="xtick_4">
     <g id="line2d_4">
      <g>
       <use xlink:href="#mc6a7880371" x="790.258088" y="961.2" style="stroke: #000000; stroke-width: 0.8"/>
      </g>
     </g>
     <g id="text_4">
      <!-- 1700 -->
      <g transform="translate(777.533088 975.798437) scale(0.1 -0.1)">
       <defs>
        <path id="DejaVuSans-37" d="M 525 4666 
L 3525 4666 
L 3525 4397 
L 1831 0 
L 1172 0 
L 2766 4134 
L 525 4134 
L 525 4666 
z
" transform="scale(0.015625)"/>
       </defs>
       <use xlink:href="#DejaVuSans-31"/>
       <use xlink:href="#DejaVuSans-37" x="63.623047"/>
       <use xlink:href="#DejaVuSans-30" x="127.246094"/>
       <use xlink:href="#DejaVuSans-30" x="190.869141"/>
      </g>
     </g>
    </g>
   </g>
   <g id="matplotlib.axis_2">
    <g id="ytick_1">
     <g id="line2d_5">
      <defs>
       <path id="mea70c09851" d="M 0 0 
L -3.5 0 
" style="stroke: #000000; stroke-width: 0.8"/>
      </defs>
      <g>
       <use xlink:href="#mea70c09851" x="653.220426" y="939.204019" style="stroke: #000000; stroke-width: 0.8"/>
      </g>
     </g>
     <g id="text_5">
      <!-- 200 -->
      <g transform="translate(627.132926 943.003237) scale(0.1 -0.1)">
       <defs>
        <path id="DejaVuSans-32" d="M 1228 531 
L 3431 531 
L 3431 0 
L 469 0 
L 469 531 
Q 828 903 1448 1529 
Q 2069 2156 2228 2338 
Q 2531 2678 2651 2914 
Q 2772 3150 2772 3378 
Q 2772 3750 2511 3984 
Q 2250 4219 1831 4219 
Q 1534 4219 1204 4116 
Q 875 4013 500 3803 
L 500 4441 
Q 881 4594 1212 4672 
Q 1544 4750 1819 4750 
Q 2544 4750 2975 4387 
Q 3406 4025 3406 3419 
Q 3406 3131 3298 2873 
Q 3191 2616 2906 2266 
Q 2828 2175 2409 1742 
Q 1991 1309 1228 531 
z
" transform="scale(0.015625)"/>
       </defs>
       <use xlink:href="#DejaVuSans-32"/>
       <use xlink:href="#DejaVuSans-30" x="63.623047"/>
       <use xlink:href="#DejaVuSans-30" x="127.246094"/>
      </g>
     </g>
    </g>
    <g id="ytick_2">
     <g id="line2d_6">
      <g>
       <use xlink:href="#mea70c09851" x="653.220426" y="778.926423" style="stroke: #000000; stroke-width: 0.8"/>
      </g>
     </g>
     <g id="text_6">
      <!-- 400 -->
      <g transform="translate(627.132926 782.725641) scale(0.1 -0.1)">
       <defs>
        <path id="DejaVuSans-34" d="M 2419 4116 
L 825 1625 
L 2419 1625 
L 2419 4116 
z
M 2253 4666 
L 3047 4666 
L 3047 1625 
L 3713 1625 
L 3713 1100 
L 3047 1100 
L 3047 0 
L 2419 0 
L 2419 1100 
L 313 1100 
L 313 1709 
L 2253 4666 
z
" transform="scale(0.015625)"/>
       </defs>
       <use xlink:href="#DejaVuSans-34"/>
       <use xlink:href="#DejaVuSans-30" x="63.623047"/>
       <use xlink:href="#DejaVuSans-30" x="127.246094"/>
      </g>
     </g>
    </g>
    <g id="ytick_3">
     <g id="line2d_7">
      <g>
       <use xlink:href="#mea70c09851" x="653.220426" y="618.648826" style="stroke: #000000; stroke-width: 0.8"/>
      </g>
     </g>
     <g id="text_7">
      <!-- 600 -->
      <g transform="translate(627.132926 622.448045) scale(0.1 -0.1)">
       <use xlink:href="#DejaVuSans-36"/>
       <use xlink:href="#DejaVuSans-30" x="63.623047"/>
       <use xlink:href="#DejaVuSans-30" x="127.246094"/>
      </g>
     </g>
    </g>
    <g id="ytick_4">
     <g id="line2d_8">
      <g>
       <use xlink:href="#mea70c09851" x="653.220426" y="458.37123" style="stroke: #000000; stroke-width: 0.8"/>
      </g>
     </g>
     <g id="text_8">
      <!-- 800 -->
      <g transform="translate(627.132926 462.170449) scale(0.1 -0.1)">
       <defs>
        <path id="DejaVuSans-38" d="M 2034 2216 
Q 1584 2216 1326 1975 
Q 1069 1734 1069 1313 
Q 1069 891 1326 650 
Q 1584 409 2034 409 
Q 2484 409 2743 651 
Q 3003 894 3003 1313 
Q 3003 1734 2745 1975 
Q 2488 2216 2034 2216 
z
M 1403 2484 
Q 997 2584 770 2862 
Q 544 3141 544 3541 
Q 544 4100 942 4425 
Q 1341 4750 2034 4750 
Q 2731 4750 3128 4425 
Q 3525 4100 3525 3541 
Q 3525 3141 3298 2862 
Q 3072 2584 2669 2484 
Q 3125 2378 3379 2068 
Q 3634 1759 3634 1313 
Q 3634 634 3220 271 
Q 2806 -91 2034 -91 
Q 1263 -91 848 271 
Q 434 634 434 1313 
Q 434 1759 690 2068 
Q 947 2378 1403 2484 
z
M 1172 3481 
Q 1172 3119 1398 2916 
Q 1625 2713 2034 2713 
Q 2441 2713 2670 2916 
Q 2900 3119 2900 3481 
Q 2900 3844 2670 4047 
Q 2441 4250 2034 4250 
Q 1625 4250 1398 4047 
Q 1172 3844 1172 3481 
z
" transform="scale(0.015625)"/>
       </defs>
       <use xlink:href="#DejaVuSans-38"/>
       <use xlink:href="#DejaVuSans-30" x="63.623047"/>
       <use xlink:href="#DejaVuSans-30" x="127.246094"/>
      </g>
     </g>
    </g>
    <g id="ytick_5">
     <g id="line2d_9">
      <g>
       <use xlink:href="#mea70c09851" x="653.220426" y="298.093634" style="stroke: #000000; stroke-width: 0.8"/>
      </g>
     </g>
     <g id="text_9">
      <!-- 1000 -->
      <g transform="translate(620.770426 301.892853) scale(0.1 -0.1)">
       <use xlink:href="#DejaVuSans-31"/>
       <use xlink:href="#DejaVuSans-30" x="63.623047"/>
       <use xlink:href="#DejaVuSans-30" x="127.246094"/>
       <use xlink:href="#DejaVuSans-30" x="190.869141"/>
      </g>
     </g>
    </g>
    <g id="ytick_6">
     <g id="line2d_10">
      <g>
       <use xlink:href="#mea70c09851" x="653.220426" y="137.816038" style="stroke: #000000; stroke-width: 0.8"/>
      </g>
     </g>
     <g id="text_10">
      <!-- 1200 -->
      <g transform="translate(620.770426 141.615257) scale(0.1 -0.1)">
       <use xlink:href="#DejaVuSans-31"/>
       <use xlink:href="#DejaVuSans-32" x="63.623047"/>
       <use xlink:href="#DejaVuSans-30" x="127.246094"/>
       <use xlink:href="#DejaVuSans-30" x="190.869141"/>
      </g>
     </g>
    </g>
   </g>
   <g id="LineCollection_1">
    <path d="M 793.161093 923.4 
L 798.722271 911.135359 
L 802.509441 899.180096 
L 804.678625 887.57565 
L 805.401006 876.368977 
L 804.860379 865.594866 
L 803.24238 855.265737 
L 800.722712 845.371461 
L 797.459673 835.885612 
L 793.591852 826.773142 
L 789.239267 817.996478 
L 784.505921 809.519278 
L 779.482487 801.308281 
L 774.248594 793.333939 
L 768.874578 785.570393 
L 763.422796 777.995166 
L 752.501026 763.3342 
L 736.694095 742.29975 
L 726.951151 728.804968 
L 722.394507 722.191482 
L 718.071786 715.657368 
L 713.996783 709.196056 
L 710.180222 702.801451 
L 706.630025 696.467784 
L 703.351581 690.189457 
L 700.348033 683.960923 
L 697.620567 677.776567 
L 695.168712 671.630637 
L 692.990649 665.517191 
L 691.083498 659.430102 
L 689.44361 653.363084 
L 688.066809 647.309773 
L 686.948614 641.263825 
L 686.084408 635.219036 
L 685.469556 629.169467 
L 685.099485 623.109563 
L 684.969713 617.034242 
L 685.07585 610.938968 
L 685.413576 604.819788 
L 685.978607 598.673332 
L 686.766654 592.496795 
L 687.773381 586.287895 
L 688.994378 580.044807 
L 690.425127 573.766103 
L 692.060985 567.450677 
L 693.897169 561.097674 
L 695.928739 554.706428 
L 698.150589 548.276403 
L 700.557435 541.807139 
L 703.143791 535.298209 
L 705.903955 528.749187 
L 708.831972 522.159611 
L 711.921606 515.528964 
L 715.166295 508.856652 
L 722.092644 495.384193 
L 729.549892 481.735442 
L 737.467703 467.901619 
L 745.76389 453.871636 
L 776.231418 402.939017 
L 784.651846 387.933176 
L 788.845139 380.057939 
L 792.80719 372.257623 
L 796.593912 364.359591 
L 800.167852 356.355941 
L 803.487534 348.237957 
L 806.506837 339.996288 
L 809.174284 331.621377 
L 811.432302 323.104223 
L 813.216591 314.437646 
L 814.455867 305.618074 
L 815.07234 296.6478 
L 814.98333 287.537241 
L 814.104174 278.306429 
L 812.352019 268.984669 
L 809.64937 259.607652 
L 805.925824 250.212305 
L 801.116933 240.830878 
L 795.160403 231.486341 
L 787.991074 222.190482 
L 779.536453 212.944789 
L 769.713886 203.743063 
L 758.429531 194.574514 
L 745.578634 185.426423 
L 731.046468 176.286013 
L 715.196313 167.4 
L 715.196313 167.4 
" clip-path="url(#p035eda245d)" style="fill: none; stroke: #1f77b4; stroke-width: 1.5"/>
    <path d="M 782.244208 918.367931 
L 787.288691 907.424113 
L 790.709981 896.883827 
L 792.688503 886.717123 
L 793.391737 876.895819 
L 792.974871 867.39342 
L 791.581429 858.185042 
L 789.343886 849.247337 
L 786.384252 840.55842 
L 782.814649 832.097802 
L 778.737863 823.846317 
L 774.247872 815.786059 
L 769.430367 807.900321 
L 764.363243 800.173526 
L 759.117081 792.591174 
L 753.755605 785.139781 
L 748.336125 777.806826 
L 742.909965 770.580693 
L 737.522866 763.450623 
L 732.21538 756.406663 
L 727.023245 749.439617 
L 721.977742 742.540999 
L 717.106036 735.702993 
L 712.431503 728.918404 
L 707.974042 722.180621 
L 703.750369 715.483578 
L 699.774295 708.821711 
L 696.056997 702.18993 
L 692.607264 695.583578 
L 689.431734 688.998401 
L 686.535121 682.430516 
L 683.920417 675.876379 
L 681.589094 669.332763 
L 679.541283 662.796722 
L 677.775941 656.265572 
L 676.291013 649.736864 
L 675.08357 643.208363 
L 674.149946 636.678022 
L 673.485854 630.143969 
L 673.086495 623.604479 
L 672.946658 617.057964 
L 673.0608 610.502951 
L 673.423125 603.93807 
L 674.027647 597.362035 
L 674.868242 590.773637 
L 675.938693 584.171724 
L 677.232726 577.555198 
L 678.744027 570.922996 
L 680.466266 564.274088 
L 682.393094 557.607464 
L 684.518146 550.922127 
L 686.835026 544.217088 
L 689.337287 537.49136 
L 692.018405 530.743949 
L 694.871742 523.973854 
L 697.8905 517.180063 
L 701.067674 510.361547 
L 704.395994 503.51726 
L 707.867856 496.646136 
L 711.475257 489.74709 
L 715.209714 482.819016 
L 719.062182 475.860786 
L 723.022965 468.871252 
L 727.08162 461.849248 
L 731.226861 454.793588 
L 735.446452 447.703071 
L 739.727097 440.576483 
L 744.054328 433.412597 
L 748.412388 426.210178 
L 752.784106 418.967985 
L 757.150775 411.684776 
L 761.492023 404.359311 
L 765.785677 396.990352 
L 770.007636 389.576675 
L 774.131724 382.117065 
L 778.129561 374.610327 
L 781.97041 367.055287 
L 785.621045 359.450795 
L 789.045595 351.795733 
L 792.205406 344.089017 
L 795.058889 336.329599 
L 797.561373 328.516475 
L 799.664955 320.648687 
L 801.318353 312.725324 
L 802.466756 304.745532 
L 803.051673 296.70851 
L 803.01079 288.613517 
L 802.277815 280.459874 
L 800.782338 272.246966 
L 798.449683 263.974243 
L 795.200763 255.641226 
L 790.951941 247.2475 
L 785.614888 238.792724 
L 779.096445 230.276622 
L 771.29849 221.698992 
L 762.117804 213.059696 
L 751.445946 204.358667 
L 739.169119 195.595899 
L 725.168057 186.77145 
L 709.317902 177.885437 
" clip-path="url(#p035eda245d)" style="fill: none; stroke: #8c564b; stroke-width: 1.5"/>
    <path d="M 771.327322 913.335862 
L 776.07443 903.037188 
L 779.050373 893.868927 
L 780.750266 885.133963 
L 781.352056 876.729423 
L 780.993641 868.559411 
L 779.781527 860.549315 
L 777.804139 852.650784 
L 775.142985 844.838147 
L 771.878615 837.100984 
L 768.092078 829.43697 
L 763.863959 821.846814 
L 759.272678 814.33138 
L 754.392971 806.890374 
L 749.294821 799.521947 
L 744.042866 792.222767 
L 733.308181 777.812993 
L 717.320561 756.535955 
L 707.20728 742.523164 
L 702.406019 735.550883 
L 697.806436 728.5931 
L 693.428242 721.644244 
L 689.288418 714.699337 
L 685.401467 707.754081 
L 681.779629 700.804922 
L 678.433064 693.849109 
L 675.369991 686.884726 
L 672.596796 679.910695 
L 670.118113 672.926744 
L 667.936898 665.933337 
L 666.054484 658.93157 
L 664.470659 651.923032 
L 663.183749 644.909646 
L 662.190736 637.893504 
L 661.487387 630.8767 
L 661.068417 623.861192 
L 660.92766 616.848678 
L 661.058247 609.840513 
L 661.452778 602.83766 
L 662.103489 595.840666 
L 663.002388 588.849676 
L 664.141379 581.864455 
L 665.512352 574.884438 
L 667.107251 567.908771 
L 668.918116 560.936372 
L 670.937105 553.965976 
L 673.156495 546.996187 
L 675.568667 540.025516 
L 678.166077 533.052422 
L 680.941215 526.075335 
L 683.886555 519.092688 
L 686.994498 512.102933 
L 690.257303 505.104554 
L 693.667014 498.096088 
L 700.822787 484.177083 
L 704.693159 476.996459 
L 712.615518 462.855841 
L 720.896845 448.64616 
L 733.764918 427.197443 
L 746.825174 405.529859 
L 755.369383 390.989981 
L 763.566023 376.383398 
L 767.465814 369.060759 
L 771.192835 361.729623 
L 774.714245 354.394313 
L 777.995283 347.060052 
L 780.999439 339.732975 
L 783.688736 332.420025 
L 786.024101 325.12867 
L 787.965809 317.866323 
L 789.473891 310.63934 
L 790.50832 303.451503 
L 791.028647 296.301981 
L 790.992693 289.183029 
L 790.353987 282.078042 
L 789.058041 274.960919 
L 787.03822 267.79766 
L 784.212653 260.550481 
L 780.483565 253.183512 
L 775.739551 245.668209 
L 769.859885 237.986646 
L 762.719168 230.131966 
L 754.190793 222.106514 
L 744.148617 213.91888 
L 732.467026 205.580971 
L 719.020032 197.105734 
L 703.439491 188.370874 
L 703.439491 188.370874 
" clip-path="url(#p035eda245d)" style="fill: none; stroke: #17becf; stroke-width: 1.5"/>
   </g>
   <g id="patch_3">
    <path d="M 653.220426 961.2 
L 653.220426 129.6 
" style="fill: none; stroke: #000000; stroke-width: 0.8; stroke-linejoin: miter; stroke-linecap: square"/>
   </g>
   <g id="patch_4">
    <path d="M 822.779574 961.2 
L 822.779574 129.6 
" style="fill: none; stroke: #000000; stroke-width: 0.8; stroke-linejoin: miter; stroke-linecap: square"/>
   </g>
   <g id="patch_5">
    <path d="M 653.220426 961.2 
L 822.779574 961.2 
" style="fill: none; stroke: #000000; stroke-width: 0.8; stroke-linejoin: miter; stroke-linecap: square"/>
   </g>
   <g id="patch_6">
    <path d="M 653.220426 129.6 
L 822.779574 129.6 
" style="fill: none; stroke: #000000; stroke-width: 0.8; stroke-linejoin: miter; stroke-linecap: square"/>
   </g>
  </g>
 </g>
 <defs>
  <clipPath id="p035eda245d">
   <rect x="653.220426" y="129.6" width="169.559147" height="831.6"/>
  </clipPath>
 </defs>
</svg>
