<?xml version="1.0" encoding="utf-8" standalone="no"?>
<!DOCTYPE svg PUBLIC "-//W3C//DTD SVG 1.1//EN"
  "http://www.w3.org/Graphics/SVG/1.1/DTD/svg11.dtd">
<svg xmlns:xlink="http://www.w3.org/1999/xlink" width="1440pt" height="1080pt" viewBox="0 0 1440 1080" xmlns="http://www.w3.org/2000/svg" version="1.1">
 <metadata>
  <rdf:RDF xmlns:dc="http://purl.org/dc/elements/1.1/" xmlns:cc="http://creativecommons.org/ns#" xmlns:rdf="http://www.w3.org/1999/02/22-rdf-syntax-ns#">
   <cc:Work>
    <dc:type rdf:resource="http://purl.org/dc/dcmitype/StillImage"/>
    <dc:date>2023-12-11T12:06:51.896423</dc:date>
    <dc:format>image/svg+xml</dc:format>
    <dc:creator>
     <cc:Agent>
      <dc:title>Matplotlib v3.7.1, https://matplotlib.org/</dc:title>
     </cc:Agent>
    </dc:creator>
   </cc:Work>
  </rdf:RDF>
 </metadata>
 <defs>
  <style type="text/css">*{stroke-linejoin: round; stroke-linecap: butt}</style>
 </defs>
 <g id="figure_1">
  <g id="patch_1">
   <path d="M 0 1080 
L 1440 1080 
L 1440 0 
L 0 0 
z
" style="fill: #ffffff"/>
  </g>
  <g id="axes_1">
   <g id="patch_2">
    <path d="M 180 919.361366 
L 1296 919.361366 
L 1296 171.438634 
L 180 171.438634 
z
" style="fill: #ffffff"/>
   </g>
   <g id="matplotlib.axis_1">
    <g id="xtick_1">
     <g id="line2d_1">
      <defs>
       <path id="m934f59c1f8" d="M 0 0 
L 0 3.5 
" style="stroke: #000000; stroke-width: 0.8"/>
      </defs>
      <g>
       <use xlink:href="#m934f59c1f8" x="256.465481" y="919.361366" style="stroke: #000000; stroke-width: 0.8"/>
      </g>
     </g>
     <g id="text_1">
      <!-- 400 -->
      <g transform="translate(246.921731 933.959803) scale(0.1 -0.1)">
       <defs>
        <path id="DejaVuSans-34" d="M 2419 4116 
L 825 1625 
L 2419 1625 
L 2419 4116 
z
M 2253 4666 
L 3047 4666 
L 3047 1625 
L 3713 1625 
L 3713 1100 
L 3047 1100 
L 3047 0 
L 2419 0 
L 2419 1100 
L 313 1100 
L 313 1709 
L 2253 4666 
z
" transform="scale(0.015625)"/>
        <path id="DejaVuSans-30" d="M 2034 4250 
Q 1547 4250 1301 3770 
Q 1056 3291 1056 2328 
Q 1056 1369 1301 889 
Q 1547 409 2034 409 
Q 2525 409 2770 889 
Q 3016 1369 3016 2328 
Q 3016 3291 2770 3770 
Q 2525 4250 2034 4250 
z
M 2034 4750 
Q 2819 4750 3233 4129 
Q 3647 3509 3647 2328 
Q 3647 1150 3233 529 
Q 2819 -91 2034 -91 
Q 1250 -91 836 529 
Q 422 1150 422 2328 
Q 422 3509 836 4129 
Q 1250 4750 2034 4750 
z
" transform="scale(0.015625)"/>
       </defs>
       <use xlink:href="#DejaVuSans-34"/>
       <use xlink:href="#DejaVuSans-30" x="63.623047"/>
       <use xlink:href="#DejaVuSans-30" x="127.246094"/>
      </g>
     </g>
    </g>
    <g id="xtick_2">
     <g id="line2d_2">
      <g>
       <use xlink:href="#m934f59c1f8" x="382.006909" y="919.361366" style="stroke: #000000; stroke-width: 0.8"/>
      </g>
     </g>
     <g id="text_2">
      <!-- 500 -->
      <g transform="translate(372.463159 933.959803) scale(0.1 -0.1)">
       <defs>
        <path id="DejaVuSans-35" d="M 691 4666 
L 3169 4666 
L 3169 4134 
L 1269 4134 
L 1269 2991 
Q 1406 3038 1543 3061 
Q 1681 3084 1819 3084 
Q 2600 3084 3056 2656 
Q 3513 2228 3513 1497 
Q 3513 744 3044 326 
Q 2575 -91 1722 -91 
Q 1428 -91 1123 -41 
Q 819 9 494 109 
L 494 744 
Q 775 591 1075 516 
Q 1375 441 1709 441 
Q 2250 441 2565 725 
Q 2881 1009 2881 1497 
Q 2881 1984 2565 2268 
Q 2250 2553 1709 2553 
Q 1456 2553 1204 2497 
Q 953 2441 691 2322 
L 691 4666 
z
" transform="scale(0.015625)"/>
       </defs>
       <use xlink:href="#DejaVuSans-35"/>
       <use xlink:href="#DejaVuSans-30" x="63.623047"/>
       <use xlink:href="#DejaVuSans-30" x="127.246094"/>
      </g>
     </g>
    </g>
    <g id="xtick_3">
     <g id="line2d_3">
      <g>
       <use xlink:href="#m934f59c1f8" x="507.548336" y="919.361366" style="stroke: #000000; stroke-width: 0.8"/>
      </g>
     </g>
     <g id="text_3">
      <!-- 600 -->
      <g transform="translate(498.004586 933.959803) scale(0.1 -0.1)">
       <defs>
        <path id="DejaVuSans-36" d="M 2113 2584 
Q 1688 2584 1439 2293 
Q 1191 2003 1191 1497 
Q 1191 994 1439 701 
Q 1688 409 2113 409 
Q 2538 409 2786 701 
Q 3034 994 3034 1497 
Q 3034 2003 2786 2293 
Q 2538 2584 2113 2584 
z
M 3366 4563 
L 3366 3988 
Q 3128 4100 2886 4159 
Q 2644 4219 2406 4219 
Q 1781 4219 1451 3797 
Q 1122 3375 1075 2522 
Q 1259 2794 1537 2939 
Q 1816 3084 2150 3084 
Q 2853 3084 3261 2657 
Q 3669 2231 3669 1497 
Q 3669 778 3244 343 
Q 2819 -91 2113 -91 
Q 1303 -91 875 529 
Q 447 1150 447 2328 
Q 447 3434 972 4092 
Q 1497 4750 2381 4750 
Q 2619 4750 2861 4703 
Q 3103 4656 3366 4563 
z
" transform="scale(0.015625)"/>
       </defs>
       <use xlink:href="#DejaVuSans-36"/>
       <use xlink:href="#DejaVuSans-30" x="63.623047"/>
       <use xlink:href="#DejaVuSans-30" x="127.246094"/>
      </g>
     </g>
    </g>
    <g id="xtick_4">
     <g id="line2d_4">
      <g>
       <use xlink:href="#m934f59c1f8" x="633.089764" y="919.361366" style="stroke: #000000; stroke-width: 0.8"/>
      </g>
     </g>
     <g id="text_4">
      <!-- 700 -->
      <g transform="translate(623.546014 933.959803) scale(0.1 -0.1)">
       <defs>
        <path id="DejaVuSans-37" d="M 525 4666 
L 3525 4666 
L 3525 4397 
L 1831 0 
L 1172 0 
L 2766 4134 
L 525 4134 
L 525 4666 
z
" transform="scale(0.015625)"/>
       </defs>
       <use xlink:href="#DejaVuSans-37"/>
       <use xlink:href="#DejaVuSans-30" x="63.623047"/>
       <use xlink:href="#DejaVuSans-30" x="127.246094"/>
      </g>
     </g>
    </g>
    <g id="xtick_5">
     <g id="line2d_5">
      <g>
       <use xlink:href="#m934f59c1f8" x="758.631192" y="919.361366" style="stroke: #000000; stroke-width: 0.8"/>
      </g>
     </g>
     <g id="text_5">
      <!-- 800 -->
      <g transform="translate(749.087442 933.959803) scale(0.1 -0.1)">
       <defs>
        <path id="DejaVuSans-38" d="M 2034 2216 
Q 1584 2216 1326 1975 
Q 1069 1734 1069 1313 
Q 1069 891 1326 650 
Q 1584 409 2034 409 
Q 2484 409 2743 651 
Q 3003 894 3003 1313 
Q 3003 1734 2745 1975 
Q 2488 2216 2034 2216 
z
M 1403 2484 
Q 997 2584 770 2862 
Q 544 3141 544 3541 
Q 544 4100 942 4425 
Q 1341 4750 2034 4750 
Q 2731 4750 3128 4425 
Q 3525 4100 3525 3541 
Q 3525 3141 3298 2862 
Q 3072 2584 2669 2484 
Q 3125 2378 3379 2068 
Q 3634 1759 3634 1313 
Q 3634 634 3220 271 
Q 2806 -91 2034 -91 
Q 1263 -91 848 271 
Q 434 634 434 1313 
Q 434 1759 690 2068 
Q 947 2378 1403 2484 
z
M 1172 3481 
Q 1172 3119 1398 2916 
Q 1625 2713 2034 2713 
Q 2441 2713 2670 2916 
Q 2900 3119 2900 3481 
Q 2900 3844 2670 4047 
Q 2441 4250 2034 4250 
Q 1625 4250 1398 4047 
Q 1172 3844 1172 3481 
z
" transform="scale(0.015625)"/>
       </defs>
       <use xlink:href="#DejaVuSans-38"/>
       <use xlink:href="#DejaVuSans-30" x="63.623047"/>
       <use xlink:href="#DejaVuSans-30" x="127.246094"/>
      </g>
     </g>
    </g>
    <g id="xtick_6">
     <g id="line2d_6">
      <g>
       <use xlink:href="#m934f59c1f8" x="884.17262" y="919.361366" style="stroke: #000000; stroke-width: 0.8"/>
      </g>
     </g>
     <g id="text_6">
      <!-- 900 -->
      <g transform="translate(874.62887 933.959803) scale(0.1 -0.1)">
       <defs>
        <path id="DejaVuSans-39" d="M 703 97 
L 703 672 
Q 941 559 1184 500 
Q 1428 441 1663 441 
Q 2288 441 2617 861 
Q 2947 1281 2994 2138 
Q 2813 1869 2534 1725 
Q 2256 1581 1919 1581 
Q 1219 1581 811 2004 
Q 403 2428 403 3163 
Q 403 3881 828 4315 
Q 1253 4750 1959 4750 
Q 2769 4750 3195 4129 
Q 3622 3509 3622 2328 
Q 3622 1225 3098 567 
Q 2575 -91 1691 -91 
Q 1453 -91 1209 -44 
Q 966 3 703 97 
z
M 1959 2075 
Q 2384 2075 2632 2365 
Q 2881 2656 2881 3163 
Q 2881 3666 2632 3958 
Q 2384 4250 1959 4250 
Q 1534 4250 1286 3958 
Q 1038 3666 1038 3163 
Q 1038 2656 1286 2365 
Q 1534 2075 1959 2075 
z
" transform="scale(0.015625)"/>
       </defs>
       <use xlink:href="#DejaVuSans-39"/>
       <use xlink:href="#DejaVuSans-30" x="63.623047"/>
       <use xlink:href="#DejaVuSans-30" x="127.246094"/>
      </g>
     </g>
    </g>
    <g id="xtick_7">
     <g id="line2d_7">
      <g>
       <use xlink:href="#m934f59c1f8" x="1009.714048" y="919.361366" style="stroke: #000000; stroke-width: 0.8"/>
      </g>
     </g>
     <g id="text_7">
      <!-- 1000 -->
      <g transform="translate(996.989048 933.959803) scale(0.1 -0.1)">
       <defs>
        <path id="DejaVuSans-31" d="M 794 531 
L 1825 531 
L 1825 4091 
L 703 3866 
L 703 4441 
L 1819 4666 
L 2450 4666 
L 2450 531 
L 3481 531 
L 3481 0 
L 794 0 
L 794 531 
z
" transform="scale(0.015625)"/>
       </defs>
       <use xlink:href="#DejaVuSans-31"/>
       <use xlink:href="#DejaVuSans-30" x="63.623047"/>
       <use xlink:href="#DejaVuSans-30" x="127.246094"/>
       <use xlink:href="#DejaVuSans-30" x="190.869141"/>
      </g>
     </g>
    </g>
    <g id="xtick_8">
     <g id="line2d_8">
      <g>
       <use xlink:href="#m934f59c1f8" x="1135.255476" y="919.361366" style="stroke: #000000; stroke-width: 0.8"/>
      </g>
     </g>
     <g id="text_8">
      <!-- 1100 -->
      <g transform="translate(1122.530476 933.959803) scale(0.1 -0.1)">
       <use xlink:href="#DejaVuSans-31"/>
       <use xlink:href="#DejaVuSans-31" x="63.623047"/>
       <use xlink:href="#DejaVuSans-30" x="127.246094"/>
       <use xlink:href="#DejaVuSans-30" x="190.869141"/>
      </g>
     </g>
    </g>
    <g id="xtick_9">
     <g id="line2d_9">
      <g>
       <use xlink:href="#m934f59c1f8" x="1260.796904" y="919.361366" style="stroke: #000000; stroke-width: 0.8"/>
      </g>
     </g>
     <g id="text_9">
      <!-- 1200 -->
      <g transform="translate(1248.071904 933.959803) scale(0.1 -0.1)">
       <defs>
        <path id="DejaVuSans-32" d="M 1228 531 
L 3431 531 
L 3431 0 
L 469 0 
L 469 531 
Q 828 903 1448 1529 
Q 2069 2156 2228 2338 
Q 2531 2678 2651 2914 
Q 2772 3150 2772 3378 
Q 2772 3750 2511 3984 
Q 2250 4219 1831 4219 
Q 1534 4219 1204 4116 
Q 875 4013 500 3803 
L 500 4441 
Q 881 4594 1212 4672 
Q 1544 4750 1819 4750 
Q 2544 4750 2975 4387 
Q 3406 4025 3406 3419 
Q 3406 3131 3298 2873 
Q 3191 2616 2906 2266 
Q 2828 2175 2409 1742 
Q 1991 1309 1228 531 
z
" transform="scale(0.015625)"/>
       </defs>
       <use xlink:href="#DejaVuSans-31"/>
       <use xlink:href="#DejaVuSans-32" x="63.623047"/>
       <use xlink:href="#DejaVuSans-30" x="127.246094"/>
       <use xlink:href="#DejaVuSans-30" x="190.869141"/>
      </g>
     </g>
    </g>
   </g>
   <g id="matplotlib.axis_2">
    <g id="ytick_1">
     <g id="line2d_10">
      <defs>
       <path id="me30da27bac" d="M 0 0 
L -3.5 0 
" style="stroke: #000000; stroke-width: 0.8"/>
      </defs>
      <g>
       <use xlink:href="#me30da27bac" x="180" y="895.011401" style="stroke: #000000; stroke-width: 0.8"/>
      </g>
     </g>
     <g id="text_10">
      <!-- 300 -->
      <g transform="translate(153.9125 898.81062) scale(0.1 -0.1)">
       <defs>
        <path id="DejaVuSans-33" d="M 2597 2516 
Q 3050 2419 3304 2112 
Q 3559 1806 3559 1356 
Q 3559 666 3084 287 
Q 2609 -91 1734 -91 
Q 1441 -91 1130 -33 
Q 819 25 488 141 
L 488 750 
Q 750 597 1062 519 
Q 1375 441 1716 441 
Q 2309 441 2620 675 
Q 2931 909 2931 1356 
Q 2931 1769 2642 2001 
Q 2353 2234 1838 2234 
L 1294 2234 
L 1294 2753 
L 1863 2753 
Q 2328 2753 2575 2939 
Q 2822 3125 2822 3475 
Q 2822 3834 2567 4026 
Q 2313 4219 1838 4219 
Q 1578 4219 1281 4162 
Q 984 4106 628 3988 
L 628 4550 
Q 988 4650 1302 4700 
Q 1616 4750 1894 4750 
Q 2613 4750 3031 4423 
Q 3450 4097 3450 3541 
Q 3450 3153 3228 2886 
Q 3006 2619 2597 2516 
z
" transform="scale(0.015625)"/>
       </defs>
       <use xlink:href="#DejaVuSans-33"/>
       <use xlink:href="#DejaVuSans-30" x="63.623047"/>
       <use xlink:href="#DejaVuSans-30" x="127.246094"/>
      </g>
     </g>
    </g>
    <g id="ytick_2">
     <g id="line2d_11">
      <g>
       <use xlink:href="#me30da27bac" x="180" y="769.469973" style="stroke: #000000; stroke-width: 0.8"/>
      </g>
     </g>
     <g id="text_11">
      <!-- 400 -->
      <g transform="translate(153.9125 773.269192) scale(0.1 -0.1)">
       <use xlink:href="#DejaVuSans-34"/>
       <use xlink:href="#DejaVuSans-30" x="63.623047"/>
       <use xlink:href="#DejaVuSans-30" x="127.246094"/>
      </g>
     </g>
    </g>
    <g id="ytick_3">
     <g id="line2d_12">
      <g>
       <use xlink:href="#me30da27bac" x="180" y="643.928546" style="stroke: #000000; stroke-width: 0.8"/>
      </g>
     </g>
     <g id="text_12">
      <!-- 500 -->
      <g transform="translate(153.9125 647.727764) scale(0.1 -0.1)">
       <use xlink:href="#DejaVuSans-35"/>
       <use xlink:href="#DejaVuSans-30" x="63.623047"/>
       <use xlink:href="#DejaVuSans-30" x="127.246094"/>
      </g>
     </g>
    </g>
    <g id="ytick_4">
     <g id="line2d_13">
      <g>
       <use xlink:href="#me30da27bac" x="180" y="518.387118" style="stroke: #000000; stroke-width: 0.8"/>
      </g>
     </g>
     <g id="text_13">
      <!-- 600 -->
      <g transform="translate(153.9125 522.186337) scale(0.1 -0.1)">
       <use xlink:href="#DejaVuSans-36"/>
       <use xlink:href="#DejaVuSans-30" x="63.623047"/>
       <use xlink:href="#DejaVuSans-30" x="127.246094"/>
      </g>
     </g>
    </g>
    <g id="ytick_5">
     <g id="line2d_14">
      <g>
       <use xlink:href="#me30da27bac" x="180" y="392.84569" style="stroke: #000000; stroke-width: 0.8"/>
      </g>
     </g>
     <g id="text_14">
      <!-- 700 -->
      <g transform="translate(153.9125 396.644909) scale(0.1 -0.1)">
       <use xlink:href="#DejaVuSans-37"/>
       <use xlink:href="#DejaVuSans-30" x="63.623047"/>
       <use xlink:href="#DejaVuSans-30" x="127.246094"/>
      </g>
     </g>
    </g>
    <g id="ytick_6">
     <g id="line2d_15">
      <g>
       <use xlink:href="#me30da27bac" x="180" y="267.304262" style="stroke: #000000; stroke-width: 0.8"/>
      </g>
     </g>
     <g id="text_15">
      <!-- 800 -->
      <g transform="translate(153.9125 271.103481) scale(0.1 -0.1)">
       <use xlink:href="#DejaVuSans-38"/>
       <use xlink:href="#DejaVuSans-30" x="63.623047"/>
       <use xlink:href="#DejaVuSans-30" x="127.246094"/>
      </g>
     </g>
    </g>
   </g>
   <g id="LineCollection_1">
    <path d="M 1228.615337 807.975657 
L 1200.837375 822.923787 
L 1176.363708 833.997979 
L 1154.505678 841.863489 
L 1135.036256 846.927342 
L 1117.719024 849.582869 
L 1102.296016 850.19948 
L 1088.484979 849.104293 
L 1075.993159 846.56368 
L 1064.544734 842.777491 
L 1053.907592 837.89213 
L 1043.905087 832.024972 
L 1034.410457 825.28625 
L 1025.332079 817.790347 
L 1016.59877 809.657251 
L 1008.14957 801.008945 
L 999.928253 791.964758 
L 991.881102 782.637664 
L 976.104867 763.542342 
L 960.376638 744.367006 
L 952.446511 734.960507 
L 944.426142 725.758189 
L 936.284459 716.810218 
L 927.995342 708.159868 
L 919.537775 699.844039 
L 910.895926 691.89364 
L 902.059118 684.333807 
L 893.021655 677.184012 
L 883.782479 670.458082 
L 874.344671 664.164217 
L 864.714808 658.305052 
L 854.902242 652.877838 
L 844.91837 647.874746 
L 834.775957 643.283312 
L 824.488572 639.086982 
L 814.070157 635.265723 
L 803.534747 631.796638 
L 792.896305 628.654562 
L 782.168663 625.812594 
L 771.365525 623.242561 
L 760.500514 620.915403 
L 749.587221 618.801497 
L 738.639266 616.870905 
L 727.670332 615.093589 
L 705.724725 611.879099 
L 651.395517 604.456041 
L 640.735204 602.852481 
L 630.177979 601.147808 
L 619.736573 599.31721 
L 609.423139 597.336836 
L 599.249109 595.183829 
L 589.225034 592.836351 
L 579.360415 590.273573 
L 569.663534 587.47564 
L 560.141288 584.423607 
L 550.799036 581.099333 
L 541.640487 577.485353 
L 532.667632 573.56472 
L 523.880739 569.320846 
L 515.278428 564.73735 
L 506.857813 559.797958 
L 498.614718 554.486464 
L 490.543931 548.786781 
L 482.639472 542.683105 
L 474.894833 536.160171 
L 467.303159 529.203606 
L 459.857331 521.800333 
L 452.549955 513.939007 
L 445.373239 505.610439 
L 438.318778 496.807987 
L 431.377279 487.527891 
L 424.538225 477.769554 
L 417.789531 467.53576 
L 411.117182 456.832857 
L 404.504886 445.670905 
L 397.933732 434.063804 
L 391.381863 422.029428 
L 384.82415 409.589762 
L 371.572377 383.604019 
L 350.762226 342.323563 
L 343.395654 328.132562 
L 335.722371 313.820152 
L 327.675884 299.449848 
L 319.181904 285.092647 
L 310.15756 270.828173 
L 300.510685 256.746243 
L 290.139403 242.949006 
L 278.932343 229.553721 
L 266.770033 216.696067 
L 254.584575 205.435122 
L 254.584575 205.435122 
" clip-path="url(#p4afea4f1e5)" style="fill: none; stroke: #1f77b4; stroke-width: 1.5"/>
    <path d="M 1236.944032 823.452787 
L 1208.633776 838.687361 
L 1182.97249 850.298944 
L 1159.703995 858.672003 
L 1138.589633 864.163692 
L 1119.40741 867.105209 
L 1101.951171 867.803108 
L 1086.029801 866.540575 
L 1071.46645 863.57865 
L 1058.097795 859.157408 
L 1045.773315 853.497097 
L 1034.354607 846.799238 
L 1023.714711 839.247676 
L 1013.737478 831.009598 
L 1004.316945 822.236509 
L 995.35675 813.065167 
L 986.769554 803.61848 
L 978.476505 794.006376 
L 970.406704 784.32662 
L 962.496712 774.665608 
L 954.690062 765.099126 
L 946.936804 755.693065 
L 939.193066 746.504117 
L 931.42063 737.58043 
L 923.586536 728.962234 
L 915.662702 720.682436 
L 907.625554 712.767187 
L 899.45569 705.236418 
L 891.137545 698.104354 
L 882.659081 691.379991 
L 874.011498 685.067554 
L 865.188944 679.16693 
L 856.188263 673.674072 
L 847.008734 668.581382 
L 837.651847 663.87807 
L 828.121071 659.550494 
L 818.421654 655.582474 
L 808.560421 651.955587 
L 798.545596 648.649446 
L 788.386623 645.641955 
L 778.094012 642.909552 
L 767.679183 640.427427 
L 757.154329 638.16973 
L 746.532283 636.109763 
L 735.826397 634.220156 
L 725.050427 632.473026 
L 714.218432 630.840131 
L 703.344668 629.293004 
L 692.443504 627.80308 
L 681.529334 626.341812 
L 670.616498 624.880775 
L 659.71921 623.391767 
L 648.851488 621.846893 
L 638.02709 620.21865 
L 627.259454 618.480002 
L 616.56164 616.604451 
L 605.946277 614.5661 
L 595.42551 612.339718 
L 585.010947 609.900794 
L 574.713617 607.2256 
L 564.543915 604.291239 
L 554.511554 601.075706 
L 544.625522 597.557937 
L 534.894026 593.717872 
L 525.324449 589.536505 
L 515.923288 584.995952 
L 506.696107 580.079513 
L 497.647476 574.771737 
L 488.780911 569.058506 
L 480.098806 562.927103 
L 471.602367 556.366312 
L 463.291537 549.366502 
L 455.164912 541.91974 
L 447.219661 534.019898 
L 439.451429 525.662779 
L 431.85424 516.846253 
L 424.420387 507.570401 
L 417.14032 497.837675 
L 410.002523 487.653073 
L 402.993375 477.024325 
L 396.097016 465.962095 
L 389.295188 454.4802 
L 382.567073 442.595848 
L 375.889122 430.329888 
L 369.234867 417.707085 
L 362.574719 404.756409 
L 355.875764 391.511351 
L 349.101534 378.010247 
L 342.211769 364.296645 
L 335.162169 350.419671 
L 327.90412 336.434436 
L 320.384421 322.402462 
L 312.544975 308.392128 
L 304.322486 294.479151 
L 295.648119 280.747087 
L 286.447153 267.287865 
L 276.638619 254.202343 
L 266.134911 241.600898 
L 254.841382 229.60405 
L 242.655924 218.343105 
" clip-path="url(#p4afea4f1e5)" style="fill: none; stroke: #8c564b; stroke-width: 1.5"/>
    <path d="M 1245.272727 838.929918 
L 1215.879461 854.700131 
L 1188.923491 866.836607 
L 1164.128137 875.681874 
L 1141.25367 881.53642 
L 1120.109528 884.666979 
L 1102.65329 885.364878 
L 1100.561807 885.323907 
L 1084.640437 884.061374 
L 1082.526911 883.763772 
L 1067.96356 880.801847 
L 1065.947801 880.265569 
L 1050.762343 875.129255 
L 1036.880806 868.657309 
L 1024.182066 861.132003 
L 1012.524228 852.800603 
L 1001.759358 843.871689 
L 991.745103 834.518917 
L 982.351231 824.887401 
L 973.462093 815.099779 
L 964.97669 805.260876 
L 956.8076 795.460942 
L 933.435351 766.946004 
L 925.845539 757.939711 
L 918.289673 749.264671 
L 910.732703 740.951336 
L 903.144677 733.022432 
L 895.499814 725.493518 
L 887.775691 718.373622 
L 879.952548 711.665978 
L 872.012756 705.368841 
L 863.940474 699.476355 
L 855.721505 693.979415 
L 847.343333 688.866456 
L 838.795301 684.124112 
L 830.068868 679.737703 
L 821.157866 675.691544 
L 812.058704 671.969087 
L 802.770463 668.552942 
L 793.294888 665.424821 
L 783.636253 662.565452 
L 773.801146 659.954503 
L 763.798188 657.570538 
L 753.637721 655.391006 
L 743.331493 653.392287 
L 732.892349 651.54976 
L 722.333956 649.837906 
L 700.916739 646.700365 
L 646.237088 639.227159 
L 635.225418 637.569713 
L 624.22434 635.791756 
L 613.247302 633.864924 
L 602.307507 631.761102 
L 591.417963 629.452529 
L 580.591548 626.911898 
L 569.841082 624.112492 
L 559.179402 621.028346 
L 548.619425 617.634436 
L 538.174186 613.906913 
L 527.856836 609.823358 
L 517.680572 605.363062 
L 507.658505 600.507307 
L 497.803436 595.23963 
L 488.127557 589.546035 
L 478.642089 583.415143 
L 469.356883 576.838244 
L 460.280016 569.809269 
L 451.417427 562.324676 
L 442.772612 554.383272 
L 434.346414 545.986028 
L 426.136906 537.135887 
L 418.13935 527.837639 
L 410.346238 518.097845 
L 402.74736 507.924867 
L 395.329898 497.328962 
L 388.078511 486.322474 
L 380.975401 474.920079 
L 374.000347 463.139102 
L 367.130709 450.999859 
L 360.341399 438.526048 
L 353.604824 425.745151 
L 340.166527 399.393521 
L 319.526963 358.448052 
L 312.357644 344.633786 
L 304.968403 330.845252 
L 297.30842 317.155645 
L 289.324033 303.645553 
L 280.958863 290.402968 
L 272.153881 277.522992 
L 262.847273 265.107087 
L 252.973822 253.261771 
L 242.463357 242.096753 
L 230.727273 231.251088 
L 230.727273 231.251088 
" clip-path="url(#p4afea4f1e5)" style="fill: none; stroke: #17becf; stroke-width: 1.5"/>
   </g>
   <g id="patch_3">
    <path d="M 180 919.361366 
L 180 171.438634 
" style="fill: none; stroke: #000000; stroke-width: 0.8; stroke-linejoin: miter; stroke-linecap: square"/>
   </g>
   <g id="patch_4">
    <path d="M 1296 919.361366 
L 1296 171.438634 
" style="fill: none; stroke: #000000; stroke-width: 0.8; stroke-linejoin: miter; stroke-linecap: square"/>
   </g>
   <g id="patch_5">
    <path d="M 180 919.361366 
L 1296 919.361366 
" style="fill: none; stroke: #000000; stroke-width: 0.8; stroke-linejoin: miter; stroke-linecap: square"/>
   </g>
   <g id="patch_6">
    <path d="M 180 171.438634 
L 1296 171.438634 
" style="fill: none; stroke: #000000; stroke-width: 0.8; stroke-linejoin: miter; stroke-linecap: square"/>
   </g>
  </g>
 </g>
 <defs>
  <clipPath id="p4afea4f1e5">
   <rect x="180" y="171.438634" width="1116" height="747.922731"/>
  </clipPath>
 </defs>
</svg>
