<?xml version="1.0" encoding="utf-8" standalone="no"?>
<!DOCTYPE svg PUBLIC "-//W3C//DTD SVG 1.1//EN"
  "http://www.w3.org/Graphics/SVG/1.1/DTD/svg11.dtd">
<svg xmlns:xlink="http://www.w3.org/1999/xlink" width="1440pt" height="1080pt" viewBox="0 0 1440 1080" xmlns="http://www.w3.org/2000/svg" version="1.1">
 <metadata>
  <rdf:RDF xmlns:dc="http://purl.org/dc/elements/1.1/" xmlns:cc="http://creativecommons.org/ns#" xmlns:rdf="http://www.w3.org/1999/02/22-rdf-syntax-ns#">
   <cc:Work>
    <dc:type rdf:resource="http://purl.org/dc/dcmitype/StillImage"/>
    <dc:date>2023-12-11T12:06:53.542523</dc:date>
    <dc:format>image/svg+xml</dc:format>
    <dc:creator>
     <cc:Agent>
      <dc:title>Matplotlib v3.7.1, https://matplotlib.org/</dc:title>
     </cc:Agent>
    </dc:creator>
   </cc:Work>
  </rdf:RDF>
 </metadata>
 <defs>
  <style type="text/css">*{stroke-linejoin: round; stroke-linecap: butt}</style>
 </defs>
 <g id="figure_1">
  <g id="patch_1">
   <path d="M 0 1080 
L 1440 1080 
L 1440 0 
L 0 0 
z
" style="fill: #ffffff"/>
  </g>
  <g id="axes_1">
   <g id="patch_2">
    <path d="M 569.092356 961.2 
L 906.907644 961.2 
L 906.907644 129.6 
L 569.092356 129.6 
z
" style="fill: #ffffff"/>
   </g>
   <g id="matplotlib.axis_1">
    <g id="xtick_1">
     <g id="line2d_1">
      <defs>
       <path id="m698aad39fe" d="M 0 0 
L 0 3.5 
" style="stroke: #000000; stroke-width: 0.8"/>
      </defs>
      <g>
       <use xlink:href="#m698aad39fe" x="578.383985" y="961.2" style="stroke: #000000; stroke-width: 0.8"/>
      </g>
     </g>
     <g id="text_1">
      <!-- 600 -->
      <g transform="translate(568.840235 975.798437) scale(0.1 -0.1)">
       <defs>
        <path id="DejaVuSans-36" d="M 2113 2584 
Q 1688 2584 1439 2293 
Q 1191 2003 1191 1497 
Q 1191 994 1439 701 
Q 1688 409 2113 409 
Q 2538 409 2786 701 
Q 3034 994 3034 1497 
Q 3034 2003 2786 2293 
Q 2538 2584 2113 2584 
z
M 3366 4563 
L 3366 3988 
Q 3128 4100 2886 4159 
Q 2644 4219 2406 4219 
Q 1781 4219 1451 3797 
Q 1122 3375 1075 2522 
Q 1259 2794 1537 2939 
Q 1816 3084 2150 3084 
Q 2853 3084 3261 2657 
Q 3669 2231 3669 1497 
Q 3669 778 3244 343 
Q 2819 -91 2113 -91 
Q 1303 -91 875 529 
Q 447 1150 447 2328 
Q 447 3434 972 4092 
Q 1497 4750 2381 4750 
Q 2619 4750 2861 4703 
Q 3103 4656 3366 4563 
z
" transform="scale(0.015625)"/>
        <path id="DejaVuSans-30" d="M 2034 4250 
Q 1547 4250 1301 3770 
Q 1056 3291 1056 2328 
Q 1056 1369 1301 889 
Q 1547 409 2034 409 
Q 2525 409 2770 889 
Q 3016 1369 3016 2328 
Q 3016 3291 2770 3770 
Q 2525 4250 2034 4250 
z
M 2034 4750 
Q 2819 4750 3233 4129 
Q 3647 3509 3647 2328 
Q 3647 1150 3233 529 
Q 2819 -91 2034 -91 
Q 1250 -91 836 529 
Q 422 1150 422 2328 
Q 422 3509 836 4129 
Q 1250 4750 2034 4750 
z
" transform="scale(0.015625)"/>
       </defs>
       <use xlink:href="#DejaVuSans-36"/>
       <use xlink:href="#DejaVuSans-30" x="63.623047"/>
       <use xlink:href="#DejaVuSans-30" x="127.246094"/>
      </g>
     </g>
    </g>
    <g id="xtick_2">
     <g id="line2d_2">
      <g>
       <use xlink:href="#m698aad39fe" x="634.218875" y="961.2" style="stroke: #000000; stroke-width: 0.8"/>
      </g>
     </g>
     <g id="text_2">
      <!-- 650 -->
      <g transform="translate(624.675125 975.798437) scale(0.1 -0.1)">
       <defs>
        <path id="DejaVuSans-35" d="M 691 4666 
L 3169 4666 
L 3169 4134 
L 1269 4134 
L 1269 2991 
Q 1406 3038 1543 3061 
Q 1681 3084 1819 3084 
Q 2600 3084 3056 2656 
Q 3513 2228 3513 1497 
Q 3513 744 3044 326 
Q 2575 -91 1722 -91 
Q 1428 -91 1123 -41 
Q 819 9 494 109 
L 494 744 
Q 775 591 1075 516 
Q 1375 441 1709 441 
Q 2250 441 2565 725 
Q 2881 1009 2881 1497 
Q 2881 1984 2565 2268 
Q 2250 2553 1709 2553 
Q 1456 2553 1204 2497 
Q 953 2441 691 2322 
L 691 4666 
z
" transform="scale(0.015625)"/>
       </defs>
       <use xlink:href="#DejaVuSans-36"/>
       <use xlink:href="#DejaVuSans-35" x="63.623047"/>
       <use xlink:href="#DejaVuSans-30" x="127.246094"/>
      </g>
     </g>
    </g>
    <g id="xtick_3">
     <g id="line2d_3">
      <g>
       <use xlink:href="#m698aad39fe" x="690.053765" y="961.2" style="stroke: #000000; stroke-width: 0.8"/>
      </g>
     </g>
     <g id="text_3">
      <!-- 700 -->
      <g transform="translate(680.510015 975.798437) scale(0.1 -0.1)">
       <defs>
        <path id="DejaVuSans-37" d="M 525 4666 
L 3525 4666 
L 3525 4397 
L 1831 0 
L 1172 0 
L 2766 4134 
L 525 4134 
L 525 4666 
z
" transform="scale(0.015625)"/>
       </defs>
       <use xlink:href="#DejaVuSans-37"/>
       <use xlink:href="#DejaVuSans-30" x="63.623047"/>
       <use xlink:href="#DejaVuSans-30" x="127.246094"/>
      </g>
     </g>
    </g>
    <g id="xtick_4">
     <g id="line2d_4">
      <g>
       <use xlink:href="#m698aad39fe" x="745.888655" y="961.2" style="stroke: #000000; stroke-width: 0.8"/>
      </g>
     </g>
     <g id="text_4">
      <!-- 750 -->
      <g transform="translate(736.344905 975.798437) scale(0.1 -0.1)">
       <use xlink:href="#DejaVuSans-37"/>
       <use xlink:href="#DejaVuSans-35" x="63.623047"/>
       <use xlink:href="#DejaVuSans-30" x="127.246094"/>
      </g>
     </g>
    </g>
    <g id="xtick_5">
     <g id="line2d_5">
      <g>
       <use xlink:href="#m698aad39fe" x="801.723545" y="961.2" style="stroke: #000000; stroke-width: 0.8"/>
      </g>
     </g>
     <g id="text_5">
      <!-- 800 -->
      <g transform="translate(792.179795 975.798437) scale(0.1 -0.1)">
       <defs>
        <path id="DejaVuSans-38" d="M 2034 2216 
Q 1584 2216 1326 1975 
Q 1069 1734 1069 1313 
Q 1069 891 1326 650 
Q 1584 409 2034 409 
Q 2484 409 2743 651 
Q 3003 894 3003 1313 
Q 3003 1734 2745 1975 
Q 2488 2216 2034 2216 
z
M 1403 2484 
Q 997 2584 770 2862 
Q 544 3141 544 3541 
Q 544 4100 942 4425 
Q 1341 4750 2034 4750 
Q 2731 4750 3128 4425 
Q 3525 4100 3525 3541 
Q 3525 3141 3298 2862 
Q 3072 2584 2669 2484 
Q 3125 2378 3379 2068 
Q 3634 1759 3634 1313 
Q 3634 634 3220 271 
Q 2806 -91 2034 -91 
Q 1263 -91 848 271 
Q 434 634 434 1313 
Q 434 1759 690 2068 
Q 947 2378 1403 2484 
z
M 1172 3481 
Q 1172 3119 1398 2916 
Q 1625 2713 2034 2713 
Q 2441 2713 2670 2916 
Q 2900 3119 2900 3481 
Q 2900 3844 2670 4047 
Q 2441 4250 2034 4250 
Q 1625 4250 1398 4047 
Q 1172 3844 1172 3481 
z
" transform="scale(0.015625)"/>
       </defs>
       <use xlink:href="#DejaVuSans-38"/>
       <use xlink:href="#DejaVuSans-30" x="63.623047"/>
       <use xlink:href="#DejaVuSans-30" x="127.246094"/>
      </g>
     </g>
    </g>
    <g id="xtick_6">
     <g id="line2d_6">
      <g>
       <use xlink:href="#m698aad39fe" x="857.558436" y="961.2" style="stroke: #000000; stroke-width: 0.8"/>
      </g>
     </g>
     <g id="text_6">
      <!-- 850 -->
      <g transform="translate(848.014686 975.798437) scale(0.1 -0.1)">
       <use xlink:href="#DejaVuSans-38"/>
       <use xlink:href="#DejaVuSans-35" x="63.623047"/>
       <use xlink:href="#DejaVuSans-30" x="127.246094"/>
      </g>
     </g>
    </g>
   </g>
   <g id="matplotlib.axis_2">
    <g id="ytick_1">
     <g id="line2d_7">
      <defs>
       <path id="mece1942995" d="M 0 0 
L -3.5 0 
" style="stroke: #000000; stroke-width: 0.8"/>
      </defs>
      <g>
       <use xlink:href="#mece1942995" x="569.092356" y="859.292688" style="stroke: #000000; stroke-width: 0.8"/>
      </g>
     </g>
     <g id="text_7">
      <!-- 200 -->
      <g transform="translate(543.004856 863.091907) scale(0.1 -0.1)">
       <defs>
        <path id="DejaVuSans-32" d="M 1228 531 
L 3431 531 
L 3431 0 
L 469 0 
L 469 531 
Q 828 903 1448 1529 
Q 2069 2156 2228 2338 
Q 2531 2678 2651 2914 
Q 2772 3150 2772 3378 
Q 2772 3750 2511 3984 
Q 2250 4219 1831 4219 
Q 1534 4219 1204 4116 
Q 875 4013 500 3803 
L 500 4441 
Q 881 4594 1212 4672 
Q 1544 4750 1819 4750 
Q 2544 4750 2975 4387 
Q 3406 4025 3406 3419 
Q 3406 3131 3298 2873 
Q 3191 2616 2906 2266 
Q 2828 2175 2409 1742 
Q 1991 1309 1228 531 
z
" transform="scale(0.015625)"/>
       </defs>
       <use xlink:href="#DejaVuSans-32"/>
       <use xlink:href="#DejaVuSans-30" x="63.623047"/>
       <use xlink:href="#DejaVuSans-30" x="127.246094"/>
      </g>
     </g>
    </g>
    <g id="ytick_2">
     <g id="line2d_8">
      <g>
       <use xlink:href="#mece1942995" x="569.092356" y="747.622908" style="stroke: #000000; stroke-width: 0.8"/>
      </g>
     </g>
     <g id="text_8">
      <!-- 300 -->
      <g transform="translate(543.004856 751.422127) scale(0.1 -0.1)">
       <defs>
        <path id="DejaVuSans-33" d="M 2597 2516 
Q 3050 2419 3304 2112 
Q 3559 1806 3559 1356 
Q 3559 666 3084 287 
Q 2609 -91 1734 -91 
Q 1441 -91 1130 -33 
Q 819 25 488 141 
L 488 750 
Q 750 597 1062 519 
Q 1375 441 1716 441 
Q 2309 441 2620 675 
Q 2931 909 2931 1356 
Q 2931 1769 2642 2001 
Q 2353 2234 1838 2234 
L 1294 2234 
L 1294 2753 
L 1863 2753 
Q 2328 2753 2575 2939 
Q 2822 3125 2822 3475 
Q 2822 3834 2567 4026 
Q 2313 4219 1838 4219 
Q 1578 4219 1281 4162 
Q 984 4106 628 3988 
L 628 4550 
Q 988 4650 1302 4700 
Q 1616 4750 1894 4750 
Q 2613 4750 3031 4423 
Q 3450 4097 3450 3541 
Q 3450 3153 3228 2886 
Q 3006 2619 2597 2516 
z
" transform="scale(0.015625)"/>
       </defs>
       <use xlink:href="#DejaVuSans-33"/>
       <use xlink:href="#DejaVuSans-30" x="63.623047"/>
       <use xlink:href="#DejaVuSans-30" x="127.246094"/>
      </g>
     </g>
    </g>
    <g id="ytick_3">
     <g id="line2d_9">
      <g>
       <use xlink:href="#mece1942995" x="569.092356" y="635.953128" style="stroke: #000000; stroke-width: 0.8"/>
      </g>
     </g>
     <g id="text_9">
      <!-- 400 -->
      <g transform="translate(543.004856 639.752347) scale(0.1 -0.1)">
       <defs>
        <path id="DejaVuSans-34" d="M 2419 4116 
L 825 1625 
L 2419 1625 
L 2419 4116 
z
M 2253 4666 
L 3047 4666 
L 3047 1625 
L 3713 1625 
L 3713 1100 
L 3047 1100 
L 3047 0 
L 2419 0 
L 2419 1100 
L 313 1100 
L 313 1709 
L 2253 4666 
z
" transform="scale(0.015625)"/>
       </defs>
       <use xlink:href="#DejaVuSans-34"/>
       <use xlink:href="#DejaVuSans-30" x="63.623047"/>
       <use xlink:href="#DejaVuSans-30" x="127.246094"/>
      </g>
     </g>
    </g>
    <g id="ytick_4">
     <g id="line2d_10">
      <g>
       <use xlink:href="#mece1942995" x="569.092356" y="524.283348" style="stroke: #000000; stroke-width: 0.8"/>
      </g>
     </g>
     <g id="text_10">
      <!-- 500 -->
      <g transform="translate(543.004856 528.082566) scale(0.1 -0.1)">
       <use xlink:href="#DejaVuSans-35"/>
       <use xlink:href="#DejaVuSans-30" x="63.623047"/>
       <use xlink:href="#DejaVuSans-30" x="127.246094"/>
      </g>
     </g>
    </g>
    <g id="ytick_5">
     <g id="line2d_11">
      <g>
       <use xlink:href="#mece1942995" x="569.092356" y="412.613567" style="stroke: #000000; stroke-width: 0.8"/>
      </g>
     </g>
     <g id="text_11">
      <!-- 600 -->
      <g transform="translate(543.004856 416.412786) scale(0.1 -0.1)">
       <use xlink:href="#DejaVuSans-36"/>
       <use xlink:href="#DejaVuSans-30" x="63.623047"/>
       <use xlink:href="#DejaVuSans-30" x="127.246094"/>
      </g>
     </g>
    </g>
    <g id="ytick_6">
     <g id="line2d_12">
      <g>
       <use xlink:href="#mece1942995" x="569.092356" y="300.943787" style="stroke: #000000; stroke-width: 0.8"/>
      </g>
     </g>
     <g id="text_12">
      <!-- 700 -->
      <g transform="translate(543.004856 304.743006) scale(0.1 -0.1)">
       <use xlink:href="#DejaVuSans-37"/>
       <use xlink:href="#DejaVuSans-30" x="63.623047"/>
       <use xlink:href="#DejaVuSans-30" x="127.246094"/>
      </g>
     </g>
    </g>
    <g id="ytick_7">
     <g id="line2d_13">
      <g>
       <use xlink:href="#mece1942995" x="569.092356" y="189.274007" style="stroke: #000000; stroke-width: 0.8"/>
      </g>
     </g>
     <g id="text_13">
      <!-- 800 -->
      <g transform="translate(543.004856 193.073226) scale(0.1 -0.1)">
       <use xlink:href="#DejaVuSans-38"/>
       <use xlink:href="#DejaVuSans-30" x="63.623047"/>
       <use xlink:href="#DejaVuSans-30" x="127.246094"/>
      </g>
     </g>
    </g>
   </g>
   <g id="LineCollection_1">
    <path d="M 584.447597 211.148014 
L 601.279075 217.652731 
L 615.417815 224.019255 
L 627.516093 230.397169 
L 637.71753 236.731848 
L 646.180572 242.969686 
L 653.082095 249.066543 
L 658.616773 254.999303 
L 662.988996 260.777265 
L 666.396887 266.44741 
L 669.013161 272.088171 
L 670.97143 277.791927 
L 672.364399 283.643474 
L 673.253263 289.703907 
L 673.681926 296.00484 
L 673.689429 302.551607 
L 673.317467 309.330904 
L 672.613208 316.318812 
L 671.629105 323.487117 
L 670.421343 330.807471 
L 667.567358 345.803018 
L 663.016345 369.061335 
L 661.653042 376.927571 
L 660.451873 384.826267 
L 659.458716 392.748622 
L 658.716309 400.685186 
L 658.263869 408.62498 
L 658.136494 416.554772 
L 658.36435 424.458626 
L 658.971735 432.317874 
L 659.976157 440.111614 
L 661.387646 447.817714 
L 663.208477 455.414212 
L 665.433445 462.880883 
L 668.050678 470.20067 
L 671.042864 477.360749 
L 674.38868 484.353072 
L 678.064196 491.174372 
L 682.044068 497.825733 
L 686.302439 504.311873 
L 690.813523 510.640315 
L 695.55192 516.820563 
L 700.492732 522.863373 
L 705.611561 528.780162 
L 710.884437 534.582552 
L 716.287739 540.28205 
L 721.798123 545.889824 
L 733.047936 556.872391 
L 744.451885 567.608808 
L 772.567514 593.872612 
L 783.210478 604.269025 
L 788.327345 609.463175 
L 793.28667 614.66052 
L 798.074085 619.865036 
L 802.676468 625.080419 
L 807.081971 630.310167 
L 811.280021 635.557673 
L 815.26129 640.826328 
L 819.017629 646.119636 
L 822.541965 651.441337 
L 825.828152 656.795535 
L 828.870786 662.186821 
L 831.66496 667.620409 
L 834.205993 673.10225 
L 836.489108 678.639156 
L 838.509076 684.238917 
L 840.259824 689.910421 
L 841.73401 695.663786 
L 842.922561 701.510512 
L 843.814158 707.463646 
L 844.394677 713.537981 
L 844.64655 719.750264 
L 844.54805 726.119397 
L 844.072502 732.666612 
L 843.187407 739.415584 
L 841.853524 746.392439 
L 840.023943 753.625642 
L 837.643188 761.145763 
L 834.646425 768.985128 
L 830.958787 777.177414 
L 826.494849 785.757262 
L 821.158228 794.759969 
L 814.841256 804.221337 
L 807.424656 814.177718 
L 798.777156 824.666257 
L 788.754954 835.725313 
L 777.201014 847.395014 
L 763.944172 859.717895 
L 748.798039 872.739554 
L 731.25268 886.754596 
L 731.25268 886.754596 
" clip-path="url(#p947cff514a)" style="fill: none; stroke: #1f77b4; stroke-width: 1.5"/>
    <path d="M 592.901056 189.274007 
L 610.326708 196.008349 
L 625.709963 202.935265 
L 639.184052 210.038473 
L 650.880587 217.301546 
L 660.92914 224.708014 
L 669.456858 232.241464 
L 676.588106 239.885628 
L 682.44414 247.624469 
L 687.142816 255.442257 
L 690.798324 263.323638 
L 693.520951 271.253701 
L 695.416871 279.218032 
L 696.587966 287.202769 
L 697.131667 295.194645 
L 697.14082 303.181033 
L 696.703585 311.149975 
L 695.903347 319.090219 
L 694.818653 326.991237 
L 693.523175 334.84325 
L 692.085684 342.637243 
L 690.570057 350.364972 
L 689.035287 358.018979 
L 687.535522 365.592587 
L 686.120117 373.079904 
L 684.833704 380.475816 
L 683.716274 387.775984 
L 682.803271 394.976826 
L 682.125712 402.07551 
L 681.710302 409.069931 
L 681.579571 415.958697 
L 681.752024 422.741104 
L 682.242291 429.417115 
L 683.061291 435.987328 
L 684.216412 442.452957 
L 685.711677 448.815794 
L 687.547944 455.078185 
L 689.723084 461.242993 
L 692.232184 467.313567 
L 695.067743 473.293708 
L 698.219872 479.187634 
L 701.6765 484.999947 
L 705.423574 490.735593 
L 709.445265 496.399831 
L 713.72417 501.998198 
L 718.241513 507.53647 
L 722.977343 513.020632 
L 727.910729 518.456842 
L 733.019948 523.851398 
L 738.282673 529.210711 
L 743.676146 534.541269 
L 749.177354 539.849611 
L 754.763191 545.142301 
L 760.410609 550.425901 
L 766.096765 555.706951 
L 771.799153 560.991945 
L 777.495725 566.287316 
L 783.165003 571.599418 
L 788.78617 576.934517 
L 794.339157 582.298778 
L 799.804704 587.698261 
L 805.16441 593.13892 
L 810.400773 598.626599 
L 815.497196 604.167046 
L 820.437988 609.765911 
L 825.20834 615.428769 
L 829.794282 621.161133 
L 834.182613 626.968479 
L 838.360821 632.856271 
L 842.316964 638.829995 
L 846.039539 644.8952 
L 849.517322 651.057535 
L 852.73918 657.322801 
L 855.693858 663.69701 
L 858.369741 670.186438 
L 860.754581 676.797699 
L 862.8352 683.537816 
L 864.597164 690.414299 
L 866.024414 697.435238 
L 867.098883 704.60939 
L 867.800064 711.946287 
L 868.104553 719.456342 
L 867.985555 727.150963 
L 867.412351 735.042683 
L 866.349733 743.145288 
L 864.757401 751.473959 
L 862.589317 760.045421 
L 859.793027 768.878101 
L 856.308934 777.992294 
L 852.069538 787.41034 
L 846.99863 797.156805 
L 841.010444 807.258681 
L 834.008765 817.745582 
L 825.88599 828.649966 
L 816.522149 840.007353 
L 805.783877 851.856559 
L 793.523335 864.239944 
L 779.577086 877.203661 
L 763.764926 890.797928 
L 745.888655 905.077298 
" clip-path="url(#p947cff514a)" style="fill: none; stroke: #8c564b; stroke-width: 1.5"/>
    <path d="M 601.354516 167.4 
L 619.955172 174.625509 
L 636.645983 182.190708 
L 651.554935 190.116264 
L 664.794257 198.424498 
L 676.455017 207.133024 
L 686.60428 216.244619 
L 693.735528 223.888783 
L 695.288256 225.735097 
L 701.14429 233.473938 
L 702.543825 235.544081 
L 707.242502 243.361868 
L 708.416587 245.575149 
L 712.072095 253.45653 
L 712.978157 255.708641 
L 716.334118 265.822994 
L 718.619298 275.815008 
L 719.98454 285.611062 
L 720.582305 295.167767 
L 720.556255 304.465775 
L 720.036043 313.501481 
L 719.136086 322.279733 
L 717.956508 330.808678 
L 716.584869 339.096649 
L 713.563019 354.975488 
L 709.194507 377.267396 
L 707.978311 384.259614 
L 706.942662 391.025505 
L 706.113334 397.566408 
L 705.510199 403.885355 
L 705.147756 409.987942 
L 705.035882 415.883097 
L 705.180827 421.583643 
L 705.586409 427.106489 
L 706.255284 432.472359 
L 707.190119 437.704973 
L 708.394447 442.829777 
L 709.873046 447.872382 
L 711.631769 452.856975 
L 713.676894 457.804997 
L 716.014169 462.734266 
L 718.647772 467.658639 
L 721.579401 472.588167 
L 724.807624 477.529609 
L 728.327546 482.487144 
L 732.130765 487.463142 
L 736.205572 492.458863 
L 740.53729 497.475056 
L 745.108716 502.512414 
L 749.900577 507.571889 
L 760.060839 517.763465 
L 770.838732 528.068471 
L 810.820144 565.616145 
L 821.870345 576.681553 
L 827.660059 582.75051 
L 833.080423 588.650496 
L 838.373112 594.657487 
L 843.520146 600.779164 
L 848.503925 607.023156 
L 853.307134 613.39697 
L 857.912643 619.907934 
L 862.303394 626.563139 
L 866.462292 633.369389 
L 870.372081 640.33316 
L 874.015218 647.460581 
L 877.373733 654.757424 
L 880.429072 662.22911 
L 883.161918 669.880735 
L 885.551985 677.717088 
L 887.57779 685.742687 
L 889.216402 693.961786 
L 890.443172 702.378395 
L 891.231467 710.996278 
L 891.552403 719.818965 
L 891.374594 728.849794 
L 890.663905 738.092013 
L 889.383201 747.548983 
L 887.492052 757.224509 
L 884.946344 767.123311 
L 881.697751 777.251645 
L 877.693005 787.618022 
L 872.872952 798.233976 
L 867.171374 809.114797 
L 860.513626 820.280165 
L 852.815143 831.754625 
L 843.979892 843.567871 
L 833.89883 855.754865 
L 822.448443 868.355814 
L 809.489369 881.416058 
L 794.865124 894.98593 
L 778.400901 909.12063 
L 760.52463 923.4 
L 760.52463 923.4 
" clip-path="url(#p947cff514a)" style="fill: none; stroke: #17becf; stroke-width: 1.5"/>
   </g>
   <g id="patch_3">
    <path d="M 569.092356 961.2 
L 569.092356 129.6 
" style="fill: none; stroke: #000000; stroke-width: 0.8; stroke-linejoin: miter; stroke-linecap: square"/>
   </g>
   <g id="patch_4">
    <path d="M 906.907644 961.2 
L 906.907644 129.6 
" style="fill: none; stroke: #000000; stroke-width: 0.8; stroke-linejoin: miter; stroke-linecap: square"/>
   </g>
   <g id="patch_5">
    <path d="M 569.092356 961.2 
L 906.907644 961.2 
" style="fill: none; stroke: #000000; stroke-width: 0.8; stroke-linejoin: miter; stroke-linecap: square"/>
   </g>
   <g id="patch_6">
    <path d="M 569.092356 129.6 
L 906.907644 129.6 
" style="fill: none; stroke: #000000; stroke-width: 0.8; stroke-linejoin: miter; stroke-linecap: square"/>
   </g>
  </g>
 </g>
 <defs>
  <clipPath id="p947cff514a">
   <rect x="569.092356" y="129.6" width="337.815287" height="831.6"/>
  </clipPath>
 </defs>
</svg>
