<?xml version="1.0" encoding="utf-8" standalone="no"?>
<!DOCTYPE svg PUBLIC "-//W3C//DTD SVG 1.1//EN"
  "http://www.w3.org/Graphics/SVG/1.1/DTD/svg11.dtd">
<svg xmlns:xlink="http://www.w3.org/1999/xlink" width="1440pt" height="1080pt" viewBox="0 0 1440 1080" xmlns="http://www.w3.org/2000/svg" version="1.1">
 <metadata>
  <rdf:RDF xmlns:dc="http://purl.org/dc/elements/1.1/" xmlns:cc="http://creativecommons.org/ns#" xmlns:rdf="http://www.w3.org/1999/02/22-rdf-syntax-ns#">
   <cc:Work>
    <dc:type rdf:resource="http://purl.org/dc/dcmitype/StillImage"/>
    <dc:date>2023-12-11T12:06:52.819282</dc:date>
    <dc:format>image/svg+xml</dc:format>
    <dc:creator>
     <cc:Agent>
      <dc:title>Matplotlib v3.7.1, https://matplotlib.org/</dc:title>
     </cc:Agent>
    </dc:creator>
   </cc:Work>
  </rdf:RDF>
 </metadata>
 <defs>
  <style type="text/css">*{stroke-linejoin: round; stroke-linecap: butt}</style>
 </defs>
 <g id="figure_1">
  <g id="patch_1">
   <path d="M 0 1080 
L 1440 1080 
L 1440 0 
L 0 0 
z
" style="fill: #ffffff"/>
  </g>
  <g id="axes_1">
   <g id="patch_2">
    <path d="M 180 649.797067 
L 1296 649.797067 
L 1296 441.002933 
L 180 441.002933 
z
" style="fill: #ffffff"/>
   </g>
   <g id="matplotlib.axis_1">
    <g id="xtick_1">
     <g id="line2d_1">
      <defs>
       <path id="m97a972b627" d="M 0 0 
L 0 3.5 
" style="stroke: #000000; stroke-width: 0.8"/>
      </defs>
      <g>
       <use xlink:href="#m97a972b627" x="286.882263" y="649.797067" style="stroke: #000000; stroke-width: 0.8"/>
      </g>
     </g>
     <g id="text_1">
      <!-- 200 -->
      <g transform="translate(277.338513 664.395504) scale(0.1 -0.1)">
       <defs>
        <path id="DejaVuSans-32" d="M 1228 531 
L 3431 531 
L 3431 0 
L 469 0 
L 469 531 
Q 828 903 1448 1529 
Q 2069 2156 2228 2338 
Q 2531 2678 2651 2914 
Q 2772 3150 2772 3378 
Q 2772 3750 2511 3984 
Q 2250 4219 1831 4219 
Q 1534 4219 1204 4116 
Q 875 4013 500 3803 
L 500 4441 
Q 881 4594 1212 4672 
Q 1544 4750 1819 4750 
Q 2544 4750 2975 4387 
Q 3406 4025 3406 3419 
Q 3406 3131 3298 2873 
Q 3191 2616 2906 2266 
Q 2828 2175 2409 1742 
Q 1991 1309 1228 531 
z
" transform="scale(0.015625)"/>
        <path id="DejaVuSans-30" d="M 2034 4250 
Q 1547 4250 1301 3770 
Q 1056 3291 1056 2328 
Q 1056 1369 1301 889 
Q 1547 409 2034 409 
Q 2525 409 2770 889 
Q 3016 1369 3016 2328 
Q 3016 3291 2770 3770 
Q 2525 4250 2034 4250 
z
M 2034 4750 
Q 2819 4750 3233 4129 
Q 3647 3509 3647 2328 
Q 3647 1150 3233 529 
Q 2819 -91 2034 -91 
Q 1250 -91 836 529 
Q 422 1150 422 2328 
Q 422 3509 836 4129 
Q 1250 4750 2034 4750 
z
" transform="scale(0.015625)"/>
       </defs>
       <use xlink:href="#DejaVuSans-32"/>
       <use xlink:href="#DejaVuSans-30" x="63.623047"/>
       <use xlink:href="#DejaVuSans-30" x="127.246094"/>
      </g>
     </g>
    </g>
    <g id="xtick_2">
     <g id="line2d_2">
      <g>
       <use xlink:href="#m97a972b627" x="467.065424" y="649.797067" style="stroke: #000000; stroke-width: 0.8"/>
      </g>
     </g>
     <g id="text_2">
      <!-- 400 -->
      <g transform="translate(457.521674 664.395504) scale(0.1 -0.1)">
       <defs>
        <path id="DejaVuSans-34" d="M 2419 4116 
L 825 1625 
L 2419 1625 
L 2419 4116 
z
M 2253 4666 
L 3047 4666 
L 3047 1625 
L 3713 1625 
L 3713 1100 
L 3047 1100 
L 3047 0 
L 2419 0 
L 2419 1100 
L 313 1100 
L 313 1709 
L 2253 4666 
z
" transform="scale(0.015625)"/>
       </defs>
       <use xlink:href="#DejaVuSans-34"/>
       <use xlink:href="#DejaVuSans-30" x="63.623047"/>
       <use xlink:href="#DejaVuSans-30" x="127.246094"/>
      </g>
     </g>
    </g>
    <g id="xtick_3">
     <g id="line2d_3">
      <g>
       <use xlink:href="#m97a972b627" x="647.248585" y="649.797067" style="stroke: #000000; stroke-width: 0.8"/>
      </g>
     </g>
     <g id="text_3">
      <!-- 600 -->
      <g transform="translate(637.704835 664.395504) scale(0.1 -0.1)">
       <defs>
        <path id="DejaVuSans-36" d="M 2113 2584 
Q 1688 2584 1439 2293 
Q 1191 2003 1191 1497 
Q 1191 994 1439 701 
Q 1688 409 2113 409 
Q 2538 409 2786 701 
Q 3034 994 3034 1497 
Q 3034 2003 2786 2293 
Q 2538 2584 2113 2584 
z
M 3366 4563 
L 3366 3988 
Q 3128 4100 2886 4159 
Q 2644 4219 2406 4219 
Q 1781 4219 1451 3797 
Q 1122 3375 1075 2522 
Q 1259 2794 1537 2939 
Q 1816 3084 2150 3084 
Q 2853 3084 3261 2657 
Q 3669 2231 3669 1497 
Q 3669 778 3244 343 
Q 2819 -91 2113 -91 
Q 1303 -91 875 529 
Q 447 1150 447 2328 
Q 447 3434 972 4092 
Q 1497 4750 2381 4750 
Q 2619 4750 2861 4703 
Q 3103 4656 3366 4563 
z
" transform="scale(0.015625)"/>
       </defs>
       <use xlink:href="#DejaVuSans-36"/>
       <use xlink:href="#DejaVuSans-30" x="63.623047"/>
       <use xlink:href="#DejaVuSans-30" x="127.246094"/>
      </g>
     </g>
    </g>
    <g id="xtick_4">
     <g id="line2d_4">
      <g>
       <use xlink:href="#m97a972b627" x="827.431745" y="649.797067" style="stroke: #000000; stroke-width: 0.8"/>
      </g>
     </g>
     <g id="text_4">
      <!-- 800 -->
      <g transform="translate(817.887995 664.395504) scale(0.1 -0.1)">
       <defs>
        <path id="DejaVuSans-38" d="M 2034 2216 
Q 1584 2216 1326 1975 
Q 1069 1734 1069 1313 
Q 1069 891 1326 650 
Q 1584 409 2034 409 
Q 2484 409 2743 651 
Q 3003 894 3003 1313 
Q 3003 1734 2745 1975 
Q 2488 2216 2034 2216 
z
M 1403 2484 
Q 997 2584 770 2862 
Q 544 3141 544 3541 
Q 544 4100 942 4425 
Q 1341 4750 2034 4750 
Q 2731 4750 3128 4425 
Q 3525 4100 3525 3541 
Q 3525 3141 3298 2862 
Q 3072 2584 2669 2484 
Q 3125 2378 3379 2068 
Q 3634 1759 3634 1313 
Q 3634 634 3220 271 
Q 2806 -91 2034 -91 
Q 1263 -91 848 271 
Q 434 634 434 1313 
Q 434 1759 690 2068 
Q 947 2378 1403 2484 
z
M 1172 3481 
Q 1172 3119 1398 2916 
Q 1625 2713 2034 2713 
Q 2441 2713 2670 2916 
Q 2900 3119 2900 3481 
Q 2900 3844 2670 4047 
Q 2441 4250 2034 4250 
Q 1625 4250 1398 4047 
Q 1172 3844 1172 3481 
z
" transform="scale(0.015625)"/>
       </defs>
       <use xlink:href="#DejaVuSans-38"/>
       <use xlink:href="#DejaVuSans-30" x="63.623047"/>
       <use xlink:href="#DejaVuSans-30" x="127.246094"/>
      </g>
     </g>
    </g>
    <g id="xtick_5">
     <g id="line2d_5">
      <g>
       <use xlink:href="#m97a972b627" x="1007.614906" y="649.797067" style="stroke: #000000; stroke-width: 0.8"/>
      </g>
     </g>
     <g id="text_5">
      <!-- 1000 -->
      <g transform="translate(994.889906 664.395504) scale(0.1 -0.1)">
       <defs>
        <path id="DejaVuSans-31" d="M 794 531 
L 1825 531 
L 1825 4091 
L 703 3866 
L 703 4441 
L 1819 4666 
L 2450 4666 
L 2450 531 
L 3481 531 
L 3481 0 
L 794 0 
L 794 531 
z
" transform="scale(0.015625)"/>
       </defs>
       <use xlink:href="#DejaVuSans-31"/>
       <use xlink:href="#DejaVuSans-30" x="63.623047"/>
       <use xlink:href="#DejaVuSans-30" x="127.246094"/>
       <use xlink:href="#DejaVuSans-30" x="190.869141"/>
      </g>
     </g>
    </g>
    <g id="xtick_6">
     <g id="line2d_6">
      <g>
       <use xlink:href="#m97a972b627" x="1187.798066" y="649.797067" style="stroke: #000000; stroke-width: 0.8"/>
      </g>
     </g>
     <g id="text_6">
      <!-- 1200 -->
      <g transform="translate(1175.073066 664.395504) scale(0.1 -0.1)">
       <use xlink:href="#DejaVuSans-31"/>
       <use xlink:href="#DejaVuSans-32" x="63.623047"/>
       <use xlink:href="#DejaVuSans-30" x="127.246094"/>
       <use xlink:href="#DejaVuSans-30" x="190.869141"/>
      </g>
     </g>
    </g>
   </g>
   <g id="matplotlib.axis_2">
    <g id="ytick_1">
     <g id="line2d_7">
      <defs>
       <path id="mafc5bd5f00" d="M 0 0 
L -3.5 0 
" style="stroke: #000000; stroke-width: 0.8"/>
      </defs>
      <g>
       <use xlink:href="#mafc5bd5f00" x="180" y="632.65415" style="stroke: #000000; stroke-width: 0.8"/>
      </g>
     </g>
     <g id="text_7">
      <!-- 200 -->
      <g transform="translate(153.9125 636.453369) scale(0.1 -0.1)">
       <use xlink:href="#DejaVuSans-32"/>
       <use xlink:href="#DejaVuSans-30" x="63.623047"/>
       <use xlink:href="#DejaVuSans-30" x="127.246094"/>
      </g>
     </g>
    </g>
    <g id="ytick_2">
     <g id="line2d_8">
      <g>
       <use xlink:href="#mafc5bd5f00" x="180" y="587.60836" style="stroke: #000000; stroke-width: 0.8"/>
      </g>
     </g>
     <g id="text_8">
      <!-- 250 -->
      <g transform="translate(153.9125 591.407579) scale(0.1 -0.1)">
       <defs>
        <path id="DejaVuSans-35" d="M 691 4666 
L 3169 4666 
L 3169 4134 
L 1269 4134 
L 1269 2991 
Q 1406 3038 1543 3061 
Q 1681 3084 1819 3084 
Q 2600 3084 3056 2656 
Q 3513 2228 3513 1497 
Q 3513 744 3044 326 
Q 2575 -91 1722 -91 
Q 1428 -91 1123 -41 
Q 819 9 494 109 
L 494 744 
Q 775 591 1075 516 
Q 1375 441 1709 441 
Q 2250 441 2565 725 
Q 2881 1009 2881 1497 
Q 2881 1984 2565 2268 
Q 2250 2553 1709 2553 
Q 1456 2553 1204 2497 
Q 953 2441 691 2322 
L 691 4666 
z
" transform="scale(0.015625)"/>
       </defs>
       <use xlink:href="#DejaVuSans-32"/>
       <use xlink:href="#DejaVuSans-35" x="63.623047"/>
       <use xlink:href="#DejaVuSans-30" x="127.246094"/>
      </g>
     </g>
    </g>
    <g id="ytick_3">
     <g id="line2d_9">
      <g>
       <use xlink:href="#mafc5bd5f00" x="180" y="542.56257" style="stroke: #000000; stroke-width: 0.8"/>
      </g>
     </g>
     <g id="text_9">
      <!-- 300 -->
      <g transform="translate(153.9125 546.361789) scale(0.1 -0.1)">
       <defs>
        <path id="DejaVuSans-33" d="M 2597 2516 
Q 3050 2419 3304 2112 
Q 3559 1806 3559 1356 
Q 3559 666 3084 287 
Q 2609 -91 1734 -91 
Q 1441 -91 1130 -33 
Q 819 25 488 141 
L 488 750 
Q 750 597 1062 519 
Q 1375 441 1716 441 
Q 2309 441 2620 675 
Q 2931 909 2931 1356 
Q 2931 1769 2642 2001 
Q 2353 2234 1838 2234 
L 1294 2234 
L 1294 2753 
L 1863 2753 
Q 2328 2753 2575 2939 
Q 2822 3125 2822 3475 
Q 2822 3834 2567 4026 
Q 2313 4219 1838 4219 
Q 1578 4219 1281 4162 
Q 984 4106 628 3988 
L 628 4550 
Q 988 4650 1302 4700 
Q 1616 4750 1894 4750 
Q 2613 4750 3031 4423 
Q 3450 4097 3450 3541 
Q 3450 3153 3228 2886 
Q 3006 2619 2597 2516 
z
" transform="scale(0.015625)"/>
       </defs>
       <use xlink:href="#DejaVuSans-33"/>
       <use xlink:href="#DejaVuSans-30" x="63.623047"/>
       <use xlink:href="#DejaVuSans-30" x="127.246094"/>
      </g>
     </g>
    </g>
    <g id="ytick_4">
     <g id="line2d_10">
      <g>
       <use xlink:href="#mafc5bd5f00" x="180" y="497.51678" style="stroke: #000000; stroke-width: 0.8"/>
      </g>
     </g>
     <g id="text_10">
      <!-- 350 -->
      <g transform="translate(153.9125 501.315999) scale(0.1 -0.1)">
       <use xlink:href="#DejaVuSans-33"/>
       <use xlink:href="#DejaVuSans-35" x="63.623047"/>
       <use xlink:href="#DejaVuSans-30" x="127.246094"/>
      </g>
     </g>
    </g>
    <g id="ytick_5">
     <g id="line2d_11">
      <g>
       <use xlink:href="#mafc5bd5f00" x="180" y="452.47099" style="stroke: #000000; stroke-width: 0.8"/>
      </g>
     </g>
     <g id="text_11">
      <!-- 400 -->
      <g transform="translate(153.9125 456.270209) scale(0.1 -0.1)">
       <use xlink:href="#DejaVuSans-34"/>
       <use xlink:href="#DejaVuSans-30" x="63.623047"/>
       <use xlink:href="#DejaVuSans-30" x="127.246094"/>
      </g>
     </g>
    </g>
   </g>
   <g id="LineCollection_1">
    <path d="M 1234.829638 550.536449 
L 1220.279616 560.884693 
L 1206.537212 569.092164 
L 1193.288179 575.563866 
L 1180.48597 580.498386 
L 1168.079823 584.07963 
L 1156.017884 586.475031 
L 1144.250941 587.835472 
L 1132.735539 588.296943 
L 1121.435603 587.983197 
L 1110.322462 587.008459 
L 1099.373769 585.479514 
L 1088.571946 583.496962 
L 1077.902682 581.155774 
L 1067.353737 578.545395 
L 1056.914119 575.749635 
L 1005.941267 561.494225 
L 995.939753 559.013335 
L 985.989027 556.770274 
L 976.083868 554.80202 
L 966.220307 553.139835 
L 956.39566 551.809291 
L 946.608466 550.8303 
L 936.85835 550.217157 
L 927.1458 549.978635 
L 917.471895 550.118151 
L 907.83802 550.634008 
L 898.245588 551.519722 
L 888.695827 552.764413 
L 879.189629 554.353229 
L 869.727482 556.267788 
L 860.309469 558.486605 
L 850.935325 560.985491 
L 841.604522 563.737905 
L 832.31638 566.715281 
L 823.070169 569.88731 
L 813.86521 573.222198 
L 795.577051 580.247384 
L 741.636582 601.664448 
L 732.79069 604.908996 
L 723.990487 607.967391 
L 715.237264 610.806911 
L 706.532154 613.396274 
L 697.875963 615.70588 
L 689.268961 617.708034 
L 680.71064 619.377115 
L 672.19946 620.689684 
L 663.732606 621.624514 
L 655.30579 622.162529 
L 646.913154 622.286665 
L 638.547294 621.981694 
L 630.199464 621.234041 
L 621.859915 620.031684 
L 613.518362 618.36417 
L 605.164485 616.222808 
L 596.788389 613.601017 
L 588.380942 610.494798 
L 579.933956 606.903265 
L 571.440194 602.829172 
L 562.893234 598.279372 
L 554.28724 593.265176 
L 545.616677 587.802609 
L 536.876024 581.912574 
L 528.059503 575.620934 
L 519.160837 568.958546 
L 510.173054 561.961261 
L 501.088318 554.669911 
L 482.591458 539.393122 
L 463.561144 523.534222 
L 453.81649 515.544607 
L 443.900161 507.609766 
L 433.793801 499.805807 
L 423.47693 492.214425 
L 412.926835 484.923339 
L 402.11858 478.026908 
L 391.025316 471.626981 
L 379.619095 465.83392 
L 367.872468 460.767615 
L 355.76109 456.558054 
L 343.2672 453.344696 
L 330.383172 451.273819 
L 317.113415 450.493576 
L 303.472686 451.147854 
L 289.480104 453.371537 
L 275.150739 457.289788 
L 260.488389 463.021847 
L 245.482385 470.687232 
L 230.727273 479.984493 
L 230.727273 479.984493 
" clip-path="url(#p73a5696ed1)" style="fill: none; stroke: #1f77b4; stroke-width: 1.5"/>
    <path d="M 1240.051183 557.878139 
L 1225.207961 568.434911 
L 1210.831584 577.021014 
L 1196.892067 583.829994 
L 1183.360781 589.045531 
L 1170.210418 592.841606 
L 1157.414961 595.382678 
L 1144.94965 596.823861 
L 1132.790953 597.311111 
L 1120.91653 596.981414 
L 1109.305204 595.962981 
L 1097.936928 594.375442 
L 1086.792754 592.330056 
L 1075.854799 589.929908 
L 1065.106216 587.270128 
L 1054.531161 584.438098 
L 1044.114762 581.51367 
L 1033.843086 578.56939 
L 1023.70311 575.670716 
L 1013.682689 572.876248 
L 1003.770523 570.237955 
L 993.956129 567.801405 
L 984.229807 565.606001 
L 974.582611 563.685215 
L 965.006318 562.066825 
L 955.493398 560.773155 
L 946.036981 559.821314 
L 936.630829 559.223442 
L 927.269307 558.986947 
L 917.947348 559.114755 
L 908.660429 559.60555 
L 899.404536 560.454025 
L 890.176138 561.651123 
L 880.972156 563.184283 
L 871.789933 565.037692 
L 862.627207 567.192524 
L 853.48208 569.62719 
L 844.352989 572.317582 
L 835.23868 575.237317 
L 826.138177 578.357981 
L 817.050752 581.649372 
L 807.975904 585.07974 
L 798.913321 588.61603 
L 789.862862 592.224114 
L 780.824524 595.869034 
L 771.798414 599.515232 
L 762.784725 603.126785 
L 753.783709 606.66763 
L 744.795647 610.101799 
L 735.820826 613.393636 
L 726.859512 616.508023 
L 717.911923 619.410595 
L 708.978202 622.067958 
L 700.058397 624.447901 
L 691.152429 626.5196 
L 682.260071 628.253826 
L 673.380923 629.623142 
L 664.514385 630.602102 
L 655.659636 631.167438 
L 646.815608 631.298251 
L 637.980963 630.976191 
L 629.15407 630.185632 
L 620.332979 628.913848 
L 611.515404 627.151175 
L 602.698693 624.891175 
L 593.879812 622.130788 
L 585.055319 618.870487 
L 576.221346 615.114412 
L 567.373574 610.870517 
L 558.507212 606.15069 
L 549.616981 600.970885 
L 540.697086 595.351236 
L 531.741204 589.316165 
L 522.742458 582.894486 
L 513.6934 576.1195 
L 504.585992 569.029084 
L 495.411586 561.665766 
L 486.160909 554.076803 
L 476.824038 546.314242 
L 467.39039 538.434972 
L 457.8487 530.500778 
L 448.187004 522.578371 
L 438.392627 514.739422 
L 428.452158 507.060583 
L 418.351442 499.623494 
L 408.075563 492.514787 
L 397.608824 485.826077 
L 386.934739 479.653943 
L 376.036013 474.099902 
L 364.894532 469.270369 
L 353.491345 465.276609 
L 341.806657 462.234676 
L 329.819811 460.265345 
L 317.509275 459.494033 
L 304.852637 460.0507 
L 291.826586 462.069753 
L 278.406904 465.689926 
L 264.568455 471.054156 
L 250.285175 478.309445 
L 235.530063 487.606706 
" clip-path="url(#p73a5696ed1)" style="fill: none; stroke: #8c564b; stroke-width: 1.5"/>
    <path d="M 1245.272727 565.219828 
L 1229.82741 576.169613 
L 1214.785734 585.116051 
L 1200.132225 592.23632 
L 1185.859406 597.701269 
L 1171.965292 601.678198 
L 1158.449666 604.33222 
L 1145.310395 605.825794 
L 1132.540907 606.316799 
L 1120.129355 605.956117 
L 1108.059198 604.885559 
L 1096.310566 603.236586 
L 1084.86179 601.129846 
L 1073.690719 598.675289 
L 1062.775662 595.972625 
L 1052.095972 593.111897 
L 1001.526362 578.963457 
L 991.878709 576.568303 
L 982.358082 574.419328 
L 972.952027 572.546554 
L 963.648342 570.974235 
L 954.434951 569.721298 
L 945.299857 568.8018 
L 936.23118 568.225378 
L 927.217281 567.997665 
L 918.246943 568.120652 
L 909.309602 568.592973 
L 900.395564 569.410111 
L 891.496196 570.564527 
L 882.604049 572.045743 
L 873.712908 573.840398 
L 864.817768 575.9323 
L 855.91475 578.302511 
L 847.000964 580.929451 
L 838.074357 583.789056 
L 829.133551 586.854958 
L 820.177679 590.098702 
L 802.218975 596.996881 
L 747.89798 618.559958 
L 738.778324 621.903521 
L 729.639444 625.077556 
L 720.480502 628.045832 
L 711.300736 630.772599 
L 702.099601 633.222775 
L 692.876944 635.362167 
L 683.633205 637.157726 
L 674.369621 638.577884 
L 665.088411 639.592954 
L 655.792877 640.175611 
L 646.487404 640.301429 
L 637.177297 639.949432 
L 627.868464 639.102591 
L 618.566949 637.748216 
L 609.278396 635.878186 
L 600.007502 633.48899 
L 590.757564 630.581617 
L 581.530171 627.161341 
L 572.325068 623.237463 
L 563.140186 618.823086 
L 553.971786 613.934958 
L 544.814689 608.593413 
L 535.662525 602.822389 
L 526.507974 596.649529 
L 517.342988 590.106327 
L 508.158968 583.228297 
L 498.946912 576.055157 
L 489.697529 568.631 
L 471.048778 553.228813 
L 452.112338 537.447722 
L 442.515841 529.578776 
L 432.823704 521.821656 
L 423.026847 514.253755 
L 413.116739 506.95701 
L 403.085516 500.017552 
L 392.926006 493.525174 
L 382.631557 487.57256 
L 372.195462 482.254278 
L 361.609751 477.665656 
L 350.863068 473.901824 
L 339.937575 471.057536 
L 328.805311 469.228606 
L 317.425287 468.515594 
L 305.743226 469.029397 
L 293.695421 470.896821 
L 281.216157 474.263301 
L 268.245792 479.291034 
L 254.73607 486.153389 
L 240.332853 495.228919 
L 240.332853 495.228919 
" clip-path="url(#p73a5696ed1)" style="fill: none; stroke: #17becf; stroke-width: 1.5"/>
   </g>
   <g id="patch_3">
    <path d="M 180 649.797067 
L 180 441.002933 
" style="fill: none; stroke: #000000; stroke-width: 0.8; stroke-linejoin: miter; stroke-linecap: square"/>
   </g>
   <g id="patch_4">
    <path d="M 1296 649.797067 
L 1296 441.002933 
" style="fill: none; stroke: #000000; stroke-width: 0.8; stroke-linejoin: miter; stroke-linecap: square"/>
   </g>
   <g id="patch_5">
    <path d="M 180 649.797067 
L 1296 649.797067 
" style="fill: none; stroke: #000000; stroke-width: 0.8; stroke-linejoin: miter; stroke-linecap: square"/>
   </g>
   <g id="patch_6">
    <path d="M 180 441.002933 
L 1296 441.002933 
" style="fill: none; stroke: #000000; stroke-width: 0.8; stroke-linejoin: miter; stroke-linecap: square"/>
   </g>
  </g>
 </g>
 <defs>
  <clipPath id="p73a5696ed1">
   <rect x="180" y="441.002933" width="1116" height="208.794133"/>
  </clipPath>
 </defs>
</svg>
