<?xml version="1.0" encoding="utf-8" standalone="no"?>
<!DOCTYPE svg PUBLIC "-//W3C//DTD SVG 1.1//EN"
  "http://www.w3.org/Graphics/SVG/1.1/DTD/svg11.dtd">
<svg xmlns:xlink="http://www.w3.org/1999/xlink" width="1440pt" height="1080pt" viewBox="0 0 1440 1080" xmlns="http://www.w3.org/2000/svg" version="1.1">
 <metadata>
  <rdf:RDF xmlns:dc="http://purl.org/dc/elements/1.1/" xmlns:cc="http://creativecommons.org/ns#" xmlns:rdf="http://www.w3.org/1999/02/22-rdf-syntax-ns#">
   <cc:Work>
    <dc:type rdf:resource="http://purl.org/dc/dcmitype/StillImage"/>
    <dc:date>2023-12-11T12:06:59.984453</dc:date>
    <dc:format>image/svg+xml</dc:format>
    <dc:creator>
     <cc:Agent>
      <dc:title>Matplotlib v3.7.1, https://matplotlib.org/</dc:title>
     </cc:Agent>
    </dc:creator>
   </cc:Work>
  </rdf:RDF>
 </metadata>
 <defs>
  <style type="text/css">*{stroke-linejoin: round; stroke-linecap: butt}</style>
 </defs>
 <g id="figure_1">
  <g id="patch_1">
   <path d="M 0 1080 
L 1440 1080 
L 1440 0 
L 0 0 
z
" style="fill: #ffffff"/>
  </g>
  <g id="axes_1">
   <g id="patch_2">
    <path d="M 443.637966 961.2 
L 1032.362034 961.2 
L 1032.362034 129.6 
L 443.637966 129.6 
z
" style="fill: #ffffff"/>
   </g>
   <g id="matplotlib.axis_1">
    <g id="xtick_1">
     <g id="line2d_1">
      <defs>
       <path id="m9f5e79a70e" d="M 0 0 
L 0 3.5 
" style="stroke: #000000; stroke-width: 0.8"/>
      </defs>
      <g>
       <use xlink:href="#m9f5e79a70e" x="560.619633" y="961.2" style="stroke: #000000; stroke-width: 0.8"/>
      </g>
     </g>
     <g id="text_1">
      <!-- 100 -->
      <g transform="translate(551.075883 975.798437) scale(0.1 -0.1)">
       <defs>
        <path id="DejaVuSans-31" d="M 794 531 
L 1825 531 
L 1825 4091 
L 703 3866 
L 703 4441 
L 1819 4666 
L 2450 4666 
L 2450 531 
L 3481 531 
L 3481 0 
L 794 0 
L 794 531 
z
" transform="scale(0.015625)"/>
        <path id="DejaVuSans-30" d="M 2034 4250 
Q 1547 4250 1301 3770 
Q 1056 3291 1056 2328 
Q 1056 1369 1301 889 
Q 1547 409 2034 409 
Q 2525 409 2770 889 
Q 3016 1369 3016 2328 
Q 3016 3291 2770 3770 
Q 2525 4250 2034 4250 
z
M 2034 4750 
Q 2819 4750 3233 4129 
Q 3647 3509 3647 2328 
Q 3647 1150 3233 529 
Q 2819 -91 2034 -91 
Q 1250 -91 836 529 
Q 422 1150 422 2328 
Q 422 3509 836 4129 
Q 1250 4750 2034 4750 
z
" transform="scale(0.015625)"/>
       </defs>
       <use xlink:href="#DejaVuSans-31"/>
       <use xlink:href="#DejaVuSans-30" x="63.623047"/>
       <use xlink:href="#DejaVuSans-30" x="127.246094"/>
      </g>
     </g>
    </g>
    <g id="xtick_2">
     <g id="line2d_2">
      <g>
       <use xlink:href="#m9f5e79a70e" x="681.995992" y="961.2" style="stroke: #000000; stroke-width: 0.8"/>
      </g>
     </g>
     <g id="text_2">
      <!-- 200 -->
      <g transform="translate(672.452242 975.798437) scale(0.1 -0.1)">
       <defs>
        <path id="DejaVuSans-32" d="M 1228 531 
L 3431 531 
L 3431 0 
L 469 0 
L 469 531 
Q 828 903 1448 1529 
Q 2069 2156 2228 2338 
Q 2531 2678 2651 2914 
Q 2772 3150 2772 3378 
Q 2772 3750 2511 3984 
Q 2250 4219 1831 4219 
Q 1534 4219 1204 4116 
Q 875 4013 500 3803 
L 500 4441 
Q 881 4594 1212 4672 
Q 1544 4750 1819 4750 
Q 2544 4750 2975 4387 
Q 3406 4025 3406 3419 
Q 3406 3131 3298 2873 
Q 3191 2616 2906 2266 
Q 2828 2175 2409 1742 
Q 1991 1309 1228 531 
z
" transform="scale(0.015625)"/>
       </defs>
       <use xlink:href="#DejaVuSans-32"/>
       <use xlink:href="#DejaVuSans-30" x="63.623047"/>
       <use xlink:href="#DejaVuSans-30" x="127.246094"/>
      </g>
     </g>
    </g>
    <g id="xtick_3">
     <g id="line2d_3">
      <g>
       <use xlink:href="#m9f5e79a70e" x="803.372351" y="961.2" style="stroke: #000000; stroke-width: 0.8"/>
      </g>
     </g>
     <g id="text_3">
      <!-- 300 -->
      <g transform="translate(793.828601 975.798437) scale(0.1 -0.1)">
       <defs>
        <path id="DejaVuSans-33" d="M 2597 2516 
Q 3050 2419 3304 2112 
Q 3559 1806 3559 1356 
Q 3559 666 3084 287 
Q 2609 -91 1734 -91 
Q 1441 -91 1130 -33 
Q 819 25 488 141 
L 488 750 
Q 750 597 1062 519 
Q 1375 441 1716 441 
Q 2309 441 2620 675 
Q 2931 909 2931 1356 
Q 2931 1769 2642 2001 
Q 2353 2234 1838 2234 
L 1294 2234 
L 1294 2753 
L 1863 2753 
Q 2328 2753 2575 2939 
Q 2822 3125 2822 3475 
Q 2822 3834 2567 4026 
Q 2313 4219 1838 4219 
Q 1578 4219 1281 4162 
Q 984 4106 628 3988 
L 628 4550 
Q 988 4650 1302 4700 
Q 1616 4750 1894 4750 
Q 2613 4750 3031 4423 
Q 3450 4097 3450 3541 
Q 3450 3153 3228 2886 
Q 3006 2619 2597 2516 
z
" transform="scale(0.015625)"/>
       </defs>
       <use xlink:href="#DejaVuSans-33"/>
       <use xlink:href="#DejaVuSans-30" x="63.623047"/>
       <use xlink:href="#DejaVuSans-30" x="127.246094"/>
      </g>
     </g>
    </g>
    <g id="xtick_4">
     <g id="line2d_4">
      <g>
       <use xlink:href="#m9f5e79a70e" x="924.74871" y="961.2" style="stroke: #000000; stroke-width: 0.8"/>
      </g>
     </g>
     <g id="text_4">
      <!-- 400 -->
      <g transform="translate(915.20496 975.798437) scale(0.1 -0.1)">
       <defs>
        <path id="DejaVuSans-34" d="M 2419 4116 
L 825 1625 
L 2419 1625 
L 2419 4116 
z
M 2253 4666 
L 3047 4666 
L 3047 1625 
L 3713 1625 
L 3713 1100 
L 3047 1100 
L 3047 0 
L 2419 0 
L 2419 1100 
L 313 1100 
L 313 1709 
L 2253 4666 
z
" transform="scale(0.015625)"/>
       </defs>
       <use xlink:href="#DejaVuSans-34"/>
       <use xlink:href="#DejaVuSans-30" x="63.623047"/>
       <use xlink:href="#DejaVuSans-30" x="127.246094"/>
      </g>
     </g>
    </g>
   </g>
   <g id="matplotlib.axis_2">
    <g id="ytick_1">
     <g id="line2d_5">
      <defs>
       <path id="m226e7659e8" d="M 0 0 
L -3.5 0 
" style="stroke: #000000; stroke-width: 0.8"/>
      </defs>
      <g>
       <use xlink:href="#m226e7659e8" x="443.637966" y="951.214888" style="stroke: #000000; stroke-width: 0.8"/>
      </g>
     </g>
     <g id="text_5">
      <!-- 0 -->
      <g transform="translate(430.275466 955.014107) scale(0.1 -0.1)">
       <use xlink:href="#DejaVuSans-30"/>
      </g>
     </g>
    </g>
    <g id="ytick_2">
     <g id="line2d_6">
      <g>
       <use xlink:href="#m226e7659e8" x="443.637966" y="829.838529" style="stroke: #000000; stroke-width: 0.8"/>
      </g>
     </g>
     <g id="text_6">
      <!-- 100 -->
      <g transform="translate(417.550466 833.637748) scale(0.1 -0.1)">
       <use xlink:href="#DejaVuSans-31"/>
       <use xlink:href="#DejaVuSans-30" x="63.623047"/>
       <use xlink:href="#DejaVuSans-30" x="127.246094"/>
      </g>
     </g>
    </g>
    <g id="ytick_3">
     <g id="line2d_7">
      <g>
       <use xlink:href="#m226e7659e8" x="443.637966" y="708.46217" style="stroke: #000000; stroke-width: 0.8"/>
      </g>
     </g>
     <g id="text_7">
      <!-- 200 -->
      <g transform="translate(417.550466 712.261389) scale(0.1 -0.1)">
       <use xlink:href="#DejaVuSans-32"/>
       <use xlink:href="#DejaVuSans-30" x="63.623047"/>
       <use xlink:href="#DejaVuSans-30" x="127.246094"/>
      </g>
     </g>
    </g>
    <g id="ytick_4">
     <g id="line2d_8">
      <g>
       <use xlink:href="#m226e7659e8" x="443.637966" y="587.085811" style="stroke: #000000; stroke-width: 0.8"/>
      </g>
     </g>
     <g id="text_8">
      <!-- 300 -->
      <g transform="translate(417.550466 590.88503) scale(0.1 -0.1)">
       <use xlink:href="#DejaVuSans-33"/>
       <use xlink:href="#DejaVuSans-30" x="63.623047"/>
       <use xlink:href="#DejaVuSans-30" x="127.246094"/>
      </g>
     </g>
    </g>
    <g id="ytick_5">
     <g id="line2d_9">
      <g>
       <use xlink:href="#m226e7659e8" x="443.637966" y="465.709452" style="stroke: #000000; stroke-width: 0.8"/>
      </g>
     </g>
     <g id="text_9">
      <!-- 400 -->
      <g transform="translate(417.550466 469.508671) scale(0.1 -0.1)">
       <use xlink:href="#DejaVuSans-34"/>
       <use xlink:href="#DejaVuSans-30" x="63.623047"/>
       <use xlink:href="#DejaVuSans-30" x="127.246094"/>
      </g>
     </g>
    </g>
    <g id="ytick_6">
     <g id="line2d_10">
      <g>
       <use xlink:href="#m226e7659e8" x="443.637966" y="344.333093" style="stroke: #000000; stroke-width: 0.8"/>
      </g>
     </g>
     <g id="text_10">
      <!-- 500 -->
      <g transform="translate(417.550466 348.132312) scale(0.1 -0.1)">
       <defs>
        <path id="DejaVuSans-35" d="M 691 4666 
L 3169 4666 
L 3169 4134 
L 1269 4134 
L 1269 2991 
Q 1406 3038 1543 3061 
Q 1681 3084 1819 3084 
Q 2600 3084 3056 2656 
Q 3513 2228 3513 1497 
Q 3513 744 3044 326 
Q 2575 -91 1722 -91 
Q 1428 -91 1123 -41 
Q 819 9 494 109 
L 494 744 
Q 775 591 1075 516 
Q 1375 441 1709 441 
Q 2250 441 2565 725 
Q 2881 1009 2881 1497 
Q 2881 1984 2565 2268 
Q 2250 2553 1709 2553 
Q 1456 2553 1204 2497 
Q 953 2441 691 2322 
L 691 4666 
z
" transform="scale(0.015625)"/>
       </defs>
       <use xlink:href="#DejaVuSans-35"/>
       <use xlink:href="#DejaVuSans-30" x="63.623047"/>
       <use xlink:href="#DejaVuSans-30" x="127.246094"/>
      </g>
     </g>
    </g>
    <g id="ytick_7">
     <g id="line2d_11">
      <g>
       <use xlink:href="#m226e7659e8" x="443.637966" y="222.956734" style="stroke: #000000; stroke-width: 0.8"/>
      </g>
     </g>
     <g id="text_11">
      <!-- 600 -->
      <g transform="translate(417.550466 226.755953) scale(0.1 -0.1)">
       <defs>
        <path id="DejaVuSans-36" d="M 2113 2584 
Q 1688 2584 1439 2293 
Q 1191 2003 1191 1497 
Q 1191 994 1439 701 
Q 1688 409 2113 409 
Q 2538 409 2786 701 
Q 3034 994 3034 1497 
Q 3034 2003 2786 2293 
Q 2538 2584 2113 2584 
z
M 3366 4563 
L 3366 3988 
Q 3128 4100 2886 4159 
Q 2644 4219 2406 4219 
Q 1781 4219 1451 3797 
Q 1122 3375 1075 2522 
Q 1259 2794 1537 2939 
Q 1816 3084 2150 3084 
Q 2853 3084 3261 2657 
Q 3669 2231 3669 1497 
Q 3669 778 3244 343 
Q 2819 -91 2113 -91 
Q 1303 -91 875 529 
Q 447 1150 447 2328 
Q 447 3434 972 4092 
Q 1497 4750 2381 4750 
Q 2619 4750 2861 4703 
Q 3103 4656 3366 4563 
z
" transform="scale(0.015625)"/>
       </defs>
       <use xlink:href="#DejaVuSans-36"/>
       <use xlink:href="#DejaVuSans-30" x="63.623047"/>
       <use xlink:href="#DejaVuSans-30" x="127.246094"/>
      </g>
     </g>
    </g>
   </g>
   <g id="LineCollection_1">
    <path d="M 564.2485 167.4 
L 556.605604 185.03308 
L 548.709709 202.438402 
L 532.638275 236.693756 
L 517.119698 269.803334 
L 509.866212 285.778978 
L 503.069264 301.323442 
L 496.799915 316.414266 
L 491.116176 331.036996 
L 486.064409 345.184249 
L 481.680726 358.854687 
L 477.992296 372.051822 
L 475.01852 384.782628 
L 472.771914 397.055935 
L 471.25858 408.880709 
L 470.4781 420.264408 
L 470.42284 431.21176 
L 471.076802 441.724371 
L 472.414446 451.801455 
L 474.400046 461.441706 
L 476.988094 470.645874 
L 480.124942 479.419317 
L 483.751407 487.773776 
L 487.805734 495.727947 
L 492.226289 503.306877 
L 496.953569 510.540552 
L 501.931419 517.462154 
L 507.107579 524.106384 
L 512.433793 530.508077 
L 517.86569 536.70118 
L 523.362602 542.718065 
L 534.406414 554.342597 
L 550.681888 571.186877 
L 561.045882 582.256224 
L 566.028221 587.791479 
L 570.864263 593.346889 
L 575.548621 598.935392 
L 580.079386 604.568543 
L 584.457971 610.25656 
L 588.688929 616.008319 
L 592.779765 621.831298 
L 596.740766 627.731471 
L 600.584853 633.713186 
L 604.32748 639.779028 
L 611.582481 652.163926 
L 618.67833 664.867813 
L 629.533028 684.46691 
L 633.330008 691.091677 
L 637.273263 697.733986 
L 641.400054 704.375513 
L 645.748219 710.995736 
L 650.355406 717.57198 
L 655.258178 724.079607 
L 660.49106 730.49241 
L 666.085612 736.783284 
L 672.069668 742.925149 
L 678.466833 748.892082 
L 685.296318 754.660506 
L 692.573098 760.210287 
L 700.308278 765.525572 
L 708.509533 770.595296 
L 717.181428 775.413335 
L 726.32553 779.97841 
L 735.940221 784.293821 
L 746.020256 788.367162 
L 756.556088 792.210072 
L 767.533053 795.838092 
L 778.930467 799.270639 
L 790.720687 802.531066 
L 802.868155 805.646816 
L 815.328446 808.649597 
L 840.959587 814.465539 
L 867.112129 820.340023 
L 880.135287 823.425368 
L 892.967444 826.686811 
L 905.473304 830.186628 
L 917.499161 833.98769 
L 928.871861 838.149733 
L 939.39953 842.723425 
L 948.877158 847.742108 
L 957.103156 853.21406 
L 963.914756 859.126936 
L 969.238132 865.491131 
L 973.104362 872.444006 
L 975.545909 880.35413 
L 976.405845 889.769783 
L 975.272263 901.204677 
L 971.360875 915.91407 
L 971.360875 915.91407 
" clip-path="url(#p7fd82fb44a)" style="fill: none; stroke: #1f77b4; stroke-width: 1.5"/>
    <path d="M 577.612323 173.192427 
L 569.920522 190.938336 
L 561.942484 208.52473 
L 553.854394 225.871143 
L 545.811214 242.908066 
L 537.94804 259.576224 
L 530.381403 275.825887 
L 523.210531 291.616198 
L 516.518568 306.914523 
L 510.373752 321.695831 
L 504.83055 335.942087 
L 499.930748 349.641674 
L 495.704507 362.788836 
L 492.171376 375.383138 
L 489.341261 387.428956 
L 487.215362 398.934977 
L 485.787064 409.913734 
L 485.042795 420.381144 
L 484.962846 430.356085 
L 485.522148 439.85998 
L 486.691016 448.916404 
L 488.435863 457.550714 
L 490.719864 465.789695 
L 493.503596 473.661228 
L 496.745642 481.19397 
L 500.403152 488.417063 
L 504.432385 495.359853 
L 508.7892 502.051628 
L 513.429529 508.52138 
L 518.309813 514.797574 
L 523.387398 520.907946 
L 528.620914 526.879309 
L 533.970612 532.737378 
L 539.398675 538.506614 
L 544.869499 544.210083 
L 550.349945 549.869327 
L 555.809557 555.504258 
L 561.220761 561.133059 
L 566.55903 566.772109 
L 571.803019 572.435916 
L 576.934681 578.137064 
L 581.939349 583.886184 
L 586.805798 589.691925 
L 591.526279 595.560951 
L 596.096524 601.497944 
L 600.515736 607.505626 
L 604.786548 613.584784 
L 608.914957 619.734325 
L 612.910245 625.951321 
L 616.784865 632.23109 
L 620.554315 638.567268 
L 624.236984 644.951907 
L 627.853983 651.375579 
L 631.428949 657.827488 
L 634.987834 664.295602 
L 638.558674 670.766784 
L 642.171338 677.226944 
L 645.857254 683.661195 
L 649.649131 690.05402 
L 653.580644 696.389449 
L 657.686119 702.651245 
L 662.000194 708.823102 
L 666.557464 714.888845 
L 671.39211 720.832644 
L 676.537517 726.639238 
L 682.025874 732.294159 
L 687.887762 737.783974 
L 694.151727 743.096522 
L 700.843839 748.221175 
L 707.987246 753.149085 
L 715.601702 757.873459 
L 723.703098 762.389826 
L 732.302976 766.696312 
L 741.408027 770.793929 
L 751.019589 774.686861 
L 761.133131 778.382756 
L 771.737727 781.893032 
L 782.815519 785.233176 
L 794.341181 788.423055 
L 806.281369 791.487227 
L 818.59416 794.455264 
L 831.228496 797.362067 
L 844.123611 800.248193 
L 857.20846 803.160183 
L 870.401137 806.150894 
L 883.608295 809.279831 
L 896.724556 812.613482 
L 909.631918 816.225661 
L 922.199168 820.197843 
L 934.281277 824.619508 
L 945.718808 829.588484 
L 956.337313 835.211295 
L 965.946731 841.603501 
L 974.340788 848.890045 
L 981.296396 857.205603 
L 986.57305 866.694929 
L 989.912229 877.513197 
L 991.036795 889.826354 
L 989.6504 903.811461 
L 985.43689 919.657035 
" clip-path="url(#p7fd82fb44a)" style="fill: none; stroke: #8c564b; stroke-width: 1.5"/>
    <path d="M 590.976147 178.984853 
L 583.184637 196.955579 
L 575.143202 214.679812 
L 558.983252 249.124287 
L 543.61448 281.911481 
L 536.514188 297.546372 
L 529.91651 312.629156 
L 523.887095 327.132868 
L 518.477252 341.036384 
L 513.724737 354.324165 
L 509.654476 366.986099 
L 506.27925 379.01753 
L 503.600403 390.419504 
L 501.608689 401.199272 
L 500.285382 411.371009 
L 499.603814 420.956594 
L 499.531442 429.986203 
L 500.032376 438.4983 
L 501.070109 446.538684 
L 502.609927 454.158415 
L 504.620432 461.410825 
L 507.07381 468.34822 
L 509.944887 475.019034 
L 513.209421 481.466051 
L 516.8423 487.725881 
L 520.81617 493.829479 
L 525.100775 499.803263 
L 529.662968 505.670384 
L 534.467232 511.451841 
L 539.47646 517.167295 
L 544.652818 522.835552 
L 555.356737 534.102511 
L 571.798116 551.119891 
L 582.628626 562.691676 
L 587.92049 568.573803 
L 593.101781 574.529684 
L 598.155413 580.563386 
L 603.06785 586.676351 
L 607.829285 592.8674 
L 612.433781 599.132802 
L 616.87937 605.466434 
L 621.168071 611.859989 
L 625.305839 618.303234 
L 629.302416 624.784285 
L 636.928513 637.805645 
L 644.189991 650.806108 
L 654.847034 670.052242 
L 662.101937 682.498037 
L 665.860779 688.555216 
L 669.748027 694.484165 
L 673.795006 700.273905 
L 678.033757 705.915697 
L 682.497232 711.403173 
L 687.219486 716.732238 
L 692.235738 721.900727 
L 697.582203 726.907835 
L 703.295581 731.753423 
L 709.412191 736.43737 
L 715.966805 740.959099 
L 722.991307 745.317438 
L 730.513361 749.510832 
L 738.555209 753.537879 
L 747.132724 757.398086 
L 756.254713 761.092727 
L 765.922448 764.625706 
L 776.129375 768.004349 
L 786.86091 771.24009 
L 798.094286 774.349074 
L 809.798412 777.352667 
L 821.933714 780.27792 
L 847.296225 786.032758 
L 873.758858 791.978044 
L 887.196132 795.163478 
L 900.649862 798.587223 
L 914.021539 802.33771 
L 927.204867 806.51987 
L 940.084993 811.260583 
L 952.534852 816.716596 
L 964.404312 823.084156 
L 974.01373 829.476361 
L 975.494649 830.604354 
L 984.733753 838.685621 
L 985.512874 839.545074 
L 993.300806 848.957081 
L 994.025901 850.127208 
L 999.968894 860.976944 
L 1000.490332 862.399206 
L 1004.200696 874.687659 
L 1004.417023 876.188468 
L 1005.601849 889.882671 
L 1005.530912 891.263209 
L 1003.981926 906.409794 
L 1003.726415 907.554426 
L 999.512904 923.4 
L 999.512904 923.4 
" clip-path="url(#p7fd82fb44a)" style="fill: none; stroke: #17becf; stroke-width: 1.5"/>
   </g>
   <g id="patch_3">
    <path d="M 443.637966 961.2 
L 443.637966 129.6 
" style="fill: none; stroke: #000000; stroke-width: 0.8; stroke-linejoin: miter; stroke-linecap: square"/>
   </g>
   <g id="patch_4">
    <path d="M 1032.362034 961.2 
L 1032.362034 129.6 
" style="fill: none; stroke: #000000; stroke-width: 0.8; stroke-linejoin: miter; stroke-linecap: square"/>
   </g>
   <g id="patch_5">
    <path d="M 443.637966 961.2 
L 1032.362034 961.2 
" style="fill: none; stroke: #000000; stroke-width: 0.8; stroke-linejoin: miter; stroke-linecap: square"/>
   </g>
   <g id="patch_6">
    <path d="M 443.637966 129.6 
L 1032.362034 129.6 
" style="fill: none; stroke: #000000; stroke-width: 0.8; stroke-linejoin: miter; stroke-linecap: square"/>
   </g>
  </g>
 </g>
 <defs>
  <clipPath id="p7fd82fb44a">
   <rect x="443.637966" y="129.6" width="588.724068" height="831.6"/>
  </clipPath>
 </defs>
</svg>
