<?xml version="1.0" encoding="utf-8" standalone="no"?>
<!DOCTYPE svg PUBLIC "-//W3C//DTD SVG 1.1//EN"
  "http://www.w3.org/Graphics/SVG/1.1/DTD/svg11.dtd">
<svg xmlns:xlink="http://www.w3.org/1999/xlink" width="1440pt" height="1080pt" viewBox="0 0 1440 1080" xmlns="http://www.w3.org/2000/svg" version="1.1">
 <metadata>
  <rdf:RDF xmlns:dc="http://purl.org/dc/elements/1.1/" xmlns:cc="http://creativecommons.org/ns#" xmlns:rdf="http://www.w3.org/1999/02/22-rdf-syntax-ns#">
   <cc:Work>
    <dc:type rdf:resource="http://purl.org/dc/dcmitype/StillImage"/>
    <dc:date>2023-12-11T12:06:55.939470</dc:date>
    <dc:format>image/svg+xml</dc:format>
    <dc:creator>
     <cc:Agent>
      <dc:title>Matplotlib v3.7.1, https://matplotlib.org/</dc:title>
     </cc:Agent>
    </dc:creator>
   </cc:Work>
  </rdf:RDF>
 </metadata>
 <defs>
  <style type="text/css">*{stroke-linejoin: round; stroke-linecap: butt}</style>
 </defs>
 <g id="figure_1">
  <g id="patch_1">
   <path d="M 0 1080 
L 1440 1080 
L 1440 0 
L 0 0 
z
" style="fill: #ffffff"/>
  </g>
  <g id="axes_1">
   <g id="patch_2">
    <path d="M 180 789.540185 
L 1296 789.540185 
L 1296 301.259815 
L 180 301.259815 
z
" style="fill: #ffffff"/>
   </g>
   <g id="matplotlib.axis_1">
    <g id="xtick_1">
     <g id="line2d_1">
      <defs>
       <path id="m43ce1cb0f0" d="M 0 0 
L 0 3.5 
" style="stroke: #000000; stroke-width: 0.8"/>
      </defs>
      <g>
       <use xlink:href="#m43ce1cb0f0" x="237.843786" y="789.540185" style="stroke: #000000; stroke-width: 0.8"/>
      </g>
     </g>
     <g id="text_1">
      <!-- 400 -->
      <g transform="translate(228.300036 804.138623) scale(0.1 -0.1)">
       <defs>
        <path id="DejaVuSans-34" d="M 2419 4116 
L 825 1625 
L 2419 1625 
L 2419 4116 
z
M 2253 4666 
L 3047 4666 
L 3047 1625 
L 3713 1625 
L 3713 1100 
L 3047 1100 
L 3047 0 
L 2419 0 
L 2419 1100 
L 313 1100 
L 313 1709 
L 2253 4666 
z
" transform="scale(0.015625)"/>
        <path id="DejaVuSans-30" d="M 2034 4250 
Q 1547 4250 1301 3770 
Q 1056 3291 1056 2328 
Q 1056 1369 1301 889 
Q 1547 409 2034 409 
Q 2525 409 2770 889 
Q 3016 1369 3016 2328 
Q 3016 3291 2770 3770 
Q 2525 4250 2034 4250 
z
M 2034 4750 
Q 2819 4750 3233 4129 
Q 3647 3509 3647 2328 
Q 3647 1150 3233 529 
Q 2819 -91 2034 -91 
Q 1250 -91 836 529 
Q 422 1150 422 2328 
Q 422 3509 836 4129 
Q 1250 4750 2034 4750 
z
" transform="scale(0.015625)"/>
       </defs>
       <use xlink:href="#DejaVuSans-34"/>
       <use xlink:href="#DejaVuSans-30" x="63.623047"/>
       <use xlink:href="#DejaVuSans-30" x="127.246094"/>
      </g>
     </g>
    </g>
    <g id="xtick_2">
     <g id="line2d_2">
      <g>
       <use xlink:href="#m43ce1cb0f0" x="423.156757" y="789.540185" style="stroke: #000000; stroke-width: 0.8"/>
      </g>
     </g>
     <g id="text_2">
      <!-- 600 -->
      <g transform="translate(413.613007 804.138623) scale(0.1 -0.1)">
       <defs>
        <path id="DejaVuSans-36" d="M 2113 2584 
Q 1688 2584 1439 2293 
Q 1191 2003 1191 1497 
Q 1191 994 1439 701 
Q 1688 409 2113 409 
Q 2538 409 2786 701 
Q 3034 994 3034 1497 
Q 3034 2003 2786 2293 
Q 2538 2584 2113 2584 
z
M 3366 4563 
L 3366 3988 
Q 3128 4100 2886 4159 
Q 2644 4219 2406 4219 
Q 1781 4219 1451 3797 
Q 1122 3375 1075 2522 
Q 1259 2794 1537 2939 
Q 1816 3084 2150 3084 
Q 2853 3084 3261 2657 
Q 3669 2231 3669 1497 
Q 3669 778 3244 343 
Q 2819 -91 2113 -91 
Q 1303 -91 875 529 
Q 447 1150 447 2328 
Q 447 3434 972 4092 
Q 1497 4750 2381 4750 
Q 2619 4750 2861 4703 
Q 3103 4656 3366 4563 
z
" transform="scale(0.015625)"/>
       </defs>
       <use xlink:href="#DejaVuSans-36"/>
       <use xlink:href="#DejaVuSans-30" x="63.623047"/>
       <use xlink:href="#DejaVuSans-30" x="127.246094"/>
      </g>
     </g>
    </g>
    <g id="xtick_3">
     <g id="line2d_3">
      <g>
       <use xlink:href="#m43ce1cb0f0" x="608.469728" y="789.540185" style="stroke: #000000; stroke-width: 0.8"/>
      </g>
     </g>
     <g id="text_3">
      <!-- 800 -->
      <g transform="translate(598.925978 804.138623) scale(0.1 -0.1)">
       <defs>
        <path id="DejaVuSans-38" d="M 2034 2216 
Q 1584 2216 1326 1975 
Q 1069 1734 1069 1313 
Q 1069 891 1326 650 
Q 1584 409 2034 409 
Q 2484 409 2743 651 
Q 3003 894 3003 1313 
Q 3003 1734 2745 1975 
Q 2488 2216 2034 2216 
z
M 1403 2484 
Q 997 2584 770 2862 
Q 544 3141 544 3541 
Q 544 4100 942 4425 
Q 1341 4750 2034 4750 
Q 2731 4750 3128 4425 
Q 3525 4100 3525 3541 
Q 3525 3141 3298 2862 
Q 3072 2584 2669 2484 
Q 3125 2378 3379 2068 
Q 3634 1759 3634 1313 
Q 3634 634 3220 271 
Q 2806 -91 2034 -91 
Q 1263 -91 848 271 
Q 434 634 434 1313 
Q 434 1759 690 2068 
Q 947 2378 1403 2484 
z
M 1172 3481 
Q 1172 3119 1398 2916 
Q 1625 2713 2034 2713 
Q 2441 2713 2670 2916 
Q 2900 3119 2900 3481 
Q 2900 3844 2670 4047 
Q 2441 4250 2034 4250 
Q 1625 4250 1398 4047 
Q 1172 3844 1172 3481 
z
" transform="scale(0.015625)"/>
       </defs>
       <use xlink:href="#DejaVuSans-38"/>
       <use xlink:href="#DejaVuSans-30" x="63.623047"/>
       <use xlink:href="#DejaVuSans-30" x="127.246094"/>
      </g>
     </g>
    </g>
    <g id="xtick_4">
     <g id="line2d_4">
      <g>
       <use xlink:href="#m43ce1cb0f0" x="793.782698" y="789.540185" style="stroke: #000000; stroke-width: 0.8"/>
      </g>
     </g>
     <g id="text_4">
      <!-- 1000 -->
      <g transform="translate(781.057698 804.138623) scale(0.1 -0.1)">
       <defs>
        <path id="DejaVuSans-31" d="M 794 531 
L 1825 531 
L 1825 4091 
L 703 3866 
L 703 4441 
L 1819 4666 
L 2450 4666 
L 2450 531 
L 3481 531 
L 3481 0 
L 794 0 
L 794 531 
z
" transform="scale(0.015625)"/>
       </defs>
       <use xlink:href="#DejaVuSans-31"/>
       <use xlink:href="#DejaVuSans-30" x="63.623047"/>
       <use xlink:href="#DejaVuSans-30" x="127.246094"/>
       <use xlink:href="#DejaVuSans-30" x="190.869141"/>
      </g>
     </g>
    </g>
    <g id="xtick_5">
     <g id="line2d_5">
      <g>
       <use xlink:href="#m43ce1cb0f0" x="979.095669" y="789.540185" style="stroke: #000000; stroke-width: 0.8"/>
      </g>
     </g>
     <g id="text_5">
      <!-- 1200 -->
      <g transform="translate(966.370669 804.138623) scale(0.1 -0.1)">
       <defs>
        <path id="DejaVuSans-32" d="M 1228 531 
L 3431 531 
L 3431 0 
L 469 0 
L 469 531 
Q 828 903 1448 1529 
Q 2069 2156 2228 2338 
Q 2531 2678 2651 2914 
Q 2772 3150 2772 3378 
Q 2772 3750 2511 3984 
Q 2250 4219 1831 4219 
Q 1534 4219 1204 4116 
Q 875 4013 500 3803 
L 500 4441 
Q 881 4594 1212 4672 
Q 1544 4750 1819 4750 
Q 2544 4750 2975 4387 
Q 3406 4025 3406 3419 
Q 3406 3131 3298 2873 
Q 3191 2616 2906 2266 
Q 2828 2175 2409 1742 
Q 1991 1309 1228 531 
z
" transform="scale(0.015625)"/>
       </defs>
       <use xlink:href="#DejaVuSans-31"/>
       <use xlink:href="#DejaVuSans-32" x="63.623047"/>
       <use xlink:href="#DejaVuSans-30" x="127.246094"/>
       <use xlink:href="#DejaVuSans-30" x="190.869141"/>
      </g>
     </g>
    </g>
    <g id="xtick_6">
     <g id="line2d_6">
      <g>
       <use xlink:href="#m43ce1cb0f0" x="1164.40864" y="789.540185" style="stroke: #000000; stroke-width: 0.8"/>
      </g>
     </g>
     <g id="text_6">
      <!-- 1400 -->
      <g transform="translate(1151.68364 804.138623) scale(0.1 -0.1)">
       <use xlink:href="#DejaVuSans-31"/>
       <use xlink:href="#DejaVuSans-34" x="63.623047"/>
       <use xlink:href="#DejaVuSans-30" x="127.246094"/>
       <use xlink:href="#DejaVuSans-30" x="190.869141"/>
      </g>
     </g>
    </g>
   </g>
   <g id="matplotlib.axis_2">
    <g id="ytick_1">
     <g id="line2d_7">
      <defs>
       <path id="m7c6aca0031" d="M 0 0 
L -3.5 0 
" style="stroke: #000000; stroke-width: 0.8"/>
      </defs>
      <g>
       <use xlink:href="#m7c6aca0031" x="180" y="788.316986" style="stroke: #000000; stroke-width: 0.8"/>
      </g>
     </g>
     <g id="text_7">
      <!-- 600 -->
      <g transform="translate(153.9125 792.116205) scale(0.1 -0.1)">
       <use xlink:href="#DejaVuSans-36"/>
       <use xlink:href="#DejaVuSans-30" x="63.623047"/>
       <use xlink:href="#DejaVuSans-30" x="127.246094"/>
      </g>
     </g>
    </g>
    <g id="ytick_2">
     <g id="line2d_8">
      <g>
       <use xlink:href="#m7c6aca0031" x="180" y="695.660501" style="stroke: #000000; stroke-width: 0.8"/>
      </g>
     </g>
     <g id="text_8">
      <!-- 700 -->
      <g transform="translate(153.9125 699.45972) scale(0.1 -0.1)">
       <defs>
        <path id="DejaVuSans-37" d="M 525 4666 
L 3525 4666 
L 3525 4397 
L 1831 0 
L 1172 0 
L 2766 4134 
L 525 4134 
L 525 4666 
z
" transform="scale(0.015625)"/>
       </defs>
       <use xlink:href="#DejaVuSans-37"/>
       <use xlink:href="#DejaVuSans-30" x="63.623047"/>
       <use xlink:href="#DejaVuSans-30" x="127.246094"/>
      </g>
     </g>
    </g>
    <g id="ytick_3">
     <g id="line2d_9">
      <g>
       <use xlink:href="#m7c6aca0031" x="180" y="603.004016" style="stroke: #000000; stroke-width: 0.8"/>
      </g>
     </g>
     <g id="text_9">
      <!-- 800 -->
      <g transform="translate(153.9125 606.803234) scale(0.1 -0.1)">
       <use xlink:href="#DejaVuSans-38"/>
       <use xlink:href="#DejaVuSans-30" x="63.623047"/>
       <use xlink:href="#DejaVuSans-30" x="127.246094"/>
      </g>
     </g>
    </g>
    <g id="ytick_4">
     <g id="line2d_10">
      <g>
       <use xlink:href="#m7c6aca0031" x="180" y="510.34753" style="stroke: #000000; stroke-width: 0.8"/>
      </g>
     </g>
     <g id="text_10">
      <!-- 900 -->
      <g transform="translate(153.9125 514.146749) scale(0.1 -0.1)">
       <defs>
        <path id="DejaVuSans-39" d="M 703 97 
L 703 672 
Q 941 559 1184 500 
Q 1428 441 1663 441 
Q 2288 441 2617 861 
Q 2947 1281 2994 2138 
Q 2813 1869 2534 1725 
Q 2256 1581 1919 1581 
Q 1219 1581 811 2004 
Q 403 2428 403 3163 
Q 403 3881 828 4315 
Q 1253 4750 1959 4750 
Q 2769 4750 3195 4129 
Q 3622 3509 3622 2328 
Q 3622 1225 3098 567 
Q 2575 -91 1691 -91 
Q 1453 -91 1209 -44 
Q 966 3 703 97 
z
M 1959 2075 
Q 2384 2075 2632 2365 
Q 2881 2656 2881 3163 
Q 2881 3666 2632 3958 
Q 2384 4250 1959 4250 
Q 1534 4250 1286 3958 
Q 1038 3666 1038 3163 
Q 1038 2656 1286 2365 
Q 1534 2075 1959 2075 
z
" transform="scale(0.015625)"/>
       </defs>
       <use xlink:href="#DejaVuSans-39"/>
       <use xlink:href="#DejaVuSans-30" x="63.623047"/>
       <use xlink:href="#DejaVuSans-30" x="127.246094"/>
      </g>
     </g>
    </g>
    <g id="ytick_5">
     <g id="line2d_11">
      <g>
       <use xlink:href="#m7c6aca0031" x="180" y="417.691045" style="stroke: #000000; stroke-width: 0.8"/>
      </g>
     </g>
     <g id="text_11">
      <!-- 1000 -->
      <g transform="translate(147.55 421.490264) scale(0.1 -0.1)">
       <use xlink:href="#DejaVuSans-31"/>
       <use xlink:href="#DejaVuSans-30" x="63.623047"/>
       <use xlink:href="#DejaVuSans-30" x="127.246094"/>
       <use xlink:href="#DejaVuSans-30" x="190.869141"/>
      </g>
     </g>
    </g>
    <g id="ytick_6">
     <g id="line2d_12">
      <g>
       <use xlink:href="#m7c6aca0031" x="180" y="325.03456" style="stroke: #000000; stroke-width: 0.8"/>
      </g>
     </g>
     <g id="text_12">
      <!-- 1100 -->
      <g transform="translate(147.55 328.833778) scale(0.1 -0.1)">
       <use xlink:href="#DejaVuSans-31"/>
       <use xlink:href="#DejaVuSans-31" x="63.623047"/>
       <use xlink:href="#DejaVuSans-30" x="127.246094"/>
       <use xlink:href="#DejaVuSans-30" x="190.869141"/>
      </g>
     </g>
    </g>
   </g>
   <g id="LineCollection_1">
    <path d="M 1228.088669 632.609763 
L 1210.108595 640.533766 
L 1192.551871 648.582969 
L 1126.734825 679.384667 
L 1111.45055 686.221244 
L 1096.653199 692.564952 
L 1082.343287 698.370244 
L 1068.518191 703.60476 
L 1055.171923 708.248249 
L 1042.294878 712.29144 
L 1029.873598 715.734859 
L 1017.890577 718.587539 
L 1006.3242 720.865633 
L 995.148866 722.590956 
L 984.335375 723.789508 
L 973.851605 724.490091 
L 963.66344 724.723118 
L 953.735886 724.51971 
L 944.034222 723.911134 
L 934.525038 722.928562 
L 925.177067 721.603096 
L 915.961709 719.965927 
L 906.853263 718.048538 
L 897.828914 715.882851 
L 888.868544 713.501267 
L 879.954453 710.936575 
L 871.071059 708.221757 
L 853.343096 702.472846 
L 817.684467 690.547628 
L 799.666715 684.825884 
L 790.604603 682.107704 
L 781.506037 679.507655 
L 772.372041 677.038951 
L 763.204936 674.711401 
L 754.008217 672.53133 
L 744.786414 670.501559 
L 735.544942 668.621437 
L 726.289945 666.886939 
L 717.028157 665.290814 
L 707.766783 663.822775 
L 689.275816 661.216043 
L 670.880564 658.933107 
L 634.564124 654.644916 
L 616.786701 652.249434 
L 608.025939 650.899178 
L 599.359523 649.412741 
L 590.793017 647.76466 
L 582.330674 645.929968 
L 573.975156 643.884246 
L 565.727275 641.60361 
L 557.585795 639.064629 
L 549.547333 636.244184 
L 541.606394 633.119309 
L 533.755558 629.66706 
L 525.985822 625.86446 
L 518.287063 621.688577 
L 510.648562 617.116775 
L 503.059519 612.127129 
L 495.509489 606.699003 
L 487.988657 600.813717 
L 480.487944 594.455251 
L 472.998927 587.610903 
L 465.513617 580.271859 
L 458.024118 572.433632 
L 450.522239 564.096371 
L 442.99909 555.265036 
L 435.444703 545.94947 
L 427.847694 536.164394 
L 420.194974 525.929337 
L 412.471518 515.268541 
L 404.66017 504.210832 
L 388.693675 481.042154 
L 363.46976 444.212597 
L 354.611429 431.58787 
L 345.472848 418.885232 
L 336.015116 406.166146 
L 326.196277 393.496023 
L 315.97134 380.944389 
L 305.292409 368.585156 
L 294.109002 356.497005 
L 282.368651 344.763846 
L 270.017895 333.475283 
L 257.932208 323.454377 
L 257.932208 323.454377 
" clip-path="url(#pf941a043b0)" style="fill: none; stroke: #1f77b4; stroke-width: 1.5"/>
    <path d="M 1236.680698 652.111953 
L 1218.989309 659.906202 
L 1201.597139 667.879122 
L 1184.534687 675.877319 
L 1167.826714 683.767923 
L 1151.492682 691.437107 
L 1135.54718 698.788674 
L 1120.000333 705.742699 
L 1104.858184 712.234224 
L 1090.123075 718.21201 
L 1075.793998 723.637347 
L 1061.866932 728.482909 
L 1048.335171 732.73167 
L 1035.189631 736.375868 
L 1022.419137 739.416014 
L 1010.010705 741.859958 
L 997.949804 743.722001 
L 986.220599 745.022049 
L 974.80619 745.784823 
L 963.688827 746.039103 
L 952.850117 745.817026 
L 942.271219 745.153421 
L 931.933021 744.085189 
L 921.816306 742.650721 
L 911.901909 740.889363 
L 902.17086 738.840912 
L 892.60451 736.545154 
L 883.184655 734.041443 
L 873.893641 731.368306 
L 864.714465 728.563095 
L 855.630857 725.661665 
L 846.627359 722.698086 
L 837.689391 719.704394 
L 828.803309 716.710362 
L 819.95645 713.743312 
L 811.137174 710.827947 
L 802.334891 707.98622 
L 793.540084 705.237223 
L 784.744322 702.597103 
L 775.940264 700.079008 
L 767.121663 697.693052 
L 758.283348 695.446307 
L 749.421216 693.342812 
L 740.532206 691.383611 
L 731.61427 689.566799 
L 722.666341 687.887603 
L 713.688289 686.338466 
L 704.680879 684.909159 
L 695.645718 683.586901 
L 686.585202 682.356501 
L 677.502453 681.200511 
L 668.401259 680.099387 
L 659.286003 679.031675 
L 650.161595 677.974193 
L 641.033395 676.902234 
L 631.907137 675.789774 
L 622.788849 674.609688 
L 613.684774 673.333972 
L 604.601281 671.933975 
L 595.544781 670.380632 
L 586.521643 668.644701 
L 577.538102 666.69701 
L 568.600176 664.508693 
L 559.713568 662.051442 
L 550.883585 659.297747 
L 542.115045 656.22114 
L 533.41219 652.79644 
L 524.778597 648.999989 
L 516.21709 644.809887 
L 507.72966 640.206222 
L 499.317376 635.171295 
L 490.980307 629.689835 
L 482.717438 623.749211 
L 474.526602 617.339626 
L 466.404398 610.454313 
L 458.346124 603.089711 
L 450.345713 595.24563 
L 442.395663 586.925409 
L 434.486988 578.136052 
L 426.609153 568.888356 
L 418.750035 559.197015 
L 410.895869 549.080716 
L 403.031217 538.562214 
L 395.13893 527.668378 
L 387.200122 516.430237 
L 379.19415 504.882984 
L 371.098597 493.065972 
L 362.889268 481.022684 
L 354.540188 468.800671 
L 346.02361 456.451478 
L 337.310029 444.030535 
L 328.368205 431.59702 
L 319.1652 419.213701 
L 309.666411 406.946744 
L 299.835625 394.865491 
L 289.635077 383.042207 
L 279.025517 371.551801 
L 267.966291 360.471499 
L 256.415427 349.880503 
L 244.32974 339.859597 
" clip-path="url(#pf941a043b0)" style="fill: none; stroke: #8c564b; stroke-width: 1.5"/>
    <path d="M 1245.272727 671.614143 
L 1227.726162 679.344587 
L 1210.560291 687.213767 
L 1144.248674 718.242269 
L 1128.397365 725.329639 
L 1112.869544 731.982046 
L 1097.669154 738.142265 
L 1082.796858 743.764898 
L 1068.250958 748.815212 
L 1054.028279 753.268147 
L 1040.125005 757.107497 
L 1026.537396 760.325302 
L 1013.262315 762.921425 
L 1000.297507 764.903282 
L 987.641548 766.285616 
L 975.293495 767.090242 
L 963.252272 767.345623 
L 951.51592 767.086212 
L 940.080844 766.351549 
L 928.941221 765.185129 
L 918.088637 763.633162 
L 907.512013 761.743312 
L 897.197792 759.563531 
L 887.130306 757.141063 
L 877.292258 754.521629 
L 867.665235 751.74882 
L 858.230187 748.863649 
L 839.859 742.905701 
L 804.51908 731.085408 
L 787.297646 725.613802 
L 778.750611 723.048339 
L 770.226943 720.610439 
L 761.71327 718.306985 
L 753.197044 716.142117 
L 744.666614 714.117354 
L 736.11132 712.231706 
L 727.521586 710.481757 
L 718.889001 708.861739 
L 710.206395 707.363581 
L 692.668853 704.689241 
L 674.877281 702.349298 
L 647.676045 699.13974 
L 629.171886 696.924503 
L 610.43854 694.396268 
L 600.99869 692.938253 
L 591.518664 691.307857 
L 582.006184 689.471823 
L 572.470115 687.39662 
L 562.920566 685.048908 
L 553.368943 682.396076 
L 543.827928 679.406851 
L 534.311338 676.051938 
L 524.833842 672.304651 
L 515.410515 668.141499 
L 506.056263 663.542637 
L 496.785141 658.492168 
L 487.609654 652.978249 
L 478.540113 646.993013 
L 469.584105 640.532355 
L 460.746151 633.595626 
L 452.027547 626.185318 
L 443.426385 618.306798 
L 434.937709 609.968122 
L 426.553764 601.179973 
L 418.264284 591.955685 
L 410.056783 582.311373 
L 401.91682 572.266109 
L 393.828226 561.84214 
L 385.773293 551.06511 
L 377.732916 539.964273 
L 369.686714 528.57268 
L 353.489509 505.069238 
L 328.528479 468.620539 
L 319.935656 456.371732 
L 311.164131 444.175016 
L 302.18626 432.094632 
L 292.974085 420.197815 
L 283.499448 408.55424 
L 273.734037 397.235316 
L 263.649298 386.313303 
L 253.216141 375.860264 
L 242.404326 365.946902 
L 230.727273 356.264817 
L 230.727273 356.264817 
" clip-path="url(#pf941a043b0)" style="fill: none; stroke: #17becf; stroke-width: 1.5"/>
   </g>
   <g id="patch_3">
    <path d="M 180 789.540185 
L 180 301.259815 
" style="fill: none; stroke: #000000; stroke-width: 0.8; stroke-linejoin: miter; stroke-linecap: square"/>
   </g>
   <g id="patch_4">
    <path d="M 1296 789.540185 
L 1296 301.259815 
" style="fill: none; stroke: #000000; stroke-width: 0.8; stroke-linejoin: miter; stroke-linecap: square"/>
   </g>
   <g id="patch_5">
    <path d="M 180 789.540185 
L 1296 789.540185 
" style="fill: none; stroke: #000000; stroke-width: 0.8; stroke-linejoin: miter; stroke-linecap: square"/>
   </g>
   <g id="patch_6">
    <path d="M 180 301.259815 
L 1296 301.259815 
" style="fill: none; stroke: #000000; stroke-width: 0.8; stroke-linejoin: miter; stroke-linecap: square"/>
   </g>
  </g>
 </g>
 <defs>
  <clipPath id="pf941a043b0">
   <rect x="180" y="301.259815" width="1116" height="488.28037"/>
  </clipPath>
 </defs>
</svg>
