<?xml version="1.0" encoding="utf-8" standalone="no"?>
<!DOCTYPE svg PUBLIC "-//W3C//DTD SVG 1.1//EN"
  "http://www.w3.org/Graphics/SVG/1.1/DTD/svg11.dtd">
<svg xmlns:xlink="http://www.w3.org/1999/xlink" width="1440pt" height="1080pt" viewBox="0 0 1440 1080" xmlns="http://www.w3.org/2000/svg" version="1.1">
 <metadata>
  <rdf:RDF xmlns:dc="http://purl.org/dc/elements/1.1/" xmlns:cc="http://creativecommons.org/ns#" xmlns:rdf="http://www.w3.org/1999/02/22-rdf-syntax-ns#">
   <cc:Work>
    <dc:type rdf:resource="http://purl.org/dc/dcmitype/StillImage"/>
    <dc:date>2023-12-11T12:07:01.870410</dc:date>
    <dc:format>image/svg+xml</dc:format>
    <dc:creator>
     <cc:Agent>
      <dc:title>Matplotlib v3.7.1, https://matplotlib.org/</dc:title>
     </cc:Agent>
    </dc:creator>
   </cc:Work>
  </rdf:RDF>
 </metadata>
 <defs>
  <style type="text/css">*{stroke-linejoin: round; stroke-linecap: butt}</style>
 </defs>
 <g id="figure_1">
  <g id="patch_1">
   <path d="M 0 1080 
L 1440 1080 
L 1440 0 
L 0 0 
z
" style="fill: #ffffff"/>
  </g>
  <g id="axes_1">
   <g id="patch_2">
    <path d="M 180 890.253184 
L 1296 890.253184 
L 1296 200.546816 
L 180 200.546816 
z
" style="fill: #ffffff"/>
   </g>
   <g id="matplotlib.axis_1">
    <g id="xtick_1">
     <g id="line2d_1">
      <defs>
       <path id="mf726094f4f" d="M 0 0 
L 0 3.5 
" style="stroke: #000000; stroke-width: 0.8"/>
      </defs>
      <g>
       <use xlink:href="#mf726094f4f" x="308.578745" y="890.253184" style="stroke: #000000; stroke-width: 0.8"/>
      </g>
     </g>
     <g id="text_1">
      <!-- 700 -->
      <g transform="translate(299.034995 904.851622) scale(0.1 -0.1)">
       <defs>
        <path id="DejaVuSans-37" d="M 525 4666 
L 3525 4666 
L 3525 4397 
L 1831 0 
L 1172 0 
L 2766 4134 
L 525 4134 
L 525 4666 
z
" transform="scale(0.015625)"/>
        <path id="DejaVuSans-30" d="M 2034 4250 
Q 1547 4250 1301 3770 
Q 1056 3291 1056 2328 
Q 1056 1369 1301 889 
Q 1547 409 2034 409 
Q 2525 409 2770 889 
Q 3016 1369 3016 2328 
Q 3016 3291 2770 3770 
Q 2525 4250 2034 4250 
z
M 2034 4750 
Q 2819 4750 3233 4129 
Q 3647 3509 3647 2328 
Q 3647 1150 3233 529 
Q 2819 -91 2034 -91 
Q 1250 -91 836 529 
Q 422 1150 422 2328 
Q 422 3509 836 4129 
Q 1250 4750 2034 4750 
z
" transform="scale(0.015625)"/>
       </defs>
       <use xlink:href="#DejaVuSans-37"/>
       <use xlink:href="#DejaVuSans-30" x="63.623047"/>
       <use xlink:href="#DejaVuSans-30" x="127.246094"/>
      </g>
     </g>
    </g>
    <g id="xtick_2">
     <g id="line2d_2">
      <g>
       <use xlink:href="#mf726094f4f" x="491.886647" y="890.253184" style="stroke: #000000; stroke-width: 0.8"/>
      </g>
     </g>
     <g id="text_2">
      <!-- 800 -->
      <g transform="translate(482.342897 904.851622) scale(0.1 -0.1)">
       <defs>
        <path id="DejaVuSans-38" d="M 2034 2216 
Q 1584 2216 1326 1975 
Q 1069 1734 1069 1313 
Q 1069 891 1326 650 
Q 1584 409 2034 409 
Q 2484 409 2743 651 
Q 3003 894 3003 1313 
Q 3003 1734 2745 1975 
Q 2488 2216 2034 2216 
z
M 1403 2484 
Q 997 2584 770 2862 
Q 544 3141 544 3541 
Q 544 4100 942 4425 
Q 1341 4750 2034 4750 
Q 2731 4750 3128 4425 
Q 3525 4100 3525 3541 
Q 3525 3141 3298 2862 
Q 3072 2584 2669 2484 
Q 3125 2378 3379 2068 
Q 3634 1759 3634 1313 
Q 3634 634 3220 271 
Q 2806 -91 2034 -91 
Q 1263 -91 848 271 
Q 434 634 434 1313 
Q 434 1759 690 2068 
Q 947 2378 1403 2484 
z
M 1172 3481 
Q 1172 3119 1398 2916 
Q 1625 2713 2034 2713 
Q 2441 2713 2670 2916 
Q 2900 3119 2900 3481 
Q 2900 3844 2670 4047 
Q 2441 4250 2034 4250 
Q 1625 4250 1398 4047 
Q 1172 3844 1172 3481 
z
" transform="scale(0.015625)"/>
       </defs>
       <use xlink:href="#DejaVuSans-38"/>
       <use xlink:href="#DejaVuSans-30" x="63.623047"/>
       <use xlink:href="#DejaVuSans-30" x="127.246094"/>
      </g>
     </g>
    </g>
    <g id="xtick_3">
     <g id="line2d_3">
      <g>
       <use xlink:href="#mf726094f4f" x="675.194549" y="890.253184" style="stroke: #000000; stroke-width: 0.8"/>
      </g>
     </g>
     <g id="text_3">
      <!-- 900 -->
      <g transform="translate(665.650799 904.851622) scale(0.1 -0.1)">
       <defs>
        <path id="DejaVuSans-39" d="M 703 97 
L 703 672 
Q 941 559 1184 500 
Q 1428 441 1663 441 
Q 2288 441 2617 861 
Q 2947 1281 2994 2138 
Q 2813 1869 2534 1725 
Q 2256 1581 1919 1581 
Q 1219 1581 811 2004 
Q 403 2428 403 3163 
Q 403 3881 828 4315 
Q 1253 4750 1959 4750 
Q 2769 4750 3195 4129 
Q 3622 3509 3622 2328 
Q 3622 1225 3098 567 
Q 2575 -91 1691 -91 
Q 1453 -91 1209 -44 
Q 966 3 703 97 
z
M 1959 2075 
Q 2384 2075 2632 2365 
Q 2881 2656 2881 3163 
Q 2881 3666 2632 3958 
Q 2384 4250 1959 4250 
Q 1534 4250 1286 3958 
Q 1038 3666 1038 3163 
Q 1038 2656 1286 2365 
Q 1534 2075 1959 2075 
z
" transform="scale(0.015625)"/>
       </defs>
       <use xlink:href="#DejaVuSans-39"/>
       <use xlink:href="#DejaVuSans-30" x="63.623047"/>
       <use xlink:href="#DejaVuSans-30" x="127.246094"/>
      </g>
     </g>
    </g>
    <g id="xtick_4">
     <g id="line2d_4">
      <g>
       <use xlink:href="#mf726094f4f" x="858.502452" y="890.253184" style="stroke: #000000; stroke-width: 0.8"/>
      </g>
     </g>
     <g id="text_4">
      <!-- 1000 -->
      <g transform="translate(845.777452 904.851622) scale(0.1 -0.1)">
       <defs>
        <path id="DejaVuSans-31" d="M 794 531 
L 1825 531 
L 1825 4091 
L 703 3866 
L 703 4441 
L 1819 4666 
L 2450 4666 
L 2450 531 
L 3481 531 
L 3481 0 
L 794 0 
L 794 531 
z
" transform="scale(0.015625)"/>
       </defs>
       <use xlink:href="#DejaVuSans-31"/>
       <use xlink:href="#DejaVuSans-30" x="63.623047"/>
       <use xlink:href="#DejaVuSans-30" x="127.246094"/>
       <use xlink:href="#DejaVuSans-30" x="190.869141"/>
      </g>
     </g>
    </g>
    <g id="xtick_5">
     <g id="line2d_5">
      <g>
       <use xlink:href="#mf726094f4f" x="1041.810354" y="890.253184" style="stroke: #000000; stroke-width: 0.8"/>
      </g>
     </g>
     <g id="text_5">
      <!-- 1100 -->
      <g transform="translate(1029.085354 904.851622) scale(0.1 -0.1)">
       <use xlink:href="#DejaVuSans-31"/>
       <use xlink:href="#DejaVuSans-31" x="63.623047"/>
       <use xlink:href="#DejaVuSans-30" x="127.246094"/>
       <use xlink:href="#DejaVuSans-30" x="190.869141"/>
      </g>
     </g>
    </g>
    <g id="xtick_6">
     <g id="line2d_6">
      <g>
       <use xlink:href="#mf726094f4f" x="1225.118256" y="890.253184" style="stroke: #000000; stroke-width: 0.8"/>
      </g>
     </g>
     <g id="text_6">
      <!-- 1200 -->
      <g transform="translate(1212.393256 904.851622) scale(0.1 -0.1)">
       <defs>
        <path id="DejaVuSans-32" d="M 1228 531 
L 3431 531 
L 3431 0 
L 469 0 
L 469 531 
Q 828 903 1448 1529 
Q 2069 2156 2228 2338 
Q 2531 2678 2651 2914 
Q 2772 3150 2772 3378 
Q 2772 3750 2511 3984 
Q 2250 4219 1831 4219 
Q 1534 4219 1204 4116 
Q 875 4013 500 3803 
L 500 4441 
Q 881 4594 1212 4672 
Q 1544 4750 1819 4750 
Q 2544 4750 2975 4387 
Q 3406 4025 3406 3419 
Q 3406 3131 3298 2873 
Q 3191 2616 2906 2266 
Q 2828 2175 2409 1742 
Q 1991 1309 1228 531 
z
" transform="scale(0.015625)"/>
       </defs>
       <use xlink:href="#DejaVuSans-31"/>
       <use xlink:href="#DejaVuSans-32" x="63.623047"/>
       <use xlink:href="#DejaVuSans-30" x="127.246094"/>
       <use xlink:href="#DejaVuSans-30" x="190.869141"/>
      </g>
     </g>
    </g>
   </g>
   <g id="matplotlib.axis_2">
    <g id="ytick_1">
     <g id="line2d_7">
      <defs>
       <path id="m57fe69af6e" d="M 0 0 
L -3.5 0 
" style="stroke: #000000; stroke-width: 0.8"/>
      </defs>
      <g>
       <use xlink:href="#m57fe69af6e" x="180" y="863.474079" style="stroke: #000000; stroke-width: 0.8"/>
      </g>
     </g>
     <g id="text_7">
      <!-- 300 -->
      <g transform="translate(153.9125 867.273298) scale(0.1 -0.1)">
       <defs>
        <path id="DejaVuSans-33" d="M 2597 2516 
Q 3050 2419 3304 2112 
Q 3559 1806 3559 1356 
Q 3559 666 3084 287 
Q 2609 -91 1734 -91 
Q 1441 -91 1130 -33 
Q 819 25 488 141 
L 488 750 
Q 750 597 1062 519 
Q 1375 441 1716 441 
Q 2309 441 2620 675 
Q 2931 909 2931 1356 
Q 2931 1769 2642 2001 
Q 2353 2234 1838 2234 
L 1294 2234 
L 1294 2753 
L 1863 2753 
Q 2328 2753 2575 2939 
Q 2822 3125 2822 3475 
Q 2822 3834 2567 4026 
Q 2313 4219 1838 4219 
Q 1578 4219 1281 4162 
Q 984 4106 628 3988 
L 628 4550 
Q 988 4650 1302 4700 
Q 1616 4750 1894 4750 
Q 2613 4750 3031 4423 
Q 3450 4097 3450 3541 
Q 3450 3153 3228 2886 
Q 3006 2619 2597 2516 
z
" transform="scale(0.015625)"/>
       </defs>
       <use xlink:href="#DejaVuSans-33"/>
       <use xlink:href="#DejaVuSans-30" x="63.623047"/>
       <use xlink:href="#DejaVuSans-30" x="127.246094"/>
      </g>
     </g>
    </g>
    <g id="ytick_2">
     <g id="line2d_8">
      <g>
       <use xlink:href="#m57fe69af6e" x="180" y="771.820128" style="stroke: #000000; stroke-width: 0.8"/>
      </g>
     </g>
     <g id="text_8">
      <!-- 350 -->
      <g transform="translate(153.9125 775.619347) scale(0.1 -0.1)">
       <defs>
        <path id="DejaVuSans-35" d="M 691 4666 
L 3169 4666 
L 3169 4134 
L 1269 4134 
L 1269 2991 
Q 1406 3038 1543 3061 
Q 1681 3084 1819 3084 
Q 2600 3084 3056 2656 
Q 3513 2228 3513 1497 
Q 3513 744 3044 326 
Q 2575 -91 1722 -91 
Q 1428 -91 1123 -41 
Q 819 9 494 109 
L 494 744 
Q 775 591 1075 516 
Q 1375 441 1709 441 
Q 2250 441 2565 725 
Q 2881 1009 2881 1497 
Q 2881 1984 2565 2268 
Q 2250 2553 1709 2553 
Q 1456 2553 1204 2497 
Q 953 2441 691 2322 
L 691 4666 
z
" transform="scale(0.015625)"/>
       </defs>
       <use xlink:href="#DejaVuSans-33"/>
       <use xlink:href="#DejaVuSans-35" x="63.623047"/>
       <use xlink:href="#DejaVuSans-30" x="127.246094"/>
      </g>
     </g>
    </g>
    <g id="ytick_3">
     <g id="line2d_9">
      <g>
       <use xlink:href="#m57fe69af6e" x="180" y="680.166177" style="stroke: #000000; stroke-width: 0.8"/>
      </g>
     </g>
     <g id="text_9">
      <!-- 400 -->
      <g transform="translate(153.9125 683.965395) scale(0.1 -0.1)">
       <defs>
        <path id="DejaVuSans-34" d="M 2419 4116 
L 825 1625 
L 2419 1625 
L 2419 4116 
z
M 2253 4666 
L 3047 4666 
L 3047 1625 
L 3713 1625 
L 3713 1100 
L 3047 1100 
L 3047 0 
L 2419 0 
L 2419 1100 
L 313 1100 
L 313 1709 
L 2253 4666 
z
" transform="scale(0.015625)"/>
       </defs>
       <use xlink:href="#DejaVuSans-34"/>
       <use xlink:href="#DejaVuSans-30" x="63.623047"/>
       <use xlink:href="#DejaVuSans-30" x="127.246094"/>
      </g>
     </g>
    </g>
    <g id="ytick_4">
     <g id="line2d_10">
      <g>
       <use xlink:href="#m57fe69af6e" x="180" y="588.512225" style="stroke: #000000; stroke-width: 0.8"/>
      </g>
     </g>
     <g id="text_10">
      <!-- 450 -->
      <g transform="translate(153.9125 592.311444) scale(0.1 -0.1)">
       <use xlink:href="#DejaVuSans-34"/>
       <use xlink:href="#DejaVuSans-35" x="63.623047"/>
       <use xlink:href="#DejaVuSans-30" x="127.246094"/>
      </g>
     </g>
    </g>
    <g id="ytick_5">
     <g id="line2d_11">
      <g>
       <use xlink:href="#m57fe69af6e" x="180" y="496.858274" style="stroke: #000000; stroke-width: 0.8"/>
      </g>
     </g>
     <g id="text_11">
      <!-- 500 -->
      <g transform="translate(153.9125 500.657493) scale(0.1 -0.1)">
       <use xlink:href="#DejaVuSans-35"/>
       <use xlink:href="#DejaVuSans-30" x="63.623047"/>
       <use xlink:href="#DejaVuSans-30" x="127.246094"/>
      </g>
     </g>
    </g>
    <g id="ytick_6">
     <g id="line2d_12">
      <g>
       <use xlink:href="#m57fe69af6e" x="180" y="405.204323" style="stroke: #000000; stroke-width: 0.8"/>
      </g>
     </g>
     <g id="text_12">
      <!-- 550 -->
      <g transform="translate(153.9125 409.003542) scale(0.1 -0.1)">
       <use xlink:href="#DejaVuSans-35"/>
       <use xlink:href="#DejaVuSans-35" x="63.623047"/>
       <use xlink:href="#DejaVuSans-30" x="127.246094"/>
      </g>
     </g>
    </g>
    <g id="ytick_7">
     <g id="line2d_13">
      <g>
       <use xlink:href="#m57fe69af6e" x="180" y="313.550372" style="stroke: #000000; stroke-width: 0.8"/>
      </g>
     </g>
     <g id="text_13">
      <!-- 600 -->
      <g transform="translate(153.9125 317.349591) scale(0.1 -0.1)">
       <defs>
        <path id="DejaVuSans-36" d="M 2113 2584 
Q 1688 2584 1439 2293 
Q 1191 2003 1191 1497 
Q 1191 994 1439 701 
Q 1688 409 2113 409 
Q 2538 409 2786 701 
Q 3034 994 3034 1497 
Q 3034 2003 2786 2293 
Q 2538 2584 2113 2584 
z
M 3366 4563 
L 3366 3988 
Q 3128 4100 2886 4159 
Q 2644 4219 2406 4219 
Q 1781 4219 1451 3797 
Q 1122 3375 1075 2522 
Q 1259 2794 1537 2939 
Q 1816 3084 2150 3084 
Q 2853 3084 3261 2657 
Q 3669 2231 3669 1497 
Q 3669 778 3244 343 
Q 2819 -91 2113 -91 
Q 1303 -91 875 529 
Q 447 1150 447 2328 
Q 447 3434 972 4092 
Q 1497 4750 2381 4750 
Q 2619 4750 2861 4703 
Q 3103 4656 3366 4563 
z
" transform="scale(0.015625)"/>
       </defs>
       <use xlink:href="#DejaVuSans-36"/>
       <use xlink:href="#DejaVuSans-30" x="63.623047"/>
       <use xlink:href="#DejaVuSans-30" x="127.246094"/>
      </g>
     </g>
    </g>
    <g id="ytick_8">
     <g id="line2d_14">
      <g>
       <use xlink:href="#m57fe69af6e" x="180" y="221.896421" style="stroke: #000000; stroke-width: 0.8"/>
      </g>
     </g>
     <g id="text_14">
      <!-- 650 -->
      <g transform="translate(153.9125 225.69564) scale(0.1 -0.1)">
       <use xlink:href="#DejaVuSans-36"/>
       <use xlink:href="#DejaVuSans-35" x="63.623047"/>
       <use xlink:href="#DejaVuSans-30" x="127.246094"/>
      </g>
     </g>
    </g>
   </g>
   <g id="LineCollection_1">
    <path d="M 1245.272727 857.046789 
L 1244.037714 796.220414 
L 1242.243873 739.586188 
L 1239.910148 686.951102 
L 1237.053561 638.12827 
L 1233.688915 592.936051 
L 1229.828343 551.197087 
L 1225.480613 512.737201 
L 1220.65008 477.384157 
L 1215.335107 444.966289 
L 1209.525677 415.311039 
L 1203.199819 388.243626 
L 1196.318297 363.586335 
L 1188.816983 341.15954 
L 1181.897098 323.749589 
L 1180.596573 320.786814 
L 1173.349463 305.743519 
L 1171.510778 302.30846 
L 1163.95002 289.521469 
L 1161.358363 285.610284 
L 1153.497261 274.972598 
L 1149.893916 270.674105 
L 1141.745542 262.081813 
L 1136.885645 257.643922 
L 1128.462873 250.995947 
L 1125.43896 248.803149 
L 1122.246509 246.863906 
L 1113.562053 242.061766 
L 1109.954399 240.269214 
L 1106.203262 238.800414 
L 1097.269703 235.747998 
L 1093.354363 234.602098 
L 1089.352628 233.808941 
L 1080.182448 232.412292 
L 1076.335768 231.991688 
L 1072.467318 231.897105 
L 1063.072924 232.064224 
L 1059.610673 232.257029 
L 1056.172912 232.711074 
L 1046.566662 234.351733 
L 1040.770418 235.734714 
L 1030.964641 238.760282 
L 1026.279676 240.490629 
L 1016.286692 244.813917 
L 1012.572222 246.623882 
L 1002.40436 252.158993 
L 999.477875 253.895962 
L 986.838837 262.149095 
L 974.527741 271.273209 
L 962.448654 281.183603 
L 950.532187 291.807824 
L 938.729623 303.07855 
L 927.007807 314.92996 
L 915.345145 327.296003 
L 903.728632 340.109667 
L 892.151681 353.30275 
L 880.612566 366.805879 
L 869.113295 380.548629 
L 846.256422 408.46707 
L 790.307809 477.51925 
L 779.434516 490.611283 
L 768.708155 503.29073 
L 758.148697 515.485863 
L 747.778513 527.125616 
L 737.622931 538.139841 
L 727.710978 548.45968 
L 718.076349 558.018138 
L 708.758608 566.750986 
L 699.804622 574.59821 
L 691.270077 581.506327 
L 683.220763 587.432018 
L 675.732847 592.347624 
L 668.890695 596.24896 
L 662.779792 599.165249 
L 657.471546 601.169221 
L 652.997501 602.382018 
L 649.315283 602.963719 
L 646.278786 603.080395 
L 643.6352 602.849768 
L 641.066806 602.288574 
L 638.267751 601.295967 
L 635.016422 599.687815 
L 631.206419 597.260166 
L 626.831747 593.844978 
L 621.948669 589.337512 
L 616.638192 583.697939 
L 610.980476 576.939671 
L 605.041526 569.114928 
L 598.868215 560.302659 
L 592.487643 550.600006 
L 585.908097 540.116784 
L 572.06875 517.245799 
L 564.657981 504.991515 
L 556.874456 492.448007 
L 548.603096 479.743325 
L 539.67822 467.007024 
L 529.858167 454.378106 
L 521.609031 444.972858 
L 518.789583 442.032824 
L 510.156778 433.796924 
L 505.974543 430.259428 
L 496.893566 423.46611 
L 493.92383 421.421627 
L 490.80256 419.616936 
L 481.204243 414.56024 
L 477.088891 412.646182 
L 472.804387 411.148594 
L 462.614714 408.144217 
L 457.479453 406.946398 
L 452.240588 406.346422 
L 441.380502 405.73258 
L 435.918287 405.74989 
L 430.496931 406.416977 
L 418.882137 408.555293 
L 414.016888 409.728881 
L 409.30863 411.426014 
L 396.849391 416.702423 
L 393.091415 418.499499 
L 389.512145 420.630389 
L 376.113084 429.456059 
L 370.906503 433.447868 
L 356.466388 446.260145 
L 352.86867 449.826621 
L 337.280201 467.089988 
L 334.785637 470.101538 
L 316.1747 494.796464 
L 296.67097 524.513421 
L 275.989648 559.887758 
L 253.894787 601.574562 
L 230.727273 649.080281 
L 230.727273 649.080281 
" clip-path="url(#pf696f9d3b6)" style="fill: none; stroke: #1f77b4; stroke-width: 1.5"/>
    <path d="M 1199.45515 857.974842 
L 1198.233616 797.668265 
L 1196.4617 741.612102 
L 1194.161099 689.622457 
L 1191.352523 641.523392 
L 1188.055771 597.146497 
L 1184.289787 556.330473 
L 1180.072731 518.920728 
L 1175.422036 484.768991 
L 1170.354468 453.732923 
L 1164.886185 425.675759 
L 1159.032789 400.465948 
L 1152.809381 377.976815 
L 1146.230612 358.086226 
L 1139.310727 340.676275 
L 1132.063618 325.63298 
L 1124.50286 312.845989 
L 1116.641758 302.208303 
L 1108.493383 293.616011 
L 1100.070611 286.968036 
L 1091.386155 282.165896 
L 1082.452596 279.11348 
L 1073.282416 277.716831 
L 1063.888023 277.88395 
L 1054.281773 279.524609 
L 1044.475996 282.550178 
L 1034.483012 286.873466 
L 1024.31515 292.408576 
L 1013.98476 299.070777 
L 1003.504225 306.776379 
L 992.885971 315.442638 
L 982.142473 324.98766 
L 971.286256 335.33033 
L 960.3299 346.390249 
L 949.286034 358.087686 
L 938.167331 370.34355 
L 926.986504 383.079364 
L 915.756294 396.217272 
L 904.489454 409.68004 
L 893.198736 423.39109 
L 881.89687 437.274536 
L 870.596545 451.255241 
L 859.310378 465.258885 
L 848.050894 479.212057 
L 836.830487 493.042348 
L 825.661391 506.678472 
L 814.555643 520.050394 
L 803.52504 533.089481 
L 792.581097 545.728656 
L 781.735001 557.902584 
L 770.997562 569.547861 
L 760.379159 580.603222 
L 749.889684 591.009767 
L 739.538484 600.711203 
L 729.334298 609.654095 
L 719.28519 617.788145 
L 709.398482 625.066476 
L 699.680681 631.445939 
L 690.137403 636.887433 
L 680.773294 641.356242 
L 671.591946 644.822388 
L 662.595813 647.261006 
L 653.786124 648.652723 
L 645.162783 648.98407 
L 636.724278 648.247895 
L 628.467581 646.443806 
L 620.388043 643.578621 
L 612.479286 639.666843 
L 604.733093 634.731143 
L 597.139297 628.80287 
L 589.685659 621.922574 
L 582.357745 614.140542 
L 575.138806 605.517358 
L 568.009645 596.124478 
L 560.948486 586.044824 
L 553.930834 575.37339 
L 546.929339 564.217875 
L 539.913649 552.699326 
L 532.850262 540.952801 
L 525.702375 529.128053 
L 518.429728 517.390231 
L 510.98844 505.920593 
L 503.330853 494.917248 
L 495.405357 484.595908 
L 487.15622 475.19066 
L 478.523416 466.954759 
L 469.442439 460.161441 
L 459.844122 455.104745 
L 449.654449 452.100368 
L 438.794364 451.486526 
L 427.17957 453.624843 
L 414.720331 458.901252 
L 401.32127 467.726923 
L 386.881155 480.5392 
L 371.292686 497.802568 
L 354.442282 520.009631 
L 336.209855 547.682114 
L 316.468581 581.371883 
L 295.084679 621.661984 
L 271.917164 669.167702 
" clip-path="url(#pf696f9d3b6)" style="fill: none; stroke: #8c564b; stroke-width: 1.5"/>
    <path d="M 1153.637572 858.902895 
L 1152.421304 798.856256 
L 1150.666741 743.349054 
L 1148.393211 691.971208 
L 1145.624615 644.556821 
L 1142.385041 600.949585 
L 1138.699266 561.002867 
L 1134.59345 524.579939 
L 1130.096113 491.554363 
L 1125.239544 461.810551 
L 1120.061871 435.244477 
L 1114.6101 411.764411 
L 1108.9446 391.291353 
L 1103.145612 373.758397 
L 1097.322289 359.107319 
L 1091.624037 347.279087 
L 1086.251287 338.192523 
L 1081.456151 331.70372 
L 1077.511428 327.544091 
L 1074.617712 325.260122 
L 1072.74589 324.225083 
L 1071.50746 323.801936 
L 1070.21814 323.605568 
L 1068.177653 323.641867 
L 1064.940059 324.194818 
L 1060.377048 325.602734 
L 1054.577408 328.111846 
L 1047.721452 331.844043 
L 1040.000703 336.823252 
L 1031.583354 343.011939 
L 1022.605897 350.339035 
L 1013.175659 358.717296 
L 1003.376428 368.052981 
L 993.274019 378.250881 
L 982.920848 389.216748 
L 972.3594 400.858363 
L 961.624775 413.08592 
L 950.746523 425.812081 
L 939.749953 438.951903 
L 917.487164 466.144054 
L 861.113878 535.716944 
L 849.542595 549.648112 
L 838.16956 563.087296 
L 826.797935 576.213401 
L 815.426187 588.967286 
L 804.048709 601.292677 
L 792.654867 613.136134 
L 781.227798 624.446787 
L 769.742968 635.175689 
L 758.166532 645.27451 
L 746.453711 654.693201 
L 734.547689 663.376123 
L 722.380086 671.256098 
L 712.836808 676.697592 
L 709.874907 678.24614 
L 700.510797 682.714949 
L 696.958917 684.229745 
L 687.777569 687.695892 
L 683.581743 689.053107 
L 674.585611 691.491724 
L 669.746685 692.52663 
L 660.936995 693.918347 
L 655.545699 694.445906 
L 646.922358 694.777253 
L 641.179967 694.637644 
L 632.741462 693.90147 
L 626.941874 693.018603 
L 618.685178 691.214514 
L 613.150891 689.635364 
L 605.071353 686.770179 
L 600.070795 684.655636 
L 592.162037 680.743857 
L 587.853519 678.315042 
L 580.107327 673.379342 
L 576.532931 670.854023 
L 568.939135 664.925751 
L 566.055737 662.476658 
L 558.602098 655.596361 
L 556.322262 653.339058 
L 547.218615 643.557428 
L 538.635458 633.223264 
L 530.476176 622.418021 
L 522.65886 611.224503 
L 515.115522 599.734902 
L 507.790642 588.056377 
L 493.604231 564.614238 
L 486.614149 553.050545 
L 479.725367 541.932271 
L 472.948721 531.487078 
L 466.32954 521.975841 
L 459.967663 513.690795 
L 454.047736 506.941194 
L 448.875273 502.006541 
L 444.885044 499.021522 
L 442.514359 497.772571 
L 441.691017 497.550375 
L 440.421218 497.784148 
L 436.438971 499.470605 
L 429.275985 504.188709 
L 419.193495 513.134596 
L 406.616758 527.062638 
L 391.870986 546.496017 
L 375.139949 571.889747 
L 356.495222 603.708187 
L 335.931035 642.453836 
L 313.107056 689.255124 
L 313.107056 689.255124 
" clip-path="url(#pf696f9d3b6)" style="fill: none; stroke: #17becf; stroke-width: 1.5"/>
   </g>
   <g id="patch_3">
    <path d="M 180 890.253184 
L 180 200.546816 
" style="fill: none; stroke: #000000; stroke-width: 0.8; stroke-linejoin: miter; stroke-linecap: square"/>
   </g>
   <g id="patch_4">
    <path d="M 1296 890.253184 
L 1296 200.546816 
" style="fill: none; stroke: #000000; stroke-width: 0.8; stroke-linejoin: miter; stroke-linecap: square"/>
   </g>
   <g id="patch_5">
    <path d="M 180 890.253184 
L 1296 890.253184 
" style="fill: none; stroke: #000000; stroke-width: 0.8; stroke-linejoin: miter; stroke-linecap: square"/>
   </g>
   <g id="patch_6">
    <path d="M 180 200.546816 
L 1296 200.546816 
" style="fill: none; stroke: #000000; stroke-width: 0.8; stroke-linejoin: miter; stroke-linecap: square"/>
   </g>
  </g>
 </g>
 <defs>
  <clipPath id="pf696f9d3b6">
   <rect x="180" y="200.546816" width="1116" height="689.706369"/>
  </clipPath>
 </defs>
</svg>
