<?xml version="1.0" encoding="utf-8" standalone="no"?>
<!DOCTYPE svg PUBLIC "-//W3C//DTD SVG 1.1//EN"
  "http://www.w3.org/Graphics/SVG/1.1/DTD/svg11.dtd">
<svg xmlns:xlink="http://www.w3.org/1999/xlink" width="1440pt" height="1080pt" viewBox="0 0 1440 1080" xmlns="http://www.w3.org/2000/svg" version="1.1">
 <metadata>
  <rdf:RDF xmlns:dc="http://purl.org/dc/elements/1.1/" xmlns:cc="http://creativecommons.org/ns#" xmlns:rdf="http://www.w3.org/1999/02/22-rdf-syntax-ns#">
   <cc:Work>
    <dc:type rdf:resource="http://purl.org/dc/dcmitype/StillImage"/>
    <dc:date>2023-12-11T12:06:34.849771</dc:date>
    <dc:format>image/svg+xml</dc:format>
    <dc:creator>
     <cc:Agent>
      <dc:title>Matplotlib v3.7.1, https://matplotlib.org/</dc:title>
     </cc:Agent>
    </dc:creator>
   </cc:Work>
  </rdf:RDF>
 </metadata>
 <defs>
  <style type="text/css">*{stroke-linejoin: round; stroke-linecap: butt}</style>
 </defs>
 <g id="figure_1">
  <g id="patch_1">
   <path d="M 0 1080 
L 1440 1080 
L 1440 0 
L 0 0 
z
" style="fill: #ffffff"/>
  </g>
  <g id="axes_1">
   <g id="patch_2">
    <path d="M 519.22461 961.2 
L 956.77539 961.2 
L 956.77539 129.6 
L 519.22461 129.6 
z
" style="fill: #ffffff"/>
   </g>
   <g id="matplotlib.axis_1">
    <g id="xtick_1">
     <g id="line2d_1">
      <defs>
       <path id="m3cfee7fb31" d="M 0 0 
L 0 3.5 
" style="stroke: #000000; stroke-width: 0.8"/>
      </defs>
      <g>
       <use xlink:href="#m3cfee7fb31" x="520.733627" y="961.2" style="stroke: #000000; stroke-width: 0.8"/>
      </g>
     </g>
     <g id="text_1">
      <!-- 300 -->
      <g transform="translate(511.189877 975.798437) scale(0.1 -0.1)">
       <defs>
        <path id="DejaVuSans-33" d="M 2597 2516 
Q 3050 2419 3304 2112 
Q 3559 1806 3559 1356 
Q 3559 666 3084 287 
Q 2609 -91 1734 -91 
Q 1441 -91 1130 -33 
Q 819 25 488 141 
L 488 750 
Q 750 597 1062 519 
Q 1375 441 1716 441 
Q 2309 441 2620 675 
Q 2931 909 2931 1356 
Q 2931 1769 2642 2001 
Q 2353 2234 1838 2234 
L 1294 2234 
L 1294 2753 
L 1863 2753 
Q 2328 2753 2575 2939 
Q 2822 3125 2822 3475 
Q 2822 3834 2567 4026 
Q 2313 4219 1838 4219 
Q 1578 4219 1281 4162 
Q 984 4106 628 3988 
L 628 4550 
Q 988 4650 1302 4700 
Q 1616 4750 1894 4750 
Q 2613 4750 3031 4423 
Q 3450 4097 3450 3541 
Q 3450 3153 3228 2886 
Q 3006 2619 2597 2516 
z
" transform="scale(0.015625)"/>
        <path id="DejaVuSans-30" d="M 2034 4250 
Q 1547 4250 1301 3770 
Q 1056 3291 1056 2328 
Q 1056 1369 1301 889 
Q 1547 409 2034 409 
Q 2525 409 2770 889 
Q 3016 1369 3016 2328 
Q 3016 3291 2770 3770 
Q 2525 4250 2034 4250 
z
M 2034 4750 
Q 2819 4750 3233 4129 
Q 3647 3509 3647 2328 
Q 3647 1150 3233 529 
Q 2819 -91 2034 -91 
Q 1250 -91 836 529 
Q 422 1150 422 2328 
Q 422 3509 836 4129 
Q 1250 4750 2034 4750 
z
" transform="scale(0.015625)"/>
       </defs>
       <use xlink:href="#DejaVuSans-33"/>
       <use xlink:href="#DejaVuSans-30" x="63.623047"/>
       <use xlink:href="#DejaVuSans-30" x="127.246094"/>
      </g>
     </g>
    </g>
    <g id="xtick_2">
     <g id="line2d_2">
      <g>
       <use xlink:href="#m3cfee7fb31" x="580.324017" y="961.2" style="stroke: #000000; stroke-width: 0.8"/>
      </g>
     </g>
     <g id="text_2">
      <!-- 350 -->
      <g transform="translate(570.780267 975.798437) scale(0.1 -0.1)">
       <defs>
        <path id="DejaVuSans-35" d="M 691 4666 
L 3169 4666 
L 3169 4134 
L 1269 4134 
L 1269 2991 
Q 1406 3038 1543 3061 
Q 1681 3084 1819 3084 
Q 2600 3084 3056 2656 
Q 3513 2228 3513 1497 
Q 3513 744 3044 326 
Q 2575 -91 1722 -91 
Q 1428 -91 1123 -41 
Q 819 9 494 109 
L 494 744 
Q 775 591 1075 516 
Q 1375 441 1709 441 
Q 2250 441 2565 725 
Q 2881 1009 2881 1497 
Q 2881 1984 2565 2268 
Q 2250 2553 1709 2553 
Q 1456 2553 1204 2497 
Q 953 2441 691 2322 
L 691 4666 
z
" transform="scale(0.015625)"/>
       </defs>
       <use xlink:href="#DejaVuSans-33"/>
       <use xlink:href="#DejaVuSans-35" x="63.623047"/>
       <use xlink:href="#DejaVuSans-30" x="127.246094"/>
      </g>
     </g>
    </g>
    <g id="xtick_3">
     <g id="line2d_3">
      <g>
       <use xlink:href="#m3cfee7fb31" x="639.914408" y="961.2" style="stroke: #000000; stroke-width: 0.8"/>
      </g>
     </g>
     <g id="text_3">
      <!-- 400 -->
      <g transform="translate(630.370658 975.798437) scale(0.1 -0.1)">
       <defs>
        <path id="DejaVuSans-34" d="M 2419 4116 
L 825 1625 
L 2419 1625 
L 2419 4116 
z
M 2253 4666 
L 3047 4666 
L 3047 1625 
L 3713 1625 
L 3713 1100 
L 3047 1100 
L 3047 0 
L 2419 0 
L 2419 1100 
L 313 1100 
L 313 1709 
L 2253 4666 
z
" transform="scale(0.015625)"/>
       </defs>
       <use xlink:href="#DejaVuSans-34"/>
       <use xlink:href="#DejaVuSans-30" x="63.623047"/>
       <use xlink:href="#DejaVuSans-30" x="127.246094"/>
      </g>
     </g>
    </g>
    <g id="xtick_4">
     <g id="line2d_4">
      <g>
       <use xlink:href="#m3cfee7fb31" x="699.504799" y="961.2" style="stroke: #000000; stroke-width: 0.8"/>
      </g>
     </g>
     <g id="text_4">
      <!-- 450 -->
      <g transform="translate(689.961049 975.798437) scale(0.1 -0.1)">
       <use xlink:href="#DejaVuSans-34"/>
       <use xlink:href="#DejaVuSans-35" x="63.623047"/>
       <use xlink:href="#DejaVuSans-30" x="127.246094"/>
      </g>
     </g>
    </g>
    <g id="xtick_5">
     <g id="line2d_5">
      <g>
       <use xlink:href="#m3cfee7fb31" x="759.095189" y="961.2" style="stroke: #000000; stroke-width: 0.8"/>
      </g>
     </g>
     <g id="text_5">
      <!-- 500 -->
      <g transform="translate(749.551439 975.798437) scale(0.1 -0.1)">
       <use xlink:href="#DejaVuSans-35"/>
       <use xlink:href="#DejaVuSans-30" x="63.623047"/>
       <use xlink:href="#DejaVuSans-30" x="127.246094"/>
      </g>
     </g>
    </g>
    <g id="xtick_6">
     <g id="line2d_6">
      <g>
       <use xlink:href="#m3cfee7fb31" x="818.68558" y="961.2" style="stroke: #000000; stroke-width: 0.8"/>
      </g>
     </g>
     <g id="text_6">
      <!-- 550 -->
      <g transform="translate(809.14183 975.798437) scale(0.1 -0.1)">
       <use xlink:href="#DejaVuSans-35"/>
       <use xlink:href="#DejaVuSans-35" x="63.623047"/>
       <use xlink:href="#DejaVuSans-30" x="127.246094"/>
      </g>
     </g>
    </g>
    <g id="xtick_7">
     <g id="line2d_7">
      <g>
       <use xlink:href="#m3cfee7fb31" x="878.275971" y="961.2" style="stroke: #000000; stroke-width: 0.8"/>
      </g>
     </g>
     <g id="text_7">
      <!-- 600 -->
      <g transform="translate(868.732221 975.798437) scale(0.1 -0.1)">
       <defs>
        <path id="DejaVuSans-36" d="M 2113 2584 
Q 1688 2584 1439 2293 
Q 1191 2003 1191 1497 
Q 1191 994 1439 701 
Q 1688 409 2113 409 
Q 2538 409 2786 701 
Q 3034 994 3034 1497 
Q 3034 2003 2786 2293 
Q 2538 2584 2113 2584 
z
M 3366 4563 
L 3366 3988 
Q 3128 4100 2886 4159 
Q 2644 4219 2406 4219 
Q 1781 4219 1451 3797 
Q 1122 3375 1075 2522 
Q 1259 2794 1537 2939 
Q 1816 3084 2150 3084 
Q 2853 3084 3261 2657 
Q 3669 2231 3669 1497 
Q 3669 778 3244 343 
Q 2819 -91 2113 -91 
Q 1303 -91 875 529 
Q 447 1150 447 2328 
Q 447 3434 972 4092 
Q 1497 4750 2381 4750 
Q 2619 4750 2861 4703 
Q 3103 4656 3366 4563 
z
" transform="scale(0.015625)"/>
       </defs>
       <use xlink:href="#DejaVuSans-36"/>
       <use xlink:href="#DejaVuSans-30" x="63.623047"/>
       <use xlink:href="#DejaVuSans-30" x="127.246094"/>
      </g>
     </g>
    </g>
    <g id="xtick_8">
     <g id="line2d_8">
      <g>
       <use xlink:href="#m3cfee7fb31" x="937.866361" y="961.2" style="stroke: #000000; stroke-width: 0.8"/>
      </g>
     </g>
     <g id="text_8">
      <!-- 650 -->
      <g transform="translate(928.322611 975.798437) scale(0.1 -0.1)">
       <use xlink:href="#DejaVuSans-36"/>
       <use xlink:href="#DejaVuSans-35" x="63.623047"/>
       <use xlink:href="#DejaVuSans-30" x="127.246094"/>
      </g>
     </g>
    </g>
   </g>
   <g id="matplotlib.axis_2">
    <g id="ytick_1">
     <g id="line2d_9">
      <defs>
       <path id="m89cc2fdbdf" d="M 0 0 
L -3.5 0 
" style="stroke: #000000; stroke-width: 0.8"/>
      </defs>
      <g>
       <use xlink:href="#m89cc2fdbdf" x="519.22461" y="894.379386" style="stroke: #000000; stroke-width: 0.8"/>
      </g>
     </g>
     <g id="text_9">
      <!-- 100 -->
      <g transform="translate(493.13711 898.178605) scale(0.1 -0.1)">
       <defs>
        <path id="DejaVuSans-31" d="M 794 531 
L 1825 531 
L 1825 4091 
L 703 3866 
L 703 4441 
L 1819 4666 
L 2450 4666 
L 2450 531 
L 3481 531 
L 3481 0 
L 794 0 
L 794 531 
z
" transform="scale(0.015625)"/>
       </defs>
       <use xlink:href="#DejaVuSans-31"/>
       <use xlink:href="#DejaVuSans-30" x="63.623047"/>
       <use xlink:href="#DejaVuSans-30" x="127.246094"/>
      </g>
     </g>
    </g>
    <g id="ytick_2">
     <g id="line2d_10">
      <g>
       <use xlink:href="#m89cc2fdbdf" x="519.22461" y="775.198605" style="stroke: #000000; stroke-width: 0.8"/>
      </g>
     </g>
     <g id="text_10">
      <!-- 200 -->
      <g transform="translate(493.13711 778.997824) scale(0.1 -0.1)">
       <defs>
        <path id="DejaVuSans-32" d="M 1228 531 
L 3431 531 
L 3431 0 
L 469 0 
L 469 531 
Q 828 903 1448 1529 
Q 2069 2156 2228 2338 
Q 2531 2678 2651 2914 
Q 2772 3150 2772 3378 
Q 2772 3750 2511 3984 
Q 2250 4219 1831 4219 
Q 1534 4219 1204 4116 
Q 875 4013 500 3803 
L 500 4441 
Q 881 4594 1212 4672 
Q 1544 4750 1819 4750 
Q 2544 4750 2975 4387 
Q 3406 4025 3406 3419 
Q 3406 3131 3298 2873 
Q 3191 2616 2906 2266 
Q 2828 2175 2409 1742 
Q 1991 1309 1228 531 
z
" transform="scale(0.015625)"/>
       </defs>
       <use xlink:href="#DejaVuSans-32"/>
       <use xlink:href="#DejaVuSans-30" x="63.623047"/>
       <use xlink:href="#DejaVuSans-30" x="127.246094"/>
      </g>
     </g>
    </g>
    <g id="ytick_3">
     <g id="line2d_11">
      <g>
       <use xlink:href="#m89cc2fdbdf" x="519.22461" y="656.017824" style="stroke: #000000; stroke-width: 0.8"/>
      </g>
     </g>
     <g id="text_11">
      <!-- 300 -->
      <g transform="translate(493.13711 659.817043) scale(0.1 -0.1)">
       <use xlink:href="#DejaVuSans-33"/>
       <use xlink:href="#DejaVuSans-30" x="63.623047"/>
       <use xlink:href="#DejaVuSans-30" x="127.246094"/>
      </g>
     </g>
    </g>
    <g id="ytick_4">
     <g id="line2d_12">
      <g>
       <use xlink:href="#m89cc2fdbdf" x="519.22461" y="536.837043" style="stroke: #000000; stroke-width: 0.8"/>
      </g>
     </g>
     <g id="text_12">
      <!-- 400 -->
      <g transform="translate(493.13711 540.636261) scale(0.1 -0.1)">
       <use xlink:href="#DejaVuSans-34"/>
       <use xlink:href="#DejaVuSans-30" x="63.623047"/>
       <use xlink:href="#DejaVuSans-30" x="127.246094"/>
      </g>
     </g>
    </g>
    <g id="ytick_5">
     <g id="line2d_13">
      <g>
       <use xlink:href="#m89cc2fdbdf" x="519.22461" y="417.656261" style="stroke: #000000; stroke-width: 0.8"/>
      </g>
     </g>
     <g id="text_13">
      <!-- 500 -->
      <g transform="translate(493.13711 421.45548) scale(0.1 -0.1)">
       <use xlink:href="#DejaVuSans-35"/>
       <use xlink:href="#DejaVuSans-30" x="63.623047"/>
       <use xlink:href="#DejaVuSans-30" x="127.246094"/>
      </g>
     </g>
    </g>
    <g id="ytick_6">
     <g id="line2d_14">
      <g>
       <use xlink:href="#m89cc2fdbdf" x="519.22461" y="298.47548" style="stroke: #000000; stroke-width: 0.8"/>
      </g>
     </g>
     <g id="text_14">
      <!-- 600 -->
      <g transform="translate(493.13711 302.274699) scale(0.1 -0.1)">
       <use xlink:href="#DejaVuSans-36"/>
       <use xlink:href="#DejaVuSans-30" x="63.623047"/>
       <use xlink:href="#DejaVuSans-30" x="127.246094"/>
      </g>
     </g>
    </g>
    <g id="ytick_7">
     <g id="line2d_15">
      <g>
       <use xlink:href="#m89cc2fdbdf" x="519.22461" y="179.294699" style="stroke: #000000; stroke-width: 0.8"/>
      </g>
     </g>
     <g id="text_15">
      <!-- 700 -->
      <g transform="translate(493.13711 183.093917) scale(0.1 -0.1)">
       <defs>
        <path id="DejaVuSans-37" d="M 525 4666 
L 3525 4666 
L 3525 4397 
L 1831 0 
L 1172 0 
L 2766 4134 
L 525 4134 
L 525 4666 
z
" transform="scale(0.015625)"/>
       </defs>
       <use xlink:href="#DejaVuSans-37"/>
       <use xlink:href="#DejaVuSans-30" x="63.623047"/>
       <use xlink:href="#DejaVuSans-30" x="127.246094"/>
      </g>
     </g>
    </g>
   </g>
   <g id="LineCollection_1">
    <path d="M 562.98748 913.279794 
L 600.535863 917.456018 
L 634.955781 920.519384 
L 666.380408 922.493937 
L 694.953587 923.4 
L 720.832483 923.250456 
L 744.190714 922.044348 
L 765.220839 919.755881 
L 784.132569 916.316187 
L 798.249579 912.53424 
L 801.136843 911.586355 
L 812.909606 906.983915 
L 816.394455 905.330144 
L 827.980271 898.674939 
L 829.901859 897.228783 
L 837.3355 891.105585 
L 839.444515 889.175182 
L 841.340988 887.035604 
L 846.780188 880.213158 
L 848.590061 877.655804 
L 850.096297 874.908634 
L 853.657757 867.4282 
L 854.826743 864.567687 
L 855.666344 861.593779 
L 857.466473 853.496875 
L 857.928198 850.783204 
L 858.115433 848.036907 
L 858.216196 837.089021 
L 857.973523 834.82516 
L 856.598089 825.620417 
L 855.829343 822.088432 
L 853.038132 812.392354 
L 852.116664 809.718701 
L 847.113846 797.557842 
L 841.002876 785.475016 
L 833.916372 773.381779 
L 825.963985 761.226133 
L 817.24529 748.982915 
L 807.855572 736.645625 
L 797.888196 724.22046 
L 787.435418 711.722193 
L 776.588499 699.171364 
L 765.437547 686.592367 
L 754.071247 674.012136 
L 731.038567 648.96328 
L 696.934647 612.070022 
L 686.005532 600.082005 
L 675.420647 588.301814 
L 665.248765 576.759554 
L 655.555508 565.48559 
L 646.403198 554.510818 
L 637.850673 543.867069 
L 629.95302 533.587655 
L 622.761157 523.708113 
L 616.321142 514.267135 
L 610.673037 505.307675 
L 605.849049 496.878115 
L 601.870536 489.033138 
L 598.743438 481.833559 
L 596.451821 475.343604 
L 594.950076 469.62311 
L 594.156478 464.71153 
L 593.954692 460.602297 
L 594.212997 457.213287 
L 594.826529 454.371446 
L 595.768976 451.835232 
L 597.11916 449.358722 
L 599.036274 446.763606 
L 601.69867 443.974074 
L 605.248044 441.002763 
L 609.765123 437.91184 
L 615.273313 434.777018 
L 621.754392 431.666069 
L 629.164403 428.630271 
L 637.445243 425.703399 
L 646.531766 422.903875 
L 656.355646 420.237728 
L 666.84727 417.701309 
L 677.936541 415.283482 
L 689.553146 412.967263 
L 701.626607 410.731023 
L 726.861249 406.393564 
L 766.477058 399.734768 
L 779.858446 397.330696 
L 793.208619 394.765812 
L 806.462051 391.993056 
L 819.555719 388.960548 
L 832.429688 385.610019 
L 845.02739 381.874501 
L 857.295103 377.675063 
L 869.179643 372.916541 
L 880.622586 367.482799 
L 891.548516 361.233581 
L 899.539522 355.770424 
L 901.844945 354.008239 
L 908.887548 348.008766 
L 911.335532 345.646007 
L 917.352741 339.06946 
L 919.759795 336.032946 
L 925.803427 327.045158 
L 926.788404 325.169643 
L 931.397337 315.299165 
L 932.098198 313.216925 
L 935.121207 302.582155 
L 935.478505 300.459969 
L 936.668657 291.17863 
L 936.886718 287.192024 
L 936.70327 277.139476 
L 936.409089 273.603676 
L 934.792563 262.74412 
L 934.174505 259.750029 
L 931.06981 248.049068 
L 930.289757 245.584497 
L 924.817193 231.009678 
L 917.779506 215.914921 
L 909.173162 200.195946 
L 898.980964 183.762228 
L 887.795049 167.4 
L 887.795049 167.4 
" clip-path="url(#p383bd94169)" style="fill: none; stroke: #1f77b4; stroke-width: 1.5"/>
    <path d="M 566.022324 886.036732 
L 602.973128 890.153006 
L 636.686087 893.16247 
L 667.267239 895.096707 
L 694.824688 895.988723 
L 719.468375 895.872839 
L 741.309853 894.784573 
L 760.46207 892.760533 
L 777.039145 889.838308 
L 791.156155 886.056361 
L 802.928919 881.453921 
L 812.473786 876.070877 
L 819.907426 869.94768 
L 825.346627 863.125234 
L 828.908086 855.6448 
L 830.708215 847.547897 
L 830.862939 838.876202 
L 829.487505 829.671459 
L 826.696294 819.975381 
L 822.60263 809.829559 
L 817.318601 799.275373 
L 810.954878 788.353902 
L 803.62054 777.105842 
L 795.422907 765.571413 
L 786.467368 753.790286 
L 776.857222 741.801496 
L 766.693521 729.643365 
L 756.074913 717.353429 
L 745.097499 704.968361 
L 733.854685 692.523898 
L 722.437045 680.054775 
L 710.932188 667.594657 
L 699.424629 655.176072 
L 687.995667 642.83035 
L 676.723267 630.587564 
L 665.681947 618.476472 
L 654.942675 606.52446 
L 644.572766 594.757494 
L 634.63579 583.200066 
L 625.191481 571.875151 
L 616.295656 560.80416 
L 608.000144 550.0069 
L 600.352709 539.501534 
L 593.396994 529.304547 
L 587.172462 519.430714 
L 581.714348 509.893067 
L 577.053619 500.702871 
L 573.216934 491.869599 
L 570.226624 483.400912 
L 568.100664 475.302643 
L 566.852666 467.578779 
L 566.491872 460.231453 
L 567.023154 453.260936 
L 568.447031 446.665632 
L 570.75968 440.442076 
L 573.952968 434.584941 
L 578.014485 429.087036 
L 582.927584 423.939325 
L 588.671441 419.130933 
L 595.221106 414.649163 
L 602.547577 410.479521 
L 610.617877 406.605737 
L 619.395142 403.009791 
L 628.838713 399.67195 
L 638.904247 396.570796 
L 649.543827 393.683273 
L 660.706087 390.984724 
L 672.336348 388.448942 
L 684.376757 386.048222 
L 696.766447 383.753411 
L 709.441691 381.533973 
L 722.336086 379.358052 
L 735.380728 377.192535 
L 748.504409 375.003132 
L 761.633823 372.754446 
L 774.693779 370.410054 
L 787.607428 367.932599 
L 800.296498 365.28387 
L 812.681545 362.424903 
L 824.682209 359.316079 
L 836.217483 355.917224 
L 847.205999 352.187719 
L 857.566316 348.086613 
L 867.217227 343.572738 
L 876.078075 338.604836 
L 884.069081 333.141679 
L 891.111684 327.142206 
L 897.128893 320.565658 
L 902.045654 313.37172 
L 905.78922 305.520666 
L 908.28955 296.973512 
L 909.479702 287.692173 
L 909.296254 277.639624 
L 907.679728 266.780068 
L 904.575032 255.079107 
L 899.931915 242.503922 
L 893.70543 229.023451 
L 885.856418 214.608584 
L 876.352 199.23235 
L 865.166085 182.870122 
" clip-path="url(#p383bd94169)" style="fill: none; stroke: #8c564b; stroke-width: 1.5"/>
    <path d="M 569.057168 858.79367 
L 605.709511 862.876696 
L 638.770221 865.827936 
L 668.576117 867.713138 
L 695.203784 868.575058 
L 718.721492 868.464469 
L 739.185733 867.444824 
L 756.637679 865.600472 
L 771.101753 863.050729 
L 782.592788 859.972281 
L 791.147483 856.627911 
L 796.907389 853.379482 
L 800.263484 850.615018 
L 801.950377 848.49913 
L 802.823683 846.664852 
L 803.350291 844.296194 
L 803.414998 840.66957 
L 802.644603 835.513892 
L 800.74614 828.919033 
L 797.596178 821.112102 
L 793.196614 812.324523 
L 787.617275 802.74922 
L 780.958979 792.537949 
L 773.334305 781.809698 
L 764.858495 770.659661 
L 755.645388 759.166182 
L 745.805701 747.395647 
L 735.446347 735.40577 
L 724.670222 723.247802 
L 713.576153 710.967982 
L 690.809214 686.208126 
L 656.466365 649.055174 
L 645.292209 636.797315 
L 634.37742 624.648063 
L 623.787569 612.628427 
L 613.583923 600.756079 
L 603.823431 589.044926 
L 594.558785 577.504553 
L 585.838606 566.139505 
L 577.707845 554.948374 
L 570.208544 543.922704 
L 563.381178 533.045762 
L 557.26692 522.291371 
L 551.911255 511.623322 
L 547.369385 500.996421 
L 543.713427 490.361164 
L 541.587468 482.262895 
L 541.040046 479.675014 
L 539.792048 471.95115 
L 539.474076 468.92322 
L 539.113282 461.575894 
L 539.159567 458.148225 
L 539.69085 451.177708 
L 540.228898 447.476257 
L 541.652774 440.880953 
L 542.752129 437.117505 
L 545.064778 430.89395 
L 546.692562 427.320775 
L 549.88585 421.46364 
L 551.905105 418.297324 
L 555.966622 412.79942 
L 558.184965 410.161264 
L 563.098065 405.013553 
L 565.331985 402.920534 
L 571.075842 398.112142 
L 573.191574 396.508633 
L 581.662634 390.825592 
L 590.685635 385.767398 
L 600.225967 381.240349 
L 610.260296 377.165076 
L 620.767688 373.475514 
L 631.724606 370.116166 
L 643.102463 367.039258 
L 654.866644 364.202349 
L 666.976299 361.566521 
L 679.384511 359.095074 
L 692.038605 356.752629 
L 717.846979 352.316554 
L 756.898416 345.754767 
L 769.68965 343.458614 
L 782.224143 341.053899 
L 794.412472 338.509695 
L 806.160527 335.797772 
L 817.369385 332.894069 
L 827.935368 329.780814 
L 837.750651 326.449505 
L 846.705143 322.90489 
L 854.690973 319.169799 
L 861.611746 315.289615 
L 867.399226 311.332927 
L 872.038371 307.380919 
L 875.593941 303.494836 
L 878.216721 299.657327 
L 880.098585 295.710657 
L 881.374946 291.34753 
L 882.036164 286.191057 
L 881.921673 279.917211 
L 880.792308 272.330321 
L 878.41211 263.359844 
L 874.592402 253.014738 
L 869.19914 241.338211 
L 862.143064 228.379588 
L 853.366976 214.181645 
L 842.53712 198.340244 
L 842.53712 198.340244 
" clip-path="url(#p383bd94169)" style="fill: none; stroke: #17becf; stroke-width: 1.5"/>
   </g>
   <g id="patch_3">
    <path d="M 519.22461 961.2 
L 519.22461 129.6 
" style="fill: none; stroke: #000000; stroke-width: 0.8; stroke-linejoin: miter; stroke-linecap: square"/>
   </g>
   <g id="patch_4">
    <path d="M 956.77539 961.2 
L 956.77539 129.6 
" style="fill: none; stroke: #000000; stroke-width: 0.8; stroke-linejoin: miter; stroke-linecap: square"/>
   </g>
   <g id="patch_5">
    <path d="M 519.22461 961.2 
L 956.77539 961.2 
" style="fill: none; stroke: #000000; stroke-width: 0.8; stroke-linejoin: miter; stroke-linecap: square"/>
   </g>
   <g id="patch_6">
    <path d="M 519.22461 129.6 
L 956.77539 129.6 
" style="fill: none; stroke: #000000; stroke-width: 0.8; stroke-linejoin: miter; stroke-linecap: square"/>
   </g>
  </g>
 </g>
 <defs>
  <clipPath id="p383bd94169">
   <rect x="519.22461" y="129.6" width="437.55078" height="831.6"/>
  </clipPath>
 </defs>
</svg>
