<?xml version="1.0" encoding="utf-8" standalone="no"?>
<!DOCTYPE svg PUBLIC "-//W3C//DTD SVG 1.1//EN"
  "http://www.w3.org/Graphics/SVG/1.1/DTD/svg11.dtd">
<svg xmlns:xlink="http://www.w3.org/1999/xlink" width="1440pt" height="1080pt" viewBox="0 0 1440 1080" xmlns="http://www.w3.org/2000/svg" version="1.1">
 <metadata>
  <rdf:RDF xmlns:dc="http://purl.org/dc/elements/1.1/" xmlns:cc="http://creativecommons.org/ns#" xmlns:rdf="http://www.w3.org/1999/02/22-rdf-syntax-ns#">
   <cc:Work>
    <dc:type rdf:resource="http://purl.org/dc/dcmitype/StillImage"/>
    <dc:date>2023-12-11T12:06:57.089848</dc:date>
    <dc:format>image/svg+xml</dc:format>
    <dc:creator>
     <cc:Agent>
      <dc:title>Matplotlib v3.7.1, https://matplotlib.org/</dc:title>
     </cc:Agent>
    </dc:creator>
   </cc:Work>
  </rdf:RDF>
 </metadata>
 <defs>
  <style type="text/css">*{stroke-linejoin: round; stroke-linecap: butt}</style>
 </defs>
 <g id="figure_1">
  <g id="patch_1">
   <path d="M 0 1080 
L 1440 1080 
L 1440 0 
L 0 0 
z
" style="fill: #ffffff"/>
  </g>
  <g id="axes_1">
   <g id="patch_2">
    <path d="M 180 728.788584 
L 1296 728.788584 
L 1296 362.011416 
L 180 362.011416 
z
" style="fill: #ffffff"/>
   </g>
   <g id="matplotlib.axis_1">
    <g id="xtick_1">
     <g id="line2d_1">
      <defs>
       <path id="m4f8b9be99a" d="M 0 0 
L 0 3.5 
" style="stroke: #000000; stroke-width: 0.8"/>
      </defs>
      <g>
       <use xlink:href="#m4f8b9be99a" x="190.595534" y="728.788584" style="stroke: #000000; stroke-width: 0.8"/>
      </g>
     </g>
     <g id="text_1">
      <!-- 400 -->
      <g transform="translate(181.051784 743.387022) scale(0.1 -0.1)">
       <defs>
        <path id="DejaVuSans-34" d="M 2419 4116 
L 825 1625 
L 2419 1625 
L 2419 4116 
z
M 2253 4666 
L 3047 4666 
L 3047 1625 
L 3713 1625 
L 3713 1100 
L 3047 1100 
L 3047 0 
L 2419 0 
L 2419 1100 
L 313 1100 
L 313 1709 
L 2253 4666 
z
" transform="scale(0.015625)"/>
        <path id="DejaVuSans-30" d="M 2034 4250 
Q 1547 4250 1301 3770 
Q 1056 3291 1056 2328 
Q 1056 1369 1301 889 
Q 1547 409 2034 409 
Q 2525 409 2770 889 
Q 3016 1369 3016 2328 
Q 3016 3291 2770 3770 
Q 2525 4250 2034 4250 
z
M 2034 4750 
Q 2819 4750 3233 4129 
Q 3647 3509 3647 2328 
Q 3647 1150 3233 529 
Q 2819 -91 2034 -91 
Q 1250 -91 836 529 
Q 422 1150 422 2328 
Q 422 3509 836 4129 
Q 1250 4750 2034 4750 
z
" transform="scale(0.015625)"/>
       </defs>
       <use xlink:href="#DejaVuSans-34"/>
       <use xlink:href="#DejaVuSans-30" x="63.623047"/>
       <use xlink:href="#DejaVuSans-30" x="127.246094"/>
      </g>
     </g>
    </g>
    <g id="xtick_2">
     <g id="line2d_2">
      <g>
       <use xlink:href="#m4f8b9be99a" x="378.402907" y="728.788584" style="stroke: #000000; stroke-width: 0.8"/>
      </g>
     </g>
     <g id="text_2">
      <!-- 600 -->
      <g transform="translate(368.859157 743.387022) scale(0.1 -0.1)">
       <defs>
        <path id="DejaVuSans-36" d="M 2113 2584 
Q 1688 2584 1439 2293 
Q 1191 2003 1191 1497 
Q 1191 994 1439 701 
Q 1688 409 2113 409 
Q 2538 409 2786 701 
Q 3034 994 3034 1497 
Q 3034 2003 2786 2293 
Q 2538 2584 2113 2584 
z
M 3366 4563 
L 3366 3988 
Q 3128 4100 2886 4159 
Q 2644 4219 2406 4219 
Q 1781 4219 1451 3797 
Q 1122 3375 1075 2522 
Q 1259 2794 1537 2939 
Q 1816 3084 2150 3084 
Q 2853 3084 3261 2657 
Q 3669 2231 3669 1497 
Q 3669 778 3244 343 
Q 2819 -91 2113 -91 
Q 1303 -91 875 529 
Q 447 1150 447 2328 
Q 447 3434 972 4092 
Q 1497 4750 2381 4750 
Q 2619 4750 2861 4703 
Q 3103 4656 3366 4563 
z
" transform="scale(0.015625)"/>
       </defs>
       <use xlink:href="#DejaVuSans-36"/>
       <use xlink:href="#DejaVuSans-30" x="63.623047"/>
       <use xlink:href="#DejaVuSans-30" x="127.246094"/>
      </g>
     </g>
    </g>
    <g id="xtick_3">
     <g id="line2d_3">
      <g>
       <use xlink:href="#m4f8b9be99a" x="566.210279" y="728.788584" style="stroke: #000000; stroke-width: 0.8"/>
      </g>
     </g>
     <g id="text_3">
      <!-- 800 -->
      <g transform="translate(556.666529 743.387022) scale(0.1 -0.1)">
       <defs>
        <path id="DejaVuSans-38" d="M 2034 2216 
Q 1584 2216 1326 1975 
Q 1069 1734 1069 1313 
Q 1069 891 1326 650 
Q 1584 409 2034 409 
Q 2484 409 2743 651 
Q 3003 894 3003 1313 
Q 3003 1734 2745 1975 
Q 2488 2216 2034 2216 
z
M 1403 2484 
Q 997 2584 770 2862 
Q 544 3141 544 3541 
Q 544 4100 942 4425 
Q 1341 4750 2034 4750 
Q 2731 4750 3128 4425 
Q 3525 4100 3525 3541 
Q 3525 3141 3298 2862 
Q 3072 2584 2669 2484 
Q 3125 2378 3379 2068 
Q 3634 1759 3634 1313 
Q 3634 634 3220 271 
Q 2806 -91 2034 -91 
Q 1263 -91 848 271 
Q 434 634 434 1313 
Q 434 1759 690 2068 
Q 947 2378 1403 2484 
z
M 1172 3481 
Q 1172 3119 1398 2916 
Q 1625 2713 2034 2713 
Q 2441 2713 2670 2916 
Q 2900 3119 2900 3481 
Q 2900 3844 2670 4047 
Q 2441 4250 2034 4250 
Q 1625 4250 1398 4047 
Q 1172 3844 1172 3481 
z
" transform="scale(0.015625)"/>
       </defs>
       <use xlink:href="#DejaVuSans-38"/>
       <use xlink:href="#DejaVuSans-30" x="63.623047"/>
       <use xlink:href="#DejaVuSans-30" x="127.246094"/>
      </g>
     </g>
    </g>
    <g id="xtick_4">
     <g id="line2d_4">
      <g>
       <use xlink:href="#m4f8b9be99a" x="754.017652" y="728.788584" style="stroke: #000000; stroke-width: 0.8"/>
      </g>
     </g>
     <g id="text_4">
      <!-- 1000 -->
      <g transform="translate(741.292652 743.387022) scale(0.1 -0.1)">
       <defs>
        <path id="DejaVuSans-31" d="M 794 531 
L 1825 531 
L 1825 4091 
L 703 3866 
L 703 4441 
L 1819 4666 
L 2450 4666 
L 2450 531 
L 3481 531 
L 3481 0 
L 794 0 
L 794 531 
z
" transform="scale(0.015625)"/>
       </defs>
       <use xlink:href="#DejaVuSans-31"/>
       <use xlink:href="#DejaVuSans-30" x="63.623047"/>
       <use xlink:href="#DejaVuSans-30" x="127.246094"/>
       <use xlink:href="#DejaVuSans-30" x="190.869141"/>
      </g>
     </g>
    </g>
    <g id="xtick_5">
     <g id="line2d_5">
      <g>
       <use xlink:href="#m4f8b9be99a" x="941.825024" y="728.788584" style="stroke: #000000; stroke-width: 0.8"/>
      </g>
     </g>
     <g id="text_5">
      <!-- 1200 -->
      <g transform="translate(929.100024 743.387022) scale(0.1 -0.1)">
       <defs>
        <path id="DejaVuSans-32" d="M 1228 531 
L 3431 531 
L 3431 0 
L 469 0 
L 469 531 
Q 828 903 1448 1529 
Q 2069 2156 2228 2338 
Q 2531 2678 2651 2914 
Q 2772 3150 2772 3378 
Q 2772 3750 2511 3984 
Q 2250 4219 1831 4219 
Q 1534 4219 1204 4116 
Q 875 4013 500 3803 
L 500 4441 
Q 881 4594 1212 4672 
Q 1544 4750 1819 4750 
Q 2544 4750 2975 4387 
Q 3406 4025 3406 3419 
Q 3406 3131 3298 2873 
Q 3191 2616 2906 2266 
Q 2828 2175 2409 1742 
Q 1991 1309 1228 531 
z
" transform="scale(0.015625)"/>
       </defs>
       <use xlink:href="#DejaVuSans-31"/>
       <use xlink:href="#DejaVuSans-32" x="63.623047"/>
       <use xlink:href="#DejaVuSans-30" x="127.246094"/>
       <use xlink:href="#DejaVuSans-30" x="190.869141"/>
      </g>
     </g>
    </g>
    <g id="xtick_6">
     <g id="line2d_6">
      <g>
       <use xlink:href="#m4f8b9be99a" x="1129.632397" y="728.788584" style="stroke: #000000; stroke-width: 0.8"/>
      </g>
     </g>
     <g id="text_6">
      <!-- 1400 -->
      <g transform="translate(1116.907397 743.387022) scale(0.1 -0.1)">
       <use xlink:href="#DejaVuSans-31"/>
       <use xlink:href="#DejaVuSans-34" x="63.623047"/>
       <use xlink:href="#DejaVuSans-30" x="127.246094"/>
       <use xlink:href="#DejaVuSans-30" x="190.869141"/>
      </g>
     </g>
    </g>
   </g>
   <g id="matplotlib.axis_2">
    <g id="ytick_1">
     <g id="line2d_7">
      <defs>
       <path id="m8d2d4121b5" d="M 0 0 
L -3.5 0 
" style="stroke: #000000; stroke-width: 0.8"/>
      </defs>
      <g>
       <use xlink:href="#m8d2d4121b5" x="180" y="711.693127" style="stroke: #000000; stroke-width: 0.8"/>
      </g>
     </g>
     <g id="text_7">
      <!-- 1000 -->
      <g transform="translate(147.55 715.492346) scale(0.1 -0.1)">
       <use xlink:href="#DejaVuSans-31"/>
       <use xlink:href="#DejaVuSans-30" x="63.623047"/>
       <use xlink:href="#DejaVuSans-30" x="127.246094"/>
       <use xlink:href="#DejaVuSans-30" x="190.869141"/>
      </g>
     </g>
    </g>
    <g id="ytick_2">
     <g id="line2d_8">
      <g>
       <use xlink:href="#m8d2d4121b5" x="180" y="664.741284" style="stroke: #000000; stroke-width: 0.8"/>
      </g>
     </g>
     <g id="text_8">
      <!-- 1050 -->
      <g transform="translate(147.55 668.540503) scale(0.1 -0.1)">
       <defs>
        <path id="DejaVuSans-35" d="M 691 4666 
L 3169 4666 
L 3169 4134 
L 1269 4134 
L 1269 2991 
Q 1406 3038 1543 3061 
Q 1681 3084 1819 3084 
Q 2600 3084 3056 2656 
Q 3513 2228 3513 1497 
Q 3513 744 3044 326 
Q 2575 -91 1722 -91 
Q 1428 -91 1123 -41 
Q 819 9 494 109 
L 494 744 
Q 775 591 1075 516 
Q 1375 441 1709 441 
Q 2250 441 2565 725 
Q 2881 1009 2881 1497 
Q 2881 1984 2565 2268 
Q 2250 2553 1709 2553 
Q 1456 2553 1204 2497 
Q 953 2441 691 2322 
L 691 4666 
z
" transform="scale(0.015625)"/>
       </defs>
       <use xlink:href="#DejaVuSans-31"/>
       <use xlink:href="#DejaVuSans-30" x="63.623047"/>
       <use xlink:href="#DejaVuSans-35" x="127.246094"/>
       <use xlink:href="#DejaVuSans-30" x="190.869141"/>
      </g>
     </g>
    </g>
    <g id="ytick_3">
     <g id="line2d_9">
      <g>
       <use xlink:href="#m8d2d4121b5" x="180" y="617.789441" style="stroke: #000000; stroke-width: 0.8"/>
      </g>
     </g>
     <g id="text_9">
      <!-- 1100 -->
      <g transform="translate(147.55 621.58866) scale(0.1 -0.1)">
       <use xlink:href="#DejaVuSans-31"/>
       <use xlink:href="#DejaVuSans-31" x="63.623047"/>
       <use xlink:href="#DejaVuSans-30" x="127.246094"/>
       <use xlink:href="#DejaVuSans-30" x="190.869141"/>
      </g>
     </g>
    </g>
    <g id="ytick_4">
     <g id="line2d_10">
      <g>
       <use xlink:href="#m8d2d4121b5" x="180" y="570.837598" style="stroke: #000000; stroke-width: 0.8"/>
      </g>
     </g>
     <g id="text_10">
      <!-- 1150 -->
      <g transform="translate(147.55 574.636817) scale(0.1 -0.1)">
       <use xlink:href="#DejaVuSans-31"/>
       <use xlink:href="#DejaVuSans-31" x="63.623047"/>
       <use xlink:href="#DejaVuSans-35" x="127.246094"/>
       <use xlink:href="#DejaVuSans-30" x="190.869141"/>
      </g>
     </g>
    </g>
    <g id="ytick_5">
     <g id="line2d_11">
      <g>
       <use xlink:href="#m8d2d4121b5" x="180" y="523.885755" style="stroke: #000000; stroke-width: 0.8"/>
      </g>
     </g>
     <g id="text_11">
      <!-- 1200 -->
      <g transform="translate(147.55 527.684974) scale(0.1 -0.1)">
       <use xlink:href="#DejaVuSans-31"/>
       <use xlink:href="#DejaVuSans-32" x="63.623047"/>
       <use xlink:href="#DejaVuSans-30" x="127.246094"/>
       <use xlink:href="#DejaVuSans-30" x="190.869141"/>
      </g>
     </g>
    </g>
    <g id="ytick_6">
     <g id="line2d_12">
      <g>
       <use xlink:href="#m8d2d4121b5" x="180" y="476.933912" style="stroke: #000000; stroke-width: 0.8"/>
      </g>
     </g>
     <g id="text_12">
      <!-- 1250 -->
      <g transform="translate(147.55 480.73313) scale(0.1 -0.1)">
       <use xlink:href="#DejaVuSans-31"/>
       <use xlink:href="#DejaVuSans-32" x="63.623047"/>
       <use xlink:href="#DejaVuSans-35" x="127.246094"/>
       <use xlink:href="#DejaVuSans-30" x="190.869141"/>
      </g>
     </g>
    </g>
    <g id="ytick_7">
     <g id="line2d_13">
      <g>
       <use xlink:href="#m8d2d4121b5" x="180" y="429.982069" style="stroke: #000000; stroke-width: 0.8"/>
      </g>
     </g>
     <g id="text_13">
      <!-- 1300 -->
      <g transform="translate(147.55 433.781287) scale(0.1 -0.1)">
       <defs>
        <path id="DejaVuSans-33" d="M 2597 2516 
Q 3050 2419 3304 2112 
Q 3559 1806 3559 1356 
Q 3559 666 3084 287 
Q 2609 -91 1734 -91 
Q 1441 -91 1130 -33 
Q 819 25 488 141 
L 488 750 
Q 750 597 1062 519 
Q 1375 441 1716 441 
Q 2309 441 2620 675 
Q 2931 909 2931 1356 
Q 2931 1769 2642 2001 
Q 2353 2234 1838 2234 
L 1294 2234 
L 1294 2753 
L 1863 2753 
Q 2328 2753 2575 2939 
Q 2822 3125 2822 3475 
Q 2822 3834 2567 4026 
Q 2313 4219 1838 4219 
Q 1578 4219 1281 4162 
Q 984 4106 628 3988 
L 628 4550 
Q 988 4650 1302 4700 
Q 1616 4750 1894 4750 
Q 2613 4750 3031 4423 
Q 3450 4097 3450 3541 
Q 3450 3153 3228 2886 
Q 3006 2619 2597 2516 
z
" transform="scale(0.015625)"/>
       </defs>
       <use xlink:href="#DejaVuSans-31"/>
       <use xlink:href="#DejaVuSans-33" x="63.623047"/>
       <use xlink:href="#DejaVuSans-30" x="127.246094"/>
       <use xlink:href="#DejaVuSans-30" x="190.869141"/>
      </g>
     </g>
    </g>
    <g id="ytick_8">
     <g id="line2d_14">
      <g>
       <use xlink:href="#m8d2d4121b5" x="180" y="383.030225" style="stroke: #000000; stroke-width: 0.8"/>
      </g>
     </g>
     <g id="text_14">
      <!-- 1350 -->
      <g transform="translate(147.55 386.829444) scale(0.1 -0.1)">
       <use xlink:href="#DejaVuSans-31"/>
       <use xlink:href="#DejaVuSans-33" x="63.623047"/>
       <use xlink:href="#DejaVuSans-35" x="127.246094"/>
       <use xlink:href="#DejaVuSans-30" x="190.869141"/>
      </g>
     </g>
    </g>
   </g>
   <g id="LineCollection_1">
    <path d="M 1222.45825 378.683105 
L 1213.933319 401.0533 
L 1205.35038 421.443879 
L 1196.653347 440.128074 
L 1187.855215 457.199946 
L 1178.969163 472.754105 
L 1170.008099 486.885587 
L 1160.984127 499.689635 
L 1151.908 511.261338 
L 1142.788621 521.695084 
L 1133.632685 531.083824 
L 1124.444557 539.518208 
L 1115.226445 547.08567 
L 1105.978853 553.869609 
L 1096.701257 559.94879 
L 1087.392863 565.397025 
L 1078.053318 570.283167 
L 1068.683246 574.671337 
L 1059.284566 578.621309 
L 1049.860575 582.188932 
L 1040.415853 585.42653 
L 1030.956044 588.383216 
L 1021.487574 591.105098 
L 1012.017363 593.63541 
L 993.100349 598.280065 
L 964.877996 604.728885 
L 946.223983 609.020636 
L 927.771284 613.503635 
L 909.55116 618.293752 
L 891.725491 623.413507 
L 882.698862 626.183421 
L 865.124322 631.919716 
L 847.801704 637.985318 
L 830.708887 644.293019 
L 780.377453 663.385319 
L 763.748369 669.272474 
L 755.429916 672.027657 
L 747.097606 674.627704 
L 738.742457 677.050879 
L 730.354989 679.276003 
L 721.925176 681.282605 
L 713.442396 683.051046 
L 704.895409 684.562613 
L 696.27237 685.799585 
L 687.560897 686.745276 
L 678.748198 687.384083 
L 669.821259 687.701549 
L 660.767097 687.684462 
L 651.573045 687.321016 
L 642.227051 686.601028 
L 632.717965 685.516236 
L 623.035788 684.060637 
L 613.171864 682.230882 
L 603.118999 680.026676 
L 592.871527 677.451185 
L 582.425311 674.511422 
L 571.777701 671.218608 
L 560.927465 667.588495 
L 549.874697 663.641667 
L 538.620722 659.403803 
L 527.167997 654.905925 
L 503.681138 645.282317 
L 467.028182 629.986373 
L 454.456543 624.898407 
L 441.721883 619.937394 
L 428.830185 615.186899 
L 415.787004 610.739125 
L 402.597353 606.695914 
L 389.265867 603.170101 
L 375.797549 600.287244 
L 362.199604 598.187625 
L 348.484993 597.02804 
L 334.678198 596.982244 
L 320.82276 598.238169 
L 306.988052 600.990046 
L 293.270312 605.42576 
L 279.783224 611.714435 
L 266.639108 620.002537 
L 253.929778 630.42308 
L 241.717455 643.113217 
L 230.727273 657.248179 
L 230.727273 657.248179 
" clip-path="url(#p924bc9b995)" style="fill: none; stroke: #1f77b4; stroke-width: 1.5"/>
    <path d="M 1233.865489 383.030225 
L 1225.265951 405.596195 
L 1216.513553 426.389358 
L 1207.61702 445.502149 
L 1198.585659 463.026576 
L 1189.429266 479.053943 
L 1180.15802 493.674577 
L 1170.782398 506.977579 
L 1161.313082 519.050583 
L 1151.760878 529.979535 
L 1142.136637 539.848488 
L 1132.451182 548.739401 
L 1122.715238 556.731969 
L 1112.939364 563.90345 
L 1103.133898 570.32852 
L 1093.308893 576.079129 
L 1083.47407 581.224384 
L 1073.638767 585.830431 
L 1063.811894 589.960358 
L 1054.001893 593.674112 
L 1044.2167 597.028423 
L 1034.463714 600.076741 
L 1024.749765 602.86919 
L 1015.081088 605.45253 
L 1005.463303 607.870124 
L 995.901392 610.161933 
L 986.399687 612.364503 
L 976.961855 614.510974 
L 967.590891 616.631101 
L 958.28911 618.751274 
L 949.058142 620.894561 
L 939.898939 623.08075 
L 930.811767 625.32641 
L 921.796224 627.644953 
L 912.851236 630.046711 
L 903.975078 632.53902 
L 895.165381 635.126307 
L 886.419151 637.8102 
L 877.732789 640.589627 
L 869.102107 643.460937 
L 860.522356 646.418025 
L 851.988247 649.452463 
L 843.493984 652.553636 
L 835.033288 655.70889 
L 826.599432 658.903686 
L 818.185273 662.121755 
L 809.783289 665.345265 
L 801.385612 668.554993 
L 792.984071 671.7305 
L 784.570231 674.850316 
L 776.135434 677.892123 
L 767.670842 680.832952 
L 759.167483 683.649378 
L 750.616295 686.317724 
L 742.008176 688.814266 
L 733.334029 691.115444 
L 724.584814 693.198074 
L 715.751598 695.039572 
L 706.825602 696.618169 
L 697.79826 697.913138 
L 688.661267 698.905021 
L 679.406634 699.575863 
L 670.026741 699.909437 
L 660.514393 699.891486 
L 650.862876 699.509956 
L 641.06601 698.755235 
L 631.118206 697.620393 
L 621.014521 696.101426 
L 610.750717 694.197494 
L 600.323314 691.911166 
L 589.729647 689.248666 
L 578.967924 686.220113 
L 568.03728 682.839769 
L 556.937834 679.126279 
L 545.670742 675.102919 
L 534.238257 670.797833 
L 522.643776 666.244283 
L 510.891903 661.480884 
L 498.988495 656.551844 
L 486.94072 651.507206 
L 474.757106 646.40308 
L 462.447591 641.301882 
L 450.023577 636.27256 
L 437.497978 631.390829 
L 424.885266 626.739396 
L 412.201521 622.40818 
L 399.464473 618.494541 
L 386.693552 615.103489 
L 373.909927 612.347901 
L 361.136546 610.34873 
L 348.398183 609.235211 
L 335.72147 609.145062 
L 323.134936 610.224678 
L 310.669044 612.629327 
L 298.356221 616.523331 
L 286.230891 622.080251 
L 274.329507 629.48306 
L 262.690572 638.924317 
L 251.354671 650.606322 
L 240.364488 664.741284 
" clip-path="url(#p924bc9b995)" style="fill: none; stroke: #8c564b; stroke-width: 1.5"/>
    <path d="M 1245.272727 387.377346 
L 1236.517302 410.332189 
L 1227.580812 431.540895 
L 1218.468244 451.094418 
L 1209.185318 469.082134 
L 1199.738707 485.591372 
L 1190.136342 500.707048 
L 1180.387781 514.511446 
L 1170.504575 527.084199 
L 1160.500544 538.502492 
L 1150.391876 548.841461 
L 1140.196964 558.174729 
L 1129.935939 566.574937 
L 1119.629965 574.114151 
L 1109.300373 580.864037 
L 1098.967794 586.895755 
L 1088.651419 592.279592 
L 1078.36847 597.084428 
L 1068.133919 601.377128 
L 1057.960428 605.221949 
L 1047.858441 608.680043 
L 1037.836385 611.809074 
L 1027.900899 614.662956 
L 1018.057067 617.291706 
L 998.658085 622.054081 
L 970.294236 628.535494 
L 951.85572 632.777217 
L 933.796406 637.163546 
L 916.084191 641.818517 
L 898.676055 646.81832 
L 881.519858 652.195038 
L 864.556208 657.939922 
L 847.720093 664.006335 
L 830.942044 670.312658 
L 797.228185 683.176463 
L 780.141738 689.423475 
L 771.509068 692.421332 
L 762.803826 695.302684 
L 754.016612 698.042074 
L 745.138436 700.613589 
L 736.16087 702.991113 
L 727.076195 705.148621 
L 717.877546 707.060508 
L 708.559016 708.701953 
L 699.115726 710.049316 
L 689.543836 711.080555 
L 679.84049 711.77563 
L 670.003704 712.116895 
L 660.032201 712.089439 
L 649.925227 711.681372 
L 639.68236 710.884046 
L 629.303353 709.692214 
L 618.788021 708.104144 
L 608.136197 706.121706 
L 597.347754 703.750448 
L 586.422686 700.99969 
L 575.361244 697.882635 
L 564.164103 694.416515 
L 552.832558 690.622768 
L 541.36873 686.527245 
L 529.775772 682.160438 
L 518.058086 677.557726 
L 494.273622 667.812062 
L 457.820466 652.598553 
L 445.516607 647.617871 
L 433.169179 642.805581 
L 420.800254 638.244053 
L 408.435417 634.021738 
L 396.104042 630.232747 
L 383.839364 626.976117 
L 371.678142 624.354692 
L 359.659496 622.473645 
L 347.822326 621.438903 
L 336.200729 621.356258 
L 324.817292 622.332678 
L 313.675687 624.481874 
L 302.756407 627.935161 
L 292.020892 632.855143 
L 281.426257 639.445138 
L 270.945316 647.947055 
L 260.581296 658.627506 
L 250.001704 672.234389 
L 250.001704 672.234389 
" clip-path="url(#p924bc9b995)" style="fill: none; stroke: #17becf; stroke-width: 1.5"/>
   </g>
   <g id="patch_3">
    <path d="M 180 728.788584 
L 180 362.011416 
" style="fill: none; stroke: #000000; stroke-width: 0.8; stroke-linejoin: miter; stroke-linecap: square"/>
   </g>
   <g id="patch_4">
    <path d="M 1296 728.788584 
L 1296 362.011416 
" style="fill: none; stroke: #000000; stroke-width: 0.8; stroke-linejoin: miter; stroke-linecap: square"/>
   </g>
   <g id="patch_5">
    <path d="M 180 728.788584 
L 1296 728.788584 
" style="fill: none; stroke: #000000; stroke-width: 0.8; stroke-linejoin: miter; stroke-linecap: square"/>
   </g>
   <g id="patch_6">
    <path d="M 180 362.011416 
L 1296 362.011416 
" style="fill: none; stroke: #000000; stroke-width: 0.8; stroke-linejoin: miter; stroke-linecap: square"/>
   </g>
  </g>
 </g>
 <defs>
  <clipPath id="p924bc9b995">
   <rect x="180" y="362.011416" width="1116" height="366.777169"/>
  </clipPath>
 </defs>
</svg>
