<?xml version="1.0" encoding="utf-8" standalone="no"?>
<!DOCTYPE svg PUBLIC "-//W3C//DTD SVG 1.1//EN"
  "http://www.w3.org/Graphics/SVG/1.1/DTD/svg11.dtd">
<svg xmlns:xlink="http://www.w3.org/1999/xlink" width="1440pt" height="1080pt" viewBox="0 0 1440 1080" xmlns="http://www.w3.org/2000/svg" version="1.1">
 <metadata>
  <rdf:RDF xmlns:dc="http://purl.org/dc/elements/1.1/" xmlns:cc="http://creativecommons.org/ns#" xmlns:rdf="http://www.w3.org/1999/02/22-rdf-syntax-ns#">
   <cc:Work>
    <dc:type rdf:resource="http://purl.org/dc/dcmitype/StillImage"/>
    <dc:date>2023-12-11T12:06:40.694752</dc:date>
    <dc:format>image/svg+xml</dc:format>
    <dc:creator>
     <cc:Agent>
      <dc:title>Matplotlib v3.7.1, https://matplotlib.org/</dc:title>
     </cc:Agent>
    </dc:creator>
   </cc:Work>
  </rdf:RDF>
 </metadata>
 <defs>
  <style type="text/css">*{stroke-linejoin: round; stroke-linecap: butt}</style>
 </defs>
 <g id="figure_1">
  <g id="patch_1">
   <path d="M 0 1080 
L 1440 1080 
L 1440 0 
L 0 0 
z
" style="fill: #ffffff"/>
  </g>
  <g id="axes_1">
   <g id="patch_2">
    <path d="M 525.196856 961.2 
L 950.803144 961.2 
L 950.803144 129.6 
L 525.196856 129.6 
z
" style="fill: #ffffff"/>
   </g>
   <g id="matplotlib.axis_1">
    <g id="xtick_1">
     <g id="line2d_1">
      <defs>
       <path id="m17d66d705d" d="M 0 0 
L 0 3.5 
" style="stroke: #000000; stroke-width: 0.8"/>
      </defs>
      <g>
       <use xlink:href="#m17d66d705d" x="552.366191" y="961.2" style="stroke: #000000; stroke-width: 0.8"/>
      </g>
     </g>
     <g id="text_1">
      <!-- 0 -->
      <g transform="translate(549.184941 975.798437) scale(0.1 -0.1)">
       <defs>
        <path id="DejaVuSans-30" d="M 2034 4250 
Q 1547 4250 1301 3770 
Q 1056 3291 1056 2328 
Q 1056 1369 1301 889 
Q 1547 409 2034 409 
Q 2525 409 2770 889 
Q 3016 1369 3016 2328 
Q 3016 3291 2770 3770 
Q 2525 4250 2034 4250 
z
M 2034 4750 
Q 2819 4750 3233 4129 
Q 3647 3509 3647 2328 
Q 3647 1150 3233 529 
Q 2819 -91 2034 -91 
Q 1250 -91 836 529 
Q 422 1150 422 2328 
Q 422 3509 836 4129 
Q 1250 4750 2034 4750 
z
" transform="scale(0.015625)"/>
       </defs>
       <use xlink:href="#DejaVuSans-30"/>
      </g>
     </g>
    </g>
    <g id="xtick_2">
     <g id="line2d_2">
      <g>
       <use xlink:href="#m17d66d705d" x="601.11856" y="961.2" style="stroke: #000000; stroke-width: 0.8"/>
      </g>
     </g>
     <g id="text_2">
      <!-- 50 -->
      <g transform="translate(594.75606 975.798437) scale(0.1 -0.1)">
       <defs>
        <path id="DejaVuSans-35" d="M 691 4666 
L 3169 4666 
L 3169 4134 
L 1269 4134 
L 1269 2991 
Q 1406 3038 1543 3061 
Q 1681 3084 1819 3084 
Q 2600 3084 3056 2656 
Q 3513 2228 3513 1497 
Q 3513 744 3044 326 
Q 2575 -91 1722 -91 
Q 1428 -91 1123 -41 
Q 819 9 494 109 
L 494 744 
Q 775 591 1075 516 
Q 1375 441 1709 441 
Q 2250 441 2565 725 
Q 2881 1009 2881 1497 
Q 2881 1984 2565 2268 
Q 2250 2553 1709 2553 
Q 1456 2553 1204 2497 
Q 953 2441 691 2322 
L 691 4666 
z
" transform="scale(0.015625)"/>
       </defs>
       <use xlink:href="#DejaVuSans-35"/>
       <use xlink:href="#DejaVuSans-30" x="63.623047"/>
      </g>
     </g>
    </g>
    <g id="xtick_3">
     <g id="line2d_3">
      <g>
       <use xlink:href="#m17d66d705d" x="649.870929" y="961.2" style="stroke: #000000; stroke-width: 0.8"/>
      </g>
     </g>
     <g id="text_3">
      <!-- 100 -->
      <g transform="translate(640.327179 975.798437) scale(0.1 -0.1)">
       <defs>
        <path id="DejaVuSans-31" d="M 794 531 
L 1825 531 
L 1825 4091 
L 703 3866 
L 703 4441 
L 1819 4666 
L 2450 4666 
L 2450 531 
L 3481 531 
L 3481 0 
L 794 0 
L 794 531 
z
" transform="scale(0.015625)"/>
       </defs>
       <use xlink:href="#DejaVuSans-31"/>
       <use xlink:href="#DejaVuSans-30" x="63.623047"/>
       <use xlink:href="#DejaVuSans-30" x="127.246094"/>
      </g>
     </g>
    </g>
    <g id="xtick_4">
     <g id="line2d_4">
      <g>
       <use xlink:href="#m17d66d705d" x="698.623298" y="961.2" style="stroke: #000000; stroke-width: 0.8"/>
      </g>
     </g>
     <g id="text_4">
      <!-- 150 -->
      <g transform="translate(689.079548 975.798437) scale(0.1 -0.1)">
       <use xlink:href="#DejaVuSans-31"/>
       <use xlink:href="#DejaVuSans-35" x="63.623047"/>
       <use xlink:href="#DejaVuSans-30" x="127.246094"/>
      </g>
     </g>
    </g>
    <g id="xtick_5">
     <g id="line2d_5">
      <g>
       <use xlink:href="#m17d66d705d" x="747.375667" y="961.2" style="stroke: #000000; stroke-width: 0.8"/>
      </g>
     </g>
     <g id="text_5">
      <!-- 200 -->
      <g transform="translate(737.831917 975.798437) scale(0.1 -0.1)">
       <defs>
        <path id="DejaVuSans-32" d="M 1228 531 
L 3431 531 
L 3431 0 
L 469 0 
L 469 531 
Q 828 903 1448 1529 
Q 2069 2156 2228 2338 
Q 2531 2678 2651 2914 
Q 2772 3150 2772 3378 
Q 2772 3750 2511 3984 
Q 2250 4219 1831 4219 
Q 1534 4219 1204 4116 
Q 875 4013 500 3803 
L 500 4441 
Q 881 4594 1212 4672 
Q 1544 4750 1819 4750 
Q 2544 4750 2975 4387 
Q 3406 4025 3406 3419 
Q 3406 3131 3298 2873 
Q 3191 2616 2906 2266 
Q 2828 2175 2409 1742 
Q 1991 1309 1228 531 
z
" transform="scale(0.015625)"/>
       </defs>
       <use xlink:href="#DejaVuSans-32"/>
       <use xlink:href="#DejaVuSans-30" x="63.623047"/>
       <use xlink:href="#DejaVuSans-30" x="127.246094"/>
      </g>
     </g>
    </g>
    <g id="xtick_6">
     <g id="line2d_6">
      <g>
       <use xlink:href="#m17d66d705d" x="796.128036" y="961.2" style="stroke: #000000; stroke-width: 0.8"/>
      </g>
     </g>
     <g id="text_6">
      <!-- 250 -->
      <g transform="translate(786.584286 975.798437) scale(0.1 -0.1)">
       <use xlink:href="#DejaVuSans-32"/>
       <use xlink:href="#DejaVuSans-35" x="63.623047"/>
       <use xlink:href="#DejaVuSans-30" x="127.246094"/>
      </g>
     </g>
    </g>
    <g id="xtick_7">
     <g id="line2d_7">
      <g>
       <use xlink:href="#m17d66d705d" x="844.880404" y="961.2" style="stroke: #000000; stroke-width: 0.8"/>
      </g>
     </g>
     <g id="text_7">
      <!-- 300 -->
      <g transform="translate(835.336654 975.798437) scale(0.1 -0.1)">
       <defs>
        <path id="DejaVuSans-33" d="M 2597 2516 
Q 3050 2419 3304 2112 
Q 3559 1806 3559 1356 
Q 3559 666 3084 287 
Q 2609 -91 1734 -91 
Q 1441 -91 1130 -33 
Q 819 25 488 141 
L 488 750 
Q 750 597 1062 519 
Q 1375 441 1716 441 
Q 2309 441 2620 675 
Q 2931 909 2931 1356 
Q 2931 1769 2642 2001 
Q 2353 2234 1838 2234 
L 1294 2234 
L 1294 2753 
L 1863 2753 
Q 2328 2753 2575 2939 
Q 2822 3125 2822 3475 
Q 2822 3834 2567 4026 
Q 2313 4219 1838 4219 
Q 1578 4219 1281 4162 
Q 984 4106 628 3988 
L 628 4550 
Q 988 4650 1302 4700 
Q 1616 4750 1894 4750 
Q 2613 4750 3031 4423 
Q 3450 4097 3450 3541 
Q 3450 3153 3228 2886 
Q 3006 2619 2597 2516 
z
" transform="scale(0.015625)"/>
       </defs>
       <use xlink:href="#DejaVuSans-33"/>
       <use xlink:href="#DejaVuSans-30" x="63.623047"/>
       <use xlink:href="#DejaVuSans-30" x="127.246094"/>
      </g>
     </g>
    </g>
    <g id="xtick_8">
     <g id="line2d_8">
      <g>
       <use xlink:href="#m17d66d705d" x="893.632773" y="961.2" style="stroke: #000000; stroke-width: 0.8"/>
      </g>
     </g>
     <g id="text_8">
      <!-- 350 -->
      <g transform="translate(884.089023 975.798437) scale(0.1 -0.1)">
       <use xlink:href="#DejaVuSans-33"/>
       <use xlink:href="#DejaVuSans-35" x="63.623047"/>
       <use xlink:href="#DejaVuSans-30" x="127.246094"/>
      </g>
     </g>
    </g>
    <g id="xtick_9">
     <g id="line2d_9">
      <g>
       <use xlink:href="#m17d66d705d" x="942.385142" y="961.2" style="stroke: #000000; stroke-width: 0.8"/>
      </g>
     </g>
     <g id="text_9">
      <!-- 400 -->
      <g transform="translate(932.841392 975.798437) scale(0.1 -0.1)">
       <defs>
        <path id="DejaVuSans-34" d="M 2419 4116 
L 825 1625 
L 2419 1625 
L 2419 4116 
z
M 2253 4666 
L 3047 4666 
L 3047 1625 
L 3713 1625 
L 3713 1100 
L 3047 1100 
L 3047 0 
L 2419 0 
L 2419 1100 
L 313 1100 
L 313 1709 
L 2253 4666 
z
" transform="scale(0.015625)"/>
       </defs>
       <use xlink:href="#DejaVuSans-34"/>
       <use xlink:href="#DejaVuSans-30" x="63.623047"/>
       <use xlink:href="#DejaVuSans-30" x="127.246094"/>
      </g>
     </g>
    </g>
   </g>
   <g id="matplotlib.axis_2">
    <g id="ytick_1">
     <g id="line2d_10">
      <defs>
       <path id="ma2732258de" d="M 0 0 
L -3.5 0 
" style="stroke: #000000; stroke-width: 0.8"/>
      </defs>
      <g>
       <use xlink:href="#ma2732258de" x="525.196856" y="865.446455" style="stroke: #000000; stroke-width: 0.8"/>
      </g>
     </g>
     <g id="text_10">
      <!-- 600 -->
      <g transform="translate(499.109356 869.245674) scale(0.1 -0.1)">
       <defs>
        <path id="DejaVuSans-36" d="M 2113 2584 
Q 1688 2584 1439 2293 
Q 1191 2003 1191 1497 
Q 1191 994 1439 701 
Q 1688 409 2113 409 
Q 2538 409 2786 701 
Q 3034 994 3034 1497 
Q 3034 2003 2786 2293 
Q 2538 2584 2113 2584 
z
M 3366 4563 
L 3366 3988 
Q 3128 4100 2886 4159 
Q 2644 4219 2406 4219 
Q 1781 4219 1451 3797 
Q 1122 3375 1075 2522 
Q 1259 2794 1537 2939 
Q 1816 3084 2150 3084 
Q 2853 3084 3261 2657 
Q 3669 2231 3669 1497 
Q 3669 778 3244 343 
Q 2819 -91 2113 -91 
Q 1303 -91 875 529 
Q 447 1150 447 2328 
Q 447 3434 972 4092 
Q 1497 4750 2381 4750 
Q 2619 4750 2861 4703 
Q 3103 4656 3366 4563 
z
" transform="scale(0.015625)"/>
       </defs>
       <use xlink:href="#DejaVuSans-36"/>
       <use xlink:href="#DejaVuSans-30" x="63.623047"/>
       <use xlink:href="#DejaVuSans-30" x="127.246094"/>
      </g>
     </g>
    </g>
    <g id="ytick_2">
     <g id="line2d_11">
      <g>
       <use xlink:href="#ma2732258de" x="525.196856" y="767.941718" style="stroke: #000000; stroke-width: 0.8"/>
      </g>
     </g>
     <g id="text_11">
      <!-- 700 -->
      <g transform="translate(499.109356 771.740936) scale(0.1 -0.1)">
       <defs>
        <path id="DejaVuSans-37" d="M 525 4666 
L 3525 4666 
L 3525 4397 
L 1831 0 
L 1172 0 
L 2766 4134 
L 525 4134 
L 525 4666 
z
" transform="scale(0.015625)"/>
       </defs>
       <use xlink:href="#DejaVuSans-37"/>
       <use xlink:href="#DejaVuSans-30" x="63.623047"/>
       <use xlink:href="#DejaVuSans-30" x="127.246094"/>
      </g>
     </g>
    </g>
    <g id="ytick_3">
     <g id="line2d_12">
      <g>
       <use xlink:href="#ma2732258de" x="525.196856" y="670.43698" style="stroke: #000000; stroke-width: 0.8"/>
      </g>
     </g>
     <g id="text_12">
      <!-- 800 -->
      <g transform="translate(499.109356 674.236199) scale(0.1 -0.1)">
       <defs>
        <path id="DejaVuSans-38" d="M 2034 2216 
Q 1584 2216 1326 1975 
Q 1069 1734 1069 1313 
Q 1069 891 1326 650 
Q 1584 409 2034 409 
Q 2484 409 2743 651 
Q 3003 894 3003 1313 
Q 3003 1734 2745 1975 
Q 2488 2216 2034 2216 
z
M 1403 2484 
Q 997 2584 770 2862 
Q 544 3141 544 3541 
Q 544 4100 942 4425 
Q 1341 4750 2034 4750 
Q 2731 4750 3128 4425 
Q 3525 4100 3525 3541 
Q 3525 3141 3298 2862 
Q 3072 2584 2669 2484 
Q 3125 2378 3379 2068 
Q 3634 1759 3634 1313 
Q 3634 634 3220 271 
Q 2806 -91 2034 -91 
Q 1263 -91 848 271 
Q 434 634 434 1313 
Q 434 1759 690 2068 
Q 947 2378 1403 2484 
z
M 1172 3481 
Q 1172 3119 1398 2916 
Q 1625 2713 2034 2713 
Q 2441 2713 2670 2916 
Q 2900 3119 2900 3481 
Q 2900 3844 2670 4047 
Q 2441 4250 2034 4250 
Q 1625 4250 1398 4047 
Q 1172 3844 1172 3481 
z
" transform="scale(0.015625)"/>
       </defs>
       <use xlink:href="#DejaVuSans-38"/>
       <use xlink:href="#DejaVuSans-30" x="63.623047"/>
       <use xlink:href="#DejaVuSans-30" x="127.246094"/>
      </g>
     </g>
    </g>
    <g id="ytick_4">
     <g id="line2d_13">
      <g>
       <use xlink:href="#ma2732258de" x="525.196856" y="572.932242" style="stroke: #000000; stroke-width: 0.8"/>
      </g>
     </g>
     <g id="text_13">
      <!-- 900 -->
      <g transform="translate(499.109356 576.731461) scale(0.1 -0.1)">
       <defs>
        <path id="DejaVuSans-39" d="M 703 97 
L 703 672 
Q 941 559 1184 500 
Q 1428 441 1663 441 
Q 2288 441 2617 861 
Q 2947 1281 2994 2138 
Q 2813 1869 2534 1725 
Q 2256 1581 1919 1581 
Q 1219 1581 811 2004 
Q 403 2428 403 3163 
Q 403 3881 828 4315 
Q 1253 4750 1959 4750 
Q 2769 4750 3195 4129 
Q 3622 3509 3622 2328 
Q 3622 1225 3098 567 
Q 2575 -91 1691 -91 
Q 1453 -91 1209 -44 
Q 966 3 703 97 
z
M 1959 2075 
Q 2384 2075 2632 2365 
Q 2881 2656 2881 3163 
Q 2881 3666 2632 3958 
Q 2384 4250 1959 4250 
Q 1534 4250 1286 3958 
Q 1038 3666 1038 3163 
Q 1038 2656 1286 2365 
Q 1534 2075 1959 2075 
z
" transform="scale(0.015625)"/>
       </defs>
       <use xlink:href="#DejaVuSans-39"/>
       <use xlink:href="#DejaVuSans-30" x="63.623047"/>
       <use xlink:href="#DejaVuSans-30" x="127.246094"/>
      </g>
     </g>
    </g>
    <g id="ytick_5">
     <g id="line2d_14">
      <g>
       <use xlink:href="#ma2732258de" x="525.196856" y="475.427504" style="stroke: #000000; stroke-width: 0.8"/>
      </g>
     </g>
     <g id="text_14">
      <!-- 1000 -->
      <g transform="translate(492.746856 479.226723) scale(0.1 -0.1)">
       <use xlink:href="#DejaVuSans-31"/>
       <use xlink:href="#DejaVuSans-30" x="63.623047"/>
       <use xlink:href="#DejaVuSans-30" x="127.246094"/>
       <use xlink:href="#DejaVuSans-30" x="190.869141"/>
      </g>
     </g>
    </g>
    <g id="ytick_6">
     <g id="line2d_15">
      <g>
       <use xlink:href="#ma2732258de" x="525.196856" y="377.922766" style="stroke: #000000; stroke-width: 0.8"/>
      </g>
     </g>
     <g id="text_15">
      <!-- 1100 -->
      <g transform="translate(492.746856 381.721985) scale(0.1 -0.1)">
       <use xlink:href="#DejaVuSans-31"/>
       <use xlink:href="#DejaVuSans-31" x="63.623047"/>
       <use xlink:href="#DejaVuSans-30" x="127.246094"/>
       <use xlink:href="#DejaVuSans-30" x="190.869141"/>
      </g>
     </g>
    </g>
    <g id="ytick_7">
     <g id="line2d_16">
      <g>
       <use xlink:href="#ma2732258de" x="525.196856" y="280.418029" style="stroke: #000000; stroke-width: 0.8"/>
      </g>
     </g>
     <g id="text_16">
      <!-- 1200 -->
      <g transform="translate(492.746856 284.217247) scale(0.1 -0.1)">
       <use xlink:href="#DejaVuSans-31"/>
       <use xlink:href="#DejaVuSans-32" x="63.623047"/>
       <use xlink:href="#DejaVuSans-30" x="127.246094"/>
       <use xlink:href="#DejaVuSans-30" x="190.869141"/>
      </g>
     </g>
    </g>
    <g id="ytick_8">
     <g id="line2d_17">
      <g>
       <use xlink:href="#ma2732258de" x="525.196856" y="182.913291" style="stroke: #000000; stroke-width: 0.8"/>
      </g>
     </g>
     <g id="text_17">
      <!-- 1300 -->
      <g transform="translate(492.746856 186.71251) scale(0.1 -0.1)">
       <use xlink:href="#DejaVuSans-31"/>
       <use xlink:href="#DejaVuSans-33" x="63.623047"/>
       <use xlink:href="#DejaVuSans-30" x="127.246094"/>
       <use xlink:href="#DejaVuSans-30" x="190.869141"/>
      </g>
     </g>
    </g>
   </g>
   <g id="LineCollection_1">
    <path d="M 875.384227 167.4 
L 871.866155 177.947395 
L 871.020758 181.224459 
L 869.016328 192.055433 
L 868.670909 194.759637 
L 867.82743 207.887044 
L 868.074077 220.581865 
L 869.083035 232.851747 
L 870.595583 244.707362 
L 872.404124 256.152587 
L 879.686908 297.946272 
L 880.990658 307.297751 
L 881.948994 316.1698 
L 882.526378 324.558044 
L 882.702603 332.465233 
L 882.470238 339.903614 
L 881.831187 346.896774 
L 880.792421 353.480297 
L 879.361377 359.700596 
L 877.541955 365.611653 
L 875.33214 371.270067 
L 872.723926 376.729519 
L 869.705442 382.036097 
L 866.264388 387.225542 
L 862.391604 392.322771 
L 858.083759 397.343219 
L 853.344724 402.295197 
L 848.185694 407.182453 
L 842.624406 412.006388 
L 836.683879 416.767703 
L 830.391028 421.467449 
L 823.775349 426.107605 
L 816.867803 430.691294 
L 809.69991 435.222787 
L 802.303058 439.707375 
L 794.707992 444.151191 
L 779.040852 452.944054 
L 762.920135 461.660012 
L 713.619485 487.99034 
L 697.384102 497.015992 
L 681.447576 506.256641 
L 673.620377 510.974878 
L 665.90117 515.767804 
L 658.299709 520.642744 
L 650.825366 525.607338 
L 643.487291 530.669629 
L 636.294577 535.838159 
L 629.256448 541.122054 
L 622.382454 546.531101 
L 615.682688 552.075808 
L 609.168026 557.767439 
L 602.850378 563.618001 
L 596.742972 569.640181 
L 590.860637 575.847199 
L 585.220091 582.252553 
L 579.840188 588.869651 
L 574.742101 595.711292 
L 569.94936 602.789021 
L 565.487696 610.11237 
L 561.38461 617.688065 
L 557.668622 625.519303 
L 554.368195 633.605251 
L 551.510399 641.9409 
L 549.119465 650.517408 
L 547.215424 659.322926 
L 545.813035 668.343838 
L 544.921156 677.566182 
L 544.542596 686.97702 
L 544.674374 696.565478 
L 545.308199 706.323325 
L 546.430997 716.245021 
L 548.02527 726.327287 
L 550.069205 736.568324 
L 552.536464 746.966802 
L 555.395666 757.520732 
L 558.609616 768.226299 
L 562.134323 779.076675 
L 565.917886 790.060813 
L 574.007178 812.357298 
L 582.306309 835.025963 
L 586.274942 846.360843 
L 589.96122 857.605799 
L 593.229592 868.675275 
L 595.935286 879.461004 
L 597.931619 889.828961 
L 599.083368 899.621206 
L 599.286495 908.671812 
L 598.309476 918.648312 
L 598.309476 918.648312 
" clip-path="url(#pdf506a7f03)" style="fill: none; stroke: #1f77b4; stroke-width: 1.5"/>
    <path d="M 898.50801 175.112912 
L 894.989939 185.660307 
L 892.985509 196.491281 
L 892.200712 207.510884 
L 892.372393 218.635025 
L 893.266133 229.789698 
L 894.67421 240.910251 
L 896.41367 251.940688 
L 898.324464 262.832991 
L 900.26769 273.546494 
L 902.123911 284.047267 
L 903.791553 294.307545 
L 905.185388 304.30518 
L 906.235095 314.02312 
L 906.883896 323.448925 
L 907.087271 332.5743 
L 906.811735 341.394658 
L 906.033702 349.908715 
L 904.738402 358.1181 
L 902.918878 366.027 
L 900.57504 373.641818 
L 897.712781 380.970865 
L 894.343166 388.024065 
L 890.481664 394.81269 
L 886.14745 401.349109 
L 881.362759 407.646561 
L 876.152286 413.718947 
L 870.542653 419.580642 
L 864.561912 425.246323 
L 858.239099 430.730815 
L 851.603839 436.048956 
L 844.685992 441.215473 
L 837.515336 446.244884 
L 830.121299 451.151397 
L 822.53272 455.948844 
L 814.777657 460.65061 
L 806.883218 465.269587 
L 798.875431 469.818132 
L 790.779142 474.308043 
L 782.617947 478.750538 
L 774.41414 483.156248 
L 766.188694 487.535221 
L 757.961264 491.896932 
L 749.750208 496.250296 
L 741.572628 500.603698 
L 733.444428 504.965019 
L 725.380387 509.341676 
L 717.394247 513.740661 
L 709.498809 518.168587 
L 701.706038 522.631733 
L 694.027182 527.136102 
L 686.472885 531.687468 
L 679.053317 536.291434 
L 671.778291 540.953485 
L 664.657394 545.679044 
L 657.700104 550.473525 
L 650.915911 555.342389 
L 644.314424 560.291189 
L 637.905482 565.325621 
L 631.699238 570.451567 
L 625.706247 575.675135 
L 619.937534 581.002691 
L 614.40464 586.440891 
L 609.119664 591.996698 
L 604.095269 597.677404 
L 599.344683 603.490631 
L 594.881665 609.44433 
L 590.720447 615.546776 
L 586.875655 621.806538 
L 583.362194 628.232456 
L 580.195104 634.833593 
L 577.389388 641.619181 
L 574.959791 648.598553 
L 572.920563 655.781065 
L 571.285161 663.175993 
L 570.065927 670.792431 
L 569.273714 678.639159 
L 568.917473 686.724502 
L 569.003787 695.05617 
L 569.536364 703.641084 
L 570.515472 712.485175 
L 571.937328 721.593174 
L 573.793432 730.968372 
L 576.069836 740.612371 
L 578.746369 750.524802 
L 581.795792 760.703028 
L 585.182892 771.141824 
L 588.863517 781.833033 
L 592.78354 792.765192 
L 596.877758 803.923144 
L 601.068719 815.287619 
L 605.265483 826.834783 
L 609.362301 838.535773 
L 613.237224 850.356191 
L 616.750636 862.255581 
L 619.743703 874.186867 
L 622.036743 886.095772 
L 623.427514 897.920194 
L 623.689416 909.589562 
L 622.569602 921.024156 
" clip-path="url(#pdf506a7f03)" style="fill: none; stroke: #8c564b; stroke-width: 1.5"/>
    <path d="M 921.631794 182.825824 
L 918.650442 191.7641 
L 917.203126 199.584699 
L 916.590278 208.189897 
L 916.733536 217.472316 
L 917.519666 227.283928 
L 918.810671 237.479876 
L 920.459545 247.935884 
L 927.934237 290.941658 
L 929.420597 301.687355 
L 930.553737 312.349207 
L 931.254029 322.905796 
L 931.45157 333.335407 
L 931.086773 343.612965 
L 930.112009 353.707856 
L 928.494026 363.583325 
L 926.216421 373.197976 
L 923.281099 382.509357 
L 919.707805 391.478828 
L 915.531394 400.076341 
L 910.797379 408.283774 
L 905.556883 416.096051 
L 899.86215 423.520151 
L 893.763344 430.5727 
L 887.3068 437.277019 
L 880.534469 443.660334 
L 873.484136 449.751519 
L 866.190009 455.579497 
L 858.683397 461.172202 
L 850.993334 466.556012 
L 843.147055 471.755476 
L 835.170335 476.793245 
L 827.087715 481.690117 
L 818.922614 486.465136 
L 802.433395 495.717779 
L 785.86913 504.673254 
L 737.074801 530.729636 
L 721.518189 539.375777 
L 706.484196 548.089422 
L 692.056331 556.910633 
L 685.094507 561.371975 
L 678.313745 565.871814 
L 671.723803 570.413145 
L 665.334541 574.998575 
L 659.155971 579.630336 
L 653.198278 584.310296 
L 647.471806 589.039983 
L 641.986998 593.820613 
L 636.75429 598.653154 
L 631.78396 603.538418 
L 627.085914 608.477217 
L 622.669442 613.470591 
L 618.542939 618.520136 
L 614.713638 623.628451 
L 611.187398 628.7997 
L 607.968594 634.040281 
L 605.060207 639.359552 
L 602.464137 644.770519 
L 600.181787 650.290352 
L 598.214876 655.940593 
L 596.566372 661.746908 
L 595.241361 667.738313 
L 594.247651 673.945923 
L 593.595905 680.401355 
L 593.299218 687.135034 
L 593.372147 694.174671 
L 593.829319 701.544086 
L 594.683809 709.262529 
L 595.945483 717.344444 
L 597.619443 725.799633 
L 599.704658 734.633656 
L 602.192795 743.848371 
L 605.067219 753.442495 
L 608.302096 763.412151 
L 611.86155 773.75139 
L 619.75519 795.507572 
L 628.272247 818.779523 
L 632.525633 830.94246 
L 636.615653 843.453479 
L 640.394224 856.324382 
L 643.680205 869.577934 
L 646.246046 883.24831 
L 647.797562 897.373245 
L 648.059463 909.042614 
L 647.949542 911.965406 
L 646.829729 923.4 
L 646.829729 923.4 
" clip-path="url(#pdf506a7f03)" style="fill: none; stroke: #17becf; stroke-width: 1.5"/>
   </g>
   <g id="patch_3">
    <path d="M 525.196856 961.2 
L 525.196856 129.6 
" style="fill: none; stroke: #000000; stroke-width: 0.8; stroke-linejoin: miter; stroke-linecap: square"/>
   </g>
   <g id="patch_4">
    <path d="M 950.803144 961.2 
L 950.803144 129.6 
" style="fill: none; stroke: #000000; stroke-width: 0.8; stroke-linejoin: miter; stroke-linecap: square"/>
   </g>
   <g id="patch_5">
    <path d="M 525.196856 961.2 
L 950.803144 961.2 
" style="fill: none; stroke: #000000; stroke-width: 0.8; stroke-linejoin: miter; stroke-linecap: square"/>
   </g>
   <g id="patch_6">
    <path d="M 525.196856 129.6 
L 950.803144 129.6 
" style="fill: none; stroke: #000000; stroke-width: 0.8; stroke-linejoin: miter; stroke-linecap: square"/>
   </g>
  </g>
 </g>
 <defs>
  <clipPath id="pdf506a7f03">
   <rect x="525.196856" y="129.6" width="425.606288" height="831.6"/>
  </clipPath>
 </defs>
</svg>
