<?xml version="1.0" encoding="utf-8" standalone="no"?>
<!DOCTYPE svg PUBLIC "-//W3C//DTD SVG 1.1//EN"
  "http://www.w3.org/Graphics/SVG/1.1/DTD/svg11.dtd">
<svg xmlns:xlink="http://www.w3.org/1999/xlink" width="1440pt" height="1080pt" viewBox="0 0 1440 1080" xmlns="http://www.w3.org/2000/svg" version="1.1">
 <metadata>
  <rdf:RDF xmlns:dc="http://purl.org/dc/elements/1.1/" xmlns:cc="http://creativecommons.org/ns#" xmlns:rdf="http://www.w3.org/1999/02/22-rdf-syntax-ns#">
   <cc:Work>
    <dc:type rdf:resource="http://purl.org/dc/dcmitype/StillImage"/>
    <dc:date>2023-12-11T12:06:58.143035</dc:date>
    <dc:format>image/svg+xml</dc:format>
    <dc:creator>
     <cc:Agent>
      <dc:title>Matplotlib v3.7.1, https://matplotlib.org/</dc:title>
     </cc:Agent>
    </dc:creator>
   </cc:Work>
  </rdf:RDF>
 </metadata>
 <defs>
  <style type="text/css">*{stroke-linejoin: round; stroke-linecap: butt}</style>
 </defs>
 <g id="figure_1">
  <g id="patch_1">
   <path d="M 0 1080 
L 1440 1080 
L 1440 0 
L 0 0 
z
" style="fill: #ffffff"/>
  </g>
  <g id="axes_1">
   <g id="patch_2">
    <path d="M 396.718932 961.2 
L 1079.281068 961.2 
L 1079.281068 129.6 
L 396.718932 129.6 
z
" style="fill: #ffffff"/>
   </g>
   <g id="matplotlib.axis_1">
    <g id="xtick_1">
     <g id="line2d_1">
      <defs>
       <path id="md7e029865f" d="M 0 0 
L 0 3.5 
" style="stroke: #000000; stroke-width: 0.8"/>
      </defs>
      <g>
       <use xlink:href="#md7e029865f" x="467.616162" y="961.2" style="stroke: #000000; stroke-width: 0.8"/>
      </g>
     </g>
     <g id="text_1">
      <!-- 400 -->
      <g transform="translate(458.072412 975.798437) scale(0.1 -0.1)">
       <defs>
        <path id="DejaVuSans-34" d="M 2419 4116 
L 825 1625 
L 2419 1625 
L 2419 4116 
z
M 2253 4666 
L 3047 4666 
L 3047 1625 
L 3713 1625 
L 3713 1100 
L 3047 1100 
L 3047 0 
L 2419 0 
L 2419 1100 
L 313 1100 
L 313 1709 
L 2253 4666 
z
" transform="scale(0.015625)"/>
        <path id="DejaVuSans-30" d="M 2034 4250 
Q 1547 4250 1301 3770 
Q 1056 3291 1056 2328 
Q 1056 1369 1301 889 
Q 1547 409 2034 409 
Q 2525 409 2770 889 
Q 3016 1369 3016 2328 
Q 3016 3291 2770 3770 
Q 2525 4250 2034 4250 
z
M 2034 4750 
Q 2819 4750 3233 4129 
Q 3647 3509 3647 2328 
Q 3647 1150 3233 529 
Q 2819 -91 2034 -91 
Q 1250 -91 836 529 
Q 422 1150 422 2328 
Q 422 3509 836 4129 
Q 1250 4750 2034 4750 
z
" transform="scale(0.015625)"/>
       </defs>
       <use xlink:href="#DejaVuSans-34"/>
       <use xlink:href="#DejaVuSans-30" x="63.623047"/>
       <use xlink:href="#DejaVuSans-30" x="127.246094"/>
      </g>
     </g>
    </g>
    <g id="xtick_2">
     <g id="line2d_2">
      <g>
       <use xlink:href="#md7e029865f" x="616.957522" y="961.2" style="stroke: #000000; stroke-width: 0.8"/>
      </g>
     </g>
     <g id="text_2">
      <!-- 500 -->
      <g transform="translate(607.413772 975.798437) scale(0.1 -0.1)">
       <defs>
        <path id="DejaVuSans-35" d="M 691 4666 
L 3169 4666 
L 3169 4134 
L 1269 4134 
L 1269 2991 
Q 1406 3038 1543 3061 
Q 1681 3084 1819 3084 
Q 2600 3084 3056 2656 
Q 3513 2228 3513 1497 
Q 3513 744 3044 326 
Q 2575 -91 1722 -91 
Q 1428 -91 1123 -41 
Q 819 9 494 109 
L 494 744 
Q 775 591 1075 516 
Q 1375 441 1709 441 
Q 2250 441 2565 725 
Q 2881 1009 2881 1497 
Q 2881 1984 2565 2268 
Q 2250 2553 1709 2553 
Q 1456 2553 1204 2497 
Q 953 2441 691 2322 
L 691 4666 
z
" transform="scale(0.015625)"/>
       </defs>
       <use xlink:href="#DejaVuSans-35"/>
       <use xlink:href="#DejaVuSans-30" x="63.623047"/>
       <use xlink:href="#DejaVuSans-30" x="127.246094"/>
      </g>
     </g>
    </g>
    <g id="xtick_3">
     <g id="line2d_3">
      <g>
       <use xlink:href="#md7e029865f" x="766.298883" y="961.2" style="stroke: #000000; stroke-width: 0.8"/>
      </g>
     </g>
     <g id="text_3">
      <!-- 600 -->
      <g transform="translate(756.755133 975.798437) scale(0.1 -0.1)">
       <defs>
        <path id="DejaVuSans-36" d="M 2113 2584 
Q 1688 2584 1439 2293 
Q 1191 2003 1191 1497 
Q 1191 994 1439 701 
Q 1688 409 2113 409 
Q 2538 409 2786 701 
Q 3034 994 3034 1497 
Q 3034 2003 2786 2293 
Q 2538 2584 2113 2584 
z
M 3366 4563 
L 3366 3988 
Q 3128 4100 2886 4159 
Q 2644 4219 2406 4219 
Q 1781 4219 1451 3797 
Q 1122 3375 1075 2522 
Q 1259 2794 1537 2939 
Q 1816 3084 2150 3084 
Q 2853 3084 3261 2657 
Q 3669 2231 3669 1497 
Q 3669 778 3244 343 
Q 2819 -91 2113 -91 
Q 1303 -91 875 529 
Q 447 1150 447 2328 
Q 447 3434 972 4092 
Q 1497 4750 2381 4750 
Q 2619 4750 2861 4703 
Q 3103 4656 3366 4563 
z
" transform="scale(0.015625)"/>
       </defs>
       <use xlink:href="#DejaVuSans-36"/>
       <use xlink:href="#DejaVuSans-30" x="63.623047"/>
       <use xlink:href="#DejaVuSans-30" x="127.246094"/>
      </g>
     </g>
    </g>
    <g id="xtick_4">
     <g id="line2d_4">
      <g>
       <use xlink:href="#md7e029865f" x="915.640243" y="961.2" style="stroke: #000000; stroke-width: 0.8"/>
      </g>
     </g>
     <g id="text_4">
      <!-- 700 -->
      <g transform="translate(906.096493 975.798437) scale(0.1 -0.1)">
       <defs>
        <path id="DejaVuSans-37" d="M 525 4666 
L 3525 4666 
L 3525 4397 
L 1831 0 
L 1172 0 
L 2766 4134 
L 525 4134 
L 525 4666 
z
" transform="scale(0.015625)"/>
       </defs>
       <use xlink:href="#DejaVuSans-37"/>
       <use xlink:href="#DejaVuSans-30" x="63.623047"/>
       <use xlink:href="#DejaVuSans-30" x="127.246094"/>
      </g>
     </g>
    </g>
    <g id="xtick_5">
     <g id="line2d_5">
      <g>
       <use xlink:href="#md7e029865f" x="1064.981604" y="961.2" style="stroke: #000000; stroke-width: 0.8"/>
      </g>
     </g>
     <g id="text_5">
      <!-- 800 -->
      <g transform="translate(1055.437854 975.798437) scale(0.1 -0.1)">
       <defs>
        <path id="DejaVuSans-38" d="M 2034 2216 
Q 1584 2216 1326 1975 
Q 1069 1734 1069 1313 
Q 1069 891 1326 650 
Q 1584 409 2034 409 
Q 2484 409 2743 651 
Q 3003 894 3003 1313 
Q 3003 1734 2745 1975 
Q 2488 2216 2034 2216 
z
M 1403 2484 
Q 997 2584 770 2862 
Q 544 3141 544 3541 
Q 544 4100 942 4425 
Q 1341 4750 2034 4750 
Q 2731 4750 3128 4425 
Q 3525 4100 3525 3541 
Q 3525 3141 3298 2862 
Q 3072 2584 2669 2484 
Q 3125 2378 3379 2068 
Q 3634 1759 3634 1313 
Q 3634 634 3220 271 
Q 2806 -91 2034 -91 
Q 1263 -91 848 271 
Q 434 634 434 1313 
Q 434 1759 690 2068 
Q 947 2378 1403 2484 
z
M 1172 3481 
Q 1172 3119 1398 2916 
Q 1625 2713 2034 2713 
Q 2441 2713 2670 2916 
Q 2900 3119 2900 3481 
Q 2900 3844 2670 4047 
Q 2441 4250 2034 4250 
Q 1625 4250 1398 4047 
Q 1172 3844 1172 3481 
z
" transform="scale(0.015625)"/>
       </defs>
       <use xlink:href="#DejaVuSans-38"/>
       <use xlink:href="#DejaVuSans-30" x="63.623047"/>
       <use xlink:href="#DejaVuSans-30" x="127.246094"/>
      </g>
     </g>
    </g>
   </g>
   <g id="matplotlib.axis_2">
    <g id="ytick_1">
     <g id="line2d_6">
      <defs>
       <path id="m79dac14cb4" d="M 0 0 
L -3.5 0 
" style="stroke: #000000; stroke-width: 0.8"/>
      </defs>
      <g>
       <use xlink:href="#m79dac14cb4" x="396.718932" y="955.807357" style="stroke: #000000; stroke-width: 0.8"/>
      </g>
     </g>
     <g id="text_6">
      <!-- −100 -->
      <g transform="translate(362.251745 959.606576) scale(0.1 -0.1)">
       <defs>
        <path id="DejaVuSans-2212" d="M 678 2272 
L 4684 2272 
L 4684 1741 
L 678 1741 
L 678 2272 
z
" transform="scale(0.015625)"/>
        <path id="DejaVuSans-31" d="M 794 531 
L 1825 531 
L 1825 4091 
L 703 3866 
L 703 4441 
L 1819 4666 
L 2450 4666 
L 2450 531 
L 3481 531 
L 3481 0 
L 794 0 
L 794 531 
z
" transform="scale(0.015625)"/>
       </defs>
       <use xlink:href="#DejaVuSans-2212"/>
       <use xlink:href="#DejaVuSans-31" x="83.789062"/>
       <use xlink:href="#DejaVuSans-30" x="147.412109"/>
       <use xlink:href="#DejaVuSans-30" x="211.035156"/>
      </g>
     </g>
    </g>
    <g id="ytick_2">
     <g id="line2d_7">
      <g>
       <use xlink:href="#m79dac14cb4" x="396.718932" y="806.465996" style="stroke: #000000; stroke-width: 0.8"/>
      </g>
     </g>
     <g id="text_7">
      <!-- 0 -->
      <g transform="translate(383.356432 810.265215) scale(0.1 -0.1)">
       <use xlink:href="#DejaVuSans-30"/>
      </g>
     </g>
    </g>
    <g id="ytick_3">
     <g id="line2d_8">
      <g>
       <use xlink:href="#m79dac14cb4" x="396.718932" y="657.124636" style="stroke: #000000; stroke-width: 0.8"/>
      </g>
     </g>
     <g id="text_8">
      <!-- 100 -->
      <g transform="translate(370.631432 660.923855) scale(0.1 -0.1)">
       <use xlink:href="#DejaVuSans-31"/>
       <use xlink:href="#DejaVuSans-30" x="63.623047"/>
       <use xlink:href="#DejaVuSans-30" x="127.246094"/>
      </g>
     </g>
    </g>
    <g id="ytick_4">
     <g id="line2d_9">
      <g>
       <use xlink:href="#m79dac14cb4" x="396.718932" y="507.783275" style="stroke: #000000; stroke-width: 0.8"/>
      </g>
     </g>
     <g id="text_9">
      <!-- 200 -->
      <g transform="translate(370.631432 511.582494) scale(0.1 -0.1)">
       <defs>
        <path id="DejaVuSans-32" d="M 1228 531 
L 3431 531 
L 3431 0 
L 469 0 
L 469 531 
Q 828 903 1448 1529 
Q 2069 2156 2228 2338 
Q 2531 2678 2651 2914 
Q 2772 3150 2772 3378 
Q 2772 3750 2511 3984 
Q 2250 4219 1831 4219 
Q 1534 4219 1204 4116 
Q 875 4013 500 3803 
L 500 4441 
Q 881 4594 1212 4672 
Q 1544 4750 1819 4750 
Q 2544 4750 2975 4387 
Q 3406 4025 3406 3419 
Q 3406 3131 3298 2873 
Q 3191 2616 2906 2266 
Q 2828 2175 2409 1742 
Q 1991 1309 1228 531 
z
" transform="scale(0.015625)"/>
       </defs>
       <use xlink:href="#DejaVuSans-32"/>
       <use xlink:href="#DejaVuSans-30" x="63.623047"/>
       <use xlink:href="#DejaVuSans-30" x="127.246094"/>
      </g>
     </g>
    </g>
    <g id="ytick_5">
     <g id="line2d_10">
      <g>
       <use xlink:href="#m79dac14cb4" x="396.718932" y="358.441915" style="stroke: #000000; stroke-width: 0.8"/>
      </g>
     </g>
     <g id="text_10">
      <!-- 300 -->
      <g transform="translate(370.631432 362.241133) scale(0.1 -0.1)">
       <defs>
        <path id="DejaVuSans-33" d="M 2597 2516 
Q 3050 2419 3304 2112 
Q 3559 1806 3559 1356 
Q 3559 666 3084 287 
Q 2609 -91 1734 -91 
Q 1441 -91 1130 -33 
Q 819 25 488 141 
L 488 750 
Q 750 597 1062 519 
Q 1375 441 1716 441 
Q 2309 441 2620 675 
Q 2931 909 2931 1356 
Q 2931 1769 2642 2001 
Q 2353 2234 1838 2234 
L 1294 2234 
L 1294 2753 
L 1863 2753 
Q 2328 2753 2575 2939 
Q 2822 3125 2822 3475 
Q 2822 3834 2567 4026 
Q 2313 4219 1838 4219 
Q 1578 4219 1281 4162 
Q 984 4106 628 3988 
L 628 4550 
Q 988 4650 1302 4700 
Q 1616 4750 1894 4750 
Q 2613 4750 3031 4423 
Q 3450 4097 3450 3541 
Q 3450 3153 3228 2886 
Q 3006 2619 2597 2516 
z
" transform="scale(0.015625)"/>
       </defs>
       <use xlink:href="#DejaVuSans-33"/>
       <use xlink:href="#DejaVuSans-30" x="63.623047"/>
       <use xlink:href="#DejaVuSans-30" x="127.246094"/>
      </g>
     </g>
    </g>
    <g id="ytick_6">
     <g id="line2d_11">
      <g>
       <use xlink:href="#m79dac14cb4" x="396.718932" y="209.100554" style="stroke: #000000; stroke-width: 0.8"/>
      </g>
     </g>
     <g id="text_11">
      <!-- 400 -->
      <g transform="translate(370.631432 212.899773) scale(0.1 -0.1)">
       <use xlink:href="#DejaVuSans-34"/>
       <use xlink:href="#DejaVuSans-30" x="63.623047"/>
       <use xlink:href="#DejaVuSans-30" x="127.246094"/>
      </g>
     </g>
    </g>
   </g>
   <g id="LineCollection_1">
    <path d="M 1045.906106 233.073344 
L 1009.624676 210.643 
L 977.640248 193.141431 
L 952.76991 181.627518 
L 949.115368 180.148029 
L 928.458968 172.939514 
L 922.927777 171.440596 
L 906.114637 168.145741 
L 901.88394 167.547349 
L 897.613675 167.4 
L 884.291549 167.646701 
L 880.171849 167.934507 
L 876.103194 168.642185 
L 872.128262 169.76231 
L 861.962993 173.197737 
L 858.364143 174.609613 
L 854.917041 176.359644 
L 851.653374 178.431742 
L 848.603141 180.806862 
L 841.278303 187.097089 
L 838.601819 189.616352 
L 836.165863 192.368874 
L 833.990678 195.331782 
L 832.094338 198.480456 
L 827.310863 207.31007 
L 825.71565 210.603148 
L 824.425535 214.027279 
L 823.45114 217.554264 
L 820.926932 228.62596 
L 820.27114 232.265221 
L 819.951505 235.949256 
L 819.421044 248.983421 
L 819.523849 253.933936 
L 820.737779 268.668214 
L 821.160881 272.049769 
L 824.358202 290.609861 
L 828.807938 309.728573 
L 834.281595 329.402241 
L 840.587603 349.563858 
L 847.555655 370.114602 
L 855.030687 390.941523 
L 862.870444 411.927548 
L 870.944392 432.957194 
L 887.327981 474.71164 
L 903.381388 515.479437 
L 911.059283 535.254079 
L 918.408107 554.522522 
L 925.367713 573.222095 
L 931.88653 591.297593 
L 937.921243 608.700876 
L 943.436493 625.390412 
L 948.404622 641.330797 
L 952.805476 656.492275 
L 956.626269 670.850301 
L 959.861533 684.385168 
L 962.513145 697.081787 
L 964.590426 708.929655 
L 966.110278 719.923125 
L 967.097272 730.062055 
L 967.583548 739.352926 
L 967.608332 747.810432 
L 967.216776 755.459479 
L 966.457862 762.337271 
L 965.381183 768.494972 
L 964.032696 773.998204 
L 962.449976 778.925604 
L 960.657961 783.365013 
L 958.666381 787.407502 
L 956.46983 791.140288 
L 954.050659 794.640121 
L 951.383959 797.96865 
L 948.443229 801.170572 
L 945.205336 804.274467 
L 941.653837 807.295474 
L 937.780411 810.238766 
L 933.584711 813.102931 
L 929.073142 815.882739 
L 924.257138 818.571105 
L 919.151314 821.160315 
L 913.771752 823.642664 
L 908.134529 826.010702 
L 902.254513 828.257231 
L 896.144404 830.37518 
L 889.813986 832.357424 
L 883.269556 834.196596 
L 876.513489 835.884899 
L 869.543951 837.41393 
L 862.354731 838.774518 
L 854.93522 839.956559 
L 847.270536 840.948874 
L 839.341809 841.739079 
L 831.126633 842.313512 
L 822.599673 842.657227 
L 813.733407 842.754086 
L 804.498964 842.586981 
L 794.867021 842.138188 
L 784.808713 841.389867 
L 774.296501 840.324684 
L 763.304985 838.926545 
L 751.811636 837.181406 
L 739.79744 835.078139 
L 727.247474 832.609425 
L 714.151417 829.772658 
L 700.504025 826.570856 
L 686.305575 823.013571 
L 671.562287 819.117807 
L 656.286735 814.908938 
L 624.222994 805.700998 
L 572.684135 790.720229 
L 554.769898 785.737532 
L 536.578859 780.941191 
L 518.159138 776.467839 
L 499.549051 772.480677 
L 480.765651 769.180041 
L 461.788197 766.824553 
L 446.109126 765.840246 
L 442.539816 765.774513 
L 427.744484 766.157319 
L 427.744484 766.157319 
" clip-path="url(#p408fb643d2)" style="fill: none; stroke: #1f77b4; stroke-width: 1.5"/>
    <path d="M 1024.659437 267.343685 
L 990.173832 245.963558 
L 960.700116 229.732538 
L 935.829777 218.218625 
L 915.173378 211.01011 
L 898.360238 207.715255 
L 885.038112 207.961956 
L 874.872843 211.397383 
L 867.548004 217.68761 
L 862.764529 226.517224 
L 860.240321 237.58892 
L 859.70986 250.623085 
L 860.92379 265.357362 
L 863.648499 281.546211 
L 867.665687 298.960446 
L 872.771928 317.386774 
L 878.778216 336.627312 
L 885.509514 356.499107 
L 892.804285 376.833637 
L 900.514021 397.47631 
L 908.502773 418.285958 
L 916.64666 439.134319 
L 924.833394 459.90552 
L 932.961781 480.495555 
L 940.941241 500.811758 
L 948.691304 520.772271 
L 956.141123 540.305521 
L 963.228978 559.349684 
L 969.901781 577.852156 
L 976.114584 595.769024 
L 981.830087 613.064543 
L 987.018153 629.710602 
L 991.655322 645.686215 
L 995.72433 660.976997 
L 999.213635 675.574654 
L 1002.116947 689.476482 
L 1004.432767 702.684869 
L 1006.16393 715.206802 
L 1007.317159 727.053391 
L 1007.902626 738.239395 
L 1007.933522 748.782763 
L 1007.425642 758.704186 
L 1006.396976 768.026656 
L 1004.867313 776.775048 
L 1002.85786 784.975708 
L 1000.390872 792.656056 
L 997.489297 799.844208 
L 994.176438 806.568616 
L 990.475626 812.857719 
L 986.409916 818.739615 
L 982.001792 824.241758 
L 977.272901 829.390664 
L 972.243791 834.211648 
L 966.933687 838.728574 
L 961.360268 842.963636 
L 955.539482 846.937155 
L 949.48537 850.667402 
L 943.209922 854.170453 
L 936.722948 857.460056 
L 930.031982 860.547541 
L 923.142203 863.441742 
L 916.056387 866.148961 
L 908.774883 868.67295 
L 901.295616 871.014934 
L 893.614119 873.173654 
L 885.723593 875.145451 
L 877.614999 876.924378 
L 869.277173 878.502343 
L 860.696985 879.869299 
L 851.859514 881.013449 
L 842.748269 881.921508 
L 833.345432 882.578986 
L 823.632149 882.970521 
L 813.58884 883.080239 
L 803.195555 882.892163 
L 792.432366 882.390661 
L 781.279789 881.560928 
L 769.719252 880.38952 
L 757.733598 878.864925 
L 745.307626 876.978178 
L 732.428674 874.723523 
L 719.087246 872.099119 
L 705.277673 869.107795 
L 690.998823 865.757847 
L 676.254852 862.063888 
L 661.056 858.047745 
L 645.41943 853.739405 
L 629.370113 849.178015 
L 612.94176 844.412927 
L 596.177802 839.504806 
L 579.132415 834.526778 
L 561.871596 829.565643 
L 544.474286 824.723139 
L 527.033548 820.117258 
L 509.657788 815.883626 
L 492.472035 812.176936 
L 475.619271 809.172439 
L 459.261811 807.067497 
L 443.58274 806.08319 
L 428.787408 806.465996 
" clip-path="url(#p408fb643d2)" style="fill: none; stroke: #8c564b; stroke-width: 1.5"/>
    <path d="M 1003.412768 301.614025 
L 969.811524 280.782178 
L 942.482447 265.7322 
L 920.680707 255.638918 
L 904.599991 250.02719 
L 900.125345 249.150298 
L 900.099542 249.784328 
L 900.969763 260.346785 
L 903.210665 273.661095 
L 906.758298 289.039841 
L 911.456026 305.992015 
L 917.124222 324.149505 
L 923.584778 343.222031 
L 930.669615 362.97136 
L 938.223391 383.196452 
L 946.104074 403.724596 
L 962.342869 445.109692 
L 978.529546 486.217357 
L 986.366366 506.403316 
L 993.930866 526.240937 
L 1001.159809 545.670163 
L 1007.998558 564.641826 
L 1014.400407 583.117033 
L 1020.325881 601.066584 
L 1025.741987 618.47041 
L 1030.621418 635.317004 
L 1034.941694 651.602799 
L 1038.684219 667.331463 
L 1041.833286 682.513036 
L 1044.375029 697.162832 
L 1046.29639 711.300031 
L 1047.584211 724.945846 
L 1048.22462 738.121236 
L 1048.202962 750.844164 
L 1047.504557 763.126599 
L 1046.116546 774.971652 
L 1044.030881 786.371515 
L 1041.248182 797.306983 
L 1037.781679 807.749256 
L 1033.660086 817.664175 
L 1028.928258 827.018266 
L 1023.645005 835.785202 
L 1017.87835 843.951018 
L 1011.699399 851.516826 
L 1005.17631 858.498686 
L 998.369585 864.925164 
L 991.329267 870.833602 
L 984.093976 876.266124 
L 976.691308 881.266114 
L 969.139061 885.875493 
L 961.446782 890.132851 
L 953.617333 894.072307 
L 945.648301 897.722906 
L 937.533187 901.108395 
L 929.262401 904.247233 
L 920.824066 907.152742 
L 912.204699 909.833346 
L 903.389788 912.292876 
L 894.364283 914.530927 
L 885.113028 916.543271 
L 875.621107 918.322334 
L 865.874119 919.857728 
L 855.858353 921.136839 
L 845.560866 922.145462 
L 834.969467 922.868435 
L 824.072621 923.290282 
L 812.859295 923.395806 
L 801.318812 923.170631 
L 789.440733 922.601696 
L 777.214834 921.677674 
L 764.631203 920.389382 
L 751.6805 918.730163 
L 738.354367 916.696302 
L 724.646013 914.287488 
L 710.550938 911.507349 
L 696.067794 908.364072 
L 681.199372 904.871118 
L 665.953686 901.048028 
L 650.345173 896.921327 
L 634.396 892.5255 
L 601.611918 883.110626 
L 550.895876 868.365636 
L 533.919745 863.640366 
L 517.112173 859.201696 
L 500.632865 855.186486 
L 484.680328 851.745781 
L 469.503986 849.040156 
L 455.421337 847.227945 
L 442.839553 846.438081 
L 429.830332 846.774674 
L 429.830332 846.774674 
" clip-path="url(#p408fb643d2)" style="fill: none; stroke: #17becf; stroke-width: 1.5"/>
   </g>
   <g id="patch_3">
    <path d="M 396.718932 961.2 
L 396.718932 129.6 
" style="fill: none; stroke: #000000; stroke-width: 0.8; stroke-linejoin: miter; stroke-linecap: square"/>
   </g>
   <g id="patch_4">
    <path d="M 1079.281068 961.2 
L 1079.281068 129.6 
" style="fill: none; stroke: #000000; stroke-width: 0.8; stroke-linejoin: miter; stroke-linecap: square"/>
   </g>
   <g id="patch_5">
    <path d="M 396.718932 961.2 
L 1079.281068 961.2 
" style="fill: none; stroke: #000000; stroke-width: 0.8; stroke-linejoin: miter; stroke-linecap: square"/>
   </g>
   <g id="patch_6">
    <path d="M 396.718932 129.6 
L 1079.281068 129.6 
" style="fill: none; stroke: #000000; stroke-width: 0.8; stroke-linejoin: miter; stroke-linecap: square"/>
   </g>
  </g>
 </g>
 <defs>
  <clipPath id="p408fb643d2">
   <rect x="396.718932" y="129.6" width="682.562136" height="831.6"/>
  </clipPath>
 </defs>
</svg>
