<?xml version="1.0" encoding="utf-8" standalone="no"?>
<!DOCTYPE svg PUBLIC "-//W3C//DTD SVG 1.1//EN"
  "http://www.w3.org/Graphics/SVG/1.1/DTD/svg11.dtd">
<svg xmlns:xlink="http://www.w3.org/1999/xlink" width="1440pt" height="1080pt" viewBox="0 0 1440 1080" xmlns="http://www.w3.org/2000/svg" version="1.1">
 <metadata>
  <rdf:RDF xmlns:dc="http://purl.org/dc/elements/1.1/" xmlns:cc="http://creativecommons.org/ns#" xmlns:rdf="http://www.w3.org/1999/02/22-rdf-syntax-ns#">
   <cc:Work>
    <dc:type rdf:resource="http://purl.org/dc/dcmitype/StillImage"/>
    <dc:date>2023-12-11T12:06:57.146152</dc:date>
    <dc:format>image/svg+xml</dc:format>
    <dc:creator>
     <cc:Agent>
      <dc:title>Matplotlib v3.7.1, https://matplotlib.org/</dc:title>
     </cc:Agent>
    </dc:creator>
   </cc:Work>
  </rdf:RDF>
 </metadata>
 <defs>
  <style type="text/css">*{stroke-linejoin: round; stroke-linecap: butt}</style>
 </defs>
 <g id="figure_1">
  <g id="patch_1">
   <path d="M 0 1080 
L 1440 1080 
L 1440 0 
L 0 0 
z
" style="fill: #ffffff"/>
  </g>
  <g id="axes_1">
   <g id="patch_2">
    <path d="M 647.796252 961.2 
L 828.203748 961.2 
L 828.203748 129.6 
L 647.796252 129.6 
z
" style="fill: #ffffff"/>
   </g>
   <g id="matplotlib.axis_1">
    <g id="xtick_1">
     <g id="line2d_1">
      <defs>
       <path id="ma08b66e5ce" d="M 0 0 
L 0 3.5 
" style="stroke: #000000; stroke-width: 0.8"/>
      </defs>
      <g>
       <use xlink:href="#ma08b66e5ce" x="680.17094" y="961.2" style="stroke: #000000; stroke-width: 0.8"/>
      </g>
     </g>
     <g id="text_1">
      <!-- 1400 -->
      <g transform="translate(667.44594 975.798437) scale(0.1 -0.1)">
       <defs>
        <path id="DejaVuSans-31" d="M 794 531 
L 1825 531 
L 1825 4091 
L 703 3866 
L 703 4441 
L 1819 4666 
L 2450 4666 
L 2450 531 
L 3481 531 
L 3481 0 
L 794 0 
L 794 531 
z
" transform="scale(0.015625)"/>
        <path id="DejaVuSans-34" d="M 2419 4116 
L 825 1625 
L 2419 1625 
L 2419 4116 
z
M 2253 4666 
L 3047 4666 
L 3047 1625 
L 3713 1625 
L 3713 1100 
L 3047 1100 
L 3047 0 
L 2419 0 
L 2419 1100 
L 313 1100 
L 313 1709 
L 2253 4666 
z
" transform="scale(0.015625)"/>
        <path id="DejaVuSans-30" d="M 2034 4250 
Q 1547 4250 1301 3770 
Q 1056 3291 1056 2328 
Q 1056 1369 1301 889 
Q 1547 409 2034 409 
Q 2525 409 2770 889 
Q 3016 1369 3016 2328 
Q 3016 3291 2770 3770 
Q 2525 4250 2034 4250 
z
M 2034 4750 
Q 2819 4750 3233 4129 
Q 3647 3509 3647 2328 
Q 3647 1150 3233 529 
Q 2819 -91 2034 -91 
Q 1250 -91 836 529 
Q 422 1150 422 2328 
Q 422 3509 836 4129 
Q 1250 4750 2034 4750 
z
" transform="scale(0.015625)"/>
       </defs>
       <use xlink:href="#DejaVuSans-31"/>
       <use xlink:href="#DejaVuSans-34" x="63.623047"/>
       <use xlink:href="#DejaVuSans-30" x="127.246094"/>
       <use xlink:href="#DejaVuSans-30" x="190.869141"/>
      </g>
     </g>
    </g>
    <g id="xtick_2">
     <g id="line2d_2">
      <g>
       <use xlink:href="#ma08b66e5ce" x="714.026474" y="961.2" style="stroke: #000000; stroke-width: 0.8"/>
      </g>
     </g>
     <g id="text_2">
      <!-- 1450 -->
      <g transform="translate(701.301474 975.798437) scale(0.1 -0.1)">
       <defs>
        <path id="DejaVuSans-35" d="M 691 4666 
L 3169 4666 
L 3169 4134 
L 1269 4134 
L 1269 2991 
Q 1406 3038 1543 3061 
Q 1681 3084 1819 3084 
Q 2600 3084 3056 2656 
Q 3513 2228 3513 1497 
Q 3513 744 3044 326 
Q 2575 -91 1722 -91 
Q 1428 -91 1123 -41 
Q 819 9 494 109 
L 494 744 
Q 775 591 1075 516 
Q 1375 441 1709 441 
Q 2250 441 2565 725 
Q 2881 1009 2881 1497 
Q 2881 1984 2565 2268 
Q 2250 2553 1709 2553 
Q 1456 2553 1204 2497 
Q 953 2441 691 2322 
L 691 4666 
z
" transform="scale(0.015625)"/>
       </defs>
       <use xlink:href="#DejaVuSans-31"/>
       <use xlink:href="#DejaVuSans-34" x="63.623047"/>
       <use xlink:href="#DejaVuSans-35" x="127.246094"/>
       <use xlink:href="#DejaVuSans-30" x="190.869141"/>
      </g>
     </g>
    </g>
    <g id="xtick_3">
     <g id="line2d_3">
      <g>
       <use xlink:href="#ma08b66e5ce" x="747.882008" y="961.2" style="stroke: #000000; stroke-width: 0.8"/>
      </g>
     </g>
     <g id="text_3">
      <!-- 1500 -->
      <g transform="translate(735.157008 975.798437) scale(0.1 -0.1)">
       <use xlink:href="#DejaVuSans-31"/>
       <use xlink:href="#DejaVuSans-35" x="63.623047"/>
       <use xlink:href="#DejaVuSans-30" x="127.246094"/>
       <use xlink:href="#DejaVuSans-30" x="190.869141"/>
      </g>
     </g>
    </g>
    <g id="xtick_4">
     <g id="line2d_4">
      <g>
       <use xlink:href="#ma08b66e5ce" x="781.737542" y="961.2" style="stroke: #000000; stroke-width: 0.8"/>
      </g>
     </g>
     <g id="text_4">
      <!-- 1550 -->
      <g transform="translate(769.012542 975.798437) scale(0.1 -0.1)">
       <use xlink:href="#DejaVuSans-31"/>
       <use xlink:href="#DejaVuSans-35" x="63.623047"/>
       <use xlink:href="#DejaVuSans-35" x="127.246094"/>
       <use xlink:href="#DejaVuSans-30" x="190.869141"/>
      </g>
     </g>
    </g>
    <g id="xtick_5">
     <g id="line2d_5">
      <g>
       <use xlink:href="#ma08b66e5ce" x="815.593076" y="961.2" style="stroke: #000000; stroke-width: 0.8"/>
      </g>
     </g>
     <g id="text_5">
      <!-- 1600 -->
      <g transform="translate(802.868076 975.798437) scale(0.1 -0.1)">
       <defs>
        <path id="DejaVuSans-36" d="M 2113 2584 
Q 1688 2584 1439 2293 
Q 1191 2003 1191 1497 
Q 1191 994 1439 701 
Q 1688 409 2113 409 
Q 2538 409 2786 701 
Q 3034 994 3034 1497 
Q 3034 2003 2786 2293 
Q 2538 2584 2113 2584 
z
M 3366 4563 
L 3366 3988 
Q 3128 4100 2886 4159 
Q 2644 4219 2406 4219 
Q 1781 4219 1451 3797 
Q 1122 3375 1075 2522 
Q 1259 2794 1537 2939 
Q 1816 3084 2150 3084 
Q 2853 3084 3261 2657 
Q 3669 2231 3669 1497 
Q 3669 778 3244 343 
Q 2819 -91 2113 -91 
Q 1303 -91 875 529 
Q 447 1150 447 2328 
Q 447 3434 972 4092 
Q 1497 4750 2381 4750 
Q 2619 4750 2861 4703 
Q 3103 4656 3366 4563 
z
" transform="scale(0.015625)"/>
       </defs>
       <use xlink:href="#DejaVuSans-31"/>
       <use xlink:href="#DejaVuSans-36" x="63.623047"/>
       <use xlink:href="#DejaVuSans-30" x="127.246094"/>
       <use xlink:href="#DejaVuSans-30" x="190.869141"/>
      </g>
     </g>
    </g>
   </g>
   <g id="matplotlib.axis_2">
    <g id="ytick_1">
     <g id="line2d_6">
      <defs>
       <path id="mb495112006" d="M 0 0 
L -3.5 0 
" style="stroke: #000000; stroke-width: 0.8"/>
      </defs>
      <g>
       <use xlink:href="#mb495112006" x="647.796252" y="933.530282" style="stroke: #000000; stroke-width: 0.8"/>
      </g>
     </g>
     <g id="text_6">
      <!-- 0 -->
      <g transform="translate(634.433752 937.329501) scale(0.1 -0.1)">
       <use xlink:href="#DejaVuSans-30"/>
      </g>
     </g>
    </g>
    <g id="ytick_2">
     <g id="line2d_7">
      <g>
       <use xlink:href="#mb495112006" x="647.796252" y="798.108146" style="stroke: #000000; stroke-width: 0.8"/>
      </g>
     </g>
     <g id="text_7">
      <!-- 200 -->
      <g transform="translate(621.708752 801.907365) scale(0.1 -0.1)">
       <defs>
        <path id="DejaVuSans-32" d="M 1228 531 
L 3431 531 
L 3431 0 
L 469 0 
L 469 531 
Q 828 903 1448 1529 
Q 2069 2156 2228 2338 
Q 2531 2678 2651 2914 
Q 2772 3150 2772 3378 
Q 2772 3750 2511 3984 
Q 2250 4219 1831 4219 
Q 1534 4219 1204 4116 
Q 875 4013 500 3803 
L 500 4441 
Q 881 4594 1212 4672 
Q 1544 4750 1819 4750 
Q 2544 4750 2975 4387 
Q 3406 4025 3406 3419 
Q 3406 3131 3298 2873 
Q 3191 2616 2906 2266 
Q 2828 2175 2409 1742 
Q 1991 1309 1228 531 
z
" transform="scale(0.015625)"/>
       </defs>
       <use xlink:href="#DejaVuSans-32"/>
       <use xlink:href="#DejaVuSans-30" x="63.623047"/>
       <use xlink:href="#DejaVuSans-30" x="127.246094"/>
      </g>
     </g>
    </g>
    <g id="ytick_3">
     <g id="line2d_8">
      <g>
       <use xlink:href="#mb495112006" x="647.796252" y="662.68601" style="stroke: #000000; stroke-width: 0.8"/>
      </g>
     </g>
     <g id="text_8">
      <!-- 400 -->
      <g transform="translate(621.708752 666.485229) scale(0.1 -0.1)">
       <use xlink:href="#DejaVuSans-34"/>
       <use xlink:href="#DejaVuSans-30" x="63.623047"/>
       <use xlink:href="#DejaVuSans-30" x="127.246094"/>
      </g>
     </g>
    </g>
    <g id="ytick_4">
     <g id="line2d_9">
      <g>
       <use xlink:href="#mb495112006" x="647.796252" y="527.263874" style="stroke: #000000; stroke-width: 0.8"/>
      </g>
     </g>
     <g id="text_9">
      <!-- 600 -->
      <g transform="translate(621.708752 531.063093) scale(0.1 -0.1)">
       <use xlink:href="#DejaVuSans-36"/>
       <use xlink:href="#DejaVuSans-30" x="63.623047"/>
       <use xlink:href="#DejaVuSans-30" x="127.246094"/>
      </g>
     </g>
    </g>
    <g id="ytick_5">
     <g id="line2d_10">
      <g>
       <use xlink:href="#mb495112006" x="647.796252" y="391.841738" style="stroke: #000000; stroke-width: 0.8"/>
      </g>
     </g>
     <g id="text_10">
      <!-- 800 -->
      <g transform="translate(621.708752 395.640957) scale(0.1 -0.1)">
       <defs>
        <path id="DejaVuSans-38" d="M 2034 2216 
Q 1584 2216 1326 1975 
Q 1069 1734 1069 1313 
Q 1069 891 1326 650 
Q 1584 409 2034 409 
Q 2484 409 2743 651 
Q 3003 894 3003 1313 
Q 3003 1734 2745 1975 
Q 2488 2216 2034 2216 
z
M 1403 2484 
Q 997 2584 770 2862 
Q 544 3141 544 3541 
Q 544 4100 942 4425 
Q 1341 4750 2034 4750 
Q 2731 4750 3128 4425 
Q 3525 4100 3525 3541 
Q 3525 3141 3298 2862 
Q 3072 2584 2669 2484 
Q 3125 2378 3379 2068 
Q 3634 1759 3634 1313 
Q 3634 634 3220 271 
Q 2806 -91 2034 -91 
Q 1263 -91 848 271 
Q 434 634 434 1313 
Q 434 1759 690 2068 
Q 947 2378 1403 2484 
z
M 1172 3481 
Q 1172 3119 1398 2916 
Q 1625 2713 2034 2713 
Q 2441 2713 2670 2916 
Q 2900 3119 2900 3481 
Q 2900 3844 2670 4047 
Q 2441 4250 2034 4250 
Q 1625 4250 1398 4047 
Q 1172 3844 1172 3481 
z
" transform="scale(0.015625)"/>
       </defs>
       <use xlink:href="#DejaVuSans-38"/>
       <use xlink:href="#DejaVuSans-30" x="63.623047"/>
       <use xlink:href="#DejaVuSans-30" x="127.246094"/>
      </g>
     </g>
    </g>
    <g id="ytick_6">
     <g id="line2d_11">
      <g>
       <use xlink:href="#mb495112006" x="647.796252" y="256.419602" style="stroke: #000000; stroke-width: 0.8"/>
      </g>
     </g>
     <g id="text_11">
      <!-- 1000 -->
      <g transform="translate(615.346252 260.218821) scale(0.1 -0.1)">
       <use xlink:href="#DejaVuSans-31"/>
       <use xlink:href="#DejaVuSans-30" x="63.623047"/>
       <use xlink:href="#DejaVuSans-30" x="127.246094"/>
       <use xlink:href="#DejaVuSans-30" x="190.869141"/>
      </g>
     </g>
    </g>
   </g>
   <g id="LineCollection_1">
    <path d="M 782.394829 903.033923 
L 775.383037 893.722736 
L 770.423773 885.455112 
L 766.774825 877.51117 
L 764.224125 869.80964 
L 762.600562 862.259692 
L 761.773969 854.778598 
L 761.646012 847.304701 
L 762.13753 839.801538 
L 763.177937 832.254508 
L 764.699085 824.664134 
L 766.633127 817.039358 
L 768.912744 809.392519 
L 771.472333 801.736233 
L 774.249289 794.081769 
L 780.225563 778.81336 
L 792.560631 748.511338 
L 798.321777 733.53873 
L 801.005772 726.106766 
L 803.534623 718.711794 
L 805.894798 711.354583 
L 808.07609 704.036108 
L 810.071376 696.757543 
L 811.876365 689.520209 
L 813.489349 682.325499 
L 814.91094 675.174771 
L 816.143786 668.069241 
L 817.192287 661.009871 
L 818.062295 653.997275 
L 818.760803 647.031637 
L 819.295656 640.112659 
L 819.675249 633.23953 
L 819.908263 626.410924 
L 820.003408 619.625013 
L 819.969195 612.879503 
L 819.81374 606.171673 
L 819.185292 593.11737 
L 818.691684 586.241886 
L 817.454485 573.079963 
L 815.860926 559.98059 
L 813.921264 546.911286 
L 811.627589 533.84087 
L 808.954386 520.741104 
L 805.860237 507.58829 
L 804.138715 500.98618 
L 802.290777 494.364684 
L 800.308321 487.722682 
L 798.183058 481.059521 
L 795.906729 474.374997 
L 793.471329 467.669324 
L 790.869353 460.943084 
L 788.094049 454.197157 
L 785.139671 447.432631 
L 782.001743 440.65071 
L 778.677315 433.852611 
L 775.165222 427.039463 
L 771.466346 420.212224 
L 767.583881 413.371616 
L 763.523607 406.518078 
L 759.294188 399.651767 
L 754.907483 392.772579 
L 745.727713 378.974333 
L 736.156812 365.121147 
L 721.587077 344.179224 
L 716.852805 337.169261 
L 712.273628 330.156259 
L 707.914663 323.149671 
L 703.847361 316.163092 
L 700.148405 309.2151 
L 696.89756 302.329594 
L 694.174125 295.534721 
L 692.052078 288.858741 
L 690.5953 282.320526 
L 689.856951 275.913117 
L 689.88985 269.58309 
L 690.772987 263.217145 
L 692.647169 256.652837 
L 695.737062 249.718622 
L 700.339886 242.282159 
L 706.788385 234.275833 
L 715.415445 225.689768 
L 726.538392 216.547598 
L 740.461218 206.883429 
L 757.908743 196.474855 
L 757.908743 196.474855 
" clip-path="url(#p0739690ab2)" style="fill: none; stroke: #1f77b4; stroke-width: 1.5"/>
    <path d="M 768.872439 913.216962 
L 761.324793 903.194196 
L 755.429178 893.365574 
L 751.000511 883.724144 
L 747.867062 874.263075 
L 745.86987 864.975665 
L 744.862155 855.855331 
L 744.70876 846.895622 
L 745.285587 838.09021 
L 746.479053 829.432898 
L 748.185557 820.917616 
L 750.310958 812.538428 
L 752.770058 804.289524 
L 755.486107 796.165232 
L 758.390314 788.160007 
L 761.421369 780.268443 
L 764.524976 772.485265 
L 767.653405 764.805333 
L 770.765049 757.223642 
L 773.823992 749.735324 
L 776.7996 742.335646 
L 779.666107 735.02001 
L 782.402234 727.783953 
L 784.990803 720.62315 
L 787.41837 713.533408 
L 789.674878 706.510671 
L 791.753308 699.551014 
L 793.649357 692.650647 
L 795.361121 685.80591 
L 796.888793 679.013274 
L 798.234376 672.269339 
L 799.401407 665.570831 
L 800.394694 658.914601 
L 801.220071 652.297625 
L 801.884162 645.716995 
L 802.39416 639.169925 
L 802.757621 632.653739 
L 802.98227 626.165876 
L 803.075824 619.703881 
L 803.045827 613.265402 
L 802.899497 606.848186 
L 802.643594 600.450078 
L 802.284296 594.069011 
L 801.827093 587.703004 
L 801.276694 581.350153 
L 800.636949 575.008632 
L 799.910788 568.676679 
L 799.100171 562.352595 
L 798.206059 556.034734 
L 797.228391 549.721498 
L 796.166086 543.411328 
L 795.017056 537.102693 
L 793.77823 530.794089 
L 792.445605 524.484022 
L 791.014299 518.171003 
L 789.478633 511.853539 
L 787.832215 505.530119 
L 786.068055 499.199205 
L 784.178682 492.859223 
L 782.156287 486.508549 
L 779.992879 480.145496 
L 777.680454 473.768304 
L 775.211188 467.375125 
L 772.577638 460.96401 
L 769.772968 454.532895 
L 766.791184 448.079585 
L 763.627389 441.601741 
L 760.27806 435.096863 
L 756.741334 428.562273 
L 753.017315 421.995099 
L 749.108398 415.392257 
L 745.01961 408.750433 
L 740.758971 402.066066 
L 736.337867 395.335326 
L 731.771444 388.554096 
L 727.079025 381.71795 
L 722.284532 374.822134 
L 717.416939 367.861543 
L 712.510735 360.830697 
L 707.60641 353.723722 
L 702.750952 346.534322 
L 697.998375 339.255758 
L 693.410252 331.880821 
L 689.056273 324.401805 
L 685.014823 316.810485 
L 681.373578 309.098084 
L 678.230113 301.255251 
L 675.692541 293.272028 
L 673.880161 285.137822 
L 672.924131 276.841375 
L 672.968155 268.370734 
L 674.169197 259.713219 
L 676.698207 250.855387 
L 680.740868 241.783006 
L 686.498369 232.481014 
L 694.188188 222.933489 
L 704.044904 213.123611 
L 716.321023 203.033626 
L 731.287824 192.644809 
L 749.236229 181.937428 
" clip-path="url(#p0739690ab2)" style="fill: none; stroke: #8c564b; stroke-width: 1.5"/>
    <path d="M 755.350049 923.4 
L 746.808337 911.901768 
L 740.046595 900.431366 
L 734.931137 889.046223 
L 731.317623 877.821916 
L 729.044495 866.834716 
L 727.936869 856.145101 
L 727.817198 845.789087 
L 728.516414 835.778472 
L 729.881306 826.106627 
L 731.777409 816.755652 
L 734.088694 807.702371 
L 736.715688 798.922354 
L 739.573177 790.392196 
L 742.588066 782.090555 
L 748.847992 766.099227 
L 763.868208 728.938407 
L 769.022395 715.003549 
L 771.351309 708.201926 
L 773.505061 701.498986 
L 775.479978 694.885944 
L 777.274772 688.354079 
L 778.89015 681.894757 
L 780.328452 675.499494 
L 781.59333 669.160046 
L 782.689457 662.868509 
L 783.622285 656.61743 
L 784.397837 650.399902 
L 785.022532 644.209653 
L 785.503045 638.0411 
L 785.846176 631.889392 
L 786.058744 625.750415 
L 786.147486 619.620783 
L 785.979443 607.379431 
L 785.390651 595.151206 
L 784.422418 582.930331 
L 783.106078 570.717194 
L 781.460784 558.51612 
L 779.49201 546.333193 
L 777.190903 534.174086 
L 774.534534 522.041901 
L 771.486976 509.935032 
L 769.802147 503.888809 
L 768.001092 497.845189 
L 766.076564 491.801833 
L 764.02095 485.755828 
L 761.82639 479.703681 
L 759.484904 473.641338 
L 756.988553 467.564218 
L 754.329612 461.467261 
L 751.500787 455.344993 
L 748.495451 449.191594 
L 745.307929 443.000967 
L 741.933801 436.766799 
L 738.37025 430.482605 
L 734.616426 424.141742 
L 730.673839 417.737406 
L 722.242636 404.70993 
L 713.151493 391.339579 
L 693.578217 363.19785 
L 688.577145 355.789185 
L 683.625108 348.197709 
L 678.780935 340.397415 
L 674.114083 332.356693 
L 669.70736 324.037577 
L 665.660919 315.395833 
L 662.097722 306.383143 
L 659.169932 296.953425 
L 657.063677 287.075648 
L 656.107647 278.779201 
L 655.996592 276.753398 
L 656.040617 268.282757 
L 656.200966 266.044651 
L 657.402008 257.387135 
L 657.891871 255.065861 
L 660.42088 246.208029 
L 661.236061 243.965441 
L 665.278722 234.89306 
L 666.347172 232.873976 
L 672.104672 223.571985 
L 673.314966 221.862766 
L 682.24699 210.935277 
L 693.296348 200.046232 
L 706.668502 189.12758 
L 722.61531 178.107382 
L 740.563716 167.4 
L 740.563716 167.4 
" clip-path="url(#p0739690ab2)" style="fill: none; stroke: #17becf; stroke-width: 1.5"/>
   </g>
   <g id="patch_3">
    <path d="M 647.796252 961.2 
L 647.796252 129.6 
" style="fill: none; stroke: #000000; stroke-width: 0.8; stroke-linejoin: miter; stroke-linecap: square"/>
   </g>
   <g id="patch_4">
    <path d="M 828.203748 961.2 
L 828.203748 129.6 
" style="fill: none; stroke: #000000; stroke-width: 0.8; stroke-linejoin: miter; stroke-linecap: square"/>
   </g>
   <g id="patch_5">
    <path d="M 647.796252 961.2 
L 828.203748 961.2 
" style="fill: none; stroke: #000000; stroke-width: 0.8; stroke-linejoin: miter; stroke-linecap: square"/>
   </g>
   <g id="patch_6">
    <path d="M 647.796252 129.6 
L 828.203748 129.6 
" style="fill: none; stroke: #000000; stroke-width: 0.8; stroke-linejoin: miter; stroke-linecap: square"/>
   </g>
  </g>
 </g>
 <defs>
  <clipPath id="p0739690ab2">
   <rect x="647.796252" y="129.6" width="180.407497" height="831.6"/>
  </clipPath>
 </defs>
</svg>
