<?xml version="1.0" encoding="utf-8" standalone="no"?>
<!DOCTYPE svg PUBLIC "-//W3C//DTD SVG 1.1//EN"
  "http://www.w3.org/Graphics/SVG/1.1/DTD/svg11.dtd">
<svg xmlns:xlink="http://www.w3.org/1999/xlink" width="1440pt" height="1080pt" viewBox="0 0 1440 1080" xmlns="http://www.w3.org/2000/svg" version="1.1">
 <metadata>
  <rdf:RDF xmlns:dc="http://purl.org/dc/elements/1.1/" xmlns:cc="http://creativecommons.org/ns#" xmlns:rdf="http://www.w3.org/1999/02/22-rdf-syntax-ns#">
   <cc:Work>
    <dc:type rdf:resource="http://purl.org/dc/dcmitype/StillImage"/>
    <dc:date>2023-12-11T12:06:51.342438</dc:date>
    <dc:format>image/svg+xml</dc:format>
    <dc:creator>
     <cc:Agent>
      <dc:title>Matplotlib v3.7.1, https://matplotlib.org/</dc:title>
     </cc:Agent>
    </dc:creator>
   </cc:Work>
  </rdf:RDF>
 </metadata>
 <defs>
  <style type="text/css">*{stroke-linejoin: round; stroke-linecap: butt}</style>
 </defs>
 <g id="figure_1">
  <g id="patch_1">
   <path d="M 0 1080 
L 1440 1080 
L 1440 0 
L 0 0 
z
" style="fill: #ffffff"/>
  </g>
  <g id="axes_1">
   <g id="patch_2">
    <path d="M 180 850.383917 
L 1296 850.383917 
L 1296 240.416083 
L 180 240.416083 
z
" style="fill: #ffffff"/>
   </g>
   <g id="matplotlib.axis_1">
    <g id="xtick_1">
     <g id="line2d_1">
      <defs>
       <path id="mbc5b76648a" d="M 0 0 
L 0 3.5 
" style="stroke: #000000; stroke-width: 0.8"/>
      </defs>
      <g>
       <use xlink:href="#mbc5b76648a" x="186.033119" y="850.383917" style="stroke: #000000; stroke-width: 0.8"/>
      </g>
     </g>
     <g id="text_1">
      <!-- 300 -->
      <g transform="translate(176.489369 864.982354) scale(0.1 -0.1)">
       <defs>
        <path id="DejaVuSans-33" d="M 2597 2516 
Q 3050 2419 3304 2112 
Q 3559 1806 3559 1356 
Q 3559 666 3084 287 
Q 2609 -91 1734 -91 
Q 1441 -91 1130 -33 
Q 819 25 488 141 
L 488 750 
Q 750 597 1062 519 
Q 1375 441 1716 441 
Q 2309 441 2620 675 
Q 2931 909 2931 1356 
Q 2931 1769 2642 2001 
Q 2353 2234 1838 2234 
L 1294 2234 
L 1294 2753 
L 1863 2753 
Q 2328 2753 2575 2939 
Q 2822 3125 2822 3475 
Q 2822 3834 2567 4026 
Q 2313 4219 1838 4219 
Q 1578 4219 1281 4162 
Q 984 4106 628 3988 
L 628 4550 
Q 988 4650 1302 4700 
Q 1616 4750 1894 4750 
Q 2613 4750 3031 4423 
Q 3450 4097 3450 3541 
Q 3450 3153 3228 2886 
Q 3006 2619 2597 2516 
z
" transform="scale(0.015625)"/>
        <path id="DejaVuSans-30" d="M 2034 4250 
Q 1547 4250 1301 3770 
Q 1056 3291 1056 2328 
Q 1056 1369 1301 889 
Q 1547 409 2034 409 
Q 2525 409 2770 889 
Q 3016 1369 3016 2328 
Q 3016 3291 2770 3770 
Q 2525 4250 2034 4250 
z
M 2034 4750 
Q 2819 4750 3233 4129 
Q 3647 3509 3647 2328 
Q 3647 1150 3233 529 
Q 2819 -91 2034 -91 
Q 1250 -91 836 529 
Q 422 1150 422 2328 
Q 422 3509 836 4129 
Q 1250 4750 2034 4750 
z
" transform="scale(0.015625)"/>
       </defs>
       <use xlink:href="#DejaVuSans-33"/>
       <use xlink:href="#DejaVuSans-30" x="63.623047"/>
       <use xlink:href="#DejaVuSans-30" x="127.246094"/>
      </g>
     </g>
    </g>
    <g id="xtick_2">
     <g id="line2d_2">
      <g>
       <use xlink:href="#mbc5b76648a" x="318.59846" y="850.383917" style="stroke: #000000; stroke-width: 0.8"/>
      </g>
     </g>
     <g id="text_2">
      <!-- 400 -->
      <g transform="translate(309.05471 864.982354) scale(0.1 -0.1)">
       <defs>
        <path id="DejaVuSans-34" d="M 2419 4116 
L 825 1625 
L 2419 1625 
L 2419 4116 
z
M 2253 4666 
L 3047 4666 
L 3047 1625 
L 3713 1625 
L 3713 1100 
L 3047 1100 
L 3047 0 
L 2419 0 
L 2419 1100 
L 313 1100 
L 313 1709 
L 2253 4666 
z
" transform="scale(0.015625)"/>
       </defs>
       <use xlink:href="#DejaVuSans-34"/>
       <use xlink:href="#DejaVuSans-30" x="63.623047"/>
       <use xlink:href="#DejaVuSans-30" x="127.246094"/>
      </g>
     </g>
    </g>
    <g id="xtick_3">
     <g id="line2d_3">
      <g>
       <use xlink:href="#mbc5b76648a" x="451.1638" y="850.383917" style="stroke: #000000; stroke-width: 0.8"/>
      </g>
     </g>
     <g id="text_3">
      <!-- 500 -->
      <g transform="translate(441.62005 864.982354) scale(0.1 -0.1)">
       <defs>
        <path id="DejaVuSans-35" d="M 691 4666 
L 3169 4666 
L 3169 4134 
L 1269 4134 
L 1269 2991 
Q 1406 3038 1543 3061 
Q 1681 3084 1819 3084 
Q 2600 3084 3056 2656 
Q 3513 2228 3513 1497 
Q 3513 744 3044 326 
Q 2575 -91 1722 -91 
Q 1428 -91 1123 -41 
Q 819 9 494 109 
L 494 744 
Q 775 591 1075 516 
Q 1375 441 1709 441 
Q 2250 441 2565 725 
Q 2881 1009 2881 1497 
Q 2881 1984 2565 2268 
Q 2250 2553 1709 2553 
Q 1456 2553 1204 2497 
Q 953 2441 691 2322 
L 691 4666 
z
" transform="scale(0.015625)"/>
       </defs>
       <use xlink:href="#DejaVuSans-35"/>
       <use xlink:href="#DejaVuSans-30" x="63.623047"/>
       <use xlink:href="#DejaVuSans-30" x="127.246094"/>
      </g>
     </g>
    </g>
    <g id="xtick_4">
     <g id="line2d_4">
      <g>
       <use xlink:href="#mbc5b76648a" x="583.72914" y="850.383917" style="stroke: #000000; stroke-width: 0.8"/>
      </g>
     </g>
     <g id="text_4">
      <!-- 600 -->
      <g transform="translate(574.18539 864.982354) scale(0.1 -0.1)">
       <defs>
        <path id="DejaVuSans-36" d="M 2113 2584 
Q 1688 2584 1439 2293 
Q 1191 2003 1191 1497 
Q 1191 994 1439 701 
Q 1688 409 2113 409 
Q 2538 409 2786 701 
Q 3034 994 3034 1497 
Q 3034 2003 2786 2293 
Q 2538 2584 2113 2584 
z
M 3366 4563 
L 3366 3988 
Q 3128 4100 2886 4159 
Q 2644 4219 2406 4219 
Q 1781 4219 1451 3797 
Q 1122 3375 1075 2522 
Q 1259 2794 1537 2939 
Q 1816 3084 2150 3084 
Q 2853 3084 3261 2657 
Q 3669 2231 3669 1497 
Q 3669 778 3244 343 
Q 2819 -91 2113 -91 
Q 1303 -91 875 529 
Q 447 1150 447 2328 
Q 447 3434 972 4092 
Q 1497 4750 2381 4750 
Q 2619 4750 2861 4703 
Q 3103 4656 3366 4563 
z
" transform="scale(0.015625)"/>
       </defs>
       <use xlink:href="#DejaVuSans-36"/>
       <use xlink:href="#DejaVuSans-30" x="63.623047"/>
       <use xlink:href="#DejaVuSans-30" x="127.246094"/>
      </g>
     </g>
    </g>
    <g id="xtick_5">
     <g id="line2d_5">
      <g>
       <use xlink:href="#mbc5b76648a" x="716.294481" y="850.383917" style="stroke: #000000; stroke-width: 0.8"/>
      </g>
     </g>
     <g id="text_5">
      <!-- 700 -->
      <g transform="translate(706.750731 864.982354) scale(0.1 -0.1)">
       <defs>
        <path id="DejaVuSans-37" d="M 525 4666 
L 3525 4666 
L 3525 4397 
L 1831 0 
L 1172 0 
L 2766 4134 
L 525 4134 
L 525 4666 
z
" transform="scale(0.015625)"/>
       </defs>
       <use xlink:href="#DejaVuSans-37"/>
       <use xlink:href="#DejaVuSans-30" x="63.623047"/>
       <use xlink:href="#DejaVuSans-30" x="127.246094"/>
      </g>
     </g>
    </g>
    <g id="xtick_6">
     <g id="line2d_6">
      <g>
       <use xlink:href="#mbc5b76648a" x="848.859821" y="850.383917" style="stroke: #000000; stroke-width: 0.8"/>
      </g>
     </g>
     <g id="text_6">
      <!-- 800 -->
      <g transform="translate(839.316071 864.982354) scale(0.1 -0.1)">
       <defs>
        <path id="DejaVuSans-38" d="M 2034 2216 
Q 1584 2216 1326 1975 
Q 1069 1734 1069 1313 
Q 1069 891 1326 650 
Q 1584 409 2034 409 
Q 2484 409 2743 651 
Q 3003 894 3003 1313 
Q 3003 1734 2745 1975 
Q 2488 2216 2034 2216 
z
M 1403 2484 
Q 997 2584 770 2862 
Q 544 3141 544 3541 
Q 544 4100 942 4425 
Q 1341 4750 2034 4750 
Q 2731 4750 3128 4425 
Q 3525 4100 3525 3541 
Q 3525 3141 3298 2862 
Q 3072 2584 2669 2484 
Q 3125 2378 3379 2068 
Q 3634 1759 3634 1313 
Q 3634 634 3220 271 
Q 2806 -91 2034 -91 
Q 1263 -91 848 271 
Q 434 634 434 1313 
Q 434 1759 690 2068 
Q 947 2378 1403 2484 
z
M 1172 3481 
Q 1172 3119 1398 2916 
Q 1625 2713 2034 2713 
Q 2441 2713 2670 2916 
Q 2900 3119 2900 3481 
Q 2900 3844 2670 4047 
Q 2441 4250 2034 4250 
Q 1625 4250 1398 4047 
Q 1172 3844 1172 3481 
z
" transform="scale(0.015625)"/>
       </defs>
       <use xlink:href="#DejaVuSans-38"/>
       <use xlink:href="#DejaVuSans-30" x="63.623047"/>
       <use xlink:href="#DejaVuSans-30" x="127.246094"/>
      </g>
     </g>
    </g>
    <g id="xtick_7">
     <g id="line2d_7">
      <g>
       <use xlink:href="#mbc5b76648a" x="981.425161" y="850.383917" style="stroke: #000000; stroke-width: 0.8"/>
      </g>
     </g>
     <g id="text_7">
      <!-- 900 -->
      <g transform="translate(971.881411 864.982354) scale(0.1 -0.1)">
       <defs>
        <path id="DejaVuSans-39" d="M 703 97 
L 703 672 
Q 941 559 1184 500 
Q 1428 441 1663 441 
Q 2288 441 2617 861 
Q 2947 1281 2994 2138 
Q 2813 1869 2534 1725 
Q 2256 1581 1919 1581 
Q 1219 1581 811 2004 
Q 403 2428 403 3163 
Q 403 3881 828 4315 
Q 1253 4750 1959 4750 
Q 2769 4750 3195 4129 
Q 3622 3509 3622 2328 
Q 3622 1225 3098 567 
Q 2575 -91 1691 -91 
Q 1453 -91 1209 -44 
Q 966 3 703 97 
z
M 1959 2075 
Q 2384 2075 2632 2365 
Q 2881 2656 2881 3163 
Q 2881 3666 2632 3958 
Q 2384 4250 1959 4250 
Q 1534 4250 1286 3958 
Q 1038 3666 1038 3163 
Q 1038 2656 1286 2365 
Q 1534 2075 1959 2075 
z
" transform="scale(0.015625)"/>
       </defs>
       <use xlink:href="#DejaVuSans-39"/>
       <use xlink:href="#DejaVuSans-30" x="63.623047"/>
       <use xlink:href="#DejaVuSans-30" x="127.246094"/>
      </g>
     </g>
    </g>
    <g id="xtick_8">
     <g id="line2d_8">
      <g>
       <use xlink:href="#mbc5b76648a" x="1113.990502" y="850.383917" style="stroke: #000000; stroke-width: 0.8"/>
      </g>
     </g>
     <g id="text_8">
      <!-- 1000 -->
      <g transform="translate(1101.265502 864.982354) scale(0.1 -0.1)">
       <defs>
        <path id="DejaVuSans-31" d="M 794 531 
L 1825 531 
L 1825 4091 
L 703 3866 
L 703 4441 
L 1819 4666 
L 2450 4666 
L 2450 531 
L 3481 531 
L 3481 0 
L 794 0 
L 794 531 
z
" transform="scale(0.015625)"/>
       </defs>
       <use xlink:href="#DejaVuSans-31"/>
       <use xlink:href="#DejaVuSans-30" x="63.623047"/>
       <use xlink:href="#DejaVuSans-30" x="127.246094"/>
       <use xlink:href="#DejaVuSans-30" x="190.869141"/>
      </g>
     </g>
    </g>
    <g id="xtick_9">
     <g id="line2d_9">
      <g>
       <use xlink:href="#mbc5b76648a" x="1246.555842" y="850.383917" style="stroke: #000000; stroke-width: 0.8"/>
      </g>
     </g>
     <g id="text_9">
      <!-- 1100 -->
      <g transform="translate(1233.830842 864.982354) scale(0.1 -0.1)">
       <use xlink:href="#DejaVuSans-31"/>
       <use xlink:href="#DejaVuSans-31" x="63.623047"/>
       <use xlink:href="#DejaVuSans-30" x="127.246094"/>
       <use xlink:href="#DejaVuSans-30" x="190.869141"/>
      </g>
     </g>
    </g>
   </g>
   <g id="matplotlib.axis_2">
    <g id="ytick_1">
     <g id="line2d_10">
      <defs>
       <path id="m1dbcde7178" d="M 0 0 
L -3.5 0 
" style="stroke: #000000; stroke-width: 0.8"/>
      </defs>
      <g>
       <use xlink:href="#m1dbcde7178" x="180" y="820.894417" style="stroke: #000000; stroke-width: 0.8"/>
      </g>
     </g>
     <g id="text_10">
      <!-- 700 -->
      <g transform="translate(153.9125 824.693636) scale(0.1 -0.1)">
       <use xlink:href="#DejaVuSans-37"/>
       <use xlink:href="#DejaVuSans-30" x="63.623047"/>
       <use xlink:href="#DejaVuSans-30" x="127.246094"/>
      </g>
     </g>
    </g>
    <g id="ytick_2">
     <g id="line2d_11">
      <g>
       <use xlink:href="#m1dbcde7178" x="180" y="688.329077" style="stroke: #000000; stroke-width: 0.8"/>
      </g>
     </g>
     <g id="text_11">
      <!-- 800 -->
      <g transform="translate(153.9125 692.128296) scale(0.1 -0.1)">
       <use xlink:href="#DejaVuSans-38"/>
       <use xlink:href="#DejaVuSans-30" x="63.623047"/>
       <use xlink:href="#DejaVuSans-30" x="127.246094"/>
      </g>
     </g>
    </g>
    <g id="ytick_3">
     <g id="line2d_12">
      <g>
       <use xlink:href="#m1dbcde7178" x="180" y="555.763737" style="stroke: #000000; stroke-width: 0.8"/>
      </g>
     </g>
     <g id="text_12">
      <!-- 900 -->
      <g transform="translate(153.9125 559.562955) scale(0.1 -0.1)">
       <use xlink:href="#DejaVuSans-39"/>
       <use xlink:href="#DejaVuSans-30" x="63.623047"/>
       <use xlink:href="#DejaVuSans-30" x="127.246094"/>
      </g>
     </g>
    </g>
    <g id="ytick_4">
     <g id="line2d_13">
      <g>
       <use xlink:href="#m1dbcde7178" x="180" y="423.198396" style="stroke: #000000; stroke-width: 0.8"/>
      </g>
     </g>
     <g id="text_13">
      <!-- 1000 -->
      <g transform="translate(147.55 426.997615) scale(0.1 -0.1)">
       <use xlink:href="#DejaVuSans-31"/>
       <use xlink:href="#DejaVuSans-30" x="63.623047"/>
       <use xlink:href="#DejaVuSans-30" x="127.246094"/>
       <use xlink:href="#DejaVuSans-30" x="190.869141"/>
      </g>
     </g>
    </g>
    <g id="ytick_5">
     <g id="line2d_14">
      <g>
       <use xlink:href="#m1dbcde7178" x="180" y="290.633056" style="stroke: #000000; stroke-width: 0.8"/>
      </g>
     </g>
     <g id="text_14">
      <!-- 1100 -->
      <g transform="translate(147.55 294.432275) scale(0.1 -0.1)">
       <use xlink:href="#DejaVuSans-31"/>
       <use xlink:href="#DejaVuSans-31" x="63.623047"/>
       <use xlink:href="#DejaVuSans-30" x="127.246094"/>
       <use xlink:href="#DejaVuSans-30" x="190.869141"/>
      </g>
     </g>
    </g>
   </g>
   <g id="LineCollection_1">
    <path d="M 230.727273 485.60985 
L 244.428694 523.495137 
L 257.851535 557.885406 
L 271.014205 589.058599 
L 283.935024 617.274142 
L 296.632197 642.773525 
L 309.123741 665.780833 
L 321.427333 686.503246 
L 333.560085 705.131524 
L 345.53821 721.840508 
L 357.376613 736.789699 
L 369.088417 750.123951 
L 380.684483 761.974332 
L 392.173006 772.45918 
L 403.559286 781.685343 
L 414.845733 789.749531 
L 426.032186 796.739687 
L 437.116494 802.736235 
L 448.095302 807.8131 
L 458.964905 812.038429 
L 469.722028 815.474997 
L 480.364441 818.18037 
L 490.891322 820.206909 
L 501.303388 821.601713 
L 511.602818 822.406591 
L 521.793033 822.658106 
L 531.878402 822.387728 
L 541.863919 821.622073 
L 551.754906 820.383237 
L 561.556757 818.689182 
L 571.274734 816.554162 
L 580.913831 813.989163 
L 590.478689 811.002342 
L 599.973559 807.599451 
L 609.402309 803.784237 
L 618.768462 799.558812 
L 628.075248 794.92399 
L 637.325678 789.879596 
L 646.522607 784.424739 
L 655.668807 778.558056 
L 664.767023 772.277945 
L 673.820013 765.582763 
L 682.830589 758.471029 
L 691.801625 750.941603 
L 700.736071 742.99387 
L 709.636944 734.627915 
L 718.507319 725.844701 
L 727.350314 716.64624 
L 736.16907 707.035769 
L 744.966734 697.017915 
L 753.746443 686.598865 
L 762.511309 675.786525 
L 771.264404 664.590677 
L 780.008759 653.023124 
L 788.747348 641.097835 
L 797.483092 628.831076 
L 806.218853 616.241534 
L 814.957437 603.350437 
L 823.701587 590.181659 
L 832.453993 576.761823 
L 849.994008 549.28978 
L 867.597671 521.20572 
L 894.178428 478.623721 
L 912.035593 450.501267 
L 921.00911 436.68617 
L 930.013912 423.116554 
L 939.050219 409.857985 
L 948.11735 396.979716 
L 957.213401 384.554737 
L 966.334789 372.659771 
L 975.475653 361.3752 
L 984.627053 350.784816 
L 993.775951 340.975275 
L 1002.904001 332.035011 
L 1011.986322 324.05221 
L 1020.990793 317.111332 
L 1029.879065 311.287612 
L 1038.611555 306.639575 
L 1047.159596 303.201556 
L 1055.526576 300.982183 
L 1063.773052 299.978404 
L 1072.028828 300.210104 
L 1080.471716 301.761403 
L 1089.2749 304.797609 
L 1098.556324 309.54136 
L 1108.362185 316.22778 
L 1118.683669 325.070567 
L 1129.484629 336.251162 
L 1140.723134 349.923639 
L 1152.362803 366.22448 
L 1164.376696 385.281175 
L 1176.747385 407.218038 
L 1189.465596 432.15959 
L 1202.528571 460.232321 
L 1216.023275 491.763243 
L 1216.023275 491.763243 
" clip-path="url(#pd0a73529b2)" style="fill: none; stroke: #1f77b4; stroke-width: 1.5"/>
    <path d="M 245.687522 480.201493 
L 259.248687 517.71351 
L 272.50781 551.700506 
L 285.479449 582.439225 
L 298.177609 610.18837 
L 310.61576 635.189372 
L 322.806852 657.667149 
L 334.763331 677.830844 
L 346.497153 695.874543 
L 358.019796 711.977982 
L 369.342279 726.307226 
L 380.475174 739.015343 
L 391.428618 750.243051 
L 402.212328 760.11935 
L 412.835617 768.762144 
L 423.307401 776.278838 
L 433.636216 782.766924 
L 443.830231 788.314545 
L 453.897259 793.001055 
L 463.844767 796.897546 
L 473.679894 800.067379 
L 483.409455 802.566681 
L 493.039961 804.444842 
L 502.577623 805.744988 
L 512.028368 806.504443 
L 521.397848 806.755175 
L 530.691453 806.52423 
L 539.91432 805.834151 
L 549.071343 804.703381 
L 558.167186 803.146653 
L 567.206292 801.175372 
L 576.192895 798.797976 
L 585.131026 796.02029 
L 594.024528 792.845861 
L 602.877065 789.276288 
L 611.692129 785.311534 
L 620.473054 780.950227 
L 629.223022 776.189952 
L 637.945077 771.027524 
L 646.642129 765.459259 
L 655.316972 759.481229 
L 663.972284 753.0895 
L 672.610643 746.280372 
L 681.234537 739.050596 
L 689.846367 731.397588 
L 698.448466 723.319627 
L 707.043101 714.816052 
L 715.632485 705.887436 
L 724.218787 696.535762 
L 732.804144 686.764584 
L 741.390663 676.57918 
L 749.980441 665.986691 
L 758.575566 654.996263 
L 767.178131 643.619167 
L 775.790245 631.868919 
L 784.414037 619.761389 
L 793.051674 607.3149 
L 801.705364 594.550324 
L 810.377371 581.491166 
L 819.070023 568.16364 
L 827.78572 554.596746 
L 836.526952 540.822325 
L 845.2963 526.875124 
L 854.096454 512.792841 
L 862.930221 498.616171 
L 871.800534 484.388844 
L 880.710469 470.157654 
L 889.663248 455.972487 
L 898.662259 441.886341 
L 907.711061 427.955341 
L 916.813399 414.238745 
L 925.973216 400.798954 
L 935.194662 387.701508 
L 944.482112 375.015082 
L 953.840173 362.811478 
L 963.2737 351.165609 
L 972.787807 340.155484 
L 982.387884 329.862186 
L 992.079603 320.369848 
L 1001.868941 311.765622 
L 1011.762188 304.139654 
L 1021.765961 297.585041 
L 1031.887221 292.197804 
L 1042.133288 288.07684 
L 1052.511853 285.323887 
L 1063.030997 284.043473 
L 1073.699203 284.342879 
L 1084.525374 286.332084 
L 1095.518851 290.123718 
L 1106.689424 295.833017 
L 1118.047356 303.577762 
L 1129.603393 313.478236 
L 1141.368788 325.657163 
L 1153.355314 340.239664 
L 1165.575285 357.353192 
L 1178.041574 377.127489 
L 1190.767632 399.694524 
L 1203.767507 425.188445 
L 1217.055863 453.745524 
L 1230.648001 485.504106 
" clip-path="url(#pd0a73529b2)" style="fill: none; stroke: #8c564b; stroke-width: 1.5"/>
    <path d="M 260.647772 474.793135 
L 274.141148 512.117639 
L 287.248703 545.716122 
L 300.04345 576.035662 
L 312.535312 603.333987 
L 324.733233 627.852122 
L 336.645257 649.815356 
L 348.278663 669.434212 
L 359.640189 686.905414 
L 370.736335 702.412803 
L 381.573765 716.128185 
L 392.159779 728.212042 
L 402.502823 738.814065 
L 412.612966 748.073475 
L 422.502253 756.119107 
L 432.18485 763.06932 
L 441.676911 769.031794 
L 450.996154 774.103361 
L 460.161194 778.369968 
L 469.190739 781.906889 
L 478.102783 784.779215 
L 486.913927 787.042596 
L 495.638906 788.74416 
L 504.290368 789.923502 
L 512.878866 790.613667 
L 521.41304 790.842046 
L 529.899895 790.631149 
L 538.345136 789.999254 
L 546.753502 788.960932 
L 555.129067 787.527478 
L 563.475489 785.70726 
L 571.796203 783.506024 
L 580.094553 780.927161 
L 588.37387 777.971959 
L 596.637508 774.639845 
L 604.888842 770.92864 
L 613.131241 766.834808 
L 621.368027 762.353721 
L 629.60242 757.479931 
L 637.837496 752.207446 
L 646.076138 746.530011 
L 654.321008 740.441384 
L 662.574524 733.935606 
L 670.83886 727.007262 
L 679.115947 719.651728 
L 687.407497 711.865394 
L 695.715027 703.645882 
L 704.03989 694.992233 
L 712.383316 685.905086 
L 720.746445 676.38683 
L 729.130365 666.441751 
L 737.536146 656.076158 
L 745.964876 645.298495 
L 754.417688 634.119453 
L 762.895785 622.552054 
L 771.400471 610.611746 
L 779.933167 598.316473 
L 788.495436 585.686748 
L 797.089001 572.745714 
L 814.377852 546.035762 
L 831.817561 518.426249 
L 876.257567 447.408194 
L 885.321654 433.221027 
L 894.456209 419.159416 
L 903.668232 405.279728 
L 912.96589 391.640958 
L 922.358818 378.304672 
L 931.85853 365.33497 
L 941.478958 352.798498 
L 951.237181 340.76457 
L 961.15435 329.305504 
L 971.256849 318.497351 
L 981.57759 308.421328 
L 992.15714 299.166404 
L 1003.043886 290.833617 
L 1014.291552 283.542512 
L 1025.951222 277.438965 
L 1036.197289 273.318002 
L 1038.054717 272.700734 
L 1048.433282 269.94778 
L 1050.589703 269.5326 
L 1062.291005 268.152853 
L 1063.477278 268.141894 
L 1075.36465 268.522459 
L 1076.57399 268.696953 
L 1088.567575 270.946375 
L 1089.712137 271.29357 
L 1100.705613 275.085205 
L 1102.758579 275.958771 
L 1113.929152 281.668069 
L 1115.65145 282.689901 
L 1128.397208 291.497201 
L 1141.044498 302.425611 
L 1153.657868 315.555783 
L 1166.301479 330.995412 
L 1179.03217 348.869582 
L 1191.898029 369.313522 
L 1204.939357 392.46807 
L 1218.190324 418.477131 
L 1231.680589 447.486387 
L 1245.272727 479.24497 
L 1245.272727 479.24497 
" clip-path="url(#pd0a73529b2)" style="fill: none; stroke: #17becf; stroke-width: 1.5"/>
   </g>
   <g id="patch_3">
    <path d="M 180 850.383917 
L 180 240.416083 
" style="fill: none; stroke: #000000; stroke-width: 0.8; stroke-linejoin: miter; stroke-linecap: square"/>
   </g>
   <g id="patch_4">
    <path d="M 1296 850.383917 
L 1296 240.416083 
" style="fill: none; stroke: #000000; stroke-width: 0.8; stroke-linejoin: miter; stroke-linecap: square"/>
   </g>
   <g id="patch_5">
    <path d="M 180 850.383917 
L 1296 850.383917 
" style="fill: none; stroke: #000000; stroke-width: 0.8; stroke-linejoin: miter; stroke-linecap: square"/>
   </g>
   <g id="patch_6">
    <path d="M 180 240.416083 
L 1296 240.416083 
" style="fill: none; stroke: #000000; stroke-width: 0.8; stroke-linejoin: miter; stroke-linecap: square"/>
   </g>
  </g>
 </g>
 <defs>
  <clipPath id="pd0a73529b2">
   <rect x="180" y="240.416083" width="1116" height="609.967834"/>
  </clipPath>
 </defs>
</svg>
