<?xml version="1.0" encoding="utf-8" standalone="no"?>
<!DOCTYPE svg PUBLIC "-//W3C//DTD SVG 1.1//EN"
  "http://www.w3.org/Graphics/SVG/1.1/DTD/svg11.dtd">
<svg xmlns:xlink="http://www.w3.org/1999/xlink" width="1440pt" height="1080pt" viewBox="0 0 1440 1080" xmlns="http://www.w3.org/2000/svg" version="1.1">
 <metadata>
  <rdf:RDF xmlns:dc="http://purl.org/dc/elements/1.1/" xmlns:cc="http://creativecommons.org/ns#" xmlns:rdf="http://www.w3.org/1999/02/22-rdf-syntax-ns#">
   <cc:Work>
    <dc:type rdf:resource="http://purl.org/dc/dcmitype/StillImage"/>
    <dc:date>2023-12-11T12:06:48.066339</dc:date>
    <dc:format>image/svg+xml</dc:format>
    <dc:creator>
     <cc:Agent>
      <dc:title>Matplotlib v3.7.1, https://matplotlib.org/</dc:title>
     </cc:Agent>
    </dc:creator>
   </cc:Work>
  </rdf:RDF>
 </metadata>
 <defs>
  <style type="text/css">*{stroke-linejoin: round; stroke-linecap: butt}</style>
 </defs>
 <g id="figure_1">
  <g id="patch_1">
   <path d="M 0 1080 
L 1440 1080 
L 1440 0 
L 0 0 
z
" style="fill: #ffffff"/>
  </g>
  <g id="axes_1">
   <g id="patch_2">
    <path d="M 180 930.465391 
L 1296 930.465391 
L 1296 160.334609 
L 180 160.334609 
z
" style="fill: #ffffff"/>
   </g>
   <g id="matplotlib.axis_1">
    <g id="xtick_1">
     <g id="line2d_1">
      <defs>
       <path id="m72abf08b82" d="M 0 0 
L 0 3.5 
" style="stroke: #000000; stroke-width: 0.8"/>
      </defs>
      <g>
       <use xlink:href="#m72abf08b82" x="291.675152" y="930.465391" style="stroke: #000000; stroke-width: 0.8"/>
      </g>
     </g>
     <g id="text_1">
      <!-- 400 -->
      <g transform="translate(282.131402 945.063828) scale(0.1 -0.1)">
       <defs>
        <path id="DejaVuSans-34" d="M 2419 4116 
L 825 1625 
L 2419 1625 
L 2419 4116 
z
M 2253 4666 
L 3047 4666 
L 3047 1625 
L 3713 1625 
L 3713 1100 
L 3047 1100 
L 3047 0 
L 2419 0 
L 2419 1100 
L 313 1100 
L 313 1709 
L 2253 4666 
z
" transform="scale(0.015625)"/>
        <path id="DejaVuSans-30" d="M 2034 4250 
Q 1547 4250 1301 3770 
Q 1056 3291 1056 2328 
Q 1056 1369 1301 889 
Q 1547 409 2034 409 
Q 2525 409 2770 889 
Q 3016 1369 3016 2328 
Q 3016 3291 2770 3770 
Q 2525 4250 2034 4250 
z
M 2034 4750 
Q 2819 4750 3233 4129 
Q 3647 3509 3647 2328 
Q 3647 1150 3233 529 
Q 2819 -91 2034 -91 
Q 1250 -91 836 529 
Q 422 1150 422 2328 
Q 422 3509 836 4129 
Q 1250 4750 2034 4750 
z
" transform="scale(0.015625)"/>
       </defs>
       <use xlink:href="#DejaVuSans-34"/>
       <use xlink:href="#DejaVuSans-30" x="63.623047"/>
       <use xlink:href="#DejaVuSans-30" x="127.246094"/>
      </g>
     </g>
    </g>
    <g id="xtick_2">
     <g id="line2d_2">
      <g>
       <use xlink:href="#m72abf08b82" x="501.309884" y="930.465391" style="stroke: #000000; stroke-width: 0.8"/>
      </g>
     </g>
     <g id="text_2">
      <!-- 600 -->
      <g transform="translate(491.766134 945.063828) scale(0.1 -0.1)">
       <defs>
        <path id="DejaVuSans-36" d="M 2113 2584 
Q 1688 2584 1439 2293 
Q 1191 2003 1191 1497 
Q 1191 994 1439 701 
Q 1688 409 2113 409 
Q 2538 409 2786 701 
Q 3034 994 3034 1497 
Q 3034 2003 2786 2293 
Q 2538 2584 2113 2584 
z
M 3366 4563 
L 3366 3988 
Q 3128 4100 2886 4159 
Q 2644 4219 2406 4219 
Q 1781 4219 1451 3797 
Q 1122 3375 1075 2522 
Q 1259 2794 1537 2939 
Q 1816 3084 2150 3084 
Q 2853 3084 3261 2657 
Q 3669 2231 3669 1497 
Q 3669 778 3244 343 
Q 2819 -91 2113 -91 
Q 1303 -91 875 529 
Q 447 1150 447 2328 
Q 447 3434 972 4092 
Q 1497 4750 2381 4750 
Q 2619 4750 2861 4703 
Q 3103 4656 3366 4563 
z
" transform="scale(0.015625)"/>
       </defs>
       <use xlink:href="#DejaVuSans-36"/>
       <use xlink:href="#DejaVuSans-30" x="63.623047"/>
       <use xlink:href="#DejaVuSans-30" x="127.246094"/>
      </g>
     </g>
    </g>
    <g id="xtick_3">
     <g id="line2d_3">
      <g>
       <use xlink:href="#m72abf08b82" x="710.944616" y="930.465391" style="stroke: #000000; stroke-width: 0.8"/>
      </g>
     </g>
     <g id="text_3">
      <!-- 800 -->
      <g transform="translate(701.400866 945.063828) scale(0.1 -0.1)">
       <defs>
        <path id="DejaVuSans-38" d="M 2034 2216 
Q 1584 2216 1326 1975 
Q 1069 1734 1069 1313 
Q 1069 891 1326 650 
Q 1584 409 2034 409 
Q 2484 409 2743 651 
Q 3003 894 3003 1313 
Q 3003 1734 2745 1975 
Q 2488 2216 2034 2216 
z
M 1403 2484 
Q 997 2584 770 2862 
Q 544 3141 544 3541 
Q 544 4100 942 4425 
Q 1341 4750 2034 4750 
Q 2731 4750 3128 4425 
Q 3525 4100 3525 3541 
Q 3525 3141 3298 2862 
Q 3072 2584 2669 2484 
Q 3125 2378 3379 2068 
Q 3634 1759 3634 1313 
Q 3634 634 3220 271 
Q 2806 -91 2034 -91 
Q 1263 -91 848 271 
Q 434 634 434 1313 
Q 434 1759 690 2068 
Q 947 2378 1403 2484 
z
M 1172 3481 
Q 1172 3119 1398 2916 
Q 1625 2713 2034 2713 
Q 2441 2713 2670 2916 
Q 2900 3119 2900 3481 
Q 2900 3844 2670 4047 
Q 2441 4250 2034 4250 
Q 1625 4250 1398 4047 
Q 1172 3844 1172 3481 
z
" transform="scale(0.015625)"/>
       </defs>
       <use xlink:href="#DejaVuSans-38"/>
       <use xlink:href="#DejaVuSans-30" x="63.623047"/>
       <use xlink:href="#DejaVuSans-30" x="127.246094"/>
      </g>
     </g>
    </g>
    <g id="xtick_4">
     <g id="line2d_4">
      <g>
       <use xlink:href="#m72abf08b82" x="920.579348" y="930.465391" style="stroke: #000000; stroke-width: 0.8"/>
      </g>
     </g>
     <g id="text_4">
      <!-- 1000 -->
      <g transform="translate(907.854348 945.063828) scale(0.1 -0.1)">
       <defs>
        <path id="DejaVuSans-31" d="M 794 531 
L 1825 531 
L 1825 4091 
L 703 3866 
L 703 4441 
L 1819 4666 
L 2450 4666 
L 2450 531 
L 3481 531 
L 3481 0 
L 794 0 
L 794 531 
z
" transform="scale(0.015625)"/>
       </defs>
       <use xlink:href="#DejaVuSans-31"/>
       <use xlink:href="#DejaVuSans-30" x="63.623047"/>
       <use xlink:href="#DejaVuSans-30" x="127.246094"/>
       <use xlink:href="#DejaVuSans-30" x="190.869141"/>
      </g>
     </g>
    </g>
    <g id="xtick_5">
     <g id="line2d_5">
      <g>
       <use xlink:href="#m72abf08b82" x="1130.21408" y="930.465391" style="stroke: #000000; stroke-width: 0.8"/>
      </g>
     </g>
     <g id="text_5">
      <!-- 1200 -->
      <g transform="translate(1117.48908 945.063828) scale(0.1 -0.1)">
       <defs>
        <path id="DejaVuSans-32" d="M 1228 531 
L 3431 531 
L 3431 0 
L 469 0 
L 469 531 
Q 828 903 1448 1529 
Q 2069 2156 2228 2338 
Q 2531 2678 2651 2914 
Q 2772 3150 2772 3378 
Q 2772 3750 2511 3984 
Q 2250 4219 1831 4219 
Q 1534 4219 1204 4116 
Q 875 4013 500 3803 
L 500 4441 
Q 881 4594 1212 4672 
Q 1544 4750 1819 4750 
Q 2544 4750 2975 4387 
Q 3406 4025 3406 3419 
Q 3406 3131 3298 2873 
Q 3191 2616 2906 2266 
Q 2828 2175 2409 1742 
Q 1991 1309 1228 531 
z
" transform="scale(0.015625)"/>
       </defs>
       <use xlink:href="#DejaVuSans-31"/>
       <use xlink:href="#DejaVuSans-32" x="63.623047"/>
       <use xlink:href="#DejaVuSans-30" x="127.246094"/>
       <use xlink:href="#DejaVuSans-30" x="190.869141"/>
      </g>
     </g>
    </g>
   </g>
   <g id="matplotlib.axis_2">
    <g id="ytick_1">
     <g id="line2d_6">
      <defs>
       <path id="m70baae9357" d="M 0 0 
L -3.5 0 
" style="stroke: #000000; stroke-width: 0.8"/>
      </defs>
      <g>
       <use xlink:href="#m70baae9357" x="180" y="922.162695" style="stroke: #000000; stroke-width: 0.8"/>
      </g>
     </g>
     <g id="text_6">
      <!-- 400 -->
      <g transform="translate(153.9125 925.961913) scale(0.1 -0.1)">
       <use xlink:href="#DejaVuSans-34"/>
       <use xlink:href="#DejaVuSans-30" x="63.623047"/>
       <use xlink:href="#DejaVuSans-30" x="127.246094"/>
      </g>
     </g>
    </g>
    <g id="ytick_2">
     <g id="line2d_7">
      <g>
       <use xlink:href="#m70baae9357" x="180" y="817.345329" style="stroke: #000000; stroke-width: 0.8"/>
      </g>
     </g>
     <g id="text_7">
      <!-- 500 -->
      <g transform="translate(153.9125 821.144547) scale(0.1 -0.1)">
       <defs>
        <path id="DejaVuSans-35" d="M 691 4666 
L 3169 4666 
L 3169 4134 
L 1269 4134 
L 1269 2991 
Q 1406 3038 1543 3061 
Q 1681 3084 1819 3084 
Q 2600 3084 3056 2656 
Q 3513 2228 3513 1497 
Q 3513 744 3044 326 
Q 2575 -91 1722 -91 
Q 1428 -91 1123 -41 
Q 819 9 494 109 
L 494 744 
Q 775 591 1075 516 
Q 1375 441 1709 441 
Q 2250 441 2565 725 
Q 2881 1009 2881 1497 
Q 2881 1984 2565 2268 
Q 2250 2553 1709 2553 
Q 1456 2553 1204 2497 
Q 953 2441 691 2322 
L 691 4666 
z
" transform="scale(0.015625)"/>
       </defs>
       <use xlink:href="#DejaVuSans-35"/>
       <use xlink:href="#DejaVuSans-30" x="63.623047"/>
       <use xlink:href="#DejaVuSans-30" x="127.246094"/>
      </g>
     </g>
    </g>
    <g id="ytick_3">
     <g id="line2d_8">
      <g>
       <use xlink:href="#m70baae9357" x="180" y="712.527962" style="stroke: #000000; stroke-width: 0.8"/>
      </g>
     </g>
     <g id="text_8">
      <!-- 600 -->
      <g transform="translate(153.9125 716.327181) scale(0.1 -0.1)">
       <use xlink:href="#DejaVuSans-36"/>
       <use xlink:href="#DejaVuSans-30" x="63.623047"/>
       <use xlink:href="#DejaVuSans-30" x="127.246094"/>
      </g>
     </g>
    </g>
    <g id="ytick_4">
     <g id="line2d_9">
      <g>
       <use xlink:href="#m70baae9357" x="180" y="607.710596" style="stroke: #000000; stroke-width: 0.8"/>
      </g>
     </g>
     <g id="text_9">
      <!-- 700 -->
      <g transform="translate(153.9125 611.509815) scale(0.1 -0.1)">
       <defs>
        <path id="DejaVuSans-37" d="M 525 4666 
L 3525 4666 
L 3525 4397 
L 1831 0 
L 1172 0 
L 2766 4134 
L 525 4134 
L 525 4666 
z
" transform="scale(0.015625)"/>
       </defs>
       <use xlink:href="#DejaVuSans-37"/>
       <use xlink:href="#DejaVuSans-30" x="63.623047"/>
       <use xlink:href="#DejaVuSans-30" x="127.246094"/>
      </g>
     </g>
    </g>
    <g id="ytick_5">
     <g id="line2d_10">
      <g>
       <use xlink:href="#m70baae9357" x="180" y="502.89323" style="stroke: #000000; stroke-width: 0.8"/>
      </g>
     </g>
     <g id="text_10">
      <!-- 800 -->
      <g transform="translate(153.9125 506.692449) scale(0.1 -0.1)">
       <use xlink:href="#DejaVuSans-38"/>
       <use xlink:href="#DejaVuSans-30" x="63.623047"/>
       <use xlink:href="#DejaVuSans-30" x="127.246094"/>
      </g>
     </g>
    </g>
    <g id="ytick_6">
     <g id="line2d_11">
      <g>
       <use xlink:href="#m70baae9357" x="180" y="398.075864" style="stroke: #000000; stroke-width: 0.8"/>
      </g>
     </g>
     <g id="text_11">
      <!-- 900 -->
      <g transform="translate(153.9125 401.875083) scale(0.1 -0.1)">
       <defs>
        <path id="DejaVuSans-39" d="M 703 97 
L 703 672 
Q 941 559 1184 500 
Q 1428 441 1663 441 
Q 2288 441 2617 861 
Q 2947 1281 2994 2138 
Q 2813 1869 2534 1725 
Q 2256 1581 1919 1581 
Q 1219 1581 811 2004 
Q 403 2428 403 3163 
Q 403 3881 828 4315 
Q 1253 4750 1959 4750 
Q 2769 4750 3195 4129 
Q 3622 3509 3622 2328 
Q 3622 1225 3098 567 
Q 2575 -91 1691 -91 
Q 1453 -91 1209 -44 
Q 966 3 703 97 
z
M 1959 2075 
Q 2384 2075 2632 2365 
Q 2881 2656 2881 3163 
Q 2881 3666 2632 3958 
Q 2384 4250 1959 4250 
Q 1534 4250 1286 3958 
Q 1038 3666 1038 3163 
Q 1038 2656 1286 2365 
Q 1534 2075 1959 2075 
z
" transform="scale(0.015625)"/>
       </defs>
       <use xlink:href="#DejaVuSans-39"/>
       <use xlink:href="#DejaVuSans-30" x="63.623047"/>
       <use xlink:href="#DejaVuSans-30" x="127.246094"/>
      </g>
     </g>
    </g>
    <g id="ytick_7">
     <g id="line2d_12">
      <g>
       <use xlink:href="#m70baae9357" x="180" y="293.258498" style="stroke: #000000; stroke-width: 0.8"/>
      </g>
     </g>
     <g id="text_12">
      <!-- 1000 -->
      <g transform="translate(147.55 297.057717) scale(0.1 -0.1)">
       <use xlink:href="#DejaVuSans-31"/>
       <use xlink:href="#DejaVuSans-30" x="63.623047"/>
       <use xlink:href="#DejaVuSans-30" x="127.246094"/>
       <use xlink:href="#DejaVuSans-30" x="190.869141"/>
      </g>
     </g>
    </g>
    <g id="ytick_8">
     <g id="line2d_13">
      <g>
       <use xlink:href="#m70baae9357" x="180" y="188.441132" style="stroke: #000000; stroke-width: 0.8"/>
      </g>
     </g>
     <g id="text_13">
      <!-- 1100 -->
      <g transform="translate(147.55 192.240351) scale(0.1 -0.1)">
       <use xlink:href="#DejaVuSans-31"/>
       <use xlink:href="#DejaVuSans-31" x="63.623047"/>
       <use xlink:href="#DejaVuSans-30" x="127.246094"/>
       <use xlink:href="#DejaVuSans-30" x="190.869141"/>
      </g>
     </g>
    </g>
   </g>
   <g id="LineCollection_1">
    <path d="M 231.935785 195.340554 
L 231.02142 226.07056 
L 230.727323 255.268032 
L 231.022383 283.012183 
L 231.876483 309.37934 
L 233.260504 334.442921 
L 235.146329 358.273424 
L 237.506834 380.938417 
L 240.315877 402.502541 
L 243.548279 423.027524 
L 247.179803 442.572208 
L 251.187138 461.192584 
L 255.547871 478.941853 
L 260.240482 495.870489 
L 265.244331 512.026322 
L 270.539667 527.454627 
L 276.107638 542.19822 
L 281.930318 556.297555 
L 287.990746 569.790816 
L 294.272963 582.714005 
L 300.762064 595.101021 
L 307.444245 606.983723 
L 314.306849 618.391984 
L 321.338401 629.353734 
L 328.528645 639.894992 
L 335.868556 650.039885 
L 343.350355 659.810675 
L 350.967497 669.227768 
L 358.714661 678.30973 
L 366.58772 687.073306 
L 374.583707 695.533442 
L 382.700772 703.703302 
L 390.938124 711.594305 
L 399.295982 719.216159 
L 407.775506 726.576896 
L 416.378732 733.68293 
L 425.1085 740.539101 
L 433.968373 747.148742 
L 442.962565 753.513747 
L 452.095852 759.634644 
L 461.37349 765.510681 
L 470.801124 771.139921 
L 480.3847 776.519346 
L 490.130378 781.644967 
L 500.044446 786.511953 
L 510.133236 791.114767 
L 520.403046 795.447307 
L 530.860077 799.503064 
L 541.510366 803.275279 
L 552.359742 806.757112 
L 563.413783 809.941805 
L 574.677786 812.822852 
L 586.156745 815.394151 
L 597.855329 817.650168 
L 609.777865 819.586078 
L 621.928318 821.197904 
L 634.310261 822.482647 
L 646.926839 823.438413 
L 659.78072 824.064523 
L 672.874031 824.361642 
L 686.20828 824.331885 
L 699.78427 823.978945 
L 713.601984 823.308217 
L 727.660481 822.32693 
L 741.95776 821.044285 
L 756.490628 819.471609 
L 771.254558 817.622509 
L 786.243538 815.51304 
L 801.449917 813.161874 
L 816.864244 810.590485 
L 832.475103 807.82333 
L 864.229876 801.815612 
L 945.85397 785.730629 
L 962.351154 782.695223 
L 978.824087 779.849726 
L 995.230608 777.258522 
L 1011.523911 774.990609 
L 1027.65216 773.119465 
L 1043.55812 771.722758 
L 1059.178881 770.881822 
L 1074.445807 770.680839 
L 1089.284965 771.205684 
L 1103.618476 772.5425 
L 1117.367376 774.776355 
L 1130.456655 777.990874 
L 1142.822601 782.270569 
L 1154.42096 787.708183 
L 1165.231581 794.418343 
L 1175.253095 802.55469 
L 1184.4842 812.321592 
L 1192.897596 823.970315 
L 1200.420799 837.778644 
L 1206.934135 854.025415 
L 1212.283359 872.973768 
L 1216.404776 895.459446 
L 1216.404776 895.459446 
" clip-path="url(#p4d4e5a24e4)" style="fill: none; stroke: #1f77b4; stroke-width: 1.5"/>
    <path d="M 246.603684 195.778348 
L 245.695091 226.219942 
L 245.400944 255.113809 
L 245.68919 282.539203 
L 246.528725 308.572666 
L 247.88942 333.288037 
L 249.742141 356.756451 
L 252.058777 379.046357 
L 254.812256 400.223522 
L 257.976564 420.351052 
L 261.526762 439.489398 
L 265.438997 457.696381 
L 269.690519 475.027211 
L 274.259688 491.534502 
L 279.125981 507.268304 
L 284.270001 522.276125 
L 289.673477 536.60296 
L 295.319271 550.291319 
L 301.191374 563.381264 
L 307.274904 575.910443 
L 313.556104 587.914125 
L 320.022333 599.425242 
L 326.662061 610.474429 
L 333.464852 621.090072 
L 340.421362 631.298352 
L 347.523312 641.123294 
L 354.763482 650.586823 
L 362.135685 659.708813 
L 369.634749 668.507148 
L 377.256493 676.997781 
L 384.997703 685.194794 
L 392.856101 693.110464 
L 400.830323 700.755332 
L 408.919877 708.138272 
L 417.125118 715.266561 
L 425.447207 722.145959 
L 433.888076 728.780786 
L 442.450385 735.174002 
L 451.137479 741.327291 
L 459.953348 747.24115 
L 468.902575 752.914974 
L 477.990288 758.347156 
L 487.222111 763.535173 
L 496.604108 768.475694 
L 506.14273 773.164674 
L 515.844751 777.597463 
L 525.717217 781.768911 
L 535.767375 785.673481 
L 546.002612 789.305359 
L 556.430391 792.658575 
L 567.058173 795.727118 
L 577.893357 798.505064 
L 588.943196 800.9867 
L 600.214728 803.166654 
L 611.714692 805.040025 
L 623.449453 806.602525 
L 635.424916 807.850611 
L 647.64644 808.781636 
L 660.118751 809.393986 
L 672.845855 809.687238 
L 685.830942 809.662306 
L 699.076293 809.321602 
L 712.583184 808.669195 
L 726.351783 807.710971 
L 740.381056 806.454804 
L 754.668654 804.910725 
L 769.210814 803.091094 
L 784.002246 801.01078 
L 799.036023 798.687343 
L 814.303469 796.141217 
L 829.794041 793.395896 
L 845.495212 790.478134 
L 861.392352 787.418134 
L 877.468601 784.24975 
L 893.704745 781.010692 
L 910.079092 777.742732 
L 926.567335 774.491917 
L 943.142425 771.308781 
L 959.774433 768.248567 
L 976.430412 765.371451 
L 993.074257 762.742766 
L 1009.666566 760.433233 
L 1026.16449 758.519201 
L 1042.521586 757.082879 
L 1058.687671 756.212586 
L 1074.608667 756.002992 
L 1090.226444 756.555376 
L 1105.478665 757.977876 
L 1120.298626 760.385752 
L 1134.615093 763.901648 
L 1148.352135 768.655863 
L 1161.42896 774.786619 
L 1173.759743 782.440345 
L 1185.253451 791.771949 
L 1195.813672 802.945112 
L 1205.338435 816.132572 
L 1213.720029 831.516422 
L 1220.844823 849.288404 
L 1226.593076 869.65022 
L 1230.838751 892.813832 
" clip-path="url(#p4d4e5a24e4)" style="fill: none; stroke: #8c564b; stroke-width: 1.5"/>
    <path d="M 261.271584 196.216142 
L 260.367294 226.513559 
L 260.07616 255.111389 
L 260.361135 282.225565 
L 261.190149 307.932757 
L 262.532069 332.307119 
L 264.356748 355.420317 
L 266.635068 377.341558 
L 269.338995 398.137613 
L 272.441628 417.872838 
L 275.917253 436.609182 
L 279.741394 454.406187 
L 283.890857 471.320983 
L 288.343768 487.408263 
L 293.079601 502.720261 
L 298.079194 517.306714 
L 303.324745 531.214823 
L 308.7998 544.489222 
L 314.489223 557.171942 
L 320.379151 569.302393 
L 326.456943 580.917352 
L 332.711118 592.050972 
L 339.131296 602.734807 
L 345.708131 612.997847 
L 352.433254 622.866581 
L 359.299223 632.365062 
L 366.29947 641.514992 
L 373.428272 650.335809 
L 380.680709 658.844787 
L 388.052649 667.057139 
L 395.540729 674.986117 
L 403.142335 682.643123 
L 410.855598 690.037812 
L 418.679386 697.178199 
L 426.613295 704.070769 
L 434.657645 710.720576 
L 442.813475 717.131352 
L 451.082536 723.305609 
L 459.467288 729.244742 
L 467.97089 734.949126 
L 476.597194 740.418216 
L 485.350731 745.650644 
L 494.236704 750.644304 
L 503.260966 755.396442 
L 512.429996 759.903739 
L 521.750874 764.162386 
L 531.231237 768.168158 
L 540.879227 771.916483 
L 550.703432 775.40251 
L 560.712804 778.62118 
L 570.916567 781.567296 
L 581.324113 784.235604 
L 591.944877 786.620876 
L 602.788215 788.718016 
L 613.86326 790.522167 
L 625.178786 792.028845 
L 636.743066 793.234077 
L 648.563734 794.134565 
L 660.647657 794.727847 
L 673.000807 795.012482 
L 685.628157 794.988237 
L 698.533567 794.656277 
L 711.719698 794.019363 
L 725.18792 793.082044 
L 738.938233 791.850855 
L 752.969195 790.334511 
L 767.277843 788.544098 
L 781.859629 786.49327 
L 796.708348 784.198434 
L 811.81607 781.678944 
L 827.173077 778.957295 
L 842.76779 776.059316 
L 858.586713 773.014371 
L 874.61437 769.855564 
L 890.833254 766.619949 
L 907.207038 763.352102 
L 907.240531 763.345458 
L 923.728774 760.094643 
L 923.799781 760.080825 
L 940.374871 756.897689 
L 940.486972 756.876612 
L 957.11898 753.816398 
L 957.276597 753.788286 
L 973.932575 750.91117 
L 974.141146 750.876687 
L 990.784992 748.248001 
L 991.051184 748.208458 
L 1007.643493 745.898925 
L 1007.975432 745.856574 
L 1024.473356 743.942541 
L 1024.880862 743.901019 
L 1041.237959 742.464697 
L 1041.732737 742.429666 
L 1057.898823 741.559373 
L 1058.494505 741.539426 
L 1074.415501 741.329832 
L 1075.127362 741.337731 
L 1090.745138 741.890115 
L 1091.589142 741.944353 
L 1106.841364 743.366853 
L 1107.832036 743.493382 
L 1122.651997 745.901258 
L 1123.798438 746.134778 
L 1138.114905 749.650675 
L 1139.414429 750.034229 
L 1153.151471 754.788444 
L 1154.58129 755.369156 
L 1167.658115 761.499913 
L 1169.16781 762.318695 
L 1181.498592 769.972421 
L 1183.009131 771.047902 
L 1194.502839 780.379507 
L 1195.918243 781.69221 
L 1206.478464 792.865373 
L 1207.70972 794.353083 
L 1217.234483 807.540543 
L 1218.22443 809.111885 
L 1226.606025 824.495734 
L 1227.340664 826.055905 
L 1234.465458 843.827888 
L 1234.967286 845.301555 
L 1240.715539 865.663371 
L 1241.027051 867.004606 
L 1245.272727 890.168218 
" clip-path="url(#p4d4e5a24e4)" style="fill: none; stroke: #17becf; stroke-width: 1.5"/>
   </g>
   <g id="patch_3">
    <path d="M 180 930.465391 
L 180 160.334609 
" style="fill: none; stroke: #000000; stroke-width: 0.8; stroke-linejoin: miter; stroke-linecap: square"/>
   </g>
   <g id="patch_4">
    <path d="M 1296 930.465391 
L 1296 160.334609 
" style="fill: none; stroke: #000000; stroke-width: 0.8; stroke-linejoin: miter; stroke-linecap: square"/>
   </g>
   <g id="patch_5">
    <path d="M 180 930.465391 
L 1296 930.465391 
" style="fill: none; stroke: #000000; stroke-width: 0.8; stroke-linejoin: miter; stroke-linecap: square"/>
   </g>
   <g id="patch_6">
    <path d="M 180 160.334609 
L 1296 160.334609 
" style="fill: none; stroke: #000000; stroke-width: 0.8; stroke-linejoin: miter; stroke-linecap: square"/>
   </g>
  </g>
 </g>
 <defs>
  <clipPath id="p4d4e5a24e4">
   <rect x="180" y="160.334609" width="1116" height="770.130782"/>
  </clipPath>
 </defs>
</svg>
