<?xml version="1.0" encoding="utf-8" standalone="no"?>
<!DOCTYPE svg PUBLIC "-//W3C//DTD SVG 1.1//EN"
  "http://www.w3.org/Graphics/SVG/1.1/DTD/svg11.dtd">
<svg xmlns:xlink="http://www.w3.org/1999/xlink" width="1440pt" height="1080pt" viewBox="0 0 1440 1080" xmlns="http://www.w3.org/2000/svg" version="1.1">
 <metadata>
  <rdf:RDF xmlns:dc="http://purl.org/dc/elements/1.1/" xmlns:cc="http://creativecommons.org/ns#" xmlns:rdf="http://www.w3.org/1999/02/22-rdf-syntax-ns#">
   <cc:Work>
    <dc:type rdf:resource="http://purl.org/dc/dcmitype/StillImage"/>
    <dc:date>2023-12-11T12:06:36.189204</dc:date>
    <dc:format>image/svg+xml</dc:format>
    <dc:creator>
     <cc:Agent>
      <dc:title>Matplotlib v3.7.1, https://matplotlib.org/</dc:title>
     </cc:Agent>
    </dc:creator>
   </cc:Work>
  </rdf:RDF>
 </metadata>
 <defs>
  <style type="text/css">*{stroke-linejoin: round; stroke-linecap: butt}</style>
 </defs>
 <g id="figure_1">
  <g id="patch_1">
   <path d="M 0 1080 
L 1440 1080 
L 1440 0 
L 0 0 
z
" style="fill: #ffffff"/>
  </g>
  <g id="axes_1">
   <g id="patch_2">
    <path d="M 180 660.266106 
L 1296 660.266106 
L 1296 430.533894 
L 180 430.533894 
z
" style="fill: #ffffff"/>
   </g>
   <g id="matplotlib.axis_1">
    <g id="xtick_1">
     <g id="line2d_1">
      <defs>
       <path id="m6fed76bbcf" d="M 0 0 
L 0 3.5 
" style="stroke: #000000; stroke-width: 0.8"/>
      </defs>
      <g>
       <use xlink:href="#m6fed76bbcf" x="252.18424" y="660.266106" style="stroke: #000000; stroke-width: 0.8"/>
      </g>
     </g>
     <g id="text_1">
      <!-- 200 -->
      <g transform="translate(242.64049 674.864543) scale(0.1 -0.1)">
       <defs>
        <path id="DejaVuSans-32" d="M 1228 531 
L 3431 531 
L 3431 0 
L 469 0 
L 469 531 
Q 828 903 1448 1529 
Q 2069 2156 2228 2338 
Q 2531 2678 2651 2914 
Q 2772 3150 2772 3378 
Q 2772 3750 2511 3984 
Q 2250 4219 1831 4219 
Q 1534 4219 1204 4116 
Q 875 4013 500 3803 
L 500 4441 
Q 881 4594 1212 4672 
Q 1544 4750 1819 4750 
Q 2544 4750 2975 4387 
Q 3406 4025 3406 3419 
Q 3406 3131 3298 2873 
Q 3191 2616 2906 2266 
Q 2828 2175 2409 1742 
Q 1991 1309 1228 531 
z
" transform="scale(0.015625)"/>
        <path id="DejaVuSans-30" d="M 2034 4250 
Q 1547 4250 1301 3770 
Q 1056 3291 1056 2328 
Q 1056 1369 1301 889 
Q 1547 409 2034 409 
Q 2525 409 2770 889 
Q 3016 1369 3016 2328 
Q 3016 3291 2770 3770 
Q 2525 4250 2034 4250 
z
M 2034 4750 
Q 2819 4750 3233 4129 
Q 3647 3509 3647 2328 
Q 3647 1150 3233 529 
Q 2819 -91 2034 -91 
Q 1250 -91 836 529 
Q 422 1150 422 2328 
Q 422 3509 836 4129 
Q 1250 4750 2034 4750 
z
" transform="scale(0.015625)"/>
       </defs>
       <use xlink:href="#DejaVuSans-32"/>
       <use xlink:href="#DejaVuSans-30" x="63.623047"/>
       <use xlink:href="#DejaVuSans-30" x="127.246094"/>
      </g>
     </g>
    </g>
    <g id="xtick_2">
     <g id="line2d_2">
      <g>
       <use xlink:href="#m6fed76bbcf" x="421.862892" y="660.266106" style="stroke: #000000; stroke-width: 0.8"/>
      </g>
     </g>
     <g id="text_2">
      <!-- 400 -->
      <g transform="translate(412.319142 674.864543) scale(0.1 -0.1)">
       <defs>
        <path id="DejaVuSans-34" d="M 2419 4116 
L 825 1625 
L 2419 1625 
L 2419 4116 
z
M 2253 4666 
L 3047 4666 
L 3047 1625 
L 3713 1625 
L 3713 1100 
L 3047 1100 
L 3047 0 
L 2419 0 
L 2419 1100 
L 313 1100 
L 313 1709 
L 2253 4666 
z
" transform="scale(0.015625)"/>
       </defs>
       <use xlink:href="#DejaVuSans-34"/>
       <use xlink:href="#DejaVuSans-30" x="63.623047"/>
       <use xlink:href="#DejaVuSans-30" x="127.246094"/>
      </g>
     </g>
    </g>
    <g id="xtick_3">
     <g id="line2d_3">
      <g>
       <use xlink:href="#m6fed76bbcf" x="591.541544" y="660.266106" style="stroke: #000000; stroke-width: 0.8"/>
      </g>
     </g>
     <g id="text_3">
      <!-- 600 -->
      <g transform="translate(581.997794 674.864543) scale(0.1 -0.1)">
       <defs>
        <path id="DejaVuSans-36" d="M 2113 2584 
Q 1688 2584 1439 2293 
Q 1191 2003 1191 1497 
Q 1191 994 1439 701 
Q 1688 409 2113 409 
Q 2538 409 2786 701 
Q 3034 994 3034 1497 
Q 3034 2003 2786 2293 
Q 2538 2584 2113 2584 
z
M 3366 4563 
L 3366 3988 
Q 3128 4100 2886 4159 
Q 2644 4219 2406 4219 
Q 1781 4219 1451 3797 
Q 1122 3375 1075 2522 
Q 1259 2794 1537 2939 
Q 1816 3084 2150 3084 
Q 2853 3084 3261 2657 
Q 3669 2231 3669 1497 
Q 3669 778 3244 343 
Q 2819 -91 2113 -91 
Q 1303 -91 875 529 
Q 447 1150 447 2328 
Q 447 3434 972 4092 
Q 1497 4750 2381 4750 
Q 2619 4750 2861 4703 
Q 3103 4656 3366 4563 
z
" transform="scale(0.015625)"/>
       </defs>
       <use xlink:href="#DejaVuSans-36"/>
       <use xlink:href="#DejaVuSans-30" x="63.623047"/>
       <use xlink:href="#DejaVuSans-30" x="127.246094"/>
      </g>
     </g>
    </g>
    <g id="xtick_4">
     <g id="line2d_4">
      <g>
       <use xlink:href="#m6fed76bbcf" x="761.220196" y="660.266106" style="stroke: #000000; stroke-width: 0.8"/>
      </g>
     </g>
     <g id="text_4">
      <!-- 800 -->
      <g transform="translate(751.676446 674.864543) scale(0.1 -0.1)">
       <defs>
        <path id="DejaVuSans-38" d="M 2034 2216 
Q 1584 2216 1326 1975 
Q 1069 1734 1069 1313 
Q 1069 891 1326 650 
Q 1584 409 2034 409 
Q 2484 409 2743 651 
Q 3003 894 3003 1313 
Q 3003 1734 2745 1975 
Q 2488 2216 2034 2216 
z
M 1403 2484 
Q 997 2584 770 2862 
Q 544 3141 544 3541 
Q 544 4100 942 4425 
Q 1341 4750 2034 4750 
Q 2731 4750 3128 4425 
Q 3525 4100 3525 3541 
Q 3525 3141 3298 2862 
Q 3072 2584 2669 2484 
Q 3125 2378 3379 2068 
Q 3634 1759 3634 1313 
Q 3634 634 3220 271 
Q 2806 -91 2034 -91 
Q 1263 -91 848 271 
Q 434 634 434 1313 
Q 434 1759 690 2068 
Q 947 2378 1403 2484 
z
M 1172 3481 
Q 1172 3119 1398 2916 
Q 1625 2713 2034 2713 
Q 2441 2713 2670 2916 
Q 2900 3119 2900 3481 
Q 2900 3844 2670 4047 
Q 2441 4250 2034 4250 
Q 1625 4250 1398 4047 
Q 1172 3844 1172 3481 
z
" transform="scale(0.015625)"/>
       </defs>
       <use xlink:href="#DejaVuSans-38"/>
       <use xlink:href="#DejaVuSans-30" x="63.623047"/>
       <use xlink:href="#DejaVuSans-30" x="127.246094"/>
      </g>
     </g>
    </g>
    <g id="xtick_5">
     <g id="line2d_5">
      <g>
       <use xlink:href="#m6fed76bbcf" x="930.898848" y="660.266106" style="stroke: #000000; stroke-width: 0.8"/>
      </g>
     </g>
     <g id="text_5">
      <!-- 1000 -->
      <g transform="translate(918.173848 674.864543) scale(0.1 -0.1)">
       <defs>
        <path id="DejaVuSans-31" d="M 794 531 
L 1825 531 
L 1825 4091 
L 703 3866 
L 703 4441 
L 1819 4666 
L 2450 4666 
L 2450 531 
L 3481 531 
L 3481 0 
L 794 0 
L 794 531 
z
" transform="scale(0.015625)"/>
       </defs>
       <use xlink:href="#DejaVuSans-31"/>
       <use xlink:href="#DejaVuSans-30" x="63.623047"/>
       <use xlink:href="#DejaVuSans-30" x="127.246094"/>
       <use xlink:href="#DejaVuSans-30" x="190.869141"/>
      </g>
     </g>
    </g>
    <g id="xtick_6">
     <g id="line2d_6">
      <g>
       <use xlink:href="#m6fed76bbcf" x="1100.5775" y="660.266106" style="stroke: #000000; stroke-width: 0.8"/>
      </g>
     </g>
     <g id="text_6">
      <!-- 1200 -->
      <g transform="translate(1087.8525 674.864543) scale(0.1 -0.1)">
       <use xlink:href="#DejaVuSans-31"/>
       <use xlink:href="#DejaVuSans-32" x="63.623047"/>
       <use xlink:href="#DejaVuSans-30" x="127.246094"/>
       <use xlink:href="#DejaVuSans-30" x="190.869141"/>
      </g>
     </g>
    </g>
    <g id="xtick_7">
     <g id="line2d_7">
      <g>
       <use xlink:href="#m6fed76bbcf" x="1270.256152" y="660.266106" style="stroke: #000000; stroke-width: 0.8"/>
      </g>
     </g>
     <g id="text_7">
      <!-- 1400 -->
      <g transform="translate(1257.531152 674.864543) scale(0.1 -0.1)">
       <use xlink:href="#DejaVuSans-31"/>
       <use xlink:href="#DejaVuSans-34" x="63.623047"/>
       <use xlink:href="#DejaVuSans-30" x="127.246094"/>
       <use xlink:href="#DejaVuSans-30" x="190.869141"/>
      </g>
     </g>
    </g>
   </g>
   <g id="matplotlib.axis_2">
    <g id="ytick_1">
     <g id="line2d_8">
      <defs>
       <path id="m19795ed662" d="M 0 0 
L -3.5 0 
" style="stroke: #000000; stroke-width: 0.8"/>
      </defs>
      <g>
       <use xlink:href="#m19795ed662" x="180" y="635.602322" style="stroke: #000000; stroke-width: 0.8"/>
      </g>
     </g>
     <g id="text_8">
      <!-- 800 -->
      <g transform="translate(153.9125 639.401541) scale(0.1 -0.1)">
       <use xlink:href="#DejaVuSans-38"/>
       <use xlink:href="#DejaVuSans-30" x="63.623047"/>
       <use xlink:href="#DejaVuSans-30" x="127.246094"/>
      </g>
     </g>
    </g>
    <g id="ytick_2">
     <g id="line2d_9">
      <g>
       <use xlink:href="#m19795ed662" x="180" y="593.182659" style="stroke: #000000; stroke-width: 0.8"/>
      </g>
     </g>
     <g id="text_9">
      <!-- 850 -->
      <g transform="translate(153.9125 596.981878) scale(0.1 -0.1)">
       <defs>
        <path id="DejaVuSans-35" d="M 691 4666 
L 3169 4666 
L 3169 4134 
L 1269 4134 
L 1269 2991 
Q 1406 3038 1543 3061 
Q 1681 3084 1819 3084 
Q 2600 3084 3056 2656 
Q 3513 2228 3513 1497 
Q 3513 744 3044 326 
Q 2575 -91 1722 -91 
Q 1428 -91 1123 -41 
Q 819 9 494 109 
L 494 744 
Q 775 591 1075 516 
Q 1375 441 1709 441 
Q 2250 441 2565 725 
Q 2881 1009 2881 1497 
Q 2881 1984 2565 2268 
Q 2250 2553 1709 2553 
Q 1456 2553 1204 2497 
Q 953 2441 691 2322 
L 691 4666 
z
" transform="scale(0.015625)"/>
       </defs>
       <use xlink:href="#DejaVuSans-38"/>
       <use xlink:href="#DejaVuSans-35" x="63.623047"/>
       <use xlink:href="#DejaVuSans-30" x="127.246094"/>
      </g>
     </g>
    </g>
    <g id="ytick_3">
     <g id="line2d_10">
      <g>
       <use xlink:href="#m19795ed662" x="180" y="550.762996" style="stroke: #000000; stroke-width: 0.8"/>
      </g>
     </g>
     <g id="text_10">
      <!-- 900 -->
      <g transform="translate(153.9125 554.562215) scale(0.1 -0.1)">
       <defs>
        <path id="DejaVuSans-39" d="M 703 97 
L 703 672 
Q 941 559 1184 500 
Q 1428 441 1663 441 
Q 2288 441 2617 861 
Q 2947 1281 2994 2138 
Q 2813 1869 2534 1725 
Q 2256 1581 1919 1581 
Q 1219 1581 811 2004 
Q 403 2428 403 3163 
Q 403 3881 828 4315 
Q 1253 4750 1959 4750 
Q 2769 4750 3195 4129 
Q 3622 3509 3622 2328 
Q 3622 1225 3098 567 
Q 2575 -91 1691 -91 
Q 1453 -91 1209 -44 
Q 966 3 703 97 
z
M 1959 2075 
Q 2384 2075 2632 2365 
Q 2881 2656 2881 3163 
Q 2881 3666 2632 3958 
Q 2384 4250 1959 4250 
Q 1534 4250 1286 3958 
Q 1038 3666 1038 3163 
Q 1038 2656 1286 2365 
Q 1534 2075 1959 2075 
z
" transform="scale(0.015625)"/>
       </defs>
       <use xlink:href="#DejaVuSans-39"/>
       <use xlink:href="#DejaVuSans-30" x="63.623047"/>
       <use xlink:href="#DejaVuSans-30" x="127.246094"/>
      </g>
     </g>
    </g>
    <g id="ytick_4">
     <g id="line2d_11">
      <g>
       <use xlink:href="#m19795ed662" x="180" y="508.343333" style="stroke: #000000; stroke-width: 0.8"/>
      </g>
     </g>
     <g id="text_11">
      <!-- 950 -->
      <g transform="translate(153.9125 512.142552) scale(0.1 -0.1)">
       <use xlink:href="#DejaVuSans-39"/>
       <use xlink:href="#DejaVuSans-35" x="63.623047"/>
       <use xlink:href="#DejaVuSans-30" x="127.246094"/>
      </g>
     </g>
    </g>
    <g id="ytick_5">
     <g id="line2d_12">
      <g>
       <use xlink:href="#m19795ed662" x="180" y="465.92367" style="stroke: #000000; stroke-width: 0.8"/>
      </g>
     </g>
     <g id="text_12">
      <!-- 1000 -->
      <g transform="translate(147.55 469.722889) scale(0.1 -0.1)">
       <use xlink:href="#DejaVuSans-31"/>
       <use xlink:href="#DejaVuSans-30" x="63.623047"/>
       <use xlink:href="#DejaVuSans-30" x="127.246094"/>
       <use xlink:href="#DejaVuSans-30" x="190.869141"/>
      </g>
     </g>
    </g>
   </g>
   <g id="LineCollection_1">
    <path d="M 243.099051 649.823733 
L 256.259738 640.905819 
L 269.004868 631.934779 
L 293.421092 614.271475 
L 316.667441 597.535535 
L 327.906661 589.69208 
L 338.922167 582.260516 
L 349.73493 575.27366 
L 360.363896 568.754448 
L 370.8264 562.716916 
L 381.138533 557.167167 
L 391.315428 552.104355 
L 401.371473 547.521649 
L 411.320426 543.407182 
L 421.17543 539.74495 
L 430.948944 536.51563 
L 440.65261 533.697303 
L 450.297085 531.266057 
L 459.891883 529.196478 
L 469.44525 527.462026 
L 478.964101 526.035343 
L 488.454014 524.888487 
L 497.919295 523.993149 
L 507.363081 523.320842 
L 516.787491 522.843096 
L 526.193776 522.531661 
L 544.953588 522.297003 
L 563.640959 522.402815 
L 610.030692 522.911324 
L 628.416756 522.799529 
L 646.686897 522.33046 
L 655.776165 521.937086 
L 664.833973 521.428469 
L 673.859882 520.799987 
L 682.853693 520.048871 
L 691.815477 519.174126 
L 700.745603 518.176438 
L 709.644757 517.058069 
L 718.513964 515.822737 
L 736.168373 513.022538 
L 753.724017 509.829575 
L 771.201554 506.311976 
L 788.626709 502.547664 
L 814.733463 496.621271 
L 849.693469 488.629907 
L 867.319716 484.772339 
L 885.099638 481.096993 
L 903.079247 477.659454 
L 921.306478 474.505452 
L 939.83098 471.671642 
L 958.704021 469.187447 
L 977.978577 467.078103 
L 987.783532 466.171787 
L 997.709714 465.369026 
L 1007.764462 464.673983 
L 1017.955369 464.091654 
L 1028.290338 463.628137 
L 1038.777647 463.290941 
L 1049.426024 463.089317 
L 1060.244737 463.03462 
L 1071.243699 463.140705 
L 1082.433588 463.424355 
L 1093.825985 463.90574 
L 1105.433535 464.608913 
L 1117.270133 465.562351 
L 1129.351132 466.79953 
L 1141.693581 468.359558 
L 1154.316491 470.287864 
L 1167.241124 472.636958 
L 1180.491301 475.467263 
L 1194.093704 478.848044 
L 1208.078175 482.858428 
L 1222.477967 487.588511 
L 1237.548835 493.222396 
L 1237.548835 493.222396 
" clip-path="url(#pe486cce087)" style="fill: none; stroke: #1f77b4; stroke-width: 1.5"/>
    <path d="M 236.913162 640.692681 
L 249.911866 631.886626 
L 262.560039 622.984611 
L 274.892885 614.103986 
L 286.94237 605.345808 
L 298.737439 596.796082 
L 310.304223 588.526944 
L 321.666234 580.597798 
L 332.844559 573.056389 
L 343.858036 565.939838 
L 354.723428 559.275615 
L 365.45559 553.082473 
L 376.067621 547.371327 
L 386.571016 542.146087 
L 396.975806 537.404452 
L 407.290694 533.13865 
L 417.523178 529.336142 
L 427.679674 525.980279 
L 437.765628 523.05092 
L 447.785624 520.525011 
L 457.743479 518.37712 
L 467.642346 516.579942 
L 477.48479 515.104758 
L 487.272882 513.921868 
L 497.008265 513.000981 
L 506.692231 512.311574 
L 516.325786 511.823227 
L 525.909705 511.505911 
L 535.444595 511.330258 
L 544.93094 511.2678 
L 554.369148 511.291178 
L 563.759595 511.374321 
L 573.10266 511.492608 
L 582.398758 511.622998 
L 591.648373 511.744142 
L 600.852079 511.836463 
L 610.010567 511.88223 
L 619.124658 511.865599 
L 628.195327 511.772639 
L 637.22371 511.591342 
L 646.211116 511.311614 
L 655.159033 510.925253 
L 664.069138 510.425908 
L 672.943296 509.809027 
L 681.783562 509.071798 
L 690.59218 508.213064 
L 699.371582 507.233249 
L 708.124384 506.134252 
L 716.853378 504.919353 
L 725.56153 503.593101 
L 734.25197 502.161198 
L 742.927986 500.630379 
L 751.593013 499.008293 
L 760.250627 497.303373 
L 768.904535 495.524714 
L 777.558566 493.681942 
L 786.216662 491.785091 
L 794.882869 489.844479 
L 803.561331 487.87059 
L 812.256282 485.873951 
L 820.972041 483.865031 
L 829.713003 481.854129 
L 838.483639 479.851282 
L 847.288494 477.866178 
L 856.132184 475.908073 
L 865.019398 473.985732 
L 873.954901 472.107368 
L 882.943541 470.280604 
L 891.990255 468.512445 
L 901.100081 466.809266 
L 910.278168 465.176818 
L 919.529796 463.62025 
L 928.860392 462.14415 
L 938.275557 460.752607 
L 947.781084 459.449293 
L 957.382997 458.237567 
L 967.087577 457.120603 
L 976.901406 456.101542 
L 986.831401 455.183667 
L 996.884867 454.370612 
L 1007.069547 453.666588 
L 1017.393672 453.076646 
L 1027.866029 452.606968 
L 1038.496021 452.265184 
L 1049.29374 452.060733 
L 1060.270044 452.005239 
L 1071.436639 452.112941 
L 1082.806166 452.401144 
L 1094.392296 452.890715 
L 1106.20983 453.606609 
L 1118.274806 454.578443 
L 1130.604611 455.841101 
L 1143.218104 457.435388 
L 1156.135741 459.408717 
L 1169.379709 461.815851 
L 1182.974069 464.719675 
L 1196.944905 468.192028 
L 1211.320478 472.314569 
L 1226.131395 477.179701 
L 1241.410781 482.891535 
" clip-path="url(#pe486cce087)" style="fill: none; stroke: #8c564b; stroke-width: 1.5"/>
    <path d="M 230.727273 631.56163 
L 243.644486 622.810782 
L 256.163502 613.99967 
L 280.469481 596.415912 
L 303.99241 579.482479 
L 315.497971 571.454831 
L 326.8588 563.792912 
L 338.091628 556.538249 
L 349.210925 549.722939 
L 360.228835 543.370504 
L 371.155161 537.496659 
L 381.997398 532.109985 
L 392.760853 527.212519 
L 403.448844 522.800298 
L 414.062979 518.863876 
L 424.603504 515.388844 
L 435.069675 512.356381 
L 445.460147 509.743848 
L 455.773308 507.525404 
L 466.007564 505.67266 
L 476.161551 504.155313 
L 486.234254 502.941769 
L 496.225079 501.999711 
L 506.133857 501.296606 
L 515.96082 500.800155 
L 525.70656 500.478669 
L 535.371982 500.301384 
L 554.466796 500.262497 
L 582.548319 500.594899 
L 610.028062 500.853068 
L 628.028096 500.744661 
L 645.801656 500.289905 
L 654.612554 499.90946 
L 663.378124 499.418215 
L 672.102546 498.811744 
L 680.790155 498.087245 
L 689.44541 497.243462 
L 698.072862 496.280605 
L 706.677122 495.200259 
L 715.262833 494.005303 
L 732.397176 491.288987 
L 749.51277 488.177015 
L 766.645784 484.729303 
L 783.831464 481.016953 
L 809.783495 475.125618 
L 844.904252 467.097858 
L 862.750517 463.192516 
L 880.827955 459.456297 
L 899.168715 455.950576 
L 917.806423 452.726614 
L 936.777359 449.825726 
L 956.121909 447.28079 
L 975.762275 445.131414 
L 985.942344 444.190447 
L 996.124286 443.367756 
L 1006.440347 442.655438 
L 1016.89952 442.058609 
L 1027.511596 441.583552 
L 1038.287225 441.238049 
L 1049.237979 441.031761 
L 1060.376415 440.976639 
L 1071.716124 441.08737 
L 1083.271785 441.381865 
L 1095.059206 441.881784 
L 1107.095357 442.613104 
L 1119.398388 443.606712 
L 1131.987636 444.899046 
L 1144.883617 446.532756 
L 1158.108006 448.557382 
L 1171.68361 451.030057 
L 1185.634341 454.016205 
L 1199.985221 457.590245 
L 1214.762413 461.836287 
L 1229.993342 466.84884 
L 1245.272727 472.560674 
L 1245.272727 472.560674 
" clip-path="url(#pe486cce087)" style="fill: none; stroke: #17becf; stroke-width: 1.5"/>
   </g>
   <g id="patch_3">
    <path d="M 180 660.266106 
L 180 430.533894 
" style="fill: none; stroke: #000000; stroke-width: 0.8; stroke-linejoin: miter; stroke-linecap: square"/>
   </g>
   <g id="patch_4">
    <path d="M 1296 660.266106 
L 1296 430.533894 
" style="fill: none; stroke: #000000; stroke-width: 0.8; stroke-linejoin: miter; stroke-linecap: square"/>
   </g>
   <g id="patch_5">
    <path d="M 180 660.266106 
L 1296 660.266106 
" style="fill: none; stroke: #000000; stroke-width: 0.8; stroke-linejoin: miter; stroke-linecap: square"/>
   </g>
   <g id="patch_6">
    <path d="M 180 430.533894 
L 1296 430.533894 
" style="fill: none; stroke: #000000; stroke-width: 0.8; stroke-linejoin: miter; stroke-linecap: square"/>
   </g>
  </g>
 </g>
 <defs>
  <clipPath id="pe486cce087">
   <rect x="180" y="430.533894" width="1116" height="229.732212"/>
  </clipPath>
 </defs>
</svg>
