<?xml version="1.0" encoding="utf-8" standalone="no"?>
<!DOCTYPE svg PUBLIC "-//W3C//DTD SVG 1.1//EN"
  "http://www.w3.org/Graphics/SVG/1.1/DTD/svg11.dtd">
<svg xmlns:xlink="http://www.w3.org/1999/xlink" width="1440pt" height="1080pt" viewBox="0 0 1440 1080" xmlns="http://www.w3.org/2000/svg" version="1.1">
 <metadata>
  <rdf:RDF xmlns:dc="http://purl.org/dc/elements/1.1/" xmlns:cc="http://creativecommons.org/ns#" xmlns:rdf="http://www.w3.org/1999/02/22-rdf-syntax-ns#">
   <cc:Work>
    <dc:type rdf:resource="http://purl.org/dc/dcmitype/StillImage"/>
    <dc:date>2023-12-11T12:07:04.971141</dc:date>
    <dc:format>image/svg+xml</dc:format>
    <dc:creator>
     <cc:Agent>
      <dc:title>Matplotlib v3.7.1, https://matplotlib.org/</dc:title>
     </cc:Agent>
    </dc:creator>
   </cc:Work>
  </rdf:RDF>
 </metadata>
 <defs>
  <style type="text/css">*{stroke-linejoin: round; stroke-linecap: butt}</style>
 </defs>
 <g id="figure_1">
  <g id="patch_1">
   <path d="M 0 1080 
L 1440 1080 
L 1440 0 
L 0 0 
z
" style="fill: #ffffff"/>
  </g>
  <g id="axes_1">
   <g id="patch_2">
    <path d="M 180 735.102742 
L 1296 735.102742 
L 1296 355.697258 
L 180 355.697258 
z
" style="fill: #ffffff"/>
   </g>
   <g id="matplotlib.axis_1">
    <g id="xtick_1">
     <g id="line2d_1">
      <defs>
       <path id="m741a2630c2" d="M 0 0 
L 0 3.5 
" style="stroke: #000000; stroke-width: 0.8"/>
      </defs>
      <g>
       <use xlink:href="#m741a2630c2" x="262.992002" y="735.102742" style="stroke: #000000; stroke-width: 0.8"/>
      </g>
     </g>
     <g id="text_1">
      <!-- 600 -->
      <g transform="translate(253.448252 749.70118) scale(0.1 -0.1)">
       <defs>
        <path id="DejaVuSans-36" d="M 2113 2584 
Q 1688 2584 1439 2293 
Q 1191 2003 1191 1497 
Q 1191 994 1439 701 
Q 1688 409 2113 409 
Q 2538 409 2786 701 
Q 3034 994 3034 1497 
Q 3034 2003 2786 2293 
Q 2538 2584 2113 2584 
z
M 3366 4563 
L 3366 3988 
Q 3128 4100 2886 4159 
Q 2644 4219 2406 4219 
Q 1781 4219 1451 3797 
Q 1122 3375 1075 2522 
Q 1259 2794 1537 2939 
Q 1816 3084 2150 3084 
Q 2853 3084 3261 2657 
Q 3669 2231 3669 1497 
Q 3669 778 3244 343 
Q 2819 -91 2113 -91 
Q 1303 -91 875 529 
Q 447 1150 447 2328 
Q 447 3434 972 4092 
Q 1497 4750 2381 4750 
Q 2619 4750 2861 4703 
Q 3103 4656 3366 4563 
z
" transform="scale(0.015625)"/>
        <path id="DejaVuSans-30" d="M 2034 4250 
Q 1547 4250 1301 3770 
Q 1056 3291 1056 2328 
Q 1056 1369 1301 889 
Q 1547 409 2034 409 
Q 2525 409 2770 889 
Q 3016 1369 3016 2328 
Q 3016 3291 2770 3770 
Q 2525 4250 2034 4250 
z
M 2034 4750 
Q 2819 4750 3233 4129 
Q 3647 3509 3647 2328 
Q 3647 1150 3233 529 
Q 2819 -91 2034 -91 
Q 1250 -91 836 529 
Q 422 1150 422 2328 
Q 422 3509 836 4129 
Q 1250 4750 2034 4750 
z
" transform="scale(0.015625)"/>
       </defs>
       <use xlink:href="#DejaVuSans-36"/>
       <use xlink:href="#DejaVuSans-30" x="63.623047"/>
       <use xlink:href="#DejaVuSans-30" x="127.246094"/>
      </g>
     </g>
    </g>
    <g id="xtick_2">
     <g id="line2d_2">
      <g>
       <use xlink:href="#m741a2630c2" x="447.81155" y="735.102742" style="stroke: #000000; stroke-width: 0.8"/>
      </g>
     </g>
     <g id="text_2">
      <!-- 800 -->
      <g transform="translate(438.2678 749.70118) scale(0.1 -0.1)">
       <defs>
        <path id="DejaVuSans-38" d="M 2034 2216 
Q 1584 2216 1326 1975 
Q 1069 1734 1069 1313 
Q 1069 891 1326 650 
Q 1584 409 2034 409 
Q 2484 409 2743 651 
Q 3003 894 3003 1313 
Q 3003 1734 2745 1975 
Q 2488 2216 2034 2216 
z
M 1403 2484 
Q 997 2584 770 2862 
Q 544 3141 544 3541 
Q 544 4100 942 4425 
Q 1341 4750 2034 4750 
Q 2731 4750 3128 4425 
Q 3525 4100 3525 3541 
Q 3525 3141 3298 2862 
Q 3072 2584 2669 2484 
Q 3125 2378 3379 2068 
Q 3634 1759 3634 1313 
Q 3634 634 3220 271 
Q 2806 -91 2034 -91 
Q 1263 -91 848 271 
Q 434 634 434 1313 
Q 434 1759 690 2068 
Q 947 2378 1403 2484 
z
M 1172 3481 
Q 1172 3119 1398 2916 
Q 1625 2713 2034 2713 
Q 2441 2713 2670 2916 
Q 2900 3119 2900 3481 
Q 2900 3844 2670 4047 
Q 2441 4250 2034 4250 
Q 1625 4250 1398 4047 
Q 1172 3844 1172 3481 
z
" transform="scale(0.015625)"/>
       </defs>
       <use xlink:href="#DejaVuSans-38"/>
       <use xlink:href="#DejaVuSans-30" x="63.623047"/>
       <use xlink:href="#DejaVuSans-30" x="127.246094"/>
      </g>
     </g>
    </g>
    <g id="xtick_3">
     <g id="line2d_3">
      <g>
       <use xlink:href="#m741a2630c2" x="632.631099" y="735.102742" style="stroke: #000000; stroke-width: 0.8"/>
      </g>
     </g>
     <g id="text_3">
      <!-- 1000 -->
      <g transform="translate(619.906099 749.70118) scale(0.1 -0.1)">
       <defs>
        <path id="DejaVuSans-31" d="M 794 531 
L 1825 531 
L 1825 4091 
L 703 3866 
L 703 4441 
L 1819 4666 
L 2450 4666 
L 2450 531 
L 3481 531 
L 3481 0 
L 794 0 
L 794 531 
z
" transform="scale(0.015625)"/>
       </defs>
       <use xlink:href="#DejaVuSans-31"/>
       <use xlink:href="#DejaVuSans-30" x="63.623047"/>
       <use xlink:href="#DejaVuSans-30" x="127.246094"/>
       <use xlink:href="#DejaVuSans-30" x="190.869141"/>
      </g>
     </g>
    </g>
    <g id="xtick_4">
     <g id="line2d_4">
      <g>
       <use xlink:href="#m741a2630c2" x="817.450648" y="735.102742" style="stroke: #000000; stroke-width: 0.8"/>
      </g>
     </g>
     <g id="text_4">
      <!-- 1200 -->
      <g transform="translate(804.725648 749.70118) scale(0.1 -0.1)">
       <defs>
        <path id="DejaVuSans-32" d="M 1228 531 
L 3431 531 
L 3431 0 
L 469 0 
L 469 531 
Q 828 903 1448 1529 
Q 2069 2156 2228 2338 
Q 2531 2678 2651 2914 
Q 2772 3150 2772 3378 
Q 2772 3750 2511 3984 
Q 2250 4219 1831 4219 
Q 1534 4219 1204 4116 
Q 875 4013 500 3803 
L 500 4441 
Q 881 4594 1212 4672 
Q 1544 4750 1819 4750 
Q 2544 4750 2975 4387 
Q 3406 4025 3406 3419 
Q 3406 3131 3298 2873 
Q 3191 2616 2906 2266 
Q 2828 2175 2409 1742 
Q 1991 1309 1228 531 
z
" transform="scale(0.015625)"/>
       </defs>
       <use xlink:href="#DejaVuSans-31"/>
       <use xlink:href="#DejaVuSans-32" x="63.623047"/>
       <use xlink:href="#DejaVuSans-30" x="127.246094"/>
       <use xlink:href="#DejaVuSans-30" x="190.869141"/>
      </g>
     </g>
    </g>
    <g id="xtick_5">
     <g id="line2d_5">
      <g>
       <use xlink:href="#m741a2630c2" x="1002.270196" y="735.102742" style="stroke: #000000; stroke-width: 0.8"/>
      </g>
     </g>
     <g id="text_5">
      <!-- 1400 -->
      <g transform="translate(989.545196 749.70118) scale(0.1 -0.1)">
       <defs>
        <path id="DejaVuSans-34" d="M 2419 4116 
L 825 1625 
L 2419 1625 
L 2419 4116 
z
M 2253 4666 
L 3047 4666 
L 3047 1625 
L 3713 1625 
L 3713 1100 
L 3047 1100 
L 3047 0 
L 2419 0 
L 2419 1100 
L 313 1100 
L 313 1709 
L 2253 4666 
z
" transform="scale(0.015625)"/>
       </defs>
       <use xlink:href="#DejaVuSans-31"/>
       <use xlink:href="#DejaVuSans-34" x="63.623047"/>
       <use xlink:href="#DejaVuSans-30" x="127.246094"/>
       <use xlink:href="#DejaVuSans-30" x="190.869141"/>
      </g>
     </g>
    </g>
    <g id="xtick_6">
     <g id="line2d_6">
      <g>
       <use xlink:href="#m741a2630c2" x="1187.089745" y="735.102742" style="stroke: #000000; stroke-width: 0.8"/>
      </g>
     </g>
     <g id="text_6">
      <!-- 1600 -->
      <g transform="translate(1174.364745 749.70118) scale(0.1 -0.1)">
       <use xlink:href="#DejaVuSans-31"/>
       <use xlink:href="#DejaVuSans-36" x="63.623047"/>
       <use xlink:href="#DejaVuSans-30" x="127.246094"/>
       <use xlink:href="#DejaVuSans-30" x="190.869141"/>
      </g>
     </g>
    </g>
   </g>
   <g id="matplotlib.axis_2">
    <g id="ytick_1">
     <g id="line2d_7">
      <defs>
       <path id="m091e39ce5e" d="M 0 0 
L -3.5 0 
" style="stroke: #000000; stroke-width: 0.8"/>
      </defs>
      <g>
       <use xlink:href="#m091e39ce5e" x="180" y="713.454621" style="stroke: #000000; stroke-width: 0.8"/>
      </g>
     </g>
     <g id="text_7">
      <!-- 1250 -->
      <g transform="translate(147.55 717.25384) scale(0.1 -0.1)">
       <defs>
        <path id="DejaVuSans-35" d="M 691 4666 
L 3169 4666 
L 3169 4134 
L 1269 4134 
L 1269 2991 
Q 1406 3038 1543 3061 
Q 1681 3084 1819 3084 
Q 2600 3084 3056 2656 
Q 3513 2228 3513 1497 
Q 3513 744 3044 326 
Q 2575 -91 1722 -91 
Q 1428 -91 1123 -41 
Q 819 9 494 109 
L 494 744 
Q 775 591 1075 516 
Q 1375 441 1709 441 
Q 2250 441 2565 725 
Q 2881 1009 2881 1497 
Q 2881 1984 2565 2268 
Q 2250 2553 1709 2553 
Q 1456 2553 1204 2497 
Q 953 2441 691 2322 
L 691 4666 
z
" transform="scale(0.015625)"/>
       </defs>
       <use xlink:href="#DejaVuSans-31"/>
       <use xlink:href="#DejaVuSans-32" x="63.623047"/>
       <use xlink:href="#DejaVuSans-35" x="127.246094"/>
       <use xlink:href="#DejaVuSans-30" x="190.869141"/>
      </g>
     </g>
    </g>
    <g id="ytick_2">
     <g id="line2d_8">
      <g>
       <use xlink:href="#m091e39ce5e" x="180" y="667.249734" style="stroke: #000000; stroke-width: 0.8"/>
      </g>
     </g>
     <g id="text_8">
      <!-- 1300 -->
      <g transform="translate(147.55 671.048953) scale(0.1 -0.1)">
       <defs>
        <path id="DejaVuSans-33" d="M 2597 2516 
Q 3050 2419 3304 2112 
Q 3559 1806 3559 1356 
Q 3559 666 3084 287 
Q 2609 -91 1734 -91 
Q 1441 -91 1130 -33 
Q 819 25 488 141 
L 488 750 
Q 750 597 1062 519 
Q 1375 441 1716 441 
Q 2309 441 2620 675 
Q 2931 909 2931 1356 
Q 2931 1769 2642 2001 
Q 2353 2234 1838 2234 
L 1294 2234 
L 1294 2753 
L 1863 2753 
Q 2328 2753 2575 2939 
Q 2822 3125 2822 3475 
Q 2822 3834 2567 4026 
Q 2313 4219 1838 4219 
Q 1578 4219 1281 4162 
Q 984 4106 628 3988 
L 628 4550 
Q 988 4650 1302 4700 
Q 1616 4750 1894 4750 
Q 2613 4750 3031 4423 
Q 3450 4097 3450 3541 
Q 3450 3153 3228 2886 
Q 3006 2619 2597 2516 
z
" transform="scale(0.015625)"/>
       </defs>
       <use xlink:href="#DejaVuSans-31"/>
       <use xlink:href="#DejaVuSans-33" x="63.623047"/>
       <use xlink:href="#DejaVuSans-30" x="127.246094"/>
       <use xlink:href="#DejaVuSans-30" x="190.869141"/>
      </g>
     </g>
    </g>
    <g id="ytick_3">
     <g id="line2d_9">
      <g>
       <use xlink:href="#m091e39ce5e" x="180" y="621.044847" style="stroke: #000000; stroke-width: 0.8"/>
      </g>
     </g>
     <g id="text_9">
      <!-- 1350 -->
      <g transform="translate(147.55 624.844066) scale(0.1 -0.1)">
       <use xlink:href="#DejaVuSans-31"/>
       <use xlink:href="#DejaVuSans-33" x="63.623047"/>
       <use xlink:href="#DejaVuSans-35" x="127.246094"/>
       <use xlink:href="#DejaVuSans-30" x="190.869141"/>
      </g>
     </g>
    </g>
    <g id="ytick_4">
     <g id="line2d_10">
      <g>
       <use xlink:href="#m091e39ce5e" x="180" y="574.83996" style="stroke: #000000; stroke-width: 0.8"/>
      </g>
     </g>
     <g id="text_10">
      <!-- 1400 -->
      <g transform="translate(147.55 578.639179) scale(0.1 -0.1)">
       <use xlink:href="#DejaVuSans-31"/>
       <use xlink:href="#DejaVuSans-34" x="63.623047"/>
       <use xlink:href="#DejaVuSans-30" x="127.246094"/>
       <use xlink:href="#DejaVuSans-30" x="190.869141"/>
      </g>
     </g>
    </g>
    <g id="ytick_5">
     <g id="line2d_11">
      <g>
       <use xlink:href="#m091e39ce5e" x="180" y="528.635073" style="stroke: #000000; stroke-width: 0.8"/>
      </g>
     </g>
     <g id="text_11">
      <!-- 1450 -->
      <g transform="translate(147.55 532.434292) scale(0.1 -0.1)">
       <use xlink:href="#DejaVuSans-31"/>
       <use xlink:href="#DejaVuSans-34" x="63.623047"/>
       <use xlink:href="#DejaVuSans-35" x="127.246094"/>
       <use xlink:href="#DejaVuSans-30" x="190.869141"/>
      </g>
     </g>
    </g>
    <g id="ytick_6">
     <g id="line2d_12">
      <g>
       <use xlink:href="#m091e39ce5e" x="180" y="482.430186" style="stroke: #000000; stroke-width: 0.8"/>
      </g>
     </g>
     <g id="text_12">
      <!-- 1500 -->
      <g transform="translate(147.55 486.229404) scale(0.1 -0.1)">
       <use xlink:href="#DejaVuSans-31"/>
       <use xlink:href="#DejaVuSans-35" x="63.623047"/>
       <use xlink:href="#DejaVuSans-30" x="127.246094"/>
       <use xlink:href="#DejaVuSans-30" x="190.869141"/>
      </g>
     </g>
    </g>
    <g id="ytick_7">
     <g id="line2d_13">
      <g>
       <use xlink:href="#m091e39ce5e" x="180" y="436.225299" style="stroke: #000000; stroke-width: 0.8"/>
      </g>
     </g>
     <g id="text_13">
      <!-- 1550 -->
      <g transform="translate(147.55 440.024517) scale(0.1 -0.1)">
       <use xlink:href="#DejaVuSans-31"/>
       <use xlink:href="#DejaVuSans-35" x="63.623047"/>
       <use xlink:href="#DejaVuSans-35" x="127.246094"/>
       <use xlink:href="#DejaVuSans-30" x="190.869141"/>
      </g>
     </g>
    </g>
    <g id="ytick_8">
     <g id="line2d_14">
      <g>
       <use xlink:href="#m091e39ce5e" x="180" y="390.020411" style="stroke: #000000; stroke-width: 0.8"/>
      </g>
     </g>
     <g id="text_14">
      <!-- 1600 -->
      <g transform="translate(147.55 393.81963) scale(0.1 -0.1)">
       <use xlink:href="#DejaVuSans-31"/>
       <use xlink:href="#DejaVuSans-36" x="63.623047"/>
       <use xlink:href="#DejaVuSans-30" x="127.246094"/>
       <use xlink:href="#DejaVuSans-30" x="190.869141"/>
      </g>
     </g>
    </g>
   </g>
   <g id="LineCollection_1">
    <path d="M 1245.272727 492.974173 
L 1225.877908 472.677365 
L 1207.52998 456.380255 
L 1190.091907 443.651759 
L 1173.454433 434.111212 
L 1157.549245 427.417964 
L 1142.35261 423.250417 
L 1127.870376 421.283938 
L 1114.109383 421.182981 
L 1101.05358 422.612224 
L 1088.657734 425.255562 
L 1076.85564 428.829625 
L 1065.572469 433.087734 
L 1054.734339 437.8175 
L 1044.27354 442.836226 
L 1034.130488 447.986512 
L 1014.552701 458.182885 
L 1005.041204 463.009792 
L 995.684328 467.531557 
L 986.453113 471.680437 
L 977.321617 475.402685 
L 968.265733 478.657295 
L 959.262204 481.414545 
L 950.28799 483.654362 
L 941.320095 485.364563 
L 932.335922 486.539196 
L 923.314071 487.177169 
L 914.235356 487.281362 
L 905.083778 486.858223 
L 895.84721 485.917789 
L 886.517658 484.473904 
L 877.091111 482.544458 
L 867.567086 480.151494 
L 857.948006 477.321125 
L 848.23853 474.083263 
L 838.444941 470.471205 
L 828.57462 466.521131 
L 818.635623 462.27157 
L 808.636361 457.762857 
L 798.585359 453.036626 
L 778.361774 443.101835 
L 727.414257 417.414354 
L 717.213808 412.460859 
L 707.024322 407.659688 
L 696.850213 403.046551 
L 686.695364 398.655514 
L 676.563168 394.518921 
L 666.456578 390.667354 
L 656.378191 387.129586 
L 646.330352 383.932556 
L 636.315283 381.101324 
L 626.335228 378.65902 
L 616.392595 376.626765 
L 606.490094 375.023553 
L 596.630828 373.866112 
L 586.818321 373.168733 
L 577.056464 372.943103 
L 567.349367 373.198159 
L 557.701115 373.940013 
L 548.115458 375.171968 
L 538.595475 376.894652 
L 529.143251 379.106268 
L 519.759613 381.802948 
L 510.443964 384.979187 
L 501.194215 388.628297 
L 492.006822 392.742874 
L 482.876903 397.315232 
L 473.798406 402.337789 
L 464.764315 407.80342 
L 455.766851 413.705756 
L 446.797679 420.039456 
L 437.84808 426.800463 
L 428.909117 433.986245 
L 419.971765 441.596035 
L 411.027031 449.631081 
L 402.066053 458.0949 
L 393.080185 466.99355 
L 384.061083 476.335907 
L 375.000769 486.133956 
L 365.891709 496.403101 
L 356.726877 507.162476 
L 347.499822 518.435269 
L 338.204736 530.249054 
L 328.83652 542.636136 
L 319.390844 555.633893 
L 309.864216 569.285137 
L 300.254037 583.638475 
L 290.558656 598.748683 
L 280.777422 614.677083 
L 270.910733 631.491939 
L 260.960075 649.268854 
L 250.928063 668.091182 
L 240.818476 688.050448 
L 230.727273 709.052204 
L 230.727273 709.052204 
" clip-path="url(#pfa7d77fb60)" style="fill: none; stroke: #1f77b4; stroke-width: 1.5"/>
    <path d="M 1237.91512 499.988043 
L 1219.113284 480.264764 
L 1201.514115 464.57404 
L 1185.000992 452.45013 
L 1169.465145 443.460775 
L 1154.805306 437.205688 
L 1140.927377 433.315081 
L 1127.744101 431.448229 
L 1115.174743 431.292074 
L 1103.144782 432.559868 
L 1091.585608 434.989848 
L 1080.434228 438.343955 
L 1069.632982 442.406585 
L 1059.129266 446.983381 
L 1048.875264 451.900049 
L 1038.827683 457.001229 
L 1028.947504 462.149379 
L 1019.199734 467.223715 
L 1009.55317 472.119166 
L 999.980165 476.745376 
L 990.456411 481.025735 
L 980.960718 484.896441 
L 971.474805 488.305598 
L 961.983107 491.212346 
L 952.47257 493.58602 
L 942.932473 495.405342 
L 933.35424 496.657645 
L 923.731275 497.338126 
L 914.058786 497.449133 
L 904.333632 496.999473 
L 894.554167 496.003764 
L 884.72009 494.481796 
L 874.832309 492.457944 
L 864.892802 489.960588 
L 854.90449 487.021574 
L 844.871115 483.6757 
L 834.797121 479.960223 
L 824.687548 475.914402 
L 814.54792 471.579058 
L 804.384151 466.996168 
L 794.20245 462.208479 
L 784.009229 457.259148 
L 773.811026 452.19141 
L 763.614422 447.048263 
L 753.42597 441.872188 
L 743.252129 436.704879 
L 733.099199 431.587008 
L 722.973266 426.558005 
L 712.880145 421.655864 
L 702.825336 416.916969 
L 692.81398 412.375944 
L 682.850816 408.065519 
L 672.940151 404.016421 
L 663.085828 400.257286 
L 653.291199 396.814587 
L 643.559104 393.712583 
L 633.891853 390.973291 
L 624.291212 388.616468 
L 614.758394 386.659618 
L 605.294049 385.118018 
L 595.898266 384.004756 
L 586.570573 383.330789 
L 577.309937 383.105017 
L 568.114777 383.334376 
L 558.982973 384.02394 
L 549.91188 385.177048 
L 540.898346 386.795437 
L 531.938731 388.879396 
L 523.028933 391.427932 
L 514.16441 394.438945 
L 505.340214 397.90943 
L 496.551018 401.835676 
L 487.791151 406.213485 
L 479.054636 411.03841 
L 470.335227 416.30599 
L 461.626451 422.012009 
L 452.92165 428.152761 
L 444.214029 434.725326 
L 435.496699 441.727854 
L 426.762729 449.159867 
L 418.005196 457.02256 
L 409.217239 465.319116 
L 400.392108 474.055034 
L 391.523226 483.238455 
L 382.604242 492.880507 
L 373.629092 502.995647 
L 364.592054 513.602022 
L 355.487814 524.721821 
L 346.311525 536.381651 
L 337.058867 548.612904 
L 327.726117 561.452138 
L 318.310206 574.941462 
L 308.808787 589.128921 
L 299.220304 604.06889 
L 289.544048 619.822471 
L 279.780235 636.457893 
L 269.930062 654.050913 
L 259.995782 672.685225 
L 249.980762 692.452865 
L 239.889558 713.454621 
" clip-path="url(#pfa7d77fb60)" style="fill: none; stroke: #8c564b; stroke-width: 1.5"/>
    <path d="M 1230.557514 507.001913 
L 1212.040523 487.577439 
L 1195.109485 472.482395 
L 1179.431147 460.971383 
L 1164.908313 452.568178 
L 1151.424435 446.814852 
L 1138.833593 443.285073 
L 1126.965148 441.604411 
L 1115.645908 441.463787 
L 1104.727192 442.614471 
L 1094.099681 444.848596 
L 1083.691176 447.979261 
L 1073.455033 451.829342 
L 1063.35837 456.228772 
L 1053.374168 461.016074 
L 1043.477271 466.040751 
L 1033.644698 471.164096 
L 1023.89342 476.240259 
L 1023.799865 476.288347 
L 1014.153301 481.183798 
L 1013.976117 481.271559 
L 1004.403113 485.897769 
L 1004.147237 486.017068 
L 994.623483 490.297426 
L 994.293439 490.438809 
L 984.797746 494.309515 
L 984.398674 494.462485 
L 974.912762 497.871643 
L 974.451323 498.02512 
L 964.959624 500.931868 
L 964.444634 501.074883 
L 954.934098 503.448557 
L 954.376761 503.57115 
L 944.836663 505.390472 
L 944.250286 505.484634 
L 934.672054 506.736936 
L 934.071266 506.797399 
L 924.4483 507.477881 
L 923.847927 507.502532 
L 914.175438 507.613538 
L 913.589288 507.603359 
L 903.864134 507.1537 
L 903.303984 507.112266 
L 893.524519 506.116556 
L 892.999482 506.049245 
L 883.165405 504.527278 
L 882.681741 504.440405 
L 872.79396 502.416553 
L 872.355268 502.316596 
L 862.415761 499.81924 
L 862.023415 499.712273 
L 852.035103 496.77326 
L 851.688786 496.664603 
L 841.655411 493.318729 
L 841.353655 493.212798 
L 831.279662 489.497321 
L 831.020304 489.397617 
L 820.910731 485.351796 
L 820.691282 485.260985 
L 810.551654 480.925641 
L 810.369563 480.845669 
L 800.205794 476.262779 
L 800.058629 476.195005 
L 789.876928 471.407316 
L 789.762495 471.352633 
L 779.569274 466.403302 
L 779.485679 466.362238 
L 769.287476 461.2945 
L 769.233162 461.267307 
L 759.036558 456.124161 
L 759.010311 456.110874 
L 748.822335 450.935041 
L 738.662764 445.774979 
L 728.550627 440.677671 
L 718.491926 435.682058 
L 708.492667 430.825506 
L 698.558784 426.143604 
L 688.696054 421.669994 
L 678.910012 417.436198 
L 669.205855 413.471471 
L 659.588333 409.802668 
L 650.061628 406.454141 
L 640.629213 403.447658 
L 631.2937 400.802367 
L 622.056671 398.534805 
L 612.918512 396.658969 
L 603.878255 395.186446 
L 594.933457 394.126619 
L 586.080138 393.486928 
L 577.312801 393.273183 
L 568.624542 393.489897 
L 560.007275 394.140608 
L 551.45203 395.228142 
L 542.949319 396.754812 
L 534.489504 398.72252 
L 526.063142 401.132775 
L 517.661246 403.986648 
L 509.275466 407.284708 
L 500.898157 411.026958 
L 492.522374 415.212818 
L 484.141795 419.84117 
L 475.750609 424.910463 
L 467.343392 430.4189 
L 458.914989 436.364669 
L 450.460411 442.746235 
L 441.974761 449.562658 
L 433.453183 456.813939 
L 424.89084 464.501387 
L 416.282904 472.627987 
L 407.624577 481.198787 
L 398.911113 490.221279 
L 390.137858 499.705788 
L 381.300292 509.665868 
L 372.394084 520.118694 
L 363.415137 531.085462 
L 354.359651 542.591793 
L 345.224179 554.668137 
L 336.005686 567.350185 
L 326.701618 580.679282 
L 317.309967 594.702837 
L 307.829345 609.474745 
L 298.259062 625.055795 
L 288.599212 641.514087 
L 278.850755 658.925437 
L 269.015614 677.373785 
L 259.096771 696.951591 
L 249.051844 717.857038 
" clip-path="url(#pfa7d77fb60)" style="fill: none; stroke: #17becf; stroke-width: 1.5"/>
   </g>
   <g id="patch_3">
    <path d="M 180 735.102742 
L 180 355.697258 
" style="fill: none; stroke: #000000; stroke-width: 0.8; stroke-linejoin: miter; stroke-linecap: square"/>
   </g>
   <g id="patch_4">
    <path d="M 1296 735.102742 
L 1296 355.697258 
" style="fill: none; stroke: #000000; stroke-width: 0.8; stroke-linejoin: miter; stroke-linecap: square"/>
   </g>
   <g id="patch_5">
    <path d="M 180 735.102742 
L 1296 735.102742 
" style="fill: none; stroke: #000000; stroke-width: 0.8; stroke-linejoin: miter; stroke-linecap: square"/>
   </g>
   <g id="patch_6">
    <path d="M 180 355.697258 
L 1296 355.697258 
" style="fill: none; stroke: #000000; stroke-width: 0.8; stroke-linejoin: miter; stroke-linecap: square"/>
   </g>
  </g>
 </g>
 <defs>
  <clipPath id="pfa7d77fb60">
   <rect x="180" y="355.697258" width="1116" height="379.405484"/>
  </clipPath>
 </defs>
</svg>
