<?xml version="1.0" encoding="utf-8" standalone="no"?>
<!DOCTYPE svg PUBLIC "-//W3C//DTD SVG 1.1//EN"
  "http://www.w3.org/Graphics/SVG/1.1/DTD/svg11.dtd">
<svg xmlns:xlink="http://www.w3.org/1999/xlink" width="1440pt" height="1080pt" viewBox="0 0 1440 1080" xmlns="http://www.w3.org/2000/svg" version="1.1">
 <metadata>
  <rdf:RDF xmlns:dc="http://purl.org/dc/elements/1.1/" xmlns:cc="http://creativecommons.org/ns#" xmlns:rdf="http://www.w3.org/1999/02/22-rdf-syntax-ns#">
   <cc:Work>
    <dc:type rdf:resource="http://purl.org/dc/dcmitype/StillImage"/>
    <dc:date>2023-12-11T12:07:00.104535</dc:date>
    <dc:format>image/svg+xml</dc:format>
    <dc:creator>
     <cc:Agent>
      <dc:title>Matplotlib v3.7.1, https://matplotlib.org/</dc:title>
     </cc:Agent>
    </dc:creator>
   </cc:Work>
  </rdf:RDF>
 </metadata>
 <defs>
  <style type="text/css">*{stroke-linejoin: round; stroke-linecap: butt}</style>
 </defs>
 <g id="figure_1">
  <g id="patch_1">
   <path d="M 0 1080 
L 1440 1080 
L 1440 0 
L 0 0 
z
" style="fill: #ffffff"/>
  </g>
  <g id="axes_1">
   <g id="patch_2">
    <path d="M 505.758706 961.2 
L 970.241294 961.2 
L 970.241294 129.6 
L 505.758706 129.6 
z
" style="fill: #ffffff"/>
   </g>
   <g id="matplotlib.axis_1">
    <g id="xtick_1">
     <g id="line2d_1">
      <defs>
       <path id="m31f832efe6" d="M 0 0 
L 0 3.5 
" style="stroke: #000000; stroke-width: 0.8"/>
      </defs>
      <g>
       <use xlink:href="#m31f832efe6" x="560.893528" y="961.2" style="stroke: #000000; stroke-width: 0.8"/>
      </g>
     </g>
     <g id="text_1">
      <!-- 700 -->
      <g transform="translate(551.349778 975.798437) scale(0.1 -0.1)">
       <defs>
        <path id="DejaVuSans-37" d="M 525 4666 
L 3525 4666 
L 3525 4397 
L 1831 0 
L 1172 0 
L 2766 4134 
L 525 4134 
L 525 4666 
z
" transform="scale(0.015625)"/>
        <path id="DejaVuSans-30" d="M 2034 4250 
Q 1547 4250 1301 3770 
Q 1056 3291 1056 2328 
Q 1056 1369 1301 889 
Q 1547 409 2034 409 
Q 2525 409 2770 889 
Q 3016 1369 3016 2328 
Q 3016 3291 2770 3770 
Q 2525 4250 2034 4250 
z
M 2034 4750 
Q 2819 4750 3233 4129 
Q 3647 3509 3647 2328 
Q 3647 1150 3233 529 
Q 2819 -91 2034 -91 
Q 1250 -91 836 529 
Q 422 1150 422 2328 
Q 422 3509 836 4129 
Q 1250 4750 2034 4750 
z
" transform="scale(0.015625)"/>
       </defs>
       <use xlink:href="#DejaVuSans-37"/>
       <use xlink:href="#DejaVuSans-30" x="63.623047"/>
       <use xlink:href="#DejaVuSans-30" x="127.246094"/>
      </g>
     </g>
    </g>
    <g id="xtick_2">
     <g id="line2d_2">
      <g>
       <use xlink:href="#m31f832efe6" x="626.271971" y="961.2" style="stroke: #000000; stroke-width: 0.8"/>
      </g>
     </g>
     <g id="text_2">
      <!-- 800 -->
      <g transform="translate(616.728221 975.798437) scale(0.1 -0.1)">
       <defs>
        <path id="DejaVuSans-38" d="M 2034 2216 
Q 1584 2216 1326 1975 
Q 1069 1734 1069 1313 
Q 1069 891 1326 650 
Q 1584 409 2034 409 
Q 2484 409 2743 651 
Q 3003 894 3003 1313 
Q 3003 1734 2745 1975 
Q 2488 2216 2034 2216 
z
M 1403 2484 
Q 997 2584 770 2862 
Q 544 3141 544 3541 
Q 544 4100 942 4425 
Q 1341 4750 2034 4750 
Q 2731 4750 3128 4425 
Q 3525 4100 3525 3541 
Q 3525 3141 3298 2862 
Q 3072 2584 2669 2484 
Q 3125 2378 3379 2068 
Q 3634 1759 3634 1313 
Q 3634 634 3220 271 
Q 2806 -91 2034 -91 
Q 1263 -91 848 271 
Q 434 634 434 1313 
Q 434 1759 690 2068 
Q 947 2378 1403 2484 
z
M 1172 3481 
Q 1172 3119 1398 2916 
Q 1625 2713 2034 2713 
Q 2441 2713 2670 2916 
Q 2900 3119 2900 3481 
Q 2900 3844 2670 4047 
Q 2441 4250 2034 4250 
Q 1625 4250 1398 4047 
Q 1172 3844 1172 3481 
z
" transform="scale(0.015625)"/>
       </defs>
       <use xlink:href="#DejaVuSans-38"/>
       <use xlink:href="#DejaVuSans-30" x="63.623047"/>
       <use xlink:href="#DejaVuSans-30" x="127.246094"/>
      </g>
     </g>
    </g>
    <g id="xtick_3">
     <g id="line2d_3">
      <g>
       <use xlink:href="#m31f832efe6" x="691.650413" y="961.2" style="stroke: #000000; stroke-width: 0.8"/>
      </g>
     </g>
     <g id="text_3">
      <!-- 900 -->
      <g transform="translate(682.106663 975.798437) scale(0.1 -0.1)">
       <defs>
        <path id="DejaVuSans-39" d="M 703 97 
L 703 672 
Q 941 559 1184 500 
Q 1428 441 1663 441 
Q 2288 441 2617 861 
Q 2947 1281 2994 2138 
Q 2813 1869 2534 1725 
Q 2256 1581 1919 1581 
Q 1219 1581 811 2004 
Q 403 2428 403 3163 
Q 403 3881 828 4315 
Q 1253 4750 1959 4750 
Q 2769 4750 3195 4129 
Q 3622 3509 3622 2328 
Q 3622 1225 3098 567 
Q 2575 -91 1691 -91 
Q 1453 -91 1209 -44 
Q 966 3 703 97 
z
M 1959 2075 
Q 2384 2075 2632 2365 
Q 2881 2656 2881 3163 
Q 2881 3666 2632 3958 
Q 2384 4250 1959 4250 
Q 1534 4250 1286 3958 
Q 1038 3666 1038 3163 
Q 1038 2656 1286 2365 
Q 1534 2075 1959 2075 
z
" transform="scale(0.015625)"/>
       </defs>
       <use xlink:href="#DejaVuSans-39"/>
       <use xlink:href="#DejaVuSans-30" x="63.623047"/>
       <use xlink:href="#DejaVuSans-30" x="127.246094"/>
      </g>
     </g>
    </g>
    <g id="xtick_4">
     <g id="line2d_4">
      <g>
       <use xlink:href="#m31f832efe6" x="757.028855" y="961.2" style="stroke: #000000; stroke-width: 0.8"/>
      </g>
     </g>
     <g id="text_4">
      <!-- 1000 -->
      <g transform="translate(744.303855 975.798437) scale(0.1 -0.1)">
       <defs>
        <path id="DejaVuSans-31" d="M 794 531 
L 1825 531 
L 1825 4091 
L 703 3866 
L 703 4441 
L 1819 4666 
L 2450 4666 
L 2450 531 
L 3481 531 
L 3481 0 
L 794 0 
L 794 531 
z
" transform="scale(0.015625)"/>
       </defs>
       <use xlink:href="#DejaVuSans-31"/>
       <use xlink:href="#DejaVuSans-30" x="63.623047"/>
       <use xlink:href="#DejaVuSans-30" x="127.246094"/>
       <use xlink:href="#DejaVuSans-30" x="190.869141"/>
      </g>
     </g>
    </g>
    <g id="xtick_5">
     <g id="line2d_5">
      <g>
       <use xlink:href="#m31f832efe6" x="822.407298" y="961.2" style="stroke: #000000; stroke-width: 0.8"/>
      </g>
     </g>
     <g id="text_5">
      <!-- 1100 -->
      <g transform="translate(809.682298 975.798437) scale(0.1 -0.1)">
       <use xlink:href="#DejaVuSans-31"/>
       <use xlink:href="#DejaVuSans-31" x="63.623047"/>
       <use xlink:href="#DejaVuSans-30" x="127.246094"/>
       <use xlink:href="#DejaVuSans-30" x="190.869141"/>
      </g>
     </g>
    </g>
    <g id="xtick_6">
     <g id="line2d_6">
      <g>
       <use xlink:href="#m31f832efe6" x="887.78574" y="961.2" style="stroke: #000000; stroke-width: 0.8"/>
      </g>
     </g>
     <g id="text_6">
      <!-- 1200 -->
      <g transform="translate(875.06074 975.798437) scale(0.1 -0.1)">
       <defs>
        <path id="DejaVuSans-32" d="M 1228 531 
L 3431 531 
L 3431 0 
L 469 0 
L 469 531 
Q 828 903 1448 1529 
Q 2069 2156 2228 2338 
Q 2531 2678 2651 2914 
Q 2772 3150 2772 3378 
Q 2772 3750 2511 3984 
Q 2250 4219 1831 4219 
Q 1534 4219 1204 4116 
Q 875 4013 500 3803 
L 500 4441 
Q 881 4594 1212 4672 
Q 1544 4750 1819 4750 
Q 2544 4750 2975 4387 
Q 3406 4025 3406 3419 
Q 3406 3131 3298 2873 
Q 3191 2616 2906 2266 
Q 2828 2175 2409 1742 
Q 1991 1309 1228 531 
z
" transform="scale(0.015625)"/>
       </defs>
       <use xlink:href="#DejaVuSans-31"/>
       <use xlink:href="#DejaVuSans-32" x="63.623047"/>
       <use xlink:href="#DejaVuSans-30" x="127.246094"/>
       <use xlink:href="#DejaVuSans-30" x="190.869141"/>
      </g>
     </g>
    </g>
    <g id="xtick_7">
     <g id="line2d_7">
      <g>
       <use xlink:href="#m31f832efe6" x="953.164183" y="961.2" style="stroke: #000000; stroke-width: 0.8"/>
      </g>
     </g>
     <g id="text_7">
      <!-- 1300 -->
      <g transform="translate(940.439183 975.798437) scale(0.1 -0.1)">
       <defs>
        <path id="DejaVuSans-33" d="M 2597 2516 
Q 3050 2419 3304 2112 
Q 3559 1806 3559 1356 
Q 3559 666 3084 287 
Q 2609 -91 1734 -91 
Q 1441 -91 1130 -33 
Q 819 25 488 141 
L 488 750 
Q 750 597 1062 519 
Q 1375 441 1716 441 
Q 2309 441 2620 675 
Q 2931 909 2931 1356 
Q 2931 1769 2642 2001 
Q 2353 2234 1838 2234 
L 1294 2234 
L 1294 2753 
L 1863 2753 
Q 2328 2753 2575 2939 
Q 2822 3125 2822 3475 
Q 2822 3834 2567 4026 
Q 2313 4219 1838 4219 
Q 1578 4219 1281 4162 
Q 984 4106 628 3988 
L 628 4550 
Q 988 4650 1302 4700 
Q 1616 4750 1894 4750 
Q 2613 4750 3031 4423 
Q 3450 4097 3450 3541 
Q 3450 3153 3228 2886 
Q 3006 2619 2597 2516 
z
" transform="scale(0.015625)"/>
       </defs>
       <use xlink:href="#DejaVuSans-31"/>
       <use xlink:href="#DejaVuSans-33" x="63.623047"/>
       <use xlink:href="#DejaVuSans-30" x="127.246094"/>
       <use xlink:href="#DejaVuSans-30" x="190.869141"/>
      </g>
     </g>
    </g>
   </g>
   <g id="matplotlib.axis_2">
    <g id="ytick_1">
     <g id="line2d_8">
      <defs>
       <path id="m16e0f4d781" d="M 0 0 
L -3.5 0 
" style="stroke: #000000; stroke-width: 0.8"/>
      </defs>
      <g>
       <use xlink:href="#m16e0f4d781" x="505.758706" y="870.767196" style="stroke: #000000; stroke-width: 0.8"/>
      </g>
     </g>
     <g id="text_8">
      <!-- 200 -->
      <g transform="translate(479.671206 874.566415) scale(0.1 -0.1)">
       <use xlink:href="#DejaVuSans-32"/>
       <use xlink:href="#DejaVuSans-30" x="63.623047"/>
       <use xlink:href="#DejaVuSans-30" x="127.246094"/>
      </g>
     </g>
    </g>
    <g id="ytick_2">
     <g id="line2d_9">
      <g>
       <use xlink:href="#m16e0f4d781" x="505.758706" y="740.010311" style="stroke: #000000; stroke-width: 0.8"/>
      </g>
     </g>
     <g id="text_9">
      <!-- 400 -->
      <g transform="translate(479.671206 743.80953) scale(0.1 -0.1)">
       <defs>
        <path id="DejaVuSans-34" d="M 2419 4116 
L 825 1625 
L 2419 1625 
L 2419 4116 
z
M 2253 4666 
L 3047 4666 
L 3047 1625 
L 3713 1625 
L 3713 1100 
L 3047 1100 
L 3047 0 
L 2419 0 
L 2419 1100 
L 313 1100 
L 313 1709 
L 2253 4666 
z
" transform="scale(0.015625)"/>
       </defs>
       <use xlink:href="#DejaVuSans-34"/>
       <use xlink:href="#DejaVuSans-30" x="63.623047"/>
       <use xlink:href="#DejaVuSans-30" x="127.246094"/>
      </g>
     </g>
    </g>
    <g id="ytick_3">
     <g id="line2d_10">
      <g>
       <use xlink:href="#m16e0f4d781" x="505.758706" y="609.253426" style="stroke: #000000; stroke-width: 0.8"/>
      </g>
     </g>
     <g id="text_10">
      <!-- 600 -->
      <g transform="translate(479.671206 613.052645) scale(0.1 -0.1)">
       <defs>
        <path id="DejaVuSans-36" d="M 2113 2584 
Q 1688 2584 1439 2293 
Q 1191 2003 1191 1497 
Q 1191 994 1439 701 
Q 1688 409 2113 409 
Q 2538 409 2786 701 
Q 3034 994 3034 1497 
Q 3034 2003 2786 2293 
Q 2538 2584 2113 2584 
z
M 3366 4563 
L 3366 3988 
Q 3128 4100 2886 4159 
Q 2644 4219 2406 4219 
Q 1781 4219 1451 3797 
Q 1122 3375 1075 2522 
Q 1259 2794 1537 2939 
Q 1816 3084 2150 3084 
Q 2853 3084 3261 2657 
Q 3669 2231 3669 1497 
Q 3669 778 3244 343 
Q 2819 -91 2113 -91 
Q 1303 -91 875 529 
Q 447 1150 447 2328 
Q 447 3434 972 4092 
Q 1497 4750 2381 4750 
Q 2619 4750 2861 4703 
Q 3103 4656 3366 4563 
z
" transform="scale(0.015625)"/>
       </defs>
       <use xlink:href="#DejaVuSans-36"/>
       <use xlink:href="#DejaVuSans-30" x="63.623047"/>
       <use xlink:href="#DejaVuSans-30" x="127.246094"/>
      </g>
     </g>
    </g>
    <g id="ytick_4">
     <g id="line2d_11">
      <g>
       <use xlink:href="#m16e0f4d781" x="505.758706" y="478.496541" style="stroke: #000000; stroke-width: 0.8"/>
      </g>
     </g>
     <g id="text_11">
      <!-- 800 -->
      <g transform="translate(479.671206 482.29576) scale(0.1 -0.1)">
       <use xlink:href="#DejaVuSans-38"/>
       <use xlink:href="#DejaVuSans-30" x="63.623047"/>
       <use xlink:href="#DejaVuSans-30" x="127.246094"/>
      </g>
     </g>
    </g>
    <g id="ytick_5">
     <g id="line2d_12">
      <g>
       <use xlink:href="#m16e0f4d781" x="505.758706" y="347.739656" style="stroke: #000000; stroke-width: 0.8"/>
      </g>
     </g>
     <g id="text_12">
      <!-- 1000 -->
      <g transform="translate(473.308706 351.538875) scale(0.1 -0.1)">
       <use xlink:href="#DejaVuSans-31"/>
       <use xlink:href="#DejaVuSans-30" x="63.623047"/>
       <use xlink:href="#DejaVuSans-30" x="127.246094"/>
       <use xlink:href="#DejaVuSans-30" x="190.869141"/>
      </g>
     </g>
    </g>
    <g id="ytick_6">
     <g id="line2d_13">
      <g>
       <use xlink:href="#m16e0f4d781" x="505.758706" y="216.982771" style="stroke: #000000; stroke-width: 0.8"/>
      </g>
     </g>
     <g id="text_13">
      <!-- 1200 -->
      <g transform="translate(473.308706 220.78199) scale(0.1 -0.1)">
       <use xlink:href="#DejaVuSans-31"/>
       <use xlink:href="#DejaVuSans-32" x="63.623047"/>
       <use xlink:href="#DejaVuSans-30" x="127.246094"/>
       <use xlink:href="#DejaVuSans-30" x="190.869141"/>
      </g>
     </g>
    </g>
   </g>
   <g id="LineCollection_1">
    <path d="M 554.380871 923.4 
L 560.631511 913.662429 
L 573.105896 895.126697 
L 585.415275 877.015799 
L 591.340729 868.053177 
L 597.045214 859.118469 
L 602.489308 850.189125 
L 607.64068 841.247864 
L 612.47392 832.282557 
L 616.970408 823.285957 
L 621.118187 814.25525 
L 624.911786 805.191471 
L 628.351929 796.098803 
L 631.445128 786.983857 
L 634.203138 777.85497 
L 636.642303 768.721613 
L 638.782843 759.593911 
L 640.648111 750.482313 
L 642.263888 741.397377 
L 643.657722 732.349658 
L 644.858339 723.349662 
L 645.89514 714.407831 
L 647.595673 696.740089 
L 649.648672 670.916134 
L 651.005623 654.234677 
L 652.578622 638.09727 
L 653.49906 630.251246 
L 654.533324 622.561625 
L 655.69741 615.032804 
L 657.005386 607.667716 
L 658.46944 600.467685 
L 660.099967 593.432305 
L 661.90569 586.559383 
L 663.893803 579.844938 
L 666.070119 573.283276 
L 668.439199 566.867141 
L 671.004444 560.587926 
L 673.76813 554.435933 
L 676.731383 548.400652 
L 679.894092 542.471026 
L 683.254779 536.635678 
L 686.810433 530.883076 
L 690.556359 525.201633 
L 694.486038 519.579734 
L 698.591039 514.005709 
L 702.860984 508.467765 
L 707.283567 502.953895 
L 716.528302 491.948775 
L 726.192223 480.887102 
L 741.168727 463.901568 
L 751.201759 452.163867 
L 756.16031 446.131333 
L 761.049119 439.971736 
L 765.845244 433.672935 
L 770.526464 427.22429 
L 775.071706 420.617025 
L 779.461543 413.844564 
L 783.678769 406.902808 
L 787.709013 399.79032 
L 791.541381 392.508409 
L 795.169064 385.061115 
L 798.589879 377.455118 
L 801.806714 369.69961 
L 804.827847 361.806175 
L 807.667152 353.788732 
L 810.34419 345.663569 
L 812.884208 337.449494 
L 817.682148 320.84402 
L 822.394721 304.108473 
L 824.83909 295.780454 
L 827.414552 287.540087 
L 830.182647 279.430644 
L 833.208653 271.49768 
L 836.561639 263.786827 
L 840.315592 256.340421 
L 844.552559 249.193309 
L 849.368658 242.36907 
L 854.88294 235.879106 
L 861.246919 229.727374 
L 868.650379 223.921707 
L 877.319071 218.488533 
L 887.503885 213.484528 
L 899.466398 208.999949 
L 913.467612 205.153572 
L 929.763577 202.083541 
L 949.128449 199.879531 
L 949.128449 199.879531 
" clip-path="url(#pd1151b8f55)" style="fill: none; stroke: #1f77b4; stroke-width: 1.5"/>
    <path d="M 540.626211 914.570752 
L 546.952211 904.71578 
L 553.301814 895.185893 
L 559.598837 885.923112 
L 565.777697 876.875987 
L 571.782706 867.999183 
L 577.567396 859.253087 
L 583.093861 850.603421 
L 588.332121 842.020873 
L 593.259511 833.480738 
L 597.860089 824.962569 
L 602.124064 816.449847 
L 606.04725 807.929655 
L 609.630533 799.392367 
L 612.879364 790.831352 
L 615.803274 782.242684 
L 618.415404 773.62487 
L 620.732055 764.978579 
L 622.772266 756.306397 
L 624.557401 747.612581 
L 626.110761 738.902826 
L 627.457214 730.18405 
L 628.622846 721.464182 
L 629.634624 712.751963 
L 630.520088 704.056761 
L 631.307052 695.388388 
L 632.023327 686.756941 
L 632.696463 678.172636 
L 633.353506 669.645667 
L 634.020775 661.186068 
L 634.723652 652.803583 
L 635.486397 644.507552 
L 636.331971 636.306799 
L 637.281882 628.209538 
L 638.356044 620.223281 
L 639.572654 612.354756 
L 640.948085 604.60984 
L 642.496792 596.993497 
L 644.23124 589.50972 
L 646.16184 582.161491 
L 648.296905 574.950744 
L 650.642622 567.878335 
L 653.203031 560.944029 
L 655.98003 554.146481 
L 658.973386 547.483239 
L 662.180763 540.950748 
L 665.597764 534.544362 
L 669.217988 528.258364 
L 673.033096 522.085999 
L 677.032898 516.019502 
L 681.205446 510.050149 
L 685.537143 504.168302 
L 690.012867 498.36347 
L 694.616102 492.624372 
L 699.329088 486.939007 
L 704.132977 481.294737 
L 709.008005 475.678365 
L 713.933676 470.076231 
L 718.888953 464.474311 
L 723.852465 458.858315 
L 728.802726 453.213803 
L 733.718358 447.526299 
L 738.578332 441.78141 
L 743.362218 435.964961 
L 748.050441 430.06312 
L 752.624553 424.062543 
L 757.067511 417.950517 
L 761.363965 411.715107 
L 765.50056 405.345316 
L 769.466237 398.831238 
L 773.25256 392.16423 
L 776.854031 385.337076 
L 780.268431 378.344165 
L 783.497162 371.181667 
L 786.545598 363.847718 
L 789.423441 356.342608 
L 792.145093 348.66897 
L 794.730029 340.831978 
L 797.203178 332.839549 
L 799.595315 324.702539 
L 801.943454 316.434961 
L 804.291256 308.054184 
L 806.689436 299.581159 
L 809.19618 291.040626 
L 811.877568 282.461343 
L 814.808003 273.876306 
L 818.070646 265.322975 
L 821.757856 256.843507 
L 825.971635 248.484986 
L 830.824078 240.299659 
L 836.437832 232.345172 
L 842.946556 224.684812 
L 850.495382 217.387749 
L 859.24139 210.529278 
L 869.35408 204.191067 
L 881.015848 198.461405 
L 894.42247 193.43545 
L 909.783587 189.215483 
L 927.323192 185.91116 
L 947.280123 183.639766 
" clip-path="url(#pd1151b8f55)" style="fill: none; stroke: #8c564b; stroke-width: 1.5"/>
    <path d="M 526.871551 905.741504 
L 533.350265 895.653035 
L 546.101674 876.705037 
L 558.197108 858.91155 
L 563.86359 850.344178 
L 569.230052 841.944937 
L 574.275711 833.677953 
L 578.987513 825.511474 
L 583.35914 817.417218 
L 587.390003 809.369889 
L 591.084254 801.346887 
L 594.449872 793.328194 
L 597.49786 785.296421 
L 600.241614 777.236941 
L 602.696455 769.138047 
L 604.879322 760.991071 
L 606.808604 752.790408 
L 608.50404 744.533437 
L 609.98666 736.220321 
L 611.278725 727.85373 
L 612.403635 719.438487 
L 613.385807 710.981201 
L 615.023663 693.973627 
L 617.059504 668.360444 
L 618.447688 651.307156 
L 620.098682 634.402429 
L 621.083137 626.030786 
L 622.20337 617.725798 
L 623.479847 609.496811 
L 624.931246 601.352976 
L 626.574214 593.303264 
L 628.423119 585.356453 
L 630.489798 577.52108 
L 632.783329 569.805332 
L 635.309836 562.216889 
L 638.072351 554.7627 
L 641.070758 547.448726 
L 644.301818 540.27967 
L 647.759293 533.258707 
L 651.434145 526.387268 
L 655.314811 519.66488 
L 659.387507 513.0891 
L 663.636549 506.655521 
L 668.04467 500.35787 
L 672.593302 494.188158 
L 677.262838 488.136884 
L 682.032852 482.193259 
L 691.789701 470.580735 
L 701.691328 459.247048 
L 716.475384 442.481309 
L 726.02681 431.311529 
L 730.65054 425.689804 
L 735.150769 420.024623 
L 739.513173 414.301776 
L 743.725566 408.506931 
L 747.778073 402.625559 
L 751.663267 396.64289 
L 755.376234 390.543919 
L 758.914607 384.313504 
L 762.278581 377.936563 
L 765.47095 371.398385 
L 768.497208 364.685046 
L 771.365754 357.783877 
L 774.088221 350.683971 
L 776.679949 343.376651 
L 779.160585 335.855876 
L 781.554798 328.118544 
L 786.212676 311.997645 
L 791.00641 294.978011 
L 793.595764 286.164838 
L 796.409275 277.181363 
L 799.53668 268.051104 
L 803.081807 258.805232 
L 807.16298 249.485798 
L 811.91192 240.150076 
L 817.470125 230.875316 
L 823.982159 221.762048 
L 831.586799 212.933122 
L 840.409511 204.52612 
L 850.561261 196.680031 
L 862.146589 189.521426 
L 875.278401 183.156895 
L 890.092731 177.67475 
L 906.757621 173.153422 
L 925.474865 169.671395 
L 945.431797 167.4 
L 945.431797 167.4 
" clip-path="url(#pd1151b8f55)" style="fill: none; stroke: #17becf; stroke-width: 1.5"/>
   </g>
   <g id="patch_3">
    <path d="M 505.758706 961.2 
L 505.758706 129.6 
" style="fill: none; stroke: #000000; stroke-width: 0.8; stroke-linejoin: miter; stroke-linecap: square"/>
   </g>
   <g id="patch_4">
    <path d="M 970.241294 961.2 
L 970.241294 129.6 
" style="fill: none; stroke: #000000; stroke-width: 0.8; stroke-linejoin: miter; stroke-linecap: square"/>
   </g>
   <g id="patch_5">
    <path d="M 505.758706 961.2 
L 970.241294 961.2 
" style="fill: none; stroke: #000000; stroke-width: 0.8; stroke-linejoin: miter; stroke-linecap: square"/>
   </g>
   <g id="patch_6">
    <path d="M 505.758706 129.6 
L 970.241294 129.6 
" style="fill: none; stroke: #000000; stroke-width: 0.8; stroke-linejoin: miter; stroke-linecap: square"/>
   </g>
  </g>
 </g>
 <defs>
  <clipPath id="pd1151b8f55">
   <rect x="505.758706" y="129.6" width="464.482588" height="831.6"/>
  </clipPath>
 </defs>
</svg>
