<?xml version="1.0" encoding="utf-8" standalone="no"?>
<!DOCTYPE svg PUBLIC "-//W3C//DTD SVG 1.1//EN"
  "http://www.w3.org/Graphics/SVG/1.1/DTD/svg11.dtd">
<svg xmlns:xlink="http://www.w3.org/1999/xlink" width="1440pt" height="1080pt" viewBox="0 0 1440 1080" xmlns="http://www.w3.org/2000/svg" version="1.1">
 <metadata>
  <rdf:RDF xmlns:dc="http://purl.org/dc/elements/1.1/" xmlns:cc="http://creativecommons.org/ns#" xmlns:rdf="http://www.w3.org/1999/02/22-rdf-syntax-ns#">
   <cc:Work>
    <dc:type rdf:resource="http://purl.org/dc/dcmitype/StillImage"/>
    <dc:date>2023-12-11T12:07:06.158863</dc:date>
    <dc:format>image/svg+xml</dc:format>
    <dc:creator>
     <cc:Agent>
      <dc:title>Matplotlib v3.7.1, https://matplotlib.org/</dc:title>
     </cc:Agent>
    </dc:creator>
   </cc:Work>
  </rdf:RDF>
 </metadata>
 <defs>
  <style type="text/css">*{stroke-linejoin: round; stroke-linecap: butt}</style>
 </defs>
 <g id="figure_1">
  <g id="patch_1">
   <path d="M 0 1080 
L 1440 1080 
L 1440 0 
L 0 0 
z
" style="fill: #ffffff"/>
  </g>
  <g id="axes_1">
   <g id="patch_2">
    <path d="M 393.979188 961.2 
L 1082.020812 961.2 
L 1082.020812 129.6 
L 393.979188 129.6 
z
" style="fill: #ffffff"/>
   </g>
   <g id="matplotlib.axis_1">
    <g id="xtick_1">
     <g id="line2d_1">
      <defs>
       <path id="m80b17ab29d" d="M 0 0 
L 0 3.5 
" style="stroke: #000000; stroke-width: 0.8"/>
      </defs>
      <g>
       <use xlink:href="#m80b17ab29d" x="425.521334" y="961.2" style="stroke: #000000; stroke-width: 0.8"/>
      </g>
     </g>
     <g id="text_1">
      <!-- 800 -->
      <g transform="translate(415.977584 975.798437) scale(0.1 -0.1)">
       <defs>
        <path id="DejaVuSans-38" d="M 2034 2216 
Q 1584 2216 1326 1975 
Q 1069 1734 1069 1313 
Q 1069 891 1326 650 
Q 1584 409 2034 409 
Q 2484 409 2743 651 
Q 3003 894 3003 1313 
Q 3003 1734 2745 1975 
Q 2488 2216 2034 2216 
z
M 1403 2484 
Q 997 2584 770 2862 
Q 544 3141 544 3541 
Q 544 4100 942 4425 
Q 1341 4750 2034 4750 
Q 2731 4750 3128 4425 
Q 3525 4100 3525 3541 
Q 3525 3141 3298 2862 
Q 3072 2584 2669 2484 
Q 3125 2378 3379 2068 
Q 3634 1759 3634 1313 
Q 3634 634 3220 271 
Q 2806 -91 2034 -91 
Q 1263 -91 848 271 
Q 434 634 434 1313 
Q 434 1759 690 2068 
Q 947 2378 1403 2484 
z
M 1172 3481 
Q 1172 3119 1398 2916 
Q 1625 2713 2034 2713 
Q 2441 2713 2670 2916 
Q 2900 3119 2900 3481 
Q 2900 3844 2670 4047 
Q 2441 4250 2034 4250 
Q 1625 4250 1398 4047 
Q 1172 3844 1172 3481 
z
" transform="scale(0.015625)"/>
        <path id="DejaVuSans-30" d="M 2034 4250 
Q 1547 4250 1301 3770 
Q 1056 3291 1056 2328 
Q 1056 1369 1301 889 
Q 1547 409 2034 409 
Q 2525 409 2770 889 
Q 3016 1369 3016 2328 
Q 3016 3291 2770 3770 
Q 2525 4250 2034 4250 
z
M 2034 4750 
Q 2819 4750 3233 4129 
Q 3647 3509 3647 2328 
Q 3647 1150 3233 529 
Q 2819 -91 2034 -91 
Q 1250 -91 836 529 
Q 422 1150 422 2328 
Q 422 3509 836 4129 
Q 1250 4750 2034 4750 
z
" transform="scale(0.015625)"/>
       </defs>
       <use xlink:href="#DejaVuSans-38"/>
       <use xlink:href="#DejaVuSans-30" x="63.623047"/>
       <use xlink:href="#DejaVuSans-30" x="127.246094"/>
      </g>
     </g>
    </g>
    <g id="xtick_2">
     <g id="line2d_2">
      <g>
       <use xlink:href="#m80b17ab29d" x="537.635809" y="961.2" style="stroke: #000000; stroke-width: 0.8"/>
      </g>
     </g>
     <g id="text_2">
      <!-- 900 -->
      <g transform="translate(528.092059 975.798437) scale(0.1 -0.1)">
       <defs>
        <path id="DejaVuSans-39" d="M 703 97 
L 703 672 
Q 941 559 1184 500 
Q 1428 441 1663 441 
Q 2288 441 2617 861 
Q 2947 1281 2994 2138 
Q 2813 1869 2534 1725 
Q 2256 1581 1919 1581 
Q 1219 1581 811 2004 
Q 403 2428 403 3163 
Q 403 3881 828 4315 
Q 1253 4750 1959 4750 
Q 2769 4750 3195 4129 
Q 3622 3509 3622 2328 
Q 3622 1225 3098 567 
Q 2575 -91 1691 -91 
Q 1453 -91 1209 -44 
Q 966 3 703 97 
z
M 1959 2075 
Q 2384 2075 2632 2365 
Q 2881 2656 2881 3163 
Q 2881 3666 2632 3958 
Q 2384 4250 1959 4250 
Q 1534 4250 1286 3958 
Q 1038 3666 1038 3163 
Q 1038 2656 1286 2365 
Q 1534 2075 1959 2075 
z
" transform="scale(0.015625)"/>
       </defs>
       <use xlink:href="#DejaVuSans-39"/>
       <use xlink:href="#DejaVuSans-30" x="63.623047"/>
       <use xlink:href="#DejaVuSans-30" x="127.246094"/>
      </g>
     </g>
    </g>
    <g id="xtick_3">
     <g id="line2d_3">
      <g>
       <use xlink:href="#m80b17ab29d" x="649.750284" y="961.2" style="stroke: #000000; stroke-width: 0.8"/>
      </g>
     </g>
     <g id="text_3">
      <!-- 1000 -->
      <g transform="translate(637.025284 975.798437) scale(0.1 -0.1)">
       <defs>
        <path id="DejaVuSans-31" d="M 794 531 
L 1825 531 
L 1825 4091 
L 703 3866 
L 703 4441 
L 1819 4666 
L 2450 4666 
L 2450 531 
L 3481 531 
L 3481 0 
L 794 0 
L 794 531 
z
" transform="scale(0.015625)"/>
       </defs>
       <use xlink:href="#DejaVuSans-31"/>
       <use xlink:href="#DejaVuSans-30" x="63.623047"/>
       <use xlink:href="#DejaVuSans-30" x="127.246094"/>
       <use xlink:href="#DejaVuSans-30" x="190.869141"/>
      </g>
     </g>
    </g>
    <g id="xtick_4">
     <g id="line2d_4">
      <g>
       <use xlink:href="#m80b17ab29d" x="761.864758" y="961.2" style="stroke: #000000; stroke-width: 0.8"/>
      </g>
     </g>
     <g id="text_4">
      <!-- 1100 -->
      <g transform="translate(749.139758 975.798437) scale(0.1 -0.1)">
       <use xlink:href="#DejaVuSans-31"/>
       <use xlink:href="#DejaVuSans-31" x="63.623047"/>
       <use xlink:href="#DejaVuSans-30" x="127.246094"/>
       <use xlink:href="#DejaVuSans-30" x="190.869141"/>
      </g>
     </g>
    </g>
    <g id="xtick_5">
     <g id="line2d_5">
      <g>
       <use xlink:href="#m80b17ab29d" x="873.979233" y="961.2" style="stroke: #000000; stroke-width: 0.8"/>
      </g>
     </g>
     <g id="text_5">
      <!-- 1200 -->
      <g transform="translate(861.254233 975.798437) scale(0.1 -0.1)">
       <defs>
        <path id="DejaVuSans-32" d="M 1228 531 
L 3431 531 
L 3431 0 
L 469 0 
L 469 531 
Q 828 903 1448 1529 
Q 2069 2156 2228 2338 
Q 2531 2678 2651 2914 
Q 2772 3150 2772 3378 
Q 2772 3750 2511 3984 
Q 2250 4219 1831 4219 
Q 1534 4219 1204 4116 
Q 875 4013 500 3803 
L 500 4441 
Q 881 4594 1212 4672 
Q 1544 4750 1819 4750 
Q 2544 4750 2975 4387 
Q 3406 4025 3406 3419 
Q 3406 3131 3298 2873 
Q 3191 2616 2906 2266 
Q 2828 2175 2409 1742 
Q 1991 1309 1228 531 
z
" transform="scale(0.015625)"/>
       </defs>
       <use xlink:href="#DejaVuSans-31"/>
       <use xlink:href="#DejaVuSans-32" x="63.623047"/>
       <use xlink:href="#DejaVuSans-30" x="127.246094"/>
       <use xlink:href="#DejaVuSans-30" x="190.869141"/>
      </g>
     </g>
    </g>
    <g id="xtick_6">
     <g id="line2d_6">
      <g>
       <use xlink:href="#m80b17ab29d" x="986.093707" y="961.2" style="stroke: #000000; stroke-width: 0.8"/>
      </g>
     </g>
     <g id="text_6">
      <!-- 1300 -->
      <g transform="translate(973.368707 975.798437) scale(0.1 -0.1)">
       <defs>
        <path id="DejaVuSans-33" d="M 2597 2516 
Q 3050 2419 3304 2112 
Q 3559 1806 3559 1356 
Q 3559 666 3084 287 
Q 2609 -91 1734 -91 
Q 1441 -91 1130 -33 
Q 819 25 488 141 
L 488 750 
Q 750 597 1062 519 
Q 1375 441 1716 441 
Q 2309 441 2620 675 
Q 2931 909 2931 1356 
Q 2931 1769 2642 2001 
Q 2353 2234 1838 2234 
L 1294 2234 
L 1294 2753 
L 1863 2753 
Q 2328 2753 2575 2939 
Q 2822 3125 2822 3475 
Q 2822 3834 2567 4026 
Q 2313 4219 1838 4219 
Q 1578 4219 1281 4162 
Q 984 4106 628 3988 
L 628 4550 
Q 988 4650 1302 4700 
Q 1616 4750 1894 4750 
Q 2613 4750 3031 4423 
Q 3450 4097 3450 3541 
Q 3450 3153 3228 2886 
Q 3006 2619 2597 2516 
z
" transform="scale(0.015625)"/>
       </defs>
       <use xlink:href="#DejaVuSans-31"/>
       <use xlink:href="#DejaVuSans-33" x="63.623047"/>
       <use xlink:href="#DejaVuSans-30" x="127.246094"/>
       <use xlink:href="#DejaVuSans-30" x="190.869141"/>
      </g>
     </g>
    </g>
   </g>
   <g id="matplotlib.axis_2">
    <g id="ytick_1">
     <g id="line2d_7">
      <defs>
       <path id="m29fef0af65" d="M 0 0 
L -3.5 0 
" style="stroke: #000000; stroke-width: 0.8"/>
      </defs>
      <g>
       <use xlink:href="#m29fef0af65" x="393.979188" y="908.301791" style="stroke: #000000; stroke-width: 0.8"/>
      </g>
     </g>
     <g id="text_7">
      <!-- 200 -->
      <g transform="translate(367.891688 912.101009) scale(0.1 -0.1)">
       <use xlink:href="#DejaVuSans-32"/>
       <use xlink:href="#DejaVuSans-30" x="63.623047"/>
       <use xlink:href="#DejaVuSans-30" x="127.246094"/>
      </g>
     </g>
    </g>
    <g id="ytick_2">
     <g id="line2d_8">
      <g>
       <use xlink:href="#m29fef0af65" x="393.979188" y="796.187316" style="stroke: #000000; stroke-width: 0.8"/>
      </g>
     </g>
     <g id="text_8">
      <!-- 300 -->
      <g transform="translate(367.891688 799.986535) scale(0.1 -0.1)">
       <use xlink:href="#DejaVuSans-33"/>
       <use xlink:href="#DejaVuSans-30" x="63.623047"/>
       <use xlink:href="#DejaVuSans-30" x="127.246094"/>
      </g>
     </g>
    </g>
    <g id="ytick_3">
     <g id="line2d_9">
      <g>
       <use xlink:href="#m29fef0af65" x="393.979188" y="684.072842" style="stroke: #000000; stroke-width: 0.8"/>
      </g>
     </g>
     <g id="text_9">
      <!-- 400 -->
      <g transform="translate(367.891688 687.87206) scale(0.1 -0.1)">
       <defs>
        <path id="DejaVuSans-34" d="M 2419 4116 
L 825 1625 
L 2419 1625 
L 2419 4116 
z
M 2253 4666 
L 3047 4666 
L 3047 1625 
L 3713 1625 
L 3713 1100 
L 3047 1100 
L 3047 0 
L 2419 0 
L 2419 1100 
L 313 1100 
L 313 1709 
L 2253 4666 
z
" transform="scale(0.015625)"/>
       </defs>
       <use xlink:href="#DejaVuSans-34"/>
       <use xlink:href="#DejaVuSans-30" x="63.623047"/>
       <use xlink:href="#DejaVuSans-30" x="127.246094"/>
      </g>
     </g>
    </g>
    <g id="ytick_4">
     <g id="line2d_10">
      <g>
       <use xlink:href="#m29fef0af65" x="393.979188" y="571.958367" style="stroke: #000000; stroke-width: 0.8"/>
      </g>
     </g>
     <g id="text_10">
      <!-- 500 -->
      <g transform="translate(367.891688 575.757586) scale(0.1 -0.1)">
       <defs>
        <path id="DejaVuSans-35" d="M 691 4666 
L 3169 4666 
L 3169 4134 
L 1269 4134 
L 1269 2991 
Q 1406 3038 1543 3061 
Q 1681 3084 1819 3084 
Q 2600 3084 3056 2656 
Q 3513 2228 3513 1497 
Q 3513 744 3044 326 
Q 2575 -91 1722 -91 
Q 1428 -91 1123 -41 
Q 819 9 494 109 
L 494 744 
Q 775 591 1075 516 
Q 1375 441 1709 441 
Q 2250 441 2565 725 
Q 2881 1009 2881 1497 
Q 2881 1984 2565 2268 
Q 2250 2553 1709 2553 
Q 1456 2553 1204 2497 
Q 953 2441 691 2322 
L 691 4666 
z
" transform="scale(0.015625)"/>
       </defs>
       <use xlink:href="#DejaVuSans-35"/>
       <use xlink:href="#DejaVuSans-30" x="63.623047"/>
       <use xlink:href="#DejaVuSans-30" x="127.246094"/>
      </g>
     </g>
    </g>
    <g id="ytick_5">
     <g id="line2d_11">
      <g>
       <use xlink:href="#m29fef0af65" x="393.979188" y="459.843893" style="stroke: #000000; stroke-width: 0.8"/>
      </g>
     </g>
     <g id="text_11">
      <!-- 600 -->
      <g transform="translate(367.891688 463.643111) scale(0.1 -0.1)">
       <defs>
        <path id="DejaVuSans-36" d="M 2113 2584 
Q 1688 2584 1439 2293 
Q 1191 2003 1191 1497 
Q 1191 994 1439 701 
Q 1688 409 2113 409 
Q 2538 409 2786 701 
Q 3034 994 3034 1497 
Q 3034 2003 2786 2293 
Q 2538 2584 2113 2584 
z
M 3366 4563 
L 3366 3988 
Q 3128 4100 2886 4159 
Q 2644 4219 2406 4219 
Q 1781 4219 1451 3797 
Q 1122 3375 1075 2522 
Q 1259 2794 1537 2939 
Q 1816 3084 2150 3084 
Q 2853 3084 3261 2657 
Q 3669 2231 3669 1497 
Q 3669 778 3244 343 
Q 2819 -91 2113 -91 
Q 1303 -91 875 529 
Q 447 1150 447 2328 
Q 447 3434 972 4092 
Q 1497 4750 2381 4750 
Q 2619 4750 2861 4703 
Q 3103 4656 3366 4563 
z
" transform="scale(0.015625)"/>
       </defs>
       <use xlink:href="#DejaVuSans-36"/>
       <use xlink:href="#DejaVuSans-30" x="63.623047"/>
       <use xlink:href="#DejaVuSans-30" x="127.246094"/>
      </g>
     </g>
    </g>
    <g id="ytick_6">
     <g id="line2d_12">
      <g>
       <use xlink:href="#m29fef0af65" x="393.979188" y="347.729418" style="stroke: #000000; stroke-width: 0.8"/>
      </g>
     </g>
     <g id="text_12">
      <!-- 700 -->
      <g transform="translate(367.891688 351.528637) scale(0.1 -0.1)">
       <defs>
        <path id="DejaVuSans-37" d="M 525 4666 
L 3525 4666 
L 3525 4397 
L 1831 0 
L 1172 0 
L 2766 4134 
L 525 4134 
L 525 4666 
z
" transform="scale(0.015625)"/>
       </defs>
       <use xlink:href="#DejaVuSans-37"/>
       <use xlink:href="#DejaVuSans-30" x="63.623047"/>
       <use xlink:href="#DejaVuSans-30" x="127.246094"/>
      </g>
     </g>
    </g>
    <g id="ytick_7">
     <g id="line2d_13">
      <g>
       <use xlink:href="#m29fef0af65" x="393.979188" y="235.614943" style="stroke: #000000; stroke-width: 0.8"/>
      </g>
     </g>
     <g id="text_13">
      <!-- 800 -->
      <g transform="translate(367.891688 239.414162) scale(0.1 -0.1)">
       <use xlink:href="#DejaVuSans-38"/>
       <use xlink:href="#DejaVuSans-30" x="63.623047"/>
       <use xlink:href="#DejaVuSans-30" x="127.246094"/>
      </g>
     </g>
    </g>
   </g>
   <g id="LineCollection_1">
    <path d="M 1033.555697 167.4 
L 1018.976646 171.898878 
L 1015.858104 173.059994 
L 1003.032491 178.688387 
L 1000.095249 180.180687 
L 988.788794 186.754067 
L 986.17537 188.467212 
L 976.174573 195.818387 
L 973.968492 197.612084 
L 963.299473 207.330691 
L 953.962915 217.385354 
L 945.745566 227.591858 
L 938.444657 237.813489 
L 931.878288 247.950397 
L 925.889112 257.929503 
L 920.343974 267.696922 
L 910.159939 286.449112 
L 900.567811 304.156356 
L 895.878609 312.525531 
L 891.201648 320.57298 
L 886.502603 328.308246 
L 881.753559 335.746114 
L 876.931809 342.905685 
L 872.018991 349.809375 
L 867.000528 356.48191 
L 861.865362 362.949407 
L 856.605871 369.238615 
L 851.217914 375.376359 
L 845.700904 381.389202 
L 840.057833 387.303296 
L 834.295223 393.144377 
L 822.454085 404.708855 
L 791.665846 434.225269 
L 785.489805 440.419294 
L 779.372017 446.758743 
L 773.339764 453.263288 
L 767.420537 459.950231 
L 761.641601 466.834003 
L 756.029462 473.925741 
L 750.609247 481.232971 
L 745.404029 488.759457 
L 740.434136 496.505242 
L 735.716506 504.46688 
L 731.264162 512.637839 
L 727.085843 521.009019 
L 723.185836 529.569317 
L 719.564004 538.30617 
L 716.215977 547.206006 
L 713.133484 556.254588 
L 710.304745 565.4372 
L 707.714908 574.738727 
L 705.346461 584.143613 
L 703.179626 593.635757 
L 701.192696 603.198363 
L 699.362337 612.813778 
L 696.071377 632.127236 
L 691.655599 661.012337 
L 688.722713 680.004846 
L 687.177391 689.32176 
L 685.542169 698.482748 
L 683.790137 707.459966 
L 681.895669 716.225635 
L 679.834745 724.752649 
L 677.585224 733.01535 
L 675.126971 740.990507 
L 672.44177 748.658468 
L 669.512897 756.004435 
L 666.324283 763.019716 
L 662.859192 769.702752 
L 659.098498 776.059602 
L 655.018795 782.103601 
L 650.590729 787.853969 
L 645.778086 793.333439 
L 640.538093 798.565239 
L 634.823098 803.57009 
L 628.583449 808.363925 
L 621.770976 812.956851 
L 614.342365 817.353509 
L 606.261824 821.554572 
L 597.502713 825.558925 
L 588.048164 829.36599 
L 577.890888 832.977846 
L 567.032495 836.400918 
L 555.482597 839.647206 
L 543.257903 842.735102 
L 530.381416 845.689906 
L 516.881784 848.544149 
L 502.792813 851.337804 
L 441.222819 863.011218 
L 425.253808 866.296108 
L 425.253808 866.296108 
" clip-path="url(#pd07c5f0ce5)" style="fill: none; stroke: #1f77b4; stroke-width: 1.5"/>
    <path d="M 1042.150944 195.253733 
L 1027.571894 199.752611 
L 1014.746282 205.381004 
L 1003.439826 211.954383 
L 993.439029 219.305559 
L 984.550026 227.283703 
L 976.597477 235.753405 
L 969.423492 244.593756 
L 962.88659 253.697463 
L 956.86069 262.969993 
L 951.234142 272.328746 
L 945.908782 281.702253 
L 940.799027 291.029408 
L 935.831 300.258722 
L 930.941682 309.347609 
L 926.078103 318.261694 
L 921.196562 326.974153 
L 916.261868 335.465072 
L 911.246626 343.72084 
L 906.13054 351.733562 
L 900.899751 359.500495 
L 895.546202 367.023518 
L 890.06703 374.308611 
L 884.463988 381.365375 
L 878.742892 388.206562 
L 872.913096 394.847633 
L 866.986988 401.30634 
L 860.979525 407.602327 
L 854.907775 413.756756 
L 848.7905 419.791952 
L 842.647753 425.731068 
L 836.500503 431.597777 
L 830.370284 437.415973 
L 824.278865 443.209504 
L 818.247942 449.001919 
L 812.298856 454.816228 
L 806.452329 460.674695 
L 800.728221 466.598634 
L 795.145309 472.608233 
L 789.721089 478.722393 
L 784.471588 484.958583 
L 779.41121 491.332709 
L 774.552587 497.859009 
L 769.906457 504.549952 
L 765.481555 511.41616 
L 761.284528 518.466343 
L 757.319856 525.707251 
L 753.589802 533.143633 
L 750.094369 540.778224 
L 746.831277 548.611728 
L 743.795954 556.642829 
L 740.98154 564.868208 
L 738.378912 573.282572 
L 735.976711 581.878698 
L 733.761392 590.647486 
L 731.717287 599.578026 
L 729.826673 608.657674 
L 728.069857 617.872137 
L 726.425276 627.205573 
L 724.869596 636.640694 
L 723.377838 646.158887 
L 721.923501 655.740333 
L 720.478699 665.364146 
L 719.014307 675.00851 
L 717.500121 684.650832 
L 715.905016 694.267897 
L 714.197119 703.836031 
L 712.343988 713.331273 
L 710.312797 722.72955 
L 708.070531 732.006862 
L 705.584179 741.139464 
L 702.820941 750.104067 
L 699.748436 758.878029 
L 696.334913 767.439557 
L 692.549473 775.767917 
L 688.362287 783.84364 
L 683.744818 791.648732 
L 678.670054 799.166892 
L 673.112733 806.383731 
L 667.049576 813.286984 
L 660.459519 819.866736 
L 653.323947 826.115644 
L 645.626929 832.029155 
L 637.35545 837.605734 
L 628.499646 842.847082 
L 619.053039 847.758362 
L 609.012764 852.348417 
L 598.379803 856.629993 
L 587.15921 860.619957 
L 575.360336 864.339513 
L 562.997051 867.814417 
L 550.087962 871.075187 
L 536.656626 874.157314 
L 522.731762 877.101464 
L 508.34745 879.953681 
L 493.543336 882.765583 
L 478.364819 885.594551 
L 462.863242 888.503922 
L 447.096069 891.563164 
L 431.127058 894.848054 
" clip-path="url(#pd07c5f0ce5)" style="fill: none; stroke: #8c564b; stroke-width: 1.5"/>
    <path d="M 1050.746192 223.107465 
L 1037.759605 227.114933 
L 1027.970927 231.410597 
L 1019.44355 236.368268 
L 1011.850318 241.949742 
L 1004.947766 248.144987 
L 998.568656 254.938929 
L 992.599886 262.294119 
L 986.959505 270.149273 
L 981.580416 278.426505 
L 976.401681 287.0404 
L 971.365225 295.90539 
L 961.500223 314.071748 
L 951.508255 332.510066 
L 946.399175 341.621234 
L 941.174958 350.599359 
L 935.815408 359.407894 
L 930.308435 368.016624 
L 924.649773 376.401536 
L 918.842427 384.544779 
L 912.89588 392.434624 
L 906.825101 400.065357 
L 900.649466 407.437026 
L 894.391642 414.555011 
L 888.07655 421.429438 
L 881.730434 428.074465 
L 875.380088 434.507494 
L 862.772945 446.818632 
L 832.80341 475.535906 
L 827.25145 481.099205 
L 821.889625 486.648213 
L 816.729022 492.203227 
L 811.777857 497.784161 
L 807.041504 503.410752 
L 802.52265 509.102768 
L 798.221574 514.880147 
L 794.136546 520.763041 
L 790.264286 526.771705 
L 786.600455 532.926222 
L 783.140091 539.246081 
L 779.877941 545.749633 
L 776.808636 552.453491 
L 773.926711 559.371952 
L 771.226458 566.516496 
L 768.70167 573.895421 
L 766.345301 581.513622 
L 764.149112 589.372545 
L 762.103329 597.470268 
L 760.196353 605.801703 
L 758.414532 614.358871 
L 756.742008 623.131229 
L 753.649875 641.268614 
L 749.298137 669.740062 
L 746.257015 689.420507 
L 744.601209 699.390124 
L 742.80711 709.419677 
L 740.835924 719.489055 
L 738.646732 729.577679 
L 736.196572 739.664179 
L 733.440629 749.725902 
L 730.332606 759.738227 
L 726.825388 769.67374 
L 722.872095 779.501343 
L 718.427602 789.185486 
L 713.450529 798.685768 
L 707.905553 807.957245 
L 701.765717 816.95169 
L 695.014262 825.619939 
L 687.645438 833.9151 
L 679.663966 841.796121 
L 671.083149 849.230995 
L 661.922039 856.198932 
L 652.202365 862.691144 
L 641.945908 868.710314 
L 631.172807 874.269113 
L 619.900928 879.388324 
L 608.146168 884.095004 
L 595.923396 888.420996 
L 583.24773 892.401903 
L 570.135909 896.076501 
L 556.607589 899.486508 
L 542.686491 902.676596 
L 528.401388 905.694541 
L 513.78692 908.591434 
L 452.809008 920.148087 
L 437.000309 923.4 
L 437.000309 923.4 
" clip-path="url(#pd07c5f0ce5)" style="fill: none; stroke: #17becf; stroke-width: 1.5"/>
   </g>
   <g id="patch_3">
    <path d="M 393.979188 961.2 
L 393.979188 129.6 
" style="fill: none; stroke: #000000; stroke-width: 0.8; stroke-linejoin: miter; stroke-linecap: square"/>
   </g>
   <g id="patch_4">
    <path d="M 1082.020812 961.2 
L 1082.020812 129.6 
" style="fill: none; stroke: #000000; stroke-width: 0.8; stroke-linejoin: miter; stroke-linecap: square"/>
   </g>
   <g id="patch_5">
    <path d="M 393.979188 961.2 
L 1082.020812 961.2 
" style="fill: none; stroke: #000000; stroke-width: 0.8; stroke-linejoin: miter; stroke-linecap: square"/>
   </g>
   <g id="patch_6">
    <path d="M 393.979188 129.6 
L 1082.020812 129.6 
" style="fill: none; stroke: #000000; stroke-width: 0.8; stroke-linejoin: miter; stroke-linecap: square"/>
   </g>
  </g>
 </g>
 <defs>
  <clipPath id="pd07c5f0ce5">
   <rect x="393.979188" y="129.6" width="688.041623" height="831.6"/>
  </clipPath>
 </defs>
</svg>
