<?xml version="1.0" encoding="utf-8" standalone="no"?>
<!DOCTYPE svg PUBLIC "-//W3C//DTD SVG 1.1//EN"
  "http://www.w3.org/Graphics/SVG/1.1/DTD/svg11.dtd">
<svg xmlns:xlink="http://www.w3.org/1999/xlink" width="1440pt" height="1080pt" viewBox="0 0 1440 1080" xmlns="http://www.w3.org/2000/svg" version="1.1">
 <metadata>
  <rdf:RDF xmlns:dc="http://purl.org/dc/elements/1.1/" xmlns:cc="http://creativecommons.org/ns#" xmlns:rdf="http://www.w3.org/1999/02/22-rdf-syntax-ns#">
   <cc:Work>
    <dc:type rdf:resource="http://purl.org/dc/dcmitype/StillImage"/>
    <dc:date>2023-12-11T12:06:51.525366</dc:date>
    <dc:format>image/svg+xml</dc:format>
    <dc:creator>
     <cc:Agent>
      <dc:title>Matplotlib v3.7.1, https://matplotlib.org/</dc:title>
     </cc:Agent>
    </dc:creator>
   </cc:Work>
  </rdf:RDF>
 </metadata>
 <defs>
  <style type="text/css">*{stroke-linejoin: round; stroke-linecap: butt}</style>
 </defs>
 <g id="figure_1">
  <g id="patch_1">
   <path d="M 0 1080 
L 1440 1080 
L 1440 0 
L 0 0 
z
" style="fill: #ffffff"/>
  </g>
  <g id="axes_1">
   <g id="patch_2">
    <path d="M 180 789.32271 
L 1296 789.32271 
L 1296 301.47729 
L 180 301.47729 
z
" style="fill: #ffffff"/>
   </g>
   <g id="matplotlib.axis_1">
    <g id="xtick_1">
     <g id="line2d_1">
      <defs>
       <path id="m7ca3935d8c" d="M 0 0 
L 0 3.5 
" style="stroke: #000000; stroke-width: 0.8"/>
      </defs>
      <g>
       <use xlink:href="#m7ca3935d8c" x="210.583309" y="789.32271" style="stroke: #000000; stroke-width: 0.8"/>
      </g>
     </g>
     <g id="text_1">
      <!-- 700 -->
      <g transform="translate(201.039559 803.921148) scale(0.1 -0.1)">
       <defs>
        <path id="DejaVuSans-37" d="M 525 4666 
L 3525 4666 
L 3525 4397 
L 1831 0 
L 1172 0 
L 2766 4134 
L 525 4134 
L 525 4666 
z
" transform="scale(0.015625)"/>
        <path id="DejaVuSans-30" d="M 2034 4250 
Q 1547 4250 1301 3770 
Q 1056 3291 1056 2328 
Q 1056 1369 1301 889 
Q 1547 409 2034 409 
Q 2525 409 2770 889 
Q 3016 1369 3016 2328 
Q 3016 3291 2770 3770 
Q 2525 4250 2034 4250 
z
M 2034 4750 
Q 2819 4750 3233 4129 
Q 3647 3509 3647 2328 
Q 3647 1150 3233 529 
Q 2819 -91 2034 -91 
Q 1250 -91 836 529 
Q 422 1150 422 2328 
Q 422 3509 836 4129 
Q 1250 4750 2034 4750 
z
" transform="scale(0.015625)"/>
       </defs>
       <use xlink:href="#DejaVuSans-37"/>
       <use xlink:href="#DejaVuSans-30" x="63.623047"/>
       <use xlink:href="#DejaVuSans-30" x="127.246094"/>
      </g>
     </g>
    </g>
    <g id="xtick_2">
     <g id="line2d_2">
      <g>
       <use xlink:href="#m7ca3935d8c" x="350.029433" y="789.32271" style="stroke: #000000; stroke-width: 0.8"/>
      </g>
     </g>
     <g id="text_2">
      <!-- 800 -->
      <g transform="translate(340.485683 803.921148) scale(0.1 -0.1)">
       <defs>
        <path id="DejaVuSans-38" d="M 2034 2216 
Q 1584 2216 1326 1975 
Q 1069 1734 1069 1313 
Q 1069 891 1326 650 
Q 1584 409 2034 409 
Q 2484 409 2743 651 
Q 3003 894 3003 1313 
Q 3003 1734 2745 1975 
Q 2488 2216 2034 2216 
z
M 1403 2484 
Q 997 2584 770 2862 
Q 544 3141 544 3541 
Q 544 4100 942 4425 
Q 1341 4750 2034 4750 
Q 2731 4750 3128 4425 
Q 3525 4100 3525 3541 
Q 3525 3141 3298 2862 
Q 3072 2584 2669 2484 
Q 3125 2378 3379 2068 
Q 3634 1759 3634 1313 
Q 3634 634 3220 271 
Q 2806 -91 2034 -91 
Q 1263 -91 848 271 
Q 434 634 434 1313 
Q 434 1759 690 2068 
Q 947 2378 1403 2484 
z
M 1172 3481 
Q 1172 3119 1398 2916 
Q 1625 2713 2034 2713 
Q 2441 2713 2670 2916 
Q 2900 3119 2900 3481 
Q 2900 3844 2670 4047 
Q 2441 4250 2034 4250 
Q 1625 4250 1398 4047 
Q 1172 3844 1172 3481 
z
" transform="scale(0.015625)"/>
       </defs>
       <use xlink:href="#DejaVuSans-38"/>
       <use xlink:href="#DejaVuSans-30" x="63.623047"/>
       <use xlink:href="#DejaVuSans-30" x="127.246094"/>
      </g>
     </g>
    </g>
    <g id="xtick_3">
     <g id="line2d_3">
      <g>
       <use xlink:href="#m7ca3935d8c" x="489.475557" y="789.32271" style="stroke: #000000; stroke-width: 0.8"/>
      </g>
     </g>
     <g id="text_3">
      <!-- 900 -->
      <g transform="translate(479.931807 803.921148) scale(0.1 -0.1)">
       <defs>
        <path id="DejaVuSans-39" d="M 703 97 
L 703 672 
Q 941 559 1184 500 
Q 1428 441 1663 441 
Q 2288 441 2617 861 
Q 2947 1281 2994 2138 
Q 2813 1869 2534 1725 
Q 2256 1581 1919 1581 
Q 1219 1581 811 2004 
Q 403 2428 403 3163 
Q 403 3881 828 4315 
Q 1253 4750 1959 4750 
Q 2769 4750 3195 4129 
Q 3622 3509 3622 2328 
Q 3622 1225 3098 567 
Q 2575 -91 1691 -91 
Q 1453 -91 1209 -44 
Q 966 3 703 97 
z
M 1959 2075 
Q 2384 2075 2632 2365 
Q 2881 2656 2881 3163 
Q 2881 3666 2632 3958 
Q 2384 4250 1959 4250 
Q 1534 4250 1286 3958 
Q 1038 3666 1038 3163 
Q 1038 2656 1286 2365 
Q 1534 2075 1959 2075 
z
" transform="scale(0.015625)"/>
       </defs>
       <use xlink:href="#DejaVuSans-39"/>
       <use xlink:href="#DejaVuSans-30" x="63.623047"/>
       <use xlink:href="#DejaVuSans-30" x="127.246094"/>
      </g>
     </g>
    </g>
    <g id="xtick_4">
     <g id="line2d_4">
      <g>
       <use xlink:href="#m7ca3935d8c" x="628.921681" y="789.32271" style="stroke: #000000; stroke-width: 0.8"/>
      </g>
     </g>
     <g id="text_4">
      <!-- 1000 -->
      <g transform="translate(616.196681 803.921148) scale(0.1 -0.1)">
       <defs>
        <path id="DejaVuSans-31" d="M 794 531 
L 1825 531 
L 1825 4091 
L 703 3866 
L 703 4441 
L 1819 4666 
L 2450 4666 
L 2450 531 
L 3481 531 
L 3481 0 
L 794 0 
L 794 531 
z
" transform="scale(0.015625)"/>
       </defs>
       <use xlink:href="#DejaVuSans-31"/>
       <use xlink:href="#DejaVuSans-30" x="63.623047"/>
       <use xlink:href="#DejaVuSans-30" x="127.246094"/>
       <use xlink:href="#DejaVuSans-30" x="190.869141"/>
      </g>
     </g>
    </g>
    <g id="xtick_5">
     <g id="line2d_5">
      <g>
       <use xlink:href="#m7ca3935d8c" x="768.367805" y="789.32271" style="stroke: #000000; stroke-width: 0.8"/>
      </g>
     </g>
     <g id="text_5">
      <!-- 1100 -->
      <g transform="translate(755.642805 803.921148) scale(0.1 -0.1)">
       <use xlink:href="#DejaVuSans-31"/>
       <use xlink:href="#DejaVuSans-31" x="63.623047"/>
       <use xlink:href="#DejaVuSans-30" x="127.246094"/>
       <use xlink:href="#DejaVuSans-30" x="190.869141"/>
      </g>
     </g>
    </g>
    <g id="xtick_6">
     <g id="line2d_6">
      <g>
       <use xlink:href="#m7ca3935d8c" x="907.813929" y="789.32271" style="stroke: #000000; stroke-width: 0.8"/>
      </g>
     </g>
     <g id="text_6">
      <!-- 1200 -->
      <g transform="translate(895.088929 803.921148) scale(0.1 -0.1)">
       <defs>
        <path id="DejaVuSans-32" d="M 1228 531 
L 3431 531 
L 3431 0 
L 469 0 
L 469 531 
Q 828 903 1448 1529 
Q 2069 2156 2228 2338 
Q 2531 2678 2651 2914 
Q 2772 3150 2772 3378 
Q 2772 3750 2511 3984 
Q 2250 4219 1831 4219 
Q 1534 4219 1204 4116 
Q 875 4013 500 3803 
L 500 4441 
Q 881 4594 1212 4672 
Q 1544 4750 1819 4750 
Q 2544 4750 2975 4387 
Q 3406 4025 3406 3419 
Q 3406 3131 3298 2873 
Q 3191 2616 2906 2266 
Q 2828 2175 2409 1742 
Q 1991 1309 1228 531 
z
" transform="scale(0.015625)"/>
       </defs>
       <use xlink:href="#DejaVuSans-31"/>
       <use xlink:href="#DejaVuSans-32" x="63.623047"/>
       <use xlink:href="#DejaVuSans-30" x="127.246094"/>
       <use xlink:href="#DejaVuSans-30" x="190.869141"/>
      </g>
     </g>
    </g>
    <g id="xtick_7">
     <g id="line2d_7">
      <g>
       <use xlink:href="#m7ca3935d8c" x="1047.260053" y="789.32271" style="stroke: #000000; stroke-width: 0.8"/>
      </g>
     </g>
     <g id="text_7">
      <!-- 1300 -->
      <g transform="translate(1034.535053 803.921148) scale(0.1 -0.1)">
       <defs>
        <path id="DejaVuSans-33" d="M 2597 2516 
Q 3050 2419 3304 2112 
Q 3559 1806 3559 1356 
Q 3559 666 3084 287 
Q 2609 -91 1734 -91 
Q 1441 -91 1130 -33 
Q 819 25 488 141 
L 488 750 
Q 750 597 1062 519 
Q 1375 441 1716 441 
Q 2309 441 2620 675 
Q 2931 909 2931 1356 
Q 2931 1769 2642 2001 
Q 2353 2234 1838 2234 
L 1294 2234 
L 1294 2753 
L 1863 2753 
Q 2328 2753 2575 2939 
Q 2822 3125 2822 3475 
Q 2822 3834 2567 4026 
Q 2313 4219 1838 4219 
Q 1578 4219 1281 4162 
Q 984 4106 628 3988 
L 628 4550 
Q 988 4650 1302 4700 
Q 1616 4750 1894 4750 
Q 2613 4750 3031 4423 
Q 3450 4097 3450 3541 
Q 3450 3153 3228 2886 
Q 3006 2619 2597 2516 
z
" transform="scale(0.015625)"/>
       </defs>
       <use xlink:href="#DejaVuSans-31"/>
       <use xlink:href="#DejaVuSans-33" x="63.623047"/>
       <use xlink:href="#DejaVuSans-30" x="127.246094"/>
       <use xlink:href="#DejaVuSans-30" x="190.869141"/>
      </g>
     </g>
    </g>
    <g id="xtick_8">
     <g id="line2d_8">
      <g>
       <use xlink:href="#m7ca3935d8c" x="1186.706177" y="789.32271" style="stroke: #000000; stroke-width: 0.8"/>
      </g>
     </g>
     <g id="text_8">
      <!-- 1400 -->
      <g transform="translate(1173.981177 803.921148) scale(0.1 -0.1)">
       <defs>
        <path id="DejaVuSans-34" d="M 2419 4116 
L 825 1625 
L 2419 1625 
L 2419 4116 
z
M 2253 4666 
L 3047 4666 
L 3047 1625 
L 3713 1625 
L 3713 1100 
L 3047 1100 
L 3047 0 
L 2419 0 
L 2419 1100 
L 313 1100 
L 313 1709 
L 2253 4666 
z
" transform="scale(0.015625)"/>
       </defs>
       <use xlink:href="#DejaVuSans-31"/>
       <use xlink:href="#DejaVuSans-34" x="63.623047"/>
       <use xlink:href="#DejaVuSans-30" x="127.246094"/>
       <use xlink:href="#DejaVuSans-30" x="190.869141"/>
      </g>
     </g>
    </g>
   </g>
   <g id="matplotlib.axis_2">
    <g id="ytick_1">
     <g id="line2d_9">
      <defs>
       <path id="mdfec136730" d="M 0 0 
L -3.5 0 
" style="stroke: #000000; stroke-width: 0.8"/>
      </defs>
      <g>
       <use xlink:href="#mdfec136730" x="180" y="775.6234" style="stroke: #000000; stroke-width: 0.8"/>
      </g>
     </g>
     <g id="text_9">
      <!-- 600 -->
      <g transform="translate(153.9125 779.422619) scale(0.1 -0.1)">
       <defs>
        <path id="DejaVuSans-36" d="M 2113 2584 
Q 1688 2584 1439 2293 
Q 1191 2003 1191 1497 
Q 1191 994 1439 701 
Q 1688 409 2113 409 
Q 2538 409 2786 701 
Q 3034 994 3034 1497 
Q 3034 2003 2786 2293 
Q 2538 2584 2113 2584 
z
M 3366 4563 
L 3366 3988 
Q 3128 4100 2886 4159 
Q 2644 4219 2406 4219 
Q 1781 4219 1451 3797 
Q 1122 3375 1075 2522 
Q 1259 2794 1537 2939 
Q 1816 3084 2150 3084 
Q 2853 3084 3261 2657 
Q 3669 2231 3669 1497 
Q 3669 778 3244 343 
Q 2819 -91 2113 -91 
Q 1303 -91 875 529 
Q 447 1150 447 2328 
Q 447 3434 972 4092 
Q 1497 4750 2381 4750 
Q 2619 4750 2861 4703 
Q 3103 4656 3366 4563 
z
" transform="scale(0.015625)"/>
       </defs>
       <use xlink:href="#DejaVuSans-36"/>
       <use xlink:href="#DejaVuSans-30" x="63.623047"/>
       <use xlink:href="#DejaVuSans-30" x="127.246094"/>
      </g>
     </g>
    </g>
    <g id="ytick_2">
     <g id="line2d_10">
      <g>
       <use xlink:href="#mdfec136730" x="180" y="705.900338" style="stroke: #000000; stroke-width: 0.8"/>
      </g>
     </g>
     <g id="text_10">
      <!-- 650 -->
      <g transform="translate(153.9125 709.699557) scale(0.1 -0.1)">
       <defs>
        <path id="DejaVuSans-35" d="M 691 4666 
L 3169 4666 
L 3169 4134 
L 1269 4134 
L 1269 2991 
Q 1406 3038 1543 3061 
Q 1681 3084 1819 3084 
Q 2600 3084 3056 2656 
Q 3513 2228 3513 1497 
Q 3513 744 3044 326 
Q 2575 -91 1722 -91 
Q 1428 -91 1123 -41 
Q 819 9 494 109 
L 494 744 
Q 775 591 1075 516 
Q 1375 441 1709 441 
Q 2250 441 2565 725 
Q 2881 1009 2881 1497 
Q 2881 1984 2565 2268 
Q 2250 2553 1709 2553 
Q 1456 2553 1204 2497 
Q 953 2441 691 2322 
L 691 4666 
z
" transform="scale(0.015625)"/>
       </defs>
       <use xlink:href="#DejaVuSans-36"/>
       <use xlink:href="#DejaVuSans-35" x="63.623047"/>
       <use xlink:href="#DejaVuSans-30" x="127.246094"/>
      </g>
     </g>
    </g>
    <g id="ytick_3">
     <g id="line2d_11">
      <g>
       <use xlink:href="#mdfec136730" x="180" y="636.177276" style="stroke: #000000; stroke-width: 0.8"/>
      </g>
     </g>
     <g id="text_11">
      <!-- 700 -->
      <g transform="translate(153.9125 639.976495) scale(0.1 -0.1)">
       <use xlink:href="#DejaVuSans-37"/>
       <use xlink:href="#DejaVuSans-30" x="63.623047"/>
       <use xlink:href="#DejaVuSans-30" x="127.246094"/>
      </g>
     </g>
    </g>
    <g id="ytick_4">
     <g id="line2d_12">
      <g>
       <use xlink:href="#mdfec136730" x="180" y="566.454214" style="stroke: #000000; stroke-width: 0.8"/>
      </g>
     </g>
     <g id="text_12">
      <!-- 750 -->
      <g transform="translate(153.9125 570.253433) scale(0.1 -0.1)">
       <use xlink:href="#DejaVuSans-37"/>
       <use xlink:href="#DejaVuSans-35" x="63.623047"/>
       <use xlink:href="#DejaVuSans-30" x="127.246094"/>
      </g>
     </g>
    </g>
    <g id="ytick_5">
     <g id="line2d_13">
      <g>
       <use xlink:href="#mdfec136730" x="180" y="496.731152" style="stroke: #000000; stroke-width: 0.8"/>
      </g>
     </g>
     <g id="text_13">
      <!-- 800 -->
      <g transform="translate(153.9125 500.530371) scale(0.1 -0.1)">
       <use xlink:href="#DejaVuSans-38"/>
       <use xlink:href="#DejaVuSans-30" x="63.623047"/>
       <use xlink:href="#DejaVuSans-30" x="127.246094"/>
      </g>
     </g>
    </g>
    <g id="ytick_6">
     <g id="line2d_14">
      <g>
       <use xlink:href="#mdfec136730" x="180" y="427.00809" style="stroke: #000000; stroke-width: 0.8"/>
      </g>
     </g>
     <g id="text_14">
      <!-- 850 -->
      <g transform="translate(153.9125 430.807309) scale(0.1 -0.1)">
       <use xlink:href="#DejaVuSans-38"/>
       <use xlink:href="#DejaVuSans-35" x="63.623047"/>
       <use xlink:href="#DejaVuSans-30" x="127.246094"/>
      </g>
     </g>
    </g>
    <g id="ytick_7">
     <g id="line2d_15">
      <g>
       <use xlink:href="#mdfec136730" x="180" y="357.285028" style="stroke: #000000; stroke-width: 0.8"/>
      </g>
     </g>
     <g id="text_15">
      <!-- 900 -->
      <g transform="translate(153.9125 361.084247) scale(0.1 -0.1)">
       <use xlink:href="#DejaVuSans-39"/>
       <use xlink:href="#DejaVuSans-30" x="63.623047"/>
       <use xlink:href="#DejaVuSans-30" x="127.246094"/>
      </g>
     </g>
    </g>
   </g>
   <g id="LineCollection_1">
    <path d="M 230.727273 685.1259 
L 248.715184 692.504851 
L 266.356946 700.133094 
L 301.014632 715.667758 
L 317.966833 723.264594 
L 334.595363 730.550066 
L 350.877382 737.406525 
L 366.797237 743.731703 
L 382.345567 749.437329 
L 397.51822 754.44769 
L 412.314889 758.698225 
L 426.737354 762.13432 
L 440.787329 764.710521 
L 454.464065 766.390484 
L 467.762136 767.147918 
L 480.670074 766.968542 
L 493.170614 765.852665 
L 505.242998 763.817499 
L 516.867058 760.898083 
L 528.027969 757.146057 
L 538.720197 752.626361 
L 548.949507 747.412763 
L 558.732766 741.583449 
L 568.096073 735.217627 
L 577.072106 728.393478 
L 585.697446 721.187303 
L 594.010364 713.673447 
L 602.049174 705.924605 
L 609.851143 698.012193 
L 617.451796 690.006643 
L 632.18016 673.993456 
L 646.539063 658.356769 
L 653.620353 650.869738 
L 660.66428 643.687071 
L 667.688828 636.866592 
L 674.709291 630.461615 
L 681.738735 624.519826 
L 688.788857 619.082105 
L 695.871334 614.181481 
L 702.999699 609.842486 
L 710.191559 606.081303 
L 717.470722 602.90703 
L 724.868519 600.324167 
L 732.423565 598.335941 
L 740.179532 596.947606 
L 748.181224 596.1686 
L 756.469959 596.012808 
L 765.07956 596.496864 
L 774.033914 597.637197 
L 783.346387 599.446808 
L 793.020718 601.932591 
L 803.052729 605.093582 
L 813.432245 608.920134 
L 824.144809 613.393802 
L 835.173036 618.487655 
L 846.497564 624.166801 
L 858.097691 630.388978 
L 869.95177 637.105117 
L 882.037445 644.259866 
L 894.331809 651.792037 
L 906.811521 659.635023 
L 932.232165 675.962056 
L 958.161303 692.645756 
L 971.244004 700.896508 
L 984.376494 708.963947 
L 997.540189 716.752152 
L 1010.719387 724.161499 
L 1023.902319 731.088197 
L 1037.082304 737.423245 
L 1050.25874 743.050441 
L 1063.437266 747.843014 
L 1076.627662 751.65855 
L 1089.836941 754.332768 
L 1103.054351 755.675117 
L 1114.037794 755.627037 
L 1116.227113 755.473529 
L 1126.845173 754.024536 
L 1129.234908 753.518476 
L 1140.689224 750.150827 
L 1141.885424 749.647775 
L 1152.843668 744.474521 
L 1153.953287 743.788312 
L 1164.30347 736.759997 
L 1165.249862 735.956072 
L 1174.11886 727.836799 
L 1175.674128 726.207473 
L 1184.041096 716.168215 
L 1185.212102 714.581689 
L 1193.901828 701.0721 
L 1201.797565 685.629005 
L 1208.949169 668.175929 
L 1215.395164 648.625681 
L 1221.163136 626.891455 
L 1226.272707 602.893305 
L 1230.738795 576.561612 
L 1234.574382 547.838881 
L 1237.79265 516.680741 
L 1240.408592 483.056629 
L 1242.440231 446.95036 
L 1243.909558 408.360724 
L 1244.843298 367.302133 
L 1245.272727 323.983836 
L 1245.272727 323.983836 
" clip-path="url(#p4c6faac679)" style="fill: none; stroke: #1f77b4; stroke-width: 1.5"/>
    <path d="M 237.078073 669.644346 
L 255.211794 677.083111 
L 273.083906 684.810956 
L 290.646552 692.638739 
L 307.858236 700.397648 
L 324.683502 707.938226 
L 341.092621 715.129404 
L 357.061281 721.857552 
L 372.570285 728.025555 
L 387.605255 733.5519 
L 402.156339 738.369784 
L 416.217928 742.426241 
L 429.788374 745.681282 
L 442.869722 748.107063 
L 455.467437 749.687059 
L 467.590145 750.415268 
L 479.249381 750.295425 
L 490.459335 749.34024 
L 501.236613 747.570651 
L 511.599999 745.015096 
L 521.570226 741.708805 
L 531.169748 737.693113 
L 540.422526 733.014785 
L 549.353816 727.725365 
L 557.989961 721.880547 
L 566.358196 715.539555 
L 574.486452 708.76455 
L 582.403171 701.620055 
L 590.137127 694.172399 
L 597.717254 686.489176 
L 605.172474 678.63873 
L 612.531545 670.689654 
L 619.8229 662.710313 
L 627.074505 654.768381 
L 634.313715 646.930401 
L 641.567145 639.261367 
L 648.860537 631.824321 
L 656.218648 624.67997 
L 663.665126 617.886326 
L 671.222415 611.498365 
L 678.911644 605.567704 
L 686.752544 600.1423 
L 694.763354 595.266165 
L 702.960749 590.97911 
L 711.35976 587.316497 
L 719.973717 584.309025 
L 728.814184 581.982521 
L 737.890913 580.357766 
L 747.211795 579.450331 
L 756.782829 579.270437 
L 766.608087 579.822841 
L 776.689695 581.106729 
L 787.027814 583.115645 
L 797.620635 585.837431 
L 808.464379 589.25419 
L 819.553297 593.342274 
L 830.879693 598.072284 
L 842.433937 603.4091 
L 854.204499 609.311928 
L 866.17798 615.734367 
L 878.33916 622.624501 
L 890.671047 629.925007 
L 903.154935 637.57329 
L 915.770469 645.501635 
L 928.495723 653.637382 
L 941.307273 661.903123 
L 954.180295 670.216918 
L 967.088655 678.492538 
L 980.005016 686.639725 
L 992.900947 694.564472 
L 1005.747048 702.169332 
L 1018.513072 709.353742 
L 1031.168062 716.014373 
L 1043.680497 722.0455 
L 1056.018439 727.339392 
L 1068.149692 731.786731 
L 1080.041975 735.277047 
L 1091.663087 737.699176 
L 1102.9811 738.941743 
L 1113.964543 738.893662 
L 1124.582603 737.44467 
L 1134.805335 734.485865 
L 1144.603871 729.910286 
L 1153.950651 723.613502 
L 1162.81965 715.49423 
L 1171.186617 705.454972 
L 1179.029329 693.402682 
L 1186.32784 679.249443 
L 1193.064752 662.913182 
L 1199.225486 644.318396 
L 1204.798561 623.396907 
L 1209.775888 600.08864 
L 1214.153067 574.342419 
L 1217.929694 546.116796 
L 1221.109677 515.380893 
L 1223.701557 482.115271 
L 1225.718845 446.312828 
L 1227.180361 407.97971 
L 1228.110586 367.136256 
L 1228.540015 323.817959 
" clip-path="url(#p4c6faac679)" style="fill: none; stroke: #8c564b; stroke-width: 1.5"/>
    <path d="M 243.428873 654.162792 
L 261.85306 661.723919 
L 279.89614 669.526825 
L 314.718503 685.135005 
L 331.463756 692.639724 
L 347.699921 699.755106 
L 363.402509 706.371148 
L 378.549792 712.395293 
L 393.12308 717.75194 
L 407.107114 722.382073 
L 420.490712 726.242944 
L 433.267761 729.307679 
L 445.438633 731.564623 
L 457.011939 733.016138 
L 468.006349 733.676571 
L 478.451926 733.569203 
L 488.390224 732.722374 
L 497.872531 731.165415 
L 506.956139 728.925446 
L 515.699352 726.026053 
L 524.156584 722.488206 
L 532.3749 718.332915 
L 540.392711 713.58449 
L 548.240465 708.273244 
L 555.942579 702.437001 
L 563.519761 696.121324 
L 570.991088 689.378776 
L 578.375579 682.267648 
L 585.693194 674.850507 
L 592.965376 667.192803 
L 607.467796 651.424809 
L 622.15649 635.432006 
L 629.619925 627.54492 
L 637.203811 619.818826 
L 644.940551 612.318104 
L 652.862802 605.106617 
L 661.002627 598.24819 
L 669.390202 591.807133 
L 678.052007 585.84853 
L 687.008556 580.438006 
L 696.271963 575.640552 
L 705.843943 571.518176 
L 715.715033 568.126479 
L 725.865708 565.510798 
L 736.269484 563.702972 
L 746.897334 562.719751 
L 757.722152 562.563287 
L 768.722022 563.223369 
L 779.881669 564.680454 
L 791.192162 566.908566 
L 802.649482 569.877421 
L 814.252608 573.55363 
L 826.001674 577.901107 
L 837.896448 582.880959 
L 849.935235 588.451101 
L 862.114158 594.565793 
L 874.426734 601.175203 
L 886.863665 608.225056 
L 899.412755 615.656379 
L 912.058903 623.40535 
L 924.784128 631.403226 
L 950.379146 647.842101 
L 976.068113 664.372187 
L 988.849501 672.434237 
L 1001.544269 680.235366 
L 1014.113709 687.676444 
L 1026.514925 694.65555 
L 1038.700127 701.068919 
L 1050.615796 706.812398 
L 1062.201879 711.783687 
L 1073.391445 715.885802 
L 1084.111852 719.032179 
L 1094.28938 721.15343 
L 1103.860388 722.204198 
L 1112.791589 722.165102 
L 1121.106649 721.030388 
L 1128.903699 718.773657 
L 1136.338954 715.30165 
L 1143.569249 710.43071 
L 1150.687851 703.913867 
L 1157.699815 695.500435 
L 1164.543592 684.983258 
L 1171.129312 672.212259 
L 1177.367792 657.084642 
L 1183.184199 639.529128 
L 1188.521282 619.493556 
L 1193.337949 596.937645 
L 1197.606613 571.829703 
L 1201.310768 544.145717 
L 1204.443172 513.869684 
L 1207.004628 480.994539 
L 1209.003253 445.523318 
L 1210.454087 407.470408 
L 1211.378939 366.8628 
L 1211.807302 323.652082 
L 1211.807302 323.652082 
" clip-path="url(#p4c6faac679)" style="fill: none; stroke: #17becf; stroke-width: 1.5"/>
   </g>
   <g id="patch_3">
    <path d="M 180 789.32271 
L 180 301.47729 
" style="fill: none; stroke: #000000; stroke-width: 0.8; stroke-linejoin: miter; stroke-linecap: square"/>
   </g>
   <g id="patch_4">
    <path d="M 1296 789.32271 
L 1296 301.47729 
" style="fill: none; stroke: #000000; stroke-width: 0.8; stroke-linejoin: miter; stroke-linecap: square"/>
   </g>
   <g id="patch_5">
    <path d="M 180 789.32271 
L 1296 789.32271 
" style="fill: none; stroke: #000000; stroke-width: 0.8; stroke-linejoin: miter; stroke-linecap: square"/>
   </g>
   <g id="patch_6">
    <path d="M 180 301.47729 
L 1296 301.47729 
" style="fill: none; stroke: #000000; stroke-width: 0.8; stroke-linejoin: miter; stroke-linecap: square"/>
   </g>
  </g>
 </g>
 <defs>
  <clipPath id="p4c6faac679">
   <rect x="180" y="301.47729" width="1116" height="487.845421"/>
  </clipPath>
 </defs>
</svg>
