<?xml version="1.0" encoding="utf-8" standalone="no"?>
<!DOCTYPE svg PUBLIC "-//W3C//DTD SVG 1.1//EN"
  "http://www.w3.org/Graphics/SVG/1.1/DTD/svg11.dtd">
<svg xmlns:xlink="http://www.w3.org/1999/xlink" width="1440pt" height="1080pt" viewBox="0 0 1440 1080" xmlns="http://www.w3.org/2000/svg" version="1.1">
 <metadata>
  <rdf:RDF xmlns:dc="http://purl.org/dc/elements/1.1/" xmlns:cc="http://creativecommons.org/ns#" xmlns:rdf="http://www.w3.org/1999/02/22-rdf-syntax-ns#">
   <cc:Work>
    <dc:type rdf:resource="http://purl.org/dc/dcmitype/StillImage"/>
    <dc:date>2023-12-11T12:06:52.569738</dc:date>
    <dc:format>image/svg+xml</dc:format>
    <dc:creator>
     <cc:Agent>
      <dc:title>Matplotlib v3.7.1, https://matplotlib.org/</dc:title>
     </cc:Agent>
    </dc:creator>
   </cc:Work>
  </rdf:RDF>
 </metadata>
 <defs>
  <style type="text/css">*{stroke-linejoin: round; stroke-linecap: butt}</style>
 </defs>
 <g id="figure_1">
  <g id="patch_1">
   <path d="M 0 1080 
L 1440 1080 
L 1440 0 
L 0 0 
z
" style="fill: #ffffff"/>
  </g>
  <g id="axes_1">
   <g id="patch_2">
    <path d="M 626.179307 961.2 
L 849.820693 961.2 
L 849.820693 129.6 
L 626.179307 129.6 
z
" style="fill: #ffffff"/>
   </g>
   <g id="matplotlib.axis_1">
    <g id="xtick_1">
     <g id="line2d_1">
      <defs>
       <path id="m227cbbc687" d="M 0 0 
L 0 3.5 
" style="stroke: #000000; stroke-width: 0.8"/>
      </defs>
      <g>
       <use xlink:href="#m227cbbc687" x="631.768323" y="961.2" style="stroke: #000000; stroke-width: 0.8"/>
      </g>
     </g>
     <g id="text_1">
      <!-- 1300 -->
      <g transform="translate(619.043323 975.798437) scale(0.1 -0.1)">
       <defs>
        <path id="DejaVuSans-31" d="M 794 531 
L 1825 531 
L 1825 4091 
L 703 3866 
L 703 4441 
L 1819 4666 
L 2450 4666 
L 2450 531 
L 3481 531 
L 3481 0 
L 794 0 
L 794 531 
z
" transform="scale(0.015625)"/>
        <path id="DejaVuSans-33" d="M 2597 2516 
Q 3050 2419 3304 2112 
Q 3559 1806 3559 1356 
Q 3559 666 3084 287 
Q 2609 -91 1734 -91 
Q 1441 -91 1130 -33 
Q 819 25 488 141 
L 488 750 
Q 750 597 1062 519 
Q 1375 441 1716 441 
Q 2309 441 2620 675 
Q 2931 909 2931 1356 
Q 2931 1769 2642 2001 
Q 2353 2234 1838 2234 
L 1294 2234 
L 1294 2753 
L 1863 2753 
Q 2328 2753 2575 2939 
Q 2822 3125 2822 3475 
Q 2822 3834 2567 4026 
Q 2313 4219 1838 4219 
Q 1578 4219 1281 4162 
Q 984 4106 628 3988 
L 628 4550 
Q 988 4650 1302 4700 
Q 1616 4750 1894 4750 
Q 2613 4750 3031 4423 
Q 3450 4097 3450 3541 
Q 3450 3153 3228 2886 
Q 3006 2619 2597 2516 
z
" transform="scale(0.015625)"/>
        <path id="DejaVuSans-30" d="M 2034 4250 
Q 1547 4250 1301 3770 
Q 1056 3291 1056 2328 
Q 1056 1369 1301 889 
Q 1547 409 2034 409 
Q 2525 409 2770 889 
Q 3016 1369 3016 2328 
Q 3016 3291 2770 3770 
Q 2525 4250 2034 4250 
z
M 2034 4750 
Q 2819 4750 3233 4129 
Q 3647 3509 3647 2328 
Q 3647 1150 3233 529 
Q 2819 -91 2034 -91 
Q 1250 -91 836 529 
Q 422 1150 422 2328 
Q 422 3509 836 4129 
Q 1250 4750 2034 4750 
z
" transform="scale(0.015625)"/>
       </defs>
       <use xlink:href="#DejaVuSans-31"/>
       <use xlink:href="#DejaVuSans-33" x="63.623047"/>
       <use xlink:href="#DejaVuSans-30" x="127.246094"/>
       <use xlink:href="#DejaVuSans-30" x="190.869141"/>
      </g>
     </g>
    </g>
    <g id="xtick_2">
     <g id="line2d_2">
      <g>
       <use xlink:href="#m227cbbc687" x="694.299803" y="961.2" style="stroke: #000000; stroke-width: 0.8"/>
      </g>
     </g>
     <g id="text_2">
      <!-- 1400 -->
      <g transform="translate(681.574803 975.798437) scale(0.1 -0.1)">
       <defs>
        <path id="DejaVuSans-34" d="M 2419 4116 
L 825 1625 
L 2419 1625 
L 2419 4116 
z
M 2253 4666 
L 3047 4666 
L 3047 1625 
L 3713 1625 
L 3713 1100 
L 3047 1100 
L 3047 0 
L 2419 0 
L 2419 1100 
L 313 1100 
L 313 1709 
L 2253 4666 
z
" transform="scale(0.015625)"/>
       </defs>
       <use xlink:href="#DejaVuSans-31"/>
       <use xlink:href="#DejaVuSans-34" x="63.623047"/>
       <use xlink:href="#DejaVuSans-30" x="127.246094"/>
       <use xlink:href="#DejaVuSans-30" x="190.869141"/>
      </g>
     </g>
    </g>
    <g id="xtick_3">
     <g id="line2d_3">
      <g>
       <use xlink:href="#m227cbbc687" x="756.831284" y="961.2" style="stroke: #000000; stroke-width: 0.8"/>
      </g>
     </g>
     <g id="text_3">
      <!-- 1500 -->
      <g transform="translate(744.106284 975.798437) scale(0.1 -0.1)">
       <defs>
        <path id="DejaVuSans-35" d="M 691 4666 
L 3169 4666 
L 3169 4134 
L 1269 4134 
L 1269 2991 
Q 1406 3038 1543 3061 
Q 1681 3084 1819 3084 
Q 2600 3084 3056 2656 
Q 3513 2228 3513 1497 
Q 3513 744 3044 326 
Q 2575 -91 1722 -91 
Q 1428 -91 1123 -41 
Q 819 9 494 109 
L 494 744 
Q 775 591 1075 516 
Q 1375 441 1709 441 
Q 2250 441 2565 725 
Q 2881 1009 2881 1497 
Q 2881 1984 2565 2268 
Q 2250 2553 1709 2553 
Q 1456 2553 1204 2497 
Q 953 2441 691 2322 
L 691 4666 
z
" transform="scale(0.015625)"/>
       </defs>
       <use xlink:href="#DejaVuSans-31"/>
       <use xlink:href="#DejaVuSans-35" x="63.623047"/>
       <use xlink:href="#DejaVuSans-30" x="127.246094"/>
       <use xlink:href="#DejaVuSans-30" x="190.869141"/>
      </g>
     </g>
    </g>
    <g id="xtick_4">
     <g id="line2d_4">
      <g>
       <use xlink:href="#m227cbbc687" x="819.362764" y="961.2" style="stroke: #000000; stroke-width: 0.8"/>
      </g>
     </g>
     <g id="text_4">
      <!-- 1600 -->
      <g transform="translate(806.637764 975.798437) scale(0.1 -0.1)">
       <defs>
        <path id="DejaVuSans-36" d="M 2113 2584 
Q 1688 2584 1439 2293 
Q 1191 2003 1191 1497 
Q 1191 994 1439 701 
Q 1688 409 2113 409 
Q 2538 409 2786 701 
Q 3034 994 3034 1497 
Q 3034 2003 2786 2293 
Q 2538 2584 2113 2584 
z
M 3366 4563 
L 3366 3988 
Q 3128 4100 2886 4159 
Q 2644 4219 2406 4219 
Q 1781 4219 1451 3797 
Q 1122 3375 1075 2522 
Q 1259 2794 1537 2939 
Q 1816 3084 2150 3084 
Q 2853 3084 3261 2657 
Q 3669 2231 3669 1497 
Q 3669 778 3244 343 
Q 2819 -91 2113 -91 
Q 1303 -91 875 529 
Q 447 1150 447 2328 
Q 447 3434 972 4092 
Q 1497 4750 2381 4750 
Q 2619 4750 2861 4703 
Q 3103 4656 3366 4563 
z
" transform="scale(0.015625)"/>
       </defs>
       <use xlink:href="#DejaVuSans-31"/>
       <use xlink:href="#DejaVuSans-36" x="63.623047"/>
       <use xlink:href="#DejaVuSans-30" x="127.246094"/>
       <use xlink:href="#DejaVuSans-30" x="190.869141"/>
      </g>
     </g>
    </g>
   </g>
   <g id="matplotlib.axis_2">
    <g id="ytick_1">
     <g id="line2d_5">
      <defs>
       <path id="m7052aa2a0f" d="M 0 0 
L -3.5 0 
" style="stroke: #000000; stroke-width: 0.8"/>
      </defs>
      <g>
       <use xlink:href="#m7052aa2a0f" x="626.179307" y="950.139581" style="stroke: #000000; stroke-width: 0.8"/>
      </g>
     </g>
     <g id="text_5">
      <!-- 200 -->
      <g transform="translate(600.091807 953.938799) scale(0.1 -0.1)">
       <defs>
        <path id="DejaVuSans-32" d="M 1228 531 
L 3431 531 
L 3431 0 
L 469 0 
L 469 531 
Q 828 903 1448 1529 
Q 2069 2156 2228 2338 
Q 2531 2678 2651 2914 
Q 2772 3150 2772 3378 
Q 2772 3750 2511 3984 
Q 2250 4219 1831 4219 
Q 1534 4219 1204 4116 
Q 875 4013 500 3803 
L 500 4441 
Q 881 4594 1212 4672 
Q 1544 4750 1819 4750 
Q 2544 4750 2975 4387 
Q 3406 4025 3406 3419 
Q 3406 3131 3298 2873 
Q 3191 2616 2906 2266 
Q 2828 2175 2409 1742 
Q 1991 1309 1228 531 
z
" transform="scale(0.015625)"/>
       </defs>
       <use xlink:href="#DejaVuSans-32"/>
       <use xlink:href="#DejaVuSans-30" x="63.623047"/>
       <use xlink:href="#DejaVuSans-30" x="127.246094"/>
      </g>
     </g>
    </g>
    <g id="ytick_2">
     <g id="line2d_6">
      <g>
       <use xlink:href="#m7052aa2a0f" x="626.179307" y="825.07662" style="stroke: #000000; stroke-width: 0.8"/>
      </g>
     </g>
     <g id="text_6">
      <!-- 400 -->
      <g transform="translate(600.091807 828.875839) scale(0.1 -0.1)">
       <use xlink:href="#DejaVuSans-34"/>
       <use xlink:href="#DejaVuSans-30" x="63.623047"/>
       <use xlink:href="#DejaVuSans-30" x="127.246094"/>
      </g>
     </g>
    </g>
    <g id="ytick_3">
     <g id="line2d_7">
      <g>
       <use xlink:href="#m7052aa2a0f" x="626.179307" y="700.013659" style="stroke: #000000; stroke-width: 0.8"/>
      </g>
     </g>
     <g id="text_7">
      <!-- 600 -->
      <g transform="translate(600.091807 703.812878) scale(0.1 -0.1)">
       <use xlink:href="#DejaVuSans-36"/>
       <use xlink:href="#DejaVuSans-30" x="63.623047"/>
       <use xlink:href="#DejaVuSans-30" x="127.246094"/>
      </g>
     </g>
    </g>
    <g id="ytick_4">
     <g id="line2d_8">
      <g>
       <use xlink:href="#m7052aa2a0f" x="626.179307" y="574.950698" style="stroke: #000000; stroke-width: 0.8"/>
      </g>
     </g>
     <g id="text_8">
      <!-- 800 -->
      <g transform="translate(600.091807 578.749917) scale(0.1 -0.1)">
       <defs>
        <path id="DejaVuSans-38" d="M 2034 2216 
Q 1584 2216 1326 1975 
Q 1069 1734 1069 1313 
Q 1069 891 1326 650 
Q 1584 409 2034 409 
Q 2484 409 2743 651 
Q 3003 894 3003 1313 
Q 3003 1734 2745 1975 
Q 2488 2216 2034 2216 
z
M 1403 2484 
Q 997 2584 770 2862 
Q 544 3141 544 3541 
Q 544 4100 942 4425 
Q 1341 4750 2034 4750 
Q 2731 4750 3128 4425 
Q 3525 4100 3525 3541 
Q 3525 3141 3298 2862 
Q 3072 2584 2669 2484 
Q 3125 2378 3379 2068 
Q 3634 1759 3634 1313 
Q 3634 634 3220 271 
Q 2806 -91 2034 -91 
Q 1263 -91 848 271 
Q 434 634 434 1313 
Q 434 1759 690 2068 
Q 947 2378 1403 2484 
z
M 1172 3481 
Q 1172 3119 1398 2916 
Q 1625 2713 2034 2713 
Q 2441 2713 2670 2916 
Q 2900 3119 2900 3481 
Q 2900 3844 2670 4047 
Q 2441 4250 2034 4250 
Q 1625 4250 1398 4047 
Q 1172 3844 1172 3481 
z
" transform="scale(0.015625)"/>
       </defs>
       <use xlink:href="#DejaVuSans-38"/>
       <use xlink:href="#DejaVuSans-30" x="63.623047"/>
       <use xlink:href="#DejaVuSans-30" x="127.246094"/>
      </g>
     </g>
    </g>
    <g id="ytick_5">
     <g id="line2d_9">
      <g>
       <use xlink:href="#m7052aa2a0f" x="626.179307" y="449.887737" style="stroke: #000000; stroke-width: 0.8"/>
      </g>
     </g>
     <g id="text_9">
      <!-- 1000 -->
      <g transform="translate(593.729307 453.686956) scale(0.1 -0.1)">
       <use xlink:href="#DejaVuSans-31"/>
       <use xlink:href="#DejaVuSans-30" x="63.623047"/>
       <use xlink:href="#DejaVuSans-30" x="127.246094"/>
       <use xlink:href="#DejaVuSans-30" x="190.869141"/>
      </g>
     </g>
    </g>
    <g id="ytick_6">
     <g id="line2d_10">
      <g>
       <use xlink:href="#m7052aa2a0f" x="626.179307" y="324.824776" style="stroke: #000000; stroke-width: 0.8"/>
      </g>
     </g>
     <g id="text_10">
      <!-- 1200 -->
      <g transform="translate(593.729307 328.623995) scale(0.1 -0.1)">
       <use xlink:href="#DejaVuSans-31"/>
       <use xlink:href="#DejaVuSans-32" x="63.623047"/>
       <use xlink:href="#DejaVuSans-30" x="127.246094"/>
       <use xlink:href="#DejaVuSans-30" x="190.869141"/>
      </g>
     </g>
    </g>
    <g id="ytick_7">
     <g id="line2d_11">
      <g>
       <use xlink:href="#m7052aa2a0f" x="626.179307" y="199.761815" style="stroke: #000000; stroke-width: 0.8"/>
      </g>
     </g>
     <g id="text_11">
      <!-- 1400 -->
      <g transform="translate(593.729307 203.561034) scale(0.1 -0.1)">
       <use xlink:href="#DejaVuSans-31"/>
       <use xlink:href="#DejaVuSans-34" x="63.623047"/>
       <use xlink:href="#DejaVuSans-30" x="127.246094"/>
       <use xlink:href="#DejaVuSans-30" x="190.869141"/>
      </g>
     </g>
    </g>
   </g>
   <g id="LineCollection_1">
    <path d="M 763.919344 923.4 
L 769.829841 912.748665 
L 774.734264 902.231331 
L 778.73024 891.865545 
L 781.912295 881.666671 
L 784.371243 871.646622 
L 786.193278 861.813247 
L 787.459076 852.17033 
L 788.243113 842.718039 
L 788.6133 833.453597 
L 788.630894 824.37201 
L 788.350657 815.466725 
L 787.821161 806.730183 
L 787.08518 798.154222 
L 786.180123 789.730383 
L 785.138466 781.450101 
L 782.753089 765.286145 
L 780.105489 749.595486 
L 775.903737 726.848578 
L 771.588061 704.737195 
L 765.778574 676.112956 
L 761.280438 655.044948 
L 758.13667 641.119599 
L 754.817594 627.256199 
L 751.271432 613.432516 
L 747.450186 599.632127 
L 743.313465 585.843781 
L 738.831861 572.060576 
L 733.98979 558.279041 
L 728.787765 544.498293 
L 723.244102 530.719369 
L 717.396145 516.944858 
L 711.301052 503.178842 
L 701.869921 482.559112 
L 689.302909 455.128806 
L 683.33025 441.481954 
L 677.777061 427.908599 
L 675.212315 421.157347 
L 672.819144 414.434481 
L 670.620772 407.743837 
L 668.640539 401.089306 
L 666.901663 394.474624 
L 665.427024 387.903062 
L 664.238964 381.377004 
L 663.359198 374.897406 
L 662.808869 368.463162 
L 662.608817 362.070441 
L 662.780123 355.712108 
L 663.344899 349.377385 
L 664.327255 343.051934 
L 665.754233 336.718456 
L 667.656481 330.357826 
L 670.068418 323.950595 
L 673.027785 317.478554 
L 676.574624 310.926049 
L 680.749912 304.280765 
L 685.594124 297.533917 
L 691.145985 290.679908 
L 697.441552 283.715635 
L 704.513666 276.639657 
L 712.391706 269.451372 
L 721.10156 262.150322 
L 730.665711 254.735652 
L 741.10336 247.205731 
L 752.430535 239.557902 
L 764.660165 231.788334 
L 777.802095 223.891944 
L 791.863054 215.862364 
L 806.846574 207.691931 
L 822.752864 199.371694 
L 839.655176 190.852853 
L 839.655176 190.852853 
" clip-path="url(#p48b28b65c4)" style="fill: none; stroke: #1f77b4; stroke-width: 1.5"/>
    <path d="M 752.45408 916.997896 
L 757.943379 907.167337 
L 762.493639 897.476723 
L 766.203879 887.924797 
L 769.165746 878.509981 
L 771.46384 869.230396 
L 773.176039 860.083884 
L 774.373811 851.06803 
L 775.122522 842.180177 
L 775.481739 833.417451 
L 775.505523 824.776776 
L 775.242721 816.254893 
L 774.737246 807.848378 
L 774.028351 799.553662 
L 773.150904 791.367046 
L 772.135644 783.284715 
L 771.009441 775.302761 
L 769.795549 767.417191 
L 768.513843 759.623949 
L 767.181061 751.918924 
L 765.811034 744.297972 
L 764.414912 736.756922 
L 763.001378 729.291594 
L 761.576866 721.897811 
L 760.145762 714.57141 
L 758.710605 707.308254 
L 757.272283 700.104245 
L 755.830214 692.955333 
L 754.382533 685.857523 
L 752.926263 678.806894 
L 751.457483 671.799597 
L 749.971492 664.83187 
L 748.462965 657.900046 
L 746.926101 651.000557 
L 745.354768 644.129944 
L 743.74264 637.284862 
L 742.08333 630.462086 
L 740.370511 623.658514 
L 738.598042 616.871177 
L 736.760074 610.097237 
L 734.851163 603.333993 
L 732.866366 596.578887 
L 730.80134 589.829499 
L 728.652431 583.083555 
L 726.416751 576.338925 
L 724.092265 569.593624 
L 721.677853 562.845813 
L 719.173379 556.093797 
L 716.579751 549.336021 
L 713.898973 542.571074 
L 711.134191 535.797681 
L 708.289737 529.014702 
L 705.371163 522.221127 
L 702.385271 515.416073 
L 699.340135 508.598776 
L 696.245124 501.768587 
L 693.110908 494.924966 
L 689.949469 488.067472 
L 686.774096 481.195757 
L 683.599389 474.309559 
L 680.441237 467.408687 
L 677.31681 460.493018 
L 674.24453 453.562482 
L 671.244049 446.617049 
L 668.336208 439.656722 
L 665.543004 432.681522 
L 662.887541 425.691471 
L 660.393977 418.686583 
L 658.087474 411.666846 
L 655.994129 404.632208 
L 654.140909 397.582557 
L 652.555577 390.517709 
L 651.266614 383.437386 
L 650.303132 376.341198 
L 649.694784 369.228627 
L 649.471672 362.099002 
L 649.66424 354.95148 
L 650.30317 347.785025 
L 651.41927 340.598386 
L 653.043355 333.390071 
L 655.206124 326.158325 
L 657.938031 318.901105 
L 661.269149 311.616055 
L 665.229035 304.300478 
L 669.84658 296.951309 
L 675.149859 289.565089 
L 681.165978 282.137933 
L 687.92091 274.665503 
L 695.439328 267.142977 
L 703.744436 259.565016 
L 712.857787 251.925734 
L 722.799104 244.218663 
L 733.586092 236.436722 
L 745.234239 228.572181 
L 757.756627 220.616622 
L 771.163718 212.560909 
L 785.463152 204.395146 
L 800.65953 196.108643 
L 816.754195 187.68987 
L 833.745005 179.126427 
" clip-path="url(#p48b28b65c4)" style="fill: none; stroke: #8c564b; stroke-width: 1.5"/>
    <path d="M 740.988816 910.595792 
L 746.253092 901.168219 
L 750.415931 892.302688 
L 753.807014 883.572425 
L 756.517128 874.957847 
L 758.626178 866.441616 
L 760.204619 858.009634 
L 761.315028 849.651381 
L 762.013516 841.359716 
L 762.350868 833.130343 
L 762.373355 824.961138 
L 762.123265 816.851487 
L 761.63924 808.801711 
L 760.956466 800.812626 
L 760.106802 792.885223 
L 759.11887 785.020454 
L 756.827071 769.481732 
L 754.248976 754.199774 
L 750.102928 731.755256 
L 744.397377 702.688072 
L 738.609891 674.51605 
L 734.116714 653.891957 
L 730.971679 640.341663 
L 727.650371 626.920504 
L 724.104121 613.600163 
L 720.287952 600.350895 
L 716.163607 587.142418 
L 711.70229 573.944908 
L 706.88718 560.729957 
L 701.715752 547.471366 
L 696.201892 534.145634 
L 690.377719 520.732068 
L 681.178679 500.40779 
L 665.311881 465.814756 
L 659.127329 451.679094 
L 656.145697 444.538386 
L 653.267349 437.344943 
L 650.516382 430.095291 
L 647.91854 422.785688 
L 645.501309 415.412197 
L 643.294018 407.970827 
L 641.327929 400.457753 
L 639.636305 392.869645 
L 638.254394 385.204115 
L 637.219292 377.460276 
L 636.569598 369.639363 
L 636.344824 361.74534 
L 636.584509 353.785348 
L 637.32711 345.769816 
L 638.608785 337.712092 
L 640.462323 329.627513 
L 642.916441 321.531998 
L 645.995668 313.440411 
L 649.720833 305.365008 
L 654.110016 297.314305 
L 659.179701 289.292529 
L 664.945841 281.299666 
L 671.424633 273.331946 
L 678.632923 265.382589 
L 686.588247 257.442587 
L 695.308607 249.501418 
L 704.812071 241.547599 
L 715.116291 233.569082 
L 726.238001 225.553489 
L 738.192538 217.488244 
L 750.993396 209.360605 
L 764.651826 201.157643 
L 779.176473 192.866189 
L 794.573047 184.472753 
L 810.844024 175.963444 
L 827.834833 167.4 
L 827.834833 167.4 
" clip-path="url(#p48b28b65c4)" style="fill: none; stroke: #17becf; stroke-width: 1.5"/>
   </g>
   <g id="patch_3">
    <path d="M 626.179307 961.2 
L 626.179307 129.6 
" style="fill: none; stroke: #000000; stroke-width: 0.8; stroke-linejoin: miter; stroke-linecap: square"/>
   </g>
   <g id="patch_4">
    <path d="M 849.820693 961.2 
L 849.820693 129.6 
" style="fill: none; stroke: #000000; stroke-width: 0.8; stroke-linejoin: miter; stroke-linecap: square"/>
   </g>
   <g id="patch_5">
    <path d="M 626.179307 961.2 
L 849.820693 961.2 
" style="fill: none; stroke: #000000; stroke-width: 0.8; stroke-linejoin: miter; stroke-linecap: square"/>
   </g>
   <g id="patch_6">
    <path d="M 626.179307 129.6 
L 849.820693 129.6 
" style="fill: none; stroke: #000000; stroke-width: 0.8; stroke-linejoin: miter; stroke-linecap: square"/>
   </g>
  </g>
 </g>
 <defs>
  <clipPath id="p48b28b65c4">
   <rect x="626.179307" y="129.6" width="223.641387" height="831.6"/>
  </clipPath>
 </defs>
</svg>
