<?xml version="1.0" encoding="utf-8" standalone="no"?>
<!DOCTYPE svg PUBLIC "-//W3C//DTD SVG 1.1//EN"
  "http://www.w3.org/Graphics/SVG/1.1/DTD/svg11.dtd">
<svg xmlns:xlink="http://www.w3.org/1999/xlink" width="1440pt" height="1080pt" viewBox="0 0 1440 1080" xmlns="http://www.w3.org/2000/svg" version="1.1">
 <metadata>
  <rdf:RDF xmlns:dc="http://purl.org/dc/elements/1.1/" xmlns:cc="http://creativecommons.org/ns#" xmlns:rdf="http://www.w3.org/1999/02/22-rdf-syntax-ns#">
   <cc:Work>
    <dc:type rdf:resource="http://purl.org/dc/dcmitype/StillImage"/>
    <dc:date>2023-12-11T12:06:45.755141</dc:date>
    <dc:format>image/svg+xml</dc:format>
    <dc:creator>
     <cc:Agent>
      <dc:title>Matplotlib v3.7.1, https://matplotlib.org/</dc:title>
     </cc:Agent>
    </dc:creator>
   </cc:Work>
  </rdf:RDF>
 </metadata>
 <defs>
  <style type="text/css">*{stroke-linejoin: round; stroke-linecap: butt}</style>
 </defs>
 <g id="figure_1">
  <g id="patch_1">
   <path d="M 0 1080 
L 1440 1080 
L 1440 0 
L 0 0 
z
" style="fill: #ffffff"/>
  </g>
  <g id="axes_1">
   <g id="patch_2">
    <path d="M 495.090061 961.2 
L 980.909939 961.2 
L 980.909939 129.6 
L 495.090061 129.6 
z
" style="fill: #ffffff"/>
   </g>
   <g id="matplotlib.axis_1">
    <g id="xtick_1">
     <g id="line2d_1">
      <defs>
       <path id="m70154bf0a5" d="M 0 0 
L 0 3.5 
" style="stroke: #000000; stroke-width: 0.8"/>
      </defs>
      <g>
       <use xlink:href="#m70154bf0a5" x="557.572881" y="961.2" style="stroke: #000000; stroke-width: 0.8"/>
      </g>
     </g>
     <g id="text_1">
      <!-- 300 -->
      <g transform="translate(548.029131 975.798437) scale(0.1 -0.1)">
       <defs>
        <path id="DejaVuSans-33" d="M 2597 2516 
Q 3050 2419 3304 2112 
Q 3559 1806 3559 1356 
Q 3559 666 3084 287 
Q 2609 -91 1734 -91 
Q 1441 -91 1130 -33 
Q 819 25 488 141 
L 488 750 
Q 750 597 1062 519 
Q 1375 441 1716 441 
Q 2309 441 2620 675 
Q 2931 909 2931 1356 
Q 2931 1769 2642 2001 
Q 2353 2234 1838 2234 
L 1294 2234 
L 1294 2753 
L 1863 2753 
Q 2328 2753 2575 2939 
Q 2822 3125 2822 3475 
Q 2822 3834 2567 4026 
Q 2313 4219 1838 4219 
Q 1578 4219 1281 4162 
Q 984 4106 628 3988 
L 628 4550 
Q 988 4650 1302 4700 
Q 1616 4750 1894 4750 
Q 2613 4750 3031 4423 
Q 3450 4097 3450 3541 
Q 3450 3153 3228 2886 
Q 3006 2619 2597 2516 
z
" transform="scale(0.015625)"/>
        <path id="DejaVuSans-30" d="M 2034 4250 
Q 1547 4250 1301 3770 
Q 1056 3291 1056 2328 
Q 1056 1369 1301 889 
Q 1547 409 2034 409 
Q 2525 409 2770 889 
Q 3016 1369 3016 2328 
Q 3016 3291 2770 3770 
Q 2525 4250 2034 4250 
z
M 2034 4750 
Q 2819 4750 3233 4129 
Q 3647 3509 3647 2328 
Q 3647 1150 3233 529 
Q 2819 -91 2034 -91 
Q 1250 -91 836 529 
Q 422 1150 422 2328 
Q 422 3509 836 4129 
Q 1250 4750 2034 4750 
z
" transform="scale(0.015625)"/>
       </defs>
       <use xlink:href="#DejaVuSans-33"/>
       <use xlink:href="#DejaVuSans-30" x="63.623047"/>
       <use xlink:href="#DejaVuSans-30" x="127.246094"/>
      </g>
     </g>
    </g>
    <g id="xtick_2">
     <g id="line2d_2">
      <g>
       <use xlink:href="#m70154bf0a5" x="656.164366" y="961.2" style="stroke: #000000; stroke-width: 0.8"/>
      </g>
     </g>
     <g id="text_2">
      <!-- 400 -->
      <g transform="translate(646.620616 975.798437) scale(0.1 -0.1)">
       <defs>
        <path id="DejaVuSans-34" d="M 2419 4116 
L 825 1625 
L 2419 1625 
L 2419 4116 
z
M 2253 4666 
L 3047 4666 
L 3047 1625 
L 3713 1625 
L 3713 1100 
L 3047 1100 
L 3047 0 
L 2419 0 
L 2419 1100 
L 313 1100 
L 313 1709 
L 2253 4666 
z
" transform="scale(0.015625)"/>
       </defs>
       <use xlink:href="#DejaVuSans-34"/>
       <use xlink:href="#DejaVuSans-30" x="63.623047"/>
       <use xlink:href="#DejaVuSans-30" x="127.246094"/>
      </g>
     </g>
    </g>
    <g id="xtick_3">
     <g id="line2d_3">
      <g>
       <use xlink:href="#m70154bf0a5" x="754.755851" y="961.2" style="stroke: #000000; stroke-width: 0.8"/>
      </g>
     </g>
     <g id="text_3">
      <!-- 500 -->
      <g transform="translate(745.212101 975.798437) scale(0.1 -0.1)">
       <defs>
        <path id="DejaVuSans-35" d="M 691 4666 
L 3169 4666 
L 3169 4134 
L 1269 4134 
L 1269 2991 
Q 1406 3038 1543 3061 
Q 1681 3084 1819 3084 
Q 2600 3084 3056 2656 
Q 3513 2228 3513 1497 
Q 3513 744 3044 326 
Q 2575 -91 1722 -91 
Q 1428 -91 1123 -41 
Q 819 9 494 109 
L 494 744 
Q 775 591 1075 516 
Q 1375 441 1709 441 
Q 2250 441 2565 725 
Q 2881 1009 2881 1497 
Q 2881 1984 2565 2268 
Q 2250 2553 1709 2553 
Q 1456 2553 1204 2497 
Q 953 2441 691 2322 
L 691 4666 
z
" transform="scale(0.015625)"/>
       </defs>
       <use xlink:href="#DejaVuSans-35"/>
       <use xlink:href="#DejaVuSans-30" x="63.623047"/>
       <use xlink:href="#DejaVuSans-30" x="127.246094"/>
      </g>
     </g>
    </g>
    <g id="xtick_4">
     <g id="line2d_4">
      <g>
       <use xlink:href="#m70154bf0a5" x="853.347336" y="961.2" style="stroke: #000000; stroke-width: 0.8"/>
      </g>
     </g>
     <g id="text_4">
      <!-- 600 -->
      <g transform="translate(843.803586 975.798437) scale(0.1 -0.1)">
       <defs>
        <path id="DejaVuSans-36" d="M 2113 2584 
Q 1688 2584 1439 2293 
Q 1191 2003 1191 1497 
Q 1191 994 1439 701 
Q 1688 409 2113 409 
Q 2538 409 2786 701 
Q 3034 994 3034 1497 
Q 3034 2003 2786 2293 
Q 2538 2584 2113 2584 
z
M 3366 4563 
L 3366 3988 
Q 3128 4100 2886 4159 
Q 2644 4219 2406 4219 
Q 1781 4219 1451 3797 
Q 1122 3375 1075 2522 
Q 1259 2794 1537 2939 
Q 1816 3084 2150 3084 
Q 2853 3084 3261 2657 
Q 3669 2231 3669 1497 
Q 3669 778 3244 343 
Q 2819 -91 2113 -91 
Q 1303 -91 875 529 
Q 447 1150 447 2328 
Q 447 3434 972 4092 
Q 1497 4750 2381 4750 
Q 2619 4750 2861 4703 
Q 3103 4656 3366 4563 
z
" transform="scale(0.015625)"/>
       </defs>
       <use xlink:href="#DejaVuSans-36"/>
       <use xlink:href="#DejaVuSans-30" x="63.623047"/>
       <use xlink:href="#DejaVuSans-30" x="127.246094"/>
      </g>
     </g>
    </g>
    <g id="xtick_5">
     <g id="line2d_5">
      <g>
       <use xlink:href="#m70154bf0a5" x="951.938821" y="961.2" style="stroke: #000000; stroke-width: 0.8"/>
      </g>
     </g>
     <g id="text_5">
      <!-- 700 -->
      <g transform="translate(942.395071 975.798437) scale(0.1 -0.1)">
       <defs>
        <path id="DejaVuSans-37" d="M 525 4666 
L 3525 4666 
L 3525 4397 
L 1831 0 
L 1172 0 
L 2766 4134 
L 525 4134 
L 525 4666 
z
" transform="scale(0.015625)"/>
       </defs>
       <use xlink:href="#DejaVuSans-37"/>
       <use xlink:href="#DejaVuSans-30" x="63.623047"/>
       <use xlink:href="#DejaVuSans-30" x="127.246094"/>
      </g>
     </g>
    </g>
   </g>
   <g id="matplotlib.axis_2">
    <g id="ytick_1">
     <g id="line2d_6">
      <defs>
       <path id="mc4ba1789a8" d="M 0 0 
L -3.5 0 
" style="stroke: #000000; stroke-width: 0.8"/>
      </defs>
      <g>
       <use xlink:href="#mc4ba1789a8" x="495.090061" y="929.480569" style="stroke: #000000; stroke-width: 0.8"/>
      </g>
     </g>
     <g id="text_6">
      <!-- 400 -->
      <g transform="translate(469.002561 933.279787) scale(0.1 -0.1)">
       <use xlink:href="#DejaVuSans-34"/>
       <use xlink:href="#DejaVuSans-30" x="63.623047"/>
       <use xlink:href="#DejaVuSans-30" x="127.246094"/>
      </g>
     </g>
    </g>
    <g id="ytick_2">
     <g id="line2d_7">
      <g>
       <use xlink:href="#mc4ba1789a8" x="495.090061" y="830.889084" style="stroke: #000000; stroke-width: 0.8"/>
      </g>
     </g>
     <g id="text_7">
      <!-- 500 -->
      <g transform="translate(469.002561 834.688302) scale(0.1 -0.1)">
       <use xlink:href="#DejaVuSans-35"/>
       <use xlink:href="#DejaVuSans-30" x="63.623047"/>
       <use xlink:href="#DejaVuSans-30" x="127.246094"/>
      </g>
     </g>
    </g>
    <g id="ytick_3">
     <g id="line2d_8">
      <g>
       <use xlink:href="#mc4ba1789a8" x="495.090061" y="732.297599" style="stroke: #000000; stroke-width: 0.8"/>
      </g>
     </g>
     <g id="text_8">
      <!-- 600 -->
      <g transform="translate(469.002561 736.096818) scale(0.1 -0.1)">
       <use xlink:href="#DejaVuSans-36"/>
       <use xlink:href="#DejaVuSans-30" x="63.623047"/>
       <use xlink:href="#DejaVuSans-30" x="127.246094"/>
      </g>
     </g>
    </g>
    <g id="ytick_4">
     <g id="line2d_9">
      <g>
       <use xlink:href="#mc4ba1789a8" x="495.090061" y="633.706114" style="stroke: #000000; stroke-width: 0.8"/>
      </g>
     </g>
     <g id="text_9">
      <!-- 700 -->
      <g transform="translate(469.002561 637.505333) scale(0.1 -0.1)">
       <use xlink:href="#DejaVuSans-37"/>
       <use xlink:href="#DejaVuSans-30" x="63.623047"/>
       <use xlink:href="#DejaVuSans-30" x="127.246094"/>
      </g>
     </g>
    </g>
    <g id="ytick_5">
     <g id="line2d_10">
      <g>
       <use xlink:href="#mc4ba1789a8" x="495.090061" y="535.114629" style="stroke: #000000; stroke-width: 0.8"/>
      </g>
     </g>
     <g id="text_10">
      <!-- 800 -->
      <g transform="translate(469.002561 538.913848) scale(0.1 -0.1)">
       <defs>
        <path id="DejaVuSans-38" d="M 2034 2216 
Q 1584 2216 1326 1975 
Q 1069 1734 1069 1313 
Q 1069 891 1326 650 
Q 1584 409 2034 409 
Q 2484 409 2743 651 
Q 3003 894 3003 1313 
Q 3003 1734 2745 1975 
Q 2488 2216 2034 2216 
z
M 1403 2484 
Q 997 2584 770 2862 
Q 544 3141 544 3541 
Q 544 4100 942 4425 
Q 1341 4750 2034 4750 
Q 2731 4750 3128 4425 
Q 3525 4100 3525 3541 
Q 3525 3141 3298 2862 
Q 3072 2584 2669 2484 
Q 3125 2378 3379 2068 
Q 3634 1759 3634 1313 
Q 3634 634 3220 271 
Q 2806 -91 2034 -91 
Q 1263 -91 848 271 
Q 434 634 434 1313 
Q 434 1759 690 2068 
Q 947 2378 1403 2484 
z
M 1172 3481 
Q 1172 3119 1398 2916 
Q 1625 2713 2034 2713 
Q 2441 2713 2670 2916 
Q 2900 3119 2900 3481 
Q 2900 3844 2670 4047 
Q 2441 4250 2034 4250 
Q 1625 4250 1398 4047 
Q 1172 3844 1172 3481 
z
" transform="scale(0.015625)"/>
       </defs>
       <use xlink:href="#DejaVuSans-38"/>
       <use xlink:href="#DejaVuSans-30" x="63.623047"/>
       <use xlink:href="#DejaVuSans-30" x="127.246094"/>
      </g>
     </g>
    </g>
    <g id="ytick_6">
     <g id="line2d_11">
      <g>
       <use xlink:href="#mc4ba1789a8" x="495.090061" y="436.523144" style="stroke: #000000; stroke-width: 0.8"/>
      </g>
     </g>
     <g id="text_11">
      <!-- 900 -->
      <g transform="translate(469.002561 440.322363) scale(0.1 -0.1)">
       <defs>
        <path id="DejaVuSans-39" d="M 703 97 
L 703 672 
Q 941 559 1184 500 
Q 1428 441 1663 441 
Q 2288 441 2617 861 
Q 2947 1281 2994 2138 
Q 2813 1869 2534 1725 
Q 2256 1581 1919 1581 
Q 1219 1581 811 2004 
Q 403 2428 403 3163 
Q 403 3881 828 4315 
Q 1253 4750 1959 4750 
Q 2769 4750 3195 4129 
Q 3622 3509 3622 2328 
Q 3622 1225 3098 567 
Q 2575 -91 1691 -91 
Q 1453 -91 1209 -44 
Q 966 3 703 97 
z
M 1959 2075 
Q 2384 2075 2632 2365 
Q 2881 2656 2881 3163 
Q 2881 3666 2632 3958 
Q 2384 4250 1959 4250 
Q 1534 4250 1286 3958 
Q 1038 3666 1038 3163 
Q 1038 2656 1286 2365 
Q 1534 2075 1959 2075 
z
" transform="scale(0.015625)"/>
       </defs>
       <use xlink:href="#DejaVuSans-39"/>
       <use xlink:href="#DejaVuSans-30" x="63.623047"/>
       <use xlink:href="#DejaVuSans-30" x="127.246094"/>
      </g>
     </g>
    </g>
    <g id="ytick_7">
     <g id="line2d_12">
      <g>
       <use xlink:href="#mc4ba1789a8" x="495.090061" y="337.93166" style="stroke: #000000; stroke-width: 0.8"/>
      </g>
     </g>
     <g id="text_12">
      <!-- 1000 -->
      <g transform="translate(462.640061 341.730878) scale(0.1 -0.1)">
       <defs>
        <path id="DejaVuSans-31" d="M 794 531 
L 1825 531 
L 1825 4091 
L 703 3866 
L 703 4441 
L 1819 4666 
L 2450 4666 
L 2450 531 
L 3481 531 
L 3481 0 
L 794 0 
L 794 531 
z
" transform="scale(0.015625)"/>
       </defs>
       <use xlink:href="#DejaVuSans-31"/>
       <use xlink:href="#DejaVuSans-30" x="63.623047"/>
       <use xlink:href="#DejaVuSans-30" x="127.246094"/>
       <use xlink:href="#DejaVuSans-30" x="190.869141"/>
      </g>
     </g>
    </g>
    <g id="ytick_8">
     <g id="line2d_13">
      <g>
       <use xlink:href="#mc4ba1789a8" x="495.090061" y="239.340175" style="stroke: #000000; stroke-width: 0.8"/>
      </g>
     </g>
     <g id="text_13">
      <!-- 1100 -->
      <g transform="translate(462.640061 243.139394) scale(0.1 -0.1)">
       <use xlink:href="#DejaVuSans-31"/>
       <use xlink:href="#DejaVuSans-31" x="63.623047"/>
       <use xlink:href="#DejaVuSans-30" x="127.246094"/>
       <use xlink:href="#DejaVuSans-30" x="190.869141"/>
      </g>
     </g>
    </g>
    <g id="ytick_9">
     <g id="line2d_14">
      <g>
       <use xlink:href="#mc4ba1789a8" x="495.090061" y="140.74869" style="stroke: #000000; stroke-width: 0.8"/>
      </g>
     </g>
     <g id="text_14">
      <!-- 1200 -->
      <g transform="translate(462.640061 144.547909) scale(0.1 -0.1)">
       <defs>
        <path id="DejaVuSans-32" d="M 1228 531 
L 3431 531 
L 3431 0 
L 469 0 
L 469 531 
Q 828 903 1448 1529 
Q 2069 2156 2228 2338 
Q 2531 2678 2651 2914 
Q 2772 3150 2772 3378 
Q 2772 3750 2511 3984 
Q 2250 4219 1831 4219 
Q 1534 4219 1204 4116 
Q 875 4013 500 3803 
L 500 4441 
Q 881 4594 1212 4672 
Q 1544 4750 1819 4750 
Q 2544 4750 2975 4387 
Q 3406 4025 3406 3419 
Q 3406 3131 3298 2873 
Q 3191 2616 2906 2266 
Q 2828 2175 2409 1742 
Q 1991 1309 1228 531 
z
" transform="scale(0.015625)"/>
       </defs>
       <use xlink:href="#DejaVuSans-31"/>
       <use xlink:href="#DejaVuSans-32" x="63.623047"/>
       <use xlink:href="#DejaVuSans-30" x="127.246094"/>
       <use xlink:href="#DejaVuSans-30" x="190.869141"/>
      </g>
     </g>
    </g>
   </g>
   <g id="LineCollection_1">
    <path d="M 793.855548 204.801546 
L 825.156847 215.266771 
L 850.738836 225.176683 
L 871.431509 234.6161 
L 887.673474 243.519214 
L 899.885653 251.776601 
L 908.510261 259.231324 
L 914.077571 265.712943 
L 917.262565 271.153599 
L 918.813456 275.761603 
L 919.295709 280.051357 
L 918.900613 284.580033 
L 917.566811 289.654353 
L 915.2225 295.302678 
L 911.893815 301.414334 
L 907.690171 307.855172 
L 902.760581 314.514701 
L 897.262288 321.31392 
L 891.344686 328.199958 
L 878.774657 342.10918 
L 865.880547 356.158264 
L 859.536432 363.20314 
L 853.352603 370.250844 
L 847.377249 377.300349 
L 841.648245 384.349915 
L 836.19402 391.396387 
L 831.034233 398.434672 
L 826.180272 405.457438 
L 821.635617 412.45507 
L 817.396152 419.415917 
L 813.450518 426.326826 
L 809.78059 433.173885 
L 806.362152 439.943302 
L 803.165767 446.622277 
L 797.301523 459.667307 
L 786.551862 484.492388 
L 783.837297 490.435267 
L 781.036696 496.27896 
L 778.11219 502.035742 
L 775.026614 507.720324 
L 771.743443 513.349114 
L 768.226873 518.939325 
L 764.442103 524.507996 
L 760.355876 530.071063 
L 755.93722 535.642599 
L 751.158308 541.234318 
L 745.995339 546.855376 
L 740.429318 552.512449 
L 734.446681 558.210021 
L 728.039728 563.950804 
L 721.206872 569.736202 
L 713.952724 575.56677 
L 706.288068 581.442614 
L 698.229748 587.363727 
L 689.800502 593.330261 
L 681.028768 599.342729 
L 662.59875 611.510289 
L 643.272426 623.883365 
L 613.442824 642.948871 
L 603.525354 649.462091 
L 593.731043 656.072369 
L 584.128502 662.796294 
L 574.78816 669.655488 
L 565.782107 676.6785 
L 557.184561 683.903428 
L 549.073645 691.381342 
L 541.535799 699.18012 
L 534.674872 707.387018 
L 528.628162 716.105237 
L 524.683415 723.146488 
L 523.588535 725.434634 
L 520.216375 733.982312 
L 519.820211 735.424011 
L 517.807857 744.323789 
L 517.636195 745.998431 
L 517.172782 755.138002 
L 517.308159 756.913899 
L 518.508955 766.12287 
L 518.951008 767.820432 
L 521.836034 776.94806 
L 522.496961 778.420054 
L 526.361206 786.162036 
L 527.792162 788.580562 
L 533.251793 796.466006 
L 534.71081 798.324592 
L 543.201413 807.753699 
L 553.275792 816.984933 
L 564.981408 826.120994 
L 578.378623 835.242934 
L 593.526759 844.412314 
L 610.47658 853.675739 
L 629.266427 863.069075 
L 649.920151 872.620701 
L 672.445842 882.353817 
L 696.834857 892.288051 
L 723.060905 902.440544 
L 751.07909 912.826689 
L 780.65278 923.4 
L 780.65278 923.4 
" clip-path="url(#p7681029352)" style="fill: none; stroke: #1f77b4; stroke-width: 1.5"/>
    <path d="M 800.107934 186.100773 
L 831.84807 196.712718 
L 858.398543 206.9978 
L 880.27432 216.976916 
L 897.957241 226.669897 
L 911.897212 236.095548 
L 922.513372 245.271679 
L 930.195254 254.215142 
L 935.303933 262.941866 
L 938.173153 271.466887 
L 939.110452 279.804385 
L 938.398257 287.967714 
L 936.294978 295.969435 
L 933.036079 303.821346 
L 928.835137 311.534517 
L 923.884883 319.119313 
L 918.358229 326.585434 
L 912.40928 333.941936 
L 906.174325 341.197264 
L 899.772815 348.359277 
L 893.308325 355.435283 
L 886.869493 362.432057 
L 880.530948 369.355877 
L 874.354215 376.212542 
L 868.388605 383.007406 
L 862.672086 389.745396 
L 857.232134 396.431042 
L 852.086564 403.068501 
L 847.244348 409.661577 
L 842.706403 416.213749 
L 838.466369 422.728191 
L 834.51136 429.207797 
L 830.822699 435.655199 
L 827.376631 442.072793 
L 824.145012 448.462757 
L 821.095981 454.827073 
L 818.194606 461.167544 
L 815.403515 467.485818 
L 812.683496 473.783405 
L 809.994083 480.061694 
L 807.294111 486.321973 
L 804.542256 492.565444 
L 801.697545 498.793246 
L 798.719849 505.006465 
L 795.570342 511.206152 
L 792.211952 517.39334 
L 788.609767 523.56906 
L 784.731437 529.734353 
L 780.547532 535.890286 
L 776.031893 542.037963 
L 771.16194 548.178543 
L 765.918969 554.31325 
L 760.288411 560.443385 
L 754.260072 566.570338 
L 747.828347 572.6956 
L 740.992397 578.820774 
L 733.756314 584.947586 
L 726.129242 591.077894 
L 718.125486 597.213697 
L 709.764581 603.357144 
L 701.071336 609.510547 
L 692.075852 615.676382 
L 682.81351 621.857302 
L 673.324926 628.056142 
L 663.65588 634.275928 
L 653.857218 640.519879 
L 643.984713 646.791419 
L 634.098911 653.094175 
L 624.264932 659.43199 
L 614.552248 665.808921 
L 605.034429 672.229247 
L 595.788857 678.697469 
L 586.896402 685.218319 
L 578.441079 691.796756 
L 570.50966 698.437973 
L 563.191258 705.147397 
L 556.576881 711.930692 
L 550.75895 718.793755 
L 545.830779 725.742726 
L 541.886032 732.783976 
L 539.018135 739.924119 
L 537.319657 747.17 
L 536.881663 754.528702 
L 537.793023 762.007541 
L 540.139688 769.614065 
L 544.003933 777.356047 
L 549.463563 785.241491 
L 556.591085 793.27862 
L 565.452835 801.475876 
L 576.108082 809.841917 
L 588.608081 818.385608 
L 602.995103 827.116022 
L 619.301411 836.04243 
L 637.548216 845.174294 
L 657.744578 854.521265 
L 679.886282 864.093174 
L 703.95467 873.900025 
L 729.915429 883.951987 
L 757.71735 894.259386 
L 787.291041 904.832697 
" clip-path="url(#p7681029352)" style="fill: none; stroke: #8c564b; stroke-width: 1.5"/>
    <path d="M 806.36032 167.4 
L 838.970763 178.325807 
L 866.582208 189.057932 
L 889.752434 199.685976 
L 909.002107 210.335205 
L 922.942078 219.760855 
L 924.791623 221.177592 
L 936.477969 231.350427 
L 937.471342 232.423707 
L 946.247675 242.763897 
L 947.21213 244.253357 
L 953.250643 254.773217 
L 953.992156 256.65207 
L 956.861377 265.177092 
L 957.423465 267.196437 
L 957.768017 269.264039 
L 958.827218 279.558635 
L 958.754133 281.518163 
L 957.825495 291.343163 
L 957.468749 292.980457 
L 955.36547 300.982177 
L 954.506949 303.528228 
L 950.352572 313.252694 
L 945.347757 322.311558 
L 939.733526 330.850969 
L 933.690608 338.9842 
L 927.364114 346.793558 
L 920.875953 354.337787 
L 907.817772 368.787705 
L 895.12843 382.612234 
L 889.088908 389.316584 
L 883.316568 395.891312 
L 877.839105 402.34753 
L 872.673641 408.695833 
L 867.827439 414.947127 
L 863.298765 421.113289 
L 859.077909 427.207628 
L 855.14831 433.245114 
L 851.487751 439.242314 
L 848.069508 445.217053 
L 844.86338 451.187809 
L 841.836498 457.172941 
L 838.953904 463.189848 
L 833.473222 475.379079 
L 822.478031 500.758076 
L 819.479231 507.315153 
L 816.29974 513.937235 
L 812.900269 520.612792 
L 809.244584 527.328162 
L 805.300333 534.068405 
L 801.039642 540.818291 
L 796.439409 547.563309 
L 791.481332 554.290557 
L 786.151703 560.989407 
L 780.441089 567.651888 
L 774.344007 574.272754 
L 767.858676 580.849316 
L 760.9869 587.381093 
L 753.734092 593.869377 
L 746.109407 600.316787 
L 738.125971 606.726847 
L 729.801141 613.103641 
L 721.156781 619.451523 
L 712.219521 625.7749 
L 703.020981 632.07807 
L 693.597956 638.365086 
L 674.252342 650.905005 
L 635.017108 675.961023 
L 625.477174 682.224535 
L 616.200377 688.482277 
L 607.272151 694.728483 
L 598.783109 700.95351 
L 590.828677 707.142242 
L 583.508251 713.271855 
L 576.923373 719.308793 
L 571.173911 725.205085 
L 566.35054 730.894926 
L 562.521147 736.294565 
L 559.70983 741.312677 
L 557.8741 745.883055 
L 556.902823 750.026621 
L 556.671272 753.916907 
L 557.153704 757.875863 
L 558.504831 762.255432 
L 561.017569 767.289683 
L 565.001604 773.043896 
L 570.696722 779.46582 
L 578.257101 786.459287 
L 587.772662 793.930496 
L 599.293976 801.80526 
L 612.848895 810.030733 
L 628.451104 818.571702 
L 646.103524 827.406098 
L 665.798986 836.52125 
L 687.519568 845.911107 
L 711.235354 855.574288 
L 736.902959 865.512741 
L 764.463972 875.730825 
L 793.929302 886.265395 
L 793.929302 886.265395 
" clip-path="url(#p7681029352)" style="fill: none; stroke: #17becf; stroke-width: 1.5"/>
   </g>
   <g id="patch_3">
    <path d="M 495.090061 961.2 
L 495.090061 129.6 
" style="fill: none; stroke: #000000; stroke-width: 0.8; stroke-linejoin: miter; stroke-linecap: square"/>
   </g>
   <g id="patch_4">
    <path d="M 980.909939 961.2 
L 980.909939 129.6 
" style="fill: none; stroke: #000000; stroke-width: 0.8; stroke-linejoin: miter; stroke-linecap: square"/>
   </g>
   <g id="patch_5">
    <path d="M 495.090061 961.2 
L 980.909939 961.2 
" style="fill: none; stroke: #000000; stroke-width: 0.8; stroke-linejoin: miter; stroke-linecap: square"/>
   </g>
   <g id="patch_6">
    <path d="M 495.090061 129.6 
L 980.909939 129.6 
" style="fill: none; stroke: #000000; stroke-width: 0.8; stroke-linejoin: miter; stroke-linecap: square"/>
   </g>
  </g>
 </g>
 <defs>
  <clipPath id="p7681029352">
   <rect x="495.090061" y="129.6" width="485.819879" height="831.6"/>
  </clipPath>
 </defs>
</svg>
