<?xml version="1.0" encoding="utf-8" standalone="no"?>
<!DOCTYPE svg PUBLIC "-//W3C//DTD SVG 1.1//EN"
  "http://www.w3.org/Graphics/SVG/1.1/DTD/svg11.dtd">
<svg xmlns:xlink="http://www.w3.org/1999/xlink" width="1440pt" height="1080pt" viewBox="0 0 1440 1080" xmlns="http://www.w3.org/2000/svg" version="1.1">
 <metadata>
  <rdf:RDF xmlns:dc="http://purl.org/dc/elements/1.1/" xmlns:cc="http://creativecommons.org/ns#" xmlns:rdf="http://www.w3.org/1999/02/22-rdf-syntax-ns#">
   <cc:Work>
    <dc:type rdf:resource="http://purl.org/dc/dcmitype/StillImage"/>
    <dc:date>2023-12-11T12:06:48.304874</dc:date>
    <dc:format>image/svg+xml</dc:format>
    <dc:creator>
     <cc:Agent>
      <dc:title>Matplotlib v3.7.1, https://matplotlib.org/</dc:title>
     </cc:Agent>
    </dc:creator>
   </cc:Work>
  </rdf:RDF>
 </metadata>
 <defs>
  <style type="text/css">*{stroke-linejoin: round; stroke-linecap: butt}</style>
 </defs>
 <g id="figure_1">
  <g id="patch_1">
   <path d="M 0 1080 
L 1440 1080 
L 1440 0 
L 0 0 
z
" style="fill: #ffffff"/>
  </g>
  <g id="axes_1">
   <g id="patch_2">
    <path d="M 616.366326 961.2 
L 859.633674 961.2 
L 859.633674 129.6 
L 616.366326 129.6 
z
" style="fill: #ffffff"/>
   </g>
   <g id="matplotlib.axis_1">
    <g id="xtick_1">
     <g id="line2d_1">
      <defs>
       <path id="m4e695e9168" d="M 0 0 
L 0 3.5 
" style="stroke: #000000; stroke-width: 0.8"/>
      </defs>
      <g>
       <use xlink:href="#m4e695e9168" x="625.4101" y="961.2" style="stroke: #000000; stroke-width: 0.8"/>
      </g>
     </g>
     <g id="text_1">
      <!-- 700 -->
      <g transform="translate(615.86635 975.798437) scale(0.1 -0.1)">
       <defs>
        <path id="DejaVuSans-37" d="M 525 4666 
L 3525 4666 
L 3525 4397 
L 1831 0 
L 1172 0 
L 2766 4134 
L 525 4134 
L 525 4666 
z
" transform="scale(0.015625)"/>
        <path id="DejaVuSans-30" d="M 2034 4250 
Q 1547 4250 1301 3770 
Q 1056 3291 1056 2328 
Q 1056 1369 1301 889 
Q 1547 409 2034 409 
Q 2525 409 2770 889 
Q 3016 1369 3016 2328 
Q 3016 3291 2770 3770 
Q 2525 4250 2034 4250 
z
M 2034 4750 
Q 2819 4750 3233 4129 
Q 3647 3509 3647 2328 
Q 3647 1150 3233 529 
Q 2819 -91 2034 -91 
Q 1250 -91 836 529 
Q 422 1150 422 2328 
Q 422 3509 836 4129 
Q 1250 4750 2034 4750 
z
" transform="scale(0.015625)"/>
       </defs>
       <use xlink:href="#DejaVuSans-37"/>
       <use xlink:href="#DejaVuSans-30" x="63.623047"/>
       <use xlink:href="#DejaVuSans-30" x="127.246094"/>
      </g>
     </g>
    </g>
    <g id="xtick_2">
     <g id="line2d_2">
      <g>
       <use xlink:href="#m4e695e9168" x="658.887716" y="961.2" style="stroke: #000000; stroke-width: 0.8"/>
      </g>
     </g>
     <g id="text_2">
      <!-- 750 -->
      <g transform="translate(649.343966 975.798437) scale(0.1 -0.1)">
       <defs>
        <path id="DejaVuSans-35" d="M 691 4666 
L 3169 4666 
L 3169 4134 
L 1269 4134 
L 1269 2991 
Q 1406 3038 1543 3061 
Q 1681 3084 1819 3084 
Q 2600 3084 3056 2656 
Q 3513 2228 3513 1497 
Q 3513 744 3044 326 
Q 2575 -91 1722 -91 
Q 1428 -91 1123 -41 
Q 819 9 494 109 
L 494 744 
Q 775 591 1075 516 
Q 1375 441 1709 441 
Q 2250 441 2565 725 
Q 2881 1009 2881 1497 
Q 2881 1984 2565 2268 
Q 2250 2553 1709 2553 
Q 1456 2553 1204 2497 
Q 953 2441 691 2322 
L 691 4666 
z
" transform="scale(0.015625)"/>
       </defs>
       <use xlink:href="#DejaVuSans-37"/>
       <use xlink:href="#DejaVuSans-35" x="63.623047"/>
       <use xlink:href="#DejaVuSans-30" x="127.246094"/>
      </g>
     </g>
    </g>
    <g id="xtick_3">
     <g id="line2d_3">
      <g>
       <use xlink:href="#m4e695e9168" x="692.365333" y="961.2" style="stroke: #000000; stroke-width: 0.8"/>
      </g>
     </g>
     <g id="text_3">
      <!-- 800 -->
      <g transform="translate(682.821583 975.798437) scale(0.1 -0.1)">
       <defs>
        <path id="DejaVuSans-38" d="M 2034 2216 
Q 1584 2216 1326 1975 
Q 1069 1734 1069 1313 
Q 1069 891 1326 650 
Q 1584 409 2034 409 
Q 2484 409 2743 651 
Q 3003 894 3003 1313 
Q 3003 1734 2745 1975 
Q 2488 2216 2034 2216 
z
M 1403 2484 
Q 997 2584 770 2862 
Q 544 3141 544 3541 
Q 544 4100 942 4425 
Q 1341 4750 2034 4750 
Q 2731 4750 3128 4425 
Q 3525 4100 3525 3541 
Q 3525 3141 3298 2862 
Q 3072 2584 2669 2484 
Q 3125 2378 3379 2068 
Q 3634 1759 3634 1313 
Q 3634 634 3220 271 
Q 2806 -91 2034 -91 
Q 1263 -91 848 271 
Q 434 634 434 1313 
Q 434 1759 690 2068 
Q 947 2378 1403 2484 
z
M 1172 3481 
Q 1172 3119 1398 2916 
Q 1625 2713 2034 2713 
Q 2441 2713 2670 2916 
Q 2900 3119 2900 3481 
Q 2900 3844 2670 4047 
Q 2441 4250 2034 4250 
Q 1625 4250 1398 4047 
Q 1172 3844 1172 3481 
z
" transform="scale(0.015625)"/>
       </defs>
       <use xlink:href="#DejaVuSans-38"/>
       <use xlink:href="#DejaVuSans-30" x="63.623047"/>
       <use xlink:href="#DejaVuSans-30" x="127.246094"/>
      </g>
     </g>
    </g>
    <g id="xtick_4">
     <g id="line2d_4">
      <g>
       <use xlink:href="#m4e695e9168" x="725.84295" y="961.2" style="stroke: #000000; stroke-width: 0.8"/>
      </g>
     </g>
     <g id="text_4">
      <!-- 850 -->
      <g transform="translate(716.2992 975.798437) scale(0.1 -0.1)">
       <use xlink:href="#DejaVuSans-38"/>
       <use xlink:href="#DejaVuSans-35" x="63.623047"/>
       <use xlink:href="#DejaVuSans-30" x="127.246094"/>
      </g>
     </g>
    </g>
    <g id="xtick_5">
     <g id="line2d_5">
      <g>
       <use xlink:href="#m4e695e9168" x="759.320566" y="961.2" style="stroke: #000000; stroke-width: 0.8"/>
      </g>
     </g>
     <g id="text_5">
      <!-- 900 -->
      <g transform="translate(749.776816 975.798437) scale(0.1 -0.1)">
       <defs>
        <path id="DejaVuSans-39" d="M 703 97 
L 703 672 
Q 941 559 1184 500 
Q 1428 441 1663 441 
Q 2288 441 2617 861 
Q 2947 1281 2994 2138 
Q 2813 1869 2534 1725 
Q 2256 1581 1919 1581 
Q 1219 1581 811 2004 
Q 403 2428 403 3163 
Q 403 3881 828 4315 
Q 1253 4750 1959 4750 
Q 2769 4750 3195 4129 
Q 3622 3509 3622 2328 
Q 3622 1225 3098 567 
Q 2575 -91 1691 -91 
Q 1453 -91 1209 -44 
Q 966 3 703 97 
z
M 1959 2075 
Q 2384 2075 2632 2365 
Q 2881 2656 2881 3163 
Q 2881 3666 2632 3958 
Q 2384 4250 1959 4250 
Q 1534 4250 1286 3958 
Q 1038 3666 1038 3163 
Q 1038 2656 1286 2365 
Q 1534 2075 1959 2075 
z
" transform="scale(0.015625)"/>
       </defs>
       <use xlink:href="#DejaVuSans-39"/>
       <use xlink:href="#DejaVuSans-30" x="63.623047"/>
       <use xlink:href="#DejaVuSans-30" x="127.246094"/>
      </g>
     </g>
    </g>
    <g id="xtick_6">
     <g id="line2d_6">
      <g>
       <use xlink:href="#m4e695e9168" x="792.798183" y="961.2" style="stroke: #000000; stroke-width: 0.8"/>
      </g>
     </g>
     <g id="text_6">
      <!-- 950 -->
      <g transform="translate(783.254433 975.798437) scale(0.1 -0.1)">
       <use xlink:href="#DejaVuSans-39"/>
       <use xlink:href="#DejaVuSans-35" x="63.623047"/>
       <use xlink:href="#DejaVuSans-30" x="127.246094"/>
      </g>
     </g>
    </g>
    <g id="xtick_7">
     <g id="line2d_7">
      <g>
       <use xlink:href="#m4e695e9168" x="826.2758" y="961.2" style="stroke: #000000; stroke-width: 0.8"/>
      </g>
     </g>
     <g id="text_7">
      <!-- 1000 -->
      <g transform="translate(813.5508 975.798437) scale(0.1 -0.1)">
       <defs>
        <path id="DejaVuSans-31" d="M 794 531 
L 1825 531 
L 1825 4091 
L 703 3866 
L 703 4441 
L 1819 4666 
L 2450 4666 
L 2450 531 
L 3481 531 
L 3481 0 
L 794 0 
L 794 531 
z
" transform="scale(0.015625)"/>
       </defs>
       <use xlink:href="#DejaVuSans-31"/>
       <use xlink:href="#DejaVuSans-30" x="63.623047"/>
       <use xlink:href="#DejaVuSans-30" x="127.246094"/>
       <use xlink:href="#DejaVuSans-30" x="190.869141"/>
      </g>
     </g>
    </g>
   </g>
   <g id="matplotlib.axis_2">
    <g id="ytick_1">
     <g id="line2d_8">
      <defs>
       <path id="mec79b6c349" d="M 0 0 
L -3.5 0 
" style="stroke: #000000; stroke-width: 0.8"/>
      </defs>
      <g>
       <use xlink:href="#mec79b6c349" x="616.366326" y="932.351184" style="stroke: #000000; stroke-width: 0.8"/>
      </g>
     </g>
     <g id="text_8">
      <!-- 0 -->
      <g transform="translate(603.003826 936.150403) scale(0.1 -0.1)">
       <use xlink:href="#DejaVuSans-30"/>
      </g>
     </g>
    </g>
    <g id="ytick_2">
     <g id="line2d_9">
      <g>
       <use xlink:href="#mec79b6c349" x="616.366326" y="798.440718" style="stroke: #000000; stroke-width: 0.8"/>
      </g>
     </g>
     <g id="text_9">
      <!-- 200 -->
      <g transform="translate(590.278826 802.239936) scale(0.1 -0.1)">
       <defs>
        <path id="DejaVuSans-32" d="M 1228 531 
L 3431 531 
L 3431 0 
L 469 0 
L 469 531 
Q 828 903 1448 1529 
Q 2069 2156 2228 2338 
Q 2531 2678 2651 2914 
Q 2772 3150 2772 3378 
Q 2772 3750 2511 3984 
Q 2250 4219 1831 4219 
Q 1534 4219 1204 4116 
Q 875 4013 500 3803 
L 500 4441 
Q 881 4594 1212 4672 
Q 1544 4750 1819 4750 
Q 2544 4750 2975 4387 
Q 3406 4025 3406 3419 
Q 3406 3131 3298 2873 
Q 3191 2616 2906 2266 
Q 2828 2175 2409 1742 
Q 1991 1309 1228 531 
z
" transform="scale(0.015625)"/>
       </defs>
       <use xlink:href="#DejaVuSans-32"/>
       <use xlink:href="#DejaVuSans-30" x="63.623047"/>
       <use xlink:href="#DejaVuSans-30" x="127.246094"/>
      </g>
     </g>
    </g>
    <g id="ytick_3">
     <g id="line2d_10">
      <g>
       <use xlink:href="#mec79b6c349" x="616.366326" y="664.530251" style="stroke: #000000; stroke-width: 0.8"/>
      </g>
     </g>
     <g id="text_10">
      <!-- 400 -->
      <g transform="translate(590.278826 668.32947) scale(0.1 -0.1)">
       <defs>
        <path id="DejaVuSans-34" d="M 2419 4116 
L 825 1625 
L 2419 1625 
L 2419 4116 
z
M 2253 4666 
L 3047 4666 
L 3047 1625 
L 3713 1625 
L 3713 1100 
L 3047 1100 
L 3047 0 
L 2419 0 
L 2419 1100 
L 313 1100 
L 313 1709 
L 2253 4666 
z
" transform="scale(0.015625)"/>
       </defs>
       <use xlink:href="#DejaVuSans-34"/>
       <use xlink:href="#DejaVuSans-30" x="63.623047"/>
       <use xlink:href="#DejaVuSans-30" x="127.246094"/>
      </g>
     </g>
    </g>
    <g id="ytick_4">
     <g id="line2d_11">
      <g>
       <use xlink:href="#mec79b6c349" x="616.366326" y="530.619784" style="stroke: #000000; stroke-width: 0.8"/>
      </g>
     </g>
     <g id="text_11">
      <!-- 600 -->
      <g transform="translate(590.278826 534.419003) scale(0.1 -0.1)">
       <defs>
        <path id="DejaVuSans-36" d="M 2113 2584 
Q 1688 2584 1439 2293 
Q 1191 2003 1191 1497 
Q 1191 994 1439 701 
Q 1688 409 2113 409 
Q 2538 409 2786 701 
Q 3034 994 3034 1497 
Q 3034 2003 2786 2293 
Q 2538 2584 2113 2584 
z
M 3366 4563 
L 3366 3988 
Q 3128 4100 2886 4159 
Q 2644 4219 2406 4219 
Q 1781 4219 1451 3797 
Q 1122 3375 1075 2522 
Q 1259 2794 1537 2939 
Q 1816 3084 2150 3084 
Q 2853 3084 3261 2657 
Q 3669 2231 3669 1497 
Q 3669 778 3244 343 
Q 2819 -91 2113 -91 
Q 1303 -91 875 529 
Q 447 1150 447 2328 
Q 447 3434 972 4092 
Q 1497 4750 2381 4750 
Q 2619 4750 2861 4703 
Q 3103 4656 3366 4563 
z
" transform="scale(0.015625)"/>
       </defs>
       <use xlink:href="#DejaVuSans-36"/>
       <use xlink:href="#DejaVuSans-30" x="63.623047"/>
       <use xlink:href="#DejaVuSans-30" x="127.246094"/>
      </g>
     </g>
    </g>
    <g id="ytick_5">
     <g id="line2d_12">
      <g>
       <use xlink:href="#mec79b6c349" x="616.366326" y="396.709317" style="stroke: #000000; stroke-width: 0.8"/>
      </g>
     </g>
     <g id="text_12">
      <!-- 800 -->
      <g transform="translate(590.278826 400.508536) scale(0.1 -0.1)">
       <use xlink:href="#DejaVuSans-38"/>
       <use xlink:href="#DejaVuSans-30" x="63.623047"/>
       <use xlink:href="#DejaVuSans-30" x="127.246094"/>
      </g>
     </g>
    </g>
    <g id="ytick_6">
     <g id="line2d_13">
      <g>
       <use xlink:href="#mec79b6c349" x="616.366326" y="262.798851" style="stroke: #000000; stroke-width: 0.8"/>
      </g>
     </g>
     <g id="text_13">
      <!-- 1000 -->
      <g transform="translate(583.916326 266.598069) scale(0.1 -0.1)">
       <use xlink:href="#DejaVuSans-31"/>
       <use xlink:href="#DejaVuSans-30" x="63.623047"/>
       <use xlink:href="#DejaVuSans-30" x="127.246094"/>
       <use xlink:href="#DejaVuSans-30" x="190.869141"/>
      </g>
     </g>
    </g>
   </g>
   <g id="LineCollection_1">
    <path d="M 627.423933 168.044839 
L 627.822345 179.819832 
L 628.913831 191.053745 
L 630.548314 201.795281 
L 632.593764 212.093389 
L 634.935626 221.995582 
L 637.475645 231.546696 
L 640.130419 240.788158 
L 645.516087 258.489385 
L 650.681278 275.402368 
L 655.335926 291.679913 
L 657.420361 299.633474 
L 659.328122 307.487617 
L 661.054593 315.257855 
L 662.599463 322.957813 
L 663.966108 330.599304 
L 665.161057 338.192387 
L 666.193527 345.745429 
L 667.075015 353.265181 
L 667.818939 360.756873 
L 668.955454 375.670157 
L 669.737003 390.501789 
L 670.563441 412.598885 
L 671.417009 434.510344 
L 672.227536 448.964025 
L 673.364619 463.26976 
L 674.083706 470.360545 
L 674.914505 477.406634 
L 675.863048 484.405786 
L 676.933272 491.356039 
L 678.126974 498.255781 
L 679.443792 505.103831 
L 680.881221 511.899508 
L 682.434664 518.642695 
L 685.822441 531.832186 
L 687.715649 538.565586 
L 691.647301 551.611788 
L 695.781124 564.499999 
L 706.147254 596.338971 
L 709.929539 609.04252 
L 711.67166 615.414338 
L 713.29264 621.810247 
L 714.777325 628.238825 
L 716.111718 634.709076 
L 717.283127 641.230403 
L 718.280303 647.812538 
L 719.093585 654.465441 
L 719.715053 661.199137 
L 720.138718 668.023517 
L 720.360751 674.948106 
L 720.379771 681.981822 
L 720.197188 689.132738 
L 719.817596 696.407884 
L 719.249208 703.813088 
L 718.504319 711.352882 
L 717.599784 719.030467 
L 715.404904 734.805356 
L 710.452063 768.100841 
L 709.388159 776.776524 
L 708.52898 785.584355 
L 707.960245 794.520584 
L 707.780567 803.579469 
L 708.102985 812.751006 
L 709.055776 822.017088 
L 710.781324 831.346109 
L 713.431537 840.687285 
L 717.159279 849.967886 
L 722.10833 859.097477 
L 728.40779 867.980465 
L 736.176314 876.532005 
L 745.535137 884.688513 
L 756.622514 892.407893 
L 769.602598 899.661993 
L 784.667205 906.427241 
L 802.033098 912.677628 
L 821.937989 918.38098 
L 844.148673 923.4 
L 844.148673 923.4 
" clip-path="url(#p4ff768c58e)" style="fill: none; stroke: #1f77b4; stroke-width: 1.5"/>
    <path d="M 637.462042 167.722419 
L 637.819834 178.861818 
L 638.844259 189.552353 
L 640.400402 199.844914 
L 642.368323 209.785669 
L 644.642074 219.416351 
L 647.128765 228.774542 
L 649.747647 237.89394 
L 652.429237 246.804622 
L 655.114477 255.533293 
L 657.753921 264.10353 
L 660.306957 272.536013 
L 662.741057 280.84875 
L 665.031063 289.057291 
L 667.158499 297.174932 
L 669.110914 305.212913 
L 670.88126 313.180611 
L 672.467288 321.085712 
L 673.870987 328.934388 
L 675.098038 336.73146 
L 676.157307 344.480552 
L 677.060356 352.184239 
L 677.820989 359.844189 
L 678.454817 367.461291 
L 678.978858 375.035784 
L 679.411154 382.567371 
L 679.770421 390.055331 
L 680.075715 397.498619 
L 680.346132 404.895968 
L 680.600523 412.245969 
L 680.857242 419.547162 
L 681.133906 426.798107 
L 681.447189 433.997451 
L 681.812627 441.143999 
L 682.244455 448.23676 
L 682.755457 455.275008 
L 683.356844 462.258319 
L 684.058146 469.186611 
L 684.867125 476.060183 
L 685.789716 482.879733 
L 686.829972 489.646389 
L 687.990042 496.36172 
L 689.270157 503.02775 
L 690.668643 509.646966 
L 692.181937 516.222314 
L 693.804639 522.757205 
L 695.529565 529.255499 
L 697.347821 535.721498 
L 699.248893 542.159925 
L 701.220755 548.57591 
L 703.249983 554.974956 
L 705.321894 561.362919 
L 707.420691 567.74597 
L 709.529622 574.130558 
L 711.631155 580.523375 
L 713.707167 586.931307 
L 715.739135 593.36139 
L 717.708353 599.820759 
L 719.596147 606.316596 
L 721.384108 612.856072 
L 723.054334 619.446291 
L 724.58968 626.094226 
L 725.974019 632.806656 
L 727.19251 639.590098 
L 728.231879 646.450742 
L 729.080702 653.394376 
L 729.729695 660.426316 
L 730.172024 667.551328 
L 730.403601 674.773556 
L 730.423403 682.09644 
L 730.233791 689.522638 
L 729.840834 697.053944 
L 729.254634 704.691206 
L 728.489666 712.434245 
L 727.56511 720.281767 
L 726.505196 728.231281 
L 725.339545 736.279008 
L 724.103521 744.419804 
L 722.838572 752.647062 
L 721.592588 760.952633 
L 720.42025 769.326734 
L 719.383385 777.757866 
L 718.551315 786.232717 
L 718.001218 794.736087 
L 717.818472 803.25079 
L 718.097016 811.757576 
L 718.939696 820.235041 
L 720.458614 828.659542 
L 722.775476 837.005114 
L 726.021937 845.243389 
L 730.339941 853.343508 
L 735.88206 861.272048 
L 742.811825 868.992936 
L 751.304058 876.467374 
L 761.545194 883.653763 
L 773.733603 890.507629 
L 788.079899 896.98155 
L 804.807253 903.025082 
L 824.151686 908.584699 
L 846.36237 913.603719 
" clip-path="url(#p4ff768c58e)" style="fill: none; stroke: #8c564b; stroke-width: 1.5"/>
    <path d="M 647.50015 167.4 
L 647.847714 178.220957 
L 648.815626 188.321736 
L 650.296755 198.118145 
L 652.184899 207.655919 
L 654.38447 216.9724 
L 656.809511 226.098583 
L 659.383208 235.06064 
L 664.71333 252.578706 
L 669.945528 269.713688 
L 674.704947 286.358486 
L 676.918005 294.80436 
L 678.915105 303.034517 
L 680.728309 311.204963 
L 682.353706 319.317573 
L 683.792167 327.373058 
L 685.048785 335.371234 
L 686.132292 343.311254 
L 687.054489 351.191823 
L 687.829683 359.011354 
L 689.005639 374.460269 
L 689.805269 389.643741 
L 690.637703 411.895811 
L 691.479319 433.522686 
L 692.265616 447.567938 
L 693.356642 461.321688 
L 694.831402 474.799896 
L 695.730171 481.443363 
L 696.742506 488.028399 
L 697.870786 494.559708 
L 699.115716 501.04251 
L 700.47633 507.482479 
L 701.950005 513.88568 
L 705.217797 526.607639 
L 708.865335 539.262562 
L 712.813483 551.907689 
L 727.352626 597.017979 
L 731.071824 610.207349 
L 732.840033 617.186276 
L 734.42596 624.06564 
L 735.859094 631.031026 
L 737.122488 638.085733 
L 738.200953 645.232076 
L 739.081484 652.471381 
L 739.753683 659.804016 
L 740.21015 667.229461 
L 740.446849 674.746398 
L 740.463416 682.35279 
L 740.263433 690.04595 
L 739.854665 697.822558 
L 739.249262 705.678619 
L 738.463966 713.609368 
L 737.520297 721.6091 
L 735.269032 737.786612 
L 730.378186 770.635991 
L 729.366589 778.861649 
L 728.562865 787.047795 
L 728.037541 795.168221 
L 727.865285 803.194161 
L 728.124015 811.095794 
L 728.894315 818.845118 
L 730.260131 826.420457 
L 732.312145 833.812021 
L 735.155071 841.026278 
L 738.918075 848.085273 
L 743.764002 855.017843 
L 749.891166 861.844503 
L 757.525026 868.563444 
L 766.90428 875.145035 
L 778.269292 881.535884 
L 791.857374 887.667652 
L 807.904135 893.465289 
L 826.647683 898.852211 
L 848.576067 903.807438 
L 848.576067 903.807438 
" clip-path="url(#p4ff768c58e)" style="fill: none; stroke: #17becf; stroke-width: 1.5"/>
   </g>
   <g id="patch_3">
    <path d="M 616.366326 961.2 
L 616.366326 129.6 
" style="fill: none; stroke: #000000; stroke-width: 0.8; stroke-linejoin: miter; stroke-linecap: square"/>
   </g>
   <g id="patch_4">
    <path d="M 859.633674 961.2 
L 859.633674 129.6 
" style="fill: none; stroke: #000000; stroke-width: 0.8; stroke-linejoin: miter; stroke-linecap: square"/>
   </g>
   <g id="patch_5">
    <path d="M 616.366326 961.2 
L 859.633674 961.2 
" style="fill: none; stroke: #000000; stroke-width: 0.8; stroke-linejoin: miter; stroke-linecap: square"/>
   </g>
   <g id="patch_6">
    <path d="M 616.366326 129.6 
L 859.633674 129.6 
" style="fill: none; stroke: #000000; stroke-width: 0.8; stroke-linejoin: miter; stroke-linecap: square"/>
   </g>
  </g>
 </g>
 <defs>
  <clipPath id="p4ff768c58e">
   <rect x="616.366326" y="129.6" width="243.267347" height="831.6"/>
  </clipPath>
 </defs>
</svg>
