<?xml version="1.0" encoding="utf-8" standalone="no"?>
<!DOCTYPE svg PUBLIC "-//W3C//DTD SVG 1.1//EN"
  "http://www.w3.org/Graphics/SVG/1.1/DTD/svg11.dtd">
<svg xmlns:xlink="http://www.w3.org/1999/xlink" width="1440pt" height="1080pt" viewBox="0 0 1440 1080" xmlns="http://www.w3.org/2000/svg" version="1.1">
 <metadata>
  <rdf:RDF xmlns:dc="http://purl.org/dc/elements/1.1/" xmlns:cc="http://creativecommons.org/ns#" xmlns:rdf="http://www.w3.org/1999/02/22-rdf-syntax-ns#">
   <cc:Work>
    <dc:type rdf:resource="http://purl.org/dc/dcmitype/StillImage"/>
    <dc:date>2023-12-11T12:06:56.478317</dc:date>
    <dc:format>image/svg+xml</dc:format>
    <dc:creator>
     <cc:Agent>
      <dc:title>Matplotlib v3.7.1, https://matplotlib.org/</dc:title>
     </cc:Agent>
    </dc:creator>
   </cc:Work>
  </rdf:RDF>
 </metadata>
 <defs>
  <style type="text/css">*{stroke-linejoin: round; stroke-linecap: butt}</style>
 </defs>
 <g id="figure_1">
  <g id="patch_1">
   <path d="M 0 1080 
L 1440 1080 
L 1440 0 
L 0 0 
z
" style="fill: #ffffff"/>
  </g>
  <g id="axes_1">
   <g id="patch_2">
    <path d="M 187.14255 961.2 
L 1288.85745 961.2 
L 1288.85745 129.6 
L 187.14255 129.6 
z
" style="fill: #ffffff"/>
   </g>
   <g id="matplotlib.axis_1">
    <g id="xtick_1">
     <g id="line2d_1">
      <defs>
       <path id="m2ba3963e8f" d="M 0 0 
L 0 3.5 
" style="stroke: #000000; stroke-width: 0.8"/>
      </defs>
      <g>
       <use xlink:href="#m2ba3963e8f" x="200.335925" y="961.2" style="stroke: #000000; stroke-width: 0.8"/>
      </g>
     </g>
     <g id="text_1">
      <!-- 200 -->
      <g transform="translate(190.792175 975.798437) scale(0.1 -0.1)">
       <defs>
        <path id="DejaVuSans-32" d="M 1228 531 
L 3431 531 
L 3431 0 
L 469 0 
L 469 531 
Q 828 903 1448 1529 
Q 2069 2156 2228 2338 
Q 2531 2678 2651 2914 
Q 2772 3150 2772 3378 
Q 2772 3750 2511 3984 
Q 2250 4219 1831 4219 
Q 1534 4219 1204 4116 
Q 875 4013 500 3803 
L 500 4441 
Q 881 4594 1212 4672 
Q 1544 4750 1819 4750 
Q 2544 4750 2975 4387 
Q 3406 4025 3406 3419 
Q 3406 3131 3298 2873 
Q 3191 2616 2906 2266 
Q 2828 2175 2409 1742 
Q 1991 1309 1228 531 
z
" transform="scale(0.015625)"/>
        <path id="DejaVuSans-30" d="M 2034 4250 
Q 1547 4250 1301 3770 
Q 1056 3291 1056 2328 
Q 1056 1369 1301 889 
Q 1547 409 2034 409 
Q 2525 409 2770 889 
Q 3016 1369 3016 2328 
Q 3016 3291 2770 3770 
Q 2525 4250 2034 4250 
z
M 2034 4750 
Q 2819 4750 3233 4129 
Q 3647 3509 3647 2328 
Q 3647 1150 3233 529 
Q 2819 -91 2034 -91 
Q 1250 -91 836 529 
Q 422 1150 422 2328 
Q 422 3509 836 4129 
Q 1250 4750 2034 4750 
z
" transform="scale(0.015625)"/>
       </defs>
       <use xlink:href="#DejaVuSans-32"/>
       <use xlink:href="#DejaVuSans-30" x="63.623047"/>
       <use xlink:href="#DejaVuSans-30" x="127.246094"/>
      </g>
     </g>
    </g>
    <g id="xtick_2">
     <g id="line2d_2">
      <g>
       <use xlink:href="#m2ba3963e8f" x="323.779013" y="961.2" style="stroke: #000000; stroke-width: 0.8"/>
      </g>
     </g>
     <g id="text_2">
      <!-- 300 -->
      <g transform="translate(314.235263 975.798437) scale(0.1 -0.1)">
       <defs>
        <path id="DejaVuSans-33" d="M 2597 2516 
Q 3050 2419 3304 2112 
Q 3559 1806 3559 1356 
Q 3559 666 3084 287 
Q 2609 -91 1734 -91 
Q 1441 -91 1130 -33 
Q 819 25 488 141 
L 488 750 
Q 750 597 1062 519 
Q 1375 441 1716 441 
Q 2309 441 2620 675 
Q 2931 909 2931 1356 
Q 2931 1769 2642 2001 
Q 2353 2234 1838 2234 
L 1294 2234 
L 1294 2753 
L 1863 2753 
Q 2328 2753 2575 2939 
Q 2822 3125 2822 3475 
Q 2822 3834 2567 4026 
Q 2313 4219 1838 4219 
Q 1578 4219 1281 4162 
Q 984 4106 628 3988 
L 628 4550 
Q 988 4650 1302 4700 
Q 1616 4750 1894 4750 
Q 2613 4750 3031 4423 
Q 3450 4097 3450 3541 
Q 3450 3153 3228 2886 
Q 3006 2619 2597 2516 
z
" transform="scale(0.015625)"/>
       </defs>
       <use xlink:href="#DejaVuSans-33"/>
       <use xlink:href="#DejaVuSans-30" x="63.623047"/>
       <use xlink:href="#DejaVuSans-30" x="127.246094"/>
      </g>
     </g>
    </g>
    <g id="xtick_3">
     <g id="line2d_3">
      <g>
       <use xlink:href="#m2ba3963e8f" x="447.222102" y="961.2" style="stroke: #000000; stroke-width: 0.8"/>
      </g>
     </g>
     <g id="text_3">
      <!-- 400 -->
      <g transform="translate(437.678352 975.798437) scale(0.1 -0.1)">
       <defs>
        <path id="DejaVuSans-34" d="M 2419 4116 
L 825 1625 
L 2419 1625 
L 2419 4116 
z
M 2253 4666 
L 3047 4666 
L 3047 1625 
L 3713 1625 
L 3713 1100 
L 3047 1100 
L 3047 0 
L 2419 0 
L 2419 1100 
L 313 1100 
L 313 1709 
L 2253 4666 
z
" transform="scale(0.015625)"/>
       </defs>
       <use xlink:href="#DejaVuSans-34"/>
       <use xlink:href="#DejaVuSans-30" x="63.623047"/>
       <use xlink:href="#DejaVuSans-30" x="127.246094"/>
      </g>
     </g>
    </g>
    <g id="xtick_4">
     <g id="line2d_4">
      <g>
       <use xlink:href="#m2ba3963e8f" x="570.66519" y="961.2" style="stroke: #000000; stroke-width: 0.8"/>
      </g>
     </g>
     <g id="text_4">
      <!-- 500 -->
      <g transform="translate(561.12144 975.798437) scale(0.1 -0.1)">
       <defs>
        <path id="DejaVuSans-35" d="M 691 4666 
L 3169 4666 
L 3169 4134 
L 1269 4134 
L 1269 2991 
Q 1406 3038 1543 3061 
Q 1681 3084 1819 3084 
Q 2600 3084 3056 2656 
Q 3513 2228 3513 1497 
Q 3513 744 3044 326 
Q 2575 -91 1722 -91 
Q 1428 -91 1123 -41 
Q 819 9 494 109 
L 494 744 
Q 775 591 1075 516 
Q 1375 441 1709 441 
Q 2250 441 2565 725 
Q 2881 1009 2881 1497 
Q 2881 1984 2565 2268 
Q 2250 2553 1709 2553 
Q 1456 2553 1204 2497 
Q 953 2441 691 2322 
L 691 4666 
z
" transform="scale(0.015625)"/>
       </defs>
       <use xlink:href="#DejaVuSans-35"/>
       <use xlink:href="#DejaVuSans-30" x="63.623047"/>
       <use xlink:href="#DejaVuSans-30" x="127.246094"/>
      </g>
     </g>
    </g>
    <g id="xtick_5">
     <g id="line2d_5">
      <g>
       <use xlink:href="#m2ba3963e8f" x="694.108279" y="961.2" style="stroke: #000000; stroke-width: 0.8"/>
      </g>
     </g>
     <g id="text_5">
      <!-- 600 -->
      <g transform="translate(684.564529 975.798437) scale(0.1 -0.1)">
       <defs>
        <path id="DejaVuSans-36" d="M 2113 2584 
Q 1688 2584 1439 2293 
Q 1191 2003 1191 1497 
Q 1191 994 1439 701 
Q 1688 409 2113 409 
Q 2538 409 2786 701 
Q 3034 994 3034 1497 
Q 3034 2003 2786 2293 
Q 2538 2584 2113 2584 
z
M 3366 4563 
L 3366 3988 
Q 3128 4100 2886 4159 
Q 2644 4219 2406 4219 
Q 1781 4219 1451 3797 
Q 1122 3375 1075 2522 
Q 1259 2794 1537 2939 
Q 1816 3084 2150 3084 
Q 2853 3084 3261 2657 
Q 3669 2231 3669 1497 
Q 3669 778 3244 343 
Q 2819 -91 2113 -91 
Q 1303 -91 875 529 
Q 447 1150 447 2328 
Q 447 3434 972 4092 
Q 1497 4750 2381 4750 
Q 2619 4750 2861 4703 
Q 3103 4656 3366 4563 
z
" transform="scale(0.015625)"/>
       </defs>
       <use xlink:href="#DejaVuSans-36"/>
       <use xlink:href="#DejaVuSans-30" x="63.623047"/>
       <use xlink:href="#DejaVuSans-30" x="127.246094"/>
      </g>
     </g>
    </g>
    <g id="xtick_6">
     <g id="line2d_6">
      <g>
       <use xlink:href="#m2ba3963e8f" x="817.551367" y="961.2" style="stroke: #000000; stroke-width: 0.8"/>
      </g>
     </g>
     <g id="text_6">
      <!-- 700 -->
      <g transform="translate(808.007617 975.798437) scale(0.1 -0.1)">
       <defs>
        <path id="DejaVuSans-37" d="M 525 4666 
L 3525 4666 
L 3525 4397 
L 1831 0 
L 1172 0 
L 2766 4134 
L 525 4134 
L 525 4666 
z
" transform="scale(0.015625)"/>
       </defs>
       <use xlink:href="#DejaVuSans-37"/>
       <use xlink:href="#DejaVuSans-30" x="63.623047"/>
       <use xlink:href="#DejaVuSans-30" x="127.246094"/>
      </g>
     </g>
    </g>
    <g id="xtick_7">
     <g id="line2d_7">
      <g>
       <use xlink:href="#m2ba3963e8f" x="940.994456" y="961.2" style="stroke: #000000; stroke-width: 0.8"/>
      </g>
     </g>
     <g id="text_7">
      <!-- 800 -->
      <g transform="translate(931.450706 975.798437) scale(0.1 -0.1)">
       <defs>
        <path id="DejaVuSans-38" d="M 2034 2216 
Q 1584 2216 1326 1975 
Q 1069 1734 1069 1313 
Q 1069 891 1326 650 
Q 1584 409 2034 409 
Q 2484 409 2743 651 
Q 3003 894 3003 1313 
Q 3003 1734 2745 1975 
Q 2488 2216 2034 2216 
z
M 1403 2484 
Q 997 2584 770 2862 
Q 544 3141 544 3541 
Q 544 4100 942 4425 
Q 1341 4750 2034 4750 
Q 2731 4750 3128 4425 
Q 3525 4100 3525 3541 
Q 3525 3141 3298 2862 
Q 3072 2584 2669 2484 
Q 3125 2378 3379 2068 
Q 3634 1759 3634 1313 
Q 3634 634 3220 271 
Q 2806 -91 2034 -91 
Q 1263 -91 848 271 
Q 434 634 434 1313 
Q 434 1759 690 2068 
Q 947 2378 1403 2484 
z
M 1172 3481 
Q 1172 3119 1398 2916 
Q 1625 2713 2034 2713 
Q 2441 2713 2670 2916 
Q 2900 3119 2900 3481 
Q 2900 3844 2670 4047 
Q 2441 4250 2034 4250 
Q 1625 4250 1398 4047 
Q 1172 3844 1172 3481 
z
" transform="scale(0.015625)"/>
       </defs>
       <use xlink:href="#DejaVuSans-38"/>
       <use xlink:href="#DejaVuSans-30" x="63.623047"/>
       <use xlink:href="#DejaVuSans-30" x="127.246094"/>
      </g>
     </g>
    </g>
    <g id="xtick_8">
     <g id="line2d_8">
      <g>
       <use xlink:href="#m2ba3963e8f" x="1064.437544" y="961.2" style="stroke: #000000; stroke-width: 0.8"/>
      </g>
     </g>
     <g id="text_8">
      <!-- 900 -->
      <g transform="translate(1054.893794 975.798437) scale(0.1 -0.1)">
       <defs>
        <path id="DejaVuSans-39" d="M 703 97 
L 703 672 
Q 941 559 1184 500 
Q 1428 441 1663 441 
Q 2288 441 2617 861 
Q 2947 1281 2994 2138 
Q 2813 1869 2534 1725 
Q 2256 1581 1919 1581 
Q 1219 1581 811 2004 
Q 403 2428 403 3163 
Q 403 3881 828 4315 
Q 1253 4750 1959 4750 
Q 2769 4750 3195 4129 
Q 3622 3509 3622 2328 
Q 3622 1225 3098 567 
Q 2575 -91 1691 -91 
Q 1453 -91 1209 -44 
Q 966 3 703 97 
z
M 1959 2075 
Q 2384 2075 2632 2365 
Q 2881 2656 2881 3163 
Q 2881 3666 2632 3958 
Q 2384 4250 1959 4250 
Q 1534 4250 1286 3958 
Q 1038 3666 1038 3163 
Q 1038 2656 1286 2365 
Q 1534 2075 1959 2075 
z
" transform="scale(0.015625)"/>
       </defs>
       <use xlink:href="#DejaVuSans-39"/>
       <use xlink:href="#DejaVuSans-30" x="63.623047"/>
       <use xlink:href="#DejaVuSans-30" x="127.246094"/>
      </g>
     </g>
    </g>
    <g id="xtick_9">
     <g id="line2d_9">
      <g>
       <use xlink:href="#m2ba3963e8f" x="1187.880633" y="961.2" style="stroke: #000000; stroke-width: 0.8"/>
      </g>
     </g>
     <g id="text_9">
      <!-- 1000 -->
      <g transform="translate(1175.155633 975.798437) scale(0.1 -0.1)">
       <defs>
        <path id="DejaVuSans-31" d="M 794 531 
L 1825 531 
L 1825 4091 
L 703 3866 
L 703 4441 
L 1819 4666 
L 2450 4666 
L 2450 531 
L 3481 531 
L 3481 0 
L 794 0 
L 794 531 
z
" transform="scale(0.015625)"/>
       </defs>
       <use xlink:href="#DejaVuSans-31"/>
       <use xlink:href="#DejaVuSans-30" x="63.623047"/>
       <use xlink:href="#DejaVuSans-30" x="127.246094"/>
       <use xlink:href="#DejaVuSans-30" x="190.869141"/>
      </g>
     </g>
    </g>
   </g>
   <g id="matplotlib.axis_2">
    <g id="ytick_1">
     <g id="line2d_10">
      <defs>
       <path id="me2c1c752e5" d="M 0 0 
L -3.5 0 
" style="stroke: #000000; stroke-width: 0.8"/>
      </defs>
      <g>
       <use xlink:href="#me2c1c752e5" x="187.14255" y="845.302216" style="stroke: #000000; stroke-width: 0.8"/>
      </g>
     </g>
     <g id="text_10">
      <!-- 900 -->
      <g transform="translate(161.05505 849.101435) scale(0.1 -0.1)">
       <use xlink:href="#DejaVuSans-39"/>
       <use xlink:href="#DejaVuSans-30" x="63.623047"/>
       <use xlink:href="#DejaVuSans-30" x="127.246094"/>
      </g>
     </g>
    </g>
    <g id="ytick_2">
     <g id="line2d_11">
      <g>
       <use xlink:href="#me2c1c752e5" x="187.14255" y="721.859128" style="stroke: #000000; stroke-width: 0.8"/>
      </g>
     </g>
     <g id="text_11">
      <!-- 1000 -->
      <g transform="translate(154.69255 725.658347) scale(0.1 -0.1)">
       <use xlink:href="#DejaVuSans-31"/>
       <use xlink:href="#DejaVuSans-30" x="63.623047"/>
       <use xlink:href="#DejaVuSans-30" x="127.246094"/>
       <use xlink:href="#DejaVuSans-30" x="190.869141"/>
      </g>
     </g>
    </g>
    <g id="ytick_3">
     <g id="line2d_12">
      <g>
       <use xlink:href="#me2c1c752e5" x="187.14255" y="598.416039" style="stroke: #000000; stroke-width: 0.8"/>
      </g>
     </g>
     <g id="text_12">
      <!-- 1100 -->
      <g transform="translate(154.69255 602.215258) scale(0.1 -0.1)">
       <use xlink:href="#DejaVuSans-31"/>
       <use xlink:href="#DejaVuSans-31" x="63.623047"/>
       <use xlink:href="#DejaVuSans-30" x="127.246094"/>
       <use xlink:href="#DejaVuSans-30" x="190.869141"/>
      </g>
     </g>
    </g>
    <g id="ytick_4">
     <g id="line2d_13">
      <g>
       <use xlink:href="#me2c1c752e5" x="187.14255" y="474.972951" style="stroke: #000000; stroke-width: 0.8"/>
      </g>
     </g>
     <g id="text_13">
      <!-- 1200 -->
      <g transform="translate(154.69255 478.77217) scale(0.1 -0.1)">
       <use xlink:href="#DejaVuSans-31"/>
       <use xlink:href="#DejaVuSans-32" x="63.623047"/>
       <use xlink:href="#DejaVuSans-30" x="127.246094"/>
       <use xlink:href="#DejaVuSans-30" x="190.869141"/>
      </g>
     </g>
    </g>
    <g id="ytick_5">
     <g id="line2d_14">
      <g>
       <use xlink:href="#me2c1c752e5" x="187.14255" y="351.529862" style="stroke: #000000; stroke-width: 0.8"/>
      </g>
     </g>
     <g id="text_14">
      <!-- 1300 -->
      <g transform="translate(154.69255 355.329081) scale(0.1 -0.1)">
       <use xlink:href="#DejaVuSans-31"/>
       <use xlink:href="#DejaVuSans-33" x="63.623047"/>
       <use xlink:href="#DejaVuSans-30" x="127.246094"/>
       <use xlink:href="#DejaVuSans-30" x="190.869141"/>
      </g>
     </g>
    </g>
    <g id="ytick_6">
     <g id="line2d_15">
      <g>
       <use xlink:href="#me2c1c752e5" x="187.14255" y="228.086774" style="stroke: #000000; stroke-width: 0.8"/>
      </g>
     </g>
     <g id="text_15">
      <!-- 1400 -->
      <g transform="translate(154.69255 231.885993) scale(0.1 -0.1)">
       <use xlink:href="#DejaVuSans-31"/>
       <use xlink:href="#DejaVuSans-34" x="63.623047"/>
       <use xlink:href="#DejaVuSans-30" x="127.246094"/>
       <use xlink:href="#DejaVuSans-30" x="190.869141"/>
      </g>
     </g>
    </g>
   </g>
   <g id="LineCollection_1">
    <path d="M 262.20582 313.747415 
L 295.475948 286.578489 
L 325.436772 264.090634 
L 352.492982 245.785834 
L 376.762866 231.38781 
L 398.339106 220.618503 
L 417.289755 213.183774 
L 433.671234 208.751864 
L 447.567761 206.931421 
L 459.166708 207.276748 
L 468.836388 209.366233 
L 477.104969 212.949554 
L 484.48472 218.030457 
L 491.284399 224.76405 
L 497.586819 233.273181 
L 503.355045 243.557792 
L 508.533394 255.512072 
L 513.09224 268.974732 
L 517.034537 283.767215 
L 520.388534 299.713532 
L 523.198842 316.648193 
L 525.51947 334.418304 
L 527.409116 352.883298 
L 528.92817 371.913885 
L 530.136862 391.390898 
L 531.094131 411.204249 
L 531.856947 431.252062 
L 533.015066 471.680588 
L 534.57477 531.990029 
L 535.225821 551.714495 
L 536.009093 571.146232 
L 536.960795 590.232989 
L 538.114737 608.927596 
L 539.502461 627.187826 
L 541.153394 644.97625 
L 543.095006 662.260073 
L 545.352995 679.010945 
L 547.95147 695.204717 
L 550.913133 710.821128 
L 554.259438 725.843405 
L 558.010687 740.257739 
L 562.186019 754.052651 
L 566.803227 767.21823 
L 571.878323 779.745305 
L 577.424791 791.624644 
L 583.452497 802.846337 
L 589.966328 813.399581 
L 596.964721 823.273084 
L 604.43844 832.456219 
L 612.369952 840.940874 
L 620.73377 848.723711 
L 629.497852 855.808319 
L 638.625862 862.206747 
L 648.079812 867.940033 
L 657.822538 873.037677 
L 667.819541 877.5363 
L 678.040033 881.477858 
L 688.457207 884.907824 
L 699.047958 887.873592 
L 709.792296 890.423225 
L 720.672685 892.604572 
L 731.673428 894.464659 
L 742.780204 896.049305 
L 753.97977 897.402852 
L 765.259831 898.567961 
L 776.60905 899.585426 
L 799.475343 901.330089 
L 845.748699 904.589473 
L 869.106028 906.52053 
L 892.671316 908.825929 
L 916.584644 911.536963 
L 953.643892 916.178838 
L 979.682058 919.312658 
L 993.248658 920.733016 
L 1007.263278 921.954236 
L 1021.793912 922.880683 
L 1036.91233 923.4 
L 1052.693434 923.3828 
L 1069.214997 922.682957 
L 1086.558168 921.138409 
L 1104.80909 918.572127 
L 1124.061688 914.792726 
L 1144.421321 909.594187 
L 1166.008636 902.754379 
L 1188.962881 894.032498 
L 1213.44416 883.16584 
L 1238.7795 870.326541 
L 1238.7795 870.326541 
" clip-path="url(#p6ae80dadba)" style="fill: none; stroke: #1f77b4; stroke-width: 1.5"/>
    <path d="M 249.71316 298.449334 
L 283.296344 271.024762 
L 313.967962 248.003402 
L 341.911288 229.098427 
L 367.301536 214.03575 
L 390.306205 202.553475 
L 411.085393 194.401372 
L 429.79211 189.340383 
L 446.572565 187.142146 
L 461.566446 187.588548 
L 474.907184 190.471298 
L 486.722204 195.591525 
L 497.133164 202.759393 
L 506.256183 211.793744 
L 514.202051 222.521757 
L 521.076436 234.778622 
L 526.980075 248.407244 
L 532.008955 263.257953 
L 536.254485 279.188239 
L 539.803656 296.062502 
L 542.739199 313.751813 
L 545.139719 332.133698 
L 547.079842 351.091929 
L 548.630331 370.516333 
L 549.858215 390.30261 
L 550.826896 410.352169 
L 551.596256 430.571968 
L 552.222761 450.874368 
L 552.759547 471.177 
L 553.256518 491.402633 
L 553.760421 511.47906 
L 554.314931 531.338983 
L 554.960725 550.919909 
L 555.735551 570.164054 
L 556.674299 589.018247 
L 557.809064 607.433841 
L 559.169212 625.366632 
L 560.781438 642.776773 
L 562.669829 659.628698 
L 564.855919 675.891042 
L 567.35875 691.536566 
L 570.194927 706.542079 
L 573.378679 720.888361 
L 576.921915 734.560085 
L 580.834287 747.545736 
L 585.123245 759.837527 
L 589.794107 771.431311 
L 594.850122 782.326492 
L 600.292538 792.525928 
L 606.120673 802.035825 
L 612.331991 810.865634 
L 618.922184 819.027928 
L 625.885249 826.538286 
L 633.213587 833.415152 
L 640.898087 839.679697 
L 648.928234 845.355666 
L 657.29221 850.469213 
L 665.977012 855.048726 
L 674.968567 859.124639 
L 684.251864 862.729232 
L 693.811088 865.896413 
L 703.629764 868.66149 
L 713.690909 871.060926 
L 723.977199 873.132078 
L 734.471134 874.912916 
L 745.155225 876.441728 
L 756.012187 877.756807 
L 767.025138 878.896116 
L 778.17782 879.896932 
L 789.454822 880.795479 
L 800.84182 881.626522 
L 812.32583 882.422958 
L 823.895473 883.215371 
L 835.541253 884.031569 
L 847.255851 884.896094 
L 859.034428 885.829711 
L 870.874955 886.848865 
L 882.778542 887.965117 
L 894.749798 889.184551 
L 906.797194 890.507151 
L 918.933455 891.92615 
L 931.175957 893.427351 
L 943.547153 894.98842 
L 956.075006 896.578137 
L 968.793452 898.155631 
L 981.742867 899.669571 
L 994.970569 901.057324 
L 1008.531329 902.244089 
L 1022.487904 903.141985 
L 1036.911594 903.649106 
L 1051.882817 903.648548 
L 1067.491705 903.007386 
L 1083.838724 901.575627 
L 1101.035313 899.18511 
L 1119.204549 895.648379 
L 1138.481834 890.757512 
L 1159.015604 884.282906 
L 1180.968063 875.972024 
L 1204.515943 865.5481 
L 1229.851283 852.708802 
" clip-path="url(#p6ae80dadba)" style="fill: none; stroke: #8c564b; stroke-width: 1.5"/>
    <path d="M 237.2205 283.151254 
L 271.439992 255.22841 
L 302.900493 231.644645 
L 331.834015 212.111774 
L 358.480997 196.363854 
L 383.092791 184.166945 
L 403.871979 176.014842 
L 405.927344 175.335897 
L 424.634061 170.274908 
L 427.226665 169.756811 
L 445.580553 167.416181 
L 447.160334 167.4 
L 463.95614 167.982754 
L 465.73806 168.283227 
L 480.948815 171.667136 
L 482.760782 172.348969 
L 496.294217 178.315114 
L 497.922615 179.323501 
L 509.731798 187.548467 
L 511.03079 188.725369 
L 521.184304 198.861265 
L 522.127728 200.03824 
L 530.073596 210.766252 
L 531.428506 212.860128 
L 539.199997 226.927868 
L 545.687486 242.072373 
L 551.093718 258.171734 
L 555.58248 275.122973 
L 559.288078 292.829061 
L 562.323799 311.194228 
L 564.787995 330.122959 
L 566.768113 349.520377 
L 568.343303 369.292998 
L 569.586097 389.349471 
L 570.563508 409.601194 
L 571.337753 429.962772 
L 572.504482 470.691841 
L 574.056738 530.737831 
L 574.698519 550.197084 
L 575.466678 569.275653 
L 576.394965 587.919749 
L 577.513967 606.079525 
L 578.851112 623.709042 
L 580.430656 640.766251 
L 582.273641 657.212979 
L 584.397846 673.014954 
L 586.817713 688.141865 
L 589.544286 702.567488 
L 592.585146 716.269884 
L 595.9444 729.231706 
L 599.622753 741.440619 
L 603.617713 752.889838 
L 607.924027 763.578756 
L 612.534383 773.51359 
L 617.440473 782.707917 
L 622.634363 791.182901 
L 628.110078 798.967 
L 633.865146 806.094951 
L 639.901722 812.605997 
L 646.226932 818.541534 
L 652.852194 823.942569 
L 659.791563 828.84754 
L 667.059436 833.290955 
L 674.668177 837.303059 
L 682.626156 840.910447 
L 690.936542 844.13727 
L 699.59693 847.006647 
L 708.599634 849.541935 
L 717.932449 851.767675 
L 727.579605 853.710137 
L 737.522758 855.397506 
L 747.74189 856.859786 
L 758.216074 858.1285 
L 768.924088 859.236263 
L 779.844901 860.216272 
L 802.243878 861.925422 
L 848.81649 865.206954 
L 872.718994 867.184243 
L 896.905161 869.551614 
L 921.337346 872.322091 
L 958.533741 876.980861 
L 983.920093 880.038697 
L 996.86207 881.396474 
L 1010.026508 882.548555 
L 1023.469132 883.413386 
L 1037.258328 883.898199 
L 1051.476969 883.897669 
L 1066.224071 883.291907 
L 1081.615924 881.943806 
L 1097.786323 879.69594 
L 1114.885679 876.367467 
L 1133.079137 871.751579 
L 1152.544189 865.613956 
L 1173.468504 857.692315 
L 1196.048634 847.696784 
L 1220.923065 835.091062 
L 1220.923065 835.091062 
" clip-path="url(#p6ae80dadba)" style="fill: none; stroke: #17becf; stroke-width: 1.5"/>
   </g>
   <g id="patch_3">
    <path d="M 187.14255 961.2 
L 187.14255 129.6 
" style="fill: none; stroke: #000000; stroke-width: 0.8; stroke-linejoin: miter; stroke-linecap: square"/>
   </g>
   <g id="patch_4">
    <path d="M 1288.85745 961.2 
L 1288.85745 129.6 
" style="fill: none; stroke: #000000; stroke-width: 0.8; stroke-linejoin: miter; stroke-linecap: square"/>
   </g>
   <g id="patch_5">
    <path d="M 187.14255 961.2 
L 1288.85745 961.2 
" style="fill: none; stroke: #000000; stroke-width: 0.8; stroke-linejoin: miter; stroke-linecap: square"/>
   </g>
   <g id="patch_6">
    <path d="M 187.14255 129.6 
L 1288.85745 129.6 
" style="fill: none; stroke: #000000; stroke-width: 0.8; stroke-linejoin: miter; stroke-linecap: square"/>
   </g>
  </g>
 </g>
 <defs>
  <clipPath id="p6ae80dadba">
   <rect x="187.14255" y="129.6" width="1101.7149" height="831.6"/>
  </clipPath>
 </defs>
</svg>
