<?xml version="1.0" encoding="utf-8" standalone="no"?>
<!DOCTYPE svg PUBLIC "-//W3C//DTD SVG 1.1//EN"
  "http://www.w3.org/Graphics/SVG/1.1/DTD/svg11.dtd">
<svg xmlns:xlink="http://www.w3.org/1999/xlink" width="1440pt" height="1080pt" viewBox="0 0 1440 1080" xmlns="http://www.w3.org/2000/svg" version="1.1">
 <metadata>
  <rdf:RDF xmlns:dc="http://purl.org/dc/elements/1.1/" xmlns:cc="http://creativecommons.org/ns#" xmlns:rdf="http://www.w3.org/1999/02/22-rdf-syntax-ns#">
   <cc:Work>
    <dc:type rdf:resource="http://purl.org/dc/dcmitype/StillImage"/>
    <dc:date>2023-12-11T12:06:52.163767</dc:date>
    <dc:format>image/svg+xml</dc:format>
    <dc:creator>
     <cc:Agent>
      <dc:title>Matplotlib v3.7.1, https://matplotlib.org/</dc:title>
     </cc:Agent>
    </dc:creator>
   </cc:Work>
  </rdf:RDF>
 </metadata>
 <defs>
  <style type="text/css">*{stroke-linejoin: round; stroke-linecap: butt}</style>
 </defs>
 <g id="figure_1">
  <g id="patch_1">
   <path d="M 0 1080 
L 1440 1080 
L 1440 0 
L 0 0 
z
" style="fill: #ffffff"/>
  </g>
  <g id="axes_1">
   <g id="patch_2">
    <path d="M 294.354297 961.2 
L 1181.645703 961.2 
L 1181.645703 129.6 
L 294.354297 129.6 
z
" style="fill: #ffffff"/>
   </g>
   <g id="matplotlib.axis_1">
    <g id="xtick_1">
     <g id="line2d_1">
      <defs>
       <path id="m8b0cbf9bff" d="M 0 0 
L 0 3.5 
" style="stroke: #000000; stroke-width: 0.8"/>
      </defs>
      <g>
       <use xlink:href="#m8b0cbf9bff" x="352.838077" y="961.2" style="stroke: #000000; stroke-width: 0.8"/>
      </g>
     </g>
     <g id="text_1">
      <!-- 1000 -->
      <g transform="translate(340.113077 975.798437) scale(0.1 -0.1)">
       <defs>
        <path id="DejaVuSans-31" d="M 794 531 
L 1825 531 
L 1825 4091 
L 703 3866 
L 703 4441 
L 1819 4666 
L 2450 4666 
L 2450 531 
L 3481 531 
L 3481 0 
L 794 0 
L 794 531 
z
" transform="scale(0.015625)"/>
        <path id="DejaVuSans-30" d="M 2034 4250 
Q 1547 4250 1301 3770 
Q 1056 3291 1056 2328 
Q 1056 1369 1301 889 
Q 1547 409 2034 409 
Q 2525 409 2770 889 
Q 3016 1369 3016 2328 
Q 3016 3291 2770 3770 
Q 2525 4250 2034 4250 
z
M 2034 4750 
Q 2819 4750 3233 4129 
Q 3647 3509 3647 2328 
Q 3647 1150 3233 529 
Q 2819 -91 2034 -91 
Q 1250 -91 836 529 
Q 422 1150 422 2328 
Q 422 3509 836 4129 
Q 1250 4750 2034 4750 
z
" transform="scale(0.015625)"/>
       </defs>
       <use xlink:href="#DejaVuSans-31"/>
       <use xlink:href="#DejaVuSans-30" x="63.623047"/>
       <use xlink:href="#DejaVuSans-30" x="127.246094"/>
       <use xlink:href="#DejaVuSans-30" x="190.869141"/>
      </g>
     </g>
    </g>
    <g id="xtick_2">
     <g id="line2d_2">
      <g>
       <use xlink:href="#m8b0cbf9bff" x="457.417194" y="961.2" style="stroke: #000000; stroke-width: 0.8"/>
      </g>
     </g>
     <g id="text_2">
      <!-- 1100 -->
      <g transform="translate(444.692194 975.798437) scale(0.1 -0.1)">
       <use xlink:href="#DejaVuSans-31"/>
       <use xlink:href="#DejaVuSans-31" x="63.623047"/>
       <use xlink:href="#DejaVuSans-30" x="127.246094"/>
       <use xlink:href="#DejaVuSans-30" x="190.869141"/>
      </g>
     </g>
    </g>
    <g id="xtick_3">
     <g id="line2d_3">
      <g>
       <use xlink:href="#m8b0cbf9bff" x="561.99631" y="961.2" style="stroke: #000000; stroke-width: 0.8"/>
      </g>
     </g>
     <g id="text_3">
      <!-- 1200 -->
      <g transform="translate(549.27131 975.798437) scale(0.1 -0.1)">
       <defs>
        <path id="DejaVuSans-32" d="M 1228 531 
L 3431 531 
L 3431 0 
L 469 0 
L 469 531 
Q 828 903 1448 1529 
Q 2069 2156 2228 2338 
Q 2531 2678 2651 2914 
Q 2772 3150 2772 3378 
Q 2772 3750 2511 3984 
Q 2250 4219 1831 4219 
Q 1534 4219 1204 4116 
Q 875 4013 500 3803 
L 500 4441 
Q 881 4594 1212 4672 
Q 1544 4750 1819 4750 
Q 2544 4750 2975 4387 
Q 3406 4025 3406 3419 
Q 3406 3131 3298 2873 
Q 3191 2616 2906 2266 
Q 2828 2175 2409 1742 
Q 1991 1309 1228 531 
z
" transform="scale(0.015625)"/>
       </defs>
       <use xlink:href="#DejaVuSans-31"/>
       <use xlink:href="#DejaVuSans-32" x="63.623047"/>
       <use xlink:href="#DejaVuSans-30" x="127.246094"/>
       <use xlink:href="#DejaVuSans-30" x="190.869141"/>
      </g>
     </g>
    </g>
    <g id="xtick_4">
     <g id="line2d_4">
      <g>
       <use xlink:href="#m8b0cbf9bff" x="666.575426" y="961.2" style="stroke: #000000; stroke-width: 0.8"/>
      </g>
     </g>
     <g id="text_4">
      <!-- 1300 -->
      <g transform="translate(653.850426 975.798437) scale(0.1 -0.1)">
       <defs>
        <path id="DejaVuSans-33" d="M 2597 2516 
Q 3050 2419 3304 2112 
Q 3559 1806 3559 1356 
Q 3559 666 3084 287 
Q 2609 -91 1734 -91 
Q 1441 -91 1130 -33 
Q 819 25 488 141 
L 488 750 
Q 750 597 1062 519 
Q 1375 441 1716 441 
Q 2309 441 2620 675 
Q 2931 909 2931 1356 
Q 2931 1769 2642 2001 
Q 2353 2234 1838 2234 
L 1294 2234 
L 1294 2753 
L 1863 2753 
Q 2328 2753 2575 2939 
Q 2822 3125 2822 3475 
Q 2822 3834 2567 4026 
Q 2313 4219 1838 4219 
Q 1578 4219 1281 4162 
Q 984 4106 628 3988 
L 628 4550 
Q 988 4650 1302 4700 
Q 1616 4750 1894 4750 
Q 2613 4750 3031 4423 
Q 3450 4097 3450 3541 
Q 3450 3153 3228 2886 
Q 3006 2619 2597 2516 
z
" transform="scale(0.015625)"/>
       </defs>
       <use xlink:href="#DejaVuSans-31"/>
       <use xlink:href="#DejaVuSans-33" x="63.623047"/>
       <use xlink:href="#DejaVuSans-30" x="127.246094"/>
       <use xlink:href="#DejaVuSans-30" x="190.869141"/>
      </g>
     </g>
    </g>
    <g id="xtick_5">
     <g id="line2d_5">
      <g>
       <use xlink:href="#m8b0cbf9bff" x="771.154542" y="961.2" style="stroke: #000000; stroke-width: 0.8"/>
      </g>
     </g>
     <g id="text_5">
      <!-- 1400 -->
      <g transform="translate(758.429542 975.798437) scale(0.1 -0.1)">
       <defs>
        <path id="DejaVuSans-34" d="M 2419 4116 
L 825 1625 
L 2419 1625 
L 2419 4116 
z
M 2253 4666 
L 3047 4666 
L 3047 1625 
L 3713 1625 
L 3713 1100 
L 3047 1100 
L 3047 0 
L 2419 0 
L 2419 1100 
L 313 1100 
L 313 1709 
L 2253 4666 
z
" transform="scale(0.015625)"/>
       </defs>
       <use xlink:href="#DejaVuSans-31"/>
       <use xlink:href="#DejaVuSans-34" x="63.623047"/>
       <use xlink:href="#DejaVuSans-30" x="127.246094"/>
       <use xlink:href="#DejaVuSans-30" x="190.869141"/>
      </g>
     </g>
    </g>
    <g id="xtick_6">
     <g id="line2d_6">
      <g>
       <use xlink:href="#m8b0cbf9bff" x="875.733658" y="961.2" style="stroke: #000000; stroke-width: 0.8"/>
      </g>
     </g>
     <g id="text_6">
      <!-- 1500 -->
      <g transform="translate(863.008658 975.798437) scale(0.1 -0.1)">
       <defs>
        <path id="DejaVuSans-35" d="M 691 4666 
L 3169 4666 
L 3169 4134 
L 1269 4134 
L 1269 2991 
Q 1406 3038 1543 3061 
Q 1681 3084 1819 3084 
Q 2600 3084 3056 2656 
Q 3513 2228 3513 1497 
Q 3513 744 3044 326 
Q 2575 -91 1722 -91 
Q 1428 -91 1123 -41 
Q 819 9 494 109 
L 494 744 
Q 775 591 1075 516 
Q 1375 441 1709 441 
Q 2250 441 2565 725 
Q 2881 1009 2881 1497 
Q 2881 1984 2565 2268 
Q 2250 2553 1709 2553 
Q 1456 2553 1204 2497 
Q 953 2441 691 2322 
L 691 4666 
z
" transform="scale(0.015625)"/>
       </defs>
       <use xlink:href="#DejaVuSans-31"/>
       <use xlink:href="#DejaVuSans-35" x="63.623047"/>
       <use xlink:href="#DejaVuSans-30" x="127.246094"/>
       <use xlink:href="#DejaVuSans-30" x="190.869141"/>
      </g>
     </g>
    </g>
    <g id="xtick_7">
     <g id="line2d_7">
      <g>
       <use xlink:href="#m8b0cbf9bff" x="980.312775" y="961.2" style="stroke: #000000; stroke-width: 0.8"/>
      </g>
     </g>
     <g id="text_7">
      <!-- 1600 -->
      <g transform="translate(967.587775 975.798437) scale(0.1 -0.1)">
       <defs>
        <path id="DejaVuSans-36" d="M 2113 2584 
Q 1688 2584 1439 2293 
Q 1191 2003 1191 1497 
Q 1191 994 1439 701 
Q 1688 409 2113 409 
Q 2538 409 2786 701 
Q 3034 994 3034 1497 
Q 3034 2003 2786 2293 
Q 2538 2584 2113 2584 
z
M 3366 4563 
L 3366 3988 
Q 3128 4100 2886 4159 
Q 2644 4219 2406 4219 
Q 1781 4219 1451 3797 
Q 1122 3375 1075 2522 
Q 1259 2794 1537 2939 
Q 1816 3084 2150 3084 
Q 2853 3084 3261 2657 
Q 3669 2231 3669 1497 
Q 3669 778 3244 343 
Q 2819 -91 2113 -91 
Q 1303 -91 875 529 
Q 447 1150 447 2328 
Q 447 3434 972 4092 
Q 1497 4750 2381 4750 
Q 2619 4750 2861 4703 
Q 3103 4656 3366 4563 
z
" transform="scale(0.015625)"/>
       </defs>
       <use xlink:href="#DejaVuSans-31"/>
       <use xlink:href="#DejaVuSans-36" x="63.623047"/>
       <use xlink:href="#DejaVuSans-30" x="127.246094"/>
       <use xlink:href="#DejaVuSans-30" x="190.869141"/>
      </g>
     </g>
    </g>
    <g id="xtick_8">
     <g id="line2d_8">
      <g>
       <use xlink:href="#m8b0cbf9bff" x="1084.891891" y="961.2" style="stroke: #000000; stroke-width: 0.8"/>
      </g>
     </g>
     <g id="text_8">
      <!-- 1700 -->
      <g transform="translate(1072.166891 975.798437) scale(0.1 -0.1)">
       <defs>
        <path id="DejaVuSans-37" d="M 525 4666 
L 3525 4666 
L 3525 4397 
L 1831 0 
L 1172 0 
L 2766 4134 
L 525 4134 
L 525 4666 
z
" transform="scale(0.015625)"/>
       </defs>
       <use xlink:href="#DejaVuSans-31"/>
       <use xlink:href="#DejaVuSans-37" x="63.623047"/>
       <use xlink:href="#DejaVuSans-30" x="127.246094"/>
       <use xlink:href="#DejaVuSans-30" x="190.869141"/>
      </g>
     </g>
    </g>
   </g>
   <g id="matplotlib.axis_2">
    <g id="ytick_1">
     <g id="line2d_9">
      <defs>
       <path id="ma4572fa09e" d="M 0 0 
L -3.5 0 
" style="stroke: #000000; stroke-width: 0.8"/>
      </defs>
      <g>
       <use xlink:href="#ma4572fa09e" x="294.354297" y="942.194418" style="stroke: #000000; stroke-width: 0.8"/>
      </g>
     </g>
     <g id="text_9">
      <!-- 500 -->
      <g transform="translate(268.266797 945.993637) scale(0.1 -0.1)">
       <use xlink:href="#DejaVuSans-35"/>
       <use xlink:href="#DejaVuSans-30" x="63.623047"/>
       <use xlink:href="#DejaVuSans-30" x="127.246094"/>
      </g>
     </g>
    </g>
    <g id="ytick_2">
     <g id="line2d_10">
      <g>
       <use xlink:href="#ma4572fa09e" x="294.354297" y="837.615302" style="stroke: #000000; stroke-width: 0.8"/>
      </g>
     </g>
     <g id="text_10">
      <!-- 600 -->
      <g transform="translate(268.266797 841.414521) scale(0.1 -0.1)">
       <use xlink:href="#DejaVuSans-36"/>
       <use xlink:href="#DejaVuSans-30" x="63.623047"/>
       <use xlink:href="#DejaVuSans-30" x="127.246094"/>
      </g>
     </g>
    </g>
    <g id="ytick_3">
     <g id="line2d_11">
      <g>
       <use xlink:href="#ma4572fa09e" x="294.354297" y="733.036186" style="stroke: #000000; stroke-width: 0.8"/>
      </g>
     </g>
     <g id="text_11">
      <!-- 700 -->
      <g transform="translate(268.266797 736.835405) scale(0.1 -0.1)">
       <use xlink:href="#DejaVuSans-37"/>
       <use xlink:href="#DejaVuSans-30" x="63.623047"/>
       <use xlink:href="#DejaVuSans-30" x="127.246094"/>
      </g>
     </g>
    </g>
    <g id="ytick_4">
     <g id="line2d_12">
      <g>
       <use xlink:href="#ma4572fa09e" x="294.354297" y="628.45707" style="stroke: #000000; stroke-width: 0.8"/>
      </g>
     </g>
     <g id="text_12">
      <!-- 800 -->
      <g transform="translate(268.266797 632.256289) scale(0.1 -0.1)">
       <defs>
        <path id="DejaVuSans-38" d="M 2034 2216 
Q 1584 2216 1326 1975 
Q 1069 1734 1069 1313 
Q 1069 891 1326 650 
Q 1584 409 2034 409 
Q 2484 409 2743 651 
Q 3003 894 3003 1313 
Q 3003 1734 2745 1975 
Q 2488 2216 2034 2216 
z
M 1403 2484 
Q 997 2584 770 2862 
Q 544 3141 544 3541 
Q 544 4100 942 4425 
Q 1341 4750 2034 4750 
Q 2731 4750 3128 4425 
Q 3525 4100 3525 3541 
Q 3525 3141 3298 2862 
Q 3072 2584 2669 2484 
Q 3125 2378 3379 2068 
Q 3634 1759 3634 1313 
Q 3634 634 3220 271 
Q 2806 -91 2034 -91 
Q 1263 -91 848 271 
Q 434 634 434 1313 
Q 434 1759 690 2068 
Q 947 2378 1403 2484 
z
M 1172 3481 
Q 1172 3119 1398 2916 
Q 1625 2713 2034 2713 
Q 2441 2713 2670 2916 
Q 2900 3119 2900 3481 
Q 2900 3844 2670 4047 
Q 2441 4250 2034 4250 
Q 1625 4250 1398 4047 
Q 1172 3844 1172 3481 
z
" transform="scale(0.015625)"/>
       </defs>
       <use xlink:href="#DejaVuSans-38"/>
       <use xlink:href="#DejaVuSans-30" x="63.623047"/>
       <use xlink:href="#DejaVuSans-30" x="127.246094"/>
      </g>
     </g>
    </g>
    <g id="ytick_5">
     <g id="line2d_13">
      <g>
       <use xlink:href="#ma4572fa09e" x="294.354297" y="523.877954" style="stroke: #000000; stroke-width: 0.8"/>
      </g>
     </g>
     <g id="text_13">
      <!-- 900 -->
      <g transform="translate(268.266797 527.677172) scale(0.1 -0.1)">
       <defs>
        <path id="DejaVuSans-39" d="M 703 97 
L 703 672 
Q 941 559 1184 500 
Q 1428 441 1663 441 
Q 2288 441 2617 861 
Q 2947 1281 2994 2138 
Q 2813 1869 2534 1725 
Q 2256 1581 1919 1581 
Q 1219 1581 811 2004 
Q 403 2428 403 3163 
Q 403 3881 828 4315 
Q 1253 4750 1959 4750 
Q 2769 4750 3195 4129 
Q 3622 3509 3622 2328 
Q 3622 1225 3098 567 
Q 2575 -91 1691 -91 
Q 1453 -91 1209 -44 
Q 966 3 703 97 
z
M 1959 2075 
Q 2384 2075 2632 2365 
Q 2881 2656 2881 3163 
Q 2881 3666 2632 3958 
Q 2384 4250 1959 4250 
Q 1534 4250 1286 3958 
Q 1038 3666 1038 3163 
Q 1038 2656 1286 2365 
Q 1534 2075 1959 2075 
z
" transform="scale(0.015625)"/>
       </defs>
       <use xlink:href="#DejaVuSans-39"/>
       <use xlink:href="#DejaVuSans-30" x="63.623047"/>
       <use xlink:href="#DejaVuSans-30" x="127.246094"/>
      </g>
     </g>
    </g>
    <g id="ytick_6">
     <g id="line2d_14">
      <g>
       <use xlink:href="#ma4572fa09e" x="294.354297" y="419.298838" style="stroke: #000000; stroke-width: 0.8"/>
      </g>
     </g>
     <g id="text_14">
      <!-- 1000 -->
      <g transform="translate(261.904297 423.098056) scale(0.1 -0.1)">
       <use xlink:href="#DejaVuSans-31"/>
       <use xlink:href="#DejaVuSans-30" x="63.623047"/>
       <use xlink:href="#DejaVuSans-30" x="127.246094"/>
       <use xlink:href="#DejaVuSans-30" x="190.869141"/>
      </g>
     </g>
    </g>
    <g id="ytick_7">
     <g id="line2d_15">
      <g>
       <use xlink:href="#ma4572fa09e" x="294.354297" y="314.719721" style="stroke: #000000; stroke-width: 0.8"/>
      </g>
     </g>
     <g id="text_15">
      <!-- 1100 -->
      <g transform="translate(261.904297 318.51894) scale(0.1 -0.1)">
       <use xlink:href="#DejaVuSans-31"/>
       <use xlink:href="#DejaVuSans-31" x="63.623047"/>
       <use xlink:href="#DejaVuSans-30" x="127.246094"/>
       <use xlink:href="#DejaVuSans-30" x="190.869141"/>
      </g>
     </g>
    </g>
    <g id="ytick_8">
     <g id="line2d_16">
      <g>
       <use xlink:href="#ma4572fa09e" x="294.354297" y="210.140605" style="stroke: #000000; stroke-width: 0.8"/>
      </g>
     </g>
     <g id="text_16">
      <!-- 1200 -->
      <g transform="translate(261.904297 213.939824) scale(0.1 -0.1)">
       <use xlink:href="#DejaVuSans-31"/>
       <use xlink:href="#DejaVuSans-32" x="63.623047"/>
       <use xlink:href="#DejaVuSans-30" x="127.246094"/>
       <use xlink:href="#DejaVuSans-30" x="190.869141"/>
      </g>
     </g>
    </g>
   </g>
   <g id="LineCollection_1">
    <path d="M 1096.487137 171.3095 
L 1098.646757 194.31629 
L 1099.478579 214.880903 
L 1099.185317 233.707638 
L 1097.907893 250.973593 
L 1095.773366 266.848694 
L 1092.894331 281.494738 
L 1089.368927 295.063851 
L 1085.281669 307.696737 
L 1080.705041 319.521186 
L 1075.701617 330.651223 
L 1070.326301 341.187079 
L 1064.628332 351.21591 
L 1058.652819 360.813047 
L 1052.441744 370.043486 
L 1046.034473 378.963377 
L 1039.467936 387.621355 
L 1032.776581 396.059635 
L 1025.992243 404.314873 
L 1012.257981 420.398792 
L 998.462469 436.076295 
L 964.551329 474.330481 
L 944.959818 496.875846 
L 919.724481 526.419155 
L 901.219148 548.010397 
L 888.948835 562.005474 
L 876.628829 575.599809 
L 870.421184 582.225471 
L 864.166067 588.726161 
L 857.851662 595.094518 
L 851.466178 601.323778 
L 844.997882 607.407847 
L 838.435123 613.341348 
L 831.766353 619.11966 
L 824.980146 624.738928 
L 818.065236 630.196062 
L 811.010548 635.488714 
L 803.80526 640.615255 
L 796.438876 645.57473 
L 788.901315 650.366831 
L 781.183021 654.991863 
L 773.27508 659.450732 
L 765.169351 663.744942 
L 756.85859 667.876623 
L 748.336575 671.848567 
L 739.598214 675.664294 
L 730.639644 679.328131 
L 721.458302 682.845302 
L 712.052985 686.222031 
L 702.423883 689.465647 
L 692.572592 692.584692 
L 682.502122 695.589022 
L 672.216876 698.489912 
L 661.722633 701.30015 
L 640.136953 706.707946 
L 617.817566 711.948418 
L 571.297908 722.640374 
L 559.365043 725.512499 
L 547.348173 728.526725 
L 535.266383 731.71935 
L 523.140109 735.129667 
L 510.991315 738.800185 
L 498.843747 742.776852 
L 486.723304 747.109267 
L 474.658543 751.850843 
L 462.681343 757.058863 
L 450.827725 762.794355 
L 439.138805 769.121688 
L 427.661773 776.107781 
L 416.450721 783.820875 
L 405.56706 792.328865 
L 395.079215 801.697398 
L 385.061352 811.988103 
L 375.591113 823.257492 
L 366.746652 835.557058 
L 358.603627 848.934847 
L 351.232892 863.438336 
L 344.699522 879.117999 
L 339.0633 896.030744 
L 334.685725 912.882444 
L 334.685725 912.882444 
" clip-path="url(#p5987f1a724)" style="fill: none; stroke: #1f77b4; stroke-width: 1.5"/>
    <path d="M 1117.311417 169.35475 
L 1119.523013 192.915257 
L 1120.400989 214.620913 
L 1120.089109 234.642935 
L 1118.720545 253.140756 
L 1116.418388 270.262568 
L 1113.296142 286.14586 
L 1109.458197 300.917931 
L 1105.000298 314.696391 
L 1100.00999 327.589647 
L 1094.567055 339.697371 
L 1088.743927 351.110957 
L 1082.606105 361.91396 
L 1076.21254 372.182523 
L 1069.616016 381.985786 
L 1062.863516 391.386289 
L 1055.996575 400.440348 
L 1049.051622 409.198435 
L 1042.060304 417.705528 
L 1035.049805 426.001462 
L 1028.043149 434.121257 
L 1021.059492 442.095438 
L 1014.114403 449.950347 
L 1007.220133 457.708435 
L 1000.385875 465.388547 
L 993.618008 473.006199 
L 986.92034 480.573835 
L 980.294332 488.101084 
L 973.739313 495.594995 
L 967.252693 503.060275 
L 960.830156 510.499503 
L 954.465852 517.913346 
L 948.152574 525.300761 
L 941.881932 532.659182 
L 935.644513 539.984711 
L 929.430037 547.272288 
L 923.227502 554.515862 
L 917.025322 561.708544 
L 910.811462 568.842763 
L 904.573554 575.910407 
L 898.299022 582.902959 
L 891.975187 589.811625 
L 885.589368 596.627458 
L 879.128987 603.34147 
L 872.581652 609.944747 
L 865.935247 616.428545 
L 859.178008 622.784393 
L 852.298601 629.004182 
L 845.286186 635.080252 
L 838.130488 641.005476 
L 830.821851 646.773332 
L 823.351296 652.377981 
L 815.710571 657.814334 
L 807.892201 663.078112 
L 799.889529 668.165914 
L 791.696756 673.075268 
L 783.308981 677.804689 
L 774.722236 682.35373 
L 765.933512 686.723029 
L 756.940795 690.914357 
L 747.743092 694.930663 
L 738.340451 698.776114 
L 728.733993 702.456138 
L 718.925927 705.977463 
L 708.919577 709.348158 
L 698.719397 712.577665 
L 688.330995 715.676844 
L 677.761149 718.658003 
L 667.017829 721.534942 
L 656.110213 724.322983 
L 645.048708 727.039016 
L 633.844968 729.70153 
L 622.51192 732.33066 
L 611.063778 734.948222 
L 599.516071 737.57776 
L 587.885668 740.244589 
L 576.190801 742.975842 
L 564.451096 745.800519 
L 552.687603 748.749538 
L 540.922827 751.855792 
L 529.180767 755.154205 
L 517.486954 758.681793 
L 505.868492 762.47773 
L 494.354104 766.583418 
L 482.974181 771.042555 
L 471.760837 775.90122 
L 460.747965 781.207951 
L 449.971298 787.01383 
L 439.468478 793.372583 
L 429.279128 800.340671 
L 419.444924 807.977397 
L 410.009685 816.345017 
L 401.019453 825.508853 
L 392.522593 835.53742 
L 384.56989 846.502552 
L 377.214657 858.479542 
L 370.512847 871.547284 
L 364.523172 885.788423 
L 359.307235 901.289522 
L 354.92966 918.141222 
" clip-path="url(#p5987f1a724)" style="fill: none; stroke: #8c564b; stroke-width: 1.5"/>
    <path d="M 1138.135696 167.4 
L 1140.421747 192.06992 
L 1141.314275 214.946676 
L 1140.947922 236.186177 
L 1139.449827 255.927964 
L 1136.94145 274.296874 
L 1133.539878 291.405404 
L 1129.358374 307.356458 
L 1124.506048 322.246051 
L 1119.086845 336.165502 
L 1113.198159 349.202823 
L 1106.929506 361.443254 
L 1100.361536 372.96911 
L 1093.565548 383.859199 
L 1086.603506 394.188116 
L 1079.528437 404.025594 
L 1072.385091 413.436049 
L 1065.210708 422.47833 
L 1058.03583 431.205685 
L 1050.885065 439.665875 
L 1036.72882 455.949817 
L 983.062883 516.753728 
L 964.062559 538.878103 
L 932.797356 575.445887 
L 920.140919 589.879259 
L 907.238554 604.112019 
L 900.661026 611.129761 
L 893.981488 618.068143 
L 887.187094 624.916478 
L 880.265543 631.663843 
L 873.205209 638.299202 
L 865.995267 644.811554 
L 858.625803 651.190071 
L 851.087924 657.424261 
L 843.373829 663.504127 
L 835.47688 669.420336 
L 827.391632 675.164391 
L 819.113845 680.728788 
L 810.640469 686.107177 
L 801.96961 691.294492 
L 793.100478 696.287066 
L 784.033324 701.082726 
L 774.769381 705.680853 
L 765.310799 710.082422 
L 755.660597 714.290021 
L 745.822631 718.307848 
L 735.801568 722.141692 
L 725.602891 725.798911 
L 715.232914 729.288404 
L 704.698811 732.620576 
L 694.008668 735.80731 
L 683.171535 738.861948 
L 672.197492 741.799264 
L 649.884574 747.38812 
L 627.173912 752.720302 
L 581.015673 763.327677 
L 569.440682 766.112721 
L 557.900548 769.005746 
L 546.421103 772.036664 
L 535.029853 775.236533 
L 523.755918 778.63746 
L 512.629893 782.27251 
L 501.683631 786.17562 
L 490.949901 790.381552 
L 480.461911 794.925926 
L 470.252669 799.845414 
L 460.354215 805.178161 
L 450.796769 810.964553 
L 441.607948 817.248419 
L 432.812271 824.07868 
L 424.431239 831.511378 
L 416.484293 839.611783 
L 408.99079 848.45612 
L 401.972868 858.132383 
L 395.45872 868.739781 
L 389.48554 880.386778 
L 384.101434 893.18811 
L 379.365895 907.261527 
L 375.173595 923.4 
L 375.173595 923.4 
" clip-path="url(#p5987f1a724)" style="fill: none; stroke: #17becf; stroke-width: 1.5"/>
   </g>
   <g id="patch_3">
    <path d="M 294.354297 961.2 
L 294.354297 129.6 
" style="fill: none; stroke: #000000; stroke-width: 0.8; stroke-linejoin: miter; stroke-linecap: square"/>
   </g>
   <g id="patch_4">
    <path d="M 1181.645703 961.2 
L 1181.645703 129.6 
" style="fill: none; stroke: #000000; stroke-width: 0.8; stroke-linejoin: miter; stroke-linecap: square"/>
   </g>
   <g id="patch_5">
    <path d="M 294.354297 961.2 
L 1181.645703 961.2 
" style="fill: none; stroke: #000000; stroke-width: 0.8; stroke-linejoin: miter; stroke-linecap: square"/>
   </g>
   <g id="patch_6">
    <path d="M 294.354297 129.6 
L 1181.645703 129.6 
" style="fill: none; stroke: #000000; stroke-width: 0.8; stroke-linejoin: miter; stroke-linecap: square"/>
   </g>
  </g>
 </g>
 <defs>
  <clipPath id="p5987f1a724">
   <rect x="294.354297" y="129.6" width="887.291406" height="831.6"/>
  </clipPath>
 </defs>
</svg>
