<?xml version="1.0" encoding="utf-8" standalone="no"?>
<!DOCTYPE svg PUBLIC "-//W3C//DTD SVG 1.1//EN"
  "http://www.w3.org/Graphics/SVG/1.1/DTD/svg11.dtd">
<svg xmlns:xlink="http://www.w3.org/1999/xlink" width="1440pt" height="1080pt" viewBox="0 0 1440 1080" xmlns="http://www.w3.org/2000/svg" version="1.1">
 <metadata>
  <rdf:RDF xmlns:dc="http://purl.org/dc/elements/1.1/" xmlns:cc="http://creativecommons.org/ns#" xmlns:rdf="http://www.w3.org/1999/02/22-rdf-syntax-ns#">
   <cc:Work>
    <dc:type rdf:resource="http://purl.org/dc/dcmitype/StillImage"/>
    <dc:date>2023-12-11T12:06:43.580013</dc:date>
    <dc:format>image/svg+xml</dc:format>
    <dc:creator>
     <cc:Agent>
      <dc:title>Matplotlib v3.7.1, https://matplotlib.org/</dc:title>
     </cc:Agent>
    </dc:creator>
   </cc:Work>
  </rdf:RDF>
 </metadata>
 <defs>
  <style type="text/css">*{stroke-linejoin: round; stroke-linecap: butt}</style>
 </defs>
 <g id="figure_1">
  <g id="patch_1">
   <path d="M 0 1080 
L 1440 1080 
L 1440 0 
L 0 0 
z
" style="fill: #ffffff"/>
  </g>
  <g id="axes_1">
   <g id="patch_2">
    <path d="M 254.232113 961.2 
L 1221.767887 961.2 
L 1221.767887 129.6 
L 254.232113 129.6 
z
" style="fill: #ffffff"/>
   </g>
   <g id="matplotlib.axis_1">
    <g id="xtick_1">
     <g id="line2d_1">
      <defs>
       <path id="m74f70c56a0" d="M 0 0 
L 0 3.5 
" style="stroke: #000000; stroke-width: 0.8"/>
      </defs>
      <g>
       <use xlink:href="#m74f70c56a0" x="329.144126" y="961.2" style="stroke: #000000; stroke-width: 0.8"/>
      </g>
     </g>
     <g id="text_1">
      <!-- 100 -->
      <g transform="translate(319.600376 975.798437) scale(0.1 -0.1)">
       <defs>
        <path id="DejaVuSans-31" d="M 794 531 
L 1825 531 
L 1825 4091 
L 703 3866 
L 703 4441 
L 1819 4666 
L 2450 4666 
L 2450 531 
L 3481 531 
L 3481 0 
L 794 0 
L 794 531 
z
" transform="scale(0.015625)"/>
        <path id="DejaVuSans-30" d="M 2034 4250 
Q 1547 4250 1301 3770 
Q 1056 3291 1056 2328 
Q 1056 1369 1301 889 
Q 1547 409 2034 409 
Q 2525 409 2770 889 
Q 3016 1369 3016 2328 
Q 3016 3291 2770 3770 
Q 2525 4250 2034 4250 
z
M 2034 4750 
Q 2819 4750 3233 4129 
Q 3647 3509 3647 2328 
Q 3647 1150 3233 529 
Q 2819 -91 2034 -91 
Q 1250 -91 836 529 
Q 422 1150 422 2328 
Q 422 3509 836 4129 
Q 1250 4750 2034 4750 
z
" transform="scale(0.015625)"/>
       </defs>
       <use xlink:href="#DejaVuSans-31"/>
       <use xlink:href="#DejaVuSans-30" x="63.623047"/>
       <use xlink:href="#DejaVuSans-30" x="127.246094"/>
      </g>
     </g>
    </g>
    <g id="xtick_2">
     <g id="line2d_2">
      <g>
       <use xlink:href="#m74f70c56a0" x="466.136067" y="961.2" style="stroke: #000000; stroke-width: 0.8"/>
      </g>
     </g>
     <g id="text_2">
      <!-- 200 -->
      <g transform="translate(456.592317 975.798437) scale(0.1 -0.1)">
       <defs>
        <path id="DejaVuSans-32" d="M 1228 531 
L 3431 531 
L 3431 0 
L 469 0 
L 469 531 
Q 828 903 1448 1529 
Q 2069 2156 2228 2338 
Q 2531 2678 2651 2914 
Q 2772 3150 2772 3378 
Q 2772 3750 2511 3984 
Q 2250 4219 1831 4219 
Q 1534 4219 1204 4116 
Q 875 4013 500 3803 
L 500 4441 
Q 881 4594 1212 4672 
Q 1544 4750 1819 4750 
Q 2544 4750 2975 4387 
Q 3406 4025 3406 3419 
Q 3406 3131 3298 2873 
Q 3191 2616 2906 2266 
Q 2828 2175 2409 1742 
Q 1991 1309 1228 531 
z
" transform="scale(0.015625)"/>
       </defs>
       <use xlink:href="#DejaVuSans-32"/>
       <use xlink:href="#DejaVuSans-30" x="63.623047"/>
       <use xlink:href="#DejaVuSans-30" x="127.246094"/>
      </g>
     </g>
    </g>
    <g id="xtick_3">
     <g id="line2d_3">
      <g>
       <use xlink:href="#m74f70c56a0" x="603.128008" y="961.2" style="stroke: #000000; stroke-width: 0.8"/>
      </g>
     </g>
     <g id="text_3">
      <!-- 300 -->
      <g transform="translate(593.584258 975.798437) scale(0.1 -0.1)">
       <defs>
        <path id="DejaVuSans-33" d="M 2597 2516 
Q 3050 2419 3304 2112 
Q 3559 1806 3559 1356 
Q 3559 666 3084 287 
Q 2609 -91 1734 -91 
Q 1441 -91 1130 -33 
Q 819 25 488 141 
L 488 750 
Q 750 597 1062 519 
Q 1375 441 1716 441 
Q 2309 441 2620 675 
Q 2931 909 2931 1356 
Q 2931 1769 2642 2001 
Q 2353 2234 1838 2234 
L 1294 2234 
L 1294 2753 
L 1863 2753 
Q 2328 2753 2575 2939 
Q 2822 3125 2822 3475 
Q 2822 3834 2567 4026 
Q 2313 4219 1838 4219 
Q 1578 4219 1281 4162 
Q 984 4106 628 3988 
L 628 4550 
Q 988 4650 1302 4700 
Q 1616 4750 1894 4750 
Q 2613 4750 3031 4423 
Q 3450 4097 3450 3541 
Q 3450 3153 3228 2886 
Q 3006 2619 2597 2516 
z
" transform="scale(0.015625)"/>
       </defs>
       <use xlink:href="#DejaVuSans-33"/>
       <use xlink:href="#DejaVuSans-30" x="63.623047"/>
       <use xlink:href="#DejaVuSans-30" x="127.246094"/>
      </g>
     </g>
    </g>
    <g id="xtick_4">
     <g id="line2d_4">
      <g>
       <use xlink:href="#m74f70c56a0" x="740.119949" y="961.2" style="stroke: #000000; stroke-width: 0.8"/>
      </g>
     </g>
     <g id="text_4">
      <!-- 400 -->
      <g transform="translate(730.576199 975.798437) scale(0.1 -0.1)">
       <defs>
        <path id="DejaVuSans-34" d="M 2419 4116 
L 825 1625 
L 2419 1625 
L 2419 4116 
z
M 2253 4666 
L 3047 4666 
L 3047 1625 
L 3713 1625 
L 3713 1100 
L 3047 1100 
L 3047 0 
L 2419 0 
L 2419 1100 
L 313 1100 
L 313 1709 
L 2253 4666 
z
" transform="scale(0.015625)"/>
       </defs>
       <use xlink:href="#DejaVuSans-34"/>
       <use xlink:href="#DejaVuSans-30" x="63.623047"/>
       <use xlink:href="#DejaVuSans-30" x="127.246094"/>
      </g>
     </g>
    </g>
    <g id="xtick_5">
     <g id="line2d_5">
      <g>
       <use xlink:href="#m74f70c56a0" x="877.11189" y="961.2" style="stroke: #000000; stroke-width: 0.8"/>
      </g>
     </g>
     <g id="text_5">
      <!-- 500 -->
      <g transform="translate(867.56814 975.798437) scale(0.1 -0.1)">
       <defs>
        <path id="DejaVuSans-35" d="M 691 4666 
L 3169 4666 
L 3169 4134 
L 1269 4134 
L 1269 2991 
Q 1406 3038 1543 3061 
Q 1681 3084 1819 3084 
Q 2600 3084 3056 2656 
Q 3513 2228 3513 1497 
Q 3513 744 3044 326 
Q 2575 -91 1722 -91 
Q 1428 -91 1123 -41 
Q 819 9 494 109 
L 494 744 
Q 775 591 1075 516 
Q 1375 441 1709 441 
Q 2250 441 2565 725 
Q 2881 1009 2881 1497 
Q 2881 1984 2565 2268 
Q 2250 2553 1709 2553 
Q 1456 2553 1204 2497 
Q 953 2441 691 2322 
L 691 4666 
z
" transform="scale(0.015625)"/>
       </defs>
       <use xlink:href="#DejaVuSans-35"/>
       <use xlink:href="#DejaVuSans-30" x="63.623047"/>
       <use xlink:href="#DejaVuSans-30" x="127.246094"/>
      </g>
     </g>
    </g>
    <g id="xtick_6">
     <g id="line2d_6">
      <g>
       <use xlink:href="#m74f70c56a0" x="1014.103831" y="961.2" style="stroke: #000000; stroke-width: 0.8"/>
      </g>
     </g>
     <g id="text_6">
      <!-- 600 -->
      <g transform="translate(1004.560081 975.798437) scale(0.1 -0.1)">
       <defs>
        <path id="DejaVuSans-36" d="M 2113 2584 
Q 1688 2584 1439 2293 
Q 1191 2003 1191 1497 
Q 1191 994 1439 701 
Q 1688 409 2113 409 
Q 2538 409 2786 701 
Q 3034 994 3034 1497 
Q 3034 2003 2786 2293 
Q 2538 2584 2113 2584 
z
M 3366 4563 
L 3366 3988 
Q 3128 4100 2886 4159 
Q 2644 4219 2406 4219 
Q 1781 4219 1451 3797 
Q 1122 3375 1075 2522 
Q 1259 2794 1537 2939 
Q 1816 3084 2150 3084 
Q 2853 3084 3261 2657 
Q 3669 2231 3669 1497 
Q 3669 778 3244 343 
Q 2819 -91 2113 -91 
Q 1303 -91 875 529 
Q 447 1150 447 2328 
Q 447 3434 972 4092 
Q 1497 4750 2381 4750 
Q 2619 4750 2861 4703 
Q 3103 4656 3366 4563 
z
" transform="scale(0.015625)"/>
       </defs>
       <use xlink:href="#DejaVuSans-36"/>
       <use xlink:href="#DejaVuSans-30" x="63.623047"/>
       <use xlink:href="#DejaVuSans-30" x="127.246094"/>
      </g>
     </g>
    </g>
    <g id="xtick_7">
     <g id="line2d_7">
      <g>
       <use xlink:href="#m74f70c56a0" x="1151.095771" y="961.2" style="stroke: #000000; stroke-width: 0.8"/>
      </g>
     </g>
     <g id="text_7">
      <!-- 700 -->
      <g transform="translate(1141.552021 975.798437) scale(0.1 -0.1)">
       <defs>
        <path id="DejaVuSans-37" d="M 525 4666 
L 3525 4666 
L 3525 4397 
L 1831 0 
L 1172 0 
L 2766 4134 
L 525 4134 
L 525 4666 
z
" transform="scale(0.015625)"/>
       </defs>
       <use xlink:href="#DejaVuSans-37"/>
       <use xlink:href="#DejaVuSans-30" x="63.623047"/>
       <use xlink:href="#DejaVuSans-30" x="127.246094"/>
      </g>
     </g>
    </g>
   </g>
   <g id="matplotlib.axis_2">
    <g id="ytick_1">
     <g id="line2d_8">
      <defs>
       <path id="m6dc17953f7" d="M 0 0 
L -3.5 0 
" style="stroke: #000000; stroke-width: 0.8"/>
      </defs>
      <g>
       <use xlink:href="#m6dc17953f7" x="254.232113" y="893.021983" style="stroke: #000000; stroke-width: 0.8"/>
      </g>
     </g>
     <g id="text_8">
      <!-- 1000 -->
      <g transform="translate(221.782113 896.821202) scale(0.1 -0.1)">
       <use xlink:href="#DejaVuSans-31"/>
       <use xlink:href="#DejaVuSans-30" x="63.623047"/>
       <use xlink:href="#DejaVuSans-30" x="127.246094"/>
       <use xlink:href="#DejaVuSans-30" x="190.869141"/>
      </g>
     </g>
    </g>
    <g id="ytick_2">
     <g id="line2d_9">
      <g>
       <use xlink:href="#m6dc17953f7" x="254.232113" y="756.030042" style="stroke: #000000; stroke-width: 0.8"/>
      </g>
     </g>
     <g id="text_9">
      <!-- 1100 -->
      <g transform="translate(221.782113 759.829261) scale(0.1 -0.1)">
       <use xlink:href="#DejaVuSans-31"/>
       <use xlink:href="#DejaVuSans-31" x="63.623047"/>
       <use xlink:href="#DejaVuSans-30" x="127.246094"/>
       <use xlink:href="#DejaVuSans-30" x="190.869141"/>
      </g>
     </g>
    </g>
    <g id="ytick_3">
     <g id="line2d_10">
      <g>
       <use xlink:href="#m6dc17953f7" x="254.232113" y="619.038102" style="stroke: #000000; stroke-width: 0.8"/>
      </g>
     </g>
     <g id="text_10">
      <!-- 1200 -->
      <g transform="translate(221.782113 622.83732) scale(0.1 -0.1)">
       <use xlink:href="#DejaVuSans-31"/>
       <use xlink:href="#DejaVuSans-32" x="63.623047"/>
       <use xlink:href="#DejaVuSans-30" x="127.246094"/>
       <use xlink:href="#DejaVuSans-30" x="190.869141"/>
      </g>
     </g>
    </g>
    <g id="ytick_4">
     <g id="line2d_11">
      <g>
       <use xlink:href="#m6dc17953f7" x="254.232113" y="482.046161" style="stroke: #000000; stroke-width: 0.8"/>
      </g>
     </g>
     <g id="text_11">
      <!-- 1300 -->
      <g transform="translate(221.782113 485.845379) scale(0.1 -0.1)">
       <use xlink:href="#DejaVuSans-31"/>
       <use xlink:href="#DejaVuSans-33" x="63.623047"/>
       <use xlink:href="#DejaVuSans-30" x="127.246094"/>
       <use xlink:href="#DejaVuSans-30" x="190.869141"/>
      </g>
     </g>
    </g>
    <g id="ytick_5">
     <g id="line2d_12">
      <g>
       <use xlink:href="#m6dc17953f7" x="254.232113" y="345.05422" style="stroke: #000000; stroke-width: 0.8"/>
      </g>
     </g>
     <g id="text_12">
      <!-- 1400 -->
      <g transform="translate(221.782113 348.853439) scale(0.1 -0.1)">
       <use xlink:href="#DejaVuSans-31"/>
       <use xlink:href="#DejaVuSans-34" x="63.623047"/>
       <use xlink:href="#DejaVuSans-30" x="127.246094"/>
       <use xlink:href="#DejaVuSans-30" x="190.869141"/>
      </g>
     </g>
    </g>
    <g id="ytick_6">
     <g id="line2d_13">
      <g>
       <use xlink:href="#m6dc17953f7" x="254.232113" y="208.062279" style="stroke: #000000; stroke-width: 0.8"/>
      </g>
     </g>
     <g id="text_13">
      <!-- 1500 -->
      <g transform="translate(221.782113 211.861498) scale(0.1 -0.1)">
       <use xlink:href="#DejaVuSans-31"/>
       <use xlink:href="#DejaVuSans-35" x="63.623047"/>
       <use xlink:href="#DejaVuSans-30" x="127.246094"/>
       <use xlink:href="#DejaVuSans-30" x="190.869141"/>
      </g>
     </g>
    </g>
   </g>
   <g id="LineCollection_1">
    <path d="M 1165.500136 851.379668 
L 1142.907163 857.559524 
L 1121.781378 862.69936 
L 1101.75168 866.948781 
L 1082.756816 870.368448 
L 1064.740016 873.01403 
L 1047.648477 874.93673 
L 1031.432864 876.183757 
L 1016.046813 876.798737 
L 1001.446449 876.822057 
L 987.589928 876.291145 
L 974.437017 875.240664 
L 961.948729 873.702648 
L 950.087024 871.706557 
L 938.814611 869.279294 
L 928.094853 866.445183 
L 917.891781 863.225952 
L 908.17023 859.64075 
L 898.896053 855.706225 
L 890.036398 851.436685 
L 881.560011 846.844361 
L 873.437496 841.939754 
L 865.641528 836.732044 
L 858.146965 831.229539 
L 850.930859 825.440113 
L 843.972371 819.371598 
L 837.252608 813.03212 
L 830.754402 806.430331 
L 824.462065 799.57557 
L 818.361139 792.477923 
L 812.438168 785.148226 
L 806.680497 777.597994 
L 801.076111 769.839326 
L 795.613515 761.88477 
L 790.281653 753.747183 
L 785.069854 745.43958 
L 779.967821 736.974988 
L 774.965629 728.366306 
L 770.053747 719.626171 
L 765.223076 710.766836 
L 760.464988 701.800059 
L 755.771378 692.736998 
L 751.134707 683.58812 
L 746.548057 674.363115 
L 742.005172 665.070818 
L 737.500498 655.719144 
L 733.029218 646.315022 
L 728.587276 636.864344 
L 724.171392 627.371914 
L 719.779064 617.841408 
L 715.408565 608.275342 
L 711.058919 598.675047 
L 706.729869 589.040652 
L 702.421831 579.371079 
L 698.135833 569.664048 
L 693.873441 559.916099 
L 689.636673 550.122619 
L 685.4279 540.277893 
L 681.249738 530.375172 
L 677.104928 520.406762 
L 672.996201 510.364126 
L 668.926144 500.238027 
L 664.89705 490.018683 
L 660.910756 479.69596 
L 656.968473 469.259591 
L 653.070605 458.69943 
L 649.216542 448.005737 
L 645.404438 437.169497 
L 641.630967 426.182763 
L 637.891042 415.039039 
L 634.177501 403.733674 
L 630.480752 392.264286 
L 626.788364 380.631194 
L 623.084608 368.837855 
L 619.347159 356.882511 
L 615.5718 344.839376 
L 615.548629 344.765886 
L 611.708676 332.657209 
L 611.663861 332.517421 
L 607.728705 320.374701 
L 607.656872 320.156713 
L 603.590505 308.01834 
L 603.484258 307.708439 
L 599.244722 295.620424 
L 599.093752 295.202763 
L 594.632567 283.219507 
L 594.422387 282.675846 
L 589.683943 270.86095 
L 589.394121 270.170636 
L 584.315038 258.59776 
L 583.916799 257.738292 
L 578.42526 246.492046 
L 577.878432 245.440881 
L 571.893476 234.617772 
L 571.143151 233.356456 
L 564.573941 223.065875 
L 563.548176 221.588143 
L 556.293222 211.9534 
L 554.90509 210.278795 
L 546.851448 201.438204 
L 545.011526 199.630592 
L 536.033954 191.738602 
L 533.680246 189.922188 
L 523.640325 183.150563 
L 520.784363 181.505603 
L 509.529581 176.044658 
L 507.936329 175.34389 
L 506.295189 174.764073 
L 493.657988 170.823959 
L 491.979509 170.368652 
L 490.271733 170.039871 
L 476.068515 167.851911 
L 472.788073 167.58192 
L 456.818168 167.4 
L 453.845012 167.556454 
L 435.889604 169.658475 
L 433.325937 170.104981 
L 413.146951 174.794356 
L 411.007065 175.400677 
L 388.34601 183.007896 
L 386.591733 183.676623 
L 361.168505 194.560867 
L 359.741016 195.230055 
L 331.252654 209.780877 
L 330.091611 210.416122 
L 298.211011 229.055184 
" clip-path="url(#pf4576ec182)" style="fill: none; stroke: #1f77b4; stroke-width: 1.5"/>
    <path d="M 1171.644562 873.843111 
L 1148.733269 880.110038 
L 1126.951859 885.409385 
L 1106.232547 889.805113 
L 1086.512675 893.355304 
L 1067.734284 896.112717 
L 1049.843712 898.125303 
L 1032.791221 899.436689 
L 1016.530642 900.086624 
L 1001.019053 900.1114 
L 986.216473 899.544239 
L 972.085575 898.41565 
L 958.59143 896.753755 
L 945.701266 894.584595 
L 933.384243 891.932399 
L 921.611256 888.819833 
L 910.35475 885.268227 
L 899.588552 881.297771 
L 889.287726 876.927694 
L 879.428437 872.176422 
L 869.987832 867.061706 
L 860.943944 861.600747 
L 852.275593 855.810285 
L 843.962318 849.706682 
L 835.984307 843.305985 
L 828.322347 836.623972 
L 820.957786 829.676185 
L 813.872494 822.477952 
L 807.048846 815.04439 
L 800.469707 807.390404 
L 794.118426 799.53067 
L 787.978834 791.479614 
L 782.035259 783.251374 
L 776.272529 774.859767 
L 770.675998 766.318238 
L 765.231562 757.639811 
L 759.925686 748.837032 
L 754.745434 739.921913 
L 749.678493 730.905867 
L 744.713205 721.799648 
L 739.838601 712.613291 
L 735.044425 703.356046 
L 730.321169 694.03632 
L 725.660093 684.661623 
L 721.053254 675.238513 
L 716.493526 665.772546 
L 711.974612 656.268239 
L 707.491061 646.729033 
L 703.038267 637.157264 
L 698.612476 627.554149 
L 694.210769 617.919775 
L 689.831051 608.253107 
L 685.472025 598.551998 
L 681.133155 588.81322 
L 676.814623 579.032508 
L 672.517276 569.204617 
L 668.24255 559.323395 
L 663.992397 549.381877 
L 659.769189 539.372391 
L 655.57561 529.286691 
L 651.414534 519.116103 
L 647.288886 508.851697 
L 643.201491 498.484479 
L 639.154897 488.005607 
L 635.151192 477.406633 
L 631.191792 466.679769 
L 627.277216 455.818175 
L 623.406837 444.816285 
L 619.578619 433.67015 
L 615.788821 422.377822 
L 612.031691 410.939752 
L 608.299125 399.359243 
L 604.580316 387.642909 
L 600.861366 375.801191 
L 597.124877 363.848893 
L 593.349518 351.805757 
L 589.509566 339.69708 
L 585.57441 327.55436 
L 581.508043 315.415986 
L 577.268507 303.327971 
L 572.807323 291.344714 
L 568.068879 279.529819 
L 562.989796 267.956943 
L 557.498257 256.710697 
L 551.513301 245.887588 
L 544.94409 235.597007 
L 537.689136 225.962264 
L 529.635494 217.121673 
L 520.657921 209.229683 
L 510.618 202.458058 
L 499.363218 196.997113 
L 486.726017 193.056999 
L 472.5228 190.869039 
L 456.552895 190.687119 
L 438.597487 192.78914 
L 418.4185 197.478515 
L 395.757445 205.085733 
L 370.334217 215.969977 
L 341.845854 230.5208 
L 309.965255 249.159861 
" clip-path="url(#pf4576ec182)" style="fill: none; stroke: #8c564b; stroke-width: 1.5"/>
    <path d="M 1177.788989 896.306555 
L 1154.238718 902.738567 
L 1131.785107 908.190956 
L 1110.358889 912.725269 
L 1089.896089 916.396849 
L 1070.3377 919.255372 
L 1051.629402 921.345372 
L 1033.721323 922.706738 
L 1016.56784 923.375224 
L 1000.127404 923.382954 
L 984.362389 922.758947 
L 969.238931 921.529648 
L 954.726752 919.719481 
L 940.798941 917.351402 
L 927.431671 914.447442 
L 914.603845 911.029211 
L 902.296666 907.118343 
L 890.493131 902.736837 
L 879.177488 897.907288 
L 868.334686 892.652969 
L 857.949855 886.997789 
L 848.00786 880.966129 
L 838.492972 874.582596 
L 829.38865 867.871717 
L 820.677461 860.857645 
L 812.341108 853.563873 
L 804.360546 846.013012 
L 796.716167 838.226625 
L 789.388001 830.225128 
L 782.355943 822.027747 
L 775.599958 813.652521 
L 769.100269 805.116331 
L 762.837512 796.434954 
L 756.792868 787.623117 
L 750.948169 778.694548 
L 745.285966 769.662019 
L 739.789597 760.537383 
L 734.443225 751.331583 
L 729.231865 742.054665 
L 724.141412 732.715766 
L 714.271269 713.883925 
L 704.737938 694.890198 
L 695.461178 675.772577 
L 686.375449 656.552029 
L 673.028212 627.597562 
L 664.199146 608.029599 
L 651.17935 578.534847 
L 642.535438 558.435009 
L 634.021172 538.105223 
L 625.62333 517.393592 
L 617.368795 496.23519 
L 609.282645 474.575942 
L 601.381109 452.381176 
L 593.663257 429.645538 
L 586.101805 406.404756 
L 574.899837 370.806476 
L 567.332643 346.806916 
L 563.455495 334.843189 
L 559.477615 322.968957 
L 555.365787 311.245068 
L 551.083766 299.743067 
L 546.593176 288.546175 
L 541.854932 277.74991 
L 536.831293 267.461888 
L 531.488407 257.799889 
L 525.798565 248.886827 
L 519.739971 240.840878 
L 513.289374 233.759971 
L 506.400652 227.704244 
L 498.965311 222.68933 
L 490.766096 218.710981 
L 481.457836 215.808787 
L 470.607742 214.137364 
L 457.77921 213.991229 
L 442.599695 215.768279 
L 424.774485 219.910662 
L 404.059507 226.864591 
L 380.225005 237.068667 
L 353.028604 250.959602 
L 321.719498 269.264539 
L 321.719498 269.264539 
" clip-path="url(#pf4576ec182)" style="fill: none; stroke: #17becf; stroke-width: 1.5"/>
   </g>
   <g id="patch_3">
    <path d="M 254.232113 961.2 
L 254.232113 129.6 
" style="fill: none; stroke: #000000; stroke-width: 0.8; stroke-linejoin: miter; stroke-linecap: square"/>
   </g>
   <g id="patch_4">
    <path d="M 1221.767887 961.2 
L 1221.767887 129.6 
" style="fill: none; stroke: #000000; stroke-width: 0.8; stroke-linejoin: miter; stroke-linecap: square"/>
   </g>
   <g id="patch_5">
    <path d="M 254.232113 961.2 
L 1221.767887 961.2 
" style="fill: none; stroke: #000000; stroke-width: 0.8; stroke-linejoin: miter; stroke-linecap: square"/>
   </g>
   <g id="patch_6">
    <path d="M 254.232113 129.6 
L 1221.767887 129.6 
" style="fill: none; stroke: #000000; stroke-width: 0.8; stroke-linejoin: miter; stroke-linecap: square"/>
   </g>
  </g>
 </g>
 <defs>
  <clipPath id="pf4576ec182">
   <rect x="254.232113" y="129.6" width="967.535775" height="831.6"/>
  </clipPath>
 </defs>
</svg>
