<?xml version="1.0" encoding="utf-8" standalone="no"?>
<!DOCTYPE svg PUBLIC "-//W3C//DTD SVG 1.1//EN"
  "http://www.w3.org/Graphics/SVG/1.1/DTD/svg11.dtd">
<svg xmlns:xlink="http://www.w3.org/1999/xlink" width="1440pt" height="1080pt" viewBox="0 0 1440 1080" xmlns="http://www.w3.org/2000/svg" version="1.1">
 <metadata>
  <rdf:RDF xmlns:dc="http://purl.org/dc/elements/1.1/" xmlns:cc="http://creativecommons.org/ns#" xmlns:rdf="http://www.w3.org/1999/02/22-rdf-syntax-ns#">
   <cc:Work>
    <dc:type rdf:resource="http://purl.org/dc/dcmitype/StillImage"/>
    <dc:date>2023-12-11T12:06:58.024519</dc:date>
    <dc:format>image/svg+xml</dc:format>
    <dc:creator>
     <cc:Agent>
      <dc:title>Matplotlib v3.7.1, https://matplotlib.org/</dc:title>
     </cc:Agent>
    </dc:creator>
   </cc:Work>
  </rdf:RDF>
 </metadata>
 <defs>
  <style type="text/css">*{stroke-linejoin: round; stroke-linecap: butt}</style>
 </defs>
 <g id="figure_1">
  <g id="patch_1">
   <path d="M 0 1080 
L 1440 1080 
L 1440 0 
L 0 0 
z
" style="fill: #ffffff"/>
  </g>
  <g id="axes_1">
   <g id="patch_2">
    <path d="M 180 951.530451 
L 1296 951.530451 
L 1296 139.269549 
L 180 139.269549 
z
" style="fill: #ffffff"/>
   </g>
   <g id="matplotlib.axis_1">
    <g id="xtick_1">
     <g id="line2d_1">
      <defs>
       <path id="mbaed55b221" d="M 0 0 
L 0 3.5 
" style="stroke: #000000; stroke-width: 0.8"/>
      </defs>
      <g>
       <use xlink:href="#mbaed55b221" x="262.14101" y="951.530451" style="stroke: #000000; stroke-width: 0.8"/>
      </g>
     </g>
     <g id="text_1">
      <!-- 400 -->
      <g transform="translate(252.59726 966.128889) scale(0.1 -0.1)">
       <defs>
        <path id="DejaVuSans-34" d="M 2419 4116 
L 825 1625 
L 2419 1625 
L 2419 4116 
z
M 2253 4666 
L 3047 4666 
L 3047 1625 
L 3713 1625 
L 3713 1100 
L 3047 1100 
L 3047 0 
L 2419 0 
L 2419 1100 
L 313 1100 
L 313 1709 
L 2253 4666 
z
" transform="scale(0.015625)"/>
        <path id="DejaVuSans-30" d="M 2034 4250 
Q 1547 4250 1301 3770 
Q 1056 3291 1056 2328 
Q 1056 1369 1301 889 
Q 1547 409 2034 409 
Q 2525 409 2770 889 
Q 3016 1369 3016 2328 
Q 3016 3291 2770 3770 
Q 2525 4250 2034 4250 
z
M 2034 4750 
Q 2819 4750 3233 4129 
Q 3647 3509 3647 2328 
Q 3647 1150 3233 529 
Q 2819 -91 2034 -91 
Q 1250 -91 836 529 
Q 422 1150 422 2328 
Q 422 3509 836 4129 
Q 1250 4750 2034 4750 
z
" transform="scale(0.015625)"/>
       </defs>
       <use xlink:href="#DejaVuSans-34"/>
       <use xlink:href="#DejaVuSans-30" x="63.623047"/>
       <use xlink:href="#DejaVuSans-30" x="127.246094"/>
      </g>
     </g>
    </g>
    <g id="xtick_2">
     <g id="line2d_2">
      <g>
       <use xlink:href="#mbaed55b221" x="454.788545" y="951.530451" style="stroke: #000000; stroke-width: 0.8"/>
      </g>
     </g>
     <g id="text_2">
      <!-- 600 -->
      <g transform="translate(445.244795 966.128889) scale(0.1 -0.1)">
       <defs>
        <path id="DejaVuSans-36" d="M 2113 2584 
Q 1688 2584 1439 2293 
Q 1191 2003 1191 1497 
Q 1191 994 1439 701 
Q 1688 409 2113 409 
Q 2538 409 2786 701 
Q 3034 994 3034 1497 
Q 3034 2003 2786 2293 
Q 2538 2584 2113 2584 
z
M 3366 4563 
L 3366 3988 
Q 3128 4100 2886 4159 
Q 2644 4219 2406 4219 
Q 1781 4219 1451 3797 
Q 1122 3375 1075 2522 
Q 1259 2794 1537 2939 
Q 1816 3084 2150 3084 
Q 2853 3084 3261 2657 
Q 3669 2231 3669 1497 
Q 3669 778 3244 343 
Q 2819 -91 2113 -91 
Q 1303 -91 875 529 
Q 447 1150 447 2328 
Q 447 3434 972 4092 
Q 1497 4750 2381 4750 
Q 2619 4750 2861 4703 
Q 3103 4656 3366 4563 
z
" transform="scale(0.015625)"/>
       </defs>
       <use xlink:href="#DejaVuSans-36"/>
       <use xlink:href="#DejaVuSans-30" x="63.623047"/>
       <use xlink:href="#DejaVuSans-30" x="127.246094"/>
      </g>
     </g>
    </g>
    <g id="xtick_3">
     <g id="line2d_3">
      <g>
       <use xlink:href="#mbaed55b221" x="647.43608" y="951.530451" style="stroke: #000000; stroke-width: 0.8"/>
      </g>
     </g>
     <g id="text_3">
      <!-- 800 -->
      <g transform="translate(637.89233 966.128889) scale(0.1 -0.1)">
       <defs>
        <path id="DejaVuSans-38" d="M 2034 2216 
Q 1584 2216 1326 1975 
Q 1069 1734 1069 1313 
Q 1069 891 1326 650 
Q 1584 409 2034 409 
Q 2484 409 2743 651 
Q 3003 894 3003 1313 
Q 3003 1734 2745 1975 
Q 2488 2216 2034 2216 
z
M 1403 2484 
Q 997 2584 770 2862 
Q 544 3141 544 3541 
Q 544 4100 942 4425 
Q 1341 4750 2034 4750 
Q 2731 4750 3128 4425 
Q 3525 4100 3525 3541 
Q 3525 3141 3298 2862 
Q 3072 2584 2669 2484 
Q 3125 2378 3379 2068 
Q 3634 1759 3634 1313 
Q 3634 634 3220 271 
Q 2806 -91 2034 -91 
Q 1263 -91 848 271 
Q 434 634 434 1313 
Q 434 1759 690 2068 
Q 947 2378 1403 2484 
z
M 1172 3481 
Q 1172 3119 1398 2916 
Q 1625 2713 2034 2713 
Q 2441 2713 2670 2916 
Q 2900 3119 2900 3481 
Q 2900 3844 2670 4047 
Q 2441 4250 2034 4250 
Q 1625 4250 1398 4047 
Q 1172 3844 1172 3481 
z
" transform="scale(0.015625)"/>
       </defs>
       <use xlink:href="#DejaVuSans-38"/>
       <use xlink:href="#DejaVuSans-30" x="63.623047"/>
       <use xlink:href="#DejaVuSans-30" x="127.246094"/>
      </g>
     </g>
    </g>
    <g id="xtick_4">
     <g id="line2d_4">
      <g>
       <use xlink:href="#mbaed55b221" x="840.083615" y="951.530451" style="stroke: #000000; stroke-width: 0.8"/>
      </g>
     </g>
     <g id="text_4">
      <!-- 1000 -->
      <g transform="translate(827.358615 966.128889) scale(0.1 -0.1)">
       <defs>
        <path id="DejaVuSans-31" d="M 794 531 
L 1825 531 
L 1825 4091 
L 703 3866 
L 703 4441 
L 1819 4666 
L 2450 4666 
L 2450 531 
L 3481 531 
L 3481 0 
L 794 0 
L 794 531 
z
" transform="scale(0.015625)"/>
       </defs>
       <use xlink:href="#DejaVuSans-31"/>
       <use xlink:href="#DejaVuSans-30" x="63.623047"/>
       <use xlink:href="#DejaVuSans-30" x="127.246094"/>
       <use xlink:href="#DejaVuSans-30" x="190.869141"/>
      </g>
     </g>
    </g>
    <g id="xtick_5">
     <g id="line2d_5">
      <g>
       <use xlink:href="#mbaed55b221" x="1032.73115" y="951.530451" style="stroke: #000000; stroke-width: 0.8"/>
      </g>
     </g>
     <g id="text_5">
      <!-- 1200 -->
      <g transform="translate(1020.00615 966.128889) scale(0.1 -0.1)">
       <defs>
        <path id="DejaVuSans-32" d="M 1228 531 
L 3431 531 
L 3431 0 
L 469 0 
L 469 531 
Q 828 903 1448 1529 
Q 2069 2156 2228 2338 
Q 2531 2678 2651 2914 
Q 2772 3150 2772 3378 
Q 2772 3750 2511 3984 
Q 2250 4219 1831 4219 
Q 1534 4219 1204 4116 
Q 875 4013 500 3803 
L 500 4441 
Q 881 4594 1212 4672 
Q 1544 4750 1819 4750 
Q 2544 4750 2975 4387 
Q 3406 4025 3406 3419 
Q 3406 3131 3298 2873 
Q 3191 2616 2906 2266 
Q 2828 2175 2409 1742 
Q 1991 1309 1228 531 
z
" transform="scale(0.015625)"/>
       </defs>
       <use xlink:href="#DejaVuSans-31"/>
       <use xlink:href="#DejaVuSans-32" x="63.623047"/>
       <use xlink:href="#DejaVuSans-30" x="127.246094"/>
       <use xlink:href="#DejaVuSans-30" x="190.869141"/>
      </g>
     </g>
    </g>
    <g id="xtick_6">
     <g id="line2d_6">
      <g>
       <use xlink:href="#mbaed55b221" x="1225.378685" y="951.530451" style="stroke: #000000; stroke-width: 0.8"/>
      </g>
     </g>
     <g id="text_6">
      <!-- 1400 -->
      <g transform="translate(1212.653685 966.128889) scale(0.1 -0.1)">
       <use xlink:href="#DejaVuSans-31"/>
       <use xlink:href="#DejaVuSans-34" x="63.623047"/>
       <use xlink:href="#DejaVuSans-30" x="127.246094"/>
       <use xlink:href="#DejaVuSans-30" x="190.869141"/>
      </g>
     </g>
    </g>
   </g>
   <g id="matplotlib.axis_2">
    <g id="ytick_1">
     <g id="line2d_7">
      <defs>
       <path id="m553ec9ce7f" d="M 0 0 
L -3.5 0 
" style="stroke: #000000; stroke-width: 0.8"/>
      </defs>
      <g>
       <use xlink:href="#m553ec9ce7f" x="180" y="878.813618" style="stroke: #000000; stroke-width: 0.8"/>
      </g>
     </g>
     <g id="text_7">
      <!-- 300 -->
      <g transform="translate(153.9125 882.612837) scale(0.1 -0.1)">
       <defs>
        <path id="DejaVuSans-33" d="M 2597 2516 
Q 3050 2419 3304 2112 
Q 3559 1806 3559 1356 
Q 3559 666 3084 287 
Q 2609 -91 1734 -91 
Q 1441 -91 1130 -33 
Q 819 25 488 141 
L 488 750 
Q 750 597 1062 519 
Q 1375 441 1716 441 
Q 2309 441 2620 675 
Q 2931 909 2931 1356 
Q 2931 1769 2642 2001 
Q 2353 2234 1838 2234 
L 1294 2234 
L 1294 2753 
L 1863 2753 
Q 2328 2753 2575 2939 
Q 2822 3125 2822 3475 
Q 2822 3834 2567 4026 
Q 2313 4219 1838 4219 
Q 1578 4219 1281 4162 
Q 984 4106 628 3988 
L 628 4550 
Q 988 4650 1302 4700 
Q 1616 4750 1894 4750 
Q 2613 4750 3031 4423 
Q 3450 4097 3450 3541 
Q 3450 3153 3228 2886 
Q 3006 2619 2597 2516 
z
" transform="scale(0.015625)"/>
       </defs>
       <use xlink:href="#DejaVuSans-33"/>
       <use xlink:href="#DejaVuSans-30" x="63.623047"/>
       <use xlink:href="#DejaVuSans-30" x="127.246094"/>
      </g>
     </g>
    </g>
    <g id="ytick_2">
     <g id="line2d_8">
      <g>
       <use xlink:href="#m553ec9ce7f" x="180" y="782.489851" style="stroke: #000000; stroke-width: 0.8"/>
      </g>
     </g>
     <g id="text_8">
      <!-- 400 -->
      <g transform="translate(153.9125 786.28907) scale(0.1 -0.1)">
       <use xlink:href="#DejaVuSans-34"/>
       <use xlink:href="#DejaVuSans-30" x="63.623047"/>
       <use xlink:href="#DejaVuSans-30" x="127.246094"/>
      </g>
     </g>
    </g>
    <g id="ytick_3">
     <g id="line2d_9">
      <g>
       <use xlink:href="#m553ec9ce7f" x="180" y="686.166083" style="stroke: #000000; stroke-width: 0.8"/>
      </g>
     </g>
     <g id="text_9">
      <!-- 500 -->
      <g transform="translate(153.9125 689.965302) scale(0.1 -0.1)">
       <defs>
        <path id="DejaVuSans-35" d="M 691 4666 
L 3169 4666 
L 3169 4134 
L 1269 4134 
L 1269 2991 
Q 1406 3038 1543 3061 
Q 1681 3084 1819 3084 
Q 2600 3084 3056 2656 
Q 3513 2228 3513 1497 
Q 3513 744 3044 326 
Q 2575 -91 1722 -91 
Q 1428 -91 1123 -41 
Q 819 9 494 109 
L 494 744 
Q 775 591 1075 516 
Q 1375 441 1709 441 
Q 2250 441 2565 725 
Q 2881 1009 2881 1497 
Q 2881 1984 2565 2268 
Q 2250 2553 1709 2553 
Q 1456 2553 1204 2497 
Q 953 2441 691 2322 
L 691 4666 
z
" transform="scale(0.015625)"/>
       </defs>
       <use xlink:href="#DejaVuSans-35"/>
       <use xlink:href="#DejaVuSans-30" x="63.623047"/>
       <use xlink:href="#DejaVuSans-30" x="127.246094"/>
      </g>
     </g>
    </g>
    <g id="ytick_4">
     <g id="line2d_10">
      <g>
       <use xlink:href="#m553ec9ce7f" x="180" y="589.842316" style="stroke: #000000; stroke-width: 0.8"/>
      </g>
     </g>
     <g id="text_10">
      <!-- 600 -->
      <g transform="translate(153.9125 593.641535) scale(0.1 -0.1)">
       <use xlink:href="#DejaVuSans-36"/>
       <use xlink:href="#DejaVuSans-30" x="63.623047"/>
       <use xlink:href="#DejaVuSans-30" x="127.246094"/>
      </g>
     </g>
    </g>
    <g id="ytick_5">
     <g id="line2d_11">
      <g>
       <use xlink:href="#m553ec9ce7f" x="180" y="493.518548" style="stroke: #000000; stroke-width: 0.8"/>
      </g>
     </g>
     <g id="text_11">
      <!-- 700 -->
      <g transform="translate(153.9125 497.317767) scale(0.1 -0.1)">
       <defs>
        <path id="DejaVuSans-37" d="M 525 4666 
L 3525 4666 
L 3525 4397 
L 1831 0 
L 1172 0 
L 2766 4134 
L 525 4134 
L 525 4666 
z
" transform="scale(0.015625)"/>
       </defs>
       <use xlink:href="#DejaVuSans-37"/>
       <use xlink:href="#DejaVuSans-30" x="63.623047"/>
       <use xlink:href="#DejaVuSans-30" x="127.246094"/>
      </g>
     </g>
    </g>
    <g id="ytick_6">
     <g id="line2d_12">
      <g>
       <use xlink:href="#m553ec9ce7f" x="180" y="397.194781" style="stroke: #000000; stroke-width: 0.8"/>
      </g>
     </g>
     <g id="text_12">
      <!-- 800 -->
      <g transform="translate(153.9125 400.994) scale(0.1 -0.1)">
       <use xlink:href="#DejaVuSans-38"/>
       <use xlink:href="#DejaVuSans-30" x="63.623047"/>
       <use xlink:href="#DejaVuSans-30" x="127.246094"/>
      </g>
     </g>
    </g>
    <g id="ytick_7">
     <g id="line2d_13">
      <g>
       <use xlink:href="#m553ec9ce7f" x="180" y="300.871013" style="stroke: #000000; stroke-width: 0.8"/>
      </g>
     </g>
     <g id="text_13">
      <!-- 900 -->
      <g transform="translate(153.9125 304.670232) scale(0.1 -0.1)">
       <defs>
        <path id="DejaVuSans-39" d="M 703 97 
L 703 672 
Q 941 559 1184 500 
Q 1428 441 1663 441 
Q 2288 441 2617 861 
Q 2947 1281 2994 2138 
Q 2813 1869 2534 1725 
Q 2256 1581 1919 1581 
Q 1219 1581 811 2004 
Q 403 2428 403 3163 
Q 403 3881 828 4315 
Q 1253 4750 1959 4750 
Q 2769 4750 3195 4129 
Q 3622 3509 3622 2328 
Q 3622 1225 3098 567 
Q 2575 -91 1691 -91 
Q 1453 -91 1209 -44 
Q 966 3 703 97 
z
M 1959 2075 
Q 2384 2075 2632 2365 
Q 2881 2656 2881 3163 
Q 2881 3666 2632 3958 
Q 2384 4250 1959 4250 
Q 1534 4250 1286 3958 
Q 1038 3666 1038 3163 
Q 1038 2656 1286 2365 
Q 1534 2075 1959 2075 
z
" transform="scale(0.015625)"/>
       </defs>
       <use xlink:href="#DejaVuSans-39"/>
       <use xlink:href="#DejaVuSans-30" x="63.623047"/>
       <use xlink:href="#DejaVuSans-30" x="127.246094"/>
      </g>
     </g>
    </g>
    <g id="ytick_8">
     <g id="line2d_14">
      <g>
       <use xlink:href="#m553ec9ce7f" x="180" y="204.547246" style="stroke: #000000; stroke-width: 0.8"/>
      </g>
     </g>
     <g id="text_14">
      <!-- 1000 -->
      <g transform="translate(147.55 208.346465) scale(0.1 -0.1)">
       <use xlink:href="#DejaVuSans-31"/>
       <use xlink:href="#DejaVuSans-30" x="63.623047"/>
       <use xlink:href="#DejaVuSans-30" x="127.246094"/>
       <use xlink:href="#DejaVuSans-30" x="190.869141"/>
      </g>
     </g>
    </g>
   </g>
   <g id="LineCollection_1">
    <path d="M 230.727273 209.786289 
L 241.939186 223.038619 
L 243.700291 224.922288 
L 255.613362 236.460535 
L 257.422743 238.057139 
L 271.688517 249.394029 
L 286.321039 259.145183 
L 301.177276 267.521515 
L 316.145387 274.723334 
L 331.139193 280.934389 
L 346.092113 286.319261 
L 360.951982 291.023169 
L 375.677157 295.173119 
L 390.233821 298.879638 
L 404.594203 302.238632 
L 418.735412 305.333151 
L 446.288825 311.005955 
L 485.71208 319.04955 
L 498.290197 321.765645 
L 510.578977 324.549611 
L 522.578904 327.424888 
L 534.292168 330.41097 
L 545.722439 333.523956 
L 556.874648 336.777047 
L 567.754765 340.180994 
L 578.369576 343.744492 
L 588.726476 347.474539 
L 598.833273 351.37674 
L 608.697997 355.455581 
L 618.328737 359.714666 
L 627.733502 364.156908 
L 636.92009 368.784709 
L 645.896001 373.600102 
L 654.668355 378.604872 
L 663.243848 383.800662 
L 671.628721 389.189063 
L 679.828748 394.771686 
L 687.849246 400.550226 
L 695.695092 406.526513 
L 703.370753 412.702554 
L 710.880325 419.08056 
L 718.227576 425.662971 
L 725.415993 432.452455 
L 732.448832 439.451909 
L 739.329168 446.664435 
L 746.059948 454.093307 
L 752.644043 461.741924 
L 759.084299 469.613742 
L 765.383599 477.712202 
L 771.54492 486.040629 
L 777.571395 494.602133 
L 783.466385 503.399492 
L 789.233556 512.435021 
L 794.876957 521.710448 
L 800.401117 531.226772 
L 805.811136 540.98413 
L 811.112795 550.98166 
L 816.312665 561.217371 
L 821.418224 571.688016 
L 826.437979 582.388975 
L 831.381588 593.31415 
L 836.259992 604.455862 
L 841.08554 615.804773 
L 850.635299 639.078084 
L 864.972606 675.217427 
L 874.808453 699.958323 
L 879.883805 712.443308 
L 885.10564 724.970338 
L 890.508879 737.511118 
L 896.131748 750.035179 
L 902.016017 762.509698 
L 908.207242 774.899198 
L 914.754949 787.165109 
L 921.712718 799.265117 
L 929.13804 811.152297 
L 937.091832 822.774001 
L 945.637404 834.070588 
L 954.838703 844.97419 
L 964.757742 855.407863 
L 975.451311 865.285663 
L 986.967437 874.514191 
L 999.342478 882.995967 
L 1012.599935 890.634437 
L 1026.751857 897.339669 
L 1041.802918 903.03328 
L 1057.756217 907.651201 
L 1074.619161 911.143675 
L 1092.407847 913.472906 
L 1111.149112 914.609501 
L 1130.880301 914.528939 
L 1151.647432 913.208901 
L 1173.502581 910.627785 
L 1196.501162 906.7643 
L 1220.699497 901.597888 
L 1245.272727 895.349918 
L 1245.272727 895.349918 
" clip-path="url(#p17e6c9b942)" style="fill: none; stroke: #1f77b4; stroke-width: 1.5"/>
    <path d="M 250.582158 192.988394 
L 261.794071 206.240724 
L 273.707143 217.778971 
L 286.201516 227.812588 
L 299.16886 236.532814 
L 312.511596 244.113846 
L 326.142157 250.713954 
L 339.982283 256.476558 
L 353.962344 261.531255 
L 368.020692 265.994803 
L 382.103048 269.972054 
L 396.16191 273.556851 
L 410.156004 276.832882 
L 424.049744 279.874486 
L 437.812736 282.747422 
L 451.419301 285.509603 
L 464.848021 288.211782 
L 478.081323 290.898209 
L 491.105071 293.60724 
L 503.908198 296.371923 
L 516.482353 299.22054 
L 528.82157 302.177114 
L 540.921969 305.261888 
L 552.781466 308.491772 
L 564.399513 311.880748 
L 575.77686 315.440258 
L 586.915327 319.179553 
L 597.817607 323.106018 
L 608.487081 327.225467 
L 618.927651 331.542408 
L 629.143596 336.060292 
L 639.139438 340.781723 
L 648.91983 345.708657 
L 658.489456 350.842566 
L 667.85295 356.18459 
L 677.014821 361.73566 
L 685.979408 367.496605 
L 694.750827 373.468235 
L 703.332951 379.65141 
L 711.729387 386.047089 
L 719.943473 392.656361 
L 727.978282 399.480461 
L 735.836639 406.520772 
L 743.521144 413.778813 
L 751.034205 421.256209 
L 758.378083 428.954656 
L 765.55494 436.875871 
L 772.566898 445.021528 
L 779.416098 453.393193 
L 786.104774 461.992238 
L 792.635326 470.819766 
L 799.010398 479.876504 
L 805.232963 489.162716 
L 811.306409 498.678093 
L 817.234629 508.421644 
L 823.022111 518.391588 
L 828.674035 528.585238 
L 834.196362 538.998889 
L 839.595932 549.627701 
L 844.880558 560.465582 
L 850.059118 571.505079 
L 855.141651 582.737266 
L 860.139438 594.151636 
L 865.065098 605.735995 
L 869.932668 617.476369 
L 874.757682 629.356907 
L 879.557247 641.3598 
L 884.350112 653.465198 
L 889.156734 665.651148 
L 893.999333 677.893529 
L 898.901944 690.166007 
L 903.890462 702.439999 
L 908.992671 714.684644 
L 914.238275 726.866799 
L 919.658913 738.951034 
L 925.288162 750.899659 
L 931.161538 762.67275 
L 937.316474 774.228209 
L 943.792295 785.521827 
L 950.630178 796.507375 
L 957.873098 807.136713 
L 965.565757 817.359918 
L 973.754507 827.125433 
L 982.487249 836.380243 
L 991.813323 845.070068 
L 1001.783378 853.139588 
L 1012.449222 860.532686 
L 1023.863667 867.19272 
L 1036.08034 873.062825 
L 1049.153485 878.086238 
L 1063.137744 882.206655 
L 1078.087918 885.36862 
L 1094.058702 887.517937 
L 1111.104412 888.602122 
L 1129.278672 888.570886 
L 1148.634095 887.376643 
L 1169.221932 884.975069 
L 1191.0917 881.325679 
L 1214.290783 876.392449 
L 1238.864013 870.144479 
" clip-path="url(#p17e6c9b942)" style="fill: none; stroke: #8c564b; stroke-width: 1.5"/>
    <path d="M 270.437044 176.190499 
L 280.815155 188.457286 
L 290.933308 198.257089 
L 301.627791 206.845303 
L 312.868693 214.404538 
L 324.615744 221.078939 
L 336.816188 226.986564 
L 349.40755 232.229221 
L 362.322266 236.898728 
L 375.492097 241.080169 
L 388.851453 244.853225 
L 402.3395 248.292473 
L 415.901248 251.467292 
L 429.487939 254.441676 
L 456.571573 260.017637 
L 496.401431 268.14483 
L 509.654446 271.007255 
L 522.542403 273.929009 
L 535.246202 276.975727 
L 547.756062 280.168445 
L 560.064292 283.52487 
L 572.165002 287.05973 
L 584.053847 290.785091 
L 595.727813 294.710678 
L 607.185026 298.844171 
L 618.424589 303.191497 
L 629.446431 307.757097 
L 640.251183 312.544186 
L 650.840053 317.554985 
L 661.214715 322.790944 
L 671.377208 328.252931 
L 681.329834 333.941404 
L 691.075069 339.856557 
L 700.615477 345.998437 
L 709.953635 352.367041 
L 719.092067 358.962379 
L 728.03319 365.784519 
L 736.779274 372.833607 
L 745.332417 380.109871 
L 753.694533 387.613594 
L 761.86736 395.345091 
L 769.852478 403.304654 
L 777.65135 411.4925 
L 785.265371 419.908707 
L 792.695933 428.553144 
L 799.944498 437.425396 
L 807.012685 446.524691 
L 813.902356 455.849824 
L 820.615715 465.399074 
L 827.1554 475.170129 
L 833.524577 485.160004 
L 839.727042 495.364956 
L 845.7673 505.780397 
L 851.650661 516.400805 
L 857.383313 527.219626 
L 862.9724 538.229172 
L 868.426093 549.420515 
L 873.753649 560.783373 
L 878.965469 572.305996 
L 884.073151 583.975039 
L 889.089527 595.775444 
L 898.906068 619.700756 
L 913.345499 656.09659 
L 923.024709 680.445718 
L 927.940998 692.541996 
L 932.940347 704.53979 
L 938.047839 716.401199 
L 943.28924 728.085861 
L 948.690772 739.551134 
L 954.278869 750.752388 
L 960.079929 761.64347 
L 966.120129 772.177379 
L 972.425365 782.307191 
L 979.021448 791.987265 
L 985.934717 801.174695 
L 993.193258 809.830887 
L 1000.828866 817.922973 
L 1008.879782 825.424634 
L 1017.393897 832.315753 
L 1026.431788 838.580424 
L 1036.068547 844.203224 
L 1046.393382 849.164302 
L 1057.506475 853.434556 
L 1069.513511 856.972391 
L 1082.519231 859.723104 
L 1096.62167 861.620982 
L 1111.908345 862.593285 
L 1128.454769 862.564846 
L 1146.324898 861.462248 
L 1165.57273 859.216985 
L 1186.24428 855.76754 
L 1208.379394 851.060561 
L 1232.455298 844.939041 
L 1232.455298 844.939041 
" clip-path="url(#p17e6c9b942)" style="fill: none; stroke: #17becf; stroke-width: 1.5"/>
   </g>
   <g id="patch_3">
    <path d="M 180 951.530451 
L 180 139.269549 
" style="fill: none; stroke: #000000; stroke-width: 0.8; stroke-linejoin: miter; stroke-linecap: square"/>
   </g>
   <g id="patch_4">
    <path d="M 1296 951.530451 
L 1296 139.269549 
" style="fill: none; stroke: #000000; stroke-width: 0.8; stroke-linejoin: miter; stroke-linecap: square"/>
   </g>
   <g id="patch_5">
    <path d="M 180 951.530451 
L 1296 951.530451 
" style="fill: none; stroke: #000000; stroke-width: 0.8; stroke-linejoin: miter; stroke-linecap: square"/>
   </g>
   <g id="patch_6">
    <path d="M 180 139.269549 
L 1296 139.269549 
" style="fill: none; stroke: #000000; stroke-width: 0.8; stroke-linejoin: miter; stroke-linecap: square"/>
   </g>
  </g>
 </g>
 <defs>
  <clipPath id="p17e6c9b942">
   <rect x="180" y="139.269549" width="1116" height="812.260903"/>
  </clipPath>
 </defs>
</svg>
