<?xml version="1.0" encoding="utf-8" standalone="no"?>
<!DOCTYPE svg PUBLIC "-//W3C//DTD SVG 1.1//EN"
  "http://www.w3.org/Graphics/SVG/1.1/DTD/svg11.dtd">
<svg xmlns:xlink="http://www.w3.org/1999/xlink" width="1440pt" height="1080pt" viewBox="0 0 1440 1080" xmlns="http://www.w3.org/2000/svg" version="1.1">
 <metadata>
  <rdf:RDF xmlns:dc="http://purl.org/dc/elements/1.1/" xmlns:cc="http://creativecommons.org/ns#" xmlns:rdf="http://www.w3.org/1999/02/22-rdf-syntax-ns#">
   <cc:Work>
    <dc:type rdf:resource="http://purl.org/dc/dcmitype/StillImage"/>
    <dc:date>2023-12-11T12:06:59.799863</dc:date>
    <dc:format>image/svg+xml</dc:format>
    <dc:creator>
     <cc:Agent>
      <dc:title>Matplotlib v3.7.1, https://matplotlib.org/</dc:title>
     </cc:Agent>
    </dc:creator>
   </cc:Work>
  </rdf:RDF>
 </metadata>
 <defs>
  <style type="text/css">*{stroke-linejoin: round; stroke-linecap: butt}</style>
 </defs>
 <g id="figure_1">
  <g id="patch_1">
   <path d="M 0 1080 
L 1440 1080 
L 1440 0 
L 0 0 
z
" style="fill: #ffffff"/>
  </g>
  <g id="axes_1">
   <g id="patch_2">
    <path d="M 418.893165 961.2 
L 1057.106835 961.2 
L 1057.106835 129.6 
L 418.893165 129.6 
z
" style="fill: #ffffff"/>
   </g>
   <g id="matplotlib.axis_1">
    <g id="xtick_1">
     <g id="line2d_1">
      <defs>
       <path id="md64f522d32" d="M 0 0 
L 0 3.5 
" style="stroke: #000000; stroke-width: 0.8"/>
      </defs>
      <g>
       <use xlink:href="#md64f522d32" x="496.759392" y="961.2" style="stroke: #000000; stroke-width: 0.8"/>
      </g>
     </g>
     <g id="text_1">
      <!-- 300 -->
      <g transform="translate(487.215642 975.798437) scale(0.1 -0.1)">
       <defs>
        <path id="DejaVuSans-33" d="M 2597 2516 
Q 3050 2419 3304 2112 
Q 3559 1806 3559 1356 
Q 3559 666 3084 287 
Q 2609 -91 1734 -91 
Q 1441 -91 1130 -33 
Q 819 25 488 141 
L 488 750 
Q 750 597 1062 519 
Q 1375 441 1716 441 
Q 2309 441 2620 675 
Q 2931 909 2931 1356 
Q 2931 1769 2642 2001 
Q 2353 2234 1838 2234 
L 1294 2234 
L 1294 2753 
L 1863 2753 
Q 2328 2753 2575 2939 
Q 2822 3125 2822 3475 
Q 2822 3834 2567 4026 
Q 2313 4219 1838 4219 
Q 1578 4219 1281 4162 
Q 984 4106 628 3988 
L 628 4550 
Q 988 4650 1302 4700 
Q 1616 4750 1894 4750 
Q 2613 4750 3031 4423 
Q 3450 4097 3450 3541 
Q 3450 3153 3228 2886 
Q 3006 2619 2597 2516 
z
" transform="scale(0.015625)"/>
        <path id="DejaVuSans-30" d="M 2034 4250 
Q 1547 4250 1301 3770 
Q 1056 3291 1056 2328 
Q 1056 1369 1301 889 
Q 1547 409 2034 409 
Q 2525 409 2770 889 
Q 3016 1369 3016 2328 
Q 3016 3291 2770 3770 
Q 2525 4250 2034 4250 
z
M 2034 4750 
Q 2819 4750 3233 4129 
Q 3647 3509 3647 2328 
Q 3647 1150 3233 529 
Q 2819 -91 2034 -91 
Q 1250 -91 836 529 
Q 422 1150 422 2328 
Q 422 3509 836 4129 
Q 1250 4750 2034 4750 
z
" transform="scale(0.015625)"/>
       </defs>
       <use xlink:href="#DejaVuSans-33"/>
       <use xlink:href="#DejaVuSans-30" x="63.623047"/>
       <use xlink:href="#DejaVuSans-30" x="127.246094"/>
      </g>
     </g>
    </g>
    <g id="xtick_2">
     <g id="line2d_2">
      <g>
       <use xlink:href="#md64f522d32" x="576.753697" y="961.2" style="stroke: #000000; stroke-width: 0.8"/>
      </g>
     </g>
     <g id="text_2">
      <!-- 400 -->
      <g transform="translate(567.209947 975.798437) scale(0.1 -0.1)">
       <defs>
        <path id="DejaVuSans-34" d="M 2419 4116 
L 825 1625 
L 2419 1625 
L 2419 4116 
z
M 2253 4666 
L 3047 4666 
L 3047 1625 
L 3713 1625 
L 3713 1100 
L 3047 1100 
L 3047 0 
L 2419 0 
L 2419 1100 
L 313 1100 
L 313 1709 
L 2253 4666 
z
" transform="scale(0.015625)"/>
       </defs>
       <use xlink:href="#DejaVuSans-34"/>
       <use xlink:href="#DejaVuSans-30" x="63.623047"/>
       <use xlink:href="#DejaVuSans-30" x="127.246094"/>
      </g>
     </g>
    </g>
    <g id="xtick_3">
     <g id="line2d_3">
      <g>
       <use xlink:href="#md64f522d32" x="656.748001" y="961.2" style="stroke: #000000; stroke-width: 0.8"/>
      </g>
     </g>
     <g id="text_3">
      <!-- 500 -->
      <g transform="translate(647.204251 975.798437) scale(0.1 -0.1)">
       <defs>
        <path id="DejaVuSans-35" d="M 691 4666 
L 3169 4666 
L 3169 4134 
L 1269 4134 
L 1269 2991 
Q 1406 3038 1543 3061 
Q 1681 3084 1819 3084 
Q 2600 3084 3056 2656 
Q 3513 2228 3513 1497 
Q 3513 744 3044 326 
Q 2575 -91 1722 -91 
Q 1428 -91 1123 -41 
Q 819 9 494 109 
L 494 744 
Q 775 591 1075 516 
Q 1375 441 1709 441 
Q 2250 441 2565 725 
Q 2881 1009 2881 1497 
Q 2881 1984 2565 2268 
Q 2250 2553 1709 2553 
Q 1456 2553 1204 2497 
Q 953 2441 691 2322 
L 691 4666 
z
" transform="scale(0.015625)"/>
       </defs>
       <use xlink:href="#DejaVuSans-35"/>
       <use xlink:href="#DejaVuSans-30" x="63.623047"/>
       <use xlink:href="#DejaVuSans-30" x="127.246094"/>
      </g>
     </g>
    </g>
    <g id="xtick_4">
     <g id="line2d_4">
      <g>
       <use xlink:href="#md64f522d32" x="736.742306" y="961.2" style="stroke: #000000; stroke-width: 0.8"/>
      </g>
     </g>
     <g id="text_4">
      <!-- 600 -->
      <g transform="translate(727.198556 975.798437) scale(0.1 -0.1)">
       <defs>
        <path id="DejaVuSans-36" d="M 2113 2584 
Q 1688 2584 1439 2293 
Q 1191 2003 1191 1497 
Q 1191 994 1439 701 
Q 1688 409 2113 409 
Q 2538 409 2786 701 
Q 3034 994 3034 1497 
Q 3034 2003 2786 2293 
Q 2538 2584 2113 2584 
z
M 3366 4563 
L 3366 3988 
Q 3128 4100 2886 4159 
Q 2644 4219 2406 4219 
Q 1781 4219 1451 3797 
Q 1122 3375 1075 2522 
Q 1259 2794 1537 2939 
Q 1816 3084 2150 3084 
Q 2853 3084 3261 2657 
Q 3669 2231 3669 1497 
Q 3669 778 3244 343 
Q 2819 -91 2113 -91 
Q 1303 -91 875 529 
Q 447 1150 447 2328 
Q 447 3434 972 4092 
Q 1497 4750 2381 4750 
Q 2619 4750 2861 4703 
Q 3103 4656 3366 4563 
z
" transform="scale(0.015625)"/>
       </defs>
       <use xlink:href="#DejaVuSans-36"/>
       <use xlink:href="#DejaVuSans-30" x="63.623047"/>
       <use xlink:href="#DejaVuSans-30" x="127.246094"/>
      </g>
     </g>
    </g>
    <g id="xtick_5">
     <g id="line2d_5">
      <g>
       <use xlink:href="#md64f522d32" x="816.736611" y="961.2" style="stroke: #000000; stroke-width: 0.8"/>
      </g>
     </g>
     <g id="text_5">
      <!-- 700 -->
      <g transform="translate(807.192861 975.798437) scale(0.1 -0.1)">
       <defs>
        <path id="DejaVuSans-37" d="M 525 4666 
L 3525 4666 
L 3525 4397 
L 1831 0 
L 1172 0 
L 2766 4134 
L 525 4134 
L 525 4666 
z
" transform="scale(0.015625)"/>
       </defs>
       <use xlink:href="#DejaVuSans-37"/>
       <use xlink:href="#DejaVuSans-30" x="63.623047"/>
       <use xlink:href="#DejaVuSans-30" x="127.246094"/>
      </g>
     </g>
    </g>
    <g id="xtick_6">
     <g id="line2d_6">
      <g>
       <use xlink:href="#md64f522d32" x="896.730916" y="961.2" style="stroke: #000000; stroke-width: 0.8"/>
      </g>
     </g>
     <g id="text_6">
      <!-- 800 -->
      <g transform="translate(887.187166 975.798437) scale(0.1 -0.1)">
       <defs>
        <path id="DejaVuSans-38" d="M 2034 2216 
Q 1584 2216 1326 1975 
Q 1069 1734 1069 1313 
Q 1069 891 1326 650 
Q 1584 409 2034 409 
Q 2484 409 2743 651 
Q 3003 894 3003 1313 
Q 3003 1734 2745 1975 
Q 2488 2216 2034 2216 
z
M 1403 2484 
Q 997 2584 770 2862 
Q 544 3141 544 3541 
Q 544 4100 942 4425 
Q 1341 4750 2034 4750 
Q 2731 4750 3128 4425 
Q 3525 4100 3525 3541 
Q 3525 3141 3298 2862 
Q 3072 2584 2669 2484 
Q 3125 2378 3379 2068 
Q 3634 1759 3634 1313 
Q 3634 634 3220 271 
Q 2806 -91 2034 -91 
Q 1263 -91 848 271 
Q 434 634 434 1313 
Q 434 1759 690 2068 
Q 947 2378 1403 2484 
z
M 1172 3481 
Q 1172 3119 1398 2916 
Q 1625 2713 2034 2713 
Q 2441 2713 2670 2916 
Q 2900 3119 2900 3481 
Q 2900 3844 2670 4047 
Q 2441 4250 2034 4250 
Q 1625 4250 1398 4047 
Q 1172 3844 1172 3481 
z
" transform="scale(0.015625)"/>
       </defs>
       <use xlink:href="#DejaVuSans-38"/>
       <use xlink:href="#DejaVuSans-30" x="63.623047"/>
       <use xlink:href="#DejaVuSans-30" x="127.246094"/>
      </g>
     </g>
    </g>
    <g id="xtick_7">
     <g id="line2d_7">
      <g>
       <use xlink:href="#md64f522d32" x="976.72522" y="961.2" style="stroke: #000000; stroke-width: 0.8"/>
      </g>
     </g>
     <g id="text_7">
      <!-- 900 -->
      <g transform="translate(967.18147 975.798437) scale(0.1 -0.1)">
       <defs>
        <path id="DejaVuSans-39" d="M 703 97 
L 703 672 
Q 941 559 1184 500 
Q 1428 441 1663 441 
Q 2288 441 2617 861 
Q 2947 1281 2994 2138 
Q 2813 1869 2534 1725 
Q 2256 1581 1919 1581 
Q 1219 1581 811 2004 
Q 403 2428 403 3163 
Q 403 3881 828 4315 
Q 1253 4750 1959 4750 
Q 2769 4750 3195 4129 
Q 3622 3509 3622 2328 
Q 3622 1225 3098 567 
Q 2575 -91 1691 -91 
Q 1453 -91 1209 -44 
Q 966 3 703 97 
z
M 1959 2075 
Q 2384 2075 2632 2365 
Q 2881 2656 2881 3163 
Q 2881 3666 2632 3958 
Q 2384 4250 1959 4250 
Q 1534 4250 1286 3958 
Q 1038 3666 1038 3163 
Q 1038 2656 1286 2365 
Q 1534 2075 1959 2075 
z
" transform="scale(0.015625)"/>
       </defs>
       <use xlink:href="#DejaVuSans-39"/>
       <use xlink:href="#DejaVuSans-30" x="63.623047"/>
       <use xlink:href="#DejaVuSans-30" x="127.246094"/>
      </g>
     </g>
    </g>
    <g id="xtick_8">
     <g id="line2d_8">
      <g>
       <use xlink:href="#md64f522d32" x="1056.719525" y="961.2" style="stroke: #000000; stroke-width: 0.8"/>
      </g>
     </g>
     <g id="text_8">
      <!-- 1000 -->
      <g transform="translate(1043.994525 975.798437) scale(0.1 -0.1)">
       <defs>
        <path id="DejaVuSans-31" d="M 794 531 
L 1825 531 
L 1825 4091 
L 703 3866 
L 703 4441 
L 1819 4666 
L 2450 4666 
L 2450 531 
L 3481 531 
L 3481 0 
L 794 0 
L 794 531 
z
" transform="scale(0.015625)"/>
       </defs>
       <use xlink:href="#DejaVuSans-31"/>
       <use xlink:href="#DejaVuSans-30" x="63.623047"/>
       <use xlink:href="#DejaVuSans-30" x="127.246094"/>
       <use xlink:href="#DejaVuSans-30" x="190.869141"/>
      </g>
     </g>
    </g>
   </g>
   <g id="matplotlib.axis_2">
    <g id="ytick_1">
     <g id="line2d_9">
      <defs>
       <path id="m003b2b1fea" d="M 0 0 
L -3.5 0 
" style="stroke: #000000; stroke-width: 0.8"/>
      </defs>
      <g>
       <use xlink:href="#m003b2b1fea" x="418.893165" y="818.731199" style="stroke: #000000; stroke-width: 0.8"/>
      </g>
     </g>
     <g id="text_9">
      <!-- 400 -->
      <g transform="translate(392.805665 822.530418) scale(0.1 -0.1)">
       <use xlink:href="#DejaVuSans-34"/>
       <use xlink:href="#DejaVuSans-30" x="63.623047"/>
       <use xlink:href="#DejaVuSans-30" x="127.246094"/>
      </g>
     </g>
    </g>
    <g id="ytick_2">
     <g id="line2d_10">
      <g>
       <use xlink:href="#m003b2b1fea" x="418.893165" y="658.742589" style="stroke: #000000; stroke-width: 0.8"/>
      </g>
     </g>
     <g id="text_10">
      <!-- 600 -->
      <g transform="translate(392.805665 662.541808) scale(0.1 -0.1)">
       <use xlink:href="#DejaVuSans-36"/>
       <use xlink:href="#DejaVuSans-30" x="63.623047"/>
       <use xlink:href="#DejaVuSans-30" x="127.246094"/>
      </g>
     </g>
    </g>
    <g id="ytick_3">
     <g id="line2d_11">
      <g>
       <use xlink:href="#m003b2b1fea" x="418.893165" y="498.75398" style="stroke: #000000; stroke-width: 0.8"/>
      </g>
     </g>
     <g id="text_11">
      <!-- 800 -->
      <g transform="translate(392.805665 502.553199) scale(0.1 -0.1)">
       <use xlink:href="#DejaVuSans-38"/>
       <use xlink:href="#DejaVuSans-30" x="63.623047"/>
       <use xlink:href="#DejaVuSans-30" x="127.246094"/>
      </g>
     </g>
    </g>
    <g id="ytick_4">
     <g id="line2d_12">
      <g>
       <use xlink:href="#m003b2b1fea" x="418.893165" y="338.76537" style="stroke: #000000; stroke-width: 0.8"/>
      </g>
     </g>
     <g id="text_12">
      <!-- 1000 -->
      <g transform="translate(386.443165 342.564589) scale(0.1 -0.1)">
       <use xlink:href="#DejaVuSans-31"/>
       <use xlink:href="#DejaVuSans-30" x="63.623047"/>
       <use xlink:href="#DejaVuSans-30" x="127.246094"/>
       <use xlink:href="#DejaVuSans-30" x="190.869141"/>
      </g>
     </g>
    </g>
    <g id="ytick_5">
     <g id="line2d_13">
      <g>
       <use xlink:href="#m003b2b1fea" x="418.893165" y="178.776761" style="stroke: #000000; stroke-width: 0.8"/>
      </g>
     </g>
     <g id="text_13">
      <!-- 1200 -->
      <g transform="translate(386.443165 182.57598) scale(0.1 -0.1)">
       <defs>
        <path id="DejaVuSans-32" d="M 1228 531 
L 3431 531 
L 3431 0 
L 469 0 
L 469 531 
Q 828 903 1448 1529 
Q 2069 2156 2228 2338 
Q 2531 2678 2651 2914 
Q 2772 3150 2772 3378 
Q 2772 3750 2511 3984 
Q 2250 4219 1831 4219 
Q 1534 4219 1204 4116 
Q 875 4013 500 3803 
L 500 4441 
Q 881 4594 1212 4672 
Q 1544 4750 1819 4750 
Q 2544 4750 2975 4387 
Q 3406 4025 3406 3419 
Q 3406 3131 3298 2873 
Q 3191 2616 2906 2266 
Q 2828 2175 2409 1742 
Q 1991 1309 1228 531 
z
" transform="scale(0.015625)"/>
       </defs>
       <use xlink:href="#DejaVuSans-31"/>
       <use xlink:href="#DejaVuSans-32" x="63.623047"/>
       <use xlink:href="#DejaVuSans-30" x="127.246094"/>
       <use xlink:href="#DejaVuSans-30" x="190.869141"/>
      </g>
     </g>
    </g>
   </g>
   <g id="LineCollection_1">
    <path d="M 1028.097123 898.049299 
L 1010.840415 895.632156 
L 996.880689 891.985813 
L 985.324098 887.237346 
L 975.857551 881.563958 
L 968.14302 875.068883 
L 961.869653 867.770855 
L 956.803402 859.639211 
L 952.795838 850.650246 
L 949.754992 840.822718 
L 947.609632 830.219735 
L 946.287593 818.9327 
L 945.708838 807.064283 
L 945.786378 794.717122 
L 946.429598 781.988068 
L 947.547467 768.965962 
L 949.050908 755.731217 
L 950.854352 742.356184 
L 952.876652 728.905772 
L 957.278028 702.005177 
L 961.713196 675.38346 
L 963.791836 662.288737 
L 965.707254 649.384375 
L 967.4125 636.697693 
L 968.86479 624.252215 
L 970.025214 612.067966 
L 970.858426 600.161813 
L 971.332357 588.547835 
L 971.417945 577.237772 
L 971.088932 566.241541 
L 970.321755 555.567821 
L 969.095587 545.224697 
L 967.392573 535.220285 
L 965.198273 525.563257 
L 962.50231 516.263145 
L 959.299107 507.330274 
L 955.588578 498.775256 
L 951.376542 490.608052 
L 946.674683 482.836728 
L 941.49996 475.466178 
L 935.873537 468.497081 
L 929.819421 461.925331 
L 923.363079 455.742008 
L 916.530266 449.933831 
L 909.346204 444.483919 
L 901.835137 439.372681 
L 894.020203 434.578667 
L 885.923523 430.07929 
L 877.566405 425.851376 
L 868.96959 421.871559 
L 860.153474 418.116538 
L 851.138294 414.563228 
L 841.944258 411.18885 
L 832.591623 407.970973 
L 823.10072 404.887534 
L 813.491958 401.916848 
L 794.002601 396.228926 
L 764.387757 388.021679 
L 744.601803 382.531891 
L 724.977524 376.859429 
L 715.269756 373.910946 
L 705.653202 370.865523 
L 696.142816 367.707394 
L 686.75239 364.421462 
L 677.494424 360.993311 
L 668.380001 357.4092 
L 659.418666 353.656045 
L 650.618314 349.721396 
L 641.985082 345.59339 
L 633.523273 341.260704 
L 625.235289 336.712489 
L 617.121605 331.938321 
L 609.180767 326.928146 
L 601.40942 321.672254 
L 593.802365 316.161272 
L 586.352636 310.386203 
L 579.051572 304.338491 
L 571.888892 298.010139 
L 564.852741 291.393842 
L 557.929711 284.483155 
L 551.104815 277.272666 
L 544.361429 269.758158 
L 537.681194 261.936766 
L 531.04389 253.807102 
L 524.427292 245.369352 
L 517.807011 236.625355 
L 511.156344 227.578641 
L 497.644565 208.599835 
L 468.821374 167.4 
L 468.821374 167.4 
" clip-path="url(#p8c71aa25e0)" style="fill: none; stroke: #1f77b4; stroke-width: 1.5"/>
    <path d="M 1026.321689 910.72465 
L 1008.326877 908.204121 
L 992.812841 904.151785 
L 979.56983 898.710387 
L 968.398573 892.015352 
L 959.109962 884.195015 
L 951.524727 875.370845 
L 945.473127 865.657656 
L 940.794648 855.163827 
L 937.337695 843.991509 
L 934.959306 832.23683 
L 933.524859 819.990099 
L 932.90779 807.336 
L 932.989318 794.353789 
L 933.658171 781.117483 
L 934.81032 767.696043 
L 936.34872 754.15356 
L 938.183054 740.549434 
L 940.229482 726.938542 
L 942.410397 713.371418 
L 944.654184 699.894415 
L 946.894986 686.549868 
L 949.072476 673.376259 
L 951.131627 660.408371 
L 953.022497 647.677441 
L 954.700012 635.21131 
L 956.123753 623.034574 
L 957.257754 611.168721 
L 958.070296 599.632274 
L 958.533714 588.440929 
L 958.624203 577.607689 
L 958.321628 567.142992 
L 957.609342 557.054839 
L 956.474005 547.348921 
L 954.905409 538.02874 
L 952.896308 529.095724 
L 950.442245 520.549347 
L 947.541395 512.387239 
L 944.1944 504.605297 
L 940.404214 497.197793 
L 936.175954 490.157477 
L 931.516745 483.475679 
L 926.435583 477.142409 
L 920.943183 471.146452 
L 915.051851 465.475463 
L 908.775341 460.116061 
L 902.128729 455.053911 
L 895.128282 450.273817 
L 887.791332 445.759805 
L 880.136154 441.495201 
L 872.181851 437.462717 
L 863.94823 433.644521 
L 855.455697 430.022317 
L 846.725139 426.577417 
L 837.777822 423.290812 
L 828.635281 420.143238 
L 819.319221 417.115246 
L 809.851415 414.187265 
L 800.253608 411.339666 
L 790.547418 408.552821 
L 780.754248 405.807164 
L 770.895191 403.083245 
L 760.990944 400.361791 
L 751.061721 397.623753 
L 741.127168 394.850363 
L 731.206279 392.023183 
L 721.31732 389.124152 
L 711.477744 386.135636 
L 701.704121 383.040472 
L 692.012055 379.822012 
L 682.416117 376.464166 
L 672.929767 372.951447 
L 663.565289 369.269005 
L 654.333717 365.40267 
L 645.244767 361.338988 
L 636.306774 357.065261 
L 627.526624 352.569575 
L 618.909689 347.84084 
L 610.459763 342.868824 
L 602.179002 337.644179 
L 594.067861 332.158479 
L 586.125032 326.404243 
L 578.347389 320.374973 
L 570.729919 314.065172 
L 563.265675 307.470383 
L 555.945709 300.587206 
L 548.759019 293.413329 
L 541.692489 285.947554 
L 534.730836 278.18982 
L 527.856548 270.141226 
L 521.049833 261.80406 
L 514.28856 253.181815 
L 507.5482 244.279219 
L 500.801778 235.102252 
L 494.019808 225.658171 
L 487.170241 215.955528 
L 480.218409 206.004198 
L 473.126965 195.815395 
L 465.855828 185.401691 
L 458.362126 174.777046 
" clip-path="url(#p8c71aa25e0)" style="fill: none; stroke: #8c564b; stroke-width: 1.5"/>
    <path d="M 1024.546256 923.4 
L 1005.092224 920.587726 
L 989.578188 916.535391 
L 987.948464 915.990472 
L 973.831749 910.151152 
L 972.990331 909.68886 
L 960.963415 902.433369 
L 960.155242 901.806376 
L 950.106145 893.291605 
L 949.403952 892.538278 
L 941.210001 882.948649 
L 940.66151 882.138945 
L 934.60991 872.425756 
L 933.783198 870.869395 
L 928.567505 858.947165 
L 924.792822 846.529782 
L 922.247121 833.725795 
L 920.740961 820.613497 
L 920.108954 807.255623 
L 920.206539 793.707854 
L 920.905982 780.022785 
L 922.093023 766.251382 
L 923.664418 752.443252 
L 925.526225 738.646451 
L 927.592624 724.907168 
L 932.031813 697.774879 
L 936.438115 671.329006 
L 938.480844 658.464538 
L 940.349421 645.883706 
L 942.000433 633.614531 
L 943.395572 621.682412 
L 944.501518 610.110113 
L 945.289827 598.917732 
L 945.736838 588.12262 
L 945.823569 577.739241 
L 945.535578 567.778951 
L 944.862754 558.249704 
L 943.798993 549.155685 
L 942.341713 540.496911 
L 940.49117 532.26889 
L 938.249571 524.462423 
L 935.620036 517.063714 
L 932.605548 510.054869 
L 929.208059 503.414848 
L 925.427981 497.120784 
L 921.264193 491.149471 
L 916.71459 485.478749 
L 911.777036 480.088506 
L 906.450481 474.961172 
L 900.735996 470.081673 
L 894.637508 465.436981 
L 888.16218 461.015453 
L 881.320438 456.806115 
L 874.125741 452.798039 
L 866.59418 448.979866 
L 858.744018 445.339492 
L 850.595221 441.863898 
L 842.169028 438.539094 
L 833.487577 435.350149 
L 824.573587 432.28126 
L 815.450101 429.31586 
L 806.140271 426.436735 
L 787.053708 420.865914 
L 757.599747 412.703446 
L 737.619431 407.159403 
L 717.597708 401.370832 
L 707.613597 398.337482 
L 697.670489 395.187344 
L 687.784693 391.902826 
L 677.971637 388.466802 
L 668.24585 384.862685 
L 658.620946 381.074518 
L 649.109604 377.087075 
L 639.723544 372.885969 
L 630.473483 368.457775 
L 621.369084 363.790152 
L 612.418866 358.871973 
L 603.630101 353.693444 
L 595.008671 348.246209 
L 586.558902 342.52343 
L 578.283376 336.51983 
L 570.182736 330.231702 
L 562.255487 323.656871 
L 554.497822 316.794622 
L 546.903466 309.6456 
L 539.463564 302.211693 
L 532.166612 294.495907 
L 524.998416 286.50226 
L 517.942095 278.235686 
L 510.978106 269.70197 
L 504.084283 260.907707 
L 497.235879 251.860294 
L 490.405611 242.567933 
L 476.67784 223.285344 
L 447.902877 182.154091 
L 447.902877 182.154091 
" clip-path="url(#p8c71aa25e0)" style="fill: none; stroke: #17becf; stroke-width: 1.5"/>
   </g>
   <g id="patch_3">
    <path d="M 418.893165 961.2 
L 418.893165 129.6 
" style="fill: none; stroke: #000000; stroke-width: 0.8; stroke-linejoin: miter; stroke-linecap: square"/>
   </g>
   <g id="patch_4">
    <path d="M 1057.106835 961.2 
L 1057.106835 129.6 
" style="fill: none; stroke: #000000; stroke-width: 0.8; stroke-linejoin: miter; stroke-linecap: square"/>
   </g>
   <g id="patch_5">
    <path d="M 418.893165 961.2 
L 1057.106835 961.2 
" style="fill: none; stroke: #000000; stroke-width: 0.8; stroke-linejoin: miter; stroke-linecap: square"/>
   </g>
   <g id="patch_6">
    <path d="M 418.893165 129.6 
L 1057.106835 129.6 
" style="fill: none; stroke: #000000; stroke-width: 0.8; stroke-linejoin: miter; stroke-linecap: square"/>
   </g>
  </g>
 </g>
 <defs>
  <clipPath id="p8c71aa25e0">
   <rect x="418.893165" y="129.6" width="638.21367" height="831.6"/>
  </clipPath>
 </defs>
</svg>
