<?xml version="1.0" encoding="utf-8" standalone="no"?>
<!DOCTYPE svg PUBLIC "-//W3C//DTD SVG 1.1//EN"
  "http://www.w3.org/Graphics/SVG/1.1/DTD/svg11.dtd">
<svg xmlns:xlink="http://www.w3.org/1999/xlink" width="1440pt" height="1080pt" viewBox="0 0 1440 1080" xmlns="http://www.w3.org/2000/svg" version="1.1">
 <metadata>
  <rdf:RDF xmlns:dc="http://purl.org/dc/elements/1.1/" xmlns:cc="http://creativecommons.org/ns#" xmlns:rdf="http://www.w3.org/1999/02/22-rdf-syntax-ns#">
   <cc:Work>
    <dc:type rdf:resource="http://purl.org/dc/dcmitype/StillImage"/>
    <dc:date>2023-12-11T12:07:00.168540</dc:date>
    <dc:format>image/svg+xml</dc:format>
    <dc:creator>
     <cc:Agent>
      <dc:title>Matplotlib v3.7.1, https://matplotlib.org/</dc:title>
     </cc:Agent>
    </dc:creator>
   </cc:Work>
  </rdf:RDF>
 </metadata>
 <defs>
  <style type="text/css">*{stroke-linejoin: round; stroke-linecap: butt}</style>
 </defs>
 <g id="figure_1">
  <g id="patch_1">
   <path d="M 0 1080 
L 1440 1080 
L 1440 0 
L 0 0 
z
" style="fill: #ffffff"/>
  </g>
  <g id="axes_1">
   <g id="patch_2">
    <path d="M 541.818561 961.2 
L 934.181439 961.2 
L 934.181439 129.6 
L 541.818561 129.6 
z
" style="fill: #ffffff"/>
   </g>
   <g id="matplotlib.axis_1">
    <g id="xtick_1">
     <g id="line2d_1">
      <defs>
       <path id="ma4455017b4" d="M 0 0 
L 0 3.5 
" style="stroke: #000000; stroke-width: 0.8"/>
      </defs>
      <g>
       <use xlink:href="#ma4455017b4" x="547.7618" y="961.2" style="stroke: #000000; stroke-width: 0.8"/>
      </g>
     </g>
     <g id="text_1">
      <!-- 1200 -->
      <g transform="translate(535.0368 975.798437) scale(0.1 -0.1)">
       <defs>
        <path id="DejaVuSans-31" d="M 794 531 
L 1825 531 
L 1825 4091 
L 703 3866 
L 703 4441 
L 1819 4666 
L 2450 4666 
L 2450 531 
L 3481 531 
L 3481 0 
L 794 0 
L 794 531 
z
" transform="scale(0.015625)"/>
        <path id="DejaVuSans-32" d="M 1228 531 
L 3431 531 
L 3431 0 
L 469 0 
L 469 531 
Q 828 903 1448 1529 
Q 2069 2156 2228 2338 
Q 2531 2678 2651 2914 
Q 2772 3150 2772 3378 
Q 2772 3750 2511 3984 
Q 2250 4219 1831 4219 
Q 1534 4219 1204 4116 
Q 875 4013 500 3803 
L 500 4441 
Q 881 4594 1212 4672 
Q 1544 4750 1819 4750 
Q 2544 4750 2975 4387 
Q 3406 4025 3406 3419 
Q 3406 3131 3298 2873 
Q 3191 2616 2906 2266 
Q 2828 2175 2409 1742 
Q 1991 1309 1228 531 
z
" transform="scale(0.015625)"/>
        <path id="DejaVuSans-30" d="M 2034 4250 
Q 1547 4250 1301 3770 
Q 1056 3291 1056 2328 
Q 1056 1369 1301 889 
Q 1547 409 2034 409 
Q 2525 409 2770 889 
Q 3016 1369 3016 2328 
Q 3016 3291 2770 3770 
Q 2525 4250 2034 4250 
z
M 2034 4750 
Q 2819 4750 3233 4129 
Q 3647 3509 3647 2328 
Q 3647 1150 3233 529 
Q 2819 -91 2034 -91 
Q 1250 -91 836 529 
Q 422 1150 422 2328 
Q 422 3509 836 4129 
Q 1250 4750 2034 4750 
z
" transform="scale(0.015625)"/>
       </defs>
       <use xlink:href="#DejaVuSans-31"/>
       <use xlink:href="#DejaVuSans-32" x="63.623047"/>
       <use xlink:href="#DejaVuSans-30" x="127.246094"/>
       <use xlink:href="#DejaVuSans-30" x="190.869141"/>
      </g>
     </g>
    </g>
    <g id="xtick_2">
     <g id="line2d_2">
      <g>
       <use xlink:href="#ma4455017b4" x="605.946677" y="961.2" style="stroke: #000000; stroke-width: 0.8"/>
      </g>
     </g>
     <g id="text_2">
      <!-- 1250 -->
      <g transform="translate(593.221677 975.798437) scale(0.1 -0.1)">
       <defs>
        <path id="DejaVuSans-35" d="M 691 4666 
L 3169 4666 
L 3169 4134 
L 1269 4134 
L 1269 2991 
Q 1406 3038 1543 3061 
Q 1681 3084 1819 3084 
Q 2600 3084 3056 2656 
Q 3513 2228 3513 1497 
Q 3513 744 3044 326 
Q 2575 -91 1722 -91 
Q 1428 -91 1123 -41 
Q 819 9 494 109 
L 494 744 
Q 775 591 1075 516 
Q 1375 441 1709 441 
Q 2250 441 2565 725 
Q 2881 1009 2881 1497 
Q 2881 1984 2565 2268 
Q 2250 2553 1709 2553 
Q 1456 2553 1204 2497 
Q 953 2441 691 2322 
L 691 4666 
z
" transform="scale(0.015625)"/>
       </defs>
       <use xlink:href="#DejaVuSans-31"/>
       <use xlink:href="#DejaVuSans-32" x="63.623047"/>
       <use xlink:href="#DejaVuSans-35" x="127.246094"/>
       <use xlink:href="#DejaVuSans-30" x="190.869141"/>
      </g>
     </g>
    </g>
    <g id="xtick_3">
     <g id="line2d_3">
      <g>
       <use xlink:href="#ma4455017b4" x="664.131555" y="961.2" style="stroke: #000000; stroke-width: 0.8"/>
      </g>
     </g>
     <g id="text_3">
      <!-- 1300 -->
      <g transform="translate(651.406555 975.798437) scale(0.1 -0.1)">
       <defs>
        <path id="DejaVuSans-33" d="M 2597 2516 
Q 3050 2419 3304 2112 
Q 3559 1806 3559 1356 
Q 3559 666 3084 287 
Q 2609 -91 1734 -91 
Q 1441 -91 1130 -33 
Q 819 25 488 141 
L 488 750 
Q 750 597 1062 519 
Q 1375 441 1716 441 
Q 2309 441 2620 675 
Q 2931 909 2931 1356 
Q 2931 1769 2642 2001 
Q 2353 2234 1838 2234 
L 1294 2234 
L 1294 2753 
L 1863 2753 
Q 2328 2753 2575 2939 
Q 2822 3125 2822 3475 
Q 2822 3834 2567 4026 
Q 2313 4219 1838 4219 
Q 1578 4219 1281 4162 
Q 984 4106 628 3988 
L 628 4550 
Q 988 4650 1302 4700 
Q 1616 4750 1894 4750 
Q 2613 4750 3031 4423 
Q 3450 4097 3450 3541 
Q 3450 3153 3228 2886 
Q 3006 2619 2597 2516 
z
" transform="scale(0.015625)"/>
       </defs>
       <use xlink:href="#DejaVuSans-31"/>
       <use xlink:href="#DejaVuSans-33" x="63.623047"/>
       <use xlink:href="#DejaVuSans-30" x="127.246094"/>
       <use xlink:href="#DejaVuSans-30" x="190.869141"/>
      </g>
     </g>
    </g>
    <g id="xtick_4">
     <g id="line2d_4">
      <g>
       <use xlink:href="#ma4455017b4" x="722.316432" y="961.2" style="stroke: #000000; stroke-width: 0.8"/>
      </g>
     </g>
     <g id="text_4">
      <!-- 1350 -->
      <g transform="translate(709.591432 975.798437) scale(0.1 -0.1)">
       <use xlink:href="#DejaVuSans-31"/>
       <use xlink:href="#DejaVuSans-33" x="63.623047"/>
       <use xlink:href="#DejaVuSans-35" x="127.246094"/>
       <use xlink:href="#DejaVuSans-30" x="190.869141"/>
      </g>
     </g>
    </g>
    <g id="xtick_5">
     <g id="line2d_5">
      <g>
       <use xlink:href="#ma4455017b4" x="780.50131" y="961.2" style="stroke: #000000; stroke-width: 0.8"/>
      </g>
     </g>
     <g id="text_5">
      <!-- 1400 -->
      <g transform="translate(767.77631 975.798437) scale(0.1 -0.1)">
       <defs>
        <path id="DejaVuSans-34" d="M 2419 4116 
L 825 1625 
L 2419 1625 
L 2419 4116 
z
M 2253 4666 
L 3047 4666 
L 3047 1625 
L 3713 1625 
L 3713 1100 
L 3047 1100 
L 3047 0 
L 2419 0 
L 2419 1100 
L 313 1100 
L 313 1709 
L 2253 4666 
z
" transform="scale(0.015625)"/>
       </defs>
       <use xlink:href="#DejaVuSans-31"/>
       <use xlink:href="#DejaVuSans-34" x="63.623047"/>
       <use xlink:href="#DejaVuSans-30" x="127.246094"/>
       <use xlink:href="#DejaVuSans-30" x="190.869141"/>
      </g>
     </g>
    </g>
    <g id="xtick_6">
     <g id="line2d_6">
      <g>
       <use xlink:href="#ma4455017b4" x="838.686188" y="961.2" style="stroke: #000000; stroke-width: 0.8"/>
      </g>
     </g>
     <g id="text_6">
      <!-- 1450 -->
      <g transform="translate(825.961188 975.798437) scale(0.1 -0.1)">
       <use xlink:href="#DejaVuSans-31"/>
       <use xlink:href="#DejaVuSans-34" x="63.623047"/>
       <use xlink:href="#DejaVuSans-35" x="127.246094"/>
       <use xlink:href="#DejaVuSans-30" x="190.869141"/>
      </g>
     </g>
    </g>
    <g id="xtick_7">
     <g id="line2d_7">
      <g>
       <use xlink:href="#ma4455017b4" x="896.871065" y="961.2" style="stroke: #000000; stroke-width: 0.8"/>
      </g>
     </g>
     <g id="text_7">
      <!-- 1500 -->
      <g transform="translate(884.146065 975.798437) scale(0.1 -0.1)">
       <use xlink:href="#DejaVuSans-31"/>
       <use xlink:href="#DejaVuSans-35" x="63.623047"/>
       <use xlink:href="#DejaVuSans-30" x="127.246094"/>
       <use xlink:href="#DejaVuSans-30" x="190.869141"/>
      </g>
     </g>
    </g>
   </g>
   <g id="matplotlib.axis_2">
    <g id="ytick_1">
     <g id="line2d_8">
      <defs>
       <path id="m7815c757f7" d="M 0 0 
L -3.5 0 
" style="stroke: #000000; stroke-width: 0.8"/>
      </defs>
      <g>
       <use xlink:href="#m7815c757f7" x="541.818561" y="907.317686" style="stroke: #000000; stroke-width: 0.8"/>
      </g>
     </g>
     <g id="text_8">
      <!-- 800 -->
      <g transform="translate(515.731061 911.116905) scale(0.1 -0.1)">
       <defs>
        <path id="DejaVuSans-38" d="M 2034 2216 
Q 1584 2216 1326 1975 
Q 1069 1734 1069 1313 
Q 1069 891 1326 650 
Q 1584 409 2034 409 
Q 2484 409 2743 651 
Q 3003 894 3003 1313 
Q 3003 1734 2745 1975 
Q 2488 2216 2034 2216 
z
M 1403 2484 
Q 997 2584 770 2862 
Q 544 3141 544 3541 
Q 544 4100 942 4425 
Q 1341 4750 2034 4750 
Q 2731 4750 3128 4425 
Q 3525 4100 3525 3541 
Q 3525 3141 3298 2862 
Q 3072 2584 2669 2484 
Q 3125 2378 3379 2068 
Q 3634 1759 3634 1313 
Q 3634 634 3220 271 
Q 2806 -91 2034 -91 
Q 1263 -91 848 271 
Q 434 634 434 1313 
Q 434 1759 690 2068 
Q 947 2378 1403 2484 
z
M 1172 3481 
Q 1172 3119 1398 2916 
Q 1625 2713 2034 2713 
Q 2441 2713 2670 2916 
Q 2900 3119 2900 3481 
Q 2900 3844 2670 4047 
Q 2441 4250 2034 4250 
Q 1625 4250 1398 4047 
Q 1172 3844 1172 3481 
z
" transform="scale(0.015625)"/>
       </defs>
       <use xlink:href="#DejaVuSans-38"/>
       <use xlink:href="#DejaVuSans-30" x="63.623047"/>
       <use xlink:href="#DejaVuSans-30" x="127.246094"/>
      </g>
     </g>
    </g>
    <g id="ytick_2">
     <g id="line2d_9">
      <g>
       <use xlink:href="#m7815c757f7" x="541.818561" y="790.947931" style="stroke: #000000; stroke-width: 0.8"/>
      </g>
     </g>
     <g id="text_9">
      <!-- 900 -->
      <g transform="translate(515.731061 794.74715) scale(0.1 -0.1)">
       <defs>
        <path id="DejaVuSans-39" d="M 703 97 
L 703 672 
Q 941 559 1184 500 
Q 1428 441 1663 441 
Q 2288 441 2617 861 
Q 2947 1281 2994 2138 
Q 2813 1869 2534 1725 
Q 2256 1581 1919 1581 
Q 1219 1581 811 2004 
Q 403 2428 403 3163 
Q 403 3881 828 4315 
Q 1253 4750 1959 4750 
Q 2769 4750 3195 4129 
Q 3622 3509 3622 2328 
Q 3622 1225 3098 567 
Q 2575 -91 1691 -91 
Q 1453 -91 1209 -44 
Q 966 3 703 97 
z
M 1959 2075 
Q 2384 2075 2632 2365 
Q 2881 2656 2881 3163 
Q 2881 3666 2632 3958 
Q 2384 4250 1959 4250 
Q 1534 4250 1286 3958 
Q 1038 3666 1038 3163 
Q 1038 2656 1286 2365 
Q 1534 2075 1959 2075 
z
" transform="scale(0.015625)"/>
       </defs>
       <use xlink:href="#DejaVuSans-39"/>
       <use xlink:href="#DejaVuSans-30" x="63.623047"/>
       <use xlink:href="#DejaVuSans-30" x="127.246094"/>
      </g>
     </g>
    </g>
    <g id="ytick_3">
     <g id="line2d_10">
      <g>
       <use xlink:href="#m7815c757f7" x="541.818561" y="674.578176" style="stroke: #000000; stroke-width: 0.8"/>
      </g>
     </g>
     <g id="text_10">
      <!-- 1000 -->
      <g transform="translate(509.368561 678.377395) scale(0.1 -0.1)">
       <use xlink:href="#DejaVuSans-31"/>
       <use xlink:href="#DejaVuSans-30" x="63.623047"/>
       <use xlink:href="#DejaVuSans-30" x="127.246094"/>
       <use xlink:href="#DejaVuSans-30" x="190.869141"/>
      </g>
     </g>
    </g>
    <g id="ytick_4">
     <g id="line2d_11">
      <g>
       <use xlink:href="#m7815c757f7" x="541.818561" y="558.208421" style="stroke: #000000; stroke-width: 0.8"/>
      </g>
     </g>
     <g id="text_11">
      <!-- 1100 -->
      <g transform="translate(509.368561 562.00764) scale(0.1 -0.1)">
       <use xlink:href="#DejaVuSans-31"/>
       <use xlink:href="#DejaVuSans-31" x="63.623047"/>
       <use xlink:href="#DejaVuSans-30" x="127.246094"/>
       <use xlink:href="#DejaVuSans-30" x="190.869141"/>
      </g>
     </g>
    </g>
    <g id="ytick_5">
     <g id="line2d_12">
      <g>
       <use xlink:href="#m7815c757f7" x="541.818561" y="441.838666" style="stroke: #000000; stroke-width: 0.8"/>
      </g>
     </g>
     <g id="text_12">
      <!-- 1200 -->
      <g transform="translate(509.368561 445.637885) scale(0.1 -0.1)">
       <use xlink:href="#DejaVuSans-31"/>
       <use xlink:href="#DejaVuSans-32" x="63.623047"/>
       <use xlink:href="#DejaVuSans-30" x="127.246094"/>
       <use xlink:href="#DejaVuSans-30" x="190.869141"/>
      </g>
     </g>
    </g>
    <g id="ytick_6">
     <g id="line2d_13">
      <g>
       <use xlink:href="#m7815c757f7" x="541.818561" y="325.468911" style="stroke: #000000; stroke-width: 0.8"/>
      </g>
     </g>
     <g id="text_13">
      <!-- 1300 -->
      <g transform="translate(509.368561 329.268129) scale(0.1 -0.1)">
       <use xlink:href="#DejaVuSans-31"/>
       <use xlink:href="#DejaVuSans-33" x="63.623047"/>
       <use xlink:href="#DejaVuSans-30" x="127.246094"/>
       <use xlink:href="#DejaVuSans-30" x="190.869141"/>
      </g>
     </g>
    </g>
    <g id="ytick_7">
     <g id="line2d_14">
      <g>
       <use xlink:href="#m7815c757f7" x="541.818561" y="209.099156" style="stroke: #000000; stroke-width: 0.8"/>
      </g>
     </g>
     <g id="text_14">
      <!-- 1400 -->
      <g transform="translate(509.368561 212.898374) scale(0.1 -0.1)">
       <use xlink:href="#DejaVuSans-31"/>
       <use xlink:href="#DejaVuSans-34" x="63.623047"/>
       <use xlink:href="#DejaVuSans-30" x="127.246094"/>
       <use xlink:href="#DejaVuSans-30" x="190.869141"/>
      </g>
     </g>
    </g>
   </g>
   <g id="LineCollection_1">
    <path d="M 852.629325 898.217558 
L 831.770873 894.3972 
L 815.341886 889.763097 
L 802.45039 884.45639 
L 792.659479 878.708452 
L 785.476303 872.708739 
L 780.365452 866.531081 
L 776.840633 860.095433 
L 774.56883 853.235459 
L 773.379172 845.822436 
L 773.185603 837.828822 
L 773.914215 829.309303 
L 775.475433 820.355512 
L 777.765358 811.063662 
L 780.675044 801.519927 
L 784.09836 791.796476 
L 787.936688 781.952033 
L 792.101164 772.03381 
L 796.513394 762.079557 
L 801.105332 752.119348 
L 810.604325 732.271272 
L 843.50733 664.776198 
L 852.203659 646.214216 
L 860.490094 627.970261 
L 868.361421 610.02172 
L 875.818557 592.34192 
L 882.857112 574.903878 
L 889.458309 557.683192 
L 895.582051 540.660004 
L 898.445248 532.217762 
L 901.161897 523.819942 
L 903.718999 515.465592 
L 906.101523 507.154047 
L 908.292342 498.884898 
L 910.272156 490.657963 
L 912.019421 482.473291 
L 913.510257 474.331213 
L 914.718364 466.232473 
L 915.614945 458.178479 
L 916.168685 450.171718 
L 916.345857 442.21637 
L 916.110649 434.319115 
L 915.425861 426.490088 
L 914.254067 418.7438 
L 912.559329 411.09976 
L 910.309306 403.582415 
L 907.477439 396.220087 
L 904.044641 389.042835 
L 899.999967 382.079547 
L 895.339977 375.354932 
L 890.06701 368.887207 
L 884.186953 362.686992 
L 877.707235 356.757465 
L 870.635541 351.095444 
L 862.9794 345.692861 
L 854.746546 340.538192 
L 845.945753 335.617583 
L 836.587912 330.915585 
L 826.687124 326.415526 
L 816.261737 322.099625 
L 805.335239 317.948924 
L 793.937051 313.943114 
L 782.103195 310.060328 
L 769.876899 306.276913 
L 757.309138 302.567236 
L 731.394976 295.255694 
L 704.899438 287.863537 
L 691.666355 284.05087 
L 678.586428 280.109667 
L 665.779403 275.999437 
L 653.377711 271.679501 
L 641.527335 267.110788 
L 630.3884 262.25878 
L 620.134687 257.098124 
L 610.950104 251.619226 
L 603.017999 245.835584 
L 596.496721 239.785156 
L 591.47884 233.507066 
L 587.959041 226.967234 
L 585.883181 219.950554 
L 585.310136 212.044253 
L 586.532177 202.80316 
L 590.000106 191.935178 
L 596.498899 178.649063 
L 596.498899 178.649063 
" clip-path="url(#p7f372924e8)" style="fill: none; stroke: #1f77b4; stroke-width: 1.5"/>
    <path d="M 850.323163 910.808779 
L 828.873891 906.880209 
L 811.154064 901.882 
L 796.745712 895.950888 
L 785.266016 889.211518 
L 776.365225 881.777175 
L 769.724649 873.750487 
L 765.05473 865.224105 
L 762.093179 856.281357 
L 760.603186 846.996877 
L 760.371694 837.437208 
L 761.207749 827.66138 
L 762.940911 817.721473 
L 765.41973 807.663143 
L 768.510293 797.526134 
L 772.094826 787.344769 
L 776.070365 777.14841 
L 780.347487 766.961906 
L 784.849094 756.806013 
L 789.509269 746.697793 
L 794.272177 736.651002 
L 799.09103 726.676442 
L 803.927108 716.782308 
L 808.748828 706.974505 
L 813.530875 697.256955 
L 818.253377 687.631876 
L 822.901138 678.100053 
L 827.462916 668.661079 
L 831.930751 659.313593 
L 836.299344 650.055489 
L 840.56548 640.884111 
L 844.727491 631.796442 
L 848.784777 622.789258 
L 852.737357 613.859287 
L 856.585468 605.003338 
L 860.329204 596.218422 
L 863.968197 587.501858 
L 867.501333 578.851365 
L 870.926507 570.265141 
L 874.240417 561.741927 
L 877.438389 553.281061 
L 880.514241 544.882516 
L 883.460175 536.546934 
L 886.266706 528.275637 
L 888.922618 520.070636 
L 891.414954 511.934628 
L 893.729026 503.87098 
L 895.848466 495.883703 
L 897.755291 487.97742 
L 899.43 480.157322 
L 900.851692 472.429116 
L 901.998211 464.798967 
L 902.846308 457.273425 
L 903.371824 449.859357 
L 903.549901 442.563859 
L 903.3552 435.394167 
L 902.762143 428.357566 
L 901.74517 421.461282 
L 900.279012 414.712383 
L 898.338977 408.117659 
L 895.901247 401.683512 
L 892.943192 395.415831 
L 889.443691 389.319869 
L 885.383458 383.400114 
L 880.745392 377.660158 
L 875.514914 372.102562 
L 869.680324 366.72872 
L 863.23316 361.53872 
L 856.168561 356.531205 
L 848.485626 351.703232 
L 840.18779 347.050128 
L 831.283181 342.565352 
L 821.784997 338.240346 
L 811.711861 334.064401 
L 801.088192 330.024512 
L 789.944556 326.105237 
L 778.318027 322.288563 
L 766.252525 318.553767 
L 753.799165 314.877285 
L 741.016582 311.23258 
L 727.971256 307.590011 
L 714.737822 303.916717 
L 701.399371 300.176491 
L 688.047735 296.329667 
L 674.78376 292.333007 
L 661.717565 288.139601 
L 648.968782 283.698761 
L 636.66678 278.955931 
L 624.950869 273.852599 
L 613.97049 268.326214 
L 603.885375 262.310119 
L 594.865693 255.733477 
L 587.092169 248.521218 
L 580.756183 240.59399 
L 576.059835 231.868116 
L 573.215995 222.255563 
L 572.448318 211.663921 
L 573.99123 199.996393 
L 578.089892 187.151787 
L 585.000121 173.024532 
" clip-path="url(#p7f372924e8)" style="fill: none; stroke: #8c564b; stroke-width: 1.5"/>
    <path d="M 848.017001 923.4 
L 825.39882 919.200156 
L 806.281431 913.719005 
L 791.873079 907.787893 
L 790.265083 906.98985 
L 777.897703 899.678857 
L 777.060145 899.036024 
L 767.292575 890.807361 
L 766.502331 889.936866 
L 759.131875 880.937306 
L 758.49762 879.899556 
L 753.317207 870.331724 
L 752.903074 869.248343 
L 749.657767 859.317432 
L 749.454227 858.309684 
L 747.964234 849.025204 
L 747.806265 847.306761 
L 747.617579 836.346441 
L 748.597337 825.462579 
L 750.512105 814.658464 
L 753.175474 803.930124 
L 756.436076 793.275189 
L 760.168608 782.694761 
L 764.267873 772.192766 
L 768.644905 761.774728 
L 773.224347 751.446676 
L 777.942555 741.214332 
L 787.590622 721.055246 
L 820.367778 653.822155 
L 828.94306 635.519596 
L 837.096373 617.570045 
L 844.82723 599.943386 
L 852.136545 582.615992 
L 859.016192 565.574218 
L 865.441159 548.816976 
L 871.364202 532.357521 
L 874.115896 524.24784 
L 876.712947 516.22468 
L 879.142321 508.294205 
L 881.389509 500.463621 
L 883.438678 492.741167 
L 885.27286 485.136083 
L 886.87421 477.658539 
L 888.224307 470.319517 
L 889.304527 463.130596 
L 890.096434 456.103643 
L 890.582204 449.250323 
L 890.744986 442.581435 
L 890.569139 436.106014 
L 890.040207 429.830261 
L 889.144511 423.756377 
L 887.868243 417.881562 
L 886.196103 412.197489 
L 884.109692 406.690615 
L 881.586132 401.343562 
L 878.597461 396.137444 
L 875.111271 391.054633 
L 871.092587 386.081209 
L 866.50661 381.208422 
L 861.321603 376.432866 
L 855.511294 371.755537 
L 849.05646 367.180236 
L 841.945664 362.711796 
L 834.175371 358.354518 
L 825.749702 354.110957 
L 816.680067 349.981092 
L 806.984823 345.961807 
L 796.689032 342.046601 
L 785.824331 338.225428 
L 774.428914 334.484622 
L 762.547595 330.806839 
L 750.231915 327.171004 
L 724.538108 319.921711 
L 697.855449 312.47681 
L 684.354684 308.586037 
L 670.872084 304.521363 
L 657.506799 300.227888 
L 644.364061 295.642536 
L 631.554851 290.691578 
L 619.196102 285.286753 
L 607.412651 279.319484 
L 596.343731 272.653274 
L 586.159359 265.117345 
L 577.713542 257.233198 
L 577.092958 256.513276 
L 570.077188 247.652056 
L 569.484374 246.660584 
L 564.223756 236.742997 
L 563.785071 235.499561 
L 560.622128 224.54723 
L 560.448813 223.180922 
L 559.653238 211.285563 
L 559.758123 209.985772 
L 561.499588 197.20066 
L 561.796364 196.10506 
L 565.895025 183.260454 
L 566.591115 181.527255 
L 573.501344 167.4 
L 573.501344 167.4 
" clip-path="url(#p7f372924e8)" style="fill: none; stroke: #17becf; stroke-width: 1.5"/>
   </g>
   <g id="patch_3">
    <path d="M 541.818561 961.2 
L 541.818561 129.6 
" style="fill: none; stroke: #000000; stroke-width: 0.8; stroke-linejoin: miter; stroke-linecap: square"/>
   </g>
   <g id="patch_4">
    <path d="M 934.181439 961.2 
L 934.181439 129.6 
" style="fill: none; stroke: #000000; stroke-width: 0.8; stroke-linejoin: miter; stroke-linecap: square"/>
   </g>
   <g id="patch_5">
    <path d="M 541.818561 961.2 
L 934.181439 961.2 
" style="fill: none; stroke: #000000; stroke-width: 0.8; stroke-linejoin: miter; stroke-linecap: square"/>
   </g>
   <g id="patch_6">
    <path d="M 541.818561 129.6 
L 934.181439 129.6 
" style="fill: none; stroke: #000000; stroke-width: 0.8; stroke-linejoin: miter; stroke-linecap: square"/>
   </g>
  </g>
 </g>
 <defs>
  <clipPath id="p7f372924e8">
   <rect x="541.818561" y="129.6" width="392.362877" height="831.6"/>
  </clipPath>
 </defs>
</svg>
