<?xml version="1.0" encoding="utf-8" standalone="no"?>
<!DOCTYPE svg PUBLIC "-//W3C//DTD SVG 1.1//EN"
  "http://www.w3.org/Graphics/SVG/1.1/DTD/svg11.dtd">
<svg xmlns:xlink="http://www.w3.org/1999/xlink" width="1440pt" height="1080pt" viewBox="0 0 1440 1080" xmlns="http://www.w3.org/2000/svg" version="1.1">
 <metadata>
  <rdf:RDF xmlns:dc="http://purl.org/dc/elements/1.1/" xmlns:cc="http://creativecommons.org/ns#" xmlns:rdf="http://www.w3.org/1999/02/22-rdf-syntax-ns#">
   <cc:Work>
    <dc:type rdf:resource="http://purl.org/dc/dcmitype/StillImage"/>
    <dc:date>2023-12-11T12:06:39.889263</dc:date>
    <dc:format>image/svg+xml</dc:format>
    <dc:creator>
     <cc:Agent>
      <dc:title>Matplotlib v3.7.1, https://matplotlib.org/</dc:title>
     </cc:Agent>
    </dc:creator>
   </cc:Work>
  </rdf:RDF>
 </metadata>
 <defs>
  <style type="text/css">*{stroke-linejoin: round; stroke-linecap: butt}</style>
 </defs>
 <g id="figure_1">
  <g id="patch_1">
   <path d="M 0 1080 
L 1440 1080 
L 1440 0 
L 0 0 
z
" style="fill: #ffffff"/>
  </g>
  <g id="axes_1">
   <g id="patch_2">
    <path d="M 180 808.59502 
L 1296 808.59502 
L 1296 282.20498 
L 180 282.20498 
z
" style="fill: #ffffff"/>
   </g>
   <g id="matplotlib.axis_1">
    <g id="xtick_1">
     <g id="line2d_1">
      <defs>
       <path id="m5cbf0c203a" d="M 0 0 
L 0 3.5 
" style="stroke: #000000; stroke-width: 0.8"/>
      </defs>
      <g>
       <use xlink:href="#m5cbf0c203a" x="332.474455" y="808.59502" style="stroke: #000000; stroke-width: 0.8"/>
      </g>
     </g>
     <g id="text_1">
      <!-- 800 -->
      <g transform="translate(322.930705 823.193458) scale(0.1 -0.1)">
       <defs>
        <path id="DejaVuSans-38" d="M 2034 2216 
Q 1584 2216 1326 1975 
Q 1069 1734 1069 1313 
Q 1069 891 1326 650 
Q 1584 409 2034 409 
Q 2484 409 2743 651 
Q 3003 894 3003 1313 
Q 3003 1734 2745 1975 
Q 2488 2216 2034 2216 
z
M 1403 2484 
Q 997 2584 770 2862 
Q 544 3141 544 3541 
Q 544 4100 942 4425 
Q 1341 4750 2034 4750 
Q 2731 4750 3128 4425 
Q 3525 4100 3525 3541 
Q 3525 3141 3298 2862 
Q 3072 2584 2669 2484 
Q 3125 2378 3379 2068 
Q 3634 1759 3634 1313 
Q 3634 634 3220 271 
Q 2806 -91 2034 -91 
Q 1263 -91 848 271 
Q 434 634 434 1313 
Q 434 1759 690 2068 
Q 947 2378 1403 2484 
z
M 1172 3481 
Q 1172 3119 1398 2916 
Q 1625 2713 2034 2713 
Q 2441 2713 2670 2916 
Q 2900 3119 2900 3481 
Q 2900 3844 2670 4047 
Q 2441 4250 2034 4250 
Q 1625 4250 1398 4047 
Q 1172 3844 1172 3481 
z
" transform="scale(0.015625)"/>
        <path id="DejaVuSans-30" d="M 2034 4250 
Q 1547 4250 1301 3770 
Q 1056 3291 1056 2328 
Q 1056 1369 1301 889 
Q 1547 409 2034 409 
Q 2525 409 2770 889 
Q 3016 1369 3016 2328 
Q 3016 3291 2770 3770 
Q 2525 4250 2034 4250 
z
M 2034 4750 
Q 2819 4750 3233 4129 
Q 3647 3509 3647 2328 
Q 3647 1150 3233 529 
Q 2819 -91 2034 -91 
Q 1250 -91 836 529 
Q 422 1150 422 2328 
Q 422 3509 836 4129 
Q 1250 4750 2034 4750 
z
" transform="scale(0.015625)"/>
       </defs>
       <use xlink:href="#DejaVuSans-38"/>
       <use xlink:href="#DejaVuSans-30" x="63.623047"/>
       <use xlink:href="#DejaVuSans-30" x="127.246094"/>
      </g>
     </g>
    </g>
    <g id="xtick_2">
     <g id="line2d_2">
      <g>
       <use xlink:href="#m5cbf0c203a" x="548.03847" y="808.59502" style="stroke: #000000; stroke-width: 0.8"/>
      </g>
     </g>
     <g id="text_2">
      <!-- 1000 -->
      <g transform="translate(535.31347 823.193458) scale(0.1 -0.1)">
       <defs>
        <path id="DejaVuSans-31" d="M 794 531 
L 1825 531 
L 1825 4091 
L 703 3866 
L 703 4441 
L 1819 4666 
L 2450 4666 
L 2450 531 
L 3481 531 
L 3481 0 
L 794 0 
L 794 531 
z
" transform="scale(0.015625)"/>
       </defs>
       <use xlink:href="#DejaVuSans-31"/>
       <use xlink:href="#DejaVuSans-30" x="63.623047"/>
       <use xlink:href="#DejaVuSans-30" x="127.246094"/>
       <use xlink:href="#DejaVuSans-30" x="190.869141"/>
      </g>
     </g>
    </g>
    <g id="xtick_3">
     <g id="line2d_3">
      <g>
       <use xlink:href="#m5cbf0c203a" x="763.602486" y="808.59502" style="stroke: #000000; stroke-width: 0.8"/>
      </g>
     </g>
     <g id="text_3">
      <!-- 1200 -->
      <g transform="translate(750.877486 823.193458) scale(0.1 -0.1)">
       <defs>
        <path id="DejaVuSans-32" d="M 1228 531 
L 3431 531 
L 3431 0 
L 469 0 
L 469 531 
Q 828 903 1448 1529 
Q 2069 2156 2228 2338 
Q 2531 2678 2651 2914 
Q 2772 3150 2772 3378 
Q 2772 3750 2511 3984 
Q 2250 4219 1831 4219 
Q 1534 4219 1204 4116 
Q 875 4013 500 3803 
L 500 4441 
Q 881 4594 1212 4672 
Q 1544 4750 1819 4750 
Q 2544 4750 2975 4387 
Q 3406 4025 3406 3419 
Q 3406 3131 3298 2873 
Q 3191 2616 2906 2266 
Q 2828 2175 2409 1742 
Q 1991 1309 1228 531 
z
" transform="scale(0.015625)"/>
       </defs>
       <use xlink:href="#DejaVuSans-31"/>
       <use xlink:href="#DejaVuSans-32" x="63.623047"/>
       <use xlink:href="#DejaVuSans-30" x="127.246094"/>
       <use xlink:href="#DejaVuSans-30" x="190.869141"/>
      </g>
     </g>
    </g>
    <g id="xtick_4">
     <g id="line2d_4">
      <g>
       <use xlink:href="#m5cbf0c203a" x="979.166501" y="808.59502" style="stroke: #000000; stroke-width: 0.8"/>
      </g>
     </g>
     <g id="text_4">
      <!-- 1400 -->
      <g transform="translate(966.441501 823.193458) scale(0.1 -0.1)">
       <defs>
        <path id="DejaVuSans-34" d="M 2419 4116 
L 825 1625 
L 2419 1625 
L 2419 4116 
z
M 2253 4666 
L 3047 4666 
L 3047 1625 
L 3713 1625 
L 3713 1100 
L 3047 1100 
L 3047 0 
L 2419 0 
L 2419 1100 
L 313 1100 
L 313 1709 
L 2253 4666 
z
" transform="scale(0.015625)"/>
       </defs>
       <use xlink:href="#DejaVuSans-31"/>
       <use xlink:href="#DejaVuSans-34" x="63.623047"/>
       <use xlink:href="#DejaVuSans-30" x="127.246094"/>
       <use xlink:href="#DejaVuSans-30" x="190.869141"/>
      </g>
     </g>
    </g>
    <g id="xtick_5">
     <g id="line2d_5">
      <g>
       <use xlink:href="#m5cbf0c203a" x="1194.730517" y="808.59502" style="stroke: #000000; stroke-width: 0.8"/>
      </g>
     </g>
     <g id="text_5">
      <!-- 1600 -->
      <g transform="translate(1182.005517 823.193458) scale(0.1 -0.1)">
       <defs>
        <path id="DejaVuSans-36" d="M 2113 2584 
Q 1688 2584 1439 2293 
Q 1191 2003 1191 1497 
Q 1191 994 1439 701 
Q 1688 409 2113 409 
Q 2538 409 2786 701 
Q 3034 994 3034 1497 
Q 3034 2003 2786 2293 
Q 2538 2584 2113 2584 
z
M 3366 4563 
L 3366 3988 
Q 3128 4100 2886 4159 
Q 2644 4219 2406 4219 
Q 1781 4219 1451 3797 
Q 1122 3375 1075 2522 
Q 1259 2794 1537 2939 
Q 1816 3084 2150 3084 
Q 2853 3084 3261 2657 
Q 3669 2231 3669 1497 
Q 3669 778 3244 343 
Q 2819 -91 2113 -91 
Q 1303 -91 875 529 
Q 447 1150 447 2328 
Q 447 3434 972 4092 
Q 1497 4750 2381 4750 
Q 2619 4750 2861 4703 
Q 3103 4656 3366 4563 
z
" transform="scale(0.015625)"/>
       </defs>
       <use xlink:href="#DejaVuSans-31"/>
       <use xlink:href="#DejaVuSans-36" x="63.623047"/>
       <use xlink:href="#DejaVuSans-30" x="127.246094"/>
       <use xlink:href="#DejaVuSans-30" x="190.869141"/>
      </g>
     </g>
    </g>
   </g>
   <g id="matplotlib.axis_2">
    <g id="ytick_1">
     <g id="line2d_6">
      <defs>
       <path id="m4272cd4b30" d="M 0 0 
L -3.5 0 
" style="stroke: #000000; stroke-width: 0.8"/>
      </defs>
      <g>
       <use xlink:href="#m4272cd4b30" x="180" y="743.938999" style="stroke: #000000; stroke-width: 0.8"/>
      </g>
     </g>
     <g id="text_6">
      <!-- 800 -->
      <g transform="translate(153.9125 747.738218) scale(0.1 -0.1)">
       <use xlink:href="#DejaVuSans-38"/>
       <use xlink:href="#DejaVuSans-30" x="63.623047"/>
       <use xlink:href="#DejaVuSans-30" x="127.246094"/>
      </g>
     </g>
    </g>
    <g id="ytick_2">
     <g id="line2d_7">
      <g>
       <use xlink:href="#m4272cd4b30" x="180" y="636.156992" style="stroke: #000000; stroke-width: 0.8"/>
      </g>
     </g>
     <g id="text_7">
      <!-- 900 -->
      <g transform="translate(153.9125 639.95621) scale(0.1 -0.1)">
       <defs>
        <path id="DejaVuSans-39" d="M 703 97 
L 703 672 
Q 941 559 1184 500 
Q 1428 441 1663 441 
Q 2288 441 2617 861 
Q 2947 1281 2994 2138 
Q 2813 1869 2534 1725 
Q 2256 1581 1919 1581 
Q 1219 1581 811 2004 
Q 403 2428 403 3163 
Q 403 3881 828 4315 
Q 1253 4750 1959 4750 
Q 2769 4750 3195 4129 
Q 3622 3509 3622 2328 
Q 3622 1225 3098 567 
Q 2575 -91 1691 -91 
Q 1453 -91 1209 -44 
Q 966 3 703 97 
z
M 1959 2075 
Q 2384 2075 2632 2365 
Q 2881 2656 2881 3163 
Q 2881 3666 2632 3958 
Q 2384 4250 1959 4250 
Q 1534 4250 1286 3958 
Q 1038 3666 1038 3163 
Q 1038 2656 1286 2365 
Q 1534 2075 1959 2075 
z
" transform="scale(0.015625)"/>
       </defs>
       <use xlink:href="#DejaVuSans-39"/>
       <use xlink:href="#DejaVuSans-30" x="63.623047"/>
       <use xlink:href="#DejaVuSans-30" x="127.246094"/>
      </g>
     </g>
    </g>
    <g id="ytick_3">
     <g id="line2d_8">
      <g>
       <use xlink:href="#m4272cd4b30" x="180" y="528.374984" style="stroke: #000000; stroke-width: 0.8"/>
      </g>
     </g>
     <g id="text_8">
      <!-- 1000 -->
      <g transform="translate(147.55 532.174203) scale(0.1 -0.1)">
       <use xlink:href="#DejaVuSans-31"/>
       <use xlink:href="#DejaVuSans-30" x="63.623047"/>
       <use xlink:href="#DejaVuSans-30" x="127.246094"/>
       <use xlink:href="#DejaVuSans-30" x="190.869141"/>
      </g>
     </g>
    </g>
    <g id="ytick_4">
     <g id="line2d_9">
      <g>
       <use xlink:href="#m4272cd4b30" x="180" y="420.592976" style="stroke: #000000; stroke-width: 0.8"/>
      </g>
     </g>
     <g id="text_9">
      <!-- 1100 -->
      <g transform="translate(147.55 424.392195) scale(0.1 -0.1)">
       <use xlink:href="#DejaVuSans-31"/>
       <use xlink:href="#DejaVuSans-31" x="63.623047"/>
       <use xlink:href="#DejaVuSans-30" x="127.246094"/>
       <use xlink:href="#DejaVuSans-30" x="190.869141"/>
      </g>
     </g>
    </g>
    <g id="ytick_5">
     <g id="line2d_10">
      <g>
       <use xlink:href="#m4272cd4b30" x="180" y="312.810968" style="stroke: #000000; stroke-width: 0.8"/>
      </g>
     </g>
     <g id="text_10">
      <!-- 1200 -->
      <g transform="translate(147.55 316.610187) scale(0.1 -0.1)">
       <use xlink:href="#DejaVuSans-31"/>
       <use xlink:href="#DejaVuSans-32" x="63.623047"/>
       <use xlink:href="#DejaVuSans-30" x="127.246094"/>
       <use xlink:href="#DejaVuSans-30" x="190.869141"/>
      </g>
     </g>
    </g>
   </g>
   <g id="LineCollection_1">
    <path d="M 230.727273 315.178856 
L 237.584914 338.471374 
L 245.682429 358.856812 
L 254.90644 376.59271 
L 265.124859 391.898326 
L 276.179551 404.970901 
L 287.891318 416.006446 
L 300.076643 425.214655 
L 312.567379 432.82094 
L 325.223713 439.057535 
L 337.937093 444.151067 
L 350.626002 448.312749 
L 363.22919 451.7332 
L 375.699478 454.581054 
L 387.99928 457.003758 
L 400.097839 459.12927 
L 446.154742 466.660231 
L 456.995209 468.672068 
L 467.544081 470.842215 
L 477.80291 473.206986 
L 487.777598 475.794348 
L 497.478128 478.624967 
L 506.918126 481.713141 
L 516.114264 485.067596 
L 525.085587 488.692093 
L 533.8528 492.585845 
L 542.437638 496.743773 
L 550.862349 501.156627 
L 559.149343 505.81106 
L 567.321013 510.689693 
L 575.399693 515.771246 
L 583.407711 521.030733 
L 591.367498 526.439748 
L 607.233259 537.577784 
L 631.321406 554.592297 
L 639.510354 560.177856 
L 647.815437 565.648448 
L 656.259344 570.961162 
L 664.863465 576.072873 
L 673.647315 580.940633 
L 682.627924 585.522174 
L 691.819273 589.776563 
L 701.231837 593.664992 
L 710.872347 597.151712 
L 720.743824 600.205014 
L 730.845925 602.798153 
L 741.175541 604.910109 
L 751.727575 606.526068 
L 762.495731 607.637591 
L 773.473191 608.242502 
L 784.653083 608.344546 
L 796.028675 607.952949 
L 807.593338 607.081956 
L 819.340312 605.750444 
L 831.262361 603.981621 
L 843.351381 601.802835 
L 855.598004 599.245478 
L 867.991253 596.344947 
L 880.518246 593.140645 
L 893.16396 589.675988 
L 905.911045 585.998404 
L 931.627486 578.214003 
L 970.455899 566.327905 
L 983.338272 562.574352 
L 996.130024 559.043662 
L 1008.792576 555.809698 
L 1021.284454 552.947509 
L 1033.561448 550.53229 
L 1045.57705 548.638067 
L 1057.283416 547.336093 
L 1068.633184 546.693077 
L 1079.582569 546.769602 
L 1090.096034 547.619467 
L 1100.152306 549.291164 
L 1109.750348 551.832771 
L 1118.912349 555.300632 
L 1127.680178 559.769666 
L 1136.103874 565.340338 
L 1144.225593 572.13705 
L 1152.066293 580.297024 
L 1159.62119 589.954609 
L 1166.864362 601.227998 
L 1173.75821 614.212393 
L 1180.262943 628.979224 
L 1186.343413 645.578744 
L 1191.972983 664.043446 
L 1197.135193 684.390874 
L 1201.824184 706.625336 
L 1206.04459 730.738624 
L 1209.81129 756.709955 
L 1213.168791 784.6682 
L 1213.168791 784.6682 
" clip-path="url(#p10bceb3351)" style="fill: none; stroke: #1f77b4; stroke-width: 1.5"/>
    <path d="M 246.248849 310.655328 
L 252.632307 332.55888 
L 260.061026 351.465088 
L 268.40243 367.691032 
L 277.532787 381.533726 
L 287.33694 393.270718 
L 297.708046 403.160689 
L 308.547309 411.444054 
L 319.763715 418.343566 
L 331.273764 424.06492 
L 343.001201 428.797356 
L 354.876748 432.714262 
L 366.837836 435.97378 
L 378.828338 438.719407 
L 390.798297 441.080595 
L 402.703659 443.173351 
L 414.50601 445.100838 
L 426.172305 446.95396 
L 437.674604 448.811963 
L 448.989811 450.743017 
L 460.099408 452.804801 
L 470.989199 455.045084 
L 481.649046 457.502294 
L 492.07262 460.206093 
L 502.25714 463.17794 
L 512.203127 466.431643 
L 521.914157 469.973913 
L 531.39661 473.804911 
L 540.659433 477.918777 
L 549.713901 482.304162 
L 558.573384 486.94475 
L 567.253114 491.819765 
L 575.769959 496.904474 
L 584.142204 502.170682 
L 592.389332 507.587211 
L 600.531811 513.120373 
L 608.590889 518.734431 
L 616.588391 524.392048 
L 624.546522 530.054725 
L 632.487678 535.683225 
L 640.43426 541.23799 
L 648.408496 546.679534 
L 656.43227 551.968834 
L 664.526954 557.067701 
L 672.713252 561.939138 
L 681.011047 566.54768 
L 689.439256 570.859726 
L 698.015697 574.843848 
L 706.756954 578.471088 
L 715.67826 581.715235 
L 724.793383 584.55309 
L 734.114521 586.964711 
L 743.652206 588.933634 
L 753.415216 590.447091 
L 763.410499 591.49619 
L 773.6431 592.076094 
L 784.116107 592.186165 
L 794.830594 591.830101 
L 805.785587 591.01604 
L 816.978032 589.756656 
L 828.402774 588.069223 
L 840.052551 585.975664 
L 851.917993 583.50257 
L 863.987635 580.68121 
L 876.247943 577.547501 
L 888.683347 574.141969 
L 901.276291 570.509677 
L 914.007286 566.70013 
L 926.85499 562.767162 
L 939.796282 558.768787 
L 952.806363 554.767033 
L 965.858865 550.827747 
L 978.92597 547.020368 
L 991.978544 543.417687 
L 1004.98629 540.095562 
L 1017.917904 537.132619 
L 1030.741253 534.609918 
L 1043.423565 532.61059 
L 1055.931633 531.219451 
L 1068.232031 530.522577 
L 1080.29135 530.606859 
L 1092.076444 531.559518 
L 1103.554694 533.467596 
L 1114.694287 536.417413 
L 1125.464507 540.493992 
L 1135.836051 545.780454 
L 1145.781348 552.357375 
L 1155.274906 560.302119 
L 1164.293668 569.688126 
L 1172.817388 580.584178 
L 1180.829026 593.05362 
L 1188.315151 607.153554 
L 1195.266374 622.933995 
L 1201.67779 640.436987 
L 1207.549438 659.695692 
L 1212.886783 680.733434 
L 1217.701215 703.562713 
L 1222.010563 728.184173 
L 1225.839632 754.58554 
L 1229.220759 782.740522 
" clip-path="url(#p10bceb3351)" style="fill: none; stroke: #8c564b; stroke-width: 1.5"/>
    <path d="M 261.770425 306.1318 
L 267.948347 327.330096 
L 274.811201 344.796169 
L 282.380621 359.520425 
L 290.526056 371.869863 
L 299.157447 382.202889 
L 308.22639 390.851106 
L 317.714392 398.101838 
L 327.613159 404.190835 
L 337.906978 409.307632 
L 348.564146 413.608176 
L 359.53739 417.227476 
L 370.76918 420.288253 
L 382.197867 422.905234 
L 393.762554 425.186478 
L 405.406177 427.233225 
L 451.939861 434.847142 
L 463.357173 436.969127 
L 474.620704 439.290916 
L 485.708385 441.852904 
L 496.601376 444.686042 
L 507.283921 447.811968 
L 517.743365 451.243246 
L 527.970315 454.983764 
L 537.95885 459.029302 
L 547.706734 463.368273 
L 557.215523 467.982595 
L 566.490537 472.84864 
L 575.540664 477.938189 
L 584.378018 483.219338 
L 593.017481 488.657315 
L 601.476185 494.215198 
L 609.772969 499.854529 
L 625.961641 511.219205 
L 649.622257 527.93496 
L 657.414569 533.252361 
L 665.190695 538.37841 
L 672.970529 543.278952 
L 680.773741 547.922425 
L 688.620014 552.280195 
L 696.52935 556.326775 
L 704.522382 560.039879 
L 712.620634 563.400299 
L 720.846623 566.391601 
L 729.22374 568.999689 
L 737.775849 571.212342 
L 746.526617 573.018817 
L 755.49863 574.409654 
L 764.712452 575.376732 
L 774.185727 575.913603 
L 783.932485 576.016041 
L 793.962701 575.682716 
L 804.282131 574.915884 
L 814.892392 573.722008 
L 825.791206 572.112255 
L 836.972753 570.10284 
L 848.428064 567.715229 
L 860.145413 564.97622 
L 872.110681 561.917923 
L 884.30769 558.577678 
L 896.718495 554.997921 
L 922.102535 547.314128 
L 961.336247 535.305905 
L 974.624429 531.435813 
L 987.977896 527.753191 
L 1001.37554 524.336625 
L 1014.797171 521.269371 
L 1028.22362 518.639847 
L 1041.636468 516.542363 
L 1055.017149 515.078034 
L 1068.345021 514.355671 
L 1081.594 514.492123 
L 1094.727621 515.611074 
L 1107.69323 517.838964 
L 1120.417438 521.296991 
L 1132.806399 526.089887 
L 1144.753982 532.295198 
L 1156.157158 539.958819 
L 1166.932706 549.100452 
L 1177.027554 559.726712 
L 1186.419173 571.845008 
L 1195.108496 585.472173 
L 1203.110617 600.636208 
L 1210.447249 617.37318 
L 1217.142319 635.722118 
L 1223.220274 655.719949 
L 1228.706136 677.397315 
L 1233.626434 700.775416 
L 1238.010464 725.863659 
L 1241.891601 752.657862 
L 1245.272727 780.812844 
L 1245.272727 780.812844 
" clip-path="url(#p10bceb3351)" style="fill: none; stroke: #17becf; stroke-width: 1.5"/>
   </g>
   <g id="patch_3">
    <path d="M 180 808.59502 
L 180 282.20498 
" style="fill: none; stroke: #000000; stroke-width: 0.8; stroke-linejoin: miter; stroke-linecap: square"/>
   </g>
   <g id="patch_4">
    <path d="M 1296 808.59502 
L 1296 282.20498 
" style="fill: none; stroke: #000000; stroke-width: 0.8; stroke-linejoin: miter; stroke-linecap: square"/>
   </g>
   <g id="patch_5">
    <path d="M 180 808.59502 
L 1296 808.59502 
" style="fill: none; stroke: #000000; stroke-width: 0.8; stroke-linejoin: miter; stroke-linecap: square"/>
   </g>
   <g id="patch_6">
    <path d="M 180 282.20498 
L 1296 282.20498 
" style="fill: none; stroke: #000000; stroke-width: 0.8; stroke-linejoin: miter; stroke-linecap: square"/>
   </g>
  </g>
 </g>
 <defs>
  <clipPath id="p10bceb3351">
   <rect x="180" y="282.20498" width="1116" height="526.39004"/>
  </clipPath>
 </defs>
</svg>
