<?xml version="1.0" encoding="utf-8" standalone="no"?>
<!DOCTYPE svg PUBLIC "-//W3C//DTD SVG 1.1//EN"
  "http://www.w3.org/Graphics/SVG/1.1/DTD/svg11.dtd">
<svg xmlns:xlink="http://www.w3.org/1999/xlink" width="1440pt" height="1080pt" viewBox="0 0 1440 1080" xmlns="http://www.w3.org/2000/svg" version="1.1">
 <metadata>
  <rdf:RDF xmlns:dc="http://purl.org/dc/elements/1.1/" xmlns:cc="http://creativecommons.org/ns#" xmlns:rdf="http://www.w3.org/1999/02/22-rdf-syntax-ns#">
   <cc:Work>
    <dc:type rdf:resource="http://purl.org/dc/dcmitype/StillImage"/>
    <dc:date>2023-12-11T12:07:05.364536</dc:date>
    <dc:format>image/svg+xml</dc:format>
    <dc:creator>
     <cc:Agent>
      <dc:title>Matplotlib v3.7.1, https://matplotlib.org/</dc:title>
     </cc:Agent>
    </dc:creator>
   </cc:Work>
  </rdf:RDF>
 </metadata>
 <defs>
  <style type="text/css">*{stroke-linejoin: round; stroke-linecap: butt}</style>
 </defs>
 <g id="figure_1">
  <g id="patch_1">
   <path d="M 0 1080 
L 1440 1080 
L 1440 0 
L 0 0 
z
" style="fill: #ffffff"/>
  </g>
  <g id="axes_1">
   <g id="patch_2">
    <path d="M 192.370365 961.2 
L 1283.629635 961.2 
L 1283.629635 129.6 
L 192.370365 129.6 
z
" style="fill: #ffffff"/>
   </g>
   <g id="matplotlib.axis_1">
    <g id="xtick_1">
     <g id="line2d_1">
      <defs>
       <path id="me46843d0d3" d="M 0 0 
L 0 3.5 
" style="stroke: #000000; stroke-width: 0.8"/>
      </defs>
      <g>
       <use xlink:href="#me46843d0d3" x="314.682957" y="961.2" style="stroke: #000000; stroke-width: 0.8"/>
      </g>
     </g>
     <g id="text_1">
      <!-- 400 -->
      <g transform="translate(305.139207 975.798437) scale(0.1 -0.1)">
       <defs>
        <path id="DejaVuSans-34" d="M 2419 4116 
L 825 1625 
L 2419 1625 
L 2419 4116 
z
M 2253 4666 
L 3047 4666 
L 3047 1625 
L 3713 1625 
L 3713 1100 
L 3047 1100 
L 3047 0 
L 2419 0 
L 2419 1100 
L 313 1100 
L 313 1709 
L 2253 4666 
z
" transform="scale(0.015625)"/>
        <path id="DejaVuSans-30" d="M 2034 4250 
Q 1547 4250 1301 3770 
Q 1056 3291 1056 2328 
Q 1056 1369 1301 889 
Q 1547 409 2034 409 
Q 2525 409 2770 889 
Q 3016 1369 3016 2328 
Q 3016 3291 2770 3770 
Q 2525 4250 2034 4250 
z
M 2034 4750 
Q 2819 4750 3233 4129 
Q 3647 3509 3647 2328 
Q 3647 1150 3233 529 
Q 2819 -91 2034 -91 
Q 1250 -91 836 529 
Q 422 1150 422 2328 
Q 422 3509 836 4129 
Q 1250 4750 2034 4750 
z
" transform="scale(0.015625)"/>
       </defs>
       <use xlink:href="#DejaVuSans-34"/>
       <use xlink:href="#DejaVuSans-30" x="63.623047"/>
       <use xlink:href="#DejaVuSans-30" x="127.246094"/>
      </g>
     </g>
    </g>
    <g id="xtick_2">
     <g id="line2d_2">
      <g>
       <use xlink:href="#me46843d0d3" x="459.553299" y="961.2" style="stroke: #000000; stroke-width: 0.8"/>
      </g>
     </g>
     <g id="text_2">
      <!-- 500 -->
      <g transform="translate(450.009549 975.798437) scale(0.1 -0.1)">
       <defs>
        <path id="DejaVuSans-35" d="M 691 4666 
L 3169 4666 
L 3169 4134 
L 1269 4134 
L 1269 2991 
Q 1406 3038 1543 3061 
Q 1681 3084 1819 3084 
Q 2600 3084 3056 2656 
Q 3513 2228 3513 1497 
Q 3513 744 3044 326 
Q 2575 -91 1722 -91 
Q 1428 -91 1123 -41 
Q 819 9 494 109 
L 494 744 
Q 775 591 1075 516 
Q 1375 441 1709 441 
Q 2250 441 2565 725 
Q 2881 1009 2881 1497 
Q 2881 1984 2565 2268 
Q 2250 2553 1709 2553 
Q 1456 2553 1204 2497 
Q 953 2441 691 2322 
L 691 4666 
z
" transform="scale(0.015625)"/>
       </defs>
       <use xlink:href="#DejaVuSans-35"/>
       <use xlink:href="#DejaVuSans-30" x="63.623047"/>
       <use xlink:href="#DejaVuSans-30" x="127.246094"/>
      </g>
     </g>
    </g>
    <g id="xtick_3">
     <g id="line2d_3">
      <g>
       <use xlink:href="#me46843d0d3" x="604.423641" y="961.2" style="stroke: #000000; stroke-width: 0.8"/>
      </g>
     </g>
     <g id="text_3">
      <!-- 600 -->
      <g transform="translate(594.879891 975.798437) scale(0.1 -0.1)">
       <defs>
        <path id="DejaVuSans-36" d="M 2113 2584 
Q 1688 2584 1439 2293 
Q 1191 2003 1191 1497 
Q 1191 994 1439 701 
Q 1688 409 2113 409 
Q 2538 409 2786 701 
Q 3034 994 3034 1497 
Q 3034 2003 2786 2293 
Q 2538 2584 2113 2584 
z
M 3366 4563 
L 3366 3988 
Q 3128 4100 2886 4159 
Q 2644 4219 2406 4219 
Q 1781 4219 1451 3797 
Q 1122 3375 1075 2522 
Q 1259 2794 1537 2939 
Q 1816 3084 2150 3084 
Q 2853 3084 3261 2657 
Q 3669 2231 3669 1497 
Q 3669 778 3244 343 
Q 2819 -91 2113 -91 
Q 1303 -91 875 529 
Q 447 1150 447 2328 
Q 447 3434 972 4092 
Q 1497 4750 2381 4750 
Q 2619 4750 2861 4703 
Q 3103 4656 3366 4563 
z
" transform="scale(0.015625)"/>
       </defs>
       <use xlink:href="#DejaVuSans-36"/>
       <use xlink:href="#DejaVuSans-30" x="63.623047"/>
       <use xlink:href="#DejaVuSans-30" x="127.246094"/>
      </g>
     </g>
    </g>
    <g id="xtick_4">
     <g id="line2d_4">
      <g>
       <use xlink:href="#me46843d0d3" x="749.293982" y="961.2" style="stroke: #000000; stroke-width: 0.8"/>
      </g>
     </g>
     <g id="text_4">
      <!-- 700 -->
      <g transform="translate(739.750232 975.798437) scale(0.1 -0.1)">
       <defs>
        <path id="DejaVuSans-37" d="M 525 4666 
L 3525 4666 
L 3525 4397 
L 1831 0 
L 1172 0 
L 2766 4134 
L 525 4134 
L 525 4666 
z
" transform="scale(0.015625)"/>
       </defs>
       <use xlink:href="#DejaVuSans-37"/>
       <use xlink:href="#DejaVuSans-30" x="63.623047"/>
       <use xlink:href="#DejaVuSans-30" x="127.246094"/>
      </g>
     </g>
    </g>
    <g id="xtick_5">
     <g id="line2d_5">
      <g>
       <use xlink:href="#me46843d0d3" x="894.164324" y="961.2" style="stroke: #000000; stroke-width: 0.8"/>
      </g>
     </g>
     <g id="text_5">
      <!-- 800 -->
      <g transform="translate(884.620574 975.798437) scale(0.1 -0.1)">
       <defs>
        <path id="DejaVuSans-38" d="M 2034 2216 
Q 1584 2216 1326 1975 
Q 1069 1734 1069 1313 
Q 1069 891 1326 650 
Q 1584 409 2034 409 
Q 2484 409 2743 651 
Q 3003 894 3003 1313 
Q 3003 1734 2745 1975 
Q 2488 2216 2034 2216 
z
M 1403 2484 
Q 997 2584 770 2862 
Q 544 3141 544 3541 
Q 544 4100 942 4425 
Q 1341 4750 2034 4750 
Q 2731 4750 3128 4425 
Q 3525 4100 3525 3541 
Q 3525 3141 3298 2862 
Q 3072 2584 2669 2484 
Q 3125 2378 3379 2068 
Q 3634 1759 3634 1313 
Q 3634 634 3220 271 
Q 2806 -91 2034 -91 
Q 1263 -91 848 271 
Q 434 634 434 1313 
Q 434 1759 690 2068 
Q 947 2378 1403 2484 
z
M 1172 3481 
Q 1172 3119 1398 2916 
Q 1625 2713 2034 2713 
Q 2441 2713 2670 2916 
Q 2900 3119 2900 3481 
Q 2900 3844 2670 4047 
Q 2441 4250 2034 4250 
Q 1625 4250 1398 4047 
Q 1172 3844 1172 3481 
z
" transform="scale(0.015625)"/>
       </defs>
       <use xlink:href="#DejaVuSans-38"/>
       <use xlink:href="#DejaVuSans-30" x="63.623047"/>
       <use xlink:href="#DejaVuSans-30" x="127.246094"/>
      </g>
     </g>
    </g>
    <g id="xtick_6">
     <g id="line2d_6">
      <g>
       <use xlink:href="#me46843d0d3" x="1039.034666" y="961.2" style="stroke: #000000; stroke-width: 0.8"/>
      </g>
     </g>
     <g id="text_6">
      <!-- 900 -->
      <g transform="translate(1029.490916 975.798437) scale(0.1 -0.1)">
       <defs>
        <path id="DejaVuSans-39" d="M 703 97 
L 703 672 
Q 941 559 1184 500 
Q 1428 441 1663 441 
Q 2288 441 2617 861 
Q 2947 1281 2994 2138 
Q 2813 1869 2534 1725 
Q 2256 1581 1919 1581 
Q 1219 1581 811 2004 
Q 403 2428 403 3163 
Q 403 3881 828 4315 
Q 1253 4750 1959 4750 
Q 2769 4750 3195 4129 
Q 3622 3509 3622 2328 
Q 3622 1225 3098 567 
Q 2575 -91 1691 -91 
Q 1453 -91 1209 -44 
Q 966 3 703 97 
z
M 1959 2075 
Q 2384 2075 2632 2365 
Q 2881 2656 2881 3163 
Q 2881 3666 2632 3958 
Q 2384 4250 1959 4250 
Q 1534 4250 1286 3958 
Q 1038 3666 1038 3163 
Q 1038 2656 1286 2365 
Q 1534 2075 1959 2075 
z
" transform="scale(0.015625)"/>
       </defs>
       <use xlink:href="#DejaVuSans-39"/>
       <use xlink:href="#DejaVuSans-30" x="63.623047"/>
       <use xlink:href="#DejaVuSans-30" x="127.246094"/>
      </g>
     </g>
    </g>
    <g id="xtick_7">
     <g id="line2d_7">
      <g>
       <use xlink:href="#me46843d0d3" x="1183.905007" y="961.2" style="stroke: #000000; stroke-width: 0.8"/>
      </g>
     </g>
     <g id="text_7">
      <!-- 1000 -->
      <g transform="translate(1171.180007 975.798437) scale(0.1 -0.1)">
       <defs>
        <path id="DejaVuSans-31" d="M 794 531 
L 1825 531 
L 1825 4091 
L 703 3866 
L 703 4441 
L 1819 4666 
L 2450 4666 
L 2450 531 
L 3481 531 
L 3481 0 
L 794 0 
L 794 531 
z
" transform="scale(0.015625)"/>
       </defs>
       <use xlink:href="#DejaVuSans-31"/>
       <use xlink:href="#DejaVuSans-30" x="63.623047"/>
       <use xlink:href="#DejaVuSans-30" x="127.246094"/>
       <use xlink:href="#DejaVuSans-30" x="190.869141"/>
      </g>
     </g>
    </g>
   </g>
   <g id="matplotlib.axis_2">
    <g id="ytick_1">
     <g id="line2d_8">
      <defs>
       <path id="mab8ccfd475" d="M 0 0 
L -3.5 0 
" style="stroke: #000000; stroke-width: 0.8"/>
      </defs>
      <g>
       <use xlink:href="#mab8ccfd475" x="192.370365" y="941.397818" style="stroke: #000000; stroke-width: 0.8"/>
      </g>
     </g>
     <g id="text_8">
      <!-- 500 -->
      <g transform="translate(166.282865 945.197037) scale(0.1 -0.1)">
       <use xlink:href="#DejaVuSans-35"/>
       <use xlink:href="#DejaVuSans-30" x="63.623047"/>
       <use xlink:href="#DejaVuSans-30" x="127.246094"/>
      </g>
     </g>
    </g>
    <g id="ytick_2">
     <g id="line2d_9">
      <g>
       <use xlink:href="#mab8ccfd475" x="192.370365" y="796.527477" style="stroke: #000000; stroke-width: 0.8"/>
      </g>
     </g>
     <g id="text_9">
      <!-- 600 -->
      <g transform="translate(166.282865 800.326695) scale(0.1 -0.1)">
       <use xlink:href="#DejaVuSans-36"/>
       <use xlink:href="#DejaVuSans-30" x="63.623047"/>
       <use xlink:href="#DejaVuSans-30" x="127.246094"/>
      </g>
     </g>
    </g>
    <g id="ytick_3">
     <g id="line2d_10">
      <g>
       <use xlink:href="#mab8ccfd475" x="192.370365" y="651.657135" style="stroke: #000000; stroke-width: 0.8"/>
      </g>
     </g>
     <g id="text_10">
      <!-- 700 -->
      <g transform="translate(166.282865 655.456354) scale(0.1 -0.1)">
       <use xlink:href="#DejaVuSans-37"/>
       <use xlink:href="#DejaVuSans-30" x="63.623047"/>
       <use xlink:href="#DejaVuSans-30" x="127.246094"/>
      </g>
     </g>
    </g>
    <g id="ytick_4">
     <g id="line2d_11">
      <g>
       <use xlink:href="#mab8ccfd475" x="192.370365" y="506.786793" style="stroke: #000000; stroke-width: 0.8"/>
      </g>
     </g>
     <g id="text_11">
      <!-- 800 -->
      <g transform="translate(166.282865 510.586012) scale(0.1 -0.1)">
       <use xlink:href="#DejaVuSans-38"/>
       <use xlink:href="#DejaVuSans-30" x="63.623047"/>
       <use xlink:href="#DejaVuSans-30" x="127.246094"/>
      </g>
     </g>
    </g>
    <g id="ytick_5">
     <g id="line2d_12">
      <g>
       <use xlink:href="#mab8ccfd475" x="192.370365" y="361.916452" style="stroke: #000000; stroke-width: 0.8"/>
      </g>
     </g>
     <g id="text_12">
      <!-- 900 -->
      <g transform="translate(166.282865 365.71567) scale(0.1 -0.1)">
       <use xlink:href="#DejaVuSans-39"/>
       <use xlink:href="#DejaVuSans-30" x="63.623047"/>
       <use xlink:href="#DejaVuSans-30" x="127.246094"/>
      </g>
     </g>
    </g>
    <g id="ytick_6">
     <g id="line2d_13">
      <g>
       <use xlink:href="#mab8ccfd475" x="192.370365" y="217.04611" style="stroke: #000000; stroke-width: 0.8"/>
      </g>
     </g>
     <g id="text_13">
      <!-- 1000 -->
      <g transform="translate(159.920365 220.845329) scale(0.1 -0.1)">
       <use xlink:href="#DejaVuSans-31"/>
       <use xlink:href="#DejaVuSans-30" x="63.623047"/>
       <use xlink:href="#DejaVuSans-30" x="127.246094"/>
       <use xlink:href="#DejaVuSans-30" x="190.869141"/>
      </g>
     </g>
    </g>
   </g>
   <g id="LineCollection_1">
    <path d="M 278.461007 167.4 
L 266.041926 211.91676 
L 256.314616 252.363022 
L 249.148224 289.056157 
L 244.433624 322.32853 
L 242.224811 349.568642 
L 242.097381 352.526134 
L 241.97306 376.381865 
L 242.121647 379.99793 
L 243.934448 400.699207 
L 244.56631 405.064267 
L 248.171838 422.835808 
L 249.576014 427.949214 
L 254.833161 443.010126 
L 255.969554 445.893216 
L 257.33062 448.677294 
L 264.10186 461.240699 
L 265.870904 464.202353 
L 267.894019 466.996618 
L 276.045671 477.269327 
L 278.407594 479.979997 
L 281.008433 482.462345 
L 290.410892 490.64457 
L 293.133783 492.809065 
L 296.0382 494.723103 
L 306.566149 501.008196 
L 309.324783 502.508281 
L 312.194856 503.78225 
L 323.727443 508.356489 
L 328.84314 509.989024 
L 341.26414 513.031424 
L 345.624434 513.840604 
L 358.822376 515.522767 
L 362.397953 515.812667 
L 379.135311 516.293909 
L 395.845792 515.586534 
L 412.539836 513.927312 
L 429.21616 511.508058 
L 445.859829 508.49028 
L 462.444351 505.014493 
L 478.934706 501.205845 
L 495.290163 497.177441 
L 527.418011 488.864439 
L 558.602517 480.760297 
L 573.676188 476.991515 
L 588.345223 473.498542 
L 602.569563 470.336463 
L 616.311145 467.552618 
L 629.534241 465.186422 
L 642.205871 463.269138 
L 654.296377 461.823611 
L 665.78025 460.864037 
L 676.637277 460.395857 
L 686.85406 460.415929 
L 696.425882 460.913187 
L 705.358754 461.870019 
L 713.671321 463.264569 
L 721.396079 465.074005 
L 728.579281 467.278522 
L 735.278971 469.865457 
L 741.560989 472.83259 
L 747.493389 476.189644 
L 753.14035 479.957381 
L 758.556936 484.164395 
L 763.785818 488.842431 
L 768.856432 494.021434 
L 773.786277 499.725461 
L 778.583588 505.970085 
L 783.250514 512.761402 
L 787.786084 520.096344 
L 792.188583 527.963818 
L 796.457221 536.346246 
L 800.593141 545.221154 
L 804.59992 554.562621 
L 808.483715 564.342499 
L 812.253192 574.531368 
L 815.919334 585.099257 
L 819.495217 596.016174 
L 822.995779 607.252457 
L 826.437627 618.779013 
L 833.219136 642.590177 
L 850.633342 705.446212 
L 854.399909 718.38439 
L 858.331648 731.38473 
L 862.465662 744.424139 
L 866.843402 757.479241 
L 871.51166 770.525982 
L 876.523805 783.539036 
L 881.941268 796.490907 
L 887.835277 809.350511 
L 894.288739 822.080955 
L 901.398002 834.636112 
L 909.273895 846.955537 
L 918.04095 858.957368 
L 925.754592 868.224721 
L 927.83313 870.529463 
L 936.233874 879.132172 
L 938.784034 881.520309 
L 947.950916 889.366492 
L 951.010486 891.733485 
L 961.030254 898.72143 
L 964.591608 900.931398 
L 975.559445 906.94859 
L 979.551048 908.853271 
L 991.571343 913.775362 
L 995.854198 915.245875 
L 1009.04135 918.935602 
L 1013.42874 919.895443 
L 1027.908011 922.201477 
L 1032.203994 922.644251 
L 1048.112405 923.4 
L 1052.151909 923.383078 
L 1069.639175 922.405418 
L 1073.31244 922.025462 
L 1092.541955 919.113415 
L 1095.797842 918.478084 
L 1119.782117 912.618555 
L 1145.485397 904.283898 
L 1173.160151 893.267352 
L 1203.081858 879.319592 
L 1234.02694 862.995243 
L 1234.02694 862.995243 
" clip-path="url(#pc4c38869f3)" style="fill: none; stroke: #1f77b4; stroke-width: 1.5"/>
    <path d="M 316.131661 177.931118 
L 304.064709 221.095574 
L 294.693948 259.913482 
L 287.863948 294.630683 
L 283.420655 325.489862 
L 281.211842 352.729975 
L 281.087521 376.585706 
L 282.900322 397.286983 
L 286.505849 415.058524 
L 291.762996 430.119436 
L 298.534236 442.682841 
L 306.685887 452.95555 
L 316.088347 461.137775 
L 326.616295 467.422868 
L 338.148883 471.997107 
L 350.569882 475.039507 
L 363.767825 476.721669 
L 377.636108 477.207658 
L 392.073084 476.653909 
L 406.982123 475.209171 
L 422.271664 473.014467 
L 437.855233 470.203089 
L 453.651456 466.900616 
L 469.584045 463.224958 
L 485.581771 459.286416 
L 501.57842 455.187775 
L 517.512731 451.024407 
L 533.328327 446.884403 
L 548.973624 442.848713 
L 564.401731 438.991313 
L 579.570344 435.37938 
L 594.441617 432.073489 
L 608.982031 429.127812 
L 623.162259 426.590343 
L 636.957008 424.503124 
L 650.344869 422.902487 
L 663.308151 421.819296 
L 675.832711 421.279209 
L 687.907787 421.302932 
L 699.525815 421.90649 
L 710.68225 423.101496 
L 721.375389 424.895421 
L 731.606186 427.291868 
L 741.378065 430.290846 
L 750.696745 433.889046 
L 759.570056 438.080103 
L 768.007761 442.85487 
L 776.02138 448.201676 
L 783.624024 454.106583 
L 790.830225 460.553633 
L 797.655782 467.525092 
L 804.117602 475.001677 
L 810.233563 482.962776 
L 816.022371 491.386658 
L 821.503441 500.250668 
L 826.696776 509.531403 
L 831.622864 519.20488 
L 836.302587 529.246686 
L 840.75714 539.632102 
L 845.007969 550.336215 
L 849.076717 561.334013 
L 852.985193 572.600447 
L 856.755354 584.110479 
L 860.4093 595.839103 
L 863.9693 607.761342 
L 867.457824 619.852216 
L 870.897602 632.086684 
L 874.311704 644.439558 
L 877.72364 656.885383 
L 881.157486 669.398294 
L 884.638025 681.951826 
L 888.190928 694.518708 
L 891.842944 707.070606 
L 895.622129 719.577842 
L 899.558096 732.009067 
L 903.682291 744.330901 
L 908.028308 756.507529 
L 912.632223 768.50026 
L 917.532964 780.267041 
L 922.772712 791.761928 
L 928.397336 802.934513 
L 934.45686 813.729305 
L 941.005963 824.085065 
L 948.104516 833.934087 
L 955.818158 843.20144 
L 964.218902 851.80415 
L 973.385784 859.650333 
L 983.405552 866.638277 
L 994.373389 872.655469 
L 1006.393684 877.577561 
L 1019.580835 881.267288 
L 1034.060107 883.573323 
L 1049.968518 884.329071 
L 1067.455784 883.351411 
L 1086.685299 880.439365 
L 1107.835163 875.37271 
L 1131.09926 867.910533 
L 1156.688383 857.789704 
L 1184.8314 844.723301 
L 1215.776482 828.398952 
" clip-path="url(#pc4c38869f3)" style="fill: none; stroke: #8c564b; stroke-width: 1.5"/>
    <path d="M 353.802315 188.462236 
L 341.923507 230.953686 
L 332.912358 268.281919 
L 326.436798 301.197487 
L 322.309506 329.862005 
L 320.318584 354.414975 
L 320.211422 374.978074 
L 321.673511 391.674388 
L 324.311475 404.676838 
L 327.669128 414.295995 
L 331.325098 421.079308 
L 335.084145 425.816457 
L 339.134033 429.340758 
L 343.963707 432.224031 
L 350.068636 434.645466 
L 357.71845 436.519211 
L 366.932139 437.693555 
L 377.571355 438.066387 
L 389.43489 437.611346 
L 402.314448 436.363271 
L 416.018543 434.396146 
L 430.379262 431.805379 
L 445.251816 428.696015 
L 460.51178 425.175532 
L 476.052033 421.349617 
L 507.616023 413.182131 
L 539.485981 404.901812 
L 555.341047 400.940207 
L 571.082262 397.196465 
L 586.675253 393.737263 
L 602.092074 390.624421 
L 617.310557 387.915542 
L 632.313534 385.664731 
L 647.087835 383.923334 
L 661.622989 382.740621 
L 675.909558 382.164292 
L 689.937081 382.240615 
L 703.691732 383.013975 
L 717.1539 384.525592 
L 730.296165 386.811272 
L 743.082245 389.898249 
L 755.467585 393.80156 
L 767.40197 398.520725 
L 778.834084 404.037779 
L 789.717202 410.317464 
L 800.014743 417.309911 
L 809.704344 424.955261 
L 818.779626 433.189174 
L 827.249566 441.947943 
L 835.136069 451.172339 
L 842.470619 460.80979 
L 849.290852 470.815056 
L 855.637584 481.149806 
L 861.552563 491.781564 
L 867.076937 502.682431 
L 872.250348 513.827831 
L 877.110476 525.195427 
L 881.692902 536.764248 
L 886.031155 548.514025 
L 890.156875 560.424704 
L 894.100013 572.476089 
L 897.889062 584.647585 
L 901.551269 596.917991 
L 908.599143 621.666686 
L 925.790081 683.73407 
L 929.34425 695.949667 
L 932.990515 708.017003 
L 936.75204 719.897278 
L 940.651589 731.547938 
L 944.711238 742.922221 
L 948.951924 753.968778 
L 953.392814 764.631449 
L 958.05048 774.849373 
L 962.937927 784.55765 
L 968.063655 793.688925 
L 973.431182 802.17632 
L 979.039832 809.958147 
L 984.888208 816.984525 
L 990.98223 823.225056 
L 997.349459 828.67494 
L 1004.059459 833.3546 
L 1011.245458 837.296994 
L 1019.117228 840.52034 
L 1027.954224 842.992906 
L 1038.076452 844.605018 
L 1049.804442 845.162171 
L 1063.426783 844.400587 
L 1079.187217 842.013885 
L 1097.290489 837.677072 
L 1117.918262 831.06052 
L 1141.24643 821.833928 
L 1167.459101 809.663757 
L 1197.526024 793.80266 
L 1197.526024 793.80266 
" clip-path="url(#pc4c38869f3)" style="fill: none; stroke: #17becf; stroke-width: 1.5"/>
   </g>
   <g id="patch_3">
    <path d="M 192.370365 961.2 
L 192.370365 129.6 
" style="fill: none; stroke: #000000; stroke-width: 0.8; stroke-linejoin: miter; stroke-linecap: square"/>
   </g>
   <g id="patch_4">
    <path d="M 1283.629635 961.2 
L 1283.629635 129.6 
" style="fill: none; stroke: #000000; stroke-width: 0.8; stroke-linejoin: miter; stroke-linecap: square"/>
   </g>
   <g id="patch_5">
    <path d="M 192.370365 961.2 
L 1283.629635 961.2 
" style="fill: none; stroke: #000000; stroke-width: 0.8; stroke-linejoin: miter; stroke-linecap: square"/>
   </g>
   <g id="patch_6">
    <path d="M 192.370365 129.6 
L 1283.629635 129.6 
" style="fill: none; stroke: #000000; stroke-width: 0.8; stroke-linejoin: miter; stroke-linecap: square"/>
   </g>
  </g>
 </g>
 <defs>
  <clipPath id="pc4c38869f3">
   <rect x="192.370365" y="129.6" width="1091.259269" height="831.6"/>
  </clipPath>
 </defs>
</svg>
