<?xml version="1.0" encoding="utf-8" standalone="no"?>
<!DOCTYPE svg PUBLIC "-//W3C//DTD SVG 1.1//EN"
  "http://www.w3.org/Graphics/SVG/1.1/DTD/svg11.dtd">
<svg xmlns:xlink="http://www.w3.org/1999/xlink" width="1440pt" height="1080pt" viewBox="0 0 1440 1080" xmlns="http://www.w3.org/2000/svg" version="1.1">
 <metadata>
  <rdf:RDF xmlns:dc="http://purl.org/dc/elements/1.1/" xmlns:cc="http://creativecommons.org/ns#" xmlns:rdf="http://www.w3.org/1999/02/22-rdf-syntax-ns#">
   <cc:Work>
    <dc:type rdf:resource="http://purl.org/dc/dcmitype/StillImage"/>
    <dc:date>2023-12-11T12:06:48.550363</dc:date>
    <dc:format>image/svg+xml</dc:format>
    <dc:creator>
     <cc:Agent>
      <dc:title>Matplotlib v3.7.1, https://matplotlib.org/</dc:title>
     </cc:Agent>
    </dc:creator>
   </cc:Work>
  </rdf:RDF>
 </metadata>
 <defs>
  <style type="text/css">*{stroke-linejoin: round; stroke-linecap: butt}</style>
 </defs>
 <g id="figure_1">
  <g id="patch_1">
   <path d="M 0 1080 
L 1440 1080 
L 1440 0 
L 0 0 
z
" style="fill: #ffffff"/>
  </g>
  <g id="axes_1">
   <g id="patch_2">
    <path d="M 180 907.268034 
L 1296 907.268034 
L 1296 183.531966 
L 180 183.531966 
z
" style="fill: #ffffff"/>
   </g>
   <g id="matplotlib.axis_1">
    <g id="xtick_1">
     <g id="line2d_1">
      <defs>
       <path id="m7475f1047f" d="M 0 0 
L 0 3.5 
" style="stroke: #000000; stroke-width: 0.8"/>
      </defs>
      <g>
       <use xlink:href="#m7475f1047f" x="259.035606" y="907.268034" style="stroke: #000000; stroke-width: 0.8"/>
      </g>
     </g>
     <g id="text_1">
      <!-- 300 -->
      <g transform="translate(249.491856 921.866471) scale(0.1 -0.1)">
       <defs>
        <path id="DejaVuSans-33" d="M 2597 2516 
Q 3050 2419 3304 2112 
Q 3559 1806 3559 1356 
Q 3559 666 3084 287 
Q 2609 -91 1734 -91 
Q 1441 -91 1130 -33 
Q 819 25 488 141 
L 488 750 
Q 750 597 1062 519 
Q 1375 441 1716 441 
Q 2309 441 2620 675 
Q 2931 909 2931 1356 
Q 2931 1769 2642 2001 
Q 2353 2234 1838 2234 
L 1294 2234 
L 1294 2753 
L 1863 2753 
Q 2328 2753 2575 2939 
Q 2822 3125 2822 3475 
Q 2822 3834 2567 4026 
Q 2313 4219 1838 4219 
Q 1578 4219 1281 4162 
Q 984 4106 628 3988 
L 628 4550 
Q 988 4650 1302 4700 
Q 1616 4750 1894 4750 
Q 2613 4750 3031 4423 
Q 3450 4097 3450 3541 
Q 3450 3153 3228 2886 
Q 3006 2619 2597 2516 
z
" transform="scale(0.015625)"/>
        <path id="DejaVuSans-30" d="M 2034 4250 
Q 1547 4250 1301 3770 
Q 1056 3291 1056 2328 
Q 1056 1369 1301 889 
Q 1547 409 2034 409 
Q 2525 409 2770 889 
Q 3016 1369 3016 2328 
Q 3016 3291 2770 3770 
Q 2525 4250 2034 4250 
z
M 2034 4750 
Q 2819 4750 3233 4129 
Q 3647 3509 3647 2328 
Q 3647 1150 3233 529 
Q 2819 -91 2034 -91 
Q 1250 -91 836 529 
Q 422 1150 422 2328 
Q 422 3509 836 4129 
Q 1250 4750 2034 4750 
z
" transform="scale(0.015625)"/>
       </defs>
       <use xlink:href="#DejaVuSans-33"/>
       <use xlink:href="#DejaVuSans-30" x="63.623047"/>
       <use xlink:href="#DejaVuSans-30" x="127.246094"/>
      </g>
     </g>
    </g>
    <g id="xtick_2">
     <g id="line2d_2">
      <g>
       <use xlink:href="#m7475f1047f" x="385.819308" y="907.268034" style="stroke: #000000; stroke-width: 0.8"/>
      </g>
     </g>
     <g id="text_2">
      <!-- 400 -->
      <g transform="translate(376.275558 921.866471) scale(0.1 -0.1)">
       <defs>
        <path id="DejaVuSans-34" d="M 2419 4116 
L 825 1625 
L 2419 1625 
L 2419 4116 
z
M 2253 4666 
L 3047 4666 
L 3047 1625 
L 3713 1625 
L 3713 1100 
L 3047 1100 
L 3047 0 
L 2419 0 
L 2419 1100 
L 313 1100 
L 313 1709 
L 2253 4666 
z
" transform="scale(0.015625)"/>
       </defs>
       <use xlink:href="#DejaVuSans-34"/>
       <use xlink:href="#DejaVuSans-30" x="63.623047"/>
       <use xlink:href="#DejaVuSans-30" x="127.246094"/>
      </g>
     </g>
    </g>
    <g id="xtick_3">
     <g id="line2d_3">
      <g>
       <use xlink:href="#m7475f1047f" x="512.603011" y="907.268034" style="stroke: #000000; stroke-width: 0.8"/>
      </g>
     </g>
     <g id="text_3">
      <!-- 500 -->
      <g transform="translate(503.059261 921.866471) scale(0.1 -0.1)">
       <defs>
        <path id="DejaVuSans-35" d="M 691 4666 
L 3169 4666 
L 3169 4134 
L 1269 4134 
L 1269 2991 
Q 1406 3038 1543 3061 
Q 1681 3084 1819 3084 
Q 2600 3084 3056 2656 
Q 3513 2228 3513 1497 
Q 3513 744 3044 326 
Q 2575 -91 1722 -91 
Q 1428 -91 1123 -41 
Q 819 9 494 109 
L 494 744 
Q 775 591 1075 516 
Q 1375 441 1709 441 
Q 2250 441 2565 725 
Q 2881 1009 2881 1497 
Q 2881 1984 2565 2268 
Q 2250 2553 1709 2553 
Q 1456 2553 1204 2497 
Q 953 2441 691 2322 
L 691 4666 
z
" transform="scale(0.015625)"/>
       </defs>
       <use xlink:href="#DejaVuSans-35"/>
       <use xlink:href="#DejaVuSans-30" x="63.623047"/>
       <use xlink:href="#DejaVuSans-30" x="127.246094"/>
      </g>
     </g>
    </g>
    <g id="xtick_4">
     <g id="line2d_4">
      <g>
       <use xlink:href="#m7475f1047f" x="639.386713" y="907.268034" style="stroke: #000000; stroke-width: 0.8"/>
      </g>
     </g>
     <g id="text_4">
      <!-- 600 -->
      <g transform="translate(629.842963 921.866471) scale(0.1 -0.1)">
       <defs>
        <path id="DejaVuSans-36" d="M 2113 2584 
Q 1688 2584 1439 2293 
Q 1191 2003 1191 1497 
Q 1191 994 1439 701 
Q 1688 409 2113 409 
Q 2538 409 2786 701 
Q 3034 994 3034 1497 
Q 3034 2003 2786 2293 
Q 2538 2584 2113 2584 
z
M 3366 4563 
L 3366 3988 
Q 3128 4100 2886 4159 
Q 2644 4219 2406 4219 
Q 1781 4219 1451 3797 
Q 1122 3375 1075 2522 
Q 1259 2794 1537 2939 
Q 1816 3084 2150 3084 
Q 2853 3084 3261 2657 
Q 3669 2231 3669 1497 
Q 3669 778 3244 343 
Q 2819 -91 2113 -91 
Q 1303 -91 875 529 
Q 447 1150 447 2328 
Q 447 3434 972 4092 
Q 1497 4750 2381 4750 
Q 2619 4750 2861 4703 
Q 3103 4656 3366 4563 
z
" transform="scale(0.015625)"/>
       </defs>
       <use xlink:href="#DejaVuSans-36"/>
       <use xlink:href="#DejaVuSans-30" x="63.623047"/>
       <use xlink:href="#DejaVuSans-30" x="127.246094"/>
      </g>
     </g>
    </g>
    <g id="xtick_5">
     <g id="line2d_5">
      <g>
       <use xlink:href="#m7475f1047f" x="766.170415" y="907.268034" style="stroke: #000000; stroke-width: 0.8"/>
      </g>
     </g>
     <g id="text_5">
      <!-- 700 -->
      <g transform="translate(756.626665 921.866471) scale(0.1 -0.1)">
       <defs>
        <path id="DejaVuSans-37" d="M 525 4666 
L 3525 4666 
L 3525 4397 
L 1831 0 
L 1172 0 
L 2766 4134 
L 525 4134 
L 525 4666 
z
" transform="scale(0.015625)"/>
       </defs>
       <use xlink:href="#DejaVuSans-37"/>
       <use xlink:href="#DejaVuSans-30" x="63.623047"/>
       <use xlink:href="#DejaVuSans-30" x="127.246094"/>
      </g>
     </g>
    </g>
    <g id="xtick_6">
     <g id="line2d_6">
      <g>
       <use xlink:href="#m7475f1047f" x="892.954118" y="907.268034" style="stroke: #000000; stroke-width: 0.8"/>
      </g>
     </g>
     <g id="text_6">
      <!-- 800 -->
      <g transform="translate(883.410368 921.866471) scale(0.1 -0.1)">
       <defs>
        <path id="DejaVuSans-38" d="M 2034 2216 
Q 1584 2216 1326 1975 
Q 1069 1734 1069 1313 
Q 1069 891 1326 650 
Q 1584 409 2034 409 
Q 2484 409 2743 651 
Q 3003 894 3003 1313 
Q 3003 1734 2745 1975 
Q 2488 2216 2034 2216 
z
M 1403 2484 
Q 997 2584 770 2862 
Q 544 3141 544 3541 
Q 544 4100 942 4425 
Q 1341 4750 2034 4750 
Q 2731 4750 3128 4425 
Q 3525 4100 3525 3541 
Q 3525 3141 3298 2862 
Q 3072 2584 2669 2484 
Q 3125 2378 3379 2068 
Q 3634 1759 3634 1313 
Q 3634 634 3220 271 
Q 2806 -91 2034 -91 
Q 1263 -91 848 271 
Q 434 634 434 1313 
Q 434 1759 690 2068 
Q 947 2378 1403 2484 
z
M 1172 3481 
Q 1172 3119 1398 2916 
Q 1625 2713 2034 2713 
Q 2441 2713 2670 2916 
Q 2900 3119 2900 3481 
Q 2900 3844 2670 4047 
Q 2441 4250 2034 4250 
Q 1625 4250 1398 4047 
Q 1172 3844 1172 3481 
z
" transform="scale(0.015625)"/>
       </defs>
       <use xlink:href="#DejaVuSans-38"/>
       <use xlink:href="#DejaVuSans-30" x="63.623047"/>
       <use xlink:href="#DejaVuSans-30" x="127.246094"/>
      </g>
     </g>
    </g>
    <g id="xtick_7">
     <g id="line2d_7">
      <g>
       <use xlink:href="#m7475f1047f" x="1019.73782" y="907.268034" style="stroke: #000000; stroke-width: 0.8"/>
      </g>
     </g>
     <g id="text_7">
      <!-- 900 -->
      <g transform="translate(1010.19407 921.866471) scale(0.1 -0.1)">
       <defs>
        <path id="DejaVuSans-39" d="M 703 97 
L 703 672 
Q 941 559 1184 500 
Q 1428 441 1663 441 
Q 2288 441 2617 861 
Q 2947 1281 2994 2138 
Q 2813 1869 2534 1725 
Q 2256 1581 1919 1581 
Q 1219 1581 811 2004 
Q 403 2428 403 3163 
Q 403 3881 828 4315 
Q 1253 4750 1959 4750 
Q 2769 4750 3195 4129 
Q 3622 3509 3622 2328 
Q 3622 1225 3098 567 
Q 2575 -91 1691 -91 
Q 1453 -91 1209 -44 
Q 966 3 703 97 
z
M 1959 2075 
Q 2384 2075 2632 2365 
Q 2881 2656 2881 3163 
Q 2881 3666 2632 3958 
Q 2384 4250 1959 4250 
Q 1534 4250 1286 3958 
Q 1038 3666 1038 3163 
Q 1038 2656 1286 2365 
Q 1534 2075 1959 2075 
z
" transform="scale(0.015625)"/>
       </defs>
       <use xlink:href="#DejaVuSans-39"/>
       <use xlink:href="#DejaVuSans-30" x="63.623047"/>
       <use xlink:href="#DejaVuSans-30" x="127.246094"/>
      </g>
     </g>
    </g>
    <g id="xtick_8">
     <g id="line2d_8">
      <g>
       <use xlink:href="#m7475f1047f" x="1146.521523" y="907.268034" style="stroke: #000000; stroke-width: 0.8"/>
      </g>
     </g>
     <g id="text_8">
      <!-- 1000 -->
      <g transform="translate(1133.796523 921.866471) scale(0.1 -0.1)">
       <defs>
        <path id="DejaVuSans-31" d="M 794 531 
L 1825 531 
L 1825 4091 
L 703 3866 
L 703 4441 
L 1819 4666 
L 2450 4666 
L 2450 531 
L 3481 531 
L 3481 0 
L 794 0 
L 794 531 
z
" transform="scale(0.015625)"/>
       </defs>
       <use xlink:href="#DejaVuSans-31"/>
       <use xlink:href="#DejaVuSans-30" x="63.623047"/>
       <use xlink:href="#DejaVuSans-30" x="127.246094"/>
       <use xlink:href="#DejaVuSans-30" x="190.869141"/>
      </g>
     </g>
    </g>
    <g id="xtick_9">
     <g id="line2d_9">
      <g>
       <use xlink:href="#m7475f1047f" x="1273.305225" y="907.268034" style="stroke: #000000; stroke-width: 0.8"/>
      </g>
     </g>
     <g id="text_9">
      <!-- 1100 -->
      <g transform="translate(1260.580225 921.866471) scale(0.1 -0.1)">
       <use xlink:href="#DejaVuSans-31"/>
       <use xlink:href="#DejaVuSans-31" x="63.623047"/>
       <use xlink:href="#DejaVuSans-30" x="127.246094"/>
       <use xlink:href="#DejaVuSans-30" x="190.869141"/>
      </g>
     </g>
    </g>
   </g>
   <g id="matplotlib.axis_2">
    <g id="ytick_1">
     <g id="line2d_10">
      <defs>
       <path id="mc7c239b15e" d="M 0 0 
L -3.5 0 
" style="stroke: #000000; stroke-width: 0.8"/>
      </defs>
      <g>
       <use xlink:href="#mc7c239b15e" x="180" y="845.973105" style="stroke: #000000; stroke-width: 0.8"/>
      </g>
     </g>
     <g id="text_10">
      <!-- 300 -->
      <g transform="translate(153.9125 849.772324) scale(0.1 -0.1)">
       <use xlink:href="#DejaVuSans-33"/>
       <use xlink:href="#DejaVuSans-30" x="63.623047"/>
       <use xlink:href="#DejaVuSans-30" x="127.246094"/>
      </g>
     </g>
    </g>
    <g id="ytick_2">
     <g id="line2d_11">
      <g>
       <use xlink:href="#mc7c239b15e" x="180" y="719.189403" style="stroke: #000000; stroke-width: 0.8"/>
      </g>
     </g>
     <g id="text_11">
      <!-- 400 -->
      <g transform="translate(153.9125 722.988621) scale(0.1 -0.1)">
       <use xlink:href="#DejaVuSans-34"/>
       <use xlink:href="#DejaVuSans-30" x="63.623047"/>
       <use xlink:href="#DejaVuSans-30" x="127.246094"/>
      </g>
     </g>
    </g>
    <g id="ytick_3">
     <g id="line2d_12">
      <g>
       <use xlink:href="#mc7c239b15e" x="180" y="592.4057" style="stroke: #000000; stroke-width: 0.8"/>
      </g>
     </g>
     <g id="text_12">
      <!-- 500 -->
      <g transform="translate(153.9125 596.204919) scale(0.1 -0.1)">
       <use xlink:href="#DejaVuSans-35"/>
       <use xlink:href="#DejaVuSans-30" x="63.623047"/>
       <use xlink:href="#DejaVuSans-30" x="127.246094"/>
      </g>
     </g>
    </g>
    <g id="ytick_4">
     <g id="line2d_13">
      <g>
       <use xlink:href="#mc7c239b15e" x="180" y="465.621998" style="stroke: #000000; stroke-width: 0.8"/>
      </g>
     </g>
     <g id="text_13">
      <!-- 600 -->
      <g transform="translate(153.9125 469.421216) scale(0.1 -0.1)">
       <use xlink:href="#DejaVuSans-36"/>
       <use xlink:href="#DejaVuSans-30" x="63.623047"/>
       <use xlink:href="#DejaVuSans-30" x="127.246094"/>
      </g>
     </g>
    </g>
    <g id="ytick_5">
     <g id="line2d_14">
      <g>
       <use xlink:href="#mc7c239b15e" x="180" y="338.838295" style="stroke: #000000; stroke-width: 0.8"/>
      </g>
     </g>
     <g id="text_14">
      <!-- 700 -->
      <g transform="translate(153.9125 342.637514) scale(0.1 -0.1)">
       <use xlink:href="#DejaVuSans-37"/>
       <use xlink:href="#DejaVuSans-30" x="63.623047"/>
       <use xlink:href="#DejaVuSans-30" x="127.246094"/>
      </g>
     </g>
    </g>
    <g id="ytick_6">
     <g id="line2d_15">
      <g>
       <use xlink:href="#mc7c239b15e" x="180" y="212.054593" style="stroke: #000000; stroke-width: 0.8"/>
      </g>
     </g>
     <g id="text_15">
      <!-- 800 -->
      <g transform="translate(153.9125 215.853811) scale(0.1 -0.1)">
       <use xlink:href="#DejaVuSans-38"/>
       <use xlink:href="#DejaVuSans-30" x="63.623047"/>
       <use xlink:href="#DejaVuSans-30" x="127.246094"/>
      </g>
     </g>
    </g>
   </g>
   <g id="LineCollection_1">
    <path d="M 1220.196154 675.596308 
L 1174.869372 701.264806 
L 1153.183436 713.334496 
L 1132.133294 724.863381 
L 1111.714089 735.827534 
L 1091.920945 746.205574 
L 1072.749078 755.978481 
L 1054.193914 765.129441 
L 1036.25119 773.643724 
L 1018.917061 781.508605 
L 1002.188182 788.713319 
L 986.061782 795.249066 
L 970.535708 801.109072 
L 955.608419 806.288698 
L 941.278925 810.785611 
L 927.546631 814.600018 
L 914.41104 817.734929 
L 901.871298 820.196454 
L 889.925501 821.994054 
L 878.569759 823.140677 
L 867.796998 823.652656 
L 857.595571 823.54922 
L 847.947839 822.851474 
L 838.829017 821.580747 
L 830.206655 819.756384 
L 822.041159 817.393228 
L 814.287595 814.499321 
L 806.898685 811.074439 
L 799.828505 807.110007 
L 793.03609 802.590559 
L 786.488133 797.496464 
L 780.160262 791.807268 
L 774.036812 785.504861 
L 768.109452 778.575917 
L 762.375187 771.013339 
L 756.834241 762.816746 
L 751.488201 753.992263 
L 746.338565 744.551873 
L 741.385744 734.512589 
L 736.628451 723.895625 
L 732.063382 712.725654 
L 727.685108 701.030187 
L 723.486091 688.839098 
L 719.456779 676.184257 
L 715.58573 663.09926 
L 711.859746 649.619236 
L 708.264014 635.780691 
L 704.782225 621.621398 
L 701.396683 607.18029 
L 694.837205 577.613619 
L 675.23627 486.375338 
L 671.720582 471.25806 
L 668.060876 456.284891 
L 664.227012 441.498558 
L 660.187485 426.941024 
L 655.909238 412.653333 
L 651.357434 398.675531 
L 646.495212 385.04673 
L 641.283446 371.805389 
L 635.680621 358.989894 
L 629.64295 346.639533 
L 623.125005 334.795916 
L 616.081167 323.504765 
L 608.468295 312.81777 
L 600.249831 302.793868 
L 591.401178 293.498929 
L 581.915391 285.002753 
L 571.807381 277.372813 
L 561.114531 270.665496 
L 549.892504 264.917098 
L 538.207024 260.137515 
L 526.124357 256.308582 
L 513.703723 253.386903 
L 500.993634 251.309241 
L 488.03229 249.998094 
L 474.850786 249.365819 
L 461.477598 249.316786 
L 447.943192 249.747845 
L 434.284182 250.547719 
L 420.546932 251.595972 
L 392.93662 253.916307 
L 379.23504 254.889909 
L 365.776019 255.520706 
L 352.689069 255.640406 
L 340.122717 255.083502 
L 328.234442 253.697334 
L 317.165555 251.350322 
L 306.995718 247.924484 
L 297.689254 243.268565 
L 289.081911 237.101976 
L 280.966949 228.922232 
L 272.129894 216.42906 
L 272.129894 216.42906 
" clip-path="url(#p9e2b1c3d6e)" style="fill: none; stroke: #1f77b4; stroke-width: 1.5"/>
    <path d="M 1232.734441 697.636173 
L 1209.690183 710.74585 
L 1187.260363 723.387923 
L 1165.439491 735.532714 
L 1144.221433 747.153564 
L 1123.599517 758.226563 
L 1103.566619 768.730312 
L 1084.115251 778.645696 
L 1065.237631 787.955683 
L 1046.925749 796.645141 
L 1029.171425 804.700674 
L 1011.966355 812.110471 
L 995.302151 818.864181 
L 979.170379 824.952795 
L 963.562582 830.368551 
L 948.4703 835.104845 
L 933.885085 839.156166 
L 919.79851 842.518037 
L 906.202167 845.18697 
L 893.087671 847.160436 
L 880.446644 848.436838 
L 868.270712 849.015503 
L 856.551482 848.896678 
L 845.280523 848.081536 
L 834.449348 846.572189 
L 824.04938 844.371711 
L 814.071928 841.484162 
L 804.508156 837.91462 
L 795.349045 833.669221 
L 786.585363 828.755199 
L 778.207626 823.18093 
L 770.206061 816.955975 
L 762.570568 810.091137 
L 755.290685 802.5985 
L 748.355546 794.491486 
L 741.753845 785.7849 
L 735.473802 776.494976 
L 729.503122 766.639426 
L 723.828967 756.237481 
L 718.437923 745.309925 
L 713.315967 733.879134 
L 708.448442 721.969105 
L 703.820035 709.605472 
L 699.414754 696.815531 
L 695.215911 683.628242 
L 691.206108 670.074229 
L 687.367232 656.185776 
L 683.680447 641.996804 
L 680.126198 627.542842 
L 676.684215 612.860987 
L 673.33353 597.98985 
L 670.052489 582.969492 
L 666.818783 567.841345 
L 663.609476 552.648112 
L 660.401045 537.433668 
L 657.16943 522.242924 
L 653.890082 507.121695 
L 650.538032 492.116534 
L 647.08796 477.274557 
L 643.514275 462.643246 
L 639.791205 448.270233 
L 635.892896 434.203064 
L 631.793525 420.488938 
L 627.467415 407.17443 
L 622.889168 394.305184 
L 618.033806 381.925591 
L 612.876925 370.078435 
L 607.394861 358.804516 
L 601.564864 348.14225 
L 595.36529 338.127238 
L 588.775803 328.791813 
L 581.777589 320.16455 
L 574.35359 312.269759 
L 566.488742 305.126937 
L 558.170234 298.750196 
L 549.387782 293.147659 
L 540.133916 288.32082 
L 530.404278 284.263879 
L 520.197946 280.963033 
L 509.517766 278.395742 
L 498.370699 276.529957 
L 486.768196 275.323306 
L 474.726575 274.722255 
L 462.267427 274.661222 
L 449.418034 275.061658 
L 436.211808 275.831084 
L 422.688747 276.862094 
L 408.895911 278.031315 
L 394.887915 279.198328 
L 380.727444 280.204538 
L 366.485787 280.872015 
L 352.243391 281.002284 
L 338.090437 280.375066 
L 324.127434 278.746986 
L 310.465839 275.850223 
L 297.228693 271.391124 
L 284.551285 265.04876 
L 272.581833 256.473444 
L 261.482193 245.285194 
L 251.428583 231.072148 
" clip-path="url(#p9e2b1c3d6e)" style="fill: none; stroke: #8c564b; stroke-width: 1.5"/>
    <path d="M 1245.272727 719.676038 
L 1199.591816 745.544176 
L 1177.619863 757.772382 
L 1156.216925 769.493493 
L 1135.374305 780.683603 
L 1115.082411 791.321258 
L 1095.330808 801.38719 
L 1076.108247 810.864065 
L 1057.402688 819.736223 
L 1039.201311 827.98942 
L 1021.490531 835.610563 
L 1004.256017 842.587431 
L 987.48273 848.908361 
L 971.155001 854.561927 
L 955.256677 859.536573 
L 939.771356 863.82023 
L 924.682772 867.399923 
L 909.975361 870.261405 
L 895.635063 872.388894 
L 881.650373 873.764991 
L 868.013625 874.37094 
L 854.7224 874.187363 
L 841.780827 873.195604 
L 829.200446 871.379715 
L 817.00022 868.728921 
L 805.205336 865.240168 
L 793.844707 860.920166 
L 782.947439 855.786284 
L 772.538975 849.865937 
L 762.637733 843.194493 
L 753.252991 835.812214 
L 744.384304 827.761001 
L 736.022297 819.081628 
L 728.15037 809.811902 
L 720.746749 799.985822 
L 713.786451 789.633587 
L 707.242881 778.782159 
L 701.088989 767.456113 
L 695.298005 755.678556 
L 689.843826 743.471992 
L 684.701166 730.859052 
L 679.845546 717.863084 
L 675.253192 704.508592 
L 670.900888 690.821569 
L 666.76582 676.829715 
L 662.825419 662.562587 
L 659.057232 648.051687 
L 655.438806 633.3305 
L 651.9476 618.434509 
L 645.255911 588.269867 
L 625.81507 497.751366 
L 622.421762 483.153587 
L 618.923476 468.830971 
L 615.298257 454.835717 
L 611.525231 441.220633 
L 607.584977 428.03882 
L 603.459967 415.343241 
L 599.135063 403.186131 
L 594.598039 391.618197 
L 589.840077 380.687495 
L 584.856109 370.437916 
L 579.644821 360.907184 
L 574.208021 352.124384 
L 568.549015 344.107186 
L 562.669668 336.85924 
L 556.56608 330.368594 
L 550.223423 324.60822 
L 543.611317 319.53956 
L 536.681774 315.119038 
L 529.371483 311.305973 
L 521.608743 308.069164 
L 513.323211 305.389527 
L 504.455372 303.257885 
L 494.962957 301.669053 
L 484.823278 300.614534 
L 474.032072 300.075898 
L 462.600344 300.019898 
L 450.550576 300.395414 
L 437.913178 301.131699 
L 424.723504 302.137291 
L 396.685174 304.491294 
L 381.91456 305.533474 
L 366.717704 306.227695 
L 351.120756 306.334161 
L 335.153747 305.561176 
L 318.867805 303.552239 
L 305.206209 300.655476 
L 302.371046 299.880176 
L 289.133901 295.421076 
L 285.883577 294.068263 
L 271.454184 286.761204 
L 269.78368 285.661429 
L 256.139729 275.77685 
L 254.580769 274.331943 
L 242.064336 261.591976 
L 240.780882 259.928282 
L 230.727273 245.715236 
L 230.727273 245.715236 
" clip-path="url(#p9e2b1c3d6e)" style="fill: none; stroke: #17becf; stroke-width: 1.5"/>
   </g>
   <g id="patch_3">
    <path d="M 180 907.268034 
L 180 183.531966 
" style="fill: none; stroke: #000000; stroke-width: 0.8; stroke-linejoin: miter; stroke-linecap: square"/>
   </g>
   <g id="patch_4">
    <path d="M 1296 907.268034 
L 1296 183.531966 
" style="fill: none; stroke: #000000; stroke-width: 0.8; stroke-linejoin: miter; stroke-linecap: square"/>
   </g>
   <g id="patch_5">
    <path d="M 180 907.268034 
L 1296 907.268034 
" style="fill: none; stroke: #000000; stroke-width: 0.8; stroke-linejoin: miter; stroke-linecap: square"/>
   </g>
   <g id="patch_6">
    <path d="M 180 183.531966 
L 1296 183.531966 
" style="fill: none; stroke: #000000; stroke-width: 0.8; stroke-linejoin: miter; stroke-linecap: square"/>
   </g>
  </g>
 </g>
 <defs>
  <clipPath id="p9e2b1c3d6e">
   <rect x="180" y="183.531966" width="1116" height="723.736068"/>
  </clipPath>
 </defs>
</svg>
