<?xml version="1.0" encoding="utf-8" standalone="no"?>
<!DOCTYPE svg PUBLIC "-//W3C//DTD SVG 1.1//EN"
  "http://www.w3.org/Graphics/SVG/1.1/DTD/svg11.dtd">
<svg xmlns:xlink="http://www.w3.org/1999/xlink" width="1440pt" height="1080pt" viewBox="0 0 1440 1080" xmlns="http://www.w3.org/2000/svg" version="1.1">
 <metadata>
  <rdf:RDF xmlns:dc="http://purl.org/dc/elements/1.1/" xmlns:cc="http://creativecommons.org/ns#" xmlns:rdf="http://www.w3.org/1999/02/22-rdf-syntax-ns#">
   <cc:Work>
    <dc:type rdf:resource="http://purl.org/dc/dcmitype/StillImage"/>
    <dc:date>2023-12-11T12:06:39.156632</dc:date>
    <dc:format>image/svg+xml</dc:format>
    <dc:creator>
     <cc:Agent>
      <dc:title>Matplotlib v3.7.1, https://matplotlib.org/</dc:title>
     </cc:Agent>
    </dc:creator>
   </cc:Work>
  </rdf:RDF>
 </metadata>
 <defs>
  <style type="text/css">*{stroke-linejoin: round; stroke-linecap: butt}</style>
 </defs>
 <g id="figure_1">
  <g id="patch_1">
   <path d="M 0 1080 
L 1440 1080 
L 1440 0 
L 0 0 
z
" style="fill: #ffffff"/>
  </g>
  <g id="axes_1">
   <g id="patch_2">
    <path d="M 421.962584 961.2 
L 1054.037416 961.2 
L 1054.037416 129.6 
L 421.962584 129.6 
z
" style="fill: #ffffff"/>
   </g>
   <g id="matplotlib.axis_1">
    <g id="xtick_1">
     <g id="line2d_1">
      <defs>
       <path id="m51b5ba5557" d="M 0 0 
L 0 3.5 
" style="stroke: #000000; stroke-width: 0.8"/>
      </defs>
      <g>
       <use xlink:href="#m51b5ba5557" x="435.205285" y="961.2" style="stroke: #000000; stroke-width: 0.8"/>
      </g>
     </g>
     <g id="text_1">
      <!-- 1250 -->
      <g transform="translate(422.480285 975.798437) scale(0.1 -0.1)">
       <defs>
        <path id="DejaVuSans-31" d="M 794 531 
L 1825 531 
L 1825 4091 
L 703 3866 
L 703 4441 
L 1819 4666 
L 2450 4666 
L 2450 531 
L 3481 531 
L 3481 0 
L 794 0 
L 794 531 
z
" transform="scale(0.015625)"/>
        <path id="DejaVuSans-32" d="M 1228 531 
L 3431 531 
L 3431 0 
L 469 0 
L 469 531 
Q 828 903 1448 1529 
Q 2069 2156 2228 2338 
Q 2531 2678 2651 2914 
Q 2772 3150 2772 3378 
Q 2772 3750 2511 3984 
Q 2250 4219 1831 4219 
Q 1534 4219 1204 4116 
Q 875 4013 500 3803 
L 500 4441 
Q 881 4594 1212 4672 
Q 1544 4750 1819 4750 
Q 2544 4750 2975 4387 
Q 3406 4025 3406 3419 
Q 3406 3131 3298 2873 
Q 3191 2616 2906 2266 
Q 2828 2175 2409 1742 
Q 1991 1309 1228 531 
z
" transform="scale(0.015625)"/>
        <path id="DejaVuSans-35" d="M 691 4666 
L 3169 4666 
L 3169 4134 
L 1269 4134 
L 1269 2991 
Q 1406 3038 1543 3061 
Q 1681 3084 1819 3084 
Q 2600 3084 3056 2656 
Q 3513 2228 3513 1497 
Q 3513 744 3044 326 
Q 2575 -91 1722 -91 
Q 1428 -91 1123 -41 
Q 819 9 494 109 
L 494 744 
Q 775 591 1075 516 
Q 1375 441 1709 441 
Q 2250 441 2565 725 
Q 2881 1009 2881 1497 
Q 2881 1984 2565 2268 
Q 2250 2553 1709 2553 
Q 1456 2553 1204 2497 
Q 953 2441 691 2322 
L 691 4666 
z
" transform="scale(0.015625)"/>
        <path id="DejaVuSans-30" d="M 2034 4250 
Q 1547 4250 1301 3770 
Q 1056 3291 1056 2328 
Q 1056 1369 1301 889 
Q 1547 409 2034 409 
Q 2525 409 2770 889 
Q 3016 1369 3016 2328 
Q 3016 3291 2770 3770 
Q 2525 4250 2034 4250 
z
M 2034 4750 
Q 2819 4750 3233 4129 
Q 3647 3509 3647 2328 
Q 3647 1150 3233 529 
Q 2819 -91 2034 -91 
Q 1250 -91 836 529 
Q 422 1150 422 2328 
Q 422 3509 836 4129 
Q 1250 4750 2034 4750 
z
" transform="scale(0.015625)"/>
       </defs>
       <use xlink:href="#DejaVuSans-31"/>
       <use xlink:href="#DejaVuSans-32" x="63.623047"/>
       <use xlink:href="#DejaVuSans-35" x="127.246094"/>
       <use xlink:href="#DejaVuSans-30" x="190.869141"/>
      </g>
     </g>
    </g>
    <g id="xtick_2">
     <g id="line2d_2">
      <g>
       <use xlink:href="#m51b5ba5557" x="510.82089" y="961.2" style="stroke: #000000; stroke-width: 0.8"/>
      </g>
     </g>
     <g id="text_2">
      <!-- 1300 -->
      <g transform="translate(498.09589 975.798437) scale(0.1 -0.1)">
       <defs>
        <path id="DejaVuSans-33" d="M 2597 2516 
Q 3050 2419 3304 2112 
Q 3559 1806 3559 1356 
Q 3559 666 3084 287 
Q 2609 -91 1734 -91 
Q 1441 -91 1130 -33 
Q 819 25 488 141 
L 488 750 
Q 750 597 1062 519 
Q 1375 441 1716 441 
Q 2309 441 2620 675 
Q 2931 909 2931 1356 
Q 2931 1769 2642 2001 
Q 2353 2234 1838 2234 
L 1294 2234 
L 1294 2753 
L 1863 2753 
Q 2328 2753 2575 2939 
Q 2822 3125 2822 3475 
Q 2822 3834 2567 4026 
Q 2313 4219 1838 4219 
Q 1578 4219 1281 4162 
Q 984 4106 628 3988 
L 628 4550 
Q 988 4650 1302 4700 
Q 1616 4750 1894 4750 
Q 2613 4750 3031 4423 
Q 3450 4097 3450 3541 
Q 3450 3153 3228 2886 
Q 3006 2619 2597 2516 
z
" transform="scale(0.015625)"/>
       </defs>
       <use xlink:href="#DejaVuSans-31"/>
       <use xlink:href="#DejaVuSans-33" x="63.623047"/>
       <use xlink:href="#DejaVuSans-30" x="127.246094"/>
       <use xlink:href="#DejaVuSans-30" x="190.869141"/>
      </g>
     </g>
    </g>
    <g id="xtick_3">
     <g id="line2d_3">
      <g>
       <use xlink:href="#m51b5ba5557" x="586.436496" y="961.2" style="stroke: #000000; stroke-width: 0.8"/>
      </g>
     </g>
     <g id="text_3">
      <!-- 1350 -->
      <g transform="translate(573.711496 975.798437) scale(0.1 -0.1)">
       <use xlink:href="#DejaVuSans-31"/>
       <use xlink:href="#DejaVuSans-33" x="63.623047"/>
       <use xlink:href="#DejaVuSans-35" x="127.246094"/>
       <use xlink:href="#DejaVuSans-30" x="190.869141"/>
      </g>
     </g>
    </g>
    <g id="xtick_4">
     <g id="line2d_4">
      <g>
       <use xlink:href="#m51b5ba5557" x="662.052101" y="961.2" style="stroke: #000000; stroke-width: 0.8"/>
      </g>
     </g>
     <g id="text_4">
      <!-- 1400 -->
      <g transform="translate(649.327101 975.798437) scale(0.1 -0.1)">
       <defs>
        <path id="DejaVuSans-34" d="M 2419 4116 
L 825 1625 
L 2419 1625 
L 2419 4116 
z
M 2253 4666 
L 3047 4666 
L 3047 1625 
L 3713 1625 
L 3713 1100 
L 3047 1100 
L 3047 0 
L 2419 0 
L 2419 1100 
L 313 1100 
L 313 1709 
L 2253 4666 
z
" transform="scale(0.015625)"/>
       </defs>
       <use xlink:href="#DejaVuSans-31"/>
       <use xlink:href="#DejaVuSans-34" x="63.623047"/>
       <use xlink:href="#DejaVuSans-30" x="127.246094"/>
       <use xlink:href="#DejaVuSans-30" x="190.869141"/>
      </g>
     </g>
    </g>
    <g id="xtick_5">
     <g id="line2d_5">
      <g>
       <use xlink:href="#m51b5ba5557" x="737.667706" y="961.2" style="stroke: #000000; stroke-width: 0.8"/>
      </g>
     </g>
     <g id="text_5">
      <!-- 1450 -->
      <g transform="translate(724.942706 975.798437) scale(0.1 -0.1)">
       <use xlink:href="#DejaVuSans-31"/>
       <use xlink:href="#DejaVuSans-34" x="63.623047"/>
       <use xlink:href="#DejaVuSans-35" x="127.246094"/>
       <use xlink:href="#DejaVuSans-30" x="190.869141"/>
      </g>
     </g>
    </g>
    <g id="xtick_6">
     <g id="line2d_6">
      <g>
       <use xlink:href="#m51b5ba5557" x="813.283311" y="961.2" style="stroke: #000000; stroke-width: 0.8"/>
      </g>
     </g>
     <g id="text_6">
      <!-- 1500 -->
      <g transform="translate(800.558311 975.798437) scale(0.1 -0.1)">
       <use xlink:href="#DejaVuSans-31"/>
       <use xlink:href="#DejaVuSans-35" x="63.623047"/>
       <use xlink:href="#DejaVuSans-30" x="127.246094"/>
       <use xlink:href="#DejaVuSans-30" x="190.869141"/>
      </g>
     </g>
    </g>
    <g id="xtick_7">
     <g id="line2d_7">
      <g>
       <use xlink:href="#m51b5ba5557" x="888.898916" y="961.2" style="stroke: #000000; stroke-width: 0.8"/>
      </g>
     </g>
     <g id="text_7">
      <!-- 1550 -->
      <g transform="translate(876.173916 975.798437) scale(0.1 -0.1)">
       <use xlink:href="#DejaVuSans-31"/>
       <use xlink:href="#DejaVuSans-35" x="63.623047"/>
       <use xlink:href="#DejaVuSans-35" x="127.246094"/>
       <use xlink:href="#DejaVuSans-30" x="190.869141"/>
      </g>
     </g>
    </g>
    <g id="xtick_8">
     <g id="line2d_8">
      <g>
       <use xlink:href="#m51b5ba5557" x="964.514521" y="961.2" style="stroke: #000000; stroke-width: 0.8"/>
      </g>
     </g>
     <g id="text_8">
      <!-- 1600 -->
      <g transform="translate(951.789521 975.798437) scale(0.1 -0.1)">
       <defs>
        <path id="DejaVuSans-36" d="M 2113 2584 
Q 1688 2584 1439 2293 
Q 1191 2003 1191 1497 
Q 1191 994 1439 701 
Q 1688 409 2113 409 
Q 2538 409 2786 701 
Q 3034 994 3034 1497 
Q 3034 2003 2786 2293 
Q 2538 2584 2113 2584 
z
M 3366 4563 
L 3366 3988 
Q 3128 4100 2886 4159 
Q 2644 4219 2406 4219 
Q 1781 4219 1451 3797 
Q 1122 3375 1075 2522 
Q 1259 2794 1537 2939 
Q 1816 3084 2150 3084 
Q 2853 3084 3261 2657 
Q 3669 2231 3669 1497 
Q 3669 778 3244 343 
Q 2819 -91 2113 -91 
Q 1303 -91 875 529 
Q 447 1150 447 2328 
Q 447 3434 972 4092 
Q 1497 4750 2381 4750 
Q 2619 4750 2861 4703 
Q 3103 4656 3366 4563 
z
" transform="scale(0.015625)"/>
       </defs>
       <use xlink:href="#DejaVuSans-31"/>
       <use xlink:href="#DejaVuSans-36" x="63.623047"/>
       <use xlink:href="#DejaVuSans-30" x="127.246094"/>
       <use xlink:href="#DejaVuSans-30" x="190.869141"/>
      </g>
     </g>
    </g>
    <g id="xtick_9">
     <g id="line2d_9">
      <g>
       <use xlink:href="#m51b5ba5557" x="1040.130127" y="961.2" style="stroke: #000000; stroke-width: 0.8"/>
      </g>
     </g>
     <g id="text_9">
      <!-- 1650 -->
      <g transform="translate(1027.405127 975.798437) scale(0.1 -0.1)">
       <use xlink:href="#DejaVuSans-31"/>
       <use xlink:href="#DejaVuSans-36" x="63.623047"/>
       <use xlink:href="#DejaVuSans-35" x="127.246094"/>
       <use xlink:href="#DejaVuSans-30" x="190.869141"/>
      </g>
     </g>
    </g>
   </g>
   <g id="matplotlib.axis_2">
    <g id="ytick_1">
     <g id="line2d_10">
      <defs>
       <path id="m7376b7c6ee" d="M 0 0 
L -3.5 0 
" style="stroke: #000000; stroke-width: 0.8"/>
      </defs>
      <g>
       <use xlink:href="#m7376b7c6ee" x="421.962584" y="873.856674" style="stroke: #000000; stroke-width: 0.8"/>
      </g>
     </g>
     <g id="text_10">
      <!-- 600 -->
      <g transform="translate(395.875084 877.655893) scale(0.1 -0.1)">
       <use xlink:href="#DejaVuSans-36"/>
       <use xlink:href="#DejaVuSans-30" x="63.623047"/>
       <use xlink:href="#DejaVuSans-30" x="127.246094"/>
      </g>
     </g>
    </g>
    <g id="ytick_2">
     <g id="line2d_11">
      <g>
       <use xlink:href="#m7376b7c6ee" x="421.962584" y="722.625464" style="stroke: #000000; stroke-width: 0.8"/>
      </g>
     </g>
     <g id="text_11">
      <!-- 700 -->
      <g transform="translate(395.875084 726.424682) scale(0.1 -0.1)">
       <defs>
        <path id="DejaVuSans-37" d="M 525 4666 
L 3525 4666 
L 3525 4397 
L 1831 0 
L 1172 0 
L 2766 4134 
L 525 4134 
L 525 4666 
z
" transform="scale(0.015625)"/>
       </defs>
       <use xlink:href="#DejaVuSans-37"/>
       <use xlink:href="#DejaVuSans-30" x="63.623047"/>
       <use xlink:href="#DejaVuSans-30" x="127.246094"/>
      </g>
     </g>
    </g>
    <g id="ytick_3">
     <g id="line2d_12">
      <g>
       <use xlink:href="#m7376b7c6ee" x="421.962584" y="571.394253" style="stroke: #000000; stroke-width: 0.8"/>
      </g>
     </g>
     <g id="text_12">
      <!-- 800 -->
      <g transform="translate(395.875084 575.193472) scale(0.1 -0.1)">
       <defs>
        <path id="DejaVuSans-38" d="M 2034 2216 
Q 1584 2216 1326 1975 
Q 1069 1734 1069 1313 
Q 1069 891 1326 650 
Q 1584 409 2034 409 
Q 2484 409 2743 651 
Q 3003 894 3003 1313 
Q 3003 1734 2745 1975 
Q 2488 2216 2034 2216 
z
M 1403 2484 
Q 997 2584 770 2862 
Q 544 3141 544 3541 
Q 544 4100 942 4425 
Q 1341 4750 2034 4750 
Q 2731 4750 3128 4425 
Q 3525 4100 3525 3541 
Q 3525 3141 3298 2862 
Q 3072 2584 2669 2484 
Q 3125 2378 3379 2068 
Q 3634 1759 3634 1313 
Q 3634 634 3220 271 
Q 2806 -91 2034 -91 
Q 1263 -91 848 271 
Q 434 634 434 1313 
Q 434 1759 690 2068 
Q 947 2378 1403 2484 
z
M 1172 3481 
Q 1172 3119 1398 2916 
Q 1625 2713 2034 2713 
Q 2441 2713 2670 2916 
Q 2900 3119 2900 3481 
Q 2900 3844 2670 4047 
Q 2441 4250 2034 4250 
Q 1625 4250 1398 4047 
Q 1172 3844 1172 3481 
z
" transform="scale(0.015625)"/>
       </defs>
       <use xlink:href="#DejaVuSans-38"/>
       <use xlink:href="#DejaVuSans-30" x="63.623047"/>
       <use xlink:href="#DejaVuSans-30" x="127.246094"/>
      </g>
     </g>
    </g>
    <g id="ytick_4">
     <g id="line2d_13">
      <g>
       <use xlink:href="#m7376b7c6ee" x="421.962584" y="420.163043" style="stroke: #000000; stroke-width: 0.8"/>
      </g>
     </g>
     <g id="text_13">
      <!-- 900 -->
      <g transform="translate(395.875084 423.962262) scale(0.1 -0.1)">
       <defs>
        <path id="DejaVuSans-39" d="M 703 97 
L 703 672 
Q 941 559 1184 500 
Q 1428 441 1663 441 
Q 2288 441 2617 861 
Q 2947 1281 2994 2138 
Q 2813 1869 2534 1725 
Q 2256 1581 1919 1581 
Q 1219 1581 811 2004 
Q 403 2428 403 3163 
Q 403 3881 828 4315 
Q 1253 4750 1959 4750 
Q 2769 4750 3195 4129 
Q 3622 3509 3622 2328 
Q 3622 1225 3098 567 
Q 2575 -91 1691 -91 
Q 1453 -91 1209 -44 
Q 966 3 703 97 
z
M 1959 2075 
Q 2384 2075 2632 2365 
Q 2881 2656 2881 3163 
Q 2881 3666 2632 3958 
Q 2384 4250 1959 4250 
Q 1534 4250 1286 3958 
Q 1038 3666 1038 3163 
Q 1038 2656 1286 2365 
Q 1534 2075 1959 2075 
z
" transform="scale(0.015625)"/>
       </defs>
       <use xlink:href="#DejaVuSans-39"/>
       <use xlink:href="#DejaVuSans-30" x="63.623047"/>
       <use xlink:href="#DejaVuSans-30" x="127.246094"/>
      </g>
     </g>
    </g>
    <g id="ytick_5">
     <g id="line2d_14">
      <g>
       <use xlink:href="#m7376b7c6ee" x="421.962584" y="268.931833" style="stroke: #000000; stroke-width: 0.8"/>
      </g>
     </g>
     <g id="text_14">
      <!-- 1000 -->
      <g transform="translate(389.512584 272.731051) scale(0.1 -0.1)">
       <use xlink:href="#DejaVuSans-31"/>
       <use xlink:href="#DejaVuSans-30" x="63.623047"/>
       <use xlink:href="#DejaVuSans-30" x="127.246094"/>
       <use xlink:href="#DejaVuSans-30" x="190.869141"/>
      </g>
     </g>
    </g>
   </g>
   <g id="LineCollection_1">
    <path d="M 537.982477 167.4 
L 534.11506 181.689342 
L 531.134562 195.215336 
L 528.860057 207.994768 
L 527.123902 220.057791 
L 525.776091 231.447494 
L 523.746606 252.430728 
L 521.946004 271.699419 
L 520.963694 280.761988 
L 519.861515 289.526444 
L 518.603134 298.060706 
L 517.159999 306.429163 
L 515.50979 314.69084 
L 513.635578 322.89782 
L 511.525609 331.094138 
L 509.173495 339.315261 
L 506.57859 347.588167 
L 503.746334 355.931952 
L 500.68845 364.358823 
L 497.422904 372.875313 
L 490.370259 390.182735 
L 471.292107 435.207402 
L 467.593747 444.518699 
L 464.065052 453.94134 
L 460.769311 463.494499 
L 457.777332 473.204001 
L 455.170697 483.101618 
L 453.046105 493.222234 
L 451.520213 503.597282 
L 450.884207 510.954389 
L 450.733121 514.242719 
L 450.693258 521.368268 
L 450.846706 525.140669 
L 451.446245 532.022283 
L 452.032259 536.217335 
L 453.311327 542.843601 
L 454.44313 547.326063 
L 456.438379 553.686662 
L 458.175899 558.250143 
L 460.920181 564.33597 
L 463.236509 568.736166 
L 466.758567 574.539442 
L 469.533809 578.550669 
L 473.858 584.065048 
L 476.909418 587.532919 
L 482.055447 592.753587 
L 485.187887 595.617258 
L 491.170571 600.541023 
L 494.219925 602.820762 
L 501.048977 607.446137 
L 503.902734 609.212425 
L 514.179141 614.882647 
L 525.025714 619.922536 
L 536.438832 624.413624 
L 548.423219 628.424779 
L 560.984061 632.0129 
L 574.122199 635.225113 
L 587.831497 638.101234 
L 602.09759 640.675973 
L 616.897445 642.980711 
L 632.199366 645.04486 
L 647.963224 646.896862 
L 664.140796 648.564905 
L 680.676142 650.077414 
L 697.505975 651.463377 
L 731.761347 653.97544 
L 783.48003 657.57098 
L 800.42973 658.853717 
L 817.055438 660.233384 
L 833.245674 661.742481 
L 848.882787 663.41196 
L 863.84233 665.269962 
L 877.992068 667.339895 
L 891.19055 669.637459 
L 903.285307 672.165928 
L 914.111066 674.908624 
L 923.48936 677.816953 
L 931.233284 680.792137 
L 937.166337 683.660398 
L 941.172938 686.149919 
L 943.421646 688.039553 
L 943.33976 689.05806 
L 942.451487 692.697631 
L 940.277389 698.340495 
L 936.524989 705.745419 
L 931.088479 714.648441 
L 923.976992 724.826045 
L 915.265789 736.103142 
L 905.070663 748.343316 
L 893.536493 761.436828 
L 880.833025 775.290939 
L 867.153963 789.823236 
L 837.675301 820.719964 
L 822.373901 836.968942 
L 807.104455 853.662423 
L 793.114004 869.682711 
L 793.114004 869.682711 
" clip-path="url(#pd559ed1249)" style="fill: none; stroke: #1f77b4; stroke-width: 1.5"/>
    <path d="M 577.362623 178.193107 
L 573.968456 190.577196 
L 571.322233 202.442937 
L 569.269567 213.856388 
L 567.670819 224.878019 
L 566.400597 235.562902 
L 565.347243 245.960895 
L 564.412312 256.116844 
L 563.510045 266.070775 
L 562.56683 275.858095 
L 561.520663 285.509792 
L 560.320597 295.052639 
L 558.926194 304.509393 
L 557.306962 313.899006 
L 555.441801 323.236826 
L 553.31844 332.534804 
L 550.932873 341.801702 
L 548.288796 351.043297 
L 545.397044 360.262587 
L 542.27503 369.459997 
L 538.946183 378.633583 
L 535.439392 387.779235 
L 531.788453 396.89088 
L 528.03152 405.960676 
L 524.210559 414.979219 
L 520.370815 423.93573 
L 516.560275 432.818253 
L 512.829154 441.613844 
L 509.229373 450.308757 
L 505.81406 458.888626 
L 502.637052 467.338649 
L 499.752417 475.64376 
L 497.213978 483.788802 
L 495.074859 491.758693 
L 493.387036 499.538589 
L 492.200915 507.114042 
L 491.564909 514.471148 
L 491.525046 521.596697 
L 492.124584 528.478311 
L 493.403653 535.104578 
L 495.398903 541.465177 
L 498.143184 547.551004 
L 501.665242 553.354279 
L 505.989433 558.868658 
L 511.135462 564.089326 
L 517.118145 569.013092 
L 523.947198 573.638467 
L 531.627038 577.965741 
L 540.156628 581.997049 
L 549.529333 585.736423 
L 559.732807 589.189842 
L 570.748917 592.365269 
L 582.553678 595.272676 
L 595.117239 597.924063 
L 608.403877 600.333467 
L 622.372041 602.516951 
L 636.974419 604.492599 
L 652.158038 606.280479 
L 667.8644 607.902615 
L 684.029652 609.38293 
L 700.584789 610.747189 
L 717.4559 612.022922 
L 734.564443 613.239341 
L 751.827563 614.427235 
L 769.158445 615.618862 
L 786.466713 616.847819 
L 803.658862 618.148904 
L 820.638734 619.557962 
L 837.308042 621.111713 
L 853.566925 622.847575 
L 869.314557 624.803459 
L 884.449798 627.017559 
L 898.871885 629.528125 
L 912.48118 632.373216 
L 925.179954 635.590438 
L 936.873226 639.216672 
L 947.46965 643.287775 
L 956.882446 647.838275 
L 965.03039 652.901039 
L 971.83885 658.506932 
L 977.240875 664.68445 
L 981.178336 671.459346 
L 983.603125 678.854223 
L 984.478401 686.888123 
L 983.779903 695.57609 
L 981.497305 704.928712 
L 977.635642 714.951647 
L 972.216783 725.645132 
L 965.280971 737.003465 
L 956.888415 749.014471 
L 947.120953 761.65895 
L 936.083762 774.910098 
L 923.907146 788.73291 
L 910.748372 803.083567 
L 896.793584 817.90879 
L 882.259767 833.145179 
L 867.396793 848.718535 
L 852.489516 864.543147 
L 837.859948 880.521067 
L 823.869496 896.541356 
" clip-path="url(#pd559ed1249)" style="fill: none; stroke: #8c564b; stroke-width: 1.5"/>
    <path d="M 616.742769 188.986213 
L 613.608133 200.423367 
L 611.359985 210.504131 
L 609.579732 220.402878 
L 608.15573 230.219827 
L 606.989369 240.031057 
L 605.075435 259.831454 
L 603.161483 280.258232 
L 602.033998 290.604567 
L 600.716251 301.009 
L 599.164682 311.448492 
L 597.348431 321.896995 
L 595.249397 332.327608 
L 592.861627 342.714363 
L 590.190163 353.033454 
L 587.249606 363.263868 
L 584.062609 373.387416 
L 580.658477 383.388315 
L 577.071969 393.252458 
L 573.342332 402.966539 
L 569.512549 412.51713 
L 561.7396 431.068289 
L 550.488397 457.396741 
L 547.063258 465.669823 
L 543.896361 473.625626 
L 541.039368 481.224495 
L 538.540012 488.420353 
L 536.43946 495.160357 
L 534.768682 501.38531 
L 533.543722 507.031673 
L 532.760099 512.036469 
L 532.387481 516.346789 
L 532.367405 519.935375 
L 532.618858 522.821595 
L 533.05716 525.092235 
L 533.627345 526.909911 
L 534.342238 528.495287 
L 535.304302 530.080475 
L 536.693391 531.851895 
L 538.72377 533.911724 
L 541.594243 536.274131 
L 545.454865 538.888963 
L 550.397271 541.673805 
L 556.461646 544.539988 
L 563.650051 547.407905 
L 571.939226 550.213419 
L 581.290179 552.90886 
L 591.654398 555.461474 
L 602.977456 557.851068 
L 615.200896 560.067671 
L 628.263106 562.109538 
L 642.099626 563.981567 
L 656.643202 565.694082 
L 671.823743 567.261912 
L 687.568282 568.703701 
L 703.800987 570.041389 
L 737.413934 572.506435 
L 789.54806 576.131823 
L 807.035692 577.456349 
L 824.428312 578.901767 
L 841.642836 580.510031 
L 858.599715 582.326493 
L 875.224935 584.401051 
L 891.452509 586.790092 
L 907.227472 589.559747 
L 922.509212 592.791331 
L 937.274399 596.590291 
L 951.517286 601.100552 
L 962.11371 605.171655 
L 965.241751 606.525845 
L 974.654547 611.076345 
L 978.432602 613.155745 
L 986.580546 618.218509 
L 990.984895 621.378813 
L 997.793355 626.984705 
L 1000.279855 629.20853 
L 1002.576529 631.627903 
L 1007.978554 637.805421 
L 1010.414135 640.876428 
L 1012.544042 644.166812 
L 1016.481504 650.941708 
L 1018.434259 654.747574 
L 1019.978144 658.736845 
L 1022.402932 666.131722 
L 1023.515487 670.235034 
L 1024.195355 674.431785 
L 1025.070631 682.465685 
L 1025.306742 686.310485 
L 1025.179496 690.160425 
L 1024.480998 698.848392 
L 1024.09207 702.073494 
L 1023.448 705.257473 
L 1021.165402 714.610094 
L 1019.599547 719.608845 
L 1015.737883 729.63178 
L 1014.058493 733.408707 
L 1008.639634 744.102192 
L 1007.065708 746.925158 
L 998.752019 760.390983 
L 989.202546 773.976122 
L 978.495617 787.791641 
L 966.723426 801.900801 
L 954.002754 816.32895 
L 940.480905 831.070413 
L 926.339639 846.092431 
L 897.027219 876.813776 
L 882.409574 892.330933 
L 868.299707 907.741253 
L 854.624988 923.4 
L 854.624988 923.4 
" clip-path="url(#pd559ed1249)" style="fill: none; stroke: #17becf; stroke-width: 1.5"/>
   </g>
   <g id="patch_3">
    <path d="M 421.962584 961.2 
L 421.962584 129.6 
" style="fill: none; stroke: #000000; stroke-width: 0.8; stroke-linejoin: miter; stroke-linecap: square"/>
   </g>
   <g id="patch_4">
    <path d="M 1054.037416 961.2 
L 1054.037416 129.6 
" style="fill: none; stroke: #000000; stroke-width: 0.8; stroke-linejoin: miter; stroke-linecap: square"/>
   </g>
   <g id="patch_5">
    <path d="M 421.962584 961.2 
L 1054.037416 961.2 
" style="fill: none; stroke: #000000; stroke-width: 0.8; stroke-linejoin: miter; stroke-linecap: square"/>
   </g>
   <g id="patch_6">
    <path d="M 421.962584 129.6 
L 1054.037416 129.6 
" style="fill: none; stroke: #000000; stroke-width: 0.8; stroke-linejoin: miter; stroke-linecap: square"/>
   </g>
  </g>
 </g>
 <defs>
  <clipPath id="pd559ed1249">
   <rect x="421.962584" y="129.6" width="632.074833" height="831.6"/>
  </clipPath>
 </defs>
</svg>
