<?xml version="1.0" encoding="utf-8" standalone="no"?>
<!DOCTYPE svg PUBLIC "-//W3C//DTD SVG 1.1//EN"
  "http://www.w3.org/Graphics/SVG/1.1/DTD/svg11.dtd">
<svg xmlns:xlink="http://www.w3.org/1999/xlink" width="1440pt" height="1080pt" viewBox="0 0 1440 1080" xmlns="http://www.w3.org/2000/svg" version="1.1">
 <metadata>
  <rdf:RDF xmlns:dc="http://purl.org/dc/elements/1.1/" xmlns:cc="http://creativecommons.org/ns#" xmlns:rdf="http://www.w3.org/1999/02/22-rdf-syntax-ns#">
   <cc:Work>
    <dc:type rdf:resource="http://purl.org/dc/dcmitype/StillImage"/>
    <dc:date>2023-12-11T12:06:48.125844</dc:date>
    <dc:format>image/svg+xml</dc:format>
    <dc:creator>
     <cc:Agent>
      <dc:title>Matplotlib v3.7.1, https://matplotlib.org/</dc:title>
     </cc:Agent>
    </dc:creator>
   </cc:Work>
  </rdf:RDF>
 </metadata>
 <defs>
  <style type="text/css">*{stroke-linejoin: round; stroke-linecap: butt}</style>
 </defs>
 <g id="figure_1">
  <g id="patch_1">
   <path d="M 0 1080 
L 1440 1080 
L 1440 0 
L 0 0 
z
" style="fill: #ffffff"/>
  </g>
  <g id="axes_1">
   <g id="patch_2">
    <path d="M 275.650568 961.2 
L 1200.349432 961.2 
L 1200.349432 129.6 
L 275.650568 129.6 
z
" style="fill: #ffffff"/>
   </g>
   <g id="matplotlib.axis_1">
    <g id="xtick_1">
     <g id="line2d_1">
      <defs>
       <path id="mc98ab75195" d="M 0 0 
L 0 3.5 
" style="stroke: #000000; stroke-width: 0.8"/>
      </defs>
      <g>
       <use xlink:href="#mc98ab75195" x="392.924392" y="961.2" style="stroke: #000000; stroke-width: 0.8"/>
      </g>
     </g>
     <g id="text_1">
      <!-- 300 -->
      <g transform="translate(383.380642 975.798437) scale(0.1 -0.1)">
       <defs>
        <path id="DejaVuSans-33" d="M 2597 2516 
Q 3050 2419 3304 2112 
Q 3559 1806 3559 1356 
Q 3559 666 3084 287 
Q 2609 -91 1734 -91 
Q 1441 -91 1130 -33 
Q 819 25 488 141 
L 488 750 
Q 750 597 1062 519 
Q 1375 441 1716 441 
Q 2309 441 2620 675 
Q 2931 909 2931 1356 
Q 2931 1769 2642 2001 
Q 2353 2234 1838 2234 
L 1294 2234 
L 1294 2753 
L 1863 2753 
Q 2328 2753 2575 2939 
Q 2822 3125 2822 3475 
Q 2822 3834 2567 4026 
Q 2313 4219 1838 4219 
Q 1578 4219 1281 4162 
Q 984 4106 628 3988 
L 628 4550 
Q 988 4650 1302 4700 
Q 1616 4750 1894 4750 
Q 2613 4750 3031 4423 
Q 3450 4097 3450 3541 
Q 3450 3153 3228 2886 
Q 3006 2619 2597 2516 
z
" transform="scale(0.015625)"/>
        <path id="DejaVuSans-30" d="M 2034 4250 
Q 1547 4250 1301 3770 
Q 1056 3291 1056 2328 
Q 1056 1369 1301 889 
Q 1547 409 2034 409 
Q 2525 409 2770 889 
Q 3016 1369 3016 2328 
Q 3016 3291 2770 3770 
Q 2525 4250 2034 4250 
z
M 2034 4750 
Q 2819 4750 3233 4129 
Q 3647 3509 3647 2328 
Q 3647 1150 3233 529 
Q 2819 -91 2034 -91 
Q 1250 -91 836 529 
Q 422 1150 422 2328 
Q 422 3509 836 4129 
Q 1250 4750 2034 4750 
z
" transform="scale(0.015625)"/>
       </defs>
       <use xlink:href="#DejaVuSans-33"/>
       <use xlink:href="#DejaVuSans-30" x="63.623047"/>
       <use xlink:href="#DejaVuSans-30" x="127.246094"/>
      </g>
     </g>
    </g>
    <g id="xtick_2">
     <g id="line2d_2">
      <g>
       <use xlink:href="#mc98ab75195" x="514.11974" y="961.2" style="stroke: #000000; stroke-width: 0.8"/>
      </g>
     </g>
     <g id="text_2">
      <!-- 400 -->
      <g transform="translate(504.57599 975.798437) scale(0.1 -0.1)">
       <defs>
        <path id="DejaVuSans-34" d="M 2419 4116 
L 825 1625 
L 2419 1625 
L 2419 4116 
z
M 2253 4666 
L 3047 4666 
L 3047 1625 
L 3713 1625 
L 3713 1100 
L 3047 1100 
L 3047 0 
L 2419 0 
L 2419 1100 
L 313 1100 
L 313 1709 
L 2253 4666 
z
" transform="scale(0.015625)"/>
       </defs>
       <use xlink:href="#DejaVuSans-34"/>
       <use xlink:href="#DejaVuSans-30" x="63.623047"/>
       <use xlink:href="#DejaVuSans-30" x="127.246094"/>
      </g>
     </g>
    </g>
    <g id="xtick_3">
     <g id="line2d_3">
      <g>
       <use xlink:href="#mc98ab75195" x="635.315089" y="961.2" style="stroke: #000000; stroke-width: 0.8"/>
      </g>
     </g>
     <g id="text_3">
      <!-- 500 -->
      <g transform="translate(625.771339 975.798437) scale(0.1 -0.1)">
       <defs>
        <path id="DejaVuSans-35" d="M 691 4666 
L 3169 4666 
L 3169 4134 
L 1269 4134 
L 1269 2991 
Q 1406 3038 1543 3061 
Q 1681 3084 1819 3084 
Q 2600 3084 3056 2656 
Q 3513 2228 3513 1497 
Q 3513 744 3044 326 
Q 2575 -91 1722 -91 
Q 1428 -91 1123 -41 
Q 819 9 494 109 
L 494 744 
Q 775 591 1075 516 
Q 1375 441 1709 441 
Q 2250 441 2565 725 
Q 2881 1009 2881 1497 
Q 2881 1984 2565 2268 
Q 2250 2553 1709 2553 
Q 1456 2553 1204 2497 
Q 953 2441 691 2322 
L 691 4666 
z
" transform="scale(0.015625)"/>
       </defs>
       <use xlink:href="#DejaVuSans-35"/>
       <use xlink:href="#DejaVuSans-30" x="63.623047"/>
       <use xlink:href="#DejaVuSans-30" x="127.246094"/>
      </g>
     </g>
    </g>
    <g id="xtick_4">
     <g id="line2d_4">
      <g>
       <use xlink:href="#mc98ab75195" x="756.510437" y="961.2" style="stroke: #000000; stroke-width: 0.8"/>
      </g>
     </g>
     <g id="text_4">
      <!-- 600 -->
      <g transform="translate(746.966687 975.798437) scale(0.1 -0.1)">
       <defs>
        <path id="DejaVuSans-36" d="M 2113 2584 
Q 1688 2584 1439 2293 
Q 1191 2003 1191 1497 
Q 1191 994 1439 701 
Q 1688 409 2113 409 
Q 2538 409 2786 701 
Q 3034 994 3034 1497 
Q 3034 2003 2786 2293 
Q 2538 2584 2113 2584 
z
M 3366 4563 
L 3366 3988 
Q 3128 4100 2886 4159 
Q 2644 4219 2406 4219 
Q 1781 4219 1451 3797 
Q 1122 3375 1075 2522 
Q 1259 2794 1537 2939 
Q 1816 3084 2150 3084 
Q 2853 3084 3261 2657 
Q 3669 2231 3669 1497 
Q 3669 778 3244 343 
Q 2819 -91 2113 -91 
Q 1303 -91 875 529 
Q 447 1150 447 2328 
Q 447 3434 972 4092 
Q 1497 4750 2381 4750 
Q 2619 4750 2861 4703 
Q 3103 4656 3366 4563 
z
" transform="scale(0.015625)"/>
       </defs>
       <use xlink:href="#DejaVuSans-36"/>
       <use xlink:href="#DejaVuSans-30" x="63.623047"/>
       <use xlink:href="#DejaVuSans-30" x="127.246094"/>
      </g>
     </g>
    </g>
    <g id="xtick_5">
     <g id="line2d_5">
      <g>
       <use xlink:href="#mc98ab75195" x="877.705785" y="961.2" style="stroke: #000000; stroke-width: 0.8"/>
      </g>
     </g>
     <g id="text_5">
      <!-- 700 -->
      <g transform="translate(868.162035 975.798437) scale(0.1 -0.1)">
       <defs>
        <path id="DejaVuSans-37" d="M 525 4666 
L 3525 4666 
L 3525 4397 
L 1831 0 
L 1172 0 
L 2766 4134 
L 525 4134 
L 525 4666 
z
" transform="scale(0.015625)"/>
       </defs>
       <use xlink:href="#DejaVuSans-37"/>
       <use xlink:href="#DejaVuSans-30" x="63.623047"/>
       <use xlink:href="#DejaVuSans-30" x="127.246094"/>
      </g>
     </g>
    </g>
    <g id="xtick_6">
     <g id="line2d_6">
      <g>
       <use xlink:href="#mc98ab75195" x="998.901134" y="961.2" style="stroke: #000000; stroke-width: 0.8"/>
      </g>
     </g>
     <g id="text_6">
      <!-- 800 -->
      <g transform="translate(989.357384 975.798437) scale(0.1 -0.1)">
       <defs>
        <path id="DejaVuSans-38" d="M 2034 2216 
Q 1584 2216 1326 1975 
Q 1069 1734 1069 1313 
Q 1069 891 1326 650 
Q 1584 409 2034 409 
Q 2484 409 2743 651 
Q 3003 894 3003 1313 
Q 3003 1734 2745 1975 
Q 2488 2216 2034 2216 
z
M 1403 2484 
Q 997 2584 770 2862 
Q 544 3141 544 3541 
Q 544 4100 942 4425 
Q 1341 4750 2034 4750 
Q 2731 4750 3128 4425 
Q 3525 4100 3525 3541 
Q 3525 3141 3298 2862 
Q 3072 2584 2669 2484 
Q 3125 2378 3379 2068 
Q 3634 1759 3634 1313 
Q 3634 634 3220 271 
Q 2806 -91 2034 -91 
Q 1263 -91 848 271 
Q 434 634 434 1313 
Q 434 1759 690 2068 
Q 947 2378 1403 2484 
z
M 1172 3481 
Q 1172 3119 1398 2916 
Q 1625 2713 2034 2713 
Q 2441 2713 2670 2916 
Q 2900 3119 2900 3481 
Q 2900 3844 2670 4047 
Q 2441 4250 2034 4250 
Q 1625 4250 1398 4047 
Q 1172 3844 1172 3481 
z
" transform="scale(0.015625)"/>
       </defs>
       <use xlink:href="#DejaVuSans-38"/>
       <use xlink:href="#DejaVuSans-30" x="63.623047"/>
       <use xlink:href="#DejaVuSans-30" x="127.246094"/>
      </g>
     </g>
    </g>
    <g id="xtick_7">
     <g id="line2d_7">
      <g>
       <use xlink:href="#mc98ab75195" x="1120.096482" y="961.2" style="stroke: #000000; stroke-width: 0.8"/>
      </g>
     </g>
     <g id="text_7">
      <!-- 900 -->
      <g transform="translate(1110.552732 975.798437) scale(0.1 -0.1)">
       <defs>
        <path id="DejaVuSans-39" d="M 703 97 
L 703 672 
Q 941 559 1184 500 
Q 1428 441 1663 441 
Q 2288 441 2617 861 
Q 2947 1281 2994 2138 
Q 2813 1869 2534 1725 
Q 2256 1581 1919 1581 
Q 1219 1581 811 2004 
Q 403 2428 403 3163 
Q 403 3881 828 4315 
Q 1253 4750 1959 4750 
Q 2769 4750 3195 4129 
Q 3622 3509 3622 2328 
Q 3622 1225 3098 567 
Q 2575 -91 1691 -91 
Q 1453 -91 1209 -44 
Q 966 3 703 97 
z
M 1959 2075 
Q 2384 2075 2632 2365 
Q 2881 2656 2881 3163 
Q 2881 3666 2632 3958 
Q 2384 4250 1959 4250 
Q 1534 4250 1286 3958 
Q 1038 3666 1038 3163 
Q 1038 2656 1286 2365 
Q 1534 2075 1959 2075 
z
" transform="scale(0.015625)"/>
       </defs>
       <use xlink:href="#DejaVuSans-39"/>
       <use xlink:href="#DejaVuSans-30" x="63.623047"/>
       <use xlink:href="#DejaVuSans-30" x="127.246094"/>
      </g>
     </g>
    </g>
   </g>
   <g id="matplotlib.axis_2">
    <g id="ytick_1">
     <g id="line2d_8">
      <defs>
       <path id="mc192b2977c" d="M 0 0 
L -3.5 0 
" style="stroke: #000000; stroke-width: 0.8"/>
      </defs>
      <g>
       <use xlink:href="#mc192b2977c" x="275.650568" y="864.15284" style="stroke: #000000; stroke-width: 0.8"/>
      </g>
     </g>
     <g id="text_8">
      <!-- 500 -->
      <g transform="translate(249.563068 867.952059) scale(0.1 -0.1)">
       <use xlink:href="#DejaVuSans-35"/>
       <use xlink:href="#DejaVuSans-30" x="63.623047"/>
       <use xlink:href="#DejaVuSans-30" x="127.246094"/>
      </g>
     </g>
    </g>
    <g id="ytick_2">
     <g id="line2d_9">
      <g>
       <use xlink:href="#mc192b2977c" x="275.650568" y="742.957491" style="stroke: #000000; stroke-width: 0.8"/>
      </g>
     </g>
     <g id="text_9">
      <!-- 600 -->
      <g transform="translate(249.563068 746.75671) scale(0.1 -0.1)">
       <use xlink:href="#DejaVuSans-36"/>
       <use xlink:href="#DejaVuSans-30" x="63.623047"/>
       <use xlink:href="#DejaVuSans-30" x="127.246094"/>
      </g>
     </g>
    </g>
    <g id="ytick_3">
     <g id="line2d_10">
      <g>
       <use xlink:href="#mc192b2977c" x="275.650568" y="621.762143" style="stroke: #000000; stroke-width: 0.8"/>
      </g>
     </g>
     <g id="text_10">
      <!-- 700 -->
      <g transform="translate(249.563068 625.561362) scale(0.1 -0.1)">
       <use xlink:href="#DejaVuSans-37"/>
       <use xlink:href="#DejaVuSans-30" x="63.623047"/>
       <use xlink:href="#DejaVuSans-30" x="127.246094"/>
      </g>
     </g>
    </g>
    <g id="ytick_4">
     <g id="line2d_11">
      <g>
       <use xlink:href="#mc192b2977c" x="275.650568" y="500.566795" style="stroke: #000000; stroke-width: 0.8"/>
      </g>
     </g>
     <g id="text_11">
      <!-- 800 -->
      <g transform="translate(249.563068 504.366014) scale(0.1 -0.1)">
       <use xlink:href="#DejaVuSans-38"/>
       <use xlink:href="#DejaVuSans-30" x="63.623047"/>
       <use xlink:href="#DejaVuSans-30" x="127.246094"/>
      </g>
     </g>
    </g>
    <g id="ytick_5">
     <g id="line2d_12">
      <g>
       <use xlink:href="#mc192b2977c" x="275.650568" y="379.371447" style="stroke: #000000; stroke-width: 0.8"/>
      </g>
     </g>
     <g id="text_12">
      <!-- 900 -->
      <g transform="translate(249.563068 383.170665) scale(0.1 -0.1)">
       <use xlink:href="#DejaVuSans-39"/>
       <use xlink:href="#DejaVuSans-30" x="63.623047"/>
       <use xlink:href="#DejaVuSans-30" x="127.246094"/>
      </g>
     </g>
    </g>
    <g id="ytick_6">
     <g id="line2d_13">
      <g>
       <use xlink:href="#mc192b2977c" x="275.650568" y="258.176098" style="stroke: #000000; stroke-width: 0.8"/>
      </g>
     </g>
     <g id="text_13">
      <!-- 1000 -->
      <g transform="translate(243.200568 261.975317) scale(0.1 -0.1)">
       <defs>
        <path id="DejaVuSans-31" d="M 794 531 
L 1825 531 
L 1825 4091 
L 703 3866 
L 703 4441 
L 1819 4666 
L 2450 4666 
L 2450 531 
L 3481 531 
L 3481 0 
L 794 0 
L 794 531 
z
" transform="scale(0.015625)"/>
       </defs>
       <use xlink:href="#DejaVuSans-31"/>
       <use xlink:href="#DejaVuSans-30" x="63.623047"/>
       <use xlink:href="#DejaVuSans-30" x="127.246094"/>
       <use xlink:href="#DejaVuSans-30" x="190.869141"/>
      </g>
     </g>
    </g>
    <g id="ytick_7">
     <g id="line2d_14">
      <g>
       <use xlink:href="#mc192b2977c" x="275.650568" y="136.98075" style="stroke: #000000; stroke-width: 0.8"/>
      </g>
     </g>
     <g id="text_14">
      <!-- 1100 -->
      <g transform="translate(243.200568 140.779969) scale(0.1 -0.1)">
       <use xlink:href="#DejaVuSans-31"/>
       <use xlink:href="#DejaVuSans-31" x="63.623047"/>
       <use xlink:href="#DejaVuSans-30" x="127.246094"/>
       <use xlink:href="#DejaVuSans-30" x="190.869141"/>
      </g>
     </g>
    </g>
   </g>
   <g id="LineCollection_1">
    <path d="M 1158.317665 911.557586 
L 1154.218246 890.678356 
L 1153.440345 888.252654 
L 1147.823185 872.900683 
L 1146.697869 870.216361 
L 1145.329667 867.647326 
L 1137.846806 855.037615 
L 1136.135098 852.452092 
L 1134.17756 850.047321 
L 1125.046053 839.893851 
L 1122.908555 837.736035 
L 1120.57324 835.794034 
L 1109.996313 827.828429 
L 1107.734408 826.274553 
L 1105.345885 824.923369 
L 1091.401451 817.914523 
L 1089.222832 817.093479 
L 1076.312239 812.765512 
L 1072.651722 811.778945 
L 1058.827993 808.932553 
L 1055.844948 808.466013 
L 1038.890763 806.731436 
L 1021.832742 806.243951 
L 1004.70749 806.742268 
L 987.557457 808.013832 
L 970.432868 809.879871 
L 953.389934 812.185928 
L 936.488342 814.796066 
L 919.789047 817.589327 
L 856.020999 828.62235 
L 841.132567 830.929962 
L 826.773736 832.924132 
L 812.988102 834.555074 
L 799.816193 835.781999 
L 787.295212 836.573288 
L 775.458545 836.906772 
L 764.334869 836.770035 
L 753.946732 836.160596 
L 744.308492 835.085706 
L 735.423608 833.561389 
L 727.281571 831.610265 
L 719.855098 829.257756 
L 713.098683 826.526632 
L 706.949778 823.430527 
L 701.333533 819.967975 
L 696.170889 816.119024 
L 691.3883 811.846127 
L 686.92632 807.09953 
L 682.744573 801.825574 
L 678.822122 795.975242 
L 675.154052 789.510602 
L 671.746121 782.408039 
L 668.609307 774.658517 
L 665.755423 766.265827 
L 663.194188 757.243922 
L 660.931652 747.614135 
L 658.969606 737.402757 
L 657.305626 726.639126 
L 655.933451 715.354231 
L 654.843504 703.57976 
L 654.02343 691.347467 
L 653.458591 678.688796 
L 653.132492 665.634656 
L 653.027136 652.21532 
L 653.123299 638.460383 
L 653.400747 624.398773 
L 653.838391 610.058787 
L 655.106264 580.654023 
L 656.744349 550.461937 
L 660.351255 488.48604 
L 661.895167 457.117055 
L 662.500898 441.428601 
L 662.953597 425.770145 
L 663.219278 410.165948 
L 663.261656 394.640026 
L 663.041646 379.216068 
L 662.516742 363.91734 
L 661.640182 348.766603 
L 660.359864 333.786104 
L 658.616924 318.997733 
L 656.343909 304.423561 
L 653.462512 290.087068 
L 649.88098 276.015624 
L 645.491679 262.24498 
L 640.169899 248.82667 
L 635.107835 238.315088 
L 633.776125 235.838844 
L 627.933404 226.048519 
L 626.165041 223.399479 
L 619.474372 214.397687 
L 617.204389 211.677484 
L 609.594289 203.535874 
L 606.802878 200.892886 
L 598.197411 193.687768 
L 594.937485 191.296581 
L 585.255997 185.10922 
L 581.662088 183.129422 
L 570.818925 178.046344 
L 567.083756 176.57766 
L 554.987986 172.690965 
L 551.313901 171.750118 
L 537.869023 169.157802 
L 534.420328 168.688611 
L 519.523974 167.494894 
L 516.402603 167.4 
L 499.946233 167.715666 
L 497.193468 167.889209 
L 476.674845 170.180617 
L 454.69616 174.326669 
L 431.088525 180.408202 
L 405.673502 188.531144 
L 378.267539 198.822477 
L 348.683623 211.426782 
L 317.682335 226.035856 
L 317.682335 226.035856 
" clip-path="url(#pd468853cd1)" style="fill: none; stroke: #1f77b4; stroke-width: 1.5"/>
    <path d="M 1127.368203 917.478793 
L 1123.848205 899.080174 
L 1118.231045 883.728204 
L 1110.748184 871.118493 
L 1101.616677 860.965023 
L 1091.039751 852.999417 
L 1079.207367 846.970232 
L 1066.296773 842.642265 
L 1052.473044 839.795874 
L 1037.889603 838.226318 
L 1022.688738 837.743113 
L 1007.002098 838.169401 
L 990.951184 839.341336 
L 974.64782 841.107489 
L 958.194618 843.328262 
L 941.685426 845.875324 
L 925.205766 848.631058 
L 908.833257 851.488027 
L 892.638031 854.348451 
L 876.683131 857.123702 
L 861.024897 859.733814 
L 845.713348 862.107007 
L 830.792542 864.179224 
L 816.300929 865.893689 
L 802.271692 867.200472 
L 788.733076 868.056072 
L 775.708704 868.423018 
L 763.217881 868.269476 
L 751.275893 867.568878 
L 739.894282 866.299561 
L 729.081123 864.444423 
L 718.841279 861.990589 
L 709.176652 858.929093 
L 700.086417 855.254576 
L 691.567252 850.964994 
L 683.613547 846.061341 
L 676.217613 840.547387 
L 669.369871 834.429424 
L 663.059033 827.716036 
L 657.272279 820.417869 
L 651.995408 812.547422 
L 647.212994 804.118852 
L 642.908526 795.14779 
L 639.064528 785.651162 
L 635.662685 775.64704 
L 632.683947 765.154488 
L 630.108627 754.193431 
L 627.916486 742.784532 
L 626.08681 730.949087 
L 624.59848 718.708922 
L 623.430022 706.086312 
L 622.55966 693.103908 
L 621.965346 679.784675 
L 621.624791 666.151842 
L 621.515481 652.228867 
L 621.614682 638.039412 
L 621.899439 623.607326 
L 622.346565 608.956643 
L 622.932617 594.111591 
L 623.633863 579.096616 
L 624.426246 563.936407 
L 625.285333 548.655939 
L 626.186253 533.280532 
L 627.103629 517.835909 
L 628.011506 502.348274 
L 628.883257 486.844394 
L 629.691491 471.351701 
L 630.407951 455.898394 
L 631.003396 440.513557 
L 631.447482 425.227287 
L 631.708631 410.070832 
L 631.753891 395.076737 
L 631.548788 380.279002 
L 631.057171 365.713252 
L 630.241045 351.41691 
L 629.060401 337.42939 
L 627.473029 323.792287 
L 625.434336 310.549588 
L 622.897143 297.747887 
L 619.811478 285.436608 
L 616.124367 273.668242 
L 611.779608 262.498587 
L 606.717544 251.987005 
L 600.874823 242.19668 
L 594.184153 233.194888 
L 586.574053 225.053278 
L 577.968587 217.848161 
L 568.287098 211.6608 
L 557.443934 206.577722 
L 545.348164 202.691027 
L 531.903286 200.098712 
L 517.006931 198.904995 
L 500.550561 199.220661 
L 482.419151 201.1634 
L 462.490875 204.858166 
L 440.636779 210.437534 
L 416.720445 218.042073 
L 390.597658 227.82072 
L 362.116053 239.931163 
L 331.114764 254.540238 
" clip-path="url(#pd468853cd1)" style="fill: none; stroke: #8c564b; stroke-width: 1.5"/>
    <path d="M 1096.41874 923.4 
L 1093.3786 907.509537 
L 1089.642259 897.297936 
L 1085.237758 889.87571 
L 1080.225429 884.302421 
L 1074.281543 879.826012 
L 1066.979907 876.105467 
L 1058.081838 873.122603 
L 1047.598429 870.964004 
L 1035.699958 869.683421 
L 1022.616094 869.267511 
L 1008.578224 869.648993 
L 993.796224 870.72828 
L 978.452815 872.390441 
L 962.704839 874.516026 
L 946.686509 876.987357 
L 930.512733 879.691941 
L 865.851241 890.872798 
L 850.047996 893.318235 
L 834.494683 895.47178 
L 819.223417 897.268663 
L 804.259116 898.648525 
L 789.620502 899.554364 
L 775.32139 899.931428 
L 761.372417 899.726179 
L 747.783353 898.88552 
L 734.566043 897.356602 
L 721.737906 895.087646 
L 709.325521 892.030234 
L 697.367463 888.143353 
L 685.915133 883.398929 
L 677.395968 879.109348 
L 675.030359 877.787766 
L 667.076655 872.884113 
L 664.779282 871.32397 
L 657.383348 865.810015 
L 655.223472 864.045811 
L 648.375729 857.927849 
L 646.410667 856.011939 
L 640.09983 849.29855 
L 638.368018 847.293669 
L 631.099707 837.965701 
L 624.589005 828.097954 
L 618.803263 817.750326 
L 613.699833 806.970741 
L 609.231371 795.795752 
L 605.349746 784.252601 
L 602.008463 772.361748 
L 599.163883 760.13925 
L 596.775615 747.598689 
L 594.806413 734.752595 
L 593.221835 721.613415 
L 591.989808 708.194118 
L 591.080192 694.508546 
L 590.464382 680.571584 
L 590.114971 666.399227 
L 590.00546 652.008575 
L 590.110023 637.417798 
L 590.403313 622.646091 
L 590.860301 607.713632 
L 592.166026 577.451877 
L 593.828498 546.812731 
L 597.418581 485.139068 
L 598.925394 454.559362 
L 599.510305 439.44668 
L 599.944575 424.498311 
L 600.19866 409.75183 
L 600.242442 395.247547 
L 600.045365 381.028899 
L 599.57669 367.142869 
L 598.805885 353.640431 
L 597.703238 340.576976 
L 596.240737 328.012641 
L 594.393318 316.012393 
L 592.140513 304.645607 
L 589.468494 293.984707 
L 586.372234 284.102192 
L 582.857034 275.065195 
L 578.937816 266.92678 
L 574.633397 259.714104 
L 569.952343 253.416098 
L 564.868765 247.97747 
L 559.292868 243.308926 
L 553.050566 239.319522 
L 545.889665 235.962622 
L 537.517022 233.272267 
L 527.64892 231.369592 
L 516.04822 230.439972 
L 502.535074 230.699181 
L 486.97653 232.366244 
L 469.267908 235.649479 
L 449.315534 240.743336 
L 427.024568 247.831066 
L 402.291811 257.089377 
L 375.002061 268.693041 
L 344.547194 283.044619 
L 344.547194 283.044619 
" clip-path="url(#pd468853cd1)" style="fill: none; stroke: #17becf; stroke-width: 1.5"/>
   </g>
   <g id="patch_3">
    <path d="M 275.650568 961.2 
L 275.650568 129.6 
" style="fill: none; stroke: #000000; stroke-width: 0.8; stroke-linejoin: miter; stroke-linecap: square"/>
   </g>
   <g id="patch_4">
    <path d="M 1200.349432 961.2 
L 1200.349432 129.6 
" style="fill: none; stroke: #000000; stroke-width: 0.8; stroke-linejoin: miter; stroke-linecap: square"/>
   </g>
   <g id="patch_5">
    <path d="M 275.650568 961.2 
L 1200.349432 961.2 
" style="fill: none; stroke: #000000; stroke-width: 0.8; stroke-linejoin: miter; stroke-linecap: square"/>
   </g>
   <g id="patch_6">
    <path d="M 275.650568 129.6 
L 1200.349432 129.6 
" style="fill: none; stroke: #000000; stroke-width: 0.8; stroke-linejoin: miter; stroke-linecap: square"/>
   </g>
  </g>
 </g>
 <defs>
  <clipPath id="pd468853cd1">
   <rect x="275.650568" y="129.6" width="924.698864" height="831.6"/>
  </clipPath>
 </defs>
</svg>
