<?xml version="1.0" encoding="utf-8" standalone="no"?>
<!DOCTYPE svg PUBLIC "-//W3C//DTD SVG 1.1//EN"
  "http://www.w3.org/Graphics/SVG/1.1/DTD/svg11.dtd">
<svg xmlns:xlink="http://www.w3.org/1999/xlink" width="1440pt" height="1080pt" viewBox="0 0 1440 1080" xmlns="http://www.w3.org/2000/svg" version="1.1">
 <metadata>
  <rdf:RDF xmlns:dc="http://purl.org/dc/elements/1.1/" xmlns:cc="http://creativecommons.org/ns#" xmlns:rdf="http://www.w3.org/1999/02/22-rdf-syntax-ns#">
   <cc:Work>
    <dc:type rdf:resource="http://purl.org/dc/dcmitype/StillImage"/>
    <dc:date>2023-12-11T12:06:47.422643</dc:date>
    <dc:format>image/svg+xml</dc:format>
    <dc:creator>
     <cc:Agent>
      <dc:title>Matplotlib v3.7.1, https://matplotlib.org/</dc:title>
     </cc:Agent>
    </dc:creator>
   </cc:Work>
  </rdf:RDF>
 </metadata>
 <defs>
  <style type="text/css">*{stroke-linejoin: round; stroke-linecap: butt}</style>
 </defs>
 <g id="figure_1">
  <g id="patch_1">
   <path d="M 0 1080 
L 1440 1080 
L 1440 0 
L 0 0 
z
" style="fill: #ffffff"/>
  </g>
  <g id="axes_1">
   <g id="patch_2">
    <path d="M 548.660706 961.2 
L 927.339294 961.2 
L 927.339294 129.6 
L 548.660706 129.6 
z
" style="fill: #ffffff"/>
   </g>
   <g id="matplotlib.axis_1">
    <g id="xtick_1">
     <g id="line2d_1">
      <defs>
       <path id="m3008536eef" d="M 0 0 
L 0 3.5 
" style="stroke: #000000; stroke-width: 0.8"/>
      </defs>
      <g>
       <use xlink:href="#m3008536eef" x="581.67083" y="961.2" style="stroke: #000000; stroke-width: 0.8"/>
      </g>
     </g>
     <g id="text_1">
      <!-- 900 -->
      <g transform="translate(572.12708 975.798437) scale(0.1 -0.1)">
       <defs>
        <path id="DejaVuSans-39" d="M 703 97 
L 703 672 
Q 941 559 1184 500 
Q 1428 441 1663 441 
Q 2288 441 2617 861 
Q 2947 1281 2994 2138 
Q 2813 1869 2534 1725 
Q 2256 1581 1919 1581 
Q 1219 1581 811 2004 
Q 403 2428 403 3163 
Q 403 3881 828 4315 
Q 1253 4750 1959 4750 
Q 2769 4750 3195 4129 
Q 3622 3509 3622 2328 
Q 3622 1225 3098 567 
Q 2575 -91 1691 -91 
Q 1453 -91 1209 -44 
Q 966 3 703 97 
z
M 1959 2075 
Q 2384 2075 2632 2365 
Q 2881 2656 2881 3163 
Q 2881 3666 2632 3958 
Q 2384 4250 1959 4250 
Q 1534 4250 1286 3958 
Q 1038 3666 1038 3163 
Q 1038 2656 1286 2365 
Q 1534 2075 1959 2075 
z
" transform="scale(0.015625)"/>
        <path id="DejaVuSans-30" d="M 2034 4250 
Q 1547 4250 1301 3770 
Q 1056 3291 1056 2328 
Q 1056 1369 1301 889 
Q 1547 409 2034 409 
Q 2525 409 2770 889 
Q 3016 1369 3016 2328 
Q 3016 3291 2770 3770 
Q 2525 4250 2034 4250 
z
M 2034 4750 
Q 2819 4750 3233 4129 
Q 3647 3509 3647 2328 
Q 3647 1150 3233 529 
Q 2819 -91 2034 -91 
Q 1250 -91 836 529 
Q 422 1150 422 2328 
Q 422 3509 836 4129 
Q 1250 4750 2034 4750 
z
" transform="scale(0.015625)"/>
       </defs>
       <use xlink:href="#DejaVuSans-39"/>
       <use xlink:href="#DejaVuSans-30" x="63.623047"/>
       <use xlink:href="#DejaVuSans-30" x="127.246094"/>
      </g>
     </g>
    </g>
    <g id="xtick_2">
     <g id="line2d_2">
      <g>
       <use xlink:href="#m3008536eef" x="628.951761" y="961.2" style="stroke: #000000; stroke-width: 0.8"/>
      </g>
     </g>
     <g id="text_2">
      <!-- 950 -->
      <g transform="translate(619.408011 975.798437) scale(0.1 -0.1)">
       <defs>
        <path id="DejaVuSans-35" d="M 691 4666 
L 3169 4666 
L 3169 4134 
L 1269 4134 
L 1269 2991 
Q 1406 3038 1543 3061 
Q 1681 3084 1819 3084 
Q 2600 3084 3056 2656 
Q 3513 2228 3513 1497 
Q 3513 744 3044 326 
Q 2575 -91 1722 -91 
Q 1428 -91 1123 -41 
Q 819 9 494 109 
L 494 744 
Q 775 591 1075 516 
Q 1375 441 1709 441 
Q 2250 441 2565 725 
Q 2881 1009 2881 1497 
Q 2881 1984 2565 2268 
Q 2250 2553 1709 2553 
Q 1456 2553 1204 2497 
Q 953 2441 691 2322 
L 691 4666 
z
" transform="scale(0.015625)"/>
       </defs>
       <use xlink:href="#DejaVuSans-39"/>
       <use xlink:href="#DejaVuSans-35" x="63.623047"/>
       <use xlink:href="#DejaVuSans-30" x="127.246094"/>
      </g>
     </g>
    </g>
    <g id="xtick_3">
     <g id="line2d_3">
      <g>
       <use xlink:href="#m3008536eef" x="676.232692" y="961.2" style="stroke: #000000; stroke-width: 0.8"/>
      </g>
     </g>
     <g id="text_3">
      <!-- 1000 -->
      <g transform="translate(663.507692 975.798437) scale(0.1 -0.1)">
       <defs>
        <path id="DejaVuSans-31" d="M 794 531 
L 1825 531 
L 1825 4091 
L 703 3866 
L 703 4441 
L 1819 4666 
L 2450 4666 
L 2450 531 
L 3481 531 
L 3481 0 
L 794 0 
L 794 531 
z
" transform="scale(0.015625)"/>
       </defs>
       <use xlink:href="#DejaVuSans-31"/>
       <use xlink:href="#DejaVuSans-30" x="63.623047"/>
       <use xlink:href="#DejaVuSans-30" x="127.246094"/>
       <use xlink:href="#DejaVuSans-30" x="190.869141"/>
      </g>
     </g>
    </g>
    <g id="xtick_4">
     <g id="line2d_4">
      <g>
       <use xlink:href="#m3008536eef" x="723.513624" y="961.2" style="stroke: #000000; stroke-width: 0.8"/>
      </g>
     </g>
     <g id="text_4">
      <!-- 1050 -->
      <g transform="translate(710.788624 975.798437) scale(0.1 -0.1)">
       <use xlink:href="#DejaVuSans-31"/>
       <use xlink:href="#DejaVuSans-30" x="63.623047"/>
       <use xlink:href="#DejaVuSans-35" x="127.246094"/>
       <use xlink:href="#DejaVuSans-30" x="190.869141"/>
      </g>
     </g>
    </g>
    <g id="xtick_5">
     <g id="line2d_5">
      <g>
       <use xlink:href="#m3008536eef" x="770.794555" y="961.2" style="stroke: #000000; stroke-width: 0.8"/>
      </g>
     </g>
     <g id="text_5">
      <!-- 1100 -->
      <g transform="translate(758.069555 975.798437) scale(0.1 -0.1)">
       <use xlink:href="#DejaVuSans-31"/>
       <use xlink:href="#DejaVuSans-31" x="63.623047"/>
       <use xlink:href="#DejaVuSans-30" x="127.246094"/>
       <use xlink:href="#DejaVuSans-30" x="190.869141"/>
      </g>
     </g>
    </g>
    <g id="xtick_6">
     <g id="line2d_6">
      <g>
       <use xlink:href="#m3008536eef" x="818.075486" y="961.2" style="stroke: #000000; stroke-width: 0.8"/>
      </g>
     </g>
     <g id="text_6">
      <!-- 1150 -->
      <g transform="translate(805.350486 975.798437) scale(0.1 -0.1)">
       <use xlink:href="#DejaVuSans-31"/>
       <use xlink:href="#DejaVuSans-31" x="63.623047"/>
       <use xlink:href="#DejaVuSans-35" x="127.246094"/>
       <use xlink:href="#DejaVuSans-30" x="190.869141"/>
      </g>
     </g>
    </g>
    <g id="xtick_7">
     <g id="line2d_7">
      <g>
       <use xlink:href="#m3008536eef" x="865.356417" y="961.2" style="stroke: #000000; stroke-width: 0.8"/>
      </g>
     </g>
     <g id="text_7">
      <!-- 1200 -->
      <g transform="translate(852.631417 975.798437) scale(0.1 -0.1)">
       <defs>
        <path id="DejaVuSans-32" d="M 1228 531 
L 3431 531 
L 3431 0 
L 469 0 
L 469 531 
Q 828 903 1448 1529 
Q 2069 2156 2228 2338 
Q 2531 2678 2651 2914 
Q 2772 3150 2772 3378 
Q 2772 3750 2511 3984 
Q 2250 4219 1831 4219 
Q 1534 4219 1204 4116 
Q 875 4013 500 3803 
L 500 4441 
Q 881 4594 1212 4672 
Q 1544 4750 1819 4750 
Q 2544 4750 2975 4387 
Q 3406 4025 3406 3419 
Q 3406 3131 3298 2873 
Q 3191 2616 2906 2266 
Q 2828 2175 2409 1742 
Q 1991 1309 1228 531 
z
" transform="scale(0.015625)"/>
       </defs>
       <use xlink:href="#DejaVuSans-31"/>
       <use xlink:href="#DejaVuSans-32" x="63.623047"/>
       <use xlink:href="#DejaVuSans-30" x="127.246094"/>
       <use xlink:href="#DejaVuSans-30" x="190.869141"/>
      </g>
     </g>
    </g>
    <g id="xtick_8">
     <g id="line2d_8">
      <g>
       <use xlink:href="#m3008536eef" x="912.637349" y="961.2" style="stroke: #000000; stroke-width: 0.8"/>
      </g>
     </g>
     <g id="text_8">
      <!-- 1250 -->
      <g transform="translate(899.912349 975.798437) scale(0.1 -0.1)">
       <use xlink:href="#DejaVuSans-31"/>
       <use xlink:href="#DejaVuSans-32" x="63.623047"/>
       <use xlink:href="#DejaVuSans-35" x="127.246094"/>
       <use xlink:href="#DejaVuSans-30" x="190.869141"/>
      </g>
     </g>
    </g>
   </g>
   <g id="matplotlib.axis_2">
    <g id="ytick_1">
     <g id="line2d_9">
      <defs>
       <path id="mba3c0a7972" d="M 0 0 
L -3.5 0 
" style="stroke: #000000; stroke-width: 0.8"/>
      </defs>
      <g>
       <use xlink:href="#mba3c0a7972" x="548.660706" y="878.210535" style="stroke: #000000; stroke-width: 0.8"/>
      </g>
     </g>
     <g id="text_9">
      <!-- 700 -->
      <g transform="translate(522.573206 882.009754) scale(0.1 -0.1)">
       <defs>
        <path id="DejaVuSans-37" d="M 525 4666 
L 3525 4666 
L 3525 4397 
L 1831 0 
L 1172 0 
L 2766 4134 
L 525 4134 
L 525 4666 
z
" transform="scale(0.015625)"/>
       </defs>
       <use xlink:href="#DejaVuSans-37"/>
       <use xlink:href="#DejaVuSans-30" x="63.623047"/>
       <use xlink:href="#DejaVuSans-30" x="127.246094"/>
      </g>
     </g>
    </g>
    <g id="ytick_2">
     <g id="line2d_10">
      <g>
       <use xlink:href="#mba3c0a7972" x="548.660706" y="783.648672" style="stroke: #000000; stroke-width: 0.8"/>
      </g>
     </g>
     <g id="text_10">
      <!-- 800 -->
      <g transform="translate(522.573206 787.447891) scale(0.1 -0.1)">
       <defs>
        <path id="DejaVuSans-38" d="M 2034 2216 
Q 1584 2216 1326 1975 
Q 1069 1734 1069 1313 
Q 1069 891 1326 650 
Q 1584 409 2034 409 
Q 2484 409 2743 651 
Q 3003 894 3003 1313 
Q 3003 1734 2745 1975 
Q 2488 2216 2034 2216 
z
M 1403 2484 
Q 997 2584 770 2862 
Q 544 3141 544 3541 
Q 544 4100 942 4425 
Q 1341 4750 2034 4750 
Q 2731 4750 3128 4425 
Q 3525 4100 3525 3541 
Q 3525 3141 3298 2862 
Q 3072 2584 2669 2484 
Q 3125 2378 3379 2068 
Q 3634 1759 3634 1313 
Q 3634 634 3220 271 
Q 2806 -91 2034 -91 
Q 1263 -91 848 271 
Q 434 634 434 1313 
Q 434 1759 690 2068 
Q 947 2378 1403 2484 
z
M 1172 3481 
Q 1172 3119 1398 2916 
Q 1625 2713 2034 2713 
Q 2441 2713 2670 2916 
Q 2900 3119 2900 3481 
Q 2900 3844 2670 4047 
Q 2441 4250 2034 4250 
Q 1625 4250 1398 4047 
Q 1172 3844 1172 3481 
z
" transform="scale(0.015625)"/>
       </defs>
       <use xlink:href="#DejaVuSans-38"/>
       <use xlink:href="#DejaVuSans-30" x="63.623047"/>
       <use xlink:href="#DejaVuSans-30" x="127.246094"/>
      </g>
     </g>
    </g>
    <g id="ytick_3">
     <g id="line2d_11">
      <g>
       <use xlink:href="#mba3c0a7972" x="548.660706" y="689.08681" style="stroke: #000000; stroke-width: 0.8"/>
      </g>
     </g>
     <g id="text_11">
      <!-- 900 -->
      <g transform="translate(522.573206 692.886029) scale(0.1 -0.1)">
       <use xlink:href="#DejaVuSans-39"/>
       <use xlink:href="#DejaVuSans-30" x="63.623047"/>
       <use xlink:href="#DejaVuSans-30" x="127.246094"/>
      </g>
     </g>
    </g>
    <g id="ytick_4">
     <g id="line2d_12">
      <g>
       <use xlink:href="#mba3c0a7972" x="548.660706" y="594.524947" style="stroke: #000000; stroke-width: 0.8"/>
      </g>
     </g>
     <g id="text_12">
      <!-- 1000 -->
      <g transform="translate(516.210706 598.324166) scale(0.1 -0.1)">
       <use xlink:href="#DejaVuSans-31"/>
       <use xlink:href="#DejaVuSans-30" x="63.623047"/>
       <use xlink:href="#DejaVuSans-30" x="127.246094"/>
       <use xlink:href="#DejaVuSans-30" x="190.869141"/>
      </g>
     </g>
    </g>
    <g id="ytick_5">
     <g id="line2d_13">
      <g>
       <use xlink:href="#mba3c0a7972" x="548.660706" y="499.963085" style="stroke: #000000; stroke-width: 0.8"/>
      </g>
     </g>
     <g id="text_13">
      <!-- 1100 -->
      <g transform="translate(516.210706 503.762303) scale(0.1 -0.1)">
       <use xlink:href="#DejaVuSans-31"/>
       <use xlink:href="#DejaVuSans-31" x="63.623047"/>
       <use xlink:href="#DejaVuSans-30" x="127.246094"/>
       <use xlink:href="#DejaVuSans-30" x="190.869141"/>
      </g>
     </g>
    </g>
    <g id="ytick_6">
     <g id="line2d_14">
      <g>
       <use xlink:href="#mba3c0a7972" x="548.660706" y="405.401222" style="stroke: #000000; stroke-width: 0.8"/>
      </g>
     </g>
     <g id="text_14">
      <!-- 1200 -->
      <g transform="translate(516.210706 409.200441) scale(0.1 -0.1)">
       <use xlink:href="#DejaVuSans-31"/>
       <use xlink:href="#DejaVuSans-32" x="63.623047"/>
       <use xlink:href="#DejaVuSans-30" x="127.246094"/>
       <use xlink:href="#DejaVuSans-30" x="190.869141"/>
      </g>
     </g>
    </g>
    <g id="ytick_7">
     <g id="line2d_15">
      <g>
       <use xlink:href="#mba3c0a7972" x="548.660706" y="310.83936" style="stroke: #000000; stroke-width: 0.8"/>
      </g>
     </g>
     <g id="text_15">
      <!-- 1300 -->
      <g transform="translate(516.210706 314.638578) scale(0.1 -0.1)">
       <defs>
        <path id="DejaVuSans-33" d="M 2597 2516 
Q 3050 2419 3304 2112 
Q 3559 1806 3559 1356 
Q 3559 666 3084 287 
Q 2609 -91 1734 -91 
Q 1441 -91 1130 -33 
Q 819 25 488 141 
L 488 750 
Q 750 597 1062 519 
Q 1375 441 1716 441 
Q 2309 441 2620 675 
Q 2931 909 2931 1356 
Q 2931 1769 2642 2001 
Q 2353 2234 1838 2234 
L 1294 2234 
L 1294 2753 
L 1863 2753 
Q 2328 2753 2575 2939 
Q 2822 3125 2822 3475 
Q 2822 3834 2567 4026 
Q 2313 4219 1838 4219 
Q 1578 4219 1281 4162 
Q 984 4106 628 3988 
L 628 4550 
Q 988 4650 1302 4700 
Q 1616 4750 1894 4750 
Q 2613 4750 3031 4423 
Q 3450 4097 3450 3541 
Q 3450 3153 3228 2886 
Q 3006 2619 2597 2516 
z
" transform="scale(0.015625)"/>
       </defs>
       <use xlink:href="#DejaVuSans-31"/>
       <use xlink:href="#DejaVuSans-33" x="63.623047"/>
       <use xlink:href="#DejaVuSans-30" x="127.246094"/>
       <use xlink:href="#DejaVuSans-30" x="190.869141"/>
      </g>
     </g>
    </g>
    <g id="ytick_8">
     <g id="line2d_16">
      <g>
       <use xlink:href="#mba3c0a7972" x="548.660706" y="216.277497" style="stroke: #000000; stroke-width: 0.8"/>
      </g>
     </g>
     <g id="text_16">
      <!-- 1400 -->
      <g transform="translate(516.210706 220.076716) scale(0.1 -0.1)">
       <defs>
        <path id="DejaVuSans-34" d="M 2419 4116 
L 825 1625 
L 2419 1625 
L 2419 4116 
z
M 2253 4666 
L 3047 4666 
L 3047 1625 
L 3713 1625 
L 3713 1100 
L 3047 1100 
L 3047 0 
L 2419 0 
L 2419 1100 
L 313 1100 
L 313 1709 
L 2253 4666 
z
" transform="scale(0.015625)"/>
       </defs>
       <use xlink:href="#DejaVuSans-31"/>
       <use xlink:href="#DejaVuSans-34" x="63.623047"/>
       <use xlink:href="#DejaVuSans-30" x="127.246094"/>
       <use xlink:href="#DejaVuSans-30" x="190.869141"/>
      </g>
     </g>
    </g>
   </g>
   <g id="LineCollection_1">
    <path d="M 565.873369 189.505504 
L 580.782424 199.334793 
L 594.850693 208.88693 
L 608.158853 218.217555 
L 620.723939 227.337321 
L 632.566378 236.256417 
L 643.709597 244.98464 
L 654.179653 253.531476 
L 664.004866 261.906171 
L 673.215466 270.117807 
L 681.843237 278.175376 
L 689.921176 286.087834 
L 697.483141 293.864143 
L 704.563517 301.513292 
L 711.196883 309.044287 
L 717.417701 316.466123 
L 723.260019 323.787715 
L 728.757212 331.017821 
L 733.941751 338.164945 
L 738.845011 345.237224 
L 743.497119 352.242336 
L 747.926829 359.187402 
L 752.161442 366.078915 
L 756.226736 372.922693 
L 760.14692 379.723849 
L 763.944608 386.48679 
L 767.640783 393.215241 
L 771.254784 399.912275 
L 774.80428 406.580371 
L 778.305257 413.221473 
L 781.772004 419.837057 
L 785.217685 426.42932 
L 788.647548 432.988272 
L 788.655279 433.003033 
L 792.077499 439.527358 
L 792.090696 439.552451 
L 795.513826 446.044672 
L 795.531373 446.077838 
L 798.962302 452.540386 
L 798.983066 452.579341 
L 802.427042 459.014564 
L 802.449874 459.057041 
L 805.910539 465.467211 
L 805.934282 465.510993 
L 809.413707 471.89831 
L 809.437203 471.941253 
L 812.935933 478.307857 
L 812.958031 478.347903 
L 816.475133 484.695879 
L 816.494698 484.731065 
L 820.027816 491.062451 
L 820.043744 491.090911 
L 823.589154 497.407702 
L 823.600379 497.427661 
L 827.158557 503.741578 
L 830.711637 510.033999 
L 834.253896 516.309888 
L 837.773182 522.564686 
L 841.259154 528.798716 
L 844.700607 535.012286 
L 848.085561 541.205674 
L 851.401351 547.379109 
L 854.634722 553.532762 
L 857.771926 559.666736 
L 860.798822 565.78106 
L 863.700988 571.8757 
L 866.463826 577.950569 
L 869.072683 584.005565 
L 871.512962 590.040618 
L 873.770242 596.055763 
L 875.830383 602.051247 
L 877.679619 608.027661 
L 879.304621 613.986107 
L 880.69253 619.928394 
L 881.830919 625.85726 
L 882.707704 631.776595 
L 883.310955 637.691642 
L 883.628643 643.609149 
L 883.648306 649.537427 
L 883.356678 655.486293 
L 882.739316 661.466858 
L 881.780283 667.491193 
L 880.461937 673.571878 
L 878.764849 679.721498 
L 876.667869 685.952157 
L 874.148323 692.275066 
L 871.182276 698.700261 
L 867.744829 705.236477 
L 863.810385 711.891157 
L 859.35283 718.670582 
L 854.345635 725.580088 
L 848.761846 732.624318 
L 842.573977 739.807475 
L 835.753831 747.133574 
L 828.272252 754.60665 
L 820.098838 762.230929 
L 811.201614 770.010975 
L 801.546695 777.951786 
L 791.097921 786.058877 
L 779.816491 794.338332 
L 767.660582 802.796843 
L 754.584959 811.441739 
L 740.540576 820.281001 
L 725.47416 829.323281 
L 709.327792 838.577908 
L 692.038455 848.054903 
L 673.537587 857.764988 
L 653.750592 867.719597 
L 632.596352 877.930886 
L 609.986706 888.411753 
L 585.739437 899.214373 
" clip-path="url(#p18ffb476b8)" style="fill: none; stroke: #1f77b4; stroke-width: 1.5"/>
    <path d="M 573.160262 178.452752 
L 588.144524 188.331623 
L 602.36944 197.990121 
L 615.847527 207.439887 
L 628.594941 216.691986 
L 640.631047 225.756941 
L 651.978008 234.644751 
L 662.660396 243.364916 
L 672.704825 251.926463 
L 682.139602 260.337963 
L 690.994404 268.607559 
L 699.299968 276.742979 
L 707.087806 284.751563 
L 714.389934 292.640277 
L 721.238624 300.415734 
L 727.666172 308.084212 
L 733.70468 315.65167 
L 739.38586 323.123763 
L 744.740853 330.505864 
L 749.800058 337.803072 
L 754.592985 345.02023 
L 759.14812 352.161941 
L 763.492798 359.232577 
L 767.6531 366.236298 
L 771.653753 373.177059 
L 775.518053 380.058624 
L 779.267792 386.884581 
L 782.923201 393.658348 
L 786.502901 400.383185 
L 790.023869 407.062209 
L 793.501413 413.698397 
L 796.949154 420.2946 
L 800.379017 426.853552 
L 803.801237 433.377877 
L 807.224367 439.870097 
L 810.655295 446.332646 
L 814.099271 452.767869 
L 817.559936 459.178038 
L 821.039361 465.565355 
L 824.538091 471.931959 
L 828.055193 478.279935 
L 831.588311 484.61132 
L 835.133721 490.92811 
L 838.686393 497.232267 
L 842.240058 503.525723 
L 845.787271 509.810389 
L 849.319483 516.08816 
L 852.827113 522.360922 
L 856.299616 528.630554 
L 859.725561 534.898943 
L 863.092699 541.167979 
L 866.388039 547.439569 
L 869.597919 553.71564 
L 872.708073 559.998146 
L 875.703707 566.289072 
L 878.569557 572.590442 
L 881.289958 578.904326 
L 883.848901 585.232846 
L 886.23009 591.578178 
L 888.416992 597.942568 
L 890.392889 604.328328 
L 892.14091 610.737852 
L 893.644078 617.173619 
L 894.885329 623.6382 
L 895.84754 630.134266 
L 896.513542 636.6646 
L 896.866126 643.232099 
L 896.888043 649.839786 
L 896.561993 656.490818 
L 895.870604 663.188497 
L 894.796404 669.936276 
L 893.32178 676.737772 
L 891.428925 683.596776 
L 889.09978 690.51726 
L 886.315951 697.503395 
L 883.058634 704.559555 
L 879.308502 711.690335 
L 875.045601 718.90056 
L 870.249221 726.1953 
L 864.897748 733.579882 
L 858.968515 741.059906 
L 852.437625 748.641258 
L 845.279764 756.330126 
L 837.467996 764.133014 
L 828.973543 772.056764 
L 819.765541 780.108565 
L 809.810789 788.295977 
L 799.073469 796.626949 
L 787.51485 805.109833 
L 775.092979 813.75341 
L 761.762343 822.566906 
L 747.473513 831.560018 
L 732.172773 840.74293 
L 715.801718 850.126341 
L 698.296836 859.721486 
L 679.589066 869.540162 
L 659.603337 879.594751 
L 638.25807 889.89825 
L 615.464678 900.464295 
L 591.127016 911.307187 
" clip-path="url(#p18ffb476b8)" style="fill: none; stroke: #8c564b; stroke-width: 1.5"/>
    <path d="M 580.447155 167.4 
L 595.581148 177.379055 
L 609.969465 187.150298 
L 623.623824 196.725814 
L 636.559419 206.117052 
L 648.794459 215.334809 
L 660.349738 224.389203 
L 671.248235 233.289641 
L 681.514748 242.044793 
L 691.175568 250.662558 
L 700.258179 259.150042 
L 708.791006 267.513551 
L 716.803188 275.758594 
L 724.32439 283.889922 
L 731.38463 291.911577 
L 738.014132 299.826982 
L 744.243177 307.639042 
L 750.101969 315.350274 
L 755.620486 322.962939 
L 760.828327 330.479178 
L 765.754558 337.901141 
L 770.427549 345.231095 
L 774.874809 352.471514 
L 783.196959 366.695043 
L 790.918305 380.597476 
L 798.213916 394.209511 
L 829.197502 452.866953 
L 839.625498 471.846382 
L 853.767894 497.016412 
L 867.916458 522.281449 
L 874.812062 535.010165 
L 881.462335 547.84216 
L 887.656404 560.597397 
L 890.727709 567.351979 
L 893.563246 573.941611 
L 896.243561 580.58155 
L 898.750232 587.276064 
L 901.064061 594.029284 
L 903.165085 600.845062 
L 905.032604 607.726808 
L 906.64525 614.67729 
L 907.981108 621.698425 
L 909.017885 628.791078 
L 909.733166 635.954889 
L 910.104714 643.188188 
L 910.110825 650.487999 
L 909.730676 657.850196 
L 908.944637 665.269792 
L 907.734473 672.741363 
L 906.08341 680.259553 
L 903.97603 687.819607 
L 901.398007 695.417846 
L 898.33571 703.052047 
L 894.775736 710.721669 
L 890.704415 718.427939 
L 886.107347 726.173793 
L 880.968999 733.963729 
L 875.272368 741.803591 
L 868.998721 749.700341 
L 862.127385 757.661828 
L 854.635586 765.696594 
L 846.498291 773.813712 
L 837.688074 782.02266 
L 828.174953 790.333237 
L 817.926227 798.755509 
L 806.906272 807.29978 
L 795.07632 815.976585 
L 782.394205 824.796699 
L 768.814078 833.771154 
L 754.286094 842.911268 
L 738.756068 852.228676 
L 722.165102 861.735367 
L 704.449188 871.443717 
L 685.538777 881.366534 
L 665.358328 891.517092 
L 643.825822 901.909174 
L 620.852256 912.557108 
L 596.514595 923.4 
L 596.514595 923.4 
" clip-path="url(#p18ffb476b8)" style="fill: none; stroke: #17becf; stroke-width: 1.5"/>
   </g>
   <g id="patch_3">
    <path d="M 548.660706 961.2 
L 548.660706 129.6 
" style="fill: none; stroke: #000000; stroke-width: 0.8; stroke-linejoin: miter; stroke-linecap: square"/>
   </g>
   <g id="patch_4">
    <path d="M 927.339294 961.2 
L 927.339294 129.6 
" style="fill: none; stroke: #000000; stroke-width: 0.8; stroke-linejoin: miter; stroke-linecap: square"/>
   </g>
   <g id="patch_5">
    <path d="M 548.660706 961.2 
L 927.339294 961.2 
" style="fill: none; stroke: #000000; stroke-width: 0.8; stroke-linejoin: miter; stroke-linecap: square"/>
   </g>
   <g id="patch_6">
    <path d="M 548.660706 129.6 
L 927.339294 129.6 
" style="fill: none; stroke: #000000; stroke-width: 0.8; stroke-linejoin: miter; stroke-linecap: square"/>
   </g>
  </g>
 </g>
 <defs>
  <clipPath id="p18ffb476b8">
   <rect x="548.660706" y="129.6" width="378.678588" height="831.6"/>
  </clipPath>
 </defs>
</svg>
