<?xml version="1.0" encoding="utf-8" standalone="no"?>
<!DOCTYPE svg PUBLIC "-//W3C//DTD SVG 1.1//EN"
  "http://www.w3.org/Graphics/SVG/1.1/DTD/svg11.dtd">
<svg xmlns:xlink="http://www.w3.org/1999/xlink" width="1440pt" height="1080pt" viewBox="0 0 1440 1080" xmlns="http://www.w3.org/2000/svg" version="1.1">
 <metadata>
  <rdf:RDF xmlns:dc="http://purl.org/dc/elements/1.1/" xmlns:cc="http://creativecommons.org/ns#" xmlns:rdf="http://www.w3.org/1999/02/22-rdf-syntax-ns#">
   <cc:Work>
    <dc:type rdf:resource="http://purl.org/dc/dcmitype/StillImage"/>
    <dc:date>2023-12-11T12:06:40.939278</dc:date>
    <dc:format>image/svg+xml</dc:format>
    <dc:creator>
     <cc:Agent>
      <dc:title>Matplotlib v3.7.1, https://matplotlib.org/</dc:title>
     </cc:Agent>
    </dc:creator>
   </cc:Work>
  </rdf:RDF>
 </metadata>
 <defs>
  <style type="text/css">*{stroke-linejoin: round; stroke-linecap: butt}</style>
 </defs>
 <g id="figure_1">
  <g id="patch_1">
   <path d="M 0 1080 
L 1440 1080 
L 1440 0 
L 0 0 
z
" style="fill: #ffffff"/>
  </g>
  <g id="axes_1">
   <g id="patch_2">
    <path d="M 448.096737 961.2 
L 1027.903263 961.2 
L 1027.903263 129.6 
L 448.096737 129.6 
z
" style="fill: #ffffff"/>
   </g>
   <g id="matplotlib.axis_1">
    <g id="xtick_1">
     <g id="line2d_1">
      <defs>
       <path id="m9287232447" d="M 0 0 
L 0 3.5 
" style="stroke: #000000; stroke-width: 0.8"/>
      </defs>
      <g>
       <use xlink:href="#m9287232447" x="513.835787" y="961.2" style="stroke: #000000; stroke-width: 0.8"/>
      </g>
     </g>
     <g id="text_1">
      <!-- 400 -->
      <g transform="translate(504.292037 975.798437) scale(0.1 -0.1)">
       <defs>
        <path id="DejaVuSans-34" d="M 2419 4116 
L 825 1625 
L 2419 1625 
L 2419 4116 
z
M 2253 4666 
L 3047 4666 
L 3047 1625 
L 3713 1625 
L 3713 1100 
L 3047 1100 
L 3047 0 
L 2419 0 
L 2419 1100 
L 313 1100 
L 313 1709 
L 2253 4666 
z
" transform="scale(0.015625)"/>
        <path id="DejaVuSans-30" d="M 2034 4250 
Q 1547 4250 1301 3770 
Q 1056 3291 1056 2328 
Q 1056 1369 1301 889 
Q 1547 409 2034 409 
Q 2525 409 2770 889 
Q 3016 1369 3016 2328 
Q 3016 3291 2770 3770 
Q 2525 4250 2034 4250 
z
M 2034 4750 
Q 2819 4750 3233 4129 
Q 3647 3509 3647 2328 
Q 3647 1150 3233 529 
Q 2819 -91 2034 -91 
Q 1250 -91 836 529 
Q 422 1150 422 2328 
Q 422 3509 836 4129 
Q 1250 4750 2034 4750 
z
" transform="scale(0.015625)"/>
       </defs>
       <use xlink:href="#DejaVuSans-34"/>
       <use xlink:href="#DejaVuSans-30" x="63.623047"/>
       <use xlink:href="#DejaVuSans-30" x="127.246094"/>
      </g>
     </g>
    </g>
    <g id="xtick_2">
     <g id="line2d_2">
      <g>
       <use xlink:href="#m9287232447" x="586.167546" y="961.2" style="stroke: #000000; stroke-width: 0.8"/>
      </g>
     </g>
     <g id="text_2">
      <!-- 500 -->
      <g transform="translate(576.623796 975.798437) scale(0.1 -0.1)">
       <defs>
        <path id="DejaVuSans-35" d="M 691 4666 
L 3169 4666 
L 3169 4134 
L 1269 4134 
L 1269 2991 
Q 1406 3038 1543 3061 
Q 1681 3084 1819 3084 
Q 2600 3084 3056 2656 
Q 3513 2228 3513 1497 
Q 3513 744 3044 326 
Q 2575 -91 1722 -91 
Q 1428 -91 1123 -41 
Q 819 9 494 109 
L 494 744 
Q 775 591 1075 516 
Q 1375 441 1709 441 
Q 2250 441 2565 725 
Q 2881 1009 2881 1497 
Q 2881 1984 2565 2268 
Q 2250 2553 1709 2553 
Q 1456 2553 1204 2497 
Q 953 2441 691 2322 
L 691 4666 
z
" transform="scale(0.015625)"/>
       </defs>
       <use xlink:href="#DejaVuSans-35"/>
       <use xlink:href="#DejaVuSans-30" x="63.623047"/>
       <use xlink:href="#DejaVuSans-30" x="127.246094"/>
      </g>
     </g>
    </g>
    <g id="xtick_3">
     <g id="line2d_3">
      <g>
       <use xlink:href="#m9287232447" x="658.499305" y="961.2" style="stroke: #000000; stroke-width: 0.8"/>
      </g>
     </g>
     <g id="text_3">
      <!-- 600 -->
      <g transform="translate(648.955555 975.798437) scale(0.1 -0.1)">
       <defs>
        <path id="DejaVuSans-36" d="M 2113 2584 
Q 1688 2584 1439 2293 
Q 1191 2003 1191 1497 
Q 1191 994 1439 701 
Q 1688 409 2113 409 
Q 2538 409 2786 701 
Q 3034 994 3034 1497 
Q 3034 2003 2786 2293 
Q 2538 2584 2113 2584 
z
M 3366 4563 
L 3366 3988 
Q 3128 4100 2886 4159 
Q 2644 4219 2406 4219 
Q 1781 4219 1451 3797 
Q 1122 3375 1075 2522 
Q 1259 2794 1537 2939 
Q 1816 3084 2150 3084 
Q 2853 3084 3261 2657 
Q 3669 2231 3669 1497 
Q 3669 778 3244 343 
Q 2819 -91 2113 -91 
Q 1303 -91 875 529 
Q 447 1150 447 2328 
Q 447 3434 972 4092 
Q 1497 4750 2381 4750 
Q 2619 4750 2861 4703 
Q 3103 4656 3366 4563 
z
" transform="scale(0.015625)"/>
       </defs>
       <use xlink:href="#DejaVuSans-36"/>
       <use xlink:href="#DejaVuSans-30" x="63.623047"/>
       <use xlink:href="#DejaVuSans-30" x="127.246094"/>
      </g>
     </g>
    </g>
    <g id="xtick_4">
     <g id="line2d_4">
      <g>
       <use xlink:href="#m9287232447" x="730.831063" y="961.2" style="stroke: #000000; stroke-width: 0.8"/>
      </g>
     </g>
     <g id="text_4">
      <!-- 700 -->
      <g transform="translate(721.287313 975.798437) scale(0.1 -0.1)">
       <defs>
        <path id="DejaVuSans-37" d="M 525 4666 
L 3525 4666 
L 3525 4397 
L 1831 0 
L 1172 0 
L 2766 4134 
L 525 4134 
L 525 4666 
z
" transform="scale(0.015625)"/>
       </defs>
       <use xlink:href="#DejaVuSans-37"/>
       <use xlink:href="#DejaVuSans-30" x="63.623047"/>
       <use xlink:href="#DejaVuSans-30" x="127.246094"/>
      </g>
     </g>
    </g>
    <g id="xtick_5">
     <g id="line2d_5">
      <g>
       <use xlink:href="#m9287232447" x="803.162822" y="961.2" style="stroke: #000000; stroke-width: 0.8"/>
      </g>
     </g>
     <g id="text_5">
      <!-- 800 -->
      <g transform="translate(793.619072 975.798437) scale(0.1 -0.1)">
       <defs>
        <path id="DejaVuSans-38" d="M 2034 2216 
Q 1584 2216 1326 1975 
Q 1069 1734 1069 1313 
Q 1069 891 1326 650 
Q 1584 409 2034 409 
Q 2484 409 2743 651 
Q 3003 894 3003 1313 
Q 3003 1734 2745 1975 
Q 2488 2216 2034 2216 
z
M 1403 2484 
Q 997 2584 770 2862 
Q 544 3141 544 3541 
Q 544 4100 942 4425 
Q 1341 4750 2034 4750 
Q 2731 4750 3128 4425 
Q 3525 4100 3525 3541 
Q 3525 3141 3298 2862 
Q 3072 2584 2669 2484 
Q 3125 2378 3379 2068 
Q 3634 1759 3634 1313 
Q 3634 634 3220 271 
Q 2806 -91 2034 -91 
Q 1263 -91 848 271 
Q 434 634 434 1313 
Q 434 1759 690 2068 
Q 947 2378 1403 2484 
z
M 1172 3481 
Q 1172 3119 1398 2916 
Q 1625 2713 2034 2713 
Q 2441 2713 2670 2916 
Q 2900 3119 2900 3481 
Q 2900 3844 2670 4047 
Q 2441 4250 2034 4250 
Q 1625 4250 1398 4047 
Q 1172 3844 1172 3481 
z
" transform="scale(0.015625)"/>
       </defs>
       <use xlink:href="#DejaVuSans-38"/>
       <use xlink:href="#DejaVuSans-30" x="63.623047"/>
       <use xlink:href="#DejaVuSans-30" x="127.246094"/>
      </g>
     </g>
    </g>
    <g id="xtick_6">
     <g id="line2d_6">
      <g>
       <use xlink:href="#m9287232447" x="875.494581" y="961.2" style="stroke: #000000; stroke-width: 0.8"/>
      </g>
     </g>
     <g id="text_6">
      <!-- 900 -->
      <g transform="translate(865.950831 975.798437) scale(0.1 -0.1)">
       <defs>
        <path id="DejaVuSans-39" d="M 703 97 
L 703 672 
Q 941 559 1184 500 
Q 1428 441 1663 441 
Q 2288 441 2617 861 
Q 2947 1281 2994 2138 
Q 2813 1869 2534 1725 
Q 2256 1581 1919 1581 
Q 1219 1581 811 2004 
Q 403 2428 403 3163 
Q 403 3881 828 4315 
Q 1253 4750 1959 4750 
Q 2769 4750 3195 4129 
Q 3622 3509 3622 2328 
Q 3622 1225 3098 567 
Q 2575 -91 1691 -91 
Q 1453 -91 1209 -44 
Q 966 3 703 97 
z
M 1959 2075 
Q 2384 2075 2632 2365 
Q 2881 2656 2881 3163 
Q 2881 3666 2632 3958 
Q 2384 4250 1959 4250 
Q 1534 4250 1286 3958 
Q 1038 3666 1038 3163 
Q 1038 2656 1286 2365 
Q 1534 2075 1959 2075 
z
" transform="scale(0.015625)"/>
       </defs>
       <use xlink:href="#DejaVuSans-39"/>
       <use xlink:href="#DejaVuSans-30" x="63.623047"/>
       <use xlink:href="#DejaVuSans-30" x="127.246094"/>
      </g>
     </g>
    </g>
    <g id="xtick_7">
     <g id="line2d_7">
      <g>
       <use xlink:href="#m9287232447" x="947.82634" y="961.2" style="stroke: #000000; stroke-width: 0.8"/>
      </g>
     </g>
     <g id="text_7">
      <!-- 1000 -->
      <g transform="translate(935.10134 975.798437) scale(0.1 -0.1)">
       <defs>
        <path id="DejaVuSans-31" d="M 794 531 
L 1825 531 
L 1825 4091 
L 703 3866 
L 703 4441 
L 1819 4666 
L 2450 4666 
L 2450 531 
L 3481 531 
L 3481 0 
L 794 0 
L 794 531 
z
" transform="scale(0.015625)"/>
       </defs>
       <use xlink:href="#DejaVuSans-31"/>
       <use xlink:href="#DejaVuSans-30" x="63.623047"/>
       <use xlink:href="#DejaVuSans-30" x="127.246094"/>
       <use xlink:href="#DejaVuSans-30" x="190.869141"/>
      </g>
     </g>
    </g>
    <g id="xtick_8">
     <g id="line2d_8">
      <g>
       <use xlink:href="#m9287232447" x="1020.158099" y="961.2" style="stroke: #000000; stroke-width: 0.8"/>
      </g>
     </g>
     <g id="text_8">
      <!-- 1100 -->
      <g transform="translate(1007.433099 975.798437) scale(0.1 -0.1)">
       <use xlink:href="#DejaVuSans-31"/>
       <use xlink:href="#DejaVuSans-31" x="63.623047"/>
       <use xlink:href="#DejaVuSans-30" x="127.246094"/>
       <use xlink:href="#DejaVuSans-30" x="190.869141"/>
      </g>
     </g>
    </g>
   </g>
   <g id="matplotlib.axis_2">
    <g id="ytick_1">
     <g id="line2d_9">
      <defs>
       <path id="mfa3b5793d0" d="M 0 0 
L -3.5 0 
" style="stroke: #000000; stroke-width: 0.8"/>
      </defs>
      <g>
       <use xlink:href="#mfa3b5793d0" x="448.096737" y="930.55265" style="stroke: #000000; stroke-width: 0.8"/>
      </g>
     </g>
     <g id="text_9">
      <!-- 0 -->
      <g transform="translate(434.734237 934.351869) scale(0.1 -0.1)">
       <use xlink:href="#DejaVuSans-30"/>
      </g>
     </g>
    </g>
    <g id="ytick_2">
     <g id="line2d_10">
      <g>
       <use xlink:href="#mfa3b5793d0" x="448.096737" y="785.889133" style="stroke: #000000; stroke-width: 0.8"/>
      </g>
     </g>
     <g id="text_10">
      <!-- 200 -->
      <g transform="translate(422.009237 789.688352) scale(0.1 -0.1)">
       <defs>
        <path id="DejaVuSans-32" d="M 1228 531 
L 3431 531 
L 3431 0 
L 469 0 
L 469 531 
Q 828 903 1448 1529 
Q 2069 2156 2228 2338 
Q 2531 2678 2651 2914 
Q 2772 3150 2772 3378 
Q 2772 3750 2511 3984 
Q 2250 4219 1831 4219 
Q 1534 4219 1204 4116 
Q 875 4013 500 3803 
L 500 4441 
Q 881 4594 1212 4672 
Q 1544 4750 1819 4750 
Q 2544 4750 2975 4387 
Q 3406 4025 3406 3419 
Q 3406 3131 3298 2873 
Q 3191 2616 2906 2266 
Q 2828 2175 2409 1742 
Q 1991 1309 1228 531 
z
" transform="scale(0.015625)"/>
       </defs>
       <use xlink:href="#DejaVuSans-32"/>
       <use xlink:href="#DejaVuSans-30" x="63.623047"/>
       <use xlink:href="#DejaVuSans-30" x="127.246094"/>
      </g>
     </g>
    </g>
    <g id="ytick_3">
     <g id="line2d_11">
      <g>
       <use xlink:href="#mfa3b5793d0" x="448.096737" y="641.225615" style="stroke: #000000; stroke-width: 0.8"/>
      </g>
     </g>
     <g id="text_11">
      <!-- 400 -->
      <g transform="translate(422.009237 645.024834) scale(0.1 -0.1)">
       <use xlink:href="#DejaVuSans-34"/>
       <use xlink:href="#DejaVuSans-30" x="63.623047"/>
       <use xlink:href="#DejaVuSans-30" x="127.246094"/>
      </g>
     </g>
    </g>
    <g id="ytick_4">
     <g id="line2d_12">
      <g>
       <use xlink:href="#mfa3b5793d0" x="448.096737" y="496.562098" style="stroke: #000000; stroke-width: 0.8"/>
      </g>
     </g>
     <g id="text_12">
      <!-- 600 -->
      <g transform="translate(422.009237 500.361316) scale(0.1 -0.1)">
       <use xlink:href="#DejaVuSans-36"/>
       <use xlink:href="#DejaVuSans-30" x="63.623047"/>
       <use xlink:href="#DejaVuSans-30" x="127.246094"/>
      </g>
     </g>
    </g>
    <g id="ytick_5">
     <g id="line2d_13">
      <g>
       <use xlink:href="#mfa3b5793d0" x="448.096737" y="351.89858" style="stroke: #000000; stroke-width: 0.8"/>
      </g>
     </g>
     <g id="text_13">
      <!-- 800 -->
      <g transform="translate(422.009237 355.697799) scale(0.1 -0.1)">
       <use xlink:href="#DejaVuSans-38"/>
       <use xlink:href="#DejaVuSans-30" x="63.623047"/>
       <use xlink:href="#DejaVuSans-30" x="127.246094"/>
      </g>
     </g>
    </g>
    <g id="ytick_6">
     <g id="line2d_14">
      <g>
       <use xlink:href="#mfa3b5793d0" x="448.096737" y="207.235062" style="stroke: #000000; stroke-width: 0.8"/>
      </g>
     </g>
     <g id="text_14">
      <!-- 1000 -->
      <g transform="translate(415.646737 211.034281) scale(0.1 -0.1)">
       <use xlink:href="#DejaVuSans-31"/>
       <use xlink:href="#DejaVuSans-30" x="63.623047"/>
       <use xlink:href="#DejaVuSans-30" x="127.246094"/>
       <use xlink:href="#DejaVuSans-30" x="190.869141"/>
      </g>
     </g>
    </g>
   </g>
   <g id="LineCollection_1">
    <path d="M 965.186042 167.50519 
L 965.231552 182.526429 
L 965.231916 182.597979 
L 965.337119 197.30852 
L 965.337642 197.367599 
L 965.489731 211.77656 
L 965.49027 211.821956 
L 965.676183 225.93758 
L 965.676614 225.968206 
L 965.883396 239.812866 
L 966.097396 253.36275 
L 966.305639 266.630332 
L 966.495173 279.613243 
L 966.653531 292.316253 
L 966.768691 304.7439 
L 966.82916 316.900549 
L 966.824029 328.790456 
L 966.743032 340.417814 
L 966.57659 351.786811 
L 966.315841 362.901672 
L 965.952667 373.7667 
L 965.479707 384.386315 
L 964.890361 394.76509 
L 964.17879 404.907773 
L 963.339899 414.819317 
L 962.369317 424.504893 
L 961.263374 433.969904 
L 960.019057 443.219991 
L 958.633975 452.261025 
L 957.106314 461.099104 
L 955.43478 469.740531 
L 953.618556 478.191787 
L 951.657244 486.459504 
L 949.550814 494.55042 
L 947.299553 502.471335 
L 944.90402 510.229066 
L 942.364998 517.830392 
L 939.683455 525.282003 
L 936.860508 532.590449 
L 933.897388 539.762091 
L 930.79541 546.803059 
L 927.555947 553.719208 
L 924.180402 560.51609 
L 920.670179 567.198925 
L 917.02666 573.77258 
L 913.251174 580.241555 
L 909.344972 586.609976 
L 905.309191 592.881594 
L 901.144826 599.059783 
L 896.852694 605.147552 
L 892.433401 611.14755 
L 887.887307 617.062085 
L 883.214488 622.893137 
L 878.414709 628.642377 
L 873.487387 634.311193 
L 868.43156 639.900708 
L 863.245866 645.411809 
L 857.928517 650.845174 
L 852.47728 656.201303 
L 846.889466 661.480544 
L 841.161927 666.68313 
L 835.29105 671.809213 
L 829.272774 676.858896 
L 823.102603 681.832272 
L 816.775639 686.729462 
L 810.286623 691.550655 
L 803.629985 696.296153 
L 796.799916 700.966414 
L 789.790445 705.562104 
L 782.59554 710.084154 
L 775.209214 714.533822 
L 767.625661 718.912765 
L 759.839386 723.223122 
L 751.84537 727.467602 
L 743.639237 731.649597 
L 735.217429 735.773294 
L 726.577405 739.843817 
L 717.717833 743.867372 
L 708.638804 747.851415 
L 699.342041 751.80484 
L 689.831121 755.73818 
L 680.111698 759.663827 
L 670.19173 763.596284 
L 660.081714 767.552428 
L 649.792627 771.552702 
L 639.372056 775.607484 
L 639.323181 775.626587 
L 628.808388 779.754673 
L 628.71037 779.793499 
L 618.12955 784.021848 
L 617.97696 784.083668 
L 607.362737 788.442555 
L 607.149475 788.531798 
L 596.539282 793.055077 
L 596.258537 793.177701 
L 585.695015 797.903081 
L 585.339282 798.067053 
L 574.870699 803.036392 
L 574.431937 803.252292 
L 564.112625 808.511896 
L 563.582658 808.793659 
L 553.47347 814.394597 
L 552.844794 814.760329 
L 543.013574 820.758765 
L 542.280812 821.231511 
L 532.802896 827.689043 
L 531.965175 828.297149 
L 522.923906 835.281165 
L 521.9884 836.057598 
L 513.475661 843.641646 
L 512.462158 844.621219 
L 504.578933 852.885391 
L 503.524445 854.098662 
L 496.381396 863.129989 
L 495.34237 864.593216 
L 489.06044 874.486086 
L 488.108956 876.188944 
L 482.81999 887.045524 
L 482.031282 888.941914 
L 477.878673 900.872595 
L 477.312221 902.881916 
L 474.451579 916.005773 
" clip-path="url(#p652147bdca)" style="fill: none; stroke: #1f77b4; stroke-width: 1.5"/>
    <path d="M 982.545584 167.452595 
L 982.591095 182.473834 
L 982.696297 197.184376 
L 982.848387 211.593336 
L 983.0343 225.708961 
L 983.240854 239.538731 
L 983.454867 253.089465 
L 983.663272 266.367413 
L 983.853216 279.378346 
L 984.01215 292.127629 
L 984.127914 304.620297 
L 984.188801 316.861121 
L 984.183625 328.854665 
L 984.101769 340.605338 
L 983.933232 352.117444 
L 983.668661 363.395221 
L 983.299383 374.442875 
L 982.817421 385.264613 
L 982.21551 395.864667 
L 981.487104 406.247314 
L 980.626373 416.416895 
L 979.628199 426.377823 
L 978.488164 436.134592 
L 977.202536 445.691786 
L 975.768239 455.054071 
L 974.182836 464.2262 
L 972.444495 473.213006 
L 970.551952 482.019392 
L 968.504477 490.65032 
L 966.301832 499.110801 
L 963.944228 507.405881 
L 961.432278 515.540619 
L 958.766951 523.520074 
L 955.949524 531.349287 
L 952.981528 539.033257 
L 949.864698 546.576921 
L 946.600925 553.985136 
L 943.1922 561.262656 
L 939.640565 568.414107 
L 935.94806 575.443975 
L 932.116677 582.356575 
L 928.148308 589.156039 
L 924.044701 595.846296 
L 919.807416 602.431052 
L 915.43778 608.913777 
L 910.936853 615.297692 
L 906.305388 621.585754 
L 901.543799 627.780649 
L 896.65214 633.884785 
L 891.630071 639.900287 
L 886.476846 645.828999 
L 881.1913 651.672482 
L 875.771836 657.432023 
L 870.216426 663.108644 
L 864.522613 668.703115 
L 858.687525 674.215977 
L 852.707887 679.647556 
L 846.58005 684.998 
L 840.300024 690.267306 
L 833.863515 695.45536 
L 827.265977 700.56198 
L 820.502668 705.586967 
L 813.56872 710.530158 
L 806.459212 715.391494 
L 799.16926 720.171078 
L 791.694111 724.869263 
L 784.029254 729.486724 
L 776.170534 734.024555 
L 768.114289 738.484363 
L 759.857484 742.868373 
L 751.397872 747.179545 
L 742.734155 751.421693 
L 733.866169 755.599614 
L 724.795072 759.719232 
L 715.523554 763.787743 
L 706.056055 767.813773 
L 696.399002 771.807547 
L 686.561058 775.781065 
L 676.553386 779.74829 
L 666.389929 783.725346 
L 656.08771 787.730724 
L 645.667139 791.785506 
L 635.152346 795.913592 
L 624.571527 800.141942 
L 613.957304 804.500829 
L 603.34711 809.024108 
L 592.783588 813.749488 
L 582.315005 818.718827 
L 571.995694 823.978431 
L 561.886506 829.579369 
L 552.055286 835.577805 
L 542.57737 842.035336 
L 533.536101 849.019352 
L 525.023362 856.6034 
L 517.140136 864.867571 
L 509.997088 873.898899 
L 503.715158 883.791768 
L 498.426192 894.648348 
L 494.273584 906.579029 
L 491.412942 919.702887 
" clip-path="url(#p652147bdca)" style="fill: none; stroke: #8c564b; stroke-width: 1.5"/>
    <path d="M 999.905127 167.4 
L 1000.055264 197.030691 
L 1000.598429 239.27204 
L 1001.371027 291.966773 
L 1001.548421 316.868613 
L 1001.459531 340.859456 
L 1001.018594 363.975159 
L 1000.641814 375.215246 
L 1000.149123 386.248772 
L 999.532568 397.079564 
L 998.78488 407.71136 
L 997.899484 418.147815 
L 996.870516 428.392509 
L 995.692821 438.448954 
L 994.361959 448.320599 
L 992.874203 458.010836 
L 991.226532 467.523007 
L 989.416616 476.860413 
L 987.442805 486.026331 
L 985.304097 495.024019 
L 983.000112 503.85674 
L 980.53105 512.527775 
L 977.897649 521.04044 
L 975.101126 529.398104 
L 972.143121 537.604197 
L 969.02563 545.662228 
L 965.750933 553.575781 
L 962.321518 561.348522 
L 958.740012 568.984187 
L 955.009096 576.486575 
L 951.131438 583.859526 
L 947.109618 591.1069 
L 942.946061 598.232545 
L 938.642977 605.240274 
L 934.202301 612.133822 
L 929.62565 618.916819 
L 924.914275 625.592748 
L 920.069029 632.164915 
L 915.090342 638.636415 
L 909.978197 645.010102 
L 904.73212 651.288561 
L 899.351178 657.474087 
L 893.83398 663.568664 
L 888.178687 669.573956 
L 882.383036 675.491296 
L 876.44436 681.32169 
L 870.359627 687.065821 
L 864.125478 692.724065 
L 857.738275 698.296515 
L 851.19416 703.783011 
L 844.489112 709.183184 
L 837.619018 714.496506 
L 830.579742 719.72235 
L 823.367211 724.860059 
L 815.97749 729.90903 
L 808.40688 734.868794 
L 800.652006 739.739119 
L 792.709922 744.520103 
L 784.57822 749.212291 
L 776.255146 753.816777 
L 767.739726 758.33533 
L 759.03191 762.770503 
L 750.132719 767.12576 
L 741.044422 771.405599 
L 731.77072 775.615673 
L 722.316956 779.762916 
L 702.900246 787.90383 
L 682.879291 795.914286 
L 631.089945 816.231487 
L 620.658799 820.515192 
L 610.295852 824.933065 
L 600.050953 829.515916 
L 589.980214 834.296403 
L 580.146183 839.308666 
L 570.617712 844.587861 
L 561.469318 850.169676 
L 552.779775 856.090071 
L 544.629651 862.385712 
L 537.097714 869.095958 
L 530.256701 876.267554 
L 524.170159 883.963084 
L 518.89353 892.272793 
L 514.482939 901.326346 
L 511.012239 911.297864 
L 508.374305 923.4 
L 508.374305 923.4 
" clip-path="url(#p652147bdca)" style="fill: none; stroke: #17becf; stroke-width: 1.5"/>
   </g>
   <g id="patch_3">
    <path d="M 448.096737 961.2 
L 448.096737 129.6 
" style="fill: none; stroke: #000000; stroke-width: 0.8; stroke-linejoin: miter; stroke-linecap: square"/>
   </g>
   <g id="patch_4">
    <path d="M 1027.903263 961.2 
L 1027.903263 129.6 
" style="fill: none; stroke: #000000; stroke-width: 0.8; stroke-linejoin: miter; stroke-linecap: square"/>
   </g>
   <g id="patch_5">
    <path d="M 448.096737 961.2 
L 1027.903263 961.2 
" style="fill: none; stroke: #000000; stroke-width: 0.8; stroke-linejoin: miter; stroke-linecap: square"/>
   </g>
   <g id="patch_6">
    <path d="M 448.096737 129.6 
L 1027.903263 129.6 
" style="fill: none; stroke: #000000; stroke-width: 0.8; stroke-linejoin: miter; stroke-linecap: square"/>
   </g>
  </g>
 </g>
 <defs>
  <clipPath id="p652147bdca">
   <rect x="448.096737" y="129.6" width="579.806527" height="831.6"/>
  </clipPath>
 </defs>
</svg>
