<?xml version="1.0" encoding="utf-8" standalone="no"?>
<!DOCTYPE svg PUBLIC "-//W3C//DTD SVG 1.1//EN"
  "http://www.w3.org/Graphics/SVG/1.1/DTD/svg11.dtd">
<svg xmlns:xlink="http://www.w3.org/1999/xlink" width="1440pt" height="1080pt" viewBox="0 0 1440 1080" xmlns="http://www.w3.org/2000/svg" version="1.1">
 <metadata>
  <rdf:RDF xmlns:dc="http://purl.org/dc/elements/1.1/" xmlns:cc="http://creativecommons.org/ns#" xmlns:rdf="http://www.w3.org/1999/02/22-rdf-syntax-ns#">
   <cc:Work>
    <dc:type rdf:resource="http://purl.org/dc/dcmitype/StillImage"/>
    <dc:date>2023-12-11T12:06:57.201672</dc:date>
    <dc:format>image/svg+xml</dc:format>
    <dc:creator>
     <cc:Agent>
      <dc:title>Matplotlib v3.7.1, https://matplotlib.org/</dc:title>
     </cc:Agent>
    </dc:creator>
   </cc:Work>
  </rdf:RDF>
 </metadata>
 <defs>
  <style type="text/css">*{stroke-linejoin: round; stroke-linecap: butt}</style>
 </defs>
 <g id="figure_1">
  <g id="patch_1">
   <path d="M 0 1080 
L 1440 1080 
L 1440 0 
L 0 0 
z
" style="fill: #ffffff"/>
  </g>
  <g id="axes_1">
   <g id="patch_2">
    <path d="M 589.628348 961.2 
L 886.371652 961.2 
L 886.371652 129.6 
L 589.628348 129.6 
z
" style="fill: #ffffff"/>
   </g>
   <g id="matplotlib.axis_1">
    <g id="xtick_1">
     <g id="line2d_1">
      <defs>
       <path id="mf46465bd58" d="M 0 0 
L 0 3.5 
" style="stroke: #000000; stroke-width: 0.8"/>
      </defs>
      <g>
       <use xlink:href="#mf46465bd58" x="620.85956" y="961.2" style="stroke: #000000; stroke-width: 0.8"/>
      </g>
     </g>
     <g id="text_1">
      <!-- 0 -->
      <g transform="translate(617.67831 975.798437) scale(0.1 -0.1)">
       <defs>
        <path id="DejaVuSans-30" d="M 2034 4250 
Q 1547 4250 1301 3770 
Q 1056 3291 1056 2328 
Q 1056 1369 1301 889 
Q 1547 409 2034 409 
Q 2525 409 2770 889 
Q 3016 1369 3016 2328 
Q 3016 3291 2770 3770 
Q 2525 4250 2034 4250 
z
M 2034 4750 
Q 2819 4750 3233 4129 
Q 3647 3509 3647 2328 
Q 3647 1150 3233 529 
Q 2819 -91 2034 -91 
Q 1250 -91 836 529 
Q 422 1150 422 2328 
Q 422 3509 836 4129 
Q 1250 4750 2034 4750 
z
" transform="scale(0.015625)"/>
       </defs>
       <use xlink:href="#DejaVuSans-30"/>
      </g>
     </g>
    </g>
    <g id="xtick_2">
     <g id="line2d_2">
      <g>
       <use xlink:href="#mf46465bd58" x="685.812054" y="961.2" style="stroke: #000000; stroke-width: 0.8"/>
      </g>
     </g>
     <g id="text_2">
      <!-- 100 -->
      <g transform="translate(676.268304 975.798437) scale(0.1 -0.1)">
       <defs>
        <path id="DejaVuSans-31" d="M 794 531 
L 1825 531 
L 1825 4091 
L 703 3866 
L 703 4441 
L 1819 4666 
L 2450 4666 
L 2450 531 
L 3481 531 
L 3481 0 
L 794 0 
L 794 531 
z
" transform="scale(0.015625)"/>
       </defs>
       <use xlink:href="#DejaVuSans-31"/>
       <use xlink:href="#DejaVuSans-30" x="63.623047"/>
       <use xlink:href="#DejaVuSans-30" x="127.246094"/>
      </g>
     </g>
    </g>
    <g id="xtick_3">
     <g id="line2d_3">
      <g>
       <use xlink:href="#mf46465bd58" x="750.764548" y="961.2" style="stroke: #000000; stroke-width: 0.8"/>
      </g>
     </g>
     <g id="text_3">
      <!-- 200 -->
      <g transform="translate(741.220798 975.798437) scale(0.1 -0.1)">
       <defs>
        <path id="DejaVuSans-32" d="M 1228 531 
L 3431 531 
L 3431 0 
L 469 0 
L 469 531 
Q 828 903 1448 1529 
Q 2069 2156 2228 2338 
Q 2531 2678 2651 2914 
Q 2772 3150 2772 3378 
Q 2772 3750 2511 3984 
Q 2250 4219 1831 4219 
Q 1534 4219 1204 4116 
Q 875 4013 500 3803 
L 500 4441 
Q 881 4594 1212 4672 
Q 1544 4750 1819 4750 
Q 2544 4750 2975 4387 
Q 3406 4025 3406 3419 
Q 3406 3131 3298 2873 
Q 3191 2616 2906 2266 
Q 2828 2175 2409 1742 
Q 1991 1309 1228 531 
z
" transform="scale(0.015625)"/>
       </defs>
       <use xlink:href="#DejaVuSans-32"/>
       <use xlink:href="#DejaVuSans-30" x="63.623047"/>
       <use xlink:href="#DejaVuSans-30" x="127.246094"/>
      </g>
     </g>
    </g>
    <g id="xtick_4">
     <g id="line2d_4">
      <g>
       <use xlink:href="#mf46465bd58" x="815.717042" y="961.2" style="stroke: #000000; stroke-width: 0.8"/>
      </g>
     </g>
     <g id="text_4">
      <!-- 300 -->
      <g transform="translate(806.173292 975.798437) scale(0.1 -0.1)">
       <defs>
        <path id="DejaVuSans-33" d="M 2597 2516 
Q 3050 2419 3304 2112 
Q 3559 1806 3559 1356 
Q 3559 666 3084 287 
Q 2609 -91 1734 -91 
Q 1441 -91 1130 -33 
Q 819 25 488 141 
L 488 750 
Q 750 597 1062 519 
Q 1375 441 1716 441 
Q 2309 441 2620 675 
Q 2931 909 2931 1356 
Q 2931 1769 2642 2001 
Q 2353 2234 1838 2234 
L 1294 2234 
L 1294 2753 
L 1863 2753 
Q 2328 2753 2575 2939 
Q 2822 3125 2822 3475 
Q 2822 3834 2567 4026 
Q 2313 4219 1838 4219 
Q 1578 4219 1281 4162 
Q 984 4106 628 3988 
L 628 4550 
Q 988 4650 1302 4700 
Q 1616 4750 1894 4750 
Q 2613 4750 3031 4423 
Q 3450 4097 3450 3541 
Q 3450 3153 3228 2886 
Q 3006 2619 2597 2516 
z
" transform="scale(0.015625)"/>
       </defs>
       <use xlink:href="#DejaVuSans-33"/>
       <use xlink:href="#DejaVuSans-30" x="63.623047"/>
       <use xlink:href="#DejaVuSans-30" x="127.246094"/>
      </g>
     </g>
    </g>
    <g id="xtick_5">
     <g id="line2d_5">
      <g>
       <use xlink:href="#mf46465bd58" x="880.669536" y="961.2" style="stroke: #000000; stroke-width: 0.8"/>
      </g>
     </g>
     <g id="text_5">
      <!-- 400 -->
      <g transform="translate(871.125786 975.798437) scale(0.1 -0.1)">
       <defs>
        <path id="DejaVuSans-34" d="M 2419 4116 
L 825 1625 
L 2419 1625 
L 2419 4116 
z
M 2253 4666 
L 3047 4666 
L 3047 1625 
L 3713 1625 
L 3713 1100 
L 3047 1100 
L 3047 0 
L 2419 0 
L 2419 1100 
L 313 1100 
L 313 1709 
L 2253 4666 
z
" transform="scale(0.015625)"/>
       </defs>
       <use xlink:href="#DejaVuSans-34"/>
       <use xlink:href="#DejaVuSans-30" x="63.623047"/>
       <use xlink:href="#DejaVuSans-30" x="127.246094"/>
      </g>
     </g>
    </g>
   </g>
   <g id="matplotlib.axis_2">
    <g id="ytick_1">
     <g id="line2d_6">
      <defs>
       <path id="mf3cc4cdff4" d="M 0 0 
L -3.5 0 
" style="stroke: #000000; stroke-width: 0.8"/>
      </defs>
      <g>
       <use xlink:href="#mf3cc4cdff4" x="589.628348" y="833.160053" style="stroke: #000000; stroke-width: 0.8"/>
      </g>
     </g>
     <g id="text_6">
      <!-- 200 -->
      <g transform="translate(563.540848 836.959272) scale(0.1 -0.1)">
       <use xlink:href="#DejaVuSans-32"/>
       <use xlink:href="#DejaVuSans-30" x="63.623047"/>
       <use xlink:href="#DejaVuSans-30" x="127.246094"/>
      </g>
     </g>
    </g>
    <g id="ytick_2">
     <g id="line2d_7">
      <g>
       <use xlink:href="#mf3cc4cdff4" x="589.628348" y="703.255065" style="stroke: #000000; stroke-width: 0.8"/>
      </g>
     </g>
     <g id="text_7">
      <!-- 400 -->
      <g transform="translate(563.540848 707.054284) scale(0.1 -0.1)">
       <use xlink:href="#DejaVuSans-34"/>
       <use xlink:href="#DejaVuSans-30" x="63.623047"/>
       <use xlink:href="#DejaVuSans-30" x="127.246094"/>
      </g>
     </g>
    </g>
    <g id="ytick_3">
     <g id="line2d_8">
      <g>
       <use xlink:href="#mf3cc4cdff4" x="589.628348" y="573.350077" style="stroke: #000000; stroke-width: 0.8"/>
      </g>
     </g>
     <g id="text_8">
      <!-- 600 -->
      <g transform="translate(563.540848 577.149296) scale(0.1 -0.1)">
       <defs>
        <path id="DejaVuSans-36" d="M 2113 2584 
Q 1688 2584 1439 2293 
Q 1191 2003 1191 1497 
Q 1191 994 1439 701 
Q 1688 409 2113 409 
Q 2538 409 2786 701 
Q 3034 994 3034 1497 
Q 3034 2003 2786 2293 
Q 2538 2584 2113 2584 
z
M 3366 4563 
L 3366 3988 
Q 3128 4100 2886 4159 
Q 2644 4219 2406 4219 
Q 1781 4219 1451 3797 
Q 1122 3375 1075 2522 
Q 1259 2794 1537 2939 
Q 1816 3084 2150 3084 
Q 2853 3084 3261 2657 
Q 3669 2231 3669 1497 
Q 3669 778 3244 343 
Q 2819 -91 2113 -91 
Q 1303 -91 875 529 
Q 447 1150 447 2328 
Q 447 3434 972 4092 
Q 1497 4750 2381 4750 
Q 2619 4750 2861 4703 
Q 3103 4656 3366 4563 
z
" transform="scale(0.015625)"/>
       </defs>
       <use xlink:href="#DejaVuSans-36"/>
       <use xlink:href="#DejaVuSans-30" x="63.623047"/>
       <use xlink:href="#DejaVuSans-30" x="127.246094"/>
      </g>
     </g>
    </g>
    <g id="ytick_4">
     <g id="line2d_9">
      <g>
       <use xlink:href="#mf3cc4cdff4" x="589.628348" y="443.445089" style="stroke: #000000; stroke-width: 0.8"/>
      </g>
     </g>
     <g id="text_9">
      <!-- 800 -->
      <g transform="translate(563.540848 447.244308) scale(0.1 -0.1)">
       <defs>
        <path id="DejaVuSans-38" d="M 2034 2216 
Q 1584 2216 1326 1975 
Q 1069 1734 1069 1313 
Q 1069 891 1326 650 
Q 1584 409 2034 409 
Q 2484 409 2743 651 
Q 3003 894 3003 1313 
Q 3003 1734 2745 1975 
Q 2488 2216 2034 2216 
z
M 1403 2484 
Q 997 2584 770 2862 
Q 544 3141 544 3541 
Q 544 4100 942 4425 
Q 1341 4750 2034 4750 
Q 2731 4750 3128 4425 
Q 3525 4100 3525 3541 
Q 3525 3141 3298 2862 
Q 3072 2584 2669 2484 
Q 3125 2378 3379 2068 
Q 3634 1759 3634 1313 
Q 3634 634 3220 271 
Q 2806 -91 2034 -91 
Q 1263 -91 848 271 
Q 434 634 434 1313 
Q 434 1759 690 2068 
Q 947 2378 1403 2484 
z
M 1172 3481 
Q 1172 3119 1398 2916 
Q 1625 2713 2034 2713 
Q 2441 2713 2670 2916 
Q 2900 3119 2900 3481 
Q 2900 3844 2670 4047 
Q 2441 4250 2034 4250 
Q 1625 4250 1398 4047 
Q 1172 3844 1172 3481 
z
" transform="scale(0.015625)"/>
       </defs>
       <use xlink:href="#DejaVuSans-38"/>
       <use xlink:href="#DejaVuSans-30" x="63.623047"/>
       <use xlink:href="#DejaVuSans-30" x="127.246094"/>
      </g>
     </g>
    </g>
    <g id="ytick_5">
     <g id="line2d_10">
      <g>
       <use xlink:href="#mf3cc4cdff4" x="589.628348" y="313.540101" style="stroke: #000000; stroke-width: 0.8"/>
      </g>
     </g>
     <g id="text_10">
      <!-- 1000 -->
      <g transform="translate(557.178348 317.33932) scale(0.1 -0.1)">
       <use xlink:href="#DejaVuSans-31"/>
       <use xlink:href="#DejaVuSans-30" x="63.623047"/>
       <use xlink:href="#DejaVuSans-30" x="127.246094"/>
       <use xlink:href="#DejaVuSans-30" x="190.869141"/>
      </g>
     </g>
    </g>
    <g id="ytick_6">
     <g id="line2d_11">
      <g>
       <use xlink:href="#mf3cc4cdff4" x="589.628348" y="183.635113" style="stroke: #000000; stroke-width: 0.8"/>
      </g>
     </g>
     <g id="text_11">
      <!-- 1200 -->
      <g transform="translate(557.178348 187.434332) scale(0.1 -0.1)">
       <use xlink:href="#DejaVuSans-31"/>
       <use xlink:href="#DejaVuSans-32" x="63.623047"/>
       <use xlink:href="#DejaVuSans-30" x="127.246094"/>
       <use xlink:href="#DejaVuSans-30" x="190.869141"/>
      </g>
     </g>
    </g>
   </g>
   <g id="LineCollection_1">
    <path d="M 734.721423 923.4 
L 743.467124 911.880653 
L 759.896197 889.691199 
L 775.078299 868.520603 
L 789.152962 848.245447 
L 802.200245 828.755634 
L 808.350687 819.27406 
L 814.254045 809.952714 
L 819.909227 800.780813 
L 825.313598 791.748085 
L 830.463229 782.844729 
L 835.353135 774.061382 
L 839.977472 765.389112 
L 844.32972 756.819416 
L 848.402841 748.344254 
L 852.189416 739.956099 
L 855.681782 731.648022 
L 858.872161 723.413792 
L 861.7528 715.248017 
L 864.316136 707.146285 
L 866.554982 699.105316 
L 868.462759 691.123096 
L 870.03376 683.198972 
L 871.263452 675.333689 
L 872.148783 667.529332 
L 872.688483 659.789181 
L 872.88332 652.117454 
L 872.736279 644.518969 
L 872.25263 636.998749 
L 871.439892 629.561605 
L 870.307666 622.211756 
L 868.867386 614.952509 
L 867.131994 607.786038 
L 865.115592 600.713271 
L 862.833094 593.73387 
L 860.299906 586.846312 
L 857.531663 580.04801 
L 854.544004 573.335491 
L 851.352411 566.704576 
L 847.972089 560.150559 
L 844.41788 553.668368 
L 840.704203 547.25271 
L 836.845014 540.898183 
L 832.85377 534.599368 
L 828.743404 528.350892 
L 820.214248 515.983987 
L 811.349451 503.756894 
L 802.230707 491.631436 
L 788.22762 473.556106 
L 764.445353 443.4553 
L 745.297144 419.12639 
L 730.943278 400.600025 
L 716.61899 381.740683 
L 707.106567 368.945266 
L 697.657657 355.947979 
L 688.327161 342.730441 
L 679.20337 329.276669 
L 674.758233 322.457159 
L 670.41824 315.574398 
L 666.208391 308.627842 
L 662.157612 301.617557 
L 658.298926 294.544333 
L 654.669497 287.409764 
L 651.310523 280.216206 
L 648.266905 272.966488 
L 645.586721 265.663194 
L 643.320575 258.307236 
L 641.521089 250.895409 
L 640.243094 243.416734 
L 639.545358 235.847748 
L 639.49481 228.147683 
L 640.173647 220.255427 
L 641.688322 212.090604 
L 644.177641 203.560175 
L 647.816497 194.569305 
L 653.206956 184.281627 
L 653.206956 184.281627 
" clip-path="url(#p116f62a22e)" style="fill: none; stroke: #1f77b4; stroke-width: 1.5"/>
    <path d="M 720.236876 912.402096 
L 728.892746 901.002074 
L 737.190275 889.88561 
L 745.156645 879.037486 
L 752.813918 868.443549 
L 760.179578 858.09064 
L 767.267046 847.96652 
L 774.086157 838.059801 
L 780.643616 828.359882 
L 786.943419 818.856883 
L 792.987253 809.541595 
L 798.774862 800.405416 
L 804.304392 791.440303 
L 809.572709 782.638725 
L 814.575693 773.993617 
L 819.308505 765.498331 
L 823.765837 757.146606 
L 827.942136 748.932522 
L 831.831804 740.850473 
L 835.429384 732.895127 
L 838.729718 725.061404 
L 841.728094 717.344444 
L 844.42037 709.739583 
L 846.803077 702.242334 
L 848.873514 694.848359 
L 850.62982 687.553459 
L 852.071033 680.35355 
L 853.197132 673.244653 
L 854.00907 666.222878 
L 854.508791 659.284413 
L 854.699231 652.425516 
L 854.584318 645.642503 
L 854.168949 638.931745 
L 853.458965 632.289656 
L 852.461114 625.712695 
L 851.183007 619.197357 
L 849.633065 612.740174 
L 847.820458 606.337709 
L 845.755041 599.98656 
L 843.447285 593.683353 
L 840.908194 587.424749 
L 838.149235 581.207439 
L 835.18225 575.028151 
L 832.019371 568.883645 
L 828.672937 562.770718 
L 825.155404 556.686206 
L 821.47926 550.626986 
L 817.656936 544.589975 
L 813.700725 538.572135 
L 809.622698 532.570472 
L 805.434623 526.582038 
L 801.147893 520.603933 
L 796.773451 514.6333 
L 792.32173 508.667332 
L 787.802589 502.703265 
L 783.225262 496.738377 
L 778.598315 490.769988 
L 773.929609 484.795452 
L 769.226273 478.812154 
L 764.494684 472.817505 
L 759.740469 466.808932 
L 754.9685 460.783873 
L 750.182921 454.739761 
L 745.387172 448.674017 
L 740.584039 442.584038 
L 735.775708 436.467173 
L 730.963845 430.320718 
L 726.149681 424.141888 
L 721.334126 417.927799 
L 716.517889 411.675447 
L 711.701624 405.381681 
L 706.886094 399.043174 
L 702.072352 392.656396 
L 697.261948 386.21758 
L 692.457148 379.722689 
L 687.661191 373.167374 
L 682.878551 366.546939 
L 678.115234 359.856295 
L 673.379102 353.089915 
L 668.68021 346.241782 
L 664.031181 339.305341 
L 659.447604 332.273442 
L 654.948456 325.138278 
L 650.556557 317.891328 
L 646.299056 310.523288 
L 642.207938 303.024002 
L 638.320571 295.382389 
L 634.680282 287.586369 
L 631.336961 279.622777 
L 628.347704 271.477284 
L 625.777487 263.134305 
L 623.699873 254.576906 
L 622.197758 245.786709 
L 621.36415 236.743789 
L 621.302986 227.42657 
L 622.129989 217.81171 
L 623.973559 207.873994 
L 626.975704 197.586205 
L 631.293016 186.919008 
L 637.097684 175.840814 
" clip-path="url(#p116f62a22e)" style="fill: none; stroke: #8c564b; stroke-width: 1.5"/>
    <path d="M 705.752329 901.404192 
L 714.363038 890.063647 
L 730.457309 868.328134 
L 745.320544 847.603987 
L 759.0621 827.810922 
L 771.735459 808.882817 
L 777.676672 799.725697 
L 783.352998 790.765186 
L 788.761696 781.995981 
L 793.898995 773.413289 
L 798.760426 765.012782 
L 803.341122 756.790541 
L 807.636112 748.742997 
L 811.640587 740.866863 
L 815.35015 733.159041 
L 818.76104 725.616523 
L 821.870333 718.236258 
L 824.676106 711.015004 
L 827.177558 703.94916 
L 829.375088 697.034574 
L 831.270303 690.266357 
L 832.865966 683.638697 
L 834.165874 677.144708 
L 835.174669 670.776337 
L 835.897596 664.52434 
L 836.34024 658.378361 
L 836.508256 652.327114 
L 836.407143 646.358662 
L 836.042087 640.460772 
L 835.417897 634.621312 
L 834.539038 628.828639 
L 833.409754 623.071949 
L 832.034261 617.341536 
L 830.416969 611.62896 
L 828.562707 605.927108 
L 826.476916 600.230159 
L 824.165798 594.533486 
L 821.636403 588.833498 
L 818.896654 583.12747 
L 815.955322 577.413361 
L 812.821956 571.689646 
L 809.506781 565.955167 
L 806.020573 560.20901 
L 802.374521 554.450404 
L 794.648879 542.893057 
L 786.422418 531.277499 
L 777.785826 519.597474 
L 768.824437 507.845774 
L 754.939444 490.065725 
L 711.774234 435.282018 
L 697.220152 416.383634 
L 682.641188 397.033744 
L 672.918897 383.817293 
L 663.215765 370.285188 
L 653.572872 356.367212 
L 644.21181 342.204533 
L 639.395048 334.564173 
L 634.809711 326.990385 
L 630.33357 319.233009 
L 625.998129 311.270098 
L 621.841831 303.077005 
L 617.911428 294.626365 
L 614.263646 285.888392 
L 610.967083 276.831722 
L 608.104206 267.425124 
L 605.773039 257.640338 
L 604.087844 247.456145 
L 603.177843 236.863175 
L 603.183192 225.868032 
L 604.248384 214.494452 
L 606.515031 202.77931 
L 610.117402 190.76318 
L 615.183744 178.478194 
L 620.988411 167.4 
L 620.988411 167.4 
" clip-path="url(#p116f62a22e)" style="fill: none; stroke: #17becf; stroke-width: 1.5"/>
   </g>
   <g id="patch_3">
    <path d="M 589.628348 961.2 
L 589.628348 129.6 
" style="fill: none; stroke: #000000; stroke-width: 0.8; stroke-linejoin: miter; stroke-linecap: square"/>
   </g>
   <g id="patch_4">
    <path d="M 886.371652 961.2 
L 886.371652 129.6 
" style="fill: none; stroke: #000000; stroke-width: 0.8; stroke-linejoin: miter; stroke-linecap: square"/>
   </g>
   <g id="patch_5">
    <path d="M 589.628348 961.2 
L 886.371652 961.2 
" style="fill: none; stroke: #000000; stroke-width: 0.8; stroke-linejoin: miter; stroke-linecap: square"/>
   </g>
   <g id="patch_6">
    <path d="M 589.628348 129.6 
L 886.371652 129.6 
" style="fill: none; stroke: #000000; stroke-width: 0.8; stroke-linejoin: miter; stroke-linecap: square"/>
   </g>
  </g>
 </g>
 <defs>
  <clipPath id="p116f62a22e">
   <rect x="589.628348" y="129.6" width="296.743305" height="831.6"/>
  </clipPath>
 </defs>
</svg>
