<?xml version="1.0" encoding="utf-8" standalone="no"?>
<!DOCTYPE svg PUBLIC "-//W3C//DTD SVG 1.1//EN"
  "http://www.w3.org/Graphics/SVG/1.1/DTD/svg11.dtd">
<svg xmlns:xlink="http://www.w3.org/1999/xlink" width="1440pt" height="1080pt" viewBox="0 0 1440 1080" xmlns="http://www.w3.org/2000/svg" version="1.1">
 <metadata>
  <rdf:RDF xmlns:dc="http://purl.org/dc/elements/1.1/" xmlns:cc="http://creativecommons.org/ns#" xmlns:rdf="http://www.w3.org/1999/02/22-rdf-syntax-ns#">
   <cc:Work>
    <dc:type rdf:resource="http://purl.org/dc/dcmitype/StillImage"/>
    <dc:date>2023-12-11T12:06:37.033841</dc:date>
    <dc:format>image/svg+xml</dc:format>
    <dc:creator>
     <cc:Agent>
      <dc:title>Matplotlib v3.7.1, https://matplotlib.org/</dc:title>
     </cc:Agent>
    </dc:creator>
   </cc:Work>
  </rdf:RDF>
 </metadata>
 <defs>
  <style type="text/css">*{stroke-linejoin: round; stroke-linecap: butt}</style>
 </defs>
 <g id="figure_1">
  <g id="patch_1">
   <path d="M 0 1080 
L 1440 1080 
L 1440 0 
L 0 0 
z
" style="fill: #ffffff"/>
  </g>
  <g id="axes_1">
   <g id="patch_2">
    <path d="M 180 792.260493 
L 1296 792.260493 
L 1296 298.539507 
L 180 298.539507 
z
" style="fill: #ffffff"/>
   </g>
   <g id="matplotlib.axis_1">
    <g id="xtick_1">
     <g id="line2d_1">
      <defs>
       <path id="me4cf4bdf2c" d="M 0 0 
L 0 3.5 
" style="stroke: #000000; stroke-width: 0.8"/>
      </defs>
      <g>
       <use xlink:href="#me4cf4bdf2c" x="221.882046" y="792.260493" style="stroke: #000000; stroke-width: 0.8"/>
      </g>
     </g>
     <g id="text_1">
      <!-- 200 -->
      <g transform="translate(212.338296 806.858931) scale(0.1 -0.1)">
       <defs>
        <path id="DejaVuSans-32" d="M 1228 531 
L 3431 531 
L 3431 0 
L 469 0 
L 469 531 
Q 828 903 1448 1529 
Q 2069 2156 2228 2338 
Q 2531 2678 2651 2914 
Q 2772 3150 2772 3378 
Q 2772 3750 2511 3984 
Q 2250 4219 1831 4219 
Q 1534 4219 1204 4116 
Q 875 4013 500 3803 
L 500 4441 
Q 881 4594 1212 4672 
Q 1544 4750 1819 4750 
Q 2544 4750 2975 4387 
Q 3406 4025 3406 3419 
Q 3406 3131 3298 2873 
Q 3191 2616 2906 2266 
Q 2828 2175 2409 1742 
Q 1991 1309 1228 531 
z
" transform="scale(0.015625)"/>
        <path id="DejaVuSans-30" d="M 2034 4250 
Q 1547 4250 1301 3770 
Q 1056 3291 1056 2328 
Q 1056 1369 1301 889 
Q 1547 409 2034 409 
Q 2525 409 2770 889 
Q 3016 1369 3016 2328 
Q 3016 3291 2770 3770 
Q 2525 4250 2034 4250 
z
M 2034 4750 
Q 2819 4750 3233 4129 
Q 3647 3509 3647 2328 
Q 3647 1150 3233 529 
Q 2819 -91 2034 -91 
Q 1250 -91 836 529 
Q 422 1150 422 2328 
Q 422 3509 836 4129 
Q 1250 4750 2034 4750 
z
" transform="scale(0.015625)"/>
       </defs>
       <use xlink:href="#DejaVuSans-32"/>
       <use xlink:href="#DejaVuSans-30" x="63.623047"/>
       <use xlink:href="#DejaVuSans-30" x="127.246094"/>
      </g>
     </g>
    </g>
    <g id="xtick_2">
     <g id="line2d_2">
      <g>
       <use xlink:href="#me4cf4bdf2c" x="381.777168" y="792.260493" style="stroke: #000000; stroke-width: 0.8"/>
      </g>
     </g>
     <g id="text_2">
      <!-- 400 -->
      <g transform="translate(372.233418 806.858931) scale(0.1 -0.1)">
       <defs>
        <path id="DejaVuSans-34" d="M 2419 4116 
L 825 1625 
L 2419 1625 
L 2419 4116 
z
M 2253 4666 
L 3047 4666 
L 3047 1625 
L 3713 1625 
L 3713 1100 
L 3047 1100 
L 3047 0 
L 2419 0 
L 2419 1100 
L 313 1100 
L 313 1709 
L 2253 4666 
z
" transform="scale(0.015625)"/>
       </defs>
       <use xlink:href="#DejaVuSans-34"/>
       <use xlink:href="#DejaVuSans-30" x="63.623047"/>
       <use xlink:href="#DejaVuSans-30" x="127.246094"/>
      </g>
     </g>
    </g>
    <g id="xtick_3">
     <g id="line2d_3">
      <g>
       <use xlink:href="#me4cf4bdf2c" x="541.67229" y="792.260493" style="stroke: #000000; stroke-width: 0.8"/>
      </g>
     </g>
     <g id="text_3">
      <!-- 600 -->
      <g transform="translate(532.12854 806.858931) scale(0.1 -0.1)">
       <defs>
        <path id="DejaVuSans-36" d="M 2113 2584 
Q 1688 2584 1439 2293 
Q 1191 2003 1191 1497 
Q 1191 994 1439 701 
Q 1688 409 2113 409 
Q 2538 409 2786 701 
Q 3034 994 3034 1497 
Q 3034 2003 2786 2293 
Q 2538 2584 2113 2584 
z
M 3366 4563 
L 3366 3988 
Q 3128 4100 2886 4159 
Q 2644 4219 2406 4219 
Q 1781 4219 1451 3797 
Q 1122 3375 1075 2522 
Q 1259 2794 1537 2939 
Q 1816 3084 2150 3084 
Q 2853 3084 3261 2657 
Q 3669 2231 3669 1497 
Q 3669 778 3244 343 
Q 2819 -91 2113 -91 
Q 1303 -91 875 529 
Q 447 1150 447 2328 
Q 447 3434 972 4092 
Q 1497 4750 2381 4750 
Q 2619 4750 2861 4703 
Q 3103 4656 3366 4563 
z
" transform="scale(0.015625)"/>
       </defs>
       <use xlink:href="#DejaVuSans-36"/>
       <use xlink:href="#DejaVuSans-30" x="63.623047"/>
       <use xlink:href="#DejaVuSans-30" x="127.246094"/>
      </g>
     </g>
    </g>
    <g id="xtick_4">
     <g id="line2d_4">
      <g>
       <use xlink:href="#me4cf4bdf2c" x="701.567412" y="792.260493" style="stroke: #000000; stroke-width: 0.8"/>
      </g>
     </g>
     <g id="text_4">
      <!-- 800 -->
      <g transform="translate(692.023662 806.858931) scale(0.1 -0.1)">
       <defs>
        <path id="DejaVuSans-38" d="M 2034 2216 
Q 1584 2216 1326 1975 
Q 1069 1734 1069 1313 
Q 1069 891 1326 650 
Q 1584 409 2034 409 
Q 2484 409 2743 651 
Q 3003 894 3003 1313 
Q 3003 1734 2745 1975 
Q 2488 2216 2034 2216 
z
M 1403 2484 
Q 997 2584 770 2862 
Q 544 3141 544 3541 
Q 544 4100 942 4425 
Q 1341 4750 2034 4750 
Q 2731 4750 3128 4425 
Q 3525 4100 3525 3541 
Q 3525 3141 3298 2862 
Q 3072 2584 2669 2484 
Q 3125 2378 3379 2068 
Q 3634 1759 3634 1313 
Q 3634 634 3220 271 
Q 2806 -91 2034 -91 
Q 1263 -91 848 271 
Q 434 634 434 1313 
Q 434 1759 690 2068 
Q 947 2378 1403 2484 
z
M 1172 3481 
Q 1172 3119 1398 2916 
Q 1625 2713 2034 2713 
Q 2441 2713 2670 2916 
Q 2900 3119 2900 3481 
Q 2900 3844 2670 4047 
Q 2441 4250 2034 4250 
Q 1625 4250 1398 4047 
Q 1172 3844 1172 3481 
z
" transform="scale(0.015625)"/>
       </defs>
       <use xlink:href="#DejaVuSans-38"/>
       <use xlink:href="#DejaVuSans-30" x="63.623047"/>
       <use xlink:href="#DejaVuSans-30" x="127.246094"/>
      </g>
     </g>
    </g>
    <g id="xtick_5">
     <g id="line2d_5">
      <g>
       <use xlink:href="#me4cf4bdf2c" x="861.462534" y="792.260493" style="stroke: #000000; stroke-width: 0.8"/>
      </g>
     </g>
     <g id="text_5">
      <!-- 1000 -->
      <g transform="translate(848.737534 806.858931) scale(0.1 -0.1)">
       <defs>
        <path id="DejaVuSans-31" d="M 794 531 
L 1825 531 
L 1825 4091 
L 703 3866 
L 703 4441 
L 1819 4666 
L 2450 4666 
L 2450 531 
L 3481 531 
L 3481 0 
L 794 0 
L 794 531 
z
" transform="scale(0.015625)"/>
       </defs>
       <use xlink:href="#DejaVuSans-31"/>
       <use xlink:href="#DejaVuSans-30" x="63.623047"/>
       <use xlink:href="#DejaVuSans-30" x="127.246094"/>
       <use xlink:href="#DejaVuSans-30" x="190.869141"/>
      </g>
     </g>
    </g>
    <g id="xtick_6">
     <g id="line2d_6">
      <g>
       <use xlink:href="#me4cf4bdf2c" x="1021.357656" y="792.260493" style="stroke: #000000; stroke-width: 0.8"/>
      </g>
     </g>
     <g id="text_6">
      <!-- 1200 -->
      <g transform="translate(1008.632656 806.858931) scale(0.1 -0.1)">
       <use xlink:href="#DejaVuSans-31"/>
       <use xlink:href="#DejaVuSans-32" x="63.623047"/>
       <use xlink:href="#DejaVuSans-30" x="127.246094"/>
       <use xlink:href="#DejaVuSans-30" x="190.869141"/>
      </g>
     </g>
    </g>
    <g id="xtick_7">
     <g id="line2d_7">
      <g>
       <use xlink:href="#me4cf4bdf2c" x="1181.252778" y="792.260493" style="stroke: #000000; stroke-width: 0.8"/>
      </g>
     </g>
     <g id="text_7">
      <!-- 1400 -->
      <g transform="translate(1168.527778 806.858931) scale(0.1 -0.1)">
       <use xlink:href="#DejaVuSans-31"/>
       <use xlink:href="#DejaVuSans-34" x="63.623047"/>
       <use xlink:href="#DejaVuSans-30" x="127.246094"/>
       <use xlink:href="#DejaVuSans-30" x="190.869141"/>
      </g>
     </g>
    </g>
   </g>
   <g id="matplotlib.axis_2">
    <g id="ytick_1">
     <g id="line2d_8">
      <defs>
       <path id="m70db78b27d" d="M 0 0 
L -3.5 0 
" style="stroke: #000000; stroke-width: 0.8"/>
      </defs>
      <g>
       <use xlink:href="#m70db78b27d" x="180" y="779.86339" style="stroke: #000000; stroke-width: 0.8"/>
      </g>
     </g>
     <g id="text_8">
      <!-- 300 -->
      <g transform="translate(153.9125 783.662609) scale(0.1 -0.1)">
       <defs>
        <path id="DejaVuSans-33" d="M 2597 2516 
Q 3050 2419 3304 2112 
Q 3559 1806 3559 1356 
Q 3559 666 3084 287 
Q 2609 -91 1734 -91 
Q 1441 -91 1130 -33 
Q 819 25 488 141 
L 488 750 
Q 750 597 1062 519 
Q 1375 441 1716 441 
Q 2309 441 2620 675 
Q 2931 909 2931 1356 
Q 2931 1769 2642 2001 
Q 2353 2234 1838 2234 
L 1294 2234 
L 1294 2753 
L 1863 2753 
Q 2328 2753 2575 2939 
Q 2822 3125 2822 3475 
Q 2822 3834 2567 4026 
Q 2313 4219 1838 4219 
Q 1578 4219 1281 4162 
Q 984 4106 628 3988 
L 628 4550 
Q 988 4650 1302 4700 
Q 1616 4750 1894 4750 
Q 2613 4750 3031 4423 
Q 3450 4097 3450 3541 
Q 3450 3153 3228 2886 
Q 3006 2619 2597 2516 
z
" transform="scale(0.015625)"/>
       </defs>
       <use xlink:href="#DejaVuSans-33"/>
       <use xlink:href="#DejaVuSans-30" x="63.623047"/>
       <use xlink:href="#DejaVuSans-30" x="127.246094"/>
      </g>
     </g>
    </g>
    <g id="ytick_2">
     <g id="line2d_9">
      <g>
       <use xlink:href="#m70db78b27d" x="180" y="699.915829" style="stroke: #000000; stroke-width: 0.8"/>
      </g>
     </g>
     <g id="text_9">
      <!-- 400 -->
      <g transform="translate(153.9125 703.715048) scale(0.1 -0.1)">
       <use xlink:href="#DejaVuSans-34"/>
       <use xlink:href="#DejaVuSans-30" x="63.623047"/>
       <use xlink:href="#DejaVuSans-30" x="127.246094"/>
      </g>
     </g>
    </g>
    <g id="ytick_3">
     <g id="line2d_10">
      <g>
       <use xlink:href="#m70db78b27d" x="180" y="619.968268" style="stroke: #000000; stroke-width: 0.8"/>
      </g>
     </g>
     <g id="text_10">
      <!-- 500 -->
      <g transform="translate(153.9125 623.767487) scale(0.1 -0.1)">
       <defs>
        <path id="DejaVuSans-35" d="M 691 4666 
L 3169 4666 
L 3169 4134 
L 1269 4134 
L 1269 2991 
Q 1406 3038 1543 3061 
Q 1681 3084 1819 3084 
Q 2600 3084 3056 2656 
Q 3513 2228 3513 1497 
Q 3513 744 3044 326 
Q 2575 -91 1722 -91 
Q 1428 -91 1123 -41 
Q 819 9 494 109 
L 494 744 
Q 775 591 1075 516 
Q 1375 441 1709 441 
Q 2250 441 2565 725 
Q 2881 1009 2881 1497 
Q 2881 1984 2565 2268 
Q 2250 2553 1709 2553 
Q 1456 2553 1204 2497 
Q 953 2441 691 2322 
L 691 4666 
z
" transform="scale(0.015625)"/>
       </defs>
       <use xlink:href="#DejaVuSans-35"/>
       <use xlink:href="#DejaVuSans-30" x="63.623047"/>
       <use xlink:href="#DejaVuSans-30" x="127.246094"/>
      </g>
     </g>
    </g>
    <g id="ytick_4">
     <g id="line2d_11">
      <g>
       <use xlink:href="#m70db78b27d" x="180" y="540.020707" style="stroke: #000000; stroke-width: 0.8"/>
      </g>
     </g>
     <g id="text_11">
      <!-- 600 -->
      <g transform="translate(153.9125 543.819926) scale(0.1 -0.1)">
       <use xlink:href="#DejaVuSans-36"/>
       <use xlink:href="#DejaVuSans-30" x="63.623047"/>
       <use xlink:href="#DejaVuSans-30" x="127.246094"/>
      </g>
     </g>
    </g>
    <g id="ytick_5">
     <g id="line2d_12">
      <g>
       <use xlink:href="#m70db78b27d" x="180" y="460.073146" style="stroke: #000000; stroke-width: 0.8"/>
      </g>
     </g>
     <g id="text_12">
      <!-- 700 -->
      <g transform="translate(153.9125 463.872365) scale(0.1 -0.1)">
       <defs>
        <path id="DejaVuSans-37" d="M 525 4666 
L 3525 4666 
L 3525 4397 
L 1831 0 
L 1172 0 
L 2766 4134 
L 525 4134 
L 525 4666 
z
" transform="scale(0.015625)"/>
       </defs>
       <use xlink:href="#DejaVuSans-37"/>
       <use xlink:href="#DejaVuSans-30" x="63.623047"/>
       <use xlink:href="#DejaVuSans-30" x="127.246094"/>
      </g>
     </g>
    </g>
    <g id="ytick_6">
     <g id="line2d_13">
      <g>
       <use xlink:href="#m70db78b27d" x="180" y="380.125585" style="stroke: #000000; stroke-width: 0.8"/>
      </g>
     </g>
     <g id="text_13">
      <!-- 800 -->
      <g transform="translate(153.9125 383.924804) scale(0.1 -0.1)">
       <use xlink:href="#DejaVuSans-38"/>
       <use xlink:href="#DejaVuSans-30" x="63.623047"/>
       <use xlink:href="#DejaVuSans-30" x="127.246094"/>
      </g>
     </g>
    </g>
    <g id="ytick_7">
     <g id="line2d_14">
      <g>
       <use xlink:href="#m70db78b27d" x="180" y="300.178024" style="stroke: #000000; stroke-width: 0.8"/>
      </g>
     </g>
     <g id="text_14">
      <!-- 900 -->
      <g transform="translate(153.9125 303.977243) scale(0.1 -0.1)">
       <defs>
        <path id="DejaVuSans-39" d="M 703 97 
L 703 672 
Q 941 559 1184 500 
Q 1428 441 1663 441 
Q 2288 441 2617 861 
Q 2947 1281 2994 2138 
Q 2813 1869 2534 1725 
Q 2256 1581 1919 1581 
Q 1219 1581 811 2004 
Q 403 2428 403 3163 
Q 403 3881 828 4315 
Q 1253 4750 1959 4750 
Q 2769 4750 3195 4129 
Q 3622 3509 3622 2328 
Q 3622 1225 3098 567 
Q 2575 -91 1691 -91 
Q 1453 -91 1209 -44 
Q 966 3 703 97 
z
M 1959 2075 
Q 2384 2075 2632 2365 
Q 2881 2656 2881 3163 
Q 2881 3666 2632 3958 
Q 2384 4250 1959 4250 
Q 1534 4250 1286 3958 
Q 1038 3666 1038 3163 
Q 1038 2656 1286 2365 
Q 1534 2075 1959 2075 
z
" transform="scale(0.015625)"/>
       </defs>
       <use xlink:href="#DejaVuSans-39"/>
       <use xlink:href="#DejaVuSans-30" x="63.623047"/>
       <use xlink:href="#DejaVuSans-30" x="127.246094"/>
      </g>
     </g>
    </g>
   </g>
   <g id="LineCollection_1">
    <path d="M 230.727273 678.982583 
L 251.939008 701.468586 
L 272.061085 720.266438 
L 291.251446 735.683425 
L 309.659582 747.983736 
L 325.260934 756.380063 
L 327.408727 757.3825 
L 342.070439 763.232347 
L 344.569802 764.050448 
L 358.375564 767.620248 
L 361.137963 768.138272 
L 374.166869 769.679116 
L 377.032857 769.81863 
L 389.359541 769.566703 
L 392.13632 769.323015 
L 403.831087 767.500037 
L 406.351054 766.945134 
L 417.480013 763.75879 
L 419.642835 763.008421 
L 432.045625 757.824087 
L 443.640304 751.664655 
L 454.528307 744.757611 
L 464.812576 737.290985 
L 474.587632 729.422286 
L 483.936003 721.286345 
L 492.928013 713.000887 
L 501.622933 704.670069 
L 534.418731 672.49689 
L 542.274306 665.09662 
L 550.033143 658.066593 
L 557.713095 651.443441 
L 565.329592 645.254979 
L 572.896575 639.520393 
L 580.427445 634.250611 
L 587.935952 629.448918 
L 595.436936 625.111847 
L 602.946787 621.230327 
L 610.483516 617.790999 
L 618.066379 614.777543 
L 625.715091 612.171826 
L 633.448762 609.954726 
L 641.284754 608.106513 
L 649.237678 606.60683 
L 657.31869 605.434349 
L 665.535159 604.566261 
L 673.890719 603.977754 
L 682.385596 603.641585 
L 691.017139 603.527802 
L 699.780418 603.603656 
L 708.668841 603.833642 
L 726.789616 604.601314 
L 754.819417 605.889644 
L 764.33439 606.170924 
L 773.915369 606.297436 
L 783.553095 606.21974 
L 793.237395 605.888117 
L 802.956673 605.253095 
L 812.697345 604.266158 
L 822.443354 602.880684 
L 832.175862 601.053102 
L 841.873291 598.744221 
L 851.511823 595.92059 
L 861.066415 592.555688 
L 870.512248 588.630735 
L 879.826407 584.134962 
L 888.98951 579.065307 
L 897.98699 573.425639 
L 906.809849 567.225747 
L 915.454831 560.480329 
L 923.924086 553.208223 
L 932.224519 545.431979 
L 940.366976 537.17781 
L 948.365443 528.475853 
L 956.236336 519.360676 
L 963.997921 509.87191 
L 971.669877 500.054967 
L 979.272942 489.961754 
L 994.358927 469.190876 
L 1009.476072 448.069333 
L 1017.100242 437.597463 
L 1024.789629 427.329754 
L 1032.562828 417.379885 
L 1040.434309 407.871355 
L 1048.412477 398.936344 
L 1056.497569 390.713022 
L 1064.680267 383.340296 
L 1072.943131 376.948896 
L 1081.268926 371.648788 
L 1089.66135 367.516787 
L 1098.180352 364.595787 
L 1106.980018 362.92215 
L 1116.317418 362.584587 
L 1126.50545 363.78239 
L 1137.829761 366.834456 
L 1150.488552 372.131601 
L 1164.588212 380.075292 
L 1180.176238 391.04231 
L 1197.278045 405.379588 
L 1216.367805 423.846565 
L 1216.367805 423.846565 
" clip-path="url(#pe32b73d381)" style="fill: none; stroke: #1f77b4; stroke-width: 1.5"/>
    <path d="M 245.866314 664.738902 
L 266.159809 686.30805 
L 285.130216 704.102565 
L 302.880978 718.454758 
L 319.510391 729.679787 
L 335.111743 738.076113 
L 349.773456 743.92596 
L 363.579217 747.495761 
L 376.608124 749.036604 
L 388.934808 748.784677 
L 400.629575 746.961699 
L 411.758534 743.775355 
L 422.383723 739.419721 
L 432.563242 734.07569 
L 442.351375 727.911384 
L 451.798719 721.082576 
L 460.952302 713.733092 
L 469.855713 705.995222 
L 478.549214 697.990119 
L 487.069864 689.828197 
L 495.451638 681.609521 
L 503.725541 673.424203 
L 511.919722 665.352782 
L 520.059594 657.466607 
L 528.167941 649.828216 
L 536.265032 642.491709 
L 544.368732 635.503119 
L 552.49461 628.90078 
L 560.656049 622.71569 
L 568.86435 616.971871 
L 577.128843 611.686725 
L 585.456986 606.87139 
L 593.854475 602.531088 
L 602.325342 598.665474 
L 610.872059 595.268978 
L 619.49564 592.331149 
L 628.19574 589.836991 
L 636.970755 587.767299 
L 645.817918 586.098989 
L 654.7334 584.805433 
L 663.712405 583.856782 
L 672.749265 583.22029 
L 681.837538 582.860637 
L 690.970099 582.74025 
L 700.139235 582.819617 
L 709.336741 583.057601 
L 718.554008 583.411756 
L 727.782116 583.838632 
L 737.011927 584.294088 
L 746.234175 584.733592 
L 755.439552 585.11253 
L 764.618804 585.386504 
L 773.762815 585.51163 
L 782.862699 585.444843 
L 791.909884 585.144185 
L 800.896205 584.569104 
L 809.813984 583.680745 
L 818.656125 582.442243 
L 827.416195 580.819008 
L 836.08851 578.779018 
L 844.668226 576.293104 
L 853.151419 573.335234 
L 861.535172 569.882799 
L 869.817664 565.916892 
L 877.998248 561.422598 
L 886.077542 556.389264 
L 894.057511 550.810788 
L 901.941551 544.685891 
L 909.734575 538.018398 
L 917.443096 530.817516 
L 925.075312 523.098107 
L 932.641193 514.880966 
L 940.152559 506.193097 
L 947.623171 497.067983 
L 955.068811 487.545865 
L 962.507371 477.674012 
L 969.958932 467.506995 
L 977.445854 457.106962 
L 984.992858 446.543908 
L 992.627113 435.895948 
L 1000.37832 425.24959 
L 1008.278799 414.700008 
L 1016.363575 404.351313 
L 1024.670462 394.316826 
L 1033.240151 384.719351 
L 1042.116301 375.691446 
L 1051.345619 367.375701 
L 1060.977952 359.925005 
L 1071.066376 353.502826 
L 1081.667282 348.283481 
L 1092.840468 344.452413 
L 1104.649226 342.206467 
L 1117.160432 341.754166 
L 1130.44464 343.315986 
L 1144.576172 347.124638 
L 1159.633207 353.425342 
L 1175.697877 362.476112 
L 1192.856361 374.548031 
L 1211.198973 389.925538 
L 1230.820266 408.906707 
" clip-path="url(#pe32b73d381)" style="fill: none; stroke: #8c564b; stroke-width: 1.5"/>
    <path d="M 261.005355 650.495222 
L 280.854045 671.591604 
L 298.793626 688.419189 
L 315.253262 701.727455 
L 330.277475 711.868958 
L 343.917279 719.209619 
L 356.252719 724.131311 
L 367.419222 727.01867 
L 377.62121 728.225193 
L 387.113497 728.031194 
L 396.150826 726.622457 
L 404.934953 724.107464 
L 413.591052 720.559028 
L 422.17773 716.051204 
L 430.712517 710.676223 
L 439.195249 704.544663 
L 447.622651 697.778237 
L 455.995045 690.501869 
L 464.318288 682.837704 
L 472.603437 674.901368 
L 505.806422 642.336502 
L 514.21104 634.424388 
L 522.689847 626.750446 
L 531.260928 619.37059 
L 539.939789 612.334263 
L 548.738624 605.684895 
L 557.665591 599.460138 
L 566.72419 593.691831 
L 575.912852 588.405678 
L 585.224866 583.620698 
L 594.648736 579.348571 
L 604.168987 575.593058 
L 613.76732 572.349674 
L 623.423959 569.60575 
L 633.118954 567.340927 
L 642.833257 565.528019 
L 652.549431 564.134118 
L 662.251979 563.121784 
L 671.927325 562.450181 
L 681.563553 562.076077 
L 691.150015 561.954663 
L 700.676899 562.040206 
L 710.134826 562.286562 
L 728.806597 563.077528 
L 756.177114 564.338922 
L 765.071107 564.604381 
L 773.828752 564.724221 
L 782.441153 564.661011 
L 790.900693 564.379882 
L 799.201685 563.848658 
L 807.341087 563.037839 
L 815.319211 561.920358 
L 823.140303 560.471115 
L 830.812857 558.666299 
L 838.349521 556.482602 
L 845.766509 553.896491 
L 853.082527 550.883749 
L 860.31736 547.419493 
L 867.490364 543.478749 
L 874.619161 539.037567 
L 881.71879 534.074501 
L 888.801413 528.572203 
L 895.876582 522.518887 
L 902.951916 515.909493 
L 910.034015 508.746487 
L 917.129447 501.04029 
L 924.245675 492.809449 
L 931.39187 484.080601 
L 938.579585 474.888339 
L 945.823318 465.275044 
L 960.554414 444.992769 
L 975.822739 423.661324 
L 983.740369 412.78959 
L 991.898527 401.903146 
L 1000.351823 391.096246 
L 1009.165542 380.472316 
L 1018.417922 370.146276 
L 1028.202305 360.248851 
L 1038.627802 350.933981 
L 1049.81545 342.390138 
L 1059.903874 335.967959 
L 1061.884751 334.854213 
L 1072.485657 329.634868 
L 1074.925347 328.620843 
L 1086.098533 324.789775 
L 1088.956663 324.032103 
L 1102.325145 321.550435 
L 1103.898254 321.433671 
L 1118.000974 320.984801 
L 1119.587561 321.109988 
L 1132.87177 322.671809 
L 1135.853852 323.245773 
L 1149.985384 327.054425 
L 1152.600152 327.949426 
L 1167.657187 334.25013 
L 1169.836279 335.315391 
L 1187.658592 345.475691 
L 1206.210559 358.618863 
L 1225.651435 374.98568 
L 1245.272727 393.966849 
L 1245.272727 393.966849 
" clip-path="url(#pe32b73d381)" style="fill: none; stroke: #17becf; stroke-width: 1.5"/>
   </g>
   <g id="patch_3">
    <path d="M 180 792.260493 
L 180 298.539507 
" style="fill: none; stroke: #000000; stroke-width: 0.8; stroke-linejoin: miter; stroke-linecap: square"/>
   </g>
   <g id="patch_4">
    <path d="M 1296 792.260493 
L 1296 298.539507 
" style="fill: none; stroke: #000000; stroke-width: 0.8; stroke-linejoin: miter; stroke-linecap: square"/>
   </g>
   <g id="patch_5">
    <path d="M 180 792.260493 
L 1296 792.260493 
" style="fill: none; stroke: #000000; stroke-width: 0.8; stroke-linejoin: miter; stroke-linecap: square"/>
   </g>
   <g id="patch_6">
    <path d="M 180 298.539507 
L 1296 298.539507 
" style="fill: none; stroke: #000000; stroke-width: 0.8; stroke-linejoin: miter; stroke-linecap: square"/>
   </g>
  </g>
 </g>
 <defs>
  <clipPath id="pe32b73d381">
   <rect x="180" y="298.539507" width="1116" height="493.720987"/>
  </clipPath>
 </defs>
</svg>
