<?xml version="1.0" encoding="utf-8" standalone="no"?>
<!DOCTYPE svg PUBLIC "-//W3C//DTD SVG 1.1//EN"
  "http://www.w3.org/Graphics/SVG/1.1/DTD/svg11.dtd">
<svg xmlns:xlink="http://www.w3.org/1999/xlink" width="1440pt" height="1080pt" viewBox="0 0 1440 1080" xmlns="http://www.w3.org/2000/svg" version="1.1">
 <metadata>
  <rdf:RDF xmlns:dc="http://purl.org/dc/elements/1.1/" xmlns:cc="http://creativecommons.org/ns#" xmlns:rdf="http://www.w3.org/1999/02/22-rdf-syntax-ns#">
   <cc:Work>
    <dc:type rdf:resource="http://purl.org/dc/dcmitype/StillImage"/>
    <dc:date>2023-12-11T12:06:48.781915</dc:date>
    <dc:format>image/svg+xml</dc:format>
    <dc:creator>
     <cc:Agent>
      <dc:title>Matplotlib v3.7.1, https://matplotlib.org/</dc:title>
     </cc:Agent>
    </dc:creator>
   </cc:Work>
  </rdf:RDF>
 </metadata>
 <defs>
  <style type="text/css">*{stroke-linejoin: round; stroke-linecap: butt}</style>
 </defs>
 <g id="figure_1">
  <g id="patch_1">
   <path d="M 0 1080 
L 1440 1080 
L 1440 0 
L 0 0 
z
" style="fill: #ffffff"/>
  </g>
  <g id="axes_1">
   <g id="patch_2">
    <path d="M 241.929948 961.2 
L 1234.070052 961.2 
L 1234.070052 129.6 
L 241.929948 129.6 
z
" style="fill: #ffffff"/>
   </g>
   <g id="matplotlib.axis_1">
    <g id="xtick_1">
     <g id="line2d_1">
      <defs>
       <path id="m128077d1fd" d="M 0 0 
L 0 3.5 
" style="stroke: #000000; stroke-width: 0.8"/>
      </defs>
      <g>
       <use xlink:href="#m128077d1fd" x="282.554439" y="961.2" style="stroke: #000000; stroke-width: 0.8"/>
      </g>
     </g>
     <g id="text_1">
      <!-- 100 -->
      <g transform="translate(273.010689 975.798437) scale(0.1 -0.1)">
       <defs>
        <path id="DejaVuSans-31" d="M 794 531 
L 1825 531 
L 1825 4091 
L 703 3866 
L 703 4441 
L 1819 4666 
L 2450 4666 
L 2450 531 
L 3481 531 
L 3481 0 
L 794 0 
L 794 531 
z
" transform="scale(0.015625)"/>
        <path id="DejaVuSans-30" d="M 2034 4250 
Q 1547 4250 1301 3770 
Q 1056 3291 1056 2328 
Q 1056 1369 1301 889 
Q 1547 409 2034 409 
Q 2525 409 2770 889 
Q 3016 1369 3016 2328 
Q 3016 3291 2770 3770 
Q 2525 4250 2034 4250 
z
M 2034 4750 
Q 2819 4750 3233 4129 
Q 3647 3509 3647 2328 
Q 3647 1150 3233 529 
Q 2819 -91 2034 -91 
Q 1250 -91 836 529 
Q 422 1150 422 2328 
Q 422 3509 836 4129 
Q 1250 4750 2034 4750 
z
" transform="scale(0.015625)"/>
       </defs>
       <use xlink:href="#DejaVuSans-31"/>
       <use xlink:href="#DejaVuSans-30" x="63.623047"/>
       <use xlink:href="#DejaVuSans-30" x="127.246094"/>
      </g>
     </g>
    </g>
    <g id="xtick_2">
     <g id="line2d_2">
      <g>
       <use xlink:href="#m128077d1fd" x="437.861374" y="961.2" style="stroke: #000000; stroke-width: 0.8"/>
      </g>
     </g>
     <g id="text_2">
      <!-- 200 -->
      <g transform="translate(428.317624 975.798437) scale(0.1 -0.1)">
       <defs>
        <path id="DejaVuSans-32" d="M 1228 531 
L 3431 531 
L 3431 0 
L 469 0 
L 469 531 
Q 828 903 1448 1529 
Q 2069 2156 2228 2338 
Q 2531 2678 2651 2914 
Q 2772 3150 2772 3378 
Q 2772 3750 2511 3984 
Q 2250 4219 1831 4219 
Q 1534 4219 1204 4116 
Q 875 4013 500 3803 
L 500 4441 
Q 881 4594 1212 4672 
Q 1544 4750 1819 4750 
Q 2544 4750 2975 4387 
Q 3406 4025 3406 3419 
Q 3406 3131 3298 2873 
Q 3191 2616 2906 2266 
Q 2828 2175 2409 1742 
Q 1991 1309 1228 531 
z
" transform="scale(0.015625)"/>
       </defs>
       <use xlink:href="#DejaVuSans-32"/>
       <use xlink:href="#DejaVuSans-30" x="63.623047"/>
       <use xlink:href="#DejaVuSans-30" x="127.246094"/>
      </g>
     </g>
    </g>
    <g id="xtick_3">
     <g id="line2d_3">
      <g>
       <use xlink:href="#m128077d1fd" x="593.16831" y="961.2" style="stroke: #000000; stroke-width: 0.8"/>
      </g>
     </g>
     <g id="text_3">
      <!-- 300 -->
      <g transform="translate(583.62456 975.798437) scale(0.1 -0.1)">
       <defs>
        <path id="DejaVuSans-33" d="M 2597 2516 
Q 3050 2419 3304 2112 
Q 3559 1806 3559 1356 
Q 3559 666 3084 287 
Q 2609 -91 1734 -91 
Q 1441 -91 1130 -33 
Q 819 25 488 141 
L 488 750 
Q 750 597 1062 519 
Q 1375 441 1716 441 
Q 2309 441 2620 675 
Q 2931 909 2931 1356 
Q 2931 1769 2642 2001 
Q 2353 2234 1838 2234 
L 1294 2234 
L 1294 2753 
L 1863 2753 
Q 2328 2753 2575 2939 
Q 2822 3125 2822 3475 
Q 2822 3834 2567 4026 
Q 2313 4219 1838 4219 
Q 1578 4219 1281 4162 
Q 984 4106 628 3988 
L 628 4550 
Q 988 4650 1302 4700 
Q 1616 4750 1894 4750 
Q 2613 4750 3031 4423 
Q 3450 4097 3450 3541 
Q 3450 3153 3228 2886 
Q 3006 2619 2597 2516 
z
" transform="scale(0.015625)"/>
       </defs>
       <use xlink:href="#DejaVuSans-33"/>
       <use xlink:href="#DejaVuSans-30" x="63.623047"/>
       <use xlink:href="#DejaVuSans-30" x="127.246094"/>
      </g>
     </g>
    </g>
    <g id="xtick_4">
     <g id="line2d_4">
      <g>
       <use xlink:href="#m128077d1fd" x="748.475246" y="961.2" style="stroke: #000000; stroke-width: 0.8"/>
      </g>
     </g>
     <g id="text_4">
      <!-- 400 -->
      <g transform="translate(738.931496 975.798437) scale(0.1 -0.1)">
       <defs>
        <path id="DejaVuSans-34" d="M 2419 4116 
L 825 1625 
L 2419 1625 
L 2419 4116 
z
M 2253 4666 
L 3047 4666 
L 3047 1625 
L 3713 1625 
L 3713 1100 
L 3047 1100 
L 3047 0 
L 2419 0 
L 2419 1100 
L 313 1100 
L 313 1709 
L 2253 4666 
z
" transform="scale(0.015625)"/>
       </defs>
       <use xlink:href="#DejaVuSans-34"/>
       <use xlink:href="#DejaVuSans-30" x="63.623047"/>
       <use xlink:href="#DejaVuSans-30" x="127.246094"/>
      </g>
     </g>
    </g>
    <g id="xtick_5">
     <g id="line2d_5">
      <g>
       <use xlink:href="#m128077d1fd" x="903.782182" y="961.2" style="stroke: #000000; stroke-width: 0.8"/>
      </g>
     </g>
     <g id="text_5">
      <!-- 500 -->
      <g transform="translate(894.238432 975.798437) scale(0.1 -0.1)">
       <defs>
        <path id="DejaVuSans-35" d="M 691 4666 
L 3169 4666 
L 3169 4134 
L 1269 4134 
L 1269 2991 
Q 1406 3038 1543 3061 
Q 1681 3084 1819 3084 
Q 2600 3084 3056 2656 
Q 3513 2228 3513 1497 
Q 3513 744 3044 326 
Q 2575 -91 1722 -91 
Q 1428 -91 1123 -41 
Q 819 9 494 109 
L 494 744 
Q 775 591 1075 516 
Q 1375 441 1709 441 
Q 2250 441 2565 725 
Q 2881 1009 2881 1497 
Q 2881 1984 2565 2268 
Q 2250 2553 1709 2553 
Q 1456 2553 1204 2497 
Q 953 2441 691 2322 
L 691 4666 
z
" transform="scale(0.015625)"/>
       </defs>
       <use xlink:href="#DejaVuSans-35"/>
       <use xlink:href="#DejaVuSans-30" x="63.623047"/>
       <use xlink:href="#DejaVuSans-30" x="127.246094"/>
      </g>
     </g>
    </g>
    <g id="xtick_6">
     <g id="line2d_6">
      <g>
       <use xlink:href="#m128077d1fd" x="1059.089117" y="961.2" style="stroke: #000000; stroke-width: 0.8"/>
      </g>
     </g>
     <g id="text_6">
      <!-- 600 -->
      <g transform="translate(1049.545367 975.798437) scale(0.1 -0.1)">
       <defs>
        <path id="DejaVuSans-36" d="M 2113 2584 
Q 1688 2584 1439 2293 
Q 1191 2003 1191 1497 
Q 1191 994 1439 701 
Q 1688 409 2113 409 
Q 2538 409 2786 701 
Q 3034 994 3034 1497 
Q 3034 2003 2786 2293 
Q 2538 2584 2113 2584 
z
M 3366 4563 
L 3366 3988 
Q 3128 4100 2886 4159 
Q 2644 4219 2406 4219 
Q 1781 4219 1451 3797 
Q 1122 3375 1075 2522 
Q 1259 2794 1537 2939 
Q 1816 3084 2150 3084 
Q 2853 3084 3261 2657 
Q 3669 2231 3669 1497 
Q 3669 778 3244 343 
Q 2819 -91 2113 -91 
Q 1303 -91 875 529 
Q 447 1150 447 2328 
Q 447 3434 972 4092 
Q 1497 4750 2381 4750 
Q 2619 4750 2861 4703 
Q 3103 4656 3366 4563 
z
" transform="scale(0.015625)"/>
       </defs>
       <use xlink:href="#DejaVuSans-36"/>
       <use xlink:href="#DejaVuSans-30" x="63.623047"/>
       <use xlink:href="#DejaVuSans-30" x="127.246094"/>
      </g>
     </g>
    </g>
    <g id="xtick_7">
     <g id="line2d_7">
      <g>
       <use xlink:href="#m128077d1fd" x="1214.396053" y="961.2" style="stroke: #000000; stroke-width: 0.8"/>
      </g>
     </g>
     <g id="text_7">
      <!-- 700 -->
      <g transform="translate(1204.852303 975.798437) scale(0.1 -0.1)">
       <defs>
        <path id="DejaVuSans-37" d="M 525 4666 
L 3525 4666 
L 3525 4397 
L 1831 0 
L 1172 0 
L 2766 4134 
L 525 4134 
L 525 4666 
z
" transform="scale(0.015625)"/>
       </defs>
       <use xlink:href="#DejaVuSans-37"/>
       <use xlink:href="#DejaVuSans-30" x="63.623047"/>
       <use xlink:href="#DejaVuSans-30" x="127.246094"/>
      </g>
     </g>
    </g>
   </g>
   <g id="matplotlib.axis_2">
    <g id="ytick_1">
     <g id="line2d_8">
      <defs>
       <path id="med3161c5d6" d="M 0 0 
L -3.5 0 
" style="stroke: #000000; stroke-width: 0.8"/>
      </defs>
      <g>
       <use xlink:href="#med3161c5d6" x="241.929948" y="925.327477" style="stroke: #000000; stroke-width: 0.8"/>
      </g>
     </g>
     <g id="text_8">
      <!-- 900 -->
      <g transform="translate(215.842448 929.126696) scale(0.1 -0.1)">
       <defs>
        <path id="DejaVuSans-39" d="M 703 97 
L 703 672 
Q 941 559 1184 500 
Q 1428 441 1663 441 
Q 2288 441 2617 861 
Q 2947 1281 2994 2138 
Q 2813 1869 2534 1725 
Q 2256 1581 1919 1581 
Q 1219 1581 811 2004 
Q 403 2428 403 3163 
Q 403 3881 828 4315 
Q 1253 4750 1959 4750 
Q 2769 4750 3195 4129 
Q 3622 3509 3622 2328 
Q 3622 1225 3098 567 
Q 2575 -91 1691 -91 
Q 1453 -91 1209 -44 
Q 966 3 703 97 
z
M 1959 2075 
Q 2384 2075 2632 2365 
Q 2881 2656 2881 3163 
Q 2881 3666 2632 3958 
Q 2384 4250 1959 4250 
Q 1534 4250 1286 3958 
Q 1038 3666 1038 3163 
Q 1038 2656 1286 2365 
Q 1534 2075 1959 2075 
z
" transform="scale(0.015625)"/>
       </defs>
       <use xlink:href="#DejaVuSans-39"/>
       <use xlink:href="#DejaVuSans-30" x="63.623047"/>
       <use xlink:href="#DejaVuSans-30" x="127.246094"/>
      </g>
     </g>
    </g>
    <g id="ytick_2">
     <g id="line2d_9">
      <g>
       <use xlink:href="#med3161c5d6" x="241.929948" y="770.020542" style="stroke: #000000; stroke-width: 0.8"/>
      </g>
     </g>
     <g id="text_9">
      <!-- 1000 -->
      <g transform="translate(209.479948 773.81976) scale(0.1 -0.1)">
       <use xlink:href="#DejaVuSans-31"/>
       <use xlink:href="#DejaVuSans-30" x="63.623047"/>
       <use xlink:href="#DejaVuSans-30" x="127.246094"/>
       <use xlink:href="#DejaVuSans-30" x="190.869141"/>
      </g>
     </g>
    </g>
    <g id="ytick_3">
     <g id="line2d_10">
      <g>
       <use xlink:href="#med3161c5d6" x="241.929948" y="614.713606" style="stroke: #000000; stroke-width: 0.8"/>
      </g>
     </g>
     <g id="text_10">
      <!-- 1100 -->
      <g transform="translate(209.479948 618.512825) scale(0.1 -0.1)">
       <use xlink:href="#DejaVuSans-31"/>
       <use xlink:href="#DejaVuSans-31" x="63.623047"/>
       <use xlink:href="#DejaVuSans-30" x="127.246094"/>
       <use xlink:href="#DejaVuSans-30" x="190.869141"/>
      </g>
     </g>
    </g>
    <g id="ytick_4">
     <g id="line2d_11">
      <g>
       <use xlink:href="#med3161c5d6" x="241.929948" y="459.40667" style="stroke: #000000; stroke-width: 0.8"/>
      </g>
     </g>
     <g id="text_11">
      <!-- 1200 -->
      <g transform="translate(209.479948 463.205889) scale(0.1 -0.1)">
       <use xlink:href="#DejaVuSans-31"/>
       <use xlink:href="#DejaVuSans-32" x="63.623047"/>
       <use xlink:href="#DejaVuSans-30" x="127.246094"/>
       <use xlink:href="#DejaVuSans-30" x="190.869141"/>
      </g>
     </g>
    </g>
    <g id="ytick_5">
     <g id="line2d_12">
      <g>
       <use xlink:href="#med3161c5d6" x="241.929948" y="304.099734" style="stroke: #000000; stroke-width: 0.8"/>
      </g>
     </g>
     <g id="text_12">
      <!-- 1300 -->
      <g transform="translate(209.479948 307.898953) scale(0.1 -0.1)">
       <use xlink:href="#DejaVuSans-31"/>
       <use xlink:href="#DejaVuSans-33" x="63.623047"/>
       <use xlink:href="#DejaVuSans-30" x="127.246094"/>
       <use xlink:href="#DejaVuSans-30" x="190.869141"/>
      </g>
     </g>
    </g>
    <g id="ytick_6">
     <g id="line2d_13">
      <g>
       <use xlink:href="#med3161c5d6" x="241.929948" y="148.792799" style="stroke: #000000; stroke-width: 0.8"/>
      </g>
     </g>
     <g id="text_13">
      <!-- 1400 -->
      <g transform="translate(209.479948 152.592017) scale(0.1 -0.1)">
       <use xlink:href="#DejaVuSans-31"/>
       <use xlink:href="#DejaVuSans-34" x="63.623047"/>
       <use xlink:href="#DejaVuSans-30" x="127.246094"/>
       <use xlink:href="#DejaVuSans-30" x="190.869141"/>
      </g>
     </g>
    </g>
   </g>
   <g id="LineCollection_1">
    <path d="M 502.357641 880.662874 
L 477.401139 834.358666 
L 456.195518 792.730572 
L 438.205329 755.031318 
L 423.135449 720.949346 
L 410.707506 690.195602 
L 400.658172 662.501737 
L 392.737466 637.617801 
L 386.707262 615.30932 
L 382.340301 595.353709 
L 379.420073 577.536183 
L 377.742002 561.645597 
L 377.116134 547.471037 
L 377.371158 534.800195 
L 378.358931 523.420495 
L 379.95814 513.123352 
L 382.07562 503.710863 
L 384.644429 495.003281 
L 387.618905 486.84521 
L 390.967973 479.108971 
L 394.668391 471.69466 
L 398.699343 464.527516 
L 403.039022 457.55373 
L 407.663146 450.735892 
L 412.544921 444.048851 
L 417.655847 437.476379 
L 422.966875 431.008712 
L 428.449566 424.640809 
L 434.077083 418.371174 
L 439.824941 412.201042 
L 445.671506 406.133796 
L 451.598288 400.174504 
L 457.590055 394.32953 
L 463.634818 388.606166 
L 469.723736 383.012282 
L 475.850954 377.555986 
L 482.013427 372.245296 
L 488.210735 367.087842 
L 494.444903 362.09059 
L 500.720253 357.259626 
L 507.043261 352.599985 
L 513.422445 348.115552 
L 519.868246 343.809043 
L 526.392902 339.682049 
L 533.010289 335.735162 
L 539.735722 331.968151 
L 546.585683 328.380186 
L 553.577488 324.970065 
L 560.728893 321.736431 
L 568.057645 318.677952 
L 575.581005 315.793427 
L 583.315277 313.081827 
L 591.275362 310.542244 
L 599.474374 308.17378 
L 607.923335 305.975367 
L 616.630954 303.945557 
L 625.60351 302.082298 
L 634.844812 300.382706 
L 644.356241 298.842868 
L 654.136865 297.457678 
L 664.183582 296.220715 
L 674.491318 295.124161 
L 685.05323 294.158771 
L 695.86093 293.313884 
L 706.904703 292.577468 
L 718.173726 291.936205 
L 729.656282 291.3756 
L 741.339959 290.880123 
L 753.211841 290.433366 
L 765.258688 290.018229 
L 777.467097 289.617119 
L 789.792527 289.213195 
L 789.854803 289.211111 
L 802.252384 288.787651 
L 802.37786 288.78319 
L 814.835843 288.322894 
L 815.021104 288.315667 
L 827.530653 287.801892 
L 827.771583 287.791351 
L 840.32515 287.208421 
L 840.616787 287.193931 
L 853.208381 286.5274 
L 853.544772 286.508331 
L 866.170234 285.745254 
L 866.544281 285.721084 
L 879.201577 284.850304 
L 879.604903 284.820737 
L 892.294426 283.833187 
L 892.717257 283.798276 
L 905.442145 282.687286 
L 905.873238 282.647559 
L 918.639698 281.409183 
L 919.066326 281.365748 
L 931.883973 279.999099 
L 932.291972 279.953716 
L 945.174183 278.461311 
L 945.548084 278.41641 
L 958.512359 276.804535 
L 958.835616 276.763156 
L 971.903952 275.042233 
L 972.159255 275.00787 
L 985.358532 273.192841 
L 985.528222 273.169178 
L 998.890599 271.279901 
L 998.957168 271.270438 
L 1012.493833 269.335902 
L 1026.181133 267.396539 
L 1040.021987 265.495074 
L 1054.062108 263.674135 
L 1068.357978 261.981067 
L 1082.97812 260.468198 
L 1098.004316 259.193399 
L 1113.532662 258.220992 
L 1129.67435 257.623012 
L 1146.556042 257.480758 
L 1164.319755 257.886508 
L 1183.908836 258.989497 
" clip-path="url(#p4dbc6c699f)" style="fill: none; stroke: #1f77b4; stroke-width: 1.5"/>
    <path d="M 462.710484 902.031437 
L 437.506205 855.267505 
L 415.798772 812.654319 
L 397.276825 773.840741 
L 381.649578 738.498232 
L 368.64594 706.319894 
L 358.013655 677.019535 
L 349.518457 650.330761 
L 342.943254 626.006077 
L 338.087321 603.816024 
L 334.765519 583.548321 
L 332.80753 565.007042 
L 332.057118 548.011806 
L 332.371394 532.396988 
L 333.620121 518.010951 
L 335.685017 504.715303 
L 338.45909 492.384164 
L 341.845991 480.903465 
L 345.759376 470.170257 
L 350.1223 460.092044 
L 354.866615 450.58614 
L 359.932398 441.579035 
L 365.267395 433.005791 
L 370.826473 424.809452 
L 376.571104 416.940472 
L 382.468858 409.356168 
L 388.492918 402.020185 
L 394.621605 394.901985 
L 400.837936 387.976351 
L 407.129179 381.222913 
L 413.486443 374.625692 
L 419.904276 368.172655 
L 426.380283 361.855304 
L 432.914759 355.668267 
L 439.510338 349.608913 
L 446.171667 343.676989 
L 452.905085 337.874272 
L 459.718326 332.204232 
L 466.620238 326.671724 
L 473.620513 321.282689 
L 480.729443 316.043875 
L 487.957679 310.962577 
L 495.31602 306.046389 
L 502.81521 301.30298 
L 510.465748 296.739879 
L 518.277723 292.364281 
L 526.260656 288.182872 
L 534.423363 284.201665 
L 542.773833 280.425853 
L 551.319116 276.859684 
L 560.065232 273.506344 
L 569.017093 270.367862 
L 578.178441 267.445029 
L 587.551801 264.737328 
L 597.138443 262.242891 
L 606.938369 259.958457 
L 616.950308 257.879358 
L 627.171724 255.99951 
L 637.598844 254.311427 
L 648.226696 252.806249 
L 659.049162 251.473774 
L 670.059049 250.302524 
L 681.248164 249.279806 
L 692.607418 248.391801 
L 704.126927 247.623663 
L 715.79614 246.959627 
L 727.603974 246.383141 
L 739.538965 245.877006 
L 751.589427 245.42353 
L 763.743634 245.004693 
L 775.990008 244.602335 
L 788.317318 244.198349 
L 800.714899 243.774889 
L 813.172882 243.314593 
L 825.682431 242.800818 
L 838.235998 242.217889 
L 850.827592 241.551358 
L 863.453054 240.78828 
L 876.11035 239.9175 
L 888.799874 238.92995 
L 901.524762 237.81896 
L 914.291221 236.580584 
L 927.108868 235.213935 
L 939.991079 233.721531 
L 952.955354 232.109656 
L 966.02369 230.388733 
L 979.222966 228.573704 
L 992.585344 226.684427 
L 1006.148669 224.746081 
L 1019.9569 222.789583 
L 1034.060529 220.852018 
L 1048.517031 218.977076 
L 1063.391312 217.215507 
L 1078.756173 215.625575 
L 1094.692785 214.273538 
L 1111.291172 213.234124 
L 1128.650706 212.591028 
L 1146.880612 212.437412 
L 1166.100482 212.876423 
L 1186.440805 214.021712 
" clip-path="url(#p4dbc6c699f)" style="fill: none; stroke: #8c564b; stroke-width: 1.5"/>
    <path d="M 423.063327 923.4 
L 397.37422 875.710998 
L 375.150813 832.051638 
L 356.084895 792.054402 
L 339.891371 755.373205 
L 326.308192 721.683085 
L 315.09636 690.680368 
L 306.039878 662.083451 
L 298.945413 635.634291 
L 293.641308 611.100563 
L 289.975557 588.278211 
L 287.812359 566.993772 
L 287.027226 547.105497 
L 287.501103 528.502188 
L 289.114647 511.098979 
L 291.744188 494.830158 
L 295.260645 479.640267 
L 299.531809 465.475487 
L 304.427144 452.277266 
L 309.823547 439.979285 
L 315.610387 428.507618 
L 321.692796 417.783124 
L 327.99295 407.724804 
L 334.449657 398.2531 
L 341.016851 389.292549 
L 347.661549 380.773591 
L 354.361689 372.633593 
L 361.104117 364.817262 
L 367.882819 357.276631 
L 374.697438 349.970798 
L 381.552067 342.865525 
L 388.454258 335.93279 
L 395.414224 329.150324 
L 402.444174 322.501174 
L 409.55776 315.973282 
L 416.76959 309.559099 
L 424.094793 303.255208 
L 431.548607 297.061958 
L 439.145992 290.983093 
L 446.901249 285.025366 
L 454.827651 279.198119 
L 462.937101 273.512834 
L 471.239825 267.982635 
L 479.744109 262.621759 
L 488.45612 257.444983 
L 497.379807 252.467042 
L 506.516897 247.702055 
L 515.866999 243.162977 
L 525.427786 238.861118 
L 535.195256 234.805746 
L 545.164031 231.003794 
L 555.327679 227.459675 
L 565.679007 224.175216 
L 576.210326 221.149675 
L 586.913651 218.379852 
L 597.780845 215.860245 
L 608.803692 213.58325 
L 619.97392 211.539368 
L 631.28318 209.717426 
L 642.723 208.104774 
L 654.28472 206.687475 
L 665.95944 205.450481 
L 677.737969 204.37779 
L 689.610801 203.452589 
L 701.568123 202.657397 
L 725.695692 201.384574 
L 750.038292 200.411237 
L 823.71373 197.804693 
L 848.278572 196.584221 
L 872.817394 194.998575 
L 885.093824 194.043173 
L 897.391737 192.969462 
L 909.729327 191.772687 
L 922.12966 190.450533 
L 947.236645 187.434882 
L 973.002533 183.966237 
L 1028.267695 176.187092 
L 1043.220053 174.250635 
L 1058.755499 172.41571 
L 1074.948811 170.747779 
L 1091.877894 169.322576 
L 1109.623814 168.225986 
L 1128.271196 167.553615 
L 1147.909103 167.410146 
L 1168.632452 167.908639 
L 1188.972774 169.053927 
L 1188.972774 169.053927 
" clip-path="url(#p4dbc6c699f)" style="fill: none; stroke: #17becf; stroke-width: 1.5"/>
   </g>
   <g id="patch_3">
    <path d="M 241.929948 961.2 
L 241.929948 129.6 
" style="fill: none; stroke: #000000; stroke-width: 0.8; stroke-linejoin: miter; stroke-linecap: square"/>
   </g>
   <g id="patch_4">
    <path d="M 1234.070052 961.2 
L 1234.070052 129.6 
" style="fill: none; stroke: #000000; stroke-width: 0.8; stroke-linejoin: miter; stroke-linecap: square"/>
   </g>
   <g id="patch_5">
    <path d="M 241.929948 961.2 
L 1234.070052 961.2 
" style="fill: none; stroke: #000000; stroke-width: 0.8; stroke-linejoin: miter; stroke-linecap: square"/>
   </g>
   <g id="patch_6">
    <path d="M 241.929948 129.6 
L 1234.070052 129.6 
" style="fill: none; stroke: #000000; stroke-width: 0.8; stroke-linejoin: miter; stroke-linecap: square"/>
   </g>
  </g>
 </g>
 <defs>
  <clipPath id="p4dbc6c699f">
   <rect x="241.929948" y="129.6" width="992.140103" height="831.6"/>
  </clipPath>
 </defs>
</svg>
