<?xml version="1.0" encoding="utf-8" standalone="no"?>
<!DOCTYPE svg PUBLIC "-//W3C//DTD SVG 1.1//EN"
  "http://www.w3.org/Graphics/SVG/1.1/DTD/svg11.dtd">
<svg xmlns:xlink="http://www.w3.org/1999/xlink" width="1440pt" height="1080pt" viewBox="0 0 1440 1080" xmlns="http://www.w3.org/2000/svg" version="1.1">
 <metadata>
  <rdf:RDF xmlns:dc="http://purl.org/dc/elements/1.1/" xmlns:cc="http://creativecommons.org/ns#" xmlns:rdf="http://www.w3.org/1999/02/22-rdf-syntax-ns#">
   <cc:Work>
    <dc:type rdf:resource="http://purl.org/dc/dcmitype/StillImage"/>
    <dc:date>2023-12-11T12:06:36.062171</dc:date>
    <dc:format>image/svg+xml</dc:format>
    <dc:creator>
     <cc:Agent>
      <dc:title>Matplotlib v3.7.1, https://matplotlib.org/</dc:title>
     </cc:Agent>
    </dc:creator>
   </cc:Work>
  </rdf:RDF>
 </metadata>
 <defs>
  <style type="text/css">*{stroke-linejoin: round; stroke-linecap: butt}</style>
 </defs>
 <g id="figure_1">
  <g id="patch_1">
   <path d="M 0 1080 
L 1440 1080 
L 1440 0 
L 0 0 
z
" style="fill: #ffffff"/>
  </g>
  <g id="axes_1">
   <g id="patch_2">
    <path d="M 180 939.572861 
L 1296 939.572861 
L 1296 151.227139 
L 180 151.227139 
z
" style="fill: #ffffff"/>
   </g>
   <g id="matplotlib.axis_1">
    <g id="xtick_1">
     <g id="line2d_1">
      <defs>
       <path id="m0ee2700276" d="M 0 0 
L 0 3.5 
" style="stroke: #000000; stroke-width: 0.8"/>
      </defs>
      <g>
       <use xlink:href="#m0ee2700276" x="253.687803" y="939.572861" style="stroke: #000000; stroke-width: 0.8"/>
      </g>
     </g>
     <g id="text_1">
      <!-- 300 -->
      <g transform="translate(244.144053 954.171298) scale(0.1 -0.1)">
       <defs>
        <path id="DejaVuSans-33" d="M 2597 2516 
Q 3050 2419 3304 2112 
Q 3559 1806 3559 1356 
Q 3559 666 3084 287 
Q 2609 -91 1734 -91 
Q 1441 -91 1130 -33 
Q 819 25 488 141 
L 488 750 
Q 750 597 1062 519 
Q 1375 441 1716 441 
Q 2309 441 2620 675 
Q 2931 909 2931 1356 
Q 2931 1769 2642 2001 
Q 2353 2234 1838 2234 
L 1294 2234 
L 1294 2753 
L 1863 2753 
Q 2328 2753 2575 2939 
Q 2822 3125 2822 3475 
Q 2822 3834 2567 4026 
Q 2313 4219 1838 4219 
Q 1578 4219 1281 4162 
Q 984 4106 628 3988 
L 628 4550 
Q 988 4650 1302 4700 
Q 1616 4750 1894 4750 
Q 2613 4750 3031 4423 
Q 3450 4097 3450 3541 
Q 3450 3153 3228 2886 
Q 3006 2619 2597 2516 
z
" transform="scale(0.015625)"/>
        <path id="DejaVuSans-30" d="M 2034 4250 
Q 1547 4250 1301 3770 
Q 1056 3291 1056 2328 
Q 1056 1369 1301 889 
Q 1547 409 2034 409 
Q 2525 409 2770 889 
Q 3016 1369 3016 2328 
Q 3016 3291 2770 3770 
Q 2525 4250 2034 4250 
z
M 2034 4750 
Q 2819 4750 3233 4129 
Q 3647 3509 3647 2328 
Q 3647 1150 3233 529 
Q 2819 -91 2034 -91 
Q 1250 -91 836 529 
Q 422 1150 422 2328 
Q 422 3509 836 4129 
Q 1250 4750 2034 4750 
z
" transform="scale(0.015625)"/>
       </defs>
       <use xlink:href="#DejaVuSans-33"/>
       <use xlink:href="#DejaVuSans-30" x="63.623047"/>
       <use xlink:href="#DejaVuSans-30" x="127.246094"/>
      </g>
     </g>
    </g>
    <g id="xtick_2">
     <g id="line2d_2">
      <g>
       <use xlink:href="#m0ee2700276" x="397.990765" y="939.572861" style="stroke: #000000; stroke-width: 0.8"/>
      </g>
     </g>
     <g id="text_2">
      <!-- 400 -->
      <g transform="translate(388.447015 954.171298) scale(0.1 -0.1)">
       <defs>
        <path id="DejaVuSans-34" d="M 2419 4116 
L 825 1625 
L 2419 1625 
L 2419 4116 
z
M 2253 4666 
L 3047 4666 
L 3047 1625 
L 3713 1625 
L 3713 1100 
L 3047 1100 
L 3047 0 
L 2419 0 
L 2419 1100 
L 313 1100 
L 313 1709 
L 2253 4666 
z
" transform="scale(0.015625)"/>
       </defs>
       <use xlink:href="#DejaVuSans-34"/>
       <use xlink:href="#DejaVuSans-30" x="63.623047"/>
       <use xlink:href="#DejaVuSans-30" x="127.246094"/>
      </g>
     </g>
    </g>
    <g id="xtick_3">
     <g id="line2d_3">
      <g>
       <use xlink:href="#m0ee2700276" x="542.293727" y="939.572861" style="stroke: #000000; stroke-width: 0.8"/>
      </g>
     </g>
     <g id="text_3">
      <!-- 500 -->
      <g transform="translate(532.749977 954.171298) scale(0.1 -0.1)">
       <defs>
        <path id="DejaVuSans-35" d="M 691 4666 
L 3169 4666 
L 3169 4134 
L 1269 4134 
L 1269 2991 
Q 1406 3038 1543 3061 
Q 1681 3084 1819 3084 
Q 2600 3084 3056 2656 
Q 3513 2228 3513 1497 
Q 3513 744 3044 326 
Q 2575 -91 1722 -91 
Q 1428 -91 1123 -41 
Q 819 9 494 109 
L 494 744 
Q 775 591 1075 516 
Q 1375 441 1709 441 
Q 2250 441 2565 725 
Q 2881 1009 2881 1497 
Q 2881 1984 2565 2268 
Q 2250 2553 1709 2553 
Q 1456 2553 1204 2497 
Q 953 2441 691 2322 
L 691 4666 
z
" transform="scale(0.015625)"/>
       </defs>
       <use xlink:href="#DejaVuSans-35"/>
       <use xlink:href="#DejaVuSans-30" x="63.623047"/>
       <use xlink:href="#DejaVuSans-30" x="127.246094"/>
      </g>
     </g>
    </g>
    <g id="xtick_4">
     <g id="line2d_4">
      <g>
       <use xlink:href="#m0ee2700276" x="686.596688" y="939.572861" style="stroke: #000000; stroke-width: 0.8"/>
      </g>
     </g>
     <g id="text_4">
      <!-- 600 -->
      <g transform="translate(677.052938 954.171298) scale(0.1 -0.1)">
       <defs>
        <path id="DejaVuSans-36" d="M 2113 2584 
Q 1688 2584 1439 2293 
Q 1191 2003 1191 1497 
Q 1191 994 1439 701 
Q 1688 409 2113 409 
Q 2538 409 2786 701 
Q 3034 994 3034 1497 
Q 3034 2003 2786 2293 
Q 2538 2584 2113 2584 
z
M 3366 4563 
L 3366 3988 
Q 3128 4100 2886 4159 
Q 2644 4219 2406 4219 
Q 1781 4219 1451 3797 
Q 1122 3375 1075 2522 
Q 1259 2794 1537 2939 
Q 1816 3084 2150 3084 
Q 2853 3084 3261 2657 
Q 3669 2231 3669 1497 
Q 3669 778 3244 343 
Q 2819 -91 2113 -91 
Q 1303 -91 875 529 
Q 447 1150 447 2328 
Q 447 3434 972 4092 
Q 1497 4750 2381 4750 
Q 2619 4750 2861 4703 
Q 3103 4656 3366 4563 
z
" transform="scale(0.015625)"/>
       </defs>
       <use xlink:href="#DejaVuSans-36"/>
       <use xlink:href="#DejaVuSans-30" x="63.623047"/>
       <use xlink:href="#DejaVuSans-30" x="127.246094"/>
      </g>
     </g>
    </g>
    <g id="xtick_5">
     <g id="line2d_5">
      <g>
       <use xlink:href="#m0ee2700276" x="830.89965" y="939.572861" style="stroke: #000000; stroke-width: 0.8"/>
      </g>
     </g>
     <g id="text_5">
      <!-- 700 -->
      <g transform="translate(821.3559 954.171298) scale(0.1 -0.1)">
       <defs>
        <path id="DejaVuSans-37" d="M 525 4666 
L 3525 4666 
L 3525 4397 
L 1831 0 
L 1172 0 
L 2766 4134 
L 525 4134 
L 525 4666 
z
" transform="scale(0.015625)"/>
       </defs>
       <use xlink:href="#DejaVuSans-37"/>
       <use xlink:href="#DejaVuSans-30" x="63.623047"/>
       <use xlink:href="#DejaVuSans-30" x="127.246094"/>
      </g>
     </g>
    </g>
    <g id="xtick_6">
     <g id="line2d_6">
      <g>
       <use xlink:href="#m0ee2700276" x="975.202612" y="939.572861" style="stroke: #000000; stroke-width: 0.8"/>
      </g>
     </g>
     <g id="text_6">
      <!-- 800 -->
      <g transform="translate(965.658862 954.171298) scale(0.1 -0.1)">
       <defs>
        <path id="DejaVuSans-38" d="M 2034 2216 
Q 1584 2216 1326 1975 
Q 1069 1734 1069 1313 
Q 1069 891 1326 650 
Q 1584 409 2034 409 
Q 2484 409 2743 651 
Q 3003 894 3003 1313 
Q 3003 1734 2745 1975 
Q 2488 2216 2034 2216 
z
M 1403 2484 
Q 997 2584 770 2862 
Q 544 3141 544 3541 
Q 544 4100 942 4425 
Q 1341 4750 2034 4750 
Q 2731 4750 3128 4425 
Q 3525 4100 3525 3541 
Q 3525 3141 3298 2862 
Q 3072 2584 2669 2484 
Q 3125 2378 3379 2068 
Q 3634 1759 3634 1313 
Q 3634 634 3220 271 
Q 2806 -91 2034 -91 
Q 1263 -91 848 271 
Q 434 634 434 1313 
Q 434 1759 690 2068 
Q 947 2378 1403 2484 
z
M 1172 3481 
Q 1172 3119 1398 2916 
Q 1625 2713 2034 2713 
Q 2441 2713 2670 2916 
Q 2900 3119 2900 3481 
Q 2900 3844 2670 4047 
Q 2441 4250 2034 4250 
Q 1625 4250 1398 4047 
Q 1172 3844 1172 3481 
z
" transform="scale(0.015625)"/>
       </defs>
       <use xlink:href="#DejaVuSans-38"/>
       <use xlink:href="#DejaVuSans-30" x="63.623047"/>
       <use xlink:href="#DejaVuSans-30" x="127.246094"/>
      </g>
     </g>
    </g>
    <g id="xtick_7">
     <g id="line2d_7">
      <g>
       <use xlink:href="#m0ee2700276" x="1119.505573" y="939.572861" style="stroke: #000000; stroke-width: 0.8"/>
      </g>
     </g>
     <g id="text_7">
      <!-- 900 -->
      <g transform="translate(1109.961823 954.171298) scale(0.1 -0.1)">
       <defs>
        <path id="DejaVuSans-39" d="M 703 97 
L 703 672 
Q 941 559 1184 500 
Q 1428 441 1663 441 
Q 2288 441 2617 861 
Q 2947 1281 2994 2138 
Q 2813 1869 2534 1725 
Q 2256 1581 1919 1581 
Q 1219 1581 811 2004 
Q 403 2428 403 3163 
Q 403 3881 828 4315 
Q 1253 4750 1959 4750 
Q 2769 4750 3195 4129 
Q 3622 3509 3622 2328 
Q 3622 1225 3098 567 
Q 2575 -91 1691 -91 
Q 1453 -91 1209 -44 
Q 966 3 703 97 
z
M 1959 2075 
Q 2384 2075 2632 2365 
Q 2881 2656 2881 3163 
Q 2881 3666 2632 3958 
Q 2384 4250 1959 4250 
Q 1534 4250 1286 3958 
Q 1038 3666 1038 3163 
Q 1038 2656 1286 2365 
Q 1534 2075 1959 2075 
z
" transform="scale(0.015625)"/>
       </defs>
       <use xlink:href="#DejaVuSans-39"/>
       <use xlink:href="#DejaVuSans-30" x="63.623047"/>
       <use xlink:href="#DejaVuSans-30" x="127.246094"/>
      </g>
     </g>
    </g>
    <g id="xtick_8">
     <g id="line2d_8">
      <g>
       <use xlink:href="#m0ee2700276" x="1263.808535" y="939.572861" style="stroke: #000000; stroke-width: 0.8"/>
      </g>
     </g>
     <g id="text_8">
      <!-- 1000 -->
      <g transform="translate(1251.083535 954.171298) scale(0.1 -0.1)">
       <defs>
        <path id="DejaVuSans-31" d="M 794 531 
L 1825 531 
L 1825 4091 
L 703 3866 
L 703 4441 
L 1819 4666 
L 2450 4666 
L 2450 531 
L 3481 531 
L 3481 0 
L 794 0 
L 794 531 
z
" transform="scale(0.015625)"/>
       </defs>
       <use xlink:href="#DejaVuSans-31"/>
       <use xlink:href="#DejaVuSans-30" x="63.623047"/>
       <use xlink:href="#DejaVuSans-30" x="127.246094"/>
       <use xlink:href="#DejaVuSans-30" x="190.869141"/>
      </g>
     </g>
    </g>
   </g>
   <g id="matplotlib.axis_2">
    <g id="ytick_1">
     <g id="line2d_9">
      <defs>
       <path id="m8d5202457f" d="M 0 0 
L -3.5 0 
" style="stroke: #000000; stroke-width: 0.8"/>
      </defs>
      <g>
       <use xlink:href="#m8d5202457f" x="180" y="934.575749" style="stroke: #000000; stroke-width: 0.8"/>
      </g>
     </g>
     <g id="text_9">
      <!-- 400 -->
      <g transform="translate(153.9125 938.374967) scale(0.1 -0.1)">
       <use xlink:href="#DejaVuSans-34"/>
       <use xlink:href="#DejaVuSans-30" x="63.623047"/>
       <use xlink:href="#DejaVuSans-30" x="127.246094"/>
      </g>
     </g>
    </g>
    <g id="ytick_2">
     <g id="line2d_10">
      <g>
       <use xlink:href="#m8d5202457f" x="180" y="790.272787" style="stroke: #000000; stroke-width: 0.8"/>
      </g>
     </g>
     <g id="text_10">
      <!-- 500 -->
      <g transform="translate(153.9125 794.072006) scale(0.1 -0.1)">
       <use xlink:href="#DejaVuSans-35"/>
       <use xlink:href="#DejaVuSans-30" x="63.623047"/>
       <use xlink:href="#DejaVuSans-30" x="127.246094"/>
      </g>
     </g>
    </g>
    <g id="ytick_3">
     <g id="line2d_11">
      <g>
       <use xlink:href="#m8d5202457f" x="180" y="645.969825" style="stroke: #000000; stroke-width: 0.8"/>
      </g>
     </g>
     <g id="text_11">
      <!-- 600 -->
      <g transform="translate(153.9125 649.769044) scale(0.1 -0.1)">
       <use xlink:href="#DejaVuSans-36"/>
       <use xlink:href="#DejaVuSans-30" x="63.623047"/>
       <use xlink:href="#DejaVuSans-30" x="127.246094"/>
      </g>
     </g>
    </g>
    <g id="ytick_4">
     <g id="line2d_12">
      <g>
       <use xlink:href="#m8d5202457f" x="180" y="501.666864" style="stroke: #000000; stroke-width: 0.8"/>
      </g>
     </g>
     <g id="text_12">
      <!-- 700 -->
      <g transform="translate(153.9125 505.466082) scale(0.1 -0.1)">
       <use xlink:href="#DejaVuSans-37"/>
       <use xlink:href="#DejaVuSans-30" x="63.623047"/>
       <use xlink:href="#DejaVuSans-30" x="127.246094"/>
      </g>
     </g>
    </g>
    <g id="ytick_5">
     <g id="line2d_13">
      <g>
       <use xlink:href="#m8d5202457f" x="180" y="357.363902" style="stroke: #000000; stroke-width: 0.8"/>
      </g>
     </g>
     <g id="text_13">
      <!-- 800 -->
      <g transform="translate(153.9125 361.163121) scale(0.1 -0.1)">
       <use xlink:href="#DejaVuSans-38"/>
       <use xlink:href="#DejaVuSans-30" x="63.623047"/>
       <use xlink:href="#DejaVuSans-30" x="127.246094"/>
      </g>
     </g>
    </g>
    <g id="ytick_6">
     <g id="line2d_14">
      <g>
       <use xlink:href="#m8d5202457f" x="180" y="213.06094" style="stroke: #000000; stroke-width: 0.8"/>
      </g>
     </g>
     <g id="text_14">
      <!-- 900 -->
      <g transform="translate(153.9125 216.860159) scale(0.1 -0.1)">
       <use xlink:href="#DejaVuSans-39"/>
       <use xlink:href="#DejaVuSans-30" x="63.623047"/>
       <use xlink:href="#DejaVuSans-30" x="127.246094"/>
      </g>
     </g>
    </g>
   </g>
   <g id="LineCollection_1">
    <path d="M 1245.272727 833.307853 
L 1238.886686 810.743695 
L 1237.967 808.461859 
L 1230.450451 791.639296 
L 1229.18412 789.102102 
L 1227.705836 786.682263 
L 1218.493958 772.957601 
L 1216.65707 770.47823 
L 1214.597861 768.180167 
L 1203.864709 757.268221 
L 1201.574416 755.148951 
L 1199.095218 753.254135 
L 1187.005731 744.884287 
L 1184.530957 743.327564 
L 1181.928786 741.994671 
L 1166.265265 734.933139 
L 1163.823148 734.14204 
L 1149.480099 730.101509 
L 1145.271055 729.205633 
L 1130.013338 726.980107 
L 1126.516193 726.657781 
L 1110.473884 726.032193 
L 1107.647589 726.042409 
L 1088.68917 726.99609 
L 1069.649874 729.231704 
L 1050.543803 732.51663 
L 1031.395188 736.655876 
L 1012.237366 741.481035 
L 993.110063 746.843499 
L 974.056651 752.610372 
L 955.121884 758.661977 
L 936.350197 764.890289 
L 899.465211 777.497248 
L 863.632969 789.793941 
L 846.223701 795.646819 
L 829.191364 801.228439 
L 812.558579 806.493515 
L 796.344305 811.404087 
L 780.563818 815.929164 
L 765.228712 820.044369 
L 750.346903 823.73157 
L 735.922626 826.978485 
L 721.956435 829.778259 
L 708.445206 832.128993 
L 695.382151 834.033238 
L 682.756877 835.497419 
L 670.555489 836.53123 
L 658.760785 837.146977 
L 647.352546 837.35891 
L 636.307948 837.182569 
L 625.60209 836.634174 
L 615.208623 835.730102 
L 605.100448 834.486473 
L 595.250447 832.918873 
L 585.632181 831.042202 
L 576.22052 828.870641 
L 566.992164 826.417694 
L 557.926035 823.696288 
L 549.003528 820.718873 
L 540.208648 817.497495 
L 531.528043 814.043831 
L 522.950958 810.369157 
L 514.469143 806.484265 
L 506.076732 802.39933 
L 497.770108 798.12373 
L 489.547763 793.665857 
L 481.410158 789.032901 
L 473.35958 784.230653 
L 465.399993 779.263302 
L 457.536873 774.133258 
L 449.77703 768.840993 
L 442.128404 763.384884 
L 434.599827 757.761088 
L 427.20077 751.963397 
L 419.941055 745.983099 
L 412.830553 739.808816 
L 405.878892 733.426311 
L 399.095179 726.818266 
L 392.487786 719.964031 
L 386.064221 712.839364 
L 379.831118 705.41619 
L 373.794375 697.662439 
L 367.959432 689.542005 
L 362.331678 681.014912 
L 356.916925 672.037708 
L 351.721872 662.56413 
L 346.754481 652.546025 
L 342.024164 641.934457 
L 337.541749 630.680934 
L 333.319167 618.73865 
L 329.368927 606.06366 
L 325.703374 592.615916 
L 322.333846 578.360143 
L 319.269754 563.266556 
L 316.517668 547.311442 
L 314.080428 530.477652 
L 311.956311 512.755041 
L 310.138248 494.14091 
L 308.613083 474.640451 
L 307.360865 454.267249 
L 306.354151 433.043812 
L 305.557303 411.002152 
L 304.925749 388.184398 
L 302.797923 290.245932 
L 301.946729 264.500789 
L 300.750449 238.464288 
L 299.069666 212.258705 
L 296.850748 187.061036 
L 296.850748 187.061036 
" clip-path="url(#p2e7d682628)" style="fill: none; stroke: #1f77b4; stroke-width: 1.5"/>
    <path d="M 1213.302498 842.221853 
L 1207.66459 822.001388 
L 1200.14804 805.178825 
L 1190.936162 791.454164 
L 1180.20301 780.542217 
L 1168.113523 772.172369 
L 1154.823672 766.088313 
L 1140.480623 762.047782 
L 1125.222906 759.822256 
L 1109.180597 759.196667 
L 1092.475505 759.969088 
L 1075.22137 761.950404 
L 1057.524065 764.963985 
L 1039.481811 768.845338 
L 1021.185398 773.441756 
L 1002.718404 778.611954 
L 984.15743 784.225704 
L 965.572337 790.163453 
L 947.026488 796.315944 
L 928.576991 802.583823 
L 910.27495 808.877249 
L 892.165721 815.115491 
L 874.289163 821.226528 
L 856.679904 827.146642 
L 839.367596 832.82001 
L 822.377177 838.198295 
L 805.729141 843.240234 
L 789.439794 847.911227 
L 773.521525 852.182925 
L 757.983062 856.032822 
L 742.829744 859.443845 
L 728.063773 862.403949 
L 713.684483 864.905712 
L 699.688587 866.94594 
L 686.070441 868.525266 
L 672.822288 869.647769 
L 659.93451 870.32058 
L 647.395868 870.553513 
L 635.193741 870.358691 
L 623.314361 869.750184 
L 611.743037 868.743655 
L 600.464379 867.356019 
L 589.462511 865.605103 
L 578.721277 863.509325 
L 568.224444 861.087381 
L 557.955892 858.357943 
L 547.899793 855.339376 
L 538.040793 852.049456 
L 528.364166 848.505113 
L 518.855977 844.722186 
L 509.50322 840.715191 
L 500.293952 836.497108 
L 491.217417 832.079181 
L 482.264148 827.470739 
L 473.42607 822.679036 
L 464.69658 817.709104 
L 456.07062 812.563634 
L 447.544727 807.242868 
L 439.117083 801.744519 
L 430.787534 796.06371 
L 422.557608 790.192935 
L 414.430505 784.122043 
L 406.411077 777.838247 
L 398.505796 771.326155 
L 390.72269 764.567827 
L 383.071278 757.542863 
L 375.562473 750.228502 
L 368.208476 742.599771 
L 361.022645 734.62964 
L 354.019346 726.289218 
L 347.213784 717.547976 
L 340.621814 708.373996 
L 334.25973 698.734256 
L 328.14403 688.59494 
L 322.291163 677.921788 
L 316.717251 666.680469 
L 311.437788 654.836994 
L 306.467318 642.358164 
L 301.819081 629.212044 
L 297.504648 615.368481 
L 293.533514 600.799658 
L 289.912683 585.480673 
L 286.646212 569.390176 
L 283.734738 552.51102 
L 281.174975 534.830972 
L 278.959181 516.343449 
L 277.074602 497.048301 
L 275.502884 476.952636 
L 274.219458 456.071678 
L 273.19289 434.429676 
L 272.384214 412.060854 
L 271.74622 389.010401 
L 271.222718 365.335509 
L 270.747773 341.106453 
L 270.244904 316.40772 
L 269.626252 291.339179 
L 268.791713 266.017305 
L 267.628044 240.576445 
L 266.007928 215.170136 
L 263.789011 189.972466 
" clip-path="url(#p2e7d682628)" style="fill: none; stroke: #8c564b; stroke-width: 1.5"/>
    <path d="M 1181.332269 851.135854 
L 1176.356481 833.290094 
L 1171.005596 821.31444 
L 1165.10361 812.521145 
L 1158.736733 806.048208 
L 1151.632142 801.129526 
L 1143.347753 797.336956 
L 1133.556568 794.578715 
L 1122.172508 792.918209 
L 1109.300675 792.416257 
L 1095.138265 793.071108 
L 1079.90374 794.820509 
L 1063.802876 797.562241 
L 1047.017461 801.173216 
L 1029.704262 805.522631 
L 1011.997586 810.479963 
L 994.012584 815.91951 
L 975.848269 821.722825 
L 957.589997 827.779914 
L 921.076077 840.260217 
L 884.865601 852.685929 
L 867.015568 858.685966 
L 849.383876 864.462214 
L 831.997326 869.963176 
L 814.877634 875.144153 
L 798.04196 879.966767 
L 781.50344 884.398511 
L 765.271706 888.4123 
L 749.353417 891.986073 
L 733.752777 895.102422 
L 718.472051 897.748278 
L 703.512042 899.914654 
L 688.872528 901.596451 
L 674.552611 902.792315 
L 660.550975 903.504535 
L 646.866021 903.738964 
L 633.495866 903.504914 
L 620.438227 902.815011 
L 607.690202 901.684959 
L 595.247982 900.133209 
L 583.106553 898.180504 
L 571.259436 895.849329 
L 559.698497 893.163277 
L 548.413867 890.14638 
L 537.393986 886.822434 
L 526.625747 883.214367 
L 516.094744 879.343664 
L 505.785585 875.229887 
L 495.682248 870.890275 
L 485.768449 866.339438 
L 476.028008 861.589125 
L 466.445205 856.648058 
L 457.005099 851.521828 
L 447.693837 846.212817 
L 438.498928 840.720172 
L 429.409508 835.039789 
L 420.416582 829.164333 
L 411.513262 823.083284 
L 402.695003 816.783006 
L 393.959831 810.246868 
L 385.308564 803.455406 
L 376.745023 796.386556 
L 368.276218 789.015952 
L 359.912475 781.317319 
L 351.667504 773.262941 
L 343.558341 764.824213 
L 335.60516 755.972236 
L 327.830899 746.678436 
L 320.260706 736.915128 
L 312.921203 726.655984 
L 305.839599 715.87634 
L 299.042731 704.553303 
L 292.556113 692.665658 
L 286.403066 680.193615 
L 280.604031 667.118457 
L 275.176071 653.422198 
L 270.132594 639.087338 
L 265.483227 624.0968 
L 261.233818 608.43409 
L 257.386462 592.083698 
L 253.939518 575.03173 
L 250.887543 557.266722 
L 248.221138 538.780603 
L 245.926685 519.56977 
L 243.98597 499.636222 
L 242.375719 478.988764 
L 241.067052 457.64423 
L 240.024877 435.628763 
L 239.207239 412.979132 
L 238.56465 389.744116 
L 236.450059 292.295229 
L 235.627019 267.322239 
L 234.486656 242.390928 
L 232.91103 217.682296 
L 230.727273 192.883897 
L 230.727273 192.883897 
" clip-path="url(#p2e7d682628)" style="fill: none; stroke: #17becf; stroke-width: 1.5"/>
   </g>
   <g id="patch_3">
    <path d="M 180 939.572861 
L 180 151.227139 
" style="fill: none; stroke: #000000; stroke-width: 0.8; stroke-linejoin: miter; stroke-linecap: square"/>
   </g>
   <g id="patch_4">
    <path d="M 1296 939.572861 
L 1296 151.227139 
" style="fill: none; stroke: #000000; stroke-width: 0.8; stroke-linejoin: miter; stroke-linecap: square"/>
   </g>
   <g id="patch_5">
    <path d="M 180 939.572861 
L 1296 939.572861 
" style="fill: none; stroke: #000000; stroke-width: 0.8; stroke-linejoin: miter; stroke-linecap: square"/>
   </g>
   <g id="patch_6">
    <path d="M 180 151.227139 
L 1296 151.227139 
" style="fill: none; stroke: #000000; stroke-width: 0.8; stroke-linejoin: miter; stroke-linecap: square"/>
   </g>
  </g>
 </g>
 <defs>
  <clipPath id="p2e7d682628">
   <rect x="180" y="151.227139" width="1116" height="788.345722"/>
  </clipPath>
 </defs>
</svg>
