<?xml version="1.0" encoding="utf-8" standalone="no"?>
<!DOCTYPE svg PUBLIC "-//W3C//DTD SVG 1.1//EN"
  "http://www.w3.org/Graphics/SVG/1.1/DTD/svg11.dtd">
<svg xmlns:xlink="http://www.w3.org/1999/xlink" width="1440pt" height="1080pt" viewBox="0 0 1440 1080" xmlns="http://www.w3.org/2000/svg" version="1.1">
 <metadata>
  <rdf:RDF xmlns:dc="http://purl.org/dc/elements/1.1/" xmlns:cc="http://creativecommons.org/ns#" xmlns:rdf="http://www.w3.org/1999/02/22-rdf-syntax-ns#">
   <cc:Work>
    <dc:type rdf:resource="http://purl.org/dc/dcmitype/StillImage"/>
    <dc:date>2023-12-11T12:06:56.968822</dc:date>
    <dc:format>image/svg+xml</dc:format>
    <dc:creator>
     <cc:Agent>
      <dc:title>Matplotlib v3.7.1, https://matplotlib.org/</dc:title>
     </cc:Agent>
    </dc:creator>
   </cc:Work>
  </rdf:RDF>
 </metadata>
 <defs>
  <style type="text/css">*{stroke-linejoin: round; stroke-linecap: butt}</style>
 </defs>
 <g id="figure_1">
  <g id="patch_1">
   <path d="M 0 1080 
L 1440 1080 
L 1440 0 
L 0 0 
z
" style="fill: #ffffff"/>
  </g>
  <g id="axes_1">
   <g id="patch_2">
    <path d="M 359.500877 961.2 
L 1116.499123 961.2 
L 1116.499123 129.6 
L 359.500877 129.6 
z
" style="fill: #ffffff"/>
   </g>
   <g id="matplotlib.axis_1">
    <g id="xtick_1">
     <g id="line2d_1">
      <defs>
       <path id="mded2f33eda" d="M 0 0 
L 0 3.5 
" style="stroke: #000000; stroke-width: 0.8"/>
      </defs>
      <g>
       <use xlink:href="#mded2f33eda" x="442.70228" y="961.2" style="stroke: #000000; stroke-width: 0.8"/>
      </g>
     </g>
     <g id="text_1">
      <!-- 400 -->
      <g transform="translate(433.15853 975.798437) scale(0.1 -0.1)">
       <defs>
        <path id="DejaVuSans-34" d="M 2419 4116 
L 825 1625 
L 2419 1625 
L 2419 4116 
z
M 2253 4666 
L 3047 4666 
L 3047 1625 
L 3713 1625 
L 3713 1100 
L 3047 1100 
L 3047 0 
L 2419 0 
L 2419 1100 
L 313 1100 
L 313 1709 
L 2253 4666 
z
" transform="scale(0.015625)"/>
        <path id="DejaVuSans-30" d="M 2034 4250 
Q 1547 4250 1301 3770 
Q 1056 3291 1056 2328 
Q 1056 1369 1301 889 
Q 1547 409 2034 409 
Q 2525 409 2770 889 
Q 3016 1369 3016 2328 
Q 3016 3291 2770 3770 
Q 2525 4250 2034 4250 
z
M 2034 4750 
Q 2819 4750 3233 4129 
Q 3647 3509 3647 2328 
Q 3647 1150 3233 529 
Q 2819 -91 2034 -91 
Q 1250 -91 836 529 
Q 422 1150 422 2328 
Q 422 3509 836 4129 
Q 1250 4750 2034 4750 
z
" transform="scale(0.015625)"/>
       </defs>
       <use xlink:href="#DejaVuSans-34"/>
       <use xlink:href="#DejaVuSans-30" x="63.623047"/>
       <use xlink:href="#DejaVuSans-30" x="127.246094"/>
      </g>
     </g>
    </g>
    <g id="xtick_2">
     <g id="line2d_2">
      <g>
       <use xlink:href="#mded2f33eda" x="599.540604" y="961.2" style="stroke: #000000; stroke-width: 0.8"/>
      </g>
     </g>
     <g id="text_2">
      <!-- 600 -->
      <g transform="translate(589.996854 975.798437) scale(0.1 -0.1)">
       <defs>
        <path id="DejaVuSans-36" d="M 2113 2584 
Q 1688 2584 1439 2293 
Q 1191 2003 1191 1497 
Q 1191 994 1439 701 
Q 1688 409 2113 409 
Q 2538 409 2786 701 
Q 3034 994 3034 1497 
Q 3034 2003 2786 2293 
Q 2538 2584 2113 2584 
z
M 3366 4563 
L 3366 3988 
Q 3128 4100 2886 4159 
Q 2644 4219 2406 4219 
Q 1781 4219 1451 3797 
Q 1122 3375 1075 2522 
Q 1259 2794 1537 2939 
Q 1816 3084 2150 3084 
Q 2853 3084 3261 2657 
Q 3669 2231 3669 1497 
Q 3669 778 3244 343 
Q 2819 -91 2113 -91 
Q 1303 -91 875 529 
Q 447 1150 447 2328 
Q 447 3434 972 4092 
Q 1497 4750 2381 4750 
Q 2619 4750 2861 4703 
Q 3103 4656 3366 4563 
z
" transform="scale(0.015625)"/>
       </defs>
       <use xlink:href="#DejaVuSans-36"/>
       <use xlink:href="#DejaVuSans-30" x="63.623047"/>
       <use xlink:href="#DejaVuSans-30" x="127.246094"/>
      </g>
     </g>
    </g>
    <g id="xtick_3">
     <g id="line2d_3">
      <g>
       <use xlink:href="#mded2f33eda" x="756.378927" y="961.2" style="stroke: #000000; stroke-width: 0.8"/>
      </g>
     </g>
     <g id="text_3">
      <!-- 800 -->
      <g transform="translate(746.835177 975.798437) scale(0.1 -0.1)">
       <defs>
        <path id="DejaVuSans-38" d="M 2034 2216 
Q 1584 2216 1326 1975 
Q 1069 1734 1069 1313 
Q 1069 891 1326 650 
Q 1584 409 2034 409 
Q 2484 409 2743 651 
Q 3003 894 3003 1313 
Q 3003 1734 2745 1975 
Q 2488 2216 2034 2216 
z
M 1403 2484 
Q 997 2584 770 2862 
Q 544 3141 544 3541 
Q 544 4100 942 4425 
Q 1341 4750 2034 4750 
Q 2731 4750 3128 4425 
Q 3525 4100 3525 3541 
Q 3525 3141 3298 2862 
Q 3072 2584 2669 2484 
Q 3125 2378 3379 2068 
Q 3634 1759 3634 1313 
Q 3634 634 3220 271 
Q 2806 -91 2034 -91 
Q 1263 -91 848 271 
Q 434 634 434 1313 
Q 434 1759 690 2068 
Q 947 2378 1403 2484 
z
M 1172 3481 
Q 1172 3119 1398 2916 
Q 1625 2713 2034 2713 
Q 2441 2713 2670 2916 
Q 2900 3119 2900 3481 
Q 2900 3844 2670 4047 
Q 2441 4250 2034 4250 
Q 1625 4250 1398 4047 
Q 1172 3844 1172 3481 
z
" transform="scale(0.015625)"/>
       </defs>
       <use xlink:href="#DejaVuSans-38"/>
       <use xlink:href="#DejaVuSans-30" x="63.623047"/>
       <use xlink:href="#DejaVuSans-30" x="127.246094"/>
      </g>
     </g>
    </g>
    <g id="xtick_4">
     <g id="line2d_4">
      <g>
       <use xlink:href="#mded2f33eda" x="913.217251" y="961.2" style="stroke: #000000; stroke-width: 0.8"/>
      </g>
     </g>
     <g id="text_4">
      <!-- 1000 -->
      <g transform="translate(900.492251 975.798437) scale(0.1 -0.1)">
       <defs>
        <path id="DejaVuSans-31" d="M 794 531 
L 1825 531 
L 1825 4091 
L 703 3866 
L 703 4441 
L 1819 4666 
L 2450 4666 
L 2450 531 
L 3481 531 
L 3481 0 
L 794 0 
L 794 531 
z
" transform="scale(0.015625)"/>
       </defs>
       <use xlink:href="#DejaVuSans-31"/>
       <use xlink:href="#DejaVuSans-30" x="63.623047"/>
       <use xlink:href="#DejaVuSans-30" x="127.246094"/>
       <use xlink:href="#DejaVuSans-30" x="190.869141"/>
      </g>
     </g>
    </g>
    <g id="xtick_5">
     <g id="line2d_5">
      <g>
       <use xlink:href="#mded2f33eda" x="1070.055574" y="961.2" style="stroke: #000000; stroke-width: 0.8"/>
      </g>
     </g>
     <g id="text_5">
      <!-- 1200 -->
      <g transform="translate(1057.330574 975.798437) scale(0.1 -0.1)">
       <defs>
        <path id="DejaVuSans-32" d="M 1228 531 
L 3431 531 
L 3431 0 
L 469 0 
L 469 531 
Q 828 903 1448 1529 
Q 2069 2156 2228 2338 
Q 2531 2678 2651 2914 
Q 2772 3150 2772 3378 
Q 2772 3750 2511 3984 
Q 2250 4219 1831 4219 
Q 1534 4219 1204 4116 
Q 875 4013 500 3803 
L 500 4441 
Q 881 4594 1212 4672 
Q 1544 4750 1819 4750 
Q 2544 4750 2975 4387 
Q 3406 4025 3406 3419 
Q 3406 3131 3298 2873 
Q 3191 2616 2906 2266 
Q 2828 2175 2409 1742 
Q 1991 1309 1228 531 
z
" transform="scale(0.015625)"/>
       </defs>
       <use xlink:href="#DejaVuSans-31"/>
       <use xlink:href="#DejaVuSans-32" x="63.623047"/>
       <use xlink:href="#DejaVuSans-30" x="127.246094"/>
       <use xlink:href="#DejaVuSans-30" x="190.869141"/>
      </g>
     </g>
    </g>
   </g>
   <g id="matplotlib.axis_2">
    <g id="ytick_1">
     <g id="line2d_6">
      <defs>
       <path id="m50fd0a8866" d="M 0 0 
L -3.5 0 
" style="stroke: #000000; stroke-width: 0.8"/>
      </defs>
      <g>
       <use xlink:href="#m50fd0a8866" x="359.500877" y="833.136917" style="stroke: #000000; stroke-width: 0.8"/>
      </g>
     </g>
     <g id="text_6">
      <!-- 600 -->
      <g transform="translate(333.413377 836.936136) scale(0.1 -0.1)">
       <use xlink:href="#DejaVuSans-36"/>
       <use xlink:href="#DejaVuSans-30" x="63.623047"/>
       <use xlink:href="#DejaVuSans-30" x="127.246094"/>
      </g>
     </g>
    </g>
    <g id="ytick_2">
     <g id="line2d_7">
      <g>
       <use xlink:href="#m50fd0a8866" x="359.500877" y="676.298593" style="stroke: #000000; stroke-width: 0.8"/>
      </g>
     </g>
     <g id="text_7">
      <!-- 800 -->
      <g transform="translate(333.413377 680.097812) scale(0.1 -0.1)">
       <use xlink:href="#DejaVuSans-38"/>
       <use xlink:href="#DejaVuSans-30" x="63.623047"/>
       <use xlink:href="#DejaVuSans-30" x="127.246094"/>
      </g>
     </g>
    </g>
    <g id="ytick_3">
     <g id="line2d_8">
      <g>
       <use xlink:href="#m50fd0a8866" x="359.500877" y="519.46027" style="stroke: #000000; stroke-width: 0.8"/>
      </g>
     </g>
     <g id="text_8">
      <!-- 1000 -->
      <g transform="translate(327.050877 523.259489) scale(0.1 -0.1)">
       <use xlink:href="#DejaVuSans-31"/>
       <use xlink:href="#DejaVuSans-30" x="63.623047"/>
       <use xlink:href="#DejaVuSans-30" x="127.246094"/>
       <use xlink:href="#DejaVuSans-30" x="190.869141"/>
      </g>
     </g>
    </g>
    <g id="ytick_4">
     <g id="line2d_9">
      <g>
       <use xlink:href="#m50fd0a8866" x="359.500877" y="362.621946" style="stroke: #000000; stroke-width: 0.8"/>
      </g>
     </g>
     <g id="text_9">
      <!-- 1200 -->
      <g transform="translate(327.050877 366.421165) scale(0.1 -0.1)">
       <use xlink:href="#DejaVuSans-31"/>
       <use xlink:href="#DejaVuSans-32" x="63.623047"/>
       <use xlink:href="#DejaVuSans-30" x="127.246094"/>
       <use xlink:href="#DejaVuSans-30" x="190.869141"/>
      </g>
     </g>
    </g>
    <g id="ytick_5">
     <g id="line2d_10">
      <g>
       <use xlink:href="#m50fd0a8866" x="359.500877" y="205.783623" style="stroke: #000000; stroke-width: 0.8"/>
      </g>
     </g>
     <g id="text_10">
      <!-- 1400 -->
      <g transform="translate(327.050877 209.582842) scale(0.1 -0.1)">
       <use xlink:href="#DejaVuSans-31"/>
       <use xlink:href="#DejaVuSans-34" x="63.623047"/>
       <use xlink:href="#DejaVuSans-30" x="127.246094"/>
       <use xlink:href="#DejaVuSans-30" x="190.869141"/>
      </g>
     </g>
    </g>
   </g>
   <g id="LineCollection_1">
    <path d="M 440.231425 167.4 
L 427.663221 192.972395 
L 417.242747 216.68694 
L 408.860429 238.669898 
L 402.416117 259.047181 
L 397.821929 277.94238 
L 395.005197 295.472222 
L 393.909889 311.738306 
L 394.49332 326.815175 
L 396.325736 338.95482 
L 396.714324 340.738387 
L 399.850625 351.677156 
L 400.512394 353.501316 
L 404.85982 363.320549 
L 405.786232 365.070068 
L 411.255133 373.848239 
L 412.387276 375.415124 
L 418.8911 383.22787 
L 420.136598 384.542463 
L 428.854882 392.505325 
L 438.386494 399.394329 
L 448.608085 405.318307 
L 459.425019 410.387952 
L 470.763173 414.706603 
L 482.561227 418.366954 
L 494.765222 421.451055 
L 507.325307 424.031633 
L 520.194032 426.173667 
L 533.32558 427.935787 
L 546.675502 429.37139 
L 560.200711 430.529469 
L 573.859578 431.455229 
L 587.612067 432.190535 
L 601.419866 432.774241 
L 629.057415 433.628615 
L 696.850112 435.339265 
L 722.883058 436.368549 
L 735.580694 437.035091 
L 748.043715 437.823299 
L 760.258037 438.746308 
L 772.211503 439.815603 
L 783.893849 441.041089 
L 795.296656 442.431172 
L 806.413314 443.992838 
L 817.238968 445.731743 
L 827.77047 447.652302 
L 838.006318 449.757797 
L 847.946589 452.05048 
L 857.592864 454.531693 
L 866.948136 457.201982 
L 876.016709 460.061226 
L 884.804073 463.108761 
L 893.316773 466.3435 
L 901.562252 469.764054 
L 909.548684 473.368839 
L 917.28479 477.156172 
L 924.779652 481.124356 
L 932.042518 485.27175 
L 939.082608 489.596826 
L 945.908931 494.098216 
L 952.530108 498.77475 
L 958.954206 503.625497 
L 965.188593 508.6498 
L 971.239798 513.847326 
L 977.113391 519.218123 
L 982.813875 524.762688 
L 988.344577 530.482055 
L 993.707557 536.377899 
L 998.903519 542.452657 
L 1003.931717 548.709666 
L 1008.789873 555.153324 
L 1013.474091 561.789271 
L 1017.978768 568.624584 
L 1022.296502 575.668007 
L 1026.417998 582.930199 
L 1030.331957 590.42401 
L 1034.024944 598.164789 
L 1037.481232 606.170715 
L 1040.682606 614.463148 
L 1043.60811 623.066989 
L 1046.233739 632.011027 
L 1048.532066 641.328262 
L 1050.471809 651.056158 
L 1052.01735 661.236822 
L 1053.128246 671.917069 
L 1053.758751 683.1484 
L 1053.857396 694.986866 
L 1053.366653 707.492896 
L 1052.222704 720.731092 
L 1050.3553 734.77007 
L 1047.687714 749.682373 
L 1044.136723 765.544481 
L 1039.612616 782.436936 
L 1034.01917 800.444563 
L 1027.25359 819.656778 
L 1019.206384 840.167939 
L 1009.761187 862.077741 
L 998.794528 885.491605 
L 986.089963 910.69084 
L 986.089963 910.69084 
" clip-path="url(#p1a1feb9b02)" style="fill: none; stroke: #1f77b4; stroke-width: 1.5"/>
    <path d="M 452.896771 173.631767 
L 440.582323 198.659461 
L 430.426899 221.729166 
L 422.312564 242.946107 
L 416.124544 262.412433 
L 411.751225 280.227246 
L 409.084149 296.486621 
L 408.018013 311.283635 
L 408.450661 324.708387 
L 410.283077 336.848032 
L 413.419378 347.786801 
L 417.766804 357.606034 
L 423.235705 366.384205 
L 429.739529 374.196952 
L 437.19481 381.117107 
L 445.521147 387.21473 
L 454.641188 392.557133 
L 464.480614 397.208921 
L 474.968112 401.23202 
L 486.035356 404.685714 
L 497.61698 407.626679 
L 509.650551 410.109021 
L 522.076545 412.184312 
L 534.838308 413.901631 
L 547.88203 415.3076 
L 561.156711 416.446431 
L 574.614119 417.359961 
L 588.208756 418.087703 
L 601.897814 418.666886 
L 615.641136 419.132501 
L 629.401168 419.517352 
L 643.142913 419.852104 
L 656.833878 420.165331 
L 670.444029 420.48357 
L 683.945732 420.831375 
L 697.313695 421.23137 
L 710.524914 421.704308 
L 723.558609 422.269127 
L 736.396159 422.943013 
L 749.021039 423.741458 
L 761.418748 424.678326 
L 773.576739 425.765916 
L 785.484345 427.015032 
L 797.1327 428.435049 
L 808.514666 430.033986 
L 819.624742 431.818577 
L 830.458986 433.794345 
L 841.014925 435.965682 
L 851.291462 438.335924 
L 861.288789 440.907434 
L 871.008283 443.681683 
L 880.452413 446.659337 
L 889.624634 449.840344 
L 898.529283 453.22402 
L 907.171472 456.809145 
L 915.556974 460.594056 
L 923.692111 464.57674 
L 931.583635 468.754938 
L 939.238606 473.126241 
L 946.664273 477.688196 
L 953.867939 482.438411 
L 960.856836 487.374666 
L 967.63799 492.495021 
L 974.218082 497.797928 
L 980.603309 503.282355 
L 986.799238 508.947894 
L 992.810659 514.794892 
L 998.641436 520.82457 
L 1004.294348 527.039153 
L 1009.770933 533.441996 
L 1015.071327 540.037721 
L 1020.194095 546.832351 
L 1025.136066 553.833445 
L 1029.892155 561.050248 
L 1034.45519 568.493824 
L 1038.815729 576.177215 
L 1042.961876 584.115582 
L 1046.879093 592.326365 
L 1050.550006 600.829436 
L 1053.954213 609.647261 
L 1057.068076 618.805063 
L 1059.864525 628.330986 
L 1062.312842 638.256268 
L 1064.378456 648.615412 
L 1066.022718 659.446363 
L 1067.202687 670.790685 
L 1067.870902 682.69375 
L 1067.975152 695.204918 
L 1067.458245 708.377733 
L 1066.257765 722.270112 
L 1064.305836 736.944543 
L 1061.528872 752.46829 
L 1057.847324 768.913592 
L 1053.175428 786.357872 
L 1047.420942 804.883953 
L 1040.484885 824.580269 
L 1032.261264 845.541088 
L 1022.6368 867.866731 
L 1011.490653 891.663802 
L 998.694137 917.04542 
" clip-path="url(#p1a1feb9b02)" style="fill: none; stroke: #8c564b; stroke-width: 1.5"/>
    <path d="M 465.562117 179.863533 
L 453.380345 204.621579 
L 443.48649 227.097087 
L 435.641722 247.609178 
L 429.720102 266.237461 
L 425.591203 283.056622 
L 423.117088 298.139648 
L 422.149834 311.564259 
L 422.53202 323.42322 
L 424.103907 333.836871 
L 426.720088 342.961569 
L 430.272074 350.984198 
L 434.703977 358.097876 
L 440.00746 364.468707 
L 446.196537 370.213545 
L 453.278673 375.400002 
L 461.23791 380.06242 
L 470.032837 384.2204 
L 479.603096 387.891638 
L 489.877671 391.097968 
L 500.781542 393.866829 
L 512.239985 396.230531 
L 524.180953 398.224817 
L 536.536223 399.887435 
L 549.24182 401.256958 
L 562.238061 402.371902 
L 575.469434 403.270088 
L 588.884392 403.988212 
L 602.435142 404.561542 
L 629.770365 405.406709 
L 697.818679 407.124956 
L 724.298557 408.173086 
L 737.287093 408.855709 
L 750.08468 409.66614 
L 762.67642 410.619017 
L 775.049379 411.727496 
L 787.192472 413.003315 
L 799.096356 414.456853 
L 810.753308 416.097186 
L 822.157117 417.932145 
L 833.302965 419.968366 
L 844.187308 422.211341 
L 854.807774 424.665465 
L 865.163052 427.334078 
L 875.252792 430.219512 
L 885.077524 433.323136 
L 894.638575 436.645409 
L 903.938002 440.185934 
L 912.978539 443.943537 
L 921.763547 447.916345 
L 930.296966 452.101894 
L 938.583277 456.49725 
L 946.627445 461.099148 
L 954.434867 465.904149 
L 962.011291 470.90881 
L 969.362728 476.109867 
L 976.495335 481.504419 
L 983.415286 487.090111 
L 990.128611 492.865324 
L 996.641028 498.829343 
L 1002.957747 504.982527 
L 1009.083269 511.326464 
L 1015.021164 517.864116 
L 1020.773842 524.599943 
L 1026.342314 531.540031 
L 1031.725947 538.692185 
L 1036.922206 546.066026 
L 1041.926398 553.673059 
L 1046.731406 561.526729 
L 1051.327433 569.64245 
L 1055.701745 578.037619 
L 1059.838436 586.731606 
L 1063.718216 595.745721 
L 1067.318242 605.103184 
L 1070.611987 614.829086 
L 1073.569177 624.950393 
L 1076.155774 635.495988 
L 1078.334006 646.4968 
L 1080.062424 657.986035 
L 1081.295946 669.999517 
L 1081.985861 682.576136 
L 1082.079746 695.758389 
L 1081.521286 709.59296 
L 1080.249974 724.131294 
L 1078.200719 739.430129 
L 1075.303378 755.551938 
L 1071.482247 772.565273 
L 1066.655554 790.545006 
L 1060.734977 809.57249 
L 1053.625203 829.73565 
L 1045.223538 851.129054 
L 1035.419561 873.85396 
L 1024.094828 898.018382 
L 1011.298312 923.4 
L 1011.298312 923.4 
" clip-path="url(#p1a1feb9b02)" style="fill: none; stroke: #17becf; stroke-width: 1.5"/>
   </g>
   <g id="patch_3">
    <path d="M 359.500877 961.2 
L 359.500877 129.6 
" style="fill: none; stroke: #000000; stroke-width: 0.8; stroke-linejoin: miter; stroke-linecap: square"/>
   </g>
   <g id="patch_4">
    <path d="M 1116.499123 961.2 
L 1116.499123 129.6 
" style="fill: none; stroke: #000000; stroke-width: 0.8; stroke-linejoin: miter; stroke-linecap: square"/>
   </g>
   <g id="patch_5">
    <path d="M 359.500877 961.2 
L 1116.499123 961.2 
" style="fill: none; stroke: #000000; stroke-width: 0.8; stroke-linejoin: miter; stroke-linecap: square"/>
   </g>
   <g id="patch_6">
    <path d="M 359.500877 129.6 
L 1116.499123 129.6 
" style="fill: none; stroke: #000000; stroke-width: 0.8; stroke-linejoin: miter; stroke-linecap: square"/>
   </g>
  </g>
 </g>
 <defs>
  <clipPath id="p1a1feb9b02">
   <rect x="359.500877" y="129.6" width="756.998245" height="831.6"/>
  </clipPath>
 </defs>
</svg>
