<?xml version="1.0" encoding="utf-8" standalone="no"?>
<!DOCTYPE svg PUBLIC "-//W3C//DTD SVG 1.1//EN"
  "http://www.w3.org/Graphics/SVG/1.1/DTD/svg11.dtd">
<svg xmlns:xlink="http://www.w3.org/1999/xlink" width="1440pt" height="1080pt" viewBox="0 0 1440 1080" xmlns="http://www.w3.org/2000/svg" version="1.1">
 <metadata>
  <rdf:RDF xmlns:dc="http://purl.org/dc/elements/1.1/" xmlns:cc="http://creativecommons.org/ns#" xmlns:rdf="http://www.w3.org/1999/02/22-rdf-syntax-ns#">
   <cc:Work>
    <dc:type rdf:resource="http://purl.org/dc/dcmitype/StillImage"/>
    <dc:date>2023-12-11T12:07:01.126166</dc:date>
    <dc:format>image/svg+xml</dc:format>
    <dc:creator>
     <cc:Agent>
      <dc:title>Matplotlib v3.7.1, https://matplotlib.org/</dc:title>
     </cc:Agent>
    </dc:creator>
   </cc:Work>
  </rdf:RDF>
 </metadata>
 <defs>
  <style type="text/css">*{stroke-linejoin: round; stroke-linecap: butt}</style>
 </defs>
 <g id="figure_1">
  <g id="patch_1">
   <path d="M 0 1080 
L 1440 1080 
L 1440 0 
L 0 0 
z
" style="fill: #ffffff"/>
  </g>
  <g id="axes_1">
   <g id="patch_2">
    <path d="M 180 951.181179 
L 1296 951.181179 
L 1296 139.618821 
L 180 139.618821 
z
" style="fill: #ffffff"/>
   </g>
   <g id="matplotlib.axis_1">
    <g id="xtick_1">
     <g id="line2d_1">
      <defs>
       <path id="m65dc589daa" d="M 0 0 
L 0 3.5 
" style="stroke: #000000; stroke-width: 0.8"/>
      </defs>
      <g>
       <use xlink:href="#m65dc589daa" x="234.459374" y="951.181179" style="stroke: #000000; stroke-width: 0.8"/>
      </g>
     </g>
     <g id="text_1">
      <!-- 900 -->
      <g transform="translate(224.915624 965.779617) scale(0.1 -0.1)">
       <defs>
        <path id="DejaVuSans-39" d="M 703 97 
L 703 672 
Q 941 559 1184 500 
Q 1428 441 1663 441 
Q 2288 441 2617 861 
Q 2947 1281 2994 2138 
Q 2813 1869 2534 1725 
Q 2256 1581 1919 1581 
Q 1219 1581 811 2004 
Q 403 2428 403 3163 
Q 403 3881 828 4315 
Q 1253 4750 1959 4750 
Q 2769 4750 3195 4129 
Q 3622 3509 3622 2328 
Q 3622 1225 3098 567 
Q 2575 -91 1691 -91 
Q 1453 -91 1209 -44 
Q 966 3 703 97 
z
M 1959 2075 
Q 2384 2075 2632 2365 
Q 2881 2656 2881 3163 
Q 2881 3666 2632 3958 
Q 2384 4250 1959 4250 
Q 1534 4250 1286 3958 
Q 1038 3666 1038 3163 
Q 1038 2656 1286 2365 
Q 1534 2075 1959 2075 
z
" transform="scale(0.015625)"/>
        <path id="DejaVuSans-30" d="M 2034 4250 
Q 1547 4250 1301 3770 
Q 1056 3291 1056 2328 
Q 1056 1369 1301 889 
Q 1547 409 2034 409 
Q 2525 409 2770 889 
Q 3016 1369 3016 2328 
Q 3016 3291 2770 3770 
Q 2525 4250 2034 4250 
z
M 2034 4750 
Q 2819 4750 3233 4129 
Q 3647 3509 3647 2328 
Q 3647 1150 3233 529 
Q 2819 -91 2034 -91 
Q 1250 -91 836 529 
Q 422 1150 422 2328 
Q 422 3509 836 4129 
Q 1250 4750 2034 4750 
z
" transform="scale(0.015625)"/>
       </defs>
       <use xlink:href="#DejaVuSans-39"/>
       <use xlink:href="#DejaVuSans-30" x="63.623047"/>
       <use xlink:href="#DejaVuSans-30" x="127.246094"/>
      </g>
     </g>
    </g>
    <g id="xtick_2">
     <g id="line2d_2">
      <g>
       <use xlink:href="#m65dc589daa" x="362.671992" y="951.181179" style="stroke: #000000; stroke-width: 0.8"/>
      </g>
     </g>
     <g id="text_2">
      <!-- 1000 -->
      <g transform="translate(349.946992 965.779617) scale(0.1 -0.1)">
       <defs>
        <path id="DejaVuSans-31" d="M 794 531 
L 1825 531 
L 1825 4091 
L 703 3866 
L 703 4441 
L 1819 4666 
L 2450 4666 
L 2450 531 
L 3481 531 
L 3481 0 
L 794 0 
L 794 531 
z
" transform="scale(0.015625)"/>
       </defs>
       <use xlink:href="#DejaVuSans-31"/>
       <use xlink:href="#DejaVuSans-30" x="63.623047"/>
       <use xlink:href="#DejaVuSans-30" x="127.246094"/>
       <use xlink:href="#DejaVuSans-30" x="190.869141"/>
      </g>
     </g>
    </g>
    <g id="xtick_3">
     <g id="line2d_3">
      <g>
       <use xlink:href="#m65dc589daa" x="490.884611" y="951.181179" style="stroke: #000000; stroke-width: 0.8"/>
      </g>
     </g>
     <g id="text_3">
      <!-- 1100 -->
      <g transform="translate(478.159611 965.779617) scale(0.1 -0.1)">
       <use xlink:href="#DejaVuSans-31"/>
       <use xlink:href="#DejaVuSans-31" x="63.623047"/>
       <use xlink:href="#DejaVuSans-30" x="127.246094"/>
       <use xlink:href="#DejaVuSans-30" x="190.869141"/>
      </g>
     </g>
    </g>
    <g id="xtick_4">
     <g id="line2d_4">
      <g>
       <use xlink:href="#m65dc589daa" x="619.09723" y="951.181179" style="stroke: #000000; stroke-width: 0.8"/>
      </g>
     </g>
     <g id="text_4">
      <!-- 1200 -->
      <g transform="translate(606.37223 965.779617) scale(0.1 -0.1)">
       <defs>
        <path id="DejaVuSans-32" d="M 1228 531 
L 3431 531 
L 3431 0 
L 469 0 
L 469 531 
Q 828 903 1448 1529 
Q 2069 2156 2228 2338 
Q 2531 2678 2651 2914 
Q 2772 3150 2772 3378 
Q 2772 3750 2511 3984 
Q 2250 4219 1831 4219 
Q 1534 4219 1204 4116 
Q 875 4013 500 3803 
L 500 4441 
Q 881 4594 1212 4672 
Q 1544 4750 1819 4750 
Q 2544 4750 2975 4387 
Q 3406 4025 3406 3419 
Q 3406 3131 3298 2873 
Q 3191 2616 2906 2266 
Q 2828 2175 2409 1742 
Q 1991 1309 1228 531 
z
" transform="scale(0.015625)"/>
       </defs>
       <use xlink:href="#DejaVuSans-31"/>
       <use xlink:href="#DejaVuSans-32" x="63.623047"/>
       <use xlink:href="#DejaVuSans-30" x="127.246094"/>
       <use xlink:href="#DejaVuSans-30" x="190.869141"/>
      </g>
     </g>
    </g>
    <g id="xtick_5">
     <g id="line2d_5">
      <g>
       <use xlink:href="#m65dc589daa" x="747.309849" y="951.181179" style="stroke: #000000; stroke-width: 0.8"/>
      </g>
     </g>
     <g id="text_5">
      <!-- 1300 -->
      <g transform="translate(734.584849 965.779617) scale(0.1 -0.1)">
       <defs>
        <path id="DejaVuSans-33" d="M 2597 2516 
Q 3050 2419 3304 2112 
Q 3559 1806 3559 1356 
Q 3559 666 3084 287 
Q 2609 -91 1734 -91 
Q 1441 -91 1130 -33 
Q 819 25 488 141 
L 488 750 
Q 750 597 1062 519 
Q 1375 441 1716 441 
Q 2309 441 2620 675 
Q 2931 909 2931 1356 
Q 2931 1769 2642 2001 
Q 2353 2234 1838 2234 
L 1294 2234 
L 1294 2753 
L 1863 2753 
Q 2328 2753 2575 2939 
Q 2822 3125 2822 3475 
Q 2822 3834 2567 4026 
Q 2313 4219 1838 4219 
Q 1578 4219 1281 4162 
Q 984 4106 628 3988 
L 628 4550 
Q 988 4650 1302 4700 
Q 1616 4750 1894 4750 
Q 2613 4750 3031 4423 
Q 3450 4097 3450 3541 
Q 3450 3153 3228 2886 
Q 3006 2619 2597 2516 
z
" transform="scale(0.015625)"/>
       </defs>
       <use xlink:href="#DejaVuSans-31"/>
       <use xlink:href="#DejaVuSans-33" x="63.623047"/>
       <use xlink:href="#DejaVuSans-30" x="127.246094"/>
       <use xlink:href="#DejaVuSans-30" x="190.869141"/>
      </g>
     </g>
    </g>
    <g id="xtick_6">
     <g id="line2d_6">
      <g>
       <use xlink:href="#m65dc589daa" x="875.522468" y="951.181179" style="stroke: #000000; stroke-width: 0.8"/>
      </g>
     </g>
     <g id="text_6">
      <!-- 1400 -->
      <g transform="translate(862.797468 965.779617) scale(0.1 -0.1)">
       <defs>
        <path id="DejaVuSans-34" d="M 2419 4116 
L 825 1625 
L 2419 1625 
L 2419 4116 
z
M 2253 4666 
L 3047 4666 
L 3047 1625 
L 3713 1625 
L 3713 1100 
L 3047 1100 
L 3047 0 
L 2419 0 
L 2419 1100 
L 313 1100 
L 313 1709 
L 2253 4666 
z
" transform="scale(0.015625)"/>
       </defs>
       <use xlink:href="#DejaVuSans-31"/>
       <use xlink:href="#DejaVuSans-34" x="63.623047"/>
       <use xlink:href="#DejaVuSans-30" x="127.246094"/>
       <use xlink:href="#DejaVuSans-30" x="190.869141"/>
      </g>
     </g>
    </g>
    <g id="xtick_7">
     <g id="line2d_7">
      <g>
       <use xlink:href="#m65dc589daa" x="1003.735087" y="951.181179" style="stroke: #000000; stroke-width: 0.8"/>
      </g>
     </g>
     <g id="text_7">
      <!-- 1500 -->
      <g transform="translate(991.010087 965.779617) scale(0.1 -0.1)">
       <defs>
        <path id="DejaVuSans-35" d="M 691 4666 
L 3169 4666 
L 3169 4134 
L 1269 4134 
L 1269 2991 
Q 1406 3038 1543 3061 
Q 1681 3084 1819 3084 
Q 2600 3084 3056 2656 
Q 3513 2228 3513 1497 
Q 3513 744 3044 326 
Q 2575 -91 1722 -91 
Q 1428 -91 1123 -41 
Q 819 9 494 109 
L 494 744 
Q 775 591 1075 516 
Q 1375 441 1709 441 
Q 2250 441 2565 725 
Q 2881 1009 2881 1497 
Q 2881 1984 2565 2268 
Q 2250 2553 1709 2553 
Q 1456 2553 1204 2497 
Q 953 2441 691 2322 
L 691 4666 
z
" transform="scale(0.015625)"/>
       </defs>
       <use xlink:href="#DejaVuSans-31"/>
       <use xlink:href="#DejaVuSans-35" x="63.623047"/>
       <use xlink:href="#DejaVuSans-30" x="127.246094"/>
       <use xlink:href="#DejaVuSans-30" x="190.869141"/>
      </g>
     </g>
    </g>
    <g id="xtick_8">
     <g id="line2d_8">
      <g>
       <use xlink:href="#m65dc589daa" x="1131.947705" y="951.181179" style="stroke: #000000; stroke-width: 0.8"/>
      </g>
     </g>
     <g id="text_8">
      <!-- 1600 -->
      <g transform="translate(1119.222705 965.779617) scale(0.1 -0.1)">
       <defs>
        <path id="DejaVuSans-36" d="M 2113 2584 
Q 1688 2584 1439 2293 
Q 1191 2003 1191 1497 
Q 1191 994 1439 701 
Q 1688 409 2113 409 
Q 2538 409 2786 701 
Q 3034 994 3034 1497 
Q 3034 2003 2786 2293 
Q 2538 2584 2113 2584 
z
M 3366 4563 
L 3366 3988 
Q 3128 4100 2886 4159 
Q 2644 4219 2406 4219 
Q 1781 4219 1451 3797 
Q 1122 3375 1075 2522 
Q 1259 2794 1537 2939 
Q 1816 3084 2150 3084 
Q 2853 3084 3261 2657 
Q 3669 2231 3669 1497 
Q 3669 778 3244 343 
Q 2819 -91 2113 -91 
Q 1303 -91 875 529 
Q 447 1150 447 2328 
Q 447 3434 972 4092 
Q 1497 4750 2381 4750 
Q 2619 4750 2861 4703 
Q 3103 4656 3366 4563 
z
" transform="scale(0.015625)"/>
       </defs>
       <use xlink:href="#DejaVuSans-31"/>
       <use xlink:href="#DejaVuSans-36" x="63.623047"/>
       <use xlink:href="#DejaVuSans-30" x="127.246094"/>
       <use xlink:href="#DejaVuSans-30" x="190.869141"/>
      </g>
     </g>
    </g>
    <g id="xtick_9">
     <g id="line2d_9">
      <g>
       <use xlink:href="#m65dc589daa" x="1260.160324" y="951.181179" style="stroke: #000000; stroke-width: 0.8"/>
      </g>
     </g>
     <g id="text_9">
      <!-- 1700 -->
      <g transform="translate(1247.435324 965.779617) scale(0.1 -0.1)">
       <defs>
        <path id="DejaVuSans-37" d="M 525 4666 
L 3525 4666 
L 3525 4397 
L 1831 0 
L 1172 0 
L 2766 4134 
L 525 4134 
L 525 4666 
z
" transform="scale(0.015625)"/>
       </defs>
       <use xlink:href="#DejaVuSans-31"/>
       <use xlink:href="#DejaVuSans-37" x="63.623047"/>
       <use xlink:href="#DejaVuSans-30" x="127.246094"/>
       <use xlink:href="#DejaVuSans-30" x="190.869141"/>
      </g>
     </g>
    </g>
   </g>
   <g id="matplotlib.axis_2">
    <g id="ytick_1">
     <g id="line2d_10">
      <defs>
       <path id="mea54e91d40" d="M 0 0 
L -3.5 0 
" style="stroke: #000000; stroke-width: 0.8"/>
      </defs>
      <g>
       <use xlink:href="#mea54e91d40" x="180" y="865.076587" style="stroke: #000000; stroke-width: 0.8"/>
      </g>
     </g>
     <g id="text_10">
      <!-- 900 -->
      <g transform="translate(153.9125 868.875806) scale(0.1 -0.1)">
       <use xlink:href="#DejaVuSans-39"/>
       <use xlink:href="#DejaVuSans-30" x="63.623047"/>
       <use xlink:href="#DejaVuSans-30" x="127.246094"/>
      </g>
     </g>
    </g>
    <g id="ytick_2">
     <g id="line2d_11">
      <g>
       <use xlink:href="#mea54e91d40" x="180" y="736.863968" style="stroke: #000000; stroke-width: 0.8"/>
      </g>
     </g>
     <g id="text_11">
      <!-- 1000 -->
      <g transform="translate(147.55 740.663187) scale(0.1 -0.1)">
       <use xlink:href="#DejaVuSans-31"/>
       <use xlink:href="#DejaVuSans-30" x="63.623047"/>
       <use xlink:href="#DejaVuSans-30" x="127.246094"/>
       <use xlink:href="#DejaVuSans-30" x="190.869141"/>
      </g>
     </g>
    </g>
    <g id="ytick_3">
     <g id="line2d_12">
      <g>
       <use xlink:href="#mea54e91d40" x="180" y="608.651349" style="stroke: #000000; stroke-width: 0.8"/>
      </g>
     </g>
     <g id="text_12">
      <!-- 1100 -->
      <g transform="translate(147.55 612.450568) scale(0.1 -0.1)">
       <use xlink:href="#DejaVuSans-31"/>
       <use xlink:href="#DejaVuSans-31" x="63.623047"/>
       <use xlink:href="#DejaVuSans-30" x="127.246094"/>
       <use xlink:href="#DejaVuSans-30" x="190.869141"/>
      </g>
     </g>
    </g>
    <g id="ytick_4">
     <g id="line2d_13">
      <g>
       <use xlink:href="#mea54e91d40" x="180" y="480.438731" style="stroke: #000000; stroke-width: 0.8"/>
      </g>
     </g>
     <g id="text_13">
      <!-- 1200 -->
      <g transform="translate(147.55 484.237949) scale(0.1 -0.1)">
       <use xlink:href="#DejaVuSans-31"/>
       <use xlink:href="#DejaVuSans-32" x="63.623047"/>
       <use xlink:href="#DejaVuSans-30" x="127.246094"/>
       <use xlink:href="#DejaVuSans-30" x="190.869141"/>
      </g>
     </g>
    </g>
    <g id="ytick_5">
     <g id="line2d_14">
      <g>
       <use xlink:href="#mea54e91d40" x="180" y="352.226112" style="stroke: #000000; stroke-width: 0.8"/>
      </g>
     </g>
     <g id="text_14">
      <!-- 1300 -->
      <g transform="translate(147.55 356.02533) scale(0.1 -0.1)">
       <use xlink:href="#DejaVuSans-31"/>
       <use xlink:href="#DejaVuSans-33" x="63.623047"/>
       <use xlink:href="#DejaVuSans-30" x="127.246094"/>
       <use xlink:href="#DejaVuSans-30" x="190.869141"/>
      </g>
     </g>
    </g>
    <g id="ytick_6">
     <g id="line2d_15">
      <g>
       <use xlink:href="#mea54e91d40" x="180" y="224.013493" style="stroke: #000000; stroke-width: 0.8"/>
      </g>
     </g>
     <g id="text_15">
      <!-- 1400 -->
      <g transform="translate(147.55 227.812712) scale(0.1 -0.1)">
       <use xlink:href="#DejaVuSans-31"/>
       <use xlink:href="#DejaVuSans-34" x="63.623047"/>
       <use xlink:href="#DejaVuSans-30" x="127.246094"/>
       <use xlink:href="#DejaVuSans-30" x="190.869141"/>
      </g>
     </g>
    </g>
   </g>
   <g id="LineCollection_1">
    <path d="M 1195.556098 530.255256 
L 1170.06547 565.193963 
L 1145.845856 597.387077 
L 1122.723293 627.124198 
L 1100.649631 654.520996 
L 1079.579717 679.68772 
L 1059.471479 702.729292 
L 1040.286035 723.745439 
L 1021.987813 742.830879 
L 1004.544684 760.075566 
L 987.928111 775.565024 
L 972.113286 789.380782 
L 957.079236 801.600947 
L 942.80885 812.300947 
L 929.288746 821.554477 
L 916.508869 829.434664 
L 904.461641 836.015433 
L 893.140467 841.372966 
L 882.53737 845.587037 
L 872.639615 848.741779 
L 863.425423 850.925283 
L 854.859329 852.227299 
L 846.88834 852.734553 
L 839.440576 852.523885 
L 832.427934 851.654553 
L 825.753311 850.162072 
L 819.321034 848.056061 
L 813.047552 845.323301 
L 806.869223 841.935101 
L 800.745318 837.856475 
L 794.656427 833.054376 
L 788.599872 827.503274 
L 782.584125 821.187755 
L 776.623679 814.102739 
L 770.735133 806.252293 
L 764.93457 797.647865 
L 759.236056 788.306501 
L 753.650926 778.249314 
L 748.187581 767.500316 
L 742.85157 756.085585 
L 737.645819 744.032715 
L 732.570904 731.370494 
L 727.625327 718.128728 
L 722.805767 704.33818 
L 718.107295 690.03057 
L 713.523551 675.238625 
L 709.046889 659.99614 
L 704.668491 644.338054 
L 700.378458 628.300513 
L 696.165877 611.92093 
L 692.018876 595.238031 
L 683.869549 561.123849 
L 671.786354 508.710419 
L 663.627173 473.433991 
L 655.219841 438.358434 
L 650.87226 421.016672 
L 646.399427 403.870353 
L 641.777771 386.967795 
L 636.98221 370.356723 
L 631.985876 354.083936 
L 626.759734 338.194987 
L 621.272095 322.733937 
L 615.487991 307.743232 
L 609.368442 293.263848 
L 602.869637 279.335853 
L 595.942224 265.999637 
L 588.531003 253.298085 
L 580.575661 241.279929 
L 572.01349 230.004228 
L 562.785307 219.545268 
L 554.893969 211.82773 
L 552.845441 209.995958 
L 544.57251 203.238266 
L 542.175214 201.466492 
L 533.508354 195.68845 
L 530.796336 194.074878 
L 521.724901 189.2896 
L 518.777641 187.928502 
L 509.292882 184.141673 
L 506.228735 183.101502 
L 496.324025 180.310595 
L 493.279894 179.617384 
L 482.950959 177.81084 
L 480.055898 177.444955 
L 469.30106 176.601322 
L 466.65516 176.508019 
L 453.141226 176.701958 
L 439.54608 177.90895 
L 425.880021 180.007254 
L 412.142834 182.874308 
L 398.333263 186.385599 
L 384.455985 190.411491 
L 370.526538 194.813576 
L 328.56554 208.779269 
L 314.733543 213.081866 
L 301.179936 216.855339 
L 288.049426 219.883008 
L 275.517742 221.957298 
L 263.77763 222.902546 
L 252.994709 222.5998 
L 240.755727 220.578404 
L 240.755727 220.578404 
" clip-path="url(#p7ae5360091)" style="fill: none; stroke: #1f77b4; stroke-width: 1.5"/>
    <path d="M 1220.414412 548.391419 
L 1194.790649 583.512607 
L 1170.287934 616.082025 
L 1146.851607 646.222666 
L 1124.429345 674.05213 
L 1102.97113 699.682656 
L 1082.429212 723.221172 
L 1062.758069 744.769365 
L 1043.914361 764.423758 
L 1025.85688 782.275807 
L 1008.546504 798.412007 
L 991.946134 812.914014 
L 976.020641 825.858773 
L 960.736801 837.318665 
L 946.063232 847.361659 
L 931.970327 856.051471 
L 918.430186 863.447739 
L 905.416543 869.606201 
L 892.904694 874.578882 
L 880.871421 878.414284 
L 869.294918 881.157589 
L 858.154711 882.850862 
L 847.431583 883.533255 
L 837.107489 883.241227 
L 827.165482 882.008752 
L 817.589629 879.867541 
L 808.364931 876.847256 
L 799.477243 872.975733 
L 790.913194 868.279203 
L 782.660105 862.782504 
L 774.705912 856.509306 
L 767.039088 849.482321 
L 759.648563 841.723517 
L 752.523648 833.254329 
L 745.653965 824.095858 
L 739.029367 814.269075 
L 732.639874 803.795013 
L 726.475597 792.694953 
L 720.52668 780.990603 
L 714.783226 768.704275 
L 709.235245 755.85904 
L 703.872589 742.478888 
L 698.6849 728.588869 
L 693.661558 714.215224 
L 688.791632 699.385509 
L 684.063836 684.128701 
L 679.466488 668.475295 
L 674.987474 652.457386 
L 670.614219 636.108733 
L 666.333655 619.464814 
L 662.132202 602.562862 
L 657.99575 585.441883 
L 653.909647 568.142656 
L 649.858694 550.70772 
L 645.82714 533.181338 
L 641.798695 515.609439 
L 637.756531 498.039547 
L 633.683308 480.52068 
L 629.561195 463.103237 
L 625.371901 445.838852 
L 621.096712 428.780235 
L 616.716538 411.980981 
L 612.211964 395.495356 
L 607.56331 379.378062 
L 602.7507 363.683972 
L 597.754136 348.467838 
L 592.553582 333.783971 
L 587.129061 319.685897 
L 581.460747 306.225977 
L 575.529086 293.455005 
L 569.314906 281.421767 
L 562.799549 270.172576 
L 555.965009 259.750771 
L 548.79408 250.196186 
L 541.27051 241.54458 
L 533.379172 233.827041 
L 525.106241 227.06935 
L 516.439381 221.291308 
L 507.367945 216.506029 
L 497.883186 212.7192 
L 487.978476 209.928293 
L 477.649541 208.121749 
L 466.894703 207.278115 
L 455.715138 207.365147 
L 444.115142 208.338868 
L 432.102412 210.142583 
L 419.68834 212.70586 
L 406.888318 215.943461 
L 393.722051 219.754228 
L 380.213898 224.019932 
L 366.393207 228.604072 
L 352.294678 233.350625 
L 337.958735 238.08276 
L 323.431908 242.601491 
L 308.767237 246.684297 
L 294.024681 250.083676 
L 279.271551 252.525668 
L 264.582952 253.708311 
L 250.042241 253.300059 
L 235.7415 250.938143 
" clip-path="url(#p7ae5360091)" style="fill: none; stroke: #8c564b; stroke-width: 1.5"/>
    <path d="M 1245.272727 566.527581 
L 1219.380029 602.011758 
L 1194.579611 634.970398 
L 1170.812948 665.528373 
L 1148.023222 693.805236 
L 1126.155166 719.915221 
L 1105.1549 743.967239 
L 1084.969732 766.064863 
L 1065.547934 786.306278 
L 1046.838507 804.784195 
L 1028.790926 821.58569 
L 1011.354901 836.791953 
L 994.480178 850.477905 
L 978.116458 862.711651 
L 962.213503 873.553736 
L 946.721601 883.056213 
L 931.592553 891.261554 
L 916.781425 898.20158 
L 902.249257 903.896715 
L 887.966787 908.356094 
L 873.918897 911.57921 
L 862.778691 913.272482 
L 860.108951 913.559772 
L 849.385822 914.242165 
L 846.56154 914.291981 
L 836.237446 913.999953 
L 833.321893 913.778507 
L 823.379886 912.546032 
L 820.450736 912.038211 
L 810.874883 909.896999 
L 808.014935 909.111026 
L 798.790237 906.090741 
L 796.076207 905.057953 
L 787.188519 901.186431 
L 784.681247 899.955998 
L 776.117198 895.259468 
L 773.856016 893.889921 
L 763.605042 886.943646 
L 753.914677 879.193677 
L 744.758324 870.70551 
L 736.101826 861.532793 
L 727.907897 851.718374 
L 720.139232 841.296283 
L 712.760381 830.293948 
L 705.738662 818.734256 
L 699.044444 806.637263 
L 692.651048 794.021542 
L 686.534444 780.905197 
L 680.672868 767.306608 
L 675.046428 753.244975 
L 669.636726 738.740706 
L 664.426529 723.815707 
L 659.39947 708.493584 
L 654.539808 692.7998 
L 649.832213 676.761789 
L 645.261603 660.409039 
L 640.812997 643.773156 
L 636.471407 626.887912 
L 632.221748 609.789269 
L 623.937022 575.106703 
L 611.808391 522.496966 
L 603.725469 487.548321 
L 595.495887 453.207255 
L 591.284295 436.402398 
L 586.986306 419.918347 
L 582.586149 403.814862 
L 578.068891 388.153126 
L 573.420808 372.995566 
L 568.629862 358.405607 
L 563.686295 344.447346 
L 558.583359 331.185058 
L 553.318199 318.682462 
L 547.892848 307.001584 
L 542.315241 296.201018 
L 536.600019 286.333311 
L 530.768646 277.441208 
L 524.848082 269.552617 
L 518.866895 262.67465 
L 512.8477 256.788022 
L 506.795658 251.84445 
L 500.684992 247.770576 
L 494.44867 244.48085 
L 487.97818 241.89748 
L 481.137387 239.969911 
L 473.78697 238.684313 
L 465.809288 238.058526 
L 457.123897 238.126141 
L 447.690438 238.917999 
L 437.502159 240.447773 
L 426.57564 242.703898 
L 414.940924 245.646749 
L 402.63391 249.208819 
L 389.691101 253.295995 
L 347.098441 267.465101 
L 331.685009 272.245083 
L 315.681087 276.668541 
L 299.049641 280.44164 
L 281.741069 283.197441 
L 267.05247 284.380084 
L 263.719352 284.467218 
L 249.178641 284.058967 
L 245.028014 283.659798 
L 230.727273 281.297881 
L 230.727273 281.297881 
" clip-path="url(#p7ae5360091)" style="fill: none; stroke: #17becf; stroke-width: 1.5"/>
   </g>
   <g id="patch_3">
    <path d="M 180 951.181179 
L 180 139.618821 
" style="fill: none; stroke: #000000; stroke-width: 0.8; stroke-linejoin: miter; stroke-linecap: square"/>
   </g>
   <g id="patch_4">
    <path d="M 1296 951.181179 
L 1296 139.618821 
" style="fill: none; stroke: #000000; stroke-width: 0.8; stroke-linejoin: miter; stroke-linecap: square"/>
   </g>
   <g id="patch_5">
    <path d="M 180 951.181179 
L 1296 951.181179 
" style="fill: none; stroke: #000000; stroke-width: 0.8; stroke-linejoin: miter; stroke-linecap: square"/>
   </g>
   <g id="patch_6">
    <path d="M 180 139.618821 
L 1296 139.618821 
" style="fill: none; stroke: #000000; stroke-width: 0.8; stroke-linejoin: miter; stroke-linecap: square"/>
   </g>
  </g>
 </g>
 <defs>
  <clipPath id="p7ae5360091">
   <rect x="180" y="139.618821" width="1116" height="811.562358"/>
  </clipPath>
 </defs>
</svg>
