<?xml version="1.0" encoding="utf-8" standalone="no"?>
<!DOCTYPE svg PUBLIC "-//W3C//DTD SVG 1.1//EN"
  "http://www.w3.org/Graphics/SVG/1.1/DTD/svg11.dtd">
<svg xmlns:xlink="http://www.w3.org/1999/xlink" width="1440pt" height="1080pt" viewBox="0 0 1440 1080" xmlns="http://www.w3.org/2000/svg" version="1.1">
 <metadata>
  <rdf:RDF xmlns:dc="http://purl.org/dc/elements/1.1/" xmlns:cc="http://creativecommons.org/ns#" xmlns:rdf="http://www.w3.org/1999/02/22-rdf-syntax-ns#">
   <cc:Work>
    <dc:type rdf:resource="http://purl.org/dc/dcmitype/StillImage"/>
    <dc:date>2023-12-11T12:06:46.440895</dc:date>
    <dc:format>image/svg+xml</dc:format>
    <dc:creator>
     <cc:Agent>
      <dc:title>Matplotlib v3.7.1, https://matplotlib.org/</dc:title>
     </cc:Agent>
    </dc:creator>
   </cc:Work>
  </rdf:RDF>
 </metadata>
 <defs>
  <style type="text/css">*{stroke-linejoin: round; stroke-linecap: butt}</style>
 </defs>
 <g id="figure_1">
  <g id="patch_1">
   <path d="M 0 1080 
L 1440 1080 
L 1440 0 
L 0 0 
z
" style="fill: #ffffff"/>
  </g>
  <g id="axes_1">
   <g id="patch_2">
    <path d="M 180 749.365084 
L 1296 749.365084 
L 1296 341.434916 
L 180 341.434916 
z
" style="fill: #ffffff"/>
   </g>
   <g id="matplotlib.axis_1">
    <g id="xtick_1">
     <g id="line2d_1">
      <defs>
       <path id="m2c55290acb" d="M 0 0 
L 0 3.5 
" style="stroke: #000000; stroke-width: 0.8"/>
      </defs>
      <g>
       <use xlink:href="#m2c55290acb" x="333.83155" y="749.365084" style="stroke: #000000; stroke-width: 0.8"/>
      </g>
     </g>
     <g id="text_1">
      <!-- 900 -->
      <g transform="translate(324.2878 763.963522) scale(0.1 -0.1)">
       <defs>
        <path id="DejaVuSans-39" d="M 703 97 
L 703 672 
Q 941 559 1184 500 
Q 1428 441 1663 441 
Q 2288 441 2617 861 
Q 2947 1281 2994 2138 
Q 2813 1869 2534 1725 
Q 2256 1581 1919 1581 
Q 1219 1581 811 2004 
Q 403 2428 403 3163 
Q 403 3881 828 4315 
Q 1253 4750 1959 4750 
Q 2769 4750 3195 4129 
Q 3622 3509 3622 2328 
Q 3622 1225 3098 567 
Q 2575 -91 1691 -91 
Q 1453 -91 1209 -44 
Q 966 3 703 97 
z
M 1959 2075 
Q 2384 2075 2632 2365 
Q 2881 2656 2881 3163 
Q 2881 3666 2632 3958 
Q 2384 4250 1959 4250 
Q 1534 4250 1286 3958 
Q 1038 3666 1038 3163 
Q 1038 2656 1286 2365 
Q 1534 2075 1959 2075 
z
" transform="scale(0.015625)"/>
        <path id="DejaVuSans-30" d="M 2034 4250 
Q 1547 4250 1301 3770 
Q 1056 3291 1056 2328 
Q 1056 1369 1301 889 
Q 1547 409 2034 409 
Q 2525 409 2770 889 
Q 3016 1369 3016 2328 
Q 3016 3291 2770 3770 
Q 2525 4250 2034 4250 
z
M 2034 4750 
Q 2819 4750 3233 4129 
Q 3647 3509 3647 2328 
Q 3647 1150 3233 529 
Q 2819 -91 2034 -91 
Q 1250 -91 836 529 
Q 422 1150 422 2328 
Q 422 3509 836 4129 
Q 1250 4750 2034 4750 
z
" transform="scale(0.015625)"/>
       </defs>
       <use xlink:href="#DejaVuSans-39"/>
       <use xlink:href="#DejaVuSans-30" x="63.623047"/>
       <use xlink:href="#DejaVuSans-30" x="127.246094"/>
      </g>
     </g>
    </g>
    <g id="xtick_2">
     <g id="line2d_2">
      <g>
       <use xlink:href="#m2c55290acb" x="494.014572" y="749.365084" style="stroke: #000000; stroke-width: 0.8"/>
      </g>
     </g>
     <g id="text_2">
      <!-- 1000 -->
      <g transform="translate(481.289572 763.963522) scale(0.1 -0.1)">
       <defs>
        <path id="DejaVuSans-31" d="M 794 531 
L 1825 531 
L 1825 4091 
L 703 3866 
L 703 4441 
L 1819 4666 
L 2450 4666 
L 2450 531 
L 3481 531 
L 3481 0 
L 794 0 
L 794 531 
z
" transform="scale(0.015625)"/>
       </defs>
       <use xlink:href="#DejaVuSans-31"/>
       <use xlink:href="#DejaVuSans-30" x="63.623047"/>
       <use xlink:href="#DejaVuSans-30" x="127.246094"/>
       <use xlink:href="#DejaVuSans-30" x="190.869141"/>
      </g>
     </g>
    </g>
    <g id="xtick_3">
     <g id="line2d_3">
      <g>
       <use xlink:href="#m2c55290acb" x="654.197594" y="749.365084" style="stroke: #000000; stroke-width: 0.8"/>
      </g>
     </g>
     <g id="text_3">
      <!-- 1100 -->
      <g transform="translate(641.472594 763.963522) scale(0.1 -0.1)">
       <use xlink:href="#DejaVuSans-31"/>
       <use xlink:href="#DejaVuSans-31" x="63.623047"/>
       <use xlink:href="#DejaVuSans-30" x="127.246094"/>
       <use xlink:href="#DejaVuSans-30" x="190.869141"/>
      </g>
     </g>
    </g>
    <g id="xtick_4">
     <g id="line2d_4">
      <g>
       <use xlink:href="#m2c55290acb" x="814.380616" y="749.365084" style="stroke: #000000; stroke-width: 0.8"/>
      </g>
     </g>
     <g id="text_4">
      <!-- 1200 -->
      <g transform="translate(801.655616 763.963522) scale(0.1 -0.1)">
       <defs>
        <path id="DejaVuSans-32" d="M 1228 531 
L 3431 531 
L 3431 0 
L 469 0 
L 469 531 
Q 828 903 1448 1529 
Q 2069 2156 2228 2338 
Q 2531 2678 2651 2914 
Q 2772 3150 2772 3378 
Q 2772 3750 2511 3984 
Q 2250 4219 1831 4219 
Q 1534 4219 1204 4116 
Q 875 4013 500 3803 
L 500 4441 
Q 881 4594 1212 4672 
Q 1544 4750 1819 4750 
Q 2544 4750 2975 4387 
Q 3406 4025 3406 3419 
Q 3406 3131 3298 2873 
Q 3191 2616 2906 2266 
Q 2828 2175 2409 1742 
Q 1991 1309 1228 531 
z
" transform="scale(0.015625)"/>
       </defs>
       <use xlink:href="#DejaVuSans-31"/>
       <use xlink:href="#DejaVuSans-32" x="63.623047"/>
       <use xlink:href="#DejaVuSans-30" x="127.246094"/>
       <use xlink:href="#DejaVuSans-30" x="190.869141"/>
      </g>
     </g>
    </g>
    <g id="xtick_5">
     <g id="line2d_5">
      <g>
       <use xlink:href="#m2c55290acb" x="974.563638" y="749.365084" style="stroke: #000000; stroke-width: 0.8"/>
      </g>
     </g>
     <g id="text_5">
      <!-- 1300 -->
      <g transform="translate(961.838638 763.963522) scale(0.1 -0.1)">
       <defs>
        <path id="DejaVuSans-33" d="M 2597 2516 
Q 3050 2419 3304 2112 
Q 3559 1806 3559 1356 
Q 3559 666 3084 287 
Q 2609 -91 1734 -91 
Q 1441 -91 1130 -33 
Q 819 25 488 141 
L 488 750 
Q 750 597 1062 519 
Q 1375 441 1716 441 
Q 2309 441 2620 675 
Q 2931 909 2931 1356 
Q 2931 1769 2642 2001 
Q 2353 2234 1838 2234 
L 1294 2234 
L 1294 2753 
L 1863 2753 
Q 2328 2753 2575 2939 
Q 2822 3125 2822 3475 
Q 2822 3834 2567 4026 
Q 2313 4219 1838 4219 
Q 1578 4219 1281 4162 
Q 984 4106 628 3988 
L 628 4550 
Q 988 4650 1302 4700 
Q 1616 4750 1894 4750 
Q 2613 4750 3031 4423 
Q 3450 4097 3450 3541 
Q 3450 3153 3228 2886 
Q 3006 2619 2597 2516 
z
" transform="scale(0.015625)"/>
       </defs>
       <use xlink:href="#DejaVuSans-31"/>
       <use xlink:href="#DejaVuSans-33" x="63.623047"/>
       <use xlink:href="#DejaVuSans-30" x="127.246094"/>
       <use xlink:href="#DejaVuSans-30" x="190.869141"/>
      </g>
     </g>
    </g>
    <g id="xtick_6">
     <g id="line2d_6">
      <g>
       <use xlink:href="#m2c55290acb" x="1134.74666" y="749.365084" style="stroke: #000000; stroke-width: 0.8"/>
      </g>
     </g>
     <g id="text_6">
      <!-- 1400 -->
      <g transform="translate(1122.02166 763.963522) scale(0.1 -0.1)">
       <defs>
        <path id="DejaVuSans-34" d="M 2419 4116 
L 825 1625 
L 2419 1625 
L 2419 4116 
z
M 2253 4666 
L 3047 4666 
L 3047 1625 
L 3713 1625 
L 3713 1100 
L 3047 1100 
L 3047 0 
L 2419 0 
L 2419 1100 
L 313 1100 
L 313 1709 
L 2253 4666 
z
" transform="scale(0.015625)"/>
       </defs>
       <use xlink:href="#DejaVuSans-31"/>
       <use xlink:href="#DejaVuSans-34" x="63.623047"/>
       <use xlink:href="#DejaVuSans-30" x="127.246094"/>
       <use xlink:href="#DejaVuSans-30" x="190.869141"/>
      </g>
     </g>
    </g>
    <g id="xtick_7">
     <g id="line2d_7">
      <g>
       <use xlink:href="#m2c55290acb" x="1294.929682" y="749.365084" style="stroke: #000000; stroke-width: 0.8"/>
      </g>
     </g>
     <g id="text_7">
      <!-- 1500 -->
      <g transform="translate(1282.204682 763.963522) scale(0.1 -0.1)">
       <defs>
        <path id="DejaVuSans-35" d="M 691 4666 
L 3169 4666 
L 3169 4134 
L 1269 4134 
L 1269 2991 
Q 1406 3038 1543 3061 
Q 1681 3084 1819 3084 
Q 2600 3084 3056 2656 
Q 3513 2228 3513 1497 
Q 3513 744 3044 326 
Q 2575 -91 1722 -91 
Q 1428 -91 1123 -41 
Q 819 9 494 109 
L 494 744 
Q 775 591 1075 516 
Q 1375 441 1709 441 
Q 2250 441 2565 725 
Q 2881 1009 2881 1497 
Q 2881 1984 2565 2268 
Q 2250 2553 1709 2553 
Q 1456 2553 1204 2497 
Q 953 2441 691 2322 
L 691 4666 
z
" transform="scale(0.015625)"/>
       </defs>
       <use xlink:href="#DejaVuSans-31"/>
       <use xlink:href="#DejaVuSans-35" x="63.623047"/>
       <use xlink:href="#DejaVuSans-30" x="127.246094"/>
       <use xlink:href="#DejaVuSans-30" x="190.869141"/>
      </g>
     </g>
    </g>
   </g>
   <g id="matplotlib.axis_2">
    <g id="ytick_1">
     <g id="line2d_8">
      <defs>
       <path id="m36a7f5b3f8" d="M 0 0 
L -3.5 0 
" style="stroke: #000000; stroke-width: 0.8"/>
      </defs>
      <g>
       <use xlink:href="#m36a7f5b3f8" x="180" y="674.070769" style="stroke: #000000; stroke-width: 0.8"/>
      </g>
     </g>
     <g id="text_8">
      <!-- 900 -->
      <g transform="translate(153.9125 677.869988) scale(0.1 -0.1)">
       <use xlink:href="#DejaVuSans-39"/>
       <use xlink:href="#DejaVuSans-30" x="63.623047"/>
       <use xlink:href="#DejaVuSans-30" x="127.246094"/>
      </g>
     </g>
    </g>
    <g id="ytick_2">
     <g id="line2d_9">
      <g>
       <use xlink:href="#m36a7f5b3f8" x="180" y="593.979258" style="stroke: #000000; stroke-width: 0.8"/>
      </g>
     </g>
     <g id="text_9">
      <!-- 950 -->
      <g transform="translate(153.9125 597.778477) scale(0.1 -0.1)">
       <use xlink:href="#DejaVuSans-39"/>
       <use xlink:href="#DejaVuSans-35" x="63.623047"/>
       <use xlink:href="#DejaVuSans-30" x="127.246094"/>
      </g>
     </g>
    </g>
    <g id="ytick_3">
     <g id="line2d_10">
      <g>
       <use xlink:href="#m36a7f5b3f8" x="180" y="513.887747" style="stroke: #000000; stroke-width: 0.8"/>
      </g>
     </g>
     <g id="text_10">
      <!-- 1000 -->
      <g transform="translate(147.55 517.686966) scale(0.1 -0.1)">
       <use xlink:href="#DejaVuSans-31"/>
       <use xlink:href="#DejaVuSans-30" x="63.623047"/>
       <use xlink:href="#DejaVuSans-30" x="127.246094"/>
       <use xlink:href="#DejaVuSans-30" x="190.869141"/>
      </g>
     </g>
    </g>
    <g id="ytick_4">
     <g id="line2d_11">
      <g>
       <use xlink:href="#m36a7f5b3f8" x="180" y="433.796236" style="stroke: #000000; stroke-width: 0.8"/>
      </g>
     </g>
     <g id="text_11">
      <!-- 1050 -->
      <g transform="translate(147.55 437.595455) scale(0.1 -0.1)">
       <use xlink:href="#DejaVuSans-31"/>
       <use xlink:href="#DejaVuSans-30" x="63.623047"/>
       <use xlink:href="#DejaVuSans-35" x="127.246094"/>
       <use xlink:href="#DejaVuSans-30" x="190.869141"/>
      </g>
     </g>
    </g>
    <g id="ytick_5">
     <g id="line2d_12">
      <g>
       <use xlink:href="#m36a7f5b3f8" x="180" y="353.704725" style="stroke: #000000; stroke-width: 0.8"/>
      </g>
     </g>
     <g id="text_12">
      <!-- 1100 -->
      <g transform="translate(147.55 357.503943) scale(0.1 -0.1)">
       <use xlink:href="#DejaVuSans-31"/>
       <use xlink:href="#DejaVuSans-31" x="63.623047"/>
       <use xlink:href="#DejaVuSans-30" x="127.246094"/>
       <use xlink:href="#DejaVuSans-30" x="190.869141"/>
      </g>
     </g>
    </g>
   </g>
   <g id="LineCollection_1">
    <path d="M 1161.977992 359.977196 
L 1161.844005 401.358294 
L 1160.770329 438.301793 
L 1158.792878 471.322889 
L 1155.965138 500.488095 
L 1152.361841 525.864939 
L 1148.087181 547.520218 
L 1143.286945 565.522915 
L 1138.163737 579.957895 
L 1132.988773 590.960492 
L 1128.090106 598.781829 
L 1123.77903 603.873576 
L 1120.187339 606.922234 
L 1117.087505 608.717909 
L 1113.894071 609.862076 
L 1109.933362 610.557909 
L 1104.752835 610.682508 
L 1098.217364 610.014927 
L 1090.417204 608.399379 
L 1081.540658 605.788804 
L 1071.791503 602.22437 
L 1061.352969 597.802038 
L 1050.378113 592.646123 
L 1038.99113 586.892417 
L 1027.29185 580.678421 
L 1003.260554 567.398405 
L 978.563836 553.69214 
L 966.119476 546.989827 
L 953.64286 540.520542 
L 941.143846 534.372772 
L 928.625389 528.629533 
L 916.084857 523.369924 
L 903.516087 518.670904 
L 890.912551 514.608988 
L 878.271885 511.261331 
L 865.601715 508.705392 
L 852.92612 507.016152 
L 843.482827 506.359428 
L 840.291101 506.260178 
L 831.123947 506.326734 
L 827.766702 506.486735 
L 818.871083 507.271436 
L 815.443454 507.717792 
L 806.812381 509.208296 
L 803.422419 509.940245 
L 795.046624 512.117343 
L 791.800836 513.103765 
L 783.668885 515.941753 
L 780.657728 517.125742 
L 770.044051 521.901721 
L 759.979707 527.317629 
L 750.456784 533.260086 
L 741.446466 539.622826 
L 732.906817 546.309177 
L 724.7896 553.231705 
L 717.045339 560.31041 
L 709.626669 567.470536 
L 702.490339 574.640635 
L 688.916313 588.736173 
L 675.893914 602.252769 
L 669.609184 608.554612 
L 663.458872 614.471553 
L 657.437403 619.950459 
L 651.5432 624.94712 
L 645.776278 629.429192 
L 640.134431 633.378937 
L 634.607938 636.794927 
L 629.173232 639.691595 
L 623.786848 642.095614 
L 618.381745 644.038785 
L 612.868268 645.548606 
L 607.140867 646.639182 
L 601.089528 647.305719 
L 594.612712 647.524682 
L 587.627974 647.259392 
L 580.077719 646.468766 
L 571.929719 645.11627 
L 563.173786 643.176971 
L 553.816593 640.641859 
L 543.87629 637.519716 
L 533.377871 633.837273 
L 522.349571 629.638417 
L 510.82021 624.983054 
L 486.364813 614.61605 
L 459.906923 603.388882 
L 446.024419 597.792831 
L 431.690295 592.405024 
L 416.869541 587.400949 
L 401.507273 582.990702 
L 388.567359 580.015782 
L 385.531535 579.435518 
L 372.732757 577.478308 
L 368.869543 577.070814 
L 356.269778 576.33367 
L 351.491176 576.328715 
L 339.151545 577.024964 
L 333.491582 577.735604 
L 321.476332 580.089261 
L 318.300982 580.841552 
L 315.194279 581.840143 
L 303.570651 586.085569 
L 300.316551 587.432634 
L 297.187899 589.049817 
L 286.025967 595.431326 
L 283.020062 597.324376 
L 280.186412 599.466694 
L 269.558912 608.238105 
L 267.063658 610.472179 
L 264.755989 612.89953 
L 254.73812 624.32366 
L 251.137435 629.077351 
L 241.806645 643.425445 
L 239.291525 647.866643 
L 230.727273 665.417754 
L 230.727273 665.417754 
" clip-path="url(#p13f39172b2)" style="fill: none; stroke: #1f77b4; stroke-width: 1.5"/>
    <path d="M 1203.62536 360.112046 
L 1203.489632 402.03077 
L 1202.381729 440.151963 
L 1200.320122 474.578353 
L 1197.329111 505.427534 
L 1193.438173 532.830136 
L 1188.681341 556.928083 
L 1183.096609 577.872938 
L 1176.725368 595.824336 
L 1169.611872 610.948484 
L 1161.802731 623.416758 
L 1153.346431 633.404366 
L 1144.292882 641.089096 
L 1134.692989 646.650131 
L 1124.598256 650.266948 
L 1114.060407 652.118277 
L 1103.131038 652.381144 
L 1091.861289 651.22997 
L 1080.301543 648.835747 
L 1068.501146 645.365273 
L 1056.508149 640.980457 
L 1044.369071 635.837682 
L 1032.128692 630.087232 
L 1019.829851 623.872776 
L 1007.513281 617.33091 
L 995.217452 610.590762 
L 982.978436 603.773636 
L 970.829797 596.992731 
L 958.802489 590.35289 
L 946.924777 583.950413 
L 935.222175 577.872915 
L 923.717403 572.199224 
L 912.430348 566.999339 
L 901.378058 562.334414 
L 890.574735 558.256796 
L 880.031751 554.810102 
L 869.757675 552.029329 
L 859.758313 549.941008 
L 850.036761 548.56339 
L 840.593467 547.906666 
L 831.426313 547.973222 
L 822.530694 548.757924 
L 813.899622 550.248428 
L 805.523827 552.425527 
L 797.391876 555.263515 
L 789.490299 558.73058 
L 781.803716 562.789223 
L 774.314982 567.39669 
L 767.005333 572.505431 
L 759.854536 578.063575 
L 752.841052 584.015425 
L 745.942198 590.301958 
L 739.134316 596.861353 
L 732.392948 603.629519 
L 725.693009 610.540638 
L 719.008972 617.527721 
L 712.315044 624.523162 
L 705.585356 631.459303 
L 698.794144 638.269007 
L 691.915937 644.886224 
L 684.925743 651.246568 
L 677.799237 657.287882 
L 670.512944 662.950815 
L 663.044422 668.179379 
L 655.372448 672.921515 
L 647.477194 677.129643 
L 639.340402 680.761207 
L 630.945563 683.779208 
L 622.278077 686.152729 
L 613.325422 687.857438 
L 604.077311 688.87609 
L 594.525845 689.198997 
L 584.665657 688.824494 
L 574.494052 687.759373 
L 564.011142 686.019303 
L 553.219962 683.629229 
L 542.12659 680.62374 
L 530.740253 677.047413 
L 519.07342 672.955135 
L 507.141886 668.412387 
L 494.964851 663.495505 
L 482.564982 658.291902 
L 469.968459 652.900264 
L 457.205021 647.430701 
L 444.307986 642.004871 
L 431.314265 636.756054 
L 418.264357 631.829199 
L 405.202338 627.380916 
L 392.175818 623.579436 
L 379.235904 620.604517 
L 366.437127 618.647307 
L 353.837362 617.910163 
L 341.497731 618.606412 
L 329.482481 620.96007 
L 317.858853 625.205496 
L 306.696921 631.587004 
L 296.069421 640.358416 
L 286.051552 651.782545 
L 276.720762 666.130639 
L 268.156511 683.68175 
" clip-path="url(#p13f39172b2)" style="fill: none; stroke: #8c564b; stroke-width: 1.5"/>
    <path d="M 1245.272727 360.246895 
L 1245.11964 403.240648 
L 1243.954838 442.641547 
L 1241.773324 478.597487 
L 1238.563099 511.282412 
L 1234.297326 540.895559 
L 1228.922963 567.658101 
L 1223.338231 588.602957 
L 1222.345491 591.803001 
L 1215.97425 609.754399 
L 1214.412482 613.550103 
L 1207.298986 628.674251 
L 1204.907984 633.055177 
L 1197.098843 645.523451 
L 1193.587692 650.328421 
L 1185.131393 660.31603 
L 1182.813959 662.835408 
L 1180.297455 665.155961 
L 1171.243905 672.840691 
L 1168.302206 675.119579 
L 1165.168837 677.126797 
L 1155.568944 682.687833 
L 1152.22642 684.427111 
L 1148.740381 685.857174 
L 1138.645648 689.47399 
L 1135.263736 690.525723 
L 1131.804695 691.286317 
L 1121.266845 693.137646 
L 1118.175871 693.562027 
L 1115.061801 693.753822 
L 1104.132431 694.016689 
L 1098.898873 693.813139 
L 1087.629124 692.661965 
L 1083.414621 692.012015 
L 1071.854876 689.617792 
L 1068.550717 688.791215 
L 1054.20005 684.480488 
L 1040.2618 679.328567 
L 1026.660185 673.532731 
L 1013.34624 667.259008 
L 1000.293725 660.654037 
L 987.493987 653.851443 
L 962.712447 640.157851 
L 938.857064 626.914415 
L 927.4456 620.763262 
L 916.412443 615.033425 
L 905.790704 609.795211 
L 895.615216 605.107419 
L 885.921417 601.015882 
L 876.743677 597.551826 
L 868.112731 594.730212 
L 860.051885 592.548471 
L 852.571892 590.986308 
L 845.66482 590.007523 
L 839.298067 589.564754 
L 833.410532 589.607499 
L 827.91339 590.092414 
L 822.697094 590.993219 
L 817.644027 592.306649 
L 812.643459 594.051809 
L 807.604173 596.262955 
L 802.461163 598.978549 
L 797.175593 602.230513 
L 791.729777 606.036613 
L 786.11995 610.396998 
L 780.349204 615.294224 
L 774.421863 620.695472 
L 768.339659 626.555677 
L 762.099435 632.820705 
L 749.103667 646.317141 
L 735.074658 660.868527 
L 727.668512 668.282208 
L 719.944697 675.690607 
L 711.856747 683.015144 
L 703.356612 690.171647 
L 694.398102 697.068561 
L 684.941843 703.605702 
L 674.961619 709.674552 
L 664.451234 715.161253 
L 656.314443 718.792817 
L 653.430136 719.953053 
L 645.035296 722.971055 
L 641.945432 723.947906 
L 633.277946 726.321426 
L 630.068383 727.065227 
L 621.115728 728.769937 
L 617.885202 729.254658 
L 608.637091 730.27331 
L 605.484492 730.499896 
L 592.945153 730.816576 
L 580.328236 730.245602 
L 567.674239 728.84479 
L 555.005119 726.681484 
L 542.329145 723.827631 
L 529.646639 720.357506 
L 516.955292 716.347492 
L 504.254476 711.877112 
L 491.548493 707.030614 
L 478.848986 701.898633 
L 453.580318 691.187993 
L 428.432574 680.509177 
L 416.15773 675.550751 
L 404.192535 671.033418 
L 392.649612 667.102465 
L 381.667665 663.897645 
L 371.411588 661.539746 
L 362.063591 660.110235 
L 353.794105 659.626432 
L 346.698289 660.026806 
L 340.698409 661.202117 
L 335.464103 663.1139 
L 330.460222 665.974723 
L 325.169279 670.341605 
L 319.335932 676.99381 
L 313.028764 686.692437 
L 305.585749 701.945746 
L 305.585749 701.945746 
" clip-path="url(#p13f39172b2)" style="fill: none; stroke: #17becf; stroke-width: 1.5"/>
   </g>
   <g id="patch_3">
    <path d="M 180 749.365084 
L 180 341.434916 
" style="fill: none; stroke: #000000; stroke-width: 0.8; stroke-linejoin: miter; stroke-linecap: square"/>
   </g>
   <g id="patch_4">
    <path d="M 1296 749.365084 
L 1296 341.434916 
" style="fill: none; stroke: #000000; stroke-width: 0.8; stroke-linejoin: miter; stroke-linecap: square"/>
   </g>
   <g id="patch_5">
    <path d="M 180 749.365084 
L 1296 749.365084 
" style="fill: none; stroke: #000000; stroke-width: 0.8; stroke-linejoin: miter; stroke-linecap: square"/>
   </g>
   <g id="patch_6">
    <path d="M 180 341.434916 
L 1296 341.434916 
" style="fill: none; stroke: #000000; stroke-width: 0.8; stroke-linejoin: miter; stroke-linecap: square"/>
   </g>
  </g>
 </g>
 <defs>
  <clipPath id="p13f39172b2">
   <rect x="180" y="341.434916" width="1116" height="407.930168"/>
  </clipPath>
 </defs>
</svg>
