<?xml version="1.0" encoding="utf-8" standalone="no"?>
<!DOCTYPE svg PUBLIC "-//W3C//DTD SVG 1.1//EN"
  "http://www.w3.org/Graphics/SVG/1.1/DTD/svg11.dtd">
<svg xmlns:xlink="http://www.w3.org/1999/xlink" width="1440pt" height="1080pt" viewBox="0 0 1440 1080" xmlns="http://www.w3.org/2000/svg" version="1.1">
 <metadata>
  <rdf:RDF xmlns:dc="http://purl.org/dc/elements/1.1/" xmlns:cc="http://creativecommons.org/ns#" xmlns:rdf="http://www.w3.org/1999/02/22-rdf-syntax-ns#">
   <cc:Work>
    <dc:type rdf:resource="http://purl.org/dc/dcmitype/StillImage"/>
    <dc:date>2023-12-11T12:06:36.668479</dc:date>
    <dc:format>image/svg+xml</dc:format>
    <dc:creator>
     <cc:Agent>
      <dc:title>Matplotlib v3.7.1, https://matplotlib.org/</dc:title>
     </cc:Agent>
    </dc:creator>
   </cc:Work>
  </rdf:RDF>
 </metadata>
 <defs>
  <style type="text/css">*{stroke-linejoin: round; stroke-linecap: butt}</style>
 </defs>
 <g id="figure_1">
  <g id="patch_1">
   <path d="M 0 1080 
L 1440 1080 
L 1440 0 
L 0 0 
z
" style="fill: #ffffff"/>
  </g>
  <g id="axes_1">
   <g id="patch_2">
    <path d="M 601.926055 961.2 
L 874.073945 961.2 
L 874.073945 129.6 
L 601.926055 129.6 
z
" style="fill: #ffffff"/>
   </g>
   <g id="matplotlib.axis_1">
    <g id="xtick_1">
     <g id="line2d_1">
      <defs>
       <path id="mc58eaa6863" d="M 0 0 
L 0 3.5 
" style="stroke: #000000; stroke-width: 0.8"/>
      </defs>
      <g>
       <use xlink:href="#mc58eaa6863" x="637.722755" y="961.2" style="stroke: #000000; stroke-width: 0.8"/>
      </g>
     </g>
     <g id="text_1">
      <!-- 1050 -->
      <g transform="translate(624.997755 975.798437) scale(0.1 -0.1)">
       <defs>
        <path id="DejaVuSans-31" d="M 794 531 
L 1825 531 
L 1825 4091 
L 703 3866 
L 703 4441 
L 1819 4666 
L 2450 4666 
L 2450 531 
L 3481 531 
L 3481 0 
L 794 0 
L 794 531 
z
" transform="scale(0.015625)"/>
        <path id="DejaVuSans-30" d="M 2034 4250 
Q 1547 4250 1301 3770 
Q 1056 3291 1056 2328 
Q 1056 1369 1301 889 
Q 1547 409 2034 409 
Q 2525 409 2770 889 
Q 3016 1369 3016 2328 
Q 3016 3291 2770 3770 
Q 2525 4250 2034 4250 
z
M 2034 4750 
Q 2819 4750 3233 4129 
Q 3647 3509 3647 2328 
Q 3647 1150 3233 529 
Q 2819 -91 2034 -91 
Q 1250 -91 836 529 
Q 422 1150 422 2328 
Q 422 3509 836 4129 
Q 1250 4750 2034 4750 
z
" transform="scale(0.015625)"/>
        <path id="DejaVuSans-35" d="M 691 4666 
L 3169 4666 
L 3169 4134 
L 1269 4134 
L 1269 2991 
Q 1406 3038 1543 3061 
Q 1681 3084 1819 3084 
Q 2600 3084 3056 2656 
Q 3513 2228 3513 1497 
Q 3513 744 3044 326 
Q 2575 -91 1722 -91 
Q 1428 -91 1123 -41 
Q 819 9 494 109 
L 494 744 
Q 775 591 1075 516 
Q 1375 441 1709 441 
Q 2250 441 2565 725 
Q 2881 1009 2881 1497 
Q 2881 1984 2565 2268 
Q 2250 2553 1709 2553 
Q 1456 2553 1204 2497 
Q 953 2441 691 2322 
L 691 4666 
z
" transform="scale(0.015625)"/>
       </defs>
       <use xlink:href="#DejaVuSans-31"/>
       <use xlink:href="#DejaVuSans-30" x="63.623047"/>
       <use xlink:href="#DejaVuSans-35" x="127.246094"/>
       <use xlink:href="#DejaVuSans-30" x="190.869141"/>
      </g>
     </g>
    </g>
    <g id="xtick_2">
     <g id="line2d_2">
      <g>
       <use xlink:href="#mc58eaa6863" x="674.418651" y="961.2" style="stroke: #000000; stroke-width: 0.8"/>
      </g>
     </g>
     <g id="text_2">
      <!-- 1100 -->
      <g transform="translate(661.693651 975.798437) scale(0.1 -0.1)">
       <use xlink:href="#DejaVuSans-31"/>
       <use xlink:href="#DejaVuSans-31" x="63.623047"/>
       <use xlink:href="#DejaVuSans-30" x="127.246094"/>
       <use xlink:href="#DejaVuSans-30" x="190.869141"/>
      </g>
     </g>
    </g>
    <g id="xtick_3">
     <g id="line2d_3">
      <g>
       <use xlink:href="#mc58eaa6863" x="711.114547" y="961.2" style="stroke: #000000; stroke-width: 0.8"/>
      </g>
     </g>
     <g id="text_3">
      <!-- 1150 -->
      <g transform="translate(698.389547 975.798437) scale(0.1 -0.1)">
       <use xlink:href="#DejaVuSans-31"/>
       <use xlink:href="#DejaVuSans-31" x="63.623047"/>
       <use xlink:href="#DejaVuSans-35" x="127.246094"/>
       <use xlink:href="#DejaVuSans-30" x="190.869141"/>
      </g>
     </g>
    </g>
    <g id="xtick_4">
     <g id="line2d_4">
      <g>
       <use xlink:href="#mc58eaa6863" x="747.810443" y="961.2" style="stroke: #000000; stroke-width: 0.8"/>
      </g>
     </g>
     <g id="text_4">
      <!-- 1200 -->
      <g transform="translate(735.085443 975.798437) scale(0.1 -0.1)">
       <defs>
        <path id="DejaVuSans-32" d="M 1228 531 
L 3431 531 
L 3431 0 
L 469 0 
L 469 531 
Q 828 903 1448 1529 
Q 2069 2156 2228 2338 
Q 2531 2678 2651 2914 
Q 2772 3150 2772 3378 
Q 2772 3750 2511 3984 
Q 2250 4219 1831 4219 
Q 1534 4219 1204 4116 
Q 875 4013 500 3803 
L 500 4441 
Q 881 4594 1212 4672 
Q 1544 4750 1819 4750 
Q 2544 4750 2975 4387 
Q 3406 4025 3406 3419 
Q 3406 3131 3298 2873 
Q 3191 2616 2906 2266 
Q 2828 2175 2409 1742 
Q 1991 1309 1228 531 
z
" transform="scale(0.015625)"/>
       </defs>
       <use xlink:href="#DejaVuSans-31"/>
       <use xlink:href="#DejaVuSans-32" x="63.623047"/>
       <use xlink:href="#DejaVuSans-30" x="127.246094"/>
       <use xlink:href="#DejaVuSans-30" x="190.869141"/>
      </g>
     </g>
    </g>
    <g id="xtick_5">
     <g id="line2d_5">
      <g>
       <use xlink:href="#mc58eaa6863" x="784.50634" y="961.2" style="stroke: #000000; stroke-width: 0.8"/>
      </g>
     </g>
     <g id="text_5">
      <!-- 1250 -->
      <g transform="translate(771.78134 975.798437) scale(0.1 -0.1)">
       <use xlink:href="#DejaVuSans-31"/>
       <use xlink:href="#DejaVuSans-32" x="63.623047"/>
       <use xlink:href="#DejaVuSans-35" x="127.246094"/>
       <use xlink:href="#DejaVuSans-30" x="190.869141"/>
      </g>
     </g>
    </g>
    <g id="xtick_6">
     <g id="line2d_6">
      <g>
       <use xlink:href="#mc58eaa6863" x="821.202236" y="961.2" style="stroke: #000000; stroke-width: 0.8"/>
      </g>
     </g>
     <g id="text_6">
      <!-- 1300 -->
      <g transform="translate(808.477236 975.798437) scale(0.1 -0.1)">
       <defs>
        <path id="DejaVuSans-33" d="M 2597 2516 
Q 3050 2419 3304 2112 
Q 3559 1806 3559 1356 
Q 3559 666 3084 287 
Q 2609 -91 1734 -91 
Q 1441 -91 1130 -33 
Q 819 25 488 141 
L 488 750 
Q 750 597 1062 519 
Q 1375 441 1716 441 
Q 2309 441 2620 675 
Q 2931 909 2931 1356 
Q 2931 1769 2642 2001 
Q 2353 2234 1838 2234 
L 1294 2234 
L 1294 2753 
L 1863 2753 
Q 2328 2753 2575 2939 
Q 2822 3125 2822 3475 
Q 2822 3834 2567 4026 
Q 2313 4219 1838 4219 
Q 1578 4219 1281 4162 
Q 984 4106 628 3988 
L 628 4550 
Q 988 4650 1302 4700 
Q 1616 4750 1894 4750 
Q 2613 4750 3031 4423 
Q 3450 4097 3450 3541 
Q 3450 3153 3228 2886 
Q 3006 2619 2597 2516 
z
" transform="scale(0.015625)"/>
       </defs>
       <use xlink:href="#DejaVuSans-31"/>
       <use xlink:href="#DejaVuSans-33" x="63.623047"/>
       <use xlink:href="#DejaVuSans-30" x="127.246094"/>
       <use xlink:href="#DejaVuSans-30" x="190.869141"/>
      </g>
     </g>
    </g>
    <g id="xtick_7">
     <g id="line2d_7">
      <g>
       <use xlink:href="#mc58eaa6863" x="857.898132" y="961.2" style="stroke: #000000; stroke-width: 0.8"/>
      </g>
     </g>
     <g id="text_7">
      <!-- 1350 -->
      <g transform="translate(845.173132 975.798437) scale(0.1 -0.1)">
       <use xlink:href="#DejaVuSans-31"/>
       <use xlink:href="#DejaVuSans-33" x="63.623047"/>
       <use xlink:href="#DejaVuSans-35" x="127.246094"/>
       <use xlink:href="#DejaVuSans-30" x="190.869141"/>
      </g>
     </g>
    </g>
   </g>
   <g id="matplotlib.axis_2">
    <g id="ytick_1">
     <g id="line2d_8">
      <defs>
       <path id="m9fb9aef960" d="M 0 0 
L -3.5 0 
" style="stroke: #000000; stroke-width: 0.8"/>
      </defs>
      <g>
       <use xlink:href="#m9fb9aef960" x="601.926055" y="877.325815" style="stroke: #000000; stroke-width: 0.8"/>
      </g>
     </g>
     <g id="text_8">
      <!-- 400 -->
      <g transform="translate(575.838555 881.125034) scale(0.1 -0.1)">
       <defs>
        <path id="DejaVuSans-34" d="M 2419 4116 
L 825 1625 
L 2419 1625 
L 2419 4116 
z
M 2253 4666 
L 3047 4666 
L 3047 1625 
L 3713 1625 
L 3713 1100 
L 3047 1100 
L 3047 0 
L 2419 0 
L 2419 1100 
L 313 1100 
L 313 1709 
L 2253 4666 
z
" transform="scale(0.015625)"/>
       </defs>
       <use xlink:href="#DejaVuSans-34"/>
       <use xlink:href="#DejaVuSans-30" x="63.623047"/>
       <use xlink:href="#DejaVuSans-30" x="127.246094"/>
      </g>
     </g>
    </g>
    <g id="ytick_2">
     <g id="line2d_9">
      <g>
       <use xlink:href="#m9fb9aef960" x="601.926055" y="730.542231" style="stroke: #000000; stroke-width: 0.8"/>
      </g>
     </g>
     <g id="text_9">
      <!-- 600 -->
      <g transform="translate(575.838555 734.34145) scale(0.1 -0.1)">
       <defs>
        <path id="DejaVuSans-36" d="M 2113 2584 
Q 1688 2584 1439 2293 
Q 1191 2003 1191 1497 
Q 1191 994 1439 701 
Q 1688 409 2113 409 
Q 2538 409 2786 701 
Q 3034 994 3034 1497 
Q 3034 2003 2786 2293 
Q 2538 2584 2113 2584 
z
M 3366 4563 
L 3366 3988 
Q 3128 4100 2886 4159 
Q 2644 4219 2406 4219 
Q 1781 4219 1451 3797 
Q 1122 3375 1075 2522 
Q 1259 2794 1537 2939 
Q 1816 3084 2150 3084 
Q 2853 3084 3261 2657 
Q 3669 2231 3669 1497 
Q 3669 778 3244 343 
Q 2819 -91 2113 -91 
Q 1303 -91 875 529 
Q 447 1150 447 2328 
Q 447 3434 972 4092 
Q 1497 4750 2381 4750 
Q 2619 4750 2861 4703 
Q 3103 4656 3366 4563 
z
" transform="scale(0.015625)"/>
       </defs>
       <use xlink:href="#DejaVuSans-36"/>
       <use xlink:href="#DejaVuSans-30" x="63.623047"/>
       <use xlink:href="#DejaVuSans-30" x="127.246094"/>
      </g>
     </g>
    </g>
    <g id="ytick_3">
     <g id="line2d_10">
      <g>
       <use xlink:href="#m9fb9aef960" x="601.926055" y="583.758647" style="stroke: #000000; stroke-width: 0.8"/>
      </g>
     </g>
     <g id="text_10">
      <!-- 800 -->
      <g transform="translate(575.838555 587.557865) scale(0.1 -0.1)">
       <defs>
        <path id="DejaVuSans-38" d="M 2034 2216 
Q 1584 2216 1326 1975 
Q 1069 1734 1069 1313 
Q 1069 891 1326 650 
Q 1584 409 2034 409 
Q 2484 409 2743 651 
Q 3003 894 3003 1313 
Q 3003 1734 2745 1975 
Q 2488 2216 2034 2216 
z
M 1403 2484 
Q 997 2584 770 2862 
Q 544 3141 544 3541 
Q 544 4100 942 4425 
Q 1341 4750 2034 4750 
Q 2731 4750 3128 4425 
Q 3525 4100 3525 3541 
Q 3525 3141 3298 2862 
Q 3072 2584 2669 2484 
Q 3125 2378 3379 2068 
Q 3634 1759 3634 1313 
Q 3634 634 3220 271 
Q 2806 -91 2034 -91 
Q 1263 -91 848 271 
Q 434 634 434 1313 
Q 434 1759 690 2068 
Q 947 2378 1403 2484 
z
M 1172 3481 
Q 1172 3119 1398 2916 
Q 1625 2713 2034 2713 
Q 2441 2713 2670 2916 
Q 2900 3119 2900 3481 
Q 2900 3844 2670 4047 
Q 2441 4250 2034 4250 
Q 1625 4250 1398 4047 
Q 1172 3844 1172 3481 
z
" transform="scale(0.015625)"/>
       </defs>
       <use xlink:href="#DejaVuSans-38"/>
       <use xlink:href="#DejaVuSans-30" x="63.623047"/>
       <use xlink:href="#DejaVuSans-30" x="127.246094"/>
      </g>
     </g>
    </g>
    <g id="ytick_4">
     <g id="line2d_11">
      <g>
       <use xlink:href="#m9fb9aef960" x="601.926055" y="436.975062" style="stroke: #000000; stroke-width: 0.8"/>
      </g>
     </g>
     <g id="text_11">
      <!-- 1000 -->
      <g transform="translate(569.476055 440.774281) scale(0.1 -0.1)">
       <use xlink:href="#DejaVuSans-31"/>
       <use xlink:href="#DejaVuSans-30" x="63.623047"/>
       <use xlink:href="#DejaVuSans-30" x="127.246094"/>
       <use xlink:href="#DejaVuSans-30" x="190.869141"/>
      </g>
     </g>
    </g>
    <g id="ytick_5">
     <g id="line2d_12">
      <g>
       <use xlink:href="#m9fb9aef960" x="601.926055" y="290.191478" style="stroke: #000000; stroke-width: 0.8"/>
      </g>
     </g>
     <g id="text_12">
      <!-- 1200 -->
      <g transform="translate(569.476055 293.990696) scale(0.1 -0.1)">
       <use xlink:href="#DejaVuSans-31"/>
       <use xlink:href="#DejaVuSans-32" x="63.623047"/>
       <use xlink:href="#DejaVuSans-30" x="127.246094"/>
       <use xlink:href="#DejaVuSans-30" x="190.869141"/>
      </g>
     </g>
    </g>
    <g id="ytick_6">
     <g id="line2d_13">
      <g>
       <use xlink:href="#m9fb9aef960" x="601.926055" y="143.407893" style="stroke: #000000; stroke-width: 0.8"/>
      </g>
     </g>
     <g id="text_13">
      <!-- 1400 -->
      <g transform="translate(569.476055 147.207112) scale(0.1 -0.1)">
       <use xlink:href="#DejaVuSans-31"/>
       <use xlink:href="#DejaVuSans-34" x="63.623047"/>
       <use xlink:href="#DejaVuSans-30" x="127.246094"/>
       <use xlink:href="#DejaVuSans-30" x="190.869141"/>
      </g>
     </g>
    </g>
   </g>
   <g id="LineCollection_1">
    <path d="M 630.789816 167.4 
L 625.588421 180.916852 
L 621.513236 193.894364 
L 618.452923 206.35987 
L 616.301587 218.336516 
L 614.958229 229.845271 
L 614.326862 240.906694 
L 614.317067 251.542196 
L 614.844752 261.774656 
L 615.832824 271.628481 
L 617.211628 281.129236 
L 618.919077 290.303074 
L 620.900503 299.176107 
L 623.108284 307.773851 
L 625.501332 316.120777 
L 628.044516 324.240003 
L 630.708052 332.153099 
L 633.466918 339.880002 
L 639.191056 354.846697 
L 645.091812 369.267141 
L 651.088863 383.244697 
L 657.134597 396.861921 
L 666.243956 416.749544 
L 675.378237 436.126693 
L 687.576336 461.340764 
L 714.42329 516.165575 
L 719.98073 528.088438 
L 725.238484 539.951059 
L 730.109131 551.775631 
L 732.370723 557.681942 
L 734.501103 563.589518 
L 736.488859 569.502957 
L 738.322833 575.427515 
L 739.992216 581.369221 
L 741.486624 587.334978 
L 742.796134 593.332664 
L 743.911296 599.371183 
L 744.82311 605.460464 
L 745.522997 611.611387 
L 746.002776 617.835628 
L 746.254677 624.145411 
L 746.271414 630.553191 
L 746.046346 637.071292 
L 745.57373 643.711518 
L 744.849075 650.484797 
L 743.869572 657.400869 
L 742.634594 664.468058 
L 741.146217 671.693133 
L 739.409757 679.081255 
L 737.434297 686.636012 
L 735.233184 694.359518 
L 732.824499 702.252568 
L 727.483128 718.545158 
L 715.699848 753.227562 
L 712.824868 762.333239 
L 710.118505 771.613622 
L 707.670385 781.07679 
L 705.586394 790.734234 
L 703.993428 800.599492 
L 703.045385 810.683468 
L 702.928746 820.983685 
L 703.598975 829.535391 
L 703.862938 831.465183 
L 705.512401 839.875487 
L 706.08693 842.035814 
L 708.871623 850.267836 
L 709.825569 852.530494 
L 714.538801 861.661368 
L 715.246238 862.728153 
L 721.594253 871.474262 
L 722.43958 872.408508 
L 729.696398 879.850497 
L 731.450139 881.414688 
L 740.599652 888.49616 
L 742.336754 889.675509 
L 755.217576 897.181693 
L 770.280357 903.946888 
L 787.770295 909.979408 
L 807.973239 915.269827 
L 831.203117 919.788834 
L 857.028348 923.4 
L 857.028348 923.4 
" clip-path="url(#paa36eb6b05)" style="fill: none; stroke: #1f77b4; stroke-width: 1.5"/>
    <path d="M 646.52977 173.498528 
L 641.680506 186.014203 
L 637.896 197.9617 
L 635.059216 209.387944 
L 633.062796 220.33653 
L 631.80854 230.847883 
L 631.206892 240.959429 
L 631.176443 250.705755 
L 631.643448 260.11876 
L 632.541354 269.22781 
L 633.810341 278.059884 
L 635.396881 286.639718 
L 637.253308 294.989943 
L 639.337398 303.131218 
L 641.611968 311.082365 
L 644.044486 318.860492 
L 646.606692 326.481114 
L 649.274238 333.958276 
L 652.026335 341.304663 
L 654.84542 348.531709 
L 657.716828 355.649707 
L 660.628488 362.667907 
L 663.570621 369.594616 
L 666.535461 376.43729 
L 669.516984 383.202622 
L 672.510648 389.896632 
L 675.513156 396.524744 
L 678.522221 403.091866 
L 681.536352 409.602461 
L 684.554649 416.060619 
L 687.576613 422.470119 
L 690.601969 428.834495 
L 693.630504 435.157089 
L 696.661913 441.441105 
L 699.695665 447.689662 
L 702.730875 453.905836 
L 705.766196 460.0927 
L 708.799721 466.253368 
L 711.828897 472.391022 
L 714.850453 478.508947 
L 717.860341 484.610552 
L 720.853693 490.699398 
L 723.824787 496.779208 
L 726.767029 502.853892 
L 729.672942 508.927547 
L 732.534181 515.00447 
L 735.341545 521.089158 
L 738.085015 527.18631 
L 740.753796 533.300817 
L 743.336382 539.437761 
L 745.820619 545.602392 
L 748.193799 551.800124 
L 750.442752 558.036504 
L 752.553957 564.317196 
L 754.51367 570.647949 
L 756.308057 577.034569 
L 757.923343 583.48288 
L 759.345979 589.99869 
L 760.562811 596.587747 
L 761.561274 603.255689 
L 762.32959 610.008001 
L 762.856985 616.849956 
L 763.13391 623.786562 
L 763.152288 630.822498 
L 762.905761 637.962051 
L 762.389958 645.209049 
L 761.602773 652.566787 
L 760.544654 660.037953 
L 759.21891 667.624552 
L 757.632025 675.327817 
L 755.793985 683.148129 
L 753.718628 691.084926 
L 751.423988 699.136605 
L 748.932672 707.300434 
L 746.272234 715.572445 
L 743.475568 723.947331 
L 740.581318 732.418343 
L 737.634291 740.977174 
L 734.685893 749.613847 
L 731.794565 758.316598 
L 729.026246 767.071755 
L 726.454839 775.863608 
L 724.162692 784.67429 
L 722.241092 793.483636 
L 720.790771 802.269057 
L 719.922427 811.005391 
L 719.757253 819.664772 
L 720.427482 828.216478 
L 722.076945 836.626782 
L 724.861637 844.858804 
L 728.950303 852.872353 
L 734.525028 860.623767 
L 741.781847 868.065755 
L 750.93136 875.147228 
L 762.199367 881.813129 
L 775.827514 888.004264 
L 792.073941 893.657128 
L 811.213962 898.70372 
L 833.540736 903.071366 
L 859.365968 906.682532 
" clip-path="url(#paa36eb6b05)" style="fill: none; stroke: #8c564b; stroke-width: 1.5"/>
    <path d="M 662.269724 179.597056 
L 657.61227 191.61768 
L 654.14976 202.548653 
L 651.570114 212.939171 
L 649.762384 222.852961 
L 648.629098 232.350517 
L 648.085436 241.487521 
L 648.057863 250.31363 
L 648.48246 258.871853 
L 649.303244 267.198525 
L 650.470674 275.323771 
L 651.940473 283.272279 
L 653.672775 291.064188 
L 655.631555 298.715953 
L 657.784265 306.241117 
L 660.101601 313.650942 
L 662.557338 320.954901 
L 665.128202 328.161061 
L 670.536141 342.306847 
L 676.192878 356.13392 
L 682.003263 369.677995 
L 687.903439 382.968298 
L 696.841687 402.483062 
L 705.836524 421.564891 
L 717.892404 446.485157 
L 744.944921 501.736938 
L 750.735117 514.162678 
L 756.312366 526.753367 
L 761.584582 539.566197 
L 764.072953 546.073811 
L 766.443098 552.658113 
L 768.67915 559.325569 
L 770.764553 566.082096 
L 772.682253 572.932872 
L 774.41495 579.88217 
L 775.945405 586.933197 
L 777.256802 594.087975 
L 778.333161 601.347288 
L 779.159777 608.71069 
L 779.723661 616.1766 
L 780.013964 623.742472 
L 780.022346 631.405017 
L 779.743279 639.160456 
L 779.174284 647.00476 
L 778.316098 654.933844 
L 777.17279 662.943689 
L 775.751865 671.030369 
L 774.064368 679.189976 
L 772.125014 687.418457 
L 769.952367 695.711361 
L 767.569071 704.063522 
L 765.002128 712.468682 
L 759.449074 729.404922 
L 747.852352 763.522427 
L 745.176195 771.986109 
L 742.727362 780.358872 
L 740.583497 788.599583 
L 738.825444 796.659165 
L 737.534221 804.480842 
L 736.786586 812.00273 
L 736.649967 819.165096 
L 737.179769 825.925042 
L 738.425904 832.27885 
L 740.457184 838.283658 
L 743.403361 844.057994 
L 747.491923 849.742964 
L 753.044997 855.437734 
L 760.43126 861.154499 
L 770.010231 866.821203 
L 782.105139 872.315804 
L 797.006659 877.500714 
L 814.990087 882.24235 
L 836.331961 886.417326 
L 861.703587 889.965065 
L 861.703587 889.965065 
" clip-path="url(#paa36eb6b05)" style="fill: none; stroke: #17becf; stroke-width: 1.5"/>
   </g>
   <g id="patch_3">
    <path d="M 601.926055 961.2 
L 601.926055 129.6 
" style="fill: none; stroke: #000000; stroke-width: 0.8; stroke-linejoin: miter; stroke-linecap: square"/>
   </g>
   <g id="patch_4">
    <path d="M 874.073945 961.2 
L 874.073945 129.6 
" style="fill: none; stroke: #000000; stroke-width: 0.8; stroke-linejoin: miter; stroke-linecap: square"/>
   </g>
   <g id="patch_5">
    <path d="M 601.926055 961.2 
L 874.073945 961.2 
" style="fill: none; stroke: #000000; stroke-width: 0.8; stroke-linejoin: miter; stroke-linecap: square"/>
   </g>
   <g id="patch_6">
    <path d="M 601.926055 129.6 
L 874.073945 129.6 
" style="fill: none; stroke: #000000; stroke-width: 0.8; stroke-linejoin: miter; stroke-linecap: square"/>
   </g>
  </g>
 </g>
 <defs>
  <clipPath id="paa36eb6b05">
   <rect x="601.926055" y="129.6" width="272.147891" height="831.6"/>
  </clipPath>
 </defs>
</svg>
