<?xml version="1.0" encoding="utf-8" standalone="no"?>
<!DOCTYPE svg PUBLIC "-//W3C//DTD SVG 1.1//EN"
  "http://www.w3.org/Graphics/SVG/1.1/DTD/svg11.dtd">
<svg xmlns:xlink="http://www.w3.org/1999/xlink" width="1440pt" height="1080pt" viewBox="0 0 1440 1080" xmlns="http://www.w3.org/2000/svg" version="1.1">
 <metadata>
  <rdf:RDF xmlns:dc="http://purl.org/dc/elements/1.1/" xmlns:cc="http://creativecommons.org/ns#" xmlns:rdf="http://www.w3.org/1999/02/22-rdf-syntax-ns#">
   <cc:Work>
    <dc:type rdf:resource="http://purl.org/dc/dcmitype/StillImage"/>
    <dc:date>2023-12-11T12:06:41.708003</dc:date>
    <dc:format>image/svg+xml</dc:format>
    <dc:creator>
     <cc:Agent>
      <dc:title>Matplotlib v3.7.1, https://matplotlib.org/</dc:title>
     </cc:Agent>
    </dc:creator>
   </cc:Work>
  </rdf:RDF>
 </metadata>
 <defs>
  <style type="text/css">*{stroke-linejoin: round; stroke-linecap: butt}</style>
 </defs>
 <g id="figure_1">
  <g id="patch_1">
   <path d="M 0 1080 
L 1440 1080 
L 1440 0 
L 0 0 
z
" style="fill: #ffffff"/>
  </g>
  <g id="axes_1">
   <g id="patch_2">
    <path d="M 441.293033 961.2 
L 1034.706967 961.2 
L 1034.706967 129.6 
L 441.293033 129.6 
z
" style="fill: #ffffff"/>
   </g>
   <g id="matplotlib.axis_1">
    <g id="xtick_1">
     <g id="line2d_1">
      <defs>
       <path id="m9051dc12f7" d="M 0 0 
L 0 3.5 
" style="stroke: #000000; stroke-width: 0.8"/>
      </defs>
      <g>
       <use xlink:href="#m9051dc12f7" x="457.605287" y="961.2" style="stroke: #000000; stroke-width: 0.8"/>
      </g>
     </g>
     <g id="text_1">
      <!-- 0 -->
      <g transform="translate(454.424037 975.798437) scale(0.1 -0.1)">
       <defs>
        <path id="DejaVuSans-30" d="M 2034 4250 
Q 1547 4250 1301 3770 
Q 1056 3291 1056 2328 
Q 1056 1369 1301 889 
Q 1547 409 2034 409 
Q 2525 409 2770 889 
Q 3016 1369 3016 2328 
Q 3016 3291 2770 3770 
Q 2525 4250 2034 4250 
z
M 2034 4750 
Q 2819 4750 3233 4129 
Q 3647 3509 3647 2328 
Q 3647 1150 3233 529 
Q 2819 -91 2034 -91 
Q 1250 -91 836 529 
Q 422 1150 422 2328 
Q 422 3509 836 4129 
Q 1250 4750 2034 4750 
z
" transform="scale(0.015625)"/>
       </defs>
       <use xlink:href="#DejaVuSans-30"/>
      </g>
     </g>
    </g>
    <g id="xtick_2">
     <g id="line2d_2">
      <g>
       <use xlink:href="#m9051dc12f7" x="556.224867" y="961.2" style="stroke: #000000; stroke-width: 0.8"/>
      </g>
     </g>
     <g id="text_2">
      <!-- 100 -->
      <g transform="translate(546.681117 975.798437) scale(0.1 -0.1)">
       <defs>
        <path id="DejaVuSans-31" d="M 794 531 
L 1825 531 
L 1825 4091 
L 703 3866 
L 703 4441 
L 1819 4666 
L 2450 4666 
L 2450 531 
L 3481 531 
L 3481 0 
L 794 0 
L 794 531 
z
" transform="scale(0.015625)"/>
       </defs>
       <use xlink:href="#DejaVuSans-31"/>
       <use xlink:href="#DejaVuSans-30" x="63.623047"/>
       <use xlink:href="#DejaVuSans-30" x="127.246094"/>
      </g>
     </g>
    </g>
    <g id="xtick_3">
     <g id="line2d_3">
      <g>
       <use xlink:href="#m9051dc12f7" x="654.844448" y="961.2" style="stroke: #000000; stroke-width: 0.8"/>
      </g>
     </g>
     <g id="text_3">
      <!-- 200 -->
      <g transform="translate(645.300698 975.798437) scale(0.1 -0.1)">
       <defs>
        <path id="DejaVuSans-32" d="M 1228 531 
L 3431 531 
L 3431 0 
L 469 0 
L 469 531 
Q 828 903 1448 1529 
Q 2069 2156 2228 2338 
Q 2531 2678 2651 2914 
Q 2772 3150 2772 3378 
Q 2772 3750 2511 3984 
Q 2250 4219 1831 4219 
Q 1534 4219 1204 4116 
Q 875 4013 500 3803 
L 500 4441 
Q 881 4594 1212 4672 
Q 1544 4750 1819 4750 
Q 2544 4750 2975 4387 
Q 3406 4025 3406 3419 
Q 3406 3131 3298 2873 
Q 3191 2616 2906 2266 
Q 2828 2175 2409 1742 
Q 1991 1309 1228 531 
z
" transform="scale(0.015625)"/>
       </defs>
       <use xlink:href="#DejaVuSans-32"/>
       <use xlink:href="#DejaVuSans-30" x="63.623047"/>
       <use xlink:href="#DejaVuSans-30" x="127.246094"/>
      </g>
     </g>
    </g>
    <g id="xtick_4">
     <g id="line2d_4">
      <g>
       <use xlink:href="#m9051dc12f7" x="753.464028" y="961.2" style="stroke: #000000; stroke-width: 0.8"/>
      </g>
     </g>
     <g id="text_4">
      <!-- 300 -->
      <g transform="translate(743.920278 975.798437) scale(0.1 -0.1)">
       <defs>
        <path id="DejaVuSans-33" d="M 2597 2516 
Q 3050 2419 3304 2112 
Q 3559 1806 3559 1356 
Q 3559 666 3084 287 
Q 2609 -91 1734 -91 
Q 1441 -91 1130 -33 
Q 819 25 488 141 
L 488 750 
Q 750 597 1062 519 
Q 1375 441 1716 441 
Q 2309 441 2620 675 
Q 2931 909 2931 1356 
Q 2931 1769 2642 2001 
Q 2353 2234 1838 2234 
L 1294 2234 
L 1294 2753 
L 1863 2753 
Q 2328 2753 2575 2939 
Q 2822 3125 2822 3475 
Q 2822 3834 2567 4026 
Q 2313 4219 1838 4219 
Q 1578 4219 1281 4162 
Q 984 4106 628 3988 
L 628 4550 
Q 988 4650 1302 4700 
Q 1616 4750 1894 4750 
Q 2613 4750 3031 4423 
Q 3450 4097 3450 3541 
Q 3450 3153 3228 2886 
Q 3006 2619 2597 2516 
z
" transform="scale(0.015625)"/>
       </defs>
       <use xlink:href="#DejaVuSans-33"/>
       <use xlink:href="#DejaVuSans-30" x="63.623047"/>
       <use xlink:href="#DejaVuSans-30" x="127.246094"/>
      </g>
     </g>
    </g>
    <g id="xtick_5">
     <g id="line2d_5">
      <g>
       <use xlink:href="#m9051dc12f7" x="852.083608" y="961.2" style="stroke: #000000; stroke-width: 0.8"/>
      </g>
     </g>
     <g id="text_5">
      <!-- 400 -->
      <g transform="translate(842.539858 975.798437) scale(0.1 -0.1)">
       <defs>
        <path id="DejaVuSans-34" d="M 2419 4116 
L 825 1625 
L 2419 1625 
L 2419 4116 
z
M 2253 4666 
L 3047 4666 
L 3047 1625 
L 3713 1625 
L 3713 1100 
L 3047 1100 
L 3047 0 
L 2419 0 
L 2419 1100 
L 313 1100 
L 313 1709 
L 2253 4666 
z
" transform="scale(0.015625)"/>
       </defs>
       <use xlink:href="#DejaVuSans-34"/>
       <use xlink:href="#DejaVuSans-30" x="63.623047"/>
       <use xlink:href="#DejaVuSans-30" x="127.246094"/>
      </g>
     </g>
    </g>
    <g id="xtick_6">
     <g id="line2d_6">
      <g>
       <use xlink:href="#m9051dc12f7" x="950.703188" y="961.2" style="stroke: #000000; stroke-width: 0.8"/>
      </g>
     </g>
     <g id="text_6">
      <!-- 500 -->
      <g transform="translate(941.159438 975.798437) scale(0.1 -0.1)">
       <defs>
        <path id="DejaVuSans-35" d="M 691 4666 
L 3169 4666 
L 3169 4134 
L 1269 4134 
L 1269 2991 
Q 1406 3038 1543 3061 
Q 1681 3084 1819 3084 
Q 2600 3084 3056 2656 
Q 3513 2228 3513 1497 
Q 3513 744 3044 326 
Q 2575 -91 1722 -91 
Q 1428 -91 1123 -41 
Q 819 9 494 109 
L 494 744 
Q 775 591 1075 516 
Q 1375 441 1709 441 
Q 2250 441 2565 725 
Q 2881 1009 2881 1497 
Q 2881 1984 2565 2268 
Q 2250 2553 1709 2553 
Q 1456 2553 1204 2497 
Q 953 2441 691 2322 
L 691 4666 
z
" transform="scale(0.015625)"/>
       </defs>
       <use xlink:href="#DejaVuSans-35"/>
       <use xlink:href="#DejaVuSans-30" x="63.623047"/>
       <use xlink:href="#DejaVuSans-30" x="127.246094"/>
      </g>
     </g>
    </g>
   </g>
   <g id="matplotlib.axis_2">
    <g id="ytick_1">
     <g id="line2d_7">
      <defs>
       <path id="mecc5557939" d="M 0 0 
L -3.5 0 
" style="stroke: #000000; stroke-width: 0.8"/>
      </defs>
      <g>
       <use xlink:href="#mecc5557939" x="441.293033" y="947.549863" style="stroke: #000000; stroke-width: 0.8"/>
      </g>
     </g>
     <g id="text_7">
      <!-- 500 -->
      <g transform="translate(415.205533 951.349082) scale(0.1 -0.1)">
       <use xlink:href="#DejaVuSans-35"/>
       <use xlink:href="#DejaVuSans-30" x="63.623047"/>
       <use xlink:href="#DejaVuSans-30" x="127.246094"/>
      </g>
     </g>
    </g>
    <g id="ytick_2">
     <g id="line2d_8">
      <g>
       <use xlink:href="#mecc5557939" x="441.293033" y="848.930283" style="stroke: #000000; stroke-width: 0.8"/>
      </g>
     </g>
     <g id="text_8">
      <!-- 600 -->
      <g transform="translate(415.205533 852.729502) scale(0.1 -0.1)">
       <defs>
        <path id="DejaVuSans-36" d="M 2113 2584 
Q 1688 2584 1439 2293 
Q 1191 2003 1191 1497 
Q 1191 994 1439 701 
Q 1688 409 2113 409 
Q 2538 409 2786 701 
Q 3034 994 3034 1497 
Q 3034 2003 2786 2293 
Q 2538 2584 2113 2584 
z
M 3366 4563 
L 3366 3988 
Q 3128 4100 2886 4159 
Q 2644 4219 2406 4219 
Q 1781 4219 1451 3797 
Q 1122 3375 1075 2522 
Q 1259 2794 1537 2939 
Q 1816 3084 2150 3084 
Q 2853 3084 3261 2657 
Q 3669 2231 3669 1497 
Q 3669 778 3244 343 
Q 2819 -91 2113 -91 
Q 1303 -91 875 529 
Q 447 1150 447 2328 
Q 447 3434 972 4092 
Q 1497 4750 2381 4750 
Q 2619 4750 2861 4703 
Q 3103 4656 3366 4563 
z
" transform="scale(0.015625)"/>
       </defs>
       <use xlink:href="#DejaVuSans-36"/>
       <use xlink:href="#DejaVuSans-30" x="63.623047"/>
       <use xlink:href="#DejaVuSans-30" x="127.246094"/>
      </g>
     </g>
    </g>
    <g id="ytick_3">
     <g id="line2d_9">
      <g>
       <use xlink:href="#mecc5557939" x="441.293033" y="750.310703" style="stroke: #000000; stroke-width: 0.8"/>
      </g>
     </g>
     <g id="text_9">
      <!-- 700 -->
      <g transform="translate(415.205533 754.109922) scale(0.1 -0.1)">
       <defs>
        <path id="DejaVuSans-37" d="M 525 4666 
L 3525 4666 
L 3525 4397 
L 1831 0 
L 1172 0 
L 2766 4134 
L 525 4134 
L 525 4666 
z
" transform="scale(0.015625)"/>
       </defs>
       <use xlink:href="#DejaVuSans-37"/>
       <use xlink:href="#DejaVuSans-30" x="63.623047"/>
       <use xlink:href="#DejaVuSans-30" x="127.246094"/>
      </g>
     </g>
    </g>
    <g id="ytick_4">
     <g id="line2d_10">
      <g>
       <use xlink:href="#mecc5557939" x="441.293033" y="651.691123" style="stroke: #000000; stroke-width: 0.8"/>
      </g>
     </g>
     <g id="text_10">
      <!-- 800 -->
      <g transform="translate(415.205533 655.490341) scale(0.1 -0.1)">
       <defs>
        <path id="DejaVuSans-38" d="M 2034 2216 
Q 1584 2216 1326 1975 
Q 1069 1734 1069 1313 
Q 1069 891 1326 650 
Q 1584 409 2034 409 
Q 2484 409 2743 651 
Q 3003 894 3003 1313 
Q 3003 1734 2745 1975 
Q 2488 2216 2034 2216 
z
M 1403 2484 
Q 997 2584 770 2862 
Q 544 3141 544 3541 
Q 544 4100 942 4425 
Q 1341 4750 2034 4750 
Q 2731 4750 3128 4425 
Q 3525 4100 3525 3541 
Q 3525 3141 3298 2862 
Q 3072 2584 2669 2484 
Q 3125 2378 3379 2068 
Q 3634 1759 3634 1313 
Q 3634 634 3220 271 
Q 2806 -91 2034 -91 
Q 1263 -91 848 271 
Q 434 634 434 1313 
Q 434 1759 690 2068 
Q 947 2378 1403 2484 
z
M 1172 3481 
Q 1172 3119 1398 2916 
Q 1625 2713 2034 2713 
Q 2441 2713 2670 2916 
Q 2900 3119 2900 3481 
Q 2900 3844 2670 4047 
Q 2441 4250 2034 4250 
Q 1625 4250 1398 4047 
Q 1172 3844 1172 3481 
z
" transform="scale(0.015625)"/>
       </defs>
       <use xlink:href="#DejaVuSans-38"/>
       <use xlink:href="#DejaVuSans-30" x="63.623047"/>
       <use xlink:href="#DejaVuSans-30" x="127.246094"/>
      </g>
     </g>
    </g>
    <g id="ytick_5">
     <g id="line2d_11">
      <g>
       <use xlink:href="#mecc5557939" x="441.293033" y="553.071543" style="stroke: #000000; stroke-width: 0.8"/>
      </g>
     </g>
     <g id="text_11">
      <!-- 900 -->
      <g transform="translate(415.205533 556.870761) scale(0.1 -0.1)">
       <defs>
        <path id="DejaVuSans-39" d="M 703 97 
L 703 672 
Q 941 559 1184 500 
Q 1428 441 1663 441 
Q 2288 441 2617 861 
Q 2947 1281 2994 2138 
Q 2813 1869 2534 1725 
Q 2256 1581 1919 1581 
Q 1219 1581 811 2004 
Q 403 2428 403 3163 
Q 403 3881 828 4315 
Q 1253 4750 1959 4750 
Q 2769 4750 3195 4129 
Q 3622 3509 3622 2328 
Q 3622 1225 3098 567 
Q 2575 -91 1691 -91 
Q 1453 -91 1209 -44 
Q 966 3 703 97 
z
M 1959 2075 
Q 2384 2075 2632 2365 
Q 2881 2656 2881 3163 
Q 2881 3666 2632 3958 
Q 2384 4250 1959 4250 
Q 1534 4250 1286 3958 
Q 1038 3666 1038 3163 
Q 1038 2656 1286 2365 
Q 1534 2075 1959 2075 
z
" transform="scale(0.015625)"/>
       </defs>
       <use xlink:href="#DejaVuSans-39"/>
       <use xlink:href="#DejaVuSans-30" x="63.623047"/>
       <use xlink:href="#DejaVuSans-30" x="127.246094"/>
      </g>
     </g>
    </g>
    <g id="ytick_6">
     <g id="line2d_12">
      <g>
       <use xlink:href="#mecc5557939" x="441.293033" y="454.451962" style="stroke: #000000; stroke-width: 0.8"/>
      </g>
     </g>
     <g id="text_12">
      <!-- 1000 -->
      <g transform="translate(408.843033 458.251181) scale(0.1 -0.1)">
       <use xlink:href="#DejaVuSans-31"/>
       <use xlink:href="#DejaVuSans-30" x="63.623047"/>
       <use xlink:href="#DejaVuSans-30" x="127.246094"/>
       <use xlink:href="#DejaVuSans-30" x="190.869141"/>
      </g>
     </g>
    </g>
    <g id="ytick_7">
     <g id="line2d_13">
      <g>
       <use xlink:href="#mecc5557939" x="441.293033" y="355.832382" style="stroke: #000000; stroke-width: 0.8"/>
      </g>
     </g>
     <g id="text_13">
      <!-- 1100 -->
      <g transform="translate(408.843033 359.631601) scale(0.1 -0.1)">
       <use xlink:href="#DejaVuSans-31"/>
       <use xlink:href="#DejaVuSans-31" x="63.623047"/>
       <use xlink:href="#DejaVuSans-30" x="127.246094"/>
       <use xlink:href="#DejaVuSans-30" x="190.869141"/>
      </g>
     </g>
    </g>
    <g id="ytick_8">
     <g id="line2d_14">
      <g>
       <use xlink:href="#mecc5557939" x="441.293033" y="257.212802" style="stroke: #000000; stroke-width: 0.8"/>
      </g>
     </g>
     <g id="text_14">
      <!-- 1200 -->
      <g transform="translate(408.843033 261.012021) scale(0.1 -0.1)">
       <use xlink:href="#DejaVuSans-31"/>
       <use xlink:href="#DejaVuSans-32" x="63.623047"/>
       <use xlink:href="#DejaVuSans-30" x="127.246094"/>
       <use xlink:href="#DejaVuSans-30" x="190.869141"/>
      </g>
     </g>
    </g>
    <g id="ytick_9">
     <g id="line2d_15">
      <g>
       <use xlink:href="#mecc5557939" x="441.293033" y="158.593222" style="stroke: #000000; stroke-width: 0.8"/>
      </g>
     </g>
     <g id="text_15">
      <!-- 1300 -->
      <g transform="translate(408.843033 162.392441) scale(0.1 -0.1)">
       <use xlink:href="#DejaVuSans-31"/>
       <use xlink:href="#DejaVuSans-33" x="63.623047"/>
       <use xlink:href="#DejaVuSans-30" x="127.246094"/>
       <use xlink:href="#DejaVuSans-30" x="190.869141"/>
      </g>
     </g>
    </g>
   </g>
   <g id="LineCollection_1">
    <path d="M 526.886859 910.555587 
L 513.278069 887.042889 
L 503.770801 867.034433 
L 497.703206 849.962859 
L 494.599079 835.633722 
L 493.944961 823.812236 
L 495.226238 814.142897 
L 498.045758 806.122113 
L 502.233946 799.220945 
L 507.793832 793.071063 
L 514.733131 787.512764 
L 522.970067 782.504069 
L 532.346473 778.027375 
L 542.672759 774.050167 
L 553.759718 770.52088 
L 565.433064 767.375749 
L 577.537935 764.546026 
L 589.938992 761.963038 
L 602.518995 759.561238 
L 627.826597 755.063723 
L 652.868525 750.626336 
L 665.119373 748.328193 
L 677.130886 745.931751 
L 688.869134 743.40945 
L 700.307333 740.738498 
L 711.424998 737.900532 
L 722.207178 734.881308 
L 732.643745 731.670413 
L 742.728773 728.260993 
L 752.459989 724.649496 
L 761.838312 720.835416 
L 770.867461 716.821019 
L 779.553644 712.611047 
L 787.905291 708.212384 
L 795.932821 703.63368 
L 803.648414 698.884953 
L 811.065782 693.977156 
L 818.199907 688.921757 
L 825.066754 683.730326 
L 831.682961 678.414164 
L 838.065506 672.983977 
L 844.231372 667.449609 
L 850.197219 661.819833 
L 855.979075 656.102186 
L 861.592057 650.302867 
L 867.05012 644.426659 
L 872.365849 638.476893 
L 877.550271 632.45543 
L 882.612721 626.36267 
L 887.560717 620.197572 
L 892.39988 613.957687 
L 897.133864 607.639208 
L 901.764321 601.237034 
L 906.290885 594.744844 
L 910.711168 588.155193 
L 915.020798 581.459626 
L 919.213469 574.648813 
L 923.281021 567.712708 
L 927.213566 560.640729 
L 930.999643 553.421967 
L 934.626431 546.045405 
L 938.080006 538.500155 
L 941.345666 530.775681 
L 944.4083 522.862025 
L 947.252824 514.749992 
L 949.864642 506.431305 
L 952.230138 497.898709 
L 954.337176 489.146039 
L 956.175574 480.168255 
L 957.737557 470.961466 
L 959.018171 461.522963 
L 960.01566 451.851296 
L 960.73181 441.946404 
L 961.172292 431.809813 
L 961.346996 421.444925 
L 961.270388 410.857371 
L 960.961893 400.055447 
L 960.446312 389.050608 
L 959.754263 377.858026 
L 957.995149 354.992661 
L 956.06024 331.634831 
L 955.179335 319.869048 
L 954.454384 308.117839 
L 953.969025 296.441935 
L 953.814711 284.912318 
L 954.089599 273.611028 
L 954.896565 262.631234 
L 956.340244 252.075497 
L 958.523747 242.050362 
L 961.547608 232.65487 
L 965.516885 223.962379 
L 970.564419 216.002539 
L 976.890314 208.762429 
L 984.794856 202.225376 
L 994.668885 196.433332 
L 1007.733607 191.206667 
L 1007.733607 191.206667 
" clip-path="url(#p44b737061d)" style="fill: none; stroke: #1f77b4; stroke-width: 1.5"/>
    <path d="M 515.79084 916.977793 
L 501.921508 893.014944 
L 491.909926 871.945136 
L 485.347474 853.481248 
L 481.854209 837.355793 
L 481.07757 823.320042 
L 482.691118 811.143176 
L 486.393302 800.611445 
L 491.906262 791.52736 
L 498.974652 783.708896 
L 507.364504 776.988721 
L 516.862111 771.21344 
L 527.272947 766.242865 
L 538.420615 761.949299 
L 550.145819 758.21684 
L 562.305371 754.940712 
L 574.771226 752.026603 
L 587.42954 749.390031 
L 600.179767 746.955731 
L 612.933771 744.657052 
L 625.614978 742.435377 
L 638.157552 740.23957 
L 650.505593 738.025425 
L 662.612374 735.755153 
L 674.439594 733.396866 
L 685.956668 730.924102 
L 697.140039 728.315349 
L 707.972516 725.553599 
L 718.442645 722.625914 
L 728.544097 719.523015 
L 738.275094 716.238882 
L 747.637856 712.770379 
L 756.638067 709.11689 
L 765.284384 705.279978 
L 773.587954 701.263055 
L 781.561971 697.071079 
L 789.22125 692.710256 
L 796.581828 688.187769 
L 803.660595 683.511518 
L 810.474944 678.689879 
L 817.042451 673.73148 
L 823.380573 668.644991 
L 829.506384 663.438936 
L 835.436317 658.121513 
L 841.185947 652.700437 
L 846.76979 647.182799 
L 852.201126 641.574934 
L 857.49185 635.882314 
L 862.65234 630.109447 
L 867.69136 624.259805 
L 872.615972 618.335752 
L 877.431484 612.338499 
L 882.141412 606.268069 
L 886.747471 600.123277 
L 891.249585 593.901728 
L 895.645925 587.59983 
L 899.932959 581.212815 
L 904.105538 574.734786 
L 908.156991 568.158768 
L 912.079254 561.476779 
L 915.863012 554.679914 
L 919.497864 547.758447 
L 922.972516 540.701938 
L 926.274987 533.499364 
L 929.392843 526.139259 
L 932.313444 518.609867 
L 935.024225 510.899311 
L 937.512982 502.995774 
L 939.768189 494.887697 
L 941.779335 486.563983 
L 943.537278 478.014223 
L 945.034616 469.228928 
L 946.26609 460.199779 
L 947.228992 450.919887 
L 947.923603 441.384065 
L 948.353646 431.589117 
L 948.526761 421.534135 
L 948.454995 411.220811 
L 948.155317 400.653762 
L 947.650145 389.840861 
L 946.967899 378.79359 
L 946.143565 367.527398 
L 945.219284 356.062073 
L 944.244955 344.422125 
L 943.278858 332.637181 
L 942.388294 320.742393 
L 941.650244 308.778855 
L 941.152044 296.794034 
L 940.992079 284.842207 
L 941.280491 272.984918 
L 942.139909 261.291435 
L 943.706196 249.839229 
L 946.129204 238.714454 
L 949.573557 228.012444 
L 954.219443 217.838219 
L 960.263428 208.306998 
L 967.919279 199.544729 
L 977.41881 191.688621 
L 989.012739 184.887694 
L 1002.971566 179.303334 
" clip-path="url(#p44b737061d)" style="fill: none; stroke: #8c564b; stroke-width: 1.5"/>
    <path d="M 504.69482 923.4 
L 490.341727 898.517222 
L 479.829706 876.238699 
L 472.817564 856.195609 
L 469.149118 839.072488 
L 469.053245 838.064107 
L 468.266393 822.829999 
L 468.36812 821.635922 
L 470.222619 808.159398 
L 470.596107 806.891457 
L 474.803461 795.13039 
L 475.433187 793.959959 
L 481.624946 783.868318 
L 482.396066 782.929537 
L 490.183818 774.376821 
L 490.95969 773.70256 
L 500.703442 766.034423 
L 511.338323 759.643904 
L 522.665029 754.279025 
L 534.531759 749.732786 
L 546.810536 745.837734 
L 559.387026 742.456737 
L 572.15697 739.475425 
L 585.025243 736.796949 
L 597.905733 734.338475 
L 623.402589 729.807166 
L 648.1927 725.415132 
L 660.177328 723.167765 
L 671.840308 720.842227 
L 683.15457 718.413008 
L 694.099841 715.859797 
L 704.66219 713.166916 
L 714.833557 710.322772 
L 724.611265 707.319318 
L 733.997514 704.151536 
L 742.998848 700.816926 
L 751.625592 697.31504 
L 759.891263 693.647043 
L 767.811957 689.81534 
L 775.405731 685.82326 
L 782.691986 681.674819 
L 789.690892 677.37455 
L 796.422856 672.927398 
L 802.908064 668.33865 
L 809.166093 663.613902 
L 815.215612 658.759025 
L 821.074139 653.780122 
L 826.757872 648.683469 
L 832.281561 643.475424 
L 837.658415 638.162321 
L 842.900034 632.750339 
L 848.01636 627.245363 
L 853.015639 621.652839 
L 857.904397 615.977632 
L 862.687426 610.223896 
L 867.367794 604.394952 
L 871.946857 598.493186 
L 876.42431 592.519964 
L 880.79824 586.475555 
L 885.065222 580.359084 
L 889.220417 574.16849 
L 893.257712 567.900491 
L 897.169868 561.550571 
L 900.948682 555.112962 
L 904.585174 548.580634 
L 908.069763 541.945296 
L 911.392457 535.197392 
L 914.543017 528.326131 
L 917.511127 521.31952 
L 920.286535 514.164442 
L 922.859184 506.846787 
L 925.219346 499.351628 
L 927.357752 491.663481 
L 929.265763 483.766626 
L 930.935574 475.645495 
L 932.360493 467.285105 
L 933.535288 458.671523 
L 934.456613 449.792325 
L 935.123505 440.637035 
L 935.537943 431.19753 
L 935.705447 421.468382 
L 935.635714 411.447163 
L 935.343255 401.13468 
L 934.848054 390.535183 
L 934.176221 379.656525 
L 932.441777 357.111876 
L 930.494095 333.594377 
L 929.592076 321.531812 
L 928.840761 309.311336 
L 928.332647 296.965611 
L 928.175324 284.530458 
L 928.494431 272.0452 
L 929.437614 259.554177 
L 931.179333 247.110842 
L 933.925148 234.78668 
L 937.91135 222.687097 
L 942.557237 212.512871 
L 943.392278 210.972443 
L 949.992555 200.633957 
L 950.608907 199.871561 
L 958.977547 190.357138 
L 959.748753 189.665007 
L 970.066498 181.185769 
L 970.932026 180.630229 
L 983.372483 173.374489 
L 984.250698 172.98436 
L 998.209525 167.4 
L 998.209525 167.4 
" clip-path="url(#p44b737061d)" style="fill: none; stroke: #17becf; stroke-width: 1.5"/>
   </g>
   <g id="patch_3">
    <path d="M 441.293033 961.2 
L 441.293033 129.6 
" style="fill: none; stroke: #000000; stroke-width: 0.8; stroke-linejoin: miter; stroke-linecap: square"/>
   </g>
   <g id="patch_4">
    <path d="M 1034.706967 961.2 
L 1034.706967 129.6 
" style="fill: none; stroke: #000000; stroke-width: 0.8; stroke-linejoin: miter; stroke-linecap: square"/>
   </g>
   <g id="patch_5">
    <path d="M 441.293033 961.2 
L 1034.706967 961.2 
" style="fill: none; stroke: #000000; stroke-width: 0.8; stroke-linejoin: miter; stroke-linecap: square"/>
   </g>
   <g id="patch_6">
    <path d="M 441.293033 129.6 
L 1034.706967 129.6 
" style="fill: none; stroke: #000000; stroke-width: 0.8; stroke-linejoin: miter; stroke-linecap: square"/>
   </g>
  </g>
 </g>
 <defs>
  <clipPath id="p44b737061d">
   <rect x="441.293033" y="129.6" width="593.413934" height="831.6"/>
  </clipPath>
 </defs>
</svg>
