<?xml version="1.0" encoding="utf-8" standalone="no"?>
<!DOCTYPE svg PUBLIC "-//W3C//DTD SVG 1.1//EN"
  "http://www.w3.org/Graphics/SVG/1.1/DTD/svg11.dtd">
<svg xmlns:xlink="http://www.w3.org/1999/xlink" width="1440pt" height="1080pt" viewBox="0 0 1440 1080" xmlns="http://www.w3.org/2000/svg" version="1.1">
 <metadata>
  <rdf:RDF xmlns:dc="http://purl.org/dc/elements/1.1/" xmlns:cc="http://creativecommons.org/ns#" xmlns:rdf="http://www.w3.org/1999/02/22-rdf-syntax-ns#">
   <cc:Work>
    <dc:type rdf:resource="http://purl.org/dc/dcmitype/StillImage"/>
    <dc:date>2023-12-11T12:06:56.545541</dc:date>
    <dc:format>image/svg+xml</dc:format>
    <dc:creator>
     <cc:Agent>
      <dc:title>Matplotlib v3.7.1, https://matplotlib.org/</dc:title>
     </cc:Agent>
    </dc:creator>
   </cc:Work>
  </rdf:RDF>
 </metadata>
 <defs>
  <style type="text/css">*{stroke-linejoin: round; stroke-linecap: butt}</style>
 </defs>
 <g id="figure_1">
  <g id="patch_1">
   <path d="M 0 1080 
L 1440 1080 
L 1440 0 
L 0 0 
z
" style="fill: #ffffff"/>
  </g>
  <g id="axes_1">
   <g id="patch_2">
    <path d="M 180 894.030272 
L 1296 894.030272 
L 1296 196.769728 
L 180 196.769728 
z
" style="fill: #ffffff"/>
   </g>
   <g id="matplotlib.axis_1">
    <g id="xtick_1">
     <g id="line2d_1">
      <defs>
       <path id="mc48fa3d589" d="M 0 0 
L 0 3.5 
" style="stroke: #000000; stroke-width: 0.8"/>
      </defs>
      <g>
       <use xlink:href="#mc48fa3d589" x="225.898233" y="894.030272" style="stroke: #000000; stroke-width: 0.8"/>
      </g>
     </g>
     <g id="text_1">
      <!-- 200 -->
      <g transform="translate(216.354483 908.62871) scale(0.1 -0.1)">
       <defs>
        <path id="DejaVuSans-32" d="M 1228 531 
L 3431 531 
L 3431 0 
L 469 0 
L 469 531 
Q 828 903 1448 1529 
Q 2069 2156 2228 2338 
Q 2531 2678 2651 2914 
Q 2772 3150 2772 3378 
Q 2772 3750 2511 3984 
Q 2250 4219 1831 4219 
Q 1534 4219 1204 4116 
Q 875 4013 500 3803 
L 500 4441 
Q 881 4594 1212 4672 
Q 1544 4750 1819 4750 
Q 2544 4750 2975 4387 
Q 3406 4025 3406 3419 
Q 3406 3131 3298 2873 
Q 3191 2616 2906 2266 
Q 2828 2175 2409 1742 
Q 1991 1309 1228 531 
z
" transform="scale(0.015625)"/>
        <path id="DejaVuSans-30" d="M 2034 4250 
Q 1547 4250 1301 3770 
Q 1056 3291 1056 2328 
Q 1056 1369 1301 889 
Q 1547 409 2034 409 
Q 2525 409 2770 889 
Q 3016 1369 3016 2328 
Q 3016 3291 2770 3770 
Q 2525 4250 2034 4250 
z
M 2034 4750 
Q 2819 4750 3233 4129 
Q 3647 3509 3647 2328 
Q 3647 1150 3233 529 
Q 2819 -91 2034 -91 
Q 1250 -91 836 529 
Q 422 1150 422 2328 
Q 422 3509 836 4129 
Q 1250 4750 2034 4750 
z
" transform="scale(0.015625)"/>
       </defs>
       <use xlink:href="#DejaVuSans-32"/>
       <use xlink:href="#DejaVuSans-30" x="63.623047"/>
       <use xlink:href="#DejaVuSans-30" x="127.246094"/>
      </g>
     </g>
    </g>
    <g id="xtick_2">
     <g id="line2d_2">
      <g>
       <use xlink:href="#mc48fa3d589" x="442.428507" y="894.030272" style="stroke: #000000; stroke-width: 0.8"/>
      </g>
     </g>
     <g id="text_2">
      <!-- 400 -->
      <g transform="translate(432.884757 908.62871) scale(0.1 -0.1)">
       <defs>
        <path id="DejaVuSans-34" d="M 2419 4116 
L 825 1625 
L 2419 1625 
L 2419 4116 
z
M 2253 4666 
L 3047 4666 
L 3047 1625 
L 3713 1625 
L 3713 1100 
L 3047 1100 
L 3047 0 
L 2419 0 
L 2419 1100 
L 313 1100 
L 313 1709 
L 2253 4666 
z
" transform="scale(0.015625)"/>
       </defs>
       <use xlink:href="#DejaVuSans-34"/>
       <use xlink:href="#DejaVuSans-30" x="63.623047"/>
       <use xlink:href="#DejaVuSans-30" x="127.246094"/>
      </g>
     </g>
    </g>
    <g id="xtick_3">
     <g id="line2d_3">
      <g>
       <use xlink:href="#mc48fa3d589" x="658.958781" y="894.030272" style="stroke: #000000; stroke-width: 0.8"/>
      </g>
     </g>
     <g id="text_3">
      <!-- 600 -->
      <g transform="translate(649.415031 908.62871) scale(0.1 -0.1)">
       <defs>
        <path id="DejaVuSans-36" d="M 2113 2584 
Q 1688 2584 1439 2293 
Q 1191 2003 1191 1497 
Q 1191 994 1439 701 
Q 1688 409 2113 409 
Q 2538 409 2786 701 
Q 3034 994 3034 1497 
Q 3034 2003 2786 2293 
Q 2538 2584 2113 2584 
z
M 3366 4563 
L 3366 3988 
Q 3128 4100 2886 4159 
Q 2644 4219 2406 4219 
Q 1781 4219 1451 3797 
Q 1122 3375 1075 2522 
Q 1259 2794 1537 2939 
Q 1816 3084 2150 3084 
Q 2853 3084 3261 2657 
Q 3669 2231 3669 1497 
Q 3669 778 3244 343 
Q 2819 -91 2113 -91 
Q 1303 -91 875 529 
Q 447 1150 447 2328 
Q 447 3434 972 4092 
Q 1497 4750 2381 4750 
Q 2619 4750 2861 4703 
Q 3103 4656 3366 4563 
z
" transform="scale(0.015625)"/>
       </defs>
       <use xlink:href="#DejaVuSans-36"/>
       <use xlink:href="#DejaVuSans-30" x="63.623047"/>
       <use xlink:href="#DejaVuSans-30" x="127.246094"/>
      </g>
     </g>
    </g>
    <g id="xtick_4">
     <g id="line2d_4">
      <g>
       <use xlink:href="#mc48fa3d589" x="875.489055" y="894.030272" style="stroke: #000000; stroke-width: 0.8"/>
      </g>
     </g>
     <g id="text_4">
      <!-- 800 -->
      <g transform="translate(865.945305 908.62871) scale(0.1 -0.1)">
       <defs>
        <path id="DejaVuSans-38" d="M 2034 2216 
Q 1584 2216 1326 1975 
Q 1069 1734 1069 1313 
Q 1069 891 1326 650 
Q 1584 409 2034 409 
Q 2484 409 2743 651 
Q 3003 894 3003 1313 
Q 3003 1734 2745 1975 
Q 2488 2216 2034 2216 
z
M 1403 2484 
Q 997 2584 770 2862 
Q 544 3141 544 3541 
Q 544 4100 942 4425 
Q 1341 4750 2034 4750 
Q 2731 4750 3128 4425 
Q 3525 4100 3525 3541 
Q 3525 3141 3298 2862 
Q 3072 2584 2669 2484 
Q 3125 2378 3379 2068 
Q 3634 1759 3634 1313 
Q 3634 634 3220 271 
Q 2806 -91 2034 -91 
Q 1263 -91 848 271 
Q 434 634 434 1313 
Q 434 1759 690 2068 
Q 947 2378 1403 2484 
z
M 1172 3481 
Q 1172 3119 1398 2916 
Q 1625 2713 2034 2713 
Q 2441 2713 2670 2916 
Q 2900 3119 2900 3481 
Q 2900 3844 2670 4047 
Q 2441 4250 2034 4250 
Q 1625 4250 1398 4047 
Q 1172 3844 1172 3481 
z
" transform="scale(0.015625)"/>
       </defs>
       <use xlink:href="#DejaVuSans-38"/>
       <use xlink:href="#DejaVuSans-30" x="63.623047"/>
       <use xlink:href="#DejaVuSans-30" x="127.246094"/>
      </g>
     </g>
    </g>
    <g id="xtick_5">
     <g id="line2d_5">
      <g>
       <use xlink:href="#mc48fa3d589" x="1092.01933" y="894.030272" style="stroke: #000000; stroke-width: 0.8"/>
      </g>
     </g>
     <g id="text_5">
      <!-- 1000 -->
      <g transform="translate(1079.29433 908.62871) scale(0.1 -0.1)">
       <defs>
        <path id="DejaVuSans-31" d="M 794 531 
L 1825 531 
L 1825 4091 
L 703 3866 
L 703 4441 
L 1819 4666 
L 2450 4666 
L 2450 531 
L 3481 531 
L 3481 0 
L 794 0 
L 794 531 
z
" transform="scale(0.015625)"/>
       </defs>
       <use xlink:href="#DejaVuSans-31"/>
       <use xlink:href="#DejaVuSans-30" x="63.623047"/>
       <use xlink:href="#DejaVuSans-30" x="127.246094"/>
       <use xlink:href="#DejaVuSans-30" x="190.869141"/>
      </g>
     </g>
    </g>
   </g>
   <g id="matplotlib.axis_2">
    <g id="ytick_1">
     <g id="line2d_6">
      <defs>
       <path id="mf300256fc7" d="M 0 0 
L -3.5 0 
" style="stroke: #000000; stroke-width: 0.8"/>
      </defs>
      <g>
       <use xlink:href="#mf300256fc7" x="180" y="802.179856" style="stroke: #000000; stroke-width: 0.8"/>
      </g>
     </g>
     <g id="text_6">
      <!-- 200 -->
      <g transform="translate(153.9125 805.979075) scale(0.1 -0.1)">
       <use xlink:href="#DejaVuSans-32"/>
       <use xlink:href="#DejaVuSans-30" x="63.623047"/>
       <use xlink:href="#DejaVuSans-30" x="127.246094"/>
      </g>
     </g>
    </g>
    <g id="ytick_2">
     <g id="line2d_7">
      <g>
       <use xlink:href="#mf300256fc7" x="180" y="693.914719" style="stroke: #000000; stroke-width: 0.8"/>
      </g>
     </g>
     <g id="text_7">
      <!-- 300 -->
      <g transform="translate(153.9125 697.713938) scale(0.1 -0.1)">
       <defs>
        <path id="DejaVuSans-33" d="M 2597 2516 
Q 3050 2419 3304 2112 
Q 3559 1806 3559 1356 
Q 3559 666 3084 287 
Q 2609 -91 1734 -91 
Q 1441 -91 1130 -33 
Q 819 25 488 141 
L 488 750 
Q 750 597 1062 519 
Q 1375 441 1716 441 
Q 2309 441 2620 675 
Q 2931 909 2931 1356 
Q 2931 1769 2642 2001 
Q 2353 2234 1838 2234 
L 1294 2234 
L 1294 2753 
L 1863 2753 
Q 2328 2753 2575 2939 
Q 2822 3125 2822 3475 
Q 2822 3834 2567 4026 
Q 2313 4219 1838 4219 
Q 1578 4219 1281 4162 
Q 984 4106 628 3988 
L 628 4550 
Q 988 4650 1302 4700 
Q 1616 4750 1894 4750 
Q 2613 4750 3031 4423 
Q 3450 4097 3450 3541 
Q 3450 3153 3228 2886 
Q 3006 2619 2597 2516 
z
" transform="scale(0.015625)"/>
       </defs>
       <use xlink:href="#DejaVuSans-33"/>
       <use xlink:href="#DejaVuSans-30" x="63.623047"/>
       <use xlink:href="#DejaVuSans-30" x="127.246094"/>
      </g>
     </g>
    </g>
    <g id="ytick_3">
     <g id="line2d_8">
      <g>
       <use xlink:href="#mf300256fc7" x="180" y="585.649582" style="stroke: #000000; stroke-width: 0.8"/>
      </g>
     </g>
     <g id="text_8">
      <!-- 400 -->
      <g transform="translate(153.9125 589.4488) scale(0.1 -0.1)">
       <use xlink:href="#DejaVuSans-34"/>
       <use xlink:href="#DejaVuSans-30" x="63.623047"/>
       <use xlink:href="#DejaVuSans-30" x="127.246094"/>
      </g>
     </g>
    </g>
    <g id="ytick_4">
     <g id="line2d_9">
      <g>
       <use xlink:href="#mf300256fc7" x="180" y="477.384445" style="stroke: #000000; stroke-width: 0.8"/>
      </g>
     </g>
     <g id="text_9">
      <!-- 500 -->
      <g transform="translate(153.9125 481.183663) scale(0.1 -0.1)">
       <defs>
        <path id="DejaVuSans-35" d="M 691 4666 
L 3169 4666 
L 3169 4134 
L 1269 4134 
L 1269 2991 
Q 1406 3038 1543 3061 
Q 1681 3084 1819 3084 
Q 2600 3084 3056 2656 
Q 3513 2228 3513 1497 
Q 3513 744 3044 326 
Q 2575 -91 1722 -91 
Q 1428 -91 1123 -41 
Q 819 9 494 109 
L 494 744 
Q 775 591 1075 516 
Q 1375 441 1709 441 
Q 2250 441 2565 725 
Q 2881 1009 2881 1497 
Q 2881 1984 2565 2268 
Q 2250 2553 1709 2553 
Q 1456 2553 1204 2497 
Q 953 2441 691 2322 
L 691 4666 
z
" transform="scale(0.015625)"/>
       </defs>
       <use xlink:href="#DejaVuSans-35"/>
       <use xlink:href="#DejaVuSans-30" x="63.623047"/>
       <use xlink:href="#DejaVuSans-30" x="127.246094"/>
      </g>
     </g>
    </g>
    <g id="ytick_5">
     <g id="line2d_10">
      <g>
       <use xlink:href="#mf300256fc7" x="180" y="369.119308" style="stroke: #000000; stroke-width: 0.8"/>
      </g>
     </g>
     <g id="text_10">
      <!-- 600 -->
      <g transform="translate(153.9125 372.918526) scale(0.1 -0.1)">
       <use xlink:href="#DejaVuSans-36"/>
       <use xlink:href="#DejaVuSans-30" x="63.623047"/>
       <use xlink:href="#DejaVuSans-30" x="127.246094"/>
      </g>
     </g>
    </g>
    <g id="ytick_6">
     <g id="line2d_11">
      <g>
       <use xlink:href="#mf300256fc7" x="180" y="260.854171" style="stroke: #000000; stroke-width: 0.8"/>
      </g>
     </g>
     <g id="text_11">
      <!-- 700 -->
      <g transform="translate(153.9125 264.653389) scale(0.1 -0.1)">
       <defs>
        <path id="DejaVuSans-37" d="M 525 4666 
L 3525 4666 
L 3525 4397 
L 1831 0 
L 1172 0 
L 2766 4134 
L 525 4134 
L 525 4666 
z
" transform="scale(0.015625)"/>
       </defs>
       <use xlink:href="#DejaVuSans-37"/>
       <use xlink:href="#DejaVuSans-30" x="63.623047"/>
       <use xlink:href="#DejaVuSans-30" x="127.246094"/>
      </g>
     </g>
    </g>
   </g>
   <g id="LineCollection_1">
    <path d="M 294.099325 861.114751 
L 293.526635 831.68867 
L 294.477316 806.498728 
L 296.763469 784.580256 
L 300.199999 765.743241 
L 304.590258 749.782884 
L 309.734595 736.462284 
L 315.451126 725.496851 
L 321.608291 716.552049 
L 328.157429 709.266716 
L 335.143583 703.30131 
L 342.679552 698.388979 
L 350.893657 694.36007 
L 359.880813 691.129876 
L 369.679114 688.664876 
L 380.272377 686.949473 
L 391.606044 685.964966 
L 403.604613 685.680972 
L 416.184937 686.054689 
L 429.264467 687.0336 
L 442.765587 688.558961 
L 456.617435 690.56891 
L 470.756339 693.000847 
L 485.125545 695.79311 
L 499.674658 698.886083 
L 514.358991 702.222886 
L 529.138939 705.74977 
L 558.849254 713.175476 
L 618.190262 728.330642 
L 647.472464 735.47783 
L 661.95851 738.838344 
L 676.326258 742.023666 
L 690.566439 745.011556 
L 704.671144 747.781643 
L 718.633677 750.315241 
L 732.44842 752.595178 
L 746.1107 754.605624 
L 759.616657 756.331926 
L 772.963112 757.760456 
L 786.147439 758.878466 
L 799.167426 759.673955 
L 812.021146 760.135549 
L 824.706814 760.2524 
L 837.222648 760.014105 
L 849.566729 759.410647 
L 861.73686 758.432359 
L 873.730435 757.069928 
L 885.544319 755.314414 
L 897.174743 753.157318 
L 908.617232 750.590674 
L 919.866568 747.607165 
L 930.916797 744.200267 
L 941.761291 740.364397 
L 952.392866 736.095068 
L 962.803966 731.389013 
L 972.986889 726.244285 
L 982.934065 720.660309 
L 992.638361 714.637874 
L 1002.093383 708.179062 
L 1011.293775 701.287125 
L 1020.235473 693.966308 
L 1028.915916 686.221642 
L 1037.334185 678.058728 
L 1045.491087 669.483529 
L 1053.389173 660.502191 
L 1061.032713 651.120915 
L 1068.427623 641.345877 
L 1075.581385 631.183221 
L 1082.502949 620.639105 
L 1089.202649 609.71981 
L 1095.692134 598.431895 
L 1101.984318 586.782405 
L 1108.093362 574.779105 
L 1114.034678 562.430745 
L 1119.824968 549.747351 
L 1125.482277 536.740528 
L 1131.026071 523.423779 
L 1136.477331 509.812832 
L 1141.858653 495.925987 
L 1152.510606 467.412755 
L 1174.213936 408.142046 
L 1179.915178 393.079835 
L 1185.79961 378.021152 
L 1191.908479 363.023618 
L 1198.284868 348.15099 
L 1204.973408 333.473301 
L 1212.019925 319.066776 
L 1219.471054 305.013435 
L 1227.37393 291.400209 
L 1235.776182 278.317399 
L 1245.272727 265.096016 
L 1245.272727 265.096016 
" clip-path="url(#p61c1d3ed00)" style="fill: none; stroke: #1f77b4; stroke-width: 1.5"/>
    <path d="M 262.70838 861.725681 
L 262.118218 831.401855 
L 263.141973 804.275694 
L 265.660666 780.127745 
L 269.56095 758.748703 
L 274.734953 739.939123 
L 281.080116 723.509137 
L 288.499046 709.278169 
L 296.89935 697.074653 
L 306.193489 686.735752 
L 316.298619 678.107082 
L 327.13644 671.042436 
L 338.633042 665.403506 
L 350.718756 661.059617 
L 363.328001 657.887456 
L 376.399139 655.770802 
L 389.874324 654.600271 
L 403.699358 654.273046 
L 417.823548 654.692627 
L 432.19956 655.76857 
L 446.78328 657.416244 
L 461.533674 659.556574 
L 476.412653 662.115807 
L 491.384934 665.025261 
L 506.417911 668.221098 
L 521.481521 671.644086 
L 536.548118 675.239372 
L 551.592344 678.956259 
L 566.59101 682.747985 
L 581.52297 686.571507 
L 596.369007 690.387292 
L 611.111716 694.15911 
L 625.73539 697.853835 
L 640.225914 701.441247 
L 654.570655 704.893841 
L 668.758363 708.186644 
L 682.779065 711.297034 
L 696.623978 714.204562 
L 710.285406 716.89079 
L 723.756658 719.339125 
L 737.031957 721.534659 
L 750.106364 723.464022 
L 762.975696 725.115239 
L 775.636451 726.477586 
L 788.085743 727.541465 
L 800.321231 728.298273 
L 812.341062 728.740289 
L 824.14381 728.860558 
L 835.728428 728.652791 
L 847.094194 728.111266 
L 858.240674 727.230735 
L 869.167679 726.006349 
L 879.875234 724.433576 
L 890.363545 722.508138 
L 900.632983 720.22595 
L 910.684057 717.583072 
L 920.517406 714.575659 
L 930.133789 711.199934 
L 939.534084 707.452156 
L 948.719287 703.328604 
L 957.690528 698.825568 
L 966.449078 693.939346 
L 974.996374 688.666255 
L 983.334041 683.002649 
L 991.46393 676.944941 
L 999.388152 670.489642 
L 1007.109121 663.633408 
L 1014.62961 656.373089 
L 1021.952805 648.705801 
L 1029.082369 640.628994 
L 1036.022515 632.140539 
L 1042.778077 623.238821 
L 1049.354601 613.922847 
L 1055.758432 604.192358 
L 1061.996811 594.047954 
L 1068.077984 583.491234 
L 1074.011309 572.524936 
L 1079.807379 561.153105 
L 1085.478148 549.38125 
L 1091.037065 537.216535 
L 1096.499216 524.667963 
L 1101.881471 511.746581 
L 1107.202646 498.465695 
L 1112.483666 484.841095 
L 1117.747737 470.891296 
L 1123.020529 456.63778 
L 1128.330364 442.105269 
L 1133.708414 427.321989 
L 1139.18891 412.319963 
L 1144.80935 397.135308 
L 1150.610728 381.808546 
L 1156.637764 366.384928 
L 1162.939143 350.914774 
L 1169.567766 335.453823 
L 1176.581007 320.063591 
L 1184.040982 304.811757 
L 1192.014823 289.772546 
L 1200.574965 275.027134 
L 1209.799443 260.66407 
L 1219.772191 246.779703 
" clip-path="url(#p61c1d3ed00)" style="fill: none; stroke: #8c564b; stroke-width: 1.5"/>
    <path d="M 231.317434 862.336611 
L 230.743664 830.217764 
L 231.914486 801.018587 
L 234.773569 774.492859 
L 238.673853 753.113817 
L 239.288463 750.421567 
L 244.462465 731.611987 
L 245.446324 728.628027 
L 251.791487 712.198041 
L 253.239359 708.995113 
L 260.658288 694.764145 
L 262.636973 691.475982 
L 271.037277 679.272466 
L 273.550021 676.084809 
L 282.84416 665.745908 
L 285.805473 662.859121 
L 295.910603 654.230451 
L 299.153466 651.804831 
L 309.991287 644.740185 
L 313.310269 642.853756 
L 324.806872 637.214826 
L 328.013387 635.857143 
L 340.099101 631.513254 
L 343.058786 630.611472 
L 355.668031 627.439311 
L 358.309174 626.894294 
L 373.682058 624.491701 
L 389.131399 623.212172 
L 404.631639 622.890001 
L 420.166831 623.383303 
L 435.724366 624.570166 
L 451.291855 626.344755 
L 466.855885 628.614067 
L 482.401751 631.295434 
L 497.913651 634.314667 
L 513.375043 637.604713 
L 528.769033 641.104655 
L 544.078727 644.758975 
L 574.379311 652.332413 
L 633.353432 667.39508 
L 661.793378 674.338755 
L 675.707549 677.568074 
L 689.405607 680.606886 
L 702.879409 683.436479 
L 716.121608 686.040275 
L 729.125617 688.40369 
L 741.885583 690.513995 
L 754.396349 692.360184 
L 766.653431 693.932845 
L 778.653004 695.224046 
L 790.391883 696.227215 
L 801.867528 696.937025 
L 813.078053 697.349279 
L 824.022242 697.4608 
L 834.699589 697.269305 
L 845.110333 696.773281 
L 855.255513 695.97185 
L 865.137025 694.864612 
L 874.757681 693.451488 
L 884.121254 691.732528 
L 893.232526 689.707722 
L 902.097298 687.376775 
L 910.722381 684.738896 
L 919.115537 681.792572 
L 927.285387 678.535356 
L 935.24126 674.963693 
L 942.993001 671.072773 
L 950.550745 666.856458 
L 957.924659 662.307262 
L 965.124691 657.416428 
L 972.16032 652.17407 
L 979.04036 646.569392 
L 985.772809 640.590965 
L 992.364773 634.22705 
L 998.822463 627.465934 
L 1005.151276 620.296267 
L 1011.355932 612.707385 
L 1017.440677 604.689594 
L 1023.409527 596.234422 
L 1029.266533 587.334821 
L 1035.016068 577.98534 
L 1040.663113 568.182252 
L 1046.21353 557.923666 
L 1051.674339 547.209614 
L 1057.053969 536.042131 
L 1062.362504 524.425334 
L 1067.611916 512.365499 
L 1072.816295 499.87115 
L 1077.992071 486.95316 
L 1083.158244 473.624857 
L 1093.552061 445.803666 
L 1115.445578 386.02074 
L 1121.367269 370.381176 
L 1127.560506 354.541036 
L 1134.082538 338.54299 
L 1140.997468 322.4345 
L 1148.377103 306.268502 
L 1156.301876 290.104389 
L 1164.861773 274.009406 
L 1174.157116 258.060639 
L 1184.298907 242.347757 
L 1194.271655 228.463389 
L 1194.271655 228.463389 
" clip-path="url(#p61c1d3ed00)" style="fill: none; stroke: #17becf; stroke-width: 1.5"/>
   </g>
   <g id="patch_3">
    <path d="M 180 894.030272 
L 180 196.769728 
" style="fill: none; stroke: #000000; stroke-width: 0.8; stroke-linejoin: miter; stroke-linecap: square"/>
   </g>
   <g id="patch_4">
    <path d="M 1296 894.030272 
L 1296 196.769728 
" style="fill: none; stroke: #000000; stroke-width: 0.8; stroke-linejoin: miter; stroke-linecap: square"/>
   </g>
   <g id="patch_5">
    <path d="M 180 894.030272 
L 1296 894.030272 
" style="fill: none; stroke: #000000; stroke-width: 0.8; stroke-linejoin: miter; stroke-linecap: square"/>
   </g>
   <g id="patch_6">
    <path d="M 180 196.769728 
L 1296 196.769728 
" style="fill: none; stroke: #000000; stroke-width: 0.8; stroke-linejoin: miter; stroke-linecap: square"/>
   </g>
  </g>
 </g>
 <defs>
  <clipPath id="p61c1d3ed00">
   <rect x="180" y="196.769728" width="1116" height="697.260544"/>
  </clipPath>
 </defs>
</svg>
