<?xml version="1.0" encoding="utf-8" standalone="no"?>
<!DOCTYPE svg PUBLIC "-//W3C//DTD SVG 1.1//EN"
  "http://www.w3.org/Graphics/SVG/1.1/DTD/svg11.dtd">
<svg xmlns:xlink="http://www.w3.org/1999/xlink" width="1440pt" height="1080pt" viewBox="0 0 1440 1080" xmlns="http://www.w3.org/2000/svg" version="1.1">
 <metadata>
  <rdf:RDF xmlns:dc="http://purl.org/dc/elements/1.1/" xmlns:cc="http://creativecommons.org/ns#" xmlns:rdf="http://www.w3.org/1999/02/22-rdf-syntax-ns#">
   <cc:Work>
    <dc:type rdf:resource="http://purl.org/dc/dcmitype/StillImage"/>
    <dc:date>2023-12-11T12:07:00.644574</dc:date>
    <dc:format>image/svg+xml</dc:format>
    <dc:creator>
     <cc:Agent>
      <dc:title>Matplotlib v3.7.1, https://matplotlib.org/</dc:title>
     </cc:Agent>
    </dc:creator>
   </cc:Work>
  </rdf:RDF>
 </metadata>
 <defs>
  <style type="text/css">*{stroke-linejoin: round; stroke-linecap: butt}</style>
 </defs>
 <g id="figure_1">
  <g id="patch_1">
   <path d="M 0 1080 
L 1440 1080 
L 1440 0 
L 0 0 
z
" style="fill: #ffffff"/>
  </g>
  <g id="axes_1">
   <g id="patch_2">
    <path d="M 471.555601 961.2 
L 1004.444399 961.2 
L 1004.444399 129.6 
L 471.555601 129.6 
z
" style="fill: #ffffff"/>
   </g>
   <g id="matplotlib.axis_1">
    <g id="xtick_1">
     <g id="line2d_1">
      <defs>
       <path id="m4337d8c8b1" d="M 0 0 
L 0 3.5 
" style="stroke: #000000; stroke-width: 0.8"/>
      </defs>
      <g>
       <use xlink:href="#m4337d8c8b1" x="518.374502" y="961.2" style="stroke: #000000; stroke-width: 0.8"/>
      </g>
     </g>
     <g id="text_1">
      <!-- 0 -->
      <g transform="translate(515.193252 975.798437) scale(0.1 -0.1)">
       <defs>
        <path id="DejaVuSans-30" d="M 2034 4250 
Q 1547 4250 1301 3770 
Q 1056 3291 1056 2328 
Q 1056 1369 1301 889 
Q 1547 409 2034 409 
Q 2525 409 2770 889 
Q 3016 1369 3016 2328 
Q 3016 3291 2770 3770 
Q 2525 4250 2034 4250 
z
M 2034 4750 
Q 2819 4750 3233 4129 
Q 3647 3509 3647 2328 
Q 3647 1150 3233 529 
Q 2819 -91 2034 -91 
Q 1250 -91 836 529 
Q 422 1150 422 2328 
Q 422 3509 836 4129 
Q 1250 4750 2034 4750 
z
" transform="scale(0.015625)"/>
       </defs>
       <use xlink:href="#DejaVuSans-30"/>
      </g>
     </g>
    </g>
    <g id="xtick_2">
     <g id="line2d_2">
      <g>
       <use xlink:href="#m4337d8c8b1" x="579.466431" y="961.2" style="stroke: #000000; stroke-width: 0.8"/>
      </g>
     </g>
     <g id="text_2">
      <!-- 50 -->
      <g transform="translate(573.103931 975.798437) scale(0.1 -0.1)">
       <defs>
        <path id="DejaVuSans-35" d="M 691 4666 
L 3169 4666 
L 3169 4134 
L 1269 4134 
L 1269 2991 
Q 1406 3038 1543 3061 
Q 1681 3084 1819 3084 
Q 2600 3084 3056 2656 
Q 3513 2228 3513 1497 
Q 3513 744 3044 326 
Q 2575 -91 1722 -91 
Q 1428 -91 1123 -41 
Q 819 9 494 109 
L 494 744 
Q 775 591 1075 516 
Q 1375 441 1709 441 
Q 2250 441 2565 725 
Q 2881 1009 2881 1497 
Q 2881 1984 2565 2268 
Q 2250 2553 1709 2553 
Q 1456 2553 1204 2497 
Q 953 2441 691 2322 
L 691 4666 
z
" transform="scale(0.015625)"/>
       </defs>
       <use xlink:href="#DejaVuSans-35"/>
       <use xlink:href="#DejaVuSans-30" x="63.623047"/>
      </g>
     </g>
    </g>
    <g id="xtick_3">
     <g id="line2d_3">
      <g>
       <use xlink:href="#m4337d8c8b1" x="640.55836" y="961.2" style="stroke: #000000; stroke-width: 0.8"/>
      </g>
     </g>
     <g id="text_3">
      <!-- 100 -->
      <g transform="translate(631.01461 975.798437) scale(0.1 -0.1)">
       <defs>
        <path id="DejaVuSans-31" d="M 794 531 
L 1825 531 
L 1825 4091 
L 703 3866 
L 703 4441 
L 1819 4666 
L 2450 4666 
L 2450 531 
L 3481 531 
L 3481 0 
L 794 0 
L 794 531 
z
" transform="scale(0.015625)"/>
       </defs>
       <use xlink:href="#DejaVuSans-31"/>
       <use xlink:href="#DejaVuSans-30" x="63.623047"/>
       <use xlink:href="#DejaVuSans-30" x="127.246094"/>
      </g>
     </g>
    </g>
    <g id="xtick_4">
     <g id="line2d_4">
      <g>
       <use xlink:href="#m4337d8c8b1" x="701.650289" y="961.2" style="stroke: #000000; stroke-width: 0.8"/>
      </g>
     </g>
     <g id="text_4">
      <!-- 150 -->
      <g transform="translate(692.106539 975.798437) scale(0.1 -0.1)">
       <use xlink:href="#DejaVuSans-31"/>
       <use xlink:href="#DejaVuSans-35" x="63.623047"/>
       <use xlink:href="#DejaVuSans-30" x="127.246094"/>
      </g>
     </g>
    </g>
    <g id="xtick_5">
     <g id="line2d_5">
      <g>
       <use xlink:href="#m4337d8c8b1" x="762.742219" y="961.2" style="stroke: #000000; stroke-width: 0.8"/>
      </g>
     </g>
     <g id="text_5">
      <!-- 200 -->
      <g transform="translate(753.198469 975.798437) scale(0.1 -0.1)">
       <defs>
        <path id="DejaVuSans-32" d="M 1228 531 
L 3431 531 
L 3431 0 
L 469 0 
L 469 531 
Q 828 903 1448 1529 
Q 2069 2156 2228 2338 
Q 2531 2678 2651 2914 
Q 2772 3150 2772 3378 
Q 2772 3750 2511 3984 
Q 2250 4219 1831 4219 
Q 1534 4219 1204 4116 
Q 875 4013 500 3803 
L 500 4441 
Q 881 4594 1212 4672 
Q 1544 4750 1819 4750 
Q 2544 4750 2975 4387 
Q 3406 4025 3406 3419 
Q 3406 3131 3298 2873 
Q 3191 2616 2906 2266 
Q 2828 2175 2409 1742 
Q 1991 1309 1228 531 
z
" transform="scale(0.015625)"/>
       </defs>
       <use xlink:href="#DejaVuSans-32"/>
       <use xlink:href="#DejaVuSans-30" x="63.623047"/>
       <use xlink:href="#DejaVuSans-30" x="127.246094"/>
      </g>
     </g>
    </g>
    <g id="xtick_6">
     <g id="line2d_6">
      <g>
       <use xlink:href="#m4337d8c8b1" x="823.834148" y="961.2" style="stroke: #000000; stroke-width: 0.8"/>
      </g>
     </g>
     <g id="text_6">
      <!-- 250 -->
      <g transform="translate(814.290398 975.798437) scale(0.1 -0.1)">
       <use xlink:href="#DejaVuSans-32"/>
       <use xlink:href="#DejaVuSans-35" x="63.623047"/>
       <use xlink:href="#DejaVuSans-30" x="127.246094"/>
      </g>
     </g>
    </g>
    <g id="xtick_7">
     <g id="line2d_7">
      <g>
       <use xlink:href="#m4337d8c8b1" x="884.926077" y="961.2" style="stroke: #000000; stroke-width: 0.8"/>
      </g>
     </g>
     <g id="text_7">
      <!-- 300 -->
      <g transform="translate(875.382327 975.798437) scale(0.1 -0.1)">
       <defs>
        <path id="DejaVuSans-33" d="M 2597 2516 
Q 3050 2419 3304 2112 
Q 3559 1806 3559 1356 
Q 3559 666 3084 287 
Q 2609 -91 1734 -91 
Q 1441 -91 1130 -33 
Q 819 25 488 141 
L 488 750 
Q 750 597 1062 519 
Q 1375 441 1716 441 
Q 2309 441 2620 675 
Q 2931 909 2931 1356 
Q 2931 1769 2642 2001 
Q 2353 2234 1838 2234 
L 1294 2234 
L 1294 2753 
L 1863 2753 
Q 2328 2753 2575 2939 
Q 2822 3125 2822 3475 
Q 2822 3834 2567 4026 
Q 2313 4219 1838 4219 
Q 1578 4219 1281 4162 
Q 984 4106 628 3988 
L 628 4550 
Q 988 4650 1302 4700 
Q 1616 4750 1894 4750 
Q 2613 4750 3031 4423 
Q 3450 4097 3450 3541 
Q 3450 3153 3228 2886 
Q 3006 2619 2597 2516 
z
" transform="scale(0.015625)"/>
       </defs>
       <use xlink:href="#DejaVuSans-33"/>
       <use xlink:href="#DejaVuSans-30" x="63.623047"/>
       <use xlink:href="#DejaVuSans-30" x="127.246094"/>
      </g>
     </g>
    </g>
    <g id="xtick_8">
     <g id="line2d_8">
      <g>
       <use xlink:href="#m4337d8c8b1" x="946.018007" y="961.2" style="stroke: #000000; stroke-width: 0.8"/>
      </g>
     </g>
     <g id="text_8">
      <!-- 350 -->
      <g transform="translate(936.474257 975.798437) scale(0.1 -0.1)">
       <use xlink:href="#DejaVuSans-33"/>
       <use xlink:href="#DejaVuSans-35" x="63.623047"/>
       <use xlink:href="#DejaVuSans-30" x="127.246094"/>
      </g>
     </g>
    </g>
   </g>
   <g id="matplotlib.axis_2">
    <g id="ytick_1">
     <g id="line2d_9">
      <defs>
       <path id="m812f98335f" d="M 0 0 
L -3.5 0 
" style="stroke: #000000; stroke-width: 0.8"/>
      </defs>
      <g>
       <use xlink:href="#m812f98335f" x="471.555601" y="923.822324" style="stroke: #000000; stroke-width: 0.8"/>
      </g>
     </g>
     <g id="text_9">
      <!-- 400 -->
      <g transform="translate(445.468101 927.621543) scale(0.1 -0.1)">
       <defs>
        <path id="DejaVuSans-34" d="M 2419 4116 
L 825 1625 
L 2419 1625 
L 2419 4116 
z
M 2253 4666 
L 3047 4666 
L 3047 1625 
L 3713 1625 
L 3713 1100 
L 3047 1100 
L 3047 0 
L 2419 0 
L 2419 1100 
L 313 1100 
L 313 1709 
L 2253 4666 
z
" transform="scale(0.015625)"/>
       </defs>
       <use xlink:href="#DejaVuSans-34"/>
       <use xlink:href="#DejaVuSans-30" x="63.623047"/>
       <use xlink:href="#DejaVuSans-30" x="127.246094"/>
      </g>
     </g>
    </g>
    <g id="ytick_2">
     <g id="line2d_10">
      <g>
       <use xlink:href="#m812f98335f" x="471.555601" y="801.638466" style="stroke: #000000; stroke-width: 0.8"/>
      </g>
     </g>
     <g id="text_10">
      <!-- 500 -->
      <g transform="translate(445.468101 805.437684) scale(0.1 -0.1)">
       <use xlink:href="#DejaVuSans-35"/>
       <use xlink:href="#DejaVuSans-30" x="63.623047"/>
       <use xlink:href="#DejaVuSans-30" x="127.246094"/>
      </g>
     </g>
    </g>
    <g id="ytick_3">
     <g id="line2d_11">
      <g>
       <use xlink:href="#m812f98335f" x="471.555601" y="679.454607" style="stroke: #000000; stroke-width: 0.8"/>
      </g>
     </g>
     <g id="text_11">
      <!-- 600 -->
      <g transform="translate(445.468101 683.253826) scale(0.1 -0.1)">
       <defs>
        <path id="DejaVuSans-36" d="M 2113 2584 
Q 1688 2584 1439 2293 
Q 1191 2003 1191 1497 
Q 1191 994 1439 701 
Q 1688 409 2113 409 
Q 2538 409 2786 701 
Q 3034 994 3034 1497 
Q 3034 2003 2786 2293 
Q 2538 2584 2113 2584 
z
M 3366 4563 
L 3366 3988 
Q 3128 4100 2886 4159 
Q 2644 4219 2406 4219 
Q 1781 4219 1451 3797 
Q 1122 3375 1075 2522 
Q 1259 2794 1537 2939 
Q 1816 3084 2150 3084 
Q 2853 3084 3261 2657 
Q 3669 2231 3669 1497 
Q 3669 778 3244 343 
Q 2819 -91 2113 -91 
Q 1303 -91 875 529 
Q 447 1150 447 2328 
Q 447 3434 972 4092 
Q 1497 4750 2381 4750 
Q 2619 4750 2861 4703 
Q 3103 4656 3366 4563 
z
" transform="scale(0.015625)"/>
       </defs>
       <use xlink:href="#DejaVuSans-36"/>
       <use xlink:href="#DejaVuSans-30" x="63.623047"/>
       <use xlink:href="#DejaVuSans-30" x="127.246094"/>
      </g>
     </g>
    </g>
    <g id="ytick_4">
     <g id="line2d_12">
      <g>
       <use xlink:href="#m812f98335f" x="471.555601" y="557.270748" style="stroke: #000000; stroke-width: 0.8"/>
      </g>
     </g>
     <g id="text_12">
      <!-- 700 -->
      <g transform="translate(445.468101 561.069967) scale(0.1 -0.1)">
       <defs>
        <path id="DejaVuSans-37" d="M 525 4666 
L 3525 4666 
L 3525 4397 
L 1831 0 
L 1172 0 
L 2766 4134 
L 525 4134 
L 525 4666 
z
" transform="scale(0.015625)"/>
       </defs>
       <use xlink:href="#DejaVuSans-37"/>
       <use xlink:href="#DejaVuSans-30" x="63.623047"/>
       <use xlink:href="#DejaVuSans-30" x="127.246094"/>
      </g>
     </g>
    </g>
    <g id="ytick_5">
     <g id="line2d_13">
      <g>
       <use xlink:href="#m812f98335f" x="471.555601" y="435.08689" style="stroke: #000000; stroke-width: 0.8"/>
      </g>
     </g>
     <g id="text_13">
      <!-- 800 -->
      <g transform="translate(445.468101 438.886109) scale(0.1 -0.1)">
       <defs>
        <path id="DejaVuSans-38" d="M 2034 2216 
Q 1584 2216 1326 1975 
Q 1069 1734 1069 1313 
Q 1069 891 1326 650 
Q 1584 409 2034 409 
Q 2484 409 2743 651 
Q 3003 894 3003 1313 
Q 3003 1734 2745 1975 
Q 2488 2216 2034 2216 
z
M 1403 2484 
Q 997 2584 770 2862 
Q 544 3141 544 3541 
Q 544 4100 942 4425 
Q 1341 4750 2034 4750 
Q 2731 4750 3128 4425 
Q 3525 4100 3525 3541 
Q 3525 3141 3298 2862 
Q 3072 2584 2669 2484 
Q 3125 2378 3379 2068 
Q 3634 1759 3634 1313 
Q 3634 634 3220 271 
Q 2806 -91 2034 -91 
Q 1263 -91 848 271 
Q 434 634 434 1313 
Q 434 1759 690 2068 
Q 947 2378 1403 2484 
z
M 1172 3481 
Q 1172 3119 1398 2916 
Q 1625 2713 2034 2713 
Q 2441 2713 2670 2916 
Q 2900 3119 2900 3481 
Q 2900 3844 2670 4047 
Q 2441 4250 2034 4250 
Q 1625 4250 1398 4047 
Q 1172 3844 1172 3481 
z
" transform="scale(0.015625)"/>
       </defs>
       <use xlink:href="#DejaVuSans-38"/>
       <use xlink:href="#DejaVuSans-30" x="63.623047"/>
       <use xlink:href="#DejaVuSans-30" x="127.246094"/>
      </g>
     </g>
    </g>
    <g id="ytick_6">
     <g id="line2d_14">
      <g>
       <use xlink:href="#m812f98335f" x="471.555601" y="312.903031" style="stroke: #000000; stroke-width: 0.8"/>
      </g>
     </g>
     <g id="text_14">
      <!-- 900 -->
      <g transform="translate(445.468101 316.70225) scale(0.1 -0.1)">
       <defs>
        <path id="DejaVuSans-39" d="M 703 97 
L 703 672 
Q 941 559 1184 500 
Q 1428 441 1663 441 
Q 2288 441 2617 861 
Q 2947 1281 2994 2138 
Q 2813 1869 2534 1725 
Q 2256 1581 1919 1581 
Q 1219 1581 811 2004 
Q 403 2428 403 3163 
Q 403 3881 828 4315 
Q 1253 4750 1959 4750 
Q 2769 4750 3195 4129 
Q 3622 3509 3622 2328 
Q 3622 1225 3098 567 
Q 2575 -91 1691 -91 
Q 1453 -91 1209 -44 
Q 966 3 703 97 
z
M 1959 2075 
Q 2384 2075 2632 2365 
Q 2881 2656 2881 3163 
Q 2881 3666 2632 3958 
Q 2384 4250 1959 4250 
Q 1534 4250 1286 3958 
Q 1038 3666 1038 3163 
Q 1038 2656 1286 2365 
Q 1534 2075 1959 2075 
z
" transform="scale(0.015625)"/>
       </defs>
       <use xlink:href="#DejaVuSans-39"/>
       <use xlink:href="#DejaVuSans-30" x="63.623047"/>
       <use xlink:href="#DejaVuSans-30" x="127.246094"/>
      </g>
     </g>
    </g>
    <g id="ytick_7">
     <g id="line2d_15">
      <g>
       <use xlink:href="#m812f98335f" x="471.555601" y="190.719173" style="stroke: #000000; stroke-width: 0.8"/>
      </g>
     </g>
     <g id="text_15">
      <!-- 1000 -->
      <g transform="translate(439.105601 194.518391) scale(0.1 -0.1)">
       <use xlink:href="#DejaVuSans-31"/>
       <use xlink:href="#DejaVuSans-30" x="63.623047"/>
       <use xlink:href="#DejaVuSans-30" x="127.246094"/>
       <use xlink:href="#DejaVuSans-30" x="190.869141"/>
      </g>
     </g>
    </g>
   </g>
   <g id="LineCollection_1">
    <path d="M 815.98521 923.4 
L 854.069043 909.400643 
L 885.773601 896.044639 
L 911.914515 883.131109 
L 930.967079 871.892949 
L 933.256583 870.379841 
L 947.65444 859.770127 
L 950.466398 857.383725 
L 960.7749 847.340334 
L 962.458744 845.542195 
L 963.9709 843.597453 
L 970.706817 834.063134 
L 972.368999 831.391199 
L 973.707538 828.543322 
L 978.139969 817.17815 
L 978.728923 814.828301 
L 979.103927 812.434971 
L 980.222181 801.364235 
L 980.164518 798.958778 
L 979.891982 796.568115 
L 978.566231 788.262284 
L 977.90568 785.247793 
L 976.903974 782.328878 
L 972.64096 772.179352 
L 971.452291 770.109366 
L 966.566574 762.413961 
L 964.487361 759.569789 
L 958.259248 752.127889 
L 956.518505 750.239112 
L 947.818304 741.752163 
L 938.562513 733.864462 
L 928.888727 726.416689 
L 918.916057 719.303139 
L 908.750482 712.451229 
L 898.48576 705.809173 
L 877.972176 693.010312 
L 838.454734 668.672206 
L 819.968223 656.921232 
L 802.414862 645.34618 
L 785.718098 633.884459 
L 769.737308 622.484911 
L 754.298823 611.108352 
L 739.222771 599.729647 
L 709.52456 576.935173 
L 679.763519 554.164469 
L 620.570268 509.294618 
L 606.633634 498.284261 
L 599.960806 492.822705 
L 593.537384 487.396442 
L 587.405705 482.01243 
L 581.60989 476.680151 
L 576.195037 471.412267 
L 571.206022 466.225281 
L 566.685762 461.140069 
L 562.672753 456.181993 
L 559.197748 451.380113 
L 556.279661 446.764728 
L 553.921296 442.362279 
L 552.10642 438.186883 
L 550.800765 434.228901 
L 549.959867 430.443406 
L 549.544587 426.744335 
L 549.54037 423.010586 
L 549.971426 419.105665 
L 550.901609 414.904151 
L 552.421108 410.313387 
L 554.626263 405.282216 
L 557.601779 399.796882 
L 561.410402 393.869961 
L 566.08991 387.528509 
L 571.654634 380.804878 
L 578.098766 373.73099 
L 585.399693 366.335419 
L 593.520642 358.642306 
L 602.412478 350.67128 
L 612.014798 342.437818 
L 622.256504 333.953723 
L 644.321493 316.264745 
L 667.904208 297.576203 
L 679.970448 287.85366 
L 692.037877 277.869213 
L 703.965405 267.597677 
L 715.601988 256.998455 
L 726.785016 246.007095 
L 737.334737 234.522361 
L 747.038633 222.388601 
L 754.031774 212.038255 
L 755.613162 209.379777 
L 761.898976 197.111428 
L 762.625247 195.214736 
L 766.197365 184.714219 
L 766.197365 184.714219 
" clip-path="url(#p77367ed119)" style="fill: none; stroke: #1f77b4; stroke-width: 1.5"/>
    <path d="M 806.728408 898.163714 
L 843.666856 884.614497 
L 873.93373 871.912172 
L 898.257817 859.978288 
L 917.310381 848.740128 
L 931.708238 838.130415 
L 942.016741 828.087023 
L 948.752657 818.552704 
L 952.386966 809.474813 
L 953.347549 800.805053 
L 952.021799 792.499222 
L 948.759132 784.51697 
L 943.873415 776.821564 
L 937.645302 769.379664 
L 930.324486 762.161103 
L 922.131863 755.138678 
L 913.261618 748.287948 
L 903.883217 741.58704 
L 894.143332 735.016461 
L 884.167678 728.558922 
L 874.062765 722.19916 
L 863.917591 715.923783 
L 853.80524 709.721104 
L 843.784414 703.580996 
L 833.900894 697.494745 
L 824.188923 691.454918 
L 814.672522 685.455228 
L 805.366732 679.490414 
L 796.278798 673.556121 
L 787.40927 667.648794 
L 778.753054 661.765568 
L 770.300393 655.904172 
L 762.037778 650.062836 
L 753.94881 644.240204 
L 746.014993 638.435251 
L 738.216469 632.647209 
L 730.532699 626.875498 
L 722.943085 621.119655 
L 715.427535 615.37928 
L 707.966978 609.653978 
L 700.543826 603.943307 
L 693.142382 598.246737 
L 685.749199 592.563605 
L 678.353396 586.893081 
L 670.946914 581.234133 
L 663.524745 575.585504 
L 656.085096 569.945684 
L 648.629523 564.312892 
L 641.163023 558.685059 
L 633.694074 553.05982 
L 626.23465 547.434499 
L 618.80019 541.806108 
L 611.409526 536.171347 
L 604.08479 530.5266 
L 596.85127 524.867945 
L 589.737248 519.191161 
L 582.773793 513.491734 
L 575.994536 507.764875 
L 569.435407 502.005535 
L 563.13435 496.208422 
L 557.13101 490.368022 
L 551.466391 484.478624 
L 546.182502 478.534341 
L 541.321963 472.529141 
L 536.927608 466.456874 
L 533.042058 460.311302 
L 529.707273 454.086133 
L 526.9641 447.775052 
L 524.85179 441.371759 
L 523.407509 434.870004 
L 522.665837 428.263621 
L 522.65825 421.546574 
L 523.412596 414.712987 
L 524.952556 407.75719 
L 527.297104 400.673759 
L 530.459957 393.457552 
L 534.449019 386.103756 
L 539.26582 378.607925 
L 544.90496 370.966023 
L 551.35354 363.174466 
L 558.590601 355.230159 
L 566.586563 347.130542 
L 575.302666 338.87363 
L 584.690413 330.458048 
L 594.691018 321.883078 
L 605.234869 313.148691 
L 616.240984 304.255588 
L 627.61649 295.205236 
L 639.256105 285.999901 
L 651.041633 276.642687 
L 662.84147 267.137563 
L 674.510134 257.4894 
L 685.887796 247.703995 
L 696.799839 237.788101 
L 707.056432 227.749452 
L 716.452123 217.59679 
L 724.765454 207.339879 
L 731.758594 196.989534 
L 737.177006 186.557627 
L 740.749124 176.05711 
" clip-path="url(#p77367ed119)" style="fill: none; stroke: #8c564b; stroke-width: 1.5"/>
    <path d="M 797.471605 872.927428 
L 833.832208 859.590167 
L 862.803095 847.431739 
L 885.490712 836.30074 
L 902.47026 826.285349 
L 914.274008 817.587223 
L 921.488531 810.558241 
L 924.973378 805.625632 
L 926.072764 802.879551 
L 926.230589 801.4551 
L 925.966208 799.798756 
L 924.78277 796.903425 
L 922.126467 792.719529 
L 917.856554 787.61746 
L 912.118856 781.959904 
L 905.158594 775.993815 
L 897.227178 769.868168 
L 888.550465 763.668619 
L 879.322002 757.443048 
L 869.704473 751.217334 
L 849.819972 738.810859 
L 809.853179 714.193541 
L 790.669991 701.997398 
L 772.299393 689.880532 
L 754.78311 677.853488 
L 738.076133 665.933905 
L 722.0723 654.139635 
L 706.626771 642.481688 
L 676.753793 619.553374 
L 647.265784 596.991236 
L 587.522432 551.698441 
L 572.711855 539.992471 
L 565.427237 534.025986 
L 558.258602 527.963765 
L 551.235585 521.787471 
L 544.390272 515.475441 
L 537.757546 509.002062 
L 531.375832 502.337179 
L 525.288427 495.445762 
L 519.545578 488.28819 
L 514.207395 480.821776 
L 509.347278 473.004448 
L 505.054912 464.801524 
L 502.311739 458.490443 
L 501.436736 456.195989 
L 499.324425 449.792697 
L 498.61097 447.200818 
L 497.166689 440.699063 
L 496.694871 437.868923 
L 495.953199 431.262541 
L 495.785405 428.293981 
L 495.777819 421.576933 
L 495.940096 418.597211 
L 496.694441 411.763624 
L 497.167646 408.902556 
L 498.707606 401.94676 
L 499.433644 399.310674 
L 501.778192 392.227242 
L 502.677609 389.88307 
L 506.831943 380.640552 
L 511.835093 371.572105 
L 517.636735 362.647311 
L 524.196929 353.827296 
L 531.482259 345.072236 
L 539.461244 336.345608 
L 548.100207 327.616107 
L 557.359961 318.858189 
L 567.193294 310.051937 
L 577.543078 301.182676 
L 588.340806 292.240579 
L 610.880904 274.170058 
L 645.844998 246.311905 
L 657.180142 236.939511 
L 668.081801 227.563494 
L 678.353629 218.22937 
L 687.779287 209.004 
L 696.124678 199.986256 
L 703.146745 191.322495 
L 708.618113 183.224481 
L 712.384268 175.973615 
L 715.300883 167.4 
L 715.300883 167.4 
" clip-path="url(#p77367ed119)" style="fill: none; stroke: #17becf; stroke-width: 1.5"/>
   </g>
   <g id="patch_3">
    <path d="M 471.555601 961.2 
L 471.555601 129.6 
" style="fill: none; stroke: #000000; stroke-width: 0.8; stroke-linejoin: miter; stroke-linecap: square"/>
   </g>
   <g id="patch_4">
    <path d="M 1004.444399 961.2 
L 1004.444399 129.6 
" style="fill: none; stroke: #000000; stroke-width: 0.8; stroke-linejoin: miter; stroke-linecap: square"/>
   </g>
   <g id="patch_5">
    <path d="M 471.555601 961.2 
L 1004.444399 961.2 
" style="fill: none; stroke: #000000; stroke-width: 0.8; stroke-linejoin: miter; stroke-linecap: square"/>
   </g>
   <g id="patch_6">
    <path d="M 471.555601 129.6 
L 1004.444399 129.6 
" style="fill: none; stroke: #000000; stroke-width: 0.8; stroke-linejoin: miter; stroke-linecap: square"/>
   </g>
  </g>
 </g>
 <defs>
  <clipPath id="p77367ed119">
   <rect x="471.555601" y="129.6" width="532.888799" height="831.6"/>
  </clipPath>
 </defs>
</svg>
