<?xml version="1.0" encoding="utf-8" standalone="no"?>
<!DOCTYPE svg PUBLIC "-//W3C//DTD SVG 1.1//EN"
  "http://www.w3.org/Graphics/SVG/1.1/DTD/svg11.dtd">
<svg xmlns:xlink="http://www.w3.org/1999/xlink" width="1440pt" height="1080pt" viewBox="0 0 1440 1080" xmlns="http://www.w3.org/2000/svg" version="1.1">
 <metadata>
  <rdf:RDF xmlns:dc="http://purl.org/dc/elements/1.1/" xmlns:cc="http://creativecommons.org/ns#" xmlns:rdf="http://www.w3.org/1999/02/22-rdf-syntax-ns#">
   <cc:Work>
    <dc:type rdf:resource="http://purl.org/dc/dcmitype/StillImage"/>
    <dc:date>2023-12-11T12:06:51.400956</dc:date>
    <dc:format>image/svg+xml</dc:format>
    <dc:creator>
     <cc:Agent>
      <dc:title>Matplotlib v3.7.1, https://matplotlib.org/</dc:title>
     </cc:Agent>
    </dc:creator>
   </cc:Work>
  </rdf:RDF>
 </metadata>
 <defs>
  <style type="text/css">*{stroke-linejoin: round; stroke-linecap: butt}</style>
 </defs>
 <g id="figure_1">
  <g id="patch_1">
   <path d="M 0 1080 
L 1440 1080 
L 1440 0 
L 0 0 
z
" style="fill: #ffffff"/>
  </g>
  <g id="axes_1">
   <g id="patch_2">
    <path d="M 634.645789 961.2 
L 841.354211 961.2 
L 841.354211 129.6 
L 634.645789 129.6 
z
" style="fill: #ffffff"/>
   </g>
   <g id="matplotlib.axis_1">
    <g id="xtick_1">
     <g id="line2d_1">
      <defs>
       <path id="m266b69a135" d="M 0 0 
L 0 3.5 
" style="stroke: #000000; stroke-width: 0.8"/>
      </defs>
      <g>
       <use xlink:href="#m266b69a135" x="636.195102" y="961.2" style="stroke: #000000; stroke-width: 0.8"/>
      </g>
     </g>
     <g id="text_1">
      <!-- 1100 -->
      <g transform="translate(623.470102 975.798437) scale(0.1 -0.1)">
       <defs>
        <path id="DejaVuSans-31" d="M 794 531 
L 1825 531 
L 1825 4091 
L 703 3866 
L 703 4441 
L 1819 4666 
L 2450 4666 
L 2450 531 
L 3481 531 
L 3481 0 
L 794 0 
L 794 531 
z
" transform="scale(0.015625)"/>
        <path id="DejaVuSans-30" d="M 2034 4250 
Q 1547 4250 1301 3770 
Q 1056 3291 1056 2328 
Q 1056 1369 1301 889 
Q 1547 409 2034 409 
Q 2525 409 2770 889 
Q 3016 1369 3016 2328 
Q 3016 3291 2770 3770 
Q 2525 4250 2034 4250 
z
M 2034 4750 
Q 2819 4750 3233 4129 
Q 3647 3509 3647 2328 
Q 3647 1150 3233 529 
Q 2819 -91 2034 -91 
Q 1250 -91 836 529 
Q 422 1150 422 2328 
Q 422 3509 836 4129 
Q 1250 4750 2034 4750 
z
" transform="scale(0.015625)"/>
       </defs>
       <use xlink:href="#DejaVuSans-31"/>
       <use xlink:href="#DejaVuSans-31" x="63.623047"/>
       <use xlink:href="#DejaVuSans-30" x="127.246094"/>
       <use xlink:href="#DejaVuSans-30" x="190.869141"/>
      </g>
     </g>
    </g>
    <g id="xtick_2">
     <g id="line2d_2">
      <g>
       <use xlink:href="#m266b69a135" x="674.884835" y="961.2" style="stroke: #000000; stroke-width: 0.8"/>
      </g>
     </g>
     <g id="text_2">
      <!-- 1150 -->
      <g transform="translate(662.159835 975.798437) scale(0.1 -0.1)">
       <defs>
        <path id="DejaVuSans-35" d="M 691 4666 
L 3169 4666 
L 3169 4134 
L 1269 4134 
L 1269 2991 
Q 1406 3038 1543 3061 
Q 1681 3084 1819 3084 
Q 2600 3084 3056 2656 
Q 3513 2228 3513 1497 
Q 3513 744 3044 326 
Q 2575 -91 1722 -91 
Q 1428 -91 1123 -41 
Q 819 9 494 109 
L 494 744 
Q 775 591 1075 516 
Q 1375 441 1709 441 
Q 2250 441 2565 725 
Q 2881 1009 2881 1497 
Q 2881 1984 2565 2268 
Q 2250 2553 1709 2553 
Q 1456 2553 1204 2497 
Q 953 2441 691 2322 
L 691 4666 
z
" transform="scale(0.015625)"/>
       </defs>
       <use xlink:href="#DejaVuSans-31"/>
       <use xlink:href="#DejaVuSans-31" x="63.623047"/>
       <use xlink:href="#DejaVuSans-35" x="127.246094"/>
       <use xlink:href="#DejaVuSans-30" x="190.869141"/>
      </g>
     </g>
    </g>
    <g id="xtick_3">
     <g id="line2d_3">
      <g>
       <use xlink:href="#m266b69a135" x="713.574567" y="961.2" style="stroke: #000000; stroke-width: 0.8"/>
      </g>
     </g>
     <g id="text_3">
      <!-- 1200 -->
      <g transform="translate(700.849567 975.798437) scale(0.1 -0.1)">
       <defs>
        <path id="DejaVuSans-32" d="M 1228 531 
L 3431 531 
L 3431 0 
L 469 0 
L 469 531 
Q 828 903 1448 1529 
Q 2069 2156 2228 2338 
Q 2531 2678 2651 2914 
Q 2772 3150 2772 3378 
Q 2772 3750 2511 3984 
Q 2250 4219 1831 4219 
Q 1534 4219 1204 4116 
Q 875 4013 500 3803 
L 500 4441 
Q 881 4594 1212 4672 
Q 1544 4750 1819 4750 
Q 2544 4750 2975 4387 
Q 3406 4025 3406 3419 
Q 3406 3131 3298 2873 
Q 3191 2616 2906 2266 
Q 2828 2175 2409 1742 
Q 1991 1309 1228 531 
z
" transform="scale(0.015625)"/>
       </defs>
       <use xlink:href="#DejaVuSans-31"/>
       <use xlink:href="#DejaVuSans-32" x="63.623047"/>
       <use xlink:href="#DejaVuSans-30" x="127.246094"/>
       <use xlink:href="#DejaVuSans-30" x="190.869141"/>
      </g>
     </g>
    </g>
    <g id="xtick_4">
     <g id="line2d_4">
      <g>
       <use xlink:href="#m266b69a135" x="752.2643" y="961.2" style="stroke: #000000; stroke-width: 0.8"/>
      </g>
     </g>
     <g id="text_4">
      <!-- 1250 -->
      <g transform="translate(739.5393 975.798437) scale(0.1 -0.1)">
       <use xlink:href="#DejaVuSans-31"/>
       <use xlink:href="#DejaVuSans-32" x="63.623047"/>
       <use xlink:href="#DejaVuSans-35" x="127.246094"/>
       <use xlink:href="#DejaVuSans-30" x="190.869141"/>
      </g>
     </g>
    </g>
    <g id="xtick_5">
     <g id="line2d_5">
      <g>
       <use xlink:href="#m266b69a135" x="790.954033" y="961.2" style="stroke: #000000; stroke-width: 0.8"/>
      </g>
     </g>
     <g id="text_5">
      <!-- 1300 -->
      <g transform="translate(778.229033 975.798437) scale(0.1 -0.1)">
       <defs>
        <path id="DejaVuSans-33" d="M 2597 2516 
Q 3050 2419 3304 2112 
Q 3559 1806 3559 1356 
Q 3559 666 3084 287 
Q 2609 -91 1734 -91 
Q 1441 -91 1130 -33 
Q 819 25 488 141 
L 488 750 
Q 750 597 1062 519 
Q 1375 441 1716 441 
Q 2309 441 2620 675 
Q 2931 909 2931 1356 
Q 2931 1769 2642 2001 
Q 2353 2234 1838 2234 
L 1294 2234 
L 1294 2753 
L 1863 2753 
Q 2328 2753 2575 2939 
Q 2822 3125 2822 3475 
Q 2822 3834 2567 4026 
Q 2313 4219 1838 4219 
Q 1578 4219 1281 4162 
Q 984 4106 628 3988 
L 628 4550 
Q 988 4650 1302 4700 
Q 1616 4750 1894 4750 
Q 2613 4750 3031 4423 
Q 3450 4097 3450 3541 
Q 3450 3153 3228 2886 
Q 3006 2619 2597 2516 
z
" transform="scale(0.015625)"/>
       </defs>
       <use xlink:href="#DejaVuSans-31"/>
       <use xlink:href="#DejaVuSans-33" x="63.623047"/>
       <use xlink:href="#DejaVuSans-30" x="127.246094"/>
       <use xlink:href="#DejaVuSans-30" x="190.869141"/>
      </g>
     </g>
    </g>
    <g id="xtick_6">
     <g id="line2d_6">
      <g>
       <use xlink:href="#m266b69a135" x="829.643766" y="961.2" style="stroke: #000000; stroke-width: 0.8"/>
      </g>
     </g>
     <g id="text_6">
      <!-- 1350 -->
      <g transform="translate(816.918766 975.798437) scale(0.1 -0.1)">
       <use xlink:href="#DejaVuSans-31"/>
       <use xlink:href="#DejaVuSans-33" x="63.623047"/>
       <use xlink:href="#DejaVuSans-35" x="127.246094"/>
       <use xlink:href="#DejaVuSans-30" x="190.869141"/>
      </g>
     </g>
    </g>
   </g>
   <g id="matplotlib.axis_2">
    <g id="ytick_1">
     <g id="line2d_7">
      <defs>
       <path id="m16067c742e" d="M 0 0 
L -3.5 0 
" style="stroke: #000000; stroke-width: 0.8"/>
      </defs>
      <g>
       <use xlink:href="#m16067c742e" x="634.645789" y="833.097962" style="stroke: #000000; stroke-width: 0.8"/>
      </g>
     </g>
     <g id="text_7">
      <!-- 200 -->
      <g transform="translate(608.558289 836.89718) scale(0.1 -0.1)">
       <use xlink:href="#DejaVuSans-32"/>
       <use xlink:href="#DejaVuSans-30" x="63.623047"/>
       <use xlink:href="#DejaVuSans-30" x="127.246094"/>
      </g>
     </g>
    </g>
    <g id="ytick_2">
     <g id="line2d_8">
      <g>
       <use xlink:href="#m16067c742e" x="634.645789" y="678.33903" style="stroke: #000000; stroke-width: 0.8"/>
      </g>
     </g>
     <g id="text_8">
      <!-- 400 -->
      <g transform="translate(608.558289 682.138248) scale(0.1 -0.1)">
       <defs>
        <path id="DejaVuSans-34" d="M 2419 4116 
L 825 1625 
L 2419 1625 
L 2419 4116 
z
M 2253 4666 
L 3047 4666 
L 3047 1625 
L 3713 1625 
L 3713 1100 
L 3047 1100 
L 3047 0 
L 2419 0 
L 2419 1100 
L 313 1100 
L 313 1709 
L 2253 4666 
z
" transform="scale(0.015625)"/>
       </defs>
       <use xlink:href="#DejaVuSans-34"/>
       <use xlink:href="#DejaVuSans-30" x="63.623047"/>
       <use xlink:href="#DejaVuSans-30" x="127.246094"/>
      </g>
     </g>
    </g>
    <g id="ytick_3">
     <g id="line2d_9">
      <g>
       <use xlink:href="#m16067c742e" x="634.645789" y="523.580098" style="stroke: #000000; stroke-width: 0.8"/>
      </g>
     </g>
     <g id="text_9">
      <!-- 600 -->
      <g transform="translate(608.558289 527.379316) scale(0.1 -0.1)">
       <defs>
        <path id="DejaVuSans-36" d="M 2113 2584 
Q 1688 2584 1439 2293 
Q 1191 2003 1191 1497 
Q 1191 994 1439 701 
Q 1688 409 2113 409 
Q 2538 409 2786 701 
Q 3034 994 3034 1497 
Q 3034 2003 2786 2293 
Q 2538 2584 2113 2584 
z
M 3366 4563 
L 3366 3988 
Q 3128 4100 2886 4159 
Q 2644 4219 2406 4219 
Q 1781 4219 1451 3797 
Q 1122 3375 1075 2522 
Q 1259 2794 1537 2939 
Q 1816 3084 2150 3084 
Q 2853 3084 3261 2657 
Q 3669 2231 3669 1497 
Q 3669 778 3244 343 
Q 2819 -91 2113 -91 
Q 1303 -91 875 529 
Q 447 1150 447 2328 
Q 447 3434 972 4092 
Q 1497 4750 2381 4750 
Q 2619 4750 2861 4703 
Q 3103 4656 3366 4563 
z
" transform="scale(0.015625)"/>
       </defs>
       <use xlink:href="#DejaVuSans-36"/>
       <use xlink:href="#DejaVuSans-30" x="63.623047"/>
       <use xlink:href="#DejaVuSans-30" x="127.246094"/>
      </g>
     </g>
    </g>
    <g id="ytick_4">
     <g id="line2d_10">
      <g>
       <use xlink:href="#m16067c742e" x="634.645789" y="368.821166" style="stroke: #000000; stroke-width: 0.8"/>
      </g>
     </g>
     <g id="text_10">
      <!-- 800 -->
      <g transform="translate(608.558289 372.620384) scale(0.1 -0.1)">
       <defs>
        <path id="DejaVuSans-38" d="M 2034 2216 
Q 1584 2216 1326 1975 
Q 1069 1734 1069 1313 
Q 1069 891 1326 650 
Q 1584 409 2034 409 
Q 2484 409 2743 651 
Q 3003 894 3003 1313 
Q 3003 1734 2745 1975 
Q 2488 2216 2034 2216 
z
M 1403 2484 
Q 997 2584 770 2862 
Q 544 3141 544 3541 
Q 544 4100 942 4425 
Q 1341 4750 2034 4750 
Q 2731 4750 3128 4425 
Q 3525 4100 3525 3541 
Q 3525 3141 3298 2862 
Q 3072 2584 2669 2484 
Q 3125 2378 3379 2068 
Q 3634 1759 3634 1313 
Q 3634 634 3220 271 
Q 2806 -91 2034 -91 
Q 1263 -91 848 271 
Q 434 634 434 1313 
Q 434 1759 690 2068 
Q 947 2378 1403 2484 
z
M 1172 3481 
Q 1172 3119 1398 2916 
Q 1625 2713 2034 2713 
Q 2441 2713 2670 2916 
Q 2900 3119 2900 3481 
Q 2900 3844 2670 4047 
Q 2441 4250 2034 4250 
Q 1625 4250 1398 4047 
Q 1172 3844 1172 3481 
z
" transform="scale(0.015625)"/>
       </defs>
       <use xlink:href="#DejaVuSans-38"/>
       <use xlink:href="#DejaVuSans-30" x="63.623047"/>
       <use xlink:href="#DejaVuSans-30" x="127.246094"/>
      </g>
     </g>
    </g>
    <g id="ytick_5">
     <g id="line2d_11">
      <g>
       <use xlink:href="#m16067c742e" x="634.645789" y="214.062234" style="stroke: #000000; stroke-width: 0.8"/>
      </g>
     </g>
     <g id="text_11">
      <!-- 1000 -->
      <g transform="translate(602.195789 217.861452) scale(0.1 -0.1)">
       <use xlink:href="#DejaVuSans-31"/>
       <use xlink:href="#DejaVuSans-30" x="63.623047"/>
       <use xlink:href="#DejaVuSans-30" x="127.246094"/>
       <use xlink:href="#DejaVuSans-30" x="190.869141"/>
      </g>
     </g>
    </g>
   </g>
   <g id="LineCollection_1">
    <path d="M 683.788723 175.607055 
L 685.504335 184.501379 
L 685.859256 192.033173 
L 685.276277 200.021332 
L 683.841192 208.44156 
L 681.667878 217.21422 
L 678.894381 226.248449 
L 675.669053 235.46331 
L 672.138789 244.794325 
L 660.979788 273.230171 
L 657.461915 282.754938 
L 654.212364 292.263608 
L 651.309507 301.750421 
L 648.821817 311.209155 
L 646.808188 320.630676 
L 645.317458 330.000855 
L 644.387137 339.299314 
L 644.041626 348.499498 
L 644.29054 357.570339 
L 645.12788 366.479313 
L 646.532648 375.196203 
L 648.470981 383.696565 
L 650.899381 391.964042 
L 653.768289 399.991142 
L 657.025288 407.778617 
L 660.617515 415.333907 
L 664.493182 422.669223 
L 668.602346 429.799687 
L 672.897179 436.741783 
L 677.331962 443.512195 
L 681.862974 450.127014 
L 691.048279 462.948561 
L 708.931498 487.387916 
L 717.086413 499.123752 
L 720.868902 504.887314 
L 724.427834 510.588449 
L 727.747568 516.232441 
L 730.816235 521.825016 
L 733.625712 527.372803 
L 736.171449 532.883756 
L 738.45213 538.367502 
L 740.469183 543.835539 
L 742.226189 549.301225 
L 743.728248 554.779518 
L 744.981415 560.286487 
L 745.992273 565.838618 
L 746.767734 571.452044 
L 747.315052 577.141782 
L 747.642059 582.921101 
L 747.757524 588.801096 
L 747.671573 594.790486 
L 747.396088 600.895637 
L 746.945024 607.120762 
L 746.334607 613.468228 
L 744.712366 626.532654 
L 742.70517 640.084783 
L 739.421659 661.387551 
L 737.405731 676.181027 
L 736.54607 683.7391 
L 735.827871 691.399671 
L 735.282296 699.157671 
L 734.939148 707.006718 
L 734.826149 714.93895 
L 734.968146 722.944996 
L 735.386275 731.014118 
L 736.097159 739.134569 
L 737.112208 747.294127 
L 738.437086 755.480785 
L 740.0714 763.683491 
L 742.008594 771.892828 
L 744.236032 780.101561 
L 746.735195 788.304958 
L 749.481915 796.500868 
L 752.446592 804.68957 
L 755.594334 812.873435 
L 762.273448 829.243693 
L 772.556194 854.041321 
L 775.807525 862.379932 
L 778.853938 870.757025 
L 781.622106 879.17866 
L 784.036759 887.652818 
L 786.021713 896.192075 
L 787.500171 904.817633 
L 788.393369 913.564464 
L 788.639426 923.4 
L 788.639426 923.4 
" clip-path="url(#p18d33d36af)" style="fill: none; stroke: #1f77b4; stroke-width: 1.5"/>
    <path d="M 705.062826 171.503527 
L 707.07329 181.926465 
L 707.562724 192.312762 
L 706.809335 202.635933 
L 705.064647 212.872726 
L 702.55502 223.002924 
L 699.48312 233.009155 
L 696.029341 242.876708 
L 692.353178 252.593356 
L 688.594559 262.14918 
L 684.875127 271.536409 
L 681.299477 280.749255 
L 677.956354 289.783763 
L 674.919799 298.637661 
L 672.250258 307.310218 
L 669.99565 315.802107 
L 668.192387 324.115277 
L 666.866357 332.252824 
L 666.033864 340.218872 
L 665.702536 348.01846 
L 665.87218 355.65743 
L 666.535611 363.142328 
L 667.679435 370.480297 
L 669.284803 377.67899 
L 671.328116 384.746479 
L 673.781705 391.691168 
L 676.614475 398.521719 
L 679.792502 405.246971 
L 683.279615 411.875876 
L 687.037926 418.417429 
L 691.028339 424.880609 
L 695.211025 431.274323 
L 699.54586 437.607351 
L 703.992836 443.8883 
L 708.512444 450.12556 
L 713.066022 456.327262 
L 717.616077 462.501245 
L 722.126579 468.65502 
L 726.563225 474.795745 
L 730.893678 480.930199 
L 735.087777 487.064761 
L 739.117727 493.205391 
L 742.958254 499.357619 
L 746.586742 505.526533 
L 749.983349 511.716771 
L 753.13109 517.932516 
L 756.015906 524.1775 
L 758.626707 530.455 
L 760.955394 536.767845 
L 762.996859 543.118425 
L 764.74897 549.508704 
L 766.212528 555.940228 
L 767.391213 562.414144 
L 768.291507 568.93122 
L 768.922602 575.491864 
L 769.296287 582.09615 
L 769.426827 588.743838 
L 769.330813 595.434413 
L 769.027012 602.167103 
L 768.536191 608.94092 
L 767.88093 615.754692 
L 767.085429 622.607096 
L 766.17529 629.496702 
L 765.177297 636.422006 
L 764.11918 643.38148 
L 763.029372 650.373605 
L 761.93675 657.396924 
L 760.870372 664.450083 
L 759.859205 671.531882 
L 758.93184 678.641318 
L 758.116206 685.777642 
L 757.43927 692.940404 
L 756.92674 700.129506 
L 756.602753 707.345256 
L 756.489564 714.588423 
L 756.607227 721.860287 
L 756.973277 729.162696 
L 757.602404 736.498123 
L 758.506129 743.869721 
L 759.692471 751.281378 
L 761.165625 758.737777 
L 762.925626 766.24445 
L 764.968022 773.807836 
L 767.283546 781.43534 
L 769.857787 789.135389 
L 772.670864 796.917489 
L 775.697106 804.792284 
L 778.90473 812.771611 
L 782.255527 820.868557 
L 785.70455 829.097515 
L 789.199807 837.474241 
L 792.681966 846.015909 
L 796.084055 854.741164 
L 799.331179 863.670177 
L 802.340244 872.824697 
L 805.01968 882.228105 
L 807.269187 891.905464 
L 808.979478 901.883568 
L 810.032039 912.190993 
L 810.2989 922.858142 
" clip-path="url(#p18d33d36af)" style="fill: none; stroke: #8c564b; stroke-width: 1.5"/>
    <path d="M 726.33693 167.4 
L 728.347393 177.822937 
L 728.715524 180.906616 
L 729.204959 191.292913 
L 729.171505 193.889779 
L 728.167605 206.276089 
L 726.095147 218.082763 
L 723.267201 229.361536 
L 719.932904 240.166861 
L 716.293768 250.543482 
L 712.515808 260.523979 
L 701.559746 288.428918 
L 698.366363 297.058767 
L 695.525938 305.340793 
L 693.082311 313.279423 
L 691.064041 320.881157 
L 689.485836 328.156793 
L 688.3506 335.123473 
L 687.652227 341.806144 
L 687.379003 348.237948 
L 687.517161 354.459144 
L 688.053883 360.514501 
L 688.979036 366.449623 
L 690.285298 372.307085 
L 691.966851 378.123308 
L 694.017266 383.926842 
L 696.427338 389.738157 
L 699.183476 395.57062 
L 702.266898 401.432119 
L 705.653591 407.326851 
L 709.314845 413.2569 
L 713.218107 419.223482 
L 717.327951 425.227806 
L 726.016918 437.357458 
L 744.263515 462.300701 
L 748.779381 468.702035 
L 753.201582 475.1771 
L 757.496866 481.732219 
L 761.633513 488.373034 
L 765.581443 495.104069 
L 769.312388 501.928274 
L 772.800149 508.846565 
L 776.020975 515.857427 
L 778.954051 522.956634 
L 781.582087 530.137163 
L 783.891929 537.389336 
L 785.87513 544.701234 
L 787.528367 552.059322 
L 788.85364 559.449242 
L 789.858206 566.856633 
L 790.554252 574.267896 
L 790.958362 581.670775 
L 791.090847 589.05473 
L 790.97504 596.411071 
L 790.636609 603.732905 
L 790.102945 611.014932 
L 789.402641 618.253165 
L 788.565067 625.444626 
L 786.597387 639.678712 
L 781.326472 674.464473 
L 779.666392 688.027275 
L 779.032907 694.730279 
L 778.558402 701.386007 
L 778.261408 708.000583 
L 778.158553 714.582428 
L 778.264698 721.142463 
L 778.593118 727.694168 
L 779.155678 734.253444 
L 779.962948 740.838273 
L 781.024166 747.468213 
L 782.347006 754.163797 
L 783.937131 760.945922 
L 785.797533 767.83535 
L 787.927734 774.852387 
L 790.322902 782.016795 
L 792.972971 789.34795 
L 795.861812 796.865203 
L 802.256512 812.538526 
L 812.745093 837.836829 
L 816.4457 847.336448 
L 819.914038 856.90465 
L 823.177102 866.887378 
L 826.123283 877.322563 
L 828.624012 888.245155 
L 830.533638 899.682527 
L 831.691512 911.649135 
L 831.958374 922.316284 
L 831.958374 922.316284 
" clip-path="url(#p18d33d36af)" style="fill: none; stroke: #17becf; stroke-width: 1.5"/>
   </g>
   <g id="patch_3">
    <path d="M 634.645789 961.2 
L 634.645789 129.6 
" style="fill: none; stroke: #000000; stroke-width: 0.8; stroke-linejoin: miter; stroke-linecap: square"/>
   </g>
   <g id="patch_4">
    <path d="M 841.354211 961.2 
L 841.354211 129.6 
" style="fill: none; stroke: #000000; stroke-width: 0.8; stroke-linejoin: miter; stroke-linecap: square"/>
   </g>
   <g id="patch_5">
    <path d="M 634.645789 961.2 
L 841.354211 961.2 
" style="fill: none; stroke: #000000; stroke-width: 0.8; stroke-linejoin: miter; stroke-linecap: square"/>
   </g>
   <g id="patch_6">
    <path d="M 634.645789 129.6 
L 841.354211 129.6 
" style="fill: none; stroke: #000000; stroke-width: 0.8; stroke-linejoin: miter; stroke-linecap: square"/>
   </g>
  </g>
 </g>
 <defs>
  <clipPath id="p18d33d36af">
   <rect x="634.645789" y="129.6" width="206.708422" height="831.6"/>
  </clipPath>
 </defs>
</svg>
