<?xml version="1.0" encoding="utf-8" standalone="no"?>
<!DOCTYPE svg PUBLIC "-//W3C//DTD SVG 1.1//EN"
  "http://www.w3.org/Graphics/SVG/1.1/DTD/svg11.dtd">
<svg xmlns:xlink="http://www.w3.org/1999/xlink" width="1440pt" height="1080pt" viewBox="0 0 1440 1080" xmlns="http://www.w3.org/2000/svg" version="1.1">
 <metadata>
  <rdf:RDF xmlns:dc="http://purl.org/dc/elements/1.1/" xmlns:cc="http://creativecommons.org/ns#" xmlns:rdf="http://www.w3.org/1999/02/22-rdf-syntax-ns#">
   <cc:Work>
    <dc:type rdf:resource="http://purl.org/dc/dcmitype/StillImage"/>
    <dc:date>2023-12-11T12:06:58.318065</dc:date>
    <dc:format>image/svg+xml</dc:format>
    <dc:creator>
     <cc:Agent>
      <dc:title>Matplotlib v3.7.1, https://matplotlib.org/</dc:title>
     </cc:Agent>
    </dc:creator>
   </cc:Work>
  </rdf:RDF>
 </metadata>
 <defs>
  <style type="text/css">*{stroke-linejoin: round; stroke-linecap: butt}</style>
 </defs>
 <g id="figure_1">
  <g id="patch_1">
   <path d="M 0 1080 
L 1440 1080 
L 1440 0 
L 0 0 
z
" style="fill: #ffffff"/>
  </g>
  <g id="axes_1">
   <g id="patch_2">
    <path d="M 526.937943 961.2 
L 949.062057 961.2 
L 949.062057 129.6 
L 526.937943 129.6 
z
" style="fill: #ffffff"/>
   </g>
   <g id="matplotlib.axis_1">
    <g id="xtick_1">
     <g id="line2d_1">
      <defs>
       <path id="mc524109fc0" d="M 0 0 
L 0 3.5 
" style="stroke: #000000; stroke-width: 0.8"/>
      </defs>
      <g>
       <use xlink:href="#mc524109fc0" x="582.190152" y="961.2" style="stroke: #000000; stroke-width: 0.8"/>
      </g>
     </g>
     <g id="text_1">
      <!-- 1450 -->
      <g transform="translate(569.465152 975.798437) scale(0.1 -0.1)">
       <defs>
        <path id="DejaVuSans-31" d="M 794 531 
L 1825 531 
L 1825 4091 
L 703 3866 
L 703 4441 
L 1819 4666 
L 2450 4666 
L 2450 531 
L 3481 531 
L 3481 0 
L 794 0 
L 794 531 
z
" transform="scale(0.015625)"/>
        <path id="DejaVuSans-34" d="M 2419 4116 
L 825 1625 
L 2419 1625 
L 2419 4116 
z
M 2253 4666 
L 3047 4666 
L 3047 1625 
L 3713 1625 
L 3713 1100 
L 3047 1100 
L 3047 0 
L 2419 0 
L 2419 1100 
L 313 1100 
L 313 1709 
L 2253 4666 
z
" transform="scale(0.015625)"/>
        <path id="DejaVuSans-35" d="M 691 4666 
L 3169 4666 
L 3169 4134 
L 1269 4134 
L 1269 2991 
Q 1406 3038 1543 3061 
Q 1681 3084 1819 3084 
Q 2600 3084 3056 2656 
Q 3513 2228 3513 1497 
Q 3513 744 3044 326 
Q 2575 -91 1722 -91 
Q 1428 -91 1123 -41 
Q 819 9 494 109 
L 494 744 
Q 775 591 1075 516 
Q 1375 441 1709 441 
Q 2250 441 2565 725 
Q 2881 1009 2881 1497 
Q 2881 1984 2565 2268 
Q 2250 2553 1709 2553 
Q 1456 2553 1204 2497 
Q 953 2441 691 2322 
L 691 4666 
z
" transform="scale(0.015625)"/>
        <path id="DejaVuSans-30" d="M 2034 4250 
Q 1547 4250 1301 3770 
Q 1056 3291 1056 2328 
Q 1056 1369 1301 889 
Q 1547 409 2034 409 
Q 2525 409 2770 889 
Q 3016 1369 3016 2328 
Q 3016 3291 2770 3770 
Q 2525 4250 2034 4250 
z
M 2034 4750 
Q 2819 4750 3233 4129 
Q 3647 3509 3647 2328 
Q 3647 1150 3233 529 
Q 2819 -91 2034 -91 
Q 1250 -91 836 529 
Q 422 1150 422 2328 
Q 422 3509 836 4129 
Q 1250 4750 2034 4750 
z
" transform="scale(0.015625)"/>
       </defs>
       <use xlink:href="#DejaVuSans-31"/>
       <use xlink:href="#DejaVuSans-34" x="63.623047"/>
       <use xlink:href="#DejaVuSans-35" x="127.246094"/>
       <use xlink:href="#DejaVuSans-30" x="190.869141"/>
      </g>
     </g>
    </g>
    <g id="xtick_2">
     <g id="line2d_2">
      <g>
       <use xlink:href="#mc524109fc0" x="658.998493" y="961.2" style="stroke: #000000; stroke-width: 0.8"/>
      </g>
     </g>
     <g id="text_2">
      <!-- 1500 -->
      <g transform="translate(646.273493 975.798437) scale(0.1 -0.1)">
       <use xlink:href="#DejaVuSans-31"/>
       <use xlink:href="#DejaVuSans-35" x="63.623047"/>
       <use xlink:href="#DejaVuSans-30" x="127.246094"/>
       <use xlink:href="#DejaVuSans-30" x="190.869141"/>
      </g>
     </g>
    </g>
    <g id="xtick_3">
     <g id="line2d_3">
      <g>
       <use xlink:href="#mc524109fc0" x="735.806835" y="961.2" style="stroke: #000000; stroke-width: 0.8"/>
      </g>
     </g>
     <g id="text_3">
      <!-- 1550 -->
      <g transform="translate(723.081835 975.798437) scale(0.1 -0.1)">
       <use xlink:href="#DejaVuSans-31"/>
       <use xlink:href="#DejaVuSans-35" x="63.623047"/>
       <use xlink:href="#DejaVuSans-35" x="127.246094"/>
       <use xlink:href="#DejaVuSans-30" x="190.869141"/>
      </g>
     </g>
    </g>
    <g id="xtick_4">
     <g id="line2d_4">
      <g>
       <use xlink:href="#mc524109fc0" x="812.615176" y="961.2" style="stroke: #000000; stroke-width: 0.8"/>
      </g>
     </g>
     <g id="text_4">
      <!-- 1600 -->
      <g transform="translate(799.890176 975.798437) scale(0.1 -0.1)">
       <defs>
        <path id="DejaVuSans-36" d="M 2113 2584 
Q 1688 2584 1439 2293 
Q 1191 2003 1191 1497 
Q 1191 994 1439 701 
Q 1688 409 2113 409 
Q 2538 409 2786 701 
Q 3034 994 3034 1497 
Q 3034 2003 2786 2293 
Q 2538 2584 2113 2584 
z
M 3366 4563 
L 3366 3988 
Q 3128 4100 2886 4159 
Q 2644 4219 2406 4219 
Q 1781 4219 1451 3797 
Q 1122 3375 1075 2522 
Q 1259 2794 1537 2939 
Q 1816 3084 2150 3084 
Q 2853 3084 3261 2657 
Q 3669 2231 3669 1497 
Q 3669 778 3244 343 
Q 2819 -91 2113 -91 
Q 1303 -91 875 529 
Q 447 1150 447 2328 
Q 447 3434 972 4092 
Q 1497 4750 2381 4750 
Q 2619 4750 2861 4703 
Q 3103 4656 3366 4563 
z
" transform="scale(0.015625)"/>
       </defs>
       <use xlink:href="#DejaVuSans-31"/>
       <use xlink:href="#DejaVuSans-36" x="63.623047"/>
       <use xlink:href="#DejaVuSans-30" x="127.246094"/>
       <use xlink:href="#DejaVuSans-30" x="190.869141"/>
      </g>
     </g>
    </g>
    <g id="xtick_5">
     <g id="line2d_5">
      <g>
       <use xlink:href="#mc524109fc0" x="889.423518" y="961.2" style="stroke: #000000; stroke-width: 0.8"/>
      </g>
     </g>
     <g id="text_5">
      <!-- 1650 -->
      <g transform="translate(876.698518 975.798437) scale(0.1 -0.1)">
       <use xlink:href="#DejaVuSans-31"/>
       <use xlink:href="#DejaVuSans-36" x="63.623047"/>
       <use xlink:href="#DejaVuSans-35" x="127.246094"/>
       <use xlink:href="#DejaVuSans-30" x="190.869141"/>
      </g>
     </g>
    </g>
   </g>
   <g id="matplotlib.axis_2">
    <g id="ytick_1">
     <g id="line2d_6">
      <defs>
       <path id="mdbd5cb5a69" d="M 0 0 
L -3.5 0 
" style="stroke: #000000; stroke-width: 0.8"/>
      </defs>
      <g>
       <use xlink:href="#mdbd5cb5a69" x="526.937943" y="853.170354" style="stroke: #000000; stroke-width: 0.8"/>
      </g>
     </g>
     <g id="text_6">
      <!-- 500 -->
      <g transform="translate(500.850443 856.969573) scale(0.1 -0.1)">
       <use xlink:href="#DejaVuSans-35"/>
       <use xlink:href="#DejaVuSans-30" x="63.623047"/>
       <use xlink:href="#DejaVuSans-30" x="127.246094"/>
      </g>
     </g>
    </g>
    <g id="ytick_2">
     <g id="line2d_7">
      <g>
       <use xlink:href="#mdbd5cb5a69" x="526.937943" y="699.553671" style="stroke: #000000; stroke-width: 0.8"/>
      </g>
     </g>
     <g id="text_7">
      <!-- 600 -->
      <g transform="translate(500.850443 703.35289) scale(0.1 -0.1)">
       <use xlink:href="#DejaVuSans-36"/>
       <use xlink:href="#DejaVuSans-30" x="63.623047"/>
       <use xlink:href="#DejaVuSans-30" x="127.246094"/>
      </g>
     </g>
    </g>
    <g id="ytick_3">
     <g id="line2d_8">
      <g>
       <use xlink:href="#mdbd5cb5a69" x="526.937943" y="545.936988" style="stroke: #000000; stroke-width: 0.8"/>
      </g>
     </g>
     <g id="text_8">
      <!-- 700 -->
      <g transform="translate(500.850443 549.736207) scale(0.1 -0.1)">
       <defs>
        <path id="DejaVuSans-37" d="M 525 4666 
L 3525 4666 
L 3525 4397 
L 1831 0 
L 1172 0 
L 2766 4134 
L 525 4134 
L 525 4666 
z
" transform="scale(0.015625)"/>
       </defs>
       <use xlink:href="#DejaVuSans-37"/>
       <use xlink:href="#DejaVuSans-30" x="63.623047"/>
       <use xlink:href="#DejaVuSans-30" x="127.246094"/>
      </g>
     </g>
    </g>
    <g id="ytick_4">
     <g id="line2d_9">
      <g>
       <use xlink:href="#mdbd5cb5a69" x="526.937943" y="392.320305" style="stroke: #000000; stroke-width: 0.8"/>
      </g>
     </g>
     <g id="text_9">
      <!-- 800 -->
      <g transform="translate(500.850443 396.119524) scale(0.1 -0.1)">
       <defs>
        <path id="DejaVuSans-38" d="M 2034 2216 
Q 1584 2216 1326 1975 
Q 1069 1734 1069 1313 
Q 1069 891 1326 650 
Q 1584 409 2034 409 
Q 2484 409 2743 651 
Q 3003 894 3003 1313 
Q 3003 1734 2745 1975 
Q 2488 2216 2034 2216 
z
M 1403 2484 
Q 997 2584 770 2862 
Q 544 3141 544 3541 
Q 544 4100 942 4425 
Q 1341 4750 2034 4750 
Q 2731 4750 3128 4425 
Q 3525 4100 3525 3541 
Q 3525 3141 3298 2862 
Q 3072 2584 2669 2484 
Q 3125 2378 3379 2068 
Q 3634 1759 3634 1313 
Q 3634 634 3220 271 
Q 2806 -91 2034 -91 
Q 1263 -91 848 271 
Q 434 634 434 1313 
Q 434 1759 690 2068 
Q 947 2378 1403 2484 
z
M 1172 3481 
Q 1172 3119 1398 2916 
Q 1625 2713 2034 2713 
Q 2441 2713 2670 2916 
Q 2900 3119 2900 3481 
Q 2900 3844 2670 4047 
Q 2441 4250 2034 4250 
Q 1625 4250 1398 4047 
Q 1172 3844 1172 3481 
z
" transform="scale(0.015625)"/>
       </defs>
       <use xlink:href="#DejaVuSans-38"/>
       <use xlink:href="#DejaVuSans-30" x="63.623047"/>
       <use xlink:href="#DejaVuSans-30" x="127.246094"/>
      </g>
     </g>
    </g>
    <g id="ytick_5">
     <g id="line2d_10">
      <g>
       <use xlink:href="#mdbd5cb5a69" x="526.937943" y="238.703622" style="stroke: #000000; stroke-width: 0.8"/>
      </g>
     </g>
     <g id="text_10">
      <!-- 900 -->
      <g transform="translate(500.850443 242.502841) scale(0.1 -0.1)">
       <defs>
        <path id="DejaVuSans-39" d="M 703 97 
L 703 672 
Q 941 559 1184 500 
Q 1428 441 1663 441 
Q 2288 441 2617 861 
Q 2947 1281 2994 2138 
Q 2813 1869 2534 1725 
Q 2256 1581 1919 1581 
Q 1219 1581 811 2004 
Q 403 2428 403 3163 
Q 403 3881 828 4315 
Q 1253 4750 1959 4750 
Q 2769 4750 3195 4129 
Q 3622 3509 3622 2328 
Q 3622 1225 3098 567 
Q 2575 -91 1691 -91 
Q 1453 -91 1209 -44 
Q 966 3 703 97 
z
M 1959 2075 
Q 2384 2075 2632 2365 
Q 2881 2656 2881 3163 
Q 2881 3666 2632 3958 
Q 2384 4250 1959 4250 
Q 1534 4250 1286 3958 
Q 1038 3666 1038 3163 
Q 1038 2656 1286 2365 
Q 1534 2075 1959 2075 
z
" transform="scale(0.015625)"/>
       </defs>
       <use xlink:href="#DejaVuSans-39"/>
       <use xlink:href="#DejaVuSans-30" x="63.623047"/>
       <use xlink:href="#DejaVuSans-30" x="127.246094"/>
      </g>
     </g>
    </g>
   </g>
   <g id="LineCollection_1">
    <path d="M 929.874597 169.583835 
L 878.656417 168.11235 
L 854.233831 167.618396 
L 830.773894 167.4 
L 808.375264 167.529235 
L 787.114244 168.068675 
L 767.046087 169.072843 
L 748.206313 170.589935 
L 730.612207 172.663925 
L 714.264879 175.337106 
L 699.152439 178.652989 
L 685.255239 182.65906 
L 672.554218 187.408048 
L 661.042755 192.954906 
L 652.378576 198.213665 
L 650.739823 199.345619 
L 643.338621 205.130777 
L 641.697113 206.595651 
L 635.508297 212.888639 
L 633.988919 214.664021 
L 628.956 221.442787 
L 627.679878 223.440507 
L 623.741337 230.679987 
L 622.785003 232.763158 
L 619.87512 240.435727 
L 619.249213 242.461031 
L 616.958755 252.394779 
L 615.770727 262.473321 
L 615.539689 272.647697 
L 616.131942 282.895573 
L 617.429306 293.207038 
L 619.327592 303.575381 
L 621.733535 313.992369 
L 624.561986 324.44646 
L 627.733867 334.922557 
L 631.174877 345.402479 
L 634.814759 355.865671 
L 642.428537 376.652118 
L 653.818475 407.193775 
L 657.393112 417.10384 
L 660.779741 426.839003 
L 663.940047 436.380216 
L 666.840552 445.710126 
L 669.452799 454.8134 
L 671.7535 463.677063 
L 673.72462 472.2909 
L 675.353374 480.647889 
L 676.632101 488.744677 
L 677.557971 496.582056 
L 678.132514 504.165364 
L 678.360956 511.504747 
L 678.251415 518.615162 
L 677.814041 525.516052 
L 677.060233 532.230669 
L 676.002069 538.785078 
L 674.652067 545.206987 
L 673.023303 551.524584 
L 671.129838 557.765556 
L 668.987317 563.956435 
L 666.613592 570.122306 
L 664.029233 576.286825 
L 661.257838 582.472455 
L 655.263808 594.992863 
L 642.336924 621.322579 
L 639.134413 628.27354 
L 636.025568 635.399939 
L 633.04938 642.714644 
L 630.242974 650.227421 
L 627.640475 657.944583 
L 625.271829 665.86886 
L 623.161647 673.999532 
L 621.32821 682.332779 
L 619.782692 690.862145 
L 618.528654 699.578997 
L 617.561789 708.472839 
L 616.869844 717.531384 
L 616.432638 726.740349 
L 616.222104 736.082975 
L 616.20229 745.539301 
L 616.551405 764.691678 
L 617.035181 784.031472 
L 617.151281 793.6507 
L 617.074382 803.150224 
L 616.715872 812.460977 
L 615.984451 821.504383 
L 614.789652 830.195041 
L 613.045393 838.447701 
L 610.670579 846.190718 
L 607.580619 853.385839 
L 603.662536 860.046398 
L 598.734987 866.235219 
L 592.515497 872.025622 
L 584.628075 877.438969 
L 574.655221 882.402921 
L 562.195601 886.758114 
L 546.125403 890.472386 
L 546.125403 890.472386 
" clip-path="url(#p08369f8e4a)" style="fill: none; stroke: #1f77b4; stroke-width: 1.5"/>
    <path d="M 929.363855 186.47395 
L 903.459824 185.690635 
L 878.314032 185.006716 
L 854.075158 184.515486 
L 830.868965 184.297568 
L 808.79984 184.421735 
L 787.952274 184.945717 
L 768.392298 185.916968 
L 750.168864 187.373416 
L 733.315175 189.344177 
L 717.849972 191.85025 
L 703.778767 194.905186 
L 691.095025 198.515723 
L 679.781309 202.682405 
L 669.81037 207.400174 
L 661.14619 212.658933 
L 653.744988 218.444091 
L 647.556172 224.737079 
L 642.523252 231.515844 
L 638.584711 238.755324 
L 635.674828 246.427893 
L 633.724461 254.503791 
L 632.661794 262.951524 
L 632.413033 271.73825 
L 632.903072 280.830138 
L 634.056112 290.192713 
L 635.796246 299.791167 
L 638.048002 309.590667 
L 640.736855 319.55663 
L 643.789691 329.654981 
L 647.135248 339.852399 
L 650.704512 350.116535 
L 654.431081 360.416215 
L 658.251498 370.721627 
L 662.105544 381.004487 
L 665.936502 391.23819 
L 669.691392 401.397939 
L 673.321168 411.460866 
L 676.780886 421.406129 
L 680.029846 431.214996 
L 683.031699 440.87091 
L 685.754529 450.359547 
L 688.170903 459.66885 
L 690.257895 468.789051 
L 691.997086 477.712683 
L 693.374535 486.434572 
L 694.380722 494.951821 
L 695.01047 503.263773 
L 695.262841 511.371972 
L 695.141011 519.280103 
L 694.652115 526.993921 
L 693.807078 534.521172 
L 692.620417 541.871502 
L 691.110032 549.056348 
L 689.296962 556.088827 
L 687.205134 562.983614 
L 684.86109 569.7568 
L 682.293689 576.425754 
L 679.533801 583.008966 
L 676.613976 589.525885 
L 673.568101 595.996748 
L 670.431041 602.442401 
L 667.238261 608.884109 
L 664.02544 615.343367 
L 660.828065 621.841689 
L 657.681017 628.400407 
L 654.618138 635.040452 
L 651.671795 641.782134 
L 648.872425 648.644912 
L 646.248073 655.647164 
L 643.823922 662.805951 
L 641.621807 670.13677 
L 639.65973 677.653309 
L 637.951361 685.367199 
L 636.505528 693.287756 
L 635.325713 701.421727 
L 634.40953 709.773025 
L 633.748202 718.342472 
L 633.326037 727.127527 
L 633.119894 736.122024 
L 633.098648 745.315901 
L 633.222656 754.694932 
L 633.443214 764.240455 
L 633.702023 773.929099 
L 633.930639 783.73252 
L 634.049941 793.617122 
L 633.969585 803.543791 
L 633.587468 813.467626 
L 632.789189 823.337671 
L 631.447517 833.096647 
L 629.42186 842.68069 
L 626.557736 852.019089 
L 622.686252 861.034027 
L 617.623588 869.640323 
L 611.170484 877.745184 
L 603.111738 885.247951 
L 593.215706 892.039862 
L 581.233816 898.003803 
L 566.900085 903.014082 
L 549.930648 906.936193 
" clip-path="url(#p08369f8e4a)" style="fill: none; stroke: #8c564b; stroke-width: 1.5"/>
    <path d="M 928.853113 203.364065 
L 877.913125 201.899896 
L 853.824622 201.411714 
L 830.837162 201.195849 
L 809.059688 201.318376 
L 788.583672 201.833019 
L 769.484667 202.781381 
L 751.823801 204.192867 
L 735.649076 206.084234 
L 720.996224 208.45867 
L 707.888624 211.304401 
L 696.335556 214.593082 
L 686.327722 218.278826 
L 677.829211 222.299913 
L 670.766594 226.586597 
L 665.019892 231.078513 
L 660.425262 235.750482 
L 656.798802 240.634907 
L 653.977062 245.821582 
L 651.851133 251.427076 
L 650.372118 257.551246 
L 649.52969 264.248168 
L 649.323754 271.522263 
L 649.745169 279.340941 
L 650.76856 287.650783 
L 652.352931 296.390058 
L 654.445379 305.496258 
L 656.98519 314.909815 
L 659.907251 324.57558 
L 663.144592 334.44315 
L 666.630196 344.466705 
L 674.085091 364.8195 
L 685.586764 395.664356 
L 689.280872 405.908869 
L 692.821687 416.092985 
L 696.165905 426.198579 
L 699.27403 436.210061 
L 702.110364 446.114137 
L 704.642969 455.899517 
L 706.843661 465.55653 
L 708.688051 475.076677 
L 710.155678 484.452129 
L 711.230266 493.67523 
L 711.900125 502.738074 
L 712.158672 511.632264 
L 712.005009 520.348931 
L 711.444463 528.879093 
L 710.488914 537.21434 
L 709.156817 545.347754 
L 707.472815 553.274899 
L 705.466975 560.99469 
L 703.173732 568.509979 
L 700.630693 575.827751 
L 697.877465 582.95896 
L 694.954604 589.918066 
L 691.902759 596.722408 
L 685.571226 609.946508 
L 672.971354 635.594772 
L 670.033615 641.963526 
L 667.239149 648.357691 
L 664.610306 654.802412 
L 662.16624 661.32363 
L 659.923038 667.948054 
L 657.893932 674.702927 
L 656.089502 681.615536 
L 654.517768 688.712466 
L 653.184078 696.018681 
L 652.090728 703.556542 
L 651.236303 711.344891 
L 650.614798 719.39833 
L 650.214576 727.726753 
L 650.017282 736.335159 
L 649.996741 745.22372 
L 650.335837 763.819673 
L 650.827244 783.528587 
L 650.947223 793.753905 
L 650.854907 804.19396 
L 650.430305 814.829857 
L 649.52956 825.63915 
L 647.980116 836.590931 
L 645.576938 847.635517 
L 642.084342 858.687023 
L 638.212858 867.701961 
L 637.250973 869.601742 
L 632.188309 878.208038 
L 630.843038 880.165672 
L 623.571631 889.223354 
L 622.684815 890.112763 
L 613.678903 898.433999 
L 612.673745 899.180103 
L 602.777713 905.972013 
L 600.745361 907.167357 
L 588.763471 913.131299 
L 586.809552 913.955229 
L 570.705331 919.477889 
L 553.735894 923.4 
L 553.735894 923.4 
" clip-path="url(#p08369f8e4a)" style="fill: none; stroke: #17becf; stroke-width: 1.5"/>
   </g>
   <g id="patch_3">
    <path d="M 526.937943 961.2 
L 526.937943 129.6 
" style="fill: none; stroke: #000000; stroke-width: 0.8; stroke-linejoin: miter; stroke-linecap: square"/>
   </g>
   <g id="patch_4">
    <path d="M 949.062057 961.2 
L 949.062057 129.6 
" style="fill: none; stroke: #000000; stroke-width: 0.8; stroke-linejoin: miter; stroke-linecap: square"/>
   </g>
   <g id="patch_5">
    <path d="M 526.937943 961.2 
L 949.062057 961.2 
" style="fill: none; stroke: #000000; stroke-width: 0.8; stroke-linejoin: miter; stroke-linecap: square"/>
   </g>
   <g id="patch_6">
    <path d="M 526.937943 129.6 
L 949.062057 129.6 
" style="fill: none; stroke: #000000; stroke-width: 0.8; stroke-linejoin: miter; stroke-linecap: square"/>
   </g>
  </g>
 </g>
 <defs>
  <clipPath id="p08369f8e4a">
   <rect x="526.937943" y="129.6" width="422.124114" height="831.6"/>
  </clipPath>
 </defs>
</svg>
