<?xml version="1.0" encoding="utf-8" standalone="no"?>
<!DOCTYPE svg PUBLIC "-//W3C//DTD SVG 1.1//EN"
  "http://www.w3.org/Graphics/SVG/1.1/DTD/svg11.dtd">
<svg xmlns:xlink="http://www.w3.org/1999/xlink" width="1440pt" height="1080pt" viewBox="0 0 1440 1080" xmlns="http://www.w3.org/2000/svg" version="1.1">
 <metadata>
  <rdf:RDF xmlns:dc="http://purl.org/dc/elements/1.1/" xmlns:cc="http://creativecommons.org/ns#" xmlns:rdf="http://www.w3.org/1999/02/22-rdf-syntax-ns#">
   <cc:Work>
    <dc:type rdf:resource="http://purl.org/dc/dcmitype/StillImage"/>
    <dc:date>2023-12-11T12:07:04.399742</dc:date>
    <dc:format>image/svg+xml</dc:format>
    <dc:creator>
     <cc:Agent>
      <dc:title>Matplotlib v3.7.1, https://matplotlib.org/</dc:title>
     </cc:Agent>
    </dc:creator>
   </cc:Work>
  </rdf:RDF>
 </metadata>
 <defs>
  <style type="text/css">*{stroke-linejoin: round; stroke-linecap: butt}</style>
 </defs>
 <g id="figure_1">
  <g id="patch_1">
   <path d="M 0 1080 
L 1440 1080 
L 1440 0 
L 0 0 
z
" style="fill: #ffffff"/>
  </g>
  <g id="axes_1">
   <g id="patch_2">
    <path d="M 180 950.974098 
L 1296 950.974098 
L 1296 139.825902 
L 180 139.825902 
z
" style="fill: #ffffff"/>
   </g>
   <g id="matplotlib.axis_1">
    <g id="xtick_1">
     <g id="line2d_1">
      <defs>
       <path id="mf6bca83c9a" d="M 0 0 
L 0 3.5 
" style="stroke: #000000; stroke-width: 0.8"/>
      </defs>
      <g>
       <use xlink:href="#mf6bca83c9a" x="244.394334" y="950.974098" style="stroke: #000000; stroke-width: 0.8"/>
      </g>
     </g>
     <g id="text_1">
      <!-- 500 -->
      <g transform="translate(234.850584 965.572536) scale(0.1 -0.1)">
       <defs>
        <path id="DejaVuSans-35" d="M 691 4666 
L 3169 4666 
L 3169 4134 
L 1269 4134 
L 1269 2991 
Q 1406 3038 1543 3061 
Q 1681 3084 1819 3084 
Q 2600 3084 3056 2656 
Q 3513 2228 3513 1497 
Q 3513 744 3044 326 
Q 2575 -91 1722 -91 
Q 1428 -91 1123 -41 
Q 819 9 494 109 
L 494 744 
Q 775 591 1075 516 
Q 1375 441 1709 441 
Q 2250 441 2565 725 
Q 2881 1009 2881 1497 
Q 2881 1984 2565 2268 
Q 2250 2553 1709 2553 
Q 1456 2553 1204 2497 
Q 953 2441 691 2322 
L 691 4666 
z
" transform="scale(0.015625)"/>
        <path id="DejaVuSans-30" d="M 2034 4250 
Q 1547 4250 1301 3770 
Q 1056 3291 1056 2328 
Q 1056 1369 1301 889 
Q 1547 409 2034 409 
Q 2525 409 2770 889 
Q 3016 1369 3016 2328 
Q 3016 3291 2770 3770 
Q 2525 4250 2034 4250 
z
M 2034 4750 
Q 2819 4750 3233 4129 
Q 3647 3509 3647 2328 
Q 3647 1150 3233 529 
Q 2819 -91 2034 -91 
Q 1250 -91 836 529 
Q 422 1150 422 2328 
Q 422 3509 836 4129 
Q 1250 4750 2034 4750 
z
" transform="scale(0.015625)"/>
       </defs>
       <use xlink:href="#DejaVuSans-35"/>
       <use xlink:href="#DejaVuSans-30" x="63.623047"/>
       <use xlink:href="#DejaVuSans-30" x="127.246094"/>
      </g>
     </g>
    </g>
    <g id="xtick_2">
     <g id="line2d_2">
      <g>
       <use xlink:href="#mf6bca83c9a" x="369.804622" y="950.974098" style="stroke: #000000; stroke-width: 0.8"/>
      </g>
     </g>
     <g id="text_2">
      <!-- 600 -->
      <g transform="translate(360.260872 965.572536) scale(0.1 -0.1)">
       <defs>
        <path id="DejaVuSans-36" d="M 2113 2584 
Q 1688 2584 1439 2293 
Q 1191 2003 1191 1497 
Q 1191 994 1439 701 
Q 1688 409 2113 409 
Q 2538 409 2786 701 
Q 3034 994 3034 1497 
Q 3034 2003 2786 2293 
Q 2538 2584 2113 2584 
z
M 3366 4563 
L 3366 3988 
Q 3128 4100 2886 4159 
Q 2644 4219 2406 4219 
Q 1781 4219 1451 3797 
Q 1122 3375 1075 2522 
Q 1259 2794 1537 2939 
Q 1816 3084 2150 3084 
Q 2853 3084 3261 2657 
Q 3669 2231 3669 1497 
Q 3669 778 3244 343 
Q 2819 -91 2113 -91 
Q 1303 -91 875 529 
Q 447 1150 447 2328 
Q 447 3434 972 4092 
Q 1497 4750 2381 4750 
Q 2619 4750 2861 4703 
Q 3103 4656 3366 4563 
z
" transform="scale(0.015625)"/>
       </defs>
       <use xlink:href="#DejaVuSans-36"/>
       <use xlink:href="#DejaVuSans-30" x="63.623047"/>
       <use xlink:href="#DejaVuSans-30" x="127.246094"/>
      </g>
     </g>
    </g>
    <g id="xtick_3">
     <g id="line2d_3">
      <g>
       <use xlink:href="#mf6bca83c9a" x="495.214911" y="950.974098" style="stroke: #000000; stroke-width: 0.8"/>
      </g>
     </g>
     <g id="text_3">
      <!-- 700 -->
      <g transform="translate(485.671161 965.572536) scale(0.1 -0.1)">
       <defs>
        <path id="DejaVuSans-37" d="M 525 4666 
L 3525 4666 
L 3525 4397 
L 1831 0 
L 1172 0 
L 2766 4134 
L 525 4134 
L 525 4666 
z
" transform="scale(0.015625)"/>
       </defs>
       <use xlink:href="#DejaVuSans-37"/>
       <use xlink:href="#DejaVuSans-30" x="63.623047"/>
       <use xlink:href="#DejaVuSans-30" x="127.246094"/>
      </g>
     </g>
    </g>
    <g id="xtick_4">
     <g id="line2d_4">
      <g>
       <use xlink:href="#mf6bca83c9a" x="620.6252" y="950.974098" style="stroke: #000000; stroke-width: 0.8"/>
      </g>
     </g>
     <g id="text_4">
      <!-- 800 -->
      <g transform="translate(611.08145 965.572536) scale(0.1 -0.1)">
       <defs>
        <path id="DejaVuSans-38" d="M 2034 2216 
Q 1584 2216 1326 1975 
Q 1069 1734 1069 1313 
Q 1069 891 1326 650 
Q 1584 409 2034 409 
Q 2484 409 2743 651 
Q 3003 894 3003 1313 
Q 3003 1734 2745 1975 
Q 2488 2216 2034 2216 
z
M 1403 2484 
Q 997 2584 770 2862 
Q 544 3141 544 3541 
Q 544 4100 942 4425 
Q 1341 4750 2034 4750 
Q 2731 4750 3128 4425 
Q 3525 4100 3525 3541 
Q 3525 3141 3298 2862 
Q 3072 2584 2669 2484 
Q 3125 2378 3379 2068 
Q 3634 1759 3634 1313 
Q 3634 634 3220 271 
Q 2806 -91 2034 -91 
Q 1263 -91 848 271 
Q 434 634 434 1313 
Q 434 1759 690 2068 
Q 947 2378 1403 2484 
z
M 1172 3481 
Q 1172 3119 1398 2916 
Q 1625 2713 2034 2713 
Q 2441 2713 2670 2916 
Q 2900 3119 2900 3481 
Q 2900 3844 2670 4047 
Q 2441 4250 2034 4250 
Q 1625 4250 1398 4047 
Q 1172 3844 1172 3481 
z
" transform="scale(0.015625)"/>
       </defs>
       <use xlink:href="#DejaVuSans-38"/>
       <use xlink:href="#DejaVuSans-30" x="63.623047"/>
       <use xlink:href="#DejaVuSans-30" x="127.246094"/>
      </g>
     </g>
    </g>
    <g id="xtick_5">
     <g id="line2d_5">
      <g>
       <use xlink:href="#mf6bca83c9a" x="746.035488" y="950.974098" style="stroke: #000000; stroke-width: 0.8"/>
      </g>
     </g>
     <g id="text_5">
      <!-- 900 -->
      <g transform="translate(736.491738 965.572536) scale(0.1 -0.1)">
       <defs>
        <path id="DejaVuSans-39" d="M 703 97 
L 703 672 
Q 941 559 1184 500 
Q 1428 441 1663 441 
Q 2288 441 2617 861 
Q 2947 1281 2994 2138 
Q 2813 1869 2534 1725 
Q 2256 1581 1919 1581 
Q 1219 1581 811 2004 
Q 403 2428 403 3163 
Q 403 3881 828 4315 
Q 1253 4750 1959 4750 
Q 2769 4750 3195 4129 
Q 3622 3509 3622 2328 
Q 3622 1225 3098 567 
Q 2575 -91 1691 -91 
Q 1453 -91 1209 -44 
Q 966 3 703 97 
z
M 1959 2075 
Q 2384 2075 2632 2365 
Q 2881 2656 2881 3163 
Q 2881 3666 2632 3958 
Q 2384 4250 1959 4250 
Q 1534 4250 1286 3958 
Q 1038 3666 1038 3163 
Q 1038 2656 1286 2365 
Q 1534 2075 1959 2075 
z
" transform="scale(0.015625)"/>
       </defs>
       <use xlink:href="#DejaVuSans-39"/>
       <use xlink:href="#DejaVuSans-30" x="63.623047"/>
       <use xlink:href="#DejaVuSans-30" x="127.246094"/>
      </g>
     </g>
    </g>
    <g id="xtick_6">
     <g id="line2d_6">
      <g>
       <use xlink:href="#mf6bca83c9a" x="871.445777" y="950.974098" style="stroke: #000000; stroke-width: 0.8"/>
      </g>
     </g>
     <g id="text_6">
      <!-- 1000 -->
      <g transform="translate(858.720777 965.572536) scale(0.1 -0.1)">
       <defs>
        <path id="DejaVuSans-31" d="M 794 531 
L 1825 531 
L 1825 4091 
L 703 3866 
L 703 4441 
L 1819 4666 
L 2450 4666 
L 2450 531 
L 3481 531 
L 3481 0 
L 794 0 
L 794 531 
z
" transform="scale(0.015625)"/>
       </defs>
       <use xlink:href="#DejaVuSans-31"/>
       <use xlink:href="#DejaVuSans-30" x="63.623047"/>
       <use xlink:href="#DejaVuSans-30" x="127.246094"/>
       <use xlink:href="#DejaVuSans-30" x="190.869141"/>
      </g>
     </g>
    </g>
    <g id="xtick_7">
     <g id="line2d_7">
      <g>
       <use xlink:href="#mf6bca83c9a" x="996.856066" y="950.974098" style="stroke: #000000; stroke-width: 0.8"/>
      </g>
     </g>
     <g id="text_7">
      <!-- 1100 -->
      <g transform="translate(984.131066 965.572536) scale(0.1 -0.1)">
       <use xlink:href="#DejaVuSans-31"/>
       <use xlink:href="#DejaVuSans-31" x="63.623047"/>
       <use xlink:href="#DejaVuSans-30" x="127.246094"/>
       <use xlink:href="#DejaVuSans-30" x="190.869141"/>
      </g>
     </g>
    </g>
    <g id="xtick_8">
     <g id="line2d_8">
      <g>
       <use xlink:href="#mf6bca83c9a" x="1122.266354" y="950.974098" style="stroke: #000000; stroke-width: 0.8"/>
      </g>
     </g>
     <g id="text_8">
      <!-- 1200 -->
      <g transform="translate(1109.541354 965.572536) scale(0.1 -0.1)">
       <defs>
        <path id="DejaVuSans-32" d="M 1228 531 
L 3431 531 
L 3431 0 
L 469 0 
L 469 531 
Q 828 903 1448 1529 
Q 2069 2156 2228 2338 
Q 2531 2678 2651 2914 
Q 2772 3150 2772 3378 
Q 2772 3750 2511 3984 
Q 2250 4219 1831 4219 
Q 1534 4219 1204 4116 
Q 875 4013 500 3803 
L 500 4441 
Q 881 4594 1212 4672 
Q 1544 4750 1819 4750 
Q 2544 4750 2975 4387 
Q 3406 4025 3406 3419 
Q 3406 3131 3298 2873 
Q 3191 2616 2906 2266 
Q 2828 2175 2409 1742 
Q 1991 1309 1228 531 
z
" transform="scale(0.015625)"/>
       </defs>
       <use xlink:href="#DejaVuSans-31"/>
       <use xlink:href="#DejaVuSans-32" x="63.623047"/>
       <use xlink:href="#DejaVuSans-30" x="127.246094"/>
       <use xlink:href="#DejaVuSans-30" x="190.869141"/>
      </g>
     </g>
    </g>
    <g id="xtick_9">
     <g id="line2d_9">
      <g>
       <use xlink:href="#mf6bca83c9a" x="1247.676643" y="950.974098" style="stroke: #000000; stroke-width: 0.8"/>
      </g>
     </g>
     <g id="text_9">
      <!-- 1300 -->
      <g transform="translate(1234.951643 965.572536) scale(0.1 -0.1)">
       <defs>
        <path id="DejaVuSans-33" d="M 2597 2516 
Q 3050 2419 3304 2112 
Q 3559 1806 3559 1356 
Q 3559 666 3084 287 
Q 2609 -91 1734 -91 
Q 1441 -91 1130 -33 
Q 819 25 488 141 
L 488 750 
Q 750 597 1062 519 
Q 1375 441 1716 441 
Q 2309 441 2620 675 
Q 2931 909 2931 1356 
Q 2931 1769 2642 2001 
Q 2353 2234 1838 2234 
L 1294 2234 
L 1294 2753 
L 1863 2753 
Q 2328 2753 2575 2939 
Q 2822 3125 2822 3475 
Q 2822 3834 2567 4026 
Q 2313 4219 1838 4219 
Q 1578 4219 1281 4162 
Q 984 4106 628 3988 
L 628 4550 
Q 988 4650 1302 4700 
Q 1616 4750 1894 4750 
Q 2613 4750 3031 4423 
Q 3450 4097 3450 3541 
Q 3450 3153 3228 2886 
Q 3006 2619 2597 2516 
z
" transform="scale(0.015625)"/>
       </defs>
       <use xlink:href="#DejaVuSans-31"/>
       <use xlink:href="#DejaVuSans-33" x="63.623047"/>
       <use xlink:href="#DejaVuSans-30" x="127.246094"/>
       <use xlink:href="#DejaVuSans-30" x="190.869141"/>
      </g>
     </g>
    </g>
   </g>
   <g id="matplotlib.axis_2">
    <g id="ytick_1">
     <g id="line2d_10">
      <defs>
       <path id="m6ac46ef2a3" d="M 0 0 
L -3.5 0 
" style="stroke: #000000; stroke-width: 0.8"/>
      </defs>
      <g>
       <use xlink:href="#m6ac46ef2a3" x="180" y="871.55756" style="stroke: #000000; stroke-width: 0.8"/>
      </g>
     </g>
     <g id="text_10">
      <!-- 900 -->
      <g transform="translate(153.9125 875.356779) scale(0.1 -0.1)">
       <use xlink:href="#DejaVuSans-39"/>
       <use xlink:href="#DejaVuSans-30" x="63.623047"/>
       <use xlink:href="#DejaVuSans-30" x="127.246094"/>
      </g>
     </g>
    </g>
    <g id="ytick_2">
     <g id="line2d_11">
      <g>
       <use xlink:href="#m6ac46ef2a3" x="180" y="746.147271" style="stroke: #000000; stroke-width: 0.8"/>
      </g>
     </g>
     <g id="text_11">
      <!-- 1000 -->
      <g transform="translate(147.55 749.94649) scale(0.1 -0.1)">
       <use xlink:href="#DejaVuSans-31"/>
       <use xlink:href="#DejaVuSans-30" x="63.623047"/>
       <use xlink:href="#DejaVuSans-30" x="127.246094"/>
       <use xlink:href="#DejaVuSans-30" x="190.869141"/>
      </g>
     </g>
    </g>
    <g id="ytick_3">
     <g id="line2d_12">
      <g>
       <use xlink:href="#m6ac46ef2a3" x="180" y="620.736983" style="stroke: #000000; stroke-width: 0.8"/>
      </g>
     </g>
     <g id="text_12">
      <!-- 1100 -->
      <g transform="translate(147.55 624.536202) scale(0.1 -0.1)">
       <use xlink:href="#DejaVuSans-31"/>
       <use xlink:href="#DejaVuSans-31" x="63.623047"/>
       <use xlink:href="#DejaVuSans-30" x="127.246094"/>
       <use xlink:href="#DejaVuSans-30" x="190.869141"/>
      </g>
     </g>
    </g>
    <g id="ytick_4">
     <g id="line2d_13">
      <g>
       <use xlink:href="#m6ac46ef2a3" x="180" y="495.326694" style="stroke: #000000; stroke-width: 0.8"/>
      </g>
     </g>
     <g id="text_13">
      <!-- 1200 -->
      <g transform="translate(147.55 499.125913) scale(0.1 -0.1)">
       <use xlink:href="#DejaVuSans-31"/>
       <use xlink:href="#DejaVuSans-32" x="63.623047"/>
       <use xlink:href="#DejaVuSans-30" x="127.246094"/>
       <use xlink:href="#DejaVuSans-30" x="190.869141"/>
      </g>
     </g>
    </g>
    <g id="ytick_5">
     <g id="line2d_14">
      <g>
       <use xlink:href="#m6ac46ef2a3" x="180" y="369.916405" style="stroke: #000000; stroke-width: 0.8"/>
      </g>
     </g>
     <g id="text_14">
      <!-- 1300 -->
      <g transform="translate(147.55 373.715624) scale(0.1 -0.1)">
       <use xlink:href="#DejaVuSans-31"/>
       <use xlink:href="#DejaVuSans-33" x="63.623047"/>
       <use xlink:href="#DejaVuSans-30" x="127.246094"/>
       <use xlink:href="#DejaVuSans-30" x="190.869141"/>
      </g>
     </g>
    </g>
    <g id="ytick_6">
     <g id="line2d_15">
      <g>
       <use xlink:href="#m6ac46ef2a3" x="180" y="244.506117" style="stroke: #000000; stroke-width: 0.8"/>
      </g>
     </g>
     <g id="text_15">
      <!-- 1400 -->
      <g transform="translate(147.55 248.305335) scale(0.1 -0.1)">
       <defs>
        <path id="DejaVuSans-34" d="M 2419 4116 
L 825 1625 
L 2419 1625 
L 2419 4116 
z
M 2253 4666 
L 3047 4666 
L 3047 1625 
L 3713 1625 
L 3713 1100 
L 3047 1100 
L 3047 0 
L 2419 0 
L 2419 1100 
L 313 1100 
L 313 1709 
L 2253 4666 
z
" transform="scale(0.015625)"/>
       </defs>
       <use xlink:href="#DejaVuSans-31"/>
       <use xlink:href="#DejaVuSans-34" x="63.623047"/>
       <use xlink:href="#DejaVuSans-30" x="127.246094"/>
       <use xlink:href="#DejaVuSans-30" x="190.869141"/>
      </g>
     </g>
    </g>
   </g>
   <g id="LineCollection_1">
    <path d="M 275.618835 914.103726 
L 284.569495 896.125832 
L 292.837491 878.079079 
L 300.513259 860.041332 
L 307.682668 842.086895 
L 314.426774 824.286763 
L 320.8217 806.70875 
L 332.843372 772.474292 
L 344.288353 739.768693 
L 349.921076 724.153831 
L 355.55623 709.095588 
L 361.23436 694.635364 
L 366.990657 680.809599 
L 372.855018 667.649277 
L 378.852231 655.179354 
L 385.002321 643.418126 
L 391.321126 632.37659 
L 397.821145 622.057872 
L 404.512652 612.456866 
L 411.405053 603.560233 
L 418.508303 595.346936 
L 425.834173 587.789391 
L 433.397053 580.855232 
L 441.214042 574.509467 
L 449.304183 568.716685 
L 457.686958 563.442896 
L 466.380318 558.656675 
L 475.398692 554.329461 
L 484.751363 550.435093 
L 494.441459 546.948848 
L 504.465642 543.846268 
L 514.814384 541.102064 
L 525.472659 538.689263 
L 536.420863 536.578651 
L 547.635799 534.73853 
L 559.091609 533.134707 
L 570.760615 531.730673 
L 582.614024 530.487886 
L 606.756688 528.323838 
L 643.71748 525.237884 
L 656.115638 524.078716 
L 668.501498 522.782273 
L 680.850289 521.305734 
L 693.138062 519.607197 
L 705.341531 517.646009 
L 717.437859 515.383163 
L 729.4044 512.781779 
L 741.218463 509.807698 
L 752.857129 506.430197 
L 764.297209 502.62281 
L 775.515417 498.364206 
L 786.488817 493.639038 
L 797.195566 488.438658 
L 807.615909 482.761559 
L 817.733333 476.613471 
L 827.535705 470.007059 
L 837.016241 462.961263 
L 846.174153 455.500406 
L 855.014906 447.653204 
L 863.550095 439.451832 
L 871.796993 430.931172 
L 879.7779 422.128269 
L 887.519382 413.082022 
L 895.051499 403.833041 
L 902.407078 394.423622 
L 909.621066 384.897752 
L 923.771308 365.680882 
L 937.877546 346.467987 
L 944.989199 337.019687 
L 952.190362 327.746639 
L 959.519935 318.698244 
L 967.016657 309.921774 
L 974.719483 301.461196 
L 982.668261 293.356017 
L 990.904739 285.640296 
L 999.473787 278.342078 
L 1008.424614 271.483458 
L 1017.811627 265.081386 
L 1027.694493 259.149136 
L 1038.137068 253.69809 
L 1049.205112 248.739285 
L 1060.963054 244.284143 
L 1073.470384 240.344022 
L 1086.778322 236.92854 
L 1100.927277 234.042982 
L 1115.94531 231.685249 
L 1131.847514 229.842771 
L 1148.636065 228.4897 
L 1166.300633 227.584472 
L 1184.818919 227.067719 
L 1204.157151 226.8604 
L 1245.064147 226.948459 
L 1245.064147 226.948459 
" clip-path="url(#pe5e0a06d34)" style="fill: none; stroke: #1f77b4; stroke-width: 1.5"/>
    <path d="M 253.173054 902.910132 
L 261.771603 885.668023 
L 269.761371 868.250431 
L 277.221544 850.735117 
L 284.228695 833.197531 
L 290.856539 815.710422 
L 297.175724 798.343497 
L 303.253639 781.163116 
L 309.154251 764.232014 
L 314.93796 747.609062 
L 320.661485 731.349062 
L 326.377763 715.502573 
L 332.135874 700.115763 
L 337.980985 685.230297 
L 343.954317 670.883248 
L 350.093122 657.107042 
L 356.43069 643.929421 
L 362.996366 631.373441 
L 369.815582 619.457483 
L 376.909913 608.195299 
L 384.29714 597.596071 
L 391.991333 587.664494 
L 400.002944 578.400883 
L 408.338918 569.801292 
L 417.002806 561.857655 
L 425.994905 554.557945 
L 435.312395 547.886344 
L 444.949491 541.823433 
L 454.89761 536.346392 
L 465.145533 531.429213 
L 475.679591 527.042927 
L 486.483843 523.155837 
L 497.540273 519.733766 
L 508.828987 516.740308 
L 520.328408 514.13709 
L 532.015491 511.884036 
L 543.865927 509.939643 
L 555.854358 508.261253 
L 567.954586 506.805333 
L 580.139797 505.527758 
L 592.382768 504.384089 
L 604.656086 503.329854 
L 616.932363 502.320833 
L 629.18445 501.313332 
L 641.38564 500.264455 
L 653.509884 499.13238 
L 665.531986 497.876619 
L 677.427806 496.458275 
L 689.174451 494.840295 
L 700.750462 492.98771 
L 712.135989 490.867866 
L 723.31297 488.450644 
L 734.26529 485.708673 
L 744.978935 482.617518 
L 755.442136 479.155869 
L 765.645504 475.305705 
L 775.582154 471.052442 
L 785.247808 466.385071 
L 794.640901 461.296266 
L 803.762658 455.782488 
L 812.617166 449.844053 
L 821.211428 443.485188 
L 829.555399 436.714064 
L 837.662013 429.5428 
L 845.547182 421.987447 
L 853.229785 414.067946 
L 860.731634 405.808055 
L 868.077425 397.235257 
L 875.294664 388.380627 
L 882.413573 379.278677 
L 889.466975 369.967171 
L 896.490161 360.486902 
L 903.520724 350.881441 
L 910.598375 341.196847 
L 917.76474 331.481346 
L 925.063116 321.784972 
L 932.538217 312.15917 
L 940.235885 302.65636 
L 948.202773 293.329463 
L 956.486001 284.231387 
L 965.132786 275.414466 
L 974.190037 266.929867 
L 983.703921 258.826936 
L 993.7194 251.152521 
L 1004.279734 243.950227 
L 1015.425951 237.259643 
L 1027.196283 231.115506 
L 1039.62557 225.546824 
L 1052.744626 220.57595 
L 1066.579573 216.217596 
L 1081.151134 212.477804 
L 1096.473892 209.352861 
L 1112.555507 206.828152 
L 1129.395904 204.876972 
L 1146.986409 203.459267 
L 1165.30885 202.520326 
L 1184.334622 201.989412 
L 1204.023703 201.778332 
L 1224.323631 201.779946 
L 1245.168437 201.866619 
" clip-path="url(#pe5e0a06d34)" style="fill: none; stroke: #8c564b; stroke-width: 1.5"/>
    <path d="M 230.727273 891.716539 
L 239.143784 874.839459 
L 246.820051 858.105294 
L 254.034684 841.166471 
L 260.853993 824.099018 
L 267.343393 806.977182 
L 273.567147 789.872531 
L 285.467232 755.983693 
L 297.067574 722.83807 
L 302.886712 706.711662 
L 308.789243 690.948187 
L 314.825679 675.589686 
L 321.043958 660.67418 
L 327.489313 646.236097 
L 334.20402 632.306824 
L 341.226992 618.915352 
L 348.593147 606.088942 
L 356.332535 593.853712 
L 364.469218 582.23498 
L 373.020026 571.257205 
L 381.99336 560.943378 
L 391.388337 551.313798 
L 401.194556 542.384369 
L 411.392712 534.164671 
L 421.956058 526.656226 
L 432.852524 519.851337 
L 444.047096 513.732769 
L 455.504028 508.274279 
L 467.18853 503.441836 
L 479.067798 499.195205 
L 491.111387 495.489612 
L 503.291083 492.27725 
L 515.580473 489.508514 
L 527.954386 487.132934 
L 540.388334 485.099837 
L 552.858055 483.358807 
L 565.33916 481.86001 
L 577.806928 480.554426 
L 602.601452 478.332092 
L 639.145561 475.282459 
L 651.041012 474.171747 
L 662.744204 472.949297 
L 674.231544 471.579656 
L 685.480966 470.030164 
L 696.472432 468.271127 
L 707.188486 466.27593 
L 717.614833 464.021047 
L 727.740925 461.485926 
L 737.560487 458.652736 
L 747.07193 455.505968 
L 756.278557 452.031917 
L 765.188506 448.21812 
L 773.814383 444.052839 
L 782.172576 439.524702 
L 790.282351 434.62263 
L 798.164837 429.3361 
L 805.842072 423.65574 
L 813.336279 417.574198 
L 820.669465 411.087123 
L 827.863377 404.194114 
L 834.939783 396.899502 
L 841.920977 389.212877 
L 848.830402 381.149335 
L 855.693285 372.729454 
L 862.537213 363.979082 
L 869.392605 354.928979 
L 883.275531 336.074622 
L 897.725011 316.397617 
L 905.25294 306.401 
L 913.048249 296.371492 
L 921.164313 286.365725 
L 929.655987 276.443777 
L 938.578373 266.669312 
L 947.985206 257.109546 
L 957.926896 247.834845 
L 968.448362 238.917703 
L 979.586986 230.430925 
L 991.371073 222.44497 
L 1003.819249 215.024669 
L 1016.941024 208.225786 
L 1030.738426 202.09201 
L 1045.208264 196.652888 
L 1060.344343 191.922915 
L 1076.139036 187.901627 
L 1092.58382 184.574302 
L 1109.668735 181.912772 
L 1127.380952 179.87598 
L 1145.702753 178.410078 
L 1164.609207 177.448028 
L 1184.06574 176.908796 
L 1204.025698 176.696274 
L 1245.272727 176.784778 
L 1245.272727 176.784778 
" clip-path="url(#pe5e0a06d34)" style="fill: none; stroke: #17becf; stroke-width: 1.5"/>
   </g>
   <g id="patch_3">
    <path d="M 180 950.974098 
L 180 139.825902 
" style="fill: none; stroke: #000000; stroke-width: 0.8; stroke-linejoin: miter; stroke-linecap: square"/>
   </g>
   <g id="patch_4">
    <path d="M 1296 950.974098 
L 1296 139.825902 
" style="fill: none; stroke: #000000; stroke-width: 0.8; stroke-linejoin: miter; stroke-linecap: square"/>
   </g>
   <g id="patch_5">
    <path d="M 180 950.974098 
L 1296 950.974098 
" style="fill: none; stroke: #000000; stroke-width: 0.8; stroke-linejoin: miter; stroke-linecap: square"/>
   </g>
   <g id="patch_6">
    <path d="M 180 139.825902 
L 1296 139.825902 
" style="fill: none; stroke: #000000; stroke-width: 0.8; stroke-linejoin: miter; stroke-linecap: square"/>
   </g>
  </g>
 </g>
 <defs>
  <clipPath id="pe5e0a06d34">
   <rect x="180" y="139.825902" width="1116" height="811.148197"/>
  </clipPath>
 </defs>
</svg>
