<?xml version="1.0" encoding="utf-8" standalone="no"?>
<!DOCTYPE svg PUBLIC "-//W3C//DTD SVG 1.1//EN"
  "http://www.w3.org/Graphics/SVG/1.1/DTD/svg11.dtd">
<svg xmlns:xlink="http://www.w3.org/1999/xlink" width="1440pt" height="1080pt" viewBox="0 0 1440 1080" xmlns="http://www.w3.org/2000/svg" version="1.1">
 <metadata>
  <rdf:RDF xmlns:dc="http://purl.org/dc/elements/1.1/" xmlns:cc="http://creativecommons.org/ns#" xmlns:rdf="http://www.w3.org/1999/02/22-rdf-syntax-ns#">
   <cc:Work>
    <dc:type rdf:resource="http://purl.org/dc/dcmitype/StillImage"/>
    <dc:date>2023-12-11T12:06:58.646975</dc:date>
    <dc:format>image/svg+xml</dc:format>
    <dc:creator>
     <cc:Agent>
      <dc:title>Matplotlib v3.7.1, https://matplotlib.org/</dc:title>
     </cc:Agent>
    </dc:creator>
   </cc:Work>
  </rdf:RDF>
 </metadata>
 <defs>
  <style type="text/css">*{stroke-linejoin: round; stroke-linecap: butt}</style>
 </defs>
 <g id="figure_1">
  <g id="patch_1">
   <path d="M 0 1080 
L 1440 1080 
L 1440 0 
L 0 0 
z
" style="fill: #ffffff"/>
  </g>
  <g id="axes_1">
   <g id="patch_2">
    <path d="M 180 884.774451 
L 1296 884.774451 
L 1296 206.025549 
L 180 206.025549 
z
" style="fill: #ffffff"/>
   </g>
   <g id="matplotlib.axis_1">
    <g id="xtick_1">
     <g id="line2d_1">
      <defs>
       <path id="m2e9615808c" d="M 0 0 
L 0 3.5 
" style="stroke: #000000; stroke-width: 0.8"/>
      </defs>
      <g>
       <use xlink:href="#m2e9615808c" x="248.057054" y="884.774451" style="stroke: #000000; stroke-width: 0.8"/>
      </g>
     </g>
     <g id="text_1">
      <!-- 100 -->
      <g transform="translate(238.513304 899.372889) scale(0.1 -0.1)">
       <defs>
        <path id="DejaVuSans-31" d="M 794 531 
L 1825 531 
L 1825 4091 
L 703 3866 
L 703 4441 
L 1819 4666 
L 2450 4666 
L 2450 531 
L 3481 531 
L 3481 0 
L 794 0 
L 794 531 
z
" transform="scale(0.015625)"/>
        <path id="DejaVuSans-30" d="M 2034 4250 
Q 1547 4250 1301 3770 
Q 1056 3291 1056 2328 
Q 1056 1369 1301 889 
Q 1547 409 2034 409 
Q 2525 409 2770 889 
Q 3016 1369 3016 2328 
Q 3016 3291 2770 3770 
Q 2525 4250 2034 4250 
z
M 2034 4750 
Q 2819 4750 3233 4129 
Q 3647 3509 3647 2328 
Q 3647 1150 3233 529 
Q 2819 -91 2034 -91 
Q 1250 -91 836 529 
Q 422 1150 422 2328 
Q 422 3509 836 4129 
Q 1250 4750 2034 4750 
z
" transform="scale(0.015625)"/>
       </defs>
       <use xlink:href="#DejaVuSans-31"/>
       <use xlink:href="#DejaVuSans-30" x="63.623047"/>
       <use xlink:href="#DejaVuSans-30" x="127.246094"/>
      </g>
     </g>
    </g>
    <g id="xtick_2">
     <g id="line2d_2">
      <g>
       <use xlink:href="#m2e9615808c" x="387.491223" y="884.774451" style="stroke: #000000; stroke-width: 0.8"/>
      </g>
     </g>
     <g id="text_2">
      <!-- 200 -->
      <g transform="translate(377.947473 899.372889) scale(0.1 -0.1)">
       <defs>
        <path id="DejaVuSans-32" d="M 1228 531 
L 3431 531 
L 3431 0 
L 469 0 
L 469 531 
Q 828 903 1448 1529 
Q 2069 2156 2228 2338 
Q 2531 2678 2651 2914 
Q 2772 3150 2772 3378 
Q 2772 3750 2511 3984 
Q 2250 4219 1831 4219 
Q 1534 4219 1204 4116 
Q 875 4013 500 3803 
L 500 4441 
Q 881 4594 1212 4672 
Q 1544 4750 1819 4750 
Q 2544 4750 2975 4387 
Q 3406 4025 3406 3419 
Q 3406 3131 3298 2873 
Q 3191 2616 2906 2266 
Q 2828 2175 2409 1742 
Q 1991 1309 1228 531 
z
" transform="scale(0.015625)"/>
       </defs>
       <use xlink:href="#DejaVuSans-32"/>
       <use xlink:href="#DejaVuSans-30" x="63.623047"/>
       <use xlink:href="#DejaVuSans-30" x="127.246094"/>
      </g>
     </g>
    </g>
    <g id="xtick_3">
     <g id="line2d_3">
      <g>
       <use xlink:href="#m2e9615808c" x="526.925391" y="884.774451" style="stroke: #000000; stroke-width: 0.8"/>
      </g>
     </g>
     <g id="text_3">
      <!-- 300 -->
      <g transform="translate(517.381641 899.372889) scale(0.1 -0.1)">
       <defs>
        <path id="DejaVuSans-33" d="M 2597 2516 
Q 3050 2419 3304 2112 
Q 3559 1806 3559 1356 
Q 3559 666 3084 287 
Q 2609 -91 1734 -91 
Q 1441 -91 1130 -33 
Q 819 25 488 141 
L 488 750 
Q 750 597 1062 519 
Q 1375 441 1716 441 
Q 2309 441 2620 675 
Q 2931 909 2931 1356 
Q 2931 1769 2642 2001 
Q 2353 2234 1838 2234 
L 1294 2234 
L 1294 2753 
L 1863 2753 
Q 2328 2753 2575 2939 
Q 2822 3125 2822 3475 
Q 2822 3834 2567 4026 
Q 2313 4219 1838 4219 
Q 1578 4219 1281 4162 
Q 984 4106 628 3988 
L 628 4550 
Q 988 4650 1302 4700 
Q 1616 4750 1894 4750 
Q 2613 4750 3031 4423 
Q 3450 4097 3450 3541 
Q 3450 3153 3228 2886 
Q 3006 2619 2597 2516 
z
" transform="scale(0.015625)"/>
       </defs>
       <use xlink:href="#DejaVuSans-33"/>
       <use xlink:href="#DejaVuSans-30" x="63.623047"/>
       <use xlink:href="#DejaVuSans-30" x="127.246094"/>
      </g>
     </g>
    </g>
    <g id="xtick_4">
     <g id="line2d_4">
      <g>
       <use xlink:href="#m2e9615808c" x="666.35956" y="884.774451" style="stroke: #000000; stroke-width: 0.8"/>
      </g>
     </g>
     <g id="text_4">
      <!-- 400 -->
      <g transform="translate(656.81581 899.372889) scale(0.1 -0.1)">
       <defs>
        <path id="DejaVuSans-34" d="M 2419 4116 
L 825 1625 
L 2419 1625 
L 2419 4116 
z
M 2253 4666 
L 3047 4666 
L 3047 1625 
L 3713 1625 
L 3713 1100 
L 3047 1100 
L 3047 0 
L 2419 0 
L 2419 1100 
L 313 1100 
L 313 1709 
L 2253 4666 
z
" transform="scale(0.015625)"/>
       </defs>
       <use xlink:href="#DejaVuSans-34"/>
       <use xlink:href="#DejaVuSans-30" x="63.623047"/>
       <use xlink:href="#DejaVuSans-30" x="127.246094"/>
      </g>
     </g>
    </g>
    <g id="xtick_5">
     <g id="line2d_5">
      <g>
       <use xlink:href="#m2e9615808c" x="805.793729" y="884.774451" style="stroke: #000000; stroke-width: 0.8"/>
      </g>
     </g>
     <g id="text_5">
      <!-- 500 -->
      <g transform="translate(796.249979 899.372889) scale(0.1 -0.1)">
       <defs>
        <path id="DejaVuSans-35" d="M 691 4666 
L 3169 4666 
L 3169 4134 
L 1269 4134 
L 1269 2991 
Q 1406 3038 1543 3061 
Q 1681 3084 1819 3084 
Q 2600 3084 3056 2656 
Q 3513 2228 3513 1497 
Q 3513 744 3044 326 
Q 2575 -91 1722 -91 
Q 1428 -91 1123 -41 
Q 819 9 494 109 
L 494 744 
Q 775 591 1075 516 
Q 1375 441 1709 441 
Q 2250 441 2565 725 
Q 2881 1009 2881 1497 
Q 2881 1984 2565 2268 
Q 2250 2553 1709 2553 
Q 1456 2553 1204 2497 
Q 953 2441 691 2322 
L 691 4666 
z
" transform="scale(0.015625)"/>
       </defs>
       <use xlink:href="#DejaVuSans-35"/>
       <use xlink:href="#DejaVuSans-30" x="63.623047"/>
       <use xlink:href="#DejaVuSans-30" x="127.246094"/>
      </g>
     </g>
    </g>
    <g id="xtick_6">
     <g id="line2d_6">
      <g>
       <use xlink:href="#m2e9615808c" x="945.227898" y="884.774451" style="stroke: #000000; stroke-width: 0.8"/>
      </g>
     </g>
     <g id="text_6">
      <!-- 600 -->
      <g transform="translate(935.684148 899.372889) scale(0.1 -0.1)">
       <defs>
        <path id="DejaVuSans-36" d="M 2113 2584 
Q 1688 2584 1439 2293 
Q 1191 2003 1191 1497 
Q 1191 994 1439 701 
Q 1688 409 2113 409 
Q 2538 409 2786 701 
Q 3034 994 3034 1497 
Q 3034 2003 2786 2293 
Q 2538 2584 2113 2584 
z
M 3366 4563 
L 3366 3988 
Q 3128 4100 2886 4159 
Q 2644 4219 2406 4219 
Q 1781 4219 1451 3797 
Q 1122 3375 1075 2522 
Q 1259 2794 1537 2939 
Q 1816 3084 2150 3084 
Q 2853 3084 3261 2657 
Q 3669 2231 3669 1497 
Q 3669 778 3244 343 
Q 2819 -91 2113 -91 
Q 1303 -91 875 529 
Q 447 1150 447 2328 
Q 447 3434 972 4092 
Q 1497 4750 2381 4750 
Q 2619 4750 2861 4703 
Q 3103 4656 3366 4563 
z
" transform="scale(0.015625)"/>
       </defs>
       <use xlink:href="#DejaVuSans-36"/>
       <use xlink:href="#DejaVuSans-30" x="63.623047"/>
       <use xlink:href="#DejaVuSans-30" x="127.246094"/>
      </g>
     </g>
    </g>
    <g id="xtick_7">
     <g id="line2d_7">
      <g>
       <use xlink:href="#m2e9615808c" x="1084.662066" y="884.774451" style="stroke: #000000; stroke-width: 0.8"/>
      </g>
     </g>
     <g id="text_7">
      <!-- 700 -->
      <g transform="translate(1075.118316 899.372889) scale(0.1 -0.1)">
       <defs>
        <path id="DejaVuSans-37" d="M 525 4666 
L 3525 4666 
L 3525 4397 
L 1831 0 
L 1172 0 
L 2766 4134 
L 525 4134 
L 525 4666 
z
" transform="scale(0.015625)"/>
       </defs>
       <use xlink:href="#DejaVuSans-37"/>
       <use xlink:href="#DejaVuSans-30" x="63.623047"/>
       <use xlink:href="#DejaVuSans-30" x="127.246094"/>
      </g>
     </g>
    </g>
    <g id="xtick_8">
     <g id="line2d_8">
      <g>
       <use xlink:href="#m2e9615808c" x="1224.096235" y="884.774451" style="stroke: #000000; stroke-width: 0.8"/>
      </g>
     </g>
     <g id="text_8">
      <!-- 800 -->
      <g transform="translate(1214.552485 899.372889) scale(0.1 -0.1)">
       <defs>
        <path id="DejaVuSans-38" d="M 2034 2216 
Q 1584 2216 1326 1975 
Q 1069 1734 1069 1313 
Q 1069 891 1326 650 
Q 1584 409 2034 409 
Q 2484 409 2743 651 
Q 3003 894 3003 1313 
Q 3003 1734 2745 1975 
Q 2488 2216 2034 2216 
z
M 1403 2484 
Q 997 2584 770 2862 
Q 544 3141 544 3541 
Q 544 4100 942 4425 
Q 1341 4750 2034 4750 
Q 2731 4750 3128 4425 
Q 3525 4100 3525 3541 
Q 3525 3141 3298 2862 
Q 3072 2584 2669 2484 
Q 3125 2378 3379 2068 
Q 3634 1759 3634 1313 
Q 3634 634 3220 271 
Q 2806 -91 2034 -91 
Q 1263 -91 848 271 
Q 434 634 434 1313 
Q 434 1759 690 2068 
Q 947 2378 1403 2484 
z
M 1172 3481 
Q 1172 3119 1398 2916 
Q 1625 2713 2034 2713 
Q 2441 2713 2670 2916 
Q 2900 3119 2900 3481 
Q 2900 3844 2670 4047 
Q 2441 4250 2034 4250 
Q 1625 4250 1398 4047 
Q 1172 3844 1172 3481 
z
" transform="scale(0.015625)"/>
       </defs>
       <use xlink:href="#DejaVuSans-38"/>
       <use xlink:href="#DejaVuSans-30" x="63.623047"/>
       <use xlink:href="#DejaVuSans-30" x="127.246094"/>
      </g>
     </g>
    </g>
   </g>
   <g id="matplotlib.axis_2">
    <g id="ytick_1">
     <g id="line2d_9">
      <defs>
       <path id="mc135e61be2" d="M 0 0 
L -3.5 0 
" style="stroke: #000000; stroke-width: 0.8"/>
      </defs>
      <g>
       <use xlink:href="#mc135e61be2" x="180" y="776.306283" style="stroke: #000000; stroke-width: 0.8"/>
      </g>
     </g>
     <g id="text_9">
      <!-- 400 -->
      <g transform="translate(153.9125 780.105502) scale(0.1 -0.1)">
       <use xlink:href="#DejaVuSans-34"/>
       <use xlink:href="#DejaVuSans-30" x="63.623047"/>
       <use xlink:href="#DejaVuSans-30" x="127.246094"/>
      </g>
     </g>
    </g>
    <g id="ytick_2">
     <g id="line2d_10">
      <g>
       <use xlink:href="#mc135e61be2" x="180" y="636.872114" style="stroke: #000000; stroke-width: 0.8"/>
      </g>
     </g>
     <g id="text_10">
      <!-- 500 -->
      <g transform="translate(153.9125 640.671333) scale(0.1 -0.1)">
       <use xlink:href="#DejaVuSans-35"/>
       <use xlink:href="#DejaVuSans-30" x="63.623047"/>
       <use xlink:href="#DejaVuSans-30" x="127.246094"/>
      </g>
     </g>
    </g>
    <g id="ytick_3">
     <g id="line2d_11">
      <g>
       <use xlink:href="#mc135e61be2" x="180" y="497.437946" style="stroke: #000000; stroke-width: 0.8"/>
      </g>
     </g>
     <g id="text_11">
      <!-- 600 -->
      <g transform="translate(153.9125 501.237164) scale(0.1 -0.1)">
       <use xlink:href="#DejaVuSans-36"/>
       <use xlink:href="#DejaVuSans-30" x="63.623047"/>
       <use xlink:href="#DejaVuSans-30" x="127.246094"/>
      </g>
     </g>
    </g>
    <g id="ytick_4">
     <g id="line2d_12">
      <g>
       <use xlink:href="#mc135e61be2" x="180" y="358.003777" style="stroke: #000000; stroke-width: 0.8"/>
      </g>
     </g>
     <g id="text_12">
      <!-- 700 -->
      <g transform="translate(153.9125 361.802996) scale(0.1 -0.1)">
       <use xlink:href="#DejaVuSans-37"/>
       <use xlink:href="#DejaVuSans-30" x="63.623047"/>
       <use xlink:href="#DejaVuSans-30" x="127.246094"/>
      </g>
     </g>
    </g>
    <g id="ytick_5">
     <g id="line2d_13">
      <g>
       <use xlink:href="#mc135e61be2" x="180" y="218.569608" style="stroke: #000000; stroke-width: 0.8"/>
      </g>
     </g>
     <g id="text_13">
      <!-- 800 -->
      <g transform="translate(153.9125 222.368827) scale(0.1 -0.1)">
       <use xlink:href="#DejaVuSans-38"/>
       <use xlink:href="#DejaVuSans-30" x="63.623047"/>
       <use xlink:href="#DejaVuSans-30" x="127.246094"/>
      </g>
     </g>
    </g>
   </g>
   <g id="LineCollection_1">
    <path d="M 230.727273 671.660792 
L 259.131658 701.57286 
L 285.827907 728.05153 
L 310.944695 751.345258 
L 334.606345 771.68851 
L 356.932794 789.301442 
L 378.03921 804.389413 
L 398.035078 817.142396 
L 417.022579 827.734508 
L 435.094215 836.324023 
L 452.329845 843.054408 
L 468.79378 848.056878 
L 484.533044 851.454659 
L 499.578072 853.368384 
L 513.946588 853.921169 
L 527.650118 853.241552 
L 540.701289 851.46316 
L 553.119597 848.721327 
L 564.934171 845.148215 
L 576.183453 840.868211 
L 586.912817 835.994819 
L 597.171436 830.629321 
L 607.009373 824.860844 
L 616.475373 818.767281 
L 625.615441 812.416553 
L 634.472071 805.867884 
L 643.083962 799.172946 
L 651.486016 792.376795 
L 659.709527 785.518631 
L 675.729639 771.747219 
L 714.310355 738.034276 
L 729.467455 725.136257 
L 744.592743 712.638822 
L 759.744788 700.524068 
L 774.964161 688.740764 
L 790.275082 677.209968 
L 813.428862 660.159916 
L 836.808411 643.007626 
L 852.463845 631.293578 
L 868.124736 619.189089 
L 875.942142 612.94542 
L 883.742181 606.550911 
L 891.518161 599.98897 
L 899.263408 593.243904 
L 906.971415 586.301096 
L 914.636004 579.147194 
L 922.251493 571.770264 
L 929.812867 564.159953 
L 937.315943 556.307622 
L 944.757523 548.206478 
L 952.135541 539.851697 
L 959.449186 531.240548 
L 966.699007 522.372515 
L 973.887005 513.249432 
L 981.016698 503.875633 
L 988.093174 494.258115 
L 995.123132 484.406722 
L 1002.114907 474.334352 
L 1009.078483 464.05718 
L 1022.969286 442.971021 
L 1058.26945 388.473998 
L 1065.583541 377.592853 
L 1073.033783 366.842372 
L 1080.645086 356.286371 
L 1088.442943 345.994599 
L 1096.453078 336.042558 
L 1104.701123 326.51099 
L 1113.212476 317.484907 
L 1122.012623 309.052021 
L 1131.128385 301.300534 
L 1140.590727 294.316544 
L 1150.439783 288.18183 
L 1160.732197 282.973603 
L 1171.549547 278.768282 
L 1183.004602 275.650678 
L 1195.241065 273.727287 
L 1208.424273 273.13883 
L 1222.725242 274.065954 
L 1239.172627 276.873508 
L 1239.172627 276.873508 
" clip-path="url(#p6e5eadda07)" style="fill: none; stroke: #1f77b4; stroke-width: 1.5"/>
    <path d="M 243.874029 659.181581 
L 271.899905 688.706634 
L 298.15876 714.765524 
L 322.768965 737.606462 
L 345.843134 757.465203 
L 367.488321 774.565474 
L 387.806207 789.119388 
L 406.893288 801.327846 
L 424.84105 811.380933 
L 441.736146 819.458299 
L 457.66057 825.729534 
L 472.691815 830.354527 
L 486.903043 833.483821 
L 500.363238 835.258956 
L 513.137357 835.812799 
L 525.286487 835.269876 
L 536.867981 833.74668 
L 547.935607 831.351982 
L 558.539683 828.18713 
L 568.727208 824.346337 
L 578.542 819.916967 
L 588.024816 814.979808 
L 597.21348 809.609339 
L 606.143004 803.873993 
L 614.845704 797.836407 
L 623.351317 791.553671 
L 631.687109 785.077569 
L 639.877991 778.454811 
L 647.946618 771.727262 
L 655.913498 764.932165 
L 663.797094 758.102356 
L 671.613918 751.266479 
L 679.378635 744.449188 
L 687.104153 737.671352 
L 694.801717 730.95025 
L 702.481002 724.299768 
L 710.1502 717.730583 
L 717.816109 711.250349 
L 725.484217 704.863881 
L 733.158791 698.573331 
L 740.842954 692.378363 
L 748.53877 686.276325 
L 756.247327 680.262419 
L 763.968812 674.329869 
L 771.702592 668.470083 
L 779.447293 662.672817 
L 787.200875 656.926339 
L 794.96071 651.217586 
L 802.723655 645.532322 
L 810.486134 639.855299 
L 818.244205 634.170411 
L 825.993642 628.460851 
L 833.730005 622.709269 
L 841.448717 616.897925 
L 849.14514 611.008849 
L 856.81465 605.023997 
L 864.452708 598.925406 
L 872.054944 592.695356 
L 879.617226 586.316529 
L 887.135743 579.772169 
L 894.607079 573.046245 
L 902.028292 566.123619 
L 909.396998 558.990208 
L 916.711445 551.633157 
L 923.970601 544.04101 
L 931.174235 536.203887 
L 938.323 528.113656 
L 945.418521 519.764122 
L 952.463484 511.151206 
L 959.46172 502.273137 
L 966.418304 493.130644 
L 973.339641 483.727153 
L 980.233566 474.06899 
L 987.109439 464.165583 
L 993.978245 454.029681 
L 1000.852695 443.677565 
L 1007.747333 433.129271 
L 1014.678637 422.40882 
L 1021.665138 411.544452 
L 1028.727522 400.568863 
L 1035.888751 389.519457 
L 1043.174182 378.438594 
L 1050.611682 367.373855 
L 1058.23176 356.378305 
L 1066.06769 345.510772 
L 1074.155641 334.836129 
L 1082.534816 324.425581 
L 1091.247586 314.356969 
L 1100.339636 304.715071 
L 1109.860105 295.591925 
L 1119.86174 287.087145 
L 1130.40105 279.308264 
L 1141.538461 272.371068 
L 1153.338479 266.399954 
L 1165.869857 261.528293 
L 1179.205765 257.898796 
L 1193.423967 255.663906 
L 1208.606999 254.986183 
L 1224.842356 256.038711 
L 1242.222677 259.005517 
" clip-path="url(#p6e5eadda07)" style="fill: none; stroke: #8c564b; stroke-width: 1.5"/>
    <path d="M 257.020785 646.702371 
L 284.860296 676.03109 
L 310.711821 701.685751 
L 334.850771 724.089312 
L 357.378754 743.47798 
L 378.390509 760.077824 
L 397.974487 774.106031 
L 416.213851 785.772273 
L 433.188101 795.280067 
L 448.975416 802.827814 
L 463.655701 808.609092 
L 477.313914 812.811614 
L 490.042811 815.614501 
L 501.943864 817.184015 
L 513.125301 817.668806 
L 523.697111 817.19637 
L 533.764257 815.872341 
L 543.420277 813.783071 
L 552.743246 811.000573 
L 561.794878 807.588023 
L 570.622241 803.604275 
L 579.26086 799.106641 
L 587.738042 794.15201 
L 596.075685 788.796823 
L 604.292328 783.096444 
L 612.404455 777.104359 
L 620.427242 770.871432 
L 628.374898 764.445334 
L 636.260785 757.870152 
L 651.896288 744.429738 
L 690.689037 710.533234 
L 706.215727 697.321995 
L 721.782029 684.461734 
L 737.389013 671.984691 
L 753.021997 659.8822 
L 768.654196 648.109955 
L 792.013604 630.908277 
L 815.21025 613.890749 
L 830.48967 602.45936 
L 845.583562 590.795828 
L 853.052486 584.832282 
L 860.466025 578.75687 
L 867.822429 572.551702 
L 875.120605 566.199134 
L 882.360117 559.681905 
L 889.541197 552.983279 
L 896.66473 546.087212 
L 903.732251 538.978525 
L 910.74594 531.643106 
L 917.708627 524.068119 
L 924.623809 516.242233 
L 931.49569 508.155863 
L 938.329239 499.801413 
L 945.130269 491.173523 
L 951.905543 482.269312 
L 958.662897 473.088612 
L 965.411387 463.634199 
L 972.161445 453.912005 
L 978.925062 443.931326 
L 992.549856 423.249664 
L 1028.130463 368.326502 
L 1035.713195 357.048983 
L 1043.528787 345.776868 
L 1051.619962 334.564035 
L 1060.0349 323.470718 
L 1068.827864 312.564411 
L 1078.059742 301.921187 
L 1087.798309 291.627557 
L 1098.117827 281.782985 
L 1109.09743 272.502992 
L 1120.817596 263.922384 
L 1133.354197 256.197456 
L 1146.770553 249.505274 
L 1161.109716 244.03804 
L 1176.391116 239.992215 
L 1190.609319 237.757325 
L 1192.615664 237.555495 
L 1209.779665 236.897712 
L 1227.892406 238.170721 
L 1245.272727 241.137526 
L 1245.272727 241.137526 
" clip-path="url(#p6e5eadda07)" style="fill: none; stroke: #17becf; stroke-width: 1.5"/>
   </g>
   <g id="patch_3">
    <path d="M 180 884.774451 
L 180 206.025549 
" style="fill: none; stroke: #000000; stroke-width: 0.8; stroke-linejoin: miter; stroke-linecap: square"/>
   </g>
   <g id="patch_4">
    <path d="M 1296 884.774451 
L 1296 206.025549 
" style="fill: none; stroke: #000000; stroke-width: 0.8; stroke-linejoin: miter; stroke-linecap: square"/>
   </g>
   <g id="patch_5">
    <path d="M 180 884.774451 
L 1296 884.774451 
" style="fill: none; stroke: #000000; stroke-width: 0.8; stroke-linejoin: miter; stroke-linecap: square"/>
   </g>
   <g id="patch_6">
    <path d="M 180 206.025549 
L 1296 206.025549 
" style="fill: none; stroke: #000000; stroke-width: 0.8; stroke-linejoin: miter; stroke-linecap: square"/>
   </g>
  </g>
 </g>
 <defs>
  <clipPath id="p6e5eadda07">
   <rect x="180" y="206.025549" width="1116" height="678.748902"/>
  </clipPath>
 </defs>
</svg>
