<?xml version="1.0" encoding="utf-8" standalone="no"?>
<!DOCTYPE svg PUBLIC "-//W3C//DTD SVG 1.1//EN"
  "http://www.w3.org/Graphics/SVG/1.1/DTD/svg11.dtd">
<svg xmlns:xlink="http://www.w3.org/1999/xlink" width="1440pt" height="1080pt" viewBox="0 0 1440 1080" xmlns="http://www.w3.org/2000/svg" version="1.1">
 <metadata>
  <rdf:RDF xmlns:dc="http://purl.org/dc/elements/1.1/" xmlns:cc="http://creativecommons.org/ns#" xmlns:rdf="http://www.w3.org/1999/02/22-rdf-syntax-ns#">
   <cc:Work>
    <dc:type rdf:resource="http://purl.org/dc/dcmitype/StillImage"/>
    <dc:date>2023-12-11T12:07:06.890297</dc:date>
    <dc:format>image/svg+xml</dc:format>
    <dc:creator>
     <cc:Agent>
      <dc:title>Matplotlib v3.7.1, https://matplotlib.org/</dc:title>
     </cc:Agent>
    </dc:creator>
   </cc:Work>
  </rdf:RDF>
 </metadata>
 <defs>
  <style type="text/css">*{stroke-linejoin: round; stroke-linecap: butt}</style>
 </defs>
 <g id="figure_1">
  <g id="patch_1">
   <path d="M 0 1080 
L 1440 1080 
L 1440 0 
L 0 0 
z
" style="fill: #ffffff"/>
  </g>
  <g id="axes_1">
   <g id="patch_2">
    <path d="M 620.923118 961.2 
L 855.076882 961.2 
L 855.076882 129.6 
L 620.923118 129.6 
z
" style="fill: #ffffff"/>
   </g>
   <g id="matplotlib.axis_1">
    <g id="xtick_1">
     <g id="line2d_1">
      <defs>
       <path id="m00ea7d3d94" d="M 0 0 
L 0 3.5 
" style="stroke: #000000; stroke-width: 0.8"/>
      </defs>
      <g>
       <use xlink:href="#m00ea7d3d94" x="631.244683" y="961.2" style="stroke: #000000; stroke-width: 0.8"/>
      </g>
     </g>
     <g id="text_1">
      <!-- 1100 -->
      <g transform="translate(618.519683 975.798437) scale(0.1 -0.1)">
       <defs>
        <path id="DejaVuSans-31" d="M 794 531 
L 1825 531 
L 1825 4091 
L 703 3866 
L 703 4441 
L 1819 4666 
L 2450 4666 
L 2450 531 
L 3481 531 
L 3481 0 
L 794 0 
L 794 531 
z
" transform="scale(0.015625)"/>
        <path id="DejaVuSans-30" d="M 2034 4250 
Q 1547 4250 1301 3770 
Q 1056 3291 1056 2328 
Q 1056 1369 1301 889 
Q 1547 409 2034 409 
Q 2525 409 2770 889 
Q 3016 1369 3016 2328 
Q 3016 3291 2770 3770 
Q 2525 4250 2034 4250 
z
M 2034 4750 
Q 2819 4750 3233 4129 
Q 3647 3509 3647 2328 
Q 3647 1150 3233 529 
Q 2819 -91 2034 -91 
Q 1250 -91 836 529 
Q 422 1150 422 2328 
Q 422 3509 836 4129 
Q 1250 4750 2034 4750 
z
" transform="scale(0.015625)"/>
       </defs>
       <use xlink:href="#DejaVuSans-31"/>
       <use xlink:href="#DejaVuSans-31" x="63.623047"/>
       <use xlink:href="#DejaVuSans-30" x="127.246094"/>
       <use xlink:href="#DejaVuSans-30" x="190.869141"/>
      </g>
     </g>
    </g>
    <g id="xtick_2">
     <g id="line2d_2">
      <g>
       <use xlink:href="#m00ea7d3d94" x="676.507168" y="961.2" style="stroke: #000000; stroke-width: 0.8"/>
      </g>
     </g>
     <g id="text_2">
      <!-- 1150 -->
      <g transform="translate(663.782168 975.798437) scale(0.1 -0.1)">
       <defs>
        <path id="DejaVuSans-35" d="M 691 4666 
L 3169 4666 
L 3169 4134 
L 1269 4134 
L 1269 2991 
Q 1406 3038 1543 3061 
Q 1681 3084 1819 3084 
Q 2600 3084 3056 2656 
Q 3513 2228 3513 1497 
Q 3513 744 3044 326 
Q 2575 -91 1722 -91 
Q 1428 -91 1123 -41 
Q 819 9 494 109 
L 494 744 
Q 775 591 1075 516 
Q 1375 441 1709 441 
Q 2250 441 2565 725 
Q 2881 1009 2881 1497 
Q 2881 1984 2565 2268 
Q 2250 2553 1709 2553 
Q 1456 2553 1204 2497 
Q 953 2441 691 2322 
L 691 4666 
z
" transform="scale(0.015625)"/>
       </defs>
       <use xlink:href="#DejaVuSans-31"/>
       <use xlink:href="#DejaVuSans-31" x="63.623047"/>
       <use xlink:href="#DejaVuSans-35" x="127.246094"/>
       <use xlink:href="#DejaVuSans-30" x="190.869141"/>
      </g>
     </g>
    </g>
    <g id="xtick_3">
     <g id="line2d_3">
      <g>
       <use xlink:href="#m00ea7d3d94" x="721.769654" y="961.2" style="stroke: #000000; stroke-width: 0.8"/>
      </g>
     </g>
     <g id="text_3">
      <!-- 1200 -->
      <g transform="translate(709.044654 975.798437) scale(0.1 -0.1)">
       <defs>
        <path id="DejaVuSans-32" d="M 1228 531 
L 3431 531 
L 3431 0 
L 469 0 
L 469 531 
Q 828 903 1448 1529 
Q 2069 2156 2228 2338 
Q 2531 2678 2651 2914 
Q 2772 3150 2772 3378 
Q 2772 3750 2511 3984 
Q 2250 4219 1831 4219 
Q 1534 4219 1204 4116 
Q 875 4013 500 3803 
L 500 4441 
Q 881 4594 1212 4672 
Q 1544 4750 1819 4750 
Q 2544 4750 2975 4387 
Q 3406 4025 3406 3419 
Q 3406 3131 3298 2873 
Q 3191 2616 2906 2266 
Q 2828 2175 2409 1742 
Q 1991 1309 1228 531 
z
" transform="scale(0.015625)"/>
       </defs>
       <use xlink:href="#DejaVuSans-31"/>
       <use xlink:href="#DejaVuSans-32" x="63.623047"/>
       <use xlink:href="#DejaVuSans-30" x="127.246094"/>
       <use xlink:href="#DejaVuSans-30" x="190.869141"/>
      </g>
     </g>
    </g>
    <g id="xtick_4">
     <g id="line2d_4">
      <g>
       <use xlink:href="#m00ea7d3d94" x="767.03214" y="961.2" style="stroke: #000000; stroke-width: 0.8"/>
      </g>
     </g>
     <g id="text_4">
      <!-- 1250 -->
      <g transform="translate(754.30714 975.798437) scale(0.1 -0.1)">
       <use xlink:href="#DejaVuSans-31"/>
       <use xlink:href="#DejaVuSans-32" x="63.623047"/>
       <use xlink:href="#DejaVuSans-35" x="127.246094"/>
       <use xlink:href="#DejaVuSans-30" x="190.869141"/>
      </g>
     </g>
    </g>
    <g id="xtick_5">
     <g id="line2d_5">
      <g>
       <use xlink:href="#m00ea7d3d94" x="812.294626" y="961.2" style="stroke: #000000; stroke-width: 0.8"/>
      </g>
     </g>
     <g id="text_5">
      <!-- 1300 -->
      <g transform="translate(799.569626 975.798437) scale(0.1 -0.1)">
       <defs>
        <path id="DejaVuSans-33" d="M 2597 2516 
Q 3050 2419 3304 2112 
Q 3559 1806 3559 1356 
Q 3559 666 3084 287 
Q 2609 -91 1734 -91 
Q 1441 -91 1130 -33 
Q 819 25 488 141 
L 488 750 
Q 750 597 1062 519 
Q 1375 441 1716 441 
Q 2309 441 2620 675 
Q 2931 909 2931 1356 
Q 2931 1769 2642 2001 
Q 2353 2234 1838 2234 
L 1294 2234 
L 1294 2753 
L 1863 2753 
Q 2328 2753 2575 2939 
Q 2822 3125 2822 3475 
Q 2822 3834 2567 4026 
Q 2313 4219 1838 4219 
Q 1578 4219 1281 4162 
Q 984 4106 628 3988 
L 628 4550 
Q 988 4650 1302 4700 
Q 1616 4750 1894 4750 
Q 2613 4750 3031 4423 
Q 3450 4097 3450 3541 
Q 3450 3153 3228 2886 
Q 3006 2619 2597 2516 
z
" transform="scale(0.015625)"/>
       </defs>
       <use xlink:href="#DejaVuSans-31"/>
       <use xlink:href="#DejaVuSans-33" x="63.623047"/>
       <use xlink:href="#DejaVuSans-30" x="127.246094"/>
       <use xlink:href="#DejaVuSans-30" x="190.869141"/>
      </g>
     </g>
    </g>
   </g>
   <g id="matplotlib.axis_2">
    <g id="ytick_1">
     <g id="line2d_6">
      <defs>
       <path id="mf91b54e068" d="M 0 0 
L -3.5 0 
" style="stroke: #000000; stroke-width: 0.8"/>
      </defs>
      <g>
       <use xlink:href="#mf91b54e068" x="620.923118" y="913.470853" style="stroke: #000000; stroke-width: 0.8"/>
      </g>
     </g>
     <g id="text_6">
      <!-- 200 -->
      <g transform="translate(594.835618 917.270072) scale(0.1 -0.1)">
       <use xlink:href="#DejaVuSans-32"/>
       <use xlink:href="#DejaVuSans-30" x="63.623047"/>
       <use xlink:href="#DejaVuSans-30" x="127.246094"/>
      </g>
     </g>
    </g>
    <g id="ytick_2">
     <g id="line2d_7">
      <g>
       <use xlink:href="#mf91b54e068" x="620.923118" y="732.42091" style="stroke: #000000; stroke-width: 0.8"/>
      </g>
     </g>
     <g id="text_7">
      <!-- 400 -->
      <g transform="translate(594.835618 736.220129) scale(0.1 -0.1)">
       <defs>
        <path id="DejaVuSans-34" d="M 2419 4116 
L 825 1625 
L 2419 1625 
L 2419 4116 
z
M 2253 4666 
L 3047 4666 
L 3047 1625 
L 3713 1625 
L 3713 1100 
L 3047 1100 
L 3047 0 
L 2419 0 
L 2419 1100 
L 313 1100 
L 313 1709 
L 2253 4666 
z
" transform="scale(0.015625)"/>
       </defs>
       <use xlink:href="#DejaVuSans-34"/>
       <use xlink:href="#DejaVuSans-30" x="63.623047"/>
       <use xlink:href="#DejaVuSans-30" x="127.246094"/>
      </g>
     </g>
    </g>
    <g id="ytick_3">
     <g id="line2d_8">
      <g>
       <use xlink:href="#mf91b54e068" x="620.923118" y="551.370967" style="stroke: #000000; stroke-width: 0.8"/>
      </g>
     </g>
     <g id="text_8">
      <!-- 600 -->
      <g transform="translate(594.835618 555.170186) scale(0.1 -0.1)">
       <defs>
        <path id="DejaVuSans-36" d="M 2113 2584 
Q 1688 2584 1439 2293 
Q 1191 2003 1191 1497 
Q 1191 994 1439 701 
Q 1688 409 2113 409 
Q 2538 409 2786 701 
Q 3034 994 3034 1497 
Q 3034 2003 2786 2293 
Q 2538 2584 2113 2584 
z
M 3366 4563 
L 3366 3988 
Q 3128 4100 2886 4159 
Q 2644 4219 2406 4219 
Q 1781 4219 1451 3797 
Q 1122 3375 1075 2522 
Q 1259 2794 1537 2939 
Q 1816 3084 2150 3084 
Q 2853 3084 3261 2657 
Q 3669 2231 3669 1497 
Q 3669 778 3244 343 
Q 2819 -91 2113 -91 
Q 1303 -91 875 529 
Q 447 1150 447 2328 
Q 447 3434 972 4092 
Q 1497 4750 2381 4750 
Q 2619 4750 2861 4703 
Q 3103 4656 3366 4563 
z
" transform="scale(0.015625)"/>
       </defs>
       <use xlink:href="#DejaVuSans-36"/>
       <use xlink:href="#DejaVuSans-30" x="63.623047"/>
       <use xlink:href="#DejaVuSans-30" x="127.246094"/>
      </g>
     </g>
    </g>
    <g id="ytick_4">
     <g id="line2d_9">
      <g>
       <use xlink:href="#mf91b54e068" x="620.923118" y="370.321024" style="stroke: #000000; stroke-width: 0.8"/>
      </g>
     </g>
     <g id="text_9">
      <!-- 800 -->
      <g transform="translate(594.835618 374.120243) scale(0.1 -0.1)">
       <defs>
        <path id="DejaVuSans-38" d="M 2034 2216 
Q 1584 2216 1326 1975 
Q 1069 1734 1069 1313 
Q 1069 891 1326 650 
Q 1584 409 2034 409 
Q 2484 409 2743 651 
Q 3003 894 3003 1313 
Q 3003 1734 2745 1975 
Q 2488 2216 2034 2216 
z
M 1403 2484 
Q 997 2584 770 2862 
Q 544 3141 544 3541 
Q 544 4100 942 4425 
Q 1341 4750 2034 4750 
Q 2731 4750 3128 4425 
Q 3525 4100 3525 3541 
Q 3525 3141 3298 2862 
Q 3072 2584 2669 2484 
Q 3125 2378 3379 2068 
Q 3634 1759 3634 1313 
Q 3634 634 3220 271 
Q 2806 -91 2034 -91 
Q 1263 -91 848 271 
Q 434 634 434 1313 
Q 434 1759 690 2068 
Q 947 2378 1403 2484 
z
M 1172 3481 
Q 1172 3119 1398 2916 
Q 1625 2713 2034 2713 
Q 2441 2713 2670 2916 
Q 2900 3119 2900 3481 
Q 2900 3844 2670 4047 
Q 2441 4250 2034 4250 
Q 1625 4250 1398 4047 
Q 1172 3844 1172 3481 
z
" transform="scale(0.015625)"/>
       </defs>
       <use xlink:href="#DejaVuSans-38"/>
       <use xlink:href="#DejaVuSans-30" x="63.623047"/>
       <use xlink:href="#DejaVuSans-30" x="127.246094"/>
      </g>
     </g>
    </g>
    <g id="ytick_5">
     <g id="line2d_10">
      <g>
       <use xlink:href="#mf91b54e068" x="620.923118" y="189.271081" style="stroke: #000000; stroke-width: 0.8"/>
      </g>
     </g>
     <g id="text_10">
      <!-- 1000 -->
      <g transform="translate(588.473118 193.070299) scale(0.1 -0.1)">
       <use xlink:href="#DejaVuSans-31"/>
       <use xlink:href="#DejaVuSans-30" x="63.623047"/>
       <use xlink:href="#DejaVuSans-30" x="127.246094"/>
       <use xlink:href="#DejaVuSans-30" x="190.869141"/>
      </g>
     </g>
    </g>
   </g>
   <g id="LineCollection_1">
    <path d="M 795.289117 889.057711 
L 786.336798 879.989215 
L 778.806442 871.584101 
L 772.254454 863.453963 
L 766.619353 855.597058 
L 761.837973 848.00822 
L 757.845905 840.677366 
L 754.578599 833.588172 
L 751.973135 826.717302 
L 749.97043 820.034543 
L 748.517468 813.504057 
L 747.56902 807.086705 
L 747.088388 800.743019 
L 747.046966 794.436243 
L 747.422774 788.134806 
L 748.198348 781.813818 
L 749.358507 775.455505 
L 750.888402 769.04873 
L 752.772082 762.587942 
L 754.991638 756.071869 
L 757.526843 749.502224 
L 760.355151 742.882569 
L 763.451931 736.217417 
L 766.790817 729.511565 
L 770.344081 722.76963 
L 774.083011 715.995749 
L 782.00001 702.365281 
L 790.303682 688.638476 
L 803.00879 667.80168 
L 811.285714 653.756753 
L 815.277566 646.6827 
L 819.134238 639.567809 
L 822.827736 632.406497 
L 826.329938 625.192788 
L 829.612409 617.920604 
L 832.646228 610.584173 
L 835.40185 603.178593 
L 837.849096 595.700552 
L 839.957322 588.149175 
L 841.695865 580.526951 
L 843.034836 572.840585 
L 843.946277 565.101615 
L 844.405614 557.326576 
L 844.393229 549.536524 
L 843.895873 541.755861 
L 842.907634 534.010549 
L 841.4302 526.325983 
L 839.472378 518.724919 
L 837.048962 511.225808 
L 834.179238 503.841815 
L 830.885427 496.580563 
L 827.191358 489.444508 
L 823.121507 482.431737 
L 818.700454 475.536966 
L 813.952709 468.752548 
L 808.902798 462.069368 
L 803.575532 455.477573 
L 797.996347 448.967123 
L 792.191661 442.528181 
L 786.189215 436.151376 
L 780.018357 429.827975 
L 767.298212 417.310275 
L 747.781797 398.743136 
L 734.907348 386.418639 
L 728.657084 380.278811 
L 722.594583 374.154453 
L 716.76901 368.04848 
L 711.230372 361.96623 
L 706.028718 355.915785 
L 701.213004 349.90818 
L 696.829518 343.957319 
L 692.91982 338.079313 
L 689.518267 332.290806 
L 686.649458 326.605788 
L 684.326413 321.03049 
L 682.550789 315.556485 
L 681.316744 310.153282 
L 680.619301 304.763186 
L 680.465988 299.302019 
L 680.887792 293.667886 
L 681.944276 287.756412 
L 683.71998 281.476952 
L 686.313741 274.763652 
L 689.82583 267.578373 
L 694.347581 259.906753 
L 699.955585 251.750921 
L 706.710027 243.122098 
L 714.655582 234.034835 
L 723.823341 224.503293 
L 734.232797 214.539241 
L 746.175231 203.900164 
L 746.175231 203.900164 
" clip-path="url(#p20f9c38f98)" style="fill: none; stroke: #1f77b4; stroke-width: 1.5"/>
    <path d="M 777.895137 906.228856 
L 768.527264 896.739413 
L 760.176115 887.418159 
L 752.792878 878.256554 
L 746.330651 869.246404 
L 740.744251 860.379866 
L 735.990036 851.64944 
L 732.025743 843.047968 
L 728.810341 834.568628 
L 726.303889 826.204934 
L 724.467417 817.950728 
L 723.262812 809.800173 
L 722.652717 801.747751 
L 722.600441 793.788255 
L 723.069884 785.91678 
L 724.025465 778.128717 
L 725.43207 770.419746 
L 727.254998 762.785827 
L 729.459928 755.223191 
L 732.012887 747.72833 
L 734.880231 740.29799 
L 738.028631 732.929159 
L 741.425071 725.619056 
L 745.036849 718.365123 
L 748.831589 711.165014 
L 752.777257 704.016582 
L 756.842188 696.917868 
L 760.995109 689.86709 
L 765.205182 682.862633 
L 769.442039 675.903032 
L 773.675829 668.986966 
L 777.87727 662.11324 
L 782.017702 655.280777 
L 786.069144 648.488602 
L 790.004356 641.735831 
L 793.796904 635.021657 
L 797.421226 628.345338 
L 800.852703 621.706185 
L 804.067729 615.103545 
L 807.043783 608.536794 
L 809.759506 602.005317 
L 812.194771 595.508503 
L 814.330762 589.045722 
L 816.150048 582.616323 
L 817.636655 576.219612 
L 818.776144 569.854845 
L 819.555682 563.521213 
L 819.964113 557.21783 
L 819.992028 550.943721 
L 819.631832 544.697808 
L 818.877807 538.478902 
L 817.726176 532.285685 
L 816.175162 526.116706 
L 814.225038 519.970363 
L 811.878181 513.844895 
L 809.139117 507.738374 
L 806.014561 501.648687 
L 802.513453 495.573535 
L 798.646989 489.510416 
L 794.428644 483.456618 
L 789.874188 477.409211 
L 785.001701 471.365038 
L 779.831572 465.320707 
L 774.386497 459.27258 
L 768.69147 453.216771 
L 762.773758 447.149134 
L 756.662875 441.065261 
L 750.390543 434.960473 
L 743.990647 428.829816 
L 737.499177 422.668055 
L 730.954158 416.469674 
L 724.395577 410.228865 
L 717.865292 403.939532 
L 711.406932 397.595284 
L 705.065785 391.189437 
L 698.888677 384.715008 
L 692.923833 378.164721 
L 687.220729 371.531001 
L 681.82993 364.805977 
L 676.802918 357.981489 
L 672.191894 351.04908 
L 668.049585 344.00001 
L 664.429015 336.825253 
L 661.38328 329.515503 
L 658.965295 322.061185 
L 657.227526 314.452453 
L 656.221718 306.679204 
L 655.998588 298.731084 
L 656.607516 290.597496 
L 658.096212 282.267614 
L 660.510366 273.730388 
L 663.89328 264.974563 
L 668.285483 255.988687 
L 673.724325 246.761126 
L 680.243554 237.280081 
L 687.872872 227.533603 
L 696.637469 217.509607 
L 706.557545 207.195896 
L 717.647797 196.580178 
L 729.916902 185.650082 
" clip-path="url(#p20f9c38f98)" style="fill: none; stroke: #8c564b; stroke-width: 1.5"/>
    <path d="M 760.501156 923.4 
L 750.323025 913.049056 
L 741.145113 902.755034 
L 732.931382 892.501544 
L 725.651206 882.275577 
L 719.27886 872.068996 
L 713.792414 861.879999 
L 709.171972 851.714217 
L 705.397352 841.585089 
L 702.445526 831.513162 
L 700.288322 821.524258 
L 698.890922 811.64672 
L 698.211502 801.908275 
L 698.20205 792.333173 
L 698.810073 782.940144 
L 699.980705 773.74143 
L 701.658735 764.742835 
L 703.790226 755.944538 
L 706.323584 747.342305 
L 709.210098 738.928809 
L 712.404059 730.694842 
L 715.862605 722.63032 
L 719.545418 714.725041 
L 723.414356 706.969221 
L 727.433105 699.353847 
L 731.56686 691.870891 
L 740.046256 677.275652 
L 748.596147 663.141857 
L 761.070333 642.686582 
L 768.803929 629.571632 
L 772.414379 623.179835 
L 775.822162 616.902401 
L 779.00556 610.743227 
L 781.944887 604.706784 
L 784.622816 598.797857 
L 787.024705 593.021168 
L 789.138913 587.380872 
L 790.957027 581.87988 
L 792.473944 576.519056 
L 793.687724 571.29629 
L 794.599119 566.205577 
L 795.210741 561.236236 
L 795.52589 556.372489 
L 795.547153 551.593572 
L 795.27501 546.874544 
L 794.70675 542.187754 
L 793.835954 537.504802 
L 792.652725 532.798648 
L 791.144629 528.045475 
L 789.29814 523.226004 
L 787.100297 518.326091 
L 784.540253 513.336625 
L 781.610507 508.252906 
L 778.307724 503.073711 
L 774.633135 497.800264 
L 770.592609 492.435252 
L 766.196493 486.982004 
L 761.459311 481.443827 
L 756.399405 475.823526 
L 751.038557 470.123066 
L 745.401645 464.343343 
L 733.412736 452.543484 
L 714.105513 434.176224 
L 700.737097 421.375807 
L 694.03651 414.79026 
L 687.381585 408.061539 
L 680.817043 401.17146 
L 674.389848 394.098653 
L 668.149855 386.818268 
L 662.150818 379.301884 
L 656.451832 371.517813 
L 651.119232 363.432201 
L 646.228753 355.01137 
L 641.867414 346.225939 
L 638.134075 337.056938 
L 635.137122 327.503333 
L 633.399354 319.894601 
L 632.98786 317.58891 
L 631.982052 309.815661 
L 631.789601 307.365095 
L 631.566471 299.416974 
L 631.625056 296.906338 
L 632.233984 288.77275 
L 632.547 286.29746 
L 634.035696 277.967577 
L 634.576747 275.616787 
L 637.711139 264.921643 
L 641.934341 254.241262 
L 647.229152 243.577817 
L 653.584307 232.912717 
L 660.99713 222.214427 
L 669.472767 211.445256 
L 679.021653 200.566119 
L 689.656499 189.539356 
L 701.389468 178.330096 
L 713.658572 167.4 
L 713.658572 167.4 
" clip-path="url(#p20f9c38f98)" style="fill: none; stroke: #17becf; stroke-width: 1.5"/>
   </g>
   <g id="patch_3">
    <path d="M 620.923118 961.2 
L 620.923118 129.6 
" style="fill: none; stroke: #000000; stroke-width: 0.8; stroke-linejoin: miter; stroke-linecap: square"/>
   </g>
   <g id="patch_4">
    <path d="M 855.076882 961.2 
L 855.076882 129.6 
" style="fill: none; stroke: #000000; stroke-width: 0.8; stroke-linejoin: miter; stroke-linecap: square"/>
   </g>
   <g id="patch_5">
    <path d="M 620.923118 961.2 
L 855.076882 961.2 
" style="fill: none; stroke: #000000; stroke-width: 0.8; stroke-linejoin: miter; stroke-linecap: square"/>
   </g>
   <g id="patch_6">
    <path d="M 620.923118 129.6 
L 855.076882 129.6 
" style="fill: none; stroke: #000000; stroke-width: 0.8; stroke-linejoin: miter; stroke-linecap: square"/>
   </g>
  </g>
 </g>
 <defs>
  <clipPath id="p20f9c38f98">
   <rect x="620.923118" y="129.6" width="234.153764" height="831.6"/>
  </clipPath>
 </defs>
</svg>
