<?xml version="1.0" encoding="utf-8" standalone="no"?>
<!DOCTYPE svg PUBLIC "-//W3C//DTD SVG 1.1//EN"
  "http://www.w3.org/Graphics/SVG/1.1/DTD/svg11.dtd">
<svg xmlns:xlink="http://www.w3.org/1999/xlink" width="1440pt" height="1080pt" viewBox="0 0 1440 1080" xmlns="http://www.w3.org/2000/svg" version="1.1">
 <metadata>
  <rdf:RDF xmlns:dc="http://purl.org/dc/elements/1.1/" xmlns:cc="http://creativecommons.org/ns#" xmlns:rdf="http://www.w3.org/1999/02/22-rdf-syntax-ns#">
   <cc:Work>
    <dc:type rdf:resource="http://purl.org/dc/dcmitype/StillImage"/>
    <dc:date>2023-12-11T12:06:41.764009</dc:date>
    <dc:format>image/svg+xml</dc:format>
    <dc:creator>
     <cc:Agent>
      <dc:title>Matplotlib v3.7.1, https://matplotlib.org/</dc:title>
     </cc:Agent>
    </dc:creator>
   </cc:Work>
  </rdf:RDF>
 </metadata>
 <defs>
  <style type="text/css">*{stroke-linejoin: round; stroke-linecap: butt}</style>
 </defs>
 <g id="figure_1">
  <g id="patch_1">
   <path d="M 0 1080 
L 1440 1080 
L 1440 0 
L 0 0 
z
" style="fill: #ffffff"/>
  </g>
  <g id="axes_1">
   <g id="patch_2">
    <path d="M 303.518251 961.2 
L 1172.481749 961.2 
L 1172.481749 129.6 
L 303.518251 129.6 
z
" style="fill: #ffffff"/>
   </g>
   <g id="matplotlib.axis_1">
    <g id="xtick_1">
     <g id="line2d_1">
      <defs>
       <path id="m13a6094f94" d="M 0 0 
L 0 3.5 
" style="stroke: #000000; stroke-width: 0.8"/>
      </defs>
      <g>
       <use xlink:href="#m13a6094f94" x="457.629721" y="961.2" style="stroke: #000000; stroke-width: 0.8"/>
      </g>
     </g>
     <g id="text_1">
      <!-- 400 -->
      <g transform="translate(448.085971 975.798437) scale(0.1 -0.1)">
       <defs>
        <path id="DejaVuSans-34" d="M 2419 4116 
L 825 1625 
L 2419 1625 
L 2419 4116 
z
M 2253 4666 
L 3047 4666 
L 3047 1625 
L 3713 1625 
L 3713 1100 
L 3047 1100 
L 3047 0 
L 2419 0 
L 2419 1100 
L 313 1100 
L 313 1709 
L 2253 4666 
z
" transform="scale(0.015625)"/>
        <path id="DejaVuSans-30" d="M 2034 4250 
Q 1547 4250 1301 3770 
Q 1056 3291 1056 2328 
Q 1056 1369 1301 889 
Q 1547 409 2034 409 
Q 2525 409 2770 889 
Q 3016 1369 3016 2328 
Q 3016 3291 2770 3770 
Q 2525 4250 2034 4250 
z
M 2034 4750 
Q 2819 4750 3233 4129 
Q 3647 3509 3647 2328 
Q 3647 1150 3233 529 
Q 2819 -91 2034 -91 
Q 1250 -91 836 529 
Q 422 1150 422 2328 
Q 422 3509 836 4129 
Q 1250 4750 2034 4750 
z
" transform="scale(0.015625)"/>
       </defs>
       <use xlink:href="#DejaVuSans-34"/>
       <use xlink:href="#DejaVuSans-30" x="63.623047"/>
       <use xlink:href="#DejaVuSans-30" x="127.246094"/>
      </g>
     </g>
    </g>
    <g id="xtick_2">
     <g id="line2d_2">
      <g>
       <use xlink:href="#m13a6094f94" x="622.304227" y="961.2" style="stroke: #000000; stroke-width: 0.8"/>
      </g>
     </g>
     <g id="text_2">
      <!-- 500 -->
      <g transform="translate(612.760477 975.798437) scale(0.1 -0.1)">
       <defs>
        <path id="DejaVuSans-35" d="M 691 4666 
L 3169 4666 
L 3169 4134 
L 1269 4134 
L 1269 2991 
Q 1406 3038 1543 3061 
Q 1681 3084 1819 3084 
Q 2600 3084 3056 2656 
Q 3513 2228 3513 1497 
Q 3513 744 3044 326 
Q 2575 -91 1722 -91 
Q 1428 -91 1123 -41 
Q 819 9 494 109 
L 494 744 
Q 775 591 1075 516 
Q 1375 441 1709 441 
Q 2250 441 2565 725 
Q 2881 1009 2881 1497 
Q 2881 1984 2565 2268 
Q 2250 2553 1709 2553 
Q 1456 2553 1204 2497 
Q 953 2441 691 2322 
L 691 4666 
z
" transform="scale(0.015625)"/>
       </defs>
       <use xlink:href="#DejaVuSans-35"/>
       <use xlink:href="#DejaVuSans-30" x="63.623047"/>
       <use xlink:href="#DejaVuSans-30" x="127.246094"/>
      </g>
     </g>
    </g>
    <g id="xtick_3">
     <g id="line2d_3">
      <g>
       <use xlink:href="#m13a6094f94" x="786.978734" y="961.2" style="stroke: #000000; stroke-width: 0.8"/>
      </g>
     </g>
     <g id="text_3">
      <!-- 600 -->
      <g transform="translate(777.434984 975.798437) scale(0.1 -0.1)">
       <defs>
        <path id="DejaVuSans-36" d="M 2113 2584 
Q 1688 2584 1439 2293 
Q 1191 2003 1191 1497 
Q 1191 994 1439 701 
Q 1688 409 2113 409 
Q 2538 409 2786 701 
Q 3034 994 3034 1497 
Q 3034 2003 2786 2293 
Q 2538 2584 2113 2584 
z
M 3366 4563 
L 3366 3988 
Q 3128 4100 2886 4159 
Q 2644 4219 2406 4219 
Q 1781 4219 1451 3797 
Q 1122 3375 1075 2522 
Q 1259 2794 1537 2939 
Q 1816 3084 2150 3084 
Q 2853 3084 3261 2657 
Q 3669 2231 3669 1497 
Q 3669 778 3244 343 
Q 2819 -91 2113 -91 
Q 1303 -91 875 529 
Q 447 1150 447 2328 
Q 447 3434 972 4092 
Q 1497 4750 2381 4750 
Q 2619 4750 2861 4703 
Q 3103 4656 3366 4563 
z
" transform="scale(0.015625)"/>
       </defs>
       <use xlink:href="#DejaVuSans-36"/>
       <use xlink:href="#DejaVuSans-30" x="63.623047"/>
       <use xlink:href="#DejaVuSans-30" x="127.246094"/>
      </g>
     </g>
    </g>
    <g id="xtick_4">
     <g id="line2d_4">
      <g>
       <use xlink:href="#m13a6094f94" x="951.65324" y="961.2" style="stroke: #000000; stroke-width: 0.8"/>
      </g>
     </g>
     <g id="text_4">
      <!-- 700 -->
      <g transform="translate(942.10949 975.798437) scale(0.1 -0.1)">
       <defs>
        <path id="DejaVuSans-37" d="M 525 4666 
L 3525 4666 
L 3525 4397 
L 1831 0 
L 1172 0 
L 2766 4134 
L 525 4134 
L 525 4666 
z
" transform="scale(0.015625)"/>
       </defs>
       <use xlink:href="#DejaVuSans-37"/>
       <use xlink:href="#DejaVuSans-30" x="63.623047"/>
       <use xlink:href="#DejaVuSans-30" x="127.246094"/>
      </g>
     </g>
    </g>
    <g id="xtick_5">
     <g id="line2d_5">
      <g>
       <use xlink:href="#m13a6094f94" x="1116.327746" y="961.2" style="stroke: #000000; stroke-width: 0.8"/>
      </g>
     </g>
     <g id="text_5">
      <!-- 800 -->
      <g transform="translate(1106.783996 975.798437) scale(0.1 -0.1)">
       <defs>
        <path id="DejaVuSans-38" d="M 2034 2216 
Q 1584 2216 1326 1975 
Q 1069 1734 1069 1313 
Q 1069 891 1326 650 
Q 1584 409 2034 409 
Q 2484 409 2743 651 
Q 3003 894 3003 1313 
Q 3003 1734 2745 1975 
Q 2488 2216 2034 2216 
z
M 1403 2484 
Q 997 2584 770 2862 
Q 544 3141 544 3541 
Q 544 4100 942 4425 
Q 1341 4750 2034 4750 
Q 2731 4750 3128 4425 
Q 3525 4100 3525 3541 
Q 3525 3141 3298 2862 
Q 3072 2584 2669 2484 
Q 3125 2378 3379 2068 
Q 3634 1759 3634 1313 
Q 3634 634 3220 271 
Q 2806 -91 2034 -91 
Q 1263 -91 848 271 
Q 434 634 434 1313 
Q 434 1759 690 2068 
Q 947 2378 1403 2484 
z
M 1172 3481 
Q 1172 3119 1398 2916 
Q 1625 2713 2034 2713 
Q 2441 2713 2670 2916 
Q 2900 3119 2900 3481 
Q 2900 3844 2670 4047 
Q 2441 4250 2034 4250 
Q 1625 4250 1398 4047 
Q 1172 3844 1172 3481 
z
" transform="scale(0.015625)"/>
       </defs>
       <use xlink:href="#DejaVuSans-38"/>
       <use xlink:href="#DejaVuSans-30" x="63.623047"/>
       <use xlink:href="#DejaVuSans-30" x="127.246094"/>
      </g>
     </g>
    </g>
   </g>
   <g id="matplotlib.axis_2">
    <g id="ytick_1">
     <g id="line2d_6">
      <defs>
       <path id="m62109fede4" d="M 0 0 
L -3.5 0 
" style="stroke: #000000; stroke-width: 0.8"/>
      </defs>
      <g>
       <use xlink:href="#m62109fede4" x="303.518251" y="951.670992" style="stroke: #000000; stroke-width: 0.8"/>
      </g>
     </g>
     <g id="text_6">
      <!-- 500 -->
      <g transform="translate(277.430751 955.470211) scale(0.1 -0.1)">
       <use xlink:href="#DejaVuSans-35"/>
       <use xlink:href="#DejaVuSans-30" x="63.623047"/>
       <use xlink:href="#DejaVuSans-30" x="127.246094"/>
      </g>
     </g>
    </g>
    <g id="ytick_2">
     <g id="line2d_7">
      <g>
       <use xlink:href="#m62109fede4" x="303.518251" y="786.996486" style="stroke: #000000; stroke-width: 0.8"/>
      </g>
     </g>
     <g id="text_7">
      <!-- 600 -->
      <g transform="translate(277.430751 790.795705) scale(0.1 -0.1)">
       <use xlink:href="#DejaVuSans-36"/>
       <use xlink:href="#DejaVuSans-30" x="63.623047"/>
       <use xlink:href="#DejaVuSans-30" x="127.246094"/>
      </g>
     </g>
    </g>
    <g id="ytick_3">
     <g id="line2d_8">
      <g>
       <use xlink:href="#m62109fede4" x="303.518251" y="622.32198" style="stroke: #000000; stroke-width: 0.8"/>
      </g>
     </g>
     <g id="text_8">
      <!-- 700 -->
      <g transform="translate(277.430751 626.121198) scale(0.1 -0.1)">
       <use xlink:href="#DejaVuSans-37"/>
       <use xlink:href="#DejaVuSans-30" x="63.623047"/>
       <use xlink:href="#DejaVuSans-30" x="127.246094"/>
      </g>
     </g>
    </g>
    <g id="ytick_4">
     <g id="line2d_9">
      <g>
       <use xlink:href="#m62109fede4" x="303.518251" y="457.647473" style="stroke: #000000; stroke-width: 0.8"/>
      </g>
     </g>
     <g id="text_9">
      <!-- 800 -->
      <g transform="translate(277.430751 461.446692) scale(0.1 -0.1)">
       <use xlink:href="#DejaVuSans-38"/>
       <use xlink:href="#DejaVuSans-30" x="63.623047"/>
       <use xlink:href="#DejaVuSans-30" x="127.246094"/>
      </g>
     </g>
    </g>
    <g id="ytick_5">
     <g id="line2d_10">
      <g>
       <use xlink:href="#m62109fede4" x="303.518251" y="292.972967" style="stroke: #000000; stroke-width: 0.8"/>
      </g>
     </g>
     <g id="text_10">
      <!-- 900 -->
      <g transform="translate(277.430751 296.772186) scale(0.1 -0.1)">
       <defs>
        <path id="DejaVuSans-39" d="M 703 97 
L 703 672 
Q 941 559 1184 500 
Q 1428 441 1663 441 
Q 2288 441 2617 861 
Q 2947 1281 2994 2138 
Q 2813 1869 2534 1725 
Q 2256 1581 1919 1581 
Q 1219 1581 811 2004 
Q 403 2428 403 3163 
Q 403 3881 828 4315 
Q 1253 4750 1959 4750 
Q 2769 4750 3195 4129 
Q 3622 3509 3622 2328 
Q 3622 1225 3098 567 
Q 2575 -91 1691 -91 
Q 1453 -91 1209 -44 
Q 966 3 703 97 
z
M 1959 2075 
Q 2384 2075 2632 2365 
Q 2881 2656 2881 3163 
Q 2881 3666 2632 3958 
Q 2384 4250 1959 4250 
Q 1534 4250 1286 3958 
Q 1038 3666 1038 3163 
Q 1038 2656 1286 2365 
Q 1534 2075 1959 2075 
z
" transform="scale(0.015625)"/>
       </defs>
       <use xlink:href="#DejaVuSans-39"/>
       <use xlink:href="#DejaVuSans-30" x="63.623047"/>
       <use xlink:href="#DejaVuSans-30" x="127.246094"/>
      </g>
     </g>
    </g>
   </g>
   <g id="LineCollection_1">
    <path d="M 1132.983408 333.076667 
L 1103.316664 309.35438 
L 1075.12627 287.511777 
L 1048.3726 267.539845 
L 1023.005757 249.422325 
L 998.96343 233.136568 
L 976.167835 218.654972 
L 954.521464 205.947557 
L 933.901462 194.98671 
L 914.152944 185.755942 
L 898.416803 179.458474 
L 895.083079 178.265722 
L 880.668278 173.703627 
L 876.461809 172.580504 
L 863.327715 169.708044 
L 858.043658 168.859371 
L 846.148008 167.627511 
L 839.638013 167.4 
L 828.937082 167.756691 
L 825.07851 168.042131 
L 821.255709 168.638996 
L 811.704471 170.529457 
L 807.442892 171.578526 
L 803.295618 173.014396 
L 794.8479 176.381377 
L 790.609919 178.315071 
L 786.580496 180.652466 
L 779.189127 185.436497 
L 775.474662 188.101308 
L 772.032016 191.109075 
L 765.648965 197.248715 
L 762.776907 200.26308 
L 760.178321 203.51615 
L 754.754833 210.948215 
L 752.754394 213.917151 
L 750.981985 217.027601 
L 746.468711 225.687393 
L 744.057856 231.111311 
L 740.404973 240.932825 
L 738.950671 245.545604 
L 736.108001 256.461737 
L 735.276864 260.291433 
L 732.752291 275.382783 
L 731.174278 290.866885 
L 730.396484 306.779624 
L 730.308874 323.138651 
L 730.824202 339.943794 
L 731.869464 357.17981 
L 733.380647 374.819498 
L 735.299532 392.826452 
L 737.571751 411.157304 
L 740.14561 429.763489 
L 742.971378 448.592599 
L 746.000859 467.589428 
L 752.484482 505.856062 
L 772.200395 618.694582 
L 775.092577 636.577655 
L 777.770692 654.034481 
L 780.200368 671.005648 
L 782.349164 687.431501 
L 784.186896 703.251852 
L 785.686089 718.405586 
L 786.822626 732.830163 
L 787.576659 746.461006 
L 787.933926 759.230813 
L 787.887642 771.068887 
L 787.441195 781.900681 
L 786.611927 791.648023 
L 785.43619 800.230863 
L 783.975593 807.572053 
L 782.323354 813.607555 
L 780.607581 818.304988 
L 778.98469 821.692224 
L 777.612545 823.891678 
L 776.595259 825.143048 
L 775.352978 826.172972 
L 774.567986 826.567903 
L 773.143931 827.053979 
L 770.738074 827.548537 
L 767.142925 827.874517 
L 762.285083 827.83968 
L 756.186202 827.285444 
L 748.919871 826.103373 
L 740.580364 824.23262 
L 731.264853 821.65053 
L 721.065247 818.362898 
L 710.065555 814.396238 
L 698.341952 809.792322 
L 685.963918 804.604586 
L 672.995621 798.89586 
L 659.497178 792.737004 
L 631.135387 779.388156 
L 601.146872 765.191109 
L 585.695327 758.04344 
L 569.99548 751.014854 
L 554.071039 744.22715 
L 537.929591 737.813852 
L 521.554345 731.925512 
L 504.892727 726.740379 
L 491.142451 723.209608 
L 487.84287 722.485699 
L 474.607317 720.069071 
L 470.24483 719.478801 
L 457.631387 718.361096 
L 451.900547 718.198758 
L 440.023252 718.575899 
L 436.337924 718.835898 
L 432.683724 719.380012 
L 421.663533 721.459509 
L 417.185094 722.530503 
L 412.830621 724.027839 
L 402.79568 728.029242 
L 397.929473 730.294372 
L 393.348195 733.091276 
L 384.434129 739.246647 
L 379.981691 742.727564 
L 375.97166 746.710105 
L 368.321865 755.264507 
L 365.012164 759.407197 
L 362.182131 763.891271 
L 355.948082 775.103271 
L 353.942185 779.150501 
L 352.327647 783.369147 
L 347.669213 797.511338 
L 346.666397 800.995644 
L 345.93082 804.545989 
L 343.016592 821.905534 
L 343.016592 821.905534 
" clip-path="url(#p7853a97a01)" style="fill: none; stroke: #1f77b4; stroke-width: 1.5"/>
    <path d="M 1103.153786 370.369985 
L 1074.059036 347.098111 
L 1046.546445 325.771307 
L 1020.598895 306.388516 
L 996.195765 288.942223 
L 973.313183 273.418857 
L 951.924249 259.799187 
L 931.999265 248.058702 
L 913.505949 238.167968 
L 896.40964 230.092983 
L 880.673499 223.795514 
L 866.258698 219.233419 
L 853.124604 216.36096 
L 841.228954 215.129099 
L 830.528023 215.48579 
L 820.976786 217.376252 
L 812.529069 220.743233 
L 805.1377 225.527263 
L 798.754649 231.666903 
L 793.331162 239.098968 
L 788.817888 247.75876 
L 785.165005 257.580274 
L 782.322336 268.496407 
L 780.239459 280.439155 
L 778.865815 293.339793 
L 778.150812 307.129063 
L 778.043917 321.73734 
L 778.494751 337.094798 
L 779.453177 353.131564 
L 780.869383 369.777876 
L 782.693964 386.964217 
L 784.877995 404.621461 
L 787.373105 422.681 
L 790.13155 441.074872 
L 793.106272 459.735888 
L 796.25097 478.59774 
L 799.520158 497.595123 
L 802.869222 516.663838 
L 806.254479 535.7409 
L 809.63323 554.76464 
L 812.963813 573.674805 
L 816.205655 592.412653 
L 819.319319 610.921048 
L 822.266558 629.144554 
L 825.010356 647.029524 
L 827.51498 664.524193 
L 829.746023 681.578762 
L 831.670456 698.145494 
L 833.256667 714.178795 
L 834.474512 729.635307 
L 835.295361 744.473997 
L 835.692144 758.656245 
L 835.639402 772.145938 
L 835.113333 784.909561 
L 834.091844 796.916292 
L 832.554602 808.138102 
L 830.48309 818.549849 
L 827.860659 828.129387 
L 824.672588 836.857669 
L 820.906142 844.718855 
L 816.550636 851.70043 
L 811.597498 857.793319 
L 806.040341 862.99201 
L 799.875027 867.294683 
L 793.099749 870.703343 
L 785.715105 873.223959 
L 777.724181 874.866606 
L 769.132637 875.645621 
L 759.948795 875.57976 
L 750.183737 874.692361 
L 739.851403 873.011518 
L 728.968693 870.570264 
L 717.555579 867.406756 
L 705.635218 863.564475 
L 693.234073 859.092429 
L 680.382038 854.045372 
L 667.112567 848.484028 
L 653.462818 842.475322 
L 639.473793 836.092631 
L 625.190487 829.416033 
L 610.662051 822.53258 
L 595.941951 815.536569 
L 581.088144 808.529838 
L 566.163254 801.62206 
L 551.234763 794.931064 
L 536.375198 788.583155 
L 521.662345 782.713458 
L 507.17945 777.466267 
L 493.015443 772.995412 
L 479.265168 769.464642 
L 466.029614 767.048014 
L 453.416171 765.930308 
L 441.538876 766.307448 
L 430.518685 768.386946 
L 420.483744 772.388349 
L 411.569679 778.54372 
L 403.919884 787.098122 
L 397.685835 798.310121 
L 393.027402 812.452313 
L 390.113174 829.811857 
" clip-path="url(#p7853a97a01)" style="fill: none; stroke: #8c564b; stroke-width: 1.5"/>
    <path d="M 1073.324163 407.663303 
L 1044.513693 384.618815 
L 1017.625419 363.775959 
L 992.41905 344.946831 
L 968.89979 328.132433 
L 947.077524 313.328377 
L 926.969887 300.52459 
L 908.606376 289.704178 
L 892.033752 280.840682 
L 877.322719 273.892319 
L 864.574934 268.790765 
L 853.926728 265.420748 
L 845.539708 263.586485 
L 839.557122 262.966955 
L 835.995481 263.085674 
L 834.769023 263.328425 
L 834.022266 264.351742 
L 832.541354 267.193224 
L 830.769132 271.958202 
L 829.030872 278.633295 
L 827.558213 287.077184 
L 826.49023 297.107207 
L 825.897366 308.540936 
L 825.804652 321.211228 
L 826.20853 334.969155 
L 827.087856 349.682397 
L 828.410797 365.232446 
L 830.139096 381.511882 
L 832.230728 398.422109 
L 834.641556 415.871605 
L 837.326386 433.774609 
L 840.239662 452.050157 
L 846.570048 489.415111 
L 866.462375 603.296728 
L 869.469913 621.902917 
L 872.283955 640.261601 
L 874.867129 658.329682 
L 877.182654 676.068406 
L 879.194058 693.443876 
L 880.864724 710.427675 
L 882.157218 726.997588 
L 883.032289 743.138438 
L 883.447386 758.842958 
L 883.354498 774.112577 
L 882.697045 788.957811 
L 881.405583 803.397658 
L 879.392179 817.456865 
L 877.320667 827.868612 
L 876.543953 831.159166 
L 873.921522 840.738704 
L 872.717662 844.513749 
L 869.529591 853.24203 
L 867.740155 857.492171 
L 863.973709 865.353357 
L 861.423612 869.995972 
L 857.068105 876.977547 
L 853.606496 881.824527 
L 848.653359 887.917415 
L 844.222281 892.667687 
L 838.665123 897.866378 
L 833.370738 902.15382 
L 827.205424 906.456493 
L 821.337807 909.95552 
L 814.56253 913.364181 
L 808.526361 915.898671 
L 801.141717 918.419286 
L 795.330881 920.001462 
L 787.339957 921.644109 
L 782.036603 922.427104 
L 773.445059 923.206119 
L 768.790171 923.4 
L 759.606329 923.334139 
L 755.626816 923.139391 
L 745.861758 922.251992 
L 742.515756 921.828335 
L 729.398445 919.60909 
L 716.21266 916.590712 
L 702.904822 912.859516 
L 689.434986 908.488304 
L 675.777988 903.543335 
L 661.922908 898.089197 
L 647.871986 892.192128 
L 633.639541 885.922251 
L 619.251149 879.355117 
L 590.162708 865.664644 
L 560.871534 851.795493 
L 546.367128 845.08233 
L 532.08688 838.681879 
L 518.144267 832.725686 
L 504.676451 827.352697 
L 491.851672 822.706246 
L 479.879637 818.927285 
L 469.024865 816.140016 
L 459.619538 814.422734 
L 452.061494 813.752999 
L 446.755438 813.921482 
L 443.914549 814.457555 
L 443.299712 814.702719 
L 443.068926 814.960797 
L 441.626045 817.555833 
L 439.522411 823.942096 
L 437.209756 837.718181 
L 437.209756 837.718181 
" clip-path="url(#p7853a97a01)" style="fill: none; stroke: #17becf; stroke-width: 1.5"/>
   </g>
   <g id="patch_3">
    <path d="M 303.518251 961.2 
L 303.518251 129.6 
" style="fill: none; stroke: #000000; stroke-width: 0.8; stroke-linejoin: miter; stroke-linecap: square"/>
   </g>
   <g id="patch_4">
    <path d="M 1172.481749 961.2 
L 1172.481749 129.6 
" style="fill: none; stroke: #000000; stroke-width: 0.8; stroke-linejoin: miter; stroke-linecap: square"/>
   </g>
   <g id="patch_5">
    <path d="M 303.518251 961.2 
L 1172.481749 961.2 
" style="fill: none; stroke: #000000; stroke-width: 0.8; stroke-linejoin: miter; stroke-linecap: square"/>
   </g>
   <g id="patch_6">
    <path d="M 303.518251 129.6 
L 1172.481749 129.6 
" style="fill: none; stroke: #000000; stroke-width: 0.8; stroke-linejoin: miter; stroke-linecap: square"/>
   </g>
  </g>
 </g>
 <defs>
  <clipPath id="p7853a97a01">
   <rect x="303.518251" y="129.6" width="868.963498" height="831.6"/>
  </clipPath>
 </defs>
</svg>
