<?xml version="1.0" encoding="utf-8" standalone="no"?>
<!DOCTYPE svg PUBLIC "-//W3C//DTD SVG 1.1//EN"
  "http://www.w3.org/Graphics/SVG/1.1/DTD/svg11.dtd">
<svg xmlns:xlink="http://www.w3.org/1999/xlink" width="1440pt" height="1080pt" viewBox="0 0 1440 1080" xmlns="http://www.w3.org/2000/svg" version="1.1">
 <metadata>
  <rdf:RDF xmlns:dc="http://purl.org/dc/elements/1.1/" xmlns:cc="http://creativecommons.org/ns#" xmlns:rdf="http://www.w3.org/1999/02/22-rdf-syntax-ns#">
   <cc:Work>
    <dc:type rdf:resource="http://purl.org/dc/dcmitype/StillImage"/>
    <dc:date>2023-12-11T12:06:54.744568</dc:date>
    <dc:format>image/svg+xml</dc:format>
    <dc:creator>
     <cc:Agent>
      <dc:title>Matplotlib v3.7.1, https://matplotlib.org/</dc:title>
     </cc:Agent>
    </dc:creator>
   </cc:Work>
  </rdf:RDF>
 </metadata>
 <defs>
  <style type="text/css">*{stroke-linejoin: round; stroke-linecap: butt}</style>
 </defs>
 <g id="figure_1">
  <g id="patch_1">
   <path d="M 0 1080 
L 1440 1080 
L 1440 0 
L 0 0 
z
" style="fill: #ffffff"/>
  </g>
  <g id="axes_1">
   <g id="patch_2">
    <path d="M 616.42504 961.2 
L 859.57496 961.2 
L 859.57496 129.6 
L 616.42504 129.6 
z
" style="fill: #ffffff"/>
   </g>
   <g id="matplotlib.axis_1">
    <g id="xtick_1">
     <g id="line2d_1">
      <defs>
       <path id="md6ad81d2f1" d="M 0 0 
L 0 3.5 
" style="stroke: #000000; stroke-width: 0.8"/>
      </defs>
      <g>
       <use xlink:href="#md6ad81d2f1" x="646.088066" y="961.2" style="stroke: #000000; stroke-width: 0.8"/>
      </g>
     </g>
     <g id="text_1">
      <!-- 700 -->
      <g transform="translate(636.544316 975.798437) scale(0.1 -0.1)">
       <defs>
        <path id="DejaVuSans-37" d="M 525 4666 
L 3525 4666 
L 3525 4397 
L 1831 0 
L 1172 0 
L 2766 4134 
L 525 4134 
L 525 4666 
z
" transform="scale(0.015625)"/>
        <path id="DejaVuSans-30" d="M 2034 4250 
Q 1547 4250 1301 3770 
Q 1056 3291 1056 2328 
Q 1056 1369 1301 889 
Q 1547 409 2034 409 
Q 2525 409 2770 889 
Q 3016 1369 3016 2328 
Q 3016 3291 2770 3770 
Q 2525 4250 2034 4250 
z
M 2034 4750 
Q 2819 4750 3233 4129 
Q 3647 3509 3647 2328 
Q 3647 1150 3233 529 
Q 2819 -91 2034 -91 
Q 1250 -91 836 529 
Q 422 1150 422 2328 
Q 422 3509 836 4129 
Q 1250 4750 2034 4750 
z
" transform="scale(0.015625)"/>
       </defs>
       <use xlink:href="#DejaVuSans-37"/>
       <use xlink:href="#DejaVuSans-30" x="63.623047"/>
       <use xlink:href="#DejaVuSans-30" x="127.246094"/>
      </g>
     </g>
    </g>
    <g id="xtick_2">
     <g id="line2d_2">
      <g>
       <use xlink:href="#md6ad81d2f1" x="685.636768" y="961.2" style="stroke: #000000; stroke-width: 0.8"/>
      </g>
     </g>
     <g id="text_2">
      <!-- 750 -->
      <g transform="translate(676.093018 975.798437) scale(0.1 -0.1)">
       <defs>
        <path id="DejaVuSans-35" d="M 691 4666 
L 3169 4666 
L 3169 4134 
L 1269 4134 
L 1269 2991 
Q 1406 3038 1543 3061 
Q 1681 3084 1819 3084 
Q 2600 3084 3056 2656 
Q 3513 2228 3513 1497 
Q 3513 744 3044 326 
Q 2575 -91 1722 -91 
Q 1428 -91 1123 -41 
Q 819 9 494 109 
L 494 744 
Q 775 591 1075 516 
Q 1375 441 1709 441 
Q 2250 441 2565 725 
Q 2881 1009 2881 1497 
Q 2881 1984 2565 2268 
Q 2250 2553 1709 2553 
Q 1456 2553 1204 2497 
Q 953 2441 691 2322 
L 691 4666 
z
" transform="scale(0.015625)"/>
       </defs>
       <use xlink:href="#DejaVuSans-37"/>
       <use xlink:href="#DejaVuSans-35" x="63.623047"/>
       <use xlink:href="#DejaVuSans-30" x="127.246094"/>
      </g>
     </g>
    </g>
    <g id="xtick_3">
     <g id="line2d_3">
      <g>
       <use xlink:href="#md6ad81d2f1" x="725.185471" y="961.2" style="stroke: #000000; stroke-width: 0.8"/>
      </g>
     </g>
     <g id="text_3">
      <!-- 800 -->
      <g transform="translate(715.641721 975.798437) scale(0.1 -0.1)">
       <defs>
        <path id="DejaVuSans-38" d="M 2034 2216 
Q 1584 2216 1326 1975 
Q 1069 1734 1069 1313 
Q 1069 891 1326 650 
Q 1584 409 2034 409 
Q 2484 409 2743 651 
Q 3003 894 3003 1313 
Q 3003 1734 2745 1975 
Q 2488 2216 2034 2216 
z
M 1403 2484 
Q 997 2584 770 2862 
Q 544 3141 544 3541 
Q 544 4100 942 4425 
Q 1341 4750 2034 4750 
Q 2731 4750 3128 4425 
Q 3525 4100 3525 3541 
Q 3525 3141 3298 2862 
Q 3072 2584 2669 2484 
Q 3125 2378 3379 2068 
Q 3634 1759 3634 1313 
Q 3634 634 3220 271 
Q 2806 -91 2034 -91 
Q 1263 -91 848 271 
Q 434 634 434 1313 
Q 434 1759 690 2068 
Q 947 2378 1403 2484 
z
M 1172 3481 
Q 1172 3119 1398 2916 
Q 1625 2713 2034 2713 
Q 2441 2713 2670 2916 
Q 2900 3119 2900 3481 
Q 2900 3844 2670 4047 
Q 2441 4250 2034 4250 
Q 1625 4250 1398 4047 
Q 1172 3844 1172 3481 
z
" transform="scale(0.015625)"/>
       </defs>
       <use xlink:href="#DejaVuSans-38"/>
       <use xlink:href="#DejaVuSans-30" x="63.623047"/>
       <use xlink:href="#DejaVuSans-30" x="127.246094"/>
      </g>
     </g>
    </g>
    <g id="xtick_4">
     <g id="line2d_4">
      <g>
       <use xlink:href="#md6ad81d2f1" x="764.734174" y="961.2" style="stroke: #000000; stroke-width: 0.8"/>
      </g>
     </g>
     <g id="text_4">
      <!-- 850 -->
      <g transform="translate(755.190424 975.798437) scale(0.1 -0.1)">
       <use xlink:href="#DejaVuSans-38"/>
       <use xlink:href="#DejaVuSans-35" x="63.623047"/>
       <use xlink:href="#DejaVuSans-30" x="127.246094"/>
      </g>
     </g>
    </g>
    <g id="xtick_5">
     <g id="line2d_5">
      <g>
       <use xlink:href="#md6ad81d2f1" x="804.282876" y="961.2" style="stroke: #000000; stroke-width: 0.8"/>
      </g>
     </g>
     <g id="text_5">
      <!-- 900 -->
      <g transform="translate(794.739126 975.798437) scale(0.1 -0.1)">
       <defs>
        <path id="DejaVuSans-39" d="M 703 97 
L 703 672 
Q 941 559 1184 500 
Q 1428 441 1663 441 
Q 2288 441 2617 861 
Q 2947 1281 2994 2138 
Q 2813 1869 2534 1725 
Q 2256 1581 1919 1581 
Q 1219 1581 811 2004 
Q 403 2428 403 3163 
Q 403 3881 828 4315 
Q 1253 4750 1959 4750 
Q 2769 4750 3195 4129 
Q 3622 3509 3622 2328 
Q 3622 1225 3098 567 
Q 2575 -91 1691 -91 
Q 1453 -91 1209 -44 
Q 966 3 703 97 
z
M 1959 2075 
Q 2384 2075 2632 2365 
Q 2881 2656 2881 3163 
Q 2881 3666 2632 3958 
Q 2384 4250 1959 4250 
Q 1534 4250 1286 3958 
Q 1038 3666 1038 3163 
Q 1038 2656 1286 2365 
Q 1534 2075 1959 2075 
z
" transform="scale(0.015625)"/>
       </defs>
       <use xlink:href="#DejaVuSans-39"/>
       <use xlink:href="#DejaVuSans-30" x="63.623047"/>
       <use xlink:href="#DejaVuSans-30" x="127.246094"/>
      </g>
     </g>
    </g>
    <g id="xtick_6">
     <g id="line2d_6">
      <g>
       <use xlink:href="#md6ad81d2f1" x="843.831579" y="961.2" style="stroke: #000000; stroke-width: 0.8"/>
      </g>
     </g>
     <g id="text_6">
      <!-- 950 -->
      <g transform="translate(834.287829 975.798437) scale(0.1 -0.1)">
       <use xlink:href="#DejaVuSans-39"/>
       <use xlink:href="#DejaVuSans-35" x="63.623047"/>
       <use xlink:href="#DejaVuSans-30" x="127.246094"/>
      </g>
     </g>
    </g>
   </g>
   <g id="matplotlib.axis_2">
    <g id="ytick_1">
     <g id="line2d_7">
      <defs>
       <path id="m2574ab8131" d="M 0 0 
L -3.5 0 
" style="stroke: #000000; stroke-width: 0.8"/>
      </defs>
      <g>
       <use xlink:href="#m2574ab8131" x="616.42504" y="930.355836" style="stroke: #000000; stroke-width: 0.8"/>
      </g>
     </g>
     <g id="text_7">
      <!-- 200 -->
      <g transform="translate(590.33754 934.155055) scale(0.1 -0.1)">
       <defs>
        <path id="DejaVuSans-32" d="M 1228 531 
L 3431 531 
L 3431 0 
L 469 0 
L 469 531 
Q 828 903 1448 1529 
Q 2069 2156 2228 2338 
Q 2531 2678 2651 2914 
Q 2772 3150 2772 3378 
Q 2772 3750 2511 3984 
Q 2250 4219 1831 4219 
Q 1534 4219 1204 4116 
Q 875 4013 500 3803 
L 500 4441 
Q 881 4594 1212 4672 
Q 1544 4750 1819 4750 
Q 2544 4750 2975 4387 
Q 3406 4025 3406 3419 
Q 3406 3131 3298 2873 
Q 3191 2616 2906 2266 
Q 2828 2175 2409 1742 
Q 1991 1309 1228 531 
z
" transform="scale(0.015625)"/>
       </defs>
       <use xlink:href="#DejaVuSans-32"/>
       <use xlink:href="#DejaVuSans-30" x="63.623047"/>
       <use xlink:href="#DejaVuSans-30" x="127.246094"/>
      </g>
     </g>
    </g>
    <g id="ytick_2">
     <g id="line2d_8">
      <g>
       <use xlink:href="#m2574ab8131" x="616.42504" y="772.161025" style="stroke: #000000; stroke-width: 0.8"/>
      </g>
     </g>
     <g id="text_8">
      <!-- 400 -->
      <g transform="translate(590.33754 775.960244) scale(0.1 -0.1)">
       <defs>
        <path id="DejaVuSans-34" d="M 2419 4116 
L 825 1625 
L 2419 1625 
L 2419 4116 
z
M 2253 4666 
L 3047 4666 
L 3047 1625 
L 3713 1625 
L 3713 1100 
L 3047 1100 
L 3047 0 
L 2419 0 
L 2419 1100 
L 313 1100 
L 313 1709 
L 2253 4666 
z
" transform="scale(0.015625)"/>
       </defs>
       <use xlink:href="#DejaVuSans-34"/>
       <use xlink:href="#DejaVuSans-30" x="63.623047"/>
       <use xlink:href="#DejaVuSans-30" x="127.246094"/>
      </g>
     </g>
    </g>
    <g id="ytick_3">
     <g id="line2d_9">
      <g>
       <use xlink:href="#m2574ab8131" x="616.42504" y="613.966214" style="stroke: #000000; stroke-width: 0.8"/>
      </g>
     </g>
     <g id="text_9">
      <!-- 600 -->
      <g transform="translate(590.33754 617.765433) scale(0.1 -0.1)">
       <defs>
        <path id="DejaVuSans-36" d="M 2113 2584 
Q 1688 2584 1439 2293 
Q 1191 2003 1191 1497 
Q 1191 994 1439 701 
Q 1688 409 2113 409 
Q 2538 409 2786 701 
Q 3034 994 3034 1497 
Q 3034 2003 2786 2293 
Q 2538 2584 2113 2584 
z
M 3366 4563 
L 3366 3988 
Q 3128 4100 2886 4159 
Q 2644 4219 2406 4219 
Q 1781 4219 1451 3797 
Q 1122 3375 1075 2522 
Q 1259 2794 1537 2939 
Q 1816 3084 2150 3084 
Q 2853 3084 3261 2657 
Q 3669 2231 3669 1497 
Q 3669 778 3244 343 
Q 2819 -91 2113 -91 
Q 1303 -91 875 529 
Q 447 1150 447 2328 
Q 447 3434 972 4092 
Q 1497 4750 2381 4750 
Q 2619 4750 2861 4703 
Q 3103 4656 3366 4563 
z
" transform="scale(0.015625)"/>
       </defs>
       <use xlink:href="#DejaVuSans-36"/>
       <use xlink:href="#DejaVuSans-30" x="63.623047"/>
       <use xlink:href="#DejaVuSans-30" x="127.246094"/>
      </g>
     </g>
    </g>
    <g id="ytick_4">
     <g id="line2d_10">
      <g>
       <use xlink:href="#m2574ab8131" x="616.42504" y="455.771404" style="stroke: #000000; stroke-width: 0.8"/>
      </g>
     </g>
     <g id="text_10">
      <!-- 800 -->
      <g transform="translate(590.33754 459.570622) scale(0.1 -0.1)">
       <use xlink:href="#DejaVuSans-38"/>
       <use xlink:href="#DejaVuSans-30" x="63.623047"/>
       <use xlink:href="#DejaVuSans-30" x="127.246094"/>
      </g>
     </g>
    </g>
    <g id="ytick_5">
     <g id="line2d_11">
      <g>
       <use xlink:href="#m2574ab8131" x="616.42504" y="297.576593" style="stroke: #000000; stroke-width: 0.8"/>
      </g>
     </g>
     <g id="text_11">
      <!-- 1000 -->
      <g transform="translate(583.97504 301.375812) scale(0.1 -0.1)">
       <defs>
        <path id="DejaVuSans-31" d="M 794 531 
L 1825 531 
L 1825 4091 
L 703 3866 
L 703 4441 
L 1819 4666 
L 2450 4666 
L 2450 531 
L 3481 531 
L 3481 0 
L 794 0 
L 794 531 
z
" transform="scale(0.015625)"/>
       </defs>
       <use xlink:href="#DejaVuSans-31"/>
       <use xlink:href="#DejaVuSans-30" x="63.623047"/>
       <use xlink:href="#DejaVuSans-30" x="127.246094"/>
       <use xlink:href="#DejaVuSans-30" x="190.869141"/>
      </g>
     </g>
    </g>
    <g id="ytick_6">
     <g id="line2d_12">
      <g>
       <use xlink:href="#m2574ab8131" x="616.42504" y="139.381782" style="stroke: #000000; stroke-width: 0.8"/>
      </g>
     </g>
     <g id="text_12">
      <!-- 1200 -->
      <g transform="translate(583.97504 143.181001) scale(0.1 -0.1)">
       <use xlink:href="#DejaVuSans-31"/>
       <use xlink:href="#DejaVuSans-32" x="63.623047"/>
       <use xlink:href="#DejaVuSans-30" x="127.246094"/>
       <use xlink:href="#DejaVuSans-30" x="190.869141"/>
      </g>
     </g>
    </g>
   </g>
   <g id="LineCollection_1">
    <path d="M 723.804351 167.4 
L 704.037592 179.282298 
L 686.928795 190.879561 
L 672.285254 202.249809 
L 659.931692 213.457301 
L 649.718015 224.568058 
L 641.527229 235.638276 
L 636.074301 245.072598 
L 635.277293 246.694109 
L 631.515494 255.855917 
L 630.90755 257.708864 
L 628.479186 267.599159 
L 628.346607 268.594889 
L 627.520418 277.264721 
L 627.477309 279.226778 
L 627.909185 287.675586 
L 628.125891 289.488046 
L 630.083722 299.309491 
L 633.141417 308.677447 
L 637.112289 317.61851 
L 641.839339 326.178827 
L 647.192079 334.408934 
L 653.060298 342.355846 
L 659.348463 350.060169 
L 665.971742 357.555818 
L 672.853491 364.870774 
L 679.923748 372.028103 
L 687.118365 379.046914 
L 701.650351 392.730262 
L 729.986217 419.031698 
L 743.170688 431.763318 
L 749.416563 438.042223 
L 755.405123 444.269067 
L 761.121312 450.447667 
L 766.553683 456.58153 
L 771.694227 462.673988 
L 776.538165 468.728337 
L 781.083728 474.747965 
L 785.331897 480.736471 
L 789.286117 486.697764 
L 792.951984 492.636129 
L 796.336913 498.556254 
L 799.449798 504.463213 
L 802.300675 510.362399 
L 804.900413 516.259416 
L 807.260428 522.159937 
L 809.392454 528.069541 
L 811.308354 533.993554 
L 813.019979 539.936899 
L 814.539074 545.903981 
L 815.877202 551.898598 
L 817.045698 557.923906 
L 818.055625 563.98241 
L 818.917729 570.075993 
L 819.642386 576.205972 
L 820.239546 582.373165 
L 820.71866 588.577975 
L 821.357596 601.100476 
L 821.621827 613.771522 
L 821.56094 626.587633 
L 821.209326 639.545966 
L 820.584791 652.646217 
L 819.688114 665.892339 
L 818.503694 679.294141 
L 817.001269 692.868774 
L 815.138683 706.642032 
L 812.86565 720.649325 
L 810.128559 734.936135 
L 808.569779 742.201291 
L 806.876484 749.557809 
L 805.043963 757.013998 
L 800.948776 772.260933 
L 796.277133 788.017166 
L 791.059856 804.363399 
L 782.409376 830.190655 
L 776.339883 848.453721 
L 773.320343 857.930862 
L 770.374508 867.65868 
L 767.561604 877.653773 
L 764.951639 887.933775 
L 762.62691 898.517018 
L 760.683685 909.421717 
L 759.311047 919.910243 
L 759.311047 919.910243 
" clip-path="url(#pb4235fc60a)" style="fill: none; stroke: #1f77b4; stroke-width: 1.5"/>
    <path d="M 730.722289 178.930485 
L 711.567655 190.42268 
L 695.15359 201.517356 
L 681.288396 212.237471 
L 669.787015 222.605119 
L 660.471101 232.641538 
L 653.169073 242.367125 
L 647.716145 251.801448 
L 643.954346 260.963256 
L 641.732524 269.870497 
L 640.906335 278.540329 
L 641.338211 286.989136 
L 642.897327 295.232546 
L 645.459541 303.285439 
L 648.907334 311.161974 
L 653.129724 318.875598 
L 658.022181 326.439064 
L 663.486523 333.864452 
L 669.430805 341.163185 
L 675.769193 348.346046 
L 682.421839 355.423199 
L 689.314732 362.404208 
L 696.379554 369.298052 
L 703.55352 376.113151 
L 710.779215 382.85738 
L 718.004417 389.538093 
L 725.181927 396.162141 
L 732.269378 402.735892 
L 739.229049 409.265254 
L 746.027668 415.755692 
L 752.63622 422.212252 
L 759.029736 428.639578 
L 765.187095 435.041938 
L 771.090814 441.42324 
L 776.726838 447.787053 
L 782.084329 454.136632 
L 787.155452 460.474936 
L 791.935166 466.804645 
L 796.421006 473.128189 
L 800.612878 479.44776 
L 804.51284 485.765338 
L 808.1249 492.082707 
L 811.454804 498.401479 
L 814.509835 504.723109 
L 817.298608 511.04892 
L 819.830879 517.380116 
L 822.117348 523.717806 
L 824.169469 530.063021 
L 825.999275 536.41673 
L 827.619196 542.779861 
L 829.041889 549.153318 
L 830.280079 555.537996 
L 831.346399 561.934798 
L 832.253248 568.344656 
L 833.012649 574.768538 
L 833.636121 581.207473 
L 834.134561 587.662556 
L 834.51813 594.134972 
L 834.796161 600.626001 
L 834.977069 607.137034 
L 835.068274 613.66959 
L 835.076142 620.225319 
L 835.005934 626.80602 
L 834.861768 633.413648 
L 834.646598 640.050326 
L 834.36221 646.71835 
L 834.009222 653.420201 
L 833.587115 660.158551 
L 833.094266 666.936269 
L 832.528008 673.756426 
L 831.884704 680.622303 
L 831.159833 687.537389 
L 830.348105 694.505392 
L 829.443587 701.530235 
L 828.439852 708.616057 
L 827.330143 715.767217 
L 826.107565 722.988293 
L 824.765295 730.284073 
L 823.296809 737.659563 
L 821.696136 745.119974 
L 819.958135 752.670721 
L 818.078792 760.317416 
L 816.055546 768.06586 
L 813.887628 775.922036 
L 811.576441 783.892098 
L 809.125951 791.982359 
L 806.543109 800.199281 
L 803.838307 808.549461 
L 801.025844 817.039615 
L 798.124437 825.676563 
L 795.157748 834.467212 
L 792.154947 843.418533 
L 789.151296 852.537549 
L 786.188773 861.831306 
L 783.316718 871.306852 
L 780.592511 880.971216 
L 778.082285 890.831375 
L 775.861667 900.894236 
L 774.016553 911.166596 
L 772.643914 921.655121 
" clip-path="url(#pb4235fc60a)" style="fill: none; stroke: #8c564b; stroke-width: 1.5"/>
    <path d="M 737.640228 190.460969 
L 718.796921 201.766377 
L 703.039035 212.417525 
L 689.914631 222.564886 
L 679.234947 232.191834 
L 670.803309 241.275587 
L 664.406905 249.794972 
L 659.811086 257.746376 
L 656.764529 265.166222 
L 655.022948 272.14819 
L 654.385588 278.836485 
L 654.720536 285.389085 
L 655.958129 291.93253 
L 658.059813 298.537999 
L 660.987417 305.226156 
L 664.687967 311.986461 
L 669.09247 318.795578 
L 674.121085 325.628865 
L 679.689099 332.465595 
L 685.711551 339.290427 
L 692.106198 346.093119 
L 698.795218 352.867648 
L 705.70606 359.611238 
L 719.931203 373.00588 
L 748.514205 399.539216 
L 762.033125 412.594138 
L 768.721519 419.318673 
L 775.057423 425.910314 
L 781.157139 432.508137 
L 787.003903 439.115727 
L 792.583939 445.736148 
L 797.886251 452.371856 
L 802.902433 459.024607 
L 807.626519 465.695395 
L 812.05486 472.384404 
L 816.186023 479.091003 
L 820.020718 485.813778 
L 823.561718 492.550616 
L 826.813785 499.298835 
L 829.783566 506.055345 
L 832.479458 512.816849 
L 834.91144 519.580037 
L 837.090861 526.341786 
L 839.030193 533.09933 
L 840.74277 539.850396 
L 842.242506 546.593304 
L 843.54362 553.327019 
L 844.660373 560.051173 
L 845.606823 566.766059 
L 846.396612 573.472589 
L 847.042772 580.172258 
L 847.557569 586.86708 
L 848.230402 600.05057 
L 848.422317 606.949317 
L 848.521936 620.36877 
L 848.301265 633.849373 
L 847.790156 647.425602 
L 846.998264 661.133758 
L 845.91593 675.01082 
L 844.51607 689.093305 
L 842.757235 703.416167 
L 840.588027 718.011868 
L 837.989902 732.717123 
L 836.444159 740.480402 
L 834.800045 748.13618 
L 833.0161 755.880001 
L 831.08913 763.71463 
L 829.017635 771.642758 
L 824.490965 787.637098 
L 821.953714 796.014535 
L 816.602744 812.77783 
L 807.902235 838.755354 
L 801.943087 856.682931 
L 799.029349 865.823646 
L 796.22327 875.081521 
L 793.581174 884.454588 
L 791.166429 893.939698 
L 789.049503 903.532672 
L 787.30789 913.228812 
L 785.976781 923.4 
L 785.976781 923.4 
" clip-path="url(#pb4235fc60a)" style="fill: none; stroke: #17becf; stroke-width: 1.5"/>
   </g>
   <g id="patch_3">
    <path d="M 616.42504 961.2 
L 616.42504 129.6 
" style="fill: none; stroke: #000000; stroke-width: 0.8; stroke-linejoin: miter; stroke-linecap: square"/>
   </g>
   <g id="patch_4">
    <path d="M 859.57496 961.2 
L 859.57496 129.6 
" style="fill: none; stroke: #000000; stroke-width: 0.8; stroke-linejoin: miter; stroke-linecap: square"/>
   </g>
   <g id="patch_5">
    <path d="M 616.42504 961.2 
L 859.57496 961.2 
" style="fill: none; stroke: #000000; stroke-width: 0.8; stroke-linejoin: miter; stroke-linecap: square"/>
   </g>
   <g id="patch_6">
    <path d="M 616.42504 129.6 
L 859.57496 129.6 
" style="fill: none; stroke: #000000; stroke-width: 0.8; stroke-linejoin: miter; stroke-linecap: square"/>
   </g>
  </g>
 </g>
 <defs>
  <clipPath id="pb4235fc60a">
   <rect x="616.42504" y="129.6" width="243.149921" height="831.6"/>
  </clipPath>
 </defs>
</svg>
