<?xml version="1.0" encoding="utf-8" standalone="no"?>
<!DOCTYPE svg PUBLIC "-//W3C//DTD SVG 1.1//EN"
  "http://www.w3.org/Graphics/SVG/1.1/DTD/svg11.dtd">
<svg xmlns:xlink="http://www.w3.org/1999/xlink" width="1440pt" height="1080pt" viewBox="0 0 1440 1080" xmlns="http://www.w3.org/2000/svg" version="1.1">
 <metadata>
  <rdf:RDF xmlns:dc="http://purl.org/dc/elements/1.1/" xmlns:cc="http://creativecommons.org/ns#" xmlns:rdf="http://www.w3.org/1999/02/22-rdf-syntax-ns#">
   <cc:Work>
    <dc:type rdf:resource="http://purl.org/dc/dcmitype/StillImage"/>
    <dc:date>2023-12-11T12:06:54.859102</dc:date>
    <dc:format>image/svg+xml</dc:format>
    <dc:creator>
     <cc:Agent>
      <dc:title>Matplotlib v3.7.1, https://matplotlib.org/</dc:title>
     </cc:Agent>
    </dc:creator>
   </cc:Work>
  </rdf:RDF>
 </metadata>
 <defs>
  <style type="text/css">*{stroke-linejoin: round; stroke-linecap: butt}</style>
 </defs>
 <g id="figure_1">
  <g id="patch_1">
   <path d="M 0 1080 
L 1440 1080 
L 1440 0 
L 0 0 
z
" style="fill: #ffffff"/>
  </g>
  <g id="axes_1">
   <g id="patch_2">
    <path d="M 180 728.36826 
L 1296 728.36826 
L 1296 362.43174 
L 180 362.43174 
z
" style="fill: #ffffff"/>
   </g>
   <g id="matplotlib.axis_1">
    <g id="xtick_1">
     <g id="line2d_1">
      <defs>
       <path id="m0c46eadf0d" d="M 0 0 
L 0 3.5 
" style="stroke: #000000; stroke-width: 0.8"/>
      </defs>
      <g>
       <use xlink:href="#m0c46eadf0d" x="224.164552" y="728.36826" style="stroke: #000000; stroke-width: 0.8"/>
      </g>
     </g>
     <g id="text_1">
      <!-- 0 -->
      <g transform="translate(220.983302 742.966697) scale(0.1 -0.1)">
       <defs>
        <path id="DejaVuSans-30" d="M 2034 4250 
Q 1547 4250 1301 3770 
Q 1056 3291 1056 2328 
Q 1056 1369 1301 889 
Q 1547 409 2034 409 
Q 2525 409 2770 889 
Q 3016 1369 3016 2328 
Q 3016 3291 2770 3770 
Q 2525 4250 2034 4250 
z
M 2034 4750 
Q 2819 4750 3233 4129 
Q 3647 3509 3647 2328 
Q 3647 1150 3233 529 
Q 2819 -91 2034 -91 
Q 1250 -91 836 529 
Q 422 1150 422 2328 
Q 422 3509 836 4129 
Q 1250 4750 2034 4750 
z
" transform="scale(0.015625)"/>
       </defs>
       <use xlink:href="#DejaVuSans-30"/>
      </g>
     </g>
    </g>
    <g id="xtick_2">
     <g id="line2d_2">
      <g>
       <use xlink:href="#m0c46eadf0d" x="456.811773" y="728.36826" style="stroke: #000000; stroke-width: 0.8"/>
      </g>
     </g>
     <g id="text_2">
      <!-- 200 -->
      <g transform="translate(447.268023 742.966697) scale(0.1 -0.1)">
       <defs>
        <path id="DejaVuSans-32" d="M 1228 531 
L 3431 531 
L 3431 0 
L 469 0 
L 469 531 
Q 828 903 1448 1529 
Q 2069 2156 2228 2338 
Q 2531 2678 2651 2914 
Q 2772 3150 2772 3378 
Q 2772 3750 2511 3984 
Q 2250 4219 1831 4219 
Q 1534 4219 1204 4116 
Q 875 4013 500 3803 
L 500 4441 
Q 881 4594 1212 4672 
Q 1544 4750 1819 4750 
Q 2544 4750 2975 4387 
Q 3406 4025 3406 3419 
Q 3406 3131 3298 2873 
Q 3191 2616 2906 2266 
Q 2828 2175 2409 1742 
Q 1991 1309 1228 531 
z
" transform="scale(0.015625)"/>
       </defs>
       <use xlink:href="#DejaVuSans-32"/>
       <use xlink:href="#DejaVuSans-30" x="63.623047"/>
       <use xlink:href="#DejaVuSans-30" x="127.246094"/>
      </g>
     </g>
    </g>
    <g id="xtick_3">
     <g id="line2d_3">
      <g>
       <use xlink:href="#m0c46eadf0d" x="689.458995" y="728.36826" style="stroke: #000000; stroke-width: 0.8"/>
      </g>
     </g>
     <g id="text_3">
      <!-- 400 -->
      <g transform="translate(679.915245 742.966697) scale(0.1 -0.1)">
       <defs>
        <path id="DejaVuSans-34" d="M 2419 4116 
L 825 1625 
L 2419 1625 
L 2419 4116 
z
M 2253 4666 
L 3047 4666 
L 3047 1625 
L 3713 1625 
L 3713 1100 
L 3047 1100 
L 3047 0 
L 2419 0 
L 2419 1100 
L 313 1100 
L 313 1709 
L 2253 4666 
z
" transform="scale(0.015625)"/>
       </defs>
       <use xlink:href="#DejaVuSans-34"/>
       <use xlink:href="#DejaVuSans-30" x="63.623047"/>
       <use xlink:href="#DejaVuSans-30" x="127.246094"/>
      </g>
     </g>
    </g>
    <g id="xtick_4">
     <g id="line2d_4">
      <g>
       <use xlink:href="#m0c46eadf0d" x="922.106217" y="728.36826" style="stroke: #000000; stroke-width: 0.8"/>
      </g>
     </g>
     <g id="text_4">
      <!-- 600 -->
      <g transform="translate(912.562467 742.966697) scale(0.1 -0.1)">
       <defs>
        <path id="DejaVuSans-36" d="M 2113 2584 
Q 1688 2584 1439 2293 
Q 1191 2003 1191 1497 
Q 1191 994 1439 701 
Q 1688 409 2113 409 
Q 2538 409 2786 701 
Q 3034 994 3034 1497 
Q 3034 2003 2786 2293 
Q 2538 2584 2113 2584 
z
M 3366 4563 
L 3366 3988 
Q 3128 4100 2886 4159 
Q 2644 4219 2406 4219 
Q 1781 4219 1451 3797 
Q 1122 3375 1075 2522 
Q 1259 2794 1537 2939 
Q 1816 3084 2150 3084 
Q 2853 3084 3261 2657 
Q 3669 2231 3669 1497 
Q 3669 778 3244 343 
Q 2819 -91 2113 -91 
Q 1303 -91 875 529 
Q 447 1150 447 2328 
Q 447 3434 972 4092 
Q 1497 4750 2381 4750 
Q 2619 4750 2861 4703 
Q 3103 4656 3366 4563 
z
" transform="scale(0.015625)"/>
       </defs>
       <use xlink:href="#DejaVuSans-36"/>
       <use xlink:href="#DejaVuSans-30" x="63.623047"/>
       <use xlink:href="#DejaVuSans-30" x="127.246094"/>
      </g>
     </g>
    </g>
    <g id="xtick_5">
     <g id="line2d_5">
      <g>
       <use xlink:href="#m0c46eadf0d" x="1154.753439" y="728.36826" style="stroke: #000000; stroke-width: 0.8"/>
      </g>
     </g>
     <g id="text_5">
      <!-- 800 -->
      <g transform="translate(1145.209689 742.966697) scale(0.1 -0.1)">
       <defs>
        <path id="DejaVuSans-38" d="M 2034 2216 
Q 1584 2216 1326 1975 
Q 1069 1734 1069 1313 
Q 1069 891 1326 650 
Q 1584 409 2034 409 
Q 2484 409 2743 651 
Q 3003 894 3003 1313 
Q 3003 1734 2745 1975 
Q 2488 2216 2034 2216 
z
M 1403 2484 
Q 997 2584 770 2862 
Q 544 3141 544 3541 
Q 544 4100 942 4425 
Q 1341 4750 2034 4750 
Q 2731 4750 3128 4425 
Q 3525 4100 3525 3541 
Q 3525 3141 3298 2862 
Q 3072 2584 2669 2484 
Q 3125 2378 3379 2068 
Q 3634 1759 3634 1313 
Q 3634 634 3220 271 
Q 2806 -91 2034 -91 
Q 1263 -91 848 271 
Q 434 634 434 1313 
Q 434 1759 690 2068 
Q 947 2378 1403 2484 
z
M 1172 3481 
Q 1172 3119 1398 2916 
Q 1625 2713 2034 2713 
Q 2441 2713 2670 2916 
Q 2900 3119 2900 3481 
Q 2900 3844 2670 4047 
Q 2441 4250 2034 4250 
Q 1625 4250 1398 4047 
Q 1172 3844 1172 3481 
z
" transform="scale(0.015625)"/>
       </defs>
       <use xlink:href="#DejaVuSans-38"/>
       <use xlink:href="#DejaVuSans-30" x="63.623047"/>
       <use xlink:href="#DejaVuSans-30" x="127.246094"/>
      </g>
     </g>
    </g>
   </g>
   <g id="matplotlib.axis_2">
    <g id="ytick_1">
     <g id="line2d_6">
      <defs>
       <path id="m514c119792" d="M 0 0 
L -3.5 0 
" style="stroke: #000000; stroke-width: 0.8"/>
      </defs>
      <g>
       <use xlink:href="#m514c119792" x="180" y="717.56613" style="stroke: #000000; stroke-width: 0.8"/>
      </g>
     </g>
     <g id="text_6">
      <!-- 1050 -->
      <g transform="translate(147.55 721.365349) scale(0.1 -0.1)">
       <defs>
        <path id="DejaVuSans-31" d="M 794 531 
L 1825 531 
L 1825 4091 
L 703 3866 
L 703 4441 
L 1819 4666 
L 2450 4666 
L 2450 531 
L 3481 531 
L 3481 0 
L 794 0 
L 794 531 
z
" transform="scale(0.015625)"/>
        <path id="DejaVuSans-35" d="M 691 4666 
L 3169 4666 
L 3169 4134 
L 1269 4134 
L 1269 2991 
Q 1406 3038 1543 3061 
Q 1681 3084 1819 3084 
Q 2600 3084 3056 2656 
Q 3513 2228 3513 1497 
Q 3513 744 3044 326 
Q 2575 -91 1722 -91 
Q 1428 -91 1123 -41 
Q 819 9 494 109 
L 494 744 
Q 775 591 1075 516 
Q 1375 441 1709 441 
Q 2250 441 2565 725 
Q 2881 1009 2881 1497 
Q 2881 1984 2565 2268 
Q 2250 2553 1709 2553 
Q 1456 2553 1204 2497 
Q 953 2441 691 2322 
L 691 4666 
z
" transform="scale(0.015625)"/>
       </defs>
       <use xlink:href="#DejaVuSans-31"/>
       <use xlink:href="#DejaVuSans-30" x="63.623047"/>
       <use xlink:href="#DejaVuSans-35" x="127.246094"/>
       <use xlink:href="#DejaVuSans-30" x="190.869141"/>
      </g>
     </g>
    </g>
    <g id="ytick_2">
     <g id="line2d_7">
      <g>
       <use xlink:href="#m514c119792" x="180" y="659.404325" style="stroke: #000000; stroke-width: 0.8"/>
      </g>
     </g>
     <g id="text_7">
      <!-- 1100 -->
      <g transform="translate(147.55 663.203544) scale(0.1 -0.1)">
       <use xlink:href="#DejaVuSans-31"/>
       <use xlink:href="#DejaVuSans-31" x="63.623047"/>
       <use xlink:href="#DejaVuSans-30" x="127.246094"/>
       <use xlink:href="#DejaVuSans-30" x="190.869141"/>
      </g>
     </g>
    </g>
    <g id="ytick_3">
     <g id="line2d_8">
      <g>
       <use xlink:href="#m514c119792" x="180" y="601.242519" style="stroke: #000000; stroke-width: 0.8"/>
      </g>
     </g>
     <g id="text_8">
      <!-- 1150 -->
      <g transform="translate(147.55 605.041738) scale(0.1 -0.1)">
       <use xlink:href="#DejaVuSans-31"/>
       <use xlink:href="#DejaVuSans-31" x="63.623047"/>
       <use xlink:href="#DejaVuSans-35" x="127.246094"/>
       <use xlink:href="#DejaVuSans-30" x="190.869141"/>
      </g>
     </g>
    </g>
    <g id="ytick_4">
     <g id="line2d_9">
      <g>
       <use xlink:href="#m514c119792" x="180" y="543.080714" style="stroke: #000000; stroke-width: 0.8"/>
      </g>
     </g>
     <g id="text_9">
      <!-- 1200 -->
      <g transform="translate(147.55 546.879933) scale(0.1 -0.1)">
       <use xlink:href="#DejaVuSans-31"/>
       <use xlink:href="#DejaVuSans-32" x="63.623047"/>
       <use xlink:href="#DejaVuSans-30" x="127.246094"/>
       <use xlink:href="#DejaVuSans-30" x="190.869141"/>
      </g>
     </g>
    </g>
    <g id="ytick_5">
     <g id="line2d_10">
      <g>
       <use xlink:href="#m514c119792" x="180" y="484.918909" style="stroke: #000000; stroke-width: 0.8"/>
      </g>
     </g>
     <g id="text_10">
      <!-- 1250 -->
      <g transform="translate(147.55 488.718127) scale(0.1 -0.1)">
       <use xlink:href="#DejaVuSans-31"/>
       <use xlink:href="#DejaVuSans-32" x="63.623047"/>
       <use xlink:href="#DejaVuSans-35" x="127.246094"/>
       <use xlink:href="#DejaVuSans-30" x="190.869141"/>
      </g>
     </g>
    </g>
    <g id="ytick_6">
     <g id="line2d_11">
      <g>
       <use xlink:href="#m514c119792" x="180" y="426.757103" style="stroke: #000000; stroke-width: 0.8"/>
      </g>
     </g>
     <g id="text_11">
      <!-- 1300 -->
      <g transform="translate(147.55 430.556322) scale(0.1 -0.1)">
       <defs>
        <path id="DejaVuSans-33" d="M 2597 2516 
Q 3050 2419 3304 2112 
Q 3559 1806 3559 1356 
Q 3559 666 3084 287 
Q 2609 -91 1734 -91 
Q 1441 -91 1130 -33 
Q 819 25 488 141 
L 488 750 
Q 750 597 1062 519 
Q 1375 441 1716 441 
Q 2309 441 2620 675 
Q 2931 909 2931 1356 
Q 2931 1769 2642 2001 
Q 2353 2234 1838 2234 
L 1294 2234 
L 1294 2753 
L 1863 2753 
Q 2328 2753 2575 2939 
Q 2822 3125 2822 3475 
Q 2822 3834 2567 4026 
Q 2313 4219 1838 4219 
Q 1578 4219 1281 4162 
Q 984 4106 628 3988 
L 628 4550 
Q 988 4650 1302 4700 
Q 1616 4750 1894 4750 
Q 2613 4750 3031 4423 
Q 3450 4097 3450 3541 
Q 3450 3153 3228 2886 
Q 3006 2619 2597 2516 
z
" transform="scale(0.015625)"/>
       </defs>
       <use xlink:href="#DejaVuSans-31"/>
       <use xlink:href="#DejaVuSans-33" x="63.623047"/>
       <use xlink:href="#DejaVuSans-30" x="127.246094"/>
       <use xlink:href="#DejaVuSans-30" x="190.869141"/>
      </g>
     </g>
    </g>
    <g id="ytick_7">
     <g id="line2d_12">
      <g>
       <use xlink:href="#m514c119792" x="180" y="368.595298" style="stroke: #000000; stroke-width: 0.8"/>
      </g>
     </g>
     <g id="text_12">
      <!-- 1350 -->
      <g transform="translate(147.55 372.394516) scale(0.1 -0.1)">
       <use xlink:href="#DejaVuSans-31"/>
       <use xlink:href="#DejaVuSans-33" x="63.623047"/>
       <use xlink:href="#DejaVuSans-35" x="127.246094"/>
       <use xlink:href="#DejaVuSans-30" x="190.869141"/>
      </g>
     </g>
    </g>
   </g>
   <g id="LineCollection_1">
    <path d="M 230.727273 571.174301 
L 249.28037 592.844012 
L 267.094199 612.084296 
L 284.227599 629.09942 
L 300.735251 644.074505 
L 316.667646 657.176714 
L 332.070965 668.556441 
L 346.986875 678.348541 
L 361.452289 686.673652 
L 375.49913 693.639637 
L 389.154201 699.343169 
L 402.439246 703.871411 
L 415.371284 707.30374 
L 427.963261 709.713375 
L 440.22498 711.16879 
L 452.164219 711.734782 
L 463.787879 711.473153 
L 475.102995 710.443018 
L 486.117498 708.700834 
L 496.840655 706.300278 
L 507.283214 703.292096 
L 517.4573 699.724025 
L 527.376162 695.640824 
L 537.053842 691.084439 
L 546.504843 686.094277 
L 555.743829 680.707546 
L 564.785385 674.959643 
L 573.643836 668.884551 
L 582.333126 662.515219 
L 590.866738 655.883914 
L 599.257663 649.022531 
L 607.51838 641.962864 
L 615.660859 634.736829 
L 623.696574 627.37664 
L 639.491191 612.384944 
L 662.648908 589.718745 
L 677.856118 574.878747 
L 685.408742 567.654075 
L 692.937165 560.608172 
L 700.447957 553.777454 
L 707.947031 547.198039 
L 715.43963 540.905435 
L 722.930345 534.934176 
L 730.423193 529.317389 
L 737.92178 524.086323 
L 745.42959 519.269839 
L 752.950414 514.893921 
L 760.488959 510.981263 
L 768.051597 507.551038 
L 775.647178 504.618936 
L 783.287773 502.197573 
L 790.989113 500.297267 
L 798.77051 498.927076 
L 806.654118 498.095853 
L 814.663539 497.813002 
L 822.822036 498.088643 
L 831.150701 498.933066 
L 839.666993 500.355568 
L 848.383881 502.362925 
L 857.309645 504.957837 
L 866.448223 508.137577 
L 875.79987 511.89298 
L 885.361954 516.2078 
L 895.129708 521.058348 
L 905.096867 526.413342 
L 915.256177 532.233874 
L 925.599759 538.473429 
L 936.119399 545.07792 
L 957.653593 559.127603 
L 979.831155 573.822876 
L 991.143873 581.195606 
L 1002.594321 588.44974 
L 1014.181751 595.476371 
L 1025.909047 602.157065 
L 1037.783857 608.362244 
L 1049.819476 613.948413 
L 1062.034571 618.753658 
L 1074.449685 622.591161 
L 1087.077079 625.242005 
L 1099.900346 626.452579 
L 1111.902503 626.080202 
L 1112.846256 625.94739 
L 1124.779382 623.769775 
L 1125.766942 623.466225 
L 1137.51824 619.281949 
L 1138.461756 618.8119 
L 1149.920958 612.455488 
L 1150.742138 611.866921 
L 1161.131059 603.781395 
L 1162.492411 602.555724 
L 1173.680073 590.785698 
L 1184.324389 576.413177 
L 1194.460073 559.242691 
L 1204.115874 539.041633 
L 1213.307318 515.555149 
L 1222.036859 488.516151 
L 1230.296502 457.650865 
L 1238.070646 422.681567 
L 1245.272727 383.716571 
L 1245.272727 383.716571 
" clip-path="url(#pcba0ccd37c)" style="fill: none; stroke: #1f77b4; stroke-width: 1.5"/>
    <path d="M 240.449857 562.855728 
L 258.67329 584.154918 
L 276.115539 603.010007 
L 292.831187 619.628117 
L 308.87084 634.198296 
L 324.281382 646.892827 
L 339.106226 657.868485 
L 353.385556 667.267738 
L 367.156553 675.219889 
L 380.453616 681.842164 
L 393.308564 687.240749 
L 405.750841 691.511773 
L 417.807703 694.742244 
L 429.504393 697.010925 
L 440.864316 698.389175 
L 451.909196 698.941726 
L 462.659229 698.72743 
L 473.133226 697.799944 
L 483.348747 696.208383 
L 493.322227 693.997921 
L 503.069095 691.210354 
L 512.603884 687.884614 
L 521.94033 684.057256 
L 531.091474 679.76289 
L 540.069742 675.034586 
L 548.887029 669.904231 
L 557.554774 664.402864 
L 566.084024 658.56096 
L 574.485495 652.408686 
L 582.76963 645.976132 
L 590.946638 639.293494 
L 599.026545 632.391237 
L 607.019228 625.300224 
L 614.934441 618.051817 
L 622.781848 610.677949 
L 630.571036 603.211169 
L 638.311538 595.684662 
L 646.012838 588.132242 
L 653.684378 580.588323 
L 661.335565 573.087867 
L 668.975762 565.66631 
L 676.614287 558.359467 
L 684.260402 551.203415 
L 691.923299 544.234365 
L 699.612084 537.488504 
L 707.335757 531.001835 
L 715.103193 524.809986 
L 722.92311 518.948022 
L 730.804049 513.450224 
L 738.754339 508.349876 
L 746.782066 503.679021 
L 754.89504 499.468224 
L 763.10076 495.746313 
L 771.406375 492.540118 
L 779.818647 489.874204 
L 788.343912 487.770595 
L 796.988038 486.24849 
L 805.756385 485.323982 
L 814.653763 485.009773 
L 823.684391 485.31488 
L 832.851857 486.244348 
L 842.15907 487.798959 
L 851.608225 489.974945 
L 861.200759 492.763702 
L 870.937313 496.151506 
L 880.81769 500.119235 
L 890.840817 504.642097 
L 901.004712 509.689363 
L 911.306443 515.22411 
L 921.7421 521.202969 
L 932.306759 527.575884 
L 942.994455 534.285885 
L 953.798155 541.268868 
L 964.709729 548.453392 
L 975.719936 555.760483 
L 986.818395 563.103465 
L 997.993581 570.387793 
L 1009.232799 577.510913 
L 1020.522187 584.362137 
L 1031.846703 590.822535 
L 1043.190126 596.76485 
L 1054.535061 602.053432 
L 1065.862942 606.544199 
L 1077.154046 610.084613 
L 1088.387509 612.513687 
L 1099.541348 613.662019 
L 1110.592485 613.351842 
L 1121.516781 611.397114 
L 1132.289074 607.60363 
L 1142.88322 601.769163 
L 1153.272141 593.683637 
L 1163.427883 583.129334 
L 1173.321676 569.881132 
L 1182.924003 553.706772 
L 1192.204673 534.367171 
L 1201.132903 511.616757 
L 1209.677409 485.203855 
L 1217.806498 454.871099 
L 1225.488176 420.355891 
L 1232.690258 381.390895 
" clip-path="url(#pcba0ccd37c)" style="fill: none; stroke: #8c564b; stroke-width: 1.5"/>
    <path d="M 250.172442 554.537155 
L 268.234634 575.647889 
L 285.326698 594.124428 
L 301.648123 610.350616 
L 317.245326 624.51888 
L 332.16132 636.806024 
L 346.436296 647.374585 
L 360.108271 656.374051 
L 373.213773 663.941907 
L 385.788533 670.204457 
L 397.868092 675.277409 
L 409.488251 679.266227 
L 420.685254 682.26631 
L 431.495666 684.36309 
L 441.955916 685.632185 
L 452.101588 686.139751 
L 461.966583 685.943098 
L 471.582316 685.091612 
L 480.977093 683.627922 
L 490.175764 681.589185 
L 499.199675 679.00838 
L 508.066878 675.915494 
L 516.792526 672.338526 
L 525.389363 668.30428 
L 533.868241 663.838973 
L 542.238605 658.968662 
L 550.50891 653.719547 
L 558.686973 648.11818 
L 566.780245 642.191597 
L 574.796021 635.96742 
L 582.741597 629.473919 
L 590.624378 622.740057 
L 598.451963 615.795517 
L 606.2322 608.670715 
L 621.683513 594.005665 
L 644.726977 571.450912 
L 660.130885 556.419935 
L 667.870776 549.01718 
L 675.651271 541.73715 
L 683.48447 534.615972 
L 691.382961 527.690094 
L 699.359782 520.99628 
L 707.428326 514.57164 
L 715.602182 508.453675 
L 723.89485 502.680346 
L 732.319333 497.290129 
L 740.887543 492.322001 
L 749.609556 487.815286 
L 758.492729 483.809254 
L 767.540819 480.342381 
L 776.753273 477.45121 
L 786.124931 475.168872 
L 795.646347 473.523429 
L 805.304793 472.536357 
L 815.085826 472.221473 
L 824.97509 472.584546 
L 834.959937 473.623599 
L 845.030533 475.329716 
L 855.180289 477.688055 
L 865.405679 480.678755 
L 875.705614 484.277559 
L 886.0806 488.456084 
L 896.531878 493.181768 
L 907.060633 498.417579 
L 917.667366 504.121589 
L 928.35138 510.246477 
L 939.110411 516.73902 
L 949.940318 523.539616 
L 960.834828 530.581842 
L 1004.912337 559.623741 
L 1015.977528 566.636568 
L 1027.012829 573.333594 
L 1037.987725 579.594541 
L 1048.865134 585.292731 
L 1059.600363 590.297092 
L 1070.140707 594.475651 
L 1080.427167 597.701051 
L 1090.40103 599.857755 
L 1100.0191 600.847973 
L 1109.278822 600.588077 
L 1118.24351 598.98399 
L 1127.042104 595.885548 
L 1135.823475 591.049422 
L 1144.688567 584.149867 
L 1153.653702 574.832896 
L 1162.664488 562.767077 
L 1171.632599 547.661004 
L 1180.465212 529.255089 
L 1189.078848 507.306308 
L 1197.402488 481.57615 
L 1205.376065 451.823669 
L 1212.947827 417.802332 
L 1220.107788 379.065218 
L 1220.107788 379.065218 
" clip-path="url(#pcba0ccd37c)" style="fill: none; stroke: #17becf; stroke-width: 1.5"/>
   </g>
   <g id="patch_3">
    <path d="M 180 728.36826 
L 180 362.43174 
" style="fill: none; stroke: #000000; stroke-width: 0.8; stroke-linejoin: miter; stroke-linecap: square"/>
   </g>
   <g id="patch_4">
    <path d="M 1296 728.36826 
L 1296 362.43174 
" style="fill: none; stroke: #000000; stroke-width: 0.8; stroke-linejoin: miter; stroke-linecap: square"/>
   </g>
   <g id="patch_5">
    <path d="M 180 728.36826 
L 1296 728.36826 
" style="fill: none; stroke: #000000; stroke-width: 0.8; stroke-linejoin: miter; stroke-linecap: square"/>
   </g>
   <g id="patch_6">
    <path d="M 180 362.43174 
L 1296 362.43174 
" style="fill: none; stroke: #000000; stroke-width: 0.8; stroke-linejoin: miter; stroke-linecap: square"/>
   </g>
  </g>
 </g>
 <defs>
  <clipPath id="pcba0ccd37c">
   <rect x="180" y="362.43174" width="1116" height="365.936519"/>
  </clipPath>
 </defs>
</svg>
