<?xml version="1.0" encoding="utf-8" standalone="no"?>
<!DOCTYPE svg PUBLIC "-//W3C//DTD SVG 1.1//EN"
  "http://www.w3.org/Graphics/SVG/1.1/DTD/svg11.dtd">
<svg xmlns:xlink="http://www.w3.org/1999/xlink" width="1440pt" height="1080pt" viewBox="0 0 1440 1080" xmlns="http://www.w3.org/2000/svg" version="1.1">
 <metadata>
  <rdf:RDF xmlns:dc="http://purl.org/dc/elements/1.1/" xmlns:cc="http://creativecommons.org/ns#" xmlns:rdf="http://www.w3.org/1999/02/22-rdf-syntax-ns#">
   <cc:Work>
    <dc:type rdf:resource="http://purl.org/dc/dcmitype/StillImage"/>
    <dc:date>2023-12-11T12:06:52.344691</dc:date>
    <dc:format>image/svg+xml</dc:format>
    <dc:creator>
     <cc:Agent>
      <dc:title>Matplotlib v3.7.1, https://matplotlib.org/</dc:title>
     </cc:Agent>
    </dc:creator>
   </cc:Work>
  </rdf:RDF>
 </metadata>
 <defs>
  <style type="text/css">*{stroke-linejoin: round; stroke-linecap: butt}</style>
 </defs>
 <g id="figure_1">
  <g id="patch_1">
   <path d="M 0 1080 
L 1440 1080 
L 1440 0 
L 0 0 
z
" style="fill: #ffffff"/>
  </g>
  <g id="axes_1">
   <g id="patch_2">
    <path d="M 458.552358 961.2 
L 1017.447642 961.2 
L 1017.447642 129.6 
L 458.552358 129.6 
z
" style="fill: #ffffff"/>
   </g>
   <g id="matplotlib.axis_1">
    <g id="xtick_1">
     <g id="line2d_1">
      <defs>
       <path id="ma0241d6f8d" d="M 0 0 
L 0 3.5 
" style="stroke: #000000; stroke-width: 0.8"/>
      </defs>
      <g>
       <use xlink:href="#ma0241d6f8d" x="458.865586" y="961.2" style="stroke: #000000; stroke-width: 0.8"/>
      </g>
     </g>
     <g id="text_1">
      <!-- 900 -->
      <g transform="translate(449.321836 975.798437) scale(0.1 -0.1)">
       <defs>
        <path id="DejaVuSans-39" d="M 703 97 
L 703 672 
Q 941 559 1184 500 
Q 1428 441 1663 441 
Q 2288 441 2617 861 
Q 2947 1281 2994 2138 
Q 2813 1869 2534 1725 
Q 2256 1581 1919 1581 
Q 1219 1581 811 2004 
Q 403 2428 403 3163 
Q 403 3881 828 4315 
Q 1253 4750 1959 4750 
Q 2769 4750 3195 4129 
Q 3622 3509 3622 2328 
Q 3622 1225 3098 567 
Q 2575 -91 1691 -91 
Q 1453 -91 1209 -44 
Q 966 3 703 97 
z
M 1959 2075 
Q 2384 2075 2632 2365 
Q 2881 2656 2881 3163 
Q 2881 3666 2632 3958 
Q 2384 4250 1959 4250 
Q 1534 4250 1286 3958 
Q 1038 3666 1038 3163 
Q 1038 2656 1286 2365 
Q 1534 2075 1959 2075 
z
" transform="scale(0.015625)"/>
        <path id="DejaVuSans-30" d="M 2034 4250 
Q 1547 4250 1301 3770 
Q 1056 3291 1056 2328 
Q 1056 1369 1301 889 
Q 1547 409 2034 409 
Q 2525 409 2770 889 
Q 3016 1369 3016 2328 
Q 3016 3291 2770 3770 
Q 2525 4250 2034 4250 
z
M 2034 4750 
Q 2819 4750 3233 4129 
Q 3647 3509 3647 2328 
Q 3647 1150 3233 529 
Q 2819 -91 2034 -91 
Q 1250 -91 836 529 
Q 422 1150 422 2328 
Q 422 3509 836 4129 
Q 1250 4750 2034 4750 
z
" transform="scale(0.015625)"/>
       </defs>
       <use xlink:href="#DejaVuSans-39"/>
       <use xlink:href="#DejaVuSans-30" x="63.623047"/>
       <use xlink:href="#DejaVuSans-30" x="127.246094"/>
      </g>
     </g>
    </g>
    <g id="xtick_2">
     <g id="line2d_2">
      <g>
       <use xlink:href="#ma0241d6f8d" x="530.296826" y="961.2" style="stroke: #000000; stroke-width: 0.8"/>
      </g>
     </g>
     <g id="text_2">
      <!-- 950 -->
      <g transform="translate(520.753076 975.798437) scale(0.1 -0.1)">
       <defs>
        <path id="DejaVuSans-35" d="M 691 4666 
L 3169 4666 
L 3169 4134 
L 1269 4134 
L 1269 2991 
Q 1406 3038 1543 3061 
Q 1681 3084 1819 3084 
Q 2600 3084 3056 2656 
Q 3513 2228 3513 1497 
Q 3513 744 3044 326 
Q 2575 -91 1722 -91 
Q 1428 -91 1123 -41 
Q 819 9 494 109 
L 494 744 
Q 775 591 1075 516 
Q 1375 441 1709 441 
Q 2250 441 2565 725 
Q 2881 1009 2881 1497 
Q 2881 1984 2565 2268 
Q 2250 2553 1709 2553 
Q 1456 2553 1204 2497 
Q 953 2441 691 2322 
L 691 4666 
z
" transform="scale(0.015625)"/>
       </defs>
       <use xlink:href="#DejaVuSans-39"/>
       <use xlink:href="#DejaVuSans-35" x="63.623047"/>
       <use xlink:href="#DejaVuSans-30" x="127.246094"/>
      </g>
     </g>
    </g>
    <g id="xtick_3">
     <g id="line2d_3">
      <g>
       <use xlink:href="#ma0241d6f8d" x="601.728066" y="961.2" style="stroke: #000000; stroke-width: 0.8"/>
      </g>
     </g>
     <g id="text_3">
      <!-- 1000 -->
      <g transform="translate(589.003066 975.798437) scale(0.1 -0.1)">
       <defs>
        <path id="DejaVuSans-31" d="M 794 531 
L 1825 531 
L 1825 4091 
L 703 3866 
L 703 4441 
L 1819 4666 
L 2450 4666 
L 2450 531 
L 3481 531 
L 3481 0 
L 794 0 
L 794 531 
z
" transform="scale(0.015625)"/>
       </defs>
       <use xlink:href="#DejaVuSans-31"/>
       <use xlink:href="#DejaVuSans-30" x="63.623047"/>
       <use xlink:href="#DejaVuSans-30" x="127.246094"/>
       <use xlink:href="#DejaVuSans-30" x="190.869141"/>
      </g>
     </g>
    </g>
    <g id="xtick_4">
     <g id="line2d_4">
      <g>
       <use xlink:href="#ma0241d6f8d" x="673.159305" y="961.2" style="stroke: #000000; stroke-width: 0.8"/>
      </g>
     </g>
     <g id="text_4">
      <!-- 1050 -->
      <g transform="translate(660.434305 975.798437) scale(0.1 -0.1)">
       <use xlink:href="#DejaVuSans-31"/>
       <use xlink:href="#DejaVuSans-30" x="63.623047"/>
       <use xlink:href="#DejaVuSans-35" x="127.246094"/>
       <use xlink:href="#DejaVuSans-30" x="190.869141"/>
      </g>
     </g>
    </g>
    <g id="xtick_5">
     <g id="line2d_5">
      <g>
       <use xlink:href="#ma0241d6f8d" x="744.590545" y="961.2" style="stroke: #000000; stroke-width: 0.8"/>
      </g>
     </g>
     <g id="text_5">
      <!-- 1100 -->
      <g transform="translate(731.865545 975.798437) scale(0.1 -0.1)">
       <use xlink:href="#DejaVuSans-31"/>
       <use xlink:href="#DejaVuSans-31" x="63.623047"/>
       <use xlink:href="#DejaVuSans-30" x="127.246094"/>
       <use xlink:href="#DejaVuSans-30" x="190.869141"/>
      </g>
     </g>
    </g>
    <g id="xtick_6">
     <g id="line2d_6">
      <g>
       <use xlink:href="#ma0241d6f8d" x="816.021785" y="961.2" style="stroke: #000000; stroke-width: 0.8"/>
      </g>
     </g>
     <g id="text_6">
      <!-- 1150 -->
      <g transform="translate(803.296785 975.798437) scale(0.1 -0.1)">
       <use xlink:href="#DejaVuSans-31"/>
       <use xlink:href="#DejaVuSans-31" x="63.623047"/>
       <use xlink:href="#DejaVuSans-35" x="127.246094"/>
       <use xlink:href="#DejaVuSans-30" x="190.869141"/>
      </g>
     </g>
    </g>
    <g id="xtick_7">
     <g id="line2d_7">
      <g>
       <use xlink:href="#ma0241d6f8d" x="887.453024" y="961.2" style="stroke: #000000; stroke-width: 0.8"/>
      </g>
     </g>
     <g id="text_7">
      <!-- 1200 -->
      <g transform="translate(874.728024 975.798437) scale(0.1 -0.1)">
       <defs>
        <path id="DejaVuSans-32" d="M 1228 531 
L 3431 531 
L 3431 0 
L 469 0 
L 469 531 
Q 828 903 1448 1529 
Q 2069 2156 2228 2338 
Q 2531 2678 2651 2914 
Q 2772 3150 2772 3378 
Q 2772 3750 2511 3984 
Q 2250 4219 1831 4219 
Q 1534 4219 1204 4116 
Q 875 4013 500 3803 
L 500 4441 
Q 881 4594 1212 4672 
Q 1544 4750 1819 4750 
Q 2544 4750 2975 4387 
Q 3406 4025 3406 3419 
Q 3406 3131 3298 2873 
Q 3191 2616 2906 2266 
Q 2828 2175 2409 1742 
Q 1991 1309 1228 531 
z
" transform="scale(0.015625)"/>
       </defs>
       <use xlink:href="#DejaVuSans-31"/>
       <use xlink:href="#DejaVuSans-32" x="63.623047"/>
       <use xlink:href="#DejaVuSans-30" x="127.246094"/>
       <use xlink:href="#DejaVuSans-30" x="190.869141"/>
      </g>
     </g>
    </g>
    <g id="xtick_8">
     <g id="line2d_8">
      <g>
       <use xlink:href="#ma0241d6f8d" x="958.884264" y="961.2" style="stroke: #000000; stroke-width: 0.8"/>
      </g>
     </g>
     <g id="text_8">
      <!-- 1250 -->
      <g transform="translate(946.159264 975.798437) scale(0.1 -0.1)">
       <use xlink:href="#DejaVuSans-31"/>
       <use xlink:href="#DejaVuSans-32" x="63.623047"/>
       <use xlink:href="#DejaVuSans-35" x="127.246094"/>
       <use xlink:href="#DejaVuSans-30" x="190.869141"/>
      </g>
     </g>
    </g>
   </g>
   <g id="matplotlib.axis_2">
    <g id="ytick_1">
     <g id="line2d_9">
      <defs>
       <path id="m7dea49434a" d="M 0 0 
L -3.5 0 
" style="stroke: #000000; stroke-width: 0.8"/>
      </defs>
      <g>
       <use xlink:href="#m7dea49434a" x="458.552358" y="936.563152" style="stroke: #000000; stroke-width: 0.8"/>
      </g>
     </g>
     <g id="text_9">
      <!-- 200 -->
      <g transform="translate(432.464858 940.362371) scale(0.1 -0.1)">
       <use xlink:href="#DejaVuSans-32"/>
       <use xlink:href="#DejaVuSans-30" x="63.623047"/>
       <use xlink:href="#DejaVuSans-30" x="127.246094"/>
      </g>
     </g>
    </g>
    <g id="ytick_2">
     <g id="line2d_10">
      <g>
       <use xlink:href="#m7dea49434a" x="458.552358" y="793.700672" style="stroke: #000000; stroke-width: 0.8"/>
      </g>
     </g>
     <g id="text_10">
      <!-- 300 -->
      <g transform="translate(432.464858 797.499891) scale(0.1 -0.1)">
       <defs>
        <path id="DejaVuSans-33" d="M 2597 2516 
Q 3050 2419 3304 2112 
Q 3559 1806 3559 1356 
Q 3559 666 3084 287 
Q 2609 -91 1734 -91 
Q 1441 -91 1130 -33 
Q 819 25 488 141 
L 488 750 
Q 750 597 1062 519 
Q 1375 441 1716 441 
Q 2309 441 2620 675 
Q 2931 909 2931 1356 
Q 2931 1769 2642 2001 
Q 2353 2234 1838 2234 
L 1294 2234 
L 1294 2753 
L 1863 2753 
Q 2328 2753 2575 2939 
Q 2822 3125 2822 3475 
Q 2822 3834 2567 4026 
Q 2313 4219 1838 4219 
Q 1578 4219 1281 4162 
Q 984 4106 628 3988 
L 628 4550 
Q 988 4650 1302 4700 
Q 1616 4750 1894 4750 
Q 2613 4750 3031 4423 
Q 3450 4097 3450 3541 
Q 3450 3153 3228 2886 
Q 3006 2619 2597 2516 
z
" transform="scale(0.015625)"/>
       </defs>
       <use xlink:href="#DejaVuSans-33"/>
       <use xlink:href="#DejaVuSans-30" x="63.623047"/>
       <use xlink:href="#DejaVuSans-30" x="127.246094"/>
      </g>
     </g>
    </g>
    <g id="ytick_3">
     <g id="line2d_11">
      <g>
       <use xlink:href="#m7dea49434a" x="458.552358" y="650.838193" style="stroke: #000000; stroke-width: 0.8"/>
      </g>
     </g>
     <g id="text_11">
      <!-- 400 -->
      <g transform="translate(432.464858 654.637412) scale(0.1 -0.1)">
       <defs>
        <path id="DejaVuSans-34" d="M 2419 4116 
L 825 1625 
L 2419 1625 
L 2419 4116 
z
M 2253 4666 
L 3047 4666 
L 3047 1625 
L 3713 1625 
L 3713 1100 
L 3047 1100 
L 3047 0 
L 2419 0 
L 2419 1100 
L 313 1100 
L 313 1709 
L 2253 4666 
z
" transform="scale(0.015625)"/>
       </defs>
       <use xlink:href="#DejaVuSans-34"/>
       <use xlink:href="#DejaVuSans-30" x="63.623047"/>
       <use xlink:href="#DejaVuSans-30" x="127.246094"/>
      </g>
     </g>
    </g>
    <g id="ytick_4">
     <g id="line2d_12">
      <g>
       <use xlink:href="#m7dea49434a" x="458.552358" y="507.975714" style="stroke: #000000; stroke-width: 0.8"/>
      </g>
     </g>
     <g id="text_12">
      <!-- 500 -->
      <g transform="translate(432.464858 511.774932) scale(0.1 -0.1)">
       <use xlink:href="#DejaVuSans-35"/>
       <use xlink:href="#DejaVuSans-30" x="63.623047"/>
       <use xlink:href="#DejaVuSans-30" x="127.246094"/>
      </g>
     </g>
    </g>
    <g id="ytick_5">
     <g id="line2d_13">
      <g>
       <use xlink:href="#m7dea49434a" x="458.552358" y="365.113234" style="stroke: #000000; stroke-width: 0.8"/>
      </g>
     </g>
     <g id="text_13">
      <!-- 600 -->
      <g transform="translate(432.464858 368.912453) scale(0.1 -0.1)">
       <defs>
        <path id="DejaVuSans-36" d="M 2113 2584 
Q 1688 2584 1439 2293 
Q 1191 2003 1191 1497 
Q 1191 994 1439 701 
Q 1688 409 2113 409 
Q 2538 409 2786 701 
Q 3034 994 3034 1497 
Q 3034 2003 2786 2293 
Q 2538 2584 2113 2584 
z
M 3366 4563 
L 3366 3988 
Q 3128 4100 2886 4159 
Q 2644 4219 2406 4219 
Q 1781 4219 1451 3797 
Q 1122 3375 1075 2522 
Q 1259 2794 1537 2939 
Q 1816 3084 2150 3084 
Q 2853 3084 3261 2657 
Q 3669 2231 3669 1497 
Q 3669 778 3244 343 
Q 2819 -91 2113 -91 
Q 1303 -91 875 529 
Q 447 1150 447 2328 
Q 447 3434 972 4092 
Q 1497 4750 2381 4750 
Q 2619 4750 2861 4703 
Q 3103 4656 3366 4563 
z
" transform="scale(0.015625)"/>
       </defs>
       <use xlink:href="#DejaVuSans-36"/>
       <use xlink:href="#DejaVuSans-30" x="63.623047"/>
       <use xlink:href="#DejaVuSans-30" x="127.246094"/>
      </g>
     </g>
    </g>
    <g id="ytick_6">
     <g id="line2d_14">
      <g>
       <use xlink:href="#m7dea49434a" x="458.552358" y="222.250755" style="stroke: #000000; stroke-width: 0.8"/>
      </g>
     </g>
     <g id="text_14">
      <!-- 700 -->
      <g transform="translate(432.464858 226.049974) scale(0.1 -0.1)">
       <defs>
        <path id="DejaVuSans-37" d="M 525 4666 
L 3525 4666 
L 3525 4397 
L 1831 0 
L 1172 0 
L 2766 4134 
L 525 4134 
L 525 4666 
z
" transform="scale(0.015625)"/>
       </defs>
       <use xlink:href="#DejaVuSans-37"/>
       <use xlink:href="#DejaVuSans-30" x="63.623047"/>
       <use xlink:href="#DejaVuSans-30" x="127.246094"/>
      </g>
     </g>
    </g>
   </g>
   <g id="LineCollection_1">
    <path d="M 483.956689 876.918172 
L 527.004244 887.182306 
L 568.712766 897.211156 
L 588.872311 901.917061 
L 608.476345 906.313246 
L 627.476729 910.332498 
L 645.838495 913.914226 
L 663.539933 917.003185 
L 680.572821 919.547786 
L 696.942721 921.497811 
L 712.669059 922.801256 
L 727.784487 923.4 
L 742.332506 923.224072 
L 756.361559 922.184723 
L 766.627495 920.763337 
L 769.912889 920.167772 
L 779.236297 918.072335 
L 782.999197 917.031339 
L 791.390345 914.262539 
L 795.573617 912.616182 
L 803.046606 909.178394 
L 807.497195 906.779275 
L 814.069613 902.680252 
L 818.527538 899.453875 
L 824.220121 894.704438 
L 828.357844 890.714384 
L 833.194155 885.328136 
L 836.709684 880.797617 
L 840.715804 874.790657 
L 843.430873 870.046435 
L 846.635106 863.437096 
L 848.532901 858.804394 
L 850.965493 851.612979 
L 852.153523 847.330298 
L 853.846393 839.578844 
L 854.487144 835.771773 
L 855.473626 827.48381 
L 855.728463 824.185181 
L 856.044603 812.570748 
L 855.568902 800.902578 
L 854.405161 789.147784 
L 852.634793 777.276452 
L 850.323444 765.265753 
L 847.52608 753.100919 
L 844.290552 740.774743 
L 840.659962 728.28652 
L 836.6742 715.640868 
L 832.370892 702.84663 
L 827.785992 689.915924 
L 822.95412 676.863335 
L 817.908757 663.705273 
L 812.682341 650.459433 
L 801.811103 623.779166 
L 790.579911 596.975611 
L 756.843647 517.266601 
L 746.221848 491.417226 
L 736.189582 466.150611 
L 731.439616 453.773294 
L 726.889522 441.586071 
L 722.555222 429.603367 
L 718.451993 417.839667 
L 714.594542 406.309676 
L 710.997055 395.028536 
L 707.673252 384.01205 
L 704.636406 373.276966 
L 701.899341 362.841283 
L 699.474365 352.724614 
L 697.373147 342.948584 
L 695.606471 333.537269 
L 694.183848 324.517654 
L 693.112928 315.920074 
L 692.398621 307.778568 
L 692.041878 300.130997 
L 692.038053 293.018709 
L 692.374851 286.485355 
L 693.030041 280.574295 
L 693.96947 275.323823 
L 695.146574 270.759478 
L 696.505454 266.883223 
L 697.990387 263.660882 
L 699.564093 261.012241 
L 701.233654 258.811335 
L 703.076242 256.904463 
L 705.250823 255.1462 
L 707.984484 253.441139 
L 711.535702 251.77179 
L 716.151562 250.200333 
L 722.037846 248.848079 
L 729.349858 247.866956 
L 738.199549 247.415735 
L 748.669879 247.646061 
L 760.829246 248.697236 
L 774.742685 250.696495 
L 790.479299 253.761805 
L 808.116667 258.00534 
L 827.74318 263.536733 
L 849.459145 270.465784 
L 873.3772 278.904594 
L 899.622391 288.969205 
L 928.33213 300.780862 
L 960.012212 314.622568 
L 960.012212 314.622568 
" clip-path="url(#pd079d1123c)" style="fill: none; stroke: #1f77b4; stroke-width: 1.5"/>
    <path d="M 493.152581 837.988041 
L 514.94514 843.135777 
L 536.382892 848.295793 
L 557.366836 853.366823 
L 577.808796 858.257571 
L 597.630846 862.886207 
L 616.764758 867.179862 
L 635.151456 871.074147 
L 652.740493 874.512678 
L 669.489545 877.446622 
L 685.363909 879.834249 
L 700.336029 881.640503 
L 714.38503 882.836584 
L 727.496268 883.399544 
L 739.66089 883.311893 
L 750.875423 882.561222 
L 761.141359 881.139835 
L 770.464767 879.044399 
L 778.855915 876.275599 
L 786.328904 872.837811 
L 792.901321 868.738788 
L 798.593904 863.989351 
L 803.430214 858.603103 
L 807.436334 852.596144 
L 810.640567 845.986805 
L 813.073159 838.795391 
L 814.766028 831.043937 
L 815.752509 822.755973 
L 816.067112 813.956307 
L 815.745291 804.670804 
L 814.823228 794.9262 
L 813.337629 784.749901 
L 811.325531 774.169816 
L 808.824123 763.214181 
L 805.870581 751.911412 
L 802.501907 740.289951 
L 798.754792 728.378138 
L 794.665482 716.204085 
L 790.269658 703.795557 
L 785.60233 691.179875 
L 780.697739 678.383816 
L 775.589271 665.433535 
L 770.309388 652.354483 
L 764.889561 639.171349 
L 759.360218 625.908001 
L 753.750707 612.587444 
L 748.089265 599.231779 
L 742.402997 585.862181 
L 736.717867 572.498877 
L 731.058704 559.16114 
L 725.44921 545.867287 
L 719.911984 532.634688 
L 714.468553 519.479788 
L 709.139416 506.418124 
L 703.944094 493.464369 
L 698.901193 480.632369 
L 694.028477 467.935194 
L 689.342944 455.385202 
L 684.86092 442.994099 
L 680.598156 430.773022 
L 676.56994 418.732614 
L 672.791209 406.88312 
L 669.276678 395.234482 
L 666.040975 383.796447 
L 663.098784 372.578676 
L 660.464995 361.590866 
L 658.154869 350.842879 
L 656.1842 340.344871 
L 654.569497 330.107436 
L 653.328165 320.141756 
L 652.478699 310.459748 
L 652.040885 301.074232 
L 652.036005 291.999092 
L 652.487053 283.249455 
L 653.418961 274.841866 
L 654.858824 266.794476 
L 656.836138 259.127232 
L 659.383047 251.862076 
L 662.534592 245.023147 
L 666.328966 238.636991 
L 670.807783 232.732771 
L 676.016345 227.342493 
L 682.00392 222.501225 
L 688.824028 218.247331 
L 696.534727 214.622704 
L 705.19891 211.673006 
L 714.884606 209.447913 
L 725.665289 208.001365 
L 737.62019 207.391819 
L 750.834615 207.682509 
L 765.400268 208.941707 
L 781.415583 211.24299 
L 798.986057 214.665514 
L 818.224587 219.294288 
L 839.25182 225.22045 
L 862.196496 232.541553 
L 887.195807 241.361854 
L 914.395752 251.792598 
L 943.9515 263.952316 
L 976.027762 277.967122 
" clip-path="url(#pd079d1123c)" style="fill: none; stroke: #8c564b; stroke-width: 1.5"/>
    <path d="M 502.348474 799.05791 
L 545.743811 809.405014 
L 587.010725 819.328714 
L 606.558296 823.893257 
L 625.288541 828.096329 
L 643.133515 831.875877 
L 660.029559 835.178933 
L 675.916285 837.961823 
L 690.735405 840.190733 
L 704.42949 841.842803 
L 716.940798 842.907971 
L 728.210592 843.391865 
L 738.179656 843.320033 
L 746.79144 842.743583 
L 754.000088 841.745498 
L 759.786356 840.445034 
L 764.183519 838.994117 
L 767.309945 837.555872 
L 769.392841 836.256831 
L 770.755112 835.12026 
L 771.745719 834.017011 
L 772.636875 832.680772 
L 773.551895 830.793369 
L 774.467668 828.086092 
L 775.273323 824.397087 
L 775.835709 819.672178 
L 776.040842 813.934455 
L 775.809169 807.249994 
L 775.095011 799.70258 
L 773.879868 791.378894 
L 772.164922 782.361306 
L 769.96478 772.725147 
L 767.302827 762.538248 
L 764.207989 751.861483 
L 760.712521 740.74964 
L 756.85053 729.252325 
L 752.656974 717.414757 
L 748.166993 705.278441 
L 743.415455 692.8817 
L 733.264018 667.446742 
L 722.466355 641.366577 
L 705.593301 601.519954 
L 688.548205 561.308639 
L 677.431127 534.590997 
L 666.714379 508.095427 
L 656.682613 482.267186 
L 651.726622 468.991518 
L 647.091114 456.168366 
L 642.663368 443.464412 
L 638.459334 430.885853 
L 634.494816 418.437592 
L 630.785697 406.123186 
L 627.348197 393.944769 
L 624.199201 381.902943 
L 621.356654 369.996646 
L 618.840069 358.222989 
L 616.671175 346.577078 
L 614.874757 335.051841 
L 613.479747 323.637917 
L 612.520656 312.323705 
L 612.039397 301.095743 
L 612.087556 289.939728 
L 612.729043 278.842627 
L 614.042784 267.796566 
L 615.482647 259.749176 
L 616.124659 256.805278 
L 618.101974 249.138034 
L 619.087048 245.893722 
L 621.633958 238.628566 
L 623.05345 235.120514 
L 626.204995 228.281585 
L 628.14525 224.590509 
L 631.939625 218.204352 
L 634.459484 214.461472 
L 638.938301 208.557253 
L 642.041733 204.936478 
L 647.250294 199.5462 
L 650.865737 196.236763 
L 656.853312 191.395495 
L 660.83422 188.56064 
L 667.654328 184.306746 
L 671.806645 182.046113 
L 679.517344 178.421486 
L 683.642953 176.755545 
L 692.307135 173.805847 
L 696.242672 172.687042 
L 705.928369 170.461949 
L 709.564895 169.801725 
L 720.345579 168.355177 
L 723.628375 168.051765 
L 738.499927 167.4 
L 754.279885 167.829659 
L 771.089752 169.346892 
L 789.063667 171.97944 
L 808.343354 175.773863 
L 829.075603 180.792665 
L 851.411371 187.111857 
L 875.505793 194.819117 
L 901.518689 204.012496 
L 929.615294 214.799557 
L 959.96705 227.29687 
L 992.043311 241.311676 
L 992.043311 241.311676 
" clip-path="url(#pd079d1123c)" style="fill: none; stroke: #17becf; stroke-width: 1.5"/>
   </g>
   <g id="patch_3">
    <path d="M 458.552358 961.2 
L 458.552358 129.6 
" style="fill: none; stroke: #000000; stroke-width: 0.8; stroke-linejoin: miter; stroke-linecap: square"/>
   </g>
   <g id="patch_4">
    <path d="M 1017.447642 961.2 
L 1017.447642 129.6 
" style="fill: none; stroke: #000000; stroke-width: 0.8; stroke-linejoin: miter; stroke-linecap: square"/>
   </g>
   <g id="patch_5">
    <path d="M 458.552358 961.2 
L 1017.447642 961.2 
" style="fill: none; stroke: #000000; stroke-width: 0.8; stroke-linejoin: miter; stroke-linecap: square"/>
   </g>
   <g id="patch_6">
    <path d="M 458.552358 129.6 
L 1017.447642 129.6 
" style="fill: none; stroke: #000000; stroke-width: 0.8; stroke-linejoin: miter; stroke-linecap: square"/>
   </g>
  </g>
 </g>
 <defs>
  <clipPath id="pd079d1123c">
   <rect x="458.552358" y="129.6" width="558.895284" height="831.6"/>
  </clipPath>
 </defs>
</svg>
