<?xml version="1.0" encoding="utf-8" standalone="no"?>
<!DOCTYPE svg PUBLIC "-//W3C//DTD SVG 1.1//EN"
  "http://www.w3.org/Graphics/SVG/1.1/DTD/svg11.dtd">
<svg xmlns:xlink="http://www.w3.org/1999/xlink" width="1440pt" height="1080pt" viewBox="0 0 1440 1080" xmlns="http://www.w3.org/2000/svg" version="1.1">
 <metadata>
  <rdf:RDF xmlns:dc="http://purl.org/dc/elements/1.1/" xmlns:cc="http://creativecommons.org/ns#" xmlns:rdf="http://www.w3.org/1999/02/22-rdf-syntax-ns#">
   <cc:Work>
    <dc:type rdf:resource="http://purl.org/dc/dcmitype/StillImage"/>
    <dc:date>2023-12-11T12:06:58.992633</dc:date>
    <dc:format>image/svg+xml</dc:format>
    <dc:creator>
     <cc:Agent>
      <dc:title>Matplotlib v3.7.1, https://matplotlib.org/</dc:title>
     </cc:Agent>
    </dc:creator>
   </cc:Work>
  </rdf:RDF>
 </metadata>
 <defs>
  <style type="text/css">*{stroke-linejoin: round; stroke-linecap: butt}</style>
 </defs>
 <g id="figure_1">
  <g id="patch_1">
   <path d="M 0 1080 
L 1440 1080 
L 1440 0 
L 0 0 
z
" style="fill: #ffffff"/>
  </g>
  <g id="axes_1">
   <g id="patch_2">
    <path d="M 180 861.214657 
L 1296 861.214657 
L 1296 229.585343 
L 180 229.585343 
z
" style="fill: #ffffff"/>
   </g>
   <g id="matplotlib.axis_1">
    <g id="xtick_1">
     <g id="line2d_1">
      <defs>
       <path id="mf81ed07523" d="M 0 0 
L 0 3.5 
" style="stroke: #000000; stroke-width: 0.8"/>
      </defs>
      <g>
       <use xlink:href="#mf81ed07523" x="300.244003" y="861.214657" style="stroke: #000000; stroke-width: 0.8"/>
      </g>
     </g>
     <g id="text_1">
      <!-- 200 -->
      <g transform="translate(290.700253 875.813094) scale(0.1 -0.1)">
       <defs>
        <path id="DejaVuSans-32" d="M 1228 531 
L 3431 531 
L 3431 0 
L 469 0 
L 469 531 
Q 828 903 1448 1529 
Q 2069 2156 2228 2338 
Q 2531 2678 2651 2914 
Q 2772 3150 2772 3378 
Q 2772 3750 2511 3984 
Q 2250 4219 1831 4219 
Q 1534 4219 1204 4116 
Q 875 4013 500 3803 
L 500 4441 
Q 881 4594 1212 4672 
Q 1544 4750 1819 4750 
Q 2544 4750 2975 4387 
Q 3406 4025 3406 3419 
Q 3406 3131 3298 2873 
Q 3191 2616 2906 2266 
Q 2828 2175 2409 1742 
Q 1991 1309 1228 531 
z
" transform="scale(0.015625)"/>
        <path id="DejaVuSans-30" d="M 2034 4250 
Q 1547 4250 1301 3770 
Q 1056 3291 1056 2328 
Q 1056 1369 1301 889 
Q 1547 409 2034 409 
Q 2525 409 2770 889 
Q 3016 1369 3016 2328 
Q 3016 3291 2770 3770 
Q 2525 4250 2034 4250 
z
M 2034 4750 
Q 2819 4750 3233 4129 
Q 3647 3509 3647 2328 
Q 3647 1150 3233 529 
Q 2819 -91 2034 -91 
Q 1250 -91 836 529 
Q 422 1150 422 2328 
Q 422 3509 836 4129 
Q 1250 4750 2034 4750 
z
" transform="scale(0.015625)"/>
       </defs>
       <use xlink:href="#DejaVuSans-32"/>
       <use xlink:href="#DejaVuSans-30" x="63.623047"/>
       <use xlink:href="#DejaVuSans-30" x="127.246094"/>
      </g>
     </g>
    </g>
    <g id="xtick_2">
     <g id="line2d_2">
      <g>
       <use xlink:href="#mf81ed07523" x="478.094689" y="861.214657" style="stroke: #000000; stroke-width: 0.8"/>
      </g>
     </g>
     <g id="text_2">
      <!-- 300 -->
      <g transform="translate(468.550939 875.813094) scale(0.1 -0.1)">
       <defs>
        <path id="DejaVuSans-33" d="M 2597 2516 
Q 3050 2419 3304 2112 
Q 3559 1806 3559 1356 
Q 3559 666 3084 287 
Q 2609 -91 1734 -91 
Q 1441 -91 1130 -33 
Q 819 25 488 141 
L 488 750 
Q 750 597 1062 519 
Q 1375 441 1716 441 
Q 2309 441 2620 675 
Q 2931 909 2931 1356 
Q 2931 1769 2642 2001 
Q 2353 2234 1838 2234 
L 1294 2234 
L 1294 2753 
L 1863 2753 
Q 2328 2753 2575 2939 
Q 2822 3125 2822 3475 
Q 2822 3834 2567 4026 
Q 2313 4219 1838 4219 
Q 1578 4219 1281 4162 
Q 984 4106 628 3988 
L 628 4550 
Q 988 4650 1302 4700 
Q 1616 4750 1894 4750 
Q 2613 4750 3031 4423 
Q 3450 4097 3450 3541 
Q 3450 3153 3228 2886 
Q 3006 2619 2597 2516 
z
" transform="scale(0.015625)"/>
       </defs>
       <use xlink:href="#DejaVuSans-33"/>
       <use xlink:href="#DejaVuSans-30" x="63.623047"/>
       <use xlink:href="#DejaVuSans-30" x="127.246094"/>
      </g>
     </g>
    </g>
    <g id="xtick_3">
     <g id="line2d_3">
      <g>
       <use xlink:href="#mf81ed07523" x="655.945375" y="861.214657" style="stroke: #000000; stroke-width: 0.8"/>
      </g>
     </g>
     <g id="text_3">
      <!-- 400 -->
      <g transform="translate(646.401625 875.813094) scale(0.1 -0.1)">
       <defs>
        <path id="DejaVuSans-34" d="M 2419 4116 
L 825 1625 
L 2419 1625 
L 2419 4116 
z
M 2253 4666 
L 3047 4666 
L 3047 1625 
L 3713 1625 
L 3713 1100 
L 3047 1100 
L 3047 0 
L 2419 0 
L 2419 1100 
L 313 1100 
L 313 1709 
L 2253 4666 
z
" transform="scale(0.015625)"/>
       </defs>
       <use xlink:href="#DejaVuSans-34"/>
       <use xlink:href="#DejaVuSans-30" x="63.623047"/>
       <use xlink:href="#DejaVuSans-30" x="127.246094"/>
      </g>
     </g>
    </g>
    <g id="xtick_4">
     <g id="line2d_4">
      <g>
       <use xlink:href="#mf81ed07523" x="833.796061" y="861.214657" style="stroke: #000000; stroke-width: 0.8"/>
      </g>
     </g>
     <g id="text_4">
      <!-- 500 -->
      <g transform="translate(824.252311 875.813094) scale(0.1 -0.1)">
       <defs>
        <path id="DejaVuSans-35" d="M 691 4666 
L 3169 4666 
L 3169 4134 
L 1269 4134 
L 1269 2991 
Q 1406 3038 1543 3061 
Q 1681 3084 1819 3084 
Q 2600 3084 3056 2656 
Q 3513 2228 3513 1497 
Q 3513 744 3044 326 
Q 2575 -91 1722 -91 
Q 1428 -91 1123 -41 
Q 819 9 494 109 
L 494 744 
Q 775 591 1075 516 
Q 1375 441 1709 441 
Q 2250 441 2565 725 
Q 2881 1009 2881 1497 
Q 2881 1984 2565 2268 
Q 2250 2553 1709 2553 
Q 1456 2553 1204 2497 
Q 953 2441 691 2322 
L 691 4666 
z
" transform="scale(0.015625)"/>
       </defs>
       <use xlink:href="#DejaVuSans-35"/>
       <use xlink:href="#DejaVuSans-30" x="63.623047"/>
       <use xlink:href="#DejaVuSans-30" x="127.246094"/>
      </g>
     </g>
    </g>
    <g id="xtick_5">
     <g id="line2d_5">
      <g>
       <use xlink:href="#mf81ed07523" x="1011.646747" y="861.214657" style="stroke: #000000; stroke-width: 0.8"/>
      </g>
     </g>
     <g id="text_5">
      <!-- 600 -->
      <g transform="translate(1002.102997 875.813094) scale(0.1 -0.1)">
       <defs>
        <path id="DejaVuSans-36" d="M 2113 2584 
Q 1688 2584 1439 2293 
Q 1191 2003 1191 1497 
Q 1191 994 1439 701 
Q 1688 409 2113 409 
Q 2538 409 2786 701 
Q 3034 994 3034 1497 
Q 3034 2003 2786 2293 
Q 2538 2584 2113 2584 
z
M 3366 4563 
L 3366 3988 
Q 3128 4100 2886 4159 
Q 2644 4219 2406 4219 
Q 1781 4219 1451 3797 
Q 1122 3375 1075 2522 
Q 1259 2794 1537 2939 
Q 1816 3084 2150 3084 
Q 2853 3084 3261 2657 
Q 3669 2231 3669 1497 
Q 3669 778 3244 343 
Q 2819 -91 2113 -91 
Q 1303 -91 875 529 
Q 447 1150 447 2328 
Q 447 3434 972 4092 
Q 1497 4750 2381 4750 
Q 2619 4750 2861 4703 
Q 3103 4656 3366 4563 
z
" transform="scale(0.015625)"/>
       </defs>
       <use xlink:href="#DejaVuSans-36"/>
       <use xlink:href="#DejaVuSans-30" x="63.623047"/>
       <use xlink:href="#DejaVuSans-30" x="127.246094"/>
      </g>
     </g>
    </g>
    <g id="xtick_6">
     <g id="line2d_6">
      <g>
       <use xlink:href="#mf81ed07523" x="1189.497433" y="861.214657" style="stroke: #000000; stroke-width: 0.8"/>
      </g>
     </g>
     <g id="text_6">
      <!-- 700 -->
      <g transform="translate(1179.953683 875.813094) scale(0.1 -0.1)">
       <defs>
        <path id="DejaVuSans-37" d="M 525 4666 
L 3525 4666 
L 3525 4397 
L 1831 0 
L 1172 0 
L 2766 4134 
L 525 4134 
L 525 4666 
z
" transform="scale(0.015625)"/>
       </defs>
       <use xlink:href="#DejaVuSans-37"/>
       <use xlink:href="#DejaVuSans-30" x="63.623047"/>
       <use xlink:href="#DejaVuSans-30" x="127.246094"/>
      </g>
     </g>
    </g>
   </g>
   <g id="matplotlib.axis_2">
    <g id="ytick_1">
     <g id="line2d_7">
      <defs>
       <path id="m233d5fc01f" d="M 0 0 
L -3.5 0 
" style="stroke: #000000; stroke-width: 0.8"/>
      </defs>
      <g>
       <use xlink:href="#m233d5fc01f" x="180" y="797.327798" style="stroke: #000000; stroke-width: 0.8"/>
      </g>
     </g>
     <g id="text_7">
      <!-- 900 -->
      <g transform="translate(153.9125 801.127017) scale(0.1 -0.1)">
       <defs>
        <path id="DejaVuSans-39" d="M 703 97 
L 703 672 
Q 941 559 1184 500 
Q 1428 441 1663 441 
Q 2288 441 2617 861 
Q 2947 1281 2994 2138 
Q 2813 1869 2534 1725 
Q 2256 1581 1919 1581 
Q 1219 1581 811 2004 
Q 403 2428 403 3163 
Q 403 3881 828 4315 
Q 1253 4750 1959 4750 
Q 2769 4750 3195 4129 
Q 3622 3509 3622 2328 
Q 3622 1225 3098 567 
Q 2575 -91 1691 -91 
Q 1453 -91 1209 -44 
Q 966 3 703 97 
z
M 1959 2075 
Q 2384 2075 2632 2365 
Q 2881 2656 2881 3163 
Q 2881 3666 2632 3958 
Q 2384 4250 1959 4250 
Q 1534 4250 1286 3958 
Q 1038 3666 1038 3163 
Q 1038 2656 1286 2365 
Q 1534 2075 1959 2075 
z
" transform="scale(0.015625)"/>
       </defs>
       <use xlink:href="#DejaVuSans-39"/>
       <use xlink:href="#DejaVuSans-30" x="63.623047"/>
       <use xlink:href="#DejaVuSans-30" x="127.246094"/>
      </g>
     </g>
    </g>
    <g id="ytick_2">
     <g id="line2d_8">
      <g>
       <use xlink:href="#m233d5fc01f" x="180" y="708.402455" style="stroke: #000000; stroke-width: 0.8"/>
      </g>
     </g>
     <g id="text_8">
      <!-- 950 -->
      <g transform="translate(153.9125 712.201674) scale(0.1 -0.1)">
       <use xlink:href="#DejaVuSans-39"/>
       <use xlink:href="#DejaVuSans-35" x="63.623047"/>
       <use xlink:href="#DejaVuSans-30" x="127.246094"/>
      </g>
     </g>
    </g>
    <g id="ytick_3">
     <g id="line2d_9">
      <g>
       <use xlink:href="#m233d5fc01f" x="180" y="619.477112" style="stroke: #000000; stroke-width: 0.8"/>
      </g>
     </g>
     <g id="text_9">
      <!-- 1000 -->
      <g transform="translate(147.55 623.276331) scale(0.1 -0.1)">
       <defs>
        <path id="DejaVuSans-31" d="M 794 531 
L 1825 531 
L 1825 4091 
L 703 3866 
L 703 4441 
L 1819 4666 
L 2450 4666 
L 2450 531 
L 3481 531 
L 3481 0 
L 794 0 
L 794 531 
z
" transform="scale(0.015625)"/>
       </defs>
       <use xlink:href="#DejaVuSans-31"/>
       <use xlink:href="#DejaVuSans-30" x="63.623047"/>
       <use xlink:href="#DejaVuSans-30" x="127.246094"/>
       <use xlink:href="#DejaVuSans-30" x="190.869141"/>
      </g>
     </g>
    </g>
    <g id="ytick_4">
     <g id="line2d_10">
      <g>
       <use xlink:href="#m233d5fc01f" x="180" y="530.551769" style="stroke: #000000; stroke-width: 0.8"/>
      </g>
     </g>
     <g id="text_10">
      <!-- 1050 -->
      <g transform="translate(147.55 534.350988) scale(0.1 -0.1)">
       <use xlink:href="#DejaVuSans-31"/>
       <use xlink:href="#DejaVuSans-30" x="63.623047"/>
       <use xlink:href="#DejaVuSans-35" x="127.246094"/>
       <use xlink:href="#DejaVuSans-30" x="190.869141"/>
      </g>
     </g>
    </g>
    <g id="ytick_5">
     <g id="line2d_11">
      <g>
       <use xlink:href="#m233d5fc01f" x="180" y="441.626426" style="stroke: #000000; stroke-width: 0.8"/>
      </g>
     </g>
     <g id="text_11">
      <!-- 1100 -->
      <g transform="translate(147.55 445.425645) scale(0.1 -0.1)">
       <use xlink:href="#DejaVuSans-31"/>
       <use xlink:href="#DejaVuSans-31" x="63.623047"/>
       <use xlink:href="#DejaVuSans-30" x="127.246094"/>
       <use xlink:href="#DejaVuSans-30" x="190.869141"/>
      </g>
     </g>
    </g>
    <g id="ytick_6">
     <g id="line2d_12">
      <g>
       <use xlink:href="#m233d5fc01f" x="180" y="352.701083" style="stroke: #000000; stroke-width: 0.8"/>
      </g>
     </g>
     <g id="text_12">
      <!-- 1150 -->
      <g transform="translate(147.55 356.500302) scale(0.1 -0.1)">
       <use xlink:href="#DejaVuSans-31"/>
       <use xlink:href="#DejaVuSans-31" x="63.623047"/>
       <use xlink:href="#DejaVuSans-35" x="127.246094"/>
       <use xlink:href="#DejaVuSans-30" x="190.869141"/>
      </g>
     </g>
    </g>
    <g id="ytick_7">
     <g id="line2d_13">
      <g>
       <use xlink:href="#m233d5fc01f" x="180" y="263.77574" style="stroke: #000000; stroke-width: 0.8"/>
      </g>
     </g>
     <g id="text_13">
      <!-- 1200 -->
      <g transform="translate(147.55 267.574959) scale(0.1 -0.1)">
       <use xlink:href="#DejaVuSans-31"/>
       <use xlink:href="#DejaVuSans-32" x="63.623047"/>
       <use xlink:href="#DejaVuSans-30" x="127.246094"/>
       <use xlink:href="#DejaVuSans-30" x="190.869141"/>
      </g>
     </g>
    </g>
   </g>
   <g id="LineCollection_1">
    <path d="M 1179.963318 550.378226 
L 1153.847261 584.994425 
L 1129.693395 615.438122 
L 1107.182258 642.236585 
L 1086.265636 665.565512 
L 1066.90617 685.59772 
L 1049.079816 702.50493 
L 1032.778306 716.461266 
L 1018.010714 727.649414 
L 1004.802111 736.270407 
L 993.185566 742.557275 
L 983.181961 746.789936 
L 974.762977 749.30265 
L 967.801399 750.467932 
L 962.03231 750.642162 
L 957.06471 750.082633 
L 952.463498 748.884202 
L 947.863842 746.987332 
L 943.04618 744.254137 
L 937.937337 740.555789 
L 932.562644 735.823068 
L 926.991569 730.05446 
L 921.300214 723.300963 
L 915.552885 715.645881 
L 909.796391 707.18833 
L 904.060653 698.032288 
L 898.361641 688.280202 
L 892.704662 678.029636 
L 887.087241 667.371746 
L 881.501403 656.390767 
L 870.374831 633.762277 
L 853.505114 599.010539 
L 847.770119 587.446435 
L 841.951906 575.977643 
L 836.03107 564.643571 
L 829.988024 553.48005 
L 823.802956 542.519768 
L 817.455788 531.792736 
L 810.926153 521.326796 
L 804.193403 511.148175 
L 797.236714 501.282104 
L 790.035297 491.753478 
L 782.56877 482.587548 
L 774.817747 473.810597 
L 766.764653 465.450528 
L 758.394791 457.537271 
L 749.697609 450.102869 
L 740.668062 443.181124 
L 731.307888 436.8067 
L 721.62654 431.01365 
L 711.641528 425.833472 
L 701.377932 421.292919 
L 690.867038 417.411907 
L 680.1442 414.201902 
L 669.246242 411.665067 
L 658.208834 409.794315 
L 647.064247 408.574167 
L 635.839794 407.982189 
L 624.557082 407.990664 
L 613.232025 408.568207 
L 601.875453 409.681086 
L 590.494103 411.294138 
L 579.09179 413.371265 
L 567.670609 415.875538 
L 556.232072 418.769012 
L 544.778125 422.0123 
L 533.312069 425.564014 
L 521.839368 429.380104 
L 510.368422 433.413163 
L 498.911335 437.611713 
L 476.110721 446.274911 
L 453.468037 454.916541 
L 442.343825 459.02121 
L 431.424534 462.865017 
L 420.777703 466.354714 
L 410.487436 469.393711 
L 400.657296 471.886443 
L 391.411894 473.746061 
L 382.894103 474.906676 
L 375.251748 475.340066 
L 368.60408 475.071611 
L 362.979804 474.178493 
L 358.238232 472.738992 
L 354.030302 470.712057 
L 349.881727 467.796263 
L 345.396628 463.39565 
L 340.434472 456.756544 
L 335.125086 447.16332 
L 329.757454 434.043166 
L 324.661365 416.956546 
L 320.142902 395.538043 
L 316.467271 369.441091 
L 313.86444 338.302895 
L 312.540946 301.726329 
L 312.693296 258.584673 
L 312.693296 258.584673 
" clip-path="url(#pd5443e3622)" style="fill: none; stroke: #1f77b4; stroke-width: 1.5"/>
    <path d="M 1212.618022 575.014441 
L 1186.201885 610.02839 
L 1161.382771 641.310569 
L 1138.079221 669.052364 
L 1116.211498 693.442081 
L 1095.701686 714.66461 
L 1076.473766 732.90112 
L 1058.453691 748.328785 
L 1041.56945 761.120536 
L 1025.751119 771.444847 
L 1010.930907 779.465539 
L 997.043196 785.341618 
L 984.024563 789.227134 
L 971.813811 791.271063 
L 960.351973 791.617217 
L 949.582325 790.40417 
L 939.450383 787.765206 
L 929.903898 783.828294 
L 920.892843 778.716071 
L 912.369396 772.545852 
L 904.287914 765.429652 
L 896.604904 757.474226 
L 889.278993 748.781126 
L 882.270887 739.446767 
L 875.543327 729.562508 
L 869.061049 719.214753 
L 862.790727 708.485047 
L 856.700927 697.450199 
L 850.762045 686.182403 
L 844.946254 674.74937 
L 839.227441 663.214472 
L 833.581147 651.636883 
L 827.984497 640.071735 
L 822.416144 628.570272 
L 816.856195 617.180008 
L 811.28615 605.94489 
L 805.68883 594.905459 
L 800.048315 584.099012 
L 794.349874 573.559768 
L 788.579899 563.319026 
L 782.725844 553.405321 
L 776.776157 543.844581 
L 770.720221 534.660277 
L 764.548292 525.873563 
L 758.251443 517.503419 
L 751.821509 509.566776 
L 745.251032 502.078639 
L 738.533218 495.052199 
L 731.661887 488.498936 
L 724.631431 482.428703 
L 717.436781 476.84981 
L 710.073372 471.769082 
L 702.537116 467.191913 
L 694.82438 463.122295 
L 686.931965 459.56284 
L 678.857102 456.514775 
L 670.597443 453.977928 
L 662.151059 451.950688 
L 653.516458 450.429945 
L 644.69259 449.411014 
L 635.678876 448.88753 
L 626.475239 448.851324 
L 617.08214 449.292272 
L 607.500624 450.198123 
L 597.732384 451.554294 
L 587.779814 453.343643 
L 577.646095 455.546214 
L 567.335272 458.138947 
L 556.852349 461.095366 
L 546.203396 464.385226 
L 535.395663 467.974141 
L 524.437707 471.823163 
L 513.339525 475.88834 
L 502.112712 480.120234 
L 490.770612 484.463397 
L 479.328499 488.855824 
L 467.80376 493.228351 
L 456.216095 497.504028 
L 444.587727 501.597444 
L 432.94363 505.414013 
L 421.311769 508.84922 
L 409.723352 511.787817 
L 398.213099 514.102986 
L 386.819528 515.655449 
L 375.585248 516.292532 
L 364.557281 515.847187 
L 353.787382 514.136959 
L 343.332395 510.962913 
L 333.254607 506.108503 
L 323.622134 499.338394 
L 314.509314 490.397233 
L 305.997119 479.008361 
L 298.173594 464.87248 
L 291.134297 447.666261 
L 284.982775 427.040892 
L 279.831047 402.620575 
L 275.800111 374.000965 
L 273.02047 340.747546 
L 271.632675 302.393951 
L 271.787893 258.44022 
" clip-path="url(#pd5443e3622)" style="fill: none; stroke: #8c564b; stroke-width: 1.5"/>
    <path d="M 1245.272727 599.650656 
L 1218.246829 635.452678 
L 1192.704186 667.621057 
L 1168.535653 696.359479 
L 1145.625861 721.86862 
L 1123.851075 744.344313 
L 1103.076805 763.974439 
L 1083.155697 780.93375 
L 1063.927058 795.375612 
L 1048.108727 805.699923 
L 1045.220801 807.419899 
L 1030.400589 815.440591 
L 1026.870558 817.137815 
L 1012.982846 823.013894 
L 1008.741889 824.538728 
L 995.723257 828.424244 
L 990.777713 829.571499 
L 978.56696 831.615429 
L 973.048622 832.158079 
L 961.586784 832.504233 
L 955.773484 832.265837 
L 945.003836 831.052789 
L 939.272029 829.98915 
L 929.140087 827.350186 
L 923.855219 825.581389 
L 914.308734 821.644477 
L 909.719088 819.407027 
L 900.708033 814.294804 
L 896.906201 811.850854 
L 888.382754 805.680634 
L 885.336355 803.245811 
L 877.254872 796.129611 
L 874.863853 793.846151 
L 865.325294 783.834401 
L 856.566813 773.340973 
L 848.454882 762.46308 
L 840.877899 751.278422 
L 833.743842 739.853739 
L 826.976855 728.249646 
L 820.513972 716.523143 
L 814.302422 704.728797 
L 808.297519 692.919209 
L 796.760302 669.455363 
L 780.151399 635.236769 
L 769.314041 613.619246 
L 763.923473 603.291664 
L 758.5367 593.32885 
L 753.145643 583.760622 
L 747.744616 574.614109 
L 742.330239 565.913577 
L 736.901322 557.680196 
L 731.458685 549.931745 
L 726.004897 542.682246 
L 720.543867 535.941549 
L 715.080274 529.714887 
L 709.618758 524.002461 
L 704.162892 518.799143 
L 698.713926 514.0944 
L 693.269383 509.872578 
L 687.821654 506.113664 
L 682.356815 502.794576 
L 676.853919 499.890979 
L 671.285013 497.379419 
L 665.616038 495.239518 
L 659.808586 493.455835 
L 653.822288 492.019046 
L 647.617482 490.926244 
L 641.157707 490.180305 
L 634.411662 489.788519 
L 627.354427 489.760756 
L 619.967893 490.107509 
L 612.240529 490.838066 
L 604.166674 491.958997 
L 595.745566 493.473009 
L 586.980289 495.378148 
L 577.87676 497.667298 
L 568.442836 500.327875 
L 558.687544 503.34165 
L 548.62045 506.684621 
L 538.25111 510.32689 
L 516.640895 518.359169 
L 481.964127 531.604865 
L 469.798704 536.088812 
L 457.328393 540.468362 
L 444.529499 544.64462 
L 431.366411 548.499907 
L 417.789556 551.8903 
L 403.735783 554.63412 
L 392.342211 556.186583 
L 389.13552 556.495491 
L 377.901241 557.132574 
L 373.934689 557.164876 
L 362.906721 556.719531 
L 358.141966 556.246649 
L 347.372067 554.536421 
L 341.90432 553.278569 
L 331.449332 550.104523 
L 328.470808 549.073359 
L 325.580523 547.815917 
L 315.502736 542.961507 
L 312.548496 541.386397 
L 309.732957 539.574976 
L 300.100484 532.804867 
L 297.449982 530.775495 
L 294.973779 528.536761 
L 285.860959 519.595599 
L 283.712409 517.31978 
L 281.74415 514.886351 
L 273.231956 503.497479 
L 270.20722 498.816338 
L 262.383695 484.680457 
L 260.313787 480.361439 
L 253.27449 463.15522 
L 251.934956 459.357475 
L 245.783434 438.732106 
L 244.958061 435.484535 
L 239.325181 408.325633 
L 235.036617 377.40837 
L 232.141565 342.226717 
L 230.727273 302.249498 
L 230.882491 258.295767 
L 230.882491 258.295767 
" clip-path="url(#pd5443e3622)" style="fill: none; stroke: #17becf; stroke-width: 1.5"/>
   </g>
   <g id="patch_3">
    <path d="M 180 861.214657 
L 180 229.585343 
" style="fill: none; stroke: #000000; stroke-width: 0.8; stroke-linejoin: miter; stroke-linecap: square"/>
   </g>
   <g id="patch_4">
    <path d="M 1296 861.214657 
L 1296 229.585343 
" style="fill: none; stroke: #000000; stroke-width: 0.8; stroke-linejoin: miter; stroke-linecap: square"/>
   </g>
   <g id="patch_5">
    <path d="M 180 861.214657 
L 1296 861.214657 
" style="fill: none; stroke: #000000; stroke-width: 0.8; stroke-linejoin: miter; stroke-linecap: square"/>
   </g>
   <g id="patch_6">
    <path d="M 180 229.585343 
L 1296 229.585343 
" style="fill: none; stroke: #000000; stroke-width: 0.8; stroke-linejoin: miter; stroke-linecap: square"/>
   </g>
  </g>
 </g>
 <defs>
  <clipPath id="pd5443e3622">
   <rect x="180" y="229.585343" width="1116" height="631.629313"/>
  </clipPath>
 </defs>
</svg>
