<?xml version="1.0" encoding="utf-8" standalone="no"?>
<!DOCTYPE svg PUBLIC "-//W3C//DTD SVG 1.1//EN"
  "http://www.w3.org/Graphics/SVG/1.1/DTD/svg11.dtd">
<svg xmlns:xlink="http://www.w3.org/1999/xlink" width="1440pt" height="1080pt" viewBox="0 0 1440 1080" xmlns="http://www.w3.org/2000/svg" version="1.1">
 <metadata>
  <rdf:RDF xmlns:dc="http://purl.org/dc/elements/1.1/" xmlns:cc="http://creativecommons.org/ns#" xmlns:rdf="http://www.w3.org/1999/02/22-rdf-syntax-ns#">
   <cc:Work>
    <dc:type rdf:resource="http://purl.org/dc/dcmitype/StillImage"/>
    <dc:date>2023-12-11T12:07:06.836782</dc:date>
    <dc:format>image/svg+xml</dc:format>
    <dc:creator>
     <cc:Agent>
      <dc:title>Matplotlib v3.7.1, https://matplotlib.org/</dc:title>
     </cc:Agent>
    </dc:creator>
   </cc:Work>
  </rdf:RDF>
 </metadata>
 <defs>
  <style type="text/css">*{stroke-linejoin: round; stroke-linecap: butt}</style>
 </defs>
 <g id="figure_1">
  <g id="patch_1">
   <path d="M 0 1080 
L 1440 1080 
L 1440 0 
L 0 0 
z
" style="fill: #ffffff"/>
  </g>
  <g id="axes_1">
   <g id="patch_2">
    <path d="M 180 773.532323 
L 1296 773.532323 
L 1296 317.267677 
L 180 317.267677 
z
" style="fill: #ffffff"/>
   </g>
   <g id="matplotlib.axis_1">
    <g id="xtick_1">
     <g id="line2d_1">
      <defs>
       <path id="m4b741a3e01" d="M 0 0 
L 0 3.5 
" style="stroke: #000000; stroke-width: 0.8"/>
      </defs>
      <g>
       <use xlink:href="#m4b741a3e01" x="194.5105" y="773.532323" style="stroke: #000000; stroke-width: 0.8"/>
      </g>
     </g>
     <g id="text_1">
      <!-- 700 -->
      <g transform="translate(184.96675 788.13076) scale(0.1 -0.1)">
       <defs>
        <path id="DejaVuSans-37" d="M 525 4666 
L 3525 4666 
L 3525 4397 
L 1831 0 
L 1172 0 
L 2766 4134 
L 525 4134 
L 525 4666 
z
" transform="scale(0.015625)"/>
        <path id="DejaVuSans-30" d="M 2034 4250 
Q 1547 4250 1301 3770 
Q 1056 3291 1056 2328 
Q 1056 1369 1301 889 
Q 1547 409 2034 409 
Q 2525 409 2770 889 
Q 3016 1369 3016 2328 
Q 3016 3291 2770 3770 
Q 2525 4250 2034 4250 
z
M 2034 4750 
Q 2819 4750 3233 4129 
Q 3647 3509 3647 2328 
Q 3647 1150 3233 529 
Q 2819 -91 2034 -91 
Q 1250 -91 836 529 
Q 422 1150 422 2328 
Q 422 3509 836 4129 
Q 1250 4750 2034 4750 
z
" transform="scale(0.015625)"/>
       </defs>
       <use xlink:href="#DejaVuSans-37"/>
       <use xlink:href="#DejaVuSans-30" x="63.623047"/>
       <use xlink:href="#DejaVuSans-30" x="127.246094"/>
      </g>
     </g>
    </g>
    <g id="xtick_2">
     <g id="line2d_2">
      <g>
       <use xlink:href="#m4b741a3e01" x="382.620495" y="773.532323" style="stroke: #000000; stroke-width: 0.8"/>
      </g>
     </g>
     <g id="text_2">
      <!-- 800 -->
      <g transform="translate(373.076745 788.13076) scale(0.1 -0.1)">
       <defs>
        <path id="DejaVuSans-38" d="M 2034 2216 
Q 1584 2216 1326 1975 
Q 1069 1734 1069 1313 
Q 1069 891 1326 650 
Q 1584 409 2034 409 
Q 2484 409 2743 651 
Q 3003 894 3003 1313 
Q 3003 1734 2745 1975 
Q 2488 2216 2034 2216 
z
M 1403 2484 
Q 997 2584 770 2862 
Q 544 3141 544 3541 
Q 544 4100 942 4425 
Q 1341 4750 2034 4750 
Q 2731 4750 3128 4425 
Q 3525 4100 3525 3541 
Q 3525 3141 3298 2862 
Q 3072 2584 2669 2484 
Q 3125 2378 3379 2068 
Q 3634 1759 3634 1313 
Q 3634 634 3220 271 
Q 2806 -91 2034 -91 
Q 1263 -91 848 271 
Q 434 634 434 1313 
Q 434 1759 690 2068 
Q 947 2378 1403 2484 
z
M 1172 3481 
Q 1172 3119 1398 2916 
Q 1625 2713 2034 2713 
Q 2441 2713 2670 2916 
Q 2900 3119 2900 3481 
Q 2900 3844 2670 4047 
Q 2441 4250 2034 4250 
Q 1625 4250 1398 4047 
Q 1172 3844 1172 3481 
z
" transform="scale(0.015625)"/>
       </defs>
       <use xlink:href="#DejaVuSans-38"/>
       <use xlink:href="#DejaVuSans-30" x="63.623047"/>
       <use xlink:href="#DejaVuSans-30" x="127.246094"/>
      </g>
     </g>
    </g>
    <g id="xtick_3">
     <g id="line2d_3">
      <g>
       <use xlink:href="#m4b741a3e01" x="570.73049" y="773.532323" style="stroke: #000000; stroke-width: 0.8"/>
      </g>
     </g>
     <g id="text_3">
      <!-- 900 -->
      <g transform="translate(561.18674 788.13076) scale(0.1 -0.1)">
       <defs>
        <path id="DejaVuSans-39" d="M 703 97 
L 703 672 
Q 941 559 1184 500 
Q 1428 441 1663 441 
Q 2288 441 2617 861 
Q 2947 1281 2994 2138 
Q 2813 1869 2534 1725 
Q 2256 1581 1919 1581 
Q 1219 1581 811 2004 
Q 403 2428 403 3163 
Q 403 3881 828 4315 
Q 1253 4750 1959 4750 
Q 2769 4750 3195 4129 
Q 3622 3509 3622 2328 
Q 3622 1225 3098 567 
Q 2575 -91 1691 -91 
Q 1453 -91 1209 -44 
Q 966 3 703 97 
z
M 1959 2075 
Q 2384 2075 2632 2365 
Q 2881 2656 2881 3163 
Q 2881 3666 2632 3958 
Q 2384 4250 1959 4250 
Q 1534 4250 1286 3958 
Q 1038 3666 1038 3163 
Q 1038 2656 1286 2365 
Q 1534 2075 1959 2075 
z
" transform="scale(0.015625)"/>
       </defs>
       <use xlink:href="#DejaVuSans-39"/>
       <use xlink:href="#DejaVuSans-30" x="63.623047"/>
       <use xlink:href="#DejaVuSans-30" x="127.246094"/>
      </g>
     </g>
    </g>
    <g id="xtick_4">
     <g id="line2d_4">
      <g>
       <use xlink:href="#m4b741a3e01" x="758.840485" y="773.532323" style="stroke: #000000; stroke-width: 0.8"/>
      </g>
     </g>
     <g id="text_4">
      <!-- 1000 -->
      <g transform="translate(746.115485 788.13076) scale(0.1 -0.1)">
       <defs>
        <path id="DejaVuSans-31" d="M 794 531 
L 1825 531 
L 1825 4091 
L 703 3866 
L 703 4441 
L 1819 4666 
L 2450 4666 
L 2450 531 
L 3481 531 
L 3481 0 
L 794 0 
L 794 531 
z
" transform="scale(0.015625)"/>
       </defs>
       <use xlink:href="#DejaVuSans-31"/>
       <use xlink:href="#DejaVuSans-30" x="63.623047"/>
       <use xlink:href="#DejaVuSans-30" x="127.246094"/>
       <use xlink:href="#DejaVuSans-30" x="190.869141"/>
      </g>
     </g>
    </g>
    <g id="xtick_5">
     <g id="line2d_5">
      <g>
       <use xlink:href="#m4b741a3e01" x="946.950479" y="773.532323" style="stroke: #000000; stroke-width: 0.8"/>
      </g>
     </g>
     <g id="text_5">
      <!-- 1100 -->
      <g transform="translate(934.225479 788.13076) scale(0.1 -0.1)">
       <use xlink:href="#DejaVuSans-31"/>
       <use xlink:href="#DejaVuSans-31" x="63.623047"/>
       <use xlink:href="#DejaVuSans-30" x="127.246094"/>
       <use xlink:href="#DejaVuSans-30" x="190.869141"/>
      </g>
     </g>
    </g>
    <g id="xtick_6">
     <g id="line2d_6">
      <g>
       <use xlink:href="#m4b741a3e01" x="1135.060474" y="773.532323" style="stroke: #000000; stroke-width: 0.8"/>
      </g>
     </g>
     <g id="text_6">
      <!-- 1200 -->
      <g transform="translate(1122.335474 788.13076) scale(0.1 -0.1)">
       <defs>
        <path id="DejaVuSans-32" d="M 1228 531 
L 3431 531 
L 3431 0 
L 469 0 
L 469 531 
Q 828 903 1448 1529 
Q 2069 2156 2228 2338 
Q 2531 2678 2651 2914 
Q 2772 3150 2772 3378 
Q 2772 3750 2511 3984 
Q 2250 4219 1831 4219 
Q 1534 4219 1204 4116 
Q 875 4013 500 3803 
L 500 4441 
Q 881 4594 1212 4672 
Q 1544 4750 1819 4750 
Q 2544 4750 2975 4387 
Q 3406 4025 3406 3419 
Q 3406 3131 3298 2873 
Q 3191 2616 2906 2266 
Q 2828 2175 2409 1742 
Q 1991 1309 1228 531 
z
" transform="scale(0.015625)"/>
       </defs>
       <use xlink:href="#DejaVuSans-31"/>
       <use xlink:href="#DejaVuSans-32" x="63.623047"/>
       <use xlink:href="#DejaVuSans-30" x="127.246094"/>
       <use xlink:href="#DejaVuSans-30" x="190.869141"/>
      </g>
     </g>
    </g>
   </g>
   <g id="matplotlib.axis_2">
    <g id="ytick_1">
     <g id="line2d_7">
      <defs>
       <path id="m31380da4fa" d="M 0 0 
L -3.5 0 
" style="stroke: #000000; stroke-width: 0.8"/>
      </defs>
      <g>
       <use xlink:href="#m31380da4fa" x="180" y="769.455684" style="stroke: #000000; stroke-width: 0.8"/>
      </g>
     </g>
     <g id="text_7">
      <!-- 500 -->
      <g transform="translate(153.9125 773.254903) scale(0.1 -0.1)">
       <defs>
        <path id="DejaVuSans-35" d="M 691 4666 
L 3169 4666 
L 3169 4134 
L 1269 4134 
L 1269 2991 
Q 1406 3038 1543 3061 
Q 1681 3084 1819 3084 
Q 2600 3084 3056 2656 
Q 3513 2228 3513 1497 
Q 3513 744 3044 326 
Q 2575 -91 1722 -91 
Q 1428 -91 1123 -41 
Q 819 9 494 109 
L 494 744 
Q 775 591 1075 516 
Q 1375 441 1709 441 
Q 2250 441 2565 725 
Q 2881 1009 2881 1497 
Q 2881 1984 2565 2268 
Q 2250 2553 1709 2553 
Q 1456 2553 1204 2497 
Q 953 2441 691 2322 
L 691 4666 
z
" transform="scale(0.015625)"/>
       </defs>
       <use xlink:href="#DejaVuSans-35"/>
       <use xlink:href="#DejaVuSans-30" x="63.623047"/>
       <use xlink:href="#DejaVuSans-30" x="127.246094"/>
      </g>
     </g>
    </g>
    <g id="ytick_2">
     <g id="line2d_8">
      <g>
       <use xlink:href="#m31380da4fa" x="180" y="675.400686" style="stroke: #000000; stroke-width: 0.8"/>
      </g>
     </g>
     <g id="text_8">
      <!-- 550 -->
      <g transform="translate(153.9125 679.199905) scale(0.1 -0.1)">
       <use xlink:href="#DejaVuSans-35"/>
       <use xlink:href="#DejaVuSans-35" x="63.623047"/>
       <use xlink:href="#DejaVuSans-30" x="127.246094"/>
      </g>
     </g>
    </g>
    <g id="ytick_3">
     <g id="line2d_9">
      <g>
       <use xlink:href="#m31380da4fa" x="180" y="581.345689" style="stroke: #000000; stroke-width: 0.8"/>
      </g>
     </g>
     <g id="text_9">
      <!-- 600 -->
      <g transform="translate(153.9125 585.144908) scale(0.1 -0.1)">
       <defs>
        <path id="DejaVuSans-36" d="M 2113 2584 
Q 1688 2584 1439 2293 
Q 1191 2003 1191 1497 
Q 1191 994 1439 701 
Q 1688 409 2113 409 
Q 2538 409 2786 701 
Q 3034 994 3034 1497 
Q 3034 2003 2786 2293 
Q 2538 2584 2113 2584 
z
M 3366 4563 
L 3366 3988 
Q 3128 4100 2886 4159 
Q 2644 4219 2406 4219 
Q 1781 4219 1451 3797 
Q 1122 3375 1075 2522 
Q 1259 2794 1537 2939 
Q 1816 3084 2150 3084 
Q 2853 3084 3261 2657 
Q 3669 2231 3669 1497 
Q 3669 778 3244 343 
Q 2819 -91 2113 -91 
Q 1303 -91 875 529 
Q 447 1150 447 2328 
Q 447 3434 972 4092 
Q 1497 4750 2381 4750 
Q 2619 4750 2861 4703 
Q 3103 4656 3366 4563 
z
" transform="scale(0.015625)"/>
       </defs>
       <use xlink:href="#DejaVuSans-36"/>
       <use xlink:href="#DejaVuSans-30" x="63.623047"/>
       <use xlink:href="#DejaVuSans-30" x="127.246094"/>
      </g>
     </g>
    </g>
    <g id="ytick_4">
     <g id="line2d_10">
      <g>
       <use xlink:href="#m31380da4fa" x="180" y="487.290692" style="stroke: #000000; stroke-width: 0.8"/>
      </g>
     </g>
     <g id="text_10">
      <!-- 650 -->
      <g transform="translate(153.9125 491.08991) scale(0.1 -0.1)">
       <use xlink:href="#DejaVuSans-36"/>
       <use xlink:href="#DejaVuSans-35" x="63.623047"/>
       <use xlink:href="#DejaVuSans-30" x="127.246094"/>
      </g>
     </g>
    </g>
    <g id="ytick_5">
     <g id="line2d_11">
      <g>
       <use xlink:href="#m31380da4fa" x="180" y="393.235694" style="stroke: #000000; stroke-width: 0.8"/>
      </g>
     </g>
     <g id="text_11">
      <!-- 700 -->
      <g transform="translate(153.9125 397.034913) scale(0.1 -0.1)">
       <use xlink:href="#DejaVuSans-37"/>
       <use xlink:href="#DejaVuSans-30" x="63.623047"/>
       <use xlink:href="#DejaVuSans-30" x="127.246094"/>
      </g>
     </g>
    </g>
   </g>
   <g id="LineCollection_1">
    <path d="M 271.159725 677.918873 
L 282.316675 655.459376 
L 292.631137 639.347237 
L 302.233491 628.141882 
L 310.849447 621.069326 
L 318.457888 617.125807 
L 325.518777 615.328034 
L 332.795978 615.139851 
L 340.848913 616.518967 
L 349.805977 619.560421 
L 359.523767 624.239232 
L 369.790927 630.389995 
L 380.423566 637.770949 
L 391.285475 646.116953 
L 402.281853 655.167511 
L 413.348705 664.678826 
L 446.765034 693.96812 
L 457.922225 703.36433 
L 469.086324 712.310585 
L 480.279954 720.67745 
L 491.535017 728.345091 
L 502.890844 735.197734 
L 514.389242 741.116898 
L 526.064274 745.974882 
L 535.6083 749.025225 
L 537.925474 749.632382 
L 547.299358 751.563618 
L 549.937085 751.946388 
L 559.143441 752.731147 
L 562.003279 752.793021 
L 571.04544 752.415101 
L 573.974227 752.100329 
L 582.856203 750.554116 
L 585.679769 749.872895 
L 594.406214 747.162777 
L 596.97631 746.189419 
L 605.55248 742.329223 
L 607.779927 741.17368 
L 618.070888 734.958572 
L 627.876674 727.662142 
L 637.249467 719.380161 
L 646.248643 710.189482 
L 654.930817 700.15512 
L 663.345688 689.336872 
L 671.535232 677.794056 
L 679.534412 665.588389 
L 687.372377 652.785482 
L 695.073668 639.455424 
L 702.659237 625.672823 
L 710.147254 611.516548 
L 717.553705 597.069312 
L 732.177288 567.64906 
L 753.84203 523.507246 
L 761.026497 509.171065 
L 768.20195 495.187314 
L 775.372896 481.651506 
L 782.541425 468.658888 
L 789.70653 456.304009 
L 796.863179 444.680171 
L 804.001084 433.878634 
L 811.103138 423.987343 
L 818.143609 415.088767 
L 825.086423 407.256239 
L 831.884484 400.547981 
L 838.482001 394.998153 
L 844.82321 390.605491 
L 850.871357 387.323481 
L 856.638263 385.06142 
L 862.213823 383.708098 
L 867.771943 383.178889 
L 873.533986 383.462432 
L 879.703166 384.631722 
L 886.411388 386.810774 
L 893.706846 390.124537 
L 901.574773 394.663501 
L 909.967419 400.471983 
L 918.827196 407.551916 
L 928.099464 415.87178 
L 937.737619 425.374909 
L 947.703974 435.985364 
L 957.968848 447.611517 
L 968.509162 460.147992 
L 979.307118 473.476587 
L 990.349197 487.466621 
L 1024.921025 531.990322 
L 1036.924798 547.126181 
L 1049.175113 562.090614 
L 1061.696252 576.681257 
L 1074.530687 590.683485 
L 1087.749889 603.867719 
L 1101.470884 615.980254 
L 1113.878067 625.366756 
L 1115.877075 626.717422 
L 1128.340587 634.201049 
L 1131.226515 635.66345 
L 1145.726864 641.63937 
L 1147.783688 642.177653 
L 1160.308983 644.832324 
L 1162.916823 645.227521 
L 1165.552959 645.315821 
L 1180.039474 644.868604 
L 1181.978649 644.564715 
L 1183.884093 644.093514 
L 1198.198512 639.801651 
L 1199.943799 639.037791 
L 1201.61846 638.129484 
L 1214.090442 630.667174 
L 1216.113522 629.303033 
L 1217.977544 627.728498 
L 1231.729209 614.663601 
L 1232.948902 613.178457 
L 1245.272727 596.797605 
L 1245.272727 596.797605 
" clip-path="url(#p40a96bf720)" style="fill: none; stroke: #1f77b4; stroke-width: 1.5"/>
    <path d="M 250.943499 667.876287 
L 262.645193 644.320194 
L 274.467514 625.852639 
L 286.381105 611.950214 
L 298.358463 602.118392 
L 310.373894 595.890694 
L 322.40345 592.827849 
L 334.424887 592.516983 
L 346.417607 594.570813 
L 358.362611 598.626849 
L 370.242447 604.346618 
L 382.041163 611.414892 
L 393.744258 619.538934 
L 405.338631 628.447744 
L 416.81254 637.891332 
L 428.15555 647.63999 
L 439.35849 657.483575 
L 450.413406 667.230814 
L 461.313517 676.708602 
L 472.053171 685.761328 
L 482.627802 694.250194 
L 493.033886 702.052559 
L 503.268898 709.06128 
L 513.331272 715.184069 
L 523.220358 720.342858 
L 532.936383 724.473174 
L 542.480409 727.523518 
L 551.854293 729.454753 
L 561.060649 730.239512 
L 570.102809 729.861592 
L 578.984785 728.315378 
L 587.711229 725.60526 
L 596.287399 721.745063 
L 604.719119 716.757483 
L 613.012745 710.67353 
L 621.175126 703.531979 
L 629.213571 695.378822 
L 637.135813 686.266738 
L 644.949975 676.254553 
L 652.664532 665.406722 
L 660.288284 653.792801 
L 667.830312 641.486942 
L 675.299956 628.567373 
L 682.706773 615.115904 
L 690.060511 601.217419 
L 697.371071 586.959385 
L 704.648479 572.431361 
L 711.902854 557.724511 
L 719.144373 542.931122 
L 726.383247 528.144124 
L 733.629681 513.456614 
L 740.893852 498.961386 
L 748.185875 484.750461 
L 755.51577 470.914622 
L 762.89344 457.542946 
L 770.328633 444.722351 
L 777.83092 432.537128 
L 785.409659 421.068491 
L 793.073973 410.39412 
L 800.832717 400.587707 
L 808.694449 391.718503 
L 816.667406 383.85087 
L 824.75947 377.043829 
L 832.978146 371.350614 
L 841.33053 366.818217 
L 849.823282 363.486947 
L 858.462599 361.389976 
L 867.254189 360.552898 
L 876.203241 360.99327 
L 885.314398 362.720173 
L 894.591733 365.733758 
L 904.038716 370.024793 
L 913.658193 375.574216 
L 923.452356 382.352677 
L 933.422717 390.320088 
L 943.57008 399.425161 
L 953.894513 409.604955 
L 964.395326 420.784409 
L 975.071039 432.875884 
L 985.919358 445.778696 
L 996.937147 459.378643 
L 1008.1204 473.547541 
L 1019.464217 488.142739 
L 1030.962775 503.00665 
L 1042.609301 517.966263 
L 1054.396045 532.832656 
L 1066.314255 547.400511 
L 1078.354145 561.447613 
L 1090.504872 574.734356 
L 1102.754508 587.003237 
L 1115.090009 597.978343 
L 1127.497192 607.364846 
L 1139.960704 614.848473 
L 1152.463995 620.094988 
L 1164.98929 622.74966 
L 1177.517561 622.436723 
L 1190.028497 618.758833 
L 1202.500479 611.296523 
L 1214.910547 599.607641 
L 1227.234372 583.226789 
" clip-path="url(#p40a96bf720)" style="fill: none; stroke: #8c564b; stroke-width: 1.5"/>
    <path d="M 230.727273 657.8337 
L 242.428967 634.277607 
L 243.633875 632.149773 
L 255.456197 613.682219 
L 257.326973 611.164168 
L 270.58933 595.820453 
L 272.058854 594.502507 
L 284.036213 584.670686 
L 285.935717 583.270987 
L 287.970951 582.077212 
L 299.986381 575.849513 
L 302.342775 574.794475 
L 304.804228 574.015407 
L 316.833784 570.952562 
L 319.307548 570.467958 
L 321.819919 570.262193 
L 336.046024 570.002072 
L 338.235219 570.267698 
L 351.968993 572.69088 
L 353.675536 573.196253 
L 365.620539 577.252289 
L 368.155006 578.288257 
L 381.84304 584.982331 
L 394.9135 592.871638 
L 407.497739 601.639462 
L 419.683587 611.0187 
L 431.525659 620.771944 
L 443.055234 630.682727 
L 475.994396 659.560684 
L 486.394943 668.327567 
L 496.467794 676.413626 
L 506.18765 683.701466 
L 515.52167 690.093205 
L 524.430438 695.514044 
L 532.871131 699.917258 
L 540.804856 703.289912 
L 548.210061 705.656672 
L 555.101683 707.076504 
L 561.549901 707.626156 
L 567.685494 707.369717 
L 573.679624 706.326233 
L 579.701516 704.456051 
L 585.876431 701.676676 
L 592.266646 697.8967 
L 598.878845 693.04619 
L 605.684971 687.091273 
L 612.642608 680.034349 
L 619.708564 671.907156 
L 626.845639 662.762513 
L 634.024846 652.667466 
L 641.225277 641.698426 
L 648.433031 629.937981 
L 655.639924 617.472869 
L 662.842306 604.392674 
L 670.040078 590.788962 
L 677.235938 576.754631 
L 691.643427 547.769305 
L 713.448827 503.343135 
L 720.810333 488.655971 
L 728.238959 474.183064 
L 735.751302 460.009801 
L 743.366421 446.218421 
L 751.106577 432.887576 
L 758.998244 420.092062 
L 767.073453 407.902897 
L 775.371451 396.388049 
L 783.940503 385.614315 
L 792.839266 375.651067 
L 802.136358 366.57667 
L 811.905447 358.487875 
L 820.124124 352.79466 
L 822.211875 351.510333 
L 830.564259 346.977936 
L 833.087665 345.803829 
L 841.580417 342.472559 
L 844.498824 341.550687 
L 853.138142 339.453717 
L 856.323 338.918407 
L 865.11459 338.081328 
L 868.363648 338.006979 
L 877.312699 338.447352 
L 880.406863 338.814927 
L 889.51802 340.54183 
L 892.288218 341.251238 
L 901.565552 344.264823 
L 903.927093 345.181377 
L 915.31863 350.471971 
L 926.504376 357.012834 
L 937.544145 364.718313 
L 948.49817 373.518896 
L 959.418751 383.351303 
L 970.347752 394.150497 
L 981.316868 405.84417 
L 992.34888 418.349165 
L 1003.459021 431.569207 
L 1014.656115 445.393384 
L 1025.943341 459.695028 
L 1060.359636 504.020478 
L 1071.976839 518.673032 
L 1083.621722 532.906794 
L 1095.257033 546.481869 
L 1106.828756 559.135474 
L 1118.257433 570.582107 
L 1129.42448 580.517619 
L 1140.152953 588.634114 
L 1150.190392 594.661023 
L 1159.231142 598.454619 
L 1167.076002 600.117297 
L 1173.992797 599.944526 
L 1180.90472 597.912601 
L 1188.807439 593.184199 
L 1198.03071 584.496919 
L 1209.196016 569.655973 
L 1209.196016 569.655973 
" clip-path="url(#p40a96bf720)" style="fill: none; stroke: #17becf; stroke-width: 1.5"/>
   </g>
   <g id="patch_3">
    <path d="M 180 773.532323 
L 180 317.267677 
" style="fill: none; stroke: #000000; stroke-width: 0.8; stroke-linejoin: miter; stroke-linecap: square"/>
   </g>
   <g id="patch_4">
    <path d="M 1296 773.532323 
L 1296 317.267677 
" style="fill: none; stroke: #000000; stroke-width: 0.8; stroke-linejoin: miter; stroke-linecap: square"/>
   </g>
   <g id="patch_5">
    <path d="M 180 773.532323 
L 1296 773.532323 
" style="fill: none; stroke: #000000; stroke-width: 0.8; stroke-linejoin: miter; stroke-linecap: square"/>
   </g>
   <g id="patch_6">
    <path d="M 180 317.267677 
L 1296 317.267677 
" style="fill: none; stroke: #000000; stroke-width: 0.8; stroke-linejoin: miter; stroke-linecap: square"/>
   </g>
  </g>
 </g>
 <defs>
  <clipPath id="p40a96bf720">
   <rect x="180" y="317.267677" width="1116" height="456.264646"/>
  </clipPath>
 </defs>
</svg>
