<?xml version="1.0" encoding="utf-8" standalone="no"?>
<!DOCTYPE svg PUBLIC "-//W3C//DTD SVG 1.1//EN"
  "http://www.w3.org/Graphics/SVG/1.1/DTD/svg11.dtd">
<svg xmlns:xlink="http://www.w3.org/1999/xlink" width="1440pt" height="1080pt" viewBox="0 0 1440 1080" xmlns="http://www.w3.org/2000/svg" version="1.1">
 <metadata>
  <rdf:RDF xmlns:dc="http://purl.org/dc/elements/1.1/" xmlns:cc="http://creativecommons.org/ns#" xmlns:rdf="http://www.w3.org/1999/02/22-rdf-syntax-ns#">
   <cc:Work>
    <dc:type rdf:resource="http://purl.org/dc/dcmitype/StillImage"/>
    <dc:date>2023-12-11T12:06:34.679258</dc:date>
    <dc:format>image/svg+xml</dc:format>
    <dc:creator>
     <cc:Agent>
      <dc:title>Matplotlib v3.7.1, https://matplotlib.org/</dc:title>
     </cc:Agent>
    </dc:creator>
   </cc:Work>
  </rdf:RDF>
 </metadata>
 <defs>
  <style type="text/css">*{stroke-linejoin: round; stroke-linecap: butt}</style>
 </defs>
 <g id="figure_1">
  <g id="patch_1">
   <path d="M 0 1080 
L 1440 1080 
L 1440 0 
L 0 0 
z
" style="fill: #ffffff"/>
  </g>
  <g id="axes_1">
   <g id="patch_2">
    <path d="M 444.919804 961.2 
L 1031.080196 961.2 
L 1031.080196 129.6 
L 444.919804 129.6 
z
" style="fill: #ffffff"/>
   </g>
   <g id="matplotlib.axis_1">
    <g id="xtick_1">
     <g id="line2d_1">
      <defs>
       <path id="m7927473440" d="M 0 0 
L 0 3.5 
" style="stroke: #000000; stroke-width: 0.8"/>
      </defs>
      <g>
       <use xlink:href="#m7927473440" x="453.134855" y="961.2" style="stroke: #000000; stroke-width: 0.8"/>
      </g>
     </g>
     <g id="text_1">
      <!-- 0 -->
      <g transform="translate(449.953605 975.798437) scale(0.1 -0.1)">
       <defs>
        <path id="DejaVuSans-30" d="M 2034 4250 
Q 1547 4250 1301 3770 
Q 1056 3291 1056 2328 
Q 1056 1369 1301 889 
Q 1547 409 2034 409 
Q 2525 409 2770 889 
Q 3016 1369 3016 2328 
Q 3016 3291 2770 3770 
Q 2525 4250 2034 4250 
z
M 2034 4750 
Q 2819 4750 3233 4129 
Q 3647 3509 3647 2328 
Q 3647 1150 3233 529 
Q 2819 -91 2034 -91 
Q 1250 -91 836 529 
Q 422 1150 422 2328 
Q 422 3509 836 4129 
Q 1250 4750 2034 4750 
z
" transform="scale(0.015625)"/>
       </defs>
       <use xlink:href="#DejaVuSans-30"/>
      </g>
     </g>
    </g>
    <g id="xtick_2">
     <g id="line2d_2">
      <g>
       <use xlink:href="#m7927473440" x="565.691278" y="961.2" style="stroke: #000000; stroke-width: 0.8"/>
      </g>
     </g>
     <g id="text_2">
      <!-- 100 -->
      <g transform="translate(556.147528 975.798437) scale(0.1 -0.1)">
       <defs>
        <path id="DejaVuSans-31" d="M 794 531 
L 1825 531 
L 1825 4091 
L 703 3866 
L 703 4441 
L 1819 4666 
L 2450 4666 
L 2450 531 
L 3481 531 
L 3481 0 
L 794 0 
L 794 531 
z
" transform="scale(0.015625)"/>
       </defs>
       <use xlink:href="#DejaVuSans-31"/>
       <use xlink:href="#DejaVuSans-30" x="63.623047"/>
       <use xlink:href="#DejaVuSans-30" x="127.246094"/>
      </g>
     </g>
    </g>
    <g id="xtick_3">
     <g id="line2d_3">
      <g>
       <use xlink:href="#m7927473440" x="678.247702" y="961.2" style="stroke: #000000; stroke-width: 0.8"/>
      </g>
     </g>
     <g id="text_3">
      <!-- 200 -->
      <g transform="translate(668.703952 975.798437) scale(0.1 -0.1)">
       <defs>
        <path id="DejaVuSans-32" d="M 1228 531 
L 3431 531 
L 3431 0 
L 469 0 
L 469 531 
Q 828 903 1448 1529 
Q 2069 2156 2228 2338 
Q 2531 2678 2651 2914 
Q 2772 3150 2772 3378 
Q 2772 3750 2511 3984 
Q 2250 4219 1831 4219 
Q 1534 4219 1204 4116 
Q 875 4013 500 3803 
L 500 4441 
Q 881 4594 1212 4672 
Q 1544 4750 1819 4750 
Q 2544 4750 2975 4387 
Q 3406 4025 3406 3419 
Q 3406 3131 3298 2873 
Q 3191 2616 2906 2266 
Q 2828 2175 2409 1742 
Q 1991 1309 1228 531 
z
" transform="scale(0.015625)"/>
       </defs>
       <use xlink:href="#DejaVuSans-32"/>
       <use xlink:href="#DejaVuSans-30" x="63.623047"/>
       <use xlink:href="#DejaVuSans-30" x="127.246094"/>
      </g>
     </g>
    </g>
    <g id="xtick_4">
     <g id="line2d_4">
      <g>
       <use xlink:href="#m7927473440" x="790.804125" y="961.2" style="stroke: #000000; stroke-width: 0.8"/>
      </g>
     </g>
     <g id="text_4">
      <!-- 300 -->
      <g transform="translate(781.260375 975.798437) scale(0.1 -0.1)">
       <defs>
        <path id="DejaVuSans-33" d="M 2597 2516 
Q 3050 2419 3304 2112 
Q 3559 1806 3559 1356 
Q 3559 666 3084 287 
Q 2609 -91 1734 -91 
Q 1441 -91 1130 -33 
Q 819 25 488 141 
L 488 750 
Q 750 597 1062 519 
Q 1375 441 1716 441 
Q 2309 441 2620 675 
Q 2931 909 2931 1356 
Q 2931 1769 2642 2001 
Q 2353 2234 1838 2234 
L 1294 2234 
L 1294 2753 
L 1863 2753 
Q 2328 2753 2575 2939 
Q 2822 3125 2822 3475 
Q 2822 3834 2567 4026 
Q 2313 4219 1838 4219 
Q 1578 4219 1281 4162 
Q 984 4106 628 3988 
L 628 4550 
Q 988 4650 1302 4700 
Q 1616 4750 1894 4750 
Q 2613 4750 3031 4423 
Q 3450 4097 3450 3541 
Q 3450 3153 3228 2886 
Q 3006 2619 2597 2516 
z
" transform="scale(0.015625)"/>
       </defs>
       <use xlink:href="#DejaVuSans-33"/>
       <use xlink:href="#DejaVuSans-30" x="63.623047"/>
       <use xlink:href="#DejaVuSans-30" x="127.246094"/>
      </g>
     </g>
    </g>
    <g id="xtick_5">
     <g id="line2d_5">
      <g>
       <use xlink:href="#m7927473440" x="903.360549" y="961.2" style="stroke: #000000; stroke-width: 0.8"/>
      </g>
     </g>
     <g id="text_5">
      <!-- 400 -->
      <g transform="translate(893.816799 975.798437) scale(0.1 -0.1)">
       <defs>
        <path id="DejaVuSans-34" d="M 2419 4116 
L 825 1625 
L 2419 1625 
L 2419 4116 
z
M 2253 4666 
L 3047 4666 
L 3047 1625 
L 3713 1625 
L 3713 1100 
L 3047 1100 
L 3047 0 
L 2419 0 
L 2419 1100 
L 313 1100 
L 313 1709 
L 2253 4666 
z
" transform="scale(0.015625)"/>
       </defs>
       <use xlink:href="#DejaVuSans-34"/>
       <use xlink:href="#DejaVuSans-30" x="63.623047"/>
       <use xlink:href="#DejaVuSans-30" x="127.246094"/>
      </g>
     </g>
    </g>
    <g id="xtick_6">
     <g id="line2d_6">
      <g>
       <use xlink:href="#m7927473440" x="1015.916972" y="961.2" style="stroke: #000000; stroke-width: 0.8"/>
      </g>
     </g>
     <g id="text_6">
      <!-- 500 -->
      <g transform="translate(1006.373222 975.798437) scale(0.1 -0.1)">
       <defs>
        <path id="DejaVuSans-35" d="M 691 4666 
L 3169 4666 
L 3169 4134 
L 1269 4134 
L 1269 2991 
Q 1406 3038 1543 3061 
Q 1681 3084 1819 3084 
Q 2600 3084 3056 2656 
Q 3513 2228 3513 1497 
Q 3513 744 3044 326 
Q 2575 -91 1722 -91 
Q 1428 -91 1123 -41 
Q 819 9 494 109 
L 494 744 
Q 775 591 1075 516 
Q 1375 441 1709 441 
Q 2250 441 2565 725 
Q 2881 1009 2881 1497 
Q 2881 1984 2565 2268 
Q 2250 2553 1709 2553 
Q 1456 2553 1204 2497 
Q 953 2441 691 2322 
L 691 4666 
z
" transform="scale(0.015625)"/>
       </defs>
       <use xlink:href="#DejaVuSans-35"/>
       <use xlink:href="#DejaVuSans-30" x="63.623047"/>
       <use xlink:href="#DejaVuSans-30" x="127.246094"/>
      </g>
     </g>
    </g>
   </g>
   <g id="matplotlib.axis_2">
    <g id="ytick_1">
     <g id="line2d_7">
      <defs>
       <path id="m5c5c4f0df1" d="M 0 0 
L -3.5 0 
" style="stroke: #000000; stroke-width: 0.8"/>
      </defs>
      <g>
       <use xlink:href="#m5c5c4f0df1" x="444.919804" y="875.803281" style="stroke: #000000; stroke-width: 0.8"/>
      </g>
     </g>
     <g id="text_7">
      <!-- 500 -->
      <g transform="translate(418.832304 879.6025) scale(0.1 -0.1)">
       <use xlink:href="#DejaVuSans-35"/>
       <use xlink:href="#DejaVuSans-30" x="63.623047"/>
       <use xlink:href="#DejaVuSans-30" x="127.246094"/>
      </g>
     </g>
    </g>
    <g id="ytick_2">
     <g id="line2d_8">
      <g>
       <use xlink:href="#m5c5c4f0df1" x="444.919804" y="763.246858" style="stroke: #000000; stroke-width: 0.8"/>
      </g>
     </g>
     <g id="text_8">
      <!-- 600 -->
      <g transform="translate(418.832304 767.046076) scale(0.1 -0.1)">
       <defs>
        <path id="DejaVuSans-36" d="M 2113 2584 
Q 1688 2584 1439 2293 
Q 1191 2003 1191 1497 
Q 1191 994 1439 701 
Q 1688 409 2113 409 
Q 2538 409 2786 701 
Q 3034 994 3034 1497 
Q 3034 2003 2786 2293 
Q 2538 2584 2113 2584 
z
M 3366 4563 
L 3366 3988 
Q 3128 4100 2886 4159 
Q 2644 4219 2406 4219 
Q 1781 4219 1451 3797 
Q 1122 3375 1075 2522 
Q 1259 2794 1537 2939 
Q 1816 3084 2150 3084 
Q 2853 3084 3261 2657 
Q 3669 2231 3669 1497 
Q 3669 778 3244 343 
Q 2819 -91 2113 -91 
Q 1303 -91 875 529 
Q 447 1150 447 2328 
Q 447 3434 972 4092 
Q 1497 4750 2381 4750 
Q 2619 4750 2861 4703 
Q 3103 4656 3366 4563 
z
" transform="scale(0.015625)"/>
       </defs>
       <use xlink:href="#DejaVuSans-36"/>
       <use xlink:href="#DejaVuSans-30" x="63.623047"/>
       <use xlink:href="#DejaVuSans-30" x="127.246094"/>
      </g>
     </g>
    </g>
    <g id="ytick_3">
     <g id="line2d_9">
      <g>
       <use xlink:href="#m5c5c4f0df1" x="444.919804" y="650.690434" style="stroke: #000000; stroke-width: 0.8"/>
      </g>
     </g>
     <g id="text_9">
      <!-- 700 -->
      <g transform="translate(418.832304 654.489653) scale(0.1 -0.1)">
       <defs>
        <path id="DejaVuSans-37" d="M 525 4666 
L 3525 4666 
L 3525 4397 
L 1831 0 
L 1172 0 
L 2766 4134 
L 525 4134 
L 525 4666 
z
" transform="scale(0.015625)"/>
       </defs>
       <use xlink:href="#DejaVuSans-37"/>
       <use xlink:href="#DejaVuSans-30" x="63.623047"/>
       <use xlink:href="#DejaVuSans-30" x="127.246094"/>
      </g>
     </g>
    </g>
    <g id="ytick_4">
     <g id="line2d_10">
      <g>
       <use xlink:href="#m5c5c4f0df1" x="444.919804" y="538.134011" style="stroke: #000000; stroke-width: 0.8"/>
      </g>
     </g>
     <g id="text_10">
      <!-- 800 -->
      <g transform="translate(418.832304 541.93323) scale(0.1 -0.1)">
       <defs>
        <path id="DejaVuSans-38" d="M 2034 2216 
Q 1584 2216 1326 1975 
Q 1069 1734 1069 1313 
Q 1069 891 1326 650 
Q 1584 409 2034 409 
Q 2484 409 2743 651 
Q 3003 894 3003 1313 
Q 3003 1734 2745 1975 
Q 2488 2216 2034 2216 
z
M 1403 2484 
Q 997 2584 770 2862 
Q 544 3141 544 3541 
Q 544 4100 942 4425 
Q 1341 4750 2034 4750 
Q 2731 4750 3128 4425 
Q 3525 4100 3525 3541 
Q 3525 3141 3298 2862 
Q 3072 2584 2669 2484 
Q 3125 2378 3379 2068 
Q 3634 1759 3634 1313 
Q 3634 634 3220 271 
Q 2806 -91 2034 -91 
Q 1263 -91 848 271 
Q 434 634 434 1313 
Q 434 1759 690 2068 
Q 947 2378 1403 2484 
z
M 1172 3481 
Q 1172 3119 1398 2916 
Q 1625 2713 2034 2713 
Q 2441 2713 2670 2916 
Q 2900 3119 2900 3481 
Q 2900 3844 2670 4047 
Q 2441 4250 2034 4250 
Q 1625 4250 1398 4047 
Q 1172 3844 1172 3481 
z
" transform="scale(0.015625)"/>
       </defs>
       <use xlink:href="#DejaVuSans-38"/>
       <use xlink:href="#DejaVuSans-30" x="63.623047"/>
       <use xlink:href="#DejaVuSans-30" x="127.246094"/>
      </g>
     </g>
    </g>
    <g id="ytick_5">
     <g id="line2d_11">
      <g>
       <use xlink:href="#m5c5c4f0df1" x="444.919804" y="425.577587" style="stroke: #000000; stroke-width: 0.8"/>
      </g>
     </g>
     <g id="text_11">
      <!-- 900 -->
      <g transform="translate(418.832304 429.376806) scale(0.1 -0.1)">
       <defs>
        <path id="DejaVuSans-39" d="M 703 97 
L 703 672 
Q 941 559 1184 500 
Q 1428 441 1663 441 
Q 2288 441 2617 861 
Q 2947 1281 2994 2138 
Q 2813 1869 2534 1725 
Q 2256 1581 1919 1581 
Q 1219 1581 811 2004 
Q 403 2428 403 3163 
Q 403 3881 828 4315 
Q 1253 4750 1959 4750 
Q 2769 4750 3195 4129 
Q 3622 3509 3622 2328 
Q 3622 1225 3098 567 
Q 2575 -91 1691 -91 
Q 1453 -91 1209 -44 
Q 966 3 703 97 
z
M 1959 2075 
Q 2384 2075 2632 2365 
Q 2881 2656 2881 3163 
Q 2881 3666 2632 3958 
Q 2384 4250 1959 4250 
Q 1534 4250 1286 3958 
Q 1038 3666 1038 3163 
Q 1038 2656 1286 2365 
Q 1534 2075 1959 2075 
z
" transform="scale(0.015625)"/>
       </defs>
       <use xlink:href="#DejaVuSans-39"/>
       <use xlink:href="#DejaVuSans-30" x="63.623047"/>
       <use xlink:href="#DejaVuSans-30" x="127.246094"/>
      </g>
     </g>
    </g>
    <g id="ytick_6">
     <g id="line2d_12">
      <g>
       <use xlink:href="#m5c5c4f0df1" x="444.919804" y="313.021164" style="stroke: #000000; stroke-width: 0.8"/>
      </g>
     </g>
     <g id="text_12">
      <!-- 1000 -->
      <g transform="translate(412.469804 316.820383) scale(0.1 -0.1)">
       <use xlink:href="#DejaVuSans-31"/>
       <use xlink:href="#DejaVuSans-30" x="63.623047"/>
       <use xlink:href="#DejaVuSans-30" x="127.246094"/>
       <use xlink:href="#DejaVuSans-30" x="190.869141"/>
      </g>
     </g>
    </g>
    <g id="ytick_7">
     <g id="line2d_13">
      <g>
       <use xlink:href="#m5c5c4f0df1" x="444.919804" y="200.46474" style="stroke: #000000; stroke-width: 0.8"/>
      </g>
     </g>
     <g id="text_13">
      <!-- 1100 -->
      <g transform="translate(412.469804 204.263959) scale(0.1 -0.1)">
       <use xlink:href="#DejaVuSans-31"/>
       <use xlink:href="#DejaVuSans-31" x="63.623047"/>
       <use xlink:href="#DejaVuSans-30" x="127.246094"/>
       <use xlink:href="#DejaVuSans-30" x="190.869141"/>
      </g>
     </g>
    </g>
   </g>
   <g id="LineCollection_1">
    <path d="M 631.237005 904.74493 
L 602.900148 880.009851 
L 578.549404 857.402796 
L 557.841216 836.719364 
L 540.557962 817.869817 
L 526.485761 800.776079 
L 515.411372 785.374771 
L 507.115558 771.619509 
L 501.360875 759.478794 
L 497.874048 748.921115 
L 496.333262 739.875565 
L 496.390114 732.170615 
L 497.753384 725.501753 
L 500.286027 719.502617 
L 504.000559 713.888438 
L 508.947415 708.530351 
L 515.120365 703.414096 
L 522.440793 698.565235 
L 530.784482 694.004135 
L 540.009633 689.732672 
L 549.973684 685.73575 
L 560.541055 681.986548 
L 571.58594 678.451321 
L 582.992885 675.092867 
L 594.656502 671.872827 
L 618.379251 665.696958 
L 642.125597 659.62787 
L 665.181816 653.458415 
L 676.599755 650.186296 
L 687.578423 646.842219 
L 698.235051 643.361391 
L 708.538844 639.724179 
L 718.46415 635.913148 
L 727.989981 631.9131 
L 737.099512 627.711188 
L 745.779594 623.297123 
L 754.020315 618.663491 
L 761.814686 613.806151 
L 769.158508 608.724676 
L 776.050471 603.422738 
L 782.4925 597.908335 
L 788.490279 592.193736 
L 794.053837 586.295075 
L 799.198026 580.231616 
L 803.942748 574.024769 
L 808.312837 567.697026 
L 812.337594 561.270985 
L 816.050058 554.768591 
L 819.486129 548.210641 
L 822.683663 541.616541 
L 825.681638 535.004258 
L 831.236173 521.790156 
L 844.351391 489.346742 
L 847.119287 483.053219 
L 850.007143 476.845012 
L 853.042604 470.725345 
L 856.25149 464.695282 
L 859.657799 458.753752 
L 863.28367 452.897686 
L 867.149223 447.122246 
L 871.272281 441.421103 
L 875.667944 435.786711 
L 880.348044 430.210503 
L 885.320524 424.682966 
L 890.588806 419.193572 
L 896.151194 413.730546 
L 902.000366 408.28052 
L 908.122971 402.828082 
L 914.49933 397.355273 
L 927.901779 386.260688 
L 941.965825 374.739887 
L 949.116846 368.735202 
L 956.26292 362.510073 
L 963.333299 356.009253 
L 970.246639 349.169149 
L 976.908309 341.917746 
L 983.206583 334.175989 
L 989.008147 325.861913 
L 994.154653 316.898772 
L 998.463825 307.226793 
L 1001.738998 296.814265 
L 1003.786947 285.659556 
L 1004.435881 273.77762 
L 1003.541628 261.175232 
L 1000.977843 247.829065 
L 996.618124 233.677659 
L 990.321114 218.626687 
L 981.92351 202.559772 
L 971.239565 185.348319 
L 958.472139 167.4 
L 958.472139 167.4 
" clip-path="url(#p546ef4d10c)" style="fill: none; stroke: #1f77b4; stroke-width: 1.5"/>
    <path d="M 623.095054 914.072465 
L 594.615259 889.212617 
L 569.959774 866.322642 
L 548.89922 845.287265 
L 531.209032 825.993906 
L 516.669748 808.332794 
L 505.067268 792.197063 
L 496.193105 777.482842 
L 489.844603 764.089341 
L 485.825143 751.918917 
L 483.944328 740.877144 
L 484.018146 730.87287 
L 485.869118 721.818262 
L 489.326424 713.628852 
L 494.226015 706.223564 
L 500.4107 699.524747 
L 507.730226 693.458189 
L 516.041334 687.953127 
L 525.207796 682.942257 
L 535.100447 678.361725 
L 545.597188 674.151123 
L 556.582982 670.253468 
L 567.949834 666.615187 
L 579.596753 663.186079 
L 591.429701 659.919291 
L 603.361531 656.771268 
L 615.311908 653.701715 
L 627.207221 650.673538 
L 638.980472 647.652794 
L 650.571169 644.608621 
L 661.925192 641.513179 
L 672.994656 638.34157 
L 683.73776 635.071765 
L 694.118623 631.684521 
L 704.107116 628.163294 
L 713.678676 624.49415 
L 722.814116 620.66567 
L 731.499422 616.668848 
L 739.725547 612.496994 
L 747.488186 608.145622 
L 754.787553 603.612346 
L 761.628146 598.89676 
L 768.018504 594.000329 
L 773.970957 588.926265 
L 779.501372 583.679405 
L 784.628888 578.266089 
L 789.375651 572.694029 
L 793.766537 566.972181 
L 797.828875 561.110615 
L 801.592164 555.120375 
L 805.087784 549.013348 
L 808.348703 542.802127 
L 811.409183 536.499865 
L 814.304482 530.120141 
L 817.070547 523.676815 
L 819.743717 517.183885 
L 822.36041 510.655343 
L 824.95682 504.105028 
L 827.568605 497.546485 
L 830.230577 490.992815 
L 832.976388 484.456528 
L 835.838227 477.949401 
L 838.846499 471.482327 
L 842.029521 465.065171 
L 845.41321 458.70662 
L 849.020776 452.414045 
L 852.872412 446.193349 
L 856.984996 440.048825 
L 861.371782 433.983014 
L 866.042105 427.996562 
L 871.001082 422.088078 
L 876.249324 416.253998 
L 881.782643 410.488443 
L 887.59177 404.783086 
L 893.662075 399.127016 
L 899.973294 393.506609 
L 906.499259 387.905395 
L 913.207635 382.30393 
L 920.059663 376.679676 
L 927.009913 371.006873 
L 934.006036 365.256425 
L 940.988534 359.39578 
L 947.890526 353.388819 
L 954.637534 347.195744 
L 961.147268 340.772975 
L 967.329427 334.073047 
L 973.085503 327.044509 
L 978.308598 319.631831 
L 982.883254 311.775312 
L 986.685286 303.410998 
L 989.581634 294.470595 
L 991.430218 284.881396 
L 992.079813 274.566205 
L 991.369929 263.443274 
L 989.130707 251.426236 
L 985.182826 238.424051 
L 979.337426 224.340957 
L 971.39604 209.076416 
L 961.150544 192.525082 
L 948.383118 174.576763 
" clip-path="url(#p546ef4d10c)" style="fill: none; stroke: #8c564b; stroke-width: 1.5"/>
    <path d="M 614.953103 923.4 
L 586.191324 898.286293 
L 561.210177 875.082712 
L 539.773448 853.654736 
L 521.650234 833.863064 
L 506.617471 815.560934 
L 494.465004 798.5913 
L 485.005102 782.785941 
L 478.08798 767.972137 
L 473.810231 754.908261 
L 473.619737 753.997941 
L 471.603385 741.874844 
L 471.563458 740.78579 
L 471.704496 729.581242 
L 471.887802 728.393146 
L 474.04294 718.152775 
L 474.462715 717.002845 
L 478.413696 707.780208 
L 479.000717 706.797012 
L 484.483125 698.583513 
L 485.129048 697.824786 
L 492.509873 689.992108 
L 500.893075 683.135997 
L 510.102538 677.089197 
L 520.005598 671.706982 
L 530.490948 666.870563 
L 541.457291 662.482552 
L 552.808655 658.461576 
L 564.45295 654.738063 
L 576.301863 651.251341 
L 588.271197 647.947736 
L 612.257457 641.70319 
L 635.869353 635.668785 
L 658.591626 629.588919 
L 669.486756 626.46726 
L 680.014509 623.263 
L 690.139527 619.959237 
L 699.832252 616.542277 
L 709.068983 613.001486 
L 717.831969 609.329094 
L 726.109493 605.519926 
L 733.895962 601.571042 
L 741.191933 597.481262 
L 748.004049 593.250593 
L 754.3448 588.879575 
L 760.232056 584.368632 
L 765.688346 579.717514 
L 770.7399 574.924962 
L 775.415564 569.988684 
L 779.745716 564.905669 
L 783.761362 559.672803 
L 787.493528 554.287643 
L 790.972995 548.74918 
L 794.230331 543.058447 
L 797.296133 537.218874 
L 800.201331 531.236377 
L 802.97747 525.119217 
L 808.272801 512.523871 
L 821.561494 479.661274 
L 824.612145 472.727394 
L 827.754798 465.98065 
L 831.099552 459.24881 
L 834.672006 452.548633 
L 838.49402 445.896248 
L 842.58319 439.306682 
L 846.952461 432.79331 
L 851.609876 426.367276 
L 856.558476 420.036973 
L 861.796297 413.807606 
L 867.316429 407.68092 
L 873.107059 401.655067 
L 879.151465 395.724635 
L 885.427913 389.880782 
L 891.909464 384.111455 
L 898.563684 378.401663 
L 912.2308 367.087847 
L 926.09503 355.732019 
L 932.943838 349.983584 
L 939.63873 344.156867 
L 946.100679 338.225447 
L 952.244806 332.163402 
L 957.98216 325.945532 
L 963.222611 319.546605 
L 967.878771 312.938528 
L 971.869911 306.08414 
L 975.123224 298.926985 
L 977.568413 291.379214 
L 979.123184 283.314116 
L 979.673751 274.571439 
L 979.061427 264.977147 
L 977.084514 254.367822 
L 973.513246 242.605997 
L 968.10704 229.581036 
L 960.625497 215.200381 
L 950.83173 199.378805 
L 938.294097 181.753526 
L 938.294097 181.753526 
" clip-path="url(#p546ef4d10c)" style="fill: none; stroke: #17becf; stroke-width: 1.5"/>
   </g>
   <g id="patch_3">
    <path d="M 444.919804 961.2 
L 444.919804 129.6 
" style="fill: none; stroke: #000000; stroke-width: 0.8; stroke-linejoin: miter; stroke-linecap: square"/>
   </g>
   <g id="patch_4">
    <path d="M 1031.080196 961.2 
L 1031.080196 129.6 
" style="fill: none; stroke: #000000; stroke-width: 0.8; stroke-linejoin: miter; stroke-linecap: square"/>
   </g>
   <g id="patch_5">
    <path d="M 444.919804 961.2 
L 1031.080196 961.2 
" style="fill: none; stroke: #000000; stroke-width: 0.8; stroke-linejoin: miter; stroke-linecap: square"/>
   </g>
   <g id="patch_6">
    <path d="M 444.919804 129.6 
L 1031.080196 129.6 
" style="fill: none; stroke: #000000; stroke-width: 0.8; stroke-linejoin: miter; stroke-linecap: square"/>
   </g>
  </g>
 </g>
 <defs>
  <clipPath id="p546ef4d10c">
   <rect x="444.919804" y="129.6" width="586.160392" height="831.6"/>
  </clipPath>
 </defs>
</svg>
