<?xml version="1.0" encoding="utf-8" standalone="no"?>
<!DOCTYPE svg PUBLIC "-//W3C//DTD SVG 1.1//EN"
  "http://www.w3.org/Graphics/SVG/1.1/DTD/svg11.dtd">
<svg xmlns:xlink="http://www.w3.org/1999/xlink" width="1440pt" height="1080pt" viewBox="0 0 1440 1080" xmlns="http://www.w3.org/2000/svg" version="1.1">
 <metadata>
  <rdf:RDF xmlns:dc="http://purl.org/dc/elements/1.1/" xmlns:cc="http://creativecommons.org/ns#" xmlns:rdf="http://www.w3.org/1999/02/22-rdf-syntax-ns#">
   <cc:Work>
    <dc:type rdf:resource="http://purl.org/dc/dcmitype/StillImage"/>
    <dc:date>2023-12-11T12:06:44.202640</dc:date>
    <dc:format>image/svg+xml</dc:format>
    <dc:creator>
     <cc:Agent>
      <dc:title>Matplotlib v3.7.1, https://matplotlib.org/</dc:title>
     </cc:Agent>
    </dc:creator>
   </cc:Work>
  </rdf:RDF>
 </metadata>
 <defs>
  <style type="text/css">*{stroke-linejoin: round; stroke-linecap: butt}</style>
 </defs>
 <g id="figure_1">
  <g id="patch_1">
   <path d="M 0 1080 
L 1440 1080 
L 1440 0 
L 0 0 
z
" style="fill: #ffffff"/>
  </g>
  <g id="axes_1">
   <g id="patch_2">
    <path d="M 427.561471 961.2 
L 1048.438529 961.2 
L 1048.438529 129.6 
L 427.561471 129.6 
z
" style="fill: #ffffff"/>
   </g>
   <g id="matplotlib.axis_1">
    <g id="xtick_1">
     <g id="line2d_1">
      <defs>
       <path id="m0bfe4dcdfc" d="M 0 0 
L 0 3.5 
" style="stroke: #000000; stroke-width: 0.8"/>
      </defs>
      <g>
       <use xlink:href="#m0bfe4dcdfc" x="453.549195" y="961.2" style="stroke: #000000; stroke-width: 0.8"/>
      </g>
     </g>
     <g id="text_1">
      <!-- 800 -->
      <g transform="translate(444.005445 975.798437) scale(0.1 -0.1)">
       <defs>
        <path id="DejaVuSans-38" d="M 2034 2216 
Q 1584 2216 1326 1975 
Q 1069 1734 1069 1313 
Q 1069 891 1326 650 
Q 1584 409 2034 409 
Q 2484 409 2743 651 
Q 3003 894 3003 1313 
Q 3003 1734 2745 1975 
Q 2488 2216 2034 2216 
z
M 1403 2484 
Q 997 2584 770 2862 
Q 544 3141 544 3541 
Q 544 4100 942 4425 
Q 1341 4750 2034 4750 
Q 2731 4750 3128 4425 
Q 3525 4100 3525 3541 
Q 3525 3141 3298 2862 
Q 3072 2584 2669 2484 
Q 3125 2378 3379 2068 
Q 3634 1759 3634 1313 
Q 3634 634 3220 271 
Q 2806 -91 2034 -91 
Q 1263 -91 848 271 
Q 434 634 434 1313 
Q 434 1759 690 2068 
Q 947 2378 1403 2484 
z
M 1172 3481 
Q 1172 3119 1398 2916 
Q 1625 2713 2034 2713 
Q 2441 2713 2670 2916 
Q 2900 3119 2900 3481 
Q 2900 3844 2670 4047 
Q 2441 4250 2034 4250 
Q 1625 4250 1398 4047 
Q 1172 3844 1172 3481 
z
" transform="scale(0.015625)"/>
        <path id="DejaVuSans-30" d="M 2034 4250 
Q 1547 4250 1301 3770 
Q 1056 3291 1056 2328 
Q 1056 1369 1301 889 
Q 1547 409 2034 409 
Q 2525 409 2770 889 
Q 3016 1369 3016 2328 
Q 3016 3291 2770 3770 
Q 2525 4250 2034 4250 
z
M 2034 4750 
Q 2819 4750 3233 4129 
Q 3647 3509 3647 2328 
Q 3647 1150 3233 529 
Q 2819 -91 2034 -91 
Q 1250 -91 836 529 
Q 422 1150 422 2328 
Q 422 3509 836 4129 
Q 1250 4750 2034 4750 
z
" transform="scale(0.015625)"/>
       </defs>
       <use xlink:href="#DejaVuSans-38"/>
       <use xlink:href="#DejaVuSans-30" x="63.623047"/>
       <use xlink:href="#DejaVuSans-30" x="127.246094"/>
      </g>
     </g>
    </g>
    <g id="xtick_2">
     <g id="line2d_2">
      <g>
       <use xlink:href="#m0bfe4dcdfc" x="579.274313" y="961.2" style="stroke: #000000; stroke-width: 0.8"/>
      </g>
     </g>
     <g id="text_2">
      <!-- 900 -->
      <g transform="translate(569.730563 975.798437) scale(0.1 -0.1)">
       <defs>
        <path id="DejaVuSans-39" d="M 703 97 
L 703 672 
Q 941 559 1184 500 
Q 1428 441 1663 441 
Q 2288 441 2617 861 
Q 2947 1281 2994 2138 
Q 2813 1869 2534 1725 
Q 2256 1581 1919 1581 
Q 1219 1581 811 2004 
Q 403 2428 403 3163 
Q 403 3881 828 4315 
Q 1253 4750 1959 4750 
Q 2769 4750 3195 4129 
Q 3622 3509 3622 2328 
Q 3622 1225 3098 567 
Q 2575 -91 1691 -91 
Q 1453 -91 1209 -44 
Q 966 3 703 97 
z
M 1959 2075 
Q 2384 2075 2632 2365 
Q 2881 2656 2881 3163 
Q 2881 3666 2632 3958 
Q 2384 4250 1959 4250 
Q 1534 4250 1286 3958 
Q 1038 3666 1038 3163 
Q 1038 2656 1286 2365 
Q 1534 2075 1959 2075 
z
" transform="scale(0.015625)"/>
       </defs>
       <use xlink:href="#DejaVuSans-39"/>
       <use xlink:href="#DejaVuSans-30" x="63.623047"/>
       <use xlink:href="#DejaVuSans-30" x="127.246094"/>
      </g>
     </g>
    </g>
    <g id="xtick_3">
     <g id="line2d_3">
      <g>
       <use xlink:href="#m0bfe4dcdfc" x="704.999431" y="961.2" style="stroke: #000000; stroke-width: 0.8"/>
      </g>
     </g>
     <g id="text_3">
      <!-- 1000 -->
      <g transform="translate(692.274431 975.798437) scale(0.1 -0.1)">
       <defs>
        <path id="DejaVuSans-31" d="M 794 531 
L 1825 531 
L 1825 4091 
L 703 3866 
L 703 4441 
L 1819 4666 
L 2450 4666 
L 2450 531 
L 3481 531 
L 3481 0 
L 794 0 
L 794 531 
z
" transform="scale(0.015625)"/>
       </defs>
       <use xlink:href="#DejaVuSans-31"/>
       <use xlink:href="#DejaVuSans-30" x="63.623047"/>
       <use xlink:href="#DejaVuSans-30" x="127.246094"/>
       <use xlink:href="#DejaVuSans-30" x="190.869141"/>
      </g>
     </g>
    </g>
    <g id="xtick_4">
     <g id="line2d_4">
      <g>
       <use xlink:href="#m0bfe4dcdfc" x="830.72455" y="961.2" style="stroke: #000000; stroke-width: 0.8"/>
      </g>
     </g>
     <g id="text_4">
      <!-- 1100 -->
      <g transform="translate(817.99955 975.798437) scale(0.1 -0.1)">
       <use xlink:href="#DejaVuSans-31"/>
       <use xlink:href="#DejaVuSans-31" x="63.623047"/>
       <use xlink:href="#DejaVuSans-30" x="127.246094"/>
       <use xlink:href="#DejaVuSans-30" x="190.869141"/>
      </g>
     </g>
    </g>
    <g id="xtick_5">
     <g id="line2d_5">
      <g>
       <use xlink:href="#m0bfe4dcdfc" x="956.449668" y="961.2" style="stroke: #000000; stroke-width: 0.8"/>
      </g>
     </g>
     <g id="text_5">
      <!-- 1200 -->
      <g transform="translate(943.724668 975.798437) scale(0.1 -0.1)">
       <defs>
        <path id="DejaVuSans-32" d="M 1228 531 
L 3431 531 
L 3431 0 
L 469 0 
L 469 531 
Q 828 903 1448 1529 
Q 2069 2156 2228 2338 
Q 2531 2678 2651 2914 
Q 2772 3150 2772 3378 
Q 2772 3750 2511 3984 
Q 2250 4219 1831 4219 
Q 1534 4219 1204 4116 
Q 875 4013 500 3803 
L 500 4441 
Q 881 4594 1212 4672 
Q 1544 4750 1819 4750 
Q 2544 4750 2975 4387 
Q 3406 4025 3406 3419 
Q 3406 3131 3298 2873 
Q 3191 2616 2906 2266 
Q 2828 2175 2409 1742 
Q 1991 1309 1228 531 
z
" transform="scale(0.015625)"/>
       </defs>
       <use xlink:href="#DejaVuSans-31"/>
       <use xlink:href="#DejaVuSans-32" x="63.623047"/>
       <use xlink:href="#DejaVuSans-30" x="127.246094"/>
       <use xlink:href="#DejaVuSans-30" x="190.869141"/>
      </g>
     </g>
    </g>
   </g>
   <g id="matplotlib.axis_2">
    <g id="ytick_1">
     <g id="line2d_6">
      <defs>
       <path id="maf0ff9996f" d="M 0 0 
L -3.5 0 
" style="stroke: #000000; stroke-width: 0.8"/>
      </defs>
      <g>
       <use xlink:href="#maf0ff9996f" x="427.561471" y="863.200729" style="stroke: #000000; stroke-width: 0.8"/>
      </g>
     </g>
     <g id="text_6">
      <!-- 400 -->
      <g transform="translate(401.473971 866.999947) scale(0.1 -0.1)">
       <defs>
        <path id="DejaVuSans-34" d="M 2419 4116 
L 825 1625 
L 2419 1625 
L 2419 4116 
z
M 2253 4666 
L 3047 4666 
L 3047 1625 
L 3713 1625 
L 3713 1100 
L 3047 1100 
L 3047 0 
L 2419 0 
L 2419 1100 
L 313 1100 
L 313 1709 
L 2253 4666 
z
" transform="scale(0.015625)"/>
       </defs>
       <use xlink:href="#DejaVuSans-34"/>
       <use xlink:href="#DejaVuSans-30" x="63.623047"/>
       <use xlink:href="#DejaVuSans-30" x="127.246094"/>
      </g>
     </g>
    </g>
    <g id="ytick_2">
     <g id="line2d_7">
      <g>
       <use xlink:href="#maf0ff9996f" x="427.561471" y="737.47561" style="stroke: #000000; stroke-width: 0.8"/>
      </g>
     </g>
     <g id="text_7">
      <!-- 500 -->
      <g transform="translate(401.473971 741.274829) scale(0.1 -0.1)">
       <defs>
        <path id="DejaVuSans-35" d="M 691 4666 
L 3169 4666 
L 3169 4134 
L 1269 4134 
L 1269 2991 
Q 1406 3038 1543 3061 
Q 1681 3084 1819 3084 
Q 2600 3084 3056 2656 
Q 3513 2228 3513 1497 
Q 3513 744 3044 326 
Q 2575 -91 1722 -91 
Q 1428 -91 1123 -41 
Q 819 9 494 109 
L 494 744 
Q 775 591 1075 516 
Q 1375 441 1709 441 
Q 2250 441 2565 725 
Q 2881 1009 2881 1497 
Q 2881 1984 2565 2268 
Q 2250 2553 1709 2553 
Q 1456 2553 1204 2497 
Q 953 2441 691 2322 
L 691 4666 
z
" transform="scale(0.015625)"/>
       </defs>
       <use xlink:href="#DejaVuSans-35"/>
       <use xlink:href="#DejaVuSans-30" x="63.623047"/>
       <use xlink:href="#DejaVuSans-30" x="127.246094"/>
      </g>
     </g>
    </g>
    <g id="ytick_3">
     <g id="line2d_8">
      <g>
       <use xlink:href="#maf0ff9996f" x="427.561471" y="611.750492" style="stroke: #000000; stroke-width: 0.8"/>
      </g>
     </g>
     <g id="text_8">
      <!-- 600 -->
      <g transform="translate(401.473971 615.54971) scale(0.1 -0.1)">
       <defs>
        <path id="DejaVuSans-36" d="M 2113 2584 
Q 1688 2584 1439 2293 
Q 1191 2003 1191 1497 
Q 1191 994 1439 701 
Q 1688 409 2113 409 
Q 2538 409 2786 701 
Q 3034 994 3034 1497 
Q 3034 2003 2786 2293 
Q 2538 2584 2113 2584 
z
M 3366 4563 
L 3366 3988 
Q 3128 4100 2886 4159 
Q 2644 4219 2406 4219 
Q 1781 4219 1451 3797 
Q 1122 3375 1075 2522 
Q 1259 2794 1537 2939 
Q 1816 3084 2150 3084 
Q 2853 3084 3261 2657 
Q 3669 2231 3669 1497 
Q 3669 778 3244 343 
Q 2819 -91 2113 -91 
Q 1303 -91 875 529 
Q 447 1150 447 2328 
Q 447 3434 972 4092 
Q 1497 4750 2381 4750 
Q 2619 4750 2861 4703 
Q 3103 4656 3366 4563 
z
" transform="scale(0.015625)"/>
       </defs>
       <use xlink:href="#DejaVuSans-36"/>
       <use xlink:href="#DejaVuSans-30" x="63.623047"/>
       <use xlink:href="#DejaVuSans-30" x="127.246094"/>
      </g>
     </g>
    </g>
    <g id="ytick_4">
     <g id="line2d_9">
      <g>
       <use xlink:href="#maf0ff9996f" x="427.561471" y="486.025373" style="stroke: #000000; stroke-width: 0.8"/>
      </g>
     </g>
     <g id="text_9">
      <!-- 700 -->
      <g transform="translate(401.473971 489.824592) scale(0.1 -0.1)">
       <defs>
        <path id="DejaVuSans-37" d="M 525 4666 
L 3525 4666 
L 3525 4397 
L 1831 0 
L 1172 0 
L 2766 4134 
L 525 4134 
L 525 4666 
z
" transform="scale(0.015625)"/>
       </defs>
       <use xlink:href="#DejaVuSans-37"/>
       <use xlink:href="#DejaVuSans-30" x="63.623047"/>
       <use xlink:href="#DejaVuSans-30" x="127.246094"/>
      </g>
     </g>
    </g>
    <g id="ytick_5">
     <g id="line2d_10">
      <g>
       <use xlink:href="#maf0ff9996f" x="427.561471" y="360.300255" style="stroke: #000000; stroke-width: 0.8"/>
      </g>
     </g>
     <g id="text_10">
      <!-- 800 -->
      <g transform="translate(401.473971 364.099474) scale(0.1 -0.1)">
       <use xlink:href="#DejaVuSans-38"/>
       <use xlink:href="#DejaVuSans-30" x="63.623047"/>
       <use xlink:href="#DejaVuSans-30" x="127.246094"/>
      </g>
     </g>
    </g>
    <g id="ytick_6">
     <g id="line2d_11">
      <g>
       <use xlink:href="#maf0ff9996f" x="427.561471" y="234.575136" style="stroke: #000000; stroke-width: 0.8"/>
      </g>
     </g>
     <g id="text_11">
      <!-- 900 -->
      <g transform="translate(401.473971 238.374355) scale(0.1 -0.1)">
       <use xlink:href="#DejaVuSans-39"/>
       <use xlink:href="#DejaVuSans-30" x="63.623047"/>
       <use xlink:href="#DejaVuSans-30" x="127.246094"/>
      </g>
     </g>
    </g>
   </g>
   <g id="LineCollection_1">
    <path d="M 455.783156 183.568661 
L 459.410512 198.173171 
L 463.679101 212.197123 
L 468.59998 225.608915 
L 474.163179 238.377736 
L 480.337389 250.476978 
L 487.071619 261.888463 
L 494.298833 272.606269 
L 501.94097 282.639069 
L 509.914266 292.010394 
L 518.133881 300.756969 
L 526.517178 308.925732 
L 534.985564 316.570355 
L 543.465125 323.747879 
L 551.886516 330.515875 
L 560.184522 336.930221 
L 598.084563 365.602497 
L 604.567608 370.909601 
L 610.579732 376.130545 
L 616.096471 381.283561 
L 621.104368 386.384901 
L 625.602273 391.45181 
L 629.601561 396.50623 
L 633.124609 401.578666 
L 636.20121 406.711197 
L 638.863197 411.958428 
L 641.138394 417.3855 
L 643.045526 423.063142 
L 644.591586 429.060866 
L 645.772281 435.440119 
L 646.5751 442.24909 
L 646.983733 449.520097 
L 646.98253 457.269497 
L 646.56005 465.49941 
L 645.711352 474.200348 
L 644.439079 483.35401 
L 642.753652 492.935771 
L 640.672881 502.91669 
L 638.221281 513.265006 
L 635.429271 523.947216 
L 632.332374 534.928823 
L 628.970466 546.174864 
L 621.628927 569.320363 
L 601.949088 629.609016 
L 598.221362 641.834931 
L 594.698335 654.054131 
L 591.439946 666.249221 
L 588.508343 678.407392 
L 585.968946 690.520877 
L 583.892056 702.587 
L 582.355079 714.607335 
L 581.445253 726.585291 
L 581.262321 738.521115 
L 581.919772 750.403294 
L 583.027081 759.197415 
L 583.542084 762.196071 
L 585.36496 770.546909 
L 586.254473 773.825044 
L 588.825358 781.714328 
L 590.162775 785.166786 
L 593.509877 792.579249 
L 595.326156 796.051886 
L 599.473121 802.975503 
L 601.733685 806.288535 
L 606.699262 812.714756 
L 609.299927 815.702452 
L 615.097656 821.626425 
L 617.88654 824.17542 
L 624.524437 829.596217 
L 627.339835 831.663394 
L 634.820092 836.584222 
L 637.52481 838.189111 
L 645.843507 842.617521 
L 648.342418 843.819494 
L 659.729799 848.641875 
L 671.650778 852.747212 
L 684.083987 856.221537 
L 697.01271 859.1434 
L 710.417646 861.584566 
L 724.272318 863.612025 
L 738.540362 865.290223 
L 753.174003 866.683022 
L 768.113171 867.855241 
L 798.602828 869.808003 
L 829.434042 871.729053 
L 844.634476 872.867133 
L 859.498768 874.22939 
L 873.863172 875.893866 
L 887.542993 877.932467 
L 900.330971 880.403706 
L 911.998073 883.341171 
L 922.301487 886.73673 
L 931.009916 890.520797 
L 937.961828 894.553842 
L 943.16373 898.668561 
L 946.878189 902.819421 
L 949.553663 907.31661 
L 951.507547 912.916367 
L 953.030549 923.4 
L 953.030549 923.4 
" clip-path="url(#p23371ba538)" style="fill: none; stroke: #1f77b4; stroke-width: 1.5"/>
    <path d="M 488.752228 175.484331 
L 491.920518 188.405079 
L 495.595335 200.635544 
L 499.781033 212.190344 
L 504.471739 223.090247 
L 509.652474 233.361433 
L 515.300242 243.034791 
L 521.385046 252.145253 
L 527.870871 260.731162 
L 534.716599 268.833672 
L 541.876891 276.496186 
L 549.303008 283.763815 
L 556.94359 290.682883 
L 564.745389 297.30045 
L 572.653948 303.663876 
L 580.614251 309.820402 
L 588.571314 315.816777 
L 596.470739 321.698895 
L 604.25923 327.511475 
L 611.885063 333.297755 
L 619.298516 339.099226 
L 626.452268 344.955378 
L 633.301745 350.903482 
L 639.805447 356.97839 
L 645.925226 363.21236 
L 651.626535 369.634907 
L 656.878639 376.272674 
L 661.654801 383.149326 
L 665.932425 390.285459 
L 669.693177 397.698545 
L 672.923071 405.402876 
L 675.61253 413.409548 
L 677.756414 421.726447 
L 679.354022 430.358262 
L 680.409075 439.306515 
L 680.929663 448.569601 
L 680.928176 458.142855 
L 680.421208 468.018623 
L 679.429437 478.186356 
L 677.977492 488.632712 
L 676.09379 499.34168 
L 673.810359 510.294704 
L 671.162644 521.470831 
L 668.189289 532.846866 
L 664.931912 544.397534 
L 661.434856 556.095662 
L 657.744932 567.912358 
L 653.911144 579.81721 
L 649.984406 591.778486 
L 646.017242 603.763345 
L 642.063485 615.738056 
L 638.177951 627.668219 
L 634.416123 639.518997 
L 630.833813 651.255346 
L 627.486823 662.842258 
L 624.430606 674.245002 
L 621.719907 685.429368 
L 619.408419 696.361918 
L 617.548424 707.010233 
L 616.190436 717.343164 
L 615.382841 727.331084 
L 615.171546 736.946143 
L 615.599616 746.16251 
L 616.706924 754.956631 
L 618.5298 763.307469 
L 621.100685 771.196753 
L 624.447787 778.609216 
L 628.594752 785.532833 
L 633.560329 791.959053 
L 639.358059 797.883026 
L 645.995956 803.303823 
L 653.476213 808.224651 
L 661.79491 812.653061 
L 670.941739 816.601143 
L 680.899737 820.085723 
L 691.64504 823.128538 
L 703.146644 825.756412 
L 715.366189 828.001415 
L 728.257755 829.901012 
L 741.767682 831.498204 
L 755.834398 832.841651 
L 770.388283 833.985786 
L 785.351534 834.990912 
L 800.638073 835.923289 
L 816.15346 836.855202 
L 831.794843 837.865015 
L 847.450921 839.03721 
L 863.001944 840.462403 
L 878.319734 842.237353 
L 893.26773 844.464941 
L 907.701074 847.254141 
L 921.466709 850.719962 
L 934.403529 854.983376 
L 946.342537 860.171224 
L 957.107059 866.416097 
L 966.512972 873.8562 
L 974.368981 882.63519 
L 980.476921 892.90199 
L 984.632104 904.810585 
L 986.623697 918.519781 
" clip-path="url(#p23371ba538)" style="fill: none; stroke: #8c564b; stroke-width: 1.5"/>
    <path d="M 521.7213 167.4 
L 524.681706 179.472966 
L 527.833418 189.962444 
L 531.357003 199.68945 
L 535.244947 208.723958 
L 539.492321 217.144687 
L 544.098347 225.033775 
L 549.065818 232.471311 
L 554.398671 239.530922 
L 560.098581 246.277258 
L 566.161666 252.765606 
L 572.576154 259.043196 
L 579.321401 265.151477 
L 586.36816 271.128612 
L 593.679742 277.011694 
L 601.213639 282.838436 
L 640.218771 312.366118 
L 647.9548 318.688341 
L 648.709795 319.324955 
L 656.473325 326.096346 
L 664.029577 333.197985 
L 671.311575 340.676845 
L 678.247037 348.571551 
L 684.759337 356.908202 
L 690.770368 365.696535 
L 696.205389 374.927602 
L 700.999169 384.574103 
L 705.101983 394.593908 
L 708.483768 404.936187 
L 711.135296 415.54856 
L 713.066281 426.383383 
L 714.301375 437.401757 
L 714.875445 448.574873 
L 714.829319 459.883157 
L 714.206649 471.314089 
L 713.052006 482.859576 
L 711.410002 494.513474 
L 709.325106 506.269575 
L 706.841841 518.12013 
L 704.00515 530.054878 
L 700.860768 542.060473 
L 697.455534 554.120195 
L 693.837605 566.213862 
L 690.056565 578.31786 
L 682.210549 602.445809 
L 670.494327 638.05976 
L 666.828045 649.609541 
L 663.375397 660.921091 
L 660.190349 671.94738 
L 657.324951 682.638173 
L 654.82818 692.939872 
L 652.7444 702.795447 
L 651.111325 712.144662 
L 649.957392 720.924932 
L 649.298531 729.073397 
L 649.134645 736.531069 
L 649.446722 743.250109 
L 650.196526 749.204967 
L 651.331991 754.406682 
L 652.801583 758.916426 
L 654.577951 762.850356 
L 656.684132 766.366757 
L 659.208369 769.633507 
L 662.295057 772.787407 
L 666.113021 775.905323 
L 670.817187 778.999922 
L 676.521425 782.036539 
L 683.289451 784.957849 
L 691.139604 787.704835 
L 700.055585 790.22963 
L 709.997293 792.5011 
L 720.909163 794.505854 
L 732.72566 796.247038 
L 745.374515 797.742431 
L 758.778462 799.02258 
L 772.856116 800.129276 
L 802.689009 802.039516 
L 834.329321 804.013981 
L 850.548942 805.233092 
L 866.909269 806.742247 
L 883.323168 808.662336 
L 899.708489 811.135783 
L 915.989068 814.335677 
L 932.091661 818.479824 
L 945.02848 822.743238 
L 947.931963 823.849832 
L 959.870971 829.03768 
L 963.37671 830.808781 
L 974.141232 837.053654 
L 978.166438 839.792448 
L 987.572351 847.232551 
L 989.776328 849.135108 
L 991.809163 851.21953 
L 999.665172 859.99852 
L 1001.731482 862.545152 
L 1003.542409 865.279292 
L 1009.650349 875.546092 
L 1011.244203 878.560077 
L 1012.527679 881.718743 
L 1016.682861 893.627337 
L 1017.605011 896.741912 
L 1018.225251 899.930365 
L 1020.216844 913.639561 
L 1020.216844 913.639561 
" clip-path="url(#p23371ba538)" style="fill: none; stroke: #17becf; stroke-width: 1.5"/>
   </g>
   <g id="patch_3">
    <path d="M 427.561471 961.2 
L 427.561471 129.6 
" style="fill: none; stroke: #000000; stroke-width: 0.8; stroke-linejoin: miter; stroke-linecap: square"/>
   </g>
   <g id="patch_4">
    <path d="M 1048.438529 961.2 
L 1048.438529 129.6 
" style="fill: none; stroke: #000000; stroke-width: 0.8; stroke-linejoin: miter; stroke-linecap: square"/>
   </g>
   <g id="patch_5">
    <path d="M 427.561471 961.2 
L 1048.438529 961.2 
" style="fill: none; stroke: #000000; stroke-width: 0.8; stroke-linejoin: miter; stroke-linecap: square"/>
   </g>
   <g id="patch_6">
    <path d="M 427.561471 129.6 
L 1048.438529 129.6 
" style="fill: none; stroke: #000000; stroke-width: 0.8; stroke-linejoin: miter; stroke-linecap: square"/>
   </g>
  </g>
 </g>
 <defs>
  <clipPath id="p23371ba538">
   <rect x="427.561471" y="129.6" width="620.877058" height="831.6"/>
  </clipPath>
 </defs>
</svg>
