<?xml version="1.0" encoding="utf-8" standalone="no"?>
<!DOCTYPE svg PUBLIC "-//W3C//DTD SVG 1.1//EN"
  "http://www.w3.org/Graphics/SVG/1.1/DTD/svg11.dtd">
<svg xmlns:xlink="http://www.w3.org/1999/xlink" width="1440pt" height="1080pt" viewBox="0 0 1440 1080" xmlns="http://www.w3.org/2000/svg" version="1.1">
 <metadata>
  <rdf:RDF xmlns:dc="http://purl.org/dc/elements/1.1/" xmlns:cc="http://creativecommons.org/ns#" xmlns:rdf="http://www.w3.org/1999/02/22-rdf-syntax-ns#">
   <cc:Work>
    <dc:type rdf:resource="http://purl.org/dc/dcmitype/StillImage"/>
    <dc:date>2023-12-11T12:06:57.963689</dc:date>
    <dc:format>image/svg+xml</dc:format>
    <dc:creator>
     <cc:Agent>
      <dc:title>Matplotlib v3.7.1, https://matplotlib.org/</dc:title>
     </cc:Agent>
    </dc:creator>
   </cc:Work>
  </rdf:RDF>
 </metadata>
 <defs>
  <style type="text/css">*{stroke-linejoin: round; stroke-linecap: butt}</style>
 </defs>
 <g id="figure_1">
  <g id="patch_1">
   <path d="M 0 1080 
L 1440 1080 
L 1440 0 
L 0 0 
z
" style="fill: #ffffff"/>
  </g>
  <g id="axes_1">
   <g id="patch_2">
    <path d="M 591.863411 961.2 
L 884.136589 961.2 
L 884.136589 129.6 
L 591.863411 129.6 
z
" style="fill: #ffffff"/>
   </g>
   <g id="matplotlib.axis_1">
    <g id="xtick_1">
     <g id="line2d_1">
      <defs>
       <path id="m1af98bec7e" d="M 0 0 
L 0 3.5 
" style="stroke: #000000; stroke-width: 0.8"/>
      </defs>
      <g>
       <use xlink:href="#m1af98bec7e" x="608.514342" y="961.2" style="stroke: #000000; stroke-width: 0.8"/>
      </g>
     </g>
     <g id="text_1">
      <!-- 100 -->
      <g transform="translate(598.970592 975.798437) scale(0.1 -0.1)">
       <defs>
        <path id="DejaVuSans-31" d="M 794 531 
L 1825 531 
L 1825 4091 
L 703 3866 
L 703 4441 
L 1819 4666 
L 2450 4666 
L 2450 531 
L 3481 531 
L 3481 0 
L 794 0 
L 794 531 
z
" transform="scale(0.015625)"/>
        <path id="DejaVuSans-30" d="M 2034 4250 
Q 1547 4250 1301 3770 
Q 1056 3291 1056 2328 
Q 1056 1369 1301 889 
Q 1547 409 2034 409 
Q 2525 409 2770 889 
Q 3016 1369 3016 2328 
Q 3016 3291 2770 3770 
Q 2525 4250 2034 4250 
z
M 2034 4750 
Q 2819 4750 3233 4129 
Q 3647 3509 3647 2328 
Q 3647 1150 3233 529 
Q 2819 -91 2034 -91 
Q 1250 -91 836 529 
Q 422 1150 422 2328 
Q 422 3509 836 4129 
Q 1250 4750 2034 4750 
z
" transform="scale(0.015625)"/>
       </defs>
       <use xlink:href="#DejaVuSans-31"/>
       <use xlink:href="#DejaVuSans-30" x="63.623047"/>
       <use xlink:href="#DejaVuSans-30" x="127.246094"/>
      </g>
     </g>
    </g>
    <g id="xtick_2">
     <g id="line2d_2">
      <g>
       <use xlink:href="#m1af98bec7e" x="653.070096" y="961.2" style="stroke: #000000; stroke-width: 0.8"/>
      </g>
     </g>
     <g id="text_2">
      <!-- 150 -->
      <g transform="translate(643.526346 975.798437) scale(0.1 -0.1)">
       <defs>
        <path id="DejaVuSans-35" d="M 691 4666 
L 3169 4666 
L 3169 4134 
L 1269 4134 
L 1269 2991 
Q 1406 3038 1543 3061 
Q 1681 3084 1819 3084 
Q 2600 3084 3056 2656 
Q 3513 2228 3513 1497 
Q 3513 744 3044 326 
Q 2575 -91 1722 -91 
Q 1428 -91 1123 -41 
Q 819 9 494 109 
L 494 744 
Q 775 591 1075 516 
Q 1375 441 1709 441 
Q 2250 441 2565 725 
Q 2881 1009 2881 1497 
Q 2881 1984 2565 2268 
Q 2250 2553 1709 2553 
Q 1456 2553 1204 2497 
Q 953 2441 691 2322 
L 691 4666 
z
" transform="scale(0.015625)"/>
       </defs>
       <use xlink:href="#DejaVuSans-31"/>
       <use xlink:href="#DejaVuSans-35" x="63.623047"/>
       <use xlink:href="#DejaVuSans-30" x="127.246094"/>
      </g>
     </g>
    </g>
    <g id="xtick_3">
     <g id="line2d_3">
      <g>
       <use xlink:href="#m1af98bec7e" x="697.625851" y="961.2" style="stroke: #000000; stroke-width: 0.8"/>
      </g>
     </g>
     <g id="text_3">
      <!-- 200 -->
      <g transform="translate(688.082101 975.798437) scale(0.1 -0.1)">
       <defs>
        <path id="DejaVuSans-32" d="M 1228 531 
L 3431 531 
L 3431 0 
L 469 0 
L 469 531 
Q 828 903 1448 1529 
Q 2069 2156 2228 2338 
Q 2531 2678 2651 2914 
Q 2772 3150 2772 3378 
Q 2772 3750 2511 3984 
Q 2250 4219 1831 4219 
Q 1534 4219 1204 4116 
Q 875 4013 500 3803 
L 500 4441 
Q 881 4594 1212 4672 
Q 1544 4750 1819 4750 
Q 2544 4750 2975 4387 
Q 3406 4025 3406 3419 
Q 3406 3131 3298 2873 
Q 3191 2616 2906 2266 
Q 2828 2175 2409 1742 
Q 1991 1309 1228 531 
z
" transform="scale(0.015625)"/>
       </defs>
       <use xlink:href="#DejaVuSans-32"/>
       <use xlink:href="#DejaVuSans-30" x="63.623047"/>
       <use xlink:href="#DejaVuSans-30" x="127.246094"/>
      </g>
     </g>
    </g>
    <g id="xtick_4">
     <g id="line2d_4">
      <g>
       <use xlink:href="#m1af98bec7e" x="742.181606" y="961.2" style="stroke: #000000; stroke-width: 0.8"/>
      </g>
     </g>
     <g id="text_4">
      <!-- 250 -->
      <g transform="translate(732.637856 975.798437) scale(0.1 -0.1)">
       <use xlink:href="#DejaVuSans-32"/>
       <use xlink:href="#DejaVuSans-35" x="63.623047"/>
       <use xlink:href="#DejaVuSans-30" x="127.246094"/>
      </g>
     </g>
    </g>
    <g id="xtick_5">
     <g id="line2d_5">
      <g>
       <use xlink:href="#m1af98bec7e" x="786.737361" y="961.2" style="stroke: #000000; stroke-width: 0.8"/>
      </g>
     </g>
     <g id="text_5">
      <!-- 300 -->
      <g transform="translate(777.193611 975.798437) scale(0.1 -0.1)">
       <defs>
        <path id="DejaVuSans-33" d="M 2597 2516 
Q 3050 2419 3304 2112 
Q 3559 1806 3559 1356 
Q 3559 666 3084 287 
Q 2609 -91 1734 -91 
Q 1441 -91 1130 -33 
Q 819 25 488 141 
L 488 750 
Q 750 597 1062 519 
Q 1375 441 1716 441 
Q 2309 441 2620 675 
Q 2931 909 2931 1356 
Q 2931 1769 2642 2001 
Q 2353 2234 1838 2234 
L 1294 2234 
L 1294 2753 
L 1863 2753 
Q 2328 2753 2575 2939 
Q 2822 3125 2822 3475 
Q 2822 3834 2567 4026 
Q 2313 4219 1838 4219 
Q 1578 4219 1281 4162 
Q 984 4106 628 3988 
L 628 4550 
Q 988 4650 1302 4700 
Q 1616 4750 1894 4750 
Q 2613 4750 3031 4423 
Q 3450 4097 3450 3541 
Q 3450 3153 3228 2886 
Q 3006 2619 2597 2516 
z
" transform="scale(0.015625)"/>
       </defs>
       <use xlink:href="#DejaVuSans-33"/>
       <use xlink:href="#DejaVuSans-30" x="63.623047"/>
       <use xlink:href="#DejaVuSans-30" x="127.246094"/>
      </g>
     </g>
    </g>
    <g id="xtick_6">
     <g id="line2d_6">
      <g>
       <use xlink:href="#m1af98bec7e" x="831.293116" y="961.2" style="stroke: #000000; stroke-width: 0.8"/>
      </g>
     </g>
     <g id="text_6">
      <!-- 350 -->
      <g transform="translate(821.749366 975.798437) scale(0.1 -0.1)">
       <use xlink:href="#DejaVuSans-33"/>
       <use xlink:href="#DejaVuSans-35" x="63.623047"/>
       <use xlink:href="#DejaVuSans-30" x="127.246094"/>
      </g>
     </g>
    </g>
    <g id="xtick_7">
     <g id="line2d_7">
      <g>
       <use xlink:href="#m1af98bec7e" x="875.84887" y="961.2" style="stroke: #000000; stroke-width: 0.8"/>
      </g>
     </g>
     <g id="text_7">
      <!-- 400 -->
      <g transform="translate(866.30512 975.798437) scale(0.1 -0.1)">
       <defs>
        <path id="DejaVuSans-34" d="M 2419 4116 
L 825 1625 
L 2419 1625 
L 2419 4116 
z
M 2253 4666 
L 3047 4666 
L 3047 1625 
L 3713 1625 
L 3713 1100 
L 3047 1100 
L 3047 0 
L 2419 0 
L 2419 1100 
L 313 1100 
L 313 1709 
L 2253 4666 
z
" transform="scale(0.015625)"/>
       </defs>
       <use xlink:href="#DejaVuSans-34"/>
       <use xlink:href="#DejaVuSans-30" x="63.623047"/>
       <use xlink:href="#DejaVuSans-30" x="127.246094"/>
      </g>
     </g>
    </g>
   </g>
   <g id="matplotlib.axis_2">
    <g id="ytick_1">
     <g id="line2d_8">
      <defs>
       <path id="m2273e58d43" d="M 0 0 
L -3.5 0 
" style="stroke: #000000; stroke-width: 0.8"/>
      </defs>
      <g>
       <use xlink:href="#m2273e58d43" x="591.863411" y="931.365542" style="stroke: #000000; stroke-width: 0.8"/>
      </g>
     </g>
     <g id="text_8">
      <!-- 200 -->
      <g transform="translate(565.775911 935.16476) scale(0.1 -0.1)">
       <use xlink:href="#DejaVuSans-32"/>
       <use xlink:href="#DejaVuSans-30" x="63.623047"/>
       <use xlink:href="#DejaVuSans-30" x="127.246094"/>
      </g>
     </g>
    </g>
    <g id="ytick_2">
     <g id="line2d_9">
      <g>
       <use xlink:href="#m2273e58d43" x="591.863411" y="753.142522" style="stroke: #000000; stroke-width: 0.8"/>
      </g>
     </g>
     <g id="text_9">
      <!-- 400 -->
      <g transform="translate(565.775911 756.941741) scale(0.1 -0.1)">
       <use xlink:href="#DejaVuSans-34"/>
       <use xlink:href="#DejaVuSans-30" x="63.623047"/>
       <use xlink:href="#DejaVuSans-30" x="127.246094"/>
      </g>
     </g>
    </g>
    <g id="ytick_3">
     <g id="line2d_10">
      <g>
       <use xlink:href="#m2273e58d43" x="591.863411" y="574.919503" style="stroke: #000000; stroke-width: 0.8"/>
      </g>
     </g>
     <g id="text_10">
      <!-- 600 -->
      <g transform="translate(565.775911 578.718722) scale(0.1 -0.1)">
       <defs>
        <path id="DejaVuSans-36" d="M 2113 2584 
Q 1688 2584 1439 2293 
Q 1191 2003 1191 1497 
Q 1191 994 1439 701 
Q 1688 409 2113 409 
Q 2538 409 2786 701 
Q 3034 994 3034 1497 
Q 3034 2003 2786 2293 
Q 2538 2584 2113 2584 
z
M 3366 4563 
L 3366 3988 
Q 3128 4100 2886 4159 
Q 2644 4219 2406 4219 
Q 1781 4219 1451 3797 
Q 1122 3375 1075 2522 
Q 1259 2794 1537 2939 
Q 1816 3084 2150 3084 
Q 2853 3084 3261 2657 
Q 3669 2231 3669 1497 
Q 3669 778 3244 343 
Q 2819 -91 2113 -91 
Q 1303 -91 875 529 
Q 447 1150 447 2328 
Q 447 3434 972 4092 
Q 1497 4750 2381 4750 
Q 2619 4750 2861 4703 
Q 3103 4656 3366 4563 
z
" transform="scale(0.015625)"/>
       </defs>
       <use xlink:href="#DejaVuSans-36"/>
       <use xlink:href="#DejaVuSans-30" x="63.623047"/>
       <use xlink:href="#DejaVuSans-30" x="127.246094"/>
      </g>
     </g>
    </g>
    <g id="ytick_4">
     <g id="line2d_11">
      <g>
       <use xlink:href="#m2273e58d43" x="591.863411" y="396.696484" style="stroke: #000000; stroke-width: 0.8"/>
      </g>
     </g>
     <g id="text_11">
      <!-- 800 -->
      <g transform="translate(565.775911 400.495703) scale(0.1 -0.1)">
       <defs>
        <path id="DejaVuSans-38" d="M 2034 2216 
Q 1584 2216 1326 1975 
Q 1069 1734 1069 1313 
Q 1069 891 1326 650 
Q 1584 409 2034 409 
Q 2484 409 2743 651 
Q 3003 894 3003 1313 
Q 3003 1734 2745 1975 
Q 2488 2216 2034 2216 
z
M 1403 2484 
Q 997 2584 770 2862 
Q 544 3141 544 3541 
Q 544 4100 942 4425 
Q 1341 4750 2034 4750 
Q 2731 4750 3128 4425 
Q 3525 4100 3525 3541 
Q 3525 3141 3298 2862 
Q 3072 2584 2669 2484 
Q 3125 2378 3379 2068 
Q 3634 1759 3634 1313 
Q 3634 634 3220 271 
Q 2806 -91 2034 -91 
Q 1263 -91 848 271 
Q 434 634 434 1313 
Q 434 1759 690 2068 
Q 947 2378 1403 2484 
z
M 1172 3481 
Q 1172 3119 1398 2916 
Q 1625 2713 2034 2713 
Q 2441 2713 2670 2916 
Q 2900 3119 2900 3481 
Q 2900 3844 2670 4047 
Q 2441 4250 2034 4250 
Q 1625 4250 1398 4047 
Q 1172 3844 1172 3481 
z
" transform="scale(0.015625)"/>
       </defs>
       <use xlink:href="#DejaVuSans-38"/>
       <use xlink:href="#DejaVuSans-30" x="63.623047"/>
       <use xlink:href="#DejaVuSans-30" x="127.246094"/>
      </g>
     </g>
    </g>
    <g id="ytick_5">
     <g id="line2d_12">
      <g>
       <use xlink:href="#m2273e58d43" x="591.863411" y="218.473465" style="stroke: #000000; stroke-width: 0.8"/>
      </g>
     </g>
     <g id="text_12">
      <!-- 1000 -->
      <g transform="translate(559.413411 222.272683) scale(0.1 -0.1)">
       <use xlink:href="#DejaVuSans-31"/>
       <use xlink:href="#DejaVuSans-30" x="63.623047"/>
       <use xlink:href="#DejaVuSans-30" x="127.246094"/>
       <use xlink:href="#DejaVuSans-30" x="190.869141"/>
      </g>
     </g>
    </g>
   </g>
   <g id="LineCollection_1">
    <path d="M 712.465638 903.68648 
L 689.295325 893.939513 
L 670.74543 884.589998 
L 656.120964 875.573774 
L 645.01361 866.962388 
L 637.00172 858.83926 
L 631.620957 851.26267 
L 628.368631 844.196469 
L 626.783607 837.461729 
L 626.555353 830.795486 
L 627.537488 823.987397 
L 629.656801 816.954431 
L 632.830035 809.71267 
L 636.941071 802.318405 
L 641.852398 794.83033 
L 647.421132 787.295655 
L 653.509617 779.748392 
L 659.990685 772.211643 
L 666.749653 764.700436 
L 680.706132 749.78788 
L 701.596394 727.699781 
L 708.298793 720.418578 
L 714.794329 713.176655 
L 721.049791 705.971325 
L 727.038499 698.799897 
L 732.73966 691.659856 
L 738.137791 684.549031 
L 743.222211 677.465736 
L 747.9866 670.408886 
L 752.428629 663.378084 
L 756.549642 656.373648 
L 760.354386 649.396588 
L 763.850767 642.448524 
L 767.04961 635.53155 
L 769.964407 628.648049 
L 772.611044 621.800495 
L 775.007492 614.991249 
L 777.17347 608.222374 
L 779.130093 601.49549 
L 780.899512 594.811674 
L 782.504566 588.171404 
L 785.314437 575.02035 
L 787.744575 562.034277 
L 794.491511 523.816049 
L 797.062542 511.24203 
L 800.002004 498.697854 
L 801.640432 492.424168 
L 803.404901 486.142244 
L 805.303782 479.84657 
L 807.343886 473.53159 
L 809.530353 467.191759 
L 811.866511 460.821581 
L 814.353728 454.415638 
L 816.991233 447.968603 
L 822.702205 434.930336 
L 828.943125 421.665142 
L 835.610343 408.130081 
L 846.065283 387.175379 
L 852.981972 372.683324 
L 856.301629 365.252124 
L 859.460513 357.679407 
L 862.397645 349.94916 
L 865.042493 342.043642 
L 867.31312 333.944303 
L 869.114174 325.633832 
L 870.335345 317.09982 
L 870.851445 308.340132 
L 870.525683 299.36894 
L 869.217007 290.22053 
L 866.789817 280.94687 
L 863.120987 271.607021 
L 858.098757 262.251906 
L 851.612818 252.912135 
L 843.540906 243.594507 
L 833.738399 234.286573 
L 822.033662 224.964589 
L 808.227972 215.600633 
L 792.0975 206.167199 
L 773.395462 196.639384 
L 751.853581 186.995533 
L 727.182692 177.21706 
L 699.40708 167.4 
L 699.40708 167.4 
" clip-path="url(#p3aac346bb8)" style="fill: none; stroke: #1f77b4; stroke-width: 1.5"/>
    <path d="M 708.319232 913.54324 
L 684.810383 903.653862 
L 665.52349 893.932885 
L 650.021607 884.37572 
L 637.899646 874.977722 
L 628.782709 865.734205 
L 622.324485 856.640454 
L 618.205701 847.691735 
L 616.132634 838.88331 
L 615.835673 830.210444 
L 617.067946 821.668416 
L 619.603989 813.25253 
L 623.238476 804.958122 
L 627.785003 796.780569 
L 633.074907 788.715294 
L 638.956156 780.757777 
L 645.292267 772.903557 
L 651.961286 765.148242 
L 658.854804 757.48751 
L 665.877022 749.917115 
L 672.943857 742.432893 
L 679.982095 735.030762 
L 686.928579 727.706731 
L 693.729439 720.456893 
L 700.339364 713.277437 
L 706.72091 706.164644 
L 712.843836 699.114889 
L 718.684495 692.124643 
L 724.225234 685.190471 
L 729.453849 678.309035 
L 734.363061 671.477091 
L 738.95002 664.691489 
L 743.215848 657.949174 
L 747.165202 651.247178 
L 750.805869 644.582626 
L 754.148385 637.952729 
L 757.205678 631.35478 
L 759.992738 624.786157 
L 762.526305 618.244314 
L 764.824583 611.72678 
L 766.90697 605.231157 
L 768.793811 598.755112 
L 770.506165 592.296376 
L 772.065592 585.852739 
L 773.493953 579.422042 
L 774.813228 573.002179 
L 776.045342 566.591085 
L 777.212007 560.186736 
L 778.334574 553.787141 
L 779.433896 547.390334 
L 780.530194 540.994377 
L 781.64294 534.597343 
L 782.790739 528.19732 
L 783.991215 521.792398 
L 785.260909 515.380667 
L 786.615171 508.960211 
L 788.068061 502.529099 
L 789.632242 496.08538 
L 791.318884 489.62708 
L 793.137554 483.15219 
L 795.096109 476.658666 
L 797.200589 470.144418 
L 799.455093 463.607304 
L 801.861664 457.04513 
L 804.420147 450.455636 
L 807.128062 443.836494 
L 809.980442 437.185303 
L 812.96968 430.499581 
L 816.085354 423.776759 
L 819.314039 417.01418 
L 822.639104 410.209086 
L 826.040501 403.358619 
L 829.494525 396.459815 
L 832.973566 389.509596 
L 836.445835 382.504767 
L 839.875073 375.442014 
L 843.22024 368.317893 
L 846.435177 361.128834 
L 849.468245 353.871131 
L 852.261943 346.540942 
L 854.752496 339.134284 
L 856.869416 331.64703 
L 858.535036 324.074906 
L 859.664011 316.41349 
L 860.162795 308.658208 
L 859.929077 300.804334 
L 858.851192 292.846988 
L 856.807491 284.781133 
L 853.665681 276.601578 
L 849.282126 268.302974 
L 843.501108 259.879815 
L 836.154054 251.326442 
L 827.058717 242.637038 
L 816.018323 233.805635 
L 802.820666 224.826111 
L 787.237171 215.692197 
L 769.021899 206.397476 
L 747.910522 196.935387 
L 723.619232 187.29923 
L 695.843621 177.48217 
" clip-path="url(#p3aac346bb8)" style="fill: none; stroke: #8c564b; stroke-width: 1.5"/>
    <path d="M 704.172827 923.4 
L 679.997473 913.202909 
L 659.911646 903.035391 
L 643.46963 892.826755 
L 630.286335 882.486777 
L 620.590307 872.606828 
L 620.06426 871.925896 
L 613.068259 861.994956 
L 612.610628 861.111404 
L 608.093652 851.169502 
L 607.796711 850.141496 
L 605.533246 840.298007 
L 605.445516 839.249239 
L 605.158182 829.627704 
L 605.251855 828.683623 
L 606.627607 819.355903 
L 606.829328 818.583111 
L 609.809636 808.960788 
L 613.89245 799.761952 
L 618.843333 790.915849 
L 624.475341 782.359519 
L 630.633357 774.043656 
L 637.184418 765.931384 
L 644.01237 757.995401 
L 651.014926 750.215322 
L 665.194411 735.064413 
L 685.896291 713.177285 
L 692.425845 706.085126 
L 698.703965 699.08761 
L 704.703406 692.180033 
L 710.403524 685.357988 
L 715.789762 678.617172 
L 720.853136 671.953213 
L 725.589715 665.361515 
L 730.000099 658.837124 
L 734.088887 652.374627 
L 737.864132 645.968092 
L 741.336811 639.611057 
L 744.520306 633.296579 
L 747.429917 627.017342 
L 750.082435 620.765811 
L 752.49577 614.534415 
L 754.688659 608.315749 
L 756.680439 602.102756 
L 758.490892 595.888891 
L 760.140128 589.668229 
L 761.648502 583.435542 
L 764.324944 570.916758 
L 766.685486 558.304721 
L 773.50153 519.71516 
L 776.184654 506.603793 
L 779.240643 493.562869 
L 781.0239 486.735421 
L 782.899719 480.064288 
L 784.920546 473.37137 
L 787.091511 466.658022 
L 789.415549 459.925466 
L 791.89329 453.174739 
L 794.522965 446.406664 
L 797.300294 439.621831 
L 800.21838 432.820609 
L 806.435385 419.169538 
L 813.06136 405.453539 
L 830.22523 370.834002 
L 833.498835 363.862286 
L 836.619591 356.883826 
L 839.536386 349.904349 
L 842.193982 342.93127 
L 844.533555 335.973612 
L 846.493532 329.041445 
L 848.01065 322.144428 
L 849.020861 315.288968 
L 849.459189 308.473673 
L 849.257124 301.683485 
L 848.336144 294.884471 
L 846.597575 288.022875 
L 843.912235 281.031718 
L 840.115613 273.84425 
L 835.012122 266.408273 
L 828.38593 258.694121 
L 820.011852 250.693785 
L 809.661334 242.414226 
L 797.102875 233.869605 
L 782.098985 225.075414 
L 764.402012 216.045165 
L 743.750225 206.789064 
L 719.864624 197.31384 
L 692.280161 187.564341 
L 692.280161 187.564341 
" clip-path="url(#p3aac346bb8)" style="fill: none; stroke: #17becf; stroke-width: 1.5"/>
   </g>
   <g id="patch_3">
    <path d="M 591.863411 961.2 
L 591.863411 129.6 
" style="fill: none; stroke: #000000; stroke-width: 0.8; stroke-linejoin: miter; stroke-linecap: square"/>
   </g>
   <g id="patch_4">
    <path d="M 884.136589 961.2 
L 884.136589 129.6 
" style="fill: none; stroke: #000000; stroke-width: 0.8; stroke-linejoin: miter; stroke-linecap: square"/>
   </g>
   <g id="patch_5">
    <path d="M 591.863411 961.2 
L 884.136589 961.2 
" style="fill: none; stroke: #000000; stroke-width: 0.8; stroke-linejoin: miter; stroke-linecap: square"/>
   </g>
   <g id="patch_6">
    <path d="M 591.863411 129.6 
L 884.136589 129.6 
" style="fill: none; stroke: #000000; stroke-width: 0.8; stroke-linejoin: miter; stroke-linecap: square"/>
   </g>
  </g>
 </g>
 <defs>
  <clipPath id="p3aac346bb8">
   <rect x="591.863411" y="129.6" width="292.273179" height="831.6"/>
  </clipPath>
 </defs>
</svg>
