<?xml version="1.0" encoding="utf-8" standalone="no"?>
<!DOCTYPE svg PUBLIC "-//W3C//DTD SVG 1.1//EN"
  "http://www.w3.org/Graphics/SVG/1.1/DTD/svg11.dtd">
<svg xmlns:xlink="http://www.w3.org/1999/xlink" width="1440pt" height="1080pt" viewBox="0 0 1440 1080" xmlns="http://www.w3.org/2000/svg" version="1.1">
 <metadata>
  <rdf:RDF xmlns:dc="http://purl.org/dc/elements/1.1/" xmlns:cc="http://creativecommons.org/ns#" xmlns:rdf="http://www.w3.org/1999/02/22-rdf-syntax-ns#">
   <cc:Work>
    <dc:type rdf:resource="http://purl.org/dc/dcmitype/StillImage"/>
    <dc:date>2023-12-11T12:06:44.132112</dc:date>
    <dc:format>image/svg+xml</dc:format>
    <dc:creator>
     <cc:Agent>
      <dc:title>Matplotlib v3.7.1, https://matplotlib.org/</dc:title>
     </cc:Agent>
    </dc:creator>
   </cc:Work>
  </rdf:RDF>
 </metadata>
 <defs>
  <style type="text/css">*{stroke-linejoin: round; stroke-linecap: butt}</style>
 </defs>
 <g id="figure_1">
  <g id="patch_1">
   <path d="M 0 1080 
L 1440 1080 
L 1440 0 
L 0 0 
z
" style="fill: #ffffff"/>
  </g>
  <g id="axes_1">
   <g id="patch_2">
    <path d="M 568.458779 961.2 
L 907.541221 961.2 
L 907.541221 129.6 
L 568.458779 129.6 
z
" style="fill: #ffffff"/>
   </g>
   <g id="matplotlib.axis_1">
    <g id="xtick_1">
     <g id="line2d_1">
      <defs>
       <path id="m7f486fa97c" d="M 0 0 
L 0 3.5 
" style="stroke: #000000; stroke-width: 0.8"/>
      </defs>
      <g>
       <use xlink:href="#m7f486fa97c" x="603.207975" y="961.2" style="stroke: #000000; stroke-width: 0.8"/>
      </g>
     </g>
     <g id="text_1">
      <!-- 850 -->
      <g transform="translate(593.664225 975.798437) scale(0.1 -0.1)">
       <defs>
        <path id="DejaVuSans-38" d="M 2034 2216 
Q 1584 2216 1326 1975 
Q 1069 1734 1069 1313 
Q 1069 891 1326 650 
Q 1584 409 2034 409 
Q 2484 409 2743 651 
Q 3003 894 3003 1313 
Q 3003 1734 2745 1975 
Q 2488 2216 2034 2216 
z
M 1403 2484 
Q 997 2584 770 2862 
Q 544 3141 544 3541 
Q 544 4100 942 4425 
Q 1341 4750 2034 4750 
Q 2731 4750 3128 4425 
Q 3525 4100 3525 3541 
Q 3525 3141 3298 2862 
Q 3072 2584 2669 2484 
Q 3125 2378 3379 2068 
Q 3634 1759 3634 1313 
Q 3634 634 3220 271 
Q 2806 -91 2034 -91 
Q 1263 -91 848 271 
Q 434 634 434 1313 
Q 434 1759 690 2068 
Q 947 2378 1403 2484 
z
M 1172 3481 
Q 1172 3119 1398 2916 
Q 1625 2713 2034 2713 
Q 2441 2713 2670 2916 
Q 2900 3119 2900 3481 
Q 2900 3844 2670 4047 
Q 2441 4250 2034 4250 
Q 1625 4250 1398 4047 
Q 1172 3844 1172 3481 
z
" transform="scale(0.015625)"/>
        <path id="DejaVuSans-35" d="M 691 4666 
L 3169 4666 
L 3169 4134 
L 1269 4134 
L 1269 2991 
Q 1406 3038 1543 3061 
Q 1681 3084 1819 3084 
Q 2600 3084 3056 2656 
Q 3513 2228 3513 1497 
Q 3513 744 3044 326 
Q 2575 -91 1722 -91 
Q 1428 -91 1123 -41 
Q 819 9 494 109 
L 494 744 
Q 775 591 1075 516 
Q 1375 441 1709 441 
Q 2250 441 2565 725 
Q 2881 1009 2881 1497 
Q 2881 1984 2565 2268 
Q 2250 2553 1709 2553 
Q 1456 2553 1204 2497 
Q 953 2441 691 2322 
L 691 4666 
z
" transform="scale(0.015625)"/>
        <path id="DejaVuSans-30" d="M 2034 4250 
Q 1547 4250 1301 3770 
Q 1056 3291 1056 2328 
Q 1056 1369 1301 889 
Q 1547 409 2034 409 
Q 2525 409 2770 889 
Q 3016 1369 3016 2328 
Q 3016 3291 2770 3770 
Q 2525 4250 2034 4250 
z
M 2034 4750 
Q 2819 4750 3233 4129 
Q 3647 3509 3647 2328 
Q 3647 1150 3233 529 
Q 2819 -91 2034 -91 
Q 1250 -91 836 529 
Q 422 1150 422 2328 
Q 422 3509 836 4129 
Q 1250 4750 2034 4750 
z
" transform="scale(0.015625)"/>
       </defs>
       <use xlink:href="#DejaVuSans-38"/>
       <use xlink:href="#DejaVuSans-35" x="63.623047"/>
       <use xlink:href="#DejaVuSans-30" x="127.246094"/>
      </g>
     </g>
    </g>
    <g id="xtick_2">
     <g id="line2d_2">
      <g>
       <use xlink:href="#m7f486fa97c" x="641.705896" y="961.2" style="stroke: #000000; stroke-width: 0.8"/>
      </g>
     </g>
     <g id="text_2">
      <!-- 900 -->
      <g transform="translate(632.162146 975.798437) scale(0.1 -0.1)">
       <defs>
        <path id="DejaVuSans-39" d="M 703 97 
L 703 672 
Q 941 559 1184 500 
Q 1428 441 1663 441 
Q 2288 441 2617 861 
Q 2947 1281 2994 2138 
Q 2813 1869 2534 1725 
Q 2256 1581 1919 1581 
Q 1219 1581 811 2004 
Q 403 2428 403 3163 
Q 403 3881 828 4315 
Q 1253 4750 1959 4750 
Q 2769 4750 3195 4129 
Q 3622 3509 3622 2328 
Q 3622 1225 3098 567 
Q 2575 -91 1691 -91 
Q 1453 -91 1209 -44 
Q 966 3 703 97 
z
M 1959 2075 
Q 2384 2075 2632 2365 
Q 2881 2656 2881 3163 
Q 2881 3666 2632 3958 
Q 2384 4250 1959 4250 
Q 1534 4250 1286 3958 
Q 1038 3666 1038 3163 
Q 1038 2656 1286 2365 
Q 1534 2075 1959 2075 
z
" transform="scale(0.015625)"/>
       </defs>
       <use xlink:href="#DejaVuSans-39"/>
       <use xlink:href="#DejaVuSans-30" x="63.623047"/>
       <use xlink:href="#DejaVuSans-30" x="127.246094"/>
      </g>
     </g>
    </g>
    <g id="xtick_3">
     <g id="line2d_3">
      <g>
       <use xlink:href="#m7f486fa97c" x="680.203816" y="961.2" style="stroke: #000000; stroke-width: 0.8"/>
      </g>
     </g>
     <g id="text_3">
      <!-- 950 -->
      <g transform="translate(670.660066 975.798437) scale(0.1 -0.1)">
       <use xlink:href="#DejaVuSans-39"/>
       <use xlink:href="#DejaVuSans-35" x="63.623047"/>
       <use xlink:href="#DejaVuSans-30" x="127.246094"/>
      </g>
     </g>
    </g>
    <g id="xtick_4">
     <g id="line2d_4">
      <g>
       <use xlink:href="#m7f486fa97c" x="718.701737" y="961.2" style="stroke: #000000; stroke-width: 0.8"/>
      </g>
     </g>
     <g id="text_4">
      <!-- 1000 -->
      <g transform="translate(705.976737 975.798437) scale(0.1 -0.1)">
       <defs>
        <path id="DejaVuSans-31" d="M 794 531 
L 1825 531 
L 1825 4091 
L 703 3866 
L 703 4441 
L 1819 4666 
L 2450 4666 
L 2450 531 
L 3481 531 
L 3481 0 
L 794 0 
L 794 531 
z
" transform="scale(0.015625)"/>
       </defs>
       <use xlink:href="#DejaVuSans-31"/>
       <use xlink:href="#DejaVuSans-30" x="63.623047"/>
       <use xlink:href="#DejaVuSans-30" x="127.246094"/>
       <use xlink:href="#DejaVuSans-30" x="190.869141"/>
      </g>
     </g>
    </g>
    <g id="xtick_5">
     <g id="line2d_5">
      <g>
       <use xlink:href="#m7f486fa97c" x="757.199657" y="961.2" style="stroke: #000000; stroke-width: 0.8"/>
      </g>
     </g>
     <g id="text_5">
      <!-- 1050 -->
      <g transform="translate(744.474657 975.798437) scale(0.1 -0.1)">
       <use xlink:href="#DejaVuSans-31"/>
       <use xlink:href="#DejaVuSans-30" x="63.623047"/>
       <use xlink:href="#DejaVuSans-35" x="127.246094"/>
       <use xlink:href="#DejaVuSans-30" x="190.869141"/>
      </g>
     </g>
    </g>
    <g id="xtick_6">
     <g id="line2d_6">
      <g>
       <use xlink:href="#m7f486fa97c" x="795.697578" y="961.2" style="stroke: #000000; stroke-width: 0.8"/>
      </g>
     </g>
     <g id="text_6">
      <!-- 1100 -->
      <g transform="translate(782.972578 975.798437) scale(0.1 -0.1)">
       <use xlink:href="#DejaVuSans-31"/>
       <use xlink:href="#DejaVuSans-31" x="63.623047"/>
       <use xlink:href="#DejaVuSans-30" x="127.246094"/>
       <use xlink:href="#DejaVuSans-30" x="190.869141"/>
      </g>
     </g>
    </g>
    <g id="xtick_7">
     <g id="line2d_7">
      <g>
       <use xlink:href="#m7f486fa97c" x="834.195499" y="961.2" style="stroke: #000000; stroke-width: 0.8"/>
      </g>
     </g>
     <g id="text_7">
      <!-- 1150 -->
      <g transform="translate(821.470499 975.798437) scale(0.1 -0.1)">
       <use xlink:href="#DejaVuSans-31"/>
       <use xlink:href="#DejaVuSans-31" x="63.623047"/>
       <use xlink:href="#DejaVuSans-35" x="127.246094"/>
       <use xlink:href="#DejaVuSans-30" x="190.869141"/>
      </g>
     </g>
    </g>
    <g id="xtick_8">
     <g id="line2d_8">
      <g>
       <use xlink:href="#m7f486fa97c" x="872.693419" y="961.2" style="stroke: #000000; stroke-width: 0.8"/>
      </g>
     </g>
     <g id="text_8">
      <!-- 1200 -->
      <g transform="translate(859.968419 975.798437) scale(0.1 -0.1)">
       <defs>
        <path id="DejaVuSans-32" d="M 1228 531 
L 3431 531 
L 3431 0 
L 469 0 
L 469 531 
Q 828 903 1448 1529 
Q 2069 2156 2228 2338 
Q 2531 2678 2651 2914 
Q 2772 3150 2772 3378 
Q 2772 3750 2511 3984 
Q 2250 4219 1831 4219 
Q 1534 4219 1204 4116 
Q 875 4013 500 3803 
L 500 4441 
Q 881 4594 1212 4672 
Q 1544 4750 1819 4750 
Q 2544 4750 2975 4387 
Q 3406 4025 3406 3419 
Q 3406 3131 3298 2873 
Q 3191 2616 2906 2266 
Q 2828 2175 2409 1742 
Q 1991 1309 1228 531 
z
" transform="scale(0.015625)"/>
       </defs>
       <use xlink:href="#DejaVuSans-31"/>
       <use xlink:href="#DejaVuSans-32" x="63.623047"/>
       <use xlink:href="#DejaVuSans-30" x="127.246094"/>
       <use xlink:href="#DejaVuSans-30" x="190.869141"/>
      </g>
     </g>
    </g>
   </g>
   <g id="matplotlib.axis_2">
    <g id="ytick_1">
     <g id="line2d_9">
      <defs>
       <path id="mc9f9a9ca1b" d="M 0 0 
L -3.5 0 
" style="stroke: #000000; stroke-width: 0.8"/>
      </defs>
      <g>
       <use xlink:href="#mc9f9a9ca1b" x="568.458779" y="901.950906" style="stroke: #000000; stroke-width: 0.8"/>
      </g>
     </g>
     <g id="text_9">
      <!-- 400 -->
      <g transform="translate(542.371279 905.750124) scale(0.1 -0.1)">
       <defs>
        <path id="DejaVuSans-34" d="M 2419 4116 
L 825 1625 
L 2419 1625 
L 2419 4116 
z
M 2253 4666 
L 3047 4666 
L 3047 1625 
L 3713 1625 
L 3713 1100 
L 3047 1100 
L 3047 0 
L 2419 0 
L 2419 1100 
L 313 1100 
L 313 1709 
L 2253 4666 
z
" transform="scale(0.015625)"/>
       </defs>
       <use xlink:href="#DejaVuSans-34"/>
       <use xlink:href="#DejaVuSans-30" x="63.623047"/>
       <use xlink:href="#DejaVuSans-30" x="127.246094"/>
      </g>
     </g>
    </g>
    <g id="ytick_2">
     <g id="line2d_10">
      <g>
       <use xlink:href="#mc9f9a9ca1b" x="568.458779" y="747.959223" style="stroke: #000000; stroke-width: 0.8"/>
      </g>
     </g>
     <g id="text_10">
      <!-- 600 -->
      <g transform="translate(542.371279 751.758442) scale(0.1 -0.1)">
       <defs>
        <path id="DejaVuSans-36" d="M 2113 2584 
Q 1688 2584 1439 2293 
Q 1191 2003 1191 1497 
Q 1191 994 1439 701 
Q 1688 409 2113 409 
Q 2538 409 2786 701 
Q 3034 994 3034 1497 
Q 3034 2003 2786 2293 
Q 2538 2584 2113 2584 
z
M 3366 4563 
L 3366 3988 
Q 3128 4100 2886 4159 
Q 2644 4219 2406 4219 
Q 1781 4219 1451 3797 
Q 1122 3375 1075 2522 
Q 1259 2794 1537 2939 
Q 1816 3084 2150 3084 
Q 2853 3084 3261 2657 
Q 3669 2231 3669 1497 
Q 3669 778 3244 343 
Q 2819 -91 2113 -91 
Q 1303 -91 875 529 
Q 447 1150 447 2328 
Q 447 3434 972 4092 
Q 1497 4750 2381 4750 
Q 2619 4750 2861 4703 
Q 3103 4656 3366 4563 
z
" transform="scale(0.015625)"/>
       </defs>
       <use xlink:href="#DejaVuSans-36"/>
       <use xlink:href="#DejaVuSans-30" x="63.623047"/>
       <use xlink:href="#DejaVuSans-30" x="127.246094"/>
      </g>
     </g>
    </g>
    <g id="ytick_3">
     <g id="line2d_11">
      <g>
       <use xlink:href="#mc9f9a9ca1b" x="568.458779" y="593.967541" style="stroke: #000000; stroke-width: 0.8"/>
      </g>
     </g>
     <g id="text_11">
      <!-- 800 -->
      <g transform="translate(542.371279 597.76676) scale(0.1 -0.1)">
       <use xlink:href="#DejaVuSans-38"/>
       <use xlink:href="#DejaVuSans-30" x="63.623047"/>
       <use xlink:href="#DejaVuSans-30" x="127.246094"/>
      </g>
     </g>
    </g>
    <g id="ytick_4">
     <g id="line2d_12">
      <g>
       <use xlink:href="#mc9f9a9ca1b" x="568.458779" y="439.975859" style="stroke: #000000; stroke-width: 0.8"/>
      </g>
     </g>
     <g id="text_12">
      <!-- 1000 -->
      <g transform="translate(536.008779 443.775078) scale(0.1 -0.1)">
       <use xlink:href="#DejaVuSans-31"/>
       <use xlink:href="#DejaVuSans-30" x="63.623047"/>
       <use xlink:href="#DejaVuSans-30" x="127.246094"/>
       <use xlink:href="#DejaVuSans-30" x="190.869141"/>
      </g>
     </g>
    </g>
    <g id="ytick_5">
     <g id="line2d_13">
      <g>
       <use xlink:href="#mc9f9a9ca1b" x="568.458779" y="285.984177" style="stroke: #000000; stroke-width: 0.8"/>
      </g>
     </g>
     <g id="text_13">
      <!-- 1200 -->
      <g transform="translate(536.008779 289.783395) scale(0.1 -0.1)">
       <use xlink:href="#DejaVuSans-31"/>
       <use xlink:href="#DejaVuSans-32" x="63.623047"/>
       <use xlink:href="#DejaVuSans-30" x="127.246094"/>
       <use xlink:href="#DejaVuSans-30" x="190.869141"/>
      </g>
     </g>
    </g>
    <g id="ytick_6">
     <g id="line2d_14">
      <g>
       <use xlink:href="#mc9f9a9ca1b" x="568.458779" y="131.992494" style="stroke: #000000; stroke-width: 0.8"/>
      </g>
     </g>
     <g id="text_14">
      <!-- 1400 -->
      <g transform="translate(536.008779 135.791713) scale(0.1 -0.1)">
       <use xlink:href="#DejaVuSans-31"/>
       <use xlink:href="#DejaVuSans-34" x="63.623047"/>
       <use xlink:href="#DejaVuSans-30" x="127.246094"/>
       <use xlink:href="#DejaVuSans-30" x="190.869141"/>
      </g>
     </g>
    </g>
   </g>
   <g id="LineCollection_1">
    <path d="M 876.357208 167.4 
L 872.517563 177.197343 
L 867.779313 185.969593 
L 862.069532 194.33463 
L 855.532304 202.343931 
L 848.315285 210.038406 
L 840.5649 217.456112 
L 832.421809 224.635303 
L 824.017896 231.614969 
L 815.474713 238.434398 
L 790.017999 258.35121 
L 781.894264 264.92914 
L 774.081992 271.530558 
L 766.643388 278.187612 
L 759.633552 284.930175 
L 753.101501 291.785381 
L 747.091117 298.776879 
L 741.641843 305.923754 
L 736.788877 313.239238 
L 732.562636 320.729502 
L 728.987452 328.392988 
L 726.079774 336.220787 
L 723.846473 344.198248 
L 722.283956 352.307565 
L 721.378499 360.530609 
L 721.107714 368.851193 
L 721.442623 377.256292 
L 722.349749 385.736177 
L 723.792784 394.283801 
L 725.733702 402.893843 
L 728.133366 411.561756 
L 730.951798 420.282986 
L 734.148262 429.052426 
L 737.681259 437.864085 
L 741.508525 446.710934 
L 745.587051 455.584859 
L 749.873139 464.476695 
L 758.89039 482.272656 
L 786.291278 534.930149 
L 790.440712 543.456059 
L 794.356287 551.870918 
L 797.998132 560.159789 
L 801.328272 568.307596 
L 804.311024 576.299243 
L 806.913439 584.119809 
L 809.105781 591.754867 
L 810.862026 599.190993 
L 812.160286 606.416522 
L 812.983057 613.422589 
L 813.31708 620.20441 
L 813.152641 626.762611 
L 812.482179 633.104224 
L 811.298349 639.242846 
L 809.592015 645.197508 
L 807.350952 650.990257 
L 804.559925 656.642987 
L 801.202314 662.174555 
L 797.262775 667.599061 
L 792.73005 672.925668 
L 787.599142 678.159678 
L 781.872517 683.30422 
L 775.560422 688.361984 
L 768.680624 693.336633 
L 761.25788 698.233776 
L 753.32337 703.061566 
L 744.914211 707.831011 
L 736.073097 712.556103 
L 726.848056 717.253871 
L 707.464141 726.65081 
L 676.960372 741.166585 
L 666.703252 746.24644 
L 656.538862 751.512151 
L 646.555576 757.011335 
L 636.847497 762.798189 
L 627.515532 768.935005 
L 618.669693 775.493833 
L 610.433466 782.557501 
L 602.951136 790.217976 
L 596.397353 798.568185 
L 590.983532 807.683245 
L 587.136451 816.929536 
L 586.949089 817.594225 
L 584.605442 827.559251 
L 584.528946 828.274142 
L 583.871617 838.961089 
L 583.913721 839.661027 
L 585.239069 851.710184 
L 588.613877 864.432722 
L 594.157206 877.896275 
L 602.017581 892.203553 
L 612.374371 907.471538 
L 625.074119 923.4 
L 625.074119 923.4 
" clip-path="url(#pd01aaf8b6b)" style="fill: none; stroke: #1f77b4; stroke-width: 1.5"/>
    <path d="M 884.242795 170.490415 
L 880.214816 180.768316 
L 875.022393 190.381409 
L 868.860323 199.409065 
L 861.909299 207.925343 
L 854.33645 215.999187 
L 846.295875 223.694628 
L 837.929163 231.070969 
L 829.365901 238.182979 
L 820.724173 245.08107 
L 812.111047 251.811485 
L 803.623051 258.416465 
L 795.346637 264.934428 
L 787.35864 271.400133 
L 779.726718 277.844845 
L 772.509791 284.296497 
L 765.758462 290.779844 
L 759.515434 297.31662 
L 753.815916 303.925687 
L 748.688017 310.623179 
L 744.153132 317.422646 
L 740.226323 324.335198 
L 736.916684 331.369634 
L 734.227703 338.532583 
L 732.15761 345.828629 
L 730.699725 353.26044 
L 729.842787 360.828894 
L 729.571284 368.533196 
L 729.86577 376.371001 
L 730.703174 384.338527 
L 732.057108 392.430669 
L 733.898158 400.641108 
L 736.194173 408.962422 
L 738.910548 417.386187 
L 742.0105 425.903081 
L 745.455329 434.502986 
L 749.204689 443.175086 
L 753.216832 451.907959 
L 757.448865 460.689674 
L 761.856988 469.507883 
L 766.396733 478.349905 
L 771.023191 487.202819 
L 775.691243 496.053548 
L 780.355773 504.888939 
L 784.97189 513.695849 
L 789.49513 522.461222 
L 793.881668 531.172167 
L 798.088511 539.816038 
L 802.073701 548.380502 
L 805.796498 556.853621 
L 809.217573 565.223919 
L 812.299189 573.48045 
L 815.005379 581.612873 
L 817.302123 589.611519 
L 819.157517 597.467454 
L 820.541944 605.172548 
L 821.428239 612.719539 
L 821.79185 620.102096 
L 821.610998 627.314884 
L 820.866833 634.353623 
L 819.54359 641.215151 
L 817.628739 647.897483 
L 815.113135 654.399873 
L 811.991165 660.722871 
L 808.260896 666.868382 
L 803.924218 672.839724 
L 798.986984 678.641689 
L 793.459156 684.280594 
L 787.354943 689.764343 
L 780.692938 695.102484 
L 773.49626 700.306263 
L 765.792689 705.388681 
L 757.614806 710.364553 
L 749.000127 715.250563 
L 739.991241 720.06532 
L 730.635947 724.829417 
L 720.98739 729.565488 
L 711.1042 734.298261 
L 701.05063 739.054624 
L 690.89669 743.863675 
L 680.718295 748.756787 
L 670.597397 753.767663 
L 660.62213 758.932399 
L 650.886957 764.289542 
L 641.492807 769.880155 
L 632.547228 775.747874 
L 624.164532 781.938978 
L 616.465945 788.502444 
L 609.579762 795.490022 
L 603.6415 802.956293 
L 598.794056 810.95874 
L 595.187866 819.557816 
L 592.981072 828.817016 
L 592.339683 838.802941 
L 593.437749 849.585379 
L 596.45753 861.237372 
L 601.589677 873.835297 
L 609.033406 887.458939 
L 618.996688 902.19157 
L 631.696436 918.120032 
" clip-path="url(#pd01aaf8b6b)" style="fill: none; stroke: #8c564b; stroke-width: 1.5"/>
    <path d="M 892.128383 173.58083 
L 887.666774 184.793422 
L 882.017689 195.156237 
L 875.421741 204.764524 
L 868.086763 213.719485 
L 860.19256 222.117939 
L 851.896924 230.047691 
L 843.340429 237.58644 
L 834.649638 244.80229 
L 825.939075 251.754746 
L 800.631268 271.553267 
L 792.75573 277.927944 
L 785.282374 284.238757 
L 778.267188 290.51006 
L 771.75692 296.761915 
L 765.788899 303.010745 
L 760.390849 309.270235 
L 755.580836 315.552538 
L 751.367585 321.869757 
L 747.751399 328.235505 
L 744.725833 334.666161 
L 742.280031 341.181326 
L 740.401249 347.803096 
L 739.0769 354.554187 
L 738.295509 361.455415 
L 738.046432 368.523327 
L 738.318658 375.768678 
L 739.099285 383.195991 
L 740.372226 390.804056 
L 742.117408 398.58696 
L 744.310506 406.535281 
L 746.923089 414.637172 
L 749.923009 422.879238 
L 753.274917 431.247168 
L 756.940792 439.726173 
L 760.880453 448.30128 
L 765.052017 456.957519 
L 773.917245 474.454269 
L 801.497182 527.465809 
L 805.767435 536.242905 
L 809.827812 544.973612 
L 813.636486 553.649292 
L 817.152451 562.262354 
L 820.33547 570.806252 
L 823.145971 579.275371 
L 825.544895 587.664763 
L 827.493568 595.969658 
L 828.95368 604.1847 
L 829.887527 612.302896 
L 830.258731 620.314393 
L 830.033599 628.205356 
L 829.183142 635.95742 
L 827.685449 643.548236 
L 825.527757 650.953407 
L 822.70742 658.149539 
L 819.231313 665.117574 
L 815.113858 671.845335 
L 810.374442 678.3286 
L 805.035128 684.570694 
L 799.119252 690.581106 
L 792.650987 696.373811 
L 785.655646 701.965769 
L 778.160402 707.37584 
L 770.19513 712.624126 
L 761.793218 717.731643 
L 752.99226 722.720237 
L 743.834627 727.612606 
L 734.367933 732.432405 
L 714.726254 741.954231 
L 684.432179 756.368793 
L 674.423741 761.323989 
L 664.611476 766.40433 
L 655.09548 771.640863 
L 645.983297 777.063673 
L 637.389473 782.700664 
L 629.434222 788.576074 
L 622.240456 794.709153 
L 615.928196 801.114358 
L 610.606048 807.805979 
L 606.362505 814.81147 
L 603.266136 822.194863 
L 601.386989 830.079329 
L 600.836871 838.644249 
L 601.798329 848.085274 
L 604.514417 858.565449 
L 609.252264 870.195484 
L 616.273727 883.046287 
L 625.826267 897.171556 
L 638.318754 912.840065 
L 638.318754 912.840065 
" clip-path="url(#pd01aaf8b6b)" style="fill: none; stroke: #17becf; stroke-width: 1.5"/>
   </g>
   <g id="patch_3">
    <path d="M 568.458779 961.2 
L 568.458779 129.6 
" style="fill: none; stroke: #000000; stroke-width: 0.8; stroke-linejoin: miter; stroke-linecap: square"/>
   </g>
   <g id="patch_4">
    <path d="M 907.541221 961.2 
L 907.541221 129.6 
" style="fill: none; stroke: #000000; stroke-width: 0.8; stroke-linejoin: miter; stroke-linecap: square"/>
   </g>
   <g id="patch_5">
    <path d="M 568.458779 961.2 
L 907.541221 961.2 
" style="fill: none; stroke: #000000; stroke-width: 0.8; stroke-linejoin: miter; stroke-linecap: square"/>
   </g>
   <g id="patch_6">
    <path d="M 568.458779 129.6 
L 907.541221 129.6 
" style="fill: none; stroke: #000000; stroke-width: 0.8; stroke-linejoin: miter; stroke-linecap: square"/>
   </g>
  </g>
 </g>
 <defs>
  <clipPath id="pd01aaf8b6b">
   <rect x="568.458779" y="129.6" width="339.082442" height="831.6"/>
  </clipPath>
 </defs>
</svg>
