<?xml version="1.0" encoding="utf-8" standalone="no"?>
<!DOCTYPE svg PUBLIC "-//W3C//DTD SVG 1.1//EN"
  "http://www.w3.org/Graphics/SVG/1.1/DTD/svg11.dtd">
<svg xmlns:xlink="http://www.w3.org/1999/xlink" width="1440pt" height="1080pt" viewBox="0 0 1440 1080" xmlns="http://www.w3.org/2000/svg" version="1.1">
 <metadata>
  <rdf:RDF xmlns:dc="http://purl.org/dc/elements/1.1/" xmlns:cc="http://creativecommons.org/ns#" xmlns:rdf="http://www.w3.org/1999/02/22-rdf-syntax-ns#">
   <cc:Work>
    <dc:type rdf:resource="http://purl.org/dc/dcmitype/StillImage"/>
    <dc:date>2023-12-11T12:07:00.462161</dc:date>
    <dc:format>image/svg+xml</dc:format>
    <dc:creator>
     <cc:Agent>
      <dc:title>Matplotlib v3.7.1, https://matplotlib.org/</dc:title>
     </cc:Agent>
    </dc:creator>
   </cc:Work>
  </rdf:RDF>
 </metadata>
 <defs>
  <style type="text/css">*{stroke-linejoin: round; stroke-linecap: butt}</style>
 </defs>
 <g id="figure_1">
  <g id="patch_1">
   <path d="M 0 1080 
L 1440 1080 
L 1440 0 
L 0 0 
z
" style="fill: #ffffff"/>
  </g>
  <g id="axes_1">
   <g id="patch_2">
    <path d="M 556.181235 961.2 
L 919.818765 961.2 
L 919.818765 129.6 
L 556.181235 129.6 
z
" style="fill: #ffffff"/>
   </g>
   <g id="matplotlib.axis_1">
    <g id="xtick_1">
     <g id="line2d_1">
      <defs>
       <path id="m0066705b83" d="M 0 0 
L 0 3.5 
" style="stroke: #000000; stroke-width: 0.8"/>
      </defs>
      <g>
       <use xlink:href="#m0066705b83" x="579.314242" y="961.2" style="stroke: #000000; stroke-width: 0.8"/>
      </g>
     </g>
     <g id="text_1">
      <!-- 1100 -->
      <g transform="translate(566.589242 975.798437) scale(0.1 -0.1)">
       <defs>
        <path id="DejaVuSans-31" d="M 794 531 
L 1825 531 
L 1825 4091 
L 703 3866 
L 703 4441 
L 1819 4666 
L 2450 4666 
L 2450 531 
L 3481 531 
L 3481 0 
L 794 0 
L 794 531 
z
" transform="scale(0.015625)"/>
        <path id="DejaVuSans-30" d="M 2034 4250 
Q 1547 4250 1301 3770 
Q 1056 3291 1056 2328 
Q 1056 1369 1301 889 
Q 1547 409 2034 409 
Q 2525 409 2770 889 
Q 3016 1369 3016 2328 
Q 3016 3291 2770 3770 
Q 2525 4250 2034 4250 
z
M 2034 4750 
Q 2819 4750 3233 4129 
Q 3647 3509 3647 2328 
Q 3647 1150 3233 529 
Q 2819 -91 2034 -91 
Q 1250 -91 836 529 
Q 422 1150 422 2328 
Q 422 3509 836 4129 
Q 1250 4750 2034 4750 
z
" transform="scale(0.015625)"/>
       </defs>
       <use xlink:href="#DejaVuSans-31"/>
       <use xlink:href="#DejaVuSans-31" x="63.623047"/>
       <use xlink:href="#DejaVuSans-30" x="127.246094"/>
       <use xlink:href="#DejaVuSans-30" x="190.869141"/>
      </g>
     </g>
    </g>
    <g id="xtick_2">
     <g id="line2d_2">
      <g>
       <use xlink:href="#m0066705b83" x="627.931823" y="961.2" style="stroke: #000000; stroke-width: 0.8"/>
      </g>
     </g>
     <g id="text_2">
      <!-- 1150 -->
      <g transform="translate(615.206823 975.798437) scale(0.1 -0.1)">
       <defs>
        <path id="DejaVuSans-35" d="M 691 4666 
L 3169 4666 
L 3169 4134 
L 1269 4134 
L 1269 2991 
Q 1406 3038 1543 3061 
Q 1681 3084 1819 3084 
Q 2600 3084 3056 2656 
Q 3513 2228 3513 1497 
Q 3513 744 3044 326 
Q 2575 -91 1722 -91 
Q 1428 -91 1123 -41 
Q 819 9 494 109 
L 494 744 
Q 775 591 1075 516 
Q 1375 441 1709 441 
Q 2250 441 2565 725 
Q 2881 1009 2881 1497 
Q 2881 1984 2565 2268 
Q 2250 2553 1709 2553 
Q 1456 2553 1204 2497 
Q 953 2441 691 2322 
L 691 4666 
z
" transform="scale(0.015625)"/>
       </defs>
       <use xlink:href="#DejaVuSans-31"/>
       <use xlink:href="#DejaVuSans-31" x="63.623047"/>
       <use xlink:href="#DejaVuSans-35" x="127.246094"/>
       <use xlink:href="#DejaVuSans-30" x="190.869141"/>
      </g>
     </g>
    </g>
    <g id="xtick_3">
     <g id="line2d_3">
      <g>
       <use xlink:href="#m0066705b83" x="676.549404" y="961.2" style="stroke: #000000; stroke-width: 0.8"/>
      </g>
     </g>
     <g id="text_3">
      <!-- 1200 -->
      <g transform="translate(663.824404 975.798437) scale(0.1 -0.1)">
       <defs>
        <path id="DejaVuSans-32" d="M 1228 531 
L 3431 531 
L 3431 0 
L 469 0 
L 469 531 
Q 828 903 1448 1529 
Q 2069 2156 2228 2338 
Q 2531 2678 2651 2914 
Q 2772 3150 2772 3378 
Q 2772 3750 2511 3984 
Q 2250 4219 1831 4219 
Q 1534 4219 1204 4116 
Q 875 4013 500 3803 
L 500 4441 
Q 881 4594 1212 4672 
Q 1544 4750 1819 4750 
Q 2544 4750 2975 4387 
Q 3406 4025 3406 3419 
Q 3406 3131 3298 2873 
Q 3191 2616 2906 2266 
Q 2828 2175 2409 1742 
Q 1991 1309 1228 531 
z
" transform="scale(0.015625)"/>
       </defs>
       <use xlink:href="#DejaVuSans-31"/>
       <use xlink:href="#DejaVuSans-32" x="63.623047"/>
       <use xlink:href="#DejaVuSans-30" x="127.246094"/>
       <use xlink:href="#DejaVuSans-30" x="190.869141"/>
      </g>
     </g>
    </g>
    <g id="xtick_4">
     <g id="line2d_4">
      <g>
       <use xlink:href="#m0066705b83" x="725.166985" y="961.2" style="stroke: #000000; stroke-width: 0.8"/>
      </g>
     </g>
     <g id="text_4">
      <!-- 1250 -->
      <g transform="translate(712.441985 975.798437) scale(0.1 -0.1)">
       <use xlink:href="#DejaVuSans-31"/>
       <use xlink:href="#DejaVuSans-32" x="63.623047"/>
       <use xlink:href="#DejaVuSans-35" x="127.246094"/>
       <use xlink:href="#DejaVuSans-30" x="190.869141"/>
      </g>
     </g>
    </g>
    <g id="xtick_5">
     <g id="line2d_5">
      <g>
       <use xlink:href="#m0066705b83" x="773.784566" y="961.2" style="stroke: #000000; stroke-width: 0.8"/>
      </g>
     </g>
     <g id="text_5">
      <!-- 1300 -->
      <g transform="translate(761.059566 975.798437) scale(0.1 -0.1)">
       <defs>
        <path id="DejaVuSans-33" d="M 2597 2516 
Q 3050 2419 3304 2112 
Q 3559 1806 3559 1356 
Q 3559 666 3084 287 
Q 2609 -91 1734 -91 
Q 1441 -91 1130 -33 
Q 819 25 488 141 
L 488 750 
Q 750 597 1062 519 
Q 1375 441 1716 441 
Q 2309 441 2620 675 
Q 2931 909 2931 1356 
Q 2931 1769 2642 2001 
Q 2353 2234 1838 2234 
L 1294 2234 
L 1294 2753 
L 1863 2753 
Q 2328 2753 2575 2939 
Q 2822 3125 2822 3475 
Q 2822 3834 2567 4026 
Q 2313 4219 1838 4219 
Q 1578 4219 1281 4162 
Q 984 4106 628 3988 
L 628 4550 
Q 988 4650 1302 4700 
Q 1616 4750 1894 4750 
Q 2613 4750 3031 4423 
Q 3450 4097 3450 3541 
Q 3450 3153 3228 2886 
Q 3006 2619 2597 2516 
z
" transform="scale(0.015625)"/>
       </defs>
       <use xlink:href="#DejaVuSans-31"/>
       <use xlink:href="#DejaVuSans-33" x="63.623047"/>
       <use xlink:href="#DejaVuSans-30" x="127.246094"/>
       <use xlink:href="#DejaVuSans-30" x="190.869141"/>
      </g>
     </g>
    </g>
    <g id="xtick_6">
     <g id="line2d_6">
      <g>
       <use xlink:href="#m0066705b83" x="822.402147" y="961.2" style="stroke: #000000; stroke-width: 0.8"/>
      </g>
     </g>
     <g id="text_6">
      <!-- 1350 -->
      <g transform="translate(809.677147 975.798437) scale(0.1 -0.1)">
       <use xlink:href="#DejaVuSans-31"/>
       <use xlink:href="#DejaVuSans-33" x="63.623047"/>
       <use xlink:href="#DejaVuSans-35" x="127.246094"/>
       <use xlink:href="#DejaVuSans-30" x="190.869141"/>
      </g>
     </g>
    </g>
    <g id="xtick_7">
     <g id="line2d_7">
      <g>
       <use xlink:href="#m0066705b83" x="871.019729" y="961.2" style="stroke: #000000; stroke-width: 0.8"/>
      </g>
     </g>
     <g id="text_7">
      <!-- 1400 -->
      <g transform="translate(858.294729 975.798437) scale(0.1 -0.1)">
       <defs>
        <path id="DejaVuSans-34" d="M 2419 4116 
L 825 1625 
L 2419 1625 
L 2419 4116 
z
M 2253 4666 
L 3047 4666 
L 3047 1625 
L 3713 1625 
L 3713 1100 
L 3047 1100 
L 3047 0 
L 2419 0 
L 2419 1100 
L 313 1100 
L 313 1709 
L 2253 4666 
z
" transform="scale(0.015625)"/>
       </defs>
       <use xlink:href="#DejaVuSans-31"/>
       <use xlink:href="#DejaVuSans-34" x="63.623047"/>
       <use xlink:href="#DejaVuSans-30" x="127.246094"/>
       <use xlink:href="#DejaVuSans-30" x="190.869141"/>
      </g>
     </g>
    </g>
    <g id="xtick_8">
     <g id="line2d_8">
      <g>
       <use xlink:href="#m0066705b83" x="919.63731" y="961.2" style="stroke: #000000; stroke-width: 0.8"/>
      </g>
     </g>
     <g id="text_8">
      <!-- 1450 -->
      <g transform="translate(906.91231 975.798437) scale(0.1 -0.1)">
       <use xlink:href="#DejaVuSans-31"/>
       <use xlink:href="#DejaVuSans-34" x="63.623047"/>
       <use xlink:href="#DejaVuSans-35" x="127.246094"/>
       <use xlink:href="#DejaVuSans-30" x="190.869141"/>
      </g>
     </g>
    </g>
   </g>
   <g id="matplotlib.axis_2">
    <g id="ytick_1">
     <g id="line2d_9">
      <defs>
       <path id="m57f5c6698c" d="M 0 0 
L -3.5 0 
" style="stroke: #000000; stroke-width: 0.8"/>
      </defs>
      <g>
       <use xlink:href="#m57f5c6698c" x="556.181235" y="867.642665" style="stroke: #000000; stroke-width: 0.8"/>
      </g>
     </g>
     <g id="text_9">
      <!-- 400 -->
      <g transform="translate(530.093735 871.441884) scale(0.1 -0.1)">
       <use xlink:href="#DejaVuSans-34"/>
       <use xlink:href="#DejaVuSans-30" x="63.623047"/>
       <use xlink:href="#DejaVuSans-30" x="127.246094"/>
      </g>
     </g>
    </g>
    <g id="ytick_2">
     <g id="line2d_10">
      <g>
       <use xlink:href="#m57f5c6698c" x="556.181235" y="770.407503" style="stroke: #000000; stroke-width: 0.8"/>
      </g>
     </g>
     <g id="text_10">
      <!-- 500 -->
      <g transform="translate(530.093735 774.206722) scale(0.1 -0.1)">
       <use xlink:href="#DejaVuSans-35"/>
       <use xlink:href="#DejaVuSans-30" x="63.623047"/>
       <use xlink:href="#DejaVuSans-30" x="127.246094"/>
      </g>
     </g>
    </g>
    <g id="ytick_3">
     <g id="line2d_11">
      <g>
       <use xlink:href="#m57f5c6698c" x="556.181235" y="673.172341" style="stroke: #000000; stroke-width: 0.8"/>
      </g>
     </g>
     <g id="text_11">
      <!-- 600 -->
      <g transform="translate(530.093735 676.97156) scale(0.1 -0.1)">
       <defs>
        <path id="DejaVuSans-36" d="M 2113 2584 
Q 1688 2584 1439 2293 
Q 1191 2003 1191 1497 
Q 1191 994 1439 701 
Q 1688 409 2113 409 
Q 2538 409 2786 701 
Q 3034 994 3034 1497 
Q 3034 2003 2786 2293 
Q 2538 2584 2113 2584 
z
M 3366 4563 
L 3366 3988 
Q 3128 4100 2886 4159 
Q 2644 4219 2406 4219 
Q 1781 4219 1451 3797 
Q 1122 3375 1075 2522 
Q 1259 2794 1537 2939 
Q 1816 3084 2150 3084 
Q 2853 3084 3261 2657 
Q 3669 2231 3669 1497 
Q 3669 778 3244 343 
Q 2819 -91 2113 -91 
Q 1303 -91 875 529 
Q 447 1150 447 2328 
Q 447 3434 972 4092 
Q 1497 4750 2381 4750 
Q 2619 4750 2861 4703 
Q 3103 4656 3366 4563 
z
" transform="scale(0.015625)"/>
       </defs>
       <use xlink:href="#DejaVuSans-36"/>
       <use xlink:href="#DejaVuSans-30" x="63.623047"/>
       <use xlink:href="#DejaVuSans-30" x="127.246094"/>
      </g>
     </g>
    </g>
    <g id="ytick_4">
     <g id="line2d_12">
      <g>
       <use xlink:href="#m57f5c6698c" x="556.181235" y="575.937179" style="stroke: #000000; stroke-width: 0.8"/>
      </g>
     </g>
     <g id="text_12">
      <!-- 700 -->
      <g transform="translate(530.093735 579.736397) scale(0.1 -0.1)">
       <defs>
        <path id="DejaVuSans-37" d="M 525 4666 
L 3525 4666 
L 3525 4397 
L 1831 0 
L 1172 0 
L 2766 4134 
L 525 4134 
L 525 4666 
z
" transform="scale(0.015625)"/>
       </defs>
       <use xlink:href="#DejaVuSans-37"/>
       <use xlink:href="#DejaVuSans-30" x="63.623047"/>
       <use xlink:href="#DejaVuSans-30" x="127.246094"/>
      </g>
     </g>
    </g>
    <g id="ytick_5">
     <g id="line2d_13">
      <g>
       <use xlink:href="#m57f5c6698c" x="556.181235" y="478.702016" style="stroke: #000000; stroke-width: 0.8"/>
      </g>
     </g>
     <g id="text_13">
      <!-- 800 -->
      <g transform="translate(530.093735 482.501235) scale(0.1 -0.1)">
       <defs>
        <path id="DejaVuSans-38" d="M 2034 2216 
Q 1584 2216 1326 1975 
Q 1069 1734 1069 1313 
Q 1069 891 1326 650 
Q 1584 409 2034 409 
Q 2484 409 2743 651 
Q 3003 894 3003 1313 
Q 3003 1734 2745 1975 
Q 2488 2216 2034 2216 
z
M 1403 2484 
Q 997 2584 770 2862 
Q 544 3141 544 3541 
Q 544 4100 942 4425 
Q 1341 4750 2034 4750 
Q 2731 4750 3128 4425 
Q 3525 4100 3525 3541 
Q 3525 3141 3298 2862 
Q 3072 2584 2669 2484 
Q 3125 2378 3379 2068 
Q 3634 1759 3634 1313 
Q 3634 634 3220 271 
Q 2806 -91 2034 -91 
Q 1263 -91 848 271 
Q 434 634 434 1313 
Q 434 1759 690 2068 
Q 947 2378 1403 2484 
z
M 1172 3481 
Q 1172 3119 1398 2916 
Q 1625 2713 2034 2713 
Q 2441 2713 2670 2916 
Q 2900 3119 2900 3481 
Q 2900 3844 2670 4047 
Q 2441 4250 2034 4250 
Q 1625 4250 1398 4047 
Q 1172 3844 1172 3481 
z
" transform="scale(0.015625)"/>
       </defs>
       <use xlink:href="#DejaVuSans-38"/>
       <use xlink:href="#DejaVuSans-30" x="63.623047"/>
       <use xlink:href="#DejaVuSans-30" x="127.246094"/>
      </g>
     </g>
    </g>
    <g id="ytick_6">
     <g id="line2d_14">
      <g>
       <use xlink:href="#m57f5c6698c" x="556.181235" y="381.466854" style="stroke: #000000; stroke-width: 0.8"/>
      </g>
     </g>
     <g id="text_14">
      <!-- 900 -->
      <g transform="translate(530.093735 385.266073) scale(0.1 -0.1)">
       <defs>
        <path id="DejaVuSans-39" d="M 703 97 
L 703 672 
Q 941 559 1184 500 
Q 1428 441 1663 441 
Q 2288 441 2617 861 
Q 2947 1281 2994 2138 
Q 2813 1869 2534 1725 
Q 2256 1581 1919 1581 
Q 1219 1581 811 2004 
Q 403 2428 403 3163 
Q 403 3881 828 4315 
Q 1253 4750 1959 4750 
Q 2769 4750 3195 4129 
Q 3622 3509 3622 2328 
Q 3622 1225 3098 567 
Q 2575 -91 1691 -91 
Q 1453 -91 1209 -44 
Q 966 3 703 97 
z
M 1959 2075 
Q 2384 2075 2632 2365 
Q 2881 2656 2881 3163 
Q 2881 3666 2632 3958 
Q 2384 4250 1959 4250 
Q 1534 4250 1286 3958 
Q 1038 3666 1038 3163 
Q 1038 2656 1286 2365 
Q 1534 2075 1959 2075 
z
" transform="scale(0.015625)"/>
       </defs>
       <use xlink:href="#DejaVuSans-39"/>
       <use xlink:href="#DejaVuSans-30" x="63.623047"/>
       <use xlink:href="#DejaVuSans-30" x="127.246094"/>
      </g>
     </g>
    </g>
    <g id="ytick_7">
     <g id="line2d_15">
      <g>
       <use xlink:href="#m57f5c6698c" x="556.181235" y="284.231692" style="stroke: #000000; stroke-width: 0.8"/>
      </g>
     </g>
     <g id="text_15">
      <!-- 1000 -->
      <g transform="translate(523.731235 288.03091) scale(0.1 -0.1)">
       <use xlink:href="#DejaVuSans-31"/>
       <use xlink:href="#DejaVuSans-30" x="63.623047"/>
       <use xlink:href="#DejaVuSans-30" x="127.246094"/>
       <use xlink:href="#DejaVuSans-30" x="190.869141"/>
      </g>
     </g>
    </g>
    <g id="ytick_8">
     <g id="line2d_16">
      <g>
       <use xlink:href="#m57f5c6698c" x="556.181235" y="186.996529" style="stroke: #000000; stroke-width: 0.8"/>
      </g>
     </g>
     <g id="text_16">
      <!-- 1100 -->
      <g transform="translate(523.731235 190.795748) scale(0.1 -0.1)">
       <use xlink:href="#DejaVuSans-31"/>
       <use xlink:href="#DejaVuSans-31" x="63.623047"/>
       <use xlink:href="#DejaVuSans-30" x="127.246094"/>
       <use xlink:href="#DejaVuSans-30" x="190.869141"/>
      </g>
     </g>
    </g>
   </g>
   <g id="LineCollection_1">
    <path d="M 903.289786 891.618164 
L 894.398244 884.443219 
L 887.354935 877.622391 
L 881.161866 870.548721 
L 875.628804 863.228088 
L 870.605412 855.677304 
L 865.969465 847.92575 
L 861.617717 840.012466 
L 857.460317 831.981765 
L 841.266083 799.438111 
L 837.061284 791.420491 
L 832.725235 783.529067 
L 828.238196 775.788359 
L 823.589928 768.217971 
L 818.778778 760.83245 
L 813.810587 753.641254 
L 808.697484 746.648899 
L 803.456679 739.855288 
L 798.109344 733.256222 
L 792.679622 726.844029 
L 787.193802 720.60826 
L 776.165837 708.614508 
L 759.898422 691.579495 
L 749.541548 680.65309 
L 739.864498 669.977904 
L 735.341744 664.704368 
L 731.057508 659.459128 
L 727.029369 654.232089 
L 723.271804 649.013304 
L 719.796007 643.79249 
L 716.609888 638.558475 
L 713.718282 633.298641 
L 711.123418 627.99845 
L 708.825622 622.641183 
L 706.824179 617.207981 
L 705.118234 611.678254 
L 703.707577 606.030442 
L 702.593164 600.243044 
L 701.777286 594.29574 
L 701.263366 588.170434 
L 701.055469 581.852068 
L 701.15763 575.329101 
L 701.573146 568.593659 
L 702.303926 561.641397 
L 703.349994 554.471149 
L 704.709143 547.084468 
L 706.376759 539.485133 
L 708.345771 531.678671 
L 710.606695 523.671937 
L 713.147745 515.472761 
L 715.954975 507.089666 
L 719.012432 498.531648 
L 722.302304 489.808008 
L 725.805056 480.928233 
L 733.363119 462.738605 
L 741.49967 444.039334 
L 762.970811 395.474932 
L 767.209062 385.520972 
L 771.346022 375.505971 
L 775.342405 365.435589 
L 779.156096 355.314285 
L 782.741545 345.144993 
L 786.048932 334.928757 
L 789.022992 324.664378 
L 791.601368 314.348189 
L 793.712335 303.974229 
L 795.271775 293.535294 
L 796.179497 283.025743 
L 796.315572 272.447281 
L 795.53854 261.819025 
L 794.17133 253.390313 
L 793.689065 251.191889 
L 791.420961 243.031174 
L 790.60349 240.663577 
L 787.338138 232.805467 
L 786.138617 230.3846 
L 781.771718 222.86683 
L 780.199245 220.543461 
L 774.617849 213.40719 
L 772.749874 211.329155 
L 765.831614 204.61929 
L 763.796469 202.888875 
L 755.408753 196.654411 
L 753.346277 195.306609 
L 743.345434 189.600995 
L 741.370228 188.611692 
L 727.785203 182.804393 
L 712.455416 177.880826 
L 695.2028 173.848504 
L 675.817894 170.732825 
L 654.067589 168.578081 
L 629.699379 167.446121 
L 602.442981 167.414489 
L 572.710214 168.536369 
L 572.710214 168.536369 
" clip-path="url(#pda22be4910)" style="fill: none; stroke: #1f77b4; stroke-width: 1.5"/>
    <path d="M 890.466761 907.509082 
L 880.85651 899.754181 
L 872.545645 891.705837 
L 865.314804 883.446832 
L 858.968364 875.050044 
L 853.332832 866.579136 
L 848.255296 858.089221 
L 843.601947 849.6275 
L 839.256662 841.23387 
L 835.119653 832.941504 
L 831.106174 824.777404 
L 827.145292 816.762931 
L 823.178712 808.914305 
L 819.159666 801.243085 
L 815.051851 793.756616 
L 810.828426 786.458464 
L 806.471064 779.348818 
L 801.969049 772.424872 
L 797.318431 765.681188 
L 792.521225 759.110035 
L 787.584665 752.701704 
L 782.520492 746.444813 
L 777.344299 740.326577 
L 772.074916 734.333074 
L 766.733836 728.449484 
L 761.344679 722.660309 
L 755.932706 716.949583 
L 750.524358 711.301059 
L 745.146844 705.698383 
L 739.827755 700.12525 
L 734.594717 694.565546 
L 729.475077 689.00348 
L 724.49562 683.423694 
L 719.68231 677.811369 
L 715.060072 672.15231 
L 710.652591 666.433025 
L 706.482137 660.64079 
L 702.569425 654.763707 
L 698.933483 648.790743 
L 695.591554 642.711772 
L 692.559014 636.517596 
L 689.849308 630.199968 
L 687.473905 623.751599 
L 685.442268 617.166163 
L 683.761844 610.438291 
L 682.438058 603.563569 
L 681.474329 596.538514 
L 680.872091 589.360562 
L 680.630824 582.028043 
L 680.748099 574.540151 
L 681.219617 566.896919 
L 682.039268 559.099182 
L 683.199186 551.148549 
L 684.689804 543.047362 
L 686.499918 534.798663 
L 688.616746 526.406159 
L 691.025986 517.874187 
L 693.711869 509.20768 
L 696.657217 500.412133 
L 699.84348 491.493576 
L 703.250782 482.45855 
L 706.857948 473.314079 
L 710.642523 464.067652 
L 714.580784 454.727216 
L 718.647737 445.30116 
L 722.817099 435.798315 
L 727.061265 426.22796 
L 731.351261 416.599833 
L 735.656677 406.924149 
L 739.945579 397.21163 
L 744.184407 387.473539 
L 748.337839 377.721729 
L 752.368647 367.968697 
L 756.237512 358.227655 
L 759.902826 348.512605 
L 763.32046 338.838431 
L 766.443504 329.221005 
L 769.221975 319.677299 
L 771.602497 310.225519 
L 773.527949 300.885247 
L 774.93707 291.677604 
L 775.764038 282.625422 
L 775.938006 273.753436 
L 775.382603 265.088495 
L 774.015392 256.659783 
L 771.747289 248.499067 
L 768.481936 240.640958 
L 764.115038 233.123188 
L 758.533641 225.986917 
L 751.615381 219.277052 
L 743.227665 213.042588 
L 733.226822 207.336974 
L 721.457187 202.218497 
L 707.750141 197.750694 
L 691.923102 194.002779 
L 673.778444 191.050105 
L 653.10238 188.97464 
L 629.663774 187.865474 
L 603.2129 187.819353 
L 573.480132 188.941232 
" clip-path="url(#pda22be4910)" style="fill: none; stroke: #8c564b; stroke-width: 1.5"/>
    <path d="M 877.643736 923.4 
L 866.651355 914.422679 
L 857.182377 905.156532 
L 849.024898 895.759029 
L 841.967543 886.360363 
L 835.808426 877.059901 
L 830.362974 867.928736 
L 825.468399 859.015028 
L 820.984931 850.349521 
L 805.02194 818.258031 
L 801.163505 810.893373 
L 797.262045 803.782986 
L 793.284058 796.908954 
L 789.203673 790.251235 
L 785.001613 783.78861 
L 780.664481 777.4995 
L 776.184303 771.362606 
L 771.558213 765.357309 
L 766.788197 759.463856 
L 761.880814 753.663351 
L 756.846848 747.937616 
L 746.460899 736.640031 
L 730.375416 719.796474 
L 719.570876 708.394337 
L 714.240108 702.599323 
L 708.995814 696.716824 
L 703.867762 690.728463 
L 698.886161 684.616493 
L 694.08162 678.364251 
L 689.485054 671.956726 
L 685.127509 665.381183 
L 681.039823 658.627825 
L 677.252097 651.690389 
L 673.792953 644.566584 
L 670.688619 637.258243 
L 667.961945 629.771125 
L 665.631487 622.114313 
L 663.71081 614.299288 
L 662.208146 606.338801 
L 661.126438 598.245725 
L 660.463751 590.03207 
L 660.213944 581.708277 
L 660.36746 573.282851 
L 660.912113 564.762315 
L 661.833778 556.151404 
L 663.116925 547.453414 
L 664.744995 538.670625 
L 666.700631 529.804719 
L 668.965794 520.857167 
L 671.521794 511.82954 
L 674.349274 502.723766 
L 677.428154 493.542315 
L 680.737574 484.288329 
L 684.255817 474.965719 
L 687.960243 465.579222 
L 695.832064 446.63792 
L 704.150886 427.520408 
L 725.429624 379.397905 
L 733.443441 360.300071 
L 737.194954 350.8545 
L 740.721593 341.507012 
L 743.980114 332.283236 
L 746.925654 323.212434 
L 749.512162 314.328095 
L 751.693166 305.668496 
L 753.423025 297.277035 
L 754.658816 289.201985 
L 755.362895 281.494973 
L 755.5058 274.207146 
L 755.068303 267.381675 
L 754.039915 261.041774 
L 752.409609 255.175876 
L 750.145241 249.726647 
L 747.164601 244.595369 
L 743.312164 239.669715 
L 738.360004 234.866726 
L 732.037085 230.166994 
L 724.069017 225.621105 
L 714.205082 221.331396 
L 702.224083 217.426196 
L 687.92555 214.040239 
L 671.116371 211.304887 
L 651.599004 209.345732 
L 629.163108 208.284016 
L 603.580199 208.239409 
L 574.25005 209.346096 
L 574.25005 209.346096 
" clip-path="url(#pda22be4910)" style="fill: none; stroke: #17becf; stroke-width: 1.5"/>
   </g>
   <g id="patch_3">
    <path d="M 556.181235 961.2 
L 556.181235 129.6 
" style="fill: none; stroke: #000000; stroke-width: 0.8; stroke-linejoin: miter; stroke-linecap: square"/>
   </g>
   <g id="patch_4">
    <path d="M 919.818765 961.2 
L 919.818765 129.6 
" style="fill: none; stroke: #000000; stroke-width: 0.8; stroke-linejoin: miter; stroke-linecap: square"/>
   </g>
   <g id="patch_5">
    <path d="M 556.181235 961.2 
L 919.818765 961.2 
" style="fill: none; stroke: #000000; stroke-width: 0.8; stroke-linejoin: miter; stroke-linecap: square"/>
   </g>
   <g id="patch_6">
    <path d="M 556.181235 129.6 
L 919.818765 129.6 
" style="fill: none; stroke: #000000; stroke-width: 0.8; stroke-linejoin: miter; stroke-linecap: square"/>
   </g>
  </g>
 </g>
 <defs>
  <clipPath id="pda22be4910">
   <rect x="556.181235" y="129.6" width="363.63753" height="831.6"/>
  </clipPath>
 </defs>
</svg>
