<?xml version="1.0" encoding="utf-8" standalone="no"?>
<!DOCTYPE svg PUBLIC "-//W3C//DTD SVG 1.1//EN"
  "http://www.w3.org/Graphics/SVG/1.1/DTD/svg11.dtd">
<svg xmlns:xlink="http://www.w3.org/1999/xlink" width="1440pt" height="1080pt" viewBox="0 0 1440 1080" xmlns="http://www.w3.org/2000/svg" version="1.1">
 <metadata>
  <rdf:RDF xmlns:dc="http://purl.org/dc/elements/1.1/" xmlns:cc="http://creativecommons.org/ns#" xmlns:rdf="http://www.w3.org/1999/02/22-rdf-syntax-ns#">
   <cc:Work>
    <dc:type rdf:resource="http://purl.org/dc/dcmitype/StillImage"/>
    <dc:date>2023-12-11T12:07:00.997634</dc:date>
    <dc:format>image/svg+xml</dc:format>
    <dc:creator>
     <cc:Agent>
      <dc:title>Matplotlib v3.7.1, https://matplotlib.org/</dc:title>
     </cc:Agent>
    </dc:creator>
   </cc:Work>
  </rdf:RDF>
 </metadata>
 <defs>
  <style type="text/css">*{stroke-linejoin: round; stroke-linecap: butt}</style>
 </defs>
 <g id="figure_1">
  <g id="patch_1">
   <path d="M 0 1080 
L 1440 1080 
L 1440 0 
L 0 0 
z
" style="fill: #ffffff"/>
  </g>
  <g id="axes_1">
   <g id="patch_2">
    <path d="M 578.64807 961.2 
L 897.35193 961.2 
L 897.35193 129.6 
L 578.64807 129.6 
z
" style="fill: #ffffff"/>
   </g>
   <g id="matplotlib.axis_1">
    <g id="xtick_1">
     <g id="line2d_1">
      <defs>
       <path id="mc888714846" d="M 0 0 
L 0 3.5 
" style="stroke: #000000; stroke-width: 0.8"/>
      </defs>
      <g>
       <use xlink:href="#mc888714846" x="588.092573" y="961.2" style="stroke: #000000; stroke-width: 0.8"/>
      </g>
     </g>
     <g id="text_1">
      <!-- 400 -->
      <g transform="translate(578.548823 975.798437) scale(0.1 -0.1)">
       <defs>
        <path id="DejaVuSans-34" d="M 2419 4116 
L 825 1625 
L 2419 1625 
L 2419 4116 
z
M 2253 4666 
L 3047 4666 
L 3047 1625 
L 3713 1625 
L 3713 1100 
L 3047 1100 
L 3047 0 
L 2419 0 
L 2419 1100 
L 313 1100 
L 313 1709 
L 2253 4666 
z
" transform="scale(0.015625)"/>
        <path id="DejaVuSans-30" d="M 2034 4250 
Q 1547 4250 1301 3770 
Q 1056 3291 1056 2328 
Q 1056 1369 1301 889 
Q 1547 409 2034 409 
Q 2525 409 2770 889 
Q 3016 1369 3016 2328 
Q 3016 3291 2770 3770 
Q 2525 4250 2034 4250 
z
M 2034 4750 
Q 2819 4750 3233 4129 
Q 3647 3509 3647 2328 
Q 3647 1150 3233 529 
Q 2819 -91 2034 -91 
Q 1250 -91 836 529 
Q 422 1150 422 2328 
Q 422 3509 836 4129 
Q 1250 4750 2034 4750 
z
" transform="scale(0.015625)"/>
       </defs>
       <use xlink:href="#DejaVuSans-34"/>
       <use xlink:href="#DejaVuSans-30" x="63.623047"/>
       <use xlink:href="#DejaVuSans-30" x="127.246094"/>
      </g>
     </g>
    </g>
    <g id="xtick_2">
     <g id="line2d_2">
      <g>
       <use xlink:href="#mc888714846" x="627.070075" y="961.2" style="stroke: #000000; stroke-width: 0.8"/>
      </g>
     </g>
     <g id="text_2">
      <!-- 450 -->
      <g transform="translate(617.526325 975.798437) scale(0.1 -0.1)">
       <defs>
        <path id="DejaVuSans-35" d="M 691 4666 
L 3169 4666 
L 3169 4134 
L 1269 4134 
L 1269 2991 
Q 1406 3038 1543 3061 
Q 1681 3084 1819 3084 
Q 2600 3084 3056 2656 
Q 3513 2228 3513 1497 
Q 3513 744 3044 326 
Q 2575 -91 1722 -91 
Q 1428 -91 1123 -41 
Q 819 9 494 109 
L 494 744 
Q 775 591 1075 516 
Q 1375 441 1709 441 
Q 2250 441 2565 725 
Q 2881 1009 2881 1497 
Q 2881 1984 2565 2268 
Q 2250 2553 1709 2553 
Q 1456 2553 1204 2497 
Q 953 2441 691 2322 
L 691 4666 
z
" transform="scale(0.015625)"/>
       </defs>
       <use xlink:href="#DejaVuSans-34"/>
       <use xlink:href="#DejaVuSans-35" x="63.623047"/>
       <use xlink:href="#DejaVuSans-30" x="127.246094"/>
      </g>
     </g>
    </g>
    <g id="xtick_3">
     <g id="line2d_3">
      <g>
       <use xlink:href="#mc888714846" x="666.047578" y="961.2" style="stroke: #000000; stroke-width: 0.8"/>
      </g>
     </g>
     <g id="text_3">
      <!-- 500 -->
      <g transform="translate(656.503828 975.798437) scale(0.1 -0.1)">
       <use xlink:href="#DejaVuSans-35"/>
       <use xlink:href="#DejaVuSans-30" x="63.623047"/>
       <use xlink:href="#DejaVuSans-30" x="127.246094"/>
      </g>
     </g>
    </g>
    <g id="xtick_4">
     <g id="line2d_4">
      <g>
       <use xlink:href="#mc888714846" x="705.02508" y="961.2" style="stroke: #000000; stroke-width: 0.8"/>
      </g>
     </g>
     <g id="text_4">
      <!-- 550 -->
      <g transform="translate(695.48133 975.798437) scale(0.1 -0.1)">
       <use xlink:href="#DejaVuSans-35"/>
       <use xlink:href="#DejaVuSans-35" x="63.623047"/>
       <use xlink:href="#DejaVuSans-30" x="127.246094"/>
      </g>
     </g>
    </g>
    <g id="xtick_5">
     <g id="line2d_5">
      <g>
       <use xlink:href="#mc888714846" x="744.002583" y="961.2" style="stroke: #000000; stroke-width: 0.8"/>
      </g>
     </g>
     <g id="text_5">
      <!-- 600 -->
      <g transform="translate(734.458833 975.798437) scale(0.1 -0.1)">
       <defs>
        <path id="DejaVuSans-36" d="M 2113 2584 
Q 1688 2584 1439 2293 
Q 1191 2003 1191 1497 
Q 1191 994 1439 701 
Q 1688 409 2113 409 
Q 2538 409 2786 701 
Q 3034 994 3034 1497 
Q 3034 2003 2786 2293 
Q 2538 2584 2113 2584 
z
M 3366 4563 
L 3366 3988 
Q 3128 4100 2886 4159 
Q 2644 4219 2406 4219 
Q 1781 4219 1451 3797 
Q 1122 3375 1075 2522 
Q 1259 2794 1537 2939 
Q 1816 3084 2150 3084 
Q 2853 3084 3261 2657 
Q 3669 2231 3669 1497 
Q 3669 778 3244 343 
Q 2819 -91 2113 -91 
Q 1303 -91 875 529 
Q 447 1150 447 2328 
Q 447 3434 972 4092 
Q 1497 4750 2381 4750 
Q 2619 4750 2861 4703 
Q 3103 4656 3366 4563 
z
" transform="scale(0.015625)"/>
       </defs>
       <use xlink:href="#DejaVuSans-36"/>
       <use xlink:href="#DejaVuSans-30" x="63.623047"/>
       <use xlink:href="#DejaVuSans-30" x="127.246094"/>
      </g>
     </g>
    </g>
    <g id="xtick_6">
     <g id="line2d_6">
      <g>
       <use xlink:href="#mc888714846" x="782.980085" y="961.2" style="stroke: #000000; stroke-width: 0.8"/>
      </g>
     </g>
     <g id="text_6">
      <!-- 650 -->
      <g transform="translate(773.436335 975.798437) scale(0.1 -0.1)">
       <use xlink:href="#DejaVuSans-36"/>
       <use xlink:href="#DejaVuSans-35" x="63.623047"/>
       <use xlink:href="#DejaVuSans-30" x="127.246094"/>
      </g>
     </g>
    </g>
    <g id="xtick_7">
     <g id="line2d_7">
      <g>
       <use xlink:href="#mc888714846" x="821.957588" y="961.2" style="stroke: #000000; stroke-width: 0.8"/>
      </g>
     </g>
     <g id="text_7">
      <!-- 700 -->
      <g transform="translate(812.413838 975.798437) scale(0.1 -0.1)">
       <defs>
        <path id="DejaVuSans-37" d="M 525 4666 
L 3525 4666 
L 3525 4397 
L 1831 0 
L 1172 0 
L 2766 4134 
L 525 4134 
L 525 4666 
z
" transform="scale(0.015625)"/>
       </defs>
       <use xlink:href="#DejaVuSans-37"/>
       <use xlink:href="#DejaVuSans-30" x="63.623047"/>
       <use xlink:href="#DejaVuSans-30" x="127.246094"/>
      </g>
     </g>
    </g>
    <g id="xtick_8">
     <g id="line2d_8">
      <g>
       <use xlink:href="#mc888714846" x="860.93509" y="961.2" style="stroke: #000000; stroke-width: 0.8"/>
      </g>
     </g>
     <g id="text_8">
      <!-- 750 -->
      <g transform="translate(851.39134 975.798437) scale(0.1 -0.1)">
       <use xlink:href="#DejaVuSans-37"/>
       <use xlink:href="#DejaVuSans-35" x="63.623047"/>
       <use xlink:href="#DejaVuSans-30" x="127.246094"/>
      </g>
     </g>
    </g>
   </g>
   <g id="matplotlib.axis_2">
    <g id="ytick_1">
     <g id="line2d_9">
      <defs>
       <path id="m67c2dd8a05" d="M 0 0 
L -3.5 0 
" style="stroke: #000000; stroke-width: 0.8"/>
      </defs>
      <g>
       <use xlink:href="#m67c2dd8a05" x="578.64807" y="915.829015" style="stroke: #000000; stroke-width: 0.8"/>
      </g>
     </g>
     <g id="text_9">
      <!-- 200 -->
      <g transform="translate(552.56057 919.628234) scale(0.1 -0.1)">
       <defs>
        <path id="DejaVuSans-32" d="M 1228 531 
L 3431 531 
L 3431 0 
L 469 0 
L 469 531 
Q 828 903 1448 1529 
Q 2069 2156 2228 2338 
Q 2531 2678 2651 2914 
Q 2772 3150 2772 3378 
Q 2772 3750 2511 3984 
Q 2250 4219 1831 4219 
Q 1534 4219 1204 4116 
Q 875 4013 500 3803 
L 500 4441 
Q 881 4594 1212 4672 
Q 1544 4750 1819 4750 
Q 2544 4750 2975 4387 
Q 3406 4025 3406 3419 
Q 3406 3131 3298 2873 
Q 3191 2616 2906 2266 
Q 2828 2175 2409 1742 
Q 1991 1309 1228 531 
z
" transform="scale(0.015625)"/>
       </defs>
       <use xlink:href="#DejaVuSans-32"/>
       <use xlink:href="#DejaVuSans-30" x="63.623047"/>
       <use xlink:href="#DejaVuSans-30" x="127.246094"/>
      </g>
     </g>
    </g>
    <g id="ytick_2">
     <g id="line2d_10">
      <g>
       <use xlink:href="#m67c2dd8a05" x="578.64807" y="759.919005" style="stroke: #000000; stroke-width: 0.8"/>
      </g>
     </g>
     <g id="text_10">
      <!-- 400 -->
      <g transform="translate(552.56057 763.718224) scale(0.1 -0.1)">
       <use xlink:href="#DejaVuSans-34"/>
       <use xlink:href="#DejaVuSans-30" x="63.623047"/>
       <use xlink:href="#DejaVuSans-30" x="127.246094"/>
      </g>
     </g>
    </g>
    <g id="ytick_3">
     <g id="line2d_11">
      <g>
       <use xlink:href="#m67c2dd8a05" x="578.64807" y="604.008995" style="stroke: #000000; stroke-width: 0.8"/>
      </g>
     </g>
     <g id="text_11">
      <!-- 600 -->
      <g transform="translate(552.56057 607.808214) scale(0.1 -0.1)">
       <use xlink:href="#DejaVuSans-36"/>
       <use xlink:href="#DejaVuSans-30" x="63.623047"/>
       <use xlink:href="#DejaVuSans-30" x="127.246094"/>
      </g>
     </g>
    </g>
    <g id="ytick_4">
     <g id="line2d_12">
      <g>
       <use xlink:href="#m67c2dd8a05" x="578.64807" y="448.098985" style="stroke: #000000; stroke-width: 0.8"/>
      </g>
     </g>
     <g id="text_12">
      <!-- 800 -->
      <g transform="translate(552.56057 451.898204) scale(0.1 -0.1)">
       <defs>
        <path id="DejaVuSans-38" d="M 2034 2216 
Q 1584 2216 1326 1975 
Q 1069 1734 1069 1313 
Q 1069 891 1326 650 
Q 1584 409 2034 409 
Q 2484 409 2743 651 
Q 3003 894 3003 1313 
Q 3003 1734 2745 1975 
Q 2488 2216 2034 2216 
z
M 1403 2484 
Q 997 2584 770 2862 
Q 544 3141 544 3541 
Q 544 4100 942 4425 
Q 1341 4750 2034 4750 
Q 2731 4750 3128 4425 
Q 3525 4100 3525 3541 
Q 3525 3141 3298 2862 
Q 3072 2584 2669 2484 
Q 3125 2378 3379 2068 
Q 3634 1759 3634 1313 
Q 3634 634 3220 271 
Q 2806 -91 2034 -91 
Q 1263 -91 848 271 
Q 434 634 434 1313 
Q 434 1759 690 2068 
Q 947 2378 1403 2484 
z
M 1172 3481 
Q 1172 3119 1398 2916 
Q 1625 2713 2034 2713 
Q 2441 2713 2670 2916 
Q 2900 3119 2900 3481 
Q 2900 3844 2670 4047 
Q 2441 4250 2034 4250 
Q 1625 4250 1398 4047 
Q 1172 3844 1172 3481 
z
" transform="scale(0.015625)"/>
       </defs>
       <use xlink:href="#DejaVuSans-38"/>
       <use xlink:href="#DejaVuSans-30" x="63.623047"/>
       <use xlink:href="#DejaVuSans-30" x="127.246094"/>
      </g>
     </g>
    </g>
    <g id="ytick_5">
     <g id="line2d_13">
      <g>
       <use xlink:href="#m67c2dd8a05" x="578.64807" y="292.188975" style="stroke: #000000; stroke-width: 0.8"/>
      </g>
     </g>
     <g id="text_13">
      <!-- 1000 -->
      <g transform="translate(546.19807 295.988194) scale(0.1 -0.1)">
       <defs>
        <path id="DejaVuSans-31" d="M 794 531 
L 1825 531 
L 1825 4091 
L 703 3866 
L 703 4441 
L 1819 4666 
L 2450 4666 
L 2450 531 
L 3481 531 
L 3481 0 
L 794 0 
L 794 531 
z
" transform="scale(0.015625)"/>
       </defs>
       <use xlink:href="#DejaVuSans-31"/>
       <use xlink:href="#DejaVuSans-30" x="63.623047"/>
       <use xlink:href="#DejaVuSans-30" x="127.246094"/>
       <use xlink:href="#DejaVuSans-30" x="190.869141"/>
      </g>
     </g>
    </g>
    <g id="ytick_6">
     <g id="line2d_14">
      <g>
       <use xlink:href="#m67c2dd8a05" x="578.64807" y="136.278965" style="stroke: #000000; stroke-width: 0.8"/>
      </g>
     </g>
     <g id="text_14">
      <!-- 1200 -->
      <g transform="translate(546.19807 140.078184) scale(0.1 -0.1)">
       <use xlink:href="#DejaVuSans-31"/>
       <use xlink:href="#DejaVuSans-32" x="63.623047"/>
       <use xlink:href="#DejaVuSans-30" x="127.246094"/>
       <use xlink:href="#DejaVuSans-30" x="190.869141"/>
      </g>
     </g>
    </g>
   </g>
   <g id="LineCollection_1">
    <path d="M 607.996138 923.4 
L 623.053007 915.693222 
L 636.438876 907.732212 
L 648.327043 899.563524 
L 658.873737 891.235637 
L 668.221789 882.798033 
L 676.503665 874.299278 
L 683.843392 865.784658 
L 690.357284 857.294037 
L 696.153762 848.860418 
L 701.332721 840.509406 
L 705.984887 832.259462 
L 710.191427 824.122676 
L 714.023911 816.105792 
L 717.544615 808.211278 
L 720.807055 800.438285 
L 723.856685 792.783482 
L 729.463585 777.806551 
L 734.596578 763.226269 
L 739.405079 748.979273 
L 746.187201 728.092866 
L 752.539433 707.611217 
L 756.52817 694.10009 
L 760.294557 680.660738 
L 763.812995 667.268446 
L 767.062632 653.909265 
L 770.033189 640.579412 
L 772.729226 627.2841 
L 775.172684 614.035936 
L 777.403708 600.85307 
L 780.482066 581.249378 
L 784.507996 555.498739 
L 786.692163 542.853506 
L 789.120551 530.385104 
L 791.889596 518.098874 
L 793.430623 512.022529 
L 795.090402 505.98814 
L 796.879025 499.992615 
L 798.805909 494.031893 
L 800.879704 488.100968 
L 803.108178 482.19393 
L 805.498064 476.304043 
L 808.054881 470.423823 
L 810.782705 464.545124 
L 813.683911 458.659201 
L 816.758869 452.756749 
L 820.005635 446.827892 
L 823.419617 440.862122 
L 830.715682 428.773896 
L 838.545212 416.389626 
L 850.960404 396.894996 
L 855.147413 390.076641 
L 859.288017 383.058542 
L 863.330979 375.810201 
L 867.216858 368.298264 
L 870.876692 360.487352 
L 874.23065 352.341688 
L 877.187039 343.827783 
L 879.64232 334.918127 
L 881.482969 325.59533 
L 882.589727 315.855359 
L 882.843881 305.70794 
L 882.133747 295.172643 
L 880.358659 284.270909 
L 877.428423 273.01658 
L 873.258466 261.408427 
L 867.762933 249.426995 
L 860.848503 237.035752 
L 852.410541 224.184842 
L 842.33176 210.815491 
L 830.482667 196.86375 
L 816.722904 182.263127 
L 801.390477 167.4 
L 801.390477 167.4 
" clip-path="url(#p6828773d2c)" style="fill: none; stroke: #1f77b4; stroke-width: 1.5"/>
    <path d="M 600.565374 908.813065 
L 614.716481 901.604316 
L 627.201461 894.216847 
L 638.215906 886.688748 
L 647.937474 879.053966 
L 656.52702 871.342583 
L 664.12969 863.581084 
L 670.875972 855.792614 
L 676.882705 847.997228 
L 682.254051 840.212125 
L 687.082417 832.451876 
L 691.449355 824.728644 
L 695.426403 817.052385 
L 699.075909 809.431052 
L 702.4518 801.870783 
L 705.600327 794.376077 
L 708.560769 786.949965 
L 711.366101 779.594176 
L 714.043631 772.309282 
L 716.615601 765.094852 
L 719.099757 757.949578 
L 721.509884 750.87141 
L 723.856312 743.857673 
L 726.14639 736.90518 
L 728.38493 730.010333 
L 730.574619 723.169227 
L 732.716409 716.377731 
L 734.809871 709.631576 
L 736.853525 702.926429 
L 738.845145 696.257962 
L 740.782032 689.621912 
L 742.661273 683.01414 
L 744.479958 676.430678 
L 746.235392 669.867772 
L 747.925268 663.32192 
L 749.547827 656.789904 
L 751.101991 650.268813 
L 752.587478 643.756069 
L 754.004895 637.249436 
L 755.355809 630.747034 
L 756.642801 624.247344 
L 757.869504 617.749205 
L 759.040616 611.251816 
L 760.161904 604.754721 
L 761.240184 598.257799 
L 762.283292 591.761251 
L 763.300034 585.265571 
L 764.300125 578.77153 
L 765.294114 572.280142 
L 766.293296 565.792635 
L 767.309607 559.31042 
L 768.355517 552.835045 
L 769.4439 546.368163 
L 770.587907 539.911484 
L 771.800814 533.466732 
L 773.095877 527.035595 
L 774.486166 520.619676 
L 775.984397 514.220441 
L 777.602758 507.839164 
L 779.352728 501.476874 
L 781.244886 495.134294 
L 783.288722 488.811786 
L 785.492441 482.509289 
L 787.862759 476.22626 
L 790.404708 469.961614 
L 793.121423 463.713657 
L 796.013941 457.480029 
L 799.080993 451.257639 
L 802.318796 445.042602 
L 805.72085 438.830176 
L 809.277729 432.614701 
L 812.976879 426.389535 
L 816.80242 420.146994 
L 820.734948 413.878289 
L 824.751341 407.573468 
L 828.824572 401.221358 
L 832.923526 394.809504 
L 837.012825 388.324116 
L 841.052655 381.750013 
L 844.998607 375.070569 
L 848.801523 368.267665 
L 852.407346 361.321638 
L 855.756992 354.211237 
L 858.786217 346.913573 
L 861.425508 339.404086 
L 863.599979 331.656499 
L 865.229276 323.642788 
L 866.227507 315.333144 
L 866.503171 306.695948 
L 865.959113 297.697746 
L 864.492487 288.30322 
L 861.994737 278.475179 
L 858.351598 268.174537 
L 853.443105 257.360308 
L 847.14363 245.989598 
L 839.32193 234.017604 
L 829.84122 221.397615 
L 818.559258 208.081026 
L 805.328463 194.017346 
L 789.996036 179.154218 
" clip-path="url(#p6828773d2c)" style="fill: none; stroke: #8c564b; stroke-width: 1.5"/>
    <path d="M 593.134609 894.226129 
L 606.82497 887.252091 
L 618.405131 880.400011 
L 628.531026 873.479214 
L 637.402362 866.512157 
L 645.199852 859.511853 
L 652.084026 852.48386 
L 658.19487 845.428993 
L 663.652566 838.346134 
L 668.559224 831.234538 
L 673.001211 824.095286 
L 677.051618 816.93186 
L 680.772506 809.750026 
L 684.216763 802.557319 
L 687.429531 795.362361 
L 690.449278 788.174202 
L 693.30859 781.001769 
L 696.034803 773.853436 
L 698.650511 766.736745 
L 701.174031 759.658218 
L 703.619833 752.623262 
L 705.998961 745.636134 
L 708.319443 738.699953 
L 710.586702 731.816736 
L 712.803951 724.987465 
L 714.97258 718.212158 
L 717.092516 711.489958 
L 719.162575 704.81922 
L 721.180771 698.197599 
L 723.144611 691.622146 
L 725.051349 685.089393 
L 726.89822 678.595437 
L 728.682637 672.136026 
L 730.402358 665.706635 
L 732.055637 659.302545 
L 733.641336 652.918915 
L 735.159027 646.550861 
L 736.609068 640.193522 
L 737.992667 633.842133 
L 739.311927 627.492091 
L 740.569887 621.13902 
L 741.770548 614.778831 
L 742.91889 608.407771 
L 744.020884 602.022472 
L 745.083491 595.619986 
L 746.114657 589.197811 
L 747.123293 582.753916 
L 748.119246 576.286749 
L 749.112173 569.802293 
L 750.11352 563.300687 
L 750.120315 563.256962 
L 751.136626 556.774746 
L 751.148512 556.700062 
L 752.194422 550.224687 
L 752.212004 550.118073 
L 753.300387 543.651191 
L 753.324417 543.512082 
L 754.468423 537.055404 
L 754.499793 536.883688 
L 755.712701 530.438936 
L 755.752422 530.235005 
L 757.047485 523.803868 
L 757.096648 523.568664 
L 758.486937 517.152745 
L 758.546651 516.887812 
L 760.044882 510.488577 
L 760.116203 510.196093 
L 761.734565 503.814817 
L 761.8184 503.497622 
L 763.56837 497.135332 
L 763.665376 496.796925 
L 765.557533 490.454345 
L 765.668002 490.098856 
L 767.711838 483.776347 
L 767.835594 483.408475 
L 770.039312 477.105978 
L 770.175613 476.730902 
L 772.545932 470.447874 
L 772.693405 470.071129 
L 775.235354 463.806483 
L 775.391952 463.433819 
L 778.108667 457.185863 
L 778.271671 456.823099 
L 781.164189 450.589471 
L 781.330244 450.24235 
L 784.397296 444.01996 
L 784.562491 443.694039 
L 787.800295 437.479002 
L 787.960258 437.179567 
L 791.362312 430.967141 
L 791.512334 430.699186 
L 795.069212 424.483711 
L 795.204369 424.251958 
L 798.903519 418.026791 
L 799.018796 417.835772 
L 802.844337 411.593231 
L 802.934743 411.447426 
L 806.867271 405.178721 
L 806.927946 405.082742 
L 810.944339 398.777921 
L 810.970661 398.736737 
L 815.03774 392.39422 
L 819.103103 386.034913 
L 823.114767 379.672649 
L 827.030423 373.300617 
L 830.804503 366.912106 
L 834.388648 360.500555 
L 837.732405 354.059356 
L 840.784188 347.581236 
L 843.492387 341.056953 
L 845.806362 334.473076 
L 847.676813 327.808706 
L 849.054728 321.031419 
L 849.888188 314.093385 
L 850.116836 306.929341 
L 849.66511 299.458226 
L 848.436634 291.589182 
L 846.312312 283.230488 
L 843.153148 274.298243 
L 838.80645 264.721742 
L 833.112697 254.444375 
L 825.910772 243.421015 
L 817.040667 231.613818 
L 806.344022 218.988103 
L 793.663356 205.509183 
L 778.601594 190.908436 
" clip-path="url(#p6828773d2c)" style="fill: none; stroke: #17becf; stroke-width: 1.5"/>
   </g>
   <g id="patch_3">
    <path d="M 578.64807 961.2 
L 578.64807 129.6 
" style="fill: none; stroke: #000000; stroke-width: 0.8; stroke-linejoin: miter; stroke-linecap: square"/>
   </g>
   <g id="patch_4">
    <path d="M 897.35193 961.2 
L 897.35193 129.6 
" style="fill: none; stroke: #000000; stroke-width: 0.8; stroke-linejoin: miter; stroke-linecap: square"/>
   </g>
   <g id="patch_5">
    <path d="M 578.64807 961.2 
L 897.35193 961.2 
" style="fill: none; stroke: #000000; stroke-width: 0.8; stroke-linejoin: miter; stroke-linecap: square"/>
   </g>
   <g id="patch_6">
    <path d="M 578.64807 129.6 
L 897.35193 129.6 
" style="fill: none; stroke: #000000; stroke-width: 0.8; stroke-linejoin: miter; stroke-linecap: square"/>
   </g>
  </g>
 </g>
 <defs>
  <clipPath id="p6828773d2c">
   <rect x="578.64807" y="129.6" width="318.70386" height="831.6"/>
  </clipPath>
 </defs>
</svg>
