<?xml version="1.0" encoding="utf-8" standalone="no"?>
<!DOCTYPE svg PUBLIC "-//W3C//DTD SVG 1.1//EN"
  "http://www.w3.org/Graphics/SVG/1.1/DTD/svg11.dtd">
<svg xmlns:xlink="http://www.w3.org/1999/xlink" width="1440pt" height="1080pt" viewBox="0 0 1440 1080" xmlns="http://www.w3.org/2000/svg" version="1.1">
 <metadata>
  <rdf:RDF xmlns:dc="http://purl.org/dc/elements/1.1/" xmlns:cc="http://creativecommons.org/ns#" xmlns:rdf="http://www.w3.org/1999/02/22-rdf-syntax-ns#">
   <cc:Work>
    <dc:type rdf:resource="http://purl.org/dc/dcmitype/StillImage"/>
    <dc:date>2023-12-11T12:06:38.090122</dc:date>
    <dc:format>image/svg+xml</dc:format>
    <dc:creator>
     <cc:Agent>
      <dc:title>Matplotlib v3.7.1, https://matplotlib.org/</dc:title>
     </cc:Agent>
    </dc:creator>
   </cc:Work>
  </rdf:RDF>
 </metadata>
 <defs>
  <style type="text/css">*{stroke-linejoin: round; stroke-linecap: butt}</style>
 </defs>
 <g id="figure_1">
  <g id="patch_1">
   <path d="M 0 1080 
L 1440 1080 
L 1440 0 
L 0 0 
z
" style="fill: #ffffff"/>
  </g>
  <g id="axes_1">
   <g id="patch_2">
    <path d="M 180 916.353394 
L 1296 916.353394 
L 1296 174.446606 
L 180 174.446606 
z
" style="fill: #ffffff"/>
   </g>
   <g id="matplotlib.axis_1">
    <g id="xtick_1">
     <g id="line2d_1">
      <defs>
       <path id="m06c4192e6a" d="M 0 0 
L 0 3.5 
" style="stroke: #000000; stroke-width: 0.8"/>
      </defs>
      <g>
       <use xlink:href="#m06c4192e6a" x="212.526726" y="916.353394" style="stroke: #000000; stroke-width: 0.8"/>
      </g>
     </g>
     <g id="text_1">
      <!-- 200 -->
      <g transform="translate(202.982976 930.951832) scale(0.1 -0.1)">
       <defs>
        <path id="DejaVuSans-32" d="M 1228 531 
L 3431 531 
L 3431 0 
L 469 0 
L 469 531 
Q 828 903 1448 1529 
Q 2069 2156 2228 2338 
Q 2531 2678 2651 2914 
Q 2772 3150 2772 3378 
Q 2772 3750 2511 3984 
Q 2250 4219 1831 4219 
Q 1534 4219 1204 4116 
Q 875 4013 500 3803 
L 500 4441 
Q 881 4594 1212 4672 
Q 1544 4750 1819 4750 
Q 2544 4750 2975 4387 
Q 3406 4025 3406 3419 
Q 3406 3131 3298 2873 
Q 3191 2616 2906 2266 
Q 2828 2175 2409 1742 
Q 1991 1309 1228 531 
z
" transform="scale(0.015625)"/>
        <path id="DejaVuSans-30" d="M 2034 4250 
Q 1547 4250 1301 3770 
Q 1056 3291 1056 2328 
Q 1056 1369 1301 889 
Q 1547 409 2034 409 
Q 2525 409 2770 889 
Q 3016 1369 3016 2328 
Q 3016 3291 2770 3770 
Q 2525 4250 2034 4250 
z
M 2034 4750 
Q 2819 4750 3233 4129 
Q 3647 3509 3647 2328 
Q 3647 1150 3233 529 
Q 2819 -91 2034 -91 
Q 1250 -91 836 529 
Q 422 1150 422 2328 
Q 422 3509 836 4129 
Q 1250 4750 2034 4750 
z
" transform="scale(0.015625)"/>
       </defs>
       <use xlink:href="#DejaVuSans-32"/>
       <use xlink:href="#DejaVuSans-30" x="63.623047"/>
       <use xlink:href="#DejaVuSans-30" x="127.246094"/>
      </g>
     </g>
    </g>
    <g id="xtick_2">
     <g id="line2d_2">
      <g>
       <use xlink:href="#m06c4192e6a" x="394.867741" y="916.353394" style="stroke: #000000; stroke-width: 0.8"/>
      </g>
     </g>
     <g id="text_2">
      <!-- 400 -->
      <g transform="translate(385.323991 930.951832) scale(0.1 -0.1)">
       <defs>
        <path id="DejaVuSans-34" d="M 2419 4116 
L 825 1625 
L 2419 1625 
L 2419 4116 
z
M 2253 4666 
L 3047 4666 
L 3047 1625 
L 3713 1625 
L 3713 1100 
L 3047 1100 
L 3047 0 
L 2419 0 
L 2419 1100 
L 313 1100 
L 313 1709 
L 2253 4666 
z
" transform="scale(0.015625)"/>
       </defs>
       <use xlink:href="#DejaVuSans-34"/>
       <use xlink:href="#DejaVuSans-30" x="63.623047"/>
       <use xlink:href="#DejaVuSans-30" x="127.246094"/>
      </g>
     </g>
    </g>
    <g id="xtick_3">
     <g id="line2d_3">
      <g>
       <use xlink:href="#m06c4192e6a" x="577.208756" y="916.353394" style="stroke: #000000; stroke-width: 0.8"/>
      </g>
     </g>
     <g id="text_3">
      <!-- 600 -->
      <g transform="translate(567.665006 930.951832) scale(0.1 -0.1)">
       <defs>
        <path id="DejaVuSans-36" d="M 2113 2584 
Q 1688 2584 1439 2293 
Q 1191 2003 1191 1497 
Q 1191 994 1439 701 
Q 1688 409 2113 409 
Q 2538 409 2786 701 
Q 3034 994 3034 1497 
Q 3034 2003 2786 2293 
Q 2538 2584 2113 2584 
z
M 3366 4563 
L 3366 3988 
Q 3128 4100 2886 4159 
Q 2644 4219 2406 4219 
Q 1781 4219 1451 3797 
Q 1122 3375 1075 2522 
Q 1259 2794 1537 2939 
Q 1816 3084 2150 3084 
Q 2853 3084 3261 2657 
Q 3669 2231 3669 1497 
Q 3669 778 3244 343 
Q 2819 -91 2113 -91 
Q 1303 -91 875 529 
Q 447 1150 447 2328 
Q 447 3434 972 4092 
Q 1497 4750 2381 4750 
Q 2619 4750 2861 4703 
Q 3103 4656 3366 4563 
z
" transform="scale(0.015625)"/>
       </defs>
       <use xlink:href="#DejaVuSans-36"/>
       <use xlink:href="#DejaVuSans-30" x="63.623047"/>
       <use xlink:href="#DejaVuSans-30" x="127.246094"/>
      </g>
     </g>
    </g>
    <g id="xtick_4">
     <g id="line2d_4">
      <g>
       <use xlink:href="#m06c4192e6a" x="759.549771" y="916.353394" style="stroke: #000000; stroke-width: 0.8"/>
      </g>
     </g>
     <g id="text_4">
      <!-- 800 -->
      <g transform="translate(750.006021 930.951832) scale(0.1 -0.1)">
       <defs>
        <path id="DejaVuSans-38" d="M 2034 2216 
Q 1584 2216 1326 1975 
Q 1069 1734 1069 1313 
Q 1069 891 1326 650 
Q 1584 409 2034 409 
Q 2484 409 2743 651 
Q 3003 894 3003 1313 
Q 3003 1734 2745 1975 
Q 2488 2216 2034 2216 
z
M 1403 2484 
Q 997 2584 770 2862 
Q 544 3141 544 3541 
Q 544 4100 942 4425 
Q 1341 4750 2034 4750 
Q 2731 4750 3128 4425 
Q 3525 4100 3525 3541 
Q 3525 3141 3298 2862 
Q 3072 2584 2669 2484 
Q 3125 2378 3379 2068 
Q 3634 1759 3634 1313 
Q 3634 634 3220 271 
Q 2806 -91 2034 -91 
Q 1263 -91 848 271 
Q 434 634 434 1313 
Q 434 1759 690 2068 
Q 947 2378 1403 2484 
z
M 1172 3481 
Q 1172 3119 1398 2916 
Q 1625 2713 2034 2713 
Q 2441 2713 2670 2916 
Q 2900 3119 2900 3481 
Q 2900 3844 2670 4047 
Q 2441 4250 2034 4250 
Q 1625 4250 1398 4047 
Q 1172 3844 1172 3481 
z
" transform="scale(0.015625)"/>
       </defs>
       <use xlink:href="#DejaVuSans-38"/>
       <use xlink:href="#DejaVuSans-30" x="63.623047"/>
       <use xlink:href="#DejaVuSans-30" x="127.246094"/>
      </g>
     </g>
    </g>
    <g id="xtick_5">
     <g id="line2d_5">
      <g>
       <use xlink:href="#m06c4192e6a" x="941.890785" y="916.353394" style="stroke: #000000; stroke-width: 0.8"/>
      </g>
     </g>
     <g id="text_5">
      <!-- 1000 -->
      <g transform="translate(929.165785 930.951832) scale(0.1 -0.1)">
       <defs>
        <path id="DejaVuSans-31" d="M 794 531 
L 1825 531 
L 1825 4091 
L 703 3866 
L 703 4441 
L 1819 4666 
L 2450 4666 
L 2450 531 
L 3481 531 
L 3481 0 
L 794 0 
L 794 531 
z
" transform="scale(0.015625)"/>
       </defs>
       <use xlink:href="#DejaVuSans-31"/>
       <use xlink:href="#DejaVuSans-30" x="63.623047"/>
       <use xlink:href="#DejaVuSans-30" x="127.246094"/>
       <use xlink:href="#DejaVuSans-30" x="190.869141"/>
      </g>
     </g>
    </g>
    <g id="xtick_6">
     <g id="line2d_6">
      <g>
       <use xlink:href="#m06c4192e6a" x="1124.2318" y="916.353394" style="stroke: #000000; stroke-width: 0.8"/>
      </g>
     </g>
     <g id="text_6">
      <!-- 1200 -->
      <g transform="translate(1111.5068 930.951832) scale(0.1 -0.1)">
       <use xlink:href="#DejaVuSans-31"/>
       <use xlink:href="#DejaVuSans-32" x="63.623047"/>
       <use xlink:href="#DejaVuSans-30" x="127.246094"/>
       <use xlink:href="#DejaVuSans-30" x="190.869141"/>
      </g>
     </g>
    </g>
   </g>
   <g id="matplotlib.axis_2">
    <g id="ytick_1">
     <g id="line2d_7">
      <defs>
       <path id="m82c9a56028" d="M 0 0 
L -3.5 0 
" style="stroke: #000000; stroke-width: 0.8"/>
      </defs>
      <g>
       <use xlink:href="#m82c9a56028" x="180" y="835.124583" style="stroke: #000000; stroke-width: 0.8"/>
      </g>
     </g>
     <g id="text_7">
      <!-- 0 -->
      <g transform="translate(166.6375 838.923802) scale(0.1 -0.1)">
       <use xlink:href="#DejaVuSans-30"/>
      </g>
     </g>
    </g>
    <g id="ytick_2">
     <g id="line2d_8">
      <g>
       <use xlink:href="#m82c9a56028" x="180" y="743.954076" style="stroke: #000000; stroke-width: 0.8"/>
      </g>
     </g>
     <g id="text_8">
      <!-- 100 -->
      <g transform="translate(153.9125 747.753295) scale(0.1 -0.1)">
       <use xlink:href="#DejaVuSans-31"/>
       <use xlink:href="#DejaVuSans-30" x="63.623047"/>
       <use xlink:href="#DejaVuSans-30" x="127.246094"/>
      </g>
     </g>
    </g>
    <g id="ytick_3">
     <g id="line2d_9">
      <g>
       <use xlink:href="#m82c9a56028" x="180" y="652.783568" style="stroke: #000000; stroke-width: 0.8"/>
      </g>
     </g>
     <g id="text_9">
      <!-- 200 -->
      <g transform="translate(153.9125 656.582787) scale(0.1 -0.1)">
       <use xlink:href="#DejaVuSans-32"/>
       <use xlink:href="#DejaVuSans-30" x="63.623047"/>
       <use xlink:href="#DejaVuSans-30" x="127.246094"/>
      </g>
     </g>
    </g>
    <g id="ytick_4">
     <g id="line2d_10">
      <g>
       <use xlink:href="#m82c9a56028" x="180" y="561.613061" style="stroke: #000000; stroke-width: 0.8"/>
      </g>
     </g>
     <g id="text_10">
      <!-- 300 -->
      <g transform="translate(153.9125 565.41228) scale(0.1 -0.1)">
       <defs>
        <path id="DejaVuSans-33" d="M 2597 2516 
Q 3050 2419 3304 2112 
Q 3559 1806 3559 1356 
Q 3559 666 3084 287 
Q 2609 -91 1734 -91 
Q 1441 -91 1130 -33 
Q 819 25 488 141 
L 488 750 
Q 750 597 1062 519 
Q 1375 441 1716 441 
Q 2309 441 2620 675 
Q 2931 909 2931 1356 
Q 2931 1769 2642 2001 
Q 2353 2234 1838 2234 
L 1294 2234 
L 1294 2753 
L 1863 2753 
Q 2328 2753 2575 2939 
Q 2822 3125 2822 3475 
Q 2822 3834 2567 4026 
Q 2313 4219 1838 4219 
Q 1578 4219 1281 4162 
Q 984 4106 628 3988 
L 628 4550 
Q 988 4650 1302 4700 
Q 1616 4750 1894 4750 
Q 2613 4750 3031 4423 
Q 3450 4097 3450 3541 
Q 3450 3153 3228 2886 
Q 3006 2619 2597 2516 
z
" transform="scale(0.015625)"/>
       </defs>
       <use xlink:href="#DejaVuSans-33"/>
       <use xlink:href="#DejaVuSans-30" x="63.623047"/>
       <use xlink:href="#DejaVuSans-30" x="127.246094"/>
      </g>
     </g>
    </g>
    <g id="ytick_5">
     <g id="line2d_11">
      <g>
       <use xlink:href="#m82c9a56028" x="180" y="470.442553" style="stroke: #000000; stroke-width: 0.8"/>
      </g>
     </g>
     <g id="text_11">
      <!-- 400 -->
      <g transform="translate(153.9125 474.241772) scale(0.1 -0.1)">
       <use xlink:href="#DejaVuSans-34"/>
       <use xlink:href="#DejaVuSans-30" x="63.623047"/>
       <use xlink:href="#DejaVuSans-30" x="127.246094"/>
      </g>
     </g>
    </g>
    <g id="ytick_6">
     <g id="line2d_12">
      <g>
       <use xlink:href="#m82c9a56028" x="180" y="379.272046" style="stroke: #000000; stroke-width: 0.8"/>
      </g>
     </g>
     <g id="text_12">
      <!-- 500 -->
      <g transform="translate(153.9125 383.071265) scale(0.1 -0.1)">
       <defs>
        <path id="DejaVuSans-35" d="M 691 4666 
L 3169 4666 
L 3169 4134 
L 1269 4134 
L 1269 2991 
Q 1406 3038 1543 3061 
Q 1681 3084 1819 3084 
Q 2600 3084 3056 2656 
Q 3513 2228 3513 1497 
Q 3513 744 3044 326 
Q 2575 -91 1722 -91 
Q 1428 -91 1123 -41 
Q 819 9 494 109 
L 494 744 
Q 775 591 1075 516 
Q 1375 441 1709 441 
Q 2250 441 2565 725 
Q 2881 1009 2881 1497 
Q 2881 1984 2565 2268 
Q 2250 2553 1709 2553 
Q 1456 2553 1204 2497 
Q 953 2441 691 2322 
L 691 4666 
z
" transform="scale(0.015625)"/>
       </defs>
       <use xlink:href="#DejaVuSans-35"/>
       <use xlink:href="#DejaVuSans-30" x="63.623047"/>
       <use xlink:href="#DejaVuSans-30" x="127.246094"/>
      </g>
     </g>
    </g>
    <g id="ytick_7">
     <g id="line2d_13">
      <g>
       <use xlink:href="#m82c9a56028" x="180" y="288.101538" style="stroke: #000000; stroke-width: 0.8"/>
      </g>
     </g>
     <g id="text_13">
      <!-- 600 -->
      <g transform="translate(153.9125 291.900757) scale(0.1 -0.1)">
       <use xlink:href="#DejaVuSans-36"/>
       <use xlink:href="#DejaVuSans-30" x="63.623047"/>
       <use xlink:href="#DejaVuSans-30" x="127.246094"/>
      </g>
     </g>
    </g>
    <g id="ytick_8">
     <g id="line2d_14">
      <g>
       <use xlink:href="#m82c9a56028" x="180" y="196.931031" style="stroke: #000000; stroke-width: 0.8"/>
      </g>
     </g>
     <g id="text_14">
      <!-- 700 -->
      <g transform="translate(153.9125 200.73025) scale(0.1 -0.1)">
       <defs>
        <path id="DejaVuSans-37" d="M 525 4666 
L 3525 4666 
L 3525 4397 
L 1831 0 
L 1172 0 
L 2766 4134 
L 525 4134 
L 525 4666 
z
" transform="scale(0.015625)"/>
       </defs>
       <use xlink:href="#DejaVuSans-37"/>
       <use xlink:href="#DejaVuSans-30" x="63.623047"/>
       <use xlink:href="#DejaVuSans-30" x="127.246094"/>
      </g>
     </g>
    </g>
   </g>
   <g id="LineCollection_1">
    <path d="M 1220.176681 735.8669 
L 1193.123644 753.707378 
L 1167.626827 769.717181 
L 1143.513128 783.988989 
L 1120.786462 796.509982 
L 1099.449588 807.280084 
L 1079.504766 816.312654 
L 1060.953935 823.635793 
L 1043.797891 829.294385 
L 1028.033622 833.352692 
L 1013.648723 835.896748 
L 1000.612092 837.034741 
L 988.861553 836.892307 
L 978.292351 835.599556 
L 968.754281 833.269788 
L 960.065161 829.976944 
L 952.040255 825.744606 
L 944.52498 820.555466 
L 937.414306 814.376739 
L 930.652004 807.186868 
L 924.216001 798.991485 
L 918.100764 789.826455 
L 912.303886 779.752715 
L 906.818609 768.84839 
L 901.630982 757.201578 
L 896.719718 744.904957 
L 892.057276 732.052203 
L 887.611301 718.735762 
L 883.346007 705.045528 
L 879.223359 691.068071 
L 871.24806 662.578615 
L 863.351114 633.824063 
L 859.335111 619.528734 
L 855.224596 605.379383 
L 850.981753 591.432289 
L 846.569717 577.739349 
L 841.952573 564.34821 
L 837.095357 551.302513 
L 831.964095 538.642279 
L 826.525937 526.404443 
L 820.749477 514.623551 
L 814.605333 503.332574 
L 808.067098 492.563732 
L 801.112705 482.349171 
L 793.726168 472.721218 
L 785.899501 463.711938 
L 777.634448 455.351776 
L 768.943505 447.667291 
L 759.849755 440.678277 
L 750.385309 434.394899 
L 740.588521 428.815568 
L 730.500612 423.926075 
L 720.16245 419.70015 
L 709.612159 416.101134 
L 698.883836 413.084259 
L 688.007337 410.598972 
L 677.008833 408.590939 
L 665.911773 407.003571 
L 654.737954 405.779053 
L 643.508483 404.859009 
L 632.244545 404.184899 
L 620.967917 403.698299 
L 598.468227 403.055882 
L 576.099983 402.472206 
L 565.05913 402.064076 
L 554.151705 401.507849 
L 543.401664 400.75363 
L 532.831152 399.754561 
L 522.459456 398.467169 
L 512.301812 396.851541 
L 502.36817 394.871229 
L 492.662052 392.49284 
L 483.179732 389.68531 
L 473.909956 386.418989 
L 464.834399 382.664786 
L 455.928867 378.393725 
L 447.165051 373.577232 
L 438.512423 368.188362 
L 429.93976 362.203885 
L 421.415884 355.60693 
L 412.909428 348.389736 
L 404.387674 340.556103 
L 395.814728 332.123276 
L 387.149314 323.123233 
L 378.342421 313.603467 
L 350.294076 282.513177 
L 340.099859 271.632098 
L 329.300393 260.725362 
L 317.744692 249.962707 
L 305.261436 239.55158 
L 291.66651 229.748354 
L 278.812837 221.96291 
L 276.779991 220.868333 
L 262.900999 214.279025 
L 260.452753 213.286168 
L 245.381663 208.169642 
L 245.381663 208.169642 
" clip-path="url(#p4940284ca0)" style="fill: none; stroke: #1f77b4; stroke-width: 1.5"/>
    <path d="M 1232.724704 754.894537 
L 1205.459434 772.874975 
L 1179.493631 789.17926 
L 1154.819616 803.782694 
L 1131.424546 816.671936 
L 1109.290777 827.844283 
L 1088.396199 837.306976 
L 1068.714583 845.076505 
L 1050.215903 851.17794 
L 1032.866669 855.644275 
L 1016.630232 858.515787 
L 1001.467102 859.839406 
L 987.335239 859.668108 
L 974.190354 858.060317 
L 961.986186 855.079328 
L 950.674785 850.792739 
L 940.206776 845.271908 
L 930.531622 838.591417 
L 921.597879 830.828557 
L 913.353433 822.06283 
L 905.745744 812.375462 
L 898.722069 801.848939 
L 892.229685 790.566557 
L 886.216095 778.611985 
L 880.629236 766.068851 
L 875.417667 753.020339 
L 870.530759 739.54881 
L 865.918871 725.73543 
L 861.533512 711.659828 
L 857.327508 697.399759 
L 853.255144 683.03079 
L 849.272309 668.626008 
L 845.336628 654.255738 
L 841.407582 639.98728 
L 837.446622 625.884669 
L 833.417274 612.008449 
L 829.28523 598.415464 
L 825.018441 585.158671 
L 820.587181 572.286968 
L 815.964123 559.845043 
L 811.124392 547.873239 
L 806.045608 536.40744 
L 800.707929 525.478973 
L 795.094073 515.114534 
L 789.189338 505.336124 
L 782.981606 496.161017 
L 776.461344 487.601733 
L 769.621588 479.666041 
L 762.457921 472.356977 
L 754.968435 465.672881 
L 747.153696 459.607458 
L 739.016679 454.14985 
L 730.562711 449.284739 
L 721.799393 444.992462 
L 712.736511 441.249147 
L 703.385945 438.026875 
L 693.761554 435.293853 
L 683.879066 433.014618 
L 673.755941 431.150251 
L 663.411236 429.658618 
L 652.865452 428.494633 
L 642.140369 427.610538 
L 631.258876 426.956203 
L 620.244787 426.479452 
L 609.122638 426.126407 
L 597.917487 425.841854 
L 586.654691 425.569631 
L 575.359676 425.253034 
L 564.057695 424.835252 
L 552.773575 424.259815 
L 541.531449 423.471072 
L 530.354482 422.414683 
L 519.264577 421.038144 
L 508.282079 419.291318 
L 497.425458 417.127006 
L 486.710985 414.50153 
L 476.152395 411.375337 
L 465.760534 407.713635 
L 455.543004 403.487043 
L 445.503778 398.672267 
L 435.642825 393.2528 
L 425.955701 387.219644 
L 416.433143 380.572057 
L 407.06064 373.318316 
L 397.818 365.476517 
L 388.678897 357.075385 
L 379.610409 348.155114 
L 370.572541 338.768233 
L 361.517738 328.980491 
L 352.390382 318.871765 
L 343.126278 308.537001 
L 333.652123 298.08717 
L 323.884968 287.650249 
L 313.73166 277.372235 
L 303.088275 267.418172 
L 291.839538 257.973211 
L 279.858223 249.243691 
L 267.00455 241.458247 
L 253.125557 234.86894 
L 238.054468 229.752414 
" clip-path="url(#p4940284ca0)" style="fill: none; stroke: #8c564b; stroke-width: 1.5"/>
    <path d="M 1245.272727 773.922173 
L 1217.579921 792.177763 
L 1191.102655 808.793908 
L 1165.818189 823.746041 
L 1141.695206 837.019353 
L 1118.69373 848.60695 
L 1096.765326 858.507485 
L 1075.853976 866.722126 
L 1055.898293 873.250871 
L 1036.836082 878.088597 
L 1018.612307 881.222068 
L 1003.449177 882.545687 
L 1001.190843 882.630358 
L 987.058981 882.45906 
L 984.568027 882.29213 
L 971.423141 880.684339 
L 968.782029 880.201994 
L 956.577861 877.221005 
L 953.90918 876.39284 
L 942.597779 872.106252 
L 940.042083 870.953332 
L 929.574074 865.432501 
L 927.25618 864.027865 
L 917.581027 857.347374 
L 915.581742 855.796211 
L 906.647998 848.033351 
L 904.994947 846.444143 
L 895.427744 836.140241 
L 886.786115 825.026008 
L 878.966793 813.217003 
L 871.868134 800.809167 
L 865.395411 787.885763 
L 859.462433 774.522861 
L 853.991269 760.79294 
L 848.911266 746.766935 
L 844.157933 732.515212 
L 839.671983 718.107882 
L 835.398575 703.614721 
L 827.289233 674.646658 
L 819.448315 646.094471 
L 815.530188 632.144366 
L 811.568514 618.501203 
L 807.531867 605.222035 
L 803.392342 592.360651 
L 799.125704 579.967133 
L 794.711522 568.087351 
L 790.133278 556.762376 
L 785.37838 546.027776 
L 780.438025 535.912798 
L 775.306817 526.439436 
L 769.982051 517.621473 
L 764.462579 509.463622 
L 758.74725 501.96099 
L 752.833039 495.099143 
L 746.713138 488.855031 
L 740.375471 483.198892 
L 733.80214 478.096989 
L 726.970166 473.514691 
L 719.85357 469.419214 
L 712.426356 465.781361 
L 704.665712 462.57592 
L 696.55467 459.780797 
L 688.083756 457.375327 
L 679.251495 455.338309 
L 670.063961 453.646249 
L 660.533725 452.272057 
L 650.678513 451.184294 
L 640.519861 450.346891 
L 630.081902 449.719226 
L 619.390359 449.256437 
L 597.352803 448.62749 
L 574.517712 448.030105 
L 562.896887 447.5983 
L 551.178374 446.996551 
L 539.386768 446.162572 
L 527.546882 445.033729 
L 515.684291 443.547817 
L 503.825961 441.6441 
L 492.000835 439.264696 
L 480.240202 436.356342 
L 468.577613 432.872465 
L 457.048111 428.77539 
L 445.686668 424.038356 
L 434.525894 418.646999 
L 423.593359 412.600001 
L 412.908976 405.90886 
L 402.482983 398.596952 
L 392.314807 390.698311 
L 382.392909 382.256577 
L 372.695413 373.324448 
L 363.191239 363.963805 
L 353.841458 354.246435 
L 344.600683 344.255212 
L 316.887189 313.529747 
L 307.453545 303.449208 
L 297.833629 293.711138 
L 287.964884 284.481545 
L 277.783757 275.932999 
L 267.220284 268.23651 
L 256.184931 261.552419 
L 244.54542 256.026347 
L 230.727273 251.335186 
L 230.727273 251.335186 
" clip-path="url(#p4940284ca0)" style="fill: none; stroke: #17becf; stroke-width: 1.5"/>
   </g>
   <g id="patch_3">
    <path d="M 180 916.353394 
L 180 174.446606 
" style="fill: none; stroke: #000000; stroke-width: 0.8; stroke-linejoin: miter; stroke-linecap: square"/>
   </g>
   <g id="patch_4">
    <path d="M 1296 916.353394 
L 1296 174.446606 
" style="fill: none; stroke: #000000; stroke-width: 0.8; stroke-linejoin: miter; stroke-linecap: square"/>
   </g>
   <g id="patch_5">
    <path d="M 180 916.353394 
L 1296 916.353394 
" style="fill: none; stroke: #000000; stroke-width: 0.8; stroke-linejoin: miter; stroke-linecap: square"/>
   </g>
   <g id="patch_6">
    <path d="M 180 174.446606 
L 1296 174.446606 
" style="fill: none; stroke: #000000; stroke-width: 0.8; stroke-linejoin: miter; stroke-linecap: square"/>
   </g>
  </g>
 </g>
 <defs>
  <clipPath id="p4940284ca0">
   <rect x="180" y="174.446606" width="1116" height="741.906788"/>
  </clipPath>
 </defs>
</svg>
