<?xml version="1.0" encoding="utf-8" standalone="no"?>
<!DOCTYPE svg PUBLIC "-//W3C//DTD SVG 1.1//EN"
  "http://www.w3.org/Graphics/SVG/1.1/DTD/svg11.dtd">
<svg xmlns:xlink="http://www.w3.org/1999/xlink" width="1440pt" height="1080pt" viewBox="0 0 1440 1080" xmlns="http://www.w3.org/2000/svg" version="1.1">
 <metadata>
  <rdf:RDF xmlns:dc="http://purl.org/dc/elements/1.1/" xmlns:cc="http://creativecommons.org/ns#" xmlns:rdf="http://www.w3.org/1999/02/22-rdf-syntax-ns#">
   <cc:Work>
    <dc:type rdf:resource="http://purl.org/dc/dcmitype/StillImage"/>
    <dc:date>2023-12-11T12:06:52.880806</dc:date>
    <dc:format>image/svg+xml</dc:format>
    <dc:creator>
     <cc:Agent>
      <dc:title>Matplotlib v3.7.1, https://matplotlib.org/</dc:title>
     </cc:Agent>
    </dc:creator>
   </cc:Work>
  </rdf:RDF>
 </metadata>
 <defs>
  <style type="text/css">*{stroke-linejoin: round; stroke-linecap: butt}</style>
 </defs>
 <g id="figure_1">
  <g id="patch_1">
   <path d="M 0 1080 
L 1440 1080 
L 1440 0 
L 0 0 
z
" style="fill: #ffffff"/>
  </g>
  <g id="axes_1">
   <g id="patch_2">
    <path d="M 552.038467 961.2 
L 923.961533 961.2 
L 923.961533 129.6 
L 552.038467 129.6 
z
" style="fill: #ffffff"/>
   </g>
   <g id="matplotlib.axis_1">
    <g id="xtick_1">
     <g id="line2d_1">
      <defs>
       <path id="ma361c3aca3" d="M 0 0 
L 0 3.5 
" style="stroke: #000000; stroke-width: 0.8"/>
      </defs>
      <g>
       <use xlink:href="#ma361c3aca3" x="553.112477" y="961.2" style="stroke: #000000; stroke-width: 0.8"/>
      </g>
     </g>
     <g id="text_1">
      <!-- 900 -->
      <g transform="translate(543.568727 975.798437) scale(0.1 -0.1)">
       <defs>
        <path id="DejaVuSans-39" d="M 703 97 
L 703 672 
Q 941 559 1184 500 
Q 1428 441 1663 441 
Q 2288 441 2617 861 
Q 2947 1281 2994 2138 
Q 2813 1869 2534 1725 
Q 2256 1581 1919 1581 
Q 1219 1581 811 2004 
Q 403 2428 403 3163 
Q 403 3881 828 4315 
Q 1253 4750 1959 4750 
Q 2769 4750 3195 4129 
Q 3622 3509 3622 2328 
Q 3622 1225 3098 567 
Q 2575 -91 1691 -91 
Q 1453 -91 1209 -44 
Q 966 3 703 97 
z
M 1959 2075 
Q 2384 2075 2632 2365 
Q 2881 2656 2881 3163 
Q 2881 3666 2632 3958 
Q 2384 4250 1959 4250 
Q 1534 4250 1286 3958 
Q 1038 3666 1038 3163 
Q 1038 2656 1286 2365 
Q 1534 2075 1959 2075 
z
" transform="scale(0.015625)"/>
        <path id="DejaVuSans-30" d="M 2034 4250 
Q 1547 4250 1301 3770 
Q 1056 3291 1056 2328 
Q 1056 1369 1301 889 
Q 1547 409 2034 409 
Q 2525 409 2770 889 
Q 3016 1369 3016 2328 
Q 3016 3291 2770 3770 
Q 2525 4250 2034 4250 
z
M 2034 4750 
Q 2819 4750 3233 4129 
Q 3647 3509 3647 2328 
Q 3647 1150 3233 529 
Q 2819 -91 2034 -91 
Q 1250 -91 836 529 
Q 422 1150 422 2328 
Q 422 3509 836 4129 
Q 1250 4750 2034 4750 
z
" transform="scale(0.015625)"/>
       </defs>
       <use xlink:href="#DejaVuSans-39"/>
       <use xlink:href="#DejaVuSans-30" x="63.623047"/>
       <use xlink:href="#DejaVuSans-30" x="127.246094"/>
      </g>
     </g>
    </g>
    <g id="xtick_2">
     <g id="line2d_2">
      <g>
       <use xlink:href="#ma361c3aca3" x="606.23973" y="961.2" style="stroke: #000000; stroke-width: 0.8"/>
      </g>
     </g>
     <g id="text_2">
      <!-- 950 -->
      <g transform="translate(596.69598 975.798437) scale(0.1 -0.1)">
       <defs>
        <path id="DejaVuSans-35" d="M 691 4666 
L 3169 4666 
L 3169 4134 
L 1269 4134 
L 1269 2991 
Q 1406 3038 1543 3061 
Q 1681 3084 1819 3084 
Q 2600 3084 3056 2656 
Q 3513 2228 3513 1497 
Q 3513 744 3044 326 
Q 2575 -91 1722 -91 
Q 1428 -91 1123 -41 
Q 819 9 494 109 
L 494 744 
Q 775 591 1075 516 
Q 1375 441 1709 441 
Q 2250 441 2565 725 
Q 2881 1009 2881 1497 
Q 2881 1984 2565 2268 
Q 2250 2553 1709 2553 
Q 1456 2553 1204 2497 
Q 953 2441 691 2322 
L 691 4666 
z
" transform="scale(0.015625)"/>
       </defs>
       <use xlink:href="#DejaVuSans-39"/>
       <use xlink:href="#DejaVuSans-35" x="63.623047"/>
       <use xlink:href="#DejaVuSans-30" x="127.246094"/>
      </g>
     </g>
    </g>
    <g id="xtick_3">
     <g id="line2d_3">
      <g>
       <use xlink:href="#ma361c3aca3" x="659.366983" y="961.2" style="stroke: #000000; stroke-width: 0.8"/>
      </g>
     </g>
     <g id="text_3">
      <!-- 1000 -->
      <g transform="translate(646.641983 975.798437) scale(0.1 -0.1)">
       <defs>
        <path id="DejaVuSans-31" d="M 794 531 
L 1825 531 
L 1825 4091 
L 703 3866 
L 703 4441 
L 1819 4666 
L 2450 4666 
L 2450 531 
L 3481 531 
L 3481 0 
L 794 0 
L 794 531 
z
" transform="scale(0.015625)"/>
       </defs>
       <use xlink:href="#DejaVuSans-31"/>
       <use xlink:href="#DejaVuSans-30" x="63.623047"/>
       <use xlink:href="#DejaVuSans-30" x="127.246094"/>
       <use xlink:href="#DejaVuSans-30" x="190.869141"/>
      </g>
     </g>
    </g>
    <g id="xtick_4">
     <g id="line2d_4">
      <g>
       <use xlink:href="#ma361c3aca3" x="712.494236" y="961.2" style="stroke: #000000; stroke-width: 0.8"/>
      </g>
     </g>
     <g id="text_4">
      <!-- 1050 -->
      <g transform="translate(699.769236 975.798437) scale(0.1 -0.1)">
       <use xlink:href="#DejaVuSans-31"/>
       <use xlink:href="#DejaVuSans-30" x="63.623047"/>
       <use xlink:href="#DejaVuSans-35" x="127.246094"/>
       <use xlink:href="#DejaVuSans-30" x="190.869141"/>
      </g>
     </g>
    </g>
    <g id="xtick_5">
     <g id="line2d_5">
      <g>
       <use xlink:href="#ma361c3aca3" x="765.621489" y="961.2" style="stroke: #000000; stroke-width: 0.8"/>
      </g>
     </g>
     <g id="text_5">
      <!-- 1100 -->
      <g transform="translate(752.896489 975.798437) scale(0.1 -0.1)">
       <use xlink:href="#DejaVuSans-31"/>
       <use xlink:href="#DejaVuSans-31" x="63.623047"/>
       <use xlink:href="#DejaVuSans-30" x="127.246094"/>
       <use xlink:href="#DejaVuSans-30" x="190.869141"/>
      </g>
     </g>
    </g>
    <g id="xtick_6">
     <g id="line2d_6">
      <g>
       <use xlink:href="#ma361c3aca3" x="818.748742" y="961.2" style="stroke: #000000; stroke-width: 0.8"/>
      </g>
     </g>
     <g id="text_6">
      <!-- 1150 -->
      <g transform="translate(806.023742 975.798437) scale(0.1 -0.1)">
       <use xlink:href="#DejaVuSans-31"/>
       <use xlink:href="#DejaVuSans-31" x="63.623047"/>
       <use xlink:href="#DejaVuSans-35" x="127.246094"/>
       <use xlink:href="#DejaVuSans-30" x="190.869141"/>
      </g>
     </g>
    </g>
    <g id="xtick_7">
     <g id="line2d_7">
      <g>
       <use xlink:href="#ma361c3aca3" x="871.875995" y="961.2" style="stroke: #000000; stroke-width: 0.8"/>
      </g>
     </g>
     <g id="text_7">
      <!-- 1200 -->
      <g transform="translate(859.150995 975.798437) scale(0.1 -0.1)">
       <defs>
        <path id="DejaVuSans-32" d="M 1228 531 
L 3431 531 
L 3431 0 
L 469 0 
L 469 531 
Q 828 903 1448 1529 
Q 2069 2156 2228 2338 
Q 2531 2678 2651 2914 
Q 2772 3150 2772 3378 
Q 2772 3750 2511 3984 
Q 2250 4219 1831 4219 
Q 1534 4219 1204 4116 
Q 875 4013 500 3803 
L 500 4441 
Q 881 4594 1212 4672 
Q 1544 4750 1819 4750 
Q 2544 4750 2975 4387 
Q 3406 4025 3406 3419 
Q 3406 3131 3298 2873 
Q 3191 2616 2906 2266 
Q 2828 2175 2409 1742 
Q 1991 1309 1228 531 
z
" transform="scale(0.015625)"/>
       </defs>
       <use xlink:href="#DejaVuSans-31"/>
       <use xlink:href="#DejaVuSans-32" x="63.623047"/>
       <use xlink:href="#DejaVuSans-30" x="127.246094"/>
       <use xlink:href="#DejaVuSans-30" x="190.869141"/>
      </g>
     </g>
    </g>
   </g>
   <g id="matplotlib.axis_2">
    <g id="ytick_1">
     <g id="line2d_8">
      <defs>
       <path id="m1bd615bd7d" d="M 0 0 
L -3.5 0 
" style="stroke: #000000; stroke-width: 0.8"/>
      </defs>
      <g>
       <use xlink:href="#m1bd615bd7d" x="552.038467" y="868.011636" style="stroke: #000000; stroke-width: 0.8"/>
      </g>
     </g>
     <g id="text_8">
      <!-- 600 -->
      <g transform="translate(525.950967 871.810855) scale(0.1 -0.1)">
       <defs>
        <path id="DejaVuSans-36" d="M 2113 2584 
Q 1688 2584 1439 2293 
Q 1191 2003 1191 1497 
Q 1191 994 1439 701 
Q 1688 409 2113 409 
Q 2538 409 2786 701 
Q 3034 994 3034 1497 
Q 3034 2003 2786 2293 
Q 2538 2584 2113 2584 
z
M 3366 4563 
L 3366 3988 
Q 3128 4100 2886 4159 
Q 2644 4219 2406 4219 
Q 1781 4219 1451 3797 
Q 1122 3375 1075 2522 
Q 1259 2794 1537 2939 
Q 1816 3084 2150 3084 
Q 2853 3084 3261 2657 
Q 3669 2231 3669 1497 
Q 3669 778 3244 343 
Q 2819 -91 2113 -91 
Q 1303 -91 875 529 
Q 447 1150 447 2328 
Q 447 3434 972 4092 
Q 1497 4750 2381 4750 
Q 2619 4750 2861 4703 
Q 3103 4656 3366 4563 
z
" transform="scale(0.015625)"/>
       </defs>
       <use xlink:href="#DejaVuSans-36"/>
       <use xlink:href="#DejaVuSans-30" x="63.623047"/>
       <use xlink:href="#DejaVuSans-30" x="127.246094"/>
      </g>
     </g>
    </g>
    <g id="ytick_2">
     <g id="line2d_9">
      <g>
       <use xlink:href="#m1bd615bd7d" x="552.038467" y="761.75713" style="stroke: #000000; stroke-width: 0.8"/>
      </g>
     </g>
     <g id="text_9">
      <!-- 700 -->
      <g transform="translate(525.950967 765.556349) scale(0.1 -0.1)">
       <defs>
        <path id="DejaVuSans-37" d="M 525 4666 
L 3525 4666 
L 3525 4397 
L 1831 0 
L 1172 0 
L 2766 4134 
L 525 4134 
L 525 4666 
z
" transform="scale(0.015625)"/>
       </defs>
       <use xlink:href="#DejaVuSans-37"/>
       <use xlink:href="#DejaVuSans-30" x="63.623047"/>
       <use xlink:href="#DejaVuSans-30" x="127.246094"/>
      </g>
     </g>
    </g>
    <g id="ytick_3">
     <g id="line2d_10">
      <g>
       <use xlink:href="#m1bd615bd7d" x="552.038467" y="655.502624" style="stroke: #000000; stroke-width: 0.8"/>
      </g>
     </g>
     <g id="text_10">
      <!-- 800 -->
      <g transform="translate(525.950967 659.301843) scale(0.1 -0.1)">
       <defs>
        <path id="DejaVuSans-38" d="M 2034 2216 
Q 1584 2216 1326 1975 
Q 1069 1734 1069 1313 
Q 1069 891 1326 650 
Q 1584 409 2034 409 
Q 2484 409 2743 651 
Q 3003 894 3003 1313 
Q 3003 1734 2745 1975 
Q 2488 2216 2034 2216 
z
M 1403 2484 
Q 997 2584 770 2862 
Q 544 3141 544 3541 
Q 544 4100 942 4425 
Q 1341 4750 2034 4750 
Q 2731 4750 3128 4425 
Q 3525 4100 3525 3541 
Q 3525 3141 3298 2862 
Q 3072 2584 2669 2484 
Q 3125 2378 3379 2068 
Q 3634 1759 3634 1313 
Q 3634 634 3220 271 
Q 2806 -91 2034 -91 
Q 1263 -91 848 271 
Q 434 634 434 1313 
Q 434 1759 690 2068 
Q 947 2378 1403 2484 
z
M 1172 3481 
Q 1172 3119 1398 2916 
Q 1625 2713 2034 2713 
Q 2441 2713 2670 2916 
Q 2900 3119 2900 3481 
Q 2900 3844 2670 4047 
Q 2441 4250 2034 4250 
Q 1625 4250 1398 4047 
Q 1172 3844 1172 3481 
z
" transform="scale(0.015625)"/>
       </defs>
       <use xlink:href="#DejaVuSans-38"/>
       <use xlink:href="#DejaVuSans-30" x="63.623047"/>
       <use xlink:href="#DejaVuSans-30" x="127.246094"/>
      </g>
     </g>
    </g>
    <g id="ytick_4">
     <g id="line2d_11">
      <g>
       <use xlink:href="#m1bd615bd7d" x="552.038467" y="549.248118" style="stroke: #000000; stroke-width: 0.8"/>
      </g>
     </g>
     <g id="text_11">
      <!-- 900 -->
      <g transform="translate(525.950967 553.047337) scale(0.1 -0.1)">
       <use xlink:href="#DejaVuSans-39"/>
       <use xlink:href="#DejaVuSans-30" x="63.623047"/>
       <use xlink:href="#DejaVuSans-30" x="127.246094"/>
      </g>
     </g>
    </g>
    <g id="ytick_5">
     <g id="line2d_12">
      <g>
       <use xlink:href="#m1bd615bd7d" x="552.038467" y="442.993612" style="stroke: #000000; stroke-width: 0.8"/>
      </g>
     </g>
     <g id="text_12">
      <!-- 1000 -->
      <g transform="translate(519.588467 446.792831) scale(0.1 -0.1)">
       <use xlink:href="#DejaVuSans-31"/>
       <use xlink:href="#DejaVuSans-30" x="63.623047"/>
       <use xlink:href="#DejaVuSans-30" x="127.246094"/>
       <use xlink:href="#DejaVuSans-30" x="190.869141"/>
      </g>
     </g>
    </g>
    <g id="ytick_6">
     <g id="line2d_13">
      <g>
       <use xlink:href="#m1bd615bd7d" x="552.038467" y="336.739106" style="stroke: #000000; stroke-width: 0.8"/>
      </g>
     </g>
     <g id="text_13">
      <!-- 1100 -->
      <g transform="translate(519.588467 340.538325) scale(0.1 -0.1)">
       <use xlink:href="#DejaVuSans-31"/>
       <use xlink:href="#DejaVuSans-31" x="63.623047"/>
       <use xlink:href="#DejaVuSans-30" x="127.246094"/>
       <use xlink:href="#DejaVuSans-30" x="190.869141"/>
      </g>
     </g>
    </g>
    <g id="ytick_7">
     <g id="line2d_14">
      <g>
       <use xlink:href="#m1bd615bd7d" x="552.038467" y="230.4846" style="stroke: #000000; stroke-width: 0.8"/>
      </g>
     </g>
     <g id="text_14">
      <!-- 1200 -->
      <g transform="translate(519.588467 234.283819) scale(0.1 -0.1)">
       <use xlink:href="#DejaVuSans-31"/>
       <use xlink:href="#DejaVuSans-32" x="63.623047"/>
       <use xlink:href="#DejaVuSans-30" x="127.246094"/>
       <use xlink:href="#DejaVuSans-30" x="190.869141"/>
      </g>
     </g>
    </g>
   </g>
   <g id="LineCollection_1">
    <path d="M 906.824025 878.637388 
L 881.311301 878.769973 
L 860.440669 877.532072 
L 843.386755 875.140719 
L 829.911044 871.853818 
L 819.734696 867.982508 
L 812.462597 863.863021 
L 807.516665 859.747467 
L 804.193397 855.636522 
L 801.896266 851.228359 
L 800.338548 846.114803 
L 799.500195 840.037058 
L 799.445191 832.959702 
L 800.19935 824.992746 
L 801.724363 816.298065 
L 803.935186 807.036397 
L 806.722499 797.347912 
L 809.968668 787.349025 
L 813.557073 777.134874 
L 821.326223 756.356405 
L 829.282799 735.384909 
L 833.11639 724.952836 
L 836.76003 714.600573 
L 840.156308 704.348191 
L 843.25544 694.211409 
L 846.014709 684.202652 
L 848.398029 674.332181 
L 850.37569 664.609249 
L 851.924378 655.04323 
L 853.027496 645.64457 
L 853.675756 636.425379 
L 853.867927 627.399492 
L 853.61152 618.581894 
L 852.92313 609.987532 
L 851.828219 601.629736 
L 850.360221 593.518574 
L 848.559047 585.659505 
L 846.469205 578.052604 
L 844.13784 570.692448 
L 841.612938 563.568591 
L 838.941869 556.666432 
L 836.170302 549.968266 
L 830.495606 537.103518 
L 822.15984 518.701994 
L 817.096856 506.822013 
L 814.788808 500.945201 
L 812.651868 495.080747 
L 810.698379 489.205494 
L 808.937769 483.295587 
L 807.377045 477.3267 
L 806.021263 471.274508 
L 804.873857 465.115377 
L 803.936787 458.827185 
L 803.21043 452.39015 
L 802.693251 445.787565 
L 802.381297 439.006314 
L 802.267613 432.037147 
L 802.341647 424.874681 
L 802.588728 417.517193 
L 802.989653 409.966224 
L 804.151909 394.30333 
L 806.934671 360.793722 
L 807.451998 352.023131 
L 807.780026 343.120872 
L 807.848691 334.09663 
L 807.580644 324.961884 
L 806.89108 315.73213 
L 805.688414 306.430219 
L 803.87662 297.090606 
L 801.360026 287.763618 
L 798.050896 278.517882 
L 793.878704 269.43854 
L 788.798224 260.619624 
L 782.792705 252.151561 
L 775.869963 244.107822 
L 768.052837 236.535811 
L 759.368367 229.454764 
L 749.840055 222.859789 
L 739.485157 216.728777 
L 728.316342 211.029052 
L 716.345891 205.722061 
L 703.590688 200.765832 
L 690.077006 196.115674 
L 675.844681 191.723802 
L 660.950685 187.538407 
L 645.472294 183.502576 
L 613.183241 175.618975 
L 596.583313 171.60635 
L 579.782696 167.4 
L 579.782696 167.4 
" clip-path="url(#p27ffd7fc9a)" style="fill: none; stroke: #1f77b4; stroke-width: 1.5"/>
    <path d="M 906.939982 900.950533 
L 880.708076 901.086855 
L 858.227271 899.75345 
L 839.183234 897.083036 
L 823.274778 893.202757 
L 810.213954 888.234128 
L 799.726106 882.29299 
L 791.549889 875.489484 
L 785.437255 867.928044 
L 781.153408 859.707398 
L 778.476725 850.920591 
L 777.198649 841.65502 
L 777.123554 831.992482 
L 778.068577 822.009235 
L 779.863434 811.776073 
L 782.3502 801.358413 
L 785.38307 790.81639 
L 788.8281 780.20497 
L 792.562917 769.574064 
L 796.476422 758.968662 
L 800.468459 748.428968 
L 804.449479 737.990549 
L 808.340178 727.684487 
L 812.071121 717.537544 
L 815.58236 707.572332 
L 818.823023 697.807487 
L 821.750904 688.257853 
L 824.332038 678.934668 
L 826.540265 669.845756 
L 828.356782 660.995724 
L 829.769698 652.386161 
L 830.773572 644.015842 
L 831.368953 635.880933 
L 831.561909 627.975197 
L 831.363564 620.290207 
L 830.789621 612.815549 
L 829.859895 605.53904 
L 828.597841 598.446931 
L 827.030086 591.524119 
L 825.185962 584.754353 
L 823.097051 578.120442 
L 820.796723 571.604454 
L 818.319693 565.187921 
L 815.701578 558.852028 
L 812.978466 552.577814 
L 810.186497 546.34635 
L 807.361451 540.138928 
L 804.538355 533.937234 
L 801.751097 527.723515 
L 799.03206 521.480748 
L 796.41177 515.192789 
L 793.918563 508.844523 
L 791.578269 502.421999 
L 789.413917 495.912562 
L 787.445461 489.304972 
L 785.689526 482.58951 
L 784.159182 475.758078 
L 782.863735 468.804282 
L 781.808555 461.723511 
L 780.994918 454.512995 
L 780.419887 447.171853 
L 780.076217 439.701129 
L 779.952286 432.103814 
L 780.032072 424.384845 
L 780.295147 416.551102 
L 780.716713 408.611378 
L 781.267675 400.576338 
L 781.914743 392.458458 
L 782.620581 384.271947 
L 783.343985 376.032654 
L 784.040108 367.757951 
L 784.660726 359.4666 
L 785.15454 351.1786 
L 785.467529 342.915011 
L 785.543343 334.697761 
L 785.323745 326.549427 
L 784.749095 318.492995 
L 783.758889 310.551604 
L 782.292345 302.748253 
L 780.289035 295.105499 
L 777.689573 287.645117 
L 774.436361 280.387749 
L 770.474376 273.352514 
L 765.752027 266.5566 
L 760.222056 260.01483 
L 753.842507 253.739195 
L 746.577747 247.738361 
L 738.39955 242.017156 
L 729.288241 236.576013 
L 719.233905 231.410397 
L 708.237656 226.510193 
L 696.312973 221.859071 
L 683.487105 217.433814 
L 669.802533 213.203615 
L 655.318516 209.129344 
L 640.112691 205.162782 
L 624.282755 201.245822 
L 607.948212 197.309628 
L 591.252199 193.273776 
L 574.363379 189.045343 
" clip-path="url(#p27ffd7fc9a)" style="fill: none; stroke: #8c564b; stroke-width: 1.5"/>
    <path d="M 907.055939 923.263678 
L 879.386919 923.361155 
L 855.128724 921.85071 
L 836.084687 919.180295 
L 833.895709 918.76095 
L 817.987253 914.880671 
L 815.34095 914.058074 
L 800.720656 908.427373 
L 799.215913 907.648889 
L 787.040371 900.649514 
L 785.453781 899.444976 
L 775.660461 891.155242 
L 774.197306 889.517233 
L 766.7743 880.158498 
L 765.649375 878.239672 
L 760.498937 868.150307 
L 759.808367 866.209636 
L 756.683624 855.711272 
L 756.372575 853.969597 
L 755.094499 844.704026 
L 754.885877 841.828431 
L 754.810781 832.165893 
L 754.909412 829.889671 
L 756.090632 818.154388 
L 758.159769 806.595262 
L 760.906533 795.189211 
L 764.160059 783.926276 
L 767.776026 772.809019 
L 771.629254 761.849322 
L 779.619795 740.477674 
L 787.43077 719.893734 
L 791.076208 709.979338 
L 794.469117 700.349958 
L 797.564749 691.022122 
L 800.327969 682.00955 
L 802.732993 673.322485 
L 804.763032 664.96698 
L 806.409762 656.944146 
L 807.672549 649.249394 
L 808.557364 641.871795 
L 809.075398 634.793703 
L 809.241436 627.990837 
L 809.072181 621.432954 
L 808.584764 615.085158 
L 807.795724 608.909726 
L 806.720616 602.868162 
L 805.374291 596.923128 
L 803.771675 591.039937 
L 801.928804 585.187393 
L 799.863808 579.338013 
L 797.597653 573.467734 
L 795.154531 567.55533 
L 789.850271 555.529602 
L 781.293848 536.63367 
L 778.43539 530.0637 
L 775.642656 523.349614 
L 772.953601 516.483913 
L 770.404552 509.462142 
L 768.02924 502.283235 
L 765.857788 494.949639 
L 763.915728 487.467172 
L 762.223137 479.844619 
L 760.793996 472.093126 
L 759.635824 464.225488 
L 758.749611 456.255466 
L 758.130014 448.19724 
L 757.765738 440.065067 
L 757.640032 431.873186 
L 757.731197 423.635931 
L 758.013087 415.368017 
L 758.455539 407.084932 
L 759.683774 390.541713 
L 762.396867 357.970188 
L 762.866226 350.092646 
L 763.15798 342.389708 
L 763.227123 334.895462 
L 763.031704 327.6443 
L 762.534148 320.668718 
L 761.702134 313.996009 
L 760.508326 307.643864 
L 758.928151 301.615396 
L 756.93495 295.894965 
L 754.492829 290.447004 
L 751.549159 285.219976 
L 748.030231 280.155901 
L 743.843257 275.202851 
L 738.885246 270.325598 
L 733.055665 265.510251 
L 726.268234 260.761981 
L 718.458534 256.09814 
L 709.586831 251.540125 
L 699.637507 247.106457 
L 688.616973 242.807991 
L 676.551473 238.645081 
L 663.485474 234.606096 
L 649.480828 230.666669 
L 634.616586 226.789213 
L 602.72089 219.002138 
L 585.832881 214.919119 
L 568.944061 210.690686 
L 568.944061 210.690686 
" clip-path="url(#p27ffd7fc9a)" style="fill: none; stroke: #17becf; stroke-width: 1.5"/>
   </g>
   <g id="patch_3">
    <path d="M 552.038467 961.2 
L 552.038467 129.6 
" style="fill: none; stroke: #000000; stroke-width: 0.8; stroke-linejoin: miter; stroke-linecap: square"/>
   </g>
   <g id="patch_4">
    <path d="M 923.961533 961.2 
L 923.961533 129.6 
" style="fill: none; stroke: #000000; stroke-width: 0.8; stroke-linejoin: miter; stroke-linecap: square"/>
   </g>
   <g id="patch_5">
    <path d="M 552.038467 961.2 
L 923.961533 961.2 
" style="fill: none; stroke: #000000; stroke-width: 0.8; stroke-linejoin: miter; stroke-linecap: square"/>
   </g>
   <g id="patch_6">
    <path d="M 552.038467 129.6 
L 923.961533 129.6 
" style="fill: none; stroke: #000000; stroke-width: 0.8; stroke-linejoin: miter; stroke-linecap: square"/>
   </g>
  </g>
 </g>
 <defs>
  <clipPath id="p27ffd7fc9a">
   <rect x="552.038467" y="129.6" width="371.923066" height="831.6"/>
  </clipPath>
 </defs>
</svg>
