<?xml version="1.0" encoding="utf-8" standalone="no"?>
<!DOCTYPE svg PUBLIC "-//W3C//DTD SVG 1.1//EN"
  "http://www.w3.org/Graphics/SVG/1.1/DTD/svg11.dtd">
<svg xmlns:xlink="http://www.w3.org/1999/xlink" width="1440pt" height="1080pt" viewBox="0 0 1440 1080" xmlns="http://www.w3.org/2000/svg" version="1.1">
 <metadata>
  <rdf:RDF xmlns:dc="http://purl.org/dc/elements/1.1/" xmlns:cc="http://creativecommons.org/ns#" xmlns:rdf="http://www.w3.org/1999/02/22-rdf-syntax-ns#">
   <cc:Work>
    <dc:type rdf:resource="http://purl.org/dc/dcmitype/StillImage"/>
    <dc:date>2023-12-11T12:06:38.610006</dc:date>
    <dc:format>image/svg+xml</dc:format>
    <dc:creator>
     <cc:Agent>
      <dc:title>Matplotlib v3.7.1, https://matplotlib.org/</dc:title>
     </cc:Agent>
    </dc:creator>
   </cc:Work>
  </rdf:RDF>
 </metadata>
 <defs>
  <style type="text/css">*{stroke-linejoin: round; stroke-linecap: butt}</style>
 </defs>
 <g id="figure_1">
  <g id="patch_1">
   <path d="M 0 1080 
L 1440 1080 
L 1440 0 
L 0 0 
z
" style="fill: #ffffff"/>
  </g>
  <g id="axes_1">
   <g id="patch_2">
    <path d="M 180 848.63894 
L 1296 848.63894 
L 1296 242.16106 
L 180 242.16106 
z
" style="fill: #ffffff"/>
   </g>
   <g id="matplotlib.axis_1">
    <g id="xtick_1">
     <g id="line2d_1">
      <defs>
       <path id="mdf5231264f" d="M 0 0 
L 0 3.5 
" style="stroke: #000000; stroke-width: 0.8"/>
      </defs>
      <g>
       <use xlink:href="#mdf5231264f" x="373.505892" y="848.63894" style="stroke: #000000; stroke-width: 0.8"/>
      </g>
     </g>
     <g id="text_1">
      <!-- 800 -->
      <g transform="translate(363.962142 863.237377) scale(0.1 -0.1)">
       <defs>
        <path id="DejaVuSans-38" d="M 2034 2216 
Q 1584 2216 1326 1975 
Q 1069 1734 1069 1313 
Q 1069 891 1326 650 
Q 1584 409 2034 409 
Q 2484 409 2743 651 
Q 3003 894 3003 1313 
Q 3003 1734 2745 1975 
Q 2488 2216 2034 2216 
z
M 1403 2484 
Q 997 2584 770 2862 
Q 544 3141 544 3541 
Q 544 4100 942 4425 
Q 1341 4750 2034 4750 
Q 2731 4750 3128 4425 
Q 3525 4100 3525 3541 
Q 3525 3141 3298 2862 
Q 3072 2584 2669 2484 
Q 3125 2378 3379 2068 
Q 3634 1759 3634 1313 
Q 3634 634 3220 271 
Q 2806 -91 2034 -91 
Q 1263 -91 848 271 
Q 434 634 434 1313 
Q 434 1759 690 2068 
Q 947 2378 1403 2484 
z
M 1172 3481 
Q 1172 3119 1398 2916 
Q 1625 2713 2034 2713 
Q 2441 2713 2670 2916 
Q 2900 3119 2900 3481 
Q 2900 3844 2670 4047 
Q 2441 4250 2034 4250 
Q 1625 4250 1398 4047 
Q 1172 3844 1172 3481 
z
" transform="scale(0.015625)"/>
        <path id="DejaVuSans-30" d="M 2034 4250 
Q 1547 4250 1301 3770 
Q 1056 3291 1056 2328 
Q 1056 1369 1301 889 
Q 1547 409 2034 409 
Q 2525 409 2770 889 
Q 3016 1369 3016 2328 
Q 3016 3291 2770 3770 
Q 2525 4250 2034 4250 
z
M 2034 4750 
Q 2819 4750 3233 4129 
Q 3647 3509 3647 2328 
Q 3647 1150 3233 529 
Q 2819 -91 2034 -91 
Q 1250 -91 836 529 
Q 422 1150 422 2328 
Q 422 3509 836 4129 
Q 1250 4750 2034 4750 
z
" transform="scale(0.015625)"/>
       </defs>
       <use xlink:href="#DejaVuSans-38"/>
       <use xlink:href="#DejaVuSans-30" x="63.623047"/>
       <use xlink:href="#DejaVuSans-30" x="127.246094"/>
      </g>
     </g>
    </g>
    <g id="xtick_2">
     <g id="line2d_2">
      <g>
       <use xlink:href="#mdf5231264f" x="577.715436" y="848.63894" style="stroke: #000000; stroke-width: 0.8"/>
      </g>
     </g>
     <g id="text_2">
      <!-- 1000 -->
      <g transform="translate(564.990436 863.237377) scale(0.1 -0.1)">
       <defs>
        <path id="DejaVuSans-31" d="M 794 531 
L 1825 531 
L 1825 4091 
L 703 3866 
L 703 4441 
L 1819 4666 
L 2450 4666 
L 2450 531 
L 3481 531 
L 3481 0 
L 794 0 
L 794 531 
z
" transform="scale(0.015625)"/>
       </defs>
       <use xlink:href="#DejaVuSans-31"/>
       <use xlink:href="#DejaVuSans-30" x="63.623047"/>
       <use xlink:href="#DejaVuSans-30" x="127.246094"/>
       <use xlink:href="#DejaVuSans-30" x="190.869141"/>
      </g>
     </g>
    </g>
    <g id="xtick_3">
     <g id="line2d_3">
      <g>
       <use xlink:href="#mdf5231264f" x="781.924979" y="848.63894" style="stroke: #000000; stroke-width: 0.8"/>
      </g>
     </g>
     <g id="text_3">
      <!-- 1200 -->
      <g transform="translate(769.199979 863.237377) scale(0.1 -0.1)">
       <defs>
        <path id="DejaVuSans-32" d="M 1228 531 
L 3431 531 
L 3431 0 
L 469 0 
L 469 531 
Q 828 903 1448 1529 
Q 2069 2156 2228 2338 
Q 2531 2678 2651 2914 
Q 2772 3150 2772 3378 
Q 2772 3750 2511 3984 
Q 2250 4219 1831 4219 
Q 1534 4219 1204 4116 
Q 875 4013 500 3803 
L 500 4441 
Q 881 4594 1212 4672 
Q 1544 4750 1819 4750 
Q 2544 4750 2975 4387 
Q 3406 4025 3406 3419 
Q 3406 3131 3298 2873 
Q 3191 2616 2906 2266 
Q 2828 2175 2409 1742 
Q 1991 1309 1228 531 
z
" transform="scale(0.015625)"/>
       </defs>
       <use xlink:href="#DejaVuSans-31"/>
       <use xlink:href="#DejaVuSans-32" x="63.623047"/>
       <use xlink:href="#DejaVuSans-30" x="127.246094"/>
       <use xlink:href="#DejaVuSans-30" x="190.869141"/>
      </g>
     </g>
    </g>
    <g id="xtick_4">
     <g id="line2d_4">
      <g>
       <use xlink:href="#mdf5231264f" x="986.134523" y="848.63894" style="stroke: #000000; stroke-width: 0.8"/>
      </g>
     </g>
     <g id="text_4">
      <!-- 1400 -->
      <g transform="translate(973.409523 863.237377) scale(0.1 -0.1)">
       <defs>
        <path id="DejaVuSans-34" d="M 2419 4116 
L 825 1625 
L 2419 1625 
L 2419 4116 
z
M 2253 4666 
L 3047 4666 
L 3047 1625 
L 3713 1625 
L 3713 1100 
L 3047 1100 
L 3047 0 
L 2419 0 
L 2419 1100 
L 313 1100 
L 313 1709 
L 2253 4666 
z
" transform="scale(0.015625)"/>
       </defs>
       <use xlink:href="#DejaVuSans-31"/>
       <use xlink:href="#DejaVuSans-34" x="63.623047"/>
       <use xlink:href="#DejaVuSans-30" x="127.246094"/>
       <use xlink:href="#DejaVuSans-30" x="190.869141"/>
      </g>
     </g>
    </g>
    <g id="xtick_5">
     <g id="line2d_5">
      <g>
       <use xlink:href="#mdf5231264f" x="1190.344066" y="848.63894" style="stroke: #000000; stroke-width: 0.8"/>
      </g>
     </g>
     <g id="text_5">
      <!-- 1600 -->
      <g transform="translate(1177.619066 863.237377) scale(0.1 -0.1)">
       <defs>
        <path id="DejaVuSans-36" d="M 2113 2584 
Q 1688 2584 1439 2293 
Q 1191 2003 1191 1497 
Q 1191 994 1439 701 
Q 1688 409 2113 409 
Q 2538 409 2786 701 
Q 3034 994 3034 1497 
Q 3034 2003 2786 2293 
Q 2538 2584 2113 2584 
z
M 3366 4563 
L 3366 3988 
Q 3128 4100 2886 4159 
Q 2644 4219 2406 4219 
Q 1781 4219 1451 3797 
Q 1122 3375 1075 2522 
Q 1259 2794 1537 2939 
Q 1816 3084 2150 3084 
Q 2853 3084 3261 2657 
Q 3669 2231 3669 1497 
Q 3669 778 3244 343 
Q 2819 -91 2113 -91 
Q 1303 -91 875 529 
Q 447 1150 447 2328 
Q 447 3434 972 4092 
Q 1497 4750 2381 4750 
Q 2619 4750 2861 4703 
Q 3103 4656 3366 4563 
z
" transform="scale(0.015625)"/>
       </defs>
       <use xlink:href="#DejaVuSans-31"/>
       <use xlink:href="#DejaVuSans-36" x="63.623047"/>
       <use xlink:href="#DejaVuSans-30" x="127.246094"/>
       <use xlink:href="#DejaVuSans-30" x="190.869141"/>
      </g>
     </g>
    </g>
   </g>
   <g id="matplotlib.axis_2">
    <g id="ytick_1">
     <g id="line2d_6">
      <defs>
       <path id="m6ac2a8f3f8" d="M 0 0 
L -3.5 0 
" style="stroke: #000000; stroke-width: 0.8"/>
      </defs>
      <g>
       <use xlink:href="#m6ac2a8f3f8" x="180" y="845.788172" style="stroke: #000000; stroke-width: 0.8"/>
      </g>
     </g>
     <g id="text_6">
      <!-- 200 -->
      <g transform="translate(153.9125 849.58739) scale(0.1 -0.1)">
       <use xlink:href="#DejaVuSans-32"/>
       <use xlink:href="#DejaVuSans-30" x="63.623047"/>
       <use xlink:href="#DejaVuSans-30" x="127.246094"/>
      </g>
     </g>
    </g>
    <g id="ytick_2">
     <g id="line2d_7">
      <g>
       <use xlink:href="#m6ac2a8f3f8" x="180" y="743.6834" style="stroke: #000000; stroke-width: 0.8"/>
      </g>
     </g>
     <g id="text_7">
      <!-- 300 -->
      <g transform="translate(153.9125 747.482619) scale(0.1 -0.1)">
       <defs>
        <path id="DejaVuSans-33" d="M 2597 2516 
Q 3050 2419 3304 2112 
Q 3559 1806 3559 1356 
Q 3559 666 3084 287 
Q 2609 -91 1734 -91 
Q 1441 -91 1130 -33 
Q 819 25 488 141 
L 488 750 
Q 750 597 1062 519 
Q 1375 441 1716 441 
Q 2309 441 2620 675 
Q 2931 909 2931 1356 
Q 2931 1769 2642 2001 
Q 2353 2234 1838 2234 
L 1294 2234 
L 1294 2753 
L 1863 2753 
Q 2328 2753 2575 2939 
Q 2822 3125 2822 3475 
Q 2822 3834 2567 4026 
Q 2313 4219 1838 4219 
Q 1578 4219 1281 4162 
Q 984 4106 628 3988 
L 628 4550 
Q 988 4650 1302 4700 
Q 1616 4750 1894 4750 
Q 2613 4750 3031 4423 
Q 3450 4097 3450 3541 
Q 3450 3153 3228 2886 
Q 3006 2619 2597 2516 
z
" transform="scale(0.015625)"/>
       </defs>
       <use xlink:href="#DejaVuSans-33"/>
       <use xlink:href="#DejaVuSans-30" x="63.623047"/>
       <use xlink:href="#DejaVuSans-30" x="127.246094"/>
      </g>
     </g>
    </g>
    <g id="ytick_3">
     <g id="line2d_8">
      <g>
       <use xlink:href="#m6ac2a8f3f8" x="180" y="641.578628" style="stroke: #000000; stroke-width: 0.8"/>
      </g>
     </g>
     <g id="text_8">
      <!-- 400 -->
      <g transform="translate(153.9125 645.377847) scale(0.1 -0.1)">
       <use xlink:href="#DejaVuSans-34"/>
       <use xlink:href="#DejaVuSans-30" x="63.623047"/>
       <use xlink:href="#DejaVuSans-30" x="127.246094"/>
      </g>
     </g>
    </g>
    <g id="ytick_4">
     <g id="line2d_9">
      <g>
       <use xlink:href="#m6ac2a8f3f8" x="180" y="539.473856" style="stroke: #000000; stroke-width: 0.8"/>
      </g>
     </g>
     <g id="text_9">
      <!-- 500 -->
      <g transform="translate(153.9125 543.273075) scale(0.1 -0.1)">
       <defs>
        <path id="DejaVuSans-35" d="M 691 4666 
L 3169 4666 
L 3169 4134 
L 1269 4134 
L 1269 2991 
Q 1406 3038 1543 3061 
Q 1681 3084 1819 3084 
Q 2600 3084 3056 2656 
Q 3513 2228 3513 1497 
Q 3513 744 3044 326 
Q 2575 -91 1722 -91 
Q 1428 -91 1123 -41 
Q 819 9 494 109 
L 494 744 
Q 775 591 1075 516 
Q 1375 441 1709 441 
Q 2250 441 2565 725 
Q 2881 1009 2881 1497 
Q 2881 1984 2565 2268 
Q 2250 2553 1709 2553 
Q 1456 2553 1204 2497 
Q 953 2441 691 2322 
L 691 4666 
z
" transform="scale(0.015625)"/>
       </defs>
       <use xlink:href="#DejaVuSans-35"/>
       <use xlink:href="#DejaVuSans-30" x="63.623047"/>
       <use xlink:href="#DejaVuSans-30" x="127.246094"/>
      </g>
     </g>
    </g>
    <g id="ytick_5">
     <g id="line2d_10">
      <g>
       <use xlink:href="#m6ac2a8f3f8" x="180" y="437.369085" style="stroke: #000000; stroke-width: 0.8"/>
      </g>
     </g>
     <g id="text_10">
      <!-- 600 -->
      <g transform="translate(153.9125 441.168303) scale(0.1 -0.1)">
       <use xlink:href="#DejaVuSans-36"/>
       <use xlink:href="#DejaVuSans-30" x="63.623047"/>
       <use xlink:href="#DejaVuSans-30" x="127.246094"/>
      </g>
     </g>
    </g>
    <g id="ytick_6">
     <g id="line2d_11">
      <g>
       <use xlink:href="#m6ac2a8f3f8" x="180" y="335.264313" style="stroke: #000000; stroke-width: 0.8"/>
      </g>
     </g>
     <g id="text_11">
      <!-- 700 -->
      <g transform="translate(153.9125 339.063532) scale(0.1 -0.1)">
       <defs>
        <path id="DejaVuSans-37" d="M 525 4666 
L 3525 4666 
L 3525 4397 
L 1831 0 
L 1172 0 
L 2766 4134 
L 525 4134 
L 525 4666 
z
" transform="scale(0.015625)"/>
       </defs>
       <use xlink:href="#DejaVuSans-37"/>
       <use xlink:href="#DejaVuSans-30" x="63.623047"/>
       <use xlink:href="#DejaVuSans-30" x="127.246094"/>
      </g>
     </g>
    </g>
   </g>
   <g id="LineCollection_1">
    <path d="M 250.812105 354.925837 
L 273.926847 340.940867 
L 294.798251 329.931343 
L 313.916106 321.449425 
L 331.350836 315.290866 
L 347.182753 311.238593 
L 361.513461 309.065191 
L 374.477424 308.542784 
L 386.246772 309.461174 
L 397.021756 311.648778 
L 407.006105 314.984911 
L 416.377816 319.394475 
L 425.270322 324.827699 
L 433.771054 331.237168 
L 441.932731 338.562918 
L 449.788148 346.728158 
L 457.362017 355.642173 
L 464.678031 365.205909 
L 471.761999 375.317366 
L 478.642585 385.875697 
L 485.350876 396.783923 
L 491.919531 407.950545 
L 504.771174 430.725049 
L 523.86324 464.990717 
L 530.291102 476.184238 
L 536.793615 487.176194 
L 543.3947 497.925443 
L 550.115783 508.395844 
L 556.975626 518.555899 
L 563.990137 528.378424 
L 571.172173 537.840276 
L 578.531339 546.922142 
L 586.073818 555.608432 
L 593.802256 563.887259 
L 601.715751 571.750514 
L 609.809964 579.193998 
L 618.077386 586.217588 
L 626.507749 592.825353 
L 635.088548 599.025595 
L 643.80565 604.830769 
L 652.643904 610.257245 
L 661.587714 615.32495 
L 670.621522 620.056889 
L 679.730194 624.478594 
L 688.899274 628.617554 
L 698.115153 632.502644 
L 707.365155 636.163593 
L 716.637571 639.630508 
L 725.921663 642.933458 
L 744.48681 649.16544 
L 772.218794 658.000296 
L 790.594177 663.854808 
L 808.814832 669.875182 
L 826.879331 676.205121 
L 835.858761 679.522626 
L 844.808898 682.957233 
L 853.735925 686.5179 
L 862.647376 690.211441 
L 871.552063 694.042467 
L 880.460017 698.013327 
L 889.382421 702.12404 
L 907.320662 710.753114 
L 925.476891 719.881325 
L 982.641638 749.234335 
L 992.750672 754.207567 
L 1003.07363 759.138673 
L 1013.628861 764.001212 
L 1024.434014 768.768601 
L 1035.505749 773.414721 
L 1046.859462 777.91459 
L 1058.509036 782.245111 
L 1070.466641 786.385871 
L 1082.742571 790.319973 
L 1095.345123 794.034876 
L 1108.280499 797.523225 
L 1121.552698 800.783654 
L 1135.163379 803.821544 
L 1149.111658 806.64976 
L 1163.393824 809.28934 
L 1178.002944 811.77018 
L 1192.928384 814.131701 
L 1239.562272 821.071764 
L 1239.562272 821.071764 
" clip-path="url(#p1fd82812e3)" style="fill: none; stroke: #1f77b4; stroke-width: 1.5"/>
    <path d="M 240.769689 338.327456 
L 264.371782 324.047627 
L 286.329137 312.465271 
L 306.740712 303.409376 
L 325.703712 296.710978 
L 343.313385 292.203677 
L 359.662816 289.724115 
L 374.842753 289.112411 
L 388.941443 290.212565 
L 402.044486 292.872826 
L 414.2347 296.946018 
L 425.592011 302.289844 
L 436.193346 308.767144 
L 446.112554 316.24613 
L 455.420325 324.600589 
L 464.184135 333.71005 
L 472.468203 343.459929 
L 480.33345 353.741642 
L 487.837486 364.452692 
L 495.034595 375.49673 
L 501.975737 386.78359 
L 508.708564 398.229303 
L 515.27744 409.75608 
L 521.723476 421.292285 
L 528.084572 432.772371 
L 534.395466 444.136815 
L 540.6878 455.332015 
L 546.990183 466.310178 
L 553.328269 477.029195 
L 559.724844 487.452488 
L 566.19991 497.548852 
L 572.770788 507.292274 
L 579.452217 516.66175 
L 586.256465 525.641074 
L 593.19344 534.218631 
L 600.270811 542.38717 
L 607.494129 550.14357 
L 614.866953 557.488598 
L 622.390981 564.426657 
L 630.06618 570.965533 
L 637.890925 577.11613 
L 645.862131 582.892205 
L 653.975397 588.310096 
L 662.225141 593.388449 
L 670.604743 598.147944 
L 679.106686 602.611019 
L 687.722693 606.801594 
L 696.443874 610.744799 
L 705.260857 614.466699 
L 714.163928 617.994028 
L 723.14317 621.353923 
L 732.188591 624.573665 
L 741.290256 627.680425 
L 750.438414 630.70102 
L 759.623622 633.661672 
L 768.836862 636.587781 
L 778.069656 639.503705 
L 787.314176 642.432553 
L 796.563347 645.395986 
L 805.810947 648.414039 
L 815.051695 651.504946 
L 824.281338 654.684992 
L 833.496728 657.968368 
L 842.695891 661.367054 
L 851.878091 664.890716 
L 861.043881 668.546616 
L 870.195145 672.339553 
L 879.335138 676.271814 
L 888.468507 680.343156 
L 897.601304 684.550801 
L 906.740994 688.889464 
L 915.896443 693.3514 
L 925.077901 697.92648 
L 934.29697 702.602289 
L 943.56656 707.364255 
L 952.90083 712.19581 
L 962.315122 717.078571 
L 971.825873 721.992563 
L 981.450515 726.916462 
L 991.207368 731.827881 
L 1001.115504 736.703682 
L 1011.194606 741.520327 
L 1021.46481 746.254261 
L 1031.946523 750.882333 
L 1042.660234 755.382258 
L 1053.626297 759.733107 
L 1064.864708 763.91585 
L 1076.394856 767.913929 
L 1088.235252 771.713877 
L 1100.40325 775.305975 
L 1112.914738 778.684961 
L 1125.783815 781.850771 
L 1139.022445 784.809338 
L 1152.64009 787.573425 
L 1166.64332 790.163516 
L 1181.03541 792.608746 
L 1195.815899 794.947889 
L 1210.980144 797.230386 
L 1226.518836 799.517434 
L 1242.4175 801.88312 
" clip-path="url(#p1fd82812e3)" style="fill: none; stroke: #8c564b; stroke-width: 1.5"/>
    <path d="M 230.727273 321.729075 
L 255.320527 306.888631 
L 278.461637 294.732284 
L 300.279251 285.117139 
L 320.893266 277.916936 
L 340.40445 273.023102 
L 356.753881 270.54354 
L 358.881694 270.339941 
L 374.061631 269.728236 
L 376.351985 269.7713 
L 390.450676 270.871454 
L 392.801382 271.200536 
L 405.904425 273.860797 
L 408.192569 274.472895 
L 420.382784 278.546087 
L 422.494122 279.392149 
L 433.851432 284.735974 
L 435.706621 285.735357 
L 447.872812 293.276938 
L 459.071085 301.808926 
L 469.400804 311.150587 
L 478.968178 321.148663 
L 487.876673 331.672843 
L 496.22208 342.610254 
L 504.090773 353.860853 
L 511.559704 365.334194 
L 518.697145 376.947388 
L 525.563634 388.623941 
L 532.212878 400.293137 
L 563.752696 456.543394 
L 569.946258 467.01799 
L 576.158859 477.141497 
L 582.409203 486.887459 
L 588.713155 496.235078 
L 595.084121 505.169186 
L 601.533461 513.680151 
L 608.070911 521.763696 
L 614.705002 529.420612 
L 621.443455 536.656364 
L 628.293493 543.480576 
L 635.262055 549.906428 
L 642.355867 555.949993 
L 649.581381 561.629568 
L 656.944571 566.965064 
L 664.450643 571.977481 
L 672.103701 576.688528 
L 679.90643 581.120367 
L 687.859847 585.295495 
L 695.963146 589.236704 
L 704.213658 592.9671 
L 712.606915 596.510134 
L 721.136807 599.889612 
L 729.795787 603.12967 
L 738.575125 606.254699 
L 756.455585 612.257735 
L 783.912132 621.004466 
L 802.58228 626.953404 
L 821.371284 633.163213 
L 840.21996 639.770716 
L 849.646383 643.254985 
L 859.06538 646.871303 
L 868.471847 650.625073 
L 877.862043 654.518917 
L 887.23373 658.552655 
L 896.586278 662.723333 
L 905.920758 667.025303 
L 924.548661 675.987774 
L 943.161747 685.346214 
L 999.851783 714.460148 
L 1009.581065 719.247935 
L 1019.437908 723.958366 
L 1029.443791 728.570464 
L 1039.621385 733.064256 
L 1049.994459 737.421108 
L 1060.587754 741.624059 
L 1071.426794 745.658163 
L 1082.537628 749.510845 
L 1093.946488 753.172299 
L 1105.679368 756.635947 
L 1117.761538 759.898987 
L 1130.216998 762.963047 
L 1143.067926 765.83497 
L 1156.334117 768.52772 
L 1170.032465 771.061418 
L 1184.176492 773.464503 
L 1198.775932 775.774993 
L 1245.272727 782.694476 
L 1245.272727 782.694476 
" clip-path="url(#p1fd82812e3)" style="fill: none; stroke: #17becf; stroke-width: 1.5"/>
   </g>
   <g id="patch_3">
    <path d="M 180 848.63894 
L 180 242.16106 
" style="fill: none; stroke: #000000; stroke-width: 0.8; stroke-linejoin: miter; stroke-linecap: square"/>
   </g>
   <g id="patch_4">
    <path d="M 1296 848.63894 
L 1296 242.16106 
" style="fill: none; stroke: #000000; stroke-width: 0.8; stroke-linejoin: miter; stroke-linecap: square"/>
   </g>
   <g id="patch_5">
    <path d="M 180 848.63894 
L 1296 848.63894 
" style="fill: none; stroke: #000000; stroke-width: 0.8; stroke-linejoin: miter; stroke-linecap: square"/>
   </g>
   <g id="patch_6">
    <path d="M 180 242.16106 
L 1296 242.16106 
" style="fill: none; stroke: #000000; stroke-width: 0.8; stroke-linejoin: miter; stroke-linecap: square"/>
   </g>
  </g>
 </g>
 <defs>
  <clipPath id="p1fd82812e3">
   <rect x="180" y="242.16106" width="1116" height="606.47788"/>
  </clipPath>
 </defs>
</svg>
