<?xml version="1.0" encoding="utf-8" standalone="no"?>
<!DOCTYPE svg PUBLIC "-//W3C//DTD SVG 1.1//EN"
  "http://www.w3.org/Graphics/SVG/1.1/DTD/svg11.dtd">
<svg xmlns:xlink="http://www.w3.org/1999/xlink" width="1440pt" height="1080pt" viewBox="0 0 1440 1080" xmlns="http://www.w3.org/2000/svg" version="1.1">
 <metadata>
  <rdf:RDF xmlns:dc="http://purl.org/dc/elements/1.1/" xmlns:cc="http://creativecommons.org/ns#" xmlns:rdf="http://www.w3.org/1999/02/22-rdf-syntax-ns#">
   <cc:Work>
    <dc:type rdf:resource="http://purl.org/dc/dcmitype/StillImage"/>
    <dc:date>2023-12-11T12:06:41.298589</dc:date>
    <dc:format>image/svg+xml</dc:format>
    <dc:creator>
     <cc:Agent>
      <dc:title>Matplotlib v3.7.1, https://matplotlib.org/</dc:title>
     </cc:Agent>
    </dc:creator>
   </cc:Work>
  </rdf:RDF>
 </metadata>
 <defs>
  <style type="text/css">*{stroke-linejoin: round; stroke-linecap: butt}</style>
 </defs>
 <g id="figure_1">
  <g id="patch_1">
   <path d="M 0 1080 
L 1440 1080 
L 1440 0 
L 0 0 
z
" style="fill: #ffffff"/>
  </g>
  <g id="axes_1">
   <g id="patch_2">
    <path d="M 605.537544 961.2 
L 870.462456 961.2 
L 870.462456 129.6 
L 605.537544 129.6 
z
" style="fill: #ffffff"/>
   </g>
   <g id="matplotlib.axis_1">
    <g id="xtick_1">
     <g id="line2d_1">
      <defs>
       <path id="mee39eab6a5" d="M 0 0 
L 0 3.5 
" style="stroke: #000000; stroke-width: 0.8"/>
      </defs>
      <g>
       <use xlink:href="#mee39eab6a5" x="635.706519" y="961.2" style="stroke: #000000; stroke-width: 0.8"/>
      </g>
     </g>
     <g id="text_1">
      <!-- 500 -->
      <g transform="translate(626.162769 975.798437) scale(0.1 -0.1)">
       <defs>
        <path id="DejaVuSans-35" d="M 691 4666 
L 3169 4666 
L 3169 4134 
L 1269 4134 
L 1269 2991 
Q 1406 3038 1543 3061 
Q 1681 3084 1819 3084 
Q 2600 3084 3056 2656 
Q 3513 2228 3513 1497 
Q 3513 744 3044 326 
Q 2575 -91 1722 -91 
Q 1428 -91 1123 -41 
Q 819 9 494 109 
L 494 744 
Q 775 591 1075 516 
Q 1375 441 1709 441 
Q 2250 441 2565 725 
Q 2881 1009 2881 1497 
Q 2881 1984 2565 2268 
Q 2250 2553 1709 2553 
Q 1456 2553 1204 2497 
Q 953 2441 691 2322 
L 691 4666 
z
" transform="scale(0.015625)"/>
        <path id="DejaVuSans-30" d="M 2034 4250 
Q 1547 4250 1301 3770 
Q 1056 3291 1056 2328 
Q 1056 1369 1301 889 
Q 1547 409 2034 409 
Q 2525 409 2770 889 
Q 3016 1369 3016 2328 
Q 3016 3291 2770 3770 
Q 2525 4250 2034 4250 
z
M 2034 4750 
Q 2819 4750 3233 4129 
Q 3647 3509 3647 2328 
Q 3647 1150 3233 529 
Q 2819 -91 2034 -91 
Q 1250 -91 836 529 
Q 422 1150 422 2328 
Q 422 3509 836 4129 
Q 1250 4750 2034 4750 
z
" transform="scale(0.015625)"/>
       </defs>
       <use xlink:href="#DejaVuSans-35"/>
       <use xlink:href="#DejaVuSans-30" x="63.623047"/>
       <use xlink:href="#DejaVuSans-30" x="127.246094"/>
      </g>
     </g>
    </g>
    <g id="xtick_2">
     <g id="line2d_2">
      <g>
       <use xlink:href="#mee39eab6a5" x="674.309504" y="961.2" style="stroke: #000000; stroke-width: 0.8"/>
      </g>
     </g>
     <g id="text_2">
      <!-- 550 -->
      <g transform="translate(664.765754 975.798437) scale(0.1 -0.1)">
       <use xlink:href="#DejaVuSans-35"/>
       <use xlink:href="#DejaVuSans-35" x="63.623047"/>
       <use xlink:href="#DejaVuSans-30" x="127.246094"/>
      </g>
     </g>
    </g>
    <g id="xtick_3">
     <g id="line2d_3">
      <g>
       <use xlink:href="#mee39eab6a5" x="712.912489" y="961.2" style="stroke: #000000; stroke-width: 0.8"/>
      </g>
     </g>
     <g id="text_3">
      <!-- 600 -->
      <g transform="translate(703.368739 975.798437) scale(0.1 -0.1)">
       <defs>
        <path id="DejaVuSans-36" d="M 2113 2584 
Q 1688 2584 1439 2293 
Q 1191 2003 1191 1497 
Q 1191 994 1439 701 
Q 1688 409 2113 409 
Q 2538 409 2786 701 
Q 3034 994 3034 1497 
Q 3034 2003 2786 2293 
Q 2538 2584 2113 2584 
z
M 3366 4563 
L 3366 3988 
Q 3128 4100 2886 4159 
Q 2644 4219 2406 4219 
Q 1781 4219 1451 3797 
Q 1122 3375 1075 2522 
Q 1259 2794 1537 2939 
Q 1816 3084 2150 3084 
Q 2853 3084 3261 2657 
Q 3669 2231 3669 1497 
Q 3669 778 3244 343 
Q 2819 -91 2113 -91 
Q 1303 -91 875 529 
Q 447 1150 447 2328 
Q 447 3434 972 4092 
Q 1497 4750 2381 4750 
Q 2619 4750 2861 4703 
Q 3103 4656 3366 4563 
z
" transform="scale(0.015625)"/>
       </defs>
       <use xlink:href="#DejaVuSans-36"/>
       <use xlink:href="#DejaVuSans-30" x="63.623047"/>
       <use xlink:href="#DejaVuSans-30" x="127.246094"/>
      </g>
     </g>
    </g>
    <g id="xtick_4">
     <g id="line2d_4">
      <g>
       <use xlink:href="#mee39eab6a5" x="751.515475" y="961.2" style="stroke: #000000; stroke-width: 0.8"/>
      </g>
     </g>
     <g id="text_4">
      <!-- 650 -->
      <g transform="translate(741.971725 975.798437) scale(0.1 -0.1)">
       <use xlink:href="#DejaVuSans-36"/>
       <use xlink:href="#DejaVuSans-35" x="63.623047"/>
       <use xlink:href="#DejaVuSans-30" x="127.246094"/>
      </g>
     </g>
    </g>
    <g id="xtick_5">
     <g id="line2d_5">
      <g>
       <use xlink:href="#mee39eab6a5" x="790.11846" y="961.2" style="stroke: #000000; stroke-width: 0.8"/>
      </g>
     </g>
     <g id="text_5">
      <!-- 700 -->
      <g transform="translate(780.57471 975.798437) scale(0.1 -0.1)">
       <defs>
        <path id="DejaVuSans-37" d="M 525 4666 
L 3525 4666 
L 3525 4397 
L 1831 0 
L 1172 0 
L 2766 4134 
L 525 4134 
L 525 4666 
z
" transform="scale(0.015625)"/>
       </defs>
       <use xlink:href="#DejaVuSans-37"/>
       <use xlink:href="#DejaVuSans-30" x="63.623047"/>
       <use xlink:href="#DejaVuSans-30" x="127.246094"/>
      </g>
     </g>
    </g>
    <g id="xtick_6">
     <g id="line2d_6">
      <g>
       <use xlink:href="#mee39eab6a5" x="828.721446" y="961.2" style="stroke: #000000; stroke-width: 0.8"/>
      </g>
     </g>
     <g id="text_6">
      <!-- 750 -->
      <g transform="translate(819.177696 975.798437) scale(0.1 -0.1)">
       <use xlink:href="#DejaVuSans-37"/>
       <use xlink:href="#DejaVuSans-35" x="63.623047"/>
       <use xlink:href="#DejaVuSans-30" x="127.246094"/>
      </g>
     </g>
    </g>
    <g id="xtick_7">
     <g id="line2d_7">
      <g>
       <use xlink:href="#mee39eab6a5" x="867.324431" y="961.2" style="stroke: #000000; stroke-width: 0.8"/>
      </g>
     </g>
     <g id="text_7">
      <!-- 800 -->
      <g transform="translate(857.780681 975.798437) scale(0.1 -0.1)">
       <defs>
        <path id="DejaVuSans-38" d="M 2034 2216 
Q 1584 2216 1326 1975 
Q 1069 1734 1069 1313 
Q 1069 891 1326 650 
Q 1584 409 2034 409 
Q 2484 409 2743 651 
Q 3003 894 3003 1313 
Q 3003 1734 2745 1975 
Q 2488 2216 2034 2216 
z
M 1403 2484 
Q 997 2584 770 2862 
Q 544 3141 544 3541 
Q 544 4100 942 4425 
Q 1341 4750 2034 4750 
Q 2731 4750 3128 4425 
Q 3525 4100 3525 3541 
Q 3525 3141 3298 2862 
Q 3072 2584 2669 2484 
Q 3125 2378 3379 2068 
Q 3634 1759 3634 1313 
Q 3634 634 3220 271 
Q 2806 -91 2034 -91 
Q 1263 -91 848 271 
Q 434 634 434 1313 
Q 434 1759 690 2068 
Q 947 2378 1403 2484 
z
M 1172 3481 
Q 1172 3119 1398 2916 
Q 1625 2713 2034 2713 
Q 2441 2713 2670 2916 
Q 2900 3119 2900 3481 
Q 2900 3844 2670 4047 
Q 2441 4250 2034 4250 
Q 1625 4250 1398 4047 
Q 1172 3844 1172 3481 
z
" transform="scale(0.015625)"/>
       </defs>
       <use xlink:href="#DejaVuSans-38"/>
       <use xlink:href="#DejaVuSans-30" x="63.623047"/>
       <use xlink:href="#DejaVuSans-30" x="127.246094"/>
      </g>
     </g>
    </g>
   </g>
   <g id="matplotlib.axis_2">
    <g id="ytick_1">
     <g id="line2d_8">
      <defs>
       <path id="me7b84c6a55" d="M 0 0 
L -3.5 0 
" style="stroke: #000000; stroke-width: 0.8"/>
      </defs>
      <g>
       <use xlink:href="#me7b84c6a55" x="605.537544" y="838.216031" style="stroke: #000000; stroke-width: 0.8"/>
      </g>
     </g>
     <g id="text_8">
      <!-- 200 -->
      <g transform="translate(579.450044 842.015249) scale(0.1 -0.1)">
       <defs>
        <path id="DejaVuSans-32" d="M 1228 531 
L 3431 531 
L 3431 0 
L 469 0 
L 469 531 
Q 828 903 1448 1529 
Q 2069 2156 2228 2338 
Q 2531 2678 2651 2914 
Q 2772 3150 2772 3378 
Q 2772 3750 2511 3984 
Q 2250 4219 1831 4219 
Q 1534 4219 1204 4116 
Q 875 4013 500 3803 
L 500 4441 
Q 881 4594 1212 4672 
Q 1544 4750 1819 4750 
Q 2544 4750 2975 4387 
Q 3406 4025 3406 3419 
Q 3406 3131 3298 2873 
Q 3191 2616 2906 2266 
Q 2828 2175 2409 1742 
Q 1991 1309 1228 531 
z
" transform="scale(0.015625)"/>
       </defs>
       <use xlink:href="#DejaVuSans-32"/>
       <use xlink:href="#DejaVuSans-30" x="63.623047"/>
       <use xlink:href="#DejaVuSans-30" x="127.246094"/>
      </g>
     </g>
    </g>
    <g id="ytick_2">
     <g id="line2d_9">
      <g>
       <use xlink:href="#me7b84c6a55" x="605.537544" y="683.804089" style="stroke: #000000; stroke-width: 0.8"/>
      </g>
     </g>
     <g id="text_9">
      <!-- 400 -->
      <g transform="translate(579.450044 687.603308) scale(0.1 -0.1)">
       <defs>
        <path id="DejaVuSans-34" d="M 2419 4116 
L 825 1625 
L 2419 1625 
L 2419 4116 
z
M 2253 4666 
L 3047 4666 
L 3047 1625 
L 3713 1625 
L 3713 1100 
L 3047 1100 
L 3047 0 
L 2419 0 
L 2419 1100 
L 313 1100 
L 313 1709 
L 2253 4666 
z
" transform="scale(0.015625)"/>
       </defs>
       <use xlink:href="#DejaVuSans-34"/>
       <use xlink:href="#DejaVuSans-30" x="63.623047"/>
       <use xlink:href="#DejaVuSans-30" x="127.246094"/>
      </g>
     </g>
    </g>
    <g id="ytick_3">
     <g id="line2d_10">
      <g>
       <use xlink:href="#me7b84c6a55" x="605.537544" y="529.392147" style="stroke: #000000; stroke-width: 0.8"/>
      </g>
     </g>
     <g id="text_10">
      <!-- 600 -->
      <g transform="translate(579.450044 533.191366) scale(0.1 -0.1)">
       <use xlink:href="#DejaVuSans-36"/>
       <use xlink:href="#DejaVuSans-30" x="63.623047"/>
       <use xlink:href="#DejaVuSans-30" x="127.246094"/>
      </g>
     </g>
    </g>
    <g id="ytick_4">
     <g id="line2d_11">
      <g>
       <use xlink:href="#me7b84c6a55" x="605.537544" y="374.980205" style="stroke: #000000; stroke-width: 0.8"/>
      </g>
     </g>
     <g id="text_11">
      <!-- 800 -->
      <g transform="translate(579.450044 378.779424) scale(0.1 -0.1)">
       <use xlink:href="#DejaVuSans-38"/>
       <use xlink:href="#DejaVuSans-30" x="63.623047"/>
       <use xlink:href="#DejaVuSans-30" x="127.246094"/>
      </g>
     </g>
    </g>
    <g id="ytick_5">
     <g id="line2d_12">
      <g>
       <use xlink:href="#me7b84c6a55" x="605.537544" y="220.568264" style="stroke: #000000; stroke-width: 0.8"/>
      </g>
     </g>
     <g id="text_12">
      <!-- 1000 -->
      <g transform="translate(573.087544 224.367482) scale(0.1 -0.1)">
       <defs>
        <path id="DejaVuSans-31" d="M 794 531 
L 1825 531 
L 1825 4091 
L 703 3866 
L 703 4441 
L 1819 4666 
L 2450 4666 
L 2450 531 
L 3481 531 
L 3481 0 
L 794 0 
L 794 531 
z
" transform="scale(0.015625)"/>
       </defs>
       <use xlink:href="#DejaVuSans-31"/>
       <use xlink:href="#DejaVuSans-30" x="63.623047"/>
       <use xlink:href="#DejaVuSans-30" x="127.246094"/>
       <use xlink:href="#DejaVuSans-30" x="190.869141"/>
      </g>
     </g>
    </g>
   </g>
   <g id="LineCollection_1">
    <path d="M 848.434298 167.4 
L 823.696075 176.364678 
L 801.539449 185.287716 
L 781.725568 194.172654 
L 764.034601 203.02373 
L 748.265278 211.845312 
L 734.234365 220.641121 
L 721.775924 229.413271 
L 710.74021 238.161254 
L 700.992119 246.881059 
L 692.409195 255.564693 
L 684.879368 264.200331 
L 678.298741 272.773176 
L 672.569782 281.266907 
L 667.600176 289.665407 
L 663.302405 297.95438 
L 659.593902 306.12254 
L 656.397529 314.162227 
L 653.642113 322.069475 
L 651.262839 329.843672 
L 649.201414 337.486991 
L 647.406 345.003755 
L 645.830955 352.399822 
L 644.436441 359.682068 
L 642.055865 373.93532 
L 640.043571 387.825577 
L 637.383574 408.112645 
L 631.487805 453.808618 
L 623.011718 517.679006 
L 621.533895 530.500294 
L 620.221796 543.380152 
L 619.121185 556.335201 
L 618.280014 569.381974 
L 617.748607 582.537243 
L 617.580098 595.818221 
L 617.821916 608.986245 
L 618.132438 616.014283 
L 618.561751 622.828636 
L 619.127191 629.688003 
L 619.837315 636.594703 
L 620.700985 643.551058 
L 621.727358 650.559384 
L 622.92588 657.621993 
L 624.30627 664.741199 
L 625.878498 671.91932 
L 627.652758 679.158702 
L 629.639439 686.461735 
L 631.849086 693.830884 
L 634.292369 701.268724 
L 636.980037 708.77798 
L 639.922883 716.361574 
L 643.1317 724.022671 
L 646.617243 731.764725 
L 650.390175 739.591525 
L 654.461029 747.507235 
L 658.840146 755.516427 
L 663.537612 763.624105 
L 668.563189 771.835723 
L 673.926222 780.157194 
L 679.635539 788.594885 
L 685.699326 797.155613 
L 692.124991 805.846627 
L 698.919 814.675589 
L 706.086694 823.650548 
L 713.632088 832.779912 
L 721.557643 842.072419 
L 729.864019 851.537107 
L 738.549807 861.18328 
L 747.611237 871.020476 
L 757.041866 881.058434 
L 776.969567 901.776369 
L 798.197371 923.4 
L 798.197371 923.4 
" clip-path="url(#p7642ca2786)" style="fill: none; stroke: #1f77b4; stroke-width: 1.5"/>
    <path d="M 853.427356 181.193218 
L 829.169804 189.9743 
L 807.533506 198.676322 
L 788.278864 207.296595 
L 771.183463 215.832995 
L 756.041161 224.283927 
L 742.661202 232.648282 
L 730.86737 240.925401 
L 720.497164 249.115037 
L 711.401015 257.217325 
L 703.441526 265.232742 
L 696.492744 273.162083 
L 690.439463 281.006423 
L 685.176551 288.767099 
L 680.608309 296.445671 
L 676.64786 304.043908 
L 673.216554 311.563756 
L 670.243416 319.007318 
L 667.664601 326.376835 
L 665.42289 333.674661 
L 663.467202 340.903248 
L 661.752132 348.065129 
L 660.237513 355.162899 
L 658.887999 362.199202 
L 657.672675 369.176717 
L 656.564679 376.098145 
L 655.540861 382.966198 
L 654.581442 389.783586 
L 653.669713 396.553014 
L 652.791738 403.277166 
L 651.936086 409.958701 
L 651.093573 416.60025 
L 650.257032 423.204405 
L 649.421087 429.773716 
L 648.581955 436.310692 
L 647.737256 442.817792 
L 646.885844 449.297426 
L 646.027648 455.751955 
L 645.163533 462.183687 
L 644.295164 468.594881 
L 643.424897 474.987749 
L 642.55567 481.364452 
L 641.690914 487.727109 
L 640.834472 494.077796 
L 639.990526 500.418551 
L 639.16354 506.751379 
L 638.358209 513.078255 
L 637.579415 519.401133 
L 636.832197 525.721945 
L 636.121724 532.042615 
L 635.453273 538.36506 
L 634.832225 544.691201 
L 634.264052 551.022968 
L 633.754318 557.362307 
L 633.308687 563.71119 
L 632.932928 570.071625 
L 632.632929 576.44566 
L 632.414711 582.835394 
L 632.28445 589.242988 
L 632.24849 595.670672 
L 632.313371 602.120753 
L 632.485849 608.595628 
L 632.772914 615.097791 
L 633.18182 621.629842 
L 633.720099 628.1945 
L 634.395583 634.794606 
L 635.216423 641.433142 
L 636.1911 648.11323 
L 637.328439 654.83815 
L 638.637617 661.611342 
L 640.128162 668.436421 
L 641.809956 675.317183 
L 643.693223 682.257613 
L 645.788521 689.261893 
L 648.106713 696.334415 
L 650.658947 703.479781 
L 653.456617 710.702817 
L 656.511318 718.008576 
L 659.834794 725.402348 
L 663.438874 732.889662 
L 667.335399 740.476296 
L 671.536139 748.16828 
L 676.052694 755.971902 
L 680.896393 763.893709 
L 686.078166 771.940518 
L 691.608417 780.119409 
L 697.496875 788.437738 
L 703.752431 796.903129 
L 710.382964 805.523484 
L 717.39515 814.306976 
L 724.794251 823.262054 
L 732.583896 832.397439 
L 740.765835 841.722123 
L 749.33968 851.245365 
L 758.30263 860.976691 
L 767.649174 870.925886 
L 777.370772 881.102988 
L 787.455522 891.518287 
L 797.887803 902.182311 
L 808.647893 913.105822 
" clip-path="url(#p7642ca2786)" style="fill: none; stroke: #8c564b; stroke-width: 1.5"/>
    <path d="M 858.420415 194.986437 
L 834.404808 203.679935 
L 813.26953 212.18045 
L 794.555332 220.558767 
L 778.038155 228.806437 
L 763.508136 236.915653 
L 750.768306 244.879837 
L 739.633505 252.694437 
L 729.929633 260.357851 
L 721.493394 267.872332 
L 714.172552 275.244615 
L 707.826612 282.486044 
L 702.327684 289.612009 
L 697.561154 296.640721 
L 693.425877 303.59154 
L 689.833705 310.483225 
L 686.708401 317.33246 
L 683.984154 324.152895 
L 681.603976 330.954764 
L 679.518185 337.744998 
L 677.683147 344.527642 
L 676.060293 351.304442 
L 674.615405 358.075438 
L 673.318106 364.839499 
L 672.141491 371.594767 
L 671.061863 378.338992 
L 670.058507 385.069775 
L 669.113503 391.784738 
L 668.211541 398.481643 
L 667.339747 405.158458 
L 666.4875 411.813402 
L 665.646253 418.444975 
L 664.809881 425.047798 
L 663.972879 431.625432 
L 663.970835 431.641425 
L 663.131703 438.178401 
L 663.129034 438.199077 
L 662.284335 444.706176 
L 662.281372 444.728862 
L 661.42996 451.208496 
L 661.427009 451.230822 
L 660.568814 457.685351 
L 660.566156 457.705231 
L 659.702041 464.136963 
L 659.699934 464.15258 
L 658.831566 470.563774 
L 657.95997 476.966422 
L 657.090781 483.342855 
L 656.227436 489.69513 
L 655.373701 496.025738 
L 654.533817 502.335978 
L 653.712258 508.627245 
L 652.913686 514.901016 
L 652.142906 521.158835 
L 651.404832 527.402303 
L 650.704463 533.633073 
L 650.046868 539.852844 
L 649.437172 546.063353 
L 648.880551 552.26638 
L 648.382232 558.463749 
L 647.947502 564.657326 
L 647.581711 570.849033 
L 647.290289 577.040848 
L 647.078757 583.234827 
L 646.95275 589.433106 
L 646.918037 595.637928 
L 646.980541 601.851651 
L 647.146366 608.07678 
L 647.421821 614.315978 
L 647.813454 620.572101 
L 648.328073 626.848214 
L 648.972783 633.147624 
L 649.755013 639.473902 
L 650.682549 645.830903 
L 651.763565 652.222793 
L 653.006653 658.654063 
L 654.420848 665.129539 
L 656.01565 671.654391 
L 657.801045 678.234127 
L 659.787508 684.874591 
L 661.986006 691.581942 
L 664.407983 698.362631 
L 667.065329 705.223378 
L 669.970341 712.171134 
L 673.13566 719.213052 
L 676.574193 726.356451 
L 680.299022 733.608789 
L 684.323288 740.977631 
L 688.660065 748.470635 
L 693.322226 756.09554 
L 698.32228 763.860156 
L 703.672217 771.772373 
L 709.383325 779.840169 
L 715.466012 788.071624 
L 721.929608 796.474944 
L 728.782164 805.058484 
L 736.030237 813.830772 
L 743.678661 822.800539 
L 751.730316 831.976743 
L 760.185872 841.368598 
L 769.043524 850.985598 
L 778.298709 860.837544 
L 787.94381 870.934565 
L 797.967832 881.287146 
L 808.356073 891.906151 
L 819.098415 902.811645 
" clip-path="url(#p7642ca2786)" style="fill: none; stroke: #17becf; stroke-width: 1.5"/>
   </g>
   <g id="patch_3">
    <path d="M 605.537544 961.2 
L 605.537544 129.6 
" style="fill: none; stroke: #000000; stroke-width: 0.8; stroke-linejoin: miter; stroke-linecap: square"/>
   </g>
   <g id="patch_4">
    <path d="M 870.462456 961.2 
L 870.462456 129.6 
" style="fill: none; stroke: #000000; stroke-width: 0.8; stroke-linejoin: miter; stroke-linecap: square"/>
   </g>
   <g id="patch_5">
    <path d="M 605.537544 961.2 
L 870.462456 961.2 
" style="fill: none; stroke: #000000; stroke-width: 0.8; stroke-linejoin: miter; stroke-linecap: square"/>
   </g>
   <g id="patch_6">
    <path d="M 605.537544 129.6 
L 870.462456 129.6 
" style="fill: none; stroke: #000000; stroke-width: 0.8; stroke-linejoin: miter; stroke-linecap: square"/>
   </g>
  </g>
 </g>
 <defs>
  <clipPath id="p7642ca2786">
   <rect x="605.537544" y="129.6" width="264.924912" height="831.6"/>
  </clipPath>
 </defs>
</svg>
