<?xml version="1.0" encoding="utf-8" standalone="no"?>
<!DOCTYPE svg PUBLIC "-//W3C//DTD SVG 1.1//EN"
  "http://www.w3.org/Graphics/SVG/1.1/DTD/svg11.dtd">
<svg xmlns:xlink="http://www.w3.org/1999/xlink" width="1440pt" height="1080pt" viewBox="0 0 1440 1080" xmlns="http://www.w3.org/2000/svg" version="1.1">
 <metadata>
  <rdf:RDF xmlns:dc="http://purl.org/dc/elements/1.1/" xmlns:cc="http://creativecommons.org/ns#" xmlns:rdf="http://www.w3.org/1999/02/22-rdf-syntax-ns#">
   <cc:Work>
    <dc:type rdf:resource="http://purl.org/dc/dcmitype/StillImage"/>
    <dc:date>2023-12-11T12:06:50.110602</dc:date>
    <dc:format>image/svg+xml</dc:format>
    <dc:creator>
     <cc:Agent>
      <dc:title>Matplotlib v3.7.1, https://matplotlib.org/</dc:title>
     </cc:Agent>
    </dc:creator>
   </cc:Work>
  </rdf:RDF>
 </metadata>
 <defs>
  <style type="text/css">*{stroke-linejoin: round; stroke-linecap: butt}</style>
 </defs>
 <g id="figure_1">
  <g id="patch_1">
   <path d="M 0 1080 
L 1440 1080 
L 1440 0 
L 0 0 
z
" style="fill: #ffffff"/>
  </g>
  <g id="axes_1">
   <g id="patch_2">
    <path d="M 180 909.674308 
L 1296 909.674308 
L 1296 181.125692 
L 180 181.125692 
z
" style="fill: #ffffff"/>
   </g>
   <g id="matplotlib.axis_1">
    <g id="xtick_1">
     <g id="line2d_1">
      <defs>
       <path id="m0e5a31ae9e" d="M 0 0 
L 0 3.5 
" style="stroke: #000000; stroke-width: 0.8"/>
      </defs>
      <g>
       <use xlink:href="#m0e5a31ae9e" x="345.013145" y="909.674308" style="stroke: #000000; stroke-width: 0.8"/>
      </g>
     </g>
     <g id="text_1">
      <!-- 400 -->
      <g transform="translate(335.469395 924.272745) scale(0.1 -0.1)">
       <defs>
        <path id="DejaVuSans-34" d="M 2419 4116 
L 825 1625 
L 2419 1625 
L 2419 4116 
z
M 2253 4666 
L 3047 4666 
L 3047 1625 
L 3713 1625 
L 3713 1100 
L 3047 1100 
L 3047 0 
L 2419 0 
L 2419 1100 
L 313 1100 
L 313 1709 
L 2253 4666 
z
" transform="scale(0.015625)"/>
        <path id="DejaVuSans-30" d="M 2034 4250 
Q 1547 4250 1301 3770 
Q 1056 3291 1056 2328 
Q 1056 1369 1301 889 
Q 1547 409 2034 409 
Q 2525 409 2770 889 
Q 3016 1369 3016 2328 
Q 3016 3291 2770 3770 
Q 2525 4250 2034 4250 
z
M 2034 4750 
Q 2819 4750 3233 4129 
Q 3647 3509 3647 2328 
Q 3647 1150 3233 529 
Q 2819 -91 2034 -91 
Q 1250 -91 836 529 
Q 422 1150 422 2328 
Q 422 3509 836 4129 
Q 1250 4750 2034 4750 
z
" transform="scale(0.015625)"/>
       </defs>
       <use xlink:href="#DejaVuSans-34"/>
       <use xlink:href="#DejaVuSans-30" x="63.623047"/>
       <use xlink:href="#DejaVuSans-30" x="127.246094"/>
      </g>
     </g>
    </g>
    <g id="xtick_2">
     <g id="line2d_2">
      <g>
       <use xlink:href="#m0e5a31ae9e" x="525.677896" y="909.674308" style="stroke: #000000; stroke-width: 0.8"/>
      </g>
     </g>
     <g id="text_2">
      <!-- 600 -->
      <g transform="translate(516.134146 924.272745) scale(0.1 -0.1)">
       <defs>
        <path id="DejaVuSans-36" d="M 2113 2584 
Q 1688 2584 1439 2293 
Q 1191 2003 1191 1497 
Q 1191 994 1439 701 
Q 1688 409 2113 409 
Q 2538 409 2786 701 
Q 3034 994 3034 1497 
Q 3034 2003 2786 2293 
Q 2538 2584 2113 2584 
z
M 3366 4563 
L 3366 3988 
Q 3128 4100 2886 4159 
Q 2644 4219 2406 4219 
Q 1781 4219 1451 3797 
Q 1122 3375 1075 2522 
Q 1259 2794 1537 2939 
Q 1816 3084 2150 3084 
Q 2853 3084 3261 2657 
Q 3669 2231 3669 1497 
Q 3669 778 3244 343 
Q 2819 -91 2113 -91 
Q 1303 -91 875 529 
Q 447 1150 447 2328 
Q 447 3434 972 4092 
Q 1497 4750 2381 4750 
Q 2619 4750 2861 4703 
Q 3103 4656 3366 4563 
z
" transform="scale(0.015625)"/>
       </defs>
       <use xlink:href="#DejaVuSans-36"/>
       <use xlink:href="#DejaVuSans-30" x="63.623047"/>
       <use xlink:href="#DejaVuSans-30" x="127.246094"/>
      </g>
     </g>
    </g>
    <g id="xtick_3">
     <g id="line2d_3">
      <g>
       <use xlink:href="#m0e5a31ae9e" x="706.342647" y="909.674308" style="stroke: #000000; stroke-width: 0.8"/>
      </g>
     </g>
     <g id="text_3">
      <!-- 800 -->
      <g transform="translate(696.798897 924.272745) scale(0.1 -0.1)">
       <defs>
        <path id="DejaVuSans-38" d="M 2034 2216 
Q 1584 2216 1326 1975 
Q 1069 1734 1069 1313 
Q 1069 891 1326 650 
Q 1584 409 2034 409 
Q 2484 409 2743 651 
Q 3003 894 3003 1313 
Q 3003 1734 2745 1975 
Q 2488 2216 2034 2216 
z
M 1403 2484 
Q 997 2584 770 2862 
Q 544 3141 544 3541 
Q 544 4100 942 4425 
Q 1341 4750 2034 4750 
Q 2731 4750 3128 4425 
Q 3525 4100 3525 3541 
Q 3525 3141 3298 2862 
Q 3072 2584 2669 2484 
Q 3125 2378 3379 2068 
Q 3634 1759 3634 1313 
Q 3634 634 3220 271 
Q 2806 -91 2034 -91 
Q 1263 -91 848 271 
Q 434 634 434 1313 
Q 434 1759 690 2068 
Q 947 2378 1403 2484 
z
M 1172 3481 
Q 1172 3119 1398 2916 
Q 1625 2713 2034 2713 
Q 2441 2713 2670 2916 
Q 2900 3119 2900 3481 
Q 2900 3844 2670 4047 
Q 2441 4250 2034 4250 
Q 1625 4250 1398 4047 
Q 1172 3844 1172 3481 
z
" transform="scale(0.015625)"/>
       </defs>
       <use xlink:href="#DejaVuSans-38"/>
       <use xlink:href="#DejaVuSans-30" x="63.623047"/>
       <use xlink:href="#DejaVuSans-30" x="127.246094"/>
      </g>
     </g>
    </g>
    <g id="xtick_4">
     <g id="line2d_4">
      <g>
       <use xlink:href="#m0e5a31ae9e" x="887.007398" y="909.674308" style="stroke: #000000; stroke-width: 0.8"/>
      </g>
     </g>
     <g id="text_4">
      <!-- 1000 -->
      <g transform="translate(874.282398 924.272745) scale(0.1 -0.1)">
       <defs>
        <path id="DejaVuSans-31" d="M 794 531 
L 1825 531 
L 1825 4091 
L 703 3866 
L 703 4441 
L 1819 4666 
L 2450 4666 
L 2450 531 
L 3481 531 
L 3481 0 
L 794 0 
L 794 531 
z
" transform="scale(0.015625)"/>
       </defs>
       <use xlink:href="#DejaVuSans-31"/>
       <use xlink:href="#DejaVuSans-30" x="63.623047"/>
       <use xlink:href="#DejaVuSans-30" x="127.246094"/>
       <use xlink:href="#DejaVuSans-30" x="190.869141"/>
      </g>
     </g>
    </g>
    <g id="xtick_5">
     <g id="line2d_5">
      <g>
       <use xlink:href="#m0e5a31ae9e" x="1067.672149" y="909.674308" style="stroke: #000000; stroke-width: 0.8"/>
      </g>
     </g>
     <g id="text_5">
      <!-- 1200 -->
      <g transform="translate(1054.947149 924.272745) scale(0.1 -0.1)">
       <defs>
        <path id="DejaVuSans-32" d="M 1228 531 
L 3431 531 
L 3431 0 
L 469 0 
L 469 531 
Q 828 903 1448 1529 
Q 2069 2156 2228 2338 
Q 2531 2678 2651 2914 
Q 2772 3150 2772 3378 
Q 2772 3750 2511 3984 
Q 2250 4219 1831 4219 
Q 1534 4219 1204 4116 
Q 875 4013 500 3803 
L 500 4441 
Q 881 4594 1212 4672 
Q 1544 4750 1819 4750 
Q 2544 4750 2975 4387 
Q 3406 4025 3406 3419 
Q 3406 3131 3298 2873 
Q 3191 2616 2906 2266 
Q 2828 2175 2409 1742 
Q 1991 1309 1228 531 
z
" transform="scale(0.015625)"/>
       </defs>
       <use xlink:href="#DejaVuSans-31"/>
       <use xlink:href="#DejaVuSans-32" x="63.623047"/>
       <use xlink:href="#DejaVuSans-30" x="127.246094"/>
       <use xlink:href="#DejaVuSans-30" x="190.869141"/>
      </g>
     </g>
    </g>
    <g id="xtick_6">
     <g id="line2d_6">
      <g>
       <use xlink:href="#m0e5a31ae9e" x="1248.3369" y="909.674308" style="stroke: #000000; stroke-width: 0.8"/>
      </g>
     </g>
     <g id="text_6">
      <!-- 1400 -->
      <g transform="translate(1235.6119 924.272745) scale(0.1 -0.1)">
       <use xlink:href="#DejaVuSans-31"/>
       <use xlink:href="#DejaVuSans-34" x="63.623047"/>
       <use xlink:href="#DejaVuSans-30" x="127.246094"/>
       <use xlink:href="#DejaVuSans-30" x="190.869141"/>
      </g>
     </g>
    </g>
   </g>
   <g id="matplotlib.axis_2">
    <g id="ytick_1">
     <g id="line2d_7">
      <defs>
       <path id="m4c38d54eb3" d="M 0 0 
L -3.5 0 
" style="stroke: #000000; stroke-width: 0.8"/>
      </defs>
      <g>
       <use xlink:href="#m4c38d54eb3" x="180" y="867.617576" style="stroke: #000000; stroke-width: 0.8"/>
      </g>
     </g>
     <g id="text_7">
      <!-- 0 -->
      <g transform="translate(166.6375 871.416795) scale(0.1 -0.1)">
       <use xlink:href="#DejaVuSans-30"/>
      </g>
     </g>
    </g>
    <g id="ytick_2">
     <g id="line2d_8">
      <g>
       <use xlink:href="#m4c38d54eb3" x="180" y="777.285201" style="stroke: #000000; stroke-width: 0.8"/>
      </g>
     </g>
     <g id="text_8">
      <!-- 100 -->
      <g transform="translate(153.9125 781.08442) scale(0.1 -0.1)">
       <use xlink:href="#DejaVuSans-31"/>
       <use xlink:href="#DejaVuSans-30" x="63.623047"/>
       <use xlink:href="#DejaVuSans-30" x="127.246094"/>
      </g>
     </g>
    </g>
    <g id="ytick_3">
     <g id="line2d_9">
      <g>
       <use xlink:href="#m4c38d54eb3" x="180" y="686.952825" style="stroke: #000000; stroke-width: 0.8"/>
      </g>
     </g>
     <g id="text_9">
      <!-- 200 -->
      <g transform="translate(153.9125 690.752044) scale(0.1 -0.1)">
       <use xlink:href="#DejaVuSans-32"/>
       <use xlink:href="#DejaVuSans-30" x="63.623047"/>
       <use xlink:href="#DejaVuSans-30" x="127.246094"/>
      </g>
     </g>
    </g>
    <g id="ytick_4">
     <g id="line2d_10">
      <g>
       <use xlink:href="#m4c38d54eb3" x="180" y="596.62045" style="stroke: #000000; stroke-width: 0.8"/>
      </g>
     </g>
     <g id="text_10">
      <!-- 300 -->
      <g transform="translate(153.9125 600.419669) scale(0.1 -0.1)">
       <defs>
        <path id="DejaVuSans-33" d="M 2597 2516 
Q 3050 2419 3304 2112 
Q 3559 1806 3559 1356 
Q 3559 666 3084 287 
Q 2609 -91 1734 -91 
Q 1441 -91 1130 -33 
Q 819 25 488 141 
L 488 750 
Q 750 597 1062 519 
Q 1375 441 1716 441 
Q 2309 441 2620 675 
Q 2931 909 2931 1356 
Q 2931 1769 2642 2001 
Q 2353 2234 1838 2234 
L 1294 2234 
L 1294 2753 
L 1863 2753 
Q 2328 2753 2575 2939 
Q 2822 3125 2822 3475 
Q 2822 3834 2567 4026 
Q 2313 4219 1838 4219 
Q 1578 4219 1281 4162 
Q 984 4106 628 3988 
L 628 4550 
Q 988 4650 1302 4700 
Q 1616 4750 1894 4750 
Q 2613 4750 3031 4423 
Q 3450 4097 3450 3541 
Q 3450 3153 3228 2886 
Q 3006 2619 2597 2516 
z
" transform="scale(0.015625)"/>
       </defs>
       <use xlink:href="#DejaVuSans-33"/>
       <use xlink:href="#DejaVuSans-30" x="63.623047"/>
       <use xlink:href="#DejaVuSans-30" x="127.246094"/>
      </g>
     </g>
    </g>
    <g id="ytick_5">
     <g id="line2d_11">
      <g>
       <use xlink:href="#m4c38d54eb3" x="180" y="506.288074" style="stroke: #000000; stroke-width: 0.8"/>
      </g>
     </g>
     <g id="text_11">
      <!-- 400 -->
      <g transform="translate(153.9125 510.087293) scale(0.1 -0.1)">
       <use xlink:href="#DejaVuSans-34"/>
       <use xlink:href="#DejaVuSans-30" x="63.623047"/>
       <use xlink:href="#DejaVuSans-30" x="127.246094"/>
      </g>
     </g>
    </g>
    <g id="ytick_6">
     <g id="line2d_12">
      <g>
       <use xlink:href="#m4c38d54eb3" x="180" y="415.955699" style="stroke: #000000; stroke-width: 0.8"/>
      </g>
     </g>
     <g id="text_12">
      <!-- 500 -->
      <g transform="translate(153.9125 419.754918) scale(0.1 -0.1)">
       <defs>
        <path id="DejaVuSans-35" d="M 691 4666 
L 3169 4666 
L 3169 4134 
L 1269 4134 
L 1269 2991 
Q 1406 3038 1543 3061 
Q 1681 3084 1819 3084 
Q 2600 3084 3056 2656 
Q 3513 2228 3513 1497 
Q 3513 744 3044 326 
Q 2575 -91 1722 -91 
Q 1428 -91 1123 -41 
Q 819 9 494 109 
L 494 744 
Q 775 591 1075 516 
Q 1375 441 1709 441 
Q 2250 441 2565 725 
Q 2881 1009 2881 1497 
Q 2881 1984 2565 2268 
Q 2250 2553 1709 2553 
Q 1456 2553 1204 2497 
Q 953 2441 691 2322 
L 691 4666 
z
" transform="scale(0.015625)"/>
       </defs>
       <use xlink:href="#DejaVuSans-35"/>
       <use xlink:href="#DejaVuSans-30" x="63.623047"/>
       <use xlink:href="#DejaVuSans-30" x="127.246094"/>
      </g>
     </g>
    </g>
    <g id="ytick_7">
     <g id="line2d_13">
      <g>
       <use xlink:href="#m4c38d54eb3" x="180" y="325.623323" style="stroke: #000000; stroke-width: 0.8"/>
      </g>
     </g>
     <g id="text_13">
      <!-- 600 -->
      <g transform="translate(153.9125 329.422542) scale(0.1 -0.1)">
       <use xlink:href="#DejaVuSans-36"/>
       <use xlink:href="#DejaVuSans-30" x="63.623047"/>
       <use xlink:href="#DejaVuSans-30" x="127.246094"/>
      </g>
     </g>
    </g>
    <g id="ytick_8">
     <g id="line2d_14">
      <g>
       <use xlink:href="#m4c38d54eb3" x="180" y="235.290948" style="stroke: #000000; stroke-width: 0.8"/>
      </g>
     </g>
     <g id="text_14">
      <!-- 700 -->
      <g transform="translate(153.9125 239.090167) scale(0.1 -0.1)">
       <defs>
        <path id="DejaVuSans-37" d="M 525 4666 
L 3525 4666 
L 3525 4397 
L 1831 0 
L 1172 0 
L 2766 4134 
L 525 4134 
L 525 4666 
z
" transform="scale(0.015625)"/>
       </defs>
       <use xlink:href="#DejaVuSans-37"/>
       <use xlink:href="#DejaVuSans-30" x="63.623047"/>
       <use xlink:href="#DejaVuSans-30" x="127.246094"/>
      </g>
     </g>
    </g>
   </g>
   <g id="LineCollection_1">
    <path d="M 1245.272727 245.155203 
L 1221.324381 235.226918 
L 1198.692251 227.358678 
L 1177.272645 221.429016 
L 1156.975543 217.329936 
L 1137.727731 214.964315 
L 1119.47509 214.241539 
L 1102.182744 215.071673 
L 1085.831933 217.359425 
L 1070.413529 220.999787 
L 1055.919595 225.877109 
L 1042.335466 231.86809 
L 1029.634666 238.847511 
L 1017.777656 246.694601 
L 1006.713801 255.298076 
L 996.385096 264.558931 
L 986.730161 274.391072 
L 977.68759 284.72044 
L 969.198275 295.483379 
L 961.20677 306.624804 
L 953.661918 318.096523 
L 946.516969 329.855822 
L 939.729409 341.864357 
L 933.260645 354.087312 
L 927.075627 366.492766 
L 921.142469 379.051226 
L 915.432089 391.735267 
L 909.917889 404.519267 
L 904.575464 417.379184 
L 899.382355 430.292386 
L 889.362688 456.19428 
L 879.7105 482.066856 
L 851.73054 558.180409 
L 842.396849 582.631327 
L 832.91932 606.429433 
L 828.103511 618.050467 
L 823.224877 629.468829 
L 818.275321 640.671738 
L 813.247116 651.646571 
L 808.132901 662.380873 
L 802.925665 672.862371 
L 797.618738 683.079005 
L 792.205777 693.018968 
L 786.680758 702.670769 
L 781.037943 712.0233 
L 775.271859 721.065928 
L 769.37724 729.788598 
L 763.348963 738.181947 
L 757.181954 746.237424 
L 750.87106 753.94742 
L 744.410892 761.305374 
L 737.795631 768.305873 
L 731.018809 774.944703 
L 724.073071 781.218852 
L 716.949929 787.12645 
L 709.639555 792.666619 
L 702.130612 797.839262 
L 694.410182 802.644767 
L 686.463804 807.083683 
L 678.275632 811.156381 
L 669.828732 814.862749 
L 661.105469 818.201972 
L 652.087981 821.172417 
L 642.758659 823.771653 
L 633.100606 825.996597 
L 623.098026 827.843768 
L 612.736512 829.309621 
L 602.003216 830.390921 
L 590.886925 831.085125 
L 579.378034 831.390731 
L 567.468457 831.307601 
L 555.151486 830.837216 
L 542.42164 829.982886 
L 529.274492 828.749916 
L 515.706521 827.145717 
L 501.71497 825.179895 
L 487.297727 822.864318 
L 472.453232 820.213157 
L 457.180393 817.242925 
L 441.478534 813.972513 
L 425.347351 810.423215 
L 408.78688 806.618769 
L 374.379809 798.35178 
L 280.844819 775.352046 
L 260.866571 770.662879 
L 240.694669 766.098764 
L 240.694669 766.098764 
" clip-path="url(#p1b13b3c127)" style="fill: none; stroke: #1f77b4; stroke-width: 1.5"/>
    <path d="M 1236.593692 266.003956 
L 1213.867492 256.543365 
L 1192.612775 249.108071 
L 1172.732042 243.55093 
L 1154.133134 239.733437 
L 1136.728997 237.525314 
L 1120.437454 236.804118 
L 1105.180971 237.454854 
L 1090.886449 239.369605 
L 1077.485006 242.447172 
L 1064.911775 246.592727 
L 1053.105704 251.717475 
L 1042.009367 257.738326 
L 1031.568773 264.577588 
L 1021.733192 272.162655 
L 1012.454977 280.425722 
L 1003.689398 289.303497 
L 995.394481 298.736936 
L 987.530853 308.670975 
L 980.061587 319.054285 
L 972.952062 329.839031 
L 966.169822 340.980636 
L 959.684443 352.437566 
L 953.467402 364.171115 
L 947.491958 376.145203 
L 941.73303 388.326187 
L 936.167086 400.68267 
L 930.772035 413.185334 
L 925.527122 425.806768 
L 920.41283 438.521313 
L 915.410787 451.304914 
L 910.503678 464.134977 
L 905.675157 476.990238 
L 900.909766 489.850637 
L 896.192863 502.697204 
L 891.510548 515.511945 
L 886.849593 528.277747 
L 882.197382 540.978278 
L 877.541846 553.597902 
L 872.871412 566.1216 
L 868.174947 578.534896 
L 863.441712 590.823789 
L 858.661314 602.974696 
L 853.823664 614.974396 
L 848.918942 626.809986 
L 843.937558 638.468835 
L 838.870122 649.938551 
L 833.707415 661.206956 
L 828.440362 672.262054 
L 823.060007 683.092017 
L 817.557499 693.685174 
L 811.924066 704.029998 
L 806.151006 714.115105 
L 800.229674 723.929258 
L 794.151467 733.461371 
L 787.907821 742.70052 
L 781.490204 751.635959 
L 774.890113 760.257138 
L 768.099069 768.55373 
L 761.108625 776.515654 
L 753.910359 784.133109 
L 746.495885 791.396606 
L 738.856858 798.297011 
L 730.984976 804.825578 
L 722.871995 810.974003 
L 714.509739 816.734462 
L 705.890105 822.099668 
L 697.005083 827.06292 
L 687.846765 831.618157 
L 678.407364 835.760019 
L 668.679224 839.483903 
L 658.654843 842.786028 
L 648.326884 845.663494 
L 637.688199 848.114348 
L 626.731842 850.137652 
L 615.451092 851.73355 
L 603.839468 852.903336 
L 591.890753 853.649523 
L 579.599012 853.975918 
L 566.958608 853.887686 
L 553.964229 853.39143 
L 540.6109 852.495258 
L 526.894009 851.208856 
L 512.809322 849.543563 
L 498.353 847.512441 
L 483.521624 845.130349 
L 468.312207 842.414014 
L 452.72221 839.382102 
L 436.749564 836.05529 
L 420.39268 832.456332 
L 403.650466 828.610133 
L 386.522337 824.543813 
L 369.008234 820.286771 
L 351.108627 815.870755 
L 332.824528 811.329922 
L 314.157502 806.700896 
L 295.109669 802.022834 
L 275.68371 797.337475 
L 255.882873 792.689201 
L 235.710971 788.125086 
" clip-path="url(#p1b13b3c127)" style="fill: none; stroke: #8c564b; stroke-width: 1.5"/>
    <path d="M 1227.914656 286.852708 
L 1205.792751 277.643677 
L 1185.837669 270.663019 
L 1167.415469 265.513573 
L 1150.436258 262.028528 
L 1134.805197 260.045362 
L 1120.419234 259.408522 
L 1107.165329 259.973842 
L 1094.921459 261.613908 
L 1083.561063 264.22276 
L 1072.960271 267.717977 
L 1063.005898 272.038944 
L 1053.601687 277.141652 
L 1044.671092 282.991767 
L 1036.156446 289.558147 
L 1028.015624 296.808264 
L 1020.217744 304.705954 
L 1012.739123 313.211057 
L 1005.56012 322.280216 
L 998.663013 331.868147 
L 992.030729 341.928945 
L 985.64622 352.417173 
L 979.492228 363.288681 
L 973.55128 374.501154 
L 967.805793 386.014436 
L 962.238214 397.790688 
L 956.831164 409.794425 
L 951.567558 421.992472 
L 946.430704 434.353872 
L 941.404366 446.849756 
L 931.620843 472.139106 
L 922.097468 497.665913 
L 893.993327 574.112897 
L 884.456939 599.09158 
L 874.76873 623.418349 
L 869.685913 635.682925 
L 864.594397 647.595232 
L 859.400984 659.344925 
L 854.094851 670.920277 
L 848.665095 682.309755 
L 843.1007 693.501953 
L 837.390505 704.485543 
L 831.523187 715.249203 
L 825.487245 725.781552 
L 819.271008 736.071076 
L 812.862651 746.106043 
L 806.25024 755.874425 
L 799.421807 765.363805 
L 792.365446 774.561294 
L 785.069457 783.453465 
L 777.522525 792.026296 
L 769.71393 800.265166 
L 761.633793 808.154885 
L 753.273327 815.679805 
L 744.62509 822.824006 
L 735.683192 829.571567 
L 726.443441 835.906913 
L 716.903394 841.815236 
L 707.062275 847.282935 
L 696.920783 852.298058 
L 686.480769 856.850686 
L 675.744831 860.933223 
L 664.715861 864.540572 
L 653.396605 867.670176 
L 641.789264 870.321946 
L 629.895194 872.498093 
L 617.714715 874.20291 
L 605.247022 875.442522 
L 592.490213 876.224659 
L 579.441383 876.558461 
L 566.096787 876.45433 
L 552.452027 875.923838 
L 538.502258 874.979692 
L 524.242383 873.635737 
L 509.667245 871.907004 
L 494.771789 869.809774 
L 479.551207 867.361677 
L 464.001062 864.581787 
L 448.117383 861.490736 
L 431.896751 858.110818 
L 415.336364 854.466098 
L 398.43409 850.582515 
L 363.598944 842.212457 
L 270.455609 819.307177 
L 250.810386 814.695434 
L 230.727273 810.151408 
L 230.727273 810.151408 
" clip-path="url(#p1b13b3c127)" style="fill: none; stroke: #17becf; stroke-width: 1.5"/>
   </g>
   <g id="patch_3">
    <path d="M 180 909.674308 
L 180 181.125692 
" style="fill: none; stroke: #000000; stroke-width: 0.8; stroke-linejoin: miter; stroke-linecap: square"/>
   </g>
   <g id="patch_4">
    <path d="M 1296 909.674308 
L 1296 181.125692 
" style="fill: none; stroke: #000000; stroke-width: 0.8; stroke-linejoin: miter; stroke-linecap: square"/>
   </g>
   <g id="patch_5">
    <path d="M 180 909.674308 
L 1296 909.674308 
" style="fill: none; stroke: #000000; stroke-width: 0.8; stroke-linejoin: miter; stroke-linecap: square"/>
   </g>
   <g id="patch_6">
    <path d="M 180 181.125692 
L 1296 181.125692 
" style="fill: none; stroke: #000000; stroke-width: 0.8; stroke-linejoin: miter; stroke-linecap: square"/>
   </g>
  </g>
 </g>
 <defs>
  <clipPath id="p1b13b3c127">
   <rect x="180" y="181.125692" width="1116" height="728.548615"/>
  </clipPath>
 </defs>
</svg>
