<?xml version="1.0" encoding="utf-8" standalone="no"?>
<!DOCTYPE svg PUBLIC "-//W3C//DTD SVG 1.1//EN"
  "http://www.w3.org/Graphics/SVG/1.1/DTD/svg11.dtd">
<svg xmlns:xlink="http://www.w3.org/1999/xlink" width="1440pt" height="1080pt" viewBox="0 0 1440 1080" xmlns="http://www.w3.org/2000/svg" version="1.1">
 <metadata>
  <rdf:RDF xmlns:dc="http://purl.org/dc/elements/1.1/" xmlns:cc="http://creativecommons.org/ns#" xmlns:rdf="http://www.w3.org/1999/02/22-rdf-syntax-ns#">
   <cc:Work>
    <dc:type rdf:resource="http://purl.org/dc/dcmitype/StillImage"/>
    <dc:date>2023-12-11T12:06:42.211573</dc:date>
    <dc:format>image/svg+xml</dc:format>
    <dc:creator>
     <cc:Agent>
      <dc:title>Matplotlib v3.7.1, https://matplotlib.org/</dc:title>
     </cc:Agent>
    </dc:creator>
   </cc:Work>
  </rdf:RDF>
 </metadata>
 <defs>
  <style type="text/css">*{stroke-linejoin: round; stroke-linecap: butt}</style>
 </defs>
 <g id="figure_1">
  <g id="patch_1">
   <path d="M 0 1080 
L 1440 1080 
L 1440 0 
L 0 0 
z
" style="fill: #ffffff"/>
  </g>
  <g id="axes_1">
   <g id="patch_2">
    <path d="M 237.887118 961.2 
L 1238.112882 961.2 
L 1238.112882 129.6 
L 237.887118 129.6 
z
" style="fill: #ffffff"/>
   </g>
   <g id="matplotlib.axis_1">
    <g id="xtick_1">
     <g id="line2d_1">
      <defs>
       <path id="m9c2c12a842" d="M 0 0 
L 0 3.5 
" style="stroke: #000000; stroke-width: 0.8"/>
      </defs>
      <g>
       <use xlink:href="#m9c2c12a842" x="277.080317" y="961.2" style="stroke: #000000; stroke-width: 0.8"/>
      </g>
     </g>
     <g id="text_1">
      <!-- 100 -->
      <g transform="translate(267.536567 975.798437) scale(0.1 -0.1)">
       <defs>
        <path id="DejaVuSans-31" d="M 794 531 
L 1825 531 
L 1825 4091 
L 703 3866 
L 703 4441 
L 1819 4666 
L 2450 4666 
L 2450 531 
L 3481 531 
L 3481 0 
L 794 0 
L 794 531 
z
" transform="scale(0.015625)"/>
        <path id="DejaVuSans-30" d="M 2034 4250 
Q 1547 4250 1301 3770 
Q 1056 3291 1056 2328 
Q 1056 1369 1301 889 
Q 1547 409 2034 409 
Q 2525 409 2770 889 
Q 3016 1369 3016 2328 
Q 3016 3291 2770 3770 
Q 2525 4250 2034 4250 
z
M 2034 4750 
Q 2819 4750 3233 4129 
Q 3647 3509 3647 2328 
Q 3647 1150 3233 529 
Q 2819 -91 2034 -91 
Q 1250 -91 836 529 
Q 422 1150 422 2328 
Q 422 3509 836 4129 
Q 1250 4750 2034 4750 
z
" transform="scale(0.015625)"/>
       </defs>
       <use xlink:href="#DejaVuSans-31"/>
       <use xlink:href="#DejaVuSans-30" x="63.623047"/>
       <use xlink:href="#DejaVuSans-30" x="127.246094"/>
      </g>
     </g>
    </g>
    <g id="xtick_2">
     <g id="line2d_2">
      <g>
       <use xlink:href="#m9c2c12a842" x="408.742872" y="961.2" style="stroke: #000000; stroke-width: 0.8"/>
      </g>
     </g>
     <g id="text_2">
      <!-- 200 -->
      <g transform="translate(399.199122 975.798437) scale(0.1 -0.1)">
       <defs>
        <path id="DejaVuSans-32" d="M 1228 531 
L 3431 531 
L 3431 0 
L 469 0 
L 469 531 
Q 828 903 1448 1529 
Q 2069 2156 2228 2338 
Q 2531 2678 2651 2914 
Q 2772 3150 2772 3378 
Q 2772 3750 2511 3984 
Q 2250 4219 1831 4219 
Q 1534 4219 1204 4116 
Q 875 4013 500 3803 
L 500 4441 
Q 881 4594 1212 4672 
Q 1544 4750 1819 4750 
Q 2544 4750 2975 4387 
Q 3406 4025 3406 3419 
Q 3406 3131 3298 2873 
Q 3191 2616 2906 2266 
Q 2828 2175 2409 1742 
Q 1991 1309 1228 531 
z
" transform="scale(0.015625)"/>
       </defs>
       <use xlink:href="#DejaVuSans-32"/>
       <use xlink:href="#DejaVuSans-30" x="63.623047"/>
       <use xlink:href="#DejaVuSans-30" x="127.246094"/>
      </g>
     </g>
    </g>
    <g id="xtick_3">
     <g id="line2d_3">
      <g>
       <use xlink:href="#m9c2c12a842" x="540.405428" y="961.2" style="stroke: #000000; stroke-width: 0.8"/>
      </g>
     </g>
     <g id="text_3">
      <!-- 300 -->
      <g transform="translate(530.861678 975.798437) scale(0.1 -0.1)">
       <defs>
        <path id="DejaVuSans-33" d="M 2597 2516 
Q 3050 2419 3304 2112 
Q 3559 1806 3559 1356 
Q 3559 666 3084 287 
Q 2609 -91 1734 -91 
Q 1441 -91 1130 -33 
Q 819 25 488 141 
L 488 750 
Q 750 597 1062 519 
Q 1375 441 1716 441 
Q 2309 441 2620 675 
Q 2931 909 2931 1356 
Q 2931 1769 2642 2001 
Q 2353 2234 1838 2234 
L 1294 2234 
L 1294 2753 
L 1863 2753 
Q 2328 2753 2575 2939 
Q 2822 3125 2822 3475 
Q 2822 3834 2567 4026 
Q 2313 4219 1838 4219 
Q 1578 4219 1281 4162 
Q 984 4106 628 3988 
L 628 4550 
Q 988 4650 1302 4700 
Q 1616 4750 1894 4750 
Q 2613 4750 3031 4423 
Q 3450 4097 3450 3541 
Q 3450 3153 3228 2886 
Q 3006 2619 2597 2516 
z
" transform="scale(0.015625)"/>
       </defs>
       <use xlink:href="#DejaVuSans-33"/>
       <use xlink:href="#DejaVuSans-30" x="63.623047"/>
       <use xlink:href="#DejaVuSans-30" x="127.246094"/>
      </g>
     </g>
    </g>
    <g id="xtick_4">
     <g id="line2d_4">
      <g>
       <use xlink:href="#m9c2c12a842" x="672.067983" y="961.2" style="stroke: #000000; stroke-width: 0.8"/>
      </g>
     </g>
     <g id="text_4">
      <!-- 400 -->
      <g transform="translate(662.524233 975.798437) scale(0.1 -0.1)">
       <defs>
        <path id="DejaVuSans-34" d="M 2419 4116 
L 825 1625 
L 2419 1625 
L 2419 4116 
z
M 2253 4666 
L 3047 4666 
L 3047 1625 
L 3713 1625 
L 3713 1100 
L 3047 1100 
L 3047 0 
L 2419 0 
L 2419 1100 
L 313 1100 
L 313 1709 
L 2253 4666 
z
" transform="scale(0.015625)"/>
       </defs>
       <use xlink:href="#DejaVuSans-34"/>
       <use xlink:href="#DejaVuSans-30" x="63.623047"/>
       <use xlink:href="#DejaVuSans-30" x="127.246094"/>
      </g>
     </g>
    </g>
    <g id="xtick_5">
     <g id="line2d_5">
      <g>
       <use xlink:href="#m9c2c12a842" x="803.730538" y="961.2" style="stroke: #000000; stroke-width: 0.8"/>
      </g>
     </g>
     <g id="text_5">
      <!-- 500 -->
      <g transform="translate(794.186788 975.798437) scale(0.1 -0.1)">
       <defs>
        <path id="DejaVuSans-35" d="M 691 4666 
L 3169 4666 
L 3169 4134 
L 1269 4134 
L 1269 2991 
Q 1406 3038 1543 3061 
Q 1681 3084 1819 3084 
Q 2600 3084 3056 2656 
Q 3513 2228 3513 1497 
Q 3513 744 3044 326 
Q 2575 -91 1722 -91 
Q 1428 -91 1123 -41 
Q 819 9 494 109 
L 494 744 
Q 775 591 1075 516 
Q 1375 441 1709 441 
Q 2250 441 2565 725 
Q 2881 1009 2881 1497 
Q 2881 1984 2565 2268 
Q 2250 2553 1709 2553 
Q 1456 2553 1204 2497 
Q 953 2441 691 2322 
L 691 4666 
z
" transform="scale(0.015625)"/>
       </defs>
       <use xlink:href="#DejaVuSans-35"/>
       <use xlink:href="#DejaVuSans-30" x="63.623047"/>
       <use xlink:href="#DejaVuSans-30" x="127.246094"/>
      </g>
     </g>
    </g>
    <g id="xtick_6">
     <g id="line2d_6">
      <g>
       <use xlink:href="#m9c2c12a842" x="935.393093" y="961.2" style="stroke: #000000; stroke-width: 0.8"/>
      </g>
     </g>
     <g id="text_6">
      <!-- 600 -->
      <g transform="translate(925.849343 975.798437) scale(0.1 -0.1)">
       <defs>
        <path id="DejaVuSans-36" d="M 2113 2584 
Q 1688 2584 1439 2293 
Q 1191 2003 1191 1497 
Q 1191 994 1439 701 
Q 1688 409 2113 409 
Q 2538 409 2786 701 
Q 3034 994 3034 1497 
Q 3034 2003 2786 2293 
Q 2538 2584 2113 2584 
z
M 3366 4563 
L 3366 3988 
Q 3128 4100 2886 4159 
Q 2644 4219 2406 4219 
Q 1781 4219 1451 3797 
Q 1122 3375 1075 2522 
Q 1259 2794 1537 2939 
Q 1816 3084 2150 3084 
Q 2853 3084 3261 2657 
Q 3669 2231 3669 1497 
Q 3669 778 3244 343 
Q 2819 -91 2113 -91 
Q 1303 -91 875 529 
Q 447 1150 447 2328 
Q 447 3434 972 4092 
Q 1497 4750 2381 4750 
Q 2619 4750 2861 4703 
Q 3103 4656 3366 4563 
z
" transform="scale(0.015625)"/>
       </defs>
       <use xlink:href="#DejaVuSans-36"/>
       <use xlink:href="#DejaVuSans-30" x="63.623047"/>
       <use xlink:href="#DejaVuSans-30" x="127.246094"/>
      </g>
     </g>
    </g>
    <g id="xtick_7">
     <g id="line2d_7">
      <g>
       <use xlink:href="#m9c2c12a842" x="1067.055649" y="961.2" style="stroke: #000000; stroke-width: 0.8"/>
      </g>
     </g>
     <g id="text_7">
      <!-- 700 -->
      <g transform="translate(1057.511899 975.798437) scale(0.1 -0.1)">
       <defs>
        <path id="DejaVuSans-37" d="M 525 4666 
L 3525 4666 
L 3525 4397 
L 1831 0 
L 1172 0 
L 2766 4134 
L 525 4134 
L 525 4666 
z
" transform="scale(0.015625)"/>
       </defs>
       <use xlink:href="#DejaVuSans-37"/>
       <use xlink:href="#DejaVuSans-30" x="63.623047"/>
       <use xlink:href="#DejaVuSans-30" x="127.246094"/>
      </g>
     </g>
    </g>
    <g id="xtick_8">
     <g id="line2d_8">
      <g>
       <use xlink:href="#m9c2c12a842" x="1198.718204" y="961.2" style="stroke: #000000; stroke-width: 0.8"/>
      </g>
     </g>
     <g id="text_8">
      <!-- 800 -->
      <g transform="translate(1189.174454 975.798437) scale(0.1 -0.1)">
       <defs>
        <path id="DejaVuSans-38" d="M 2034 2216 
Q 1584 2216 1326 1975 
Q 1069 1734 1069 1313 
Q 1069 891 1326 650 
Q 1584 409 2034 409 
Q 2484 409 2743 651 
Q 3003 894 3003 1313 
Q 3003 1734 2745 1975 
Q 2488 2216 2034 2216 
z
M 1403 2484 
Q 997 2584 770 2862 
Q 544 3141 544 3541 
Q 544 4100 942 4425 
Q 1341 4750 2034 4750 
Q 2731 4750 3128 4425 
Q 3525 4100 3525 3541 
Q 3525 3141 3298 2862 
Q 3072 2584 2669 2484 
Q 3125 2378 3379 2068 
Q 3634 1759 3634 1313 
Q 3634 634 3220 271 
Q 2806 -91 2034 -91 
Q 1263 -91 848 271 
Q 434 634 434 1313 
Q 434 1759 690 2068 
Q 947 2378 1403 2484 
z
M 1172 3481 
Q 1172 3119 1398 2916 
Q 1625 2713 2034 2713 
Q 2441 2713 2670 2916 
Q 2900 3119 2900 3481 
Q 2900 3844 2670 4047 
Q 2441 4250 2034 4250 
Q 1625 4250 1398 4047 
Q 1172 3844 1172 3481 
z
" transform="scale(0.015625)"/>
       </defs>
       <use xlink:href="#DejaVuSans-38"/>
       <use xlink:href="#DejaVuSans-30" x="63.623047"/>
       <use xlink:href="#DejaVuSans-30" x="127.246094"/>
      </g>
     </g>
    </g>
   </g>
   <g id="matplotlib.axis_2">
    <g id="ytick_1">
     <g id="line2d_9">
      <defs>
       <path id="ma8eac69637" d="M 0 0 
L -3.5 0 
" style="stroke: #000000; stroke-width: 0.8"/>
      </defs>
      <g>
       <use xlink:href="#ma8eac69637" x="237.887118" y="960.157983" style="stroke: #000000; stroke-width: 0.8"/>
      </g>
     </g>
     <g id="text_9">
      <!-- 600 -->
      <g transform="translate(211.799618 963.957201) scale(0.1 -0.1)">
       <use xlink:href="#DejaVuSans-36"/>
       <use xlink:href="#DejaVuSans-30" x="63.623047"/>
       <use xlink:href="#DejaVuSans-30" x="127.246094"/>
      </g>
     </g>
    </g>
    <g id="ytick_2">
     <g id="line2d_10">
      <g>
       <use xlink:href="#ma8eac69637" x="237.887118" y="828.495427" style="stroke: #000000; stroke-width: 0.8"/>
      </g>
     </g>
     <g id="text_10">
      <!-- 700 -->
      <g transform="translate(211.799618 832.294646) scale(0.1 -0.1)">
       <use xlink:href="#DejaVuSans-37"/>
       <use xlink:href="#DejaVuSans-30" x="63.623047"/>
       <use xlink:href="#DejaVuSans-30" x="127.246094"/>
      </g>
     </g>
    </g>
    <g id="ytick_3">
     <g id="line2d_11">
      <g>
       <use xlink:href="#ma8eac69637" x="237.887118" y="696.832872" style="stroke: #000000; stroke-width: 0.8"/>
      </g>
     </g>
     <g id="text_11">
      <!-- 800 -->
      <g transform="translate(211.799618 700.632091) scale(0.1 -0.1)">
       <use xlink:href="#DejaVuSans-38"/>
       <use xlink:href="#DejaVuSans-30" x="63.623047"/>
       <use xlink:href="#DejaVuSans-30" x="127.246094"/>
      </g>
     </g>
    </g>
    <g id="ytick_4">
     <g id="line2d_12">
      <g>
       <use xlink:href="#ma8eac69637" x="237.887118" y="565.170317" style="stroke: #000000; stroke-width: 0.8"/>
      </g>
     </g>
     <g id="text_12">
      <!-- 900 -->
      <g transform="translate(211.799618 568.969536) scale(0.1 -0.1)">
       <defs>
        <path id="DejaVuSans-39" d="M 703 97 
L 703 672 
Q 941 559 1184 500 
Q 1428 441 1663 441 
Q 2288 441 2617 861 
Q 2947 1281 2994 2138 
Q 2813 1869 2534 1725 
Q 2256 1581 1919 1581 
Q 1219 1581 811 2004 
Q 403 2428 403 3163 
Q 403 3881 828 4315 
Q 1253 4750 1959 4750 
Q 2769 4750 3195 4129 
Q 3622 3509 3622 2328 
Q 3622 1225 3098 567 
Q 2575 -91 1691 -91 
Q 1453 -91 1209 -44 
Q 966 3 703 97 
z
M 1959 2075 
Q 2384 2075 2632 2365 
Q 2881 2656 2881 3163 
Q 2881 3666 2632 3958 
Q 2384 4250 1959 4250 
Q 1534 4250 1286 3958 
Q 1038 3666 1038 3163 
Q 1038 2656 1286 2365 
Q 1534 2075 1959 2075 
z
" transform="scale(0.015625)"/>
       </defs>
       <use xlink:href="#DejaVuSans-39"/>
       <use xlink:href="#DejaVuSans-30" x="63.623047"/>
       <use xlink:href="#DejaVuSans-30" x="127.246094"/>
      </g>
     </g>
    </g>
    <g id="ytick_5">
     <g id="line2d_13">
      <g>
       <use xlink:href="#ma8eac69637" x="237.887118" y="433.507762" style="stroke: #000000; stroke-width: 0.8"/>
      </g>
     </g>
     <g id="text_13">
      <!-- 1000 -->
      <g transform="translate(205.437118 437.30698) scale(0.1 -0.1)">
       <use xlink:href="#DejaVuSans-31"/>
       <use xlink:href="#DejaVuSans-30" x="63.623047"/>
       <use xlink:href="#DejaVuSans-30" x="127.246094"/>
       <use xlink:href="#DejaVuSans-30" x="190.869141"/>
      </g>
     </g>
    </g>
    <g id="ytick_6">
     <g id="line2d_14">
      <g>
       <use xlink:href="#ma8eac69637" x="237.887118" y="301.845206" style="stroke: #000000; stroke-width: 0.8"/>
      </g>
     </g>
     <g id="text_14">
      <!-- 1100 -->
      <g transform="translate(205.437118 305.644425) scale(0.1 -0.1)">
       <use xlink:href="#DejaVuSans-31"/>
       <use xlink:href="#DejaVuSans-31" x="63.623047"/>
       <use xlink:href="#DejaVuSans-30" x="127.246094"/>
       <use xlink:href="#DejaVuSans-30" x="190.869141"/>
      </g>
     </g>
    </g>
    <g id="ytick_7">
     <g id="line2d_15">
      <g>
       <use xlink:href="#ma8eac69637" x="237.887118" y="170.182651" style="stroke: #000000; stroke-width: 0.8"/>
      </g>
     </g>
     <g id="text_15">
      <!-- 1200 -->
      <g transform="translate(205.437118 173.98187) scale(0.1 -0.1)">
       <use xlink:href="#DejaVuSans-31"/>
       <use xlink:href="#DejaVuSans-32" x="63.623047"/>
       <use xlink:href="#DejaVuSans-30" x="127.246094"/>
       <use xlink:href="#DejaVuSans-30" x="190.869141"/>
      </g>
     </g>
    </g>
   </g>
   <g id="LineCollection_1">
    <path d="M 298.319972 167.4 
L 294.602124 197.091845 
L 291.461522 225.504262 
L 288.871615 252.700577 
L 286.80729 278.741204 
L 285.244853 303.683718 
L 284.161988 327.582916 
L 283.537732 350.490892 
L 283.352433 372.457104 
L 283.587715 393.528444 
L 284.226438 413.74931 
L 285.252648 433.161676 
L 286.651534 451.805162 
L 288.409374 469.717103 
L 290.513485 486.932621 
L 292.952158 503.484692 
L 295.714599 519.404218 
L 298.790861 534.720096 
L 302.171773 549.459291 
L 305.848863 563.646907 
L 309.814279 577.306266 
L 314.060704 590.458986 
L 318.581269 603.125069 
L 323.369465 615.322986 
L 328.419056 627.069783 
L 333.72399 638.38118 
L 339.278315 649.271688 
L 345.076105 659.754729 
L 351.111393 669.842767 
L 357.378111 679.547436 
L 363.87005 688.879684 
L 370.580829 697.849902 
L 377.503882 706.468064 
L 384.632459 714.743849 
L 391.959638 722.686763 
L 399.478352 730.30624 
L 407.181423 737.611736 
L 415.0616 744.612798 
L 423.111601 751.319124 
L 431.324155 757.740604 
L 439.692038 763.887344 
L 448.208106 769.769678 
L 456.865324 775.398168 
L 465.656782 780.7836 
L 474.575708 785.936963 
L 483.615483 790.869433 
L 492.769633 795.592348 
L 502.031838 800.117187 
L 511.39593 804.455537 
L 520.855889 808.619073 
L 530.405848 812.619525 
L 540.040099 816.468657 
L 549.753101 820.178233 
L 559.539497 823.759987 
L 569.394139 827.225595 
L 589.288791 833.854561 
L 609.401381 840.155942 
L 629.702379 846.217035 
L 660.463759 855.035907 
L 712.555976 869.580015 
L 788.287295 890.632557 
L 811.052255 896.750357 
L 834.631518 902.771854 
L 846.799595 905.69928 
L 859.264629 908.538101 
L 872.063744 911.257975 
L 885.236997 913.823723 
L 898.82738 916.195029 
L 912.880847 918.326209 
L 927.446357 920.166028 
L 942.575996 921.657609 
L 958.325186 922.738393 
L 974.753035 923.340142 
L 991.922836 923.388956 
L 1009.902718 922.805242 
L 1028.766433 921.503592 
L 1048.594231 919.392534 
L 1069.473751 916.374135 
L 1091.500884 912.343454 
L 1114.780541 907.18788 
L 1139.427296 900.786385 
L 1165.565898 893.008751 
L 1192.648074 883.955676 
L 1192.648074 883.955676 
" clip-path="url(#p44516941eb)" style="fill: none; stroke: #1f77b4; stroke-width: 1.5"/>
    <path d="M 320.52896 170.182651 
L 316.84904 199.552955 
L 313.743133 227.628448 
L 311.184042 254.471983 
L 309.145952 280.143525 
L 307.604393 304.700222 
L 306.536211 328.196486 
L 305.919533 350.684067 
L 305.733727 372.212133 
L 305.959367 392.827354 
L 306.578193 412.573983 
L 307.573064 431.49394 
L 308.927922 449.626894 
L 310.627741 467.010354 
L 312.658488 483.679753 
L 315.007072 499.668533 
L 317.661299 515.008236 
L 320.609825 529.728589 
L 323.842105 543.857593 
L 327.348351 557.421608 
L 331.119477 570.445443 
L 335.147053 582.952441 
L 339.423259 594.964567 
L 343.940833 606.50249 
L 348.693027 617.585669 
L 353.673559 628.232436 
L 358.876564 638.460077 
L 364.296554 648.284914 
L 369.928368 657.72238 
L 375.767134 666.787101 
L 381.808224 675.492965 
L 388.047214 683.853198 
L 394.479847 691.880433 
L 401.101993 699.586779 
L 407.909619 706.983884 
L 414.898751 714.082998 
L 422.065446 720.895032 
L 429.405762 727.430617 
L 436.915734 733.70015 
L 444.59135 739.71385 
L 452.42853 745.481799 
L 460.423108 751.013984 
L 468.570821 756.320337 
L 476.867294 761.410765 
L 485.308034 766.295183 
L 493.888426 770.983534 
L 502.60373 775.485811 
L 511.44909 779.812072 
L 520.419535 783.97245 
L 529.509995 787.977155 
L 538.715313 791.836476 
L 548.030268 795.560776 
L 557.449599 799.160473 
L 566.968034 802.64603 
L 576.580324 806.027928 
L 586.281283 809.316634 
L 596.065834 812.522566 
L 605.929054 815.65605 
L 615.866235 818.727269 
L 625.872939 821.746209 
L 635.945072 824.722591 
L 646.078948 827.665802 
L 656.271375 830.584817 
L 666.519735 833.488111 
L 676.822076 836.383569 
L 687.177211 839.278378 
L 697.584822 842.178924 
L 708.045569 845.090668 
L 718.56121 848.018023 
L 729.134725 850.96422 
L 739.770449 853.931159 
L 750.474211 856.91926 
L 761.25348 859.927301 
L 772.117522 862.952248 
L 783.077561 865.989069 
L 794.146952 869.030549 
L 805.341356 872.06709 
L 816.678929 875.086497 
L 828.180519 878.073762 
L 839.869864 881.010832 
L 851.773813 883.876368 
L 863.922541 886.645496 
L 876.349782 889.289539 
L 889.093068 891.775752 
L 902.193979 894.067031 
L 915.698399 896.121621 
L 929.656786 897.892808 
L 944.124448 899.328601 
L 959.161835 900.3714 
L 974.834828 900.957657 
L 991.215056 901.017515 
L 1008.380208 900.47445 
L 1026.414363 899.244884 
L 1045.408331 897.237797 
L 1065.46 894.354323 
L 1086.674701 890.487327 
L 1109.165573 885.520982 
L 1133.053955 879.330318 
L 1158.469773 871.780766 
L 1185.551948 862.727692 
" clip-path="url(#p44516941eb)" style="fill: none; stroke: #8c564b; stroke-width: 1.5"/>
    <path d="M 342.737949 172.965302 
L 339.078155 202.174972 
L 336.00867 229.921227 
L 333.482457 256.419901 
L 331.473023 281.730497 
L 329.95516 305.909725 
L 328.904908 329.01159 
L 328.299519 351.087475 
L 328.117418 372.186232 
L 328.338164 392.354275 
L 328.94241 411.63567 
L 329.911863 430.072235 
L 331.229246 447.703639 
L 332.878257 464.5675 
L 334.843535 480.699492 
L 337.110621 496.133445 
L 339.665927 510.901453 
L 342.496709 525.033976 
L 345.591034 538.559948 
L 348.937765 551.506875 
L 352.526537 563.900939 
L 356.347744 575.76709 
L 360.392528 587.129138 
L 364.652771 598.009835 
L 369.121088 608.430948 
L 373.79082 618.413326 
L 378.656029 627.976955 
L 383.711484 637.140998 
L 388.952644 645.923829 
L 394.375637 654.34306 
L 399.977223 662.415552 
L 405.754748 670.157423 
L 411.70609 677.584059 
L 417.82959 684.710118 
L 424.123972 691.549536 
L 430.588258 698.115544 
L 437.221675 704.420692 
L 444.023561 710.476876 
L 450.993271 716.295383 
L 458.130085 721.886942 
L 465.433132 727.261784 
L 472.901312 732.429705 
L 480.53324 737.400143 
L 488.327198 742.182246 
L 496.281102 746.784945 
L 504.392478 751.217025 
L 512.658461 755.487185 
L 521.075789 759.604096 
L 529.640823 763.576449 
L 538.349564 767.412993 
L 547.197685 771.12256 
L 556.180562 774.714087 
L 565.293317 778.196623 
L 574.530856 781.579319 
L 583.887924 784.871422 
L 593.359145 788.082245 
L 602.939079 791.221134 
L 612.622278 794.297426 
L 622.403334 797.320393 
L 632.276948 800.299181 
L 642.237983 803.242733 
L 652.281534 806.15971 
L 662.402991 809.0584 
L 672.598115 811.946613 
L 682.863113 814.831575 
L 693.194721 817.719807 
L 703.590294 820.616998 
L 714.047588 823.527781 
L 724.563861 826.455312 
L 735.142542 829.402948 
L 745.784677 832.371674 
L 756.491462 835.360618 
L 767.263458 838.366631 
L 778.107717 841.386069 
L 789.030972 844.412697 
L 800.041889 847.438111 
L 811.151286 850.451593 
L 822.372391 853.439983 
L 833.72111 856.387543 
L 845.216336 859.275839 
L 856.880282 862.083601 
L 868.738858 864.786593 
L 880.822079 867.357441 
L 893.164512 869.765448 
L 905.805758 871.976334 
L 918.790949 873.951927 
L 932.171244 875.64976 
L 946.004303 877.022574 
L 960.354688 878.017732 
L 975.294179 878.576551 
L 990.901965 878.633587 
L 1007.264692 878.115909 
L 1024.476402 876.942417 
L 1042.638369 875.023247 
L 1061.858911 872.259291 
L 1082.253218 868.541836 
L 1103.943283 863.752322 
L 1127.057947 857.762166 
L 1151.733108 850.432621 
L 1178.455822 841.499707 
" clip-path="url(#p44516941eb)" style="fill: none; stroke: #17becf; stroke-width: 1.5"/>
   </g>
   <g id="patch_3">
    <path d="M 237.887118 961.2 
L 237.887118 129.6 
" style="fill: none; stroke: #000000; stroke-width: 0.8; stroke-linejoin: miter; stroke-linecap: square"/>
   </g>
   <g id="patch_4">
    <path d="M 1238.112882 961.2 
L 1238.112882 129.6 
" style="fill: none; stroke: #000000; stroke-width: 0.8; stroke-linejoin: miter; stroke-linecap: square"/>
   </g>
   <g id="patch_5">
    <path d="M 237.887118 961.2 
L 1238.112882 961.2 
" style="fill: none; stroke: #000000; stroke-width: 0.8; stroke-linejoin: miter; stroke-linecap: square"/>
   </g>
   <g id="patch_6">
    <path d="M 237.887118 129.6 
L 1238.112882 129.6 
" style="fill: none; stroke: #000000; stroke-width: 0.8; stroke-linejoin: miter; stroke-linecap: square"/>
   </g>
  </g>
 </g>
 <defs>
  <clipPath id="p44516941eb">
   <rect x="237.887118" y="129.6" width="1000.225763" height="831.6"/>
  </clipPath>
 </defs>
</svg>
