<?xml version="1.0" encoding="utf-8" standalone="no"?>
<!DOCTYPE svg PUBLIC "-//W3C//DTD SVG 1.1//EN"
  "http://www.w3.org/Graphics/SVG/1.1/DTD/svg11.dtd">
<svg xmlns:xlink="http://www.w3.org/1999/xlink" width="1440pt" height="1080pt" viewBox="0 0 1440 1080" xmlns="http://www.w3.org/2000/svg" version="1.1">
 <metadata>
  <rdf:RDF xmlns:dc="http://purl.org/dc/elements/1.1/" xmlns:cc="http://creativecommons.org/ns#" xmlns:rdf="http://www.w3.org/1999/02/22-rdf-syntax-ns#">
   <cc:Work>
    <dc:type rdf:resource="http://purl.org/dc/dcmitype/StillImage"/>
    <dc:date>2023-12-11T12:06:43.516958</dc:date>
    <dc:format>image/svg+xml</dc:format>
    <dc:creator>
     <cc:Agent>
      <dc:title>Matplotlib v3.7.1, https://matplotlib.org/</dc:title>
     </cc:Agent>
    </dc:creator>
   </cc:Work>
  </rdf:RDF>
 </metadata>
 <defs>
  <style type="text/css">*{stroke-linejoin: round; stroke-linecap: butt}</style>
 </defs>
 <g id="figure_1">
  <g id="patch_1">
   <path d="M 0 1080 
L 1440 1080 
L 1440 0 
L 0 0 
z
" style="fill: #ffffff"/>
  </g>
  <g id="axes_1">
   <g id="patch_2">
    <path d="M 560.414434 961.2 
L 915.585566 961.2 
L 915.585566 129.6 
L 560.414434 129.6 
z
" style="fill: #ffffff"/>
   </g>
   <g id="matplotlib.axis_1">
    <g id="xtick_1">
     <g id="line2d_1">
      <defs>
       <path id="m87e60a67a6" d="M 0 0 
L 0 3.5 
" style="stroke: #000000; stroke-width: 0.8"/>
      </defs>
      <g>
       <use xlink:href="#m87e60a67a6" x="616.326976" y="961.2" style="stroke: #000000; stroke-width: 0.8"/>
      </g>
     </g>
     <g id="text_1">
      <!-- 900 -->
      <g transform="translate(606.783226 975.798437) scale(0.1 -0.1)">
       <defs>
        <path id="DejaVuSans-39" d="M 703 97 
L 703 672 
Q 941 559 1184 500 
Q 1428 441 1663 441 
Q 2288 441 2617 861 
Q 2947 1281 2994 2138 
Q 2813 1869 2534 1725 
Q 2256 1581 1919 1581 
Q 1219 1581 811 2004 
Q 403 2428 403 3163 
Q 403 3881 828 4315 
Q 1253 4750 1959 4750 
Q 2769 4750 3195 4129 
Q 3622 3509 3622 2328 
Q 3622 1225 3098 567 
Q 2575 -91 1691 -91 
Q 1453 -91 1209 -44 
Q 966 3 703 97 
z
M 1959 2075 
Q 2384 2075 2632 2365 
Q 2881 2656 2881 3163 
Q 2881 3666 2632 3958 
Q 2384 4250 1959 4250 
Q 1534 4250 1286 3958 
Q 1038 3666 1038 3163 
Q 1038 2656 1286 2365 
Q 1534 2075 1959 2075 
z
" transform="scale(0.015625)"/>
        <path id="DejaVuSans-30" d="M 2034 4250 
Q 1547 4250 1301 3770 
Q 1056 3291 1056 2328 
Q 1056 1369 1301 889 
Q 1547 409 2034 409 
Q 2525 409 2770 889 
Q 3016 1369 3016 2328 
Q 3016 3291 2770 3770 
Q 2525 4250 2034 4250 
z
M 2034 4750 
Q 2819 4750 3233 4129 
Q 3647 3509 3647 2328 
Q 3647 1150 3233 529 
Q 2819 -91 2034 -91 
Q 1250 -91 836 529 
Q 422 1150 422 2328 
Q 422 3509 836 4129 
Q 1250 4750 2034 4750 
z
" transform="scale(0.015625)"/>
       </defs>
       <use xlink:href="#DejaVuSans-39"/>
       <use xlink:href="#DejaVuSans-30" x="63.623047"/>
       <use xlink:href="#DejaVuSans-30" x="127.246094"/>
      </g>
     </g>
    </g>
    <g id="xtick_2">
     <g id="line2d_2">
      <g>
       <use xlink:href="#m87e60a67a6" x="682.775341" y="961.2" style="stroke: #000000; stroke-width: 0.8"/>
      </g>
     </g>
     <g id="text_2">
      <!-- 1000 -->
      <g transform="translate(670.050341 975.798437) scale(0.1 -0.1)">
       <defs>
        <path id="DejaVuSans-31" d="M 794 531 
L 1825 531 
L 1825 4091 
L 703 3866 
L 703 4441 
L 1819 4666 
L 2450 4666 
L 2450 531 
L 3481 531 
L 3481 0 
L 794 0 
L 794 531 
z
" transform="scale(0.015625)"/>
       </defs>
       <use xlink:href="#DejaVuSans-31"/>
       <use xlink:href="#DejaVuSans-30" x="63.623047"/>
       <use xlink:href="#DejaVuSans-30" x="127.246094"/>
       <use xlink:href="#DejaVuSans-30" x="190.869141"/>
      </g>
     </g>
    </g>
    <g id="xtick_3">
     <g id="line2d_3">
      <g>
       <use xlink:href="#m87e60a67a6" x="749.223706" y="961.2" style="stroke: #000000; stroke-width: 0.8"/>
      </g>
     </g>
     <g id="text_3">
      <!-- 1100 -->
      <g transform="translate(736.498706 975.798437) scale(0.1 -0.1)">
       <use xlink:href="#DejaVuSans-31"/>
       <use xlink:href="#DejaVuSans-31" x="63.623047"/>
       <use xlink:href="#DejaVuSans-30" x="127.246094"/>
       <use xlink:href="#DejaVuSans-30" x="190.869141"/>
      </g>
     </g>
    </g>
    <g id="xtick_4">
     <g id="line2d_4">
      <g>
       <use xlink:href="#m87e60a67a6" x="815.672071" y="961.2" style="stroke: #000000; stroke-width: 0.8"/>
      </g>
     </g>
     <g id="text_4">
      <!-- 1200 -->
      <g transform="translate(802.947071 975.798437) scale(0.1 -0.1)">
       <defs>
        <path id="DejaVuSans-32" d="M 1228 531 
L 3431 531 
L 3431 0 
L 469 0 
L 469 531 
Q 828 903 1448 1529 
Q 2069 2156 2228 2338 
Q 2531 2678 2651 2914 
Q 2772 3150 2772 3378 
Q 2772 3750 2511 3984 
Q 2250 4219 1831 4219 
Q 1534 4219 1204 4116 
Q 875 4013 500 3803 
L 500 4441 
Q 881 4594 1212 4672 
Q 1544 4750 1819 4750 
Q 2544 4750 2975 4387 
Q 3406 4025 3406 3419 
Q 3406 3131 3298 2873 
Q 3191 2616 2906 2266 
Q 2828 2175 2409 1742 
Q 1991 1309 1228 531 
z
" transform="scale(0.015625)"/>
       </defs>
       <use xlink:href="#DejaVuSans-31"/>
       <use xlink:href="#DejaVuSans-32" x="63.623047"/>
       <use xlink:href="#DejaVuSans-30" x="127.246094"/>
       <use xlink:href="#DejaVuSans-30" x="190.869141"/>
      </g>
     </g>
    </g>
    <g id="xtick_5">
     <g id="line2d_5">
      <g>
       <use xlink:href="#m87e60a67a6" x="882.120436" y="961.2" style="stroke: #000000; stroke-width: 0.8"/>
      </g>
     </g>
     <g id="text_5">
      <!-- 1300 -->
      <g transform="translate(869.395436 975.798437) scale(0.1 -0.1)">
       <defs>
        <path id="DejaVuSans-33" d="M 2597 2516 
Q 3050 2419 3304 2112 
Q 3559 1806 3559 1356 
Q 3559 666 3084 287 
Q 2609 -91 1734 -91 
Q 1441 -91 1130 -33 
Q 819 25 488 141 
L 488 750 
Q 750 597 1062 519 
Q 1375 441 1716 441 
Q 2309 441 2620 675 
Q 2931 909 2931 1356 
Q 2931 1769 2642 2001 
Q 2353 2234 1838 2234 
L 1294 2234 
L 1294 2753 
L 1863 2753 
Q 2328 2753 2575 2939 
Q 2822 3125 2822 3475 
Q 2822 3834 2567 4026 
Q 2313 4219 1838 4219 
Q 1578 4219 1281 4162 
Q 984 4106 628 3988 
L 628 4550 
Q 988 4650 1302 4700 
Q 1616 4750 1894 4750 
Q 2613 4750 3031 4423 
Q 3450 4097 3450 3541 
Q 3450 3153 3228 2886 
Q 3006 2619 2597 2516 
z
" transform="scale(0.015625)"/>
       </defs>
       <use xlink:href="#DejaVuSans-31"/>
       <use xlink:href="#DejaVuSans-33" x="63.623047"/>
       <use xlink:href="#DejaVuSans-30" x="127.246094"/>
       <use xlink:href="#DejaVuSans-30" x="190.869141"/>
      </g>
     </g>
    </g>
   </g>
   <g id="matplotlib.axis_2">
    <g id="ytick_1">
     <g id="line2d_6">
      <defs>
       <path id="m0d7ee0ba12" d="M 0 0 
L -3.5 0 
" style="stroke: #000000; stroke-width: 0.8"/>
      </defs>
      <g>
       <use xlink:href="#m0d7ee0ba12" x="560.414434" y="906.481211" style="stroke: #000000; stroke-width: 0.8"/>
      </g>
     </g>
     <g id="text_6">
      <!-- 200 -->
      <g transform="translate(534.326934 910.280429) scale(0.1 -0.1)">
       <use xlink:href="#DejaVuSans-32"/>
       <use xlink:href="#DejaVuSans-30" x="63.623047"/>
       <use xlink:href="#DejaVuSans-30" x="127.246094"/>
      </g>
     </g>
    </g>
    <g id="ytick_2">
     <g id="line2d_7">
      <g>
       <use xlink:href="#m0d7ee0ba12" x="560.414434" y="773.584481" style="stroke: #000000; stroke-width: 0.8"/>
      </g>
     </g>
     <g id="text_7">
      <!-- 400 -->
      <g transform="translate(534.326934 777.3837) scale(0.1 -0.1)">
       <defs>
        <path id="DejaVuSans-34" d="M 2419 4116 
L 825 1625 
L 2419 1625 
L 2419 4116 
z
M 2253 4666 
L 3047 4666 
L 3047 1625 
L 3713 1625 
L 3713 1100 
L 3047 1100 
L 3047 0 
L 2419 0 
L 2419 1100 
L 313 1100 
L 313 1709 
L 2253 4666 
z
" transform="scale(0.015625)"/>
       </defs>
       <use xlink:href="#DejaVuSans-34"/>
       <use xlink:href="#DejaVuSans-30" x="63.623047"/>
       <use xlink:href="#DejaVuSans-30" x="127.246094"/>
      </g>
     </g>
    </g>
    <g id="ytick_3">
     <g id="line2d_8">
      <g>
       <use xlink:href="#m0d7ee0ba12" x="560.414434" y="640.687751" style="stroke: #000000; stroke-width: 0.8"/>
      </g>
     </g>
     <g id="text_8">
      <!-- 600 -->
      <g transform="translate(534.326934 644.48697) scale(0.1 -0.1)">
       <defs>
        <path id="DejaVuSans-36" d="M 2113 2584 
Q 1688 2584 1439 2293 
Q 1191 2003 1191 1497 
Q 1191 994 1439 701 
Q 1688 409 2113 409 
Q 2538 409 2786 701 
Q 3034 994 3034 1497 
Q 3034 2003 2786 2293 
Q 2538 2584 2113 2584 
z
M 3366 4563 
L 3366 3988 
Q 3128 4100 2886 4159 
Q 2644 4219 2406 4219 
Q 1781 4219 1451 3797 
Q 1122 3375 1075 2522 
Q 1259 2794 1537 2939 
Q 1816 3084 2150 3084 
Q 2853 3084 3261 2657 
Q 3669 2231 3669 1497 
Q 3669 778 3244 343 
Q 2819 -91 2113 -91 
Q 1303 -91 875 529 
Q 447 1150 447 2328 
Q 447 3434 972 4092 
Q 1497 4750 2381 4750 
Q 2619 4750 2861 4703 
Q 3103 4656 3366 4563 
z
" transform="scale(0.015625)"/>
       </defs>
       <use xlink:href="#DejaVuSans-36"/>
       <use xlink:href="#DejaVuSans-30" x="63.623047"/>
       <use xlink:href="#DejaVuSans-30" x="127.246094"/>
      </g>
     </g>
    </g>
    <g id="ytick_4">
     <g id="line2d_9">
      <g>
       <use xlink:href="#m0d7ee0ba12" x="560.414434" y="507.791022" style="stroke: #000000; stroke-width: 0.8"/>
      </g>
     </g>
     <g id="text_9">
      <!-- 800 -->
      <g transform="translate(534.326934 511.590241) scale(0.1 -0.1)">
       <defs>
        <path id="DejaVuSans-38" d="M 2034 2216 
Q 1584 2216 1326 1975 
Q 1069 1734 1069 1313 
Q 1069 891 1326 650 
Q 1584 409 2034 409 
Q 2484 409 2743 651 
Q 3003 894 3003 1313 
Q 3003 1734 2745 1975 
Q 2488 2216 2034 2216 
z
M 1403 2484 
Q 997 2584 770 2862 
Q 544 3141 544 3541 
Q 544 4100 942 4425 
Q 1341 4750 2034 4750 
Q 2731 4750 3128 4425 
Q 3525 4100 3525 3541 
Q 3525 3141 3298 2862 
Q 3072 2584 2669 2484 
Q 3125 2378 3379 2068 
Q 3634 1759 3634 1313 
Q 3634 634 3220 271 
Q 2806 -91 2034 -91 
Q 1263 -91 848 271 
Q 434 634 434 1313 
Q 434 1759 690 2068 
Q 947 2378 1403 2484 
z
M 1172 3481 
Q 1172 3119 1398 2916 
Q 1625 2713 2034 2713 
Q 2441 2713 2670 2916 
Q 2900 3119 2900 3481 
Q 2900 3844 2670 4047 
Q 2441 4250 2034 4250 
Q 1625 4250 1398 4047 
Q 1172 3844 1172 3481 
z
" transform="scale(0.015625)"/>
       </defs>
       <use xlink:href="#DejaVuSans-38"/>
       <use xlink:href="#DejaVuSans-30" x="63.623047"/>
       <use xlink:href="#DejaVuSans-30" x="127.246094"/>
      </g>
     </g>
    </g>
    <g id="ytick_5">
     <g id="line2d_10">
      <g>
       <use xlink:href="#m0d7ee0ba12" x="560.414434" y="374.894292" style="stroke: #000000; stroke-width: 0.8"/>
      </g>
     </g>
     <g id="text_10">
      <!-- 1000 -->
      <g transform="translate(527.964434 378.693511) scale(0.1 -0.1)">
       <use xlink:href="#DejaVuSans-31"/>
       <use xlink:href="#DejaVuSans-30" x="63.623047"/>
       <use xlink:href="#DejaVuSans-30" x="127.246094"/>
       <use xlink:href="#DejaVuSans-30" x="190.869141"/>
      </g>
     </g>
    </g>
    <g id="ytick_6">
     <g id="line2d_11">
      <g>
       <use xlink:href="#m0d7ee0ba12" x="560.414434" y="241.997563" style="stroke: #000000; stroke-width: 0.8"/>
      </g>
     </g>
     <g id="text_11">
      <!-- 1200 -->
      <g transform="translate(527.964434 245.796781) scale(0.1 -0.1)">
       <use xlink:href="#DejaVuSans-31"/>
       <use xlink:href="#DejaVuSans-32" x="63.623047"/>
       <use xlink:href="#DejaVuSans-30" x="127.246094"/>
       <use xlink:href="#DejaVuSans-30" x="190.869141"/>
      </g>
     </g>
    </g>
   </g>
   <g id="LineCollection_1">
    <path d="M 899.441423 902.852094 
L 885.740543 896.589989 
L 873.684049 890.225705 
L 862.868544 883.667108 
L 853.178466 876.944138 
L 844.5073 870.081511 
L 836.757558 863.098964 
L 829.840789 856.01172 
L 823.677514 848.831133 
L 818.197011 841.565461 
L 813.336898 834.220672 
L 809.042536 826.801175 
L 805.266281 819.310427 
L 801.96667 811.751372 
L 799.107596 804.126714 
L 796.657527 796.439059 
L 794.588807 788.69095 
L 792.877051 780.884852 
L 791.500617 773.023109 
L 790.440179 765.107893 
L 789.678352 757.141175 
L 789.199375 749.124703 
L 788.988835 741.060007 
L 789.033425 732.948417 
L 789.320726 724.791102 
L 789.839001 716.589114 
L 790.57702 708.343436 
L 791.523883 700.055045 
L 792.668867 691.72496 
L 794.001284 683.3543 
L 795.510345 674.944329 
L 797.185048 666.496503 
L 799.014065 658.012507 
L 800.985651 649.494285 
L 805.307 632.364371 
L 810.04405 615.128252 
L 815.081186 597.812401 
L 833.1498 537.016969 
L 837.806918 519.754688 
L 839.945968 511.167725 
L 841.92864 502.616817 
L 843.731791 494.106788 
L 845.331814 485.642362 
L 846.704659 477.228197 
L 847.825863 468.868966 
L 848.670595 460.56948 
L 849.213744 452.33489 
L 849.430061 444.170931 
L 849.29441 436.084239 
L 848.782137 428.082666 
L 847.869605 420.175573 
L 846.534882 412.373994 
L 844.758548 404.690578 
L 842.524527 397.139237 
L 839.820814 389.734459 
L 836.639946 382.490336 
L 832.979107 375.419442 
L 828.839847 368.531775 
L 824.227505 361.833924 
L 819.150466 355.328612 
L 813.619472 349.014619 
L 807.647088 342.887027 
L 801.247427 336.937655 
L 794.436126 331.155569 
L 787.230521 325.527557 
L 779.649965 320.038526 
L 771.716218 314.671779 
L 763.453864 309.409203 
L 754.890714 304.231367 
L 746.058184 299.117567 
L 736.991631 294.045836 
L 718.319419 283.934405 
L 699.209403 273.676069 
L 689.635485 268.427159 
L 680.135631 263.061184 
L 670.77908 257.548059 
L 661.640266 251.857387 
L 652.798524 245.958895 
L 644.337451 239.822901 
L 636.343745 233.420675 
L 628.905341 226.724369 
L 622.108743 219.705962 
L 616.035839 212.334413 
L 610.761285 204.570209 
L 606.352602 196.357395 
L 602.875575 187.615325 
L 600.405676 178.234903 
L 598.949783 167.4 
L 598.949783 167.4 
" clip-path="url(#p643e948482)" style="fill: none; stroke: #1f77b4; stroke-width: 1.5"/>
    <path d="M 894.745625 913.126047 
L 880.751923 906.730105 
L 868.113813 900.058803 
L 856.714451 893.146151 
L 846.447005 886.022603 
L 837.213993 878.715313 
L 828.926642 871.248379 
L 821.504279 863.64308 
L 814.87374 855.918102 
L 808.96881 848.089755 
L 803.729678 840.172176 
L 799.102425 832.177535 
L 795.03853 824.116211 
L 791.494398 815.996984 
L 788.430912 807.827196 
L 785.813006 799.612914 
L 783.609263 791.359089 
L 781.791526 783.069694 
L 780.33454 774.74786 
L 779.215604 766.396011 
L 778.414254 758.015977 
L 777.91195 749.609111 
L 777.691802 741.176389 
L 777.738296 732.718515 
L 778.03705 724.236003 
L 778.574583 715.729264 
L 779.338101 707.198682 
L 780.315307 698.644682 
L 781.494215 690.06779 
L 782.862994 681.468696 
L 784.409814 672.848295 
L 786.122725 664.207735 
L 787.98953 655.548454 
L 789.997691 646.872209 
L 792.134239 638.181104 
L 794.385701 629.477609 
L 796.738038 620.764574 
L 799.176601 612.045239 
L 801.686098 603.323237 
L 804.250565 594.602596 
L 806.853364 585.887731 
L 809.477177 577.183434 
L 812.104026 568.49486 
L 814.715288 559.827507 
L 817.291734 551.187195 
L 819.813568 542.580038 
L 822.260481 534.01241 
L 824.611714 525.490916 
L 826.846126 517.022349 
L 828.942271 508.61365 
L 830.878489 500.271864 
L 832.632993 492.004092 
L 834.183976 483.81744 
L 835.509711 475.718963 
L 836.588674 467.715616 
L 837.399652 459.814186 
L 837.921877 452.02124 
L 838.13515 444.343058 
L 838.01998 436.785567 
L 837.557715 429.354277 
L 836.730693 422.054212 
L 835.522383 414.889842 
L 833.917532 407.865009 
L 831.902322 400.982855 
L 829.464518 394.245753 
L 826.593628 387.655228 
L 823.281054 381.211886 
L 819.520257 374.915337 
L 815.306909 368.764119 
L 810.639055 362.755624 
L 805.517272 356.886022 
L 799.944823 351.150184 
L 793.92782 345.541606 
L 787.47537 340.052338 
L 780.599741 334.672905 
L 773.316501 329.392235 
L 765.644676 324.197587 
L 757.606891 319.074477 
L 749.229514 314.006613 
L 740.542795 308.975818 
L 731.580998 303.961968 
L 722.382536 298.942924 
L 712.990088 293.894468 
L 703.450726 288.790243 
L 693.816025 283.601688 
L 684.142169 278.297987 
L 674.490054 272.846007 
L 664.925382 267.210252 
L 655.518747 261.35281 
L 646.34571 255.233304 
L 637.486876 248.808853 
L 629.02795 242.034028 
L 621.059791 234.860818 
L 613.678458 227.238595 
L 606.985239 219.114081 
L 601.086678 210.43133 
L 596.094585 201.131699 
L 592.12604 191.153836 
L 589.30338 180.43366 
L 587.75418 168.904361 
" clip-path="url(#p643e948482)" style="fill: none; stroke: #8c564b; stroke-width: 1.5"/>
    <path d="M 890.049826 923.4 
L 875.478579 916.719924 
L 862.256515 909.717824 
L 850.275173 902.427332 
L 839.436692 894.880376 
L 829.652566 887.107539 
L 820.84237 879.138194 
L 812.932555 871.000402 
L 805.855415 862.720634 
L 799.548285 854.3234 
L 793.952981 845.830872 
L 789.015465 837.262598 
L 784.685658 828.635355 
L 780.917337 819.963143 
L 777.668069 811.257333 
L 774.899099 802.526891 
L 772.575216 793.778686 
L 770.664554 785.017803 
L 769.138352 776.247864 
L 767.970679 767.471321 
L 767.138141 758.689716 
L 766.619576 749.903914 
L 766.395751 741.114294 
L 766.449074 732.320909 
L 766.763313 723.523627 
L 767.323337 714.722236 
L 768.114877 705.916545 
L 769.124306 697.10646 
L 770.338438 688.292047 
L 771.744351 679.473598 
L 773.329224 670.651671 
L 775.080198 661.82714 
L 776.984247 653.001225 
L 779.028071 644.17553 
L 783.449468 626.648573 
L 785.859259 617.722072 
L 790.848748 600.136312 
L 798.661652 573.923214 
L 806.458822 547.985106 
L 811.384645 530.958989 
L 815.904003 514.215119 
L 817.959304 505.970269 
L 819.850574 497.82213 
L 821.557194 489.780002 
L 823.058924 481.853325 
L 824.336089 474.051552 
L 825.369782 466.383988 
L 826.142066 458.859565 
L 826.636149 451.486564 
L 826.836538 444.272264 
L 826.729105 437.222534 
L 826.301062 430.34138 
L 825.540788 423.630498 
L 824.437512 417.088904 
L 822.980851 410.712733 
L 821.16028 404.495291 
L 818.964643 398.427441 
L 816.381852 392.498287 
L 813.398895 386.696089 
L 810.002248 381.009221 
L 806.178624 375.426975 
L 801.915971 369.940058 
L 797.204522 364.540702 
L 792.037736 359.22242 
L 786.413018 353.979501 
L 780.332187 348.806378 
L 773.801699 343.696981 
L 766.832704 338.644152 
L 759.440979 333.639161 
L 751.646817 328.671332 
L 743.474901 323.727761 
L 734.954191 318.793108 
L 717.003101 308.876079 
L 678.586533 288.133613 
L 668.755479 282.57839 
L 658.954315 276.799361 
L 649.249788 270.749873 
L 639.713979 264.377962 
L 630.4253 257.625812 
L 621.470089 250.429466 
L 612.944956 242.719195 
L 604.95985 234.421247 
L 597.641238 225.461858 
L 591.133809 215.774085 
L 585.598128 205.306508 
L 581.202143 194.030136 
L 578.107777 181.938022 
L 576.558577 170.408723 
L 576.558577 170.408723 
" clip-path="url(#p643e948482)" style="fill: none; stroke: #17becf; stroke-width: 1.5"/>
   </g>
   <g id="patch_3">
    <path d="M 560.414434 961.2 
L 560.414434 129.6 
" style="fill: none; stroke: #000000; stroke-width: 0.8; stroke-linejoin: miter; stroke-linecap: square"/>
   </g>
   <g id="patch_4">
    <path d="M 915.585566 961.2 
L 915.585566 129.6 
" style="fill: none; stroke: #000000; stroke-width: 0.8; stroke-linejoin: miter; stroke-linecap: square"/>
   </g>
   <g id="patch_5">
    <path d="M 560.414434 961.2 
L 915.585566 961.2 
" style="fill: none; stroke: #000000; stroke-width: 0.8; stroke-linejoin: miter; stroke-linecap: square"/>
   </g>
   <g id="patch_6">
    <path d="M 560.414434 129.6 
L 915.585566 129.6 
" style="fill: none; stroke: #000000; stroke-width: 0.8; stroke-linejoin: miter; stroke-linecap: square"/>
   </g>
  </g>
 </g>
 <defs>
  <clipPath id="p643e948482">
   <rect x="560.414434" y="129.6" width="355.171132" height="831.6"/>
  </clipPath>
 </defs>
</svg>
