<?xml version="1.0" encoding="utf-8" standalone="no"?>
<!DOCTYPE svg PUBLIC "-//W3C//DTD SVG 1.1//EN"
  "http://www.w3.org/Graphics/SVG/1.1/DTD/svg11.dtd">
<svg xmlns:xlink="http://www.w3.org/1999/xlink" width="1440pt" height="1080pt" viewBox="0 0 1440 1080" xmlns="http://www.w3.org/2000/svg" version="1.1">
 <metadata>
  <rdf:RDF xmlns:dc="http://purl.org/dc/elements/1.1/" xmlns:cc="http://creativecommons.org/ns#" xmlns:rdf="http://www.w3.org/1999/02/22-rdf-syntax-ns#">
   <cc:Work>
    <dc:type rdf:resource="http://purl.org/dc/dcmitype/StillImage"/>
    <dc:date>2023-12-11T12:06:45.934174</dc:date>
    <dc:format>image/svg+xml</dc:format>
    <dc:creator>
     <cc:Agent>
      <dc:title>Matplotlib v3.7.1, https://matplotlib.org/</dc:title>
     </cc:Agent>
    </dc:creator>
   </cc:Work>
  </rdf:RDF>
 </metadata>
 <defs>
  <style type="text/css">*{stroke-linejoin: round; stroke-linecap: butt}</style>
 </defs>
 <g id="figure_1">
  <g id="patch_1">
   <path d="M 0 1080 
L 1440 1080 
L 1440 0 
L 0 0 
z
" style="fill: #ffffff"/>
  </g>
  <g id="axes_1">
   <g id="patch_2">
    <path d="M 180 805.639414 
L 1296 805.639414 
L 1296 285.160586 
L 180 285.160586 
z
" style="fill: #ffffff"/>
   </g>
   <g id="matplotlib.axis_1">
    <g id="xtick_1">
     <g id="line2d_1">
      <defs>
       <path id="mf64ea83fb6" d="M 0 0 
L 0 3.5 
" style="stroke: #000000; stroke-width: 0.8"/>
      </defs>
      <g>
       <use xlink:href="#mf64ea83fb6" x="320.420662" y="805.639414" style="stroke: #000000; stroke-width: 0.8"/>
      </g>
     </g>
     <g id="text_1">
      <!-- 600 -->
      <g transform="translate(310.876912 820.237851) scale(0.1 -0.1)">
       <defs>
        <path id="DejaVuSans-36" d="M 2113 2584 
Q 1688 2584 1439 2293 
Q 1191 2003 1191 1497 
Q 1191 994 1439 701 
Q 1688 409 2113 409 
Q 2538 409 2786 701 
Q 3034 994 3034 1497 
Q 3034 2003 2786 2293 
Q 2538 2584 2113 2584 
z
M 3366 4563 
L 3366 3988 
Q 3128 4100 2886 4159 
Q 2644 4219 2406 4219 
Q 1781 4219 1451 3797 
Q 1122 3375 1075 2522 
Q 1259 2794 1537 2939 
Q 1816 3084 2150 3084 
Q 2853 3084 3261 2657 
Q 3669 2231 3669 1497 
Q 3669 778 3244 343 
Q 2819 -91 2113 -91 
Q 1303 -91 875 529 
Q 447 1150 447 2328 
Q 447 3434 972 4092 
Q 1497 4750 2381 4750 
Q 2619 4750 2861 4703 
Q 3103 4656 3366 4563 
z
" transform="scale(0.015625)"/>
        <path id="DejaVuSans-30" d="M 2034 4250 
Q 1547 4250 1301 3770 
Q 1056 3291 1056 2328 
Q 1056 1369 1301 889 
Q 1547 409 2034 409 
Q 2525 409 2770 889 
Q 3016 1369 3016 2328 
Q 3016 3291 2770 3770 
Q 2525 4250 2034 4250 
z
M 2034 4750 
Q 2819 4750 3233 4129 
Q 3647 3509 3647 2328 
Q 3647 1150 3233 529 
Q 2819 -91 2034 -91 
Q 1250 -91 836 529 
Q 422 1150 422 2328 
Q 422 3509 836 4129 
Q 1250 4750 2034 4750 
z
" transform="scale(0.015625)"/>
       </defs>
       <use xlink:href="#DejaVuSans-36"/>
       <use xlink:href="#DejaVuSans-30" x="63.623047"/>
       <use xlink:href="#DejaVuSans-30" x="127.246094"/>
      </g>
     </g>
    </g>
    <g id="xtick_2">
     <g id="line2d_2">
      <g>
       <use xlink:href="#mf64ea83fb6" x="505.625341" y="805.639414" style="stroke: #000000; stroke-width: 0.8"/>
      </g>
     </g>
     <g id="text_2">
      <!-- 800 -->
      <g transform="translate(496.081591 820.237851) scale(0.1 -0.1)">
       <defs>
        <path id="DejaVuSans-38" d="M 2034 2216 
Q 1584 2216 1326 1975 
Q 1069 1734 1069 1313 
Q 1069 891 1326 650 
Q 1584 409 2034 409 
Q 2484 409 2743 651 
Q 3003 894 3003 1313 
Q 3003 1734 2745 1975 
Q 2488 2216 2034 2216 
z
M 1403 2484 
Q 997 2584 770 2862 
Q 544 3141 544 3541 
Q 544 4100 942 4425 
Q 1341 4750 2034 4750 
Q 2731 4750 3128 4425 
Q 3525 4100 3525 3541 
Q 3525 3141 3298 2862 
Q 3072 2584 2669 2484 
Q 3125 2378 3379 2068 
Q 3634 1759 3634 1313 
Q 3634 634 3220 271 
Q 2806 -91 2034 -91 
Q 1263 -91 848 271 
Q 434 634 434 1313 
Q 434 1759 690 2068 
Q 947 2378 1403 2484 
z
M 1172 3481 
Q 1172 3119 1398 2916 
Q 1625 2713 2034 2713 
Q 2441 2713 2670 2916 
Q 2900 3119 2900 3481 
Q 2900 3844 2670 4047 
Q 2441 4250 2034 4250 
Q 1625 4250 1398 4047 
Q 1172 3844 1172 3481 
z
" transform="scale(0.015625)"/>
       </defs>
       <use xlink:href="#DejaVuSans-38"/>
       <use xlink:href="#DejaVuSans-30" x="63.623047"/>
       <use xlink:href="#DejaVuSans-30" x="127.246094"/>
      </g>
     </g>
    </g>
    <g id="xtick_3">
     <g id="line2d_3">
      <g>
       <use xlink:href="#mf64ea83fb6" x="690.83002" y="805.639414" style="stroke: #000000; stroke-width: 0.8"/>
      </g>
     </g>
     <g id="text_3">
      <!-- 1000 -->
      <g transform="translate(678.10502 820.237851) scale(0.1 -0.1)">
       <defs>
        <path id="DejaVuSans-31" d="M 794 531 
L 1825 531 
L 1825 4091 
L 703 3866 
L 703 4441 
L 1819 4666 
L 2450 4666 
L 2450 531 
L 3481 531 
L 3481 0 
L 794 0 
L 794 531 
z
" transform="scale(0.015625)"/>
       </defs>
       <use xlink:href="#DejaVuSans-31"/>
       <use xlink:href="#DejaVuSans-30" x="63.623047"/>
       <use xlink:href="#DejaVuSans-30" x="127.246094"/>
       <use xlink:href="#DejaVuSans-30" x="190.869141"/>
      </g>
     </g>
    </g>
    <g id="xtick_4">
     <g id="line2d_4">
      <g>
       <use xlink:href="#mf64ea83fb6" x="876.034699" y="805.639414" style="stroke: #000000; stroke-width: 0.8"/>
      </g>
     </g>
     <g id="text_4">
      <!-- 1200 -->
      <g transform="translate(863.309699 820.237851) scale(0.1 -0.1)">
       <defs>
        <path id="DejaVuSans-32" d="M 1228 531 
L 3431 531 
L 3431 0 
L 469 0 
L 469 531 
Q 828 903 1448 1529 
Q 2069 2156 2228 2338 
Q 2531 2678 2651 2914 
Q 2772 3150 2772 3378 
Q 2772 3750 2511 3984 
Q 2250 4219 1831 4219 
Q 1534 4219 1204 4116 
Q 875 4013 500 3803 
L 500 4441 
Q 881 4594 1212 4672 
Q 1544 4750 1819 4750 
Q 2544 4750 2975 4387 
Q 3406 4025 3406 3419 
Q 3406 3131 3298 2873 
Q 3191 2616 2906 2266 
Q 2828 2175 2409 1742 
Q 1991 1309 1228 531 
z
" transform="scale(0.015625)"/>
       </defs>
       <use xlink:href="#DejaVuSans-31"/>
       <use xlink:href="#DejaVuSans-32" x="63.623047"/>
       <use xlink:href="#DejaVuSans-30" x="127.246094"/>
       <use xlink:href="#DejaVuSans-30" x="190.869141"/>
      </g>
     </g>
    </g>
    <g id="xtick_5">
     <g id="line2d_5">
      <g>
       <use xlink:href="#mf64ea83fb6" x="1061.239378" y="805.639414" style="stroke: #000000; stroke-width: 0.8"/>
      </g>
     </g>
     <g id="text_5">
      <!-- 1400 -->
      <g transform="translate(1048.514378 820.237851) scale(0.1 -0.1)">
       <defs>
        <path id="DejaVuSans-34" d="M 2419 4116 
L 825 1625 
L 2419 1625 
L 2419 4116 
z
M 2253 4666 
L 3047 4666 
L 3047 1625 
L 3713 1625 
L 3713 1100 
L 3047 1100 
L 3047 0 
L 2419 0 
L 2419 1100 
L 313 1100 
L 313 1709 
L 2253 4666 
z
" transform="scale(0.015625)"/>
       </defs>
       <use xlink:href="#DejaVuSans-31"/>
       <use xlink:href="#DejaVuSans-34" x="63.623047"/>
       <use xlink:href="#DejaVuSans-30" x="127.246094"/>
       <use xlink:href="#DejaVuSans-30" x="190.869141"/>
      </g>
     </g>
    </g>
    <g id="xtick_6">
     <g id="line2d_6">
      <g>
       <use xlink:href="#mf64ea83fb6" x="1246.444057" y="805.639414" style="stroke: #000000; stroke-width: 0.8"/>
      </g>
     </g>
     <g id="text_6">
      <!-- 1600 -->
      <g transform="translate(1233.719057 820.237851) scale(0.1 -0.1)">
       <use xlink:href="#DejaVuSans-31"/>
       <use xlink:href="#DejaVuSans-36" x="63.623047"/>
       <use xlink:href="#DejaVuSans-30" x="127.246094"/>
       <use xlink:href="#DejaVuSans-30" x="190.869141"/>
      </g>
     </g>
    </g>
   </g>
   <g id="matplotlib.axis_2">
    <g id="ytick_1">
     <g id="line2d_7">
      <defs>
       <path id="m31d1d43a94" d="M 0 0 
L -3.5 0 
" style="stroke: #000000; stroke-width: 0.8"/>
      </defs>
      <g>
       <use xlink:href="#m31d1d43a94" x="180" y="771.169655" style="stroke: #000000; stroke-width: 0.8"/>
      </g>
     </g>
     <g id="text_7">
      <!-- 100 -->
      <g transform="translate(153.9125 774.968874) scale(0.1 -0.1)">
       <use xlink:href="#DejaVuSans-31"/>
       <use xlink:href="#DejaVuSans-30" x="63.623047"/>
       <use xlink:href="#DejaVuSans-30" x="127.246094"/>
      </g>
     </g>
    </g>
    <g id="ytick_2">
     <g id="line2d_8">
      <g>
       <use xlink:href="#m31d1d43a94" x="180" y="678.567316" style="stroke: #000000; stroke-width: 0.8"/>
      </g>
     </g>
     <g id="text_8">
      <!-- 200 -->
      <g transform="translate(153.9125 682.366534) scale(0.1 -0.1)">
       <use xlink:href="#DejaVuSans-32"/>
       <use xlink:href="#DejaVuSans-30" x="63.623047"/>
       <use xlink:href="#DejaVuSans-30" x="127.246094"/>
      </g>
     </g>
    </g>
    <g id="ytick_3">
     <g id="line2d_9">
      <g>
       <use xlink:href="#m31d1d43a94" x="180" y="585.964976" style="stroke: #000000; stroke-width: 0.8"/>
      </g>
     </g>
     <g id="text_9">
      <!-- 300 -->
      <g transform="translate(153.9125 589.764195) scale(0.1 -0.1)">
       <defs>
        <path id="DejaVuSans-33" d="M 2597 2516 
Q 3050 2419 3304 2112 
Q 3559 1806 3559 1356 
Q 3559 666 3084 287 
Q 2609 -91 1734 -91 
Q 1441 -91 1130 -33 
Q 819 25 488 141 
L 488 750 
Q 750 597 1062 519 
Q 1375 441 1716 441 
Q 2309 441 2620 675 
Q 2931 909 2931 1356 
Q 2931 1769 2642 2001 
Q 2353 2234 1838 2234 
L 1294 2234 
L 1294 2753 
L 1863 2753 
Q 2328 2753 2575 2939 
Q 2822 3125 2822 3475 
Q 2822 3834 2567 4026 
Q 2313 4219 1838 4219 
Q 1578 4219 1281 4162 
Q 984 4106 628 3988 
L 628 4550 
Q 988 4650 1302 4700 
Q 1616 4750 1894 4750 
Q 2613 4750 3031 4423 
Q 3450 4097 3450 3541 
Q 3450 3153 3228 2886 
Q 3006 2619 2597 2516 
z
" transform="scale(0.015625)"/>
       </defs>
       <use xlink:href="#DejaVuSans-33"/>
       <use xlink:href="#DejaVuSans-30" x="63.623047"/>
       <use xlink:href="#DejaVuSans-30" x="127.246094"/>
      </g>
     </g>
    </g>
    <g id="ytick_4">
     <g id="line2d_10">
      <g>
       <use xlink:href="#m31d1d43a94" x="180" y="493.362637" style="stroke: #000000; stroke-width: 0.8"/>
      </g>
     </g>
     <g id="text_10">
      <!-- 400 -->
      <g transform="translate(153.9125 497.161855) scale(0.1 -0.1)">
       <use xlink:href="#DejaVuSans-34"/>
       <use xlink:href="#DejaVuSans-30" x="63.623047"/>
       <use xlink:href="#DejaVuSans-30" x="127.246094"/>
      </g>
     </g>
    </g>
    <g id="ytick_5">
     <g id="line2d_11">
      <g>
       <use xlink:href="#m31d1d43a94" x="180" y="400.760297" style="stroke: #000000; stroke-width: 0.8"/>
      </g>
     </g>
     <g id="text_11">
      <!-- 500 -->
      <g transform="translate(153.9125 404.559516) scale(0.1 -0.1)">
       <defs>
        <path id="DejaVuSans-35" d="M 691 4666 
L 3169 4666 
L 3169 4134 
L 1269 4134 
L 1269 2991 
Q 1406 3038 1543 3061 
Q 1681 3084 1819 3084 
Q 2600 3084 3056 2656 
Q 3513 2228 3513 1497 
Q 3513 744 3044 326 
Q 2575 -91 1722 -91 
Q 1428 -91 1123 -41 
Q 819 9 494 109 
L 494 744 
Q 775 591 1075 516 
Q 1375 441 1709 441 
Q 2250 441 2565 725 
Q 2881 1009 2881 1497 
Q 2881 1984 2565 2268 
Q 2250 2553 1709 2553 
Q 1456 2553 1204 2497 
Q 953 2441 691 2322 
L 691 4666 
z
" transform="scale(0.015625)"/>
       </defs>
       <use xlink:href="#DejaVuSans-35"/>
       <use xlink:href="#DejaVuSans-30" x="63.623047"/>
       <use xlink:href="#DejaVuSans-30" x="127.246094"/>
      </g>
     </g>
    </g>
    <g id="ytick_6">
     <g id="line2d_12">
      <g>
       <use xlink:href="#m31d1d43a94" x="180" y="308.157958" style="stroke: #000000; stroke-width: 0.8"/>
      </g>
     </g>
     <g id="text_12">
      <!-- 600 -->
      <g transform="translate(153.9125 311.957176) scale(0.1 -0.1)">
       <use xlink:href="#DejaVuSans-36"/>
       <use xlink:href="#DejaVuSans-30" x="63.623047"/>
       <use xlink:href="#DejaVuSans-30" x="127.246094"/>
      </g>
     </g>
    </g>
   </g>
   <g id="LineCollection_1">
    <path d="M 1227.242872 308.818715 
L 1221.614506 332.782728 
L 1215.68699 355.053531 
L 1209.470084 375.890526 
L 1202.99943 395.410716 
L 1196.306288 413.720221 
L 1189.417943 430.915144 
L 1182.358087 447.08238 
L 1175.147172 462.300397 
L 1167.802752 476.639973 
L 1160.339789 490.16489 
L 1152.770943 502.932599 
L 1145.106838 514.994838 
L 1137.356299 526.398215 
L 1129.526576 537.184747 
L 1121.623535 547.392368 
L 1113.651842 557.05539 
L 1105.615122 566.204926 
L 1097.516101 574.869276 
L 1089.356741 583.074276 
L 1081.138353 590.843609 
L 1072.861708 598.199084 
L 1064.527133 605.160874 
L 1056.134605 611.747737 
L 1047.683829 617.977198 
L 1039.174323 623.865708 
L 1030.605483 629.428787 
L 1021.976653 634.681135 
L 1013.287181 639.636736 
L 1004.536471 644.30894 
L 995.72403 648.710533 
L 986.849497 652.85379 
L 977.912672 656.750526 
L 968.913532 660.412124 
L 959.852235 663.849557 
L 950.729119 667.073404 
L 941.544689 670.093848 
L 932.299596 672.920672 
L 922.994611 675.563243 
L 913.63059 678.030483 
L 904.208437 680.330848 
L 894.729064 682.47228 
L 885.193339 684.462176 
L 875.602049 686.307337 
L 865.955843 688.013927 
L 856.255191 689.587422 
L 846.500333 691.032568 
L 836.691237 692.353339 
L 826.827548 693.552897 
L 816.908555 694.633562 
L 806.933143 695.596786 
L 796.899764 696.443138 
L 786.806405 697.172293 
L 776.650556 697.783044 
L 766.429195 698.27331 
L 756.138768 698.640173 
L 745.775185 698.879917 
L 735.333814 698.988092 
L 724.809496 698.959586 
L 714.196562 698.788722 
L 703.488861 698.469367 
L 692.679808 697.995069 
L 681.762442 697.359208 
L 670.729493 696.555173 
L 659.573478 695.576567 
L 648.286802 694.417437 
L 636.861881 693.072532 
L 625.291282 691.537591 
L 613.567874 689.809672 
L 601.685002 687.887507 
L 589.636666 685.771898 
L 577.417718 683.466154 
L 565.024066 680.976559 
L 552.452891 678.312892 
L 539.702859 675.488981 
L 526.77435 672.5233 
L 513.669678 669.439615 
L 500.393313 666.26768 
L 486.961344 663.046198 
L 486.942831 663.041778 
L 473.379881 659.818347 
L 473.330908 659.806849 
L 459.657565 656.635556 
L 459.573175 656.616398 
L 445.80998 653.559513 
L 445.684097 653.532471 
L 431.85587 650.662288 
L 431.680966 650.627738 
L 417.817237 648.027529 
L 417.58394 647.986854 
L 403.719404 645.751868 
L 403.416073 645.708107 
L 389.591069 643.946627 
L 389.20344 643.905509 
L 375.464453 642.739963 
L 374.975593 642.711485 
L 361.375784 642.279608 
L 360.766885 642.280301 
L 347.366648 642.736361 
L 346.619633 642.7921 
L 333.487178 644.308176 
L 332.590599 644.45657 
L 319.802565 647.22389 
L 318.76204 647.513504 
L 306.404127 651.743849 
L 305.255773 652.225447 
L 293.423417 658.15261 
L 292.819588 658.483725 
L 292.242036 658.858798 
L 281.041102 666.740112 
L 280.467263 667.178299 
L 279.929308 667.659862 
L 269.476819 677.777791 
L 268.983264 678.293868 
L 268.530944 678.846443 
L 258.955839 691.510235 
L 258.229477 692.63049 
L 249.673398 708.177903 
L 249.166742 709.25794 
L 241.784855 728.057032 
L 241.461911 729.036623 
L 235.423763 751.487618 
L 235.236872 752.341278 
L 230.727273 778.878493 
" clip-path="url(#p36d5e6c509)" style="fill: none; stroke: #1f77b4; stroke-width: 1.5"/>
    <path d="M 1236.2578 310.936028 
L 1230.598265 335.032748 
L 1224.600167 357.568739 
L 1218.303882 378.67179 
L 1211.745059 398.457958 
L 1204.955034 417.032492 
L 1197.961213 434.49071 
L 1190.78744 450.918819 
L 1183.454339 466.394699 
L 1175.979642 480.988634 
L 1168.378483 494.763998 
L 1160.663688 507.777906 
L 1152.846032 520.081812 
L 1144.934489 531.722075 
L 1136.936453 542.740481 
L 1128.85795 553.17473 
L 1120.703828 563.058887 
L 1112.477935 572.423789 
L 1104.183277 581.297433 
L 1095.822161 589.705317 
L 1087.396332 597.670758 
L 1078.90708 605.215176 
L 1070.355352 612.358352 
L 1061.741836 619.118657 
L 1053.067044 625.51325 
L 1044.331376 631.558262 
L 1035.535178 637.268947 
L 1026.678785 642.659812 
L 1017.76256 647.744731 
L 1008.786921 652.53703 
L 999.752356 657.049568 
L 990.659438 661.294782 
L 981.508827 665.284736 
L 972.301266 669.031136 
L 963.037571 672.54535 
L 953.718619 675.8384 
L 944.345325 678.920955 
L 934.918622 681.803309 
L 925.439429 684.495353 
L 915.908625 687.006538 
L 906.327011 689.345834 
L 896.69528 691.521684 
L 887.013978 693.541959 
L 877.283466 695.413904 
L 867.503887 697.14409 
L 857.675126 698.738365 
L 847.796778 700.201806 
L 837.86811 701.538677 
L 827.888036 702.752389 
L 817.855083 703.845469 
L 807.767372 704.819537 
L 797.62259 705.675286 
L 787.417985 706.412478 
L 777.150345 707.029951 
L 766.816 707.525637 
L 756.410823 707.89659 
L 745.930239 708.139041 
L 735.369241 708.248456 
L 724.722418 708.219618 
L 713.983987 708.046733 
L 703.14784 707.723548 
L 692.207595 707.243493 
L 681.156662 706.599852 
L 669.988321 705.78595 
L 658.695809 704.795371 
L 647.272421 703.622202 
L 635.711623 702.261301 
L 624.007183 700.708605 
L 612.153309 698.961457 
L 600.144811 697.018971 
L 587.97727 694.88243 
L 575.647228 692.555722 
L 563.152395 690.045802 
L 550.49187 687.363203 
L 537.666384 684.52258 
L 524.67856 681.543293 
L 511.53319 678.450032 
L 498.237535 675.273488 
L 484.801644 672.051065 
L 471.238694 668.827634 
L 457.565351 665.656342 
L 443.802156 662.599457 
L 429.973929 659.729274 
L 416.1102 657.129065 
L 402.245665 654.894079 
L 388.42066 653.132599 
L 374.681673 651.967053 
L 361.081863 651.535176 
L 347.681626 651.991236 
L 334.549172 653.507312 
L 321.761137 656.274631 
L 309.403224 660.504976 
L 297.570867 666.432139 
L 286.369933 674.313453 
L 275.917444 684.431382 
L 266.342339 697.095174 
L 257.78626 712.642587 
L 250.404374 731.44168 
L 244.366226 753.892674 
L 239.856627 780.429889 
" clip-path="url(#p36d5e6c509)" style="fill: none; stroke: #8c564b; stroke-width: 1.5"/>
    <path d="M 1245.272727 313.053341 
L 1239.546962 337.414501 
L 1233.47386 360.216286 
L 1227.093772 381.585509 
L 1220.442393 401.637317 
L 1213.551156 420.476128 
L 1206.447608 438.196521 
L 1199.155757 454.884067 
L 1191.696405 470.616107 
L 1184.087458 485.462475 
L 1176.344219 499.486179 
L 1168.479671 512.744025 
L 1160.504739 525.287209 
L 1152.428538 537.161852 
L 1144.258613 548.409512 
L 1136.001156 559.067653 
L 1127.661216 569.17008 
L 1119.242888 578.747344 
L 1110.749488 587.82712 
L 1102.183711 596.434553 
L 1093.547775 604.592584 
L 1084.843542 612.322239 
L 1076.072623 619.642907 
L 1067.236469 626.572578 
L 1058.336437 633.128067 
L 1049.373847 639.325207 
L 1040.35002 645.179019 
L 1031.266299 650.703857 
L 1022.124066 655.913525 
L 1012.924742 660.821375 
L 1003.669778 665.44038 
L 994.360648 669.783185 
L 984.998827 673.862139 
L 975.585773 677.689309 
L 966.122902 681.276482 
L 956.611568 684.635148 
L 947.053033 687.776476 
L 937.448442 690.71128 
L 927.798802 693.449978 
L 918.104948 696.002543 
L 908.36752 698.378456 
L 898.586939 700.586648 
L 888.763373 702.635449 
L 878.896717 704.532531 
L 868.986565 706.284856 
L 859.032185 707.898623 
L 849.032494 709.37922 
L 838.986043 710.731182 
L 828.890995 711.958148 
L 818.74511 713.062833 
L 808.545741 714.047 
L 798.289821 714.91145 
L 787.973871 715.656012 
L 777.594001 716.279551 
L 767.145926 716.779991 
L 756.624986 717.154348 
L 746.026172 717.398778 
L 735.344159 717.508656 
L 724.573351 717.478652 
L 713.707926 717.302851 
L 702.741895 716.97488 
L 691.669162 716.48806 
L 680.4836 715.835594 
L 669.179121 715.010761 
L 657.749769 714.007154 
L 646.189811 712.818934 
L 634.493841 711.441113 
L 622.6569 709.869864 
L 610.674601 708.102866 
L 598.543278 706.139663 
L 586.260147 703.982069 
L 573.823495 701.634594 
L 561.232889 699.104909 
L 548.489415 696.404337 
L 522.557451 690.557328 
L 482.651199 681.058151 
L 455.515288 674.686904 
L 441.85718 671.653359 
L 428.179274 668.814377 
L 414.519552 666.25243 
L 400.923228 664.06068 
L 387.443634 662.34321 
L 374.142946 661.214847 
L 361.092404 660.800413 
L 348.37124 661.233362 
L 336.0631 662.654274 
L 324.248431 665.210958 
L 312.992725 669.063997 
L 302.335321 674.402592 
L 292.290599 681.470361 
L 282.872303 690.587199 
L 274.132505 702.146236 
L 266.187307 716.583605 
L 259.212684 734.345539 
L 253.422296 755.875315 
L 248.985981 781.981285 
L 248.985981 781.981285 
" clip-path="url(#p36d5e6c509)" style="fill: none; stroke: #17becf; stroke-width: 1.5"/>
   </g>
   <g id="patch_3">
    <path d="M 180 805.639414 
L 180 285.160586 
" style="fill: none; stroke: #000000; stroke-width: 0.8; stroke-linejoin: miter; stroke-linecap: square"/>
   </g>
   <g id="patch_4">
    <path d="M 1296 805.639414 
L 1296 285.160586 
" style="fill: none; stroke: #000000; stroke-width: 0.8; stroke-linejoin: miter; stroke-linecap: square"/>
   </g>
   <g id="patch_5">
    <path d="M 180 805.639414 
L 1296 805.639414 
" style="fill: none; stroke: #000000; stroke-width: 0.8; stroke-linejoin: miter; stroke-linecap: square"/>
   </g>
   <g id="patch_6">
    <path d="M 180 285.160586 
L 1296 285.160586 
" style="fill: none; stroke: #000000; stroke-width: 0.8; stroke-linejoin: miter; stroke-linecap: square"/>
   </g>
  </g>
 </g>
 <defs>
  <clipPath id="p36d5e6c509">
   <rect x="180" y="285.160586" width="1116" height="520.478827"/>
  </clipPath>
 </defs>
</svg>
