<?xml version="1.0" encoding="utf-8" standalone="no"?>
<!DOCTYPE svg PUBLIC "-//W3C//DTD SVG 1.1//EN"
  "http://www.w3.org/Graphics/SVG/1.1/DTD/svg11.dtd">
<svg xmlns:xlink="http://www.w3.org/1999/xlink" width="1440pt" height="1080pt" viewBox="0 0 1440 1080" xmlns="http://www.w3.org/2000/svg" version="1.1">
 <metadata>
  <rdf:RDF xmlns:dc="http://purl.org/dc/elements/1.1/" xmlns:cc="http://creativecommons.org/ns#" xmlns:rdf="http://www.w3.org/1999/02/22-rdf-syntax-ns#">
   <cc:Work>
    <dc:type rdf:resource="http://purl.org/dc/dcmitype/StillImage"/>
    <dc:date>2023-12-11T12:07:05.975843</dc:date>
    <dc:format>image/svg+xml</dc:format>
    <dc:creator>
     <cc:Agent>
      <dc:title>Matplotlib v3.7.1, https://matplotlib.org/</dc:title>
     </cc:Agent>
    </dc:creator>
   </cc:Work>
  </rdf:RDF>
 </metadata>
 <defs>
  <style type="text/css">*{stroke-linejoin: round; stroke-linecap: butt}</style>
 </defs>
 <g id="figure_1">
  <g id="patch_1">
   <path d="M 0 1080 
L 1440 1080 
L 1440 0 
L 0 0 
z
" style="fill: #ffffff"/>
  </g>
  <g id="axes_1">
   <g id="patch_2">
    <path d="M 555.54135 961.2 
L 920.45865 961.2 
L 920.45865 129.6 
L 555.54135 129.6 
z
" style="fill: #ffffff"/>
   </g>
   <g id="matplotlib.axis_1">
    <g id="xtick_1">
     <g id="line2d_1">
      <defs>
       <path id="ma47c55c7fa" d="M 0 0 
L 0 3.5 
" style="stroke: #000000; stroke-width: 0.8"/>
      </defs>
      <g>
       <use xlink:href="#ma47c55c7fa" x="563.529219" y="961.2" style="stroke: #000000; stroke-width: 0.8"/>
      </g>
     </g>
     <g id="text_1">
      <!-- 300 -->
      <g transform="translate(553.985469 975.798437) scale(0.1 -0.1)">
       <defs>
        <path id="DejaVuSans-33" d="M 2597 2516 
Q 3050 2419 3304 2112 
Q 3559 1806 3559 1356 
Q 3559 666 3084 287 
Q 2609 -91 1734 -91 
Q 1441 -91 1130 -33 
Q 819 25 488 141 
L 488 750 
Q 750 597 1062 519 
Q 1375 441 1716 441 
Q 2309 441 2620 675 
Q 2931 909 2931 1356 
Q 2931 1769 2642 2001 
Q 2353 2234 1838 2234 
L 1294 2234 
L 1294 2753 
L 1863 2753 
Q 2328 2753 2575 2939 
Q 2822 3125 2822 3475 
Q 2822 3834 2567 4026 
Q 2313 4219 1838 4219 
Q 1578 4219 1281 4162 
Q 984 4106 628 3988 
L 628 4550 
Q 988 4650 1302 4700 
Q 1616 4750 1894 4750 
Q 2613 4750 3031 4423 
Q 3450 4097 3450 3541 
Q 3450 3153 3228 2886 
Q 3006 2619 2597 2516 
z
" transform="scale(0.015625)"/>
        <path id="DejaVuSans-30" d="M 2034 4250 
Q 1547 4250 1301 3770 
Q 1056 3291 1056 2328 
Q 1056 1369 1301 889 
Q 1547 409 2034 409 
Q 2525 409 2770 889 
Q 3016 1369 3016 2328 
Q 3016 3291 2770 3770 
Q 2525 4250 2034 4250 
z
M 2034 4750 
Q 2819 4750 3233 4129 
Q 3647 3509 3647 2328 
Q 3647 1150 3233 529 
Q 2819 -91 2034 -91 
Q 1250 -91 836 529 
Q 422 1150 422 2328 
Q 422 3509 836 4129 
Q 1250 4750 2034 4750 
z
" transform="scale(0.015625)"/>
       </defs>
       <use xlink:href="#DejaVuSans-33"/>
       <use xlink:href="#DejaVuSans-30" x="63.623047"/>
       <use xlink:href="#DejaVuSans-30" x="127.246094"/>
      </g>
     </g>
    </g>
    <g id="xtick_2">
     <g id="line2d_2">
      <g>
       <use xlink:href="#ma47c55c7fa" x="624.391012" y="961.2" style="stroke: #000000; stroke-width: 0.8"/>
      </g>
     </g>
     <g id="text_2">
      <!-- 400 -->
      <g transform="translate(614.847262 975.798437) scale(0.1 -0.1)">
       <defs>
        <path id="DejaVuSans-34" d="M 2419 4116 
L 825 1625 
L 2419 1625 
L 2419 4116 
z
M 2253 4666 
L 3047 4666 
L 3047 1625 
L 3713 1625 
L 3713 1100 
L 3047 1100 
L 3047 0 
L 2419 0 
L 2419 1100 
L 313 1100 
L 313 1709 
L 2253 4666 
z
" transform="scale(0.015625)"/>
       </defs>
       <use xlink:href="#DejaVuSans-34"/>
       <use xlink:href="#DejaVuSans-30" x="63.623047"/>
       <use xlink:href="#DejaVuSans-30" x="127.246094"/>
      </g>
     </g>
    </g>
    <g id="xtick_3">
     <g id="line2d_3">
      <g>
       <use xlink:href="#ma47c55c7fa" x="685.252805" y="961.2" style="stroke: #000000; stroke-width: 0.8"/>
      </g>
     </g>
     <g id="text_3">
      <!-- 500 -->
      <g transform="translate(675.709055 975.798437) scale(0.1 -0.1)">
       <defs>
        <path id="DejaVuSans-35" d="M 691 4666 
L 3169 4666 
L 3169 4134 
L 1269 4134 
L 1269 2991 
Q 1406 3038 1543 3061 
Q 1681 3084 1819 3084 
Q 2600 3084 3056 2656 
Q 3513 2228 3513 1497 
Q 3513 744 3044 326 
Q 2575 -91 1722 -91 
Q 1428 -91 1123 -41 
Q 819 9 494 109 
L 494 744 
Q 775 591 1075 516 
Q 1375 441 1709 441 
Q 2250 441 2565 725 
Q 2881 1009 2881 1497 
Q 2881 1984 2565 2268 
Q 2250 2553 1709 2553 
Q 1456 2553 1204 2497 
Q 953 2441 691 2322 
L 691 4666 
z
" transform="scale(0.015625)"/>
       </defs>
       <use xlink:href="#DejaVuSans-35"/>
       <use xlink:href="#DejaVuSans-30" x="63.623047"/>
       <use xlink:href="#DejaVuSans-30" x="127.246094"/>
      </g>
     </g>
    </g>
    <g id="xtick_4">
     <g id="line2d_4">
      <g>
       <use xlink:href="#ma47c55c7fa" x="746.114598" y="961.2" style="stroke: #000000; stroke-width: 0.8"/>
      </g>
     </g>
     <g id="text_4">
      <!-- 600 -->
      <g transform="translate(736.570848 975.798437) scale(0.1 -0.1)">
       <defs>
        <path id="DejaVuSans-36" d="M 2113 2584 
Q 1688 2584 1439 2293 
Q 1191 2003 1191 1497 
Q 1191 994 1439 701 
Q 1688 409 2113 409 
Q 2538 409 2786 701 
Q 3034 994 3034 1497 
Q 3034 2003 2786 2293 
Q 2538 2584 2113 2584 
z
M 3366 4563 
L 3366 3988 
Q 3128 4100 2886 4159 
Q 2644 4219 2406 4219 
Q 1781 4219 1451 3797 
Q 1122 3375 1075 2522 
Q 1259 2794 1537 2939 
Q 1816 3084 2150 3084 
Q 2853 3084 3261 2657 
Q 3669 2231 3669 1497 
Q 3669 778 3244 343 
Q 2819 -91 2113 -91 
Q 1303 -91 875 529 
Q 447 1150 447 2328 
Q 447 3434 972 4092 
Q 1497 4750 2381 4750 
Q 2619 4750 2861 4703 
Q 3103 4656 3366 4563 
z
" transform="scale(0.015625)"/>
       </defs>
       <use xlink:href="#DejaVuSans-36"/>
       <use xlink:href="#DejaVuSans-30" x="63.623047"/>
       <use xlink:href="#DejaVuSans-30" x="127.246094"/>
      </g>
     </g>
    </g>
    <g id="xtick_5">
     <g id="line2d_5">
      <g>
       <use xlink:href="#ma47c55c7fa" x="806.97639" y="961.2" style="stroke: #000000; stroke-width: 0.8"/>
      </g>
     </g>
     <g id="text_5">
      <!-- 700 -->
      <g transform="translate(797.43264 975.798437) scale(0.1 -0.1)">
       <defs>
        <path id="DejaVuSans-37" d="M 525 4666 
L 3525 4666 
L 3525 4397 
L 1831 0 
L 1172 0 
L 2766 4134 
L 525 4134 
L 525 4666 
z
" transform="scale(0.015625)"/>
       </defs>
       <use xlink:href="#DejaVuSans-37"/>
       <use xlink:href="#DejaVuSans-30" x="63.623047"/>
       <use xlink:href="#DejaVuSans-30" x="127.246094"/>
      </g>
     </g>
    </g>
    <g id="xtick_6">
     <g id="line2d_6">
      <g>
       <use xlink:href="#ma47c55c7fa" x="867.838183" y="961.2" style="stroke: #000000; stroke-width: 0.8"/>
      </g>
     </g>
     <g id="text_6">
      <!-- 800 -->
      <g transform="translate(858.294433 975.798437) scale(0.1 -0.1)">
       <defs>
        <path id="DejaVuSans-38" d="M 2034 2216 
Q 1584 2216 1326 1975 
Q 1069 1734 1069 1313 
Q 1069 891 1326 650 
Q 1584 409 2034 409 
Q 2484 409 2743 651 
Q 3003 894 3003 1313 
Q 3003 1734 2745 1975 
Q 2488 2216 2034 2216 
z
M 1403 2484 
Q 997 2584 770 2862 
Q 544 3141 544 3541 
Q 544 4100 942 4425 
Q 1341 4750 2034 4750 
Q 2731 4750 3128 4425 
Q 3525 4100 3525 3541 
Q 3525 3141 3298 2862 
Q 3072 2584 2669 2484 
Q 3125 2378 3379 2068 
Q 3634 1759 3634 1313 
Q 3634 634 3220 271 
Q 2806 -91 2034 -91 
Q 1263 -91 848 271 
Q 434 634 434 1313 
Q 434 1759 690 2068 
Q 947 2378 1403 2484 
z
M 1172 3481 
Q 1172 3119 1398 2916 
Q 1625 2713 2034 2713 
Q 2441 2713 2670 2916 
Q 2900 3119 2900 3481 
Q 2900 3844 2670 4047 
Q 2441 4250 2034 4250 
Q 1625 4250 1398 4047 
Q 1172 3844 1172 3481 
z
" transform="scale(0.015625)"/>
       </defs>
       <use xlink:href="#DejaVuSans-38"/>
       <use xlink:href="#DejaVuSans-30" x="63.623047"/>
       <use xlink:href="#DejaVuSans-30" x="127.246094"/>
      </g>
     </g>
    </g>
   </g>
   <g id="matplotlib.axis_2">
    <g id="ytick_1">
     <g id="line2d_7">
      <defs>
       <path id="mff412e84e0" d="M 0 0 
L -3.5 0 
" style="stroke: #000000; stroke-width: 0.8"/>
      </defs>
      <g>
       <use xlink:href="#mff412e84e0" x="555.54135" y="870.24596" style="stroke: #000000; stroke-width: 0.8"/>
      </g>
     </g>
     <g id="text_7">
      <!-- 200 -->
      <g transform="translate(529.45385 874.045179) scale(0.1 -0.1)">
       <defs>
        <path id="DejaVuSans-32" d="M 1228 531 
L 3431 531 
L 3431 0 
L 469 0 
L 469 531 
Q 828 903 1448 1529 
Q 2069 2156 2228 2338 
Q 2531 2678 2651 2914 
Q 2772 3150 2772 3378 
Q 2772 3750 2511 3984 
Q 2250 4219 1831 4219 
Q 1534 4219 1204 4116 
Q 875 4013 500 3803 
L 500 4441 
Q 881 4594 1212 4672 
Q 1544 4750 1819 4750 
Q 2544 4750 2975 4387 
Q 3406 4025 3406 3419 
Q 3406 3131 3298 2873 
Q 3191 2616 2906 2266 
Q 2828 2175 2409 1742 
Q 1991 1309 1228 531 
z
" transform="scale(0.015625)"/>
       </defs>
       <use xlink:href="#DejaVuSans-32"/>
       <use xlink:href="#DejaVuSans-30" x="63.623047"/>
       <use xlink:href="#DejaVuSans-30" x="127.246094"/>
      </g>
     </g>
    </g>
    <g id="ytick_2">
     <g id="line2d_8">
      <g>
       <use xlink:href="#mff412e84e0" x="555.54135" y="748.522375" style="stroke: #000000; stroke-width: 0.8"/>
      </g>
     </g>
     <g id="text_8">
      <!-- 400 -->
      <g transform="translate(529.45385 752.321593) scale(0.1 -0.1)">
       <use xlink:href="#DejaVuSans-34"/>
       <use xlink:href="#DejaVuSans-30" x="63.623047"/>
       <use xlink:href="#DejaVuSans-30" x="127.246094"/>
      </g>
     </g>
    </g>
    <g id="ytick_3">
     <g id="line2d_9">
      <g>
       <use xlink:href="#mff412e84e0" x="555.54135" y="626.798789" style="stroke: #000000; stroke-width: 0.8"/>
      </g>
     </g>
     <g id="text_9">
      <!-- 600 -->
      <g transform="translate(529.45385 630.598008) scale(0.1 -0.1)">
       <use xlink:href="#DejaVuSans-36"/>
       <use xlink:href="#DejaVuSans-30" x="63.623047"/>
       <use xlink:href="#DejaVuSans-30" x="127.246094"/>
      </g>
     </g>
    </g>
    <g id="ytick_4">
     <g id="line2d_10">
      <g>
       <use xlink:href="#mff412e84e0" x="555.54135" y="505.075204" style="stroke: #000000; stroke-width: 0.8"/>
      </g>
     </g>
     <g id="text_10">
      <!-- 800 -->
      <g transform="translate(529.45385 508.874422) scale(0.1 -0.1)">
       <use xlink:href="#DejaVuSans-38"/>
       <use xlink:href="#DejaVuSans-30" x="63.623047"/>
       <use xlink:href="#DejaVuSans-30" x="127.246094"/>
      </g>
     </g>
    </g>
    <g id="ytick_5">
     <g id="line2d_11">
      <g>
       <use xlink:href="#mff412e84e0" x="555.54135" y="383.351618" style="stroke: #000000; stroke-width: 0.8"/>
      </g>
     </g>
     <g id="text_11">
      <!-- 1000 -->
      <g transform="translate(523.09135 387.150837) scale(0.1 -0.1)">
       <defs>
        <path id="DejaVuSans-31" d="M 794 531 
L 1825 531 
L 1825 4091 
L 703 3866 
L 703 4441 
L 1819 4666 
L 2450 4666 
L 2450 531 
L 3481 531 
L 3481 0 
L 794 0 
L 794 531 
z
" transform="scale(0.015625)"/>
       </defs>
       <use xlink:href="#DejaVuSans-31"/>
       <use xlink:href="#DejaVuSans-30" x="63.623047"/>
       <use xlink:href="#DejaVuSans-30" x="127.246094"/>
       <use xlink:href="#DejaVuSans-30" x="190.869141"/>
      </g>
     </g>
    </g>
    <g id="ytick_6">
     <g id="line2d_12">
      <g>
       <use xlink:href="#mff412e84e0" x="555.54135" y="261.628033" style="stroke: #000000; stroke-width: 0.8"/>
      </g>
     </g>
     <g id="text_12">
      <!-- 1200 -->
      <g transform="translate(523.09135 265.427251) scale(0.1 -0.1)">
       <use xlink:href="#DejaVuSans-31"/>
       <use xlink:href="#DejaVuSans-32" x="63.623047"/>
       <use xlink:href="#DejaVuSans-30" x="127.246094"/>
       <use xlink:href="#DejaVuSans-30" x="190.869141"/>
      </g>
     </g>
    </g>
    <g id="ytick_7">
     <g id="line2d_13">
      <g>
       <use xlink:href="#mff412e84e0" x="555.54135" y="139.904447" style="stroke: #000000; stroke-width: 0.8"/>
      </g>
     </g>
     <g id="text_13">
      <!-- 1400 -->
      <g transform="translate(523.09135 143.703666) scale(0.1 -0.1)">
       <use xlink:href="#DejaVuSans-31"/>
       <use xlink:href="#DejaVuSans-34" x="63.623047"/>
       <use xlink:href="#DejaVuSans-30" x="127.246094"/>
       <use xlink:href="#DejaVuSans-30" x="190.869141"/>
      </g>
     </g>
    </g>
   </g>
   <g id="LineCollection_1">
    <path d="M 784.831382 180.574102 
L 801.402765 196.476021 
L 816.162293 211.51529 
L 829.270418 225.805118 
L 840.798907 239.372363 
L 850.819275 252.242034 
L 859.403253 264.437371 
L 866.623403 275.980152 
L 872.553836 286.89135 
L 877.2709 297.192317 
L 880.853558 306.906584 
L 883.383023 316.062224 
L 884.941154 324.694303 
L 885.607379 332.846487 
L 885.454608 340.570659 
L 884.545465 347.923838 
L 882.930518 354.96293 
L 880.649482 361.739123 
L 877.734867 368.294003 
L 874.216423 374.658443 
L 870.124757 380.853935 
L 865.493331 386.895166 
L 860.358946 392.792715 
L 854.761251 398.555196 
L 848.741832 404.190663 
L 842.343256 409.7074 
L 835.608258 415.114256 
L 828.579113 420.420714 
L 821.297195 425.636823 
L 813.802678 430.773069 
L 806.134351 435.840226 
L 790.423823 445.811044 
L 766.430941 460.524289 
L 750.497734 470.303055 
L 734.883229 480.143438 
L 727.255972 485.110599 
L 719.77801 490.121163 
L 712.469532 495.183794 
L 705.349354 500.306814 
L 698.43497 505.498198 
L 691.742604 510.765537 
L 685.287273 516.116012 
L 679.082843 521.55633 
L 673.142078 527.09266 
L 667.476689 532.730541 
L 662.097351 538.474774 
L 657.013695 544.329306 
L 652.23427 550.297108 
L 647.766452 556.38007 
L 643.616313 562.57892 
L 639.788459 568.893195 
L 636.285838 575.321273 
L 633.109547 581.860475 
L 630.25867 588.50723 
L 627.730155 595.257305 
L 625.518761 602.106047 
L 623.617077 609.048638 
L 622.015601 616.080317 
L 620.702878 623.196549 
L 619.665666 630.393139 
L 618.889102 637.666277 
L 618.35688 645.012542 
L 618.051383 652.428844 
L 617.953813 659.912362 
L 618.044272 667.460449 
L 618.301829 675.070548 
L 618.704566 682.740103 
L 619.853129 698.246959 
L 622.063229 721.888088 
L 623.553925 737.887781 
L 624.789881 754.021963 
L 625.237035 762.129284 
L 625.528769 770.257894 
L 625.63315 778.403777 
L 625.517663 786.563197 
L 625.149214 794.732884 
L 624.494102 802.910251 
L 623.517919 811.093616 
L 622.185396 819.282425 
L 620.460164 827.477421 
L 618.304454 835.680737 
L 615.678758 843.895855 
L 612.541505 852.127418 
L 608.848817 860.38088 
L 604.554396 868.662039 
L 599.609594 876.976516 
L 593.963666 885.329272 
L 587.564168 893.724228 
L 580.35743 902.164073 
L 572.1285 910.819081 
L 572.1285 910.819081 
" clip-path="url(#p5727d27be4)" style="fill: none; stroke: #1f77b4; stroke-width: 1.5"/>
    <path d="M 791.152324 173.987051 
L 807.822521 189.983792 
L 822.785786 205.23066 
L 836.115091 219.761608 
L 847.882249 233.609728 
L 858.157895 246.807265 
L 867.011471 259.385622 
L 874.51121 271.37538 
L 880.72412 282.8063 
L 885.715972 293.707339 
L 889.551281 304.106659 
L 892.293295 314.031639 
L 894.003982 323.508882 
L 894.744016 332.564227 
L 894.572765 341.222762 
L 893.548281 349.508827 
L 891.727283 357.446031 
L 889.165155 365.057255 
L 885.915927 372.364669 
L 882.03227 379.389735 
L 877.565487 386.153219 
L 872.565501 392.675201 
L 867.080847 398.975083 
L 861.158668 405.071598 
L 854.844704 410.982822 
L 848.183285 416.726179 
L 841.217325 422.318451 
L 833.988317 427.77579 
L 826.536327 433.113724 
L 818.899987 438.347165 
L 811.116495 443.490422 
L 803.221604 448.557206 
L 795.249624 453.56064 
L 787.233418 458.513269 
L 779.204395 463.427067 
L 771.192513 468.313447 
L 763.226274 473.183271 
L 755.332722 478.046855 
L 747.537447 482.913982 
L 739.864577 487.793911 
L 732.336783 492.69538 
L 724.975278 497.626625 
L 717.799819 502.595378 
L 710.828706 507.608886 
L 704.078784 512.673914 
L 697.565448 517.796757 
L 691.30264 522.983247 
L 685.302859 528.238766 
L 679.577159 533.568252 
L 674.135154 538.976212 
L 668.985024 544.466728 
L 664.133518 550.043471 
L 659.585959 555.709707 
L 655.346251 561.46831 
L 651.416884 567.321771 
L 647.79894 573.272207 
L 644.4921 579.321375 
L 641.494651 585.470681 
L 638.803495 591.721189 
L 636.414155 598.073633 
L 634.320784 604.528431 
L 632.516176 611.085692 
L 630.99177 617.74523 
L 629.737666 624.506576 
L 628.742629 631.368988 
L 627.994105 638.331463 
L 627.478228 645.392753 
L 627.17983 652.551373 
L 627.082458 659.805616 
L 627.168382 667.153566 
L 627.418605 674.593111 
L 627.812884 682.121954 
L 628.329732 689.737631 
L 628.946443 697.437522 
L 629.639096 705.218865 
L 630.382575 713.078774 
L 631.150582 721.014246 
L 631.915652 729.022187 
L 632.649168 737.099416 
L 633.321377 745.242689 
L 633.901407 753.44871 
L 634.357282 761.71415 
L 634.65594 770.03566 
L 634.763247 778.409893 
L 634.64402 786.833516 
L 634.262041 795.303229 
L 633.580075 803.815785 
L 632.559892 812.368006 
L 631.162281 820.9568 
L 629.347075 829.579184 
L 627.073164 838.232298 
L 624.298522 846.91343 
L 620.980221 855.620031 
L 617.074455 864.349739 
L 612.536562 873.100396 
L 607.321043 881.870073 
L 601.381583 890.657088 
L 594.671077 899.460031 
L 587.141646 908.277783 
L 578.744668 917.10954 
" clip-path="url(#p5727d27be4)" style="fill: none; stroke: #8c564b; stroke-width: 1.5"/>
    <path d="M 797.473266 167.4 
L 814.338203 183.589307 
L 829.513326 199.059456 
L 843.071968 213.850143 
L 855.085575 228.001195 
L 865.623272 241.552582 
L 874.751293 254.544269 
L 882.532275 267.015786 
L 889.024503 279.005352 
L 894.281295 290.548415 
L 898.350899 301.675553 
L 901.277377 312.40997 
L 903.102917 322.765285 
L 903.8715 332.744753 
L 903.633046 342.34297 
L 902.446372 351.550277 
L 900.379486 360.358578 
L 897.506955 368.766422 
L 893.905576 376.781575 
L 889.65015 384.420784 
L 884.81064 391.707615 
L 879.450981 398.669674 
L 873.629164 405.336143 
L 867.397989 411.736013 
L 860.806014 417.897035 
L 853.89844 423.845206 
L 846.717812 429.604615 
L 839.304539 435.19747 
L 831.697238 440.644231 
L 823.932967 445.96377 
L 816.047359 451.173528 
L 800.048002 461.327179 
L 775.950068 476.105061 
L 760.144719 485.80501 
L 744.805029 495.471011 
L 737.368076 500.313332 
L 730.114624 505.172196 
L 723.064016 510.054494 
L 716.234081 514.966469 
L 709.641085 519.913742 
L 703.299687 524.901352 
L 697.222881 529.933807 
L 691.421946 535.015146 
L 685.906398 540.149023 
L 680.683945 545.338804 
L 675.760468 550.587687 
L 671.140019 555.898833 
L 666.824856 561.275506 
L 662.815518 566.721208 
L 659.110948 572.239795 
L 655.708652 577.835553 
L 652.604898 583.513219 
L 649.794915 589.277937 
L 647.273096 595.13514 
L 645.033155 601.090382 
L 643.068233 607.149116 
L 641.370931 613.316468 
L 639.933278 619.597016 
L 638.74664 625.994624 
L 637.801588 632.512315 
L 637.087743 639.15222 
L 636.593631 645.915579 
L 636.306547 652.802793 
L 636.212444 659.813509 
L 636.295856 666.946727 
L 636.539845 674.200917 
L 636.925973 681.574128 
L 638.043342 696.668358 
L 640.238469 720.146 
L 641.747491 736.348369 
L 643.016822 752.945955 
L 643.480677 761.386713 
L 643.784459 769.918688 
L 643.891601 778.539095 
L 643.764019 787.244822 
L 643.362154 796.032266 
L 642.645075 804.897137 
L 641.570641 813.834279 
L 640.095732 822.837493 
L 638.176568 831.899444 
L 635.769065 841.011661 
L 632.829222 850.164691 
L 629.313452 859.348409 
L 625.17881 868.552474 
L 620.383058 877.766879 
L 614.884541 886.982513 
L 608.641901 896.191647 
L 601.613665 905.388269 
L 593.757814 914.568242 
L 585.360835 923.4 
L 585.360835 923.4 
" clip-path="url(#p5727d27be4)" style="fill: none; stroke: #17becf; stroke-width: 1.5"/>
   </g>
   <g id="patch_3">
    <path d="M 555.54135 961.2 
L 555.54135 129.6 
" style="fill: none; stroke: #000000; stroke-width: 0.8; stroke-linejoin: miter; stroke-linecap: square"/>
   </g>
   <g id="patch_4">
    <path d="M 920.45865 961.2 
L 920.45865 129.6 
" style="fill: none; stroke: #000000; stroke-width: 0.8; stroke-linejoin: miter; stroke-linecap: square"/>
   </g>
   <g id="patch_5">
    <path d="M 555.54135 961.2 
L 920.45865 961.2 
" style="fill: none; stroke: #000000; stroke-width: 0.8; stroke-linejoin: miter; stroke-linecap: square"/>
   </g>
   <g id="patch_6">
    <path d="M 555.54135 129.6 
L 920.45865 129.6 
" style="fill: none; stroke: #000000; stroke-width: 0.8; stroke-linejoin: miter; stroke-linecap: square"/>
   </g>
  </g>
 </g>
 <defs>
  <clipPath id="p5727d27be4">
   <rect x="555.54135" y="129.6" width="364.917299" height="831.6"/>
  </clipPath>
 </defs>
</svg>
