<?xml version="1.0" encoding="utf-8" standalone="no"?>
<!DOCTYPE svg PUBLIC "-//W3C//DTD SVG 1.1//EN"
  "http://www.w3.org/Graphics/SVG/1.1/DTD/svg11.dtd">
<svg xmlns:xlink="http://www.w3.org/1999/xlink" width="1440pt" height="1080pt" viewBox="0 0 1440 1080" xmlns="http://www.w3.org/2000/svg" version="1.1">
 <metadata>
  <rdf:RDF xmlns:dc="http://purl.org/dc/elements/1.1/" xmlns:cc="http://creativecommons.org/ns#" xmlns:rdf="http://www.w3.org/1999/02/22-rdf-syntax-ns#">
   <cc:Work>
    <dc:type rdf:resource="http://purl.org/dc/dcmitype/StillImage"/>
    <dc:date>2023-12-11T12:06:44.463232</dc:date>
    <dc:format>image/svg+xml</dc:format>
    <dc:creator>
     <cc:Agent>
      <dc:title>Matplotlib v3.7.1, https://matplotlib.org/</dc:title>
     </cc:Agent>
    </dc:creator>
   </cc:Work>
  </rdf:RDF>
 </metadata>
 <defs>
  <style type="text/css">*{stroke-linejoin: round; stroke-linecap: butt}</style>
 </defs>
 <g id="figure_1">
  <g id="patch_1">
   <path d="M 0 1080 
L 1440 1080 
L 1440 0 
L 0 0 
z
" style="fill: #ffffff"/>
  </g>
  <g id="axes_1">
   <g id="patch_2">
    <path d="M 180 771.587587 
L 1296 771.587587 
L 1296 319.212413 
L 180 319.212413 
z
" style="fill: #ffffff"/>
   </g>
   <g id="matplotlib.axis_1">
    <g id="xtick_1">
     <g id="line2d_1">
      <defs>
       <path id="m7d6e04c835" d="M 0 0 
L 0 3.5 
" style="stroke: #000000; stroke-width: 0.8"/>
      </defs>
      <g>
       <use xlink:href="#m7d6e04c835" x="243.254105" y="771.587587" style="stroke: #000000; stroke-width: 0.8"/>
      </g>
     </g>
     <g id="text_1">
      <!-- 800 -->
      <g transform="translate(233.710355 786.186024) scale(0.1 -0.1)">
       <defs>
        <path id="DejaVuSans-38" d="M 2034 2216 
Q 1584 2216 1326 1975 
Q 1069 1734 1069 1313 
Q 1069 891 1326 650 
Q 1584 409 2034 409 
Q 2484 409 2743 651 
Q 3003 894 3003 1313 
Q 3003 1734 2745 1975 
Q 2488 2216 2034 2216 
z
M 1403 2484 
Q 997 2584 770 2862 
Q 544 3141 544 3541 
Q 544 4100 942 4425 
Q 1341 4750 2034 4750 
Q 2731 4750 3128 4425 
Q 3525 4100 3525 3541 
Q 3525 3141 3298 2862 
Q 3072 2584 2669 2484 
Q 3125 2378 3379 2068 
Q 3634 1759 3634 1313 
Q 3634 634 3220 271 
Q 2806 -91 2034 -91 
Q 1263 -91 848 271 
Q 434 634 434 1313 
Q 434 1759 690 2068 
Q 947 2378 1403 2484 
z
M 1172 3481 
Q 1172 3119 1398 2916 
Q 1625 2713 2034 2713 
Q 2441 2713 2670 2916 
Q 2900 3119 2900 3481 
Q 2900 3844 2670 4047 
Q 2441 4250 2034 4250 
Q 1625 4250 1398 4047 
Q 1172 3844 1172 3481 
z
" transform="scale(0.015625)"/>
        <path id="DejaVuSans-30" d="M 2034 4250 
Q 1547 4250 1301 3770 
Q 1056 3291 1056 2328 
Q 1056 1369 1301 889 
Q 1547 409 2034 409 
Q 2525 409 2770 889 
Q 3016 1369 3016 2328 
Q 3016 3291 2770 3770 
Q 2525 4250 2034 4250 
z
M 2034 4750 
Q 2819 4750 3233 4129 
Q 3647 3509 3647 2328 
Q 3647 1150 3233 529 
Q 2819 -91 2034 -91 
Q 1250 -91 836 529 
Q 422 1150 422 2328 
Q 422 3509 836 4129 
Q 1250 4750 2034 4750 
z
" transform="scale(0.015625)"/>
       </defs>
       <use xlink:href="#DejaVuSans-38"/>
       <use xlink:href="#DejaVuSans-30" x="63.623047"/>
       <use xlink:href="#DejaVuSans-30" x="127.246094"/>
      </g>
     </g>
    </g>
    <g id="xtick_2">
     <g id="line2d_2">
      <g>
       <use xlink:href="#m7d6e04c835" x="461.151575" y="771.587587" style="stroke: #000000; stroke-width: 0.8"/>
      </g>
     </g>
     <g id="text_2">
      <!-- 1000 -->
      <g transform="translate(448.426575 786.186024) scale(0.1 -0.1)">
       <defs>
        <path id="DejaVuSans-31" d="M 794 531 
L 1825 531 
L 1825 4091 
L 703 3866 
L 703 4441 
L 1819 4666 
L 2450 4666 
L 2450 531 
L 3481 531 
L 3481 0 
L 794 0 
L 794 531 
z
" transform="scale(0.015625)"/>
       </defs>
       <use xlink:href="#DejaVuSans-31"/>
       <use xlink:href="#DejaVuSans-30" x="63.623047"/>
       <use xlink:href="#DejaVuSans-30" x="127.246094"/>
       <use xlink:href="#DejaVuSans-30" x="190.869141"/>
      </g>
     </g>
    </g>
    <g id="xtick_3">
     <g id="line2d_3">
      <g>
       <use xlink:href="#m7d6e04c835" x="679.049045" y="771.587587" style="stroke: #000000; stroke-width: 0.8"/>
      </g>
     </g>
     <g id="text_3">
      <!-- 1200 -->
      <g transform="translate(666.324045 786.186024) scale(0.1 -0.1)">
       <defs>
        <path id="DejaVuSans-32" d="M 1228 531 
L 3431 531 
L 3431 0 
L 469 0 
L 469 531 
Q 828 903 1448 1529 
Q 2069 2156 2228 2338 
Q 2531 2678 2651 2914 
Q 2772 3150 2772 3378 
Q 2772 3750 2511 3984 
Q 2250 4219 1831 4219 
Q 1534 4219 1204 4116 
Q 875 4013 500 3803 
L 500 4441 
Q 881 4594 1212 4672 
Q 1544 4750 1819 4750 
Q 2544 4750 2975 4387 
Q 3406 4025 3406 3419 
Q 3406 3131 3298 2873 
Q 3191 2616 2906 2266 
Q 2828 2175 2409 1742 
Q 1991 1309 1228 531 
z
" transform="scale(0.015625)"/>
       </defs>
       <use xlink:href="#DejaVuSans-31"/>
       <use xlink:href="#DejaVuSans-32" x="63.623047"/>
       <use xlink:href="#DejaVuSans-30" x="127.246094"/>
       <use xlink:href="#DejaVuSans-30" x="190.869141"/>
      </g>
     </g>
    </g>
    <g id="xtick_4">
     <g id="line2d_4">
      <g>
       <use xlink:href="#m7d6e04c835" x="896.946516" y="771.587587" style="stroke: #000000; stroke-width: 0.8"/>
      </g>
     </g>
     <g id="text_4">
      <!-- 1400 -->
      <g transform="translate(884.221516 786.186024) scale(0.1 -0.1)">
       <defs>
        <path id="DejaVuSans-34" d="M 2419 4116 
L 825 1625 
L 2419 1625 
L 2419 4116 
z
M 2253 4666 
L 3047 4666 
L 3047 1625 
L 3713 1625 
L 3713 1100 
L 3047 1100 
L 3047 0 
L 2419 0 
L 2419 1100 
L 313 1100 
L 313 1709 
L 2253 4666 
z
" transform="scale(0.015625)"/>
       </defs>
       <use xlink:href="#DejaVuSans-31"/>
       <use xlink:href="#DejaVuSans-34" x="63.623047"/>
       <use xlink:href="#DejaVuSans-30" x="127.246094"/>
       <use xlink:href="#DejaVuSans-30" x="190.869141"/>
      </g>
     </g>
    </g>
    <g id="xtick_5">
     <g id="line2d_5">
      <g>
       <use xlink:href="#m7d6e04c835" x="1114.843986" y="771.587587" style="stroke: #000000; stroke-width: 0.8"/>
      </g>
     </g>
     <g id="text_5">
      <!-- 1600 -->
      <g transform="translate(1102.118986 786.186024) scale(0.1 -0.1)">
       <defs>
        <path id="DejaVuSans-36" d="M 2113 2584 
Q 1688 2584 1439 2293 
Q 1191 2003 1191 1497 
Q 1191 994 1439 701 
Q 1688 409 2113 409 
Q 2538 409 2786 701 
Q 3034 994 3034 1497 
Q 3034 2003 2786 2293 
Q 2538 2584 2113 2584 
z
M 3366 4563 
L 3366 3988 
Q 3128 4100 2886 4159 
Q 2644 4219 2406 4219 
Q 1781 4219 1451 3797 
Q 1122 3375 1075 2522 
Q 1259 2794 1537 2939 
Q 1816 3084 2150 3084 
Q 2853 3084 3261 2657 
Q 3669 2231 3669 1497 
Q 3669 778 3244 343 
Q 2819 -91 2113 -91 
Q 1303 -91 875 529 
Q 447 1150 447 2328 
Q 447 3434 972 4092 
Q 1497 4750 2381 4750 
Q 2619 4750 2861 4703 
Q 3103 4656 3366 4563 
z
" transform="scale(0.015625)"/>
       </defs>
       <use xlink:href="#DejaVuSans-31"/>
       <use xlink:href="#DejaVuSans-36" x="63.623047"/>
       <use xlink:href="#DejaVuSans-30" x="127.246094"/>
       <use xlink:href="#DejaVuSans-30" x="190.869141"/>
      </g>
     </g>
    </g>
   </g>
   <g id="matplotlib.axis_2">
    <g id="ytick_1">
     <g id="line2d_6">
      <defs>
       <path id="ma0dc6045ef" d="M 0 0 
L -3.5 0 
" style="stroke: #000000; stroke-width: 0.8"/>
      </defs>
      <g>
       <use xlink:href="#ma0dc6045ef" x="180" y="742.793661" style="stroke: #000000; stroke-width: 0.8"/>
      </g>
     </g>
     <g id="text_6">
      <!-- 1100 -->
      <g transform="translate(147.55 746.59288) scale(0.1 -0.1)">
       <use xlink:href="#DejaVuSans-31"/>
       <use xlink:href="#DejaVuSans-31" x="63.623047"/>
       <use xlink:href="#DejaVuSans-30" x="127.246094"/>
       <use xlink:href="#DejaVuSans-30" x="190.869141"/>
      </g>
     </g>
    </g>
    <g id="ytick_2">
     <g id="line2d_7">
      <g>
       <use xlink:href="#ma0dc6045ef" x="180" y="688.319294" style="stroke: #000000; stroke-width: 0.8"/>
      </g>
     </g>
     <g id="text_7">
      <!-- 1150 -->
      <g transform="translate(147.55 692.118512) scale(0.1 -0.1)">
       <defs>
        <path id="DejaVuSans-35" d="M 691 4666 
L 3169 4666 
L 3169 4134 
L 1269 4134 
L 1269 2991 
Q 1406 3038 1543 3061 
Q 1681 3084 1819 3084 
Q 2600 3084 3056 2656 
Q 3513 2228 3513 1497 
Q 3513 744 3044 326 
Q 2575 -91 1722 -91 
Q 1428 -91 1123 -41 
Q 819 9 494 109 
L 494 744 
Q 775 591 1075 516 
Q 1375 441 1709 441 
Q 2250 441 2565 725 
Q 2881 1009 2881 1497 
Q 2881 1984 2565 2268 
Q 2250 2553 1709 2553 
Q 1456 2553 1204 2497 
Q 953 2441 691 2322 
L 691 4666 
z
" transform="scale(0.015625)"/>
       </defs>
       <use xlink:href="#DejaVuSans-31"/>
       <use xlink:href="#DejaVuSans-31" x="63.623047"/>
       <use xlink:href="#DejaVuSans-35" x="127.246094"/>
       <use xlink:href="#DejaVuSans-30" x="190.869141"/>
      </g>
     </g>
    </g>
    <g id="ytick_3">
     <g id="line2d_8">
      <g>
       <use xlink:href="#ma0dc6045ef" x="180" y="633.844926" style="stroke: #000000; stroke-width: 0.8"/>
      </g>
     </g>
     <g id="text_8">
      <!-- 1200 -->
      <g transform="translate(147.55 637.644145) scale(0.1 -0.1)">
       <use xlink:href="#DejaVuSans-31"/>
       <use xlink:href="#DejaVuSans-32" x="63.623047"/>
       <use xlink:href="#DejaVuSans-30" x="127.246094"/>
       <use xlink:href="#DejaVuSans-30" x="190.869141"/>
      </g>
     </g>
    </g>
    <g id="ytick_4">
     <g id="line2d_9">
      <g>
       <use xlink:href="#ma0dc6045ef" x="180" y="579.370559" style="stroke: #000000; stroke-width: 0.8"/>
      </g>
     </g>
     <g id="text_9">
      <!-- 1250 -->
      <g transform="translate(147.55 583.169777) scale(0.1 -0.1)">
       <use xlink:href="#DejaVuSans-31"/>
       <use xlink:href="#DejaVuSans-32" x="63.623047"/>
       <use xlink:href="#DejaVuSans-35" x="127.246094"/>
       <use xlink:href="#DejaVuSans-30" x="190.869141"/>
      </g>
     </g>
    </g>
    <g id="ytick_5">
     <g id="line2d_10">
      <g>
       <use xlink:href="#ma0dc6045ef" x="180" y="524.896191" style="stroke: #000000; stroke-width: 0.8"/>
      </g>
     </g>
     <g id="text_10">
      <!-- 1300 -->
      <g transform="translate(147.55 528.69541) scale(0.1 -0.1)">
       <defs>
        <path id="DejaVuSans-33" d="M 2597 2516 
Q 3050 2419 3304 2112 
Q 3559 1806 3559 1356 
Q 3559 666 3084 287 
Q 2609 -91 1734 -91 
Q 1441 -91 1130 -33 
Q 819 25 488 141 
L 488 750 
Q 750 597 1062 519 
Q 1375 441 1716 441 
Q 2309 441 2620 675 
Q 2931 909 2931 1356 
Q 2931 1769 2642 2001 
Q 2353 2234 1838 2234 
L 1294 2234 
L 1294 2753 
L 1863 2753 
Q 2328 2753 2575 2939 
Q 2822 3125 2822 3475 
Q 2822 3834 2567 4026 
Q 2313 4219 1838 4219 
Q 1578 4219 1281 4162 
Q 984 4106 628 3988 
L 628 4550 
Q 988 4650 1302 4700 
Q 1616 4750 1894 4750 
Q 2613 4750 3031 4423 
Q 3450 4097 3450 3541 
Q 3450 3153 3228 2886 
Q 3006 2619 2597 2516 
z
" transform="scale(0.015625)"/>
       </defs>
       <use xlink:href="#DejaVuSans-31"/>
       <use xlink:href="#DejaVuSans-33" x="63.623047"/>
       <use xlink:href="#DejaVuSans-30" x="127.246094"/>
       <use xlink:href="#DejaVuSans-30" x="190.869141"/>
      </g>
     </g>
    </g>
    <g id="ytick_6">
     <g id="line2d_11">
      <g>
       <use xlink:href="#ma0dc6045ef" x="180" y="470.421824" style="stroke: #000000; stroke-width: 0.8"/>
      </g>
     </g>
     <g id="text_11">
      <!-- 1350 -->
      <g transform="translate(147.55 474.221042) scale(0.1 -0.1)">
       <use xlink:href="#DejaVuSans-31"/>
       <use xlink:href="#DejaVuSans-33" x="63.623047"/>
       <use xlink:href="#DejaVuSans-35" x="127.246094"/>
       <use xlink:href="#DejaVuSans-30" x="190.869141"/>
      </g>
     </g>
    </g>
    <g id="ytick_7">
     <g id="line2d_12">
      <g>
       <use xlink:href="#ma0dc6045ef" x="180" y="415.947456" style="stroke: #000000; stroke-width: 0.8"/>
      </g>
     </g>
     <g id="text_12">
      <!-- 1400 -->
      <g transform="translate(147.55 419.746675) scale(0.1 -0.1)">
       <use xlink:href="#DejaVuSans-31"/>
       <use xlink:href="#DejaVuSans-34" x="63.623047"/>
       <use xlink:href="#DejaVuSans-30" x="127.246094"/>
       <use xlink:href="#DejaVuSans-30" x="190.869141"/>
      </g>
     </g>
    </g>
    <g id="ytick_8">
     <g id="line2d_13">
      <g>
       <use xlink:href="#ma0dc6045ef" x="180" y="361.473088" style="stroke: #000000; stroke-width: 0.8"/>
      </g>
     </g>
     <g id="text_13">
      <!-- 1450 -->
      <g transform="translate(147.55 365.272307) scale(0.1 -0.1)">
       <use xlink:href="#DejaVuSans-31"/>
       <use xlink:href="#DejaVuSans-34" x="63.623047"/>
       <use xlink:href="#DejaVuSans-35" x="127.246094"/>
       <use xlink:href="#DejaVuSans-30" x="190.869141"/>
      </g>
     </g>
    </g>
   </g>
   <g id="LineCollection_1">
    <path d="M 230.727273 510.252621 
L 249.470538 544.06827 
L 267.458389 573.698628 
L 284.784895 599.575253 
L 301.539198 622.090264 
L 317.802787 641.595872 
L 333.645449 658.404651 
L 349.120319 672.791566 
L 364.259259 684.998685 
L 379.070447 695.242771 
L 393.54006 703.724632 
L 407.638679 710.637801 
L 421.331007 716.173887 
L 434.585954 720.523265 
L 447.384081 723.871784 
L 459.720963 726.395587 
L 471.60677 728.256243 
L 483.063493 729.597523 
L 494.121342 730.544121 
L 504.815372 731.201967 
L 515.182831 731.659561 
L 535.087585 732.251968 
L 563.515841 733.061826 
L 581.761201 733.895223 
L 599.674815 735.097076 
L 617.423766 736.692533 
L 635.136472 738.646459 
L 652.906364 740.87442 
L 698.082904 746.754486 
L 716.515788 748.755921 
L 725.810937 749.577372 
L 735.158197 750.242333 
L 744.556144 750.722624 
L 754.002257 750.990038 
L 763.492756 751.016652 
L 773.022452 750.775196 
L 782.584633 750.239456 
L 792.171023 749.384725 
L 801.771835 748.188276 
L 811.37595 746.629816 
L 820.971224 744.69191 
L 830.544912 742.360299 
L 840.08419 739.624112 
L 849.576717 736.47591 
L 859.011194 732.911593 
L 868.377852 728.930162 
L 877.668831 724.533367 
L 886.878423 719.725313 
L 896.003168 714.512041 
L 905.041814 708.901142 
L 913.995179 702.901435 
L 922.865926 696.522726 
L 931.658313 689.775641 
L 940.377915 682.671549 
L 949.031372 675.222539 
L 957.626152 667.441459 
L 966.170358 659.341984 
L 974.672561 650.93871 
L 983.141677 642.247265 
L 991.586867 633.284418 
L 1000.017471 624.068202 
L 1008.442954 614.618022 
L 1016.872874 604.954773 
L 1033.784552 585.080764 
L 1059.438441 554.278182 
L 1076.872452 533.400551 
L 1094.637111 512.606774 
L 1103.666841 502.34143 
L 1112.806532 492.22259 
L 1122.064205 482.297915 
L 1131.447061 472.617959 
L 1140.961273 463.236138 
L 1150.611784 454.208585 
L 1160.402139 445.593855 
L 1170.334428 437.452437 
L 1180.409447 429.846008 
L 1190.627258 422.836428 
L 1200.988368 416.484506 
L 1211.495839 410.848729 
L 1222.158567 405.984329 
L 1232.995798 401.943373 
L 1245.272727 398.424079 
L 1245.272727 398.424079 
" clip-path="url(#p03aecb681f)" style="fill: none; stroke: #1f77b4; stroke-width: 1.5"/>
    <path d="M 257.417441 495.480033 
L 275.560689 528.260094 
L 292.82664 556.756187 
L 309.287685 581.403635 
L 325.011424 602.60568 
L 340.060888 620.735111 
L 354.494769 636.135833 
L 368.367631 649.124386 
L 381.730118 659.991416 
L 394.629157 669.003088 
L 407.108154 676.402457 
L 419.207178 682.410788 
L 430.963147 687.22883 
L 442.41 691.038036 
L 453.578867 694.001748 
L 464.498235 696.26633 
L 475.194099 697.962258 
L 485.690117 699.205167 
L 496.007753 700.096857 
L 506.16642 700.726254 
L 516.18361 701.170336 
L 526.075025 701.495012 
L 535.854699 701.755968 
L 545.535116 701.999475 
L 555.127327 702.263152 
L 564.641051 702.576701 
L 574.084786 702.962608 
L 583.465901 703.436799 
L 592.790736 704.00927 
L 602.064687 704.684687 
L 611.292295 705.462945 
L 620.477324 706.339701 
L 629.622841 707.30688 
L 638.731286 708.353146 
L 647.804547 709.464345 
L 656.844017 710.623924 
L 665.850663 711.813322 
L 674.825084 713.012331 
L 683.767562 714.199441 
L 692.678117 715.35215 
L 701.556557 716.447257 
L 710.402519 717.461134 
L 719.215519 718.369972 
L 727.994986 719.15001 
L 736.740302 719.777741 
L 745.450839 720.230102 
L 754.125989 720.484643 
L 762.765194 720.519684 
L 771.367979 720.314449 
L 779.933972 719.849187 
L 788.462933 719.105285 
L 796.954775 718.065355 
L 805.409586 716.713317 
L 813.827644 715.034471 
L 822.209444 713.015549 
L 830.555705 710.644767 
L 838.86739 707.911863 
L 847.145724 704.808123 
L 855.392201 701.326406 
L 863.608599 697.461161 
L 871.796995 693.208433 
L 879.959773 688.565867 
L 888.099637 683.532715 
L 896.219619 678.109826 
L 904.323094 672.299642 
L 912.413787 666.106196 
L 920.495783 659.5351 
L 928.573542 652.593539 
L 936.651903 645.290267 
L 944.736103 637.635599 
L 952.831783 629.641414 
L 960.945002 621.321155 
L 969.082251 612.689839 
L 977.250468 603.764064 
L 985.457049 594.562035 
L 993.70987 585.103584 
L 1002.0173 575.410209 
L 1010.388221 565.505113 
L 1018.832048 555.413261 
L 1027.358753 545.161439 
L 1035.978887 534.778334 
L 1044.703604 524.294618 
L 1053.544691 513.743051 
L 1062.514597 503.158595 
L 1071.626464 492.578544 
L 1080.89416 482.04267 
L 1090.332318 471.593387 
L 1099.956376 461.27593 
L 1109.782613 451.138553 
L 1119.828201 441.232751 
L 1130.111246 431.613495 
L 1140.650843 422.339492 
L 1151.46713 413.473468 
L 1162.58134 405.082472 
L 1174.015868 397.238204 
L 1185.79433 390.017369 
L 1197.941635 383.502052 
L 1210.484051 377.780127 
L 1223.449288 372.945686 
L 1236.866569 369.0995 
" clip-path="url(#p03aecb681f)" style="fill: none; stroke: #8c564b; stroke-width: 1.5"/>
    <path d="M 284.107609 480.707444 
L 301.961008 512.963825 
L 318.568342 540.372923 
L 334.238353 563.83594 
L 349.016898 583.763476 
L 362.946758 600.544169 
L 376.071477 614.548035 
L 388.440331 626.128452 
L 400.113658 635.621774 
L 411.166934 643.343938 
L 421.691671 649.584537 
L 431.79176 654.600205 
L 441.575626 658.610004 
L 451.14645 661.794917 
L 460.593565 664.301754 
L 469.987326 666.249939 
L 479.378021 667.73892 
L 488.797872 668.854393 
L 498.264605 669.672544 
L 507.785275 670.262413 
L 526.982278 671.002716 
L 565.886589 672.096494 
L 585.335188 672.988479 
L 604.280528 674.259624 
L 614.191033 675.095335 
L 633.104061 677.000519 
L 651.685991 679.206638 
L 678.852158 682.77366 
L 705.160652 686.154978 
L 722.130176 688.003119 
L 730.437051 688.741168 
L 738.623563 689.328789 
L 746.689396 689.747668 
L 754.635283 689.980812 
L 762.46322 690.012563 
L 770.176686 689.828543 
L 777.780828 689.415525 
L 785.282592 688.761216 
L 792.690764 687.853994 
L 800.015898 686.682607 
L 807.270113 685.23587 
L 814.466762 683.502415 
L 821.619991 681.470518 
L 828.744224 679.128052 
L 835.853628 676.46257 
L 842.961617 673.461531 
L 850.080435 670.112621 
L 857.220875 666.404159 
L 864.39213 662.325521 
L 871.601791 657.867544 
L 878.855959 653.022885 
L 886.159448 647.78629 
L 893.516051 642.154791 
L 900.928823 636.127811 
L 908.400369 629.707194 
L 915.933109 622.897193 
L 923.529519 615.704398 
L 931.192333 608.137651 
L 938.924711 600.207952 
L 946.730377 591.928352 
L 954.613727 583.313864 
L 962.579922 574.381379 
L 970.634962 565.149604 
L 987.040137 545.871797 
L 1012.530922 515.26456 
L 1030.272098 494.020454 
L 1039.399739 483.251366 
L 1048.721288 472.430409 
L 1058.255943 461.595039 
L 1068.025 450.785264 
L 1078.0521 440.043946 
L 1088.363522 429.417206 
L 1098.988475 418.954954 
L 1109.959397 408.711586 
L 1121.312181 398.746897 
L 1133.086253 389.127261 
L 1145.324372 379.927125 
L 1158.071921 371.230802 
L 1171.375444 363.134472 
L 1185.280127 355.748122 
L 1199.826019 349.196902 
L 1215.04313 343.621107 
L 1228.460411 339.774921 
L 1228.460411 339.774921 
" clip-path="url(#p03aecb681f)" style="fill: none; stroke: #17becf; stroke-width: 1.5"/>
   </g>
   <g id="patch_3">
    <path d="M 180 771.587587 
L 180 319.212413 
" style="fill: none; stroke: #000000; stroke-width: 0.8; stroke-linejoin: miter; stroke-linecap: square"/>
   </g>
   <g id="patch_4">
    <path d="M 1296 771.587587 
L 1296 319.212413 
" style="fill: none; stroke: #000000; stroke-width: 0.8; stroke-linejoin: miter; stroke-linecap: square"/>
   </g>
   <g id="patch_5">
    <path d="M 180 771.587587 
L 1296 771.587587 
" style="fill: none; stroke: #000000; stroke-width: 0.8; stroke-linejoin: miter; stroke-linecap: square"/>
   </g>
   <g id="patch_6">
    <path d="M 180 319.212413 
L 1296 319.212413 
" style="fill: none; stroke: #000000; stroke-width: 0.8; stroke-linejoin: miter; stroke-linecap: square"/>
   </g>
  </g>
 </g>
 <defs>
  <clipPath id="p03aecb681f">
   <rect x="180" y="319.212413" width="1116" height="452.375174"/>
  </clipPath>
 </defs>
</svg>
