<?xml version="1.0" encoding="utf-8" standalone="no"?>
<!DOCTYPE svg PUBLIC "-//W3C//DTD SVG 1.1//EN"
  "http://www.w3.org/Graphics/SVG/1.1/DTD/svg11.dtd">
<svg xmlns:xlink="http://www.w3.org/1999/xlink" width="1440pt" height="1080pt" viewBox="0 0 1440 1080" xmlns="http://www.w3.org/2000/svg" version="1.1">
 <metadata>
  <rdf:RDF xmlns:dc="http://purl.org/dc/elements/1.1/" xmlns:cc="http://creativecommons.org/ns#" xmlns:rdf="http://www.w3.org/1999/02/22-rdf-syntax-ns#">
   <cc:Work>
    <dc:type rdf:resource="http://purl.org/dc/dcmitype/StillImage"/>
    <dc:date>2023-12-11T12:06:45.067004</dc:date>
    <dc:format>image/svg+xml</dc:format>
    <dc:creator>
     <cc:Agent>
      <dc:title>Matplotlib v3.7.1, https://matplotlib.org/</dc:title>
     </cc:Agent>
    </dc:creator>
   </cc:Work>
  </rdf:RDF>
 </metadata>
 <defs>
  <style type="text/css">*{stroke-linejoin: round; stroke-linecap: butt}</style>
 </defs>
 <g id="figure_1">
  <g id="patch_1">
   <path d="M 0 1080 
L 1440 1080 
L 1440 0 
L 0 0 
z
" style="fill: #ffffff"/>
  </g>
  <g id="axes_1">
   <g id="patch_2">
    <path d="M 180 869.60546 
L 1296 869.60546 
L 1296 221.19454 
L 180 221.19454 
z
" style="fill: #ffffff"/>
   </g>
   <g id="matplotlib.axis_1">
    <g id="xtick_1">
     <g id="line2d_1">
      <defs>
       <path id="m15edc70b98" d="M 0 0 
L 0 3.5 
" style="stroke: #000000; stroke-width: 0.8"/>
      </defs>
      <g>
       <use xlink:href="#m15edc70b98" x="266.215809" y="869.60546" style="stroke: #000000; stroke-width: 0.8"/>
      </g>
     </g>
     <g id="text_1">
      <!-- 1000 -->
      <g transform="translate(253.490809 884.203897) scale(0.1 -0.1)">
       <defs>
        <path id="DejaVuSans-31" d="M 794 531 
L 1825 531 
L 1825 4091 
L 703 3866 
L 703 4441 
L 1819 4666 
L 2450 4666 
L 2450 531 
L 3481 531 
L 3481 0 
L 794 0 
L 794 531 
z
" transform="scale(0.015625)"/>
        <path id="DejaVuSans-30" d="M 2034 4250 
Q 1547 4250 1301 3770 
Q 1056 3291 1056 2328 
Q 1056 1369 1301 889 
Q 1547 409 2034 409 
Q 2525 409 2770 889 
Q 3016 1369 3016 2328 
Q 3016 3291 2770 3770 
Q 2525 4250 2034 4250 
z
M 2034 4750 
Q 2819 4750 3233 4129 
Q 3647 3509 3647 2328 
Q 3647 1150 3233 529 
Q 2819 -91 2034 -91 
Q 1250 -91 836 529 
Q 422 1150 422 2328 
Q 422 3509 836 4129 
Q 1250 4750 2034 4750 
z
" transform="scale(0.015625)"/>
       </defs>
       <use xlink:href="#DejaVuSans-31"/>
       <use xlink:href="#DejaVuSans-30" x="63.623047"/>
       <use xlink:href="#DejaVuSans-30" x="127.246094"/>
       <use xlink:href="#DejaVuSans-30" x="190.869141"/>
      </g>
     </g>
    </g>
    <g id="xtick_2">
     <g id="line2d_2">
      <g>
       <use xlink:href="#m15edc70b98" x="431.051594" y="869.60546" style="stroke: #000000; stroke-width: 0.8"/>
      </g>
     </g>
     <g id="text_2">
      <!-- 1100 -->
      <g transform="translate(418.326594 884.203897) scale(0.1 -0.1)">
       <use xlink:href="#DejaVuSans-31"/>
       <use xlink:href="#DejaVuSans-31" x="63.623047"/>
       <use xlink:href="#DejaVuSans-30" x="127.246094"/>
       <use xlink:href="#DejaVuSans-30" x="190.869141"/>
      </g>
     </g>
    </g>
    <g id="xtick_3">
     <g id="line2d_3">
      <g>
       <use xlink:href="#m15edc70b98" x="595.887379" y="869.60546" style="stroke: #000000; stroke-width: 0.8"/>
      </g>
     </g>
     <g id="text_3">
      <!-- 1200 -->
      <g transform="translate(583.162379 884.203897) scale(0.1 -0.1)">
       <defs>
        <path id="DejaVuSans-32" d="M 1228 531 
L 3431 531 
L 3431 0 
L 469 0 
L 469 531 
Q 828 903 1448 1529 
Q 2069 2156 2228 2338 
Q 2531 2678 2651 2914 
Q 2772 3150 2772 3378 
Q 2772 3750 2511 3984 
Q 2250 4219 1831 4219 
Q 1534 4219 1204 4116 
Q 875 4013 500 3803 
L 500 4441 
Q 881 4594 1212 4672 
Q 1544 4750 1819 4750 
Q 2544 4750 2975 4387 
Q 3406 4025 3406 3419 
Q 3406 3131 3298 2873 
Q 3191 2616 2906 2266 
Q 2828 2175 2409 1742 
Q 1991 1309 1228 531 
z
" transform="scale(0.015625)"/>
       </defs>
       <use xlink:href="#DejaVuSans-31"/>
       <use xlink:href="#DejaVuSans-32" x="63.623047"/>
       <use xlink:href="#DejaVuSans-30" x="127.246094"/>
       <use xlink:href="#DejaVuSans-30" x="190.869141"/>
      </g>
     </g>
    </g>
    <g id="xtick_4">
     <g id="line2d_4">
      <g>
       <use xlink:href="#m15edc70b98" x="760.723164" y="869.60546" style="stroke: #000000; stroke-width: 0.8"/>
      </g>
     </g>
     <g id="text_4">
      <!-- 1300 -->
      <g transform="translate(747.998164 884.203897) scale(0.1 -0.1)">
       <defs>
        <path id="DejaVuSans-33" d="M 2597 2516 
Q 3050 2419 3304 2112 
Q 3559 1806 3559 1356 
Q 3559 666 3084 287 
Q 2609 -91 1734 -91 
Q 1441 -91 1130 -33 
Q 819 25 488 141 
L 488 750 
Q 750 597 1062 519 
Q 1375 441 1716 441 
Q 2309 441 2620 675 
Q 2931 909 2931 1356 
Q 2931 1769 2642 2001 
Q 2353 2234 1838 2234 
L 1294 2234 
L 1294 2753 
L 1863 2753 
Q 2328 2753 2575 2939 
Q 2822 3125 2822 3475 
Q 2822 3834 2567 4026 
Q 2313 4219 1838 4219 
Q 1578 4219 1281 4162 
Q 984 4106 628 3988 
L 628 4550 
Q 988 4650 1302 4700 
Q 1616 4750 1894 4750 
Q 2613 4750 3031 4423 
Q 3450 4097 3450 3541 
Q 3450 3153 3228 2886 
Q 3006 2619 2597 2516 
z
" transform="scale(0.015625)"/>
       </defs>
       <use xlink:href="#DejaVuSans-31"/>
       <use xlink:href="#DejaVuSans-33" x="63.623047"/>
       <use xlink:href="#DejaVuSans-30" x="127.246094"/>
       <use xlink:href="#DejaVuSans-30" x="190.869141"/>
      </g>
     </g>
    </g>
    <g id="xtick_5">
     <g id="line2d_5">
      <g>
       <use xlink:href="#m15edc70b98" x="925.55895" y="869.60546" style="stroke: #000000; stroke-width: 0.8"/>
      </g>
     </g>
     <g id="text_5">
      <!-- 1400 -->
      <g transform="translate(912.83395 884.203897) scale(0.1 -0.1)">
       <defs>
        <path id="DejaVuSans-34" d="M 2419 4116 
L 825 1625 
L 2419 1625 
L 2419 4116 
z
M 2253 4666 
L 3047 4666 
L 3047 1625 
L 3713 1625 
L 3713 1100 
L 3047 1100 
L 3047 0 
L 2419 0 
L 2419 1100 
L 313 1100 
L 313 1709 
L 2253 4666 
z
" transform="scale(0.015625)"/>
       </defs>
       <use xlink:href="#DejaVuSans-31"/>
       <use xlink:href="#DejaVuSans-34" x="63.623047"/>
       <use xlink:href="#DejaVuSans-30" x="127.246094"/>
       <use xlink:href="#DejaVuSans-30" x="190.869141"/>
      </g>
     </g>
    </g>
    <g id="xtick_6">
     <g id="line2d_6">
      <g>
       <use xlink:href="#m15edc70b98" x="1090.394735" y="869.60546" style="stroke: #000000; stroke-width: 0.8"/>
      </g>
     </g>
     <g id="text_6">
      <!-- 1500 -->
      <g transform="translate(1077.669735 884.203897) scale(0.1 -0.1)">
       <defs>
        <path id="DejaVuSans-35" d="M 691 4666 
L 3169 4666 
L 3169 4134 
L 1269 4134 
L 1269 2991 
Q 1406 3038 1543 3061 
Q 1681 3084 1819 3084 
Q 2600 3084 3056 2656 
Q 3513 2228 3513 1497 
Q 3513 744 3044 326 
Q 2575 -91 1722 -91 
Q 1428 -91 1123 -41 
Q 819 9 494 109 
L 494 744 
Q 775 591 1075 516 
Q 1375 441 1709 441 
Q 2250 441 2565 725 
Q 2881 1009 2881 1497 
Q 2881 1984 2565 2268 
Q 2250 2553 1709 2553 
Q 1456 2553 1204 2497 
Q 953 2441 691 2322 
L 691 4666 
z
" transform="scale(0.015625)"/>
       </defs>
       <use xlink:href="#DejaVuSans-31"/>
       <use xlink:href="#DejaVuSans-35" x="63.623047"/>
       <use xlink:href="#DejaVuSans-30" x="127.246094"/>
       <use xlink:href="#DejaVuSans-30" x="190.869141"/>
      </g>
     </g>
    </g>
    <g id="xtick_7">
     <g id="line2d_7">
      <g>
       <use xlink:href="#m15edc70b98" x="1255.23052" y="869.60546" style="stroke: #000000; stroke-width: 0.8"/>
      </g>
     </g>
     <g id="text_7">
      <!-- 1600 -->
      <g transform="translate(1242.50552 884.203897) scale(0.1 -0.1)">
       <defs>
        <path id="DejaVuSans-36" d="M 2113 2584 
Q 1688 2584 1439 2293 
Q 1191 2003 1191 1497 
Q 1191 994 1439 701 
Q 1688 409 2113 409 
Q 2538 409 2786 701 
Q 3034 994 3034 1497 
Q 3034 2003 2786 2293 
Q 2538 2584 2113 2584 
z
M 3366 4563 
L 3366 3988 
Q 3128 4100 2886 4159 
Q 2644 4219 2406 4219 
Q 1781 4219 1451 3797 
Q 1122 3375 1075 2522 
Q 1259 2794 1537 2939 
Q 1816 3084 2150 3084 
Q 2853 3084 3261 2657 
Q 3669 2231 3669 1497 
Q 3669 778 3244 343 
Q 2819 -91 2113 -91 
Q 1303 -91 875 529 
Q 447 1150 447 2328 
Q 447 3434 972 4092 
Q 1497 4750 2381 4750 
Q 2619 4750 2861 4703 
Q 3103 4656 3366 4563 
z
" transform="scale(0.015625)"/>
       </defs>
       <use xlink:href="#DejaVuSans-31"/>
       <use xlink:href="#DejaVuSans-36" x="63.623047"/>
       <use xlink:href="#DejaVuSans-30" x="127.246094"/>
       <use xlink:href="#DejaVuSans-30" x="190.869141"/>
      </g>
     </g>
    </g>
   </g>
   <g id="matplotlib.axis_2">
    <g id="ytick_1">
     <g id="line2d_8">
      <defs>
       <path id="mc18307bc20" d="M 0 0 
L -3.5 0 
" style="stroke: #000000; stroke-width: 0.8"/>
      </defs>
      <g>
       <use xlink:href="#mc18307bc20" x="180" y="832.923395" style="stroke: #000000; stroke-width: 0.8"/>
      </g>
     </g>
     <g id="text_8">
      <!-- 500 -->
      <g transform="translate(153.9125 836.722614) scale(0.1 -0.1)">
       <use xlink:href="#DejaVuSans-35"/>
       <use xlink:href="#DejaVuSans-30" x="63.623047"/>
       <use xlink:href="#DejaVuSans-30" x="127.246094"/>
      </g>
     </g>
    </g>
    <g id="ytick_2">
     <g id="line2d_9">
      <g>
       <use xlink:href="#mc18307bc20" x="180" y="750.505502" style="stroke: #000000; stroke-width: 0.8"/>
      </g>
     </g>
     <g id="text_9">
      <!-- 550 -->
      <g transform="translate(153.9125 754.304721) scale(0.1 -0.1)">
       <use xlink:href="#DejaVuSans-35"/>
       <use xlink:href="#DejaVuSans-35" x="63.623047"/>
       <use xlink:href="#DejaVuSans-30" x="127.246094"/>
      </g>
     </g>
    </g>
    <g id="ytick_3">
     <g id="line2d_10">
      <g>
       <use xlink:href="#mc18307bc20" x="180" y="668.08761" style="stroke: #000000; stroke-width: 0.8"/>
      </g>
     </g>
     <g id="text_10">
      <!-- 600 -->
      <g transform="translate(153.9125 671.886829) scale(0.1 -0.1)">
       <use xlink:href="#DejaVuSans-36"/>
       <use xlink:href="#DejaVuSans-30" x="63.623047"/>
       <use xlink:href="#DejaVuSans-30" x="127.246094"/>
      </g>
     </g>
    </g>
    <g id="ytick_4">
     <g id="line2d_11">
      <g>
       <use xlink:href="#mc18307bc20" x="180" y="585.669717" style="stroke: #000000; stroke-width: 0.8"/>
      </g>
     </g>
     <g id="text_11">
      <!-- 650 -->
      <g transform="translate(153.9125 589.468936) scale(0.1 -0.1)">
       <use xlink:href="#DejaVuSans-36"/>
       <use xlink:href="#DejaVuSans-35" x="63.623047"/>
       <use xlink:href="#DejaVuSans-30" x="127.246094"/>
      </g>
     </g>
    </g>
    <g id="ytick_5">
     <g id="line2d_12">
      <g>
       <use xlink:href="#mc18307bc20" x="180" y="503.251824" style="stroke: #000000; stroke-width: 0.8"/>
      </g>
     </g>
     <g id="text_12">
      <!-- 700 -->
      <g transform="translate(153.9125 507.051043) scale(0.1 -0.1)">
       <defs>
        <path id="DejaVuSans-37" d="M 525 4666 
L 3525 4666 
L 3525 4397 
L 1831 0 
L 1172 0 
L 2766 4134 
L 525 4134 
L 525 4666 
z
" transform="scale(0.015625)"/>
       </defs>
       <use xlink:href="#DejaVuSans-37"/>
       <use xlink:href="#DejaVuSans-30" x="63.623047"/>
       <use xlink:href="#DejaVuSans-30" x="127.246094"/>
      </g>
     </g>
    </g>
    <g id="ytick_6">
     <g id="line2d_13">
      <g>
       <use xlink:href="#mc18307bc20" x="180" y="420.833932" style="stroke: #000000; stroke-width: 0.8"/>
      </g>
     </g>
     <g id="text_13">
      <!-- 750 -->
      <g transform="translate(153.9125 424.633151) scale(0.1 -0.1)">
       <use xlink:href="#DejaVuSans-37"/>
       <use xlink:href="#DejaVuSans-35" x="63.623047"/>
       <use xlink:href="#DejaVuSans-30" x="127.246094"/>
      </g>
     </g>
    </g>
    <g id="ytick_7">
     <g id="line2d_14">
      <g>
       <use xlink:href="#mc18307bc20" x="180" y="338.416039" style="stroke: #000000; stroke-width: 0.8"/>
      </g>
     </g>
     <g id="text_14">
      <!-- 800 -->
      <g transform="translate(153.9125 342.215258) scale(0.1 -0.1)">
       <defs>
        <path id="DejaVuSans-38" d="M 2034 2216 
Q 1584 2216 1326 1975 
Q 1069 1734 1069 1313 
Q 1069 891 1326 650 
Q 1584 409 2034 409 
Q 2484 409 2743 651 
Q 3003 894 3003 1313 
Q 3003 1734 2745 1975 
Q 2488 2216 2034 2216 
z
M 1403 2484 
Q 997 2584 770 2862 
Q 544 3141 544 3541 
Q 544 4100 942 4425 
Q 1341 4750 2034 4750 
Q 2731 4750 3128 4425 
Q 3525 4100 3525 3541 
Q 3525 3141 3298 2862 
Q 3072 2584 2669 2484 
Q 3125 2378 3379 2068 
Q 3634 1759 3634 1313 
Q 3634 634 3220 271 
Q 2806 -91 2034 -91 
Q 1263 -91 848 271 
Q 434 634 434 1313 
Q 434 1759 690 2068 
Q 947 2378 1403 2484 
z
M 1172 3481 
Q 1172 3119 1398 2916 
Q 1625 2713 2034 2713 
Q 2441 2713 2670 2916 
Q 2900 3119 2900 3481 
Q 2900 3844 2670 4047 
Q 2441 4250 2034 4250 
Q 1625 4250 1398 4047 
Q 1172 3844 1172 3481 
z
" transform="scale(0.015625)"/>
       </defs>
       <use xlink:href="#DejaVuSans-38"/>
       <use xlink:href="#DejaVuSans-30" x="63.623047"/>
       <use xlink:href="#DejaVuSans-30" x="127.246094"/>
      </g>
     </g>
    </g>
    <g id="ytick_8">
     <g id="line2d_15">
      <g>
       <use xlink:href="#mc18307bc20" x="180" y="255.998147" style="stroke: #000000; stroke-width: 0.8"/>
      </g>
     </g>
     <g id="text_15">
      <!-- 850 -->
      <g transform="translate(153.9125 259.797365) scale(0.1 -0.1)">
       <use xlink:href="#DejaVuSans-38"/>
       <use xlink:href="#DejaVuSans-35" x="63.623047"/>
       <use xlink:href="#DejaVuSans-30" x="127.246094"/>
      </g>
     </g>
    </g>
   </g>
   <g id="LineCollection_1">
    <path d="M 1245.272727 835.604701 
L 1242.123619 782.985805 
L 1238.686692 733.186558 
L 1234.940236 686.212056 
L 1230.86552 642.051091 
L 1226.446232 600.677028 
L 1221.667789 562.048585 
L 1216.5165 526.11052 
L 1210.978491 492.794244 
L 1205.038288 462.018408 
L 1198.676957 433.689583 
L 1191.869619 407.703249 
L 1184.582233 383.945523 
L 1176.76765 362.296408 
L 1168.361385 342.635794 
L 1160.709467 327.439551 
L 1159.278586 324.853985 
L 1151.33754 311.738751 
L 1149.41565 308.868441 
L 1141.198718 297.729947 
L 1138.662726 294.646383 
L 1130.184025 285.378215 
L 1126.934681 282.226676 
L 1118.209051 274.720905 
L 1114.222108 271.724104 
L 1105.264971 265.871885 
L 1100.644531 263.294085 
L 1091.471755 258.98622 
L 1086.465347 257.054589 
L 1077.093121 254.182063 
L 1072.036829 253.004137 
L 1062.481535 251.458613 
L 1057.697529 250.993473 
L 1047.975637 250.667764 
L 1043.687651 250.766863 
L 1033.815602 251.555369 
L 1030.12488 252.033397 
L 1020.118995 253.832516 
L 1017.029725 254.522243 
L 1004.366504 258.006466 
L 992.077013 262.304064 
L 980.10082 267.269342 
L 968.384787 272.782896 
L 956.886161 278.743519 
L 945.572477 285.062574 
L 934.42019 291.660419 
L 923.412976 298.464278 
L 912.54013 305.407037 
L 891.174757 319.465739 
L 859.968691 340.254471 
L 839.772874 353.382506 
L 829.869862 359.620497 
L 820.096902 365.608362 
L 810.452886 371.32779 
L 800.935356 376.765439 
L 791.540213 381.912818 
L 782.261461 386.766113 
L 773.091002 391.325939 
L 764.018497 395.597022 
L 755.031325 399.587833 
L 746.114637 403.310179 
L 737.251537 406.778775 
L 728.423375 410.010837 
L 719.610147 413.025717 
L 710.790977 415.844598 
L 701.944644 418.490281 
L 693.050125 420.987035 
L 684.08711 423.36053 
L 665.880645 427.847224 
L 607.823638 441.460067 
L 597.577636 444.087524 
L 587.171415 446.900574 
L 576.607946 449.927515 
L 565.891472 453.193891 
L 555.027091 456.721938 
L 544.020347 460.530112 
L 532.876836 464.632709 
L 521.601888 469.039565 
L 510.200346 473.755825 
L 498.676464 478.781742 
L 487.033922 484.112503 
L 475.275969 489.738029 
L 463.405668 495.642747 
L 451.426234 501.805323 
L 439.341443 508.198342 
L 414.876597 521.533493 
L 377.464719 542.247456 
L 364.85474 549.096567 
L 352.219416 555.785319 
L 339.587411 562.225181 
L 326.994584 568.319785 
L 314.485264 573.965961 
L 302.11341 579.055643 
L 289.943194 583.479021 
L 278.048114 587.129299 
L 266.50698 589.909144 
L 255.39434 591.73787 
L 244.762624 592.556268 
L 232.473315 592.273202 
L 232.473315 592.273202 
" clip-path="url(#p3db96b87c7)" style="fill: none; stroke: #1f77b4; stroke-width: 1.5"/>
    <path d="M 1207.428143 837.868469 
L 1204.301246 785.5945 
L 1200.894281 736.198345 
L 1197.188061 689.692077 
L 1193.167221 646.072965 
L 1188.819951 605.324634 
L 1184.137738 567.418178 
L 1179.115117 532.313241 
L 1173.749432 499.95905 
L 1168.040606 470.295407 
L 1161.990914 443.253654 
L 1155.604776 418.757586 
L 1148.888547 396.724332 
L 1141.85032 377.065202 
L 1134.499741 359.686491 
L 1126.847823 344.490248 
L 1118.906776 331.375015 
L 1110.689845 320.23652 
L 1102.211143 310.968352 
L 1093.485513 303.46258 
L 1084.528376 297.610361 
L 1075.3556 293.302496 
L 1065.983374 290.42997 
L 1056.42808 288.884445 
L 1046.706187 288.558736 
L 1036.834139 289.347242 
L 1026.828254 291.146362 
L 1016.704633 293.854866 
L 1006.479069 297.374252 
L 996.166967 301.609058 
L 985.783271 306.467165 
L 975.342388 311.860054 
L 964.858133 317.70305 
L 954.343666 323.915533 
L 943.81144 330.421123 
L 933.273158 337.147843 
L 922.73973 344.028257 
L 912.221234 350.999579 
L 901.726893 358.003766 
L 891.265041 364.987582 
L 880.843109 371.902641 
L 870.467603 378.705431 
L 860.144099 385.357313 
L 849.877231 391.8245 
L 839.670691 398.078018 
L 829.527231 404.093645 
L 819.448667 409.851829 
L 809.435891 415.337594 
L 799.488884 420.540424 
L 789.606734 425.454123 
L 779.787656 430.076672 
L 770.029019 434.410058 
L 760.32737 438.460092 
L 750.678471 442.236212 
L 741.07733 445.751268 
L 731.518236 449.021297 
L 721.994807 452.065283 
L 712.500023 454.904898 
L 703.026282 457.564244 
L 693.56544 460.069568 
L 684.108865 462.448977 
L 674.647492 464.732134 
L 665.171872 466.949948 
L 655.672234 469.134255 
L 646.138544 471.317487 
L 636.560559 473.532335 
L 626.927898 475.8114 
L 617.230099 478.186838 
L 607.456686 480.690005 
L 597.597236 483.351081 
L 587.641447 486.198703 
L 577.579201 489.259584 
L 567.40064 492.558128 
L 557.096232 496.116042 
L 546.656843 499.951948 
L 536.073804 504.080982 
L 525.338988 508.514403 
L 514.444878 513.259189 
L 503.38464 518.317639 
L 492.152192 523.686966 
L 480.742278 529.358904 
L 469.150539 535.319294 
L 457.373581 541.547693 
L 445.40905 548.016966 
L 433.255696 554.692895 
L 420.913445 561.533774 
L 408.383465 568.490025 
L 395.668234 575.503801 
L 382.771608 582.508605 
L 369.698877 589.428906 
L 356.456839 596.179767 
L 343.053851 602.666467 
L 329.499897 608.784147 
L 315.806638 614.417444 
L 301.987476 619.440146 
L 288.057601 623.714849 
L 274.034046 627.092619 
L 259.935737 629.412676 
L 245.783537 630.502069 
L 231.600294 630.175379 
" clip-path="url(#p3db96b87c7)" style="fill: none; stroke: #8c564b; stroke-width: 1.5"/>
    <path d="M 1169.583558 840.132236 
L 1166.466981 788.030782 
L 1163.085814 739.008666 
L 1159.414317 692.938106 
L 1155.440039 649.824107 
L 1151.155062 609.659673 
L 1146.556104 572.42724 
L 1141.644768 538.100114 
L 1136.42801 506.643924 
L 1130.918903 478.018043 
L 1125.13781 452.176911 
L 1119.114111 429.071092 
L 1112.888618 408.647749 
L 1106.51677 390.849944 
L 1100.0724 375.613749 
L 1093.651197 362.861632 
L 1087.371509 352.490256 
L 1081.367674 344.351733 
L 1075.768694 338.231422 
L 1070.656669 333.834068 
L 1066.011844 330.799333 
L 1061.674126 328.762185 
L 1057.361352 327.440348 
L 1052.751855 326.694783 
L 1047.583538 326.521631 
L 1041.709782 326.990783 
L 1035.096557 328.179882 
L 1027.786553 330.135623 
L 1019.860485 332.863578 
L 1011.409825 336.333958 
L 1002.522005 340.492205 
L 993.274238 345.268831 
L 983.732077 350.586787 
L 973.950125 356.366463 
L 963.973513 362.528859 
L 953.839472 368.997547 
L 933.216803 382.567396 
L 901.630792 403.607679 
L 880.350644 417.435854 
L 869.683882 424.151483 
L 859.009587 430.686979 
L 848.334514 437.012079 
L 837.665053 443.100896 
L 827.007531 448.93186 
L 816.368473 454.487687 
L 805.754816 459.755386 
L 795.174044 464.726293 
L 784.634244 469.396121 
L 774.144035 473.765007 
L 763.712404 477.83753 
L 753.348424 481.62267 
L 743.060882 485.133685 
L 732.857848 488.387887 
L 722.746225 491.406303 
L 712.731301 494.213252 
L 702.816354 496.835828 
L 683.287527 501.646725 
L 626.443487 514.963059 
L 617.099842 517.356153 
L 607.750241 519.879621 
L 598.371857 522.56209 
L 588.940745 525.430984 
L 579.432374 528.51234 
L 569.82218 531.830556 
L 560.086113 535.408028 
L 550.201131 539.264712 
L 540.145618 543.417585 
L 529.899685 547.880066 
L 519.44536 552.661398 
L 508.766649 557.766029 
L 497.849485 563.193017 
L 486.681578 568.935476 
L 475.252182 574.980062 
L 451.571784 587.887222 
L 413.763389 608.819002 
L 400.509162 616.015565 
L 386.918171 623.205128 
L 372.972781 630.30543 
L 358.650693 637.221869 
L 343.923798 643.845355 
L 328.757306 650.049136 
L 313.109796 655.684198 
L 296.935401 660.572981 
L 280.190187 664.501698 
L 266.091877 666.821754 
L 262.845497 667.21308 
L 248.693297 668.302473 
L 244.910516 668.404247 
L 230.727273 668.077557 
L 230.727273 668.077557 
" clip-path="url(#p3db96b87c7)" style="fill: none; stroke: #17becf; stroke-width: 1.5"/>
   </g>
   <g id="patch_3">
    <path d="M 180 869.60546 
L 180 221.19454 
" style="fill: none; stroke: #000000; stroke-width: 0.8; stroke-linejoin: miter; stroke-linecap: square"/>
   </g>
   <g id="patch_4">
    <path d="M 1296 869.60546 
L 1296 221.19454 
" style="fill: none; stroke: #000000; stroke-width: 0.8; stroke-linejoin: miter; stroke-linecap: square"/>
   </g>
   <g id="patch_5">
    <path d="M 180 869.60546 
L 1296 869.60546 
" style="fill: none; stroke: #000000; stroke-width: 0.8; stroke-linejoin: miter; stroke-linecap: square"/>
   </g>
   <g id="patch_6">
    <path d="M 180 221.19454 
L 1296 221.19454 
" style="fill: none; stroke: #000000; stroke-width: 0.8; stroke-linejoin: miter; stroke-linecap: square"/>
   </g>
  </g>
 </g>
 <defs>
  <clipPath id="p3db96b87c7">
   <rect x="180" y="221.19454" width="1116" height="648.410919"/>
  </clipPath>
 </defs>
</svg>
