<?xml version="1.0" encoding="utf-8" standalone="no"?>
<!DOCTYPE svg PUBLIC "-//W3C//DTD SVG 1.1//EN"
  "http://www.w3.org/Graphics/SVG/1.1/DTD/svg11.dtd">
<svg xmlns:xlink="http://www.w3.org/1999/xlink" width="1440pt" height="1080pt" viewBox="0 0 1440 1080" xmlns="http://www.w3.org/2000/svg" version="1.1">
 <metadata>
  <rdf:RDF xmlns:dc="http://purl.org/dc/elements/1.1/" xmlns:cc="http://creativecommons.org/ns#" xmlns:rdf="http://www.w3.org/1999/02/22-rdf-syntax-ns#">
   <cc:Work>
    <dc:type rdf:resource="http://purl.org/dc/dcmitype/StillImage"/>
    <dc:date>2023-12-11T12:06:42.852715</dc:date>
    <dc:format>image/svg+xml</dc:format>
    <dc:creator>
     <cc:Agent>
      <dc:title>Matplotlib v3.7.1, https://matplotlib.org/</dc:title>
     </cc:Agent>
    </dc:creator>
   </cc:Work>
  </rdf:RDF>
 </metadata>
 <defs>
  <style type="text/css">*{stroke-linejoin: round; stroke-linecap: butt}</style>
 </defs>
 <g id="figure_1">
  <g id="patch_1">
   <path d="M 0 1080 
L 1440 1080 
L 1440 0 
L 0 0 
z
" style="fill: #ffffff"/>
  </g>
  <g id="axes_1">
   <g id="patch_2">
    <path d="M 180 732.983803 
L 1296 732.983803 
L 1296 357.816197 
L 180 357.816197 
z
" style="fill: #ffffff"/>
   </g>
   <g id="matplotlib.axis_1">
    <g id="xtick_1">
     <g id="line2d_1">
      <defs>
       <path id="m79bb79cbfb" d="M 0 0 
L 0 3.5 
" style="stroke: #000000; stroke-width: 0.8"/>
      </defs>
      <g>
       <use xlink:href="#m79bb79cbfb" x="229.658789" y="732.983803" style="stroke: #000000; stroke-width: 0.8"/>
      </g>
     </g>
     <g id="text_1">
      <!-- 0 -->
      <g transform="translate(226.477539 747.582241) scale(0.1 -0.1)">
       <defs>
        <path id="DejaVuSans-30" d="M 2034 4250 
Q 1547 4250 1301 3770 
Q 1056 3291 1056 2328 
Q 1056 1369 1301 889 
Q 1547 409 2034 409 
Q 2525 409 2770 889 
Q 3016 1369 3016 2328 
Q 3016 3291 2770 3770 
Q 2525 4250 2034 4250 
z
M 2034 4750 
Q 2819 4750 3233 4129 
Q 3647 3509 3647 2328 
Q 3647 1150 3233 529 
Q 2819 -91 2034 -91 
Q 1250 -91 836 529 
Q 422 1150 422 2328 
Q 422 3509 836 4129 
Q 1250 4750 2034 4750 
z
" transform="scale(0.015625)"/>
       </defs>
       <use xlink:href="#DejaVuSans-30"/>
      </g>
     </g>
    </g>
    <g id="xtick_2">
     <g id="line2d_2">
      <g>
       <use xlink:href="#m79bb79cbfb" x="427.369561" y="732.983803" style="stroke: #000000; stroke-width: 0.8"/>
      </g>
     </g>
     <g id="text_2">
      <!-- 200 -->
      <g transform="translate(417.825811 747.582241) scale(0.1 -0.1)">
       <defs>
        <path id="DejaVuSans-32" d="M 1228 531 
L 3431 531 
L 3431 0 
L 469 0 
L 469 531 
Q 828 903 1448 1529 
Q 2069 2156 2228 2338 
Q 2531 2678 2651 2914 
Q 2772 3150 2772 3378 
Q 2772 3750 2511 3984 
Q 2250 4219 1831 4219 
Q 1534 4219 1204 4116 
Q 875 4013 500 3803 
L 500 4441 
Q 881 4594 1212 4672 
Q 1544 4750 1819 4750 
Q 2544 4750 2975 4387 
Q 3406 4025 3406 3419 
Q 3406 3131 3298 2873 
Q 3191 2616 2906 2266 
Q 2828 2175 2409 1742 
Q 1991 1309 1228 531 
z
" transform="scale(0.015625)"/>
       </defs>
       <use xlink:href="#DejaVuSans-32"/>
       <use xlink:href="#DejaVuSans-30" x="63.623047"/>
       <use xlink:href="#DejaVuSans-30" x="127.246094"/>
      </g>
     </g>
    </g>
    <g id="xtick_3">
     <g id="line2d_3">
      <g>
       <use xlink:href="#m79bb79cbfb" x="625.080332" y="732.983803" style="stroke: #000000; stroke-width: 0.8"/>
      </g>
     </g>
     <g id="text_3">
      <!-- 400 -->
      <g transform="translate(615.536582 747.582241) scale(0.1 -0.1)">
       <defs>
        <path id="DejaVuSans-34" d="M 2419 4116 
L 825 1625 
L 2419 1625 
L 2419 4116 
z
M 2253 4666 
L 3047 4666 
L 3047 1625 
L 3713 1625 
L 3713 1100 
L 3047 1100 
L 3047 0 
L 2419 0 
L 2419 1100 
L 313 1100 
L 313 1709 
L 2253 4666 
z
" transform="scale(0.015625)"/>
       </defs>
       <use xlink:href="#DejaVuSans-34"/>
       <use xlink:href="#DejaVuSans-30" x="63.623047"/>
       <use xlink:href="#DejaVuSans-30" x="127.246094"/>
      </g>
     </g>
    </g>
    <g id="xtick_4">
     <g id="line2d_4">
      <g>
       <use xlink:href="#m79bb79cbfb" x="822.791104" y="732.983803" style="stroke: #000000; stroke-width: 0.8"/>
      </g>
     </g>
     <g id="text_4">
      <!-- 600 -->
      <g transform="translate(813.247354 747.582241) scale(0.1 -0.1)">
       <defs>
        <path id="DejaVuSans-36" d="M 2113 2584 
Q 1688 2584 1439 2293 
Q 1191 2003 1191 1497 
Q 1191 994 1439 701 
Q 1688 409 2113 409 
Q 2538 409 2786 701 
Q 3034 994 3034 1497 
Q 3034 2003 2786 2293 
Q 2538 2584 2113 2584 
z
M 3366 4563 
L 3366 3988 
Q 3128 4100 2886 4159 
Q 2644 4219 2406 4219 
Q 1781 4219 1451 3797 
Q 1122 3375 1075 2522 
Q 1259 2794 1537 2939 
Q 1816 3084 2150 3084 
Q 2853 3084 3261 2657 
Q 3669 2231 3669 1497 
Q 3669 778 3244 343 
Q 2819 -91 2113 -91 
Q 1303 -91 875 529 
Q 447 1150 447 2328 
Q 447 3434 972 4092 
Q 1497 4750 2381 4750 
Q 2619 4750 2861 4703 
Q 3103 4656 3366 4563 
z
" transform="scale(0.015625)"/>
       </defs>
       <use xlink:href="#DejaVuSans-36"/>
       <use xlink:href="#DejaVuSans-30" x="63.623047"/>
       <use xlink:href="#DejaVuSans-30" x="127.246094"/>
      </g>
     </g>
    </g>
    <g id="xtick_5">
     <g id="line2d_5">
      <g>
       <use xlink:href="#m79bb79cbfb" x="1020.501875" y="732.983803" style="stroke: #000000; stroke-width: 0.8"/>
      </g>
     </g>
     <g id="text_5">
      <!-- 800 -->
      <g transform="translate(1010.958125 747.582241) scale(0.1 -0.1)">
       <defs>
        <path id="DejaVuSans-38" d="M 2034 2216 
Q 1584 2216 1326 1975 
Q 1069 1734 1069 1313 
Q 1069 891 1326 650 
Q 1584 409 2034 409 
Q 2484 409 2743 651 
Q 3003 894 3003 1313 
Q 3003 1734 2745 1975 
Q 2488 2216 2034 2216 
z
M 1403 2484 
Q 997 2584 770 2862 
Q 544 3141 544 3541 
Q 544 4100 942 4425 
Q 1341 4750 2034 4750 
Q 2731 4750 3128 4425 
Q 3525 4100 3525 3541 
Q 3525 3141 3298 2862 
Q 3072 2584 2669 2484 
Q 3125 2378 3379 2068 
Q 3634 1759 3634 1313 
Q 3634 634 3220 271 
Q 2806 -91 2034 -91 
Q 1263 -91 848 271 
Q 434 634 434 1313 
Q 434 1759 690 2068 
Q 947 2378 1403 2484 
z
M 1172 3481 
Q 1172 3119 1398 2916 
Q 1625 2713 2034 2713 
Q 2441 2713 2670 2916 
Q 2900 3119 2900 3481 
Q 2900 3844 2670 4047 
Q 2441 4250 2034 4250 
Q 1625 4250 1398 4047 
Q 1172 3844 1172 3481 
z
" transform="scale(0.015625)"/>
       </defs>
       <use xlink:href="#DejaVuSans-38"/>
       <use xlink:href="#DejaVuSans-30" x="63.623047"/>
       <use xlink:href="#DejaVuSans-30" x="127.246094"/>
      </g>
     </g>
    </g>
    <g id="xtick_6">
     <g id="line2d_6">
      <g>
       <use xlink:href="#m79bb79cbfb" x="1218.212647" y="732.983803" style="stroke: #000000; stroke-width: 0.8"/>
      </g>
     </g>
     <g id="text_6">
      <!-- 1000 -->
      <g transform="translate(1205.487647 747.582241) scale(0.1 -0.1)">
       <defs>
        <path id="DejaVuSans-31" d="M 794 531 
L 1825 531 
L 1825 4091 
L 703 3866 
L 703 4441 
L 1819 4666 
L 2450 4666 
L 2450 531 
L 3481 531 
L 3481 0 
L 794 0 
L 794 531 
z
" transform="scale(0.015625)"/>
       </defs>
       <use xlink:href="#DejaVuSans-31"/>
       <use xlink:href="#DejaVuSans-30" x="63.623047"/>
       <use xlink:href="#DejaVuSans-30" x="127.246094"/>
       <use xlink:href="#DejaVuSans-30" x="190.869141"/>
      </g>
     </g>
    </g>
   </g>
   <g id="matplotlib.axis_2">
    <g id="ytick_1">
     <g id="line2d_7">
      <defs>
       <path id="m72ddccf7c6" d="M 0 0 
L -3.5 0 
" style="stroke: #000000; stroke-width: 0.8"/>
      </defs>
      <g>
       <use xlink:href="#m72ddccf7c6" x="180" y="718.064991" style="stroke: #000000; stroke-width: 0.8"/>
      </g>
     </g>
     <g id="text_7">
      <!-- 800 -->
      <g transform="translate(153.9125 721.86421) scale(0.1 -0.1)">
       <use xlink:href="#DejaVuSans-38"/>
       <use xlink:href="#DejaVuSans-30" x="63.623047"/>
       <use xlink:href="#DejaVuSans-30" x="127.246094"/>
      </g>
     </g>
    </g>
    <g id="ytick_2">
     <g id="line2d_8">
      <g>
       <use xlink:href="#m72ddccf7c6" x="180" y="668.637298" style="stroke: #000000; stroke-width: 0.8"/>
      </g>
     </g>
     <g id="text_8">
      <!-- 850 -->
      <g transform="translate(153.9125 672.436517) scale(0.1 -0.1)">
       <defs>
        <path id="DejaVuSans-35" d="M 691 4666 
L 3169 4666 
L 3169 4134 
L 1269 4134 
L 1269 2991 
Q 1406 3038 1543 3061 
Q 1681 3084 1819 3084 
Q 2600 3084 3056 2656 
Q 3513 2228 3513 1497 
Q 3513 744 3044 326 
Q 2575 -91 1722 -91 
Q 1428 -91 1123 -41 
Q 819 9 494 109 
L 494 744 
Q 775 591 1075 516 
Q 1375 441 1709 441 
Q 2250 441 2565 725 
Q 2881 1009 2881 1497 
Q 2881 1984 2565 2268 
Q 2250 2553 1709 2553 
Q 1456 2553 1204 2497 
Q 953 2441 691 2322 
L 691 4666 
z
" transform="scale(0.015625)"/>
       </defs>
       <use xlink:href="#DejaVuSans-38"/>
       <use xlink:href="#DejaVuSans-35" x="63.623047"/>
       <use xlink:href="#DejaVuSans-30" x="127.246094"/>
      </g>
     </g>
    </g>
    <g id="ytick_3">
     <g id="line2d_9">
      <g>
       <use xlink:href="#m72ddccf7c6" x="180" y="619.209605" style="stroke: #000000; stroke-width: 0.8"/>
      </g>
     </g>
     <g id="text_9">
      <!-- 900 -->
      <g transform="translate(153.9125 623.008824) scale(0.1 -0.1)">
       <defs>
        <path id="DejaVuSans-39" d="M 703 97 
L 703 672 
Q 941 559 1184 500 
Q 1428 441 1663 441 
Q 2288 441 2617 861 
Q 2947 1281 2994 2138 
Q 2813 1869 2534 1725 
Q 2256 1581 1919 1581 
Q 1219 1581 811 2004 
Q 403 2428 403 3163 
Q 403 3881 828 4315 
Q 1253 4750 1959 4750 
Q 2769 4750 3195 4129 
Q 3622 3509 3622 2328 
Q 3622 1225 3098 567 
Q 2575 -91 1691 -91 
Q 1453 -91 1209 -44 
Q 966 3 703 97 
z
M 1959 2075 
Q 2384 2075 2632 2365 
Q 2881 2656 2881 3163 
Q 2881 3666 2632 3958 
Q 2384 4250 1959 4250 
Q 1534 4250 1286 3958 
Q 1038 3666 1038 3163 
Q 1038 2656 1286 2365 
Q 1534 2075 1959 2075 
z
" transform="scale(0.015625)"/>
       </defs>
       <use xlink:href="#DejaVuSans-39"/>
       <use xlink:href="#DejaVuSans-30" x="63.623047"/>
       <use xlink:href="#DejaVuSans-30" x="127.246094"/>
      </g>
     </g>
    </g>
    <g id="ytick_4">
     <g id="line2d_10">
      <g>
       <use xlink:href="#m72ddccf7c6" x="180" y="569.781912" style="stroke: #000000; stroke-width: 0.8"/>
      </g>
     </g>
     <g id="text_10">
      <!-- 950 -->
      <g transform="translate(153.9125 573.581131) scale(0.1 -0.1)">
       <use xlink:href="#DejaVuSans-39"/>
       <use xlink:href="#DejaVuSans-35" x="63.623047"/>
       <use xlink:href="#DejaVuSans-30" x="127.246094"/>
      </g>
     </g>
    </g>
    <g id="ytick_5">
     <g id="line2d_11">
      <g>
       <use xlink:href="#m72ddccf7c6" x="180" y="520.35422" style="stroke: #000000; stroke-width: 0.8"/>
      </g>
     </g>
     <g id="text_11">
      <!-- 1000 -->
      <g transform="translate(147.55 524.153438) scale(0.1 -0.1)">
       <use xlink:href="#DejaVuSans-31"/>
       <use xlink:href="#DejaVuSans-30" x="63.623047"/>
       <use xlink:href="#DejaVuSans-30" x="127.246094"/>
       <use xlink:href="#DejaVuSans-30" x="190.869141"/>
      </g>
     </g>
    </g>
    <g id="ytick_6">
     <g id="line2d_12">
      <g>
       <use xlink:href="#m72ddccf7c6" x="180" y="470.926527" style="stroke: #000000; stroke-width: 0.8"/>
      </g>
     </g>
     <g id="text_12">
      <!-- 1050 -->
      <g transform="translate(147.55 474.725745) scale(0.1 -0.1)">
       <use xlink:href="#DejaVuSans-31"/>
       <use xlink:href="#DejaVuSans-30" x="63.623047"/>
       <use xlink:href="#DejaVuSans-35" x="127.246094"/>
       <use xlink:href="#DejaVuSans-30" x="190.869141"/>
      </g>
     </g>
    </g>
    <g id="ytick_7">
     <g id="line2d_13">
      <g>
       <use xlink:href="#m72ddccf7c6" x="180" y="421.498834" style="stroke: #000000; stroke-width: 0.8"/>
      </g>
     </g>
     <g id="text_13">
      <!-- 1100 -->
      <g transform="translate(147.55 425.298052) scale(0.1 -0.1)">
       <use xlink:href="#DejaVuSans-31"/>
       <use xlink:href="#DejaVuSans-31" x="63.623047"/>
       <use xlink:href="#DejaVuSans-30" x="127.246094"/>
       <use xlink:href="#DejaVuSans-30" x="190.869141"/>
      </g>
     </g>
    </g>
    <g id="ytick_8">
     <g id="line2d_14">
      <g>
       <use xlink:href="#m72ddccf7c6" x="180" y="372.071141" style="stroke: #000000; stroke-width: 0.8"/>
      </g>
     </g>
     <g id="text_14">
      <!-- 1150 -->
      <g transform="translate(147.55 375.87036) scale(0.1 -0.1)">
       <use xlink:href="#DejaVuSans-31"/>
       <use xlink:href="#DejaVuSans-31" x="63.623047"/>
       <use xlink:href="#DejaVuSans-35" x="127.246094"/>
       <use xlink:href="#DejaVuSans-30" x="190.869141"/>
      </g>
     </g>
    </g>
   </g>
   <g id="LineCollection_1">
    <path d="M 272.086675 715.93073 
L 275.205031 680.497604 
L 278.881844 648.183385 
L 283.104433 618.627278 
L 287.838692 591.712101 
L 293.049056 567.327395 
L 298.697534 545.368574 
L 304.74262 525.735691 
L 311.13819 508.331595 
L 317.832672 493.059135 
L 324.769087 479.817133 
L 331.886923 468.495073 
L 339.127144 458.967235 
L 346.441326 451.088339 
L 353.804212 444.694233 
L 361.225712 439.611159 
L 368.755386 435.673599 
L 376.473715 432.744512 
L 384.471519 430.72794 
L 392.826775 429.567754 
L 401.58917 429.234961 
L 410.776446 429.711625 
L 420.379676 430.97831 
L 430.372054 433.007427 
L 440.717157 435.761484 
L 451.374961 439.194109 
L 462.305532 443.252152 
L 473.470965 447.877862 
L 484.836196 453.010741 
L 496.36919 458.58897 
L 508.040808 464.550462 
L 519.824563 470.833606 
L 531.696339 477.377806 
L 555.617842 491.014257 
L 615.560043 525.715696 
L 627.661804 532.477554 
L 639.560311 538.954838 
L 651.399488 545.19411 
L 663.172296 551.158564 
L 674.872843 556.813906 
L 686.496272 562.12834 
L 698.038612 567.072544 
L 709.496568 571.61966 
L 720.867251 575.745311 
L 732.14785 579.427654 
L 743.335271 582.64752 
L 754.425753 585.388645 
L 765.414537 587.638021 
L 776.295625 589.386354 
L 787.06173 590.62861 
L 797.704442 591.36459 
L 808.214668 591.599425 
L 818.583302 591.343914 
L 828.80206 590.614604 
L 838.864361 589.433562 
L 848.766105 587.827862 
L 858.506264 585.82883 
L 868.087185 583.471158 
L 877.514628 580.791986 
L 886.797553 577.83003 
L 895.947752 574.624819 
L 904.979387 571.216049 
L 913.908519 567.643043 
L 931.530526 560.157043 
L 975.234849 541.017124 
L 984.071644 537.353514 
L 992.987133 533.797036 
L 1002.004256 530.360763 
L 1011.146318 527.052738 
L 1020.436756 523.875482 
L 1029.898792 520.825417 
L 1039.554986 517.892143 
L 1049.426704 515.057517 
L 1069.892854 509.565703 
L 1102.758793 500.976177 
L 1114.319817 497.707142 
L 1126.171275 494.048767 
L 1138.29626 489.851761 
L 1150.662142 484.940217 
L 1163.214081 479.112458 
L 1175.86827 472.145601 
L 1188.507974 463.804383 
L 1200.986532 453.852083 
L 1213.139837 442.057884 
L 1224.805248 428.19401 
L 1235.838342 412.020715 
L 1245.272727 394.975412 
L 1245.272727 394.975412 
" clip-path="url(#pd5fe1337db)" style="fill: none; stroke: #1f77b4; stroke-width: 1.5"/>
    <path d="M 251.406974 714.110776 
L 254.54855 678.413812 
L 258.288882 645.541343 
L 262.600761 615.360247 
L 267.458388 587.743698 
L 272.837207 562.570614 
L 278.713758 539.725146 
L 285.065535 519.096212 
L 291.870862 500.577051 
L 299.108779 484.064828 
L 306.758932 469.460261 
L 314.801484 456.66729 
L 323.217031 445.592771 
L 331.986527 436.146199 
L 341.091218 428.239469 
L 350.512592 421.786656 
L 360.232329 416.703827 
L 370.232263 412.908876 
L 380.494353 410.321386 
L 391.000661 408.862511 
L 401.733336 408.454887 
L 412.674604 409.022554 
L 423.806771 410.490909 
L 435.112223 412.786667 
L 446.573435 415.837853 
L 458.172992 419.573795 
L 469.893602 423.925145 
L 481.718127 428.823909 
L 493.629608 434.20349 
L 505.6113 439.998744 
L 517.646707 446.146047 
L 529.719621 452.583372 
L 541.814167 459.250372 
L 553.914844 466.088475 
L 566.006572 473.040978 
L 578.074743 480.053157 
L 590.105264 487.07237 
L 602.084614 494.048171 
L 613.999888 500.932418 
L 625.838851 507.679389 
L 637.589989 514.245894 
L 649.242552 520.591383 
L 660.786612 526.678058 
L 672.213101 532.470971 
L 683.513862 537.938126 
L 694.681686 543.050571 
L 705.710359 547.782479 
L 716.594694 552.111229 
L 727.330567 556.017467 
L 737.914946 559.485164 
L 748.345919 562.501659 
L 758.622715 565.057689 
L 768.745717 567.147401 
L 778.716481 568.768358 
L 788.537734 569.921517 
L 798.21338 570.611198 
L 807.748489 570.845029 
L 817.149289 570.633871 
L 826.42314 569.991728 
L 835.578509 568.935624 
L 844.624937 567.485467 
L 853.572989 565.663883 
L 862.434208 563.496021 
L 871.221049 561.009339 
L 879.946808 558.233358 
L 888.625547 555.199382 
L 897.271995 551.940198 
L 905.901454 548.489735 
L 914.529682 544.882693 
L 923.172772 541.154142 
L 931.847016 537.339083 
L 940.56876 533.471968 
L 949.35424 529.586194 
L 958.219414 525.713549 
L 967.179776 521.883622 
L 976.250154 518.123172 
L 985.444503 514.455453 
L 994.77567 510.899504 
L 1004.255159 507.469382 
L 1013.892873 504.17336 
L 1023.696839 501.013075 
L 1033.67292 497.982628 
L 1043.824516 495.067637 
L 1054.152237 492.244235 
L 1064.653569 489.478027 
L 1075.322519 486.722984 
L 1086.149241 483.920289 
L 1097.119645 480.997131 
L 1108.214989 477.865435 
L 1119.411454 474.420545 
L 1130.679689 470.539844 
L 1141.984353 466.081314 
L 1153.283623 460.882036 
L 1164.528689 454.756634 
L 1175.663226 447.495651 
L 1186.622847 438.863861 
L 1197.334529 428.598519 
L 1207.716024 416.407547 
L 1217.675246 401.967644 
L 1227.109632 384.922341 
" clip-path="url(#pd5fe1337db)" style="fill: none; stroke: #8c564b; stroke-width: 1.5"/>
    <path d="M 230.727273 712.290821 
L 233.922011 676.06686 
L 237.737924 642.605291 
L 242.155009 611.763931 
L 247.157028 583.405837 
L 252.732076 557.398961 
L 258.873331 533.616156 
L 265.579904 511.935731 
L 272.857622 492.242846 
L 280.719317 474.432073 
L 289.183847 458.411339 
L 298.272669 444.107014 
L 308.002645 431.468865 
L 316.77214 422.022293 
L 318.37469 420.472011 
L 327.479381 412.565281 
L 329.360406 411.111996 
L 338.78178 404.659183 
L 340.892548 403.390542 
L 350.612285 398.307713 
L 352.866661 397.294829 
L 362.866595 393.499878 
L 365.156767 392.779256 
L 375.418857 390.191765 
L 377.639128 389.759042 
L 390.212784 388.117837 
L 402.808963 387.723141 
L 415.389326 388.44119 
L 427.938039 390.146501 
L 440.452808 392.725749 
L 452.937672 396.077823 
L 465.398269 400.112098 
L 477.839195 404.746254 
L 490.262783 409.904312 
L 502.668737 415.515086 
L 515.054212 421.51108 
L 527.414099 427.827741 
L 539.741383 434.402983 
L 552.027497 441.176906 
L 576.43612 455.091414 
L 636.041752 489.599822 
L 647.617695 496.068429 
L 659.048208 502.292999 
L 670.321906 508.237124 
L 681.427865 513.867537 
L 692.355775 519.154312 
L 703.096115 524.071062 
L 713.640361 528.595124 
L 723.981244 532.707741 
L 734.113063 536.394194 
L 744.032036 539.643888 
L 753.736711 542.450348 
L 763.22838 544.811102 
L 772.511481 546.727432 
L 781.593909 548.203971 
L 790.487182 549.248172 
L 799.20639 549.869678 
L 807.76988 550.079681 
L 816.198676 549.890356 
L 824.515677 549.314467 
L 832.744745 548.365215 
L 840.909798 547.056345 
L 849.034033 545.402468 
L 857.139381 543.419526 
L 865.24622 541.125286 
L 873.373331 538.539756 
L 881.538037 535.68548 
L 889.756452 532.587638 
L 898.043748 529.273988 
L 914.88229 522.121654 
L 959.229316 502.706749 
L 968.558341 498.8411 
L 978.051958 495.056676 
L 987.712074 491.378544 
L 997.537513 487.826686 
L 1007.523779 484.414896 
L 1017.662913 481.149691 
L 1027.943401 478.02931 
L 1038.350114 475.042822 
L 1059.463075 469.377752 
L 1091.627232 460.976668 
L 1102.342198 457.952335 
L 1112.977358 454.680146 
L 1123.488013 451.06035 
L 1133.830876 446.981151 
L 1143.968886 442.316219 
L 1153.877025 436.919067 
L 1163.546937 430.613186 
L 1172.986586 423.178524 
L 1182.211293 414.338197 
L 1191.226219 403.751985 
L 1200.00647 391.021475 
L 1208.946536 374.86927 
L 1208.946536 374.86927 
" clip-path="url(#pd5fe1337db)" style="fill: none; stroke: #17becf; stroke-width: 1.5"/>
   </g>
   <g id="patch_3">
    <path d="M 180 732.983803 
L 180 357.816197 
" style="fill: none; stroke: #000000; stroke-width: 0.8; stroke-linejoin: miter; stroke-linecap: square"/>
   </g>
   <g id="patch_4">
    <path d="M 1296 732.983803 
L 1296 357.816197 
" style="fill: none; stroke: #000000; stroke-width: 0.8; stroke-linejoin: miter; stroke-linecap: square"/>
   </g>
   <g id="patch_5">
    <path d="M 180 732.983803 
L 1296 732.983803 
" style="fill: none; stroke: #000000; stroke-width: 0.8; stroke-linejoin: miter; stroke-linecap: square"/>
   </g>
   <g id="patch_6">
    <path d="M 180 357.816197 
L 1296 357.816197 
" style="fill: none; stroke: #000000; stroke-width: 0.8; stroke-linejoin: miter; stroke-linecap: square"/>
   </g>
  </g>
 </g>
 <defs>
  <clipPath id="pd5fe1337db">
   <rect x="180" y="357.816197" width="1116" height="375.167606"/>
  </clipPath>
 </defs>
</svg>
