<?xml version="1.0" encoding="utf-8" standalone="no"?>
<!DOCTYPE svg PUBLIC "-//W3C//DTD SVG 1.1//EN"
  "http://www.w3.org/Graphics/SVG/1.1/DTD/svg11.dtd">
<svg xmlns:xlink="http://www.w3.org/1999/xlink" width="1440pt" height="1080pt" viewBox="0 0 1440 1080" xmlns="http://www.w3.org/2000/svg" version="1.1">
 <metadata>
  <rdf:RDF xmlns:dc="http://purl.org/dc/elements/1.1/" xmlns:cc="http://creativecommons.org/ns#" xmlns:rdf="http://www.w3.org/1999/02/22-rdf-syntax-ns#">
   <cc:Work>
    <dc:type rdf:resource="http://purl.org/dc/dcmitype/StillImage"/>
    <dc:date>2023-12-11T12:07:00.583574</dc:date>
    <dc:format>image/svg+xml</dc:format>
    <dc:creator>
     <cc:Agent>
      <dc:title>Matplotlib v3.7.1, https://matplotlib.org/</dc:title>
     </cc:Agent>
    </dc:creator>
   </cc:Work>
  </rdf:RDF>
 </metadata>
 <defs>
  <style type="text/css">*{stroke-linejoin: round; stroke-linecap: butt}</style>
 </defs>
 <g id="figure_1">
  <g id="patch_1">
   <path d="M 0 1080 
L 1440 1080 
L 1440 0 
L 0 0 
z
" style="fill: #ffffff"/>
  </g>
  <g id="axes_1">
   <g id="patch_2">
    <path d="M 180 912.937088 
L 1296 912.937088 
L 1296 177.862912 
L 180 177.862912 
z
" style="fill: #ffffff"/>
   </g>
   <g id="matplotlib.axis_1">
    <g id="xtick_1">
     <g id="line2d_1">
      <defs>
       <path id="m309275c4de" d="M 0 0 
L 0 3.5 
" style="stroke: #000000; stroke-width: 0.8"/>
      </defs>
      <g>
       <use xlink:href="#m309275c4de" x="248.55971" y="912.937088" style="stroke: #000000; stroke-width: 0.8"/>
      </g>
     </g>
     <g id="text_1">
      <!-- 900 -->
      <g transform="translate(239.01596 927.535526) scale(0.1 -0.1)">
       <defs>
        <path id="DejaVuSans-39" d="M 703 97 
L 703 672 
Q 941 559 1184 500 
Q 1428 441 1663 441 
Q 2288 441 2617 861 
Q 2947 1281 2994 2138 
Q 2813 1869 2534 1725 
Q 2256 1581 1919 1581 
Q 1219 1581 811 2004 
Q 403 2428 403 3163 
Q 403 3881 828 4315 
Q 1253 4750 1959 4750 
Q 2769 4750 3195 4129 
Q 3622 3509 3622 2328 
Q 3622 1225 3098 567 
Q 2575 -91 1691 -91 
Q 1453 -91 1209 -44 
Q 966 3 703 97 
z
M 1959 2075 
Q 2384 2075 2632 2365 
Q 2881 2656 2881 3163 
Q 2881 3666 2632 3958 
Q 2384 4250 1959 4250 
Q 1534 4250 1286 3958 
Q 1038 3666 1038 3163 
Q 1038 2656 1286 2365 
Q 1534 2075 1959 2075 
z
" transform="scale(0.015625)"/>
        <path id="DejaVuSans-30" d="M 2034 4250 
Q 1547 4250 1301 3770 
Q 1056 3291 1056 2328 
Q 1056 1369 1301 889 
Q 1547 409 2034 409 
Q 2525 409 2770 889 
Q 3016 1369 3016 2328 
Q 3016 3291 2770 3770 
Q 2525 4250 2034 4250 
z
M 2034 4750 
Q 2819 4750 3233 4129 
Q 3647 3509 3647 2328 
Q 3647 1150 3233 529 
Q 2819 -91 2034 -91 
Q 1250 -91 836 529 
Q 422 1150 422 2328 
Q 422 3509 836 4129 
Q 1250 4750 2034 4750 
z
" transform="scale(0.015625)"/>
       </defs>
       <use xlink:href="#DejaVuSans-39"/>
       <use xlink:href="#DejaVuSans-30" x="63.623047"/>
       <use xlink:href="#DejaVuSans-30" x="127.246094"/>
      </g>
     </g>
    </g>
    <g id="xtick_2">
     <g id="line2d_2">
      <g>
       <use xlink:href="#m309275c4de" x="403.58854" y="912.937088" style="stroke: #000000; stroke-width: 0.8"/>
      </g>
     </g>
     <g id="text_2">
      <!-- 1000 -->
      <g transform="translate(390.86354 927.535526) scale(0.1 -0.1)">
       <defs>
        <path id="DejaVuSans-31" d="M 794 531 
L 1825 531 
L 1825 4091 
L 703 3866 
L 703 4441 
L 1819 4666 
L 2450 4666 
L 2450 531 
L 3481 531 
L 3481 0 
L 794 0 
L 794 531 
z
" transform="scale(0.015625)"/>
       </defs>
       <use xlink:href="#DejaVuSans-31"/>
       <use xlink:href="#DejaVuSans-30" x="63.623047"/>
       <use xlink:href="#DejaVuSans-30" x="127.246094"/>
       <use xlink:href="#DejaVuSans-30" x="190.869141"/>
      </g>
     </g>
    </g>
    <g id="xtick_3">
     <g id="line2d_3">
      <g>
       <use xlink:href="#m309275c4de" x="558.617371" y="912.937088" style="stroke: #000000; stroke-width: 0.8"/>
      </g>
     </g>
     <g id="text_3">
      <!-- 1100 -->
      <g transform="translate(545.892371 927.535526) scale(0.1 -0.1)">
       <use xlink:href="#DejaVuSans-31"/>
       <use xlink:href="#DejaVuSans-31" x="63.623047"/>
       <use xlink:href="#DejaVuSans-30" x="127.246094"/>
       <use xlink:href="#DejaVuSans-30" x="190.869141"/>
      </g>
     </g>
    </g>
    <g id="xtick_4">
     <g id="line2d_4">
      <g>
       <use xlink:href="#m309275c4de" x="713.646201" y="912.937088" style="stroke: #000000; stroke-width: 0.8"/>
      </g>
     </g>
     <g id="text_4">
      <!-- 1200 -->
      <g transform="translate(700.921201 927.535526) scale(0.1 -0.1)">
       <defs>
        <path id="DejaVuSans-32" d="M 1228 531 
L 3431 531 
L 3431 0 
L 469 0 
L 469 531 
Q 828 903 1448 1529 
Q 2069 2156 2228 2338 
Q 2531 2678 2651 2914 
Q 2772 3150 2772 3378 
Q 2772 3750 2511 3984 
Q 2250 4219 1831 4219 
Q 1534 4219 1204 4116 
Q 875 4013 500 3803 
L 500 4441 
Q 881 4594 1212 4672 
Q 1544 4750 1819 4750 
Q 2544 4750 2975 4387 
Q 3406 4025 3406 3419 
Q 3406 3131 3298 2873 
Q 3191 2616 2906 2266 
Q 2828 2175 2409 1742 
Q 1991 1309 1228 531 
z
" transform="scale(0.015625)"/>
       </defs>
       <use xlink:href="#DejaVuSans-31"/>
       <use xlink:href="#DejaVuSans-32" x="63.623047"/>
       <use xlink:href="#DejaVuSans-30" x="127.246094"/>
       <use xlink:href="#DejaVuSans-30" x="190.869141"/>
      </g>
     </g>
    </g>
    <g id="xtick_5">
     <g id="line2d_5">
      <g>
       <use xlink:href="#m309275c4de" x="868.675031" y="912.937088" style="stroke: #000000; stroke-width: 0.8"/>
      </g>
     </g>
     <g id="text_5">
      <!-- 1300 -->
      <g transform="translate(855.950031 927.535526) scale(0.1 -0.1)">
       <defs>
        <path id="DejaVuSans-33" d="M 2597 2516 
Q 3050 2419 3304 2112 
Q 3559 1806 3559 1356 
Q 3559 666 3084 287 
Q 2609 -91 1734 -91 
Q 1441 -91 1130 -33 
Q 819 25 488 141 
L 488 750 
Q 750 597 1062 519 
Q 1375 441 1716 441 
Q 2309 441 2620 675 
Q 2931 909 2931 1356 
Q 2931 1769 2642 2001 
Q 2353 2234 1838 2234 
L 1294 2234 
L 1294 2753 
L 1863 2753 
Q 2328 2753 2575 2939 
Q 2822 3125 2822 3475 
Q 2822 3834 2567 4026 
Q 2313 4219 1838 4219 
Q 1578 4219 1281 4162 
Q 984 4106 628 3988 
L 628 4550 
Q 988 4650 1302 4700 
Q 1616 4750 1894 4750 
Q 2613 4750 3031 4423 
Q 3450 4097 3450 3541 
Q 3450 3153 3228 2886 
Q 3006 2619 2597 2516 
z
" transform="scale(0.015625)"/>
       </defs>
       <use xlink:href="#DejaVuSans-31"/>
       <use xlink:href="#DejaVuSans-33" x="63.623047"/>
       <use xlink:href="#DejaVuSans-30" x="127.246094"/>
       <use xlink:href="#DejaVuSans-30" x="190.869141"/>
      </g>
     </g>
    </g>
    <g id="xtick_6">
     <g id="line2d_6">
      <g>
       <use xlink:href="#m309275c4de" x="1023.703862" y="912.937088" style="stroke: #000000; stroke-width: 0.8"/>
      </g>
     </g>
     <g id="text_6">
      <!-- 1400 -->
      <g transform="translate(1010.978862 927.535526) scale(0.1 -0.1)">
       <defs>
        <path id="DejaVuSans-34" d="M 2419 4116 
L 825 1625 
L 2419 1625 
L 2419 4116 
z
M 2253 4666 
L 3047 4666 
L 3047 1625 
L 3713 1625 
L 3713 1100 
L 3047 1100 
L 3047 0 
L 2419 0 
L 2419 1100 
L 313 1100 
L 313 1709 
L 2253 4666 
z
" transform="scale(0.015625)"/>
       </defs>
       <use xlink:href="#DejaVuSans-31"/>
       <use xlink:href="#DejaVuSans-34" x="63.623047"/>
       <use xlink:href="#DejaVuSans-30" x="127.246094"/>
       <use xlink:href="#DejaVuSans-30" x="190.869141"/>
      </g>
     </g>
    </g>
    <g id="xtick_7">
     <g id="line2d_7">
      <g>
       <use xlink:href="#m309275c4de" x="1178.732692" y="912.937088" style="stroke: #000000; stroke-width: 0.8"/>
      </g>
     </g>
     <g id="text_7">
      <!-- 1500 -->
      <g transform="translate(1166.007692 927.535526) scale(0.1 -0.1)">
       <defs>
        <path id="DejaVuSans-35" d="M 691 4666 
L 3169 4666 
L 3169 4134 
L 1269 4134 
L 1269 2991 
Q 1406 3038 1543 3061 
Q 1681 3084 1819 3084 
Q 2600 3084 3056 2656 
Q 3513 2228 3513 1497 
Q 3513 744 3044 326 
Q 2575 -91 1722 -91 
Q 1428 -91 1123 -41 
Q 819 9 494 109 
L 494 744 
Q 775 591 1075 516 
Q 1375 441 1709 441 
Q 2250 441 2565 725 
Q 2881 1009 2881 1497 
Q 2881 1984 2565 2268 
Q 2250 2553 1709 2553 
Q 1456 2553 1204 2497 
Q 953 2441 691 2322 
L 691 4666 
z
" transform="scale(0.015625)"/>
       </defs>
       <use xlink:href="#DejaVuSans-31"/>
       <use xlink:href="#DejaVuSans-35" x="63.623047"/>
       <use xlink:href="#DejaVuSans-30" x="127.246094"/>
       <use xlink:href="#DejaVuSans-30" x="190.869141"/>
      </g>
     </g>
    </g>
   </g>
   <g id="matplotlib.axis_2">
    <g id="ytick_1">
     <g id="line2d_8">
      <defs>
       <path id="mc7c1cc01b6" d="M 0 0 
L -3.5 0 
" style="stroke: #000000; stroke-width: 0.8"/>
      </defs>
      <g>
       <use xlink:href="#mc7c1cc01b6" x="180" y="843.007965" style="stroke: #000000; stroke-width: 0.8"/>
      </g>
     </g>
     <g id="text_8">
      <!-- 900 -->
      <g transform="translate(153.9125 846.807183) scale(0.1 -0.1)">
       <use xlink:href="#DejaVuSans-39"/>
       <use xlink:href="#DejaVuSans-30" x="63.623047"/>
       <use xlink:href="#DejaVuSans-30" x="127.246094"/>
      </g>
     </g>
    </g>
    <g id="ytick_2">
     <g id="line2d_9">
      <g>
       <use xlink:href="#mc7c1cc01b6" x="180" y="687.979134" style="stroke: #000000; stroke-width: 0.8"/>
      </g>
     </g>
     <g id="text_9">
      <!-- 1000 -->
      <g transform="translate(147.55 691.778353) scale(0.1 -0.1)">
       <use xlink:href="#DejaVuSans-31"/>
       <use xlink:href="#DejaVuSans-30" x="63.623047"/>
       <use xlink:href="#DejaVuSans-30" x="127.246094"/>
       <use xlink:href="#DejaVuSans-30" x="190.869141"/>
      </g>
     </g>
    </g>
    <g id="ytick_3">
     <g id="line2d_10">
      <g>
       <use xlink:href="#mc7c1cc01b6" x="180" y="532.950304" style="stroke: #000000; stroke-width: 0.8"/>
      </g>
     </g>
     <g id="text_10">
      <!-- 1100 -->
      <g transform="translate(147.55 536.749523) scale(0.1 -0.1)">
       <use xlink:href="#DejaVuSans-31"/>
       <use xlink:href="#DejaVuSans-31" x="63.623047"/>
       <use xlink:href="#DejaVuSans-30" x="127.246094"/>
       <use xlink:href="#DejaVuSans-30" x="190.869141"/>
      </g>
     </g>
    </g>
    <g id="ytick_4">
     <g id="line2d_11">
      <g>
       <use xlink:href="#mc7c1cc01b6" x="180" y="377.921474" style="stroke: #000000; stroke-width: 0.8"/>
      </g>
     </g>
     <g id="text_11">
      <!-- 1200 -->
      <g transform="translate(147.55 381.720692) scale(0.1 -0.1)">
       <use xlink:href="#DejaVuSans-31"/>
       <use xlink:href="#DejaVuSans-32" x="63.623047"/>
       <use xlink:href="#DejaVuSans-30" x="127.246094"/>
       <use xlink:href="#DejaVuSans-30" x="190.869141"/>
      </g>
     </g>
    </g>
    <g id="ytick_5">
     <g id="line2d_12">
      <g>
       <use xlink:href="#mc7c1cc01b6" x="180" y="222.892643" style="stroke: #000000; stroke-width: 0.8"/>
      </g>
     </g>
     <g id="text_12">
      <!-- 1300 -->
      <g transform="translate(147.55 226.691862) scale(0.1 -0.1)">
       <use xlink:href="#DejaVuSans-31"/>
       <use xlink:href="#DejaVuSans-33" x="63.623047"/>
       <use xlink:href="#DejaVuSans-30" x="127.246094"/>
       <use xlink:href="#DejaVuSans-30" x="190.869141"/>
      </g>
     </g>
    </g>
   </g>
   <g id="LineCollection_1">
    <path d="M 241.587535 879.524626 
L 256.87283 875.574781 
L 271.724602 872.817948 
L 286.916812 870.911826 
L 302.372974 869.734408 
L 318.016212 869.1652 
L 333.772943 869.086039 
L 349.574976 869.382318 
L 365.360522 869.944125 
L 396.683124 871.453709 
L 427.467319 872.85642 
L 442.530227 873.303775 
L 457.338265 873.481174 
L 471.869861 873.320405 
L 486.106402 872.758709 
L 500.031219 871.738605 
L 513.628464 870.207907 
L 526.881965 868.120056 
L 539.774199 865.434806 
L 552.285623 862.119266 
L 564.394583 858.149183 
L 576.078009 853.510201 
L 587.312918 848.198725 
L 598.078532 842.222047 
L 608.358575 835.597511 
L 618.143257 828.350781 
L 627.430472 820.513518 
L 636.226061 812.120936 
L 644.543173 803.209651 
L 652.40104 793.816115 
L 659.823469 783.975699 
L 666.837371 773.72233 
L 673.471479 763.088528 
L 679.755366 752.105659 
L 685.718727 740.80427 
L 691.390914 729.214402 
L 696.800643 717.36584 
L 701.975829 705.288278 
L 706.9435 693.011396 
L 711.729763 680.564868 
L 716.359786 667.97831 
L 720.857795 655.281187 
L 729.549964 629.671566 
L 742.151965 591.132391 
L 750.497928 565.639703 
L 758.951837 540.558694 
L 763.257395 528.225623 
L 767.633633 516.056053 
L 772.093 504.06683 
L 776.646962 492.273076 
L 781.306046 480.688165 
L 786.079879 469.323708 
L 790.977253 458.189567 
L 796.006187 447.293897 
L 801.174008 436.643211 
L 806.487435 426.24248 
L 811.95267 416.09526 
L 817.575494 406.203854 
L 823.361365 396.569505 
L 829.315515 387.192616 
L 835.443043 378.073002 
L 841.749014 369.210164 
L 848.238544 360.603587 
L 854.916892 352.253047 
L 861.789555 344.158936 
L 868.862361 336.322585 
L 876.141586 328.746593 
L 883.63408 321.435144 
L 891.347423 314.394319 
L 899.290129 307.63239 
L 907.47189 301.1601 
L 915.903896 294.990926 
L 924.599248 289.141324 
L 933.57348 283.630978 
L 942.845224 278.483056 
L 952.437036 273.72453 
L 962.376399 269.386599 
L 972.696886 265.505284 
L 983.439437 262.122303 
L 994.653636 259.286272 
L 1006.398841 257.054299 
L 1018.744951 255.493912 
L 1031.772655 254.685207 
L 1045.573047 254.722967 
L 1060.246664 255.718479 
L 1075.902176 257.800816 
L 1092.655061 261.117475 
L 1110.626619 265.834456 
L 1129.943569 272.135998 
L 1150.738339 280.224264 
L 1173.149948 290.319216 
L 1197.325324 302.658857 
L 1223.813414 317.723133 
L 1223.813414 317.723133 
" clip-path="url(#pac2a25f9dc)" style="fill: none; stroke: #1f77b4; stroke-width: 1.5"/>
    <path d="M 236.157404 858.510848 
L 252.171561 854.372659 
L 268.390195 851.362104 
L 284.740243 849.310712 
L 301.153589 848.060378 
L 317.566973 847.463147 
L 333.921878 847.38098 
L 350.16443 847.685519 
L 366.245282 848.257836 
L 382.119494 848.988185 
L 397.746414 849.775733 
L 413.089549 850.528304 
L 428.116438 851.162093 
L 442.798512 851.601397 
L 457.110967 851.778328 
L 471.032613 851.632523 
L 484.545742 851.110857 
L 497.635976 850.167142 
L 510.292124 848.761834 
L 522.506033 846.861731 
L 534.272438 844.439669 
L 545.588811 841.474221 
L 556.455211 837.949392 
L 566.874131 833.854316 
L 576.850347 829.182948 
L 586.390762 823.933766 
L 595.504261 818.109464 
L 604.201555 811.716655 
L 612.495032 804.765572 
L 620.398612 797.269773 
L 627.927594 789.24585 
L 635.098519 780.71314 
L 641.929019 771.693443 
L 648.437683 762.210742 
L 654.643917 752.290931 
L 660.567811 741.96155 
L 666.230008 731.25152 
L 671.651577 720.190892 
L 676.853887 708.810602 
L 681.858496 697.14223 
L 686.687029 685.217773 
L 691.361073 673.069424 
L 695.902075 660.729361 
L 700.331238 648.229544 
L 704.669435 635.601529 
L 708.937119 622.876287 
L 713.154244 610.084033 
L 717.340192 597.254078 
L 721.513708 584.41468 
L 725.692841 571.592918 
L 729.894893 558.814575 
L 734.136374 546.104038 
L 738.432971 533.484208 
L 742.799519 520.976432 
L 747.249986 508.600445 
L 751.797463 496.374334 
L 756.454164 484.31451 
L 761.231442 472.435707 
L 766.139805 460.750992 
L 771.188951 449.271799 
L 776.387808 438.007975 
L 781.744587 426.967852 
L 787.26685 416.158336 
L 792.961581 405.585013 
L 798.835278 395.252284 
L 804.89405 385.163515 
L 811.14373 375.321209 
L 817.590003 365.727207 
L 824.238542 356.382902 
L 831.095157 347.289486 
L 838.165968 338.448215 
L 845.457576 329.8607 
L 852.977263 321.529226 
L 860.733196 313.457092 
L 868.734652 305.648979 
L 876.992256 298.111347 
L 885.518235 290.852854 
L 894.326688 283.884811 
L 903.43387 277.221653 
L 912.858494 270.881451 
L 922.622052 264.886443 
L 932.749149 259.263606 
L 943.267855 254.045246 
L 954.21008 249.269625 
L 965.611956 244.981623 
L 977.514247 241.233424 
L 989.962777 238.085236 
L 1003.008866 235.606052 
L 1016.709803 233.874432 
L 1031.129321 232.979329 
L 1046.3381 233.020943 
L 1062.414293 234.111611 
L 1079.444064 236.376738 
L 1097.522155 239.955754 
L 1116.752465 245.003119 
L 1137.24866 251.689353 
L 1159.134797 260.202113 
L 1182.545973 270.747304 
L 1207.628994 283.550227 
L 1234.543071 298.85677 
" clip-path="url(#pac2a25f9dc)" style="fill: none; stroke: #8c564b; stroke-width: 1.5"/>
    <path d="M 230.727273 837.49707 
L 248.210453 833.033146 
L 265.688237 829.82691 
L 283.091652 827.669378 
L 300.364371 826.370696 
L 317.457934 825.759385 
L 334.328745 825.680758 
L 350.936388 825.995216 
L 367.242796 826.576735 
L 398.824275 828.098473 
L 428.898325 829.471738 
L 443.25725 829.901373 
L 457.131462 830.072886 
L 470.500235 829.932872 
L 483.346454 829.436952 
L 495.657288 828.549426 
L 507.424961 827.242772 
L 518.647612 825.496878 
L 529.330084 823.297938 
L 539.4845 820.636981 
L 549.130346 817.508074 
L 558.293878 813.906418 
L 567.006705 809.826633 
L 575.303645 805.261617 
L 583.220173 800.202281 
L 590.789941 794.638242 
L 598.042864 788.559288 
L 605.004096 781.957217 
L 611.693945 774.82759 
L 618.128545 767.171035 
L 624.320964 758.993926 
L 630.282431 750.308455 
L 636.023445 741.132236 
L 641.554636 731.487603 
L 646.887351 721.400788 
L 652.033978 710.901071 
L 657.008078 700.020003 
L 661.824362 688.790715 
L 666.498589 677.24733 
L 671.047399 665.424479 
L 675.488131 653.356895 
L 679.83863 641.079082 
L 688.341741 616.028025 
L 700.872767 577.705229 
L 709.30689 551.9444 
L 717.941734 526.33058 
L 722.375895 513.631994 
L 726.907525 501.03411 
L 731.550412 488.556271 
L 736.317563 476.216208 
L 741.221188 464.030059 
L 746.272691 452.012402 
L 751.48268 440.176302 
L 756.860983 428.533361 
L 762.416676 417.093793 
L 768.158132 405.86649 
L 774.093083 394.859111 
L 780.228705 384.078178 
L 786.571728 373.529182 
L 793.128567 363.216702 
L 799.905491 353.144552 
L 806.908808 343.31594 
L 814.145089 333.733662 
L 821.621416 324.400333 
L 829.345649 315.318658 
L 837.326722 306.491748 
L 845.574945 297.923496 
L 854.102317 289.619008 
L 862.922836 281.585106 
L 872.052791 273.830898 
L 881.511031 266.368415 
L 891.319181 259.213335 
L 901.501794 252.38576 
L 912.086405 245.911055 
L 923.103473 239.820712 
L 934.586177 234.153196 
L 946.570077 228.954716 
L 959.09267 224.279834 
L 972.192906 220.191833 
L 985.910814 216.762788 
L 1000.287409 214.073313 
L 1015.365097 212.212093 
L 1031.188706 211.275374 
L 1047.807205 211.366684 
L 1065.27594 212.597054 
L 1083.65912 215.08593 
L 1103.032165 218.96278 
L 1123.483613 224.369243 
L 1145.116399 231.461554 
L 1168.048509 240.412952 
L 1192.413154 251.415881 
L 1218.35865 264.683864 
L 1245.272727 279.990407 
L 1245.272727 279.990407 
" clip-path="url(#pac2a25f9dc)" style="fill: none; stroke: #17becf; stroke-width: 1.5"/>
   </g>
   <g id="patch_3">
    <path d="M 180 912.937088 
L 180 177.862912 
" style="fill: none; stroke: #000000; stroke-width: 0.8; stroke-linejoin: miter; stroke-linecap: square"/>
   </g>
   <g id="patch_4">
    <path d="M 1296 912.937088 
L 1296 177.862912 
" style="fill: none; stroke: #000000; stroke-width: 0.8; stroke-linejoin: miter; stroke-linecap: square"/>
   </g>
   <g id="patch_5">
    <path d="M 180 912.937088 
L 1296 912.937088 
" style="fill: none; stroke: #000000; stroke-width: 0.8; stroke-linejoin: miter; stroke-linecap: square"/>
   </g>
   <g id="patch_6">
    <path d="M 180 177.862912 
L 1296 177.862912 
" style="fill: none; stroke: #000000; stroke-width: 0.8; stroke-linejoin: miter; stroke-linecap: square"/>
   </g>
  </g>
 </g>
 <defs>
  <clipPath id="pac2a25f9dc">
   <rect x="180" y="177.862912" width="1116" height="735.074176"/>
  </clipPath>
 </defs>
</svg>
