<?xml version="1.0" encoding="utf-8" standalone="no"?>
<!DOCTYPE svg PUBLIC "-//W3C//DTD SVG 1.1//EN"
  "http://www.w3.org/Graphics/SVG/1.1/DTD/svg11.dtd">
<svg xmlns:xlink="http://www.w3.org/1999/xlink" width="1440pt" height="1080pt" viewBox="0 0 1440 1080" xmlns="http://www.w3.org/2000/svg" version="1.1">
 <metadata>
  <rdf:RDF xmlns:dc="http://purl.org/dc/elements/1.1/" xmlns:cc="http://creativecommons.org/ns#" xmlns:rdf="http://www.w3.org/1999/02/22-rdf-syntax-ns#">
   <cc:Work>
    <dc:type rdf:resource="http://purl.org/dc/dcmitype/StillImage"/>
    <dc:date>2023-12-11T12:06:45.379593</dc:date>
    <dc:format>image/svg+xml</dc:format>
    <dc:creator>
     <cc:Agent>
      <dc:title>Matplotlib v3.7.1, https://matplotlib.org/</dc:title>
     </cc:Agent>
    </dc:creator>
   </cc:Work>
  </rdf:RDF>
 </metadata>
 <defs>
  <style type="text/css">*{stroke-linejoin: round; stroke-linecap: butt}</style>
 </defs>
 <g id="figure_1">
  <g id="patch_1">
   <path d="M 0 1080 
L 1440 1080 
L 1440 0 
L 0 0 
z
" style="fill: #ffffff"/>
  </g>
  <g id="axes_1">
   <g id="patch_2">
    <path d="M 556.541335 961.2 
L 919.458665 961.2 
L 919.458665 129.6 
L 556.541335 129.6 
z
" style="fill: #ffffff"/>
   </g>
   <g id="matplotlib.axis_1">
    <g id="xtick_1">
     <g id="line2d_1">
      <defs>
       <path id="mbf53884a9f" d="M 0 0 
L 0 3.5 
" style="stroke: #000000; stroke-width: 0.8"/>
      </defs>
      <g>
       <use xlink:href="#mbf53884a9f" x="561.09437" y="961.2" style="stroke: #000000; stroke-width: 0.8"/>
      </g>
     </g>
     <g id="text_1">
      <!-- 600 -->
      <g transform="translate(551.55062 975.798437) scale(0.1 -0.1)">
       <defs>
        <path id="DejaVuSans-36" d="M 2113 2584 
Q 1688 2584 1439 2293 
Q 1191 2003 1191 1497 
Q 1191 994 1439 701 
Q 1688 409 2113 409 
Q 2538 409 2786 701 
Q 3034 994 3034 1497 
Q 3034 2003 2786 2293 
Q 2538 2584 2113 2584 
z
M 3366 4563 
L 3366 3988 
Q 3128 4100 2886 4159 
Q 2644 4219 2406 4219 
Q 1781 4219 1451 3797 
Q 1122 3375 1075 2522 
Q 1259 2794 1537 2939 
Q 1816 3084 2150 3084 
Q 2853 3084 3261 2657 
Q 3669 2231 3669 1497 
Q 3669 778 3244 343 
Q 2819 -91 2113 -91 
Q 1303 -91 875 529 
Q 447 1150 447 2328 
Q 447 3434 972 4092 
Q 1497 4750 2381 4750 
Q 2619 4750 2861 4703 
Q 3103 4656 3366 4563 
z
" transform="scale(0.015625)"/>
        <path id="DejaVuSans-30" d="M 2034 4250 
Q 1547 4250 1301 3770 
Q 1056 3291 1056 2328 
Q 1056 1369 1301 889 
Q 1547 409 2034 409 
Q 2525 409 2770 889 
Q 3016 1369 3016 2328 
Q 3016 3291 2770 3770 
Q 2525 4250 2034 4250 
z
M 2034 4750 
Q 2819 4750 3233 4129 
Q 3647 3509 3647 2328 
Q 3647 1150 3233 529 
Q 2819 -91 2034 -91 
Q 1250 -91 836 529 
Q 422 1150 422 2328 
Q 422 3509 836 4129 
Q 1250 4750 2034 4750 
z
" transform="scale(0.015625)"/>
       </defs>
       <use xlink:href="#DejaVuSans-36"/>
       <use xlink:href="#DejaVuSans-30" x="63.623047"/>
       <use xlink:href="#DejaVuSans-30" x="127.246094"/>
      </g>
     </g>
    </g>
    <g id="xtick_2">
     <g id="line2d_2">
      <g>
       <use xlink:href="#mbf53884a9f" x="623.602507" y="961.2" style="stroke: #000000; stroke-width: 0.8"/>
      </g>
     </g>
     <g id="text_2">
      <!-- 700 -->
      <g transform="translate(614.058757 975.798437) scale(0.1 -0.1)">
       <defs>
        <path id="DejaVuSans-37" d="M 525 4666 
L 3525 4666 
L 3525 4397 
L 1831 0 
L 1172 0 
L 2766 4134 
L 525 4134 
L 525 4666 
z
" transform="scale(0.015625)"/>
       </defs>
       <use xlink:href="#DejaVuSans-37"/>
       <use xlink:href="#DejaVuSans-30" x="63.623047"/>
       <use xlink:href="#DejaVuSans-30" x="127.246094"/>
      </g>
     </g>
    </g>
    <g id="xtick_3">
     <g id="line2d_3">
      <g>
       <use xlink:href="#mbf53884a9f" x="686.110644" y="961.2" style="stroke: #000000; stroke-width: 0.8"/>
      </g>
     </g>
     <g id="text_3">
      <!-- 800 -->
      <g transform="translate(676.566894 975.798437) scale(0.1 -0.1)">
       <defs>
        <path id="DejaVuSans-38" d="M 2034 2216 
Q 1584 2216 1326 1975 
Q 1069 1734 1069 1313 
Q 1069 891 1326 650 
Q 1584 409 2034 409 
Q 2484 409 2743 651 
Q 3003 894 3003 1313 
Q 3003 1734 2745 1975 
Q 2488 2216 2034 2216 
z
M 1403 2484 
Q 997 2584 770 2862 
Q 544 3141 544 3541 
Q 544 4100 942 4425 
Q 1341 4750 2034 4750 
Q 2731 4750 3128 4425 
Q 3525 4100 3525 3541 
Q 3525 3141 3298 2862 
Q 3072 2584 2669 2484 
Q 3125 2378 3379 2068 
Q 3634 1759 3634 1313 
Q 3634 634 3220 271 
Q 2806 -91 2034 -91 
Q 1263 -91 848 271 
Q 434 634 434 1313 
Q 434 1759 690 2068 
Q 947 2378 1403 2484 
z
M 1172 3481 
Q 1172 3119 1398 2916 
Q 1625 2713 2034 2713 
Q 2441 2713 2670 2916 
Q 2900 3119 2900 3481 
Q 2900 3844 2670 4047 
Q 2441 4250 2034 4250 
Q 1625 4250 1398 4047 
Q 1172 3844 1172 3481 
z
" transform="scale(0.015625)"/>
       </defs>
       <use xlink:href="#DejaVuSans-38"/>
       <use xlink:href="#DejaVuSans-30" x="63.623047"/>
       <use xlink:href="#DejaVuSans-30" x="127.246094"/>
      </g>
     </g>
    </g>
    <g id="xtick_4">
     <g id="line2d_4">
      <g>
       <use xlink:href="#mbf53884a9f" x="748.618781" y="961.2" style="stroke: #000000; stroke-width: 0.8"/>
      </g>
     </g>
     <g id="text_4">
      <!-- 900 -->
      <g transform="translate(739.075031 975.798437) scale(0.1 -0.1)">
       <defs>
        <path id="DejaVuSans-39" d="M 703 97 
L 703 672 
Q 941 559 1184 500 
Q 1428 441 1663 441 
Q 2288 441 2617 861 
Q 2947 1281 2994 2138 
Q 2813 1869 2534 1725 
Q 2256 1581 1919 1581 
Q 1219 1581 811 2004 
Q 403 2428 403 3163 
Q 403 3881 828 4315 
Q 1253 4750 1959 4750 
Q 2769 4750 3195 4129 
Q 3622 3509 3622 2328 
Q 3622 1225 3098 567 
Q 2575 -91 1691 -91 
Q 1453 -91 1209 -44 
Q 966 3 703 97 
z
M 1959 2075 
Q 2384 2075 2632 2365 
Q 2881 2656 2881 3163 
Q 2881 3666 2632 3958 
Q 2384 4250 1959 4250 
Q 1534 4250 1286 3958 
Q 1038 3666 1038 3163 
Q 1038 2656 1286 2365 
Q 1534 2075 1959 2075 
z
" transform="scale(0.015625)"/>
       </defs>
       <use xlink:href="#DejaVuSans-39"/>
       <use xlink:href="#DejaVuSans-30" x="63.623047"/>
       <use xlink:href="#DejaVuSans-30" x="127.246094"/>
      </g>
     </g>
    </g>
    <g id="xtick_5">
     <g id="line2d_5">
      <g>
       <use xlink:href="#mbf53884a9f" x="811.126917" y="961.2" style="stroke: #000000; stroke-width: 0.8"/>
      </g>
     </g>
     <g id="text_5">
      <!-- 1000 -->
      <g transform="translate(798.401917 975.798437) scale(0.1 -0.1)">
       <defs>
        <path id="DejaVuSans-31" d="M 794 531 
L 1825 531 
L 1825 4091 
L 703 3866 
L 703 4441 
L 1819 4666 
L 2450 4666 
L 2450 531 
L 3481 531 
L 3481 0 
L 794 0 
L 794 531 
z
" transform="scale(0.015625)"/>
       </defs>
       <use xlink:href="#DejaVuSans-31"/>
       <use xlink:href="#DejaVuSans-30" x="63.623047"/>
       <use xlink:href="#DejaVuSans-30" x="127.246094"/>
       <use xlink:href="#DejaVuSans-30" x="190.869141"/>
      </g>
     </g>
    </g>
    <g id="xtick_6">
     <g id="line2d_6">
      <g>
       <use xlink:href="#mbf53884a9f" x="873.635054" y="961.2" style="stroke: #000000; stroke-width: 0.8"/>
      </g>
     </g>
     <g id="text_6">
      <!-- 1100 -->
      <g transform="translate(860.910054 975.798437) scale(0.1 -0.1)">
       <use xlink:href="#DejaVuSans-31"/>
       <use xlink:href="#DejaVuSans-31" x="63.623047"/>
       <use xlink:href="#DejaVuSans-30" x="127.246094"/>
       <use xlink:href="#DejaVuSans-30" x="190.869141"/>
      </g>
     </g>
    </g>
   </g>
   <g id="matplotlib.axis_2">
    <g id="ytick_1">
     <g id="line2d_7">
      <defs>
       <path id="me19458487f" d="M 0 0 
L -3.5 0 
" style="stroke: #000000; stroke-width: 0.8"/>
      </defs>
      <g>
       <use xlink:href="#me19458487f" x="556.541335" y="836.485445" style="stroke: #000000; stroke-width: 0.8"/>
      </g>
     </g>
     <g id="text_7">
      <!-- 200 -->
      <g transform="translate(530.453835 840.284664) scale(0.1 -0.1)">
       <defs>
        <path id="DejaVuSans-32" d="M 1228 531 
L 3431 531 
L 3431 0 
L 469 0 
L 469 531 
Q 828 903 1448 1529 
Q 2069 2156 2228 2338 
Q 2531 2678 2651 2914 
Q 2772 3150 2772 3378 
Q 2772 3750 2511 3984 
Q 2250 4219 1831 4219 
Q 1534 4219 1204 4116 
Q 875 4013 500 3803 
L 500 4441 
Q 881 4594 1212 4672 
Q 1544 4750 1819 4750 
Q 2544 4750 2975 4387 
Q 3406 4025 3406 3419 
Q 3406 3131 3298 2873 
Q 3191 2616 2906 2266 
Q 2828 2175 2409 1742 
Q 1991 1309 1228 531 
z
" transform="scale(0.015625)"/>
       </defs>
       <use xlink:href="#DejaVuSans-32"/>
       <use xlink:href="#DejaVuSans-30" x="63.623047"/>
       <use xlink:href="#DejaVuSans-30" x="127.246094"/>
      </g>
     </g>
    </g>
    <g id="ytick_2">
     <g id="line2d_8">
      <g>
       <use xlink:href="#me19458487f" x="556.541335" y="711.469172" style="stroke: #000000; stroke-width: 0.8"/>
      </g>
     </g>
     <g id="text_8">
      <!-- 400 -->
      <g transform="translate(530.453835 715.268391) scale(0.1 -0.1)">
       <defs>
        <path id="DejaVuSans-34" d="M 2419 4116 
L 825 1625 
L 2419 1625 
L 2419 4116 
z
M 2253 4666 
L 3047 4666 
L 3047 1625 
L 3713 1625 
L 3713 1100 
L 3047 1100 
L 3047 0 
L 2419 0 
L 2419 1100 
L 313 1100 
L 313 1709 
L 2253 4666 
z
" transform="scale(0.015625)"/>
       </defs>
       <use xlink:href="#DejaVuSans-34"/>
       <use xlink:href="#DejaVuSans-30" x="63.623047"/>
       <use xlink:href="#DejaVuSans-30" x="127.246094"/>
      </g>
     </g>
    </g>
    <g id="ytick_3">
     <g id="line2d_9">
      <g>
       <use xlink:href="#me19458487f" x="556.541335" y="586.452898" style="stroke: #000000; stroke-width: 0.8"/>
      </g>
     </g>
     <g id="text_9">
      <!-- 600 -->
      <g transform="translate(530.453835 590.252117) scale(0.1 -0.1)">
       <use xlink:href="#DejaVuSans-36"/>
       <use xlink:href="#DejaVuSans-30" x="63.623047"/>
       <use xlink:href="#DejaVuSans-30" x="127.246094"/>
      </g>
     </g>
    </g>
    <g id="ytick_4">
     <g id="line2d_10">
      <g>
       <use xlink:href="#me19458487f" x="556.541335" y="461.436625" style="stroke: #000000; stroke-width: 0.8"/>
      </g>
     </g>
     <g id="text_10">
      <!-- 800 -->
      <g transform="translate(530.453835 465.235844) scale(0.1 -0.1)">
       <use xlink:href="#DejaVuSans-38"/>
       <use xlink:href="#DejaVuSans-30" x="63.623047"/>
       <use xlink:href="#DejaVuSans-30" x="127.246094"/>
      </g>
     </g>
    </g>
    <g id="ytick_5">
     <g id="line2d_11">
      <g>
       <use xlink:href="#me19458487f" x="556.541335" y="336.420352" style="stroke: #000000; stroke-width: 0.8"/>
      </g>
     </g>
     <g id="text_11">
      <!-- 1000 -->
      <g transform="translate(524.091335 340.21957) scale(0.1 -0.1)">
       <use xlink:href="#DejaVuSans-31"/>
       <use xlink:href="#DejaVuSans-30" x="63.623047"/>
       <use xlink:href="#DejaVuSans-30" x="127.246094"/>
       <use xlink:href="#DejaVuSans-30" x="190.869141"/>
      </g>
     </g>
    </g>
    <g id="ytick_6">
     <g id="line2d_12">
      <g>
       <use xlink:href="#me19458487f" x="556.541335" y="211.404078" style="stroke: #000000; stroke-width: 0.8"/>
      </g>
     </g>
     <g id="text_12">
      <!-- 1200 -->
      <g transform="translate(524.091335 215.203297) scale(0.1 -0.1)">
       <use xlink:href="#DejaVuSans-31"/>
       <use xlink:href="#DejaVuSans-32" x="63.623047"/>
       <use xlink:href="#DejaVuSans-30" x="127.246094"/>
       <use xlink:href="#DejaVuSans-30" x="190.869141"/>
      </g>
     </g>
    </g>
   </g>
   <g id="LineCollection_1">
    <path d="M 573.037577 170.397091 
L 574.010548 181.311782 
L 577.283805 223.374135 
L 578.324592 233.56253 
L 579.574145 243.584961 
L 581.080141 253.430648 
L 582.883013 263.088941 
L 585.015812 272.549016 
L 587.50403 281.79984 
L 590.365491 290.830429 
L 593.610406 299.630384 
L 597.241683 308.19061 
L 601.255527 316.504091 
L 605.642313 324.566555 
L 610.387637 332.376915 
L 615.473422 339.937414 
L 620.878962 347.253488 
L 626.58181 354.333387 
L 632.55846 361.187673 
L 638.784837 367.828649 
L 645.23661 374.269817 
L 651.889379 380.5254 
L 658.718776 386.609939 
L 665.700527 392.537994 
L 672.810488 398.32391 
L 680.024678 403.981657 
L 687.319328 409.52472 
L 702.056324 420.317912 
L 716.837884 430.799563 
L 745.880646 451.188733 
L 759.814286 461.231109 
L 773.163156 471.245848 
L 779.580912 476.257954 
L 785.810075 481.280185 
L 791.839182 486.317152 
L 797.658132 491.373033 
L 803.258225 496.451635 
L 808.632182 501.556465 
L 813.774149 506.690808 
L 818.679688 511.857815 
L 823.345737 517.060604 
L 827.770562 522.302346 
L 831.953661 527.586364 
L 835.895662 532.916212 
L 839.598182 538.295742 
L 843.063674 543.729141 
L 846.29525 549.22095 
L 849.296508 554.776039 
L 852.071359 560.399563 
L 854.623864 566.096883 
L 856.958095 571.873469 
L 859.078031 577.734795 
L 860.987469 583.686227 
L 862.68998 589.732932 
L 864.188884 595.879792 
L 865.487239 602.131355 
L 866.587859 608.491805 
L 867.493319 614.964964 
L 868.205969 621.554316 
L 868.727945 628.263061 
L 869.061162 635.094169 
L 869.207303 642.050465 
L 869.167797 649.134707 
L 868.943783 656.349671 
L 868.53607 663.698235 
L 867.945089 671.183462 
L 867.17084 678.808677 
L 866.212841 686.577534 
L 865.070071 694.494084 
L 863.740922 702.562832 
L 862.223147 710.788791 
L 860.513817 719.177523 
L 858.609285 727.73518 
L 856.505149 736.468541 
L 854.196235 745.385032 
L 851.676577 754.492754 
L 848.939412 763.800498 
L 845.97718 773.317752 
L 842.78154 783.054709 
L 839.343395 793.02227 
L 835.652921 803.232035 
L 831.699619 813.696296 
L 827.472372 824.428024 
L 822.959514 835.440851 
L 818.148916 846.749048 
L 813.028084 858.367505 
L 807.584264 870.311699 
L 801.80457 882.597668 
L 795.676119 895.241977 
L 789.146367 908.341558 
L 789.146367 908.341558 
" clip-path="url(#pf7da48203d)" style="fill: none; stroke: #1f77b4; stroke-width: 1.5"/>
    <path d="M 589.848113 168.898545 
L 590.83006 179.913925 
L 591.662144 190.708817 
L 592.430925 201.271547 
L 593.212731 211.592846 
L 594.074307 221.665682 
L 595.073443 231.48509 
L 596.259579 241.048018 
L 597.674385 250.353178 
L 599.352321 259.400896 
L 601.32117 268.192976 
L 603.602554 276.732564 
L 606.212428 285.024024 
L 609.16155 293.072817 
L 612.455932 300.885378 
L 616.097271 308.469016 
L 620.083361 315.831802 
L 624.408485 322.98247 
L 629.063786 329.930328 
L 634.037618 336.685161 
L 639.31589 343.257152 
L 644.882373 349.656805 
L 650.719011 355.894862 
L 656.806193 361.982241 
L 663.12303 367.92997 
L 669.647597 373.749121 
L 676.357172 379.45076 
L 683.228452 385.045891 
L 690.23776 390.54541 
L 697.361229 395.960061 
L 704.574983 401.300394 
L 711.85529 406.576732 
L 719.178718 411.799138 
L 726.522261 416.977384 
L 733.863466 422.120929 
L 741.18054 427.238896 
L 748.452447 432.340052 
L 755.658995 437.432794 
L 762.780908 442.52514 
L 769.799892 447.624713 
L 776.698688 452.738742 
L 783.461116 457.874054 
L 790.072107 463.037072 
L 796.51773 468.233823 
L 802.785208 473.469935 
L 808.862924 478.750648 
L 814.740421 484.080822 
L 820.408397 489.464946 
L 825.858687 494.907155 
L 831.084243 500.411237 
L 836.079104 505.980661 
L 840.838365 511.618584 
L 845.358135 517.327878 
L 849.635492 523.111151 
L 853.668437 528.970766 
L 857.455834 534.908867 
L 860.997358 540.927408 
L 864.293429 547.028172 
L 867.345152 553.212805 
L 870.154243 559.48284 
L 872.722965 565.839727 
L 875.054055 572.284864 
L 877.150646 578.819624 
L 879.016198 585.445388 
L 880.654418 592.163577 
L 882.069189 598.975677 
L 883.264489 605.883277 
L 884.244316 612.888096 
L 885.012618 619.992015 
L 885.573212 627.197108 
L 885.929719 634.505672 
L 886.085489 641.920256 
L 886.043534 649.443695 
L 885.806465 657.07913 
L 885.376428 664.830047 
L 884.755048 672.700294 
L 883.943372 680.694115 
L 882.941819 688.816169 
L 881.750137 697.071559 
L 880.367362 705.465852 
L 878.791782 714.0051 
L 877.020909 722.695861 
L 875.051458 731.545216 
L 872.879329 740.560787 
L 870.4996 749.750749 
L 867.906527 759.123846 
L 865.093546 768.689399 
L 862.053295 778.457317 
L 858.777633 788.438099 
L 855.257676 798.642842 
L 851.483836 809.083241 
L 847.445876 819.771588 
L 843.132974 830.720769 
L 838.533792 841.944253 
L 833.636565 853.45609 
L 828.429194 865.270891 
L 822.899355 877.403817 
L 817.034618 889.870561 
L 810.822583 902.687321 
L 804.251022 915.870779 
" clip-path="url(#pf7da48203d)" style="fill: none; stroke: #8c564b; stroke-width: 1.5"/>
    <path d="M 606.65865 167.4 
L 607.657341 178.616857 
L 610.878541 220.092188 
L 611.845149 229.591914 
L 612.979879 238.740391 
L 614.318614 247.545231 
L 615.889735 256.016986 
L 617.71531 264.169263 
L 619.812301 272.018636 
L 622.19371 279.584273 
L 624.869576 286.887292 
L 627.847713 293.949885 
L 631.134128 300.79434 
L 634.733116 307.442101 
L 638.647079 313.913002 
L 642.876189 320.224787 
L 647.418016 326.392925 
L 652.267239 332.430707 
L 657.415495 338.349532 
L 662.851401 344.159297 
L 668.560734 349.868816 
L 674.526725 355.486199 
L 680.730422 361.019172 
L 687.151092 366.475306 
L 693.76662 371.862184 
L 700.55389 377.187492 
L 707.489128 382.459065 
L 721.706943 392.873123 
L 736.227465 403.169798 
L 765.475386 423.704056 
L 779.850498 434.066502 
L 793.849189 444.572636 
L 800.665162 449.898314 
L 807.338355 455.28184 
L 813.854584 460.729891 
L 820.200601 466.248774 
L 826.364067 471.844376 
L 832.333519 477.522115 
L 838.098335 483.286879 
L 843.64871 489.142966 
L 848.97565 495.094023 
L 854.07096 501.142984 
L 858.927273 507.292029 
L 863.538069 513.542549 
L 867.897731 519.89514 
L 872.001594 526.349624 
L 875.846006 532.905101 
L 879.42838 539.560038 
L 882.747231 546.31239 
L 885.802188 553.15974 
L 888.593983 560.099467 
L 891.124397 567.128908 
L 893.396181 574.245527 
L 895.412941 581.447066 
L 897.179 588.731669 
L 898.699244 596.097993 
L 899.978959 603.545273 
L 901.023666 611.07338 
L 901.838961 618.682837 
L 902.430366 626.374828 
L 902.803193 634.151185 
L 902.962423 642.014372 
L 902.912602 649.967454 
L 902.657745 658.014073 
L 902.201267 666.158419 
L 901.545911 674.405205 
L 900.693696 682.759644 
L 899.645878 691.227433 
L 898.402907 699.814737 
L 896.964408 708.52818 
L 895.329153 717.374838 
L 893.495055 726.362233 
L 891.459158 735.498337 
L 889.217635 744.79157 
L 886.765801 754.250804 
L 884.098118 763.885372 
L 881.208223 773.70507 
L 878.088948 783.720168 
L 874.732359 793.941417 
L 871.129793 804.380059 
L 867.271914 815.047832 
L 863.148763 825.956985 
L 858.749827 837.120274 
L 854.064116 848.550977 
L 849.080245 860.262888 
L 843.786529 872.270322 
L 838.171086 884.588105 
L 832.221959 897.231571 
L 825.927239 910.216543 
L 819.355677 923.4 
L 819.355677 923.4 
" clip-path="url(#pf7da48203d)" style="fill: none; stroke: #17becf; stroke-width: 1.5"/>
   </g>
   <g id="patch_3">
    <path d="M 556.541335 961.2 
L 556.541335 129.6 
" style="fill: none; stroke: #000000; stroke-width: 0.8; stroke-linejoin: miter; stroke-linecap: square"/>
   </g>
   <g id="patch_4">
    <path d="M 919.458665 961.2 
L 919.458665 129.6 
" style="fill: none; stroke: #000000; stroke-width: 0.8; stroke-linejoin: miter; stroke-linecap: square"/>
   </g>
   <g id="patch_5">
    <path d="M 556.541335 961.2 
L 919.458665 961.2 
" style="fill: none; stroke: #000000; stroke-width: 0.8; stroke-linejoin: miter; stroke-linecap: square"/>
   </g>
   <g id="patch_6">
    <path d="M 556.541335 129.6 
L 919.458665 129.6 
" style="fill: none; stroke: #000000; stroke-width: 0.8; stroke-linejoin: miter; stroke-linecap: square"/>
   </g>
  </g>
 </g>
 <defs>
  <clipPath id="pf7da48203d">
   <rect x="556.541335" y="129.6" width="362.917331" height="831.6"/>
  </clipPath>
 </defs>
</svg>
