<?xml version="1.0" encoding="utf-8" standalone="no"?>
<!DOCTYPE svg PUBLIC "-//W3C//DTD SVG 1.1//EN"
  "http://www.w3.org/Graphics/SVG/1.1/DTD/svg11.dtd">
<svg xmlns:xlink="http://www.w3.org/1999/xlink" width="1440pt" height="1080pt" viewBox="0 0 1440 1080" xmlns="http://www.w3.org/2000/svg" version="1.1">
 <metadata>
  <rdf:RDF xmlns:dc="http://purl.org/dc/elements/1.1/" xmlns:cc="http://creativecommons.org/ns#" xmlns:rdf="http://www.w3.org/1999/02/22-rdf-syntax-ns#">
   <cc:Work>
    <dc:type rdf:resource="http://purl.org/dc/dcmitype/StillImage"/>
    <dc:date>2023-12-11T12:06:41.972019</dc:date>
    <dc:format>image/svg+xml</dc:format>
    <dc:creator>
     <cc:Agent>
      <dc:title>Matplotlib v3.7.1, https://matplotlib.org/</dc:title>
     </cc:Agent>
    </dc:creator>
   </cc:Work>
  </rdf:RDF>
 </metadata>
 <defs>
  <style type="text/css">*{stroke-linejoin: round; stroke-linecap: butt}</style>
 </defs>
 <g id="figure_1">
  <g id="patch_1">
   <path d="M 0 1080 
L 1440 1080 
L 1440 0 
L 0 0 
z
" style="fill: #ffffff"/>
  </g>
  <g id="axes_1">
   <g id="patch_2">
    <path d="M 180 664.363196 
L 1296 664.363196 
L 1296 426.436804 
L 180 426.436804 
z
" style="fill: #ffffff"/>
   </g>
   <g id="matplotlib.axis_1">
    <g id="xtick_1">
     <g id="line2d_1">
      <defs>
       <path id="m3e7157791b" d="M 0 0 
L 0 3.5 
" style="stroke: #000000; stroke-width: 0.8"/>
      </defs>
      <g>
       <use xlink:href="#m3e7157791b" x="244.243868" y="664.363196" style="stroke: #000000; stroke-width: 0.8"/>
      </g>
     </g>
     <g id="text_1">
      <!-- 800 -->
      <g transform="translate(234.700118 678.961633) scale(0.1 -0.1)">
       <defs>
        <path id="DejaVuSans-38" d="M 2034 2216 
Q 1584 2216 1326 1975 
Q 1069 1734 1069 1313 
Q 1069 891 1326 650 
Q 1584 409 2034 409 
Q 2484 409 2743 651 
Q 3003 894 3003 1313 
Q 3003 1734 2745 1975 
Q 2488 2216 2034 2216 
z
M 1403 2484 
Q 997 2584 770 2862 
Q 544 3141 544 3541 
Q 544 4100 942 4425 
Q 1341 4750 2034 4750 
Q 2731 4750 3128 4425 
Q 3525 4100 3525 3541 
Q 3525 3141 3298 2862 
Q 3072 2584 2669 2484 
Q 3125 2378 3379 2068 
Q 3634 1759 3634 1313 
Q 3634 634 3220 271 
Q 2806 -91 2034 -91 
Q 1263 -91 848 271 
Q 434 634 434 1313 
Q 434 1759 690 2068 
Q 947 2378 1403 2484 
z
M 1172 3481 
Q 1172 3119 1398 2916 
Q 1625 2713 2034 2713 
Q 2441 2713 2670 2916 
Q 2900 3119 2900 3481 
Q 2900 3844 2670 4047 
Q 2441 4250 2034 4250 
Q 1625 4250 1398 4047 
Q 1172 3844 1172 3481 
z
" transform="scale(0.015625)"/>
        <path id="DejaVuSans-30" d="M 2034 4250 
Q 1547 4250 1301 3770 
Q 1056 3291 1056 2328 
Q 1056 1369 1301 889 
Q 1547 409 2034 409 
Q 2525 409 2770 889 
Q 3016 1369 3016 2328 
Q 3016 3291 2770 3770 
Q 2525 4250 2034 4250 
z
M 2034 4750 
Q 2819 4750 3233 4129 
Q 3647 3509 3647 2328 
Q 3647 1150 3233 529 
Q 2819 -91 2034 -91 
Q 1250 -91 836 529 
Q 422 1150 422 2328 
Q 422 3509 836 4129 
Q 1250 4750 2034 4750 
z
" transform="scale(0.015625)"/>
       </defs>
       <use xlink:href="#DejaVuSans-38"/>
       <use xlink:href="#DejaVuSans-30" x="63.623047"/>
       <use xlink:href="#DejaVuSans-30" x="127.246094"/>
      </g>
     </g>
    </g>
    <g id="xtick_2">
     <g id="line2d_2">
      <g>
       <use xlink:href="#m3e7157791b" x="464.413159" y="664.363196" style="stroke: #000000; stroke-width: 0.8"/>
      </g>
     </g>
     <g id="text_2">
      <!-- 1000 -->
      <g transform="translate(451.688159 678.961633) scale(0.1 -0.1)">
       <defs>
        <path id="DejaVuSans-31" d="M 794 531 
L 1825 531 
L 1825 4091 
L 703 3866 
L 703 4441 
L 1819 4666 
L 2450 4666 
L 2450 531 
L 3481 531 
L 3481 0 
L 794 0 
L 794 531 
z
" transform="scale(0.015625)"/>
       </defs>
       <use xlink:href="#DejaVuSans-31"/>
       <use xlink:href="#DejaVuSans-30" x="63.623047"/>
       <use xlink:href="#DejaVuSans-30" x="127.246094"/>
       <use xlink:href="#DejaVuSans-30" x="190.869141"/>
      </g>
     </g>
    </g>
    <g id="xtick_3">
     <g id="line2d_3">
      <g>
       <use xlink:href="#m3e7157791b" x="684.582449" y="664.363196" style="stroke: #000000; stroke-width: 0.8"/>
      </g>
     </g>
     <g id="text_3">
      <!-- 1200 -->
      <g transform="translate(671.857449 678.961633) scale(0.1 -0.1)">
       <defs>
        <path id="DejaVuSans-32" d="M 1228 531 
L 3431 531 
L 3431 0 
L 469 0 
L 469 531 
Q 828 903 1448 1529 
Q 2069 2156 2228 2338 
Q 2531 2678 2651 2914 
Q 2772 3150 2772 3378 
Q 2772 3750 2511 3984 
Q 2250 4219 1831 4219 
Q 1534 4219 1204 4116 
Q 875 4013 500 3803 
L 500 4441 
Q 881 4594 1212 4672 
Q 1544 4750 1819 4750 
Q 2544 4750 2975 4387 
Q 3406 4025 3406 3419 
Q 3406 3131 3298 2873 
Q 3191 2616 2906 2266 
Q 2828 2175 2409 1742 
Q 1991 1309 1228 531 
z
" transform="scale(0.015625)"/>
       </defs>
       <use xlink:href="#DejaVuSans-31"/>
       <use xlink:href="#DejaVuSans-32" x="63.623047"/>
       <use xlink:href="#DejaVuSans-30" x="127.246094"/>
       <use xlink:href="#DejaVuSans-30" x="190.869141"/>
      </g>
     </g>
    </g>
    <g id="xtick_4">
     <g id="line2d_4">
      <g>
       <use xlink:href="#m3e7157791b" x="904.75174" y="664.363196" style="stroke: #000000; stroke-width: 0.8"/>
      </g>
     </g>
     <g id="text_4">
      <!-- 1400 -->
      <g transform="translate(892.02674 678.961633) scale(0.1 -0.1)">
       <defs>
        <path id="DejaVuSans-34" d="M 2419 4116 
L 825 1625 
L 2419 1625 
L 2419 4116 
z
M 2253 4666 
L 3047 4666 
L 3047 1625 
L 3713 1625 
L 3713 1100 
L 3047 1100 
L 3047 0 
L 2419 0 
L 2419 1100 
L 313 1100 
L 313 1709 
L 2253 4666 
z
" transform="scale(0.015625)"/>
       </defs>
       <use xlink:href="#DejaVuSans-31"/>
       <use xlink:href="#DejaVuSans-34" x="63.623047"/>
       <use xlink:href="#DejaVuSans-30" x="127.246094"/>
       <use xlink:href="#DejaVuSans-30" x="190.869141"/>
      </g>
     </g>
    </g>
    <g id="xtick_5">
     <g id="line2d_5">
      <g>
       <use xlink:href="#m3e7157791b" x="1124.921031" y="664.363196" style="stroke: #000000; stroke-width: 0.8"/>
      </g>
     </g>
     <g id="text_5">
      <!-- 1600 -->
      <g transform="translate(1112.196031 678.961633) scale(0.1 -0.1)">
       <defs>
        <path id="DejaVuSans-36" d="M 2113 2584 
Q 1688 2584 1439 2293 
Q 1191 2003 1191 1497 
Q 1191 994 1439 701 
Q 1688 409 2113 409 
Q 2538 409 2786 701 
Q 3034 994 3034 1497 
Q 3034 2003 2786 2293 
Q 2538 2584 2113 2584 
z
M 3366 4563 
L 3366 3988 
Q 3128 4100 2886 4159 
Q 2644 4219 2406 4219 
Q 1781 4219 1451 3797 
Q 1122 3375 1075 2522 
Q 1259 2794 1537 2939 
Q 1816 3084 2150 3084 
Q 2853 3084 3261 2657 
Q 3669 2231 3669 1497 
Q 3669 778 3244 343 
Q 2819 -91 2113 -91 
Q 1303 -91 875 529 
Q 447 1150 447 2328 
Q 447 3434 972 4092 
Q 1497 4750 2381 4750 
Q 2619 4750 2861 4703 
Q 3103 4656 3366 4563 
z
" transform="scale(0.015625)"/>
       </defs>
       <use xlink:href="#DejaVuSans-31"/>
       <use xlink:href="#DejaVuSans-36" x="63.623047"/>
       <use xlink:href="#DejaVuSans-30" x="127.246094"/>
       <use xlink:href="#DejaVuSans-30" x="190.869141"/>
      </g>
     </g>
    </g>
   </g>
   <g id="matplotlib.axis_2">
    <g id="ytick_1">
     <g id="line2d_6">
      <defs>
       <path id="m3287184d44" d="M 0 0 
L -3.5 0 
" style="stroke: #000000; stroke-width: 0.8"/>
      </defs>
      <g>
       <use xlink:href="#m3287184d44" x="180" y="647.434951" style="stroke: #000000; stroke-width: 0.8"/>
      </g>
     </g>
     <g id="text_6">
      <!-- 900 -->
      <g transform="translate(153.9125 651.23417) scale(0.1 -0.1)">
       <defs>
        <path id="DejaVuSans-39" d="M 703 97 
L 703 672 
Q 941 559 1184 500 
Q 1428 441 1663 441 
Q 2288 441 2617 861 
Q 2947 1281 2994 2138 
Q 2813 1869 2534 1725 
Q 2256 1581 1919 1581 
Q 1219 1581 811 2004 
Q 403 2428 403 3163 
Q 403 3881 828 4315 
Q 1253 4750 1959 4750 
Q 2769 4750 3195 4129 
Q 3622 3509 3622 2328 
Q 3622 1225 3098 567 
Q 2575 -91 1691 -91 
Q 1453 -91 1209 -44 
Q 966 3 703 97 
z
M 1959 2075 
Q 2384 2075 2632 2365 
Q 2881 2656 2881 3163 
Q 2881 3666 2632 3958 
Q 2384 4250 1959 4250 
Q 1534 4250 1286 3958 
Q 1038 3666 1038 3163 
Q 1038 2656 1286 2365 
Q 1534 2075 1959 2075 
z
" transform="scale(0.015625)"/>
       </defs>
       <use xlink:href="#DejaVuSans-39"/>
       <use xlink:href="#DejaVuSans-30" x="63.623047"/>
       <use xlink:href="#DejaVuSans-30" x="127.246094"/>
      </g>
     </g>
    </g>
    <g id="ytick_2">
     <g id="line2d_7">
      <g>
       <use xlink:href="#m3287184d44" x="180" y="619.91379" style="stroke: #000000; stroke-width: 0.8"/>
      </g>
     </g>
     <g id="text_7">
      <!-- 925 -->
      <g transform="translate(153.9125 623.713009) scale(0.1 -0.1)">
       <defs>
        <path id="DejaVuSans-35" d="M 691 4666 
L 3169 4666 
L 3169 4134 
L 1269 4134 
L 1269 2991 
Q 1406 3038 1543 3061 
Q 1681 3084 1819 3084 
Q 2600 3084 3056 2656 
Q 3513 2228 3513 1497 
Q 3513 744 3044 326 
Q 2575 -91 1722 -91 
Q 1428 -91 1123 -41 
Q 819 9 494 109 
L 494 744 
Q 775 591 1075 516 
Q 1375 441 1709 441 
Q 2250 441 2565 725 
Q 2881 1009 2881 1497 
Q 2881 1984 2565 2268 
Q 2250 2553 1709 2553 
Q 1456 2553 1204 2497 
Q 953 2441 691 2322 
L 691 4666 
z
" transform="scale(0.015625)"/>
       </defs>
       <use xlink:href="#DejaVuSans-39"/>
       <use xlink:href="#DejaVuSans-32" x="63.623047"/>
       <use xlink:href="#DejaVuSans-35" x="127.246094"/>
      </g>
     </g>
    </g>
    <g id="ytick_3">
     <g id="line2d_8">
      <g>
       <use xlink:href="#m3287184d44" x="180" y="592.392629" style="stroke: #000000; stroke-width: 0.8"/>
      </g>
     </g>
     <g id="text_8">
      <!-- 950 -->
      <g transform="translate(153.9125 596.191847) scale(0.1 -0.1)">
       <use xlink:href="#DejaVuSans-39"/>
       <use xlink:href="#DejaVuSans-35" x="63.623047"/>
       <use xlink:href="#DejaVuSans-30" x="127.246094"/>
      </g>
     </g>
    </g>
    <g id="ytick_4">
     <g id="line2d_9">
      <g>
       <use xlink:href="#m3287184d44" x="180" y="564.871467" style="stroke: #000000; stroke-width: 0.8"/>
      </g>
     </g>
     <g id="text_9">
      <!-- 975 -->
      <g transform="translate(153.9125 568.670686) scale(0.1 -0.1)">
       <defs>
        <path id="DejaVuSans-37" d="M 525 4666 
L 3525 4666 
L 3525 4397 
L 1831 0 
L 1172 0 
L 2766 4134 
L 525 4134 
L 525 4666 
z
" transform="scale(0.015625)"/>
       </defs>
       <use xlink:href="#DejaVuSans-39"/>
       <use xlink:href="#DejaVuSans-37" x="63.623047"/>
       <use xlink:href="#DejaVuSans-35" x="127.246094"/>
      </g>
     </g>
    </g>
    <g id="ytick_5">
     <g id="line2d_10">
      <g>
       <use xlink:href="#m3287184d44" x="180" y="537.350306" style="stroke: #000000; stroke-width: 0.8"/>
      </g>
     </g>
     <g id="text_10">
      <!-- 1000 -->
      <g transform="translate(147.55 541.149525) scale(0.1 -0.1)">
       <use xlink:href="#DejaVuSans-31"/>
       <use xlink:href="#DejaVuSans-30" x="63.623047"/>
       <use xlink:href="#DejaVuSans-30" x="127.246094"/>
       <use xlink:href="#DejaVuSans-30" x="190.869141"/>
      </g>
     </g>
    </g>
    <g id="ytick_6">
     <g id="line2d_11">
      <g>
       <use xlink:href="#m3287184d44" x="180" y="509.829145" style="stroke: #000000; stroke-width: 0.8"/>
      </g>
     </g>
     <g id="text_11">
      <!-- 1025 -->
      <g transform="translate(147.55 513.628363) scale(0.1 -0.1)">
       <use xlink:href="#DejaVuSans-31"/>
       <use xlink:href="#DejaVuSans-30" x="63.623047"/>
       <use xlink:href="#DejaVuSans-32" x="127.246094"/>
       <use xlink:href="#DejaVuSans-35" x="190.869141"/>
      </g>
     </g>
    </g>
    <g id="ytick_7">
     <g id="line2d_12">
      <g>
       <use xlink:href="#m3287184d44" x="180" y="482.307983" style="stroke: #000000; stroke-width: 0.8"/>
      </g>
     </g>
     <g id="text_12">
      <!-- 1050 -->
      <g transform="translate(147.55 486.107202) scale(0.1 -0.1)">
       <use xlink:href="#DejaVuSans-31"/>
       <use xlink:href="#DejaVuSans-30" x="63.623047"/>
       <use xlink:href="#DejaVuSans-35" x="127.246094"/>
       <use xlink:href="#DejaVuSans-30" x="190.869141"/>
      </g>
     </g>
    </g>
    <g id="ytick_8">
     <g id="line2d_13">
      <g>
       <use xlink:href="#m3287184d44" x="180" y="454.786822" style="stroke: #000000; stroke-width: 0.8"/>
      </g>
     </g>
     <g id="text_13">
      <!-- 1075 -->
      <g transform="translate(147.55 458.586041) scale(0.1 -0.1)">
       <use xlink:href="#DejaVuSans-31"/>
       <use xlink:href="#DejaVuSans-30" x="63.623047"/>
       <use xlink:href="#DejaVuSans-37" x="127.246094"/>
       <use xlink:href="#DejaVuSans-35" x="190.869141"/>
      </g>
     </g>
    </g>
    <g id="ytick_9">
     <g id="line2d_14">
      <g>
       <use xlink:href="#m3287184d44" x="180" y="427.265661" style="stroke: #000000; stroke-width: 0.8"/>
      </g>
     </g>
     <g id="text_14">
      <!-- 1100 -->
      <g transform="translate(147.55 431.064879) scale(0.1 -0.1)">
       <use xlink:href="#DejaVuSans-31"/>
       <use xlink:href="#DejaVuSans-31" x="63.623047"/>
       <use xlink:href="#DejaVuSans-30" x="127.246094"/>
       <use xlink:href="#DejaVuSans-30" x="190.869141"/>
      </g>
     </g>
    </g>
   </g>
   <g id="LineCollection_1">
    <path d="M 230.727273 630.184963 
L 246.522233 635.148186 
L 261.818794 638.0986 
L 276.570937 639.384452 
L 290.766899 639.334716 
L 304.423085 638.245598 
L 317.572923 636.374902 
L 330.256942 633.9427 
L 342.516299 631.135071 
L 354.389456 628.108562 
L 398.777107 616.090042 
L 409.211894 613.524939 
L 419.417708 611.248525 
L 429.415954 609.293155 
L 439.227779 607.680942 
L 448.874293 606.425308 
L 458.376546 605.532432 
L 467.755283 605.002527 
L 477.030553 604.830915 
L 486.221236 605.008858 
L 495.344596 605.524151 
L 504.415937 606.361524 
L 513.448413 607.502898 
L 522.452999 608.927582 
L 531.438609 610.612445 
L 540.412327 612.532124 
L 549.379692 614.659273 
L 558.345005 616.964848 
L 567.311626 619.418434 
L 585.259034 624.643139 
L 621.325469 635.47275 
L 639.45724 640.557735 
L 648.548249 642.907949 
L 657.657529 645.091123 
L 666.785832 647.079551 
L 675.933473 648.846816 
L 685.100227 650.367917 
L 694.285229 651.619407 
L 703.486905 652.579545 
L 712.702931 653.228467 
L 721.930255 653.54836 
L 731.165158 653.523631 
L 740.403395 653.141057 
L 749.640375 652.389895 
L 758.871398 651.261945 
L 768.091901 649.751545 
L 777.297708 647.85551 
L 786.485257 645.573012 
L 795.651774 642.905418 
L 804.795395 639.856109 
L 813.915225 636.430302 
L 823.011338 632.634883 
L 832.08473 628.478281 
L 841.137238 623.970384 
L 850.171434 619.122505 
L 859.190512 613.947399 
L 868.198172 608.459324 
L 877.198511 602.674152 
L 886.195926 596.609515 
L 895.195019 590.284995 
L 904.200521 583.722339 
L 913.217214 576.945715 
L 922.249859 569.981993 
L 940.381468 555.616164 
L 977.078403 526.157192 
L 986.360509 518.917113 
L 995.686433 511.844307 
L 1005.055199 505.007028 
L 1014.463585 498.480074 
L 1023.905519 492.3448 
L 1033.371501 486.688745 
L 1042.848265 481.604618 
L 1052.319199 477.188447 
L 1061.766397 473.536793 
L 1071.175751 470.743555 
L 1080.546451 468.898201 
L 1089.904815 468.089171 
L 1099.318072 468.417013 
L 1108.89829 470.017938 
L 1118.786776 473.088688 
L 1129.121368 477.896446 
L 1140.004538 484.765411 
L 1151.490479 494.049932 
L 1163.593168 506.112206 
L 1176.304017 521.313854 
L 1189.607851 540.019062 
L 1203.49274 562.602759 
L 1218.133547 589.791949 
L 1218.133547 589.791949 
" clip-path="url(#pbd9826cfd1)" style="fill: none; stroke: #1f77b4; stroke-width: 1.5"/>
    <path d="M 235.437096 615.510404 
L 249.522942 620.031279 
L 263.224029 622.750948 
L 276.566656 623.972602 
L 289.575455 623.968988 
L 302.27348 622.984394 
L 314.682288 621.236561 
L 326.822019 618.918505 
L 338.711473 616.200265 
L 350.368185 613.230574 
L 361.808492 610.13845 
L 373.047608 607.034713 
L 384.099682 604.013432 
L 394.977866 601.153302 
L 405.694374 598.518946 
L 416.260536 596.162156 
L 426.686858 594.123066 
L 436.983073 592.431261 
L 447.158189 591.106822 
L 457.220539 590.161316 
L 467.177827 589.598723 
L 477.037172 589.416305 
L 486.805148 589.605424 
L 496.487822 590.152308 
L 506.090796 591.038756 
L 515.61924 592.242802 
L 525.077926 593.739332 
L 534.471259 595.500646 
L 543.80331 597.496981 
L 553.077842 599.696993 
L 562.29834 602.068193 
L 571.468034 604.577347 
L 580.589924 607.190838 
L 589.666804 609.87499 
L 598.701284 612.59636 
L 607.695809 615.321998 
L 616.652676 618.019672 
L 625.574058 620.658074 
L 634.462018 623.206985 
L 643.318522 625.637426 
L 652.14546 627.921782 
L 660.944658 630.033902 
L 669.71789 631.949178 
L 678.466893 633.644615 
L 687.193381 635.098869 
L 695.899051 636.292284 
L 704.585601 637.206907 
L 713.254738 637.826498 
L 721.908186 638.136525 
L 730.547703 638.124154 
L 739.175082 637.778232 
L 747.79217 637.089265 
L 756.400871 636.049396 
L 765.003158 634.652379 
L 773.601086 632.893554 
L 782.196796 630.769829 
L 790.792529 628.279657 
L 799.390635 625.423033 
L 807.993585 622.201482 
L 816.603981 618.618075 
L 825.224566 614.677437 
L 833.858239 610.385786 
L 842.508063 605.750973 
L 851.177286 600.782547 
L 859.869345 595.491835 
L 868.587888 589.892044 
L 877.336787 583.998378 
L 886.120153 577.828192 
L 894.942357 571.401156 
L 903.808045 564.739459 
L 912.722157 557.868033 
L 921.689952 550.814809 
L 930.717026 543.611011 
L 939.809337 536.291479 
L 948.973228 528.895026 
L 958.215454 521.46484 
L 967.543212 514.048915 
L 976.964165 506.700535 
L 986.486476 499.478788 
L 996.118841 492.449136 
L 1005.870521 485.684026 
L 1015.75138 479.263543 
L 1025.771922 473.27613 
L 1035.943331 467.819338 
L 1046.277511 463.000647 
L 1056.787137 458.93833 
L 1067.485691 455.762383 
L 1078.387519 453.615507 
L 1089.507878 452.654152 
L 1100.86299 453.049625 
L 1112.470096 454.989258 
L 1124.347517 458.677647 
L 1136.514713 464.337951 
L 1148.992346 472.213269 
L 1161.802347 482.568078 
L 1174.967983 495.68975 
L 1188.513931 511.890143 
L 1202.466352 531.507264 
L 1216.852967 554.907014 
L 1231.703137 582.485011 
" clip-path="url(#pbd9826cfd1)" style="fill: none; stroke: #8c564b; stroke-width: 1.5"/>
    <path d="M 240.14692 600.835845 
L 253.390897 605.086521 
L 265.433043 607.476889 
L 277.268603 608.560556 
L 288.976702 608.557303 
L 300.60132 607.655941 
L 312.16067 606.027757 
L 323.65821 603.832326 
L 335.091047 601.218481 
L 346.45493 598.323392 
L 391.29882 586.187015 
L 402.339199 583.476741 
L 413.302459 581.036849 
L 424.187994 578.915147 
L 434.993779 577.148334 
L 445.71637 575.762563 
L 456.351145 574.774007 
L 466.892725 574.18951 
L 477.335508 574.007342 
L 487.674234 574.218098 
L 497.904462 574.805704 
L 508.022925 575.748497 
L 518.027707 577.020305 
L 527.918252 578.591472 
L 537.695255 580.429781 
L 547.360447 582.501251 
L 556.916352 584.770809 
L 566.366032 587.20283 
L 575.71286 589.761593 
L 594.111887 595.118081 
L 629.883804 605.860937 
L 647.288674 610.745291 
L 655.874998 612.967378 
L 664.387195 615.010607 
L 672.827914 616.853293 
L 681.200105 618.475709 
L 689.507151 619.860064 
L 697.752993 620.990443 
L 705.942242 621.852704 
L 714.08025 622.434335 
L 722.173148 622.72428 
L 730.227822 622.712746 
L 738.251834 622.391017 
L 746.253282 621.751272 
L 754.240606 620.786461 
L 762.222367 619.490218 
L 770.207016 617.856848 
L 778.202676 615.881375 
L 786.216955 613.55965 
L 794.256824 610.888494 
L 802.328544 607.865873 
L 810.43766 604.491085 
L 818.589048 600.764926 
L 826.787003 596.689863 
L 835.035359 592.270167 
L 843.337625 587.512049 
L 851.697126 582.423759 
L 860.117148 577.015703 
L 868.601069 571.300539 
L 877.152487 565.293293 
L 885.775341 559.011485 
L 894.474025 552.475276 
L 912.119399 538.734552 
L 930.137234 524.292493 
L 948.62429 509.401064 
L 958.064404 501.896659 
L 967.651149 494.42076 
L 977.401137 487.029621 
L 987.334022 479.786115 
L 997.473151 472.760817 
L 1007.846246 466.033502 
L 1018.486001 459.695243 
L 1029.430241 453.851346 
L 1040.720973 448.62532 
L 1052.401187 444.163737 
L 1064.507857 440.640953 
L 1077.060116 438.260927 
L 1088.180475 437.299572 
L 1090.044312 437.25164 
L 1101.399424 437.647113 
L 1103.4032 437.848557 
L 1115.010306 439.78819 
L 1117.040747 440.270757 
L 1128.918169 443.959145 
L 1130.848248 444.703899 
L 1143.015444 450.364203 
L 1144.740581 451.304908 
L 1158.680866 460.227539 
L 1172.681929 471.652043 
L 1186.791303 485.803688 
L 1201.073154 502.95756 
L 1215.595295 523.435338 
L 1230.422557 547.600075 
L 1245.272727 575.178072 
L 1245.272727 575.178072 
" clip-path="url(#pbd9826cfd1)" style="fill: none; stroke: #17becf; stroke-width: 1.5"/>
   </g>
   <g id="patch_3">
    <path d="M 180 664.363196 
L 180 426.436804 
" style="fill: none; stroke: #000000; stroke-width: 0.8; stroke-linejoin: miter; stroke-linecap: square"/>
   </g>
   <g id="patch_4">
    <path d="M 1296 664.363196 
L 1296 426.436804 
" style="fill: none; stroke: #000000; stroke-width: 0.8; stroke-linejoin: miter; stroke-linecap: square"/>
   </g>
   <g id="patch_5">
    <path d="M 180 664.363196 
L 1296 664.363196 
" style="fill: none; stroke: #000000; stroke-width: 0.8; stroke-linejoin: miter; stroke-linecap: square"/>
   </g>
   <g id="patch_6">
    <path d="M 180 426.436804 
L 1296 426.436804 
" style="fill: none; stroke: #000000; stroke-width: 0.8; stroke-linejoin: miter; stroke-linecap: square"/>
   </g>
  </g>
 </g>
 <defs>
  <clipPath id="pbd9826cfd1">
   <rect x="180" y="426.436804" width="1116" height="237.926392"/>
  </clipPath>
 </defs>
</svg>
