<?xml version="1.0" encoding="utf-8" standalone="no"?>
<!DOCTYPE svg PUBLIC "-//W3C//DTD SVG 1.1//EN"
  "http://www.w3.org/Graphics/SVG/1.1/DTD/svg11.dtd">
<svg xmlns:xlink="http://www.w3.org/1999/xlink" width="1440pt" height="1080pt" viewBox="0 0 1440 1080" xmlns="http://www.w3.org/2000/svg" version="1.1">
 <metadata>
  <rdf:RDF xmlns:dc="http://purl.org/dc/elements/1.1/" xmlns:cc="http://creativecommons.org/ns#" xmlns:rdf="http://www.w3.org/1999/02/22-rdf-syntax-ns#">
   <cc:Work>
    <dc:type rdf:resource="http://purl.org/dc/dcmitype/StillImage"/>
    <dc:date>2023-12-11T12:06:53.058841</dc:date>
    <dc:format>image/svg+xml</dc:format>
    <dc:creator>
     <cc:Agent>
      <dc:title>Matplotlib v3.7.1, https://matplotlib.org/</dc:title>
     </cc:Agent>
    </dc:creator>
   </cc:Work>
  </rdf:RDF>
 </metadata>
 <defs>
  <style type="text/css">*{stroke-linejoin: round; stroke-linecap: butt}</style>
 </defs>
 <g id="figure_1">
  <g id="patch_1">
   <path d="M 0 1080 
L 1440 1080 
L 1440 0 
L 0 0 
z
" style="fill: #ffffff"/>
  </g>
  <g id="axes_1">
   <g id="patch_2">
    <path d="M 204.4232 961.2 
L 1271.5768 961.2 
L 1271.5768 129.6 
L 204.4232 129.6 
z
" style="fill: #ffffff"/>
   </g>
   <g id="matplotlib.axis_1">
    <g id="xtick_1">
     <g id="line2d_1">
      <defs>
       <path id="m70e3964e48" d="M 0 0 
L 0 3.5 
" style="stroke: #000000; stroke-width: 0.8"/>
      </defs>
      <g>
       <use xlink:href="#m70e3964e48" x="289.332887" y="961.2" style="stroke: #000000; stroke-width: 0.8"/>
      </g>
     </g>
     <g id="text_1">
      <!-- 200 -->
      <g transform="translate(279.789137 975.798437) scale(0.1 -0.1)">
       <defs>
        <path id="DejaVuSans-32" d="M 1228 531 
L 3431 531 
L 3431 0 
L 469 0 
L 469 531 
Q 828 903 1448 1529 
Q 2069 2156 2228 2338 
Q 2531 2678 2651 2914 
Q 2772 3150 2772 3378 
Q 2772 3750 2511 3984 
Q 2250 4219 1831 4219 
Q 1534 4219 1204 4116 
Q 875 4013 500 3803 
L 500 4441 
Q 881 4594 1212 4672 
Q 1544 4750 1819 4750 
Q 2544 4750 2975 4387 
Q 3406 4025 3406 3419 
Q 3406 3131 3298 2873 
Q 3191 2616 2906 2266 
Q 2828 2175 2409 1742 
Q 1991 1309 1228 531 
z
" transform="scale(0.015625)"/>
        <path id="DejaVuSans-30" d="M 2034 4250 
Q 1547 4250 1301 3770 
Q 1056 3291 1056 2328 
Q 1056 1369 1301 889 
Q 1547 409 2034 409 
Q 2525 409 2770 889 
Q 3016 1369 3016 2328 
Q 3016 3291 2770 3770 
Q 2525 4250 2034 4250 
z
M 2034 4750 
Q 2819 4750 3233 4129 
Q 3647 3509 3647 2328 
Q 3647 1150 3233 529 
Q 2819 -91 2034 -91 
Q 1250 -91 836 529 
Q 422 1150 422 2328 
Q 422 3509 836 4129 
Q 1250 4750 2034 4750 
z
" transform="scale(0.015625)"/>
       </defs>
       <use xlink:href="#DejaVuSans-32"/>
       <use xlink:href="#DejaVuSans-30" x="63.623047"/>
       <use xlink:href="#DejaVuSans-30" x="127.246094"/>
      </g>
     </g>
    </g>
    <g id="xtick_2">
     <g id="line2d_2">
      <g>
       <use xlink:href="#m70e3964e48" x="426.45107" y="961.2" style="stroke: #000000; stroke-width: 0.8"/>
      </g>
     </g>
     <g id="text_2">
      <!-- 300 -->
      <g transform="translate(416.90732 975.798437) scale(0.1 -0.1)">
       <defs>
        <path id="DejaVuSans-33" d="M 2597 2516 
Q 3050 2419 3304 2112 
Q 3559 1806 3559 1356 
Q 3559 666 3084 287 
Q 2609 -91 1734 -91 
Q 1441 -91 1130 -33 
Q 819 25 488 141 
L 488 750 
Q 750 597 1062 519 
Q 1375 441 1716 441 
Q 2309 441 2620 675 
Q 2931 909 2931 1356 
Q 2931 1769 2642 2001 
Q 2353 2234 1838 2234 
L 1294 2234 
L 1294 2753 
L 1863 2753 
Q 2328 2753 2575 2939 
Q 2822 3125 2822 3475 
Q 2822 3834 2567 4026 
Q 2313 4219 1838 4219 
Q 1578 4219 1281 4162 
Q 984 4106 628 3988 
L 628 4550 
Q 988 4650 1302 4700 
Q 1616 4750 1894 4750 
Q 2613 4750 3031 4423 
Q 3450 4097 3450 3541 
Q 3450 3153 3228 2886 
Q 3006 2619 2597 2516 
z
" transform="scale(0.015625)"/>
       </defs>
       <use xlink:href="#DejaVuSans-33"/>
       <use xlink:href="#DejaVuSans-30" x="63.623047"/>
       <use xlink:href="#DejaVuSans-30" x="127.246094"/>
      </g>
     </g>
    </g>
    <g id="xtick_3">
     <g id="line2d_3">
      <g>
       <use xlink:href="#m70e3964e48" x="563.569253" y="961.2" style="stroke: #000000; stroke-width: 0.8"/>
      </g>
     </g>
     <g id="text_3">
      <!-- 400 -->
      <g transform="translate(554.025503 975.798437) scale(0.1 -0.1)">
       <defs>
        <path id="DejaVuSans-34" d="M 2419 4116 
L 825 1625 
L 2419 1625 
L 2419 4116 
z
M 2253 4666 
L 3047 4666 
L 3047 1625 
L 3713 1625 
L 3713 1100 
L 3047 1100 
L 3047 0 
L 2419 0 
L 2419 1100 
L 313 1100 
L 313 1709 
L 2253 4666 
z
" transform="scale(0.015625)"/>
       </defs>
       <use xlink:href="#DejaVuSans-34"/>
       <use xlink:href="#DejaVuSans-30" x="63.623047"/>
       <use xlink:href="#DejaVuSans-30" x="127.246094"/>
      </g>
     </g>
    </g>
    <g id="xtick_4">
     <g id="line2d_4">
      <g>
       <use xlink:href="#m70e3964e48" x="700.687435" y="961.2" style="stroke: #000000; stroke-width: 0.8"/>
      </g>
     </g>
     <g id="text_4">
      <!-- 500 -->
      <g transform="translate(691.143685 975.798437) scale(0.1 -0.1)">
       <defs>
        <path id="DejaVuSans-35" d="M 691 4666 
L 3169 4666 
L 3169 4134 
L 1269 4134 
L 1269 2991 
Q 1406 3038 1543 3061 
Q 1681 3084 1819 3084 
Q 2600 3084 3056 2656 
Q 3513 2228 3513 1497 
Q 3513 744 3044 326 
Q 2575 -91 1722 -91 
Q 1428 -91 1123 -41 
Q 819 9 494 109 
L 494 744 
Q 775 591 1075 516 
Q 1375 441 1709 441 
Q 2250 441 2565 725 
Q 2881 1009 2881 1497 
Q 2881 1984 2565 2268 
Q 2250 2553 1709 2553 
Q 1456 2553 1204 2497 
Q 953 2441 691 2322 
L 691 4666 
z
" transform="scale(0.015625)"/>
       </defs>
       <use xlink:href="#DejaVuSans-35"/>
       <use xlink:href="#DejaVuSans-30" x="63.623047"/>
       <use xlink:href="#DejaVuSans-30" x="127.246094"/>
      </g>
     </g>
    </g>
    <g id="xtick_5">
     <g id="line2d_5">
      <g>
       <use xlink:href="#m70e3964e48" x="837.805618" y="961.2" style="stroke: #000000; stroke-width: 0.8"/>
      </g>
     </g>
     <g id="text_5">
      <!-- 600 -->
      <g transform="translate(828.261868 975.798437) scale(0.1 -0.1)">
       <defs>
        <path id="DejaVuSans-36" d="M 2113 2584 
Q 1688 2584 1439 2293 
Q 1191 2003 1191 1497 
Q 1191 994 1439 701 
Q 1688 409 2113 409 
Q 2538 409 2786 701 
Q 3034 994 3034 1497 
Q 3034 2003 2786 2293 
Q 2538 2584 2113 2584 
z
M 3366 4563 
L 3366 3988 
Q 3128 4100 2886 4159 
Q 2644 4219 2406 4219 
Q 1781 4219 1451 3797 
Q 1122 3375 1075 2522 
Q 1259 2794 1537 2939 
Q 1816 3084 2150 3084 
Q 2853 3084 3261 2657 
Q 3669 2231 3669 1497 
Q 3669 778 3244 343 
Q 2819 -91 2113 -91 
Q 1303 -91 875 529 
Q 447 1150 447 2328 
Q 447 3434 972 4092 
Q 1497 4750 2381 4750 
Q 2619 4750 2861 4703 
Q 3103 4656 3366 4563 
z
" transform="scale(0.015625)"/>
       </defs>
       <use xlink:href="#DejaVuSans-36"/>
       <use xlink:href="#DejaVuSans-30" x="63.623047"/>
       <use xlink:href="#DejaVuSans-30" x="127.246094"/>
      </g>
     </g>
    </g>
    <g id="xtick_6">
     <g id="line2d_6">
      <g>
       <use xlink:href="#m70e3964e48" x="974.923801" y="961.2" style="stroke: #000000; stroke-width: 0.8"/>
      </g>
     </g>
     <g id="text_6">
      <!-- 700 -->
      <g transform="translate(965.380051 975.798437) scale(0.1 -0.1)">
       <defs>
        <path id="DejaVuSans-37" d="M 525 4666 
L 3525 4666 
L 3525 4397 
L 1831 0 
L 1172 0 
L 2766 4134 
L 525 4134 
L 525 4666 
z
" transform="scale(0.015625)"/>
       </defs>
       <use xlink:href="#DejaVuSans-37"/>
       <use xlink:href="#DejaVuSans-30" x="63.623047"/>
       <use xlink:href="#DejaVuSans-30" x="127.246094"/>
      </g>
     </g>
    </g>
    <g id="xtick_7">
     <g id="line2d_7">
      <g>
       <use xlink:href="#m70e3964e48" x="1112.041983" y="961.2" style="stroke: #000000; stroke-width: 0.8"/>
      </g>
     </g>
     <g id="text_7">
      <!-- 800 -->
      <g transform="translate(1102.498233 975.798437) scale(0.1 -0.1)">
       <defs>
        <path id="DejaVuSans-38" d="M 2034 2216 
Q 1584 2216 1326 1975 
Q 1069 1734 1069 1313 
Q 1069 891 1326 650 
Q 1584 409 2034 409 
Q 2484 409 2743 651 
Q 3003 894 3003 1313 
Q 3003 1734 2745 1975 
Q 2488 2216 2034 2216 
z
M 1403 2484 
Q 997 2584 770 2862 
Q 544 3141 544 3541 
Q 544 4100 942 4425 
Q 1341 4750 2034 4750 
Q 2731 4750 3128 4425 
Q 3525 4100 3525 3541 
Q 3525 3141 3298 2862 
Q 3072 2584 2669 2484 
Q 3125 2378 3379 2068 
Q 3634 1759 3634 1313 
Q 3634 634 3220 271 
Q 2806 -91 2034 -91 
Q 1263 -91 848 271 
Q 434 634 434 1313 
Q 434 1759 690 2068 
Q 947 2378 1403 2484 
z
M 1172 3481 
Q 1172 3119 1398 2916 
Q 1625 2713 2034 2713 
Q 2441 2713 2670 2916 
Q 2900 3119 2900 3481 
Q 2900 3844 2670 4047 
Q 2441 4250 2034 4250 
Q 1625 4250 1398 4047 
Q 1172 3844 1172 3481 
z
" transform="scale(0.015625)"/>
       </defs>
       <use xlink:href="#DejaVuSans-38"/>
       <use xlink:href="#DejaVuSans-30" x="63.623047"/>
       <use xlink:href="#DejaVuSans-30" x="127.246094"/>
      </g>
     </g>
    </g>
    <g id="xtick_8">
     <g id="line2d_8">
      <g>
       <use xlink:href="#m70e3964e48" x="1249.160166" y="961.2" style="stroke: #000000; stroke-width: 0.8"/>
      </g>
     </g>
     <g id="text_8">
      <!-- 900 -->
      <g transform="translate(1239.616416 975.798437) scale(0.1 -0.1)">
       <defs>
        <path id="DejaVuSans-39" d="M 703 97 
L 703 672 
Q 941 559 1184 500 
Q 1428 441 1663 441 
Q 2288 441 2617 861 
Q 2947 1281 2994 2138 
Q 2813 1869 2534 1725 
Q 2256 1581 1919 1581 
Q 1219 1581 811 2004 
Q 403 2428 403 3163 
Q 403 3881 828 4315 
Q 1253 4750 1959 4750 
Q 2769 4750 3195 4129 
Q 3622 3509 3622 2328 
Q 3622 1225 3098 567 
Q 2575 -91 1691 -91 
Q 1453 -91 1209 -44 
Q 966 3 703 97 
z
M 1959 2075 
Q 2384 2075 2632 2365 
Q 2881 2656 2881 3163 
Q 2881 3666 2632 3958 
Q 2384 4250 1959 4250 
Q 1534 4250 1286 3958 
Q 1038 3666 1038 3163 
Q 1038 2656 1286 2365 
Q 1534 2075 1959 2075 
z
" transform="scale(0.015625)"/>
       </defs>
       <use xlink:href="#DejaVuSans-39"/>
       <use xlink:href="#DejaVuSans-30" x="63.623047"/>
       <use xlink:href="#DejaVuSans-30" x="127.246094"/>
      </g>
     </g>
    </g>
   </g>
   <g id="matplotlib.axis_2">
    <g id="ytick_1">
     <g id="line2d_9">
      <defs>
       <path id="mfdcfacf69e" d="M 0 0 
L -3.5 0 
" style="stroke: #000000; stroke-width: 0.8"/>
      </defs>
      <g>
       <use xlink:href="#mfdcfacf69e" x="204.4232" y="922.206379" style="stroke: #000000; stroke-width: 0.8"/>
      </g>
     </g>
     <g id="text_9">
      <!-- 800 -->
      <g transform="translate(178.3357 926.005598) scale(0.1 -0.1)">
       <use xlink:href="#DejaVuSans-38"/>
       <use xlink:href="#DejaVuSans-30" x="63.623047"/>
       <use xlink:href="#DejaVuSans-30" x="127.246094"/>
      </g>
     </g>
    </g>
    <g id="ytick_2">
     <g id="line2d_10">
      <g>
       <use xlink:href="#mfdcfacf69e" x="204.4232" y="785.088196" style="stroke: #000000; stroke-width: 0.8"/>
      </g>
     </g>
     <g id="text_10">
      <!-- 900 -->
      <g transform="translate(178.3357 788.887415) scale(0.1 -0.1)">
       <use xlink:href="#DejaVuSans-39"/>
       <use xlink:href="#DejaVuSans-30" x="63.623047"/>
       <use xlink:href="#DejaVuSans-30" x="127.246094"/>
      </g>
     </g>
    </g>
    <g id="ytick_3">
     <g id="line2d_11">
      <g>
       <use xlink:href="#mfdcfacf69e" x="204.4232" y="647.970014" style="stroke: #000000; stroke-width: 0.8"/>
      </g>
     </g>
     <g id="text_11">
      <!-- 1000 -->
      <g transform="translate(171.9732 651.769232) scale(0.1 -0.1)">
       <defs>
        <path id="DejaVuSans-31" d="M 794 531 
L 1825 531 
L 1825 4091 
L 703 3866 
L 703 4441 
L 1819 4666 
L 2450 4666 
L 2450 531 
L 3481 531 
L 3481 0 
L 794 0 
L 794 531 
z
" transform="scale(0.015625)"/>
       </defs>
       <use xlink:href="#DejaVuSans-31"/>
       <use xlink:href="#DejaVuSans-30" x="63.623047"/>
       <use xlink:href="#DejaVuSans-30" x="127.246094"/>
       <use xlink:href="#DejaVuSans-30" x="190.869141"/>
      </g>
     </g>
    </g>
    <g id="ytick_4">
     <g id="line2d_12">
      <g>
       <use xlink:href="#mfdcfacf69e" x="204.4232" y="510.851831" style="stroke: #000000; stroke-width: 0.8"/>
      </g>
     </g>
     <g id="text_12">
      <!-- 1100 -->
      <g transform="translate(171.9732 514.65105) scale(0.1 -0.1)">
       <use xlink:href="#DejaVuSans-31"/>
       <use xlink:href="#DejaVuSans-31" x="63.623047"/>
       <use xlink:href="#DejaVuSans-30" x="127.246094"/>
       <use xlink:href="#DejaVuSans-30" x="190.869141"/>
      </g>
     </g>
    </g>
    <g id="ytick_5">
     <g id="line2d_13">
      <g>
       <use xlink:href="#mfdcfacf69e" x="204.4232" y="373.733648" style="stroke: #000000; stroke-width: 0.8"/>
      </g>
     </g>
     <g id="text_13">
      <!-- 1200 -->
      <g transform="translate(171.9732 377.532867) scale(0.1 -0.1)">
       <use xlink:href="#DejaVuSans-31"/>
       <use xlink:href="#DejaVuSans-32" x="63.623047"/>
       <use xlink:href="#DejaVuSans-30" x="127.246094"/>
       <use xlink:href="#DejaVuSans-30" x="190.869141"/>
      </g>
     </g>
    </g>
    <g id="ytick_6">
     <g id="line2d_14">
      <g>
       <use xlink:href="#mfdcfacf69e" x="204.4232" y="236.615466" style="stroke: #000000; stroke-width: 0.8"/>
      </g>
     </g>
     <g id="text_14">
      <!-- 1300 -->
      <g transform="translate(171.9732 240.414684) scale(0.1 -0.1)">
       <use xlink:href="#DejaVuSans-31"/>
       <use xlink:href="#DejaVuSans-33" x="63.623047"/>
       <use xlink:href="#DejaVuSans-30" x="127.246094"/>
       <use xlink:href="#DejaVuSans-30" x="190.869141"/>
      </g>
     </g>
    </g>
   </g>
   <g id="LineCollection_1">
    <path d="M 341.45945 907.30094 
L 326.654989 864.389876 
L 315.789734 827.325052 
L 308.351149 795.280013 
L 303.982289 767.924589 
L 302.308896 744.961074 
L 302.92095 726.101771 
L 305.363169 711.019005 
L 309.165511 699.267895 
L 313.948092 690.230643 
L 319.565149 683.181021 
L 326.141301 677.487151 
L 333.916744 672.780747 
L 343.046926 668.938969 
L 353.526903 665.951133 
L 365.230971 663.811634 
L 377.978675 662.480034 
L 391.580207 661.88129 
L 405.857999 661.917987 
L 420.653978 662.482027 
L 435.830269 663.462803 
L 451.267512 664.752215 
L 482.526647 667.852628 
L 513.860762 671.054374 
L 529.365798 672.490392 
L 544.691977 673.723939 
L 559.799719 674.694337 
L 574.65581 675.346953 
L 589.232519 675.632695 
L 603.506691 675.507565 
L 617.458772 674.932313 
L 631.071793 673.87223 
L 644.330333 672.297166 
L 657.219547 670.181794 
L 669.724367 667.506156 
L 681.829041 664.256444 
L 693.517135 660.425897 
L 704.772122 656.015624 
L 715.578518 651.035103 
L 725.923421 645.502145 
L 735.798162 639.442191 
L 745.199738 632.886989 
L 754.131726 625.872852 
L 762.604548 618.43878 
L 770.635091 610.624755 
L 778.245841 602.470405 
L 785.463745 594.014128 
L 792.319007 585.292668 
L 798.843983 576.341021 
L 805.072241 567.192581 
L 811.037835 557.879404 
L 816.774773 548.432489 
L 822.316635 538.882047 
L 827.69633 529.257703 
L 838.096517 509.903578 
L 858.345426 471.468309 
L 863.451179 462.081594 
L 868.622715 452.839502 
L 873.883591 443.764732 
L 879.25625 434.878114 
L 884.762111 426.198283 
L 890.421729 417.741356 
L 896.254983 409.52064 
L 902.281327 401.546406 
L 908.520046 393.825735 
L 914.990516 386.362489 
L 921.712405 379.157406 
L 928.705773 372.208308 
L 935.991017 365.510411 
L 943.588642 359.056671 
L 951.518836 352.838104 
L 959.800878 346.844 
L 968.452444 341.061989 
L 977.488864 335.4779 
L 986.922416 330.075423 
L 996.761718 324.835595 
L 1007.011252 319.736149 
L 1017.67104 314.750767 
L 1028.736446 309.848306 
L 1040.198088 304.991985 
L 1064.248676 295.237672 
L 1089.755475 285.007405 
L 1102.958607 279.544354 
L 1116.402282 273.736382 
L 1130.039457 267.481566 
L 1143.814425 260.665124 
L 1157.660496 253.158993 
L 1171.496978 244.822213 
L 1185.225655 235.502639 
L 1198.727465 225.040481 
L 1211.86061 213.27377 
L 1223.069818 201.621112 
L 1223.069818 201.621112 
" clip-path="url(#p2fa79e2491)" style="fill: none; stroke: #1f77b4; stroke-width: 1.5"/>
    <path d="M 318.127705 915.35047 
L 303.133791 871.89027 
L 291.906978 833.592055 
L 284.114491 800.022426 
L 279.443134 770.772938 
L 277.598468 745.459068 
L 278.304005 723.719204 
L 281.300443 705.213675 
L 286.344906 689.623798 
L 293.210223 676.650971 
L 301.684221 666.015777 
L 311.56905 657.457135 
L 322.68052 650.731465 
L 334.847468 645.611884 
L 347.911144 641.887436 
L 361.724618 639.362339 
L 376.152211 637.85526 
L 391.068935 637.198622 
L 406.359973 637.237923 
L 421.920157 637.831095 
L 437.653478 638.847869 
L 453.472614 640.16918 
L 469.298468 641.686579 
L 485.059733 643.301681 
L 500.692466 644.92562 
L 516.139686 646.478538 
L 531.350982 647.889086 
L 546.282144 649.093945 
L 560.8948 650.03737 
L 575.156073 650.670751 
L 589.038258 650.952186 
L 602.5185 650.846083 
L 615.578498 650.322766 
L 628.204214 649.358107 
L 640.385598 647.93317 
L 652.116326 646.033867 
L 663.393548 643.650633 
L 674.217646 640.778116 
L 684.592005 637.414872 
L 694.522797 633.563083 
L 704.018767 629.228283 
L 713.091037 624.419091 
L 721.752912 619.146966 
L 730.019702 613.425958 
L 737.908544 607.272486 
L 745.438238 600.70511 
L 752.629088 593.74432 
L 759.502747 586.412334 
L 766.082073 578.732897 
L 772.39099 570.731097 
L 778.454351 562.433177 
L 784.297807 553.866362 
L 789.947686 545.058684 
L 795.430869 536.038821 
L 800.77467 526.83593 
L 806.006727 517.479489 
L 811.154885 507.999145 
L 816.247091 498.424562 
L 821.311281 488.785265 
L 826.375278 479.110497 
L 831.466685 469.42907 
L 836.612779 459.769215 
L 841.840408 450.158438 
L 847.175882 440.62337 
L 852.64487 431.189617 
L 858.272292 421.881609 
L 864.082206 412.722448 
L 870.0977 403.733749 
L 876.340775 394.935481 
L 882.832228 386.3458 
L 889.59153 377.980885 
L 896.636703 369.854759 
L 903.984187 361.979111 
L 911.648706 354.363111 
L 919.643127 347.013211 
L 927.978318 339.932953 
L 936.662988 333.122752 
L 945.703534 326.579683 
L 955.103872 320.297254 
L 964.865263 314.265166 
L 974.986129 308.469073 
L 985.461866 302.890318 
L 996.28464 297.505667 
L 1007.44318 292.287029 
L 1018.922557 287.20116 
L 1030.703955 282.209358 
L 1042.764431 277.267143 
L 1055.076663 272.32392 
L 1067.608684 267.322633 
L 1080.323609 262.199399 
L 1093.179346 256.883126 
L 1106.128292 251.295117 
L 1119.117023 245.348657 
L 1132.085958 238.94858 
L 1144.969022 231.990816 
L 1157.693282 224.361929 
L 1170.17858 215.938623 
L 1182.337133 206.587236 
L 1194.07314 196.163214 
L 1205.282348 184.510556 
" clip-path="url(#p2fa79e2491)" style="fill: none; stroke: #8c564b; stroke-width: 1.5"/>
    <path d="M 294.795961 923.4 
L 279.449183 878.833222 
L 267.864946 839.17291 
L 259.742087 803.914877 
L 254.827134 772.56675 
L 252.982467 747.252879 
L 252.930182 744.658492 
L 253.63572 722.918628 
L 253.940059 719.774164 
L 257.307554 699.425194 
L 257.817881 697.615352 
L 263.610412 680.016092 
L 264.530052 678.079216 
L 272.562009 663.130006 
L 273.907183 661.270533 
L 283.879242 648.923441 
L 285.528554 647.356741 
L 297.048987 637.498854 
L 298.788593 636.342563 
L 309.900063 629.616893 
L 313.108091 627.982094 
L 325.275039 622.862514 
L 328.080492 621.876398 
L 341.144168 618.151951 
L 343.47296 617.608479 
L 359.160412 614.814629 
L 375.066785 613.197866 
L 391.132372 612.51743 
L 407.300168 612.574564 
L 423.511877 613.201201 
L 439.707855 614.252244 
L 455.828277 615.60058 
L 487.609918 618.75251 
L 518.513573 621.911507 
L 533.483113 623.299637 
L 548.069935 624.47671 
L 562.237559 625.391403 
L 575.953862 626.00058 
L 589.19129 626.268944 
L 601.927121 626.1687 
L 614.143795 625.679175 
L 625.829328 624.786351 
L 636.977786 623.482242 
L 647.589769 621.764073 
L 657.672789 619.633212 
L 667.241436 617.093868 
L 676.31714 614.151632 
L 684.927437 610.812016 
L 693.10467 607.079203 
L 700.884231 602.955274 
L 708.302548 598.440051 
L 715.395153 593.531635 
L 722.195141 588.227493 
L 728.732244 582.525852 
L 735.032582 576.427083 
L 741.118996 569.934834 
L 747.011775 563.05674 
L 752.729558 555.804694 
L 758.290226 548.194727 
L 763.711665 540.246611 
L 769.012343 531.983309 
L 774.211693 523.430351 
L 779.330327 514.615234 
L 784.390112 505.566865 
L 794.42672 486.890241 
L 814.931355 447.975951 
L 820.30184 438.106246 
L 825.823269 428.244713 
L 831.523637 418.420172 
L 837.43046 408.661047 
L 843.570431 398.995383 
L 849.969019 389.450842 
L 856.650017 380.054645 
L 863.635043 370.83344 
L 870.943036 361.81305 
L 878.589762 353.018098 
L 886.587393 344.471491 
L 894.944205 336.193771 
L 903.664438 328.202397 
L 912.748325 320.510992 
L 922.192306 313.128638 
L 931.989355 306.059291 
L 942.129379 299.301355 
L 952.599602 292.847445 
L 963.38486 286.684313 
L 974.467758 280.792924 
L 985.828669 275.148613 
L 997.445562 269.721284 
L 1009.293699 264.475617 
L 1021.345215 259.371249 
L 1045.928439 249.400673 
L 1070.995381 239.348535 
L 1083.573221 234.147181 
L 1096.10046 228.741157 
L 1108.516568 223.056854 
L 1120.756681 217.016445 
L 1132.752894 210.537643 
L 1144.436241 203.53284 
L 1155.739272 195.907159 
L 1166.598806 187.554875 
L 1176.957865 178.353869 
L 1187.494877 167.4 
L 1187.494877 167.4 
" clip-path="url(#p2fa79e2491)" style="fill: none; stroke: #17becf; stroke-width: 1.5"/>
   </g>
   <g id="patch_3">
    <path d="M 204.4232 961.2 
L 204.4232 129.6 
" style="fill: none; stroke: #000000; stroke-width: 0.8; stroke-linejoin: miter; stroke-linecap: square"/>
   </g>
   <g id="patch_4">
    <path d="M 1271.5768 961.2 
L 1271.5768 129.6 
" style="fill: none; stroke: #000000; stroke-width: 0.8; stroke-linejoin: miter; stroke-linecap: square"/>
   </g>
   <g id="patch_5">
    <path d="M 204.4232 961.2 
L 1271.5768 961.2 
" style="fill: none; stroke: #000000; stroke-width: 0.8; stroke-linejoin: miter; stroke-linecap: square"/>
   </g>
   <g id="patch_6">
    <path d="M 204.4232 129.6 
L 1271.5768 129.6 
" style="fill: none; stroke: #000000; stroke-width: 0.8; stroke-linejoin: miter; stroke-linecap: square"/>
   </g>
  </g>
 </g>
 <defs>
  <clipPath id="p2fa79e2491">
   <rect x="204.4232" y="129.6" width="1067.1536" height="831.6"/>
  </clipPath>
 </defs>
</svg>
