<?xml version="1.0" encoding="utf-8" standalone="no"?>
<!DOCTYPE svg PUBLIC "-//W3C//DTD SVG 1.1//EN"
  "http://www.w3.org/Graphics/SVG/1.1/DTD/svg11.dtd">
<svg xmlns:xlink="http://www.w3.org/1999/xlink" width="1440pt" height="1080pt" viewBox="0 0 1440 1080" xmlns="http://www.w3.org/2000/svg" version="1.1">
 <metadata>
  <rdf:RDF xmlns:dc="http://purl.org/dc/elements/1.1/" xmlns:cc="http://creativecommons.org/ns#" xmlns:rdf="http://www.w3.org/1999/02/22-rdf-syntax-ns#">
   <cc:Work>
    <dc:type rdf:resource="http://purl.org/dc/dcmitype/StillImage"/>
    <dc:date>2023-12-11T12:06:48.421390</dc:date>
    <dc:format>image/svg+xml</dc:format>
    <dc:creator>
     <cc:Agent>
      <dc:title>Matplotlib v3.7.1, https://matplotlib.org/</dc:title>
     </cc:Agent>
    </dc:creator>
   </cc:Work>
  </rdf:RDF>
 </metadata>
 <defs>
  <style type="text/css">*{stroke-linejoin: round; stroke-linecap: butt}</style>
 </defs>
 <g id="figure_1">
  <g id="patch_1">
   <path d="M 0 1080 
L 1440 1080 
L 1440 0 
L 0 0 
z
" style="fill: #ffffff"/>
  </g>
  <g id="axes_1">
   <g id="patch_2">
    <path d="M 180 756.048357 
L 1296 756.048357 
L 1296 334.751643 
L 180 334.751643 
z
" style="fill: #ffffff"/>
   </g>
   <g id="matplotlib.axis_1">
    <g id="xtick_1">
     <g id="line2d_1">
      <defs>
       <path id="mfc94f866a5" d="M 0 0 
L 0 3.5 
" style="stroke: #000000; stroke-width: 0.8"/>
      </defs>
      <g>
       <use xlink:href="#mfc94f866a5" x="285.684803" y="756.048357" style="stroke: #000000; stroke-width: 0.8"/>
      </g>
     </g>
     <g id="text_1">
      <!-- 800 -->
      <g transform="translate(276.141053 770.646795) scale(0.1 -0.1)">
       <defs>
        <path id="DejaVuSans-38" d="M 2034 2216 
Q 1584 2216 1326 1975 
Q 1069 1734 1069 1313 
Q 1069 891 1326 650 
Q 1584 409 2034 409 
Q 2484 409 2743 651 
Q 3003 894 3003 1313 
Q 3003 1734 2745 1975 
Q 2488 2216 2034 2216 
z
M 1403 2484 
Q 997 2584 770 2862 
Q 544 3141 544 3541 
Q 544 4100 942 4425 
Q 1341 4750 2034 4750 
Q 2731 4750 3128 4425 
Q 3525 4100 3525 3541 
Q 3525 3141 3298 2862 
Q 3072 2584 2669 2484 
Q 3125 2378 3379 2068 
Q 3634 1759 3634 1313 
Q 3634 634 3220 271 
Q 2806 -91 2034 -91 
Q 1263 -91 848 271 
Q 434 634 434 1313 
Q 434 1759 690 2068 
Q 947 2378 1403 2484 
z
M 1172 3481 
Q 1172 3119 1398 2916 
Q 1625 2713 2034 2713 
Q 2441 2713 2670 2916 
Q 2900 3119 2900 3481 
Q 2900 3844 2670 4047 
Q 2441 4250 2034 4250 
Q 1625 4250 1398 4047 
Q 1172 3844 1172 3481 
z
" transform="scale(0.015625)"/>
        <path id="DejaVuSans-30" d="M 2034 4250 
Q 1547 4250 1301 3770 
Q 1056 3291 1056 2328 
Q 1056 1369 1301 889 
Q 1547 409 2034 409 
Q 2525 409 2770 889 
Q 3016 1369 3016 2328 
Q 3016 3291 2770 3770 
Q 2525 4250 2034 4250 
z
M 2034 4750 
Q 2819 4750 3233 4129 
Q 3647 3509 3647 2328 
Q 3647 1150 3233 529 
Q 2819 -91 2034 -91 
Q 1250 -91 836 529 
Q 422 1150 422 2328 
Q 422 3509 836 4129 
Q 1250 4750 2034 4750 
z
" transform="scale(0.015625)"/>
       </defs>
       <use xlink:href="#DejaVuSans-38"/>
       <use xlink:href="#DejaVuSans-30" x="63.623047"/>
       <use xlink:href="#DejaVuSans-30" x="127.246094"/>
      </g>
     </g>
    </g>
    <g id="xtick_2">
     <g id="line2d_2">
      <g>
       <use xlink:href="#mfc94f866a5" x="429.545538" y="756.048357" style="stroke: #000000; stroke-width: 0.8"/>
      </g>
     </g>
     <g id="text_2">
      <!-- 900 -->
      <g transform="translate(420.001788 770.646795) scale(0.1 -0.1)">
       <defs>
        <path id="DejaVuSans-39" d="M 703 97 
L 703 672 
Q 941 559 1184 500 
Q 1428 441 1663 441 
Q 2288 441 2617 861 
Q 2947 1281 2994 2138 
Q 2813 1869 2534 1725 
Q 2256 1581 1919 1581 
Q 1219 1581 811 2004 
Q 403 2428 403 3163 
Q 403 3881 828 4315 
Q 1253 4750 1959 4750 
Q 2769 4750 3195 4129 
Q 3622 3509 3622 2328 
Q 3622 1225 3098 567 
Q 2575 -91 1691 -91 
Q 1453 -91 1209 -44 
Q 966 3 703 97 
z
M 1959 2075 
Q 2384 2075 2632 2365 
Q 2881 2656 2881 3163 
Q 2881 3666 2632 3958 
Q 2384 4250 1959 4250 
Q 1534 4250 1286 3958 
Q 1038 3666 1038 3163 
Q 1038 2656 1286 2365 
Q 1534 2075 1959 2075 
z
" transform="scale(0.015625)"/>
       </defs>
       <use xlink:href="#DejaVuSans-39"/>
       <use xlink:href="#DejaVuSans-30" x="63.623047"/>
       <use xlink:href="#DejaVuSans-30" x="127.246094"/>
      </g>
     </g>
    </g>
    <g id="xtick_3">
     <g id="line2d_3">
      <g>
       <use xlink:href="#mfc94f866a5" x="573.406273" y="756.048357" style="stroke: #000000; stroke-width: 0.8"/>
      </g>
     </g>
     <g id="text_3">
      <!-- 1000 -->
      <g transform="translate(560.681273 770.646795) scale(0.1 -0.1)">
       <defs>
        <path id="DejaVuSans-31" d="M 794 531 
L 1825 531 
L 1825 4091 
L 703 3866 
L 703 4441 
L 1819 4666 
L 2450 4666 
L 2450 531 
L 3481 531 
L 3481 0 
L 794 0 
L 794 531 
z
" transform="scale(0.015625)"/>
       </defs>
       <use xlink:href="#DejaVuSans-31"/>
       <use xlink:href="#DejaVuSans-30" x="63.623047"/>
       <use xlink:href="#DejaVuSans-30" x="127.246094"/>
       <use xlink:href="#DejaVuSans-30" x="190.869141"/>
      </g>
     </g>
    </g>
    <g id="xtick_4">
     <g id="line2d_4">
      <g>
       <use xlink:href="#mfc94f866a5" x="717.267008" y="756.048357" style="stroke: #000000; stroke-width: 0.8"/>
      </g>
     </g>
     <g id="text_4">
      <!-- 1100 -->
      <g transform="translate(704.542008 770.646795) scale(0.1 -0.1)">
       <use xlink:href="#DejaVuSans-31"/>
       <use xlink:href="#DejaVuSans-31" x="63.623047"/>
       <use xlink:href="#DejaVuSans-30" x="127.246094"/>
       <use xlink:href="#DejaVuSans-30" x="190.869141"/>
      </g>
     </g>
    </g>
    <g id="xtick_5">
     <g id="line2d_5">
      <g>
       <use xlink:href="#mfc94f866a5" x="861.127743" y="756.048357" style="stroke: #000000; stroke-width: 0.8"/>
      </g>
     </g>
     <g id="text_5">
      <!-- 1200 -->
      <g transform="translate(848.402743 770.646795) scale(0.1 -0.1)">
       <defs>
        <path id="DejaVuSans-32" d="M 1228 531 
L 3431 531 
L 3431 0 
L 469 0 
L 469 531 
Q 828 903 1448 1529 
Q 2069 2156 2228 2338 
Q 2531 2678 2651 2914 
Q 2772 3150 2772 3378 
Q 2772 3750 2511 3984 
Q 2250 4219 1831 4219 
Q 1534 4219 1204 4116 
Q 875 4013 500 3803 
L 500 4441 
Q 881 4594 1212 4672 
Q 1544 4750 1819 4750 
Q 2544 4750 2975 4387 
Q 3406 4025 3406 3419 
Q 3406 3131 3298 2873 
Q 3191 2616 2906 2266 
Q 2828 2175 2409 1742 
Q 1991 1309 1228 531 
z
" transform="scale(0.015625)"/>
       </defs>
       <use xlink:href="#DejaVuSans-31"/>
       <use xlink:href="#DejaVuSans-32" x="63.623047"/>
       <use xlink:href="#DejaVuSans-30" x="127.246094"/>
       <use xlink:href="#DejaVuSans-30" x="190.869141"/>
      </g>
     </g>
    </g>
    <g id="xtick_6">
     <g id="line2d_6">
      <g>
       <use xlink:href="#mfc94f866a5" x="1004.988477" y="756.048357" style="stroke: #000000; stroke-width: 0.8"/>
      </g>
     </g>
     <g id="text_6">
      <!-- 1300 -->
      <g transform="translate(992.263477 770.646795) scale(0.1 -0.1)">
       <defs>
        <path id="DejaVuSans-33" d="M 2597 2516 
Q 3050 2419 3304 2112 
Q 3559 1806 3559 1356 
Q 3559 666 3084 287 
Q 2609 -91 1734 -91 
Q 1441 -91 1130 -33 
Q 819 25 488 141 
L 488 750 
Q 750 597 1062 519 
Q 1375 441 1716 441 
Q 2309 441 2620 675 
Q 2931 909 2931 1356 
Q 2931 1769 2642 2001 
Q 2353 2234 1838 2234 
L 1294 2234 
L 1294 2753 
L 1863 2753 
Q 2328 2753 2575 2939 
Q 2822 3125 2822 3475 
Q 2822 3834 2567 4026 
Q 2313 4219 1838 4219 
Q 1578 4219 1281 4162 
Q 984 4106 628 3988 
L 628 4550 
Q 988 4650 1302 4700 
Q 1616 4750 1894 4750 
Q 2613 4750 3031 4423 
Q 3450 4097 3450 3541 
Q 3450 3153 3228 2886 
Q 3006 2619 2597 2516 
z
" transform="scale(0.015625)"/>
       </defs>
       <use xlink:href="#DejaVuSans-31"/>
       <use xlink:href="#DejaVuSans-33" x="63.623047"/>
       <use xlink:href="#DejaVuSans-30" x="127.246094"/>
       <use xlink:href="#DejaVuSans-30" x="190.869141"/>
      </g>
     </g>
    </g>
    <g id="xtick_7">
     <g id="line2d_7">
      <g>
       <use xlink:href="#mfc94f866a5" x="1148.849212" y="756.048357" style="stroke: #000000; stroke-width: 0.8"/>
      </g>
     </g>
     <g id="text_7">
      <!-- 1400 -->
      <g transform="translate(1136.124212 770.646795) scale(0.1 -0.1)">
       <defs>
        <path id="DejaVuSans-34" d="M 2419 4116 
L 825 1625 
L 2419 1625 
L 2419 4116 
z
M 2253 4666 
L 3047 4666 
L 3047 1625 
L 3713 1625 
L 3713 1100 
L 3047 1100 
L 3047 0 
L 2419 0 
L 2419 1100 
L 313 1100 
L 313 1709 
L 2253 4666 
z
" transform="scale(0.015625)"/>
       </defs>
       <use xlink:href="#DejaVuSans-31"/>
       <use xlink:href="#DejaVuSans-34" x="63.623047"/>
       <use xlink:href="#DejaVuSans-30" x="127.246094"/>
       <use xlink:href="#DejaVuSans-30" x="190.869141"/>
      </g>
     </g>
    </g>
    <g id="xtick_8">
     <g id="line2d_8">
      <g>
       <use xlink:href="#mfc94f866a5" x="1292.709947" y="756.048357" style="stroke: #000000; stroke-width: 0.8"/>
      </g>
     </g>
     <g id="text_8">
      <!-- 1500 -->
      <g transform="translate(1279.984947 770.646795) scale(0.1 -0.1)">
       <defs>
        <path id="DejaVuSans-35" d="M 691 4666 
L 3169 4666 
L 3169 4134 
L 1269 4134 
L 1269 2991 
Q 1406 3038 1543 3061 
Q 1681 3084 1819 3084 
Q 2600 3084 3056 2656 
Q 3513 2228 3513 1497 
Q 3513 744 3044 326 
Q 2575 -91 1722 -91 
Q 1428 -91 1123 -41 
Q 819 9 494 109 
L 494 744 
Q 775 591 1075 516 
Q 1375 441 1709 441 
Q 2250 441 2565 725 
Q 2881 1009 2881 1497 
Q 2881 1984 2565 2268 
Q 2250 2553 1709 2553 
Q 1456 2553 1204 2497 
Q 953 2441 691 2322 
L 691 4666 
z
" transform="scale(0.015625)"/>
       </defs>
       <use xlink:href="#DejaVuSans-31"/>
       <use xlink:href="#DejaVuSans-35" x="63.623047"/>
       <use xlink:href="#DejaVuSans-30" x="127.246094"/>
       <use xlink:href="#DejaVuSans-30" x="190.869141"/>
      </g>
     </g>
    </g>
   </g>
   <g id="matplotlib.axis_2">
    <g id="ytick_1">
     <g id="line2d_9">
      <defs>
       <path id="mb6ee641d84" d="M 0 0 
L -3.5 0 
" style="stroke: #000000; stroke-width: 0.8"/>
      </defs>
      <g>
       <use xlink:href="#mb6ee641d84" x="180" y="710.914678" style="stroke: #000000; stroke-width: 0.8"/>
      </g>
     </g>
     <g id="text_9">
      <!-- 150 -->
      <g transform="translate(153.9125 714.713897) scale(0.1 -0.1)">
       <use xlink:href="#DejaVuSans-31"/>
       <use xlink:href="#DejaVuSans-35" x="63.623047"/>
       <use xlink:href="#DejaVuSans-30" x="127.246094"/>
      </g>
     </g>
    </g>
    <g id="ytick_2">
     <g id="line2d_10">
      <g>
       <use xlink:href="#mb6ee641d84" x="180" y="638.98431" style="stroke: #000000; stroke-width: 0.8"/>
      </g>
     </g>
     <g id="text_10">
      <!-- 200 -->
      <g transform="translate(153.9125 642.783529) scale(0.1 -0.1)">
       <use xlink:href="#DejaVuSans-32"/>
       <use xlink:href="#DejaVuSans-30" x="63.623047"/>
       <use xlink:href="#DejaVuSans-30" x="127.246094"/>
      </g>
     </g>
    </g>
    <g id="ytick_3">
     <g id="line2d_11">
      <g>
       <use xlink:href="#mb6ee641d84" x="180" y="567.053943" style="stroke: #000000; stroke-width: 0.8"/>
      </g>
     </g>
     <g id="text_11">
      <!-- 250 -->
      <g transform="translate(153.9125 570.853162) scale(0.1 -0.1)">
       <use xlink:href="#DejaVuSans-32"/>
       <use xlink:href="#DejaVuSans-35" x="63.623047"/>
       <use xlink:href="#DejaVuSans-30" x="127.246094"/>
      </g>
     </g>
    </g>
    <g id="ytick_4">
     <g id="line2d_12">
      <g>
       <use xlink:href="#mb6ee641d84" x="180" y="495.123575" style="stroke: #000000; stroke-width: 0.8"/>
      </g>
     </g>
     <g id="text_12">
      <!-- 300 -->
      <g transform="translate(153.9125 498.922794) scale(0.1 -0.1)">
       <use xlink:href="#DejaVuSans-33"/>
       <use xlink:href="#DejaVuSans-30" x="63.623047"/>
       <use xlink:href="#DejaVuSans-30" x="127.246094"/>
      </g>
     </g>
    </g>
    <g id="ytick_5">
     <g id="line2d_13">
      <g>
       <use xlink:href="#mb6ee641d84" x="180" y="423.193208" style="stroke: #000000; stroke-width: 0.8"/>
      </g>
     </g>
     <g id="text_13">
      <!-- 350 -->
      <g transform="translate(153.9125 426.992427) scale(0.1 -0.1)">
       <use xlink:href="#DejaVuSans-33"/>
       <use xlink:href="#DejaVuSans-35" x="63.623047"/>
       <use xlink:href="#DejaVuSans-30" x="127.246094"/>
      </g>
     </g>
    </g>
    <g id="ytick_6">
     <g id="line2d_14">
      <g>
       <use xlink:href="#mb6ee641d84" x="180" y="351.26284" style="stroke: #000000; stroke-width: 0.8"/>
      </g>
     </g>
     <g id="text_14">
      <!-- 400 -->
      <g transform="translate(153.9125 355.062059) scale(0.1 -0.1)">
       <use xlink:href="#DejaVuSans-34"/>
       <use xlink:href="#DejaVuSans-30" x="63.623047"/>
       <use xlink:href="#DejaVuSans-30" x="127.246094"/>
      </g>
     </g>
    </g>
   </g>
   <g id="LineCollection_1">
    <path d="M 1242.321868 703.790573 
L 1226.776144 705.246335 
L 1212.912563 705.19131 
L 1199.828203 703.884287 
L 1187.393281 701.482971 
L 1175.498211 698.12166 
L 1164.055226 693.919105 
L 1152.995952 688.984959 
L 1142.266963 683.423589 
L 1131.825186 677.335443 
L 1121.634233 670.816881 
L 1111.66192 663.959332 
L 1101.878809 656.848372 
L 1092.25749 649.563009 
L 1073.399248 634.749907 
L 1045.687841 612.749868 
L 1036.541161 605.668937 
L 1027.418024 598.775096 
L 1018.306868 592.094506 
L 1009.198489 585.647996 
L 1000.085977 579.45138 
L 990.964618 573.515744 
L 981.831732 567.847734 
L 972.686479 562.449832 
L 963.529629 557.32065 
L 954.363305 552.455229 
L 945.190714 547.84537 
L 936.015884 543.479985 
L 926.84342 539.345463 
L 917.678274 535.426055 
L 908.52556 531.704264 
L 899.390385 528.161224 
L 890.277722 524.777075 
L 872.138549 518.403103 
L 854.141634 512.416197 
L 801.176891 495.196299 
L 783.903408 489.259617 
L 766.812707 483.054857 
L 749.879082 476.516296 
L 733.065385 469.605507 
L 716.323813 462.312614 
L 699.5968 454.657204 
L 682.817808 446.688726 
L 631.326271 421.806236 
L 613.486765 413.629511 
L 604.390107 409.655343 
L 595.160199 405.787334 
L 585.786037 402.048427 
L 576.257225 398.461496 
L 566.564164 395.048949 
L 556.698225 391.832269 
L 546.65189 388.831522 
L 536.418862 386.064817 
L 525.994118 383.547742 
L 515.373919 381.292802 
L 504.555787 379.308863 
L 493.538449 377.600623 
L 482.321792 376.168131 
L 470.906832 375.006332 
L 459.295746 374.104665 
L 447.491957 373.446674 
L 435.500304 373.009643 
L 423.32729 372.764226 
L 410.981403 372.67408 
L 385.816926 372.777017 
L 360.042293 372.873131 
L 347.00604 372.741402 
L 333.906917 372.37761 
L 320.777604 371.686403 
L 307.654714 370.563572 
L 294.577771 368.896163 
L 281.587247 366.562309 
L 268.721484 363.430255 
L 256.012687 359.355725 
L 242.817033 353.901493 
L 242.817033 353.901493 
" clip-path="url(#p0717720b8a)" style="fill: none; stroke: #1f77b4; stroke-width: 1.5"/>
    <path d="M 1243.797298 719.546322 
L 1227.484131 721.07395 
L 1212.092823 721.012862 
L 1197.536735 719.558825 
L 1183.734878 716.89354 
L 1170.611691 713.185187 
L 1158.096836 708.588977 
L 1146.124987 703.247681 
L 1134.635621 697.292169 
L 1123.572815 690.841928 
L 1112.885047 684.005583 
L 1102.524998 676.881404 
L 1092.449353 669.557812 
L 1082.618614 662.113874 
L 1072.996908 654.619788 
L 1063.551803 647.137364 
L 1054.254123 639.720493 
L 1045.077772 632.415615 
L 1035.999556 625.262167 
L 1026.999008 618.293035 
L 1018.058226 611.534983 
L 1009.1617 605.009087 
L 1000.296153 598.731151 
L 991.450383 592.712112 
L 982.615108 586.958445 
L 973.782815 581.472544 
L 964.947611 576.253109 
L 956.105082 571.295507 
L 947.252153 566.592132 
L 938.386951 562.132754 
L 929.508677 557.904852 
L 920.617474 553.893937 
L 911.714308 550.083873 
L 902.800848 546.457168 
L 893.87935 542.995274 
L 884.952548 539.678855 
L 876.023548 536.488064 
L 867.095727 533.402785 
L 858.172633 530.402883 
L 849.257899 527.468428 
L 840.355149 524.579908 
L 831.467918 521.718435 
L 822.599574 518.865934 
L 813.753244 516.005312 
L 804.931745 513.120625 
L 796.137522 510.197225 
L 787.372589 507.22189 
L 778.638472 504.182944 
L 769.936167 501.070361 
L 761.266092 497.875858 
L 752.628051 494.592964 
L 744.0212 491.21708 
L 735.444022 487.745528 
L 726.894303 484.177574 
L 718.369115 480.514443 
L 709.864809 476.759314 
L 701.377006 472.917304 
L 692.9006 468.995426 
L 684.429759 465.002545 
L 675.957946 460.949299 
L 667.477929 456.848022 
L 658.981805 452.712634 
L 650.461036 448.558523 
L 641.906477 444.402408 
L 633.308424 440.262181 
L 624.656655 436.156732 
L 615.940493 432.10576 
L 607.148857 428.129561 
L 598.270334 424.248798 
L 589.293253 420.484254 
L 580.205761 416.856568 
L 570.995908 413.385942 
L 561.651746 410.091843 
L 552.161419 406.992675 
L 542.513279 404.105435 
L 532.695988 401.445348 
L 522.698646 399.02548 
L 512.510912 396.85634 
L 502.123139 394.945446 
L 491.526513 393.296885 
L 480.713202 391.910842 
L 469.676508 390.783113 
L 458.41103 389.904595 
L 446.912832 389.260755 
L 435.179617 388.831075 
L 423.210914 388.588479 
L 411.008266 388.498738 
L 398.575426 388.519843 
L 385.918568 388.601371 
L 373.046496 388.683815 
L 359.970864 388.697898 
L 346.706409 388.563863 
L 333.271183 388.190737 
L 319.686797 387.475572 
L 305.978676 386.302667 
L 292.176316 384.542762 
L 278.313553 382.052203 
L 264.428839 378.672094 
L 250.565525 374.227418 
L 236.772153 368.526129 
" clip-path="url(#p0717720b8a)" style="fill: none; stroke: #8c564b; stroke-width: 1.5"/>
    <path d="M 1245.272727 735.302071 
L 1227.421323 736.898507 
L 1210.519892 736.759177 
L 1194.536255 735.096446 
L 1179.431647 732.121892 
L 1165.156197 728.039753 
L 1151.649194 723.040566 
L 1138.842482 717.297082 
L 1126.664846 710.962842 
L 1115.045848 704.17277 
L 1103.918504 697.044816 
L 1093.220817 689.681902 
L 1082.896427 682.173759 
L 1072.894683 674.598492 
L 1053.683472 659.508158 
L 1026.258124 637.733316 
L 1017.383464 630.861658 
L 1008.606763 624.22763 
L 999.90857 617.847219 
L 991.271613 611.731153 
L 982.680519 605.885407 
L 974.121582 600.311694 
L 965.582591 595.00797 
L 957.052711 589.968906 
L 948.522405 585.186352 
L 939.9834 580.649759 
L 931.428681 576.34656 
L 922.852482 572.262508 
L 914.250297 568.381973 
L 905.618862 564.688194 
L 896.956122 561.163503 
L 888.261184 557.789522 
L 879.534232 554.547351 
L 861.989847 548.381268 
L 844.342092 542.510253 
L 791.050782 525.182071 
L 773.309047 519.083204 
L 755.644228 512.66826 
L 738.084134 505.885814 
L 720.647 498.716891 
L 703.339155 491.175845 
L 686.153363 483.309591 
L 669.067998 475.195321 
L 617.929688 450.480573 
L 600.719092 442.589461 
L 592.041144 438.796368 
L 583.299448 435.130533 
L 574.48161 431.610491 
L 565.574488 428.253946 
L 556.564189 425.077544 
L 547.436077 422.096661 
L 538.174828 419.3252 
L 528.764523 416.775389 
L 519.1888 414.457575 
L 509.431075 412.379991 
L 499.474808 410.548475 
L 489.30382 408.966133 
L 478.902641 407.632916 
L 468.256847 406.545129 
L 457.353384 405.694842 
L 446.180843 405.069237 
L 434.729682 404.649886 
L 422.992374 404.411981 
L 410.963508 404.323517 
L 386.020499 404.425724 
L 359.810967 404.521771 
L 346.267091 404.382445 
L 332.439227 403.993533 
L 318.337723 403.242643 
L 303.977114 402.000256 
L 289.378083 400.118076 
L 274.570495 397.427834 
L 259.597563 393.741245 
L 244.520645 388.852053 
L 230.727273 383.150764 
L 230.727273 383.150764 
" clip-path="url(#p0717720b8a)" style="fill: none; stroke: #17becf; stroke-width: 1.5"/>
   </g>
   <g id="patch_3">
    <path d="M 180 756.048357 
L 180 334.751643 
" style="fill: none; stroke: #000000; stroke-width: 0.8; stroke-linejoin: miter; stroke-linecap: square"/>
   </g>
   <g id="patch_4">
    <path d="M 1296 756.048357 
L 1296 334.751643 
" style="fill: none; stroke: #000000; stroke-width: 0.8; stroke-linejoin: miter; stroke-linecap: square"/>
   </g>
   <g id="patch_5">
    <path d="M 180 756.048357 
L 1296 756.048357 
" style="fill: none; stroke: #000000; stroke-width: 0.8; stroke-linejoin: miter; stroke-linecap: square"/>
   </g>
   <g id="patch_6">
    <path d="M 180 334.751643 
L 1296 334.751643 
" style="fill: none; stroke: #000000; stroke-width: 0.8; stroke-linejoin: miter; stroke-linecap: square"/>
   </g>
  </g>
 </g>
 <defs>
  <clipPath id="p0717720b8a">
   <rect x="180" y="334.751643" width="1116" height="421.296714"/>
  </clipPath>
 </defs>
</svg>
