<?xml version="1.0" encoding="utf-8" standalone="no"?>
<!DOCTYPE svg PUBLIC "-//W3C//DTD SVG 1.1//EN"
  "http://www.w3.org/Graphics/SVG/1.1/DTD/svg11.dtd">
<svg xmlns:xlink="http://www.w3.org/1999/xlink" width="1440pt" height="1080pt" viewBox="0 0 1440 1080" xmlns="http://www.w3.org/2000/svg" version="1.1">
 <metadata>
  <rdf:RDF xmlns:dc="http://purl.org/dc/elements/1.1/" xmlns:cc="http://creativecommons.org/ns#" xmlns:rdf="http://www.w3.org/1999/02/22-rdf-syntax-ns#">
   <cc:Work>
    <dc:type rdf:resource="http://purl.org/dc/dcmitype/StillImage"/>
    <dc:date>2023-12-11T12:06:52.760766</dc:date>
    <dc:format>image/svg+xml</dc:format>
    <dc:creator>
     <cc:Agent>
      <dc:title>Matplotlib v3.7.1, https://matplotlib.org/</dc:title>
     </cc:Agent>
    </dc:creator>
   </cc:Work>
  </rdf:RDF>
 </metadata>
 <defs>
  <style type="text/css">*{stroke-linejoin: round; stroke-linecap: butt}</style>
 </defs>
 <g id="figure_1">
  <g id="patch_1">
   <path d="M 0 1080 
L 1440 1080 
L 1440 0 
L 0 0 
z
" style="fill: #ffffff"/>
  </g>
  <g id="axes_1">
   <g id="patch_2">
    <path d="M 180 802.555628 
L 1296 802.555628 
L 1296 288.244372 
L 180 288.244372 
z
" style="fill: #ffffff"/>
   </g>
   <g id="matplotlib.axis_1">
    <g id="xtick_1">
     <g id="line2d_1">
      <defs>
       <path id="ma1b1cfabb2" d="M 0 0 
L 0 3.5 
" style="stroke: #000000; stroke-width: 0.8"/>
      </defs>
      <g>
       <use xlink:href="#ma1b1cfabb2" x="230.842204" y="802.555628" style="stroke: #000000; stroke-width: 0.8"/>
      </g>
     </g>
     <g id="text_1">
      <!-- 200 -->
      <g transform="translate(221.298454 817.154066) scale(0.1 -0.1)">
       <defs>
        <path id="DejaVuSans-32" d="M 1228 531 
L 3431 531 
L 3431 0 
L 469 0 
L 469 531 
Q 828 903 1448 1529 
Q 2069 2156 2228 2338 
Q 2531 2678 2651 2914 
Q 2772 3150 2772 3378 
Q 2772 3750 2511 3984 
Q 2250 4219 1831 4219 
Q 1534 4219 1204 4116 
Q 875 4013 500 3803 
L 500 4441 
Q 881 4594 1212 4672 
Q 1544 4750 1819 4750 
Q 2544 4750 2975 4387 
Q 3406 4025 3406 3419 
Q 3406 3131 3298 2873 
Q 3191 2616 2906 2266 
Q 2828 2175 2409 1742 
Q 1991 1309 1228 531 
z
" transform="scale(0.015625)"/>
        <path id="DejaVuSans-30" d="M 2034 4250 
Q 1547 4250 1301 3770 
Q 1056 3291 1056 2328 
Q 1056 1369 1301 889 
Q 1547 409 2034 409 
Q 2525 409 2770 889 
Q 3016 1369 3016 2328 
Q 3016 3291 2770 3770 
Q 2525 4250 2034 4250 
z
M 2034 4750 
Q 2819 4750 3233 4129 
Q 3647 3509 3647 2328 
Q 3647 1150 3233 529 
Q 2819 -91 2034 -91 
Q 1250 -91 836 529 
Q 422 1150 422 2328 
Q 422 3509 836 4129 
Q 1250 4750 2034 4750 
z
" transform="scale(0.015625)"/>
       </defs>
       <use xlink:href="#DejaVuSans-32"/>
       <use xlink:href="#DejaVuSans-30" x="63.623047"/>
       <use xlink:href="#DejaVuSans-30" x="127.246094"/>
      </g>
     </g>
    </g>
    <g id="xtick_2">
     <g id="line2d_2">
      <g>
       <use xlink:href="#ma1b1cfabb2" x="355.237354" y="802.555628" style="stroke: #000000; stroke-width: 0.8"/>
      </g>
     </g>
     <g id="text_2">
      <!-- 300 -->
      <g transform="translate(345.693604 817.154066) scale(0.1 -0.1)">
       <defs>
        <path id="DejaVuSans-33" d="M 2597 2516 
Q 3050 2419 3304 2112 
Q 3559 1806 3559 1356 
Q 3559 666 3084 287 
Q 2609 -91 1734 -91 
Q 1441 -91 1130 -33 
Q 819 25 488 141 
L 488 750 
Q 750 597 1062 519 
Q 1375 441 1716 441 
Q 2309 441 2620 675 
Q 2931 909 2931 1356 
Q 2931 1769 2642 2001 
Q 2353 2234 1838 2234 
L 1294 2234 
L 1294 2753 
L 1863 2753 
Q 2328 2753 2575 2939 
Q 2822 3125 2822 3475 
Q 2822 3834 2567 4026 
Q 2313 4219 1838 4219 
Q 1578 4219 1281 4162 
Q 984 4106 628 3988 
L 628 4550 
Q 988 4650 1302 4700 
Q 1616 4750 1894 4750 
Q 2613 4750 3031 4423 
Q 3450 4097 3450 3541 
Q 3450 3153 3228 2886 
Q 3006 2619 2597 2516 
z
" transform="scale(0.015625)"/>
       </defs>
       <use xlink:href="#DejaVuSans-33"/>
       <use xlink:href="#DejaVuSans-30" x="63.623047"/>
       <use xlink:href="#DejaVuSans-30" x="127.246094"/>
      </g>
     </g>
    </g>
    <g id="xtick_3">
     <g id="line2d_3">
      <g>
       <use xlink:href="#ma1b1cfabb2" x="479.632505" y="802.555628" style="stroke: #000000; stroke-width: 0.8"/>
      </g>
     </g>
     <g id="text_3">
      <!-- 400 -->
      <g transform="translate(470.088755 817.154066) scale(0.1 -0.1)">
       <defs>
        <path id="DejaVuSans-34" d="M 2419 4116 
L 825 1625 
L 2419 1625 
L 2419 4116 
z
M 2253 4666 
L 3047 4666 
L 3047 1625 
L 3713 1625 
L 3713 1100 
L 3047 1100 
L 3047 0 
L 2419 0 
L 2419 1100 
L 313 1100 
L 313 1709 
L 2253 4666 
z
" transform="scale(0.015625)"/>
       </defs>
       <use xlink:href="#DejaVuSans-34"/>
       <use xlink:href="#DejaVuSans-30" x="63.623047"/>
       <use xlink:href="#DejaVuSans-30" x="127.246094"/>
      </g>
     </g>
    </g>
    <g id="xtick_4">
     <g id="line2d_4">
      <g>
       <use xlink:href="#ma1b1cfabb2" x="604.027656" y="802.555628" style="stroke: #000000; stroke-width: 0.8"/>
      </g>
     </g>
     <g id="text_4">
      <!-- 500 -->
      <g transform="translate(594.483906 817.154066) scale(0.1 -0.1)">
       <defs>
        <path id="DejaVuSans-35" d="M 691 4666 
L 3169 4666 
L 3169 4134 
L 1269 4134 
L 1269 2991 
Q 1406 3038 1543 3061 
Q 1681 3084 1819 3084 
Q 2600 3084 3056 2656 
Q 3513 2228 3513 1497 
Q 3513 744 3044 326 
Q 2575 -91 1722 -91 
Q 1428 -91 1123 -41 
Q 819 9 494 109 
L 494 744 
Q 775 591 1075 516 
Q 1375 441 1709 441 
Q 2250 441 2565 725 
Q 2881 1009 2881 1497 
Q 2881 1984 2565 2268 
Q 2250 2553 1709 2553 
Q 1456 2553 1204 2497 
Q 953 2441 691 2322 
L 691 4666 
z
" transform="scale(0.015625)"/>
       </defs>
       <use xlink:href="#DejaVuSans-35"/>
       <use xlink:href="#DejaVuSans-30" x="63.623047"/>
       <use xlink:href="#DejaVuSans-30" x="127.246094"/>
      </g>
     </g>
    </g>
    <g id="xtick_5">
     <g id="line2d_5">
      <g>
       <use xlink:href="#ma1b1cfabb2" x="728.422806" y="802.555628" style="stroke: #000000; stroke-width: 0.8"/>
      </g>
     </g>
     <g id="text_5">
      <!-- 600 -->
      <g transform="translate(718.879056 817.154066) scale(0.1 -0.1)">
       <defs>
        <path id="DejaVuSans-36" d="M 2113 2584 
Q 1688 2584 1439 2293 
Q 1191 2003 1191 1497 
Q 1191 994 1439 701 
Q 1688 409 2113 409 
Q 2538 409 2786 701 
Q 3034 994 3034 1497 
Q 3034 2003 2786 2293 
Q 2538 2584 2113 2584 
z
M 3366 4563 
L 3366 3988 
Q 3128 4100 2886 4159 
Q 2644 4219 2406 4219 
Q 1781 4219 1451 3797 
Q 1122 3375 1075 2522 
Q 1259 2794 1537 2939 
Q 1816 3084 2150 3084 
Q 2853 3084 3261 2657 
Q 3669 2231 3669 1497 
Q 3669 778 3244 343 
Q 2819 -91 2113 -91 
Q 1303 -91 875 529 
Q 447 1150 447 2328 
Q 447 3434 972 4092 
Q 1497 4750 2381 4750 
Q 2619 4750 2861 4703 
Q 3103 4656 3366 4563 
z
" transform="scale(0.015625)"/>
       </defs>
       <use xlink:href="#DejaVuSans-36"/>
       <use xlink:href="#DejaVuSans-30" x="63.623047"/>
       <use xlink:href="#DejaVuSans-30" x="127.246094"/>
      </g>
     </g>
    </g>
    <g id="xtick_6">
     <g id="line2d_6">
      <g>
       <use xlink:href="#ma1b1cfabb2" x="852.817957" y="802.555628" style="stroke: #000000; stroke-width: 0.8"/>
      </g>
     </g>
     <g id="text_6">
      <!-- 700 -->
      <g transform="translate(843.274207 817.154066) scale(0.1 -0.1)">
       <defs>
        <path id="DejaVuSans-37" d="M 525 4666 
L 3525 4666 
L 3525 4397 
L 1831 0 
L 1172 0 
L 2766 4134 
L 525 4134 
L 525 4666 
z
" transform="scale(0.015625)"/>
       </defs>
       <use xlink:href="#DejaVuSans-37"/>
       <use xlink:href="#DejaVuSans-30" x="63.623047"/>
       <use xlink:href="#DejaVuSans-30" x="127.246094"/>
      </g>
     </g>
    </g>
    <g id="xtick_7">
     <g id="line2d_7">
      <g>
       <use xlink:href="#ma1b1cfabb2" x="977.213108" y="802.555628" style="stroke: #000000; stroke-width: 0.8"/>
      </g>
     </g>
     <g id="text_7">
      <!-- 800 -->
      <g transform="translate(967.669358 817.154066) scale(0.1 -0.1)">
       <defs>
        <path id="DejaVuSans-38" d="M 2034 2216 
Q 1584 2216 1326 1975 
Q 1069 1734 1069 1313 
Q 1069 891 1326 650 
Q 1584 409 2034 409 
Q 2484 409 2743 651 
Q 3003 894 3003 1313 
Q 3003 1734 2745 1975 
Q 2488 2216 2034 2216 
z
M 1403 2484 
Q 997 2584 770 2862 
Q 544 3141 544 3541 
Q 544 4100 942 4425 
Q 1341 4750 2034 4750 
Q 2731 4750 3128 4425 
Q 3525 4100 3525 3541 
Q 3525 3141 3298 2862 
Q 3072 2584 2669 2484 
Q 3125 2378 3379 2068 
Q 3634 1759 3634 1313 
Q 3634 634 3220 271 
Q 2806 -91 2034 -91 
Q 1263 -91 848 271 
Q 434 634 434 1313 
Q 434 1759 690 2068 
Q 947 2378 1403 2484 
z
M 1172 3481 
Q 1172 3119 1398 2916 
Q 1625 2713 2034 2713 
Q 2441 2713 2670 2916 
Q 2900 3119 2900 3481 
Q 2900 3844 2670 4047 
Q 2441 4250 2034 4250 
Q 1625 4250 1398 4047 
Q 1172 3844 1172 3481 
z
" transform="scale(0.015625)"/>
       </defs>
       <use xlink:href="#DejaVuSans-38"/>
       <use xlink:href="#DejaVuSans-30" x="63.623047"/>
       <use xlink:href="#DejaVuSans-30" x="127.246094"/>
      </g>
     </g>
    </g>
    <g id="xtick_8">
     <g id="line2d_8">
      <g>
       <use xlink:href="#ma1b1cfabb2" x="1101.608258" y="802.555628" style="stroke: #000000; stroke-width: 0.8"/>
      </g>
     </g>
     <g id="text_8">
      <!-- 900 -->
      <g transform="translate(1092.064508 817.154066) scale(0.1 -0.1)">
       <defs>
        <path id="DejaVuSans-39" d="M 703 97 
L 703 672 
Q 941 559 1184 500 
Q 1428 441 1663 441 
Q 2288 441 2617 861 
Q 2947 1281 2994 2138 
Q 2813 1869 2534 1725 
Q 2256 1581 1919 1581 
Q 1219 1581 811 2004 
Q 403 2428 403 3163 
Q 403 3881 828 4315 
Q 1253 4750 1959 4750 
Q 2769 4750 3195 4129 
Q 3622 3509 3622 2328 
Q 3622 1225 3098 567 
Q 2575 -91 1691 -91 
Q 1453 -91 1209 -44 
Q 966 3 703 97 
z
M 1959 2075 
Q 2384 2075 2632 2365 
Q 2881 2656 2881 3163 
Q 2881 3666 2632 3958 
Q 2384 4250 1959 4250 
Q 1534 4250 1286 3958 
Q 1038 3666 1038 3163 
Q 1038 2656 1286 2365 
Q 1534 2075 1959 2075 
z
" transform="scale(0.015625)"/>
       </defs>
       <use xlink:href="#DejaVuSans-39"/>
       <use xlink:href="#DejaVuSans-30" x="63.623047"/>
       <use xlink:href="#DejaVuSans-30" x="127.246094"/>
      </g>
     </g>
    </g>
    <g id="xtick_9">
     <g id="line2d_9">
      <g>
       <use xlink:href="#ma1b1cfabb2" x="1226.003409" y="802.555628" style="stroke: #000000; stroke-width: 0.8"/>
      </g>
     </g>
     <g id="text_9">
      <!-- 1000 -->
      <g transform="translate(1213.278409 817.154066) scale(0.1 -0.1)">
       <defs>
        <path id="DejaVuSans-31" d="M 794 531 
L 1825 531 
L 1825 4091 
L 703 3866 
L 703 4441 
L 1819 4666 
L 2450 4666 
L 2450 531 
L 3481 531 
L 3481 0 
L 794 0 
L 794 531 
z
" transform="scale(0.015625)"/>
       </defs>
       <use xlink:href="#DejaVuSans-31"/>
       <use xlink:href="#DejaVuSans-30" x="63.623047"/>
       <use xlink:href="#DejaVuSans-30" x="127.246094"/>
       <use xlink:href="#DejaVuSans-30" x="190.869141"/>
      </g>
     </g>
    </g>
   </g>
   <g id="matplotlib.axis_2">
    <g id="ytick_1">
     <g id="line2d_10">
      <defs>
       <path id="ma4c1a1b246" d="M 0 0 
L -3.5 0 
" style="stroke: #000000; stroke-width: 0.8"/>
      </defs>
      <g>
       <use xlink:href="#ma4c1a1b246" x="180" y="745.760853" style="stroke: #000000; stroke-width: 0.8"/>
      </g>
     </g>
     <g id="text_10">
      <!-- 1000 -->
      <g transform="translate(147.55 749.560071) scale(0.1 -0.1)">
       <use xlink:href="#DejaVuSans-31"/>
       <use xlink:href="#DejaVuSans-30" x="63.623047"/>
       <use xlink:href="#DejaVuSans-30" x="127.246094"/>
       <use xlink:href="#DejaVuSans-30" x="190.869141"/>
      </g>
     </g>
    </g>
    <g id="ytick_2">
     <g id="line2d_11">
      <g>
       <use xlink:href="#ma4c1a1b246" x="180" y="683.563277" style="stroke: #000000; stroke-width: 0.8"/>
      </g>
     </g>
     <g id="text_11">
      <!-- 1050 -->
      <g transform="translate(147.55 687.362496) scale(0.1 -0.1)">
       <use xlink:href="#DejaVuSans-31"/>
       <use xlink:href="#DejaVuSans-30" x="63.623047"/>
       <use xlink:href="#DejaVuSans-35" x="127.246094"/>
       <use xlink:href="#DejaVuSans-30" x="190.869141"/>
      </g>
     </g>
    </g>
    <g id="ytick_3">
     <g id="line2d_12">
      <g>
       <use xlink:href="#ma4c1a1b246" x="180" y="621.365702" style="stroke: #000000; stroke-width: 0.8"/>
      </g>
     </g>
     <g id="text_12">
      <!-- 1100 -->
      <g transform="translate(147.55 625.164921) scale(0.1 -0.1)">
       <use xlink:href="#DejaVuSans-31"/>
       <use xlink:href="#DejaVuSans-31" x="63.623047"/>
       <use xlink:href="#DejaVuSans-30" x="127.246094"/>
       <use xlink:href="#DejaVuSans-30" x="190.869141"/>
      </g>
     </g>
    </g>
    <g id="ytick_4">
     <g id="line2d_13">
      <g>
       <use xlink:href="#ma4c1a1b246" x="180" y="559.168127" style="stroke: #000000; stroke-width: 0.8"/>
      </g>
     </g>
     <g id="text_13">
      <!-- 1150 -->
      <g transform="translate(147.55 562.967345) scale(0.1 -0.1)">
       <use xlink:href="#DejaVuSans-31"/>
       <use xlink:href="#DejaVuSans-31" x="63.623047"/>
       <use xlink:href="#DejaVuSans-35" x="127.246094"/>
       <use xlink:href="#DejaVuSans-30" x="190.869141"/>
      </g>
     </g>
    </g>
    <g id="ytick_5">
     <g id="line2d_14">
      <g>
       <use xlink:href="#ma4c1a1b246" x="180" y="496.970551" style="stroke: #000000; stroke-width: 0.8"/>
      </g>
     </g>
     <g id="text_14">
      <!-- 1200 -->
      <g transform="translate(147.55 500.76977) scale(0.1 -0.1)">
       <use xlink:href="#DejaVuSans-31"/>
       <use xlink:href="#DejaVuSans-32" x="63.623047"/>
       <use xlink:href="#DejaVuSans-30" x="127.246094"/>
       <use xlink:href="#DejaVuSans-30" x="190.869141"/>
      </g>
     </g>
    </g>
    <g id="ytick_6">
     <g id="line2d_15">
      <g>
       <use xlink:href="#ma4c1a1b246" x="180" y="434.772976" style="stroke: #000000; stroke-width: 0.8"/>
      </g>
     </g>
     <g id="text_15">
      <!-- 1250 -->
      <g transform="translate(147.55 438.572195) scale(0.1 -0.1)">
       <use xlink:href="#DejaVuSans-31"/>
       <use xlink:href="#DejaVuSans-32" x="63.623047"/>
       <use xlink:href="#DejaVuSans-35" x="127.246094"/>
       <use xlink:href="#DejaVuSans-30" x="190.869141"/>
      </g>
     </g>
    </g>
    <g id="ytick_7">
     <g id="line2d_16">
      <g>
       <use xlink:href="#ma4c1a1b246" x="180" y="372.575401" style="stroke: #000000; stroke-width: 0.8"/>
      </g>
     </g>
     <g id="text_16">
      <!-- 1300 -->
      <g transform="translate(147.55 376.374619) scale(0.1 -0.1)">
       <use xlink:href="#DejaVuSans-31"/>
       <use xlink:href="#DejaVuSans-33" x="63.623047"/>
       <use xlink:href="#DejaVuSans-30" x="127.246094"/>
       <use xlink:href="#DejaVuSans-30" x="190.869141"/>
      </g>
     </g>
    </g>
    <g id="ytick_8">
     <g id="line2d_17">
      <g>
       <use xlink:href="#ma4c1a1b246" x="180" y="310.377825" style="stroke: #000000; stroke-width: 0.8"/>
      </g>
     </g>
     <g id="text_17">
      <!-- 1350 -->
      <g transform="translate(147.55 314.177044) scale(0.1 -0.1)">
       <use xlink:href="#DejaVuSans-31"/>
       <use xlink:href="#DejaVuSans-33" x="63.623047"/>
       <use xlink:href="#DejaVuSans-35" x="127.246094"/>
       <use xlink:href="#DejaVuSans-30" x="190.869141"/>
      </g>
     </g>
    </g>
   </g>
   <g id="LineCollection_1">
    <path d="M 230.727273 346.45204 
L 245.028116 346.546419 
L 256.495658 348.695374 
L 267.007943 352.691569 
L 276.881624 358.4628 
L 286.279848 365.978442 
L 295.250724 375.167663 
L 303.793014 385.900573 
L 311.900343 398.0066 
L 319.578674 411.29824 
L 326.848647 425.587516 
L 333.742433 440.694675 
L 340.299739 456.451849 
L 346.564494 472.704075 
L 352.582477 489.30908 
L 358.399739 506.136581 
L 369.612062 539.992825 
L 380.56181 573.485044 
L 386.035861 589.863252 
L 391.55848 605.890025 
L 397.165875 621.498699 
L 402.89308 636.629349 
L 408.774302 651.228314 
L 414.843331 665.247672 
L 421.13398 678.644589 
L 427.68052 691.38048 
L 434.518021 703.419862 
L 441.682414 714.728833 
L 449.210029 725.273112 
L 457.136205 735.015753 
L 465.492591 743.914912 
L 474.302909 751.922456 
L 483.577591 758.98462 
L 493.308666 765.045794 
L 503.467247 770.055615 
L 514.00582 773.977668 
L 524.865781 776.796576 
L 535.987908 778.520438 
L 547.32186 779.177844 
L 558.831639 778.811335 
L 570.4963 777.470275 
L 582.307298 775.205388 
L 594.264431 772.065696 
L 606.371914 768.097515 
L 618.635334 763.344743 
L 631.059605 757.849746 
L 643.647776 751.654379 
L 656.400438 744.80092 
L 669.315527 737.332809 
L 682.388332 729.295203 
L 695.611631 720.735347 
L 708.975869 711.70282 
L 722.469356 702.249667 
L 736.078449 692.430449 
L 749.78773 682.302235 
L 763.580153 671.924544 
L 791.338901 650.67044 
L 833.130941 618.505921 
L 847.00569 607.989324 
L 860.809141 597.696012 
L 874.51494 587.698954 
L 888.095658 578.071555 
L 901.522731 568.887215 
L 914.766371 560.218787 
L 927.795455 552.137907 
L 940.57741 544.71414 
L 953.07817 538.013881 
L 965.26229 532.098921 
L 977.093447 527.024623 
L 988.535654 522.83768 
L 999.555657 519.573637 
L 1010.127055 517.254699 
L 1020.236404 515.888899 
L 1029.890649 515.472254 
L 1039.12357 515.995304 
L 1047.997293 517.453715 
L 1056.59531 519.859237 
L 1065.007409 523.244883 
L 1073.31246 527.659986 
L 1081.567036 533.156696 
L 1089.804017 539.774405 
L 1098.039259 547.528344 
L 1106.281386 556.404524 
L 1114.540628 566.359618 
L 1122.835027 577.323224 
L 1131.19416 589.200523 
L 1139.661217 601.874357 
L 1166.462384 643.319084 
L 1176.186956 657.679304 
L 1186.519975 671.940795 
L 1197.644291 685.847644 
L 1209.78446 699.098255 
L 1221.661509 710.049907 
L 1221.661509 710.049907 
" clip-path="url(#p290d91379a)" style="fill: none; stroke: #1f77b4; stroke-width: 1.5"/>
    <path d="M 230.842204 329.037098 
L 246.702758 329.14177 
L 261.231079 331.864299 
L 274.547829 336.926598 
L 286.766373 344.068417 
L 297.993165 353.046342 
L 308.328122 363.632844 
L 317.86498 375.615374 
L 326.691628 388.795503 
L 334.890432 402.98811 
L 342.538533 418.020606 
L 349.708143 433.732209 
L 356.466811 449.973255 
L 362.877685 466.604547 
L 368.999752 483.496745 
L 374.888072 500.529797 
L 380.593989 517.592393 
L 386.165338 534.581472 
L 391.646629 551.401742 
L 397.079235 567.965254 
L 402.501547 584.190985 
L 407.949137 600.004469 
L 413.454901 615.337446 
L 419.049189 630.127539 
L 424.759936 644.317964 
L 430.612768 657.857254 
L 436.631119 670.699019 
L 442.836317 682.801714 
L 449.247683 694.128444 
L 455.882607 704.646773 
L 462.756626 714.328565 
L 469.883492 723.149832 
L 477.275231 731.090607 
L 484.942205 738.134825 
L 492.89316 744.270219 
L 501.135273 749.488235 
L 509.674194 753.783946 
L 518.514088 757.155988 
L 527.657663 759.606498 
L 537.106211 761.141059 
L 546.859632 761.768658 
L 556.916462 761.501641 
L 567.273903 760.355674 
L 577.927846 758.349712 
L 588.872897 755.505962 
L 600.1024 751.84985 
L 611.608462 747.409986 
L 623.381983 742.218126 
L 635.412677 736.309134 
L 647.689106 729.72093 
L 660.198709 722.494446 
L 672.927835 714.673561 
L 685.861781 706.305037 
L 698.984835 697.438436 
L 712.280313 688.126041 
L 725.730618 678.422745 
L 739.317286 668.385943 
L 753.02105 658.075402 
L 766.821904 647.553115 
L 780.699175 636.88314 
L 794.631601 626.131419 
L 808.597418 615.365579 
L 822.574453 604.654709 
L 836.540227 594.069117 
L 850.472063 583.680069 
L 864.347208 573.559489 
L 878.142964 563.779649 
L 891.836823 554.412823 
L 905.40662 545.530914 
L 918.830693 537.205053 
L 932.088057 529.50517 
L 945.158586 522.499521 
L 958.023211 516.2542 
L 970.664131 510.8326 
L 983.065032 506.294851 
L 995.211329 502.697208 
L 1007.090413 500.091416 
L 1018.691917 498.524023 
L 1030.008 498.035658 
L 1041.033639 498.660266 
L 1051.766946 500.424303 
L 1062.209492 503.345881 
L 1072.366659 507.43387 
L 1082.247999 512.686955 
L 1091.867619 519.092646 
L 1101.244578 526.626229 
L 1110.403306 535.249682 
L 1119.374047 544.910526 
L 1128.193309 555.540629 
L 1136.90435 567.054956 
L 1145.557673 579.350262 
L 1154.211545 592.303729 
L 1162.932542 605.771543 
L 1171.796113 619.587418 
L 1180.887161 633.561051 
L 1190.30066 647.476522 
L 1200.142284 661.090628 
L 1210.529064 674.131158 
L 1221.59007 686.295092 
L 1233.467118 697.246744 
" clip-path="url(#p290d91379a)" style="fill: none; stroke: #8c564b; stroke-width: 1.5"/>
    <path d="M 230.957134 311.622156 
L 248.370724 311.806509 
L 249.910459 312.024409 
L 265.947752 315.099861 
L 267.419376 315.585528 
L 282.061861 321.215686 
L 283.336063 321.891294 
L 295.554606 329.033113 
L 297.643046 330.467263 
L 308.869838 339.445187 
L 310.454816 340.88079 
L 321.954434 352.787705 
L 332.335155 365.92479 
L 341.771577 380.084099 
L 350.412329 395.091015 
L 358.382214 410.790725 
L 365.786787 427.041124 
L 372.716664 443.709415 
L 379.250877 460.670577 
L 385.459298 477.806686 
L 391.40435 495.006574 
L 402.723641 529.185548 
L 413.612064 562.491561 
L 418.993454 578.594837 
L 424.378001 594.225314 
L 429.795905 609.313613 
L 435.273544 623.79531 
L 440.833403 637.6108 
L 446.493932 650.705237 
L 452.269335 663.028608 
L 458.169325 674.536021 
L 464.19891 685.188271 
L 470.358339 694.952799 
L 476.643426 703.805103 
L 483.046577 711.730593 
L 489.558916 718.726649 
L 496.173867 724.804295 
L 502.892113 729.988464 
L 509.727096 734.315637 
L 516.70914 737.828123 
L 523.885811 740.565717 
L 531.317034 742.55731 
L 539.065886 743.81582 
L 547.188346 744.338472 
L 555.725677 744.111799 
L 564.701412 743.118706 
L 574.122512 741.344869 
L 583.982923 738.782931 
L 594.2677 735.434403 
L 604.956587 731.309864 
L 616.026611 726.428231 
L 627.45374 720.815685 
L 639.213815 714.504585 
L 651.282996 707.532521 
L 663.637913 699.941554 
L 676.255655 691.77762 
L 689.113695 683.090076 
L 702.189784 673.931346 
L 715.461853 664.356631 
L 728.907947 654.423675 
L 756.23467 633.725421 
L 826.129444 580.108136 
L 840.209265 569.609945 
L 854.275471 559.351973 
L 868.310712 549.405359 
L 882.299268 539.841328 
L 896.227459 530.731034 
L 910.084092 522.145492 
L 923.860903 514.155663 
L 937.552927 506.832761 
L 951.158635 500.248857 
L 964.679577 494.47783 
L 978.119135 489.596602 
L 991.479833 485.686349 
L 1004.758741 482.83289 
L 1017.941028 481.124897 
L 1030.993008 480.648215 
L 1043.857986 481.475492 
L 1056.459159 483.653002 
L 1068.711812 487.189977 
L 1080.541545 492.056463 
L 1091.900571 498.191395 
L 1102.775126 505.516206 
L 1113.182973 513.946792 
L 1123.165168 523.399438 
L 1132.777116 533.790672 
L 1142.08185 545.033401 
L 1151.146128 557.031724 
L 1160.038684 569.675877 
L 1168.829696 582.837838 
L 1195.399649 623.932677 
L 1204.573366 637.49369 
L 1214.017845 650.558419 
L 1223.796761 662.83578 
L 1233.959174 674.011519 
L 1245.272727 684.44358 
L 1245.272727 684.44358 
" clip-path="url(#p290d91379a)" style="fill: none; stroke: #17becf; stroke-width: 1.5"/>
   </g>
   <g id="patch_3">
    <path d="M 180 802.555628 
L 180 288.244372 
" style="fill: none; stroke: #000000; stroke-width: 0.8; stroke-linejoin: miter; stroke-linecap: square"/>
   </g>
   <g id="patch_4">
    <path d="M 1296 802.555628 
L 1296 288.244372 
" style="fill: none; stroke: #000000; stroke-width: 0.8; stroke-linejoin: miter; stroke-linecap: square"/>
   </g>
   <g id="patch_5">
    <path d="M 180 802.555628 
L 1296 802.555628 
" style="fill: none; stroke: #000000; stroke-width: 0.8; stroke-linejoin: miter; stroke-linecap: square"/>
   </g>
   <g id="patch_6">
    <path d="M 180 288.244372 
L 1296 288.244372 
" style="fill: none; stroke: #000000; stroke-width: 0.8; stroke-linejoin: miter; stroke-linecap: square"/>
   </g>
  </g>
 </g>
 <defs>
  <clipPath id="p290d91379a">
   <rect x="180" y="288.244372" width="1116" height="514.311257"/>
  </clipPath>
 </defs>
</svg>
