<?xml version="1.0" encoding="utf-8" standalone="no"?>
<!DOCTYPE svg PUBLIC "-//W3C//DTD SVG 1.1//EN"
  "http://www.w3.org/Graphics/SVG/1.1/DTD/svg11.dtd">
<svg xmlns:xlink="http://www.w3.org/1999/xlink" width="1440pt" height="1080pt" viewBox="0 0 1440 1080" xmlns="http://www.w3.org/2000/svg" version="1.1">
 <metadata>
  <rdf:RDF xmlns:dc="http://purl.org/dc/elements/1.1/" xmlns:cc="http://creativecommons.org/ns#" xmlns:rdf="http://www.w3.org/1999/02/22-rdf-syntax-ns#">
   <cc:Work>
    <dc:type rdf:resource="http://purl.org/dc/dcmitype/StillImage"/>
    <dc:date>2023-12-11T12:06:43.081263</dc:date>
    <dc:format>image/svg+xml</dc:format>
    <dc:creator>
     <cc:Agent>
      <dc:title>Matplotlib v3.7.1, https://matplotlib.org/</dc:title>
     </cc:Agent>
    </dc:creator>
   </cc:Work>
  </rdf:RDF>
 </metadata>
 <defs>
  <style type="text/css">*{stroke-linejoin: round; stroke-linecap: butt}</style>
 </defs>
 <g id="figure_1">
  <g id="patch_1">
   <path d="M 0 1080 
L 1440 1080 
L 1440 0 
L 0 0 
z
" style="fill: #ffffff"/>
  </g>
  <g id="axes_1">
   <g id="patch_2">
    <path d="M 215.826862 961.2 
L 1260.173138 961.2 
L 1260.173138 129.6 
L 215.826862 129.6 
z
" style="fill: #ffffff"/>
   </g>
   <g id="matplotlib.axis_1">
    <g id="xtick_1">
     <g id="line2d_1">
      <defs>
       <path id="m133a83308d" d="M 0 0 
L 0 3.5 
" style="stroke: #000000; stroke-width: 0.8"/>
      </defs>
      <g>
       <use xlink:href="#m133a83308d" x="261.34529" y="961.2" style="stroke: #000000; stroke-width: 0.8"/>
      </g>
     </g>
     <g id="text_1">
      <!-- 800 -->
      <g transform="translate(251.80154 975.798437) scale(0.1 -0.1)">
       <defs>
        <path id="DejaVuSans-38" d="M 2034 2216 
Q 1584 2216 1326 1975 
Q 1069 1734 1069 1313 
Q 1069 891 1326 650 
Q 1584 409 2034 409 
Q 2484 409 2743 651 
Q 3003 894 3003 1313 
Q 3003 1734 2745 1975 
Q 2488 2216 2034 2216 
z
M 1403 2484 
Q 997 2584 770 2862 
Q 544 3141 544 3541 
Q 544 4100 942 4425 
Q 1341 4750 2034 4750 
Q 2731 4750 3128 4425 
Q 3525 4100 3525 3541 
Q 3525 3141 3298 2862 
Q 3072 2584 2669 2484 
Q 3125 2378 3379 2068 
Q 3634 1759 3634 1313 
Q 3634 634 3220 271 
Q 2806 -91 2034 -91 
Q 1263 -91 848 271 
Q 434 634 434 1313 
Q 434 1759 690 2068 
Q 947 2378 1403 2484 
z
M 1172 3481 
Q 1172 3119 1398 2916 
Q 1625 2713 2034 2713 
Q 2441 2713 2670 2916 
Q 2900 3119 2900 3481 
Q 2900 3844 2670 4047 
Q 2441 4250 2034 4250 
Q 1625 4250 1398 4047 
Q 1172 3844 1172 3481 
z
" transform="scale(0.015625)"/>
        <path id="DejaVuSans-30" d="M 2034 4250 
Q 1547 4250 1301 3770 
Q 1056 3291 1056 2328 
Q 1056 1369 1301 889 
Q 1547 409 2034 409 
Q 2525 409 2770 889 
Q 3016 1369 3016 2328 
Q 3016 3291 2770 3770 
Q 2525 4250 2034 4250 
z
M 2034 4750 
Q 2819 4750 3233 4129 
Q 3647 3509 3647 2328 
Q 3647 1150 3233 529 
Q 2819 -91 2034 -91 
Q 1250 -91 836 529 
Q 422 1150 422 2328 
Q 422 3509 836 4129 
Q 1250 4750 2034 4750 
z
" transform="scale(0.015625)"/>
       </defs>
       <use xlink:href="#DejaVuSans-38"/>
       <use xlink:href="#DejaVuSans-30" x="63.623047"/>
       <use xlink:href="#DejaVuSans-30" x="127.246094"/>
      </g>
     </g>
    </g>
    <g id="xtick_2">
     <g id="line2d_2">
      <g>
       <use xlink:href="#m133a83308d" x="421.832023" y="961.2" style="stroke: #000000; stroke-width: 0.8"/>
      </g>
     </g>
     <g id="text_2">
      <!-- 900 -->
      <g transform="translate(412.288273 975.798437) scale(0.1 -0.1)">
       <defs>
        <path id="DejaVuSans-39" d="M 703 97 
L 703 672 
Q 941 559 1184 500 
Q 1428 441 1663 441 
Q 2288 441 2617 861 
Q 2947 1281 2994 2138 
Q 2813 1869 2534 1725 
Q 2256 1581 1919 1581 
Q 1219 1581 811 2004 
Q 403 2428 403 3163 
Q 403 3881 828 4315 
Q 1253 4750 1959 4750 
Q 2769 4750 3195 4129 
Q 3622 3509 3622 2328 
Q 3622 1225 3098 567 
Q 2575 -91 1691 -91 
Q 1453 -91 1209 -44 
Q 966 3 703 97 
z
M 1959 2075 
Q 2384 2075 2632 2365 
Q 2881 2656 2881 3163 
Q 2881 3666 2632 3958 
Q 2384 4250 1959 4250 
Q 1534 4250 1286 3958 
Q 1038 3666 1038 3163 
Q 1038 2656 1286 2365 
Q 1534 2075 1959 2075 
z
" transform="scale(0.015625)"/>
       </defs>
       <use xlink:href="#DejaVuSans-39"/>
       <use xlink:href="#DejaVuSans-30" x="63.623047"/>
       <use xlink:href="#DejaVuSans-30" x="127.246094"/>
      </g>
     </g>
    </g>
    <g id="xtick_3">
     <g id="line2d_3">
      <g>
       <use xlink:href="#m133a83308d" x="582.318757" y="961.2" style="stroke: #000000; stroke-width: 0.8"/>
      </g>
     </g>
     <g id="text_3">
      <!-- 1000 -->
      <g transform="translate(569.593757 975.798437) scale(0.1 -0.1)">
       <defs>
        <path id="DejaVuSans-31" d="M 794 531 
L 1825 531 
L 1825 4091 
L 703 3866 
L 703 4441 
L 1819 4666 
L 2450 4666 
L 2450 531 
L 3481 531 
L 3481 0 
L 794 0 
L 794 531 
z
" transform="scale(0.015625)"/>
       </defs>
       <use xlink:href="#DejaVuSans-31"/>
       <use xlink:href="#DejaVuSans-30" x="63.623047"/>
       <use xlink:href="#DejaVuSans-30" x="127.246094"/>
       <use xlink:href="#DejaVuSans-30" x="190.869141"/>
      </g>
     </g>
    </g>
    <g id="xtick_4">
     <g id="line2d_4">
      <g>
       <use xlink:href="#m133a83308d" x="742.80549" y="961.2" style="stroke: #000000; stroke-width: 0.8"/>
      </g>
     </g>
     <g id="text_4">
      <!-- 1100 -->
      <g transform="translate(730.08049 975.798437) scale(0.1 -0.1)">
       <use xlink:href="#DejaVuSans-31"/>
       <use xlink:href="#DejaVuSans-31" x="63.623047"/>
       <use xlink:href="#DejaVuSans-30" x="127.246094"/>
       <use xlink:href="#DejaVuSans-30" x="190.869141"/>
      </g>
     </g>
    </g>
    <g id="xtick_5">
     <g id="line2d_5">
      <g>
       <use xlink:href="#m133a83308d" x="903.292224" y="961.2" style="stroke: #000000; stroke-width: 0.8"/>
      </g>
     </g>
     <g id="text_5">
      <!-- 1200 -->
      <g transform="translate(890.567224 975.798437) scale(0.1 -0.1)">
       <defs>
        <path id="DejaVuSans-32" d="M 1228 531 
L 3431 531 
L 3431 0 
L 469 0 
L 469 531 
Q 828 903 1448 1529 
Q 2069 2156 2228 2338 
Q 2531 2678 2651 2914 
Q 2772 3150 2772 3378 
Q 2772 3750 2511 3984 
Q 2250 4219 1831 4219 
Q 1534 4219 1204 4116 
Q 875 4013 500 3803 
L 500 4441 
Q 881 4594 1212 4672 
Q 1544 4750 1819 4750 
Q 2544 4750 2975 4387 
Q 3406 4025 3406 3419 
Q 3406 3131 3298 2873 
Q 3191 2616 2906 2266 
Q 2828 2175 2409 1742 
Q 1991 1309 1228 531 
z
" transform="scale(0.015625)"/>
       </defs>
       <use xlink:href="#DejaVuSans-31"/>
       <use xlink:href="#DejaVuSans-32" x="63.623047"/>
       <use xlink:href="#DejaVuSans-30" x="127.246094"/>
       <use xlink:href="#DejaVuSans-30" x="190.869141"/>
      </g>
     </g>
    </g>
    <g id="xtick_6">
     <g id="line2d_6">
      <g>
       <use xlink:href="#m133a83308d" x="1063.778957" y="961.2" style="stroke: #000000; stroke-width: 0.8"/>
      </g>
     </g>
     <g id="text_6">
      <!-- 1300 -->
      <g transform="translate(1051.053957 975.798437) scale(0.1 -0.1)">
       <defs>
        <path id="DejaVuSans-33" d="M 2597 2516 
Q 3050 2419 3304 2112 
Q 3559 1806 3559 1356 
Q 3559 666 3084 287 
Q 2609 -91 1734 -91 
Q 1441 -91 1130 -33 
Q 819 25 488 141 
L 488 750 
Q 750 597 1062 519 
Q 1375 441 1716 441 
Q 2309 441 2620 675 
Q 2931 909 2931 1356 
Q 2931 1769 2642 2001 
Q 2353 2234 1838 2234 
L 1294 2234 
L 1294 2753 
L 1863 2753 
Q 2328 2753 2575 2939 
Q 2822 3125 2822 3475 
Q 2822 3834 2567 4026 
Q 2313 4219 1838 4219 
Q 1578 4219 1281 4162 
Q 984 4106 628 3988 
L 628 4550 
Q 988 4650 1302 4700 
Q 1616 4750 1894 4750 
Q 2613 4750 3031 4423 
Q 3450 4097 3450 3541 
Q 3450 3153 3228 2886 
Q 3006 2619 2597 2516 
z
" transform="scale(0.015625)"/>
       </defs>
       <use xlink:href="#DejaVuSans-31"/>
       <use xlink:href="#DejaVuSans-33" x="63.623047"/>
       <use xlink:href="#DejaVuSans-30" x="127.246094"/>
       <use xlink:href="#DejaVuSans-30" x="190.869141"/>
      </g>
     </g>
    </g>
    <g id="xtick_7">
     <g id="line2d_7">
      <g>
       <use xlink:href="#m133a83308d" x="1224.265691" y="961.2" style="stroke: #000000; stroke-width: 0.8"/>
      </g>
     </g>
     <g id="text_7">
      <!-- 1400 -->
      <g transform="translate(1211.540691 975.798437) scale(0.1 -0.1)">
       <defs>
        <path id="DejaVuSans-34" d="M 2419 4116 
L 825 1625 
L 2419 1625 
L 2419 4116 
z
M 2253 4666 
L 3047 4666 
L 3047 1625 
L 3713 1625 
L 3713 1100 
L 3047 1100 
L 3047 0 
L 2419 0 
L 2419 1100 
L 313 1100 
L 313 1709 
L 2253 4666 
z
" transform="scale(0.015625)"/>
       </defs>
       <use xlink:href="#DejaVuSans-31"/>
       <use xlink:href="#DejaVuSans-34" x="63.623047"/>
       <use xlink:href="#DejaVuSans-30" x="127.246094"/>
       <use xlink:href="#DejaVuSans-30" x="190.869141"/>
      </g>
     </g>
    </g>
   </g>
   <g id="matplotlib.axis_2">
    <g id="ytick_1">
     <g id="line2d_8">
      <defs>
       <path id="m0bef0db915" d="M 0 0 
L -3.5 0 
" style="stroke: #000000; stroke-width: 0.8"/>
      </defs>
      <g>
       <use xlink:href="#m0bef0db915" x="215.826862" y="923.636352" style="stroke: #000000; stroke-width: 0.8"/>
      </g>
     </g>
     <g id="text_8">
      <!-- 700 -->
      <g transform="translate(189.739362 927.43557) scale(0.1 -0.1)">
       <defs>
        <path id="DejaVuSans-37" d="M 525 4666 
L 3525 4666 
L 3525 4397 
L 1831 0 
L 1172 0 
L 2766 4134 
L 525 4134 
L 525 4666 
z
" transform="scale(0.015625)"/>
       </defs>
       <use xlink:href="#DejaVuSans-37"/>
       <use xlink:href="#DejaVuSans-30" x="63.623047"/>
       <use xlink:href="#DejaVuSans-30" x="127.246094"/>
      </g>
     </g>
    </g>
    <g id="ytick_2">
     <g id="line2d_9">
      <g>
       <use xlink:href="#m0bef0db915" x="215.826862" y="763.149618" style="stroke: #000000; stroke-width: 0.8"/>
      </g>
     </g>
     <g id="text_9">
      <!-- 800 -->
      <g transform="translate(189.739362 766.948837) scale(0.1 -0.1)">
       <use xlink:href="#DejaVuSans-38"/>
       <use xlink:href="#DejaVuSans-30" x="63.623047"/>
       <use xlink:href="#DejaVuSans-30" x="127.246094"/>
      </g>
     </g>
    </g>
    <g id="ytick_3">
     <g id="line2d_10">
      <g>
       <use xlink:href="#m0bef0db915" x="215.826862" y="602.662885" style="stroke: #000000; stroke-width: 0.8"/>
      </g>
     </g>
     <g id="text_10">
      <!-- 900 -->
      <g transform="translate(189.739362 606.462103) scale(0.1 -0.1)">
       <use xlink:href="#DejaVuSans-39"/>
       <use xlink:href="#DejaVuSans-30" x="63.623047"/>
       <use xlink:href="#DejaVuSans-30" x="127.246094"/>
      </g>
     </g>
    </g>
    <g id="ytick_4">
     <g id="line2d_11">
      <g>
       <use xlink:href="#m0bef0db915" x="215.826862" y="442.176151" style="stroke: #000000; stroke-width: 0.8"/>
      </g>
     </g>
     <g id="text_11">
      <!-- 1000 -->
      <g transform="translate(183.376862 445.97537) scale(0.1 -0.1)">
       <use xlink:href="#DejaVuSans-31"/>
       <use xlink:href="#DejaVuSans-30" x="63.623047"/>
       <use xlink:href="#DejaVuSans-30" x="127.246094"/>
       <use xlink:href="#DejaVuSans-30" x="190.869141"/>
      </g>
     </g>
    </g>
    <g id="ytick_5">
     <g id="line2d_12">
      <g>
       <use xlink:href="#m0bef0db915" x="215.826862" y="281.689418" style="stroke: #000000; stroke-width: 0.8"/>
      </g>
     </g>
     <g id="text_12">
      <!-- 1100 -->
      <g transform="translate(183.376862 285.488636) scale(0.1 -0.1)">
       <use xlink:href="#DejaVuSans-31"/>
       <use xlink:href="#DejaVuSans-31" x="63.623047"/>
       <use xlink:href="#DejaVuSans-30" x="127.246094"/>
       <use xlink:href="#DejaVuSans-30" x="190.869141"/>
      </g>
     </g>
    </g>
   </g>
   <g id="LineCollection_1">
    <path d="M 1168.588998 923.4 
L 1186.162163 878.947621 
L 1199.094034 839.67711 
L 1206.976363 808.444042 
L 1207.707049 804.825997 
L 1211.731218 778.439391 
L 1212.159736 773.583387 
L 1212.702853 751.592548 
L 1212.647981 748.377284 
L 1212.325096 745.177804 
L 1209.742713 727.157397 
L 1208.942825 723.123371 
L 1207.717385 719.197625 
L 1202.344242 704.746808 
L 1201.086025 701.755214 
L 1199.580427 698.880163 
L 1197.838137 696.142067 
L 1189.988889 684.883635 
L 1187.934091 682.196146 
L 1185.651399 679.699326 
L 1183.158422 677.412438 
L 1173.12835 668.991987 
L 1169.447178 666.257947 
L 1165.467182 663.980746 
L 1153.532896 658.065859 
L 1150.133156 656.580308 
L 1146.606259 655.428748 
L 1133.026376 651.708187 
L 1127.485592 650.619322 
L 1112.501414 648.802244 
L 1108.304945 648.524641 
L 1092.141108 648.339829 
L 1089.02082 648.430657 
L 1069.574952 649.857146 
L 1049.953765 652.460346 
L 1030.187831 655.973051 
L 1010.338482 660.173341 
L 990.485352 664.868945 
L 970.717347 669.889357 
L 931.804968 680.308625 
L 894.165889 690.42555 
L 876.088346 695.085735 
L 858.605683 699.362 
L 841.785091 703.181231 
L 825.688712 706.482456 
L 810.373621 709.217063 
L 795.891665 711.349219 
L 782.288952 712.856486 
L 769.604759 713.730559 
L 757.869544 713.977913 
L 747.101834 713.619979 
L 737.303885 712.692194 
L 728.45647 711.241059 
L 720.51389 709.318387 
L 713.401206 706.972528 
L 707.016132 704.237697 
L 701.23732 701.124328 
L 695.938365 697.614328 
L 691.003895 693.664057 
L 686.342461 689.214655 
L 681.892286 684.206008 
L 677.619269 678.589426 
L 673.509756 672.335582 
L 669.561633 665.436967 
L 665.776503 657.906136 
L 662.154201 649.771746 
L 658.689706 641.07402 
L 655.371902 631.860648 
L 652.183523 622.18351 
L 649.101744 612.09627 
L 646.09903 601.652694 
L 640.202464 579.905858 
L 631.034023 545.688344 
L 627.74267 534.071773 
L 624.267537 522.425632 
L 620.567707 510.787911 
L 616.602946 499.195393 
L 612.334296 487.684131 
L 607.724835 476.289962 
L 602.740659 465.048961 
L 597.352062 453.997726 
L 591.534905 443.173377 
L 585.272035 432.613114 
L 578.554594 422.353263 
L 571.382989 412.427798 
L 563.767301 402.866459 
L 555.727016 393.692719 
L 547.290055 384.9219 
L 538.491286 376.559763 
L 529.370784 368.601776 
L 519.972169 361.033125 
L 510.341283 353.829366 
L 500.525365 346.957557 
L 490.572745 340.37762 
L 480.53296 334.043774 
L 470.457145 327.905904 
L 430.59032 304.032931 
L 421.052381 297.95447 
L 411.826441 291.722219 
L 402.971681 285.275701 
L 394.540661 278.551597 
L 386.575503 271.479604 
L 379.104942 263.975836 
L 372.144056 255.934099 
L 365.698599 247.216718 
L 359.774849 237.648038 
L 354.393497 227.014155 
L 349.603468 215.070693 
L 345.490716 201.556943 
L 342.179078 186.211566 
L 339.636799 167.4 
L 339.636799 167.4 
" clip-path="url(#p8170837736)" style="fill: none; stroke: #1f77b4; stroke-width: 1.5"/>
    <path d="M 1132.788253 909.192546 
L 1149.608252 866.808561 
L 1161.748164 830.252085 
L 1169.630493 799.019017 
L 1173.654662 772.632412 
L 1174.197778 750.641573 
L 1171.615395 732.621167 
L 1166.242253 718.170349 
L 1158.393005 706.911917 
L 1148.362933 698.491466 
L 1136.428647 692.576579 
L 1122.848764 688.856018 
L 1107.864586 687.03894 
L 1091.700749 686.854128 
L 1074.565872 688.049237 
L 1056.653182 690.390056 
L 1038.141134 693.659787 
L 1019.194007 697.658335 
L 999.962501 702.201622 
L 980.584308 707.120905 
L 961.184678 712.26212 
L 941.876972 717.485229 
L 922.763196 722.663594 
L 903.934534 727.683353 
L 885.471857 732.442822 
L 867.446228 736.851897 
L 849.919395 740.831484 
L 832.944266 744.312933 
L 816.56538 747.237488 
L 800.819365 749.555749 
L 785.735378 751.227151 
L 771.335545 752.219449 
L 757.635386 752.508219 
L 744.644222 752.076375 
L 732.365583 750.91369 
L 720.797603 749.016332 
L 709.933394 746.386417 
L 699.761429 743.031567 
L 690.265898 738.964477 
L 681.427065 734.202503 
L 673.22161 728.767253 
L 665.622966 722.684188 
L 658.601643 715.982239 
L 652.125545 708.693428 
L 646.160282 700.852506 
L 640.669461 692.496592 
L 635.614987 683.664832 
L 630.957339 674.398056 
L 626.655849 664.738454 
L 622.668966 654.729255 
L 618.954516 644.414417 
L 615.469955 633.838327 
L 612.172612 623.045505 
L 609.019925 612.080319 
L 605.969675 600.986712 
L 602.980203 589.807926 
L 600.01063 578.586245 
L 597.021068 567.362739 
L 593.972819 556.177016 
L 590.828574 545.066982 
L 587.552605 534.068608 
L 584.11095 523.215701 
L 580.47159 512.539687 
L 576.604624 502.06939 
L 572.482439 491.830831 
L 568.079869 481.847018 
L 563.374356 472.137754 
L 558.346105 462.719442 
L 552.978226 453.604899 
L 547.256883 444.803172 
L 541.171431 436.319364 
L 534.714553 428.154459 
L 527.882388 420.305156 
L 520.674659 412.763699 
L 513.0948 405.517725 
L 505.15007 398.5501 
L 496.851672 391.838769 
L 488.214868 385.356606 
L 479.259085 379.071268 
L 470.008023 372.945047 
L 460.489764 366.934737 
L 450.736867 360.991486 
L 440.78647 355.060667 
L 430.680388 349.08174 
L 420.465209 342.988119 
L 410.192382 336.707045 
L 399.918315 330.159455 
L 389.704457 323.259851 
L 379.617394 315.916181 
L 369.728931 308.029704 
L 360.11618 299.49487 
L 350.861644 290.199196 
L 342.053303 280.02314 
L 333.784693 268.839974 
L 326.154996 256.515665 
L 319.269119 242.908745 
L 313.237776 227.87019 
L 308.177573 211.24329 
L 304.211093 192.863526 
L 301.466973 172.558439 
" clip-path="url(#p8170837736)" style="fill: none; stroke: #8c564b; stroke-width: 1.5"/>
    <path d="M 1096.987508 894.985091 
L 1113.40136 853.624539 
L 1124.748436 819.4555 
L 1131.832501 791.385489 
L 1135.209888 769.239848 
L 1135.613099 752.913781 
L 1134.07397 742.173412 
L 1131.846463 736.182635 
L 1129.717167 733.128517 
L 1127.128211 730.955035 
L 1122.660262 728.740625 
L 1115.401528 726.751906 
L 1105.318403 725.529161 
L 1092.822375 725.386286 
L 1078.404785 726.391872 
L 1062.501295 728.47013 
L 1045.469508 731.478406 
L 1027.599631 735.249615 
L 1009.12947 739.61304 
L 990.256627 744.404037 
L 951.941982 754.663727 
L 913.549392 764.980801 
L 894.623297 769.856673 
L 875.974656 774.412661 
L 857.657782 778.562936 
L 839.714609 782.230047 
L 822.175672 785.34352 
L 805.061311 787.838265 
L 788.383306 789.65284 
L 772.147219 790.727711 
L 756.355742 791.003773 
L 741.013239 790.421663 
L 726.131429 788.922642 
L 711.735515 786.451926 
L 700.871306 783.822011 
L 697.869246 782.96512 
L 687.697281 779.610269 
L 684.596546 778.437377 
L 675.101015 774.370287 
L 671.997345 772.873253 
L 663.158512 768.111279 
L 660.156842 766.313603 
L 651.951387 760.878353 
L 649.150335 758.835822 
L 641.551691 752.752757 
L 639.028501 750.545982 
L 632.007178 743.844032 
L 629.808235 741.565138 
L 623.332137 734.276328 
L 621.471524 732.014579 
L 613.971199 722.004529 
L 607.24015 711.628406 
L 601.200612 700.962113 
L 595.771503 690.066561 
L 590.873215 678.991461 
L 586.43022 667.779098 
L 582.372136 656.46741 
L 578.633895 645.092207 
L 575.155457 633.688597 
L 571.881383 622.291772 
L 565.745079 599.661387 
L 556.860507 566.485105 
L 553.839189 555.809426 
L 550.735241 545.388577 
L 547.520896 535.252469 
L 544.171747 525.427783 
L 540.66657 515.937076 
L 536.986996 506.797862 
L 533.11697 498.021711 
L 529.04199 489.613475 
L 524.748135 481.570746 
L 520.220962 473.883703 
L 515.444406 466.535438 
L 510.399902 459.502829 
L 505.065948 452.757894 
L 499.418284 446.269435 
L 493.430771 440.004691 
L 487.076882 433.930685 
L 480.331586 428.014978 
L 473.173304 422.225716 
L 465.585658 416.530975 
L 457.558774 410.897556 
L 449.090062 405.289421 
L 440.184517 399.66601 
L 421.120268 388.178481 
L 400.373081 375.849213 
L 389.492169 369.188521 
L 378.357934 362.076458 
L 367.034564 354.39859 
L 355.601265 346.028814 
L 344.156215 336.832157 
L 332.820347 326.669906 
L 321.739464 315.407205 
L 312.931122 305.231149 
L 311.082694 302.92219 
L 302.814084 291.739024 
L 301.035618 289.114174 
L 293.405921 276.789865 
L 291.788175 273.907236 
L 284.902298 260.300316 
L 283.520218 257.246152 
L 277.488875 242.207597 
L 276.389646 239.084487 
L 271.329444 222.457588 
L 270.527511 219.368435 
L 266.561031 200.988671 
L 266.041267 198.021965 
L 263.297147 177.716878 
L 263.297147 177.716878 
" clip-path="url(#p8170837736)" style="fill: none; stroke: #17becf; stroke-width: 1.5"/>
   </g>
   <g id="patch_3">
    <path d="M 215.826862 961.2 
L 215.826862 129.6 
" style="fill: none; stroke: #000000; stroke-width: 0.8; stroke-linejoin: miter; stroke-linecap: square"/>
   </g>
   <g id="patch_4">
    <path d="M 1260.173138 961.2 
L 1260.173138 129.6 
" style="fill: none; stroke: #000000; stroke-width: 0.8; stroke-linejoin: miter; stroke-linecap: square"/>
   </g>
   <g id="patch_5">
    <path d="M 215.826862 961.2 
L 1260.173138 961.2 
" style="fill: none; stroke: #000000; stroke-width: 0.8; stroke-linejoin: miter; stroke-linecap: square"/>
   </g>
   <g id="patch_6">
    <path d="M 215.826862 129.6 
L 1260.173138 129.6 
" style="fill: none; stroke: #000000; stroke-width: 0.8; stroke-linejoin: miter; stroke-linecap: square"/>
   </g>
  </g>
 </g>
 <defs>
  <clipPath id="p8170837736">
   <rect x="215.826862" y="129.6" width="1044.346276" height="831.6"/>
  </clipPath>
 </defs>
</svg>
