<?xml version="1.0" encoding="utf-8" standalone="no"?>
<!DOCTYPE svg PUBLIC "-//W3C//DTD SVG 1.1//EN"
  "http://www.w3.org/Graphics/SVG/1.1/DTD/svg11.dtd">
<svg xmlns:xlink="http://www.w3.org/1999/xlink" width="1440pt" height="1080pt" viewBox="0 0 1440 1080" xmlns="http://www.w3.org/2000/svg" version="1.1">
 <metadata>
  <rdf:RDF xmlns:dc="http://purl.org/dc/elements/1.1/" xmlns:cc="http://creativecommons.org/ns#" xmlns:rdf="http://www.w3.org/1999/02/22-rdf-syntax-ns#">
   <cc:Work>
    <dc:type rdf:resource="http://purl.org/dc/dcmitype/StillImage"/>
    <dc:date>2023-12-11T12:06:44.519744</dc:date>
    <dc:format>image/svg+xml</dc:format>
    <dc:creator>
     <cc:Agent>
      <dc:title>Matplotlib v3.7.1, https://matplotlib.org/</dc:title>
     </cc:Agent>
    </dc:creator>
   </cc:Work>
  </rdf:RDF>
 </metadata>
 <defs>
  <style type="text/css">*{stroke-linejoin: round; stroke-linecap: butt}</style>
 </defs>
 <g id="figure_1">
  <g id="patch_1">
   <path d="M 0 1080 
L 1440 1080 
L 1440 0 
L 0 0 
z
" style="fill: #ffffff"/>
  </g>
  <g id="axes_1">
   <g id="patch_2">
    <path d="M 310.197758 961.2 
L 1165.802242 961.2 
L 1165.802242 129.6 
L 310.197758 129.6 
z
" style="fill: #ffffff"/>
   </g>
   <g id="matplotlib.axis_1">
    <g id="xtick_1">
     <g id="line2d_1">
      <defs>
       <path id="mcadb531d76" d="M 0 0 
L 0 3.5 
" style="stroke: #000000; stroke-width: 0.8"/>
      </defs>
      <g>
       <use xlink:href="#mcadb531d76" x="456.65269" y="961.2" style="stroke: #000000; stroke-width: 0.8"/>
      </g>
     </g>
     <g id="text_1">
      <!-- 800 -->
      <g transform="translate(447.10894 975.798437) scale(0.1 -0.1)">
       <defs>
        <path id="DejaVuSans-38" d="M 2034 2216 
Q 1584 2216 1326 1975 
Q 1069 1734 1069 1313 
Q 1069 891 1326 650 
Q 1584 409 2034 409 
Q 2484 409 2743 651 
Q 3003 894 3003 1313 
Q 3003 1734 2745 1975 
Q 2488 2216 2034 2216 
z
M 1403 2484 
Q 997 2584 770 2862 
Q 544 3141 544 3541 
Q 544 4100 942 4425 
Q 1341 4750 2034 4750 
Q 2731 4750 3128 4425 
Q 3525 4100 3525 3541 
Q 3525 3141 3298 2862 
Q 3072 2584 2669 2484 
Q 3125 2378 3379 2068 
Q 3634 1759 3634 1313 
Q 3634 634 3220 271 
Q 2806 -91 2034 -91 
Q 1263 -91 848 271 
Q 434 634 434 1313 
Q 434 1759 690 2068 
Q 947 2378 1403 2484 
z
M 1172 3481 
Q 1172 3119 1398 2916 
Q 1625 2713 2034 2713 
Q 2441 2713 2670 2916 
Q 2900 3119 2900 3481 
Q 2900 3844 2670 4047 
Q 2441 4250 2034 4250 
Q 1625 4250 1398 4047 
Q 1172 3844 1172 3481 
z
" transform="scale(0.015625)"/>
        <path id="DejaVuSans-30" d="M 2034 4250 
Q 1547 4250 1301 3770 
Q 1056 3291 1056 2328 
Q 1056 1369 1301 889 
Q 1547 409 2034 409 
Q 2525 409 2770 889 
Q 3016 1369 3016 2328 
Q 3016 3291 2770 3770 
Q 2525 4250 2034 4250 
z
M 2034 4750 
Q 2819 4750 3233 4129 
Q 3647 3509 3647 2328 
Q 3647 1150 3233 529 
Q 2819 -91 2034 -91 
Q 1250 -91 836 529 
Q 422 1150 422 2328 
Q 422 3509 836 4129 
Q 1250 4750 2034 4750 
z
" transform="scale(0.015625)"/>
       </defs>
       <use xlink:href="#DejaVuSans-38"/>
       <use xlink:href="#DejaVuSans-30" x="63.623047"/>
       <use xlink:href="#DejaVuSans-30" x="127.246094"/>
      </g>
     </g>
    </g>
    <g id="xtick_2">
     <g id="line2d_2">
      <g>
       <use xlink:href="#mcadb531d76" x="640.850547" y="961.2" style="stroke: #000000; stroke-width: 0.8"/>
      </g>
     </g>
     <g id="text_2">
      <!-- 900 -->
      <g transform="translate(631.306797 975.798437) scale(0.1 -0.1)">
       <defs>
        <path id="DejaVuSans-39" d="M 703 97 
L 703 672 
Q 941 559 1184 500 
Q 1428 441 1663 441 
Q 2288 441 2617 861 
Q 2947 1281 2994 2138 
Q 2813 1869 2534 1725 
Q 2256 1581 1919 1581 
Q 1219 1581 811 2004 
Q 403 2428 403 3163 
Q 403 3881 828 4315 
Q 1253 4750 1959 4750 
Q 2769 4750 3195 4129 
Q 3622 3509 3622 2328 
Q 3622 1225 3098 567 
Q 2575 -91 1691 -91 
Q 1453 -91 1209 -44 
Q 966 3 703 97 
z
M 1959 2075 
Q 2384 2075 2632 2365 
Q 2881 2656 2881 3163 
Q 2881 3666 2632 3958 
Q 2384 4250 1959 4250 
Q 1534 4250 1286 3958 
Q 1038 3666 1038 3163 
Q 1038 2656 1286 2365 
Q 1534 2075 1959 2075 
z
" transform="scale(0.015625)"/>
       </defs>
       <use xlink:href="#DejaVuSans-39"/>
       <use xlink:href="#DejaVuSans-30" x="63.623047"/>
       <use xlink:href="#DejaVuSans-30" x="127.246094"/>
      </g>
     </g>
    </g>
    <g id="xtick_3">
     <g id="line2d_3">
      <g>
       <use xlink:href="#mcadb531d76" x="825.048404" y="961.2" style="stroke: #000000; stroke-width: 0.8"/>
      </g>
     </g>
     <g id="text_3">
      <!-- 1000 -->
      <g transform="translate(812.323404 975.798437) scale(0.1 -0.1)">
       <defs>
        <path id="DejaVuSans-31" d="M 794 531 
L 1825 531 
L 1825 4091 
L 703 3866 
L 703 4441 
L 1819 4666 
L 2450 4666 
L 2450 531 
L 3481 531 
L 3481 0 
L 794 0 
L 794 531 
z
" transform="scale(0.015625)"/>
       </defs>
       <use xlink:href="#DejaVuSans-31"/>
       <use xlink:href="#DejaVuSans-30" x="63.623047"/>
       <use xlink:href="#DejaVuSans-30" x="127.246094"/>
       <use xlink:href="#DejaVuSans-30" x="190.869141"/>
      </g>
     </g>
    </g>
    <g id="xtick_4">
     <g id="line2d_4">
      <g>
       <use xlink:href="#mcadb531d76" x="1009.246261" y="961.2" style="stroke: #000000; stroke-width: 0.8"/>
      </g>
     </g>
     <g id="text_4">
      <!-- 1100 -->
      <g transform="translate(996.521261 975.798437) scale(0.1 -0.1)">
       <use xlink:href="#DejaVuSans-31"/>
       <use xlink:href="#DejaVuSans-31" x="63.623047"/>
       <use xlink:href="#DejaVuSans-30" x="127.246094"/>
       <use xlink:href="#DejaVuSans-30" x="190.869141"/>
      </g>
     </g>
    </g>
   </g>
   <g id="matplotlib.axis_2">
    <g id="ytick_1">
     <g id="line2d_5">
      <defs>
       <path id="m34c5febf69" d="M 0 0 
L -3.5 0 
" style="stroke: #000000; stroke-width: 0.8"/>
      </defs>
      <g>
       <use xlink:href="#m34c5febf69" x="310.197758" y="870.972068" style="stroke: #000000; stroke-width: 0.8"/>
      </g>
     </g>
     <g id="text_5">
      <!-- 500 -->
      <g transform="translate(284.110258 874.771287) scale(0.1 -0.1)">
       <defs>
        <path id="DejaVuSans-35" d="M 691 4666 
L 3169 4666 
L 3169 4134 
L 1269 4134 
L 1269 2991 
Q 1406 3038 1543 3061 
Q 1681 3084 1819 3084 
Q 2600 3084 3056 2656 
Q 3513 2228 3513 1497 
Q 3513 744 3044 326 
Q 2575 -91 1722 -91 
Q 1428 -91 1123 -41 
Q 819 9 494 109 
L 494 744 
Q 775 591 1075 516 
Q 1375 441 1709 441 
Q 2250 441 2565 725 
Q 2881 1009 2881 1497 
Q 2881 1984 2565 2268 
Q 2250 2553 1709 2553 
Q 1456 2553 1204 2497 
Q 953 2441 691 2322 
L 691 4666 
z
" transform="scale(0.015625)"/>
       </defs>
       <use xlink:href="#DejaVuSans-35"/>
       <use xlink:href="#DejaVuSans-30" x="63.623047"/>
       <use xlink:href="#DejaVuSans-30" x="127.246094"/>
      </g>
     </g>
    </g>
    <g id="ytick_2">
     <g id="line2d_6">
      <g>
       <use xlink:href="#m34c5febf69" x="310.197758" y="686.774212" style="stroke: #000000; stroke-width: 0.8"/>
      </g>
     </g>
     <g id="text_6">
      <!-- 600 -->
      <g transform="translate(284.110258 690.57343) scale(0.1 -0.1)">
       <defs>
        <path id="DejaVuSans-36" d="M 2113 2584 
Q 1688 2584 1439 2293 
Q 1191 2003 1191 1497 
Q 1191 994 1439 701 
Q 1688 409 2113 409 
Q 2538 409 2786 701 
Q 3034 994 3034 1497 
Q 3034 2003 2786 2293 
Q 2538 2584 2113 2584 
z
M 3366 4563 
L 3366 3988 
Q 3128 4100 2886 4159 
Q 2644 4219 2406 4219 
Q 1781 4219 1451 3797 
Q 1122 3375 1075 2522 
Q 1259 2794 1537 2939 
Q 1816 3084 2150 3084 
Q 2853 3084 3261 2657 
Q 3669 2231 3669 1497 
Q 3669 778 3244 343 
Q 2819 -91 2113 -91 
Q 1303 -91 875 529 
Q 447 1150 447 2328 
Q 447 3434 972 4092 
Q 1497 4750 2381 4750 
Q 2619 4750 2861 4703 
Q 3103 4656 3366 4563 
z
" transform="scale(0.015625)"/>
       </defs>
       <use xlink:href="#DejaVuSans-36"/>
       <use xlink:href="#DejaVuSans-30" x="63.623047"/>
       <use xlink:href="#DejaVuSans-30" x="127.246094"/>
      </g>
     </g>
    </g>
    <g id="ytick_3">
     <g id="line2d_7">
      <g>
       <use xlink:href="#m34c5febf69" x="310.197758" y="502.576355" style="stroke: #000000; stroke-width: 0.8"/>
      </g>
     </g>
     <g id="text_7">
      <!-- 700 -->
      <g transform="translate(284.110258 506.375573) scale(0.1 -0.1)">
       <defs>
        <path id="DejaVuSans-37" d="M 525 4666 
L 3525 4666 
L 3525 4397 
L 1831 0 
L 1172 0 
L 2766 4134 
L 525 4134 
L 525 4666 
z
" transform="scale(0.015625)"/>
       </defs>
       <use xlink:href="#DejaVuSans-37"/>
       <use xlink:href="#DejaVuSans-30" x="63.623047"/>
       <use xlink:href="#DejaVuSans-30" x="127.246094"/>
      </g>
     </g>
    </g>
    <g id="ytick_4">
     <g id="line2d_8">
      <g>
       <use xlink:href="#m34c5febf69" x="310.197758" y="318.378498" style="stroke: #000000; stroke-width: 0.8"/>
      </g>
     </g>
     <g id="text_8">
      <!-- 800 -->
      <g transform="translate(284.110258 322.177716) scale(0.1 -0.1)">
       <use xlink:href="#DejaVuSans-38"/>
       <use xlink:href="#DejaVuSans-30" x="63.623047"/>
       <use xlink:href="#DejaVuSans-30" x="127.246094"/>
      </g>
     </g>
    </g>
    <g id="ytick_5">
     <g id="line2d_9">
      <g>
       <use xlink:href="#m34c5febf69" x="310.197758" y="134.180641" style="stroke: #000000; stroke-width: 0.8"/>
      </g>
     </g>
     <g id="text_9">
      <!-- 900 -->
      <g transform="translate(284.110258 137.979859) scale(0.1 -0.1)">
       <use xlink:href="#DejaVuSans-39"/>
       <use xlink:href="#DejaVuSans-30" x="63.623047"/>
       <use xlink:href="#DejaVuSans-30" x="127.246094"/>
      </g>
     </g>
    </g>
   </g>
   <g id="LineCollection_1">
    <path d="M 1126.911129 186.576257 
L 1102.317606 178.352449 
L 1098.159104 177.153362 
L 1076.499984 171.88144 
L 1071.442296 170.914927 
L 1052.405479 168.253937 
L 1046.407445 167.769983 
L 1029.699642 167.4 
L 1022.885731 167.700206 
L 1008.231839 169.321627 
L 1000.96254 170.658812 
L 988.105027 173.991667 
L 980.944188 176.420484 
L 969.642488 181.203764 
L 963.180233 184.492282 
L 953.210159 190.483271 
L 947.846479 194.186805 
L 938.99964 201.160433 
L 934.852991 204.805334 
L 926.936228 212.553539 
L 923.908307 215.782818 
L 914.640739 226.725549 
L 906.689685 237.377112 
L 899.748056 247.568077 
L 893.572235 257.177525 
L 882.597493 274.651119 
L 877.602714 282.294823 
L 872.888096 289.06049 
L 868.41347 294.933215 
L 864.154033 299.932467 
L 860.083915 304.117859 
L 856.156869 307.588095 
L 852.288628 310.469114 
L 848.348384 312.891372 
L 844.165677 314.962479 
L 839.552565 316.745849 
L 834.332789 318.253965 
L 828.366412 319.457164 
L 821.562341 320.3015 
L 813.878243 320.727294 
L 805.312327 320.682895 
L 795.892233 320.132175 
L 785.664716 319.056954 
L 774.687663 317.456287 
L 763.024637 315.344284 
L 750.741468 312.747515 
L 737.904279 309.702551 
L 724.578421 306.253859 
L 710.827927 302.452077 
L 696.715225 298.352645 
L 667.64375 289.500253 
L 622.617409 275.50205 
L 607.439281 270.913693 
L 592.26065 266.482767 
L 577.115163 262.279434 
L 562.02876 258.37558 
L 547.017819 254.845988 
L 532.08704 251.770427 
L 517.22729 249.237141 
L 502.414056 247.348442 
L 487.607947 246.229167 
L 476.480278 245.985636 
L 472.760219 246.038443 
L 462.276659 246.565893 
L 457.828572 246.983432 
L 448.030292 248.333464 
L 442.810496 249.328995 
L 433.735621 251.549743 
L 427.79902 253.387986 
L 419.482334 256.523801 
L 413.049678 259.467754 
L 405.522333 263.558873 
L 402.188943 265.536323 
L 399.013462 267.75851 
L 392.302688 272.840735 
L 389.180203 275.403929 
L 386.267912 278.203651 
L 380.396724 284.308021 
L 377.746724 287.285459 
L 375.334573 290.458653 
L 370.321476 297.611118 
L 366.494704 304.009933 
L 362.353401 312.231025 
L 359.741901 318.375864 
L 356.480992 327.680369 
L 354.876063 333.241921 
L 352.498754 343.638544 
L 351.6328 348.475911 
L 350.136596 359.966949 
L 349.768121 364.07291 
L 349.144529 376.653907 
L 349.088871 380.091415 
L 349.451412 396.608208 
L 350.749111 413.693586 
L 352.899043 431.400329 
L 355.831371 449.760081 
L 359.481748 468.783137 
L 363.786143 488.459484 
L 368.677352 508.760104 
L 374.082645 529.638092 
L 379.922122 551.029419 
L 386.107535 572.853313 
L 399.117099 617.394078 
L 412.258295 662.440685 
L 418.531887 684.706577 
L 424.409529 706.547847 
L 429.729226 727.737747 
L 434.320138 748.010205 
L 438.007381 767.04603 
L 440.623593 784.450742 
L 442.036522 799.719937 
L 442.214636 812.191982 
L 441.498392 819.74568 
L 439.575227 819.628917 
L 425.461575 816.287764 
L 402.722039 807.869116 
L 402.722039 807.869116 
" clip-path="url(#pab81cad9b8)" style="fill: none; stroke: #1f77b4; stroke-width: 1.5"/>
    <path d="M 1110.555082 235.489462 
L 1085.961559 227.265653 
L 1064.302439 221.993732 
L 1045.265622 219.332742 
L 1028.557819 218.962759 
L 1013.903927 220.58418 
L 1001.046414 223.917036 
L 989.744714 228.700316 
L 979.774639 234.691305 
L 970.9278 241.664932 
L 963.011037 249.413137 
L 955.845866 257.744244 
L 949.267931 266.48235 
L 943.126474 275.466728 
L 937.283808 284.551239 
L 931.614806 293.603756 
L 926.006396 302.505598 
L 920.357072 311.15098 
L 914.576404 319.44647 
L 908.58457 327.310457 
L 902.31189 334.672627 
L 895.698369 341.473458 
L 888.693249 347.663713 
L 881.254572 353.203949 
L 873.34875 358.064038 
L 864.950142 362.222691 
L 856.040639 365.666989 
L 846.609257 368.391937 
L 836.651739 370.400003 
L 826.170159 371.70069 
L 815.172539 372.310096 
L 803.672468 372.250488 
L 791.688731 371.549892 
L 779.24494 370.241673 
L 766.369174 368.364137 
L 753.093625 365.96013 
L 739.454244 363.076645 
L 725.490403 359.764441 
L 711.244546 356.077656 
L 696.761865 352.073437 
L 682.089958 347.811568 
L 667.278512 343.354103 
L 652.378975 338.765008 
L 637.444238 334.109804 
L 622.528322 329.455212 
L 607.686063 324.868808 
L 592.972806 320.418673 
L 578.444098 316.173056 
L 564.155383 312.200031 
L 550.161702 308.567161 
L 536.517394 305.341166 
L 523.275798 302.587588 
L 510.488958 300.370464 
L 498.207328 298.751995 
L 486.479481 297.79222 
L 475.351812 297.548689 
L 464.868252 298.07614 
L 455.069972 299.426171 
L 445.995098 301.646919 
L 437.678411 304.782734 
L 430.151066 308.873853 
L 423.440292 313.956078 
L 417.569104 320.060448 
L 412.556007 327.212913 
L 408.414703 335.434005 
L 405.153795 344.73851 
L 402.776486 355.135134 
L 401.280282 366.626171 
L 400.65669 379.207169 
L 400.890912 392.866585 
L 401.961537 407.585453 
L 403.840236 423.33703 
L 406.491442 440.086454 
L 409.872039 457.790391 
L 413.931039 476.396679 
L 418.609258 495.843966 
L 423.838992 516.061351 
L 429.543677 536.968011 
L 435.637561 558.472829 
L 442.025357 580.474012 
L 448.601895 602.85871 
L 455.251776 625.502624 
L 461.849009 648.269607 
L 468.256653 671.011267 
L 474.326441 693.566551 
L 479.898413 715.761334 
L 484.800527 737.407991 
L 488.848275 758.304972 
L 491.844288 778.236357 
L 493.577929 796.971417 
L 493.824888 814.264152 
L 492.346763 829.852834 
L 488.890635 843.459534 
L 483.188632 854.789641 
L 474.95749 863.531371 
L 463.898105 869.35527 
L 449.695066 871.913706 
L 432.016197 870.840347 
L 410.51207 865.749634 
L 384.815525 856.23624 
" clip-path="url(#pab81cad9b8)" style="fill: none; stroke: #8c564b; stroke-width: 1.5"/>
    <path d="M 1094.199035 284.402667 
L 1071.659585 276.865718 
L 1054.609584 272.715675 
L 1041.110641 270.828777 
L 1030.832898 270.601183 
L 1023.258696 271.439252 
L 1017.657483 272.891168 
L 1013.193935 274.7803 
L 1009.138206 277.217376 
L 1005.026967 280.45811 
L 1000.669164 284.723129 
L 996.042259 290.102936 
L 991.181467 296.559995 
L 986.113275 303.974288 
L 980.830386 312.188426 
L 969.181272 330.718219 
L 962.671917 340.637854 
L 955.600548 350.704133 
L 947.842832 360.759085 
L 941.570153 368.121255 
L 939.286835 370.629203 
L 932.673314 377.430034 
L 929.850503 380.121273 
L 922.845383 386.311528 
L 919.500337 389.027286 
L 912.06166 394.567522 
L 908.26482 397.141045 
L 900.358998 402.001134 
L 896.234823 404.283618 
L 887.836215 408.44227 
L 883.547232 410.328513 
L 874.637729 413.772812 
L 870.356437 415.215751 
L 860.925056 417.940698 
L 856.804875 418.94954 
L 846.847356 420.957607 
L 843.003152 421.582827 
L 832.521571 422.883514 
L 829.023701 423.19709 
L 814.905216 423.884803 
L 800.662394 423.737975 
L 786.296315 422.842618 
L 771.802952 421.277334 
L 757.17909 419.114154 
L 742.425917 416.420232 
L 727.550907 413.259635 
L 712.568557 409.694871 
L 697.500459 405.788037 
L 682.375007 401.601613 
L 667.226959 397.198946 
L 637.031073 388.003852 
L 592.606808 374.190829 
L 578.273571 369.855635 
L 564.301978 365.772819 
L 550.766227 362.009158 
L 537.746805 358.629213 
L 525.331592 355.69382 
L 513.61728 353.25784 
L 502.710957 351.366781 
L 492.731463 350.051686 
L 483.8095 349.321537 
L 476.084328 349.15247 
L 469.692939 349.474035 
L 464.745227 350.155743 
L 461.278351 351.004136 
L 459.192006 351.790794 
L 457.805802 352.626854 
L 457.510765 352.933609 
L 456.935785 353.753964 
L 455.981046 355.649262 
L 454.785357 359.060977 
L 453.602556 364.23369 
L 452.690319 371.239782 
L 452.253997 380.042604 
L 452.434202 390.551871 
L 453.314779 402.657958 
L 454.935756 416.248719 
L 457.304835 431.215764 
L 460.40583 447.455444 
L 464.204327 464.867597 
L 468.651298 483.353586 
L 473.685307 502.81433 
L 479.23381 523.148608 
L 485.213866 544.251736 
L 498.085858 588.320512 
L 511.491539 634.28243 
L 518.060217 657.608771 
L 524.349561 681.008311 
L 530.200094 704.369987 
L 535.434781 727.600128 
L 539.850694 750.638476 
L 543.200285 773.484151 
L 544.933926 792.219211 
L 545.14807 796.234938 
L 545.395029 813.527673 
L 545.169985 819.132713 
L 543.691861 834.721395 
L 543.164316 838.661818 
L 542.334826 842.5499 
L 538.878697 856.1566 
L 537.205205 861.507364 
L 534.96082 866.644872 
L 529.258817 877.974979 
L 526.814491 882.299753 
L 523.965426 886.369301 
L 520.738053 890.145869 
L 512.506912 898.887599 
L 508.388549 902.804595 
L 503.864195 906.244651 
L 498.988792 909.16599 
L 487.929406 914.989889 
L 483.150175 917.202733 
L 478.17019 918.916641 
L 473.041381 920.113742 
L 458.838342 922.672178 
L 452.725488 923.4 
L 446.56946 923.394309 
L 428.890591 922.32095 
L 424.485041 921.862926 
L 420.135037 921.028592 
L 398.63091 915.937879 
L 392.605557 914.116758 
L 366.909012 904.603364 
L 366.909012 904.603364 
" clip-path="url(#pab81cad9b8)" style="fill: none; stroke: #17becf; stroke-width: 1.5"/>
   </g>
   <g id="patch_3">
    <path d="M 310.197758 961.2 
L 310.197758 129.6 
" style="fill: none; stroke: #000000; stroke-width: 0.8; stroke-linejoin: miter; stroke-linecap: square"/>
   </g>
   <g id="patch_4">
    <path d="M 1165.802242 961.2 
L 1165.802242 129.6 
" style="fill: none; stroke: #000000; stroke-width: 0.8; stroke-linejoin: miter; stroke-linecap: square"/>
   </g>
   <g id="patch_5">
    <path d="M 310.197758 961.2 
L 1165.802242 961.2 
" style="fill: none; stroke: #000000; stroke-width: 0.8; stroke-linejoin: miter; stroke-linecap: square"/>
   </g>
   <g id="patch_6">
    <path d="M 310.197758 129.6 
L 1165.802242 129.6 
" style="fill: none; stroke: #000000; stroke-width: 0.8; stroke-linejoin: miter; stroke-linecap: square"/>
   </g>
  </g>
 </g>
 <defs>
  <clipPath id="pab81cad9b8">
   <rect x="310.197758" y="129.6" width="855.604485" height="831.6"/>
  </clipPath>
 </defs>
</svg>
