<?xml version="1.0" encoding="utf-8" standalone="no"?>
<!DOCTYPE svg PUBLIC "-//W3C//DTD SVG 1.1//EN"
  "http://www.w3.org/Graphics/SVG/1.1/DTD/svg11.dtd">
<svg xmlns:xlink="http://www.w3.org/1999/xlink" width="1440pt" height="1080pt" viewBox="0 0 1440 1080" xmlns="http://www.w3.org/2000/svg" version="1.1">
 <metadata>
  <rdf:RDF xmlns:dc="http://purl.org/dc/elements/1.1/" xmlns:cc="http://creativecommons.org/ns#" xmlns:rdf="http://www.w3.org/1999/02/22-rdf-syntax-ns#">
   <cc:Work>
    <dc:type rdf:resource="http://purl.org/dc/dcmitype/StillImage"/>
    <dc:date>2023-12-11T12:06:40.629237</dc:date>
    <dc:format>image/svg+xml</dc:format>
    <dc:creator>
     <cc:Agent>
      <dc:title>Matplotlib v3.7.1, https://matplotlib.org/</dc:title>
     </cc:Agent>
    </dc:creator>
   </cc:Work>
  </rdf:RDF>
 </metadata>
 <defs>
  <style type="text/css">*{stroke-linejoin: round; stroke-linecap: butt}</style>
 </defs>
 <g id="figure_1">
  <g id="patch_1">
   <path d="M 0 1080 
L 1440 1080 
L 1440 0 
L 0 0 
z
" style="fill: #ffffff"/>
  </g>
  <g id="axes_1">
   <g id="patch_2">
    <path d="M 180 811.09515 
L 1296 811.09515 
L 1296 279.70485 
L 180 279.70485 
z
" style="fill: #ffffff"/>
   </g>
   <g id="matplotlib.axis_1">
    <g id="xtick_1">
     <g id="line2d_1">
      <defs>
       <path id="mc180ad8f2d" d="M 0 0 
L 0 3.5 
" style="stroke: #000000; stroke-width: 0.8"/>
      </defs>
      <g>
       <use xlink:href="#mc180ad8f2d" x="318.139765" y="811.09515" style="stroke: #000000; stroke-width: 0.8"/>
      </g>
     </g>
     <g id="text_1">
      <!-- 300 -->
      <g transform="translate(308.596015 825.693588) scale(0.1 -0.1)">
       <defs>
        <path id="DejaVuSans-33" d="M 2597 2516 
Q 3050 2419 3304 2112 
Q 3559 1806 3559 1356 
Q 3559 666 3084 287 
Q 2609 -91 1734 -91 
Q 1441 -91 1130 -33 
Q 819 25 488 141 
L 488 750 
Q 750 597 1062 519 
Q 1375 441 1716 441 
Q 2309 441 2620 675 
Q 2931 909 2931 1356 
Q 2931 1769 2642 2001 
Q 2353 2234 1838 2234 
L 1294 2234 
L 1294 2753 
L 1863 2753 
Q 2328 2753 2575 2939 
Q 2822 3125 2822 3475 
Q 2822 3834 2567 4026 
Q 2313 4219 1838 4219 
Q 1578 4219 1281 4162 
Q 984 4106 628 3988 
L 628 4550 
Q 988 4650 1302 4700 
Q 1616 4750 1894 4750 
Q 2613 4750 3031 4423 
Q 3450 4097 3450 3541 
Q 3450 3153 3228 2886 
Q 3006 2619 2597 2516 
z
" transform="scale(0.015625)"/>
        <path id="DejaVuSans-30" d="M 2034 4250 
Q 1547 4250 1301 3770 
Q 1056 3291 1056 2328 
Q 1056 1369 1301 889 
Q 1547 409 2034 409 
Q 2525 409 2770 889 
Q 3016 1369 3016 2328 
Q 3016 3291 2770 3770 
Q 2525 4250 2034 4250 
z
M 2034 4750 
Q 2819 4750 3233 4129 
Q 3647 3509 3647 2328 
Q 3647 1150 3233 529 
Q 2819 -91 2034 -91 
Q 1250 -91 836 529 
Q 422 1150 422 2328 
Q 422 3509 836 4129 
Q 1250 4750 2034 4750 
z
" transform="scale(0.015625)"/>
       </defs>
       <use xlink:href="#DejaVuSans-33"/>
       <use xlink:href="#DejaVuSans-30" x="63.623047"/>
       <use xlink:href="#DejaVuSans-30" x="127.246094"/>
      </g>
     </g>
    </g>
    <g id="xtick_2">
     <g id="line2d_2">
      <g>
       <use xlink:href="#mc180ad8f2d" x="456.927422" y="811.09515" style="stroke: #000000; stroke-width: 0.8"/>
      </g>
     </g>
     <g id="text_2">
      <!-- 400 -->
      <g transform="translate(447.383672 825.693588) scale(0.1 -0.1)">
       <defs>
        <path id="DejaVuSans-34" d="M 2419 4116 
L 825 1625 
L 2419 1625 
L 2419 4116 
z
M 2253 4666 
L 3047 4666 
L 3047 1625 
L 3713 1625 
L 3713 1100 
L 3047 1100 
L 3047 0 
L 2419 0 
L 2419 1100 
L 313 1100 
L 313 1709 
L 2253 4666 
z
" transform="scale(0.015625)"/>
       </defs>
       <use xlink:href="#DejaVuSans-34"/>
       <use xlink:href="#DejaVuSans-30" x="63.623047"/>
       <use xlink:href="#DejaVuSans-30" x="127.246094"/>
      </g>
     </g>
    </g>
    <g id="xtick_3">
     <g id="line2d_3">
      <g>
       <use xlink:href="#mc180ad8f2d" x="595.715079" y="811.09515" style="stroke: #000000; stroke-width: 0.8"/>
      </g>
     </g>
     <g id="text_3">
      <!-- 500 -->
      <g transform="translate(586.171329 825.693588) scale(0.1 -0.1)">
       <defs>
        <path id="DejaVuSans-35" d="M 691 4666 
L 3169 4666 
L 3169 4134 
L 1269 4134 
L 1269 2991 
Q 1406 3038 1543 3061 
Q 1681 3084 1819 3084 
Q 2600 3084 3056 2656 
Q 3513 2228 3513 1497 
Q 3513 744 3044 326 
Q 2575 -91 1722 -91 
Q 1428 -91 1123 -41 
Q 819 9 494 109 
L 494 744 
Q 775 591 1075 516 
Q 1375 441 1709 441 
Q 2250 441 2565 725 
Q 2881 1009 2881 1497 
Q 2881 1984 2565 2268 
Q 2250 2553 1709 2553 
Q 1456 2553 1204 2497 
Q 953 2441 691 2322 
L 691 4666 
z
" transform="scale(0.015625)"/>
       </defs>
       <use xlink:href="#DejaVuSans-35"/>
       <use xlink:href="#DejaVuSans-30" x="63.623047"/>
       <use xlink:href="#DejaVuSans-30" x="127.246094"/>
      </g>
     </g>
    </g>
    <g id="xtick_4">
     <g id="line2d_4">
      <g>
       <use xlink:href="#mc180ad8f2d" x="734.502736" y="811.09515" style="stroke: #000000; stroke-width: 0.8"/>
      </g>
     </g>
     <g id="text_4">
      <!-- 600 -->
      <g transform="translate(724.958986 825.693588) scale(0.1 -0.1)">
       <defs>
        <path id="DejaVuSans-36" d="M 2113 2584 
Q 1688 2584 1439 2293 
Q 1191 2003 1191 1497 
Q 1191 994 1439 701 
Q 1688 409 2113 409 
Q 2538 409 2786 701 
Q 3034 994 3034 1497 
Q 3034 2003 2786 2293 
Q 2538 2584 2113 2584 
z
M 3366 4563 
L 3366 3988 
Q 3128 4100 2886 4159 
Q 2644 4219 2406 4219 
Q 1781 4219 1451 3797 
Q 1122 3375 1075 2522 
Q 1259 2794 1537 2939 
Q 1816 3084 2150 3084 
Q 2853 3084 3261 2657 
Q 3669 2231 3669 1497 
Q 3669 778 3244 343 
Q 2819 -91 2113 -91 
Q 1303 -91 875 529 
Q 447 1150 447 2328 
Q 447 3434 972 4092 
Q 1497 4750 2381 4750 
Q 2619 4750 2861 4703 
Q 3103 4656 3366 4563 
z
" transform="scale(0.015625)"/>
       </defs>
       <use xlink:href="#DejaVuSans-36"/>
       <use xlink:href="#DejaVuSans-30" x="63.623047"/>
       <use xlink:href="#DejaVuSans-30" x="127.246094"/>
      </g>
     </g>
    </g>
    <g id="xtick_5">
     <g id="line2d_5">
      <g>
       <use xlink:href="#mc180ad8f2d" x="873.290393" y="811.09515" style="stroke: #000000; stroke-width: 0.8"/>
      </g>
     </g>
     <g id="text_5">
      <!-- 700 -->
      <g transform="translate(863.746643 825.693588) scale(0.1 -0.1)">
       <defs>
        <path id="DejaVuSans-37" d="M 525 4666 
L 3525 4666 
L 3525 4397 
L 1831 0 
L 1172 0 
L 2766 4134 
L 525 4134 
L 525 4666 
z
" transform="scale(0.015625)"/>
       </defs>
       <use xlink:href="#DejaVuSans-37"/>
       <use xlink:href="#DejaVuSans-30" x="63.623047"/>
       <use xlink:href="#DejaVuSans-30" x="127.246094"/>
      </g>
     </g>
    </g>
    <g id="xtick_6">
     <g id="line2d_6">
      <g>
       <use xlink:href="#mc180ad8f2d" x="1012.078051" y="811.09515" style="stroke: #000000; stroke-width: 0.8"/>
      </g>
     </g>
     <g id="text_6">
      <!-- 800 -->
      <g transform="translate(1002.534301 825.693588) scale(0.1 -0.1)">
       <defs>
        <path id="DejaVuSans-38" d="M 2034 2216 
Q 1584 2216 1326 1975 
Q 1069 1734 1069 1313 
Q 1069 891 1326 650 
Q 1584 409 2034 409 
Q 2484 409 2743 651 
Q 3003 894 3003 1313 
Q 3003 1734 2745 1975 
Q 2488 2216 2034 2216 
z
M 1403 2484 
Q 997 2584 770 2862 
Q 544 3141 544 3541 
Q 544 4100 942 4425 
Q 1341 4750 2034 4750 
Q 2731 4750 3128 4425 
Q 3525 4100 3525 3541 
Q 3525 3141 3298 2862 
Q 3072 2584 2669 2484 
Q 3125 2378 3379 2068 
Q 3634 1759 3634 1313 
Q 3634 634 3220 271 
Q 2806 -91 2034 -91 
Q 1263 -91 848 271 
Q 434 634 434 1313 
Q 434 1759 690 2068 
Q 947 2378 1403 2484 
z
M 1172 3481 
Q 1172 3119 1398 2916 
Q 1625 2713 2034 2713 
Q 2441 2713 2670 2916 
Q 2900 3119 2900 3481 
Q 2900 3844 2670 4047 
Q 2441 4250 2034 4250 
Q 1625 4250 1398 4047 
Q 1172 3844 1172 3481 
z
" transform="scale(0.015625)"/>
       </defs>
       <use xlink:href="#DejaVuSans-38"/>
       <use xlink:href="#DejaVuSans-30" x="63.623047"/>
       <use xlink:href="#DejaVuSans-30" x="127.246094"/>
      </g>
     </g>
    </g>
    <g id="xtick_7">
     <g id="line2d_7">
      <g>
       <use xlink:href="#mc180ad8f2d" x="1150.865708" y="811.09515" style="stroke: #000000; stroke-width: 0.8"/>
      </g>
     </g>
     <g id="text_7">
      <!-- 900 -->
      <g transform="translate(1141.321958 825.693588) scale(0.1 -0.1)">
       <defs>
        <path id="DejaVuSans-39" d="M 703 97 
L 703 672 
Q 941 559 1184 500 
Q 1428 441 1663 441 
Q 2288 441 2617 861 
Q 2947 1281 2994 2138 
Q 2813 1869 2534 1725 
Q 2256 1581 1919 1581 
Q 1219 1581 811 2004 
Q 403 2428 403 3163 
Q 403 3881 828 4315 
Q 1253 4750 1959 4750 
Q 2769 4750 3195 4129 
Q 3622 3509 3622 2328 
Q 3622 1225 3098 567 
Q 2575 -91 1691 -91 
Q 1453 -91 1209 -44 
Q 966 3 703 97 
z
M 1959 2075 
Q 2384 2075 2632 2365 
Q 2881 2656 2881 3163 
Q 2881 3666 2632 3958 
Q 2384 4250 1959 4250 
Q 1534 4250 1286 3958 
Q 1038 3666 1038 3163 
Q 1038 2656 1286 2365 
Q 1534 2075 1959 2075 
z
" transform="scale(0.015625)"/>
       </defs>
       <use xlink:href="#DejaVuSans-39"/>
       <use xlink:href="#DejaVuSans-30" x="63.623047"/>
       <use xlink:href="#DejaVuSans-30" x="127.246094"/>
      </g>
     </g>
    </g>
    <g id="xtick_8">
     <g id="line2d_8">
      <g>
       <use xlink:href="#mc180ad8f2d" x="1289.653365" y="811.09515" style="stroke: #000000; stroke-width: 0.8"/>
      </g>
     </g>
     <g id="text_8">
      <!-- 1000 -->
      <g transform="translate(1276.928365 825.693588) scale(0.1 -0.1)">
       <defs>
        <path id="DejaVuSans-31" d="M 794 531 
L 1825 531 
L 1825 4091 
L 703 3866 
L 703 4441 
L 1819 4666 
L 2450 4666 
L 2450 531 
L 3481 531 
L 3481 0 
L 794 0 
L 794 531 
z
" transform="scale(0.015625)"/>
       </defs>
       <use xlink:href="#DejaVuSans-31"/>
       <use xlink:href="#DejaVuSans-30" x="63.623047"/>
       <use xlink:href="#DejaVuSans-30" x="127.246094"/>
       <use xlink:href="#DejaVuSans-30" x="190.869141"/>
      </g>
     </g>
    </g>
   </g>
   <g id="matplotlib.axis_2">
    <g id="ytick_1">
     <g id="line2d_9">
      <defs>
       <path id="md6ee6edf28" d="M 0 0 
L -3.5 0 
" style="stroke: #000000; stroke-width: 0.8"/>
      </defs>
      <g>
       <use xlink:href="#md6ee6edf28" x="180" y="782.213576" style="stroke: #000000; stroke-width: 0.8"/>
      </g>
     </g>
     <g id="text_9">
      <!-- 800 -->
      <g transform="translate(153.9125 786.012794) scale(0.1 -0.1)">
       <use xlink:href="#DejaVuSans-38"/>
       <use xlink:href="#DejaVuSans-30" x="63.623047"/>
       <use xlink:href="#DejaVuSans-30" x="127.246094"/>
      </g>
     </g>
    </g>
    <g id="ytick_2">
     <g id="line2d_10">
      <g>
       <use xlink:href="#md6ee6edf28" x="180" y="712.819747" style="stroke: #000000; stroke-width: 0.8"/>
      </g>
     </g>
     <g id="text_10">
      <!-- 850 -->
      <g transform="translate(153.9125 716.618966) scale(0.1 -0.1)">
       <use xlink:href="#DejaVuSans-38"/>
       <use xlink:href="#DejaVuSans-35" x="63.623047"/>
       <use xlink:href="#DejaVuSans-30" x="127.246094"/>
      </g>
     </g>
    </g>
    <g id="ytick_3">
     <g id="line2d_11">
      <g>
       <use xlink:href="#md6ee6edf28" x="180" y="643.425919" style="stroke: #000000; stroke-width: 0.8"/>
      </g>
     </g>
     <g id="text_11">
      <!-- 900 -->
      <g transform="translate(153.9125 647.225137) scale(0.1 -0.1)">
       <use xlink:href="#DejaVuSans-39"/>
       <use xlink:href="#DejaVuSans-30" x="63.623047"/>
       <use xlink:href="#DejaVuSans-30" x="127.246094"/>
      </g>
     </g>
    </g>
    <g id="ytick_4">
     <g id="line2d_12">
      <g>
       <use xlink:href="#md6ee6edf28" x="180" y="574.03209" style="stroke: #000000; stroke-width: 0.8"/>
      </g>
     </g>
     <g id="text_12">
      <!-- 950 -->
      <g transform="translate(153.9125 577.831309) scale(0.1 -0.1)">
       <use xlink:href="#DejaVuSans-39"/>
       <use xlink:href="#DejaVuSans-35" x="63.623047"/>
       <use xlink:href="#DejaVuSans-30" x="127.246094"/>
      </g>
     </g>
    </g>
    <g id="ytick_5">
     <g id="line2d_13">
      <g>
       <use xlink:href="#md6ee6edf28" x="180" y="504.638262" style="stroke: #000000; stroke-width: 0.8"/>
      </g>
     </g>
     <g id="text_13">
      <!-- 1000 -->
      <g transform="translate(147.55 508.43748) scale(0.1 -0.1)">
       <use xlink:href="#DejaVuSans-31"/>
       <use xlink:href="#DejaVuSans-30" x="63.623047"/>
       <use xlink:href="#DejaVuSans-30" x="127.246094"/>
       <use xlink:href="#DejaVuSans-30" x="190.869141"/>
      </g>
     </g>
    </g>
    <g id="ytick_6">
     <g id="line2d_14">
      <g>
       <use xlink:href="#md6ee6edf28" x="180" y="435.244433" style="stroke: #000000; stroke-width: 0.8"/>
      </g>
     </g>
     <g id="text_14">
      <!-- 1050 -->
      <g transform="translate(147.55 439.043652) scale(0.1 -0.1)">
       <use xlink:href="#DejaVuSans-31"/>
       <use xlink:href="#DejaVuSans-30" x="63.623047"/>
       <use xlink:href="#DejaVuSans-35" x="127.246094"/>
       <use xlink:href="#DejaVuSans-30" x="190.869141"/>
      </g>
     </g>
    </g>
    <g id="ytick_7">
     <g id="line2d_15">
      <g>
       <use xlink:href="#md6ee6edf28" x="180" y="365.850605" style="stroke: #000000; stroke-width: 0.8"/>
      </g>
     </g>
     <g id="text_15">
      <!-- 1100 -->
      <g transform="translate(147.55 369.649823) scale(0.1 -0.1)">
       <use xlink:href="#DejaVuSans-31"/>
       <use xlink:href="#DejaVuSans-31" x="63.623047"/>
       <use xlink:href="#DejaVuSans-30" x="127.246094"/>
       <use xlink:href="#DejaVuSans-30" x="190.869141"/>
      </g>
     </g>
    </g>
    <g id="ytick_8">
     <g id="line2d_16">
      <g>
       <use xlink:href="#md6ee6edf28" x="180" y="296.456776" style="stroke: #000000; stroke-width: 0.8"/>
      </g>
     </g>
     <g id="text_16">
      <!-- 1150 -->
      <g transform="translate(147.55 300.255995) scale(0.1 -0.1)">
       <use xlink:href="#DejaVuSans-31"/>
       <use xlink:href="#DejaVuSans-31" x="63.623047"/>
       <use xlink:href="#DejaVuSans-35" x="127.246094"/>
       <use xlink:href="#DejaVuSans-30" x="190.869141"/>
      </g>
     </g>
    </g>
   </g>
   <g id="LineCollection_1">
    <path d="M 1220.228123 677.624496 
L 1195.189241 701.763306 
L 1173.269277 720.059491 
L 1153.938698 733.478249 
L 1137.077034 742.620455 
L 1122.559978 748.117076 
L 1110.184124 750.63838 
L 1099.581884 750.830481 
L 1090.227895 749.174444 
L 1081.597455 745.894857 
L 1073.344551 741.039139 
L 1065.33322 734.637619 
L 1057.550999 726.790072 
L 1050.020741 717.661997 
L 1042.757363 707.450004 
L 1035.757369 696.353568 
L 1029.001641 684.55984 
L 1022.461044 672.237571 
L 1016.101257 659.535784 
L 1009.886153 646.584552 
L 997.748453 620.36896 
L 985.761581 594.266339 
L 979.760166 581.445528 
L 973.721728 568.852546 
L 967.624392 556.529628 
L 961.448623 544.511974 
L 955.177006 532.828721 
L 948.794006 521.503845 
L 942.285753 510.556972 
L 935.639842 500.004132 
L 928.845153 489.858435 
L 921.891698 480.130695 
L 914.770503 470.829984 
L 907.473522 461.964135 
L 899.99359 453.540177 
L 892.324414 445.564709 
L 884.460599 438.044201 
L 876.397712 430.985228 
L 868.13237 424.39461 
L 859.662339 418.279469 
L 850.986638 412.647191 
L 842.105604 407.505303 
L 833.020924 402.861254 
L 823.735585 398.722151 
L 814.253746 395.094442 
L 804.580525 391.983608 
L 794.721704 389.393878 
L 784.683382 387.328008 
L 774.471618 385.787142 
L 764.092084 384.770749 
L 753.549789 384.27664 
L 742.848888 384.301037 
L 731.992589 384.838657 
L 720.983173 385.882793 
L 709.822099 387.425352 
L 698.510194 389.456853 
L 687.047886 391.966346 
L 675.435473 394.941284 
L 663.673405 398.367324 
L 651.762566 402.228082 
L 639.704537 406.504852 
L 627.501856 411.176296 
L 615.158251 416.21811 
L 602.678861 421.602686 
L 590.070444 427.298774 
L 577.341579 433.271143 
L 564.502864 439.480249 
L 538.549588 452.427079 
L 499.149893 472.378282 
L 485.984027 478.913718 
L 472.854796 485.265647 
L 459.797547 491.351023 
L 446.852751 497.081083 
L 434.066802 502.361821 
L 421.492929 507.094887 
L 409.192091 511.179192 
L 397.233502 514.51354 
L 385.693988 517.000678 
L 374.654587 518.552879 
L 364.191806 519.098069 
L 354.360697 518.582857 
L 345.170131 516.964743 
L 336.560525 514.18452 
L 328.406607 510.121047 
L 320.562529 504.555132 
L 312.930645 497.178377 
L 305.505358 487.647911 
L 298.366053 475.645427 
L 291.639216 460.904648 
L 285.462237 443.207288 
L 279.963192 422.366044 
L 275.254341 398.208693 
L 271.432697 370.567841 
L 268.582908 339.275795 
L 266.764601 303.858954 
L 266.764601 303.858954 
" clip-path="url(#p97f830dfb8)" style="fill: none; stroke: #1f77b4; stroke-width: 1.5"/>
    <path d="M 1232.750425 690.613722 
L 1207.246562 715.200798 
L 1184.21584 734.424113 
L 1163.411452 748.865948 
L 1144.605468 759.062343 
L 1127.587755 765.505792 
L 1112.164938 768.647847 
L 1098.159396 768.901611 
L 1085.408299 766.644148 
L 1073.76268 762.218786 
L 1063.086549 755.937328 
L 1053.256043 748.08218 
L 1044.158603 738.908374 
L 1035.692201 728.645517 
L 1027.764587 717.499639 
L 1020.292582 705.654967 
L 1013.201394 693.275613 
L 1006.423971 680.507173 
L 999.90039 667.478257 
L 993.577267 654.301931 
L 987.407206 641.07709 
L 981.348274 627.889753 
L 975.363505 614.814281 
L 969.420431 601.914531 
L 963.490648 589.244939 
L 957.549395 576.851525 
L 951.575175 564.772849 
L 945.549389 553.040889 
L 939.456002 541.68186 
L 933.281228 530.716975 
L 927.013246 520.163145 
L 920.641929 510.03362 
L 914.158604 500.338573 
L 907.555826 491.085639 
L 900.827179 482.280388 
L 893.967092 473.92676 
L 886.970679 466.027444 
L 879.833591 458.584208 
L 872.551894 451.598196 
L 865.121958 445.070163 
L 857.540363 439.000685 
L 849.803828 433.390319 
L 841.909144 428.239726 
L 833.85313 423.549763 
L 825.632601 419.321531 
L 817.244343 415.556396 
L 808.685114 412.255979 
L 799.951638 409.422112 
L 791.040631 407.056769 
L 781.948816 405.16197 
L 772.672967 403.73966 
L 763.209948 402.791566 
L 753.556766 402.319034 
L 743.710634 402.322841 
L 733.669035 402.802999 
L 723.429797 403.758532 
L 712.991168 405.187251 
L 702.351905 407.085502 
L 691.511358 409.447921 
L 680.469561 412.26716 
L 669.227328 415.533627 
L 657.786347 419.2352 
L 646.149278 423.356955 
L 634.319849 427.880877 
L 622.302958 432.785584 
L 610.104768 438.046042 
L 597.7328 443.633288 
L 585.196033 449.514159 
L 572.504991 455.651025 
L 559.671828 462.00153 
L 546.710419 468.518346 
L 533.636433 475.148936 
L 520.467405 481.835333 
L 507.22281 488.513934 
L 493.924115 495.115305 
L 480.594835 501.564018 
L 467.260579 507.778494 
L 453.949082 513.670876 
L 440.690231 519.146927 
L 427.516083 524.105949 
L 414.460866 528.440735 
L 401.560972 532.037541 
L 388.854938 534.776102 
L 376.383415 536.529668 
L 364.189115 537.165083 
L 352.316756 536.542896 
L 340.812982 534.517513 
L 329.726273 530.937381 
L 319.106833 525.645225 
L 309.006466 518.478318 
L 299.478432 509.2688 
L 290.577285 497.844046 
L 282.358689 484.027075 
L 274.879216 467.637016 
L 268.196127 448.489622 
L 262.367122 426.39784 
L 257.450081 401.172433 
L 253.502769 372.62266 
L 250.582528 340.557017 
L 248.745937 304.784035 
" clip-path="url(#p97f830dfb8)" style="fill: none; stroke: #8c564b; stroke-width: 1.5"/>
    <path d="M 1245.272727 703.602948 
L 1218.808038 729.052163 
L 1194.504428 749.245482 
L 1172.011144 764.727011 
L 1153.205159 774.923406 
L 1150.994271 775.93573 
L 1132.599255 782.838215 
L 1131.189505 783.185029 
L 1114.137479 786.582091 
L 1112.491792 786.687281 
L 1096.74355 786.888368 
L 1095.014071 786.66773 
L 1080.609963 784.036791 
L 1078.999285 783.50987 
L 1065.95575 778.484697 
L 1064.613328 777.769265 
L 1053.937197 771.487807 
L 1051.823649 770.032544 
L 1041.993143 762.177396 
L 1040.444932 760.786647 
L 1030.240878 750.38988 
L 1020.989486 739.102965 
L 1012.504803 727.126009 
L 1004.636814 714.622964 
L 997.264867 701.73464 
L 990.290883 688.585013 
L 983.634026 675.284243 
L 977.226827 661.930243 
L 964.942694 635.398745 
L 953.056253 609.513522 
L 947.184963 596.968906 
L 941.327855 584.751018 
L 935.463475 572.894416 
L 929.573887 561.427627 
L 923.644221 550.3738 
L 917.662263 539.75131 
L 911.618095 529.574331 
L 905.503759 519.85337 
L 899.312951 510.595749 
L 893.040731 501.806048 
L 886.68324 493.4865 
L 880.237436 485.637351 
L 873.700821 478.25717 
L 867.071173 471.343141 
L 860.346276 464.891319 
L 853.523648 458.896875 
L 846.600273 453.354337 
L 839.57234 448.257834 
L 832.435015 443.601352 
L 825.182254 439.379018 
L 817.806675 435.585386 
L 810.299523 432.215742 
L 802.650735 429.26639 
L 794.849118 426.734895 
L 786.882621 424.620264 
L 778.738716 422.923015 
L 770.404808 421.645138 
L 761.868684 420.789909 
L 753.11892 420.3616 
L 744.145239 420.36507 
L 734.938782 420.805294 
L 725.492283 421.686848 
L 715.800168 423.013392 
L 705.858561 424.787169 
L 695.665251 427.008538 
L 685.219618 429.675563 
L 674.522537 432.783634 
L 663.576294 436.325141 
L 652.384502 440.289182 
L 640.952036 444.661294 
L 629.284981 449.423215 
L 617.390603 454.552654 
L 605.277324 460.023075 
L 592.954708 465.80349 
L 580.433446 471.858258 
L 554.843216 484.62383 
L 515.24494 504.674796 
L 501.781751 511.356783 
L 488.216465 517.917574 
L 474.563609 524.27679 
L 460.836487 530.346957 
L 447.046367 536.032648 
L 433.201573 541.229128 
L 419.306688 545.820207 
L 405.362397 549.674922 
L 391.367089 552.64275 
L 377.322286 554.547618 
L 363.244876 555.182753 
L 351.372517 554.560567 
L 349.188285 554.31199 
L 337.684511 552.286607 
L 335.268623 551.686908 
L 322.911227 547.643164 
L 321.678842 547.085659 
L 309.834899 541.122928 
L 308.665911 540.35968 
L 297.483446 532.361691 
L 296.467246 531.451213 
L 286.939213 522.241695 
L 285.245825 520.357575 
L 276.344678 508.932821 
L 275.070728 507.06764 
L 265.944624 491.517502 
L 257.844626 473.582665 
L 250.750778 453.092647 
L 244.658023 429.849772 
L 239.577702 403.643481 
L 235.534732 374.259023 
L 232.563864 341.482099 
L 230.727273 305.709117 
L 230.727273 305.709117 
" clip-path="url(#p97f830dfb8)" style="fill: none; stroke: #17becf; stroke-width: 1.5"/>
   </g>
   <g id="patch_3">
    <path d="M 180 811.09515 
L 180 279.70485 
" style="fill: none; stroke: #000000; stroke-width: 0.8; stroke-linejoin: miter; stroke-linecap: square"/>
   </g>
   <g id="patch_4">
    <path d="M 1296 811.09515 
L 1296 279.70485 
" style="fill: none; stroke: #000000; stroke-width: 0.8; stroke-linejoin: miter; stroke-linecap: square"/>
   </g>
   <g id="patch_5">
    <path d="M 180 811.09515 
L 1296 811.09515 
" style="fill: none; stroke: #000000; stroke-width: 0.8; stroke-linejoin: miter; stroke-linecap: square"/>
   </g>
   <g id="patch_6">
    <path d="M 180 279.70485 
L 1296 279.70485 
" style="fill: none; stroke: #000000; stroke-width: 0.8; stroke-linejoin: miter; stroke-linecap: square"/>
   </g>
  </g>
 </g>
 <defs>
  <clipPath id="p97f830dfb8">
   <rect x="180" y="279.70485" width="1116" height="531.390301"/>
  </clipPath>
 </defs>
</svg>
