<?xml version="1.0" encoding="utf-8" standalone="no"?>
<!DOCTYPE svg PUBLIC "-//W3C//DTD SVG 1.1//EN"
  "http://www.w3.org/Graphics/SVG/1.1/DTD/svg11.dtd">
<svg xmlns:xlink="http://www.w3.org/1999/xlink" width="1440pt" height="1080pt" viewBox="0 0 1440 1080" xmlns="http://www.w3.org/2000/svg" version="1.1">
 <metadata>
  <rdf:RDF xmlns:dc="http://purl.org/dc/elements/1.1/" xmlns:cc="http://creativecommons.org/ns#" xmlns:rdf="http://www.w3.org/1999/02/22-rdf-syntax-ns#">
   <cc:Work>
    <dc:type rdf:resource="http://purl.org/dc/dcmitype/StillImage"/>
    <dc:date>2023-12-11T12:06:36.314918</dc:date>
    <dc:format>image/svg+xml</dc:format>
    <dc:creator>
     <cc:Agent>
      <dc:title>Matplotlib v3.7.1, https://matplotlib.org/</dc:title>
     </cc:Agent>
    </dc:creator>
   </cc:Work>
  </rdf:RDF>
 </metadata>
 <defs>
  <style type="text/css">*{stroke-linejoin: round; stroke-linecap: butt}</style>
 </defs>
 <g id="figure_1">
  <g id="patch_1">
   <path d="M 0 1080 
L 1440 1080 
L 1440 0 
L 0 0 
z
" style="fill: #ffffff"/>
  </g>
  <g id="axes_1">
   <g id="patch_2">
    <path d="M 574.687172 961.2 
L 901.312828 961.2 
L 901.312828 129.6 
L 574.687172 129.6 
z
" style="fill: #ffffff"/>
   </g>
   <g id="matplotlib.axis_1">
    <g id="xtick_1">
     <g id="line2d_1">
      <defs>
       <path id="m1cd412948b" d="M 0 0 
L 0 3.5 
" style="stroke: #000000; stroke-width: 0.8"/>
      </defs>
      <g>
       <use xlink:href="#m1cd412948b" x="641.148921" y="961.2" style="stroke: #000000; stroke-width: 0.8"/>
      </g>
     </g>
     <g id="text_1">
      <!-- 1300 -->
      <g transform="translate(628.423921 975.798437) scale(0.1 -0.1)">
       <defs>
        <path id="DejaVuSans-31" d="M 794 531 
L 1825 531 
L 1825 4091 
L 703 3866 
L 703 4441 
L 1819 4666 
L 2450 4666 
L 2450 531 
L 3481 531 
L 3481 0 
L 794 0 
L 794 531 
z
" transform="scale(0.015625)"/>
        <path id="DejaVuSans-33" d="M 2597 2516 
Q 3050 2419 3304 2112 
Q 3559 1806 3559 1356 
Q 3559 666 3084 287 
Q 2609 -91 1734 -91 
Q 1441 -91 1130 -33 
Q 819 25 488 141 
L 488 750 
Q 750 597 1062 519 
Q 1375 441 1716 441 
Q 2309 441 2620 675 
Q 2931 909 2931 1356 
Q 2931 1769 2642 2001 
Q 2353 2234 1838 2234 
L 1294 2234 
L 1294 2753 
L 1863 2753 
Q 2328 2753 2575 2939 
Q 2822 3125 2822 3475 
Q 2822 3834 2567 4026 
Q 2313 4219 1838 4219 
Q 1578 4219 1281 4162 
Q 984 4106 628 3988 
L 628 4550 
Q 988 4650 1302 4700 
Q 1616 4750 1894 4750 
Q 2613 4750 3031 4423 
Q 3450 4097 3450 3541 
Q 3450 3153 3228 2886 
Q 3006 2619 2597 2516 
z
" transform="scale(0.015625)"/>
        <path id="DejaVuSans-30" d="M 2034 4250 
Q 1547 4250 1301 3770 
Q 1056 3291 1056 2328 
Q 1056 1369 1301 889 
Q 1547 409 2034 409 
Q 2525 409 2770 889 
Q 3016 1369 3016 2328 
Q 3016 3291 2770 3770 
Q 2525 4250 2034 4250 
z
M 2034 4750 
Q 2819 4750 3233 4129 
Q 3647 3509 3647 2328 
Q 3647 1150 3233 529 
Q 2819 -91 2034 -91 
Q 1250 -91 836 529 
Q 422 1150 422 2328 
Q 422 3509 836 4129 
Q 1250 4750 2034 4750 
z
" transform="scale(0.015625)"/>
       </defs>
       <use xlink:href="#DejaVuSans-31"/>
       <use xlink:href="#DejaVuSans-33" x="63.623047"/>
       <use xlink:href="#DejaVuSans-30" x="127.246094"/>
       <use xlink:href="#DejaVuSans-30" x="190.869141"/>
      </g>
     </g>
    </g>
    <g id="xtick_2">
     <g id="line2d_2">
      <g>
       <use xlink:href="#m1cd412948b" x="711.834493" y="961.2" style="stroke: #000000; stroke-width: 0.8"/>
      </g>
     </g>
     <g id="text_2">
      <!-- 1400 -->
      <g transform="translate(699.109493 975.798437) scale(0.1 -0.1)">
       <defs>
        <path id="DejaVuSans-34" d="M 2419 4116 
L 825 1625 
L 2419 1625 
L 2419 4116 
z
M 2253 4666 
L 3047 4666 
L 3047 1625 
L 3713 1625 
L 3713 1100 
L 3047 1100 
L 3047 0 
L 2419 0 
L 2419 1100 
L 313 1100 
L 313 1709 
L 2253 4666 
z
" transform="scale(0.015625)"/>
       </defs>
       <use xlink:href="#DejaVuSans-31"/>
       <use xlink:href="#DejaVuSans-34" x="63.623047"/>
       <use xlink:href="#DejaVuSans-30" x="127.246094"/>
       <use xlink:href="#DejaVuSans-30" x="190.869141"/>
      </g>
     </g>
    </g>
    <g id="xtick_3">
     <g id="line2d_3">
      <g>
       <use xlink:href="#m1cd412948b" x="782.520066" y="961.2" style="stroke: #000000; stroke-width: 0.8"/>
      </g>
     </g>
     <g id="text_3">
      <!-- 1500 -->
      <g transform="translate(769.795066 975.798437) scale(0.1 -0.1)">
       <defs>
        <path id="DejaVuSans-35" d="M 691 4666 
L 3169 4666 
L 3169 4134 
L 1269 4134 
L 1269 2991 
Q 1406 3038 1543 3061 
Q 1681 3084 1819 3084 
Q 2600 3084 3056 2656 
Q 3513 2228 3513 1497 
Q 3513 744 3044 326 
Q 2575 -91 1722 -91 
Q 1428 -91 1123 -41 
Q 819 9 494 109 
L 494 744 
Q 775 591 1075 516 
Q 1375 441 1709 441 
Q 2250 441 2565 725 
Q 2881 1009 2881 1497 
Q 2881 1984 2565 2268 
Q 2250 2553 1709 2553 
Q 1456 2553 1204 2497 
Q 953 2441 691 2322 
L 691 4666 
z
" transform="scale(0.015625)"/>
       </defs>
       <use xlink:href="#DejaVuSans-31"/>
       <use xlink:href="#DejaVuSans-35" x="63.623047"/>
       <use xlink:href="#DejaVuSans-30" x="127.246094"/>
       <use xlink:href="#DejaVuSans-30" x="190.869141"/>
      </g>
     </g>
    </g>
    <g id="xtick_4">
     <g id="line2d_4">
      <g>
       <use xlink:href="#m1cd412948b" x="853.205638" y="961.2" style="stroke: #000000; stroke-width: 0.8"/>
      </g>
     </g>
     <g id="text_4">
      <!-- 1600 -->
      <g transform="translate(840.480638 975.798437) scale(0.1 -0.1)">
       <defs>
        <path id="DejaVuSans-36" d="M 2113 2584 
Q 1688 2584 1439 2293 
Q 1191 2003 1191 1497 
Q 1191 994 1439 701 
Q 1688 409 2113 409 
Q 2538 409 2786 701 
Q 3034 994 3034 1497 
Q 3034 2003 2786 2293 
Q 2538 2584 2113 2584 
z
M 3366 4563 
L 3366 3988 
Q 3128 4100 2886 4159 
Q 2644 4219 2406 4219 
Q 1781 4219 1451 3797 
Q 1122 3375 1075 2522 
Q 1259 2794 1537 2939 
Q 1816 3084 2150 3084 
Q 2853 3084 3261 2657 
Q 3669 2231 3669 1497 
Q 3669 778 3244 343 
Q 2819 -91 2113 -91 
Q 1303 -91 875 529 
Q 447 1150 447 2328 
Q 447 3434 972 4092 
Q 1497 4750 2381 4750 
Q 2619 4750 2861 4703 
Q 3103 4656 3366 4563 
z
" transform="scale(0.015625)"/>
       </defs>
       <use xlink:href="#DejaVuSans-31"/>
       <use xlink:href="#DejaVuSans-36" x="63.623047"/>
       <use xlink:href="#DejaVuSans-30" x="127.246094"/>
       <use xlink:href="#DejaVuSans-30" x="190.869141"/>
      </g>
     </g>
    </g>
   </g>
   <g id="matplotlib.axis_2">
    <g id="ytick_1">
     <g id="line2d_5">
      <defs>
       <path id="m4384906ecc" d="M 0 0 
L -3.5 0 
" style="stroke: #000000; stroke-width: 0.8"/>
      </defs>
      <g>
       <use xlink:href="#m4384906ecc" x="574.687172" y="918.640044" style="stroke: #000000; stroke-width: 0.8"/>
      </g>
     </g>
     <g id="text_5">
      <!-- 400 -->
      <g transform="translate(548.599672 922.439263) scale(0.1 -0.1)">
       <use xlink:href="#DejaVuSans-34"/>
       <use xlink:href="#DejaVuSans-30" x="63.623047"/>
       <use xlink:href="#DejaVuSans-30" x="127.246094"/>
      </g>
     </g>
    </g>
    <g id="ytick_2">
     <g id="line2d_6">
      <g>
       <use xlink:href="#m4384906ecc" x="574.687172" y="777.268899" style="stroke: #000000; stroke-width: 0.8"/>
      </g>
     </g>
     <g id="text_6">
      <!-- 600 -->
      <g transform="translate(548.599672 781.068118) scale(0.1 -0.1)">
       <use xlink:href="#DejaVuSans-36"/>
       <use xlink:href="#DejaVuSans-30" x="63.623047"/>
       <use xlink:href="#DejaVuSans-30" x="127.246094"/>
      </g>
     </g>
    </g>
    <g id="ytick_3">
     <g id="line2d_7">
      <g>
       <use xlink:href="#m4384906ecc" x="574.687172" y="635.897755" style="stroke: #000000; stroke-width: 0.8"/>
      </g>
     </g>
     <g id="text_7">
      <!-- 800 -->
      <g transform="translate(548.599672 639.696973) scale(0.1 -0.1)">
       <defs>
        <path id="DejaVuSans-38" d="M 2034 2216 
Q 1584 2216 1326 1975 
Q 1069 1734 1069 1313 
Q 1069 891 1326 650 
Q 1584 409 2034 409 
Q 2484 409 2743 651 
Q 3003 894 3003 1313 
Q 3003 1734 2745 1975 
Q 2488 2216 2034 2216 
z
M 1403 2484 
Q 997 2584 770 2862 
Q 544 3141 544 3541 
Q 544 4100 942 4425 
Q 1341 4750 2034 4750 
Q 2731 4750 3128 4425 
Q 3525 4100 3525 3541 
Q 3525 3141 3298 2862 
Q 3072 2584 2669 2484 
Q 3125 2378 3379 2068 
Q 3634 1759 3634 1313 
Q 3634 634 3220 271 
Q 2806 -91 2034 -91 
Q 1263 -91 848 271 
Q 434 634 434 1313 
Q 434 1759 690 2068 
Q 947 2378 1403 2484 
z
M 1172 3481 
Q 1172 3119 1398 2916 
Q 1625 2713 2034 2713 
Q 2441 2713 2670 2916 
Q 2900 3119 2900 3481 
Q 2900 3844 2670 4047 
Q 2441 4250 2034 4250 
Q 1625 4250 1398 4047 
Q 1172 3844 1172 3481 
z
" transform="scale(0.015625)"/>
       </defs>
       <use xlink:href="#DejaVuSans-38"/>
       <use xlink:href="#DejaVuSans-30" x="63.623047"/>
       <use xlink:href="#DejaVuSans-30" x="127.246094"/>
      </g>
     </g>
    </g>
    <g id="ytick_4">
     <g id="line2d_8">
      <g>
       <use xlink:href="#m4384906ecc" x="574.687172" y="494.52661" style="stroke: #000000; stroke-width: 0.8"/>
      </g>
     </g>
     <g id="text_8">
      <!-- 1000 -->
      <g transform="translate(542.237172 498.325829) scale(0.1 -0.1)">
       <use xlink:href="#DejaVuSans-31"/>
       <use xlink:href="#DejaVuSans-30" x="63.623047"/>
       <use xlink:href="#DejaVuSans-30" x="127.246094"/>
       <use xlink:href="#DejaVuSans-30" x="190.869141"/>
      </g>
     </g>
    </g>
    <g id="ytick_5">
     <g id="line2d_9">
      <g>
       <use xlink:href="#m4384906ecc" x="574.687172" y="353.155465" style="stroke: #000000; stroke-width: 0.8"/>
      </g>
     </g>
     <g id="text_9">
      <!-- 1200 -->
      <g transform="translate(542.237172 356.954684) scale(0.1 -0.1)">
       <defs>
        <path id="DejaVuSans-32" d="M 1228 531 
L 3431 531 
L 3431 0 
L 469 0 
L 469 531 
Q 828 903 1448 1529 
Q 2069 2156 2228 2338 
Q 2531 2678 2651 2914 
Q 2772 3150 2772 3378 
Q 2772 3750 2511 3984 
Q 2250 4219 1831 4219 
Q 1534 4219 1204 4116 
Q 875 4013 500 3803 
L 500 4441 
Q 881 4594 1212 4672 
Q 1544 4750 1819 4750 
Q 2544 4750 2975 4387 
Q 3406 4025 3406 3419 
Q 3406 3131 3298 2873 
Q 3191 2616 2906 2266 
Q 2828 2175 2409 1742 
Q 1991 1309 1228 531 
z
" transform="scale(0.015625)"/>
       </defs>
       <use xlink:href="#DejaVuSans-31"/>
       <use xlink:href="#DejaVuSans-32" x="63.623047"/>
       <use xlink:href="#DejaVuSans-30" x="127.246094"/>
       <use xlink:href="#DejaVuSans-30" x="190.869141"/>
      </g>
     </g>
    </g>
    <g id="ytick_6">
     <g id="line2d_10">
      <g>
       <use xlink:href="#m4384906ecc" x="574.687172" y="211.784321" style="stroke: #000000; stroke-width: 0.8"/>
      </g>
     </g>
     <g id="text_10">
      <!-- 1400 -->
      <g transform="translate(542.237172 215.58354) scale(0.1 -0.1)">
       <use xlink:href="#DejaVuSans-31"/>
       <use xlink:href="#DejaVuSans-34" x="63.623047"/>
       <use xlink:href="#DejaVuSans-30" x="127.246094"/>
       <use xlink:href="#DejaVuSans-30" x="190.869141"/>
      </g>
     </g>
    </g>
   </g>
   <g id="LineCollection_1">
    <path d="M 851.912088 171.345955 
L 853.182894 181.740228 
L 853.8039 191.380251 
L 853.949647 200.835446 
L 853.71734 210.137639 
L 853.193596 219.309576 
L 852.455769 228.367382 
L 850.604178 246.182814 
L 847.660637 272.300572 
L 846.012741 289.283085 
L 844.794018 305.889578 
L 844.034105 322.094997 
L 843.677045 337.869163 
L 843.603423 353.18219 
L 843.64009 382.395315 
L 843.37646 396.243185 
L 843.092843 402.96661 
L 842.67929 409.555622 
L 842.115852 416.01094 
L 841.383979 422.334593 
L 840.466499 428.530142 
L 839.347488 434.602858 
L 838.012051 440.559789 
L 836.446056 446.40969 
L 834.635864 452.162779 
L 832.568125 457.830328 
L 830.229701 463.424116 
L 827.607764 468.955824 
L 824.690058 474.436441 
L 821.465322 479.875788 
L 817.923793 485.282199 
L 814.057721 490.662394 
L 809.861832 496.021537 
L 805.333688 501.363438 
L 800.473918 506.690836 
L 795.286313 512.005729 
L 789.777825 517.309696 
L 783.958462 522.604186 
L 777.841142 527.890756 
L 771.441489 533.171261 
L 764.777635 538.447994 
L 757.869998 543.72378 
L 750.741076 549.002042 
L 735.918537 559.582909 
L 720.524025 570.231124 
L 688.921726 591.985541 
L 673.241757 603.224068 
L 665.550562 608.970949 
L 658.003979 614.820608 
L 650.636549 620.788003 
L 643.48333 626.889611 
L 636.580144 633.14355 
L 629.963987 639.569616 
L 623.673623 646.189154 
L 617.750377 653.024651 
L 612.239056 660.098865 
L 607.188858 667.433324 
L 602.653921 675.046088 
L 598.693045 682.94885 
L 595.368039 691.14387 
L 592.740379 699.62166 
L 590.866489 708.360647 
L 589.792811 717.329709 
L 589.552356 726.493428 
L 590.164093 735.818657 
L 591.635369 745.280291 
L 593.966255 754.864613 
L 597.154195 764.56979 
L 601.197647 774.404194 
L 606.098218 784.383692 
L 611.861425 794.528872 
L 618.496535 804.862766 
L 626.015952 815.409249 
L 634.434472 826.192045 
L 643.768606 837.234216 
L 654.036063 848.557965 
L 665.255389 860.184641 
L 677.445773 872.134846 
L 690.626976 884.428607 
L 704.819376 897.085565 
L 720.044089 910.125157 
L 736.117804 923.4 
L 736.117804 923.4 
" clip-path="url(#pf5846f9d67)" style="fill: none; stroke: #1f77b4; stroke-width: 1.5"/>
    <path d="M 868.049608 169.372977 
L 869.376982 180.229926 
L 870.05352 190.732004 
L 870.210457 200.913132 
L 869.963444 210.804176 
L 869.413604 220.433136 
L 868.648539 229.825322 
L 867.743306 239.003532 
L 866.761352 247.988217 
L 865.755408 256.797648 
L 864.768355 265.448062 
L 863.834041 273.95382 
L 862.978078 282.327543 
L 862.218591 290.580251 
L 861.56694 298.721496 
L 861.02841 306.759485 
L 860.60286 314.701199 
L 860.285347 322.552509 
L 860.066722 330.318284 
L 859.93418 338.002494 
L 859.871802 345.60831 
L 859.861045 353.138194 
L 859.881222 360.593993 
L 859.909941 367.977015 
L 859.923525 375.288116 
L 859.897399 382.527769 
L 859.806458 389.696136 
L 859.625401 396.793134 
L 859.329048 403.818493 
L 858.892629 410.77182 
L 858.292051 417.652646 
L 857.504142 424.460479 
L 856.506869 431.194848 
L 855.279548 437.855346 
L 853.803012 444.441669 
L 852.059781 450.953652 
L 850.034196 457.391297 
L 847.712543 463.754807 
L 845.083159 470.044607 
L 842.136516 476.261372 
L 838.86529 482.406041 
L 835.264417 488.479841 
L 831.331134 494.484294 
L 827.064995 500.421238 
L 822.467891 506.292828 
L 817.544038 512.101552 
L 812.299967 517.850229 
L 806.744492 523.542018 
L 800.888675 529.18042 
L 794.74577 534.769271 
L 788.331169 540.312749 
L 781.662331 545.815365 
L 774.758702 551.281962 
L 767.641634 556.717704 
L 760.334285 562.128074 
L 752.861526 567.518864 
L 745.249832 572.896165 
L 737.527172 578.266358 
L 729.722894 583.636101 
L 721.867603 589.012322 
L 713.993041 594.402203 
L 706.131962 599.813169 
L 698.318002 605.252876 
L 690.585553 610.729201 
L 682.96963 616.250223 
L 675.50575 621.824215 
L 668.229793 627.459632 
L 661.177883 633.165098 
L 654.38626 638.949392 
L 647.89116 644.821441 
L 641.728691 650.790308 
L 635.934726 656.865181 
L 630.544787 663.055368 
L 625.593943 669.370284 
L 621.116712 675.81945 
L 617.146968 682.412485 
L 613.717857 689.159102 
L 610.861723 696.069108 
L 608.610039 703.152399 
L 606.993347 710.418965 
L 606.041215 717.878891 
L 605.782196 725.542363 
L 606.243804 733.419673 
L 607.452501 741.521229 
L 609.433695 749.857567 
L 612.211753 758.439362 
L 615.81003 767.27745 
L 620.250906 776.382839 
L 625.555849 785.766739 
L 631.745483 795.44058 
L 638.839682 805.416042 
L 646.857674 815.705089 
L 655.81817 826.319995 
L 665.739506 837.27339 
L 676.639807 848.578296 
L 688.537173 860.24817 
L 701.449882 872.296958 
L 715.396615 884.739139 
L 730.396709 897.589788 
L 746.470424 910.864631 
" clip-path="url(#pf5846f9d67)" style="fill: none; stroke: #8c564b; stroke-width: 1.5"/>
    <path d="M 884.187129 167.4 
L 885.601034 179.184781 
L 886.309271 190.48143 
L 886.463071 201.319014 
L 886.194685 211.731026 
L 885.617615 221.753077 
L 884.827719 231.42105 
L 882.914065 249.832686 
L 880.001212 275.668041 
L 878.416724 291.973823 
L 877.256989 307.737881 
L 876.533783 323.109754 
L 876.190712 338.209354 
L 876.118758 353.127809 
L 876.153773 382.734005 
L 875.868637 397.478327 
L 875.554802 404.836887 
L 875.088735 412.185462 
L 874.441931 419.521765 
L 873.586439 426.842057 
L 872.495372 434.141029 
L 871.143475 441.411754 
L 869.507721 448.645756 
L 867.567904 455.833235 
L 865.307153 462.963458 
L 862.712314 470.0253 
L 859.77414 477.007889 
L 856.487276 483.901259 
L 852.850036 490.696945 
L 848.86403 497.388417 
L 844.533717 503.971339 
L 839.865941 510.443613 
L 834.869535 516.80527 
L 829.555011 523.058228 
L 823.934358 529.205983 
L 818.020944 535.253289 
L 811.829482 541.205849 
L 805.376062 547.070047 
L 798.678203 552.852729 
L 791.754911 558.561033 
L 784.62673 564.202265 
L 777.315789 569.783802 
L 769.84581 575.313031 
L 754.531579 586.243876 
L 738.905146 597.052452 
L 707.660635 618.558204 
L 692.605122 629.345367 
L 685.34804 634.764923 
L 678.321431 640.207214 
L 671.563109 645.675148 
L 665.11074 651.170506 
L 659.001415 656.693785 
L 653.271081 662.244094 
L 647.953804 667.819168 
L 643.080854 673.415607 
L 638.679616 679.029488 
L 634.772446 684.657518 
L 631.375712 690.298885 
L 628.499428 695.957841 
L 626.148025 701.646723 
L 624.322712 707.388745 
L 623.025484 713.219411 
L 622.264019 719.185474 
L 622.055967 725.340994 
L 622.431022 731.741286 
L 623.429919 738.436609 
L 625.100873 745.467538 
L 627.494924 752.863083 
L 630.661728 760.641389 
L 634.646722 768.812056 
L 639.48981 777.378982 
L 645.225254 786.342964 
L 651.882273 795.70369 
L 659.485968 805.461091 
L 668.058283 815.616145 
L 677.618897 826.171294 
L 688.18598 837.130613 
L 699.776831 848.499833 
L 712.408404 860.286295 
L 726.097765 872.498869 
L 740.862491 885.147877 
L 756.823044 898.329262 
L 756.823044 898.329262 
" clip-path="url(#pf5846f9d67)" style="fill: none; stroke: #17becf; stroke-width: 1.5"/>
   </g>
   <g id="patch_3">
    <path d="M 574.687172 961.2 
L 574.687172 129.6 
" style="fill: none; stroke: #000000; stroke-width: 0.8; stroke-linejoin: miter; stroke-linecap: square"/>
   </g>
   <g id="patch_4">
    <path d="M 901.312828 961.2 
L 901.312828 129.6 
" style="fill: none; stroke: #000000; stroke-width: 0.8; stroke-linejoin: miter; stroke-linecap: square"/>
   </g>
   <g id="patch_5">
    <path d="M 574.687172 961.2 
L 901.312828 961.2 
" style="fill: none; stroke: #000000; stroke-width: 0.8; stroke-linejoin: miter; stroke-linecap: square"/>
   </g>
   <g id="patch_6">
    <path d="M 574.687172 129.6 
L 901.312828 129.6 
" style="fill: none; stroke: #000000; stroke-width: 0.8; stroke-linejoin: miter; stroke-linecap: square"/>
   </g>
  </g>
 </g>
 <defs>
  <clipPath id="pf5846f9d67">
   <rect x="574.687172" y="129.6" width="326.625657" height="831.6"/>
  </clipPath>
 </defs>
</svg>
