<?xml version="1.0" encoding="utf-8" standalone="no"?>
<!DOCTYPE svg PUBLIC "-//W3C//DTD SVG 1.1//EN"
  "http://www.w3.org/Graphics/SVG/1.1/DTD/svg11.dtd">
<svg xmlns:xlink="http://www.w3.org/1999/xlink" width="1440pt" height="1080pt" viewBox="0 0 1440 1080" xmlns="http://www.w3.org/2000/svg" version="1.1">
 <metadata>
  <rdf:RDF xmlns:dc="http://purl.org/dc/elements/1.1/" xmlns:cc="http://creativecommons.org/ns#" xmlns:rdf="http://www.w3.org/1999/02/22-rdf-syntax-ns#">
   <cc:Work>
    <dc:type rdf:resource="http://purl.org/dc/dcmitype/StillImage"/>
    <dc:date>2023-12-11T12:07:03.769640</dc:date>
    <dc:format>image/svg+xml</dc:format>
    <dc:creator>
     <cc:Agent>
      <dc:title>Matplotlib v3.7.1, https://matplotlib.org/</dc:title>
     </cc:Agent>
    </dc:creator>
   </cc:Work>
  </rdf:RDF>
 </metadata>
 <defs>
  <style type="text/css">*{stroke-linejoin: round; stroke-linecap: butt}</style>
 </defs>
 <g id="figure_1">
  <g id="patch_1">
   <path d="M 0 1080 
L 1440 1080 
L 1440 0 
L 0 0 
z
" style="fill: #ffffff"/>
  </g>
  <g id="axes_1">
   <g id="patch_2">
    <path d="M 180 650.840347 
L 1296 650.840347 
L 1296 439.959653 
L 180 439.959653 
z
" style="fill: #ffffff"/>
   </g>
   <g id="matplotlib.axis_1">
    <g id="xtick_1">
     <g id="line2d_1">
      <defs>
       <path id="mefdf4048e5" d="M 0 0 
L 0 3.5 
" style="stroke: #000000; stroke-width: 0.8"/>
      </defs>
      <g>
       <use xlink:href="#mefdf4048e5" x="270.380426" y="650.840347" style="stroke: #000000; stroke-width: 0.8"/>
      </g>
     </g>
     <g id="text_1">
      <!-- 400 -->
      <g transform="translate(260.836676 665.438784) scale(0.1 -0.1)">
       <defs>
        <path id="DejaVuSans-34" d="M 2419 4116 
L 825 1625 
L 2419 1625 
L 2419 4116 
z
M 2253 4666 
L 3047 4666 
L 3047 1625 
L 3713 1625 
L 3713 1100 
L 3047 1100 
L 3047 0 
L 2419 0 
L 2419 1100 
L 313 1100 
L 313 1709 
L 2253 4666 
z
" transform="scale(0.015625)"/>
        <path id="DejaVuSans-30" d="M 2034 4250 
Q 1547 4250 1301 3770 
Q 1056 3291 1056 2328 
Q 1056 1369 1301 889 
Q 1547 409 2034 409 
Q 2525 409 2770 889 
Q 3016 1369 3016 2328 
Q 3016 3291 2770 3770 
Q 2525 4250 2034 4250 
z
M 2034 4750 
Q 2819 4750 3233 4129 
Q 3647 3509 3647 2328 
Q 3647 1150 3233 529 
Q 2819 -91 2034 -91 
Q 1250 -91 836 529 
Q 422 1150 422 2328 
Q 422 3509 836 4129 
Q 1250 4750 2034 4750 
z
" transform="scale(0.015625)"/>
       </defs>
       <use xlink:href="#DejaVuSans-34"/>
       <use xlink:href="#DejaVuSans-30" x="63.623047"/>
       <use xlink:href="#DejaVuSans-30" x="127.246094"/>
      </g>
     </g>
    </g>
    <g id="xtick_2">
     <g id="line2d_2">
      <g>
       <use xlink:href="#mefdf4048e5" x="425.881221" y="650.840347" style="stroke: #000000; stroke-width: 0.8"/>
      </g>
     </g>
     <g id="text_2">
      <!-- 600 -->
      <g transform="translate(416.337471 665.438784) scale(0.1 -0.1)">
       <defs>
        <path id="DejaVuSans-36" d="M 2113 2584 
Q 1688 2584 1439 2293 
Q 1191 2003 1191 1497 
Q 1191 994 1439 701 
Q 1688 409 2113 409 
Q 2538 409 2786 701 
Q 3034 994 3034 1497 
Q 3034 2003 2786 2293 
Q 2538 2584 2113 2584 
z
M 3366 4563 
L 3366 3988 
Q 3128 4100 2886 4159 
Q 2644 4219 2406 4219 
Q 1781 4219 1451 3797 
Q 1122 3375 1075 2522 
Q 1259 2794 1537 2939 
Q 1816 3084 2150 3084 
Q 2853 3084 3261 2657 
Q 3669 2231 3669 1497 
Q 3669 778 3244 343 
Q 2819 -91 2113 -91 
Q 1303 -91 875 529 
Q 447 1150 447 2328 
Q 447 3434 972 4092 
Q 1497 4750 2381 4750 
Q 2619 4750 2861 4703 
Q 3103 4656 3366 4563 
z
" transform="scale(0.015625)"/>
       </defs>
       <use xlink:href="#DejaVuSans-36"/>
       <use xlink:href="#DejaVuSans-30" x="63.623047"/>
       <use xlink:href="#DejaVuSans-30" x="127.246094"/>
      </g>
     </g>
    </g>
    <g id="xtick_3">
     <g id="line2d_3">
      <g>
       <use xlink:href="#mefdf4048e5" x="581.382016" y="650.840347" style="stroke: #000000; stroke-width: 0.8"/>
      </g>
     </g>
     <g id="text_3">
      <!-- 800 -->
      <g transform="translate(571.838266 665.438784) scale(0.1 -0.1)">
       <defs>
        <path id="DejaVuSans-38" d="M 2034 2216 
Q 1584 2216 1326 1975 
Q 1069 1734 1069 1313 
Q 1069 891 1326 650 
Q 1584 409 2034 409 
Q 2484 409 2743 651 
Q 3003 894 3003 1313 
Q 3003 1734 2745 1975 
Q 2488 2216 2034 2216 
z
M 1403 2484 
Q 997 2584 770 2862 
Q 544 3141 544 3541 
Q 544 4100 942 4425 
Q 1341 4750 2034 4750 
Q 2731 4750 3128 4425 
Q 3525 4100 3525 3541 
Q 3525 3141 3298 2862 
Q 3072 2584 2669 2484 
Q 3125 2378 3379 2068 
Q 3634 1759 3634 1313 
Q 3634 634 3220 271 
Q 2806 -91 2034 -91 
Q 1263 -91 848 271 
Q 434 634 434 1313 
Q 434 1759 690 2068 
Q 947 2378 1403 2484 
z
M 1172 3481 
Q 1172 3119 1398 2916 
Q 1625 2713 2034 2713 
Q 2441 2713 2670 2916 
Q 2900 3119 2900 3481 
Q 2900 3844 2670 4047 
Q 2441 4250 2034 4250 
Q 1625 4250 1398 4047 
Q 1172 3844 1172 3481 
z
" transform="scale(0.015625)"/>
       </defs>
       <use xlink:href="#DejaVuSans-38"/>
       <use xlink:href="#DejaVuSans-30" x="63.623047"/>
       <use xlink:href="#DejaVuSans-30" x="127.246094"/>
      </g>
     </g>
    </g>
    <g id="xtick_4">
     <g id="line2d_4">
      <g>
       <use xlink:href="#mefdf4048e5" x="736.882811" y="650.840347" style="stroke: #000000; stroke-width: 0.8"/>
      </g>
     </g>
     <g id="text_4">
      <!-- 1000 -->
      <g transform="translate(724.157811 665.438784) scale(0.1 -0.1)">
       <defs>
        <path id="DejaVuSans-31" d="M 794 531 
L 1825 531 
L 1825 4091 
L 703 3866 
L 703 4441 
L 1819 4666 
L 2450 4666 
L 2450 531 
L 3481 531 
L 3481 0 
L 794 0 
L 794 531 
z
" transform="scale(0.015625)"/>
       </defs>
       <use xlink:href="#DejaVuSans-31"/>
       <use xlink:href="#DejaVuSans-30" x="63.623047"/>
       <use xlink:href="#DejaVuSans-30" x="127.246094"/>
       <use xlink:href="#DejaVuSans-30" x="190.869141"/>
      </g>
     </g>
    </g>
    <g id="xtick_5">
     <g id="line2d_5">
      <g>
       <use xlink:href="#mefdf4048e5" x="892.383606" y="650.840347" style="stroke: #000000; stroke-width: 0.8"/>
      </g>
     </g>
     <g id="text_5">
      <!-- 1200 -->
      <g transform="translate(879.658606 665.438784) scale(0.1 -0.1)">
       <defs>
        <path id="DejaVuSans-32" d="M 1228 531 
L 3431 531 
L 3431 0 
L 469 0 
L 469 531 
Q 828 903 1448 1529 
Q 2069 2156 2228 2338 
Q 2531 2678 2651 2914 
Q 2772 3150 2772 3378 
Q 2772 3750 2511 3984 
Q 2250 4219 1831 4219 
Q 1534 4219 1204 4116 
Q 875 4013 500 3803 
L 500 4441 
Q 881 4594 1212 4672 
Q 1544 4750 1819 4750 
Q 2544 4750 2975 4387 
Q 3406 4025 3406 3419 
Q 3406 3131 3298 2873 
Q 3191 2616 2906 2266 
Q 2828 2175 2409 1742 
Q 1991 1309 1228 531 
z
" transform="scale(0.015625)"/>
       </defs>
       <use xlink:href="#DejaVuSans-31"/>
       <use xlink:href="#DejaVuSans-32" x="63.623047"/>
       <use xlink:href="#DejaVuSans-30" x="127.246094"/>
       <use xlink:href="#DejaVuSans-30" x="190.869141"/>
      </g>
     </g>
    </g>
    <g id="xtick_6">
     <g id="line2d_6">
      <g>
       <use xlink:href="#mefdf4048e5" x="1047.884401" y="650.840347" style="stroke: #000000; stroke-width: 0.8"/>
      </g>
     </g>
     <g id="text_6">
      <!-- 1400 -->
      <g transform="translate(1035.159401 665.438784) scale(0.1 -0.1)">
       <use xlink:href="#DejaVuSans-31"/>
       <use xlink:href="#DejaVuSans-34" x="63.623047"/>
       <use xlink:href="#DejaVuSans-30" x="127.246094"/>
       <use xlink:href="#DejaVuSans-30" x="190.869141"/>
      </g>
     </g>
    </g>
    <g id="xtick_7">
     <g id="line2d_7">
      <g>
       <use xlink:href="#mefdf4048e5" x="1203.385196" y="650.840347" style="stroke: #000000; stroke-width: 0.8"/>
      </g>
     </g>
     <g id="text_7">
      <!-- 1600 -->
      <g transform="translate(1190.660196 665.438784) scale(0.1 -0.1)">
       <use xlink:href="#DejaVuSans-31"/>
       <use xlink:href="#DejaVuSans-36" x="63.623047"/>
       <use xlink:href="#DejaVuSans-30" x="127.246094"/>
       <use xlink:href="#DejaVuSans-30" x="190.869141"/>
      </g>
     </g>
    </g>
   </g>
   <g id="matplotlib.axis_2">
    <g id="ytick_1">
     <g id="line2d_8">
      <defs>
       <path id="m8e84134208" d="M 0 0 
L -3.5 0 
" style="stroke: #000000; stroke-width: 0.8"/>
      </defs>
      <g>
       <use xlink:href="#m8e84134208" x="180" y="619.55582" style="stroke: #000000; stroke-width: 0.8"/>
      </g>
     </g>
     <g id="text_8">
      <!-- 1000 -->
      <g transform="translate(147.55 623.355039) scale(0.1 -0.1)">
       <use xlink:href="#DejaVuSans-31"/>
       <use xlink:href="#DejaVuSans-30" x="63.623047"/>
       <use xlink:href="#DejaVuSans-30" x="127.246094"/>
       <use xlink:href="#DejaVuSans-30" x="190.869141"/>
      </g>
     </g>
    </g>
    <g id="ytick_2">
     <g id="line2d_9">
      <g>
       <use xlink:href="#m8e84134208" x="180" y="580.680621" style="stroke: #000000; stroke-width: 0.8"/>
      </g>
     </g>
     <g id="text_9">
      <!-- 1050 -->
      <g transform="translate(147.55 584.47984) scale(0.1 -0.1)">
       <defs>
        <path id="DejaVuSans-35" d="M 691 4666 
L 3169 4666 
L 3169 4134 
L 1269 4134 
L 1269 2991 
Q 1406 3038 1543 3061 
Q 1681 3084 1819 3084 
Q 2600 3084 3056 2656 
Q 3513 2228 3513 1497 
Q 3513 744 3044 326 
Q 2575 -91 1722 -91 
Q 1428 -91 1123 -41 
Q 819 9 494 109 
L 494 744 
Q 775 591 1075 516 
Q 1375 441 1709 441 
Q 2250 441 2565 725 
Q 2881 1009 2881 1497 
Q 2881 1984 2565 2268 
Q 2250 2553 1709 2553 
Q 1456 2553 1204 2497 
Q 953 2441 691 2322 
L 691 4666 
z
" transform="scale(0.015625)"/>
       </defs>
       <use xlink:href="#DejaVuSans-31"/>
       <use xlink:href="#DejaVuSans-30" x="63.623047"/>
       <use xlink:href="#DejaVuSans-35" x="127.246094"/>
       <use xlink:href="#DejaVuSans-30" x="190.869141"/>
      </g>
     </g>
    </g>
    <g id="ytick_3">
     <g id="line2d_10">
      <g>
       <use xlink:href="#m8e84134208" x="180" y="541.805423" style="stroke: #000000; stroke-width: 0.8"/>
      </g>
     </g>
     <g id="text_10">
      <!-- 1100 -->
      <g transform="translate(147.55 545.604641) scale(0.1 -0.1)">
       <use xlink:href="#DejaVuSans-31"/>
       <use xlink:href="#DejaVuSans-31" x="63.623047"/>
       <use xlink:href="#DejaVuSans-30" x="127.246094"/>
       <use xlink:href="#DejaVuSans-30" x="190.869141"/>
      </g>
     </g>
    </g>
    <g id="ytick_4">
     <g id="line2d_11">
      <g>
       <use xlink:href="#m8e84134208" x="180" y="502.930224" style="stroke: #000000; stroke-width: 0.8"/>
      </g>
     </g>
     <g id="text_11">
      <!-- 1150 -->
      <g transform="translate(147.55 506.729443) scale(0.1 -0.1)">
       <use xlink:href="#DejaVuSans-31"/>
       <use xlink:href="#DejaVuSans-31" x="63.623047"/>
       <use xlink:href="#DejaVuSans-35" x="127.246094"/>
       <use xlink:href="#DejaVuSans-30" x="190.869141"/>
      </g>
     </g>
    </g>
    <g id="ytick_5">
     <g id="line2d_12">
      <g>
       <use xlink:href="#m8e84134208" x="180" y="464.055025" style="stroke: #000000; stroke-width: 0.8"/>
      </g>
     </g>
     <g id="text_12">
      <!-- 1200 -->
      <g transform="translate(147.55 467.854244) scale(0.1 -0.1)">
       <use xlink:href="#DejaVuSans-31"/>
       <use xlink:href="#DejaVuSans-32" x="63.623047"/>
       <use xlink:href="#DejaVuSans-30" x="127.246094"/>
       <use xlink:href="#DejaVuSans-30" x="190.869141"/>
      </g>
     </g>
    </g>
   </g>
   <g id="LineCollection_1">
    <path d="M 1245.272727 618.071883 
L 1232.684729 597.117203 
L 1220.154224 578.316097 
L 1207.683436 561.465344 
L 1195.275907 546.38299 
L 1182.936819 532.906187 
L 1170.673057 520.888979 
L 1158.492974 510.20014 
L 1146.405898 500.721196 
L 1134.421452 492.344719 
L 1122.548814 484.972965 
L 1110.796035 478.516864 
L 1099.169509 472.895285 
L 1087.673655 468.034529 
L 1076.310819 463.867937 
L 1065.081361 460.335535 
L 1053.983883 457.383675 
L 1043.015536 454.964628 
L 1032.172364 453.036133 
L 1021.449637 451.560892 
L 1010.842156 450.506052 
L 1000.344506 449.84266 
L 989.951259 449.545139 
L 979.657123 449.590771 
L 969.457045 449.959218 
L 959.346273 450.632081 
L 949.320385 451.592499 
L 939.375294 452.824795 
L 929.507233 454.314172 
L 919.712733 456.046443 
L 909.988592 458.007817 
L 900.331847 460.184711 
L 890.739739 462.563605 
L 881.209694 465.130931 
L 871.739296 467.87298 
L 862.326277 470.77585 
L 852.968499 473.825399 
L 843.663949 477.007232 
L 834.410733 480.306701 
L 816.051283 487.198784 
L 797.877145 494.380312 
L 770.938436 505.426367 
L 735.519882 520.051921 
L 718.015822 527.059666 
L 700.634909 533.729505 
L 683.359127 539.979428 
L 674.753536 542.925953 
L 666.164858 545.744664 
L 657.589054 548.430441 
L 649.021603 550.979407 
L 640.457502 553.388923 
L 631.891276 555.657577 
L 623.317009 557.78515 
L 614.728392 559.772578 
L 606.118792 561.62189 
L 597.481327 563.336149 
L 588.80896 564.919372 
L 580.094602 566.376438 
L 571.331216 567.712993 
L 562.511927 568.935324 
L 544.679564 571.064811 
L 526.549608 572.822061 
L 508.082905 574.262489 
L 489.251525 575.430419 
L 470.040806 576.347037 
L 450.451047 576.995774 
L 430.498905 577.305741 
L 420.396858 577.292384 
L 410.218275 577.134295 
L 399.969987 576.799654 
L 389.659594 576.250136 
L 379.295094 575.440461 
L 368.884238 574.31793 
L 358.433518 572.821838 
L 347.946707 570.882604 
L 337.422919 568.420351 
L 326.854372 565.34262 
L 316.224247 561.540908 
L 305.505425 556.885954 
L 294.661007 551.222161 
L 283.647354 544.362191 
L 272.41954 536.083152 
L 260.273324 525.549058 
L 260.273324 525.549058 
" clip-path="url(#p875a49a0a5)" style="fill: none; stroke: #1f77b4; stroke-width: 1.5"/>
    <path d="M 1225.932812 629.663372 
L 1213.907346 609.599384 
L 1202.01134 591.703804 
L 1190.247765 575.761928 
L 1178.618455 561.579181 
L 1167.124215 548.979659 
L 1155.764929 537.804731 
L 1144.539654 527.911713 
L 1133.446716 519.172608 
L 1122.4838 511.472903 
L 1111.648027 504.710437 
L 1100.936039 498.794325 
L 1090.344065 493.643935 
L 1079.867997 489.187937 
L 1069.503445 485.363392 
L 1059.245804 482.114911 
L 1049.090304 479.39385 
L 1039.03206 477.157575 
L 1029.066122 475.368759 
L 1019.187513 473.994745 
L 1009.391271 473.006938 
L 999.672482 472.380258 
L 990.026309 472.09263 
L 980.448022 472.124511 
L 970.933023 472.458473 
L 961.476862 473.078808 
L 952.075261 473.971186 
L 942.724123 475.122336 
L 933.419546 476.519774 
L 924.157833 478.151557 
L 914.935496 480.006069 
L 905.749262 482.071843 
L 896.596073 484.337404 
L 887.473086 486.791145 
L 878.377668 489.421228 
L 869.307394 492.215509 
L 860.260038 495.161481 
L 851.233566 498.24625 
L 842.226123 501.456515 
L 833.236024 504.778584 
L 824.26174 508.198387 
L 815.301882 511.701526 
L 806.355188 515.273319 
L 797.420504 518.898868 
L 788.496768 522.563137 
L 779.582992 526.251031 
L 770.678242 529.947494 
L 761.78162 533.637607 
L 752.892242 537.306689 
L 744.00922 540.940404 
L 735.131642 544.524874 
L 726.25855 548.046781 
L 717.388924 551.493478 
L 708.521656 554.853095 
L 699.655535 558.114635 
L 690.789229 561.268071 
L 681.921263 564.304432 
L 673.050004 567.215883 
L 664.173644 569.995789 
L 655.290184 572.638773 
L 646.397418 575.140759 
L 637.492925 577.498998 
L 628.574051 579.712081 
L 619.6379 581.779929 
L 610.681328 583.703769 
L 601.700935 585.486089 
L 592.693057 587.130562 
L 583.653767 588.641958 
L 574.578871 590.026023 
L 565.463911 591.289333 
L 556.304167 592.439118 
L 547.094665 593.483062 
L 537.830184 594.429059 
L 528.50527 595.284953 
L 519.114247 596.058228 
L 509.651238 596.755671 
L 500.110183 597.382994 
L 490.484863 597.944419 
L 480.76893 598.442219 
L 470.955932 598.87622 
L 461.039355 599.243262 
L 451.012654 599.536607 
L 440.8693 599.745304 
L 430.602823 599.853513 
L 420.206863 599.839768 
L 409.675226 599.676195 
L 399.001939 599.327677 
L 388.181318 598.750965 
L 377.208034 597.893731 
L 366.077182 596.693568 
L 354.784366 595.076924 
L 343.325774 592.957988 
L 331.698273 590.237498 
L 319.899495 586.801504 
L 307.927942 582.52005 
L 295.783083 577.245799 
L 283.465472 570.812591 
L 270.976854 563.033923 
L 258.320293 553.701371 
L 245.500299 542.582927 
" clip-path="url(#p875a49a0a5)" style="fill: none; stroke: #8c564b; stroke-width: 1.5"/>
    <path d="M 1206.592896 641.254861 
L 1194.83829 621.642791 
L 1183.540101 604.646529 
L 1172.446878 589.613107 
L 1161.560024 576.335837 
L 1150.877336 564.625904 
L 1140.393016 554.311742 
L 1130.097958 545.23854 
L 1119.980297 537.267764 
L 1110.026185 530.276585 
L 1100.220681 524.157096 
L 1090.548624 518.815327 
L 1080.995404 514.170035 
L 1071.54752 510.151375 
L 1062.192926 506.699508 
L 1052.921151 503.763239 
L 1043.723253 501.298758 
L 1034.59165 499.268505 
L 1025.519886 497.640188 
L 1016.502375 496.385943 
L 1007.534162 495.481631 
L 998.61071 494.906235 
L 989.727739 494.641364 
L 980.881106 494.67081 
L 972.066724 494.980181 
L 963.280529 495.556566 
L 954.518468 496.388239 
L 945.776515 497.464397 
L 937.050699 498.774912 
L 928.337144 500.310118 
L 919.632106 502.060607 
L 910.932017 504.017058 
L 902.233518 506.170075 
L 893.533481 508.510059 
L 884.829035 511.027086 
L 876.117571 513.710828 
L 867.396742 516.550478 
L 858.664461 519.534708 
L 841.158399 525.888864 
L 823.587256 532.671839 
L 805.941856 539.774301 
L 770.384157 554.479663 
L 743.44994 565.481994 
L 725.377569 572.578461 
L 707.211271 579.358594 
L 698.093178 582.599908 
L 688.952183 585.72781 
L 679.788738 588.732956 
L 670.603414 591.607198 
L 661.396877 594.343686 
L 652.169856 596.936949 
L 642.923099 599.382969 
L 633.657304 601.679226 
L 624.373047 603.824731 
L 615.070693 605.820017 
L 605.750289 607.66711 
L 596.411466 609.369455 
L 587.053324 610.93182 
L 577.674323 612.360148 
L 568.272184 613.661381 
L 558.843788 614.843254 
L 539.89107 616.882293 
L 520.771557 618.544853 
L 501.423106 619.892352 
L 481.765175 620.967814 
L 461.698733 621.781234 
L 441.10694 622.291667 
L 430.573011 622.401109 
L 419.856705 622.384664 
L 408.939364 622.211799 
L 397.801911 621.843336 
L 386.425248 621.230093 
L 374.790889 620.311411 
L 362.881913 619.013631 
L 350.684346 617.248636 
L 338.189028 614.912686 
L 325.39393 611.885829 
L 312.306633 608.032223 
L 298.946388 603.201603 
L 285.34487 597.231761 
L 271.544718 589.95131 
L 257.595436 581.181447 
L 243.547267 570.735239 
L 230.727273 559.616795 
L 230.727273 559.616795 
" clip-path="url(#p875a49a0a5)" style="fill: none; stroke: #17becf; stroke-width: 1.5"/>
   </g>
   <g id="patch_3">
    <path d="M 180 650.840347 
L 180 439.959653 
" style="fill: none; stroke: #000000; stroke-width: 0.8; stroke-linejoin: miter; stroke-linecap: square"/>
   </g>
   <g id="patch_4">
    <path d="M 1296 650.840347 
L 1296 439.959653 
" style="fill: none; stroke: #000000; stroke-width: 0.8; stroke-linejoin: miter; stroke-linecap: square"/>
   </g>
   <g id="patch_5">
    <path d="M 180 650.840347 
L 1296 650.840347 
" style="fill: none; stroke: #000000; stroke-width: 0.8; stroke-linejoin: miter; stroke-linecap: square"/>
   </g>
   <g id="patch_6">
    <path d="M 180 439.959653 
L 1296 439.959653 
" style="fill: none; stroke: #000000; stroke-width: 0.8; stroke-linejoin: miter; stroke-linecap: square"/>
   </g>
  </g>
 </g>
 <defs>
  <clipPath id="p875a49a0a5">
   <rect x="180" y="439.959653" width="1116" height="210.880694"/>
  </clipPath>
 </defs>
</svg>
