<?xml version="1.0" encoding="utf-8" standalone="no"?>
<!DOCTYPE svg PUBLIC "-//W3C//DTD SVG 1.1//EN"
  "http://www.w3.org/Graphics/SVG/1.1/DTD/svg11.dtd">
<svg xmlns:xlink="http://www.w3.org/1999/xlink" width="1440pt" height="1080pt" viewBox="0 0 1440 1080" xmlns="http://www.w3.org/2000/svg" version="1.1">
 <metadata>
  <rdf:RDF xmlns:dc="http://purl.org/dc/elements/1.1/" xmlns:cc="http://creativecommons.org/ns#" xmlns:rdf="http://www.w3.org/1999/02/22-rdf-syntax-ns#">
   <cc:Work>
    <dc:type rdf:resource="http://purl.org/dc/dcmitype/StillImage"/>
    <dc:date>2023-12-11T12:07:03.352698</dc:date>
    <dc:format>image/svg+xml</dc:format>
    <dc:creator>
     <cc:Agent>
      <dc:title>Matplotlib v3.7.1, https://matplotlib.org/</dc:title>
     </cc:Agent>
    </dc:creator>
   </cc:Work>
  </rdf:RDF>
 </metadata>
 <defs>
  <style type="text/css">*{stroke-linejoin: round; stroke-linecap: butt}</style>
 </defs>
 <g id="figure_1">
  <g id="patch_1">
   <path d="M 0 1080 
L 1440 1080 
L 1440 0 
L 0 0 
z
" style="fill: #ffffff"/>
  </g>
  <g id="axes_1">
   <g id="patch_2">
    <path d="M 180 689.220296 
L 1296 689.220296 
L 1296 401.579704 
L 180 401.579704 
z
" style="fill: #ffffff"/>
   </g>
   <g id="matplotlib.axis_1">
    <g id="xtick_1">
     <g id="line2d_1">
      <defs>
       <path id="m3da2b64873" d="M 0 0 
L 0 3.5 
" style="stroke: #000000; stroke-width: 0.8"/>
      </defs>
      <g>
       <use xlink:href="#m3da2b64873" x="267.308733" y="689.220296" style="stroke: #000000; stroke-width: 0.8"/>
      </g>
     </g>
     <g id="text_1">
      <!-- 200 -->
      <g transform="translate(257.764983 703.818734) scale(0.1 -0.1)">
       <defs>
        <path id="DejaVuSans-32" d="M 1228 531 
L 3431 531 
L 3431 0 
L 469 0 
L 469 531 
Q 828 903 1448 1529 
Q 2069 2156 2228 2338 
Q 2531 2678 2651 2914 
Q 2772 3150 2772 3378 
Q 2772 3750 2511 3984 
Q 2250 4219 1831 4219 
Q 1534 4219 1204 4116 
Q 875 4013 500 3803 
L 500 4441 
Q 881 4594 1212 4672 
Q 1544 4750 1819 4750 
Q 2544 4750 2975 4387 
Q 3406 4025 3406 3419 
Q 3406 3131 3298 2873 
Q 3191 2616 2906 2266 
Q 2828 2175 2409 1742 
Q 1991 1309 1228 531 
z
" transform="scale(0.015625)"/>
        <path id="DejaVuSans-30" d="M 2034 4250 
Q 1547 4250 1301 3770 
Q 1056 3291 1056 2328 
Q 1056 1369 1301 889 
Q 1547 409 2034 409 
Q 2525 409 2770 889 
Q 3016 1369 3016 2328 
Q 3016 3291 2770 3770 
Q 2525 4250 2034 4250 
z
M 2034 4750 
Q 2819 4750 3233 4129 
Q 3647 3509 3647 2328 
Q 3647 1150 3233 529 
Q 2819 -91 2034 -91 
Q 1250 -91 836 529 
Q 422 1150 422 2328 
Q 422 3509 836 4129 
Q 1250 4750 2034 4750 
z
" transform="scale(0.015625)"/>
       </defs>
       <use xlink:href="#DejaVuSans-32"/>
       <use xlink:href="#DejaVuSans-30" x="63.623047"/>
       <use xlink:href="#DejaVuSans-30" x="127.246094"/>
      </g>
     </g>
    </g>
    <g id="xtick_2">
     <g id="line2d_2">
      <g>
       <use xlink:href="#m3da2b64873" x="427.270516" y="689.220296" style="stroke: #000000; stroke-width: 0.8"/>
      </g>
     </g>
     <g id="text_2">
      <!-- 400 -->
      <g transform="translate(417.726766 703.818734) scale(0.1 -0.1)">
       <defs>
        <path id="DejaVuSans-34" d="M 2419 4116 
L 825 1625 
L 2419 1625 
L 2419 4116 
z
M 2253 4666 
L 3047 4666 
L 3047 1625 
L 3713 1625 
L 3713 1100 
L 3047 1100 
L 3047 0 
L 2419 0 
L 2419 1100 
L 313 1100 
L 313 1709 
L 2253 4666 
z
" transform="scale(0.015625)"/>
       </defs>
       <use xlink:href="#DejaVuSans-34"/>
       <use xlink:href="#DejaVuSans-30" x="63.623047"/>
       <use xlink:href="#DejaVuSans-30" x="127.246094"/>
      </g>
     </g>
    </g>
    <g id="xtick_3">
     <g id="line2d_3">
      <g>
       <use xlink:href="#m3da2b64873" x="587.232299" y="689.220296" style="stroke: #000000; stroke-width: 0.8"/>
      </g>
     </g>
     <g id="text_3">
      <!-- 600 -->
      <g transform="translate(577.688549 703.818734) scale(0.1 -0.1)">
       <defs>
        <path id="DejaVuSans-36" d="M 2113 2584 
Q 1688 2584 1439 2293 
Q 1191 2003 1191 1497 
Q 1191 994 1439 701 
Q 1688 409 2113 409 
Q 2538 409 2786 701 
Q 3034 994 3034 1497 
Q 3034 2003 2786 2293 
Q 2538 2584 2113 2584 
z
M 3366 4563 
L 3366 3988 
Q 3128 4100 2886 4159 
Q 2644 4219 2406 4219 
Q 1781 4219 1451 3797 
Q 1122 3375 1075 2522 
Q 1259 2794 1537 2939 
Q 1816 3084 2150 3084 
Q 2853 3084 3261 2657 
Q 3669 2231 3669 1497 
Q 3669 778 3244 343 
Q 2819 -91 2113 -91 
Q 1303 -91 875 529 
Q 447 1150 447 2328 
Q 447 3434 972 4092 
Q 1497 4750 2381 4750 
Q 2619 4750 2861 4703 
Q 3103 4656 3366 4563 
z
" transform="scale(0.015625)"/>
       </defs>
       <use xlink:href="#DejaVuSans-36"/>
       <use xlink:href="#DejaVuSans-30" x="63.623047"/>
       <use xlink:href="#DejaVuSans-30" x="127.246094"/>
      </g>
     </g>
    </g>
    <g id="xtick_4">
     <g id="line2d_4">
      <g>
       <use xlink:href="#m3da2b64873" x="747.194082" y="689.220296" style="stroke: #000000; stroke-width: 0.8"/>
      </g>
     </g>
     <g id="text_4">
      <!-- 800 -->
      <g transform="translate(737.650332 703.818734) scale(0.1 -0.1)">
       <defs>
        <path id="DejaVuSans-38" d="M 2034 2216 
Q 1584 2216 1326 1975 
Q 1069 1734 1069 1313 
Q 1069 891 1326 650 
Q 1584 409 2034 409 
Q 2484 409 2743 651 
Q 3003 894 3003 1313 
Q 3003 1734 2745 1975 
Q 2488 2216 2034 2216 
z
M 1403 2484 
Q 997 2584 770 2862 
Q 544 3141 544 3541 
Q 544 4100 942 4425 
Q 1341 4750 2034 4750 
Q 2731 4750 3128 4425 
Q 3525 4100 3525 3541 
Q 3525 3141 3298 2862 
Q 3072 2584 2669 2484 
Q 3125 2378 3379 2068 
Q 3634 1759 3634 1313 
Q 3634 634 3220 271 
Q 2806 -91 2034 -91 
Q 1263 -91 848 271 
Q 434 634 434 1313 
Q 434 1759 690 2068 
Q 947 2378 1403 2484 
z
M 1172 3481 
Q 1172 3119 1398 2916 
Q 1625 2713 2034 2713 
Q 2441 2713 2670 2916 
Q 2900 3119 2900 3481 
Q 2900 3844 2670 4047 
Q 2441 4250 2034 4250 
Q 1625 4250 1398 4047 
Q 1172 3844 1172 3481 
z
" transform="scale(0.015625)"/>
       </defs>
       <use xlink:href="#DejaVuSans-38"/>
       <use xlink:href="#DejaVuSans-30" x="63.623047"/>
       <use xlink:href="#DejaVuSans-30" x="127.246094"/>
      </g>
     </g>
    </g>
    <g id="xtick_5">
     <g id="line2d_5">
      <g>
       <use xlink:href="#m3da2b64873" x="907.155865" y="689.220296" style="stroke: #000000; stroke-width: 0.8"/>
      </g>
     </g>
     <g id="text_5">
      <!-- 1000 -->
      <g transform="translate(894.430865 703.818734) scale(0.1 -0.1)">
       <defs>
        <path id="DejaVuSans-31" d="M 794 531 
L 1825 531 
L 1825 4091 
L 703 3866 
L 703 4441 
L 1819 4666 
L 2450 4666 
L 2450 531 
L 3481 531 
L 3481 0 
L 794 0 
L 794 531 
z
" transform="scale(0.015625)"/>
       </defs>
       <use xlink:href="#DejaVuSans-31"/>
       <use xlink:href="#DejaVuSans-30" x="63.623047"/>
       <use xlink:href="#DejaVuSans-30" x="127.246094"/>
       <use xlink:href="#DejaVuSans-30" x="190.869141"/>
      </g>
     </g>
    </g>
    <g id="xtick_6">
     <g id="line2d_6">
      <g>
       <use xlink:href="#m3da2b64873" x="1067.117648" y="689.220296" style="stroke: #000000; stroke-width: 0.8"/>
      </g>
     </g>
     <g id="text_6">
      <!-- 1200 -->
      <g transform="translate(1054.392648 703.818734) scale(0.1 -0.1)">
       <use xlink:href="#DejaVuSans-31"/>
       <use xlink:href="#DejaVuSans-32" x="63.623047"/>
       <use xlink:href="#DejaVuSans-30" x="127.246094"/>
       <use xlink:href="#DejaVuSans-30" x="190.869141"/>
      </g>
     </g>
    </g>
    <g id="xtick_7">
     <g id="line2d_7">
      <g>
       <use xlink:href="#m3da2b64873" x="1227.079431" y="689.220296" style="stroke: #000000; stroke-width: 0.8"/>
      </g>
     </g>
     <g id="text_7">
      <!-- 1400 -->
      <g transform="translate(1214.354431 703.818734) scale(0.1 -0.1)">
       <use xlink:href="#DejaVuSans-31"/>
       <use xlink:href="#DejaVuSans-34" x="63.623047"/>
       <use xlink:href="#DejaVuSans-30" x="127.246094"/>
       <use xlink:href="#DejaVuSans-30" x="190.869141"/>
      </g>
     </g>
    </g>
   </g>
   <g id="matplotlib.axis_2">
    <g id="ytick_1">
     <g id="line2d_8">
      <defs>
       <path id="m8cfa249afd" d="M 0 0 
L -3.5 0 
" style="stroke: #000000; stroke-width: 0.8"/>
      </defs>
      <g>
       <use xlink:href="#m8cfa249afd" x="180" y="669.495316" style="stroke: #000000; stroke-width: 0.8"/>
      </g>
     </g>
     <g id="text_8">
      <!-- 1050 -->
      <g transform="translate(147.55 673.294535) scale(0.1 -0.1)">
       <defs>
        <path id="DejaVuSans-35" d="M 691 4666 
L 3169 4666 
L 3169 4134 
L 1269 4134 
L 1269 2991 
Q 1406 3038 1543 3061 
Q 1681 3084 1819 3084 
Q 2600 3084 3056 2656 
Q 3513 2228 3513 1497 
Q 3513 744 3044 326 
Q 2575 -91 1722 -91 
Q 1428 -91 1123 -41 
Q 819 9 494 109 
L 494 744 
Q 775 591 1075 516 
Q 1375 441 1709 441 
Q 2250 441 2565 725 
Q 2881 1009 2881 1497 
Q 2881 1984 2565 2268 
Q 2250 2553 1709 2553 
Q 1456 2553 1204 2497 
Q 953 2441 691 2322 
L 691 4666 
z
" transform="scale(0.015625)"/>
       </defs>
       <use xlink:href="#DejaVuSans-31"/>
       <use xlink:href="#DejaVuSans-30" x="63.623047"/>
       <use xlink:href="#DejaVuSans-35" x="127.246094"/>
       <use xlink:href="#DejaVuSans-30" x="190.869141"/>
      </g>
     </g>
    </g>
    <g id="ytick_2">
     <g id="line2d_9">
      <g>
       <use xlink:href="#m8cfa249afd" x="180" y="629.504871" style="stroke: #000000; stroke-width: 0.8"/>
      </g>
     </g>
     <g id="text_9">
      <!-- 1100 -->
      <g transform="translate(147.55 633.304089) scale(0.1 -0.1)">
       <use xlink:href="#DejaVuSans-31"/>
       <use xlink:href="#DejaVuSans-31" x="63.623047"/>
       <use xlink:href="#DejaVuSans-30" x="127.246094"/>
       <use xlink:href="#DejaVuSans-30" x="190.869141"/>
      </g>
     </g>
    </g>
    <g id="ytick_3">
     <g id="line2d_10">
      <g>
       <use xlink:href="#m8cfa249afd" x="180" y="589.514425" style="stroke: #000000; stroke-width: 0.8"/>
      </g>
     </g>
     <g id="text_10">
      <!-- 1150 -->
      <g transform="translate(147.55 593.313644) scale(0.1 -0.1)">
       <use xlink:href="#DejaVuSans-31"/>
       <use xlink:href="#DejaVuSans-31" x="63.623047"/>
       <use xlink:href="#DejaVuSans-35" x="127.246094"/>
       <use xlink:href="#DejaVuSans-30" x="190.869141"/>
      </g>
     </g>
    </g>
    <g id="ytick_4">
     <g id="line2d_11">
      <g>
       <use xlink:href="#m8cfa249afd" x="180" y="549.523979" style="stroke: #000000; stroke-width: 0.8"/>
      </g>
     </g>
     <g id="text_11">
      <!-- 1200 -->
      <g transform="translate(147.55 553.323198) scale(0.1 -0.1)">
       <use xlink:href="#DejaVuSans-31"/>
       <use xlink:href="#DejaVuSans-32" x="63.623047"/>
       <use xlink:href="#DejaVuSans-30" x="127.246094"/>
       <use xlink:href="#DejaVuSans-30" x="190.869141"/>
      </g>
     </g>
    </g>
    <g id="ytick_5">
     <g id="line2d_12">
      <g>
       <use xlink:href="#m8cfa249afd" x="180" y="509.533534" style="stroke: #000000; stroke-width: 0.8"/>
      </g>
     </g>
     <g id="text_12">
      <!-- 1250 -->
      <g transform="translate(147.55 513.332752) scale(0.1 -0.1)">
       <use xlink:href="#DejaVuSans-31"/>
       <use xlink:href="#DejaVuSans-32" x="63.623047"/>
       <use xlink:href="#DejaVuSans-35" x="127.246094"/>
       <use xlink:href="#DejaVuSans-30" x="190.869141"/>
      </g>
     </g>
    </g>
    <g id="ytick_6">
     <g id="line2d_13">
      <g>
       <use xlink:href="#m8cfa249afd" x="180" y="469.543088" style="stroke: #000000; stroke-width: 0.8"/>
      </g>
     </g>
     <g id="text_13">
      <!-- 1300 -->
      <g transform="translate(147.55 473.342307) scale(0.1 -0.1)">
       <defs>
        <path id="DejaVuSans-33" d="M 2597 2516 
Q 3050 2419 3304 2112 
Q 3559 1806 3559 1356 
Q 3559 666 3084 287 
Q 2609 -91 1734 -91 
Q 1441 -91 1130 -33 
Q 819 25 488 141 
L 488 750 
Q 750 597 1062 519 
Q 1375 441 1716 441 
Q 2309 441 2620 675 
Q 2931 909 2931 1356 
Q 2931 1769 2642 2001 
Q 2353 2234 1838 2234 
L 1294 2234 
L 1294 2753 
L 1863 2753 
Q 2328 2753 2575 2939 
Q 2822 3125 2822 3475 
Q 2822 3834 2567 4026 
Q 2313 4219 1838 4219 
Q 1578 4219 1281 4162 
Q 984 4106 628 3988 
L 628 4550 
Q 988 4650 1302 4700 
Q 1616 4750 1894 4750 
Q 2613 4750 3031 4423 
Q 3450 4097 3450 3541 
Q 3450 3153 3228 2886 
Q 3006 2619 2597 2516 
z
" transform="scale(0.015625)"/>
       </defs>
       <use xlink:href="#DejaVuSans-31"/>
       <use xlink:href="#DejaVuSans-33" x="63.623047"/>
       <use xlink:href="#DejaVuSans-30" x="127.246094"/>
       <use xlink:href="#DejaVuSans-30" x="190.869141"/>
      </g>
     </g>
    </g>
    <g id="ytick_7">
     <g id="line2d_14">
      <g>
       <use xlink:href="#m8cfa249afd" x="180" y="429.552642" style="stroke: #000000; stroke-width: 0.8"/>
      </g>
     </g>
     <g id="text_14">
      <!-- 1350 -->
      <g transform="translate(147.55 433.351861) scale(0.1 -0.1)">
       <use xlink:href="#DejaVuSans-31"/>
       <use xlink:href="#DejaVuSans-33" x="63.623047"/>
       <use xlink:href="#DejaVuSans-35" x="127.246094"/>
       <use xlink:href="#DejaVuSans-30" x="190.869141"/>
      </g>
     </g>
    </g>
   </g>
   <g id="LineCollection_1">
    <path d="M 230.727273 595.836172 
L 248.885046 616.319902 
L 266.388705 633.327972 
L 283.347466 647.156829 
L 299.853046 658.055048 
L 314.050513 665.385305 
L 315.961234 666.225841 
L 329.530178 671.213468 
L 331.67374 671.843086 
L 344.666196 674.736634 
L 346.934307 675.081249 
L 359.398953 676.111149 
L 361.650461 676.145724 
L 373.632796 675.525344 
L 375.733846 675.283227 
L 389.135025 672.765552 
L 401.854592 668.860998 
L 413.932968 663.812148 
L 425.432476 657.827173 
L 436.422173 651.081293 
L 446.968666 643.722468 
L 457.131946 635.877465 
L 466.964258 627.656732 
L 476.510428 619.157895 
L 485.808748 610.468137 
L 494.891961 601.665803 
L 512.521555 583.998921 
L 537.984733 558.161907 
L 546.270358 549.924026 
L 554.473353 541.941047 
L 562.604347 534.244404 
L 570.672564 526.861243 
L 578.686042 519.814623 
L 586.651839 513.123715 
L 594.576253 506.803981 
L 602.465036 500.867356 
L 610.32363 495.322435 
L 618.157398 490.174684 
L 625.971852 485.426669 
L 633.772868 481.078335 
L 641.566853 477.127311 
L 649.360867 473.569262 
L 657.162661 470.398252 
L 664.980631 467.607116 
L 672.823677 465.187802 
L 680.700984 463.131656 
L 688.621743 461.429639 
L 696.594847 460.072431 
L 704.628592 459.050458 
L 712.730419 458.353821 
L 720.906725 457.97216 
L 729.162749 457.894485 
L 737.502537 458.108989 
L 745.928984 458.602872 
L 754.443921 459.362196 
L 763.048249 460.371773 
L 771.742094 461.615095 
L 780.524961 463.0743 
L 789.395892 464.730179 
L 798.353609 466.562202 
L 816.523432 470.666282 
L 835.022191 475.198245 
L 873.024308 484.72769 
L 892.500295 489.273414 
L 902.351759 491.388532 
L 912.278426 493.359063 
L 922.279828 495.155607 
L 932.355248 496.749206 
L 942.503581 498.111664 
L 952.723215 499.215929 
L 963.01193 500.036552 
L 973.366846 500.550214 
L 983.784455 500.736307 
L 994.260729 500.577566 
L 1004.791351 500.060699 
L 1015.372025 499.176998 
L 1025.998874 497.922901 
L 1036.668866 496.30047 
L 1047.380226 494.317789 
L 1058.132785 491.989301 
L 1068.928229 489.336088 
L 1079.770224 486.386146 
L 1090.664403 483.174676 
L 1101.618249 479.744406 
L 1123.742803 472.438193 
L 1146.334052 464.94146 
L 1157.8108 461.330131 
L 1169.425902 457.936259 
L 1181.196345 454.865534 
L 1193.142159 452.232729 
L 1205.288796 450.161555 
L 1217.670795 448.785181 
L 1230.336544 448.248287 
L 1244.077727 448.737425 
L 1244.077727 448.737425 
" clip-path="url(#p4c259f355a)" style="fill: none; stroke: #1f77b4; stroke-width: 1.5"/>
    <path d="M 243.314466 584.715571 
L 260.620255 604.303661 
L 277.05194 620.351046 
L 292.676936 633.19022 
L 307.558508 643.130872 
L 321.755975 650.461128 
L 335.324919 655.448755 
L 348.317375 658.342303 
L 360.782021 659.372203 
L 372.764355 658.751824 
L 384.306872 656.678473 
L 395.449222 653.334362 
L 406.228374 648.887523 
L 416.678764 643.49268 
L 426.83244 637.292087 
L 436.719199 630.416318 
L 446.366721 622.985021 
L 455.800692 615.10763 
L 465.044923 606.884046 
L 474.121466 598.405275 
L 483.05072 589.754036 
L 491.851532 581.00533 
L 500.541296 572.22698 
L 509.136047 563.480136 
L 517.650541 554.819751 
L 526.098345 546.295027 
L 534.491907 537.949831 
L 542.842635 529.823081 
L 551.160962 521.949112 
L 559.456412 514.358012 
L 567.737661 507.075928 
L 576.012592 500.125362 
L 584.288348 493.525432 
L 592.571386 487.292115 
L 600.867516 481.438475 
L 609.181953 475.974865 
L 617.51935 470.909113 
L 625.88384 466.246694 
L 634.279069 461.99088 
L 642.708231 458.142879 
L 651.174096 454.701961 
L 659.679039 451.665565 
L 668.225068 449.029404 
L 676.813845 446.787549 
L 685.446715 444.932513 
L 694.124723 443.455314 
L 702.848636 442.345545 
L 711.618962 441.591426 
L 720.435972 441.179858 
L 729.299714 441.096466 
L 738.21003 441.325644 
L 747.166578 441.850597 
L 756.168844 442.653379 
L 765.216162 443.714934 
L 774.30773 445.015134 
L 783.442626 446.532826 
L 792.619829 448.245875 
L 801.838234 450.131213 
L 811.096675 452.164897 
L 820.393942 454.322166 
L 829.728807 456.577517 
L 839.100041 458.904772 
L 848.506444 461.277176 
L 857.946869 463.667484 
L 867.42025 466.048077 
L 876.925632 468.391079 
L 886.462203 470.668494 
L 896.02933 472.852357 
L 905.626598 474.914898 
L 915.253844 476.828725 
L 924.911206 478.567025 
L 934.599166 480.103786 
L 944.318599 481.414033 
L 954.070829 482.474092 
L 963.857681 483.261872 
L 973.681542 483.757175 
L 983.545429 483.942021 
L 993.45305 483.80101 
L 1003.408883 483.321703 
L 1013.418249 482.495033 
L 1023.487392 481.315745 
L 1033.623572 479.782862 
L 1043.835147 477.900189 
L 1054.131675 475.676843 
L 1064.524017 473.127816 
L 1075.024436 470.274576 
L 1085.646721 467.145701 
L 1096.406293 463.777543 
L 1107.320341 460.214944 
L 1118.407945 456.511973 
L 1129.690216 452.732714 
L 1141.190437 448.952092 
L 1152.934217 445.256737 
L 1164.949645 441.745892 
L 1177.267454 438.532368 
L 1189.921195 435.743539 
L 1202.947412 433.522384 
L 1216.385827 432.02858 
L 1230.279541 431.439632 
L 1244.675227 431.952069 
" clip-path="url(#p4c259f355a)" style="fill: none; stroke: #8c564b; stroke-width: 1.5"/>
    <path d="M 255.901659 573.594971 
L 272.797947 592.719553 
L 288.271764 607.831474 
L 302.697785 619.685441 
L 316.102888 628.639834 
L 328.532243 635.057202 
L 340.068862 639.297794 
L 350.846293 641.698034 
L 361.040495 642.540337 
L 370.837752 642.033089 
L 380.395391 640.316276 
L 389.81848 637.488161 
L 399.16055 633.634176 
L 408.439031 628.844312 
L 417.652612 623.217812 
L 426.793718 616.860609 
L 435.855303 609.880647 
L 444.833608 602.383739 
L 453.728713 594.470734 
L 462.544111 586.235909 
L 471.285973 577.766228 
L 488.58281 560.432881 
L 514.256154 534.384204 
L 522.77787 525.912948 
L 531.296349 517.625193 
L 539.822106 509.558167 
L 548.365164 501.744947 
L 556.934958 494.214871 
L 565.540237 486.993913 
L 574.188953 480.105022 
L 582.888129 473.568422 
L 591.643723 467.40185 
L 600.460473 461.620737 
L 609.341758 456.23832 
L 618.289477 451.265678 
L 627.303966 446.711707 
L 636.383987 442.583023 
L 645.526782 438.883837 
L 654.728232 435.615808 
L 663.983083 432.777919 
L 673.285257 430.366397 
L 682.62819 428.374702 
L 692.005186 426.793599 
L 701.409738 425.611306 
L 710.835797 424.813708 
L 720.277959 424.384614 
L 729.731573 424.306032 
L 739.192775 424.558432 
L 748.658449 425.120997 
L 758.126151 425.971828 
L 767.593992 427.088115 
L 777.060519 428.446267 
L 786.524591 430.022021 
L 795.985262 431.79051 
L 805.441686 433.726326 
L 814.893036 435.803576 
L 833.776965 440.27667 
L 890.281875 454.312384 
L 899.662911 456.453768 
L 909.028738 458.466571 
L 918.37923 460.325381 
L 927.714907 462.005778 
L 937.037145 463.484526 
L 946.348403 464.739748 
L 955.652454 465.751091 
L 964.954609 466.499856 
L 974.261911 466.969115 
L 983.583274 467.143794 
L 992.929548 467.010773 
L 1002.313488 466.558999 
L 1011.749639 465.77967 
L 1021.254137 464.666512 
L 1030.844462 463.216178 
L 1040.539201 461.428793 
L 1050.357849 459.308636 
L 1060.32071 456.864952 
L 1070.448925 454.11285 
L 1080.764637 451.074278 
L 1091.291286 447.779034 
L 1113.080245 440.583355 
L 1136.149024 432.930565 
L 1148.223495 429.13488 
L 1160.709744 425.493864 
L 1173.652449 422.130023 
L 1187.09799 419.186525 
L 1201.091811 416.829214 
L 1215.674493 415.247662 
L 1230.877041 414.654276 
L 1245.272727 415.166713 
L 1245.272727 415.166713 
" clip-path="url(#p4c259f355a)" style="fill: none; stroke: #17becf; stroke-width: 1.5"/>
   </g>
   <g id="patch_3">
    <path d="M 180 689.220296 
L 180 401.579704 
" style="fill: none; stroke: #000000; stroke-width: 0.8; stroke-linejoin: miter; stroke-linecap: square"/>
   </g>
   <g id="patch_4">
    <path d="M 1296 689.220296 
L 1296 401.579704 
" style="fill: none; stroke: #000000; stroke-width: 0.8; stroke-linejoin: miter; stroke-linecap: square"/>
   </g>
   <g id="patch_5">
    <path d="M 180 689.220296 
L 1296 689.220296 
" style="fill: none; stroke: #000000; stroke-width: 0.8; stroke-linejoin: miter; stroke-linecap: square"/>
   </g>
   <g id="patch_6">
    <path d="M 180 401.579704 
L 1296 401.579704 
" style="fill: none; stroke: #000000; stroke-width: 0.8; stroke-linejoin: miter; stroke-linecap: square"/>
   </g>
  </g>
 </g>
 <defs>
  <clipPath id="p4c259f355a">
   <rect x="180" y="401.579704" width="1116" height="287.640592"/>
  </clipPath>
 </defs>
</svg>
