<?xml version="1.0" encoding="utf-8" standalone="no"?>
<!DOCTYPE svg PUBLIC "-//W3C//DTD SVG 1.1//EN"
  "http://www.w3.org/Graphics/SVG/1.1/DTD/svg11.dtd">
<svg xmlns:xlink="http://www.w3.org/1999/xlink" width="1440pt" height="1080pt" viewBox="0 0 1440 1080" xmlns="http://www.w3.org/2000/svg" version="1.1">
 <metadata>
  <rdf:RDF xmlns:dc="http://purl.org/dc/elements/1.1/" xmlns:cc="http://creativecommons.org/ns#" xmlns:rdf="http://www.w3.org/1999/02/22-rdf-syntax-ns#">
   <cc:Work>
    <dc:type rdf:resource="http://purl.org/dc/dcmitype/StillImage"/>
    <dc:date>2023-12-11T12:06:42.668688</dc:date>
    <dc:format>image/svg+xml</dc:format>
    <dc:creator>
     <cc:Agent>
      <dc:title>Matplotlib v3.7.1, https://matplotlib.org/</dc:title>
     </cc:Agent>
    </dc:creator>
   </cc:Work>
  </rdf:RDF>
 </metadata>
 <defs>
  <style type="text/css">*{stroke-linejoin: round; stroke-linecap: butt}</style>
 </defs>
 <g id="figure_1">
  <g id="patch_1">
   <path d="M 0 1080 
L 1440 1080 
L 1440 0 
L 0 0 
z
" style="fill: #ffffff"/>
  </g>
  <g id="axes_1">
   <g id="patch_2">
    <path d="M 180 814.880156 
L 1296 814.880156 
L 1296 275.919844 
L 180 275.919844 
z
" style="fill: #ffffff"/>
   </g>
   <g id="matplotlib.axis_1">
    <g id="xtick_1">
     <g id="line2d_1">
      <defs>
       <path id="mffb4af49c2" d="M 0 0 
L 0 3.5 
" style="stroke: #000000; stroke-width: 0.8"/>
      </defs>
      <g>
       <use xlink:href="#mffb4af49c2" x="263.227051" y="814.880156" style="stroke: #000000; stroke-width: 0.8"/>
      </g>
     </g>
     <g id="text_1">
      <!-- 1000 -->
      <g transform="translate(250.502051 829.478594) scale(0.1 -0.1)">
       <defs>
        <path id="DejaVuSans-31" d="M 794 531 
L 1825 531 
L 1825 4091 
L 703 3866 
L 703 4441 
L 1819 4666 
L 2450 4666 
L 2450 531 
L 3481 531 
L 3481 0 
L 794 0 
L 794 531 
z
" transform="scale(0.015625)"/>
        <path id="DejaVuSans-30" d="M 2034 4250 
Q 1547 4250 1301 3770 
Q 1056 3291 1056 2328 
Q 1056 1369 1301 889 
Q 1547 409 2034 409 
Q 2525 409 2770 889 
Q 3016 1369 3016 2328 
Q 3016 3291 2770 3770 
Q 2525 4250 2034 4250 
z
M 2034 4750 
Q 2819 4750 3233 4129 
Q 3647 3509 3647 2328 
Q 3647 1150 3233 529 
Q 2819 -91 2034 -91 
Q 1250 -91 836 529 
Q 422 1150 422 2328 
Q 422 3509 836 4129 
Q 1250 4750 2034 4750 
z
" transform="scale(0.015625)"/>
       </defs>
       <use xlink:href="#DejaVuSans-31"/>
       <use xlink:href="#DejaVuSans-30" x="63.623047"/>
       <use xlink:href="#DejaVuSans-30" x="127.246094"/>
       <use xlink:href="#DejaVuSans-30" x="190.869141"/>
      </g>
     </g>
    </g>
    <g id="xtick_2">
     <g id="line2d_2">
      <g>
       <use xlink:href="#mffb4af49c2" x="412.672315" y="814.880156" style="stroke: #000000; stroke-width: 0.8"/>
      </g>
     </g>
     <g id="text_2">
      <!-- 1100 -->
      <g transform="translate(399.947315 829.478594) scale(0.1 -0.1)">
       <use xlink:href="#DejaVuSans-31"/>
       <use xlink:href="#DejaVuSans-31" x="63.623047"/>
       <use xlink:href="#DejaVuSans-30" x="127.246094"/>
       <use xlink:href="#DejaVuSans-30" x="190.869141"/>
      </g>
     </g>
    </g>
    <g id="xtick_3">
     <g id="line2d_3">
      <g>
       <use xlink:href="#mffb4af49c2" x="562.117579" y="814.880156" style="stroke: #000000; stroke-width: 0.8"/>
      </g>
     </g>
     <g id="text_3">
      <!-- 1200 -->
      <g transform="translate(549.392579 829.478594) scale(0.1 -0.1)">
       <defs>
        <path id="DejaVuSans-32" d="M 1228 531 
L 3431 531 
L 3431 0 
L 469 0 
L 469 531 
Q 828 903 1448 1529 
Q 2069 2156 2228 2338 
Q 2531 2678 2651 2914 
Q 2772 3150 2772 3378 
Q 2772 3750 2511 3984 
Q 2250 4219 1831 4219 
Q 1534 4219 1204 4116 
Q 875 4013 500 3803 
L 500 4441 
Q 881 4594 1212 4672 
Q 1544 4750 1819 4750 
Q 2544 4750 2975 4387 
Q 3406 4025 3406 3419 
Q 3406 3131 3298 2873 
Q 3191 2616 2906 2266 
Q 2828 2175 2409 1742 
Q 1991 1309 1228 531 
z
" transform="scale(0.015625)"/>
       </defs>
       <use xlink:href="#DejaVuSans-31"/>
       <use xlink:href="#DejaVuSans-32" x="63.623047"/>
       <use xlink:href="#DejaVuSans-30" x="127.246094"/>
       <use xlink:href="#DejaVuSans-30" x="190.869141"/>
      </g>
     </g>
    </g>
    <g id="xtick_4">
     <g id="line2d_4">
      <g>
       <use xlink:href="#mffb4af49c2" x="711.562843" y="814.880156" style="stroke: #000000; stroke-width: 0.8"/>
      </g>
     </g>
     <g id="text_4">
      <!-- 1300 -->
      <g transform="translate(698.837843 829.478594) scale(0.1 -0.1)">
       <defs>
        <path id="DejaVuSans-33" d="M 2597 2516 
Q 3050 2419 3304 2112 
Q 3559 1806 3559 1356 
Q 3559 666 3084 287 
Q 2609 -91 1734 -91 
Q 1441 -91 1130 -33 
Q 819 25 488 141 
L 488 750 
Q 750 597 1062 519 
Q 1375 441 1716 441 
Q 2309 441 2620 675 
Q 2931 909 2931 1356 
Q 2931 1769 2642 2001 
Q 2353 2234 1838 2234 
L 1294 2234 
L 1294 2753 
L 1863 2753 
Q 2328 2753 2575 2939 
Q 2822 3125 2822 3475 
Q 2822 3834 2567 4026 
Q 2313 4219 1838 4219 
Q 1578 4219 1281 4162 
Q 984 4106 628 3988 
L 628 4550 
Q 988 4650 1302 4700 
Q 1616 4750 1894 4750 
Q 2613 4750 3031 4423 
Q 3450 4097 3450 3541 
Q 3450 3153 3228 2886 
Q 3006 2619 2597 2516 
z
" transform="scale(0.015625)"/>
       </defs>
       <use xlink:href="#DejaVuSans-31"/>
       <use xlink:href="#DejaVuSans-33" x="63.623047"/>
       <use xlink:href="#DejaVuSans-30" x="127.246094"/>
       <use xlink:href="#DejaVuSans-30" x="190.869141"/>
      </g>
     </g>
    </g>
    <g id="xtick_5">
     <g id="line2d_5">
      <g>
       <use xlink:href="#mffb4af49c2" x="861.008107" y="814.880156" style="stroke: #000000; stroke-width: 0.8"/>
      </g>
     </g>
     <g id="text_5">
      <!-- 1400 -->
      <g transform="translate(848.283107 829.478594) scale(0.1 -0.1)">
       <defs>
        <path id="DejaVuSans-34" d="M 2419 4116 
L 825 1625 
L 2419 1625 
L 2419 4116 
z
M 2253 4666 
L 3047 4666 
L 3047 1625 
L 3713 1625 
L 3713 1100 
L 3047 1100 
L 3047 0 
L 2419 0 
L 2419 1100 
L 313 1100 
L 313 1709 
L 2253 4666 
z
" transform="scale(0.015625)"/>
       </defs>
       <use xlink:href="#DejaVuSans-31"/>
       <use xlink:href="#DejaVuSans-34" x="63.623047"/>
       <use xlink:href="#DejaVuSans-30" x="127.246094"/>
       <use xlink:href="#DejaVuSans-30" x="190.869141"/>
      </g>
     </g>
    </g>
    <g id="xtick_6">
     <g id="line2d_6">
      <g>
       <use xlink:href="#mffb4af49c2" x="1010.453372" y="814.880156" style="stroke: #000000; stroke-width: 0.8"/>
      </g>
     </g>
     <g id="text_6">
      <!-- 1500 -->
      <g transform="translate(997.728372 829.478594) scale(0.1 -0.1)">
       <defs>
        <path id="DejaVuSans-35" d="M 691 4666 
L 3169 4666 
L 3169 4134 
L 1269 4134 
L 1269 2991 
Q 1406 3038 1543 3061 
Q 1681 3084 1819 3084 
Q 2600 3084 3056 2656 
Q 3513 2228 3513 1497 
Q 3513 744 3044 326 
Q 2575 -91 1722 -91 
Q 1428 -91 1123 -41 
Q 819 9 494 109 
L 494 744 
Q 775 591 1075 516 
Q 1375 441 1709 441 
Q 2250 441 2565 725 
Q 2881 1009 2881 1497 
Q 2881 1984 2565 2268 
Q 2250 2553 1709 2553 
Q 1456 2553 1204 2497 
Q 953 2441 691 2322 
L 691 4666 
z
" transform="scale(0.015625)"/>
       </defs>
       <use xlink:href="#DejaVuSans-31"/>
       <use xlink:href="#DejaVuSans-35" x="63.623047"/>
       <use xlink:href="#DejaVuSans-30" x="127.246094"/>
       <use xlink:href="#DejaVuSans-30" x="190.869141"/>
      </g>
     </g>
    </g>
    <g id="xtick_7">
     <g id="line2d_7">
      <g>
       <use xlink:href="#mffb4af49c2" x="1159.898636" y="814.880156" style="stroke: #000000; stroke-width: 0.8"/>
      </g>
     </g>
     <g id="text_7">
      <!-- 1600 -->
      <g transform="translate(1147.173636 829.478594) scale(0.1 -0.1)">
       <defs>
        <path id="DejaVuSans-36" d="M 2113 2584 
Q 1688 2584 1439 2293 
Q 1191 2003 1191 1497 
Q 1191 994 1439 701 
Q 1688 409 2113 409 
Q 2538 409 2786 701 
Q 3034 994 3034 1497 
Q 3034 2003 2786 2293 
Q 2538 2584 2113 2584 
z
M 3366 4563 
L 3366 3988 
Q 3128 4100 2886 4159 
Q 2644 4219 2406 4219 
Q 1781 4219 1451 3797 
Q 1122 3375 1075 2522 
Q 1259 2794 1537 2939 
Q 1816 3084 2150 3084 
Q 2853 3084 3261 2657 
Q 3669 2231 3669 1497 
Q 3669 778 3244 343 
Q 2819 -91 2113 -91 
Q 1303 -91 875 529 
Q 447 1150 447 2328 
Q 447 3434 972 4092 
Q 1497 4750 2381 4750 
Q 2619 4750 2861 4703 
Q 3103 4656 3366 4563 
z
" transform="scale(0.015625)"/>
       </defs>
       <use xlink:href="#DejaVuSans-31"/>
       <use xlink:href="#DejaVuSans-36" x="63.623047"/>
       <use xlink:href="#DejaVuSans-30" x="127.246094"/>
       <use xlink:href="#DejaVuSans-30" x="190.869141"/>
      </g>
     </g>
    </g>
   </g>
   <g id="matplotlib.axis_2">
    <g id="ytick_1">
     <g id="line2d_8">
      <defs>
       <path id="m7691891307" d="M 0 0 
L -3.5 0 
" style="stroke: #000000; stroke-width: 0.8"/>
      </defs>
      <g>
       <use xlink:href="#m7691891307" x="180" y="743.443602" style="stroke: #000000; stroke-width: 0.8"/>
      </g>
     </g>
     <g id="text_8">
      <!-- 1050 -->
      <g transform="translate(147.55 747.24282) scale(0.1 -0.1)">
       <use xlink:href="#DejaVuSans-31"/>
       <use xlink:href="#DejaVuSans-30" x="63.623047"/>
       <use xlink:href="#DejaVuSans-35" x="127.246094"/>
       <use xlink:href="#DejaVuSans-30" x="190.869141"/>
      </g>
     </g>
    </g>
    <g id="ytick_2">
     <g id="line2d_9">
      <g>
       <use xlink:href="#m7691891307" x="180" y="668.720969" style="stroke: #000000; stroke-width: 0.8"/>
      </g>
     </g>
     <g id="text_9">
      <!-- 1100 -->
      <g transform="translate(147.55 672.520188) scale(0.1 -0.1)">
       <use xlink:href="#DejaVuSans-31"/>
       <use xlink:href="#DejaVuSans-31" x="63.623047"/>
       <use xlink:href="#DejaVuSans-30" x="127.246094"/>
       <use xlink:href="#DejaVuSans-30" x="190.869141"/>
      </g>
     </g>
    </g>
    <g id="ytick_3">
     <g id="line2d_10">
      <g>
       <use xlink:href="#m7691891307" x="180" y="593.998337" style="stroke: #000000; stroke-width: 0.8"/>
      </g>
     </g>
     <g id="text_10">
      <!-- 1150 -->
      <g transform="translate(147.55 597.797556) scale(0.1 -0.1)">
       <use xlink:href="#DejaVuSans-31"/>
       <use xlink:href="#DejaVuSans-31" x="63.623047"/>
       <use xlink:href="#DejaVuSans-35" x="127.246094"/>
       <use xlink:href="#DejaVuSans-30" x="190.869141"/>
      </g>
     </g>
    </g>
    <g id="ytick_4">
     <g id="line2d_11">
      <g>
       <use xlink:href="#m7691891307" x="180" y="519.275705" style="stroke: #000000; stroke-width: 0.8"/>
      </g>
     </g>
     <g id="text_11">
      <!-- 1200 -->
      <g transform="translate(147.55 523.074924) scale(0.1 -0.1)">
       <use xlink:href="#DejaVuSans-31"/>
       <use xlink:href="#DejaVuSans-32" x="63.623047"/>
       <use xlink:href="#DejaVuSans-30" x="127.246094"/>
       <use xlink:href="#DejaVuSans-30" x="190.869141"/>
      </g>
     </g>
    </g>
    <g id="ytick_5">
     <g id="line2d_12">
      <g>
       <use xlink:href="#m7691891307" x="180" y="444.553073" style="stroke: #000000; stroke-width: 0.8"/>
      </g>
     </g>
     <g id="text_12">
      <!-- 1250 -->
      <g transform="translate(147.55 448.352292) scale(0.1 -0.1)">
       <use xlink:href="#DejaVuSans-31"/>
       <use xlink:href="#DejaVuSans-32" x="63.623047"/>
       <use xlink:href="#DejaVuSans-35" x="127.246094"/>
       <use xlink:href="#DejaVuSans-30" x="190.869141"/>
      </g>
     </g>
    </g>
    <g id="ytick_6">
     <g id="line2d_13">
      <g>
       <use xlink:href="#m7691891307" x="180" y="369.830441" style="stroke: #000000; stroke-width: 0.8"/>
      </g>
     </g>
     <g id="text_13">
      <!-- 1300 -->
      <g transform="translate(147.55 373.62966) scale(0.1 -0.1)">
       <use xlink:href="#DejaVuSans-31"/>
       <use xlink:href="#DejaVuSans-33" x="63.623047"/>
       <use xlink:href="#DejaVuSans-30" x="127.246094"/>
       <use xlink:href="#DejaVuSans-30" x="190.869141"/>
      </g>
     </g>
    </g>
    <g id="ytick_7">
     <g id="line2d_14">
      <g>
       <use xlink:href="#m7691891307" x="180" y="295.107809" style="stroke: #000000; stroke-width: 0.8"/>
      </g>
     </g>
     <g id="text_14">
      <!-- 1350 -->
      <g transform="translate(147.55 298.907028) scale(0.1 -0.1)">
       <use xlink:href="#DejaVuSans-31"/>
       <use xlink:href="#DejaVuSans-33" x="63.623047"/>
       <use xlink:href="#DejaVuSans-35" x="127.246094"/>
       <use xlink:href="#DejaVuSans-30" x="190.869141"/>
      </g>
     </g>
    </g>
   </g>
   <g id="LineCollection_1">
    <path d="M 230.727273 339.418057 
L 238.954456 382.094757 
L 247.161828 422.596621 
L 255.369973 460.911633 
L 263.599005 497.032589 
L 271.868807 530.957655 
L 280.199376 562.690921 
L 288.611345 592.242967 
L 297.126746 619.631401 
L 305.770131 644.881361 
L 314.570206 668.025849 
L 323.562171 689.105673 
L 332.790961 708.168458 
L 342.315375 725.265745 
L 352.212379 740.44637 
L 362.578937 753.743595 
L 371.718394 763.450415 
L 373.524848 765.154065 
L 382.784838 772.902234 
L 385.145258 774.612524 
L 395.965167 781.278393 
L 397.464143 781.981478 
L 408.643013 786.611649 
L 410.366904 787.090046 
L 421.775697 789.655383 
L 423.584865 789.832455 
L 435.055847 790.38196 
L 436.783388 790.260686 
L 448.178781 788.926564 
L 449.698888 788.581422 
L 459.663346 785.925047 
L 462.211148 785.06709 
L 472.281668 780.938049 
L 474.321652 779.969936 
L 486.094488 773.487891 
L 497.609451 765.769087 
L 508.93855 756.928593 
L 520.138533 747.063286 
L 531.25092 736.261554 
L 542.30455 724.60869 
L 553.318468 712.189526 
L 564.304397 699.0895 
L 575.268663 685.394893 
L 586.213631 671.192642 
L 597.138758 656.56996 
L 608.041365 641.613867 
L 618.917204 626.410702 
L 640.566175 595.602197 
L 672.707142 549.567049 
L 683.29963 534.580616 
L 693.817305 519.893915 
L 704.252663 505.571819 
L 714.598215 491.674883 
L 724.84652 478.259025 
L 734.990215 465.37522 
L 745.022032 453.069189 
L 754.934833 441.381089 
L 764.721658 430.3452 
L 774.375814 419.98959 
L 783.891026 410.335774 
L 793.261677 401.398366 
L 802.483168 393.184749 
L 811.55243 385.694795 
L 820.468593 378.920708 
L 829.233806 372.847069 
L 837.854117 367.451187 
L 846.340306 362.70383 
L 854.708456 358.57038 
L 862.98007 355.012338 
L 871.18155 351.988992 
L 879.343004 349.459003 
L 887.496517 347.381596 
L 895.67417 345.717185 
L 903.906161 344.427405 
L 912.219337 343.474688 
L 920.636297 342.821651 
L 929.175043 342.430557 
L 937.849063 342.26307 
L 946.667653 342.28039 
L 964.756985 342.715651 
L 993.013397 343.848189 
L 1032.354612 345.359491 
L 1052.427418 346.196758 
L 1062.468983 346.762423 
L 1072.468529 347.512806 
L 1082.388428 348.530751 
L 1092.190753 349.912434 
L 1101.842113 351.766907 
L 1111.321906 354.217661 
L 1120.63355 357.409064 
L 1129.815141 361.520756 
L 1138.941713 366.790068 
L 1148.110918 373.535149 
L 1157.41248 382.165183 
L 1166.895573 393.168799 
L 1176.552202 407.08746 
L 1186.322339 424.491304 
L 1196.111727 445.969589 
L 1206.036377 472.746682 
L 1206.036377 472.746682 
" clip-path="url(#p6d21baa959)" style="fill: none; stroke: #1f77b4; stroke-width: 1.5"/>
    <path d="M 251.271429 335.45803 
L 259.460141 377.940112 
L 267.620178 418.214828 
L 275.769919 456.26552 
L 283.926575 492.079398 
L 292.106161 525.647881 
L 300.323481 556.966885 
L 308.592111 586.037069 
L 316.924394 612.864028 
L 325.331435 637.458451 
L 333.823109 659.836226 
L 342.408065 680.018514 
L 351.093743 698.031776 
L 359.886389 713.907768 
L 368.791078 727.683497 
L 377.811742 739.401146 
L 386.951199 749.107966 
L 396.21119 756.856136 
L 405.592412 762.702593 
L 415.094563 766.708843 
L 424.716386 768.940738 
L 434.455715 769.468232 
L 444.309524 768.365118 
L 454.273982 765.708743 
L 464.344502 761.579703 
L 474.515805 756.061523 
L 484.781971 749.240327 
L 495.136503 741.204482 
L 505.572385 732.044248 
L 516.082146 721.851401 
L 526.657924 710.718863 
L 537.291525 698.740314 
L 547.974491 686.009807 
L 558.698163 672.621377 
L 569.453743 658.668651 
L 580.232364 644.244457 
L 591.025144 629.440436 
L 601.823258 614.346657 
L 612.617992 599.05124 
L 623.40081 583.639988 
L 634.16341 568.196022 
L 644.897781 552.799436 
L 655.596261 537.526953 
L 666.25159 522.451613 
L 676.856962 507.642454 
L 687.406072 493.164238 
L 697.893167 479.077169 
L 708.313085 465.436657 
L 718.661297 452.293088 
L 728.933946 439.691628 
L 739.127878 427.672051 
L 749.240671 416.268591 
L 759.270664 405.509836 
L 769.216977 395.418639 
L 779.079526 386.012076 
L 788.859037 377.301428 
L 798.557055 369.292208 
L 808.175943 361.984224 
L 817.718879 355.371681 
L 827.189851 349.443328 
L 836.593638 344.182646 
L 845.935793 339.568087 
L 855.222614 335.573352 
L 864.461112 332.167726 
L 873.65897 329.31646 
L 882.824496 326.981205 
L 891.96657 325.120504 
L 901.094584 323.690336 
L 910.21837 322.644721 
L 919.348124 321.936381 
L 928.494323 321.517464 
L 937.667631 321.340336 
L 946.878798 321.358428 
L 956.138548 321.527153 
L 965.457463 321.804901 
L 974.84585 322.154084 
L 984.313612 322.542274 
L 993.87009 322.943398 
L 1003.523914 323.339019 
L 1013.282836 323.719683 
L 1023.153545 324.08636 
L 1033.141491 324.451945 
L 1043.250676 324.842863 
L 1053.483451 325.30074 
L 1063.840294 325.884165 
L 1074.319578 326.670548 
L 1084.917327 327.758051 
L 1095.626964 329.267625 
L 1106.43904 331.345124 
L 1117.340956 334.163532 
L 1128.316672 337.925266 
L 1139.346403 342.86459 
L 1150.406299 349.250125 
L 1161.468117 357.387456 
L 1172.498874 367.621847 
L 1183.460495 380.341058 
L 1194.309436 395.978268 
L 1204.996302 415.015108 
L 1215.465445 437.9848 
L 1225.654552 465.47541 
" clip-path="url(#p6d21baa959)" style="fill: none; stroke: #8c564b; stroke-width: 1.5"/>
    <path d="M 271.815586 331.498004 
L 279.985523 373.882685 
L 288.102825 413.946478 
L 296.199922 451.751378 
L 304.29149 487.279473 
L 312.39019 520.516003 
L 320.506336 551.449399 
L 328.647441 580.07124 
L 336.817563 606.3761 
L 345.016369 630.361341 
L 353.237785 652.026913 
L 361.468036 671.375329 
L 369.682908 688.412184 
L 377.844076 703.147982 
L 385.894833 715.60266 
L 393.75671 725.815071 
L 401.331414 733.86 
L 408.517046 739.872478 
L 415.249895 744.068447 
L 421.569785 746.733008 
L 427.668217 748.147611 
L 433.853521 748.482615 
L 440.429499 747.746448 
L 447.583099 745.839405 
L 455.361185 742.650291 
L 463.716339 738.117417 
L 472.562383 732.239798 
L 481.809582 725.063322 
L 491.379525 716.663178 
L 501.208451 707.130636 
L 511.245832 696.564839 
L 521.451676 685.06815 
L 531.793957 672.743625 
L 542.246535 659.693653 
L 552.787615 646.019189 
L 563.398638 631.819279 
L 574.063496 617.190723 
L 584.767999 602.227794 
L 606.246668 571.661675 
L 638.510816 525.450872 
L 649.241284 510.269919 
L 659.947152 495.321638 
L 670.623587 480.670544 
L 681.266841 466.376403 
L 691.87431 452.494058 
L 702.444591 439.073307 
L 712.977528 426.158821 
L 723.474242 413.790125 
L 733.937121 402.001652 
L 744.369755 390.822865 
L 754.776787 380.278457 
L 765.163649 370.388614 
L 775.536151 361.169321 
L 785.899902 352.632657 
L 796.259559 344.787015 
L 806.617952 337.63715 
L 816.975168 331.183962 
L 827.327784 325.423964 
L 837.668441 320.348434 
L 847.985967 315.942379 
L 858.266172 312.18356 
L 868.493268 309.041852 
L 878.651692 306.479207 
L 888.72799 304.450337 
L 898.712409 302.904056 
L 908.599954 301.785073 
L 918.390838 301.035955 
L 928.090408 300.599027 
L 937.708724 300.41804 
L 947.25997 300.439563 
L 966.080769 300.89185 
L 985.170733 301.637501 
L 1023.924539 303.178232 
L 1054.66019 304.411521 
L 1065.405939 305.02049 
L 1076.455338 305.857506 
L 1087.837561 307.040512 
L 1099.574894 308.72114 
L 1111.6758 311.088754 
L 1124.12437 314.371375 
L 1136.867815 318.830184 
L 1149.807696 324.745386 
L 1160.867592 331.130921 
L 1162.804093 332.396671 
L 1173.86591 340.534002 
L 1175.698429 342.049842 
L 1186.729187 352.284233 
L 1188.347642 353.963123 
L 1199.309263 366.682334 
L 1200.650743 368.414635 
L 1212.553573 385.736409 
L 1224.034427 406.337898 
L 1235.08362 430.713528 
L 1245.272727 458.204138 
L 1245.272727 458.204138 
" clip-path="url(#p6d21baa959)" style="fill: none; stroke: #17becf; stroke-width: 1.5"/>
   </g>
   <g id="patch_3">
    <path d="M 180 814.880156 
L 180 275.919844 
" style="fill: none; stroke: #000000; stroke-width: 0.8; stroke-linejoin: miter; stroke-linecap: square"/>
   </g>
   <g id="patch_4">
    <path d="M 1296 814.880156 
L 1296 275.919844 
" style="fill: none; stroke: #000000; stroke-width: 0.8; stroke-linejoin: miter; stroke-linecap: square"/>
   </g>
   <g id="patch_5">
    <path d="M 180 814.880156 
L 1296 814.880156 
" style="fill: none; stroke: #000000; stroke-width: 0.8; stroke-linejoin: miter; stroke-linecap: square"/>
   </g>
   <g id="patch_6">
    <path d="M 180 275.919844 
L 1296 275.919844 
" style="fill: none; stroke: #000000; stroke-width: 0.8; stroke-linejoin: miter; stroke-linecap: square"/>
   </g>
  </g>
 </g>
 <defs>
  <clipPath id="p6d21baa959">
   <rect x="180" y="275.919844" width="1116" height="538.960313"/>
  </clipPath>
 </defs>
</svg>
