<?xml version="1.0" encoding="utf-8" standalone="no"?>
<!DOCTYPE svg PUBLIC "-//W3C//DTD SVG 1.1//EN"
  "http://www.w3.org/Graphics/SVG/1.1/DTD/svg11.dtd">
<svg xmlns:xlink="http://www.w3.org/1999/xlink" width="1440pt" height="1080pt" viewBox="0 0 1440 1080" xmlns="http://www.w3.org/2000/svg" version="1.1">
 <metadata>
  <rdf:RDF xmlns:dc="http://purl.org/dc/elements/1.1/" xmlns:cc="http://creativecommons.org/ns#" xmlns:rdf="http://www.w3.org/1999/02/22-rdf-syntax-ns#">
   <cc:Work>
    <dc:type rdf:resource="http://purl.org/dc/dcmitype/StillImage"/>
    <dc:date>2023-12-11T12:06:36.860811</dc:date>
    <dc:format>image/svg+xml</dc:format>
    <dc:creator>
     <cc:Agent>
      <dc:title>Matplotlib v3.7.1, https://matplotlib.org/</dc:title>
     </cc:Agent>
    </dc:creator>
   </cc:Work>
  </rdf:RDF>
 </metadata>
 <defs>
  <style type="text/css">*{stroke-linejoin: round; stroke-linecap: butt}</style>
 </defs>
 <g id="figure_1">
  <g id="patch_1">
   <path d="M 0 1080 
L 1440 1080 
L 1440 0 
L 0 0 
z
" style="fill: #ffffff"/>
  </g>
  <g id="axes_1">
   <g id="patch_2">
    <path d="M 618.756756 961.2 
L 857.243244 961.2 
L 857.243244 129.6 
L 618.756756 129.6 
z
" style="fill: #ffffff"/>
   </g>
   <g id="matplotlib.axis_1">
    <g id="xtick_1">
     <g id="line2d_1">
      <defs>
       <path id="m5342c42b92" d="M 0 0 
L 0 3.5 
" style="stroke: #000000; stroke-width: 0.8"/>
      </defs>
      <g>
       <use xlink:href="#m5342c42b92" x="655.620479" y="961.2" style="stroke: #000000; stroke-width: 0.8"/>
      </g>
     </g>
     <g id="text_1">
      <!-- 50 -->
      <g transform="translate(649.257979 975.798437) scale(0.1 -0.1)">
       <defs>
        <path id="DejaVuSans-35" d="M 691 4666 
L 3169 4666 
L 3169 4134 
L 1269 4134 
L 1269 2991 
Q 1406 3038 1543 3061 
Q 1681 3084 1819 3084 
Q 2600 3084 3056 2656 
Q 3513 2228 3513 1497 
Q 3513 744 3044 326 
Q 2575 -91 1722 -91 
Q 1428 -91 1123 -41 
Q 819 9 494 109 
L 494 744 
Q 775 591 1075 516 
Q 1375 441 1709 441 
Q 2250 441 2565 725 
Q 2881 1009 2881 1497 
Q 2881 1984 2565 2268 
Q 2250 2553 1709 2553 
Q 1456 2553 1204 2497 
Q 953 2441 691 2322 
L 691 4666 
z
" transform="scale(0.015625)"/>
        <path id="DejaVuSans-30" d="M 2034 4250 
Q 1547 4250 1301 3770 
Q 1056 3291 1056 2328 
Q 1056 1369 1301 889 
Q 1547 409 2034 409 
Q 2525 409 2770 889 
Q 3016 1369 3016 2328 
Q 3016 3291 2770 3770 
Q 2525 4250 2034 4250 
z
M 2034 4750 
Q 2819 4750 3233 4129 
Q 3647 3509 3647 2328 
Q 3647 1150 3233 529 
Q 2819 -91 2034 -91 
Q 1250 -91 836 529 
Q 422 1150 422 2328 
Q 422 3509 836 4129 
Q 1250 4750 2034 4750 
z
" transform="scale(0.015625)"/>
       </defs>
       <use xlink:href="#DejaVuSans-35"/>
       <use xlink:href="#DejaVuSans-30" x="63.623047"/>
      </g>
     </g>
    </g>
    <g id="xtick_2">
     <g id="line2d_2">
      <g>
       <use xlink:href="#m5342c42b92" x="713.11232" y="961.2" style="stroke: #000000; stroke-width: 0.8"/>
      </g>
     </g>
     <g id="text_2">
      <!-- 100 -->
      <g transform="translate(703.56857 975.798437) scale(0.1 -0.1)">
       <defs>
        <path id="DejaVuSans-31" d="M 794 531 
L 1825 531 
L 1825 4091 
L 703 3866 
L 703 4441 
L 1819 4666 
L 2450 4666 
L 2450 531 
L 3481 531 
L 3481 0 
L 794 0 
L 794 531 
z
" transform="scale(0.015625)"/>
       </defs>
       <use xlink:href="#DejaVuSans-31"/>
       <use xlink:href="#DejaVuSans-30" x="63.623047"/>
       <use xlink:href="#DejaVuSans-30" x="127.246094"/>
      </g>
     </g>
    </g>
    <g id="xtick_3">
     <g id="line2d_3">
      <g>
       <use xlink:href="#m5342c42b92" x="770.604161" y="961.2" style="stroke: #000000; stroke-width: 0.8"/>
      </g>
     </g>
     <g id="text_3">
      <!-- 150 -->
      <g transform="translate(761.060411 975.798437) scale(0.1 -0.1)">
       <use xlink:href="#DejaVuSans-31"/>
       <use xlink:href="#DejaVuSans-35" x="63.623047"/>
       <use xlink:href="#DejaVuSans-30" x="127.246094"/>
      </g>
     </g>
    </g>
    <g id="xtick_4">
     <g id="line2d_4">
      <g>
       <use xlink:href="#m5342c42b92" x="828.096001" y="961.2" style="stroke: #000000; stroke-width: 0.8"/>
      </g>
     </g>
     <g id="text_4">
      <!-- 200 -->
      <g transform="translate(818.552251 975.798437) scale(0.1 -0.1)">
       <defs>
        <path id="DejaVuSans-32" d="M 1228 531 
L 3431 531 
L 3431 0 
L 469 0 
L 469 531 
Q 828 903 1448 1529 
Q 2069 2156 2228 2338 
Q 2531 2678 2651 2914 
Q 2772 3150 2772 3378 
Q 2772 3750 2511 3984 
Q 2250 4219 1831 4219 
Q 1534 4219 1204 4116 
Q 875 4013 500 3803 
L 500 4441 
Q 881 4594 1212 4672 
Q 1544 4750 1819 4750 
Q 2544 4750 2975 4387 
Q 3406 4025 3406 3419 
Q 3406 3131 3298 2873 
Q 3191 2616 2906 2266 
Q 2828 2175 2409 1742 
Q 1991 1309 1228 531 
z
" transform="scale(0.015625)"/>
       </defs>
       <use xlink:href="#DejaVuSans-32"/>
       <use xlink:href="#DejaVuSans-30" x="63.623047"/>
       <use xlink:href="#DejaVuSans-30" x="127.246094"/>
      </g>
     </g>
    </g>
   </g>
   <g id="matplotlib.axis_2">
    <g id="ytick_1">
     <g id="line2d_5">
      <defs>
       <path id="m7e101ebbeb" d="M 0 0 
L -3.5 0 
" style="stroke: #000000; stroke-width: 0.8"/>
      </defs>
      <g>
       <use xlink:href="#m7e101ebbeb" x="618.756756" y="891.802159" style="stroke: #000000; stroke-width: 0.8"/>
      </g>
     </g>
     <g id="text_5">
      <!-- 800 -->
      <g transform="translate(592.669256 895.601377) scale(0.1 -0.1)">
       <defs>
        <path id="DejaVuSans-38" d="M 2034 2216 
Q 1584 2216 1326 1975 
Q 1069 1734 1069 1313 
Q 1069 891 1326 650 
Q 1584 409 2034 409 
Q 2484 409 2743 651 
Q 3003 894 3003 1313 
Q 3003 1734 2745 1975 
Q 2488 2216 2034 2216 
z
M 1403 2484 
Q 997 2584 770 2862 
Q 544 3141 544 3541 
Q 544 4100 942 4425 
Q 1341 4750 2034 4750 
Q 2731 4750 3128 4425 
Q 3525 4100 3525 3541 
Q 3525 3141 3298 2862 
Q 3072 2584 2669 2484 
Q 3125 2378 3379 2068 
Q 3634 1759 3634 1313 
Q 3634 634 3220 271 
Q 2806 -91 2034 -91 
Q 1263 -91 848 271 
Q 434 634 434 1313 
Q 434 1759 690 2068 
Q 947 2378 1403 2484 
z
M 1172 3481 
Q 1172 3119 1398 2916 
Q 1625 2713 2034 2713 
Q 2441 2713 2670 2916 
Q 2900 3119 2900 3481 
Q 2900 3844 2670 4047 
Q 2441 4250 2034 4250 
Q 1625 4250 1398 4047 
Q 1172 3844 1172 3481 
z
" transform="scale(0.015625)"/>
       </defs>
       <use xlink:href="#DejaVuSans-38"/>
       <use xlink:href="#DejaVuSans-30" x="63.623047"/>
       <use xlink:href="#DejaVuSans-30" x="127.246094"/>
      </g>
     </g>
    </g>
    <g id="ytick_2">
     <g id="line2d_6">
      <g>
       <use xlink:href="#m7e101ebbeb" x="618.756756" y="776.818477" style="stroke: #000000; stroke-width: 0.8"/>
      </g>
     </g>
     <g id="text_6">
      <!-- 900 -->
      <g transform="translate(592.669256 780.617696) scale(0.1 -0.1)">
       <defs>
        <path id="DejaVuSans-39" d="M 703 97 
L 703 672 
Q 941 559 1184 500 
Q 1428 441 1663 441 
Q 2288 441 2617 861 
Q 2947 1281 2994 2138 
Q 2813 1869 2534 1725 
Q 2256 1581 1919 1581 
Q 1219 1581 811 2004 
Q 403 2428 403 3163 
Q 403 3881 828 4315 
Q 1253 4750 1959 4750 
Q 2769 4750 3195 4129 
Q 3622 3509 3622 2328 
Q 3622 1225 3098 567 
Q 2575 -91 1691 -91 
Q 1453 -91 1209 -44 
Q 966 3 703 97 
z
M 1959 2075 
Q 2384 2075 2632 2365 
Q 2881 2656 2881 3163 
Q 2881 3666 2632 3958 
Q 2384 4250 1959 4250 
Q 1534 4250 1286 3958 
Q 1038 3666 1038 3163 
Q 1038 2656 1286 2365 
Q 1534 2075 1959 2075 
z
" transform="scale(0.015625)"/>
       </defs>
       <use xlink:href="#DejaVuSans-39"/>
       <use xlink:href="#DejaVuSans-30" x="63.623047"/>
       <use xlink:href="#DejaVuSans-30" x="127.246094"/>
      </g>
     </g>
    </g>
    <g id="ytick_3">
     <g id="line2d_7">
      <g>
       <use xlink:href="#m7e101ebbeb" x="618.756756" y="661.834795" style="stroke: #000000; stroke-width: 0.8"/>
      </g>
     </g>
     <g id="text_7">
      <!-- 1000 -->
      <g transform="translate(586.306756 665.634014) scale(0.1 -0.1)">
       <use xlink:href="#DejaVuSans-31"/>
       <use xlink:href="#DejaVuSans-30" x="63.623047"/>
       <use xlink:href="#DejaVuSans-30" x="127.246094"/>
       <use xlink:href="#DejaVuSans-30" x="190.869141"/>
      </g>
     </g>
    </g>
    <g id="ytick_4">
     <g id="line2d_8">
      <g>
       <use xlink:href="#m7e101ebbeb" x="618.756756" y="546.851114" style="stroke: #000000; stroke-width: 0.8"/>
      </g>
     </g>
     <g id="text_8">
      <!-- 1100 -->
      <g transform="translate(586.306756 550.650332) scale(0.1 -0.1)">
       <use xlink:href="#DejaVuSans-31"/>
       <use xlink:href="#DejaVuSans-31" x="63.623047"/>
       <use xlink:href="#DejaVuSans-30" x="127.246094"/>
       <use xlink:href="#DejaVuSans-30" x="190.869141"/>
      </g>
     </g>
    </g>
    <g id="ytick_5">
     <g id="line2d_9">
      <g>
       <use xlink:href="#m7e101ebbeb" x="618.756756" y="431.867432" style="stroke: #000000; stroke-width: 0.8"/>
      </g>
     </g>
     <g id="text_9">
      <!-- 1200 -->
      <g transform="translate(586.306756 435.666651) scale(0.1 -0.1)">
       <use xlink:href="#DejaVuSans-31"/>
       <use xlink:href="#DejaVuSans-32" x="63.623047"/>
       <use xlink:href="#DejaVuSans-30" x="127.246094"/>
       <use xlink:href="#DejaVuSans-30" x="190.869141"/>
      </g>
     </g>
    </g>
    <g id="ytick_6">
     <g id="line2d_10">
      <g>
       <use xlink:href="#m7e101ebbeb" x="618.756756" y="316.88375" style="stroke: #000000; stroke-width: 0.8"/>
      </g>
     </g>
     <g id="text_10">
      <!-- 1300 -->
      <g transform="translate(586.306756 320.682969) scale(0.1 -0.1)">
       <defs>
        <path id="DejaVuSans-33" d="M 2597 2516 
Q 3050 2419 3304 2112 
Q 3559 1806 3559 1356 
Q 3559 666 3084 287 
Q 2609 -91 1734 -91 
Q 1441 -91 1130 -33 
Q 819 25 488 141 
L 488 750 
Q 750 597 1062 519 
Q 1375 441 1716 441 
Q 2309 441 2620 675 
Q 2931 909 2931 1356 
Q 2931 1769 2642 2001 
Q 2353 2234 1838 2234 
L 1294 2234 
L 1294 2753 
L 1863 2753 
Q 2328 2753 2575 2939 
Q 2822 3125 2822 3475 
Q 2822 3834 2567 4026 
Q 2313 4219 1838 4219 
Q 1578 4219 1281 4162 
Q 984 4106 628 3988 
L 628 4550 
Q 988 4650 1302 4700 
Q 1616 4750 1894 4750 
Q 2613 4750 3031 4423 
Q 3450 4097 3450 3541 
Q 3450 3153 3228 2886 
Q 3006 2619 2597 2516 
z
" transform="scale(0.015625)"/>
       </defs>
       <use xlink:href="#DejaVuSans-31"/>
       <use xlink:href="#DejaVuSans-33" x="63.623047"/>
       <use xlink:href="#DejaVuSans-30" x="127.246094"/>
       <use xlink:href="#DejaVuSans-30" x="190.869141"/>
      </g>
     </g>
    </g>
    <g id="ytick_7">
     <g id="line2d_11">
      <g>
       <use xlink:href="#m7e101ebbeb" x="618.756756" y="201.900069" style="stroke: #000000; stroke-width: 0.8"/>
      </g>
     </g>
     <g id="text_11">
      <!-- 1400 -->
      <g transform="translate(586.306756 205.699287) scale(0.1 -0.1)">
       <defs>
        <path id="DejaVuSans-34" d="M 2419 4116 
L 825 1625 
L 2419 1625 
L 2419 4116 
z
M 2253 4666 
L 3047 4666 
L 3047 1625 
L 3713 1625 
L 3713 1100 
L 3047 1100 
L 3047 0 
L 2419 0 
L 2419 1100 
L 313 1100 
L 313 1709 
L 2253 4666 
z
" transform="scale(0.015625)"/>
       </defs>
       <use xlink:href="#DejaVuSans-31"/>
       <use xlink:href="#DejaVuSans-34" x="63.623047"/>
       <use xlink:href="#DejaVuSans-30" x="127.246094"/>
       <use xlink:href="#DejaVuSans-30" x="190.869141"/>
      </g>
     </g>
    </g>
   </g>
   <g id="LineCollection_1">
    <path d="M 654.047823 923.4 
L 660.788903 913.808979 
L 667.021396 904.416618 
L 672.837564 895.233216 
L 678.318587 886.264255 
L 688.548041 868.971803 
L 702.865975 844.537905 
L 712.133129 829.185004 
L 721.377017 814.483514 
L 730.679876 800.331383 
L 740.058038 786.624495 
L 749.47449 773.260055 
L 772.626736 740.63665 
L 781.389486 727.656608 
L 785.587819 721.136773 
L 789.637321 714.582472 
L 793.51756 707.983436 
L 797.208015 701.330165 
L 800.688251 694.61415 
L 803.938105 687.828131 
L 806.937942 680.966342 
L 809.668955 674.024749 
L 812.113541 667.001216 
L 814.255722 659.895582 
L 816.081588 652.709612 
L 817.57973 645.446803 
L 818.7416 638.112058 
L 819.561753 630.711258 
L 820.037953 623.25078 
L 820.171124 615.737029 
L 819.965162 608.176041 
L 819.426662 600.573196 
L 818.564578 592.933054 
L 817.389895 585.259322 
L 815.915313 577.55492 
L 814.154997 569.822113 
L 812.124368 562.062689 
L 809.839966 554.278147 
L 807.319344 546.469867 
L 804.581006 538.639272 
L 801.644361 530.787954 
L 798.52969 522.91777 
L 795.258121 515.030914 
L 788.332803 499.217923 
L 781.052877 483.374641 
L 762.576255 443.807074 
L 755.623114 428.116599 
L 752.346465 420.327264 
L 749.23763 412.584039 
L 746.321908 404.893743 
L 743.623884 397.26324 
L 741.16723 389.699304 
L 738.974501 382.208432 
L 737.066937 374.796596 
L 735.464301 367.468913 
L 734.184778 360.229243 
L 733.244978 353.079703 
L 732.660082 346.020157 
L 732.444178 339.047712 
L 732.610794 332.156336 
L 733.173609 325.336687 
L 734.147258 318.576275 
L 735.548102 311.860004 
L 737.394787 305.171074 
L 739.708462 298.492139 
L 742.51257 291.806511 
L 745.832258 285.099197 
L 749.693521 278.357605 
L 754.12227 271.571832 
L 759.143506 264.734552 
L 764.780701 257.840626 
L 771.055456 250.886532 
L 777.987418 243.869773 
L 785.594399 236.788321 
L 793.892649 229.640168 
L 802.897207 222.422994 
L 812.622294 215.133943 
L 823.081723 207.769496 
L 834.289291 200.32542 
L 846.402949 192.706338 
L 846.402949 192.706338 
" clip-path="url(#pc96413ccd6)" style="fill: none; stroke: #1f77b4; stroke-width: 1.5"/>
    <path d="M 641.822437 914.798895 
L 648.336259 905.540319 
L 654.394579 896.416458 
L 660.083495 887.437525 
L 665.478323 878.611367 
L 670.644345 869.943647 
L 675.637533 861.438024 
L 680.505238 853.09632 
L 685.286859 844.918686 
L 690.014476 836.903759 
L 694.713461 829.048805 
L 699.403067 821.349867 
L 704.096985 813.8019 
L 708.803875 806.398899 
L 713.527881 799.134021 
L 718.269109 791.999706 
L 723.024097 784.987783 
L 727.786243 778.089577 
L 732.54623 771.296008 
L 737.292413 764.597683 
L 742.011191 757.984986 
L 746.687361 751.448157 
L 751.304445 744.977371 
L 755.844997 738.562808 
L 760.290898 732.19472 
L 764.623621 725.863495 
L 768.824484 719.559707 
L 772.874886 713.274177 
L 776.756519 706.998013 
L 780.451568 700.722656 
L 783.94289 694.439917 
L 787.214182 688.142015 
L 790.250129 681.821602 
L 793.036539 675.471793 
L 795.560458 669.086187 
L 797.810281 662.658886 
L 799.775838 656.184511 
L 801.448474 649.65821 
L 802.821112 643.075672 
L 803.888309 636.433127 
L 804.646291 629.727353 
L 805.092988 622.95567 
L 805.228048 616.115938 
L 805.052848 609.206553 
L 804.570488 602.226434 
L 803.785786 595.175014 
L 802.705251 588.052226 
L 801.337058 580.858486 
L 799.691012 573.594674 
L 797.778502 566.262116 
L 795.61245 558.862562 
L 793.207257 551.39816 
L 790.578736 543.871433 
L 787.744043 536.285249 
L 784.721608 528.642797 
L 781.531052 520.947557 
L 778.193107 513.203267 
L 774.72953 505.413894 
L 771.163015 497.5836 
L 767.517101 489.716711 
L 763.816081 481.817682 
L 760.084903 473.891066 
L 756.34908 465.941475 
L 752.634591 457.973549 
L 748.967785 449.991922 
L 745.375286 442.001182 
L 741.883898 434.005846 
L 738.520511 426.010317 
L 735.312012 418.018855 
L 732.285194 410.035543 
L 729.466674 402.064255 
L 726.882803 394.108624 
L 724.559596 386.17201 
L 722.522653 378.257472 
L 720.797092 370.36774 
L 719.407482 362.505186 
L 718.377791 354.671799 
L 717.731329 346.869161 
L 717.490705 339.098425 
L 717.677794 331.360293 
L 718.313699 323.654996 
L 719.41874 315.982282 
L 721.012436 308.341395 
L 723.113501 300.731069 
L 725.739856 293.149512 
L 728.908645 285.594403 
L 732.63626 278.062885 
L 736.938386 270.551567 
L 741.830046 263.056517 
L 747.325671 255.573274 
L 753.439175 248.096853 
L 760.18404 240.621753 
L 767.573427 233.141973 
L 775.620289 225.651029 
L 784.337506 218.141976 
L 793.738031 210.607433 
L 803.835058 203.03961 
L 814.642195 195.430342 
L 826.173669 187.771128 
L 838.444533 180.053169 
" clip-path="url(#pc96413ccd6)" style="fill: none; stroke: #8c564b; stroke-width: 1.5"/>
    <path d="M 629.597051 906.19779 
L 635.995005 897.103905 
L 641.853412 888.281115 
L 647.392229 879.539087 
L 652.680758 870.886838 
L 662.736863 853.887382 
L 677.186709 829.229941 
L 686.709515 813.456021 
L 696.272368 798.250254 
L 705.897559 783.610201 
L 715.544265 769.512104 
L 725.124842 755.914982 
L 747.994509 723.695146 
L 756.321793 711.366111 
L 760.234833 705.293744 
L 763.95814 699.273574 
L 767.476152 693.298881 
L 770.774724 687.363002 
L 773.841315 681.45919 
L 776.665116 675.580437 
L 779.237099 669.719275 
L 781.54999 663.867577 
L 783.598147 658.016398 
L 785.377344 652.155873 
L 786.884502 646.275237 
L 788.117374 640.362952 
L 789.074264 634.40699 
L 789.753801 628.39521 
L 790.15483 622.315823 
L 790.276428 616.15786 
L 790.118042 609.911599 
L 789.679731 603.568896 
L 788.962456 597.123382 
L 787.968382 590.570538 
L 786.701153 583.907649 
L 785.166105 577.13366 
L 783.370414 570.248985 
L 781.323165 563.255281 
L 779.03537 556.155215 
L 776.519915 548.952253 
L 773.79149 541.65046 
L 770.866473 534.254337 
L 767.76281 526.768675 
L 761.098377 511.548654 
L 753.968063 496.030474 
L 735.334366 456.121273 
L 728.105462 439.801861 
L 724.648896 431.579643 
L 721.335007 423.318139 
L 718.192335 415.018554 
L 715.249834 406.681673 
L 712.536909 398.307956 
L 710.083465 389.897692 
L 707.919948 381.451226 
L 706.07734 372.969274 
L 704.587095 364.453311 
L 703.480954 355.906028 
L 702.790611 347.331805 
L 702.547194 338.737129 
L 702.780561 330.130848 
L 703.518477 321.524156 
L 704.785765 312.930214 
L 706.603599 304.363392 
L 708.989099 295.838182 
L 711.955343 287.367966 
L 715.511827 278.963842 
L 719.66527 270.633721 
L 724.420624 262.381823 
L 729.782081 254.208601 
L 735.753945 246.111022 
L 742.341266 238.083088 
L 749.550234 230.116457 
L 757.388366 222.201058 
L 765.864542 214.325637 
L 774.988959 206.478197 
L 784.773055 198.646318 
L 795.229442 190.817399 
L 806.371873 182.978803 
L 818.215253 175.117959 
L 830.486117 167.4 
L 830.486117 167.4 
" clip-path="url(#pc96413ccd6)" style="fill: none; stroke: #17becf; stroke-width: 1.5"/>
   </g>
   <g id="patch_3">
    <path d="M 618.756756 961.2 
L 618.756756 129.6 
" style="fill: none; stroke: #000000; stroke-width: 0.8; stroke-linejoin: miter; stroke-linecap: square"/>
   </g>
   <g id="patch_4">
    <path d="M 857.243244 961.2 
L 857.243244 129.6 
" style="fill: none; stroke: #000000; stroke-width: 0.8; stroke-linejoin: miter; stroke-linecap: square"/>
   </g>
   <g id="patch_5">
    <path d="M 618.756756 961.2 
L 857.243244 961.2 
" style="fill: none; stroke: #000000; stroke-width: 0.8; stroke-linejoin: miter; stroke-linecap: square"/>
   </g>
   <g id="patch_6">
    <path d="M 618.756756 129.6 
L 857.243244 129.6 
" style="fill: none; stroke: #000000; stroke-width: 0.8; stroke-linejoin: miter; stroke-linecap: square"/>
   </g>
  </g>
 </g>
 <defs>
  <clipPath id="pc96413ccd6">
   <rect x="618.756756" y="129.6" width="238.486488" height="831.6"/>
  </clipPath>
 </defs>
</svg>
