<?xml version="1.0" encoding="utf-8" standalone="no"?>
<!DOCTYPE svg PUBLIC "-//W3C//DTD SVG 1.1//EN"
  "http://www.w3.org/Graphics/SVG/1.1/DTD/svg11.dtd">
<svg xmlns:xlink="http://www.w3.org/1999/xlink" width="1440pt" height="1080pt" viewBox="0 0 1440 1080" xmlns="http://www.w3.org/2000/svg" version="1.1">
 <metadata>
  <rdf:RDF xmlns:dc="http://purl.org/dc/elements/1.1/" xmlns:cc="http://creativecommons.org/ns#" xmlns:rdf="http://www.w3.org/1999/02/22-rdf-syntax-ns#">
   <cc:Work>
    <dc:type rdf:resource="http://purl.org/dc/dcmitype/StillImage"/>
    <dc:date>2023-12-11T12:07:01.992448</dc:date>
    <dc:format>image/svg+xml</dc:format>
    <dc:creator>
     <cc:Agent>
      <dc:title>Matplotlib v3.7.1, https://matplotlib.org/</dc:title>
     </cc:Agent>
    </dc:creator>
   </cc:Work>
  </rdf:RDF>
 </metadata>
 <defs>
  <style type="text/css">*{stroke-linejoin: round; stroke-linecap: butt}</style>
 </defs>
 <g id="figure_1">
  <g id="patch_1">
   <path d="M 0 1080 
L 1440 1080 
L 1440 0 
L 0 0 
z
" style="fill: #ffffff"/>
  </g>
  <g id="axes_1">
   <g id="patch_2">
    <path d="M 180 936.82882 
L 1296 936.82882 
L 1296 153.97118 
L 180 153.97118 
z
" style="fill: #ffffff"/>
   </g>
   <g id="matplotlib.axis_1">
    <g id="xtick_1">
     <g id="line2d_1">
      <defs>
       <path id="m9b6e1a0889" d="M 0 0 
L 0 3.5 
" style="stroke: #000000; stroke-width: 0.8"/>
      </defs>
      <g>
       <use xlink:href="#m9b6e1a0889" x="202.781492" y="936.82882" style="stroke: #000000; stroke-width: 0.8"/>
      </g>
     </g>
     <g id="text_1">
      <!-- 0 -->
      <g transform="translate(199.600242 951.427257) scale(0.1 -0.1)">
       <defs>
        <path id="DejaVuSans-30" d="M 2034 4250 
Q 1547 4250 1301 3770 
Q 1056 3291 1056 2328 
Q 1056 1369 1301 889 
Q 1547 409 2034 409 
Q 2525 409 2770 889 
Q 3016 1369 3016 2328 
Q 3016 3291 2770 3770 
Q 2525 4250 2034 4250 
z
M 2034 4750 
Q 2819 4750 3233 4129 
Q 3647 3509 3647 2328 
Q 3647 1150 3233 529 
Q 2819 -91 2034 -91 
Q 1250 -91 836 529 
Q 422 1150 422 2328 
Q 422 3509 836 4129 
Q 1250 4750 2034 4750 
z
" transform="scale(0.015625)"/>
       </defs>
       <use xlink:href="#DejaVuSans-30"/>
      </g>
     </g>
    </g>
    <g id="xtick_2">
     <g id="line2d_2">
      <g>
       <use xlink:href="#m9b6e1a0889" x="417.748964" y="936.82882" style="stroke: #000000; stroke-width: 0.8"/>
      </g>
     </g>
     <g id="text_2">
      <!-- 200 -->
      <g transform="translate(408.205214 951.427257) scale(0.1 -0.1)">
       <defs>
        <path id="DejaVuSans-32" d="M 1228 531 
L 3431 531 
L 3431 0 
L 469 0 
L 469 531 
Q 828 903 1448 1529 
Q 2069 2156 2228 2338 
Q 2531 2678 2651 2914 
Q 2772 3150 2772 3378 
Q 2772 3750 2511 3984 
Q 2250 4219 1831 4219 
Q 1534 4219 1204 4116 
Q 875 4013 500 3803 
L 500 4441 
Q 881 4594 1212 4672 
Q 1544 4750 1819 4750 
Q 2544 4750 2975 4387 
Q 3406 4025 3406 3419 
Q 3406 3131 3298 2873 
Q 3191 2616 2906 2266 
Q 2828 2175 2409 1742 
Q 1991 1309 1228 531 
z
" transform="scale(0.015625)"/>
       </defs>
       <use xlink:href="#DejaVuSans-32"/>
       <use xlink:href="#DejaVuSans-30" x="63.623047"/>
       <use xlink:href="#DejaVuSans-30" x="127.246094"/>
      </g>
     </g>
    </g>
    <g id="xtick_3">
     <g id="line2d_3">
      <g>
       <use xlink:href="#m9b6e1a0889" x="632.716435" y="936.82882" style="stroke: #000000; stroke-width: 0.8"/>
      </g>
     </g>
     <g id="text_3">
      <!-- 400 -->
      <g transform="translate(623.172685 951.427257) scale(0.1 -0.1)">
       <defs>
        <path id="DejaVuSans-34" d="M 2419 4116 
L 825 1625 
L 2419 1625 
L 2419 4116 
z
M 2253 4666 
L 3047 4666 
L 3047 1625 
L 3713 1625 
L 3713 1100 
L 3047 1100 
L 3047 0 
L 2419 0 
L 2419 1100 
L 313 1100 
L 313 1709 
L 2253 4666 
z
" transform="scale(0.015625)"/>
       </defs>
       <use xlink:href="#DejaVuSans-34"/>
       <use xlink:href="#DejaVuSans-30" x="63.623047"/>
       <use xlink:href="#DejaVuSans-30" x="127.246094"/>
      </g>
     </g>
    </g>
    <g id="xtick_4">
     <g id="line2d_4">
      <g>
       <use xlink:href="#m9b6e1a0889" x="847.683906" y="936.82882" style="stroke: #000000; stroke-width: 0.8"/>
      </g>
     </g>
     <g id="text_4">
      <!-- 600 -->
      <g transform="translate(838.140156 951.427257) scale(0.1 -0.1)">
       <defs>
        <path id="DejaVuSans-36" d="M 2113 2584 
Q 1688 2584 1439 2293 
Q 1191 2003 1191 1497 
Q 1191 994 1439 701 
Q 1688 409 2113 409 
Q 2538 409 2786 701 
Q 3034 994 3034 1497 
Q 3034 2003 2786 2293 
Q 2538 2584 2113 2584 
z
M 3366 4563 
L 3366 3988 
Q 3128 4100 2886 4159 
Q 2644 4219 2406 4219 
Q 1781 4219 1451 3797 
Q 1122 3375 1075 2522 
Q 1259 2794 1537 2939 
Q 1816 3084 2150 3084 
Q 2853 3084 3261 2657 
Q 3669 2231 3669 1497 
Q 3669 778 3244 343 
Q 2819 -91 2113 -91 
Q 1303 -91 875 529 
Q 447 1150 447 2328 
Q 447 3434 972 4092 
Q 1497 4750 2381 4750 
Q 2619 4750 2861 4703 
Q 3103 4656 3366 4563 
z
" transform="scale(0.015625)"/>
       </defs>
       <use xlink:href="#DejaVuSans-36"/>
       <use xlink:href="#DejaVuSans-30" x="63.623047"/>
       <use xlink:href="#DejaVuSans-30" x="127.246094"/>
      </g>
     </g>
    </g>
    <g id="xtick_5">
     <g id="line2d_5">
      <g>
       <use xlink:href="#m9b6e1a0889" x="1062.651378" y="936.82882" style="stroke: #000000; stroke-width: 0.8"/>
      </g>
     </g>
     <g id="text_5">
      <!-- 800 -->
      <g transform="translate(1053.107628 951.427257) scale(0.1 -0.1)">
       <defs>
        <path id="DejaVuSans-38" d="M 2034 2216 
Q 1584 2216 1326 1975 
Q 1069 1734 1069 1313 
Q 1069 891 1326 650 
Q 1584 409 2034 409 
Q 2484 409 2743 651 
Q 3003 894 3003 1313 
Q 3003 1734 2745 1975 
Q 2488 2216 2034 2216 
z
M 1403 2484 
Q 997 2584 770 2862 
Q 544 3141 544 3541 
Q 544 4100 942 4425 
Q 1341 4750 2034 4750 
Q 2731 4750 3128 4425 
Q 3525 4100 3525 3541 
Q 3525 3141 3298 2862 
Q 3072 2584 2669 2484 
Q 3125 2378 3379 2068 
Q 3634 1759 3634 1313 
Q 3634 634 3220 271 
Q 2806 -91 2034 -91 
Q 1263 -91 848 271 
Q 434 634 434 1313 
Q 434 1759 690 2068 
Q 947 2378 1403 2484 
z
M 1172 3481 
Q 1172 3119 1398 2916 
Q 1625 2713 2034 2713 
Q 2441 2713 2670 2916 
Q 2900 3119 2900 3481 
Q 2900 3844 2670 4047 
Q 2441 4250 2034 4250 
Q 1625 4250 1398 4047 
Q 1172 3844 1172 3481 
z
" transform="scale(0.015625)"/>
       </defs>
       <use xlink:href="#DejaVuSans-38"/>
       <use xlink:href="#DejaVuSans-30" x="63.623047"/>
       <use xlink:href="#DejaVuSans-30" x="127.246094"/>
      </g>
     </g>
    </g>
    <g id="xtick_6">
     <g id="line2d_6">
      <g>
       <use xlink:href="#m9b6e1a0889" x="1277.618849" y="936.82882" style="stroke: #000000; stroke-width: 0.8"/>
      </g>
     </g>
     <g id="text_6">
      <!-- 1000 -->
      <g transform="translate(1264.893849 951.427257) scale(0.1 -0.1)">
       <defs>
        <path id="DejaVuSans-31" d="M 794 531 
L 1825 531 
L 1825 4091 
L 703 3866 
L 703 4441 
L 1819 4666 
L 2450 4666 
L 2450 531 
L 3481 531 
L 3481 0 
L 794 0 
L 794 531 
z
" transform="scale(0.015625)"/>
       </defs>
       <use xlink:href="#DejaVuSans-31"/>
       <use xlink:href="#DejaVuSans-30" x="63.623047"/>
       <use xlink:href="#DejaVuSans-30" x="127.246094"/>
       <use xlink:href="#DejaVuSans-30" x="190.869141"/>
      </g>
     </g>
    </g>
   </g>
   <g id="matplotlib.axis_2">
    <g id="ytick_1">
     <g id="line2d_7">
      <defs>
       <path id="md783c0d2e5" d="M 0 0 
L -3.5 0 
" style="stroke: #000000; stroke-width: 0.8"/>
      </defs>
      <g>
       <use xlink:href="#md783c0d2e5" x="180" y="846.413759" style="stroke: #000000; stroke-width: 0.8"/>
      </g>
     </g>
     <g id="text_7">
      <!-- 800 -->
      <g transform="translate(153.9125 850.212977) scale(0.1 -0.1)">
       <use xlink:href="#DejaVuSans-38"/>
       <use xlink:href="#DejaVuSans-30" x="63.623047"/>
       <use xlink:href="#DejaVuSans-30" x="127.246094"/>
      </g>
     </g>
    </g>
    <g id="ytick_2">
     <g id="line2d_8">
      <g>
       <use xlink:href="#md783c0d2e5" x="180" y="738.930023" style="stroke: #000000; stroke-width: 0.8"/>
      </g>
     </g>
     <g id="text_8">
      <!-- 900 -->
      <g transform="translate(153.9125 742.729242) scale(0.1 -0.1)">
       <defs>
        <path id="DejaVuSans-39" d="M 703 97 
L 703 672 
Q 941 559 1184 500 
Q 1428 441 1663 441 
Q 2288 441 2617 861 
Q 2947 1281 2994 2138 
Q 2813 1869 2534 1725 
Q 2256 1581 1919 1581 
Q 1219 1581 811 2004 
Q 403 2428 403 3163 
Q 403 3881 828 4315 
Q 1253 4750 1959 4750 
Q 2769 4750 3195 4129 
Q 3622 3509 3622 2328 
Q 3622 1225 3098 567 
Q 2575 -91 1691 -91 
Q 1453 -91 1209 -44 
Q 966 3 703 97 
z
M 1959 2075 
Q 2384 2075 2632 2365 
Q 2881 2656 2881 3163 
Q 2881 3666 2632 3958 
Q 2384 4250 1959 4250 
Q 1534 4250 1286 3958 
Q 1038 3666 1038 3163 
Q 1038 2656 1286 2365 
Q 1534 2075 1959 2075 
z
" transform="scale(0.015625)"/>
       </defs>
       <use xlink:href="#DejaVuSans-39"/>
       <use xlink:href="#DejaVuSans-30" x="63.623047"/>
       <use xlink:href="#DejaVuSans-30" x="127.246094"/>
      </g>
     </g>
    </g>
    <g id="ytick_3">
     <g id="line2d_9">
      <g>
       <use xlink:href="#md783c0d2e5" x="180" y="631.446287" style="stroke: #000000; stroke-width: 0.8"/>
      </g>
     </g>
     <g id="text_9">
      <!-- 1000 -->
      <g transform="translate(147.55 635.245506) scale(0.1 -0.1)">
       <use xlink:href="#DejaVuSans-31"/>
       <use xlink:href="#DejaVuSans-30" x="63.623047"/>
       <use xlink:href="#DejaVuSans-30" x="127.246094"/>
       <use xlink:href="#DejaVuSans-30" x="190.869141"/>
      </g>
     </g>
    </g>
    <g id="ytick_4">
     <g id="line2d_10">
      <g>
       <use xlink:href="#md783c0d2e5" x="180" y="523.962552" style="stroke: #000000; stroke-width: 0.8"/>
      </g>
     </g>
     <g id="text_10">
      <!-- 1100 -->
      <g transform="translate(147.55 527.761771) scale(0.1 -0.1)">
       <use xlink:href="#DejaVuSans-31"/>
       <use xlink:href="#DejaVuSans-31" x="63.623047"/>
       <use xlink:href="#DejaVuSans-30" x="127.246094"/>
       <use xlink:href="#DejaVuSans-30" x="190.869141"/>
      </g>
     </g>
    </g>
    <g id="ytick_5">
     <g id="line2d_11">
      <g>
       <use xlink:href="#md783c0d2e5" x="180" y="416.478816" style="stroke: #000000; stroke-width: 0.8"/>
      </g>
     </g>
     <g id="text_11">
      <!-- 1200 -->
      <g transform="translate(147.55 420.278035) scale(0.1 -0.1)">
       <use xlink:href="#DejaVuSans-31"/>
       <use xlink:href="#DejaVuSans-32" x="63.623047"/>
       <use xlink:href="#DejaVuSans-30" x="127.246094"/>
       <use xlink:href="#DejaVuSans-30" x="190.869141"/>
      </g>
     </g>
    </g>
    <g id="ytick_6">
     <g id="line2d_12">
      <g>
       <use xlink:href="#md783c0d2e5" x="180" y="308.99508" style="stroke: #000000; stroke-width: 0.8"/>
      </g>
     </g>
     <g id="text_12">
      <!-- 1300 -->
      <g transform="translate(147.55 312.794299) scale(0.1 -0.1)">
       <defs>
        <path id="DejaVuSans-33" d="M 2597 2516 
Q 3050 2419 3304 2112 
Q 3559 1806 3559 1356 
Q 3559 666 3084 287 
Q 2609 -91 1734 -91 
Q 1441 -91 1130 -33 
Q 819 25 488 141 
L 488 750 
Q 750 597 1062 519 
Q 1375 441 1716 441 
Q 2309 441 2620 675 
Q 2931 909 2931 1356 
Q 2931 1769 2642 2001 
Q 2353 2234 1838 2234 
L 1294 2234 
L 1294 2753 
L 1863 2753 
Q 2328 2753 2575 2939 
Q 2822 3125 2822 3475 
Q 2822 3834 2567 4026 
Q 2313 4219 1838 4219 
Q 1578 4219 1281 4162 
Q 984 4106 628 3988 
L 628 4550 
Q 988 4650 1302 4700 
Q 1616 4750 1894 4750 
Q 2613 4750 3031 4423 
Q 3450 4097 3450 3541 
Q 3450 3153 3228 2886 
Q 3006 2619 2597 2516 
z
" transform="scale(0.015625)"/>
       </defs>
       <use xlink:href="#DejaVuSans-31"/>
       <use xlink:href="#DejaVuSans-33" x="63.623047"/>
       <use xlink:href="#DejaVuSans-30" x="127.246094"/>
       <use xlink:href="#DejaVuSans-30" x="190.869141"/>
      </g>
     </g>
    </g>
    <g id="ytick_7">
     <g id="line2d_13">
      <g>
       <use xlink:href="#md783c0d2e5" x="180" y="201.511345" style="stroke: #000000; stroke-width: 0.8"/>
      </g>
     </g>
     <g id="text_13">
      <!-- 1400 -->
      <g transform="translate(147.55 205.310564) scale(0.1 -0.1)">
       <use xlink:href="#DejaVuSans-31"/>
       <use xlink:href="#DejaVuSans-34" x="63.623047"/>
       <use xlink:href="#DejaVuSans-30" x="127.246094"/>
       <use xlink:href="#DejaVuSans-30" x="190.869141"/>
      </g>
     </g>
    </g>
   </g>
   <g id="LineCollection_1">
    <path d="M 252.224002 901.244382 
L 252.261942 871.944412 
L 252.961425 844.416931 
L 254.304393 818.487925 
L 256.272759 794.1043 
L 258.84837 771.214877 
L 262.012824 749.770075 
L 265.747321 729.721553 
L 270.03255 711.021816 
L 274.848639 693.623757 
L 280.175217 677.480172 
L 285.991608 662.543241 
L 292.277189 648.764054 
L 299.01194 636.092248 
L 306.177135 624.475862 
L 313.756101 613.861521 
L 321.734867 604.195012 
L 330.102538 595.42222 
L 338.851209 587.490287 
L 347.975364 580.348763 
L 357.470836 573.950472 
L 367.333555 568.251917 
L 377.558329 563.213167 
L 388.137916 558.797327 
L 399.062481 554.969769 
L 410.319457 551.697309 
L 421.893706 548.94749 
L 433.767893 546.688039 
L 445.922924 544.886511 
L 458.338404 543.510106 
L 470.993043 542.525614 
L 483.864999 541.899454 
L 496.932153 541.597757 
L 510.172326 541.586491 
L 523.563442 541.831583 
L 537.083654 542.299053 
L 550.711444 542.955137 
L 564.425701 543.766403 
L 592.031589 545.723053 
L 661.218413 551.099909 
L 688.482014 552.820483 
L 702.145513 553.490164 
L 715.597575 553.98836 
L 728.932802 554.297714 
L 742.139505 554.39631 
L 755.206887 554.263515 
L 768.12504 553.880024 
L 780.884937 553.227914 
L 793.478421 552.290695 
L 805.898195 551.053374 
L 818.137801 549.502523 
L 830.191625 547.626344 
L 842.054894 545.414749 
L 853.723695 542.859433 
L 865.195017 539.953938 
L 876.466805 536.693708 
L 887.538039 533.076125 
L 898.408827 529.100508 
L 909.080508 524.768085 
L 919.555752 520.08192 
L 929.838654 515.046811 
L 939.934801 509.66914 
L 949.851313 503.956708 
L 959.596848 497.918536 
L 969.181569 491.564668 
L 978.617081 484.905961 
L 987.91633 477.953879 
L 997.093485 470.7203 
L 1006.163801 463.217317 
L 1015.143464 455.457054 
L 1024.049443 447.451483 
L 1032.899324 439.212235 
L 1041.711154 430.75041 
L 1050.50328 422.07638 
L 1059.29419 413.19958 
L 1076.946039 394.869361 
L 1094.811176 375.807627 
L 1113.025467 356.031389 
L 1141.260511 324.962755 
L 1160.826713 303.183757 
L 1181.050413 280.359802 
L 1191.412114 268.479609 
L 1201.935353 256.234898 
L 1212.611396 243.578254 
L 1223.427008 230.455147 
L 1234.363988 216.803421 
L 1245.272727 202.718698 
L 1245.272727 202.718698 
" clip-path="url(#p7cdd6237af)" style="fill: none; stroke: #1f77b4; stroke-width: 1.5"/>
    <path d="M 241.475637 901.230464 
L 241.513745 871.800916 
L 242.220116 844.002364 
L 243.578414 817.777375 
L 245.57286 793.070687 
L 248.188109 769.828999 
L 251.409141 748.000776 
L 255.221164 727.536061 
L 259.609517 708.386313 
L 264.559589 690.504242 
L 270.056747 673.843672 
L 276.086267 658.359409 
L 282.633277 644.007121 
L 289.682707 630.743229 
L 297.219245 618.524813 
L 305.227303 607.309529 
L 313.690986 597.055528 
L 322.594073 587.721398 
L 331.919996 579.266102 
L 341.651838 571.648938 
L 351.77232 564.8295 
L 362.263812 558.767648 
L 373.108333 553.423488 
L 384.287568 548.75736 
L 395.782882 544.729832 
L 407.575341 541.301704 
L 419.645742 538.434009 
L 431.97464 536.088035 
L 444.542378 534.225339 
L 457.329132 532.807773 
L 470.314944 531.797517 
L 483.479769 531.15711 
L 496.803517 530.849489 
L 510.266107 530.838034 
L 523.84751 531.086609 
L 537.52781 531.559614 
L 551.287247 532.222036 
L 565.106281 533.0395 
L 578.965644 533.978326 
L 592.846397 535.005586 
L 606.729989 536.089158 
L 620.598314 537.197788 
L 634.433766 538.301144 
L 648.2193 539.369879 
L 661.93849 540.375683 
L 675.575578 541.291343 
L 689.115538 542.090796 
L 702.544123 542.749184 
L 715.847919 543.242902 
L 729.014397 543.54965 
L 742.03196 543.648474 
L 754.889985 543.519814 
L 767.578873 543.145536 
L 780.090083 542.508971 
L 792.416171 541.594941 
L 804.550825 540.389785 
L 816.488891 538.881382 
L 828.226402 537.059157 
L 839.760598 534.914095 
L 851.089943 532.438738 
L 862.214136 529.627182 
L 873.134119 526.475062 
L 883.852079 522.97953 
L 894.371444 519.13923 
L 904.696872 514.954254 
L 914.834235 510.426103 
L 924.790598 505.557624 
L 934.574191 500.35295 
L 944.194369 494.817424 
L 953.661572 488.957508 
L 962.987273 482.780693 
L 972.183921 476.295387 
L 981.264874 469.510795 
L 990.244325 462.43679 
L 999.137215 455.083767 
L 1007.959147 447.462486 
L 1016.726282 439.583902 
L 1025.455227 431.458981 
L 1034.162919 423.098503 
L 1042.866491 414.51285 
L 1051.583137 405.711776 
L 1060.329956 396.70417 
L 1069.123795 387.497791 
L 1077.981077 378.099003 
L 1086.917614 368.512477 
L 1095.948419 358.740887 
L 1105.087494 348.784589 
L 1114.347613 338.641273 
L 1123.740094 328.30561 
L 1133.274553 317.768868 
L 1142.958649 307.018519 
L 1152.797817 296.037824 
L 1162.794982 284.805393 
L 1172.950267 273.294735 
L 1183.260681 261.473778 
L 1193.719795 249.304376 
L 1204.317405 236.741789 
L 1215.03918 223.734145 
L 1225.86629 210.221882 
L 1236.775029 196.137158 
" clip-path="url(#p7cdd6237af)" style="fill: none; stroke: #8c564b; stroke-width: 1.5"/>
    <path d="M 230.727273 901.216546 
L 230.76884 871.527884 
L 231.48613 843.446408 
L 232.864891 816.912527 
L 234.891893 791.868821 
L 237.55488 768.259931 
L 240.842523 746.0325 
L 244.744362 725.135199 
L 249.250706 705.518811 
L 254.352475 687.136402 
L 260.040932 669.943547 
L 266.307283 653.89858 
L 273.142105 638.962798 
L 280.534623 625.100526 
L 288.471879 612.278925 
L 296.937935 600.46746 
L 305.913275 589.636987 
L 315.374607 579.758556 
L 325.295178 570.802101 
L 335.645609 562.735311 
L 346.395082 555.522898 
L 357.512621 549.126397 
L 368.96821 543.50447 
L 380.733562 538.613565 
L 392.782484 534.40873 
L 405.090889 530.844408 
L 417.636565 527.875092 
L 430.39881 525.455806 
L 443.358048 523.542413 
L 456.495461 522.091779 
L 469.792704 521.061838 
L 483.231675 520.4116 
L 496.794371 520.10112 
L 510.462797 520.09146 
L 524.21892 520.344654 
L 538.044671 520.823675 
L 551.921957 521.492419 
L 565.832706 522.315702 
L 593.682732 524.2898 
L 662.691482 529.653667 
L 689.695488 531.357946 
L 703.006617 532.010575 
L 716.172411 532.499172 
L 729.180377 532.802226 
L 742.018984 532.899692 
L 754.677742 532.773026 
L 767.14729 532.405218 
L 779.419482 531.780814 
L 791.487474 530.885922 
L 803.345799 529.708211 
L 814.99045 528.236881 
L 826.418932 526.462632 
L 837.630319 524.377604 
L 848.62527 521.975309 
L 859.406033 519.250553 
L 869.976409 516.199349 
L 880.341695 512.818838 
L 890.508587 509.107214 
L 900.485071 505.063668 
L 910.280287 500.688347 
L 919.904391 495.982337 
L 929.368421 490.947664 
L 938.684172 485.587308 
L 947.864091 479.905212 
L 956.921194 473.906301 
L 965.869002 467.596472 
L 974.721494 460.982569 
L 983.493073 454.072325 
L 992.198531 446.874279 
L 1000.853016 439.397656 
L 1009.471986 431.65222 
L 1018.071155 423.648095 
L 1026.66641 415.395571 
L 1035.273722 406.904874 
L 1043.909029 398.185927 
L 1061.326388 380.099867 
L 1079.039743 361.200349 
L 1097.159359 341.527012 
L 1125.29664 310.566049 
L 1144.780878 288.878456 
L 1164.870156 266.206698 
L 1175.134783 254.438236 
L 1185.536126 242.336052 
L 1196.062363 229.858072 
L 1206.697871 216.955087 
L 1217.422951 203.570157 
L 1228.277332 189.555618 
L 1228.277332 189.555618 
" clip-path="url(#p7cdd6237af)" style="fill: none; stroke: #17becf; stroke-width: 1.5"/>
   </g>
   <g id="patch_3">
    <path d="M 180 936.82882 
L 180 153.97118 
" style="fill: none; stroke: #000000; stroke-width: 0.8; stroke-linejoin: miter; stroke-linecap: square"/>
   </g>
   <g id="patch_4">
    <path d="M 1296 936.82882 
L 1296 153.97118 
" style="fill: none; stroke: #000000; stroke-width: 0.8; stroke-linejoin: miter; stroke-linecap: square"/>
   </g>
   <g id="patch_5">
    <path d="M 180 936.82882 
L 1296 936.82882 
" style="fill: none; stroke: #000000; stroke-width: 0.8; stroke-linejoin: miter; stroke-linecap: square"/>
   </g>
   <g id="patch_6">
    <path d="M 180 153.97118 
L 1296 153.97118 
" style="fill: none; stroke: #000000; stroke-width: 0.8; stroke-linejoin: miter; stroke-linecap: square"/>
   </g>
  </g>
 </g>
 <defs>
  <clipPath id="p7cdd6237af">
   <rect x="180" y="153.97118" width="1116" height="782.85764"/>
  </clipPath>
 </defs>
</svg>
