<?xml version="1.0" encoding="utf-8" standalone="no"?>
<!DOCTYPE svg PUBLIC "-//W3C//DTD SVG 1.1//EN"
  "http://www.w3.org/Graphics/SVG/1.1/DTD/svg11.dtd">
<svg xmlns:xlink="http://www.w3.org/1999/xlink" width="1440pt" height="1080pt" viewBox="0 0 1440 1080" xmlns="http://www.w3.org/2000/svg" version="1.1">
 <metadata>
  <rdf:RDF xmlns:dc="http://purl.org/dc/elements/1.1/" xmlns:cc="http://creativecommons.org/ns#" xmlns:rdf="http://www.w3.org/1999/02/22-rdf-syntax-ns#">
   <cc:Work>
    <dc:type rdf:resource="http://purl.org/dc/dcmitype/StillImage"/>
    <dc:date>2023-12-11T12:07:03.162166</dc:date>
    <dc:format>image/svg+xml</dc:format>
    <dc:creator>
     <cc:Agent>
      <dc:title>Matplotlib v3.7.1, https://matplotlib.org/</dc:title>
     </cc:Agent>
    </dc:creator>
   </cc:Work>
  </rdf:RDF>
 </metadata>
 <defs>
  <style type="text/css">*{stroke-linejoin: round; stroke-linecap: butt}</style>
 </defs>
 <g id="figure_1">
  <g id="patch_1">
   <path d="M 0 1080 
L 1440 1080 
L 1440 0 
L 0 0 
z
" style="fill: #ffffff"/>
  </g>
  <g id="axes_1">
   <g id="patch_2">
    <path d="M 525.85634 961.2 
L 950.14366 961.2 
L 950.14366 129.6 
L 525.85634 129.6 
z
" style="fill: #ffffff"/>
   </g>
   <g id="matplotlib.axis_1">
    <g id="xtick_1">
     <g id="line2d_1">
      <defs>
       <path id="m87aa46f3f0" d="M 0 0 
L 0 3.5 
" style="stroke: #000000; stroke-width: 0.8"/>
      </defs>
      <g>
       <use xlink:href="#m87aa46f3f0" x="582.956263" y="961.2" style="stroke: #000000; stroke-width: 0.8"/>
      </g>
     </g>
     <g id="text_1">
      <!-- 350 -->
      <g transform="translate(573.412513 975.798437) scale(0.1 -0.1)">
       <defs>
        <path id="DejaVuSans-33" d="M 2597 2516 
Q 3050 2419 3304 2112 
Q 3559 1806 3559 1356 
Q 3559 666 3084 287 
Q 2609 -91 1734 -91 
Q 1441 -91 1130 -33 
Q 819 25 488 141 
L 488 750 
Q 750 597 1062 519 
Q 1375 441 1716 441 
Q 2309 441 2620 675 
Q 2931 909 2931 1356 
Q 2931 1769 2642 2001 
Q 2353 2234 1838 2234 
L 1294 2234 
L 1294 2753 
L 1863 2753 
Q 2328 2753 2575 2939 
Q 2822 3125 2822 3475 
Q 2822 3834 2567 4026 
Q 2313 4219 1838 4219 
Q 1578 4219 1281 4162 
Q 984 4106 628 3988 
L 628 4550 
Q 988 4650 1302 4700 
Q 1616 4750 1894 4750 
Q 2613 4750 3031 4423 
Q 3450 4097 3450 3541 
Q 3450 3153 3228 2886 
Q 3006 2619 2597 2516 
z
" transform="scale(0.015625)"/>
        <path id="DejaVuSans-35" d="M 691 4666 
L 3169 4666 
L 3169 4134 
L 1269 4134 
L 1269 2991 
Q 1406 3038 1543 3061 
Q 1681 3084 1819 3084 
Q 2600 3084 3056 2656 
Q 3513 2228 3513 1497 
Q 3513 744 3044 326 
Q 2575 -91 1722 -91 
Q 1428 -91 1123 -41 
Q 819 9 494 109 
L 494 744 
Q 775 591 1075 516 
Q 1375 441 1709 441 
Q 2250 441 2565 725 
Q 2881 1009 2881 1497 
Q 2881 1984 2565 2268 
Q 2250 2553 1709 2553 
Q 1456 2553 1204 2497 
Q 953 2441 691 2322 
L 691 4666 
z
" transform="scale(0.015625)"/>
        <path id="DejaVuSans-30" d="M 2034 4250 
Q 1547 4250 1301 3770 
Q 1056 3291 1056 2328 
Q 1056 1369 1301 889 
Q 1547 409 2034 409 
Q 2525 409 2770 889 
Q 3016 1369 3016 2328 
Q 3016 3291 2770 3770 
Q 2525 4250 2034 4250 
z
M 2034 4750 
Q 2819 4750 3233 4129 
Q 3647 3509 3647 2328 
Q 3647 1150 3233 529 
Q 2819 -91 2034 -91 
Q 1250 -91 836 529 
Q 422 1150 422 2328 
Q 422 3509 836 4129 
Q 1250 4750 2034 4750 
z
" transform="scale(0.015625)"/>
       </defs>
       <use xlink:href="#DejaVuSans-33"/>
       <use xlink:href="#DejaVuSans-35" x="63.623047"/>
       <use xlink:href="#DejaVuSans-30" x="127.246094"/>
      </g>
     </g>
    </g>
    <g id="xtick_2">
     <g id="line2d_2">
      <g>
       <use xlink:href="#m87aa46f3f0" x="647.875217" y="961.2" style="stroke: #000000; stroke-width: 0.8"/>
      </g>
     </g>
     <g id="text_2">
      <!-- 400 -->
      <g transform="translate(638.331467 975.798437) scale(0.1 -0.1)">
       <defs>
        <path id="DejaVuSans-34" d="M 2419 4116 
L 825 1625 
L 2419 1625 
L 2419 4116 
z
M 2253 4666 
L 3047 4666 
L 3047 1625 
L 3713 1625 
L 3713 1100 
L 3047 1100 
L 3047 0 
L 2419 0 
L 2419 1100 
L 313 1100 
L 313 1709 
L 2253 4666 
z
" transform="scale(0.015625)"/>
       </defs>
       <use xlink:href="#DejaVuSans-34"/>
       <use xlink:href="#DejaVuSans-30" x="63.623047"/>
       <use xlink:href="#DejaVuSans-30" x="127.246094"/>
      </g>
     </g>
    </g>
    <g id="xtick_3">
     <g id="line2d_3">
      <g>
       <use xlink:href="#m87aa46f3f0" x="712.79417" y="961.2" style="stroke: #000000; stroke-width: 0.8"/>
      </g>
     </g>
     <g id="text_3">
      <!-- 450 -->
      <g transform="translate(703.25042 975.798437) scale(0.1 -0.1)">
       <use xlink:href="#DejaVuSans-34"/>
       <use xlink:href="#DejaVuSans-35" x="63.623047"/>
       <use xlink:href="#DejaVuSans-30" x="127.246094"/>
      </g>
     </g>
    </g>
    <g id="xtick_4">
     <g id="line2d_4">
      <g>
       <use xlink:href="#m87aa46f3f0" x="777.713124" y="961.2" style="stroke: #000000; stroke-width: 0.8"/>
      </g>
     </g>
     <g id="text_4">
      <!-- 500 -->
      <g transform="translate(768.169374 975.798437) scale(0.1 -0.1)">
       <use xlink:href="#DejaVuSans-35"/>
       <use xlink:href="#DejaVuSans-30" x="63.623047"/>
       <use xlink:href="#DejaVuSans-30" x="127.246094"/>
      </g>
     </g>
    </g>
    <g id="xtick_5">
     <g id="line2d_5">
      <g>
       <use xlink:href="#m87aa46f3f0" x="842.632078" y="961.2" style="stroke: #000000; stroke-width: 0.8"/>
      </g>
     </g>
     <g id="text_5">
      <!-- 550 -->
      <g transform="translate(833.088328 975.798437) scale(0.1 -0.1)">
       <use xlink:href="#DejaVuSans-35"/>
       <use xlink:href="#DejaVuSans-35" x="63.623047"/>
       <use xlink:href="#DejaVuSans-30" x="127.246094"/>
      </g>
     </g>
    </g>
    <g id="xtick_6">
     <g id="line2d_6">
      <g>
       <use xlink:href="#m87aa46f3f0" x="907.551032" y="961.2" style="stroke: #000000; stroke-width: 0.8"/>
      </g>
     </g>
     <g id="text_6">
      <!-- 600 -->
      <g transform="translate(898.007282 975.798437) scale(0.1 -0.1)">
       <defs>
        <path id="DejaVuSans-36" d="M 2113 2584 
Q 1688 2584 1439 2293 
Q 1191 2003 1191 1497 
Q 1191 994 1439 701 
Q 1688 409 2113 409 
Q 2538 409 2786 701 
Q 3034 994 3034 1497 
Q 3034 2003 2786 2293 
Q 2538 2584 2113 2584 
z
M 3366 4563 
L 3366 3988 
Q 3128 4100 2886 4159 
Q 2644 4219 2406 4219 
Q 1781 4219 1451 3797 
Q 1122 3375 1075 2522 
Q 1259 2794 1537 2939 
Q 1816 3084 2150 3084 
Q 2853 3084 3261 2657 
Q 3669 2231 3669 1497 
Q 3669 778 3244 343 
Q 2819 -91 2113 -91 
Q 1303 -91 875 529 
Q 447 1150 447 2328 
Q 447 3434 972 4092 
Q 1497 4750 2381 4750 
Q 2619 4750 2861 4703 
Q 3103 4656 3366 4563 
z
" transform="scale(0.015625)"/>
       </defs>
       <use xlink:href="#DejaVuSans-36"/>
       <use xlink:href="#DejaVuSans-30" x="63.623047"/>
       <use xlink:href="#DejaVuSans-30" x="127.246094"/>
      </g>
     </g>
    </g>
   </g>
   <g id="matplotlib.axis_2">
    <g id="ytick_1">
     <g id="line2d_7">
      <defs>
       <path id="mab0ae99fda" d="M 0 0 
L -3.5 0 
" style="stroke: #000000; stroke-width: 0.8"/>
      </defs>
      <g>
       <use xlink:href="#mab0ae99fda" x="525.85634" y="864.077194" style="stroke: #000000; stroke-width: 0.8"/>
      </g>
     </g>
     <g id="text_7">
      <!-- 200 -->
      <g transform="translate(499.76884 867.876412) scale(0.1 -0.1)">
       <defs>
        <path id="DejaVuSans-32" d="M 1228 531 
L 3431 531 
L 3431 0 
L 469 0 
L 469 531 
Q 828 903 1448 1529 
Q 2069 2156 2228 2338 
Q 2531 2678 2651 2914 
Q 2772 3150 2772 3378 
Q 2772 3750 2511 3984 
Q 2250 4219 1831 4219 
Q 1534 4219 1204 4116 
Q 875 4013 500 3803 
L 500 4441 
Q 881 4594 1212 4672 
Q 1544 4750 1819 4750 
Q 2544 4750 2975 4387 
Q 3406 4025 3406 3419 
Q 3406 3131 3298 2873 
Q 3191 2616 2906 2266 
Q 2828 2175 2409 1742 
Q 1991 1309 1228 531 
z
" transform="scale(0.015625)"/>
       </defs>
       <use xlink:href="#DejaVuSans-32"/>
       <use xlink:href="#DejaVuSans-30" x="63.623047"/>
       <use xlink:href="#DejaVuSans-30" x="127.246094"/>
      </g>
     </g>
    </g>
    <g id="ytick_2">
     <g id="line2d_8">
      <g>
       <use xlink:href="#mab0ae99fda" x="525.85634" y="734.239286" style="stroke: #000000; stroke-width: 0.8"/>
      </g>
     </g>
     <g id="text_8">
      <!-- 300 -->
      <g transform="translate(499.76884 738.038505) scale(0.1 -0.1)">
       <use xlink:href="#DejaVuSans-33"/>
       <use xlink:href="#DejaVuSans-30" x="63.623047"/>
       <use xlink:href="#DejaVuSans-30" x="127.246094"/>
      </g>
     </g>
    </g>
    <g id="ytick_3">
     <g id="line2d_9">
      <g>
       <use xlink:href="#mab0ae99fda" x="525.85634" y="604.401378" style="stroke: #000000; stroke-width: 0.8"/>
      </g>
     </g>
     <g id="text_9">
      <!-- 400 -->
      <g transform="translate(499.76884 608.200597) scale(0.1 -0.1)">
       <use xlink:href="#DejaVuSans-34"/>
       <use xlink:href="#DejaVuSans-30" x="63.623047"/>
       <use xlink:href="#DejaVuSans-30" x="127.246094"/>
      </g>
     </g>
    </g>
    <g id="ytick_4">
     <g id="line2d_10">
      <g>
       <use xlink:href="#mab0ae99fda" x="525.85634" y="474.563471" style="stroke: #000000; stroke-width: 0.8"/>
      </g>
     </g>
     <g id="text_10">
      <!-- 500 -->
      <g transform="translate(499.76884 478.362689) scale(0.1 -0.1)">
       <use xlink:href="#DejaVuSans-35"/>
       <use xlink:href="#DejaVuSans-30" x="63.623047"/>
       <use xlink:href="#DejaVuSans-30" x="127.246094"/>
      </g>
     </g>
    </g>
    <g id="ytick_5">
     <g id="line2d_11">
      <g>
       <use xlink:href="#mab0ae99fda" x="525.85634" y="344.725563" style="stroke: #000000; stroke-width: 0.8"/>
      </g>
     </g>
     <g id="text_11">
      <!-- 600 -->
      <g transform="translate(499.76884 348.524782) scale(0.1 -0.1)">
       <use xlink:href="#DejaVuSans-36"/>
       <use xlink:href="#DejaVuSans-30" x="63.623047"/>
       <use xlink:href="#DejaVuSans-30" x="127.246094"/>
      </g>
     </g>
    </g>
    <g id="ytick_6">
     <g id="line2d_12">
      <g>
       <use xlink:href="#mab0ae99fda" x="525.85634" y="214.887655" style="stroke: #000000; stroke-width: 0.8"/>
      </g>
     </g>
     <g id="text_12">
      <!-- 700 -->
      <g transform="translate(499.76884 218.686874) scale(0.1 -0.1)">
       <defs>
        <path id="DejaVuSans-37" d="M 525 4666 
L 3525 4666 
L 3525 4397 
L 1831 0 
L 1172 0 
L 2766 4134 
L 525 4134 
L 525 4666 
z
" transform="scale(0.015625)"/>
       </defs>
       <use xlink:href="#DejaVuSans-37"/>
       <use xlink:href="#DejaVuSans-30" x="63.623047"/>
       <use xlink:href="#DejaVuSans-30" x="127.246094"/>
      </g>
     </g>
    </g>
   </g>
   <g id="LineCollection_1">
    <path d="M 556.115324 233.810971 
L 625.516011 270.944699 
L 635.689201 276.627065 
L 645.379818 282.203876 
L 654.556892 287.686062 
L 663.190118 293.08162 
L 671.250598 298.395144 
L 678.711823 303.627447 
L 685.550979 308.775347 
L 691.750604 313.831809 
L 697.300621 318.786648 
L 702.200602 323.6281 
L 706.461957 328.345542 
L 710.109436 332.933501 
L 713.181107 337.396758 
L 715.725898 341.755691 
L 717.798212 346.05038 
L 719.450087 350.341612 
L 720.722642 354.707422 
L 721.639335 359.235253 
L 722.203286 364.011592 
L 722.39933 369.112013 
L 722.199738 374.594245 
L 721.571391 380.495392 
L 720.482348 386.832892 
L 718.90656 393.607843 
L 716.826481 400.809207 
L 714.233918 408.417829 
L 711.129738 416.409711 
L 707.522941 424.758399 
L 703.429527 433.43657 
L 698.871356 442.416994 
L 693.875135 451.673057 
L 688.471568 461.179006 
L 682.694652 470.910018 
L 676.581109 480.842184 
L 670.169927 490.952459 
L 656.619688 511.619134 
L 642.387984 532.741212 
L 620.504479 565.015182 
L 606.116138 586.707068 
L 599.125685 597.560299 
L 592.33277 608.405925 
L 585.783477 619.238359 
L 579.523886 630.055836 
L 573.600455 640.861215 
L 568.060751 651.662853 
L 562.954673 662.475443 
L 558.336404 673.320592 
L 554.267286 684.226684 
L 550.819764 695.227221 
L 548.082133 706.356371 
L 546.583419 714.630859 
L 546.162969 717.640046 
L 545.374057 725.626247 
L 545.192483 729.081137 
L 545.142127 736.768954 
L 545.316128 740.639598 
L 546.029838 748.0205 
L 546.675298 752.213015 
L 548.175068 759.280164 
L 549.374436 763.629637 
L 551.678481 770.378016 
L 553.444767 774.66708 
L 556.567249 781.093626 
L 558.825015 785.098265 
L 562.775771 791.201998 
L 565.375049 794.745751 
L 570.159318 800.527906 
L 572.917139 803.516471 
L 578.535286 808.980631 
L 581.281339 811.403032 
L 587.728581 816.55526 
L 590.334017 818.460279 
L 599.984648 824.775439 
L 610.178168 830.444701 
L 620.882226 835.559821 
L 632.075254 840.202765 
L 643.737512 844.445117 
L 655.845151 848.349669 
L 668.366542 851.972675 
L 681.260104 855.366011 
L 694.472974 858.578973 
L 707.940115 861.659608 
L 762.802462 873.664993 
L 776.197029 876.829792 
L 789.164127 880.150225 
L 801.527157 883.663966 
L 813.085617 887.39505 
L 823.613717 891.343341 
L 832.863362 895.468046 
L 840.579495 899.664683 
L 846.544135 903.742348 
L 850.671474 907.431676 
L 853.147021 910.497027 
L 854.480948 913.020834 
L 855.230459 915.701165 
L 855.679852 923.4 
L 855.679852 923.4 
" clip-path="url(#p7622a2443a)" style="fill: none; stroke: #1f77b4; stroke-width: 1.5"/>
    <path d="M 573.867609 200.605486 
L 586.18736 207.191859 
L 598.262689 213.60558 
L 610.074764 219.869041 
L 621.603029 226.004831 
L 632.825568 232.035594 
L 643.719455 237.983885 
L 654.261084 243.872048 
L 664.426482 249.722088 
L 674.191599 255.555559 
L 683.532596 261.393456 
L 692.426097 267.256114 
L 700.849439 273.163115 
L 708.780897 279.133203 
L 716.199902 285.1842 
L 723.08723 291.332939 
L 729.425189 297.595193 
L 735.197781 303.985617 
L 740.390858 310.517697 
L 744.99225 317.203697 
L 748.991894 324.054624 
L 752.381936 331.080192 
L 755.156828 338.288788 
L 757.313406 345.687457 
L 758.850954 353.28188 
L 759.771262 361.076361 
L 760.07866 369.073826 
L 759.780049 377.275819 
L 758.884915 385.682505 
L 757.405332 394.292687 
L 755.35595 403.103811 
L 752.753979 412.111996 
L 749.619151 421.312053 
L 745.97368 430.697514 
L 741.842209 440.260672 
L 737.25174 449.992616 
L 732.231563 459.883274 
L 726.813169 469.921462 
L 721.030153 480.094938 
L 714.918112 490.390455 
L 708.51453 500.793824 
L 701.858654 511.289976 
L 694.99136 521.863031 
L 687.955017 532.496372 
L 680.793333 543.172717 
L 673.551201 553.874198 
L 666.274535 564.582448 
L 659.010093 575.27868 
L 651.805304 585.943781 
L 644.708074 596.558401 
L 637.7666 607.103051 
L 631.029165 617.558195 
L 624.543933 627.904357 
L 618.358739 638.12222 
L 612.520869 648.192733 
L 607.076836 658.097219 
L 602.072157 667.817486 
L 597.551112 677.335938 
L 593.556512 686.635691 
L 590.129453 695.700691 
L 587.309072 704.515831 
L 585.132294 713.067069 
L 583.63358 721.341557 
L 582.844668 729.327759 
L 582.794313 737.015576 
L 583.508023 744.396479 
L 585.007793 751.463627 
L 587.311838 758.212007 
L 590.434319 764.638553 
L 594.385074 770.742286 
L 599.169343 776.524441 
L 604.787491 781.988601 
L 611.234733 787.140829 
L 618.500858 791.989804 
L 626.569948 796.546951 
L 635.420104 800.826581 
L 645.023165 804.846019 
L 655.344431 808.625746 
L 666.342385 812.189526 
L 677.968418 815.564545 
L 690.166554 818.781547 
L 702.873173 821.87496 
L 716.016738 824.883039 
L 729.517529 827.847992 
L 743.287368 830.816115 
L 757.229356 833.837923 
L 771.237608 836.968281 
L 785.196991 840.266532 
L 798.982867 843.796626 
L 812.460839 847.627249 
L 825.486495 851.831945 
L 837.905167 856.489246 
L 849.551683 861.68279 
L 860.250131 867.501445 
L 869.813621 874.039426 
L 878.044061 881.396416 
L 884.731927 889.67768 
L 889.656049 898.994179 
L 892.583394 909.462682 
L 893.268862 921.205873 
" clip-path="url(#p7622a2443a)" style="fill: none; stroke: #8c564b; stroke-width: 1.5"/>
    <path d="M 591.619894 167.4 
L 662.080859 205.111302 
L 673.041923 211.237281 
L 683.736442 217.397587 
L 694.14709 223.625537 
L 704.256086 229.956457 
L 714.044853 236.427924 
L 723.493375 243.079897 
L 732.579176 249.954618 
L 741.275889 257.096075 
L 749.551472 264.548768 
L 757.366277 272.355472 
L 764.671418 280.553745 
L 771.408175 289.171176 
L 777.509356 298.219868 
L 781.508999 305.070796 
L 782.903402 307.691327 
L 786.293444 314.716895 
L 787.521344 317.553554 
L 790.296236 324.762151 
L 791.305497 327.752108 
L 793.462075 335.150777 
L 794.217659 338.215911 
L 795.755207 345.810334 
L 796.244201 348.866796 
L 797.164509 356.661277 
L 797.396472 359.630165 
L 797.706724 370.443756 
L 797.22139 381.262527 
L 795.99399 392.059371 
L 794.079389 402.822715 
L 791.530136 413.552553 
L 788.394759 424.256239 
L 784.717511 434.944843 
L 780.538943 445.630382 
L 775.896861 456.32394 
L 770.827354 467.034508 
L 765.365708 477.768361 
L 759.547173 488.528796 
L 753.407531 499.316105 
L 746.983521 510.127665 
L 740.313107 520.958109 
L 733.43565 531.799516 
L 719.35564 553.274937 
L 711.976768 564.275827 
L 676.083988 617.374698 
L 669.317678 627.653259 
L 662.807383 637.755927 
L 656.603201 647.653719 
L 650.754867 657.315093 
L 645.311246 666.705513 
L 640.319623 675.786918 
L 635.824714 684.51709 
L 631.86724 692.849019 
L 628.481889 700.730391 
L 625.694434 708.10356 
L 623.517815 714.906611 
L 621.947213 721.076554 
L 620.954723 726.556151 
L 620.485512 731.306001 
L 620.459204 735.322394 
L 620.781746 738.657992 
L 621.371364 741.436361 
L 622.194396 743.846964 
L 623.294971 746.112116 
L 624.798321 748.434722 
L 626.881268 750.952123 
L 629.725634 753.718528 
L 633.479029 756.718003 
L 638.23659 759.892913 
L 644.041658 763.171418 
L 650.896218 766.486046 
L 658.773132 769.782992 
L 667.626204 773.025055 
L 677.397088 776.191215 
L 688.019503 779.274886 
L 699.421558 782.281937 
L 711.526911 785.228973 
L 724.255309 788.142035 
L 779.895672 800.324239 
L 794.537283 803.790419 
L 809.276679 807.578049 
L 824.027568 811.79488 
L 838.708088 816.576628 
L 853.240176 822.100507 
L 864.886692 827.294051 
L 867.541705 828.605502 
L 878.240153 834.424156 
L 881.500081 836.417888 
L 891.063572 842.955869 
L 894.907014 845.96685 
L 903.137454 853.32384 
L 905.326874 855.446542 
L 907.337339 857.739456 
L 914.025205 866.02072 
L 916.169678 868.955331 
L 918.02121 872.083035 
L 922.945332 881.399534 
L 924.630831 885.047404 
L 925.917974 888.854125 
L 928.845319 899.322628 
L 929.721981 903.259998 
L 930.172405 907.268555 
L 930.857873 919.011746 
L 930.857873 919.011746 
" clip-path="url(#p7622a2443a)" style="fill: none; stroke: #17becf; stroke-width: 1.5"/>
   </g>
   <g id="patch_3">
    <path d="M 525.85634 961.2 
L 525.85634 129.6 
" style="fill: none; stroke: #000000; stroke-width: 0.8; stroke-linejoin: miter; stroke-linecap: square"/>
   </g>
   <g id="patch_4">
    <path d="M 950.14366 961.2 
L 950.14366 129.6 
" style="fill: none; stroke: #000000; stroke-width: 0.8; stroke-linejoin: miter; stroke-linecap: square"/>
   </g>
   <g id="patch_5">
    <path d="M 525.85634 961.2 
L 950.14366 961.2 
" style="fill: none; stroke: #000000; stroke-width: 0.8; stroke-linejoin: miter; stroke-linecap: square"/>
   </g>
   <g id="patch_6">
    <path d="M 525.85634 129.6 
L 950.14366 129.6 
" style="fill: none; stroke: #000000; stroke-width: 0.8; stroke-linejoin: miter; stroke-linecap: square"/>
   </g>
  </g>
 </g>
 <defs>
  <clipPath id="p7622a2443a">
   <rect x="525.85634" y="129.6" width="424.28732" height="831.6"/>
  </clipPath>
 </defs>
</svg>
