<?xml version="1.0" encoding="utf-8" standalone="no"?>
<!DOCTYPE svg PUBLIC "-//W3C//DTD SVG 1.1//EN"
  "http://www.w3.org/Graphics/SVG/1.1/DTD/svg11.dtd">
<svg xmlns:xlink="http://www.w3.org/1999/xlink" width="1440pt" height="1080pt" viewBox="0 0 1440 1080" xmlns="http://www.w3.org/2000/svg" version="1.1">
 <metadata>
  <rdf:RDF xmlns:dc="http://purl.org/dc/elements/1.1/" xmlns:cc="http://creativecommons.org/ns#" xmlns:rdf="http://www.w3.org/1999/02/22-rdf-syntax-ns#">
   <cc:Work>
    <dc:type rdf:resource="http://purl.org/dc/dcmitype/StillImage"/>
    <dc:date>2023-12-11T12:06:57.773921</dc:date>
    <dc:format>image/svg+xml</dc:format>
    <dc:creator>
     <cc:Agent>
      <dc:title>Matplotlib v3.7.1, https://matplotlib.org/</dc:title>
     </cc:Agent>
    </dc:creator>
   </cc:Work>
  </rdf:RDF>
 </metadata>
 <defs>
  <style type="text/css">*{stroke-linejoin: round; stroke-linecap: butt}</style>
 </defs>
 <g id="figure_1">
  <g id="patch_1">
   <path d="M 0 1080 
L 1440 1080 
L 1440 0 
L 0 0 
z
" style="fill: #ffffff"/>
  </g>
  <g id="axes_1">
   <g id="patch_2">
    <path d="M 272.713 961.2 
L 1203.287 961.2 
L 1203.287 129.6 
L 272.713 129.6 
z
" style="fill: #ffffff"/>
   </g>
   <g id="matplotlib.axis_1">
    <g id="xtick_1">
     <g id="line2d_1">
      <defs>
       <path id="m397eff59b6" d="M 0 0 
L 0 3.5 
" style="stroke: #000000; stroke-width: 0.8"/>
      </defs>
      <g>
       <use xlink:href="#m397eff59b6" x="383.214209" y="961.2" style="stroke: #000000; stroke-width: 0.8"/>
      </g>
     </g>
     <g id="text_1">
      <!-- 1100 -->
      <g transform="translate(370.489209 975.798437) scale(0.1 -0.1)">
       <defs>
        <path id="DejaVuSans-31" d="M 794 531 
L 1825 531 
L 1825 4091 
L 703 3866 
L 703 4441 
L 1819 4666 
L 2450 4666 
L 2450 531 
L 3481 531 
L 3481 0 
L 794 0 
L 794 531 
z
" transform="scale(0.015625)"/>
        <path id="DejaVuSans-30" d="M 2034 4250 
Q 1547 4250 1301 3770 
Q 1056 3291 1056 2328 
Q 1056 1369 1301 889 
Q 1547 409 2034 409 
Q 2525 409 2770 889 
Q 3016 1369 3016 2328 
Q 3016 3291 2770 3770 
Q 2525 4250 2034 4250 
z
M 2034 4750 
Q 2819 4750 3233 4129 
Q 3647 3509 3647 2328 
Q 3647 1150 3233 529 
Q 2819 -91 2034 -91 
Q 1250 -91 836 529 
Q 422 1150 422 2328 
Q 422 3509 836 4129 
Q 1250 4750 2034 4750 
z
" transform="scale(0.015625)"/>
       </defs>
       <use xlink:href="#DejaVuSans-31"/>
       <use xlink:href="#DejaVuSans-31" x="63.623047"/>
       <use xlink:href="#DejaVuSans-30" x="127.246094"/>
       <use xlink:href="#DejaVuSans-30" x="190.869141"/>
      </g>
     </g>
    </g>
    <g id="xtick_2">
     <g id="line2d_2">
      <g>
       <use xlink:href="#m397eff59b6" x="524.719506" y="961.2" style="stroke: #000000; stroke-width: 0.8"/>
      </g>
     </g>
     <g id="text_2">
      <!-- 1200 -->
      <g transform="translate(511.994506 975.798437) scale(0.1 -0.1)">
       <defs>
        <path id="DejaVuSans-32" d="M 1228 531 
L 3431 531 
L 3431 0 
L 469 0 
L 469 531 
Q 828 903 1448 1529 
Q 2069 2156 2228 2338 
Q 2531 2678 2651 2914 
Q 2772 3150 2772 3378 
Q 2772 3750 2511 3984 
Q 2250 4219 1831 4219 
Q 1534 4219 1204 4116 
Q 875 4013 500 3803 
L 500 4441 
Q 881 4594 1212 4672 
Q 1544 4750 1819 4750 
Q 2544 4750 2975 4387 
Q 3406 4025 3406 3419 
Q 3406 3131 3298 2873 
Q 3191 2616 2906 2266 
Q 2828 2175 2409 1742 
Q 1991 1309 1228 531 
z
" transform="scale(0.015625)"/>
       </defs>
       <use xlink:href="#DejaVuSans-31"/>
       <use xlink:href="#DejaVuSans-32" x="63.623047"/>
       <use xlink:href="#DejaVuSans-30" x="127.246094"/>
       <use xlink:href="#DejaVuSans-30" x="190.869141"/>
      </g>
     </g>
    </g>
    <g id="xtick_3">
     <g id="line2d_3">
      <g>
       <use xlink:href="#m397eff59b6" x="666.224803" y="961.2" style="stroke: #000000; stroke-width: 0.8"/>
      </g>
     </g>
     <g id="text_3">
      <!-- 1300 -->
      <g transform="translate(653.499803 975.798437) scale(0.1 -0.1)">
       <defs>
        <path id="DejaVuSans-33" d="M 2597 2516 
Q 3050 2419 3304 2112 
Q 3559 1806 3559 1356 
Q 3559 666 3084 287 
Q 2609 -91 1734 -91 
Q 1441 -91 1130 -33 
Q 819 25 488 141 
L 488 750 
Q 750 597 1062 519 
Q 1375 441 1716 441 
Q 2309 441 2620 675 
Q 2931 909 2931 1356 
Q 2931 1769 2642 2001 
Q 2353 2234 1838 2234 
L 1294 2234 
L 1294 2753 
L 1863 2753 
Q 2328 2753 2575 2939 
Q 2822 3125 2822 3475 
Q 2822 3834 2567 4026 
Q 2313 4219 1838 4219 
Q 1578 4219 1281 4162 
Q 984 4106 628 3988 
L 628 4550 
Q 988 4650 1302 4700 
Q 1616 4750 1894 4750 
Q 2613 4750 3031 4423 
Q 3450 4097 3450 3541 
Q 3450 3153 3228 2886 
Q 3006 2619 2597 2516 
z
" transform="scale(0.015625)"/>
       </defs>
       <use xlink:href="#DejaVuSans-31"/>
       <use xlink:href="#DejaVuSans-33" x="63.623047"/>
       <use xlink:href="#DejaVuSans-30" x="127.246094"/>
       <use xlink:href="#DejaVuSans-30" x="190.869141"/>
      </g>
     </g>
    </g>
    <g id="xtick_4">
     <g id="line2d_4">
      <g>
       <use xlink:href="#m397eff59b6" x="807.730101" y="961.2" style="stroke: #000000; stroke-width: 0.8"/>
      </g>
     </g>
     <g id="text_4">
      <!-- 1400 -->
      <g transform="translate(795.005101 975.798437) scale(0.1 -0.1)">
       <defs>
        <path id="DejaVuSans-34" d="M 2419 4116 
L 825 1625 
L 2419 1625 
L 2419 4116 
z
M 2253 4666 
L 3047 4666 
L 3047 1625 
L 3713 1625 
L 3713 1100 
L 3047 1100 
L 3047 0 
L 2419 0 
L 2419 1100 
L 313 1100 
L 313 1709 
L 2253 4666 
z
" transform="scale(0.015625)"/>
       </defs>
       <use xlink:href="#DejaVuSans-31"/>
       <use xlink:href="#DejaVuSans-34" x="63.623047"/>
       <use xlink:href="#DejaVuSans-30" x="127.246094"/>
       <use xlink:href="#DejaVuSans-30" x="190.869141"/>
      </g>
     </g>
    </g>
    <g id="xtick_5">
     <g id="line2d_5">
      <g>
       <use xlink:href="#m397eff59b6" x="949.235398" y="961.2" style="stroke: #000000; stroke-width: 0.8"/>
      </g>
     </g>
     <g id="text_5">
      <!-- 1500 -->
      <g transform="translate(936.510398 975.798437) scale(0.1 -0.1)">
       <defs>
        <path id="DejaVuSans-35" d="M 691 4666 
L 3169 4666 
L 3169 4134 
L 1269 4134 
L 1269 2991 
Q 1406 3038 1543 3061 
Q 1681 3084 1819 3084 
Q 2600 3084 3056 2656 
Q 3513 2228 3513 1497 
Q 3513 744 3044 326 
Q 2575 -91 1722 -91 
Q 1428 -91 1123 -41 
Q 819 9 494 109 
L 494 744 
Q 775 591 1075 516 
Q 1375 441 1709 441 
Q 2250 441 2565 725 
Q 2881 1009 2881 1497 
Q 2881 1984 2565 2268 
Q 2250 2553 1709 2553 
Q 1456 2553 1204 2497 
Q 953 2441 691 2322 
L 691 4666 
z
" transform="scale(0.015625)"/>
       </defs>
       <use xlink:href="#DejaVuSans-31"/>
       <use xlink:href="#DejaVuSans-35" x="63.623047"/>
       <use xlink:href="#DejaVuSans-30" x="127.246094"/>
       <use xlink:href="#DejaVuSans-30" x="190.869141"/>
      </g>
     </g>
    </g>
    <g id="xtick_6">
     <g id="line2d_6">
      <g>
       <use xlink:href="#m397eff59b6" x="1090.740695" y="961.2" style="stroke: #000000; stroke-width: 0.8"/>
      </g>
     </g>
     <g id="text_6">
      <!-- 1600 -->
      <g transform="translate(1078.015695 975.798437) scale(0.1 -0.1)">
       <defs>
        <path id="DejaVuSans-36" d="M 2113 2584 
Q 1688 2584 1439 2293 
Q 1191 2003 1191 1497 
Q 1191 994 1439 701 
Q 1688 409 2113 409 
Q 2538 409 2786 701 
Q 3034 994 3034 1497 
Q 3034 2003 2786 2293 
Q 2538 2584 2113 2584 
z
M 3366 4563 
L 3366 3988 
Q 3128 4100 2886 4159 
Q 2644 4219 2406 4219 
Q 1781 4219 1451 3797 
Q 1122 3375 1075 2522 
Q 1259 2794 1537 2939 
Q 1816 3084 2150 3084 
Q 2853 3084 3261 2657 
Q 3669 2231 3669 1497 
Q 3669 778 3244 343 
Q 2819 -91 2113 -91 
Q 1303 -91 875 529 
Q 447 1150 447 2328 
Q 447 3434 972 4092 
Q 1497 4750 2381 4750 
Q 2619 4750 2861 4703 
Q 3103 4656 3366 4563 
z
" transform="scale(0.015625)"/>
       </defs>
       <use xlink:href="#DejaVuSans-31"/>
       <use xlink:href="#DejaVuSans-36" x="63.623047"/>
       <use xlink:href="#DejaVuSans-30" x="127.246094"/>
       <use xlink:href="#DejaVuSans-30" x="190.869141"/>
      </g>
     </g>
    </g>
   </g>
   <g id="matplotlib.axis_2">
    <g id="ytick_1">
     <g id="line2d_7">
      <defs>
       <path id="m265afe435a" d="M 0 0 
L -3.5 0 
" style="stroke: #000000; stroke-width: 0.8"/>
      </defs>
      <g>
       <use xlink:href="#m265afe435a" x="272.713" y="954.375146" style="stroke: #000000; stroke-width: 0.8"/>
      </g>
     </g>
     <g id="text_7">
      <!-- 200 -->
      <g transform="translate(246.6255 958.174365) scale(0.1 -0.1)">
       <use xlink:href="#DejaVuSans-32"/>
       <use xlink:href="#DejaVuSans-30" x="63.623047"/>
       <use xlink:href="#DejaVuSans-30" x="127.246094"/>
      </g>
     </g>
    </g>
    <g id="ytick_2">
     <g id="line2d_8">
      <g>
       <use xlink:href="#m265afe435a" x="272.713" y="812.869849" style="stroke: #000000; stroke-width: 0.8"/>
      </g>
     </g>
     <g id="text_8">
      <!-- 300 -->
      <g transform="translate(246.6255 816.669068) scale(0.1 -0.1)">
       <use xlink:href="#DejaVuSans-33"/>
       <use xlink:href="#DejaVuSans-30" x="63.623047"/>
       <use xlink:href="#DejaVuSans-30" x="127.246094"/>
      </g>
     </g>
    </g>
    <g id="ytick_3">
     <g id="line2d_9">
      <g>
       <use xlink:href="#m265afe435a" x="272.713" y="671.364552" style="stroke: #000000; stroke-width: 0.8"/>
      </g>
     </g>
     <g id="text_9">
      <!-- 400 -->
      <g transform="translate(246.6255 675.16377) scale(0.1 -0.1)">
       <use xlink:href="#DejaVuSans-34"/>
       <use xlink:href="#DejaVuSans-30" x="63.623047"/>
       <use xlink:href="#DejaVuSans-30" x="127.246094"/>
      </g>
     </g>
    </g>
    <g id="ytick_4">
     <g id="line2d_10">
      <g>
       <use xlink:href="#m265afe435a" x="272.713" y="529.859254" style="stroke: #000000; stroke-width: 0.8"/>
      </g>
     </g>
     <g id="text_10">
      <!-- 500 -->
      <g transform="translate(246.6255 533.658473) scale(0.1 -0.1)">
       <use xlink:href="#DejaVuSans-35"/>
       <use xlink:href="#DejaVuSans-30" x="63.623047"/>
       <use xlink:href="#DejaVuSans-30" x="127.246094"/>
      </g>
     </g>
    </g>
    <g id="ytick_5">
     <g id="line2d_11">
      <g>
       <use xlink:href="#m265afe435a" x="272.713" y="388.353957" style="stroke: #000000; stroke-width: 0.8"/>
      </g>
     </g>
     <g id="text_11">
      <!-- 600 -->
      <g transform="translate(246.6255 392.153176) scale(0.1 -0.1)">
       <use xlink:href="#DejaVuSans-36"/>
       <use xlink:href="#DejaVuSans-30" x="63.623047"/>
       <use xlink:href="#DejaVuSans-30" x="127.246094"/>
      </g>
     </g>
    </g>
    <g id="ytick_6">
     <g id="line2d_12">
      <g>
       <use xlink:href="#m265afe435a" x="272.713" y="246.84866" style="stroke: #000000; stroke-width: 0.8"/>
      </g>
     </g>
     <g id="text_12">
      <!-- 700 -->
      <g transform="translate(246.6255 250.647878) scale(0.1 -0.1)">
       <defs>
        <path id="DejaVuSans-37" d="M 525 4666 
L 3525 4666 
L 3525 4397 
L 1831 0 
L 1172 0 
L 2766 4134 
L 525 4134 
L 525 4666 
z
" transform="scale(0.015625)"/>
       </defs>
       <use xlink:href="#DejaVuSans-37"/>
       <use xlink:href="#DejaVuSans-30" x="63.623047"/>
       <use xlink:href="#DejaVuSans-30" x="127.246094"/>
      </g>
     </g>
    </g>
   </g>
   <g id="LineCollection_1">
    <path d="M 1160.988182 291.08417 
L 1122.383224 264.995519 
L 1087.301071 242.875771 
L 1055.36984 224.316921 
L 1026.244973 208.949835 
L 999.608504 196.443473 
L 975.169349 186.504286 
L 952.664942 178.875368 
L 931.864291 173.334639 
L 912.571987 169.69108 
L 894.631798 167.778132 
L 877.927585 167.444241 
L 864.84035 168.272182 
L 862.379146 168.542121 
L 850.363962 170.423261 
L 847.932135 170.919958 
L 834.543994 174.417911 
L 822.170281 178.871207 
L 810.755671 184.118002 
L 800.231442 190.008236 
L 790.518233 196.410173 
L 781.531363 203.213254 
L 773.186258 210.32769 
L 765.402574 217.682042 
L 758.106701 225.220004 
L 751.232856 232.897208 
L 744.723207 240.678443 
L 738.527407 248.535397 
L 732.601852 256.444908 
L 726.90883 264.387615 
L 721.415675 272.34694 
L 716.093982 280.308306 
L 705.868552 296.185367 
L 696.066068 311.922401 
L 672.531732 350.123323 
L 663.239671 364.683339 
L 653.884276 378.672645 
L 649.15653 385.421372 
L 644.381956 391.98965 
L 639.55071 398.36584 
L 634.653058 404.539219 
L 629.679256 410.50026 
L 624.619398 416.240911 
L 619.463223 421.754833 
L 614.199899 427.037589 
L 608.817797 432.086738 
L 603.304296 436.901831 
L 597.645661 441.484282 
L 591.82703 445.837143 
L 585.832565 449.964801 
L 579.645777 453.872651 
L 573.250035 457.566816 
L 566.629208 461.053971 
L 559.768399 464.341321 
L 552.654682 467.436761 
L 545.277776 470.34922 
L 537.630585 473.089137 
L 529.709575 475.669053 
L 521.514975 478.104241 
L 513.0508 480.413348 
L 504.324744 482.619012 
L 486.134694 486.834026 
L 457.116841 493.273749 
L 447.067321 495.654768 
L 436.881592 498.259952 
L 426.587488 501.17021 
L 416.217257 504.4784 
L 405.810507 508.290404 
L 395.418913 512.725197 
L 385.112829 517.912581 
L 374.98888 523.98687 
L 367.159892 529.526906 
L 365.175829 531.075187 
L 357.824937 537.386705 
L 355.83399 539.281287 
L 349.026704 546.456925 
L 347.143594 548.670107 
L 340.947253 556.805345 
L 339.282115 559.261826 
L 333.76556 568.454598 
L 332.398539 571.042116 
L 327.631741 581.392384 
L 326.596858 583.986151 
L 322.650513 595.595419 
L 321.936026 598.084879 
L 318.443224 613.361833 
L 316.13117 629.876555 
L 315.011818 647.718232 
L 315.103759 666.995556 
L 316.434311 687.827081 
L 319.038441 710.333849 
L 322.956301 734.634398 
L 328.230436 760.84158 
L 334.903168 789.060535 
L 343.014289 819.387316 
L 352.599062 851.907822 
L 363.686463 886.69683 
L 376.152124 923.4 
L 376.152124 923.4 
" clip-path="url(#p62c01d90d9)" style="fill: none; stroke: #1f77b4; stroke-width: 1.5"/>
    <path d="M 1145.927761 313.356149 
L 1108.034135 287.732296 
L 1073.776756 266.1126 
L 1042.802679 248.085047 
L 1014.788004 233.272565 
L 989.436039 221.330785 
L 966.475531 211.945883 
L 945.658983 204.832522 
L 926.761027 199.731875 
L 909.576888 196.409739 
L 893.920896 194.654739 
L 879.625087 194.276606 
L 866.537853 195.104547 
L 854.522669 196.985687 
L 843.456878 199.783594 
L 833.23054 203.37688 
L 823.745345 207.657877 
L 814.913577 212.531386 
L 806.657146 217.913494 
L 798.906669 223.730468 
L 791.600613 229.91771 
L 784.684483 236.418779 
L 778.11007 243.184484 
L 771.834748 250.172028 
L 765.820814 257.344225 
L 760.03489 264.668763 
L 754.447354 272.117539 
L 749.031831 279.666037 
L 743.764717 287.292765 
L 738.624753 294.978742 
L 733.592634 302.707041 
L 728.650663 310.462368 
L 723.782433 318.230705 
L 718.97256 325.998976 
L 714.206437 333.754781 
L 709.470028 341.486149 
L 704.749696 349.181341 
L 700.032058 356.828695 
L 695.30387 364.416495 
L 690.551938 371.932884 
L 685.763063 379.365807 
L 680.923998 386.70298 
L 676.021442 393.931894 
L 671.042046 401.039846 
L 665.972445 408.013986 
L 660.799304 414.841402 
L 655.509393 421.509215 
L 650.089659 428.004701 
L 644.527333 434.315425 
L 638.810039 440.429398 
L 632.925915 446.335246 
L 626.863748 452.022389 
L 620.613119 457.481236 
L 614.164551 462.703388 
L 607.509664 467.681844 
L 600.64134 472.411221 
L 593.553887 476.887972 
L 586.2432 481.110608 
L 578.706934 485.079919 
L 570.944668 488.799201 
L 562.958066 492.274466 
L 554.751036 495.514663 
L 546.329888 498.531882 
L 537.703475 501.341552 
L 528.883337 503.962631 
L 519.883825 506.417783 
L 510.722225 508.733538 
L 501.418855 510.940447 
L 491.997163 513.073204 
L 482.4838 515.170763 
L 472.90868 517.276428 
L 463.305015 519.43792 
L 453.709346 521.707423 
L 444.16153 524.141603 
L 434.704728 526.801593 
L 425.385349 529.752961 
L 416.252981 533.065635 
L 407.36029 536.813801 
L 398.762892 541.075765 
L 390.519195 545.933775 
L 382.690207 551.473812 
L 375.339315 557.78533 
L 368.532029 564.960969 
L 362.335689 573.096206 
L 356.819133 582.288979 
L 352.052334 592.639247 
L 348.105989 604.248515 
L 345.051067 617.219297 
L 342.958323 631.654536 
L 341.897755 647.656961 
L 341.938026 665.328395 
L 343.145834 684.768998 
L 345.58523 706.076461 
L 349.316895 729.345124 
L 354.397357 754.665046 
L 360.878158 782.120996 
L 368.80497 811.791389 
L 378.216649 843.747148 
L 389.144236 878.050493 
L 401.609897 914.753663 
" clip-path="url(#p62c01d90d9)" style="fill: none; stroke: #8c564b; stroke-width: 1.5"/>
    <path d="M 1130.867341 335.628129 
L 1093.325708 310.242295 
L 1059.835569 289.106801 
L 1029.751531 271.597269 
L 1002.769537 257.330807 
L 978.613953 245.95257 
L 957.034248 237.132059 
L 937.800629 230.559612 
L 920.698419 225.943644 
L 905.521328 223.009522 
L 892.06453 221.501047 
L 880.11938 221.185091 
L 869.47218 221.858667 
L 859.908765 223.355949 
L 851.224391 225.551731 
L 843.235627 228.358789 
L 835.789704 231.719392 
L 828.768159 235.593991 
L 822.084542 239.950831 
L 815.678286 244.758925 
L 809.507454 249.984786 
L 803.542273 255.591976 
L 797.7603 261.542184 
L 792.143235 267.796761 
L 786.675012 274.318146 
L 781.340763 281.070898 
L 776.126295 288.022334 
L 771.017849 295.142808 
L 766.001982 302.405734 
L 756.195429 317.266864 
L 746.603152 332.446099 
L 727.667531 363.239441 
L 718.02922 378.783673 
L 708.207254 394.168361 
L 703.175491 401.793653 
L 698.041741 409.357969 
L 692.789438 416.848334 
L 687.401777 424.251013 
L 681.861896 431.551416 
L 676.153117 438.734023 
L 670.259252 445.782351 
L 664.164987 452.678973 
L 657.856313 459.405614 
L 651.321007 465.943354 
L 644.549119 472.272944 
L 637.53343 478.375265 
L 630.26983 484.231911 
L 622.757569 489.825889 
L 614.999344 495.142369 
L 607.001209 500.169442 
L 598.772321 504.898808 
L 590.32457 509.326318 
L 581.672166 513.452357 
L 572.831238 517.282021 
L 563.819539 520.825127 
L 554.656288 524.096084 
L 545.362169 527.113664 
L 535.959496 529.900737 
L 526.472515 532.483977 
L 516.927808 534.893586 
L 497.786098 539.328596 
L 469.351052 545.635709 
L 460.12493 547.817809 
L 451.123562 550.112673 
L 442.405351 552.564914 
L 434.031698 555.216779 
L 426.06462 558.106755 
L 418.562746 561.268709 
L 411.575344 564.732554 
L 405.134732 568.528006 
L 399.248825 572.693058 
L 393.897647 577.28761 
L 389.038799 582.409379 
L 384.624583 588.204847 
L 380.626731 594.866855 
L 377.057813 602.616136 
L 373.978731 611.674108 
L 371.490355 622.239414 
L 369.716283 634.476526 
L 368.78579 648.516323 
L 368.822131 664.463406 
L 369.936795 682.404782 
L 372.227889 702.416871 
L 375.780649 724.569978 
L 380.668608 748.930506 
L 386.954697 775.561554 
L 394.691968 804.522488 
L 403.923885 835.867897 
L 414.684225 869.646228 
L 427.06767 906.107326 
L 427.06767 906.107326 
" clip-path="url(#p62c01d90d9)" style="fill: none; stroke: #17becf; stroke-width: 1.5"/>
   </g>
   <g id="patch_3">
    <path d="M 272.713 961.2 
L 272.713 129.6 
" style="fill: none; stroke: #000000; stroke-width: 0.8; stroke-linejoin: miter; stroke-linecap: square"/>
   </g>
   <g id="patch_4">
    <path d="M 1203.287 961.2 
L 1203.287 129.6 
" style="fill: none; stroke: #000000; stroke-width: 0.8; stroke-linejoin: miter; stroke-linecap: square"/>
   </g>
   <g id="patch_5">
    <path d="M 272.713 961.2 
L 1203.287 961.2 
" style="fill: none; stroke: #000000; stroke-width: 0.8; stroke-linejoin: miter; stroke-linecap: square"/>
   </g>
   <g id="patch_6">
    <path d="M 272.713 129.6 
L 1203.287 129.6 
" style="fill: none; stroke: #000000; stroke-width: 0.8; stroke-linejoin: miter; stroke-linecap: square"/>
   </g>
  </g>
 </g>
 <defs>
  <clipPath id="p62c01d90d9">
   <rect x="272.713" y="129.6" width="930.574" height="831.6"/>
  </clipPath>
 </defs>
</svg>
