<?xml version="1.0" encoding="utf-8" standalone="no"?>
<!DOCTYPE svg PUBLIC "-//W3C//DTD SVG 1.1//EN"
  "http://www.w3.org/Graphics/SVG/1.1/DTD/svg11.dtd">
<svg xmlns:xlink="http://www.w3.org/1999/xlink" width="1440pt" height="1080pt" viewBox="0 0 1440 1080" xmlns="http://www.w3.org/2000/svg" version="1.1">
 <metadata>
  <rdf:RDF xmlns:dc="http://purl.org/dc/elements/1.1/" xmlns:cc="http://creativecommons.org/ns#" xmlns:rdf="http://www.w3.org/1999/02/22-rdf-syntax-ns#">
   <cc:Work>
    <dc:type rdf:resource="http://purl.org/dc/dcmitype/StillImage"/>
    <dc:date>2023-12-11T12:06:40.759758</dc:date>
    <dc:format>image/svg+xml</dc:format>
    <dc:creator>
     <cc:Agent>
      <dc:title>Matplotlib v3.7.1, https://matplotlib.org/</dc:title>
     </cc:Agent>
    </dc:creator>
   </cc:Work>
  </rdf:RDF>
 </metadata>
 <defs>
  <style type="text/css">*{stroke-linejoin: round; stroke-linecap: butt}</style>
 </defs>
 <g id="figure_1">
  <g id="patch_1">
   <path d="M 0 1080 
L 1440 1080 
L 1440 0 
L 0 0 
z
" style="fill: #ffffff"/>
  </g>
  <g id="axes_1">
   <g id="patch_2">
    <path d="M 180 724.236265 
L 1296 724.236265 
L 1296 366.563735 
L 180 366.563735 
z
" style="fill: #ffffff"/>
   </g>
   <g id="matplotlib.axis_1">
    <g id="xtick_1">
     <g id="line2d_1">
      <defs>
       <path id="mff54aa88c7" d="M 0 0 
L 0 3.5 
" style="stroke: #000000; stroke-width: 0.8"/>
      </defs>
      <g>
       <use xlink:href="#mff54aa88c7" x="277.942797" y="724.236265" style="stroke: #000000; stroke-width: 0.8"/>
      </g>
     </g>
     <g id="text_1">
      <!-- 800 -->
      <g transform="translate(268.399047 738.834703) scale(0.1 -0.1)">
       <defs>
        <path id="DejaVuSans-38" d="M 2034 2216 
Q 1584 2216 1326 1975 
Q 1069 1734 1069 1313 
Q 1069 891 1326 650 
Q 1584 409 2034 409 
Q 2484 409 2743 651 
Q 3003 894 3003 1313 
Q 3003 1734 2745 1975 
Q 2488 2216 2034 2216 
z
M 1403 2484 
Q 997 2584 770 2862 
Q 544 3141 544 3541 
Q 544 4100 942 4425 
Q 1341 4750 2034 4750 
Q 2731 4750 3128 4425 
Q 3525 4100 3525 3541 
Q 3525 3141 3298 2862 
Q 3072 2584 2669 2484 
Q 3125 2378 3379 2068 
Q 3634 1759 3634 1313 
Q 3634 634 3220 271 
Q 2806 -91 2034 -91 
Q 1263 -91 848 271 
Q 434 634 434 1313 
Q 434 1759 690 2068 
Q 947 2378 1403 2484 
z
M 1172 3481 
Q 1172 3119 1398 2916 
Q 1625 2713 2034 2713 
Q 2441 2713 2670 2916 
Q 2900 3119 2900 3481 
Q 2900 3844 2670 4047 
Q 2441 4250 2034 4250 
Q 1625 4250 1398 4047 
Q 1172 3844 1172 3481 
z
" transform="scale(0.015625)"/>
        <path id="DejaVuSans-30" d="M 2034 4250 
Q 1547 4250 1301 3770 
Q 1056 3291 1056 2328 
Q 1056 1369 1301 889 
Q 1547 409 2034 409 
Q 2525 409 2770 889 
Q 3016 1369 3016 2328 
Q 3016 3291 2770 3770 
Q 2525 4250 2034 4250 
z
M 2034 4750 
Q 2819 4750 3233 4129 
Q 3647 3509 3647 2328 
Q 3647 1150 3233 529 
Q 2819 -91 2034 -91 
Q 1250 -91 836 529 
Q 422 1150 422 2328 
Q 422 3509 836 4129 
Q 1250 4750 2034 4750 
z
" transform="scale(0.015625)"/>
       </defs>
       <use xlink:href="#DejaVuSans-38"/>
       <use xlink:href="#DejaVuSans-30" x="63.623047"/>
       <use xlink:href="#DejaVuSans-30" x="127.246094"/>
      </g>
     </g>
    </g>
    <g id="xtick_2">
     <g id="line2d_2">
      <g>
       <use xlink:href="#mff54aa88c7" x="452.698199" y="724.236265" style="stroke: #000000; stroke-width: 0.8"/>
      </g>
     </g>
     <g id="text_2">
      <!-- 900 -->
      <g transform="translate(443.154449 738.834703) scale(0.1 -0.1)">
       <defs>
        <path id="DejaVuSans-39" d="M 703 97 
L 703 672 
Q 941 559 1184 500 
Q 1428 441 1663 441 
Q 2288 441 2617 861 
Q 2947 1281 2994 2138 
Q 2813 1869 2534 1725 
Q 2256 1581 1919 1581 
Q 1219 1581 811 2004 
Q 403 2428 403 3163 
Q 403 3881 828 4315 
Q 1253 4750 1959 4750 
Q 2769 4750 3195 4129 
Q 3622 3509 3622 2328 
Q 3622 1225 3098 567 
Q 2575 -91 1691 -91 
Q 1453 -91 1209 -44 
Q 966 3 703 97 
z
M 1959 2075 
Q 2384 2075 2632 2365 
Q 2881 2656 2881 3163 
Q 2881 3666 2632 3958 
Q 2384 4250 1959 4250 
Q 1534 4250 1286 3958 
Q 1038 3666 1038 3163 
Q 1038 2656 1286 2365 
Q 1534 2075 1959 2075 
z
" transform="scale(0.015625)"/>
       </defs>
       <use xlink:href="#DejaVuSans-39"/>
       <use xlink:href="#DejaVuSans-30" x="63.623047"/>
       <use xlink:href="#DejaVuSans-30" x="127.246094"/>
      </g>
     </g>
    </g>
    <g id="xtick_3">
     <g id="line2d_3">
      <g>
       <use xlink:href="#mff54aa88c7" x="627.4536" y="724.236265" style="stroke: #000000; stroke-width: 0.8"/>
      </g>
     </g>
     <g id="text_3">
      <!-- 1000 -->
      <g transform="translate(614.7286 738.834703) scale(0.1 -0.1)">
       <defs>
        <path id="DejaVuSans-31" d="M 794 531 
L 1825 531 
L 1825 4091 
L 703 3866 
L 703 4441 
L 1819 4666 
L 2450 4666 
L 2450 531 
L 3481 531 
L 3481 0 
L 794 0 
L 794 531 
z
" transform="scale(0.015625)"/>
       </defs>
       <use xlink:href="#DejaVuSans-31"/>
       <use xlink:href="#DejaVuSans-30" x="63.623047"/>
       <use xlink:href="#DejaVuSans-30" x="127.246094"/>
       <use xlink:href="#DejaVuSans-30" x="190.869141"/>
      </g>
     </g>
    </g>
    <g id="xtick_4">
     <g id="line2d_4">
      <g>
       <use xlink:href="#mff54aa88c7" x="802.209002" y="724.236265" style="stroke: #000000; stroke-width: 0.8"/>
      </g>
     </g>
     <g id="text_4">
      <!-- 1100 -->
      <g transform="translate(789.484002 738.834703) scale(0.1 -0.1)">
       <use xlink:href="#DejaVuSans-31"/>
       <use xlink:href="#DejaVuSans-31" x="63.623047"/>
       <use xlink:href="#DejaVuSans-30" x="127.246094"/>
       <use xlink:href="#DejaVuSans-30" x="190.869141"/>
      </g>
     </g>
    </g>
    <g id="xtick_5">
     <g id="line2d_5">
      <g>
       <use xlink:href="#mff54aa88c7" x="976.964403" y="724.236265" style="stroke: #000000; stroke-width: 0.8"/>
      </g>
     </g>
     <g id="text_5">
      <!-- 1200 -->
      <g transform="translate(964.239403 738.834703) scale(0.1 -0.1)">
       <defs>
        <path id="DejaVuSans-32" d="M 1228 531 
L 3431 531 
L 3431 0 
L 469 0 
L 469 531 
Q 828 903 1448 1529 
Q 2069 2156 2228 2338 
Q 2531 2678 2651 2914 
Q 2772 3150 2772 3378 
Q 2772 3750 2511 3984 
Q 2250 4219 1831 4219 
Q 1534 4219 1204 4116 
Q 875 4013 500 3803 
L 500 4441 
Q 881 4594 1212 4672 
Q 1544 4750 1819 4750 
Q 2544 4750 2975 4387 
Q 3406 4025 3406 3419 
Q 3406 3131 3298 2873 
Q 3191 2616 2906 2266 
Q 2828 2175 2409 1742 
Q 1991 1309 1228 531 
z
" transform="scale(0.015625)"/>
       </defs>
       <use xlink:href="#DejaVuSans-31"/>
       <use xlink:href="#DejaVuSans-32" x="63.623047"/>
       <use xlink:href="#DejaVuSans-30" x="127.246094"/>
       <use xlink:href="#DejaVuSans-30" x="190.869141"/>
      </g>
     </g>
    </g>
    <g id="xtick_6">
     <g id="line2d_6">
      <g>
       <use xlink:href="#mff54aa88c7" x="1151.719805" y="724.236265" style="stroke: #000000; stroke-width: 0.8"/>
      </g>
     </g>
     <g id="text_6">
      <!-- 1300 -->
      <g transform="translate(1138.994805 738.834703) scale(0.1 -0.1)">
       <defs>
        <path id="DejaVuSans-33" d="M 2597 2516 
Q 3050 2419 3304 2112 
Q 3559 1806 3559 1356 
Q 3559 666 3084 287 
Q 2609 -91 1734 -91 
Q 1441 -91 1130 -33 
Q 819 25 488 141 
L 488 750 
Q 750 597 1062 519 
Q 1375 441 1716 441 
Q 2309 441 2620 675 
Q 2931 909 2931 1356 
Q 2931 1769 2642 2001 
Q 2353 2234 1838 2234 
L 1294 2234 
L 1294 2753 
L 1863 2753 
Q 2328 2753 2575 2939 
Q 2822 3125 2822 3475 
Q 2822 3834 2567 4026 
Q 2313 4219 1838 4219 
Q 1578 4219 1281 4162 
Q 984 4106 628 3988 
L 628 4550 
Q 988 4650 1302 4700 
Q 1616 4750 1894 4750 
Q 2613 4750 3031 4423 
Q 3450 4097 3450 3541 
Q 3450 3153 3228 2886 
Q 3006 2619 2597 2516 
z
" transform="scale(0.015625)"/>
       </defs>
       <use xlink:href="#DejaVuSans-31"/>
       <use xlink:href="#DejaVuSans-33" x="63.623047"/>
       <use xlink:href="#DejaVuSans-30" x="127.246094"/>
       <use xlink:href="#DejaVuSans-30" x="190.869141"/>
      </g>
     </g>
    </g>
   </g>
   <g id="matplotlib.axis_2">
    <g id="ytick_1">
     <g id="line2d_7">
      <defs>
       <path id="m62726d8f93" d="M 0 0 
L -3.5 0 
" style="stroke: #000000; stroke-width: 0.8"/>
      </defs>
      <g>
       <use xlink:href="#m62726d8f93" x="180" y="715.112009" style="stroke: #000000; stroke-width: 0.8"/>
      </g>
     </g>
     <g id="text_7">
      <!-- 1300 -->
      <g transform="translate(147.55 718.911228) scale(0.1 -0.1)">
       <use xlink:href="#DejaVuSans-31"/>
       <use xlink:href="#DejaVuSans-33" x="63.623047"/>
       <use xlink:href="#DejaVuSans-30" x="127.246094"/>
       <use xlink:href="#DejaVuSans-30" x="190.869141"/>
      </g>
     </g>
    </g>
    <g id="ytick_2">
     <g id="line2d_8">
      <g>
       <use xlink:href="#m62726d8f93" x="180" y="671.423159" style="stroke: #000000; stroke-width: 0.8"/>
      </g>
     </g>
     <g id="text_8">
      <!-- 1325 -->
      <g transform="translate(147.55 675.222377) scale(0.1 -0.1)">
       <defs>
        <path id="DejaVuSans-35" d="M 691 4666 
L 3169 4666 
L 3169 4134 
L 1269 4134 
L 1269 2991 
Q 1406 3038 1543 3061 
Q 1681 3084 1819 3084 
Q 2600 3084 3056 2656 
Q 3513 2228 3513 1497 
Q 3513 744 3044 326 
Q 2575 -91 1722 -91 
Q 1428 -91 1123 -41 
Q 819 9 494 109 
L 494 744 
Q 775 591 1075 516 
Q 1375 441 1709 441 
Q 2250 441 2565 725 
Q 2881 1009 2881 1497 
Q 2881 1984 2565 2268 
Q 2250 2553 1709 2553 
Q 1456 2553 1204 2497 
Q 953 2441 691 2322 
L 691 4666 
z
" transform="scale(0.015625)"/>
       </defs>
       <use xlink:href="#DejaVuSans-31"/>
       <use xlink:href="#DejaVuSans-33" x="63.623047"/>
       <use xlink:href="#DejaVuSans-32" x="127.246094"/>
       <use xlink:href="#DejaVuSans-35" x="190.869141"/>
      </g>
     </g>
    </g>
    <g id="ytick_3">
     <g id="line2d_9">
      <g>
       <use xlink:href="#m62726d8f93" x="180" y="627.734308" style="stroke: #000000; stroke-width: 0.8"/>
      </g>
     </g>
     <g id="text_9">
      <!-- 1350 -->
      <g transform="translate(147.55 631.533527) scale(0.1 -0.1)">
       <use xlink:href="#DejaVuSans-31"/>
       <use xlink:href="#DejaVuSans-33" x="63.623047"/>
       <use xlink:href="#DejaVuSans-35" x="127.246094"/>
       <use xlink:href="#DejaVuSans-30" x="190.869141"/>
      </g>
     </g>
    </g>
    <g id="ytick_4">
     <g id="line2d_10">
      <g>
       <use xlink:href="#m62726d8f93" x="180" y="584.045458" style="stroke: #000000; stroke-width: 0.8"/>
      </g>
     </g>
     <g id="text_10">
      <!-- 1375 -->
      <g transform="translate(147.55 587.844677) scale(0.1 -0.1)">
       <defs>
        <path id="DejaVuSans-37" d="M 525 4666 
L 3525 4666 
L 3525 4397 
L 1831 0 
L 1172 0 
L 2766 4134 
L 525 4134 
L 525 4666 
z
" transform="scale(0.015625)"/>
       </defs>
       <use xlink:href="#DejaVuSans-31"/>
       <use xlink:href="#DejaVuSans-33" x="63.623047"/>
       <use xlink:href="#DejaVuSans-37" x="127.246094"/>
       <use xlink:href="#DejaVuSans-35" x="190.869141"/>
      </g>
     </g>
    </g>
    <g id="ytick_5">
     <g id="line2d_11">
      <g>
       <use xlink:href="#m62726d8f93" x="180" y="540.356607" style="stroke: #000000; stroke-width: 0.8"/>
      </g>
     </g>
     <g id="text_11">
      <!-- 1400 -->
      <g transform="translate(147.55 544.155826) scale(0.1 -0.1)">
       <defs>
        <path id="DejaVuSans-34" d="M 2419 4116 
L 825 1625 
L 2419 1625 
L 2419 4116 
z
M 2253 4666 
L 3047 4666 
L 3047 1625 
L 3713 1625 
L 3713 1100 
L 3047 1100 
L 3047 0 
L 2419 0 
L 2419 1100 
L 313 1100 
L 313 1709 
L 2253 4666 
z
" transform="scale(0.015625)"/>
       </defs>
       <use xlink:href="#DejaVuSans-31"/>
       <use xlink:href="#DejaVuSans-34" x="63.623047"/>
       <use xlink:href="#DejaVuSans-30" x="127.246094"/>
       <use xlink:href="#DejaVuSans-30" x="190.869141"/>
      </g>
     </g>
    </g>
    <g id="ytick_6">
     <g id="line2d_12">
      <g>
       <use xlink:href="#m62726d8f93" x="180" y="496.667757" style="stroke: #000000; stroke-width: 0.8"/>
      </g>
     </g>
     <g id="text_12">
      <!-- 1425 -->
      <g transform="translate(147.55 500.466976) scale(0.1 -0.1)">
       <use xlink:href="#DejaVuSans-31"/>
       <use xlink:href="#DejaVuSans-34" x="63.623047"/>
       <use xlink:href="#DejaVuSans-32" x="127.246094"/>
       <use xlink:href="#DejaVuSans-35" x="190.869141"/>
      </g>
     </g>
    </g>
    <g id="ytick_7">
     <g id="line2d_13">
      <g>
       <use xlink:href="#m62726d8f93" x="180" y="452.978907" style="stroke: #000000; stroke-width: 0.8"/>
      </g>
     </g>
     <g id="text_13">
      <!-- 1450 -->
      <g transform="translate(147.55 456.778125) scale(0.1 -0.1)">
       <use xlink:href="#DejaVuSans-31"/>
       <use xlink:href="#DejaVuSans-34" x="63.623047"/>
       <use xlink:href="#DejaVuSans-35" x="127.246094"/>
       <use xlink:href="#DejaVuSans-30" x="190.869141"/>
      </g>
     </g>
    </g>
    <g id="ytick_8">
     <g id="line2d_14">
      <g>
       <use xlink:href="#m62726d8f93" x="180" y="409.290056" style="stroke: #000000; stroke-width: 0.8"/>
      </g>
     </g>
     <g id="text_14">
      <!-- 1475 -->
      <g transform="translate(147.55 413.089275) scale(0.1 -0.1)">
       <use xlink:href="#DejaVuSans-31"/>
       <use xlink:href="#DejaVuSans-34" x="63.623047"/>
       <use xlink:href="#DejaVuSans-37" x="127.246094"/>
       <use xlink:href="#DejaVuSans-35" x="190.869141"/>
      </g>
     </g>
    </g>
   </g>
   <g id="LineCollection_1">
    <path d="M 1245.272727 578.507479 
L 1234.699128 543.429899 
L 1223.864174 512.653251 
L 1212.747148 485.833575 
L 1201.311047 462.64554 
L 1189.500126 442.791252 
L 1178.569869 427.655433 
L 1177.242784 426.015467 
L 1166.237499 413.84673 
L 1164.467557 412.125972 
L 1153.40191 402.671211 
L 1151.140273 401.008399 
L 1138.700682 393.265776 
L 1137.316915 392.611888 
L 1124.693814 387.321197 
L 1123.175904 386.887343 
L 1110.50491 383.885331 
L 1108.982279 383.705355 
L 1097.80429 382.834348 
L 1094.991658 382.821577 
L 1083.813603 383.59053 
L 1081.368568 383.917375 
L 1070.200016 386.147599 
L 1068.171255 386.6691 
L 1055.384679 390.79319 
L 1042.96056 396.057342 
L 1030.843941 402.273244 
L 1018.985575 409.285084 
L 1007.345681 416.960014 
L 995.893743 425.181684 
L 984.606954 433.846246 
L 973.468472 442.859967 
L 962.465894 452.137793 
L 951.590052 461.602458 
L 940.834099 471.183875 
L 919.66221 490.449919 
L 888.67198 518.86967 
L 868.510626 537.013241 
L 858.575798 545.75093 
L 848.735235 554.235906 
L 838.986678 562.45046 
L 829.327796 570.380324 
L 819.756173 578.014339 
L 810.269296 585.344137 
L 800.864555 592.363816 
L 791.539247 599.069627 
L 782.290599 605.45966 
L 773.115779 611.533544 
L 764.011932 617.292152 
L 754.976212 622.737323 
L 746.005812 627.871591 
L 737.098015 632.697944 
L 728.250221 637.219586 
L 719.459997 641.439736 
L 710.725102 645.361435 
L 702.043516 648.987388 
L 693.41346 652.319825 
L 684.833398 655.360385 
L 676.302023 658.110026 
L 667.818235 660.568962 
L 659.381086 662.736611 
L 650.989713 664.61157 
L 642.643242 666.191602 
L 634.34067 667.47363 
L 626.080728 668.453738 
L 617.861718 669.127173 
L 609.68135 669.488333 
L 601.536561 669.530746 
L 593.423367 669.247032 
L 585.336723 668.62885 
L 577.270448 667.666837 
L 569.217205 666.350554 
L 561.168568 664.66846 
L 553.115166 662.607942 
L 545.046904 660.155427 
L 536.953243 657.2966 
L 528.823496 654.016751 
L 520.647115 650.301245 
L 512.413925 646.136103 
L 504.114266 641.508682 
L 495.739043 636.408402 
L 487.279665 630.827502 
L 478.72789 624.761798 
L 470.075584 618.211405 
L 461.314431 611.181442 
L 452.435591 603.682689 
L 443.429349 595.732232 
L 434.284735 587.354079 
L 424.989127 578.579789 
L 405.883627 560.010542 
L 385.910306 540.403071 
L 375.537615 530.393089 
L 364.86699 520.36939 
L 353.854207 510.437146 
L 342.445403 500.717427 
L 330.57493 491.35058 
L 318.163539 482.501619 
L 305.118396 474.368614 
L 291.338195 467.194621 
L 278.761987 461.991706 
L 276.728728 461.281108 
L 263.695526 457.53101 
L 261.233818 456.994502 
L 246.291351 454.804099 
L 244.876324 454.749617 
L 230.790405 454.726487 
L 230.790405 454.726487 
" clip-path="url(#pc3037e0458)" style="fill: none; stroke: #1f77b4; stroke-width: 1.5"/>
    <path d="M 1226.864627 584.045458 
L 1216.561415 549.797842 
L 1206.096128 519.989728 
L 1195.48803 494.298218 
L 1184.75545 472.414857 
L 1173.915791 454.045401 
L 1162.985535 438.909582 
L 1151.98025 426.740844 
L 1140.914603 417.286083 
L 1129.802373 410.305361 
L 1118.656462 405.571615 
L 1107.488913 402.870354 
L 1096.310923 401.999348 
L 1085.132868 402.768301 
L 1073.964316 404.998525 
L 1062.814052 408.522594 
L 1051.690099 413.184002 
L 1040.59974 418.83681 
L 1029.549543 425.345282 
L 1018.545385 432.583522 
L 1007.59248 440.435106 
L 996.695402 448.792709 
L 985.858115 457.557725 
L 975.083999 466.639889 
L 964.375877 475.956901 
L 953.736046 485.434037 
L 943.166304 495.00377 
L 932.667979 504.605389 
L 922.241958 514.184614 
L 911.888716 523.693221 
L 901.608344 533.088662 
L 891.40058 542.333691 
L 881.264835 551.395997 
L 871.200222 560.247832 
L 861.205585 568.865657 
L 851.279525 577.229783 
L 841.420426 585.324023 
L 831.626483 593.135354 
L 821.895725 600.65358 
L 812.226043 607.87101 
L 802.615208 614.782144 
L 793.060899 621.383362 
L 783.560721 627.672639 
L 774.112227 633.649253 
L 764.712936 639.313521 
L 755.360349 644.666537 
L 746.051971 649.709928 
L 736.785318 654.445628 
L 727.557935 658.875656 
L 718.367407 663.00192 
L 709.211366 666.826035 
L 700.087501 670.349152 
L 690.993564 673.571816 
L 681.927371 676.493828 
L 672.886807 679.11414 
L 663.869822 681.430758 
L 654.874432 683.440679 
L 645.89871 685.139831 
L 636.94078 686.523055 
L 627.998807 687.584092 
L 619.070983 688.315604 
L 610.155512 688.709218 
L 601.250591 688.755589 
L 592.35439 688.444494 
L 583.465025 687.764948 
L 574.580534 686.705352 
L 565.698844 685.253661 
L 556.817737 683.397589 
L 547.934814 681.124833 
L 539.047455 678.423336 
L 530.152774 675.281574 
L 521.247571 671.688877 
L 512.328281 667.635778 
L 503.390919 663.114398 
L 494.431022 658.118866 
L 485.443586 652.645765 
L 476.422997 646.694618 
L 467.362964 640.26841 
L 458.25644 633.374143 
L 449.095545 626.023426 
L 439.871481 618.23311 
L 430.574447 610.025949 
L 421.193541 601.43131 
L 411.716667 592.485919 
L 402.130431 583.234644 
L 392.420037 573.73132 
L 382.569172 564.039622 
L 372.559889 554.233968 
L 362.37249 544.400474 
L 351.985395 534.637953 
L 341.375013 525.058947 
L 330.515601 515.79082 
L 319.379127 506.976884 
L 307.935116 498.777574 
L 296.150499 491.371677 
L 283.989457 484.957599 
L 271.413249 479.754685 
L 258.380047 476.004587 
L 244.844758 473.972685 
L 230.758839 473.949555 
" clip-path="url(#pc3037e0458)" style="fill: none; stroke: #8c564b; stroke-width: 1.5"/>
    <path d="M 1208.456527 589.583436 
L 1198.279084 555.753873 
L 1188.130186 526.846924 
L 1177.95628 502.206975 
L 1167.822923 481.545409 
L 1157.811527 464.57957 
L 1148.01968 451.020179 
L 1138.552614 440.552277 
L 1129.497247 432.815149 
L 1120.875773 427.399123 
L 1112.598683 423.883786 
L 1104.463291 421.915958 
L 1096.223404 421.273893 
L 1087.685157 421.86125 
L 1078.757224 423.64405 
L 1069.438883 426.589135 
L 1059.780797 430.636283 
L 1049.850985 435.697555 
L 1039.715661 441.667174 
L 1029.431602 448.431752 
L 1019.044691 455.877604 
L 1008.590975 463.895167 
L 998.098424 472.381365 
L 987.588638 481.24071 
L 977.07827 490.385658 
L 966.580143 499.736576 
L 945.657616 518.775681 
L 914.512613 547.336721 
L 893.960086 565.830606 
L 883.753211 574.806328 
L 873.592492 583.565721 
L 863.477306 592.087154 
L 853.406694 600.352554 
L 843.379421 608.347053 
L 833.394037 616.05865 
L 823.448916 623.477883 
L 813.542294 630.59752 
L 803.672298 637.41226 
L 793.836956 643.918449 
L 784.034214 650.113807 
L 774.261933 655.997166 
L 764.517886 661.568219 
L 754.79975 666.82728 
L 745.105097 671.775043 
L 735.431378 676.412367 
L 725.77592 680.740051 
L 716.135914 684.75863 
L 706.508429 688.468176 
L 696.890416 691.868113 
L 687.278737 694.957041 
L 677.670206 697.732583 
L 668.061646 700.191248 
L 658.449964 702.328318 
L 648.832245 704.137771 
L 639.205864 705.612234 
L 629.568615 706.742981 
L 619.918848 707.519991 
L 610.255612 707.932052 
L 600.578781 707.966941 
L 590.889159 707.611665 
L 581.188543 706.852771 
L 571.479712 705.676706 
L 561.76635 704.070219 
L 552.052866 702.020783 
L 542.344135 699.516996 
L 532.645161 696.548953 
L 522.960692 693.108557 
L 513.294825 689.189768 
L 503.650634 684.788789 
L 494.029865 679.904217 
L 484.432717 674.537187 
L 474.857719 668.691536 
L 465.30171 662.374041 
L 455.759886 655.594725 
L 446.225926 648.367277 
L 436.692144 640.709576 
L 427.149671 632.644317 
L 417.588645 624.199738 
L 407.998403 615.410426 
L 398.367697 606.318213 
L 378.938413 587.434355 
L 359.158305 568.015475 
L 349.114131 558.320232 
L 338.960726 548.777348 
L 328.692158 539.506931 
L 318.306926 530.643499 
L 307.809715 522.335506 
L 297.213153 514.74337 
L 286.538569 508.03506 
L 275.813443 502.378325 
L 265.061204 497.930006 
L 254.277804 494.827253 
L 243.394228 493.193423 
L 230.727273 493.172623 
L 230.727273 493.172623 
" clip-path="url(#pc3037e0458)" style="fill: none; stroke: #17becf; stroke-width: 1.5"/>
   </g>
   <g id="patch_3">
    <path d="M 180 724.236265 
L 180 366.563735 
" style="fill: none; stroke: #000000; stroke-width: 0.8; stroke-linejoin: miter; stroke-linecap: square"/>
   </g>
   <g id="patch_4">
    <path d="M 1296 724.236265 
L 1296 366.563735 
" style="fill: none; stroke: #000000; stroke-width: 0.8; stroke-linejoin: miter; stroke-linecap: square"/>
   </g>
   <g id="patch_5">
    <path d="M 180 724.236265 
L 1296 724.236265 
" style="fill: none; stroke: #000000; stroke-width: 0.8; stroke-linejoin: miter; stroke-linecap: square"/>
   </g>
   <g id="patch_6">
    <path d="M 180 366.563735 
L 1296 366.563735 
" style="fill: none; stroke: #000000; stroke-width: 0.8; stroke-linejoin: miter; stroke-linecap: square"/>
   </g>
  </g>
 </g>
 <defs>
  <clipPath id="pc3037e0458">
   <rect x="180" y="366.563735" width="1116" height="357.672531"/>
  </clipPath>
 </defs>
</svg>
