<?xml version="1.0" encoding="utf-8" standalone="no"?>
<!DOCTYPE svg PUBLIC "-//W3C//DTD SVG 1.1//EN"
  "http://www.w3.org/Graphics/SVG/1.1/DTD/svg11.dtd">
<svg xmlns:xlink="http://www.w3.org/1999/xlink" width="1440pt" height="1080pt" viewBox="0 0 1440 1080" xmlns="http://www.w3.org/2000/svg" version="1.1">
 <metadata>
  <rdf:RDF xmlns:dc="http://purl.org/dc/elements/1.1/" xmlns:cc="http://creativecommons.org/ns#" xmlns:rdf="http://www.w3.org/1999/02/22-rdf-syntax-ns#">
   <cc:Work>
    <dc:type rdf:resource="http://purl.org/dc/dcmitype/StillImage"/>
    <dc:date>2023-12-11T12:06:55.279690</dc:date>
    <dc:format>image/svg+xml</dc:format>
    <dc:creator>
     <cc:Agent>
      <dc:title>Matplotlib v3.7.1, https://matplotlib.org/</dc:title>
     </cc:Agent>
    </dc:creator>
   </cc:Work>
  </rdf:RDF>
 </metadata>
 <defs>
  <style type="text/css">*{stroke-linejoin: round; stroke-linecap: butt}</style>
 </defs>
 <g id="figure_1">
  <g id="patch_1">
   <path d="M 0 1080 
L 1440 1080 
L 1440 0 
L 0 0 
z
" style="fill: #ffffff"/>
  </g>
  <g id="axes_1">
   <g id="patch_2">
    <path d="M 180 946.749969 
L 1296 946.749969 
L 1296 144.050031 
L 180 144.050031 
z
" style="fill: #ffffff"/>
   </g>
   <g id="matplotlib.axis_1">
    <g id="xtick_1">
     <g id="line2d_1">
      <defs>
       <path id="m051eeb1ff6" d="M 0 0 
L 0 3.5 
" style="stroke: #000000; stroke-width: 0.8"/>
      </defs>
      <g>
       <use xlink:href="#m051eeb1ff6" x="315.200279" y="946.749969" style="stroke: #000000; stroke-width: 0.8"/>
      </g>
     </g>
     <g id="text_1">
      <!-- 300 -->
      <g transform="translate(305.656529 961.348407) scale(0.1 -0.1)">
       <defs>
        <path id="DejaVuSans-33" d="M 2597 2516 
Q 3050 2419 3304 2112 
Q 3559 1806 3559 1356 
Q 3559 666 3084 287 
Q 2609 -91 1734 -91 
Q 1441 -91 1130 -33 
Q 819 25 488 141 
L 488 750 
Q 750 597 1062 519 
Q 1375 441 1716 441 
Q 2309 441 2620 675 
Q 2931 909 2931 1356 
Q 2931 1769 2642 2001 
Q 2353 2234 1838 2234 
L 1294 2234 
L 1294 2753 
L 1863 2753 
Q 2328 2753 2575 2939 
Q 2822 3125 2822 3475 
Q 2822 3834 2567 4026 
Q 2313 4219 1838 4219 
Q 1578 4219 1281 4162 
Q 984 4106 628 3988 
L 628 4550 
Q 988 4650 1302 4700 
Q 1616 4750 1894 4750 
Q 2613 4750 3031 4423 
Q 3450 4097 3450 3541 
Q 3450 3153 3228 2886 
Q 3006 2619 2597 2516 
z
" transform="scale(0.015625)"/>
        <path id="DejaVuSans-30" d="M 2034 4250 
Q 1547 4250 1301 3770 
Q 1056 3291 1056 2328 
Q 1056 1369 1301 889 
Q 1547 409 2034 409 
Q 2525 409 2770 889 
Q 3016 1369 3016 2328 
Q 3016 3291 2770 3770 
Q 2525 4250 2034 4250 
z
M 2034 4750 
Q 2819 4750 3233 4129 
Q 3647 3509 3647 2328 
Q 3647 1150 3233 529 
Q 2819 -91 2034 -91 
Q 1250 -91 836 529 
Q 422 1150 422 2328 
Q 422 3509 836 4129 
Q 1250 4750 2034 4750 
z
" transform="scale(0.015625)"/>
       </defs>
       <use xlink:href="#DejaVuSans-33"/>
       <use xlink:href="#DejaVuSans-30" x="63.623047"/>
       <use xlink:href="#DejaVuSans-30" x="127.246094"/>
      </g>
     </g>
    </g>
    <g id="xtick_2">
     <g id="line2d_2">
      <g>
       <use xlink:href="#m051eeb1ff6" x="482.61001" y="946.749969" style="stroke: #000000; stroke-width: 0.8"/>
      </g>
     </g>
     <g id="text_2">
      <!-- 400 -->
      <g transform="translate(473.06626 961.348407) scale(0.1 -0.1)">
       <defs>
        <path id="DejaVuSans-34" d="M 2419 4116 
L 825 1625 
L 2419 1625 
L 2419 4116 
z
M 2253 4666 
L 3047 4666 
L 3047 1625 
L 3713 1625 
L 3713 1100 
L 3047 1100 
L 3047 0 
L 2419 0 
L 2419 1100 
L 313 1100 
L 313 1709 
L 2253 4666 
z
" transform="scale(0.015625)"/>
       </defs>
       <use xlink:href="#DejaVuSans-34"/>
       <use xlink:href="#DejaVuSans-30" x="63.623047"/>
       <use xlink:href="#DejaVuSans-30" x="127.246094"/>
      </g>
     </g>
    </g>
    <g id="xtick_3">
     <g id="line2d_3">
      <g>
       <use xlink:href="#m051eeb1ff6" x="650.01974" y="946.749969" style="stroke: #000000; stroke-width: 0.8"/>
      </g>
     </g>
     <g id="text_3">
      <!-- 500 -->
      <g transform="translate(640.47599 961.348407) scale(0.1 -0.1)">
       <defs>
        <path id="DejaVuSans-35" d="M 691 4666 
L 3169 4666 
L 3169 4134 
L 1269 4134 
L 1269 2991 
Q 1406 3038 1543 3061 
Q 1681 3084 1819 3084 
Q 2600 3084 3056 2656 
Q 3513 2228 3513 1497 
Q 3513 744 3044 326 
Q 2575 -91 1722 -91 
Q 1428 -91 1123 -41 
Q 819 9 494 109 
L 494 744 
Q 775 591 1075 516 
Q 1375 441 1709 441 
Q 2250 441 2565 725 
Q 2881 1009 2881 1497 
Q 2881 1984 2565 2268 
Q 2250 2553 1709 2553 
Q 1456 2553 1204 2497 
Q 953 2441 691 2322 
L 691 4666 
z
" transform="scale(0.015625)"/>
       </defs>
       <use xlink:href="#DejaVuSans-35"/>
       <use xlink:href="#DejaVuSans-30" x="63.623047"/>
       <use xlink:href="#DejaVuSans-30" x="127.246094"/>
      </g>
     </g>
    </g>
    <g id="xtick_4">
     <g id="line2d_4">
      <g>
       <use xlink:href="#m051eeb1ff6" x="817.42947" y="946.749969" style="stroke: #000000; stroke-width: 0.8"/>
      </g>
     </g>
     <g id="text_4">
      <!-- 600 -->
      <g transform="translate(807.88572 961.348407) scale(0.1 -0.1)">
       <defs>
        <path id="DejaVuSans-36" d="M 2113 2584 
Q 1688 2584 1439 2293 
Q 1191 2003 1191 1497 
Q 1191 994 1439 701 
Q 1688 409 2113 409 
Q 2538 409 2786 701 
Q 3034 994 3034 1497 
Q 3034 2003 2786 2293 
Q 2538 2584 2113 2584 
z
M 3366 4563 
L 3366 3988 
Q 3128 4100 2886 4159 
Q 2644 4219 2406 4219 
Q 1781 4219 1451 3797 
Q 1122 3375 1075 2522 
Q 1259 2794 1537 2939 
Q 1816 3084 2150 3084 
Q 2853 3084 3261 2657 
Q 3669 2231 3669 1497 
Q 3669 778 3244 343 
Q 2819 -91 2113 -91 
Q 1303 -91 875 529 
Q 447 1150 447 2328 
Q 447 3434 972 4092 
Q 1497 4750 2381 4750 
Q 2619 4750 2861 4703 
Q 3103 4656 3366 4563 
z
" transform="scale(0.015625)"/>
       </defs>
       <use xlink:href="#DejaVuSans-36"/>
       <use xlink:href="#DejaVuSans-30" x="63.623047"/>
       <use xlink:href="#DejaVuSans-30" x="127.246094"/>
      </g>
     </g>
    </g>
    <g id="xtick_5">
     <g id="line2d_5">
      <g>
       <use xlink:href="#m051eeb1ff6" x="984.8392" y="946.749969" style="stroke: #000000; stroke-width: 0.8"/>
      </g>
     </g>
     <g id="text_5">
      <!-- 700 -->
      <g transform="translate(975.29545 961.348407) scale(0.1 -0.1)">
       <defs>
        <path id="DejaVuSans-37" d="M 525 4666 
L 3525 4666 
L 3525 4397 
L 1831 0 
L 1172 0 
L 2766 4134 
L 525 4134 
L 525 4666 
z
" transform="scale(0.015625)"/>
       </defs>
       <use xlink:href="#DejaVuSans-37"/>
       <use xlink:href="#DejaVuSans-30" x="63.623047"/>
       <use xlink:href="#DejaVuSans-30" x="127.246094"/>
      </g>
     </g>
    </g>
    <g id="xtick_6">
     <g id="line2d_6">
      <g>
       <use xlink:href="#m051eeb1ff6" x="1152.24893" y="946.749969" style="stroke: #000000; stroke-width: 0.8"/>
      </g>
     </g>
     <g id="text_6">
      <!-- 800 -->
      <g transform="translate(1142.70518 961.348407) scale(0.1 -0.1)">
       <defs>
        <path id="DejaVuSans-38" d="M 2034 2216 
Q 1584 2216 1326 1975 
Q 1069 1734 1069 1313 
Q 1069 891 1326 650 
Q 1584 409 2034 409 
Q 2484 409 2743 651 
Q 3003 894 3003 1313 
Q 3003 1734 2745 1975 
Q 2488 2216 2034 2216 
z
M 1403 2484 
Q 997 2584 770 2862 
Q 544 3141 544 3541 
Q 544 4100 942 4425 
Q 1341 4750 2034 4750 
Q 2731 4750 3128 4425 
Q 3525 4100 3525 3541 
Q 3525 3141 3298 2862 
Q 3072 2584 2669 2484 
Q 3125 2378 3379 2068 
Q 3634 1759 3634 1313 
Q 3634 634 3220 271 
Q 2806 -91 2034 -91 
Q 1263 -91 848 271 
Q 434 634 434 1313 
Q 434 1759 690 2068 
Q 947 2378 1403 2484 
z
M 1172 3481 
Q 1172 3119 1398 2916 
Q 1625 2713 2034 2713 
Q 2441 2713 2670 2916 
Q 2900 3119 2900 3481 
Q 2900 3844 2670 4047 
Q 2441 4250 2034 4250 
Q 1625 4250 1398 4047 
Q 1172 3844 1172 3481 
z
" transform="scale(0.015625)"/>
       </defs>
       <use xlink:href="#DejaVuSans-38"/>
       <use xlink:href="#DejaVuSans-30" x="63.623047"/>
       <use xlink:href="#DejaVuSans-30" x="127.246094"/>
      </g>
     </g>
    </g>
   </g>
   <g id="matplotlib.axis_2">
    <g id="ytick_1">
     <g id="line2d_7">
      <defs>
       <path id="m6a4b9d256c" d="M 0 0 
L -3.5 0 
" style="stroke: #000000; stroke-width: 0.8"/>
      </defs>
      <g>
       <use xlink:href="#m6a4b9d256c" x="180" y="918.391759" style="stroke: #000000; stroke-width: 0.8"/>
      </g>
     </g>
     <g id="text_7">
      <!-- 700 -->
      <g transform="translate(153.9125 922.190977) scale(0.1 -0.1)">
       <use xlink:href="#DejaVuSans-37"/>
       <use xlink:href="#DejaVuSans-30" x="63.623047"/>
       <use xlink:href="#DejaVuSans-30" x="127.246094"/>
      </g>
     </g>
    </g>
    <g id="ytick_2">
     <g id="line2d_8">
      <g>
       <use xlink:href="#m6a4b9d256c" x="180" y="750.982028" style="stroke: #000000; stroke-width: 0.8"/>
      </g>
     </g>
     <g id="text_8">
      <!-- 800 -->
      <g transform="translate(153.9125 754.781247) scale(0.1 -0.1)">
       <use xlink:href="#DejaVuSans-38"/>
       <use xlink:href="#DejaVuSans-30" x="63.623047"/>
       <use xlink:href="#DejaVuSans-30" x="127.246094"/>
      </g>
     </g>
    </g>
    <g id="ytick_3">
     <g id="line2d_9">
      <g>
       <use xlink:href="#m6a4b9d256c" x="180" y="583.572298" style="stroke: #000000; stroke-width: 0.8"/>
      </g>
     </g>
     <g id="text_9">
      <!-- 900 -->
      <g transform="translate(153.9125 587.371517) scale(0.1 -0.1)">
       <defs>
        <path id="DejaVuSans-39" d="M 703 97 
L 703 672 
Q 941 559 1184 500 
Q 1428 441 1663 441 
Q 2288 441 2617 861 
Q 2947 1281 2994 2138 
Q 2813 1869 2534 1725 
Q 2256 1581 1919 1581 
Q 1219 1581 811 2004 
Q 403 2428 403 3163 
Q 403 3881 828 4315 
Q 1253 4750 1959 4750 
Q 2769 4750 3195 4129 
Q 3622 3509 3622 2328 
Q 3622 1225 3098 567 
Q 2575 -91 1691 -91 
Q 1453 -91 1209 -44 
Q 966 3 703 97 
z
M 1959 2075 
Q 2384 2075 2632 2365 
Q 2881 2656 2881 3163 
Q 2881 3666 2632 3958 
Q 2384 4250 1959 4250 
Q 1534 4250 1286 3958 
Q 1038 3666 1038 3163 
Q 1038 2656 1286 2365 
Q 1534 2075 1959 2075 
z
" transform="scale(0.015625)"/>
       </defs>
       <use xlink:href="#DejaVuSans-39"/>
       <use xlink:href="#DejaVuSans-30" x="63.623047"/>
       <use xlink:href="#DejaVuSans-30" x="127.246094"/>
      </g>
     </g>
    </g>
    <g id="ytick_4">
     <g id="line2d_10">
      <g>
       <use xlink:href="#m6a4b9d256c" x="180" y="416.162568" style="stroke: #000000; stroke-width: 0.8"/>
      </g>
     </g>
     <g id="text_10">
      <!-- 1000 -->
      <g transform="translate(147.55 419.961787) scale(0.1 -0.1)">
       <defs>
        <path id="DejaVuSans-31" d="M 794 531 
L 1825 531 
L 1825 4091 
L 703 3866 
L 703 4441 
L 1819 4666 
L 2450 4666 
L 2450 531 
L 3481 531 
L 3481 0 
L 794 0 
L 794 531 
z
" transform="scale(0.015625)"/>
       </defs>
       <use xlink:href="#DejaVuSans-31"/>
       <use xlink:href="#DejaVuSans-30" x="63.623047"/>
       <use xlink:href="#DejaVuSans-30" x="127.246094"/>
       <use xlink:href="#DejaVuSans-30" x="190.869141"/>
      </g>
     </g>
    </g>
    <g id="ytick_5">
     <g id="line2d_11">
      <g>
       <use xlink:href="#m6a4b9d256c" x="180" y="248.752838" style="stroke: #000000; stroke-width: 0.8"/>
      </g>
     </g>
     <g id="text_11">
      <!-- 1100 -->
      <g transform="translate(147.55 252.552057) scale(0.1 -0.1)">
       <use xlink:href="#DejaVuSans-31"/>
       <use xlink:href="#DejaVuSans-31" x="63.623047"/>
       <use xlink:href="#DejaVuSans-30" x="127.246094"/>
       <use xlink:href="#DejaVuSans-30" x="190.869141"/>
      </g>
     </g>
    </g>
   </g>
   <g id="LineCollection_1">
    <path d="M 410.521992 876.29699 
L 391.371484 831.106424 
L 374.640693 789.510076 
L 360.177562 751.170237 
L 347.951182 716.060101 
L 337.918212 684.153562 
L 330.021084 655.429608 
L 324.184097 629.877353 
L 320.305945 607.5011 
L 318.246537 588.323237 
L 317.805864 572.379306 
L 318.695614 559.692835 
L 320.516611 550.209759 
L 322.783921 543.67909 
L 325.067941 539.525912 
L 327.254478 536.872975 
L 329.718507 534.841167 
L 333.152486 532.934041 
L 338.169581 531.13209 
L 345.062656 529.678485 
L 353.829419 528.838669 
L 364.304583 528.789364 
L 376.267318 529.607988 
L 389.497002 531.298035 
L 403.794044 533.816463 
L 418.984062 537.093701 
L 434.915816 541.046414 
L 451.457565 545.585216 
L 468.493567 550.619225 
L 485.921229 556.058752 
L 503.648925 561.816889 
L 539.683484 573.960565 
L 594.261593 592.65998 
L 612.364829 598.755749 
L 630.339293 604.684114 
L 648.14809 610.394958 
L 665.759228 615.842781 
L 683.145383 620.986542 
L 700.283647 625.789476 
L 717.155239 630.218891 
L 733.745167 634.245953 
L 750.041835 637.845465 
L 766.036578 640.995672 
L 781.723148 643.678089 
L 797.097129 645.877397 
L 812.155329 647.58141 
L 826.89517 648.781157 
L 841.314139 649.471066 
L 855.409347 649.64926 
L 869.177285 649.317928 
L 882.613825 648.483711 
L 895.714502 647.158032 
L 908.475066 645.357249 
L 920.892255 643.102583 
L 932.964686 640.41972 
L 944.693724 637.338107 
L 956.084211 633.889963 
L 967.144949 630.109109 
L 977.888876 626.029706 
L 988.332944 621.685045 
L 998.497735 617.106445 
L 1008.406892 612.322336 
L 1018.086441 607.357552 
L 1027.564074 602.232795 
L 1036.868455 596.964283 
L 1046.028561 591.563493 
L 1055.073086 586.037007 
L 1064.029901 580.386375 
L 1072.925545 574.607997 
L 1081.784731 568.692976 
L 1090.629849 562.626925 
L 1099.480427 556.389722 
L 1108.352532 549.95519 
L 1117.258071 543.290726 
L 1126.20396 536.356892 
L 1135.191115 529.107021 
L 1144.213238 521.486909 
L 1153.255343 513.434722 
L 1162.29207 504.881266 
L 1171.285821 495.750835 
L 1180.184961 485.962798 
L 1188.922413 475.434059 
L 1197.415177 464.082286 
L 1205.565338 451.829477 
L 1213.263002 438.605043 
L 1220.391096 424.347296 
L 1226.831314 409.002344 
L 1232.469839 392.519982 
L 1237.201296 374.847192 
L 1240.929895 355.920723 
L 1243.567671 335.660533 
L 1245.030667 313.965433 
L 1245.234319 290.71139 
L 1244.089211 265.752131 
L 1241.497881 238.921238 
L 1237.35286 210.034871 
L 1231.873616 180.536391 
L 1231.873616 180.536391 
" clip-path="url(#p1ea7bbd13c)" style="fill: none; stroke: #1f77b4; stroke-width: 1.5"/>
    <path d="M 370.44549 893.280299 
L 351.138617 847.720749 
L 334.082139 805.314675 
L 319.255502 766.011228 
L 306.627801 729.748631 
L 296.158741 696.455252 
L 287.799545 666.050634 
L 281.493836 638.44648 
L 277.178473 613.5476 
L 274.784355 591.25281 
L 274.237187 571.45579 
L 275.458208 554.045904 
L 278.36489 538.90898 
L 282.871595 525.928047 
L 288.890203 514.984033 
L 296.330706 505.956431 
L 305.101768 498.723922 
L 315.111255 493.164963 
L 326.266731 489.158337 
L 338.475925 486.583674 
L 351.647169 485.321928 
L 365.689806 485.255832 
L 380.514563 486.270308 
L 396.033908 488.252851 
L 412.162367 491.093884 
L 428.816824 494.687073 
L 445.916786 498.929622 
L 463.384629 503.72253 
L 481.145815 508.970826 
L 499.129087 514.58377 
L 517.266637 520.475031 
L 535.494257 526.562837 
L 553.751456 532.770098 
L 571.981568 539.024503 
L 590.131832 545.258596 
L 608.153449 551.409827 
L 626.001625 557.420575 
L 643.635589 563.238157 
L 661.018599 568.814808 
L 678.117917 574.107645 
L 694.904784 579.078604 
L 711.354364 583.694369 
L 727.445676 587.926272 
L 743.161512 591.750173 
L 758.488339 595.146339 
L 773.416184 598.099282 
L 787.93851 600.597606 
L 802.052074 602.633816 
L 815.756775 604.204131 
L 829.05549 605.308271 
L 841.953896 605.949238 
L 854.460286 606.133078 
L 866.585372 605.868638 
L 878.342075 605.167306 
L 889.745316 604.042749 
L 900.811786 602.510628 
L 911.559722 600.588319 
L 922.008664 598.294616 
L 932.179211 595.64943 
L 942.092774 592.67348 
L 951.771319 589.38798 
L 961.237109 585.814318 
L 970.512436 581.973734 
L 979.619362 577.886988 
L 988.579442 573.574033 
L 997.413458 569.05368 
L 1006.141145 564.34326 
L 1014.780917 559.458291 
L 1023.349594 554.412137 
L 1031.862129 549.215678 
L 1040.331339 543.876966 
L 1048.76763 538.400899 
L 1057.178734 532.788886 
L 1065.569441 527.038518 
L 1073.941343 521.143248 
L 1082.292571 515.092069 
L 1090.617549 508.869201 
L 1098.906746 502.453781 
L 1107.146434 495.819566 
L 1115.318458 488.934635 
L 1123.400009 481.761108 
L 1131.363405 474.254864 
L 1139.175884 466.365281 
L 1146.799404 458.034973 
L 1154.19045 449.199548 
L 1161.29986 439.787375 
L 1168.072652 429.71936 
L 1174.44787 418.908742 
L 1180.358439 407.260894 
L 1185.731035 394.673147 
L 1190.485968 381.034624 
L 1194.537078 366.226096 
L 1197.791645 350.119843 
L 1200.150321 332.579547 
L 1201.50707 313.460195 
L 1201.74913 292.607998 
L 1200.75699 269.86034 
L 1198.404385 245.045734 
L 1194.558315 217.983814 
L 1189.079071 188.485335 
" clip-path="url(#p1ea7bbd13c)" style="fill: none; stroke: #8c564b; stroke-width: 1.5"/>
    <path d="M 330.368989 910.263609 
L 310.756206 863.963274 
L 293.356983 820.677631 
L 278.14998 780.325377 
L 265.105702 742.805202 
L 254.189494 707.993931 
L 245.366065 675.743855 
L 238.606669 645.879493 
L 233.900756 618.194962 
L 231.506638 595.900172 
L 231.274441 592.455378 
L 230.727273 572.658357 
L 230.817312 568.410589 
L 232.038333 551.000704 
L 232.712643 545.837647 
L 235.619325 530.700723 
L 237.24597 524.633364 
L 241.752675 511.65243 
L 243.101074 508.240071 
L 244.732075 504.9534 
L 250.750683 494.009386 
L 252.869677 490.548801 
L 255.30173 487.300585 
L 262.742233 478.272984 
L 265.549204 475.182125 
L 268.639407 472.374431 
L 277.410469 465.141922 
L 280.587555 462.757102 
L 283.968839 460.671878 
L 293.978326 455.112918 
L 297.12928 453.526505 
L 300.398356 452.200474 
L 311.553832 448.193848 
L 317.285423 446.568492 
L 329.494618 443.993828 
L 334.325282 443.255496 
L 347.496527 441.993751 
L 351.442301 441.795881 
L 365.484937 441.729785 
L 368.661428 441.83086 
L 386.030106 443.094648 
L 403.584864 445.386293 
L 421.341974 448.546339 
L 439.298108 452.441346 
L 457.434112 456.95451 
L 475.719157 461.980246 
L 494.114316 467.421135 
L 512.575424 473.186248 
L 531.055258 479.190255 
L 567.876414 491.599182 
L 622.129549 510.188045 
L 639.766082 516.127518 
L 657.102363 521.846892 
L 674.102345 527.300664 
L 690.732991 532.44843 
L 706.964449 537.25492 
L 722.770191 541.690024 
L 738.127167 545.728801 
L 753.015951 549.351468 
L 767.420921 552.543366 
L 781.330469 555.294876 
L 794.737241 557.601286 
L 807.638419 559.462581 
L 820.036016 560.883126 
L 831.937167 561.871232 
L 843.354362 562.438592 
L 854.305583 562.599572 
L 864.814254 562.370384 
L 874.908958 561.768198 
L 884.622873 560.810237 
L 893.992906 559.512983 
L 903.058567 557.891555 
L 911.860654 555.959362 
L 920.439885 553.72805 
L 928.835593 551.207745 
L 937.084607 548.407516 
L 945.220416 545.335968 
L 953.272613 542.001839 
L 961.266625 538.414514 
L 969.223662 534.584377 
L 977.160803 530.522953 
L 985.09115 526.242866 
L 993.023992 521.757598 
L 1000.964936 517.081121 
L 1008.915981 512.227422 
L 1016.875543 507.209976 
L 1024.838437 502.041195 
L 1032.795836 496.731899 
L 1040.735235 491.290825 
L 1048.640441 485.724189 
L 1056.491624 480.035336 
L 1064.265457 474.224445 
L 1071.935386 468.288307 
L 1079.472062 462.220126 
L 1086.843981 456.009283 
L 1094.018381 449.640981 
L 1100.962385 443.095611 
L 1107.644372 436.347677 
L 1114.035435 429.364087 
L 1120.110644 422.101645 
L 1125.84967 414.503727 
L 1131.236227 406.496405 
L 1136.255782 397.984617 
L 1140.891349 388.849392 
L 1145.117717 378.947206 
L 1148.895224 368.112225 
L 1152.164574 356.161358 
L 1154.844063 342.901064 
L 1156.829786 328.134229 
L 1157.998441 311.66551 
L 1158.211585 293.304214 
L 1157.320115 272.864697 
L 1155.168007 250.164871 
L 1151.594917 225.023709 
L 1146.284526 196.434279 
L 1146.284526 196.434279 
" clip-path="url(#p1ea7bbd13c)" style="fill: none; stroke: #17becf; stroke-width: 1.5"/>
   </g>
   <g id="patch_3">
    <path d="M 180 946.749969 
L 180 144.050031 
" style="fill: none; stroke: #000000; stroke-width: 0.8; stroke-linejoin: miter; stroke-linecap: square"/>
   </g>
   <g id="patch_4">
    <path d="M 1296 946.749969 
L 1296 144.050031 
" style="fill: none; stroke: #000000; stroke-width: 0.8; stroke-linejoin: miter; stroke-linecap: square"/>
   </g>
   <g id="patch_5">
    <path d="M 180 946.749969 
L 1296 946.749969 
" style="fill: none; stroke: #000000; stroke-width: 0.8; stroke-linejoin: miter; stroke-linecap: square"/>
   </g>
   <g id="patch_6">
    <path d="M 180 144.050031 
L 1296 144.050031 
" style="fill: none; stroke: #000000; stroke-width: 0.8; stroke-linejoin: miter; stroke-linecap: square"/>
   </g>
  </g>
 </g>
 <defs>
  <clipPath id="p1ea7bbd13c">
   <rect x="180" y="144.050031" width="1116" height="802.699939"/>
  </clipPath>
 </defs>
</svg>
