<?xml version="1.0" encoding="utf-8" standalone="no"?>
<!DOCTYPE svg PUBLIC "-//W3C//DTD SVG 1.1//EN"
  "http://www.w3.org/Graphics/SVG/1.1/DTD/svg11.dtd">
<svg xmlns:xlink="http://www.w3.org/1999/xlink" width="1440pt" height="1080pt" viewBox="0 0 1440 1080" xmlns="http://www.w3.org/2000/svg" version="1.1">
 <metadata>
  <rdf:RDF xmlns:dc="http://purl.org/dc/elements/1.1/" xmlns:cc="http://creativecommons.org/ns#" xmlns:rdf="http://www.w3.org/1999/02/22-rdf-syntax-ns#">
   <cc:Work>
    <dc:type rdf:resource="http://purl.org/dc/dcmitype/StillImage"/>
    <dc:date>2023-12-11T12:06:58.804589</dc:date>
    <dc:format>image/svg+xml</dc:format>
    <dc:creator>
     <cc:Agent>
      <dc:title>Matplotlib v3.7.1, https://matplotlib.org/</dc:title>
     </cc:Agent>
    </dc:creator>
   </cc:Work>
  </rdf:RDF>
 </metadata>
 <defs>
  <style type="text/css">*{stroke-linejoin: round; stroke-linecap: butt}</style>
 </defs>
 <g id="figure_1">
  <g id="patch_1">
   <path d="M 0 1080 
L 1440 1080 
L 1440 0 
L 0 0 
z
" style="fill: #ffffff"/>
  </g>
  <g id="axes_1">
   <g id="patch_2">
    <path d="M 180 715.967675 
L 1296 715.967675 
L 1296 374.832325 
L 180 374.832325 
z
" style="fill: #ffffff"/>
   </g>
   <g id="matplotlib.axis_1">
    <g id="xtick_1">
     <g id="line2d_1">
      <defs>
       <path id="m7ba0a05c0e" d="M 0 0 
L 0 3.5 
" style="stroke: #000000; stroke-width: 0.8"/>
      </defs>
      <g>
       <use xlink:href="#m7ba0a05c0e" x="238.883878" y="715.967675" style="stroke: #000000; stroke-width: 0.8"/>
      </g>
     </g>
     <g id="text_1">
      <!-- 800 -->
      <g transform="translate(229.340128 730.566112) scale(0.1 -0.1)">
       <defs>
        <path id="DejaVuSans-38" d="M 2034 2216 
Q 1584 2216 1326 1975 
Q 1069 1734 1069 1313 
Q 1069 891 1326 650 
Q 1584 409 2034 409 
Q 2484 409 2743 651 
Q 3003 894 3003 1313 
Q 3003 1734 2745 1975 
Q 2488 2216 2034 2216 
z
M 1403 2484 
Q 997 2584 770 2862 
Q 544 3141 544 3541 
Q 544 4100 942 4425 
Q 1341 4750 2034 4750 
Q 2731 4750 3128 4425 
Q 3525 4100 3525 3541 
Q 3525 3141 3298 2862 
Q 3072 2584 2669 2484 
Q 3125 2378 3379 2068 
Q 3634 1759 3634 1313 
Q 3634 634 3220 271 
Q 2806 -91 2034 -91 
Q 1263 -91 848 271 
Q 434 634 434 1313 
Q 434 1759 690 2068 
Q 947 2378 1403 2484 
z
M 1172 3481 
Q 1172 3119 1398 2916 
Q 1625 2713 2034 2713 
Q 2441 2713 2670 2916 
Q 2900 3119 2900 3481 
Q 2900 3844 2670 4047 
Q 2441 4250 2034 4250 
Q 1625 4250 1398 4047 
Q 1172 3844 1172 3481 
z
" transform="scale(0.015625)"/>
        <path id="DejaVuSans-30" d="M 2034 4250 
Q 1547 4250 1301 3770 
Q 1056 3291 1056 2328 
Q 1056 1369 1301 889 
Q 1547 409 2034 409 
Q 2525 409 2770 889 
Q 3016 1369 3016 2328 
Q 3016 3291 2770 3770 
Q 2525 4250 2034 4250 
z
M 2034 4750 
Q 2819 4750 3233 4129 
Q 3647 3509 3647 2328 
Q 3647 1150 3233 529 
Q 2819 -91 2034 -91 
Q 1250 -91 836 529 
Q 422 1150 422 2328 
Q 422 3509 836 4129 
Q 1250 4750 2034 4750 
z
" transform="scale(0.015625)"/>
       </defs>
       <use xlink:href="#DejaVuSans-38"/>
       <use xlink:href="#DejaVuSans-30" x="63.623047"/>
       <use xlink:href="#DejaVuSans-30" x="127.246094"/>
      </g>
     </g>
    </g>
    <g id="xtick_2">
     <g id="line2d_2">
      <g>
       <use xlink:href="#m7ba0a05c0e" x="378.761733" y="715.967675" style="stroke: #000000; stroke-width: 0.8"/>
      </g>
     </g>
     <g id="text_2">
      <!-- 900 -->
      <g transform="translate(369.217983 730.566112) scale(0.1 -0.1)">
       <defs>
        <path id="DejaVuSans-39" d="M 703 97 
L 703 672 
Q 941 559 1184 500 
Q 1428 441 1663 441 
Q 2288 441 2617 861 
Q 2947 1281 2994 2138 
Q 2813 1869 2534 1725 
Q 2256 1581 1919 1581 
Q 1219 1581 811 2004 
Q 403 2428 403 3163 
Q 403 3881 828 4315 
Q 1253 4750 1959 4750 
Q 2769 4750 3195 4129 
Q 3622 3509 3622 2328 
Q 3622 1225 3098 567 
Q 2575 -91 1691 -91 
Q 1453 -91 1209 -44 
Q 966 3 703 97 
z
M 1959 2075 
Q 2384 2075 2632 2365 
Q 2881 2656 2881 3163 
Q 2881 3666 2632 3958 
Q 2384 4250 1959 4250 
Q 1534 4250 1286 3958 
Q 1038 3666 1038 3163 
Q 1038 2656 1286 2365 
Q 1534 2075 1959 2075 
z
" transform="scale(0.015625)"/>
       </defs>
       <use xlink:href="#DejaVuSans-39"/>
       <use xlink:href="#DejaVuSans-30" x="63.623047"/>
       <use xlink:href="#DejaVuSans-30" x="127.246094"/>
      </g>
     </g>
    </g>
    <g id="xtick_3">
     <g id="line2d_3">
      <g>
       <use xlink:href="#m7ba0a05c0e" x="518.639589" y="715.967675" style="stroke: #000000; stroke-width: 0.8"/>
      </g>
     </g>
     <g id="text_3">
      <!-- 1000 -->
      <g transform="translate(505.914589 730.566112) scale(0.1 -0.1)">
       <defs>
        <path id="DejaVuSans-31" d="M 794 531 
L 1825 531 
L 1825 4091 
L 703 3866 
L 703 4441 
L 1819 4666 
L 2450 4666 
L 2450 531 
L 3481 531 
L 3481 0 
L 794 0 
L 794 531 
z
" transform="scale(0.015625)"/>
       </defs>
       <use xlink:href="#DejaVuSans-31"/>
       <use xlink:href="#DejaVuSans-30" x="63.623047"/>
       <use xlink:href="#DejaVuSans-30" x="127.246094"/>
       <use xlink:href="#DejaVuSans-30" x="190.869141"/>
      </g>
     </g>
    </g>
    <g id="xtick_4">
     <g id="line2d_4">
      <g>
       <use xlink:href="#m7ba0a05c0e" x="658.517445" y="715.967675" style="stroke: #000000; stroke-width: 0.8"/>
      </g>
     </g>
     <g id="text_4">
      <!-- 1100 -->
      <g transform="translate(645.792445 730.566112) scale(0.1 -0.1)">
       <use xlink:href="#DejaVuSans-31"/>
       <use xlink:href="#DejaVuSans-31" x="63.623047"/>
       <use xlink:href="#DejaVuSans-30" x="127.246094"/>
       <use xlink:href="#DejaVuSans-30" x="190.869141"/>
      </g>
     </g>
    </g>
    <g id="xtick_5">
     <g id="line2d_5">
      <g>
       <use xlink:href="#m7ba0a05c0e" x="798.395301" y="715.967675" style="stroke: #000000; stroke-width: 0.8"/>
      </g>
     </g>
     <g id="text_5">
      <!-- 1200 -->
      <g transform="translate(785.670301 730.566112) scale(0.1 -0.1)">
       <defs>
        <path id="DejaVuSans-32" d="M 1228 531 
L 3431 531 
L 3431 0 
L 469 0 
L 469 531 
Q 828 903 1448 1529 
Q 2069 2156 2228 2338 
Q 2531 2678 2651 2914 
Q 2772 3150 2772 3378 
Q 2772 3750 2511 3984 
Q 2250 4219 1831 4219 
Q 1534 4219 1204 4116 
Q 875 4013 500 3803 
L 500 4441 
Q 881 4594 1212 4672 
Q 1544 4750 1819 4750 
Q 2544 4750 2975 4387 
Q 3406 4025 3406 3419 
Q 3406 3131 3298 2873 
Q 3191 2616 2906 2266 
Q 2828 2175 2409 1742 
Q 1991 1309 1228 531 
z
" transform="scale(0.015625)"/>
       </defs>
       <use xlink:href="#DejaVuSans-31"/>
       <use xlink:href="#DejaVuSans-32" x="63.623047"/>
       <use xlink:href="#DejaVuSans-30" x="127.246094"/>
       <use xlink:href="#DejaVuSans-30" x="190.869141"/>
      </g>
     </g>
    </g>
    <g id="xtick_6">
     <g id="line2d_6">
      <g>
       <use xlink:href="#m7ba0a05c0e" x="938.273156" y="715.967675" style="stroke: #000000; stroke-width: 0.8"/>
      </g>
     </g>
     <g id="text_6">
      <!-- 1300 -->
      <g transform="translate(925.548156 730.566112) scale(0.1 -0.1)">
       <defs>
        <path id="DejaVuSans-33" d="M 2597 2516 
Q 3050 2419 3304 2112 
Q 3559 1806 3559 1356 
Q 3559 666 3084 287 
Q 2609 -91 1734 -91 
Q 1441 -91 1130 -33 
Q 819 25 488 141 
L 488 750 
Q 750 597 1062 519 
Q 1375 441 1716 441 
Q 2309 441 2620 675 
Q 2931 909 2931 1356 
Q 2931 1769 2642 2001 
Q 2353 2234 1838 2234 
L 1294 2234 
L 1294 2753 
L 1863 2753 
Q 2328 2753 2575 2939 
Q 2822 3125 2822 3475 
Q 2822 3834 2567 4026 
Q 2313 4219 1838 4219 
Q 1578 4219 1281 4162 
Q 984 4106 628 3988 
L 628 4550 
Q 988 4650 1302 4700 
Q 1616 4750 1894 4750 
Q 2613 4750 3031 4423 
Q 3450 4097 3450 3541 
Q 3450 3153 3228 2886 
Q 3006 2619 2597 2516 
z
" transform="scale(0.015625)"/>
       </defs>
       <use xlink:href="#DejaVuSans-31"/>
       <use xlink:href="#DejaVuSans-33" x="63.623047"/>
       <use xlink:href="#DejaVuSans-30" x="127.246094"/>
       <use xlink:href="#DejaVuSans-30" x="190.869141"/>
      </g>
     </g>
    </g>
    <g id="xtick_7">
     <g id="line2d_7">
      <g>
       <use xlink:href="#m7ba0a05c0e" x="1078.151012" y="715.967675" style="stroke: #000000; stroke-width: 0.8"/>
      </g>
     </g>
     <g id="text_7">
      <!-- 1400 -->
      <g transform="translate(1065.426012 730.566112) scale(0.1 -0.1)">
       <defs>
        <path id="DejaVuSans-34" d="M 2419 4116 
L 825 1625 
L 2419 1625 
L 2419 4116 
z
M 2253 4666 
L 3047 4666 
L 3047 1625 
L 3713 1625 
L 3713 1100 
L 3047 1100 
L 3047 0 
L 2419 0 
L 2419 1100 
L 313 1100 
L 313 1709 
L 2253 4666 
z
" transform="scale(0.015625)"/>
       </defs>
       <use xlink:href="#DejaVuSans-31"/>
       <use xlink:href="#DejaVuSans-34" x="63.623047"/>
       <use xlink:href="#DejaVuSans-30" x="127.246094"/>
       <use xlink:href="#DejaVuSans-30" x="190.869141"/>
      </g>
     </g>
    </g>
    <g id="xtick_8">
     <g id="line2d_8">
      <g>
       <use xlink:href="#m7ba0a05c0e" x="1218.028868" y="715.967675" style="stroke: #000000; stroke-width: 0.8"/>
      </g>
     </g>
     <g id="text_8">
      <!-- 1500 -->
      <g transform="translate(1205.303868 730.566112) scale(0.1 -0.1)">
       <defs>
        <path id="DejaVuSans-35" d="M 691 4666 
L 3169 4666 
L 3169 4134 
L 1269 4134 
L 1269 2991 
Q 1406 3038 1543 3061 
Q 1681 3084 1819 3084 
Q 2600 3084 3056 2656 
Q 3513 2228 3513 1497 
Q 3513 744 3044 326 
Q 2575 -91 1722 -91 
Q 1428 -91 1123 -41 
Q 819 9 494 109 
L 494 744 
Q 775 591 1075 516 
Q 1375 441 1709 441 
Q 2250 441 2565 725 
Q 2881 1009 2881 1497 
Q 2881 1984 2565 2268 
Q 2250 2553 1709 2553 
Q 1456 2553 1204 2497 
Q 953 2441 691 2322 
L 691 4666 
z
" transform="scale(0.015625)"/>
       </defs>
       <use xlink:href="#DejaVuSans-31"/>
       <use xlink:href="#DejaVuSans-35" x="63.623047"/>
       <use xlink:href="#DejaVuSans-30" x="127.246094"/>
       <use xlink:href="#DejaVuSans-30" x="190.869141"/>
      </g>
     </g>
    </g>
   </g>
   <g id="matplotlib.axis_2">
    <g id="ytick_1">
     <g id="line2d_9">
      <defs>
       <path id="mf464194340" d="M 0 0 
L -3.5 0 
" style="stroke: #000000; stroke-width: 0.8"/>
      </defs>
      <g>
       <use xlink:href="#mf464194340" x="180" y="658.337666" style="stroke: #000000; stroke-width: 0.8"/>
      </g>
     </g>
     <g id="text_9">
      <!-- 1250 -->
      <g transform="translate(147.55 662.136885) scale(0.1 -0.1)">
       <use xlink:href="#DejaVuSans-31"/>
       <use xlink:href="#DejaVuSans-32" x="63.623047"/>
       <use xlink:href="#DejaVuSans-35" x="127.246094"/>
       <use xlink:href="#DejaVuSans-30" x="190.869141"/>
      </g>
     </g>
    </g>
    <g id="ytick_2">
     <g id="line2d_10">
      <g>
       <use xlink:href="#mf464194340" x="180" y="588.398738" style="stroke: #000000; stroke-width: 0.8"/>
      </g>
     </g>
     <g id="text_10">
      <!-- 1300 -->
      <g transform="translate(147.55 592.197957) scale(0.1 -0.1)">
       <use xlink:href="#DejaVuSans-31"/>
       <use xlink:href="#DejaVuSans-33" x="63.623047"/>
       <use xlink:href="#DejaVuSans-30" x="127.246094"/>
       <use xlink:href="#DejaVuSans-30" x="190.869141"/>
      </g>
     </g>
    </g>
    <g id="ytick_3">
     <g id="line2d_11">
      <g>
       <use xlink:href="#mf464194340" x="180" y="518.45981" style="stroke: #000000; stroke-width: 0.8"/>
      </g>
     </g>
     <g id="text_11">
      <!-- 1350 -->
      <g transform="translate(147.55 522.259029) scale(0.1 -0.1)">
       <use xlink:href="#DejaVuSans-31"/>
       <use xlink:href="#DejaVuSans-33" x="63.623047"/>
       <use xlink:href="#DejaVuSans-35" x="127.246094"/>
       <use xlink:href="#DejaVuSans-30" x="190.869141"/>
      </g>
     </g>
    </g>
    <g id="ytick_4">
     <g id="line2d_12">
      <g>
       <use xlink:href="#mf464194340" x="180" y="448.520883" style="stroke: #000000; stroke-width: 0.8"/>
      </g>
     </g>
     <g id="text_12">
      <!-- 1400 -->
      <g transform="translate(147.55 452.320101) scale(0.1 -0.1)">
       <use xlink:href="#DejaVuSans-31"/>
       <use xlink:href="#DejaVuSans-34" x="63.623047"/>
       <use xlink:href="#DejaVuSans-30" x="127.246094"/>
       <use xlink:href="#DejaVuSans-30" x="190.869141"/>
      </g>
     </g>
    </g>
    <g id="ytick_5">
     <g id="line2d_13">
      <g>
       <use xlink:href="#mf464194340" x="180" y="378.581955" style="stroke: #000000; stroke-width: 0.8"/>
      </g>
     </g>
     <g id="text_13">
      <!-- 1450 -->
      <g transform="translate(147.55 382.381173) scale(0.1 -0.1)">
       <use xlink:href="#DejaVuSans-31"/>
       <use xlink:href="#DejaVuSans-34" x="63.623047"/>
       <use xlink:href="#DejaVuSans-35" x="127.246094"/>
       <use xlink:href="#DejaVuSans-30" x="190.869141"/>
      </g>
     </g>
    </g>
   </g>
   <g id="LineCollection_1">
    <path d="M 230.727273 410.985627 
L 240.959423 432.376305 
L 251.510981 451.518423 
L 262.38938 468.542278 
L 273.60244 483.563673 
L 285.154319 496.682121 
L 297.03979 507.980691 
L 309.237938 517.529011 
L 321.707689 525.390253 
L 334.388089 531.630998 
L 347.204788 536.33063 
L 360.081044 539.586285 
L 372.948905 541.511457 
L 385.756495 542.229741 
L 398.469859 541.867076 
L 411.070593 540.545421 
L 423.551514 538.379053 
L 435.912262 535.473278 
L 448.155812 531.924689 
L 460.286105 527.822171 
L 472.306638 523.248102 
L 484.219748 518.279459 
L 496.026324 512.98873 
L 507.725768 507.444604 
L 519.31609 501.712471 
L 530.794044 495.854779 
L 553.394521 483.999067 
L 575.521231 472.304266 
L 597.089782 461.19423 
L 607.641334 455.977007 
L 618.026588 451.041587 
L 628.236767 446.426788 
L 638.262902 442.168282 
L 648.096011 438.298358 
L 657.727351 434.845662 
L 667.148776 431.83493 
L 676.35322 429.286757 
L 685.335334 427.217444 
L 694.092248 425.639012 
L 702.624428 424.559452 
L 710.936496 423.983299 
L 719.037848 423.912556 
L 726.942872 424.347918 
L 734.670539 425.29012 
L 742.243329 426.741131 
L 749.685549 428.704886 
L 757.021356 431.187313 
L 764.272886 434.195602 
L 771.458862 437.736904 
L 778.59392 441.81674 
L 785.688652 446.437503 
L 792.750215 451.597287 
L 799.783255 457.28917 
L 806.790917 463.500932 
L 813.775778 470.215132 
L 820.7406 477.409399 
L 827.688884 485.056862 
L 834.625254 493.126604 
L 841.555676 501.584125 
L 848.487584 510.391758 
L 855.429925 519.50905 
L 869.389245 538.498891 
L 898.03562 578.237536 
L 905.446143 588.244975 
L 912.993693 598.173781 
L 920.700992 607.970583 
L 928.592311 617.581348 
L 936.693429 626.951338 
L 945.031494 636.024964 
L 953.634696 644.745521 
L 962.531669 653.05484 
L 971.750505 660.892943 
L 981.317306 668.197849 
L 991.254257 674.905819 
L 1001.577441 680.952352 
L 1012.294795 686.274217 
L 1023.404889 690.812569 
L 1034.897182 694.516755 
L 1046.754087 697.348009 
L 1058.954525 699.282069 
L 1071.478012 700.310049 
L 1084.308117 700.437602 
L 1097.43443 699.682987 
L 1110.852834 698.074945 
L 1124.564412 695.651087 
L 1138.573613 692.457144 
L 1152.886193 688.547071 
L 1167.507319 683.983792 
L 1182.439961 678.840362 
L 1197.683595 673.201319 
L 1213.233137 667.164069 
L 1245.272727 654.328231 
L 1245.272727 654.328231 
" clip-path="url(#pe74e75173d)" style="fill: none; stroke: #1f77b4; stroke-width: 1.5"/>
    <path d="M 245.877771 403.759969 
L 255.672242 424.29666 
L 265.674535 442.510568 
L 275.869025 458.539933 
L 286.240731 472.517347 
L 296.775265 484.570087 
L 307.458771 494.820426 
L 318.277884 503.385917 
L 329.219681 510.379667 
L 340.271647 515.910582 
L 351.421634 520.083602 
L 362.657834 522.999908 
L 373.968746 524.757124 
L 385.343159 525.449488 
L 396.770126 525.168016 
L 408.238947 524.000648 
L 419.739161 522.032381 
L 431.260525 519.345381 
L 442.793017 516.019088 
L 454.326822 512.130305 
L 465.852336 507.753273 
L 477.360162 502.95974 
L 488.841115 497.819007 
L 500.286226 492.397978 
L 511.686749 486.761188 
L 523.03417 480.970825 
L 534.320219 475.08675 
L 545.53688 469.166494 
L 556.676408 463.265265 
L 567.731343 457.435932 
L 578.694527 451.729015 
L 589.559123 446.192658 
L 600.318633 440.872609 
L 610.966919 435.812187 
L 621.498225 431.052245 
L 631.907193 426.631134 
L 642.188892 422.584664 
L 652.338835 418.946056 
L 662.353006 415.745905 
L 672.227877 413.012129 
L 681.960436 410.769927 
L 691.548204 409.041734 
L 700.989261 407.847176 
L 710.282266 407.203029 
L 719.426479 407.12318 
L 728.421776 407.618588 
L 737.268677 408.697253 
L 745.968355 410.364185 
L 754.522659 412.621383 
L 762.934127 415.467811 
L 771.206001 418.89939 
L 779.34224 422.908988 
L 787.34753 427.486423 
L 795.227293 432.618473 
L 802.987694 438.288889 
L 810.635649 444.478426 
L 818.178821 451.164877 
L 825.625627 458.323121 
L 832.985232 465.925178 
L 840.267544 473.940279 
L 847.483208 482.334952 
L 854.643594 491.073109 
L 861.760782 500.116157 
L 868.847548 509.423122 
L 875.91734 518.950781 
L 882.984257 528.653818 
L 890.063017 538.484988 
L 897.168931 548.395305 
L 904.317865 558.33424 
L 911.526199 568.249944 
L 918.810785 578.089481 
L 926.1889 587.799089 
L 933.678191 597.324456 
L 941.296621 606.611013 
L 949.062402 615.604258 
L 956.993936 624.250088 
L 965.109735 632.495165 
L 973.428351 640.287301 
L 981.968288 647.575861 
L 990.747919 654.312199 
L 999.78539 660.450111 
L 1009.098521 665.946317 
L 1018.704704 670.760972 
L 1028.620788 674.858193 
L 1038.862966 678.206626 
L 1049.446647 680.780032 
L 1060.386332 682.557905 
L 1071.695474 683.526115 
L 1083.386336 683.677589 
L 1095.469844 683.013011 
L 1107.955423 681.541562 
L 1120.850843 679.28169 
L 1134.16204 676.261906 
L 1147.892943 672.521616 
L 1162.045285 668.111995 
L 1176.61841 663.096879 
L 1191.609073 657.553702 
L 1207.011231 651.57447 
L 1222.815823 645.266759 
L 1239.010546 638.754766 
" clip-path="url(#pe74e75173d)" style="fill: none; stroke: #8c564b; stroke-width: 1.5"/>
    <path d="M 261.028268 396.53431 
L 270.616111 416.637749 
L 280.12764 433.957989 
L 289.708513 449.02253 
L 299.320564 461.976196 
L 308.928292 472.968562 
L 318.503662 482.155694 
L 328.032167 489.699412 
L 337.518383 495.762786 
L 346.98823 500.501936 
L 356.485565 504.05643 
L 366.063127 506.542245 
L 375.770983 508.050417 
L 385.646965 508.65157 
L 395.712031 508.403645 
L 405.970631 507.359461 
L 416.414208 505.572038 
L 427.025653 503.097248 
L 437.783284 499.994447 
L 448.663766 496.32594 
L 459.64398 492.155997 
L 470.702067 487.5498 
L 481.817917 482.572547 
L 492.973332 477.288733 
L 504.152005 471.761633 
L 526.522699 460.222423 
L 571.073519 436.773481 
L 582.11936 431.146141 
L 593.11388 425.712159 
L 604.053628 420.516628 
L 614.93619 415.602733 
L 625.760076 411.011893 
L 636.524559 406.783934 
L 647.22942 402.95726 
L 657.874572 399.569028 
L 668.459555 396.655251 
L 678.982866 394.250793 
L 689.441187 392.389161 
L 699.828566 391.102012 
L 710.135698 390.418327 
L 720.349517 390.363236 
L 730.453297 390.956636 
L 740.427429 392.211804 
L 750.250873 394.134343 
L 759.903076 396.721734 
L 769.366007 399.963662 
L 778.625873 403.843055 
L 787.674197 408.33757 
L 796.508146 413.421188 
L 805.130187 419.065598 
L 813.547287 425.241179 
L 821.76992 431.917545 
L 829.811075 439.063705 
L 837.685409 446.64796 
L 845.408576 454.637651 
L 852.996756 462.99885 
L 860.466344 471.696065 
L 867.833754 480.692001 
L 875.115319 489.947377 
L 882.327225 499.420821 
L 896.60593 518.845773 
L 925.060206 558.32101 
L 932.238921 568.017544 
L 939.46973 577.533297 
L 946.765802 586.812916 
L 954.139422 595.80106 
L 961.601874 604.443031 
L 969.163404 612.685535 
L 976.833298 620.477605 
L 984.620189 627.771669 
L 992.532671 634.524716 
L 1000.580343 640.699444 
L 1008.775308 646.265158 
L 1017.134061 651.198131 
L 1025.679432 655.481103 
L 1034.442062 659.101729 
L 1043.460699 662.050155 
L 1052.780811 664.316327 
L 1062.451472 665.887963 
L 1072.521191 666.750062 
L 1083.033771 666.886269 
L 1094.025256 666.281751 
L 1105.522505 664.926779 
L 1117.543319 662.820179 
L 1130.097603 659.972108 
L 1143.188999 656.40602 
L 1156.816514 652.159925 
L 1170.975888 647.287195 
L 1185.660651 641.857133 
L 1200.86288 635.955514 
L 1232.748365 623.181301 
L 1232.748365 623.181301 
" clip-path="url(#pe74e75173d)" style="fill: none; stroke: #17becf; stroke-width: 1.5"/>
   </g>
   <g id="patch_3">
    <path d="M 180 715.967675 
L 180 374.832325 
" style="fill: none; stroke: #000000; stroke-width: 0.8; stroke-linejoin: miter; stroke-linecap: square"/>
   </g>
   <g id="patch_4">
    <path d="M 1296 715.967675 
L 1296 374.832325 
" style="fill: none; stroke: #000000; stroke-width: 0.8; stroke-linejoin: miter; stroke-linecap: square"/>
   </g>
   <g id="patch_5">
    <path d="M 180 715.967675 
L 1296 715.967675 
" style="fill: none; stroke: #000000; stroke-width: 0.8; stroke-linejoin: miter; stroke-linecap: square"/>
   </g>
   <g id="patch_6">
    <path d="M 180 374.832325 
L 1296 374.832325 
" style="fill: none; stroke: #000000; stroke-width: 0.8; stroke-linejoin: miter; stroke-linecap: square"/>
   </g>
  </g>
 </g>
 <defs>
  <clipPath id="pe74e75173d">
   <rect x="180" y="374.832325" width="1116" height="341.13535"/>
  </clipPath>
 </defs>
</svg>
