<?xml version="1.0" encoding="utf-8" standalone="no"?>
<!DOCTYPE svg PUBLIC "-//W3C//DTD SVG 1.1//EN"
  "http://www.w3.org/Graphics/SVG/1.1/DTD/svg11.dtd">
<svg xmlns:xlink="http://www.w3.org/1999/xlink" width="1440pt" height="1080pt" viewBox="0 0 1440 1080" xmlns="http://www.w3.org/2000/svg" version="1.1">
 <metadata>
  <rdf:RDF xmlns:dc="http://purl.org/dc/elements/1.1/" xmlns:cc="http://creativecommons.org/ns#" xmlns:rdf="http://www.w3.org/1999/02/22-rdf-syntax-ns#">
   <cc:Work>
    <dc:type rdf:resource="http://purl.org/dc/dcmitype/StillImage"/>
    <dc:date>2023-12-11T12:06:57.027329</dc:date>
    <dc:format>image/svg+xml</dc:format>
    <dc:creator>
     <cc:Agent>
      <dc:title>Matplotlib v3.7.1, https://matplotlib.org/</dc:title>
     </cc:Agent>
    </dc:creator>
   </cc:Work>
  </rdf:RDF>
 </metadata>
 <defs>
  <style type="text/css">*{stroke-linejoin: round; stroke-linecap: butt}</style>
 </defs>
 <g id="figure_1">
  <g id="patch_1">
   <path d="M 0 1080 
L 1440 1080 
L 1440 0 
L 0 0 
z
" style="fill: #ffffff"/>
  </g>
  <g id="axes_1">
   <g id="patch_2">
    <path d="M 266.100914 961.2 
L 1209.899086 961.2 
L 1209.899086 129.6 
L 266.100914 129.6 
z
" style="fill: #ffffff"/>
   </g>
   <g id="matplotlib.axis_1">
    <g id="xtick_1">
     <g id="line2d_1">
      <defs>
       <path id="mc8531746e3" d="M 0 0 
L 0 3.5 
" style="stroke: #000000; stroke-width: 0.8"/>
      </defs>
      <g>
       <use xlink:href="#mc8531746e3" x="321.672529" y="961.2" style="stroke: #000000; stroke-width: 0.8"/>
      </g>
     </g>
     <g id="text_1">
      <!-- 1100 -->
      <g transform="translate(308.947529 975.798437) scale(0.1 -0.1)">
       <defs>
        <path id="DejaVuSans-31" d="M 794 531 
L 1825 531 
L 1825 4091 
L 703 3866 
L 703 4441 
L 1819 4666 
L 2450 4666 
L 2450 531 
L 3481 531 
L 3481 0 
L 794 0 
L 794 531 
z
" transform="scale(0.015625)"/>
        <path id="DejaVuSans-30" d="M 2034 4250 
Q 1547 4250 1301 3770 
Q 1056 3291 1056 2328 
Q 1056 1369 1301 889 
Q 1547 409 2034 409 
Q 2525 409 2770 889 
Q 3016 1369 3016 2328 
Q 3016 3291 2770 3770 
Q 2525 4250 2034 4250 
z
M 2034 4750 
Q 2819 4750 3233 4129 
Q 3647 3509 3647 2328 
Q 3647 1150 3233 529 
Q 2819 -91 2034 -91 
Q 1250 -91 836 529 
Q 422 1150 422 2328 
Q 422 3509 836 4129 
Q 1250 4750 2034 4750 
z
" transform="scale(0.015625)"/>
       </defs>
       <use xlink:href="#DejaVuSans-31"/>
       <use xlink:href="#DejaVuSans-31" x="63.623047"/>
       <use xlink:href="#DejaVuSans-30" x="127.246094"/>
       <use xlink:href="#DejaVuSans-30" x="190.869141"/>
      </g>
     </g>
    </g>
    <g id="xtick_2">
     <g id="line2d_2">
      <g>
       <use xlink:href="#mc8531746e3" x="448.838102" y="961.2" style="stroke: #000000; stroke-width: 0.8"/>
      </g>
     </g>
     <g id="text_2">
      <!-- 1200 -->
      <g transform="translate(436.113102 975.798437) scale(0.1 -0.1)">
       <defs>
        <path id="DejaVuSans-32" d="M 1228 531 
L 3431 531 
L 3431 0 
L 469 0 
L 469 531 
Q 828 903 1448 1529 
Q 2069 2156 2228 2338 
Q 2531 2678 2651 2914 
Q 2772 3150 2772 3378 
Q 2772 3750 2511 3984 
Q 2250 4219 1831 4219 
Q 1534 4219 1204 4116 
Q 875 4013 500 3803 
L 500 4441 
Q 881 4594 1212 4672 
Q 1544 4750 1819 4750 
Q 2544 4750 2975 4387 
Q 3406 4025 3406 3419 
Q 3406 3131 3298 2873 
Q 3191 2616 2906 2266 
Q 2828 2175 2409 1742 
Q 1991 1309 1228 531 
z
" transform="scale(0.015625)"/>
       </defs>
       <use xlink:href="#DejaVuSans-31"/>
       <use xlink:href="#DejaVuSans-32" x="63.623047"/>
       <use xlink:href="#DejaVuSans-30" x="127.246094"/>
       <use xlink:href="#DejaVuSans-30" x="190.869141"/>
      </g>
     </g>
    </g>
    <g id="xtick_3">
     <g id="line2d_3">
      <g>
       <use xlink:href="#mc8531746e3" x="576.003676" y="961.2" style="stroke: #000000; stroke-width: 0.8"/>
      </g>
     </g>
     <g id="text_3">
      <!-- 1300 -->
      <g transform="translate(563.278676 975.798437) scale(0.1 -0.1)">
       <defs>
        <path id="DejaVuSans-33" d="M 2597 2516 
Q 3050 2419 3304 2112 
Q 3559 1806 3559 1356 
Q 3559 666 3084 287 
Q 2609 -91 1734 -91 
Q 1441 -91 1130 -33 
Q 819 25 488 141 
L 488 750 
Q 750 597 1062 519 
Q 1375 441 1716 441 
Q 2309 441 2620 675 
Q 2931 909 2931 1356 
Q 2931 1769 2642 2001 
Q 2353 2234 1838 2234 
L 1294 2234 
L 1294 2753 
L 1863 2753 
Q 2328 2753 2575 2939 
Q 2822 3125 2822 3475 
Q 2822 3834 2567 4026 
Q 2313 4219 1838 4219 
Q 1578 4219 1281 4162 
Q 984 4106 628 3988 
L 628 4550 
Q 988 4650 1302 4700 
Q 1616 4750 1894 4750 
Q 2613 4750 3031 4423 
Q 3450 4097 3450 3541 
Q 3450 3153 3228 2886 
Q 3006 2619 2597 2516 
z
" transform="scale(0.015625)"/>
       </defs>
       <use xlink:href="#DejaVuSans-31"/>
       <use xlink:href="#DejaVuSans-33" x="63.623047"/>
       <use xlink:href="#DejaVuSans-30" x="127.246094"/>
       <use xlink:href="#DejaVuSans-30" x="190.869141"/>
      </g>
     </g>
    </g>
    <g id="xtick_4">
     <g id="line2d_4">
      <g>
       <use xlink:href="#mc8531746e3" x="703.169249" y="961.2" style="stroke: #000000; stroke-width: 0.8"/>
      </g>
     </g>
     <g id="text_4">
      <!-- 1400 -->
      <g transform="translate(690.444249 975.798437) scale(0.1 -0.1)">
       <defs>
        <path id="DejaVuSans-34" d="M 2419 4116 
L 825 1625 
L 2419 1625 
L 2419 4116 
z
M 2253 4666 
L 3047 4666 
L 3047 1625 
L 3713 1625 
L 3713 1100 
L 3047 1100 
L 3047 0 
L 2419 0 
L 2419 1100 
L 313 1100 
L 313 1709 
L 2253 4666 
z
" transform="scale(0.015625)"/>
       </defs>
       <use xlink:href="#DejaVuSans-31"/>
       <use xlink:href="#DejaVuSans-34" x="63.623047"/>
       <use xlink:href="#DejaVuSans-30" x="127.246094"/>
       <use xlink:href="#DejaVuSans-30" x="190.869141"/>
      </g>
     </g>
    </g>
    <g id="xtick_5">
     <g id="line2d_5">
      <g>
       <use xlink:href="#mc8531746e3" x="830.334823" y="961.2" style="stroke: #000000; stroke-width: 0.8"/>
      </g>
     </g>
     <g id="text_5">
      <!-- 1500 -->
      <g transform="translate(817.609823 975.798437) scale(0.1 -0.1)">
       <defs>
        <path id="DejaVuSans-35" d="M 691 4666 
L 3169 4666 
L 3169 4134 
L 1269 4134 
L 1269 2991 
Q 1406 3038 1543 3061 
Q 1681 3084 1819 3084 
Q 2600 3084 3056 2656 
Q 3513 2228 3513 1497 
Q 3513 744 3044 326 
Q 2575 -91 1722 -91 
Q 1428 -91 1123 -41 
Q 819 9 494 109 
L 494 744 
Q 775 591 1075 516 
Q 1375 441 1709 441 
Q 2250 441 2565 725 
Q 2881 1009 2881 1497 
Q 2881 1984 2565 2268 
Q 2250 2553 1709 2553 
Q 1456 2553 1204 2497 
Q 953 2441 691 2322 
L 691 4666 
z
" transform="scale(0.015625)"/>
       </defs>
       <use xlink:href="#DejaVuSans-31"/>
       <use xlink:href="#DejaVuSans-35" x="63.623047"/>
       <use xlink:href="#DejaVuSans-30" x="127.246094"/>
       <use xlink:href="#DejaVuSans-30" x="190.869141"/>
      </g>
     </g>
    </g>
    <g id="xtick_6">
     <g id="line2d_6">
      <g>
       <use xlink:href="#mc8531746e3" x="957.500396" y="961.2" style="stroke: #000000; stroke-width: 0.8"/>
      </g>
     </g>
     <g id="text_6">
      <!-- 1600 -->
      <g transform="translate(944.775396 975.798437) scale(0.1 -0.1)">
       <defs>
        <path id="DejaVuSans-36" d="M 2113 2584 
Q 1688 2584 1439 2293 
Q 1191 2003 1191 1497 
Q 1191 994 1439 701 
Q 1688 409 2113 409 
Q 2538 409 2786 701 
Q 3034 994 3034 1497 
Q 3034 2003 2786 2293 
Q 2538 2584 2113 2584 
z
M 3366 4563 
L 3366 3988 
Q 3128 4100 2886 4159 
Q 2644 4219 2406 4219 
Q 1781 4219 1451 3797 
Q 1122 3375 1075 2522 
Q 1259 2794 1537 2939 
Q 1816 3084 2150 3084 
Q 2853 3084 3261 2657 
Q 3669 2231 3669 1497 
Q 3669 778 3244 343 
Q 2819 -91 2113 -91 
Q 1303 -91 875 529 
Q 447 1150 447 2328 
Q 447 3434 972 4092 
Q 1497 4750 2381 4750 
Q 2619 4750 2861 4703 
Q 3103 4656 3366 4563 
z
" transform="scale(0.015625)"/>
       </defs>
       <use xlink:href="#DejaVuSans-31"/>
       <use xlink:href="#DejaVuSans-36" x="63.623047"/>
       <use xlink:href="#DejaVuSans-30" x="127.246094"/>
       <use xlink:href="#DejaVuSans-30" x="190.869141"/>
      </g>
     </g>
    </g>
    <g id="xtick_7">
     <g id="line2d_7">
      <g>
       <use xlink:href="#mc8531746e3" x="1084.66597" y="961.2" style="stroke: #000000; stroke-width: 0.8"/>
      </g>
     </g>
     <g id="text_7">
      <!-- 1700 -->
      <g transform="translate(1071.94097 975.798437) scale(0.1 -0.1)">
       <defs>
        <path id="DejaVuSans-37" d="M 525 4666 
L 3525 4666 
L 3525 4397 
L 1831 0 
L 1172 0 
L 2766 4134 
L 525 4134 
L 525 4666 
z
" transform="scale(0.015625)"/>
       </defs>
       <use xlink:href="#DejaVuSans-31"/>
       <use xlink:href="#DejaVuSans-37" x="63.623047"/>
       <use xlink:href="#DejaVuSans-30" x="127.246094"/>
       <use xlink:href="#DejaVuSans-30" x="190.869141"/>
      </g>
     </g>
    </g>
   </g>
   <g id="matplotlib.axis_2">
    <g id="ytick_1">
     <g id="line2d_8">
      <defs>
       <path id="med70a0c73d" d="M 0 0 
L -3.5 0 
" style="stroke: #000000; stroke-width: 0.8"/>
      </defs>
      <g>
       <use xlink:href="#med70a0c73d" x="266.100914" y="931.023825" style="stroke: #000000; stroke-width: 0.8"/>
      </g>
     </g>
     <g id="text_8">
      <!-- 700 -->
      <g transform="translate(240.013414 934.823044) scale(0.1 -0.1)">
       <use xlink:href="#DejaVuSans-37"/>
       <use xlink:href="#DejaVuSans-30" x="63.623047"/>
       <use xlink:href="#DejaVuSans-30" x="127.246094"/>
      </g>
     </g>
    </g>
    <g id="ytick_2">
     <g id="line2d_9">
      <g>
       <use xlink:href="#med70a0c73d" x="266.100914" y="803.858251" style="stroke: #000000; stroke-width: 0.8"/>
      </g>
     </g>
     <g id="text_9">
      <!-- 800 -->
      <g transform="translate(240.013414 807.65747) scale(0.1 -0.1)">
       <defs>
        <path id="DejaVuSans-38" d="M 2034 2216 
Q 1584 2216 1326 1975 
Q 1069 1734 1069 1313 
Q 1069 891 1326 650 
Q 1584 409 2034 409 
Q 2484 409 2743 651 
Q 3003 894 3003 1313 
Q 3003 1734 2745 1975 
Q 2488 2216 2034 2216 
z
M 1403 2484 
Q 997 2584 770 2862 
Q 544 3141 544 3541 
Q 544 4100 942 4425 
Q 1341 4750 2034 4750 
Q 2731 4750 3128 4425 
Q 3525 4100 3525 3541 
Q 3525 3141 3298 2862 
Q 3072 2584 2669 2484 
Q 3125 2378 3379 2068 
Q 3634 1759 3634 1313 
Q 3634 634 3220 271 
Q 2806 -91 2034 -91 
Q 1263 -91 848 271 
Q 434 634 434 1313 
Q 434 1759 690 2068 
Q 947 2378 1403 2484 
z
M 1172 3481 
Q 1172 3119 1398 2916 
Q 1625 2713 2034 2713 
Q 2441 2713 2670 2916 
Q 2900 3119 2900 3481 
Q 2900 3844 2670 4047 
Q 2441 4250 2034 4250 
Q 1625 4250 1398 4047 
Q 1172 3844 1172 3481 
z
" transform="scale(0.015625)"/>
       </defs>
       <use xlink:href="#DejaVuSans-38"/>
       <use xlink:href="#DejaVuSans-30" x="63.623047"/>
       <use xlink:href="#DejaVuSans-30" x="127.246094"/>
      </g>
     </g>
    </g>
    <g id="ytick_3">
     <g id="line2d_10">
      <g>
       <use xlink:href="#med70a0c73d" x="266.100914" y="676.692678" style="stroke: #000000; stroke-width: 0.8"/>
      </g>
     </g>
     <g id="text_10">
      <!-- 900 -->
      <g transform="translate(240.013414 680.491897) scale(0.1 -0.1)">
       <defs>
        <path id="DejaVuSans-39" d="M 703 97 
L 703 672 
Q 941 559 1184 500 
Q 1428 441 1663 441 
Q 2288 441 2617 861 
Q 2947 1281 2994 2138 
Q 2813 1869 2534 1725 
Q 2256 1581 1919 1581 
Q 1219 1581 811 2004 
Q 403 2428 403 3163 
Q 403 3881 828 4315 
Q 1253 4750 1959 4750 
Q 2769 4750 3195 4129 
Q 3622 3509 3622 2328 
Q 3622 1225 3098 567 
Q 2575 -91 1691 -91 
Q 1453 -91 1209 -44 
Q 966 3 703 97 
z
M 1959 2075 
Q 2384 2075 2632 2365 
Q 2881 2656 2881 3163 
Q 2881 3666 2632 3958 
Q 2384 4250 1959 4250 
Q 1534 4250 1286 3958 
Q 1038 3666 1038 3163 
Q 1038 2656 1286 2365 
Q 1534 2075 1959 2075 
z
" transform="scale(0.015625)"/>
       </defs>
       <use xlink:href="#DejaVuSans-39"/>
       <use xlink:href="#DejaVuSans-30" x="63.623047"/>
       <use xlink:href="#DejaVuSans-30" x="127.246094"/>
      </g>
     </g>
    </g>
    <g id="ytick_4">
     <g id="line2d_11">
      <g>
       <use xlink:href="#med70a0c73d" x="266.100914" y="549.527104" style="stroke: #000000; stroke-width: 0.8"/>
      </g>
     </g>
     <g id="text_11">
      <!-- 1000 -->
      <g transform="translate(233.650914 553.326323) scale(0.1 -0.1)">
       <use xlink:href="#DejaVuSans-31"/>
       <use xlink:href="#DejaVuSans-30" x="63.623047"/>
       <use xlink:href="#DejaVuSans-30" x="127.246094"/>
       <use xlink:href="#DejaVuSans-30" x="190.869141"/>
      </g>
     </g>
    </g>
    <g id="ytick_5">
     <g id="line2d_12">
      <g>
       <use xlink:href="#med70a0c73d" x="266.100914" y="422.361531" style="stroke: #000000; stroke-width: 0.8"/>
      </g>
     </g>
     <g id="text_12">
      <!-- 1100 -->
      <g transform="translate(233.650914 426.16075) scale(0.1 -0.1)">
       <use xlink:href="#DejaVuSans-31"/>
       <use xlink:href="#DejaVuSans-31" x="63.623047"/>
       <use xlink:href="#DejaVuSans-30" x="127.246094"/>
       <use xlink:href="#DejaVuSans-30" x="190.869141"/>
      </g>
     </g>
    </g>
    <g id="ytick_6">
     <g id="line2d_13">
      <g>
       <use xlink:href="#med70a0c73d" x="266.100914" y="295.195957" style="stroke: #000000; stroke-width: 0.8"/>
      </g>
     </g>
     <g id="text_13">
      <!-- 1200 -->
      <g transform="translate(233.650914 298.995176) scale(0.1 -0.1)">
       <use xlink:href="#DejaVuSans-31"/>
       <use xlink:href="#DejaVuSans-32" x="63.623047"/>
       <use xlink:href="#DejaVuSans-30" x="127.246094"/>
       <use xlink:href="#DejaVuSans-30" x="190.869141"/>
      </g>
     </g>
    </g>
    <g id="ytick_7">
     <g id="line2d_14">
      <g>
       <use xlink:href="#med70a0c73d" x="266.100914" y="168.030384" style="stroke: #000000; stroke-width: 0.8"/>
      </g>
     </g>
     <g id="text_14">
      <!-- 1300 -->
      <g transform="translate(233.650914 171.829603) scale(0.1 -0.1)">
       <use xlink:href="#DejaVuSans-31"/>
       <use xlink:href="#DejaVuSans-33" x="63.623047"/>
       <use xlink:href="#DejaVuSans-30" x="127.246094"/>
       <use xlink:href="#DejaVuSans-30" x="190.869141"/>
      </g>
     </g>
    </g>
   </g>
   <g id="LineCollection_1">
    <path d="M 1166.999169 289.516113 
L 1136.263159 257.99119 
L 1108.558153 232.078936 
L 1083.510246 211.20277 
L 1060.738833 194.842397 
L 1041.752801 183.543656 
L 1039.854038 182.553561 
L 1022.994331 174.933445 
L 1020.475096 174.002322 
L 1003.922269 169.252029 
L 1002.299529 168.999488 
L 987.137303 167.4 
L 985.236052 167.472959 
L 971.46732 168.799603 
L 969.49977 169.297662 
L 957.228216 173.214795 
L 955.466995 174.077412 
L 944.731739 180.127818 
L 943.348176 181.164084 
L 934.039022 188.887685 
L 933.04649 189.910168 
L 925.689943 198.078205 
L 924.280808 199.842471 
L 916.743188 210.659404 
L 910.171475 222.16425 
L 904.360293 234.212788 
L 899.150922 246.686367 
L 894.418972 259.480775 
L 890.064882 272.502387 
L 886.007432 285.667134 
L 882.179449 298.900358 
L 874.997024 325.320574 
L 861.451114 376.765036 
L 854.696664 401.342171 
L 847.809056 425.047318 
L 840.739643 447.915575 
L 833.475137 470.042235 
L 826.02824 491.562506 
L 818.430322 512.632889 
L 806.848531 543.746477 
L 787.468438 595.49208 
L 779.82787 616.436407 
L 772.294843 637.596563 
L 764.873448 658.971902 
L 753.906715 691.334991 
L 739.3108 734.529248 
L 731.845569 755.758565 
L 728.02621 766.181249 
L 724.129498 776.430501 
L 720.140181 786.468677 
L 716.042867 796.255387 
L 711.822398 805.74764 
L 707.464281 814.900102 
L 702.955201 823.665518 
L 698.283547 831.995395 
L 693.439901 839.841042 
L 688.417294 847.155126 
L 683.210955 853.893824 
L 677.81707 860.019561 
L 672.230007 865.503977 
L 666.437533 870.330272 
L 660.414187 874.493403 
L 654.114253 877.996456 
L 647.467232 880.842397 
L 640.379192 883.022847 
L 632.741358 884.508051 
L 624.443549 885.242619 
L 615.387175 885.148779 
L 605.493095 884.134936 
L 594.702964 882.105286 
L 582.975774 878.967218 
L 570.282433 874.635326 
L 556.600561 869.032596 
L 541.910528 862.08987 
L 526.192892 853.744579 
L 509.426967 843.939354 
L 491.59017 832.620816 
L 472.65783 819.738621 
L 452.603254 805.244762 
L 431.397902 789.093075 
L 409.011601 771.238891 
L 385.412747 751.638798 
L 360.568483 730.250466 
L 334.344227 706.943089 
L 334.344227 706.943089 
" clip-path="url(#pe674e75855)" style="fill: none; stroke: #1f77b4; stroke-width: 1.5"/>
    <path d="M 1153.33538 302.825892 
L 1123.222299 271.911871 
L 1096.324414 246.713996 
L 1072.338879 226.664009 
L 1050.983936 211.234204 
L 1031.997904 199.935463 
L 1015.138197 192.315347 
L 1000.180372 187.956242 
L 986.917208 186.473566 
L 975.157809 187.514027 
L 964.726738 190.753938 
L 955.463178 195.897586 
L 947.220119 202.675654 
L 939.863572 210.84369 
L 933.271812 220.180641 
L 927.334639 230.48742 
L 921.952676 241.585537 
L 917.036682 253.315769 
L 912.506892 265.536891 
L 908.292387 278.124436 
L 904.330479 290.96952 
L 900.566127 303.977702 
L 896.95137 317.06789 
L 893.444784 330.171297 
L 890.010966 343.230433 
L 886.620033 356.198144 
L 883.247144 369.036694 
L 879.872048 381.716883 
L 876.478644 394.217208 
L 873.054567 406.523068 
L 869.590794 418.625997 
L 866.081264 430.522946 
L 862.522521 442.215592 
L 858.913376 453.709693 
L 855.254582 465.01447 
L 851.548535 476.142029 
L 847.798982 487.106813 
L 844.010752 497.925092 
L 840.189505 508.614477 
L 836.34149 519.193475 
L 832.473326 529.681066 
L 828.591791 540.096319 
L 824.703632 550.458025 
L 820.815386 560.78437 
L 816.933213 571.092628 
L 813.062749 581.39888 
L 809.208964 591.717769 
L 805.376036 602.062264 
L 801.567241 612.443461 
L 797.784848 622.870402 
L 794.030032 633.349917 
L 790.302791 643.886489 
L 786.601878 654.482138 
L 782.924743 665.136326 
L 779.267485 675.845881 
L 775.624811 686.604943 
L 771.990003 697.404922 
L 768.354899 708.234474 
L 764.709878 719.079499 
L 761.043851 729.923147 
L 757.344263 740.745842 
L 753.597101 751.52532 
L 749.786907 762.236677 
L 745.896797 772.852434 
L 741.908488 783.342609 
L 737.802325 793.674801 
L 733.55732 803.814282 
L 729.15119 813.724104 
L 724.560399 823.365202 
L 719.760209 832.696522 
L 714.724723 841.675135 
L 709.426946 850.256375 
L 703.838834 858.393967 
L 697.931352 866.040173 
L 691.674533 873.145926 
L 685.03754 879.660984 
L 677.98872 885.534067 
L 670.495668 890.71301 
L 662.525287 895.144907 
L 654.043846 898.77626 
L 645.017038 901.553122 
L 635.410037 903.421238 
L 625.187555 904.326188 
L 614.313893 904.213518 
L 602.752988 903.028875 
L 590.468466 900.718127 
L 577.423681 897.227485 
L 563.581755 892.503612 
L 548.905614 886.493729 
L 533.358018 879.145706 
L 516.901585 870.40815 
L 499.498812 860.230477 
L 481.112091 848.562978 
L 461.703708 835.356868 
L 441.235853 820.564324 
L 419.670606 804.138512 
L 396.969927 786.033597 
L 373.095631 766.204735 
L 348.009357 744.608057 
L 321.672529 721.200629 
" clip-path="url(#pe674e75855)" style="fill: none; stroke: #8c564b; stroke-width: 1.5"/>
    <path d="M 1139.67159 316.135671 
L 1109.862987 285.534226 
L 1083.677019 261.003273 
L 1060.621744 241.73091 
L 1040.500114 227.192222 
L 1023.164557 216.875693 
L 1008.508823 210.251711 
L 996.424556 206.730036 
L 986.696012 205.642492 
L 978.869307 206.334992 
L 972.265101 208.386271 
L 966.238863 211.732376 
L 960.438098 216.502204 
L 954.79407 222.768817 
L 949.361611 230.463667 
L 944.201835 239.420906 
L 939.343445 249.439365 
L 934.78354 260.319919 
L 930.498299 271.881261 
L 926.452693 283.964352 
L 922.607153 296.432155 
L 918.92168 309.167761 
L 911.881974 335.06222 
L 898.280644 386.714177 
L 891.393158 411.771443 
L 884.329613 436.076965 
L 877.061382 459.583298 
L 869.597243 482.314024 
L 861.972402 504.346033 
L 854.237841 525.79423 
L 842.554923 557.179689 
L 823.273122 608.661097 
L 815.729154 629.339766 
L 808.298263 650.212134 
L 800.966001 671.330141 
L 790.070859 703.482097 
L 775.361536 747.009006 
L 767.697092 768.799806 
L 763.726488 779.631189 
L 759.634788 790.387299 
L 755.397382 801.041165 
L 750.986973 811.563899 
L 746.373251 821.924712 
L 741.522512 832.090803 
L 736.39722 842.027075 
L 730.955585 851.695539 
L 725.151256 861.054312 
L 718.933372 870.056055 
L 712.247337 878.645804 
L 705.036855 886.758337 
L 697.247807 894.315634 
L 688.834194 901.225628 
L 679.765473 907.383945 
L 670.033032 912.680104 
L 659.652345 917.007939 
L 648.658011 920.277242 
L 637.092068 922.421768 
L 624.989919 923.4 
L 612.36948 923.188993 
L 599.226806 921.774952 
L 585.537727 919.144662 
L 571.262847 915.280005 
L 556.353207 910.155735 
L 540.755004 903.739509 
L 524.41289 895.993082 
L 507.27194 886.873851 
L 489.278672 876.336318 
L 470.381447 864.333288 
L 450.530507 850.816782 
L 429.677838 835.738699 
L 407.776946 819.051266 
L 384.782611 800.707338 
L 360.650643 780.660587 
L 335.337659 758.865597 
L 309.000831 735.458168 
L 309.000831 735.458168 
" clip-path="url(#pe674e75855)" style="fill: none; stroke: #17becf; stroke-width: 1.5"/>
   </g>
   <g id="patch_3">
    <path d="M 266.100914 961.2 
L 266.100914 129.6 
" style="fill: none; stroke: #000000; stroke-width: 0.8; stroke-linejoin: miter; stroke-linecap: square"/>
   </g>
   <g id="patch_4">
    <path d="M 1209.899086 961.2 
L 1209.899086 129.6 
" style="fill: none; stroke: #000000; stroke-width: 0.8; stroke-linejoin: miter; stroke-linecap: square"/>
   </g>
   <g id="patch_5">
    <path d="M 266.100914 961.2 
L 1209.899086 961.2 
" style="fill: none; stroke: #000000; stroke-width: 0.8; stroke-linejoin: miter; stroke-linecap: square"/>
   </g>
   <g id="patch_6">
    <path d="M 266.100914 129.6 
L 1209.899086 129.6 
" style="fill: none; stroke: #000000; stroke-width: 0.8; stroke-linejoin: miter; stroke-linecap: square"/>
   </g>
  </g>
 </g>
 <defs>
  <clipPath id="pe674e75855">
   <rect x="266.100914" y="129.6" width="943.798172" height="831.6"/>
  </clipPath>
 </defs>
</svg>
