<?xml version="1.0" encoding="utf-8" standalone="no"?>
<!DOCTYPE svg PUBLIC "-//W3C//DTD SVG 1.1//EN"
  "http://www.w3.org/Graphics/SVG/1.1/DTD/svg11.dtd">
<svg xmlns:xlink="http://www.w3.org/1999/xlink" width="1440pt" height="1080pt" viewBox="0 0 1440 1080" xmlns="http://www.w3.org/2000/svg" version="1.1">
 <metadata>
  <rdf:RDF xmlns:dc="http://purl.org/dc/elements/1.1/" xmlns:cc="http://creativecommons.org/ns#" xmlns:rdf="http://www.w3.org/1999/02/22-rdf-syntax-ns#">
   <cc:Work>
    <dc:type rdf:resource="http://purl.org/dc/dcmitype/StillImage"/>
    <dc:date>2023-12-11T12:06:59.739346</dc:date>
    <dc:format>image/svg+xml</dc:format>
    <dc:creator>
     <cc:Agent>
      <dc:title>Matplotlib v3.7.1, https://matplotlib.org/</dc:title>
     </cc:Agent>
    </dc:creator>
   </cc:Work>
  </rdf:RDF>
 </metadata>
 <defs>
  <style type="text/css">*{stroke-linejoin: round; stroke-linecap: butt}</style>
 </defs>
 <g id="figure_1">
  <g id="patch_1">
   <path d="M 0 1080 
L 1440 1080 
L 1440 0 
L 0 0 
z
" style="fill: #ffffff"/>
  </g>
  <g id="axes_1">
   <g id="patch_2">
    <path d="M 180 697.221556 
L 1296 697.221556 
L 1296 393.578444 
L 180 393.578444 
z
" style="fill: #ffffff"/>
   </g>
   <g id="matplotlib.axis_1">
    <g id="xtick_1">
     <g id="line2d_1">
      <defs>
       <path id="m4bc3c7fdeb" d="M 0 0 
L 0 3.5 
" style="stroke: #000000; stroke-width: 0.8"/>
      </defs>
      <g>
       <use xlink:href="#m4bc3c7fdeb" x="304.503857" y="697.221556" style="stroke: #000000; stroke-width: 0.8"/>
      </g>
     </g>
     <g id="text_1">
      <!-- 400 -->
      <g transform="translate(294.960107 711.819994) scale(0.1 -0.1)">
       <defs>
        <path id="DejaVuSans-34" d="M 2419 4116 
L 825 1625 
L 2419 1625 
L 2419 4116 
z
M 2253 4666 
L 3047 4666 
L 3047 1625 
L 3713 1625 
L 3713 1100 
L 3047 1100 
L 3047 0 
L 2419 0 
L 2419 1100 
L 313 1100 
L 313 1709 
L 2253 4666 
z
" transform="scale(0.015625)"/>
        <path id="DejaVuSans-30" d="M 2034 4250 
Q 1547 4250 1301 3770 
Q 1056 3291 1056 2328 
Q 1056 1369 1301 889 
Q 1547 409 2034 409 
Q 2525 409 2770 889 
Q 3016 1369 3016 2328 
Q 3016 3291 2770 3770 
Q 2525 4250 2034 4250 
z
M 2034 4750 
Q 2819 4750 3233 4129 
Q 3647 3509 3647 2328 
Q 3647 1150 3233 529 
Q 2819 -91 2034 -91 
Q 1250 -91 836 529 
Q 422 1150 422 2328 
Q 422 3509 836 4129 
Q 1250 4750 2034 4750 
z
" transform="scale(0.015625)"/>
       </defs>
       <use xlink:href="#DejaVuSans-34"/>
       <use xlink:href="#DejaVuSans-30" x="63.623047"/>
       <use xlink:href="#DejaVuSans-30" x="127.246094"/>
      </g>
     </g>
    </g>
    <g id="xtick_2">
     <g id="line2d_2">
      <g>
       <use xlink:href="#m4bc3c7fdeb" x="490.989103" y="697.221556" style="stroke: #000000; stroke-width: 0.8"/>
      </g>
     </g>
     <g id="text_2">
      <!-- 600 -->
      <g transform="translate(481.445353 711.819994) scale(0.1 -0.1)">
       <defs>
        <path id="DejaVuSans-36" d="M 2113 2584 
Q 1688 2584 1439 2293 
Q 1191 2003 1191 1497 
Q 1191 994 1439 701 
Q 1688 409 2113 409 
Q 2538 409 2786 701 
Q 3034 994 3034 1497 
Q 3034 2003 2786 2293 
Q 2538 2584 2113 2584 
z
M 3366 4563 
L 3366 3988 
Q 3128 4100 2886 4159 
Q 2644 4219 2406 4219 
Q 1781 4219 1451 3797 
Q 1122 3375 1075 2522 
Q 1259 2794 1537 2939 
Q 1816 3084 2150 3084 
Q 2853 3084 3261 2657 
Q 3669 2231 3669 1497 
Q 3669 778 3244 343 
Q 2819 -91 2113 -91 
Q 1303 -91 875 529 
Q 447 1150 447 2328 
Q 447 3434 972 4092 
Q 1497 4750 2381 4750 
Q 2619 4750 2861 4703 
Q 3103 4656 3366 4563 
z
" transform="scale(0.015625)"/>
       </defs>
       <use xlink:href="#DejaVuSans-36"/>
       <use xlink:href="#DejaVuSans-30" x="63.623047"/>
       <use xlink:href="#DejaVuSans-30" x="127.246094"/>
      </g>
     </g>
    </g>
    <g id="xtick_3">
     <g id="line2d_3">
      <g>
       <use xlink:href="#m4bc3c7fdeb" x="677.474348" y="697.221556" style="stroke: #000000; stroke-width: 0.8"/>
      </g>
     </g>
     <g id="text_3">
      <!-- 800 -->
      <g transform="translate(667.930598 711.819994) scale(0.1 -0.1)">
       <defs>
        <path id="DejaVuSans-38" d="M 2034 2216 
Q 1584 2216 1326 1975 
Q 1069 1734 1069 1313 
Q 1069 891 1326 650 
Q 1584 409 2034 409 
Q 2484 409 2743 651 
Q 3003 894 3003 1313 
Q 3003 1734 2745 1975 
Q 2488 2216 2034 2216 
z
M 1403 2484 
Q 997 2584 770 2862 
Q 544 3141 544 3541 
Q 544 4100 942 4425 
Q 1341 4750 2034 4750 
Q 2731 4750 3128 4425 
Q 3525 4100 3525 3541 
Q 3525 3141 3298 2862 
Q 3072 2584 2669 2484 
Q 3125 2378 3379 2068 
Q 3634 1759 3634 1313 
Q 3634 634 3220 271 
Q 2806 -91 2034 -91 
Q 1263 -91 848 271 
Q 434 634 434 1313 
Q 434 1759 690 2068 
Q 947 2378 1403 2484 
z
M 1172 3481 
Q 1172 3119 1398 2916 
Q 1625 2713 2034 2713 
Q 2441 2713 2670 2916 
Q 2900 3119 2900 3481 
Q 2900 3844 2670 4047 
Q 2441 4250 2034 4250 
Q 1625 4250 1398 4047 
Q 1172 3844 1172 3481 
z
" transform="scale(0.015625)"/>
       </defs>
       <use xlink:href="#DejaVuSans-38"/>
       <use xlink:href="#DejaVuSans-30" x="63.623047"/>
       <use xlink:href="#DejaVuSans-30" x="127.246094"/>
      </g>
     </g>
    </g>
    <g id="xtick_4">
     <g id="line2d_4">
      <g>
       <use xlink:href="#m4bc3c7fdeb" x="863.959594" y="697.221556" style="stroke: #000000; stroke-width: 0.8"/>
      </g>
     </g>
     <g id="text_4">
      <!-- 1000 -->
      <g transform="translate(851.234594 711.819994) scale(0.1 -0.1)">
       <defs>
        <path id="DejaVuSans-31" d="M 794 531 
L 1825 531 
L 1825 4091 
L 703 3866 
L 703 4441 
L 1819 4666 
L 2450 4666 
L 2450 531 
L 3481 531 
L 3481 0 
L 794 0 
L 794 531 
z
" transform="scale(0.015625)"/>
       </defs>
       <use xlink:href="#DejaVuSans-31"/>
       <use xlink:href="#DejaVuSans-30" x="63.623047"/>
       <use xlink:href="#DejaVuSans-30" x="127.246094"/>
       <use xlink:href="#DejaVuSans-30" x="190.869141"/>
      </g>
     </g>
    </g>
    <g id="xtick_5">
     <g id="line2d_5">
      <g>
       <use xlink:href="#m4bc3c7fdeb" x="1050.444839" y="697.221556" style="stroke: #000000; stroke-width: 0.8"/>
      </g>
     </g>
     <g id="text_5">
      <!-- 1200 -->
      <g transform="translate(1037.719839 711.819994) scale(0.1 -0.1)">
       <defs>
        <path id="DejaVuSans-32" d="M 1228 531 
L 3431 531 
L 3431 0 
L 469 0 
L 469 531 
Q 828 903 1448 1529 
Q 2069 2156 2228 2338 
Q 2531 2678 2651 2914 
Q 2772 3150 2772 3378 
Q 2772 3750 2511 3984 
Q 2250 4219 1831 4219 
Q 1534 4219 1204 4116 
Q 875 4013 500 3803 
L 500 4441 
Q 881 4594 1212 4672 
Q 1544 4750 1819 4750 
Q 2544 4750 2975 4387 
Q 3406 4025 3406 3419 
Q 3406 3131 3298 2873 
Q 3191 2616 2906 2266 
Q 2828 2175 2409 1742 
Q 1991 1309 1228 531 
z
" transform="scale(0.015625)"/>
       </defs>
       <use xlink:href="#DejaVuSans-31"/>
       <use xlink:href="#DejaVuSans-32" x="63.623047"/>
       <use xlink:href="#DejaVuSans-30" x="127.246094"/>
       <use xlink:href="#DejaVuSans-30" x="190.869141"/>
      </g>
     </g>
    </g>
    <g id="xtick_6">
     <g id="line2d_6">
      <g>
       <use xlink:href="#m4bc3c7fdeb" x="1236.930085" y="697.221556" style="stroke: #000000; stroke-width: 0.8"/>
      </g>
     </g>
     <g id="text_6">
      <!-- 1400 -->
      <g transform="translate(1224.205085 711.819994) scale(0.1 -0.1)">
       <use xlink:href="#DejaVuSans-31"/>
       <use xlink:href="#DejaVuSans-34" x="63.623047"/>
       <use xlink:href="#DejaVuSans-30" x="127.246094"/>
       <use xlink:href="#DejaVuSans-30" x="190.869141"/>
      </g>
     </g>
    </g>
   </g>
   <g id="matplotlib.axis_2">
    <g id="ytick_1">
     <g id="line2d_7">
      <defs>
       <path id="m6a3e7a44ca" d="M 0 0 
L -3.5 0 
" style="stroke: #000000; stroke-width: 0.8"/>
      </defs>
      <g>
       <use xlink:href="#m6a3e7a44ca" x="180" y="666.834572" style="stroke: #000000; stroke-width: 0.8"/>
      </g>
     </g>
     <g id="text_7">
      <!-- 1150 -->
      <g transform="translate(147.55 670.633791) scale(0.1 -0.1)">
       <defs>
        <path id="DejaVuSans-35" d="M 691 4666 
L 3169 4666 
L 3169 4134 
L 1269 4134 
L 1269 2991 
Q 1406 3038 1543 3061 
Q 1681 3084 1819 3084 
Q 2600 3084 3056 2656 
Q 3513 2228 3513 1497 
Q 3513 744 3044 326 
Q 2575 -91 1722 -91 
Q 1428 -91 1123 -41 
Q 819 9 494 109 
L 494 744 
Q 775 591 1075 516 
Q 1375 441 1709 441 
Q 2250 441 2565 725 
Q 2881 1009 2881 1497 
Q 2881 1984 2565 2268 
Q 2250 2553 1709 2553 
Q 1456 2553 1204 2497 
Q 953 2441 691 2322 
L 691 4666 
z
" transform="scale(0.015625)"/>
       </defs>
       <use xlink:href="#DejaVuSans-31"/>
       <use xlink:href="#DejaVuSans-31" x="63.623047"/>
       <use xlink:href="#DejaVuSans-35" x="127.246094"/>
       <use xlink:href="#DejaVuSans-30" x="190.869141"/>
      </g>
     </g>
    </g>
    <g id="ytick_2">
     <g id="line2d_8">
      <g>
       <use xlink:href="#m6a3e7a44ca" x="180" y="620.213261" style="stroke: #000000; stroke-width: 0.8"/>
      </g>
     </g>
     <g id="text_8">
      <!-- 1200 -->
      <g transform="translate(147.55 624.01248) scale(0.1 -0.1)">
       <use xlink:href="#DejaVuSans-31"/>
       <use xlink:href="#DejaVuSans-32" x="63.623047"/>
       <use xlink:href="#DejaVuSans-30" x="127.246094"/>
       <use xlink:href="#DejaVuSans-30" x="190.869141"/>
      </g>
     </g>
    </g>
    <g id="ytick_3">
     <g id="line2d_9">
      <g>
       <use xlink:href="#m6a3e7a44ca" x="180" y="573.591949" style="stroke: #000000; stroke-width: 0.8"/>
      </g>
     </g>
     <g id="text_9">
      <!-- 1250 -->
      <g transform="translate(147.55 577.391168) scale(0.1 -0.1)">
       <use xlink:href="#DejaVuSans-31"/>
       <use xlink:href="#DejaVuSans-32" x="63.623047"/>
       <use xlink:href="#DejaVuSans-35" x="127.246094"/>
       <use xlink:href="#DejaVuSans-30" x="190.869141"/>
      </g>
     </g>
    </g>
    <g id="ytick_4">
     <g id="line2d_10">
      <g>
       <use xlink:href="#m6a3e7a44ca" x="180" y="526.970638" style="stroke: #000000; stroke-width: 0.8"/>
      </g>
     </g>
     <g id="text_10">
      <!-- 1300 -->
      <g transform="translate(147.55 530.769857) scale(0.1 -0.1)">
       <defs>
        <path id="DejaVuSans-33" d="M 2597 2516 
Q 3050 2419 3304 2112 
Q 3559 1806 3559 1356 
Q 3559 666 3084 287 
Q 2609 -91 1734 -91 
Q 1441 -91 1130 -33 
Q 819 25 488 141 
L 488 750 
Q 750 597 1062 519 
Q 1375 441 1716 441 
Q 2309 441 2620 675 
Q 2931 909 2931 1356 
Q 2931 1769 2642 2001 
Q 2353 2234 1838 2234 
L 1294 2234 
L 1294 2753 
L 1863 2753 
Q 2328 2753 2575 2939 
Q 2822 3125 2822 3475 
Q 2822 3834 2567 4026 
Q 2313 4219 1838 4219 
Q 1578 4219 1281 4162 
Q 984 4106 628 3988 
L 628 4550 
Q 988 4650 1302 4700 
Q 1616 4750 1894 4750 
Q 2613 4750 3031 4423 
Q 3450 4097 3450 3541 
Q 3450 3153 3228 2886 
Q 3006 2619 2597 2516 
z
" transform="scale(0.015625)"/>
       </defs>
       <use xlink:href="#DejaVuSans-31"/>
       <use xlink:href="#DejaVuSans-33" x="63.623047"/>
       <use xlink:href="#DejaVuSans-30" x="127.246094"/>
       <use xlink:href="#DejaVuSans-30" x="190.869141"/>
      </g>
     </g>
    </g>
    <g id="ytick_5">
     <g id="line2d_11">
      <g>
       <use xlink:href="#m6a3e7a44ca" x="180" y="480.349327" style="stroke: #000000; stroke-width: 0.8"/>
      </g>
     </g>
     <g id="text_11">
      <!-- 1350 -->
      <g transform="translate(147.55 484.148545) scale(0.1 -0.1)">
       <use xlink:href="#DejaVuSans-31"/>
       <use xlink:href="#DejaVuSans-33" x="63.623047"/>
       <use xlink:href="#DejaVuSans-35" x="127.246094"/>
       <use xlink:href="#DejaVuSans-30" x="190.869141"/>
      </g>
     </g>
    </g>
    <g id="ytick_6">
     <g id="line2d_12">
      <g>
       <use xlink:href="#m6a3e7a44ca" x="180" y="433.728015" style="stroke: #000000; stroke-width: 0.8"/>
      </g>
     </g>
     <g id="text_12">
      <!-- 1400 -->
      <g transform="translate(147.55 437.527234) scale(0.1 -0.1)">
       <use xlink:href="#DejaVuSans-31"/>
       <use xlink:href="#DejaVuSans-34" x="63.623047"/>
       <use xlink:href="#DejaVuSans-30" x="127.246094"/>
       <use xlink:href="#DejaVuSans-30" x="190.869141"/>
      </g>
     </g>
    </g>
   </g>
   <g id="LineCollection_1">
    <path d="M 1245.272727 550.272243 
L 1228.685202 539.066309 
L 1212.549847 530.045116 
L 1196.888024 522.938217 
L 1181.726562 517.48321 
L 1167.087013 513.425348 
L 1152.978397 510.52157 
L 1139.394885 508.546113 
L 1126.317461 507.29511 
L 1113.717592 506.588966 
L 1101.561115 506.272567 
L 1089.811389 506.21399 
L 1046.016647 506.607586 
L 1035.720622 506.512873 
L 1025.636562 506.245665 
L 1015.735524 505.776125 
L 1005.990096 505.082057 
L 996.374572 504.147683 
L 986.865188 502.962663 
L 977.440381 501.521329 
L 968.08099 499.822126 
L 958.770392 497.86719 
L 949.494517 495.662046 
L 940.241767 493.21535 
L 931.002832 490.538653 
L 921.770445 487.64616 
L 912.539092 484.554463 
L 903.304716 481.282249 
L 894.064424 477.849995 
L 875.55879 470.594334 
L 857.013132 462.975204 
L 819.731896 447.413437 
L 801.003559 439.870543 
L 791.620012 436.243494 
L 782.222746 432.742696 
L 772.81113 429.389703 
L 763.384552 426.205275 
L 753.942466 423.209355 
L 744.484458 420.421051 
L 735.010303 417.858622 
L 725.520034 415.539459 
L 716.014012 413.480063 
L 706.492982 411.696011 
L 696.958126 410.201915 
L 687.411096 409.01137 
L 677.854026 408.136893 
L 668.289511 407.589851 
L 658.720564 407.380403 
L 649.150535 407.517433 
L 639.582999 408.008506 
L 630.021626 408.859842 
L 620.470023 410.076314 
L 610.931579 411.661474 
L 601.409305 413.617607 
L 591.905692 415.945803 
L 582.422583 418.646049 
L 572.961082 421.717327 
L 563.521487 425.157707 
L 554.103252 428.964431 
L 544.704987 433.13397 
L 535.324468 437.66206 
L 525.958674 442.543701 
L 516.603838 447.773114 
L 507.255498 453.343669 
L 497.908558 459.247766 
L 488.557343 465.476677 
L 479.195655 472.020356 
L 469.816823 478.867208 
L 460.413752 486.003815 
L 450.978962 493.414636 
L 441.504636 501.081668 
L 431.982662 508.984069 
L 412.762166 525.394915 
L 363.194608 568.412904 
L 352.95334 576.984157 
L 342.588107 585.399486 
L 332.093741 593.58273 
L 321.467088 601.449603 
L 310.707532 608.907749 
L 299.817402 615.857276 
L 288.801944 622.191969 
L 277.668291 627.801328 
L 266.422543 632.573349 
L 255.06373 636.397293 
L 243.573779 639.164509 
L 230.727273 640.925285 
L 230.727273 640.925285 
" clip-path="url(#pb04e41e283)" style="fill: none; stroke: #1f77b4; stroke-width: 1.5"/>
    <path d="M 1233.20038 567.997392 
L 1218.143483 557.742353 
L 1203.608458 549.538039 
L 1189.551129 543.089953 
L 1175.930562 538.130942 
L 1162.708881 534.4195 
L 1149.851095 531.738131 
L 1137.324935 529.891786 
L 1125.100688 528.706367 
L 1113.151044 528.027284 
L 1101.450953 527.718088 
L 1089.977476 527.65915 
L 1078.709656 527.746417 
L 1067.628383 527.890208 
L 1056.716273 528.014082 
L 1045.957548 528.053753 
L 1035.337921 527.956063 
L 1024.844494 527.678007 
L 1014.465647 527.185808 
L 1004.190947 526.454045 
L 994.011053 525.46483 
L 983.917628 524.207029 
L 973.903253 522.675533 
L 963.961352 520.870575 
L 954.086118 518.797083 
L 944.272436 516.464087 
L 934.515825 513.884155 
L 924.812371 511.072878 
L 915.158668 508.048388 
L 905.551767 504.830914 
L 895.989121 501.442377 
L 886.46854 497.906012 
L 876.988142 494.246029 
L 867.54632 490.487305 
L 858.141693 486.655106 
L 848.77308 482.774834 
L 839.43946 478.871804 
L 830.139948 474.971053 
L 820.873761 471.097165 
L 811.640198 467.274124 
L 802.438615 463.525189 
L 793.268402 459.872788 
L 784.128968 456.338437 
L 775.01972 452.942669 
L 765.940049 449.704986 
L 756.889315 446.643826 
L 747.866835 443.776542 
L 738.871871 441.119392 
L 729.903621 438.687551 
L 720.961209 436.495117 
L 712.043675 434.555141 
L 703.149967 432.879654 
L 694.278939 431.479707 
L 685.429338 430.365412 
L 676.5998 429.545989 
L 667.788844 429.02981 
L 658.994868 428.824452 
L 650.216137 428.936746 
L 641.450782 429.372819 
L 632.696792 430.13814 
L 623.952003 431.237559 
L 615.214096 432.675339 
L 606.480583 434.455184 
L 597.748802 436.580253 
L 589.015901 439.053171 
L 580.278832 441.876023 
L 571.534334 445.050338 
L 562.778921 448.577061 
L 554.008861 452.456506 
L 545.220167 456.688295 
L 536.40857 461.271279 
L 527.569498 466.203437 
L 518.698056 471.48176 
L 509.789 477.102109 
L 500.836702 483.059049 
L 491.835129 489.345661 
L 482.777802 495.953328 
L 473.657764 502.871495 
L 464.467537 510.087393 
L 455.199084 517.585745 
L 445.843763 525.348431 
L 436.392275 533.354122 
L 426.834616 541.577889 
L 417.160016 549.990762 
L 407.356887 558.559266 
L 397.412754 567.24491 
L 387.31419 576.003641 
L 377.046742 584.785259 
L 366.59486 593.532782 
L 355.941814 602.18178 
L 345.069609 610.659654 
L 333.958897 618.884875 
L 322.588883 626.766169 
L 310.937224 634.201665 
L 298.97993 641.077981 
L 286.691248 647.269268 
L 274.043553 652.636191 
L 261.007226 657.02487 
L 247.550526 660.265754 
L 233.639464 662.172441 
" clip-path="url(#pb04e41e283)" style="fill: none; stroke: #8c564b; stroke-width: 1.5"/>
    <path d="M 1221.128032 585.722541 
L 1206.816458 575.975131 
L 1193.849779 568.656071 
L 1181.398656 562.94475 
L 1169.354749 558.559775 
L 1157.615917 555.264581 
L 1146.095083 552.86202 
L 1134.724706 551.186037 
L 1123.456672 550.093344 
L 1112.259178 549.457006 
L 1101.11256 549.162435 
L 1090.00544 549.10538 
L 1045.760277 549.498649 
L 1034.769847 549.394342 
L 1023.828604 549.099736 
L 1012.942138 548.577428 
L 1002.116754 547.799307 
L 991.359077 546.746031 
L 980.675619 545.406365 
L 970.072375 543.776406 
L 959.554496 541.858716 
L 949.126062 539.661414 
L 938.789977 537.197275 
L 928.54798 534.482875 
L 918.400739 531.53781 
L 908.348011 528.384007 
L 898.388829 525.045137 
L 888.521704 521.546112 
L 878.744809 517.912672 
L 859.453645 510.347595 
L 840.499375 502.560391 
L 803.492296 487.111913 
L 785.432933 479.836242 
L 776.515586 476.387775 
L 767.672311 473.091157 
L 758.902523 469.963974 
L 750.205587 467.022477 
L 741.580742 464.281558 
L 733.027026 461.754755 
L 724.543192 459.454268 
L 716.127625 457.391002 
L 707.778257 455.574628 
L 699.492486 454.013671 
L 691.267103 452.715614 
L 683.098242 451.687034 
L 674.981339 450.933746 
L 666.911127 450.460963 
L 658.88165 450.273458 
L 650.886318 450.375731 
L 642.917991 450.772152 
L 634.969081 451.467089 
L 627.031689 452.465 
L 619.097744 453.770492 
L 611.159142 455.388338 
L 603.207886 457.323449 
L 595.236193 459.580814 
L 587.236585 462.1654 
L 579.201942 465.082033 
L 571.125527 468.335251 
L 563.000973 471.929157 
L 554.82224 475.867247 
L 546.583559 480.152253 
L 538.279338 484.785967 
L 529.904071 489.769077 
L 521.452225 495.10099 
L 512.918133 500.779652 
L 504.295872 506.801356 
L 495.579146 513.160542 
L 486.761169 519.849575 
L 477.83454 526.858504 
L 468.791119 534.174802 
L 459.621892 541.783073 
L 440.864732 557.797675 
L 390.810916 601.23123 
L 380.11221 610.182218 
L 369.1293 619.09369 
L 357.829796 627.896246 
L 346.176273 636.510373 
L 334.125575 644.844532 
L 321.628357 652.792581 
L 308.629273 660.230335 
L 295.068537 667.01119 
L 280.885951 672.961153 
L 266.028614 677.874526 
L 250.462718 681.512909 
L 236.551656 683.419597 
L 236.551656 683.419597 
" clip-path="url(#pb04e41e283)" style="fill: none; stroke: #17becf; stroke-width: 1.5"/>
   </g>
   <g id="patch_3">
    <path d="M 180 697.221556 
L 180 393.578444 
" style="fill: none; stroke: #000000; stroke-width: 0.8; stroke-linejoin: miter; stroke-linecap: square"/>
   </g>
   <g id="patch_4">
    <path d="M 1296 697.221556 
L 1296 393.578444 
" style="fill: none; stroke: #000000; stroke-width: 0.8; stroke-linejoin: miter; stroke-linecap: square"/>
   </g>
   <g id="patch_5">
    <path d="M 180 697.221556 
L 1296 697.221556 
" style="fill: none; stroke: #000000; stroke-width: 0.8; stroke-linejoin: miter; stroke-linecap: square"/>
   </g>
   <g id="patch_6">
    <path d="M 180 393.578444 
L 1296 393.578444 
" style="fill: none; stroke: #000000; stroke-width: 0.8; stroke-linejoin: miter; stroke-linecap: square"/>
   </g>
  </g>
 </g>
 <defs>
  <clipPath id="pb04e41e283">
   <rect x="180" y="393.578444" width="1116" height="303.643112"/>
  </clipPath>
 </defs>
</svg>
