<?xml version="1.0" encoding="utf-8" standalone="no"?>
<!DOCTYPE svg PUBLIC "-//W3C//DTD SVG 1.1//EN"
  "http://www.w3.org/Graphics/SVG/1.1/DTD/svg11.dtd">
<svg xmlns:xlink="http://www.w3.org/1999/xlink" width="1440pt" height="1080pt" viewBox="0 0 1440 1080" xmlns="http://www.w3.org/2000/svg" version="1.1">
 <metadata>
  <rdf:RDF xmlns:dc="http://purl.org/dc/elements/1.1/" xmlns:cc="http://creativecommons.org/ns#" xmlns:rdf="http://www.w3.org/1999/02/22-rdf-syntax-ns#">
   <cc:Work>
    <dc:type rdf:resource="http://purl.org/dc/dcmitype/StillImage"/>
    <dc:date>2023-12-11T12:06:59.114457</dc:date>
    <dc:format>image/svg+xml</dc:format>
    <dc:creator>
     <cc:Agent>
      <dc:title>Matplotlib v3.7.1, https://matplotlib.org/</dc:title>
     </cc:Agent>
    </dc:creator>
   </cc:Work>
  </rdf:RDF>
 </metadata>
 <defs>
  <style type="text/css">*{stroke-linejoin: round; stroke-linecap: butt}</style>
 </defs>
 <g id="figure_1">
  <g id="patch_1">
   <path d="M 0 1080 
L 1440 1080 
L 1440 0 
L 0 0 
z
" style="fill: #ffffff"/>
  </g>
  <g id="axes_1">
   <g id="patch_2">
    <path d="M 229.647192 961.2 
L 1246.352808 961.2 
L 1246.352808 129.6 
L 229.647192 129.6 
z
" style="fill: #ffffff"/>
   </g>
   <g id="matplotlib.axis_1">
    <g id="xtick_1">
     <g id="line2d_1">
      <defs>
       <path id="m6ce06d54d1" d="M 0 0 
L 0 3.5 
" style="stroke: #000000; stroke-width: 0.8"/>
      </defs>
      <g>
       <use xlink:href="#m6ce06d54d1" x="274.719015" y="961.2" style="stroke: #000000; stroke-width: 0.8"/>
      </g>
     </g>
     <g id="text_1">
      <!-- 800 -->
      <g transform="translate(265.175265 975.798437) scale(0.1 -0.1)">
       <defs>
        <path id="DejaVuSans-38" d="M 2034 2216 
Q 1584 2216 1326 1975 
Q 1069 1734 1069 1313 
Q 1069 891 1326 650 
Q 1584 409 2034 409 
Q 2484 409 2743 651 
Q 3003 894 3003 1313 
Q 3003 1734 2745 1975 
Q 2488 2216 2034 2216 
z
M 1403 2484 
Q 997 2584 770 2862 
Q 544 3141 544 3541 
Q 544 4100 942 4425 
Q 1341 4750 2034 4750 
Q 2731 4750 3128 4425 
Q 3525 4100 3525 3541 
Q 3525 3141 3298 2862 
Q 3072 2584 2669 2484 
Q 3125 2378 3379 2068 
Q 3634 1759 3634 1313 
Q 3634 634 3220 271 
Q 2806 -91 2034 -91 
Q 1263 -91 848 271 
Q 434 634 434 1313 
Q 434 1759 690 2068 
Q 947 2378 1403 2484 
z
M 1172 3481 
Q 1172 3119 1398 2916 
Q 1625 2713 2034 2713 
Q 2441 2713 2670 2916 
Q 2900 3119 2900 3481 
Q 2900 3844 2670 4047 
Q 2441 4250 2034 4250 
Q 1625 4250 1398 4047 
Q 1172 3844 1172 3481 
z
" transform="scale(0.015625)"/>
        <path id="DejaVuSans-30" d="M 2034 4250 
Q 1547 4250 1301 3770 
Q 1056 3291 1056 2328 
Q 1056 1369 1301 889 
Q 1547 409 2034 409 
Q 2525 409 2770 889 
Q 3016 1369 3016 2328 
Q 3016 3291 2770 3770 
Q 2525 4250 2034 4250 
z
M 2034 4750 
Q 2819 4750 3233 4129 
Q 3647 3509 3647 2328 
Q 3647 1150 3233 529 
Q 2819 -91 2034 -91 
Q 1250 -91 836 529 
Q 422 1150 422 2328 
Q 422 3509 836 4129 
Q 1250 4750 2034 4750 
z
" transform="scale(0.015625)"/>
       </defs>
       <use xlink:href="#DejaVuSans-38"/>
       <use xlink:href="#DejaVuSans-30" x="63.623047"/>
       <use xlink:href="#DejaVuSans-30" x="127.246094"/>
      </g>
     </g>
    </g>
    <g id="xtick_2">
     <g id="line2d_2">
      <g>
       <use xlink:href="#m6ce06d54d1" x="444.554127" y="961.2" style="stroke: #000000; stroke-width: 0.8"/>
      </g>
     </g>
     <g id="text_2">
      <!-- 900 -->
      <g transform="translate(435.010377 975.798437) scale(0.1 -0.1)">
       <defs>
        <path id="DejaVuSans-39" d="M 703 97 
L 703 672 
Q 941 559 1184 500 
Q 1428 441 1663 441 
Q 2288 441 2617 861 
Q 2947 1281 2994 2138 
Q 2813 1869 2534 1725 
Q 2256 1581 1919 1581 
Q 1219 1581 811 2004 
Q 403 2428 403 3163 
Q 403 3881 828 4315 
Q 1253 4750 1959 4750 
Q 2769 4750 3195 4129 
Q 3622 3509 3622 2328 
Q 3622 1225 3098 567 
Q 2575 -91 1691 -91 
Q 1453 -91 1209 -44 
Q 966 3 703 97 
z
M 1959 2075 
Q 2384 2075 2632 2365 
Q 2881 2656 2881 3163 
Q 2881 3666 2632 3958 
Q 2384 4250 1959 4250 
Q 1534 4250 1286 3958 
Q 1038 3666 1038 3163 
Q 1038 2656 1286 2365 
Q 1534 2075 1959 2075 
z
" transform="scale(0.015625)"/>
       </defs>
       <use xlink:href="#DejaVuSans-39"/>
       <use xlink:href="#DejaVuSans-30" x="63.623047"/>
       <use xlink:href="#DejaVuSans-30" x="127.246094"/>
      </g>
     </g>
    </g>
    <g id="xtick_3">
     <g id="line2d_3">
      <g>
       <use xlink:href="#m6ce06d54d1" x="614.389239" y="961.2" style="stroke: #000000; stroke-width: 0.8"/>
      </g>
     </g>
     <g id="text_3">
      <!-- 1000 -->
      <g transform="translate(601.664239 975.798437) scale(0.1 -0.1)">
       <defs>
        <path id="DejaVuSans-31" d="M 794 531 
L 1825 531 
L 1825 4091 
L 703 3866 
L 703 4441 
L 1819 4666 
L 2450 4666 
L 2450 531 
L 3481 531 
L 3481 0 
L 794 0 
L 794 531 
z
" transform="scale(0.015625)"/>
       </defs>
       <use xlink:href="#DejaVuSans-31"/>
       <use xlink:href="#DejaVuSans-30" x="63.623047"/>
       <use xlink:href="#DejaVuSans-30" x="127.246094"/>
       <use xlink:href="#DejaVuSans-30" x="190.869141"/>
      </g>
     </g>
    </g>
    <g id="xtick_4">
     <g id="line2d_4">
      <g>
       <use xlink:href="#m6ce06d54d1" x="784.224351" y="961.2" style="stroke: #000000; stroke-width: 0.8"/>
      </g>
     </g>
     <g id="text_4">
      <!-- 1100 -->
      <g transform="translate(771.499351 975.798437) scale(0.1 -0.1)">
       <use xlink:href="#DejaVuSans-31"/>
       <use xlink:href="#DejaVuSans-31" x="63.623047"/>
       <use xlink:href="#DejaVuSans-30" x="127.246094"/>
       <use xlink:href="#DejaVuSans-30" x="190.869141"/>
      </g>
     </g>
    </g>
    <g id="xtick_5">
     <g id="line2d_5">
      <g>
       <use xlink:href="#m6ce06d54d1" x="954.059463" y="961.2" style="stroke: #000000; stroke-width: 0.8"/>
      </g>
     </g>
     <g id="text_5">
      <!-- 1200 -->
      <g transform="translate(941.334463 975.798437) scale(0.1 -0.1)">
       <defs>
        <path id="DejaVuSans-32" d="M 1228 531 
L 3431 531 
L 3431 0 
L 469 0 
L 469 531 
Q 828 903 1448 1529 
Q 2069 2156 2228 2338 
Q 2531 2678 2651 2914 
Q 2772 3150 2772 3378 
Q 2772 3750 2511 3984 
Q 2250 4219 1831 4219 
Q 1534 4219 1204 4116 
Q 875 4013 500 3803 
L 500 4441 
Q 881 4594 1212 4672 
Q 1544 4750 1819 4750 
Q 2544 4750 2975 4387 
Q 3406 4025 3406 3419 
Q 3406 3131 3298 2873 
Q 3191 2616 2906 2266 
Q 2828 2175 2409 1742 
Q 1991 1309 1228 531 
z
" transform="scale(0.015625)"/>
       </defs>
       <use xlink:href="#DejaVuSans-31"/>
       <use xlink:href="#DejaVuSans-32" x="63.623047"/>
       <use xlink:href="#DejaVuSans-30" x="127.246094"/>
       <use xlink:href="#DejaVuSans-30" x="190.869141"/>
      </g>
     </g>
    </g>
    <g id="xtick_6">
     <g id="line2d_6">
      <g>
       <use xlink:href="#m6ce06d54d1" x="1123.894575" y="961.2" style="stroke: #000000; stroke-width: 0.8"/>
      </g>
     </g>
     <g id="text_6">
      <!-- 1300 -->
      <g transform="translate(1111.169575 975.798437) scale(0.1 -0.1)">
       <defs>
        <path id="DejaVuSans-33" d="M 2597 2516 
Q 3050 2419 3304 2112 
Q 3559 1806 3559 1356 
Q 3559 666 3084 287 
Q 2609 -91 1734 -91 
Q 1441 -91 1130 -33 
Q 819 25 488 141 
L 488 750 
Q 750 597 1062 519 
Q 1375 441 1716 441 
Q 2309 441 2620 675 
Q 2931 909 2931 1356 
Q 2931 1769 2642 2001 
Q 2353 2234 1838 2234 
L 1294 2234 
L 1294 2753 
L 1863 2753 
Q 2328 2753 2575 2939 
Q 2822 3125 2822 3475 
Q 2822 3834 2567 4026 
Q 2313 4219 1838 4219 
Q 1578 4219 1281 4162 
Q 984 4106 628 3988 
L 628 4550 
Q 988 4650 1302 4700 
Q 1616 4750 1894 4750 
Q 2613 4750 3031 4423 
Q 3450 4097 3450 3541 
Q 3450 3153 3228 2886 
Q 3006 2619 2597 2516 
z
" transform="scale(0.015625)"/>
       </defs>
       <use xlink:href="#DejaVuSans-31"/>
       <use xlink:href="#DejaVuSans-33" x="63.623047"/>
       <use xlink:href="#DejaVuSans-30" x="127.246094"/>
       <use xlink:href="#DejaVuSans-30" x="190.869141"/>
      </g>
     </g>
    </g>
   </g>
   <g id="matplotlib.axis_2">
    <g id="ytick_1">
     <g id="line2d_7">
      <defs>
       <path id="mb7e5ba6dd4" d="M 0 0 
L -3.5 0 
" style="stroke: #000000; stroke-width: 0.8"/>
      </defs>
      <g>
       <use xlink:href="#mb7e5ba6dd4" x="229.647192" y="925.739311" style="stroke: #000000; stroke-width: 0.8"/>
      </g>
     </g>
     <g id="text_7">
      <!-- 900 -->
      <g transform="translate(203.559692 929.53853) scale(0.1 -0.1)">
       <use xlink:href="#DejaVuSans-39"/>
       <use xlink:href="#DejaVuSans-30" x="63.623047"/>
       <use xlink:href="#DejaVuSans-30" x="127.246094"/>
      </g>
     </g>
    </g>
    <g id="ytick_2">
     <g id="line2d_8">
      <g>
       <use xlink:href="#mb7e5ba6dd4" x="229.647192" y="755.904199" style="stroke: #000000; stroke-width: 0.8"/>
      </g>
     </g>
     <g id="text_8">
      <!-- 1000 -->
      <g transform="translate(197.197192 759.703418) scale(0.1 -0.1)">
       <use xlink:href="#DejaVuSans-31"/>
       <use xlink:href="#DejaVuSans-30" x="63.623047"/>
       <use xlink:href="#DejaVuSans-30" x="127.246094"/>
       <use xlink:href="#DejaVuSans-30" x="190.869141"/>
      </g>
     </g>
    </g>
    <g id="ytick_3">
     <g id="line2d_9">
      <g>
       <use xlink:href="#mb7e5ba6dd4" x="229.647192" y="586.069087" style="stroke: #000000; stroke-width: 0.8"/>
      </g>
     </g>
     <g id="text_9">
      <!-- 1100 -->
      <g transform="translate(197.197192 589.868306) scale(0.1 -0.1)">
       <use xlink:href="#DejaVuSans-31"/>
       <use xlink:href="#DejaVuSans-31" x="63.623047"/>
       <use xlink:href="#DejaVuSans-30" x="127.246094"/>
       <use xlink:href="#DejaVuSans-30" x="190.869141"/>
      </g>
     </g>
    </g>
    <g id="ytick_4">
     <g id="line2d_10">
      <g>
       <use xlink:href="#mb7e5ba6dd4" x="229.647192" y="416.233975" style="stroke: #000000; stroke-width: 0.8"/>
      </g>
     </g>
     <g id="text_10">
      <!-- 1200 -->
      <g transform="translate(197.197192 420.033194) scale(0.1 -0.1)">
       <use xlink:href="#DejaVuSans-31"/>
       <use xlink:href="#DejaVuSans-32" x="63.623047"/>
       <use xlink:href="#DejaVuSans-30" x="127.246094"/>
       <use xlink:href="#DejaVuSans-30" x="190.869141"/>
      </g>
     </g>
    </g>
    <g id="ytick_5">
     <g id="line2d_11">
      <g>
       <use xlink:href="#mb7e5ba6dd4" x="229.647192" y="246.398863" style="stroke: #000000; stroke-width: 0.8"/>
      </g>
     </g>
     <g id="text_11">
      <!-- 1300 -->
      <g transform="translate(197.197192 250.198082) scale(0.1 -0.1)">
       <use xlink:href="#DejaVuSans-31"/>
       <use xlink:href="#DejaVuSans-33" x="63.623047"/>
       <use xlink:href="#DejaVuSans-30" x="127.246094"/>
       <use xlink:href="#DejaVuSans-30" x="190.869141"/>
      </g>
     </g>
    </g>
   </g>
   <g id="LineCollection_1">
    <path d="M 290.560458 923.4 
L 304.488783 920.943998 
L 317.98707 918.294679 
L 331.099799 915.468286 
L 343.866901 912.471991 
L 356.323739 909.305081 
L 368.501092 905.960044 
L 380.425121 902.423547 
L 392.117307 898.677364 
L 403.59435 894.699288 
L 414.868041 890.464069 
L 425.945144 885.944409 
L 436.827321 881.112049 
L 447.511175 875.938949 
L 457.988482 870.398526 
L 468.24668 864.466902 
L 478.269669 858.12406 
L 488.038924 851.354775 
L 497.534862 844.149227 
L 506.738341 836.503187 
L 515.632136 828.417755 
L 524.202196 819.898713 
L 532.438573 810.955594 
L 540.33591 801.600642 
L 547.89351 791.847808 
L 555.11504 781.711928 
L 562.007985 771.208135 
L 568.58296 760.351545 
L 574.852998 749.157173 
L 580.832884 737.640024 
L 586.538585 725.815307 
L 591.986795 713.698699 
L 597.19459 701.306615 
L 602.179184 688.656452 
L 606.957767 675.766786 
L 611.547398 662.657511 
L 615.964946 649.349915 
L 620.227054 635.866708 
L 624.350118 622.231998 
L 628.350278 608.471223 
L 636.045087 580.679253 
L 643.43492 552.716494 
L 661.358959 483.550865 
L 668.584272 456.839712 
L 672.255191 443.814652 
L 675.978649 431.048729 
L 679.763834 418.570074 
L 683.618969 406.405913 
L 687.551233 394.582461 
L 691.566668 383.124827 
L 695.67009 372.056928 
L 699.864993 361.401407 
L 704.153456 351.17955 
L 708.536046 341.411198 
L 713.011732 332.114655 
L 717.577807 323.306562 
L 722.229842 315.001762 
L 726.961669 307.213106 
L 731.765443 299.951223 
L 736.631789 293.224221 
L 741.550113 287.037333 
L 746.509108 281.392501 
L 751.497563 276.287941 
L 756.505546 271.717748 
L 761.526051 267.67166 
L 766.557164 264.135164 
L 771.604728 261.090201 
L 776.685323 258.51676 
L 781.829234 256.395641 
L 787.08281 254.712509 
L 792.509541 253.463079 
L 798.189195 252.658857 
L 804.214724 252.33253 
L 810.687227 252.541899 
L 817.709858 253.371554 
L 825.382004 254.932028 
L 833.794938 257.356926 
L 843.029728 260.798993 
L 853.157477 265.42628 
L 864.241448 271.419251 
L 876.340318 278.969324 
L 889.511842 288.278848 
L 903.81637 299.562309 
L 919.319911 313.048395 
L 936.096634 328.982604 
L 954.230829 347.630113 
L 973.818426 369.27874 
L 994.968172 394.241895 
L 1017.802591 422.861476 
L 1042.458797 455.510694 
L 1069.089248 492.596848 
L 1097.862458 534.564058 
L 1129.171086 582.211549 
L 1129.171086 582.211549 
" clip-path="url(#pf068098cf6)" style="fill: none; stroke: #1f77b4; stroke-width: 1.5"/>
    <path d="M 283.210771 881.582182 
L 296.333375 879.275819 
L 309.062477 876.784445 
L 321.421405 874.127308 
L 333.430016 871.315955 
L 345.105073 868.355241 
L 356.460618 865.244263 
L 367.508307 861.97724 
L 378.25773 858.544335 
L 388.716714 854.93242 
L 398.891595 851.12578 
L 408.787476 847.106769 
L 418.408467 842.856413 
L 427.757906 838.354961 
L 436.838552 833.582384 
L 445.652776 828.518838 
L 454.202725 823.145066 
L 462.490469 817.442766 
L 470.51814 811.394921 
L 478.288047 804.986072 
L 485.802781 798.20257 
L 493.065308 791.032782 
L 500.079044 783.467257 
L 506.847921 775.498871 
L 513.376439 767.122929 
L 519.669705 758.33724 
L 525.733468 749.142161 
L 531.574134 739.540619 
L 537.198783 729.538103 
L 542.615161 719.142631 
L 547.831684 708.3647 
L 552.857415 697.21721 
L 557.702047 685.715371 
L 562.375872 673.876594 
L 566.889751 661.720365 
L 571.255071 649.268106 
L 575.4837 636.543021 
L 579.587944 623.569935 
L 583.580493 610.375122 
L 587.474364 596.986126 
L 591.282849 583.431576 
L 595.019456 569.740996 
L 598.697847 555.944618 
L 602.331783 542.073186 
L 605.935063 528.157767 
L 609.521465 514.229563 
L 613.104691 500.319726 
L 616.698311 486.459183 
L 620.315716 472.678462 
L 623.970061 459.007532 
L 627.67423 445.475655 
L 631.44079 432.111247 
L 635.281958 418.941753 
L 639.209574 405.993543 
L 643.235076 393.291821 
L 647.369489 380.860552 
L 651.623412 368.722417 
L 656.007023 356.898781 
L 660.530088 345.409694 
L 665.201977 334.273912 
L 670.031699 323.508949 
L 675.027936 313.131155 
L 680.199102 303.155827 
L 685.553397 293.597353 
L 691.098891 284.46939 
L 696.843611 275.785073 
L 702.795643 267.557273 
L 708.963251 259.798878 
L 715.355007 252.523132 
L 721.979945 245.744001 
L 728.84772 239.476596 
L 735.968793 233.737633 
L 743.35463 228.545943 
L 751.017917 223.923033 
L 758.9728 219.893698 
L 767.235137 216.48668 
L 775.822775 213.735388 
L 784.755846 211.67867 
L 794.057086 210.361643 
L 803.752173 209.836582 
L 813.870087 210.163871 
L 824.443497 211.413015 
L 835.509172 213.663715 
L 847.108407 217.007015 
L 859.287488 221.546503 
L 872.098171 227.3996 
L 885.598195 234.698902 
L 899.851813 243.593605 
L 914.930363 254.251 
L 930.912853 266.858043 
L 947.886587 281.623009 
L 965.947811 298.777212 
L 985.202394 318.576822 
L 1005.766539 341.304749 
L 1027.767521 367.272623 
L 1051.344464 396.82285 
L 1076.649145 430.330764 
L 1103.846831 468.206862 
L 1133.11715 510.899131 
L 1164.655001 558.895469 
" clip-path="url(#pf068098cf6)" style="fill: none; stroke: #8c564b; stroke-width: 1.5"/>
    <path d="M 275.861083 839.764364 
L 288.580105 837.528933 
L 300.521746 835.191683 
L 312.119142 832.698273 
L 323.371526 830.063961 
L 334.276316 827.298582 
L 344.829871 824.407318 
L 355.028208 821.391465 
L 364.867702 818.249153 
L 374.345775 814.975986 
L 383.461577 811.56557 
L 392.216636 808.009881 
L 400.615446 804.299459 
L 408.665935 800.423409 
L 416.379744 796.36921 
L 423.772245 792.122408 
L 430.862237 787.66624 
L 437.671297 782.981335 
L 444.222803 778.045595 
L 450.540741 772.834373 
L 456.648414 767.321017 
L 462.567256 761.477755 
L 468.315892 755.276859 
L 473.909564 748.691935 
L 479.35997 741.699186 
L 484.675473 734.278499 
L 489.861601 726.414264 
L 494.921716 718.095881 
L 499.857749 709.317953 
L 504.670901 700.080235 
L 509.36225 690.387373 
L 513.933242 680.248532 
L 518.386045 669.676949 
L 522.723794 658.689453 
L 526.95072 647.30601 
L 531.072213 635.549276 
L 535.094812 623.44419 
L 539.026162 611.017606 
L 542.874937 598.297945 
L 546.650748 585.314898 
L 554.026008 558.682035 
L 561.243753 531.37154 
L 579.297115 461.713872 
L 586.807486 433.957971 
L 590.680418 420.222602 
L 594.651283 406.617139 
L 598.734847 393.166061 
L 602.946067 379.892433 
L 607.300159 366.81788 
L 611.812668 353.962589 
L 616.499574 341.345348 
L 621.377406 328.983636 
L 626.463386 316.893768 
L 631.77558 305.091099 
L 637.333069 293.590305 
L 643.156123 282.405753 
L 649.266367 271.551962 
L 655.68692 261.044187 
L 662.442485 250.899127 
L 669.55934 241.135767 
L 677.065183 231.776368 
L 684.98876 222.847571 
L 693.359193 214.381596 
L 702.204915 206.417426 
L 711.552138 199.001848 
L 721.422842 192.190138 
L 729.086129 187.567229 
L 731.832359 186.046098 
L 739.787242 182.016763 
L 742.78681 180.641162 
L 751.049147 177.234144 
L 754.280861 176.052356 
L 762.868498 173.301064 
L 766.296449 172.359103 
L 775.22952 170.302385 
L 778.803192 169.639239 
L 788.104432 168.322212 
L 791.760994 167.964994 
L 801.45608 167.439934 
L 805.12489 167.4 
L 815.242804 167.727289 
L 818.851529 167.998327 
L 829.424939 169.247471 
L 832.906119 169.806142 
L 843.971793 172.056843 
L 847.268521 172.865854 
L 858.867756 176.209153 
L 861.937414 177.221987 
L 876.932121 182.927664 
L 892.292309 190.050642 
L 908.076203 198.678256 
L 924.358117 208.92101 
L 941.225936 220.914973 
L 958.778984 234.823272 
L 977.1265 250.837049 
L 996.386726 269.176194 
L 1016.686559 290.090067 
L 1038.161655 313.85836 
L 1060.956875 340.792166 
L 1085.22697 371.235283 
L 1111.137438 405.565759 
L 1138.865485 444.197663 
L 1168.601065 487.583051 
L 1200.138917 535.579389 
L 1200.138917 535.579389 
" clip-path="url(#pf068098cf6)" style="fill: none; stroke: #17becf; stroke-width: 1.5"/>
   </g>
   <g id="patch_3">
    <path d="M 229.647192 961.2 
L 229.647192 129.6 
" style="fill: none; stroke: #000000; stroke-width: 0.8; stroke-linejoin: miter; stroke-linecap: square"/>
   </g>
   <g id="patch_4">
    <path d="M 1246.352808 961.2 
L 1246.352808 129.6 
" style="fill: none; stroke: #000000; stroke-width: 0.8; stroke-linejoin: miter; stroke-linecap: square"/>
   </g>
   <g id="patch_5">
    <path d="M 229.647192 961.2 
L 1246.352808 961.2 
" style="fill: none; stroke: #000000; stroke-width: 0.8; stroke-linejoin: miter; stroke-linecap: square"/>
   </g>
   <g id="patch_6">
    <path d="M 229.647192 129.6 
L 1246.352808 129.6 
" style="fill: none; stroke: #000000; stroke-width: 0.8; stroke-linejoin: miter; stroke-linecap: square"/>
   </g>
  </g>
 </g>
 <defs>
  <clipPath id="pf068098cf6">
   <rect x="229.647192" y="129.6" width="1016.705617" height="831.6"/>
  </clipPath>
 </defs>
</svg>
