<?xml version="1.0" encoding="utf-8" standalone="no"?>
<!DOCTYPE svg PUBLIC "-//W3C//DTD SVG 1.1//EN"
  "http://www.w3.org/Graphics/SVG/1.1/DTD/svg11.dtd">
<svg xmlns:xlink="http://www.w3.org/1999/xlink" width="1440pt" height="1080pt" viewBox="0 0 1440 1080" xmlns="http://www.w3.org/2000/svg" version="1.1">
 <metadata>
  <rdf:RDF xmlns:dc="http://purl.org/dc/elements/1.1/" xmlns:cc="http://creativecommons.org/ns#" xmlns:rdf="http://www.w3.org/1999/02/22-rdf-syntax-ns#">
   <cc:Work>
    <dc:type rdf:resource="http://purl.org/dc/dcmitype/StillImage"/>
    <dc:date>2023-12-11T12:06:48.667884</dc:date>
    <dc:format>image/svg+xml</dc:format>
    <dc:creator>
     <cc:Agent>
      <dc:title>Matplotlib v3.7.1, https://matplotlib.org/</dc:title>
     </cc:Agent>
    </dc:creator>
   </cc:Work>
  </rdf:RDF>
 </metadata>
 <defs>
  <style type="text/css">*{stroke-linejoin: round; stroke-linecap: butt}</style>
 </defs>
 <g id="figure_1">
  <g id="patch_1">
   <path d="M 0 1080 
L 1440 1080 
L 1440 0 
L 0 0 
z
" style="fill: #ffffff"/>
  </g>
  <g id="axes_1">
   <g id="patch_2">
    <path d="M 223.599202 961.2 
L 1252.400798 961.2 
L 1252.400798 129.6 
L 223.599202 129.6 
z
" style="fill: #ffffff"/>
   </g>
   <g id="matplotlib.axis_1">
    <g id="xtick_1">
     <g id="line2d_1">
      <defs>
       <path id="mff037b4be5" d="M 0 0 
L 0 3.5 
" style="stroke: #000000; stroke-width: 0.8"/>
      </defs>
      <g>
       <use xlink:href="#mff037b4be5" x="351.223249" y="961.2" style="stroke: #000000; stroke-width: 0.8"/>
      </g>
     </g>
     <g id="text_1">
      <!-- 900 -->
      <g transform="translate(341.679499 975.798437) scale(0.1 -0.1)">
       <defs>
        <path id="DejaVuSans-39" d="M 703 97 
L 703 672 
Q 941 559 1184 500 
Q 1428 441 1663 441 
Q 2288 441 2617 861 
Q 2947 1281 2994 2138 
Q 2813 1869 2534 1725 
Q 2256 1581 1919 1581 
Q 1219 1581 811 2004 
Q 403 2428 403 3163 
Q 403 3881 828 4315 
Q 1253 4750 1959 4750 
Q 2769 4750 3195 4129 
Q 3622 3509 3622 2328 
Q 3622 1225 3098 567 
Q 2575 -91 1691 -91 
Q 1453 -91 1209 -44 
Q 966 3 703 97 
z
M 1959 2075 
Q 2384 2075 2632 2365 
Q 2881 2656 2881 3163 
Q 2881 3666 2632 3958 
Q 2384 4250 1959 4250 
Q 1534 4250 1286 3958 
Q 1038 3666 1038 3163 
Q 1038 2656 1286 2365 
Q 1534 2075 1959 2075 
z
" transform="scale(0.015625)"/>
        <path id="DejaVuSans-30" d="M 2034 4250 
Q 1547 4250 1301 3770 
Q 1056 3291 1056 2328 
Q 1056 1369 1301 889 
Q 1547 409 2034 409 
Q 2525 409 2770 889 
Q 3016 1369 3016 2328 
Q 3016 3291 2770 3770 
Q 2525 4250 2034 4250 
z
M 2034 4750 
Q 2819 4750 3233 4129 
Q 3647 3509 3647 2328 
Q 3647 1150 3233 529 
Q 2819 -91 2034 -91 
Q 1250 -91 836 529 
Q 422 1150 422 2328 
Q 422 3509 836 4129 
Q 1250 4750 2034 4750 
z
" transform="scale(0.015625)"/>
       </defs>
       <use xlink:href="#DejaVuSans-39"/>
       <use xlink:href="#DejaVuSans-30" x="63.623047"/>
       <use xlink:href="#DejaVuSans-30" x="127.246094"/>
      </g>
     </g>
    </g>
    <g id="xtick_2">
     <g id="line2d_2">
      <g>
       <use xlink:href="#mff037b4be5" x="509.313971" y="961.2" style="stroke: #000000; stroke-width: 0.8"/>
      </g>
     </g>
     <g id="text_2">
      <!-- 1000 -->
      <g transform="translate(496.588971 975.798437) scale(0.1 -0.1)">
       <defs>
        <path id="DejaVuSans-31" d="M 794 531 
L 1825 531 
L 1825 4091 
L 703 3866 
L 703 4441 
L 1819 4666 
L 2450 4666 
L 2450 531 
L 3481 531 
L 3481 0 
L 794 0 
L 794 531 
z
" transform="scale(0.015625)"/>
       </defs>
       <use xlink:href="#DejaVuSans-31"/>
       <use xlink:href="#DejaVuSans-30" x="63.623047"/>
       <use xlink:href="#DejaVuSans-30" x="127.246094"/>
       <use xlink:href="#DejaVuSans-30" x="190.869141"/>
      </g>
     </g>
    </g>
    <g id="xtick_3">
     <g id="line2d_3">
      <g>
       <use xlink:href="#mff037b4be5" x="667.404693" y="961.2" style="stroke: #000000; stroke-width: 0.8"/>
      </g>
     </g>
     <g id="text_3">
      <!-- 1100 -->
      <g transform="translate(654.679693 975.798437) scale(0.1 -0.1)">
       <use xlink:href="#DejaVuSans-31"/>
       <use xlink:href="#DejaVuSans-31" x="63.623047"/>
       <use xlink:href="#DejaVuSans-30" x="127.246094"/>
       <use xlink:href="#DejaVuSans-30" x="190.869141"/>
      </g>
     </g>
    </g>
    <g id="xtick_4">
     <g id="line2d_4">
      <g>
       <use xlink:href="#mff037b4be5" x="825.495415" y="961.2" style="stroke: #000000; stroke-width: 0.8"/>
      </g>
     </g>
     <g id="text_4">
      <!-- 1200 -->
      <g transform="translate(812.770415 975.798437) scale(0.1 -0.1)">
       <defs>
        <path id="DejaVuSans-32" d="M 1228 531 
L 3431 531 
L 3431 0 
L 469 0 
L 469 531 
Q 828 903 1448 1529 
Q 2069 2156 2228 2338 
Q 2531 2678 2651 2914 
Q 2772 3150 2772 3378 
Q 2772 3750 2511 3984 
Q 2250 4219 1831 4219 
Q 1534 4219 1204 4116 
Q 875 4013 500 3803 
L 500 4441 
Q 881 4594 1212 4672 
Q 1544 4750 1819 4750 
Q 2544 4750 2975 4387 
Q 3406 4025 3406 3419 
Q 3406 3131 3298 2873 
Q 3191 2616 2906 2266 
Q 2828 2175 2409 1742 
Q 1991 1309 1228 531 
z
" transform="scale(0.015625)"/>
       </defs>
       <use xlink:href="#DejaVuSans-31"/>
       <use xlink:href="#DejaVuSans-32" x="63.623047"/>
       <use xlink:href="#DejaVuSans-30" x="127.246094"/>
       <use xlink:href="#DejaVuSans-30" x="190.869141"/>
      </g>
     </g>
    </g>
    <g id="xtick_5">
     <g id="line2d_5">
      <g>
       <use xlink:href="#mff037b4be5" x="983.586137" y="961.2" style="stroke: #000000; stroke-width: 0.8"/>
      </g>
     </g>
     <g id="text_5">
      <!-- 1300 -->
      <g transform="translate(970.861137 975.798437) scale(0.1 -0.1)">
       <defs>
        <path id="DejaVuSans-33" d="M 2597 2516 
Q 3050 2419 3304 2112 
Q 3559 1806 3559 1356 
Q 3559 666 3084 287 
Q 2609 -91 1734 -91 
Q 1441 -91 1130 -33 
Q 819 25 488 141 
L 488 750 
Q 750 597 1062 519 
Q 1375 441 1716 441 
Q 2309 441 2620 675 
Q 2931 909 2931 1356 
Q 2931 1769 2642 2001 
Q 2353 2234 1838 2234 
L 1294 2234 
L 1294 2753 
L 1863 2753 
Q 2328 2753 2575 2939 
Q 2822 3125 2822 3475 
Q 2822 3834 2567 4026 
Q 2313 4219 1838 4219 
Q 1578 4219 1281 4162 
Q 984 4106 628 3988 
L 628 4550 
Q 988 4650 1302 4700 
Q 1616 4750 1894 4750 
Q 2613 4750 3031 4423 
Q 3450 4097 3450 3541 
Q 3450 3153 3228 2886 
Q 3006 2619 2597 2516 
z
" transform="scale(0.015625)"/>
       </defs>
       <use xlink:href="#DejaVuSans-31"/>
       <use xlink:href="#DejaVuSans-33" x="63.623047"/>
       <use xlink:href="#DejaVuSans-30" x="127.246094"/>
       <use xlink:href="#DejaVuSans-30" x="190.869141"/>
      </g>
     </g>
    </g>
    <g id="xtick_6">
     <g id="line2d_6">
      <g>
       <use xlink:href="#mff037b4be5" x="1141.676859" y="961.2" style="stroke: #000000; stroke-width: 0.8"/>
      </g>
     </g>
     <g id="text_6">
      <!-- 1400 -->
      <g transform="translate(1128.951859 975.798437) scale(0.1 -0.1)">
       <defs>
        <path id="DejaVuSans-34" d="M 2419 4116 
L 825 1625 
L 2419 1625 
L 2419 4116 
z
M 2253 4666 
L 3047 4666 
L 3047 1625 
L 3713 1625 
L 3713 1100 
L 3047 1100 
L 3047 0 
L 2419 0 
L 2419 1100 
L 313 1100 
L 313 1709 
L 2253 4666 
z
" transform="scale(0.015625)"/>
       </defs>
       <use xlink:href="#DejaVuSans-31"/>
       <use xlink:href="#DejaVuSans-34" x="63.623047"/>
       <use xlink:href="#DejaVuSans-30" x="127.246094"/>
       <use xlink:href="#DejaVuSans-30" x="190.869141"/>
      </g>
     </g>
    </g>
   </g>
   <g id="matplotlib.axis_2">
    <g id="ytick_1">
     <g id="line2d_7">
      <defs>
       <path id="mb99dd7f8d2" d="M 0 0 
L -3.5 0 
" style="stroke: #000000; stroke-width: 0.8"/>
      </defs>
      <g>
       <use xlink:href="#mb99dd7f8d2" x="223.599202" y="929.977797" style="stroke: #000000; stroke-width: 0.8"/>
      </g>
     </g>
     <g id="text_7">
      <!-- 700 -->
      <g transform="translate(197.511702 933.777016) scale(0.1 -0.1)">
       <defs>
        <path id="DejaVuSans-37" d="M 525 4666 
L 3525 4666 
L 3525 4397 
L 1831 0 
L 1172 0 
L 2766 4134 
L 525 4134 
L 525 4666 
z
" transform="scale(0.015625)"/>
       </defs>
       <use xlink:href="#DejaVuSans-37"/>
       <use xlink:href="#DejaVuSans-30" x="63.623047"/>
       <use xlink:href="#DejaVuSans-30" x="127.246094"/>
      </g>
     </g>
    </g>
    <g id="ytick_2">
     <g id="line2d_8">
      <g>
       <use xlink:href="#mb99dd7f8d2" x="223.599202" y="771.887075" style="stroke: #000000; stroke-width: 0.8"/>
      </g>
     </g>
     <g id="text_8">
      <!-- 800 -->
      <g transform="translate(197.511702 775.686294) scale(0.1 -0.1)">
       <defs>
        <path id="DejaVuSans-38" d="M 2034 2216 
Q 1584 2216 1326 1975 
Q 1069 1734 1069 1313 
Q 1069 891 1326 650 
Q 1584 409 2034 409 
Q 2484 409 2743 651 
Q 3003 894 3003 1313 
Q 3003 1734 2745 1975 
Q 2488 2216 2034 2216 
z
M 1403 2484 
Q 997 2584 770 2862 
Q 544 3141 544 3541 
Q 544 4100 942 4425 
Q 1341 4750 2034 4750 
Q 2731 4750 3128 4425 
Q 3525 4100 3525 3541 
Q 3525 3141 3298 2862 
Q 3072 2584 2669 2484 
Q 3125 2378 3379 2068 
Q 3634 1759 3634 1313 
Q 3634 634 3220 271 
Q 2806 -91 2034 -91 
Q 1263 -91 848 271 
Q 434 634 434 1313 
Q 434 1759 690 2068 
Q 947 2378 1403 2484 
z
M 1172 3481 
Q 1172 3119 1398 2916 
Q 1625 2713 2034 2713 
Q 2441 2713 2670 2916 
Q 2900 3119 2900 3481 
Q 2900 3844 2670 4047 
Q 2441 4250 2034 4250 
Q 1625 4250 1398 4047 
Q 1172 3844 1172 3481 
z
" transform="scale(0.015625)"/>
       </defs>
       <use xlink:href="#DejaVuSans-38"/>
       <use xlink:href="#DejaVuSans-30" x="63.623047"/>
       <use xlink:href="#DejaVuSans-30" x="127.246094"/>
      </g>
     </g>
    </g>
    <g id="ytick_3">
     <g id="line2d_9">
      <g>
       <use xlink:href="#mb99dd7f8d2" x="223.599202" y="613.796353" style="stroke: #000000; stroke-width: 0.8"/>
      </g>
     </g>
     <g id="text_9">
      <!-- 900 -->
      <g transform="translate(197.511702 617.595572) scale(0.1 -0.1)">
       <use xlink:href="#DejaVuSans-39"/>
       <use xlink:href="#DejaVuSans-30" x="63.623047"/>
       <use xlink:href="#DejaVuSans-30" x="127.246094"/>
      </g>
     </g>
    </g>
    <g id="ytick_4">
     <g id="line2d_10">
      <g>
       <use xlink:href="#mb99dd7f8d2" x="223.599202" y="455.705631" style="stroke: #000000; stroke-width: 0.8"/>
      </g>
     </g>
     <g id="text_10">
      <!-- 1000 -->
      <g transform="translate(191.149202 459.50485) scale(0.1 -0.1)">
       <use xlink:href="#DejaVuSans-31"/>
       <use xlink:href="#DejaVuSans-30" x="63.623047"/>
       <use xlink:href="#DejaVuSans-30" x="127.246094"/>
       <use xlink:href="#DejaVuSans-30" x="190.869141"/>
      </g>
     </g>
    </g>
    <g id="ytick_5">
     <g id="line2d_11">
      <g>
       <use xlink:href="#mb99dd7f8d2" x="223.599202" y="297.614909" style="stroke: #000000; stroke-width: 0.8"/>
      </g>
     </g>
     <g id="text_11">
      <!-- 1100 -->
      <g transform="translate(191.149202 301.414128) scale(0.1 -0.1)">
       <use xlink:href="#DejaVuSans-31"/>
       <use xlink:href="#DejaVuSans-31" x="63.623047"/>
       <use xlink:href="#DejaVuSans-30" x="127.246094"/>
       <use xlink:href="#DejaVuSans-30" x="190.869141"/>
      </g>
     </g>
    </g>
    <g id="ytick_6">
     <g id="line2d_12">
      <g>
       <use xlink:href="#mb99dd7f8d2" x="223.599202" y="139.524187" style="stroke: #000000; stroke-width: 0.8"/>
      </g>
     </g>
     <g id="text_12">
      <!-- 1200 -->
      <g transform="translate(191.149202 143.323406) scale(0.1 -0.1)">
       <use xlink:href="#DejaVuSans-31"/>
       <use xlink:href="#DejaVuSans-32" x="63.623047"/>
       <use xlink:href="#DejaVuSans-30" x="127.246094"/>
       <use xlink:href="#DejaVuSans-30" x="190.869141"/>
      </g>
     </g>
    </g>
   </g>
   <g id="LineCollection_1">
    <path d="M 343.552784 923.4 
L 351.017421 908.805138 
L 352.684448 905.105979 
L 359.785866 886.717684 
L 365.416612 868.433888 
L 370.00231 850.407805 
L 373.870888 832.7806 
L 377.279845 815.690192 
L 383.554055 783.364386 
L 386.698792 768.464687 
L 389.980547 754.594709 
L 393.464324 741.842132 
L 397.184755 730.274954 
L 401.148986 719.934429 
L 405.34247 710.826451 
L 409.739622 702.913014 
L 414.320212 696.10747 
L 419.089301 690.278803 
L 424.094196 685.268738 
L 429.429443 680.919636 
L 435.224432 677.103677 
L 441.617325 673.741084 
L 448.726777 670.800993 
L 456.632746 668.288197 
L 465.3707 666.22466 
L 474.936451 664.633591 
L 485.29607 663.529504 
L 496.396303 662.91399 
L 508.17311 662.775378 
L 520.557741 663.090413 
L 533.480646 663.826677 
L 546.873802 664.945021 
L 560.67199 666.401719 
L 574.81344 668.150231 
L 589.240107 670.142602 
L 603.897751 672.330558 
L 633.707862 677.103324 
L 694.247252 687.014432 
L 709.350578 689.331266 
L 724.378819 691.512607 
L 739.308621 693.528059 
L 754.119352 695.349967 
L 768.79293 696.953398 
L 783.313634 698.316123 
L 797.667908 699.418575 
L 811.844149 700.243812 
L 825.832504 700.777471 
L 839.624676 701.007725 
L 853.213752 700.925231 
L 866.594056 700.523076 
L 879.761055 699.796702 
L 892.7113 698.743806 
L 905.442417 697.3642 
L 917.95314 695.659622 
L 930.24337 693.633486 
L 942.314254 691.290567 
L 954.168254 688.636614 
L 965.809189 685.67791 
L 977.242243 682.420767 
L 988.473899 678.870998 
L 999.511814 675.033359 
L 1010.364613 670.910982 
L 1021.041608 666.504827 
L 1031.552445 661.813143 
L 1041.906673 656.830959 
L 1052.113245 651.549615 
L 1062.179941 645.956321 
L 1072.112716 640.033781 
L 1081.91496 633.759863 
L 1091.586657 627.107381 
L 1101.123452 620.043988 
L 1110.515614 612.532264 
L 1119.746944 604.530049 
L 1128.793683 595.991088 
L 1137.623544 586.866057 
L 1146.195036 577.103943 
L 1154.457296 566.653733 
L 1162.350655 555.466162 
L 1169.80806 543.495205 
L 1176.757349 530.69887 
L 1183.124091 517.038879 
L 1188.834508 502.479046 
L 1193.817868 486.982429 
L 1198.007818 470.507747 
L 1201.342416 453.005708 
L 1203.762969 434.415953 
L 1205.212061 414.665067 
L 1205.631306 393.665813 
L 1204.959255 371.317432 
L 1203.129789 347.506717 
L 1200.071075 322.109503 
L 1195.705098 294.992282 
L 1189.947634 266.013744 
L 1182.708565 235.026146 
L 1173.892391 201.87647 
L 1163.705852 167.4 
L 1163.705852 167.4 
" clip-path="url(#p01ef17cc1a)" style="fill: none; stroke: #1f77b4; stroke-width: 1.5"/>
    <path d="M 306.957847 904.683282 
L 314.422485 890.088419 
L 320.53711 874.509485 
L 325.594684 858.249636 
L 329.85806 841.579208 
L 333.561857 824.737781 
L 336.914263 807.93618 
L 340.098766 791.358398 
L 343.275826 775.163443 
L 346.584479 759.487116 
L 350.143876 744.443715 
L 354.054763 730.127672 
L 358.400899 716.615117 
L 363.250408 703.965384 
L 368.657081 692.222437 
L 374.661613 681.416242 
L 381.292786 671.564074 
L 388.568593 662.671757 
L 396.497315 654.734843 
L 405.078534 647.739742 
L 414.304098 641.664773 
L 424.159042 636.48118 
L 434.622442 632.154073 
L 445.668239 628.64333 
L 457.265998 625.904427 
L 469.381633 623.889237 
L 481.978076 622.546757 
L 495.015909 621.823802 
L 508.45395 621.665638 
L 522.249792 622.016571 
L 536.360308 622.820497 
L 550.742109 624.021394 
L 565.351969 625.563782 
L 580.147207 627.393131 
L 595.086032 629.456233 
L 610.127857 631.701536 
L 625.233573 634.07943 
L 640.365795 636.542506 
L 655.489065 639.045772 
L 670.570038 641.546834 
L 685.577626 644.006044 
L 700.483116 646.386622 
L 715.260267 648.654731 
L 729.885367 650.779538 
L 744.337273 652.733236 
L 758.597429 654.491042 
L 772.649848 656.031165 
L 786.481085 657.334759 
L 800.08018 658.385833 
L 813.438586 659.17116 
L 826.55007 659.680147 
L 839.410608 659.904694 
L 852.018249 659.839032 
L 864.372976 659.479542 
L 876.476544 658.824554 
L 888.332306 657.874143 
L 899.94503 656.629894 
L 911.320697 655.094666 
L 922.466301 653.27234 
L 933.389625 651.167557 
L 944.099019 648.785448 
L 954.603171 646.131354 
L 964.910864 643.210538 
L 975.030738 640.027899 
L 984.971043 636.587671 
L 994.739388 632.893128 
L 1004.342493 628.94628 
L 1013.78594 624.747576 
L 1023.073919 620.295602 
L 1032.208987 615.58678 
L 1041.191817 610.615077 
L 1050.020958 605.37171 
L 1058.692607 599.844863 
L 1067.200369 594.01941 
L 1075.535045 587.876639 
L 1083.684413 581.393999 
L 1091.633029 574.544841 
L 1099.36203 567.298185 
L 1106.848957 559.618493 
L 1114.067587 551.465458 
L 1120.987777 542.793804 
L 1127.57533 533.553114 
L 1133.791867 523.687662 
L 1139.594731 513.136276 
L 1144.936891 501.832213 
L 1149.766884 489.703064 
L 1154.028767 476.670669 
L 1157.662092 462.651072 
L 1160.601906 447.554491 
L 1162.778776 431.285317 
L 1164.118836 413.742141 
L 1164.543864 394.81781 
L 1163.971383 374.399515 
L 1162.314792 352.36891 
L 1159.483527 328.60226 
L 1155.383256 302.970628 
L 1149.916096 275.340098 
L 1142.980875 245.572025 
L 1134.473419 213.523338 
L 1124.28688 179.046868 
" clip-path="url(#p01ef17cc1a)" style="fill: none; stroke: #8c564b; stroke-width: 1.5"/>
    <path d="M 270.362911 885.966563 
L 276.902635 873.180091 
L 281.730839 860.878722 
L 286.033439 847.046075 
L 289.86348 832.070052 
L 293.331379 816.301268 
L 296.57644 800.037663 
L 303.058255 766.675104 
L 306.585294 750.022968 
L 310.493203 733.611859 
L 314.925349 717.542209 
L 320.021034 701.901487 
L 325.914129 686.775061 
L 331.320802 675.032114 
L 332.72762 672.257999 
L 338.732152 661.451804 
L 340.562429 658.465195 
L 347.193602 648.613027 
L 349.480846 645.53514 
L 356.756654 636.642822 
L 359.488966 633.62214 
L 367.417688 625.685227 
L 370.526602 622.875356 
L 379.10782 615.880254 
L 382.472994 613.410534 
L 391.698559 607.335565 
L 395.169554 605.286563 
L 405.024498 600.10297 
L 408.450998 598.497469 
L 418.914399 594.170362 
L 422.172012 592.981485 
L 433.217809 589.470741 
L 436.221163 588.640109 
L 450.521903 585.357885 
L 465.025643 583.017116 
L 479.702355 581.506216 
L 494.532156 580.723061 
L 509.499189 580.575342 
L 524.587817 580.979532 
L 539.780603 581.85946 
L 555.057503 583.144967 
L 570.39579 584.770832 
L 585.770381 586.675999 
L 601.154356 588.803061 
L 616.519545 591.097949 
L 647.078098 595.990689 
L 706.842385 605.777753 
L 721.333142 608.001905 
L 735.593625 610.073738 
L 749.605054 611.96789 
L 763.351009 613.662311 
L 776.817585 615.138228 
L 789.993518 616.380059 
L 802.870279 617.375304 
L 815.44214 618.114391 
L 827.706204 618.590481 
L 839.662389 618.799238 
L 851.313363 618.738558 
L 862.664418 618.408272 
L 873.723286 617.809819 
L 884.499869 616.94592 
L 895.005911 615.820246 
L 905.2546 614.437112 
L 915.260104 612.801194 
L 925.037078 610.917298 
L 934.600142 608.79017 
L 943.963364 606.424355 
L 953.139762 603.824106 
L 962.140854 600.993317 
L 970.976255 597.935484 
L 979.653356 594.653666 
L 988.17706 591.150449 
L 996.549604 587.427886 
L 1004.770449 583.487417 
L 1012.836251 579.329767 
L 1020.740901 574.9548 
L 1028.475664 570.361352 
L 1036.029393 565.547007 
L 1043.388865 560.507814 
L 1050.539217 555.237907 
L 1057.464508 549.728993 
L 1064.148372 543.969645 
L 1070.574735 537.944333 
L 1076.728488 531.632141 
L 1082.595988 525.00513 
L 1088.165182 518.026403 
L 1093.425137 510.647999 
L 1098.364797 502.808913 
L 1102.97089 494.433622 
L 1107.225151 485.431566 
L 1111.101234 475.697889 
L 1114.561903 465.115524 
L 1117.557071 453.558327 
L 1120.023109 440.89469 
L 1121.883478 426.990932 
L 1123.050436 411.713893 
L 1123.427337 394.932417 
L 1122.911032 376.517725 
L 1121.393988 356.342929 
L 1118.765924 334.282013 
L 1114.914923 310.20862 
L 1109.728099 283.994883 
L 1103.091937 255.510465 
L 1094.89243 224.621859 
L 1084.867907 190.693736 
L 1084.867907 190.693736 
" clip-path="url(#p01ef17cc1a)" style="fill: none; stroke: #17becf; stroke-width: 1.5"/>
   </g>
   <g id="patch_3">
    <path d="M 223.599202 961.2 
L 223.599202 129.6 
" style="fill: none; stroke: #000000; stroke-width: 0.8; stroke-linejoin: miter; stroke-linecap: square"/>
   </g>
   <g id="patch_4">
    <path d="M 1252.400798 961.2 
L 1252.400798 129.6 
" style="fill: none; stroke: #000000; stroke-width: 0.8; stroke-linejoin: miter; stroke-linecap: square"/>
   </g>
   <g id="patch_5">
    <path d="M 223.599202 961.2 
L 1252.400798 961.2 
" style="fill: none; stroke: #000000; stroke-width: 0.8; stroke-linejoin: miter; stroke-linecap: square"/>
   </g>
   <g id="patch_6">
    <path d="M 223.599202 129.6 
L 1252.400798 129.6 
" style="fill: none; stroke: #000000; stroke-width: 0.8; stroke-linejoin: miter; stroke-linecap: square"/>
   </g>
  </g>
 </g>
 <defs>
  <clipPath id="p01ef17cc1a">
   <rect x="223.599202" y="129.6" width="1028.801596" height="831.6"/>
  </clipPath>
 </defs>
</svg>
