<?xml version="1.0" encoding="utf-8" standalone="no"?>
<!DOCTYPE svg PUBLIC "-//W3C//DTD SVG 1.1//EN"
  "http://www.w3.org/Graphics/SVG/1.1/DTD/svg11.dtd">
<svg xmlns:xlink="http://www.w3.org/1999/xlink" width="1440pt" height="1080pt" viewBox="0 0 1440 1080" xmlns="http://www.w3.org/2000/svg" version="1.1">
 <metadata>
  <rdf:RDF xmlns:dc="http://purl.org/dc/elements/1.1/" xmlns:cc="http://creativecommons.org/ns#" xmlns:rdf="http://www.w3.org/1999/02/22-rdf-syntax-ns#">
   <cc:Work>
    <dc:type rdf:resource="http://purl.org/dc/dcmitype/StillImage"/>
    <dc:date>2023-12-11T12:06:46.509933</dc:date>
    <dc:format>image/svg+xml</dc:format>
    <dc:creator>
     <cc:Agent>
      <dc:title>Matplotlib v3.7.1, https://matplotlib.org/</dc:title>
     </cc:Agent>
    </dc:creator>
   </cc:Work>
  </rdf:RDF>
 </metadata>
 <defs>
  <style type="text/css">*{stroke-linejoin: round; stroke-linecap: butt}</style>
 </defs>
 <g id="figure_1">
  <g id="patch_1">
   <path d="M 0 1080 
L 1440 1080 
L 1440 0 
L 0 0 
z
" style="fill: #ffffff"/>
  </g>
  <g id="axes_1">
   <g id="patch_2">
    <path d="M 352.81138 961.2 
L 1123.18862 961.2 
L 1123.18862 129.6 
L 352.81138 129.6 
z
" style="fill: #ffffff"/>
   </g>
   <g id="matplotlib.axis_1">
    <g id="xtick_1">
     <g id="line2d_1">
      <defs>
       <path id="m0ed29d240c" d="M 0 0 
L 0 3.5 
" style="stroke: #000000; stroke-width: 0.8"/>
      </defs>
      <g>
       <use xlink:href="#m0ed29d240c" x="407.33257" y="961.2" style="stroke: #000000; stroke-width: 0.8"/>
      </g>
     </g>
     <g id="text_1">
      <!-- 700 -->
      <g transform="translate(397.78882 975.798437) scale(0.1 -0.1)">
       <defs>
        <path id="DejaVuSans-37" d="M 525 4666 
L 3525 4666 
L 3525 4397 
L 1831 0 
L 1172 0 
L 2766 4134 
L 525 4134 
L 525 4666 
z
" transform="scale(0.015625)"/>
        <path id="DejaVuSans-30" d="M 2034 4250 
Q 1547 4250 1301 3770 
Q 1056 3291 1056 2328 
Q 1056 1369 1301 889 
Q 1547 409 2034 409 
Q 2525 409 2770 889 
Q 3016 1369 3016 2328 
Q 3016 3291 2770 3770 
Q 2525 4250 2034 4250 
z
M 2034 4750 
Q 2819 4750 3233 4129 
Q 3647 3509 3647 2328 
Q 3647 1150 3233 529 
Q 2819 -91 2034 -91 
Q 1250 -91 836 529 
Q 422 1150 422 2328 
Q 422 3509 836 4129 
Q 1250 4750 2034 4750 
z
" transform="scale(0.015625)"/>
       </defs>
       <use xlink:href="#DejaVuSans-37"/>
       <use xlink:href="#DejaVuSans-30" x="63.623047"/>
       <use xlink:href="#DejaVuSans-30" x="127.246094"/>
      </g>
     </g>
    </g>
    <g id="xtick_2">
     <g id="line2d_2">
      <g>
       <use xlink:href="#m0ed29d240c" x="497.55029" y="961.2" style="stroke: #000000; stroke-width: 0.8"/>
      </g>
     </g>
     <g id="text_2">
      <!-- 800 -->
      <g transform="translate(488.00654 975.798437) scale(0.1 -0.1)">
       <defs>
        <path id="DejaVuSans-38" d="M 2034 2216 
Q 1584 2216 1326 1975 
Q 1069 1734 1069 1313 
Q 1069 891 1326 650 
Q 1584 409 2034 409 
Q 2484 409 2743 651 
Q 3003 894 3003 1313 
Q 3003 1734 2745 1975 
Q 2488 2216 2034 2216 
z
M 1403 2484 
Q 997 2584 770 2862 
Q 544 3141 544 3541 
Q 544 4100 942 4425 
Q 1341 4750 2034 4750 
Q 2731 4750 3128 4425 
Q 3525 4100 3525 3541 
Q 3525 3141 3298 2862 
Q 3072 2584 2669 2484 
Q 3125 2378 3379 2068 
Q 3634 1759 3634 1313 
Q 3634 634 3220 271 
Q 2806 -91 2034 -91 
Q 1263 -91 848 271 
Q 434 634 434 1313 
Q 434 1759 690 2068 
Q 947 2378 1403 2484 
z
M 1172 3481 
Q 1172 3119 1398 2916 
Q 1625 2713 2034 2713 
Q 2441 2713 2670 2916 
Q 2900 3119 2900 3481 
Q 2900 3844 2670 4047 
Q 2441 4250 2034 4250 
Q 1625 4250 1398 4047 
Q 1172 3844 1172 3481 
z
" transform="scale(0.015625)"/>
       </defs>
       <use xlink:href="#DejaVuSans-38"/>
       <use xlink:href="#DejaVuSans-30" x="63.623047"/>
       <use xlink:href="#DejaVuSans-30" x="127.246094"/>
      </g>
     </g>
    </g>
    <g id="xtick_3">
     <g id="line2d_3">
      <g>
       <use xlink:href="#m0ed29d240c" x="587.768009" y="961.2" style="stroke: #000000; stroke-width: 0.8"/>
      </g>
     </g>
     <g id="text_3">
      <!-- 900 -->
      <g transform="translate(578.224259 975.798437) scale(0.1 -0.1)">
       <defs>
        <path id="DejaVuSans-39" d="M 703 97 
L 703 672 
Q 941 559 1184 500 
Q 1428 441 1663 441 
Q 2288 441 2617 861 
Q 2947 1281 2994 2138 
Q 2813 1869 2534 1725 
Q 2256 1581 1919 1581 
Q 1219 1581 811 2004 
Q 403 2428 403 3163 
Q 403 3881 828 4315 
Q 1253 4750 1959 4750 
Q 2769 4750 3195 4129 
Q 3622 3509 3622 2328 
Q 3622 1225 3098 567 
Q 2575 -91 1691 -91 
Q 1453 -91 1209 -44 
Q 966 3 703 97 
z
M 1959 2075 
Q 2384 2075 2632 2365 
Q 2881 2656 2881 3163 
Q 2881 3666 2632 3958 
Q 2384 4250 1959 4250 
Q 1534 4250 1286 3958 
Q 1038 3666 1038 3163 
Q 1038 2656 1286 2365 
Q 1534 2075 1959 2075 
z
" transform="scale(0.015625)"/>
       </defs>
       <use xlink:href="#DejaVuSans-39"/>
       <use xlink:href="#DejaVuSans-30" x="63.623047"/>
       <use xlink:href="#DejaVuSans-30" x="127.246094"/>
      </g>
     </g>
    </g>
    <g id="xtick_4">
     <g id="line2d_4">
      <g>
       <use xlink:href="#m0ed29d240c" x="677.985729" y="961.2" style="stroke: #000000; stroke-width: 0.8"/>
      </g>
     </g>
     <g id="text_4">
      <!-- 1000 -->
      <g transform="translate(665.260729 975.798437) scale(0.1 -0.1)">
       <defs>
        <path id="DejaVuSans-31" d="M 794 531 
L 1825 531 
L 1825 4091 
L 703 3866 
L 703 4441 
L 1819 4666 
L 2450 4666 
L 2450 531 
L 3481 531 
L 3481 0 
L 794 0 
L 794 531 
z
" transform="scale(0.015625)"/>
       </defs>
       <use xlink:href="#DejaVuSans-31"/>
       <use xlink:href="#DejaVuSans-30" x="63.623047"/>
       <use xlink:href="#DejaVuSans-30" x="127.246094"/>
       <use xlink:href="#DejaVuSans-30" x="190.869141"/>
      </g>
     </g>
    </g>
    <g id="xtick_5">
     <g id="line2d_5">
      <g>
       <use xlink:href="#m0ed29d240c" x="768.203448" y="961.2" style="stroke: #000000; stroke-width: 0.8"/>
      </g>
     </g>
     <g id="text_5">
      <!-- 1100 -->
      <g transform="translate(755.478448 975.798437) scale(0.1 -0.1)">
       <use xlink:href="#DejaVuSans-31"/>
       <use xlink:href="#DejaVuSans-31" x="63.623047"/>
       <use xlink:href="#DejaVuSans-30" x="127.246094"/>
       <use xlink:href="#DejaVuSans-30" x="190.869141"/>
      </g>
     </g>
    </g>
    <g id="xtick_6">
     <g id="line2d_6">
      <g>
       <use xlink:href="#m0ed29d240c" x="858.421168" y="961.2" style="stroke: #000000; stroke-width: 0.8"/>
      </g>
     </g>
     <g id="text_6">
      <!-- 1200 -->
      <g transform="translate(845.696168 975.798437) scale(0.1 -0.1)">
       <defs>
        <path id="DejaVuSans-32" d="M 1228 531 
L 3431 531 
L 3431 0 
L 469 0 
L 469 531 
Q 828 903 1448 1529 
Q 2069 2156 2228 2338 
Q 2531 2678 2651 2914 
Q 2772 3150 2772 3378 
Q 2772 3750 2511 3984 
Q 2250 4219 1831 4219 
Q 1534 4219 1204 4116 
Q 875 4013 500 3803 
L 500 4441 
Q 881 4594 1212 4672 
Q 1544 4750 1819 4750 
Q 2544 4750 2975 4387 
Q 3406 4025 3406 3419 
Q 3406 3131 3298 2873 
Q 3191 2616 2906 2266 
Q 2828 2175 2409 1742 
Q 1991 1309 1228 531 
z
" transform="scale(0.015625)"/>
       </defs>
       <use xlink:href="#DejaVuSans-31"/>
       <use xlink:href="#DejaVuSans-32" x="63.623047"/>
       <use xlink:href="#DejaVuSans-30" x="127.246094"/>
       <use xlink:href="#DejaVuSans-30" x="190.869141"/>
      </g>
     </g>
    </g>
    <g id="xtick_7">
     <g id="line2d_7">
      <g>
       <use xlink:href="#m0ed29d240c" x="948.638887" y="961.2" style="stroke: #000000; stroke-width: 0.8"/>
      </g>
     </g>
     <g id="text_7">
      <!-- 1300 -->
      <g transform="translate(935.913887 975.798437) scale(0.1 -0.1)">
       <defs>
        <path id="DejaVuSans-33" d="M 2597 2516 
Q 3050 2419 3304 2112 
Q 3559 1806 3559 1356 
Q 3559 666 3084 287 
Q 2609 -91 1734 -91 
Q 1441 -91 1130 -33 
Q 819 25 488 141 
L 488 750 
Q 750 597 1062 519 
Q 1375 441 1716 441 
Q 2309 441 2620 675 
Q 2931 909 2931 1356 
Q 2931 1769 2642 2001 
Q 2353 2234 1838 2234 
L 1294 2234 
L 1294 2753 
L 1863 2753 
Q 2328 2753 2575 2939 
Q 2822 3125 2822 3475 
Q 2822 3834 2567 4026 
Q 2313 4219 1838 4219 
Q 1578 4219 1281 4162 
Q 984 4106 628 3988 
L 628 4550 
Q 988 4650 1302 4700 
Q 1616 4750 1894 4750 
Q 2613 4750 3031 4423 
Q 3450 4097 3450 3541 
Q 3450 3153 3228 2886 
Q 3006 2619 2597 2516 
z
" transform="scale(0.015625)"/>
       </defs>
       <use xlink:href="#DejaVuSans-31"/>
       <use xlink:href="#DejaVuSans-33" x="63.623047"/>
       <use xlink:href="#DejaVuSans-30" x="127.246094"/>
       <use xlink:href="#DejaVuSans-30" x="190.869141"/>
      </g>
     </g>
    </g>
    <g id="xtick_8">
     <g id="line2d_8">
      <g>
       <use xlink:href="#m0ed29d240c" x="1038.856607" y="961.2" style="stroke: #000000; stroke-width: 0.8"/>
      </g>
     </g>
     <g id="text_8">
      <!-- 1400 -->
      <g transform="translate(1026.131607 975.798437) scale(0.1 -0.1)">
       <defs>
        <path id="DejaVuSans-34" d="M 2419 4116 
L 825 1625 
L 2419 1625 
L 2419 4116 
z
M 2253 4666 
L 3047 4666 
L 3047 1625 
L 3713 1625 
L 3713 1100 
L 3047 1100 
L 3047 0 
L 2419 0 
L 2419 1100 
L 313 1100 
L 313 1709 
L 2253 4666 
z
" transform="scale(0.015625)"/>
       </defs>
       <use xlink:href="#DejaVuSans-31"/>
       <use xlink:href="#DejaVuSans-34" x="63.623047"/>
       <use xlink:href="#DejaVuSans-30" x="127.246094"/>
       <use xlink:href="#DejaVuSans-30" x="190.869141"/>
      </g>
     </g>
    </g>
   </g>
   <g id="matplotlib.axis_2">
    <g id="ytick_1">
     <g id="line2d_9">
      <defs>
       <path id="maaffc625a5" d="M 0 0 
L -3.5 0 
" style="stroke: #000000; stroke-width: 0.8"/>
      </defs>
      <g>
       <use xlink:href="#maaffc625a5" x="352.81138" y="936.665405" style="stroke: #000000; stroke-width: 0.8"/>
      </g>
     </g>
     <g id="text_9">
      <!-- 400 -->
      <g transform="translate(326.72388 940.464624) scale(0.1 -0.1)">
       <use xlink:href="#DejaVuSans-34"/>
       <use xlink:href="#DejaVuSans-30" x="63.623047"/>
       <use xlink:href="#DejaVuSans-30" x="127.246094"/>
      </g>
     </g>
    </g>
    <g id="ytick_2">
     <g id="line2d_10">
      <g>
       <use xlink:href="#maaffc625a5" x="352.81138" y="756.229966" style="stroke: #000000; stroke-width: 0.8"/>
      </g>
     </g>
     <g id="text_10">
      <!-- 600 -->
      <g transform="translate(326.72388 760.029185) scale(0.1 -0.1)">
       <defs>
        <path id="DejaVuSans-36" d="M 2113 2584 
Q 1688 2584 1439 2293 
Q 1191 2003 1191 1497 
Q 1191 994 1439 701 
Q 1688 409 2113 409 
Q 2538 409 2786 701 
Q 3034 994 3034 1497 
Q 3034 2003 2786 2293 
Q 2538 2584 2113 2584 
z
M 3366 4563 
L 3366 3988 
Q 3128 4100 2886 4159 
Q 2644 4219 2406 4219 
Q 1781 4219 1451 3797 
Q 1122 3375 1075 2522 
Q 1259 2794 1537 2939 
Q 1816 3084 2150 3084 
Q 2853 3084 3261 2657 
Q 3669 2231 3669 1497 
Q 3669 778 3244 343 
Q 2819 -91 2113 -91 
Q 1303 -91 875 529 
Q 447 1150 447 2328 
Q 447 3434 972 4092 
Q 1497 4750 2381 4750 
Q 2619 4750 2861 4703 
Q 3103 4656 3366 4563 
z
" transform="scale(0.015625)"/>
       </defs>
       <use xlink:href="#DejaVuSans-36"/>
       <use xlink:href="#DejaVuSans-30" x="63.623047"/>
       <use xlink:href="#DejaVuSans-30" x="127.246094"/>
      </g>
     </g>
    </g>
    <g id="ytick_3">
     <g id="line2d_11">
      <g>
       <use xlink:href="#maaffc625a5" x="352.81138" y="575.794527" style="stroke: #000000; stroke-width: 0.8"/>
      </g>
     </g>
     <g id="text_11">
      <!-- 800 -->
      <g transform="translate(326.72388 579.593746) scale(0.1 -0.1)">
       <use xlink:href="#DejaVuSans-38"/>
       <use xlink:href="#DejaVuSans-30" x="63.623047"/>
       <use xlink:href="#DejaVuSans-30" x="127.246094"/>
      </g>
     </g>
    </g>
    <g id="ytick_4">
     <g id="line2d_12">
      <g>
       <use xlink:href="#maaffc625a5" x="352.81138" y="395.359088" style="stroke: #000000; stroke-width: 0.8"/>
      </g>
     </g>
     <g id="text_12">
      <!-- 1000 -->
      <g transform="translate(320.36138 399.158307) scale(0.1 -0.1)">
       <use xlink:href="#DejaVuSans-31"/>
       <use xlink:href="#DejaVuSans-30" x="63.623047"/>
       <use xlink:href="#DejaVuSans-30" x="127.246094"/>
       <use xlink:href="#DejaVuSans-30" x="190.869141"/>
      </g>
     </g>
    </g>
    <g id="ytick_5">
     <g id="line2d_13">
      <g>
       <use xlink:href="#maaffc625a5" x="352.81138" y="214.923649" style="stroke: #000000; stroke-width: 0.8"/>
      </g>
     </g>
     <g id="text_13">
      <!-- 1200 -->
      <g transform="translate(320.36138 218.722868) scale(0.1 -0.1)">
       <use xlink:href="#DejaVuSans-31"/>
       <use xlink:href="#DejaVuSans-32" x="63.623047"/>
       <use xlink:href="#DejaVuSans-30" x="127.246094"/>
       <use xlink:href="#DejaVuSans-30" x="190.869141"/>
      </g>
     </g>
    </g>
   </g>
   <g id="LineCollection_1">
    <path d="M 387.828528 879.81085 
L 416.990485 889.006255 
L 444.580968 897.083559 
L 470.64395 904.053422 
L 495.22739 909.928802 
L 518.383046 914.724231 
L 540.166171 918.454958 
L 560.634993 921.135931 
L 579.84982 922.780653 
L 597.871532 923.4 
L 614.759223 923.001246 
L 630.566776 921.587774 
L 645.338448 919.160207 
L 659.104159 915.719836 
L 671.876099 911.27485 
L 683.64902 905.848656 
L 694.406235 899.487711 
L 704.131018 892.264913 
L 712.819813 884.275693 
L 720.491854 875.627464 
L 727.19161 866.426751 
L 732.984388 856.768978 
L 737.948408 846.733527 
L 742.166919 836.383688 
L 745.722385 825.7695 
L 748.69314 814.931494 
L 751.151988 803.904108 
L 753.166016 792.718279 
L 754.797009 781.40318 
L 756.102078 769.987268 
L 757.1343 758.498844 
L 757.943268 746.966289 
L 758.575528 735.418116 
L 759.482766 712.389204 
L 760.949835 667.309842 
L 761.443905 656.410236 
L 762.048695 645.714291 
L 762.790241 635.246004 
L 763.692241 625.028195 
L 764.775994 615.082308 
L 766.060332 605.428185 
L 767.561581 596.083787 
L 769.293556 587.064872 
L 771.267623 578.384619 
L 773.492854 570.053205 
L 775.976301 562.077378 
L 778.723416 554.460059 
L 781.738628 547.200038 
L 785.026036 540.291865 
L 788.590171 533.726004 
L 792.436696 527.48931 
L 796.572923 521.565834 
L 801.008001 515.937887 
L 805.752681 510.587198 
L 810.818671 505.495985 
L 816.217653 500.647748 
L 821.960154 496.027658 
L 828.054437 491.622516 
L 834.50561 487.420346 
L 841.315015 483.409735 
L 848.479945 479.579073 
L 855.993632 475.915798 
L 863.845451 472.40573 
L 872.021236 469.032537 
L 880.503662 465.777321 
L 889.272627 462.618323 
L 898.305607 459.530703 
L 917.063196 453.453858 
L 946.610314 444.023192 
L 956.699867 440.629545 
L 966.849141 437.028224 
L 977.022067 433.160858 
L 987.17974 428.963157 
L 997.279262 424.364464 
L 1007.272019 419.28759 
L 1017.101347 413.649272 
L 1026.699686 407.361736 
L 1035.985754 400.33586 
L 1044.862754 392.48617 
L 1053.219121 383.737126 
L 1060.933117 374.028899 
L 1067.881271 363.319891 
L 1073.94843 351.583618 
L 1079.035623 338.799929 
L 1083.062512 324.943506 
L 1085.963978 309.973911 
L 1087.683104 293.830154 
L 1088.163715 276.430095 
L 1087.344646 257.673125 
L 1085.156406 237.444086 
L 1081.519854 215.617002 
L 1076.346152 192.05793 
L 1069.760706 167.4 
L 1069.760706 167.4 
" clip-path="url(#p3c6c912b97)" style="fill: none; stroke: #1f77b4; stroke-width: 1.5"/>
    <path d="M 393.799912 860.882521 
L 422.570638 869.95892 
L 449.713578 877.910782 
L 475.264546 884.750853 
L 499.26204 890.495308 
L 521.74699 895.163481 
L 542.762518 898.777609 
L 562.353704 901.362588 
L 580.567365 902.945729 
L 597.451842 903.556539 
L 613.056794 903.226495 
L 627.433 901.988832 
L 640.632175 899.878348 
L 652.706786 896.931204 
L 663.709888 893.18474 
L 673.69495 888.677298 
L 682.71571 883.448051 
L 690.826019 877.536843 
L 698.079704 870.984031 
L 704.530434 863.830339 
L 710.23159 856.116718 
L 715.23615 847.884209 
L 719.596572 839.173819 
L 723.364686 830.026399 
L 726.591599 820.482527 
L 729.327591 810.582404 
L 731.622035 800.365747 
L 733.523307 789.871694 
L 735.078711 779.138711 
L 736.334406 768.204507 
L 737.335337 757.105952 
L 738.125173 745.879 
L 738.746248 734.558618 
L 739.239509 723.178718 
L 739.644464 711.772094 
L 739.999137 700.370363 
L 740.340031 689.003913 
L 740.702082 677.701847 
L 741.118631 666.491936 
L 741.621393 655.400578 
L 742.240426 644.452754 
L 743.004106 633.671992 
L 743.93911 623.080326 
L 745.07039 612.698269 
L 746.421161 602.544782 
L 748.012883 592.637239 
L 749.86525 582.991409 
L 751.996176 573.621426 
L 754.421789 564.539766 
L 757.156422 555.75723 
L 760.212604 547.282916 
L 763.601056 539.124208 
L 767.330687 531.286748 
L 771.408587 523.774428 
L 775.840025 516.589364 
L 780.628447 509.731883 
L 785.775469 503.200506 
L 791.280875 496.991928 
L 797.142616 491.101002 
L 803.356801 485.52072 
L 809.917695 480.242196 
L 816.817714 475.254644 
L 824.047416 470.545355 
L 831.595493 466.09968 
L 839.448764 461.901003 
L 847.59216 457.930715 
L 856.008716 454.168187 
L 864.679552 450.590744 
L 873.583858 447.173628 
L 882.698873 443.889966 
L 891.999865 440.710735 
L 901.460105 437.604721 
L 911.050838 434.538475 
L 920.741257 431.476268 
L 930.498463 428.380044 
L 940.287428 425.209363 
L 950.07096 421.921348 
L 959.809648 418.470622 
L 969.461822 414.809243 
L 978.983492 410.886637 
L 988.328293 406.649521 
L 997.447423 402.041826 
L 1006.289574 397.004615 
L 1014.800859 391.475989 
L 1022.924735 385.391 
L 1030.601919 378.681546 
L 1037.7703 371.276266 
L 1044.364844 363.100433 
L 1050.31749 354.07583 
L 1055.557049 344.120632 
L 1060.009085 333.149274 
L 1063.595799 321.07231 
L 1066.235902 307.796277 
L 1067.844478 293.223535 
L 1068.332846 277.252117 
L 1067.608415 259.775559 
L 1065.574519 240.682725 
L 1062.130266 219.857631 
L 1057.170357 197.179251 
L 1050.58491 172.521321 
" clip-path="url(#p3c6c912b97)" style="fill: none; stroke: #8c564b; stroke-width: 1.5"/>
    <path d="M 399.771297 841.954192 
L 428.34702 850.969073 
L 455.070694 858.798105 
L 480.142013 865.509773 
L 503.590654 871.122845 
L 525.447382 875.660591 
L 545.743804 879.151052 
L 564.5123 881.627479 
L 581.786271 883.128943 
L 597.600893 883.70105 
L 611.994623 883.396623 
L 625.011702 882.275969 
L 636.705738 880.406149 
L 647.144009 877.858399 
L 656.411344 874.702949 
L 664.611518 871.001238 
L 671.863827 866.797146 
L 678.293846 862.110619 
L 684.020366 856.937413 
L 689.143293 851.25622 
L 693.737283 845.040586 
L 697.852757 838.270625 
L 701.522216 830.940504 
L 704.768195 823.060612 
L 707.609989 814.655761 
L 710.067999 805.761512 
L 712.165835 796.420308 
L 713.930868 786.678224 
L 715.393904 776.582624 
L 716.588484 766.18059 
L 717.5501 755.517971 
L 718.315466 744.638836 
L 718.921907 733.585192 
L 719.807516 711.11144 
L 721.291093 665.59317 
L 721.805148 654.280091 
L 722.442138 643.050297 
L 723.233095 631.92666 
L 724.208003 620.930327 
L 725.395832 610.080861 
L 726.824554 599.396438 
L 728.521145 588.894083 
L 730.51153 578.589977 
L 732.820462 568.499799 
L 735.47129 558.639118 
L 738.4856 549.023772 
L 741.882698 539.67019 
L 745.678961 530.595576 
L 749.887082 521.817866 
L 754.515316 513.355385 
L 759.566833 505.226166 
L 765.039351 497.446968 
L 770.925143 490.0321 
L 777.211483 482.992239 
L 783.881472 476.333431 
L 790.915123 470.056447 
L 798.290496 464.156572 
L 805.984703 458.623801 
L 813.974658 453.443349 
L 822.237496 448.596338 
L 830.750693 444.060525 
L 839.491929 439.810965 
L 848.438791 435.820563 
L 857.568382 432.06049 
L 866.856896 428.500464 
L 876.279211 425.108938 
L 885.808506 421.853213 
L 905.07033 415.613027 
L 934.067808 406.360828 
L 943.594632 403.159086 
L 952.974619 399.83546 
L 962.1605 396.350961 
L 971.102843 392.667018 
L 979.750872 388.745832 
L 988.053778 384.550557 
L 995.962634 380.045026 
L 1003.432878 375.192624 
L 1010.427077 369.953791 
L 1016.917199 364.281767 
L 1022.885084 358.116658 
L 1028.319626 351.37898 
L 1033.2099 343.965002 
L 1037.535354 335.746611 
L 1041.256235 326.577071 
L 1044.308043 316.301211 
L 1046.601919 304.766215 
L 1048.029938 291.829214 
L 1048.472374 277.359959 
L 1047.804147 261.239318 
L 1045.899043 243.355492 
L 1042.631648 223.599738 
L 1037.877609 201.862667 
L 1031.409115 177.642642 
L 1031.409115 177.642642 
" clip-path="url(#p3c6c912b97)" style="fill: none; stroke: #17becf; stroke-width: 1.5"/>
   </g>
   <g id="patch_3">
    <path d="M 352.81138 961.2 
L 352.81138 129.6 
" style="fill: none; stroke: #000000; stroke-width: 0.8; stroke-linejoin: miter; stroke-linecap: square"/>
   </g>
   <g id="patch_4">
    <path d="M 1123.18862 961.2 
L 1123.18862 129.6 
" style="fill: none; stroke: #000000; stroke-width: 0.8; stroke-linejoin: miter; stroke-linecap: square"/>
   </g>
   <g id="patch_5">
    <path d="M 352.81138 961.2 
L 1123.18862 961.2 
" style="fill: none; stroke: #000000; stroke-width: 0.8; stroke-linejoin: miter; stroke-linecap: square"/>
   </g>
   <g id="patch_6">
    <path d="M 352.81138 129.6 
L 1123.18862 129.6 
" style="fill: none; stroke: #000000; stroke-width: 0.8; stroke-linejoin: miter; stroke-linecap: square"/>
   </g>
  </g>
 </g>
 <defs>
  <clipPath id="p3c6c912b97">
   <rect x="352.81138" y="129.6" width="770.377239" height="831.6"/>
  </clipPath>
 </defs>
</svg>
