<?xml version="1.0" encoding="utf-8" standalone="no"?>
<!DOCTYPE svg PUBLIC "-//W3C//DTD SVG 1.1//EN"
  "http://www.w3.org/Graphics/SVG/1.1/DTD/svg11.dtd">
<svg xmlns:xlink="http://www.w3.org/1999/xlink" width="1440pt" height="1080pt" viewBox="0 0 1440 1080" xmlns="http://www.w3.org/2000/svg" version="1.1">
 <metadata>
  <rdf:RDF xmlns:dc="http://purl.org/dc/elements/1.1/" xmlns:cc="http://creativecommons.org/ns#" xmlns:rdf="http://www.w3.org/1999/02/22-rdf-syntax-ns#">
   <cc:Work>
    <dc:type rdf:resource="http://purl.org/dc/dcmitype/StillImage"/>
    <dc:date>2023-12-11T12:06:44.797238</dc:date>
    <dc:format>image/svg+xml</dc:format>
    <dc:creator>
     <cc:Agent>
      <dc:title>Matplotlib v3.7.1, https://matplotlib.org/</dc:title>
     </cc:Agent>
    </dc:creator>
   </cc:Work>
  </rdf:RDF>
 </metadata>
 <defs>
  <style type="text/css">*{stroke-linejoin: round; stroke-linecap: butt}</style>
 </defs>
 <g id="figure_1">
  <g id="patch_1">
   <path d="M 0 1080 
L 1440 1080 
L 1440 0 
L 0 0 
z
" style="fill: #ffffff"/>
  </g>
  <g id="axes_1">
   <g id="patch_2">
    <path d="M 360.387459 961.2 
L 1115.612541 961.2 
L 1115.612541 129.6 
L 360.387459 129.6 
z
" style="fill: #ffffff"/>
   </g>
   <g id="matplotlib.axis_1">
    <g id="xtick_1">
     <g id="line2d_1">
      <defs>
       <path id="m685627650a" d="M 0 0 
L 0 3.5 
" style="stroke: #000000; stroke-width: 0.8"/>
      </defs>
      <g>
       <use xlink:href="#m685627650a" x="390.376074" y="961.2" style="stroke: #000000; stroke-width: 0.8"/>
      </g>
     </g>
     <g id="text_1">
      <!-- 700 -->
      <g transform="translate(380.832324 975.798437) scale(0.1 -0.1)">
       <defs>
        <path id="DejaVuSans-37" d="M 525 4666 
L 3525 4666 
L 3525 4397 
L 1831 0 
L 1172 0 
L 2766 4134 
L 525 4134 
L 525 4666 
z
" transform="scale(0.015625)"/>
        <path id="DejaVuSans-30" d="M 2034 4250 
Q 1547 4250 1301 3770 
Q 1056 3291 1056 2328 
Q 1056 1369 1301 889 
Q 1547 409 2034 409 
Q 2525 409 2770 889 
Q 3016 1369 3016 2328 
Q 3016 3291 2770 3770 
Q 2525 4250 2034 4250 
z
M 2034 4750 
Q 2819 4750 3233 4129 
Q 3647 3509 3647 2328 
Q 3647 1150 3233 529 
Q 2819 -91 2034 -91 
Q 1250 -91 836 529 
Q 422 1150 422 2328 
Q 422 3509 836 4129 
Q 1250 4750 2034 4750 
z
" transform="scale(0.015625)"/>
       </defs>
       <use xlink:href="#DejaVuSans-37"/>
       <use xlink:href="#DejaVuSans-30" x="63.623047"/>
       <use xlink:href="#DejaVuSans-30" x="127.246094"/>
      </g>
     </g>
    </g>
    <g id="xtick_2">
     <g id="line2d_2">
      <g>
       <use xlink:href="#m685627650a" x="550.279464" y="961.2" style="stroke: #000000; stroke-width: 0.8"/>
      </g>
     </g>
     <g id="text_2">
      <!-- 800 -->
      <g transform="translate(540.735714 975.798437) scale(0.1 -0.1)">
       <defs>
        <path id="DejaVuSans-38" d="M 2034 2216 
Q 1584 2216 1326 1975 
Q 1069 1734 1069 1313 
Q 1069 891 1326 650 
Q 1584 409 2034 409 
Q 2484 409 2743 651 
Q 3003 894 3003 1313 
Q 3003 1734 2745 1975 
Q 2488 2216 2034 2216 
z
M 1403 2484 
Q 997 2584 770 2862 
Q 544 3141 544 3541 
Q 544 4100 942 4425 
Q 1341 4750 2034 4750 
Q 2731 4750 3128 4425 
Q 3525 4100 3525 3541 
Q 3525 3141 3298 2862 
Q 3072 2584 2669 2484 
Q 3125 2378 3379 2068 
Q 3634 1759 3634 1313 
Q 3634 634 3220 271 
Q 2806 -91 2034 -91 
Q 1263 -91 848 271 
Q 434 634 434 1313 
Q 434 1759 690 2068 
Q 947 2378 1403 2484 
z
M 1172 3481 
Q 1172 3119 1398 2916 
Q 1625 2713 2034 2713 
Q 2441 2713 2670 2916 
Q 2900 3119 2900 3481 
Q 2900 3844 2670 4047 
Q 2441 4250 2034 4250 
Q 1625 4250 1398 4047 
Q 1172 3844 1172 3481 
z
" transform="scale(0.015625)"/>
       </defs>
       <use xlink:href="#DejaVuSans-38"/>
       <use xlink:href="#DejaVuSans-30" x="63.623047"/>
       <use xlink:href="#DejaVuSans-30" x="127.246094"/>
      </g>
     </g>
    </g>
    <g id="xtick_3">
     <g id="line2d_3">
      <g>
       <use xlink:href="#m685627650a" x="710.182854" y="961.2" style="stroke: #000000; stroke-width: 0.8"/>
      </g>
     </g>
     <g id="text_3">
      <!-- 900 -->
      <g transform="translate(700.639104 975.798437) scale(0.1 -0.1)">
       <defs>
        <path id="DejaVuSans-39" d="M 703 97 
L 703 672 
Q 941 559 1184 500 
Q 1428 441 1663 441 
Q 2288 441 2617 861 
Q 2947 1281 2994 2138 
Q 2813 1869 2534 1725 
Q 2256 1581 1919 1581 
Q 1219 1581 811 2004 
Q 403 2428 403 3163 
Q 403 3881 828 4315 
Q 1253 4750 1959 4750 
Q 2769 4750 3195 4129 
Q 3622 3509 3622 2328 
Q 3622 1225 3098 567 
Q 2575 -91 1691 -91 
Q 1453 -91 1209 -44 
Q 966 3 703 97 
z
M 1959 2075 
Q 2384 2075 2632 2365 
Q 2881 2656 2881 3163 
Q 2881 3666 2632 3958 
Q 2384 4250 1959 4250 
Q 1534 4250 1286 3958 
Q 1038 3666 1038 3163 
Q 1038 2656 1286 2365 
Q 1534 2075 1959 2075 
z
" transform="scale(0.015625)"/>
       </defs>
       <use xlink:href="#DejaVuSans-39"/>
       <use xlink:href="#DejaVuSans-30" x="63.623047"/>
       <use xlink:href="#DejaVuSans-30" x="127.246094"/>
      </g>
     </g>
    </g>
    <g id="xtick_4">
     <g id="line2d_4">
      <g>
       <use xlink:href="#m685627650a" x="870.086243" y="961.2" style="stroke: #000000; stroke-width: 0.8"/>
      </g>
     </g>
     <g id="text_4">
      <!-- 1000 -->
      <g transform="translate(857.361243 975.798437) scale(0.1 -0.1)">
       <defs>
        <path id="DejaVuSans-31" d="M 794 531 
L 1825 531 
L 1825 4091 
L 703 3866 
L 703 4441 
L 1819 4666 
L 2450 4666 
L 2450 531 
L 3481 531 
L 3481 0 
L 794 0 
L 794 531 
z
" transform="scale(0.015625)"/>
       </defs>
       <use xlink:href="#DejaVuSans-31"/>
       <use xlink:href="#DejaVuSans-30" x="63.623047"/>
       <use xlink:href="#DejaVuSans-30" x="127.246094"/>
       <use xlink:href="#DejaVuSans-30" x="190.869141"/>
      </g>
     </g>
    </g>
    <g id="xtick_5">
     <g id="line2d_5">
      <g>
       <use xlink:href="#m685627650a" x="1029.989633" y="961.2" style="stroke: #000000; stroke-width: 0.8"/>
      </g>
     </g>
     <g id="text_5">
      <!-- 1100 -->
      <g transform="translate(1017.264633 975.798437) scale(0.1 -0.1)">
       <use xlink:href="#DejaVuSans-31"/>
       <use xlink:href="#DejaVuSans-31" x="63.623047"/>
       <use xlink:href="#DejaVuSans-30" x="127.246094"/>
       <use xlink:href="#DejaVuSans-30" x="190.869141"/>
      </g>
     </g>
    </g>
   </g>
   <g id="matplotlib.axis_2">
    <g id="ytick_1">
     <g id="line2d_6">
      <defs>
       <path id="mfeeb8ee697" d="M 0 0 
L -3.5 0 
" style="stroke: #000000; stroke-width: 0.8"/>
      </defs>
      <g>
       <use xlink:href="#mfeeb8ee697" x="360.387459" y="810.427476" style="stroke: #000000; stroke-width: 0.8"/>
      </g>
     </g>
     <g id="text_6">
      <!-- 300 -->
      <g transform="translate(334.299959 814.226695) scale(0.1 -0.1)">
       <defs>
        <path id="DejaVuSans-33" d="M 2597 2516 
Q 3050 2419 3304 2112 
Q 3559 1806 3559 1356 
Q 3559 666 3084 287 
Q 2609 -91 1734 -91 
Q 1441 -91 1130 -33 
Q 819 25 488 141 
L 488 750 
Q 750 597 1062 519 
Q 1375 441 1716 441 
Q 2309 441 2620 675 
Q 2931 909 2931 1356 
Q 2931 1769 2642 2001 
Q 2353 2234 1838 2234 
L 1294 2234 
L 1294 2753 
L 1863 2753 
Q 2328 2753 2575 2939 
Q 2822 3125 2822 3475 
Q 2822 3834 2567 4026 
Q 2313 4219 1838 4219 
Q 1578 4219 1281 4162 
Q 984 4106 628 3988 
L 628 4550 
Q 988 4650 1302 4700 
Q 1616 4750 1894 4750 
Q 2613 4750 3031 4423 
Q 3450 4097 3450 3541 
Q 3450 3153 3228 2886 
Q 3006 2619 2597 2516 
z
" transform="scale(0.015625)"/>
       </defs>
       <use xlink:href="#DejaVuSans-33"/>
       <use xlink:href="#DejaVuSans-30" x="63.623047"/>
       <use xlink:href="#DejaVuSans-30" x="127.246094"/>
      </g>
     </g>
    </g>
    <g id="ytick_2">
     <g id="line2d_7">
      <g>
       <use xlink:href="#mfeeb8ee697" x="360.387459" y="650.524086" style="stroke: #000000; stroke-width: 0.8"/>
      </g>
     </g>
     <g id="text_7">
      <!-- 400 -->
      <g transform="translate(334.299959 654.323305) scale(0.1 -0.1)">
       <defs>
        <path id="DejaVuSans-34" d="M 2419 4116 
L 825 1625 
L 2419 1625 
L 2419 4116 
z
M 2253 4666 
L 3047 4666 
L 3047 1625 
L 3713 1625 
L 3713 1100 
L 3047 1100 
L 3047 0 
L 2419 0 
L 2419 1100 
L 313 1100 
L 313 1709 
L 2253 4666 
z
" transform="scale(0.015625)"/>
       </defs>
       <use xlink:href="#DejaVuSans-34"/>
       <use xlink:href="#DejaVuSans-30" x="63.623047"/>
       <use xlink:href="#DejaVuSans-30" x="127.246094"/>
      </g>
     </g>
    </g>
    <g id="ytick_3">
     <g id="line2d_8">
      <g>
       <use xlink:href="#mfeeb8ee697" x="360.387459" y="490.620697" style="stroke: #000000; stroke-width: 0.8"/>
      </g>
     </g>
     <g id="text_8">
      <!-- 500 -->
      <g transform="translate(334.299959 494.419916) scale(0.1 -0.1)">
       <defs>
        <path id="DejaVuSans-35" d="M 691 4666 
L 3169 4666 
L 3169 4134 
L 1269 4134 
L 1269 2991 
Q 1406 3038 1543 3061 
Q 1681 3084 1819 3084 
Q 2600 3084 3056 2656 
Q 3513 2228 3513 1497 
Q 3513 744 3044 326 
Q 2575 -91 1722 -91 
Q 1428 -91 1123 -41 
Q 819 9 494 109 
L 494 744 
Q 775 591 1075 516 
Q 1375 441 1709 441 
Q 2250 441 2565 725 
Q 2881 1009 2881 1497 
Q 2881 1984 2565 2268 
Q 2250 2553 1709 2553 
Q 1456 2553 1204 2497 
Q 953 2441 691 2322 
L 691 4666 
z
" transform="scale(0.015625)"/>
       </defs>
       <use xlink:href="#DejaVuSans-35"/>
       <use xlink:href="#DejaVuSans-30" x="63.623047"/>
       <use xlink:href="#DejaVuSans-30" x="127.246094"/>
      </g>
     </g>
    </g>
    <g id="ytick_4">
     <g id="line2d_9">
      <g>
       <use xlink:href="#mfeeb8ee697" x="360.387459" y="330.717307" style="stroke: #000000; stroke-width: 0.8"/>
      </g>
     </g>
     <g id="text_9">
      <!-- 600 -->
      <g transform="translate(334.299959 334.516526) scale(0.1 -0.1)">
       <defs>
        <path id="DejaVuSans-36" d="M 2113 2584 
Q 1688 2584 1439 2293 
Q 1191 2003 1191 1497 
Q 1191 994 1439 701 
Q 1688 409 2113 409 
Q 2538 409 2786 701 
Q 3034 994 3034 1497 
Q 3034 2003 2786 2293 
Q 2538 2584 2113 2584 
z
M 3366 4563 
L 3366 3988 
Q 3128 4100 2886 4159 
Q 2644 4219 2406 4219 
Q 1781 4219 1451 3797 
Q 1122 3375 1075 2522 
Q 1259 2794 1537 2939 
Q 1816 3084 2150 3084 
Q 2853 3084 3261 2657 
Q 3669 2231 3669 1497 
Q 3669 778 3244 343 
Q 2819 -91 2113 -91 
Q 1303 -91 875 529 
Q 447 1150 447 2328 
Q 447 3434 972 4092 
Q 1497 4750 2381 4750 
Q 2619 4750 2861 4703 
Q 3103 4656 3366 4563 
z
" transform="scale(0.015625)"/>
       </defs>
       <use xlink:href="#DejaVuSans-36"/>
       <use xlink:href="#DejaVuSans-30" x="63.623047"/>
       <use xlink:href="#DejaVuSans-30" x="127.246094"/>
      </g>
     </g>
    </g>
    <g id="ytick_5">
     <g id="line2d_10">
      <g>
       <use xlink:href="#mfeeb8ee697" x="360.387459" y="170.813918" style="stroke: #000000; stroke-width: 0.8"/>
      </g>
     </g>
     <g id="text_10">
      <!-- 700 -->
      <g transform="translate(334.299959 174.613136) scale(0.1 -0.1)">
       <use xlink:href="#DejaVuSans-37"/>
       <use xlink:href="#DejaVuSans-30" x="63.623047"/>
       <use xlink:href="#DejaVuSans-30" x="127.246094"/>
      </g>
     </g>
    </g>
   </g>
   <g id="LineCollection_1">
    <path d="M 395.630481 234.772159 
L 410.216369 234.573503 
L 421.776387 235.443733 
L 431.947383 237.170002 
L 440.974366 239.602914 
L 449.088983 242.64037 
L 456.49349 246.221656 
L 463.34995 250.314572 
L 469.777824 254.900453 
L 475.858995 259.962015 
L 481.646715 265.47641 
L 487.17494 271.413216 
L 492.465925 277.735631 
L 497.53543 284.403073 
L 502.395836 291.373926 
L 507.057759 298.607819 
L 511.530746 306.067247 
L 515.823485 313.718576 
L 519.943798 321.532567 
L 523.898572 329.484553 
L 527.693705 337.554383 
L 531.334094 345.72622 
L 534.823668 353.988256 
L 538.165458 362.332378 
L 541.361702 370.753801 
L 544.413956 379.250701 
L 547.323217 387.823837 
L 550.090036 396.476175 
L 552.714635 405.21251 
L 555.197003 414.039095 
L 557.536995 422.963271 
L 559.73442 431.993106 
L 561.789127 441.137045 
L 563.701091 450.403572 
L 565.470503 459.800897 
L 567.097866 469.336663 
L 568.584091 479.017691 
L 569.930599 488.849748 
L 571.139424 498.83736 
L 572.213319 508.983657 
L 573.155852 519.290258 
L 573.9715 529.757191 
L 574.665729 540.382839 
L 575.245072 551.163932 
L 576.090908 573.171128 
L 576.584567 595.720271 
L 576.821295 618.728971 
L 577.245489 689.51104 
L 577.813555 713.246072 
L 578.282431 725.0586 
L 578.910687 736.811464 
L 579.727797 748.487984 
L 580.76549 760.072112 
L 582.058167 771.548509 
L 583.643441 782.902484 
L 585.562802 794.119727 
L 587.86237 805.185698 
L 590.593667 816.08452 
L 593.81422 826.797163 
L 597.587662 837.298744 
L 601.982773 847.554855 
L 607.070751 857.517196 
L 612.919951 867.119336 
L 617.779237 873.953193 
L 619.587845 876.274255 
L 624.964336 882.583254 
L 627.111121 884.875916 
L 633.032183 890.634196 
L 635.496633 892.806714 
L 641.989614 897.988809 
L 644.717256 899.950695 
L 651.809477 904.531547 
L 654.715998 906.209226 
L 662.434773 910.164191 
L 665.418523 911.513597 
L 673.791171 914.81844 
L 676.749995 915.829827 
L 685.803873 918.460708 
L 688.650253 919.154716 
L 701.082841 921.506089 
L 714.036993 922.911673 
L 727.524445 923.4 
L 741.57387 922.994666 
L 756.22515 921.711662 
L 771.524664 919.558841 
L 787.52193 916.536549 
L 804.267494 912.638723 
L 821.811764 907.854034 
L 840.204514 902.16688 
L 859.494805 895.558151 
L 879.731163 888.005772 
L 900.96191 879.485038 
L 923.235562 869.96879 
L 946.601272 859.427444 
L 971.109284 847.828923 
L 996.8114 835.138494 
L 1023.761438 821.318544 
L 1052.015699 806.328286 
L 1081.284129 790.317222 
L 1081.284129 790.317222 
" clip-path="url(#p9dddd69657)" style="fill: none; stroke: #1f77b4; stroke-width: 1.5"/>
    <path d="M 395.173176 201.195562 
L 411.250114 200.976598 
L 425.855032 202.076046 
L 439.142348 204.33123 
L 451.252642 207.595144 
L 462.313522 211.735441 
L 472.440458 216.633466 
L 481.737583 222.18332 
L 490.29846 228.290964 
L 498.206828 234.873362 
L 505.537303 241.857655 
L 512.356062 249.180375 
L 518.72149 256.786688 
L 524.684806 264.629675 
L 530.290649 272.669643 
L 535.577653 280.873472 
L 540.578978 289.21399 
L 545.322831 297.669379 
L 549.832947 306.222616 
L 554.129057 314.860935 
L 558.22732 323.575328 
L 562.140744 332.360066 
L 565.879574 341.212251 
L 569.451659 350.131397 
L 572.8628 359.119028 
L 576.117076 368.178316 
L 579.217143 377.313731 
L 582.164525 386.530719 
L 584.959871 395.835408 
L 587.603201 405.23433 
L 590.094137 414.734167 
L 592.432102 424.341522 
L 594.616519 434.062704 
L 596.646981 443.903543 
L 598.523406 453.869209 
L 600.246183 463.964067 
L 601.816297 474.191536 
L 603.23544 484.553971 
L 604.506111 495.052566 
L 605.631699 505.687261 
L 606.616556 516.456674 
L 607.466057 527.358048 
L 608.186649 538.387201 
L 608.785887 549.538503 
L 609.27246 560.804854 
L 609.65621 572.177682 
L 609.948139 583.646945 
L 610.160408 595.201151 
L 610.306328 606.827377 
L 610.400342 618.51131 
L 610.458007 630.237286 
L 610.495954 641.98834 
L 610.531863 653.746265 
L 610.584416 665.491673 
L 610.673254 677.204065 
L 610.818926 688.861907 
L 611.042837 700.442701 
L 611.367195 711.923074 
L 611.814946 723.278857 
L 612.409723 734.485172 
L 613.175779 745.516522 
L 614.137929 756.346875 
L 615.321487 766.949755 
L 616.752209 777.29833 
L 618.456227 787.365496 
L 620.46 797.123962 
L 622.790251 806.546333 
L 625.473922 815.605187 
L 628.53812 824.273147 
L 632.010076 832.522952 
L 635.917105 840.327522 
L 640.286571 847.660014 
L 645.145857 854.493872 
L 650.522347 860.80287 
L 656.44341 866.56115 
L 662.936391 871.743246 
L 670.028612 876.324098 
L 677.747388 880.279063 
L 686.120035 883.583906 
L 695.173913 886.214787 
L 704.936454 888.148231 
L 715.43522 889.361084 
L 726.697963 889.830461 
L 738.752704 889.533673 
L 751.627814 888.448146 
L 765.352123 886.551315 
L 779.955031 883.820512 
L 795.466638 880.232829 
L 811.917895 875.764965 
L 829.340758 870.393057 
L 847.768372 864.09249 
L 867.23526 856.837688 
L 887.777542 848.60188 
L 909.433158 839.356853 
L 932.242124 829.072676 
L 956.246797 817.717404 
L 981.492164 805.25676 
L 1008.026149 791.653788 
L 1035.899949 776.868489 
L 1065.168379 760.857425 
" clip-path="url(#p9dddd69657)" style="fill: none; stroke: #8c564b; stroke-width: 1.5"/>
    <path d="M 394.715871 167.618964 
L 410.792809 167.4 
L 413.770839 167.491631 
L 428.375757 168.591079 
L 431.473978 168.969785 
L 444.761294 171.224969 
L 447.880794 171.908451 
L 459.991088 175.172365 
L 463.024487 176.146444 
L 474.085367 180.286741 
L 476.93444 181.505889 
L 487.061376 186.403914 
L 489.652223 187.800287 
L 498.949348 193.350141 
L 501.240022 194.847411 
L 511.780432 202.481626 
L 521.370273 210.561804 
L 530.112328 218.973923 
L 538.107975 227.629597 
L 545.452043 236.462452 
L 552.229956 245.423902 
L 558.516639 254.479246 
L 564.376564 263.604432 
L 569.864424 272.78354 
L 575.02608 282.006874 
L 579.899578 291.26953 
L 584.516137 300.570295 
L 588.901049 309.910797 
L 593.074486 319.294818 
L 597.052216 328.727723 
L 600.846243 338.215981 
L 604.465379 347.766757 
L 607.915763 357.387554 
L 611.201341 367.085917 
L 614.324307 376.869172 
L 617.285516 386.74422 
L 620.084865 396.717371 
L 622.721642 406.79421 
L 625.194851 416.979504 
L 627.503493 427.277131 
L 629.64682 437.690037 
L 631.624551 448.220205 
L 633.437048 458.868628 
L 635.085468 469.635298 
L 636.571869 480.519181 
L 637.899303 491.518194 
L 639.071871 502.629175 
L 640.094773 513.847847 
L 640.974327 525.168777 
L 641.717983 536.585327 
L 642.334326 548.089608 
L 643.216821 571.045256 
L 643.522185 583.030137 
L 643.884952 606.557186 
L 644.075491 641.879903 
L 644.251375 676.866934 
L 644.613381 699.643941 
L 644.928219 710.787362 
L 645.359578 721.727414 
L 645.927726 732.432018 
L 646.652396 742.867399 
L 647.55239 752.998099 
L 648.645093 762.787044 
L 649.945868 772.195705 
L 651.467344 781.184427 
L 653.218579 789.713026 
L 655.20418 797.741803 
L 657.42348 805.233153 
L 659.87005 812.153974 
L 662.531963 818.479015 
L 665.393476 824.195093 
L 668.438877 829.305644 
L 671.659068 833.83436 
L 675.060635 837.825901 
L 678.675613 841.341496 
L 682.568483 844.448424 
L 686.836456 847.205099 
L 691.601065 849.646401 
L 696.993058 851.774723 
L 703.135915 853.559718 
L 710.133506 854.945571 
L 718.064675 855.861807 
L 726.98415 856.233527 
L 736.927265 855.988728 
L 747.915935 855.06225 
L 759.964142 853.397073 
L 773.082218 850.94394 
L 787.279822 847.660173 
L 802.567848 843.508221 
L 818.959552 838.454245 
L 836.471176 832.466864 
L 855.122265 825.516088 
L 874.935825 817.572439 
L 895.938409 808.606199 
L 918.160174 798.586781 
L 941.634968 787.482166 
L 966.400427 775.258395 
L 992.498129 761.879089 
L 1019.97377 747.304989 
L 1049.052629 731.397628 
L 1049.052629 731.397628 
" clip-path="url(#p9dddd69657)" style="fill: none; stroke: #17becf; stroke-width: 1.5"/>
   </g>
   <g id="patch_3">
    <path d="M 360.387459 961.2 
L 360.387459 129.6 
" style="fill: none; stroke: #000000; stroke-width: 0.8; stroke-linejoin: miter; stroke-linecap: square"/>
   </g>
   <g id="patch_4">
    <path d="M 1115.612541 961.2 
L 1115.612541 129.6 
" style="fill: none; stroke: #000000; stroke-width: 0.8; stroke-linejoin: miter; stroke-linecap: square"/>
   </g>
   <g id="patch_5">
    <path d="M 360.387459 961.2 
L 1115.612541 961.2 
" style="fill: none; stroke: #000000; stroke-width: 0.8; stroke-linejoin: miter; stroke-linecap: square"/>
   </g>
   <g id="patch_6">
    <path d="M 360.387459 129.6 
L 1115.612541 129.6 
" style="fill: none; stroke: #000000; stroke-width: 0.8; stroke-linejoin: miter; stroke-linecap: square"/>
   </g>
  </g>
 </g>
 <defs>
  <clipPath id="p9dddd69657">
   <rect x="360.387459" y="129.6" width="755.225083" height="831.6"/>
  </clipPath>
 </defs>
</svg>
