<?xml version="1.0" encoding="utf-8" standalone="no"?>
<!DOCTYPE svg PUBLIC "-//W3C//DTD SVG 1.1//EN"
  "http://www.w3.org/Graphics/SVG/1.1/DTD/svg11.dtd">
<svg xmlns:xlink="http://www.w3.org/1999/xlink" width="1440pt" height="1080pt" viewBox="0 0 1440 1080" xmlns="http://www.w3.org/2000/svg" version="1.1">
 <metadata>
  <rdf:RDF xmlns:dc="http://purl.org/dc/elements/1.1/" xmlns:cc="http://creativecommons.org/ns#" xmlns:rdf="http://www.w3.org/1999/02/22-rdf-syntax-ns#">
   <cc:Work>
    <dc:type rdf:resource="http://purl.org/dc/dcmitype/StillImage"/>
    <dc:date>2023-12-11T12:06:50.462031</dc:date>
    <dc:format>image/svg+xml</dc:format>
    <dc:creator>
     <cc:Agent>
      <dc:title>Matplotlib v3.7.1, https://matplotlib.org/</dc:title>
     </cc:Agent>
    </dc:creator>
   </cc:Work>
  </rdf:RDF>
 </metadata>
 <defs>
  <style type="text/css">*{stroke-linejoin: round; stroke-linecap: butt}</style>
 </defs>
 <g id="figure_1">
  <g id="patch_1">
   <path d="M 0 1080 
L 1440 1080 
L 1440 0 
L 0 0 
z
" style="fill: #ffffff"/>
  </g>
  <g id="axes_1">
   <g id="patch_2">
    <path d="M 180 889.394314 
L 1296 889.394314 
L 1296 201.405686 
L 180 201.405686 
z
" style="fill: #ffffff"/>
   </g>
   <g id="matplotlib.axis_1">
    <g id="xtick_1">
     <g id="line2d_1">
      <defs>
       <path id="md450d4fe69" d="M 0 0 
L 0 3.5 
" style="stroke: #000000; stroke-width: 0.8"/>
      </defs>
      <g>
       <use xlink:href="#md450d4fe69" x="233.242012" y="889.394314" style="stroke: #000000; stroke-width: 0.8"/>
      </g>
     </g>
     <g id="text_1">
      <!-- 800 -->
      <g transform="translate(223.698262 903.992751) scale(0.1 -0.1)">
       <defs>
        <path id="DejaVuSans-38" d="M 2034 2216 
Q 1584 2216 1326 1975 
Q 1069 1734 1069 1313 
Q 1069 891 1326 650 
Q 1584 409 2034 409 
Q 2484 409 2743 651 
Q 3003 894 3003 1313 
Q 3003 1734 2745 1975 
Q 2488 2216 2034 2216 
z
M 1403 2484 
Q 997 2584 770 2862 
Q 544 3141 544 3541 
Q 544 4100 942 4425 
Q 1341 4750 2034 4750 
Q 2731 4750 3128 4425 
Q 3525 4100 3525 3541 
Q 3525 3141 3298 2862 
Q 3072 2584 2669 2484 
Q 3125 2378 3379 2068 
Q 3634 1759 3634 1313 
Q 3634 634 3220 271 
Q 2806 -91 2034 -91 
Q 1263 -91 848 271 
Q 434 634 434 1313 
Q 434 1759 690 2068 
Q 947 2378 1403 2484 
z
M 1172 3481 
Q 1172 3119 1398 2916 
Q 1625 2713 2034 2713 
Q 2441 2713 2670 2916 
Q 2900 3119 2900 3481 
Q 2900 3844 2670 4047 
Q 2441 4250 2034 4250 
Q 1625 4250 1398 4047 
Q 1172 3844 1172 3481 
z
" transform="scale(0.015625)"/>
        <path id="DejaVuSans-30" d="M 2034 4250 
Q 1547 4250 1301 3770 
Q 1056 3291 1056 2328 
Q 1056 1369 1301 889 
Q 1547 409 2034 409 
Q 2525 409 2770 889 
Q 3016 1369 3016 2328 
Q 3016 3291 2770 3770 
Q 2525 4250 2034 4250 
z
M 2034 4750 
Q 2819 4750 3233 4129 
Q 3647 3509 3647 2328 
Q 3647 1150 3233 529 
Q 2819 -91 2034 -91 
Q 1250 -91 836 529 
Q 422 1150 422 2328 
Q 422 3509 836 4129 
Q 1250 4750 2034 4750 
z
" transform="scale(0.015625)"/>
       </defs>
       <use xlink:href="#DejaVuSans-38"/>
       <use xlink:href="#DejaVuSans-30" x="63.623047"/>
       <use xlink:href="#DejaVuSans-30" x="127.246094"/>
      </g>
     </g>
    </g>
    <g id="xtick_2">
     <g id="line2d_2">
      <g>
       <use xlink:href="#md450d4fe69" x="364.380678" y="889.394314" style="stroke: #000000; stroke-width: 0.8"/>
      </g>
     </g>
     <g id="text_2">
      <!-- 900 -->
      <g transform="translate(354.836928 903.992751) scale(0.1 -0.1)">
       <defs>
        <path id="DejaVuSans-39" d="M 703 97 
L 703 672 
Q 941 559 1184 500 
Q 1428 441 1663 441 
Q 2288 441 2617 861 
Q 2947 1281 2994 2138 
Q 2813 1869 2534 1725 
Q 2256 1581 1919 1581 
Q 1219 1581 811 2004 
Q 403 2428 403 3163 
Q 403 3881 828 4315 
Q 1253 4750 1959 4750 
Q 2769 4750 3195 4129 
Q 3622 3509 3622 2328 
Q 3622 1225 3098 567 
Q 2575 -91 1691 -91 
Q 1453 -91 1209 -44 
Q 966 3 703 97 
z
M 1959 2075 
Q 2384 2075 2632 2365 
Q 2881 2656 2881 3163 
Q 2881 3666 2632 3958 
Q 2384 4250 1959 4250 
Q 1534 4250 1286 3958 
Q 1038 3666 1038 3163 
Q 1038 2656 1286 2365 
Q 1534 2075 1959 2075 
z
" transform="scale(0.015625)"/>
       </defs>
       <use xlink:href="#DejaVuSans-39"/>
       <use xlink:href="#DejaVuSans-30" x="63.623047"/>
       <use xlink:href="#DejaVuSans-30" x="127.246094"/>
      </g>
     </g>
    </g>
    <g id="xtick_3">
     <g id="line2d_3">
      <g>
       <use xlink:href="#md450d4fe69" x="495.519343" y="889.394314" style="stroke: #000000; stroke-width: 0.8"/>
      </g>
     </g>
     <g id="text_3">
      <!-- 1000 -->
      <g transform="translate(482.794343 903.992751) scale(0.1 -0.1)">
       <defs>
        <path id="DejaVuSans-31" d="M 794 531 
L 1825 531 
L 1825 4091 
L 703 3866 
L 703 4441 
L 1819 4666 
L 2450 4666 
L 2450 531 
L 3481 531 
L 3481 0 
L 794 0 
L 794 531 
z
" transform="scale(0.015625)"/>
       </defs>
       <use xlink:href="#DejaVuSans-31"/>
       <use xlink:href="#DejaVuSans-30" x="63.623047"/>
       <use xlink:href="#DejaVuSans-30" x="127.246094"/>
       <use xlink:href="#DejaVuSans-30" x="190.869141"/>
      </g>
     </g>
    </g>
    <g id="xtick_4">
     <g id="line2d_4">
      <g>
       <use xlink:href="#md450d4fe69" x="626.658009" y="889.394314" style="stroke: #000000; stroke-width: 0.8"/>
      </g>
     </g>
     <g id="text_4">
      <!-- 1100 -->
      <g transform="translate(613.933009 903.992751) scale(0.1 -0.1)">
       <use xlink:href="#DejaVuSans-31"/>
       <use xlink:href="#DejaVuSans-31" x="63.623047"/>
       <use xlink:href="#DejaVuSans-30" x="127.246094"/>
       <use xlink:href="#DejaVuSans-30" x="190.869141"/>
      </g>
     </g>
    </g>
    <g id="xtick_5">
     <g id="line2d_5">
      <g>
       <use xlink:href="#md450d4fe69" x="757.796675" y="889.394314" style="stroke: #000000; stroke-width: 0.8"/>
      </g>
     </g>
     <g id="text_5">
      <!-- 1200 -->
      <g transform="translate(745.071675 903.992751) scale(0.1 -0.1)">
       <defs>
        <path id="DejaVuSans-32" d="M 1228 531 
L 3431 531 
L 3431 0 
L 469 0 
L 469 531 
Q 828 903 1448 1529 
Q 2069 2156 2228 2338 
Q 2531 2678 2651 2914 
Q 2772 3150 2772 3378 
Q 2772 3750 2511 3984 
Q 2250 4219 1831 4219 
Q 1534 4219 1204 4116 
Q 875 4013 500 3803 
L 500 4441 
Q 881 4594 1212 4672 
Q 1544 4750 1819 4750 
Q 2544 4750 2975 4387 
Q 3406 4025 3406 3419 
Q 3406 3131 3298 2873 
Q 3191 2616 2906 2266 
Q 2828 2175 2409 1742 
Q 1991 1309 1228 531 
z
" transform="scale(0.015625)"/>
       </defs>
       <use xlink:href="#DejaVuSans-31"/>
       <use xlink:href="#DejaVuSans-32" x="63.623047"/>
       <use xlink:href="#DejaVuSans-30" x="127.246094"/>
       <use xlink:href="#DejaVuSans-30" x="190.869141"/>
      </g>
     </g>
    </g>
    <g id="xtick_6">
     <g id="line2d_6">
      <g>
       <use xlink:href="#md450d4fe69" x="888.935341" y="889.394314" style="stroke: #000000; stroke-width: 0.8"/>
      </g>
     </g>
     <g id="text_6">
      <!-- 1300 -->
      <g transform="translate(876.210341 903.992751) scale(0.1 -0.1)">
       <defs>
        <path id="DejaVuSans-33" d="M 2597 2516 
Q 3050 2419 3304 2112 
Q 3559 1806 3559 1356 
Q 3559 666 3084 287 
Q 2609 -91 1734 -91 
Q 1441 -91 1130 -33 
Q 819 25 488 141 
L 488 750 
Q 750 597 1062 519 
Q 1375 441 1716 441 
Q 2309 441 2620 675 
Q 2931 909 2931 1356 
Q 2931 1769 2642 2001 
Q 2353 2234 1838 2234 
L 1294 2234 
L 1294 2753 
L 1863 2753 
Q 2328 2753 2575 2939 
Q 2822 3125 2822 3475 
Q 2822 3834 2567 4026 
Q 2313 4219 1838 4219 
Q 1578 4219 1281 4162 
Q 984 4106 628 3988 
L 628 4550 
Q 988 4650 1302 4700 
Q 1616 4750 1894 4750 
Q 2613 4750 3031 4423 
Q 3450 4097 3450 3541 
Q 3450 3153 3228 2886 
Q 3006 2619 2597 2516 
z
" transform="scale(0.015625)"/>
       </defs>
       <use xlink:href="#DejaVuSans-31"/>
       <use xlink:href="#DejaVuSans-33" x="63.623047"/>
       <use xlink:href="#DejaVuSans-30" x="127.246094"/>
       <use xlink:href="#DejaVuSans-30" x="190.869141"/>
      </g>
     </g>
    </g>
    <g id="xtick_7">
     <g id="line2d_7">
      <g>
       <use xlink:href="#md450d4fe69" x="1020.074006" y="889.394314" style="stroke: #000000; stroke-width: 0.8"/>
      </g>
     </g>
     <g id="text_7">
      <!-- 1400 -->
      <g transform="translate(1007.349006 903.992751) scale(0.1 -0.1)">
       <defs>
        <path id="DejaVuSans-34" d="M 2419 4116 
L 825 1625 
L 2419 1625 
L 2419 4116 
z
M 2253 4666 
L 3047 4666 
L 3047 1625 
L 3713 1625 
L 3713 1100 
L 3047 1100 
L 3047 0 
L 2419 0 
L 2419 1100 
L 313 1100 
L 313 1709 
L 2253 4666 
z
" transform="scale(0.015625)"/>
       </defs>
       <use xlink:href="#DejaVuSans-31"/>
       <use xlink:href="#DejaVuSans-34" x="63.623047"/>
       <use xlink:href="#DejaVuSans-30" x="127.246094"/>
       <use xlink:href="#DejaVuSans-30" x="190.869141"/>
      </g>
     </g>
    </g>
    <g id="xtick_8">
     <g id="line2d_8">
      <g>
       <use xlink:href="#md450d4fe69" x="1151.212672" y="889.394314" style="stroke: #000000; stroke-width: 0.8"/>
      </g>
     </g>
     <g id="text_8">
      <!-- 1500 -->
      <g transform="translate(1138.487672 903.992751) scale(0.1 -0.1)">
       <defs>
        <path id="DejaVuSans-35" d="M 691 4666 
L 3169 4666 
L 3169 4134 
L 1269 4134 
L 1269 2991 
Q 1406 3038 1543 3061 
Q 1681 3084 1819 3084 
Q 2600 3084 3056 2656 
Q 3513 2228 3513 1497 
Q 3513 744 3044 326 
Q 2575 -91 1722 -91 
Q 1428 -91 1123 -41 
Q 819 9 494 109 
L 494 744 
Q 775 591 1075 516 
Q 1375 441 1709 441 
Q 2250 441 2565 725 
Q 2881 1009 2881 1497 
Q 2881 1984 2565 2268 
Q 2250 2553 1709 2553 
Q 1456 2553 1204 2497 
Q 953 2441 691 2322 
L 691 4666 
z
" transform="scale(0.015625)"/>
       </defs>
       <use xlink:href="#DejaVuSans-31"/>
       <use xlink:href="#DejaVuSans-35" x="63.623047"/>
       <use xlink:href="#DejaVuSans-30" x="127.246094"/>
       <use xlink:href="#DejaVuSans-30" x="190.869141"/>
      </g>
     </g>
    </g>
    <g id="xtick_9">
     <g id="line2d_9">
      <g>
       <use xlink:href="#md450d4fe69" x="1282.351338" y="889.394314" style="stroke: #000000; stroke-width: 0.8"/>
      </g>
     </g>
     <g id="text_9">
      <!-- 1600 -->
      <g transform="translate(1269.626338 903.992751) scale(0.1 -0.1)">
       <defs>
        <path id="DejaVuSans-36" d="M 2113 2584 
Q 1688 2584 1439 2293 
Q 1191 2003 1191 1497 
Q 1191 994 1439 701 
Q 1688 409 2113 409 
Q 2538 409 2786 701 
Q 3034 994 3034 1497 
Q 3034 2003 2786 2293 
Q 2538 2584 2113 2584 
z
M 3366 4563 
L 3366 3988 
Q 3128 4100 2886 4159 
Q 2644 4219 2406 4219 
Q 1781 4219 1451 3797 
Q 1122 3375 1075 2522 
Q 1259 2794 1537 2939 
Q 1816 3084 2150 3084 
Q 2853 3084 3261 2657 
Q 3669 2231 3669 1497 
Q 3669 778 3244 343 
Q 2819 -91 2113 -91 
Q 1303 -91 875 529 
Q 447 1150 447 2328 
Q 447 3434 972 4092 
Q 1497 4750 2381 4750 
Q 2619 4750 2861 4703 
Q 3103 4656 3366 4563 
z
" transform="scale(0.015625)"/>
       </defs>
       <use xlink:href="#DejaVuSans-31"/>
       <use xlink:href="#DejaVuSans-36" x="63.623047"/>
       <use xlink:href="#DejaVuSans-30" x="127.246094"/>
       <use xlink:href="#DejaVuSans-30" x="190.869141"/>
      </g>
     </g>
    </g>
   </g>
   <g id="matplotlib.axis_2">
    <g id="ytick_1">
     <g id="line2d_10">
      <defs>
       <path id="m0013d49a9a" d="M 0 0 
L -3.5 0 
" style="stroke: #000000; stroke-width: 0.8"/>
      </defs>
      <g>
       <use xlink:href="#m0013d49a9a" x="180" y="765.028666" style="stroke: #000000; stroke-width: 0.8"/>
      </g>
     </g>
     <g id="text_10">
      <!-- 100 -->
      <g transform="translate(153.9125 768.827885) scale(0.1 -0.1)">
       <use xlink:href="#DejaVuSans-31"/>
       <use xlink:href="#DejaVuSans-30" x="63.623047"/>
       <use xlink:href="#DejaVuSans-30" x="127.246094"/>
      </g>
     </g>
    </g>
    <g id="ytick_2">
     <g id="line2d_11">
      <g>
       <use xlink:href="#m0013d49a9a" x="180" y="633.89" style="stroke: #000000; stroke-width: 0.8"/>
      </g>
     </g>
     <g id="text_11">
      <!-- 200 -->
      <g transform="translate(153.9125 637.689219) scale(0.1 -0.1)">
       <use xlink:href="#DejaVuSans-32"/>
       <use xlink:href="#DejaVuSans-30" x="63.623047"/>
       <use xlink:href="#DejaVuSans-30" x="127.246094"/>
      </g>
     </g>
    </g>
    <g id="ytick_3">
     <g id="line2d_12">
      <g>
       <use xlink:href="#m0013d49a9a" x="180" y="502.751334" style="stroke: #000000; stroke-width: 0.8"/>
      </g>
     </g>
     <g id="text_12">
      <!-- 300 -->
      <g transform="translate(153.9125 506.550553) scale(0.1 -0.1)">
       <use xlink:href="#DejaVuSans-33"/>
       <use xlink:href="#DejaVuSans-30" x="63.623047"/>
       <use xlink:href="#DejaVuSans-30" x="127.246094"/>
      </g>
     </g>
    </g>
    <g id="ytick_4">
     <g id="line2d_13">
      <g>
       <use xlink:href="#m0013d49a9a" x="180" y="371.612669" style="stroke: #000000; stroke-width: 0.8"/>
      </g>
     </g>
     <g id="text_13">
      <!-- 400 -->
      <g transform="translate(153.9125 375.411887) scale(0.1 -0.1)">
       <use xlink:href="#DejaVuSans-34"/>
       <use xlink:href="#DejaVuSans-30" x="63.623047"/>
       <use xlink:href="#DejaVuSans-30" x="127.246094"/>
      </g>
     </g>
    </g>
    <g id="ytick_5">
     <g id="line2d_14">
      <g>
       <use xlink:href="#m0013d49a9a" x="180" y="240.474003" style="stroke: #000000; stroke-width: 0.8"/>
      </g>
     </g>
     <g id="text_14">
      <!-- 500 -->
      <g transform="translate(153.9125 244.273222) scale(0.1 -0.1)">
       <use xlink:href="#DejaVuSans-35"/>
       <use xlink:href="#DejaVuSans-30" x="63.623047"/>
       <use xlink:href="#DejaVuSans-30" x="127.246094"/>
      </g>
     </g>
    </g>
   </g>
   <g id="LineCollection_1">
    <path d="M 1245.272727 797.828347 
L 1228.085339 797.285818 
L 1213.224572 795.630356 
L 1199.189562 793.018844 
L 1185.7801 789.612578 
L 1172.838691 785.550768 
L 1160.243834 780.959929 
L 1147.901652 775.958771 
L 1135.738408 770.659665 
L 1123.694974 765.168215 
L 1111.723282 759.582151 
L 1099.852319 754.022093 
L 1099.71611 753.95871 
L 1087.990889 748.537963 
L 1087.702292 748.406378 
L 1076.096023 743.188051 
L 1075.677668 743.003752 
L 1064.151404 738.030007 
L 1063.625417 737.808914 
L 1052.147162 733.111396 
L 1051.53535 732.868769 
L 1040.079382 728.469691 
L 1039.403207 728.219273 
L 1027.94944 724.132441 
L 1027.229785 723.885845 
L 1015.763169 720.117623 
L 1015.01996 719.883977 
L 1003.529907 716.4342 
L 1002.781682 716.220036 
L 991.261532 713.082863 
L 990.525026 712.892242 
L 978.971548 710.056956 
L 978.261377 709.891751 
L 966.674295 707.343506 
L 966.00278 707.203811 
L 954.384338 704.92433 
L 953.761464 704.808905 
L 942.116015 702.777124 
L 941.54952 702.683835 
L 929.883149 700.876504 
L 929.378715 700.802718 
L 917.698886 699.194948 
L 917.260381 699.137858 
L 905.575618 697.703629 
L 905.205362 697.660503 
L 893.524954 696.373124 
L 893.223989 696.34148 
L 881.557718 695.174005 
L 881.326048 695.151724 
L 869.683946 694.077334 
L 869.520747 694.06272 
L 857.912877 693.055054 
L 857.816663 693.046857 
L 846.252923 692.080312 
L 846.221673 692.077716 
L 834.72725 691.128998 
L 823.341048 690.177292 
L 812.084129 689.202091 
L 800.960863 688.183464 
L 789.974482 687.103401 
L 779.127009 685.94584 
L 768.419211 684.696657 
L 757.850572 683.343635 
L 747.419288 681.8764 
L 737.122298 680.286346 
L 726.955334 678.56654 
L 716.913013 676.711619 
L 706.988947 674.717678 
L 697.175882 672.582166 
L 687.465855 670.303772 
L 677.850366 667.882325 
L 668.320554 665.318695 
L 658.867377 662.61469 
L 649.481792 659.772969 
L 640.154915 656.796932 
L 630.87818 653.690626 
L 621.643485 650.458618 
L 612.44332 647.105879 
L 603.270886 643.637631 
L 594.120203 640.059196 
L 584.986208 636.375818 
L 575.864846 632.592478 
L 566.753149 628.713696 
L 557.649308 624.743324 
L 548.552742 620.684334 
L 539.46415 616.538611 
L 530.385554 612.306749 
L 521.320328 607.987849 
L 512.273207 603.579348 
L 503.250283 599.076843 
L 494.258966 594.473954 
L 485.307925 589.762192 
L 476.406991 584.930853 
L 467.567019 579.966923 
L 458.799712 574.854989 
L 450.117392 569.577147 
L 441.532727 564.112886 
L 433.05841 558.438937 
L 424.706816 552.529058 
L 416.489646 546.353758 
L 408.417609 539.879912 
L 400.500192 533.070319 
L 392.74556 525.883193 
L 385.160674 518.271662 
L 377.751638 510.183357 
L 370.524286 501.5602 
L 363.484966 492.338482 
L 356.641409 482.449332 
L 350.003544 471.819564 
L 343.584106 460.372876 
L 337.398932 448.031279 
L 331.46686 434.716592 
L 325.809265 420.351881 
L 320.449292 404.862693 
L 315.410895 388.178072 
L 310.71779 370.231316 
L 306.392406 350.960563 
L 302.454906 330.309233 
L 298.922297 308.226432 
L 295.807621 284.667356 
L 293.11924 259.593756 
L 290.834991 232.677897 
" clip-path="url(#pd52c391935)" style="fill: none; stroke: #1f77b4; stroke-width: 1.5"/>
    <path d="M 1244.321125 827.975225 
L 1225.936492 827.394904 
L 1208.790221 825.484841 
L 1192.711048 822.492969 
L 1177.54474 818.64043 
L 1163.152957 814.123404 
L 1149.412176 809.114874 
L 1136.212637 803.766307 
L 1123.457354 798.20927 
L 1111.061157 792.556971 
L 1098.949782 786.90573 
L 1087.058997 781.336388 
L 1075.333775 775.915642 
L 1063.727507 770.697315 
L 1052.201243 765.723571 
L 1040.722987 761.026053 
L 1029.267019 756.626975 
L 1017.813252 752.540142 
L 1006.346636 748.771919 
L 994.856583 745.322143 
L 983.336433 742.18497 
L 971.782954 739.349684 
L 960.195873 736.80144 
L 948.577431 734.521959 
L 936.931981 732.490179 
L 925.26561 730.682848 
L 913.58578 729.075078 
L 901.901018 727.640849 
L 890.22061 726.353469 
L 878.554339 725.185995 
L 866.912237 724.111605 
L 855.304368 723.103939 
L 843.740629 722.137394 
L 832.230579 721.187386 
L 820.783289 720.230573 
L 809.407205 719.24505 
L 798.110046 718.210498 
L 786.898704 717.10832 
L 775.77918 715.921727 
L 764.75652 714.635812 
L 753.834782 713.237585 
L 743.017013 711.715988 
L 732.305235 710.061883 
L 721.70046 708.268019 
L 711.202702 706.328974 
L 700.811012 704.241078 
L 690.523521 702.002321 
L 680.337492 699.612236 
L 670.249386 697.071772 
L 660.254933 694.383148 
L 650.349214 691.549697 
L 640.526747 688.575699 
L 630.781583 685.466195 
L 621.107402 682.226803 
L 611.497624 678.863523 
L 601.94551 675.382525 
L 592.444277 671.789954 
L 582.987211 668.091705 
L 573.567779 664.293221 
L 564.179747 660.399272 
L 554.81729 656.413744 
L 545.475107 652.339426 
L 536.148534 648.177804 
L 526.833645 643.928857 
L 517.527361 639.590861 
L 508.227548 635.160199 
L 498.933106 630.631182 
L 489.64406 625.995881 
L 480.361636 621.243967 
L 471.088336 616.362569 
L 461.827993 611.336146 
L 452.585828 606.146372 
L 443.36849 600.77204 
L 434.184084 595.188988 
L 425.04219 589.370043 
L 415.953862 583.284984 
L 406.931622 576.900534 
L 397.989431 570.180371 
L 389.142648 563.085171 
L 380.40797 555.572672 
L 371.803358 547.59777 
L 363.34794 539.112648 
L 355.061895 530.066929 
L 346.966322 520.407873 
L 339.083082 510.080594 
L 331.434619 499.028331 
L 324.043764 487.192737 
L 316.933502 474.514221 
L 310.126734 460.932325 
L 303.645994 446.386139 
L 297.513151 430.814767 
L 291.749082 414.15783 
L 286.373318 396.356016 
L 281.403654 377.351683 
L 276.855741 357.0895 
L 272.742635 335.51715 
L 269.074325 312.586072 
L 265.857225 288.252266 
L 263.093627 262.477147 
L 260.781132 235.228456 
" clip-path="url(#pd52c391935)" style="fill: none; stroke: #8c564b; stroke-width: 1.5"/>
    <path d="M 1243.369522 858.122103 
L 1222.597167 857.371374 
L 1203.272663 855.137772 
L 1185.285173 851.726446 
L 1168.512514 847.418176 
L 1152.8237 842.461474 
L 1138.084924 837.069 
L 1124.165773 831.417942 
L 1110.943871 825.652895 
L 1098.307492 819.889805 
L 1062.820615 803.359871 
L 1051.56747 798.300314 
L 1040.51303 793.530168 
L 1029.603395 789.06536 
L 1018.791247 784.913509 
L 1008.035337 781.075679 
L 997.300199 777.547839 
L 986.555989 774.321994 
L 975.778384 771.387032 
L 964.948448 768.729307 
L 954.052413 766.333038 
L 943.081354 764.180571 
L 932.030751 762.252574 
L 920.899975 760.528216 
L 909.691718 758.98536 
L 898.411412 757.600775 
L 887.066669 756.350391 
L 864.222108 754.153404 
L 829.718283 751.244467 
L 806.656602 749.281261 
L 783.698223 747.09993 
L 761.261505 744.594528 
L 749.63365 743.105465 
L 738.413992 741.524577 
L 727.274627 739.801298 
L 716.221918 737.928184 
L 705.261319 735.899901 
L 694.397315 733.713171 
L 683.633367 731.36668 
L 672.971856 728.860949 
L 662.414045 726.198173 
L 651.960041 723.38202 
L 641.60879 720.417409 
L 631.358073 717.310263 
L 621.204545 714.067246 
L 611.143782 710.695489 
L 601.170354 707.202317 
L 591.27792 703.594975 
L 581.459337 699.880359 
L 562.287354 692.266276 
L 552.365928 688.151272 
L 533.184578 679.883621 
L 514.090527 671.26661 
L 495.015309 662.274338 
L 475.899704 652.844204 
L 466.312235 647.93393 
L 456.699714 642.871197 
L 447.060121 637.635382 
L 437.393288 632.202591 
L 427.701175 626.545574 
L 417.988177 620.633681 
L 408.261445 614.432892 
L 398.531221 607.905938 
L 388.811164 601.012539 
L 379.118636 593.709776 
L 369.474891 585.952597 
L 359.905125 577.694452 
L 350.438316 568.88802 
L 341.106795 559.485946 
L 331.945544 549.441503 
L 322.991211 538.70907 
L 314.280949 527.244335 
L 305.851179 515.004168 
L 297.73644 501.946194 
L 289.96846 488.02815 
L 282.575544 473.207165 
L 275.582296 457.439131 
L 269.009633 440.678298 
L 262.874999 422.877181 
L 257.192659 403.986805 
L 251.973976 383.957271 
L 247.227582 362.738572 
L 242.959421 340.281603 
L 239.172621 316.539287 
L 235.867222 291.467782 
L 233.039768 265.027707 
L 230.727273 237.779016 
L 230.727273 237.779016 
" clip-path="url(#pd52c391935)" style="fill: none; stroke: #17becf; stroke-width: 1.5"/>
   </g>
   <g id="patch_3">
    <path d="M 180 889.394314 
L 180 201.405686 
" style="fill: none; stroke: #000000; stroke-width: 0.8; stroke-linejoin: miter; stroke-linecap: square"/>
   </g>
   <g id="patch_4">
    <path d="M 1296 889.394314 
L 1296 201.405686 
" style="fill: none; stroke: #000000; stroke-width: 0.8; stroke-linejoin: miter; stroke-linecap: square"/>
   </g>
   <g id="patch_5">
    <path d="M 180 889.394314 
L 1296 889.394314 
" style="fill: none; stroke: #000000; stroke-width: 0.8; stroke-linejoin: miter; stroke-linecap: square"/>
   </g>
   <g id="patch_6">
    <path d="M 180 201.405686 
L 1296 201.405686 
" style="fill: none; stroke: #000000; stroke-width: 0.8; stroke-linejoin: miter; stroke-linecap: square"/>
   </g>
  </g>
 </g>
 <defs>
  <clipPath id="pd52c391935">
   <rect x="180" y="201.405686" width="1116" height="687.988627"/>
  </clipPath>
 </defs>
</svg>
