<?xml version="1.0" encoding="utf-8" standalone="no"?>
<!DOCTYPE svg PUBLIC "-//W3C//DTD SVG 1.1//EN"
  "http://www.w3.org/Graphics/SVG/1.1/DTD/svg11.dtd">
<svg xmlns:xlink="http://www.w3.org/1999/xlink" width="1440pt" height="1080pt" viewBox="0 0 1440 1080" xmlns="http://www.w3.org/2000/svg" version="1.1">
 <metadata>
  <rdf:RDF xmlns:dc="http://purl.org/dc/elements/1.1/" xmlns:cc="http://creativecommons.org/ns#" xmlns:rdf="http://www.w3.org/1999/02/22-rdf-syntax-ns#">
   <cc:Work>
    <dc:type rdf:resource="http://purl.org/dc/dcmitype/StillImage"/>
    <dc:date>2023-12-11T12:07:03.219681</dc:date>
    <dc:format>image/svg+xml</dc:format>
    <dc:creator>
     <cc:Agent>
      <dc:title>Matplotlib v3.7.1, https://matplotlib.org/</dc:title>
     </cc:Agent>
    </dc:creator>
   </cc:Work>
  </rdf:RDF>
 </metadata>
 <defs>
  <style type="text/css">*{stroke-linejoin: round; stroke-linecap: butt}</style>
 </defs>
 <g id="figure_1">
  <g id="patch_1">
   <path d="M 0 1080 
L 1440 1080 
L 1440 0 
L 0 0 
z
" style="fill: #ffffff"/>
  </g>
  <g id="axes_1">
   <g id="patch_2">
    <path d="M 180 754.586124 
L 1296 754.586124 
L 1296 336.213876 
L 180 336.213876 
z
" style="fill: #ffffff"/>
   </g>
   <g id="matplotlib.axis_1">
    <g id="xtick_1">
     <g id="line2d_1">
      <defs>
       <path id="mb496b15db3" d="M 0 0 
L 0 3.5 
" style="stroke: #000000; stroke-width: 0.8"/>
      </defs>
      <g>
       <use xlink:href="#mb496b15db3" x="191.863154" y="754.586124" style="stroke: #000000; stroke-width: 0.8"/>
      </g>
     </g>
     <g id="text_1">
      <!-- 800 -->
      <g transform="translate(182.319404 769.184561) scale(0.1 -0.1)">
       <defs>
        <path id="DejaVuSans-38" d="M 2034 2216 
Q 1584 2216 1326 1975 
Q 1069 1734 1069 1313 
Q 1069 891 1326 650 
Q 1584 409 2034 409 
Q 2484 409 2743 651 
Q 3003 894 3003 1313 
Q 3003 1734 2745 1975 
Q 2488 2216 2034 2216 
z
M 1403 2484 
Q 997 2584 770 2862 
Q 544 3141 544 3541 
Q 544 4100 942 4425 
Q 1341 4750 2034 4750 
Q 2731 4750 3128 4425 
Q 3525 4100 3525 3541 
Q 3525 3141 3298 2862 
Q 3072 2584 2669 2484 
Q 3125 2378 3379 2068 
Q 3634 1759 3634 1313 
Q 3634 634 3220 271 
Q 2806 -91 2034 -91 
Q 1263 -91 848 271 
Q 434 634 434 1313 
Q 434 1759 690 2068 
Q 947 2378 1403 2484 
z
M 1172 3481 
Q 1172 3119 1398 2916 
Q 1625 2713 2034 2713 
Q 2441 2713 2670 2916 
Q 2900 3119 2900 3481 
Q 2900 3844 2670 4047 
Q 2441 4250 2034 4250 
Q 1625 4250 1398 4047 
Q 1172 3844 1172 3481 
z
" transform="scale(0.015625)"/>
        <path id="DejaVuSans-30" d="M 2034 4250 
Q 1547 4250 1301 3770 
Q 1056 3291 1056 2328 
Q 1056 1369 1301 889 
Q 1547 409 2034 409 
Q 2525 409 2770 889 
Q 3016 1369 3016 2328 
Q 3016 3291 2770 3770 
Q 2525 4250 2034 4250 
z
M 2034 4750 
Q 2819 4750 3233 4129 
Q 3647 3509 3647 2328 
Q 3647 1150 3233 529 
Q 2819 -91 2034 -91 
Q 1250 -91 836 529 
Q 422 1150 422 2328 
Q 422 3509 836 4129 
Q 1250 4750 2034 4750 
z
" transform="scale(0.015625)"/>
       </defs>
       <use xlink:href="#DejaVuSans-38"/>
       <use xlink:href="#DejaVuSans-30" x="63.623047"/>
       <use xlink:href="#DejaVuSans-30" x="127.246094"/>
      </g>
     </g>
    </g>
    <g id="xtick_2">
     <g id="line2d_2">
      <g>
       <use xlink:href="#mb496b15db3" x="409.454268" y="754.586124" style="stroke: #000000; stroke-width: 0.8"/>
      </g>
     </g>
     <g id="text_2">
      <!-- 1000 -->
      <g transform="translate(396.729268 769.184561) scale(0.1 -0.1)">
       <defs>
        <path id="DejaVuSans-31" d="M 794 531 
L 1825 531 
L 1825 4091 
L 703 3866 
L 703 4441 
L 1819 4666 
L 2450 4666 
L 2450 531 
L 3481 531 
L 3481 0 
L 794 0 
L 794 531 
z
" transform="scale(0.015625)"/>
       </defs>
       <use xlink:href="#DejaVuSans-31"/>
       <use xlink:href="#DejaVuSans-30" x="63.623047"/>
       <use xlink:href="#DejaVuSans-30" x="127.246094"/>
       <use xlink:href="#DejaVuSans-30" x="190.869141"/>
      </g>
     </g>
    </g>
    <g id="xtick_3">
     <g id="line2d_3">
      <g>
       <use xlink:href="#mb496b15db3" x="627.045383" y="754.586124" style="stroke: #000000; stroke-width: 0.8"/>
      </g>
     </g>
     <g id="text_3">
      <!-- 1200 -->
      <g transform="translate(614.320383 769.184561) scale(0.1 -0.1)">
       <defs>
        <path id="DejaVuSans-32" d="M 1228 531 
L 3431 531 
L 3431 0 
L 469 0 
L 469 531 
Q 828 903 1448 1529 
Q 2069 2156 2228 2338 
Q 2531 2678 2651 2914 
Q 2772 3150 2772 3378 
Q 2772 3750 2511 3984 
Q 2250 4219 1831 4219 
Q 1534 4219 1204 4116 
Q 875 4013 500 3803 
L 500 4441 
Q 881 4594 1212 4672 
Q 1544 4750 1819 4750 
Q 2544 4750 2975 4387 
Q 3406 4025 3406 3419 
Q 3406 3131 3298 2873 
Q 3191 2616 2906 2266 
Q 2828 2175 2409 1742 
Q 1991 1309 1228 531 
z
" transform="scale(0.015625)"/>
       </defs>
       <use xlink:href="#DejaVuSans-31"/>
       <use xlink:href="#DejaVuSans-32" x="63.623047"/>
       <use xlink:href="#DejaVuSans-30" x="127.246094"/>
       <use xlink:href="#DejaVuSans-30" x="190.869141"/>
      </g>
     </g>
    </g>
    <g id="xtick_4">
     <g id="line2d_4">
      <g>
       <use xlink:href="#mb496b15db3" x="844.636497" y="754.586124" style="stroke: #000000; stroke-width: 0.8"/>
      </g>
     </g>
     <g id="text_4">
      <!-- 1400 -->
      <g transform="translate(831.911497 769.184561) scale(0.1 -0.1)">
       <defs>
        <path id="DejaVuSans-34" d="M 2419 4116 
L 825 1625 
L 2419 1625 
L 2419 4116 
z
M 2253 4666 
L 3047 4666 
L 3047 1625 
L 3713 1625 
L 3713 1100 
L 3047 1100 
L 3047 0 
L 2419 0 
L 2419 1100 
L 313 1100 
L 313 1709 
L 2253 4666 
z
" transform="scale(0.015625)"/>
       </defs>
       <use xlink:href="#DejaVuSans-31"/>
       <use xlink:href="#DejaVuSans-34" x="63.623047"/>
       <use xlink:href="#DejaVuSans-30" x="127.246094"/>
       <use xlink:href="#DejaVuSans-30" x="190.869141"/>
      </g>
     </g>
    </g>
    <g id="xtick_5">
     <g id="line2d_5">
      <g>
       <use xlink:href="#mb496b15db3" x="1062.227611" y="754.586124" style="stroke: #000000; stroke-width: 0.8"/>
      </g>
     </g>
     <g id="text_5">
      <!-- 1600 -->
      <g transform="translate(1049.502611 769.184561) scale(0.1 -0.1)">
       <defs>
        <path id="DejaVuSans-36" d="M 2113 2584 
Q 1688 2584 1439 2293 
Q 1191 2003 1191 1497 
Q 1191 994 1439 701 
Q 1688 409 2113 409 
Q 2538 409 2786 701 
Q 3034 994 3034 1497 
Q 3034 2003 2786 2293 
Q 2538 2584 2113 2584 
z
M 3366 4563 
L 3366 3988 
Q 3128 4100 2886 4159 
Q 2644 4219 2406 4219 
Q 1781 4219 1451 3797 
Q 1122 3375 1075 2522 
Q 1259 2794 1537 2939 
Q 1816 3084 2150 3084 
Q 2853 3084 3261 2657 
Q 3669 2231 3669 1497 
Q 3669 778 3244 343 
Q 2819 -91 2113 -91 
Q 1303 -91 875 529 
Q 447 1150 447 2328 
Q 447 3434 972 4092 
Q 1497 4750 2381 4750 
Q 2619 4750 2861 4703 
Q 3103 4656 3366 4563 
z
" transform="scale(0.015625)"/>
       </defs>
       <use xlink:href="#DejaVuSans-31"/>
       <use xlink:href="#DejaVuSans-36" x="63.623047"/>
       <use xlink:href="#DejaVuSans-30" x="127.246094"/>
       <use xlink:href="#DejaVuSans-30" x="190.869141"/>
      </g>
     </g>
    </g>
    <g id="xtick_6">
     <g id="line2d_6">
      <g>
       <use xlink:href="#mb496b15db3" x="1279.818726" y="754.586124" style="stroke: #000000; stroke-width: 0.8"/>
      </g>
     </g>
     <g id="text_6">
      <!-- 1800 -->
      <g transform="translate(1267.093726 769.184561) scale(0.1 -0.1)">
       <use xlink:href="#DejaVuSans-31"/>
       <use xlink:href="#DejaVuSans-38" x="63.623047"/>
       <use xlink:href="#DejaVuSans-30" x="127.246094"/>
       <use xlink:href="#DejaVuSans-30" x="190.869141"/>
      </g>
     </g>
    </g>
   </g>
   <g id="matplotlib.axis_2">
    <g id="ytick_1">
     <g id="line2d_7">
      <defs>
       <path id="m4ba6fef334" d="M 0 0 
L -3.5 0 
" style="stroke: #000000; stroke-width: 0.8"/>
      </defs>
      <g>
       <use xlink:href="#m4ba6fef334" x="180" y="702.861339" style="stroke: #000000; stroke-width: 0.8"/>
      </g>
     </g>
     <g id="text_7">
      <!-- 850 -->
      <g transform="translate(153.9125 706.660558) scale(0.1 -0.1)">
       <defs>
        <path id="DejaVuSans-35" d="M 691 4666 
L 3169 4666 
L 3169 4134 
L 1269 4134 
L 1269 2991 
Q 1406 3038 1543 3061 
Q 1681 3084 1819 3084 
Q 2600 3084 3056 2656 
Q 3513 2228 3513 1497 
Q 3513 744 3044 326 
Q 2575 -91 1722 -91 
Q 1428 -91 1123 -41 
Q 819 9 494 109 
L 494 744 
Q 775 591 1075 516 
Q 1375 441 1709 441 
Q 2250 441 2565 725 
Q 2881 1009 2881 1497 
Q 2881 1984 2565 2268 
Q 2250 2553 1709 2553 
Q 1456 2553 1204 2497 
Q 953 2441 691 2322 
L 691 4666 
z
" transform="scale(0.015625)"/>
       </defs>
       <use xlink:href="#DejaVuSans-38"/>
       <use xlink:href="#DejaVuSans-35" x="63.623047"/>
       <use xlink:href="#DejaVuSans-30" x="127.246094"/>
      </g>
     </g>
    </g>
    <g id="ytick_2">
     <g id="line2d_8">
      <g>
       <use xlink:href="#m4ba6fef334" x="180" y="648.463561" style="stroke: #000000; stroke-width: 0.8"/>
      </g>
     </g>
     <g id="text_8">
      <!-- 900 -->
      <g transform="translate(153.9125 652.26278) scale(0.1 -0.1)">
       <defs>
        <path id="DejaVuSans-39" d="M 703 97 
L 703 672 
Q 941 559 1184 500 
Q 1428 441 1663 441 
Q 2288 441 2617 861 
Q 2947 1281 2994 2138 
Q 2813 1869 2534 1725 
Q 2256 1581 1919 1581 
Q 1219 1581 811 2004 
Q 403 2428 403 3163 
Q 403 3881 828 4315 
Q 1253 4750 1959 4750 
Q 2769 4750 3195 4129 
Q 3622 3509 3622 2328 
Q 3622 1225 3098 567 
Q 2575 -91 1691 -91 
Q 1453 -91 1209 -44 
Q 966 3 703 97 
z
M 1959 2075 
Q 2384 2075 2632 2365 
Q 2881 2656 2881 3163 
Q 2881 3666 2632 3958 
Q 2384 4250 1959 4250 
Q 1534 4250 1286 3958 
Q 1038 3666 1038 3163 
Q 1038 2656 1286 2365 
Q 1534 2075 1959 2075 
z
" transform="scale(0.015625)"/>
       </defs>
       <use xlink:href="#DejaVuSans-39"/>
       <use xlink:href="#DejaVuSans-30" x="63.623047"/>
       <use xlink:href="#DejaVuSans-30" x="127.246094"/>
      </g>
     </g>
    </g>
    <g id="ytick_3">
     <g id="line2d_9">
      <g>
       <use xlink:href="#m4ba6fef334" x="180" y="594.065782" style="stroke: #000000; stroke-width: 0.8"/>
      </g>
     </g>
     <g id="text_9">
      <!-- 950 -->
      <g transform="translate(153.9125 597.865001) scale(0.1 -0.1)">
       <use xlink:href="#DejaVuSans-39"/>
       <use xlink:href="#DejaVuSans-35" x="63.623047"/>
       <use xlink:href="#DejaVuSans-30" x="127.246094"/>
      </g>
     </g>
    </g>
    <g id="ytick_4">
     <g id="line2d_10">
      <g>
       <use xlink:href="#m4ba6fef334" x="180" y="539.668004" style="stroke: #000000; stroke-width: 0.8"/>
      </g>
     </g>
     <g id="text_10">
      <!-- 1000 -->
      <g transform="translate(147.55 543.467222) scale(0.1 -0.1)">
       <use xlink:href="#DejaVuSans-31"/>
       <use xlink:href="#DejaVuSans-30" x="63.623047"/>
       <use xlink:href="#DejaVuSans-30" x="127.246094"/>
       <use xlink:href="#DejaVuSans-30" x="190.869141"/>
      </g>
     </g>
    </g>
    <g id="ytick_5">
     <g id="line2d_11">
      <g>
       <use xlink:href="#m4ba6fef334" x="180" y="485.270225" style="stroke: #000000; stroke-width: 0.8"/>
      </g>
     </g>
     <g id="text_11">
      <!-- 1050 -->
      <g transform="translate(147.55 489.069444) scale(0.1 -0.1)">
       <use xlink:href="#DejaVuSans-31"/>
       <use xlink:href="#DejaVuSans-30" x="63.623047"/>
       <use xlink:href="#DejaVuSans-35" x="127.246094"/>
       <use xlink:href="#DejaVuSans-30" x="190.869141"/>
      </g>
     </g>
    </g>
    <g id="ytick_6">
     <g id="line2d_12">
      <g>
       <use xlink:href="#m4ba6fef334" x="180" y="430.872447" style="stroke: #000000; stroke-width: 0.8"/>
      </g>
     </g>
     <g id="text_12">
      <!-- 1100 -->
      <g transform="translate(147.55 434.671665) scale(0.1 -0.1)">
       <use xlink:href="#DejaVuSans-31"/>
       <use xlink:href="#DejaVuSans-31" x="63.623047"/>
       <use xlink:href="#DejaVuSans-30" x="127.246094"/>
       <use xlink:href="#DejaVuSans-30" x="190.869141"/>
      </g>
     </g>
    </g>
    <g id="ytick_7">
     <g id="line2d_13">
      <g>
       <use xlink:href="#m4ba6fef334" x="180" y="376.474668" style="stroke: #000000; stroke-width: 0.8"/>
      </g>
     </g>
     <g id="text_13">
      <!-- 1150 -->
      <g transform="translate(147.55 380.273887) scale(0.1 -0.1)">
       <use xlink:href="#DejaVuSans-31"/>
       <use xlink:href="#DejaVuSans-31" x="63.623047"/>
       <use xlink:href="#DejaVuSans-35" x="127.246094"/>
       <use xlink:href="#DejaVuSans-30" x="190.869141"/>
      </g>
     </g>
    </g>
   </g>
   <g id="LineCollection_1">
    <path d="M 230.727273 525.445547 
L 242.117965 553.828883 
L 253.522452 579.62307 
L 264.963206 602.972683 
L 276.465995 624.019532 
L 288.05983 642.900001 
L 299.77603 659.741782 
L 311.645836 674.660209 
L 323.696036 687.754862 
L 335.942439 699.10773 
L 348.382066 708.7847 
L 358.829354 715.5811 
L 360.986411 716.841758 
L 371.376642 722.264693 
L 373.699249 723.335627 
L 384.032059 727.49919 
L 386.441746 728.335834 
L 396.71673 731.349654 
L 399.124583 731.933417 
L 411.663037 734.242512 
L 423.989448 735.39463 
L 436.05941 735.528852 
L 447.851502 734.78206 
L 459.36286 733.28191 
L 470.603335 731.143182 
L 481.590156 728.466824 
L 492.343907 725.340611 
L 502.885905 721.840506 
L 513.236697 718.032177 
L 523.415348 713.972365 
L 533.43921 709.710031 
L 543.323963 705.28727 
L 553.083796 700.74003 
L 572.279368 691.388487 
L 591.118099 681.839415 
L 618.882831 667.378332 
L 646.270097 652.858795 
L 673.490552 638.195169 
L 691.629976 628.224282 
L 709.807845 617.988962 
L 728.049367 607.388397 
L 746.368643 596.325667 
L 764.536662 584.86814 
L 774.001376 578.688531 
L 783.251703 572.502672 
L 792.520234 566.157033 
L 801.805798 559.651199 
L 811.10711 552.987312 
L 829.571386 539.343369 
L 839.091245 532.11098 
L 857.797623 517.573877 
L 885.888636 495.226949 
L 914.003996 472.884479 
L 923.34521 465.626642 
L 932.658317 458.540993 
L 941.932953 451.679726 
L 951.156421 445.098559 
L 960.313227 438.856282 
L 969.384589 433.014044 
L 978.347995 427.634275 
L 987.176955 422.779114 
L 995.841258 418.508198 
L 1004.308189 414.875768 
L 1012.545465 411.92725 
L 1020.526731 409.696007 
L 1028.240214 408.201821 
L 1035.699863 407.45356 
L 1042.955885 407.458573 
L 1050.098762 408.239052 
L 1057.250721 409.850621 
L 1064.543856 412.393897 
L 1072.092767 416.01118 
L 1079.974127 420.868838 
L 1088.220929 427.134405 
L 1096.829963 434.958405 
L 1105.775371 444.465425 
L 1115.021626 455.753117 
L 1124.532741 468.895426 
L 1134.277461 483.946884 
L 1144.231477 500.946225 
L 1154.377894 519.918771 
L 1164.706843 540.877627 
L 1175.214789 563.823923 
L 1185.903804 588.746411 
L 1196.865522 615.829542 
L 1196.865522 615.829542 
" clip-path="url(#p643b429c3d)" style="fill: none; stroke: #1f77b4; stroke-width: 1.5"/>
    <path d="M 254.964577 515.732981 
L 266.006308 543.28716 
L 276.981295 568.157315 
L 287.892507 590.481565 
L 298.742277 610.397926 
L 309.532387 628.043682 
L 320.264139 643.554803 
L 330.938425 657.065412 
L 341.555789 668.707287 
L 352.116491 678.609415 
L 362.62056 686.897577 
L 373.067848 693.693977 
L 383.458079 699.116913 
L 393.79089 703.280477 
L 404.065874 706.294297 
L 414.282618 708.263315 
L 424.440733 709.287596 
L 434.539889 709.46217 
L 444.579838 708.876905 
L 454.56044 707.616415 
L 464.481681 705.759994 
L 474.343696 703.381576 
L 484.146778 700.549727 
L 493.891395 697.32766 
L 503.578198 693.773277 
L 513.208027 689.939232 
L 522.781921 685.873021 
L 532.301114 681.617085 
L 541.76704 677.208946 
L 551.181332 672.68135 
L 560.545816 668.062437 
L 569.862507 663.375922 
L 579.133607 658.641294 
L 588.361487 653.874035 
L 597.548689 649.085839 
L 606.697905 644.28486 
L 615.811972 639.475959 
L 624.893856 634.660966 
L 633.946635 629.838952 
L 642.973492 625.006507 
L 651.977689 620.158025 
L 660.962561 615.285993 
L 669.931491 610.381292 
L 678.887895 605.433489 
L 687.835209 600.431145 
L 696.776864 595.362111 
L 705.716273 590.213835 
L 714.656813 584.973661 
L 723.601805 579.629129 
L 732.5545 574.168268 
L 741.518057 568.579892 
L 750.495535 562.853881 
L 759.489868 556.981459 
L 768.503857 550.95547 
L 777.540152 544.770635 
L 786.60124 538.423804 
L 795.689435 531.914198 
L 804.806864 525.243634 
L 813.955458 518.416744 
L 823.136945 511.441167 
L 832.352843 504.327739 
L 841.604457 497.090658 
L 850.892872 489.74763 
L 860.218955 482.320002 
L 869.583352 474.832867 
L 878.986497 467.315155 
L 888.428612 459.799695 
L 897.909716 452.323259 
L 907.429633 444.926574 
L 916.98801 437.654318 
L 926.584326 430.555075 
L 936.217914 423.681278 
L 945.887978 417.089108 
L 955.593622 410.838374 
L 965.333872 404.992348 
L 975.10771 399.617586 
L 984.914107 394.783695 
L 994.752057 390.563079 
L 1004.620621 387.030643 
L 1014.518973 384.263461 
L 1024.446443 382.340402 
L 1034.402573 381.341724 
L 1044.387174 381.348622 
L 1054.400382 382.442733 
L 1064.442729 384.7056 
L 1074.515206 388.218094 
L 1084.619342 393.059787 
L 1094.757278 399.308281 
L 1104.931851 407.038487 
L 1115.146687 416.321859 
L 1125.406284 427.225576 
L 1135.716119 439.811671 
L 1146.082748 454.136115 
L 1156.513912 470.247837 
L 1167.018653 488.1877 
L 1177.607436 507.987417 
L 1188.292268 529.668407 
L 1199.086836 553.240603 
L 1210.006637 578.701191 
L 1221.069125 606.033294 
" clip-path="url(#p643b429c3d)" style="fill: none; stroke: #8c564b; stroke-width: 1.5"/>
    <path d="M 279.201881 506.020415 
L 290.076274 533.15701 
L 300.663905 557.149384 
L 311.097911 578.497276 
L 321.359203 597.333399 
L 331.424229 613.793379 
L 341.26557 628.017546 
L 350.853684 640.15337 
L 360.160363 650.358087 
L 369.164312 658.800542 
L 377.858543 665.660664 
L 386.258005 671.124867 
L 394.40447 675.376722 
L 402.365335 678.58452 
L 410.224955 680.889874 
L 418.070701 682.401943 
L 425.978827 683.199349 
L 434.005009 683.338089 
L 442.181523 682.861451 
L 450.519841 681.808372 
L 459.015997 680.218607 
L 467.656319 678.134824 
L 476.422177 675.6026 
L 485.293327 672.669346 
L 494.249965 669.382883 
L 503.273835 665.790097 
L 512.348695 661.935834 
L 521.460404 657.862081 
L 530.596805 653.607396 
L 548.903709 644.690387 
L 567.20352 635.415067 
L 594.539141 621.177585 
L 621.647223 606.806235 
L 648.475267 592.354563 
L 666.203774 582.610292 
L 683.8227 572.691021 
L 701.358677 562.502513 
L 718.848603 551.943383 
L 736.337203 540.914377 
L 745.096321 535.195527 
L 753.873743 529.327688 
L 762.675753 523.303207 
L 771.508502 517.116316 
L 780.377931 510.763406 
L 798.249246 497.55749 
L 816.331617 483.709585 
L 834.662763 469.293618 
L 881.889541 431.70446 
L 891.619473 424.146302 
L 901.458975 416.66313 
L 911.418375 409.300081 
L 921.510272 402.106614 
L 931.750064 395.136882 
L 942.156488 388.450334 
L 952.752049 382.112694 
L 963.563152 376.197423 
L 974.61954 370.787805 
L 985.952441 365.979597 
L 997.590594 361.883883 
L 1009.553308 358.62905 
L 1021.840391 356.359844 
L 1031.796521 355.361167 
L 1034.420613 355.230797 
L 1044.405214 355.237695 
L 1047.22335 355.392179 
L 1057.236558 356.486289 
L 1060.140112 356.970466 
L 1070.182458 359.233334 
L 1073.04041 360.050768 
L 1083.112888 363.563262 
L 1085.79851 364.670952 
L 1095.902646 369.512645 
L 1098.31954 370.831754 
L 1108.457475 377.080248 
L 1110.553367 378.517311 
L 1122.493023 387.715285 
L 1134.16304 398.428866 
L 1145.605495 410.679496 
L 1156.868844 424.503402 
L 1168.001027 439.945629 
L 1179.046186 457.053995 
L 1190.043726 475.874014 
L 1201.02864 496.444971 
L 1212.032367 518.796951 
L 1223.083799 542.948537 
L 1234.210239 568.904943 
L 1245.272727 596.237045 
L 1245.272727 596.237045 
" clip-path="url(#p643b429c3d)" style="fill: none; stroke: #17becf; stroke-width: 1.5"/>
   </g>
   <g id="patch_3">
    <path d="M 180 754.586124 
L 180 336.213876 
" style="fill: none; stroke: #000000; stroke-width: 0.8; stroke-linejoin: miter; stroke-linecap: square"/>
   </g>
   <g id="patch_4">
    <path d="M 1296 754.586124 
L 1296 336.213876 
" style="fill: none; stroke: #000000; stroke-width: 0.8; stroke-linejoin: miter; stroke-linecap: square"/>
   </g>
   <g id="patch_5">
    <path d="M 180 754.586124 
L 1296 754.586124 
" style="fill: none; stroke: #000000; stroke-width: 0.8; stroke-linejoin: miter; stroke-linecap: square"/>
   </g>
   <g id="patch_6">
    <path d="M 180 336.213876 
L 1296 336.213876 
" style="fill: none; stroke: #000000; stroke-width: 0.8; stroke-linejoin: miter; stroke-linecap: square"/>
   </g>
  </g>
 </g>
 <defs>
  <clipPath id="p643b429c3d">
   <rect x="180" y="336.213876" width="1116" height="418.372247"/>
  </clipPath>
 </defs>
</svg>
