<?xml version="1.0" encoding="utf-8" standalone="no"?>
<!DOCTYPE svg PUBLIC "-//W3C//DTD SVG 1.1//EN"
  "http://www.w3.org/Graphics/SVG/1.1/DTD/svg11.dtd">
<svg xmlns:xlink="http://www.w3.org/1999/xlink" width="1440pt" height="1080pt" viewBox="0 0 1440 1080" xmlns="http://www.w3.org/2000/svg" version="1.1">
 <metadata>
  <rdf:RDF xmlns:dc="http://purl.org/dc/elements/1.1/" xmlns:cc="http://creativecommons.org/ns#" xmlns:rdf="http://www.w3.org/1999/02/22-rdf-syntax-ns#">
   <cc:Work>
    <dc:type rdf:resource="http://purl.org/dc/dcmitype/StillImage"/>
    <dc:date>2023-12-11T12:06:39.031458</dc:date>
    <dc:format>image/svg+xml</dc:format>
    <dc:creator>
     <cc:Agent>
      <dc:title>Matplotlib v3.7.1, https://matplotlib.org/</dc:title>
     </cc:Agent>
    </dc:creator>
   </cc:Work>
  </rdf:RDF>
 </metadata>
 <defs>
  <style type="text/css">*{stroke-linejoin: round; stroke-linecap: butt}</style>
 </defs>
 <g id="figure_1">
  <g id="patch_1">
   <path d="M 0 1080 
L 1440 1080 
L 1440 0 
L 0 0 
z
" style="fill: #ffffff"/>
  </g>
  <g id="axes_1">
   <g id="patch_2">
    <path d="M 212.440946 961.2 
L 1263.559054 961.2 
L 1263.559054 129.6 
L 212.440946 129.6 
z
" style="fill: #ffffff"/>
   </g>
   <g id="matplotlib.axis_1">
    <g id="xtick_1">
     <g id="line2d_1">
      <defs>
       <path id="me61a466552" d="M 0 0 
L 0 3.5 
" style="stroke: #000000; stroke-width: 0.8"/>
      </defs>
      <g>
       <use xlink:href="#me61a466552" x="332.450029" y="961.2" style="stroke: #000000; stroke-width: 0.8"/>
      </g>
     </g>
     <g id="text_1">
      <!-- 500 -->
      <g transform="translate(322.906279 975.798437) scale(0.1 -0.1)">
       <defs>
        <path id="DejaVuSans-35" d="M 691 4666 
L 3169 4666 
L 3169 4134 
L 1269 4134 
L 1269 2991 
Q 1406 3038 1543 3061 
Q 1681 3084 1819 3084 
Q 2600 3084 3056 2656 
Q 3513 2228 3513 1497 
Q 3513 744 3044 326 
Q 2575 -91 1722 -91 
Q 1428 -91 1123 -41 
Q 819 9 494 109 
L 494 744 
Q 775 591 1075 516 
Q 1375 441 1709 441 
Q 2250 441 2565 725 
Q 2881 1009 2881 1497 
Q 2881 1984 2565 2268 
Q 2250 2553 1709 2553 
Q 1456 2553 1204 2497 
Q 953 2441 691 2322 
L 691 4666 
z
" transform="scale(0.015625)"/>
        <path id="DejaVuSans-30" d="M 2034 4250 
Q 1547 4250 1301 3770 
Q 1056 3291 1056 2328 
Q 1056 1369 1301 889 
Q 1547 409 2034 409 
Q 2525 409 2770 889 
Q 3016 1369 3016 2328 
Q 3016 3291 2770 3770 
Q 2525 4250 2034 4250 
z
M 2034 4750 
Q 2819 4750 3233 4129 
Q 3647 3509 3647 2328 
Q 3647 1150 3233 529 
Q 2819 -91 2034 -91 
Q 1250 -91 836 529 
Q 422 1150 422 2328 
Q 422 3509 836 4129 
Q 1250 4750 2034 4750 
z
" transform="scale(0.015625)"/>
       </defs>
       <use xlink:href="#DejaVuSans-35"/>
       <use xlink:href="#DejaVuSans-30" x="63.623047"/>
       <use xlink:href="#DejaVuSans-30" x="127.246094"/>
      </g>
     </g>
    </g>
    <g id="xtick_2">
     <g id="line2d_2">
      <g>
       <use xlink:href="#me61a466552" x="453.931951" y="961.2" style="stroke: #000000; stroke-width: 0.8"/>
      </g>
     </g>
     <g id="text_2">
      <!-- 600 -->
      <g transform="translate(444.388201 975.798437) scale(0.1 -0.1)">
       <defs>
        <path id="DejaVuSans-36" d="M 2113 2584 
Q 1688 2584 1439 2293 
Q 1191 2003 1191 1497 
Q 1191 994 1439 701 
Q 1688 409 2113 409 
Q 2538 409 2786 701 
Q 3034 994 3034 1497 
Q 3034 2003 2786 2293 
Q 2538 2584 2113 2584 
z
M 3366 4563 
L 3366 3988 
Q 3128 4100 2886 4159 
Q 2644 4219 2406 4219 
Q 1781 4219 1451 3797 
Q 1122 3375 1075 2522 
Q 1259 2794 1537 2939 
Q 1816 3084 2150 3084 
Q 2853 3084 3261 2657 
Q 3669 2231 3669 1497 
Q 3669 778 3244 343 
Q 2819 -91 2113 -91 
Q 1303 -91 875 529 
Q 447 1150 447 2328 
Q 447 3434 972 4092 
Q 1497 4750 2381 4750 
Q 2619 4750 2861 4703 
Q 3103 4656 3366 4563 
z
" transform="scale(0.015625)"/>
       </defs>
       <use xlink:href="#DejaVuSans-36"/>
       <use xlink:href="#DejaVuSans-30" x="63.623047"/>
       <use xlink:href="#DejaVuSans-30" x="127.246094"/>
      </g>
     </g>
    </g>
    <g id="xtick_3">
     <g id="line2d_3">
      <g>
       <use xlink:href="#me61a466552" x="575.413872" y="961.2" style="stroke: #000000; stroke-width: 0.8"/>
      </g>
     </g>
     <g id="text_3">
      <!-- 700 -->
      <g transform="translate(565.870122 975.798437) scale(0.1 -0.1)">
       <defs>
        <path id="DejaVuSans-37" d="M 525 4666 
L 3525 4666 
L 3525 4397 
L 1831 0 
L 1172 0 
L 2766 4134 
L 525 4134 
L 525 4666 
z
" transform="scale(0.015625)"/>
       </defs>
       <use xlink:href="#DejaVuSans-37"/>
       <use xlink:href="#DejaVuSans-30" x="63.623047"/>
       <use xlink:href="#DejaVuSans-30" x="127.246094"/>
      </g>
     </g>
    </g>
    <g id="xtick_4">
     <g id="line2d_4">
      <g>
       <use xlink:href="#me61a466552" x="696.895794" y="961.2" style="stroke: #000000; stroke-width: 0.8"/>
      </g>
     </g>
     <g id="text_4">
      <!-- 800 -->
      <g transform="translate(687.352044 975.798437) scale(0.1 -0.1)">
       <defs>
        <path id="DejaVuSans-38" d="M 2034 2216 
Q 1584 2216 1326 1975 
Q 1069 1734 1069 1313 
Q 1069 891 1326 650 
Q 1584 409 2034 409 
Q 2484 409 2743 651 
Q 3003 894 3003 1313 
Q 3003 1734 2745 1975 
Q 2488 2216 2034 2216 
z
M 1403 2484 
Q 997 2584 770 2862 
Q 544 3141 544 3541 
Q 544 4100 942 4425 
Q 1341 4750 2034 4750 
Q 2731 4750 3128 4425 
Q 3525 4100 3525 3541 
Q 3525 3141 3298 2862 
Q 3072 2584 2669 2484 
Q 3125 2378 3379 2068 
Q 3634 1759 3634 1313 
Q 3634 634 3220 271 
Q 2806 -91 2034 -91 
Q 1263 -91 848 271 
Q 434 634 434 1313 
Q 434 1759 690 2068 
Q 947 2378 1403 2484 
z
M 1172 3481 
Q 1172 3119 1398 2916 
Q 1625 2713 2034 2713 
Q 2441 2713 2670 2916 
Q 2900 3119 2900 3481 
Q 2900 3844 2670 4047 
Q 2441 4250 2034 4250 
Q 1625 4250 1398 4047 
Q 1172 3844 1172 3481 
z
" transform="scale(0.015625)"/>
       </defs>
       <use xlink:href="#DejaVuSans-38"/>
       <use xlink:href="#DejaVuSans-30" x="63.623047"/>
       <use xlink:href="#DejaVuSans-30" x="127.246094"/>
      </g>
     </g>
    </g>
    <g id="xtick_5">
     <g id="line2d_5">
      <g>
       <use xlink:href="#me61a466552" x="818.377715" y="961.2" style="stroke: #000000; stroke-width: 0.8"/>
      </g>
     </g>
     <g id="text_5">
      <!-- 900 -->
      <g transform="translate(808.833965 975.798437) scale(0.1 -0.1)">
       <defs>
        <path id="DejaVuSans-39" d="M 703 97 
L 703 672 
Q 941 559 1184 500 
Q 1428 441 1663 441 
Q 2288 441 2617 861 
Q 2947 1281 2994 2138 
Q 2813 1869 2534 1725 
Q 2256 1581 1919 1581 
Q 1219 1581 811 2004 
Q 403 2428 403 3163 
Q 403 3881 828 4315 
Q 1253 4750 1959 4750 
Q 2769 4750 3195 4129 
Q 3622 3509 3622 2328 
Q 3622 1225 3098 567 
Q 2575 -91 1691 -91 
Q 1453 -91 1209 -44 
Q 966 3 703 97 
z
M 1959 2075 
Q 2384 2075 2632 2365 
Q 2881 2656 2881 3163 
Q 2881 3666 2632 3958 
Q 2384 4250 1959 4250 
Q 1534 4250 1286 3958 
Q 1038 3666 1038 3163 
Q 1038 2656 1286 2365 
Q 1534 2075 1959 2075 
z
" transform="scale(0.015625)"/>
       </defs>
       <use xlink:href="#DejaVuSans-39"/>
       <use xlink:href="#DejaVuSans-30" x="63.623047"/>
       <use xlink:href="#DejaVuSans-30" x="127.246094"/>
      </g>
     </g>
    </g>
    <g id="xtick_6">
     <g id="line2d_6">
      <g>
       <use xlink:href="#me61a466552" x="939.859636" y="961.2" style="stroke: #000000; stroke-width: 0.8"/>
      </g>
     </g>
     <g id="text_6">
      <!-- 1000 -->
      <g transform="translate(927.134636 975.798437) scale(0.1 -0.1)">
       <defs>
        <path id="DejaVuSans-31" d="M 794 531 
L 1825 531 
L 1825 4091 
L 703 3866 
L 703 4441 
L 1819 4666 
L 2450 4666 
L 2450 531 
L 3481 531 
L 3481 0 
L 794 0 
L 794 531 
z
" transform="scale(0.015625)"/>
       </defs>
       <use xlink:href="#DejaVuSans-31"/>
       <use xlink:href="#DejaVuSans-30" x="63.623047"/>
       <use xlink:href="#DejaVuSans-30" x="127.246094"/>
       <use xlink:href="#DejaVuSans-30" x="190.869141"/>
      </g>
     </g>
    </g>
    <g id="xtick_7">
     <g id="line2d_7">
      <g>
       <use xlink:href="#me61a466552" x="1061.341558" y="961.2" style="stroke: #000000; stroke-width: 0.8"/>
      </g>
     </g>
     <g id="text_7">
      <!-- 1100 -->
      <g transform="translate(1048.616558 975.798437) scale(0.1 -0.1)">
       <use xlink:href="#DejaVuSans-31"/>
       <use xlink:href="#DejaVuSans-31" x="63.623047"/>
       <use xlink:href="#DejaVuSans-30" x="127.246094"/>
       <use xlink:href="#DejaVuSans-30" x="190.869141"/>
      </g>
     </g>
    </g>
    <g id="xtick_8">
     <g id="line2d_8">
      <g>
       <use xlink:href="#me61a466552" x="1182.823479" y="961.2" style="stroke: #000000; stroke-width: 0.8"/>
      </g>
     </g>
     <g id="text_8">
      <!-- 1200 -->
      <g transform="translate(1170.098479 975.798437) scale(0.1 -0.1)">
       <defs>
        <path id="DejaVuSans-32" d="M 1228 531 
L 3431 531 
L 3431 0 
L 469 0 
L 469 531 
Q 828 903 1448 1529 
Q 2069 2156 2228 2338 
Q 2531 2678 2651 2914 
Q 2772 3150 2772 3378 
Q 2772 3750 2511 3984 
Q 2250 4219 1831 4219 
Q 1534 4219 1204 4116 
Q 875 4013 500 3803 
L 500 4441 
Q 881 4594 1212 4672 
Q 1544 4750 1819 4750 
Q 2544 4750 2975 4387 
Q 3406 4025 3406 3419 
Q 3406 3131 3298 2873 
Q 3191 2616 2906 2266 
Q 2828 2175 2409 1742 
Q 1991 1309 1228 531 
z
" transform="scale(0.015625)"/>
       </defs>
       <use xlink:href="#DejaVuSans-31"/>
       <use xlink:href="#DejaVuSans-32" x="63.623047"/>
       <use xlink:href="#DejaVuSans-30" x="127.246094"/>
       <use xlink:href="#DejaVuSans-30" x="190.869141"/>
      </g>
     </g>
    </g>
   </g>
   <g id="matplotlib.axis_2">
    <g id="ytick_1">
     <g id="line2d_9">
      <defs>
       <path id="m961d486491" d="M 0 0 
L -3.5 0 
" style="stroke: #000000; stroke-width: 0.8"/>
      </defs>
      <g>
       <use xlink:href="#m961d486491" x="212.440946" y="957.795676" style="stroke: #000000; stroke-width: 0.8"/>
      </g>
     </g>
     <g id="text_9">
      <!-- 300 -->
      <g transform="translate(186.353446 961.594894) scale(0.1 -0.1)">
       <defs>
        <path id="DejaVuSans-33" d="M 2597 2516 
Q 3050 2419 3304 2112 
Q 3559 1806 3559 1356 
Q 3559 666 3084 287 
Q 2609 -91 1734 -91 
Q 1441 -91 1130 -33 
Q 819 25 488 141 
L 488 750 
Q 750 597 1062 519 
Q 1375 441 1716 441 
Q 2309 441 2620 675 
Q 2931 909 2931 1356 
Q 2931 1769 2642 2001 
Q 2353 2234 1838 2234 
L 1294 2234 
L 1294 2753 
L 1863 2753 
Q 2328 2753 2575 2939 
Q 2822 3125 2822 3475 
Q 2822 3834 2567 4026 
Q 2313 4219 1838 4219 
Q 1578 4219 1281 4162 
Q 984 4106 628 3988 
L 628 4550 
Q 988 4650 1302 4700 
Q 1616 4750 1894 4750 
Q 2613 4750 3031 4423 
Q 3450 4097 3450 3541 
Q 3450 3153 3228 2886 
Q 3006 2619 2597 2516 
z
" transform="scale(0.015625)"/>
       </defs>
       <use xlink:href="#DejaVuSans-33"/>
       <use xlink:href="#DejaVuSans-30" x="63.623047"/>
       <use xlink:href="#DejaVuSans-30" x="127.246094"/>
      </g>
     </g>
    </g>
    <g id="ytick_2">
     <g id="line2d_10">
      <g>
       <use xlink:href="#m961d486491" x="212.440946" y="836.313754" style="stroke: #000000; stroke-width: 0.8"/>
      </g>
     </g>
     <g id="text_10">
      <!-- 400 -->
      <g transform="translate(186.353446 840.112973) scale(0.1 -0.1)">
       <defs>
        <path id="DejaVuSans-34" d="M 2419 4116 
L 825 1625 
L 2419 1625 
L 2419 4116 
z
M 2253 4666 
L 3047 4666 
L 3047 1625 
L 3713 1625 
L 3713 1100 
L 3047 1100 
L 3047 0 
L 2419 0 
L 2419 1100 
L 313 1100 
L 313 1709 
L 2253 4666 
z
" transform="scale(0.015625)"/>
       </defs>
       <use xlink:href="#DejaVuSans-34"/>
       <use xlink:href="#DejaVuSans-30" x="63.623047"/>
       <use xlink:href="#DejaVuSans-30" x="127.246094"/>
      </g>
     </g>
    </g>
    <g id="ytick_3">
     <g id="line2d_11">
      <g>
       <use xlink:href="#m961d486491" x="212.440946" y="714.831833" style="stroke: #000000; stroke-width: 0.8"/>
      </g>
     </g>
     <g id="text_11">
      <!-- 500 -->
      <g transform="translate(186.353446 718.631052) scale(0.1 -0.1)">
       <use xlink:href="#DejaVuSans-35"/>
       <use xlink:href="#DejaVuSans-30" x="63.623047"/>
       <use xlink:href="#DejaVuSans-30" x="127.246094"/>
      </g>
     </g>
    </g>
    <g id="ytick_4">
     <g id="line2d_12">
      <g>
       <use xlink:href="#m961d486491" x="212.440946" y="593.349912" style="stroke: #000000; stroke-width: 0.8"/>
      </g>
     </g>
     <g id="text_12">
      <!-- 600 -->
      <g transform="translate(186.353446 597.14913) scale(0.1 -0.1)">
       <use xlink:href="#DejaVuSans-36"/>
       <use xlink:href="#DejaVuSans-30" x="63.623047"/>
       <use xlink:href="#DejaVuSans-30" x="127.246094"/>
      </g>
     </g>
    </g>
    <g id="ytick_5">
     <g id="line2d_13">
      <g>
       <use xlink:href="#m961d486491" x="212.440946" y="471.86799" style="stroke: #000000; stroke-width: 0.8"/>
      </g>
     </g>
     <g id="text_13">
      <!-- 700 -->
      <g transform="translate(186.353446 475.667209) scale(0.1 -0.1)">
       <use xlink:href="#DejaVuSans-37"/>
       <use xlink:href="#DejaVuSans-30" x="63.623047"/>
       <use xlink:href="#DejaVuSans-30" x="127.246094"/>
      </g>
     </g>
    </g>
    <g id="ytick_6">
     <g id="line2d_14">
      <g>
       <use xlink:href="#m961d486491" x="212.440946" y="350.386069" style="stroke: #000000; stroke-width: 0.8"/>
      </g>
     </g>
     <g id="text_14">
      <!-- 800 -->
      <g transform="translate(186.353446 354.185288) scale(0.1 -0.1)">
       <use xlink:href="#DejaVuSans-38"/>
       <use xlink:href="#DejaVuSans-30" x="63.623047"/>
       <use xlink:href="#DejaVuSans-30" x="127.246094"/>
      </g>
     </g>
    </g>
    <g id="ytick_7">
     <g id="line2d_15">
      <g>
       <use xlink:href="#m961d486491" x="212.440946" y="228.904148" style="stroke: #000000; stroke-width: 0.8"/>
      </g>
     </g>
     <g id="text_15">
      <!-- 900 -->
      <g transform="translate(186.353446 232.703366) scale(0.1 -0.1)">
       <use xlink:href="#DejaVuSans-39"/>
       <use xlink:href="#DejaVuSans-30" x="63.623047"/>
       <use xlink:href="#DejaVuSans-30" x="127.246094"/>
      </g>
     </g>
    </g>
   </g>
   <g id="LineCollection_1">
    <path d="M 1208.177322 837.827865 
L 1185.550173 841.420034 
L 1163.208898 845.526138 
L 1141.267261 849.910897 
L 1078.742263 862.794922 
L 1059.342527 866.446939 
L 1040.818438 869.553514 
L 1023.244542 872.01267 
L 1006.689281 873.743142 
L 991.214276 874.68533 
L 976.872384 874.802615 
L 963.703732 874.082545 
L 951.729034 872.53666 
L 940.940272 870.196904 
L 931.29078 867.106058 
L 922.689838 863.301029 
L 915.008661 858.792259 
L 908.101408 853.548476 
L 901.835479 847.497343 
L 896.116956 840.544451 
L 890.899179 832.600986 
L 886.173911 823.605981 
L 881.954066 813.535515 
L 878.257538 802.400396 
L 875.096748 790.238063 
L 872.473942 777.103714 
L 870.380332 763.063095 
L 868.797197 748.187519 
L 867.697666 732.550751 
L 867.048543 716.227208 
L 866.811891 699.290962 
L 866.946328 681.815224 
L 867.408036 663.872072 
L 868.151554 645.532302 
L 869.130382 626.865336 
L 870.297458 607.939136 
L 873.007445 569.573059 
L 877.314463 511.632881 
L 878.63092 492.457839 
L 879.813188 473.448516 
L 880.817989 454.656491 
L 881.602885 436.130597 
L 882.126219 417.916716 
L 882.346981 400.057578 
L 882.224608 382.592571 
L 881.71868 365.557585 
L 880.788515 348.984934 
L 879.39262 332.903412 
L 877.488021 317.338578 
L 875.029492 302.313422 
L 871.968794 287.849604 
L 868.254168 273.969492 
L 863.830524 260.699178 
L 858.641028 248.072463 
L 852.630923 236.135231 
L 845.75422 224.948864 
L 839.484104 216.433185 
L 837.982881 214.590403 
L 831.077997 206.914129 
L 829.316225 205.147129 
L 821.767866 198.31673 
L 819.786497 196.704881 
L 811.588295 190.723271 
L 809.45655 189.332907 
L 800.604534 184.199334 
L 798.408816 183.070949 
L 788.901475 178.780882 
L 786.729447 177.923877 
L 774.493984 173.865188 
L 761.759244 170.846235 
L 748.562198 168.806507 
L 734.923654 167.681596 
L 720.853841 167.407771 
L 706.357817 167.923645 
L 691.439739 169.17001 
L 676.105818 171.088727 
L 660.366215 173.621329 
L 644.236156 176.707636 
L 627.736584 180.284536 
L 610.894538 184.284949 
L 593.743429 188.636978 
L 576.323285 193.263201 
L 504.88057 212.770367 
L 486.912527 217.391043 
L 469.071904 221.679072 
L 451.45906 225.507912 
L 434.187973 228.745098 
L 417.388273 231.254386 
L 401.207055 232.899636 
L 385.809246 233.551317 
L 371.373634 233.096344 
L 358.07884 231.450137 
L 346.071012 228.563897 
L 335.409874 224.40821 
L 326.015845 218.905948 
L 317.683324 211.817428 
L 310.211413 202.663116 
L 302.636204 189.109598 
L 302.636204 189.109598 
" clip-path="url(#p9d6507e177)" style="fill: none; stroke: #1f77b4; stroke-width: 1.5"/>
    <path d="M 1211.97914 861.824958 
L 1189.938947 865.316748 
L 1167.969317 869.351601 
L 1146.211183 873.69896 
L 1124.790323 878.150901 
L 1103.81822 882.520891 
L 1083.392879 886.642588 
L 1063.59963 890.368684 
L 1044.511888 893.569787 
L 1026.191894 896.133346 
L 1008.691424 897.962618 
L 992.052468 898.975672 
L 976.30789 899.104428 
L 961.482056 898.293742 
L 947.591436 896.50052 
L 934.645182 893.692869 
L 922.645686 889.849289 
L 911.589107 884.957894 
L 901.465879 879.015665 
L 892.261193 872.027739 
L 883.955463 864.006731 
L 876.524765 854.972082 
L 869.941253 844.949444 
L 864.173562 833.970083 
L 859.187185 822.070325 
L 854.944836 809.291019 
L 851.406784 795.67703 
L 848.531185 781.276759 
L 846.27438 766.141686 
L 844.591187 750.325938 
L 843.435172 733.885886 
L 842.758905 716.879752 
L 842.514201 699.367252 
L 842.652348 681.40925 
L 843.124314 663.067438 
L 843.880953 644.40403 
L 844.873183 625.481481 
L 846.052164 606.362218 
L 847.369458 587.108392 
L 848.777178 567.781643 
L 850.228131 548.442881 
L 851.675943 529.152085 
L 853.07518 509.968107 
L 854.381463 490.948499 
L 855.551563 472.149347 
L 856.543505 453.625111 
L 857.316647 435.428488 
L 857.831767 417.61027 
L 858.051135 400.219222 
L 857.938582 383.30196 
L 857.459567 366.902843 
L 856.581236 351.063865 
L 855.272478 335.824552 
L 853.503978 321.221873 
L 851.248269 307.290139 
L 848.47978 294.060923 
L 845.174881 281.562964 
L 841.311935 269.822086 
L 836.871339 258.86111 
L 831.835569 248.699767 
L 826.189234 239.354613 
L 819.919119 230.838935 
L 813.014235 223.162661 
L 805.465876 216.332262 
L 797.267674 210.350652 
L 788.415658 205.217078 
L 778.908317 200.927012 
L 768.746672 197.472024 
L 757.934352 194.839661 
L 746.477669 193.013304 
L 734.385711 191.972025 
L 721.670431 191.690428 
L 708.346756 192.138484 
L 694.432692 193.281346 
L 679.949444 195.079159 
L 664.92155 197.486853 
L 649.377012 200.453918 
L 633.347453 203.924173 
L 616.868273 207.835507 
L 599.978825 212.119613 
L 582.722596 216.701697 
L 565.14741 221.500174 
L 547.305635 226.42634 
L 529.25441 231.384023 
L 511.055886 236.269222 
L 492.777481 240.969711 
L 474.492151 245.364627 
L 456.278677 249.324036 
L 438.221971 252.708474 
L 420.413397 255.368453 
L 402.951112 257.143957 
L 385.940422 257.8639 
L 369.494167 257.345557 
L 353.733111 255.393969 
L 338.786366 251.801321 
L 324.791828 246.346283 
L 311.896641 238.793324 
L 300.257678 228.891997 
L 290.042047 216.376182 
L 281.427623 200.963306 
" clip-path="url(#p9d6507e177)" style="fill: none; stroke: #8c564b; stroke-width: 1.5"/>
    <path d="M 1215.780959 885.822051 
L 1194.034858 889.267248 
L 1172.544191 893.214137 
L 1151.063425 897.506077 
L 1088.198853 910.458904 
L 1087.887742 910.519575 
L 1067.618128 914.330445 
L 1047.878932 917.631734 
L 1028.717762 920.298078 
L 1010.167962 922.214095 
L 992.251153 923.271244 
L 974.981331 923.364571 
L 958.371306 922.390164 
L 942.441989 920.24494 
L 929.495736 917.437289 
L 927.233691 916.831237 
L 915.234195 912.987658 
L 912.815997 912.068459 
L 901.759418 907.177064 
L 899.289749 905.911177 
L 889.16652 899.968948 
L 886.77472 898.367258 
L 877.570034 891.379332 
L 875.383225 889.504823 
L 867.077495 881.483815 
L 865.190569 879.440234 
L 857.75987 870.405586 
L 856.217546 868.311166 
L 849.634034 858.288528 
L 848.432129 856.248642 
L 841.764991 843.359985 
L 836.128199 829.725223 
L 831.429581 815.402246 
L 827.580803 800.434855 
L 824.500483 784.86 
L 822.114432 768.712912 
L 820.354648 752.030179 
L 819.157975 734.851295 
L 818.464892 717.219214 
L 818.218536 699.180351 
L 818.364003 680.784269 
L 818.847872 662.08324 
L 819.617902 643.131764 
L 820.622861 623.986095 
L 821.812446 604.703803 
L 824.548892 565.963838 
L 828.839424 508.251997 
L 830.136844 489.361426 
L 831.295567 470.745066 
L 832.274712 452.459801 
L 833.035171 434.561704 
L 833.539812 417.105959 
L 833.753731 400.146814 
L 833.644558 383.737532 
L 833.182833 367.930344 
L 832.342488 352.776352 
L 831.101429 338.325347 
L 829.442264 324.625451 
L 827.353121 311.722467 
L 824.828538 299.658757 
L 821.870219 288.47144 
L 818.487348 278.189679 
L 814.695874 268.830971 
L 810.516001 260.396684 
L 805.967067 252.86782 
L 801.059622 246.202835 
L 795.785931 240.339986 
L 790.11215 235.205864 
L 783.976465 230.729117 
L 777.29594 226.854863 
L 769.980558 223.55389 
L 761.949021 220.823145 
L 753.140444 218.678612 
L 743.519107 217.144835 
L 733.073141 216.245298 
L 721.809863 215.995858 
L 709.75034 216.401402 
L 696.924712 217.454863 
L 683.368803 219.137565 
L 669.121958 221.420123 
L 654.22584 224.263421 
L 638.723844 227.619463 
L 622.660917 231.431999 
L 606.083579 235.636937 
L 589.040027 240.162549 
L 517.107078 259.799997 
L 498.455463 264.593318 
L 479.653372 269.10649 
L 460.754695 273.204563 
L 441.811186 276.738285 
L 422.871098 279.540213 
L 403.978487 281.418611 
L 385.175043 282.148226 
L 366.508507 281.457797 
L 350.747451 279.506209 
L 348.054879 279.017516 
L 333.108134 275.424868 
L 329.962365 274.438708 
L 314.20697 268.215784 
L 312.512283 267.311184 
L 297.831483 258.604574 
L 296.15355 257.299253 
L 282.903611 245.896428 
L 281.435209 244.255231 
L 269.949749 230.03685 
L 268.833466 228.229889 
L 260.219041 212.817013 
L 260.219041 212.817013 
" clip-path="url(#p9d6507e177)" style="fill: none; stroke: #17becf; stroke-width: 1.5"/>
   </g>
   <g id="patch_3">
    <path d="M 212.440946 961.2 
L 212.440946 129.6 
" style="fill: none; stroke: #000000; stroke-width: 0.8; stroke-linejoin: miter; stroke-linecap: square"/>
   </g>
   <g id="patch_4">
    <path d="M 1263.559054 961.2 
L 1263.559054 129.6 
" style="fill: none; stroke: #000000; stroke-width: 0.8; stroke-linejoin: miter; stroke-linecap: square"/>
   </g>
   <g id="patch_5">
    <path d="M 212.440946 961.2 
L 1263.559054 961.2 
" style="fill: none; stroke: #000000; stroke-width: 0.8; stroke-linejoin: miter; stroke-linecap: square"/>
   </g>
   <g id="patch_6">
    <path d="M 212.440946 129.6 
L 1263.559054 129.6 
" style="fill: none; stroke: #000000; stroke-width: 0.8; stroke-linejoin: miter; stroke-linecap: square"/>
   </g>
  </g>
 </g>
 <defs>
  <clipPath id="p9d6507e177">
   <rect x="212.440946" y="129.6" width="1051.118109" height="831.6"/>
  </clipPath>
 </defs>
</svg>
