<?xml version="1.0" encoding="utf-8" standalone="no"?>
<!DOCTYPE svg PUBLIC "-//W3C//DTD SVG 1.1//EN"
  "http://www.w3.org/Graphics/SVG/1.1/DTD/svg11.dtd">
<svg xmlns:xlink="http://www.w3.org/1999/xlink" width="1440pt" height="1080pt" viewBox="0 0 1440 1080" xmlns="http://www.w3.org/2000/svg" version="1.1">
 <metadata>
  <rdf:RDF xmlns:dc="http://purl.org/dc/elements/1.1/" xmlns:cc="http://creativecommons.org/ns#" xmlns:rdf="http://www.w3.org/1999/02/22-rdf-syntax-ns#">
   <cc:Work>
    <dc:type rdf:resource="http://purl.org/dc/dcmitype/StillImage"/>
    <dc:date>2023-12-11T12:06:41.409103</dc:date>
    <dc:format>image/svg+xml</dc:format>
    <dc:creator>
     <cc:Agent>
      <dc:title>Matplotlib v3.7.1, https://matplotlib.org/</dc:title>
     </cc:Agent>
    </dc:creator>
   </cc:Work>
  </rdf:RDF>
 </metadata>
 <defs>
  <style type="text/css">*{stroke-linejoin: round; stroke-linecap: butt}</style>
 </defs>
 <g id="figure_1">
  <g id="patch_1">
   <path d="M 0 1080 
L 1440 1080 
L 1440 0 
L 0 0 
z
" style="fill: #ffffff"/>
  </g>
  <g id="axes_1">
   <g id="patch_2">
    <path d="M 228.029693 961.2 
L 1247.970307 961.2 
L 1247.970307 129.6 
L 228.029693 129.6 
z
" style="fill: #ffffff"/>
   </g>
   <g id="matplotlib.axis_1">
    <g id="xtick_1">
     <g id="line2d_1">
      <defs>
       <path id="md79bf8aa94" d="M 0 0 
L 0 3.5 
" style="stroke: #000000; stroke-width: 0.8"/>
      </defs>
      <g>
       <use xlink:href="#md79bf8aa94" x="404.669163" y="961.2" style="stroke: #000000; stroke-width: 0.8"/>
      </g>
     </g>
     <g id="text_1">
      <!-- 200 -->
      <g transform="translate(395.125413 975.798437) scale(0.1 -0.1)">
       <defs>
        <path id="DejaVuSans-32" d="M 1228 531 
L 3431 531 
L 3431 0 
L 469 0 
L 469 531 
Q 828 903 1448 1529 
Q 2069 2156 2228 2338 
Q 2531 2678 2651 2914 
Q 2772 3150 2772 3378 
Q 2772 3750 2511 3984 
Q 2250 4219 1831 4219 
Q 1534 4219 1204 4116 
Q 875 4013 500 3803 
L 500 4441 
Q 881 4594 1212 4672 
Q 1544 4750 1819 4750 
Q 2544 4750 2975 4387 
Q 3406 4025 3406 3419 
Q 3406 3131 3298 2873 
Q 3191 2616 2906 2266 
Q 2828 2175 2409 1742 
Q 1991 1309 1228 531 
z
" transform="scale(0.015625)"/>
        <path id="DejaVuSans-30" d="M 2034 4250 
Q 1547 4250 1301 3770 
Q 1056 3291 1056 2328 
Q 1056 1369 1301 889 
Q 1547 409 2034 409 
Q 2525 409 2770 889 
Q 3016 1369 3016 2328 
Q 3016 3291 2770 3770 
Q 2525 4250 2034 4250 
z
M 2034 4750 
Q 2819 4750 3233 4129 
Q 3647 3509 3647 2328 
Q 3647 1150 3233 529 
Q 2819 -91 2034 -91 
Q 1250 -91 836 529 
Q 422 1150 422 2328 
Q 422 3509 836 4129 
Q 1250 4750 2034 4750 
z
" transform="scale(0.015625)"/>
       </defs>
       <use xlink:href="#DejaVuSans-32"/>
       <use xlink:href="#DejaVuSans-30" x="63.623047"/>
       <use xlink:href="#DejaVuSans-30" x="127.246094"/>
      </g>
     </g>
    </g>
    <g id="xtick_2">
     <g id="line2d_2">
      <g>
       <use xlink:href="#md79bf8aa94" x="624.453095" y="961.2" style="stroke: #000000; stroke-width: 0.8"/>
      </g>
     </g>
     <g id="text_2">
      <!-- 400 -->
      <g transform="translate(614.909345 975.798437) scale(0.1 -0.1)">
       <defs>
        <path id="DejaVuSans-34" d="M 2419 4116 
L 825 1625 
L 2419 1625 
L 2419 4116 
z
M 2253 4666 
L 3047 4666 
L 3047 1625 
L 3713 1625 
L 3713 1100 
L 3047 1100 
L 3047 0 
L 2419 0 
L 2419 1100 
L 313 1100 
L 313 1709 
L 2253 4666 
z
" transform="scale(0.015625)"/>
       </defs>
       <use xlink:href="#DejaVuSans-34"/>
       <use xlink:href="#DejaVuSans-30" x="63.623047"/>
       <use xlink:href="#DejaVuSans-30" x="127.246094"/>
      </g>
     </g>
    </g>
    <g id="xtick_3">
     <g id="line2d_3">
      <g>
       <use xlink:href="#md79bf8aa94" x="844.237028" y="961.2" style="stroke: #000000; stroke-width: 0.8"/>
      </g>
     </g>
     <g id="text_3">
      <!-- 600 -->
      <g transform="translate(834.693278 975.798437) scale(0.1 -0.1)">
       <defs>
        <path id="DejaVuSans-36" d="M 2113 2584 
Q 1688 2584 1439 2293 
Q 1191 2003 1191 1497 
Q 1191 994 1439 701 
Q 1688 409 2113 409 
Q 2538 409 2786 701 
Q 3034 994 3034 1497 
Q 3034 2003 2786 2293 
Q 2538 2584 2113 2584 
z
M 3366 4563 
L 3366 3988 
Q 3128 4100 2886 4159 
Q 2644 4219 2406 4219 
Q 1781 4219 1451 3797 
Q 1122 3375 1075 2522 
Q 1259 2794 1537 2939 
Q 1816 3084 2150 3084 
Q 2853 3084 3261 2657 
Q 3669 2231 3669 1497 
Q 3669 778 3244 343 
Q 2819 -91 2113 -91 
Q 1303 -91 875 529 
Q 447 1150 447 2328 
Q 447 3434 972 4092 
Q 1497 4750 2381 4750 
Q 2619 4750 2861 4703 
Q 3103 4656 3366 4563 
z
" transform="scale(0.015625)"/>
       </defs>
       <use xlink:href="#DejaVuSans-36"/>
       <use xlink:href="#DejaVuSans-30" x="63.623047"/>
       <use xlink:href="#DejaVuSans-30" x="127.246094"/>
      </g>
     </g>
    </g>
    <g id="xtick_4">
     <g id="line2d_4">
      <g>
       <use xlink:href="#md79bf8aa94" x="1064.02096" y="961.2" style="stroke: #000000; stroke-width: 0.8"/>
      </g>
     </g>
     <g id="text_4">
      <!-- 800 -->
      <g transform="translate(1054.47721 975.798437) scale(0.1 -0.1)">
       <defs>
        <path id="DejaVuSans-38" d="M 2034 2216 
Q 1584 2216 1326 1975 
Q 1069 1734 1069 1313 
Q 1069 891 1326 650 
Q 1584 409 2034 409 
Q 2484 409 2743 651 
Q 3003 894 3003 1313 
Q 3003 1734 2745 1975 
Q 2488 2216 2034 2216 
z
M 1403 2484 
Q 997 2584 770 2862 
Q 544 3141 544 3541 
Q 544 4100 942 4425 
Q 1341 4750 2034 4750 
Q 2731 4750 3128 4425 
Q 3525 4100 3525 3541 
Q 3525 3141 3298 2862 
Q 3072 2584 2669 2484 
Q 3125 2378 3379 2068 
Q 3634 1759 3634 1313 
Q 3634 634 3220 271 
Q 2806 -91 2034 -91 
Q 1263 -91 848 271 
Q 434 634 434 1313 
Q 434 1759 690 2068 
Q 947 2378 1403 2484 
z
M 1172 3481 
Q 1172 3119 1398 2916 
Q 1625 2713 2034 2713 
Q 2441 2713 2670 2916 
Q 2900 3119 2900 3481 
Q 2900 3844 2670 4047 
Q 2441 4250 2034 4250 
Q 1625 4250 1398 4047 
Q 1172 3844 1172 3481 
z
" transform="scale(0.015625)"/>
       </defs>
       <use xlink:href="#DejaVuSans-38"/>
       <use xlink:href="#DejaVuSans-30" x="63.623047"/>
       <use xlink:href="#DejaVuSans-30" x="127.246094"/>
      </g>
     </g>
    </g>
   </g>
   <g id="matplotlib.axis_2">
    <g id="ytick_1">
     <g id="line2d_5">
      <defs>
       <path id="m6d408e0433" d="M 0 0 
L -3.5 0 
" style="stroke: #000000; stroke-width: 0.8"/>
      </defs>
      <g>
       <use xlink:href="#m6d408e0433" x="228.029693" y="879.721314" style="stroke: #000000; stroke-width: 0.8"/>
      </g>
     </g>
     <g id="text_5">
      <!-- 600 -->
      <g transform="translate(201.942193 883.520533) scale(0.1 -0.1)">
       <use xlink:href="#DejaVuSans-36"/>
       <use xlink:href="#DejaVuSans-30" x="63.623047"/>
       <use xlink:href="#DejaVuSans-30" x="127.246094"/>
      </g>
     </g>
    </g>
    <g id="ytick_2">
     <g id="line2d_6">
      <g>
       <use xlink:href="#m6d408e0433" x="228.029693" y="769.829348" style="stroke: #000000; stroke-width: 0.8"/>
      </g>
     </g>
     <g id="text_6">
      <!-- 700 -->
      <g transform="translate(201.942193 773.628567) scale(0.1 -0.1)">
       <defs>
        <path id="DejaVuSans-37" d="M 525 4666 
L 3525 4666 
L 3525 4397 
L 1831 0 
L 1172 0 
L 2766 4134 
L 525 4134 
L 525 4666 
z
" transform="scale(0.015625)"/>
       </defs>
       <use xlink:href="#DejaVuSans-37"/>
       <use xlink:href="#DejaVuSans-30" x="63.623047"/>
       <use xlink:href="#DejaVuSans-30" x="127.246094"/>
      </g>
     </g>
    </g>
    <g id="ytick_3">
     <g id="line2d_7">
      <g>
       <use xlink:href="#m6d408e0433" x="228.029693" y="659.937382" style="stroke: #000000; stroke-width: 0.8"/>
      </g>
     </g>
     <g id="text_7">
      <!-- 800 -->
      <g transform="translate(201.942193 663.736601) scale(0.1 -0.1)">
       <use xlink:href="#DejaVuSans-38"/>
       <use xlink:href="#DejaVuSans-30" x="63.623047"/>
       <use xlink:href="#DejaVuSans-30" x="127.246094"/>
      </g>
     </g>
    </g>
    <g id="ytick_4">
     <g id="line2d_8">
      <g>
       <use xlink:href="#m6d408e0433" x="228.029693" y="550.045416" style="stroke: #000000; stroke-width: 0.8"/>
      </g>
     </g>
     <g id="text_8">
      <!-- 900 -->
      <g transform="translate(201.942193 553.844635) scale(0.1 -0.1)">
       <defs>
        <path id="DejaVuSans-39" d="M 703 97 
L 703 672 
Q 941 559 1184 500 
Q 1428 441 1663 441 
Q 2288 441 2617 861 
Q 2947 1281 2994 2138 
Q 2813 1869 2534 1725 
Q 2256 1581 1919 1581 
Q 1219 1581 811 2004 
Q 403 2428 403 3163 
Q 403 3881 828 4315 
Q 1253 4750 1959 4750 
Q 2769 4750 3195 4129 
Q 3622 3509 3622 2328 
Q 3622 1225 3098 567 
Q 2575 -91 1691 -91 
Q 1453 -91 1209 -44 
Q 966 3 703 97 
z
M 1959 2075 
Q 2384 2075 2632 2365 
Q 2881 2656 2881 3163 
Q 2881 3666 2632 3958 
Q 2384 4250 1959 4250 
Q 1534 4250 1286 3958 
Q 1038 3666 1038 3163 
Q 1038 2656 1286 2365 
Q 1534 2075 1959 2075 
z
" transform="scale(0.015625)"/>
       </defs>
       <use xlink:href="#DejaVuSans-39"/>
       <use xlink:href="#DejaVuSans-30" x="63.623047"/>
       <use xlink:href="#DejaVuSans-30" x="127.246094"/>
      </g>
     </g>
    </g>
    <g id="ytick_5">
     <g id="line2d_9">
      <g>
       <use xlink:href="#m6d408e0433" x="228.029693" y="440.15345" style="stroke: #000000; stroke-width: 0.8"/>
      </g>
     </g>
     <g id="text_9">
      <!-- 1000 -->
      <g transform="translate(195.579693 443.952669) scale(0.1 -0.1)">
       <defs>
        <path id="DejaVuSans-31" d="M 794 531 
L 1825 531 
L 1825 4091 
L 703 3866 
L 703 4441 
L 1819 4666 
L 2450 4666 
L 2450 531 
L 3481 531 
L 3481 0 
L 794 0 
L 794 531 
z
" transform="scale(0.015625)"/>
       </defs>
       <use xlink:href="#DejaVuSans-31"/>
       <use xlink:href="#DejaVuSans-30" x="63.623047"/>
       <use xlink:href="#DejaVuSans-30" x="127.246094"/>
       <use xlink:href="#DejaVuSans-30" x="190.869141"/>
      </g>
     </g>
    </g>
    <g id="ytick_6">
     <g id="line2d_10">
      <g>
       <use xlink:href="#m6d408e0433" x="228.029693" y="330.261484" style="stroke: #000000; stroke-width: 0.8"/>
      </g>
     </g>
     <g id="text_10">
      <!-- 1100 -->
      <g transform="translate(195.579693 334.060702) scale(0.1 -0.1)">
       <use xlink:href="#DejaVuSans-31"/>
       <use xlink:href="#DejaVuSans-31" x="63.623047"/>
       <use xlink:href="#DejaVuSans-30" x="127.246094"/>
       <use xlink:href="#DejaVuSans-30" x="190.869141"/>
      </g>
     </g>
    </g>
    <g id="ytick_7">
     <g id="line2d_11">
      <g>
       <use xlink:href="#m6d408e0433" x="228.029693" y="220.369518" style="stroke: #000000; stroke-width: 0.8"/>
      </g>
     </g>
     <g id="text_11">
      <!-- 1200 -->
      <g transform="translate(195.579693 224.168736) scale(0.1 -0.1)">
       <use xlink:href="#DejaVuSans-31"/>
       <use xlink:href="#DejaVuSans-32" x="63.623047"/>
       <use xlink:href="#DejaVuSans-30" x="127.246094"/>
       <use xlink:href="#DejaVuSans-30" x="190.869141"/>
      </g>
     </g>
    </g>
   </g>
   <g id="LineCollection_1">
    <path d="M 1151.373285 923.4 
L 1161.227611 887.913356 
L 1169.866489 854.357082 
L 1177.350427 822.630421 
L 1183.735411 792.638411 
L 1189.073234 764.291405 
L 1193.411803 737.504636 
L 1196.795394 712.197841 
L 1199.264889 688.294942 
L 1200.857982 665.723809 
L 1201.60937 644.416096 
L 1201.550964 624.307188 
L 1200.712114 605.33623 
L 1199.119923 587.446268 
L 1196.799655 570.584452 
L 1193.775305 554.702269 
L 1190.070333 539.755719 
L 1185.708557 525.705327 
L 1180.715147 512.515873 
L 1175.117565 500.155752 
L 1168.9463 488.595942 
L 1162.23519 477.80866 
L 1155.021234 467.765907 
L 1147.343871 458.438149 
L 1139.243877 449.793385 
L 1130.762105 441.796723 
L 1121.938302 434.410482 
L 1112.810201 427.59471 
L 1103.41297 421.307932 
L 1093.779005 415.507964 
L 1083.937995 410.152667 
L 1073.917156 405.200562 
L 1063.741547 400.61128 
L 1053.434397 396.345881 
L 1043.01739 392.367036 
L 1032.510903 388.639137 
L 1021.934168 385.128341 
L 1011.305382 381.802589 
L 1000.641758 378.631599 
L 979.273959 372.641611 
L 947.331888 364.161229 
L 915.763696 355.771766 
L 895.059834 350.013602 
L 874.668696 344.009151 
L 854.593522 337.692579 
L 834.809364 331.026155 
L 815.263337 323.999886 
L 795.875953 316.631173 
L 776.543429 308.964454 
L 707.300761 281.001349 
L 696.956056 277.064349 
L 686.440325 273.195865 
L 675.734674 269.414774 
L 664.821079 265.739572 
L 653.682644 262.187928 
L 642.303866 258.776202 
L 630.670883 255.518935 
L 618.77174 252.428325 
L 606.596645 249.513696 
L 594.138262 246.780962 
L 581.392027 244.232105 
L 568.356522 241.86465 
L 555.033907 239.671141 
L 541.430422 237.638623 
L 527.556977 235.748108 
L 513.429823 233.974039 
L 484.51077 230.636897 
L 454.879751 227.263265 
L 439.931374 225.414191 
L 424.98172 223.358317 
L 410.109526 221.00943 
L 395.40684 218.271933 
L 380.979723 215.041601 
L 366.948057 211.206863 
L 353.443561 206.65043 
L 340.604662 201.250315 
L 328.56695 194.877796 
L 317.449855 187.387849 
L 307.345664 178.597256 
L 297.58105 167.4 
L 297.58105 167.4 
" clip-path="url(#pb7c3097f59)" style="fill: none; stroke: #1f77b4; stroke-width: 1.5"/>
    <path d="M 1136.549657 919.282422 
L 1146.328903 884.076313 
L 1154.892971 850.823225 
L 1162.303216 819.42483 
L 1168.616742 789.788805 
L 1173.886803 761.82834 
L 1178.163174 735.46167 
L 1181.492506 710.611647 
L 1183.918648 687.205326 
L 1185.482948 665.173597 
L 1186.224534 644.450825 
L 1186.180569 624.974535 
L 1185.386484 606.685102 
L 1183.876195 589.525488 
L 1181.682293 573.440983 
L 1178.836222 558.378978 
L 1175.368431 544.288762 
L 1171.308513 531.121333 
L 1166.685329 518.829238 
L 1161.527104 507.366422 
L 1155.861525 496.688102 
L 1149.715805 486.750662 
L 1143.11675 477.511555 
L 1136.090799 468.92923 
L 1128.664059 460.963069 
L 1120.862325 453.57334 
L 1112.711088 446.721165 
L 1104.235537 440.368493 
L 1095.460544 434.4781 
L 1086.410647 429.013581 
L 1077.110015 423.939366 
L 1067.582419 419.220743 
L 1057.851185 414.823881 
L 1047.939141 410.715869 
L 1037.868566 406.86476 
L 1027.66113 403.239619 
L 1017.337825 399.810576 
L 1006.918902 396.548883 
L 996.423801 393.426977 
L 985.871074 390.418541 
L 975.278318 387.49857 
L 964.662096 384.643436 
L 954.037867 381.830952 
L 943.419914 379.040438 
L 932.821271 376.252782 
L 922.253656 373.450499 
L 911.72741 370.617788 
L 901.251428 367.740582 
L 890.833112 364.806594 
L 880.478314 361.80536 
L 870.191294 358.728266 
L 859.974682 355.568578 
L 849.829448 352.321457 
L 839.754881 348.983962 
L 829.748576 345.555052 
L 819.806428 342.035567 
L 809.922646 338.428203 
L 800.089768 334.73747 
L 790.298691 330.969639 
L 780.538717 327.132673 
L 770.79761 323.236144 
L 761.061666 319.291131 
L 751.3158 315.310101 
L 741.54365 311.306777 
L 731.727688 307.295979 
L 721.849366 303.293455 
L 711.889259 299.315676 
L 701.827244 295.379631 
L 691.642686 291.502579 
L 681.314653 287.70179 
L 670.822146 283.994261 
L 660.144349 280.396399 
L 649.260911 276.923689 
L 638.152239 273.59033 
L 626.799822 270.40884 
L 615.186579 267.389642 
L 603.297225 264.540612 
L 591.118675 261.8666 
L 578.640465 259.368924 
L 565.855202 257.044827 
L 552.759046 254.886903 
L 539.352214 252.882489 
L 525.639523 251.013028 
L 511.630954 249.253386 
L 497.342252 247.571148 
L 482.795555 245.925861 
L 468.020058 244.26825 
L 453.052712 242.539395 
L 437.938947 240.669864 
L 422.733441 238.578805 
L 407.500922 236.173009 
L 392.316997 233.34591 
L 377.269032 229.976566 
L 362.457056 225.928576 
L 347.994714 221.048964 
L 334.010252 215.167018 
L 320.647544 208.093075 
L 308.067163 199.617264 
L 296.447484 189.508205 
L 285.98584 177.511651 
" clip-path="url(#pb7c3097f59)" style="fill: none; stroke: #8c564b; stroke-width: 1.5"/>
    <path d="M 1121.72603 915.164844 
L 1131.466412 880.098648 
L 1139.955319 847.137396 
L 1147.291056 816.054703 
L 1153.531702 786.760786 
L 1158.731788 759.171572 
L 1162.942745 733.208226 
L 1166.213334 708.796661 
L 1168.590061 685.86707 
L 1170.117575 664.35343 
L 1170.839038 644.192991 
L 1170.796447 625.325721 
L 1170.030906 607.693709 
L 1168.582792 591.240514 
L 1166.491799 575.910477 
L 1163.79681 561.64803 
L 1160.535569 548.397063 
L 1156.744146 536.100437 
L 1152.456235 524.699767 
L 1147.702389 514.135576 
L 1142.509342 504.347872 
L 1136.899622 495.277125 
L 1130.891595 486.865496 
L 1124.500024 479.058079 
L 1117.737069 471.803914 
L 1110.613532 465.056568 
L 1103.140135 458.774205 
L 1095.328575 452.919214 
L 1087.192247 447.457537 
L 1078.746582 442.357867 
L 1070.009063 437.590874 
L 1060.99899 433.128558 
L 1051.737121 428.943769 
L 1042.245243 425.009894 
L 1032.54576 421.300695 
L 1022.661303 417.790259 
L 1012.614413 414.453031 
L 1002.427263 411.263896 
L 992.121443 408.198294 
L 971.236227 402.343037 
L 939.509395 393.920029 
L 907.652867 385.453302 
L 886.55023 379.583309 
L 865.645646 373.426275 
L 844.99133 366.925805 
L 824.76126 360.109125 
L 814.531631 356.487933 
L 794.564324 349.095877 
L 774.824808 341.417128 
L 755.243852 333.533582 
L 706.233824 313.623486 
L 686.249076 305.91128 
L 676.094913 302.174477 
L 665.802776 298.537748 
L 655.349408 295.015507 
L 644.711337 291.62109 
L 633.865201 288.366509 
L 622.788121 285.262182 
L 611.458126 282.316623 
L 599.854622 279.53609 
L 587.958899 276.924178 
L 575.754665 274.481342 
L 563.228583 272.204358 
L 550.370823 270.085716 
L 537.175589 268.112937 
L 523.641637 266.267843 
L 495.578276 262.854604 
L 451.164039 257.807902 
L 435.842948 255.911293 
L 420.333332 253.775314 
L 404.684806 251.297951 
L 388.95545 248.359051 
L 373.213207 244.817209 
L 357.538594 240.506063 
L 342.029888 235.230475 
L 326.8122 228.764166 
L 312.051238 220.852303 
L 299.470857 212.376492 
L 297.969097 211.224307 
L 286.349418 201.115248 
L 284.852274 199.619856 
L 274.39063 187.623302 
L 274.39063 187.623302 
" clip-path="url(#pb7c3097f59)" style="fill: none; stroke: #17becf; stroke-width: 1.5"/>
   </g>
   <g id="patch_3">
    <path d="M 228.029693 961.2 
L 228.029693 129.6 
" style="fill: none; stroke: #000000; stroke-width: 0.8; stroke-linejoin: miter; stroke-linecap: square"/>
   </g>
   <g id="patch_4">
    <path d="M 1247.970307 961.2 
L 1247.970307 129.6 
" style="fill: none; stroke: #000000; stroke-width: 0.8; stroke-linejoin: miter; stroke-linecap: square"/>
   </g>
   <g id="patch_5">
    <path d="M 228.029693 961.2 
L 1247.970307 961.2 
" style="fill: none; stroke: #000000; stroke-width: 0.8; stroke-linejoin: miter; stroke-linecap: square"/>
   </g>
   <g id="patch_6">
    <path d="M 228.029693 129.6 
L 1247.970307 129.6 
" style="fill: none; stroke: #000000; stroke-width: 0.8; stroke-linejoin: miter; stroke-linecap: square"/>
   </g>
  </g>
 </g>
 <defs>
  <clipPath id="pb7c3097f59">
   <rect x="228.029693" y="129.6" width="1019.940615" height="831.6"/>
  </clipPath>
 </defs>
</svg>
