<?xml version="1.0" encoding="utf-8" standalone="no"?>
<!DOCTYPE svg PUBLIC "-//W3C//DTD SVG 1.1//EN"
  "http://www.w3.org/Graphics/SVG/1.1/DTD/svg11.dtd">
<svg xmlns:xlink="http://www.w3.org/1999/xlink" width="1440pt" height="1080pt" viewBox="0 0 1440 1080" xmlns="http://www.w3.org/2000/svg" version="1.1">
 <metadata>
  <rdf:RDF xmlns:dc="http://purl.org/dc/elements/1.1/" xmlns:cc="http://creativecommons.org/ns#" xmlns:rdf="http://www.w3.org/1999/02/22-rdf-syntax-ns#">
   <cc:Work>
    <dc:type rdf:resource="http://purl.org/dc/dcmitype/StillImage"/>
    <dc:date>2023-12-11T12:06:42.327094</dc:date>
    <dc:format>image/svg+xml</dc:format>
    <dc:creator>
     <cc:Agent>
      <dc:title>Matplotlib v3.7.1, https://matplotlib.org/</dc:title>
     </cc:Agent>
    </dc:creator>
   </cc:Work>
  </rdf:RDF>
 </metadata>
 <defs>
  <style type="text/css">*{stroke-linejoin: round; stroke-linecap: butt}</style>
 </defs>
 <g id="figure_1">
  <g id="patch_1">
   <path d="M 0 1080 
L 1440 1080 
L 1440 0 
L 0 0 
z
" style="fill: #ffffff"/>
  </g>
  <g id="axes_1">
   <g id="patch_2">
    <path d="M 514.78523 961.2 
L 961.21477 961.2 
L 961.21477 129.6 
L 514.78523 129.6 
z
" style="fill: #ffffff"/>
   </g>
   <g id="matplotlib.axis_1">
    <g id="xtick_1">
     <g id="line2d_1">
      <defs>
       <path id="m0052753c01" d="M 0 0 
L 0 3.5 
" style="stroke: #000000; stroke-width: 0.8"/>
      </defs>
      <g>
       <use xlink:href="#m0052753c01" x="589.494733" y="961.2" style="stroke: #000000; stroke-width: 0.8"/>
      </g>
     </g>
     <g id="text_1">
      <!-- 1100 -->
      <g transform="translate(576.769733 975.798437) scale(0.1 -0.1)">
       <defs>
        <path id="DejaVuSans-31" d="M 794 531 
L 1825 531 
L 1825 4091 
L 703 3866 
L 703 4441 
L 1819 4666 
L 2450 4666 
L 2450 531 
L 3481 531 
L 3481 0 
L 794 0 
L 794 531 
z
" transform="scale(0.015625)"/>
        <path id="DejaVuSans-30" d="M 2034 4250 
Q 1547 4250 1301 3770 
Q 1056 3291 1056 2328 
Q 1056 1369 1301 889 
Q 1547 409 2034 409 
Q 2525 409 2770 889 
Q 3016 1369 3016 2328 
Q 3016 3291 2770 3770 
Q 2525 4250 2034 4250 
z
M 2034 4750 
Q 2819 4750 3233 4129 
Q 3647 3509 3647 2328 
Q 3647 1150 3233 529 
Q 2819 -91 2034 -91 
Q 1250 -91 836 529 
Q 422 1150 422 2328 
Q 422 3509 836 4129 
Q 1250 4750 2034 4750 
z
" transform="scale(0.015625)"/>
       </defs>
       <use xlink:href="#DejaVuSans-31"/>
       <use xlink:href="#DejaVuSans-31" x="63.623047"/>
       <use xlink:href="#DejaVuSans-30" x="127.246094"/>
       <use xlink:href="#DejaVuSans-30" x="190.869141"/>
      </g>
     </g>
    </g>
    <g id="xtick_2">
     <g id="line2d_2">
      <g>
       <use xlink:href="#m0052753c01" x="672.11448" y="961.2" style="stroke: #000000; stroke-width: 0.8"/>
      </g>
     </g>
     <g id="text_2">
      <!-- 1200 -->
      <g transform="translate(659.38948 975.798437) scale(0.1 -0.1)">
       <defs>
        <path id="DejaVuSans-32" d="M 1228 531 
L 3431 531 
L 3431 0 
L 469 0 
L 469 531 
Q 828 903 1448 1529 
Q 2069 2156 2228 2338 
Q 2531 2678 2651 2914 
Q 2772 3150 2772 3378 
Q 2772 3750 2511 3984 
Q 2250 4219 1831 4219 
Q 1534 4219 1204 4116 
Q 875 4013 500 3803 
L 500 4441 
Q 881 4594 1212 4672 
Q 1544 4750 1819 4750 
Q 2544 4750 2975 4387 
Q 3406 4025 3406 3419 
Q 3406 3131 3298 2873 
Q 3191 2616 2906 2266 
Q 2828 2175 2409 1742 
Q 1991 1309 1228 531 
z
" transform="scale(0.015625)"/>
       </defs>
       <use xlink:href="#DejaVuSans-31"/>
       <use xlink:href="#DejaVuSans-32" x="63.623047"/>
       <use xlink:href="#DejaVuSans-30" x="127.246094"/>
       <use xlink:href="#DejaVuSans-30" x="190.869141"/>
      </g>
     </g>
    </g>
    <g id="xtick_3">
     <g id="line2d_3">
      <g>
       <use xlink:href="#m0052753c01" x="754.734227" y="961.2" style="stroke: #000000; stroke-width: 0.8"/>
      </g>
     </g>
     <g id="text_3">
      <!-- 1300 -->
      <g transform="translate(742.009227 975.798437) scale(0.1 -0.1)">
       <defs>
        <path id="DejaVuSans-33" d="M 2597 2516 
Q 3050 2419 3304 2112 
Q 3559 1806 3559 1356 
Q 3559 666 3084 287 
Q 2609 -91 1734 -91 
Q 1441 -91 1130 -33 
Q 819 25 488 141 
L 488 750 
Q 750 597 1062 519 
Q 1375 441 1716 441 
Q 2309 441 2620 675 
Q 2931 909 2931 1356 
Q 2931 1769 2642 2001 
Q 2353 2234 1838 2234 
L 1294 2234 
L 1294 2753 
L 1863 2753 
Q 2328 2753 2575 2939 
Q 2822 3125 2822 3475 
Q 2822 3834 2567 4026 
Q 2313 4219 1838 4219 
Q 1578 4219 1281 4162 
Q 984 4106 628 3988 
L 628 4550 
Q 988 4650 1302 4700 
Q 1616 4750 1894 4750 
Q 2613 4750 3031 4423 
Q 3450 4097 3450 3541 
Q 3450 3153 3228 2886 
Q 3006 2619 2597 2516 
z
" transform="scale(0.015625)"/>
       </defs>
       <use xlink:href="#DejaVuSans-31"/>
       <use xlink:href="#DejaVuSans-33" x="63.623047"/>
       <use xlink:href="#DejaVuSans-30" x="127.246094"/>
       <use xlink:href="#DejaVuSans-30" x="190.869141"/>
      </g>
     </g>
    </g>
    <g id="xtick_4">
     <g id="line2d_4">
      <g>
       <use xlink:href="#m0052753c01" x="837.353974" y="961.2" style="stroke: #000000; stroke-width: 0.8"/>
      </g>
     </g>
     <g id="text_4">
      <!-- 1400 -->
      <g transform="translate(824.628974 975.798437) scale(0.1 -0.1)">
       <defs>
        <path id="DejaVuSans-34" d="M 2419 4116 
L 825 1625 
L 2419 1625 
L 2419 4116 
z
M 2253 4666 
L 3047 4666 
L 3047 1625 
L 3713 1625 
L 3713 1100 
L 3047 1100 
L 3047 0 
L 2419 0 
L 2419 1100 
L 313 1100 
L 313 1709 
L 2253 4666 
z
" transform="scale(0.015625)"/>
       </defs>
       <use xlink:href="#DejaVuSans-31"/>
       <use xlink:href="#DejaVuSans-34" x="63.623047"/>
       <use xlink:href="#DejaVuSans-30" x="127.246094"/>
       <use xlink:href="#DejaVuSans-30" x="190.869141"/>
      </g>
     </g>
    </g>
    <g id="xtick_5">
     <g id="line2d_5">
      <g>
       <use xlink:href="#m0052753c01" x="919.973722" y="961.2" style="stroke: #000000; stroke-width: 0.8"/>
      </g>
     </g>
     <g id="text_5">
      <!-- 1500 -->
      <g transform="translate(907.248722 975.798437) scale(0.1 -0.1)">
       <defs>
        <path id="DejaVuSans-35" d="M 691 4666 
L 3169 4666 
L 3169 4134 
L 1269 4134 
L 1269 2991 
Q 1406 3038 1543 3061 
Q 1681 3084 1819 3084 
Q 2600 3084 3056 2656 
Q 3513 2228 3513 1497 
Q 3513 744 3044 326 
Q 2575 -91 1722 -91 
Q 1428 -91 1123 -41 
Q 819 9 494 109 
L 494 744 
Q 775 591 1075 516 
Q 1375 441 1709 441 
Q 2250 441 2565 725 
Q 2881 1009 2881 1497 
Q 2881 1984 2565 2268 
Q 2250 2553 1709 2553 
Q 1456 2553 1204 2497 
Q 953 2441 691 2322 
L 691 4666 
z
" transform="scale(0.015625)"/>
       </defs>
       <use xlink:href="#DejaVuSans-31"/>
       <use xlink:href="#DejaVuSans-35" x="63.623047"/>
       <use xlink:href="#DejaVuSans-30" x="127.246094"/>
       <use xlink:href="#DejaVuSans-30" x="190.869141"/>
      </g>
     </g>
    </g>
   </g>
   <g id="matplotlib.axis_2">
    <g id="ytick_1">
     <g id="line2d_6">
      <defs>
       <path id="m11e064ea71" d="M 0 0 
L -3.5 0 
" style="stroke: #000000; stroke-width: 0.8"/>
      </defs>
      <g>
       <use xlink:href="#m11e064ea71" x="514.78523" y="939.973061" style="stroke: #000000; stroke-width: 0.8"/>
      </g>
     </g>
     <g id="text_6">
      <!-- 0 -->
      <g transform="translate(501.42273 943.77228) scale(0.1 -0.1)">
       <use xlink:href="#DejaVuSans-30"/>
      </g>
     </g>
    </g>
    <g id="ytick_2">
     <g id="line2d_7">
      <g>
       <use xlink:href="#m11e064ea71" x="514.78523" y="774.733567" style="stroke: #000000; stroke-width: 0.8"/>
      </g>
     </g>
     <g id="text_7">
      <!-- 200 -->
      <g transform="translate(488.69773 778.532785) scale(0.1 -0.1)">
       <use xlink:href="#DejaVuSans-32"/>
       <use xlink:href="#DejaVuSans-30" x="63.623047"/>
       <use xlink:href="#DejaVuSans-30" x="127.246094"/>
      </g>
     </g>
    </g>
    <g id="ytick_3">
     <g id="line2d_8">
      <g>
       <use xlink:href="#m11e064ea71" x="514.78523" y="609.494072" style="stroke: #000000; stroke-width: 0.8"/>
      </g>
     </g>
     <g id="text_8">
      <!-- 400 -->
      <g transform="translate(488.69773 613.293291) scale(0.1 -0.1)">
       <use xlink:href="#DejaVuSans-34"/>
       <use xlink:href="#DejaVuSans-30" x="63.623047"/>
       <use xlink:href="#DejaVuSans-30" x="127.246094"/>
      </g>
     </g>
    </g>
    <g id="ytick_4">
     <g id="line2d_9">
      <g>
       <use xlink:href="#m11e064ea71" x="514.78523" y="444.254578" style="stroke: #000000; stroke-width: 0.8"/>
      </g>
     </g>
     <g id="text_9">
      <!-- 600 -->
      <g transform="translate(488.69773 448.053796) scale(0.1 -0.1)">
       <defs>
        <path id="DejaVuSans-36" d="M 2113 2584 
Q 1688 2584 1439 2293 
Q 1191 2003 1191 1497 
Q 1191 994 1439 701 
Q 1688 409 2113 409 
Q 2538 409 2786 701 
Q 3034 994 3034 1497 
Q 3034 2003 2786 2293 
Q 2538 2584 2113 2584 
z
M 3366 4563 
L 3366 3988 
Q 3128 4100 2886 4159 
Q 2644 4219 2406 4219 
Q 1781 4219 1451 3797 
Q 1122 3375 1075 2522 
Q 1259 2794 1537 2939 
Q 1816 3084 2150 3084 
Q 2853 3084 3261 2657 
Q 3669 2231 3669 1497 
Q 3669 778 3244 343 
Q 2819 -91 2113 -91 
Q 1303 -91 875 529 
Q 447 1150 447 2328 
Q 447 3434 972 4092 
Q 1497 4750 2381 4750 
Q 2619 4750 2861 4703 
Q 3103 4656 3366 4563 
z
" transform="scale(0.015625)"/>
       </defs>
       <use xlink:href="#DejaVuSans-36"/>
       <use xlink:href="#DejaVuSans-30" x="63.623047"/>
       <use xlink:href="#DejaVuSans-30" x="127.246094"/>
      </g>
     </g>
    </g>
    <g id="ytick_5">
     <g id="line2d_10">
      <g>
       <use xlink:href="#m11e064ea71" x="514.78523" y="279.015083" style="stroke: #000000; stroke-width: 0.8"/>
      </g>
     </g>
     <g id="text_10">
      <!-- 800 -->
      <g transform="translate(488.69773 282.814302) scale(0.1 -0.1)">
       <defs>
        <path id="DejaVuSans-38" d="M 2034 2216 
Q 1584 2216 1326 1975 
Q 1069 1734 1069 1313 
Q 1069 891 1326 650 
Q 1584 409 2034 409 
Q 2484 409 2743 651 
Q 3003 894 3003 1313 
Q 3003 1734 2745 1975 
Q 2488 2216 2034 2216 
z
M 1403 2484 
Q 997 2584 770 2862 
Q 544 3141 544 3541 
Q 544 4100 942 4425 
Q 1341 4750 2034 4750 
Q 2731 4750 3128 4425 
Q 3525 4100 3525 3541 
Q 3525 3141 3298 2862 
Q 3072 2584 2669 2484 
Q 3125 2378 3379 2068 
Q 3634 1759 3634 1313 
Q 3634 634 3220 271 
Q 2806 -91 2034 -91 
Q 1263 -91 848 271 
Q 434 634 434 1313 
Q 434 1759 690 2068 
Q 947 2378 1403 2484 
z
M 1172 3481 
Q 1172 3119 1398 2916 
Q 1625 2713 2034 2713 
Q 2441 2713 2670 2916 
Q 2900 3119 2900 3481 
Q 2900 3844 2670 4047 
Q 2441 4250 2034 4250 
Q 1625 4250 1398 4047 
Q 1172 3844 1172 3481 
z
" transform="scale(0.015625)"/>
       </defs>
       <use xlink:href="#DejaVuSans-38"/>
       <use xlink:href="#DejaVuSans-30" x="63.623047"/>
       <use xlink:href="#DejaVuSans-30" x="127.246094"/>
      </g>
     </g>
    </g>
   </g>
   <g id="LineCollection_1">
    <path d="M 535.077482 175.818823 
L 540.007836 186.332594 
L 544.461152 196.621011 
L 548.514978 206.826385 
L 552.186331 216.958291 
L 555.493273 227.025091 
L 558.454807 237.033891 
L 561.090796 246.990505 
L 563.421897 256.899427 
L 565.469511 266.763833 
L 567.255741 276.585596 
L 568.803352 286.365335 
L 570.135735 296.10248 
L 571.27685 305.795368 
L 572.251178 315.441343 
L 573.083645 325.036875 
L 574.424445 344.058857 
L 577.707968 399.420388 
L 578.415377 408.332102 
L 579.234341 417.135173 
L 580.188229 425.823268 
L 581.29956 434.390103 
L 582.589859 442.829423 
L 584.079488 451.134968 
L 585.787455 459.300441 
L 587.73119 467.319481 
L 589.926303 475.185666 
L 592.38632 482.892553 
L 595.122412 490.433781 
L 598.143153 497.803233 
L 601.45431 504.995276 
L 605.058718 512.005046 
L 608.956229 518.828764 
L 613.143768 525.464052 
L 617.615469 531.910197 
L 622.362878 538.168348 
L 627.37519 544.241619 
L 632.639477 550.135104 
L 638.140907 555.855805 
L 643.862906 561.412499 
L 649.787281 566.815566 
L 655.894303 572.076808 
L 662.162748 577.209252 
L 668.569936 582.226975 
L 675.091753 587.144937 
L 688.375875 596.744929 
L 721.704046 620.189211 
L 728.142829 624.920683 
L 734.429679 629.705139 
L 740.53308 634.55915 
L 746.422467 639.498811 
L 752.068766 644.539747 
L 757.444992 649.697223 
L 762.526829 654.986369 
L 767.293171 660.422538 
L 771.726494 666.021762 
L 775.813008 671.801226 
L 779.542514 677.779636 
L 782.907984 683.977278 
L 785.904993 690.415646 
L 788.531212 697.116556 
L 790.786213 704.100839 
L 792.671753 711.386827 
L 794.192584 718.988927 
L 795.357678 726.91651 
L 796.181684 735.173233 
L 796.686409 743.7568 
L 796.902201 752.659044 
L 796.869188 761.866213 
L 796.638379 771.359361 
L 795.199664 811.780574 
L 795.213849 822.333725 
L 795.646552 832.984937 
L 796.676894 843.688405 
L 798.518315 854.384802 
L 801.421322 864.985834 
L 805.664265 875.3505 
L 811.038328 884.621729 
L 811.521903 885.265642 
L 818.597818 893.872768 
L 819.219799 894.459905 
L 828.216058 902.199126 
L 828.917429 902.664714 
L 840.051442 909.357733 
L 840.754203 909.677263 
L 854.921363 915.366507 
L 871.69777 919.630982 
L 891.441943 922.357075 
L 914.569496 923.4 
L 940.922518 922.618558 
L 940.922518 922.618558 
" clip-path="url(#p39c21f3e5d)" style="fill: none; stroke: #1f77b4; stroke-width: 1.5"/>
    <path d="M 544.053872 171.609412 
L 549.047363 182.257819 
L 553.619591 192.820957 
L 557.7848 203.306733 
L 561.558701 213.721643 
L 564.958405 224.070826 
L 568.002345 234.358124 
L 570.710189 244.586147 
L 573.102755 254.756337 
L 575.201909 264.86904 
L 577.030471 274.923574 
L 578.612105 284.918305 
L 579.971207 294.850723 
L 581.132796 304.717518 
L 582.122393 314.514658 
L 582.965903 324.237472 
L 583.689489 333.880729 
L 584.319452 343.438719 
L 584.882104 352.905338 
L 585.403639 362.274168 
L 585.910008 371.538559 
L 586.426793 380.691713 
L 586.979078 389.726763 
L 587.591328 398.636855 
L 588.287259 407.415229 
L 589.089725 416.055293 
L 590.020589 424.550703 
L 591.100616 432.895438 
L 592.349355 441.083869 
L 593.785034 449.110835 
L 595.424452 456.971703 
L 597.282885 464.662442 
L 599.373988 472.179676 
L 601.709713 479.520748 
L 604.300221 486.683775 
L 607.153815 493.667693 
L 610.276867 500.472312 
L 613.673767 507.098351 
L 617.346864 513.54748 
L 621.296433 519.822352 
L 625.520636 525.926632 
L 630.015506 531.865014 
L 634.774933 537.643246 
L 639.790662 543.268134 
L 645.052305 548.747549 
L 650.547364 554.090426 
L 656.261266 559.306755 
L 662.177409 564.407564 
L 668.277225 569.4049 
L 674.540253 574.311797 
L 680.944232 579.142237 
L 687.4652 583.911106 
L 694.077615 588.634141 
L 700.754493 593.327868 
L 707.467556 598.009529 
L 714.1874 602.697003 
L 720.883682 607.408718 
L 727.525325 612.163551 
L 734.080732 616.980723 
L 740.518035 621.879678 
L 746.805347 626.879952 
L 752.911045 632.001043 
L 758.80407 637.262251 
L 764.45424 642.682526 
L 769.832601 648.280291 
L 774.911779 654.073261 
L 779.666375 660.078247 
L 784.073363 666.310951 
L 788.112528 672.785745 
L 791.766915 679.515438 
L 795.023309 686.511035 
L 797.872739 693.781477 
L 800.311004 701.333373 
L 802.339228 709.170712 
L 803.964438 717.294566 
L 805.20017 725.702782 
L 806.067104 734.389649 
L 806.593722 743.345564 
L 806.817002 752.55667 
L 806.783126 762.004492 
L 806.548234 771.665544 
L 806.179198 781.510934 
L 805.754426 791.505941 
L 805.364697 801.609586 
L 805.114032 811.774181 
L 805.12059 821.944862 
L 805.517598 832.059106 
L 806.454316 842.046233 
L 808.097031 851.826885 
L 810.630085 861.312495 
L 814.256942 870.404731 
L 819.201282 878.994927 
L 825.708136 886.963491 
L 834.04505 894.179302 
L 844.503294 900.49908 
L 857.399097 905.766738 
L 873.074925 909.812724 
L 891.900797 912.453329 
L 914.275636 913.489986 
L 940.628658 912.708544 
" clip-path="url(#p39c21f3e5d)" style="fill: none; stroke: #8c564b; stroke-width: 1.5"/>
    <path d="M 553.030262 167.4 
L 558.145961 178.319514 
L 562.833644 189.160908 
L 567.106087 199.929112 
L 570.977867 210.627449 
L 574.465328 221.257794 
L 577.586519 231.820737 
L 580.361096 242.315745 
L 582.810194 252.741306 
L 584.95628 263.095067 
L 586.822987 273.37394 
L 588.434941 283.574198 
L 589.817578 293.691539 
L 590.996973 303.721149 
L 591.999662 313.657749 
L 592.852479 323.495628 
L 594.216357 342.850493 
L 597.478804 397.905241 
L 598.165331 406.564987 
L 598.954031 415.056848 
L 599.865404 423.374368 
L 600.91858 431.511646 
L 602.13124 439.463493 
L 603.519548 447.225605 
L 605.098121 454.794728 
L 606.880039 462.168824 
L 608.876883 469.347206 
L 611.098816 476.33064 
L 613.554688 483.121381 
L 616.252136 489.723149 
L 619.197686 496.141016 
L 622.396792 502.381237 
L 625.853832 508.451018 
L 629.572009 514.358268 
L 633.553191 520.111364 
L 637.79769 525.718969 
L 642.30401 531.189915 
L 647.068605 536.533168 
L 652.085666 541.757878 
L 657.346973 546.873477 
L 662.841812 551.889819 
L 668.556963 556.817336 
L 674.476752 561.667184 
L 680.583159 566.451372 
L 686.855955 571.182862 
L 699.809823 580.544772 
L 733.396145 604.174296 
L 740.084881 609.091178 
L 746.68921 614.120082 
L 753.176575 619.283757 
L 759.513878 624.605279 
L 765.667523 630.107691 
L 771.603465 635.813515 
L 777.287332 641.744107 
L 782.684691 647.918867 
L 787.761546 654.354356 
L 792.485155 661.06343 
L 796.825195 668.054555 
L 800.755191 675.331467 
L 804.254065 682.893319 
L 807.307538 690.735283 
L 809.909177 698.849463 
L 812.060967 707.225839 
L 813.773439 715.852965 
L 815.065533 724.718236 
L 815.964378 733.807677 
L 816.505181 743.105308 
L 816.731308 752.592219 
L 816.694566 762.245471 
L 816.455646 772.036905 
L 815.02848 811.893213 
L 815.034834 821.74716 
L 815.413781 831.401275 
L 816.291609 840.760525 
L 817.796762 849.722141 
L 820.056935 858.185885 
L 823.203137 866.073159 
L 827.391251 873.349502 
L 832.845013 880.028406 
L 839.895132 886.130463 
L 848.968684 891.613489 
L 860.526781 896.334724 
L 875.008561 900.072522 
L 892.820792 902.570949 
L 914.358253 903.568809 
L 940.334798 902.798531 
L 940.334798 902.798531 
" clip-path="url(#p39c21f3e5d)" style="fill: none; stroke: #17becf; stroke-width: 1.5"/>
   </g>
   <g id="patch_3">
    <path d="M 514.78523 961.2 
L 514.78523 129.6 
" style="fill: none; stroke: #000000; stroke-width: 0.8; stroke-linejoin: miter; stroke-linecap: square"/>
   </g>
   <g id="patch_4">
    <path d="M 961.21477 961.2 
L 961.21477 129.6 
" style="fill: none; stroke: #000000; stroke-width: 0.8; stroke-linejoin: miter; stroke-linecap: square"/>
   </g>
   <g id="patch_5">
    <path d="M 514.78523 961.2 
L 961.21477 961.2 
" style="fill: none; stroke: #000000; stroke-width: 0.8; stroke-linejoin: miter; stroke-linecap: square"/>
   </g>
   <g id="patch_6">
    <path d="M 514.78523 129.6 
L 961.21477 129.6 
" style="fill: none; stroke: #000000; stroke-width: 0.8; stroke-linejoin: miter; stroke-linecap: square"/>
   </g>
  </g>
 </g>
 <defs>
  <clipPath id="p39c21f3e5d">
   <rect x="514.78523" y="129.6" width="446.429541" height="831.6"/>
  </clipPath>
 </defs>
</svg>
