<?xml version="1.0" encoding="utf-8" standalone="no"?>
<!DOCTYPE svg PUBLIC "-//W3C//DTD SVG 1.1//EN"
  "http://www.w3.org/Graphics/SVG/1.1/DTD/svg11.dtd">
<svg xmlns:xlink="http://www.w3.org/1999/xlink" width="1440pt" height="1080pt" viewBox="0 0 1440 1080" xmlns="http://www.w3.org/2000/svg" version="1.1">
 <metadata>
  <rdf:RDF xmlns:dc="http://purl.org/dc/elements/1.1/" xmlns:cc="http://creativecommons.org/ns#" xmlns:rdf="http://www.w3.org/1999/02/22-rdf-syntax-ns#">
   <cc:Work>
    <dc:type rdf:resource="http://purl.org/dc/dcmitype/StillImage"/>
    <dc:date>2023-12-11T12:06:39.280666</dc:date>
    <dc:format>image/svg+xml</dc:format>
    <dc:creator>
     <cc:Agent>
      <dc:title>Matplotlib v3.7.1, https://matplotlib.org/</dc:title>
     </cc:Agent>
    </dc:creator>
   </cc:Work>
  </rdf:RDF>
 </metadata>
 <defs>
  <style type="text/css">*{stroke-linejoin: round; stroke-linecap: butt}</style>
 </defs>
 <g id="figure_1">
  <g id="patch_1">
   <path d="M 0 1080 
L 1440 1080 
L 1440 0 
L 0 0 
z
" style="fill: #ffffff"/>
  </g>
  <g id="axes_1">
   <g id="patch_2">
    <path d="M 322.574501 961.2 
L 1153.425499 961.2 
L 1153.425499 129.6 
L 322.574501 129.6 
z
" style="fill: #ffffff"/>
   </g>
   <g id="matplotlib.axis_1">
    <g id="xtick_1">
     <g id="line2d_1">
      <defs>
       <path id="mb9b9ee157f" d="M 0 0 
L 0 3.5 
" style="stroke: #000000; stroke-width: 0.8"/>
      </defs>
      <g>
       <use xlink:href="#mb9b9ee157f" x="400.678667" y="961.2" style="stroke: #000000; stroke-width: 0.8"/>
      </g>
     </g>
     <g id="text_1">
      <!-- 200 -->
      <g transform="translate(391.134917 975.798437) scale(0.1 -0.1)">
       <defs>
        <path id="DejaVuSans-32" d="M 1228 531 
L 3431 531 
L 3431 0 
L 469 0 
L 469 531 
Q 828 903 1448 1529 
Q 2069 2156 2228 2338 
Q 2531 2678 2651 2914 
Q 2772 3150 2772 3378 
Q 2772 3750 2511 3984 
Q 2250 4219 1831 4219 
Q 1534 4219 1204 4116 
Q 875 4013 500 3803 
L 500 4441 
Q 881 4594 1212 4672 
Q 1544 4750 1819 4750 
Q 2544 4750 2975 4387 
Q 3406 4025 3406 3419 
Q 3406 3131 3298 2873 
Q 3191 2616 2906 2266 
Q 2828 2175 2409 1742 
Q 1991 1309 1228 531 
z
" transform="scale(0.015625)"/>
        <path id="DejaVuSans-30" d="M 2034 4250 
Q 1547 4250 1301 3770 
Q 1056 3291 1056 2328 
Q 1056 1369 1301 889 
Q 1547 409 2034 409 
Q 2525 409 2770 889 
Q 3016 1369 3016 2328 
Q 3016 3291 2770 3770 
Q 2525 4250 2034 4250 
z
M 2034 4750 
Q 2819 4750 3233 4129 
Q 3647 3509 3647 2328 
Q 3647 1150 3233 529 
Q 2819 -91 2034 -91 
Q 1250 -91 836 529 
Q 422 1150 422 2328 
Q 422 3509 836 4129 
Q 1250 4750 2034 4750 
z
" transform="scale(0.015625)"/>
       </defs>
       <use xlink:href="#DejaVuSans-32"/>
       <use xlink:href="#DejaVuSans-30" x="63.623047"/>
       <use xlink:href="#DejaVuSans-30" x="127.246094"/>
      </g>
     </g>
    </g>
    <g id="xtick_2">
     <g id="line2d_2">
      <g>
       <use xlink:href="#mb9b9ee157f" x="495.943701" y="961.2" style="stroke: #000000; stroke-width: 0.8"/>
      </g>
     </g>
     <g id="text_2">
      <!-- 300 -->
      <g transform="translate(486.399951 975.798437) scale(0.1 -0.1)">
       <defs>
        <path id="DejaVuSans-33" d="M 2597 2516 
Q 3050 2419 3304 2112 
Q 3559 1806 3559 1356 
Q 3559 666 3084 287 
Q 2609 -91 1734 -91 
Q 1441 -91 1130 -33 
Q 819 25 488 141 
L 488 750 
Q 750 597 1062 519 
Q 1375 441 1716 441 
Q 2309 441 2620 675 
Q 2931 909 2931 1356 
Q 2931 1769 2642 2001 
Q 2353 2234 1838 2234 
L 1294 2234 
L 1294 2753 
L 1863 2753 
Q 2328 2753 2575 2939 
Q 2822 3125 2822 3475 
Q 2822 3834 2567 4026 
Q 2313 4219 1838 4219 
Q 1578 4219 1281 4162 
Q 984 4106 628 3988 
L 628 4550 
Q 988 4650 1302 4700 
Q 1616 4750 1894 4750 
Q 2613 4750 3031 4423 
Q 3450 4097 3450 3541 
Q 3450 3153 3228 2886 
Q 3006 2619 2597 2516 
z
" transform="scale(0.015625)"/>
       </defs>
       <use xlink:href="#DejaVuSans-33"/>
       <use xlink:href="#DejaVuSans-30" x="63.623047"/>
       <use xlink:href="#DejaVuSans-30" x="127.246094"/>
      </g>
     </g>
    </g>
    <g id="xtick_3">
     <g id="line2d_3">
      <g>
       <use xlink:href="#mb9b9ee157f" x="591.208735" y="961.2" style="stroke: #000000; stroke-width: 0.8"/>
      </g>
     </g>
     <g id="text_3">
      <!-- 400 -->
      <g transform="translate(581.664985 975.798437) scale(0.1 -0.1)">
       <defs>
        <path id="DejaVuSans-34" d="M 2419 4116 
L 825 1625 
L 2419 1625 
L 2419 4116 
z
M 2253 4666 
L 3047 4666 
L 3047 1625 
L 3713 1625 
L 3713 1100 
L 3047 1100 
L 3047 0 
L 2419 0 
L 2419 1100 
L 313 1100 
L 313 1709 
L 2253 4666 
z
" transform="scale(0.015625)"/>
       </defs>
       <use xlink:href="#DejaVuSans-34"/>
       <use xlink:href="#DejaVuSans-30" x="63.623047"/>
       <use xlink:href="#DejaVuSans-30" x="127.246094"/>
      </g>
     </g>
    </g>
    <g id="xtick_4">
     <g id="line2d_4">
      <g>
       <use xlink:href="#mb9b9ee157f" x="686.473769" y="961.2" style="stroke: #000000; stroke-width: 0.8"/>
      </g>
     </g>
     <g id="text_4">
      <!-- 500 -->
      <g transform="translate(676.930019 975.798437) scale(0.1 -0.1)">
       <defs>
        <path id="DejaVuSans-35" d="M 691 4666 
L 3169 4666 
L 3169 4134 
L 1269 4134 
L 1269 2991 
Q 1406 3038 1543 3061 
Q 1681 3084 1819 3084 
Q 2600 3084 3056 2656 
Q 3513 2228 3513 1497 
Q 3513 744 3044 326 
Q 2575 -91 1722 -91 
Q 1428 -91 1123 -41 
Q 819 9 494 109 
L 494 744 
Q 775 591 1075 516 
Q 1375 441 1709 441 
Q 2250 441 2565 725 
Q 2881 1009 2881 1497 
Q 2881 1984 2565 2268 
Q 2250 2553 1709 2553 
Q 1456 2553 1204 2497 
Q 953 2441 691 2322 
L 691 4666 
z
" transform="scale(0.015625)"/>
       </defs>
       <use xlink:href="#DejaVuSans-35"/>
       <use xlink:href="#DejaVuSans-30" x="63.623047"/>
       <use xlink:href="#DejaVuSans-30" x="127.246094"/>
      </g>
     </g>
    </g>
    <g id="xtick_5">
     <g id="line2d_5">
      <g>
       <use xlink:href="#mb9b9ee157f" x="781.738803" y="961.2" style="stroke: #000000; stroke-width: 0.8"/>
      </g>
     </g>
     <g id="text_5">
      <!-- 600 -->
      <g transform="translate(772.195053 975.798437) scale(0.1 -0.1)">
       <defs>
        <path id="DejaVuSans-36" d="M 2113 2584 
Q 1688 2584 1439 2293 
Q 1191 2003 1191 1497 
Q 1191 994 1439 701 
Q 1688 409 2113 409 
Q 2538 409 2786 701 
Q 3034 994 3034 1497 
Q 3034 2003 2786 2293 
Q 2538 2584 2113 2584 
z
M 3366 4563 
L 3366 3988 
Q 3128 4100 2886 4159 
Q 2644 4219 2406 4219 
Q 1781 4219 1451 3797 
Q 1122 3375 1075 2522 
Q 1259 2794 1537 2939 
Q 1816 3084 2150 3084 
Q 2853 3084 3261 2657 
Q 3669 2231 3669 1497 
Q 3669 778 3244 343 
Q 2819 -91 2113 -91 
Q 1303 -91 875 529 
Q 447 1150 447 2328 
Q 447 3434 972 4092 
Q 1497 4750 2381 4750 
Q 2619 4750 2861 4703 
Q 3103 4656 3366 4563 
z
" transform="scale(0.015625)"/>
       </defs>
       <use xlink:href="#DejaVuSans-36"/>
       <use xlink:href="#DejaVuSans-30" x="63.623047"/>
       <use xlink:href="#DejaVuSans-30" x="127.246094"/>
      </g>
     </g>
    </g>
    <g id="xtick_6">
     <g id="line2d_6">
      <g>
       <use xlink:href="#mb9b9ee157f" x="877.003837" y="961.2" style="stroke: #000000; stroke-width: 0.8"/>
      </g>
     </g>
     <g id="text_6">
      <!-- 700 -->
      <g transform="translate(867.460087 975.798437) scale(0.1 -0.1)">
       <defs>
        <path id="DejaVuSans-37" d="M 525 4666 
L 3525 4666 
L 3525 4397 
L 1831 0 
L 1172 0 
L 2766 4134 
L 525 4134 
L 525 4666 
z
" transform="scale(0.015625)"/>
       </defs>
       <use xlink:href="#DejaVuSans-37"/>
       <use xlink:href="#DejaVuSans-30" x="63.623047"/>
       <use xlink:href="#DejaVuSans-30" x="127.246094"/>
      </g>
     </g>
    </g>
    <g id="xtick_7">
     <g id="line2d_7">
      <g>
       <use xlink:href="#mb9b9ee157f" x="972.268871" y="961.2" style="stroke: #000000; stroke-width: 0.8"/>
      </g>
     </g>
     <g id="text_7">
      <!-- 800 -->
      <g transform="translate(962.725121 975.798437) scale(0.1 -0.1)">
       <defs>
        <path id="DejaVuSans-38" d="M 2034 2216 
Q 1584 2216 1326 1975 
Q 1069 1734 1069 1313 
Q 1069 891 1326 650 
Q 1584 409 2034 409 
Q 2484 409 2743 651 
Q 3003 894 3003 1313 
Q 3003 1734 2745 1975 
Q 2488 2216 2034 2216 
z
M 1403 2484 
Q 997 2584 770 2862 
Q 544 3141 544 3541 
Q 544 4100 942 4425 
Q 1341 4750 2034 4750 
Q 2731 4750 3128 4425 
Q 3525 4100 3525 3541 
Q 3525 3141 3298 2862 
Q 3072 2584 2669 2484 
Q 3125 2378 3379 2068 
Q 3634 1759 3634 1313 
Q 3634 634 3220 271 
Q 2806 -91 2034 -91 
Q 1263 -91 848 271 
Q 434 634 434 1313 
Q 434 1759 690 2068 
Q 947 2378 1403 2484 
z
M 1172 3481 
Q 1172 3119 1398 2916 
Q 1625 2713 2034 2713 
Q 2441 2713 2670 2916 
Q 2900 3119 2900 3481 
Q 2900 3844 2670 4047 
Q 2441 4250 2034 4250 
Q 1625 4250 1398 4047 
Q 1172 3844 1172 3481 
z
" transform="scale(0.015625)"/>
       </defs>
       <use xlink:href="#DejaVuSans-38"/>
       <use xlink:href="#DejaVuSans-30" x="63.623047"/>
       <use xlink:href="#DejaVuSans-30" x="127.246094"/>
      </g>
     </g>
    </g>
    <g id="xtick_8">
     <g id="line2d_8">
      <g>
       <use xlink:href="#mb9b9ee157f" x="1067.533905" y="961.2" style="stroke: #000000; stroke-width: 0.8"/>
      </g>
     </g>
     <g id="text_8">
      <!-- 900 -->
      <g transform="translate(1057.990155 975.798437) scale(0.1 -0.1)">
       <defs>
        <path id="DejaVuSans-39" d="M 703 97 
L 703 672 
Q 941 559 1184 500 
Q 1428 441 1663 441 
Q 2288 441 2617 861 
Q 2947 1281 2994 2138 
Q 2813 1869 2534 1725 
Q 2256 1581 1919 1581 
Q 1219 1581 811 2004 
Q 403 2428 403 3163 
Q 403 3881 828 4315 
Q 1253 4750 1959 4750 
Q 2769 4750 3195 4129 
Q 3622 3509 3622 2328 
Q 3622 1225 3098 567 
Q 2575 -91 1691 -91 
Q 1453 -91 1209 -44 
Q 966 3 703 97 
z
M 1959 2075 
Q 2384 2075 2632 2365 
Q 2881 2656 2881 3163 
Q 2881 3666 2632 3958 
Q 2384 4250 1959 4250 
Q 1534 4250 1286 3958 
Q 1038 3666 1038 3163 
Q 1038 2656 1286 2365 
Q 1534 2075 1959 2075 
z
" transform="scale(0.015625)"/>
       </defs>
       <use xlink:href="#DejaVuSans-39"/>
       <use xlink:href="#DejaVuSans-30" x="63.623047"/>
       <use xlink:href="#DejaVuSans-30" x="127.246094"/>
      </g>
     </g>
    </g>
   </g>
   <g id="matplotlib.axis_2">
    <g id="ytick_1">
     <g id="line2d_9">
      <defs>
       <path id="mb45a3588f8" d="M 0 0 
L -3.5 0 
" style="stroke: #000000; stroke-width: 0.8"/>
      </defs>
      <g>
       <use xlink:href="#mb45a3588f8" x="322.574501" y="934.746074" style="stroke: #000000; stroke-width: 0.8"/>
      </g>
     </g>
     <g id="text_9">
      <!-- 700 -->
      <g transform="translate(296.487001 938.545293) scale(0.1 -0.1)">
       <use xlink:href="#DejaVuSans-37"/>
       <use xlink:href="#DejaVuSans-30" x="63.623047"/>
       <use xlink:href="#DejaVuSans-30" x="127.246094"/>
      </g>
     </g>
    </g>
    <g id="ytick_2">
     <g id="line2d_10">
      <g>
       <use xlink:href="#mb45a3588f8" x="322.574501" y="839.48104" style="stroke: #000000; stroke-width: 0.8"/>
      </g>
     </g>
     <g id="text_10">
      <!-- 800 -->
      <g transform="translate(296.487001 843.280259) scale(0.1 -0.1)">
       <use xlink:href="#DejaVuSans-38"/>
       <use xlink:href="#DejaVuSans-30" x="63.623047"/>
       <use xlink:href="#DejaVuSans-30" x="127.246094"/>
      </g>
     </g>
    </g>
    <g id="ytick_3">
     <g id="line2d_11">
      <g>
       <use xlink:href="#mb45a3588f8" x="322.574501" y="744.216006" style="stroke: #000000; stroke-width: 0.8"/>
      </g>
     </g>
     <g id="text_11">
      <!-- 900 -->
      <g transform="translate(296.487001 748.015225) scale(0.1 -0.1)">
       <use xlink:href="#DejaVuSans-39"/>
       <use xlink:href="#DejaVuSans-30" x="63.623047"/>
       <use xlink:href="#DejaVuSans-30" x="127.246094"/>
      </g>
     </g>
    </g>
    <g id="ytick_4">
     <g id="line2d_12">
      <g>
       <use xlink:href="#mb45a3588f8" x="322.574501" y="648.950972" style="stroke: #000000; stroke-width: 0.8"/>
      </g>
     </g>
     <g id="text_12">
      <!-- 1000 -->
      <g transform="translate(290.124501 652.750191) scale(0.1 -0.1)">
       <defs>
        <path id="DejaVuSans-31" d="M 794 531 
L 1825 531 
L 1825 4091 
L 703 3866 
L 703 4441 
L 1819 4666 
L 2450 4666 
L 2450 531 
L 3481 531 
L 3481 0 
L 794 0 
L 794 531 
z
" transform="scale(0.015625)"/>
       </defs>
       <use xlink:href="#DejaVuSans-31"/>
       <use xlink:href="#DejaVuSans-30" x="63.623047"/>
       <use xlink:href="#DejaVuSans-30" x="127.246094"/>
       <use xlink:href="#DejaVuSans-30" x="190.869141"/>
      </g>
     </g>
    </g>
    <g id="ytick_5">
     <g id="line2d_13">
      <g>
       <use xlink:href="#mb45a3588f8" x="322.574501" y="553.685938" style="stroke: #000000; stroke-width: 0.8"/>
      </g>
     </g>
     <g id="text_13">
      <!-- 1100 -->
      <g transform="translate(290.124501 557.485157) scale(0.1 -0.1)">
       <use xlink:href="#DejaVuSans-31"/>
       <use xlink:href="#DejaVuSans-31" x="63.623047"/>
       <use xlink:href="#DejaVuSans-30" x="127.246094"/>
       <use xlink:href="#DejaVuSans-30" x="190.869141"/>
      </g>
     </g>
    </g>
    <g id="ytick_6">
     <g id="line2d_14">
      <g>
       <use xlink:href="#mb45a3588f8" x="322.574501" y="458.420904" style="stroke: #000000; stroke-width: 0.8"/>
      </g>
     </g>
     <g id="text_14">
      <!-- 1200 -->
      <g transform="translate(290.124501 462.220123) scale(0.1 -0.1)">
       <use xlink:href="#DejaVuSans-31"/>
       <use xlink:href="#DejaVuSans-32" x="63.623047"/>
       <use xlink:href="#DejaVuSans-30" x="127.246094"/>
       <use xlink:href="#DejaVuSans-30" x="190.869141"/>
      </g>
     </g>
    </g>
    <g id="ytick_7">
     <g id="line2d_15">
      <g>
       <use xlink:href="#mb45a3588f8" x="322.574501" y="363.15587" style="stroke: #000000; stroke-width: 0.8"/>
      </g>
     </g>
     <g id="text_15">
      <!-- 1300 -->
      <g transform="translate(290.124501 366.955089) scale(0.1 -0.1)">
       <use xlink:href="#DejaVuSans-31"/>
       <use xlink:href="#DejaVuSans-33" x="63.623047"/>
       <use xlink:href="#DejaVuSans-30" x="127.246094"/>
       <use xlink:href="#DejaVuSans-30" x="190.869141"/>
      </g>
     </g>
    </g>
    <g id="ytick_8">
     <g id="line2d_16">
      <g>
       <use xlink:href="#mb45a3588f8" x="322.574501" y="267.890836" style="stroke: #000000; stroke-width: 0.8"/>
      </g>
     </g>
     <g id="text_16">
      <!-- 1400 -->
      <g transform="translate(290.124501 271.690055) scale(0.1 -0.1)">
       <use xlink:href="#DejaVuSans-31"/>
       <use xlink:href="#DejaVuSans-34" x="63.623047"/>
       <use xlink:href="#DejaVuSans-30" x="127.246094"/>
       <use xlink:href="#DejaVuSans-30" x="190.869141"/>
      </g>
     </g>
    </g>
    <g id="ytick_9">
     <g id="line2d_17">
      <g>
       <use xlink:href="#mb45a3588f8" x="322.574501" y="172.625802" style="stroke: #000000; stroke-width: 0.8"/>
      </g>
     </g>
     <g id="text_17">
      <!-- 1500 -->
      <g transform="translate(290.124501 176.425021) scale(0.1 -0.1)">
       <use xlink:href="#DejaVuSans-31"/>
       <use xlink:href="#DejaVuSans-35" x="63.623047"/>
       <use xlink:href="#DejaVuSans-30" x="127.246094"/>
       <use xlink:href="#DejaVuSans-30" x="190.869141"/>
      </g>
     </g>
    </g>
   </g>
   <g id="LineCollection_1">
    <path d="M 1105.352969 923.4 
L 1110.552462 896.856842 
L 1113.8746 872.65302 
L 1115.50896 850.551375 
L 1115.628526 830.341055 
L 1114.393327 811.837203 
L 1111.954449 794.879112 
L 1108.457537 779.326495 
L 1104.044739 765.054244 
L 1098.85448 751.946822 
L 1093.019321 739.893723 
L 1086.662898 728.786975 
L 1079.89718 718.520755 
L 1072.820841 708.992486 
L 1065.51894 700.104513 
L 1058.063652 691.765645 
L 1050.515595 683.892203 
L 1042.925363 676.4085 
L 1035.335017 669.24684 
L 1027.779388 662.347186 
L 1012.881924 649.128762 
L 991.315147 630.101145 
L 977.632433 617.614422 
L 971.021995 611.36253 
L 964.569499 605.080992 
L 958.275997 598.754973 
L 952.141306 592.371769 
L 946.164238 585.920552 
L 940.342807 579.392142 
L 934.674396 572.778812 
L 929.155907 566.07412 
L 923.783874 559.272758 
L 918.554562 552.370428 
L 913.464036 545.363722 
L 908.508213 538.25002 
L 903.682899 531.027405 
L 898.983808 523.694576 
L 894.406569 516.250786 
L 889.946723 508.695777 
L 885.599709 501.029736 
L 881.360847 493.253253 
L 877.225305 485.367297 
L 873.188065 477.373195 
L 869.243884 469.272628 
L 865.387242 461.067628 
L 857.912809 444.354317 
L 850.712988 427.257255 
L 843.727681 409.807633 
L 836.886036 392.045186 
L 812.669301 328.179302 
L 808.966167 318.969585 
L 805.142432 309.776557 
L 801.173348 300.615583 
L 797.03196 291.50346 
L 792.688964 282.458608 
L 788.112601 273.50131 
L 783.268594 264.654022 
L 778.120177 255.941774 
L 772.628261 247.392642 
L 766.751798 239.038278 
L 760.448401 230.914427 
L 753.675262 223.061314 
L 746.390338 215.523743 
L 738.553687 208.350721 
L 730.128705 201.59445 
L 721.082938 195.308694 
L 711.388129 189.546691 
L 701.019332 184.359027 
L 689.9532 179.791942 
L 678.165841 175.886462 
L 665.630777 172.678459 
L 652.31747 170.199472 
L 638.190655 168.477916 
L 623.210458 167.540297 
L 607.333096 167.412166 
L 590.511916 168.118674 
L 572.698545 169.684737 
L 553.843994 172.134882 
L 533.899663 175.492858 
L 512.8182 179.781098 
L 490.554249 185.020107 
L 467.065105 191.227787 
L 442.311301 198.418765 
L 416.257165 206.603686 
L 388.871356 215.788526 
L 360.340456 225.896607 
L 360.340456 225.896607 
" clip-path="url(#p3059c68e21)" style="fill: none; stroke: #1f77b4; stroke-width: 1.5"/>
    <path d="M 1090.397513 920.456319 
L 1095.454153 894.765915 
L 1098.675478 871.505146 
L 1100.267027 850.431276 
L 1100.417612 831.320352 
L 1099.300325 813.966101 
L 1097.073505 798.178872 
L 1093.881666 783.784622 
L 1089.856383 770.623938 
L 1085.117146 758.551106 
L 1079.772171 747.433215 
L 1073.919178 737.149303 
L 1067.646137 727.589539 
L 1061.031971 718.654446 
L 1054.147235 710.254156 
L 1047.05475 702.307705 
L 1039.810219 694.742358 
L 1032.462797 687.492977 
L 1025.055641 680.50141 
L 1017.626422 673.715925 
L 1010.207816 667.090665 
L 1002.827957 660.585143 
L 995.510866 654.163762 
L 988.27686 647.795364 
L 981.142921 641.45281 
L 974.123048 635.112588 
L 967.228586 628.754443 
L 960.468521 622.36104 
L 953.849765 615.917647 
L 947.377405 609.411846 
L 941.05494 602.833262 
L 934.884492 596.173324 
L 928.866998 589.42504 
L 923.002379 582.582795 
L 917.2897 575.642172 
L 911.727298 568.59979 
L 906.312904 561.453164 
L 901.04374 554.200577 
L 895.916608 546.840974 
L 890.927959 539.373875 
L 886.073945 531.799292 
L 881.350465 524.117676 
L 876.753191 516.329866 
L 872.277588 508.437054 
L 867.918915 500.440769 
L 863.672222 492.342862 
L 859.532334 484.145508 
L 855.493829 475.851218 
L 851.551001 467.462858 
L 847.697822 458.983674 
L 843.927895 450.417331 
L 840.234399 441.767953 
L 836.61003 433.040171 
L 833.046939 424.239172 
L 829.536662 415.370763 
L 826.070052 406.441423 
L 822.637202 397.45837 
L 819.227377 388.429625 
L 815.828928 379.364075 
L 812.429227 370.271541 
L 809.014584 361.162838 
L 805.570178 352.049844 
L 802.07998 342.945555 
L 798.526689 333.864145 
L 794.891664 324.82102 
L 791.154863 315.832864 
L 787.294789 306.917686 
L 783.288436 298.094853 
L 779.111249 289.38512 
L 774.737086 280.810655 
L 770.138191 272.395045 
L 765.285173 264.163306 
L 760.146998 256.141871 
L 754.69099 248.35857 
L 748.88284 240.842605 
L 742.686631 233.6245 
L 736.064876 226.736047 
L 728.978566 220.210231 
L 721.387232 214.081146 
L 713.249026 208.38389 
L 704.520813 203.154442 
L 695.158285 198.429529 
L 685.116082 194.246464 
L 674.347944 190.642972 
L 662.806871 187.656993 
L 650.445307 185.326466 
L 637.215344 183.689086 
L 623.068945 182.782045 
L 607.958191 182.641749 
L 591.835548 183.303499 
L 574.65416 184.801168 
L 556.368161 187.166832 
L 536.933018 190.430384 
L 516.305892 194.619121 
L 494.446033 199.757302 
L 471.315197 205.865671 
L 446.878089 212.960957 
L 421.102839 221.055343 
L 393.961505 230.155896 
L 365.430604 240.263976 
" clip-path="url(#p3059c68e21)" style="fill: none; stroke: #8c564b; stroke-width: 1.5"/>
    <path d="M 1075.442057 917.512638 
L 1080.415172 892.246584 
L 1083.512086 869.884176 
L 1085.02915 849.796567 
L 1085.171344 831.750511 
L 1084.126561 815.522435 
L 1082.063663 800.897343 
L 1079.130482 787.669564 
L 1075.452792 775.645337 
L 1071.135137 764.646451 
L 1066.263723 754.513598 
L 1060.910718 745.108182 
L 1055.138771 736.312058 
L 1049.004696 728.02552 
L 1042.561813 720.164349 
L 1035.861007 712.656736 
L 1028.950895 705.440619 
L 1021.87753 698.461637 
L 1014.683973 691.671685 
L 1000.091542 678.49217 
L 970.926419 652.764486 
L 956.75509 639.828594 
L 949.836169 633.282762 
L 943.04402 626.667847 
L 936.387591 619.973802 
L 929.873876 613.192544 
L 923.508112 606.317726 
L 917.293964 599.344507 
L 911.233703 592.269341 
L 905.328369 585.08979 
L 899.577929 577.80434 
L 893.981418 570.412259 
L 888.537075 562.913455 
L 883.242457 555.308372 
L 878.094551 547.597898 
L 873.089857 539.7833 
L 868.224468 531.866169 
L 863.49413 523.84839 
L 858.894282 515.732124 
L 854.420092 507.519803 
L 850.06647 499.214138 
L 845.828068 490.818141 
L 841.69928 482.335148 
L 837.674212 473.768859 
L 833.746661 465.123384 
L 826.157506 447.613637 
L 818.874376 429.848929 
L 811.831879 411.882502 
L 801.556433 384.714478 
L 791.32491 357.472442 
L 784.357809 339.483642 
L 780.782614 330.58936 
L 777.12308 321.787052 
L 773.360641 313.097372 
L 769.475879 304.542308 
L 765.448574 296.14509 
L 761.257752 287.930019 
L 756.881717 279.922225 
L 752.298023 272.147317 
L 747.483365 264.630938 
L 742.413311 257.398222 
L 737.061835 250.473211 
L 731.400595 243.878304 
L 725.397945 237.63389 
L 719.01775 231.758339 
L 712.218197 226.268522 
L 704.950886 221.180947 
L 697.160553 216.513423 
L 688.785691 212.286948 
L 679.760107 208.527354 
L 670.015168 205.266269 
L 659.482259 202.541129 
L 648.094927 200.394274 
L 635.790363 198.871424 
L 622.510114 198.019919 
L 608.200135 197.887057 
L 592.810426 198.518725 
L 576.294498 199.958387 
L 558.608849 202.246383 
L 539.71258 205.419447 
L 519.567174 209.510362 
L 498.13646 214.547672 
L 475.386741 220.555396 
L 451.287049 227.552714 
L 425.809506 235.553608 
L 398.929774 244.566446 
L 370.520753 254.631346 
L 370.520753 254.631346 
" clip-path="url(#p3059c68e21)" style="fill: none; stroke: #17becf; stroke-width: 1.5"/>
   </g>
   <g id="patch_3">
    <path d="M 322.574501 961.2 
L 322.574501 129.6 
" style="fill: none; stroke: #000000; stroke-width: 0.8; stroke-linejoin: miter; stroke-linecap: square"/>
   </g>
   <g id="patch_4">
    <path d="M 1153.425499 961.2 
L 1153.425499 129.6 
" style="fill: none; stroke: #000000; stroke-width: 0.8; stroke-linejoin: miter; stroke-linecap: square"/>
   </g>
   <g id="patch_5">
    <path d="M 322.574501 961.2 
L 1153.425499 961.2 
" style="fill: none; stroke: #000000; stroke-width: 0.8; stroke-linejoin: miter; stroke-linecap: square"/>
   </g>
   <g id="patch_6">
    <path d="M 322.574501 129.6 
L 1153.425499 129.6 
" style="fill: none; stroke: #000000; stroke-width: 0.8; stroke-linejoin: miter; stroke-linecap: square"/>
   </g>
  </g>
 </g>
 <defs>
  <clipPath id="p3059c68e21">
   <rect x="322.574501" y="129.6" width="830.850998" height="831.6"/>
  </clipPath>
 </defs>
</svg>
