<?xml version="1.0" encoding="utf-8" standalone="no"?>
<!DOCTYPE svg PUBLIC "-//W3C//DTD SVG 1.1//EN"
  "http://www.w3.org/Graphics/SVG/1.1/DTD/svg11.dtd">
<svg xmlns:xlink="http://www.w3.org/1999/xlink" width="1440pt" height="1080pt" viewBox="0 0 1440 1080" xmlns="http://www.w3.org/2000/svg" version="1.1">
 <metadata>
  <rdf:RDF xmlns:dc="http://purl.org/dc/elements/1.1/" xmlns:cc="http://creativecommons.org/ns#" xmlns:rdf="http://www.w3.org/1999/02/22-rdf-syntax-ns#">
   <cc:Work>
    <dc:type rdf:resource="http://purl.org/dc/dcmitype/StillImage"/>
    <dc:date>2023-12-11T12:06:41.912012</dc:date>
    <dc:format>image/svg+xml</dc:format>
    <dc:creator>
     <cc:Agent>
      <dc:title>Matplotlib v3.7.1, https://matplotlib.org/</dc:title>
     </cc:Agent>
    </dc:creator>
   </cc:Work>
  </rdf:RDF>
 </metadata>
 <defs>
  <style type="text/css">*{stroke-linejoin: round; stroke-linecap: butt}</style>
 </defs>
 <g id="figure_1">
  <g id="patch_1">
   <path d="M 0 1080 
L 1440 1080 
L 1440 0 
L 0 0 
z
" style="fill: #ffffff"/>
  </g>
  <g id="axes_1">
   <g id="patch_2">
    <path d="M 363.675071 961.2 
L 1112.324929 961.2 
L 1112.324929 129.6 
L 363.675071 129.6 
z
" style="fill: #ffffff"/>
   </g>
   <g id="matplotlib.axis_1">
    <g id="xtick_1">
     <g id="line2d_1">
      <defs>
       <path id="m7c0a742d35" d="M 0 0 
L 0 3.5 
" style="stroke: #000000; stroke-width: 0.8"/>
      </defs>
      <g>
       <use xlink:href="#m7c0a742d35" x="374.484412" y="961.2" style="stroke: #000000; stroke-width: 0.8"/>
      </g>
     </g>
     <g id="text_1">
      <!-- 600 -->
      <g transform="translate(364.940662 975.798437) scale(0.1 -0.1)">
       <defs>
        <path id="DejaVuSans-36" d="M 2113 2584 
Q 1688 2584 1439 2293 
Q 1191 2003 1191 1497 
Q 1191 994 1439 701 
Q 1688 409 2113 409 
Q 2538 409 2786 701 
Q 3034 994 3034 1497 
Q 3034 2003 2786 2293 
Q 2538 2584 2113 2584 
z
M 3366 4563 
L 3366 3988 
Q 3128 4100 2886 4159 
Q 2644 4219 2406 4219 
Q 1781 4219 1451 3797 
Q 1122 3375 1075 2522 
Q 1259 2794 1537 2939 
Q 1816 3084 2150 3084 
Q 2853 3084 3261 2657 
Q 3669 2231 3669 1497 
Q 3669 778 3244 343 
Q 2819 -91 2113 -91 
Q 1303 -91 875 529 
Q 447 1150 447 2328 
Q 447 3434 972 4092 
Q 1497 4750 2381 4750 
Q 2619 4750 2861 4703 
Q 3103 4656 3366 4563 
z
" transform="scale(0.015625)"/>
        <path id="DejaVuSans-30" d="M 2034 4250 
Q 1547 4250 1301 3770 
Q 1056 3291 1056 2328 
Q 1056 1369 1301 889 
Q 1547 409 2034 409 
Q 2525 409 2770 889 
Q 3016 1369 3016 2328 
Q 3016 3291 2770 3770 
Q 2525 4250 2034 4250 
z
M 2034 4750 
Q 2819 4750 3233 4129 
Q 3647 3509 3647 2328 
Q 3647 1150 3233 529 
Q 2819 -91 2034 -91 
Q 1250 -91 836 529 
Q 422 1150 422 2328 
Q 422 3509 836 4129 
Q 1250 4750 2034 4750 
z
" transform="scale(0.015625)"/>
       </defs>
       <use xlink:href="#DejaVuSans-36"/>
       <use xlink:href="#DejaVuSans-30" x="63.623047"/>
       <use xlink:href="#DejaVuSans-30" x="127.246094"/>
      </g>
     </g>
    </g>
    <g id="xtick_2">
     <g id="line2d_2">
      <g>
       <use xlink:href="#m7c0a742d35" x="489.468343" y="961.2" style="stroke: #000000; stroke-width: 0.8"/>
      </g>
     </g>
     <g id="text_2">
      <!-- 700 -->
      <g transform="translate(479.924593 975.798437) scale(0.1 -0.1)">
       <defs>
        <path id="DejaVuSans-37" d="M 525 4666 
L 3525 4666 
L 3525 4397 
L 1831 0 
L 1172 0 
L 2766 4134 
L 525 4134 
L 525 4666 
z
" transform="scale(0.015625)"/>
       </defs>
       <use xlink:href="#DejaVuSans-37"/>
       <use xlink:href="#DejaVuSans-30" x="63.623047"/>
       <use xlink:href="#DejaVuSans-30" x="127.246094"/>
      </g>
     </g>
    </g>
    <g id="xtick_3">
     <g id="line2d_3">
      <g>
       <use xlink:href="#m7c0a742d35" x="604.452275" y="961.2" style="stroke: #000000; stroke-width: 0.8"/>
      </g>
     </g>
     <g id="text_3">
      <!-- 800 -->
      <g transform="translate(594.908525 975.798437) scale(0.1 -0.1)">
       <defs>
        <path id="DejaVuSans-38" d="M 2034 2216 
Q 1584 2216 1326 1975 
Q 1069 1734 1069 1313 
Q 1069 891 1326 650 
Q 1584 409 2034 409 
Q 2484 409 2743 651 
Q 3003 894 3003 1313 
Q 3003 1734 2745 1975 
Q 2488 2216 2034 2216 
z
M 1403 2484 
Q 997 2584 770 2862 
Q 544 3141 544 3541 
Q 544 4100 942 4425 
Q 1341 4750 2034 4750 
Q 2731 4750 3128 4425 
Q 3525 4100 3525 3541 
Q 3525 3141 3298 2862 
Q 3072 2584 2669 2484 
Q 3125 2378 3379 2068 
Q 3634 1759 3634 1313 
Q 3634 634 3220 271 
Q 2806 -91 2034 -91 
Q 1263 -91 848 271 
Q 434 634 434 1313 
Q 434 1759 690 2068 
Q 947 2378 1403 2484 
z
M 1172 3481 
Q 1172 3119 1398 2916 
Q 1625 2713 2034 2713 
Q 2441 2713 2670 2916 
Q 2900 3119 2900 3481 
Q 2900 3844 2670 4047 
Q 2441 4250 2034 4250 
Q 1625 4250 1398 4047 
Q 1172 3844 1172 3481 
z
" transform="scale(0.015625)"/>
       </defs>
       <use xlink:href="#DejaVuSans-38"/>
       <use xlink:href="#DejaVuSans-30" x="63.623047"/>
       <use xlink:href="#DejaVuSans-30" x="127.246094"/>
      </g>
     </g>
    </g>
    <g id="xtick_4">
     <g id="line2d_4">
      <g>
       <use xlink:href="#m7c0a742d35" x="719.436206" y="961.2" style="stroke: #000000; stroke-width: 0.8"/>
      </g>
     </g>
     <g id="text_4">
      <!-- 900 -->
      <g transform="translate(709.892456 975.798437) scale(0.1 -0.1)">
       <defs>
        <path id="DejaVuSans-39" d="M 703 97 
L 703 672 
Q 941 559 1184 500 
Q 1428 441 1663 441 
Q 2288 441 2617 861 
Q 2947 1281 2994 2138 
Q 2813 1869 2534 1725 
Q 2256 1581 1919 1581 
Q 1219 1581 811 2004 
Q 403 2428 403 3163 
Q 403 3881 828 4315 
Q 1253 4750 1959 4750 
Q 2769 4750 3195 4129 
Q 3622 3509 3622 2328 
Q 3622 1225 3098 567 
Q 2575 -91 1691 -91 
Q 1453 -91 1209 -44 
Q 966 3 703 97 
z
M 1959 2075 
Q 2384 2075 2632 2365 
Q 2881 2656 2881 3163 
Q 2881 3666 2632 3958 
Q 2384 4250 1959 4250 
Q 1534 4250 1286 3958 
Q 1038 3666 1038 3163 
Q 1038 2656 1286 2365 
Q 1534 2075 1959 2075 
z
" transform="scale(0.015625)"/>
       </defs>
       <use xlink:href="#DejaVuSans-39"/>
       <use xlink:href="#DejaVuSans-30" x="63.623047"/>
       <use xlink:href="#DejaVuSans-30" x="127.246094"/>
      </g>
     </g>
    </g>
    <g id="xtick_5">
     <g id="line2d_5">
      <g>
       <use xlink:href="#m7c0a742d35" x="834.420137" y="961.2" style="stroke: #000000; stroke-width: 0.8"/>
      </g>
     </g>
     <g id="text_5">
      <!-- 1000 -->
      <g transform="translate(821.695137 975.798437) scale(0.1 -0.1)">
       <defs>
        <path id="DejaVuSans-31" d="M 794 531 
L 1825 531 
L 1825 4091 
L 703 3866 
L 703 4441 
L 1819 4666 
L 2450 4666 
L 2450 531 
L 3481 531 
L 3481 0 
L 794 0 
L 794 531 
z
" transform="scale(0.015625)"/>
       </defs>
       <use xlink:href="#DejaVuSans-31"/>
       <use xlink:href="#DejaVuSans-30" x="63.623047"/>
       <use xlink:href="#DejaVuSans-30" x="127.246094"/>
       <use xlink:href="#DejaVuSans-30" x="190.869141"/>
      </g>
     </g>
    </g>
    <g id="xtick_6">
     <g id="line2d_6">
      <g>
       <use xlink:href="#m7c0a742d35" x="949.404068" y="961.2" style="stroke: #000000; stroke-width: 0.8"/>
      </g>
     </g>
     <g id="text_6">
      <!-- 1100 -->
      <g transform="translate(936.679068 975.798437) scale(0.1 -0.1)">
       <use xlink:href="#DejaVuSans-31"/>
       <use xlink:href="#DejaVuSans-31" x="63.623047"/>
       <use xlink:href="#DejaVuSans-30" x="127.246094"/>
       <use xlink:href="#DejaVuSans-30" x="190.869141"/>
      </g>
     </g>
    </g>
    <g id="xtick_7">
     <g id="line2d_7">
      <g>
       <use xlink:href="#m7c0a742d35" x="1064.388" y="961.2" style="stroke: #000000; stroke-width: 0.8"/>
      </g>
     </g>
     <g id="text_7">
      <!-- 1200 -->
      <g transform="translate(1051.663 975.798437) scale(0.1 -0.1)">
       <defs>
        <path id="DejaVuSans-32" d="M 1228 531 
L 3431 531 
L 3431 0 
L 469 0 
L 469 531 
Q 828 903 1448 1529 
Q 2069 2156 2228 2338 
Q 2531 2678 2651 2914 
Q 2772 3150 2772 3378 
Q 2772 3750 2511 3984 
Q 2250 4219 1831 4219 
Q 1534 4219 1204 4116 
Q 875 4013 500 3803 
L 500 4441 
Q 881 4594 1212 4672 
Q 1544 4750 1819 4750 
Q 2544 4750 2975 4387 
Q 3406 4025 3406 3419 
Q 3406 3131 3298 2873 
Q 3191 2616 2906 2266 
Q 2828 2175 2409 1742 
Q 1991 1309 1228 531 
z
" transform="scale(0.015625)"/>
       </defs>
       <use xlink:href="#DejaVuSans-31"/>
       <use xlink:href="#DejaVuSans-32" x="63.623047"/>
       <use xlink:href="#DejaVuSans-30" x="127.246094"/>
       <use xlink:href="#DejaVuSans-30" x="190.869141"/>
      </g>
     </g>
    </g>
   </g>
   <g id="matplotlib.axis_2">
    <g id="ytick_1">
     <g id="line2d_8">
      <defs>
       <path id="mc98581e6a9" d="M 0 0 
L -3.5 0 
" style="stroke: #000000; stroke-width: 0.8"/>
      </defs>
      <g>
       <use xlink:href="#mc98581e6a9" x="363.675071" y="946.471867" style="stroke: #000000; stroke-width: 0.8"/>
      </g>
     </g>
     <g id="text_8">
      <!-- 700 -->
      <g transform="translate(337.587571 950.271085) scale(0.1 -0.1)">
       <use xlink:href="#DejaVuSans-37"/>
       <use xlink:href="#DejaVuSans-30" x="63.623047"/>
       <use xlink:href="#DejaVuSans-30" x="127.246094"/>
      </g>
     </g>
    </g>
    <g id="ytick_2">
     <g id="line2d_9">
      <g>
       <use xlink:href="#mc98581e6a9" x="363.675071" y="831.487935" style="stroke: #000000; stroke-width: 0.8"/>
      </g>
     </g>
     <g id="text_9">
      <!-- 800 -->
      <g transform="translate(337.587571 835.287154) scale(0.1 -0.1)">
       <use xlink:href="#DejaVuSans-38"/>
       <use xlink:href="#DejaVuSans-30" x="63.623047"/>
       <use xlink:href="#DejaVuSans-30" x="127.246094"/>
      </g>
     </g>
    </g>
    <g id="ytick_3">
     <g id="line2d_10">
      <g>
       <use xlink:href="#mc98581e6a9" x="363.675071" y="716.504004" style="stroke: #000000; stroke-width: 0.8"/>
      </g>
     </g>
     <g id="text_10">
      <!-- 900 -->
      <g transform="translate(337.587571 720.303223) scale(0.1 -0.1)">
       <use xlink:href="#DejaVuSans-39"/>
       <use xlink:href="#DejaVuSans-30" x="63.623047"/>
       <use xlink:href="#DejaVuSans-30" x="127.246094"/>
      </g>
     </g>
    </g>
    <g id="ytick_4">
     <g id="line2d_11">
      <g>
       <use xlink:href="#mc98581e6a9" x="363.675071" y="601.520073" style="stroke: #000000; stroke-width: 0.8"/>
      </g>
     </g>
     <g id="text_11">
      <!-- 1000 -->
      <g transform="translate(331.225071 605.319292) scale(0.1 -0.1)">
       <use xlink:href="#DejaVuSans-31"/>
       <use xlink:href="#DejaVuSans-30" x="63.623047"/>
       <use xlink:href="#DejaVuSans-30" x="127.246094"/>
       <use xlink:href="#DejaVuSans-30" x="190.869141"/>
      </g>
     </g>
    </g>
    <g id="ytick_5">
     <g id="line2d_12">
      <g>
       <use xlink:href="#mc98581e6a9" x="363.675071" y="486.536142" style="stroke: #000000; stroke-width: 0.8"/>
      </g>
     </g>
     <g id="text_12">
      <!-- 1100 -->
      <g transform="translate(331.225071 490.335361) scale(0.1 -0.1)">
       <use xlink:href="#DejaVuSans-31"/>
       <use xlink:href="#DejaVuSans-31" x="63.623047"/>
       <use xlink:href="#DejaVuSans-30" x="127.246094"/>
       <use xlink:href="#DejaVuSans-30" x="190.869141"/>
      </g>
     </g>
    </g>
    <g id="ytick_6">
     <g id="line2d_13">
      <g>
       <use xlink:href="#mc98581e6a9" x="363.675071" y="371.552211" style="stroke: #000000; stroke-width: 0.8"/>
      </g>
     </g>
     <g id="text_13">
      <!-- 1200 -->
      <g transform="translate(331.225071 375.351429) scale(0.1 -0.1)">
       <use xlink:href="#DejaVuSans-31"/>
       <use xlink:href="#DejaVuSans-32" x="63.623047"/>
       <use xlink:href="#DejaVuSans-30" x="127.246094"/>
       <use xlink:href="#DejaVuSans-30" x="190.869141"/>
      </g>
     </g>
    </g>
    <g id="ytick_7">
     <g id="line2d_14">
      <g>
       <use xlink:href="#mc98581e6a9" x="363.675071" y="256.568279" style="stroke: #000000; stroke-width: 0.8"/>
      </g>
     </g>
     <g id="text_14">
      <!-- 1300 -->
      <g transform="translate(331.225071 260.367498) scale(0.1 -0.1)">
       <defs>
        <path id="DejaVuSans-33" d="M 2597 2516 
Q 3050 2419 3304 2112 
Q 3559 1806 3559 1356 
Q 3559 666 3084 287 
Q 2609 -91 1734 -91 
Q 1441 -91 1130 -33 
Q 819 25 488 141 
L 488 750 
Q 750 597 1062 519 
Q 1375 441 1716 441 
Q 2309 441 2620 675 
Q 2931 909 2931 1356 
Q 2931 1769 2642 2001 
Q 2353 2234 1838 2234 
L 1294 2234 
L 1294 2753 
L 1863 2753 
Q 2328 2753 2575 2939 
Q 2822 3125 2822 3475 
Q 2822 3834 2567 4026 
Q 2313 4219 1838 4219 
Q 1578 4219 1281 4162 
Q 984 4106 628 3988 
L 628 4550 
Q 988 4650 1302 4700 
Q 1616 4750 1894 4750 
Q 2613 4750 3031 4423 
Q 3450 4097 3450 3541 
Q 3450 3153 3228 2886 
Q 3006 2619 2597 2516 
z
" transform="scale(0.015625)"/>
       </defs>
       <use xlink:href="#DejaVuSans-31"/>
       <use xlink:href="#DejaVuSans-33" x="63.623047"/>
       <use xlink:href="#DejaVuSans-30" x="127.246094"/>
       <use xlink:href="#DejaVuSans-30" x="190.869141"/>
      </g>
     </g>
    </g>
    <g id="ytick_8">
     <g id="line2d_15">
      <g>
       <use xlink:href="#mc98581e6a9" x="363.675071" y="141.584348" style="stroke: #000000; stroke-width: 0.8"/>
      </g>
     </g>
     <g id="text_15">
      <!-- 1400 -->
      <g transform="translate(331.225071 145.383567) scale(0.1 -0.1)">
       <defs>
        <path id="DejaVuSans-34" d="M 2419 4116 
L 825 1625 
L 2419 1625 
L 2419 4116 
z
M 2253 4666 
L 3047 4666 
L 3047 1625 
L 3713 1625 
L 3713 1100 
L 3047 1100 
L 3047 0 
L 2419 0 
L 2419 1100 
L 313 1100 
L 313 1709 
L 2253 4666 
z
" transform="scale(0.015625)"/>
       </defs>
       <use xlink:href="#DejaVuSans-31"/>
       <use xlink:href="#DejaVuSans-34" x="63.623047"/>
       <use xlink:href="#DejaVuSans-30" x="127.246094"/>
       <use xlink:href="#DejaVuSans-30" x="190.869141"/>
      </g>
     </g>
    </g>
   </g>
   <g id="LineCollection_1">
    <path d="M 401.857145 923.4 
L 422.56925 921.868776 
L 441.767096 919.539874 
L 459.570388 916.475678 
L 476.085947 912.736304 
L 491.408586 908.381181 
L 505.622596 903.470441 
L 518.803814 898.06585 
L 531.022043 892.231037 
L 542.34347 886.030953 
L 552.832704 879.53064 
L 562.554145 872.793606 
L 571.572565 865.880133 
L 579.952979 858.845848 
L 587.760005 851.740754 
L 595.056983 844.608774 
L 601.905061 837.487752 
L 608.362421 830.409791 
L 614.483716 823.401784 
L 620.319726 816.486022 
L 631.319045 803.000979 
L 651.790939 777.624774 
L 661.723977 765.884703 
L 666.698228 760.265781 
L 671.705806 754.813415 
L 676.765941 749.52554 
L 681.896621 744.399183 
L 687.11477 739.430673 
L 692.436368 734.615844 
L 697.876518 729.950238 
L 703.44946 725.42929 
L 709.168539 721.048483 
L 715.04613 716.803472 
L 721.093549 712.690161 
L 727.320943 708.704742 
L 733.737179 704.843681 
L 740.349753 701.103679 
L 747.164703 697.481588 
L 754.186555 693.974313 
L 761.418288 690.578698 
L 768.86132 687.291399 
L 776.515518 684.108762 
L 784.379222 681.026708 
L 792.449278 678.040617 
L 800.721087 675.145226 
L 809.188648 672.33454 
L 817.84461 669.601742 
L 835.685888 664.338 
L 854.160978 659.280282 
L 873.16739 654.337181 
L 912.364985 644.303219 
L 932.263128 638.914701 
L 942.215497 636.046942 
L 952.142906 633.025511 
L 962.024213 629.817743 
L 971.837503 626.386912 
L 981.559761 622.691464 
L 991.166213 618.684143 
L 1000.629177 614.311064 
L 1009.916167 609.510934 
L 1018.987013 604.214796 
L 1027.789815 598.346946 
L 1036.255954 591.828002 
L 1044.295112 584.581198 
L 1050.030904 578.570249 
L 1051.792437 576.542426 
L 1056.929026 570.038925 
L 1058.611016 567.672836 
L 1063.09646 560.635809 
L 1064.602353 557.969906 
L 1068.382856 550.356818 
L 1069.624327 547.470752 
L 1072.644256 539.237499 
L 1073.56096 536.242873 
L 1075.762861 527.343779 
L 1076.335224 524.36368 
L 1077.659846 514.751502 
L 1077.90906 511.896959 
L 1078.29539 501.522889 
L 1078.271999 498.875876 
L 1077.425195 485.297226 
L 1075.367687 471.125241 
L 1072.088086 456.300147 
L 1067.561454 440.747166 
L 1061.749615 424.3837 
L 1054.603085 407.124154 
L 1046.063437 388.882739 
L 1036.065494 369.574862 
L 1024.539111 349.117646 
L 1011.410552 327.429973 
L 996.603508 304.43229 
L 980.039853 280.046333 
L 961.640197 254.194844 
L 941.324315 226.801315 
L 919.011478 197.78978 
L 894.874832 167.4 
L 894.874832 167.4 
" clip-path="url(#pf63367e1e0)" style="fill: none; stroke: #1f77b4; stroke-width: 1.5"/>
    <path d="M 399.780877 894.729098 
L 419.15918 893.325775 
L 436.951885 891.200057 
L 453.291823 888.423742 
L 468.303597 885.063817 
L 482.103997 881.182722 
L 494.802411 876.838597 
L 506.501209 872.085521 
L 517.296125 866.973747 
L 527.276608 861.549915 
L 536.526171 855.857269 
L 545.122719 849.935853 
L 553.138862 843.822705 
L 560.64222 837.552043 
L 567.695708 831.155432 
L 574.357806 824.661954 
L 580.682827 818.098365 
L 586.721157 811.489242 
L 592.519493 804.857124 
L 598.121066 798.222642 
L 603.565851 791.604649 
L 608.890763 785.020332 
L 614.129847 778.485324 
L 619.314453 772.013808 
L 624.4734 765.618608 
L 629.633131 759.311281 
L 634.817856 753.1022 
L 640.049687 747.000627 
L 645.348763 741.014782 
L 650.733361 735.151908 
L 656.220004 729.418329 
L 661.823558 723.819498 
L 667.557317 718.360044 
L 673.433087 713.043816 
L 679.461253 707.873913 
L 685.650845 702.852719 
L 692.009594 697.981926 
L 698.543981 693.262553 
L 705.259279 688.694967 
L 712.159588 684.278893 
L 719.247869 680.013421 
L 726.525957 675.89701 
L 733.994591 671.927491 
L 741.653416 668.102062 
L 749.500996 664.41728 
L 757.534813 660.869053 
L 765.751265 657.45263 
L 774.145662 654.162579 
L 782.71221 650.992775 
L 791.444 647.936377 
L 800.332991 644.985803 
L 809.369986 642.132709 
L 818.544608 639.367959 
L 827.845277 636.681601 
L 837.259177 634.062828 
L 846.772228 631.499959 
L 856.369052 628.980394 
L 866.03294 626.49059 
L 875.745816 624.016021 
L 885.488204 621.541145 
L 895.239186 619.049368 
L 904.97637 616.523011 
L 914.675853 613.94327 
L 924.312182 611.290183 
L 933.858321 608.542594 
L 943.285614 605.678118 
L 952.563752 602.673108 
L 961.660744 599.502621 
L 970.54288 596.140384 
L 979.174708 592.558766 
L 987.519006 588.728746 
L 995.53676 584.619888 
L 1003.187141 580.200309 
L 1010.427488 575.436661 
L 1017.213297 570.294105 
L 1023.498208 564.73629 
L 1029.234001 558.725342 
L 1034.37059 552.221841 
L 1038.856034 545.184813 
L 1042.636538 537.571725 
L 1045.656466 529.338471 
L 1047.858367 520.439378 
L 1049.18299 510.8272 
L 1049.56932 500.453131 
L 1048.954614 489.266808 
L 1047.274446 477.216325 
L 1044.462752 464.248256 
L 1040.451893 450.30767 
L 1035.172721 435.338162 
L 1028.554646 419.281883 
L 1020.525722 402.07958 
L 1011.012735 383.670634 
L 999.941303 363.993107 
L 987.235979 342.983801 
L 972.820371 320.578309 
L 956.617268 296.711088 
L 938.548772 271.315522 
L 918.536449 244.324005 
L 896.501481 215.668022 
L 872.364834 185.278242 
" clip-path="url(#pf63367e1e0)" style="fill: none; stroke: #8c564b; stroke-width: 1.5"/>
    <path d="M 397.70461 866.058195 
L 416.414521 864.703275 
L 432.836734 862.741292 
L 447.7412 860.208878 
L 461.26802 857.181314 
L 473.553952 853.726134 
L 484.732047 849.902109 
L 494.930636 845.758551 
L 504.271822 841.335169 
L 512.869754 836.662676 
L 520.829077 831.764108 
L 528.24388 826.656693 
L 535.197367 821.353932 
L 541.762265 815.867555 
L 548.001806 810.209089 
L 553.971068 804.390911 
L 559.718416 798.426784 
L 565.286843 792.331983 
L 570.715128 786.123127 
L 581.290438 773.434561 
L 612.995657 734.390621 
L 618.526015 727.946413 
L 624.177075 721.570216 
L 629.964563 715.277589 
L 635.902095 709.083283 
L 642.00116 703.001139 
L 648.271144 697.043969 
L 654.719392 691.223432 
L 661.351307 685.549905 
L 668.170483 680.032367 
L 675.178873 674.678313 
L 682.376963 669.493685 
L 689.76396 664.48285 
L 697.337967 659.648606 
L 705.096143 654.992226 
L 713.03484 650.513526 
L 721.149697 646.210955 
L 729.435716 642.081698 
L 737.88729 638.121779 
L 746.498208 634.326166 
L 755.261632 630.688865 
L 764.17005 627.203004 
L 773.21521 623.860903 
L 782.388046 620.654126 
L 791.678588 617.573528 
L 801.07587 614.609279 
L 810.567831 611.750889 
L 829.781458 606.306473 
L 849.197142 601.143454 
L 907.166172 586.195263 
L 925.703818 580.976664 
L 934.677664 578.249968 
L 943.403754 575.423756 
L 951.840408 572.483409 
L 959.94344 569.416094 
L 967.666576 566.211521 
L 974.962294 562.862798 
L 981.78328 559.367248 
L 988.084771 555.726914 
L 993.828005 551.948263 
L 998.984787 548.040249 
L 1003.542626 544.009702 
L 1007.508908 539.853151 
L 1010.911346 535.545281 
L 1013.791573 531.026613 
L 1016.190508 526.195693 
L 1018.12864 520.911752 
L 1019.588933 515.0099 
L 1020.510302 508.323952 
L 1020.793941 500.707419 
L 1020.317933 492.045082 
L 1018.95275 482.253735 
L 1016.572518 471.27565 
L 1013.060697 459.069573 
L 1008.311397 445.60256 
L 1002.228223 430.84402 
L 994.722179 414.762009 
L 985.709512 397.321249 
L 975.109897 378.482296 
L 962.845071 358.201389 
L 948.83786 336.43065 
L 933.011557 313.118456 
L 915.289533 288.209861 
L 895.595042 261.647019 
L 873.851153 233.369579 
L 849.854837 203.156484 
L 849.854837 203.156484 
" clip-path="url(#pf63367e1e0)" style="fill: none; stroke: #17becf; stroke-width: 1.5"/>
   </g>
   <g id="patch_3">
    <path d="M 363.675071 961.2 
L 363.675071 129.6 
" style="fill: none; stroke: #000000; stroke-width: 0.8; stroke-linejoin: miter; stroke-linecap: square"/>
   </g>
   <g id="patch_4">
    <path d="M 1112.324929 961.2 
L 1112.324929 129.6 
" style="fill: none; stroke: #000000; stroke-width: 0.8; stroke-linejoin: miter; stroke-linecap: square"/>
   </g>
   <g id="patch_5">
    <path d="M 363.675071 961.2 
L 1112.324929 961.2 
" style="fill: none; stroke: #000000; stroke-width: 0.8; stroke-linejoin: miter; stroke-linecap: square"/>
   </g>
   <g id="patch_6">
    <path d="M 363.675071 129.6 
L 1112.324929 129.6 
" style="fill: none; stroke: #000000; stroke-width: 0.8; stroke-linejoin: miter; stroke-linecap: square"/>
   </g>
  </g>
 </g>
 <defs>
  <clipPath id="pf63367e1e0">
   <rect x="363.675071" y="129.6" width="748.649859" height="831.6"/>
  </clipPath>
 </defs>
</svg>
