<?xml version="1.0" encoding="utf-8" standalone="no"?>
<!DOCTYPE svg PUBLIC "-//W3C//DTD SVG 1.1//EN"
  "http://www.w3.org/Graphics/SVG/1.1/DTD/svg11.dtd">
<svg xmlns:xlink="http://www.w3.org/1999/xlink" width="1440pt" height="1080pt" viewBox="0 0 1440 1080" xmlns="http://www.w3.org/2000/svg" version="1.1">
 <metadata>
  <rdf:RDF xmlns:dc="http://purl.org/dc/elements/1.1/" xmlns:cc="http://creativecommons.org/ns#" xmlns:rdf="http://www.w3.org/1999/02/22-rdf-syntax-ns#">
   <cc:Work>
    <dc:type rdf:resource="http://purl.org/dc/dcmitype/StillImage"/>
    <dc:date>2023-12-11T12:06:56.913814</dc:date>
    <dc:format>image/svg+xml</dc:format>
    <dc:creator>
     <cc:Agent>
      <dc:title>Matplotlib v3.7.1, https://matplotlib.org/</dc:title>
     </cc:Agent>
    </dc:creator>
   </cc:Work>
  </rdf:RDF>
 </metadata>
 <defs>
  <style type="text/css">*{stroke-linejoin: round; stroke-linecap: butt}</style>
 </defs>
 <g id="figure_1">
  <g id="patch_1">
   <path d="M 0 1080 
L 1440 1080 
L 1440 0 
L 0 0 
z
" style="fill: #ffffff"/>
  </g>
  <g id="axes_1">
   <g id="patch_2">
    <path d="M 452.318097 961.2 
L 1023.681903 961.2 
L 1023.681903 129.6 
L 452.318097 129.6 
z
" style="fill: #ffffff"/>
   </g>
   <g id="matplotlib.axis_1">
    <g id="xtick_1">
     <g id="line2d_1">
      <defs>
       <path id="m4e542b70a4" d="M 0 0 
L 0 3.5 
" style="stroke: #000000; stroke-width: 0.8"/>
      </defs>
      <g>
       <use xlink:href="#m4e542b70a4" x="456.83144" y="961.2" style="stroke: #000000; stroke-width: 0.8"/>
      </g>
     </g>
     <g id="text_1">
      <!-- 1100 -->
      <g transform="translate(444.10644 975.798437) scale(0.1 -0.1)">
       <defs>
        <path id="DejaVuSans-31" d="M 794 531 
L 1825 531 
L 1825 4091 
L 703 3866 
L 703 4441 
L 1819 4666 
L 2450 4666 
L 2450 531 
L 3481 531 
L 3481 0 
L 794 0 
L 794 531 
z
" transform="scale(0.015625)"/>
        <path id="DejaVuSans-30" d="M 2034 4250 
Q 1547 4250 1301 3770 
Q 1056 3291 1056 2328 
Q 1056 1369 1301 889 
Q 1547 409 2034 409 
Q 2525 409 2770 889 
Q 3016 1369 3016 2328 
Q 3016 3291 2770 3770 
Q 2525 4250 2034 4250 
z
M 2034 4750 
Q 2819 4750 3233 4129 
Q 3647 3509 3647 2328 
Q 3647 1150 3233 529 
Q 2819 -91 2034 -91 
Q 1250 -91 836 529 
Q 422 1150 422 2328 
Q 422 3509 836 4129 
Q 1250 4750 2034 4750 
z
" transform="scale(0.015625)"/>
       </defs>
       <use xlink:href="#DejaVuSans-31"/>
       <use xlink:href="#DejaVuSans-31" x="63.623047"/>
       <use xlink:href="#DejaVuSans-30" x="127.246094"/>
       <use xlink:href="#DejaVuSans-30" x="190.869141"/>
      </g>
     </g>
    </g>
    <g id="xtick_2">
     <g id="line2d_2">
      <g>
       <use xlink:href="#m4e542b70a4" x="583.498642" y="961.2" style="stroke: #000000; stroke-width: 0.8"/>
      </g>
     </g>
     <g id="text_2">
      <!-- 1200 -->
      <g transform="translate(570.773642 975.798437) scale(0.1 -0.1)">
       <defs>
        <path id="DejaVuSans-32" d="M 1228 531 
L 3431 531 
L 3431 0 
L 469 0 
L 469 531 
Q 828 903 1448 1529 
Q 2069 2156 2228 2338 
Q 2531 2678 2651 2914 
Q 2772 3150 2772 3378 
Q 2772 3750 2511 3984 
Q 2250 4219 1831 4219 
Q 1534 4219 1204 4116 
Q 875 4013 500 3803 
L 500 4441 
Q 881 4594 1212 4672 
Q 1544 4750 1819 4750 
Q 2544 4750 2975 4387 
Q 3406 4025 3406 3419 
Q 3406 3131 3298 2873 
Q 3191 2616 2906 2266 
Q 2828 2175 2409 1742 
Q 1991 1309 1228 531 
z
" transform="scale(0.015625)"/>
       </defs>
       <use xlink:href="#DejaVuSans-31"/>
       <use xlink:href="#DejaVuSans-32" x="63.623047"/>
       <use xlink:href="#DejaVuSans-30" x="127.246094"/>
       <use xlink:href="#DejaVuSans-30" x="190.869141"/>
      </g>
     </g>
    </g>
    <g id="xtick_3">
     <g id="line2d_3">
      <g>
       <use xlink:href="#m4e542b70a4" x="710.165844" y="961.2" style="stroke: #000000; stroke-width: 0.8"/>
      </g>
     </g>
     <g id="text_3">
      <!-- 1300 -->
      <g transform="translate(697.440844 975.798437) scale(0.1 -0.1)">
       <defs>
        <path id="DejaVuSans-33" d="M 2597 2516 
Q 3050 2419 3304 2112 
Q 3559 1806 3559 1356 
Q 3559 666 3084 287 
Q 2609 -91 1734 -91 
Q 1441 -91 1130 -33 
Q 819 25 488 141 
L 488 750 
Q 750 597 1062 519 
Q 1375 441 1716 441 
Q 2309 441 2620 675 
Q 2931 909 2931 1356 
Q 2931 1769 2642 2001 
Q 2353 2234 1838 2234 
L 1294 2234 
L 1294 2753 
L 1863 2753 
Q 2328 2753 2575 2939 
Q 2822 3125 2822 3475 
Q 2822 3834 2567 4026 
Q 2313 4219 1838 4219 
Q 1578 4219 1281 4162 
Q 984 4106 628 3988 
L 628 4550 
Q 988 4650 1302 4700 
Q 1616 4750 1894 4750 
Q 2613 4750 3031 4423 
Q 3450 4097 3450 3541 
Q 3450 3153 3228 2886 
Q 3006 2619 2597 2516 
z
" transform="scale(0.015625)"/>
       </defs>
       <use xlink:href="#DejaVuSans-31"/>
       <use xlink:href="#DejaVuSans-33" x="63.623047"/>
       <use xlink:href="#DejaVuSans-30" x="127.246094"/>
       <use xlink:href="#DejaVuSans-30" x="190.869141"/>
      </g>
     </g>
    </g>
    <g id="xtick_4">
     <g id="line2d_4">
      <g>
       <use xlink:href="#m4e542b70a4" x="836.833046" y="961.2" style="stroke: #000000; stroke-width: 0.8"/>
      </g>
     </g>
     <g id="text_4">
      <!-- 1400 -->
      <g transform="translate(824.108046 975.798437) scale(0.1 -0.1)">
       <defs>
        <path id="DejaVuSans-34" d="M 2419 4116 
L 825 1625 
L 2419 1625 
L 2419 4116 
z
M 2253 4666 
L 3047 4666 
L 3047 1625 
L 3713 1625 
L 3713 1100 
L 3047 1100 
L 3047 0 
L 2419 0 
L 2419 1100 
L 313 1100 
L 313 1709 
L 2253 4666 
z
" transform="scale(0.015625)"/>
       </defs>
       <use xlink:href="#DejaVuSans-31"/>
       <use xlink:href="#DejaVuSans-34" x="63.623047"/>
       <use xlink:href="#DejaVuSans-30" x="127.246094"/>
       <use xlink:href="#DejaVuSans-30" x="190.869141"/>
      </g>
     </g>
    </g>
    <g id="xtick_5">
     <g id="line2d_5">
      <g>
       <use xlink:href="#m4e542b70a4" x="963.500248" y="961.2" style="stroke: #000000; stroke-width: 0.8"/>
      </g>
     </g>
     <g id="text_5">
      <!-- 1500 -->
      <g transform="translate(950.775248 975.798437) scale(0.1 -0.1)">
       <defs>
        <path id="DejaVuSans-35" d="M 691 4666 
L 3169 4666 
L 3169 4134 
L 1269 4134 
L 1269 2991 
Q 1406 3038 1543 3061 
Q 1681 3084 1819 3084 
Q 2600 3084 3056 2656 
Q 3513 2228 3513 1497 
Q 3513 744 3044 326 
Q 2575 -91 1722 -91 
Q 1428 -91 1123 -41 
Q 819 9 494 109 
L 494 744 
Q 775 591 1075 516 
Q 1375 441 1709 441 
Q 2250 441 2565 725 
Q 2881 1009 2881 1497 
Q 2881 1984 2565 2268 
Q 2250 2553 1709 2553 
Q 1456 2553 1204 2497 
Q 953 2441 691 2322 
L 691 4666 
z
" transform="scale(0.015625)"/>
       </defs>
       <use xlink:href="#DejaVuSans-31"/>
       <use xlink:href="#DejaVuSans-35" x="63.623047"/>
       <use xlink:href="#DejaVuSans-30" x="127.246094"/>
       <use xlink:href="#DejaVuSans-30" x="190.869141"/>
      </g>
     </g>
    </g>
   </g>
   <g id="matplotlib.axis_2">
    <g id="ytick_1">
     <g id="line2d_6">
      <defs>
       <path id="mcacd8ac7fb" d="M 0 0 
L -3.5 0 
" style="stroke: #000000; stroke-width: 0.8"/>
      </defs>
      <g>
       <use xlink:href="#mcacd8ac7fb" x="452.318097" y="875.465815" style="stroke: #000000; stroke-width: 0.8"/>
      </g>
     </g>
     <g id="text_6">
      <!-- 300 -->
      <g transform="translate(426.230597 879.265033) scale(0.1 -0.1)">
       <use xlink:href="#DejaVuSans-33"/>
       <use xlink:href="#DejaVuSans-30" x="63.623047"/>
       <use xlink:href="#DejaVuSans-30" x="127.246094"/>
      </g>
     </g>
    </g>
    <g id="ytick_2">
     <g id="line2d_7">
      <g>
       <use xlink:href="#mcacd8ac7fb" x="452.318097" y="748.798612" style="stroke: #000000; stroke-width: 0.8"/>
      </g>
     </g>
     <g id="text_7">
      <!-- 400 -->
      <g transform="translate(426.230597 752.597831) scale(0.1 -0.1)">
       <use xlink:href="#DejaVuSans-34"/>
       <use xlink:href="#DejaVuSans-30" x="63.623047"/>
       <use xlink:href="#DejaVuSans-30" x="127.246094"/>
      </g>
     </g>
    </g>
    <g id="ytick_3">
     <g id="line2d_8">
      <g>
       <use xlink:href="#mcacd8ac7fb" x="452.318097" y="622.13141" style="stroke: #000000; stroke-width: 0.8"/>
      </g>
     </g>
     <g id="text_8">
      <!-- 500 -->
      <g transform="translate(426.230597 625.930629) scale(0.1 -0.1)">
       <use xlink:href="#DejaVuSans-35"/>
       <use xlink:href="#DejaVuSans-30" x="63.623047"/>
       <use xlink:href="#DejaVuSans-30" x="127.246094"/>
      </g>
     </g>
    </g>
    <g id="ytick_4">
     <g id="line2d_9">
      <g>
       <use xlink:href="#mcacd8ac7fb" x="452.318097" y="495.464208" style="stroke: #000000; stroke-width: 0.8"/>
      </g>
     </g>
     <g id="text_9">
      <!-- 600 -->
      <g transform="translate(426.230597 499.263427) scale(0.1 -0.1)">
       <defs>
        <path id="DejaVuSans-36" d="M 2113 2584 
Q 1688 2584 1439 2293 
Q 1191 2003 1191 1497 
Q 1191 994 1439 701 
Q 1688 409 2113 409 
Q 2538 409 2786 701 
Q 3034 994 3034 1497 
Q 3034 2003 2786 2293 
Q 2538 2584 2113 2584 
z
M 3366 4563 
L 3366 3988 
Q 3128 4100 2886 4159 
Q 2644 4219 2406 4219 
Q 1781 4219 1451 3797 
Q 1122 3375 1075 2522 
Q 1259 2794 1537 2939 
Q 1816 3084 2150 3084 
Q 2853 3084 3261 2657 
Q 3669 2231 3669 1497 
Q 3669 778 3244 343 
Q 2819 -91 2113 -91 
Q 1303 -91 875 529 
Q 447 1150 447 2328 
Q 447 3434 972 4092 
Q 1497 4750 2381 4750 
Q 2619 4750 2861 4703 
Q 3103 4656 3366 4563 
z
" transform="scale(0.015625)"/>
       </defs>
       <use xlink:href="#DejaVuSans-36"/>
       <use xlink:href="#DejaVuSans-30" x="63.623047"/>
       <use xlink:href="#DejaVuSans-30" x="127.246094"/>
      </g>
     </g>
    </g>
    <g id="ytick_5">
     <g id="line2d_10">
      <g>
       <use xlink:href="#mcacd8ac7fb" x="452.318097" y="368.797006" style="stroke: #000000; stroke-width: 0.8"/>
      </g>
     </g>
     <g id="text_10">
      <!-- 700 -->
      <g transform="translate(426.230597 372.596225) scale(0.1 -0.1)">
       <defs>
        <path id="DejaVuSans-37" d="M 525 4666 
L 3525 4666 
L 3525 4397 
L 1831 0 
L 1172 0 
L 2766 4134 
L 525 4134 
L 525 4666 
z
" transform="scale(0.015625)"/>
       </defs>
       <use xlink:href="#DejaVuSans-37"/>
       <use xlink:href="#DejaVuSans-30" x="63.623047"/>
       <use xlink:href="#DejaVuSans-30" x="127.246094"/>
      </g>
     </g>
    </g>
    <g id="ytick_6">
     <g id="line2d_11">
      <g>
       <use xlink:href="#mcacd8ac7fb" x="452.318097" y="242.129804" style="stroke: #000000; stroke-width: 0.8"/>
      </g>
     </g>
     <g id="text_11">
      <!-- 800 -->
      <g transform="translate(426.230597 245.929023) scale(0.1 -0.1)">
       <defs>
        <path id="DejaVuSans-38" d="M 2034 2216 
Q 1584 2216 1326 1975 
Q 1069 1734 1069 1313 
Q 1069 891 1326 650 
Q 1584 409 2034 409 
Q 2484 409 2743 651 
Q 3003 894 3003 1313 
Q 3003 1734 2745 1975 
Q 2488 2216 2034 2216 
z
M 1403 2484 
Q 997 2584 770 2862 
Q 544 3141 544 3541 
Q 544 4100 942 4425 
Q 1341 4750 2034 4750 
Q 2731 4750 3128 4425 
Q 3525 4100 3525 3541 
Q 3525 3141 3298 2862 
Q 3072 2584 2669 2484 
Q 3125 2378 3379 2068 
Q 3634 1759 3634 1313 
Q 3634 634 3220 271 
Q 2806 -91 2034 -91 
Q 1263 -91 848 271 
Q 434 634 434 1313 
Q 434 1759 690 2068 
Q 947 2378 1403 2484 
z
M 1172 3481 
Q 1172 3119 1398 2916 
Q 1625 2713 2034 2713 
Q 2441 2713 2670 2916 
Q 2900 3119 2900 3481 
Q 2900 3844 2670 4047 
Q 2441 4250 2034 4250 
Q 1625 4250 1398 4047 
Q 1172 3844 1172 3481 
z
" transform="scale(0.015625)"/>
       </defs>
       <use xlink:href="#DejaVuSans-38"/>
       <use xlink:href="#DejaVuSans-30" x="63.623047"/>
       <use xlink:href="#DejaVuSans-30" x="127.246094"/>
      </g>
     </g>
    </g>
   </g>
   <g id="LineCollection_1">
    <path d="M 918.7592 923.4 
L 927.406866 908.067388 
L 953.521011 863.234727 
L 961.72616 848.716459 
L 969.393614 834.504885 
L 976.389059 820.616083 
L 982.593232 807.047613 
L 987.895705 793.778875 
L 992.186301 780.773723 
L 995.344274 767.988539 
L 996.970107 757.843576 
L 997.228107 755.390571 
L 997.710821 745.873084 
L 997.674505 742.990075 
L 996.998594 734.097961 
L 996.521211 730.879895 
L 994.236908 720.911421 
L 993.662238 719.255438 
L 989.952894 709.953797 
L 989.112352 708.37795 
L 984.054602 699.85776 
L 983.025217 698.4817 
L 977.77465 691.988224 
L 975.637251 689.688637 
L 969.303343 683.752014 
L 967.181444 681.991676 
L 959.803387 676.58918 
L 957.833589 675.29762 
L 947.705932 669.481081 
L 936.865915 664.419323 
L 925.357696 660.006211 
L 913.217383 656.153948 
L 900.481482 652.790079 
L 887.1907 649.853602 
L 873.391126 647.291638 
L 859.134129 645.056947 
L 844.475699 643.106214 
L 829.475612 641.398911 
L 814.196593 639.896563 
L 798.703544 638.562293 
L 767.341892 636.256975 
L 689.816307 631.081635 
L 674.998974 629.906795 
L 660.564647 628.622303 
L 646.575806 627.204344 
L 633.093865 625.631172 
L 620.179251 623.883492 
L 607.891515 621.94496 
L 596.289462 619.802891 
L 585.431227 617.449231 
L 575.374184 614.881887 
L 566.174432 612.106498 
L 557.88544 609.138665 
L 550.555141 606.00644 
L 544.220436 602.752314 
L 538.898054 599.432915 
L 534.571635 596.112988 
L 531.17821 592.849161 
L 528.603118 589.661463 
L 526.696582 586.500386 
L 525.317103 583.231096 
L 524.383424 579.656441 
L 523.900609 575.573669 
L 523.943578 570.830042 
L 524.615883 565.346621 
L 526.012787 559.109341 
L 528.202502 552.145712 
L 531.222925 544.503055 
L 535.085963 536.234287 
L 539.783655 527.390659 
L 545.29344 518.019019 
L 551.581933 508.161427 
L 558.607344 497.855815 
L 566.320918 487.136961 
L 574.667705 476.03748 
L 583.586909 464.588675 
L 593.011971 452.821245 
L 602.870488 440.765828 
L 623.567948 415.915508 
L 645.018152 390.240991 
L 655.765898 377.187624 
L 666.380395 364.033845 
L 676.742593 350.80816 
L 686.725571 337.534429 
L 696.193755 324.227927 
L 705.001033 310.888888 
L 712.985999 297.492149 
L 719.959917 283.971569 
L 724.851754 272.468636 
L 725.677274 270.201171 
L 729.043451 259.17146 
L 729.770054 255.991093 
L 731.61395 243.349416 
L 731.634506 241.167845 
L 731.2567 231.344049 
L 730.981774 228.584382 
L 730.373827 225.87851 
L 727.064549 214.801725 
L 726.202198 212.874814 
L 725.16532 211.035923 
L 718.832809 201.106105 
L 717.507019 199.518735 
L 716.042841 198.058035 
L 708.064649 190.790212 
L 706.02092 189.133754 
L 703.799988 187.723739 
L 690.859609 180.624729 
L 688.96039 179.880016 
L 674.371854 174.900366 
L 671.421286 174.109447 
L 653.001159 170.473977 
L 650.738251 170.144253 
L 626.371464 167.900608 
L 599.117433 167.4 
L 599.117433 167.4 
" clip-path="url(#p1e64a562be)" style="fill: none; stroke: #1f77b4; stroke-width: 1.5"/>
    <path d="M 898.899975 912.199303 
L 907.618037 896.741878 
L 916.464866 881.506901 
L 925.216313 866.573776 
L 933.674484 852.011548 
L 941.666096 837.879566 
L 949.040909 824.228125 
L 955.670203 811.099077 
L 961.445332 798.526419 
L 966.276325 786.53686 
L 970.090552 775.150356 
L 972.831446 764.380631 
L 974.45728 754.235667 
L 974.939993 744.71818 
L 974.264082 735.826065 
L 972.425532 727.552829 
L 969.430805 719.887994 
L 965.295874 712.817488 
L 960.045308 706.324012 
L 953.711399 700.387389 
L 946.333342 694.984893 
L 937.95645 690.091563 
L 928.631418 685.680496 
L 918.413627 681.723124 
L 907.362486 678.189478 
L 895.540816 675.04843 
L 883.014269 672.267924 
L 869.850787 669.81519 
L 856.120088 667.656946 
L 841.893199 665.759582 
L 827.242007 664.089336 
L 812.23885 662.612452 
L 796.956138 661.29533 
L 781.465996 660.104659 
L 765.839942 659.007547 
L 750.148585 657.971633 
L 734.461354 656.965189 
L 718.846242 655.95722 
L 703.36958 654.917544 
L 688.095828 653.816873 
L 673.087386 652.626881 
L 658.404425 651.320263 
L 644.104729 649.870794 
L 630.243564 648.253372 
L 616.87355 646.444065 
L 604.044551 644.420142 
L 591.80358 642.16011 
L 580.194709 639.643741 
L 569.258987 636.852089 
L 559.034378 633.76752 
L 549.555688 630.373722 
L 540.854515 626.655724 
L 532.959186 622.599909 
L 525.894715 618.194025 
L 519.682746 613.427199 
L 514.341505 608.289945 
L 509.885751 602.774182 
L 506.326723 596.87324 
L 503.672081 590.58188 
L 501.925848 583.896307 
L 501.088341 576.814189 
L 501.156092 569.334683 
L 502.121772 561.458455 
L 503.97409 553.187711 
L 506.697693 544.526237 
L 510.273046 535.479427 
L 514.676297 526.054341 
L 519.879139 516.259746 
L 525.848636 506.106178 
L 532.54705 495.606009 
L 539.931638 484.773518 
L 547.954432 473.624971 
L 556.561994 462.178713 
L 565.695156 450.455269 
L 575.288727 438.47745 
L 585.271183 426.270476 
L 595.564317 413.862105 
L 606.082879 401.282776 
L 616.734173 388.565763 
L 627.417625 375.747342 
L 638.024326 362.866974 
L 648.436536 349.96749 
L 658.527155 337.095311 
L 668.159157 324.300659 
L 677.18499 311.637802 
L 685.445932 299.165303 
L 692.771418 286.946292 
L 698.978313 275.048751 
L 703.87015 263.545817 
L 707.236327 252.516105 
L 708.851252 242.044048 
L 708.473446 232.220253 
L 705.844601 223.141879 
L 700.688583 214.91304 
L 692.710392 207.645216 
L 681.595064 201.457699 
L 667.006529 196.478048 
L 648.586402 192.842578 
L 625.952737 190.696859 
L 598.698706 190.196251 
" clip-path="url(#p1e64a562be)" style="fill: none; stroke: #8c564b; stroke-width: 1.5"/>
    <path d="M 879.040751 900.998606 
L 887.901166 885.292449 
L 921.710931 826.848497 
L 928.830643 813.669271 
L 935.127396 801.198807 
L 940.500111 789.502217 
L 944.873554 778.648205 
L 948.20302 768.708846 
L 950.481628 759.755571 
L 951.749013 751.847273 
L 952.095996 745.005931 
L 951.653174 739.180276 
L 950.549508 734.213922 
L 948.84556 729.852762 
L 946.483712 725.814131 
L 943.305315 721.883347 
L 939.127091 717.967197 
L 933.814794 714.077329 
L 927.311531 710.278473 
L 919.627658 706.643731 
L 910.817503 703.23154 
L 900.959037 700.079257 
L 890.140735 697.204806 
L 878.454387 694.610798 
L 865.991629 692.288629 
L 852.842453 690.22179 
L 839.094675 688.388323 
L 824.833812 686.762575 
L 810.143099 685.316448 
L 795.103524 684.02028 
L 764.290523 681.754986 
L 686.293705 676.545638 
L 671.066422 675.337233 
L 656.105106 674.004124 
L 641.462177 672.517236 
L 627.185993 670.847523 
L 613.320514 668.965617 
L 599.904968 666.841298 
L 586.973541 664.442729 
L 574.555196 661.735374 
L 562.673774 658.680496 
L 551.348702 655.233185 
L 540.596844 651.339969 
L 530.436361 646.936417 
L 520.893696 641.945926 
L 512.014503 636.282256 
L 505.802533 631.51543 
L 503.877491 629.860042 
L 498.53625 624.722788 
L 496.605493 622.617482 
L 492.14974 617.101719 
L 490.361831 614.549621 
L 486.802803 608.648679 
L 485.320098 605.736992 
L 482.665456 599.445632 
L 481.612064 596.343827 
L 479.865831 589.658254 
L 479.283525 586.573913 
L 478.446017 579.491796 
L 478.289179 576.607669 
L 478.356931 569.128162 
L 478.525458 566.560012 
L 479.872832 556.475574 
L 482.223966 546.348378 
L 485.493463 536.1462 
L 489.616082 525.82882 
L 494.540716 515.358419 
L 500.224258 504.704226 
L 506.626756 493.843888 
L 513.708015 482.763302 
L 521.425302 471.455863 
L 529.731845 459.921623 
L 538.575791 448.166542 
L 547.899476 436.201912 
L 557.638835 424.043958 
L 567.722896 411.71362 
L 588.591858 386.657163 
L 609.85993 361.20168 
L 620.352853 348.459479 
L 630.592915 335.773267 
L 640.445779 323.204382 
L 649.765112 310.825064 
L 658.391887 298.722066 
L 666.154264 287.00231 
L 672.869139 275.801806 
L 678.348248 265.299303 
L 682.415708 255.734857 
L 684.951845 247.424876 
L 685.983868 240.732677 
L 685.797366 235.883221 
L 684.831027 232.546095 
L 683.025882 229.665142 
L 679.310669 226.280726 
L 672.293287 222.374393 
L 661.089936 218.550241 
L 645.294821 215.432853 
L 624.665584 213.477159 
L 598.27998 212.992502 
L 598.27998 212.992502 
" clip-path="url(#p1e64a562be)" style="fill: none; stroke: #17becf; stroke-width: 1.5"/>
   </g>
   <g id="patch_3">
    <path d="M 452.318097 961.2 
L 452.318097 129.6 
" style="fill: none; stroke: #000000; stroke-width: 0.8; stroke-linejoin: miter; stroke-linecap: square"/>
   </g>
   <g id="patch_4">
    <path d="M 1023.681903 961.2 
L 1023.681903 129.6 
" style="fill: none; stroke: #000000; stroke-width: 0.8; stroke-linejoin: miter; stroke-linecap: square"/>
   </g>
   <g id="patch_5">
    <path d="M 452.318097 961.2 
L 1023.681903 961.2 
" style="fill: none; stroke: #000000; stroke-width: 0.8; stroke-linejoin: miter; stroke-linecap: square"/>
   </g>
   <g id="patch_6">
    <path d="M 452.318097 129.6 
L 1023.681903 129.6 
" style="fill: none; stroke: #000000; stroke-width: 0.8; stroke-linejoin: miter; stroke-linecap: square"/>
   </g>
  </g>
 </g>
 <defs>
  <clipPath id="p1e64a562be">
   <rect x="452.318097" y="129.6" width="571.363805" height="831.6"/>
  </clipPath>
 </defs>
</svg>
