<?xml version="1.0" encoding="utf-8" standalone="no"?>
<!DOCTYPE svg PUBLIC "-//W3C//DTD SVG 1.1//EN"
  "http://www.w3.org/Graphics/SVG/1.1/DTD/svg11.dtd">
<svg xmlns:xlink="http://www.w3.org/1999/xlink" width="1440pt" height="1080pt" viewBox="0 0 1440 1080" xmlns="http://www.w3.org/2000/svg" version="1.1">
 <metadata>
  <rdf:RDF xmlns:dc="http://purl.org/dc/elements/1.1/" xmlns:cc="http://creativecommons.org/ns#" xmlns:rdf="http://www.w3.org/1999/02/22-rdf-syntax-ns#">
   <cc:Work>
    <dc:type rdf:resource="http://purl.org/dc/dcmitype/StillImage"/>
    <dc:date>2023-12-11T12:06:37.806576</dc:date>
    <dc:format>image/svg+xml</dc:format>
    <dc:creator>
     <cc:Agent>
      <dc:title>Matplotlib v3.7.1, https://matplotlib.org/</dc:title>
     </cc:Agent>
    </dc:creator>
   </cc:Work>
  </rdf:RDF>
 </metadata>
 <defs>
  <style type="text/css">*{stroke-linejoin: round; stroke-linecap: butt}</style>
 </defs>
 <g id="figure_1">
  <g id="patch_1">
   <path d="M 0 1080 
L 1440 1080 
L 1440 0 
L 0 0 
z
" style="fill: #ffffff"/>
  </g>
  <g id="axes_1">
   <g id="patch_2">
    <path d="M 521.461562 961.2 
L 954.538438 961.2 
L 954.538438 129.6 
L 521.461562 129.6 
z
" style="fill: #ffffff"/>
   </g>
   <g id="matplotlib.axis_1">
    <g id="xtick_1">
     <g id="line2d_1">
      <defs>
       <path id="maff6ebc672" d="M 0 0 
L 0 3.5 
" style="stroke: #000000; stroke-width: 0.8"/>
      </defs>
      <g>
       <use xlink:href="#maff6ebc672" x="585.380836" y="961.2" style="stroke: #000000; stroke-width: 0.8"/>
      </g>
     </g>
     <g id="text_1">
      <!-- 100 -->
      <g transform="translate(575.837086 975.798437) scale(0.1 -0.1)">
       <defs>
        <path id="DejaVuSans-31" d="M 794 531 
L 1825 531 
L 1825 4091 
L 703 3866 
L 703 4441 
L 1819 4666 
L 2450 4666 
L 2450 531 
L 3481 531 
L 3481 0 
L 794 0 
L 794 531 
z
" transform="scale(0.015625)"/>
        <path id="DejaVuSans-30" d="M 2034 4250 
Q 1547 4250 1301 3770 
Q 1056 3291 1056 2328 
Q 1056 1369 1301 889 
Q 1547 409 2034 409 
Q 2525 409 2770 889 
Q 3016 1369 3016 2328 
Q 3016 3291 2770 3770 
Q 2525 4250 2034 4250 
z
M 2034 4750 
Q 2819 4750 3233 4129 
Q 3647 3509 3647 2328 
Q 3647 1150 3233 529 
Q 2819 -91 2034 -91 
Q 1250 -91 836 529 
Q 422 1150 422 2328 
Q 422 3509 836 4129 
Q 1250 4750 2034 4750 
z
" transform="scale(0.015625)"/>
       </defs>
       <use xlink:href="#DejaVuSans-31"/>
       <use xlink:href="#DejaVuSans-30" x="63.623047"/>
       <use xlink:href="#DejaVuSans-30" x="127.246094"/>
      </g>
     </g>
    </g>
    <g id="xtick_2">
     <g id="line2d_2">
      <g>
       <use xlink:href="#maff6ebc672" x="650.300947" y="961.2" style="stroke: #000000; stroke-width: 0.8"/>
      </g>
     </g>
     <g id="text_2">
      <!-- 200 -->
      <g transform="translate(640.757197 975.798437) scale(0.1 -0.1)">
       <defs>
        <path id="DejaVuSans-32" d="M 1228 531 
L 3431 531 
L 3431 0 
L 469 0 
L 469 531 
Q 828 903 1448 1529 
Q 2069 2156 2228 2338 
Q 2531 2678 2651 2914 
Q 2772 3150 2772 3378 
Q 2772 3750 2511 3984 
Q 2250 4219 1831 4219 
Q 1534 4219 1204 4116 
Q 875 4013 500 3803 
L 500 4441 
Q 881 4594 1212 4672 
Q 1544 4750 1819 4750 
Q 2544 4750 2975 4387 
Q 3406 4025 3406 3419 
Q 3406 3131 3298 2873 
Q 3191 2616 2906 2266 
Q 2828 2175 2409 1742 
Q 1991 1309 1228 531 
z
" transform="scale(0.015625)"/>
       </defs>
       <use xlink:href="#DejaVuSans-32"/>
       <use xlink:href="#DejaVuSans-30" x="63.623047"/>
       <use xlink:href="#DejaVuSans-30" x="127.246094"/>
      </g>
     </g>
    </g>
    <g id="xtick_3">
     <g id="line2d_3">
      <g>
       <use xlink:href="#maff6ebc672" x="715.221057" y="961.2" style="stroke: #000000; stroke-width: 0.8"/>
      </g>
     </g>
     <g id="text_3">
      <!-- 300 -->
      <g transform="translate(705.677307 975.798437) scale(0.1 -0.1)">
       <defs>
        <path id="DejaVuSans-33" d="M 2597 2516 
Q 3050 2419 3304 2112 
Q 3559 1806 3559 1356 
Q 3559 666 3084 287 
Q 2609 -91 1734 -91 
Q 1441 -91 1130 -33 
Q 819 25 488 141 
L 488 750 
Q 750 597 1062 519 
Q 1375 441 1716 441 
Q 2309 441 2620 675 
Q 2931 909 2931 1356 
Q 2931 1769 2642 2001 
Q 2353 2234 1838 2234 
L 1294 2234 
L 1294 2753 
L 1863 2753 
Q 2328 2753 2575 2939 
Q 2822 3125 2822 3475 
Q 2822 3834 2567 4026 
Q 2313 4219 1838 4219 
Q 1578 4219 1281 4162 
Q 984 4106 628 3988 
L 628 4550 
Q 988 4650 1302 4700 
Q 1616 4750 1894 4750 
Q 2613 4750 3031 4423 
Q 3450 4097 3450 3541 
Q 3450 3153 3228 2886 
Q 3006 2619 2597 2516 
z
" transform="scale(0.015625)"/>
       </defs>
       <use xlink:href="#DejaVuSans-33"/>
       <use xlink:href="#DejaVuSans-30" x="63.623047"/>
       <use xlink:href="#DejaVuSans-30" x="127.246094"/>
      </g>
     </g>
    </g>
    <g id="xtick_4">
     <g id="line2d_4">
      <g>
       <use xlink:href="#maff6ebc672" x="780.141168" y="961.2" style="stroke: #000000; stroke-width: 0.8"/>
      </g>
     </g>
     <g id="text_4">
      <!-- 400 -->
      <g transform="translate(770.597418 975.798437) scale(0.1 -0.1)">
       <defs>
        <path id="DejaVuSans-34" d="M 2419 4116 
L 825 1625 
L 2419 1625 
L 2419 4116 
z
M 2253 4666 
L 3047 4666 
L 3047 1625 
L 3713 1625 
L 3713 1100 
L 3047 1100 
L 3047 0 
L 2419 0 
L 2419 1100 
L 313 1100 
L 313 1709 
L 2253 4666 
z
" transform="scale(0.015625)"/>
       </defs>
       <use xlink:href="#DejaVuSans-34"/>
       <use xlink:href="#DejaVuSans-30" x="63.623047"/>
       <use xlink:href="#DejaVuSans-30" x="127.246094"/>
      </g>
     </g>
    </g>
    <g id="xtick_5">
     <g id="line2d_5">
      <g>
       <use xlink:href="#maff6ebc672" x="845.061278" y="961.2" style="stroke: #000000; stroke-width: 0.8"/>
      </g>
     </g>
     <g id="text_5">
      <!-- 500 -->
      <g transform="translate(835.517528 975.798437) scale(0.1 -0.1)">
       <defs>
        <path id="DejaVuSans-35" d="M 691 4666 
L 3169 4666 
L 3169 4134 
L 1269 4134 
L 1269 2991 
Q 1406 3038 1543 3061 
Q 1681 3084 1819 3084 
Q 2600 3084 3056 2656 
Q 3513 2228 3513 1497 
Q 3513 744 3044 326 
Q 2575 -91 1722 -91 
Q 1428 -91 1123 -41 
Q 819 9 494 109 
L 494 744 
Q 775 591 1075 516 
Q 1375 441 1709 441 
Q 2250 441 2565 725 
Q 2881 1009 2881 1497 
Q 2881 1984 2565 2268 
Q 2250 2553 1709 2553 
Q 1456 2553 1204 2497 
Q 953 2441 691 2322 
L 691 4666 
z
" transform="scale(0.015625)"/>
       </defs>
       <use xlink:href="#DejaVuSans-35"/>
       <use xlink:href="#DejaVuSans-30" x="63.623047"/>
       <use xlink:href="#DejaVuSans-30" x="127.246094"/>
      </g>
     </g>
    </g>
    <g id="xtick_6">
     <g id="line2d_6">
      <g>
       <use xlink:href="#maff6ebc672" x="909.981389" y="961.2" style="stroke: #000000; stroke-width: 0.8"/>
      </g>
     </g>
     <g id="text_6">
      <!-- 600 -->
      <g transform="translate(900.437639 975.798437) scale(0.1 -0.1)">
       <defs>
        <path id="DejaVuSans-36" d="M 2113 2584 
Q 1688 2584 1439 2293 
Q 1191 2003 1191 1497 
Q 1191 994 1439 701 
Q 1688 409 2113 409 
Q 2538 409 2786 701 
Q 3034 994 3034 1497 
Q 3034 2003 2786 2293 
Q 2538 2584 2113 2584 
z
M 3366 4563 
L 3366 3988 
Q 3128 4100 2886 4159 
Q 2644 4219 2406 4219 
Q 1781 4219 1451 3797 
Q 1122 3375 1075 2522 
Q 1259 2794 1537 2939 
Q 1816 3084 2150 3084 
Q 2853 3084 3261 2657 
Q 3669 2231 3669 1497 
Q 3669 778 3244 343 
Q 2819 -91 2113 -91 
Q 1303 -91 875 529 
Q 447 1150 447 2328 
Q 447 3434 972 4092 
Q 1497 4750 2381 4750 
Q 2619 4750 2861 4703 
Q 3103 4656 3366 4563 
z
" transform="scale(0.015625)"/>
       </defs>
       <use xlink:href="#DejaVuSans-36"/>
       <use xlink:href="#DejaVuSans-30" x="63.623047"/>
       <use xlink:href="#DejaVuSans-30" x="127.246094"/>
      </g>
     </g>
    </g>
   </g>
   <g id="matplotlib.axis_2">
    <g id="ytick_1">
     <g id="line2d_7">
      <defs>
       <path id="m70dbbf65dc" d="M 0 0 
L -3.5 0 
" style="stroke: #000000; stroke-width: 0.8"/>
      </defs>
      <g>
       <use xlink:href="#m70dbbf65dc" x="521.461562" y="941.360165" style="stroke: #000000; stroke-width: 0.8"/>
      </g>
     </g>
     <g id="text_7">
      <!-- 0 -->
      <g transform="translate(508.099062 945.159384) scale(0.1 -0.1)">
       <use xlink:href="#DejaVuSans-30"/>
      </g>
     </g>
    </g>
    <g id="ytick_2">
     <g id="line2d_8">
      <g>
       <use xlink:href="#m70dbbf65dc" x="521.461562" y="811.519944" style="stroke: #000000; stroke-width: 0.8"/>
      </g>
     </g>
     <g id="text_8">
      <!-- 200 -->
      <g transform="translate(495.374062 815.319163) scale(0.1 -0.1)">
       <use xlink:href="#DejaVuSans-32"/>
       <use xlink:href="#DejaVuSans-30" x="63.623047"/>
       <use xlink:href="#DejaVuSans-30" x="127.246094"/>
      </g>
     </g>
    </g>
    <g id="ytick_3">
     <g id="line2d_9">
      <g>
       <use xlink:href="#m70dbbf65dc" x="521.461562" y="681.679723" style="stroke: #000000; stroke-width: 0.8"/>
      </g>
     </g>
     <g id="text_9">
      <!-- 400 -->
      <g transform="translate(495.374062 685.478942) scale(0.1 -0.1)">
       <use xlink:href="#DejaVuSans-34"/>
       <use xlink:href="#DejaVuSans-30" x="63.623047"/>
       <use xlink:href="#DejaVuSans-30" x="127.246094"/>
      </g>
     </g>
    </g>
    <g id="ytick_4">
     <g id="line2d_10">
      <g>
       <use xlink:href="#m70dbbf65dc" x="521.461562" y="551.839502" style="stroke: #000000; stroke-width: 0.8"/>
      </g>
     </g>
     <g id="text_10">
      <!-- 600 -->
      <g transform="translate(495.374062 555.638721) scale(0.1 -0.1)">
       <use xlink:href="#DejaVuSans-36"/>
       <use xlink:href="#DejaVuSans-30" x="63.623047"/>
       <use xlink:href="#DejaVuSans-30" x="127.246094"/>
      </g>
     </g>
    </g>
    <g id="ytick_5">
     <g id="line2d_11">
      <g>
       <use xlink:href="#m70dbbf65dc" x="521.461562" y="421.999281" style="stroke: #000000; stroke-width: 0.8"/>
      </g>
     </g>
     <g id="text_11">
      <!-- 800 -->
      <g transform="translate(495.374062 425.798499) scale(0.1 -0.1)">
       <defs>
        <path id="DejaVuSans-38" d="M 2034 2216 
Q 1584 2216 1326 1975 
Q 1069 1734 1069 1313 
Q 1069 891 1326 650 
Q 1584 409 2034 409 
Q 2484 409 2743 651 
Q 3003 894 3003 1313 
Q 3003 1734 2745 1975 
Q 2488 2216 2034 2216 
z
M 1403 2484 
Q 997 2584 770 2862 
Q 544 3141 544 3541 
Q 544 4100 942 4425 
Q 1341 4750 2034 4750 
Q 2731 4750 3128 4425 
Q 3525 4100 3525 3541 
Q 3525 3141 3298 2862 
Q 3072 2584 2669 2484 
Q 3125 2378 3379 2068 
Q 3634 1759 3634 1313 
Q 3634 634 3220 271 
Q 2806 -91 2034 -91 
Q 1263 -91 848 271 
Q 434 634 434 1313 
Q 434 1759 690 2068 
Q 947 2378 1403 2484 
z
M 1172 3481 
Q 1172 3119 1398 2916 
Q 1625 2713 2034 2713 
Q 2441 2713 2670 2916 
Q 2900 3119 2900 3481 
Q 2900 3844 2670 4047 
Q 2441 4250 2034 4250 
Q 1625 4250 1398 4047 
Q 1172 3844 1172 3481 
z
" transform="scale(0.015625)"/>
       </defs>
       <use xlink:href="#DejaVuSans-38"/>
       <use xlink:href="#DejaVuSans-30" x="63.623047"/>
       <use xlink:href="#DejaVuSans-30" x="127.246094"/>
      </g>
     </g>
    </g>
    <g id="ytick_6">
     <g id="line2d_12">
      <g>
       <use xlink:href="#m70dbbf65dc" x="521.461562" y="292.15906" style="stroke: #000000; stroke-width: 0.8"/>
      </g>
     </g>
     <g id="text_12">
      <!-- 1000 -->
      <g transform="translate(489.011562 295.958278) scale(0.1 -0.1)">
       <use xlink:href="#DejaVuSans-31"/>
       <use xlink:href="#DejaVuSans-30" x="63.623047"/>
       <use xlink:href="#DejaVuSans-30" x="127.246094"/>
       <use xlink:href="#DejaVuSans-30" x="190.869141"/>
      </g>
     </g>
    </g>
    <g id="ytick_7">
     <g id="line2d_13">
      <g>
       <use xlink:href="#m70dbbf65dc" x="521.461562" y="162.318838" style="stroke: #000000; stroke-width: 0.8"/>
      </g>
     </g>
     <g id="text_13">
      <!-- 1200 -->
      <g transform="translate(489.011562 166.118057) scale(0.1 -0.1)">
       <use xlink:href="#DejaVuSans-31"/>
       <use xlink:href="#DejaVuSans-32" x="63.623047"/>
       <use xlink:href="#DejaVuSans-30" x="127.246094"/>
       <use xlink:href="#DejaVuSans-30" x="190.869141"/>
      </g>
     </g>
    </g>
   </g>
   <g id="LineCollection_1">
    <path d="M 919.071016 167.624894 
L 919.25158 180.133168 
L 919.272247 192.236996 
L 919.160443 204.017818 
L 918.939257 215.498921 
L 918.628537 226.701472 
L 918.245157 237.644685 
L 917.803263 248.345977 
L 917.314509 258.821109 
L 916.788282 269.084325 
L 916.231902 279.148478 
L 915.650824 289.025148 
L 915.048818 298.72475 
L 914.428143 308.256639 
L 913.789707 317.629202 
L 913.133222 326.849946 
L 912.457344 335.925578 
L 911.7598 344.86208 
L 911.037519 353.664773 
L 910.286734 362.338385 
L 909.503095 370.887103 
L 908.681757 379.314628 
L 907.817466 387.624221 
L 906.904642 395.818748 
L 905.937442 403.900722 
L 904.909826 411.872339 
L 903.815609 419.735511 
L 902.648511 427.491901 
L 901.402199 435.142953 
L 900.07032 442.689917 
L 898.646529 450.133879 
L 897.124518 457.475785 
L 895.498029 464.716464 
L 893.760872 471.856651 
L 891.906932 478.897007 
L 889.930177 485.838143 
L 887.824654 492.680632 
L 885.584496 499.425033 
L 883.203907 506.071901 
L 880.677166 512.621805 
L 877.99861 519.075335 
L 875.162633 525.433116 
L 872.16367 531.695811 
L 868.996197 537.864127 
L 865.654722 543.938817 
L 862.133785 549.920679 
L 858.427963 555.810553 
L 854.531875 561.609322 
L 850.440207 567.317905 
L 846.147726 572.937257 
L 841.64932 578.468369 
L 836.94003 583.91227 
L 832.015108 589.270039 
L 826.870064 594.542815 
L 821.500735 599.731815 
L 815.903353 604.838367 
L 810.074628 609.863938 
L 804.011821 614.810177 
L 797.712841 619.678963 
L 791.176338 624.47246 
L 784.401797 629.193177 
L 777.38965 633.844036 
L 770.14138 638.428442 
L 762.659644 642.950365 
L 754.94839 647.414417 
L 747.012995 651.825946 
L 738.8604 656.191124 
L 730.499259 660.517048 
L 721.940096 664.811842 
L 713.195471 669.084776 
L 704.280154 673.346377 
L 695.211317 677.608569 
L 686.008722 681.884808 
L 676.692873 686.191197 
L 667.307499 690.536349 
L 667.283543 690.547489 
L 657.862202 694.948153 
L 657.816428 694.969715 
L 648.393554 699.445878 
L 648.323652 699.479511 
L 638.937765 704.0532 
L 638.84104 704.101166 
L 629.535071 708.796603 
L 629.408393 708.861981 
L 620.230022 713.705736 
L 620.069812 713.792695 
L 611.071825 718.81386 
L 610.874098 718.928029 
L 602.11476 724.15839 
L 601.875288 724.307328 
L 593.418738 729.781548 
L 593.133437 729.975327 
L 585.050099 735.731143 
L 584.71582 735.982969 
L 577.082833 742.061387 
L 576.698782 742.388079 
L 569.600454 748.833588 
L 569.170514 749.255441 
L 562.698794 756.116231 
L 562.234834 756.655409 
L 556.4898 763.983598 
L 556.015331 764.659801 
L 551.105707 772.511674 
L 550.657814 773.334159 
L 546.701505 781.770416 
L 546.327448 782.727714 
L 543.452096 791.813725 
L 543.197877 792.866618 
L 541.541444 802.672693 
L 541.435508 803.758243 
L 541.146874 814.359909 
L 541.189024 815.408387 
L 542.428619 826.886676 
L 542.592442 827.842021 
L 545.532893 840.283768 
L 545.778928 841.115071 
L 550.605734 854.613226 
L 550.895356 855.313651 
L 557.807589 869.9676 
L 558.110827 870.546256 
L 567.321856 886.462153 
L 567.619002 886.935566 
L 579.357247 904.226675 
L 579.637122 904.612946 
L 594.146823 923.4 
" clip-path="url(#p9fb8fa5805)" style="fill: none; stroke: #1f77b4; stroke-width: 1.5"/>
    <path d="M 926.860618 167.512447 
L 927.041897 180.070291 
L 927.062724 192.267311 
L 926.950144 204.129814 
L 926.727589 215.68195 
L 926.415169 226.945852 
L 926.029942 237.941777 
L 925.586182 248.688236 
L 925.095621 259.202115 
L 924.567678 269.498796 
L 924.009677 279.592264 
L 923.427053 289.495214 
L 922.823537 299.219146 
L 922.201336 308.774461 
L 921.561298 318.170546 
L 920.903065 327.415854 
L 920.225213 336.517982 
L 919.525385 345.483743 
L 918.800413 354.319228 
L 918.046423 363.029874 
L 917.258941 371.620515 
L 916.432983 380.09544 
L 915.563138 388.458439 
L 914.643643 396.712851 
L 913.668452 404.861602 
L 912.631292 412.907246 
L 911.525722 420.852002 
L 910.345174 428.697782 
L 909.082998 436.446222 
L 907.732496 444.098712 
L 906.28695 451.656416 
L 904.739653 459.120296 
L 903.083926 466.491133 
L 901.313139 473.769548 
L 899.420725 480.956013 
L 897.400191 488.050873 
L 895.245128 495.054357 
L 892.949222 501.966595 
L 890.506256 508.787627 
L 887.91012 515.517419 
L 885.154811 522.155873 
L 882.234444 528.702841 
L 879.143253 535.158135 
L 875.875599 541.521544 
L 872.425978 547.79284 
L 868.789029 553.971799 
L 864.959549 560.058209 
L 860.932502 566.051893 
L 856.703041 571.95272 
L 852.266529 577.760626 
L 847.61856 583.475635 
L 842.754992 589.097881 
L 837.671982 594.627632 
L 832.366024 600.065316 
L 826.833995 605.411552 
L 821.073207 610.667181 
L 815.081467 615.833304 
L 808.857142 620.911315 
L 802.399233 625.902945 
L 795.707456 630.810312 
L 788.782333 635.635959 
L 781.625291 640.38292 
L 774.238772 645.054767 
L 766.626349 649.655676 
L 758.792858 654.190492 
L 750.744536 658.664801 
L 742.489171 663.085005 
L 734.03627 667.458403 
L 725.397229 671.793279 
L 716.58552 676.098992 
L 707.616896 680.386075 
L 698.509605 684.66634 
L 689.284614 688.952986 
L 679.965854 693.260718 
L 670.580479 697.605871 
L 661.159139 702.006534 
L 651.736265 706.482697 
L 642.350378 711.056386 
L 633.044409 715.751823 
L 623.866038 720.595578 
L 614.868051 725.616742 
L 606.108712 730.847103 
L 597.652162 736.321323 
L 589.568823 742.077139 
L 581.935836 748.155557 
L 574.837509 754.601066 
L 568.365789 761.461855 
L 562.620755 768.790045 
L 557.711131 776.641918 
L 553.754821 785.078175 
L 550.879469 794.164186 
L 549.223036 803.970261 
L 548.934402 814.571927 
L 550.173997 826.050216 
L 553.114447 838.491962 
L 557.941253 851.990118 
L 564.853486 866.644067 
L 574.064516 882.559964 
L 585.80276 899.851072 
L 600.312462 918.638126 
" clip-path="url(#p9fb8fa5805)" style="fill: none; stroke: #8c564b; stroke-width: 1.5"/>
    <path d="M 934.650219 167.4 
L 934.832299 180.056989 
L 934.852786 192.341242 
L 934.739112 204.279871 
L 934.200805 227.218611 
L 933.368129 249.05133 
L 932.346213 269.928819 
L 930.597487 299.725352 
L 928.671964 327.994418 
L 926.561804 354.991051 
L 925.012618 372.376181 
L 923.305662 389.320913 
L 921.394931 405.857618 
L 919.229414 422.01117 
L 916.754858 437.800144 
L 913.938658 453.119942 
L 912.340654 460.827725 
L 910.653532 468.332765 
L 908.84673 475.75337 
L 906.913224 483.08979 
L 904.846061 490.342063 
L 902.638381 497.510033 
L 900.283433 504.593357 
L 897.774594 511.591517 
L 895.105386 518.503834 
L 892.269498 525.329479 
L 889.260799 532.067491 
L 886.073366 538.716796 
L 882.701495 545.276231 
L 879.139725 551.744566 
L 875.382853 558.120536 
L 871.425958 564.402872 
L 867.264411 570.590335 
L 862.893899 576.68176 
L 858.310435 582.676085 
L 853.510379 588.572399 
L 848.490452 594.369981 
L 843.247758 600.068336 
L 837.779805 605.667237 
L 832.084532 611.166758 
L 826.160345 616.567314 
L 820.006154 621.869694 
L 813.621425 627.075092 
L 807.006239 632.185146 
L 800.161365 637.201965 
L 793.088342 642.128173 
L 785.789571 646.96694 
L 778.268431 651.72203 
L 770.529395 656.39784 
L 762.578169 660.999454 
L 754.421841 665.532695 
L 746.069046 670.004184 
L 737.530147 674.421403 
L 719.945296 683.127679 
L 701.792513 691.731257 
L 655.114011 713.502873 
L 645.81152 718.035924 
L 636.617386 722.674933 
L 627.582668 727.442877 
L 618.763976 732.363989 
L 610.223749 737.463514 
L 602.030382 742.767367 
L 594.258071 748.301713 
L 586.986154 754.092597 
L 580.297695 760.165933 
L 574.277085 766.548493 
L 569.006895 773.270985 
L 564.565264 780.374404 
L 561.026809 787.919648 
L 558.470638 795.997058 
L 556.995685 804.728771 
L 556.736241 814.258284 
L 557.867237 824.730977 
L 560.596148 836.27765 
L 565.149018 849.009744 
L 571.759907 863.024843 
L 580.6671 878.415735 
L 592.114252 895.278048 
L 606.4781 913.876253 
L 606.4781 913.876253 
" clip-path="url(#p9fb8fa5805)" style="fill: none; stroke: #17becf; stroke-width: 1.5"/>
   </g>
   <g id="patch_3">
    <path d="M 521.461562 961.2 
L 521.461562 129.6 
" style="fill: none; stroke: #000000; stroke-width: 0.8; stroke-linejoin: miter; stroke-linecap: square"/>
   </g>
   <g id="patch_4">
    <path d="M 954.538438 961.2 
L 954.538438 129.6 
" style="fill: none; stroke: #000000; stroke-width: 0.8; stroke-linejoin: miter; stroke-linecap: square"/>
   </g>
   <g id="patch_5">
    <path d="M 521.461562 961.2 
L 954.538438 961.2 
" style="fill: none; stroke: #000000; stroke-width: 0.8; stroke-linejoin: miter; stroke-linecap: square"/>
   </g>
   <g id="patch_6">
    <path d="M 521.461562 129.6 
L 954.538438 129.6 
" style="fill: none; stroke: #000000; stroke-width: 0.8; stroke-linejoin: miter; stroke-linecap: square"/>
   </g>
  </g>
 </g>
 <defs>
  <clipPath id="p9fb8fa5805">
   <rect x="521.461562" y="129.6" width="433.076876" height="831.6"/>
  </clipPath>
 </defs>
</svg>
