<?xml version="1.0" encoding="utf-8" standalone="no"?>
<!DOCTYPE svg PUBLIC "-//W3C//DTD SVG 1.1//EN"
  "http://www.w3.org/Graphics/SVG/1.1/DTD/svg11.dtd">
<svg xmlns:xlink="http://www.w3.org/1999/xlink" width="1440pt" height="1080pt" viewBox="0 0 1440 1080" xmlns="http://www.w3.org/2000/svg" version="1.1">
 <metadata>
  <rdf:RDF xmlns:dc="http://purl.org/dc/elements/1.1/" xmlns:cc="http://creativecommons.org/ns#" xmlns:rdf="http://www.w3.org/1999/02/22-rdf-syntax-ns#">
   <cc:Work>
    <dc:type rdf:resource="http://purl.org/dc/dcmitype/StillImage"/>
    <dc:date>2023-12-11T12:06:47.781266</dc:date>
    <dc:format>image/svg+xml</dc:format>
    <dc:creator>
     <cc:Agent>
      <dc:title>Matplotlib v3.7.1, https://matplotlib.org/</dc:title>
     </cc:Agent>
    </dc:creator>
   </cc:Work>
  </rdf:RDF>
 </metadata>
 <defs>
  <style type="text/css">*{stroke-linejoin: round; stroke-linecap: butt}</style>
 </defs>
 <g id="figure_1">
  <g id="patch_1">
   <path d="M 0 1080 
L 1440 1080 
L 1440 0 
L 0 0 
z
" style="fill: #ffffff"/>
  </g>
  <g id="axes_1">
   <g id="patch_2">
    <path d="M 180 904.112831 
L 1296 904.112831 
L 1296 186.687169 
L 180 186.687169 
z
" style="fill: #ffffff"/>
   </g>
   <g id="matplotlib.axis_1">
    <g id="xtick_1">
     <g id="line2d_1">
      <defs>
       <path id="mb8a998c088" d="M 0 0 
L 0 3.5 
" style="stroke: #000000; stroke-width: 0.8"/>
      </defs>
      <g>
       <use xlink:href="#mb8a998c088" x="293.336582" y="904.112831" style="stroke: #000000; stroke-width: 0.8"/>
      </g>
     </g>
     <g id="text_1">
      <!-- 800 -->
      <g transform="translate(283.792832 918.711269) scale(0.1 -0.1)">
       <defs>
        <path id="DejaVuSans-38" d="M 2034 2216 
Q 1584 2216 1326 1975 
Q 1069 1734 1069 1313 
Q 1069 891 1326 650 
Q 1584 409 2034 409 
Q 2484 409 2743 651 
Q 3003 894 3003 1313 
Q 3003 1734 2745 1975 
Q 2488 2216 2034 2216 
z
M 1403 2484 
Q 997 2584 770 2862 
Q 544 3141 544 3541 
Q 544 4100 942 4425 
Q 1341 4750 2034 4750 
Q 2731 4750 3128 4425 
Q 3525 4100 3525 3541 
Q 3525 3141 3298 2862 
Q 3072 2584 2669 2484 
Q 3125 2378 3379 2068 
Q 3634 1759 3634 1313 
Q 3634 634 3220 271 
Q 2806 -91 2034 -91 
Q 1263 -91 848 271 
Q 434 634 434 1313 
Q 434 1759 690 2068 
Q 947 2378 1403 2484 
z
M 1172 3481 
Q 1172 3119 1398 2916 
Q 1625 2713 2034 2713 
Q 2441 2713 2670 2916 
Q 2900 3119 2900 3481 
Q 2900 3844 2670 4047 
Q 2441 4250 2034 4250 
Q 1625 4250 1398 4047 
Q 1172 3844 1172 3481 
z
" transform="scale(0.015625)"/>
        <path id="DejaVuSans-30" d="M 2034 4250 
Q 1547 4250 1301 3770 
Q 1056 3291 1056 2328 
Q 1056 1369 1301 889 
Q 1547 409 2034 409 
Q 2525 409 2770 889 
Q 3016 1369 3016 2328 
Q 3016 3291 2770 3770 
Q 2525 4250 2034 4250 
z
M 2034 4750 
Q 2819 4750 3233 4129 
Q 3647 3509 3647 2328 
Q 3647 1150 3233 529 
Q 2819 -91 2034 -91 
Q 1250 -91 836 529 
Q 422 1150 422 2328 
Q 422 3509 836 4129 
Q 1250 4750 2034 4750 
z
" transform="scale(0.015625)"/>
       </defs>
       <use xlink:href="#DejaVuSans-38"/>
       <use xlink:href="#DejaVuSans-30" x="63.623047"/>
       <use xlink:href="#DejaVuSans-30" x="127.246094"/>
      </g>
     </g>
    </g>
    <g id="xtick_2">
     <g id="line2d_2">
      <g>
       <use xlink:href="#mb8a998c088" x="440.592362" y="904.112831" style="stroke: #000000; stroke-width: 0.8"/>
      </g>
     </g>
     <g id="text_2">
      <!-- 900 -->
      <g transform="translate(431.048612 918.711269) scale(0.1 -0.1)">
       <defs>
        <path id="DejaVuSans-39" d="M 703 97 
L 703 672 
Q 941 559 1184 500 
Q 1428 441 1663 441 
Q 2288 441 2617 861 
Q 2947 1281 2994 2138 
Q 2813 1869 2534 1725 
Q 2256 1581 1919 1581 
Q 1219 1581 811 2004 
Q 403 2428 403 3163 
Q 403 3881 828 4315 
Q 1253 4750 1959 4750 
Q 2769 4750 3195 4129 
Q 3622 3509 3622 2328 
Q 3622 1225 3098 567 
Q 2575 -91 1691 -91 
Q 1453 -91 1209 -44 
Q 966 3 703 97 
z
M 1959 2075 
Q 2384 2075 2632 2365 
Q 2881 2656 2881 3163 
Q 2881 3666 2632 3958 
Q 2384 4250 1959 4250 
Q 1534 4250 1286 3958 
Q 1038 3666 1038 3163 
Q 1038 2656 1286 2365 
Q 1534 2075 1959 2075 
z
" transform="scale(0.015625)"/>
       </defs>
       <use xlink:href="#DejaVuSans-39"/>
       <use xlink:href="#DejaVuSans-30" x="63.623047"/>
       <use xlink:href="#DejaVuSans-30" x="127.246094"/>
      </g>
     </g>
    </g>
    <g id="xtick_3">
     <g id="line2d_3">
      <g>
       <use xlink:href="#mb8a998c088" x="587.848143" y="904.112831" style="stroke: #000000; stroke-width: 0.8"/>
      </g>
     </g>
     <g id="text_3">
      <!-- 1000 -->
      <g transform="translate(575.123143 918.711269) scale(0.1 -0.1)">
       <defs>
        <path id="DejaVuSans-31" d="M 794 531 
L 1825 531 
L 1825 4091 
L 703 3866 
L 703 4441 
L 1819 4666 
L 2450 4666 
L 2450 531 
L 3481 531 
L 3481 0 
L 794 0 
L 794 531 
z
" transform="scale(0.015625)"/>
       </defs>
       <use xlink:href="#DejaVuSans-31"/>
       <use xlink:href="#DejaVuSans-30" x="63.623047"/>
       <use xlink:href="#DejaVuSans-30" x="127.246094"/>
       <use xlink:href="#DejaVuSans-30" x="190.869141"/>
      </g>
     </g>
    </g>
    <g id="xtick_4">
     <g id="line2d_4">
      <g>
       <use xlink:href="#mb8a998c088" x="735.103923" y="904.112831" style="stroke: #000000; stroke-width: 0.8"/>
      </g>
     </g>
     <g id="text_4">
      <!-- 1100 -->
      <g transform="translate(722.378923 918.711269) scale(0.1 -0.1)">
       <use xlink:href="#DejaVuSans-31"/>
       <use xlink:href="#DejaVuSans-31" x="63.623047"/>
       <use xlink:href="#DejaVuSans-30" x="127.246094"/>
       <use xlink:href="#DejaVuSans-30" x="190.869141"/>
      </g>
     </g>
    </g>
    <g id="xtick_5">
     <g id="line2d_5">
      <g>
       <use xlink:href="#mb8a998c088" x="882.359703" y="904.112831" style="stroke: #000000; stroke-width: 0.8"/>
      </g>
     </g>
     <g id="text_5">
      <!-- 1200 -->
      <g transform="translate(869.634703 918.711269) scale(0.1 -0.1)">
       <defs>
        <path id="DejaVuSans-32" d="M 1228 531 
L 3431 531 
L 3431 0 
L 469 0 
L 469 531 
Q 828 903 1448 1529 
Q 2069 2156 2228 2338 
Q 2531 2678 2651 2914 
Q 2772 3150 2772 3378 
Q 2772 3750 2511 3984 
Q 2250 4219 1831 4219 
Q 1534 4219 1204 4116 
Q 875 4013 500 3803 
L 500 4441 
Q 881 4594 1212 4672 
Q 1544 4750 1819 4750 
Q 2544 4750 2975 4387 
Q 3406 4025 3406 3419 
Q 3406 3131 3298 2873 
Q 3191 2616 2906 2266 
Q 2828 2175 2409 1742 
Q 1991 1309 1228 531 
z
" transform="scale(0.015625)"/>
       </defs>
       <use xlink:href="#DejaVuSans-31"/>
       <use xlink:href="#DejaVuSans-32" x="63.623047"/>
       <use xlink:href="#DejaVuSans-30" x="127.246094"/>
       <use xlink:href="#DejaVuSans-30" x="190.869141"/>
      </g>
     </g>
    </g>
    <g id="xtick_6">
     <g id="line2d_6">
      <g>
       <use xlink:href="#mb8a998c088" x="1029.615483" y="904.112831" style="stroke: #000000; stroke-width: 0.8"/>
      </g>
     </g>
     <g id="text_6">
      <!-- 1300 -->
      <g transform="translate(1016.890483 918.711269) scale(0.1 -0.1)">
       <defs>
        <path id="DejaVuSans-33" d="M 2597 2516 
Q 3050 2419 3304 2112 
Q 3559 1806 3559 1356 
Q 3559 666 3084 287 
Q 2609 -91 1734 -91 
Q 1441 -91 1130 -33 
Q 819 25 488 141 
L 488 750 
Q 750 597 1062 519 
Q 1375 441 1716 441 
Q 2309 441 2620 675 
Q 2931 909 2931 1356 
Q 2931 1769 2642 2001 
Q 2353 2234 1838 2234 
L 1294 2234 
L 1294 2753 
L 1863 2753 
Q 2328 2753 2575 2939 
Q 2822 3125 2822 3475 
Q 2822 3834 2567 4026 
Q 2313 4219 1838 4219 
Q 1578 4219 1281 4162 
Q 984 4106 628 3988 
L 628 4550 
Q 988 4650 1302 4700 
Q 1616 4750 1894 4750 
Q 2613 4750 3031 4423 
Q 3450 4097 3450 3541 
Q 3450 3153 3228 2886 
Q 3006 2619 2597 2516 
z
" transform="scale(0.015625)"/>
       </defs>
       <use xlink:href="#DejaVuSans-31"/>
       <use xlink:href="#DejaVuSans-33" x="63.623047"/>
       <use xlink:href="#DejaVuSans-30" x="127.246094"/>
       <use xlink:href="#DejaVuSans-30" x="190.869141"/>
      </g>
     </g>
    </g>
    <g id="xtick_7">
     <g id="line2d_7">
      <g>
       <use xlink:href="#mb8a998c088" x="1176.871263" y="904.112831" style="stroke: #000000; stroke-width: 0.8"/>
      </g>
     </g>
     <g id="text_7">
      <!-- 1400 -->
      <g transform="translate(1164.146263 918.711269) scale(0.1 -0.1)">
       <defs>
        <path id="DejaVuSans-34" d="M 2419 4116 
L 825 1625 
L 2419 1625 
L 2419 4116 
z
M 2253 4666 
L 3047 4666 
L 3047 1625 
L 3713 1625 
L 3713 1100 
L 3047 1100 
L 3047 0 
L 2419 0 
L 2419 1100 
L 313 1100 
L 313 1709 
L 2253 4666 
z
" transform="scale(0.015625)"/>
       </defs>
       <use xlink:href="#DejaVuSans-31"/>
       <use xlink:href="#DejaVuSans-34" x="63.623047"/>
       <use xlink:href="#DejaVuSans-30" x="127.246094"/>
       <use xlink:href="#DejaVuSans-30" x="190.869141"/>
      </g>
     </g>
    </g>
   </g>
   <g id="matplotlib.axis_2">
    <g id="ytick_1">
     <g id="line2d_8">
      <defs>
       <path id="m8559df31b4" d="M 0 0 
L -3.5 0 
" style="stroke: #000000; stroke-width: 0.8"/>
      </defs>
      <g>
       <use xlink:href="#m8559df31b4" x="180" y="901.014087" style="stroke: #000000; stroke-width: 0.8"/>
      </g>
     </g>
     <g id="text_8">
      <!-- 100 -->
      <g transform="translate(153.9125 904.813306) scale(0.1 -0.1)">
       <use xlink:href="#DejaVuSans-31"/>
       <use xlink:href="#DejaVuSans-30" x="63.623047"/>
       <use xlink:href="#DejaVuSans-30" x="127.246094"/>
      </g>
     </g>
    </g>
    <g id="ytick_2">
     <g id="line2d_9">
      <g>
       <use xlink:href="#m8559df31b4" x="180" y="753.758307" style="stroke: #000000; stroke-width: 0.8"/>
      </g>
     </g>
     <g id="text_9">
      <!-- 200 -->
      <g transform="translate(153.9125 757.557525) scale(0.1 -0.1)">
       <use xlink:href="#DejaVuSans-32"/>
       <use xlink:href="#DejaVuSans-30" x="63.623047"/>
       <use xlink:href="#DejaVuSans-30" x="127.246094"/>
      </g>
     </g>
    </g>
    <g id="ytick_3">
     <g id="line2d_10">
      <g>
       <use xlink:href="#m8559df31b4" x="180" y="606.502527" style="stroke: #000000; stroke-width: 0.8"/>
      </g>
     </g>
     <g id="text_10">
      <!-- 300 -->
      <g transform="translate(153.9125 610.301745) scale(0.1 -0.1)">
       <use xlink:href="#DejaVuSans-33"/>
       <use xlink:href="#DejaVuSans-30" x="63.623047"/>
       <use xlink:href="#DejaVuSans-30" x="127.246094"/>
      </g>
     </g>
    </g>
    <g id="ytick_4">
     <g id="line2d_11">
      <g>
       <use xlink:href="#m8559df31b4" x="180" y="459.246746" style="stroke: #000000; stroke-width: 0.8"/>
      </g>
     </g>
     <g id="text_11">
      <!-- 400 -->
      <g transform="translate(153.9125 463.045965) scale(0.1 -0.1)">
       <use xlink:href="#DejaVuSans-34"/>
       <use xlink:href="#DejaVuSans-30" x="63.623047"/>
       <use xlink:href="#DejaVuSans-30" x="127.246094"/>
      </g>
     </g>
    </g>
    <g id="ytick_5">
     <g id="line2d_12">
      <g>
       <use xlink:href="#m8559df31b4" x="180" y="311.990966" style="stroke: #000000; stroke-width: 0.8"/>
      </g>
     </g>
     <g id="text_12">
      <!-- 500 -->
      <g transform="translate(153.9125 315.790185) scale(0.1 -0.1)">
       <defs>
        <path id="DejaVuSans-35" d="M 691 4666 
L 3169 4666 
L 3169 4134 
L 1269 4134 
L 1269 2991 
Q 1406 3038 1543 3061 
Q 1681 3084 1819 3084 
Q 2600 3084 3056 2656 
Q 3513 2228 3513 1497 
Q 3513 744 3044 326 
Q 2575 -91 1722 -91 
Q 1428 -91 1123 -41 
Q 819 9 494 109 
L 494 744 
Q 775 591 1075 516 
Q 1375 441 1709 441 
Q 2250 441 2565 725 
Q 2881 1009 2881 1497 
Q 2881 1984 2565 2268 
Q 2250 2553 1709 2553 
Q 1456 2553 1204 2497 
Q 953 2441 691 2322 
L 691 4666 
z
" transform="scale(0.015625)"/>
       </defs>
       <use xlink:href="#DejaVuSans-35"/>
       <use xlink:href="#DejaVuSans-30" x="63.623047"/>
       <use xlink:href="#DejaVuSans-30" x="127.246094"/>
      </g>
     </g>
    </g>
   </g>
   <g id="LineCollection_1">
    <path d="M 302.933811 488.53376 
L 312.512735 440.492717 
L 322.077356 400.421561 
L 331.642774 367.333551 
L 341.063763 340.850842 
L 350.100304 320.658732 
L 358.34255 306.476967 
L 365.120261 297.923692 
L 369.560547 294.139285 
L 371.428871 293.288829 
L 372.57959 293.441148 
L 376.196871 294.860032 
L 382.178964 298.588363 
L 389.840879 304.931948 
L 398.5775 313.743588 
L 407.984716 324.723762 
L 417.811167 337.553078 
L 427.90068 351.934041 
L 438.153824 367.59977 
L 448.505203 384.312806 
L 458.910365 401.861706 
L 469.33818 420.05767 
L 479.766302 438.731739 
L 490.178403 457.732544 
L 510.909453 496.186378 
L 541.711637 553.440681 
L 551.877822 572.042621 
L 561.99068 590.28483 
L 572.050904 608.111424 
L 582.06008 625.474656 
L 592.020613 642.334283 
L 601.935691 658.656956 
L 611.809232 674.415617 
L 621.645856 689.588915 
L 631.450842 704.160621 
L 641.230085 718.119055 
L 650.99005 731.456518 
L 660.7377 744.168722 
L 670.480421 756.25424 
L 680.225915 767.713959 
L 689.982068 778.550551 
L 699.756799 788.767973 
L 709.557872 798.370995 
L 719.392684 807.364781 
L 729.268041 815.754523 
L 739.189917 823.545139 
L 749.163219 830.741058 
L 759.191579 837.346074 
L 769.277179 843.363284 
L 779.420633 848.795098 
L 789.620941 853.643292 
L 799.875507 857.90911 
L 810.180232 861.593359 
L 820.52966 864.696513 
L 830.917169 867.218777 
L 841.335172 869.16013 
L 851.77532 870.520328 
L 862.22869 871.298888 
L 872.685949 871.495069 
L 883.137503 871.107843 
L 893.573636 870.135885 
L 903.984665 868.577578 
L 914.361118 866.431023 
L 924.693942 863.694036 
L 934.974761 860.364136 
L 945.196147 856.438481 
L 955.35191 851.913769 
L 965.437366 846.786074 
L 975.449561 841.050662 
L 985.387424 834.70178 
L 995.251836 827.732461 
L 1005.045619 820.134373 
L 1014.773431 811.897735 
L 1024.441609 803.011332 
L 1034.057958 793.462628 
L 1043.631527 783.237989 
L 1053.172379 772.323011 
L 1062.691385 760.702937 
L 1072.200042 748.363154 
L 1081.710327 735.289761 
L 1091.234598 721.470176 
L 1100.785519 706.8938 
L 1110.376026 691.552704 
L 1120.019327 675.442343 
L 1129.728908 658.562303 
L 1139.518575 640.917062 
L 1149.402492 622.516778 
L 1159.395232 603.378111 
L 1169.511824 583.525064 
L 1179.767799 562.989863 
L 1200.762687 520.048609 
L 1233.751573 451.838622 
L 1245.272727 428.320509 
L 1245.272727 428.320509 
" clip-path="url(#pe6df23ed69)" style="fill: none; stroke: #1f77b4; stroke-width: 1.5"/>
    <path d="M 266.830542 481.335113 
L 276.544448 432.6171 
L 286.470701 391.030877 
L 296.585656 356.041948 
L 306.86689 327.141061 
L 317.293175 303.843578 
L 327.844451 285.688849 
L 338.501801 272.239582 
L 349.247419 263.081212 
L 360.064583 257.821268 
L 370.937628 256.088741 
L 381.851913 257.533452 
L 392.793793 261.82542 
L 403.75059 268.654228 
L 414.710563 277.728398 
L 425.662875 288.774755 
L 436.597566 301.53781 
L 447.50552 315.779125 
L 458.378435 331.2767 
L 469.208793 347.824352 
L 479.989828 365.231099 
L 490.715497 383.320551 
L 501.380447 401.930304 
L 511.979988 420.911339 
L 522.510059 440.127425 
L 532.9672 459.454531 
L 543.348521 478.780238 
L 553.651676 498.003167 
L 563.874826 517.032402 
L 574.016618 535.786934 
L 584.076152 554.195097 
L 594.052954 572.194028 
L 603.946948 589.729124 
L 613.75843 606.753514 
L 623.488038 623.227537 
L 633.13673 639.118233 
L 642.705756 654.39884 
L 652.196634 669.048308 
L 661.611124 683.050815 
L 670.951209 696.395304 
L 680.219067 709.075027 
L 689.417051 721.087098 
L 698.547672 732.432066 
L 707.613573 743.113497 
L 716.61751 753.137567 
L 725.56234 762.512676 
L 734.450996 771.249068 
L 743.286478 779.358475 
L 752.071829 786.853765 
L 760.810131 793.748614 
L 769.504483 800.057194 
L 778.157996 805.79387 
L 786.773779 810.972923 
L 795.354929 815.608282 
L 803.904527 819.71328 
L 812.425628 823.300425 
L 820.921255 826.381188 
L 829.394398 828.965812 
L 837.848011 831.063142 
L 846.28501 832.68047 
L 854.708274 833.823402 
L 863.120648 834.49575 
L 871.524944 834.699436 
L 879.923952 834.434424 
L 888.32044 833.698672 
L 896.717171 832.488105 
L 905.116905 830.796614 
L 913.522418 828.616071 
L 921.936513 825.936376 
L 930.362038 822.745518 
L 938.801902 819.029673 
L 947.259096 814.77331 
L 955.736715 809.959341 
L 964.237983 804.569277 
L 972.766278 798.583427 
L 981.325159 791.981108 
L 989.918398 784.740897 
L 998.550012 776.840895 
L 1007.224299 768.259031 
L 1015.945872 758.973384 
L 1024.7197 748.96254 
L 1033.551151 738.205974 
L 1042.446034 726.684465 
L 1051.410644 714.380534 
L 1060.451816 701.278919 
L 1069.57697 687.367074 
L 1078.79417 672.635704 
L 1088.112176 657.079329 
L 1097.540508 640.696877 
L 1107.089503 623.492313 
L 1116.770382 605.475301 
L 1126.595314 586.661892 
L 1136.577492 567.07525 
L 1146.731198 546.746417 
L 1157.071883 525.715099 
L 1167.616244 504.030498 
L 1178.382307 481.752172 
L 1189.389508 458.950936 
L 1200.658781 435.709791 
L 1212.21265 412.124897 
" clip-path="url(#pe6df23ed69)" style="fill: none; stroke: #8c564b; stroke-width: 1.5"/>
    <path d="M 230.727273 474.136467 
L 240.736425 424.070051 
L 251.10492 380.806978 
L 261.901048 343.703207 
L 272.182282 314.80232 
L 273.264453 312.103017 
L 283.690737 288.805534 
L 285.464361 285.345113 
L 296.015637 267.190384 
L 298.991089 262.825121 
L 309.648439 249.375854 
L 312.009604 246.677304 
L 314.622098 244.22126 
L 325.367716 235.06289 
L 327.814925 233.149377 
L 330.414747 231.448997 
L 333.148669 229.973859 
L 343.965834 224.713915 
L 347.289099 223.29514 
L 350.735447 222.208998 
L 354.271675 221.465955 
L 365.144719 219.733429 
L 368.675947 219.344336 
L 372.228238 219.297426 
L 375.768509 219.593137 
L 386.682793 221.037848 
L 391.056325 221.888743 
L 395.295032 223.261757 
L 406.236912 227.553725 
L 409.320883 228.9298 
L 412.26578 230.582689 
L 423.222577 237.411497 
L 427.227879 240.297863 
L 438.187852 249.372033 
L 440.853 251.80853 
L 453.619592 264.82296 
L 465.823637 279.152473 
L 477.642177 294.635604 
L 489.181429 311.11629 
L 500.506037 328.440105 
L 511.655951 346.455497 
L 522.656152 365.015875 
L 533.522354 383.981365 
L 544.264423 403.220048 
L 554.888476 422.608731 
L 575.779512 461.359062 
L 606.360479 518.204335 
L 616.328098 536.444301 
L 626.183716 554.224607 
L 635.926771 571.492194 
L 645.556529 588.201266 
L 655.072102 604.312888 
L 664.472451 619.79458 
L 673.756378 634.619918 
L 682.922517 648.768141 
L 691.969322 662.223777 
L 700.895059 674.976274 
L 709.697806 687.019661 
L 718.375468 698.352218 
L 726.925806 708.976173 
L 735.346488 718.89741 
L 743.63517 728.125187 
L 751.789596 736.67187 
L 759.807736 744.552658 
L 767.687952 751.785301 
L 775.429186 758.389794 
L 783.031162 764.38804 
L 790.494604 769.803476 
L 797.821428 774.66065 
L 805.014921 778.984747 
L 812.079865 782.801083 
L 819.022608 786.134567 
L 825.851063 789.009156 
L 832.574645 791.447323 
L 839.204135 793.469564 
L 845.751517 795.093961 
L 852.229769 796.335807 
L 858.652665 797.207315 
L 865.034578 797.717381 
L 871.390315 797.871418 
L 877.734966 797.671226 
L 884.083772 797.114905 
L 890.451997 796.19679 
L 896.854781 794.907434 
L 903.306966 793.23362 
L 909.822896 791.158446 
L 916.416174 788.661485 
L 923.09942 785.719031 
L 929.884025 782.304454 
L 936.779953 778.38864 
L 943.795591 773.940511 
L 950.937696 768.927601 
L 958.21142 763.316652 
L 965.620431 757.074209 
L 973.167111 750.167184 
L 980.852806 742.563377 
L 988.678129 734.231946 
L 996.643253 725.143825 
L 1004.748221 715.272103 
L 1012.993228 704.592375 
L 1021.378869 693.083081 
L 1029.906363 680.725838 
L 1038.577743 667.5058 
L 1047.396007 653.412029 
L 1056.365256 638.437902 
L 1065.490802 622.581564 
L 1074.779265 605.846405 
L 1084.238662 588.241591 
L 1093.878492 569.782627 
L 1103.709828 550.491962 
L 1113.745409 530.399628 
L 1134.489306 487.972026 
L 1167.598704 419.514179 
L 1179.152573 395.929284 
L 1179.152573 395.929284 
" clip-path="url(#pe6df23ed69)" style="fill: none; stroke: #17becf; stroke-width: 1.5"/>
   </g>
   <g id="patch_3">
    <path d="M 180 904.112831 
L 180 186.687169 
" style="fill: none; stroke: #000000; stroke-width: 0.8; stroke-linejoin: miter; stroke-linecap: square"/>
   </g>
   <g id="patch_4">
    <path d="M 1296 904.112831 
L 1296 186.687169 
" style="fill: none; stroke: #000000; stroke-width: 0.8; stroke-linejoin: miter; stroke-linecap: square"/>
   </g>
   <g id="patch_5">
    <path d="M 180 904.112831 
L 1296 904.112831 
" style="fill: none; stroke: #000000; stroke-width: 0.8; stroke-linejoin: miter; stroke-linecap: square"/>
   </g>
   <g id="patch_6">
    <path d="M 180 186.687169 
L 1296 186.687169 
" style="fill: none; stroke: #000000; stroke-width: 0.8; stroke-linejoin: miter; stroke-linecap: square"/>
   </g>
  </g>
 </g>
 <defs>
  <clipPath id="pe6df23ed69">
   <rect x="180" y="186.687169" width="1116" height="717.425663"/>
  </clipPath>
 </defs>
</svg>
