<?xml version="1.0" encoding="utf-8" standalone="no"?>
<!DOCTYPE svg PUBLIC "-//W3C//DTD SVG 1.1//EN"
  "http://www.w3.org/Graphics/SVG/1.1/DTD/svg11.dtd">
<svg xmlns:xlink="http://www.w3.org/1999/xlink" width="1440pt" height="1080pt" viewBox="0 0 1440 1080" xmlns="http://www.w3.org/2000/svg" version="1.1">
 <metadata>
  <rdf:RDF xmlns:dc="http://purl.org/dc/elements/1.1/" xmlns:cc="http://creativecommons.org/ns#" xmlns:rdf="http://www.w3.org/1999/02/22-rdf-syntax-ns#">
   <cc:Work>
    <dc:type rdf:resource="http://purl.org/dc/dcmitype/StillImage"/>
    <dc:date>2023-12-11T12:07:00.044452</dc:date>
    <dc:format>image/svg+xml</dc:format>
    <dc:creator>
     <cc:Agent>
      <dc:title>Matplotlib v3.7.1, https://matplotlib.org/</dc:title>
     </cc:Agent>
    </dc:creator>
   </cc:Work>
  </rdf:RDF>
 </metadata>
 <defs>
  <style type="text/css">*{stroke-linejoin: round; stroke-linecap: butt}</style>
 </defs>
 <g id="figure_1">
  <g id="patch_1">
   <path d="M 0 1080 
L 1440 1080 
L 1440 0 
L 0 0 
z
" style="fill: #ffffff"/>
  </g>
  <g id="axes_1">
   <g id="patch_2">
    <path d="M 180 932.912374 
L 1296 932.912374 
L 1296 157.887626 
L 180 157.887626 
z
" style="fill: #ffffff"/>
   </g>
   <g id="matplotlib.axis_1">
    <g id="xtick_1">
     <g id="line2d_1">
      <defs>
       <path id="mca66c66d1e" d="M 0 0 
L 0 3.5 
" style="stroke: #000000; stroke-width: 0.8"/>
      </defs>
      <g>
       <use xlink:href="#mca66c66d1e" x="346.724055" y="932.912374" style="stroke: #000000; stroke-width: 0.8"/>
      </g>
     </g>
     <g id="text_1">
      <!-- 1300 -->
      <g transform="translate(333.999055 947.510812) scale(0.1 -0.1)">
       <defs>
        <path id="DejaVuSans-31" d="M 794 531 
L 1825 531 
L 1825 4091 
L 703 3866 
L 703 4441 
L 1819 4666 
L 2450 4666 
L 2450 531 
L 3481 531 
L 3481 0 
L 794 0 
L 794 531 
z
" transform="scale(0.015625)"/>
        <path id="DejaVuSans-33" d="M 2597 2516 
Q 3050 2419 3304 2112 
Q 3559 1806 3559 1356 
Q 3559 666 3084 287 
Q 2609 -91 1734 -91 
Q 1441 -91 1130 -33 
Q 819 25 488 141 
L 488 750 
Q 750 597 1062 519 
Q 1375 441 1716 441 
Q 2309 441 2620 675 
Q 2931 909 2931 1356 
Q 2931 1769 2642 2001 
Q 2353 2234 1838 2234 
L 1294 2234 
L 1294 2753 
L 1863 2753 
Q 2328 2753 2575 2939 
Q 2822 3125 2822 3475 
Q 2822 3834 2567 4026 
Q 2313 4219 1838 4219 
Q 1578 4219 1281 4162 
Q 984 4106 628 3988 
L 628 4550 
Q 988 4650 1302 4700 
Q 1616 4750 1894 4750 
Q 2613 4750 3031 4423 
Q 3450 4097 3450 3541 
Q 3450 3153 3228 2886 
Q 3006 2619 2597 2516 
z
" transform="scale(0.015625)"/>
        <path id="DejaVuSans-30" d="M 2034 4250 
Q 1547 4250 1301 3770 
Q 1056 3291 1056 2328 
Q 1056 1369 1301 889 
Q 1547 409 2034 409 
Q 2525 409 2770 889 
Q 3016 1369 3016 2328 
Q 3016 3291 2770 3770 
Q 2525 4250 2034 4250 
z
M 2034 4750 
Q 2819 4750 3233 4129 
Q 3647 3509 3647 2328 
Q 3647 1150 3233 529 
Q 2819 -91 2034 -91 
Q 1250 -91 836 529 
Q 422 1150 422 2328 
Q 422 3509 836 4129 
Q 1250 4750 2034 4750 
z
" transform="scale(0.015625)"/>
       </defs>
       <use xlink:href="#DejaVuSans-31"/>
       <use xlink:href="#DejaVuSans-33" x="63.623047"/>
       <use xlink:href="#DejaVuSans-30" x="127.246094"/>
       <use xlink:href="#DejaVuSans-30" x="190.869141"/>
      </g>
     </g>
    </g>
    <g id="xtick_2">
     <g id="line2d_2">
      <g>
       <use xlink:href="#mca66c66d1e" x="544.846758" y="932.912374" style="stroke: #000000; stroke-width: 0.8"/>
      </g>
     </g>
     <g id="text_2">
      <!-- 1400 -->
      <g transform="translate(532.121758 947.510812) scale(0.1 -0.1)">
       <defs>
        <path id="DejaVuSans-34" d="M 2419 4116 
L 825 1625 
L 2419 1625 
L 2419 4116 
z
M 2253 4666 
L 3047 4666 
L 3047 1625 
L 3713 1625 
L 3713 1100 
L 3047 1100 
L 3047 0 
L 2419 0 
L 2419 1100 
L 313 1100 
L 313 1709 
L 2253 4666 
z
" transform="scale(0.015625)"/>
       </defs>
       <use xlink:href="#DejaVuSans-31"/>
       <use xlink:href="#DejaVuSans-34" x="63.623047"/>
       <use xlink:href="#DejaVuSans-30" x="127.246094"/>
       <use xlink:href="#DejaVuSans-30" x="190.869141"/>
      </g>
     </g>
    </g>
    <g id="xtick_3">
     <g id="line2d_3">
      <g>
       <use xlink:href="#mca66c66d1e" x="742.969461" y="932.912374" style="stroke: #000000; stroke-width: 0.8"/>
      </g>
     </g>
     <g id="text_3">
      <!-- 1500 -->
      <g transform="translate(730.244461 947.510812) scale(0.1 -0.1)">
       <defs>
        <path id="DejaVuSans-35" d="M 691 4666 
L 3169 4666 
L 3169 4134 
L 1269 4134 
L 1269 2991 
Q 1406 3038 1543 3061 
Q 1681 3084 1819 3084 
Q 2600 3084 3056 2656 
Q 3513 2228 3513 1497 
Q 3513 744 3044 326 
Q 2575 -91 1722 -91 
Q 1428 -91 1123 -41 
Q 819 9 494 109 
L 494 744 
Q 775 591 1075 516 
Q 1375 441 1709 441 
Q 2250 441 2565 725 
Q 2881 1009 2881 1497 
Q 2881 1984 2565 2268 
Q 2250 2553 1709 2553 
Q 1456 2553 1204 2497 
Q 953 2441 691 2322 
L 691 4666 
z
" transform="scale(0.015625)"/>
       </defs>
       <use xlink:href="#DejaVuSans-31"/>
       <use xlink:href="#DejaVuSans-35" x="63.623047"/>
       <use xlink:href="#DejaVuSans-30" x="127.246094"/>
       <use xlink:href="#DejaVuSans-30" x="190.869141"/>
      </g>
     </g>
    </g>
    <g id="xtick_4">
     <g id="line2d_4">
      <g>
       <use xlink:href="#mca66c66d1e" x="941.092165" y="932.912374" style="stroke: #000000; stroke-width: 0.8"/>
      </g>
     </g>
     <g id="text_4">
      <!-- 1600 -->
      <g transform="translate(928.367165 947.510812) scale(0.1 -0.1)">
       <defs>
        <path id="DejaVuSans-36" d="M 2113 2584 
Q 1688 2584 1439 2293 
Q 1191 2003 1191 1497 
Q 1191 994 1439 701 
Q 1688 409 2113 409 
Q 2538 409 2786 701 
Q 3034 994 3034 1497 
Q 3034 2003 2786 2293 
Q 2538 2584 2113 2584 
z
M 3366 4563 
L 3366 3988 
Q 3128 4100 2886 4159 
Q 2644 4219 2406 4219 
Q 1781 4219 1451 3797 
Q 1122 3375 1075 2522 
Q 1259 2794 1537 2939 
Q 1816 3084 2150 3084 
Q 2853 3084 3261 2657 
Q 3669 2231 3669 1497 
Q 3669 778 3244 343 
Q 2819 -91 2113 -91 
Q 1303 -91 875 529 
Q 447 1150 447 2328 
Q 447 3434 972 4092 
Q 1497 4750 2381 4750 
Q 2619 4750 2861 4703 
Q 3103 4656 3366 4563 
z
" transform="scale(0.015625)"/>
       </defs>
       <use xlink:href="#DejaVuSans-31"/>
       <use xlink:href="#DejaVuSans-36" x="63.623047"/>
       <use xlink:href="#DejaVuSans-30" x="127.246094"/>
       <use xlink:href="#DejaVuSans-30" x="190.869141"/>
      </g>
     </g>
    </g>
    <g id="xtick_5">
     <g id="line2d_5">
      <g>
       <use xlink:href="#mca66c66d1e" x="1139.214868" y="932.912374" style="stroke: #000000; stroke-width: 0.8"/>
      </g>
     </g>
     <g id="text_5">
      <!-- 1700 -->
      <g transform="translate(1126.489868 947.510812) scale(0.1 -0.1)">
       <defs>
        <path id="DejaVuSans-37" d="M 525 4666 
L 3525 4666 
L 3525 4397 
L 1831 0 
L 1172 0 
L 2766 4134 
L 525 4134 
L 525 4666 
z
" transform="scale(0.015625)"/>
       </defs>
       <use xlink:href="#DejaVuSans-31"/>
       <use xlink:href="#DejaVuSans-37" x="63.623047"/>
       <use xlink:href="#DejaVuSans-30" x="127.246094"/>
       <use xlink:href="#DejaVuSans-30" x="190.869141"/>
      </g>
     </g>
    </g>
   </g>
   <g id="matplotlib.axis_2">
    <g id="ytick_1">
     <g id="line2d_6">
      <defs>
       <path id="m08a98e218f" d="M 0 0 
L -3.5 0 
" style="stroke: #000000; stroke-width: 0.8"/>
      </defs>
      <g>
       <use xlink:href="#m08a98e218f" x="180" y="844.542238" style="stroke: #000000; stroke-width: 0.8"/>
      </g>
     </g>
     <g id="text_6">
      <!-- 750 -->
      <g transform="translate(153.9125 848.341457) scale(0.1 -0.1)">
       <use xlink:href="#DejaVuSans-37"/>
       <use xlink:href="#DejaVuSans-35" x="63.623047"/>
       <use xlink:href="#DejaVuSans-30" x="127.246094"/>
      </g>
     </g>
    </g>
    <g id="ytick_2">
     <g id="line2d_7">
      <g>
       <use xlink:href="#m08a98e218f" x="180" y="745.480886" style="stroke: #000000; stroke-width: 0.8"/>
      </g>
     </g>
     <g id="text_7">
      <!-- 800 -->
      <g transform="translate(153.9125 749.280105) scale(0.1 -0.1)">
       <defs>
        <path id="DejaVuSans-38" d="M 2034 2216 
Q 1584 2216 1326 1975 
Q 1069 1734 1069 1313 
Q 1069 891 1326 650 
Q 1584 409 2034 409 
Q 2484 409 2743 651 
Q 3003 894 3003 1313 
Q 3003 1734 2745 1975 
Q 2488 2216 2034 2216 
z
M 1403 2484 
Q 997 2584 770 2862 
Q 544 3141 544 3541 
Q 544 4100 942 4425 
Q 1341 4750 2034 4750 
Q 2731 4750 3128 4425 
Q 3525 4100 3525 3541 
Q 3525 3141 3298 2862 
Q 3072 2584 2669 2484 
Q 3125 2378 3379 2068 
Q 3634 1759 3634 1313 
Q 3634 634 3220 271 
Q 2806 -91 2034 -91 
Q 1263 -91 848 271 
Q 434 634 434 1313 
Q 434 1759 690 2068 
Q 947 2378 1403 2484 
z
M 1172 3481 
Q 1172 3119 1398 2916 
Q 1625 2713 2034 2713 
Q 2441 2713 2670 2916 
Q 2900 3119 2900 3481 
Q 2900 3844 2670 4047 
Q 2441 4250 2034 4250 
Q 1625 4250 1398 4047 
Q 1172 3844 1172 3481 
z
" transform="scale(0.015625)"/>
       </defs>
       <use xlink:href="#DejaVuSans-38"/>
       <use xlink:href="#DejaVuSans-30" x="63.623047"/>
       <use xlink:href="#DejaVuSans-30" x="127.246094"/>
      </g>
     </g>
    </g>
    <g id="ytick_3">
     <g id="line2d_8">
      <g>
       <use xlink:href="#m08a98e218f" x="180" y="646.419535" style="stroke: #000000; stroke-width: 0.8"/>
      </g>
     </g>
     <g id="text_8">
      <!-- 850 -->
      <g transform="translate(153.9125 650.218754) scale(0.1 -0.1)">
       <use xlink:href="#DejaVuSans-38"/>
       <use xlink:href="#DejaVuSans-35" x="63.623047"/>
       <use xlink:href="#DejaVuSans-30" x="127.246094"/>
      </g>
     </g>
    </g>
    <g id="ytick_4">
     <g id="line2d_9">
      <g>
       <use xlink:href="#m08a98e218f" x="180" y="547.358183" style="stroke: #000000; stroke-width: 0.8"/>
      </g>
     </g>
     <g id="text_9">
      <!-- 900 -->
      <g transform="translate(153.9125 551.157402) scale(0.1 -0.1)">
       <defs>
        <path id="DejaVuSans-39" d="M 703 97 
L 703 672 
Q 941 559 1184 500 
Q 1428 441 1663 441 
Q 2288 441 2617 861 
Q 2947 1281 2994 2138 
Q 2813 1869 2534 1725 
Q 2256 1581 1919 1581 
Q 1219 1581 811 2004 
Q 403 2428 403 3163 
Q 403 3881 828 4315 
Q 1253 4750 1959 4750 
Q 2769 4750 3195 4129 
Q 3622 3509 3622 2328 
Q 3622 1225 3098 567 
Q 2575 -91 1691 -91 
Q 1453 -91 1209 -44 
Q 966 3 703 97 
z
M 1959 2075 
Q 2384 2075 2632 2365 
Q 2881 2656 2881 3163 
Q 2881 3666 2632 3958 
Q 2384 4250 1959 4250 
Q 1534 4250 1286 3958 
Q 1038 3666 1038 3163 
Q 1038 2656 1286 2365 
Q 1534 2075 1959 2075 
z
" transform="scale(0.015625)"/>
       </defs>
       <use xlink:href="#DejaVuSans-39"/>
       <use xlink:href="#DejaVuSans-30" x="63.623047"/>
       <use xlink:href="#DejaVuSans-30" x="127.246094"/>
      </g>
     </g>
    </g>
    <g id="ytick_5">
     <g id="line2d_10">
      <g>
       <use xlink:href="#m08a98e218f" x="180" y="448.296832" style="stroke: #000000; stroke-width: 0.8"/>
      </g>
     </g>
     <g id="text_10">
      <!-- 950 -->
      <g transform="translate(153.9125 452.096051) scale(0.1 -0.1)">
       <use xlink:href="#DejaVuSans-39"/>
       <use xlink:href="#DejaVuSans-35" x="63.623047"/>
       <use xlink:href="#DejaVuSans-30" x="127.246094"/>
      </g>
     </g>
    </g>
    <g id="ytick_6">
     <g id="line2d_11">
      <g>
       <use xlink:href="#m08a98e218f" x="180" y="349.23548" style="stroke: #000000; stroke-width: 0.8"/>
      </g>
     </g>
     <g id="text_11">
      <!-- 1000 -->
      <g transform="translate(147.55 353.034699) scale(0.1 -0.1)">
       <use xlink:href="#DejaVuSans-31"/>
       <use xlink:href="#DejaVuSans-30" x="63.623047"/>
       <use xlink:href="#DejaVuSans-30" x="127.246094"/>
       <use xlink:href="#DejaVuSans-30" x="190.869141"/>
      </g>
     </g>
    </g>
    <g id="ytick_7">
     <g id="line2d_12">
      <g>
       <use xlink:href="#m08a98e218f" x="180" y="250.174129" style="stroke: #000000; stroke-width: 0.8"/>
      </g>
     </g>
     <g id="text_12">
      <!-- 1050 -->
      <g transform="translate(147.55 253.973348) scale(0.1 -0.1)">
       <use xlink:href="#DejaVuSans-31"/>
       <use xlink:href="#DejaVuSans-30" x="63.623047"/>
       <use xlink:href="#DejaVuSans-35" x="127.246094"/>
       <use xlink:href="#DejaVuSans-30" x="190.869141"/>
      </g>
     </g>
    </g>
   </g>
   <g id="LineCollection_1">
    <path d="M 260.635681 316.871476 
L 284.044814 308.321085 
L 305.110097 301.577704 
L 324.841269 296.126367 
L 343.419017 291.774284 
L 361.010149 288.351876 
L 377.765778 285.711542 
L 393.819846 283.725832 
L 409.288282 282.285249 
L 424.26893 281.29596 
L 438.84221 280.677681 
L 453.072357 280.361891 
L 467.009016 280.290454 
L 480.689015 280.414603 
L 494.138136 280.694211 
L 507.372788 281.097238 
L 520.401527 281.599259 
L 533.226382 282.182999 
L 545.843999 282.837816 
L 558.246605 283.559125 
L 570.422812 284.34773 
L 582.358299 285.209103 
L 594.03638 286.152596 
L 605.438517 287.190612 
L 616.544793 288.337758 
L 627.334404 289.609983 
L 637.786191 291.023741 
L 647.879264 292.595178 
L 657.593758 294.339401 
L 666.911737 296.26987 
L 675.818273 298.397973 
L 684.302671 300.732878 
L 692.359776 303.281743 
L 699.99124 306.050358 
L 707.206528 309.044259 
L 714.023437 312.270243 
L 720.467835 315.738088 
L 726.572475 319.462165 
L 732.374848 323.462518 
L 737.914345 327.76501 
L 743.229184 332.400321 
L 748.3537 337.401836 
L 753.316499 342.802772 
L 758.139795 348.633078 
L 762.839877 354.916656 
L 767.428477 361.669318 
L 771.914618 368.897647 
L 776.306576 376.598732 
L 780.613655 384.760596 
L 784.847627 393.363092 
L 789.023799 402.379045 
L 793.161725 411.775472 
L 797.285656 421.514778 
L 801.424813 431.555854 
L 805.615395 441.859559 
L 809.847615 452.258995 
L 809.936115 452.474802 
L 814.214807 462.829375 
L 814.395573 463.260275 
L 818.761903 473.514085 
L 819.047259 474.169256 
L 823.543302 484.265206 
L 823.951173 485.154114 
L 828.619577 495.034415 
L 829.17421 496.16563 
L 834.057836 505.772356 
L 834.790349 507.151568 
L 839.931877 516.427254 
L 840.880258 518.054282 
L 846.321764 526.942565 
L 847.529737 528.807247 
L 853.312239 537.253551 
L 854.826157 539.330722 
L 860.989132 547.282995 
L 862.852014 549.527408 
L 869.432878 556.936901 
L 871.675154 559.279836 
L 878.708715 566.101929 
L 881.336515 568.452102 
L 888.854389 574.647181 
L 891.838309 576.89839 
L 899.868309 582.43277 
L 903.13745 584.478693 
L 911.702938 589.325591 
L 915.148738 591.078447 
L 924.267939 595.219006 
L 927.758676 596.625531 
L 937.443969 600.049889 
L 940.845492 601.098386 
L 951.102657 603.806806 
L 954.297727 604.523261 
L 965.12516 606.527302 
L 968.025179 606.963728 
L 979.413071 608.287473 
L 981.960435 608.508081 
L 993.88992 609.189418 
L 996.053159 609.259144 
L 1008.495418 609.351099 
L 1010.260747 609.32839 
L 1023.176082 608.900516 
L 1024.538256 608.834041 
L 1037.875126 607.97386 
L 1038.829051 607.901815 
L 1052.523066 606.716312 
L 1053.056362 606.666841 
L 1067.029246 605.28402 
L 1067.115125 605.275436 
L 1081.068459 603.866644 
L 1094.604432 602.62926 
L 1107.450306 601.748916 
L 1119.306018 601.39792 
L 1129.788846 601.707222 
L 1138.442974 602.70491 
L 1144.828038 604.226296 
L 1148.788717 605.876318 
L 1150.886953 607.31159 
L 1152.428586 609.02447 
L 1154.44338 612.798028 
L 1156.694453 620.805613 
L 1158.049058 634.497654 
L 1157.311966 654.559626 
L 1153.544869 681.379446 
L 1146.019703 715.358128 
L 1134.11106 757.013967 
L 1117.222943 806.995161 
L 1094.513919 866.687126 
" clip-path="url(#pa1b7d1c5a3)" style="fill: none; stroke: #1f77b4; stroke-width: 1.5"/>
    <path d="M 245.681477 275.93008 
L 269.917596 267.077625 
L 292.657009 259.798325 
L 314.062549 253.884393 
L 334.282931 249.147501 
L 353.453428 245.417823 
L 371.69654 242.543093 
L 389.122654 240.387676 
L 405.830695 238.831648 
L 421.908766 237.769888 
L 437.434782 237.111188 
L 452.477091 236.777375 
L 467.095085 236.702445 
L 481.339801 236.83172 
L 495.254509 237.121007 
L 508.87529 237.535793 
L 522.231603 238.050436 
L 535.346836 238.647392 
L 548.238845 239.31645 
L 560.920486 240.053986 
L 573.400118 240.862243 
L 585.682115 241.748624 
L 597.767337 242.725011 
L 609.65361 243.807101 
L 621.336176 245.01377 
L 632.808129 246.366452 
L 644.060842 247.888547 
L 655.084372 249.604851 
L 665.867846 251.541008 
L 676.399836 253.722991 
L 686.668713 256.176608 
L 696.66298 258.92703 
L 706.371592 261.998348 
L 715.784256 265.413164 
L 724.891706 269.192197 
L 733.685967 273.353928 
L 742.160591 277.914273 
L 750.310878 282.886278 
L 758.134076 288.279856 
L 765.629552 294.101545 
L 772.798955 300.354304 
L 779.646343 307.037339 
L 786.178295 314.145958 
L 792.404001 321.67147 
L 798.335324 329.601104 
L 803.986842 337.917975 
L 809.375865 346.601079 
L 814.522425 355.625322 
L 819.449247 364.961592 
L 824.181686 374.576864 
L 828.74765 384.434339 
L 833.177483 394.493631 
L 837.503835 404.710984 
L 841.761493 415.039531 
L 845.987197 425.429595 
L 850.219417 435.829032 
L 854.498109 446.183605 
L 858.86444 456.437415 
L 863.360483 466.533365 
L 868.028888 476.413665 
L 872.912514 486.020391 
L 878.054042 495.296077 
L 883.495548 504.184359 
L 889.27805 512.630663 
L 895.441025 520.582937 
L 902.021889 527.99243 
L 909.05545 534.814523 
L 916.573324 541.009602 
L 924.603325 546.543981 
L 933.168812 551.39088 
L 942.288014 555.531438 
L 951.973308 558.955797 
L 962.230473 561.664217 
L 973.057906 563.668258 
L 984.445798 564.992003 
L 996.375282 565.673339 
L 1008.817541 565.765294 
L 1021.732877 565.337421 
L 1035.069746 564.47724 
L 1048.763762 563.291737 
L 1062.736646 561.908916 
L 1076.895157 560.479409 
L 1091.129973 559.178141 
L 1105.314531 558.206054 
L 1119.303839 557.791892 
L 1132.933236 558.194035 
L 1146.01712 559.702407 
L 1158.347633 562.640429 
L 1169.693304 567.367046 
L 1179.797653 574.278801 
L 1188.377751 583.811988 
L 1195.12274 596.444849 
L 1199.692307 612.699849 
L 1201.715121 633.146006 
L 1200.787224 658.401286 
L 1196.470373 689.135069 
L 1188.290347 726.070671 
L 1175.735202 769.98794 
L 1158.253488 821.725916 
L 1135.252414 882.185552 
" clip-path="url(#pa1b7d1c5a3)" style="fill: none; stroke: #8c564b; stroke-width: 1.5"/>
    <path d="M 230.727273 234.988684 
L 256.628887 225.565743 
L 281.049631 217.785293 
L 304.120871 211.446331 
L 325.959019 206.362707 
L 346.668756 202.362111 
L 366.346086 199.285738 
L 385.080865 196.988482 
L 402.958562 195.339385 
L 420.061225 194.222067 
L 436.467754 193.534922 
L 452.253675 193.190953 
L 467.490632 193.117246 
L 482.245782 193.254142 
L 496.581222 193.554209 
L 523.909844 194.495762 
L 537.605834 195.118976 
L 563.737542 196.558121 
L 589.192148 198.30319 
L 601.719023 199.31752 
L 614.1318 200.450764 
L 626.440251 201.726653 
L 638.650704 203.172813 
L 650.766314 204.82043 
L 662.787177 206.703885 
L 674.710283 208.860363 
L 686.529256 211.329348 
L 698.233897 214.151942 
L 709.809567 217.36992 
L 721.236495 221.024445 
L 732.489189 225.15436 
L 743.536173 229.794101 
L 754.34032 234.97133 
L 764.860017 240.704568 
L 775.051271 247.001197 
L 784.870643 253.856287 
L 794.278636 261.252555 
L 803.242992 269.161569 
L 811.741305 277.545993 
L 819.762517 286.3624 
L 827.307166 295.564092 
L 834.386533 305.103422 
L 841.021039 314.933321 
L 847.238305 325.007985 
L 853.071214 335.28283 
L 858.556206 345.713948 
L 863.731895 356.257282 
L 868.638006 366.867733 
L 873.314566 377.498317 
L 882.13696 398.618576 
L 894.692184 429.3219 
L 898.826985 439.03199 
L 902.978716 448.354781 
L 907.169057 457.223299 
L 911.413291 465.572257 
L 915.719595 473.341139 
L 920.089114 480.478414 
L 924.517538 486.946862 
L 928.999047 492.729488 
L 933.533373 497.834754 
L 938.135846 502.29885 
L 942.848607 506.182386 
L 947.74907 509.559848 
L 952.950693 512.503257 
L 958.59311 515.065187 
L 964.823308 517.267953 
L 971.774219 519.103352 
L 979.547987 520.542192 
L 988.208079 521.548854 
L 997.779892 522.095535 
L 1008.25677 522.172965 
L 1019.608064 521.796907 
L 1031.787009 521.011408 
L 1044.737657 519.890259 
L 1088.149889 515.693141 
L 1104.024675 514.638149 
L 1120.589339 514.223858 
L 1134.218736 514.626001 
L 1137.925087 514.893833 
L 1151.008971 516.402204 
L 1156.119876 517.302402 
L 1168.450389 520.240424 
L 1171.823541 521.18894 
L 1175.109605 522.40534 
L 1186.455276 527.131956 
L 1190.487961 529.060279 
L 1194.301944 531.391485 
L 1204.406293 538.303241 
L 1208.503832 541.479695 
L 1212.195223 545.120207 
L 1220.775321 554.653394 
L 1224.063178 558.784475 
L 1226.827429 563.282781 
L 1233.572418 575.915642 
L 1235.564271 580.187278 
L 1237.083248 584.649011 
L 1241.652815 600.904011 
L 1242.524852 604.625249 
L 1243.067542 608.408575 
L 1245.090357 628.854731 
L 1245.272727 634.746343 
L 1244.34483 660.001624 
L 1243.950517 664.46398 
L 1239.633666 695.197762 
L 1239.026226 698.559797 
L 1230.198432 738.051427 
L 1217.028668 783.940566 
L 1198.991982 837.224341 
L 1175.990908 897.683977 
L 1175.990908 897.683977 
" clip-path="url(#pa1b7d1c5a3)" style="fill: none; stroke: #17becf; stroke-width: 1.5"/>
   </g>
   <g id="patch_3">
    <path d="M 180 932.912374 
L 180 157.887626 
" style="fill: none; stroke: #000000; stroke-width: 0.8; stroke-linejoin: miter; stroke-linecap: square"/>
   </g>
   <g id="patch_4">
    <path d="M 1296 932.912374 
L 1296 157.887626 
" style="fill: none; stroke: #000000; stroke-width: 0.8; stroke-linejoin: miter; stroke-linecap: square"/>
   </g>
   <g id="patch_5">
    <path d="M 180 932.912374 
L 1296 932.912374 
" style="fill: none; stroke: #000000; stroke-width: 0.8; stroke-linejoin: miter; stroke-linecap: square"/>
   </g>
   <g id="patch_6">
    <path d="M 180 157.887626 
L 1296 157.887626 
" style="fill: none; stroke: #000000; stroke-width: 0.8; stroke-linejoin: miter; stroke-linecap: square"/>
   </g>
  </g>
 </g>
 <defs>
  <clipPath id="pa1b7d1c5a3">
   <rect x="180" y="157.887626" width="1116" height="775.024749"/>
  </clipPath>
 </defs>
</svg>
