<?xml version="1.0" encoding="utf-8" standalone="no"?>
<!DOCTYPE svg PUBLIC "-//W3C//DTD SVG 1.1//EN"
  "http://www.w3.org/Graphics/SVG/1.1/DTD/svg11.dtd">
<svg xmlns:xlink="http://www.w3.org/1999/xlink" width="1440pt" height="1080pt" viewBox="0 0 1440 1080" xmlns="http://www.w3.org/2000/svg" version="1.1">
 <metadata>
  <rdf:RDF xmlns:dc="http://purl.org/dc/elements/1.1/" xmlns:cc="http://creativecommons.org/ns#" xmlns:rdf="http://www.w3.org/1999/02/22-rdf-syntax-ns#">
   <cc:Work>
    <dc:type rdf:resource="http://purl.org/dc/dcmitype/StillImage"/>
    <dc:date>2023-12-11T12:06:45.314080</dc:date>
    <dc:format>image/svg+xml</dc:format>
    <dc:creator>
     <cc:Agent>
      <dc:title>Matplotlib v3.7.1, https://matplotlib.org/</dc:title>
     </cc:Agent>
    </dc:creator>
   </cc:Work>
  </rdf:RDF>
 </metadata>
 <defs>
  <style type="text/css">*{stroke-linejoin: round; stroke-linecap: butt}</style>
 </defs>
 <g id="figure_1">
  <g id="patch_1">
   <path d="M 0 1080 
L 1440 1080 
L 1440 0 
L 0 0 
z
" style="fill: #ffffff"/>
  </g>
  <g id="axes_1">
   <g id="patch_2">
    <path d="M 180 724.267712 
L 1296 724.267712 
L 1296 366.532288 
L 180 366.532288 
z
" style="fill: #ffffff"/>
   </g>
   <g id="matplotlib.axis_1">
    <g id="xtick_1">
     <g id="line2d_1">
      <defs>
       <path id="m18f5d394c7" d="M 0 0 
L 0 3.5 
" style="stroke: #000000; stroke-width: 0.8"/>
      </defs>
      <g>
       <use xlink:href="#m18f5d394c7" x="183.523244" y="724.267712" style="stroke: #000000; stroke-width: 0.8"/>
      </g>
     </g>
     <g id="text_1">
      <!-- 800 -->
      <g transform="translate(173.979494 738.86615) scale(0.1 -0.1)">
       <defs>
        <path id="DejaVuSans-38" d="M 2034 2216 
Q 1584 2216 1326 1975 
Q 1069 1734 1069 1313 
Q 1069 891 1326 650 
Q 1584 409 2034 409 
Q 2484 409 2743 651 
Q 3003 894 3003 1313 
Q 3003 1734 2745 1975 
Q 2488 2216 2034 2216 
z
M 1403 2484 
Q 997 2584 770 2862 
Q 544 3141 544 3541 
Q 544 4100 942 4425 
Q 1341 4750 2034 4750 
Q 2731 4750 3128 4425 
Q 3525 4100 3525 3541 
Q 3525 3141 3298 2862 
Q 3072 2584 2669 2484 
Q 3125 2378 3379 2068 
Q 3634 1759 3634 1313 
Q 3634 634 3220 271 
Q 2806 -91 2034 -91 
Q 1263 -91 848 271 
Q 434 634 434 1313 
Q 434 1759 690 2068 
Q 947 2378 1403 2484 
z
M 1172 3481 
Q 1172 3119 1398 2916 
Q 1625 2713 2034 2713 
Q 2441 2713 2670 2916 
Q 2900 3119 2900 3481 
Q 2900 3844 2670 4047 
Q 2441 4250 2034 4250 
Q 1625 4250 1398 4047 
Q 1172 3844 1172 3481 
z
" transform="scale(0.015625)"/>
        <path id="DejaVuSans-30" d="M 2034 4250 
Q 1547 4250 1301 3770 
Q 1056 3291 1056 2328 
Q 1056 1369 1301 889 
Q 1547 409 2034 409 
Q 2525 409 2770 889 
Q 3016 1369 3016 2328 
Q 3016 3291 2770 3770 
Q 2525 4250 2034 4250 
z
M 2034 4750 
Q 2819 4750 3233 4129 
Q 3647 3509 3647 2328 
Q 3647 1150 3233 529 
Q 2819 -91 2034 -91 
Q 1250 -91 836 529 
Q 422 1150 422 2328 
Q 422 3509 836 4129 
Q 1250 4750 2034 4750 
z
" transform="scale(0.015625)"/>
       </defs>
       <use xlink:href="#DejaVuSans-38"/>
       <use xlink:href="#DejaVuSans-30" x="63.623047"/>
       <use xlink:href="#DejaVuSans-30" x="127.246094"/>
      </g>
     </g>
    </g>
    <g id="xtick_2">
     <g id="line2d_2">
      <g>
       <use xlink:href="#m18f5d394c7" x="422.964889" y="724.267712" style="stroke: #000000; stroke-width: 0.8"/>
      </g>
     </g>
     <g id="text_2">
      <!-- 1000 -->
      <g transform="translate(410.239889 738.86615) scale(0.1 -0.1)">
       <defs>
        <path id="DejaVuSans-31" d="M 794 531 
L 1825 531 
L 1825 4091 
L 703 3866 
L 703 4441 
L 1819 4666 
L 2450 4666 
L 2450 531 
L 3481 531 
L 3481 0 
L 794 0 
L 794 531 
z
" transform="scale(0.015625)"/>
       </defs>
       <use xlink:href="#DejaVuSans-31"/>
       <use xlink:href="#DejaVuSans-30" x="63.623047"/>
       <use xlink:href="#DejaVuSans-30" x="127.246094"/>
       <use xlink:href="#DejaVuSans-30" x="190.869141"/>
      </g>
     </g>
    </g>
    <g id="xtick_3">
     <g id="line2d_3">
      <g>
       <use xlink:href="#m18f5d394c7" x="662.406534" y="724.267712" style="stroke: #000000; stroke-width: 0.8"/>
      </g>
     </g>
     <g id="text_3">
      <!-- 1200 -->
      <g transform="translate(649.681534 738.86615) scale(0.1 -0.1)">
       <defs>
        <path id="DejaVuSans-32" d="M 1228 531 
L 3431 531 
L 3431 0 
L 469 0 
L 469 531 
Q 828 903 1448 1529 
Q 2069 2156 2228 2338 
Q 2531 2678 2651 2914 
Q 2772 3150 2772 3378 
Q 2772 3750 2511 3984 
Q 2250 4219 1831 4219 
Q 1534 4219 1204 4116 
Q 875 4013 500 3803 
L 500 4441 
Q 881 4594 1212 4672 
Q 1544 4750 1819 4750 
Q 2544 4750 2975 4387 
Q 3406 4025 3406 3419 
Q 3406 3131 3298 2873 
Q 3191 2616 2906 2266 
Q 2828 2175 2409 1742 
Q 1991 1309 1228 531 
z
" transform="scale(0.015625)"/>
       </defs>
       <use xlink:href="#DejaVuSans-31"/>
       <use xlink:href="#DejaVuSans-32" x="63.623047"/>
       <use xlink:href="#DejaVuSans-30" x="127.246094"/>
       <use xlink:href="#DejaVuSans-30" x="190.869141"/>
      </g>
     </g>
    </g>
    <g id="xtick_4">
     <g id="line2d_4">
      <g>
       <use xlink:href="#m18f5d394c7" x="901.848179" y="724.267712" style="stroke: #000000; stroke-width: 0.8"/>
      </g>
     </g>
     <g id="text_4">
      <!-- 1400 -->
      <g transform="translate(889.123179 738.86615) scale(0.1 -0.1)">
       <defs>
        <path id="DejaVuSans-34" d="M 2419 4116 
L 825 1625 
L 2419 1625 
L 2419 4116 
z
M 2253 4666 
L 3047 4666 
L 3047 1625 
L 3713 1625 
L 3713 1100 
L 3047 1100 
L 3047 0 
L 2419 0 
L 2419 1100 
L 313 1100 
L 313 1709 
L 2253 4666 
z
" transform="scale(0.015625)"/>
       </defs>
       <use xlink:href="#DejaVuSans-31"/>
       <use xlink:href="#DejaVuSans-34" x="63.623047"/>
       <use xlink:href="#DejaVuSans-30" x="127.246094"/>
       <use xlink:href="#DejaVuSans-30" x="190.869141"/>
      </g>
     </g>
    </g>
    <g id="xtick_5">
     <g id="line2d_5">
      <g>
       <use xlink:href="#m18f5d394c7" x="1141.289824" y="724.267712" style="stroke: #000000; stroke-width: 0.8"/>
      </g>
     </g>
     <g id="text_5">
      <!-- 1600 -->
      <g transform="translate(1128.564824 738.86615) scale(0.1 -0.1)">
       <defs>
        <path id="DejaVuSans-36" d="M 2113 2584 
Q 1688 2584 1439 2293 
Q 1191 2003 1191 1497 
Q 1191 994 1439 701 
Q 1688 409 2113 409 
Q 2538 409 2786 701 
Q 3034 994 3034 1497 
Q 3034 2003 2786 2293 
Q 2538 2584 2113 2584 
z
M 3366 4563 
L 3366 3988 
Q 3128 4100 2886 4159 
Q 2644 4219 2406 4219 
Q 1781 4219 1451 3797 
Q 1122 3375 1075 2522 
Q 1259 2794 1537 2939 
Q 1816 3084 2150 3084 
Q 2853 3084 3261 2657 
Q 3669 2231 3669 1497 
Q 3669 778 3244 343 
Q 2819 -91 2113 -91 
Q 1303 -91 875 529 
Q 447 1150 447 2328 
Q 447 3434 972 4092 
Q 1497 4750 2381 4750 
Q 2619 4750 2861 4703 
Q 3103 4656 3366 4563 
z
" transform="scale(0.015625)"/>
       </defs>
       <use xlink:href="#DejaVuSans-31"/>
       <use xlink:href="#DejaVuSans-36" x="63.623047"/>
       <use xlink:href="#DejaVuSans-30" x="127.246094"/>
       <use xlink:href="#DejaVuSans-30" x="190.869141"/>
      </g>
     </g>
    </g>
   </g>
   <g id="matplotlib.axis_2">
    <g id="ytick_1">
     <g id="line2d_6">
      <defs>
       <path id="m5ce2eccdaf" d="M 0 0 
L -3.5 0 
" style="stroke: #000000; stroke-width: 0.8"/>
      </defs>
      <g>
       <use xlink:href="#m5ce2eccdaf" x="180" y="673.187051" style="stroke: #000000; stroke-width: 0.8"/>
      </g>
     </g>
     <g id="text_6">
      <!-- 350 -->
      <g transform="translate(153.9125 676.986269) scale(0.1 -0.1)">
       <defs>
        <path id="DejaVuSans-33" d="M 2597 2516 
Q 3050 2419 3304 2112 
Q 3559 1806 3559 1356 
Q 3559 666 3084 287 
Q 2609 -91 1734 -91 
Q 1441 -91 1130 -33 
Q 819 25 488 141 
L 488 750 
Q 750 597 1062 519 
Q 1375 441 1716 441 
Q 2309 441 2620 675 
Q 2931 909 2931 1356 
Q 2931 1769 2642 2001 
Q 2353 2234 1838 2234 
L 1294 2234 
L 1294 2753 
L 1863 2753 
Q 2328 2753 2575 2939 
Q 2822 3125 2822 3475 
Q 2822 3834 2567 4026 
Q 2313 4219 1838 4219 
Q 1578 4219 1281 4162 
Q 984 4106 628 3988 
L 628 4550 
Q 988 4650 1302 4700 
Q 1616 4750 1894 4750 
Q 2613 4750 3031 4423 
Q 3450 4097 3450 3541 
Q 3450 3153 3228 2886 
Q 3006 2619 2597 2516 
z
" transform="scale(0.015625)"/>
        <path id="DejaVuSans-35" d="M 691 4666 
L 3169 4666 
L 3169 4134 
L 1269 4134 
L 1269 2991 
Q 1406 3038 1543 3061 
Q 1681 3084 1819 3084 
Q 2600 3084 3056 2656 
Q 3513 2228 3513 1497 
Q 3513 744 3044 326 
Q 2575 -91 1722 -91 
Q 1428 -91 1123 -41 
Q 819 9 494 109 
L 494 744 
Q 775 591 1075 516 
Q 1375 441 1709 441 
Q 2250 441 2565 725 
Q 2881 1009 2881 1497 
Q 2881 1984 2565 2268 
Q 2250 2553 1709 2553 
Q 1456 2553 1204 2497 
Q 953 2441 691 2322 
L 691 4666 
z
" transform="scale(0.015625)"/>
       </defs>
       <use xlink:href="#DejaVuSans-33"/>
       <use xlink:href="#DejaVuSans-35" x="63.623047"/>
       <use xlink:href="#DejaVuSans-30" x="127.246094"/>
      </g>
     </g>
    </g>
    <g id="ytick_2">
     <g id="line2d_7">
      <g>
       <use xlink:href="#m5ce2eccdaf" x="180" y="613.326639" style="stroke: #000000; stroke-width: 0.8"/>
      </g>
     </g>
     <g id="text_7">
      <!-- 400 -->
      <g transform="translate(153.9125 617.125858) scale(0.1 -0.1)">
       <use xlink:href="#DejaVuSans-34"/>
       <use xlink:href="#DejaVuSans-30" x="63.623047"/>
       <use xlink:href="#DejaVuSans-30" x="127.246094"/>
      </g>
     </g>
    </g>
    <g id="ytick_3">
     <g id="line2d_8">
      <g>
       <use xlink:href="#m5ce2eccdaf" x="180" y="553.466228" style="stroke: #000000; stroke-width: 0.8"/>
      </g>
     </g>
     <g id="text_8">
      <!-- 450 -->
      <g transform="translate(153.9125 557.265447) scale(0.1 -0.1)">
       <use xlink:href="#DejaVuSans-34"/>
       <use xlink:href="#DejaVuSans-35" x="63.623047"/>
       <use xlink:href="#DejaVuSans-30" x="127.246094"/>
      </g>
     </g>
    </g>
    <g id="ytick_4">
     <g id="line2d_9">
      <g>
       <use xlink:href="#m5ce2eccdaf" x="180" y="493.605817" style="stroke: #000000; stroke-width: 0.8"/>
      </g>
     </g>
     <g id="text_9">
      <!-- 500 -->
      <g transform="translate(153.9125 497.405036) scale(0.1 -0.1)">
       <use xlink:href="#DejaVuSans-35"/>
       <use xlink:href="#DejaVuSans-30" x="63.623047"/>
       <use xlink:href="#DejaVuSans-30" x="127.246094"/>
      </g>
     </g>
    </g>
    <g id="ytick_5">
     <g id="line2d_10">
      <g>
       <use xlink:href="#m5ce2eccdaf" x="180" y="433.745406" style="stroke: #000000; stroke-width: 0.8"/>
      </g>
     </g>
     <g id="text_10">
      <!-- 550 -->
      <g transform="translate(153.9125 437.544624) scale(0.1 -0.1)">
       <use xlink:href="#DejaVuSans-35"/>
       <use xlink:href="#DejaVuSans-35" x="63.623047"/>
       <use xlink:href="#DejaVuSans-30" x="127.246094"/>
      </g>
     </g>
    </g>
    <g id="ytick_6">
     <g id="line2d_11">
      <g>
       <use xlink:href="#m5ce2eccdaf" x="180" y="373.884994" style="stroke: #000000; stroke-width: 0.8"/>
      </g>
     </g>
     <g id="text_11">
      <!-- 600 -->
      <g transform="translate(153.9125 377.684213) scale(0.1 -0.1)">
       <use xlink:href="#DejaVuSans-36"/>
       <use xlink:href="#DejaVuSans-30" x="63.623047"/>
       <use xlink:href="#DejaVuSans-30" x="127.246094"/>
      </g>
     </g>
    </g>
   </g>
   <g id="LineCollection_1">
    <path d="M 1245.272727 703.016334 
L 1240.519177 669.395543 
L 1234.481857 640.23678 
L 1227.245757 615.048424 
L 1218.873271 593.397974 
L 1210.468325 576.738973 
L 1209.415748 574.924664 
L 1200.342939 561.200646 
L 1198.937481 559.347739 
L 1189.294356 548.212846 
L 1187.547583 546.456774 
L 1177.422924 537.594032 
L 1175.420618 536.075023 
L 1164.895022 529.194501 
L 1162.783246 528.009127 
L 1151.929674 522.846181 
L 1149.868344 522.017791 
L 1136.867673 517.818207 
L 1123.911103 515.116356 
L 1111.073097 513.635846 
L 1098.390844 513.132906 
L 1085.881203 513.399211 
L 1073.551936 514.258507 
L 1061.40773 515.561501 
L 1049.452848 517.18109 
L 1037.691971 519.008539 
L 1014.772722 522.927203 
L 992.604873 526.734438 
L 981.848951 528.448765 
L 971.314607 529.97946 
L 961.002003 531.293073 
L 950.909798 532.362831 
L 941.035002 533.167908 
L 931.372879 533.692712 
L 921.916915 533.926206 
L 912.658862 533.861255 
L 903.588848 533.494008 
L 894.69557 532.823337 
L 885.966557 531.850345 
L 877.38848 530.577971 
L 868.94749 529.010696 
L 860.629551 527.154349 
L 852.420738 525.016016 
L 844.30747 522.604026 
L 836.276677 519.927992 
L 828.315881 516.998882 
L 820.413194 513.829092 
L 812.557267 510.432513 
L 804.737183 506.824571 
L 796.942321 503.022235 
L 789.162213 499.044004 
L 781.386393 494.909867 
L 765.804982 486.260941 
L 717.886874 459.010663 
L 709.598956 454.575546 
L 701.190661 450.254607 
L 692.647956 446.081014 
L 683.957193 442.088847 
L 675.105467 438.312952 
L 666.081023 434.788702 
L 656.873699 431.551624 
L 647.475332 428.636877 
L 637.880091 426.078581 
L 628.084666 423.908997 
L 618.08825 422.157625 
L 607.892305 420.85028 
L 597.500116 420.008244 
L 586.916209 419.647573 
L 576.145736 419.778586 
L 565.193945 420.405556 
L 554.065833 421.52653 
L 542.766051 423.133211 
L 531.299071 425.210809 
L 519.669588 427.737783 
L 507.883123 430.685436 
L 495.946764 434.017326 
L 483.870019 437.688519 
L 471.665745 441.6447 
L 446.949126 450.141795 
L 421.914876 458.879446 
L 409.391945 463.067456 
L 396.945079 466.961728 
L 384.646332 470.416385 
L 372.584911 473.273602 
L 360.868798 475.368658 
L 349.622243 476.539004 
L 338.972592 476.6368 
L 329.01662 475.537415 
L 319.763525 473.121701 
L 311.086197 469.202681 
L 302.755932 463.412826 
L 294.588394 455.157373 
L 286.582336 443.711183 
L 278.923668 428.364986 
L 271.894132 408.487901 
L 265.617704 382.792989 
L 265.617704 382.792989 
" clip-path="url(#p1697a200b4)" style="fill: none; stroke: #1f77b4; stroke-width: 1.5"/>
    <path d="M 1227.488817 705.511673 
L 1222.927948 673.007031 
L 1217.208803 645.149601 
L 1210.470349 621.457783 
L 1202.840186 601.487127 
L 1194.43524 584.828126 
L 1185.362431 571.104108 
L 1175.719305 559.969214 
L 1165.594646 551.106472 
L 1155.06905 544.225951 
L 1144.215478 539.063004 
L 1133.099783 535.376601 
L 1121.781206 532.947726 
L 1110.312853 531.57787 
L 1098.742141 531.087593 
L 1087.111223 531.315161 
L 1075.457393 532.115255 
L 1063.813462 533.357755 
L 1052.208117 534.926588 
L 1040.666255 536.718644 
L 1029.209302 538.642757 
L 1017.855504 540.618745 
L 1006.620206 542.576515 
L 995.516109 544.455224 
L 984.553508 546.202493 
L 973.740519 547.773676 
L 963.083278 549.131188 
L 952.586138 550.243869 
L 942.251839 551.086409 
L 932.081669 551.638808 
L 922.075614 551.885885 
L 912.232485 551.816829 
L 902.550043 551.424785 
L 893.025109 550.706478 
L 883.653656 549.661876 
L 874.430901 548.293878 
L 865.351381 546.608044 
L 856.409018 544.612342 
L 847.597185 542.316927 
L 838.908751 539.733946 
L 830.336132 536.877364 
L 821.871321 533.762806 
L 813.50593 530.407424 
L 805.23121 526.829776 
L 797.038075 523.04972 
L 788.917126 519.088318 
L 780.858658 514.967752 
L 772.852683 510.711251 
L 764.888935 506.343011 
L 756.956883 501.888136 
L 749.04574 497.372566 
L 741.144476 492.823011 
L 733.241826 488.266882 
L 725.326306 483.732214 
L 717.386227 479.247584 
L 709.409711 474.842022 
L 701.384716 470.544905 
L 693.299061 466.385846 
L 685.140456 462.394556 
L 676.896541 458.600703 
L 668.554927 455.033736 
L 660.103244 451.722702 
L 651.529205 448.696027 
L 642.820664 445.981278 
L 633.965698 443.604896 
L 624.952687 441.591896 
L 615.770411 439.96554 
L 606.408154 438.746969 
L 596.855825 437.954806 
L 587.104085 437.604713 
L 577.14449 437.708915 
L 566.969651 438.275673 
L 556.573402 439.30872 
L 545.950986 440.806648 
L 535.099259 442.762241 
L 524.016908 445.161761 
L 512.704685 447.984186 
L 501.16566 451.200379 
L 489.405494 454.772216 
L 477.43273 458.651642 
L 465.2591 462.77967 
L 452.899861 467.085317 
L 440.374141 471.484475 
L 427.705318 475.87871 
L 414.921413 480.153996 
L 402.055511 484.179373 
L 389.146201 487.805534 
L 376.238049 490.863333 
L 363.382084 493.162215 
L 350.636323 494.488572 
L 338.06631 494.604003 
L 325.745695 493.243503 
L 313.756825 490.113557 
L 302.191382 484.890152 
L 291.151034 477.216685 
L 280.748124 466.701798 
L 271.106391 452.917098 
L 262.361715 435.394793 
L 254.6629 413.625221 
L 248.172488 387.054285 
" clip-path="url(#p1697a200b4)" style="fill: none; stroke: #8c564b; stroke-width: 1.5"/>
    <path d="M 1209.704906 708.007011 
L 1205.222769 676.063484 
L 1199.752375 649.417694 
L 1193.41323 627.12981 
L 1186.392937 608.755386 
L 1178.875375 593.855222 
L 1171.024536 581.979622 
L 1162.956945 572.663994 
L 1154.714244 565.448646 
L 1146.258912 559.921445 
L 1137.506278 555.757896 
L 1128.375428 552.729745 
L 1118.825996 550.680514 
L 1108.865665 549.490787 
L 1098.537471 549.053158 
L 1087.902356 549.261242 
L 1077.02569 550.00798 
L 1065.969481 551.187765 
L 1054.788867 552.699182 
L 1043.531141 554.447122 
L 1020.936448 558.310607 
L 998.342678 562.189505 
L 987.135799 563.973986 
L 976.009677 565.587859 
L 964.976208 566.989268 
L 954.045395 568.142606 
L 943.225809 569.018101 
L 932.52497 569.591459 
L 921.949629 569.843566 
L 911.505952 569.76025 
L 901.199597 569.33206 
L 891.035702 568.554068 
L 881.018782 567.425649 
L 871.15257 565.95023 
L 861.439822 564.134992 
L 851.882132 561.990532 
L 842.479776 559.530477 
L 833.231607 556.771088 
L 824.135024 553.730863 
L 815.185999 550.430159 
L 806.379174 546.890856 
L 797.707993 543.136076 
L 789.164868 539.189943 
L 780.741364 535.077412 
L 772.428371 530.824122 
L 764.216277 526.456303 
L 748.054714 517.484468 
L 700.829616 490.618263 
L 693.038443 486.446351 
L 685.245327 482.437766 
L 677.439827 478.61922 
L 669.611116 475.016443 
L 661.747727 471.653971 
L 653.83727 468.554968 
L 645.866112 465.741113 
L 637.819082 463.232579 
L 629.679236 461.048112 
L 621.427761 459.205196 
L 613.044068 457.720284 
L 604.506123 456.609004 
L 595.79102 455.886271 
L 586.875754 455.566208 
L 577.738107 455.66181 
L 568.357534 456.184326 
L 558.715942 457.142386 
L 548.798276 458.540933 
L 538.592886 460.380049 
L 528.091659 462.653746 
L 517.289981 465.348788 
L 506.186555 468.44357 
L 494.783138 471.907054 
L 483.08422 475.697748 
L 458.829194 484.036356 
L 433.40094 492.909685 
L 420.283676 497.292851 
L 406.911906 501.468376 
L 393.28572 505.280046 
L 379.399149 508.541048 
L 365.240815 511.023887 
L 350.801226 512.445938 
L 338.231213 512.561369 
L 336.095271 512.45363 
L 323.774655 511.09313 
L 321.209396 510.619238 
L 307.771519 507.044898 
L 306.365145 506.479902 
L 293.333846 500.511875 
L 291.942236 499.63631 
L 279.594875 490.962571 
L 278.384929 489.846839 
L 266.957639 478.204698 
L 266.032468 476.994691 
L 255.672493 462.098002 
L 255.038118 460.936126 
L 246.293442 443.41382 
L 245.431149 441.382292 
L 237.217684 417.886517 
L 230.727273 391.315581 
L 230.727273 391.315581 
" clip-path="url(#p1697a200b4)" style="fill: none; stroke: #17becf; stroke-width: 1.5"/>
   </g>
   <g id="patch_3">
    <path d="M 180 724.267712 
L 180 366.532288 
" style="fill: none; stroke: #000000; stroke-width: 0.8; stroke-linejoin: miter; stroke-linecap: square"/>
   </g>
   <g id="patch_4">
    <path d="M 1296 724.267712 
L 1296 366.532288 
" style="fill: none; stroke: #000000; stroke-width: 0.8; stroke-linejoin: miter; stroke-linecap: square"/>
   </g>
   <g id="patch_5">
    <path d="M 180 724.267712 
L 1296 724.267712 
" style="fill: none; stroke: #000000; stroke-width: 0.8; stroke-linejoin: miter; stroke-linecap: square"/>
   </g>
   <g id="patch_6">
    <path d="M 180 366.532288 
L 1296 366.532288 
" style="fill: none; stroke: #000000; stroke-width: 0.8; stroke-linejoin: miter; stroke-linecap: square"/>
   </g>
  </g>
 </g>
 <defs>
  <clipPath id="p1697a200b4">
   <rect x="180" y="366.532288" width="1116" height="357.735425"/>
  </clipPath>
 </defs>
</svg>
