<?xml version="1.0" encoding="utf-8" standalone="no"?>
<!DOCTYPE svg PUBLIC "-//W3C//DTD SVG 1.1//EN"
  "http://www.w3.org/Graphics/SVG/1.1/DTD/svg11.dtd">
<svg xmlns:xlink="http://www.w3.org/1999/xlink" width="1440pt" height="1080pt" viewBox="0 0 1440 1080" xmlns="http://www.w3.org/2000/svg" version="1.1">
 <metadata>
  <rdf:RDF xmlns:dc="http://purl.org/dc/elements/1.1/" xmlns:cc="http://creativecommons.org/ns#" xmlns:rdf="http://www.w3.org/1999/02/22-rdf-syntax-ns#">
   <cc:Work>
    <dc:type rdf:resource="http://purl.org/dc/dcmitype/StillImage"/>
    <dc:date>2023-12-11T12:06:42.789711</dc:date>
    <dc:format>image/svg+xml</dc:format>
    <dc:creator>
     <cc:Agent>
      <dc:title>Matplotlib v3.7.1, https://matplotlib.org/</dc:title>
     </cc:Agent>
    </dc:creator>
   </cc:Work>
  </rdf:RDF>
 </metadata>
 <defs>
  <style type="text/css">*{stroke-linejoin: round; stroke-linecap: butt}</style>
 </defs>
 <g id="figure_1">
  <g id="patch_1">
   <path d="M 0 1080 
L 1440 1080 
L 1440 0 
L 0 0 
z
" style="fill: #ffffff"/>
  </g>
  <g id="axes_1">
   <g id="patch_2">
    <path d="M 585.859656 961.2 
L 890.140344 961.2 
L 890.140344 129.6 
L 585.859656 129.6 
z
" style="fill: #ffffff"/>
   </g>
   <g id="matplotlib.axis_1">
    <g id="xtick_1">
     <g id="line2d_1">
      <defs>
       <path id="mbd6b3c6aa4" d="M 0 0 
L 0 3.5 
" style="stroke: #000000; stroke-width: 0.8"/>
      </defs>
      <g>
       <use xlink:href="#mbd6b3c6aa4" x="622.541912" y="961.2" style="stroke: #000000; stroke-width: 0.8"/>
      </g>
     </g>
     <g id="text_1">
      <!-- 150 -->
      <g transform="translate(612.998162 975.798437) scale(0.1 -0.1)">
       <defs>
        <path id="DejaVuSans-31" d="M 794 531 
L 1825 531 
L 1825 4091 
L 703 3866 
L 703 4441 
L 1819 4666 
L 2450 4666 
L 2450 531 
L 3481 531 
L 3481 0 
L 794 0 
L 794 531 
z
" transform="scale(0.015625)"/>
        <path id="DejaVuSans-35" d="M 691 4666 
L 3169 4666 
L 3169 4134 
L 1269 4134 
L 1269 2991 
Q 1406 3038 1543 3061 
Q 1681 3084 1819 3084 
Q 2600 3084 3056 2656 
Q 3513 2228 3513 1497 
Q 3513 744 3044 326 
Q 2575 -91 1722 -91 
Q 1428 -91 1123 -41 
Q 819 9 494 109 
L 494 744 
Q 775 591 1075 516 
Q 1375 441 1709 441 
Q 2250 441 2565 725 
Q 2881 1009 2881 1497 
Q 2881 1984 2565 2268 
Q 2250 2553 1709 2553 
Q 1456 2553 1204 2497 
Q 953 2441 691 2322 
L 691 4666 
z
" transform="scale(0.015625)"/>
        <path id="DejaVuSans-30" d="M 2034 4250 
Q 1547 4250 1301 3770 
Q 1056 3291 1056 2328 
Q 1056 1369 1301 889 
Q 1547 409 2034 409 
Q 2525 409 2770 889 
Q 3016 1369 3016 2328 
Q 3016 3291 2770 3770 
Q 2525 4250 2034 4250 
z
M 2034 4750 
Q 2819 4750 3233 4129 
Q 3647 3509 3647 2328 
Q 3647 1150 3233 529 
Q 2819 -91 2034 -91 
Q 1250 -91 836 529 
Q 422 1150 422 2328 
Q 422 3509 836 4129 
Q 1250 4750 2034 4750 
z
" transform="scale(0.015625)"/>
       </defs>
       <use xlink:href="#DejaVuSans-31"/>
       <use xlink:href="#DejaVuSans-35" x="63.623047"/>
       <use xlink:href="#DejaVuSans-30" x="127.246094"/>
      </g>
     </g>
    </g>
    <g id="xtick_2">
     <g id="line2d_2">
      <g>
       <use xlink:href="#mbd6b3c6aa4" x="664.945327" y="961.2" style="stroke: #000000; stroke-width: 0.8"/>
      </g>
     </g>
     <g id="text_2">
      <!-- 200 -->
      <g transform="translate(655.401577 975.798437) scale(0.1 -0.1)">
       <defs>
        <path id="DejaVuSans-32" d="M 1228 531 
L 3431 531 
L 3431 0 
L 469 0 
L 469 531 
Q 828 903 1448 1529 
Q 2069 2156 2228 2338 
Q 2531 2678 2651 2914 
Q 2772 3150 2772 3378 
Q 2772 3750 2511 3984 
Q 2250 4219 1831 4219 
Q 1534 4219 1204 4116 
Q 875 4013 500 3803 
L 500 4441 
Q 881 4594 1212 4672 
Q 1544 4750 1819 4750 
Q 2544 4750 2975 4387 
Q 3406 4025 3406 3419 
Q 3406 3131 3298 2873 
Q 3191 2616 2906 2266 
Q 2828 2175 2409 1742 
Q 1991 1309 1228 531 
z
" transform="scale(0.015625)"/>
       </defs>
       <use xlink:href="#DejaVuSans-32"/>
       <use xlink:href="#DejaVuSans-30" x="63.623047"/>
       <use xlink:href="#DejaVuSans-30" x="127.246094"/>
      </g>
     </g>
    </g>
    <g id="xtick_3">
     <g id="line2d_3">
      <g>
       <use xlink:href="#mbd6b3c6aa4" x="707.348743" y="961.2" style="stroke: #000000; stroke-width: 0.8"/>
      </g>
     </g>
     <g id="text_3">
      <!-- 250 -->
      <g transform="translate(697.804993 975.798437) scale(0.1 -0.1)">
       <use xlink:href="#DejaVuSans-32"/>
       <use xlink:href="#DejaVuSans-35" x="63.623047"/>
       <use xlink:href="#DejaVuSans-30" x="127.246094"/>
      </g>
     </g>
    </g>
    <g id="xtick_4">
     <g id="line2d_4">
      <g>
       <use xlink:href="#mbd6b3c6aa4" x="749.752158" y="961.2" style="stroke: #000000; stroke-width: 0.8"/>
      </g>
     </g>
     <g id="text_4">
      <!-- 300 -->
      <g transform="translate(740.208408 975.798437) scale(0.1 -0.1)">
       <defs>
        <path id="DejaVuSans-33" d="M 2597 2516 
Q 3050 2419 3304 2112 
Q 3559 1806 3559 1356 
Q 3559 666 3084 287 
Q 2609 -91 1734 -91 
Q 1441 -91 1130 -33 
Q 819 25 488 141 
L 488 750 
Q 750 597 1062 519 
Q 1375 441 1716 441 
Q 2309 441 2620 675 
Q 2931 909 2931 1356 
Q 2931 1769 2642 2001 
Q 2353 2234 1838 2234 
L 1294 2234 
L 1294 2753 
L 1863 2753 
Q 2328 2753 2575 2939 
Q 2822 3125 2822 3475 
Q 2822 3834 2567 4026 
Q 2313 4219 1838 4219 
Q 1578 4219 1281 4162 
Q 984 4106 628 3988 
L 628 4550 
Q 988 4650 1302 4700 
Q 1616 4750 1894 4750 
Q 2613 4750 3031 4423 
Q 3450 4097 3450 3541 
Q 3450 3153 3228 2886 
Q 3006 2619 2597 2516 
z
" transform="scale(0.015625)"/>
       </defs>
       <use xlink:href="#DejaVuSans-33"/>
       <use xlink:href="#DejaVuSans-30" x="63.623047"/>
       <use xlink:href="#DejaVuSans-30" x="127.246094"/>
      </g>
     </g>
    </g>
    <g id="xtick_5">
     <g id="line2d_5">
      <g>
       <use xlink:href="#mbd6b3c6aa4" x="792.155573" y="961.2" style="stroke: #000000; stroke-width: 0.8"/>
      </g>
     </g>
     <g id="text_5">
      <!-- 350 -->
      <g transform="translate(782.611823 975.798437) scale(0.1 -0.1)">
       <use xlink:href="#DejaVuSans-33"/>
       <use xlink:href="#DejaVuSans-35" x="63.623047"/>
       <use xlink:href="#DejaVuSans-30" x="127.246094"/>
      </g>
     </g>
    </g>
    <g id="xtick_6">
     <g id="line2d_6">
      <g>
       <use xlink:href="#mbd6b3c6aa4" x="834.558988" y="961.2" style="stroke: #000000; stroke-width: 0.8"/>
      </g>
     </g>
     <g id="text_6">
      <!-- 400 -->
      <g transform="translate(825.015238 975.798437) scale(0.1 -0.1)">
       <defs>
        <path id="DejaVuSans-34" d="M 2419 4116 
L 825 1625 
L 2419 1625 
L 2419 4116 
z
M 2253 4666 
L 3047 4666 
L 3047 1625 
L 3713 1625 
L 3713 1100 
L 3047 1100 
L 3047 0 
L 2419 0 
L 2419 1100 
L 313 1100 
L 313 1709 
L 2253 4666 
z
" transform="scale(0.015625)"/>
       </defs>
       <use xlink:href="#DejaVuSans-34"/>
       <use xlink:href="#DejaVuSans-30" x="63.623047"/>
       <use xlink:href="#DejaVuSans-30" x="127.246094"/>
      </g>
     </g>
    </g>
    <g id="xtick_7">
     <g id="line2d_7">
      <g>
       <use xlink:href="#mbd6b3c6aa4" x="876.962403" y="961.2" style="stroke: #000000; stroke-width: 0.8"/>
      </g>
     </g>
     <g id="text_7">
      <!-- 450 -->
      <g transform="translate(867.418653 975.798437) scale(0.1 -0.1)">
       <use xlink:href="#DejaVuSans-34"/>
       <use xlink:href="#DejaVuSans-35" x="63.623047"/>
       <use xlink:href="#DejaVuSans-30" x="127.246094"/>
      </g>
     </g>
    </g>
   </g>
   <g id="matplotlib.axis_2">
    <g id="ytick_1">
     <g id="line2d_8">
      <defs>
       <path id="m7b953b8bf9" d="M 0 0 
L -3.5 0 
" style="stroke: #000000; stroke-width: 0.8"/>
      </defs>
      <g>
       <use xlink:href="#m7b953b8bf9" x="585.859656" y="798.641037" style="stroke: #000000; stroke-width: 0.8"/>
      </g>
     </g>
     <g id="text_8">
      <!-- 600 -->
      <g transform="translate(559.772156 802.440256) scale(0.1 -0.1)">
       <defs>
        <path id="DejaVuSans-36" d="M 2113 2584 
Q 1688 2584 1439 2293 
Q 1191 2003 1191 1497 
Q 1191 994 1439 701 
Q 1688 409 2113 409 
Q 2538 409 2786 701 
Q 3034 994 3034 1497 
Q 3034 2003 2786 2293 
Q 2538 2584 2113 2584 
z
M 3366 4563 
L 3366 3988 
Q 3128 4100 2886 4159 
Q 2644 4219 2406 4219 
Q 1781 4219 1451 3797 
Q 1122 3375 1075 2522 
Q 1259 2794 1537 2939 
Q 1816 3084 2150 3084 
Q 2853 3084 3261 2657 
Q 3669 2231 3669 1497 
Q 3669 778 3244 343 
Q 2819 -91 2113 -91 
Q 1303 -91 875 529 
Q 447 1150 447 2328 
Q 447 3434 972 4092 
Q 1497 4750 2381 4750 
Q 2619 4750 2861 4703 
Q 3103 4656 3366 4563 
z
" transform="scale(0.015625)"/>
       </defs>
       <use xlink:href="#DejaVuSans-36"/>
       <use xlink:href="#DejaVuSans-30" x="63.623047"/>
       <use xlink:href="#DejaVuSans-30" x="127.246094"/>
      </g>
     </g>
    </g>
    <g id="ytick_2">
     <g id="line2d_9">
      <g>
       <use xlink:href="#m7b953b8bf9" x="585.859656" y="629.027377" style="stroke: #000000; stroke-width: 0.8"/>
      </g>
     </g>
     <g id="text_9">
      <!-- 800 -->
      <g transform="translate(559.772156 632.826595) scale(0.1 -0.1)">
       <defs>
        <path id="DejaVuSans-38" d="M 2034 2216 
Q 1584 2216 1326 1975 
Q 1069 1734 1069 1313 
Q 1069 891 1326 650 
Q 1584 409 2034 409 
Q 2484 409 2743 651 
Q 3003 894 3003 1313 
Q 3003 1734 2745 1975 
Q 2488 2216 2034 2216 
z
M 1403 2484 
Q 997 2584 770 2862 
Q 544 3141 544 3541 
Q 544 4100 942 4425 
Q 1341 4750 2034 4750 
Q 2731 4750 3128 4425 
Q 3525 4100 3525 3541 
Q 3525 3141 3298 2862 
Q 3072 2584 2669 2484 
Q 3125 2378 3379 2068 
Q 3634 1759 3634 1313 
Q 3634 634 3220 271 
Q 2806 -91 2034 -91 
Q 1263 -91 848 271 
Q 434 634 434 1313 
Q 434 1759 690 2068 
Q 947 2378 1403 2484 
z
M 1172 3481 
Q 1172 3119 1398 2916 
Q 1625 2713 2034 2713 
Q 2441 2713 2670 2916 
Q 2900 3119 2900 3481 
Q 2900 3844 2670 4047 
Q 2441 4250 2034 4250 
Q 1625 4250 1398 4047 
Q 1172 3844 1172 3481 
z
" transform="scale(0.015625)"/>
       </defs>
       <use xlink:href="#DejaVuSans-38"/>
       <use xlink:href="#DejaVuSans-30" x="63.623047"/>
       <use xlink:href="#DejaVuSans-30" x="127.246094"/>
      </g>
     </g>
    </g>
    <g id="ytick_3">
     <g id="line2d_10">
      <g>
       <use xlink:href="#m7b953b8bf9" x="585.859656" y="459.413716" style="stroke: #000000; stroke-width: 0.8"/>
      </g>
     </g>
     <g id="text_10">
      <!-- 1000 -->
      <g transform="translate(553.409656 463.212935) scale(0.1 -0.1)">
       <use xlink:href="#DejaVuSans-31"/>
       <use xlink:href="#DejaVuSans-30" x="63.623047"/>
       <use xlink:href="#DejaVuSans-30" x="127.246094"/>
       <use xlink:href="#DejaVuSans-30" x="190.869141"/>
      </g>
     </g>
    </g>
    <g id="ytick_4">
     <g id="line2d_11">
      <g>
       <use xlink:href="#m7b953b8bf9" x="585.859656" y="289.800055" style="stroke: #000000; stroke-width: 0.8"/>
      </g>
     </g>
     <g id="text_11">
      <!-- 1200 -->
      <g transform="translate(553.409656 293.599274) scale(0.1 -0.1)">
       <use xlink:href="#DejaVuSans-31"/>
       <use xlink:href="#DejaVuSans-32" x="63.623047"/>
       <use xlink:href="#DejaVuSans-30" x="127.246094"/>
       <use xlink:href="#DejaVuSans-30" x="190.869141"/>
      </g>
     </g>
    </g>
   </g>
   <g id="LineCollection_1">
    <path d="M 678.922474 205.271444 
L 705.229122 211.773677 
L 726.840456 218.370777 
L 744.468728 225.068962 
L 758.39202 231.738644 
L 768.894138 238.20567 
L 776.313154 244.254531 
L 781.112578 249.68303 
L 783.911573 254.442762 
L 785.352454 258.790034 
L 785.835063 263.228029 
L 785.413863 268.210461 
L 783.97279 273.926947 
L 781.427681 280.338214 
L 777.791253 287.307944 
L 773.149979 294.69188 
L 767.626953 302.370605 
L 761.35664 310.253639 
L 754.471696 318.274412 
L 747.097058 326.38413 
L 739.34774 334.54677 
L 731.328336 342.73548 
L 714.847365 359.11537 
L 690.108303 383.57041 
L 682.117571 391.653981 
L 674.339619 399.696974 
L 666.814905 407.699319 
L 659.578674 415.662294 
L 652.661512 423.588393 
L 646.089913 431.481188 
L 639.886847 439.345171 
L 634.072321 447.185559 
L 628.663946 455.008034 
L 623.677478 462.818405 
L 619.127299 470.622177 
L 615.026818 478.424015 
L 611.388725 486.227126 
L 608.225042 494.032603 
L 605.546941 501.838795 
L 603.364292 509.640821 
L 601.684995 517.430356 
L 600.514169 525.195783 
L 599.853371 532.922788 
L 599.700004 540.595351 
L 600.047091 548.197016 
L 600.883479 555.712226 
L 602.194454 563.127517 
L 603.962675 570.432379 
L 606.169224 577.619706 
L 608.794635 584.685842 
L 611.81975 591.630296 
L 615.226341 598.455251 
L 618.997493 605.164985 
L 623.117753 611.765286 
L 627.57312 618.262938 
L 632.350899 624.6653 
L 637.43949 630.979981 
L 642.828121 637.214618 
L 648.50657 643.376725 
L 654.46487 649.473614 
L 660.69302 655.512357 
L 667.18069 661.499786 
L 673.91693 667.442514 
L 680.889872 673.346969 
L 688.08642 679.219434 
L 695.491938 685.066095 
L 703.089908 690.893073 
L 718.785589 702.512349 
L 734.989574 714.125884 
L 767.962189 737.574922 
L 776.069929 743.513645 
L 784.011833 749.48977 
L 791.720816 755.504716 
L 799.121687 761.556799 
L 806.130795 767.639712 
L 812.656216 773.740436 
L 818.599053 779.836576 
L 823.856865 785.893481 
L 828.330808 791.862508 
L 831.938138 797.683998 
L 834.62955 803.302104 
L 836.402863 808.700506 
L 837.290544 813.95825 
L 837.296421 819.293105 
L 836.299927 825.033099 
L 834.008408 831.504027 
L 830.010272 838.91817 
L 823.873741 847.349825 
L 815.207958 856.783985 
L 803.669281 867.175605 
L 788.941063 878.485848 
L 770.275928 890.987561 
L 770.275928 890.987561 
" clip-path="url(#p11ff30cdf2)" style="fill: none; stroke: #1f77b4; stroke-width: 1.5"/>
    <path d="M 683.60283 186.335722 
L 710.420511 192.964267 
L 733.159054 199.90546 
L 752.159675 207.125095 
L 767.74509 214.590984 
L 780.220121 222.272897 
L 789.872285 230.142485 
L 796.972392 238.173224 
L 801.775127 246.340345 
L 804.519631 254.620769 
L 805.430074 262.993047 
L 804.716222 271.437288 
L 802.574001 279.935106 
L 799.186045 288.469551 
L 794.722249 297.025049 
L 789.340302 305.587342 
L 783.186223 314.143428 
L 776.394881 322.681499 
L 769.090514 331.190889 
L 761.387231 339.66201 
L 753.389513 348.086299 
L 745.1927 356.456163 
L 736.883472 364.764924 
L 728.540315 373.006766 
L 720.233985 381.176681 
L 712.027955 389.270424 
L 703.978854 397.284458 
L 696.136896 405.215907 
L 688.546297 413.062512 
L 681.245681 420.822581 
L 674.268476 428.494948 
L 667.643292 436.078932 
L 661.394298 443.57429 
L 655.541574 450.981185 
L 650.101462 458.300141 
L 645.086893 465.532013 
L 640.507711 472.677946 
L 636.370979 479.739347 
L 632.681266 486.717854 
L 629.440931 493.615302 
L 626.650385 500.4337 
L 624.308338 507.175203 
L 622.412038 513.842092 
L 620.957486 520.436747 
L 619.939645 526.961629 
L 619.352622 533.419267 
L 619.189848 539.812236 
L 619.444229 546.143148 
L 620.108286 552.41464 
L 621.174283 558.629363 
L 622.634328 564.789979 
L 624.480463 570.899154 
L 626.704739 576.959558 
L 629.299265 582.973862 
L 632.256244 588.944747 
L 635.567994 594.874904 
L 639.226942 600.767044 
L 643.225606 606.62391 
L 647.556554 612.448289 
L 652.212346 618.243027 
L 657.185455 624.011048 
L 662.468167 629.755377 
L 668.052464 635.479165 
L 673.929882 641.185711 
L 680.091352 646.878497 
L 686.527019 652.561219 
L 693.226037 658.237822 
L 700.176347 663.912542 
L 707.364428 669.589943 
L 714.77503 675.274967 
L 722.390883 680.97298 
L 730.192381 686.689822 
L 738.15725 692.431863 
L 746.260181 698.206062 
L 754.472454 704.020028 
L 762.761523 709.882081 
L 771.090591 715.801325 
L 779.418149 721.787717 
L 787.6975 727.852141 
L 795.87625 734.006487 
L 803.895779 740.263737 
L 811.690685 746.638044 
L 819.188201 753.144826 
L 826.307588 759.800858 
L 832.959504 766.624368 
L 839.045336 773.635138 
L 844.45652 780.854609 
L 849.073822 788.30599 
L 852.766601 796.014367 
L 855.392031 804.006823 
L 856.794313 812.312557 
L 856.803844 820.963008 
L 855.236364 829.991981 
L 851.892075 839.435786 
L 846.554725 849.333367 
L 838.990673 859.726449 
L 828.947914 870.65968 
L 816.155079 882.180782 
L 800.320408 894.340704 
L 781.130685 907.19378 
" clip-path="url(#p11ff30cdf2)" style="fill: none; stroke: #8c564b; stroke-width: 1.5"/>
    <path d="M 688.283186 167.4 
L 716.115376 174.308549 
L 740.087275 181.671781 
L 760.586478 189.533725 
L 777.972709 197.981857 
L 790.44774 205.663769 
L 792.545838 207.155225 
L 803.386512 216.077173 
L 804.48551 217.222695 
L 812.758893 226.716623 
L 813.786219 228.28573 
L 819.53885 238.283208 
L 820.2902 240.20362 
L 823.5795 250.474846 
L 823.910884 252.512069 
L 824.934242 262.759154 
L 824.866317 264.63613 
L 823.954818 274.653456 
L 823.630064 276.205293 
L 821.487843 284.703111 
L 820.703322 287.131981 
L 816.479341 297.492258 
L 811.236435 307.405268 
L 805.175271 316.976857 
L 798.45157 326.28577 
L 791.195497 335.386186 
L 783.521547 344.313868 
L 775.533249 353.091733 
L 767.325347 361.734003 
L 758.984833 370.249073 
L 742.218173 386.913005 
L 717.795532 411.052994 
L 710.082248 418.8543 
L 702.659981 426.526896 
L 695.565433 434.067928 
L 688.830215 441.474199 
L 682.481056 448.742211 
L 676.539988 455.868227 
L 671.024504 462.848329 
L 665.947686 469.678521 
L 661.31831 476.354877 
L 657.14094 482.873774 
L 653.416023 489.232206 
L 650.140043 495.428204 
L 647.305744 501.461353 
L 644.902515 507.333384 
L 642.91695 513.048767 
L 641.33365 518.615231 
L 640.136234 524.044081 
L 639.308512 529.350199 
L 638.835683 534.551632 
L 638.705394 539.668763 
L 638.908482 544.723142 
L 639.439284 549.736138 
L 640.295465 554.727644 
L 641.477456 559.71502 
L 642.987625 564.712426 
L 644.829374 569.730571 
L 647.006298 574.776845 
L 649.521522 579.855714 
L 652.37724 584.969281 
L 655.574461 590.117884 
L 659.112908 595.300669 
L 662.991038 600.516085 
L 667.206111 605.762291 
L 671.754287 611.037457 
L 676.630714 616.34 
L 681.829585 621.668734 
L 687.344166 627.022992 
L 693.166774 632.402691 
L 699.288718 637.808395 
L 705.700205 643.24135 
L 712.390194 648.703525 
L 719.346234 654.197653 
L 726.554263 659.727274 
L 741.660601 670.911578 
L 757.555367 682.303641 
L 790.944257 706.051894 
L 799.425567 712.266258 
L 807.875201 718.628176 
L 816.243564 725.164085 
L 824.475501 731.906589 
L 832.509257 738.896432 
L 840.27461 746.185073 
L 847.689423 753.837782 
L 854.65334 761.936527 
L 861.036901 770.580454 
L 865.654204 778.031834 
L 866.664988 779.878759 
L 870.357766 787.587136 
L 871.297968 789.927025 
L 874.327726 799.326358 
L 874.625408 800.759594 
L 876.230816 810.672541 
L 876.299872 812.291066 
L 876.238338 822.626667 
L 876.021959 824.299379 
L 874.105673 834.933285 
L 873.623086 836.503184 
L 869.722605 847.343977 
L 869.060455 848.693972 
L 863.723106 858.591553 
L 862.325652 860.811397 
L 854.7616 871.204479 
L 853.355776 872.921566 
L 842.001179 885.153802 
L 828.035191 897.651084 
L 811.175165 910.546924 
L 791.985442 923.4 
L 791.985442 923.4 
" clip-path="url(#p11ff30cdf2)" style="fill: none; stroke: #17becf; stroke-width: 1.5"/>
   </g>
   <g id="patch_3">
    <path d="M 585.859656 961.2 
L 585.859656 129.6 
" style="fill: none; stroke: #000000; stroke-width: 0.8; stroke-linejoin: miter; stroke-linecap: square"/>
   </g>
   <g id="patch_4">
    <path d="M 890.140344 961.2 
L 890.140344 129.6 
" style="fill: none; stroke: #000000; stroke-width: 0.8; stroke-linejoin: miter; stroke-linecap: square"/>
   </g>
   <g id="patch_5">
    <path d="M 585.859656 961.2 
L 890.140344 961.2 
" style="fill: none; stroke: #000000; stroke-width: 0.8; stroke-linejoin: miter; stroke-linecap: square"/>
   </g>
   <g id="patch_6">
    <path d="M 585.859656 129.6 
L 890.140344 129.6 
" style="fill: none; stroke: #000000; stroke-width: 0.8; stroke-linejoin: miter; stroke-linecap: square"/>
   </g>
  </g>
 </g>
 <defs>
  <clipPath id="p11ff30cdf2">
   <rect x="585.859656" y="129.6" width="304.280687" height="831.6"/>
  </clipPath>
 </defs>
</svg>
