<?xml version="1.0" encoding="utf-8" standalone="no"?>
<!DOCTYPE svg PUBLIC "-//W3C//DTD SVG 1.1//EN"
  "http://www.w3.org/Graphics/SVG/1.1/DTD/svg11.dtd">
<svg xmlns:xlink="http://www.w3.org/1999/xlink" width="1440pt" height="1080pt" viewBox="0 0 1440 1080" xmlns="http://www.w3.org/2000/svg" version="1.1">
 <metadata>
  <rdf:RDF xmlns:dc="http://purl.org/dc/elements/1.1/" xmlns:cc="http://creativecommons.org/ns#" xmlns:rdf="http://www.w3.org/1999/02/22-rdf-syntax-ns#">
   <cc:Work>
    <dc:type rdf:resource="http://purl.org/dc/dcmitype/StillImage"/>
    <dc:date>2023-12-11T12:06:37.271593</dc:date>
    <dc:format>image/svg+xml</dc:format>
    <dc:creator>
     <cc:Agent>
      <dc:title>Matplotlib v3.7.1, https://matplotlib.org/</dc:title>
     </cc:Agent>
    </dc:creator>
   </cc:Work>
  </rdf:RDF>
 </metadata>
 <defs>
  <style type="text/css">*{stroke-linejoin: round; stroke-linecap: butt}</style>
 </defs>
 <g id="figure_1">
  <g id="patch_1">
   <path d="M 0 1080 
L 1440 1080 
L 1440 0 
L 0 0 
z
" style="fill: #ffffff"/>
  </g>
  <g id="axes_1">
   <g id="patch_2">
    <path d="M 475.829873 961.2 
L 1000.170127 961.2 
L 1000.170127 129.6 
L 475.829873 129.6 
z
" style="fill: #ffffff"/>
   </g>
   <g id="matplotlib.axis_1">
    <g id="xtick_1">
     <g id="line2d_1">
      <defs>
       <path id="m8b44de2169" d="M 0 0 
L 0 3.5 
" style="stroke: #000000; stroke-width: 0.8"/>
      </defs>
      <g>
       <use xlink:href="#m8b44de2169" x="512.357401" y="961.2" style="stroke: #000000; stroke-width: 0.8"/>
      </g>
     </g>
     <g id="text_1">
      <!-- 600 -->
      <g transform="translate(502.813651 975.798437) scale(0.1 -0.1)">
       <defs>
        <path id="DejaVuSans-36" d="M 2113 2584 
Q 1688 2584 1439 2293 
Q 1191 2003 1191 1497 
Q 1191 994 1439 701 
Q 1688 409 2113 409 
Q 2538 409 2786 701 
Q 3034 994 3034 1497 
Q 3034 2003 2786 2293 
Q 2538 2584 2113 2584 
z
M 3366 4563 
L 3366 3988 
Q 3128 4100 2886 4159 
Q 2644 4219 2406 4219 
Q 1781 4219 1451 3797 
Q 1122 3375 1075 2522 
Q 1259 2794 1537 2939 
Q 1816 3084 2150 3084 
Q 2853 3084 3261 2657 
Q 3669 2231 3669 1497 
Q 3669 778 3244 343 
Q 2819 -91 2113 -91 
Q 1303 -91 875 529 
Q 447 1150 447 2328 
Q 447 3434 972 4092 
Q 1497 4750 2381 4750 
Q 2619 4750 2861 4703 
Q 3103 4656 3366 4563 
z
" transform="scale(0.015625)"/>
        <path id="DejaVuSans-30" d="M 2034 4250 
Q 1547 4250 1301 3770 
Q 1056 3291 1056 2328 
Q 1056 1369 1301 889 
Q 1547 409 2034 409 
Q 2525 409 2770 889 
Q 3016 1369 3016 2328 
Q 3016 3291 2770 3770 
Q 2525 4250 2034 4250 
z
M 2034 4750 
Q 2819 4750 3233 4129 
Q 3647 3509 3647 2328 
Q 3647 1150 3233 529 
Q 2819 -91 2034 -91 
Q 1250 -91 836 529 
Q 422 1150 422 2328 
Q 422 3509 836 4129 
Q 1250 4750 2034 4750 
z
" transform="scale(0.015625)"/>
       </defs>
       <use xlink:href="#DejaVuSans-36"/>
       <use xlink:href="#DejaVuSans-30" x="63.623047"/>
       <use xlink:href="#DejaVuSans-30" x="127.246094"/>
      </g>
     </g>
    </g>
    <g id="xtick_2">
     <g id="line2d_2">
      <g>
       <use xlink:href="#m8b44de2169" x="625.64926" y="961.2" style="stroke: #000000; stroke-width: 0.8"/>
      </g>
     </g>
     <g id="text_2">
      <!-- 700 -->
      <g transform="translate(616.10551 975.798437) scale(0.1 -0.1)">
       <defs>
        <path id="DejaVuSans-37" d="M 525 4666 
L 3525 4666 
L 3525 4397 
L 1831 0 
L 1172 0 
L 2766 4134 
L 525 4134 
L 525 4666 
z
" transform="scale(0.015625)"/>
       </defs>
       <use xlink:href="#DejaVuSans-37"/>
       <use xlink:href="#DejaVuSans-30" x="63.623047"/>
       <use xlink:href="#DejaVuSans-30" x="127.246094"/>
      </g>
     </g>
    </g>
    <g id="xtick_3">
     <g id="line2d_3">
      <g>
       <use xlink:href="#m8b44de2169" x="738.941118" y="961.2" style="stroke: #000000; stroke-width: 0.8"/>
      </g>
     </g>
     <g id="text_3">
      <!-- 800 -->
      <g transform="translate(729.397368 975.798437) scale(0.1 -0.1)">
       <defs>
        <path id="DejaVuSans-38" d="M 2034 2216 
Q 1584 2216 1326 1975 
Q 1069 1734 1069 1313 
Q 1069 891 1326 650 
Q 1584 409 2034 409 
Q 2484 409 2743 651 
Q 3003 894 3003 1313 
Q 3003 1734 2745 1975 
Q 2488 2216 2034 2216 
z
M 1403 2484 
Q 997 2584 770 2862 
Q 544 3141 544 3541 
Q 544 4100 942 4425 
Q 1341 4750 2034 4750 
Q 2731 4750 3128 4425 
Q 3525 4100 3525 3541 
Q 3525 3141 3298 2862 
Q 3072 2584 2669 2484 
Q 3125 2378 3379 2068 
Q 3634 1759 3634 1313 
Q 3634 634 3220 271 
Q 2806 -91 2034 -91 
Q 1263 -91 848 271 
Q 434 634 434 1313 
Q 434 1759 690 2068 
Q 947 2378 1403 2484 
z
M 1172 3481 
Q 1172 3119 1398 2916 
Q 1625 2713 2034 2713 
Q 2441 2713 2670 2916 
Q 2900 3119 2900 3481 
Q 2900 3844 2670 4047 
Q 2441 4250 2034 4250 
Q 1625 4250 1398 4047 
Q 1172 3844 1172 3481 
z
" transform="scale(0.015625)"/>
       </defs>
       <use xlink:href="#DejaVuSans-38"/>
       <use xlink:href="#DejaVuSans-30" x="63.623047"/>
       <use xlink:href="#DejaVuSans-30" x="127.246094"/>
      </g>
     </g>
    </g>
    <g id="xtick_4">
     <g id="line2d_4">
      <g>
       <use xlink:href="#m8b44de2169" x="852.232977" y="961.2" style="stroke: #000000; stroke-width: 0.8"/>
      </g>
     </g>
     <g id="text_4">
      <!-- 900 -->
      <g transform="translate(842.689227 975.798437) scale(0.1 -0.1)">
       <defs>
        <path id="DejaVuSans-39" d="M 703 97 
L 703 672 
Q 941 559 1184 500 
Q 1428 441 1663 441 
Q 2288 441 2617 861 
Q 2947 1281 2994 2138 
Q 2813 1869 2534 1725 
Q 2256 1581 1919 1581 
Q 1219 1581 811 2004 
Q 403 2428 403 3163 
Q 403 3881 828 4315 
Q 1253 4750 1959 4750 
Q 2769 4750 3195 4129 
Q 3622 3509 3622 2328 
Q 3622 1225 3098 567 
Q 2575 -91 1691 -91 
Q 1453 -91 1209 -44 
Q 966 3 703 97 
z
M 1959 2075 
Q 2384 2075 2632 2365 
Q 2881 2656 2881 3163 
Q 2881 3666 2632 3958 
Q 2384 4250 1959 4250 
Q 1534 4250 1286 3958 
Q 1038 3666 1038 3163 
Q 1038 2656 1286 2365 
Q 1534 2075 1959 2075 
z
" transform="scale(0.015625)"/>
       </defs>
       <use xlink:href="#DejaVuSans-39"/>
       <use xlink:href="#DejaVuSans-30" x="63.623047"/>
       <use xlink:href="#DejaVuSans-30" x="127.246094"/>
      </g>
     </g>
    </g>
    <g id="xtick_5">
     <g id="line2d_5">
      <g>
       <use xlink:href="#m8b44de2169" x="965.524836" y="961.2" style="stroke: #000000; stroke-width: 0.8"/>
      </g>
     </g>
     <g id="text_5">
      <!-- 1000 -->
      <g transform="translate(952.799836 975.798437) scale(0.1 -0.1)">
       <defs>
        <path id="DejaVuSans-31" d="M 794 531 
L 1825 531 
L 1825 4091 
L 703 3866 
L 703 4441 
L 1819 4666 
L 2450 4666 
L 2450 531 
L 3481 531 
L 3481 0 
L 794 0 
L 794 531 
z
" transform="scale(0.015625)"/>
       </defs>
       <use xlink:href="#DejaVuSans-31"/>
       <use xlink:href="#DejaVuSans-30" x="63.623047"/>
       <use xlink:href="#DejaVuSans-30" x="127.246094"/>
       <use xlink:href="#DejaVuSans-30" x="190.869141"/>
      </g>
     </g>
    </g>
   </g>
   <g id="matplotlib.axis_2">
    <g id="ytick_1">
     <g id="line2d_6">
      <defs>
       <path id="m32d85bac86" d="M 0 0 
L -3.5 0 
" style="stroke: #000000; stroke-width: 0.8"/>
      </defs>
      <g>
       <use xlink:href="#m32d85bac86" x="475.829873" y="939.597494" style="stroke: #000000; stroke-width: 0.8"/>
      </g>
     </g>
     <g id="text_6">
      <!-- 700 -->
      <g transform="translate(449.742373 943.396712) scale(0.1 -0.1)">
       <use xlink:href="#DejaVuSans-37"/>
       <use xlink:href="#DejaVuSans-30" x="63.623047"/>
       <use xlink:href="#DejaVuSans-30" x="127.246094"/>
      </g>
     </g>
    </g>
    <g id="ytick_2">
     <g id="line2d_7">
      <g>
       <use xlink:href="#m32d85bac86" x="475.829873" y="826.305635" style="stroke: #000000; stroke-width: 0.8"/>
      </g>
     </g>
     <g id="text_7">
      <!-- 800 -->
      <g transform="translate(449.742373 830.104854) scale(0.1 -0.1)">
       <use xlink:href="#DejaVuSans-38"/>
       <use xlink:href="#DejaVuSans-30" x="63.623047"/>
       <use xlink:href="#DejaVuSans-30" x="127.246094"/>
      </g>
     </g>
    </g>
    <g id="ytick_3">
     <g id="line2d_8">
      <g>
       <use xlink:href="#m32d85bac86" x="475.829873" y="713.013776" style="stroke: #000000; stroke-width: 0.8"/>
      </g>
     </g>
     <g id="text_8">
      <!-- 900 -->
      <g transform="translate(449.742373 716.812995) scale(0.1 -0.1)">
       <use xlink:href="#DejaVuSans-39"/>
       <use xlink:href="#DejaVuSans-30" x="63.623047"/>
       <use xlink:href="#DejaVuSans-30" x="127.246094"/>
      </g>
     </g>
    </g>
    <g id="ytick_4">
     <g id="line2d_9">
      <g>
       <use xlink:href="#m32d85bac86" x="475.829873" y="599.721918" style="stroke: #000000; stroke-width: 0.8"/>
      </g>
     </g>
     <g id="text_9">
      <!-- 1000 -->
      <g transform="translate(443.379873 603.521137) scale(0.1 -0.1)">
       <use xlink:href="#DejaVuSans-31"/>
       <use xlink:href="#DejaVuSans-30" x="63.623047"/>
       <use xlink:href="#DejaVuSans-30" x="127.246094"/>
       <use xlink:href="#DejaVuSans-30" x="190.869141"/>
      </g>
     </g>
    </g>
    <g id="ytick_5">
     <g id="line2d_10">
      <g>
       <use xlink:href="#m32d85bac86" x="475.829873" y="486.430059" style="stroke: #000000; stroke-width: 0.8"/>
      </g>
     </g>
     <g id="text_10">
      <!-- 1100 -->
      <g transform="translate(443.379873 490.229278) scale(0.1 -0.1)">
       <use xlink:href="#DejaVuSans-31"/>
       <use xlink:href="#DejaVuSans-31" x="63.623047"/>
       <use xlink:href="#DejaVuSans-30" x="127.246094"/>
       <use xlink:href="#DejaVuSans-30" x="190.869141"/>
      </g>
     </g>
    </g>
    <g id="ytick_6">
     <g id="line2d_11">
      <g>
       <use xlink:href="#m32d85bac86" x="475.829873" y="373.138201" style="stroke: #000000; stroke-width: 0.8"/>
      </g>
     </g>
     <g id="text_11">
      <!-- 1200 -->
      <g transform="translate(443.379873 376.937419) scale(0.1 -0.1)">
       <defs>
        <path id="DejaVuSans-32" d="M 1228 531 
L 3431 531 
L 3431 0 
L 469 0 
L 469 531 
Q 828 903 1448 1529 
Q 2069 2156 2228 2338 
Q 2531 2678 2651 2914 
Q 2772 3150 2772 3378 
Q 2772 3750 2511 3984 
Q 2250 4219 1831 4219 
Q 1534 4219 1204 4116 
Q 875 4013 500 3803 
L 500 4441 
Q 881 4594 1212 4672 
Q 1544 4750 1819 4750 
Q 2544 4750 2975 4387 
Q 3406 4025 3406 3419 
Q 3406 3131 3298 2873 
Q 3191 2616 2906 2266 
Q 2828 2175 2409 1742 
Q 1991 1309 1228 531 
z
" transform="scale(0.015625)"/>
       </defs>
       <use xlink:href="#DejaVuSans-31"/>
       <use xlink:href="#DejaVuSans-32" x="63.623047"/>
       <use xlink:href="#DejaVuSans-30" x="127.246094"/>
       <use xlink:href="#DejaVuSans-30" x="190.869141"/>
      </g>
     </g>
    </g>
    <g id="ytick_7">
     <g id="line2d_12">
      <g>
       <use xlink:href="#m32d85bac86" x="475.829873" y="259.846342" style="stroke: #000000; stroke-width: 0.8"/>
      </g>
     </g>
     <g id="text_12">
      <!-- 1300 -->
      <g transform="translate(443.379873 263.645561) scale(0.1 -0.1)">
       <defs>
        <path id="DejaVuSans-33" d="M 2597 2516 
Q 3050 2419 3304 2112 
Q 3559 1806 3559 1356 
Q 3559 666 3084 287 
Q 2609 -91 1734 -91 
Q 1441 -91 1130 -33 
Q 819 25 488 141 
L 488 750 
Q 750 597 1062 519 
Q 1375 441 1716 441 
Q 2309 441 2620 675 
Q 2931 909 2931 1356 
Q 2931 1769 2642 2001 
Q 2353 2234 1838 2234 
L 1294 2234 
L 1294 2753 
L 1863 2753 
Q 2328 2753 2575 2939 
Q 2822 3125 2822 3475 
Q 2822 3834 2567 4026 
Q 2313 4219 1838 4219 
Q 1578 4219 1281 4162 
Q 984 4106 628 3988 
L 628 4550 
Q 988 4650 1302 4700 
Q 1616 4750 1894 4750 
Q 2613 4750 3031 4423 
Q 3450 4097 3450 3541 
Q 3450 3153 3228 2886 
Q 3006 2619 2597 2516 
z
" transform="scale(0.015625)"/>
       </defs>
       <use xlink:href="#DejaVuSans-31"/>
       <use xlink:href="#DejaVuSans-33" x="63.623047"/>
       <use xlink:href="#DejaVuSans-30" x="127.246094"/>
       <use xlink:href="#DejaVuSans-30" x="190.869141"/>
      </g>
     </g>
    </g>
    <g id="ytick_8">
     <g id="line2d_13">
      <g>
       <use xlink:href="#m32d85bac86" x="475.829873" y="146.554483" style="stroke: #000000; stroke-width: 0.8"/>
      </g>
     </g>
     <g id="text_13">
      <!-- 1400 -->
      <g transform="translate(443.379873 150.353702) scale(0.1 -0.1)">
       <defs>
        <path id="DejaVuSans-34" d="M 2419 4116 
L 825 1625 
L 2419 1625 
L 2419 4116 
z
M 2253 4666 
L 3047 4666 
L 3047 1625 
L 3713 1625 
L 3713 1100 
L 3047 1100 
L 3047 0 
L 2419 0 
L 2419 1100 
L 313 1100 
L 313 1709 
L 2253 4666 
z
" transform="scale(0.015625)"/>
       </defs>
       <use xlink:href="#DejaVuSans-31"/>
       <use xlink:href="#DejaVuSans-34" x="63.623047"/>
       <use xlink:href="#DejaVuSans-30" x="127.246094"/>
       <use xlink:href="#DejaVuSans-30" x="190.869141"/>
      </g>
     </g>
    </g>
   </g>
   <g id="LineCollection_1">
    <path d="M 958.744217 923.4 
L 965.410575 904.561779 
L 970.409693 886.872284 
L 973.83982 870.233951 
L 975.787018 854.566442 
L 976.329753 839.810551 
L 975.546007 825.929909 
L 973.521533 812.908339 
L 970.356397 800.742018 
L 966.166737 789.42811 
L 961.080556 778.953831 
L 955.229406 769.289842 
L 948.739537 760.389483 
L 941.725576 752.192532 
L 934.287799 744.630897 
L 926.512401 737.633978 
L 918.473447 731.132625 
L 910.235371 725.061501 
L 901.855331 719.360194 
L 893.385115 713.973515 
L 884.872547 708.851337 
L 876.362476 703.948234 
L 859.517985 694.638604 
L 835.187903 681.360343 
L 827.486363 677.010694 
L 820.049184 672.662804 
L 812.906473 668.297399 
L 806.085993 663.8979 
L 799.612729 659.450256 
L 793.508363 654.942673 
L 787.790678 650.365168 
L 782.472973 645.708906 
L 777.563565 640.965269 
L 773.065557 636.124677 
L 768.977029 631.175263 
L 765.291807 626.101607 
L 762.000857 620.883833 
L 759.094166 615.497408 
L 756.562787 609.913856 
L 754.400589 604.102386 
L 752.605287 598.032171 
L 751.178529 591.674774 
L 750.125081 585.006241 
L 749.451404 578.00848 
L 749.164008 570.669834 
L 749.26791 562.984936 
L 749.76543 554.954083 
L 750.655365 546.582364 
L 751.932546 537.878755 
L 753.587669 528.855296 
L 755.607323 519.526404 
L 757.974138 509.908356 
L 760.666978 500.0189 
L 763.661161 489.876976 
L 766.92867 479.502526 
L 770.438349 468.916352 
L 778.044957 447.195684 
L 790.337764 413.563794 
L 798.613281 390.683389 
L 802.623622 379.185101 
L 806.478309 367.677002 
L 810.121372 356.179288 
L 813.494193 344.710397 
L 816.535025 333.286514 
L 819.178191 321.921136 
L 821.352862 310.624898 
L 822.981296 299.405998 
L 823.976605 288.271828 
L 824.240422 277.232696 
L 823.661671 266.308664 
L 822.118799 255.539863 
L 820.104209 247.065208 
L 819.488808 244.998438 
L 816.594452 236.954968 
L 815.665213 234.796147 
L 811.835674 227.210695 
L 810.581277 225.078537 
L 805.763358 217.976244 
L 804.226556 216.000517 
L 798.369738 209.404534 
L 796.643138 207.691349 
L 789.700074 201.622527 
L 787.900413 200.228184 
L 778.063381 193.631891 
L 767.17181 187.881901 
L 755.23583 182.93672 
L 742.242697 178.749705 
L 728.167133 175.277217 
L 712.980545 172.480918 
L 696.657638 170.326884 
L 679.180659 168.783489 
L 660.541981 167.819102 
L 640.745695 167.4 
L 619.808695 167.48861 
L 597.76152 168.042053 
L 574.649141 169.010928 
L 550.531769 170.338269 
L 525.48575 171.958622 
L 499.663521 173.79294 
L 499.663521 173.79294 
" clip-path="url(#paeee3149df)" style="fill: none; stroke: #1f77b4; stroke-width: 1.5"/>
    <path d="M 940.600627 916.939122 
L 946.890836 899.274807 
L 951.560508 882.917407 
L 954.738108 867.772776 
L 956.544632 853.751954 
L 957.094093 840.770857 
L 956.493973 828.749975 
L 954.84565 817.614101 
L 952.244805 807.292058 
L 948.781799 797.71646 
L 944.542025 788.823472 
L 939.606242 780.552594 
L 934.050882 772.846457 
L 927.948335 765.650632 
L 921.367216 758.913451 
L 914.372609 752.585843 
L 907.02629 746.621183 
L 899.386933 740.975149 
L 891.510298 735.605596 
L 883.4494 730.472435 
L 875.254658 725.53753 
L 866.974035 720.764594 
L 858.653154 716.119112 
L 850.335405 711.568254 
L 842.062037 707.080809 
L 833.872232 702.627128 
L 825.80317 698.179066 
L 817.890083 693.709941 
L 810.166296 689.194496 
L 802.663252 684.608866 
L 795.410536 679.930556 
L 788.435886 675.13842 
L 781.765192 670.21265 
L 775.422492 665.134765 
L 769.429954 659.88761 
L 763.807864 654.455356 
L 758.574593 648.823501 
L 753.746569 642.978882 
L 749.33824 636.909682 
L 745.362036 630.605443 
L 741.828327 624.057085 
L 738.745377 617.256913 
L 736.119298 610.198643 
L 733.954003 602.877416 
L 732.251157 595.289817 
L 731.010133 587.433891 
L 730.227963 579.309163 
L 729.899294 570.916653 
L 730.01635 562.258891 
L 730.568889 553.339927 
L 731.544171 544.165348 
L 732.926927 534.742278 
L 734.699337 525.079387 
L 736.841009 515.18689 
L 739.328969 505.076543 
L 742.137656 494.761638 
L 745.238927 484.256985 
L 748.602068 473.578898 
L 752.19382 462.745169 
L 755.978408 451.775037 
L 759.917585 440.689151 
L 763.970689 429.509527 
L 768.094712 418.259493 
L 772.244376 406.963633 
L 776.372232 395.647713 
L 780.428766 384.33861 
L 784.362526 373.064221 
L 788.120258 361.853366 
L 791.647066 350.735685 
L 794.886586 339.741518 
L 797.781175 328.901777 
L 800.272122 318.247809 
L 802.29988 307.811237 
L 803.804316 297.623805 
L 804.724976 287.717195 
L 805.001387 278.122837 
L 804.573361 268.871711 
L 803.381339 259.99412 
L 801.36675 251.519465 
L 798.472394 243.475995 
L 794.642855 235.890544 
L 789.824935 228.788251 
L 783.968117 222.192268 
L 777.025052 216.123446 
L 768.95208 210.600009 
L 759.70977 205.637203 
L 749.263499 201.246938 
L 737.584055 197.437398 
L 724.648271 194.212645 
L 710.439694 191.572196 
L 694.949279 189.510583 
L 678.176125 188.01689 
L 660.128236 187.074273 
L 640.823321 186.65946 
L 620.289624 186.74222 
L 598.5668 187.284827 
L 575.706812 188.241481 
L 551.774876 189.557725 
L 526.850444 191.169828 
L 501.028215 193.004145 
" clip-path="url(#paeee3149df)" style="fill: none; stroke: #8c564b; stroke-width: 1.5"/>
    <path d="M 922.457037 910.478244 
L 928.540378 893.39486 
L 932.852304 878.290611 
L 935.733264 864.55978 
L 937.337224 852.111102 
L 937.814139 840.843921 
L 937.304958 830.644621 
L 935.934566 821.386415 
L 933.804837 812.934104 
L 930.99097 805.153448 
L 927.543436 797.922194 
L 923.495223 791.138615 
L 918.871448 784.724729 
L 913.697783 778.624196 
L 908.005575 772.797005 
L 901.833484 767.213479 
L 895.226709 761.849274 
L 888.235083 756.68196 
L 880.910966 751.689061 
L 873.307441 746.847155 
L 865.47696 742.131608 
L 857.470424 737.516657 
L 841.12195 728.481157 
L 816.331941 714.948938 
L 808.169821 710.336706 
L 800.122674 705.627951 
L 792.223453 700.793532 
L 784.503946 695.804406 
L 776.995267 690.631807 
L 769.728424 685.247576 
L 762.734901 679.624687 
L 756.047194 673.738044 
L 749.699155 667.565548 
L 743.725992 661.089383 
L 738.163744 654.297378 
L 733.048128 647.184167 
L 728.412794 639.751809 
L 724.287217 632.009584 
L 720.694632 623.97282 
L 717.650498 615.660898 
L 715.161822 607.094848 
L 713.227451 598.295048 
L 711.83915 589.279487 
L 710.983099 580.062832 
L 710.641439 570.65628 
L 710.793587 561.068021 
L 711.417179 551.304051 
L 712.488625 541.369108 
L 713.983348 531.267564 
L 715.875798 521.004193 
L 718.139317 510.584767 
L 720.745946 500.016497 
L 723.666208 489.308343 
L 726.868906 478.471212 
L 730.32095 467.518081 
L 733.987212 456.464068 
L 741.81118 434.124784 
L 754.158492 400.342902 
L 762.27184 377.914759 
L 766.139032 366.831156 
L 769.809477 355.880714 
L 773.228927 345.101465 
L 776.342591 334.534423 
L 779.09588 324.223826 
L 781.435442 314.217339 
L 783.31062 304.566079 
L 784.675419 295.324205 
L 785.491065 286.547589 
L 785.72894 278.290827 
L 785.373179 270.601594 
L 784.421176 263.511543 
L 782.879047 257.024361 
L 780.74897 251.104836 
L 778.008626 245.676835 
L 774.590584 240.638159 
L 770.375598 235.891216 
L 765.208585 231.374812 
L 758.929955 227.079044 
L 751.404405 223.038081 
L 742.534853 219.310464 
L 732.261867 215.959675 
L 720.555767 213.04147 
L 707.407833 210.598126 
L 692.823669 208.657125 
L 676.819224 207.231887 
L 659.41893 206.323094 
L 640.655233 205.919909 
L 620.568932 206.000867 
L 599.20995 206.534385 
L 576.638327 207.478971 
L 552.925292 208.783176 
L 528.154358 210.385351 
L 502.39291 212.215351 
L 502.39291 212.215351 
" clip-path="url(#paeee3149df)" style="fill: none; stroke: #17becf; stroke-width: 1.5"/>
   </g>
   <g id="patch_3">
    <path d="M 475.829873 961.2 
L 475.829873 129.6 
" style="fill: none; stroke: #000000; stroke-width: 0.8; stroke-linejoin: miter; stroke-linecap: square"/>
   </g>
   <g id="patch_4">
    <path d="M 1000.170127 961.2 
L 1000.170127 129.6 
" style="fill: none; stroke: #000000; stroke-width: 0.8; stroke-linejoin: miter; stroke-linecap: square"/>
   </g>
   <g id="patch_5">
    <path d="M 475.829873 961.2 
L 1000.170127 961.2 
" style="fill: none; stroke: #000000; stroke-width: 0.8; stroke-linejoin: miter; stroke-linecap: square"/>
   </g>
   <g id="patch_6">
    <path d="M 475.829873 129.6 
L 1000.170127 129.6 
" style="fill: none; stroke: #000000; stroke-width: 0.8; stroke-linejoin: miter; stroke-linecap: square"/>
   </g>
  </g>
 </g>
 <defs>
  <clipPath id="paeee3149df">
   <rect x="475.829873" y="129.6" width="524.340254" height="831.6"/>
  </clipPath>
 </defs>
</svg>
