<?xml version="1.0" encoding="utf-8" standalone="no"?>
<!DOCTYPE svg PUBLIC "-//W3C//DTD SVG 1.1//EN"
  "http://www.w3.org/Graphics/SVG/1.1/DTD/svg11.dtd">
<svg xmlns:xlink="http://www.w3.org/1999/xlink" width="1440pt" height="1080pt" viewBox="0 0 1440 1080" xmlns="http://www.w3.org/2000/svg" version="1.1">
 <metadata>
  <rdf:RDF xmlns:dc="http://purl.org/dc/elements/1.1/" xmlns:cc="http://creativecommons.org/ns#" xmlns:rdf="http://www.w3.org/1999/02/22-rdf-syntax-ns#">
   <cc:Work>
    <dc:type rdf:resource="http://purl.org/dc/dcmitype/StillImage"/>
    <dc:date>2023-12-11T12:07:04.076717</dc:date>
    <dc:format>image/svg+xml</dc:format>
    <dc:creator>
     <cc:Agent>
      <dc:title>Matplotlib v3.7.1, https://matplotlib.org/</dc:title>
     </cc:Agent>
    </dc:creator>
   </cc:Work>
  </rdf:RDF>
 </metadata>
 <defs>
  <style type="text/css">*{stroke-linejoin: round; stroke-linecap: butt}</style>
 </defs>
 <g id="figure_1">
  <g id="patch_1">
   <path d="M 0 1080 
L 1440 1080 
L 1440 0 
L 0 0 
z
" style="fill: #ffffff"/>
  </g>
  <g id="axes_1">
   <g id="patch_2">
    <path d="M 557.256865 961.2 
L 918.743135 961.2 
L 918.743135 129.6 
L 557.256865 129.6 
z
" style="fill: #ffffff"/>
   </g>
   <g id="matplotlib.axis_1">
    <g id="xtick_1">
     <g id="line2d_1">
      <defs>
       <path id="m1df2c1cfb2" d="M 0 0 
L 0 3.5 
" style="stroke: #000000; stroke-width: 0.8"/>
      </defs>
      <g>
       <use xlink:href="#m1df2c1cfb2" x="557.495366" y="961.2" style="stroke: #000000; stroke-width: 0.8"/>
      </g>
     </g>
     <g id="text_1">
      <!-- 400 -->
      <g transform="translate(547.951616 975.798437) scale(0.1 -0.1)">
       <defs>
        <path id="DejaVuSans-34" d="M 2419 4116 
L 825 1625 
L 2419 1625 
L 2419 4116 
z
M 2253 4666 
L 3047 4666 
L 3047 1625 
L 3713 1625 
L 3713 1100 
L 3047 1100 
L 3047 0 
L 2419 0 
L 2419 1100 
L 313 1100 
L 313 1709 
L 2253 4666 
z
" transform="scale(0.015625)"/>
        <path id="DejaVuSans-30" d="M 2034 4250 
Q 1547 4250 1301 3770 
Q 1056 3291 1056 2328 
Q 1056 1369 1301 889 
Q 1547 409 2034 409 
Q 2525 409 2770 889 
Q 3016 1369 3016 2328 
Q 3016 3291 2770 3770 
Q 2525 4250 2034 4250 
z
M 2034 4750 
Q 2819 4750 3233 4129 
Q 3647 3509 3647 2328 
Q 3647 1150 3233 529 
Q 2819 -91 2034 -91 
Q 1250 -91 836 529 
Q 422 1150 422 2328 
Q 422 3509 836 4129 
Q 1250 4750 2034 4750 
z
" transform="scale(0.015625)"/>
       </defs>
       <use xlink:href="#DejaVuSans-34"/>
       <use xlink:href="#DejaVuSans-30" x="63.623047"/>
       <use xlink:href="#DejaVuSans-30" x="127.246094"/>
      </g>
     </g>
    </g>
    <g id="xtick_2">
     <g id="line2d_2">
      <g>
       <use xlink:href="#m1df2c1cfb2" x="598.057889" y="961.2" style="stroke: #000000; stroke-width: 0.8"/>
      </g>
     </g>
     <g id="text_2">
      <!-- 450 -->
      <g transform="translate(588.514139 975.798437) scale(0.1 -0.1)">
       <defs>
        <path id="DejaVuSans-35" d="M 691 4666 
L 3169 4666 
L 3169 4134 
L 1269 4134 
L 1269 2991 
Q 1406 3038 1543 3061 
Q 1681 3084 1819 3084 
Q 2600 3084 3056 2656 
Q 3513 2228 3513 1497 
Q 3513 744 3044 326 
Q 2575 -91 1722 -91 
Q 1428 -91 1123 -41 
Q 819 9 494 109 
L 494 744 
Q 775 591 1075 516 
Q 1375 441 1709 441 
Q 2250 441 2565 725 
Q 2881 1009 2881 1497 
Q 2881 1984 2565 2268 
Q 2250 2553 1709 2553 
Q 1456 2553 1204 2497 
Q 953 2441 691 2322 
L 691 4666 
z
" transform="scale(0.015625)"/>
       </defs>
       <use xlink:href="#DejaVuSans-34"/>
       <use xlink:href="#DejaVuSans-35" x="63.623047"/>
       <use xlink:href="#DejaVuSans-30" x="127.246094"/>
      </g>
     </g>
    </g>
    <g id="xtick_3">
     <g id="line2d_3">
      <g>
       <use xlink:href="#m1df2c1cfb2" x="638.620411" y="961.2" style="stroke: #000000; stroke-width: 0.8"/>
      </g>
     </g>
     <g id="text_3">
      <!-- 500 -->
      <g transform="translate(629.076661 975.798437) scale(0.1 -0.1)">
       <use xlink:href="#DejaVuSans-35"/>
       <use xlink:href="#DejaVuSans-30" x="63.623047"/>
       <use xlink:href="#DejaVuSans-30" x="127.246094"/>
      </g>
     </g>
    </g>
    <g id="xtick_4">
     <g id="line2d_4">
      <g>
       <use xlink:href="#m1df2c1cfb2" x="679.182934" y="961.2" style="stroke: #000000; stroke-width: 0.8"/>
      </g>
     </g>
     <g id="text_4">
      <!-- 550 -->
      <g transform="translate(669.639184 975.798437) scale(0.1 -0.1)">
       <use xlink:href="#DejaVuSans-35"/>
       <use xlink:href="#DejaVuSans-35" x="63.623047"/>
       <use xlink:href="#DejaVuSans-30" x="127.246094"/>
      </g>
     </g>
    </g>
    <g id="xtick_5">
     <g id="line2d_5">
      <g>
       <use xlink:href="#m1df2c1cfb2" x="719.745456" y="961.2" style="stroke: #000000; stroke-width: 0.8"/>
      </g>
     </g>
     <g id="text_5">
      <!-- 600 -->
      <g transform="translate(710.201706 975.798437) scale(0.1 -0.1)">
       <defs>
        <path id="DejaVuSans-36" d="M 2113 2584 
Q 1688 2584 1439 2293 
Q 1191 2003 1191 1497 
Q 1191 994 1439 701 
Q 1688 409 2113 409 
Q 2538 409 2786 701 
Q 3034 994 3034 1497 
Q 3034 2003 2786 2293 
Q 2538 2584 2113 2584 
z
M 3366 4563 
L 3366 3988 
Q 3128 4100 2886 4159 
Q 2644 4219 2406 4219 
Q 1781 4219 1451 3797 
Q 1122 3375 1075 2522 
Q 1259 2794 1537 2939 
Q 1816 3084 2150 3084 
Q 2853 3084 3261 2657 
Q 3669 2231 3669 1497 
Q 3669 778 3244 343 
Q 2819 -91 2113 -91 
Q 1303 -91 875 529 
Q 447 1150 447 2328 
Q 447 3434 972 4092 
Q 1497 4750 2381 4750 
Q 2619 4750 2861 4703 
Q 3103 4656 3366 4563 
z
" transform="scale(0.015625)"/>
       </defs>
       <use xlink:href="#DejaVuSans-36"/>
       <use xlink:href="#DejaVuSans-30" x="63.623047"/>
       <use xlink:href="#DejaVuSans-30" x="127.246094"/>
      </g>
     </g>
    </g>
    <g id="xtick_6">
     <g id="line2d_6">
      <g>
       <use xlink:href="#m1df2c1cfb2" x="760.307979" y="961.2" style="stroke: #000000; stroke-width: 0.8"/>
      </g>
     </g>
     <g id="text_6">
      <!-- 650 -->
      <g transform="translate(750.764229 975.798437) scale(0.1 -0.1)">
       <use xlink:href="#DejaVuSans-36"/>
       <use xlink:href="#DejaVuSans-35" x="63.623047"/>
       <use xlink:href="#DejaVuSans-30" x="127.246094"/>
      </g>
     </g>
    </g>
    <g id="xtick_7">
     <g id="line2d_7">
      <g>
       <use xlink:href="#m1df2c1cfb2" x="800.870501" y="961.2" style="stroke: #000000; stroke-width: 0.8"/>
      </g>
     </g>
     <g id="text_7">
      <!-- 700 -->
      <g transform="translate(791.326751 975.798437) scale(0.1 -0.1)">
       <defs>
        <path id="DejaVuSans-37" d="M 525 4666 
L 3525 4666 
L 3525 4397 
L 1831 0 
L 1172 0 
L 2766 4134 
L 525 4134 
L 525 4666 
z
" transform="scale(0.015625)"/>
       </defs>
       <use xlink:href="#DejaVuSans-37"/>
       <use xlink:href="#DejaVuSans-30" x="63.623047"/>
       <use xlink:href="#DejaVuSans-30" x="127.246094"/>
      </g>
     </g>
    </g>
    <g id="xtick_8">
     <g id="line2d_8">
      <g>
       <use xlink:href="#m1df2c1cfb2" x="841.433024" y="961.2" style="stroke: #000000; stroke-width: 0.8"/>
      </g>
     </g>
     <g id="text_8">
      <!-- 750 -->
      <g transform="translate(831.889274 975.798437) scale(0.1 -0.1)">
       <use xlink:href="#DejaVuSans-37"/>
       <use xlink:href="#DejaVuSans-35" x="63.623047"/>
       <use xlink:href="#DejaVuSans-30" x="127.246094"/>
      </g>
     </g>
    </g>
    <g id="xtick_9">
     <g id="line2d_9">
      <g>
       <use xlink:href="#m1df2c1cfb2" x="881.995546" y="961.2" style="stroke: #000000; stroke-width: 0.8"/>
      </g>
     </g>
     <g id="text_9">
      <!-- 800 -->
      <g transform="translate(872.451796 975.798437) scale(0.1 -0.1)">
       <defs>
        <path id="DejaVuSans-38" d="M 2034 2216 
Q 1584 2216 1326 1975 
Q 1069 1734 1069 1313 
Q 1069 891 1326 650 
Q 1584 409 2034 409 
Q 2484 409 2743 651 
Q 3003 894 3003 1313 
Q 3003 1734 2745 1975 
Q 2488 2216 2034 2216 
z
M 1403 2484 
Q 997 2584 770 2862 
Q 544 3141 544 3541 
Q 544 4100 942 4425 
Q 1341 4750 2034 4750 
Q 2731 4750 3128 4425 
Q 3525 4100 3525 3541 
Q 3525 3141 3298 2862 
Q 3072 2584 2669 2484 
Q 3125 2378 3379 2068 
Q 3634 1759 3634 1313 
Q 3634 634 3220 271 
Q 2806 -91 2034 -91 
Q 1263 -91 848 271 
Q 434 634 434 1313 
Q 434 1759 690 2068 
Q 947 2378 1403 2484 
z
M 1172 3481 
Q 1172 3119 1398 2916 
Q 1625 2713 2034 2713 
Q 2441 2713 2670 2916 
Q 2900 3119 2900 3481 
Q 2900 3844 2670 4047 
Q 2441 4250 2034 4250 
Q 1625 4250 1398 4047 
Q 1172 3844 1172 3481 
z
" transform="scale(0.015625)"/>
       </defs>
       <use xlink:href="#DejaVuSans-38"/>
       <use xlink:href="#DejaVuSans-30" x="63.623047"/>
       <use xlink:href="#DejaVuSans-30" x="127.246094"/>
      </g>
     </g>
    </g>
   </g>
   <g id="matplotlib.axis_2">
    <g id="ytick_1">
     <g id="line2d_10">
      <defs>
       <path id="m022dbd8852" d="M 0 0 
L -3.5 0 
" style="stroke: #000000; stroke-width: 0.8"/>
      </defs>
      <g>
       <use xlink:href="#m022dbd8852" x="557.256865" y="843.086255" style="stroke: #000000; stroke-width: 0.8"/>
      </g>
     </g>
     <g id="text_10">
      <!-- 400 -->
      <g transform="translate(531.169365 846.885474) scale(0.1 -0.1)">
       <use xlink:href="#DejaVuSans-34"/>
       <use xlink:href="#DejaVuSans-30" x="63.623047"/>
       <use xlink:href="#DejaVuSans-30" x="127.246094"/>
      </g>
     </g>
    </g>
    <g id="ytick_2">
     <g id="line2d_11">
      <g>
       <use xlink:href="#m022dbd8852" x="557.256865" y="680.836165" style="stroke: #000000; stroke-width: 0.8"/>
      </g>
     </g>
     <g id="text_11">
      <!-- 600 -->
      <g transform="translate(531.169365 684.635384) scale(0.1 -0.1)">
       <use xlink:href="#DejaVuSans-36"/>
       <use xlink:href="#DejaVuSans-30" x="63.623047"/>
       <use xlink:href="#DejaVuSans-30" x="127.246094"/>
      </g>
     </g>
    </g>
    <g id="ytick_3">
     <g id="line2d_12">
      <g>
       <use xlink:href="#m022dbd8852" x="557.256865" y="518.586075" style="stroke: #000000; stroke-width: 0.8"/>
      </g>
     </g>
     <g id="text_12">
      <!-- 800 -->
      <g transform="translate(531.169365 522.385293) scale(0.1 -0.1)">
       <use xlink:href="#DejaVuSans-38"/>
       <use xlink:href="#DejaVuSans-30" x="63.623047"/>
       <use xlink:href="#DejaVuSans-30" x="127.246094"/>
      </g>
     </g>
    </g>
    <g id="ytick_4">
     <g id="line2d_13">
      <g>
       <use xlink:href="#m022dbd8852" x="557.256865" y="356.335985" style="stroke: #000000; stroke-width: 0.8"/>
      </g>
     </g>
     <g id="text_13">
      <!-- 1000 -->
      <g transform="translate(524.806865 360.135203) scale(0.1 -0.1)">
       <defs>
        <path id="DejaVuSans-31" d="M 794 531 
L 1825 531 
L 1825 4091 
L 703 3866 
L 703 4441 
L 1819 4666 
L 2450 4666 
L 2450 531 
L 3481 531 
L 3481 0 
L 794 0 
L 794 531 
z
" transform="scale(0.015625)"/>
       </defs>
       <use xlink:href="#DejaVuSans-31"/>
       <use xlink:href="#DejaVuSans-30" x="63.623047"/>
       <use xlink:href="#DejaVuSans-30" x="127.246094"/>
       <use xlink:href="#DejaVuSans-30" x="190.869141"/>
      </g>
     </g>
    </g>
    <g id="ytick_5">
     <g id="line2d_14">
      <g>
       <use xlink:href="#m022dbd8852" x="557.256865" y="194.085894" style="stroke: #000000; stroke-width: 0.8"/>
      </g>
     </g>
     <g id="text_14">
      <!-- 1200 -->
      <g transform="translate(524.806865 197.885113) scale(0.1 -0.1)">
       <defs>
        <path id="DejaVuSans-32" d="M 1228 531 
L 3431 531 
L 3431 0 
L 469 0 
L 469 531 
Q 828 903 1448 1529 
Q 2069 2156 2228 2338 
Q 2531 2678 2651 2914 
Q 2772 3150 2772 3378 
Q 2772 3750 2511 3984 
Q 2250 4219 1831 4219 
Q 1534 4219 1204 4116 
Q 875 4013 500 3803 
L 500 4441 
Q 881 4594 1212 4672 
Q 1544 4750 1819 4750 
Q 2544 4750 2975 4387 
Q 3406 4025 3406 3419 
Q 3406 3131 3298 2873 
Q 3191 2616 2906 2266 
Q 2828 2175 2409 1742 
Q 1991 1309 1228 531 
z
" transform="scale(0.015625)"/>
       </defs>
       <use xlink:href="#DejaVuSans-31"/>
       <use xlink:href="#DejaVuSans-32" x="63.623047"/>
       <use xlink:href="#DejaVuSans-30" x="127.246094"/>
       <use xlink:href="#DejaVuSans-30" x="190.869141"/>
      </g>
     </g>
    </g>
   </g>
   <g id="LineCollection_1">
    <path d="M 573.752691 923.4 
L 602.754194 923.290896 
L 627.784838 921.629253 
L 649.228351 918.499813 
L 667.444773 913.950254 
L 682.019854 908.362513 
L 682.741231 907.987164 
L 694.546987 901.201296 
L 695.322297 900.602391 
L 704.53747 892.698177 
L 705.257735 891.858888 
L 712.013308 882.995452 
L 712.553914 881.993413 
L 717.018088 872.404394 
L 717.321084 871.388834 
L 719.746716 861.299114 
L 719.846876 860.398637 
L 720.503773 849.228059 
L 719.63947 837.956852 
L 717.539246 826.607787 
L 714.433677 815.191002 
L 710.515145 803.720787 
L 705.950187 792.218631 
L 700.886772 780.711704 
L 695.458288 769.230516 
L 689.7857 757.806927 
L 678.136848 735.258498 
L 666.678177 713.268708 
L 661.220579 702.559502 
L 656.031032 692.072882 
L 651.163041 681.828067 
L 646.661915 671.841841 
L 642.565037 662.128522 
L 638.902118 652.699888 
L 635.695451 643.565068 
L 632.960202 634.73035 
L 630.704757 626.198913 
L 628.93118 617.970482 
L 627.635841 610.040957 
L 626.810239 602.402092 
L 626.442035 595.041342 
L 626.516238 587.942017 
L 627.016397 581.083833 
L 627.925627 574.443883 
L 629.227282 567.997902 
L 630.905169 561.721631 
L 632.943323 555.592011 
L 635.32549 549.588008 
L 638.03452 543.690995 
L 641.051854 537.884719 
L 644.357236 532.154984 
L 647.92867 526.4892 
L 651.7426 520.875919 
L 655.774236 515.304445 
L 659.997973 509.764549 
L 664.38783 504.246294 
L 673.562657 493.236068 
L 687.945804 476.646887 
L 702.573697 459.749397 
L 712.213141 448.246421 
L 721.650198 436.514059 
L 730.831147 424.537125 
L 739.741832 412.315803 
L 748.40721 399.863008 
L 756.888744 387.200371 
L 769.477125 367.868467 
L 782.294581 348.170935 
L 791.188377 334.869623 
L 800.520829 321.42402 
L 810.410813 307.801791 
L 820.944224 293.942732 
L 832.15515 279.752244 
L 862.680141 241.712587 
L 868.991639 233.418618 
L 875.25468 224.797001 
L 881.394341 215.79097 
L 887.319482 206.336312 
L 892.920127 196.361953 
L 898.06477 185.791697 
L 902.311941 175.341764 
L 902.311941 175.341764 
" clip-path="url(#p890d0f39d3)" style="fill: none; stroke: #1f77b4; stroke-width: 1.5"/>
    <path d="M 573.720375 912.853794 
L 602.068927 912.766927 
L 626.286171 911.190024 
L 646.7168 908.256981 
L 663.689305 904.095308 
L 677.516232 898.826219 
L 688.494449 892.564729 
L 696.905423 885.419758 
L 703.015519 877.494242 
L 707.076302 868.885245 
L 709.324855 859.684082 
L 709.984104 849.976444 
L 709.263163 839.842525 
L 707.357672 829.357159 
L 704.45016 818.589961 
L 700.71041 807.605461 
L 696.295827 796.463258 
L 691.35182 785.218168 
L 686.01219 773.92037 
L 680.399516 762.61557 
L 674.625559 751.345151 
L 668.791659 740.146337 
L 662.989144 729.052354 
L 657.299733 718.092592 
L 651.795954 707.29277 
L 646.541557 696.675104 
L 641.591923 686.25847 
L 636.994489 676.058575 
L 632.789157 666.088122 
L 629.008716 656.356977 
L 625.67925 646.87234 
L 622.820558 637.638906 
L 620.446562 628.659038 
L 618.565713 619.932924 
L 617.181402 611.458748 
L 616.292353 603.232845 
L 615.893024 595.249866 
L 615.973996 587.502934 
L 616.522357 579.983797 
L 617.52208 572.682986 
L 618.954396 565.589959 
L 620.79815 558.693248 
L 623.030164 551.980606 
L 625.625577 545.43914 
L 628.558181 539.055451 
L 631.800746 532.815759 
L 635.325338 526.706034 
L 639.103615 520.712113 
L 643.107122 514.819815 
L 647.307568 509.015056 
L 651.677089 503.283946 
L 656.188499 497.612895 
L 660.815524 491.988696 
L 665.533024 486.39862 
L 670.317195 480.830487 
L 675.145756 475.272739 
L 679.998125 469.714506 
L 684.855562 464.145661 
L 689.701313 458.556869 
L 694.520717 452.939622 
L 699.301307 447.286279 
L 704.03288 441.590082 
L 708.707557 435.845171 
L 713.31981 430.046591 
L 717.866476 424.190282 
L 722.346744 418.273067 
L 726.762118 412.292629 
L 731.116358 406.247467 
L 735.415395 400.136857 
L 739.667224 393.960792 
L 743.881764 387.719912 
L 748.070699 381.415424 
L 752.247288 375.049013 
L 756.426147 368.622732 
L 760.623004 362.13889 
L 764.854428 355.599919 
L 769.137518 349.008237 
L 773.489575 342.366086 
L 777.927733 335.675369 
L 782.468565 328.937462 
L 787.127652 322.153024 
L 791.919123 315.321778 
L 796.855159 308.442292 
L 801.945464 301.511736 
L 807.196704 294.525627 
L 812.611906 287.477556 
L 818.189822 280.358905 
L 823.924261 273.158543 
L 829.803381 265.862506 
L 835.80894 258.453663 
L 841.915514 250.911365 
L 848.089675 243.211074 
L 854.289124 235.323978 
L 860.461792 227.216584 
L 866.544898 218.850304 
L 872.463955 210.181004 
L 878.131754 201.158555 
L 883.447286 191.726351 
L 888.294631 181.820815 
L 892.541802 171.370882 
" clip-path="url(#p890d0f39d3)" style="fill: none; stroke: #8c564b; stroke-width: 1.5"/>
    <path d="M 573.688059 902.307587 
L 601.70979 902.221722 
L 625.19256 900.692644 
L 644.706881 897.891147 
L 660.543791 894.007923 
L 672.999183 889.261492 
L 682.415683 883.890736 
L 689.231177 878.101097 
L 693.964987 871.960786 
L 697.084064 865.348237 
L 698.864392 858.063069 
L 699.412404 849.99344 
L 698.784226 841.163454 
L 697.060587 831.678772 
L 694.357152 821.667316 
L 690.810324 811.249471 
L 686.562951 800.5293 
L 681.755379 789.594528 
L 676.520779 778.518959 
L 670.983 767.365008 
L 659.44245 745.026488 
L 647.9033 722.881178 
L 642.343792 711.970391 
L 637.015975 701.201339 
L 631.977206 690.592145 
L 627.277214 680.157121 
L 622.95867 669.907157 
L 619.057768 659.850135 
L 615.604784 649.991417 
L 612.624588 640.334402 
L 610.137069 630.881172 
L 608.157418 621.633187 
L 606.696208 612.591979 
L 605.759267 603.759736 
L 605.347344 595.139641 
L 605.455674 586.735846 
L 606.073607 578.553016 
L 607.184486 570.595487 
L 608.76594 562.866195 
L 610.790621 555.365654 
L 613.227308 548.091193 
L 616.042186 541.036625 
L 619.200093 534.192355 
L 622.66557 527.545838 
L 626.403655 521.082239 
L 630.380396 514.785143 
L 634.563168 508.63723 
L 638.920831 502.620827 
L 643.423824 496.718345 
L 648.04421 490.912592 
L 657.533868 479.525702 
L 672.051928 462.780425 
L 686.492095 446.101044 
L 695.886274 434.892384 
L 705.027485 423.530095 
L 713.90022 411.957704 
L 722.524609 400.131193 
L 730.953677 388.019424 
L 739.269579 375.604679 
L 751.769229 356.408779 
L 764.701052 336.536389 
L 773.77489 322.967243 
L 783.35033 309.173664 
L 793.515217 295.174983 
L 804.310526 280.972896 
L 815.712289 266.541366 
L 845.947386 228.870642 
L 852.000331 220.920497 
L 857.923192 212.774605 
L 863.640657 204.400566 
L 869.067542 195.761624 
L 874.109126 186.815529 
L 878.661661 177.512438 
L 882.771664 167.4 
L 882.771664 167.4 
" clip-path="url(#p890d0f39d3)" style="fill: none; stroke: #17becf; stroke-width: 1.5"/>
   </g>
   <g id="patch_3">
    <path d="M 557.256865 961.2 
L 557.256865 129.6 
" style="fill: none; stroke: #000000; stroke-width: 0.8; stroke-linejoin: miter; stroke-linecap: square"/>
   </g>
   <g id="patch_4">
    <path d="M 918.743135 961.2 
L 918.743135 129.6 
" style="fill: none; stroke: #000000; stroke-width: 0.8; stroke-linejoin: miter; stroke-linecap: square"/>
   </g>
   <g id="patch_5">
    <path d="M 557.256865 961.2 
L 918.743135 961.2 
" style="fill: none; stroke: #000000; stroke-width: 0.8; stroke-linejoin: miter; stroke-linecap: square"/>
   </g>
   <g id="patch_6">
    <path d="M 557.256865 129.6 
L 918.743135 129.6 
" style="fill: none; stroke: #000000; stroke-width: 0.8; stroke-linejoin: miter; stroke-linecap: square"/>
   </g>
  </g>
 </g>
 <defs>
  <clipPath id="p890d0f39d3">
   <rect x="557.256865" y="129.6" width="361.48627" height="831.6"/>
  </clipPath>
 </defs>
</svg>
