<?xml version="1.0" encoding="utf-8" standalone="no"?>
<!DOCTYPE svg PUBLIC "-//W3C//DTD SVG 1.1//EN"
  "http://www.w3.org/Graphics/SVG/1.1/DTD/svg11.dtd">
<svg xmlns:xlink="http://www.w3.org/1999/xlink" width="1440pt" height="1080pt" viewBox="0 0 1440 1080" xmlns="http://www.w3.org/2000/svg" version="1.1">
 <metadata>
  <rdf:RDF xmlns:dc="http://purl.org/dc/elements/1.1/" xmlns:cc="http://creativecommons.org/ns#" xmlns:rdf="http://www.w3.org/1999/02/22-rdf-syntax-ns#">
   <cc:Work>
    <dc:type rdf:resource="http://purl.org/dc/dcmitype/StillImage"/>
    <dc:date>2023-12-11T12:06:50.806096</dc:date>
    <dc:format>image/svg+xml</dc:format>
    <dc:creator>
     <cc:Agent>
      <dc:title>Matplotlib v3.7.1, https://matplotlib.org/</dc:title>
     </cc:Agent>
    </dc:creator>
   </cc:Work>
  </rdf:RDF>
 </metadata>
 <defs>
  <style type="text/css">*{stroke-linejoin: round; stroke-linecap: butt}</style>
 </defs>
 <g id="figure_1">
  <g id="patch_1">
   <path d="M 0 1080 
L 1440 1080 
L 1440 0 
L 0 0 
z
" style="fill: #ffffff"/>
  </g>
  <g id="axes_1">
   <g id="patch_2">
    <path d="M 599.866321 961.2 
L 876.133679 961.2 
L 876.133679 129.6 
L 599.866321 129.6 
z
" style="fill: #ffffff"/>
   </g>
   <g id="matplotlib.axis_1">
    <g id="xtick_1">
     <g id="line2d_1">
      <defs>
       <path id="m9c1a349059" d="M 0 0 
L 0 3.5 
" style="stroke: #000000; stroke-width: 0.8"/>
      </defs>
      <g>
       <use xlink:href="#m9c1a349059" x="616.905948" y="961.2" style="stroke: #000000; stroke-width: 0.8"/>
      </g>
     </g>
     <g id="text_1">
      <!-- 600 -->
      <g transform="translate(607.362198 975.798437) scale(0.1 -0.1)">
       <defs>
        <path id="DejaVuSans-36" d="M 2113 2584 
Q 1688 2584 1439 2293 
Q 1191 2003 1191 1497 
Q 1191 994 1439 701 
Q 1688 409 2113 409 
Q 2538 409 2786 701 
Q 3034 994 3034 1497 
Q 3034 2003 2786 2293 
Q 2538 2584 2113 2584 
z
M 3366 4563 
L 3366 3988 
Q 3128 4100 2886 4159 
Q 2644 4219 2406 4219 
Q 1781 4219 1451 3797 
Q 1122 3375 1075 2522 
Q 1259 2794 1537 2939 
Q 1816 3084 2150 3084 
Q 2853 3084 3261 2657 
Q 3669 2231 3669 1497 
Q 3669 778 3244 343 
Q 2819 -91 2113 -91 
Q 1303 -91 875 529 
Q 447 1150 447 2328 
Q 447 3434 972 4092 
Q 1497 4750 2381 4750 
Q 2619 4750 2861 4703 
Q 3103 4656 3366 4563 
z
" transform="scale(0.015625)"/>
        <path id="DejaVuSans-30" d="M 2034 4250 
Q 1547 4250 1301 3770 
Q 1056 3291 1056 2328 
Q 1056 1369 1301 889 
Q 1547 409 2034 409 
Q 2525 409 2770 889 
Q 3016 1369 3016 2328 
Q 3016 3291 2770 3770 
Q 2525 4250 2034 4250 
z
M 2034 4750 
Q 2819 4750 3233 4129 
Q 3647 3509 3647 2328 
Q 3647 1150 3233 529 
Q 2819 -91 2034 -91 
Q 1250 -91 836 529 
Q 422 1150 422 2328 
Q 422 3509 836 4129 
Q 1250 4750 2034 4750 
z
" transform="scale(0.015625)"/>
       </defs>
       <use xlink:href="#DejaVuSans-36"/>
       <use xlink:href="#DejaVuSans-30" x="63.623047"/>
       <use xlink:href="#DejaVuSans-30" x="127.246094"/>
      </g>
     </g>
    </g>
    <g id="xtick_2">
     <g id="line2d_2">
      <g>
       <use xlink:href="#m9c1a349059" x="659.188703" y="961.2" style="stroke: #000000; stroke-width: 0.8"/>
      </g>
     </g>
     <g id="text_2">
      <!-- 650 -->
      <g transform="translate(649.644953 975.798437) scale(0.1 -0.1)">
       <defs>
        <path id="DejaVuSans-35" d="M 691 4666 
L 3169 4666 
L 3169 4134 
L 1269 4134 
L 1269 2991 
Q 1406 3038 1543 3061 
Q 1681 3084 1819 3084 
Q 2600 3084 3056 2656 
Q 3513 2228 3513 1497 
Q 3513 744 3044 326 
Q 2575 -91 1722 -91 
Q 1428 -91 1123 -41 
Q 819 9 494 109 
L 494 744 
Q 775 591 1075 516 
Q 1375 441 1709 441 
Q 2250 441 2565 725 
Q 2881 1009 2881 1497 
Q 2881 1984 2565 2268 
Q 2250 2553 1709 2553 
Q 1456 2553 1204 2497 
Q 953 2441 691 2322 
L 691 4666 
z
" transform="scale(0.015625)"/>
       </defs>
       <use xlink:href="#DejaVuSans-36"/>
       <use xlink:href="#DejaVuSans-35" x="63.623047"/>
       <use xlink:href="#DejaVuSans-30" x="127.246094"/>
      </g>
     </g>
    </g>
    <g id="xtick_3">
     <g id="line2d_3">
      <g>
       <use xlink:href="#m9c1a349059" x="701.471457" y="961.2" style="stroke: #000000; stroke-width: 0.8"/>
      </g>
     </g>
     <g id="text_3">
      <!-- 700 -->
      <g transform="translate(691.927707 975.798437) scale(0.1 -0.1)">
       <defs>
        <path id="DejaVuSans-37" d="M 525 4666 
L 3525 4666 
L 3525 4397 
L 1831 0 
L 1172 0 
L 2766 4134 
L 525 4134 
L 525 4666 
z
" transform="scale(0.015625)"/>
       </defs>
       <use xlink:href="#DejaVuSans-37"/>
       <use xlink:href="#DejaVuSans-30" x="63.623047"/>
       <use xlink:href="#DejaVuSans-30" x="127.246094"/>
      </g>
     </g>
    </g>
    <g id="xtick_4">
     <g id="line2d_4">
      <g>
       <use xlink:href="#m9c1a349059" x="743.754212" y="961.2" style="stroke: #000000; stroke-width: 0.8"/>
      </g>
     </g>
     <g id="text_4">
      <!-- 750 -->
      <g transform="translate(734.210462 975.798437) scale(0.1 -0.1)">
       <use xlink:href="#DejaVuSans-37"/>
       <use xlink:href="#DejaVuSans-35" x="63.623047"/>
       <use xlink:href="#DejaVuSans-30" x="127.246094"/>
      </g>
     </g>
    </g>
    <g id="xtick_5">
     <g id="line2d_5">
      <g>
       <use xlink:href="#m9c1a349059" x="786.036966" y="961.2" style="stroke: #000000; stroke-width: 0.8"/>
      </g>
     </g>
     <g id="text_5">
      <!-- 800 -->
      <g transform="translate(776.493216 975.798437) scale(0.1 -0.1)">
       <defs>
        <path id="DejaVuSans-38" d="M 2034 2216 
Q 1584 2216 1326 1975 
Q 1069 1734 1069 1313 
Q 1069 891 1326 650 
Q 1584 409 2034 409 
Q 2484 409 2743 651 
Q 3003 894 3003 1313 
Q 3003 1734 2745 1975 
Q 2488 2216 2034 2216 
z
M 1403 2484 
Q 997 2584 770 2862 
Q 544 3141 544 3541 
Q 544 4100 942 4425 
Q 1341 4750 2034 4750 
Q 2731 4750 3128 4425 
Q 3525 4100 3525 3541 
Q 3525 3141 3298 2862 
Q 3072 2584 2669 2484 
Q 3125 2378 3379 2068 
Q 3634 1759 3634 1313 
Q 3634 634 3220 271 
Q 2806 -91 2034 -91 
Q 1263 -91 848 271 
Q 434 634 434 1313 
Q 434 1759 690 2068 
Q 947 2378 1403 2484 
z
M 1172 3481 
Q 1172 3119 1398 2916 
Q 1625 2713 2034 2713 
Q 2441 2713 2670 2916 
Q 2900 3119 2900 3481 
Q 2900 3844 2670 4047 
Q 2441 4250 2034 4250 
Q 1625 4250 1398 4047 
Q 1172 3844 1172 3481 
z
" transform="scale(0.015625)"/>
       </defs>
       <use xlink:href="#DejaVuSans-38"/>
       <use xlink:href="#DejaVuSans-30" x="63.623047"/>
       <use xlink:href="#DejaVuSans-30" x="127.246094"/>
      </g>
     </g>
    </g>
    <g id="xtick_6">
     <g id="line2d_6">
      <g>
       <use xlink:href="#m9c1a349059" x="828.319721" y="961.2" style="stroke: #000000; stroke-width: 0.8"/>
      </g>
     </g>
     <g id="text_6">
      <!-- 850 -->
      <g transform="translate(818.775971 975.798437) scale(0.1 -0.1)">
       <use xlink:href="#DejaVuSans-38"/>
       <use xlink:href="#DejaVuSans-35" x="63.623047"/>
       <use xlink:href="#DejaVuSans-30" x="127.246094"/>
      </g>
     </g>
    </g>
    <g id="xtick_7">
     <g id="line2d_7">
      <g>
       <use xlink:href="#m9c1a349059" x="870.602475" y="961.2" style="stroke: #000000; stroke-width: 0.8"/>
      </g>
     </g>
     <g id="text_7">
      <!-- 900 -->
      <g transform="translate(861.058725 975.798437) scale(0.1 -0.1)">
       <defs>
        <path id="DejaVuSans-39" d="M 703 97 
L 703 672 
Q 941 559 1184 500 
Q 1428 441 1663 441 
Q 2288 441 2617 861 
Q 2947 1281 2994 2138 
Q 2813 1869 2534 1725 
Q 2256 1581 1919 1581 
Q 1219 1581 811 2004 
Q 403 2428 403 3163 
Q 403 3881 828 4315 
Q 1253 4750 1959 4750 
Q 2769 4750 3195 4129 
Q 3622 3509 3622 2328 
Q 3622 1225 3098 567 
Q 2575 -91 1691 -91 
Q 1453 -91 1209 -44 
Q 966 3 703 97 
z
M 1959 2075 
Q 2384 2075 2632 2365 
Q 2881 2656 2881 3163 
Q 2881 3666 2632 3958 
Q 2384 4250 1959 4250 
Q 1534 4250 1286 3958 
Q 1038 3666 1038 3163 
Q 1038 2656 1286 2365 
Q 1534 2075 1959 2075 
z
" transform="scale(0.015625)"/>
       </defs>
       <use xlink:href="#DejaVuSans-39"/>
       <use xlink:href="#DejaVuSans-30" x="63.623047"/>
       <use xlink:href="#DejaVuSans-30" x="127.246094"/>
      </g>
     </g>
    </g>
   </g>
   <g id="matplotlib.axis_2">
    <g id="ytick_1">
     <g id="line2d_8">
      <defs>
       <path id="m4b234d2ab4" d="M 0 0 
L -3.5 0 
" style="stroke: #000000; stroke-width: 0.8"/>
      </defs>
      <g>
       <use xlink:href="#m4b234d2ab4" x="599.866321" y="907.066709" style="stroke: #000000; stroke-width: 0.8"/>
      </g>
     </g>
     <g id="text_8">
      <!-- 600 -->
      <g transform="translate(573.778821 910.865928) scale(0.1 -0.1)">
       <use xlink:href="#DejaVuSans-36"/>
       <use xlink:href="#DejaVuSans-30" x="63.623047"/>
       <use xlink:href="#DejaVuSans-30" x="127.246094"/>
      </g>
     </g>
    </g>
    <g id="ytick_2">
     <g id="line2d_9">
      <g>
       <use xlink:href="#m4b234d2ab4" x="599.866321" y="737.935691" style="stroke: #000000; stroke-width: 0.8"/>
      </g>
     </g>
     <g id="text_9">
      <!-- 800 -->
      <g transform="translate(573.778821 741.73491) scale(0.1 -0.1)">
       <use xlink:href="#DejaVuSans-38"/>
       <use xlink:href="#DejaVuSans-30" x="63.623047"/>
       <use xlink:href="#DejaVuSans-30" x="127.246094"/>
      </g>
     </g>
    </g>
    <g id="ytick_3">
     <g id="line2d_10">
      <g>
       <use xlink:href="#m4b234d2ab4" x="599.866321" y="568.804674" style="stroke: #000000; stroke-width: 0.8"/>
      </g>
     </g>
     <g id="text_10">
      <!-- 1000 -->
      <g transform="translate(567.416321 572.603892) scale(0.1 -0.1)">
       <defs>
        <path id="DejaVuSans-31" d="M 794 531 
L 1825 531 
L 1825 4091 
L 703 3866 
L 703 4441 
L 1819 4666 
L 2450 4666 
L 2450 531 
L 3481 531 
L 3481 0 
L 794 0 
L 794 531 
z
" transform="scale(0.015625)"/>
       </defs>
       <use xlink:href="#DejaVuSans-31"/>
       <use xlink:href="#DejaVuSans-30" x="63.623047"/>
       <use xlink:href="#DejaVuSans-30" x="127.246094"/>
       <use xlink:href="#DejaVuSans-30" x="190.869141"/>
      </g>
     </g>
    </g>
    <g id="ytick_4">
     <g id="line2d_11">
      <g>
       <use xlink:href="#m4b234d2ab4" x="599.866321" y="399.673656" style="stroke: #000000; stroke-width: 0.8"/>
      </g>
     </g>
     <g id="text_11">
      <!-- 1200 -->
      <g transform="translate(567.416321 403.472874) scale(0.1 -0.1)">
       <defs>
        <path id="DejaVuSans-32" d="M 1228 531 
L 3431 531 
L 3431 0 
L 469 0 
L 469 531 
Q 828 903 1448 1529 
Q 2069 2156 2228 2338 
Q 2531 2678 2651 2914 
Q 2772 3150 2772 3378 
Q 2772 3750 2511 3984 
Q 2250 4219 1831 4219 
Q 1534 4219 1204 4116 
Q 875 4013 500 3803 
L 500 4441 
Q 881 4594 1212 4672 
Q 1544 4750 1819 4750 
Q 2544 4750 2975 4387 
Q 3406 4025 3406 3419 
Q 3406 3131 3298 2873 
Q 3191 2616 2906 2266 
Q 2828 2175 2409 1742 
Q 1991 1309 1228 531 
z
" transform="scale(0.015625)"/>
       </defs>
       <use xlink:href="#DejaVuSans-31"/>
       <use xlink:href="#DejaVuSans-32" x="63.623047"/>
       <use xlink:href="#DejaVuSans-30" x="127.246094"/>
       <use xlink:href="#DejaVuSans-30" x="190.869141"/>
      </g>
     </g>
    </g>
    <g id="ytick_5">
     <g id="line2d_12">
      <g>
       <use xlink:href="#m4b234d2ab4" x="599.866321" y="230.542638" style="stroke: #000000; stroke-width: 0.8"/>
      </g>
     </g>
     <g id="text_12">
      <!-- 1400 -->
      <g transform="translate(567.416321 234.341857) scale(0.1 -0.1)">
       <defs>
        <path id="DejaVuSans-34" d="M 2419 4116 
L 825 1625 
L 2419 1625 
L 2419 4116 
z
M 2253 4666 
L 3047 4666 
L 3047 1625 
L 3713 1625 
L 3713 1100 
L 3047 1100 
L 3047 0 
L 2419 0 
L 2419 1100 
L 313 1100 
L 313 1709 
L 2253 4666 
z
" transform="scale(0.015625)"/>
       </defs>
       <use xlink:href="#DejaVuSans-31"/>
       <use xlink:href="#DejaVuSans-34" x="63.623047"/>
       <use xlink:href="#DejaVuSans-30" x="127.246094"/>
       <use xlink:href="#DejaVuSans-30" x="190.869141"/>
      </g>
     </g>
    </g>
   </g>
   <g id="LineCollection_1">
    <path d="M 794.873701 887.350798 
L 767.47262 880.344996 
L 743.969515 873.324574 
L 723.78689 866.25284 
L 706.673618 859.178985 
L 692.391729 852.161261 
L 680.709672 845.268285 
L 671.391955 838.577151 
L 664.185952 832.164503 
L 658.81104 826.086606 
L 654.96123 820.349711 
L 652.332408 814.884814 
L 650.669135 809.550615 
L 649.802214 804.174853 
L 649.64897 798.610882 
L 650.180084 792.773126 
L 651.380887 786.638235 
L 653.227702 780.225583 
L 655.681017 773.575338 
L 658.688134 766.733041 
L 662.188639 759.741446 
L 666.119365 752.6373 
L 670.417921 745.450762 
L 675.024868 738.205982 
L 679.884913 730.922042 
L 684.947451 723.613911 
L 695.501747 708.969283 
L 711.858283 687.040021 
L 733.559319 657.997559 
L 744.032014 643.612333 
L 754.140594 629.323694 
L 763.840309 615.12998 
L 773.109297 601.026688 
L 781.942797 587.006827 
L 790.347963 573.060996 
L 798.339216 559.177336 
L 805.934064 545.341463 
L 813.149382 531.536431 
L 819.998112 517.742764 
L 826.486365 503.938509 
L 832.610879 490.099314 
L 838.356755 476.19847 
L 843.596597 462.477831 
L 846.198881 455.167456 
L 848.582635 448.093382 
L 850.838383 440.980473 
L 852.95661 433.824387 
L 854.926506 426.620712 
L 856.735905 419.365021 
L 858.371218 412.052933 
L 859.817376 404.680209 
L 861.057781 397.242872 
L 862.074286 389.737352 
L 862.847196 382.160672 
L 863.355319 374.510645 
L 863.576072 366.786093 
L 863.485658 358.987053 
L 863.05931 351.11495 
L 862.27161 343.172704 
L 861.096857 335.164729 
L 859.509451 327.096801 
L 857.484253 318.975775 
L 854.996854 310.809153 
L 852.02372 302.604551 
L 848.54216 294.369108 
L 844.530133 286.108907 
L 839.965896 277.828499 
L 834.827557 269.530551 
L 829.09258 261.215677 
L 822.737316 252.882426 
L 815.736597 244.527408 
L 808.063424 236.145523 
L 799.688757 227.730236 
L 790.5814 219.273868 
L 780.707958 210.767868 
L 770.032851 202.203051 
L 758.518359 193.569787 
L 746.124673 184.858149 
L 732.809958 176.058015 
L 718.927547 167.4 
L 718.927547 167.4 
" clip-path="url(#p0149331b65)" style="fill: none; stroke: #1f77b4; stroke-width: 1.5"/>
    <path d="M 790.265242 905.375399 
L 762.504056 898.277527 
L 738.22801 891.026226 
L 717.152369 883.641591 
L 699.00974 876.142246 
L 683.54931 868.54542 
L 670.53612 860.867011 
L 659.750348 853.121654 
L 650.986621 845.322783 
L 644.053339 837.482695 
L 638.772025 829.612608 
L 634.976691 821.72272 
L 632.513226 813.822266 
L 631.2388 805.919572 
L 631.021287 798.022105 
L 631.73871 790.136528 
L 633.278698 782.268744 
L 635.537964 774.423948 
L 638.421805 766.606667 
L 641.843608 758.820808 
L 645.724381 751.0697 
L 649.992302 743.356129 
L 654.582276 735.682383 
L 659.435518 728.050286 
L 664.499142 720.461233 
L 669.725771 712.916226 
L 675.073163 705.415903 
L 680.503847 697.960572 
L 685.984778 690.550241 
L 691.487005 683.184643 
L 696.985346 675.863263 
L 702.458094 668.585365 
L 707.886713 661.350016 
L 713.255568 654.156106 
L 718.551654 647.002371 
L 723.764344 639.887412 
L 728.885147 632.809715 
L 733.907477 625.767666 
L 738.826437 618.759569 
L 743.63861 611.783661 
L 748.341862 604.838126 
L 752.935158 597.921105 
L 757.418389 591.030712 
L 761.792201 584.165041 
L 766.057845 577.322176 
L 770.217028 570.500204 
L 774.271778 563.697214 
L 778.224314 556.911311 
L 782.076931 550.14062 
L 785.831884 543.383286 
L 789.491287 536.637486 
L 793.057019 529.901423 
L 796.530635 523.173336 
L 799.913284 516.451495 
L 803.205638 509.734208 
L 806.407823 503.019814 
L 809.519356 496.306686 
L 812.539094 489.593229 
L 815.46518 482.877878 
L 818.295002 476.159093 
L 821.025153 469.435358 
L 823.651395 462.705175 
L 826.168631 455.967061 
L 828.570879 449.219541 
L 830.851249 442.461143 
L 833.001927 435.690392 
L 835.014155 428.905802 
L 836.878227 422.105873 
L 838.583472 415.289077 
L 840.118252 408.453855 
L 841.469954 401.598607 
L 842.62499 394.721686 
L 843.568794 387.821383 
L 844.285823 380.895925 
L 844.759554 373.943461 
L 844.972492 366.962053 
L 844.906167 359.949669 
L 844.541134 352.904169 
L 843.856983 345.8233 
L 842.832331 338.704679 
L 841.444826 331.545789 
L 839.671149 324.343965 
L 837.487005 317.096388 
L 834.867126 309.800066 
L 831.785261 302.451835 
L 828.214168 295.048339 
L 824.125606 287.586026 
L 819.490316 280.061134 
L 814.278009 272.469683 
L 808.457346 264.807467 
L 801.995908 257.07004 
L 794.860174 249.25271 
L 787.015486 241.350528 
L 778.426011 233.35828 
L 769.054701 225.27048 
L 758.863244 217.081357 
L 747.812011 208.784853 
L 735.859998 200.374611 
L 722.964764 191.843968 
L 709.082353 183.185953 
" clip-path="url(#p0149331b65)" style="fill: none; stroke: #8c564b; stroke-width: 1.5"/>
    <path d="M 785.656782 923.4 
L 757.179351 916.103678 
L 732.075977 908.584035 
L 710.045372 900.835041 
L 690.805043 892.839764 
L 674.094927 884.56849 
L 659.684305 875.978671 
L 647.382375 867.019761 
L 638.618648 859.22089 
L 637.050057 857.647406 
L 630.116775 849.807317 
L 628.604941 847.849523 
L 623.323627 839.979436 
L 622.006512 837.677452 
L 618.211178 829.787564 
L 617.215683 827.260835 
L 614.752218 819.360381 
L 614.146112 816.784235 
L 612.871686 808.881541 
L 612.641441 806.431782 
L 612.423928 798.534316 
L 612.493397 796.336455 
L 613.480756 786.562838 
L 615.400923 777.120024 
L 618.083389 767.984852 
L 621.389703 759.121238 
L 625.207799 750.491703 
L 629.445637 742.062667 
L 634.026064 733.806083 
L 638.883147 725.699324 
L 643.959718 717.724409 
L 649.20574 709.867084 
L 654.577209 702.115985 
L 665.546223 686.897407 
L 682.108946 664.691116 
L 703.571386 635.969789 
L 713.775052 621.955537 
L 723.555233 608.133178 
L 732.889931 594.476222 
L 741.775513 580.959338 
L 750.220951 567.558701 
L 758.242723 554.252515 
L 765.8604 541.021566 
L 773.092874 527.849699 
L 779.955212 514.724147 
L 786.456064 501.6357 
L 792.595592 488.578719 
L 798.363869 475.55105 
L 803.739751 462.553847 
L 808.690206 449.591356 
L 810.992274 443.125227 
L 813.170146 436.670605 
L 815.21636 430.228726 
L 817.122771 423.800919 
L 818.880596 417.388568 
L 820.480456 410.993053 
L 821.912429 404.615685 
L 823.166102 398.257599 
L 824.230615 391.919642 
L 825.094695 385.60221 
L 825.74667 379.305077 
L 826.174438 373.027172 
L 826.365397 366.766363 
L 826.306309 360.519212 
L 825.983092 354.280771 
L 825.380537 348.044415 
L 824.481973 341.801771 
L 823.268878 335.542758 
L 821.720509 329.255776 
L 819.813572 322.928045 
L 817.522006 316.546069 
L 814.81691 310.096185 
L 811.666641 303.56513 
L 808.037071 296.940557 
L 803.891966 290.211426 
L 799.193425 283.368248 
L 793.902338 276.403156 
L 787.978773 269.30982 
L 781.382291 262.08325 
L 774.072139 254.719522 
L 766.007344 247.215473 
L 757.146706 239.568402 
L 747.44872 231.775798 
L 736.871441 223.835106 
L 725.372321 215.743549 
L 712.908024 207.497986 
L 699.237159 198.971906 
L 699.237159 198.971906 
" clip-path="url(#p0149331b65)" style="fill: none; stroke: #17becf; stroke-width: 1.5"/>
   </g>
   <g id="patch_3">
    <path d="M 599.866321 961.2 
L 599.866321 129.6 
" style="fill: none; stroke: #000000; stroke-width: 0.8; stroke-linejoin: miter; stroke-linecap: square"/>
   </g>
   <g id="patch_4">
    <path d="M 876.133679 961.2 
L 876.133679 129.6 
" style="fill: none; stroke: #000000; stroke-width: 0.8; stroke-linejoin: miter; stroke-linecap: square"/>
   </g>
   <g id="patch_5">
    <path d="M 599.866321 961.2 
L 876.133679 961.2 
" style="fill: none; stroke: #000000; stroke-width: 0.8; stroke-linejoin: miter; stroke-linecap: square"/>
   </g>
   <g id="patch_6">
    <path d="M 599.866321 129.6 
L 876.133679 129.6 
" style="fill: none; stroke: #000000; stroke-width: 0.8; stroke-linejoin: miter; stroke-linecap: square"/>
   </g>
  </g>
 </g>
 <defs>
  <clipPath id="p0149331b65">
   <rect x="599.866321" y="129.6" width="276.267359" height="831.6"/>
  </clipPath>
 </defs>
</svg>
