<?xml version="1.0" encoding="utf-8" standalone="no"?>
<!DOCTYPE svg PUBLIC "-//W3C//DTD SVG 1.1//EN"
  "http://www.w3.org/Graphics/SVG/1.1/DTD/svg11.dtd">
<svg xmlns:xlink="http://www.w3.org/1999/xlink" width="1440pt" height="1080pt" viewBox="0 0 1440 1080" xmlns="http://www.w3.org/2000/svg" version="1.1">
 <metadata>
  <rdf:RDF xmlns:dc="http://purl.org/dc/elements/1.1/" xmlns:cc="http://creativecommons.org/ns#" xmlns:rdf="http://www.w3.org/1999/02/22-rdf-syntax-ns#">
   <cc:Work>
    <dc:type rdf:resource="http://purl.org/dc/dcmitype/StillImage"/>
    <dc:date>2023-12-11T12:06:57.317028</dc:date>
    <dc:format>image/svg+xml</dc:format>
    <dc:creator>
     <cc:Agent>
      <dc:title>Matplotlib v3.7.1, https://matplotlib.org/</dc:title>
     </cc:Agent>
    </dc:creator>
   </cc:Work>
  </rdf:RDF>
 </metadata>
 <defs>
  <style type="text/css">*{stroke-linejoin: round; stroke-linecap: butt}</style>
 </defs>
 <g id="figure_1">
  <g id="patch_1">
   <path d="M 0 1080 
L 1440 1080 
L 1440 0 
L 0 0 
z
" style="fill: #ffffff"/>
  </g>
  <g id="axes_1">
   <g id="patch_2">
    <path d="M 608.939498 961.2 
L 867.060502 961.2 
L 867.060502 129.6 
L 608.939498 129.6 
z
" style="fill: #ffffff"/>
   </g>
   <g id="matplotlib.axis_1">
    <g id="xtick_1">
     <g id="line2d_1">
      <defs>
       <path id="m46d46fa107" d="M 0 0 
L 0 3.5 
" style="stroke: #000000; stroke-width: 0.8"/>
      </defs>
      <g>
       <use xlink:href="#m46d46fa107" x="651.522043" y="961.2" style="stroke: #000000; stroke-width: 0.8"/>
      </g>
     </g>
     <g id="text_1">
      <!-- 650 -->
      <g transform="translate(641.978293 975.798437) scale(0.1 -0.1)">
       <defs>
        <path id="DejaVuSans-36" d="M 2113 2584 
Q 1688 2584 1439 2293 
Q 1191 2003 1191 1497 
Q 1191 994 1439 701 
Q 1688 409 2113 409 
Q 2538 409 2786 701 
Q 3034 994 3034 1497 
Q 3034 2003 2786 2293 
Q 2538 2584 2113 2584 
z
M 3366 4563 
L 3366 3988 
Q 3128 4100 2886 4159 
Q 2644 4219 2406 4219 
Q 1781 4219 1451 3797 
Q 1122 3375 1075 2522 
Q 1259 2794 1537 2939 
Q 1816 3084 2150 3084 
Q 2853 3084 3261 2657 
Q 3669 2231 3669 1497 
Q 3669 778 3244 343 
Q 2819 -91 2113 -91 
Q 1303 -91 875 529 
Q 447 1150 447 2328 
Q 447 3434 972 4092 
Q 1497 4750 2381 4750 
Q 2619 4750 2861 4703 
Q 3103 4656 3366 4563 
z
" transform="scale(0.015625)"/>
        <path id="DejaVuSans-35" d="M 691 4666 
L 3169 4666 
L 3169 4134 
L 1269 4134 
L 1269 2991 
Q 1406 3038 1543 3061 
Q 1681 3084 1819 3084 
Q 2600 3084 3056 2656 
Q 3513 2228 3513 1497 
Q 3513 744 3044 326 
Q 2575 -91 1722 -91 
Q 1428 -91 1123 -41 
Q 819 9 494 109 
L 494 744 
Q 775 591 1075 516 
Q 1375 441 1709 441 
Q 2250 441 2565 725 
Q 2881 1009 2881 1497 
Q 2881 1984 2565 2268 
Q 2250 2553 1709 2553 
Q 1456 2553 1204 2497 
Q 953 2441 691 2322 
L 691 4666 
z
" transform="scale(0.015625)"/>
        <path id="DejaVuSans-30" d="M 2034 4250 
Q 1547 4250 1301 3770 
Q 1056 3291 1056 2328 
Q 1056 1369 1301 889 
Q 1547 409 2034 409 
Q 2525 409 2770 889 
Q 3016 1369 3016 2328 
Q 3016 3291 2770 3770 
Q 2525 4250 2034 4250 
z
M 2034 4750 
Q 2819 4750 3233 4129 
Q 3647 3509 3647 2328 
Q 3647 1150 3233 529 
Q 2819 -91 2034 -91 
Q 1250 -91 836 529 
Q 422 1150 422 2328 
Q 422 3509 836 4129 
Q 1250 4750 2034 4750 
z
" transform="scale(0.015625)"/>
       </defs>
       <use xlink:href="#DejaVuSans-36"/>
       <use xlink:href="#DejaVuSans-35" x="63.623047"/>
       <use xlink:href="#DejaVuSans-30" x="127.246094"/>
      </g>
     </g>
    </g>
    <g id="xtick_2">
     <g id="line2d_2">
      <g>
       <use xlink:href="#m46d46fa107" x="696.681274" y="961.2" style="stroke: #000000; stroke-width: 0.8"/>
      </g>
     </g>
     <g id="text_2">
      <!-- 700 -->
      <g transform="translate(687.137524 975.798437) scale(0.1 -0.1)">
       <defs>
        <path id="DejaVuSans-37" d="M 525 4666 
L 3525 4666 
L 3525 4397 
L 1831 0 
L 1172 0 
L 2766 4134 
L 525 4134 
L 525 4666 
z
" transform="scale(0.015625)"/>
       </defs>
       <use xlink:href="#DejaVuSans-37"/>
       <use xlink:href="#DejaVuSans-30" x="63.623047"/>
       <use xlink:href="#DejaVuSans-30" x="127.246094"/>
      </g>
     </g>
    </g>
    <g id="xtick_3">
     <g id="line2d_3">
      <g>
       <use xlink:href="#m46d46fa107" x="741.840506" y="961.2" style="stroke: #000000; stroke-width: 0.8"/>
      </g>
     </g>
     <g id="text_3">
      <!-- 750 -->
      <g transform="translate(732.296756 975.798437) scale(0.1 -0.1)">
       <use xlink:href="#DejaVuSans-37"/>
       <use xlink:href="#DejaVuSans-35" x="63.623047"/>
       <use xlink:href="#DejaVuSans-30" x="127.246094"/>
      </g>
     </g>
    </g>
    <g id="xtick_4">
     <g id="line2d_4">
      <g>
       <use xlink:href="#m46d46fa107" x="786.999738" y="961.2" style="stroke: #000000; stroke-width: 0.8"/>
      </g>
     </g>
     <g id="text_4">
      <!-- 800 -->
      <g transform="translate(777.455988 975.798437) scale(0.1 -0.1)">
       <defs>
        <path id="DejaVuSans-38" d="M 2034 2216 
Q 1584 2216 1326 1975 
Q 1069 1734 1069 1313 
Q 1069 891 1326 650 
Q 1584 409 2034 409 
Q 2484 409 2743 651 
Q 3003 894 3003 1313 
Q 3003 1734 2745 1975 
Q 2488 2216 2034 2216 
z
M 1403 2484 
Q 997 2584 770 2862 
Q 544 3141 544 3541 
Q 544 4100 942 4425 
Q 1341 4750 2034 4750 
Q 2731 4750 3128 4425 
Q 3525 4100 3525 3541 
Q 3525 3141 3298 2862 
Q 3072 2584 2669 2484 
Q 3125 2378 3379 2068 
Q 3634 1759 3634 1313 
Q 3634 634 3220 271 
Q 2806 -91 2034 -91 
Q 1263 -91 848 271 
Q 434 634 434 1313 
Q 434 1759 690 2068 
Q 947 2378 1403 2484 
z
M 1172 3481 
Q 1172 3119 1398 2916 
Q 1625 2713 2034 2713 
Q 2441 2713 2670 2916 
Q 2900 3119 2900 3481 
Q 2900 3844 2670 4047 
Q 2441 4250 2034 4250 
Q 1625 4250 1398 4047 
Q 1172 3844 1172 3481 
z
" transform="scale(0.015625)"/>
       </defs>
       <use xlink:href="#DejaVuSans-38"/>
       <use xlink:href="#DejaVuSans-30" x="63.623047"/>
       <use xlink:href="#DejaVuSans-30" x="127.246094"/>
      </g>
     </g>
    </g>
    <g id="xtick_5">
     <g id="line2d_5">
      <g>
       <use xlink:href="#m46d46fa107" x="832.15897" y="961.2" style="stroke: #000000; stroke-width: 0.8"/>
      </g>
     </g>
     <g id="text_5">
      <!-- 850 -->
      <g transform="translate(822.61522 975.798437) scale(0.1 -0.1)">
       <use xlink:href="#DejaVuSans-38"/>
       <use xlink:href="#DejaVuSans-35" x="63.623047"/>
       <use xlink:href="#DejaVuSans-30" x="127.246094"/>
      </g>
     </g>
    </g>
   </g>
   <g id="matplotlib.axis_2">
    <g id="ytick_1">
     <g id="line2d_6">
      <defs>
       <path id="me07762e147" d="M 0 0 
L -3.5 0 
" style="stroke: #000000; stroke-width: 0.8"/>
      </defs>
      <g>
       <use xlink:href="#me07762e147" x="608.939498" y="941.296241" style="stroke: #000000; stroke-width: 0.8"/>
      </g>
     </g>
     <g id="text_6">
      <!-- 400 -->
      <g transform="translate(582.851998 945.09546) scale(0.1 -0.1)">
       <defs>
        <path id="DejaVuSans-34" d="M 2419 4116 
L 825 1625 
L 2419 1625 
L 2419 4116 
z
M 2253 4666 
L 3047 4666 
L 3047 1625 
L 3713 1625 
L 3713 1100 
L 3047 1100 
L 3047 0 
L 2419 0 
L 2419 1100 
L 313 1100 
L 313 1709 
L 2253 4666 
z
" transform="scale(0.015625)"/>
       </defs>
       <use xlink:href="#DejaVuSans-34"/>
       <use xlink:href="#DejaVuSans-30" x="63.623047"/>
       <use xlink:href="#DejaVuSans-30" x="127.246094"/>
      </g>
     </g>
    </g>
    <g id="ytick_2">
     <g id="line2d_7">
      <g>
       <use xlink:href="#me07762e147" x="608.939498" y="760.659313" style="stroke: #000000; stroke-width: 0.8"/>
      </g>
     </g>
     <g id="text_7">
      <!-- 600 -->
      <g transform="translate(582.851998 764.458532) scale(0.1 -0.1)">
       <use xlink:href="#DejaVuSans-36"/>
       <use xlink:href="#DejaVuSans-30" x="63.623047"/>
       <use xlink:href="#DejaVuSans-30" x="127.246094"/>
      </g>
     </g>
    </g>
    <g id="ytick_3">
     <g id="line2d_8">
      <g>
       <use xlink:href="#me07762e147" x="608.939498" y="580.022386" style="stroke: #000000; stroke-width: 0.8"/>
      </g>
     </g>
     <g id="text_8">
      <!-- 800 -->
      <g transform="translate(582.851998 583.821605) scale(0.1 -0.1)">
       <use xlink:href="#DejaVuSans-38"/>
       <use xlink:href="#DejaVuSans-30" x="63.623047"/>
       <use xlink:href="#DejaVuSans-30" x="127.246094"/>
      </g>
     </g>
    </g>
    <g id="ytick_4">
     <g id="line2d_9">
      <g>
       <use xlink:href="#me07762e147" x="608.939498" y="399.385458" style="stroke: #000000; stroke-width: 0.8"/>
      </g>
     </g>
     <g id="text_9">
      <!-- 1000 -->
      <g transform="translate(576.489498 403.184677) scale(0.1 -0.1)">
       <defs>
        <path id="DejaVuSans-31" d="M 794 531 
L 1825 531 
L 1825 4091 
L 703 3866 
L 703 4441 
L 1819 4666 
L 2450 4666 
L 2450 531 
L 3481 531 
L 3481 0 
L 794 0 
L 794 531 
z
" transform="scale(0.015625)"/>
       </defs>
       <use xlink:href="#DejaVuSans-31"/>
       <use xlink:href="#DejaVuSans-30" x="63.623047"/>
       <use xlink:href="#DejaVuSans-30" x="127.246094"/>
       <use xlink:href="#DejaVuSans-30" x="190.869141"/>
      </g>
     </g>
    </g>
    <g id="ytick_5">
     <g id="line2d_10">
      <g>
       <use xlink:href="#me07762e147" x="608.939498" y="218.748531" style="stroke: #000000; stroke-width: 0.8"/>
      </g>
     </g>
     <g id="text_10">
      <!-- 1200 -->
      <g transform="translate(576.489498 222.54775) scale(0.1 -0.1)">
       <defs>
        <path id="DejaVuSans-32" d="M 1228 531 
L 3431 531 
L 3431 0 
L 469 0 
L 469 531 
Q 828 903 1448 1529 
Q 2069 2156 2228 2338 
Q 2531 2678 2651 2914 
Q 2772 3150 2772 3378 
Q 2772 3750 2511 3984 
Q 2250 4219 1831 4219 
Q 1534 4219 1204 4116 
Q 875 4013 500 3803 
L 500 4441 
Q 881 4594 1212 4672 
Q 1544 4750 1819 4750 
Q 2544 4750 2975 4387 
Q 3406 4025 3406 3419 
Q 3406 3131 3298 2873 
Q 3191 2616 2906 2266 
Q 2828 2175 2409 1742 
Q 1991 1309 1228 531 
z
" transform="scale(0.015625)"/>
       </defs>
       <use xlink:href="#DejaVuSans-31"/>
       <use xlink:href="#DejaVuSans-32" x="63.623047"/>
       <use xlink:href="#DejaVuSans-30" x="127.246094"/>
       <use xlink:href="#DejaVuSans-30" x="190.869141"/>
      </g>
     </g>
    </g>
   </g>
   <g id="LineCollection_1">
    <path d="M 643.95761 923.4 
L 661.996176 912.712952 
L 678.766842 902.258974 
L 694.282655 892.021654 
L 708.564645 881.984282 
L 721.64061 872.1299 
L 733.543884 862.44146 
L 744.312077 852.902134 
L 753.985853 843.495853 
L 762.607831 834.208086 
L 770.221752 825.026878 
L 776.872089 815.944021 
L 782.604248 806.956123 
L 787.465373 798.065239 
L 791.505578 789.278709 
L 794.779185 780.608024 
L 797.345462 772.066859 
L 799.268498 763.668735 
L 800.616158 755.424907 
L 801.458386 747.342969 
L 801.865288 739.426334 
L 801.905403 731.674484 
L 801.644372 724.0837 
L 801.14408 716.647966 
L 800.462175 709.359834 
L 798.761935 695.193354 
L 795.220185 668.185934 
L 794.512213 661.674104 
L 793.930363 655.246537 
L 793.495388 648.894936 
L 793.22467 642.610654 
L 793.132482 636.384654 
L 793.230264 630.207543 
L 793.526881 624.069686 
L 794.028845 617.961386 
L 794.740485 611.873117 
L 795.664037 605.795778 
L 796.79968 599.720921 
L 798.145508 593.640942 
L 799.697476 587.549192 
L 801.449336 581.44002 
L 803.392593 575.308744 
L 805.516496 569.151558 
L 807.808066 562.965398 
L 810.25217 556.747796 
L 815.527437 544.210391 
L 821.183357 531.525559 
L 832.907434 505.604899 
L 838.549399 492.344715 
L 841.216312 485.632136 
L 843.7419 478.860196 
L 846.096764 472.025657 
L 848.251266 465.125552 
L 850.175654 458.157447 
L 851.840247 451.119746 
L 853.215708 444.012018 
L 854.273418 436.835294 
L 854.985967 429.592278 
L 855.327729 422.287406 
L 855.275467 414.926695 
L 854.808883 407.517343 
L 853.91102 400.06713 
L 852.568422 392.583664 
L 850.771032 385.073628 
L 848.511839 377.542115 
L 845.78634 369.992175 
L 842.591935 362.424606 
L 838.927327 354.83797 
L 834.792006 347.228798 
L 830.185848 339.591892 
L 825.108823 331.920672 
L 819.56079 324.207513 
L 813.541347 316.44403 
L 807.049708 308.621308 
L 800.084572 300.730074 
L 792.643977 292.760809 
L 784.725113 284.703825 
L 776.324091 276.549297 
L 767.435677 268.287282 
L 758.052969 259.907713 
L 748.167035 251.400394 
L 737.766503 242.754979 
L 726.837113 233.960958 
L 715.361223 225.007635 
L 703.317276 215.884121 
L 690.679234 206.579316 
L 677.415962 197.081905 
L 663.490581 187.380354 
L 648.859777 177.462903 
L 633.599844 167.4 
L 633.599844 167.4 
" clip-path="url(#pc3f0621a80)" style="fill: none; stroke: #1f77b4; stroke-width: 1.5"/>
    <path d="M 637.974273 913.297517 
L 655.787043 902.747655 
L 672.303206 892.456836 
L 687.534905 882.41289 
L 701.502718 872.604002 
L 714.234745 863.018718 
L 725.765752 853.645942 
L 736.136336 844.474932 
L 745.392158 835.495297 
L 753.583194 826.696999 
L 760.763046 818.070344 
L 766.988279 809.60598 
L 772.3178 801.294898 
L 776.812284 793.12842 
L 780.533622 785.098201 
L 783.544414 777.196221 
L 785.9075 769.414784 
L 787.685514 761.746504 
L 788.940482 754.184312 
L 789.733448 746.721439 
L 790.124127 739.351416 
L 790.170601 732.068066 
L 789.929029 724.865499 
L 789.453396 717.738103 
L 788.79529 710.680538 
L 788.003696 703.687728 
L 787.124831 696.754856 
L 786.201987 689.877355 
L 785.275414 683.050899 
L 784.382214 676.271396 
L 783.556265 669.53498 
L 782.828163 662.838004 
L 782.225184 656.177027 
L 781.771266 649.54881 
L 781.487012 642.950306 
L 781.389706 636.37865 
L 781.493351 629.831149 
L 781.808719 623.305275 
L 782.343416 616.798655 
L 783.101966 610.309061 
L 784.085898 603.834398 
L 785.293858 597.372701 
L 786.72172 590.922116 
L 788.36272 584.4809 
L 790.207584 578.047401 
L 792.244678 571.620056 
L 794.460162 565.197377 
L 796.838145 558.77794 
L 799.360853 552.360378 
L 802.008797 545.943367 
L 804.760949 539.52562 
L 807.594917 533.10587 
L 810.487124 526.682868 
L 813.41299 520.255364 
L 816.34711 513.822103 
L 819.263435 507.381813 
L 822.135451 500.93319 
L 824.936353 494.474895 
L 827.639219 488.005538 
L 830.217177 481.523668 
L 832.643568 475.027767 
L 834.892102 468.516234 
L 836.937012 461.987378 
L 838.753187 455.439406 
L 840.316316 448.870416 
L 841.603 442.278382 
L 842.590873 435.661148 
L 843.258697 429.016415 
L 843.586455 422.341734 
L 843.55542 415.634493 
L 843.148221 408.891912 
L 842.348885 402.111027 
L 841.142865 395.288685 
L 839.517055 388.421535 
L 837.459781 381.506014 
L 834.960776 374.538344 
L 832.011138 367.514519 
L 828.603259 360.430296 
L 824.730742 353.281191 
L 820.388288 346.062464 
L 815.571564 338.769114 
L 810.277043 331.395873 
L 804.501824 323.937193 
L 798.243417 316.387241 
L 791.499512 308.739894 
L 784.267709 300.988726 
L 776.545227 293.127005 
L 768.328578 285.147685 
L 759.613215 277.043398 
L 750.393141 268.80645 
L 740.660496 260.428813 
L 730.405095 251.902119 
L 719.613953 243.217654 
L 708.270749 234.366356 
L 696.355277 225.338805 
L 683.842845 216.125219 
L 670.703641 206.715452 
L 656.90206 197.098989 
L 642.39599 187.26494 
L 627.136057 177.202038 
" clip-path="url(#pc3f0621a80)" style="fill: none; stroke: #8c564b; stroke-width: 1.5"/>
    <path d="M 631.990936 903.195034 
L 649.690036 892.712494 
L 665.965772 882.571481 
L 680.927798 872.705359 
L 694.595989 863.10688 
L 706.998347 853.769788 
L 718.170472 844.688722 
L 728.155148 835.858982 
L 737.002012 827.276102 
L 744.767229 818.935192 
L 751.513056 810.830022 
L 757.307132 802.951896 
L 762.221316 795.288509 
L 766.329985 787.823055 
L 769.707873 780.533961 
L 772.427745 773.395518 
L 774.558405 766.37944 
L 776.163472 759.457052 
L 777.301164 752.601541 
L 778.024952 745.789724 
L 778.384711 739.003003 
L 778.427944 732.227462 
L 778.200742 725.453352 
L 777.748352 718.674234 
L 777.115367 711.886075 
L 776.345642 705.08645 
L 775.482034 698.273935 
L 774.566071 691.447713 
L 773.640699 684.63011 
L 773.63461 684.584575 
L 772.74141 677.805072 
L 772.728085 677.700303 
L 771.902137 670.963887 
L 771.883649 670.804038 
L 771.155547 664.107062 
L 771.134578 663.896555 
L 770.531598 657.235578 
L 770.51122 656.97923 
L 770.057302 650.351014 
L 770.040746 650.054145 
L 769.756491 643.455641 
L 769.746899 643.124141 
L 769.649593 636.552485 
L 769.649776 636.19281 
L 769.753422 629.645309 
L 769.765637 629.264398 
L 770.081005 622.738525 
L 770.106765 622.343638 
L 770.641462 615.837018 
L 770.681412 615.435518 
L 771.439962 608.945924 
L 771.493839 608.545014 
L 772.477771 602.070351 
L 772.544436 601.67682 
L 773.752396 595.215122 
L 773.829951 594.835118 
L 775.257814 588.384534 
L 775.343761 588.023405 
L 776.984761 581.582189 
L 777.076202 581.244389 
L 778.921066 574.81089 
L 779.014898 574.49997 
L 781.051992 568.072625 
L 781.145084 567.791284 
L 783.360568 561.368605 
L 783.44991 561.118795 
L 785.827893 554.699359 
L 785.910702 554.482423 
L 788.43341 548.064861 
L 788.507202 547.881678 
L 791.155147 541.464668 
L 791.217776 541.315804 
L 793.969928 534.898057 
L 794.019599 534.783902 
L 796.853567 528.364152 
L 796.88884 528.285042 
L 799.781047 521.862039 
L 799.800825 521.818354 
L 802.726691 515.390851 
L 805.657757 508.964278 
L 808.552511 502.571624 
L 811.38633 496.208766 
L 814.132937 489.875664 
L 816.766389 483.572451 
L 819.261305 477.299377 
L 821.59311 471.0567 
L 823.738267 464.844539 
L 825.674494 458.662676 
L 827.380946 452.510299 
L 828.83833 446.385695 
L 830.028933 440.285909 
L 830.936527 434.206418 
L 831.546144 428.140838 
L 831.843721 422.080778 
L 831.815659 416.015852 
L 831.448359 409.933942 
L 830.727841 403.82168 
L 829.639512 397.665108 
L 828.168176 391.45043 
L 826.298258 385.164705 
L 824.014217 378.796392 
L 821.301052 372.335668 
L 818.14479 365.774501 
L 814.532885 359.106516 
L 810.454474 352.326723 
L 805.900462 345.431165 
L 800.86347 338.416563 
L 795.337653 331.279985 
L 789.318425 324.018572 
L 782.802126 316.629322 
L 775.785642 309.108937 
L 768.265998 301.453711 
L 760.23993 293.659466 
L 751.703441 285.721512 
L 742.65134 277.634626 
L 733.076758 269.393046 
L 722.970648 260.990477 
L 712.321257 252.420092 
L 701.113568 243.674538 
L 689.328713 234.745946 
L 676.943349 225.625927 
L 663.929002 216.305578 
L 650.251367 206.775476 
L 635.86957 197.025675 
L 620.672271 187.004075 
" clip-path="url(#pc3f0621a80)" style="fill: none; stroke: #17becf; stroke-width: 1.5"/>
   </g>
   <g id="patch_3">
    <path d="M 608.939498 961.2 
L 608.939498 129.6 
" style="fill: none; stroke: #000000; stroke-width: 0.8; stroke-linejoin: miter; stroke-linecap: square"/>
   </g>
   <g id="patch_4">
    <path d="M 867.060502 961.2 
L 867.060502 129.6 
" style="fill: none; stroke: #000000; stroke-width: 0.8; stroke-linejoin: miter; stroke-linecap: square"/>
   </g>
   <g id="patch_5">
    <path d="M 608.939498 961.2 
L 867.060502 961.2 
" style="fill: none; stroke: #000000; stroke-width: 0.8; stroke-linejoin: miter; stroke-linecap: square"/>
   </g>
   <g id="patch_6">
    <path d="M 608.939498 129.6 
L 867.060502 129.6 
" style="fill: none; stroke: #000000; stroke-width: 0.8; stroke-linejoin: miter; stroke-linecap: square"/>
   </g>
  </g>
 </g>
 <defs>
  <clipPath id="pc3f0621a80">
   <rect x="608.939498" y="129.6" width="258.121005" height="831.6"/>
  </clipPath>
 </defs>
</svg>
