<?xml version="1.0" encoding="utf-8" standalone="no"?>
<!DOCTYPE svg PUBLIC "-//W3C//DTD SVG 1.1//EN"
  "http://www.w3.org/Graphics/SVG/1.1/DTD/svg11.dtd">
<svg xmlns:xlink="http://www.w3.org/1999/xlink" width="1440pt" height="1080pt" viewBox="0 0 1440 1080" xmlns="http://www.w3.org/2000/svg" version="1.1">
 <metadata>
  <rdf:RDF xmlns:dc="http://purl.org/dc/elements/1.1/" xmlns:cc="http://creativecommons.org/ns#" xmlns:rdf="http://www.w3.org/1999/02/22-rdf-syntax-ns#">
   <cc:Work>
    <dc:type rdf:resource="http://purl.org/dc/dcmitype/StillImage"/>
    <dc:date>2023-12-11T12:06:41.120800</dc:date>
    <dc:format>image/svg+xml</dc:format>
    <dc:creator>
     <cc:Agent>
      <dc:title>Matplotlib v3.7.1, https://matplotlib.org/</dc:title>
     </cc:Agent>
    </dc:creator>
   </cc:Work>
  </rdf:RDF>
 </metadata>
 <defs>
  <style type="text/css">*{stroke-linejoin: round; stroke-linecap: butt}</style>
 </defs>
 <g id="figure_1">
  <g id="patch_1">
   <path d="M 0 1080 
L 1440 1080 
L 1440 0 
L 0 0 
z
" style="fill: #ffffff"/>
  </g>
  <g id="axes_1">
   <g id="patch_2">
    <path d="M 595.829942 961.2 
L 880.170058 961.2 
L 880.170058 129.6 
L 595.829942 129.6 
z
" style="fill: #ffffff"/>
   </g>
   <g id="matplotlib.axis_1">
    <g id="xtick_1">
     <g id="line2d_1">
      <defs>
       <path id="m2326a8baab" d="M 0 0 
L 0 3.5 
" style="stroke: #000000; stroke-width: 0.8"/>
      </defs>
      <g>
       <use xlink:href="#m2326a8baab" x="624.878908" y="961.2" style="stroke: #000000; stroke-width: 0.8"/>
      </g>
     </g>
     <g id="text_1">
      <!-- 1400 -->
      <g transform="translate(612.153908 975.798437) scale(0.1 -0.1)">
       <defs>
        <path id="DejaVuSans-31" d="M 794 531 
L 1825 531 
L 1825 4091 
L 703 3866 
L 703 4441 
L 1819 4666 
L 2450 4666 
L 2450 531 
L 3481 531 
L 3481 0 
L 794 0 
L 794 531 
z
" transform="scale(0.015625)"/>
        <path id="DejaVuSans-34" d="M 2419 4116 
L 825 1625 
L 2419 1625 
L 2419 4116 
z
M 2253 4666 
L 3047 4666 
L 3047 1625 
L 3713 1625 
L 3713 1100 
L 3047 1100 
L 3047 0 
L 2419 0 
L 2419 1100 
L 313 1100 
L 313 1709 
L 2253 4666 
z
" transform="scale(0.015625)"/>
        <path id="DejaVuSans-30" d="M 2034 4250 
Q 1547 4250 1301 3770 
Q 1056 3291 1056 2328 
Q 1056 1369 1301 889 
Q 1547 409 2034 409 
Q 2525 409 2770 889 
Q 3016 1369 3016 2328 
Q 3016 3291 2770 3770 
Q 2525 4250 2034 4250 
z
M 2034 4750 
Q 2819 4750 3233 4129 
Q 3647 3509 3647 2328 
Q 3647 1150 3233 529 
Q 2819 -91 2034 -91 
Q 1250 -91 836 529 
Q 422 1150 422 2328 
Q 422 3509 836 4129 
Q 1250 4750 2034 4750 
z
" transform="scale(0.015625)"/>
       </defs>
       <use xlink:href="#DejaVuSans-31"/>
       <use xlink:href="#DejaVuSans-34" x="63.623047"/>
       <use xlink:href="#DejaVuSans-30" x="127.246094"/>
       <use xlink:href="#DejaVuSans-30" x="190.869141"/>
      </g>
     </g>
    </g>
    <g id="xtick_2">
     <g id="line2d_2">
      <g>
       <use xlink:href="#m2326a8baab" x="659.77207" y="961.2" style="stroke: #000000; stroke-width: 0.8"/>
      </g>
     </g>
     <g id="text_2">
      <!-- 1450 -->
      <g transform="translate(647.04707 975.798437) scale(0.1 -0.1)">
       <defs>
        <path id="DejaVuSans-35" d="M 691 4666 
L 3169 4666 
L 3169 4134 
L 1269 4134 
L 1269 2991 
Q 1406 3038 1543 3061 
Q 1681 3084 1819 3084 
Q 2600 3084 3056 2656 
Q 3513 2228 3513 1497 
Q 3513 744 3044 326 
Q 2575 -91 1722 -91 
Q 1428 -91 1123 -41 
Q 819 9 494 109 
L 494 744 
Q 775 591 1075 516 
Q 1375 441 1709 441 
Q 2250 441 2565 725 
Q 2881 1009 2881 1497 
Q 2881 1984 2565 2268 
Q 2250 2553 1709 2553 
Q 1456 2553 1204 2497 
Q 953 2441 691 2322 
L 691 4666 
z
" transform="scale(0.015625)"/>
       </defs>
       <use xlink:href="#DejaVuSans-31"/>
       <use xlink:href="#DejaVuSans-34" x="63.623047"/>
       <use xlink:href="#DejaVuSans-35" x="127.246094"/>
       <use xlink:href="#DejaVuSans-30" x="190.869141"/>
      </g>
     </g>
    </g>
    <g id="xtick_3">
     <g id="line2d_3">
      <g>
       <use xlink:href="#m2326a8baab" x="694.665232" y="961.2" style="stroke: #000000; stroke-width: 0.8"/>
      </g>
     </g>
     <g id="text_3">
      <!-- 1500 -->
      <g transform="translate(681.940232 975.798437) scale(0.1 -0.1)">
       <use xlink:href="#DejaVuSans-31"/>
       <use xlink:href="#DejaVuSans-35" x="63.623047"/>
       <use xlink:href="#DejaVuSans-30" x="127.246094"/>
       <use xlink:href="#DejaVuSans-30" x="190.869141"/>
      </g>
     </g>
    </g>
    <g id="xtick_4">
     <g id="line2d_4">
      <g>
       <use xlink:href="#m2326a8baab" x="729.558395" y="961.2" style="stroke: #000000; stroke-width: 0.8"/>
      </g>
     </g>
     <g id="text_4">
      <!-- 1550 -->
      <g transform="translate(716.833395 975.798437) scale(0.1 -0.1)">
       <use xlink:href="#DejaVuSans-31"/>
       <use xlink:href="#DejaVuSans-35" x="63.623047"/>
       <use xlink:href="#DejaVuSans-35" x="127.246094"/>
       <use xlink:href="#DejaVuSans-30" x="190.869141"/>
      </g>
     </g>
    </g>
    <g id="xtick_5">
     <g id="line2d_5">
      <g>
       <use xlink:href="#m2326a8baab" x="764.451557" y="961.2" style="stroke: #000000; stroke-width: 0.8"/>
      </g>
     </g>
     <g id="text_5">
      <!-- 1600 -->
      <g transform="translate(751.726557 975.798437) scale(0.1 -0.1)">
       <defs>
        <path id="DejaVuSans-36" d="M 2113 2584 
Q 1688 2584 1439 2293 
Q 1191 2003 1191 1497 
Q 1191 994 1439 701 
Q 1688 409 2113 409 
Q 2538 409 2786 701 
Q 3034 994 3034 1497 
Q 3034 2003 2786 2293 
Q 2538 2584 2113 2584 
z
M 3366 4563 
L 3366 3988 
Q 3128 4100 2886 4159 
Q 2644 4219 2406 4219 
Q 1781 4219 1451 3797 
Q 1122 3375 1075 2522 
Q 1259 2794 1537 2939 
Q 1816 3084 2150 3084 
Q 2853 3084 3261 2657 
Q 3669 2231 3669 1497 
Q 3669 778 3244 343 
Q 2819 -91 2113 -91 
Q 1303 -91 875 529 
Q 447 1150 447 2328 
Q 447 3434 972 4092 
Q 1497 4750 2381 4750 
Q 2619 4750 2861 4703 
Q 3103 4656 3366 4563 
z
" transform="scale(0.015625)"/>
       </defs>
       <use xlink:href="#DejaVuSans-31"/>
       <use xlink:href="#DejaVuSans-36" x="63.623047"/>
       <use xlink:href="#DejaVuSans-30" x="127.246094"/>
       <use xlink:href="#DejaVuSans-30" x="190.869141"/>
      </g>
     </g>
    </g>
    <g id="xtick_6">
     <g id="line2d_6">
      <g>
       <use xlink:href="#m2326a8baab" x="799.344719" y="961.2" style="stroke: #000000; stroke-width: 0.8"/>
      </g>
     </g>
     <g id="text_6">
      <!-- 1650 -->
      <g transform="translate(786.619719 975.798437) scale(0.1 -0.1)">
       <use xlink:href="#DejaVuSans-31"/>
       <use xlink:href="#DejaVuSans-36" x="63.623047"/>
       <use xlink:href="#DejaVuSans-35" x="127.246094"/>
       <use xlink:href="#DejaVuSans-30" x="190.869141"/>
      </g>
     </g>
    </g>
    <g id="xtick_7">
     <g id="line2d_7">
      <g>
       <use xlink:href="#m2326a8baab" x="834.237881" y="961.2" style="stroke: #000000; stroke-width: 0.8"/>
      </g>
     </g>
     <g id="text_7">
      <!-- 1700 -->
      <g transform="translate(821.512881 975.798437) scale(0.1 -0.1)">
       <defs>
        <path id="DejaVuSans-37" d="M 525 4666 
L 3525 4666 
L 3525 4397 
L 1831 0 
L 1172 0 
L 2766 4134 
L 525 4134 
L 525 4666 
z
" transform="scale(0.015625)"/>
       </defs>
       <use xlink:href="#DejaVuSans-31"/>
       <use xlink:href="#DejaVuSans-37" x="63.623047"/>
       <use xlink:href="#DejaVuSans-30" x="127.246094"/>
       <use xlink:href="#DejaVuSans-30" x="190.869141"/>
      </g>
     </g>
    </g>
    <g id="xtick_8">
     <g id="line2d_8">
      <g>
       <use xlink:href="#m2326a8baab" x="869.131043" y="961.2" style="stroke: #000000; stroke-width: 0.8"/>
      </g>
     </g>
     <g id="text_8">
      <!-- 1750 -->
      <g transform="translate(856.406043 975.798437) scale(0.1 -0.1)">
       <use xlink:href="#DejaVuSans-31"/>
       <use xlink:href="#DejaVuSans-37" x="63.623047"/>
       <use xlink:href="#DejaVuSans-35" x="127.246094"/>
       <use xlink:href="#DejaVuSans-30" x="190.869141"/>
      </g>
     </g>
    </g>
   </g>
   <g id="matplotlib.axis_2">
    <g id="ytick_1">
     <g id="line2d_9">
      <defs>
       <path id="m92fdbe553a" d="M 0 0 
L -3.5 0 
" style="stroke: #000000; stroke-width: 0.8"/>
      </defs>
      <g>
       <use xlink:href="#m92fdbe553a" x="595.829942" y="908.00232" style="stroke: #000000; stroke-width: 0.8"/>
      </g>
     </g>
     <g id="text_9">
      <!-- 200 -->
      <g transform="translate(569.742442 911.801539) scale(0.1 -0.1)">
       <defs>
        <path id="DejaVuSans-32" d="M 1228 531 
L 3431 531 
L 3431 0 
L 469 0 
L 469 531 
Q 828 903 1448 1529 
Q 2069 2156 2228 2338 
Q 2531 2678 2651 2914 
Q 2772 3150 2772 3378 
Q 2772 3750 2511 3984 
Q 2250 4219 1831 4219 
Q 1534 4219 1204 4116 
Q 875 4013 500 3803 
L 500 4441 
Q 881 4594 1212 4672 
Q 1544 4750 1819 4750 
Q 2544 4750 2975 4387 
Q 3406 4025 3406 3419 
Q 3406 3131 3298 2873 
Q 3191 2616 2906 2266 
Q 2828 2175 2409 1742 
Q 1991 1309 1228 531 
z
" transform="scale(0.015625)"/>
       </defs>
       <use xlink:href="#DejaVuSans-32"/>
       <use xlink:href="#DejaVuSans-30" x="63.623047"/>
       <use xlink:href="#DejaVuSans-30" x="127.246094"/>
      </g>
     </g>
    </g>
    <g id="ytick_2">
     <g id="line2d_10">
      <g>
       <use xlink:href="#m92fdbe553a" x="595.829942" y="768.429672" style="stroke: #000000; stroke-width: 0.8"/>
      </g>
     </g>
     <g id="text_10">
      <!-- 400 -->
      <g transform="translate(569.742442 772.22889) scale(0.1 -0.1)">
       <use xlink:href="#DejaVuSans-34"/>
       <use xlink:href="#DejaVuSans-30" x="63.623047"/>
       <use xlink:href="#DejaVuSans-30" x="127.246094"/>
      </g>
     </g>
    </g>
    <g id="ytick_3">
     <g id="line2d_11">
      <g>
       <use xlink:href="#m92fdbe553a" x="595.829942" y="628.857023" style="stroke: #000000; stroke-width: 0.8"/>
      </g>
     </g>
     <g id="text_11">
      <!-- 600 -->
      <g transform="translate(569.742442 632.656242) scale(0.1 -0.1)">
       <use xlink:href="#DejaVuSans-36"/>
       <use xlink:href="#DejaVuSans-30" x="63.623047"/>
       <use xlink:href="#DejaVuSans-30" x="127.246094"/>
      </g>
     </g>
    </g>
    <g id="ytick_4">
     <g id="line2d_12">
      <g>
       <use xlink:href="#m92fdbe553a" x="595.829942" y="489.284375" style="stroke: #000000; stroke-width: 0.8"/>
      </g>
     </g>
     <g id="text_12">
      <!-- 800 -->
      <g transform="translate(569.742442 493.083594) scale(0.1 -0.1)">
       <defs>
        <path id="DejaVuSans-38" d="M 2034 2216 
Q 1584 2216 1326 1975 
Q 1069 1734 1069 1313 
Q 1069 891 1326 650 
Q 1584 409 2034 409 
Q 2484 409 2743 651 
Q 3003 894 3003 1313 
Q 3003 1734 2745 1975 
Q 2488 2216 2034 2216 
z
M 1403 2484 
Q 997 2584 770 2862 
Q 544 3141 544 3541 
Q 544 4100 942 4425 
Q 1341 4750 2034 4750 
Q 2731 4750 3128 4425 
Q 3525 4100 3525 3541 
Q 3525 3141 3298 2862 
Q 3072 2584 2669 2484 
Q 3125 2378 3379 2068 
Q 3634 1759 3634 1313 
Q 3634 634 3220 271 
Q 2806 -91 2034 -91 
Q 1263 -91 848 271 
Q 434 634 434 1313 
Q 434 1759 690 2068 
Q 947 2378 1403 2484 
z
M 1172 3481 
Q 1172 3119 1398 2916 
Q 1625 2713 2034 2713 
Q 2441 2713 2670 2916 
Q 2900 3119 2900 3481 
Q 2900 3844 2670 4047 
Q 2441 4250 2034 4250 
Q 1625 4250 1398 4047 
Q 1172 3844 1172 3481 
z
" transform="scale(0.015625)"/>
       </defs>
       <use xlink:href="#DejaVuSans-38"/>
       <use xlink:href="#DejaVuSans-30" x="63.623047"/>
       <use xlink:href="#DejaVuSans-30" x="127.246094"/>
      </g>
     </g>
    </g>
    <g id="ytick_5">
     <g id="line2d_13">
      <g>
       <use xlink:href="#m92fdbe553a" x="595.829942" y="349.711726" style="stroke: #000000; stroke-width: 0.8"/>
      </g>
     </g>
     <g id="text_13">
      <!-- 1000 -->
      <g transform="translate(563.379942 353.510945) scale(0.1 -0.1)">
       <use xlink:href="#DejaVuSans-31"/>
       <use xlink:href="#DejaVuSans-30" x="63.623047"/>
       <use xlink:href="#DejaVuSans-30" x="127.246094"/>
       <use xlink:href="#DejaVuSans-30" x="190.869141"/>
      </g>
     </g>
    </g>
    <g id="ytick_6">
     <g id="line2d_14">
      <g>
       <use xlink:href="#m92fdbe553a" x="595.829942" y="210.139078" style="stroke: #000000; stroke-width: 0.8"/>
      </g>
     </g>
     <g id="text_14">
      <!-- 1200 -->
      <g transform="translate(563.379942 213.938297) scale(0.1 -0.1)">
       <use xlink:href="#DejaVuSans-31"/>
       <use xlink:href="#DejaVuSans-32" x="63.623047"/>
       <use xlink:href="#DejaVuSans-30" x="127.246094"/>
       <use xlink:href="#DejaVuSans-30" x="190.869141"/>
      </g>
     </g>
    </g>
   </g>
   <g id="LineCollection_1">
    <path d="M 636.816144 923.4 
L 640.095295 912.497158 
L 642.915534 901.788467 
L 645.34888 891.278084 
L 647.458415 880.967184 
L 649.298977 870.854583 
L 650.917869 860.937214 
L 652.355581 851.210514 
L 654.819396 832.30511 
L 656.902944 814.081916 
L 659.612357 787.880236 
L 662.807764 754.683991 
L 665.650039 722.968811 
L 667.483862 699.867737 
L 668.519381 684.705772 
L 669.379921 669.694579 
L 670.051622 654.809605 
L 670.530805 640.034545 
L 670.82581 625.360551 
L 670.973068 603.535568 
L 670.829846 574.810699 
L 670.724362 546.56615 
L 670.86463 532.674923 
L 671.23838 518.961032 
L 671.925655 505.440446 
L 673.004723 492.125765 
L 673.714631 485.548151 
L 674.550002 479.02417 
L 675.519284 472.553542 
L 676.630532 466.135411 
L 677.891386 459.768316 
L 679.30907 453.450168 
L 680.890388 447.17825 
L 682.641715 440.949241 
L 684.568989 434.759256 
L 686.677693 428.603901 
L 688.972821 422.478348 
L 691.458827 416.377407 
L 694.13957 410.29561 
L 697.018237 404.227275 
L 700.097259 398.16657 
L 703.378238 392.10755 
L 706.861862 386.044183 
L 710.547844 379.970357 
L 714.434873 373.879862 
L 718.520589 367.766376 
L 722.801577 361.623429 
L 727.273392 355.444373 
L 731.930602 349.22235 
L 741.775016 336.620779 
L 752.274945 323.758939 
L 763.361545 310.573196 
L 812.227156 253.235795 
L 825.331802 237.450301 
L 845.684653 212.492728 
L 867.245507 185.883285 
L 867.245507 185.883285 
" clip-path="url(#p68c02940a0)" style="fill: none; stroke: #1f77b4; stroke-width: 1.5"/>
    <path d="M 622.785318 919.168132 
L 625.925646 908.756326 
L 628.639551 898.476505 
L 630.992144 888.335819 
L 633.040781 878.339523 
L 634.83568 868.491147 
L 636.4205 858.792671 
L 637.8329 849.244676 
L 639.105069 839.846501 
L 640.264224 830.596383 
L 641.333096 821.49159 
L 642.330372 812.528555 
L 643.271133 803.702986 
L 644.167247 795.009987 
L 645.02776 786.444162 
L 645.859244 777.99971 
L 646.666137 769.67052 
L 647.451057 761.450257 
L 648.215092 753.332439 
L 648.958072 745.31051 
L 649.678822 737.377909 
L 650.375394 729.528129 
L 651.045283 721.754773 
L 651.685619 714.051603 
L 652.293346 706.412585 
L 652.865384 698.831929 
L 653.398775 691.304124 
L 653.890807 683.823963 
L 654.339132 676.386573 
L 654.741863 668.987435 
L 655.097658 661.622396 
L 655.40579 654.287686 
L 655.66621 646.979923 
L 655.879585 639.69612 
L 656.047338 632.433682 
L 656.17167 625.190407 
L 656.255567 617.964479 
L 656.30281 610.75446 
L 656.317959 603.559275 
L 656.306343 596.378201 
L 656.274031 589.210852 
L 656.227803 582.057151 
L 656.175106 574.91732 
L 656.124013 567.791848 
L 656.083166 560.681468 
L 656.061721 553.587132 
L 656.069285 546.509981 
L 656.115849 539.451316 
L 656.211716 532.412566 
L 656.367432 525.395257 
L 656.593703 518.400979 
L 656.901324 511.431354 
L 657.301094 504.488001 
L 657.803741 497.572505 
L 658.419837 490.686379 
L 659.159721 483.831032 
L 660.033418 477.007736 
L 661.050562 470.217594 
L 662.220324 463.461504 
L 663.551334 456.740133 
L 665.051616 450.053879 
L 666.728518 443.402848 
L 668.588657 436.786823 
L 670.637857 430.205238 
L 672.881104 423.657151 
L 675.322497 417.141224 
L 677.965213 410.655701 
L 680.811477 404.198387 
L 683.862539 397.766635 
L 687.118662 391.357328 
L 690.579115 384.966871 
L 694.242178 378.591183 
L 698.105163 372.225689 
L 702.164431 365.865318 
L 706.415436 359.504508 
L 710.852775 353.137208 
L 715.470245 346.756888 
L 720.260924 340.356551 
L 725.217256 333.928751 
L 730.331157 327.465614 
L 735.59413 320.958861 
L 740.997404 314.399844 
L 746.532077 307.779576 
L 752.189288 301.088773 
L 757.9604 294.317899 
L 763.837196 287.45722 
L 769.812107 280.496854 
L 775.878443 273.426839 
L 782.030658 266.237197 
L 788.264622 258.918008 
L 794.577926 251.459495 
L 800.970198 243.852103 
L 807.443448 236.086598 
L 814.00243 228.154166 
L 820.655033 220.046516 
L 827.41269 211.755998 
L 834.290812 203.275724 
L 841.309253 194.599694 
L 848.492791 185.722935 
L 855.871641 176.641642 
" clip-path="url(#p68c02940a0)" style="fill: none; stroke: #8c564b; stroke-width: 1.5"/>
    <path d="M 608.754493 914.936264 
L 611.821134 904.768767 
L 614.413502 894.949306 
L 616.673398 885.208185 
L 618.651876 875.554227 
L 620.394006 865.99539 
L 621.93934 856.538552 
L 623.322325 847.189407 
L 625.715717 828.830882 
L 627.761385 810.941561 
L 630.44458 784.993692 
L 633.623424 751.970039 
L 636.442367 720.518611 
L 638.249279 697.762648 
L 639.264647 682.902096 
L 640.105964 668.23561 
L 640.76162 653.71916 
L 641.229412 639.312339 
L 641.518002 624.979573 
L 641.662806 603.5557 
L 641.520377 575.025482 
L 641.414476 546.413308 
L 641.560195 532.087446 
L 641.952829 517.754769 
L 642.684525 503.425608 
L 643.206919 496.26654 
L 643.849325 489.113813 
L 644.623277 481.969696 
L 645.539998 474.836661 
L 646.610282 467.717376 
L 647.844359 460.614681 
L 649.251761 453.531552 
L 650.841192 446.471052 
L 652.620402 439.436259 
L 654.596071 432.430181 
L 656.773722 425.455656 
L 659.15764 418.515232 
L 661.750835 411.611054 
L 664.555019 404.744737 
L 667.570623 397.917258 
L 670.796832 391.128858 
L 674.231643 384.378966 
L 677.871946 377.666142 
L 681.713604 370.988053 
L 685.751551 364.34146 
L 689.979887 357.722242 
L 694.391974 351.125419 
L 698.980529 344.545202 
L 703.737724 337.975047 
L 708.655284 331.407702 
L 718.936769 318.249286 
L 729.75389 305.000048 
L 741.03588 291.582235 
L 789.731674 234.446297 
L 802.690567 218.836694 
L 822.90289 194.051404 
L 844.497775 167.4 
L 844.497775 167.4 
" clip-path="url(#p68c02940a0)" style="fill: none; stroke: #17becf; stroke-width: 1.5"/>
   </g>
   <g id="patch_3">
    <path d="M 595.829942 961.2 
L 595.829942 129.6 
" style="fill: none; stroke: #000000; stroke-width: 0.8; stroke-linejoin: miter; stroke-linecap: square"/>
   </g>
   <g id="patch_4">
    <path d="M 880.170058 961.2 
L 880.170058 129.6 
" style="fill: none; stroke: #000000; stroke-width: 0.8; stroke-linejoin: miter; stroke-linecap: square"/>
   </g>
   <g id="patch_5">
    <path d="M 595.829942 961.2 
L 880.170058 961.2 
" style="fill: none; stroke: #000000; stroke-width: 0.8; stroke-linejoin: miter; stroke-linecap: square"/>
   </g>
   <g id="patch_6">
    <path d="M 595.829942 129.6 
L 880.170058 129.6 
" style="fill: none; stroke: #000000; stroke-width: 0.8; stroke-linejoin: miter; stroke-linecap: square"/>
   </g>
  </g>
 </g>
 <defs>
  <clipPath id="p68c02940a0">
   <rect x="595.829942" y="129.6" width="284.340116" height="831.6"/>
  </clipPath>
 </defs>
</svg>
