<?xml version="1.0" encoding="utf-8" standalone="no"?>
<!DOCTYPE svg PUBLIC "-//W3C//DTD SVG 1.1//EN"
  "http://www.w3.org/Graphics/SVG/1.1/DTD/svg11.dtd">
<svg xmlns:xlink="http://www.w3.org/1999/xlink" width="1440pt" height="1080pt" viewBox="0 0 1440 1080" xmlns="http://www.w3.org/2000/svg" version="1.1">
 <metadata>
  <rdf:RDF xmlns:dc="http://purl.org/dc/elements/1.1/" xmlns:cc="http://creativecommons.org/ns#" xmlns:rdf="http://www.w3.org/1999/02/22-rdf-syntax-ns#">
   <cc:Work>
    <dc:type rdf:resource="http://purl.org/dc/dcmitype/StillImage"/>
    <dc:date>2023-12-11T12:06:55.881471</dc:date>
    <dc:format>image/svg+xml</dc:format>
    <dc:creator>
     <cc:Agent>
      <dc:title>Matplotlib v3.7.1, https://matplotlib.org/</dc:title>
     </cc:Agent>
    </dc:creator>
   </cc:Work>
  </rdf:RDF>
 </metadata>
 <defs>
  <style type="text/css">*{stroke-linejoin: round; stroke-linecap: butt}</style>
 </defs>
 <g id="figure_1">
  <g id="patch_1">
   <path d="M 0 1080 
L 1440 1080 
L 1440 0 
L 0 0 
z
" style="fill: #ffffff"/>
  </g>
  <g id="axes_1">
   <g id="patch_2">
    <path d="M 216.379863 961.2 
L 1259.620137 961.2 
L 1259.620137 129.6 
L 216.379863 129.6 
z
" style="fill: #ffffff"/>
   </g>
   <g id="matplotlib.axis_1">
    <g id="xtick_1">
     <g id="line2d_1">
      <defs>
       <path id="m6799124bed" d="M 0 0 
L 0 3.5 
" style="stroke: #000000; stroke-width: 0.8"/>
      </defs>
      <g>
       <use xlink:href="#m6799124bed" x="297.712469" y="961.2" style="stroke: #000000; stroke-width: 0.8"/>
      </g>
     </g>
     <g id="text_1">
      <!-- 200 -->
      <g transform="translate(288.168719 975.798437) scale(0.1 -0.1)">
       <defs>
        <path id="DejaVuSans-32" d="M 1228 531 
L 3431 531 
L 3431 0 
L 469 0 
L 469 531 
Q 828 903 1448 1529 
Q 2069 2156 2228 2338 
Q 2531 2678 2651 2914 
Q 2772 3150 2772 3378 
Q 2772 3750 2511 3984 
Q 2250 4219 1831 4219 
Q 1534 4219 1204 4116 
Q 875 4013 500 3803 
L 500 4441 
Q 881 4594 1212 4672 
Q 1544 4750 1819 4750 
Q 2544 4750 2975 4387 
Q 3406 4025 3406 3419 
Q 3406 3131 3298 2873 
Q 3191 2616 2906 2266 
Q 2828 2175 2409 1742 
Q 1991 1309 1228 531 
z
" transform="scale(0.015625)"/>
        <path id="DejaVuSans-30" d="M 2034 4250 
Q 1547 4250 1301 3770 
Q 1056 3291 1056 2328 
Q 1056 1369 1301 889 
Q 1547 409 2034 409 
Q 2525 409 2770 889 
Q 3016 1369 3016 2328 
Q 3016 3291 2770 3770 
Q 2525 4250 2034 4250 
z
M 2034 4750 
Q 2819 4750 3233 4129 
Q 3647 3509 3647 2328 
Q 3647 1150 3233 529 
Q 2819 -91 2034 -91 
Q 1250 -91 836 529 
Q 422 1150 422 2328 
Q 422 3509 836 4129 
Q 1250 4750 2034 4750 
z
" transform="scale(0.015625)"/>
       </defs>
       <use xlink:href="#DejaVuSans-32"/>
       <use xlink:href="#DejaVuSans-30" x="63.623047"/>
       <use xlink:href="#DejaVuSans-30" x="127.246094"/>
      </g>
     </g>
    </g>
    <g id="xtick_2">
     <g id="line2d_2">
      <g>
       <use xlink:href="#m6799124bed" x="475.673448" y="961.2" style="stroke: #000000; stroke-width: 0.8"/>
      </g>
     </g>
     <g id="text_2">
      <!-- 400 -->
      <g transform="translate(466.129698 975.798437) scale(0.1 -0.1)">
       <defs>
        <path id="DejaVuSans-34" d="M 2419 4116 
L 825 1625 
L 2419 1625 
L 2419 4116 
z
M 2253 4666 
L 3047 4666 
L 3047 1625 
L 3713 1625 
L 3713 1100 
L 3047 1100 
L 3047 0 
L 2419 0 
L 2419 1100 
L 313 1100 
L 313 1709 
L 2253 4666 
z
" transform="scale(0.015625)"/>
       </defs>
       <use xlink:href="#DejaVuSans-34"/>
       <use xlink:href="#DejaVuSans-30" x="63.623047"/>
       <use xlink:href="#DejaVuSans-30" x="127.246094"/>
      </g>
     </g>
    </g>
    <g id="xtick_3">
     <g id="line2d_3">
      <g>
       <use xlink:href="#m6799124bed" x="653.634428" y="961.2" style="stroke: #000000; stroke-width: 0.8"/>
      </g>
     </g>
     <g id="text_3">
      <!-- 600 -->
      <g transform="translate(644.090678 975.798437) scale(0.1 -0.1)">
       <defs>
        <path id="DejaVuSans-36" d="M 2113 2584 
Q 1688 2584 1439 2293 
Q 1191 2003 1191 1497 
Q 1191 994 1439 701 
Q 1688 409 2113 409 
Q 2538 409 2786 701 
Q 3034 994 3034 1497 
Q 3034 2003 2786 2293 
Q 2538 2584 2113 2584 
z
M 3366 4563 
L 3366 3988 
Q 3128 4100 2886 4159 
Q 2644 4219 2406 4219 
Q 1781 4219 1451 3797 
Q 1122 3375 1075 2522 
Q 1259 2794 1537 2939 
Q 1816 3084 2150 3084 
Q 2853 3084 3261 2657 
Q 3669 2231 3669 1497 
Q 3669 778 3244 343 
Q 2819 -91 2113 -91 
Q 1303 -91 875 529 
Q 447 1150 447 2328 
Q 447 3434 972 4092 
Q 1497 4750 2381 4750 
Q 2619 4750 2861 4703 
Q 3103 4656 3366 4563 
z
" transform="scale(0.015625)"/>
       </defs>
       <use xlink:href="#DejaVuSans-36"/>
       <use xlink:href="#DejaVuSans-30" x="63.623047"/>
       <use xlink:href="#DejaVuSans-30" x="127.246094"/>
      </g>
     </g>
    </g>
    <g id="xtick_4">
     <g id="line2d_4">
      <g>
       <use xlink:href="#m6799124bed" x="831.595407" y="961.2" style="stroke: #000000; stroke-width: 0.8"/>
      </g>
     </g>
     <g id="text_4">
      <!-- 800 -->
      <g transform="translate(822.051657 975.798437) scale(0.1 -0.1)">
       <defs>
        <path id="DejaVuSans-38" d="M 2034 2216 
Q 1584 2216 1326 1975 
Q 1069 1734 1069 1313 
Q 1069 891 1326 650 
Q 1584 409 2034 409 
Q 2484 409 2743 651 
Q 3003 894 3003 1313 
Q 3003 1734 2745 1975 
Q 2488 2216 2034 2216 
z
M 1403 2484 
Q 997 2584 770 2862 
Q 544 3141 544 3541 
Q 544 4100 942 4425 
Q 1341 4750 2034 4750 
Q 2731 4750 3128 4425 
Q 3525 4100 3525 3541 
Q 3525 3141 3298 2862 
Q 3072 2584 2669 2484 
Q 3125 2378 3379 2068 
Q 3634 1759 3634 1313 
Q 3634 634 3220 271 
Q 2806 -91 2034 -91 
Q 1263 -91 848 271 
Q 434 634 434 1313 
Q 434 1759 690 2068 
Q 947 2378 1403 2484 
z
M 1172 3481 
Q 1172 3119 1398 2916 
Q 1625 2713 2034 2713 
Q 2441 2713 2670 2916 
Q 2900 3119 2900 3481 
Q 2900 3844 2670 4047 
Q 2441 4250 2034 4250 
Q 1625 4250 1398 4047 
Q 1172 3844 1172 3481 
z
" transform="scale(0.015625)"/>
       </defs>
       <use xlink:href="#DejaVuSans-38"/>
       <use xlink:href="#DejaVuSans-30" x="63.623047"/>
       <use xlink:href="#DejaVuSans-30" x="127.246094"/>
      </g>
     </g>
    </g>
    <g id="xtick_5">
     <g id="line2d_5">
      <g>
       <use xlink:href="#m6799124bed" x="1009.556386" y="961.2" style="stroke: #000000; stroke-width: 0.8"/>
      </g>
     </g>
     <g id="text_5">
      <!-- 1000 -->
      <g transform="translate(996.831386 975.798437) scale(0.1 -0.1)">
       <defs>
        <path id="DejaVuSans-31" d="M 794 531 
L 1825 531 
L 1825 4091 
L 703 3866 
L 703 4441 
L 1819 4666 
L 2450 4666 
L 2450 531 
L 3481 531 
L 3481 0 
L 794 0 
L 794 531 
z
" transform="scale(0.015625)"/>
       </defs>
       <use xlink:href="#DejaVuSans-31"/>
       <use xlink:href="#DejaVuSans-30" x="63.623047"/>
       <use xlink:href="#DejaVuSans-30" x="127.246094"/>
       <use xlink:href="#DejaVuSans-30" x="190.869141"/>
      </g>
     </g>
    </g>
    <g id="xtick_6">
     <g id="line2d_6">
      <g>
       <use xlink:href="#m6799124bed" x="1187.517365" y="961.2" style="stroke: #000000; stroke-width: 0.8"/>
      </g>
     </g>
     <g id="text_6">
      <!-- 1200 -->
      <g transform="translate(1174.792365 975.798437) scale(0.1 -0.1)">
       <use xlink:href="#DejaVuSans-31"/>
       <use xlink:href="#DejaVuSans-32" x="63.623047"/>
       <use xlink:href="#DejaVuSans-30" x="127.246094"/>
       <use xlink:href="#DejaVuSans-30" x="190.869141"/>
      </g>
     </g>
    </g>
   </g>
   <g id="matplotlib.axis_2">
    <g id="ytick_1">
     <g id="line2d_7">
      <defs>
       <path id="m35440d1327" d="M 0 0 
L -3.5 0 
" style="stroke: #000000; stroke-width: 0.8"/>
      </defs>
      <g>
       <use xlink:href="#m35440d1327" x="216.379863" y="895.607747" style="stroke: #000000; stroke-width: 0.8"/>
      </g>
     </g>
     <g id="text_7">
      <!-- 400 -->
      <g transform="translate(190.292363 899.406966) scale(0.1 -0.1)">
       <use xlink:href="#DejaVuSans-34"/>
       <use xlink:href="#DejaVuSans-30" x="63.623047"/>
       <use xlink:href="#DejaVuSans-30" x="127.246094"/>
      </g>
     </g>
    </g>
    <g id="ytick_2">
     <g id="line2d_8">
      <g>
       <use xlink:href="#m35440d1327" x="216.379863" y="717.646768" style="stroke: #000000; stroke-width: 0.8"/>
      </g>
     </g>
     <g id="text_8">
      <!-- 600 -->
      <g transform="translate(190.292363 721.445987) scale(0.1 -0.1)">
       <use xlink:href="#DejaVuSans-36"/>
       <use xlink:href="#DejaVuSans-30" x="63.623047"/>
       <use xlink:href="#DejaVuSans-30" x="127.246094"/>
      </g>
     </g>
    </g>
    <g id="ytick_3">
     <g id="line2d_9">
      <g>
       <use xlink:href="#m35440d1327" x="216.379863" y="539.685789" style="stroke: #000000; stroke-width: 0.8"/>
      </g>
     </g>
     <g id="text_9">
      <!-- 800 -->
      <g transform="translate(190.292363 543.485007) scale(0.1 -0.1)">
       <use xlink:href="#DejaVuSans-38"/>
       <use xlink:href="#DejaVuSans-30" x="63.623047"/>
       <use xlink:href="#DejaVuSans-30" x="127.246094"/>
      </g>
     </g>
    </g>
    <g id="ytick_4">
     <g id="line2d_10">
      <g>
       <use xlink:href="#m35440d1327" x="216.379863" y="361.724809" style="stroke: #000000; stroke-width: 0.8"/>
      </g>
     </g>
     <g id="text_10">
      <!-- 1000 -->
      <g transform="translate(183.929863 365.524028) scale(0.1 -0.1)">
       <use xlink:href="#DejaVuSans-31"/>
       <use xlink:href="#DejaVuSans-30" x="63.623047"/>
       <use xlink:href="#DejaVuSans-30" x="127.246094"/>
       <use xlink:href="#DejaVuSans-30" x="190.869141"/>
      </g>
     </g>
    </g>
    <g id="ytick_5">
     <g id="line2d_11">
      <g>
       <use xlink:href="#m35440d1327" x="216.379863" y="183.76383" style="stroke: #000000; stroke-width: 0.8"/>
      </g>
     </g>
     <g id="text_11">
      <!-- 1200 -->
      <g transform="translate(183.929863 187.563049) scale(0.1 -0.1)">
       <use xlink:href="#DejaVuSans-31"/>
       <use xlink:href="#DejaVuSans-32" x="63.623047"/>
       <use xlink:href="#DejaVuSans-30" x="127.246094"/>
       <use xlink:href="#DejaVuSans-30" x="190.869141"/>
      </g>
     </g>
    </g>
   </g>
   <g id="LineCollection_1">
    <path d="M 1200.206412 857.354655 
L 1175.592241 864.898285 
L 1152.850242 870.935094 
L 1131.588379 875.635207 
L 1111.751328 879.067184 
L 1093.283699 881.301338 
L 1076.128597 882.409917 
L 1060.225897 882.466818 
L 1045.510395 881.546626 
L 1031.910224 879.722796 
L 1019.346066 877.065024 
L 1007.731758 873.636172 
L 996.976656 869.48949 
L 986.98956 864.667073 
L 977.683397 859.200261 
L 968.979407 853.112069 
L 960.809758 846.420971 
L 953.118109 839.144961 
L 945.858374 831.304839 
L 938.99242 822.926194 
L 932.487483 814.040044 
L 926.313891 804.68245 
L 920.443348 794.893554 
L 914.847843 784.716388 
L 909.49905 774.19572 
L 904.368118 763.377054 
L 899.425681 752.305818 
L 894.64201 741.026753 
L 889.987232 729.583453 
L 880.945522 706.370899 
L 863.102133 659.632975 
L 858.535882 648.088956 
L 853.879182 636.66464 
L 849.109618 625.386132 
L 844.206435 614.277519 
L 839.150699 603.360912 
L 833.925475 592.656477 
L 828.516012 582.182459 
L 822.909953 571.955188 
L 817.097534 561.989036 
L 811.07179 552.296344 
L 804.828715 542.887289 
L 798.36739 533.769702 
L 791.690033 524.94885 
L 784.80196 516.427193 
L 777.711462 508.204148 
L 770.429578 500.275881 
L 762.969797 492.635175 
L 755.347701 485.271376 
L 747.580577 478.170438 
L 739.687037 471.315069 
L 731.686647 464.684968 
L 723.599601 458.257124 
L 715.446426 452.006172 
L 707.24772 445.904766 
L 690.795032 434.033578 
L 666.210171 416.550459 
L 650.104545 404.751094 
L 642.187616 398.717803 
L 634.375888 392.554135 
L 626.677127 386.229964 
L 619.096294 379.716048 
L 611.635412 372.984266 
L 604.29349 366.007937 
L 597.066487 358.762276 
L 589.947276 351.224992 
L 582.925545 343.377045 
L 575.9876 335.203526 
L 569.115988 326.694635 
L 562.288939 317.846693 
L 555.479578 308.663144 
L 548.654935 299.155503 
L 534.788671 279.257908 
L 520.165074 258.320623 
L 512.397493 247.636928 
L 504.188222 236.913407 
L 495.408614 226.251459 
L 485.907882 215.778683 
L 475.514738 205.658224 
L 464.045322 196.100213 
L 453.184246 188.527211 
L 451.320558 187.371001 
L 439.421531 180.844741 
L 437.191656 179.791203 
L 424.078462 174.537073 
L 421.561869 173.713286 
L 407.040686 169.98051 
L 404.3838 169.481879 
L 388.24216 167.544957 
L 385.621694 167.4 
L 367.627401 167.560197 
L 365.197207 167.726804 
L 345.097225 170.313691 
L 342.952206 170.706904 
L 318.643819 176.607683 
L 291.961035 185.744245 
L 263.799875 197.89583 
L 263.799875 197.89583 
" clip-path="url(#p631e2e6e8d)" style="fill: none; stroke: #1f77b4; stroke-width: 1.5"/>
    <path d="M 1206.203268 876.921844 
L 1181.218033 884.579197 
L 1157.686419 890.825607 
L 1135.543645 895.720453 
L 1114.726661 899.321966 
L 1095.174013 901.687383 
L 1076.825732 902.873066 
L 1059.623224 902.934618 
L 1043.509182 901.926972 
L 1028.427502 899.904466 
L 1014.323223 896.920904 
L 1001.142465 893.029594 
L 988.832389 888.283384 
L 977.341157 882.734673 
L 966.617912 876.435411 
L 956.612761 869.437093 
L 947.276765 861.790735 
L 938.561942 853.546842 
L 930.421277 844.755362 
L 922.808732 835.46564 
L 915.679275 825.726354 
L 908.988898 815.585448 
L 902.69466 805.090055 
L 896.754715 794.286419 
L 891.12836 783.219808 
L 885.776078 771.93442 
L 880.659584 760.473291 
L 875.741879 748.878197 
L 870.987303 737.189552 
L 866.361583 725.446305 
L 861.831895 713.685841 
L 857.366917 701.943876 
L 852.93688 690.254353 
L 848.513628 678.649346 
L 844.070665 667.158958 
L 839.583211 655.811228 
L 835.028246 644.632036 
L 830.384556 633.645022 
L 825.632778 622.871498 
L 820.755432 612.33038 
L 815.736958 602.038111 
L 810.563741 592.008607 
L 805.224134 582.253199 
L 799.708474 572.780597 
L 794.009086 563.596847 
L 788.120291 554.705318 
L 782.038393 546.106681 
L 775.761665 537.79892 
L 769.290324 529.777338 
L 762.6265 522.03459 
L 755.774184 514.560721 
L 748.739181 507.343226 
L 741.529034 500.367126 
L 734.152953 493.615052 
L 726.62172 487.067361 
L 718.947585 480.702255 
L 711.144149 474.495933 
L 703.226231 468.422751 
L 695.209723 462.455412 
L 687.111426 456.565172 
L 678.948874 450.72207 
L 670.740139 444.895182 
L 662.50362 439.052894 
L 654.257819 433.163208 
L 646.021087 427.194063 
L 637.811366 421.113692 
L 629.6459 414.890997 
L 621.540937 408.495959 
L 613.511399 401.90007 
L 605.570542 395.0768 
L 597.729589 388.002089 
L 589.997342 380.654872 
L 582.379771 373.017633 
L 574.879582 365.076999 
L 567.49576 356.824354 
L 560.223088 348.256498 
L 553.051644 339.376334 
L 545.966265 330.193595 
L 538.945998 320.725602 
L 531.963509 310.998061 
L 524.984482 301.045901 
L 517.966977 290.914143 
L 510.860765 280.658814 
L 503.606637 270.347899 
L 496.135682 260.062333 
L 488.36853 249.897034 
L 480.214578 239.961982 
L 471.571168 230.383334 
L 462.322751 221.304587 
L 452.340004 212.88779 
L 441.478928 205.314789 
L 429.579901 198.788529 
L 416.466707 193.534399 
L 401.945524 189.801624 
L 385.803885 187.864702 
L 367.809592 188.024899 
L 347.70961 190.611786 
L 325.228911 195.984828 
L 300.069287 204.535026 
L 271.908127 216.686611 
" clip-path="url(#p631e2e6e8d)" style="fill: none; stroke: #8c564b; stroke-width: 1.5"/>
    <path d="M 1212.200125 896.489034 
L 1186.468714 904.359681 
L 1162.103847 910.808688 
L 1139.032522 915.886388 
L 1117.184592 919.639343 
L 1096.493761 922.110299 
L 1076.898959 923.338448 
L 1058.345966 923.360235 
L 1040.789035 922.210907 
L 1024.192036 919.926905 
L 1008.528515 916.548908 
L 993.780149 912.124973 
L 979.933439 906.712869 
L 966.975159 900.380729 
L 954.887661 893.205575 
L 943.645287 885.270028 
L 933.212739 876.658162 
L 923.5455 867.451649 
L 914.591756 857.727003 
L 906.29499 847.554209 
L 898.596535 836.996546 
L 891.437655 826.111181 
L 884.761012 814.95015 
L 878.511571 803.561381 
L 872.63707 791.989609 
L 867.088193 780.277092 
L 861.818573 768.46413 
L 856.784698 756.589388 
L 851.945792 744.690092 
L 842.70271 720.95987 
L 825.010535 674.612462 
L 820.590634 663.435559 
L 816.125647 652.4772 
L 811.595426 641.758653 
L 806.981913 631.298613 
L 802.269063 621.113009 
L 797.442744 611.214827 
L 792.490613 601.61395 
L 787.401966 592.317043 
L 782.167562 583.327471 
L 776.779445 574.64529 
L 771.230763 566.267298 
L 765.515607 558.187165 
L 759.628902 550.395631 
L 753.566346 542.88076 
L 747.324432 535.628232 
L 740.900535 528.621643 
L 734.293075 521.842783 
L 727.501712 515.271873 
L 720.527573 508.887738 
L 713.373462 502.667918 
L 706.044035 496.58872 
L 698.545918 490.625228 
L 690.887768 484.751292 
L 675.136014 473.161337 
L 633.84062 443.640139 
L 625.40663 437.391276 
L 616.96898 430.957512 
L 608.550438 424.310008 
L 600.173674 417.422387 
L 591.860732 410.271481 
L 583.632382 402.838058 
L 575.507395 395.107505 
L 567.50173 387.07043 
L 559.627723 378.723171 
L 551.893293 370.068229 
L 544.301251 361.114658 
L 536.848738 351.878456 
L 529.52682 342.38301 
L 522.320253 332.659663 
L 515.207413 322.748399 
L 501.144086 302.56865 
L 486.957407 282.250176 
L 479.723143 272.290473 
L 472.322922 262.605397 
L 464.699195 253.316389 
L 456.792256 244.553899 
L 448.53869 236.451753 
L 439.865197 229.138832 
L 430.674433 222.730474 
L 420.821412 217.326387 
L 410.086546 213.025194 
L 398.162304 209.959981 
L 384.671185 208.341109 
L 369.211846 208.478739 
L 351.404994 210.770498 
L 330.912435 215.668361 
L 307.427659 223.649382 
L 280.016379 235.477393 
L 280.016379 235.477393 
" clip-path="url(#p631e2e6e8d)" style="fill: none; stroke: #17becf; stroke-width: 1.5"/>
   </g>
   <g id="patch_3">
    <path d="M 216.379863 961.2 
L 216.379863 129.6 
" style="fill: none; stroke: #000000; stroke-width: 0.8; stroke-linejoin: miter; stroke-linecap: square"/>
   </g>
   <g id="patch_4">
    <path d="M 1259.620137 961.2 
L 1259.620137 129.6 
" style="fill: none; stroke: #000000; stroke-width: 0.8; stroke-linejoin: miter; stroke-linecap: square"/>
   </g>
   <g id="patch_5">
    <path d="M 216.379863 961.2 
L 1259.620137 961.2 
" style="fill: none; stroke: #000000; stroke-width: 0.8; stroke-linejoin: miter; stroke-linecap: square"/>
   </g>
   <g id="patch_6">
    <path d="M 216.379863 129.6 
L 1259.620137 129.6 
" style="fill: none; stroke: #000000; stroke-width: 0.8; stroke-linejoin: miter; stroke-linecap: square"/>
   </g>
  </g>
 </g>
 <defs>
  <clipPath id="p631e2e6e8d">
   <rect x="216.379863" y="129.6" width="1043.240275" height="831.6"/>
  </clipPath>
 </defs>
</svg>
