<?xml version="1.0" encoding="utf-8" standalone="no"?>
<!DOCTYPE svg PUBLIC "-//W3C//DTD SVG 1.1//EN"
  "http://www.w3.org/Graphics/SVG/1.1/DTD/svg11.dtd">
<svg xmlns:xlink="http://www.w3.org/1999/xlink" width="1440pt" height="1080pt" viewBox="0 0 1440 1080" xmlns="http://www.w3.org/2000/svg" version="1.1">
 <metadata>
  <rdf:RDF xmlns:dc="http://purl.org/dc/elements/1.1/" xmlns:cc="http://creativecommons.org/ns#" xmlns:rdf="http://www.w3.org/1999/02/22-rdf-syntax-ns#">
   <cc:Work>
    <dc:type rdf:resource="http://purl.org/dc/dcmitype/StillImage"/>
    <dc:date>2023-12-11T12:06:38.482451</dc:date>
    <dc:format>image/svg+xml</dc:format>
    <dc:creator>
     <cc:Agent>
      <dc:title>Matplotlib v3.7.1, https://matplotlib.org/</dc:title>
     </cc:Agent>
    </dc:creator>
   </cc:Work>
  </rdf:RDF>
 </metadata>
 <defs>
  <style type="text/css">*{stroke-linejoin: round; stroke-linecap: butt}</style>
 </defs>
 <g id="figure_1">
  <g id="patch_1">
   <path d="M 0 1080 
L 1440 1080 
L 1440 0 
L 0 0 
z
" style="fill: #ffffff"/>
  </g>
  <g id="axes_1">
   <g id="patch_2">
    <path d="M 454.853616 961.2 
L 1021.146384 961.2 
L 1021.146384 129.6 
L 454.853616 129.6 
z
" style="fill: #ffffff"/>
   </g>
   <g id="matplotlib.axis_1">
    <g id="xtick_1">
     <g id="line2d_1">
      <defs>
       <path id="mb000a6d40b" d="M 0 0 
L 0 3.5 
" style="stroke: #000000; stroke-width: 0.8"/>
      </defs>
      <g>
       <use xlink:href="#mb000a6d40b" x="532.006358" y="961.2" style="stroke: #000000; stroke-width: 0.8"/>
      </g>
     </g>
     <g id="text_1">
      <!-- 1300 -->
      <g transform="translate(519.281358 975.798437) scale(0.1 -0.1)">
       <defs>
        <path id="DejaVuSans-31" d="M 794 531 
L 1825 531 
L 1825 4091 
L 703 3866 
L 703 4441 
L 1819 4666 
L 2450 4666 
L 2450 531 
L 3481 531 
L 3481 0 
L 794 0 
L 794 531 
z
" transform="scale(0.015625)"/>
        <path id="DejaVuSans-33" d="M 2597 2516 
Q 3050 2419 3304 2112 
Q 3559 1806 3559 1356 
Q 3559 666 3084 287 
Q 2609 -91 1734 -91 
Q 1441 -91 1130 -33 
Q 819 25 488 141 
L 488 750 
Q 750 597 1062 519 
Q 1375 441 1716 441 
Q 2309 441 2620 675 
Q 2931 909 2931 1356 
Q 2931 1769 2642 2001 
Q 2353 2234 1838 2234 
L 1294 2234 
L 1294 2753 
L 1863 2753 
Q 2328 2753 2575 2939 
Q 2822 3125 2822 3475 
Q 2822 3834 2567 4026 
Q 2313 4219 1838 4219 
Q 1578 4219 1281 4162 
Q 984 4106 628 3988 
L 628 4550 
Q 988 4650 1302 4700 
Q 1616 4750 1894 4750 
Q 2613 4750 3031 4423 
Q 3450 4097 3450 3541 
Q 3450 3153 3228 2886 
Q 3006 2619 2597 2516 
z
" transform="scale(0.015625)"/>
        <path id="DejaVuSans-30" d="M 2034 4250 
Q 1547 4250 1301 3770 
Q 1056 3291 1056 2328 
Q 1056 1369 1301 889 
Q 1547 409 2034 409 
Q 2525 409 2770 889 
Q 3016 1369 3016 2328 
Q 3016 3291 2770 3770 
Q 2525 4250 2034 4250 
z
M 2034 4750 
Q 2819 4750 3233 4129 
Q 3647 3509 3647 2328 
Q 3647 1150 3233 529 
Q 2819 -91 2034 -91 
Q 1250 -91 836 529 
Q 422 1150 422 2328 
Q 422 3509 836 4129 
Q 1250 4750 2034 4750 
z
" transform="scale(0.015625)"/>
       </defs>
       <use xlink:href="#DejaVuSans-31"/>
       <use xlink:href="#DejaVuSans-33" x="63.623047"/>
       <use xlink:href="#DejaVuSans-30" x="127.246094"/>
       <use xlink:href="#DejaVuSans-30" x="190.869141"/>
      </g>
     </g>
    </g>
    <g id="xtick_2">
     <g id="line2d_2">
      <g>
       <use xlink:href="#mb000a6d40b" x="644.285426" y="961.2" style="stroke: #000000; stroke-width: 0.8"/>
      </g>
     </g>
     <g id="text_2">
      <!-- 1400 -->
      <g transform="translate(631.560426 975.798437) scale(0.1 -0.1)">
       <defs>
        <path id="DejaVuSans-34" d="M 2419 4116 
L 825 1625 
L 2419 1625 
L 2419 4116 
z
M 2253 4666 
L 3047 4666 
L 3047 1625 
L 3713 1625 
L 3713 1100 
L 3047 1100 
L 3047 0 
L 2419 0 
L 2419 1100 
L 313 1100 
L 313 1709 
L 2253 4666 
z
" transform="scale(0.015625)"/>
       </defs>
       <use xlink:href="#DejaVuSans-31"/>
       <use xlink:href="#DejaVuSans-34" x="63.623047"/>
       <use xlink:href="#DejaVuSans-30" x="127.246094"/>
       <use xlink:href="#DejaVuSans-30" x="190.869141"/>
      </g>
     </g>
    </g>
    <g id="xtick_3">
     <g id="line2d_3">
      <g>
       <use xlink:href="#mb000a6d40b" x="756.564493" y="961.2" style="stroke: #000000; stroke-width: 0.8"/>
      </g>
     </g>
     <g id="text_3">
      <!-- 1500 -->
      <g transform="translate(743.839493 975.798437) scale(0.1 -0.1)">
       <defs>
        <path id="DejaVuSans-35" d="M 691 4666 
L 3169 4666 
L 3169 4134 
L 1269 4134 
L 1269 2991 
Q 1406 3038 1543 3061 
Q 1681 3084 1819 3084 
Q 2600 3084 3056 2656 
Q 3513 2228 3513 1497 
Q 3513 744 3044 326 
Q 2575 -91 1722 -91 
Q 1428 -91 1123 -41 
Q 819 9 494 109 
L 494 744 
Q 775 591 1075 516 
Q 1375 441 1709 441 
Q 2250 441 2565 725 
Q 2881 1009 2881 1497 
Q 2881 1984 2565 2268 
Q 2250 2553 1709 2553 
Q 1456 2553 1204 2497 
Q 953 2441 691 2322 
L 691 4666 
z
" transform="scale(0.015625)"/>
       </defs>
       <use xlink:href="#DejaVuSans-31"/>
       <use xlink:href="#DejaVuSans-35" x="63.623047"/>
       <use xlink:href="#DejaVuSans-30" x="127.246094"/>
       <use xlink:href="#DejaVuSans-30" x="190.869141"/>
      </g>
     </g>
    </g>
    <g id="xtick_4">
     <g id="line2d_4">
      <g>
       <use xlink:href="#mb000a6d40b" x="868.843561" y="961.2" style="stroke: #000000; stroke-width: 0.8"/>
      </g>
     </g>
     <g id="text_4">
      <!-- 1600 -->
      <g transform="translate(856.118561 975.798437) scale(0.1 -0.1)">
       <defs>
        <path id="DejaVuSans-36" d="M 2113 2584 
Q 1688 2584 1439 2293 
Q 1191 2003 1191 1497 
Q 1191 994 1439 701 
Q 1688 409 2113 409 
Q 2538 409 2786 701 
Q 3034 994 3034 1497 
Q 3034 2003 2786 2293 
Q 2538 2584 2113 2584 
z
M 3366 4563 
L 3366 3988 
Q 3128 4100 2886 4159 
Q 2644 4219 2406 4219 
Q 1781 4219 1451 3797 
Q 1122 3375 1075 2522 
Q 1259 2794 1537 2939 
Q 1816 3084 2150 3084 
Q 2853 3084 3261 2657 
Q 3669 2231 3669 1497 
Q 3669 778 3244 343 
Q 2819 -91 2113 -91 
Q 1303 -91 875 529 
Q 447 1150 447 2328 
Q 447 3434 972 4092 
Q 1497 4750 2381 4750 
Q 2619 4750 2861 4703 
Q 3103 4656 3366 4563 
z
" transform="scale(0.015625)"/>
       </defs>
       <use xlink:href="#DejaVuSans-31"/>
       <use xlink:href="#DejaVuSans-36" x="63.623047"/>
       <use xlink:href="#DejaVuSans-30" x="127.246094"/>
       <use xlink:href="#DejaVuSans-30" x="190.869141"/>
      </g>
     </g>
    </g>
    <g id="xtick_5">
     <g id="line2d_5">
      <g>
       <use xlink:href="#mb000a6d40b" x="981.122628" y="961.2" style="stroke: #000000; stroke-width: 0.8"/>
      </g>
     </g>
     <g id="text_5">
      <!-- 1700 -->
      <g transform="translate(968.397628 975.798437) scale(0.1 -0.1)">
       <defs>
        <path id="DejaVuSans-37" d="M 525 4666 
L 3525 4666 
L 3525 4397 
L 1831 0 
L 1172 0 
L 2766 4134 
L 525 4134 
L 525 4666 
z
" transform="scale(0.015625)"/>
       </defs>
       <use xlink:href="#DejaVuSans-31"/>
       <use xlink:href="#DejaVuSans-37" x="63.623047"/>
       <use xlink:href="#DejaVuSans-30" x="127.246094"/>
       <use xlink:href="#DejaVuSans-30" x="190.869141"/>
      </g>
     </g>
    </g>
   </g>
   <g id="matplotlib.axis_2">
    <g id="ytick_1">
     <g id="line2d_6">
      <defs>
       <path id="mb2226fe44f" d="M 0 0 
L -3.5 0 
" style="stroke: #000000; stroke-width: 0.8"/>
      </defs>
      <g>
       <use xlink:href="#mb2226fe44f" x="454.853616" y="932.56359" style="stroke: #000000; stroke-width: 0.8"/>
      </g>
     </g>
     <g id="text_6">
      <!-- 400 -->
      <g transform="translate(428.766116 936.362808) scale(0.1 -0.1)">
       <use xlink:href="#DejaVuSans-34"/>
       <use xlink:href="#DejaVuSans-30" x="63.623047"/>
       <use xlink:href="#DejaVuSans-30" x="127.246094"/>
      </g>
     </g>
    </g>
    <g id="ytick_2">
     <g id="line2d_7">
      <g>
       <use xlink:href="#mb2226fe44f" x="454.853616" y="820.284522" style="stroke: #000000; stroke-width: 0.8"/>
      </g>
     </g>
     <g id="text_7">
      <!-- 500 -->
      <g transform="translate(428.766116 824.083741) scale(0.1 -0.1)">
       <use xlink:href="#DejaVuSans-35"/>
       <use xlink:href="#DejaVuSans-30" x="63.623047"/>
       <use xlink:href="#DejaVuSans-30" x="127.246094"/>
      </g>
     </g>
    </g>
    <g id="ytick_3">
     <g id="line2d_8">
      <g>
       <use xlink:href="#mb2226fe44f" x="454.853616" y="708.005455" style="stroke: #000000; stroke-width: 0.8"/>
      </g>
     </g>
     <g id="text_8">
      <!-- 600 -->
      <g transform="translate(428.766116 711.804673) scale(0.1 -0.1)">
       <use xlink:href="#DejaVuSans-36"/>
       <use xlink:href="#DejaVuSans-30" x="63.623047"/>
       <use xlink:href="#DejaVuSans-30" x="127.246094"/>
      </g>
     </g>
    </g>
    <g id="ytick_4">
     <g id="line2d_9">
      <g>
       <use xlink:href="#mb2226fe44f" x="454.853616" y="595.726387" style="stroke: #000000; stroke-width: 0.8"/>
      </g>
     </g>
     <g id="text_9">
      <!-- 700 -->
      <g transform="translate(428.766116 599.525606) scale(0.1 -0.1)">
       <use xlink:href="#DejaVuSans-37"/>
       <use xlink:href="#DejaVuSans-30" x="63.623047"/>
       <use xlink:href="#DejaVuSans-30" x="127.246094"/>
      </g>
     </g>
    </g>
    <g id="ytick_5">
     <g id="line2d_10">
      <g>
       <use xlink:href="#mb2226fe44f" x="454.853616" y="483.44732" style="stroke: #000000; stroke-width: 0.8"/>
      </g>
     </g>
     <g id="text_10">
      <!-- 800 -->
      <g transform="translate(428.766116 487.246538) scale(0.1 -0.1)">
       <defs>
        <path id="DejaVuSans-38" d="M 2034 2216 
Q 1584 2216 1326 1975 
Q 1069 1734 1069 1313 
Q 1069 891 1326 650 
Q 1584 409 2034 409 
Q 2484 409 2743 651 
Q 3003 894 3003 1313 
Q 3003 1734 2745 1975 
Q 2488 2216 2034 2216 
z
M 1403 2484 
Q 997 2584 770 2862 
Q 544 3141 544 3541 
Q 544 4100 942 4425 
Q 1341 4750 2034 4750 
Q 2731 4750 3128 4425 
Q 3525 4100 3525 3541 
Q 3525 3141 3298 2862 
Q 3072 2584 2669 2484 
Q 3125 2378 3379 2068 
Q 3634 1759 3634 1313 
Q 3634 634 3220 271 
Q 2806 -91 2034 -91 
Q 1263 -91 848 271 
Q 434 634 434 1313 
Q 434 1759 690 2068 
Q 947 2378 1403 2484 
z
M 1172 3481 
Q 1172 3119 1398 2916 
Q 1625 2713 2034 2713 
Q 2441 2713 2670 2916 
Q 2900 3119 2900 3481 
Q 2900 3844 2670 4047 
Q 2441 4250 2034 4250 
Q 1625 4250 1398 4047 
Q 1172 3844 1172 3481 
z
" transform="scale(0.015625)"/>
       </defs>
       <use xlink:href="#DejaVuSans-38"/>
       <use xlink:href="#DejaVuSans-30" x="63.623047"/>
       <use xlink:href="#DejaVuSans-30" x="127.246094"/>
      </g>
     </g>
    </g>
    <g id="ytick_6">
     <g id="line2d_11">
      <g>
       <use xlink:href="#mb2226fe44f" x="454.853616" y="371.168252" style="stroke: #000000; stroke-width: 0.8"/>
      </g>
     </g>
     <g id="text_11">
      <!-- 900 -->
      <g transform="translate(428.766116 374.967471) scale(0.1 -0.1)">
       <defs>
        <path id="DejaVuSans-39" d="M 703 97 
L 703 672 
Q 941 559 1184 500 
Q 1428 441 1663 441 
Q 2288 441 2617 861 
Q 2947 1281 2994 2138 
Q 2813 1869 2534 1725 
Q 2256 1581 1919 1581 
Q 1219 1581 811 2004 
Q 403 2428 403 3163 
Q 403 3881 828 4315 
Q 1253 4750 1959 4750 
Q 2769 4750 3195 4129 
Q 3622 3509 3622 2328 
Q 3622 1225 3098 567 
Q 2575 -91 1691 -91 
Q 1453 -91 1209 -44 
Q 966 3 703 97 
z
M 1959 2075 
Q 2384 2075 2632 2365 
Q 2881 2656 2881 3163 
Q 2881 3666 2632 3958 
Q 2384 4250 1959 4250 
Q 1534 4250 1286 3958 
Q 1038 3666 1038 3163 
Q 1038 2656 1286 2365 
Q 1534 2075 1959 2075 
z
" transform="scale(0.015625)"/>
       </defs>
       <use xlink:href="#DejaVuSans-39"/>
       <use xlink:href="#DejaVuSans-30" x="63.623047"/>
       <use xlink:href="#DejaVuSans-30" x="127.246094"/>
      </g>
     </g>
    </g>
    <g id="ytick_7">
     <g id="line2d_12">
      <g>
       <use xlink:href="#mb2226fe44f" x="454.853616" y="258.889185" style="stroke: #000000; stroke-width: 0.8"/>
      </g>
     </g>
     <g id="text_12">
      <!-- 1000 -->
      <g transform="translate(422.403616 262.688403) scale(0.1 -0.1)">
       <use xlink:href="#DejaVuSans-31"/>
       <use xlink:href="#DejaVuSans-30" x="63.623047"/>
       <use xlink:href="#DejaVuSans-30" x="127.246094"/>
       <use xlink:href="#DejaVuSans-30" x="190.869141"/>
      </g>
     </g>
    </g>
    <g id="ytick_8">
     <g id="line2d_13">
      <g>
       <use xlink:href="#mb2226fe44f" x="454.853616" y="146.610117" style="stroke: #000000; stroke-width: 0.8"/>
      </g>
     </g>
     <g id="text_13">
      <!-- 1100 -->
      <g transform="translate(422.403616 150.409336) scale(0.1 -0.1)">
       <use xlink:href="#DejaVuSans-31"/>
       <use xlink:href="#DejaVuSans-31" x="63.623047"/>
       <use xlink:href="#DejaVuSans-30" x="127.246094"/>
       <use xlink:href="#DejaVuSans-30" x="190.869141"/>
      </g>
     </g>
    </g>
   </g>
   <g id="LineCollection_1">
    <path d="M 929.826093 167.4 
L 926.435379 180.840073 
L 924.3589 194.556039 
L 923.434405 208.482435 
L 923.510265 222.566644 
L 924.446321 236.763056 
L 926.112932 251.029292 
L 928.389522 265.324181 
L 931.163226 279.606863 
L 934.327851 293.836554 
L 937.783131 307.972603 
L 941.434242 321.974693 
L 948.970201 349.418655 
L 956.289725 375.90567 
L 959.679579 388.684321 
L 962.800707 401.105609 
L 965.593339 413.136423 
L 968.003225 424.74483 
L 969.982018 435.900163 
L 971.487755 446.573214 
L 972.485466 456.73667 
L 972.947835 466.365916 
L 972.855778 475.440418 
L 972.198621 483.945832 
L 970.973379 491.876809 
L 969.182504 499.240046 
L 966.829742 506.056462 
L 963.914537 512.360864 
L 960.42678 518.197779 
L 956.34454 523.613813 
L 951.636587 528.649128 
L 946.269035 533.331576 
L 940.213122 537.675583 
L 933.451017 541.685181 
L 925.978239 545.358905 
L 917.803183 548.694384 
L 908.945052 551.691529 
L 899.431414 554.354221 
L 889.296032 556.690879 
L 878.577218 558.714362 
L 867.31668 560.441565 
L 855.558745 561.89291 
L 843.349857 563.091837 
L 830.738225 564.064359 
L 817.773568 564.838668 
L 804.506904 565.444805 
L 777.276965 566.280322 
L 707.603051 567.777535 
L 693.827791 568.264609 
L 680.231245 568.901147 
L 666.864209 569.725066 
L 653.775739 570.774597 
L 641.012795 572.088382 
L 628.619922 573.70566 
L 616.639039 575.666582 
L 605.109443 578.012623 
L 594.068188 580.787077 
L 583.551073 584.035468 
L 573.594482 587.805537 
L 564.238201 592.146174 
L 555.52887 597.104366 
L 547.522767 602.719358 
L 540.285474 609.014302 
L 533.88582 615.988038 
L 528.383911 623.611863 
L 523.817594 631.835121 
L 520.194211 640.598197 
L 517.491449 649.846234 
L 515.66497 659.537135 
L 514.657411 669.642154 
L 514.404766 680.141669 
L 514.839198 691.019521 
L 515.889194 702.258072 
L 517.478336 713.834651 
L 519.523616 725.719243 
L 521.933794 737.872984 
L 524.607982 750.247096 
L 533.060025 788.132788 
L 535.565555 800.728091 
L 537.657476 813.123589 
L 539.167834 825.187491 
L 539.925113 836.767417 
L 539.763673 847.692069 
L 538.537324 857.783665 
L 536.128426 866.893688 
L 532.423236 874.965925 
L 527.216921 882.078311 
L 520.095338 888.360769 
L 510.454946 893.808255 
L 497.678625 898.199076 
L 480.594196 901.306715 
L 480.594196 901.306715 
" clip-path="url(#pc7622eb21e)" style="fill: none; stroke: #1f77b4; stroke-width: 1.5"/>
    <path d="M 940.702164 170.188721 
L 937.531856 182.552985 
L 935.560561 195.323301 
L 934.662226 208.438562 
L 934.714589 221.839324 
L 935.599277 235.46789 
L 937.201895 249.268386 
L 939.412119 263.186836 
L 942.123773 277.171231 
L 945.234908 291.171594 
L 948.647868 305.140045 
L 952.269356 319.030852 
L 956.010491 332.800491 
L 959.786854 346.40769 
L 963.51854 359.813475 
L 967.130189 372.981213 
L 970.551021 385.876642 
L 973.714861 398.46791 
L 976.560155 410.725596 
L 979.029982 422.622736 
L 981.072061 434.134841 
L 982.638746 445.23991 
L 983.68702 455.91844 
L 984.178475 466.153429 
L 984.079292 475.930379 
L 983.360209 485.237289 
L 981.996486 494.064648 
L 979.967857 502.405416 
L 977.258481 510.255014 
L 973.856881 517.611292 
L 969.755875 524.474506 
L 964.952508 530.847281 
L 959.447964 536.734578 
L 953.247477 542.143647 
L 946.360236 547.083979 
L 938.79928 551.567256 
L 930.58138 555.607293 
L 921.726925 559.219971 
L 912.259785 562.423174 
L 902.207182 565.236713 
L 891.599538 567.682248 
L 880.470323 569.783206 
L 868.855898 571.564691 
L 856.795336 573.05339 
L 844.33025 574.277476 
L 831.504605 575.266502 
L 818.364518 576.051288 
L 804.958059 576.663812 
L 791.335034 577.137085 
L 777.546763 577.505026 
L 763.645854 577.802331 
L 749.685955 578.064336 
L 735.721514 578.326871 
L 721.807515 578.626117 
L 707.999213 578.99845 
L 694.351859 579.480279 
L 680.920414 580.107883 
L 667.759253 580.917241 
L 654.921861 581.943854 
L 642.460521 583.222562 
L 630.425991 584.787357 
L 618.867169 586.671187 
L 607.83075 588.905757 
L 597.360878 591.521325 
L 587.49878 594.546486 
L 578.282395 598.007956 
L 569.745995 601.93035 
L 561.919786 606.335947 
L 554.829514 611.244459 
L 548.496047 616.672786 
L 542.934957 622.634767 
L 538.156083 629.140928 
L 534.163089 636.198217 
L 530.953015 643.809742 
L 528.515804 651.974494 
L 526.833835 660.687066 
L 525.881436 669.937371 
L 525.624385 679.710347 
L 526.019404 689.985658 
L 527.013645 700.737387 
L 528.544156 711.933729 
L 530.537346 723.536667 
L 532.908431 735.501649 
L 535.560872 747.777257 
L 538.385804 760.30487 
L 541.261452 773.018313 
L 544.052533 785.843513 
L 546.609648 798.698135 
L 548.768667 811.491219 
L 550.350098 824.122807 
L 551.158441 836.483567 
L 550.98154 848.454402 
L 549.589914 859.906061 
L 546.736083 870.69874 
L 542.153875 880.681673 
L 535.557728 889.69272 
L 526.641977 897.557943 
L 515.080127 904.091185 
L 500.524116 909.093629 
L 482.603568 912.353357 
" clip-path="url(#pc7622eb21e)" style="fill: none; stroke: #8c564b; stroke-width: 1.5"/>
    <path d="M 951.578235 172.977443 
L 948.544467 184.809198 
L 946.729682 196.565619 
L 945.891633 208.80073 
L 945.941074 221.45337 
L 946.785129 234.455995 
L 948.327731 247.73968 
L 950.471103 261.237146 
L 953.117369 274.884321 
L 956.169912 288.621018 
L 959.534409 302.391124 
L 963.119567 316.142577 
L 970.604677 343.400927 
L 977.982736 370.102306 
L 981.440423 383.140435 
L 984.651981 395.929151 
L 987.553666 408.443361 
L 990.085304 420.661684 
L 992.189873 432.566358 
L 993.812941 444.142979 
L 994.902005 455.379929 
L 995.405804 466.267326 
L 995.273835 476.795307 
L 994.456481 486.951533 
L 992.906342 496.718126 
L 990.581326 506.068773 
L 987.449591 514.967463 
L 983.4952 523.370518 
L 978.722112 531.232648 
L 973.153961 538.515531 
L 966.828942 545.195491 
L 959.791862 551.267073 
L 952.086813 556.741733 
L 943.752842 561.643372 
L 934.822978 566.003193 
L 925.325481 569.855585 
L 915.285978 573.235577 
L 904.72955 576.177625 
L 893.682339 578.715282 
L 882.172613 580.881318 
L 870.231379 582.708027 
L 857.892651 584.227547 
L 845.193506 585.472148 
L 832.173994 586.474437 
L 818.876972 587.267494 
L 805.347889 587.884949 
L 791.634545 588.360996 
L 763.856546 589.028261 
L 722.079549 589.85077 
L 708.348622 590.221016 
L 694.811989 590.698936 
L 681.527066 591.319693 
L 668.551426 592.117643 
L 655.942573 593.12598 
L 643.757683 594.37632 
L 632.053312 595.898186 
L 620.885004 597.71837 
L 610.306723 599.860181 
L 600.369975 602.342564 
L 591.122419 605.179217 
L 582.605719 608.377901 
L 574.852426 611.940464 
L 567.881972 615.864333 
L 561.696563 620.146418 
L 556.278906 624.789817 
L 551.594466 629.811952 
L 547.599922 635.250293 
L 544.255711 641.160912 
L 541.536582 647.608339 
L 539.434319 654.651 
L 537.952009 662.329347 
L 537.094193 670.660999 
L 536.857966 679.642224 
L 537.227421 689.252535 
L 538.171286 699.459505 
L 539.64255 710.222424 
L 541.578918 721.494585 
L 543.903425 733.224526 
L 546.524856 745.356622 
L 555.06467 783.652915 
L 557.680997 796.829683 
L 559.909601 810.096413 
L 561.554072 823.390113 
L 562.385122 836.649471 
L 562.127449 849.808872 
L 560.44475 862.776328 
L 557.304623 874.489762 
L 556.940384 875.382557 
L 551.835137 886.368418 
L 551.213843 887.313631 
L 543.849924 897.262751 
L 542.985496 898.112586 
L 533.15306 906.705166 
L 532.16565 907.333163 
L 519.685892 914.330952 
L 518.729319 914.709532 
L 503.361491 919.957109 
L 502.533488 920.140272 
L 484.612941 923.4 
L 484.612941 923.4 
" clip-path="url(#pc7622eb21e)" style="fill: none; stroke: #17becf; stroke-width: 1.5"/>
   </g>
   <g id="patch_3">
    <path d="M 454.853616 961.2 
L 454.853616 129.6 
" style="fill: none; stroke: #000000; stroke-width: 0.8; stroke-linejoin: miter; stroke-linecap: square"/>
   </g>
   <g id="patch_4">
    <path d="M 1021.146384 961.2 
L 1021.146384 129.6 
" style="fill: none; stroke: #000000; stroke-width: 0.8; stroke-linejoin: miter; stroke-linecap: square"/>
   </g>
   <g id="patch_5">
    <path d="M 454.853616 961.2 
L 1021.146384 961.2 
" style="fill: none; stroke: #000000; stroke-width: 0.8; stroke-linejoin: miter; stroke-linecap: square"/>
   </g>
   <g id="patch_6">
    <path d="M 454.853616 129.6 
L 1021.146384 129.6 
" style="fill: none; stroke: #000000; stroke-width: 0.8; stroke-linejoin: miter; stroke-linecap: square"/>
   </g>
  </g>
 </g>
 <defs>
  <clipPath id="pc7622eb21e">
   <rect x="454.853616" y="129.6" width="566.292769" height="831.6"/>
  </clipPath>
 </defs>
</svg>
