<?xml version="1.0" encoding="utf-8" standalone="no"?>
<!DOCTYPE svg PUBLIC "-//W3C//DTD SVG 1.1//EN"
  "http://www.w3.org/Graphics/SVG/1.1/DTD/svg11.dtd">
<svg xmlns:xlink="http://www.w3.org/1999/xlink" width="1440pt" height="1080pt" viewBox="0 0 1440 1080" xmlns="http://www.w3.org/2000/svg" version="1.1">
 <metadata>
  <rdf:RDF xmlns:dc="http://purl.org/dc/elements/1.1/" xmlns:cc="http://creativecommons.org/ns#" xmlns:rdf="http://www.w3.org/1999/02/22-rdf-syntax-ns#">
   <cc:Work>
    <dc:type rdf:resource="http://purl.org/dc/dcmitype/StillImage"/>
    <dc:date>2023-12-11T12:06:35.023806</dc:date>
    <dc:format>image/svg+xml</dc:format>
    <dc:creator>
     <cc:Agent>
      <dc:title>Matplotlib v3.7.1, https://matplotlib.org/</dc:title>
     </cc:Agent>
    </dc:creator>
   </cc:Work>
  </rdf:RDF>
 </metadata>
 <defs>
  <style type="text/css">*{stroke-linejoin: round; stroke-linecap: butt}</style>
 </defs>
 <g id="figure_1">
  <g id="patch_1">
   <path d="M 0 1080 
L 1440 1080 
L 1440 0 
L 0 0 
z
" style="fill: #ffffff"/>
  </g>
  <g id="axes_1">
   <g id="patch_2">
    <path d="M 180 819.947959 
L 1296 819.947959 
L 1296 270.852041 
L 180 270.852041 
z
" style="fill: #ffffff"/>
   </g>
   <g id="matplotlib.axis_1">
    <g id="xtick_1">
     <g id="line2d_1">
      <defs>
       <path id="mb8cf6d9f17" d="M 0 0 
L 0 3.5 
" style="stroke: #000000; stroke-width: 0.8"/>
      </defs>
      <g>
       <use xlink:href="#mb8cf6d9f17" x="354.368522" y="819.947959" style="stroke: #000000; stroke-width: 0.8"/>
      </g>
     </g>
     <g id="text_1">
      <!-- 200 -->
      <g transform="translate(344.824772 834.546396) scale(0.1 -0.1)">
       <defs>
        <path id="DejaVuSans-32" d="M 1228 531 
L 3431 531 
L 3431 0 
L 469 0 
L 469 531 
Q 828 903 1448 1529 
Q 2069 2156 2228 2338 
Q 2531 2678 2651 2914 
Q 2772 3150 2772 3378 
Q 2772 3750 2511 3984 
Q 2250 4219 1831 4219 
Q 1534 4219 1204 4116 
Q 875 4013 500 3803 
L 500 4441 
Q 881 4594 1212 4672 
Q 1544 4750 1819 4750 
Q 2544 4750 2975 4387 
Q 3406 4025 3406 3419 
Q 3406 3131 3298 2873 
Q 3191 2616 2906 2266 
Q 2828 2175 2409 1742 
Q 1991 1309 1228 531 
z
" transform="scale(0.015625)"/>
        <path id="DejaVuSans-30" d="M 2034 4250 
Q 1547 4250 1301 3770 
Q 1056 3291 1056 2328 
Q 1056 1369 1301 889 
Q 1547 409 2034 409 
Q 2525 409 2770 889 
Q 3016 1369 3016 2328 
Q 3016 3291 2770 3770 
Q 2525 4250 2034 4250 
z
M 2034 4750 
Q 2819 4750 3233 4129 
Q 3647 3509 3647 2328 
Q 3647 1150 3233 529 
Q 2819 -91 2034 -91 
Q 1250 -91 836 529 
Q 422 1150 422 2328 
Q 422 3509 836 4129 
Q 1250 4750 2034 4750 
z
" transform="scale(0.015625)"/>
       </defs>
       <use xlink:href="#DejaVuSans-32"/>
       <use xlink:href="#DejaVuSans-30" x="63.623047"/>
       <use xlink:href="#DejaVuSans-30" x="127.246094"/>
      </g>
     </g>
    </g>
    <g id="xtick_2">
     <g id="line2d_2">
      <g>
       <use xlink:href="#mb8cf6d9f17" x="596.358068" y="819.947959" style="stroke: #000000; stroke-width: 0.8"/>
      </g>
     </g>
     <g id="text_2">
      <!-- 400 -->
      <g transform="translate(586.814318 834.546396) scale(0.1 -0.1)">
       <defs>
        <path id="DejaVuSans-34" d="M 2419 4116 
L 825 1625 
L 2419 1625 
L 2419 4116 
z
M 2253 4666 
L 3047 4666 
L 3047 1625 
L 3713 1625 
L 3713 1100 
L 3047 1100 
L 3047 0 
L 2419 0 
L 2419 1100 
L 313 1100 
L 313 1709 
L 2253 4666 
z
" transform="scale(0.015625)"/>
       </defs>
       <use xlink:href="#DejaVuSans-34"/>
       <use xlink:href="#DejaVuSans-30" x="63.623047"/>
       <use xlink:href="#DejaVuSans-30" x="127.246094"/>
      </g>
     </g>
    </g>
    <g id="xtick_3">
     <g id="line2d_3">
      <g>
       <use xlink:href="#mb8cf6d9f17" x="838.347613" y="819.947959" style="stroke: #000000; stroke-width: 0.8"/>
      </g>
     </g>
     <g id="text_3">
      <!-- 600 -->
      <g transform="translate(828.803863 834.546396) scale(0.1 -0.1)">
       <defs>
        <path id="DejaVuSans-36" d="M 2113 2584 
Q 1688 2584 1439 2293 
Q 1191 2003 1191 1497 
Q 1191 994 1439 701 
Q 1688 409 2113 409 
Q 2538 409 2786 701 
Q 3034 994 3034 1497 
Q 3034 2003 2786 2293 
Q 2538 2584 2113 2584 
z
M 3366 4563 
L 3366 3988 
Q 3128 4100 2886 4159 
Q 2644 4219 2406 4219 
Q 1781 4219 1451 3797 
Q 1122 3375 1075 2522 
Q 1259 2794 1537 2939 
Q 1816 3084 2150 3084 
Q 2853 3084 3261 2657 
Q 3669 2231 3669 1497 
Q 3669 778 3244 343 
Q 2819 -91 2113 -91 
Q 1303 -91 875 529 
Q 447 1150 447 2328 
Q 447 3434 972 4092 
Q 1497 4750 2381 4750 
Q 2619 4750 2861 4703 
Q 3103 4656 3366 4563 
z
" transform="scale(0.015625)"/>
       </defs>
       <use xlink:href="#DejaVuSans-36"/>
       <use xlink:href="#DejaVuSans-30" x="63.623047"/>
       <use xlink:href="#DejaVuSans-30" x="127.246094"/>
      </g>
     </g>
    </g>
    <g id="xtick_4">
     <g id="line2d_4">
      <g>
       <use xlink:href="#mb8cf6d9f17" x="1080.337159" y="819.947959" style="stroke: #000000; stroke-width: 0.8"/>
      </g>
     </g>
     <g id="text_4">
      <!-- 800 -->
      <g transform="translate(1070.793409 834.546396) scale(0.1 -0.1)">
       <defs>
        <path id="DejaVuSans-38" d="M 2034 2216 
Q 1584 2216 1326 1975 
Q 1069 1734 1069 1313 
Q 1069 891 1326 650 
Q 1584 409 2034 409 
Q 2484 409 2743 651 
Q 3003 894 3003 1313 
Q 3003 1734 2745 1975 
Q 2488 2216 2034 2216 
z
M 1403 2484 
Q 997 2584 770 2862 
Q 544 3141 544 3541 
Q 544 4100 942 4425 
Q 1341 4750 2034 4750 
Q 2731 4750 3128 4425 
Q 3525 4100 3525 3541 
Q 3525 3141 3298 2862 
Q 3072 2584 2669 2484 
Q 3125 2378 3379 2068 
Q 3634 1759 3634 1313 
Q 3634 634 3220 271 
Q 2806 -91 2034 -91 
Q 1263 -91 848 271 
Q 434 634 434 1313 
Q 434 1759 690 2068 
Q 947 2378 1403 2484 
z
M 1172 3481 
Q 1172 3119 1398 2916 
Q 1625 2713 2034 2713 
Q 2441 2713 2670 2916 
Q 2900 3119 2900 3481 
Q 2900 3844 2670 4047 
Q 2441 4250 2034 4250 
Q 1625 4250 1398 4047 
Q 1172 3844 1172 3481 
z
" transform="scale(0.015625)"/>
       </defs>
       <use xlink:href="#DejaVuSans-38"/>
       <use xlink:href="#DejaVuSans-30" x="63.623047"/>
       <use xlink:href="#DejaVuSans-30" x="127.246094"/>
      </g>
     </g>
    </g>
   </g>
   <g id="matplotlib.axis_2">
    <g id="ytick_1">
     <g id="line2d_5">
      <defs>
       <path id="m8faedfb6a3" d="M 0 0 
L -3.5 0 
" style="stroke: #000000; stroke-width: 0.8"/>
      </defs>
      <g>
       <use xlink:href="#m8faedfb6a3" x="180" y="730.870619" style="stroke: #000000; stroke-width: 0.8"/>
      </g>
     </g>
     <g id="text_5">
      <!-- 900 -->
      <g transform="translate(153.9125 734.669838) scale(0.1 -0.1)">
       <defs>
        <path id="DejaVuSans-39" d="M 703 97 
L 703 672 
Q 941 559 1184 500 
Q 1428 441 1663 441 
Q 2288 441 2617 861 
Q 2947 1281 2994 2138 
Q 2813 1869 2534 1725 
Q 2256 1581 1919 1581 
Q 1219 1581 811 2004 
Q 403 2428 403 3163 
Q 403 3881 828 4315 
Q 1253 4750 1959 4750 
Q 2769 4750 3195 4129 
Q 3622 3509 3622 2328 
Q 3622 1225 3098 567 
Q 2575 -91 1691 -91 
Q 1453 -91 1209 -44 
Q 966 3 703 97 
z
M 1959 2075 
Q 2384 2075 2632 2365 
Q 2881 2656 2881 3163 
Q 2881 3666 2632 3958 
Q 2384 4250 1959 4250 
Q 1534 4250 1286 3958 
Q 1038 3666 1038 3163 
Q 1038 2656 1286 2365 
Q 1534 2075 1959 2075 
z
" transform="scale(0.015625)"/>
       </defs>
       <use xlink:href="#DejaVuSans-39"/>
       <use xlink:href="#DejaVuSans-30" x="63.623047"/>
       <use xlink:href="#DejaVuSans-30" x="127.246094"/>
      </g>
     </g>
    </g>
    <g id="ytick_2">
     <g id="line2d_6">
      <g>
       <use xlink:href="#m8faedfb6a3" x="180" y="609.875846" style="stroke: #000000; stroke-width: 0.8"/>
      </g>
     </g>
     <g id="text_6">
      <!-- 1000 -->
      <g transform="translate(147.55 613.675065) scale(0.1 -0.1)">
       <defs>
        <path id="DejaVuSans-31" d="M 794 531 
L 1825 531 
L 1825 4091 
L 703 3866 
L 703 4441 
L 1819 4666 
L 2450 4666 
L 2450 531 
L 3481 531 
L 3481 0 
L 794 0 
L 794 531 
z
" transform="scale(0.015625)"/>
       </defs>
       <use xlink:href="#DejaVuSans-31"/>
       <use xlink:href="#DejaVuSans-30" x="63.623047"/>
       <use xlink:href="#DejaVuSans-30" x="127.246094"/>
       <use xlink:href="#DejaVuSans-30" x="190.869141"/>
      </g>
     </g>
    </g>
    <g id="ytick_3">
     <g id="line2d_7">
      <g>
       <use xlink:href="#m8faedfb6a3" x="180" y="488.881074" style="stroke: #000000; stroke-width: 0.8"/>
      </g>
     </g>
     <g id="text_7">
      <!-- 1100 -->
      <g transform="translate(147.55 492.680292) scale(0.1 -0.1)">
       <use xlink:href="#DejaVuSans-31"/>
       <use xlink:href="#DejaVuSans-31" x="63.623047"/>
       <use xlink:href="#DejaVuSans-30" x="127.246094"/>
       <use xlink:href="#DejaVuSans-30" x="190.869141"/>
      </g>
     </g>
    </g>
    <g id="ytick_4">
     <g id="line2d_8">
      <g>
       <use xlink:href="#m8faedfb6a3" x="180" y="367.886301" style="stroke: #000000; stroke-width: 0.8"/>
      </g>
     </g>
     <g id="text_8">
      <!-- 1200 -->
      <g transform="translate(147.55 371.685519) scale(0.1 -0.1)">
       <use xlink:href="#DejaVuSans-31"/>
       <use xlink:href="#DejaVuSans-32" x="63.623047"/>
       <use xlink:href="#DejaVuSans-30" x="127.246094"/>
       <use xlink:href="#DejaVuSans-30" x="190.869141"/>
      </g>
     </g>
    </g>
   </g>
   <g id="LineCollection_1">
    <path d="M 230.727273 323.806673 
L 245.15234 327.780792 
L 257.855869 332.748739 
L 269.667008 338.839938 
L 280.691573 345.999413 
L 291.017639 354.176106 
L 300.715344 363.314982 
L 309.840805 373.351885 
L 318.441475 384.211979 
L 326.56086 395.810933 
L 334.241694 408.057454 
L 341.527615 420.856071 
L 348.463743 434.109579 
L 355.096611 447.720961 
L 361.473788 461.594801 
L 367.643399 475.6383 
L 379.55249 503.880255 
L 391.226736 531.83201 
L 397.08658 545.495798 
L 403.020625 558.85658 
L 409.073172 571.851825 
L 415.28769 584.4235 
L 421.706912 596.517723 
L 428.372863 608.084195 
L 435.326714 619.075362 
L 442.608289 629.445309 
L 450.255032 639.148484 
L 458.300219 648.138501 
L 466.770386 656.367483 
L 475.682219 663.786561 
L 485.03968 670.348077 
L 494.832526 676.009528 
L 505.037323 680.738456 
L 515.621254 684.516722 
L 526.547773 687.342579 
L 537.782267 689.229888 
L 549.296044 690.205041 
L 561.067883 690.302952 
L 573.083484 689.563403 
L 585.333688 688.028455 
L 597.812337 685.741012 
L 610.514363 682.744295 
L 623.434344 679.081853 
L 636.56555 674.797835 
L 649.899399 669.93732 
L 663.425217 664.546608 
L 677.130188 658.673421 
L 690.999433 652.367014 
L 705.016155 645.678204 
L 719.161817 638.659326 
L 733.416332 631.364131 
L 747.758255 623.847649 
L 776.612839 608.376247 
L 819.987415 584.920453 
L 834.365135 577.270583 
L 848.656834 569.803311 
L 862.836038 562.576114 
L 876.876109 555.645608 
L 890.750317 549.067226 
L 904.431907 542.894878 
L 917.894167 537.180564 
L 931.110522 531.973933 
L 944.054671 527.321786 
L 956.700824 523.267498 
L 969.024091 519.85038 
L 981.001113 517.104996 
L 992.611027 515.060519 
L 1003.836851 513.740279 
L 1014.667306 513.161727 
L 1025.098908 513.337129 
L 1035.137937 514.27528 
L 1044.801572 515.984257 
L 1054.117391 518.474848 
L 1063.120713 521.76364 
L 1071.850061 525.87456 
L 1080.34193 530.837985 
L 1088.626524 536.687503 
L 1096.725692 543.455452 
L 1104.653306 551.168685 
L 1112.417388 559.845653 
L 1120.022946 569.495134 
L 1127.474623 580.11632 
L 1134.778724 591.699723 
L 1141.944512 604.228414 
L 1148.984878 617.679258 
L 1155.916586 632.023986 
L 1162.760235 647.230067 
L 1169.540079 663.261385 
L 1176.28377 680.078772 
L 1183.022086 697.640433 
L 1189.788657 715.902305 
L 1203.553785 754.341019 
L 1217.888523 794.989054 
L 1217.888523 794.989054 
" clip-path="url(#pae4b77c9f0)" style="fill: none; stroke: #1f77b4; stroke-width: 1.5"/>
    <path d="M 234.583697 309.80881 
L 249.736966 313.983549 
L 263.843388 319.500123 
L 276.966601 326.26798 
L 289.170879 334.193573 
L 300.520834 343.181032 
L 311.081132 353.132795 
L 320.916227 363.95021 
L 330.090113 375.534106 
L 338.666089 387.785323 
L 346.706535 400.60522 
L 354.272714 413.896143 
L 361.424573 427.561869 
L 368.220572 441.508013 
L 374.717516 455.642414 
L 380.970412 469.875487 
L 387.032323 484.120546 
L 392.954254 498.294105 
L 398.785031 512.316144 
L 404.571209 526.110363 
L 410.356981 539.604393 
L 416.184103 552.729995 
L 422.091828 565.423234 
L 428.116854 577.624622 
L 434.29328 589.279247 
L 440.652571 600.336877 
L 447.22354 610.752039 
L 454.032327 620.484084 
L 461.102402 629.497228 
L 468.454567 637.760572 
L 476.10697 645.248113 
L 484.075124 651.93872 
L 492.371943 657.816114 
L 501.007776 662.86881 
L 509.990453 667.090061 
L 519.325336 670.477777 
L 529.015383 673.034431 
L 539.061207 674.766953 
L 549.461155 675.686607 
L 560.21138 675.808864 
L 571.305929 675.153251 
L 582.736829 673.7432 
L 594.49418 671.605878 
L 606.566256 668.772014 
L 618.939607 665.275712 
L 631.599164 661.154258 
L 644.52835 656.447916 
L 657.709195 651.199725 
L 671.122452 645.455278 
L 684.747713 639.262504 
L 698.563539 632.671439 
L 712.547577 625.734001 
L 726.676687 618.503751 
L 740.927074 611.035656 
L 755.27441 603.385851 
L 769.693968 595.611396 
L 784.160752 587.770034 
L 798.649624 579.919949 
L 813.135439 572.119519 
L 827.593169 564.427078 
L 841.998037 556.900676 
L 856.325645 549.597837 
L 870.552096 542.575329 
L 884.654125 535.888927 
L 898.609219 529.593191 
L 912.395739 523.741238 
L 925.993038 518.384533 
L 939.381576 513.572672 
L 952.543036 509.353179 
L 965.460426 505.771317 
L 978.118192 502.869892 
L 990.502311 500.689079 
L 1002.600395 499.266255 
L 1014.401777 498.635837 
L 1025.8976 498.829134 
L 1037.080898 499.874216 
L 1047.946671 501.795788 
L 1058.491956 504.615077 
L 1068.715888 508.349741 
L 1078.619758 513.013781 
L 1088.207062 518.617478 
L 1097.483543 525.167339 
L 1106.457228 532.666065 
L 1115.13845 541.112527 
L 1123.539874 550.501773 
L 1131.676498 560.825041 
L 1139.565663 572.069796 
L 1147.227039 584.219792 
L 1154.68261 597.255143 
L 1161.956648 611.152424 
L 1169.075673 625.884793 
L 1176.068408 641.422131 
L 1182.96572 657.731209 
L 1189.800549 674.775876 
L 1196.60783 692.517276 
L 1203.424398 710.914081 
L 1210.288887 729.922765 
L 1217.24161 749.497886 
L 1224.324431 769.592411 
L 1231.580625 790.158058 
" clip-path="url(#pae4b77c9f0)" style="fill: none; stroke: #8c564b; stroke-width: 1.5"/>
    <path d="M 238.440121 295.810946 
L 255.025048 300.461405 
L 270.498391 306.595739 
L 284.874448 314.091029 
L 298.184378 322.810734 
L 310.478615 332.614349 
L 321.824063 343.36542 
L 332.298501 354.935998 
L 341.98479 367.207712 
L 350.966398 380.070754 
L 359.324575 393.422096 
L 367.136899 407.163764 
L 374.476707 421.201524 
L 381.413012 435.444045 
L 388.010639 449.802459 
L 394.330418 464.190205 
L 406.360733 492.719296 
L 417.938234 520.441316 
L 423.664959 533.79763 
L 429.402088 546.720524 
L 435.184636 559.14481 
L 441.043416 571.00953 
L 447.004847 582.258471 
L 453.090816 592.840842 
L 459.318669 602.712157 
L 465.701483 611.835344 
L 472.248796 620.182054 
L 478.967998 627.733991 
L 485.866538 634.48391 
L 492.954834 640.435728 
L 500.249409 645.60314 
L 507.77525 650.006397 
L 515.566223 653.667628 
L 523.662751 656.605933 
L 532.107099 658.833918 
L 540.937679 660.356857 
L 550.184247 661.174519 
L 559.865256 661.284616 
L 569.987563 660.686456 
L 580.547838 659.3838 
L 591.534766 657.386531 
L 602.931299 654.711247 
L 614.71655 651.381123 
L 626.867206 647.425347 
L 639.358483 642.878408 
L 652.164744 637.779365 
L 665.259866 632.171164 
L 678.617459 626.100047 
L 692.210996 619.615029 
L 706.013895 612.767453 
L 719.999587 605.610594 
L 734.141575 598.199307 
L 762.789247 582.838876 
L 806.315461 559.301559 
L 820.869405 551.558388 
L 835.404547 543.964754 
L 849.898886 536.578277 
L 864.331617 529.455961 
L 878.683315 522.654064 
L 892.936112 516.22801 
L 907.073866 510.232358 
L 921.082283 504.720834 
L 934.948968 499.746459 
L 948.663352 495.361745 
L 962.216414 491.618983 
L 975.600112 488.57054 
L 988.806414 486.269089 
L 1001.825888 484.767555 
L 1014.645879 484.118516 
L 1027.248554 484.372747 
L 1039.609361 485.576697 
L 1051.696728 487.769054 
L 1063.473721 490.977108 
L 1074.901881 495.214076 
L 1085.946478 500.478576 
L 1096.581639 506.756675 
L 1106.793745 514.02587 
L 1116.582303 522.259574 
L 1125.95859 531.430752 
L 1134.943033 541.513996 
L 1143.562368 552.486079 
L 1151.847244 564.325447 
L 1159.830552 577.011211 
L 1167.546417 590.52204 
L 1175.029713 604.835213 
L 1182.315904 619.925894 
L 1189.441064 635.766669 
L 1196.44199 652.32729 
L 1203.356319 669.574599 
L 1210.222646 687.472578 
L 1217.080595 705.982503 
L 1230.935239 744.671222 
L 1245.272727 785.327062 
L 1245.272727 785.327062 
" clip-path="url(#pae4b77c9f0)" style="fill: none; stroke: #17becf; stroke-width: 1.5"/>
   </g>
   <g id="patch_3">
    <path d="M 180 819.947959 
L 180 270.852041 
" style="fill: none; stroke: #000000; stroke-width: 0.8; stroke-linejoin: miter; stroke-linecap: square"/>
   </g>
   <g id="patch_4">
    <path d="M 1296 819.947959 
L 1296 270.852041 
" style="fill: none; stroke: #000000; stroke-width: 0.8; stroke-linejoin: miter; stroke-linecap: square"/>
   </g>
   <g id="patch_5">
    <path d="M 180 819.947959 
L 1296 819.947959 
" style="fill: none; stroke: #000000; stroke-width: 0.8; stroke-linejoin: miter; stroke-linecap: square"/>
   </g>
   <g id="patch_6">
    <path d="M 180 270.852041 
L 1296 270.852041 
" style="fill: none; stroke: #000000; stroke-width: 0.8; stroke-linejoin: miter; stroke-linecap: square"/>
   </g>
  </g>
 </g>
 <defs>
  <clipPath id="pae4b77c9f0">
   <rect x="180" y="270.852041" width="1116" height="549.095918"/>
  </clipPath>
 </defs>
</svg>
