<?xml version="1.0" encoding="utf-8" standalone="no"?>
<!DOCTYPE svg PUBLIC "-//W3C//DTD SVG 1.1//EN"
  "http://www.w3.org/Graphics/SVG/1.1/DTD/svg11.dtd">
<svg xmlns:xlink="http://www.w3.org/1999/xlink" width="1440pt" height="1080pt" viewBox="0 0 1440 1080" xmlns="http://www.w3.org/2000/svg" version="1.1">
 <metadata>
  <rdf:RDF xmlns:dc="http://purl.org/dc/elements/1.1/" xmlns:cc="http://creativecommons.org/ns#" xmlns:rdf="http://www.w3.org/1999/02/22-rdf-syntax-ns#">
   <cc:Work>
    <dc:type rdf:resource="http://purl.org/dc/dcmitype/StillImage"/>
    <dc:date>2023-12-11T12:06:51.162092</dc:date>
    <dc:format>image/svg+xml</dc:format>
    <dc:creator>
     <cc:Agent>
      <dc:title>Matplotlib v3.7.1, https://matplotlib.org/</dc:title>
     </cc:Agent>
    </dc:creator>
   </cc:Work>
  </rdf:RDF>
 </metadata>
 <defs>
  <style type="text/css">*{stroke-linejoin: round; stroke-linecap: butt}</style>
 </defs>
 <g id="figure_1">
  <g id="patch_1">
   <path d="M 0 1080 
L 1440 1080 
L 1440 0 
L 0 0 
z
" style="fill: #ffffff"/>
  </g>
  <g id="axes_1">
   <g id="patch_2">
    <path d="M 579.792656 961.2 
L 896.207344 961.2 
L 896.207344 129.6 
L 579.792656 129.6 
z
" style="fill: #ffffff"/>
   </g>
   <g id="matplotlib.axis_1">
    <g id="xtick_1">
     <g id="line2d_1">
      <defs>
       <path id="mdd687e06dc" d="M 0 0 
L 0 3.5 
" style="stroke: #000000; stroke-width: 0.8"/>
      </defs>
      <g>
       <use xlink:href="#mdd687e06dc" x="617.563818" y="961.2" style="stroke: #000000; stroke-width: 0.8"/>
      </g>
     </g>
     <g id="text_1">
      <!-- 1000 -->
      <g transform="translate(604.838818 975.798437) scale(0.1 -0.1)">
       <defs>
        <path id="DejaVuSans-31" d="M 794 531 
L 1825 531 
L 1825 4091 
L 703 3866 
L 703 4441 
L 1819 4666 
L 2450 4666 
L 2450 531 
L 3481 531 
L 3481 0 
L 794 0 
L 794 531 
z
" transform="scale(0.015625)"/>
        <path id="DejaVuSans-30" d="M 2034 4250 
Q 1547 4250 1301 3770 
Q 1056 3291 1056 2328 
Q 1056 1369 1301 889 
Q 1547 409 2034 409 
Q 2525 409 2770 889 
Q 3016 1369 3016 2328 
Q 3016 3291 2770 3770 
Q 2525 4250 2034 4250 
z
M 2034 4750 
Q 2819 4750 3233 4129 
Q 3647 3509 3647 2328 
Q 3647 1150 3233 529 
Q 2819 -91 2034 -91 
Q 1250 -91 836 529 
Q 422 1150 422 2328 
Q 422 3509 836 4129 
Q 1250 4750 2034 4750 
z
" transform="scale(0.015625)"/>
       </defs>
       <use xlink:href="#DejaVuSans-31"/>
       <use xlink:href="#DejaVuSans-30" x="63.623047"/>
       <use xlink:href="#DejaVuSans-30" x="127.246094"/>
       <use xlink:href="#DejaVuSans-30" x="190.869141"/>
      </g>
     </g>
    </g>
    <g id="xtick_2">
     <g id="line2d_2">
      <g>
       <use xlink:href="#mdd687e06dc" x="669.731943" y="961.2" style="stroke: #000000; stroke-width: 0.8"/>
      </g>
     </g>
     <g id="text_2">
      <!-- 1050 -->
      <g transform="translate(657.006943 975.798437) scale(0.1 -0.1)">
       <defs>
        <path id="DejaVuSans-35" d="M 691 4666 
L 3169 4666 
L 3169 4134 
L 1269 4134 
L 1269 2991 
Q 1406 3038 1543 3061 
Q 1681 3084 1819 3084 
Q 2600 3084 3056 2656 
Q 3513 2228 3513 1497 
Q 3513 744 3044 326 
Q 2575 -91 1722 -91 
Q 1428 -91 1123 -41 
Q 819 9 494 109 
L 494 744 
Q 775 591 1075 516 
Q 1375 441 1709 441 
Q 2250 441 2565 725 
Q 2881 1009 2881 1497 
Q 2881 1984 2565 2268 
Q 2250 2553 1709 2553 
Q 1456 2553 1204 2497 
Q 953 2441 691 2322 
L 691 4666 
z
" transform="scale(0.015625)"/>
       </defs>
       <use xlink:href="#DejaVuSans-31"/>
       <use xlink:href="#DejaVuSans-30" x="63.623047"/>
       <use xlink:href="#DejaVuSans-35" x="127.246094"/>
       <use xlink:href="#DejaVuSans-30" x="190.869141"/>
      </g>
     </g>
    </g>
    <g id="xtick_3">
     <g id="line2d_3">
      <g>
       <use xlink:href="#mdd687e06dc" x="721.900068" y="961.2" style="stroke: #000000; stroke-width: 0.8"/>
      </g>
     </g>
     <g id="text_3">
      <!-- 1100 -->
      <g transform="translate(709.175068 975.798437) scale(0.1 -0.1)">
       <use xlink:href="#DejaVuSans-31"/>
       <use xlink:href="#DejaVuSans-31" x="63.623047"/>
       <use xlink:href="#DejaVuSans-30" x="127.246094"/>
       <use xlink:href="#DejaVuSans-30" x="190.869141"/>
      </g>
     </g>
    </g>
    <g id="xtick_4">
     <g id="line2d_4">
      <g>
       <use xlink:href="#mdd687e06dc" x="774.068193" y="961.2" style="stroke: #000000; stroke-width: 0.8"/>
      </g>
     </g>
     <g id="text_4">
      <!-- 1150 -->
      <g transform="translate(761.343193 975.798437) scale(0.1 -0.1)">
       <use xlink:href="#DejaVuSans-31"/>
       <use xlink:href="#DejaVuSans-31" x="63.623047"/>
       <use xlink:href="#DejaVuSans-35" x="127.246094"/>
       <use xlink:href="#DejaVuSans-30" x="190.869141"/>
      </g>
     </g>
    </g>
    <g id="xtick_5">
     <g id="line2d_5">
      <g>
       <use xlink:href="#mdd687e06dc" x="826.236319" y="961.2" style="stroke: #000000; stroke-width: 0.8"/>
      </g>
     </g>
     <g id="text_5">
      <!-- 1200 -->
      <g transform="translate(813.511319 975.798437) scale(0.1 -0.1)">
       <defs>
        <path id="DejaVuSans-32" d="M 1228 531 
L 3431 531 
L 3431 0 
L 469 0 
L 469 531 
Q 828 903 1448 1529 
Q 2069 2156 2228 2338 
Q 2531 2678 2651 2914 
Q 2772 3150 2772 3378 
Q 2772 3750 2511 3984 
Q 2250 4219 1831 4219 
Q 1534 4219 1204 4116 
Q 875 4013 500 3803 
L 500 4441 
Q 881 4594 1212 4672 
Q 1544 4750 1819 4750 
Q 2544 4750 2975 4387 
Q 3406 4025 3406 3419 
Q 3406 3131 3298 2873 
Q 3191 2616 2906 2266 
Q 2828 2175 2409 1742 
Q 1991 1309 1228 531 
z
" transform="scale(0.015625)"/>
       </defs>
       <use xlink:href="#DejaVuSans-31"/>
       <use xlink:href="#DejaVuSans-32" x="63.623047"/>
       <use xlink:href="#DejaVuSans-30" x="127.246094"/>
       <use xlink:href="#DejaVuSans-30" x="190.869141"/>
      </g>
     </g>
    </g>
    <g id="xtick_6">
     <g id="line2d_6">
      <g>
       <use xlink:href="#mdd687e06dc" x="878.404444" y="961.2" style="stroke: #000000; stroke-width: 0.8"/>
      </g>
     </g>
     <g id="text_6">
      <!-- 1250 -->
      <g transform="translate(865.679444 975.798437) scale(0.1 -0.1)">
       <use xlink:href="#DejaVuSans-31"/>
       <use xlink:href="#DejaVuSans-32" x="63.623047"/>
       <use xlink:href="#DejaVuSans-35" x="127.246094"/>
       <use xlink:href="#DejaVuSans-30" x="190.869141"/>
      </g>
     </g>
    </g>
   </g>
   <g id="matplotlib.axis_2">
    <g id="ytick_1">
     <g id="line2d_7">
      <defs>
       <path id="mee5b74d8b9" d="M 0 0 
L -3.5 0 
" style="stroke: #000000; stroke-width: 0.8"/>
      </defs>
      <g>
       <use xlink:href="#mee5b74d8b9" x="579.792656" y="890.582235" style="stroke: #000000; stroke-width: 0.8"/>
      </g>
     </g>
     <g id="text_7">
      <!-- 500 -->
      <g transform="translate(553.705156 894.381454) scale(0.1 -0.1)">
       <use xlink:href="#DejaVuSans-35"/>
       <use xlink:href="#DejaVuSans-30" x="63.623047"/>
       <use xlink:href="#DejaVuSans-30" x="127.246094"/>
      </g>
     </g>
    </g>
    <g id="ytick_2">
     <g id="line2d_8">
      <g>
       <use xlink:href="#mee5b74d8b9" x="579.792656" y="786.245984" style="stroke: #000000; stroke-width: 0.8"/>
      </g>
     </g>
     <g id="text_8">
      <!-- 600 -->
      <g transform="translate(553.705156 790.045203) scale(0.1 -0.1)">
       <defs>
        <path id="DejaVuSans-36" d="M 2113 2584 
Q 1688 2584 1439 2293 
Q 1191 2003 1191 1497 
Q 1191 994 1439 701 
Q 1688 409 2113 409 
Q 2538 409 2786 701 
Q 3034 994 3034 1497 
Q 3034 2003 2786 2293 
Q 2538 2584 2113 2584 
z
M 3366 4563 
L 3366 3988 
Q 3128 4100 2886 4159 
Q 2644 4219 2406 4219 
Q 1781 4219 1451 3797 
Q 1122 3375 1075 2522 
Q 1259 2794 1537 2939 
Q 1816 3084 2150 3084 
Q 2853 3084 3261 2657 
Q 3669 2231 3669 1497 
Q 3669 778 3244 343 
Q 2819 -91 2113 -91 
Q 1303 -91 875 529 
Q 447 1150 447 2328 
Q 447 3434 972 4092 
Q 1497 4750 2381 4750 
Q 2619 4750 2861 4703 
Q 3103 4656 3366 4563 
z
" transform="scale(0.015625)"/>
       </defs>
       <use xlink:href="#DejaVuSans-36"/>
       <use xlink:href="#DejaVuSans-30" x="63.623047"/>
       <use xlink:href="#DejaVuSans-30" x="127.246094"/>
      </g>
     </g>
    </g>
    <g id="ytick_3">
     <g id="line2d_9">
      <g>
       <use xlink:href="#mee5b74d8b9" x="579.792656" y="681.909734" style="stroke: #000000; stroke-width: 0.8"/>
      </g>
     </g>
     <g id="text_9">
      <!-- 700 -->
      <g transform="translate(553.705156 685.708953) scale(0.1 -0.1)">
       <defs>
        <path id="DejaVuSans-37" d="M 525 4666 
L 3525 4666 
L 3525 4397 
L 1831 0 
L 1172 0 
L 2766 4134 
L 525 4134 
L 525 4666 
z
" transform="scale(0.015625)"/>
       </defs>
       <use xlink:href="#DejaVuSans-37"/>
       <use xlink:href="#DejaVuSans-30" x="63.623047"/>
       <use xlink:href="#DejaVuSans-30" x="127.246094"/>
      </g>
     </g>
    </g>
    <g id="ytick_4">
     <g id="line2d_10">
      <g>
       <use xlink:href="#mee5b74d8b9" x="579.792656" y="577.573483" style="stroke: #000000; stroke-width: 0.8"/>
      </g>
     </g>
     <g id="text_10">
      <!-- 800 -->
      <g transform="translate(553.705156 581.372702) scale(0.1 -0.1)">
       <defs>
        <path id="DejaVuSans-38" d="M 2034 2216 
Q 1584 2216 1326 1975 
Q 1069 1734 1069 1313 
Q 1069 891 1326 650 
Q 1584 409 2034 409 
Q 2484 409 2743 651 
Q 3003 894 3003 1313 
Q 3003 1734 2745 1975 
Q 2488 2216 2034 2216 
z
M 1403 2484 
Q 997 2584 770 2862 
Q 544 3141 544 3541 
Q 544 4100 942 4425 
Q 1341 4750 2034 4750 
Q 2731 4750 3128 4425 
Q 3525 4100 3525 3541 
Q 3525 3141 3298 2862 
Q 3072 2584 2669 2484 
Q 3125 2378 3379 2068 
Q 3634 1759 3634 1313 
Q 3634 634 3220 271 
Q 2806 -91 2034 -91 
Q 1263 -91 848 271 
Q 434 634 434 1313 
Q 434 1759 690 2068 
Q 947 2378 1403 2484 
z
M 1172 3481 
Q 1172 3119 1398 2916 
Q 1625 2713 2034 2713 
Q 2441 2713 2670 2916 
Q 2900 3119 2900 3481 
Q 2900 3844 2670 4047 
Q 2441 4250 2034 4250 
Q 1625 4250 1398 4047 
Q 1172 3844 1172 3481 
z
" transform="scale(0.015625)"/>
       </defs>
       <use xlink:href="#DejaVuSans-38"/>
       <use xlink:href="#DejaVuSans-30" x="63.623047"/>
       <use xlink:href="#DejaVuSans-30" x="127.246094"/>
      </g>
     </g>
    </g>
    <g id="ytick_5">
     <g id="line2d_11">
      <g>
       <use xlink:href="#mee5b74d8b9" x="579.792656" y="473.237233" style="stroke: #000000; stroke-width: 0.8"/>
      </g>
     </g>
     <g id="text_11">
      <!-- 900 -->
      <g transform="translate(553.705156 477.036452) scale(0.1 -0.1)">
       <defs>
        <path id="DejaVuSans-39" d="M 703 97 
L 703 672 
Q 941 559 1184 500 
Q 1428 441 1663 441 
Q 2288 441 2617 861 
Q 2947 1281 2994 2138 
Q 2813 1869 2534 1725 
Q 2256 1581 1919 1581 
Q 1219 1581 811 2004 
Q 403 2428 403 3163 
Q 403 3881 828 4315 
Q 1253 4750 1959 4750 
Q 2769 4750 3195 4129 
Q 3622 3509 3622 2328 
Q 3622 1225 3098 567 
Q 2575 -91 1691 -91 
Q 1453 -91 1209 -44 
Q 966 3 703 97 
z
M 1959 2075 
Q 2384 2075 2632 2365 
Q 2881 2656 2881 3163 
Q 2881 3666 2632 3958 
Q 2384 4250 1959 4250 
Q 1534 4250 1286 3958 
Q 1038 3666 1038 3163 
Q 1038 2656 1286 2365 
Q 1534 2075 1959 2075 
z
" transform="scale(0.015625)"/>
       </defs>
       <use xlink:href="#DejaVuSans-39"/>
       <use xlink:href="#DejaVuSans-30" x="63.623047"/>
       <use xlink:href="#DejaVuSans-30" x="127.246094"/>
      </g>
     </g>
    </g>
    <g id="ytick_6">
     <g id="line2d_12">
      <g>
       <use xlink:href="#mee5b74d8b9" x="579.792656" y="368.900983" style="stroke: #000000; stroke-width: 0.8"/>
      </g>
     </g>
     <g id="text_12">
      <!-- 1000 -->
      <g transform="translate(547.342656 372.700201) scale(0.1 -0.1)">
       <use xlink:href="#DejaVuSans-31"/>
       <use xlink:href="#DejaVuSans-30" x="63.623047"/>
       <use xlink:href="#DejaVuSans-30" x="127.246094"/>
       <use xlink:href="#DejaVuSans-30" x="190.869141"/>
      </g>
     </g>
    </g>
    <g id="ytick_7">
     <g id="line2d_13">
      <g>
       <use xlink:href="#mee5b74d8b9" x="579.792656" y="264.564732" style="stroke: #000000; stroke-width: 0.8"/>
      </g>
     </g>
     <g id="text_13">
      <!-- 1100 -->
      <g transform="translate(547.342656 268.363951) scale(0.1 -0.1)">
       <use xlink:href="#DejaVuSans-31"/>
       <use xlink:href="#DejaVuSans-31" x="63.623047"/>
       <use xlink:href="#DejaVuSans-30" x="127.246094"/>
       <use xlink:href="#DejaVuSans-30" x="190.869141"/>
      </g>
     </g>
    </g>
    <g id="ytick_8">
     <g id="line2d_14">
      <g>
       <use xlink:href="#mee5b74d8b9" x="579.792656" y="160.228482" style="stroke: #000000; stroke-width: 0.8"/>
      </g>
     </g>
     <g id="text_14">
      <!-- 1200 -->
      <g transform="translate(547.342656 164.0277) scale(0.1 -0.1)">
       <use xlink:href="#DejaVuSans-31"/>
       <use xlink:href="#DejaVuSans-32" x="63.623047"/>
       <use xlink:href="#DejaVuSans-30" x="127.246094"/>
       <use xlink:href="#DejaVuSans-30" x="190.869141"/>
      </g>
     </g>
    </g>
   </g>
   <g id="LineCollection_1">
    <path d="M 868.723854 167.4 
L 843.299291 174.631469 
L 820.498547 182.055214 
L 800.117771 189.684003 
L 781.964228 197.539036 
L 765.859186 205.651159 
L 751.642865 214.060875 
L 739.181688 222.815451 
L 730.131043 230.346873 
L 728.376786 231.960673 
L 720.924489 239.53328 
L 719.170146 241.525233 
L 713.184879 249.131018 
L 711.541667 251.499032 
L 706.899004 259.13049 
L 705.490555 261.813831 
L 702.072644 269.463926 
L 701.002412 272.340523 
L 698.697671 280.002665 
L 698.016745 282.912348 
L 696.719572 290.580369 
L 696.414299 293.365657 
L 696.024792 301.033783 
L 696.03049 303.575988 
L 696.682943 313.472896 
L 698.196315 323.03402 
L 700.415955 332.269351 
L 703.211301 341.205578 
L 706.473488 349.874917 
L 710.110993 358.308698 
L 714.045398 366.53437 
L 718.208018 374.574543 
L 722.537454 382.447054 
L 726.97792 390.16546 
L 735.990585 405.176439 
L 753.389553 433.71646 
L 757.379544 440.53116 
L 761.158237 447.208186 
L 764.6984 453.743124 
L 767.975825 460.130653 
L 770.969532 466.364792 
L 773.662017 472.439252 
L 776.039516 478.347893 
L 778.092225 484.085365 
L 779.814439 489.647919 
L 781.204482 495.0344 
L 782.264343 500.247355 
L 782.998917 505.294115 
L 783.414784 510.18765 
L 783.518599 514.946931 
L 783.315277 519.596552 
L 782.806302 524.165482 
L 781.98856 528.685041 
L 780.854005 533.186393 
L 779.390282 537.698067 
L 777.582182 542.243952 
L 775.413564 546.842139 
L 772.869345 551.504664 
L 769.937191 556.238032 
L 766.608722 561.044249 
L 762.880187 565.922065 
L 758.752669 570.868205 
L 754.231979 575.878435 
L 749.328345 580.948406 
L 744.056021 586.074269 
L 738.432878 591.253095 
L 732.480041 596.483148 
L 726.221571 601.764051 
L 719.684206 607.09688 
L 705.891982 617.930291 
L 668.742468 646.393606 
L 661.1683 652.418613 
L 653.651747 658.594795 
L 646.240686 664.949179 
L 638.986052 671.514763 
L 631.943045 678.331919 
L 625.173297 685.449847 
L 618.748517 692.927635 
L 612.756217 700.833814 
L 607.307725 709.242395 
L 603.578336 716.085248 
L 602.547245 718.222269 
L 599.574226 725.25248 
L 598.657481 727.817074 
L 596.526013 735.051272 
L 595.853084 738.016995 
L 594.652063 745.472571 
L 594.353039 748.73448 
L 594.175141 756.429601 
L 594.3352 759.805915 
L 595.276948 767.759546 
L 595.897498 771.033214 
L 598.059317 779.265137 
L 599.055683 782.247919 
L 602.541964 790.778754 
L 603.780292 793.358038 
L 608.69945 802.209258 
L 610.044576 804.354584 
L 617.855617 815.288261 
L 627.262623 826.239531 
L 638.351149 837.29645 
L 651.233119 848.542842 
L 666.037939 860.05391 
L 682.906241 871.895835 
L 701.986004 884.127033 
L 723.43037 896.799839 
L 747.396522 909.96211 
L 773.527146 923.4 
L 773.527146 923.4 
" clip-path="url(#p9f570b55d7)" style="fill: none; stroke: #1f77b4; stroke-width: 1.5"/>
    <path d="M 875.274356 190.485994 
L 850.707673 197.456633 
L 828.880587 204.541067 
L 809.603669 211.726914 
L 792.696939 219.002519 
L 777.989463 226.356921 
L 765.318963 233.779815 
L 754.531436 241.261519 
L 745.480791 248.792941 
L 738.028494 256.365547 
L 732.043227 263.971333 
L 727.400564 271.60279 
L 723.982652 279.252885 
L 721.677911 286.915028 
L 720.380738 294.583049 
L 719.99123 302.251175 
L 720.414916 309.914008 
L 721.562497 317.566502 
L 723.349603 325.203943 
L 725.696556 332.821931 
L 728.528146 340.416362 
L 731.773418 347.983412 
L 735.365466 355.519519 
L 739.241241 363.021372 
L 743.34137 370.485896 
L 747.609977 377.91024 
L 751.994523 385.291763 
L 756.445649 392.628031 
L 760.917034 399.916801 
L 765.365252 407.156015 
L 769.749651 414.343795 
L 774.032229 421.478434 
L 778.177528 428.558392 
L 782.152525 435.582292 
L 785.926546 442.548917 
L 789.471172 449.457205 
L 792.760164 456.306252 
L 795.769391 463.095306 
L 798.476767 469.823771 
L 800.862192 476.491206 
L 802.907504 483.097328 
L 804.596434 489.642015 
L 805.914571 496.125305 
L 806.849331 502.547406 
L 807.389932 508.908696 
L 807.527378 515.209734 
L 807.254443 521.451258 
L 806.565669 527.634201 
L 805.45736 533.759691 
L 803.927588 539.829064 
L 801.976204 545.84387 
L 799.604847 551.805885 
L 796.816964 557.717118 
L 793.617836 563.579825 
L 790.014602 569.396517 
L 786.016288 575.169972 
L 781.633848 580.90325 
L 776.880199 586.599703 
L 771.770262 592.26299 
L 766.321011 597.897087 
L 760.551518 603.506306 
L 754.48301 609.095307 
L 748.138915 614.669113 
L 741.54493 620.233123 
L 734.729069 625.793134 
L 727.721732 631.355351 
L 720.555767 636.926406 
L 713.266534 642.513374 
L 705.891972 648.123789 
L 698.472669 653.765666 
L 691.051928 659.447512 
L 683.675844 665.178347 
L 676.393368 670.967724 
L 669.256385 676.825743 
L 662.319784 682.763074 
L 655.641529 688.79097 
L 649.282738 694.921291 
L 643.307749 701.166522 
L 637.784198 707.539789 
L 632.783089 714.054881 
L 628.378863 720.726269 
L 624.649474 727.569122 
L 621.676455 734.599333 
L 619.544987 741.833531 
L 618.343966 749.289107 
L 618.166069 756.984228 
L 619.107816 764.937859 
L 621.269635 773.169783 
L 624.755916 781.700618 
L 629.675073 790.551838 
L 636.139597 799.745794 
L 644.266107 809.305726 
L 654.175397 819.255791 
L 665.992486 829.621075 
L 679.846659 840.427614 
L 695.871501 851.702414 
L 714.20494 863.473466 
L 734.989273 875.769766 
L 758.371194 888.621332 
L 784.501818 902.059222 
" clip-path="url(#p9f570b55d7)" style="fill: none; stroke: #8c564b; stroke-width: 1.5"/>
    <path d="M 881.824859 213.571989 
L 857.689551 220.420227 
L 836.779444 227.207037 
L 818.543129 234.004979 
L 802.814546 240.773583 
L 789.433513 247.464703 
L 778.241018 254.021721 
L 769.072269 260.38072 
L 761.747792 266.475725 
L 756.064837 272.250425 
L 751.794414 277.67707 
L 748.691234 282.777976 
L 746.519944 287.637837 
L 745.089373 292.393788 
L 744.275982 297.202011 
L 744.022243 302.197314 
L 744.313598 307.4668 
L 745.150247 313.045888 
L 746.527091 318.930016 
L 748.425137 325.090896 
L 750.811073 331.490065 
L 753.640551 338.087603 
L 756.862243 344.846704 
L 760.421307 351.735539 
L 764.261929 358.727614 
L 768.329007 365.801441 
L 776.9315 380.129807 
L 794.741089 409.353446 
L 799.062388 416.739136 
L 803.252643 424.151752 
L 807.277394 431.593849 
L 811.103539 439.069091 
L 814.698947 446.581953 
L 818.032069 454.137328 
L 821.071556 461.739976 
L 823.785962 469.393812 
L 826.1436 477.100992 
L 828.112658 484.860861 
L 829.661676 492.668829 
L 830.76048 500.515366 
L 831.381563 508.385363 
L 831.501804 516.258108 
L 831.104252 524.108106 
L 830.179593 531.906761 
L 828.726942 539.624735 
L 826.753695 547.23454 
L 824.274475 554.71288 
L 821.309413 562.04229 
L 817.882175 569.21186 
L 814.018128 576.217084 
L 809.742936 583.059057 
L 805.081701 589.743312 
L 800.058603 596.278575 
L 794.696962 602.675622 
L 789.019544 608.94635 
L 783.049022 615.10307 
L 776.80848 621.158032 
L 770.321906 627.123108 
L 763.614646 633.009614 
L 756.713802 638.828217 
L 749.648582 644.588887 
L 735.154127 655.972668 
L 698.504564 684.046287 
L 691.473511 689.63579 
L 684.67288 695.217732 
L 678.164396 700.788618 
L 672.013232 706.340754 
L 666.28726 711.860993 
L 661.055555 717.329322 
L 656.385675 722.717594 
L 652.339134 727.989141 
L 648.964583 733.100809 
L 646.289048 738.010004 
L 644.30994 742.689942 
L 642.994574 747.154291 
L 642.296953 751.484917 
L 642.196154 755.845048 
L 642.742319 760.457746 
L 644.079702 765.550324 
L 646.427721 771.295863 
L 650.034805 777.786222 
L 655.13675 785.042295 
L 661.937268 793.042346 
L 670.607923 801.748679 
L 681.296987 811.124522 
L 694.13939 821.141861 
L 709.264497 831.783623 
L 726.801242 843.043155 
L 746.881174 854.922721 
L 769.640124 867.431879 
L 795.47649 880.718445 
L 795.47649 880.718445 
" clip-path="url(#p9f570b55d7)" style="fill: none; stroke: #17becf; stroke-width: 1.5"/>
   </g>
   <g id="patch_3">
    <path d="M 579.792656 961.2 
L 579.792656 129.6 
" style="fill: none; stroke: #000000; stroke-width: 0.8; stroke-linejoin: miter; stroke-linecap: square"/>
   </g>
   <g id="patch_4">
    <path d="M 896.207344 961.2 
L 896.207344 129.6 
" style="fill: none; stroke: #000000; stroke-width: 0.8; stroke-linejoin: miter; stroke-linecap: square"/>
   </g>
   <g id="patch_5">
    <path d="M 579.792656 961.2 
L 896.207344 961.2 
" style="fill: none; stroke: #000000; stroke-width: 0.8; stroke-linejoin: miter; stroke-linecap: square"/>
   </g>
   <g id="patch_6">
    <path d="M 579.792656 129.6 
L 896.207344 129.6 
" style="fill: none; stroke: #000000; stroke-width: 0.8; stroke-linejoin: miter; stroke-linecap: square"/>
   </g>
  </g>
 </g>
 <defs>
  <clipPath id="p9f570b55d7">
   <rect x="579.792656" y="129.6" width="316.414689" height="831.6"/>
  </clipPath>
 </defs>
</svg>
