<?xml version="1.0" encoding="utf-8" standalone="no"?>
<!DOCTYPE svg PUBLIC "-//W3C//DTD SVG 1.1//EN"
  "http://www.w3.org/Graphics/SVG/1.1/DTD/svg11.dtd">
<svg xmlns:xlink="http://www.w3.org/1999/xlink" width="1440pt" height="1080pt" viewBox="0 0 1440 1080" xmlns="http://www.w3.org/2000/svg" version="1.1">
 <metadata>
  <rdf:RDF xmlns:dc="http://purl.org/dc/elements/1.1/" xmlns:cc="http://creativecommons.org/ns#" xmlns:rdf="http://www.w3.org/1999/02/22-rdf-syntax-ns#">
   <cc:Work>
    <dc:type rdf:resource="http://purl.org/dc/dcmitype/StillImage"/>
    <dc:date>2023-12-11T12:07:06.947297</dc:date>
    <dc:format>image/svg+xml</dc:format>
    <dc:creator>
     <cc:Agent>
      <dc:title>Matplotlib v3.7.1, https://matplotlib.org/</dc:title>
     </cc:Agent>
    </dc:creator>
   </cc:Work>
  </rdf:RDF>
 </metadata>
 <defs>
  <style type="text/css">*{stroke-linejoin: round; stroke-linecap: butt}</style>
 </defs>
 <g id="figure_1">
  <g id="patch_1">
   <path d="M 0 1080 
L 1440 1080 
L 1440 0 
L 0 0 
z
" style="fill: #ffffff"/>
  </g>
  <g id="axes_1">
   <g id="patch_2">
    <path d="M 558.62236 961.2 
L 917.37764 961.2 
L 917.37764 129.6 
L 558.62236 129.6 
z
" style="fill: #ffffff"/>
   </g>
   <g id="matplotlib.axis_1">
    <g id="xtick_1">
     <g id="line2d_1">
      <defs>
       <path id="me814cd6f77" d="M 0 0 
L 0 3.5 
" style="stroke: #000000; stroke-width: 0.8"/>
      </defs>
      <g>
       <use xlink:href="#me814cd6f77" x="574.086208" y="961.2" style="stroke: #000000; stroke-width: 0.8"/>
      </g>
     </g>
     <g id="text_1">
      <!-- 550 -->
      <g transform="translate(564.542458 975.798437) scale(0.1 -0.1)">
       <defs>
        <path id="DejaVuSans-35" d="M 691 4666 
L 3169 4666 
L 3169 4134 
L 1269 4134 
L 1269 2991 
Q 1406 3038 1543 3061 
Q 1681 3084 1819 3084 
Q 2600 3084 3056 2656 
Q 3513 2228 3513 1497 
Q 3513 744 3044 326 
Q 2575 -91 1722 -91 
Q 1428 -91 1123 -41 
Q 819 9 494 109 
L 494 744 
Q 775 591 1075 516 
Q 1375 441 1709 441 
Q 2250 441 2565 725 
Q 2881 1009 2881 1497 
Q 2881 1984 2565 2268 
Q 2250 2553 1709 2553 
Q 1456 2553 1204 2497 
Q 953 2441 691 2322 
L 691 4666 
z
" transform="scale(0.015625)"/>
        <path id="DejaVuSans-30" d="M 2034 4250 
Q 1547 4250 1301 3770 
Q 1056 3291 1056 2328 
Q 1056 1369 1301 889 
Q 1547 409 2034 409 
Q 2525 409 2770 889 
Q 3016 1369 3016 2328 
Q 3016 3291 2770 3770 
Q 2525 4250 2034 4250 
z
M 2034 4750 
Q 2819 4750 3233 4129 
Q 3647 3509 3647 2328 
Q 3647 1150 3233 529 
Q 2819 -91 2034 -91 
Q 1250 -91 836 529 
Q 422 1150 422 2328 
Q 422 3509 836 4129 
Q 1250 4750 2034 4750 
z
" transform="scale(0.015625)"/>
       </defs>
       <use xlink:href="#DejaVuSans-35"/>
       <use xlink:href="#DejaVuSans-35" x="63.623047"/>
       <use xlink:href="#DejaVuSans-30" x="127.246094"/>
      </g>
     </g>
    </g>
    <g id="xtick_2">
     <g id="line2d_2">
      <g>
       <use xlink:href="#me814cd6f77" x="633.509239" y="961.2" style="stroke: #000000; stroke-width: 0.8"/>
      </g>
     </g>
     <g id="text_2">
      <!-- 600 -->
      <g transform="translate(623.965489 975.798437) scale(0.1 -0.1)">
       <defs>
        <path id="DejaVuSans-36" d="M 2113 2584 
Q 1688 2584 1439 2293 
Q 1191 2003 1191 1497 
Q 1191 994 1439 701 
Q 1688 409 2113 409 
Q 2538 409 2786 701 
Q 3034 994 3034 1497 
Q 3034 2003 2786 2293 
Q 2538 2584 2113 2584 
z
M 3366 4563 
L 3366 3988 
Q 3128 4100 2886 4159 
Q 2644 4219 2406 4219 
Q 1781 4219 1451 3797 
Q 1122 3375 1075 2522 
Q 1259 2794 1537 2939 
Q 1816 3084 2150 3084 
Q 2853 3084 3261 2657 
Q 3669 2231 3669 1497 
Q 3669 778 3244 343 
Q 2819 -91 2113 -91 
Q 1303 -91 875 529 
Q 447 1150 447 2328 
Q 447 3434 972 4092 
Q 1497 4750 2381 4750 
Q 2619 4750 2861 4703 
Q 3103 4656 3366 4563 
z
" transform="scale(0.015625)"/>
       </defs>
       <use xlink:href="#DejaVuSans-36"/>
       <use xlink:href="#DejaVuSans-30" x="63.623047"/>
       <use xlink:href="#DejaVuSans-30" x="127.246094"/>
      </g>
     </g>
    </g>
    <g id="xtick_3">
     <g id="line2d_3">
      <g>
       <use xlink:href="#me814cd6f77" x="692.932271" y="961.2" style="stroke: #000000; stroke-width: 0.8"/>
      </g>
     </g>
     <g id="text_3">
      <!-- 650 -->
      <g transform="translate(683.388521 975.798437) scale(0.1 -0.1)">
       <use xlink:href="#DejaVuSans-36"/>
       <use xlink:href="#DejaVuSans-35" x="63.623047"/>
       <use xlink:href="#DejaVuSans-30" x="127.246094"/>
      </g>
     </g>
    </g>
    <g id="xtick_4">
     <g id="line2d_4">
      <g>
       <use xlink:href="#me814cd6f77" x="752.355303" y="961.2" style="stroke: #000000; stroke-width: 0.8"/>
      </g>
     </g>
     <g id="text_4">
      <!-- 700 -->
      <g transform="translate(742.811553 975.798437) scale(0.1 -0.1)">
       <defs>
        <path id="DejaVuSans-37" d="M 525 4666 
L 3525 4666 
L 3525 4397 
L 1831 0 
L 1172 0 
L 2766 4134 
L 525 4134 
L 525 4666 
z
" transform="scale(0.015625)"/>
       </defs>
       <use xlink:href="#DejaVuSans-37"/>
       <use xlink:href="#DejaVuSans-30" x="63.623047"/>
       <use xlink:href="#DejaVuSans-30" x="127.246094"/>
      </g>
     </g>
    </g>
    <g id="xtick_5">
     <g id="line2d_5">
      <g>
       <use xlink:href="#me814cd6f77" x="811.778335" y="961.2" style="stroke: #000000; stroke-width: 0.8"/>
      </g>
     </g>
     <g id="text_5">
      <!-- 750 -->
      <g transform="translate(802.234585 975.798437) scale(0.1 -0.1)">
       <use xlink:href="#DejaVuSans-37"/>
       <use xlink:href="#DejaVuSans-35" x="63.623047"/>
       <use xlink:href="#DejaVuSans-30" x="127.246094"/>
      </g>
     </g>
    </g>
    <g id="xtick_6">
     <g id="line2d_6">
      <g>
       <use xlink:href="#me814cd6f77" x="871.201366" y="961.2" style="stroke: #000000; stroke-width: 0.8"/>
      </g>
     </g>
     <g id="text_6">
      <!-- 800 -->
      <g transform="translate(861.657616 975.798437) scale(0.1 -0.1)">
       <defs>
        <path id="DejaVuSans-38" d="M 2034 2216 
Q 1584 2216 1326 1975 
Q 1069 1734 1069 1313 
Q 1069 891 1326 650 
Q 1584 409 2034 409 
Q 2484 409 2743 651 
Q 3003 894 3003 1313 
Q 3003 1734 2745 1975 
Q 2488 2216 2034 2216 
z
M 1403 2484 
Q 997 2584 770 2862 
Q 544 3141 544 3541 
Q 544 4100 942 4425 
Q 1341 4750 2034 4750 
Q 2731 4750 3128 4425 
Q 3525 4100 3525 3541 
Q 3525 3141 3298 2862 
Q 3072 2584 2669 2484 
Q 3125 2378 3379 2068 
Q 3634 1759 3634 1313 
Q 3634 634 3220 271 
Q 2806 -91 2034 -91 
Q 1263 -91 848 271 
Q 434 634 434 1313 
Q 434 1759 690 2068 
Q 947 2378 1403 2484 
z
M 1172 3481 
Q 1172 3119 1398 2916 
Q 1625 2713 2034 2713 
Q 2441 2713 2670 2916 
Q 2900 3119 2900 3481 
Q 2900 3844 2670 4047 
Q 2441 4250 2034 4250 
Q 1625 4250 1398 4047 
Q 1172 3844 1172 3481 
z
" transform="scale(0.015625)"/>
       </defs>
       <use xlink:href="#DejaVuSans-38"/>
       <use xlink:href="#DejaVuSans-30" x="63.623047"/>
       <use xlink:href="#DejaVuSans-30" x="127.246094"/>
      </g>
     </g>
    </g>
   </g>
   <g id="matplotlib.axis_2">
    <g id="ytick_1">
     <g id="line2d_7">
      <defs>
       <path id="m66017e3b23" d="M 0 0 
L -3.5 0 
" style="stroke: #000000; stroke-width: 0.8"/>
      </defs>
      <g>
       <use xlink:href="#m66017e3b23" x="558.62236" y="917.045914" style="stroke: #000000; stroke-width: 0.8"/>
      </g>
     </g>
     <g id="text_7">
      <!-- 600 -->
      <g transform="translate(532.53486 920.845133) scale(0.1 -0.1)">
       <use xlink:href="#DejaVuSans-36"/>
       <use xlink:href="#DejaVuSans-30" x="63.623047"/>
       <use xlink:href="#DejaVuSans-30" x="127.246094"/>
      </g>
     </g>
    </g>
    <g id="ytick_2">
     <g id="line2d_8">
      <g>
       <use xlink:href="#m66017e3b23" x="558.62236" y="798.199851" style="stroke: #000000; stroke-width: 0.8"/>
      </g>
     </g>
     <g id="text_8">
      <!-- 700 -->
      <g transform="translate(532.53486 801.999069) scale(0.1 -0.1)">
       <use xlink:href="#DejaVuSans-37"/>
       <use xlink:href="#DejaVuSans-30" x="63.623047"/>
       <use xlink:href="#DejaVuSans-30" x="127.246094"/>
      </g>
     </g>
    </g>
    <g id="ytick_3">
     <g id="line2d_9">
      <g>
       <use xlink:href="#m66017e3b23" x="558.62236" y="679.353787" style="stroke: #000000; stroke-width: 0.8"/>
      </g>
     </g>
     <g id="text_9">
      <!-- 800 -->
      <g transform="translate(532.53486 683.153006) scale(0.1 -0.1)">
       <use xlink:href="#DejaVuSans-38"/>
       <use xlink:href="#DejaVuSans-30" x="63.623047"/>
       <use xlink:href="#DejaVuSans-30" x="127.246094"/>
      </g>
     </g>
    </g>
    <g id="ytick_4">
     <g id="line2d_10">
      <g>
       <use xlink:href="#m66017e3b23" x="558.62236" y="560.507724" style="stroke: #000000; stroke-width: 0.8"/>
      </g>
     </g>
     <g id="text_10">
      <!-- 900 -->
      <g transform="translate(532.53486 564.306942) scale(0.1 -0.1)">
       <defs>
        <path id="DejaVuSans-39" d="M 703 97 
L 703 672 
Q 941 559 1184 500 
Q 1428 441 1663 441 
Q 2288 441 2617 861 
Q 2947 1281 2994 2138 
Q 2813 1869 2534 1725 
Q 2256 1581 1919 1581 
Q 1219 1581 811 2004 
Q 403 2428 403 3163 
Q 403 3881 828 4315 
Q 1253 4750 1959 4750 
Q 2769 4750 3195 4129 
Q 3622 3509 3622 2328 
Q 3622 1225 3098 567 
Q 2575 -91 1691 -91 
Q 1453 -91 1209 -44 
Q 966 3 703 97 
z
M 1959 2075 
Q 2384 2075 2632 2365 
Q 2881 2656 2881 3163 
Q 2881 3666 2632 3958 
Q 2384 4250 1959 4250 
Q 1534 4250 1286 3958 
Q 1038 3666 1038 3163 
Q 1038 2656 1286 2365 
Q 1534 2075 1959 2075 
z
" transform="scale(0.015625)"/>
       </defs>
       <use xlink:href="#DejaVuSans-39"/>
       <use xlink:href="#DejaVuSans-30" x="63.623047"/>
       <use xlink:href="#DejaVuSans-30" x="127.246094"/>
      </g>
     </g>
    </g>
    <g id="ytick_5">
     <g id="line2d_11">
      <g>
       <use xlink:href="#m66017e3b23" x="558.62236" y="441.66166" style="stroke: #000000; stroke-width: 0.8"/>
      </g>
     </g>
     <g id="text_11">
      <!-- 1000 -->
      <g transform="translate(526.17236 445.460879) scale(0.1 -0.1)">
       <defs>
        <path id="DejaVuSans-31" d="M 794 531 
L 1825 531 
L 1825 4091 
L 703 3866 
L 703 4441 
L 1819 4666 
L 2450 4666 
L 2450 531 
L 3481 531 
L 3481 0 
L 794 0 
L 794 531 
z
" transform="scale(0.015625)"/>
       </defs>
       <use xlink:href="#DejaVuSans-31"/>
       <use xlink:href="#DejaVuSans-30" x="63.623047"/>
       <use xlink:href="#DejaVuSans-30" x="127.246094"/>
       <use xlink:href="#DejaVuSans-30" x="190.869141"/>
      </g>
     </g>
    </g>
    <g id="ytick_6">
     <g id="line2d_12">
      <g>
       <use xlink:href="#m66017e3b23" x="558.62236" y="322.815597" style="stroke: #000000; stroke-width: 0.8"/>
      </g>
     </g>
     <g id="text_12">
      <!-- 1100 -->
      <g transform="translate(526.17236 326.614816) scale(0.1 -0.1)">
       <use xlink:href="#DejaVuSans-31"/>
       <use xlink:href="#DejaVuSans-31" x="63.623047"/>
       <use xlink:href="#DejaVuSans-30" x="127.246094"/>
       <use xlink:href="#DejaVuSans-30" x="190.869141"/>
      </g>
     </g>
    </g>
    <g id="ytick_7">
     <g id="line2d_13">
      <g>
       <use xlink:href="#m66017e3b23" x="558.62236" y="203.969533" style="stroke: #000000; stroke-width: 0.8"/>
      </g>
     </g>
     <g id="text_13">
      <!-- 1200 -->
      <g transform="translate(526.17236 207.768752) scale(0.1 -0.1)">
       <defs>
        <path id="DejaVuSans-32" d="M 1228 531 
L 3431 531 
L 3431 0 
L 469 0 
L 469 531 
Q 828 903 1448 1529 
Q 2069 2156 2228 2338 
Q 2531 2678 2651 2914 
Q 2772 3150 2772 3378 
Q 2772 3750 2511 3984 
Q 2250 4219 1831 4219 
Q 1534 4219 1204 4116 
Q 875 4013 500 3803 
L 500 4441 
Q 881 4594 1212 4672 
Q 1544 4750 1819 4750 
Q 2544 4750 2975 4387 
Q 3406 4025 3406 3419 
Q 3406 3131 3298 2873 
Q 3191 2616 2906 2266 
Q 2828 2175 2409 1742 
Q 1991 1309 1228 531 
z
" transform="scale(0.015625)"/>
       </defs>
       <use xlink:href="#DejaVuSans-31"/>
       <use xlink:href="#DejaVuSans-32" x="63.623047"/>
       <use xlink:href="#DejaVuSans-30" x="127.246094"/>
       <use xlink:href="#DejaVuSans-30" x="190.869141"/>
      </g>
     </g>
    </g>
   </g>
   <g id="LineCollection_1">
    <path d="M 763.048051 922.576434 
L 762.887719 912.860202 
L 763.148825 903.736403 
L 763.68355 894.444042 
L 765.047415 875.275798 
L 765.61104 865.457051 
L 765.927736 855.566673 
L 765.88965 845.630452 
L 765.404377 835.681078 
L 764.398242 825.758847 
L 762.819336 815.910081 
L 760.639292 806.183312 
L 757.852913 796.624183 
L 754.475441 787.270564 
L 750.538122 778.149271 
L 746.083231 769.275044 
L 741.159681 760.651593 
L 735.819842 752.273929 
L 730.117677 744.13115 
L 724.107914 736.209022 
L 717.845862 728.492051 
L 711.387544 720.964976 
L 704.789879 713.613752 
L 698.11082 706.426165 
L 684.745383 692.504307 
L 665.482806 672.57269 
L 659.531151 666.197296 
L 653.916907 659.968363 
L 648.696133 653.896421 
L 643.92117 647.996427 
L 639.638846 642.287964 
L 635.888076 636.794951 
L 632.696793 631.544365 
L 630.078419 626.563266 
L 628.028612 621.873323 
L 626.523896 617.482446 
L 625.524518 613.37443 
L 624.983699 609.499843 
L 624.862953 605.773519 
L 625.148733 602.083388 
L 625.862384 598.31016 
L 627.057551 594.350488 
L 628.806327 590.133601 
L 631.181514 585.62594 
L 634.242595 580.825426 
L 638.028692 575.750935 
L 642.55763 570.431992 
L 647.828482 564.901181 
L 653.825282 559.189599 
L 660.520566 553.324655 
L 667.878214 547.329368 
L 675.855527 541.222454 
L 684.404693 535.018783 
L 693.473781 528.729929 
L 703.007454 522.364697 
L 712.94748 515.929586 
L 733.801639 502.866239 
L 788.687624 469.046687 
L 799.596239 462.061659 
L 810.322469 454.987273 
L 820.801038 447.810421 
L 830.968138 440.513881 
L 840.761523 433.075104 
L 850.120173 425.464674 
L 858.983147 417.644504 
L 867.28705 409.566061 
L 874.96136 401.169446 
L 881.920871 392.385144 
L 886.812896 385.175647 
L 888.055487 383.141715 
L 892.03126 375.875336 
L 893.220473 373.383712 
L 896.232149 366.056408 
L 897.235652 363.101814 
L 899.240792 355.70921 
L 899.906223 352.367246 
L 900.868384 344.904612 
L 901.070581 341.346875 
L 900.959925 333.809107 
L 900.655612 330.272912 
L 899.449514 322.654511 
L 898.699828 319.371768 
L 896.383511 311.666816 
L 895.324744 308.796332 
L 891.891914 300.998474 
L 890.679277 298.60247 
L 884.896152 288.768722 
L 878.07605 279.231554 
L 870.291939 269.914281 
L 861.600876 260.743505 
L 852.055502 251.655796 
L 841.71266 242.598961 
L 830.639165 233.530995 
L 818.915525 224.418435 
L 806.638413 215.234856 
L 780.897458 196.57538 
L 767.660624 187.030013 
L 754.446135 177.360151 
L 741.230398 167.4 
L 741.230398 167.4 
" clip-path="url(#p620ec51913)" style="fill: none; stroke: #1f77b4; stroke-width: 1.5"/>
    <path d="M 738.093775 922.988217 
L 737.924153 912.709041 
L 738.211673 902.6623 
L 738.776956 892.838906 
L 739.462597 883.229897 
L 740.131861 873.826448 
L 740.667411 864.619876 
L 740.970087 855.601644 
L 740.957703 846.763367 
L 740.563893 838.09682 
L 739.736986 829.593937 
L 738.43892 821.24682 
L 736.644187 813.047742 
L 734.338815 804.98915 
L 731.519384 797.063669 
L 728.192073 789.264106 
L 724.371746 781.58345 
L 720.081066 774.01488 
L 715.349645 766.551762 
L 710.213225 759.187652 
L 704.712892 751.9163 
L 698.894321 744.731649 
L 692.807058 737.627839 
L 686.503821 730.599202 
L 680.039847 723.640269 
L 673.472259 716.745766 
L 666.859469 709.910614 
L 660.260607 703.129929 
L 653.734984 696.399024 
L 647.341582 689.7134 
L 641.138571 683.068754 
L 635.182861 676.46097 
L 629.529678 669.88612 
L 624.232166 663.34046 
L 619.341026 656.820428 
L 614.904171 650.322641 
L 610.966415 643.84389 
L 607.569192 637.381138 
L 604.750291 630.931513 
L 602.543631 624.492308 
L 600.979047 618.060971 
L 600.082116 611.635102 
L 599.874 605.212448 
L 600.371313 598.790897 
L 601.586021 592.368471 
L 603.525357 585.943317 
L 606.191767 579.513705 
L 609.582874 573.078018 
L 613.691473 566.634743 
L 618.505541 560.182465 
L 624.008278 553.719859 
L 630.17816 547.245678 
L 636.989026 540.758748 
L 644.410182 534.257955 
L 652.40652 527.742238 
L 660.938671 521.210577 
L 669.96317 514.661982 
L 679.432644 508.095485 
L 689.296018 501.510126 
L 699.49875 494.904941 
L 709.983073 488.278952 
L 720.688266 481.631155 
L 731.55094 474.960503 
L 742.505344 468.265899 
L 753.483689 461.546177 
L 764.41649 454.800092 
L 775.232926 448.026303 
L 785.86122 441.22336 
L 796.22903 434.389689 
L 806.263865 427.523577 
L 815.893511 420.623153 
L 825.046476 413.686376 
L 833.652452 406.711018 
L 841.64279 399.694644 
L 848.950993 392.634597 
L 855.513224 385.52798 
L 861.268822 378.371639 
L 866.160847 371.162142 
L 870.13662 363.895762 
L 873.148296 356.568458 
L 875.153436 349.175855 
L 876.115597 341.713222 
L 876.00494 334.175454 
L 874.798842 326.557053 
L 872.482524 318.8521 
L 869.049694 311.054241 
L 864.503196 303.156661 
L 858.855673 295.152062 
L 852.130242 287.03264 
L 844.361177 278.790063 
L 835.594608 270.415445 
L 825.889218 261.899327 
L 815.316966 253.231646 
L 803.963804 244.401715 
L 791.930416 235.398196 
L 779.332955 226.209072 
L 766.303795 216.821627 
L 752.992291 207.222413 
L 739.565543 197.397228 
L 726.209169 187.331084 
" clip-path="url(#p620ec51913)" style="fill: none; stroke: #8c564b; stroke-width: 1.5"/>
    <path d="M 713.139499 923.4 
L 712.976694 911.99509 
L 713.295219 901.228494 
L 713.882576 891.062592 
L 715.225689 872.215801 
L 715.734062 863.476441 
L 716.011827 855.200419 
L 716.000824 847.347593 
L 715.661146 839.872327 
L 714.965767 832.721922 
L 713.895094 825.837033 
L 712.432304 819.15441 
L 710.560517 812.611444 
L 708.262361 806.15128 
L 705.521738 799.726974 
L 702.326811 793.303666 
L 698.673013 786.858528 
L 694.565174 780.379018 
L 690.018391 773.860274 
L 685.057766 767.302407 
L 679.717345 760.708165 
L 674.038657 754.081161 
L 668.069137 747.424647 
L 661.860612 740.740723 
L 648.947926 727.290586 
L 629.097981 706.744445 
L 622.599826 699.778045 
L 616.258633 692.732388 
L 610.129488 685.587015 
L 604.267668 678.317251 
L 598.729984 670.894176 
L 593.57684 663.285296 
L 588.874965 655.456526 
L 584.700379 647.376279 
L 581.140482 639.022393 
L 578.293245 630.391822 
L 576.728661 623.960484 
L 576.261002 621.511146 
L 575.364071 615.085277 
L 575.137535 612.443393 
L 574.929419 606.02074 
L 574.990835 603.285386 
L 575.488148 596.863835 
L 575.848405 594.152748 
L 577.063113 587.730321 
L 577.693006 585.156723 
L 579.632342 578.731569 
L 580.471503 576.382706 
L 584.111789 567.879272 
L 588.539382 559.659489 
L 593.687986 551.710066 
L 599.503131 544.002421 
L 605.941049 536.501825 
L 612.965428 529.173398 
L 620.543853 521.985317 
L 628.644829 514.91011 
L 637.235611 507.924847 
L 646.28077 501.01079 
L 655.741341 494.152837 
L 665.574378 487.338946 
L 675.732784 480.559609 
L 686.165327 473.807422 
L 707.628001 460.363458 
L 761.881981 426.939508 
L 772.265752 420.293079 
L 782.31376 413.670198 
L 791.946873 407.078954 
L 801.084961 400.530772 
L 809.647546 394.041428 
L 817.554801 387.6324 
L 824.729195 381.332513 
L 831.098251 375.179723 
L 836.599106 369.222531 
L 841.185684 363.519716 
L 844.838886 358.135902 
L 847.57836 353.129062 
L 849.47016 348.526379 
L 850.619024 344.290715 
L 851.134392 340.293464 
L 851.076071 336.320745 
L 850.412034 332.12631 
L 849.022784 327.505135 
L 846.749249 322.340678 
L 843.447323 316.605006 
L 839.01936 310.328968 
L 833.420013 303.569035 
L 826.648311 296.384608 
L 818.736767 288.826789 
L 809.742522 280.934673 
L 799.741573 272.735377 
L 788.825525 264.245411 
L 777.100011 255.472246 
L 751.714307 237.070881 
L 738.253817 227.363487 
L 724.544313 217.328312 
L 711.18794 207.262169 
L 711.18794 207.262169 
" clip-path="url(#p620ec51913)" style="fill: none; stroke: #17becf; stroke-width: 1.5"/>
   </g>
   <g id="patch_3">
    <path d="M 558.62236 961.2 
L 558.62236 129.6 
" style="fill: none; stroke: #000000; stroke-width: 0.8; stroke-linejoin: miter; stroke-linecap: square"/>
   </g>
   <g id="patch_4">
    <path d="M 917.37764 961.2 
L 917.37764 129.6 
" style="fill: none; stroke: #000000; stroke-width: 0.8; stroke-linejoin: miter; stroke-linecap: square"/>
   </g>
   <g id="patch_5">
    <path d="M 558.62236 961.2 
L 917.37764 961.2 
" style="fill: none; stroke: #000000; stroke-width: 0.8; stroke-linejoin: miter; stroke-linecap: square"/>
   </g>
   <g id="patch_6">
    <path d="M 558.62236 129.6 
L 917.37764 129.6 
" style="fill: none; stroke: #000000; stroke-width: 0.8; stroke-linejoin: miter; stroke-linecap: square"/>
   </g>
  </g>
 </g>
 <defs>
  <clipPath id="p620ec51913">
   <rect x="558.62236" y="129.6" width="358.755279" height="831.6"/>
  </clipPath>
 </defs>
</svg>
