<?xml version="1.0" encoding="utf-8" standalone="no"?>
<!DOCTYPE svg PUBLIC "-//W3C//DTD SVG 1.1//EN"
  "http://www.w3.org/Graphics/SVG/1.1/DTD/svg11.dtd">
<svg xmlns:xlink="http://www.w3.org/1999/xlink" width="1440pt" height="1080pt" viewBox="0 0 1440 1080" xmlns="http://www.w3.org/2000/svg" version="1.1">
 <metadata>
  <rdf:RDF xmlns:dc="http://purl.org/dc/elements/1.1/" xmlns:cc="http://creativecommons.org/ns#" xmlns:rdf="http://www.w3.org/1999/02/22-rdf-syntax-ns#">
   <cc:Work>
    <dc:type rdf:resource="http://purl.org/dc/dcmitype/StillImage"/>
    <dc:date>2023-12-11T12:06:55.218169</dc:date>
    <dc:format>image/svg+xml</dc:format>
    <dc:creator>
     <cc:Agent>
      <dc:title>Matplotlib v3.7.1, https://matplotlib.org/</dc:title>
     </cc:Agent>
    </dc:creator>
   </cc:Work>
  </rdf:RDF>
 </metadata>
 <defs>
  <style type="text/css">*{stroke-linejoin: round; stroke-linecap: butt}</style>
 </defs>
 <g id="figure_1">
  <g id="patch_1">
   <path d="M 0 1080 
L 1440 1080 
L 1440 0 
L 0 0 
z
" style="fill: #ffffff"/>
  </g>
  <g id="axes_1">
   <g id="patch_2">
    <path d="M 236.984572 961.2 
L 1239.015428 961.2 
L 1239.015428 129.6 
L 236.984572 129.6 
z
" style="fill: #ffffff"/>
   </g>
   <g id="matplotlib.axis_1">
    <g id="xtick_1">
     <g id="line2d_1">
      <defs>
       <path id="m3bff35687e" d="M 0 0 
L 0 3.5 
" style="stroke: #000000; stroke-width: 0.8"/>
      </defs>
      <g>
       <use xlink:href="#m3bff35687e" x="338.522919" y="961.2" style="stroke: #000000; stroke-width: 0.8"/>
      </g>
     </g>
     <g id="text_1">
      <!-- 300 -->
      <g transform="translate(328.979169 975.798437) scale(0.1 -0.1)">
       <defs>
        <path id="DejaVuSans-33" d="M 2597 2516 
Q 3050 2419 3304 2112 
Q 3559 1806 3559 1356 
Q 3559 666 3084 287 
Q 2609 -91 1734 -91 
Q 1441 -91 1130 -33 
Q 819 25 488 141 
L 488 750 
Q 750 597 1062 519 
Q 1375 441 1716 441 
Q 2309 441 2620 675 
Q 2931 909 2931 1356 
Q 2931 1769 2642 2001 
Q 2353 2234 1838 2234 
L 1294 2234 
L 1294 2753 
L 1863 2753 
Q 2328 2753 2575 2939 
Q 2822 3125 2822 3475 
Q 2822 3834 2567 4026 
Q 2313 4219 1838 4219 
Q 1578 4219 1281 4162 
Q 984 4106 628 3988 
L 628 4550 
Q 988 4650 1302 4700 
Q 1616 4750 1894 4750 
Q 2613 4750 3031 4423 
Q 3450 4097 3450 3541 
Q 3450 3153 3228 2886 
Q 3006 2619 2597 2516 
z
" transform="scale(0.015625)"/>
        <path id="DejaVuSans-30" d="M 2034 4250 
Q 1547 4250 1301 3770 
Q 1056 3291 1056 2328 
Q 1056 1369 1301 889 
Q 1547 409 2034 409 
Q 2525 409 2770 889 
Q 3016 1369 3016 2328 
Q 3016 3291 2770 3770 
Q 2525 4250 2034 4250 
z
M 2034 4750 
Q 2819 4750 3233 4129 
Q 3647 3509 3647 2328 
Q 3647 1150 3233 529 
Q 2819 -91 2034 -91 
Q 1250 -91 836 529 
Q 422 1150 422 2328 
Q 422 3509 836 4129 
Q 1250 4750 2034 4750 
z
" transform="scale(0.015625)"/>
       </defs>
       <use xlink:href="#DejaVuSans-33"/>
       <use xlink:href="#DejaVuSans-30" x="63.623047"/>
       <use xlink:href="#DejaVuSans-30" x="127.246094"/>
      </g>
     </g>
    </g>
    <g id="xtick_2">
     <g id="line2d_2">
      <g>
       <use xlink:href="#m3bff35687e" x="462.937996" y="961.2" style="stroke: #000000; stroke-width: 0.8"/>
      </g>
     </g>
     <g id="text_2">
      <!-- 400 -->
      <g transform="translate(453.394246 975.798437) scale(0.1 -0.1)">
       <defs>
        <path id="DejaVuSans-34" d="M 2419 4116 
L 825 1625 
L 2419 1625 
L 2419 4116 
z
M 2253 4666 
L 3047 4666 
L 3047 1625 
L 3713 1625 
L 3713 1100 
L 3047 1100 
L 3047 0 
L 2419 0 
L 2419 1100 
L 313 1100 
L 313 1709 
L 2253 4666 
z
" transform="scale(0.015625)"/>
       </defs>
       <use xlink:href="#DejaVuSans-34"/>
       <use xlink:href="#DejaVuSans-30" x="63.623047"/>
       <use xlink:href="#DejaVuSans-30" x="127.246094"/>
      </g>
     </g>
    </g>
    <g id="xtick_3">
     <g id="line2d_3">
      <g>
       <use xlink:href="#m3bff35687e" x="587.353073" y="961.2" style="stroke: #000000; stroke-width: 0.8"/>
      </g>
     </g>
     <g id="text_3">
      <!-- 500 -->
      <g transform="translate(577.809323 975.798437) scale(0.1 -0.1)">
       <defs>
        <path id="DejaVuSans-35" d="M 691 4666 
L 3169 4666 
L 3169 4134 
L 1269 4134 
L 1269 2991 
Q 1406 3038 1543 3061 
Q 1681 3084 1819 3084 
Q 2600 3084 3056 2656 
Q 3513 2228 3513 1497 
Q 3513 744 3044 326 
Q 2575 -91 1722 -91 
Q 1428 -91 1123 -41 
Q 819 9 494 109 
L 494 744 
Q 775 591 1075 516 
Q 1375 441 1709 441 
Q 2250 441 2565 725 
Q 2881 1009 2881 1497 
Q 2881 1984 2565 2268 
Q 2250 2553 1709 2553 
Q 1456 2553 1204 2497 
Q 953 2441 691 2322 
L 691 4666 
z
" transform="scale(0.015625)"/>
       </defs>
       <use xlink:href="#DejaVuSans-35"/>
       <use xlink:href="#DejaVuSans-30" x="63.623047"/>
       <use xlink:href="#DejaVuSans-30" x="127.246094"/>
      </g>
     </g>
    </g>
    <g id="xtick_4">
     <g id="line2d_4">
      <g>
       <use xlink:href="#m3bff35687e" x="711.768151" y="961.2" style="stroke: #000000; stroke-width: 0.8"/>
      </g>
     </g>
     <g id="text_4">
      <!-- 600 -->
      <g transform="translate(702.224401 975.798437) scale(0.1 -0.1)">
       <defs>
        <path id="DejaVuSans-36" d="M 2113 2584 
Q 1688 2584 1439 2293 
Q 1191 2003 1191 1497 
Q 1191 994 1439 701 
Q 1688 409 2113 409 
Q 2538 409 2786 701 
Q 3034 994 3034 1497 
Q 3034 2003 2786 2293 
Q 2538 2584 2113 2584 
z
M 3366 4563 
L 3366 3988 
Q 3128 4100 2886 4159 
Q 2644 4219 2406 4219 
Q 1781 4219 1451 3797 
Q 1122 3375 1075 2522 
Q 1259 2794 1537 2939 
Q 1816 3084 2150 3084 
Q 2853 3084 3261 2657 
Q 3669 2231 3669 1497 
Q 3669 778 3244 343 
Q 2819 -91 2113 -91 
Q 1303 -91 875 529 
Q 447 1150 447 2328 
Q 447 3434 972 4092 
Q 1497 4750 2381 4750 
Q 2619 4750 2861 4703 
Q 3103 4656 3366 4563 
z
" transform="scale(0.015625)"/>
       </defs>
       <use xlink:href="#DejaVuSans-36"/>
       <use xlink:href="#DejaVuSans-30" x="63.623047"/>
       <use xlink:href="#DejaVuSans-30" x="127.246094"/>
      </g>
     </g>
    </g>
    <g id="xtick_5">
     <g id="line2d_5">
      <g>
       <use xlink:href="#m3bff35687e" x="836.183228" y="961.2" style="stroke: #000000; stroke-width: 0.8"/>
      </g>
     </g>
     <g id="text_5">
      <!-- 700 -->
      <g transform="translate(826.639478 975.798437) scale(0.1 -0.1)">
       <defs>
        <path id="DejaVuSans-37" d="M 525 4666 
L 3525 4666 
L 3525 4397 
L 1831 0 
L 1172 0 
L 2766 4134 
L 525 4134 
L 525 4666 
z
" transform="scale(0.015625)"/>
       </defs>
       <use xlink:href="#DejaVuSans-37"/>
       <use xlink:href="#DejaVuSans-30" x="63.623047"/>
       <use xlink:href="#DejaVuSans-30" x="127.246094"/>
      </g>
     </g>
    </g>
    <g id="xtick_6">
     <g id="line2d_6">
      <g>
       <use xlink:href="#m3bff35687e" x="960.598305" y="961.2" style="stroke: #000000; stroke-width: 0.8"/>
      </g>
     </g>
     <g id="text_6">
      <!-- 800 -->
      <g transform="translate(951.054555 975.798437) scale(0.1 -0.1)">
       <defs>
        <path id="DejaVuSans-38" d="M 2034 2216 
Q 1584 2216 1326 1975 
Q 1069 1734 1069 1313 
Q 1069 891 1326 650 
Q 1584 409 2034 409 
Q 2484 409 2743 651 
Q 3003 894 3003 1313 
Q 3003 1734 2745 1975 
Q 2488 2216 2034 2216 
z
M 1403 2484 
Q 997 2584 770 2862 
Q 544 3141 544 3541 
Q 544 4100 942 4425 
Q 1341 4750 2034 4750 
Q 2731 4750 3128 4425 
Q 3525 4100 3525 3541 
Q 3525 3141 3298 2862 
Q 3072 2584 2669 2484 
Q 3125 2378 3379 2068 
Q 3634 1759 3634 1313 
Q 3634 634 3220 271 
Q 2806 -91 2034 -91 
Q 1263 -91 848 271 
Q 434 634 434 1313 
Q 434 1759 690 2068 
Q 947 2378 1403 2484 
z
M 1172 3481 
Q 1172 3119 1398 2916 
Q 1625 2713 2034 2713 
Q 2441 2713 2670 2916 
Q 2900 3119 2900 3481 
Q 2900 3844 2670 4047 
Q 2441 4250 2034 4250 
Q 1625 4250 1398 4047 
Q 1172 3844 1172 3481 
z
" transform="scale(0.015625)"/>
       </defs>
       <use xlink:href="#DejaVuSans-38"/>
       <use xlink:href="#DejaVuSans-30" x="63.623047"/>
       <use xlink:href="#DejaVuSans-30" x="127.246094"/>
      </g>
     </g>
    </g>
    <g id="xtick_7">
     <g id="line2d_7">
      <g>
       <use xlink:href="#m3bff35687e" x="1085.013383" y="961.2" style="stroke: #000000; stroke-width: 0.8"/>
      </g>
     </g>
     <g id="text_7">
      <!-- 900 -->
      <g transform="translate(1075.469633 975.798437) scale(0.1 -0.1)">
       <defs>
        <path id="DejaVuSans-39" d="M 703 97 
L 703 672 
Q 941 559 1184 500 
Q 1428 441 1663 441 
Q 2288 441 2617 861 
Q 2947 1281 2994 2138 
Q 2813 1869 2534 1725 
Q 2256 1581 1919 1581 
Q 1219 1581 811 2004 
Q 403 2428 403 3163 
Q 403 3881 828 4315 
Q 1253 4750 1959 4750 
Q 2769 4750 3195 4129 
Q 3622 3509 3622 2328 
Q 3622 1225 3098 567 
Q 2575 -91 1691 -91 
Q 1453 -91 1209 -44 
Q 966 3 703 97 
z
M 1959 2075 
Q 2384 2075 2632 2365 
Q 2881 2656 2881 3163 
Q 2881 3666 2632 3958 
Q 2384 4250 1959 4250 
Q 1534 4250 1286 3958 
Q 1038 3666 1038 3163 
Q 1038 2656 1286 2365 
Q 1534 2075 1959 2075 
z
" transform="scale(0.015625)"/>
       </defs>
       <use xlink:href="#DejaVuSans-39"/>
       <use xlink:href="#DejaVuSans-30" x="63.623047"/>
       <use xlink:href="#DejaVuSans-30" x="127.246094"/>
      </g>
     </g>
    </g>
    <g id="xtick_8">
     <g id="line2d_8">
      <g>
       <use xlink:href="#m3bff35687e" x="1209.42846" y="961.2" style="stroke: #000000; stroke-width: 0.8"/>
      </g>
     </g>
     <g id="text_8">
      <!-- 1000 -->
      <g transform="translate(1196.70346 975.798437) scale(0.1 -0.1)">
       <defs>
        <path id="DejaVuSans-31" d="M 794 531 
L 1825 531 
L 1825 4091 
L 703 3866 
L 703 4441 
L 1819 4666 
L 2450 4666 
L 2450 531 
L 3481 531 
L 3481 0 
L 794 0 
L 794 531 
z
" transform="scale(0.015625)"/>
       </defs>
       <use xlink:href="#DejaVuSans-31"/>
       <use xlink:href="#DejaVuSans-30" x="63.623047"/>
       <use xlink:href="#DejaVuSans-30" x="127.246094"/>
       <use xlink:href="#DejaVuSans-30" x="190.869141"/>
      </g>
     </g>
    </g>
   </g>
   <g id="matplotlib.axis_2">
    <g id="ytick_1">
     <g id="line2d_9">
      <defs>
       <path id="m9309c49fa7" d="M 0 0 
L -3.5 0 
" style="stroke: #000000; stroke-width: 0.8"/>
      </defs>
      <g>
       <use xlink:href="#m9309c49fa7" x="236.984572" y="904.632493" style="stroke: #000000; stroke-width: 0.8"/>
      </g>
     </g>
     <g id="text_9">
      <!-- 700 -->
      <g transform="translate(210.897072 908.431712) scale(0.1 -0.1)">
       <use xlink:href="#DejaVuSans-37"/>
       <use xlink:href="#DejaVuSans-30" x="63.623047"/>
       <use xlink:href="#DejaVuSans-30" x="127.246094"/>
      </g>
     </g>
    </g>
    <g id="ytick_2">
     <g id="line2d_10">
      <g>
       <use xlink:href="#m9309c49fa7" x="236.984572" y="780.217416" style="stroke: #000000; stroke-width: 0.8"/>
      </g>
     </g>
     <g id="text_10">
      <!-- 800 -->
      <g transform="translate(210.897072 784.016635) scale(0.1 -0.1)">
       <use xlink:href="#DejaVuSans-38"/>
       <use xlink:href="#DejaVuSans-30" x="63.623047"/>
       <use xlink:href="#DejaVuSans-30" x="127.246094"/>
      </g>
     </g>
    </g>
    <g id="ytick_3">
     <g id="line2d_11">
      <g>
       <use xlink:href="#m9309c49fa7" x="236.984572" y="655.802339" style="stroke: #000000; stroke-width: 0.8"/>
      </g>
     </g>
     <g id="text_11">
      <!-- 900 -->
      <g transform="translate(210.897072 659.601558) scale(0.1 -0.1)">
       <use xlink:href="#DejaVuSans-39"/>
       <use xlink:href="#DejaVuSans-30" x="63.623047"/>
       <use xlink:href="#DejaVuSans-30" x="127.246094"/>
      </g>
     </g>
    </g>
    <g id="ytick_4">
     <g id="line2d_12">
      <g>
       <use xlink:href="#m9309c49fa7" x="236.984572" y="531.387261" style="stroke: #000000; stroke-width: 0.8"/>
      </g>
     </g>
     <g id="text_12">
      <!-- 1000 -->
      <g transform="translate(204.534572 535.18648) scale(0.1 -0.1)">
       <use xlink:href="#DejaVuSans-31"/>
       <use xlink:href="#DejaVuSans-30" x="63.623047"/>
       <use xlink:href="#DejaVuSans-30" x="127.246094"/>
       <use xlink:href="#DejaVuSans-30" x="190.869141"/>
      </g>
     </g>
    </g>
    <g id="ytick_5">
     <g id="line2d_13">
      <g>
       <use xlink:href="#m9309c49fa7" x="236.984572" y="406.972184" style="stroke: #000000; stroke-width: 0.8"/>
      </g>
     </g>
     <g id="text_13">
      <!-- 1100 -->
      <g transform="translate(204.534572 410.771403) scale(0.1 -0.1)">
       <use xlink:href="#DejaVuSans-31"/>
       <use xlink:href="#DejaVuSans-31" x="63.623047"/>
       <use xlink:href="#DejaVuSans-30" x="127.246094"/>
       <use xlink:href="#DejaVuSans-30" x="190.869141"/>
      </g>
     </g>
    </g>
    <g id="ytick_6">
     <g id="line2d_14">
      <g>
       <use xlink:href="#m9309c49fa7" x="236.984572" y="282.557107" style="stroke: #000000; stroke-width: 0.8"/>
      </g>
     </g>
     <g id="text_14">
      <!-- 1200 -->
      <g transform="translate(204.534572 286.356326) scale(0.1 -0.1)">
       <defs>
        <path id="DejaVuSans-32" d="M 1228 531 
L 3431 531 
L 3431 0 
L 469 0 
L 469 531 
Q 828 903 1448 1529 
Q 2069 2156 2228 2338 
Q 2531 2678 2651 2914 
Q 2772 3150 2772 3378 
Q 2772 3750 2511 3984 
Q 2250 4219 1831 4219 
Q 1534 4219 1204 4116 
Q 875 4013 500 3803 
L 500 4441 
Q 881 4594 1212 4672 
Q 1544 4750 1819 4750 
Q 2544 4750 2975 4387 
Q 3406 4025 3406 3419 
Q 3406 3131 3298 2873 
Q 3191 2616 2906 2266 
Q 2828 2175 2409 1742 
Q 1991 1309 1228 531 
z
" transform="scale(0.015625)"/>
       </defs>
       <use xlink:href="#DejaVuSans-31"/>
       <use xlink:href="#DejaVuSans-32" x="63.623047"/>
       <use xlink:href="#DejaVuSans-30" x="127.246094"/>
       <use xlink:href="#DejaVuSans-30" x="190.869141"/>
      </g>
     </g>
    </g>
    <g id="ytick_7">
     <g id="line2d_15">
      <g>
       <use xlink:href="#m9309c49fa7" x="236.984572" y="158.14203" style="stroke: #000000; stroke-width: 0.8"/>
      </g>
     </g>
     <g id="text_15">
      <!-- 1300 -->
      <g transform="translate(204.534572 161.941248) scale(0.1 -0.1)">
       <use xlink:href="#DejaVuSans-31"/>
       <use xlink:href="#DejaVuSans-33" x="63.623047"/>
       <use xlink:href="#DejaVuSans-30" x="127.246094"/>
       <use xlink:href="#DejaVuSans-30" x="190.869141"/>
      </g>
     </g>
    </g>
   </g>
   <g id="LineCollection_1">
    <path d="M 282.531429 201.138392 
L 291.209014 214.580736 
L 293.803491 218.044654 
L 303.563696 229.342963 
L 306.517612 232.328615 
L 317.192871 241.751669 
L 320.250498 244.128991 
L 331.684901 251.927752 
L 334.605393 253.693052 
L 346.654287 260.101265 
L 349.269098 261.339548 
L 364.021865 267.405036 
L 378.717218 272.205363 
L 393.255231 276.018752 
L 407.561589 279.083357 
L 421.574728 281.601159 
L 435.239194 283.743343 
L 473.841423 289.292287 
L 485.738688 291.199099 
L 497.054921 293.263258 
L 507.760397 295.540684 
L 517.833851 298.073181 
L 527.264781 300.89031 
L 536.05567 304.012029 
L 544.223607 307.452288 
L 551.800602 311.223428 
L 558.831888 315.340792 
L 565.371909 319.826475 
L 571.478448 324.711056 
L 577.206139 330.032539 
L 582.601018 335.832662 
L 587.697448 342.151677 
L 592.51786 349.023162 
L 597.074782 356.470174 
L 601.374102 364.503361 
L 605.41849 373.120928 
L 609.210256 382.309901 
L 612.753348 392.048083 
L 616.054497 402.306157 
L 619.12368 413.049645 
L 621.974117 424.240559 
L 624.62199 435.838724 
L 627.086015 447.802789 
L 629.386968 460.090999 
L 631.547217 472.661769 
L 633.590283 485.474116 
L 637.422433 511.664532 
L 648.673717 592.276655 
L 650.760908 605.665988 
L 652.9669 618.966715 
L 655.311657 632.156096 
L 657.814129 645.213277 
L 660.492221 658.119237 
L 663.362782 670.856712 
L 666.441585 683.410103 
L 669.743321 695.765363 
L 673.281603 707.909883 
L 677.068966 719.832361 
L 681.116891 731.522679 
L 685.435829 742.971779 
L 690.03526 754.171552 
L 694.923778 765.114731 
L 700.109211 775.794795 
L 705.598798 786.205877 
L 711.399411 796.342655 
L 717.517848 806.20023 
L 723.961174 815.77396 
L 730.737116 825.059232 
L 737.854501 834.051165 
L 745.32371 842.744205 
L 753.15713 851.131625 
L 761.369575 859.204896 
L 769.978633 866.952953 
L 779.00492 874.361343 
L 788.472183 881.411294 
L 798.407229 888.078739 
L 808.839655 894.333358 
L 819.801371 900.137718 
L 831.325961 905.446638 
L 843.447992 910.20686 
L 856.202435 914.357134 
L 869.624433 917.828727 
L 883.749691 920.546243 
L 898.615663 922.428548 
L 914.263611 923.389446 
L 930.741364 923.33777 
L 948.106436 922.176642 
L 966.429032 919.801858 
L 985.794544 916.099552 
L 1006.305264 910.943489 
L 1028.081303 904.1923 
L 1051.260843 895.686982 
L 1075.999973 885.248785 
L 1102.472366 872.677522 
L 1130.868982 857.750243 
L 1161.397948 840.220154 
L 1193.468571 820.339355 
L 1193.468571 820.339355 
" clip-path="url(#p2402bbc948)" style="fill: none; stroke: #1f77b4; stroke-width: 1.5"/>
    <path d="M 308.6633 184.269196 
L 317.340885 197.71154 
L 327.10109 209.009849 
L 337.77635 218.432902 
L 349.210752 226.231662 
L 361.259647 232.639876 
L 373.789249 237.874667 
L 386.676246 242.137135 
L 399.807414 245.612941 
L 413.079224 248.472898 
L 426.397457 250.873553 
L 439.676825 252.957764 
L 452.840586 254.855272 
L 465.820171 256.683277 
L 478.554809 258.546991 
L 490.991159 260.540204 
L 503.082939 262.745829 
L 514.790572 265.236448 
L 526.080823 268.074851 
L 536.926449 271.314567 
L 547.305853 275.000381 
L 557.202736 279.168855 
L 566.60577 283.848832 
L 575.508258 289.06193 
L 583.907816 294.823036 
L 591.806049 301.140782 
L 599.208245 308.018013 
L 606.123065 315.45225 
L 612.562249 323.436132 
L 618.540322 331.95786 
L 624.074314 341.00162 
L 629.183486 350.547998 
L 633.889059 360.574382 
L 638.21396 371.055356 
L 642.182569 381.963071 
L 645.820483 393.267615 
L 649.154278 404.937365 
L 652.211295 416.939318 
L 655.019421 429.23942 
L 657.606891 441.802874 
L 660.002096 454.594433 
L 662.233399 467.578675 
L 664.328967 480.720274 
L 666.316613 493.984241 
L 668.223644 507.336156 
L 670.076727 520.742384 
L 671.901766 534.17027 
L 673.723787 547.588322 
L 675.566839 560.966367 
L 677.453908 574.275702 
L 679.406841 587.489216 
L 681.446285 600.581495 
L 683.591641 613.528912 
L 685.861028 626.309694 
L 688.271265 638.903973 
L 690.837863 651.293806 
L 693.575037 663.46319 
L 696.495726 675.398046 
L 699.611636 687.086179 
L 702.933289 698.517229 
L 706.470097 709.682584 
L 710.230445 720.575286 
L 714.221794 731.1899 
L 718.450797 741.522371 
L 722.923434 751.569852 
L 727.645167 761.330507 
L 732.621102 770.803296 
L 737.856183 779.987727 
L 743.355388 788.883591 
L 749.123956 797.490666 
L 755.167625 805.808397 
L 761.492891 813.835553 
L 768.107283 821.569852 
L 775.019664 829.007563 
L 782.24054 836.143082 
L 789.782403 842.968475 
L 797.660076 849.473 
L 805.891098 855.642595 
L 814.496112 861.459342 
L 823.499284 866.9009 
L 832.928739 871.939905 
L 842.817019 876.543351 
L 853.201563 880.671926 
L 864.125204 884.279332 
L 875.6367 887.311566 
L 887.791271 889.70617 
L 900.651168 891.391454 
L 914.286268 892.285685 
L 928.774682 892.296239 
L 944.203394 891.31873 
L 960.668919 889.2361 
L 978.27799 885.917672 
L 997.148262 881.218183 
L 1017.409048 874.976766 
L 1039.20207 867.015908 
L 1062.682248 857.140376 
L 1088.018499 845.136095 
L 1115.394575 830.769005 
L 1145.009917 813.783874 
L 1177.08054 793.903075 
" clip-path="url(#p2402bbc948)" style="fill: none; stroke: #8c564b; stroke-width: 1.5"/>
    <path d="M 334.795172 167.4 
L 342.296305 179.019916 
L 349.262546 187.083963 
L 356.905165 193.830104 
L 365.324851 199.572696 
L 374.586428 204.498473 
L 384.684072 208.717207 
L 395.547612 212.310401 
L 407.066947 215.359557 
L 419.115868 217.955993 
L 431.568303 220.200585 
L 444.307186 222.199966 
L 483.477089 227.835176 
L 496.572607 229.941317 
L 509.55496 232.322853 
L 522.374172 235.071344 
L 534.983195 238.272297 
L 547.334879 242.004005 
L 559.379247 246.335461 
L 571.06171 251.32333 
L 582.322981 257.008307 
L 593.10125 263.411762 
L 603.33661 270.533812 
L 612.976864 278.353921 
L 621.983156 286.834343 
L 630.333802 295.925737 
L 638.025379 305.573505 
L 645.071134 315.723315 
L 651.497592 326.324824 
L 657.340512 337.33337 
L 662.641134 348.710039 
L 667.443212 360.420728 
L 671.790956 372.434801 
L 675.727785 384.723745 
L 679.295667 397.260053 
L 682.534849 410.016419 
L 685.483807 422.965214 
L 688.179311 436.078224 
L 690.656525 449.326562 
L 692.949105 462.680727 
L 695.089279 476.110748 
L 699.034465 503.077313 
L 710.158628 582.821587 
L 712.156254 595.645413 
L 714.247718 608.267588 
L 716.449448 620.66734 
L 718.776274 632.82577 
L 721.241442 644.725965 
L 723.856649 656.353088 
L 726.632098 667.694445 
L 729.576577 678.739524 
L 732.697566 689.480011 
L 736.001359 699.909763 
L 739.493224 710.024741 
L 743.177568 719.822904 
L 747.058123 729.304034 
L 751.138141 738.469521 
L 755.420583 747.322086 
L 759.908301 755.865444 
L 764.604201 764.103937 
L 769.511387 772.042113 
L 774.633279 779.684304 
L 779.97371 787.034189 
L 785.537023 794.09438 
L 791.328165 800.866042 
L 797.352818 807.348559 
L 803.617579 813.539264 
L 810.130235 819.433225 
L 816.90016 825.023092 
L 823.938876 830.298989 
L 831.26081 835.24841 
L 838.88429 839.856076 
L 846.832778 844.103667 
L 855.136341 847.969355 
L 863.833267 851.426985 
L 872.97171 854.44485 
L 882.611145 856.983966 
L 892.82338 858.995905 
L 903.692904 860.420352 
L 915.316429 861.182658 
L 927.801674 861.191753 
L 941.26566 860.338722 
L 955.832925 858.496191 
L 971.634107 855.518461 
L 988.805234 851.24213 
L 1007.487867 845.486869 
L 1027.830036 838.055999 
L 1049.987761 828.736677 
L 1074.126915 817.299579 
L 1100.425195 803.498121 
L 1129.074038 787.067302 
L 1160.692509 767.466795 
L 1160.692509 767.466795 
" clip-path="url(#p2402bbc948)" style="fill: none; stroke: #17becf; stroke-width: 1.5"/>
   </g>
   <g id="patch_3">
    <path d="M 236.984572 961.2 
L 236.984572 129.6 
" style="fill: none; stroke: #000000; stroke-width: 0.8; stroke-linejoin: miter; stroke-linecap: square"/>
   </g>
   <g id="patch_4">
    <path d="M 1239.015428 961.2 
L 1239.015428 129.6 
" style="fill: none; stroke: #000000; stroke-width: 0.8; stroke-linejoin: miter; stroke-linecap: square"/>
   </g>
   <g id="patch_5">
    <path d="M 236.984572 961.2 
L 1239.015428 961.2 
" style="fill: none; stroke: #000000; stroke-width: 0.8; stroke-linejoin: miter; stroke-linecap: square"/>
   </g>
   <g id="patch_6">
    <path d="M 236.984572 129.6 
L 1239.015428 129.6 
" style="fill: none; stroke: #000000; stroke-width: 0.8; stroke-linejoin: miter; stroke-linecap: square"/>
   </g>
  </g>
 </g>
 <defs>
  <clipPath id="p2402bbc948">
   <rect x="236.984572" y="129.6" width="1002.030857" height="831.6"/>
  </clipPath>
 </defs>
</svg>
