<?xml version="1.0" encoding="utf-8" standalone="no"?>
<!DOCTYPE svg PUBLIC "-//W3C//DTD SVG 1.1//EN"
  "http://www.w3.org/Graphics/SVG/1.1/DTD/svg11.dtd">
<svg xmlns:xlink="http://www.w3.org/1999/xlink" width="1440pt" height="1080pt" viewBox="0 0 1440 1080" xmlns="http://www.w3.org/2000/svg" version="1.1">
 <metadata>
  <rdf:RDF xmlns:dc="http://purl.org/dc/elements/1.1/" xmlns:cc="http://creativecommons.org/ns#" xmlns:rdf="http://www.w3.org/1999/02/22-rdf-syntax-ns#">
   <cc:Work>
    <dc:type rdf:resource="http://purl.org/dc/dcmitype/StillImage"/>
    <dc:date>2023-12-11T12:07:02.811609</dc:date>
    <dc:format>image/svg+xml</dc:format>
    <dc:creator>
     <cc:Agent>
      <dc:title>Matplotlib v3.7.1, https://matplotlib.org/</dc:title>
     </cc:Agent>
    </dc:creator>
   </cc:Work>
  </rdf:RDF>
 </metadata>
 <defs>
  <style type="text/css">*{stroke-linejoin: round; stroke-linecap: butt}</style>
 </defs>
 <g id="figure_1">
  <g id="patch_1">
   <path d="M 0 1080 
L 1440 1080 
L 1440 0 
L 0 0 
z
" style="fill: #ffffff"/>
  </g>
  <g id="axes_1">
   <g id="patch_2">
    <path d="M 180 855.900442 
L 1296 855.900442 
L 1296 234.899558 
L 180 234.899558 
z
" style="fill: #ffffff"/>
   </g>
   <g id="matplotlib.axis_1">
    <g id="xtick_1">
     <g id="line2d_1">
      <defs>
       <path id="m04ce621295" d="M 0 0 
L 0 3.5 
" style="stroke: #000000; stroke-width: 0.8"/>
      </defs>
      <g>
       <use xlink:href="#m04ce621295" x="211.155553" y="855.900442" style="stroke: #000000; stroke-width: 0.8"/>
      </g>
     </g>
     <g id="text_1">
      <!-- 100 -->
      <g transform="translate(201.611803 870.49888) scale(0.1 -0.1)">
       <defs>
        <path id="DejaVuSans-31" d="M 794 531 
L 1825 531 
L 1825 4091 
L 703 3866 
L 703 4441 
L 1819 4666 
L 2450 4666 
L 2450 531 
L 3481 531 
L 3481 0 
L 794 0 
L 794 531 
z
" transform="scale(0.015625)"/>
        <path id="DejaVuSans-30" d="M 2034 4250 
Q 1547 4250 1301 3770 
Q 1056 3291 1056 2328 
Q 1056 1369 1301 889 
Q 1547 409 2034 409 
Q 2525 409 2770 889 
Q 3016 1369 3016 2328 
Q 3016 3291 2770 3770 
Q 2525 4250 2034 4250 
z
M 2034 4750 
Q 2819 4750 3233 4129 
Q 3647 3509 3647 2328 
Q 3647 1150 3233 529 
Q 2819 -91 2034 -91 
Q 1250 -91 836 529 
Q 422 1150 422 2328 
Q 422 3509 836 4129 
Q 1250 4750 2034 4750 
z
" transform="scale(0.015625)"/>
       </defs>
       <use xlink:href="#DejaVuSans-31"/>
       <use xlink:href="#DejaVuSans-30" x="63.623047"/>
       <use xlink:href="#DejaVuSans-30" x="127.246094"/>
      </g>
     </g>
    </g>
    <g id="xtick_2">
     <g id="line2d_2">
      <g>
       <use xlink:href="#m04ce621295" x="362.124627" y="855.900442" style="stroke: #000000; stroke-width: 0.8"/>
      </g>
     </g>
     <g id="text_2">
      <!-- 200 -->
      <g transform="translate(352.580877 870.49888) scale(0.1 -0.1)">
       <defs>
        <path id="DejaVuSans-32" d="M 1228 531 
L 3431 531 
L 3431 0 
L 469 0 
L 469 531 
Q 828 903 1448 1529 
Q 2069 2156 2228 2338 
Q 2531 2678 2651 2914 
Q 2772 3150 2772 3378 
Q 2772 3750 2511 3984 
Q 2250 4219 1831 4219 
Q 1534 4219 1204 4116 
Q 875 4013 500 3803 
L 500 4441 
Q 881 4594 1212 4672 
Q 1544 4750 1819 4750 
Q 2544 4750 2975 4387 
Q 3406 4025 3406 3419 
Q 3406 3131 3298 2873 
Q 3191 2616 2906 2266 
Q 2828 2175 2409 1742 
Q 1991 1309 1228 531 
z
" transform="scale(0.015625)"/>
       </defs>
       <use xlink:href="#DejaVuSans-32"/>
       <use xlink:href="#DejaVuSans-30" x="63.623047"/>
       <use xlink:href="#DejaVuSans-30" x="127.246094"/>
      </g>
     </g>
    </g>
    <g id="xtick_3">
     <g id="line2d_3">
      <g>
       <use xlink:href="#m04ce621295" x="513.093701" y="855.900442" style="stroke: #000000; stroke-width: 0.8"/>
      </g>
     </g>
     <g id="text_3">
      <!-- 300 -->
      <g transform="translate(503.549951 870.49888) scale(0.1 -0.1)">
       <defs>
        <path id="DejaVuSans-33" d="M 2597 2516 
Q 3050 2419 3304 2112 
Q 3559 1806 3559 1356 
Q 3559 666 3084 287 
Q 2609 -91 1734 -91 
Q 1441 -91 1130 -33 
Q 819 25 488 141 
L 488 750 
Q 750 597 1062 519 
Q 1375 441 1716 441 
Q 2309 441 2620 675 
Q 2931 909 2931 1356 
Q 2931 1769 2642 2001 
Q 2353 2234 1838 2234 
L 1294 2234 
L 1294 2753 
L 1863 2753 
Q 2328 2753 2575 2939 
Q 2822 3125 2822 3475 
Q 2822 3834 2567 4026 
Q 2313 4219 1838 4219 
Q 1578 4219 1281 4162 
Q 984 4106 628 3988 
L 628 4550 
Q 988 4650 1302 4700 
Q 1616 4750 1894 4750 
Q 2613 4750 3031 4423 
Q 3450 4097 3450 3541 
Q 3450 3153 3228 2886 
Q 3006 2619 2597 2516 
z
" transform="scale(0.015625)"/>
       </defs>
       <use xlink:href="#DejaVuSans-33"/>
       <use xlink:href="#DejaVuSans-30" x="63.623047"/>
       <use xlink:href="#DejaVuSans-30" x="127.246094"/>
      </g>
     </g>
    </g>
    <g id="xtick_4">
     <g id="line2d_4">
      <g>
       <use xlink:href="#m04ce621295" x="664.062775" y="855.900442" style="stroke: #000000; stroke-width: 0.8"/>
      </g>
     </g>
     <g id="text_4">
      <!-- 400 -->
      <g transform="translate(654.519025 870.49888) scale(0.1 -0.1)">
       <defs>
        <path id="DejaVuSans-34" d="M 2419 4116 
L 825 1625 
L 2419 1625 
L 2419 4116 
z
M 2253 4666 
L 3047 4666 
L 3047 1625 
L 3713 1625 
L 3713 1100 
L 3047 1100 
L 3047 0 
L 2419 0 
L 2419 1100 
L 313 1100 
L 313 1709 
L 2253 4666 
z
" transform="scale(0.015625)"/>
       </defs>
       <use xlink:href="#DejaVuSans-34"/>
       <use xlink:href="#DejaVuSans-30" x="63.623047"/>
       <use xlink:href="#DejaVuSans-30" x="127.246094"/>
      </g>
     </g>
    </g>
    <g id="xtick_5">
     <g id="line2d_5">
      <g>
       <use xlink:href="#m04ce621295" x="815.031849" y="855.900442" style="stroke: #000000; stroke-width: 0.8"/>
      </g>
     </g>
     <g id="text_5">
      <!-- 500 -->
      <g transform="translate(805.488099 870.49888) scale(0.1 -0.1)">
       <defs>
        <path id="DejaVuSans-35" d="M 691 4666 
L 3169 4666 
L 3169 4134 
L 1269 4134 
L 1269 2991 
Q 1406 3038 1543 3061 
Q 1681 3084 1819 3084 
Q 2600 3084 3056 2656 
Q 3513 2228 3513 1497 
Q 3513 744 3044 326 
Q 2575 -91 1722 -91 
Q 1428 -91 1123 -41 
Q 819 9 494 109 
L 494 744 
Q 775 591 1075 516 
Q 1375 441 1709 441 
Q 2250 441 2565 725 
Q 2881 1009 2881 1497 
Q 2881 1984 2565 2268 
Q 2250 2553 1709 2553 
Q 1456 2553 1204 2497 
Q 953 2441 691 2322 
L 691 4666 
z
" transform="scale(0.015625)"/>
       </defs>
       <use xlink:href="#DejaVuSans-35"/>
       <use xlink:href="#DejaVuSans-30" x="63.623047"/>
       <use xlink:href="#DejaVuSans-30" x="127.246094"/>
      </g>
     </g>
    </g>
    <g id="xtick_6">
     <g id="line2d_6">
      <g>
       <use xlink:href="#m04ce621295" x="966.000923" y="855.900442" style="stroke: #000000; stroke-width: 0.8"/>
      </g>
     </g>
     <g id="text_6">
      <!-- 600 -->
      <g transform="translate(956.457173 870.49888) scale(0.1 -0.1)">
       <defs>
        <path id="DejaVuSans-36" d="M 2113 2584 
Q 1688 2584 1439 2293 
Q 1191 2003 1191 1497 
Q 1191 994 1439 701 
Q 1688 409 2113 409 
Q 2538 409 2786 701 
Q 3034 994 3034 1497 
Q 3034 2003 2786 2293 
Q 2538 2584 2113 2584 
z
M 3366 4563 
L 3366 3988 
Q 3128 4100 2886 4159 
Q 2644 4219 2406 4219 
Q 1781 4219 1451 3797 
Q 1122 3375 1075 2522 
Q 1259 2794 1537 2939 
Q 1816 3084 2150 3084 
Q 2853 3084 3261 2657 
Q 3669 2231 3669 1497 
Q 3669 778 3244 343 
Q 2819 -91 2113 -91 
Q 1303 -91 875 529 
Q 447 1150 447 2328 
Q 447 3434 972 4092 
Q 1497 4750 2381 4750 
Q 2619 4750 2861 4703 
Q 3103 4656 3366 4563 
z
" transform="scale(0.015625)"/>
       </defs>
       <use xlink:href="#DejaVuSans-36"/>
       <use xlink:href="#DejaVuSans-30" x="63.623047"/>
       <use xlink:href="#DejaVuSans-30" x="127.246094"/>
      </g>
     </g>
    </g>
    <g id="xtick_7">
     <g id="line2d_7">
      <g>
       <use xlink:href="#m04ce621295" x="1116.969997" y="855.900442" style="stroke: #000000; stroke-width: 0.8"/>
      </g>
     </g>
     <g id="text_7">
      <!-- 700 -->
      <g transform="translate(1107.426247 870.49888) scale(0.1 -0.1)">
       <defs>
        <path id="DejaVuSans-37" d="M 525 4666 
L 3525 4666 
L 3525 4397 
L 1831 0 
L 1172 0 
L 2766 4134 
L 525 4134 
L 525 4666 
z
" transform="scale(0.015625)"/>
       </defs>
       <use xlink:href="#DejaVuSans-37"/>
       <use xlink:href="#DejaVuSans-30" x="63.623047"/>
       <use xlink:href="#DejaVuSans-30" x="127.246094"/>
      </g>
     </g>
    </g>
    <g id="xtick_8">
     <g id="line2d_8">
      <g>
       <use xlink:href="#m04ce621295" x="1267.939071" y="855.900442" style="stroke: #000000; stroke-width: 0.8"/>
      </g>
     </g>
     <g id="text_8">
      <!-- 800 -->
      <g transform="translate(1258.395321 870.49888) scale(0.1 -0.1)">
       <defs>
        <path id="DejaVuSans-38" d="M 2034 2216 
Q 1584 2216 1326 1975 
Q 1069 1734 1069 1313 
Q 1069 891 1326 650 
Q 1584 409 2034 409 
Q 2484 409 2743 651 
Q 3003 894 3003 1313 
Q 3003 1734 2745 1975 
Q 2488 2216 2034 2216 
z
M 1403 2484 
Q 997 2584 770 2862 
Q 544 3141 544 3541 
Q 544 4100 942 4425 
Q 1341 4750 2034 4750 
Q 2731 4750 3128 4425 
Q 3525 4100 3525 3541 
Q 3525 3141 3298 2862 
Q 3072 2584 2669 2484 
Q 3125 2378 3379 2068 
Q 3634 1759 3634 1313 
Q 3634 634 3220 271 
Q 2806 -91 2034 -91 
Q 1263 -91 848 271 
Q 434 634 434 1313 
Q 434 1759 690 2068 
Q 947 2378 1403 2484 
z
M 1172 3481 
Q 1172 3119 1398 2916 
Q 1625 2713 2034 2713 
Q 2441 2713 2670 2916 
Q 2900 3119 2900 3481 
Q 2900 3844 2670 4047 
Q 2441 4250 2034 4250 
Q 1625 4250 1398 4047 
Q 1172 3844 1172 3481 
z
" transform="scale(0.015625)"/>
       </defs>
       <use xlink:href="#DejaVuSans-38"/>
       <use xlink:href="#DejaVuSans-30" x="63.623047"/>
       <use xlink:href="#DejaVuSans-30" x="127.246094"/>
      </g>
     </g>
    </g>
   </g>
   <g id="matplotlib.axis_2">
    <g id="ytick_1">
     <g id="line2d_9">
      <defs>
       <path id="m42a4ff638a" d="M 0 0 
L -3.5 0 
" style="stroke: #000000; stroke-width: 0.8"/>
      </defs>
      <g>
       <use xlink:href="#m42a4ff638a" x="180" y="835.244287" style="stroke: #000000; stroke-width: 0.8"/>
      </g>
     </g>
     <g id="text_9">
      <!-- 400 -->
      <g transform="translate(153.9125 839.043505) scale(0.1 -0.1)">
       <use xlink:href="#DejaVuSans-34"/>
       <use xlink:href="#DejaVuSans-30" x="63.623047"/>
       <use xlink:href="#DejaVuSans-30" x="127.246094"/>
      </g>
     </g>
    </g>
    <g id="ytick_2">
     <g id="line2d_10">
      <g>
       <use xlink:href="#m42a4ff638a" x="180" y="759.75975" style="stroke: #000000; stroke-width: 0.8"/>
      </g>
     </g>
     <g id="text_10">
      <!-- 450 -->
      <g transform="translate(153.9125 763.558968) scale(0.1 -0.1)">
       <use xlink:href="#DejaVuSans-34"/>
       <use xlink:href="#DejaVuSans-35" x="63.623047"/>
       <use xlink:href="#DejaVuSans-30" x="127.246094"/>
      </g>
     </g>
    </g>
    <g id="ytick_3">
     <g id="line2d_11">
      <g>
       <use xlink:href="#m42a4ff638a" x="180" y="684.275212" style="stroke: #000000; stroke-width: 0.8"/>
      </g>
     </g>
     <g id="text_11">
      <!-- 500 -->
      <g transform="translate(153.9125 688.074431) scale(0.1 -0.1)">
       <use xlink:href="#DejaVuSans-35"/>
       <use xlink:href="#DejaVuSans-30" x="63.623047"/>
       <use xlink:href="#DejaVuSans-30" x="127.246094"/>
      </g>
     </g>
    </g>
    <g id="ytick_4">
     <g id="line2d_12">
      <g>
       <use xlink:href="#m42a4ff638a" x="180" y="608.790675" style="stroke: #000000; stroke-width: 0.8"/>
      </g>
     </g>
     <g id="text_12">
      <!-- 550 -->
      <g transform="translate(153.9125 612.589894) scale(0.1 -0.1)">
       <use xlink:href="#DejaVuSans-35"/>
       <use xlink:href="#DejaVuSans-35" x="63.623047"/>
       <use xlink:href="#DejaVuSans-30" x="127.246094"/>
      </g>
     </g>
    </g>
    <g id="ytick_5">
     <g id="line2d_13">
      <g>
       <use xlink:href="#m42a4ff638a" x="180" y="533.306138" style="stroke: #000000; stroke-width: 0.8"/>
      </g>
     </g>
     <g id="text_13">
      <!-- 600 -->
      <g transform="translate(153.9125 537.105357) scale(0.1 -0.1)">
       <use xlink:href="#DejaVuSans-36"/>
       <use xlink:href="#DejaVuSans-30" x="63.623047"/>
       <use xlink:href="#DejaVuSans-30" x="127.246094"/>
      </g>
     </g>
    </g>
    <g id="ytick_6">
     <g id="line2d_14">
      <g>
       <use xlink:href="#m42a4ff638a" x="180" y="457.821601" style="stroke: #000000; stroke-width: 0.8"/>
      </g>
     </g>
     <g id="text_14">
      <!-- 650 -->
      <g transform="translate(153.9125 461.62082) scale(0.1 -0.1)">
       <use xlink:href="#DejaVuSans-36"/>
       <use xlink:href="#DejaVuSans-35" x="63.623047"/>
       <use xlink:href="#DejaVuSans-30" x="127.246094"/>
      </g>
     </g>
    </g>
    <g id="ytick_7">
     <g id="line2d_15">
      <g>
       <use xlink:href="#m42a4ff638a" x="180" y="382.337064" style="stroke: #000000; stroke-width: 0.8"/>
      </g>
     </g>
     <g id="text_15">
      <!-- 700 -->
      <g transform="translate(153.9125 386.136283) scale(0.1 -0.1)">
       <use xlink:href="#DejaVuSans-37"/>
       <use xlink:href="#DejaVuSans-30" x="63.623047"/>
       <use xlink:href="#DejaVuSans-30" x="127.246094"/>
      </g>
     </g>
    </g>
    <g id="ytick_8">
     <g id="line2d_16">
      <g>
       <use xlink:href="#m42a4ff638a" x="180" y="306.852527" style="stroke: #000000; stroke-width: 0.8"/>
      </g>
     </g>
     <g id="text_16">
      <!-- 750 -->
      <g transform="translate(153.9125 310.651746) scale(0.1 -0.1)">
       <use xlink:href="#DejaVuSans-37"/>
       <use xlink:href="#DejaVuSans-35" x="63.623047"/>
       <use xlink:href="#DejaVuSans-30" x="127.246094"/>
      </g>
     </g>
    </g>
   </g>
   <g id="LineCollection_1">
    <path d="M 245.932699 827.673129 
L 261.022223 821.324742 
L 275.50639 814.761367 
L 289.436844 808.044224 
L 302.8629 801.229396 
L 315.831393 794.367935 
L 328.386589 787.506024 
L 352.421017 773.942344 
L 397.253542 748.310299 
L 407.959856 742.359278 
L 418.515319 736.626892 
L 428.943004 731.124479 
L 439.264209 725.860481 
L 449.498573 720.840665 
L 459.664173 716.068348 
L 469.777596 711.544611 
L 479.853996 707.268517 
L 489.90712 703.237313 
L 499.949327 699.446618 
L 509.991585 695.89059 
L 520.043467 692.562068 
L 530.113143 689.452696 
L 540.207385 686.553021 
L 550.331577 683.852573 
L 560.489744 681.339933 
L 570.684597 679.002784 
L 580.917593 676.827964 
L 591.189012 674.801514 
L 601.498044 672.908721 
L 622.220852 669.461852 
L 643.06156 666.356839 
L 674.466876 662.035226 
L 705.956941 657.673686 
L 726.885973 654.500865 
L 737.311463 652.780013 
L 747.70208 650.945774 
L 758.051189 648.980863 
L 768.352178 646.868547 
L 778.598481 644.592746 
L 788.78359 642.138146 
L 798.901076 639.490314 
L 808.944622 636.635812 
L 818.908056 633.562317 
L 828.785408 630.258736 
L 838.570978 626.715315 
L 848.259418 622.923735 
L 857.845839 618.877195 
L 867.325919 614.57047 
L 876.696031 609.99995 
L 885.953365 605.163641 
L 895.096052 600.061151 
L 904.123272 594.693642 
L 913.03535 589.063759 
L 921.833824 583.175549 
L 930.521494 577.034358 
L 939.102439 570.646731 
L 947.582015 564.020309 
L 955.966828 557.163726 
L 964.264692 550.086524 
L 972.484569 542.799058 
L 980.636508 535.312429 
L 988.731574 527.638406 
L 996.781777 519.78936 
L 1004.800001 511.778202 
L 1020.796044 495.323474 
L 1036.837934 478.385603 
L 1069.615633 443.487022 
L 1086.626553 425.765111 
L 1095.351012 416.886226 
L 1104.247655 408.01198 
L 1113.336621 399.153711 
L 1122.638436 390.321691 
L 1132.173986 381.524967 
L 1141.964497 372.771216 
L 1152.031486 364.066591 
L 1162.396715 355.415579 
L 1173.082111 346.820851 
L 1184.10967 338.283116 
L 1195.501335 329.800963 
L 1207.278857 321.370684 
L 1219.463619 312.986094 
L 1232.076456 304.63831 
L 1245.272727 296.229317 
L 1245.272727 296.229317 
" clip-path="url(#p5adb548567)" style="fill: none; stroke: #1f77b4; stroke-width: 1.5"/>
    <path d="M 238.329986 809.579544 
L 252.928055 803.445606 
L 266.986852 797.080966 
L 280.557146 790.541938 
L 293.686689 783.88073 
L 306.420288 777.145561 
L 318.799899 770.380766 
L 330.864706 763.626908 
L 342.651205 756.920892 
L 354.193289 750.296075 
L 365.522334 743.782389 
L 376.667284 737.406449 
L 387.654731 731.191676 
L 398.509007 725.158412 
L 409.252263 719.324041 
L 419.904556 713.703108 
L 430.483933 708.307437 
L 441.006517 703.146255 
L 451.486587 698.226307 
L 461.936667 693.551983 
L 472.367605 689.125434 
L 482.788658 684.946694 
L 493.207574 681.013801 
L 503.630673 677.322915 
L 514.06293 673.868437 
L 524.508056 670.643132 
L 534.968574 667.63824 
L 545.445903 664.843599 
L 555.940435 662.247759 
L 566.45161 659.838094 
L 576.977996 657.60092 
L 587.517363 655.521605 
L 598.066759 653.584681 
L 608.622582 651.773951 
L 619.180653 650.072598 
L 629.736286 648.46329 
L 640.284363 646.928285 
L 650.819395 645.449531 
L 661.335597 644.008764 
L 671.826949 642.587608 
L 682.287262 641.167667 
L 692.710243 639.730619 
L 703.089551 638.258301 
L 713.418865 636.732801 
L 723.691936 635.136537 
L 733.902643 633.452338 
L 744.045053 631.663522 
L 754.11347 629.753969 
L 764.102486 627.708192 
L 774.007032 625.511402 
L 783.822423 623.149574 
L 793.544404 620.6095 
L 803.169194 617.878853 
L 812.693524 614.946231 
L 822.114678 611.801206 
L 831.430527 608.434367 
L 840.639565 604.837361 
L 849.740942 601.002919 
L 858.734488 596.924893 
L 867.620743 592.598276 
L 876.400983 588.019223 
L 885.077236 583.185061 
L 893.652308 578.094305 
L 902.129791 572.746656 
L 910.514086 567.143001 
L 918.810404 561.285408 
L 927.02478 555.177108 
L 935.164077 548.822483 
L 943.235986 542.227036 
L 951.249026 535.397361 
L 959.212539 528.341109 
L 967.136684 521.066945 
L 975.032427 513.584494 
L 982.911525 505.904289 
L 990.786509 498.03771 
L 998.670666 489.996908 
L 1006.578014 481.794737 
L 1014.523273 473.444665 
L 1022.521837 464.960684 
L 1030.589739 456.357215 
L 1038.743611 447.649004 
L 1047.000645 438.851003 
L 1055.378546 429.978258 
L 1063.895484 421.045775 
L 1072.570039 412.068387 
L 1081.421147 403.060611 
L 1090.468038 394.036495 
L 1099.73017 385.009456 
L 1109.227161 375.992116 
L 1118.978719 366.996123 
L 1129.004558 358.031962 
L 1139.324324 349.108769 
L 1149.957504 340.23412 
L 1160.92334 331.413822 
L 1172.240733 322.651693 
L 1183.928142 313.94933 
L 1196.003487 305.305871 
L 1208.484035 296.717745 
L 1221.386289 288.178411 
L 1234.725875 279.678094 
" clip-path="url(#p5adb548567)" style="fill: none; stroke: #8c564b; stroke-width: 1.5"/>
    <path d="M 230.727273 791.485959 
L 245.07815 785.455888 
L 258.67881 779.298654 
L 271.856617 772.948751 
L 284.658081 766.453992 
L 297.126201 759.859243 
L 309.300753 753.206501 
L 332.913554 739.880979 
L 378.119757 714.03757 
L 389.142739 707.911612 
L 400.093083 701.966377 
L 410.987714 696.219715 
L 421.841294 690.686885 
L 432.666282 685.380569 
L 443.47302 680.310899 
L 454.269832 675.485475 
L 465.063153 670.909395 
L 475.857671 666.585308 
L 486.656487 662.513468 
L 497.46128 658.69182 
L 508.27248 655.11611 
L 519.089428 651.780005 
L 529.910533 648.675242 
L 540.733405 645.79179 
L 551.554982 643.118021 
L 562.371625 640.640885 
L 573.179206 638.346095 
L 583.973175 636.218295 
L 594.748613 634.241233 
L 616.058353 630.696573 
L 626.909993 629.041881 
L 648.155433 626.00519 
L 700.277646 618.834722 
L 720.588154 615.757322 
L 730.601112 614.10574 
L 740.511983 612.357761 
L 750.315895 610.498374 
L 760.00851 608.5133 
L 769.586108 606.389026 
L 779.045665 604.11282 
L 788.384923 601.672741 
L 797.602456 599.057637 
L 806.697717 596.257128 
L 815.671071 593.26159 
L 824.523807 590.062126 
L 833.258131 586.65054 
L 841.877137 583.019323 
L 850.384758 579.161635 
L 858.7857 575.071311 
L 867.085371 570.742883 
L 875.289798 566.171609 
L 883.405549 561.353538 
L 891.439667 556.285566 
L 899.399616 550.965524 
L 907.293244 545.392249 
L 915.128766 539.56567 
L 922.914771 533.486871 
L 930.66024 527.158153 
L 938.374581 520.583065 
L 946.067674 513.766426 
L 953.749914 506.714324 
L 961.432267 499.434093 
L 969.126308 491.934274 
L 976.844262 484.224557 
L 992.40421 468.219522 
L 1008.223677 451.516638 
L 1041.174423 416.434921 
L 1058.571172 398.312995 
L 1067.560984 389.165469 
L 1076.769893 379.981606 
L 1086.21657 370.777039 
L 1095.919599 361.566866 
L 1105.897346 352.365444 
L 1116.167839 343.186164 
L 1126.748653 334.041202 
L 1137.656792 324.94126 
L 1148.908604 315.895278 
L 1160.51969 306.910148 
L 1172.504841 297.990406 
L 1184.877988 289.13793 
L 1197.652156 280.351637 
L 1210.839437 271.627188 
L 1224.179023 263.126871 
L 1224.179023 263.126871 
" clip-path="url(#p5adb548567)" style="fill: none; stroke: #17becf; stroke-width: 1.5"/>
   </g>
   <g id="patch_3">
    <path d="M 180 855.900442 
L 180 234.899558 
" style="fill: none; stroke: #000000; stroke-width: 0.8; stroke-linejoin: miter; stroke-linecap: square"/>
   </g>
   <g id="patch_4">
    <path d="M 1296 855.900442 
L 1296 234.899558 
" style="fill: none; stroke: #000000; stroke-width: 0.8; stroke-linejoin: miter; stroke-linecap: square"/>
   </g>
   <g id="patch_5">
    <path d="M 180 855.900442 
L 1296 855.900442 
" style="fill: none; stroke: #000000; stroke-width: 0.8; stroke-linejoin: miter; stroke-linecap: square"/>
   </g>
   <g id="patch_6">
    <path d="M 180 234.899558 
L 1296 234.899558 
" style="fill: none; stroke: #000000; stroke-width: 0.8; stroke-linejoin: miter; stroke-linecap: square"/>
   </g>
  </g>
 </g>
 <defs>
  <clipPath id="p5adb548567">
   <rect x="180" y="234.899558" width="1116" height="621.000884"/>
  </clipPath>
 </defs>
</svg>
