<?xml version="1.0" encoding="utf-8" standalone="no"?>
<!DOCTYPE svg PUBLIC "-//W3C//DTD SVG 1.1//EN"
  "http://www.w3.org/Graphics/SVG/1.1/DTD/svg11.dtd">
<svg xmlns:xlink="http://www.w3.org/1999/xlink" width="1440pt" height="1080pt" viewBox="0 0 1440 1080" xmlns="http://www.w3.org/2000/svg" version="1.1">
 <metadata>
  <rdf:RDF xmlns:dc="http://purl.org/dc/elements/1.1/" xmlns:cc="http://creativecommons.org/ns#" xmlns:rdf="http://www.w3.org/1999/02/22-rdf-syntax-ns#">
   <cc:Work>
    <dc:type rdf:resource="http://purl.org/dc/dcmitype/StillImage"/>
    <dc:date>2023-12-11T12:06:54.270154</dc:date>
    <dc:format>image/svg+xml</dc:format>
    <dc:creator>
     <cc:Agent>
      <dc:title>Matplotlib v3.7.1, https://matplotlib.org/</dc:title>
     </cc:Agent>
    </dc:creator>
   </cc:Work>
  </rdf:RDF>
 </metadata>
 <defs>
  <style type="text/css">*{stroke-linejoin: round; stroke-linecap: butt}</style>
 </defs>
 <g id="figure_1">
  <g id="patch_1">
   <path d="M 0 1080 
L 1440 1080 
L 1440 0 
L 0 0 
z
" style="fill: #ffffff"/>
  </g>
  <g id="axes_1">
   <g id="patch_2">
    <path d="M 274.452861 961.2 
L 1201.547139 961.2 
L 1201.547139 129.6 
L 274.452861 129.6 
z
" style="fill: #ffffff"/>
   </g>
   <g id="matplotlib.axis_1">
    <g id="xtick_1">
     <g id="line2d_1">
      <defs>
       <path id="m1a7b8a103d" d="M 0 0 
L 0 3.5 
" style="stroke: #000000; stroke-width: 0.8"/>
      </defs>
      <g>
       <use xlink:href="#m1a7b8a103d" x="336.158808" y="961.2" style="stroke: #000000; stroke-width: 0.8"/>
      </g>
     </g>
     <g id="text_1">
      <!-- 100 -->
      <g transform="translate(326.615058 975.798437) scale(0.1 -0.1)">
       <defs>
        <path id="DejaVuSans-31" d="M 794 531 
L 1825 531 
L 1825 4091 
L 703 3866 
L 703 4441 
L 1819 4666 
L 2450 4666 
L 2450 531 
L 3481 531 
L 3481 0 
L 794 0 
L 794 531 
z
" transform="scale(0.015625)"/>
        <path id="DejaVuSans-30" d="M 2034 4250 
Q 1547 4250 1301 3770 
Q 1056 3291 1056 2328 
Q 1056 1369 1301 889 
Q 1547 409 2034 409 
Q 2525 409 2770 889 
Q 3016 1369 3016 2328 
Q 3016 3291 2770 3770 
Q 2525 4250 2034 4250 
z
M 2034 4750 
Q 2819 4750 3233 4129 
Q 3647 3509 3647 2328 
Q 3647 1150 3233 529 
Q 2819 -91 2034 -91 
Q 1250 -91 836 529 
Q 422 1150 422 2328 
Q 422 3509 836 4129 
Q 1250 4750 2034 4750 
z
" transform="scale(0.015625)"/>
       </defs>
       <use xlink:href="#DejaVuSans-31"/>
       <use xlink:href="#DejaVuSans-30" x="63.623047"/>
       <use xlink:href="#DejaVuSans-30" x="127.246094"/>
      </g>
     </g>
    </g>
    <g id="xtick_2">
     <g id="line2d_2">
      <g>
       <use xlink:href="#m1a7b8a103d" x="460.26149" y="961.2" style="stroke: #000000; stroke-width: 0.8"/>
      </g>
     </g>
     <g id="text_2">
      <!-- 200 -->
      <g transform="translate(450.71774 975.798437) scale(0.1 -0.1)">
       <defs>
        <path id="DejaVuSans-32" d="M 1228 531 
L 3431 531 
L 3431 0 
L 469 0 
L 469 531 
Q 828 903 1448 1529 
Q 2069 2156 2228 2338 
Q 2531 2678 2651 2914 
Q 2772 3150 2772 3378 
Q 2772 3750 2511 3984 
Q 2250 4219 1831 4219 
Q 1534 4219 1204 4116 
Q 875 4013 500 3803 
L 500 4441 
Q 881 4594 1212 4672 
Q 1544 4750 1819 4750 
Q 2544 4750 2975 4387 
Q 3406 4025 3406 3419 
Q 3406 3131 3298 2873 
Q 3191 2616 2906 2266 
Q 2828 2175 2409 1742 
Q 1991 1309 1228 531 
z
" transform="scale(0.015625)"/>
       </defs>
       <use xlink:href="#DejaVuSans-32"/>
       <use xlink:href="#DejaVuSans-30" x="63.623047"/>
       <use xlink:href="#DejaVuSans-30" x="127.246094"/>
      </g>
     </g>
    </g>
    <g id="xtick_3">
     <g id="line2d_3">
      <g>
       <use xlink:href="#m1a7b8a103d" x="584.364173" y="961.2" style="stroke: #000000; stroke-width: 0.8"/>
      </g>
     </g>
     <g id="text_3">
      <!-- 300 -->
      <g transform="translate(574.820423 975.798437) scale(0.1 -0.1)">
       <defs>
        <path id="DejaVuSans-33" d="M 2597 2516 
Q 3050 2419 3304 2112 
Q 3559 1806 3559 1356 
Q 3559 666 3084 287 
Q 2609 -91 1734 -91 
Q 1441 -91 1130 -33 
Q 819 25 488 141 
L 488 750 
Q 750 597 1062 519 
Q 1375 441 1716 441 
Q 2309 441 2620 675 
Q 2931 909 2931 1356 
Q 2931 1769 2642 2001 
Q 2353 2234 1838 2234 
L 1294 2234 
L 1294 2753 
L 1863 2753 
Q 2328 2753 2575 2939 
Q 2822 3125 2822 3475 
Q 2822 3834 2567 4026 
Q 2313 4219 1838 4219 
Q 1578 4219 1281 4162 
Q 984 4106 628 3988 
L 628 4550 
Q 988 4650 1302 4700 
Q 1616 4750 1894 4750 
Q 2613 4750 3031 4423 
Q 3450 4097 3450 3541 
Q 3450 3153 3228 2886 
Q 3006 2619 2597 2516 
z
" transform="scale(0.015625)"/>
       </defs>
       <use xlink:href="#DejaVuSans-33"/>
       <use xlink:href="#DejaVuSans-30" x="63.623047"/>
       <use xlink:href="#DejaVuSans-30" x="127.246094"/>
      </g>
     </g>
    </g>
    <g id="xtick_4">
     <g id="line2d_4">
      <g>
       <use xlink:href="#m1a7b8a103d" x="708.466855" y="961.2" style="stroke: #000000; stroke-width: 0.8"/>
      </g>
     </g>
     <g id="text_4">
      <!-- 400 -->
      <g transform="translate(698.923105 975.798437) scale(0.1 -0.1)">
       <defs>
        <path id="DejaVuSans-34" d="M 2419 4116 
L 825 1625 
L 2419 1625 
L 2419 4116 
z
M 2253 4666 
L 3047 4666 
L 3047 1625 
L 3713 1625 
L 3713 1100 
L 3047 1100 
L 3047 0 
L 2419 0 
L 2419 1100 
L 313 1100 
L 313 1709 
L 2253 4666 
z
" transform="scale(0.015625)"/>
       </defs>
       <use xlink:href="#DejaVuSans-34"/>
       <use xlink:href="#DejaVuSans-30" x="63.623047"/>
       <use xlink:href="#DejaVuSans-30" x="127.246094"/>
      </g>
     </g>
    </g>
    <g id="xtick_5">
     <g id="line2d_5">
      <g>
       <use xlink:href="#m1a7b8a103d" x="832.569538" y="961.2" style="stroke: #000000; stroke-width: 0.8"/>
      </g>
     </g>
     <g id="text_5">
      <!-- 500 -->
      <g transform="translate(823.025788 975.798437) scale(0.1 -0.1)">
       <defs>
        <path id="DejaVuSans-35" d="M 691 4666 
L 3169 4666 
L 3169 4134 
L 1269 4134 
L 1269 2991 
Q 1406 3038 1543 3061 
Q 1681 3084 1819 3084 
Q 2600 3084 3056 2656 
Q 3513 2228 3513 1497 
Q 3513 744 3044 326 
Q 2575 -91 1722 -91 
Q 1428 -91 1123 -41 
Q 819 9 494 109 
L 494 744 
Q 775 591 1075 516 
Q 1375 441 1709 441 
Q 2250 441 2565 725 
Q 2881 1009 2881 1497 
Q 2881 1984 2565 2268 
Q 2250 2553 1709 2553 
Q 1456 2553 1204 2497 
Q 953 2441 691 2322 
L 691 4666 
z
" transform="scale(0.015625)"/>
       </defs>
       <use xlink:href="#DejaVuSans-35"/>
       <use xlink:href="#DejaVuSans-30" x="63.623047"/>
       <use xlink:href="#DejaVuSans-30" x="127.246094"/>
      </g>
     </g>
    </g>
    <g id="xtick_6">
     <g id="line2d_6">
      <g>
       <use xlink:href="#m1a7b8a103d" x="956.67222" y="961.2" style="stroke: #000000; stroke-width: 0.8"/>
      </g>
     </g>
     <g id="text_6">
      <!-- 600 -->
      <g transform="translate(947.12847 975.798437) scale(0.1 -0.1)">
       <defs>
        <path id="DejaVuSans-36" d="M 2113 2584 
Q 1688 2584 1439 2293 
Q 1191 2003 1191 1497 
Q 1191 994 1439 701 
Q 1688 409 2113 409 
Q 2538 409 2786 701 
Q 3034 994 3034 1497 
Q 3034 2003 2786 2293 
Q 2538 2584 2113 2584 
z
M 3366 4563 
L 3366 3988 
Q 3128 4100 2886 4159 
Q 2644 4219 2406 4219 
Q 1781 4219 1451 3797 
Q 1122 3375 1075 2522 
Q 1259 2794 1537 2939 
Q 1816 3084 2150 3084 
Q 2853 3084 3261 2657 
Q 3669 2231 3669 1497 
Q 3669 778 3244 343 
Q 2819 -91 2113 -91 
Q 1303 -91 875 529 
Q 447 1150 447 2328 
Q 447 3434 972 4092 
Q 1497 4750 2381 4750 
Q 2619 4750 2861 4703 
Q 3103 4656 3366 4563 
z
" transform="scale(0.015625)"/>
       </defs>
       <use xlink:href="#DejaVuSans-36"/>
       <use xlink:href="#DejaVuSans-30" x="63.623047"/>
       <use xlink:href="#DejaVuSans-30" x="127.246094"/>
      </g>
     </g>
    </g>
    <g id="xtick_7">
     <g id="line2d_7">
      <g>
       <use xlink:href="#m1a7b8a103d" x="1080.774903" y="961.2" style="stroke: #000000; stroke-width: 0.8"/>
      </g>
     </g>
     <g id="text_7">
      <!-- 700 -->
      <g transform="translate(1071.231153 975.798437) scale(0.1 -0.1)">
       <defs>
        <path id="DejaVuSans-37" d="M 525 4666 
L 3525 4666 
L 3525 4397 
L 1831 0 
L 1172 0 
L 2766 4134 
L 525 4134 
L 525 4666 
z
" transform="scale(0.015625)"/>
       </defs>
       <use xlink:href="#DejaVuSans-37"/>
       <use xlink:href="#DejaVuSans-30" x="63.623047"/>
       <use xlink:href="#DejaVuSans-30" x="127.246094"/>
      </g>
     </g>
    </g>
   </g>
   <g id="matplotlib.axis_2">
    <g id="ytick_1">
     <g id="line2d_8">
      <defs>
       <path id="m37bb2f9b49" d="M 0 0 
L -3.5 0 
" style="stroke: #000000; stroke-width: 0.8"/>
      </defs>
      <g>
       <use xlink:href="#m37bb2f9b49" x="274.452861" y="891.643232" style="stroke: #000000; stroke-width: 0.8"/>
      </g>
     </g>
     <g id="text_8">
      <!-- 100 -->
      <g transform="translate(248.365361 895.442451) scale(0.1 -0.1)">
       <use xlink:href="#DejaVuSans-31"/>
       <use xlink:href="#DejaVuSans-30" x="63.623047"/>
       <use xlink:href="#DejaVuSans-30" x="127.246094"/>
      </g>
     </g>
    </g>
    <g id="ytick_2">
     <g id="line2d_9">
      <g>
       <use xlink:href="#m37bb2f9b49" x="274.452861" y="767.54055" style="stroke: #000000; stroke-width: 0.8"/>
      </g>
     </g>
     <g id="text_9">
      <!-- 200 -->
      <g transform="translate(248.365361 771.339769) scale(0.1 -0.1)">
       <use xlink:href="#DejaVuSans-32"/>
       <use xlink:href="#DejaVuSans-30" x="63.623047"/>
       <use xlink:href="#DejaVuSans-30" x="127.246094"/>
      </g>
     </g>
    </g>
    <g id="ytick_3">
     <g id="line2d_10">
      <g>
       <use xlink:href="#m37bb2f9b49" x="274.452861" y="643.437867" style="stroke: #000000; stroke-width: 0.8"/>
      </g>
     </g>
     <g id="text_10">
      <!-- 300 -->
      <g transform="translate(248.365361 647.237086) scale(0.1 -0.1)">
       <use xlink:href="#DejaVuSans-33"/>
       <use xlink:href="#DejaVuSans-30" x="63.623047"/>
       <use xlink:href="#DejaVuSans-30" x="127.246094"/>
      </g>
     </g>
    </g>
    <g id="ytick_4">
     <g id="line2d_11">
      <g>
       <use xlink:href="#m37bb2f9b49" x="274.452861" y="519.335185" style="stroke: #000000; stroke-width: 0.8"/>
      </g>
     </g>
     <g id="text_11">
      <!-- 400 -->
      <g transform="translate(248.365361 523.134404) scale(0.1 -0.1)">
       <use xlink:href="#DejaVuSans-34"/>
       <use xlink:href="#DejaVuSans-30" x="63.623047"/>
       <use xlink:href="#DejaVuSans-30" x="127.246094"/>
      </g>
     </g>
    </g>
    <g id="ytick_5">
     <g id="line2d_12">
      <g>
       <use xlink:href="#m37bb2f9b49" x="274.452861" y="395.232502" style="stroke: #000000; stroke-width: 0.8"/>
      </g>
     </g>
     <g id="text_12">
      <!-- 500 -->
      <g transform="translate(248.365361 399.031721) scale(0.1 -0.1)">
       <use xlink:href="#DejaVuSans-35"/>
       <use xlink:href="#DejaVuSans-30" x="63.623047"/>
       <use xlink:href="#DejaVuSans-30" x="127.246094"/>
      </g>
     </g>
    </g>
    <g id="ytick_6">
     <g id="line2d_13">
      <g>
       <use xlink:href="#m37bb2f9b49" x="274.452861" y="271.12982" style="stroke: #000000; stroke-width: 0.8"/>
      </g>
     </g>
     <g id="text_13">
      <!-- 600 -->
      <g transform="translate(248.365361 274.929039) scale(0.1 -0.1)">
       <use xlink:href="#DejaVuSans-36"/>
       <use xlink:href="#DejaVuSans-30" x="63.623047"/>
       <use xlink:href="#DejaVuSans-30" x="127.246094"/>
      </g>
     </g>
    </g>
    <g id="ytick_7">
     <g id="line2d_14">
      <g>
       <use xlink:href="#m37bb2f9b49" x="274.452861" y="147.027137" style="stroke: #000000; stroke-width: 0.8"/>
      </g>
     </g>
     <g id="text_14">
      <!-- 700 -->
      <g transform="translate(248.365361 150.826356) scale(0.1 -0.1)">
       <use xlink:href="#DejaVuSans-37"/>
       <use xlink:href="#DejaVuSans-30" x="63.623047"/>
       <use xlink:href="#DejaVuSans-30" x="127.246094"/>
      </g>
     </g>
    </g>
   </g>
   <g id="LineCollection_1">
    <path d="M 1094.434335 168.849187 
L 1094.86828 188.168208 
L 1094.268104 204.955557 
L 1092.775334 220.235091 
L 1090.502487 234.160819 
L 1087.549261 246.890659 
L 1083.999999 258.582561 
L 1079.922954 269.389388 
L 1075.371768 279.453642 
L 1070.388844 288.903317 
L 1065.009694 297.849745 
L 1059.267145 306.387595 
L 1053.194538 314.596566 
L 1046.827554 322.543971 
L 1040.204771 330.287469 
L 1033.367308 337.877417 
L 1026.357963 345.358614 
L 1011.997084 360.1523 
L 990.116398 382.526555 
L 982.916148 390.107831 
L 975.824089 397.774981 
L 968.868272 405.538458 
L 962.072543 413.403595 
L 955.456212 421.370707 
L 949.033798 429.435351 
L 942.814856 437.588705 
L 936.803944 445.81805 
L 931.000726 454.107287 
L 925.400222 462.43746 
L 919.993184 470.787236 
L 914.766584 479.133329 
L 904.787043 495.713565 
L 881.504298 535.401283 
L 876.946911 542.803782 
L 872.372096 549.954438 
L 867.758216 556.827129 
L 863.084586 563.398482 
L 858.331139 569.648849 
L 853.477734 575.563294 
L 848.50309 581.132401 
L 843.383373 586.352702 
L 838.090618 591.226489 
L 832.591278 595.760823 
L 826.845318 599.965705 
L 820.806238 603.851625 
L 814.422312 607.426932 
L 807.638962 610.695604 
L 800.40192 613.65594 
L 792.660575 616.300469 
L 784.370883 618.616989 
L 775.497422 620.590425 
L 766.014436 622.205036 
L 755.905983 623.446555 
L 745.165428 624.304 
L 733.794584 624.77102 
L 721.802746 624.846795 
L 709.205768 624.536564 
L 696.025292 623.851885 
L 682.288134 622.810719 
L 668.02583 621.437414 
L 653.274305 619.762649 
L 638.073627 617.823364 
L 622.467803 615.662715 
L 590.23521 610.880906 
L 556.89754 605.872606 
L 539.979318 603.463278 
L 522.977169 601.226184 
L 505.948345 599.252816 
L 488.947496 597.644783 
L 472.024285 596.516615 
L 455.220679 596.000497 
L 438.568682 596.254153 
L 422.09085 597.473546 
L 408.679684 599.371681 
L 405.809269 599.911449 
L 393.284843 602.859147 
L 389.774664 603.898636 
L 378.264823 608.030623 
L 374.13233 609.849826 
L 363.770355 615.306628 
L 361.437794 616.662478 
L 359.226659 618.208455 
L 350.15114 625.136304 
L 347.815415 627.10089 
L 345.67576 629.277374 
L 338.030454 637.828089 
L 336.016872 640.318594 
L 334.260103 642.996444 
L 328.193764 653.3273 
L 326.759014 656.062612 
L 325.592377 658.922577 
L 321.258579 671.196149 
L 320.451507 673.836627 
L 319.873129 676.536437 
L 317.430054 690.920432 
L 316.983294 695.569048 
L 316.59351 712.236111 
L 316.731393 716.063905 
L 318.561604 735.191407 
L 319.004779 738.259581 
L 323.797443 762.468202 
L 331.185365 789.009222 
L 341.296397 818.185341 
L 354.288565 850.278408 
L 370.33684 885.552325 
L 389.182559 923.4 
L 389.182559 923.4 
" clip-path="url(#p229422d325)" style="fill: none; stroke: #1f77b4; stroke-width: 1.5"/>
    <path d="M 1126.692895 168.124593 
L 1127.14793 188.382518 
L 1126.478651 207.102739 
L 1124.78808 224.406902 
L 1122.175787 240.412418 
L 1118.737687 255.232299 
L 1114.565867 268.975016 
L 1109.748426 281.744378 
L 1104.369333 293.639421 
L 1098.508313 304.754327 
L 1092.240743 315.178345 
L 1085.63757 324.995747 
L 1078.765245 334.285779 
L 1071.685674 343.12265 
L 1064.456188 351.575519 
L 1057.129526 359.708503 
L 1049.753837 367.580705 
L 1042.372693 375.246248 
L 1035.02512 382.754325 
L 1027.745642 390.149264 
L 1020.564338 397.470607 
L 1013.506915 404.753194 
L 1006.59479 412.027266 
L 999.845186 419.318579 
L 993.271241 426.648524 
L 986.882125 434.034261 
L 980.683173 441.488863 
L 974.676023 449.02147 
L 968.858763 456.637449 
L 963.2261 464.338564 
L 957.769516 472.12316 
L 952.477453 479.986343 
L 947.335497 487.920178 
L 942.326564 495.91389 
L 937.431106 503.95407 
L 932.627312 512.024886 
L 927.891321 520.108307 
L 923.197437 528.184322 
L 918.518354 536.231172 
L 913.825379 544.225578 
L 909.088664 552.142983 
L 904.27744 559.957786 
L 899.360252 567.643588 
L 894.305201 575.173434 
L 889.080185 582.520062 
L 883.653141 589.65615 
L 877.992292 596.554562 
L 872.066386 603.188605 
L 865.84495 609.532269 
L 859.298528 615.560485 
L 852.398927 621.249367 
L 845.119461 626.576464 
L 837.435191 631.521003 
L 829.323164 636.064131 
L 820.762646 640.18916 
L 811.735362 643.881801 
L 802.225717 647.1304 
L 792.221028 649.92617 
L 781.711736 652.263411 
L 770.691632 654.139737 
L 759.158054 655.55629 
L 747.112101 656.517948 
L 734.558823 657.033533 
L 721.507415 657.116003 
L 707.971395 656.782646 
L 693.96878 656.05526 
L 679.522253 654.960329 
L 664.659316 653.52919 
L 649.41244 651.798186 
L 633.8192 649.808819 
L 617.922403 647.607884 
L 601.770201 645.247599 
L 585.416197 642.78572 
L 568.919539 640.285649 
L 552.344994 637.816527 
L 535.763022 635.453317 
L 519.249823 633.276873 
L 502.88738 631.373997 
L 486.763485 629.837481 
L 470.971746 628.766141 
L 455.611586 628.264826 
L 440.78822 628.444422 
L 426.612617 629.421838 
L 413.201452 631.319973 
L 400.677025 634.267671 
L 389.167184 638.399658 
L 378.805209 643.85646 
L 369.72969 650.784309 
L 362.084383 659.335024 
L 356.018044 669.66588 
L 351.684246 681.939452 
L 349.241171 696.323447 
L 348.851387 712.990509 
L 350.681598 732.118011 
L 354.902375 753.887819 
L 361.687863 778.486039 
L 371.215465 806.102745 
L 383.665504 836.931678 
L 399.220859 871.169933 
L 418.066578 909.017608 
" clip-path="url(#p229422d325)" style="fill: none; stroke: #8c564b; stroke-width: 1.5"/>
    <path d="M 1158.951456 167.4 
L 1159.394026 189.53537 
L 1158.592453 210.240172 
L 1156.633414 229.604445 
L 1153.607728 247.704389 
L 1149.613111 264.605023 
L 1144.75557 280.364555 
L 1139.148724 295.039574 
L 1132.910997 308.689775 
L 1126.161366 321.381065 
L 1119.014728 333.186497 
L 1111.577963 344.185218 
L 1103.947293 354.460126 
L 1096.207053 364.095055 
L 1088.429608 373.172159 
L 1080.675998 381.769858 
L 1072.996934 389.961461 
L 1058.019931 405.390103 
L 1036.788432 427.094541 
L 1030.130373 434.101244 
L 1023.696537 441.051445 
L 1017.485215 447.977066 
L 1011.490736 454.906607 
L 1005.70407 461.865412 
L 1000.113398 468.87578 
L 994.704623 475.956968 
L 989.461791 483.125097 
L 984.367382 490.392998 
L 979.402489 497.770058 
L 974.546858 505.262104 
L 969.778841 512.871341 
L 960.411248 528.432355 
L 936.565546 569.059269 
L 931.457526 577.346941 
L 926.149903 585.628424 
L 920.599855 593.874528 
L 914.763437 602.052352 
L 908.596578 610.124778 
L 902.056454 618.050047 
L 895.103242 625.781591 
L 887.702141 633.26838 
L 879.825444 640.455976 
L 871.454269 647.288448 
L 862.579541 653.711043 
L 853.201845 659.67331 
L 843.330052 665.1321 
L 832.978918 670.053896 
L 822.166184 674.416006 
L 810.909815 678.206536 
L 799.22592 681.423332 
L 787.127648 684.072335 
L 774.625068 686.165786 
L 761.725816 687.720654 
L 748.436233 688.757465 
L 734.762708 689.299586 
L 720.71301 689.37292 
L 706.297512 689.005896 
L 691.530218 688.229678 
L 676.429624 687.078477 
L 661.019406 685.589926 
L 645.328991 683.805454 
L 629.39404 681.770636 
L 613.256891 679.535502 
L 580.612991 674.692913 
L 547.691511 669.746062 
L 531.37848 667.421181 
L 515.27777 665.299104 
L 499.492858 663.463391 
L 484.140509 662.0004 
L 469.352972 660.997187 
L 455.280604 660.537902 
L 442.094492 660.697662 
L 429.987613 661.532438 
L 419.170654 663.063405 
L 409.853829 665.256175 
L 402.19959 668.004015 
L 396.233549 671.14584 
L 391.74244 674.574153 
L 388.280936 678.445592 
L 385.411749 683.331761 
L 383.031752 690.072051 
L 381.444312 699.418361 
L 381.154119 711.826912 
L 382.653783 727.499872 
L 386.34062 746.515735 
L 392.522211 768.924757 
L 401.446371 794.792326 
L 413.326983 824.211237 
L 428.360544 857.300991 
L 446.950597 894.635216 
L 446.950597 894.635216 
" clip-path="url(#p229422d325)" style="fill: none; stroke: #17becf; stroke-width: 1.5"/>
   </g>
   <g id="patch_3">
    <path d="M 274.452861 961.2 
L 274.452861 129.6 
" style="fill: none; stroke: #000000; stroke-width: 0.8; stroke-linejoin: miter; stroke-linecap: square"/>
   </g>
   <g id="patch_4">
    <path d="M 1201.547139 961.2 
L 1201.547139 129.6 
" style="fill: none; stroke: #000000; stroke-width: 0.8; stroke-linejoin: miter; stroke-linecap: square"/>
   </g>
   <g id="patch_5">
    <path d="M 274.452861 961.2 
L 1201.547139 961.2 
" style="fill: none; stroke: #000000; stroke-width: 0.8; stroke-linejoin: miter; stroke-linecap: square"/>
   </g>
   <g id="patch_6">
    <path d="M 274.452861 129.6 
L 1201.547139 129.6 
" style="fill: none; stroke: #000000; stroke-width: 0.8; stroke-linejoin: miter; stroke-linecap: square"/>
   </g>
  </g>
 </g>
 <defs>
  <clipPath id="p229422d325">
   <rect x="274.452861" y="129.6" width="927.094279" height="831.6"/>
  </clipPath>
 </defs>
</svg>
