<?xml version="1.0" encoding="utf-8" standalone="no"?>
<!DOCTYPE svg PUBLIC "-//W3C//DTD SVG 1.1//EN"
  "http://www.w3.org/Graphics/SVG/1.1/DTD/svg11.dtd">
<svg xmlns:xlink="http://www.w3.org/1999/xlink" width="1440pt" height="1080pt" viewBox="0 0 1440 1080" xmlns="http://www.w3.org/2000/svg" version="1.1">
 <metadata>
  <rdf:RDF xmlns:dc="http://purl.org/dc/elements/1.1/" xmlns:cc="http://creativecommons.org/ns#" xmlns:rdf="http://www.w3.org/1999/02/22-rdf-syntax-ns#">
   <cc:Work>
    <dc:type rdf:resource="http://purl.org/dc/dcmitype/StillImage"/>
    <dc:date>2023-12-11T12:06:58.518107</dc:date>
    <dc:format>image/svg+xml</dc:format>
    <dc:creator>
     <cc:Agent>
      <dc:title>Matplotlib v3.7.1, https://matplotlib.org/</dc:title>
     </cc:Agent>
    </dc:creator>
   </cc:Work>
  </rdf:RDF>
 </metadata>
 <defs>
  <style type="text/css">*{stroke-linejoin: round; stroke-linecap: butt}</style>
 </defs>
 <g id="figure_1">
  <g id="patch_1">
   <path d="M 0 1080 
L 1440 1080 
L 1440 0 
L 0 0 
z
" style="fill: #ffffff"/>
  </g>
  <g id="axes_1">
   <g id="patch_2">
    <path d="M 180 790.931287 
L 1296 790.931287 
L 1296 299.868713 
L 180 299.868713 
z
" style="fill: #ffffff"/>
   </g>
   <g id="matplotlib.axis_1">
    <g id="xtick_1">
     <g id="line2d_1">
      <defs>
       <path id="m36e94b15c9" d="M 0 0 
L 0 3.5 
" style="stroke: #000000; stroke-width: 0.8"/>
      </defs>
      <g>
       <use xlink:href="#m36e94b15c9" x="330.065493" y="790.931287" style="stroke: #000000; stroke-width: 0.8"/>
      </g>
     </g>
     <g id="text_1">
      <!-- 600 -->
      <g transform="translate(320.521743 805.529724) scale(0.1 -0.1)">
       <defs>
        <path id="DejaVuSans-36" d="M 2113 2584 
Q 1688 2584 1439 2293 
Q 1191 2003 1191 1497 
Q 1191 994 1439 701 
Q 1688 409 2113 409 
Q 2538 409 2786 701 
Q 3034 994 3034 1497 
Q 3034 2003 2786 2293 
Q 2538 2584 2113 2584 
z
M 3366 4563 
L 3366 3988 
Q 3128 4100 2886 4159 
Q 2644 4219 2406 4219 
Q 1781 4219 1451 3797 
Q 1122 3375 1075 2522 
Q 1259 2794 1537 2939 
Q 1816 3084 2150 3084 
Q 2853 3084 3261 2657 
Q 3669 2231 3669 1497 
Q 3669 778 3244 343 
Q 2819 -91 2113 -91 
Q 1303 -91 875 529 
Q 447 1150 447 2328 
Q 447 3434 972 4092 
Q 1497 4750 2381 4750 
Q 2619 4750 2861 4703 
Q 3103 4656 3366 4563 
z
" transform="scale(0.015625)"/>
        <path id="DejaVuSans-30" d="M 2034 4250 
Q 1547 4250 1301 3770 
Q 1056 3291 1056 2328 
Q 1056 1369 1301 889 
Q 1547 409 2034 409 
Q 2525 409 2770 889 
Q 3016 1369 3016 2328 
Q 3016 3291 2770 3770 
Q 2525 4250 2034 4250 
z
M 2034 4750 
Q 2819 4750 3233 4129 
Q 3647 3509 3647 2328 
Q 3647 1150 3233 529 
Q 2819 -91 2034 -91 
Q 1250 -91 836 529 
Q 422 1150 422 2328 
Q 422 3509 836 4129 
Q 1250 4750 2034 4750 
z
" transform="scale(0.015625)"/>
       </defs>
       <use xlink:href="#DejaVuSans-36"/>
       <use xlink:href="#DejaVuSans-30" x="63.623047"/>
       <use xlink:href="#DejaVuSans-30" x="127.246094"/>
      </g>
     </g>
    </g>
    <g id="xtick_2">
     <g id="line2d_2">
      <g>
       <use xlink:href="#m36e94b15c9" x="501.944532" y="790.931287" style="stroke: #000000; stroke-width: 0.8"/>
      </g>
     </g>
     <g id="text_2">
      <!-- 800 -->
      <g transform="translate(492.400782 805.529724) scale(0.1 -0.1)">
       <defs>
        <path id="DejaVuSans-38" d="M 2034 2216 
Q 1584 2216 1326 1975 
Q 1069 1734 1069 1313 
Q 1069 891 1326 650 
Q 1584 409 2034 409 
Q 2484 409 2743 651 
Q 3003 894 3003 1313 
Q 3003 1734 2745 1975 
Q 2488 2216 2034 2216 
z
M 1403 2484 
Q 997 2584 770 2862 
Q 544 3141 544 3541 
Q 544 4100 942 4425 
Q 1341 4750 2034 4750 
Q 2731 4750 3128 4425 
Q 3525 4100 3525 3541 
Q 3525 3141 3298 2862 
Q 3072 2584 2669 2484 
Q 3125 2378 3379 2068 
Q 3634 1759 3634 1313 
Q 3634 634 3220 271 
Q 2806 -91 2034 -91 
Q 1263 -91 848 271 
Q 434 634 434 1313 
Q 434 1759 690 2068 
Q 947 2378 1403 2484 
z
M 1172 3481 
Q 1172 3119 1398 2916 
Q 1625 2713 2034 2713 
Q 2441 2713 2670 2916 
Q 2900 3119 2900 3481 
Q 2900 3844 2670 4047 
Q 2441 4250 2034 4250 
Q 1625 4250 1398 4047 
Q 1172 3844 1172 3481 
z
" transform="scale(0.015625)"/>
       </defs>
       <use xlink:href="#DejaVuSans-38"/>
       <use xlink:href="#DejaVuSans-30" x="63.623047"/>
       <use xlink:href="#DejaVuSans-30" x="127.246094"/>
      </g>
     </g>
    </g>
    <g id="xtick_3">
     <g id="line2d_3">
      <g>
       <use xlink:href="#m36e94b15c9" x="673.823572" y="790.931287" style="stroke: #000000; stroke-width: 0.8"/>
      </g>
     </g>
     <g id="text_3">
      <!-- 1000 -->
      <g transform="translate(661.098572 805.529724) scale(0.1 -0.1)">
       <defs>
        <path id="DejaVuSans-31" d="M 794 531 
L 1825 531 
L 1825 4091 
L 703 3866 
L 703 4441 
L 1819 4666 
L 2450 4666 
L 2450 531 
L 3481 531 
L 3481 0 
L 794 0 
L 794 531 
z
" transform="scale(0.015625)"/>
       </defs>
       <use xlink:href="#DejaVuSans-31"/>
       <use xlink:href="#DejaVuSans-30" x="63.623047"/>
       <use xlink:href="#DejaVuSans-30" x="127.246094"/>
       <use xlink:href="#DejaVuSans-30" x="190.869141"/>
      </g>
     </g>
    </g>
    <g id="xtick_4">
     <g id="line2d_4">
      <g>
       <use xlink:href="#m36e94b15c9" x="845.702611" y="790.931287" style="stroke: #000000; stroke-width: 0.8"/>
      </g>
     </g>
     <g id="text_4">
      <!-- 1200 -->
      <g transform="translate(832.977611 805.529724) scale(0.1 -0.1)">
       <defs>
        <path id="DejaVuSans-32" d="M 1228 531 
L 3431 531 
L 3431 0 
L 469 0 
L 469 531 
Q 828 903 1448 1529 
Q 2069 2156 2228 2338 
Q 2531 2678 2651 2914 
Q 2772 3150 2772 3378 
Q 2772 3750 2511 3984 
Q 2250 4219 1831 4219 
Q 1534 4219 1204 4116 
Q 875 4013 500 3803 
L 500 4441 
Q 881 4594 1212 4672 
Q 1544 4750 1819 4750 
Q 2544 4750 2975 4387 
Q 3406 4025 3406 3419 
Q 3406 3131 3298 2873 
Q 3191 2616 2906 2266 
Q 2828 2175 2409 1742 
Q 1991 1309 1228 531 
z
" transform="scale(0.015625)"/>
       </defs>
       <use xlink:href="#DejaVuSans-31"/>
       <use xlink:href="#DejaVuSans-32" x="63.623047"/>
       <use xlink:href="#DejaVuSans-30" x="127.246094"/>
       <use xlink:href="#DejaVuSans-30" x="190.869141"/>
      </g>
     </g>
    </g>
    <g id="xtick_5">
     <g id="line2d_5">
      <g>
       <use xlink:href="#m36e94b15c9" x="1017.58165" y="790.931287" style="stroke: #000000; stroke-width: 0.8"/>
      </g>
     </g>
     <g id="text_5">
      <!-- 1400 -->
      <g transform="translate(1004.85665 805.529724) scale(0.1 -0.1)">
       <defs>
        <path id="DejaVuSans-34" d="M 2419 4116 
L 825 1625 
L 2419 1625 
L 2419 4116 
z
M 2253 4666 
L 3047 4666 
L 3047 1625 
L 3713 1625 
L 3713 1100 
L 3047 1100 
L 3047 0 
L 2419 0 
L 2419 1100 
L 313 1100 
L 313 1709 
L 2253 4666 
z
" transform="scale(0.015625)"/>
       </defs>
       <use xlink:href="#DejaVuSans-31"/>
       <use xlink:href="#DejaVuSans-34" x="63.623047"/>
       <use xlink:href="#DejaVuSans-30" x="127.246094"/>
       <use xlink:href="#DejaVuSans-30" x="190.869141"/>
      </g>
     </g>
    </g>
    <g id="xtick_6">
     <g id="line2d_6">
      <g>
       <use xlink:href="#m36e94b15c9" x="1189.460689" y="790.931287" style="stroke: #000000; stroke-width: 0.8"/>
      </g>
     </g>
     <g id="text_6">
      <!-- 1600 -->
      <g transform="translate(1176.735689 805.529724) scale(0.1 -0.1)">
       <use xlink:href="#DejaVuSans-31"/>
       <use xlink:href="#DejaVuSans-36" x="63.623047"/>
       <use xlink:href="#DejaVuSans-30" x="127.246094"/>
       <use xlink:href="#DejaVuSans-30" x="190.869141"/>
      </g>
     </g>
    </g>
   </g>
   <g id="matplotlib.axis_2">
    <g id="ytick_1">
     <g id="line2d_7">
      <defs>
       <path id="m2262b30d92" d="M 0 0 
L -3.5 0 
" style="stroke: #000000; stroke-width: 0.8"/>
      </defs>
      <g>
       <use xlink:href="#m2262b30d92" x="180" y="716.854795" style="stroke: #000000; stroke-width: 0.8"/>
      </g>
     </g>
     <g id="text_7">
      <!-- 700 -->
      <g transform="translate(153.9125 720.654014) scale(0.1 -0.1)">
       <defs>
        <path id="DejaVuSans-37" d="M 525 4666 
L 3525 4666 
L 3525 4397 
L 1831 0 
L 1172 0 
L 2766 4134 
L 525 4134 
L 525 4666 
z
" transform="scale(0.015625)"/>
       </defs>
       <use xlink:href="#DejaVuSans-37"/>
       <use xlink:href="#DejaVuSans-30" x="63.623047"/>
       <use xlink:href="#DejaVuSans-30" x="127.246094"/>
      </g>
     </g>
    </g>
    <g id="ytick_2">
     <g id="line2d_8">
      <g>
       <use xlink:href="#m2262b30d92" x="180" y="630.915275" style="stroke: #000000; stroke-width: 0.8"/>
      </g>
     </g>
     <g id="text_8">
      <!-- 800 -->
      <g transform="translate(153.9125 634.714494) scale(0.1 -0.1)">
       <use xlink:href="#DejaVuSans-38"/>
       <use xlink:href="#DejaVuSans-30" x="63.623047"/>
       <use xlink:href="#DejaVuSans-30" x="127.246094"/>
      </g>
     </g>
    </g>
    <g id="ytick_3">
     <g id="line2d_9">
      <g>
       <use xlink:href="#m2262b30d92" x="180" y="544.975756" style="stroke: #000000; stroke-width: 0.8"/>
      </g>
     </g>
     <g id="text_9">
      <!-- 900 -->
      <g transform="translate(153.9125 548.774974) scale(0.1 -0.1)">
       <defs>
        <path id="DejaVuSans-39" d="M 703 97 
L 703 672 
Q 941 559 1184 500 
Q 1428 441 1663 441 
Q 2288 441 2617 861 
Q 2947 1281 2994 2138 
Q 2813 1869 2534 1725 
Q 2256 1581 1919 1581 
Q 1219 1581 811 2004 
Q 403 2428 403 3163 
Q 403 3881 828 4315 
Q 1253 4750 1959 4750 
Q 2769 4750 3195 4129 
Q 3622 3509 3622 2328 
Q 3622 1225 3098 567 
Q 2575 -91 1691 -91 
Q 1453 -91 1209 -44 
Q 966 3 703 97 
z
M 1959 2075 
Q 2384 2075 2632 2365 
Q 2881 2656 2881 3163 
Q 2881 3666 2632 3958 
Q 2384 4250 1959 4250 
Q 1534 4250 1286 3958 
Q 1038 3666 1038 3163 
Q 1038 2656 1286 2365 
Q 1534 2075 1959 2075 
z
" transform="scale(0.015625)"/>
       </defs>
       <use xlink:href="#DejaVuSans-39"/>
       <use xlink:href="#DejaVuSans-30" x="63.623047"/>
       <use xlink:href="#DejaVuSans-30" x="127.246094"/>
      </g>
     </g>
    </g>
    <g id="ytick_4">
     <g id="line2d_10">
      <g>
       <use xlink:href="#m2262b30d92" x="180" y="459.036236" style="stroke: #000000; stroke-width: 0.8"/>
      </g>
     </g>
     <g id="text_10">
      <!-- 1000 -->
      <g transform="translate(147.55 462.835455) scale(0.1 -0.1)">
       <use xlink:href="#DejaVuSans-31"/>
       <use xlink:href="#DejaVuSans-30" x="63.623047"/>
       <use xlink:href="#DejaVuSans-30" x="127.246094"/>
       <use xlink:href="#DejaVuSans-30" x="190.869141"/>
      </g>
     </g>
    </g>
    <g id="ytick_5">
     <g id="line2d_11">
      <g>
       <use xlink:href="#m2262b30d92" x="180" y="373.096717" style="stroke: #000000; stroke-width: 0.8"/>
      </g>
     </g>
     <g id="text_11">
      <!-- 1100 -->
      <g transform="translate(147.55 376.895935) scale(0.1 -0.1)">
       <use xlink:href="#DejaVuSans-31"/>
       <use xlink:href="#DejaVuSans-31" x="63.623047"/>
       <use xlink:href="#DejaVuSans-30" x="127.246094"/>
       <use xlink:href="#DejaVuSans-30" x="190.869141"/>
      </g>
     </g>
    </g>
   </g>
   <g id="LineCollection_1">
    <path d="M 1231.619704 698.557501 
L 1209.289943 715.793513 
L 1189.425806 728.618597 
L 1171.630022 737.654573 
L 1155.806635 743.311759 
L 1141.822017 746.02959 
L 1129.456761 746.250716 
L 1118.392213 744.34909 
L 1108.279371 740.562613 
L 1098.847462 735.010422 
L 1089.950011 727.779989 
L 1081.529621 718.993715 
L 1073.56283 708.819413 
L 1066.0267 697.451748 
L 1058.887917 685.092442 
L 1052.102945 671.937942 
L 1045.62137 658.173509 
L 1039.389237 643.970998 
L 1033.351554 629.488423 
L 1021.642672 600.245319 
L 1010.061816 571.398079 
L 1004.208362 557.405843 
L 998.254075 543.81885 
L 992.157803 530.713137 
L 985.880468 518.155862 
L 979.384819 506.206204 
L 972.635294 494.916462 
L 965.598135 484.333393 
L 958.241928 474.499756 
L 950.538815 465.455894 
L 942.466498 457.240992 
L 934.01095 449.893423 
L 925.169245 443.449549 
L 915.951413 437.940709 
L 906.380091 433.388921 
L 896.487353 429.802763 
L 886.309407 427.175151 
L 875.88095 425.483939 
L 865.231054 424.694929 
L 854.381479 424.76591 
L 843.347143 425.650361 
L 832.13784 427.300048 
L 820.760284 429.666451 
L 809.219896 432.701284 
L 797.522111 436.356501 
L 785.673195 440.584069 
L 773.680685 445.335708 
L 761.553555 450.56267 
L 749.302213 456.215604 
L 736.938408 462.244503 
L 724.475083 468.598713 
L 711.926214 475.227003 
L 699.306645 482.07767 
L 673.918212 496.237755 
L 622.975133 524.951052 
L 610.30725 531.908045 
L 597.702377 538.674547 
L 585.177688 545.201493 
L 572.750297 551.440929 
L 560.437227 557.346191 
L 548.255373 562.872096 
L 536.221462 567.975153 
L 524.351979 572.613794 
L 512.663062 576.748631 
L 501.170308 580.342741 
L 489.888477 583.361953 
L 478.831047 585.77511 
L 468.009571 587.554252 
L 457.432849 588.674614 
L 447.105933 589.114313 
L 437.029125 588.853608 
L 427.197197 587.873647 
L 417.599179 586.154767 
L 408.219021 583.674635 
L 399.037249 580.406691 
L 390.033395 576.3194 
L 381.188632 571.376628 
L 372.487946 565.539043 
L 363.921321 558.766101 
L 355.483812 551.017988 
L 347.174753 542.257052 
L 338.996512 532.448508 
L 330.953195 521.560456 
L 323.049556 509.563411 
L 315.29023 496.429565 
L 307.679272 482.131941 
L 300.219959 466.643563 
L 292.914768 449.936692 
L 285.765484 431.982126 
L 278.773366 412.74859 
L 271.939359 392.202163 
L 265.264323 370.305759 
L 258.749264 347.018615 
L 252.368303 322.18974 
L 252.368303 322.18974 
" clip-path="url(#p7cd63376b7)" style="fill: none; stroke: #1f77b4; stroke-width: 1.5"/>
    <path d="M 1238.446216 707.401448 
L 1215.744538 724.924537 
L 1194.999692 738.318242 
L 1176.057299 747.936419 
L 1158.769827 754.117045 
L 1142.996452 757.182512 
L 1128.602925 757.439909 
L 1115.461438 755.181327 
L 1103.450486 750.684154 
L 1092.454726 744.211386 
L 1082.364841 736.011931 
L 1073.077396 726.320928 
L 1064.4947 715.36006 
L 1056.52466 703.337876 
L 1049.080639 690.450115 
L 1042.081313 676.880031 
L 1035.450523 662.798722 
L 1029.117136 648.36546 
L 1023.014893 633.728026 
L 1017.082269 619.02304 
L 1011.262322 604.376299 
L 1005.502551 589.903114 
L 999.754748 575.708647 
L 993.974853 561.888246 
L 988.122808 548.527787 
L 982.162411 535.704009 
L 976.061175 523.484852 
L 969.790176 511.929794 
L 963.323916 501.090188 
L 956.640177 491.009594 
L 949.719881 481.724115 
L 942.546944 473.262728 
L 935.108139 465.647609 
L 927.392958 458.894468 
L 919.393468 453.012867 
L 911.10418 448.006542 
L 902.521913 443.873725 
L 893.645655 440.607457 
L 884.476435 438.195898 
L 875.017192 436.622636 
L 865.272643 435.866989 
L 855.24916 435.904303 
L 844.95464 436.706246 
L 834.398386 438.241098 
L 823.590985 440.474031 
L 812.544186 443.367387 
L 801.27079 446.880951 
L 789.784529 450.972216 
L 778.099959 455.596638 
L 766.232352 460.707891 
L 754.197585 466.258113 
L 742.012044 472.198139 
L 729.692516 478.477733 
L 717.256098 485.045811 
L 704.7201 491.850651 
L 692.101955 498.840101 
L 679.419132 505.961774 
L 666.689049 513.163236 
L 653.928998 520.392183 
L 641.156062 527.596608 
L 628.387047 534.724964 
L 615.638408 541.726306 
L 602.926187 548.550434 
L 590.265952 555.148017 
L 577.672735 561.47071 
L 565.160984 567.471258 
L 552.74451 573.103591 
L 540.436448 578.322903 
L 528.249209 583.085724 
L 516.194455 587.349973 
L 504.283058 591.075005 
L 492.52508 594.221641 
L 480.929753 596.752188 
L 469.505459 598.630439 
L 458.259721 599.821667 
L 447.199198 600.292601 
L 436.329683 600.011388 
L 425.656111 598.947539 
L 415.182565 597.071863 
L 404.912295 594.356384 
L 394.847738 590.774242 
L 384.990549 586.299582 
L 375.34163 580.907418 
L 365.901169 574.573493 
L 356.668691 567.274115 
L 347.643103 558.985971 
L 338.822754 549.68594 
L 330.205502 539.35087 
L 321.788781 527.957349 
L 313.569678 515.481456 
L 305.545018 501.898493 
L 297.711455 487.182693 
L 290.06557 471.30692 
L 282.60397 454.242341 
L 275.323406 435.958082 
L 268.220887 416.420865 
L 261.29381 395.594621 
L 254.540085 373.44009 
L 247.958285 349.914392 
L 241.547788 324.970586 
" clip-path="url(#p7cd63376b7)" style="fill: none; stroke: #8c564b; stroke-width: 1.5"/>
    <path d="M 1245.272727 716.245395 
L 1221.804427 734.310399 
L 1200.057764 748.279796 
L 1179.81842 758.45643 
L 1161.724532 764.891384 
L 1160.901192 765.083993 
L 1144.166442 768.293217 
L 1143.19621 768.352863 
L 1127.752862 768.57966 
L 1126.710553 768.450612 
L 1112.543611 765.965711 
L 1111.543936 765.64411 
L 1098.639818 760.767513 
L 1097.782947 760.312013 
L 1086.080048 753.386359 
L 1085.408922 752.88164 
L 1074.298786 743.742094 
L 1064.281084 733.20871 
L 1055.182954 721.533231 
L 1046.850368 708.925785 
L 1039.151479 695.571486 
L 1031.973741 681.639616 
L 1025.219996 667.287928 
L 1018.805222 652.664424 
L 1012.65417 637.907987 
L 1000.880889 608.504558 
L 989.423199 579.96068 
L 983.703845 566.285039 
L 977.939159 553.124026 
L 972.097108 540.554865 
L 966.150947 528.646285 
L 960.079197 517.458366 
L 953.865546 507.042217 
L 947.498599 497.439417 
L 940.971284 488.68123 
L 934.279713 480.787675 
L 927.421307 473.766712 
L 920.392141 467.614044 
L 913.183828 462.314153 
L 905.78079 457.84308 
L 898.159126 454.172844 
L 890.28808 451.276473 
L 882.134108 449.13193 
L 873.666248 447.723555 
L 864.860883 447.040737 
L 855.704419 447.074823 
L 846.193604 447.815716 
L 836.334113 449.249261 
L 826.138358 451.35582 
L 815.623308 454.109902 
L 804.808693 457.480478 
L 793.715717 461.431659 
L 782.366212 465.923472 
L 770.782123 470.912617 
L 758.985221 476.35314 
L 746.996944 482.197006 
L 734.838321 488.394583 
L 722.529928 494.895046 
L 710.091867 501.646724 
L 684.904615 515.694525 
L 633.764969 544.517543 
L 620.922558 551.569802 
L 608.089266 558.457971 
L 595.278822 565.132395 
L 582.503934 571.544248 
L 569.776223 577.64555 
L 557.106165 583.389145 
L 544.503051 588.728642 
L 531.975002 593.618298 
L 519.529043 598.012861 
L 507.171276 601.867356 
L 494.907203 605.136867 
L 482.742215 607.776327 
L 470.682307 609.74042 
L 458.734977 610.983691 
L 446.910252 611.461002 
L 435.221632 611.128442 
L 423.686659 609.944717 
L 412.326766 607.872839 
L 401.166148 604.881737 
L 390.229704 600.947267 
L 379.540449 596.052174 
L 369.117062 590.184886 
L 358.972233 583.337425 
L 349.112129 575.503029 
L 339.536922 566.674046 
L 330.241997 556.840467 
L 321.219411 545.989154 
L 312.459261 534.103625 
L 303.95078 521.164191 
L 295.683116 507.148212 
L 287.645835 492.030367 
L 279.829219 475.782832 
L 272.224426 458.375346 
L 264.823572 439.775169 
L 257.619778 419.94693 
L 250.607202 398.852392 
L 243.781078 376.450144 
L 237.13777 352.695238 
L 230.727273 327.751432 
L 230.727273 327.751432 
" clip-path="url(#p7cd63376b7)" style="fill: none; stroke: #17becf; stroke-width: 1.5"/>
   </g>
   <g id="patch_3">
    <path d="M 180 790.931287 
L 180 299.868713 
" style="fill: none; stroke: #000000; stroke-width: 0.8; stroke-linejoin: miter; stroke-linecap: square"/>
   </g>
   <g id="patch_4">
    <path d="M 1296 790.931287 
L 1296 299.868713 
" style="fill: none; stroke: #000000; stroke-width: 0.8; stroke-linejoin: miter; stroke-linecap: square"/>
   </g>
   <g id="patch_5">
    <path d="M 180 790.931287 
L 1296 790.931287 
" style="fill: none; stroke: #000000; stroke-width: 0.8; stroke-linejoin: miter; stroke-linecap: square"/>
   </g>
   <g id="patch_6">
    <path d="M 180 299.868713 
L 1296 299.868713 
" style="fill: none; stroke: #000000; stroke-width: 0.8; stroke-linejoin: miter; stroke-linecap: square"/>
   </g>
  </g>
 </g>
 <defs>
  <clipPath id="p7cd63376b7">
   <rect x="180" y="299.868713" width="1116" height="491.062573"/>
  </clipPath>
 </defs>
</svg>
