<?xml version="1.0" encoding="utf-8" standalone="no"?>
<!DOCTYPE svg PUBLIC "-//W3C//DTD SVG 1.1//EN"
  "http://www.w3.org/Graphics/SVG/1.1/DTD/svg11.dtd">
<svg xmlns:xlink="http://www.w3.org/1999/xlink" width="1440pt" height="1080pt" viewBox="0 0 1440 1080" xmlns="http://www.w3.org/2000/svg" version="1.1">
 <metadata>
  <rdf:RDF xmlns:dc="http://purl.org/dc/elements/1.1/" xmlns:cc="http://creativecommons.org/ns#" xmlns:rdf="http://www.w3.org/1999/02/22-rdf-syntax-ns#">
   <cc:Work>
    <dc:type rdf:resource="http://purl.org/dc/dcmitype/StillImage"/>
    <dc:date>2023-12-11T12:07:06.223393</dc:date>
    <dc:format>image/svg+xml</dc:format>
    <dc:creator>
     <cc:Agent>
      <dc:title>Matplotlib v3.7.1, https://matplotlib.org/</dc:title>
     </cc:Agent>
    </dc:creator>
   </cc:Work>
  </rdf:RDF>
 </metadata>
 <defs>
  <style type="text/css">*{stroke-linejoin: round; stroke-linecap: butt}</style>
 </defs>
 <g id="figure_1">
  <g id="patch_1">
   <path d="M 0 1080 
L 1440 1080 
L 1440 0 
L 0 0 
z
" style="fill: #ffffff"/>
  </g>
  <g id="axes_1">
   <g id="patch_2">
    <path d="M 550.697426 961.2 
L 925.302574 961.2 
L 925.302574 129.6 
L 550.697426 129.6 
z
" style="fill: #ffffff"/>
   </g>
   <g id="matplotlib.axis_1">
    <g id="xtick_1">
     <g id="line2d_1">
      <defs>
       <path id="m5fb12cd816" d="M 0 0 
L 0 3.5 
" style="stroke: #000000; stroke-width: 0.8"/>
      </defs>
      <g>
       <use xlink:href="#m5fb12cd816" x="563.584959" y="961.2" style="stroke: #000000; stroke-width: 0.8"/>
      </g>
     </g>
     <g id="text_1">
      <!-- 1500 -->
      <g transform="translate(550.859959 975.798437) scale(0.1 -0.1)">
       <defs>
        <path id="DejaVuSans-31" d="M 794 531 
L 1825 531 
L 1825 4091 
L 703 3866 
L 703 4441 
L 1819 4666 
L 2450 4666 
L 2450 531 
L 3481 531 
L 3481 0 
L 794 0 
L 794 531 
z
" transform="scale(0.015625)"/>
        <path id="DejaVuSans-35" d="M 691 4666 
L 3169 4666 
L 3169 4134 
L 1269 4134 
L 1269 2991 
Q 1406 3038 1543 3061 
Q 1681 3084 1819 3084 
Q 2600 3084 3056 2656 
Q 3513 2228 3513 1497 
Q 3513 744 3044 326 
Q 2575 -91 1722 -91 
Q 1428 -91 1123 -41 
Q 819 9 494 109 
L 494 744 
Q 775 591 1075 516 
Q 1375 441 1709 441 
Q 2250 441 2565 725 
Q 2881 1009 2881 1497 
Q 2881 1984 2565 2268 
Q 2250 2553 1709 2553 
Q 1456 2553 1204 2497 
Q 953 2441 691 2322 
L 691 4666 
z
" transform="scale(0.015625)"/>
        <path id="DejaVuSans-30" d="M 2034 4250 
Q 1547 4250 1301 3770 
Q 1056 3291 1056 2328 
Q 1056 1369 1301 889 
Q 1547 409 2034 409 
Q 2525 409 2770 889 
Q 3016 1369 3016 2328 
Q 3016 3291 2770 3770 
Q 2525 4250 2034 4250 
z
M 2034 4750 
Q 2819 4750 3233 4129 
Q 3647 3509 3647 2328 
Q 3647 1150 3233 529 
Q 2819 -91 2034 -91 
Q 1250 -91 836 529 
Q 422 1150 422 2328 
Q 422 3509 836 4129 
Q 1250 4750 2034 4750 
z
" transform="scale(0.015625)"/>
       </defs>
       <use xlink:href="#DejaVuSans-31"/>
       <use xlink:href="#DejaVuSans-35" x="63.623047"/>
       <use xlink:href="#DejaVuSans-30" x="127.246094"/>
       <use xlink:href="#DejaVuSans-30" x="190.869141"/>
      </g>
     </g>
    </g>
    <g id="xtick_2">
     <g id="line2d_2">
      <g>
       <use xlink:href="#m5fb12cd816" x="614.659842" y="961.2" style="stroke: #000000; stroke-width: 0.8"/>
      </g>
     </g>
     <g id="text_2">
      <!-- 1550 -->
      <g transform="translate(601.934842 975.798437) scale(0.1 -0.1)">
       <use xlink:href="#DejaVuSans-31"/>
       <use xlink:href="#DejaVuSans-35" x="63.623047"/>
       <use xlink:href="#DejaVuSans-35" x="127.246094"/>
       <use xlink:href="#DejaVuSans-30" x="190.869141"/>
      </g>
     </g>
    </g>
    <g id="xtick_3">
     <g id="line2d_3">
      <g>
       <use xlink:href="#m5fb12cd816" x="665.734726" y="961.2" style="stroke: #000000; stroke-width: 0.8"/>
      </g>
     </g>
     <g id="text_3">
      <!-- 1600 -->
      <g transform="translate(653.009726 975.798437) scale(0.1 -0.1)">
       <defs>
        <path id="DejaVuSans-36" d="M 2113 2584 
Q 1688 2584 1439 2293 
Q 1191 2003 1191 1497 
Q 1191 994 1439 701 
Q 1688 409 2113 409 
Q 2538 409 2786 701 
Q 3034 994 3034 1497 
Q 3034 2003 2786 2293 
Q 2538 2584 2113 2584 
z
M 3366 4563 
L 3366 3988 
Q 3128 4100 2886 4159 
Q 2644 4219 2406 4219 
Q 1781 4219 1451 3797 
Q 1122 3375 1075 2522 
Q 1259 2794 1537 2939 
Q 1816 3084 2150 3084 
Q 2853 3084 3261 2657 
Q 3669 2231 3669 1497 
Q 3669 778 3244 343 
Q 2819 -91 2113 -91 
Q 1303 -91 875 529 
Q 447 1150 447 2328 
Q 447 3434 972 4092 
Q 1497 4750 2381 4750 
Q 2619 4750 2861 4703 
Q 3103 4656 3366 4563 
z
" transform="scale(0.015625)"/>
       </defs>
       <use xlink:href="#DejaVuSans-31"/>
       <use xlink:href="#DejaVuSans-36" x="63.623047"/>
       <use xlink:href="#DejaVuSans-30" x="127.246094"/>
       <use xlink:href="#DejaVuSans-30" x="190.869141"/>
      </g>
     </g>
    </g>
    <g id="xtick_4">
     <g id="line2d_4">
      <g>
       <use xlink:href="#m5fb12cd816" x="716.809609" y="961.2" style="stroke: #000000; stroke-width: 0.8"/>
      </g>
     </g>
     <g id="text_4">
      <!-- 1650 -->
      <g transform="translate(704.084609 975.798437) scale(0.1 -0.1)">
       <use xlink:href="#DejaVuSans-31"/>
       <use xlink:href="#DejaVuSans-36" x="63.623047"/>
       <use xlink:href="#DejaVuSans-35" x="127.246094"/>
       <use xlink:href="#DejaVuSans-30" x="190.869141"/>
      </g>
     </g>
    </g>
    <g id="xtick_5">
     <g id="line2d_5">
      <g>
       <use xlink:href="#m5fb12cd816" x="767.884492" y="961.2" style="stroke: #000000; stroke-width: 0.8"/>
      </g>
     </g>
     <g id="text_5">
      <!-- 1700 -->
      <g transform="translate(755.159492 975.798437) scale(0.1 -0.1)">
       <defs>
        <path id="DejaVuSans-37" d="M 525 4666 
L 3525 4666 
L 3525 4397 
L 1831 0 
L 1172 0 
L 2766 4134 
L 525 4134 
L 525 4666 
z
" transform="scale(0.015625)"/>
       </defs>
       <use xlink:href="#DejaVuSans-31"/>
       <use xlink:href="#DejaVuSans-37" x="63.623047"/>
       <use xlink:href="#DejaVuSans-30" x="127.246094"/>
       <use xlink:href="#DejaVuSans-30" x="190.869141"/>
      </g>
     </g>
    </g>
    <g id="xtick_6">
     <g id="line2d_6">
      <g>
       <use xlink:href="#m5fb12cd816" x="818.959375" y="961.2" style="stroke: #000000; stroke-width: 0.8"/>
      </g>
     </g>
     <g id="text_6">
      <!-- 1750 -->
      <g transform="translate(806.234375 975.798437) scale(0.1 -0.1)">
       <use xlink:href="#DejaVuSans-31"/>
       <use xlink:href="#DejaVuSans-37" x="63.623047"/>
       <use xlink:href="#DejaVuSans-35" x="127.246094"/>
       <use xlink:href="#DejaVuSans-30" x="190.869141"/>
      </g>
     </g>
    </g>
    <g id="xtick_7">
     <g id="line2d_7">
      <g>
       <use xlink:href="#m5fb12cd816" x="870.034258" y="961.2" style="stroke: #000000; stroke-width: 0.8"/>
      </g>
     </g>
     <g id="text_7">
      <!-- 1800 -->
      <g transform="translate(857.309258 975.798437) scale(0.1 -0.1)">
       <defs>
        <path id="DejaVuSans-38" d="M 2034 2216 
Q 1584 2216 1326 1975 
Q 1069 1734 1069 1313 
Q 1069 891 1326 650 
Q 1584 409 2034 409 
Q 2484 409 2743 651 
Q 3003 894 3003 1313 
Q 3003 1734 2745 1975 
Q 2488 2216 2034 2216 
z
M 1403 2484 
Q 997 2584 770 2862 
Q 544 3141 544 3541 
Q 544 4100 942 4425 
Q 1341 4750 2034 4750 
Q 2731 4750 3128 4425 
Q 3525 4100 3525 3541 
Q 3525 3141 3298 2862 
Q 3072 2584 2669 2484 
Q 3125 2378 3379 2068 
Q 3634 1759 3634 1313 
Q 3634 634 3220 271 
Q 2806 -91 2034 -91 
Q 1263 -91 848 271 
Q 434 634 434 1313 
Q 434 1759 690 2068 
Q 947 2378 1403 2484 
z
M 1172 3481 
Q 1172 3119 1398 2916 
Q 1625 2713 2034 2713 
Q 2441 2713 2670 2916 
Q 2900 3119 2900 3481 
Q 2900 3844 2670 4047 
Q 2441 4250 2034 4250 
Q 1625 4250 1398 4047 
Q 1172 3844 1172 3481 
z
" transform="scale(0.015625)"/>
       </defs>
       <use xlink:href="#DejaVuSans-31"/>
       <use xlink:href="#DejaVuSans-38" x="63.623047"/>
       <use xlink:href="#DejaVuSans-30" x="127.246094"/>
       <use xlink:href="#DejaVuSans-30" x="190.869141"/>
      </g>
     </g>
    </g>
    <g id="xtick_8">
     <g id="line2d_8">
      <g>
       <use xlink:href="#m5fb12cd816" x="921.109141" y="961.2" style="stroke: #000000; stroke-width: 0.8"/>
      </g>
     </g>
     <g id="text_8">
      <!-- 1850 -->
      <g transform="translate(908.384141 975.798437) scale(0.1 -0.1)">
       <use xlink:href="#DejaVuSans-31"/>
       <use xlink:href="#DejaVuSans-38" x="63.623047"/>
       <use xlink:href="#DejaVuSans-35" x="127.246094"/>
       <use xlink:href="#DejaVuSans-30" x="190.869141"/>
      </g>
     </g>
    </g>
   </g>
   <g id="matplotlib.axis_2">
    <g id="ytick_1">
     <g id="line2d_9">
      <defs>
       <path id="mdae4f65944" d="M 0 0 
L -3.5 0 
" style="stroke: #000000; stroke-width: 0.8"/>
      </defs>
      <g>
       <use xlink:href="#mdae4f65944" x="550.697426" y="958.868873" style="stroke: #000000; stroke-width: 0.8"/>
      </g>
     </g>
     <g id="text_9">
      <!-- 400 -->
      <g transform="translate(524.609926 962.668092) scale(0.1 -0.1)">
       <defs>
        <path id="DejaVuSans-34" d="M 2419 4116 
L 825 1625 
L 2419 1625 
L 2419 4116 
z
M 2253 4666 
L 3047 4666 
L 3047 1625 
L 3713 1625 
L 3713 1100 
L 3047 1100 
L 3047 0 
L 2419 0 
L 2419 1100 
L 313 1100 
L 313 1709 
L 2253 4666 
z
" transform="scale(0.015625)"/>
       </defs>
       <use xlink:href="#DejaVuSans-34"/>
       <use xlink:href="#DejaVuSans-30" x="63.623047"/>
       <use xlink:href="#DejaVuSans-30" x="127.246094"/>
      </g>
     </g>
    </g>
    <g id="ytick_2">
     <g id="line2d_10">
      <g>
       <use xlink:href="#mdae4f65944" x="550.697426" y="856.719107" style="stroke: #000000; stroke-width: 0.8"/>
      </g>
     </g>
     <g id="text_10">
      <!-- 500 -->
      <g transform="translate(524.609926 860.518326) scale(0.1 -0.1)">
       <use xlink:href="#DejaVuSans-35"/>
       <use xlink:href="#DejaVuSans-30" x="63.623047"/>
       <use xlink:href="#DejaVuSans-30" x="127.246094"/>
      </g>
     </g>
    </g>
    <g id="ytick_3">
     <g id="line2d_11">
      <g>
       <use xlink:href="#mdae4f65944" x="550.697426" y="754.569341" style="stroke: #000000; stroke-width: 0.8"/>
      </g>
     </g>
     <g id="text_11">
      <!-- 600 -->
      <g transform="translate(524.609926 758.368559) scale(0.1 -0.1)">
       <use xlink:href="#DejaVuSans-36"/>
       <use xlink:href="#DejaVuSans-30" x="63.623047"/>
       <use xlink:href="#DejaVuSans-30" x="127.246094"/>
      </g>
     </g>
    </g>
    <g id="ytick_4">
     <g id="line2d_12">
      <g>
       <use xlink:href="#mdae4f65944" x="550.697426" y="652.419574" style="stroke: #000000; stroke-width: 0.8"/>
      </g>
     </g>
     <g id="text_12">
      <!-- 700 -->
      <g transform="translate(524.609926 656.218793) scale(0.1 -0.1)">
       <use xlink:href="#DejaVuSans-37"/>
       <use xlink:href="#DejaVuSans-30" x="63.623047"/>
       <use xlink:href="#DejaVuSans-30" x="127.246094"/>
      </g>
     </g>
    </g>
    <g id="ytick_5">
     <g id="line2d_13">
      <g>
       <use xlink:href="#mdae4f65944" x="550.697426" y="550.269808" style="stroke: #000000; stroke-width: 0.8"/>
      </g>
     </g>
     <g id="text_13">
      <!-- 800 -->
      <g transform="translate(524.609926 554.069027) scale(0.1 -0.1)">
       <use xlink:href="#DejaVuSans-38"/>
       <use xlink:href="#DejaVuSans-30" x="63.623047"/>
       <use xlink:href="#DejaVuSans-30" x="127.246094"/>
      </g>
     </g>
    </g>
    <g id="ytick_6">
     <g id="line2d_14">
      <g>
       <use xlink:href="#mdae4f65944" x="550.697426" y="448.120042" style="stroke: #000000; stroke-width: 0.8"/>
      </g>
     </g>
     <g id="text_14">
      <!-- 900 -->
      <g transform="translate(524.609926 451.919261) scale(0.1 -0.1)">
       <defs>
        <path id="DejaVuSans-39" d="M 703 97 
L 703 672 
Q 941 559 1184 500 
Q 1428 441 1663 441 
Q 2288 441 2617 861 
Q 2947 1281 2994 2138 
Q 2813 1869 2534 1725 
Q 2256 1581 1919 1581 
Q 1219 1581 811 2004 
Q 403 2428 403 3163 
Q 403 3881 828 4315 
Q 1253 4750 1959 4750 
Q 2769 4750 3195 4129 
Q 3622 3509 3622 2328 
Q 3622 1225 3098 567 
Q 2575 -91 1691 -91 
Q 1453 -91 1209 -44 
Q 966 3 703 97 
z
M 1959 2075 
Q 2384 2075 2632 2365 
Q 2881 2656 2881 3163 
Q 2881 3666 2632 3958 
Q 2384 4250 1959 4250 
Q 1534 4250 1286 3958 
Q 1038 3666 1038 3163 
Q 1038 2656 1286 2365 
Q 1534 2075 1959 2075 
z
" transform="scale(0.015625)"/>
       </defs>
       <use xlink:href="#DejaVuSans-39"/>
       <use xlink:href="#DejaVuSans-30" x="63.623047"/>
       <use xlink:href="#DejaVuSans-30" x="127.246094"/>
      </g>
     </g>
    </g>
    <g id="ytick_7">
     <g id="line2d_15">
      <g>
       <use xlink:href="#mdae4f65944" x="550.697426" y="345.970276" style="stroke: #000000; stroke-width: 0.8"/>
      </g>
     </g>
     <g id="text_15">
      <!-- 1000 -->
      <g transform="translate(518.247426 349.769494) scale(0.1 -0.1)">
       <use xlink:href="#DejaVuSans-31"/>
       <use xlink:href="#DejaVuSans-30" x="63.623047"/>
       <use xlink:href="#DejaVuSans-30" x="127.246094"/>
       <use xlink:href="#DejaVuSans-30" x="190.869141"/>
      </g>
     </g>
    </g>
    <g id="ytick_8">
     <g id="line2d_16">
      <g>
       <use xlink:href="#mdae4f65944" x="550.697426" y="243.820509" style="stroke: #000000; stroke-width: 0.8"/>
      </g>
     </g>
     <g id="text_16">
      <!-- 1100 -->
      <g transform="translate(518.247426 247.619728) scale(0.1 -0.1)">
       <use xlink:href="#DejaVuSans-31"/>
       <use xlink:href="#DejaVuSans-31" x="63.623047"/>
       <use xlink:href="#DejaVuSans-30" x="127.246094"/>
       <use xlink:href="#DejaVuSans-30" x="190.869141"/>
      </g>
     </g>
    </g>
    <g id="ytick_9">
     <g id="line2d_17">
      <g>
       <use xlink:href="#mdae4f65944" x="550.697426" y="141.670743" style="stroke: #000000; stroke-width: 0.8"/>
      </g>
     </g>
     <g id="text_17">
      <!-- 1200 -->
      <g transform="translate(518.247426 145.469962) scale(0.1 -0.1)">
       <defs>
        <path id="DejaVuSans-32" d="M 1228 531 
L 3431 531 
L 3431 0 
L 469 0 
L 469 531 
Q 828 903 1448 1529 
Q 2069 2156 2228 2338 
Q 2531 2678 2651 2914 
Q 2772 3150 2772 3378 
Q 2772 3750 2511 3984 
Q 2250 4219 1831 4219 
Q 1534 4219 1204 4116 
Q 875 4013 500 3803 
L 500 4441 
Q 881 4594 1212 4672 
Q 1544 4750 1819 4750 
Q 2544 4750 2975 4387 
Q 3406 4025 3406 3419 
Q 3406 3131 3298 2873 
Q 3191 2616 2906 2266 
Q 2828 2175 2409 1742 
Q 1991 1309 1228 531 
z
" transform="scale(0.015625)"/>
       </defs>
       <use xlink:href="#DejaVuSans-31"/>
       <use xlink:href="#DejaVuSans-32" x="63.623047"/>
       <use xlink:href="#DejaVuSans-30" x="127.246094"/>
       <use xlink:href="#DejaVuSans-30" x="190.869141"/>
      </g>
     </g>
    </g>
   </g>
   <g id="LineCollection_1">
    <path d="M 567.724932 205.83328 
L 576.648135 214.346155 
L 584.870033 222.537656 
L 592.715877 230.64114 
L 600.255873 238.656418 
L 607.549474 246.581793 
L 614.646499 254.414389 
L 621.588123 262.15054 
L 628.407755 269.786205 
L 635.117777 277.30162 
L 635.145911 277.33308 
L 641.75446 284.711209 
L 641.806723 284.769385 
L 648.33375 292.013465 
L 648.403481 292.090552 
L 654.865199 299.20595 
L 654.946041 299.294567 
L 661.354027 306.287079 
L 661.439985 306.380429 
L 667.801699 313.256202 
L 667.88719 313.348165 
L 674.206471 320.11363 
L 674.286372 320.198797 
L 680.563898 326.860598 
L 680.633578 326.93426 
L 686.867311 333.499189 
L 686.92265 333.557292 
L 693.108245 340.032236 
L 693.145649 340.07131 
L 699.293241 346.480275 
L 705.358631 352.792281 
L 711.336366 359.017913 
L 717.2065 365.153328 
L 722.957163 371.20333 
L 728.576623 377.172742 
L 734.053519 383.066346 
L 739.377088 388.888839 
L 744.537368 394.64481 
L 749.525385 400.338744 
L 754.33332 405.97504 
L 758.954655 411.558056 
L 763.38429 417.092168 
L 767.618633 422.581845 
L 771.655657 428.031733 
L 775.494912 433.446742 
L 779.137505 438.832126 
L 782.58604 444.19355 
L 785.844513 449.537133 
L 788.918183 454.869456 
L 791.813414 460.197527 
L 794.537513 465.528717 
L 797.09856 470.870635 
L 799.505256 476.230983 
L 801.766791 481.617383 
L 803.892749 487.037184 
L 805.893031 492.497284 
L 807.777823 498.003958 
L 809.557571 503.562714 
L 811.242982 509.178189 
L 812.845016 514.854071 
L 814.374882 520.593059 
L 815.844002 526.396858 
L 817.263968 532.266192 
L 818.646452 538.200833 
L 820.003099 544.19965 
L 821.345376 550.260652 
L 822.684397 556.381049 
L 824.033254 562.568868 
L 825.3874 568.7545 
L 825.400908 568.815856 
L 826.772894 575.012773 
L 826.793908 575.106879 
L 828.192163 581.315554 
L 828.219611 581.436123 
L 829.651157 587.657342 
L 829.683764 587.797312 
L 831.154029 594.032219 
L 831.190245 594.183805 
L 832.702871 600.433936 
L 832.740815 600.588689 
L 834.297464 606.856019 
L 834.334895 607.004883 
L 835.935058 613.291862 
L 835.969373 613.425238 
L 837.610176 619.734837 
L 837.638449 619.842628 
L 839.314465 626.178376 
L 839.333527 626.250029 
L 841.043154 632.640572 
L 842.757569 639.024616 
L 844.459754 645.396892 
L 846.126269 651.73915 
L 847.734304 658.045644 
L 849.258649 664.310934 
L 850.672044 670.530032 
L 851.945629 676.698707 
L 853.049458 682.814046 
L 853.953 688.875373 
L 854.625524 694.885627 
L 855.036116 700.85323 
L 855.153061 706.794362 
L 854.942271 712.735316 
L 854.364579 718.714356 
L 853.372047 724.782275 
L 851.903909 731.000958 
L 849.883231 737.439669 
L 847.215414 744.169651 
L 843.78917 751.258318 
L 839.479736 758.764598 
L 834.153276 766.736499 
L 827.671182 775.211103 
L 819.893299 784.216407 
L 810.679685 793.774096 
L 799.891066 803.902404 
L 787.38838 814.61854 
L 773.031876 825.94047 
L 756.680085 837.888068 
L 738.188891 850.483759 
L 717.410785 863.752806 
L 693.922363 877.887013 
" clip-path="url(#pb4a6a4e001)" style="fill: none; stroke: #1f77b4; stroke-width: 1.5"/>
    <path d="M 586.057908 186.61664 
L 595.189397 195.328224 
L 603.784604 203.891653 
L 611.929708 212.304225 
L 619.700237 220.564567 
L 627.16186 228.672518 
L 634.371145 236.629009 
L 641.376296 244.435958 
L 648.217843 252.096161 
L 654.929312 259.613196 
L 661.537861 266.991325 
L 668.064889 274.235405 
L 674.526607 281.350802 
L 680.934592 288.343314 
L 687.296307 295.219087 
L 693.615587 301.984553 
L 699.893113 308.646353 
L 706.126847 315.211282 
L 712.312442 321.686226 
L 718.443633 328.078108 
L 724.512601 334.393838 
L 730.510303 340.640264 
L 736.426795 346.824134 
L 742.251519 352.952051 
L 747.973571 359.030444 
L 753.581946 365.06553 
L 759.065764 371.06329 
L 764.414473 377.029443 
L 769.618032 382.969422 
L 774.667071 388.888362 
L 779.553037 394.791078 
L 784.268317 400.682058 
L 788.806344 406.56545 
L 793.161687 412.445061 
L 797.330116 418.324349 
L 801.308665 424.206425 
L 805.095661 430.094053 
L 808.690753 435.989658 
L 812.094915 441.895332 
L 815.310441 447.812841 
L 818.340925 453.743639 
L 821.191222 459.688884 
L 823.867403 465.649449 
L 826.376697 471.625946 
L 828.727416 477.618741 
L 830.928873 483.627982 
L 832.991292 489.653617 
L 834.925698 495.695421 
L 836.743808 501.753027 
L 838.457909 507.825949 
L 840.080723 513.913616 
L 841.625273 520.015403 
L 843.104735 526.130661 
L 844.532285 532.258754 
L 845.920937 538.399093 
L 847.283383 544.55117 
L 848.631819 550.714598 
L 849.977771 556.889145 
L 851.331918 563.074778 
L 852.703904 569.271695 
L 854.102158 575.480369 
L 855.533704 581.701588 
L 857.003969 587.936495 
L 858.516595 594.186626 
L 860.073244 600.453956 
L 861.673407 606.740935 
L 863.31421 613.050534 
L 864.990226 619.386282 
L 866.693282 625.75231 
L 868.412272 632.153387 
L 870.13297 638.594969 
L 871.837849 645.083229 
L 873.505902 651.625104 
L 875.112467 658.228331 
L 876.629053 664.901485 
L 878.023183 671.654018 
L 879.258224 678.496294 
L 880.293244 685.439626 
L 881.08286 692.496312 
L 881.5771 699.679665 
L 881.721272 707.004051 
L 881.455845 714.484914 
L 880.71633 722.138811 
L 879.433181 729.983438 
L 877.531699 738.037659 
L 874.931951 746.321528 
L 871.548694 754.856317 
L 867.291322 763.664533 
L 862.06381 772.769943 
L 855.764689 782.197587 
L 848.287014 791.9738 
L 839.518367 802.126219 
L 829.340856 812.683802 
L 817.631143 823.676829 
L 804.260477 835.136917 
L 789.094753 847.097019 
L 771.994579 859.59143 
L 752.815366 872.655781 
L 731.407433 886.327041 
L 707.61613 900.643507 
" clip-path="url(#pb4a6a4e001)" style="fill: none; stroke: #8c564b; stroke-width: 1.5"/>
    <path d="M 604.390884 167.4 
L 613.934591 176.51347 
L 622.865487 185.417424 
L 631.274498 194.106523 
L 639.243013 202.579652 
L 654.138797 218.891557 
L 694.147694 263.451255 
L 706.748277 277.13589 
L 719.187559 290.395211 
L 737.60223 309.68448 
L 761.589816 334.747449 
L 773.182961 347.144106 
L 784.39198 359.528687 
L 794.873118 371.651978 
L 800.287797 378.194483 
L 805.298233 384.461087 
L 810.147841 390.756662 
L 814.827591 397.083882 
L 819.329318 403.444416 
L 823.645862 409.838861 
L 827.771222 416.266682 
L 831.700709 422.726206 
L 835.431094 429.214639 
L 838.960756 435.728145 
L 842.289794 442.261962 
L 845.420119 448.810566 
L 848.355491 455.367872 
L 851.101512 461.927452 
L 853.665563 468.482765 
L 856.056685 475.027382 
L 858.285417 481.555191 
L 860.36359 488.060574 
L 864.018204 500.611479 
L 865.8276 507.396288 
L 868.971108 520.105047 
L 873.214048 538.808535 
L 881.400137 575.675805 
L 884.31158 587.861883 
L 889.004221 606.312307 
L 899.312027 645.346477 
L 902.52758 659.015609 
L 904.159759 666.936325 
L 905.52691 674.580505 
L 906.68746 682.486216 
L 907.579158 690.673275 
L 908.130895 699.156983 
L 908.26351 707.945792 
L 907.891677 717.039128 
L 906.926947 726.426092 
L 905.281543 736.085851 
L 902.872042 745.990285 
L 899.621772 756.108765 
L 895.460935 766.414085 
L 890.324282 776.887997 
L 884.147009 787.524928 
L 876.860171 798.333196 
L 868.386796 809.333986 
L 858.639396 820.558894 
L 847.518955 832.047014 
L 834.915052 843.842238 
L 820.706695 855.991153 
L 804.763439 868.541588 
L 786.94653 881.541747 
L 767.109936 895.03976 
L 745.1012 909.083534 
L 721.309897 923.4 
L 721.309897 923.4 
" clip-path="url(#pb4a6a4e001)" style="fill: none; stroke: #17becf; stroke-width: 1.5"/>
   </g>
   <g id="patch_3">
    <path d="M 550.697426 961.2 
L 550.697426 129.6 
" style="fill: none; stroke: #000000; stroke-width: 0.8; stroke-linejoin: miter; stroke-linecap: square"/>
   </g>
   <g id="patch_4">
    <path d="M 925.302574 961.2 
L 925.302574 129.6 
" style="fill: none; stroke: #000000; stroke-width: 0.8; stroke-linejoin: miter; stroke-linecap: square"/>
   </g>
   <g id="patch_5">
    <path d="M 550.697426 961.2 
L 925.302574 961.2 
" style="fill: none; stroke: #000000; stroke-width: 0.8; stroke-linejoin: miter; stroke-linecap: square"/>
   </g>
   <g id="patch_6">
    <path d="M 550.697426 129.6 
L 925.302574 129.6 
" style="fill: none; stroke: #000000; stroke-width: 0.8; stroke-linejoin: miter; stroke-linecap: square"/>
   </g>
  </g>
 </g>
 <defs>
  <clipPath id="pb4a6a4e001">
   <rect x="550.697426" y="129.6" width="374.605149" height="831.6"/>
  </clipPath>
 </defs>
</svg>
