<?xml version="1.0" encoding="utf-8" standalone="no"?>
<!DOCTYPE svg PUBLIC "-//W3C//DTD SVG 1.1//EN"
  "http://www.w3.org/Graphics/SVG/1.1/DTD/svg11.dtd">
<svg xmlns:xlink="http://www.w3.org/1999/xlink" width="1440pt" height="1080pt" viewBox="0 0 1440 1080" xmlns="http://www.w3.org/2000/svg" version="1.1">
 <metadata>
  <rdf:RDF xmlns:dc="http://purl.org/dc/elements/1.1/" xmlns:cc="http://creativecommons.org/ns#" xmlns:rdf="http://www.w3.org/1999/02/22-rdf-syntax-ns#">
   <cc:Work>
    <dc:type rdf:resource="http://purl.org/dc/dcmitype/StillImage"/>
    <dc:date>2023-12-11T12:06:53.966862</dc:date>
    <dc:format>image/svg+xml</dc:format>
    <dc:creator>
     <cc:Agent>
      <dc:title>Matplotlib v3.7.1, https://matplotlib.org/</dc:title>
     </cc:Agent>
    </dc:creator>
   </cc:Work>
  </rdf:RDF>
 </metadata>
 <defs>
  <style type="text/css">*{stroke-linejoin: round; stroke-linecap: butt}</style>
 </defs>
 <g id="figure_1">
  <g id="patch_1">
   <path d="M 0 1080 
L 1440 1080 
L 1440 0 
L 0 0 
z
" style="fill: #ffffff"/>
  </g>
  <g id="axes_1">
   <g id="patch_2">
    <path d="M 180 819.904252 
L 1296 819.904252 
L 1296 270.895748 
L 180 270.895748 
z
" style="fill: #ffffff"/>
   </g>
   <g id="matplotlib.axis_1">
    <g id="xtick_1">
     <g id="line2d_1">
      <defs>
       <path id="ma4508b1a38" d="M 0 0 
L 0 3.5 
" style="stroke: #000000; stroke-width: 0.8"/>
      </defs>
      <g>
       <use xlink:href="#ma4508b1a38" x="369.205931" y="819.904252" style="stroke: #000000; stroke-width: 0.8"/>
      </g>
     </g>
     <g id="text_1">
      <!-- 1000 -->
      <g transform="translate(356.480931 834.502689) scale(0.1 -0.1)">
       <defs>
        <path id="DejaVuSans-31" d="M 794 531 
L 1825 531 
L 1825 4091 
L 703 3866 
L 703 4441 
L 1819 4666 
L 2450 4666 
L 2450 531 
L 3481 531 
L 3481 0 
L 794 0 
L 794 531 
z
" transform="scale(0.015625)"/>
        <path id="DejaVuSans-30" d="M 2034 4250 
Q 1547 4250 1301 3770 
Q 1056 3291 1056 2328 
Q 1056 1369 1301 889 
Q 1547 409 2034 409 
Q 2525 409 2770 889 
Q 3016 1369 3016 2328 
Q 3016 3291 2770 3770 
Q 2525 4250 2034 4250 
z
M 2034 4750 
Q 2819 4750 3233 4129 
Q 3647 3509 3647 2328 
Q 3647 1150 3233 529 
Q 2819 -91 2034 -91 
Q 1250 -91 836 529 
Q 422 1150 422 2328 
Q 422 3509 836 4129 
Q 1250 4750 2034 4750 
z
" transform="scale(0.015625)"/>
       </defs>
       <use xlink:href="#DejaVuSans-31"/>
       <use xlink:href="#DejaVuSans-30" x="63.623047"/>
       <use xlink:href="#DejaVuSans-30" x="127.246094"/>
       <use xlink:href="#DejaVuSans-30" x="190.869141"/>
      </g>
     </g>
    </g>
    <g id="xtick_2">
     <g id="line2d_2">
      <g>
       <use xlink:href="#ma4508b1a38" x="615.673406" y="819.904252" style="stroke: #000000; stroke-width: 0.8"/>
      </g>
     </g>
     <g id="text_2">
      <!-- 1200 -->
      <g transform="translate(602.948406 834.502689) scale(0.1 -0.1)">
       <defs>
        <path id="DejaVuSans-32" d="M 1228 531 
L 3431 531 
L 3431 0 
L 469 0 
L 469 531 
Q 828 903 1448 1529 
Q 2069 2156 2228 2338 
Q 2531 2678 2651 2914 
Q 2772 3150 2772 3378 
Q 2772 3750 2511 3984 
Q 2250 4219 1831 4219 
Q 1534 4219 1204 4116 
Q 875 4013 500 3803 
L 500 4441 
Q 881 4594 1212 4672 
Q 1544 4750 1819 4750 
Q 2544 4750 2975 4387 
Q 3406 4025 3406 3419 
Q 3406 3131 3298 2873 
Q 3191 2616 2906 2266 
Q 2828 2175 2409 1742 
Q 1991 1309 1228 531 
z
" transform="scale(0.015625)"/>
       </defs>
       <use xlink:href="#DejaVuSans-31"/>
       <use xlink:href="#DejaVuSans-32" x="63.623047"/>
       <use xlink:href="#DejaVuSans-30" x="127.246094"/>
       <use xlink:href="#DejaVuSans-30" x="190.869141"/>
      </g>
     </g>
    </g>
    <g id="xtick_3">
     <g id="line2d_3">
      <g>
       <use xlink:href="#ma4508b1a38" x="862.14088" y="819.904252" style="stroke: #000000; stroke-width: 0.8"/>
      </g>
     </g>
     <g id="text_3">
      <!-- 1400 -->
      <g transform="translate(849.41588 834.502689) scale(0.1 -0.1)">
       <defs>
        <path id="DejaVuSans-34" d="M 2419 4116 
L 825 1625 
L 2419 1625 
L 2419 4116 
z
M 2253 4666 
L 3047 4666 
L 3047 1625 
L 3713 1625 
L 3713 1100 
L 3047 1100 
L 3047 0 
L 2419 0 
L 2419 1100 
L 313 1100 
L 313 1709 
L 2253 4666 
z
" transform="scale(0.015625)"/>
       </defs>
       <use xlink:href="#DejaVuSans-31"/>
       <use xlink:href="#DejaVuSans-34" x="63.623047"/>
       <use xlink:href="#DejaVuSans-30" x="127.246094"/>
       <use xlink:href="#DejaVuSans-30" x="190.869141"/>
      </g>
     </g>
    </g>
    <g id="xtick_4">
     <g id="line2d_4">
      <g>
       <use xlink:href="#ma4508b1a38" x="1108.608354" y="819.904252" style="stroke: #000000; stroke-width: 0.8"/>
      </g>
     </g>
     <g id="text_4">
      <!-- 1600 -->
      <g transform="translate(1095.883354 834.502689) scale(0.1 -0.1)">
       <defs>
        <path id="DejaVuSans-36" d="M 2113 2584 
Q 1688 2584 1439 2293 
Q 1191 2003 1191 1497 
Q 1191 994 1439 701 
Q 1688 409 2113 409 
Q 2538 409 2786 701 
Q 3034 994 3034 1497 
Q 3034 2003 2786 2293 
Q 2538 2584 2113 2584 
z
M 3366 4563 
L 3366 3988 
Q 3128 4100 2886 4159 
Q 2644 4219 2406 4219 
Q 1781 4219 1451 3797 
Q 1122 3375 1075 2522 
Q 1259 2794 1537 2939 
Q 1816 3084 2150 3084 
Q 2853 3084 3261 2657 
Q 3669 2231 3669 1497 
Q 3669 778 3244 343 
Q 2819 -91 2113 -91 
Q 1303 -91 875 529 
Q 447 1150 447 2328 
Q 447 3434 972 4092 
Q 1497 4750 2381 4750 
Q 2619 4750 2861 4703 
Q 3103 4656 3366 4563 
z
" transform="scale(0.015625)"/>
       </defs>
       <use xlink:href="#DejaVuSans-31"/>
       <use xlink:href="#DejaVuSans-36" x="63.623047"/>
       <use xlink:href="#DejaVuSans-30" x="127.246094"/>
       <use xlink:href="#DejaVuSans-30" x="190.869141"/>
      </g>
     </g>
    </g>
   </g>
   <g id="matplotlib.axis_2">
    <g id="ytick_1">
     <g id="line2d_5">
      <defs>
       <path id="m1afcaa959a" d="M 0 0 
L -3.5 0 
" style="stroke: #000000; stroke-width: 0.8"/>
      </defs>
      <g>
       <use xlink:href="#m1afcaa959a" x="180" y="801.972552" style="stroke: #000000; stroke-width: 0.8"/>
      </g>
     </g>
     <g id="text_5">
      <!-- 600 -->
      <g transform="translate(153.9125 805.77177) scale(0.1 -0.1)">
       <use xlink:href="#DejaVuSans-36"/>
       <use xlink:href="#DejaVuSans-30" x="63.623047"/>
       <use xlink:href="#DejaVuSans-30" x="127.246094"/>
      </g>
     </g>
    </g>
    <g id="ytick_2">
     <g id="line2d_6">
      <g>
       <use xlink:href="#m1afcaa959a" x="180" y="740.355683" style="stroke: #000000; stroke-width: 0.8"/>
      </g>
     </g>
     <g id="text_6">
      <!-- 650 -->
      <g transform="translate(153.9125 744.154902) scale(0.1 -0.1)">
       <defs>
        <path id="DejaVuSans-35" d="M 691 4666 
L 3169 4666 
L 3169 4134 
L 1269 4134 
L 1269 2991 
Q 1406 3038 1543 3061 
Q 1681 3084 1819 3084 
Q 2600 3084 3056 2656 
Q 3513 2228 3513 1497 
Q 3513 744 3044 326 
Q 2575 -91 1722 -91 
Q 1428 -91 1123 -41 
Q 819 9 494 109 
L 494 744 
Q 775 591 1075 516 
Q 1375 441 1709 441 
Q 2250 441 2565 725 
Q 2881 1009 2881 1497 
Q 2881 1984 2565 2268 
Q 2250 2553 1709 2553 
Q 1456 2553 1204 2497 
Q 953 2441 691 2322 
L 691 4666 
z
" transform="scale(0.015625)"/>
       </defs>
       <use xlink:href="#DejaVuSans-36"/>
       <use xlink:href="#DejaVuSans-35" x="63.623047"/>
       <use xlink:href="#DejaVuSans-30" x="127.246094"/>
      </g>
     </g>
    </g>
    <g id="ytick_3">
     <g id="line2d_7">
      <g>
       <use xlink:href="#m1afcaa959a" x="180" y="678.738815" style="stroke: #000000; stroke-width: 0.8"/>
      </g>
     </g>
     <g id="text_7">
      <!-- 700 -->
      <g transform="translate(153.9125 682.538033) scale(0.1 -0.1)">
       <defs>
        <path id="DejaVuSans-37" d="M 525 4666 
L 3525 4666 
L 3525 4397 
L 1831 0 
L 1172 0 
L 2766 4134 
L 525 4134 
L 525 4666 
z
" transform="scale(0.015625)"/>
       </defs>
       <use xlink:href="#DejaVuSans-37"/>
       <use xlink:href="#DejaVuSans-30" x="63.623047"/>
       <use xlink:href="#DejaVuSans-30" x="127.246094"/>
      </g>
     </g>
    </g>
    <g id="ytick_4">
     <g id="line2d_8">
      <g>
       <use xlink:href="#m1afcaa959a" x="180" y="617.121946" style="stroke: #000000; stroke-width: 0.8"/>
      </g>
     </g>
     <g id="text_8">
      <!-- 750 -->
      <g transform="translate(153.9125 620.921165) scale(0.1 -0.1)">
       <use xlink:href="#DejaVuSans-37"/>
       <use xlink:href="#DejaVuSans-35" x="63.623047"/>
       <use xlink:href="#DejaVuSans-30" x="127.246094"/>
      </g>
     </g>
    </g>
    <g id="ytick_5">
     <g id="line2d_9">
      <g>
       <use xlink:href="#m1afcaa959a" x="180" y="555.505078" style="stroke: #000000; stroke-width: 0.8"/>
      </g>
     </g>
     <g id="text_9">
      <!-- 800 -->
      <g transform="translate(153.9125 559.304296) scale(0.1 -0.1)">
       <defs>
        <path id="DejaVuSans-38" d="M 2034 2216 
Q 1584 2216 1326 1975 
Q 1069 1734 1069 1313 
Q 1069 891 1326 650 
Q 1584 409 2034 409 
Q 2484 409 2743 651 
Q 3003 894 3003 1313 
Q 3003 1734 2745 1975 
Q 2488 2216 2034 2216 
z
M 1403 2484 
Q 997 2584 770 2862 
Q 544 3141 544 3541 
Q 544 4100 942 4425 
Q 1341 4750 2034 4750 
Q 2731 4750 3128 4425 
Q 3525 4100 3525 3541 
Q 3525 3141 3298 2862 
Q 3072 2584 2669 2484 
Q 3125 2378 3379 2068 
Q 3634 1759 3634 1313 
Q 3634 634 3220 271 
Q 2806 -91 2034 -91 
Q 1263 -91 848 271 
Q 434 634 434 1313 
Q 434 1759 690 2068 
Q 947 2378 1403 2484 
z
M 1172 3481 
Q 1172 3119 1398 2916 
Q 1625 2713 2034 2713 
Q 2441 2713 2670 2916 
Q 2900 3119 2900 3481 
Q 2900 3844 2670 4047 
Q 2441 4250 2034 4250 
Q 1625 4250 1398 4047 
Q 1172 3844 1172 3481 
z
" transform="scale(0.015625)"/>
       </defs>
       <use xlink:href="#DejaVuSans-38"/>
       <use xlink:href="#DejaVuSans-30" x="63.623047"/>
       <use xlink:href="#DejaVuSans-30" x="127.246094"/>
      </g>
     </g>
    </g>
    <g id="ytick_6">
     <g id="line2d_10">
      <g>
       <use xlink:href="#m1afcaa959a" x="180" y="493.888209" style="stroke: #000000; stroke-width: 0.8"/>
      </g>
     </g>
     <g id="text_10">
      <!-- 850 -->
      <g transform="translate(153.9125 497.687428) scale(0.1 -0.1)">
       <use xlink:href="#DejaVuSans-38"/>
       <use xlink:href="#DejaVuSans-35" x="63.623047"/>
       <use xlink:href="#DejaVuSans-30" x="127.246094"/>
      </g>
     </g>
    </g>
    <g id="ytick_7">
     <g id="line2d_11">
      <g>
       <use xlink:href="#m1afcaa959a" x="180" y="432.27134" style="stroke: #000000; stroke-width: 0.8"/>
      </g>
     </g>
     <g id="text_11">
      <!-- 900 -->
      <g transform="translate(153.9125 436.070559) scale(0.1 -0.1)">
       <defs>
        <path id="DejaVuSans-39" d="M 703 97 
L 703 672 
Q 941 559 1184 500 
Q 1428 441 1663 441 
Q 2288 441 2617 861 
Q 2947 1281 2994 2138 
Q 2813 1869 2534 1725 
Q 2256 1581 1919 1581 
Q 1219 1581 811 2004 
Q 403 2428 403 3163 
Q 403 3881 828 4315 
Q 1253 4750 1959 4750 
Q 2769 4750 3195 4129 
Q 3622 3509 3622 2328 
Q 3622 1225 3098 567 
Q 2575 -91 1691 -91 
Q 1453 -91 1209 -44 
Q 966 3 703 97 
z
M 1959 2075 
Q 2384 2075 2632 2365 
Q 2881 2656 2881 3163 
Q 2881 3666 2632 3958 
Q 2384 4250 1959 4250 
Q 1534 4250 1286 3958 
Q 1038 3666 1038 3163 
Q 1038 2656 1286 2365 
Q 1534 2075 1959 2075 
z
" transform="scale(0.015625)"/>
       </defs>
       <use xlink:href="#DejaVuSans-39"/>
       <use xlink:href="#DejaVuSans-30" x="63.623047"/>
       <use xlink:href="#DejaVuSans-30" x="127.246094"/>
      </g>
     </g>
    </g>
    <g id="ytick_8">
     <g id="line2d_12">
      <g>
       <use xlink:href="#m1afcaa959a" x="180" y="370.654472" style="stroke: #000000; stroke-width: 0.8"/>
      </g>
     </g>
     <g id="text_12">
      <!-- 950 -->
      <g transform="translate(153.9125 374.453691) scale(0.1 -0.1)">
       <use xlink:href="#DejaVuSans-39"/>
       <use xlink:href="#DejaVuSans-35" x="63.623047"/>
       <use xlink:href="#DejaVuSans-30" x="127.246094"/>
      </g>
     </g>
    </g>
    <g id="ytick_9">
     <g id="line2d_13">
      <g>
       <use xlink:href="#m1afcaa959a" x="180" y="309.037603" style="stroke: #000000; stroke-width: 0.8"/>
      </g>
     </g>
     <g id="text_13">
      <!-- 1000 -->
      <g transform="translate(147.55 312.836822) scale(0.1 -0.1)">
       <use xlink:href="#DejaVuSans-31"/>
       <use xlink:href="#DejaVuSans-30" x="63.623047"/>
       <use xlink:href="#DejaVuSans-30" x="127.246094"/>
       <use xlink:href="#DejaVuSans-30" x="190.869141"/>
      </g>
     </g>
    </g>
   </g>
   <g id="LineCollection_1">
    <path d="M 1245.272727 707.497817 
L 1231.957328 702.857144 
L 1228.525872 701.888807 
L 1215.261517 698.995959 
L 1212.045516 698.478173 
L 1198.853664 697.094091 
L 1195.994192 696.933503 
L 1180.461188 696.914675 
L 1165.476806 698.104211 
L 1151.035301 700.221228 
L 1137.114606 703.022943 
L 1123.689134 706.300301 
L 1110.736532 709.872283 
L 1098.240497 713.580993 
L 1063.19764 724.294299 
L 1052.368284 727.359732 
L 1041.99589 730.025371 
L 1032.087356 732.230914 
L 1022.64765 733.931987 
L 1013.676311 735.099896 
L 1005.163377 735.720309 
L 997.085327 735.79029 
L 989.402138 735.313361 
L 982.056909 734.293004 
L 974.979193 732.725982 
L 968.092055 730.597566 
L 961.321269 727.880504 
L 954.603955 724.53825 
L 947.894162 720.531215 
L 941.164292 715.82375 
L 934.402948 710.38977 
L 927.610757 704.215949 
L 920.79575 697.302531 
L 913.969403 689.662418 
L 907.143731 681.319354 
L 900.329478 672.305842 
L 893.535151 662.66116 
L 886.766647 652.429679 
L 880.027251 641.659486 
L 873.317819 630.401314 
L 866.637064 618.707703 
L 859.981852 606.632338 
L 853.347489 594.229531 
L 840.116256 568.659436 
L 820.234847 529.18018 
L 806.832468 502.686084 
L 800.06139 489.547155 
L 793.228214 476.541696 
L 786.320666 463.713318 
L 779.325895 451.103548 
L 772.230399 438.751759 
L 765.019943 426.695155 
L 757.679455 414.968816 
L 750.192943 403.605835 
L 742.543427 392.637545 
L 734.71293 382.093875 
L 726.682574 372.003824 
L 718.432831 362.396074 
L 709.944019 353.299702 
L 701.197101 344.744937 
L 692.174871 336.763826 
L 682.863513 329.390652 
L 673.254456 322.661841 
L 663.346289 316.615154 
L 653.146318 311.288012 
L 642.671289 306.715032 
L 631.946831 302.925124 
L 621.005421 299.938774 
L 609.883094 297.766195 
L 598.615531 296.406882 
L 587.234332 295.85068 
L 575.7642 296.080081 
L 564.221423 297.073159 
L 552.613645 298.806551 
L 540.940609 301.25802 
L 529.195474 304.408397 
L 517.36631 308.242891 
L 505.437501 312.751892 
L 493.390917 317.931422 
L 481.206792 323.783397 
L 468.864338 330.31581 
L 456.34212 337.542925 
L 443.61826 345.48552 
L 430.670498 354.171204 
L 417.476162 363.634826 
L 404.012069 373.918966 
L 390.25437 385.07451 
L 376.178357 397.161309 
L 361.758235 410.248915 
L 346.966867 424.417399 
L 331.775484 439.758246 
L 316.15338 456.375334 
L 300.067584 474.385986 
L 283.482521 493.922113 
L 266.35967 515.131416 
L 248.657221 538.178674 
L 230.727273 562.690229 
L 230.727273 562.690229 
" clip-path="url(#p687175ce1a)" style="fill: none; stroke: #1f77b4; stroke-width: 1.5"/>
    <path d="M 1235.539103 735.426334 
L 1222.223703 730.785661 
L 1208.959348 727.892813 
L 1195.767496 726.508731 
L 1182.668058 726.408323 
L 1169.679418 727.380201 
L 1156.818454 729.226411 
L 1144.100565 731.762148 
L 1131.539698 734.815458 
L 1119.148379 738.226936 
L 1106.937744 741.84941 
L 1094.91757 745.547615 
L 1083.096315 749.197863 
L 1071.48115 752.687699 
L 1060.077999 755.915554 
L 1048.89158 758.790392 
L 1037.925441 761.231347 
L 1027.182009 763.167357 
L 1016.662628 764.536793 
L 1006.367605 765.287083 
L 996.296253 765.374333 
L 986.44694 764.762943 
L 976.817133 763.425225 
L 967.403445 761.341014 
L 958.201683 758.497282 
L 949.206895 754.887745 
L 940.413419 750.51248 
L 931.814931 745.377531 
L 923.404492 739.494528 
L 915.174595 732.880296 
L 907.117219 725.556475 
L 899.223867 717.54914 
L 891.485622 708.888422 
L 883.893187 699.60814 
L 876.436938 689.745429 
L 869.10696 679.340382 
L 861.893103 668.435689 
L 854.785016 657.076294 
L 847.772194 645.309045 
L 840.84402 633.182365 
L 833.989804 620.745924 
L 827.198822 608.050321 
L 820.460355 595.146779 
L 813.763723 582.086843 
L 807.098322 568.922101 
L 800.453652 555.703898 
L 793.819355 542.483086 
L 787.185237 529.309761 
L 780.541299 516.233035 
L 773.877759 503.300809 
L 767.185078 490.559562 
L 760.453975 478.054162 
L 753.67545 465.827684 
L 746.840794 453.92125 
L 739.941605 442.373881 
L 732.969795 431.222376 
L 725.917598 420.501193 
L 718.777575 410.242368 
L 711.542609 400.475435 
L 704.20591 391.22738 
L 696.761003 382.522608 
L 689.20172 374.382932 
L 681.52219 366.827586 
L 673.716818 359.873257 
L 665.780269 353.534146 
L 657.707438 347.822042 
L 649.493431 342.746434 
L 641.133523 338.314634 
L 632.62313 334.531934 
L 623.957761 331.401786 
L 615.13298 328.926011 
L 606.144353 327.105031 
L 596.987395 325.938131 
L 587.65751 325.42375 
L 578.149932 325.559799 
L 568.459651 326.344013 
L 558.581343 327.774327 
L 548.509294 329.849286 
L 538.237311 332.568487 
L 527.758639 335.933052 
L 517.065862 339.946133 
L 506.150806 344.613452 
L 495.004435 349.943874 
L 483.616737 355.95001 
L 471.976609 362.648866 
L 460.071734 370.062515 
L 447.888453 378.218813 
L 435.411628 387.152151 
L 422.624504 396.904239 
L 409.508559 407.524938 
L 396.043351 419.073121 
L 382.20636 431.617577 
L 367.972817 445.237956 
L 353.315531 460.025755 
L 338.204711 476.085339 
L 322.607777 493.535012 
L 306.489164 512.508126 
L 289.810121 533.15423 
L 272.528504 555.64027 
L 254.598556 580.151825 
" clip-path="url(#p687175ce1a)" style="fill: none; stroke: #8c564b; stroke-width: 1.5"/>
    <path d="M 1225.805479 763.354851 
L 1214.17657 759.301953 
L 1204.2509 757.137245 
L 1194.107171 756.07297 
L 1183.659825 755.99289 
L 1172.887854 756.798906 
L 1161.815009 758.388429 
L 1150.487891 760.646869 
L 1138.959651 763.449167 
L 1127.280376 766.664611 
L 1115.492508 770.161664 
L 1079.536653 781.145639 
L 1067.439651 784.560826 
L 1055.317659 787.659943 
L 1043.170689 790.338612 
L 1031.000073 792.495976 
L 1018.8124 794.034658 
L 1006.623817 794.86207 
L 994.463862 794.893612 
L 982.377475 794.057737 
L 970.423746 792.302034 
L 958.670696 789.598484 
L 947.18683 785.945752 
L 936.031815 781.367224 
L 925.249104 775.905176 
L 914.862479 769.61304 
L 904.876717 762.548098 
L 895.281146 754.766278 
L 886.054384 746.319483 
L 877.168854 737.255024 
L 868.594353 727.61635 
L 860.300477 717.444326 
L 852.258066 706.778564 
L 844.439916 695.658544 
L 836.821024 684.124423 
L 829.378562 672.21755 
L 822.091712 659.980731 
L 814.941448 647.458299 
L 807.910321 634.696052 
L 800.982257 621.741093 
L 787.445765 595.581679 
L 780.67316 582.205788 
L 754.211518 529.705053 
L 747.639952 516.951324 
L 741.071026 504.445678 
L 734.498057 492.234066 
L 727.915456 480.360979 
L 721.318826 468.869201 
L 714.705064 457.79956 
L 708.072477 447.190647 
L 701.420891 437.078497 
L 694.751738 427.49622 
L 688.068096 418.473554 
L 681.374653 410.036336 
L 674.677523 402.205884 
L 667.983868 394.998297 
L 661.301229 388.423722 
L 654.636512 382.48568 
L 647.994577 377.180607 
L 641.376468 372.497823 
L 634.777455 368.420154 
L 628.185201 364.925432 
L 621.578498 361.988884 
L 614.927079 359.586226 
L 608.192821 357.696943 
L 601.332331 356.307096 
L 594.300507 355.411008 
L 587.054305 355.011506 
L 579.555939 355.118804 
L 571.774923 355.748506 
L 563.688806 356.919322 
L 555.282722 358.651073 
L 546.548169 360.963286 
L 537.481404 363.874505 
L 528.081791 367.402252 
L 518.35031 371.56347 
L 508.288323 376.375317 
L 497.896609 381.856148 
L 487.174645 388.026604 
L 476.120075 394.910733 
L 464.728329 402.537125 
L 452.992338 410.94003 
L 440.902327 420.160466 
L 428.445648 430.247321 
L 415.606651 441.258446 
L 402.366579 453.261742 
L 388.703477 466.336254 
L 374.592123 480.573259 
L 360.003965 496.077366 
L 344.907067 512.967603 
L 329.266061 531.378529 
L 313.042082 551.461334 
L 296.192699 573.384971 
L 278.469839 597.613421 
L 278.469839 597.613421 
" clip-path="url(#p687175ce1a)" style="fill: none; stroke: #17becf; stroke-width: 1.5"/>
   </g>
   <g id="patch_3">
    <path d="M 180 819.904252 
L 180 270.895748 
" style="fill: none; stroke: #000000; stroke-width: 0.8; stroke-linejoin: miter; stroke-linecap: square"/>
   </g>
   <g id="patch_4">
    <path d="M 1296 819.904252 
L 1296 270.895748 
" style="fill: none; stroke: #000000; stroke-width: 0.8; stroke-linejoin: miter; stroke-linecap: square"/>
   </g>
   <g id="patch_5">
    <path d="M 180 819.904252 
L 1296 819.904252 
" style="fill: none; stroke: #000000; stroke-width: 0.8; stroke-linejoin: miter; stroke-linecap: square"/>
   </g>
   <g id="patch_6">
    <path d="M 180 270.895748 
L 1296 270.895748 
" style="fill: none; stroke: #000000; stroke-width: 0.8; stroke-linejoin: miter; stroke-linecap: square"/>
   </g>
  </g>
 </g>
 <defs>
  <clipPath id="p687175ce1a">
   <rect x="180" y="270.895748" width="1116" height="549.008504"/>
  </clipPath>
 </defs>
</svg>
