<?xml version="1.0" encoding="utf-8" standalone="no"?>
<!DOCTYPE svg PUBLIC "-//W3C//DTD SVG 1.1//EN"
  "http://www.w3.org/Graphics/SVG/1.1/DTD/svg11.dtd">
<svg xmlns:xlink="http://www.w3.org/1999/xlink" width="1440pt" height="1080pt" viewBox="0 0 1440 1080" xmlns="http://www.w3.org/2000/svg" version="1.1">
 <metadata>
  <rdf:RDF xmlns:dc="http://purl.org/dc/elements/1.1/" xmlns:cc="http://creativecommons.org/ns#" xmlns:rdf="http://www.w3.org/1999/02/22-rdf-syntax-ns#">
   <cc:Work>
    <dc:type rdf:resource="http://purl.org/dc/dcmitype/StillImage"/>
    <dc:date>2023-12-11T12:07:03.637277</dc:date>
    <dc:format>image/svg+xml</dc:format>
    <dc:creator>
     <cc:Agent>
      <dc:title>Matplotlib v3.7.1, https://matplotlib.org/</dc:title>
     </cc:Agent>
    </dc:creator>
   </cc:Work>
  </rdf:RDF>
 </metadata>
 <defs>
  <style type="text/css">*{stroke-linejoin: round; stroke-linecap: butt}</style>
 </defs>
 <g id="figure_1">
  <g id="patch_1">
   <path d="M 0 1080 
L 1440 1080 
L 1440 0 
L 0 0 
z
" style="fill: #ffffff"/>
  </g>
  <g id="axes_1">
   <g id="patch_2">
    <path d="M 180 783.879442 
L 1296 783.879442 
L 1296 306.920558 
L 180 306.920558 
z
" style="fill: #ffffff"/>
   </g>
   <g id="matplotlib.axis_1">
    <g id="xtick_1">
     <g id="line2d_1">
      <defs>
       <path id="m3b984f72b2" d="M 0 0 
L 0 3.5 
" style="stroke: #000000; stroke-width: 0.8"/>
      </defs>
      <g>
       <use xlink:href="#m3b984f72b2" x="217.217212" y="783.879442" style="stroke: #000000; stroke-width: 0.8"/>
      </g>
     </g>
     <g id="text_1">
      <!-- 100 -->
      <g transform="translate(207.673462 798.47788) scale(0.1 -0.1)">
       <defs>
        <path id="DejaVuSans-31" d="M 794 531 
L 1825 531 
L 1825 4091 
L 703 3866 
L 703 4441 
L 1819 4666 
L 2450 4666 
L 2450 531 
L 3481 531 
L 3481 0 
L 794 0 
L 794 531 
z
" transform="scale(0.015625)"/>
        <path id="DejaVuSans-30" d="M 2034 4250 
Q 1547 4250 1301 3770 
Q 1056 3291 1056 2328 
Q 1056 1369 1301 889 
Q 1547 409 2034 409 
Q 2525 409 2770 889 
Q 3016 1369 3016 2328 
Q 3016 3291 2770 3770 
Q 2525 4250 2034 4250 
z
M 2034 4750 
Q 2819 4750 3233 4129 
Q 3647 3509 3647 2328 
Q 3647 1150 3233 529 
Q 2819 -91 2034 -91 
Q 1250 -91 836 529 
Q 422 1150 422 2328 
Q 422 3509 836 4129 
Q 1250 4750 2034 4750 
z
" transform="scale(0.015625)"/>
       </defs>
       <use xlink:href="#DejaVuSans-31"/>
       <use xlink:href="#DejaVuSans-30" x="63.623047"/>
       <use xlink:href="#DejaVuSans-30" x="127.246094"/>
      </g>
     </g>
    </g>
    <g id="xtick_2">
     <g id="line2d_2">
      <g>
       <use xlink:href="#m3b984f72b2" x="357.016825" y="783.879442" style="stroke: #000000; stroke-width: 0.8"/>
      </g>
     </g>
     <g id="text_2">
      <!-- 200 -->
      <g transform="translate(347.473075 798.47788) scale(0.1 -0.1)">
       <defs>
        <path id="DejaVuSans-32" d="M 1228 531 
L 3431 531 
L 3431 0 
L 469 0 
L 469 531 
Q 828 903 1448 1529 
Q 2069 2156 2228 2338 
Q 2531 2678 2651 2914 
Q 2772 3150 2772 3378 
Q 2772 3750 2511 3984 
Q 2250 4219 1831 4219 
Q 1534 4219 1204 4116 
Q 875 4013 500 3803 
L 500 4441 
Q 881 4594 1212 4672 
Q 1544 4750 1819 4750 
Q 2544 4750 2975 4387 
Q 3406 4025 3406 3419 
Q 3406 3131 3298 2873 
Q 3191 2616 2906 2266 
Q 2828 2175 2409 1742 
Q 1991 1309 1228 531 
z
" transform="scale(0.015625)"/>
       </defs>
       <use xlink:href="#DejaVuSans-32"/>
       <use xlink:href="#DejaVuSans-30" x="63.623047"/>
       <use xlink:href="#DejaVuSans-30" x="127.246094"/>
      </g>
     </g>
    </g>
    <g id="xtick_3">
     <g id="line2d_3">
      <g>
       <use xlink:href="#m3b984f72b2" x="496.816437" y="783.879442" style="stroke: #000000; stroke-width: 0.8"/>
      </g>
     </g>
     <g id="text_3">
      <!-- 300 -->
      <g transform="translate(487.272687 798.47788) scale(0.1 -0.1)">
       <defs>
        <path id="DejaVuSans-33" d="M 2597 2516 
Q 3050 2419 3304 2112 
Q 3559 1806 3559 1356 
Q 3559 666 3084 287 
Q 2609 -91 1734 -91 
Q 1441 -91 1130 -33 
Q 819 25 488 141 
L 488 750 
Q 750 597 1062 519 
Q 1375 441 1716 441 
Q 2309 441 2620 675 
Q 2931 909 2931 1356 
Q 2931 1769 2642 2001 
Q 2353 2234 1838 2234 
L 1294 2234 
L 1294 2753 
L 1863 2753 
Q 2328 2753 2575 2939 
Q 2822 3125 2822 3475 
Q 2822 3834 2567 4026 
Q 2313 4219 1838 4219 
Q 1578 4219 1281 4162 
Q 984 4106 628 3988 
L 628 4550 
Q 988 4650 1302 4700 
Q 1616 4750 1894 4750 
Q 2613 4750 3031 4423 
Q 3450 4097 3450 3541 
Q 3450 3153 3228 2886 
Q 3006 2619 2597 2516 
z
" transform="scale(0.015625)"/>
       </defs>
       <use xlink:href="#DejaVuSans-33"/>
       <use xlink:href="#DejaVuSans-30" x="63.623047"/>
       <use xlink:href="#DejaVuSans-30" x="127.246094"/>
      </g>
     </g>
    </g>
    <g id="xtick_4">
     <g id="line2d_4">
      <g>
       <use xlink:href="#m3b984f72b2" x="636.616049" y="783.879442" style="stroke: #000000; stroke-width: 0.8"/>
      </g>
     </g>
     <g id="text_4">
      <!-- 400 -->
      <g transform="translate(627.072299 798.47788) scale(0.1 -0.1)">
       <defs>
        <path id="DejaVuSans-34" d="M 2419 4116 
L 825 1625 
L 2419 1625 
L 2419 4116 
z
M 2253 4666 
L 3047 4666 
L 3047 1625 
L 3713 1625 
L 3713 1100 
L 3047 1100 
L 3047 0 
L 2419 0 
L 2419 1100 
L 313 1100 
L 313 1709 
L 2253 4666 
z
" transform="scale(0.015625)"/>
       </defs>
       <use xlink:href="#DejaVuSans-34"/>
       <use xlink:href="#DejaVuSans-30" x="63.623047"/>
       <use xlink:href="#DejaVuSans-30" x="127.246094"/>
      </g>
     </g>
    </g>
    <g id="xtick_5">
     <g id="line2d_5">
      <g>
       <use xlink:href="#m3b984f72b2" x="776.415662" y="783.879442" style="stroke: #000000; stroke-width: 0.8"/>
      </g>
     </g>
     <g id="text_5">
      <!-- 500 -->
      <g transform="translate(766.871912 798.47788) scale(0.1 -0.1)">
       <defs>
        <path id="DejaVuSans-35" d="M 691 4666 
L 3169 4666 
L 3169 4134 
L 1269 4134 
L 1269 2991 
Q 1406 3038 1543 3061 
Q 1681 3084 1819 3084 
Q 2600 3084 3056 2656 
Q 3513 2228 3513 1497 
Q 3513 744 3044 326 
Q 2575 -91 1722 -91 
Q 1428 -91 1123 -41 
Q 819 9 494 109 
L 494 744 
Q 775 591 1075 516 
Q 1375 441 1709 441 
Q 2250 441 2565 725 
Q 2881 1009 2881 1497 
Q 2881 1984 2565 2268 
Q 2250 2553 1709 2553 
Q 1456 2553 1204 2497 
Q 953 2441 691 2322 
L 691 4666 
z
" transform="scale(0.015625)"/>
       </defs>
       <use xlink:href="#DejaVuSans-35"/>
       <use xlink:href="#DejaVuSans-30" x="63.623047"/>
       <use xlink:href="#DejaVuSans-30" x="127.246094"/>
      </g>
     </g>
    </g>
    <g id="xtick_6">
     <g id="line2d_6">
      <g>
       <use xlink:href="#m3b984f72b2" x="916.215274" y="783.879442" style="stroke: #000000; stroke-width: 0.8"/>
      </g>
     </g>
     <g id="text_6">
      <!-- 600 -->
      <g transform="translate(906.671524 798.47788) scale(0.1 -0.1)">
       <defs>
        <path id="DejaVuSans-36" d="M 2113 2584 
Q 1688 2584 1439 2293 
Q 1191 2003 1191 1497 
Q 1191 994 1439 701 
Q 1688 409 2113 409 
Q 2538 409 2786 701 
Q 3034 994 3034 1497 
Q 3034 2003 2786 2293 
Q 2538 2584 2113 2584 
z
M 3366 4563 
L 3366 3988 
Q 3128 4100 2886 4159 
Q 2644 4219 2406 4219 
Q 1781 4219 1451 3797 
Q 1122 3375 1075 2522 
Q 1259 2794 1537 2939 
Q 1816 3084 2150 3084 
Q 2853 3084 3261 2657 
Q 3669 2231 3669 1497 
Q 3669 778 3244 343 
Q 2819 -91 2113 -91 
Q 1303 -91 875 529 
Q 447 1150 447 2328 
Q 447 3434 972 4092 
Q 1497 4750 2381 4750 
Q 2619 4750 2861 4703 
Q 3103 4656 3366 4563 
z
" transform="scale(0.015625)"/>
       </defs>
       <use xlink:href="#DejaVuSans-36"/>
       <use xlink:href="#DejaVuSans-30" x="63.623047"/>
       <use xlink:href="#DejaVuSans-30" x="127.246094"/>
      </g>
     </g>
    </g>
    <g id="xtick_7">
     <g id="line2d_7">
      <g>
       <use xlink:href="#m3b984f72b2" x="1056.014887" y="783.879442" style="stroke: #000000; stroke-width: 0.8"/>
      </g>
     </g>
     <g id="text_7">
      <!-- 700 -->
      <g transform="translate(1046.471137 798.47788) scale(0.1 -0.1)">
       <defs>
        <path id="DejaVuSans-37" d="M 525 4666 
L 3525 4666 
L 3525 4397 
L 1831 0 
L 1172 0 
L 2766 4134 
L 525 4134 
L 525 4666 
z
" transform="scale(0.015625)"/>
       </defs>
       <use xlink:href="#DejaVuSans-37"/>
       <use xlink:href="#DejaVuSans-30" x="63.623047"/>
       <use xlink:href="#DejaVuSans-30" x="127.246094"/>
      </g>
     </g>
    </g>
    <g id="xtick_8">
     <g id="line2d_8">
      <g>
       <use xlink:href="#m3b984f72b2" x="1195.814499" y="783.879442" style="stroke: #000000; stroke-width: 0.8"/>
      </g>
     </g>
     <g id="text_8">
      <!-- 800 -->
      <g transform="translate(1186.270749 798.47788) scale(0.1 -0.1)">
       <defs>
        <path id="DejaVuSans-38" d="M 2034 2216 
Q 1584 2216 1326 1975 
Q 1069 1734 1069 1313 
Q 1069 891 1326 650 
Q 1584 409 2034 409 
Q 2484 409 2743 651 
Q 3003 894 3003 1313 
Q 3003 1734 2745 1975 
Q 2488 2216 2034 2216 
z
M 1403 2484 
Q 997 2584 770 2862 
Q 544 3141 544 3541 
Q 544 4100 942 4425 
Q 1341 4750 2034 4750 
Q 2731 4750 3128 4425 
Q 3525 4100 3525 3541 
Q 3525 3141 3298 2862 
Q 3072 2584 2669 2484 
Q 3125 2378 3379 2068 
Q 3634 1759 3634 1313 
Q 3634 634 3220 271 
Q 2806 -91 2034 -91 
Q 1263 -91 848 271 
Q 434 634 434 1313 
Q 434 1759 690 2068 
Q 947 2378 1403 2484 
z
M 1172 3481 
Q 1172 3119 1398 2916 
Q 1625 2713 2034 2713 
Q 2441 2713 2670 2916 
Q 2900 3119 2900 3481 
Q 2900 3844 2670 4047 
Q 2441 4250 2034 4250 
Q 1625 4250 1398 4047 
Q 1172 3844 1172 3481 
z
" transform="scale(0.015625)"/>
       </defs>
       <use xlink:href="#DejaVuSans-38"/>
       <use xlink:href="#DejaVuSans-30" x="63.623047"/>
       <use xlink:href="#DejaVuSans-30" x="127.246094"/>
      </g>
     </g>
    </g>
   </g>
   <g id="matplotlib.axis_2">
    <g id="ytick_1">
     <g id="line2d_9">
      <defs>
       <path id="md4a81ac3f8" d="M 0 0 
L -3.5 0 
" style="stroke: #000000; stroke-width: 0.8"/>
      </defs>
      <g>
       <use xlink:href="#md4a81ac3f8" x="180" y="761.943544" style="stroke: #000000; stroke-width: 0.8"/>
      </g>
     </g>
     <g id="text_9">
      <!-- 450 -->
      <g transform="translate(153.9125 765.742763) scale(0.1 -0.1)">
       <use xlink:href="#DejaVuSans-34"/>
       <use xlink:href="#DejaVuSans-35" x="63.623047"/>
       <use xlink:href="#DejaVuSans-30" x="127.246094"/>
      </g>
     </g>
    </g>
    <g id="ytick_2">
     <g id="line2d_10">
      <g>
       <use xlink:href="#md4a81ac3f8" x="180" y="692.043738" style="stroke: #000000; stroke-width: 0.8"/>
      </g>
     </g>
     <g id="text_10">
      <!-- 500 -->
      <g transform="translate(153.9125 695.842957) scale(0.1 -0.1)">
       <use xlink:href="#DejaVuSans-35"/>
       <use xlink:href="#DejaVuSans-30" x="63.623047"/>
       <use xlink:href="#DejaVuSans-30" x="127.246094"/>
      </g>
     </g>
    </g>
    <g id="ytick_3">
     <g id="line2d_11">
      <g>
       <use xlink:href="#md4a81ac3f8" x="180" y="622.143932" style="stroke: #000000; stroke-width: 0.8"/>
      </g>
     </g>
     <g id="text_11">
      <!-- 550 -->
      <g transform="translate(153.9125 625.94315) scale(0.1 -0.1)">
       <use xlink:href="#DejaVuSans-35"/>
       <use xlink:href="#DejaVuSans-35" x="63.623047"/>
       <use xlink:href="#DejaVuSans-30" x="127.246094"/>
      </g>
     </g>
    </g>
    <g id="ytick_4">
     <g id="line2d_12">
      <g>
       <use xlink:href="#md4a81ac3f8" x="180" y="552.244125" style="stroke: #000000; stroke-width: 0.8"/>
      </g>
     </g>
     <g id="text_12">
      <!-- 600 -->
      <g transform="translate(153.9125 556.043344) scale(0.1 -0.1)">
       <use xlink:href="#DejaVuSans-36"/>
       <use xlink:href="#DejaVuSans-30" x="63.623047"/>
       <use xlink:href="#DejaVuSans-30" x="127.246094"/>
      </g>
     </g>
    </g>
    <g id="ytick_5">
     <g id="line2d_13">
      <g>
       <use xlink:href="#md4a81ac3f8" x="180" y="482.344319" style="stroke: #000000; stroke-width: 0.8"/>
      </g>
     </g>
     <g id="text_13">
      <!-- 650 -->
      <g transform="translate(153.9125 486.143538) scale(0.1 -0.1)">
       <use xlink:href="#DejaVuSans-36"/>
       <use xlink:href="#DejaVuSans-35" x="63.623047"/>
       <use xlink:href="#DejaVuSans-30" x="127.246094"/>
      </g>
     </g>
    </g>
    <g id="ytick_6">
     <g id="line2d_14">
      <g>
       <use xlink:href="#md4a81ac3f8" x="180" y="412.444513" style="stroke: #000000; stroke-width: 0.8"/>
      </g>
     </g>
     <g id="text_14">
      <!-- 700 -->
      <g transform="translate(153.9125 416.243732) scale(0.1 -0.1)">
       <use xlink:href="#DejaVuSans-37"/>
       <use xlink:href="#DejaVuSans-30" x="63.623047"/>
       <use xlink:href="#DejaVuSans-30" x="127.246094"/>
      </g>
     </g>
    </g>
    <g id="ytick_7">
     <g id="line2d_15">
      <g>
       <use xlink:href="#md4a81ac3f8" x="180" y="342.544707" style="stroke: #000000; stroke-width: 0.8"/>
      </g>
     </g>
     <g id="text_15">
      <!-- 750 -->
      <g transform="translate(153.9125 346.343926) scale(0.1 -0.1)">
       <use xlink:href="#DejaVuSans-37"/>
       <use xlink:href="#DejaVuSans-35" x="63.623047"/>
       <use xlink:href="#DejaVuSans-30" x="127.246094"/>
      </g>
     </g>
    </g>
   </g>
   <g id="LineCollection_1">
    <path d="M 230.727273 489.115411 
L 243.326592 534.17471 
L 255.819951 574.401607 
L 268.244605 610.051027 
L 280.651663 641.387847 
L 293.114628 668.686123 
L 305.742439 692.224419 
L 317.235922 710.217753 
L 318.696918 712.270637 
L 330.064773 726.660481 
L 332.207221 729.043342 
L 344.951534 741.4063 
L 346.551372 742.633959 
L 357.684567 750.489003 
L 359.752111 751.801896 
L 361.937493 752.907577 
L 372.960755 757.826406 
L 375.556596 758.816773 
L 378.245794 759.514935 
L 389.163508 761.714156 
L 391.991871 762.118434 
L 394.847831 762.199493 
L 405.664013 761.89195 
L 408.297039 761.678368 
L 410.893166 761.189933 
L 423.761622 757.959007 
L 425.847657 757.145108 
L 436.471499 752.445237 
L 439.645822 750.76034 
L 450.178264 744.165204 
L 452.47615 742.540669 
L 464.571907 732.810067 
L 476.125363 721.787471 
L 487.275074 709.64308 
L 498.116273 696.527054 
L 508.713733 682.581603 
L 519.111765 667.945208 
L 529.341051 652.753539 
L 539.423121 637.139165 
L 549.373236 621.230883 
L 559.20226 605.153046 
L 578.525322 572.960436 
L 597.465244 541.385892 
L 606.781854 526.104334 
L 615.995984 511.280419 
L 625.105857 496.9962 
L 634.108214 483.327188 
L 642.998166 470.342279 
L 651.768969 458.103641 
L 660.411748 446.666537 
L 668.915193 436.079005 
L 677.265269 426.381347 
L 685.44505 417.605323 
L 693.434827 409.772982 
L 701.212758 402.895081 
L 708.75642 396.969179 
L 716.04568 391.977716 
L 723.06718 387.886768 
L 729.820263 384.646608 
L 736.323263 382.195302 
L 742.617969 380.46605 
L 748.769488 379.397336 
L 754.85977 378.942932 
L 760.975756 379.077829 
L 767.196023 379.79756 
L 773.580597 381.111544 
L 780.166734 383.033694 
L 786.970417 385.57394 
L 793.991313 388.732786 
L 801.21869 392.499167 
L 808.636574 396.850746 
L 816.227519 401.755525 
L 823.974966 407.173897 
L 831.864518 413.060643 
L 839.884497 419.366624 
L 848.026047 426.040142 
L 856.283024 433.027985 
L 873.130895 447.730775 
L 899.312734 470.857015 
L 908.290189 478.634665 
L 917.398256 486.357534 
L 926.645387 493.976852 
L 936.04097 501.445046 
L 945.595112 508.715702 
L 955.318358 515.743488 
L 965.221315 522.484083 
L 975.314187 528.894119 
L 985.6062 534.931206 
L 996.104955 540.554077 
L 1006.815758 545.722916 
L 1017.741009 550.399916 
L 1028.879779 554.550054 
L 1040.227699 558.142068 
L 1051.777247 561.149493 
L 1063.518495 563.551619 
L 1075.440236 565.334183 
L 1087.531355 566.48965 
L 1099.782228 567.017034 
L 1112.185933 566.921271 
L 1124.739121 566.21228 
L 1137.442467 564.903865 
L 1150.300726 563.012616 
L 1163.322478 560.556924 
L 1176.519674 557.55617 
L 1189.907099 554.030101 
L 1203.50183 549.998356 
L 1217.322764 545.480116 
L 1231.390227 540.493816 
L 1245.272727 535.233541 
L 1245.272727 535.233541 
" clip-path="url(#p549fd5abe1)" style="fill: none; stroke: #1f77b4; stroke-width: 1.5"/>
    <path d="M 254.963108 482.344319 
L 267.360788 526.719458 
L 279.586747 566.133428 
L 291.650293 600.809969 
L 303.560029 630.974866 
L 315.323891 656.855146 
L 326.949196 678.678319 
L 338.442679 696.671653 
L 349.810534 711.061497 
L 361.058449 722.072634 
L 372.191644 729.927678 
L 383.214906 734.846507 
L 394.13262 737.045729 
L 404.948802 736.738186 
L 415.66713 734.132497 
L 426.290973 729.432626 
L 436.823415 722.83749 
L 447.267287 714.540597 
L 457.625188 704.729719 
L 467.899513 693.586586 
L 478.092471 681.286624 
L 488.206108 667.998712 
L 498.242333 653.884972 
L 508.20293 639.100584 
L 518.089578 623.793628 
L 527.903874 608.104959 
L 537.647343 592.168096 
L 547.321456 576.109143 
L 556.927644 560.046735 
L 566.467313 544.091999 
L 575.941855 528.348546 
L 585.352663 512.912482 
L 594.701138 497.872431 
L 603.988701 483.309593 
L 613.216806 469.29781 
L 622.386945 455.903653 
L 631.500656 443.186527 
L 640.559534 431.198793 
L 649.565238 419.985904 
L 658.519493 409.586561 
L 667.424102 400.032875 
L 676.280947 391.350552 
L 685.091995 383.559081 
L 693.859306 376.671945 
L 702.585033 370.696833 
L 711.271428 365.635866 
L 719.920843 361.485836 
L 728.535738 358.238451 
L 737.11868 355.880586 
L 745.672345 354.394543 
L 754.199525 353.758319 
L 762.703125 353.945878 
L 771.186169 354.92743 
L 779.651801 356.669708 
L 788.103284 359.136255 
L 796.544008 362.287712 
L 804.977485 366.082107 
L 813.407355 370.47514 
L 821.837388 375.420479 
L 830.271484 380.870047 
L 838.713676 386.774308 
L 847.168131 393.082552 
L 855.639157 399.743185 
L 864.131199 406.703996 
L 872.648845 413.912443 
L 881.196833 421.315911 
L 889.780044 428.861985 
L 898.403519 436.498696 
L 907.072451 444.174778 
L 915.792198 451.8399 
L 924.568282 459.4449 
L 933.406401 466.942007 
L 942.312426 474.285044 
L 951.292415 481.429632 
L 960.352618 488.333371 
L 969.499482 494.956013 
L 978.739661 501.259622 
L 988.080025 507.208714 
L 997.527669 512.770385 
L 1007.089924 517.914424 
L 1016.774366 522.613405 
L 1026.588829 526.842763 
L 1036.54142 530.580852 
L 1046.640526 533.808983 
L 1056.894835 536.51144 
L 1067.313347 538.675477 
L 1077.905391 540.291292 
L 1088.680644 541.351979 
L 1099.649145 541.853456 
L 1110.821318 541.794369 
L 1122.207993 541.175971 
L 1133.82042 540.001975 
L 1145.670301 538.278378 
L 1157.769806 536.013264 
L 1170.131603 533.216575 
L 1182.76888 529.899846 
L 1195.695374 526.075926 
L 1208.925402 521.758655 
L 1222.473886 516.962512 
L 1236.356387 511.702238 
" clip-path="url(#p549fd5abe1)" style="fill: none; stroke: #8c564b; stroke-width: 1.5"/>
    <path d="M 279.198943 475.573227 
L 291.500653 519.604856 
L 303.494156 558.269438 
L 315.246568 592.051627 
L 326.731883 621.141555 
L 337.904988 645.722181 
L 348.691083 665.969978 
L 358.970392 682.062492 
L 368.561084 694.202738 
L 377.217251 702.676686 
L 384.690376 707.949362 
L 390.920181 710.729242 
L 396.287256 711.810364 
L 401.582013 711.659816 
L 407.540464 710.211281 
L 414.462974 707.148838 
L 422.274133 702.257698 
L 430.757425 695.518343 
L 439.702287 687.045878 
L 448.948411 677.017892 
L 458.384337 665.631448 
L 467.935061 653.083127 
L 477.550504 639.561124 
L 487.197179 625.242686 
L 496.852634 610.293675 
L 506.501859 594.86888 
L 516.134973 579.112519 
L 535.330599 547.131974 
L 554.456105 515.249465 
L 563.980831 499.628349 
L 573.484707 484.341486 
L 582.973094 469.468797 
L 592.452962 455.08211 
L 601.933096 441.245431 
L 611.42437 428.0153 
L 620.940051 415.441279 
L 630.49613 403.566631 
L 640.111582 392.429283 
L 649.808441 382.063127 
L 659.611487 372.499756 
L 669.547222 363.770614 
L 679.641734 355.909382 
L 689.917045 348.954122 
L 700.385816 342.948273 
L 711.044955 337.939244 
L 721.869782 333.973489 
L 730.452723 331.615624 
L 732.811425 331.088028 
L 741.36509 329.601985 
L 743.800036 329.300363 
L 752.327215 328.664139 
L 754.754418 328.600507 
L 765.595483 328.948725 
L 776.258743 330.28007 
L 786.701734 332.513511 
L 796.905097 335.561873 
L 806.86888 339.339501 
L 816.606726 343.766548 
L 826.140136 348.770309 
L 835.493965 354.284697 
L 844.693403 360.248902 
L 853.762221 366.6059 
L 862.721917 373.301169 
L 871.591442 380.281737 
L 880.38723 387.495539 
L 889.123388 394.891064 
L 906.46312 410.023238 
L 932.339092 432.881217 
L 940.947516 440.34093 
L 949.550309 447.638417 
L 958.151222 454.729889 
L 966.753351 461.573846 
L 975.359337 468.131478 
L 983.971632 474.367075 
L 992.592842 480.248426 
L 1001.226158 485.747183 
L 1009.8759 490.839143 
L 1018.548147 495.5044 
L 1027.251424 499.72731 
L 1035.997371 503.496211 
L 1044.801293 506.802872 
L 1053.682464 509.641696 
L 1062.664076 512.008742 
L 1071.772748 513.900711 
L 1081.037616 515.314065 
L 1090.489108 516.244445 
L 1100.157577 516.686485 
L 1110.07202 516.63405 
L 1120.259068 516.080802 
L 1130.742364 515.020959 
L 1141.542362 513.45007 
L 1152.676474 511.365685 
L 1164.159487 508.767809 
L 1176.004114 505.659116 
L 1188.221592 502.044938 
L 1200.822247 497.933045 
L 1213.81599 493.33328 
L 1227.440046 488.170934 
L 1227.440046 488.170934 
" clip-path="url(#p549fd5abe1)" style="fill: none; stroke: #17becf; stroke-width: 1.5"/>
   </g>
   <g id="patch_3">
    <path d="M 180 783.879442 
L 180 306.920558 
" style="fill: none; stroke: #000000; stroke-width: 0.8; stroke-linejoin: miter; stroke-linecap: square"/>
   </g>
   <g id="patch_4">
    <path d="M 1296 783.879442 
L 1296 306.920558 
" style="fill: none; stroke: #000000; stroke-width: 0.8; stroke-linejoin: miter; stroke-linecap: square"/>
   </g>
   <g id="patch_5">
    <path d="M 180 783.879442 
L 1296 783.879442 
" style="fill: none; stroke: #000000; stroke-width: 0.8; stroke-linejoin: miter; stroke-linecap: square"/>
   </g>
   <g id="patch_6">
    <path d="M 180 306.920558 
L 1296 306.920558 
" style="fill: none; stroke: #000000; stroke-width: 0.8; stroke-linejoin: miter; stroke-linecap: square"/>
   </g>
  </g>
 </g>
 <defs>
  <clipPath id="p549fd5abe1">
   <rect x="180" y="306.920558" width="1116" height="476.958884"/>
  </clipPath>
 </defs>
</svg>
