<?xml version="1.0" encoding="utf-8" standalone="no"?>
<!DOCTYPE svg PUBLIC "-//W3C//DTD SVG 1.1//EN"
  "http://www.w3.org/Graphics/SVG/1.1/DTD/svg11.dtd">
<svg xmlns:xlink="http://www.w3.org/1999/xlink" width="1440pt" height="1080pt" viewBox="0 0 1440 1080" xmlns="http://www.w3.org/2000/svg" version="1.1">
 <metadata>
  <rdf:RDF xmlns:dc="http://purl.org/dc/elements/1.1/" xmlns:cc="http://creativecommons.org/ns#" xmlns:rdf="http://www.w3.org/1999/02/22-rdf-syntax-ns#">
   <cc:Work>
    <dc:type rdf:resource="http://purl.org/dc/dcmitype/StillImage"/>
    <dc:date>2023-12-11T12:06:47.841266</dc:date>
    <dc:format>image/svg+xml</dc:format>
    <dc:creator>
     <cc:Agent>
      <dc:title>Matplotlib v3.7.1, https://matplotlib.org/</dc:title>
     </cc:Agent>
    </dc:creator>
   </cc:Work>
  </rdf:RDF>
 </metadata>
 <defs>
  <style type="text/css">*{stroke-linejoin: round; stroke-linecap: butt}</style>
 </defs>
 <g id="figure_1">
  <g id="patch_1">
   <path d="M 0 1080 
L 1440 1080 
L 1440 0 
L 0 0 
z
" style="fill: #ffffff"/>
  </g>
  <g id="axes_1">
   <g id="patch_2">
    <path d="M 506.299305 961.2 
L 969.700695 961.2 
L 969.700695 129.6 
L 506.299305 129.6 
z
" style="fill: #ffffff"/>
   </g>
   <g id="matplotlib.axis_1">
    <g id="xtick_1">
     <g id="line2d_1">
      <defs>
       <path id="m122873a1a7" d="M 0 0 
L 0 3.5 
" style="stroke: #000000; stroke-width: 0.8"/>
      </defs>
      <g>
       <use xlink:href="#m122873a1a7" x="549.741075" y="961.2" style="stroke: #000000; stroke-width: 0.8"/>
      </g>
     </g>
     <g id="text_1">
      <!-- 550 -->
      <g transform="translate(540.197325 975.798437) scale(0.1 -0.1)">
       <defs>
        <path id="DejaVuSans-35" d="M 691 4666 
L 3169 4666 
L 3169 4134 
L 1269 4134 
L 1269 2991 
Q 1406 3038 1543 3061 
Q 1681 3084 1819 3084 
Q 2600 3084 3056 2656 
Q 3513 2228 3513 1497 
Q 3513 744 3044 326 
Q 2575 -91 1722 -91 
Q 1428 -91 1123 -41 
Q 819 9 494 109 
L 494 744 
Q 775 591 1075 516 
Q 1375 441 1709 441 
Q 2250 441 2565 725 
Q 2881 1009 2881 1497 
Q 2881 1984 2565 2268 
Q 2250 2553 1709 2553 
Q 1456 2553 1204 2497 
Q 953 2441 691 2322 
L 691 4666 
z
" transform="scale(0.015625)"/>
        <path id="DejaVuSans-30" d="M 2034 4250 
Q 1547 4250 1301 3770 
Q 1056 3291 1056 2328 
Q 1056 1369 1301 889 
Q 1547 409 2034 409 
Q 2525 409 2770 889 
Q 3016 1369 3016 2328 
Q 3016 3291 2770 3770 
Q 2525 4250 2034 4250 
z
M 2034 4750 
Q 2819 4750 3233 4129 
Q 3647 3509 3647 2328 
Q 3647 1150 3233 529 
Q 2819 -91 2034 -91 
Q 1250 -91 836 529 
Q 422 1150 422 2328 
Q 422 3509 836 4129 
Q 1250 4750 2034 4750 
z
" transform="scale(0.015625)"/>
       </defs>
       <use xlink:href="#DejaVuSans-35"/>
       <use xlink:href="#DejaVuSans-35" x="63.623047"/>
       <use xlink:href="#DejaVuSans-30" x="127.246094"/>
      </g>
     </g>
    </g>
    <g id="xtick_2">
     <g id="line2d_2">
      <g>
       <use xlink:href="#m122873a1a7" x="608.930304" y="961.2" style="stroke: #000000; stroke-width: 0.8"/>
      </g>
     </g>
     <g id="text_2">
      <!-- 600 -->
      <g transform="translate(599.386554 975.798437) scale(0.1 -0.1)">
       <defs>
        <path id="DejaVuSans-36" d="M 2113 2584 
Q 1688 2584 1439 2293 
Q 1191 2003 1191 1497 
Q 1191 994 1439 701 
Q 1688 409 2113 409 
Q 2538 409 2786 701 
Q 3034 994 3034 1497 
Q 3034 2003 2786 2293 
Q 2538 2584 2113 2584 
z
M 3366 4563 
L 3366 3988 
Q 3128 4100 2886 4159 
Q 2644 4219 2406 4219 
Q 1781 4219 1451 3797 
Q 1122 3375 1075 2522 
Q 1259 2794 1537 2939 
Q 1816 3084 2150 3084 
Q 2853 3084 3261 2657 
Q 3669 2231 3669 1497 
Q 3669 778 3244 343 
Q 2819 -91 2113 -91 
Q 1303 -91 875 529 
Q 447 1150 447 2328 
Q 447 3434 972 4092 
Q 1497 4750 2381 4750 
Q 2619 4750 2861 4703 
Q 3103 4656 3366 4563 
z
" transform="scale(0.015625)"/>
       </defs>
       <use xlink:href="#DejaVuSans-36"/>
       <use xlink:href="#DejaVuSans-30" x="63.623047"/>
       <use xlink:href="#DejaVuSans-30" x="127.246094"/>
      </g>
     </g>
    </g>
    <g id="xtick_3">
     <g id="line2d_3">
      <g>
       <use xlink:href="#m122873a1a7" x="668.119532" y="961.2" style="stroke: #000000; stroke-width: 0.8"/>
      </g>
     </g>
     <g id="text_3">
      <!-- 650 -->
      <g transform="translate(658.575782 975.798437) scale(0.1 -0.1)">
       <use xlink:href="#DejaVuSans-36"/>
       <use xlink:href="#DejaVuSans-35" x="63.623047"/>
       <use xlink:href="#DejaVuSans-30" x="127.246094"/>
      </g>
     </g>
    </g>
    <g id="xtick_4">
     <g id="line2d_4">
      <g>
       <use xlink:href="#m122873a1a7" x="727.30876" y="961.2" style="stroke: #000000; stroke-width: 0.8"/>
      </g>
     </g>
     <g id="text_4">
      <!-- 700 -->
      <g transform="translate(717.76501 975.798437) scale(0.1 -0.1)">
       <defs>
        <path id="DejaVuSans-37" d="M 525 4666 
L 3525 4666 
L 3525 4397 
L 1831 0 
L 1172 0 
L 2766 4134 
L 525 4134 
L 525 4666 
z
" transform="scale(0.015625)"/>
       </defs>
       <use xlink:href="#DejaVuSans-37"/>
       <use xlink:href="#DejaVuSans-30" x="63.623047"/>
       <use xlink:href="#DejaVuSans-30" x="127.246094"/>
      </g>
     </g>
    </g>
    <g id="xtick_5">
     <g id="line2d_5">
      <g>
       <use xlink:href="#m122873a1a7" x="786.497988" y="961.2" style="stroke: #000000; stroke-width: 0.8"/>
      </g>
     </g>
     <g id="text_5">
      <!-- 750 -->
      <g transform="translate(776.954238 975.798437) scale(0.1 -0.1)">
       <use xlink:href="#DejaVuSans-37"/>
       <use xlink:href="#DejaVuSans-35" x="63.623047"/>
       <use xlink:href="#DejaVuSans-30" x="127.246094"/>
      </g>
     </g>
    </g>
    <g id="xtick_6">
     <g id="line2d_6">
      <g>
       <use xlink:href="#m122873a1a7" x="845.687216" y="961.2" style="stroke: #000000; stroke-width: 0.8"/>
      </g>
     </g>
     <g id="text_6">
      <!-- 800 -->
      <g transform="translate(836.143466 975.798437) scale(0.1 -0.1)">
       <defs>
        <path id="DejaVuSans-38" d="M 2034 2216 
Q 1584 2216 1326 1975 
Q 1069 1734 1069 1313 
Q 1069 891 1326 650 
Q 1584 409 2034 409 
Q 2484 409 2743 651 
Q 3003 894 3003 1313 
Q 3003 1734 2745 1975 
Q 2488 2216 2034 2216 
z
M 1403 2484 
Q 997 2584 770 2862 
Q 544 3141 544 3541 
Q 544 4100 942 4425 
Q 1341 4750 2034 4750 
Q 2731 4750 3128 4425 
Q 3525 4100 3525 3541 
Q 3525 3141 3298 2862 
Q 3072 2584 2669 2484 
Q 3125 2378 3379 2068 
Q 3634 1759 3634 1313 
Q 3634 634 3220 271 
Q 2806 -91 2034 -91 
Q 1263 -91 848 271 
Q 434 634 434 1313 
Q 434 1759 690 2068 
Q 947 2378 1403 2484 
z
M 1172 3481 
Q 1172 3119 1398 2916 
Q 1625 2713 2034 2713 
Q 2441 2713 2670 2916 
Q 2900 3119 2900 3481 
Q 2900 3844 2670 4047 
Q 2441 4250 2034 4250 
Q 1625 4250 1398 4047 
Q 1172 3844 1172 3481 
z
" transform="scale(0.015625)"/>
       </defs>
       <use xlink:href="#DejaVuSans-38"/>
       <use xlink:href="#DejaVuSans-30" x="63.623047"/>
       <use xlink:href="#DejaVuSans-30" x="127.246094"/>
      </g>
     </g>
    </g>
    <g id="xtick_7">
     <g id="line2d_7">
      <g>
       <use xlink:href="#m122873a1a7" x="904.876444" y="961.2" style="stroke: #000000; stroke-width: 0.8"/>
      </g>
     </g>
     <g id="text_7">
      <!-- 850 -->
      <g transform="translate(895.332694 975.798437) scale(0.1 -0.1)">
       <use xlink:href="#DejaVuSans-38"/>
       <use xlink:href="#DejaVuSans-35" x="63.623047"/>
       <use xlink:href="#DejaVuSans-30" x="127.246094"/>
      </g>
     </g>
    </g>
    <g id="xtick_8">
     <g id="line2d_8">
      <g>
       <use xlink:href="#m122873a1a7" x="964.065673" y="961.2" style="stroke: #000000; stroke-width: 0.8"/>
      </g>
     </g>
     <g id="text_8">
      <!-- 900 -->
      <g transform="translate(954.521923 975.798437) scale(0.1 -0.1)">
       <defs>
        <path id="DejaVuSans-39" d="M 703 97 
L 703 672 
Q 941 559 1184 500 
Q 1428 441 1663 441 
Q 2288 441 2617 861 
Q 2947 1281 2994 2138 
Q 2813 1869 2534 1725 
Q 2256 1581 1919 1581 
Q 1219 1581 811 2004 
Q 403 2428 403 3163 
Q 403 3881 828 4315 
Q 1253 4750 1959 4750 
Q 2769 4750 3195 4129 
Q 3622 3509 3622 2328 
Q 3622 1225 3098 567 
Q 2575 -91 1691 -91 
Q 1453 -91 1209 -44 
Q 966 3 703 97 
z
M 1959 2075 
Q 2384 2075 2632 2365 
Q 2881 2656 2881 3163 
Q 2881 3666 2632 3958 
Q 2384 4250 1959 4250 
Q 1534 4250 1286 3958 
Q 1038 3666 1038 3163 
Q 1038 2656 1286 2365 
Q 1534 2075 1959 2075 
z
" transform="scale(0.015625)"/>
       </defs>
       <use xlink:href="#DejaVuSans-39"/>
       <use xlink:href="#DejaVuSans-30" x="63.623047"/>
       <use xlink:href="#DejaVuSans-30" x="127.246094"/>
      </g>
     </g>
    </g>
   </g>
   <g id="matplotlib.axis_2">
    <g id="ytick_1">
     <g id="line2d_9">
      <defs>
       <path id="mcf4c5578cd" d="M 0 0 
L -3.5 0 
" style="stroke: #000000; stroke-width: 0.8"/>
      </defs>
      <g>
       <use xlink:href="#mcf4c5578cd" x="506.299305" y="858.600645" style="stroke: #000000; stroke-width: 0.8"/>
      </g>
     </g>
     <g id="text_9">
      <!-- 700 -->
      <g transform="translate(480.211805 862.399864) scale(0.1 -0.1)">
       <use xlink:href="#DejaVuSans-37"/>
       <use xlink:href="#DejaVuSans-30" x="63.623047"/>
       <use xlink:href="#DejaVuSans-30" x="127.246094"/>
      </g>
     </g>
    </g>
    <g id="ytick_2">
     <g id="line2d_10">
      <g>
       <use xlink:href="#mcf4c5578cd" x="506.299305" y="740.222189" style="stroke: #000000; stroke-width: 0.8"/>
      </g>
     </g>
     <g id="text_10">
      <!-- 800 -->
      <g transform="translate(480.211805 744.021407) scale(0.1 -0.1)">
       <use xlink:href="#DejaVuSans-38"/>
       <use xlink:href="#DejaVuSans-30" x="63.623047"/>
       <use xlink:href="#DejaVuSans-30" x="127.246094"/>
      </g>
     </g>
    </g>
    <g id="ytick_3">
     <g id="line2d_11">
      <g>
       <use xlink:href="#mcf4c5578cd" x="506.299305" y="621.843732" style="stroke: #000000; stroke-width: 0.8"/>
      </g>
     </g>
     <g id="text_11">
      <!-- 900 -->
      <g transform="translate(480.211805 625.642951) scale(0.1 -0.1)">
       <use xlink:href="#DejaVuSans-39"/>
       <use xlink:href="#DejaVuSans-30" x="63.623047"/>
       <use xlink:href="#DejaVuSans-30" x="127.246094"/>
      </g>
     </g>
    </g>
    <g id="ytick_4">
     <g id="line2d_12">
      <g>
       <use xlink:href="#mcf4c5578cd" x="506.299305" y="503.465276" style="stroke: #000000; stroke-width: 0.8"/>
      </g>
     </g>
     <g id="text_12">
      <!-- 1000 -->
      <g transform="translate(473.849305 507.264495) scale(0.1 -0.1)">
       <defs>
        <path id="DejaVuSans-31" d="M 794 531 
L 1825 531 
L 1825 4091 
L 703 3866 
L 703 4441 
L 1819 4666 
L 2450 4666 
L 2450 531 
L 3481 531 
L 3481 0 
L 794 0 
L 794 531 
z
" transform="scale(0.015625)"/>
       </defs>
       <use xlink:href="#DejaVuSans-31"/>
       <use xlink:href="#DejaVuSans-30" x="63.623047"/>
       <use xlink:href="#DejaVuSans-30" x="127.246094"/>
       <use xlink:href="#DejaVuSans-30" x="190.869141"/>
      </g>
     </g>
    </g>
    <g id="ytick_5">
     <g id="line2d_13">
      <g>
       <use xlink:href="#mcf4c5578cd" x="506.299305" y="385.08682" style="stroke: #000000; stroke-width: 0.8"/>
      </g>
     </g>
     <g id="text_13">
      <!-- 1100 -->
      <g transform="translate(473.849305 388.886038) scale(0.1 -0.1)">
       <use xlink:href="#DejaVuSans-31"/>
       <use xlink:href="#DejaVuSans-31" x="63.623047"/>
       <use xlink:href="#DejaVuSans-30" x="127.246094"/>
       <use xlink:href="#DejaVuSans-30" x="190.869141"/>
      </g>
     </g>
    </g>
    <g id="ytick_6">
     <g id="line2d_14">
      <g>
       <use xlink:href="#mcf4c5578cd" x="506.299305" y="266.708363" style="stroke: #000000; stroke-width: 0.8"/>
      </g>
     </g>
     <g id="text_14">
      <!-- 1200 -->
      <g transform="translate(473.849305 270.507582) scale(0.1 -0.1)">
       <defs>
        <path id="DejaVuSans-32" d="M 1228 531 
L 3431 531 
L 3431 0 
L 469 0 
L 469 531 
Q 828 903 1448 1529 
Q 2069 2156 2228 2338 
Q 2531 2678 2651 2914 
Q 2772 3150 2772 3378 
Q 2772 3750 2511 3984 
Q 2250 4219 1831 4219 
Q 1534 4219 1204 4116 
Q 875 4013 500 3803 
L 500 4441 
Q 881 4594 1212 4672 
Q 1544 4750 1819 4750 
Q 2544 4750 2975 4387 
Q 3406 4025 3406 3419 
Q 3406 3131 3298 2873 
Q 3191 2616 2906 2266 
Q 2828 2175 2409 1742 
Q 1991 1309 1228 531 
z
" transform="scale(0.015625)"/>
       </defs>
       <use xlink:href="#DejaVuSans-31"/>
       <use xlink:href="#DejaVuSans-32" x="63.623047"/>
       <use xlink:href="#DejaVuSans-30" x="127.246094"/>
       <use xlink:href="#DejaVuSans-30" x="190.869141"/>
      </g>
     </g>
    </g>
    <g id="ytick_7">
     <g id="line2d_15">
      <g>
       <use xlink:href="#mcf4c5578cd" x="506.299305" y="148.329907" style="stroke: #000000; stroke-width: 0.8"/>
      </g>
     </g>
     <g id="text_15">
      <!-- 1300 -->
      <g transform="translate(473.849305 152.129126) scale(0.1 -0.1)">
       <defs>
        <path id="DejaVuSans-33" d="M 2597 2516 
Q 3050 2419 3304 2112 
Q 3559 1806 3559 1356 
Q 3559 666 3084 287 
Q 2609 -91 1734 -91 
Q 1441 -91 1130 -33 
Q 819 25 488 141 
L 488 750 
Q 750 597 1062 519 
Q 1375 441 1716 441 
Q 2309 441 2620 675 
Q 2931 909 2931 1356 
Q 2931 1769 2642 2001 
Q 2353 2234 1838 2234 
L 1294 2234 
L 1294 2753 
L 1863 2753 
Q 2328 2753 2575 2939 
Q 2822 3125 2822 3475 
Q 2822 3834 2567 4026 
Q 2313 4219 1838 4219 
Q 1578 4219 1281 4162 
Q 984 4106 628 3988 
L 628 4550 
Q 988 4650 1302 4700 
Q 1616 4750 1894 4750 
Q 2613 4750 3031 4423 
Q 3450 4097 3450 3541 
Q 3450 3153 3228 2886 
Q 3006 2619 2597 2516 
z
" transform="scale(0.015625)"/>
       </defs>
       <use xlink:href="#DejaVuSans-31"/>
       <use xlink:href="#DejaVuSans-33" x="63.623047"/>
       <use xlink:href="#DejaVuSans-30" x="127.246094"/>
       <use xlink:href="#DejaVuSans-30" x="190.869141"/>
      </g>
     </g>
    </g>
   </g>
   <g id="LineCollection_1">
    <path d="M 948.636995 883.768917 
L 920.367182 878.758704 
L 898.184675 873.281927 
L 880.95585 867.451285 
L 868.096008 861.509649 
L 858.984519 855.724881 
L 852.895005 850.317595 
L 848.999025 845.319874 
L 846.530913 840.482665 
L 844.999946 835.398864 
L 844.208332 829.754341 
L 844.089708 823.446511 
L 844.571449 816.528947 
L 845.535221 809.11496 
L 846.829787 801.318073 
L 848.284326 793.270632 
L 848.298843 793.189364 
L 849.722725 785.122609 
L 849.790706 784.712815 
L 851.021692 776.786398 
L 851.119618 776.071569 
L 852.042634 768.300136 
L 852.136237 767.299103 
L 852.656109 759.693986 
L 852.702675 758.429368 
L 852.742495 750.998869 
L 852.695017 749.505286 
L 852.19458 742.254951 
L 852.008996 740.58494 
L 850.92331 733.517818 
L 850.56819 731.742534 
L 848.866062 724.859423 
L 848.331601 723.062066 
L 845.994282 716.361745 
L 845.296219 714.624932 
L 842.316125 708.104387 
L 841.492027 706.496378 
L 837.871522 700.151012 
L 836.97102 698.716584 
L 832.721267 692.540411 
L 831.794852 691.299193 
L 826.934725 685.28503 
L 826.025394 684.235969 
L 820.580454 678.37561 
L 819.719866 677.50412 
L 813.721398 671.788502 
L 812.929774 671.073268 
L 806.413882 665.492624 
L 805.701992 664.910576 
L 798.708753 659.454581 
L 798.08052 658.983865 
L 790.653196 653.641771 
L 790.108088 653.263183 
L 782.292393 648.023938 
L 781.827287 647.721364 
L 773.670705 642.573731 
L 773.281192 642.334053 
L 764.832353 637.266715 
L 764.513585 637.079487 
L 755.821688 632.081138 
L 755.568896 631.938185 
L 746.683183 626.997623 
L 746.491962 626.892654 
L 737.461242 621.998854 
L 737.327698 621.927135 
L 728.199916 617.069321 
L 728.120713 617.027395 
L 718.942569 612.195101 
L 718.91493 612.180577 
L 709.742376 607.369387 
L 700.642432 602.582157 
L 691.668438 597.816526 
L 682.857927 593.064012 
L 674.246203 588.317239 
L 665.866111 583.569917 
L 657.747843 578.816826 
L 649.918754 574.053799 
L 642.40321 569.277695 
L 635.222435 564.486354 
L 628.394386 559.678519 
L 621.933634 554.853733 
L 615.851269 550.012177 
L 610.154837 545.154458 
L 604.848321 540.281332 
L 599.932206 535.393366 
L 595.403629 530.490562 
L 591.256673 525.571942 
L 587.482795 520.63517 
L 584.071418 515.676228 
L 581.01066 510.689234 
L 578.288149 505.666417 
L 575.891865 500.598299 
L 573.810936 495.474056 
L 572.036296 490.282025 
L 570.561173 485.010255 
L 569.381382 479.647055 
L 568.495452 474.181412 
L 567.904632 468.603259 
L 567.612841 462.903547 
L 567.626629 457.074141 
L 567.955194 451.107561 
L 568.610493 444.99662 
L 569.607457 438.734009 
L 570.964307 432.311867 
L 572.702961 425.721387 
L 574.849515 418.952489 
L 577.43475 411.993572 
L 580.494656 404.831382 
L 584.070926 397.450971 
L 588.211387 389.835766 
L 592.970361 381.967701 
L 598.408916 373.827393 
L 604.595033 365.394336 
L 611.603684 356.647052 
L 619.516845 347.563206 
L 628.423484 338.119636 
L 638.419541 328.292323 
L 649.607915 318.056291 
L 662.098501 307.385463 
L 676.008239 296.252489 
L 691.461208 284.628567 
L 708.588728 272.483271 
L 727.529478 259.784403 
L 748.429594 246.497866 
L 771.442759 232.587571 
L 796.73025 218.015367 
L 824.61808 202.654457 
" clip-path="url(#pef209e0541)" style="fill: none; stroke: #1f77b4; stroke-width: 1.5"/>
    <path d="M 945.12512 903.584458 
L 916.194725 898.457172 
L 892.537198 892.616218 
L 873.488796 886.169788 
L 858.439917 879.216751 
L 846.832207 871.847164 
L 838.155755 864.142762 
L 831.946376 856.177439 
L 827.782997 848.017706 
L 825.28512 839.723138 
L 824.110384 831.346802 
L 823.952205 822.93567 
L 824.537508 814.53102 
L 825.624541 806.168817 
L 827.000773 797.880082 
L 828.480868 789.691246 
L 829.904751 781.62449 
L 831.135737 773.698074 
L 832.058754 765.926641 
L 832.578627 758.321524 
L 832.618447 750.891025 
L 832.118009 743.64069 
L 831.032324 736.573568 
L 829.330196 729.690456 
L 826.992877 722.990135 
L 824.012783 716.469591 
L 820.392278 710.124225 
L 816.142525 703.948052 
L 811.282398 697.933889 
L 805.837458 692.07353 
L 799.838989 686.357911 
L 793.323097 680.777268 
L 786.329857 675.321273 
L 778.902533 669.979179 
L 771.086838 664.739933 
L 762.930256 659.592301 
L 754.481417 654.524962 
L 745.78952 649.526613 
L 736.903807 644.58605 
L 727.873087 639.692249 
L 718.745305 634.834435 
L 709.567161 630.002142 
L 700.383765 625.185266 
L 691.238348 620.374113 
L 682.172 615.559438 
L 673.223461 610.732469 
L 664.428941 605.88494 
L 655.821987 601.0091 
L 647.433379 596.09773 
L 639.291061 591.144142 
L 631.420113 586.14218 
L 623.842744 581.086213 
L 616.578326 575.971118 
L 609.643453 570.792266 
L 603.052023 565.545494 
L 596.815356 560.227083 
L 590.942333 554.833716 
L 585.439555 549.362447 
L 580.311533 543.81066 
L 575.560888 538.176019 
L 571.188585 532.456421 
L 567.19417 526.649946 
L 563.576034 520.754798 
L 560.331693 514.769247 
L 557.458075 508.691572 
L 554.951827 502.51999 
L 552.809628 496.252599 
L 551.028519 489.887303 
L 549.606233 483.421745 
L 548.54154 476.85324 
L 547.834594 470.178696 
L 547.487286 463.394549 
L 547.503601 456.496681 
L 547.889973 449.480354 
L 548.655647 442.340128 
L 549.813033 435.069793 
L 551.378066 427.662292 
L 553.370553 420.109645 
L 555.814522 412.402883 
L 558.738565 404.531967 
L 562.176164 396.485725 
L 566.166025 388.25178 
L 570.75238 379.81648 
L 575.985297 371.164837 
L 581.920967 362.28046 
L 588.621972 353.145495 
L 596.157551 343.740568 
L 604.603835 334.044728 
L 614.04407 324.035395 
L 624.568821 313.688313 
L 636.276149 302.9775 
L 649.271773 291.875214 
L 663.669198 280.351908 
L 679.589828 268.376204 
L 697.163045 255.914861 
L 716.526259 242.93275 
L 737.824937 229.392842 
L 761.21259 215.256188 
L 786.850734 200.481916 
L 814.908818 185.027228 
" clip-path="url(#pef209e0541)" style="fill: none; stroke: #8c564b; stroke-width: 1.5"/>
    <path d="M 941.613244 923.4 
L 911.37095 917.994832 
L 886.086061 911.678531 
L 867.037658 905.232101 
L 865.048123 904.438449 
L 849.999244 897.485413 
L 847.653512 896.206231 
L 834.718981 887.917594 
L 833.470078 886.89517 
L 823.47784 877.910398 
L 822.284216 876.515442 
L 814.970899 866.985868 
L 814.020606 865.32379 
L 809.110364 855.522489 
L 808.513466 853.820649 
L 805.628084 844.034737 
L 805.355819 842.518115 
L 804.181082 834.141779 
L 803.989604 831.725192 
L 803.87649 821.53759 
L 804.581079 811.936811 
L 805.771991 802.872572 
L 807.197314 794.300695 
L 810.050671 778.330918 
L 811.194411 770.966286 
L 812.015566 764.052493 
L 812.457971 757.580638 
L 812.490391 751.530854 
L 812.09934 745.865311 
L 811.278929 740.524955 
L 810.019646 735.432632 
L 808.300072 730.503183 
L 806.085359 725.657316 
L 803.333077 720.833615 
L 800.00309 715.994139 
L 796.066632 711.12297 
L 791.511489 706.220295 
L 786.34291 701.295433 
L 780.581606 696.361069 
L 774.260487 691.429451 
L 767.421303 686.510375 
L 760.11175 681.610422 
L 752.383202 676.732922 
L 744.289006 671.878286 
L 735.883233 667.044475 
L 718.351569 657.421756 
L 691.01432 642.995444 
L 672.617978 633.271288 
L 654.509598 623.394811 
L 645.654102 618.375823 
L 636.973805 613.290353 
L 628.49728 608.128937 
L 620.250428 602.882166 
L 612.256628 597.540723 
L 604.536938 592.095445 
L 597.11033 586.537417 
L 589.993963 580.858105 
L 583.203462 575.049542 
L 576.753194 569.10457 
L 570.656497 563.017123 
L 564.92585 556.782543 
L 559.572931 550.397892 
L 554.608572 543.862215 
L 550.042593 537.176692 
L 545.88355 530.344634 
L 542.138456 523.371287 
L 538.812541 516.26343 
L 535.909128 509.028798 
L 533.429688 501.675409 
L 531.374109 494.210858 
L 529.741165 486.641687 
L 528.529142 478.972888 
L 527.736576 471.207595 
L 527.363005 463.346951 
L 527.409707 455.390159 
L 527.880353 447.334646 
L 528.781562 439.176313 
L 530.123351 430.909821 
L 531.919473 422.528861 
L 534.187677 414.02637 
L 536.949897 405.394682 
L 540.232407 396.625572 
L 544.065968 387.710205 
L 548.486006 378.63898 
L 553.532831 369.401293 
L 559.251929 359.985241 
L 565.694321 350.377311 
L 572.916989 340.562075 
L 580.983337 330.521938 
L 589.963671 320.236956 
L 599.935656 309.684729 
L 610.984724 298.840374 
L 623.204412 287.676564 
L 636.696629 276.163603 
L 651.571831 264.269537 
L 667.949124 251.960268 
L 685.956302 239.199662 
L 705.729826 225.949641 
L 727.414759 212.170265 
L 751.164664 197.819785 
L 777.141471 182.854688 
L 805.199555 167.4 
L 805.199555 167.4 
" clip-path="url(#pef209e0541)" style="fill: none; stroke: #17becf; stroke-width: 1.5"/>
   </g>
   <g id="patch_3">
    <path d="M 506.299305 961.2 
L 506.299305 129.6 
" style="fill: none; stroke: #000000; stroke-width: 0.8; stroke-linejoin: miter; stroke-linecap: square"/>
   </g>
   <g id="patch_4">
    <path d="M 969.700695 961.2 
L 969.700695 129.6 
" style="fill: none; stroke: #000000; stroke-width: 0.8; stroke-linejoin: miter; stroke-linecap: square"/>
   </g>
   <g id="patch_5">
    <path d="M 506.299305 961.2 
L 969.700695 961.2 
" style="fill: none; stroke: #000000; stroke-width: 0.8; stroke-linejoin: miter; stroke-linecap: square"/>
   </g>
   <g id="patch_6">
    <path d="M 506.299305 129.6 
L 969.700695 129.6 
" style="fill: none; stroke: #000000; stroke-width: 0.8; stroke-linejoin: miter; stroke-linecap: square"/>
   </g>
  </g>
 </g>
 <defs>
  <clipPath id="pef209e0541">
   <rect x="506.299305" y="129.6" width="463.40139" height="831.6"/>
  </clipPath>
 </defs>
</svg>
