<?xml version="1.0" encoding="utf-8" standalone="no"?>
<!DOCTYPE svg PUBLIC "-//W3C//DTD SVG 1.1//EN"
  "http://www.w3.org/Graphics/SVG/1.1/DTD/svg11.dtd">
<svg xmlns:xlink="http://www.w3.org/1999/xlink" width="1440pt" height="1080pt" viewBox="0 0 1440 1080" xmlns="http://www.w3.org/2000/svg" version="1.1">
 <metadata>
  <rdf:RDF xmlns:dc="http://purl.org/dc/elements/1.1/" xmlns:cc="http://creativecommons.org/ns#" xmlns:rdf="http://www.w3.org/1999/02/22-rdf-syntax-ns#">
   <cc:Work>
    <dc:type rdf:resource="http://purl.org/dc/dcmitype/StillImage"/>
    <dc:date>2023-12-11T12:06:56.011990</dc:date>
    <dc:format>image/svg+xml</dc:format>
    <dc:creator>
     <cc:Agent>
      <dc:title>Matplotlib v3.7.1, https://matplotlib.org/</dc:title>
     </cc:Agent>
    </dc:creator>
   </cc:Work>
  </rdf:RDF>
 </metadata>
 <defs>
  <style type="text/css">*{stroke-linejoin: round; stroke-linecap: butt}</style>
 </defs>
 <g id="figure_1">
  <g id="patch_1">
   <path d="M 0 1080 
L 1440 1080 
L 1440 0 
L 0 0 
z
" style="fill: #ffffff"/>
  </g>
  <g id="axes_1">
   <g id="patch_2">
    <path d="M 180 825.248444 
L 1296 825.248444 
L 1296 265.551556 
L 180 265.551556 
z
" style="fill: #ffffff"/>
   </g>
   <g id="matplotlib.axis_1">
    <g id="xtick_1">
     <g id="line2d_1">
      <defs>
       <path id="maa7bd46cb7" d="M 0 0 
L 0 3.5 
" style="stroke: #000000; stroke-width: 0.8"/>
      </defs>
      <g>
       <use xlink:href="#maa7bd46cb7" x="226.343917" y="825.248444" style="stroke: #000000; stroke-width: 0.8"/>
      </g>
     </g>
     <g id="text_1">
      <!-- 700 -->
      <g transform="translate(216.800167 839.846882) scale(0.1 -0.1)">
       <defs>
        <path id="DejaVuSans-37" d="M 525 4666 
L 3525 4666 
L 3525 4397 
L 1831 0 
L 1172 0 
L 2766 4134 
L 525 4134 
L 525 4666 
z
" transform="scale(0.015625)"/>
        <path id="DejaVuSans-30" d="M 2034 4250 
Q 1547 4250 1301 3770 
Q 1056 3291 1056 2328 
Q 1056 1369 1301 889 
Q 1547 409 2034 409 
Q 2525 409 2770 889 
Q 3016 1369 3016 2328 
Q 3016 3291 2770 3770 
Q 2525 4250 2034 4250 
z
M 2034 4750 
Q 2819 4750 3233 4129 
Q 3647 3509 3647 2328 
Q 3647 1150 3233 529 
Q 2819 -91 2034 -91 
Q 1250 -91 836 529 
Q 422 1150 422 2328 
Q 422 3509 836 4129 
Q 1250 4750 2034 4750 
z
" transform="scale(0.015625)"/>
       </defs>
       <use xlink:href="#DejaVuSans-37"/>
       <use xlink:href="#DejaVuSans-30" x="63.623047"/>
       <use xlink:href="#DejaVuSans-30" x="127.246094"/>
      </g>
     </g>
    </g>
    <g id="xtick_2">
     <g id="line2d_2">
      <g>
       <use xlink:href="#maa7bd46cb7" x="371.332989" y="825.248444" style="stroke: #000000; stroke-width: 0.8"/>
      </g>
     </g>
     <g id="text_2">
      <!-- 800 -->
      <g transform="translate(361.789239 839.846882) scale(0.1 -0.1)">
       <defs>
        <path id="DejaVuSans-38" d="M 2034 2216 
Q 1584 2216 1326 1975 
Q 1069 1734 1069 1313 
Q 1069 891 1326 650 
Q 1584 409 2034 409 
Q 2484 409 2743 651 
Q 3003 894 3003 1313 
Q 3003 1734 2745 1975 
Q 2488 2216 2034 2216 
z
M 1403 2484 
Q 997 2584 770 2862 
Q 544 3141 544 3541 
Q 544 4100 942 4425 
Q 1341 4750 2034 4750 
Q 2731 4750 3128 4425 
Q 3525 4100 3525 3541 
Q 3525 3141 3298 2862 
Q 3072 2584 2669 2484 
Q 3125 2378 3379 2068 
Q 3634 1759 3634 1313 
Q 3634 634 3220 271 
Q 2806 -91 2034 -91 
Q 1263 -91 848 271 
Q 434 634 434 1313 
Q 434 1759 690 2068 
Q 947 2378 1403 2484 
z
M 1172 3481 
Q 1172 3119 1398 2916 
Q 1625 2713 2034 2713 
Q 2441 2713 2670 2916 
Q 2900 3119 2900 3481 
Q 2900 3844 2670 4047 
Q 2441 4250 2034 4250 
Q 1625 4250 1398 4047 
Q 1172 3844 1172 3481 
z
" transform="scale(0.015625)"/>
       </defs>
       <use xlink:href="#DejaVuSans-38"/>
       <use xlink:href="#DejaVuSans-30" x="63.623047"/>
       <use xlink:href="#DejaVuSans-30" x="127.246094"/>
      </g>
     </g>
    </g>
    <g id="xtick_3">
     <g id="line2d_3">
      <g>
       <use xlink:href="#maa7bd46cb7" x="516.32206" y="825.248444" style="stroke: #000000; stroke-width: 0.8"/>
      </g>
     </g>
     <g id="text_3">
      <!-- 900 -->
      <g transform="translate(506.77831 839.846882) scale(0.1 -0.1)">
       <defs>
        <path id="DejaVuSans-39" d="M 703 97 
L 703 672 
Q 941 559 1184 500 
Q 1428 441 1663 441 
Q 2288 441 2617 861 
Q 2947 1281 2994 2138 
Q 2813 1869 2534 1725 
Q 2256 1581 1919 1581 
Q 1219 1581 811 2004 
Q 403 2428 403 3163 
Q 403 3881 828 4315 
Q 1253 4750 1959 4750 
Q 2769 4750 3195 4129 
Q 3622 3509 3622 2328 
Q 3622 1225 3098 567 
Q 2575 -91 1691 -91 
Q 1453 -91 1209 -44 
Q 966 3 703 97 
z
M 1959 2075 
Q 2384 2075 2632 2365 
Q 2881 2656 2881 3163 
Q 2881 3666 2632 3958 
Q 2384 4250 1959 4250 
Q 1534 4250 1286 3958 
Q 1038 3666 1038 3163 
Q 1038 2656 1286 2365 
Q 1534 2075 1959 2075 
z
" transform="scale(0.015625)"/>
       </defs>
       <use xlink:href="#DejaVuSans-39"/>
       <use xlink:href="#DejaVuSans-30" x="63.623047"/>
       <use xlink:href="#DejaVuSans-30" x="127.246094"/>
      </g>
     </g>
    </g>
    <g id="xtick_4">
     <g id="line2d_4">
      <g>
       <use xlink:href="#maa7bd46cb7" x="661.311131" y="825.248444" style="stroke: #000000; stroke-width: 0.8"/>
      </g>
     </g>
     <g id="text_4">
      <!-- 1000 -->
      <g transform="translate(648.586131 839.846882) scale(0.1 -0.1)">
       <defs>
        <path id="DejaVuSans-31" d="M 794 531 
L 1825 531 
L 1825 4091 
L 703 3866 
L 703 4441 
L 1819 4666 
L 2450 4666 
L 2450 531 
L 3481 531 
L 3481 0 
L 794 0 
L 794 531 
z
" transform="scale(0.015625)"/>
       </defs>
       <use xlink:href="#DejaVuSans-31"/>
       <use xlink:href="#DejaVuSans-30" x="63.623047"/>
       <use xlink:href="#DejaVuSans-30" x="127.246094"/>
       <use xlink:href="#DejaVuSans-30" x="190.869141"/>
      </g>
     </g>
    </g>
    <g id="xtick_5">
     <g id="line2d_5">
      <g>
       <use xlink:href="#maa7bd46cb7" x="806.300202" y="825.248444" style="stroke: #000000; stroke-width: 0.8"/>
      </g>
     </g>
     <g id="text_5">
      <!-- 1100 -->
      <g transform="translate(793.575202 839.846882) scale(0.1 -0.1)">
       <use xlink:href="#DejaVuSans-31"/>
       <use xlink:href="#DejaVuSans-31" x="63.623047"/>
       <use xlink:href="#DejaVuSans-30" x="127.246094"/>
       <use xlink:href="#DejaVuSans-30" x="190.869141"/>
      </g>
     </g>
    </g>
    <g id="xtick_6">
     <g id="line2d_6">
      <g>
       <use xlink:href="#maa7bd46cb7" x="951.289273" y="825.248444" style="stroke: #000000; stroke-width: 0.8"/>
      </g>
     </g>
     <g id="text_6">
      <!-- 1200 -->
      <g transform="translate(938.564273 839.846882) scale(0.1 -0.1)">
       <defs>
        <path id="DejaVuSans-32" d="M 1228 531 
L 3431 531 
L 3431 0 
L 469 0 
L 469 531 
Q 828 903 1448 1529 
Q 2069 2156 2228 2338 
Q 2531 2678 2651 2914 
Q 2772 3150 2772 3378 
Q 2772 3750 2511 3984 
Q 2250 4219 1831 4219 
Q 1534 4219 1204 4116 
Q 875 4013 500 3803 
L 500 4441 
Q 881 4594 1212 4672 
Q 1544 4750 1819 4750 
Q 2544 4750 2975 4387 
Q 3406 4025 3406 3419 
Q 3406 3131 3298 2873 
Q 3191 2616 2906 2266 
Q 2828 2175 2409 1742 
Q 1991 1309 1228 531 
z
" transform="scale(0.015625)"/>
       </defs>
       <use xlink:href="#DejaVuSans-31"/>
       <use xlink:href="#DejaVuSans-32" x="63.623047"/>
       <use xlink:href="#DejaVuSans-30" x="127.246094"/>
       <use xlink:href="#DejaVuSans-30" x="190.869141"/>
      </g>
     </g>
    </g>
    <g id="xtick_7">
     <g id="line2d_7">
      <g>
       <use xlink:href="#maa7bd46cb7" x="1096.278345" y="825.248444" style="stroke: #000000; stroke-width: 0.8"/>
      </g>
     </g>
     <g id="text_7">
      <!-- 1300 -->
      <g transform="translate(1083.553345 839.846882) scale(0.1 -0.1)">
       <defs>
        <path id="DejaVuSans-33" d="M 2597 2516 
Q 3050 2419 3304 2112 
Q 3559 1806 3559 1356 
Q 3559 666 3084 287 
Q 2609 -91 1734 -91 
Q 1441 -91 1130 -33 
Q 819 25 488 141 
L 488 750 
Q 750 597 1062 519 
Q 1375 441 1716 441 
Q 2309 441 2620 675 
Q 2931 909 2931 1356 
Q 2931 1769 2642 2001 
Q 2353 2234 1838 2234 
L 1294 2234 
L 1294 2753 
L 1863 2753 
Q 2328 2753 2575 2939 
Q 2822 3125 2822 3475 
Q 2822 3834 2567 4026 
Q 2313 4219 1838 4219 
Q 1578 4219 1281 4162 
Q 984 4106 628 3988 
L 628 4550 
Q 988 4650 1302 4700 
Q 1616 4750 1894 4750 
Q 2613 4750 3031 4423 
Q 3450 4097 3450 3541 
Q 3450 3153 3228 2886 
Q 3006 2619 2597 2516 
z
" transform="scale(0.015625)"/>
       </defs>
       <use xlink:href="#DejaVuSans-31"/>
       <use xlink:href="#DejaVuSans-33" x="63.623047"/>
       <use xlink:href="#DejaVuSans-30" x="127.246094"/>
       <use xlink:href="#DejaVuSans-30" x="190.869141"/>
      </g>
     </g>
    </g>
    <g id="xtick_8">
     <g id="line2d_8">
      <g>
       <use xlink:href="#maa7bd46cb7" x="1241.267416" y="825.248444" style="stroke: #000000; stroke-width: 0.8"/>
      </g>
     </g>
     <g id="text_8">
      <!-- 1400 -->
      <g transform="translate(1228.542416 839.846882) scale(0.1 -0.1)">
       <defs>
        <path id="DejaVuSans-34" d="M 2419 4116 
L 825 1625 
L 2419 1625 
L 2419 4116 
z
M 2253 4666 
L 3047 4666 
L 3047 1625 
L 3713 1625 
L 3713 1100 
L 3047 1100 
L 3047 0 
L 2419 0 
L 2419 1100 
L 313 1100 
L 313 1709 
L 2253 4666 
z
" transform="scale(0.015625)"/>
       </defs>
       <use xlink:href="#DejaVuSans-31"/>
       <use xlink:href="#DejaVuSans-34" x="63.623047"/>
       <use xlink:href="#DejaVuSans-30" x="127.246094"/>
       <use xlink:href="#DejaVuSans-30" x="190.869141"/>
      </g>
     </g>
    </g>
   </g>
   <g id="matplotlib.axis_2">
    <g id="ytick_1">
     <g id="line2d_9">
      <defs>
       <path id="m7229b9dcbd" d="M 0 0 
L -3.5 0 
" style="stroke: #000000; stroke-width: 0.8"/>
      </defs>
      <g>
       <use xlink:href="#m7229b9dcbd" x="180" y="785.823305" style="stroke: #000000; stroke-width: 0.8"/>
      </g>
     </g>
     <g id="text_9">
      <!-- 1200 -->
      <g transform="translate(147.55 789.622524) scale(0.1 -0.1)">
       <use xlink:href="#DejaVuSans-31"/>
       <use xlink:href="#DejaVuSans-32" x="63.623047"/>
       <use xlink:href="#DejaVuSans-30" x="127.246094"/>
       <use xlink:href="#DejaVuSans-30" x="190.869141"/>
      </g>
     </g>
    </g>
    <g id="ytick_2">
     <g id="line2d_10">
      <g>
       <use xlink:href="#m7229b9dcbd" x="180" y="713.328769" style="stroke: #000000; stroke-width: 0.8"/>
      </g>
     </g>
     <g id="text_10">
      <!-- 1250 -->
      <g transform="translate(147.55 717.127988) scale(0.1 -0.1)">
       <defs>
        <path id="DejaVuSans-35" d="M 691 4666 
L 3169 4666 
L 3169 4134 
L 1269 4134 
L 1269 2991 
Q 1406 3038 1543 3061 
Q 1681 3084 1819 3084 
Q 2600 3084 3056 2656 
Q 3513 2228 3513 1497 
Q 3513 744 3044 326 
Q 2575 -91 1722 -91 
Q 1428 -91 1123 -41 
Q 819 9 494 109 
L 494 744 
Q 775 591 1075 516 
Q 1375 441 1709 441 
Q 2250 441 2565 725 
Q 2881 1009 2881 1497 
Q 2881 1984 2565 2268 
Q 2250 2553 1709 2553 
Q 1456 2553 1204 2497 
Q 953 2441 691 2322 
L 691 4666 
z
" transform="scale(0.015625)"/>
       </defs>
       <use xlink:href="#DejaVuSans-31"/>
       <use xlink:href="#DejaVuSans-32" x="63.623047"/>
       <use xlink:href="#DejaVuSans-35" x="127.246094"/>
       <use xlink:href="#DejaVuSans-30" x="190.869141"/>
      </g>
     </g>
    </g>
    <g id="ytick_3">
     <g id="line2d_11">
      <g>
       <use xlink:href="#m7229b9dcbd" x="180" y="640.834234" style="stroke: #000000; stroke-width: 0.8"/>
      </g>
     </g>
     <g id="text_11">
      <!-- 1300 -->
      <g transform="translate(147.55 644.633453) scale(0.1 -0.1)">
       <use xlink:href="#DejaVuSans-31"/>
       <use xlink:href="#DejaVuSans-33" x="63.623047"/>
       <use xlink:href="#DejaVuSans-30" x="127.246094"/>
       <use xlink:href="#DejaVuSans-30" x="190.869141"/>
      </g>
     </g>
    </g>
    <g id="ytick_4">
     <g id="line2d_12">
      <g>
       <use xlink:href="#m7229b9dcbd" x="180" y="568.339698" style="stroke: #000000; stroke-width: 0.8"/>
      </g>
     </g>
     <g id="text_12">
      <!-- 1350 -->
      <g transform="translate(147.55 572.138917) scale(0.1 -0.1)">
       <use xlink:href="#DejaVuSans-31"/>
       <use xlink:href="#DejaVuSans-33" x="63.623047"/>
       <use xlink:href="#DejaVuSans-35" x="127.246094"/>
       <use xlink:href="#DejaVuSans-30" x="190.869141"/>
      </g>
     </g>
    </g>
    <g id="ytick_5">
     <g id="line2d_13">
      <g>
       <use xlink:href="#m7229b9dcbd" x="180" y="495.845163" style="stroke: #000000; stroke-width: 0.8"/>
      </g>
     </g>
     <g id="text_13">
      <!-- 1400 -->
      <g transform="translate(147.55 499.644381) scale(0.1 -0.1)">
       <use xlink:href="#DejaVuSans-31"/>
       <use xlink:href="#DejaVuSans-34" x="63.623047"/>
       <use xlink:href="#DejaVuSans-30" x="127.246094"/>
       <use xlink:href="#DejaVuSans-30" x="190.869141"/>
      </g>
     </g>
    </g>
    <g id="ytick_6">
     <g id="line2d_14">
      <g>
       <use xlink:href="#m7229b9dcbd" x="180" y="423.350627" style="stroke: #000000; stroke-width: 0.8"/>
      </g>
     </g>
     <g id="text_14">
      <!-- 1450 -->
      <g transform="translate(147.55 427.149846) scale(0.1 -0.1)">
       <use xlink:href="#DejaVuSans-31"/>
       <use xlink:href="#DejaVuSans-34" x="63.623047"/>
       <use xlink:href="#DejaVuSans-35" x="127.246094"/>
       <use xlink:href="#DejaVuSans-30" x="190.869141"/>
      </g>
     </g>
    </g>
    <g id="ytick_7">
     <g id="line2d_15">
      <g>
       <use xlink:href="#m7229b9dcbd" x="180" y="350.856092" style="stroke: #000000; stroke-width: 0.8"/>
      </g>
     </g>
     <g id="text_15">
      <!-- 1500 -->
      <g transform="translate(147.55 354.65531) scale(0.1 -0.1)">
       <use xlink:href="#DejaVuSans-31"/>
       <use xlink:href="#DejaVuSans-35" x="63.623047"/>
       <use xlink:href="#DejaVuSans-30" x="127.246094"/>
       <use xlink:href="#DejaVuSans-30" x="190.869141"/>
      </g>
     </g>
    </g>
    <g id="ytick_8">
     <g id="line2d_16">
      <g>
       <use xlink:href="#m7229b9dcbd" x="180" y="278.361556" style="stroke: #000000; stroke-width: 0.8"/>
      </g>
     </g>
     <g id="text_16">
      <!-- 1550 -->
      <g transform="translate(147.55 282.160775) scale(0.1 -0.1)">
       <use xlink:href="#DejaVuSans-31"/>
       <use xlink:href="#DejaVuSans-35" x="63.623047"/>
       <use xlink:href="#DejaVuSans-35" x="127.246094"/>
       <use xlink:href="#DejaVuSans-30" x="190.869141"/>
      </g>
     </g>
    </g>
   </g>
   <g id="LineCollection_1">
    <path d="M 230.727273 464.537011 
L 254.836328 513.596295 
L 266.510408 537.153944 
L 277.95949 559.972955 
L 289.20445 581.990692 
L 300.265789 603.149284 
L 311.163742 623.395971 
L 321.91844 642.683372 
L 332.550104 660.969687 
L 343.079288 678.218802 
L 353.527185 694.400269 
L 363.915956 709.489125 
L 374.26909 723.465481 
L 384.611693 736.313794 
L 394.970582 748.021738 
L 405.373932 758.578597 
L 415.850095 767.973221 
L 426.425126 776.191836 
L 437.118637 783.216457 
L 447.938175 789.025138 
L 458.873449 793.595459 
L 469.893072 796.911774 
L 480.946812 798.974515 
L 491.974302 799.807677 
L 502.917432 799.460527 
L 513.731249 798.002645 
L 524.38933 795.515074 
L 534.883129 792.081669 
L 545.21759 787.783281 
L 555.405787 782.695201 
L 565.464414 776.886938 
L 575.4107 770.423127 
L 585.260665 763.364744 
L 595.028308 755.770165 
L 604.7254 747.695913 
L 614.361575 739.19711 
L 623.944575 730.327662 
L 633.48054 721.140267 
L 642.974287 711.686291 
L 652.429581 702.015566 
L 671.235911 682.213987 
L 689.916432 662.093446 
L 726.969471 622.083779 
L 745.352726 602.682634 
L 763.658286 583.903189 
L 772.788539 574.774927 
L 781.908164 565.827979 
L 791.021041 557.062633 
L 800.13153 548.47535 
L 809.244446 540.058947 
L 818.36502 531.802834 
L 836.65171 515.713875 
L 855.03865 500.067929 
L 873.573256 484.693866 
L 901.745939 461.738937 
L 940.180232 430.467798 
L 1010.006959 373.285073 
L 1020.214868 365.268851 
L 1030.45423 357.487126 
L 1040.70571 350.046586 
L 1050.941843 343.073649 
L 1061.123829 336.71481 
L 1071.197603 331.134991 
L 1081.090281 326.511895 
L 1090.71112 323.023523 
L 1099.967396 320.827863 
L 1108.812308 320.045718 
L 1117.327688 320.785486 
L 1125.777137 323.254952 
L 1134.514817 327.902019 
L 1143.782154 335.412159 
L 1153.605761 346.547454 
L 1163.865707 362.018863 
L 1174.403058 382.479265 
L 1185.076615 408.572156 
L 1195.77464 440.974926 
L 1206.408903 480.42351 
L 1216.963634 527.984174 
L 1216.963634 527.984174 
" clip-path="url(#p6a4469ef25)" style="fill: none; stroke: #1f77b4; stroke-width: 1.5"/>
    <path d="M 243.742606 458.148004 
L 255.925583 482.966495 
L 267.827611 507.158526 
L 279.469717 530.652049 
L 290.872025 553.378659 
L 302.053756 575.274023 
L 313.033216 596.27825 
L 323.827793 616.336217 
L 334.453962 635.397838 
L 344.927286 653.418285 
L 355.262421 670.358166 
L 365.473127 686.183653 
L 375.572279 700.866571 
L 385.57188 714.384443 
L 395.483078 726.720499 
L 405.316185 737.863647 
L 415.080696 747.808405 
L 424.785311 756.554804 
L 434.437962 764.108261 
L 444.045837 770.479416 
L 453.615406 775.683947 
L 463.152455 779.742358 
L 472.662111 782.679742 
L 482.148875 784.525523 
L 491.616656 785.313181 
L 501.068805 785.079953 
L 510.508147 783.866523 
L 519.937018 781.716697 
L 529.3573 778.677061 
L 538.770457 774.796641 
L 548.177575 770.126539 
L 557.579394 764.719573 
L 566.976346 758.629909 
L 576.368597 751.912695 
L 585.756076 744.623684 
L 595.13852 736.818871 
L 604.515503 728.554123 
L 613.886477 719.88482 
L 623.250805 710.865501 
L 632.607794 701.54952 
L 641.956734 691.988712 
L 651.296925 682.233072 
L 660.62771 672.330446 
L 669.948508 662.326248 
L 679.258841 652.263184 
L 688.558362 642.181002 
L 697.84688 632.116267 
L 707.124387 622.102156 
L 716.391079 612.168279 
L 725.647373 602.340535 
L 734.893935 592.640988 
L 744.131685 583.087783 
L 753.36182 573.695094 
L 762.585821 564.473105 
L 771.805464 555.428033 
L 781.022824 546.562189 
L 790.240282 537.87408 
L 799.460524 529.358554 
L 808.686538 521.006994 
L 817.92161 512.807557 
L 827.169315 504.74546 
L 836.433505 496.803325 
L 845.718291 488.961565 
L 855.028028 481.198841 
L 864.367288 473.492559 
L 873.740836 465.819442 
L 883.153597 458.15615 
L 892.610624 450.47997 
L 902.117053 442.76957 
L 911.678067 435.005818 
L 921.298842 427.172669 
L 930.984495 419.258128 
L 940.740031 411.255275 
L 950.570275 403.163378 
L 960.479809 394.989069 
L 970.472895 386.74761 
L 980.553405 378.464227 
L 990.724729 370.17554 
L 1000.989694 361.931062 
L 1011.350465 353.794799 
L 1021.80845 345.846924 
L 1032.36419 338.185552 
L 1043.01725 330.9286 
L 1053.766103 324.215743 
L 1064.608002 318.210463 
L 1075.538855 313.102202 
L 1086.553084 309.108607 
L 1097.643487 306.477879 
L 1108.801082 305.491226 
L 1120.014959 306.465424 
L 1131.272109 309.755478 
L 1142.557257 315.757396 
L 1153.852685 324.911077 
L 1165.138046 337.703306 
L 1176.390173 354.670866 
L 1187.582878 376.403772 
L 1198.686745 403.548612 
L 1209.668917 436.81202 
L 1220.492869 476.964268 
L 1231.118181 524.842977 
" clip-path="url(#p6a4469ef25)" style="fill: none; stroke: #8c564b; stroke-width: 1.5"/>
    <path d="M 256.757939 451.758997 
L 280.828118 500.739369 
L 292.445091 524.182177 
L 303.808112 546.830481 
L 314.934968 568.618391 
L 325.842048 589.484152 
L 336.544232 609.37044 
L 347.05476 628.224619 
L 357.385056 645.998973 
L 367.544525 662.650926 
L 377.54029 678.143278 
L 387.376903 692.444496 
L 397.056014 705.529117 
L 406.576083 717.37835 
L 415.932197 727.980957 
L 425.116222 737.334513 
L 434.117571 745.447086 
L 442.92504 752.339166 
L 451.530146 758.045366 
L 459.932101 762.614875 
L 468.143734 766.109267 
L 476.19632 768.596584 
L 484.140352 770.142206 
L 492.04009 770.799413 
L 499.962728 770.603925 
L 507.966392 769.575052 
L 516.09188 767.722403 
L 524.360459 765.054386 
L 532.776681 761.584937 
L 541.333516 757.336952 
L 550.01745 752.342839 
L 558.81237 746.643321 
L 567.702026 740.285556 
L 576.671356 733.321222 
L 585.707039 725.804863 
L 594.797618 717.792547 
L 603.933386 709.340839 
L 613.106192 700.505985 
L 622.309218 691.343293 
L 631.536775 681.906619 
L 650.047311 662.417065 
L 668.608746 642.424794 
L 705.836541 602.227452 
L 724.471017 582.562243 
L 743.110663 563.4417 
L 752.431999 554.123312 
L 761.754379 544.978439 
L 771.077985 536.011431 
L 780.403134 527.222843 
L 789.730315 518.609538 
L 799.060231 510.16483 
L 808.393872 501.878673 
L 827.078202 485.726475 
L 845.800179 470.015589 
L 864.586839 454.57566 
L 941.349889 391.97397 
L 981.645523 358.871279 
L 992.034912 350.527984 
L 1002.577555 342.251214 
L 1013.291898 334.112928 
L 1024.201412 326.202757 
L 1035.337103 318.630891 
L 1046.740906 311.53249 
L 1058.469525 305.075114 
L 1070.596612 299.471629 
L 1083.20669 295.001164 
L 1094.297093 292.370435 
L 1096.36635 292.035329 
L 1108.7899 290.992323 
L 1110.055939 291.046724 
L 1122.689114 292.215259 
L 1124.082307 292.548708 
L 1136.738395 296.326478 
L 1138.080259 296.954408 
L 1150.562571 303.668837 
L 1151.685824 304.492958 
L 1163.888189 314.446519 
L 1164.725315 315.319194 
L 1176.010676 328.111423 
L 1177.221413 329.690157 
L 1189.280065 348.032418 
L 1201.002443 370.914365 
L 1212.454677 399.003023 
L 1223.668088 433.038225 
L 1234.647416 473.823071 
L 1245.272727 521.70178 
L 1245.272727 521.70178 
" clip-path="url(#p6a4469ef25)" style="fill: none; stroke: #17becf; stroke-width: 1.5"/>
   </g>
   <g id="patch_3">
    <path d="M 180 825.248444 
L 180 265.551556 
" style="fill: none; stroke: #000000; stroke-width: 0.8; stroke-linejoin: miter; stroke-linecap: square"/>
   </g>
   <g id="patch_4">
    <path d="M 1296 825.248444 
L 1296 265.551556 
" style="fill: none; stroke: #000000; stroke-width: 0.8; stroke-linejoin: miter; stroke-linecap: square"/>
   </g>
   <g id="patch_5">
    <path d="M 180 825.248444 
L 1296 825.248444 
" style="fill: none; stroke: #000000; stroke-width: 0.8; stroke-linejoin: miter; stroke-linecap: square"/>
   </g>
   <g id="patch_6">
    <path d="M 180 265.551556 
L 1296 265.551556 
" style="fill: none; stroke: #000000; stroke-width: 0.8; stroke-linejoin: miter; stroke-linecap: square"/>
   </g>
  </g>
 </g>
 <defs>
  <clipPath id="p6a4469ef25">
   <rect x="180" y="265.551556" width="1116" height="559.696889"/>
  </clipPath>
 </defs>
</svg>
