<?xml version="1.0" encoding="utf-8" standalone="no"?>
<!DOCTYPE svg PUBLIC "-//W3C//DTD SVG 1.1//EN"
  "http://www.w3.org/Graphics/SVG/1.1/DTD/svg11.dtd">
<svg xmlns:xlink="http://www.w3.org/1999/xlink" width="1440pt" height="1080pt" viewBox="0 0 1440 1080" xmlns="http://www.w3.org/2000/svg" version="1.1">
 <metadata>
  <rdf:RDF xmlns:dc="http://purl.org/dc/elements/1.1/" xmlns:cc="http://creativecommons.org/ns#" xmlns:rdf="http://www.w3.org/1999/02/22-rdf-syntax-ns#">
   <cc:Work>
    <dc:type rdf:resource="http://purl.org/dc/dcmitype/StillImage"/>
    <dc:date>2023-12-11T12:07:04.282208</dc:date>
    <dc:format>image/svg+xml</dc:format>
    <dc:creator>
     <cc:Agent>
      <dc:title>Matplotlib v3.7.1, https://matplotlib.org/</dc:title>
     </cc:Agent>
    </dc:creator>
   </cc:Work>
  </rdf:RDF>
 </metadata>
 <defs>
  <style type="text/css">*{stroke-linejoin: round; stroke-linecap: butt}</style>
 </defs>
 <g id="figure_1">
  <g id="patch_1">
   <path d="M 0 1080 
L 1440 1080 
L 1440 0 
L 0 0 
z
" style="fill: #ffffff"/>
  </g>
  <g id="axes_1">
   <g id="patch_2">
    <path d="M 639.082651 961.2 
L 836.917349 961.2 
L 836.917349 129.6 
L 639.082651 129.6 
z
" style="fill: #ffffff"/>
   </g>
   <g id="matplotlib.axis_1">
    <g id="xtick_1">
     <g id="line2d_1">
      <defs>
       <path id="mcb8dfb3e89" d="M 0 0 
L 0 3.5 
" style="stroke: #000000; stroke-width: 0.8"/>
      </defs>
      <g>
       <use xlink:href="#mcb8dfb3e89" x="684.08245" y="961.2" style="stroke: #000000; stroke-width: 0.8"/>
      </g>
     </g>
     <g id="text_1">
      <!-- 1400 -->
      <g transform="translate(671.35745 975.798437) scale(0.1 -0.1)">
       <defs>
        <path id="DejaVuSans-31" d="M 794 531 
L 1825 531 
L 1825 4091 
L 703 3866 
L 703 4441 
L 1819 4666 
L 2450 4666 
L 2450 531 
L 3481 531 
L 3481 0 
L 794 0 
L 794 531 
z
" transform="scale(0.015625)"/>
        <path id="DejaVuSans-34" d="M 2419 4116 
L 825 1625 
L 2419 1625 
L 2419 4116 
z
M 2253 4666 
L 3047 4666 
L 3047 1625 
L 3713 1625 
L 3713 1100 
L 3047 1100 
L 3047 0 
L 2419 0 
L 2419 1100 
L 313 1100 
L 313 1709 
L 2253 4666 
z
" transform="scale(0.015625)"/>
        <path id="DejaVuSans-30" d="M 2034 4250 
Q 1547 4250 1301 3770 
Q 1056 3291 1056 2328 
Q 1056 1369 1301 889 
Q 1547 409 2034 409 
Q 2525 409 2770 889 
Q 3016 1369 3016 2328 
Q 3016 3291 2770 3770 
Q 2525 4250 2034 4250 
z
M 2034 4750 
Q 2819 4750 3233 4129 
Q 3647 3509 3647 2328 
Q 3647 1150 3233 529 
Q 2819 -91 2034 -91 
Q 1250 -91 836 529 
Q 422 1150 422 2328 
Q 422 3509 836 4129 
Q 1250 4750 2034 4750 
z
" transform="scale(0.015625)"/>
       </defs>
       <use xlink:href="#DejaVuSans-31"/>
       <use xlink:href="#DejaVuSans-34" x="63.623047"/>
       <use xlink:href="#DejaVuSans-30" x="127.246094"/>
       <use xlink:href="#DejaVuSans-30" x="190.869141"/>
      </g>
     </g>
    </g>
    <g id="xtick_2">
     <g id="line2d_2">
      <g>
       <use xlink:href="#mcb8dfb3e89" x="746.584529" y="961.2" style="stroke: #000000; stroke-width: 0.8"/>
      </g>
     </g>
     <g id="text_2">
      <!-- 1500 -->
      <g transform="translate(733.859529 975.798437) scale(0.1 -0.1)">
       <defs>
        <path id="DejaVuSans-35" d="M 691 4666 
L 3169 4666 
L 3169 4134 
L 1269 4134 
L 1269 2991 
Q 1406 3038 1543 3061 
Q 1681 3084 1819 3084 
Q 2600 3084 3056 2656 
Q 3513 2228 3513 1497 
Q 3513 744 3044 326 
Q 2575 -91 1722 -91 
Q 1428 -91 1123 -41 
Q 819 9 494 109 
L 494 744 
Q 775 591 1075 516 
Q 1375 441 1709 441 
Q 2250 441 2565 725 
Q 2881 1009 2881 1497 
Q 2881 1984 2565 2268 
Q 2250 2553 1709 2553 
Q 1456 2553 1204 2497 
Q 953 2441 691 2322 
L 691 4666 
z
" transform="scale(0.015625)"/>
       </defs>
       <use xlink:href="#DejaVuSans-31"/>
       <use xlink:href="#DejaVuSans-35" x="63.623047"/>
       <use xlink:href="#DejaVuSans-30" x="127.246094"/>
       <use xlink:href="#DejaVuSans-30" x="190.869141"/>
      </g>
     </g>
    </g>
    <g id="xtick_3">
     <g id="line2d_3">
      <g>
       <use xlink:href="#mcb8dfb3e89" x="809.086609" y="961.2" style="stroke: #000000; stroke-width: 0.8"/>
      </g>
     </g>
     <g id="text_3">
      <!-- 1600 -->
      <g transform="translate(796.361609 975.798437) scale(0.1 -0.1)">
       <defs>
        <path id="DejaVuSans-36" d="M 2113 2584 
Q 1688 2584 1439 2293 
Q 1191 2003 1191 1497 
Q 1191 994 1439 701 
Q 1688 409 2113 409 
Q 2538 409 2786 701 
Q 3034 994 3034 1497 
Q 3034 2003 2786 2293 
Q 2538 2584 2113 2584 
z
M 3366 4563 
L 3366 3988 
Q 3128 4100 2886 4159 
Q 2644 4219 2406 4219 
Q 1781 4219 1451 3797 
Q 1122 3375 1075 2522 
Q 1259 2794 1537 2939 
Q 1816 3084 2150 3084 
Q 2853 3084 3261 2657 
Q 3669 2231 3669 1497 
Q 3669 778 3244 343 
Q 2819 -91 2113 -91 
Q 1303 -91 875 529 
Q 447 1150 447 2328 
Q 447 3434 972 4092 
Q 1497 4750 2381 4750 
Q 2619 4750 2861 4703 
Q 3103 4656 3366 4563 
z
" transform="scale(0.015625)"/>
       </defs>
       <use xlink:href="#DejaVuSans-31"/>
       <use xlink:href="#DejaVuSans-36" x="63.623047"/>
       <use xlink:href="#DejaVuSans-30" x="127.246094"/>
       <use xlink:href="#DejaVuSans-30" x="190.869141"/>
      </g>
     </g>
    </g>
   </g>
   <g id="matplotlib.axis_2">
    <g id="ytick_1">
     <g id="line2d_4">
      <defs>
       <path id="mcb1cbe60ec" d="M 0 0 
L -3.5 0 
" style="stroke: #000000; stroke-width: 0.8"/>
      </defs>
      <g>
       <use xlink:href="#mcb1cbe60ec" x="639.082651" y="953.54529" style="stroke: #000000; stroke-width: 0.8"/>
      </g>
     </g>
     <g id="text_4">
      <!-- 200 -->
      <g transform="translate(612.995151 957.344508) scale(0.1 -0.1)">
       <defs>
        <path id="DejaVuSans-32" d="M 1228 531 
L 3431 531 
L 3431 0 
L 469 0 
L 469 531 
Q 828 903 1448 1529 
Q 2069 2156 2228 2338 
Q 2531 2678 2651 2914 
Q 2772 3150 2772 3378 
Q 2772 3750 2511 3984 
Q 2250 4219 1831 4219 
Q 1534 4219 1204 4116 
Q 875 4013 500 3803 
L 500 4441 
Q 881 4594 1212 4672 
Q 1544 4750 1819 4750 
Q 2544 4750 2975 4387 
Q 3406 4025 3406 3419 
Q 3406 3131 3298 2873 
Q 3191 2616 2906 2266 
Q 2828 2175 2409 1742 
Q 1991 1309 1228 531 
z
" transform="scale(0.015625)"/>
       </defs>
       <use xlink:href="#DejaVuSans-32"/>
       <use xlink:href="#DejaVuSans-30" x="63.623047"/>
       <use xlink:href="#DejaVuSans-30" x="127.246094"/>
      </g>
     </g>
    </g>
    <g id="ytick_2">
     <g id="line2d_5">
      <g>
       <use xlink:href="#mcb1cbe60ec" x="639.082651" y="828.541131" style="stroke: #000000; stroke-width: 0.8"/>
      </g>
     </g>
     <g id="text_5">
      <!-- 400 -->
      <g transform="translate(612.995151 832.34035) scale(0.1 -0.1)">
       <use xlink:href="#DejaVuSans-34"/>
       <use xlink:href="#DejaVuSans-30" x="63.623047"/>
       <use xlink:href="#DejaVuSans-30" x="127.246094"/>
      </g>
     </g>
    </g>
    <g id="ytick_3">
     <g id="line2d_6">
      <g>
       <use xlink:href="#mcb1cbe60ec" x="639.082651" y="703.536972" style="stroke: #000000; stroke-width: 0.8"/>
      </g>
     </g>
     <g id="text_6">
      <!-- 600 -->
      <g transform="translate(612.995151 707.336191) scale(0.1 -0.1)">
       <use xlink:href="#DejaVuSans-36"/>
       <use xlink:href="#DejaVuSans-30" x="63.623047"/>
       <use xlink:href="#DejaVuSans-30" x="127.246094"/>
      </g>
     </g>
    </g>
    <g id="ytick_4">
     <g id="line2d_7">
      <g>
       <use xlink:href="#mcb1cbe60ec" x="639.082651" y="578.532813" style="stroke: #000000; stroke-width: 0.8"/>
      </g>
     </g>
     <g id="text_7">
      <!-- 800 -->
      <g transform="translate(612.995151 582.332032) scale(0.1 -0.1)">
       <defs>
        <path id="DejaVuSans-38" d="M 2034 2216 
Q 1584 2216 1326 1975 
Q 1069 1734 1069 1313 
Q 1069 891 1326 650 
Q 1584 409 2034 409 
Q 2484 409 2743 651 
Q 3003 894 3003 1313 
Q 3003 1734 2745 1975 
Q 2488 2216 2034 2216 
z
M 1403 2484 
Q 997 2584 770 2862 
Q 544 3141 544 3541 
Q 544 4100 942 4425 
Q 1341 4750 2034 4750 
Q 2731 4750 3128 4425 
Q 3525 4100 3525 3541 
Q 3525 3141 3298 2862 
Q 3072 2584 2669 2484 
Q 3125 2378 3379 2068 
Q 3634 1759 3634 1313 
Q 3634 634 3220 271 
Q 2806 -91 2034 -91 
Q 1263 -91 848 271 
Q 434 634 434 1313 
Q 434 1759 690 2068 
Q 947 2378 1403 2484 
z
M 1172 3481 
Q 1172 3119 1398 2916 
Q 1625 2713 2034 2713 
Q 2441 2713 2670 2916 
Q 2900 3119 2900 3481 
Q 2900 3844 2670 4047 
Q 2441 4250 2034 4250 
Q 1625 4250 1398 4047 
Q 1172 3844 1172 3481 
z
" transform="scale(0.015625)"/>
       </defs>
       <use xlink:href="#DejaVuSans-38"/>
       <use xlink:href="#DejaVuSans-30" x="63.623047"/>
       <use xlink:href="#DejaVuSans-30" x="127.246094"/>
      </g>
     </g>
    </g>
    <g id="ytick_5">
     <g id="line2d_8">
      <g>
       <use xlink:href="#mcb1cbe60ec" x="639.082651" y="453.528654" style="stroke: #000000; stroke-width: 0.8"/>
      </g>
     </g>
     <g id="text_8">
      <!-- 1000 -->
      <g transform="translate(606.632651 457.327873) scale(0.1 -0.1)">
       <use xlink:href="#DejaVuSans-31"/>
       <use xlink:href="#DejaVuSans-30" x="63.623047"/>
       <use xlink:href="#DejaVuSans-30" x="127.246094"/>
       <use xlink:href="#DejaVuSans-30" x="190.869141"/>
      </g>
     </g>
    </g>
    <g id="ytick_6">
     <g id="line2d_9">
      <g>
       <use xlink:href="#mcb1cbe60ec" x="639.082651" y="328.524495" style="stroke: #000000; stroke-width: 0.8"/>
      </g>
     </g>
     <g id="text_9">
      <!-- 1200 -->
      <g transform="translate(606.632651 332.323714) scale(0.1 -0.1)">
       <use xlink:href="#DejaVuSans-31"/>
       <use xlink:href="#DejaVuSans-32" x="63.623047"/>
       <use xlink:href="#DejaVuSans-30" x="127.246094"/>
       <use xlink:href="#DejaVuSans-30" x="190.869141"/>
      </g>
     </g>
    </g>
    <g id="ytick_7">
     <g id="line2d_10">
      <g>
       <use xlink:href="#mcb1cbe60ec" x="639.082651" y="203.520336" style="stroke: #000000; stroke-width: 0.8"/>
      </g>
     </g>
     <g id="text_10">
      <!-- 1400 -->
      <g transform="translate(606.632651 207.319555) scale(0.1 -0.1)">
       <use xlink:href="#DejaVuSans-31"/>
       <use xlink:href="#DejaVuSans-34" x="63.623047"/>
       <use xlink:href="#DejaVuSans-30" x="127.246094"/>
       <use xlink:href="#DejaVuSans-30" x="190.869141"/>
      </g>
     </g>
    </g>
   </g>
   <g id="LineCollection_1">
    <path d="M 817.749269 167.4 
L 796.394559 173.939166 
L 778.007915 181.130256 
L 762.2722 188.971223 
L 750.590244 196.281883 
L 748.930457 197.46024 
L 739.452314 205.055469 
L 737.791919 206.571044 
L 730.249303 214.401263 
L 728.71867 216.223489 
L 722.86388 224.243306 
L 721.587379 226.26978 
L 717.192349 234.437794 
L 716.243502 236.515857 
L 713.098871 244.794459 
L 712.479446 246.770072 
L 710.048869 256.88619 
L 708.698873 266.777463 
L 708.196397 276.406046 
L 708.340098 285.764193 
L 708.961276 294.858502 
L 709.919919 303.700256 
L 711.099789 312.300742 
L 713.75263 328.814578 
L 716.342604 344.559021 
L 717.475383 352.118526 
L 718.449737 359.474918 
L 719.239506 366.637088 
L 719.825973 373.615616 
L 720.196793 380.423045 
L 720.344944 387.073928 
L 720.267741 393.584641 
L 719.965971 399.972977 
L 719.443199 406.257579 
L 718.705284 412.457293 
L 717.760103 418.590546 
L 716.617456 424.674815 
L 715.289087 430.726272 
L 713.788749 436.759602 
L 712.132258 442.787995 
L 708.424328 454.876041 
L 704.33117 467.072023 
L 695.740822 492.151988 
L 691.68459 505.117062 
L 689.813808 511.719213 
L 688.083063 518.405277 
L 686.517229 525.176604 
L 685.13946 532.032955 
L 683.970731 538.97245 
L 683.029377 545.991645 
L 682.33067 553.085708 
L 681.886475 560.24871 
L 681.705011 567.473997 
L 681.790749 574.754587 
L 682.144429 582.083552 
L 682.763204 589.454338 
L 683.640856 596.860986 
L 684.768065 604.298247 
L 686.132689 611.761591 
L 687.720021 619.247124 
L 689.513021 626.751451 
L 691.492501 634.271495 
L 693.637279 641.8043 
L 698.270154 656.715213 
L 700.824167 664.447799 
L 716.083297 709.661679 
L 718.371325 717.116619 
L 720.495756 724.525089 
L 722.423121 731.878442 
L 724.120851 739.168091 
L 725.557726 746.385999 
L 726.704288 753.525359 
L 727.533114 760.581459 
L 728.018869 767.552719 
L 728.138016 774.44178 
L 727.868095 781.256469 
L 727.1866 788.010371 
L 726.069595 794.722717 
L 724.490395 801.417402 
L 722.418737 808.121165 
L 719.820811 814.861232 
L 716.660301 821.662951 
L 712.90027 828.547977 
L 708.505502 835.533358 
L 703.444788 842.631604 
L 697.692803 849.851528 
L 691.2314 857.199528 
L 684.050319 864.68099 
L 676.14748 872.301562 
L 667.528992 880.068209 
L 658.209059 887.99 
L 648.075137 896.187668 
L 648.075137 896.187668 
" clip-path="url(#pf6d4319b54)" style="fill: none; stroke: #1f77b4; stroke-width: 1.5"/>
    <path d="M 822.837066 184.144692 
L 802.713381 190.25918 
L 785.731718 196.83418 
L 771.556107 203.806299 
L 759.874151 211.116958 
L 750.396007 218.712187 
L 742.853391 226.542405 
L 736.998601 234.562223 
L 732.603571 242.730236 
L 729.45894 251.008838 
L 727.37315 259.364022 
L 726.171559 267.765199 
L 725.695584 276.185019 
L 725.80186 284.599189 
L 726.361428 292.986308 
L 727.258931 301.327696 
L 728.39185 309.607232 
L 729.669747 317.8112 
L 731.013533 325.92813 
L 732.354762 333.948656 
L 733.634939 341.865366 
L 734.80485 349.672667 
L 735.823918 357.366647 
L 736.659573 364.944945 
L 737.286643 372.406626 
L 737.68677 379.752056 
L 737.847837 386.982785 
L 737.763426 394.101437 
L 737.432282 401.111594 
L 736.857812 408.017698 
L 736.047586 414.824945 
L 735.012869 421.539188 
L 733.768172 428.16685 
L 732.33081 434.714827 
L 730.720494 441.190411 
L 728.958928 447.601203 
L 727.069431 453.955041 
L 725.076576 460.259924 
L 723.005847 466.523945 
L 720.883311 472.755227 
L 718.735309 478.961858 
L 716.588165 485.151838 
L 714.467911 491.333021 
L 712.40003 497.513069 
L 710.409212 503.699405 
L 708.519133 509.899168 
L 706.752245 516.119179 
L 705.129583 522.3659 
L 703.67059 528.645406 
L 702.392956 534.963358 
L 701.312473 541.324975 
L 700.442907 547.735015 
L 699.795885 554.197757 
L 699.380791 560.716987 
L 699.204688 567.295986 
L 699.272247 573.937525 
L 699.585692 580.643858 
L 700.14476 587.416724 
L 700.946677 594.257346 
L 701.986142 601.166439 
L 703.255335 608.14422 
L 704.743931 615.190418 
L 706.439128 622.304286 
L 708.325691 629.484628 
L 710.386009 636.72981 
L 712.600164 644.037794 
L 714.946013 651.406155 
L 717.399285 658.832122 
L 719.933684 666.312603 
L 722.521014 673.844225 
L 725.131307 681.423372 
L 727.732972 689.046226 
L 730.292944 696.708815 
L 732.776859 704.407054 
L 735.14923 712.136803 
L 737.373636 719.893913 
L 739.412926 727.674286 
L 741.229431 735.473931 
L 742.785189 743.289024 
L 744.042176 751.115976 
L 744.962554 758.951491 
L 745.508923 766.792642 
L 745.644591 774.636939 
L 745.333842 782.482401 
L 744.542228 790.327633 
L 743.236859 798.171904 
L 741.386708 806.015228 
L 738.962925 813.858446 
L 735.93916 821.703312 
L 732.291892 829.552579 
L 728.00077 837.410092 
L 723.048964 845.280872 
L 717.423517 853.171221 
L 711.115716 861.088808 
L 704.121462 869.042774 
L 696.441651 877.043828 
L 688.082564 885.104352 
L 679.056265 893.238502 
L 669.381001 901.46232 
L 659.081618 909.793834 
" clip-path="url(#pf6d4319b54)" style="fill: none; stroke: #8c564b; stroke-width: 1.5"/>
    <path d="M 827.924863 200.889383 
L 808.424596 206.814449 
L 792.766545 212.87697 
L 780.082154 219.115648 
L 770.022274 225.4112 
L 762.21867 231.664551 
L 756.284887 237.824591 
L 751.841068 243.911678 
L 748.557177 250.014678 
L 746.187257 256.253764 
L 744.570236 262.73117 
L 743.601947 269.501161 
L 743.20241 276.568832 
L 743.295079 283.905669 
L 743.799557 291.467085 
L 744.632116 299.204879 
L 745.708874 307.07398 
L 748.276784 323.055716 
L 750.942286 339.271889 
L 752.153916 347.374782 
L 753.219063 355.448494 
L 754.098682 363.479385 
L 754.761318 371.454731 
L 755.183012 379.36232 
L 755.347189 387.190289 
L 755.244515 394.927201 
L 754.87263 402.562334 
L 754.235733 410.08609 
L 753.343986 417.490452 
L 752.212759 424.769386 
L 750.861766 431.919104 
L 749.31415 438.938161 
L 747.595593 445.827375 
L 745.733498 452.589606 
L 743.756284 459.22944 
L 739.571759 472.166724 
L 727.109783 508.931952 
L 725.307915 514.842369 
L 723.640898 520.710803 
L 722.124902 526.546893 
L 720.774067 532.360887 
L 719.600597 538.163745 
L 718.614918 543.967177 
L 717.825882 549.783592 
L 717.240971 555.625935 
L 716.866483 561.507419 
L 716.707652 567.441169 
L 716.768672 573.439823 
L 717.052624 579.515122 
L 717.561303 585.677557 
L 718.294983 591.9361 
L 719.25213 598.298044 
L 720.429129 604.768957 
L 721.820036 611.352744 
L 723.416382 618.051788 
L 725.207049 624.867145 
L 727.1782 631.798771 
L 731.59306 646.006597 
L 736.496913 660.661833 
L 746.948012 691.334887 
L 749.507203 699.272272 
L 751.971818 707.312808 
L 754.302374 715.456773 
L 756.457362 723.704707 
L 758.393224 732.057119 
L 760.064362 740.514036 
L 761.423262 749.074353 
L 762.420805 757.735004 
L 763.006889 766.490014 
L 763.131461 775.329572 
L 762.746007 784.239356 
L 761.805413 793.200409 
L 760.269966 802.18982 
L 758.107102 811.182316 
L 755.292473 820.15259 
L 751.810054 829.077937 
L 747.651295 837.940612 
L 742.813621 846.729417 
L 737.298751 855.440299 
L 731.111301 864.076034 
L 724.257929 872.645305 
L 716.747107 881.161498 
L 708.589409 889.641541 
L 699.798175 898.104923 
L 690.390364 906.572991 
L 680.387482 915.068486 
L 670.088099 923.4 
L 670.088099 923.4 
" clip-path="url(#pf6d4319b54)" style="fill: none; stroke: #17becf; stroke-width: 1.5"/>
   </g>
   <g id="patch_3">
    <path d="M 639.082651 961.2 
L 639.082651 129.6 
" style="fill: none; stroke: #000000; stroke-width: 0.8; stroke-linejoin: miter; stroke-linecap: square"/>
   </g>
   <g id="patch_4">
    <path d="M 836.917349 961.2 
L 836.917349 129.6 
" style="fill: none; stroke: #000000; stroke-width: 0.8; stroke-linejoin: miter; stroke-linecap: square"/>
   </g>
   <g id="patch_5">
    <path d="M 639.082651 961.2 
L 836.917349 961.2 
" style="fill: none; stroke: #000000; stroke-width: 0.8; stroke-linejoin: miter; stroke-linecap: square"/>
   </g>
   <g id="patch_6">
    <path d="M 639.082651 129.6 
L 836.917349 129.6 
" style="fill: none; stroke: #000000; stroke-width: 0.8; stroke-linejoin: miter; stroke-linecap: square"/>
   </g>
  </g>
 </g>
 <defs>
  <clipPath id="pf6d4319b54">
   <rect x="639.082651" y="129.6" width="197.834699" height="831.6"/>
  </clipPath>
 </defs>
</svg>
