<?xml version="1.0" encoding="utf-8" standalone="no"?>
<!DOCTYPE svg PUBLIC "-//W3C//DTD SVG 1.1//EN"
  "http://www.w3.org/Graphics/SVG/1.1/DTD/svg11.dtd">
<svg xmlns:xlink="http://www.w3.org/1999/xlink" width="1440pt" height="1080pt" viewBox="0 0 1440 1080" xmlns="http://www.w3.org/2000/svg" version="1.1">
 <metadata>
  <rdf:RDF xmlns:dc="http://purl.org/dc/elements/1.1/" xmlns:cc="http://creativecommons.org/ns#" xmlns:rdf="http://www.w3.org/1999/02/22-rdf-syntax-ns#">
   <cc:Work>
    <dc:type rdf:resource="http://purl.org/dc/dcmitype/StillImage"/>
    <dc:date>2023-12-11T12:06:51.220604</dc:date>
    <dc:format>image/svg+xml</dc:format>
    <dc:creator>
     <cc:Agent>
      <dc:title>Matplotlib v3.7.1, https://matplotlib.org/</dc:title>
     </cc:Agent>
    </dc:creator>
   </cc:Work>
  </rdf:RDF>
 </metadata>
 <defs>
  <style type="text/css">*{stroke-linejoin: round; stroke-linecap: butt}</style>
 </defs>
 <g id="figure_1">
  <g id="patch_1">
   <path d="M 0 1080 
L 1440 1080 
L 1440 0 
L 0 0 
z
" style="fill: #ffffff"/>
  </g>
  <g id="axes_1">
   <g id="patch_2">
    <path d="M 530.839125 961.2 
L 945.160875 961.2 
L 945.160875 129.6 
L 530.839125 129.6 
z
" style="fill: #ffffff"/>
   </g>
   <g id="matplotlib.axis_1">
    <g id="xtick_1">
     <g id="line2d_1">
      <defs>
       <path id="m1c27d1e743" d="M 0 0 
L 0 3.5 
" style="stroke: #000000; stroke-width: 0.8"/>
      </defs>
      <g>
       <use xlink:href="#m1c27d1e743" x="571.759003" y="961.2" style="stroke: #000000; stroke-width: 0.8"/>
      </g>
     </g>
     <g id="text_1">
      <!-- 1200 -->
      <g transform="translate(559.034003 975.798437) scale(0.1 -0.1)">
       <defs>
        <path id="DejaVuSans-31" d="M 794 531 
L 1825 531 
L 1825 4091 
L 703 3866 
L 703 4441 
L 1819 4666 
L 2450 4666 
L 2450 531 
L 3481 531 
L 3481 0 
L 794 0 
L 794 531 
z
" transform="scale(0.015625)"/>
        <path id="DejaVuSans-32" d="M 1228 531 
L 3431 531 
L 3431 0 
L 469 0 
L 469 531 
Q 828 903 1448 1529 
Q 2069 2156 2228 2338 
Q 2531 2678 2651 2914 
Q 2772 3150 2772 3378 
Q 2772 3750 2511 3984 
Q 2250 4219 1831 4219 
Q 1534 4219 1204 4116 
Q 875 4013 500 3803 
L 500 4441 
Q 881 4594 1212 4672 
Q 1544 4750 1819 4750 
Q 2544 4750 2975 4387 
Q 3406 4025 3406 3419 
Q 3406 3131 3298 2873 
Q 3191 2616 2906 2266 
Q 2828 2175 2409 1742 
Q 1991 1309 1228 531 
z
" transform="scale(0.015625)"/>
        <path id="DejaVuSans-30" d="M 2034 4250 
Q 1547 4250 1301 3770 
Q 1056 3291 1056 2328 
Q 1056 1369 1301 889 
Q 1547 409 2034 409 
Q 2525 409 2770 889 
Q 3016 1369 3016 2328 
Q 3016 3291 2770 3770 
Q 2525 4250 2034 4250 
z
M 2034 4750 
Q 2819 4750 3233 4129 
Q 3647 3509 3647 2328 
Q 3647 1150 3233 529 
Q 2819 -91 2034 -91 
Q 1250 -91 836 529 
Q 422 1150 422 2328 
Q 422 3509 836 4129 
Q 1250 4750 2034 4750 
z
" transform="scale(0.015625)"/>
       </defs>
       <use xlink:href="#DejaVuSans-31"/>
       <use xlink:href="#DejaVuSans-32" x="63.623047"/>
       <use xlink:href="#DejaVuSans-30" x="127.246094"/>
       <use xlink:href="#DejaVuSans-30" x="190.869141"/>
      </g>
     </g>
    </g>
    <g id="xtick_2">
     <g id="line2d_2">
      <g>
       <use xlink:href="#m1c27d1e743" x="645.542908" y="961.2" style="stroke: #000000; stroke-width: 0.8"/>
      </g>
     </g>
     <g id="text_2">
      <!-- 1300 -->
      <g transform="translate(632.817908 975.798437) scale(0.1 -0.1)">
       <defs>
        <path id="DejaVuSans-33" d="M 2597 2516 
Q 3050 2419 3304 2112 
Q 3559 1806 3559 1356 
Q 3559 666 3084 287 
Q 2609 -91 1734 -91 
Q 1441 -91 1130 -33 
Q 819 25 488 141 
L 488 750 
Q 750 597 1062 519 
Q 1375 441 1716 441 
Q 2309 441 2620 675 
Q 2931 909 2931 1356 
Q 2931 1769 2642 2001 
Q 2353 2234 1838 2234 
L 1294 2234 
L 1294 2753 
L 1863 2753 
Q 2328 2753 2575 2939 
Q 2822 3125 2822 3475 
Q 2822 3834 2567 4026 
Q 2313 4219 1838 4219 
Q 1578 4219 1281 4162 
Q 984 4106 628 3988 
L 628 4550 
Q 988 4650 1302 4700 
Q 1616 4750 1894 4750 
Q 2613 4750 3031 4423 
Q 3450 4097 3450 3541 
Q 3450 3153 3228 2886 
Q 3006 2619 2597 2516 
z
" transform="scale(0.015625)"/>
       </defs>
       <use xlink:href="#DejaVuSans-31"/>
       <use xlink:href="#DejaVuSans-33" x="63.623047"/>
       <use xlink:href="#DejaVuSans-30" x="127.246094"/>
       <use xlink:href="#DejaVuSans-30" x="190.869141"/>
      </g>
     </g>
    </g>
    <g id="xtick_3">
     <g id="line2d_3">
      <g>
       <use xlink:href="#m1c27d1e743" x="719.326813" y="961.2" style="stroke: #000000; stroke-width: 0.8"/>
      </g>
     </g>
     <g id="text_3">
      <!-- 1400 -->
      <g transform="translate(706.601813 975.798437) scale(0.1 -0.1)">
       <defs>
        <path id="DejaVuSans-34" d="M 2419 4116 
L 825 1625 
L 2419 1625 
L 2419 4116 
z
M 2253 4666 
L 3047 4666 
L 3047 1625 
L 3713 1625 
L 3713 1100 
L 3047 1100 
L 3047 0 
L 2419 0 
L 2419 1100 
L 313 1100 
L 313 1709 
L 2253 4666 
z
" transform="scale(0.015625)"/>
       </defs>
       <use xlink:href="#DejaVuSans-31"/>
       <use xlink:href="#DejaVuSans-34" x="63.623047"/>
       <use xlink:href="#DejaVuSans-30" x="127.246094"/>
       <use xlink:href="#DejaVuSans-30" x="190.869141"/>
      </g>
     </g>
    </g>
    <g id="xtick_4">
     <g id="line2d_4">
      <g>
       <use xlink:href="#m1c27d1e743" x="793.110718" y="961.2" style="stroke: #000000; stroke-width: 0.8"/>
      </g>
     </g>
     <g id="text_4">
      <!-- 1500 -->
      <g transform="translate(780.385718 975.798437) scale(0.1 -0.1)">
       <defs>
        <path id="DejaVuSans-35" d="M 691 4666 
L 3169 4666 
L 3169 4134 
L 1269 4134 
L 1269 2991 
Q 1406 3038 1543 3061 
Q 1681 3084 1819 3084 
Q 2600 3084 3056 2656 
Q 3513 2228 3513 1497 
Q 3513 744 3044 326 
Q 2575 -91 1722 -91 
Q 1428 -91 1123 -41 
Q 819 9 494 109 
L 494 744 
Q 775 591 1075 516 
Q 1375 441 1709 441 
Q 2250 441 2565 725 
Q 2881 1009 2881 1497 
Q 2881 1984 2565 2268 
Q 2250 2553 1709 2553 
Q 1456 2553 1204 2497 
Q 953 2441 691 2322 
L 691 4666 
z
" transform="scale(0.015625)"/>
       </defs>
       <use xlink:href="#DejaVuSans-31"/>
       <use xlink:href="#DejaVuSans-35" x="63.623047"/>
       <use xlink:href="#DejaVuSans-30" x="127.246094"/>
       <use xlink:href="#DejaVuSans-30" x="190.869141"/>
      </g>
     </g>
    </g>
    <g id="xtick_5">
     <g id="line2d_5">
      <g>
       <use xlink:href="#m1c27d1e743" x="866.894623" y="961.2" style="stroke: #000000; stroke-width: 0.8"/>
      </g>
     </g>
     <g id="text_5">
      <!-- 1600 -->
      <g transform="translate(854.169623 975.798437) scale(0.1 -0.1)">
       <defs>
        <path id="DejaVuSans-36" d="M 2113 2584 
Q 1688 2584 1439 2293 
Q 1191 2003 1191 1497 
Q 1191 994 1439 701 
Q 1688 409 2113 409 
Q 2538 409 2786 701 
Q 3034 994 3034 1497 
Q 3034 2003 2786 2293 
Q 2538 2584 2113 2584 
z
M 3366 4563 
L 3366 3988 
Q 3128 4100 2886 4159 
Q 2644 4219 2406 4219 
Q 1781 4219 1451 3797 
Q 1122 3375 1075 2522 
Q 1259 2794 1537 2939 
Q 1816 3084 2150 3084 
Q 2853 3084 3261 2657 
Q 3669 2231 3669 1497 
Q 3669 778 3244 343 
Q 2819 -91 2113 -91 
Q 1303 -91 875 529 
Q 447 1150 447 2328 
Q 447 3434 972 4092 
Q 1497 4750 2381 4750 
Q 2619 4750 2861 4703 
Q 3103 4656 3366 4563 
z
" transform="scale(0.015625)"/>
       </defs>
       <use xlink:href="#DejaVuSans-31"/>
       <use xlink:href="#DejaVuSans-36" x="63.623047"/>
       <use xlink:href="#DejaVuSans-30" x="127.246094"/>
       <use xlink:href="#DejaVuSans-30" x="190.869141"/>
      </g>
     </g>
    </g>
    <g id="xtick_6">
     <g id="line2d_6">
      <g>
       <use xlink:href="#m1c27d1e743" x="940.678527" y="961.2" style="stroke: #000000; stroke-width: 0.8"/>
      </g>
     </g>
     <g id="text_6">
      <!-- 1700 -->
      <g transform="translate(927.953527 975.798437) scale(0.1 -0.1)">
       <defs>
        <path id="DejaVuSans-37" d="M 525 4666 
L 3525 4666 
L 3525 4397 
L 1831 0 
L 1172 0 
L 2766 4134 
L 525 4134 
L 525 4666 
z
" transform="scale(0.015625)"/>
       </defs>
       <use xlink:href="#DejaVuSans-31"/>
       <use xlink:href="#DejaVuSans-37" x="63.623047"/>
       <use xlink:href="#DejaVuSans-30" x="127.246094"/>
       <use xlink:href="#DejaVuSans-30" x="190.869141"/>
      </g>
     </g>
    </g>
   </g>
   <g id="matplotlib.axis_2">
    <g id="ytick_1">
     <g id="line2d_7">
      <defs>
       <path id="mb50abbf0cc" d="M 0 0 
L -3.5 0 
" style="stroke: #000000; stroke-width: 0.8"/>
      </defs>
      <g>
       <use xlink:href="#mb50abbf0cc" x="530.839125" y="821.53018" style="stroke: #000000; stroke-width: 0.8"/>
      </g>
     </g>
     <g id="text_7">
      <!-- 400 -->
      <g transform="translate(504.751625 825.329399) scale(0.1 -0.1)">
       <use xlink:href="#DejaVuSans-34"/>
       <use xlink:href="#DejaVuSans-30" x="63.623047"/>
       <use xlink:href="#DejaVuSans-30" x="127.246094"/>
      </g>
     </g>
    </g>
    <g id="ytick_2">
     <g id="line2d_8">
      <g>
       <use xlink:href="#mb50abbf0cc" x="530.839125" y="673.96237" style="stroke: #000000; stroke-width: 0.8"/>
      </g>
     </g>
     <g id="text_8">
      <!-- 600 -->
      <g transform="translate(504.751625 677.761589) scale(0.1 -0.1)">
       <use xlink:href="#DejaVuSans-36"/>
       <use xlink:href="#DejaVuSans-30" x="63.623047"/>
       <use xlink:href="#DejaVuSans-30" x="127.246094"/>
      </g>
     </g>
    </g>
    <g id="ytick_3">
     <g id="line2d_9">
      <g>
       <use xlink:href="#mb50abbf0cc" x="530.839125" y="526.394561" style="stroke: #000000; stroke-width: 0.8"/>
      </g>
     </g>
     <g id="text_9">
      <!-- 800 -->
      <g transform="translate(504.751625 530.193779) scale(0.1 -0.1)">
       <defs>
        <path id="DejaVuSans-38" d="M 2034 2216 
Q 1584 2216 1326 1975 
Q 1069 1734 1069 1313 
Q 1069 891 1326 650 
Q 1584 409 2034 409 
Q 2484 409 2743 651 
Q 3003 894 3003 1313 
Q 3003 1734 2745 1975 
Q 2488 2216 2034 2216 
z
M 1403 2484 
Q 997 2584 770 2862 
Q 544 3141 544 3541 
Q 544 4100 942 4425 
Q 1341 4750 2034 4750 
Q 2731 4750 3128 4425 
Q 3525 4100 3525 3541 
Q 3525 3141 3298 2862 
Q 3072 2584 2669 2484 
Q 3125 2378 3379 2068 
Q 3634 1759 3634 1313 
Q 3634 634 3220 271 
Q 2806 -91 2034 -91 
Q 1263 -91 848 271 
Q 434 634 434 1313 
Q 434 1759 690 2068 
Q 947 2378 1403 2484 
z
M 1172 3481 
Q 1172 3119 1398 2916 
Q 1625 2713 2034 2713 
Q 2441 2713 2670 2916 
Q 2900 3119 2900 3481 
Q 2900 3844 2670 4047 
Q 2441 4250 2034 4250 
Q 1625 4250 1398 4047 
Q 1172 3844 1172 3481 
z
" transform="scale(0.015625)"/>
       </defs>
       <use xlink:href="#DejaVuSans-38"/>
       <use xlink:href="#DejaVuSans-30" x="63.623047"/>
       <use xlink:href="#DejaVuSans-30" x="127.246094"/>
      </g>
     </g>
    </g>
    <g id="ytick_4">
     <g id="line2d_10">
      <g>
       <use xlink:href="#mb50abbf0cc" x="530.839125" y="378.826751" style="stroke: #000000; stroke-width: 0.8"/>
      </g>
     </g>
     <g id="text_10">
      <!-- 1000 -->
      <g transform="translate(498.389125 382.62597) scale(0.1 -0.1)">
       <use xlink:href="#DejaVuSans-31"/>
       <use xlink:href="#DejaVuSans-30" x="63.623047"/>
       <use xlink:href="#DejaVuSans-30" x="127.246094"/>
       <use xlink:href="#DejaVuSans-30" x="190.869141"/>
      </g>
     </g>
    </g>
    <g id="ytick_5">
     <g id="line2d_11">
      <g>
       <use xlink:href="#mb50abbf0cc" x="530.839125" y="231.258941" style="stroke: #000000; stroke-width: 0.8"/>
      </g>
     </g>
     <g id="text_11">
      <!-- 1200 -->
      <g transform="translate(498.389125 235.05816) scale(0.1 -0.1)">
       <use xlink:href="#DejaVuSans-31"/>
       <use xlink:href="#DejaVuSans-32" x="63.623047"/>
       <use xlink:href="#DejaVuSans-30" x="127.246094"/>
       <use xlink:href="#DejaVuSans-30" x="190.869141"/>
      </g>
     </g>
    </g>
   </g>
   <g id="LineCollection_1">
    <path d="M 572.245459 167.4 
L 564.668954 183.870564 
L 558.724491 199.459708 
L 554.328046 214.236612 
L 551.405742 228.258751 
L 549.890752 241.567683 
L 549.717548 254.186344 
L 550.814397 266.12015 
L 553.096786 277.363263 
L 556.465092 287.908749 
L 560.80805 297.75878 
L 566.010387 306.93079 
L 571.961015 315.457998 
L 578.558734 323.385709 
L 585.714529 330.766028 
L 593.351184 337.653114 
L 601.401519 344.099869 
L 609.806268 350.156084 
L 618.512197 355.867665 
L 627.470626 361.276512 
L 636.636385 366.420741 
L 645.967104 371.335039 
L 655.422742 376.051052 
L 664.9653 380.597738 
L 674.558626 385.001678 
L 693.761567 393.477264 
L 740.495057 413.688155 
L 758.111085 421.723516 
L 766.595168 425.782911 
L 774.837612 429.884286 
L 782.821072 434.036873 
L 790.529782 438.248838 
L 797.949601 442.527325 
L 805.068078 446.878522 
L 811.87452 451.307737 
L 818.360074 455.819508 
L 824.517799 460.417735 
L 830.342738 465.105856 
L 835.831947 469.88705 
L 840.984498 474.764471 
L 845.801408 479.741502 
L 850.285502 484.821996 
L 854.441181 490.010482 
L 858.274123 495.3123 
L 861.790924 500.73364 
L 864.998718 506.281444 
L 867.904822 511.9632 
L 870.516452 517.786621 
L 872.840555 523.759259 
L 874.883756 529.888109 
L 876.652432 536.179246 
L 878.152886 542.637541 
L 879.391577 549.266482 
L 880.375381 556.068098 
L 881.111831 563.042981 
L 881.609331 570.190381 
L 881.877319 577.508352 
L 881.926376 584.993921 
L 881.768293 592.643268 
L 881.41609 600.451899 
L 880.884012 608.414796 
L 880.187492 616.526562 
L 879.343109 624.781534 
L 877.282444 641.697696 
L 874.855314 659.11605 
L 868.309144 704.613365 
L 865.998019 723.470165 
L 865.009541 733.01844 
L 864.167632 742.640855 
L 863.499181 752.333248 
L 863.031386 762.091543 
L 862.791653 771.911689 
L 862.807478 781.789594 
L 863.106284 791.721063 
L 863.715227 801.701743 
L 864.660972 811.727095 
L 865.96942 821.792409 
L 867.66543 831.892865 
L 869.772517 842.023678 
L 872.312572 852.180301 
L 875.305621 862.358707 
L 878.769635 872.555722 
L 882.720418 882.769379 
L 887.17156 892.999276 
L 892.134462 903.246893 
L 897.618399 913.515845 
L 903.380253 923.4 
L 903.380253 923.4 
" clip-path="url(#p75ba507284)" style="fill: none; stroke: #1f77b4; stroke-width: 1.5"/>
    <path d="M 584.302267 172.969656 
L 577.068019 188.629857 
L 571.442893 203.284619 
L 567.319271 216.996282 
L 564.594225 229.824515 
L 563.169334 241.826417 
L 562.950514 253.056607 
L 563.847844 263.567322 
L 565.775411 273.4085 
L 568.651151 282.62787 
L 572.3967 291.271032 
L 576.937255 299.381535 
L 582.201432 307.000957 
L 588.121137 314.168977 
L 594.631439 320.923447 
L 601.670452 327.300458 
L 609.179215 333.334409 
L 617.101586 339.058065 
L 625.384135 344.502624 
L 633.976044 349.697772 
L 642.829012 354.671738 
L 651.897161 359.451348 
L 661.136955 364.06208 
L 670.507112 368.528106 
L 679.968529 372.872348 
L 689.484209 377.116515 
L 699.019186 381.281153 
L 708.540465 385.385679 
L 718.016954 389.44843 
L 727.419406 393.486691 
L 736.720366 397.51674 
L 745.894114 401.553874 
L 754.91662 405.612449 
L 763.765491 409.70591 
L 772.419933 413.846818 
L 780.860709 418.046881 
L 789.070095 422.316984 
L 797.031851 426.66721 
L 804.731182 431.106872 
L 812.154709 435.644532 
L 819.290434 440.288025 
L 826.12772 445.044483 
L 832.657258 449.920358 
L 838.871044 454.921438 
L 844.762358 460.052872 
L 850.325739 465.319185 
L 855.556963 470.724303 
L 860.453029 476.271562 
L 865.012134 481.963737 
L 869.233656 487.80305 
L 873.118141 493.791193 
L 876.667279 499.929344 
L 879.883892 506.218181 
L 882.771916 512.657904 
L 885.336384 519.248246 
L 887.583409 525.988496 
L 889.52017 532.877508 
L 891.154893 539.913728 
L 892.496832 547.095202 
L 893.556252 554.419601 
L 894.344413 561.884234 
L 894.873544 569.486068 
L 895.156829 577.221751 
L 895.208378 585.087625 
L 895.043211 593.079752 
L 894.677227 601.193931 
L 894.127182 609.425722 
L 893.410657 617.77047 
L 892.546032 626.223325 
L 891.552453 634.779271 
L 890.449796 643.433149 
L 889.258635 652.179684 
L 888.000196 661.013513 
L 886.696327 669.929216 
L 885.369442 678.921348 
L 884.042484 687.984465 
L 882.738871 697.113165 
L 881.482443 706.302118 
L 880.297408 715.546107 
L 879.208283 724.840062 
L 878.23983 734.179103 
L 877.416989 743.558584 
L 876.764812 752.974133 
L 876.308384 762.4217 
L 876.072749 771.897605 
L 876.082824 781.398588 
L 876.363318 790.921862 
L 876.938637 800.465165 
L 877.832789 810.026821 
L 879.069284 819.605795 
L 880.67103 829.201758 
L 882.660225 838.815148 
L 885.058236 848.44724 
L 887.885483 858.100214 
L 891.161313 867.777226 
L 894.903868 877.482485 
L 899.129947 887.22133 
L 903.854866 897.000308 
L 909.092306 906.827262 
L 914.854161 916.711418 
" clip-path="url(#p75ba507284)" style="fill: none; stroke: #8c564b; stroke-width: 1.5"/>
    <path d="M 596.359075 178.539312 
L 589.309382 193.800002 
L 584.019007 207.58266 
L 580.196153 220.294224 
L 577.711302 231.99173 
L 576.43514 242.74089 
L 576.242647 252.619911 
L 577.019602 261.720634 
L 578.669668 270.145031 
L 581.118856 277.996914 
L 584.314687 285.371555 
L 588.220037 292.347433 
L 592.80454 298.983089 
L 598.037119 305.319086 
L 603.881694 311.382861 
L 610.296088 317.193997 
L 617.23299 322.768406 
L 624.641761 328.121003 
L 632.470279 333.267104 
L 640.666429 338.222954 
L 649.179175 343.005769 
L 657.959251 347.633542 
L 666.959566 352.124772 
L 676.135413 356.498186 
L 685.44455 360.772508 
L 704.30598 369.097618 
L 751.342477 389.441771 
L 769.497753 397.725557 
L 778.336507 401.956408 
L 786.989362 406.264381 
L 795.438184 410.66215 
L 803.666183 415.161849 
L 811.657792 419.775069 
L 819.398535 424.512835 
L 826.874892 429.385562 
L 834.07417 434.402978 
L 840.984371 439.574012 
L 847.594097 444.906646 
L 853.892475 450.407735 
L 859.869156 456.082797 
L 865.514368 461.935799 
L 870.81906 467.968967 
L 875.775136 474.18264 
L 880.375746 480.57522 
L 884.615633 487.143232 
L 888.491467 493.881511 
L 892.002143 500.783507 
L 895.148978 507.841679 
L 897.935789 515.047929 
L 900.368849 522.394026 
L 902.456723 529.871963 
L 904.210028 537.47423 
L 905.641147 545.193974 
L 906.763937 553.025055 
L 907.593459 560.962024 
L 908.145751 569.000034 
L 908.437646 577.134714 
L 908.486646 585.362037 
L 908.310825 593.678178 
L 907.92878 602.079395 
L 907.359594 610.561928 
L 906.622821 619.121914 
L 905.738479 627.755329 
L 903.609425 645.225316 
L 901.141514 662.935354 
L 894.648658 708.046134 
L 892.409421 726.297968 
L 891.460935 735.444463 
L 890.657927 744.597868 
L 890.023751 753.753526 
L 889.581518 762.907288 
L 889.354027 772.055668 
L 889.36372 781.196002 
L 889.632649 790.326617 
L 890.182472 799.446998 
L 891.034475 808.557942 
L 892.209625 817.661685 
L 893.728637 826.761986 
L 895.612049 835.864151 
L 897.880288 844.974991 
L 900.553696 854.102717 
L 903.652497 863.256773 
L 907.19669 872.447637 
L 911.20586 881.686621 
L 915.698899 890.985687 
L 920.693673 900.35733 
L 926.328069 910.022835 
L 926.328069 910.022835 
" clip-path="url(#p75ba507284)" style="fill: none; stroke: #17becf; stroke-width: 1.5"/>
   </g>
   <g id="patch_3">
    <path d="M 530.839125 961.2 
L 530.839125 129.6 
" style="fill: none; stroke: #000000; stroke-width: 0.8; stroke-linejoin: miter; stroke-linecap: square"/>
   </g>
   <g id="patch_4">
    <path d="M 945.160875 961.2 
L 945.160875 129.6 
" style="fill: none; stroke: #000000; stroke-width: 0.8; stroke-linejoin: miter; stroke-linecap: square"/>
   </g>
   <g id="patch_5">
    <path d="M 530.839125 961.2 
L 945.160875 961.2 
" style="fill: none; stroke: #000000; stroke-width: 0.8; stroke-linejoin: miter; stroke-linecap: square"/>
   </g>
   <g id="patch_6">
    <path d="M 530.839125 129.6 
L 945.160875 129.6 
" style="fill: none; stroke: #000000; stroke-width: 0.8; stroke-linejoin: miter; stroke-linecap: square"/>
   </g>
  </g>
 </g>
 <defs>
  <clipPath id="p75ba507284">
   <rect x="530.839125" y="129.6" width="414.321751" height="831.6"/>
  </clipPath>
 </defs>
</svg>
