<?xml version="1.0" encoding="utf-8" standalone="no"?>
<!DOCTYPE svg PUBLIC "-//W3C//DTD SVG 1.1//EN"
  "http://www.w3.org/Graphics/SVG/1.1/DTD/svg11.dtd">
<svg xmlns:xlink="http://www.w3.org/1999/xlink" width="1440pt" height="1080pt" viewBox="0 0 1440 1080" xmlns="http://www.w3.org/2000/svg" version="1.1">
 <metadata>
  <rdf:RDF xmlns:dc="http://purl.org/dc/elements/1.1/" xmlns:cc="http://creativecommons.org/ns#" xmlns:rdf="http://www.w3.org/1999/02/22-rdf-syntax-ns#">
   <cc:Work>
    <dc:type rdf:resource="http://purl.org/dc/dcmitype/StillImage"/>
    <dc:date>2023-12-11T12:07:01.430315</dc:date>
    <dc:format>image/svg+xml</dc:format>
    <dc:creator>
     <cc:Agent>
      <dc:title>Matplotlib v3.7.1, https://matplotlib.org/</dc:title>
     </cc:Agent>
    </dc:creator>
   </cc:Work>
  </rdf:RDF>
 </metadata>
 <defs>
  <style type="text/css">*{stroke-linejoin: round; stroke-linecap: butt}</style>
 </defs>
 <g id="figure_1">
  <g id="patch_1">
   <path d="M 0 1080 
L 1440 1080 
L 1440 0 
L 0 0 
z
" style="fill: #ffffff"/>
  </g>
  <g id="axes_1">
   <g id="patch_2">
    <path d="M 647.885185 961.2 
L 828.114815 961.2 
L 828.114815 129.6 
L 647.885185 129.6 
z
" style="fill: #ffffff"/>
   </g>
   <g id="matplotlib.axis_1">
    <g id="xtick_1">
     <g id="line2d_1">
      <defs>
       <path id="mf5bf323c27" d="M 0 0 
L 0 3.5 
" style="stroke: #000000; stroke-width: 0.8"/>
      </defs>
      <g>
       <use xlink:href="#mf5bf323c27" x="651.083742" y="961.2" style="stroke: #000000; stroke-width: 0.8"/>
      </g>
     </g>
     <g id="text_1">
      <!-- 1150 -->
      <g transform="translate(638.358742 975.798437) scale(0.1 -0.1)">
       <defs>
        <path id="DejaVuSans-31" d="M 794 531 
L 1825 531 
L 1825 4091 
L 703 3866 
L 703 4441 
L 1819 4666 
L 2450 4666 
L 2450 531 
L 3481 531 
L 3481 0 
L 794 0 
L 794 531 
z
" transform="scale(0.015625)"/>
        <path id="DejaVuSans-35" d="M 691 4666 
L 3169 4666 
L 3169 4134 
L 1269 4134 
L 1269 2991 
Q 1406 3038 1543 3061 
Q 1681 3084 1819 3084 
Q 2600 3084 3056 2656 
Q 3513 2228 3513 1497 
Q 3513 744 3044 326 
Q 2575 -91 1722 -91 
Q 1428 -91 1123 -41 
Q 819 9 494 109 
L 494 744 
Q 775 591 1075 516 
Q 1375 441 1709 441 
Q 2250 441 2565 725 
Q 2881 1009 2881 1497 
Q 2881 1984 2565 2268 
Q 2250 2553 1709 2553 
Q 1456 2553 1204 2497 
Q 953 2441 691 2322 
L 691 4666 
z
" transform="scale(0.015625)"/>
        <path id="DejaVuSans-30" d="M 2034 4250 
Q 1547 4250 1301 3770 
Q 1056 3291 1056 2328 
Q 1056 1369 1301 889 
Q 1547 409 2034 409 
Q 2525 409 2770 889 
Q 3016 1369 3016 2328 
Q 3016 3291 2770 3770 
Q 2525 4250 2034 4250 
z
M 2034 4750 
Q 2819 4750 3233 4129 
Q 3647 3509 3647 2328 
Q 3647 1150 3233 529 
Q 2819 -91 2034 -91 
Q 1250 -91 836 529 
Q 422 1150 422 2328 
Q 422 3509 836 4129 
Q 1250 4750 2034 4750 
z
" transform="scale(0.015625)"/>
       </defs>
       <use xlink:href="#DejaVuSans-31"/>
       <use xlink:href="#DejaVuSans-31" x="63.623047"/>
       <use xlink:href="#DejaVuSans-35" x="127.246094"/>
       <use xlink:href="#DejaVuSans-30" x="190.869141"/>
      </g>
     </g>
    </g>
    <g id="xtick_2">
     <g id="line2d_2">
      <g>
       <use xlink:href="#mf5bf323c27" x="681.393186" y="961.2" style="stroke: #000000; stroke-width: 0.8"/>
      </g>
     </g>
     <g id="text_2">
      <!-- 1200 -->
      <g transform="translate(668.668186 975.798437) scale(0.1 -0.1)">
       <defs>
        <path id="DejaVuSans-32" d="M 1228 531 
L 3431 531 
L 3431 0 
L 469 0 
L 469 531 
Q 828 903 1448 1529 
Q 2069 2156 2228 2338 
Q 2531 2678 2651 2914 
Q 2772 3150 2772 3378 
Q 2772 3750 2511 3984 
Q 2250 4219 1831 4219 
Q 1534 4219 1204 4116 
Q 875 4013 500 3803 
L 500 4441 
Q 881 4594 1212 4672 
Q 1544 4750 1819 4750 
Q 2544 4750 2975 4387 
Q 3406 4025 3406 3419 
Q 3406 3131 3298 2873 
Q 3191 2616 2906 2266 
Q 2828 2175 2409 1742 
Q 1991 1309 1228 531 
z
" transform="scale(0.015625)"/>
       </defs>
       <use xlink:href="#DejaVuSans-31"/>
       <use xlink:href="#DejaVuSans-32" x="63.623047"/>
       <use xlink:href="#DejaVuSans-30" x="127.246094"/>
       <use xlink:href="#DejaVuSans-30" x="190.869141"/>
      </g>
     </g>
    </g>
    <g id="xtick_3">
     <g id="line2d_3">
      <g>
       <use xlink:href="#mf5bf323c27" x="711.70263" y="961.2" style="stroke: #000000; stroke-width: 0.8"/>
      </g>
     </g>
     <g id="text_3">
      <!-- 1250 -->
      <g transform="translate(698.97763 975.798437) scale(0.1 -0.1)">
       <use xlink:href="#DejaVuSans-31"/>
       <use xlink:href="#DejaVuSans-32" x="63.623047"/>
       <use xlink:href="#DejaVuSans-35" x="127.246094"/>
       <use xlink:href="#DejaVuSans-30" x="190.869141"/>
      </g>
     </g>
    </g>
    <g id="xtick_4">
     <g id="line2d_4">
      <g>
       <use xlink:href="#mf5bf323c27" x="742.012074" y="961.2" style="stroke: #000000; stroke-width: 0.8"/>
      </g>
     </g>
     <g id="text_4">
      <!-- 1300 -->
      <g transform="translate(729.287074 975.798437) scale(0.1 -0.1)">
       <defs>
        <path id="DejaVuSans-33" d="M 2597 2516 
Q 3050 2419 3304 2112 
Q 3559 1806 3559 1356 
Q 3559 666 3084 287 
Q 2609 -91 1734 -91 
Q 1441 -91 1130 -33 
Q 819 25 488 141 
L 488 750 
Q 750 597 1062 519 
Q 1375 441 1716 441 
Q 2309 441 2620 675 
Q 2931 909 2931 1356 
Q 2931 1769 2642 2001 
Q 2353 2234 1838 2234 
L 1294 2234 
L 1294 2753 
L 1863 2753 
Q 2328 2753 2575 2939 
Q 2822 3125 2822 3475 
Q 2822 3834 2567 4026 
Q 2313 4219 1838 4219 
Q 1578 4219 1281 4162 
Q 984 4106 628 3988 
L 628 4550 
Q 988 4650 1302 4700 
Q 1616 4750 1894 4750 
Q 2613 4750 3031 4423 
Q 3450 4097 3450 3541 
Q 3450 3153 3228 2886 
Q 3006 2619 2597 2516 
z
" transform="scale(0.015625)"/>
       </defs>
       <use xlink:href="#DejaVuSans-31"/>
       <use xlink:href="#DejaVuSans-33" x="63.623047"/>
       <use xlink:href="#DejaVuSans-30" x="127.246094"/>
       <use xlink:href="#DejaVuSans-30" x="190.869141"/>
      </g>
     </g>
    </g>
    <g id="xtick_5">
     <g id="line2d_5">
      <g>
       <use xlink:href="#mf5bf323c27" x="772.321518" y="961.2" style="stroke: #000000; stroke-width: 0.8"/>
      </g>
     </g>
     <g id="text_5">
      <!-- 1350 -->
      <g transform="translate(759.596518 975.798437) scale(0.1 -0.1)">
       <use xlink:href="#DejaVuSans-31"/>
       <use xlink:href="#DejaVuSans-33" x="63.623047"/>
       <use xlink:href="#DejaVuSans-35" x="127.246094"/>
       <use xlink:href="#DejaVuSans-30" x="190.869141"/>
      </g>
     </g>
    </g>
    <g id="xtick_6">
     <g id="line2d_6">
      <g>
       <use xlink:href="#mf5bf323c27" x="802.630961" y="961.2" style="stroke: #000000; stroke-width: 0.8"/>
      </g>
     </g>
     <g id="text_6">
      <!-- 1400 -->
      <g transform="translate(789.905961 975.798437) scale(0.1 -0.1)">
       <defs>
        <path id="DejaVuSans-34" d="M 2419 4116 
L 825 1625 
L 2419 1625 
L 2419 4116 
z
M 2253 4666 
L 3047 4666 
L 3047 1625 
L 3713 1625 
L 3713 1100 
L 3047 1100 
L 3047 0 
L 2419 0 
L 2419 1100 
L 313 1100 
L 313 1709 
L 2253 4666 
z
" transform="scale(0.015625)"/>
       </defs>
       <use xlink:href="#DejaVuSans-31"/>
       <use xlink:href="#DejaVuSans-34" x="63.623047"/>
       <use xlink:href="#DejaVuSans-30" x="127.246094"/>
       <use xlink:href="#DejaVuSans-30" x="190.869141"/>
      </g>
     </g>
    </g>
   </g>
   <g id="matplotlib.axis_2">
    <g id="ytick_1">
     <g id="line2d_7">
      <defs>
       <path id="m7762abb89f" d="M 0 0 
L -3.5 0 
" style="stroke: #000000; stroke-width: 0.8"/>
      </defs>
      <g>
       <use xlink:href="#m7762abb89f" x="647.885185" y="917.880325" style="stroke: #000000; stroke-width: 0.8"/>
      </g>
     </g>
     <g id="text_7">
      <!-- 0 -->
      <g transform="translate(634.522685 921.679544) scale(0.1 -0.1)">
       <use xlink:href="#DejaVuSans-30"/>
      </g>
     </g>
    </g>
    <g id="ytick_2">
     <g id="line2d_8">
      <g>
       <use xlink:href="#m7762abb89f" x="647.885185" y="796.642549" style="stroke: #000000; stroke-width: 0.8"/>
      </g>
     </g>
     <g id="text_8">
      <!-- 200 -->
      <g transform="translate(621.797685 800.441768) scale(0.1 -0.1)">
       <use xlink:href="#DejaVuSans-32"/>
       <use xlink:href="#DejaVuSans-30" x="63.623047"/>
       <use xlink:href="#DejaVuSans-30" x="127.246094"/>
      </g>
     </g>
    </g>
    <g id="ytick_3">
     <g id="line2d_9">
      <g>
       <use xlink:href="#m7762abb89f" x="647.885185" y="675.404774" style="stroke: #000000; stroke-width: 0.8"/>
      </g>
     </g>
     <g id="text_9">
      <!-- 400 -->
      <g transform="translate(621.797685 679.203993) scale(0.1 -0.1)">
       <use xlink:href="#DejaVuSans-34"/>
       <use xlink:href="#DejaVuSans-30" x="63.623047"/>
       <use xlink:href="#DejaVuSans-30" x="127.246094"/>
      </g>
     </g>
    </g>
    <g id="ytick_4">
     <g id="line2d_10">
      <g>
       <use xlink:href="#m7762abb89f" x="647.885185" y="554.166998" style="stroke: #000000; stroke-width: 0.8"/>
      </g>
     </g>
     <g id="text_10">
      <!-- 600 -->
      <g transform="translate(621.797685 557.966217) scale(0.1 -0.1)">
       <defs>
        <path id="DejaVuSans-36" d="M 2113 2584 
Q 1688 2584 1439 2293 
Q 1191 2003 1191 1497 
Q 1191 994 1439 701 
Q 1688 409 2113 409 
Q 2538 409 2786 701 
Q 3034 994 3034 1497 
Q 3034 2003 2786 2293 
Q 2538 2584 2113 2584 
z
M 3366 4563 
L 3366 3988 
Q 3128 4100 2886 4159 
Q 2644 4219 2406 4219 
Q 1781 4219 1451 3797 
Q 1122 3375 1075 2522 
Q 1259 2794 1537 2939 
Q 1816 3084 2150 3084 
Q 2853 3084 3261 2657 
Q 3669 2231 3669 1497 
Q 3669 778 3244 343 
Q 2819 -91 2113 -91 
Q 1303 -91 875 529 
Q 447 1150 447 2328 
Q 447 3434 972 4092 
Q 1497 4750 2381 4750 
Q 2619 4750 2861 4703 
Q 3103 4656 3366 4563 
z
" transform="scale(0.015625)"/>
       </defs>
       <use xlink:href="#DejaVuSans-36"/>
       <use xlink:href="#DejaVuSans-30" x="63.623047"/>
       <use xlink:href="#DejaVuSans-30" x="127.246094"/>
      </g>
     </g>
    </g>
    <g id="ytick_5">
     <g id="line2d_11">
      <g>
       <use xlink:href="#m7762abb89f" x="647.885185" y="432.929223" style="stroke: #000000; stroke-width: 0.8"/>
      </g>
     </g>
     <g id="text_11">
      <!-- 800 -->
      <g transform="translate(621.797685 436.728442) scale(0.1 -0.1)">
       <defs>
        <path id="DejaVuSans-38" d="M 2034 2216 
Q 1584 2216 1326 1975 
Q 1069 1734 1069 1313 
Q 1069 891 1326 650 
Q 1584 409 2034 409 
Q 2484 409 2743 651 
Q 3003 894 3003 1313 
Q 3003 1734 2745 1975 
Q 2488 2216 2034 2216 
z
M 1403 2484 
Q 997 2584 770 2862 
Q 544 3141 544 3541 
Q 544 4100 942 4425 
Q 1341 4750 2034 4750 
Q 2731 4750 3128 4425 
Q 3525 4100 3525 3541 
Q 3525 3141 3298 2862 
Q 3072 2584 2669 2484 
Q 3125 2378 3379 2068 
Q 3634 1759 3634 1313 
Q 3634 634 3220 271 
Q 2806 -91 2034 -91 
Q 1263 -91 848 271 
Q 434 634 434 1313 
Q 434 1759 690 2068 
Q 947 2378 1403 2484 
z
M 1172 3481 
Q 1172 3119 1398 2916 
Q 1625 2713 2034 2713 
Q 2441 2713 2670 2916 
Q 2900 3119 2900 3481 
Q 2900 3844 2670 4047 
Q 2441 4250 2034 4250 
Q 1625 4250 1398 4047 
Q 1172 3844 1172 3481 
z
" transform="scale(0.015625)"/>
       </defs>
       <use xlink:href="#DejaVuSans-38"/>
       <use xlink:href="#DejaVuSans-30" x="63.623047"/>
       <use xlink:href="#DejaVuSans-30" x="127.246094"/>
      </g>
     </g>
    </g>
    <g id="ytick_6">
     <g id="line2d_12">
      <g>
       <use xlink:href="#m7762abb89f" x="647.885185" y="311.691447" style="stroke: #000000; stroke-width: 0.8"/>
      </g>
     </g>
     <g id="text_12">
      <!-- 1000 -->
      <g transform="translate(615.435185 315.490666) scale(0.1 -0.1)">
       <use xlink:href="#DejaVuSans-31"/>
       <use xlink:href="#DejaVuSans-30" x="63.623047"/>
       <use xlink:href="#DejaVuSans-30" x="127.246094"/>
       <use xlink:href="#DejaVuSans-30" x="190.869141"/>
      </g>
     </g>
    </g>
    <g id="ytick_7">
     <g id="line2d_13">
      <g>
       <use xlink:href="#m7762abb89f" x="647.885185" y="190.453672" style="stroke: #000000; stroke-width: 0.8"/>
      </g>
     </g>
     <g id="text_13">
      <!-- 1200 -->
      <g transform="translate(615.435185 194.252891) scale(0.1 -0.1)">
       <use xlink:href="#DejaVuSans-31"/>
       <use xlink:href="#DejaVuSans-32" x="63.623047"/>
       <use xlink:href="#DejaVuSans-30" x="127.246094"/>
       <use xlink:href="#DejaVuSans-30" x="190.869141"/>
      </g>
     </g>
    </g>
   </g>
   <g id="LineCollection_1">
    <path d="M 735.344008 167.436989 
L 735.356511 177.272082 
L 734.570857 186.380189 
L 733.072857 195.478884 
L 730.944245 204.568376 
L 728.266049 213.640844 
L 725.118816 222.684899 
L 721.581755 231.688551 
L 717.731624 240.640908 
L 713.641742 249.532967 
L 709.381287 258.357868 
L 700.602276 275.789033 
L 687.580474 301.439088 
L 683.47529 309.847057 
L 679.555376 318.186153 
L 675.854583 326.460147 
L 672.403302 334.672916 
L 669.228713 342.828152 
L 666.354987 350.929052 
L 663.803412 358.977988 
L 661.592434 366.976194 
L 659.737585 374.923504 
L 658.251327 382.818172 
L 657.142807 390.656844 
L 656.417594 398.434691 
L 656.077441 406.145732 
L 656.120159 413.783316 
L 656.539634 421.3407 
L 657.326034 428.811648 
L 658.466182 436.190964 
L 659.944056 443.474885 
L 661.741346 450.6613 
L 663.838014 457.74979 
L 666.212791 464.741524 
L 668.843586 471.639048 
L 671.707797 478.446013 
L 674.782524 485.166892 
L 678.044716 491.80671 
L 681.471247 498.370806 
L 685.038972 504.864641 
L 688.724754 511.293642 
L 696.358134 523.978036 
L 704.187515 536.463191 
L 719.743263 561.016335 
L 727.11346 573.124915 
L 730.623708 579.144512 
L 733.992538 585.14426 
L 737.202716 591.126563 
L 740.238306 597.093909 
L 743.084813 603.049023 
L 745.729297 608.995034 
L 748.160461 614.935657 
L 750.368697 620.875391 
L 752.346073 626.819698 
L 754.086274 632.775152 
L 755.584486 638.749523 
L 756.83725 644.751776 
L 757.842313 650.791968 
L 758.598506 656.881038 
L 759.105692 663.030502 
L 759.364817 669.252091 
L 759.378073 675.557379 
L 759.149175 681.957443 
L 758.683738 688.462602 
L 757.989709 695.082263 
L 757.07783 701.824886 
L 755.962106 708.698051 
L 754.660233 715.708627 
L 751.589734 730.167341 
L 744.4754 761.114225 
L 742.752099 769.323537 
L 741.168823 777.735387 
L 739.798324 786.36106 
L 738.723366 795.211377 
L 738.03776 804.29497 
L 737.846922 813.615661 
L 738.267352 823.169011 
L 739.424327 832.938675 
L 741.447459 842.893943 
L 744.464783 852.990311 
L 748.597458 863.174399 
L 753.957844 873.392563 
L 760.652652 883.600242 
L 768.790214 893.768324 
L 778.488848 903.884539 
L 789.883319 913.950524 
L 802.312653 923.4 
L 802.312653 923.4 
" clip-path="url(#p6afef96342)" style="fill: none; stroke: #1f77b4; stroke-width: 1.5"/>
    <path d="M 749.892529 167.418495 
L 749.90584 177.889158 
L 749.017324 188.189745 
L 747.349091 198.322422 
L 745.014952 208.289544 
L 742.120779 218.093641 
L 738.764853 227.737405 
L 735.038198 237.223674 
L 731.024901 246.555425 
L 726.80243 255.735755 
L 722.441933 264.767878 
L 718.008531 273.655107 
L 713.561601 282.400848 
L 709.155046 291.00859 
L 704.83756 299.481896 
L 700.652877 307.824392 
L 696.640022 316.039765 
L 692.833543 324.131748 
L 689.263737 332.104118 
L 685.956872 339.960689 
L 682.935398 347.705304 
L 680.218146 355.341832 
L 677.820533 362.874158 
L 675.754742 370.306184 
L 674.029911 377.641821 
L 672.652303 384.884986 
L 671.62548 392.039596 
L 670.950465 399.109568 
L 670.625899 406.098814 
L 670.648191 413.011237 
L 671.01167 419.850733 
L 671.708721 426.621181 
L 672.729925 433.326449 
L 674.064194 439.970387 
L 675.698893 446.556828 
L 677.61997 453.089585 
L 679.812074 459.572451 
L 682.258675 466.009198 
L 684.942174 472.403575 
L 687.84402 478.759308 
L 690.944815 485.080101 
L 694.224419 491.369633 
L 697.662059 497.631558 
L 701.236431 503.869508 
L 704.925797 510.087089 
L 708.708087 516.287881 
L 712.561001 522.475443 
L 716.462102 528.653305 
L 720.388917 534.824974 
L 724.319034 540.993934 
L 728.230197 547.163641 
L 732.100407 553.337528 
L 735.908019 559.519002 
L 739.631842 565.711444 
L 743.251236 571.918212 
L 746.74622 578.142635 
L 750.097569 584.388017 
L 753.286925 590.657633 
L 756.296898 596.954733 
L 759.111184 603.282536 
L 761.71467 609.644232 
L 764.093554 616.042977 
L 766.235464 622.481899 
L 768.129578 628.964086 
L 769.766752 635.492594 
L 771.139651 642.070437 
L 772.242881 648.70059 
L 773.07313 655.385983 
L 773.629311 662.129498 
L 773.912713 668.933968 
L 773.927152 675.802171 
L 773.679136 682.736826 
L 773.178024 689.740593 
L 772.436206 696.816059 
L 771.469276 703.965743 
L 770.29622 711.192084 
L 768.939608 718.497436 
L 767.42579 725.884064 
L 765.78511 733.354134 
L 764.052114 740.909709 
L 762.265776 748.552737 
L 760.469729 756.285047 
L 758.712503 764.108337 
L 757.047777 772.024166 
L 755.534632 780.033943 
L 754.23782 788.13892 
L 753.228042 796.340174 
L 752.582234 804.638604 
L 752.383859 813.034912 
L 752.72322 821.529593 
L 753.697776 830.12292 
L 755.412469 838.814934 
L 757.980063 847.605422 
L 761.5215 856.493909 
L 766.166259 865.479636 
L 772.052731 874.561546 
L 779.32861 883.738268 
L 788.151288 893.008093 
L 798.688271 902.368961 
L 811.117606 911.818436 
" clip-path="url(#p6afef96342)" style="fill: none; stroke: #8c564b; stroke-width: 1.5"/>
    <path d="M 764.44105 167.4 
L 764.400548 179.139453 
L 763.372601 190.553183 
L 761.514381 201.639705 
L 758.968216 212.408552 
L 755.861126 222.875133 
L 752.305967 233.056995 
L 748.403152 242.971527 
L 744.242367 252.634767 
L 739.904043 262.060907 
L 735.460515 271.262209 
L 726.511823 289.030445 
L 713.69155 314.278749 
L 709.759297 322.329109 
L 706.056148 330.201429 
L 702.609102 337.899641 
L 699.440587 345.427515 
L 696.568618 352.78892 
L 694.006979 359.988115 
L 691.765459 367.030059 
L 689.850145 373.920723 
L 688.263802 380.667373 
L 687.006349 387.278785 
L 686.075405 393.765346 
L 685.466872 400.138995 
L 685.175521 406.412987 
L 685.195478 412.601484 
L 685.520589 418.719017 
L 686.144585 424.779879 
L 687.06107 430.797558 
L 688.26335 436.784261 
L 689.744146 442.750605 
L 691.495288 448.705487 
L 693.507422 454.656115 
L 695.76979 460.608165 
L 698.270101 466.566032 
L 700.994492 472.533097 
L 703.927572 478.512013 
L 707.052523 484.504956 
L 710.351249 490.513836 
L 717.392251 502.586744 
L 724.886729 514.746384 
L 748.375854 552.021475 
L 755.936824 564.795315 
L 759.565665 571.263561 
L 763.064733 577.791617 
L 766.41302 584.383444 
L 769.590012 591.042631 
L 772.575812 597.772218 
L 775.351296 604.574495 
L 777.89833 611.450813 
L 780.200041 618.401409 
L 782.241157 625.425281 
L 784.008393 632.52014 
L 785.490866 639.682455 
L 786.680506 646.907603 
L 787.572432 654.190132 
L 788.165242 661.524086 
L 788.461214 668.903382 
L 788.46639 676.322164 
L 788.190572 683.775104 
L 787.64725 691.2576 
L 786.853489 698.765866 
L 785.82983 706.2969 
L 784.600208 713.848351 
L 783.191917 721.418308 
L 779.994946 736.475094 
L 776.434786 751.854111 
L 772.929149 767.199724 
L 771.315677 774.871838 
L 769.868195 782.534028 
L 768.645178 790.177794 
L 767.707406 797.794234 
L 767.11742 805.375358 
L 766.939256 812.916235 
L 767.238952 820.418029 
L 768.086518 827.8916 
L 769.559954 835.360653 
L 771.751236 842.862787 
L 774.772905 850.446733 
L 778.762706 858.165381 
L 783.883819 866.066462 
L 790.320246 874.184423 
L 798.269437 882.536491 
L 807.935429 891.123586 
L 819.922559 900.236872 
L 819.922559 900.236872 
" clip-path="url(#p6afef96342)" style="fill: none; stroke: #17becf; stroke-width: 1.5"/>
   </g>
   <g id="patch_3">
    <path d="M 647.885185 961.2 
L 647.885185 129.6 
" style="fill: none; stroke: #000000; stroke-width: 0.8; stroke-linejoin: miter; stroke-linecap: square"/>
   </g>
   <g id="patch_4">
    <path d="M 828.114815 961.2 
L 828.114815 129.6 
" style="fill: none; stroke: #000000; stroke-width: 0.8; stroke-linejoin: miter; stroke-linecap: square"/>
   </g>
   <g id="patch_5">
    <path d="M 647.885185 961.2 
L 828.114815 961.2 
" style="fill: none; stroke: #000000; stroke-width: 0.8; stroke-linejoin: miter; stroke-linecap: square"/>
   </g>
   <g id="patch_6">
    <path d="M 647.885185 129.6 
L 828.114815 129.6 
" style="fill: none; stroke: #000000; stroke-width: 0.8; stroke-linejoin: miter; stroke-linecap: square"/>
   </g>
  </g>
 </g>
 <defs>
  <clipPath id="p6afef96342">
   <rect x="647.885185" y="129.6" width="180.229629" height="831.6"/>
  </clipPath>
 </defs>
</svg>
