<?xml version="1.0" encoding="utf-8" standalone="no"?>
<!DOCTYPE svg PUBLIC "-//W3C//DTD SVG 1.1//EN"
  "http://www.w3.org/Graphics/SVG/1.1/DTD/svg11.dtd">
<svg xmlns:xlink="http://www.w3.org/1999/xlink" width="1440pt" height="1080pt" viewBox="0 0 1440 1080" xmlns="http://www.w3.org/2000/svg" version="1.1">
 <metadata>
  <rdf:RDF xmlns:dc="http://purl.org/dc/elements/1.1/" xmlns:cc="http://creativecommons.org/ns#" xmlns:rdf="http://www.w3.org/1999/02/22-rdf-syntax-ns#">
   <cc:Work>
    <dc:type rdf:resource="http://purl.org/dc/dcmitype/StillImage"/>
    <dc:date>2023-12-11T12:06:34.365492</dc:date>
    <dc:format>image/svg+xml</dc:format>
    <dc:creator>
     <cc:Agent>
      <dc:title>Matplotlib v3.7.1, https://matplotlib.org/</dc:title>
     </cc:Agent>
    </dc:creator>
   </cc:Work>
  </rdf:RDF>
 </metadata>
 <defs>
  <style type="text/css">*{stroke-linejoin: round; stroke-linecap: butt}</style>
 </defs>
 <g id="figure_1">
  <g id="patch_1">
   <path d="M 0 1080 
L 1440 1080 
L 1440 0 
L 0 0 
z
" style="fill: #ffffff"/>
  </g>
  <g id="axes_1">
   <g id="patch_2">
    <path d="M 180 794.812219 
L 1296 794.812219 
L 1296 295.987781 
L 180 295.987781 
z
" style="fill: #ffffff"/>
   </g>
   <g id="matplotlib.axis_1">
    <g id="xtick_1">
     <g id="line2d_1">
      <defs>
       <path id="m61a854a722" d="M 0 0 
L 0 3.5 
" style="stroke: #000000; stroke-width: 0.8"/>
      </defs>
      <g>
       <use xlink:href="#m61a854a722" x="412.084777" y="794.812219" style="stroke: #000000; stroke-width: 0.8"/>
      </g>
     </g>
     <g id="text_1">
      <!-- 400 -->
      <g transform="translate(402.541027 809.410656) scale(0.1 -0.1)">
       <defs>
        <path id="DejaVuSans-34" d="M 2419 4116 
L 825 1625 
L 2419 1625 
L 2419 4116 
z
M 2253 4666 
L 3047 4666 
L 3047 1625 
L 3713 1625 
L 3713 1100 
L 3047 1100 
L 3047 0 
L 2419 0 
L 2419 1100 
L 313 1100 
L 313 1709 
L 2253 4666 
z
" transform="scale(0.015625)"/>
        <path id="DejaVuSans-30" d="M 2034 4250 
Q 1547 4250 1301 3770 
Q 1056 3291 1056 2328 
Q 1056 1369 1301 889 
Q 1547 409 2034 409 
Q 2525 409 2770 889 
Q 3016 1369 3016 2328 
Q 3016 3291 2770 3770 
Q 2525 4250 2034 4250 
z
M 2034 4750 
Q 2819 4750 3233 4129 
Q 3647 3509 3647 2328 
Q 3647 1150 3233 529 
Q 2819 -91 2034 -91 
Q 1250 -91 836 529 
Q 422 1150 422 2328 
Q 422 3509 836 4129 
Q 1250 4750 2034 4750 
z
" transform="scale(0.015625)"/>
       </defs>
       <use xlink:href="#DejaVuSans-34"/>
       <use xlink:href="#DejaVuSans-30" x="63.623047"/>
       <use xlink:href="#DejaVuSans-30" x="127.246094"/>
      </g>
     </g>
    </g>
    <g id="xtick_2">
     <g id="line2d_2">
      <g>
       <use xlink:href="#m61a854a722" x="648.554278" y="794.812219" style="stroke: #000000; stroke-width: 0.8"/>
      </g>
     </g>
     <g id="text_2">
      <!-- 600 -->
      <g transform="translate(639.010528 809.410656) scale(0.1 -0.1)">
       <defs>
        <path id="DejaVuSans-36" d="M 2113 2584 
Q 1688 2584 1439 2293 
Q 1191 2003 1191 1497 
Q 1191 994 1439 701 
Q 1688 409 2113 409 
Q 2538 409 2786 701 
Q 3034 994 3034 1497 
Q 3034 2003 2786 2293 
Q 2538 2584 2113 2584 
z
M 3366 4563 
L 3366 3988 
Q 3128 4100 2886 4159 
Q 2644 4219 2406 4219 
Q 1781 4219 1451 3797 
Q 1122 3375 1075 2522 
Q 1259 2794 1537 2939 
Q 1816 3084 2150 3084 
Q 2853 3084 3261 2657 
Q 3669 2231 3669 1497 
Q 3669 778 3244 343 
Q 2819 -91 2113 -91 
Q 1303 -91 875 529 
Q 447 1150 447 2328 
Q 447 3434 972 4092 
Q 1497 4750 2381 4750 
Q 2619 4750 2861 4703 
Q 3103 4656 3366 4563 
z
" transform="scale(0.015625)"/>
       </defs>
       <use xlink:href="#DejaVuSans-36"/>
       <use xlink:href="#DejaVuSans-30" x="63.623047"/>
       <use xlink:href="#DejaVuSans-30" x="127.246094"/>
      </g>
     </g>
    </g>
    <g id="xtick_3">
     <g id="line2d_3">
      <g>
       <use xlink:href="#m61a854a722" x="885.023779" y="794.812219" style="stroke: #000000; stroke-width: 0.8"/>
      </g>
     </g>
     <g id="text_3">
      <!-- 800 -->
      <g transform="translate(875.480029 809.410656) scale(0.1 -0.1)">
       <defs>
        <path id="DejaVuSans-38" d="M 2034 2216 
Q 1584 2216 1326 1975 
Q 1069 1734 1069 1313 
Q 1069 891 1326 650 
Q 1584 409 2034 409 
Q 2484 409 2743 651 
Q 3003 894 3003 1313 
Q 3003 1734 2745 1975 
Q 2488 2216 2034 2216 
z
M 1403 2484 
Q 997 2584 770 2862 
Q 544 3141 544 3541 
Q 544 4100 942 4425 
Q 1341 4750 2034 4750 
Q 2731 4750 3128 4425 
Q 3525 4100 3525 3541 
Q 3525 3141 3298 2862 
Q 3072 2584 2669 2484 
Q 3125 2378 3379 2068 
Q 3634 1759 3634 1313 
Q 3634 634 3220 271 
Q 2806 -91 2034 -91 
Q 1263 -91 848 271 
Q 434 634 434 1313 
Q 434 1759 690 2068 
Q 947 2378 1403 2484 
z
M 1172 3481 
Q 1172 3119 1398 2916 
Q 1625 2713 2034 2713 
Q 2441 2713 2670 2916 
Q 2900 3119 2900 3481 
Q 2900 3844 2670 4047 
Q 2441 4250 2034 4250 
Q 1625 4250 1398 4047 
Q 1172 3844 1172 3481 
z
" transform="scale(0.015625)"/>
       </defs>
       <use xlink:href="#DejaVuSans-38"/>
       <use xlink:href="#DejaVuSans-30" x="63.623047"/>
       <use xlink:href="#DejaVuSans-30" x="127.246094"/>
      </g>
     </g>
    </g>
    <g id="xtick_4">
     <g id="line2d_4">
      <g>
       <use xlink:href="#m61a854a722" x="1121.49328" y="794.812219" style="stroke: #000000; stroke-width: 0.8"/>
      </g>
     </g>
     <g id="text_4">
      <!-- 1000 -->
      <g transform="translate(1108.76828 809.410656) scale(0.1 -0.1)">
       <defs>
        <path id="DejaVuSans-31" d="M 794 531 
L 1825 531 
L 1825 4091 
L 703 3866 
L 703 4441 
L 1819 4666 
L 2450 4666 
L 2450 531 
L 3481 531 
L 3481 0 
L 794 0 
L 794 531 
z
" transform="scale(0.015625)"/>
       </defs>
       <use xlink:href="#DejaVuSans-31"/>
       <use xlink:href="#DejaVuSans-30" x="63.623047"/>
       <use xlink:href="#DejaVuSans-30" x="127.246094"/>
       <use xlink:href="#DejaVuSans-30" x="190.869141"/>
      </g>
     </g>
    </g>
   </g>
   <g id="matplotlib.axis_2">
    <g id="ytick_1">
     <g id="line2d_5">
      <defs>
       <path id="m92be65634e" d="M 0 0 
L -3.5 0 
" style="stroke: #000000; stroke-width: 0.8"/>
      </defs>
      <g>
       <use xlink:href="#m92be65634e" x="180" y="777.494788" style="stroke: #000000; stroke-width: 0.8"/>
      </g>
     </g>
     <g id="text_5">
      <!-- 1000 -->
      <g transform="translate(147.55 781.294007) scale(0.1 -0.1)">
       <use xlink:href="#DejaVuSans-31"/>
       <use xlink:href="#DejaVuSans-30" x="63.623047"/>
       <use xlink:href="#DejaVuSans-30" x="127.246094"/>
       <use xlink:href="#DejaVuSans-30" x="190.869141"/>
      </g>
     </g>
    </g>
    <g id="ytick_2">
     <g id="line2d_6">
      <g>
       <use xlink:href="#m92be65634e" x="180" y="718.377413" style="stroke: #000000; stroke-width: 0.8"/>
      </g>
     </g>
     <g id="text_6">
      <!-- 1050 -->
      <g transform="translate(147.55 722.176632) scale(0.1 -0.1)">
       <defs>
        <path id="DejaVuSans-35" d="M 691 4666 
L 3169 4666 
L 3169 4134 
L 1269 4134 
L 1269 2991 
Q 1406 3038 1543 3061 
Q 1681 3084 1819 3084 
Q 2600 3084 3056 2656 
Q 3513 2228 3513 1497 
Q 3513 744 3044 326 
Q 2575 -91 1722 -91 
Q 1428 -91 1123 -41 
Q 819 9 494 109 
L 494 744 
Q 775 591 1075 516 
Q 1375 441 1709 441 
Q 2250 441 2565 725 
Q 2881 1009 2881 1497 
Q 2881 1984 2565 2268 
Q 2250 2553 1709 2553 
Q 1456 2553 1204 2497 
Q 953 2441 691 2322 
L 691 4666 
z
" transform="scale(0.015625)"/>
       </defs>
       <use xlink:href="#DejaVuSans-31"/>
       <use xlink:href="#DejaVuSans-30" x="63.623047"/>
       <use xlink:href="#DejaVuSans-35" x="127.246094"/>
       <use xlink:href="#DejaVuSans-30" x="190.869141"/>
      </g>
     </g>
    </g>
    <g id="ytick_3">
     <g id="line2d_7">
      <g>
       <use xlink:href="#m92be65634e" x="180" y="659.260038" style="stroke: #000000; stroke-width: 0.8"/>
      </g>
     </g>
     <g id="text_7">
      <!-- 1100 -->
      <g transform="translate(147.55 663.059257) scale(0.1 -0.1)">
       <use xlink:href="#DejaVuSans-31"/>
       <use xlink:href="#DejaVuSans-31" x="63.623047"/>
       <use xlink:href="#DejaVuSans-30" x="127.246094"/>
       <use xlink:href="#DejaVuSans-30" x="190.869141"/>
      </g>
     </g>
    </g>
    <g id="ytick_4">
     <g id="line2d_8">
      <g>
       <use xlink:href="#m92be65634e" x="180" y="600.142663" style="stroke: #000000; stroke-width: 0.8"/>
      </g>
     </g>
     <g id="text_8">
      <!-- 1150 -->
      <g transform="translate(147.55 603.941881) scale(0.1 -0.1)">
       <use xlink:href="#DejaVuSans-31"/>
       <use xlink:href="#DejaVuSans-31" x="63.623047"/>
       <use xlink:href="#DejaVuSans-35" x="127.246094"/>
       <use xlink:href="#DejaVuSans-30" x="190.869141"/>
      </g>
     </g>
    </g>
    <g id="ytick_5">
     <g id="line2d_9">
      <g>
       <use xlink:href="#m92be65634e" x="180" y="541.025287" style="stroke: #000000; stroke-width: 0.8"/>
      </g>
     </g>
     <g id="text_9">
      <!-- 1200 -->
      <g transform="translate(147.55 544.824506) scale(0.1 -0.1)">
       <defs>
        <path id="DejaVuSans-32" d="M 1228 531 
L 3431 531 
L 3431 0 
L 469 0 
L 469 531 
Q 828 903 1448 1529 
Q 2069 2156 2228 2338 
Q 2531 2678 2651 2914 
Q 2772 3150 2772 3378 
Q 2772 3750 2511 3984 
Q 2250 4219 1831 4219 
Q 1534 4219 1204 4116 
Q 875 4013 500 3803 
L 500 4441 
Q 881 4594 1212 4672 
Q 1544 4750 1819 4750 
Q 2544 4750 2975 4387 
Q 3406 4025 3406 3419 
Q 3406 3131 3298 2873 
Q 3191 2616 2906 2266 
Q 2828 2175 2409 1742 
Q 1991 1309 1228 531 
z
" transform="scale(0.015625)"/>
       </defs>
       <use xlink:href="#DejaVuSans-31"/>
       <use xlink:href="#DejaVuSans-32" x="63.623047"/>
       <use xlink:href="#DejaVuSans-30" x="127.246094"/>
       <use xlink:href="#DejaVuSans-30" x="190.869141"/>
      </g>
     </g>
    </g>
    <g id="ytick_6">
     <g id="line2d_10">
      <g>
       <use xlink:href="#m92be65634e" x="180" y="481.907912" style="stroke: #000000; stroke-width: 0.8"/>
      </g>
     </g>
     <g id="text_10">
      <!-- 1250 -->
      <g transform="translate(147.55 485.707131) scale(0.1 -0.1)">
       <use xlink:href="#DejaVuSans-31"/>
       <use xlink:href="#DejaVuSans-32" x="63.623047"/>
       <use xlink:href="#DejaVuSans-35" x="127.246094"/>
       <use xlink:href="#DejaVuSans-30" x="190.869141"/>
      </g>
     </g>
    </g>
    <g id="ytick_7">
     <g id="line2d_11">
      <g>
       <use xlink:href="#m92be65634e" x="180" y="422.790537" style="stroke: #000000; stroke-width: 0.8"/>
      </g>
     </g>
     <g id="text_11">
      <!-- 1300 -->
      <g transform="translate(147.55 426.589756) scale(0.1 -0.1)">
       <defs>
        <path id="DejaVuSans-33" d="M 2597 2516 
Q 3050 2419 3304 2112 
Q 3559 1806 3559 1356 
Q 3559 666 3084 287 
Q 2609 -91 1734 -91 
Q 1441 -91 1130 -33 
Q 819 25 488 141 
L 488 750 
Q 750 597 1062 519 
Q 1375 441 1716 441 
Q 2309 441 2620 675 
Q 2931 909 2931 1356 
Q 2931 1769 2642 2001 
Q 2353 2234 1838 2234 
L 1294 2234 
L 1294 2753 
L 1863 2753 
Q 2328 2753 2575 2939 
Q 2822 3125 2822 3475 
Q 2822 3834 2567 4026 
Q 2313 4219 1838 4219 
Q 1578 4219 1281 4162 
Q 984 4106 628 3988 
L 628 4550 
Q 988 4650 1302 4700 
Q 1616 4750 1894 4750 
Q 2613 4750 3031 4423 
Q 3450 4097 3450 3541 
Q 3450 3153 3228 2886 
Q 3006 2619 2597 2516 
z
" transform="scale(0.015625)"/>
       </defs>
       <use xlink:href="#DejaVuSans-31"/>
       <use xlink:href="#DejaVuSans-33" x="63.623047"/>
       <use xlink:href="#DejaVuSans-30" x="127.246094"/>
       <use xlink:href="#DejaVuSans-30" x="190.869141"/>
      </g>
     </g>
    </g>
    <g id="ytick_8">
     <g id="line2d_12">
      <g>
       <use xlink:href="#m92be65634e" x="180" y="363.673162" style="stroke: #000000; stroke-width: 0.8"/>
      </g>
     </g>
     <g id="text_12">
      <!-- 1350 -->
      <g transform="translate(147.55 367.47238) scale(0.1 -0.1)">
       <use xlink:href="#DejaVuSans-31"/>
       <use xlink:href="#DejaVuSans-33" x="63.623047"/>
       <use xlink:href="#DejaVuSans-35" x="127.246094"/>
       <use xlink:href="#DejaVuSans-30" x="190.869141"/>
      </g>
     </g>
    </g>
    <g id="ytick_9">
     <g id="line2d_13">
      <g>
       <use xlink:href="#m92be65634e" x="180" y="304.555786" style="stroke: #000000; stroke-width: 0.8"/>
      </g>
     </g>
     <g id="text_13">
      <!-- 1400 -->
      <g transform="translate(147.55 308.355005) scale(0.1 -0.1)">
       <use xlink:href="#DejaVuSans-31"/>
       <use xlink:href="#DejaVuSans-34" x="63.623047"/>
       <use xlink:href="#DejaVuSans-30" x="127.246094"/>
       <use xlink:href="#DejaVuSans-30" x="190.869141"/>
      </g>
     </g>
    </g>
   </g>
   <g id="LineCollection_1">
    <path d="M 1245.272727 723.733821 
L 1231.196338 720.508946 
L 1218.575504 716.778978 
L 1206.62568 712.403304 
L 1195.283999 707.4046 
L 1184.489294 701.803244 
L 1174.18462 695.618356 
L 1164.318905 688.869471 
L 1154.847537 681.578359 
L 1145.732007 673.770546 
L 1136.938895 665.476242 
L 1128.438569 656.730633 
L 1120.203881 647.573607 
L 1112.209072 638.0491 
L 1104.428939 628.204233 
L 1096.838291 618.088392 
L 1089.411625 607.752342 
L 1082.122989 597.247434 
L 1067.853641 575.93542 
L 1046.763317 543.880474 
L 1039.707636 533.363543 
L 1032.596897 523.011052 
L 1025.402698 512.863819 
L 1018.09679 502.960967 
L 1010.651228 493.340144 
L 1003.03862 484.037842 
L 995.232496 475.089771 
L 987.207865 466.531265 
L 978.941965 458.39764 
L 970.415232 450.724406 
L 961.612426 443.547208 
L 952.523809 436.901361 
L 943.146151 430.820907 
L 933.483345 425.33719 
L 923.546358 420.477106 
L 913.352395 416.261311 
L 902.923306 412.702738 
L 892.283486 409.805752 
L 881.457654 407.566107 
L 870.468905 405.971656 
L 859.337348 405.003627 
L 848.079435 404.638131 
L 836.707927 404.847645 
L 825.232345 405.602255 
L 813.659676 406.870581 
L 801.99518 408.620377 
L 790.243155 410.818859 
L 778.407591 413.43284 
L 766.492679 416.428737 
L 754.503188 419.772512 
L 742.44471 423.429591 
L 730.323811 427.364789 
L 718.148111 431.542248 
L 705.926301 435.925407 
L 693.668128 440.476999 
L 669.08673 449.933062 
L 619.951996 469.18633 
L 607.760771 473.836105 
L 595.64178 478.338348 
L 583.611565 482.653181 
L 571.68718 486.741253 
L 559.886116 490.563994 
L 548.226195 494.0839 
L 536.72542 497.264851 
L 525.401751 500.072467 
L 514.272783 502.474477 
L 503.355282 504.441097 
L 492.664551 505.945358 
L 482.213595 506.963328 
L 472.01208 507.474133 
L 462.065156 507.459656 
L 452.37224 506.903808 
L 442.926007 505.791289 
L 433.711861 504.105877 
L 424.708219 501.828436 
L 415.887784 498.935001 
L 407.219819 495.395425 
L 398.673065 491.173015 
L 390.218758 486.225353 
L 381.833075 480.506178 
L 373.49857 473.967873 
L 365.204424 466.563996 
L 356.945697 458.251356 
L 348.72193 448.991366 
L 340.535523 438.750625 
L 332.390196 427.500858 
L 324.289724 415.218427 
L 316.237012 401.883603 
L 308.233498 387.479759 
L 300.278833 371.992589 
L 292.370749 355.409386 
L 284.505083 337.718425 
L 276.573149 318.661619 
L 276.573149 318.661619 
" clip-path="url(#pdf922257e7)" style="fill: none; stroke: #1f77b4; stroke-width: 1.5"/>
    <path d="M 1239.72803 747.936101 
L 1224.899326 744.538872 
L 1210.780326 740.366135 
L 1197.340562 735.444889 
L 1184.548319 729.806868 
L 1172.370841 723.487994 
L 1160.774528 716.527861 
L 1149.725125 708.969245 
L 1139.187898 700.857629 
L 1129.127806 692.24076 
L 1119.509656 683.16822 
L 1110.298259 673.691022 
L 1101.458571 663.861232 
L 1092.955824 653.7316 
L 1084.755655 643.355226 
L 1076.824224 632.785233 
L 1069.12832 622.074471 
L 1061.635466 611.275229 
L 1054.31401 600.438974 
L 1047.133216 589.616104 
L 1040.06334 578.855723 
L 1033.075703 568.205427 
L 1026.142758 557.711114 
L 1019.238148 547.416801 
L 1012.336755 537.364472 
L 1005.414752 527.593925 
L 998.449638 518.142647 
L 991.420272 509.045695 
L 984.306903 500.335597 
L 977.09119 492.042265 
L 969.756219 484.192921 
L 962.286515 476.812037 
L 954.668046 469.921285 
L 946.888227 463.539506 
L 938.935914 457.682678 
L 930.801397 452.363913 
L 922.476386 447.593445 
L 913.953994 443.378647 
L 905.228718 439.724045 
L 896.29641 436.631345 
L 887.154252 434.099475 
L 877.800721 432.124626 
L 868.235556 430.700307 
L 858.459713 429.817409 
L 848.47533 429.464272 
L 838.285678 429.626764 
L 827.895115 430.288358 
L 817.309033 431.430227 
L 806.533808 433.031335 
L 795.576746 435.068536 
L 784.446022 437.516681 
L 773.150628 440.348724 
L 761.700306 443.535835 
L 750.10549 447.047518 
L 738.377243 450.851727 
L 726.527191 454.914989 
L 714.567461 459.202528 
L 702.510611 463.678389 
L 690.369568 468.305568 
L 678.157558 473.046134 
L 665.888038 477.861361 
L 653.574634 482.711857 
L 641.231068 487.557686 
L 628.871096 492.358499 
L 616.508437 497.07366 
L 604.156712 501.662364 
L 591.829374 506.083765 
L 579.53965 510.297087 
L 567.300472 514.261747 
L 555.124421 517.937463 
L 543.023664 521.284361 
L 531.009895 524.263081 
L 519.094282 526.834876 
L 507.287408 528.961703 
L 495.599224 530.606313 
L 484.038995 531.732331 
L 472.615254 532.304335 
L 461.335759 532.287919 
L 450.20745 531.649757 
L 439.23641 530.357655 
L 428.427829 528.380596 
L 417.785977 525.688776 
L 407.31417 522.253628 
L 397.014747 518.047845 
L 386.889053 513.045379 
L 376.937417 507.221445 
L 367.159146 500.552501 
L 357.552511 493.016229 
L 348.11475 484.591487 
L 338.842066 475.258272 
L 329.729636 464.997645 
L 320.771623 453.791667 
L 311.96119 441.623302 
L 303.290529 428.476316 
L 294.750886 414.335162 
L 286.332594 399.184846 
L 278.025119 383.010779 
L 269.817101 365.798616 
L 261.696411 347.534073 
L 253.650211 328.202737 
" clip-path="url(#pdf922257e7)" style="fill: none; stroke: #8c564b; stroke-width: 1.5"/>
    <path d="M 1234.183333 772.138381 
L 1217.862156 768.350052 
L 1202.242922 763.681511 
L 1187.326809 758.165337 
L 1173.112369 751.845767 
L 1159.593107 744.777041 
L 1146.75572 737.020958 
L 1134.579331 728.644075 
L 1123.035763 719.715056 
L 1112.090613 710.302545 
L 1101.704786 700.473728 
L 1091.836137 690.293554 
L 1082.440977 679.824476 
L 1073.475311 669.126523 
L 1064.895768 658.257538 
L 1056.660262 647.273457 
L 1048.728424 636.228562 
L 1041.061885 625.175654 
L 1026.443644 603.343291 
L 998.692521 561.359159 
L 991.970834 551.568583 
L 985.288945 542.136962 
L 978.629516 533.100482 
L 971.977688 524.492114 
L 965.320947 516.341143 
L 958.648866 508.672631 
L 951.952678 501.506866 
L 945.22466 494.858849 
L 938.45728 488.73789 
L 931.642153 483.147446 
L 924.768873 478.08532 
L 917.823888 473.544331 
L 910.789637 469.513506 
L 903.644226 465.979702 
L 896.361809 462.929444 
L 888.913767 460.350653 
L 881.270517 458.233897 
L 873.403648 456.572933 
L 865.287957 455.364451 
L 856.903055 454.607174 
L 848.234301 454.30057 
L 839.273061 454.443473 
L 830.016395 455.032869 
L 820.466362 456.062984 
L 810.62915 457.524711 
L 800.514173 459.405347 
L 790.133243 461.688579 
L 779.499876 464.354634 
L 768.628725 467.380538 
L 757.535151 470.740411 
L 746.234895 474.405796 
L 734.743844 478.34596 
L 723.07785 482.528195 
L 699.283499 491.479728 
L 674.973534 500.968677 
L 637.719347 515.55769 
L 625.155189 520.348705 
L 612.539277 525.033856 
L 599.881611 529.571112 
L 587.191218 533.918 
L 574.476122 538.031561 
L 561.743346 541.868277 
L 548.998967 545.383941 
L 536.248278 548.533503 
L 523.496053 551.270883 
L 510.746985 553.5488 
L 498.006318 555.318656 
L 485.280679 556.530562 
L 472.579118 557.133606 
L 459.914238 557.076491 
L 447.30328 556.308626 
L 434.768865 554.781722 
L 422.339107 552.451772 
L 410.046797 549.281128 
L 397.927546 545.240262 
L 386.017071 540.308688 
L 374.348075 534.474749 
L 362.947382 527.734195 
L 351.833908 520.087883 
L 341.017807 511.539122 
L 330.500759 502.09124 
L 320.277118 491.745743 
L 310.335499 480.50124 
L 300.660432 468.353055 
L 291.233823 455.293352 
L 282.036107 441.311562 
L 273.047056 426.394921 
L 264.24631 410.52901 
L 255.613669 393.698198 
L 247.129238 375.88598 
L 238.773473 357.075191 
L 230.727273 337.743854 
L 230.727273 337.743854 
" clip-path="url(#pdf922257e7)" style="fill: none; stroke: #17becf; stroke-width: 1.5"/>
   </g>
   <g id="patch_3">
    <path d="M 180 794.812219 
L 180 295.987781 
" style="fill: none; stroke: #000000; stroke-width: 0.8; stroke-linejoin: miter; stroke-linecap: square"/>
   </g>
   <g id="patch_4">
    <path d="M 1296 794.812219 
L 1296 295.987781 
" style="fill: none; stroke: #000000; stroke-width: 0.8; stroke-linejoin: miter; stroke-linecap: square"/>
   </g>
   <g id="patch_5">
    <path d="M 180 794.812219 
L 1296 794.812219 
" style="fill: none; stroke: #000000; stroke-width: 0.8; stroke-linejoin: miter; stroke-linecap: square"/>
   </g>
   <g id="patch_6">
    <path d="M 180 295.987781 
L 1296 295.987781 
" style="fill: none; stroke: #000000; stroke-width: 0.8; stroke-linejoin: miter; stroke-linecap: square"/>
   </g>
  </g>
 </g>
 <defs>
  <clipPath id="pdf922257e7">
   <rect x="180" y="295.987781" width="1116" height="498.824438"/>
  </clipPath>
 </defs>
</svg>
