<?xml version="1.0" encoding="utf-8" standalone="no"?>
<!DOCTYPE svg PUBLIC "-//W3C//DTD SVG 1.1//EN"
  "http://www.w3.org/Graphics/SVG/1.1/DTD/svg11.dtd">
<svg xmlns:xlink="http://www.w3.org/1999/xlink" width="1440pt" height="1080pt" viewBox="0 0 1440 1080" xmlns="http://www.w3.org/2000/svg" version="1.1">
 <metadata>
  <rdf:RDF xmlns:dc="http://purl.org/dc/elements/1.1/" xmlns:cc="http://creativecommons.org/ns#" xmlns:rdf="http://www.w3.org/1999/02/22-rdf-syntax-ns#">
   <cc:Work>
    <dc:type rdf:resource="http://purl.org/dc/dcmitype/StillImage"/>
    <dc:date>2023-12-11T12:06:59.926938</dc:date>
    <dc:format>image/svg+xml</dc:format>
    <dc:creator>
     <cc:Agent>
      <dc:title>Matplotlib v3.7.1, https://matplotlib.org/</dc:title>
     </cc:Agent>
    </dc:creator>
   </cc:Work>
  </rdf:RDF>
 </metadata>
 <defs>
  <style type="text/css">*{stroke-linejoin: round; stroke-linecap: butt}</style>
 </defs>
 <g id="figure_1">
  <g id="patch_1">
   <path d="M 0 1080 
L 1440 1080 
L 1440 0 
L 0 0 
z
" style="fill: #ffffff"/>
  </g>
  <g id="axes_1">
   <g id="patch_2">
    <path d="M 465.917382 961.2 
L 1010.082618 961.2 
L 1010.082618 129.6 
L 465.917382 129.6 
z
" style="fill: #ffffff"/>
   </g>
   <g id="matplotlib.axis_1">
    <g id="xtick_1">
     <g id="line2d_1">
      <defs>
       <path id="mf60d5af14f" d="M 0 0 
L 0 3.5 
" style="stroke: #000000; stroke-width: 0.8"/>
      </defs>
      <g>
       <use xlink:href="#mf60d5af14f" x="504.069981" y="961.2" style="stroke: #000000; stroke-width: 0.8"/>
      </g>
     </g>
     <g id="text_1">
      <!-- 50 -->
      <g transform="translate(497.707481 975.798437) scale(0.1 -0.1)">
       <defs>
        <path id="DejaVuSans-35" d="M 691 4666 
L 3169 4666 
L 3169 4134 
L 1269 4134 
L 1269 2991 
Q 1406 3038 1543 3061 
Q 1681 3084 1819 3084 
Q 2600 3084 3056 2656 
Q 3513 2228 3513 1497 
Q 3513 744 3044 326 
Q 2575 -91 1722 -91 
Q 1428 -91 1123 -41 
Q 819 9 494 109 
L 494 744 
Q 775 591 1075 516 
Q 1375 441 1709 441 
Q 2250 441 2565 725 
Q 2881 1009 2881 1497 
Q 2881 1984 2565 2268 
Q 2250 2553 1709 2553 
Q 1456 2553 1204 2497 
Q 953 2441 691 2322 
L 691 4666 
z
" transform="scale(0.015625)"/>
        <path id="DejaVuSans-30" d="M 2034 4250 
Q 1547 4250 1301 3770 
Q 1056 3291 1056 2328 
Q 1056 1369 1301 889 
Q 1547 409 2034 409 
Q 2525 409 2770 889 
Q 3016 1369 3016 2328 
Q 3016 3291 2770 3770 
Q 2525 4250 2034 4250 
z
M 2034 4750 
Q 2819 4750 3233 4129 
Q 3647 3509 3647 2328 
Q 3647 1150 3233 529 
Q 2819 -91 2034 -91 
Q 1250 -91 836 529 
Q 422 1150 422 2328 
Q 422 3509 836 4129 
Q 1250 4750 2034 4750 
z
" transform="scale(0.015625)"/>
       </defs>
       <use xlink:href="#DejaVuSans-35"/>
       <use xlink:href="#DejaVuSans-30" x="63.623047"/>
      </g>
     </g>
    </g>
    <g id="xtick_2">
     <g id="line2d_2">
      <g>
       <use xlink:href="#mf60d5af14f" x="567.544223" y="961.2" style="stroke: #000000; stroke-width: 0.8"/>
      </g>
     </g>
     <g id="text_2">
      <!-- 100 -->
      <g transform="translate(558.000473 975.798437) scale(0.1 -0.1)">
       <defs>
        <path id="DejaVuSans-31" d="M 794 531 
L 1825 531 
L 1825 4091 
L 703 3866 
L 703 4441 
L 1819 4666 
L 2450 4666 
L 2450 531 
L 3481 531 
L 3481 0 
L 794 0 
L 794 531 
z
" transform="scale(0.015625)"/>
       </defs>
       <use xlink:href="#DejaVuSans-31"/>
       <use xlink:href="#DejaVuSans-30" x="63.623047"/>
       <use xlink:href="#DejaVuSans-30" x="127.246094"/>
      </g>
     </g>
    </g>
    <g id="xtick_3">
     <g id="line2d_3">
      <g>
       <use xlink:href="#mf60d5af14f" x="631.018466" y="961.2" style="stroke: #000000; stroke-width: 0.8"/>
      </g>
     </g>
     <g id="text_3">
      <!-- 150 -->
      <g transform="translate(621.474716 975.798437) scale(0.1 -0.1)">
       <use xlink:href="#DejaVuSans-31"/>
       <use xlink:href="#DejaVuSans-35" x="63.623047"/>
       <use xlink:href="#DejaVuSans-30" x="127.246094"/>
      </g>
     </g>
    </g>
    <g id="xtick_4">
     <g id="line2d_4">
      <g>
       <use xlink:href="#mf60d5af14f" x="694.492708" y="961.2" style="stroke: #000000; stroke-width: 0.8"/>
      </g>
     </g>
     <g id="text_4">
      <!-- 200 -->
      <g transform="translate(684.948958 975.798437) scale(0.1 -0.1)">
       <defs>
        <path id="DejaVuSans-32" d="M 1228 531 
L 3431 531 
L 3431 0 
L 469 0 
L 469 531 
Q 828 903 1448 1529 
Q 2069 2156 2228 2338 
Q 2531 2678 2651 2914 
Q 2772 3150 2772 3378 
Q 2772 3750 2511 3984 
Q 2250 4219 1831 4219 
Q 1534 4219 1204 4116 
Q 875 4013 500 3803 
L 500 4441 
Q 881 4594 1212 4672 
Q 1544 4750 1819 4750 
Q 2544 4750 2975 4387 
Q 3406 4025 3406 3419 
Q 3406 3131 3298 2873 
Q 3191 2616 2906 2266 
Q 2828 2175 2409 1742 
Q 1991 1309 1228 531 
z
" transform="scale(0.015625)"/>
       </defs>
       <use xlink:href="#DejaVuSans-32"/>
       <use xlink:href="#DejaVuSans-30" x="63.623047"/>
       <use xlink:href="#DejaVuSans-30" x="127.246094"/>
      </g>
     </g>
    </g>
    <g id="xtick_5">
     <g id="line2d_5">
      <g>
       <use xlink:href="#mf60d5af14f" x="757.96695" y="961.2" style="stroke: #000000; stroke-width: 0.8"/>
      </g>
     </g>
     <g id="text_5">
      <!-- 250 -->
      <g transform="translate(748.4232 975.798437) scale(0.1 -0.1)">
       <use xlink:href="#DejaVuSans-32"/>
       <use xlink:href="#DejaVuSans-35" x="63.623047"/>
       <use xlink:href="#DejaVuSans-30" x="127.246094"/>
      </g>
     </g>
    </g>
    <g id="xtick_6">
     <g id="line2d_6">
      <g>
       <use xlink:href="#mf60d5af14f" x="821.441193" y="961.2" style="stroke: #000000; stroke-width: 0.8"/>
      </g>
     </g>
     <g id="text_6">
      <!-- 300 -->
      <g transform="translate(811.897443 975.798437) scale(0.1 -0.1)">
       <defs>
        <path id="DejaVuSans-33" d="M 2597 2516 
Q 3050 2419 3304 2112 
Q 3559 1806 3559 1356 
Q 3559 666 3084 287 
Q 2609 -91 1734 -91 
Q 1441 -91 1130 -33 
Q 819 25 488 141 
L 488 750 
Q 750 597 1062 519 
Q 1375 441 1716 441 
Q 2309 441 2620 675 
Q 2931 909 2931 1356 
Q 2931 1769 2642 2001 
Q 2353 2234 1838 2234 
L 1294 2234 
L 1294 2753 
L 1863 2753 
Q 2328 2753 2575 2939 
Q 2822 3125 2822 3475 
Q 2822 3834 2567 4026 
Q 2313 4219 1838 4219 
Q 1578 4219 1281 4162 
Q 984 4106 628 3988 
L 628 4550 
Q 988 4650 1302 4700 
Q 1616 4750 1894 4750 
Q 2613 4750 3031 4423 
Q 3450 4097 3450 3541 
Q 3450 3153 3228 2886 
Q 3006 2619 2597 2516 
z
" transform="scale(0.015625)"/>
       </defs>
       <use xlink:href="#DejaVuSans-33"/>
       <use xlink:href="#DejaVuSans-30" x="63.623047"/>
       <use xlink:href="#DejaVuSans-30" x="127.246094"/>
      </g>
     </g>
    </g>
    <g id="xtick_7">
     <g id="line2d_7">
      <g>
       <use xlink:href="#mf60d5af14f" x="884.915435" y="961.2" style="stroke: #000000; stroke-width: 0.8"/>
      </g>
     </g>
     <g id="text_7">
      <!-- 350 -->
      <g transform="translate(875.371685 975.798437) scale(0.1 -0.1)">
       <use xlink:href="#DejaVuSans-33"/>
       <use xlink:href="#DejaVuSans-35" x="63.623047"/>
       <use xlink:href="#DejaVuSans-30" x="127.246094"/>
      </g>
     </g>
    </g>
    <g id="xtick_8">
     <g id="line2d_8">
      <g>
       <use xlink:href="#mf60d5af14f" x="948.389677" y="961.2" style="stroke: #000000; stroke-width: 0.8"/>
      </g>
     </g>
     <g id="text_8">
      <!-- 400 -->
      <g transform="translate(938.845927 975.798437) scale(0.1 -0.1)">
       <defs>
        <path id="DejaVuSans-34" d="M 2419 4116 
L 825 1625 
L 2419 1625 
L 2419 4116 
z
M 2253 4666 
L 3047 4666 
L 3047 1625 
L 3713 1625 
L 3713 1100 
L 3047 1100 
L 3047 0 
L 2419 0 
L 2419 1100 
L 313 1100 
L 313 1709 
L 2253 4666 
z
" transform="scale(0.015625)"/>
       </defs>
       <use xlink:href="#DejaVuSans-34"/>
       <use xlink:href="#DejaVuSans-30" x="63.623047"/>
       <use xlink:href="#DejaVuSans-30" x="127.246094"/>
      </g>
     </g>
    </g>
   </g>
   <g id="matplotlib.axis_2">
    <g id="ytick_1">
     <g id="line2d_9">
      <defs>
       <path id="m6f2f7b991a" d="M 0 0 
L -3.5 0 
" style="stroke: #000000; stroke-width: 0.8"/>
      </defs>
      <g>
       <use xlink:href="#m6f2f7b991a" x="465.917382" y="902.941318" style="stroke: #000000; stroke-width: 0.8"/>
      </g>
     </g>
     <g id="text_9">
      <!-- 800 -->
      <g transform="translate(439.829882 906.740537) scale(0.1 -0.1)">
       <defs>
        <path id="DejaVuSans-38" d="M 2034 2216 
Q 1584 2216 1326 1975 
Q 1069 1734 1069 1313 
Q 1069 891 1326 650 
Q 1584 409 2034 409 
Q 2484 409 2743 651 
Q 3003 894 3003 1313 
Q 3003 1734 2745 1975 
Q 2488 2216 2034 2216 
z
M 1403 2484 
Q 997 2584 770 2862 
Q 544 3141 544 3541 
Q 544 4100 942 4425 
Q 1341 4750 2034 4750 
Q 2731 4750 3128 4425 
Q 3525 4100 3525 3541 
Q 3525 3141 3298 2862 
Q 3072 2584 2669 2484 
Q 3125 2378 3379 2068 
Q 3634 1759 3634 1313 
Q 3634 634 3220 271 
Q 2806 -91 2034 -91 
Q 1263 -91 848 271 
Q 434 634 434 1313 
Q 434 1759 690 2068 
Q 947 2378 1403 2484 
z
M 1172 3481 
Q 1172 3119 1398 2916 
Q 1625 2713 2034 2713 
Q 2441 2713 2670 2916 
Q 2900 3119 2900 3481 
Q 2900 3844 2670 4047 
Q 2441 4250 2034 4250 
Q 1625 4250 1398 4047 
Q 1172 3844 1172 3481 
z
" transform="scale(0.015625)"/>
       </defs>
       <use xlink:href="#DejaVuSans-38"/>
       <use xlink:href="#DejaVuSans-30" x="63.623047"/>
       <use xlink:href="#DejaVuSans-30" x="127.246094"/>
      </g>
     </g>
    </g>
    <g id="ytick_2">
     <g id="line2d_10">
      <g>
       <use xlink:href="#m6f2f7b991a" x="465.917382" y="775.992833" style="stroke: #000000; stroke-width: 0.8"/>
      </g>
     </g>
     <g id="text_10">
      <!-- 900 -->
      <g transform="translate(439.829882 779.792052) scale(0.1 -0.1)">
       <defs>
        <path id="DejaVuSans-39" d="M 703 97 
L 703 672 
Q 941 559 1184 500 
Q 1428 441 1663 441 
Q 2288 441 2617 861 
Q 2947 1281 2994 2138 
Q 2813 1869 2534 1725 
Q 2256 1581 1919 1581 
Q 1219 1581 811 2004 
Q 403 2428 403 3163 
Q 403 3881 828 4315 
Q 1253 4750 1959 4750 
Q 2769 4750 3195 4129 
Q 3622 3509 3622 2328 
Q 3622 1225 3098 567 
Q 2575 -91 1691 -91 
Q 1453 -91 1209 -44 
Q 966 3 703 97 
z
M 1959 2075 
Q 2384 2075 2632 2365 
Q 2881 2656 2881 3163 
Q 2881 3666 2632 3958 
Q 2384 4250 1959 4250 
Q 1534 4250 1286 3958 
Q 1038 3666 1038 3163 
Q 1038 2656 1286 2365 
Q 1534 2075 1959 2075 
z
" transform="scale(0.015625)"/>
       </defs>
       <use xlink:href="#DejaVuSans-39"/>
       <use xlink:href="#DejaVuSans-30" x="63.623047"/>
       <use xlink:href="#DejaVuSans-30" x="127.246094"/>
      </g>
     </g>
    </g>
    <g id="ytick_3">
     <g id="line2d_11">
      <g>
       <use xlink:href="#m6f2f7b991a" x="465.917382" y="649.044348" style="stroke: #000000; stroke-width: 0.8"/>
      </g>
     </g>
     <g id="text_11">
      <!-- 1000 -->
      <g transform="translate(433.467382 652.843567) scale(0.1 -0.1)">
       <use xlink:href="#DejaVuSans-31"/>
       <use xlink:href="#DejaVuSans-30" x="63.623047"/>
       <use xlink:href="#DejaVuSans-30" x="127.246094"/>
       <use xlink:href="#DejaVuSans-30" x="190.869141"/>
      </g>
     </g>
    </g>
    <g id="ytick_4">
     <g id="line2d_12">
      <g>
       <use xlink:href="#m6f2f7b991a" x="465.917382" y="522.095864" style="stroke: #000000; stroke-width: 0.8"/>
      </g>
     </g>
     <g id="text_12">
      <!-- 1100 -->
      <g transform="translate(433.467382 525.895083) scale(0.1 -0.1)">
       <use xlink:href="#DejaVuSans-31"/>
       <use xlink:href="#DejaVuSans-31" x="63.623047"/>
       <use xlink:href="#DejaVuSans-30" x="127.246094"/>
       <use xlink:href="#DejaVuSans-30" x="190.869141"/>
      </g>
     </g>
    </g>
    <g id="ytick_5">
     <g id="line2d_13">
      <g>
       <use xlink:href="#m6f2f7b991a" x="465.917382" y="395.147379" style="stroke: #000000; stroke-width: 0.8"/>
      </g>
     </g>
     <g id="text_13">
      <!-- 1200 -->
      <g transform="translate(433.467382 398.946598) scale(0.1 -0.1)">
       <use xlink:href="#DejaVuSans-31"/>
       <use xlink:href="#DejaVuSans-32" x="63.623047"/>
       <use xlink:href="#DejaVuSans-30" x="127.246094"/>
       <use xlink:href="#DejaVuSans-30" x="190.869141"/>
      </g>
     </g>
    </g>
    <g id="ytick_6">
     <g id="line2d_14">
      <g>
       <use xlink:href="#m6f2f7b991a" x="465.917382" y="268.198894" style="stroke: #000000; stroke-width: 0.8"/>
      </g>
     </g>
     <g id="text_14">
      <!-- 1300 -->
      <g transform="translate(433.467382 271.998113) scale(0.1 -0.1)">
       <use xlink:href="#DejaVuSans-31"/>
       <use xlink:href="#DejaVuSans-33" x="63.623047"/>
       <use xlink:href="#DejaVuSans-30" x="127.246094"/>
       <use xlink:href="#DejaVuSans-30" x="190.869141"/>
      </g>
     </g>
    </g>
    <g id="ytick_7">
     <g id="line2d_15">
      <g>
       <use xlink:href="#m6f2f7b991a" x="465.917382" y="141.25041" style="stroke: #000000; stroke-width: 0.8"/>
      </g>
     </g>
     <g id="text_15">
      <!-- 1400 -->
      <g transform="translate(433.467382 145.049628) scale(0.1 -0.1)">
       <use xlink:href="#DejaVuSans-31"/>
       <use xlink:href="#DejaVuSans-34" x="63.623047"/>
       <use xlink:href="#DejaVuSans-30" x="127.246094"/>
       <use xlink:href="#DejaVuSans-30" x="190.869141"/>
      </g>
     </g>
    </g>
   </g>
   <g id="LineCollection_1">
    <path d="M 977.444732 879.301168 
L 950.473249 885.952706 
L 928.871402 889.446424 
L 911.731036 890.380328 
L 898.66404 889.288722 
L 889.180297 886.774351 
L 882.537486 883.38314 
L 877.785306 879.327511 
L 874.141148 874.393533 
L 871.265591 868.271673 
L 869.114118 860.878616 
L 867.685915 852.355528 
L 866.924154 842.934942 
L 866.72056 832.85174 
L 866.941977 822.310823 
L 867.450266 811.481945 
L 869.437883 778.397327 
L 869.890512 767.488393 
L 870.088405 756.76108 
L 869.961336 746.259206 
L 869.450801 736.018276 
L 868.509828 726.068128 
L 867.103377 716.435247 
L 865.209353 707.144384 
L 862.819944 698.219034 
L 859.94274 689.6805 
L 856.600926 681.545677 
L 852.832024 673.824228 
L 848.685161 666.516127 
L 844.217407 659.610411 
L 839.490035 653.085501 
L 834.565439 646.910865 
L 829.505062 641.049432 
L 824.368292 635.460167 
L 814.090453 624.92744 
L 804.086541 614.910367 
L 799.31685 610.006133 
L 794.770775 605.135548 
L 790.485038 600.266084 
L 786.490157 595.366456 
L 782.809756 590.405109 
L 779.460507 585.348346 
L 776.453032 580.158482 
L 773.793906 574.792648 
L 771.488485 569.202888 
L 769.543816 563.337927 
L 767.970728 557.1464 
L 766.784395 550.580748 
L 766.003269 543.600731 
L 765.646849 536.17575 
L 765.73306 528.285702 
L 766.2759 519.920596 
L 767.283725 511.079405 
L 768.758247 501.768648 
L 770.694115 492.001037 
L 773.078892 481.794349 
L 775.893278 471.17058 
L 779.11142 460.155345 
L 782.701271 448.777462 
L 786.624927 437.068669 
L 790.838951 425.063408 
L 799.938385 400.313684 
L 819.187109 348.948387 
L 823.818746 335.979938 
L 828.224063 323.05335 
L 832.319273 310.211229 
L 836.015628 297.492847 
L 839.218038 284.932254 
L 841.822411 272.556163 
L 843.710809 260.382212 
L 844.743283 248.419499 
L 844.745938 236.67587 
L 843.839187 227.280232 
L 843.498831 225.180528 
L 841.171071 215.243804 
L 840.739051 214.031099 
L 836.946318 204.750192 
L 836.210255 203.454763 
L 830.823304 195.045998 
L 829.773303 193.820876 
L 822.764313 186.523589 
L 821.498744 185.527377 
L 812.921704 179.511176 
L 811.608075 178.821981 
L 801.514559 174.147139 
L 800.298479 173.741878 
L 789.707717 170.663959 
L 787.63257 170.203429 
L 773.550235 168.109838 
L 757.927151 167.4 
L 740.620443 168.052345 
L 721.491427 170.073432 
L 700.413812 173.486119 
L 677.275339 178.32104 
L 651.977122 184.611148 
L 624.432512 192.388325 
L 594.566113 201.681244 
L 562.31312 212.513952 
L 527.618948 224.904875 
L 490.652165 238.784367 
L 490.652165 238.784367 
" clip-path="url(#p310e2c1b2a)" style="fill: none; stroke: #1f77b4; stroke-width: 1.5"/>
    <path d="M 981.396283 895.324409 
L 953.771932 902.136953 
L 930.642736 905.877694 
L 911.49189 906.921139 
L 895.84068 905.61365 
L 883.246782 902.274702 
L 873.302608 897.198118 
L 865.63369 890.653272 
L 859.897101 882.886263 
L 855.779916 874.121063 
L 852.997709 864.56063 
L 851.293094 854.388001 
L 850.434295 843.76735 
L 850.213758 832.845024 
L 850.446803 821.750545 
L 850.970303 810.59759 
L 851.641413 799.484941 
L 852.336319 788.49741 
L 852.949036 777.706738 
L 853.390234 767.172462 
L 853.586102 756.942764 
L 853.477244 747.055288 
L 853.017614 737.537932 
L 852.173475 728.409621 
L 850.922406 719.681045 
L 849.252332 711.355379 
L 847.160585 703.428976 
L 844.653009 695.892035 
L 841.743088 688.729247 
L 838.451106 681.920414 
L 834.803345 675.441047 
L 830.831305 669.262938 
L 826.570968 663.354713 
L 822.062079 657.682355 
L 817.347464 652.209711 
L 812.47238 646.898973 
L 807.48389 641.711138 
L 802.43027 636.606445 
L 797.360444 631.54479 
L 792.323448 626.48612 
L 787.367921 621.390809 
L 782.541629 616.220004 
L 777.89101 610.935961 
L 773.46075 605.502351 
L 769.293384 599.884552 
L 765.428929 594.049921 
L 761.904536 587.968037 
L 758.754174 581.610938 
L 756.008332 574.953328 
L 753.69376 567.97277 
L 751.83322 560.649858 
L 750.44527 552.96837 
L 749.544071 544.915407 
L 749.13922 536.481505 
L 749.235601 527.660739 
L 749.833264 518.450802 
L 750.927329 508.85307 
L 752.507905 498.872649 
L 754.560038 488.518405 
L 757.063683 477.802975 
L 759.993687 466.742767 
L 763.319807 455.357938 
L 767.00674 443.672358 
L 771.014174 431.713561 
L 775.296865 419.512675 
L 779.80473 407.10434 
L 784.482962 394.526612 
L 789.272159 381.82085 
L 794.108479 369.031589 
L 798.923813 356.206397 
L 803.645971 343.395724 
L 808.198892 330.652728 
L 812.502866 318.033092 
L 816.474782 305.594832 
L 820.028385 293.398086 
L 823.074551 281.504887 
L 825.521586 269.978934 
L 827.27553 258.88534 
L 828.240485 248.290377 
L 828.318956 238.261199 
L 827.412205 228.865561 
L 825.420625 220.171526 
L 822.244122 212.247154 
L 817.782518 205.160192 
L 811.935962 198.977738 
L 804.605356 193.765908 
L 795.6928 189.589487 
L 785.102038 186.511569 
L 772.73893 184.593187 
L 758.511927 183.892939 
L 742.332559 184.466597 
L 724.115939 186.366712 
L 703.781274 189.642208 
L 681.252388 194.337971 
L 656.458258 200.494423 
L 629.333555 208.147094 
L 599.819199 217.326182 
L 567.862926 228.056109 
L 533.419854 240.355068 
L 496.453072 254.234561 
" clip-path="url(#p310e2c1b2a)" style="fill: none; stroke: #8c564b; stroke-width: 1.5"/>
    <path d="M 985.347835 911.34765 
L 956.406813 918.428559 
L 931.540597 922.356555 
L 912.389751 923.4 
L 910.118004 923.367155 
L 893.028222 921.875541 
L 891.611371 921.565827 
L 877.346839 917.687349 
L 875.742971 916.973404 
L 865.798797 911.89682 
L 864.131115 910.918275 
L 862.58933 909.751392 
L 853.561062 901.905412 
L 852.358661 900.457997 
L 845.722115 891.337817 
L 844.959608 889.902695 
L 840.341288 879.952682 
L 839.933962 878.732435 
L 837.151755 869.172002 
L 836.721339 867.288041 
L 834.843482 855.718138 
L 833.934355 844.100507 
L 833.714095 832.498442 
L 833.96165 820.97676 
L 834.497013 809.602743 
L 836.46532 776.893607 
L 836.893543 766.669138 
L 837.08106 756.875626 
L 836.978326 747.54434 
L 836.551022 738.696361 
L 835.778399 730.34141 
L 834.65117 722.476851 
L 833.168842 715.087139 
L 831.336613 708.144147 
L 829.162258 701.608754 
L 826.653634 695.433762 
L 823.817487 689.567735 
L 820.659828 683.958917 
L 817.187638 678.558275 
L 813.411155 673.321057 
L 809.345903 668.206812 
L 805.01392 663.17832 
L 800.444012 658.20003 
L 790.736019 648.251436 
L 780.492696 637.992307 
L 775.303336 632.651572 
L 770.153145 627.12342 
L 765.100387 621.364717 
L 760.206214 615.334761 
L 755.534332 608.997593 
L 751.1499 602.32448 
L 747.117401 595.29604 
L 743.497542 587.90333 
L 740.343676 580.147322 
L 737.698644 572.036667 
L 735.592895 563.584285 
L 734.044346 554.80378 
L 733.059749 545.706701 
L 732.636902 536.301191 
L 732.766937 526.592032 
L 733.436151 516.581662 
L 734.627167 506.271652 
L 736.319482 495.664225 
L 738.489563 484.763562 
L 741.110675 473.576799 
L 744.152592 462.114732 
L 747.581287 450.392257 
L 751.358661 438.428634 
L 755.442327 426.247613 
L 759.785461 413.877485 
L 769.040264 388.705779 
L 788.132612 337.765316 
L 792.617581 325.212506 
L 796.830838 312.858861 
L 800.689355 300.775716 
L 804.108244 289.041337 
L 807.002255 277.7422 
L 809.288292 266.974574 
L 810.889651 256.846071 
L 811.743049 247.475978 
L 811.809435 238.991276 
L 811.087602 231.511732 
L 809.622112 225.114286 
L 807.481764 219.774794 
L 804.679106 215.322957 
L 801.055796 211.49148 
L 796.255275 208.078461 
L 789.853426 205.078557 
L 781.519073 202.656403 
L 771.063419 201.034001 
L 758.39846 200.410636 
L 743.482353 200.939503 
L 726.28594 202.733203 
L 706.778831 205.875397 
L 684.925962 210.430256 
L 660.688406 216.44851 
L 634.02547 223.970902 
L 604.896902 233.030009 
L 573.264861 243.651069 
L 539.095583 255.852262 
L 502.253978 269.684755 
L 502.253978 269.684755 
" clip-path="url(#p310e2c1b2a)" style="fill: none; stroke: #17becf; stroke-width: 1.5"/>
   </g>
   <g id="patch_3">
    <path d="M 465.917382 961.2 
L 465.917382 129.6 
" style="fill: none; stroke: #000000; stroke-width: 0.8; stroke-linejoin: miter; stroke-linecap: square"/>
   </g>
   <g id="patch_4">
    <path d="M 1010.082618 961.2 
L 1010.082618 129.6 
" style="fill: none; stroke: #000000; stroke-width: 0.8; stroke-linejoin: miter; stroke-linecap: square"/>
   </g>
   <g id="patch_5">
    <path d="M 465.917382 961.2 
L 1010.082618 961.2 
" style="fill: none; stroke: #000000; stroke-width: 0.8; stroke-linejoin: miter; stroke-linecap: square"/>
   </g>
   <g id="patch_6">
    <path d="M 465.917382 129.6 
L 1010.082618 129.6 
" style="fill: none; stroke: #000000; stroke-width: 0.8; stroke-linejoin: miter; stroke-linecap: square"/>
   </g>
  </g>
 </g>
 <defs>
  <clipPath id="p310e2c1b2a">
   <rect x="465.917382" y="129.6" width="544.165236" height="831.6"/>
  </clipPath>
 </defs>
</svg>
