<?xml version="1.0" encoding="utf-8" standalone="no"?>
<!DOCTYPE svg PUBLIC "-//W3C//DTD SVG 1.1//EN"
  "http://www.w3.org/Graphics/SVG/1.1/DTD/svg11.dtd">
<svg xmlns:xlink="http://www.w3.org/1999/xlink" width="1440pt" height="1080pt" viewBox="0 0 1440 1080" xmlns="http://www.w3.org/2000/svg" version="1.1">
 <metadata>
  <rdf:RDF xmlns:dc="http://purl.org/dc/elements/1.1/" xmlns:cc="http://creativecommons.org/ns#" xmlns:rdf="http://www.w3.org/1999/02/22-rdf-syntax-ns#">
   <cc:Work>
    <dc:type rdf:resource="http://purl.org/dc/dcmitype/StillImage"/>
    <dc:date>2023-12-11T12:06:36.971842</dc:date>
    <dc:format>image/svg+xml</dc:format>
    <dc:creator>
     <cc:Agent>
      <dc:title>Matplotlib v3.7.1, https://matplotlib.org/</dc:title>
     </cc:Agent>
    </dc:creator>
   </cc:Work>
  </rdf:RDF>
 </metadata>
 <defs>
  <style type="text/css">*{stroke-linejoin: round; stroke-linecap: butt}</style>
 </defs>
 <g id="figure_1">
  <g id="patch_1">
   <path d="M 0 1080 
L 1440 1080 
L 1440 0 
L 0 0 
z
" style="fill: #ffffff"/>
  </g>
  <g id="axes_1">
   <g id="patch_2">
    <path d="M 180 616.768062 
L 1296 616.768062 
L 1296 474.031938 
L 180 474.031938 
z
" style="fill: #ffffff"/>
   </g>
   <g id="matplotlib.axis_1">
    <g id="xtick_1">
     <g id="line2d_1">
      <defs>
       <path id="m8f40b445bd" d="M 0 0 
L 0 3.5 
" style="stroke: #000000; stroke-width: 0.8"/>
      </defs>
      <g>
       <use xlink:href="#m8f40b445bd" x="313.103762" y="616.768062" style="stroke: #000000; stroke-width: 0.8"/>
      </g>
     </g>
     <g id="text_1">
      <!-- 600 -->
      <g transform="translate(303.560012 631.3665) scale(0.1 -0.1)">
       <defs>
        <path id="DejaVuSans-36" d="M 2113 2584 
Q 1688 2584 1439 2293 
Q 1191 2003 1191 1497 
Q 1191 994 1439 701 
Q 1688 409 2113 409 
Q 2538 409 2786 701 
Q 3034 994 3034 1497 
Q 3034 2003 2786 2293 
Q 2538 2584 2113 2584 
z
M 3366 4563 
L 3366 3988 
Q 3128 4100 2886 4159 
Q 2644 4219 2406 4219 
Q 1781 4219 1451 3797 
Q 1122 3375 1075 2522 
Q 1259 2794 1537 2939 
Q 1816 3084 2150 3084 
Q 2853 3084 3261 2657 
Q 3669 2231 3669 1497 
Q 3669 778 3244 343 
Q 2819 -91 2113 -91 
Q 1303 -91 875 529 
Q 447 1150 447 2328 
Q 447 3434 972 4092 
Q 1497 4750 2381 4750 
Q 2619 4750 2861 4703 
Q 3103 4656 3366 4563 
z
" transform="scale(0.015625)"/>
        <path id="DejaVuSans-30" d="M 2034 4250 
Q 1547 4250 1301 3770 
Q 1056 3291 1056 2328 
Q 1056 1369 1301 889 
Q 1547 409 2034 409 
Q 2525 409 2770 889 
Q 3016 1369 3016 2328 
Q 3016 3291 2770 3770 
Q 2525 4250 2034 4250 
z
M 2034 4750 
Q 2819 4750 3233 4129 
Q 3647 3509 3647 2328 
Q 3647 1150 3233 529 
Q 2819 -91 2034 -91 
Q 1250 -91 836 529 
Q 422 1150 422 2328 
Q 422 3509 836 4129 
Q 1250 4750 2034 4750 
z
" transform="scale(0.015625)"/>
       </defs>
       <use xlink:href="#DejaVuSans-36"/>
       <use xlink:href="#DejaVuSans-30" x="63.623047"/>
       <use xlink:href="#DejaVuSans-30" x="127.246094"/>
      </g>
     </g>
    </g>
    <g id="xtick_2">
     <g id="line2d_2">
      <g>
       <use xlink:href="#m8f40b445bd" x="478.239237" y="616.768062" style="stroke: #000000; stroke-width: 0.8"/>
      </g>
     </g>
     <g id="text_2">
      <!-- 800 -->
      <g transform="translate(468.695487 631.3665) scale(0.1 -0.1)">
       <defs>
        <path id="DejaVuSans-38" d="M 2034 2216 
Q 1584 2216 1326 1975 
Q 1069 1734 1069 1313 
Q 1069 891 1326 650 
Q 1584 409 2034 409 
Q 2484 409 2743 651 
Q 3003 894 3003 1313 
Q 3003 1734 2745 1975 
Q 2488 2216 2034 2216 
z
M 1403 2484 
Q 997 2584 770 2862 
Q 544 3141 544 3541 
Q 544 4100 942 4425 
Q 1341 4750 2034 4750 
Q 2731 4750 3128 4425 
Q 3525 4100 3525 3541 
Q 3525 3141 3298 2862 
Q 3072 2584 2669 2484 
Q 3125 2378 3379 2068 
Q 3634 1759 3634 1313 
Q 3634 634 3220 271 
Q 2806 -91 2034 -91 
Q 1263 -91 848 271 
Q 434 634 434 1313 
Q 434 1759 690 2068 
Q 947 2378 1403 2484 
z
M 1172 3481 
Q 1172 3119 1398 2916 
Q 1625 2713 2034 2713 
Q 2441 2713 2670 2916 
Q 2900 3119 2900 3481 
Q 2900 3844 2670 4047 
Q 2441 4250 2034 4250 
Q 1625 4250 1398 4047 
Q 1172 3844 1172 3481 
z
" transform="scale(0.015625)"/>
       </defs>
       <use xlink:href="#DejaVuSans-38"/>
       <use xlink:href="#DejaVuSans-30" x="63.623047"/>
       <use xlink:href="#DejaVuSans-30" x="127.246094"/>
      </g>
     </g>
    </g>
    <g id="xtick_3">
     <g id="line2d_3">
      <g>
       <use xlink:href="#m8f40b445bd" x="643.374713" y="616.768062" style="stroke: #000000; stroke-width: 0.8"/>
      </g>
     </g>
     <g id="text_3">
      <!-- 1000 -->
      <g transform="translate(630.649713 631.3665) scale(0.1 -0.1)">
       <defs>
        <path id="DejaVuSans-31" d="M 794 531 
L 1825 531 
L 1825 4091 
L 703 3866 
L 703 4441 
L 1819 4666 
L 2450 4666 
L 2450 531 
L 3481 531 
L 3481 0 
L 794 0 
L 794 531 
z
" transform="scale(0.015625)"/>
       </defs>
       <use xlink:href="#DejaVuSans-31"/>
       <use xlink:href="#DejaVuSans-30" x="63.623047"/>
       <use xlink:href="#DejaVuSans-30" x="127.246094"/>
       <use xlink:href="#DejaVuSans-30" x="190.869141"/>
      </g>
     </g>
    </g>
    <g id="xtick_4">
     <g id="line2d_4">
      <g>
       <use xlink:href="#m8f40b445bd" x="808.510189" y="616.768062" style="stroke: #000000; stroke-width: 0.8"/>
      </g>
     </g>
     <g id="text_4">
      <!-- 1200 -->
      <g transform="translate(795.785189 631.3665) scale(0.1 -0.1)">
       <defs>
        <path id="DejaVuSans-32" d="M 1228 531 
L 3431 531 
L 3431 0 
L 469 0 
L 469 531 
Q 828 903 1448 1529 
Q 2069 2156 2228 2338 
Q 2531 2678 2651 2914 
Q 2772 3150 2772 3378 
Q 2772 3750 2511 3984 
Q 2250 4219 1831 4219 
Q 1534 4219 1204 4116 
Q 875 4013 500 3803 
L 500 4441 
Q 881 4594 1212 4672 
Q 1544 4750 1819 4750 
Q 2544 4750 2975 4387 
Q 3406 4025 3406 3419 
Q 3406 3131 3298 2873 
Q 3191 2616 2906 2266 
Q 2828 2175 2409 1742 
Q 1991 1309 1228 531 
z
" transform="scale(0.015625)"/>
       </defs>
       <use xlink:href="#DejaVuSans-31"/>
       <use xlink:href="#DejaVuSans-32" x="63.623047"/>
       <use xlink:href="#DejaVuSans-30" x="127.246094"/>
       <use xlink:href="#DejaVuSans-30" x="190.869141"/>
      </g>
     </g>
    </g>
    <g id="xtick_5">
     <g id="line2d_5">
      <g>
       <use xlink:href="#m8f40b445bd" x="973.645665" y="616.768062" style="stroke: #000000; stroke-width: 0.8"/>
      </g>
     </g>
     <g id="text_5">
      <!-- 1400 -->
      <g transform="translate(960.920665 631.3665) scale(0.1 -0.1)">
       <defs>
        <path id="DejaVuSans-34" d="M 2419 4116 
L 825 1625 
L 2419 1625 
L 2419 4116 
z
M 2253 4666 
L 3047 4666 
L 3047 1625 
L 3713 1625 
L 3713 1100 
L 3047 1100 
L 3047 0 
L 2419 0 
L 2419 1100 
L 313 1100 
L 313 1709 
L 2253 4666 
z
" transform="scale(0.015625)"/>
       </defs>
       <use xlink:href="#DejaVuSans-31"/>
       <use xlink:href="#DejaVuSans-34" x="63.623047"/>
       <use xlink:href="#DejaVuSans-30" x="127.246094"/>
       <use xlink:href="#DejaVuSans-30" x="190.869141"/>
      </g>
     </g>
    </g>
    <g id="xtick_6">
     <g id="line2d_6">
      <g>
       <use xlink:href="#m8f40b445bd" x="1138.781141" y="616.768062" style="stroke: #000000; stroke-width: 0.8"/>
      </g>
     </g>
     <g id="text_6">
      <!-- 1600 -->
      <g transform="translate(1126.056141 631.3665) scale(0.1 -0.1)">
       <use xlink:href="#DejaVuSans-31"/>
       <use xlink:href="#DejaVuSans-36" x="63.623047"/>
       <use xlink:href="#DejaVuSans-30" x="127.246094"/>
       <use xlink:href="#DejaVuSans-30" x="190.869141"/>
      </g>
     </g>
    </g>
   </g>
   <g id="matplotlib.axis_2">
    <g id="ytick_1">
     <g id="line2d_7">
      <defs>
       <path id="m3cd3e811c5" d="M 0 0 
L -3.5 0 
" style="stroke: #000000; stroke-width: 0.8"/>
      </defs>
      <g>
       <use xlink:href="#m3cd3e811c5" x="180" y="615.80538" style="stroke: #000000; stroke-width: 0.8"/>
      </g>
     </g>
     <g id="text_7">
      <!-- 800 -->
      <g transform="translate(153.9125 619.604599) scale(0.1 -0.1)">
       <use xlink:href="#DejaVuSans-38"/>
       <use xlink:href="#DejaVuSans-30" x="63.623047"/>
       <use xlink:href="#DejaVuSans-30" x="127.246094"/>
      </g>
     </g>
    </g>
    <g id="ytick_2">
     <g id="line2d_8">
      <g>
       <use xlink:href="#m3cd3e811c5" x="180" y="595.163446" style="stroke: #000000; stroke-width: 0.8"/>
      </g>
     </g>
     <g id="text_8">
      <!-- 825 -->
      <g transform="translate(153.9125 598.962665) scale(0.1 -0.1)">
       <defs>
        <path id="DejaVuSans-35" d="M 691 4666 
L 3169 4666 
L 3169 4134 
L 1269 4134 
L 1269 2991 
Q 1406 3038 1543 3061 
Q 1681 3084 1819 3084 
Q 2600 3084 3056 2656 
Q 3513 2228 3513 1497 
Q 3513 744 3044 326 
Q 2575 -91 1722 -91 
Q 1428 -91 1123 -41 
Q 819 9 494 109 
L 494 744 
Q 775 591 1075 516 
Q 1375 441 1709 441 
Q 2250 441 2565 725 
Q 2881 1009 2881 1497 
Q 2881 1984 2565 2268 
Q 2250 2553 1709 2553 
Q 1456 2553 1204 2497 
Q 953 2441 691 2322 
L 691 4666 
z
" transform="scale(0.015625)"/>
       </defs>
       <use xlink:href="#DejaVuSans-38"/>
       <use xlink:href="#DejaVuSans-32" x="63.623047"/>
       <use xlink:href="#DejaVuSans-35" x="127.246094"/>
      </g>
     </g>
    </g>
    <g id="ytick_3">
     <g id="line2d_9">
      <g>
       <use xlink:href="#m3cd3e811c5" x="180" y="574.521511" style="stroke: #000000; stroke-width: 0.8"/>
      </g>
     </g>
     <g id="text_9">
      <!-- 850 -->
      <g transform="translate(153.9125 578.32073) scale(0.1 -0.1)">
       <use xlink:href="#DejaVuSans-38"/>
       <use xlink:href="#DejaVuSans-35" x="63.623047"/>
       <use xlink:href="#DejaVuSans-30" x="127.246094"/>
      </g>
     </g>
    </g>
    <g id="ytick_4">
     <g id="line2d_10">
      <g>
       <use xlink:href="#m3cd3e811c5" x="180" y="553.879577" style="stroke: #000000; stroke-width: 0.8"/>
      </g>
     </g>
     <g id="text_10">
      <!-- 875 -->
      <g transform="translate(153.9125 557.678796) scale(0.1 -0.1)">
       <defs>
        <path id="DejaVuSans-37" d="M 525 4666 
L 3525 4666 
L 3525 4397 
L 1831 0 
L 1172 0 
L 2766 4134 
L 525 4134 
L 525 4666 
z
" transform="scale(0.015625)"/>
       </defs>
       <use xlink:href="#DejaVuSans-38"/>
       <use xlink:href="#DejaVuSans-37" x="63.623047"/>
       <use xlink:href="#DejaVuSans-35" x="127.246094"/>
      </g>
     </g>
    </g>
    <g id="ytick_5">
     <g id="line2d_11">
      <g>
       <use xlink:href="#m3cd3e811c5" x="180" y="533.237642" style="stroke: #000000; stroke-width: 0.8"/>
      </g>
     </g>
     <g id="text_11">
      <!-- 900 -->
      <g transform="translate(153.9125 537.036861) scale(0.1 -0.1)">
       <defs>
        <path id="DejaVuSans-39" d="M 703 97 
L 703 672 
Q 941 559 1184 500 
Q 1428 441 1663 441 
Q 2288 441 2617 861 
Q 2947 1281 2994 2138 
Q 2813 1869 2534 1725 
Q 2256 1581 1919 1581 
Q 1219 1581 811 2004 
Q 403 2428 403 3163 
Q 403 3881 828 4315 
Q 1253 4750 1959 4750 
Q 2769 4750 3195 4129 
Q 3622 3509 3622 2328 
Q 3622 1225 3098 567 
Q 2575 -91 1691 -91 
Q 1453 -91 1209 -44 
Q 966 3 703 97 
z
M 1959 2075 
Q 2384 2075 2632 2365 
Q 2881 2656 2881 3163 
Q 2881 3666 2632 3958 
Q 2384 4250 1959 4250 
Q 1534 4250 1286 3958 
Q 1038 3666 1038 3163 
Q 1038 2656 1286 2365 
Q 1534 2075 1959 2075 
z
" transform="scale(0.015625)"/>
       </defs>
       <use xlink:href="#DejaVuSans-39"/>
       <use xlink:href="#DejaVuSans-30" x="63.623047"/>
       <use xlink:href="#DejaVuSans-30" x="127.246094"/>
      </g>
     </g>
    </g>
    <g id="ytick_6">
     <g id="line2d_12">
      <g>
       <use xlink:href="#m3cd3e811c5" x="180" y="512.595708" style="stroke: #000000; stroke-width: 0.8"/>
      </g>
     </g>
     <g id="text_12">
      <!-- 925 -->
      <g transform="translate(153.9125 516.394927) scale(0.1 -0.1)">
       <use xlink:href="#DejaVuSans-39"/>
       <use xlink:href="#DejaVuSans-32" x="63.623047"/>
       <use xlink:href="#DejaVuSans-35" x="127.246094"/>
      </g>
     </g>
    </g>
    <g id="ytick_7">
     <g id="line2d_13">
      <g>
       <use xlink:href="#m3cd3e811c5" x="180" y="491.953774" style="stroke: #000000; stroke-width: 0.8"/>
      </g>
     </g>
     <g id="text_13">
      <!-- 950 -->
      <g transform="translate(153.9125 495.752992) scale(0.1 -0.1)">
       <use xlink:href="#DejaVuSans-39"/>
       <use xlink:href="#DejaVuSans-35" x="63.623047"/>
       <use xlink:href="#DejaVuSans-30" x="127.246094"/>
      </g>
     </g>
    </g>
   </g>
   <g id="LineCollection_1">
    <path d="M 230.727273 532.972602 
L 245.757896 539.007167 
L 260.515239 543.442367 
L 274.96504 546.467207 
L 289.082757 548.267321 
L 302.855406 549.020746 
L 316.280677 548.894153 
L 329.364517 548.040494 
L 342.118328 546.598118 
L 354.556538 544.690994 
L 366.694806 542.429557 
L 378.548865 539.9118 
L 390.133874 537.224398 
L 412.552946 531.6368 
L 434.103957 526.157983 
L 444.569284 523.585569 
L 454.837302 521.177063 
L 464.918769 518.962925 
L 474.824368 516.967887 
L 484.564844 515.211468 
L 494.151117 513.708475 
L 503.594332 512.469501 
L 512.905872 511.50141 
L 522.097297 510.807797 
L 531.18025 510.389413 
L 540.166313 510.244548 
L 549.066841 510.369356 
L 557.892792 510.758125 
L 566.654565 511.403488 
L 575.361873 512.296592 
L 584.023646 513.427234 
L 592.647981 514.783967 
L 601.242138 516.354202 
L 609.812563 518.124318 
L 618.364947 520.079763 
L 626.904296 522.205188 
L 635.435017 524.484574 
L 643.961001 526.901379 
L 661.012205 532.079398 
L 678.081503 537.602338 
L 703.761532 546.238938 
L 729.609601 554.931077 
L 746.93524 560.564127 
L 764.347064 565.960257 
L 781.852677 571.047542 
L 799.458317 575.773542 
L 817.169637 580.105798 
L 834.992785 584.031488 
L 852.935719 587.556177 
L 871.009634 590.701658 
L 889.230389 593.502914 
L 907.619838 596.004299 
L 926.207003 598.255046 
L 945.029098 600.30418 
L 964.132393 602.194891 
L 983.572928 603.958345 
L 1003.417101 605.606832 
L 1023.742105 607.126144 
L 1044.636219 608.466971 
L 1066.19889 609.535173 
L 1077.26501 609.922688 
L 1088.54046 610.180804 
L 1100.040577 610.280057 
L 1111.781195 610.185913 
L 1123.778533 609.858355 
L 1136.049048 609.251472 
L 1148.609257 608.313074 
L 1161.475526 606.984348 
L 1174.663838 605.199582 
L 1188.189587 602.88596 
L 1202.067409 599.96345 
L 1216.311129 596.344759 
L 1230.93385 591.935339 
L 1245.272727 586.889701 
L 1245.272727 586.889701 
" clip-path="url(#p2071345516)" style="fill: none; stroke: #1f77b4; stroke-width: 1.5"/>
    <path d="M 236.315765 519.201127 
L 250.086228 524.789209 
L 263.607214 528.905364 
L 276.885504 531.729615 
L 289.9279 533.429178 
L 302.741218 534.158992 
L 315.332281 534.062251 
L 327.707906 533.270916 
L 339.874904 531.906221 
L 351.840065 530.079165 
L 363.610154 527.890998 
L 375.191903 525.433694 
L 386.592005 522.790412 
L 397.817106 520.035953 
L 408.873796 517.237195 
L 419.768608 514.453532 
L 430.508008 511.737289 
L 441.09839 509.134137 
L 451.546069 506.683489 
L 461.857278 504.418893 
L 472.038162 502.368411 
L 482.094771 500.554987 
L 492.03306 498.996803 
L 501.85888 497.70763 
L 511.577977 496.697167 
L 521.195987 495.971362 
L 530.718432 495.532734 
L 540.150721 495.380675 
L 549.498141 495.51175 
L 558.765863 495.919978 
L 567.958931 496.597109 
L 577.082266 497.532885 
L 586.140666 498.7153 
L 595.1388 500.130836 
L 604.081212 501.764701 
L 612.97232 503.60105 
L 621.816415 505.623193 
L 630.617665 507.813805 
L 639.380113 510.155107 
L 648.107678 512.629054 
L 656.804164 515.2175 
L 665.473255 517.902363 
L 674.118521 520.665767 
L 682.743422 523.490188 
L 691.351313 526.358576 
L 699.945446 529.254478 
L 708.528979 532.16214 
L 717.104975 535.066608 
L 725.676416 537.953811 
L 734.246205 540.810642 
L 742.817173 543.625016 
L 751.392089 546.38593 
L 759.973666 549.083509 
L 768.564573 551.709032 
L 777.167441 554.254966 
L 785.784875 556.714971 
L 794.419464 559.083905 
L 803.073792 561.357818 
L 811.750451 563.53393 
L 820.452052 565.610608 
L 829.181237 567.58732 
L 837.940698 569.464587 
L 846.733184 571.243928 
L 855.561522 572.927782 
L 864.428629 574.519431 
L 873.337531 576.022909 
L 882.291376 577.442896 
L 891.293456 578.784608 
L 900.347223 580.053675 
L 909.45631 581.256006 
L 918.624548 582.397645 
L 927.855988 583.484615 
L 937.154923 584.522758 
L 946.525908 585.517553 
L 955.973784 586.473935 
L 965.503703 587.396098 
L 975.121149 588.287286 
L 984.831965 589.149577 
L 994.642378 589.983656 
L 1004.559027 590.788574 
L 1014.588989 591.561504 
L 1024.739805 592.297477 
L 1035.019517 592.989115 
L 1045.436687 593.62635 
L 1056.000436 594.196134 
L 1066.720472 594.682136 
L 1077.607122 595.064433 
L 1088.671368 595.319188 
L 1099.924877 595.418314 
L 1111.380041 595.329135 
L 1123.050007 595.014029 
L 1134.94872 594.430067 
L 1147.090954 593.528639 
L 1159.492358 592.255063 
L 1172.169487 590.5482 
L 1185.139852 588.340037 
L 1198.421953 585.555278 
L 1212.035324 582.110916 
L 1226.000581 577.915794 
L 1240.339458 572.870157 
" clip-path="url(#p2071345516)" style="fill: none; stroke: #8c564b; stroke-width: 1.5"/>
    <path d="M 241.904258 505.429652 
L 255.054692 510.766125 
L 267.324227 514.501304 
L 279.395738 517.068877 
L 291.312532 518.621762 
L 303.107078 519.293549 
L 314.80057 519.203705 
L 326.404658 518.461704 
L 337.924114 517.16964 
L 349.359471 515.423484 
L 360.709129 513.313479 
L 371.970813 510.924083 
L 383.142449 508.333775 
L 405.21071 502.833485 
L 426.960429 497.304706 
L 437.704376 494.664671 
L 448.357949 492.167268 
L 458.92288 489.849264 
L 469.400722 487.74211 
L 479.792711 485.872164 
L 490.099673 484.260901 
L 500.32199 482.925116 
L 510.45961 481.877112 
L 520.512121 481.124911 
L 530.478869 480.672472 
L 540.359107 480.519943 
L 550.152163 480.663955 
L 559.857604 481.097938 
L 569.475383 481.812483 
L 579.005945 482.795713 
L 588.450298 484.033666 
L 597.810045 485.510671 
L 607.087365 487.209708 
L 616.284976 489.112741 
L 625.406063 491.201016 
L 634.45421 493.455333 
L 643.433308 495.856282 
L 652.347483 498.384446 
L 669.998314 503.745788 
L 687.44192 509.390227 
L 713.296897 518.085502 
L 738.914623 526.700654 
L 755.898059 532.223174 
L 772.845313 537.47652 
L 789.790935 542.402664 
L 806.770059 546.962356 
L 823.818393 551.134423 
L 840.971975 554.914557 
L 858.266759 558.313646 
L 875.738134 561.35569 
L 893.420494 564.075269 
L 911.346987 566.514463 
L 929.549479 568.719153 
L 948.058776 570.734576 
L 966.905092 572.600092 
L 986.118761 574.343169 
L 1005.731188 575.972646 
L 1025.776035 577.471402 
L 1046.290656 578.788615 
L 1067.317828 579.831759 
L 1078.038985 580.208245 
L 1088.90789 580.458502 
L 1099.932482 580.555612 
L 1111.12159 580.468504 
L 1122.485099 580.161672 
L 1134.034149 579.594871 
L 1145.781378 578.722768 
L 1157.741188 577.494542 
L 1169.93005 575.85342 
L 1182.366806 573.736102 
L 1195.07294 571.072102 
L 1208.072775 567.782973 
L 1221.393551 563.781451 
L 1235.406189 558.850612 
L 1235.406189 558.850612 
" clip-path="url(#p2071345516)" style="fill: none; stroke: #17becf; stroke-width: 1.5"/>
   </g>
   <g id="patch_3">
    <path d="M 180 616.768062 
L 180 474.031938 
" style="fill: none; stroke: #000000; stroke-width: 0.8; stroke-linejoin: miter; stroke-linecap: square"/>
   </g>
   <g id="patch_4">
    <path d="M 1296 616.768062 
L 1296 474.031938 
" style="fill: none; stroke: #000000; stroke-width: 0.8; stroke-linejoin: miter; stroke-linecap: square"/>
   </g>
   <g id="patch_5">
    <path d="M 180 616.768062 
L 1296 616.768062 
" style="fill: none; stroke: #000000; stroke-width: 0.8; stroke-linejoin: miter; stroke-linecap: square"/>
   </g>
   <g id="patch_6">
    <path d="M 180 474.031938 
L 1296 474.031938 
" style="fill: none; stroke: #000000; stroke-width: 0.8; stroke-linejoin: miter; stroke-linecap: square"/>
   </g>
  </g>
 </g>
 <defs>
  <clipPath id="p2071345516">
   <rect x="180" y="474.031938" width="1116" height="142.736125"/>
  </clipPath>
 </defs>
</svg>
