<?xml version="1.0" encoding="utf-8" standalone="no"?>
<!DOCTYPE svg PUBLIC "-//W3C//DTD SVG 1.1//EN"
  "http://www.w3.org/Graphics/SVG/1.1/DTD/svg11.dtd">
<svg xmlns:xlink="http://www.w3.org/1999/xlink" width="1440pt" height="1080pt" viewBox="0 0 1440 1080" xmlns="http://www.w3.org/2000/svg" version="1.1">
 <metadata>
  <rdf:RDF xmlns:dc="http://purl.org/dc/elements/1.1/" xmlns:cc="http://creativecommons.org/ns#" xmlns:rdf="http://www.w3.org/1999/02/22-rdf-syntax-ns#">
   <cc:Work>
    <dc:type rdf:resource="http://purl.org/dc/dcmitype/StillImage"/>
    <dc:date>2023-12-11T12:07:01.492831</dc:date>
    <dc:format>image/svg+xml</dc:format>
    <dc:creator>
     <cc:Agent>
      <dc:title>Matplotlib v3.7.1, https://matplotlib.org/</dc:title>
     </cc:Agent>
    </dc:creator>
   </cc:Work>
  </rdf:RDF>
 </metadata>
 <defs>
  <style type="text/css">*{stroke-linejoin: round; stroke-linecap: butt}</style>
 </defs>
 <g id="figure_1">
  <g id="patch_1">
   <path d="M 0 1080 
L 1440 1080 
L 1440 0 
L 0 0 
z
" style="fill: #ffffff"/>
  </g>
  <g id="axes_1">
   <g id="patch_2">
    <path d="M 362.762249 961.2 
L 1113.237751 961.2 
L 1113.237751 129.6 
L 362.762249 129.6 
z
" style="fill: #ffffff"/>
   </g>
   <g id="matplotlib.axis_1">
    <g id="xtick_1">
     <g id="line2d_1">
      <defs>
       <path id="m2d3608573f" d="M 0 0 
L 0 3.5 
" style="stroke: #000000; stroke-width: 0.8"/>
      </defs>
      <g>
       <use xlink:href="#m2d3608573f" x="423.600209" y="961.2" style="stroke: #000000; stroke-width: 0.8"/>
      </g>
     </g>
     <g id="text_1">
      <!-- 700 -->
      <g transform="translate(414.056459 975.798437) scale(0.1 -0.1)">
       <defs>
        <path id="DejaVuSans-37" d="M 525 4666 
L 3525 4666 
L 3525 4397 
L 1831 0 
L 1172 0 
L 2766 4134 
L 525 4134 
L 525 4666 
z
" transform="scale(0.015625)"/>
        <path id="DejaVuSans-30" d="M 2034 4250 
Q 1547 4250 1301 3770 
Q 1056 3291 1056 2328 
Q 1056 1369 1301 889 
Q 1547 409 2034 409 
Q 2525 409 2770 889 
Q 3016 1369 3016 2328 
Q 3016 3291 2770 3770 
Q 2525 4250 2034 4250 
z
M 2034 4750 
Q 2819 4750 3233 4129 
Q 3647 3509 3647 2328 
Q 3647 1150 3233 529 
Q 2819 -91 2034 -91 
Q 1250 -91 836 529 
Q 422 1150 422 2328 
Q 422 3509 836 4129 
Q 1250 4750 2034 4750 
z
" transform="scale(0.015625)"/>
       </defs>
       <use xlink:href="#DejaVuSans-37"/>
       <use xlink:href="#DejaVuSans-30" x="63.623047"/>
       <use xlink:href="#DejaVuSans-30" x="127.246094"/>
      </g>
     </g>
    </g>
    <g id="xtick_2">
     <g id="line2d_2">
      <g>
       <use xlink:href="#m2d3608573f" x="580.981665" y="961.2" style="stroke: #000000; stroke-width: 0.8"/>
      </g>
     </g>
     <g id="text_2">
      <!-- 800 -->
      <g transform="translate(571.437915 975.798437) scale(0.1 -0.1)">
       <defs>
        <path id="DejaVuSans-38" d="M 2034 2216 
Q 1584 2216 1326 1975 
Q 1069 1734 1069 1313 
Q 1069 891 1326 650 
Q 1584 409 2034 409 
Q 2484 409 2743 651 
Q 3003 894 3003 1313 
Q 3003 1734 2745 1975 
Q 2488 2216 2034 2216 
z
M 1403 2484 
Q 997 2584 770 2862 
Q 544 3141 544 3541 
Q 544 4100 942 4425 
Q 1341 4750 2034 4750 
Q 2731 4750 3128 4425 
Q 3525 4100 3525 3541 
Q 3525 3141 3298 2862 
Q 3072 2584 2669 2484 
Q 3125 2378 3379 2068 
Q 3634 1759 3634 1313 
Q 3634 634 3220 271 
Q 2806 -91 2034 -91 
Q 1263 -91 848 271 
Q 434 634 434 1313 
Q 434 1759 690 2068 
Q 947 2378 1403 2484 
z
M 1172 3481 
Q 1172 3119 1398 2916 
Q 1625 2713 2034 2713 
Q 2441 2713 2670 2916 
Q 2900 3119 2900 3481 
Q 2900 3844 2670 4047 
Q 2441 4250 2034 4250 
Q 1625 4250 1398 4047 
Q 1172 3844 1172 3481 
z
" transform="scale(0.015625)"/>
       </defs>
       <use xlink:href="#DejaVuSans-38"/>
       <use xlink:href="#DejaVuSans-30" x="63.623047"/>
       <use xlink:href="#DejaVuSans-30" x="127.246094"/>
      </g>
     </g>
    </g>
    <g id="xtick_3">
     <g id="line2d_3">
      <g>
       <use xlink:href="#m2d3608573f" x="738.36312" y="961.2" style="stroke: #000000; stroke-width: 0.8"/>
      </g>
     </g>
     <g id="text_3">
      <!-- 900 -->
      <g transform="translate(728.81937 975.798437) scale(0.1 -0.1)">
       <defs>
        <path id="DejaVuSans-39" d="M 703 97 
L 703 672 
Q 941 559 1184 500 
Q 1428 441 1663 441 
Q 2288 441 2617 861 
Q 2947 1281 2994 2138 
Q 2813 1869 2534 1725 
Q 2256 1581 1919 1581 
Q 1219 1581 811 2004 
Q 403 2428 403 3163 
Q 403 3881 828 4315 
Q 1253 4750 1959 4750 
Q 2769 4750 3195 4129 
Q 3622 3509 3622 2328 
Q 3622 1225 3098 567 
Q 2575 -91 1691 -91 
Q 1453 -91 1209 -44 
Q 966 3 703 97 
z
M 1959 2075 
Q 2384 2075 2632 2365 
Q 2881 2656 2881 3163 
Q 2881 3666 2632 3958 
Q 2384 4250 1959 4250 
Q 1534 4250 1286 3958 
Q 1038 3666 1038 3163 
Q 1038 2656 1286 2365 
Q 1534 2075 1959 2075 
z
" transform="scale(0.015625)"/>
       </defs>
       <use xlink:href="#DejaVuSans-39"/>
       <use xlink:href="#DejaVuSans-30" x="63.623047"/>
       <use xlink:href="#DejaVuSans-30" x="127.246094"/>
      </g>
     </g>
    </g>
    <g id="xtick_4">
     <g id="line2d_4">
      <g>
       <use xlink:href="#m2d3608573f" x="895.744576" y="961.2" style="stroke: #000000; stroke-width: 0.8"/>
      </g>
     </g>
     <g id="text_4">
      <!-- 1000 -->
      <g transform="translate(883.019576 975.798437) scale(0.1 -0.1)">
       <defs>
        <path id="DejaVuSans-31" d="M 794 531 
L 1825 531 
L 1825 4091 
L 703 3866 
L 703 4441 
L 1819 4666 
L 2450 4666 
L 2450 531 
L 3481 531 
L 3481 0 
L 794 0 
L 794 531 
z
" transform="scale(0.015625)"/>
       </defs>
       <use xlink:href="#DejaVuSans-31"/>
       <use xlink:href="#DejaVuSans-30" x="63.623047"/>
       <use xlink:href="#DejaVuSans-30" x="127.246094"/>
       <use xlink:href="#DejaVuSans-30" x="190.869141"/>
      </g>
     </g>
    </g>
    <g id="xtick_5">
     <g id="line2d_5">
      <g>
       <use xlink:href="#m2d3608573f" x="1053.126032" y="961.2" style="stroke: #000000; stroke-width: 0.8"/>
      </g>
     </g>
     <g id="text_5">
      <!-- 1100 -->
      <g transform="translate(1040.401032 975.798437) scale(0.1 -0.1)">
       <use xlink:href="#DejaVuSans-31"/>
       <use xlink:href="#DejaVuSans-31" x="63.623047"/>
       <use xlink:href="#DejaVuSans-30" x="127.246094"/>
       <use xlink:href="#DejaVuSans-30" x="190.869141"/>
      </g>
     </g>
    </g>
   </g>
   <g id="matplotlib.axis_2">
    <g id="ytick_1">
     <g id="line2d_6">
      <defs>
       <path id="md002137fab" d="M 0 0 
L -3.5 0 
" style="stroke: #000000; stroke-width: 0.8"/>
      </defs>
      <g>
       <use xlink:href="#md002137fab" x="362.762249" y="879.904873" style="stroke: #000000; stroke-width: 0.8"/>
      </g>
     </g>
     <g id="text_6">
      <!-- 1000 -->
      <g transform="translate(330.312249 883.704092) scale(0.1 -0.1)">
       <use xlink:href="#DejaVuSans-31"/>
       <use xlink:href="#DejaVuSans-30" x="63.623047"/>
       <use xlink:href="#DejaVuSans-30" x="127.246094"/>
       <use xlink:href="#DejaVuSans-30" x="190.869141"/>
      </g>
     </g>
    </g>
    <g id="ytick_2">
     <g id="line2d_7">
      <g>
       <use xlink:href="#md002137fab" x="362.762249" y="722.523418" style="stroke: #000000; stroke-width: 0.8"/>
      </g>
     </g>
     <g id="text_7">
      <!-- 1100 -->
      <g transform="translate(330.312249 726.322636) scale(0.1 -0.1)">
       <use xlink:href="#DejaVuSans-31"/>
       <use xlink:href="#DejaVuSans-31" x="63.623047"/>
       <use xlink:href="#DejaVuSans-30" x="127.246094"/>
       <use xlink:href="#DejaVuSans-30" x="190.869141"/>
      </g>
     </g>
    </g>
    <g id="ytick_3">
     <g id="line2d_8">
      <g>
       <use xlink:href="#md002137fab" x="362.762249" y="565.141962" style="stroke: #000000; stroke-width: 0.8"/>
      </g>
     </g>
     <g id="text_8">
      <!-- 1200 -->
      <g transform="translate(330.312249 568.941181) scale(0.1 -0.1)">
       <defs>
        <path id="DejaVuSans-32" d="M 1228 531 
L 3431 531 
L 3431 0 
L 469 0 
L 469 531 
Q 828 903 1448 1529 
Q 2069 2156 2228 2338 
Q 2531 2678 2651 2914 
Q 2772 3150 2772 3378 
Q 2772 3750 2511 3984 
Q 2250 4219 1831 4219 
Q 1534 4219 1204 4116 
Q 875 4013 500 3803 
L 500 4441 
Q 881 4594 1212 4672 
Q 1544 4750 1819 4750 
Q 2544 4750 2975 4387 
Q 3406 4025 3406 3419 
Q 3406 3131 3298 2873 
Q 3191 2616 2906 2266 
Q 2828 2175 2409 1742 
Q 1991 1309 1228 531 
z
" transform="scale(0.015625)"/>
       </defs>
       <use xlink:href="#DejaVuSans-31"/>
       <use xlink:href="#DejaVuSans-32" x="63.623047"/>
       <use xlink:href="#DejaVuSans-30" x="127.246094"/>
       <use xlink:href="#DejaVuSans-30" x="190.869141"/>
      </g>
     </g>
    </g>
    <g id="ytick_4">
     <g id="line2d_9">
      <g>
       <use xlink:href="#md002137fab" x="362.762249" y="407.760506" style="stroke: #000000; stroke-width: 0.8"/>
      </g>
     </g>
     <g id="text_9">
      <!-- 1300 -->
      <g transform="translate(330.312249 411.559725) scale(0.1 -0.1)">
       <defs>
        <path id="DejaVuSans-33" d="M 2597 2516 
Q 3050 2419 3304 2112 
Q 3559 1806 3559 1356 
Q 3559 666 3084 287 
Q 2609 -91 1734 -91 
Q 1441 -91 1130 -33 
Q 819 25 488 141 
L 488 750 
Q 750 597 1062 519 
Q 1375 441 1716 441 
Q 2309 441 2620 675 
Q 2931 909 2931 1356 
Q 2931 1769 2642 2001 
Q 2353 2234 1838 2234 
L 1294 2234 
L 1294 2753 
L 1863 2753 
Q 2328 2753 2575 2939 
Q 2822 3125 2822 3475 
Q 2822 3834 2567 4026 
Q 2313 4219 1838 4219 
Q 1578 4219 1281 4162 
Q 984 4106 628 3988 
L 628 4550 
Q 988 4650 1302 4700 
Q 1616 4750 1894 4750 
Q 2613 4750 3031 4423 
Q 3450 4097 3450 3541 
Q 3450 3153 3228 2886 
Q 3006 2619 2597 2516 
z
" transform="scale(0.015625)"/>
       </defs>
       <use xlink:href="#DejaVuSans-31"/>
       <use xlink:href="#DejaVuSans-33" x="63.623047"/>
       <use xlink:href="#DejaVuSans-30" x="127.246094"/>
       <use xlink:href="#DejaVuSans-30" x="190.869141"/>
      </g>
     </g>
    </g>
    <g id="ytick_5">
     <g id="line2d_10">
      <g>
       <use xlink:href="#md002137fab" x="362.762249" y="250.379051" style="stroke: #000000; stroke-width: 0.8"/>
      </g>
     </g>
     <g id="text_10">
      <!-- 1400 -->
      <g transform="translate(330.312249 254.178269) scale(0.1 -0.1)">
       <defs>
        <path id="DejaVuSans-34" d="M 2419 4116 
L 825 1625 
L 2419 1625 
L 2419 4116 
z
M 2253 4666 
L 3047 4666 
L 3047 1625 
L 3713 1625 
L 3713 1100 
L 3047 1100 
L 3047 0 
L 2419 0 
L 2419 1100 
L 313 1100 
L 313 1709 
L 2253 4666 
z
" transform="scale(0.015625)"/>
       </defs>
       <use xlink:href="#DejaVuSans-31"/>
       <use xlink:href="#DejaVuSans-34" x="63.623047"/>
       <use xlink:href="#DejaVuSans-30" x="127.246094"/>
       <use xlink:href="#DejaVuSans-30" x="190.869141"/>
      </g>
     </g>
    </g>
   </g>
   <g id="LineCollection_1">
    <path d="M 1079.125228 233.57873 
L 1052.487287 223.890354 
L 1026.503831 214.570237 
L 1001.30316 205.783437 
L 976.983247 197.668835 
L 953.613727 190.342052 
L 931.237481 183.898641 
L 909.87203 178.417751 
L 889.511063 173.966495 
L 870.126703 170.605277 
L 851.673561 168.394185 
L 834.09628 167.4 
L 820.268452 167.547022 
L 817.342762 167.702092 
L 804.732282 168.907202 
L 801.384723 169.393098 
L 789.952001 171.627547 
L 786.243634 172.567676 
L 775.942001 175.794561 
L 772.0122 177.293221 
L 762.788999 181.468673 
L 758.852813 183.565956 
L 750.650427 188.640253 
L 746.957874 191.273918 
L 739.714689 197.192536 
L 736.481986 200.197338 
L 730.133288 206.901922 
L 727.484237 210.055765 
L 721.963046 217.485042 
L 719.914311 220.574503 
L 715.152153 228.665125 
L 713.640635 231.532156 
L 708.49326 242.774057 
L 704.298054 254.201409 
L 700.895153 265.752399 
L 698.145132 277.385515 
L 695.928592 289.068296 
L 694.143277 300.77099 
L 692.700853 312.463599 
L 691.524174 324.1149 
L 690.545225 335.692539 
L 688.945887 358.495333 
L 686.714498 391.499638 
L 685.863365 402.033013 
L 684.909515 412.28881 
L 683.830502 422.250249 
L 682.60833 431.904921 
L 681.229112 441.245194 
L 679.682658 450.268529 
L 677.961983 458.977676 
L 676.062743 467.380727 
L 673.982634 475.490981 
L 671.720801 483.326602 
L 669.277307 490.910061 
L 666.652741 498.267395 
L 663.847993 505.427314 
L 660.864241 512.420258 
L 657.703135 519.27747 
L 654.367139 526.03018 
L 650.859964 532.708948 
L 647.187014 539.343194 
L 643.355774 545.960902 
L 635.260258 559.250557 
L 626.681534 572.768446 
L 613.16587 593.915543 
L 604.014346 608.701215 
L 599.466248 616.318987 
L 594.962694 624.090859 
L 590.520292 632.015867 
L 586.152585 640.089799 
L 581.869589 648.305281 
L 577.677467 656.65191 
L 573.578339 665.116402 
L 569.570236 673.682719 
L 561.799364 691.043538 
L 554.27297 708.55423 
L 543.054209 734.758408 
L 539.248547 743.324739 
L 535.368776 751.741209 
L 531.388147 759.969776 
L 527.279948 767.972664 
L 523.0177 775.71376 
L 518.574981 783.16036 
L 513.924688 790.285165 
L 509.037586 797.068299 
L 503.880059 803.498915 
L 498.411245 809.575848 
L 492.58009 815.306743 
L 486.323205 820.705362 
L 479.564561 825.787365 
L 472.217778 830.565511 
L 464.190994 835.045706 
L 455.393418 839.225176 
L 445.742094 843.093364 
L 435.167451 846.635218 
L 423.616853 849.835937 
L 411.056076 852.686063 
L 396.874772 855.295521 
L 396.874772 855.295521 
" clip-path="url(#pc19f11e4ab)" style="fill: none; stroke: #1f77b4; stroke-width: 1.5"/>
    <path d="M 1067.290363 266.117196 
L 1040.795573 256.480532 
L 1015.100679 247.262499 
L 990.337192 238.624926 
L 966.612569 230.703134 
L 944.012164 223.608039 
L 922.601087 217.428159 
L 902.425979 212.231538 
L 883.51671 208.067574 
L 865.887992 204.968764 
L 849.540912 202.952363 
L 834.464391 202.021963 
L 820.636563 202.168985 
L 808.026083 203.374095 
L 796.593361 205.608545 
L 786.291728 208.83543 
L 777.068526 213.010882 
L 768.86614 218.085179 
L 761.622956 224.003797 
L 755.274259 230.708381 
L 749.753068 238.137658 
L 744.990911 246.22828 
L 740.918538 254.915605 
L 737.466581 264.134419 
L 734.566153 273.819592 
L 732.149399 283.906684 
L 730.14999 294.33249 
L 728.503567 305.035532 
L 727.148139 315.956495 
L 726.02443 327.038622 
L 725.076183 338.228049 
L 724.250417 349.474098 
L 723.497648 360.729525 
L 722.772061 371.950728 
L 722.031647 383.097901 
L 721.238308 394.135163 
L 720.357916 405.030641 
L 719.360346 415.756514 
L 718.219475 426.289032 
L 716.913147 436.608495 
L 715.423117 446.699201 
L 713.734958 456.549368 
L 711.837948 466.151029 
L 709.724936 475.499898 
L 707.39218 484.595215 
L 704.839164 493.439571 
L 702.068406 502.038706 
L 699.085237 510.401297 
L 695.897572 518.538722 
L 692.515662 526.464819 
L 688.95184 534.19562 
L 685.220253 541.749082 
L 681.336586 549.14481 
L 677.317777 556.403763 
L 673.181728 563.547967 
L 668.947019 570.600214 
L 664.632603 577.583764 
L 660.257524 584.522046 
L 655.840613 591.438358 
L 651.400205 598.355573 
L 646.95385 605.295851 
L 642.518034 612.280355 
L 638.107913 619.328976 
L 633.737046 626.460072 
L 629.417146 633.690215 
L 625.157848 641.033956 
L 620.966483 648.5036 
L 616.847875 656.109008 
L 612.804152 663.857409 
L 608.83458 671.75324 
L 604.935418 679.798004 
L 601.099793 687.990161 
L 597.317606 696.325032 
L 593.575456 704.794749 
L 589.856603 713.388219 
L 586.14095 722.09113 
L 582.405064 730.885991 
L 578.622226 739.7522 
L 574.762522 748.666157 
L 570.792961 757.601414 
L 566.677641 766.528866 
L 562.377948 775.416986 
L 557.852802 784.232099 
L 553.058941 792.938713 
L 547.951253 801.499889 
L 542.483158 809.877666 
L 536.60703 818.033536 
L 530.274676 825.928973 
L 523.437867 833.52602 
L 516.048914 840.787927 
L 508.061311 847.679859 
L 499.430427 854.169649 
L 490.114255 860.228631 
L 480.07423 865.832528 
L 469.276098 870.962404 
L 457.690859 875.605692 
L 445.295764 879.757285 
L 432.075389 883.420706 
L 418.022772 886.609342 
L 403.14062 889.347761 
" clip-path="url(#pc19f11e4ab)" style="fill: none; stroke: #8c564b; stroke-width: 1.5"/>
    <path d="M 1055.455497 298.655663 
L 1029.032227 289.045012 
L 1003.553021 279.904357 
L 979.152134 271.39326 
L 955.943375 263.643718 
L 934.024701 256.762642 
L 913.480204 250.832884 
L 894.382243 245.91371 
L 876.793437 242.040522 
L 860.768095 239.223556 
L 846.352258 237.445373 
L 833.58097 236.657233 
L 822.470802 236.77536 
L 813.005545 237.6799 
L 805.114914 239.222071 
L 798.651951 241.246531 
L 793.383827 243.631472 
L 789.014564 246.334459 
L 785.243525 249.415885 
L 781.833714 253.016839 
L 778.650269 257.30046 
L 775.652595 262.393331 
L 772.857477 268.355972 
L 770.300664 275.184211 
L 768.011958 282.826706 
L 766.004692 291.204671 
L 764.274402 300.227172 
L 762.801697 309.800912 
L 761.556254 319.835702 
L 760.500551 330.24715 
L 759.592882 340.957751 
L 758.046943 363.001877 
L 755.749746 396.923807 
L 754.83305 408.237033 
L 753.782915 419.48513 
L 752.569266 430.637327 
L 751.165651 441.666343 
L 749.549478 452.547908 
L 747.702279 463.260326 
L 745.610005 473.784119 
L 743.263323 484.101786 
L 740.657896 494.197712 
L 737.79458 504.058252 
L 734.679488 513.671986 
L 731.323865 523.030102 
L 727.74374 532.126858 
L 723.959334 540.960037 
L 719.994272 549.531305 
L 715.874647 557.846412 
L 711.628004 565.915195 
L 707.282354 573.751383 
L 702.865251 581.372229 
L 694.088593 595.78158 
L 689.438501 603.157669 
L 667.544638 637.558636 
L 659.255203 651.255999 
L 655.232398 658.191988 
L 651.288865 665.219957 
L 647.42041 672.363433 
L 643.620848 679.643984 
L 639.882054 687.080776 
L 636.193923 694.690141 
L 628.918381 710.475528 
L 621.666412 727.06152 
L 606.404447 762.72334 
L 602.236829 772.096207 
L 597.846072 781.606822 
L 593.180423 791.229114 
L 588.183145 800.931985 
L 582.793078 810.678412 
L 576.945761 820.424328 
L 570.575284 830.117436 
L 563.617042 839.696293 
L 556.011331 849.090158 
L 547.70746 858.220203 
L 538.667663 867.00258 
L 528.869767 875.353385 
L 518.307662 883.194911 
L 506.989154 890.461951 
L 494.931663 897.106679 
L 482.157079 903.101107 
L 468.68732 908.436983 
L 454.541775 913.123843 
L 439.737034 917.186296 
L 424.28862 920.661581 
L 409.406468 923.4 
L 409.406468 923.4 
" clip-path="url(#pc19f11e4ab)" style="fill: none; stroke: #17becf; stroke-width: 1.5"/>
   </g>
   <g id="patch_3">
    <path d="M 362.762249 961.2 
L 362.762249 129.6 
" style="fill: none; stroke: #000000; stroke-width: 0.8; stroke-linejoin: miter; stroke-linecap: square"/>
   </g>
   <g id="patch_4">
    <path d="M 1113.237751 961.2 
L 1113.237751 129.6 
" style="fill: none; stroke: #000000; stroke-width: 0.8; stroke-linejoin: miter; stroke-linecap: square"/>
   </g>
   <g id="patch_5">
    <path d="M 362.762249 961.2 
L 1113.237751 961.2 
" style="fill: none; stroke: #000000; stroke-width: 0.8; stroke-linejoin: miter; stroke-linecap: square"/>
   </g>
   <g id="patch_6">
    <path d="M 362.762249 129.6 
L 1113.237751 129.6 
" style="fill: none; stroke: #000000; stroke-width: 0.8; stroke-linejoin: miter; stroke-linecap: square"/>
   </g>
  </g>
 </g>
 <defs>
  <clipPath id="pc19f11e4ab">
   <rect x="362.762249" y="129.6" width="750.475502" height="831.6"/>
  </clipPath>
 </defs>
</svg>
