<?xml version="1.0" encoding="utf-8" standalone="no"?>
<!DOCTYPE svg PUBLIC "-//W3C//DTD SVG 1.1//EN"
  "http://www.w3.org/Graphics/SVG/1.1/DTD/svg11.dtd">
<svg xmlns:xlink="http://www.w3.org/1999/xlink" width="1440pt" height="1080pt" viewBox="0 0 1440 1080" xmlns="http://www.w3.org/2000/svg" version="1.1">
 <metadata>
  <rdf:RDF xmlns:dc="http://purl.org/dc/elements/1.1/" xmlns:cc="http://creativecommons.org/ns#" xmlns:rdf="http://www.w3.org/1999/02/22-rdf-syntax-ns#">
   <cc:Work>
    <dc:type rdf:resource="http://purl.org/dc/dcmitype/StillImage"/>
    <dc:date>2023-12-11T12:06:43.708067</dc:date>
    <dc:format>image/svg+xml</dc:format>
    <dc:creator>
     <cc:Agent>
      <dc:title>Matplotlib v3.7.1, https://matplotlib.org/</dc:title>
     </cc:Agent>
    </dc:creator>
   </cc:Work>
  </rdf:RDF>
 </metadata>
 <defs>
  <style type="text/css">*{stroke-linejoin: round; stroke-linecap: butt}</style>
 </defs>
 <g id="figure_1">
  <g id="patch_1">
   <path d="M 0 1080 
L 1440 1080 
L 1440 0 
L 0 0 
z
" style="fill: #ffffff"/>
  </g>
  <g id="axes_1">
   <g id="patch_2">
    <path d="M 608.903628 961.2 
L 867.096372 961.2 
L 867.096372 129.6 
L 608.903628 129.6 
z
" style="fill: #ffffff"/>
   </g>
   <g id="matplotlib.axis_1">
    <g id="xtick_1">
     <g id="line2d_1">
      <defs>
       <path id="mcec8ee748e" d="M 0 0 
L 0 3.5 
" style="stroke: #000000; stroke-width: 0.8"/>
      </defs>
      <g>
       <use xlink:href="#mcec8ee748e" x="632.528663" y="961.2" style="stroke: #000000; stroke-width: 0.8"/>
      </g>
     </g>
     <g id="text_1">
      <!-- 1050 -->
      <g transform="translate(619.803663 975.798437) scale(0.1 -0.1)">
       <defs>
        <path id="DejaVuSans-31" d="M 794 531 
L 1825 531 
L 1825 4091 
L 703 3866 
L 703 4441 
L 1819 4666 
L 2450 4666 
L 2450 531 
L 3481 531 
L 3481 0 
L 794 0 
L 794 531 
z
" transform="scale(0.015625)"/>
        <path id="DejaVuSans-30" d="M 2034 4250 
Q 1547 4250 1301 3770 
Q 1056 3291 1056 2328 
Q 1056 1369 1301 889 
Q 1547 409 2034 409 
Q 2525 409 2770 889 
Q 3016 1369 3016 2328 
Q 3016 3291 2770 3770 
Q 2525 4250 2034 4250 
z
M 2034 4750 
Q 2819 4750 3233 4129 
Q 3647 3509 3647 2328 
Q 3647 1150 3233 529 
Q 2819 -91 2034 -91 
Q 1250 -91 836 529 
Q 422 1150 422 2328 
Q 422 3509 836 4129 
Q 1250 4750 2034 4750 
z
" transform="scale(0.015625)"/>
        <path id="DejaVuSans-35" d="M 691 4666 
L 3169 4666 
L 3169 4134 
L 1269 4134 
L 1269 2991 
Q 1406 3038 1543 3061 
Q 1681 3084 1819 3084 
Q 2600 3084 3056 2656 
Q 3513 2228 3513 1497 
Q 3513 744 3044 326 
Q 2575 -91 1722 -91 
Q 1428 -91 1123 -41 
Q 819 9 494 109 
L 494 744 
Q 775 591 1075 516 
Q 1375 441 1709 441 
Q 2250 441 2565 725 
Q 2881 1009 2881 1497 
Q 2881 1984 2565 2268 
Q 2250 2553 1709 2553 
Q 1456 2553 1204 2497 
Q 953 2441 691 2322 
L 691 4666 
z
" transform="scale(0.015625)"/>
       </defs>
       <use xlink:href="#DejaVuSans-31"/>
       <use xlink:href="#DejaVuSans-30" x="63.623047"/>
       <use xlink:href="#DejaVuSans-35" x="127.246094"/>
       <use xlink:href="#DejaVuSans-30" x="190.869141"/>
      </g>
     </g>
    </g>
    <g id="xtick_2">
     <g id="line2d_2">
      <g>
       <use xlink:href="#mcec8ee748e" x="670.704404" y="961.2" style="stroke: #000000; stroke-width: 0.8"/>
      </g>
     </g>
     <g id="text_2">
      <!-- 1100 -->
      <g transform="translate(657.979404 975.798437) scale(0.1 -0.1)">
       <use xlink:href="#DejaVuSans-31"/>
       <use xlink:href="#DejaVuSans-31" x="63.623047"/>
       <use xlink:href="#DejaVuSans-30" x="127.246094"/>
       <use xlink:href="#DejaVuSans-30" x="190.869141"/>
      </g>
     </g>
    </g>
    <g id="xtick_3">
     <g id="line2d_3">
      <g>
       <use xlink:href="#mcec8ee748e" x="708.880146" y="961.2" style="stroke: #000000; stroke-width: 0.8"/>
      </g>
     </g>
     <g id="text_3">
      <!-- 1150 -->
      <g transform="translate(696.155146 975.798437) scale(0.1 -0.1)">
       <use xlink:href="#DejaVuSans-31"/>
       <use xlink:href="#DejaVuSans-31" x="63.623047"/>
       <use xlink:href="#DejaVuSans-35" x="127.246094"/>
       <use xlink:href="#DejaVuSans-30" x="190.869141"/>
      </g>
     </g>
    </g>
    <g id="xtick_4">
     <g id="line2d_4">
      <g>
       <use xlink:href="#mcec8ee748e" x="747.055887" y="961.2" style="stroke: #000000; stroke-width: 0.8"/>
      </g>
     </g>
     <g id="text_4">
      <!-- 1200 -->
      <g transform="translate(734.330887 975.798437) scale(0.1 -0.1)">
       <defs>
        <path id="DejaVuSans-32" d="M 1228 531 
L 3431 531 
L 3431 0 
L 469 0 
L 469 531 
Q 828 903 1448 1529 
Q 2069 2156 2228 2338 
Q 2531 2678 2651 2914 
Q 2772 3150 2772 3378 
Q 2772 3750 2511 3984 
Q 2250 4219 1831 4219 
Q 1534 4219 1204 4116 
Q 875 4013 500 3803 
L 500 4441 
Q 881 4594 1212 4672 
Q 1544 4750 1819 4750 
Q 2544 4750 2975 4387 
Q 3406 4025 3406 3419 
Q 3406 3131 3298 2873 
Q 3191 2616 2906 2266 
Q 2828 2175 2409 1742 
Q 1991 1309 1228 531 
z
" transform="scale(0.015625)"/>
       </defs>
       <use xlink:href="#DejaVuSans-31"/>
       <use xlink:href="#DejaVuSans-32" x="63.623047"/>
       <use xlink:href="#DejaVuSans-30" x="127.246094"/>
       <use xlink:href="#DejaVuSans-30" x="190.869141"/>
      </g>
     </g>
    </g>
    <g id="xtick_5">
     <g id="line2d_5">
      <g>
       <use xlink:href="#mcec8ee748e" x="785.231629" y="961.2" style="stroke: #000000; stroke-width: 0.8"/>
      </g>
     </g>
     <g id="text_5">
      <!-- 1250 -->
      <g transform="translate(772.506629 975.798437) scale(0.1 -0.1)">
       <use xlink:href="#DejaVuSans-31"/>
       <use xlink:href="#DejaVuSans-32" x="63.623047"/>
       <use xlink:href="#DejaVuSans-35" x="127.246094"/>
       <use xlink:href="#DejaVuSans-30" x="190.869141"/>
      </g>
     </g>
    </g>
    <g id="xtick_6">
     <g id="line2d_6">
      <g>
       <use xlink:href="#mcec8ee748e" x="823.40737" y="961.2" style="stroke: #000000; stroke-width: 0.8"/>
      </g>
     </g>
     <g id="text_6">
      <!-- 1300 -->
      <g transform="translate(810.68237 975.798437) scale(0.1 -0.1)">
       <defs>
        <path id="DejaVuSans-33" d="M 2597 2516 
Q 3050 2419 3304 2112 
Q 3559 1806 3559 1356 
Q 3559 666 3084 287 
Q 2609 -91 1734 -91 
Q 1441 -91 1130 -33 
Q 819 25 488 141 
L 488 750 
Q 750 597 1062 519 
Q 1375 441 1716 441 
Q 2309 441 2620 675 
Q 2931 909 2931 1356 
Q 2931 1769 2642 2001 
Q 2353 2234 1838 2234 
L 1294 2234 
L 1294 2753 
L 1863 2753 
Q 2328 2753 2575 2939 
Q 2822 3125 2822 3475 
Q 2822 3834 2567 4026 
Q 2313 4219 1838 4219 
Q 1578 4219 1281 4162 
Q 984 4106 628 3988 
L 628 4550 
Q 988 4650 1302 4700 
Q 1616 4750 1894 4750 
Q 2613 4750 3031 4423 
Q 3450 4097 3450 3541 
Q 3450 3153 3228 2886 
Q 3006 2619 2597 2516 
z
" transform="scale(0.015625)"/>
       </defs>
       <use xlink:href="#DejaVuSans-31"/>
       <use xlink:href="#DejaVuSans-33" x="63.623047"/>
       <use xlink:href="#DejaVuSans-30" x="127.246094"/>
       <use xlink:href="#DejaVuSans-30" x="190.869141"/>
      </g>
     </g>
    </g>
    <g id="xtick_7">
     <g id="line2d_7">
      <g>
       <use xlink:href="#mcec8ee748e" x="861.583111" y="961.2" style="stroke: #000000; stroke-width: 0.8"/>
      </g>
     </g>
     <g id="text_7">
      <!-- 1350 -->
      <g transform="translate(848.858111 975.798437) scale(0.1 -0.1)">
       <use xlink:href="#DejaVuSans-31"/>
       <use xlink:href="#DejaVuSans-33" x="63.623047"/>
       <use xlink:href="#DejaVuSans-35" x="127.246094"/>
       <use xlink:href="#DejaVuSans-30" x="190.869141"/>
      </g>
     </g>
    </g>
   </g>
   <g id="matplotlib.axis_2">
    <g id="ytick_1">
     <g id="line2d_8">
      <defs>
       <path id="mea85eaaba3" d="M 0 0 
L -3.5 0 
" style="stroke: #000000; stroke-width: 0.8"/>
      </defs>
      <g>
       <use xlink:href="#mea85eaaba3" x="608.903628" y="913.401645" style="stroke: #000000; stroke-width: 0.8"/>
      </g>
     </g>
     <g id="text_8">
      <!-- 0 -->
      <g transform="translate(595.541128 917.200863) scale(0.1 -0.1)">
       <use xlink:href="#DejaVuSans-30"/>
      </g>
     </g>
    </g>
    <g id="ytick_2">
     <g id="line2d_9">
      <g>
       <use xlink:href="#mea85eaaba3" x="608.903628" y="760.698679" style="stroke: #000000; stroke-width: 0.8"/>
      </g>
     </g>
     <g id="text_9">
      <!-- 200 -->
      <g transform="translate(582.816128 764.497898) scale(0.1 -0.1)">
       <use xlink:href="#DejaVuSans-32"/>
       <use xlink:href="#DejaVuSans-30" x="63.623047"/>
       <use xlink:href="#DejaVuSans-30" x="127.246094"/>
      </g>
     </g>
    </g>
    <g id="ytick_3">
     <g id="line2d_10">
      <g>
       <use xlink:href="#mea85eaaba3" x="608.903628" y="607.995713" style="stroke: #000000; stroke-width: 0.8"/>
      </g>
     </g>
     <g id="text_10">
      <!-- 400 -->
      <g transform="translate(582.816128 611.794932) scale(0.1 -0.1)">
       <defs>
        <path id="DejaVuSans-34" d="M 2419 4116 
L 825 1625 
L 2419 1625 
L 2419 4116 
z
M 2253 4666 
L 3047 4666 
L 3047 1625 
L 3713 1625 
L 3713 1100 
L 3047 1100 
L 3047 0 
L 2419 0 
L 2419 1100 
L 313 1100 
L 313 1709 
L 2253 4666 
z
" transform="scale(0.015625)"/>
       </defs>
       <use xlink:href="#DejaVuSans-34"/>
       <use xlink:href="#DejaVuSans-30" x="63.623047"/>
       <use xlink:href="#DejaVuSans-30" x="127.246094"/>
      </g>
     </g>
    </g>
    <g id="ytick_4">
     <g id="line2d_11">
      <g>
       <use xlink:href="#mea85eaaba3" x="608.903628" y="455.292747" style="stroke: #000000; stroke-width: 0.8"/>
      </g>
     </g>
     <g id="text_11">
      <!-- 600 -->
      <g transform="translate(582.816128 459.091966) scale(0.1 -0.1)">
       <defs>
        <path id="DejaVuSans-36" d="M 2113 2584 
Q 1688 2584 1439 2293 
Q 1191 2003 1191 1497 
Q 1191 994 1439 701 
Q 1688 409 2113 409 
Q 2538 409 2786 701 
Q 3034 994 3034 1497 
Q 3034 2003 2786 2293 
Q 2538 2584 2113 2584 
z
M 3366 4563 
L 3366 3988 
Q 3128 4100 2886 4159 
Q 2644 4219 2406 4219 
Q 1781 4219 1451 3797 
Q 1122 3375 1075 2522 
Q 1259 2794 1537 2939 
Q 1816 3084 2150 3084 
Q 2853 3084 3261 2657 
Q 3669 2231 3669 1497 
Q 3669 778 3244 343 
Q 2819 -91 2113 -91 
Q 1303 -91 875 529 
Q 447 1150 447 2328 
Q 447 3434 972 4092 
Q 1497 4750 2381 4750 
Q 2619 4750 2861 4703 
Q 3103 4656 3366 4563 
z
" transform="scale(0.015625)"/>
       </defs>
       <use xlink:href="#DejaVuSans-36"/>
       <use xlink:href="#DejaVuSans-30" x="63.623047"/>
       <use xlink:href="#DejaVuSans-30" x="127.246094"/>
      </g>
     </g>
    </g>
    <g id="ytick_5">
     <g id="line2d_12">
      <g>
       <use xlink:href="#mea85eaaba3" x="608.903628" y="302.589782" style="stroke: #000000; stroke-width: 0.8"/>
      </g>
     </g>
     <g id="text_12">
      <!-- 800 -->
      <g transform="translate(582.816128 306.389001) scale(0.1 -0.1)">
       <defs>
        <path id="DejaVuSans-38" d="M 2034 2216 
Q 1584 2216 1326 1975 
Q 1069 1734 1069 1313 
Q 1069 891 1326 650 
Q 1584 409 2034 409 
Q 2484 409 2743 651 
Q 3003 894 3003 1313 
Q 3003 1734 2745 1975 
Q 2488 2216 2034 2216 
z
M 1403 2484 
Q 997 2584 770 2862 
Q 544 3141 544 3541 
Q 544 4100 942 4425 
Q 1341 4750 2034 4750 
Q 2731 4750 3128 4425 
Q 3525 4100 3525 3541 
Q 3525 3141 3298 2862 
Q 3072 2584 2669 2484 
Q 3125 2378 3379 2068 
Q 3634 1759 3634 1313 
Q 3634 634 3220 271 
Q 2806 -91 2034 -91 
Q 1263 -91 848 271 
Q 434 634 434 1313 
Q 434 1759 690 2068 
Q 947 2378 1403 2484 
z
M 1172 3481 
Q 1172 3119 1398 2916 
Q 1625 2713 2034 2713 
Q 2441 2713 2670 2916 
Q 2900 3119 2900 3481 
Q 2900 3844 2670 4047 
Q 2441 4250 2034 4250 
Q 1625 4250 1398 4047 
Q 1172 3844 1172 3481 
z
" transform="scale(0.015625)"/>
       </defs>
       <use xlink:href="#DejaVuSans-38"/>
       <use xlink:href="#DejaVuSans-30" x="63.623047"/>
       <use xlink:href="#DejaVuSans-30" x="127.246094"/>
      </g>
     </g>
    </g>
    <g id="ytick_6">
     <g id="line2d_13">
      <g>
       <use xlink:href="#mea85eaaba3" x="608.903628" y="149.886816" style="stroke: #000000; stroke-width: 0.8"/>
      </g>
     </g>
     <g id="text_13">
      <!-- 1000 -->
      <g transform="translate(576.453628 153.686035) scale(0.1 -0.1)">
       <use xlink:href="#DejaVuSans-31"/>
       <use xlink:href="#DejaVuSans-30" x="63.623047"/>
       <use xlink:href="#DejaVuSans-30" x="127.246094"/>
       <use xlink:href="#DejaVuSans-30" x="190.869141"/>
      </g>
     </g>
    </g>
   </g>
   <g id="LineCollection_1">
    <path d="M 802.166249 167.4 
L 796.792822 176.610851 
L 790.987671 185.148465 
L 784.63755 193.487785 
L 777.888434 201.64867 
L 770.875923 209.65305 
L 756.539866 225.289305 
L 742.399646 240.663596 
L 735.632544 248.291674 
L 729.156274 255.912236 
L 723.025535 263.547526 
L 717.287406 271.217299 
L 711.982331 278.938225 
L 707.144865 286.723213 
L 702.804065 294.580746 
L 698.983505 302.514372 
L 695.700914 310.522537 
L 692.967603 318.598924 
L 690.787913 326.733368 
L 689.15895 334.913234 
L 688.070809 343.125026 
L 687.507331 351.355898 
L 687.447275 359.594794 
L 687.865678 367.833085 
L 688.735192 376.0647 
L 690.02721 384.285886 
L 691.712728 392.494752 
L 693.762928 400.69074 
L 696.149538 408.87413 
L 698.845023 417.045627 
L 701.82268 425.206057 
L 705.056658 433.356159 
L 708.521965 441.496452 
L 712.194444 449.627173 
L 716.050768 457.748252 
L 720.068414 465.859321 
L 728.443076 481.939306 
L 732.875911 490.124791 
L 741.843076 506.233933 
L 755.569794 530.266279 
L 773.711311 562.015604 
L 782.436524 577.719031 
L 790.781288 593.284729 
L 798.637257 608.693292 
L 802.348327 616.33189 
L 805.896796 623.922711 
L 809.269055 631.462487 
L 812.451374 638.94771 
L 815.429887 646.37462 
L 818.190603 653.739207 
L 820.719429 661.037232 
L 823.002219 668.26426 
L 825.024839 675.415742 
L 826.773252 682.487127 
L 828.233611 689.474036 
L 829.392337 696.372503 
L 830.236182 703.179287 
L 830.75222 709.892262 
L 830.927747 716.510849 
L 830.750051 723.036466 
L 830.206022 729.472914 
L 829.281628 735.826599 
L 827.961307 742.106502 
L 826.227382 748.323816 
L 824.059666 754.491242 
L 821.435396 760.622029 
L 818.329587 766.728923 
L 814.715806 772.823238 
L 810.567265 778.914223 
L 805.858044 785.008835 
L 800.564279 791.111913 
L 794.665177 797.226649 
L 788.143801 803.355255 
L 780.987633 809.499672 
L 773.188974 815.662251 
L 764.745231 821.846344 
L 755.659175 828.056789 
L 745.939212 834.300301 
L 735.599688 840.585787 
L 724.661264 846.924608 
L 713.151345 853.330813 
L 701.104586 859.82137 
L 675.578794 873.139444 
L 648.497249 887.09915 
L 634.556083 894.400868 
L 620.639662 901.87626 
L 620.639662 901.87626 
" clip-path="url(#p8e2168b84d)" style="fill: none; stroke: #1f77b4; stroke-width: 1.5"/>
    <path d="M 812.718162 173.555776 
L 807.132175 183.130988 
L 800.905506 192.288526 
L 794.208027 201.084015 
L 787.191671 209.568041 
L 779.991636 217.786468 
L 772.727535 225.780748 
L 765.504498 233.588211 
L 758.414226 241.242346 
L 751.535996 248.773069 
L 744.937618 256.206979 
L 738.676348 263.567603 
L 732.799757 270.875625 
L 727.346551 278.149112 
L 722.347359 285.403721 
L 717.825467 292.6529 
L 713.79752 299.908073 
L 710.274179 307.178828 
L 707.260745 314.473074 
L 704.757744 321.797211 
L 702.761467 329.15627 
L 701.264491 336.554063 
L 700.25615 343.993306 
L 699.72298 351.47575 
L 699.649135 359.002289 
L 700.016761 366.573072 
L 700.806354 374.187599 
L 701.997073 381.844813 
L 703.567039 389.543185 
L 705.493601 397.280789 
L 707.75357 405.055376 
L 710.323442 412.864435 
L 713.179581 420.705251 
L 716.298392 428.574959 
L 719.656467 436.470588 
L 723.230707 444.389103 
L 726.998428 452.327441 
L 730.937451 460.282541 
L 735.026167 468.251369 
L 739.243588 476.230944 
L 743.569387 484.218353 
L 747.983919 492.210765 
L 752.468224 500.205443 
L 757.00403 508.199751 
L 761.57373 516.191158 
L 766.160359 524.177241 
L 770.747559 532.155682 
L 775.319529 540.124268 
L 779.860979 548.080884 
L 784.357068 556.023509 
L 788.793341 563.950206 
L 793.155662 571.859112 
L 797.430142 579.748434 
L 801.603064 587.616434 
L 805.660813 595.461419 
L 809.589795 603.281731 
L 813.376367 611.075738 
L 817.006766 618.841823 
L 820.467037 626.578377 
L 823.742967 634.283786 
L 826.820031 641.956431 
L 829.683333 649.594679 
L 832.317558 657.196879 
L 834.70694 664.761366 
L 836.835226 672.286458 
L 838.68566 679.770461 
L 840.240975 687.211675 
L 841.483394 694.608408 
L 842.394654 701.958986 
L 842.956031 709.261771 
L 843.148395 716.515185 
L 842.952265 723.717731 
L 842.347899 730.868027 
L 841.315389 737.96484 
L 839.83478 745.007126 
L 837.886214 751.994076 
L 835.450087 758.925164 
L 832.507239 765.80021 
L 829.039156 772.619435 
L 825.028206 779.38354 
L 820.457898 786.093773 
L 815.313166 792.752019 
L 809.580684 799.360885 
L 803.249204 805.923803 
L 796.309936 812.445132 
L 788.756942 818.930272 
L 780.587576 825.385788 
L 771.802952 831.819537 
L 762.408446 838.240812 
L 752.414231 844.660487 
L 741.835853 851.091174 
L 730.694841 857.547395 
L 719.019354 864.045752 
L 706.844872 870.605123 
L 694.214922 877.246855 
L 681.181849 883.994971 
L 667.807628 890.876394 
L 654.164719 897.921175 
L 640.336966 905.162738 
L 626.420544 912.63813 
" clip-path="url(#p8e2168b84d)" style="fill: none; stroke: #8c564b; stroke-width: 1.5"/>
    <path d="M 823.270076 179.711551 
L 817.23434 189.999955 
L 810.624737 199.689404 
L 803.622021 208.869462 
L 796.380388 217.618131 
L 789.032848 226.001877 
L 774.471782 241.88425 
L 760.614686 256.947504 
L 754.159353 264.220256 
L 748.090717 271.354423 
L 742.44968 278.369514 
L 737.267194 285.281916 
L 732.56477 292.105869 
L 728.355103 298.854508 
L 724.642918 305.540928 
L 721.426101 312.17914 
L 718.69715 318.784776 
L 716.444847 325.375333 
L 714.655965 331.969856 
L 713.31674 338.588071 
L 712.413876 345.249129 
L 711.934953 351.97028 
L 711.868281 358.765761 
L 712.202381 365.646117 
L 712.925336 372.618024 
L 714.0242 379.684538 
L 715.484596 386.845627 
L 717.290547 394.098828 
L 719.424504 401.439914 
L 721.867513 408.863476 
L 724.599477 416.363401 
L 727.599449 423.933241 
L 730.845923 431.56647 
L 734.317104 439.256667 
L 737.991149 446.997633 
L 741.846358 454.783464 
L 750.015142 470.467792 
L 758.658071 486.26934 
L 767.619056 502.153422 
L 799.4903 558.050077 
L 808.222441 574.024561 
L 816.576816 589.977139 
L 820.577895 597.943368 
L 824.443114 605.902385 
L 828.158411 613.854111 
L 831.709423 621.798712 
L 835.081374 629.736592 
L 838.258963 637.668391 
L 841.226241 645.594965 
L 843.966486 653.517351 
L 846.462074 661.436718 
L 848.694346 669.354268 
L 850.643491 677.271113 
L 852.288444 685.188078 
L 853.606825 693.105452 
L 854.574956 701.022665 
L 855.167975 708.937906 
L 855.360105 716.847717 
L 855.125097 724.746618 
L 854.436862 732.626842 
L 853.270261 740.478298 
L 851.601972 748.288838 
L 849.411289 756.044888 
L 846.680709 763.732407 
L 843.396173 771.338042 
L 839.546915 778.850282 
L 835.124991 786.260413 
L 830.124617 793.56311 
L 824.541526 800.756631 
L 818.372497 807.842658 
L 811.615149 814.825906 
L 804.268039 821.71363 
L 796.331011 828.515152 
L 787.805752 835.241465 
L 778.696479 841.90496 
L 769.010701 848.51927 
L 758.760031 855.099226 
L 747.961008 861.660892 
L 736.635935 868.221656 
L 724.813728 874.800365 
L 712.530779 881.417473 
L 686.77101 894.857647 
L 659.800976 908.759547 
L 646.0613 915.954984 
L 632.201427 923.4 
L 632.201427 923.4 
" clip-path="url(#p8e2168b84d)" style="fill: none; stroke: #17becf; stroke-width: 1.5"/>
   </g>
   <g id="patch_3">
    <path d="M 608.903628 961.2 
L 608.903628 129.6 
" style="fill: none; stroke: #000000; stroke-width: 0.8; stroke-linejoin: miter; stroke-linecap: square"/>
   </g>
   <g id="patch_4">
    <path d="M 867.096372 961.2 
L 867.096372 129.6 
" style="fill: none; stroke: #000000; stroke-width: 0.8; stroke-linejoin: miter; stroke-linecap: square"/>
   </g>
   <g id="patch_5">
    <path d="M 608.903628 961.2 
L 867.096372 961.2 
" style="fill: none; stroke: #000000; stroke-width: 0.8; stroke-linejoin: miter; stroke-linecap: square"/>
   </g>
   <g id="patch_6">
    <path d="M 608.903628 129.6 
L 867.096372 129.6 
" style="fill: none; stroke: #000000; stroke-width: 0.8; stroke-linejoin: miter; stroke-linecap: square"/>
   </g>
  </g>
 </g>
 <defs>
  <clipPath id="p8e2168b84d">
   <rect x="608.903628" y="129.6" width="258.192744" height="831.6"/>
  </clipPath>
 </defs>
</svg>
