<?xml version="1.0" encoding="utf-8" standalone="no"?>
<!DOCTYPE svg PUBLIC "-//W3C//DTD SVG 1.1//EN"
  "http://www.w3.org/Graphics/SVG/1.1/DTD/svg11.dtd">
<svg xmlns:xlink="http://www.w3.org/1999/xlink" width="1440pt" height="1080pt" viewBox="0 0 1440 1080" xmlns="http://www.w3.org/2000/svg" version="1.1">
 <metadata>
  <rdf:RDF xmlns:dc="http://purl.org/dc/elements/1.1/" xmlns:cc="http://creativecommons.org/ns#" xmlns:rdf="http://www.w3.org/1999/02/22-rdf-syntax-ns#">
   <cc:Work>
    <dc:type rdf:resource="http://purl.org/dc/dcmitype/StillImage"/>
    <dc:date>2023-12-11T12:06:46.187847</dc:date>
    <dc:format>image/svg+xml</dc:format>
    <dc:creator>
     <cc:Agent>
      <dc:title>Matplotlib v3.7.1, https://matplotlib.org/</dc:title>
     </cc:Agent>
    </dc:creator>
   </cc:Work>
  </rdf:RDF>
 </metadata>
 <defs>
  <style type="text/css">*{stroke-linejoin: round; stroke-linecap: butt}</style>
 </defs>
 <g id="figure_1">
  <g id="patch_1">
   <path d="M 0 1080 
L 1440 1080 
L 1440 0 
L 0 0 
z
" style="fill: #ffffff"/>
  </g>
  <g id="axes_1">
   <g id="patch_2">
    <path d="M 321.494535 961.2 
L 1154.505465 961.2 
L 1154.505465 129.6 
L 321.494535 129.6 
z
" style="fill: #ffffff"/>
   </g>
   <g id="matplotlib.axis_1">
    <g id="xtick_1">
     <g id="line2d_1">
      <defs>
       <path id="m1e2ebbcaf0" d="M 0 0 
L 0 3.5 
" style="stroke: #000000; stroke-width: 0.8"/>
      </defs>
      <g>
       <use xlink:href="#m1e2ebbcaf0" x="364.594529" y="961.2" style="stroke: #000000; stroke-width: 0.8"/>
      </g>
     </g>
     <g id="text_1">
      <!-- 800 -->
      <g transform="translate(355.050779 975.798437) scale(0.1 -0.1)">
       <defs>
        <path id="DejaVuSans-38" d="M 2034 2216 
Q 1584 2216 1326 1975 
Q 1069 1734 1069 1313 
Q 1069 891 1326 650 
Q 1584 409 2034 409 
Q 2484 409 2743 651 
Q 3003 894 3003 1313 
Q 3003 1734 2745 1975 
Q 2488 2216 2034 2216 
z
M 1403 2484 
Q 997 2584 770 2862 
Q 544 3141 544 3541 
Q 544 4100 942 4425 
Q 1341 4750 2034 4750 
Q 2731 4750 3128 4425 
Q 3525 4100 3525 3541 
Q 3525 3141 3298 2862 
Q 3072 2584 2669 2484 
Q 3125 2378 3379 2068 
Q 3634 1759 3634 1313 
Q 3634 634 3220 271 
Q 2806 -91 2034 -91 
Q 1263 -91 848 271 
Q 434 634 434 1313 
Q 434 1759 690 2068 
Q 947 2378 1403 2484 
z
M 1172 3481 
Q 1172 3119 1398 2916 
Q 1625 2713 2034 2713 
Q 2441 2713 2670 2916 
Q 2900 3119 2900 3481 
Q 2900 3844 2670 4047 
Q 2441 4250 2034 4250 
Q 1625 4250 1398 4047 
Q 1172 3844 1172 3481 
z
" transform="scale(0.015625)"/>
        <path id="DejaVuSans-30" d="M 2034 4250 
Q 1547 4250 1301 3770 
Q 1056 3291 1056 2328 
Q 1056 1369 1301 889 
Q 1547 409 2034 409 
Q 2525 409 2770 889 
Q 3016 1369 3016 2328 
Q 3016 3291 2770 3770 
Q 2525 4250 2034 4250 
z
M 2034 4750 
Q 2819 4750 3233 4129 
Q 3647 3509 3647 2328 
Q 3647 1150 3233 529 
Q 2819 -91 2034 -91 
Q 1250 -91 836 529 
Q 422 1150 422 2328 
Q 422 3509 836 4129 
Q 1250 4750 2034 4750 
z
" transform="scale(0.015625)"/>
       </defs>
       <use xlink:href="#DejaVuSans-38"/>
       <use xlink:href="#DejaVuSans-30" x="63.623047"/>
       <use xlink:href="#DejaVuSans-30" x="127.246094"/>
      </g>
     </g>
    </g>
    <g id="xtick_2">
     <g id="line2d_2">
      <g>
       <use xlink:href="#m1e2ebbcaf0" x="472.431393" y="961.2" style="stroke: #000000; stroke-width: 0.8"/>
      </g>
     </g>
     <g id="text_2">
      <!-- 900 -->
      <g transform="translate(462.887643 975.798437) scale(0.1 -0.1)">
       <defs>
        <path id="DejaVuSans-39" d="M 703 97 
L 703 672 
Q 941 559 1184 500 
Q 1428 441 1663 441 
Q 2288 441 2617 861 
Q 2947 1281 2994 2138 
Q 2813 1869 2534 1725 
Q 2256 1581 1919 1581 
Q 1219 1581 811 2004 
Q 403 2428 403 3163 
Q 403 3881 828 4315 
Q 1253 4750 1959 4750 
Q 2769 4750 3195 4129 
Q 3622 3509 3622 2328 
Q 3622 1225 3098 567 
Q 2575 -91 1691 -91 
Q 1453 -91 1209 -44 
Q 966 3 703 97 
z
M 1959 2075 
Q 2384 2075 2632 2365 
Q 2881 2656 2881 3163 
Q 2881 3666 2632 3958 
Q 2384 4250 1959 4250 
Q 1534 4250 1286 3958 
Q 1038 3666 1038 3163 
Q 1038 2656 1286 2365 
Q 1534 2075 1959 2075 
z
" transform="scale(0.015625)"/>
       </defs>
       <use xlink:href="#DejaVuSans-39"/>
       <use xlink:href="#DejaVuSans-30" x="63.623047"/>
       <use xlink:href="#DejaVuSans-30" x="127.246094"/>
      </g>
     </g>
    </g>
    <g id="xtick_3">
     <g id="line2d_3">
      <g>
       <use xlink:href="#m1e2ebbcaf0" x="580.268257" y="961.2" style="stroke: #000000; stroke-width: 0.8"/>
      </g>
     </g>
     <g id="text_3">
      <!-- 1000 -->
      <g transform="translate(567.543257 975.798437) scale(0.1 -0.1)">
       <defs>
        <path id="DejaVuSans-31" d="M 794 531 
L 1825 531 
L 1825 4091 
L 703 3866 
L 703 4441 
L 1819 4666 
L 2450 4666 
L 2450 531 
L 3481 531 
L 3481 0 
L 794 0 
L 794 531 
z
" transform="scale(0.015625)"/>
       </defs>
       <use xlink:href="#DejaVuSans-31"/>
       <use xlink:href="#DejaVuSans-30" x="63.623047"/>
       <use xlink:href="#DejaVuSans-30" x="127.246094"/>
       <use xlink:href="#DejaVuSans-30" x="190.869141"/>
      </g>
     </g>
    </g>
    <g id="xtick_4">
     <g id="line2d_4">
      <g>
       <use xlink:href="#m1e2ebbcaf0" x="688.105121" y="961.2" style="stroke: #000000; stroke-width: 0.8"/>
      </g>
     </g>
     <g id="text_4">
      <!-- 1100 -->
      <g transform="translate(675.380121 975.798437) scale(0.1 -0.1)">
       <use xlink:href="#DejaVuSans-31"/>
       <use xlink:href="#DejaVuSans-31" x="63.623047"/>
       <use xlink:href="#DejaVuSans-30" x="127.246094"/>
       <use xlink:href="#DejaVuSans-30" x="190.869141"/>
      </g>
     </g>
    </g>
    <g id="xtick_5">
     <g id="line2d_5">
      <g>
       <use xlink:href="#m1e2ebbcaf0" x="795.941984" y="961.2" style="stroke: #000000; stroke-width: 0.8"/>
      </g>
     </g>
     <g id="text_5">
      <!-- 1200 -->
      <g transform="translate(783.216984 975.798437) scale(0.1 -0.1)">
       <defs>
        <path id="DejaVuSans-32" d="M 1228 531 
L 3431 531 
L 3431 0 
L 469 0 
L 469 531 
Q 828 903 1448 1529 
Q 2069 2156 2228 2338 
Q 2531 2678 2651 2914 
Q 2772 3150 2772 3378 
Q 2772 3750 2511 3984 
Q 2250 4219 1831 4219 
Q 1534 4219 1204 4116 
Q 875 4013 500 3803 
L 500 4441 
Q 881 4594 1212 4672 
Q 1544 4750 1819 4750 
Q 2544 4750 2975 4387 
Q 3406 4025 3406 3419 
Q 3406 3131 3298 2873 
Q 3191 2616 2906 2266 
Q 2828 2175 2409 1742 
Q 1991 1309 1228 531 
z
" transform="scale(0.015625)"/>
       </defs>
       <use xlink:href="#DejaVuSans-31"/>
       <use xlink:href="#DejaVuSans-32" x="63.623047"/>
       <use xlink:href="#DejaVuSans-30" x="127.246094"/>
       <use xlink:href="#DejaVuSans-30" x="190.869141"/>
      </g>
     </g>
    </g>
    <g id="xtick_6">
     <g id="line2d_6">
      <g>
       <use xlink:href="#m1e2ebbcaf0" x="903.778848" y="961.2" style="stroke: #000000; stroke-width: 0.8"/>
      </g>
     </g>
     <g id="text_6">
      <!-- 1300 -->
      <g transform="translate(891.053848 975.798437) scale(0.1 -0.1)">
       <defs>
        <path id="DejaVuSans-33" d="M 2597 2516 
Q 3050 2419 3304 2112 
Q 3559 1806 3559 1356 
Q 3559 666 3084 287 
Q 2609 -91 1734 -91 
Q 1441 -91 1130 -33 
Q 819 25 488 141 
L 488 750 
Q 750 597 1062 519 
Q 1375 441 1716 441 
Q 2309 441 2620 675 
Q 2931 909 2931 1356 
Q 2931 1769 2642 2001 
Q 2353 2234 1838 2234 
L 1294 2234 
L 1294 2753 
L 1863 2753 
Q 2328 2753 2575 2939 
Q 2822 3125 2822 3475 
Q 2822 3834 2567 4026 
Q 2313 4219 1838 4219 
Q 1578 4219 1281 4162 
Q 984 4106 628 3988 
L 628 4550 
Q 988 4650 1302 4700 
Q 1616 4750 1894 4750 
Q 2613 4750 3031 4423 
Q 3450 4097 3450 3541 
Q 3450 3153 3228 2886 
Q 3006 2619 2597 2516 
z
" transform="scale(0.015625)"/>
       </defs>
       <use xlink:href="#DejaVuSans-31"/>
       <use xlink:href="#DejaVuSans-33" x="63.623047"/>
       <use xlink:href="#DejaVuSans-30" x="127.246094"/>
       <use xlink:href="#DejaVuSans-30" x="190.869141"/>
      </g>
     </g>
    </g>
    <g id="xtick_7">
     <g id="line2d_7">
      <g>
       <use xlink:href="#m1e2ebbcaf0" x="1011.615712" y="961.2" style="stroke: #000000; stroke-width: 0.8"/>
      </g>
     </g>
     <g id="text_7">
      <!-- 1400 -->
      <g transform="translate(998.890712 975.798437) scale(0.1 -0.1)">
       <defs>
        <path id="DejaVuSans-34" d="M 2419 4116 
L 825 1625 
L 2419 1625 
L 2419 4116 
z
M 2253 4666 
L 3047 4666 
L 3047 1625 
L 3713 1625 
L 3713 1100 
L 3047 1100 
L 3047 0 
L 2419 0 
L 2419 1100 
L 313 1100 
L 313 1709 
L 2253 4666 
z
" transform="scale(0.015625)"/>
       </defs>
       <use xlink:href="#DejaVuSans-31"/>
       <use xlink:href="#DejaVuSans-34" x="63.623047"/>
       <use xlink:href="#DejaVuSans-30" x="127.246094"/>
       <use xlink:href="#DejaVuSans-30" x="190.869141"/>
      </g>
     </g>
    </g>
    <g id="xtick_8">
     <g id="line2d_8">
      <g>
       <use xlink:href="#m1e2ebbcaf0" x="1119.452576" y="961.2" style="stroke: #000000; stroke-width: 0.8"/>
      </g>
     </g>
     <g id="text_8">
      <!-- 1500 -->
      <g transform="translate(1106.727576 975.798437) scale(0.1 -0.1)">
       <defs>
        <path id="DejaVuSans-35" d="M 691 4666 
L 3169 4666 
L 3169 4134 
L 1269 4134 
L 1269 2991 
Q 1406 3038 1543 3061 
Q 1681 3084 1819 3084 
Q 2600 3084 3056 2656 
Q 3513 2228 3513 1497 
Q 3513 744 3044 326 
Q 2575 -91 1722 -91 
Q 1428 -91 1123 -41 
Q 819 9 494 109 
L 494 744 
Q 775 591 1075 516 
Q 1375 441 1709 441 
Q 2250 441 2565 725 
Q 2881 1009 2881 1497 
Q 2881 1984 2565 2268 
Q 2250 2553 1709 2553 
Q 1456 2553 1204 2497 
Q 953 2441 691 2322 
L 691 4666 
z
" transform="scale(0.015625)"/>
       </defs>
       <use xlink:href="#DejaVuSans-31"/>
       <use xlink:href="#DejaVuSans-35" x="63.623047"/>
       <use xlink:href="#DejaVuSans-30" x="127.246094"/>
       <use xlink:href="#DejaVuSans-30" x="190.869141"/>
      </g>
     </g>
    </g>
   </g>
   <g id="matplotlib.axis_2">
    <g id="ytick_1">
     <g id="line2d_9">
      <defs>
       <path id="mf3ceb7747b" d="M 0 0 
L -3.5 0 
" style="stroke: #000000; stroke-width: 0.8"/>
      </defs>
      <g>
       <use xlink:href="#mf3ceb7747b" x="321.494535" y="862.837676" style="stroke: #000000; stroke-width: 0.8"/>
      </g>
     </g>
     <g id="text_9">
      <!-- 600 -->
      <g transform="translate(295.407035 866.636895) scale(0.1 -0.1)">
       <defs>
        <path id="DejaVuSans-36" d="M 2113 2584 
Q 1688 2584 1439 2293 
Q 1191 2003 1191 1497 
Q 1191 994 1439 701 
Q 1688 409 2113 409 
Q 2538 409 2786 701 
Q 3034 994 3034 1497 
Q 3034 2003 2786 2293 
Q 2538 2584 2113 2584 
z
M 3366 4563 
L 3366 3988 
Q 3128 4100 2886 4159 
Q 2644 4219 2406 4219 
Q 1781 4219 1451 3797 
Q 1122 3375 1075 2522 
Q 1259 2794 1537 2939 
Q 1816 3084 2150 3084 
Q 2853 3084 3261 2657 
Q 3669 2231 3669 1497 
Q 3669 778 3244 343 
Q 2819 -91 2113 -91 
Q 1303 -91 875 529 
Q 447 1150 447 2328 
Q 447 3434 972 4092 
Q 1497 4750 2381 4750 
Q 2619 4750 2861 4703 
Q 3103 4656 3366 4563 
z
" transform="scale(0.015625)"/>
       </defs>
       <use xlink:href="#DejaVuSans-36"/>
       <use xlink:href="#DejaVuSans-30" x="63.623047"/>
       <use xlink:href="#DejaVuSans-30" x="127.246094"/>
      </g>
     </g>
    </g>
    <g id="ytick_2">
     <g id="line2d_10">
      <g>
       <use xlink:href="#mf3ceb7747b" x="321.494535" y="755.000812" style="stroke: #000000; stroke-width: 0.8"/>
      </g>
     </g>
     <g id="text_10">
      <!-- 700 -->
      <g transform="translate(295.407035 758.800031) scale(0.1 -0.1)">
       <defs>
        <path id="DejaVuSans-37" d="M 525 4666 
L 3525 4666 
L 3525 4397 
L 1831 0 
L 1172 0 
L 2766 4134 
L 525 4134 
L 525 4666 
z
" transform="scale(0.015625)"/>
       </defs>
       <use xlink:href="#DejaVuSans-37"/>
       <use xlink:href="#DejaVuSans-30" x="63.623047"/>
       <use xlink:href="#DejaVuSans-30" x="127.246094"/>
      </g>
     </g>
    </g>
    <g id="ytick_3">
     <g id="line2d_11">
      <g>
       <use xlink:href="#mf3ceb7747b" x="321.494535" y="647.163948" style="stroke: #000000; stroke-width: 0.8"/>
      </g>
     </g>
     <g id="text_11">
      <!-- 800 -->
      <g transform="translate(295.407035 650.963167) scale(0.1 -0.1)">
       <use xlink:href="#DejaVuSans-38"/>
       <use xlink:href="#DejaVuSans-30" x="63.623047"/>
       <use xlink:href="#DejaVuSans-30" x="127.246094"/>
      </g>
     </g>
    </g>
    <g id="ytick_4">
     <g id="line2d_12">
      <g>
       <use xlink:href="#mf3ceb7747b" x="321.494535" y="539.327085" style="stroke: #000000; stroke-width: 0.8"/>
      </g>
     </g>
     <g id="text_12">
      <!-- 900 -->
      <g transform="translate(295.407035 543.126303) scale(0.1 -0.1)">
       <use xlink:href="#DejaVuSans-39"/>
       <use xlink:href="#DejaVuSans-30" x="63.623047"/>
       <use xlink:href="#DejaVuSans-30" x="127.246094"/>
      </g>
     </g>
    </g>
    <g id="ytick_5">
     <g id="line2d_13">
      <g>
       <use xlink:href="#mf3ceb7747b" x="321.494535" y="431.490221" style="stroke: #000000; stroke-width: 0.8"/>
      </g>
     </g>
     <g id="text_13">
      <!-- 1000 -->
      <g transform="translate(289.044535 435.289439) scale(0.1 -0.1)">
       <use xlink:href="#DejaVuSans-31"/>
       <use xlink:href="#DejaVuSans-30" x="63.623047"/>
       <use xlink:href="#DejaVuSans-30" x="127.246094"/>
       <use xlink:href="#DejaVuSans-30" x="190.869141"/>
      </g>
     </g>
    </g>
    <g id="ytick_6">
     <g id="line2d_14">
      <g>
       <use xlink:href="#mf3ceb7747b" x="321.494535" y="323.653357" style="stroke: #000000; stroke-width: 0.8"/>
      </g>
     </g>
     <g id="text_14">
      <!-- 1100 -->
      <g transform="translate(289.044535 327.452576) scale(0.1 -0.1)">
       <use xlink:href="#DejaVuSans-31"/>
       <use xlink:href="#DejaVuSans-31" x="63.623047"/>
       <use xlink:href="#DejaVuSans-30" x="127.246094"/>
       <use xlink:href="#DejaVuSans-30" x="190.869141"/>
      </g>
     </g>
    </g>
    <g id="ytick_7">
     <g id="line2d_15">
      <g>
       <use xlink:href="#mf3ceb7747b" x="321.494535" y="215.816493" style="stroke: #000000; stroke-width: 0.8"/>
      </g>
     </g>
     <g id="text_15">
      <!-- 1200 -->
      <g transform="translate(289.044535 219.615712) scale(0.1 -0.1)">
       <use xlink:href="#DejaVuSans-31"/>
       <use xlink:href="#DejaVuSans-32" x="63.623047"/>
       <use xlink:href="#DejaVuSans-30" x="127.246094"/>
       <use xlink:href="#DejaVuSans-30" x="190.869141"/>
      </g>
     </g>
    </g>
   </g>
   <g id="LineCollection_1">
    <path d="M 374.143864 861.951342 
L 386.833644 858.864087 
L 398.889278 857.078218 
L 411.840526 856.181539 
L 425.578493 856.135714 
L 439.98763 856.884291 
L 454.955313 858.357369 
L 470.37632 860.476588 
L 486.154366 863.159199 
L 502.202146 866.321012 
L 518.440749 869.878392 
L 534.798873 873.749548 
L 551.212043 877.855334 
L 583.975798 886.470023 
L 632.351169 899.387663 
L 648.100851 903.434406 
L 663.605655 907.253216 
L 678.841829 910.790162 
L 693.790194 913.993436 
L 708.436252 916.81276 
L 722.77025 919.1986 
L 736.78711 921.101125 
L 750.48606 922.468893 
L 763.869725 923.247224 
L 776.942291 923.376392 
L 789.706267 922.789939 
L 802.157358 921.413831 
L 814.277298 919.167685 
L 823.351514 916.797618 
L 826.02538 915.969769 
L 834.503143 912.922947 
L 837.331153 911.747228 
L 845.206921 908.010673 
L 848.092575 906.451216 
L 855.362683 902.014621 
L 858.184249 900.07303 
L 864.846909 894.928741 
L 867.476947 892.653807 
L 873.532245 886.796795 
L 875.862952 884.280762 
L 881.312841 877.708607 
L 883.276665 875.069307 
L 888.124971 867.782177 
L 889.701873 865.138558 
L 893.954286 857.139191 
L 895.164894 854.590734 
L 899.71981 843.500766 
L 903.433285 831.915927 
L 906.373419 819.861506 
L 908.60358 807.348326 
L 910.180107 794.379531 
L 911.152333 780.955648 
L 911.563704 767.077928 
L 911.453222 752.750309 
L 910.856826 737.980448 
L 909.80857 722.780158 
L 908.34154 707.16549 
L 906.488562 691.156638 
L 904.282715 674.777737 
L 901.757702 658.056639 
L 898.948106 641.024677 
L 895.88956 623.716435 
L 892.618858 606.169544 
L 885.594256 570.524462 
L 863.60668 462.485654 
L 860.270784 444.8766 
L 857.151742 427.538465 
L 854.296276 410.53398 
L 851.750882 393.92817 
L 849.561357 377.788564 
L 847.772148 362.18546 
L 846.42545 347.19227 
L 845.559947 332.88587 
L 845.209019 319.34687 
L 845.398248 306.659545 
L 846.142011 294.910926 
L 847.439119 284.188146 
L 849.267948 274.572513 
L 851.582731 266.128263 
L 854.314953 258.884307 
L 857.386564 252.810446 
L 860.74174 247.797457 
L 864.394633 243.660218 
L 868.47026 240.181294 
L 873.202764 237.185367 
L 878.877854 234.600699 
L 885.752676 232.46751 
L 894.002228 230.897591 
L 903.710732 230.021408 
L 914.892325 229.951094 
L 927.518296 230.764817 
L 941.538288 232.505238 
L 956.892944 235.183905 
L 973.519951 238.786696 
L 991.356089 243.278342 
L 1010.337218 248.605584 
L 1030.397377 254.699122 
L 1051.467596 261.474657 
L 1073.474737 268.833288 
L 1096.382973 276.67602 
L 1096.382973 276.67602 
" clip-path="url(#pd1791a0813)" style="fill: none; stroke: #1f77b4; stroke-width: 1.5"/>
    <path d="M 366.751266 831.564986 
L 380.833475 828.138971 
L 395.512861 825.96443 
L 410.707148 824.912455 
L 426.338155 824.860316 
L 442.331605 825.6912 
L 458.616957 827.29396 
L 475.127235 829.56287 
L 491.798877 832.397412 
L 508.571591 835.702055 
L 525.388216 839.386062 
L 542.194603 843.363299 
L 558.939487 847.552065 
L 575.574391 851.874922 
L 592.053512 856.258547 
L 608.33364 860.633585 
L 624.374064 864.93452 
L 640.136497 869.099549 
L 655.585004 873.07047 
L 670.68594 876.792574 
L 685.407886 880.214549 
L 699.721601 883.288394 
L 713.599969 885.96933 
L 727.017966 888.215732 
L 739.952614 889.989057 
L 752.382952 891.253785 
L 764.290011 891.977358 
L 775.656784 892.130134 
L 786.46821 891.685339 
L 796.711153 890.619026 
L 806.374393 888.910037 
L 815.448609 886.53997 
L 823.926373 883.493148 
L 831.80214 879.756593 
L 839.072248 875.319998 
L 845.734909 870.175708 
L 851.790207 864.318695 
L 857.240096 857.74654 
L 862.088402 850.45941 
L 866.340815 842.460044 
L 870.004891 833.753728 
L 873.09005 824.34828 
L 875.607572 814.254026 
L 877.57059 803.48378 
L 878.994091 792.052816 
L 879.894901 779.97885 
L 880.291679 767.282001 
L 880.204905 753.984768 
L 879.656863 740.111991 
L 878.671626 725.690812 
L 877.275031 710.750631 
L 875.494657 695.32306 
L 873.359794 679.441871 
L 870.901409 663.142932 
L 868.152111 646.464148 
L 865.146101 629.445388 
L 861.919133 612.128406 
L 858.50845 594.556759 
L 854.952731 576.775709 
L 851.29202 558.832131 
L 847.567657 540.774395 
L 843.822191 522.652253 
L 840.099302 504.516711 
L 836.443699 486.419891 
L 832.901019 468.414885 
L 829.517719 450.555596 
L 826.34095 432.896571 
L 823.418438 415.49282 
L 820.798335 398.399621 
L 818.529083 381.672323 
L 816.65925 365.366123 
L 815.237364 349.535838 
L 814.311739 334.235663 
L 813.930284 319.51891 
L 814.140302 305.437741 
L 814.988283 292.042879 
L 816.51968 279.383308 
L 818.778673 267.505953 
L 821.807924 256.455349 
L 825.648317 246.273292 
L 830.338684 236.998472 
L 835.91552 228.666088 
L 842.412684 221.307449 
L 849.861085 214.949551 
L 858.288351 209.614645 
L 867.718491 205.319772 
L 878.171536 202.076296 
L 889.663164 199.889399 
L 902.204315 198.757572 
L 915.800784 198.672072 
L 930.4528 199.616371 
L 946.154593 201.565568 
L 962.893937 204.485798 
L 980.651676 208.3336 
L 999.401243 213.055273 
L 1019.108147 218.586211 
L 1039.729451 224.850205 
L 1061.213227 231.758726 
L 1083.497998 239.21019 
L 1106.512152 247.089183 
" clip-path="url(#pd1791a0813)" style="fill: none; stroke: #8c564b; stroke-width: 1.5"/>
    <path d="M 359.358668 801.178629 
L 373.440877 797.752614 
L 376.250882 797.203861 
L 393.352868 794.766424 
L 410.602835 793.639938 
L 427.960631 793.629742 
L 445.394578 794.568871 
L 462.874565 796.31245 
L 480.369049 798.732616 
L 497.84416 801.714587 
L 515.263776 805.153801 
L 532.589995 808.953915 
L 549.783683 813.025418 
L 566.804975 817.284669 
L 600.169617 826.057387 
L 648.02386 838.837663 
L 663.219934 842.743697 
L 677.968481 846.378944 
L 692.231542 849.694256 
L 705.971003 852.644781 
L 719.148395 855.190306 
L 731.724715 857.295797 
L 743.660349 858.932159 
L 754.915199 860.077286 
L 765.449247 860.717423 
L 775.223851 860.8488 
L 784.204209 860.479337 
L 792.363497 859.629938 
L 799.689031 858.334383 
L 806.190229 856.636355 
L 811.906777 854.581885 
L 816.913585 852.20647 
L 821.317789 849.518798 
L 825.24455 846.486916 
L 828.813728 843.034614 
L 832.115932 839.052405 
L 835.198249 834.419602 
L 838.064501 829.027792 
L 840.686862 822.796727 
L 843.02143 815.679538 
L 845.021593 807.659685 
L 846.646594 798.743999 
L 847.865584 788.955295 
L 848.658586 778.326321 
L 849.015801 766.8955 
L 848.936244 754.70423 
L 848.42628 741.79534 
L 847.498304 728.212304 
L 846.169648 713.998909 
L 844.461729 699.199181 
L 842.399381 683.857434 
L 840.01036 668.018373 
L 837.324955 651.727202 
L 834.375693 635.029723 
L 831.197111 617.972396 
L 824.299074 582.967489 
L 802.174824 474.235719 
L 798.739094 456.092513 
L 795.500071 438.075504 
L 792.506785 420.231061 
L 789.809505 402.603616 
L 787.459993 385.235019 
L 785.511951 368.163792 
L 784.021745 351.42431 
L 783.049549 335.045973 
L 782.661071 319.052535 
L 782.93009 303.461933 
L 783.94192 288.287278 
L 785.797713 273.540197 
L 788.618642 259.238322 
L 791.647893 248.187718 
L 792.547345 245.41906 
L 796.387738 235.237003 
L 797.7412 232.160391 
L 802.431567 222.885571 
L 804.349821 219.604215 
L 809.926658 211.271831 
L 812.472786 207.967794 
L 818.969951 200.609154 
L 822.109413 197.521773 
L 829.557814 191.163876 
L 833.133852 188.526439 
L 841.561118 183.191532 
L 845.3265 181.154644 
L 854.756641 176.859772 
L 858.450781 175.451884 
L 868.903826 172.208408 
L 872.325157 171.354951 
L 883.816786 169.168054 
L 886.852256 168.743292 
L 902.007665 167.4855 
L 917.812084 167.464127 
L 934.305375 168.581892 
L 951.529041 170.758159 
L 969.516512 173.922378 
L 988.288593 178.007725 
L 1007.85172 182.945962 
L 1028.197543 188.663577 
L 1049.302977 195.07893 
L 1071.130313 202.100126 
L 1093.627177 209.623353 
L 1116.641332 217.502347 
L 1116.641332 217.502347 
" clip-path="url(#pd1791a0813)" style="fill: none; stroke: #17becf; stroke-width: 1.5"/>
   </g>
   <g id="patch_3">
    <path d="M 321.494535 961.2 
L 321.494535 129.6 
" style="fill: none; stroke: #000000; stroke-width: 0.8; stroke-linejoin: miter; stroke-linecap: square"/>
   </g>
   <g id="patch_4">
    <path d="M 1154.505465 961.2 
L 1154.505465 129.6 
" style="fill: none; stroke: #000000; stroke-width: 0.8; stroke-linejoin: miter; stroke-linecap: square"/>
   </g>
   <g id="patch_5">
    <path d="M 321.494535 961.2 
L 1154.505465 961.2 
" style="fill: none; stroke: #000000; stroke-width: 0.8; stroke-linejoin: miter; stroke-linecap: square"/>
   </g>
   <g id="patch_6">
    <path d="M 321.494535 129.6 
L 1154.505465 129.6 
" style="fill: none; stroke: #000000; stroke-width: 0.8; stroke-linejoin: miter; stroke-linecap: square"/>
   </g>
  </g>
 </g>
 <defs>
  <clipPath id="pd1791a0813">
   <rect x="321.494535" y="129.6" width="833.01093" height="831.6"/>
  </clipPath>
 </defs>
</svg>
