<?xml version="1.0" encoding="utf-8" standalone="no"?>
<!DOCTYPE svg PUBLIC "-//W3C//DTD SVG 1.1//EN"
  "http://www.w3.org/Graphics/SVG/1.1/DTD/svg11.dtd">
<svg xmlns:xlink="http://www.w3.org/1999/xlink" width="1440pt" height="1080pt" viewBox="0 0 1440 1080" xmlns="http://www.w3.org/2000/svg" version="1.1">
 <metadata>
  <rdf:RDF xmlns:dc="http://purl.org/dc/elements/1.1/" xmlns:cc="http://creativecommons.org/ns#" xmlns:rdf="http://www.w3.org/1999/02/22-rdf-syntax-ns#">
   <cc:Work>
    <dc:type rdf:resource="http://purl.org/dc/dcmitype/StillImage"/>
    <dc:date>2023-12-11T12:06:44.270638</dc:date>
    <dc:format>image/svg+xml</dc:format>
    <dc:creator>
     <cc:Agent>
      <dc:title>Matplotlib v3.7.1, https://matplotlib.org/</dc:title>
     </cc:Agent>
    </dc:creator>
   </cc:Work>
  </rdf:RDF>
 </metadata>
 <defs>
  <style type="text/css">*{stroke-linejoin: round; stroke-linecap: butt}</style>
 </defs>
 <g id="figure_1">
  <g id="patch_1">
   <path d="M 0 1080 
L 1440 1080 
L 1440 0 
L 0 0 
z
" style="fill: #ffffff"/>
  </g>
  <g id="axes_1">
   <g id="patch_2">
    <path d="M 487.762367 961.2 
L 988.237633 961.2 
L 988.237633 129.6 
L 487.762367 129.6 
z
" style="fill: #ffffff"/>
   </g>
   <g id="matplotlib.axis_1">
    <g id="xtick_1">
     <g id="line2d_1">
      <defs>
       <path id="m830f15392a" d="M 0 0 
L 0 3.5 
" style="stroke: #000000; stroke-width: 0.8"/>
      </defs>
      <g>
       <use xlink:href="#m830f15392a" x="504.090939" y="961.2" style="stroke: #000000; stroke-width: 0.8"/>
      </g>
     </g>
     <g id="text_1">
      <!-- 1000 -->
      <g transform="translate(491.365939 975.798437) scale(0.1 -0.1)">
       <defs>
        <path id="DejaVuSans-31" d="M 794 531 
L 1825 531 
L 1825 4091 
L 703 3866 
L 703 4441 
L 1819 4666 
L 2450 4666 
L 2450 531 
L 3481 531 
L 3481 0 
L 794 0 
L 794 531 
z
" transform="scale(0.015625)"/>
        <path id="DejaVuSans-30" d="M 2034 4250 
Q 1547 4250 1301 3770 
Q 1056 3291 1056 2328 
Q 1056 1369 1301 889 
Q 1547 409 2034 409 
Q 2525 409 2770 889 
Q 3016 1369 3016 2328 
Q 3016 3291 2770 3770 
Q 2525 4250 2034 4250 
z
M 2034 4750 
Q 2819 4750 3233 4129 
Q 3647 3509 3647 2328 
Q 3647 1150 3233 529 
Q 2819 -91 2034 -91 
Q 1250 -91 836 529 
Q 422 1150 422 2328 
Q 422 3509 836 4129 
Q 1250 4750 2034 4750 
z
" transform="scale(0.015625)"/>
       </defs>
       <use xlink:href="#DejaVuSans-31"/>
       <use xlink:href="#DejaVuSans-30" x="63.623047"/>
       <use xlink:href="#DejaVuSans-30" x="127.246094"/>
       <use xlink:href="#DejaVuSans-30" x="190.869141"/>
      </g>
     </g>
    </g>
    <g id="xtick_2">
     <g id="line2d_2">
      <g>
       <use xlink:href="#m830f15392a" x="560.488276" y="961.2" style="stroke: #000000; stroke-width: 0.8"/>
      </g>
     </g>
     <g id="text_2">
      <!-- 1050 -->
      <g transform="translate(547.763276 975.798437) scale(0.1 -0.1)">
       <defs>
        <path id="DejaVuSans-35" d="M 691 4666 
L 3169 4666 
L 3169 4134 
L 1269 4134 
L 1269 2991 
Q 1406 3038 1543 3061 
Q 1681 3084 1819 3084 
Q 2600 3084 3056 2656 
Q 3513 2228 3513 1497 
Q 3513 744 3044 326 
Q 2575 -91 1722 -91 
Q 1428 -91 1123 -41 
Q 819 9 494 109 
L 494 744 
Q 775 591 1075 516 
Q 1375 441 1709 441 
Q 2250 441 2565 725 
Q 2881 1009 2881 1497 
Q 2881 1984 2565 2268 
Q 2250 2553 1709 2553 
Q 1456 2553 1204 2497 
Q 953 2441 691 2322 
L 691 4666 
z
" transform="scale(0.015625)"/>
       </defs>
       <use xlink:href="#DejaVuSans-31"/>
       <use xlink:href="#DejaVuSans-30" x="63.623047"/>
       <use xlink:href="#DejaVuSans-35" x="127.246094"/>
       <use xlink:href="#DejaVuSans-30" x="190.869141"/>
      </g>
     </g>
    </g>
    <g id="xtick_3">
     <g id="line2d_3">
      <g>
       <use xlink:href="#m830f15392a" x="616.885613" y="961.2" style="stroke: #000000; stroke-width: 0.8"/>
      </g>
     </g>
     <g id="text_3">
      <!-- 1100 -->
      <g transform="translate(604.160613 975.798437) scale(0.1 -0.1)">
       <use xlink:href="#DejaVuSans-31"/>
       <use xlink:href="#DejaVuSans-31" x="63.623047"/>
       <use xlink:href="#DejaVuSans-30" x="127.246094"/>
       <use xlink:href="#DejaVuSans-30" x="190.869141"/>
      </g>
     </g>
    </g>
    <g id="xtick_4">
     <g id="line2d_4">
      <g>
       <use xlink:href="#m830f15392a" x="673.28295" y="961.2" style="stroke: #000000; stroke-width: 0.8"/>
      </g>
     </g>
     <g id="text_4">
      <!-- 1150 -->
      <g transform="translate(660.55795 975.798437) scale(0.1 -0.1)">
       <use xlink:href="#DejaVuSans-31"/>
       <use xlink:href="#DejaVuSans-31" x="63.623047"/>
       <use xlink:href="#DejaVuSans-35" x="127.246094"/>
       <use xlink:href="#DejaVuSans-30" x="190.869141"/>
      </g>
     </g>
    </g>
    <g id="xtick_5">
     <g id="line2d_5">
      <g>
       <use xlink:href="#m830f15392a" x="729.680287" y="961.2" style="stroke: #000000; stroke-width: 0.8"/>
      </g>
     </g>
     <g id="text_5">
      <!-- 1200 -->
      <g transform="translate(716.955287 975.798437) scale(0.1 -0.1)">
       <defs>
        <path id="DejaVuSans-32" d="M 1228 531 
L 3431 531 
L 3431 0 
L 469 0 
L 469 531 
Q 828 903 1448 1529 
Q 2069 2156 2228 2338 
Q 2531 2678 2651 2914 
Q 2772 3150 2772 3378 
Q 2772 3750 2511 3984 
Q 2250 4219 1831 4219 
Q 1534 4219 1204 4116 
Q 875 4013 500 3803 
L 500 4441 
Q 881 4594 1212 4672 
Q 1544 4750 1819 4750 
Q 2544 4750 2975 4387 
Q 3406 4025 3406 3419 
Q 3406 3131 3298 2873 
Q 3191 2616 2906 2266 
Q 2828 2175 2409 1742 
Q 1991 1309 1228 531 
z
" transform="scale(0.015625)"/>
       </defs>
       <use xlink:href="#DejaVuSans-31"/>
       <use xlink:href="#DejaVuSans-32" x="63.623047"/>
       <use xlink:href="#DejaVuSans-30" x="127.246094"/>
       <use xlink:href="#DejaVuSans-30" x="190.869141"/>
      </g>
     </g>
    </g>
    <g id="xtick_6">
     <g id="line2d_6">
      <g>
       <use xlink:href="#m830f15392a" x="786.077624" y="961.2" style="stroke: #000000; stroke-width: 0.8"/>
      </g>
     </g>
     <g id="text_6">
      <!-- 1250 -->
      <g transform="translate(773.352624 975.798437) scale(0.1 -0.1)">
       <use xlink:href="#DejaVuSans-31"/>
       <use xlink:href="#DejaVuSans-32" x="63.623047"/>
       <use xlink:href="#DejaVuSans-35" x="127.246094"/>
       <use xlink:href="#DejaVuSans-30" x="190.869141"/>
      </g>
     </g>
    </g>
    <g id="xtick_7">
     <g id="line2d_7">
      <g>
       <use xlink:href="#m830f15392a" x="842.474961" y="961.2" style="stroke: #000000; stroke-width: 0.8"/>
      </g>
     </g>
     <g id="text_7">
      <!-- 1300 -->
      <g transform="translate(829.749961 975.798437) scale(0.1 -0.1)">
       <defs>
        <path id="DejaVuSans-33" d="M 2597 2516 
Q 3050 2419 3304 2112 
Q 3559 1806 3559 1356 
Q 3559 666 3084 287 
Q 2609 -91 1734 -91 
Q 1441 -91 1130 -33 
Q 819 25 488 141 
L 488 750 
Q 750 597 1062 519 
Q 1375 441 1716 441 
Q 2309 441 2620 675 
Q 2931 909 2931 1356 
Q 2931 1769 2642 2001 
Q 2353 2234 1838 2234 
L 1294 2234 
L 1294 2753 
L 1863 2753 
Q 2328 2753 2575 2939 
Q 2822 3125 2822 3475 
Q 2822 3834 2567 4026 
Q 2313 4219 1838 4219 
Q 1578 4219 1281 4162 
Q 984 4106 628 3988 
L 628 4550 
Q 988 4650 1302 4700 
Q 1616 4750 1894 4750 
Q 2613 4750 3031 4423 
Q 3450 4097 3450 3541 
Q 3450 3153 3228 2886 
Q 3006 2619 2597 2516 
z
" transform="scale(0.015625)"/>
       </defs>
       <use xlink:href="#DejaVuSans-31"/>
       <use xlink:href="#DejaVuSans-33" x="63.623047"/>
       <use xlink:href="#DejaVuSans-30" x="127.246094"/>
       <use xlink:href="#DejaVuSans-30" x="190.869141"/>
      </g>
     </g>
    </g>
    <g id="xtick_8">
     <g id="line2d_8">
      <g>
       <use xlink:href="#m830f15392a" x="898.872298" y="961.2" style="stroke: #000000; stroke-width: 0.8"/>
      </g>
     </g>
     <g id="text_8">
      <!-- 1350 -->
      <g transform="translate(886.147298 975.798437) scale(0.1 -0.1)">
       <use xlink:href="#DejaVuSans-31"/>
       <use xlink:href="#DejaVuSans-33" x="63.623047"/>
       <use xlink:href="#DejaVuSans-35" x="127.246094"/>
       <use xlink:href="#DejaVuSans-30" x="190.869141"/>
      </g>
     </g>
    </g>
    <g id="xtick_9">
     <g id="line2d_9">
      <g>
       <use xlink:href="#m830f15392a" x="955.269635" y="961.2" style="stroke: #000000; stroke-width: 0.8"/>
      </g>
     </g>
     <g id="text_9">
      <!-- 1400 -->
      <g transform="translate(942.544635 975.798437) scale(0.1 -0.1)">
       <defs>
        <path id="DejaVuSans-34" d="M 2419 4116 
L 825 1625 
L 2419 1625 
L 2419 4116 
z
M 2253 4666 
L 3047 4666 
L 3047 1625 
L 3713 1625 
L 3713 1100 
L 3047 1100 
L 3047 0 
L 2419 0 
L 2419 1100 
L 313 1100 
L 313 1709 
L 2253 4666 
z
" transform="scale(0.015625)"/>
       </defs>
       <use xlink:href="#DejaVuSans-31"/>
       <use xlink:href="#DejaVuSans-34" x="63.623047"/>
       <use xlink:href="#DejaVuSans-30" x="127.246094"/>
       <use xlink:href="#DejaVuSans-30" x="190.869141"/>
      </g>
     </g>
    </g>
   </g>
   <g id="matplotlib.axis_2">
    <g id="ytick_1">
     <g id="line2d_10">
      <defs>
       <path id="me534a1ed05" d="M 0 0 
L -3.5 0 
" style="stroke: #000000; stroke-width: 0.8"/>
      </defs>
      <g>
       <use xlink:href="#me534a1ed05" x="487.762367" y="947.674385" style="stroke: #000000; stroke-width: 0.8"/>
      </g>
     </g>
     <g id="text_10">
      <!-- 300 -->
      <g transform="translate(461.674867 951.473604) scale(0.1 -0.1)">
       <use xlink:href="#DejaVuSans-33"/>
       <use xlink:href="#DejaVuSans-30" x="63.623047"/>
       <use xlink:href="#DejaVuSans-30" x="127.246094"/>
      </g>
     </g>
    </g>
    <g id="ytick_2">
     <g id="line2d_11">
      <g>
       <use xlink:href="#me534a1ed05" x="487.762367" y="834.879711" style="stroke: #000000; stroke-width: 0.8"/>
      </g>
     </g>
     <g id="text_11">
      <!-- 400 -->
      <g transform="translate(461.674867 838.678929) scale(0.1 -0.1)">
       <use xlink:href="#DejaVuSans-34"/>
       <use xlink:href="#DejaVuSans-30" x="63.623047"/>
       <use xlink:href="#DejaVuSans-30" x="127.246094"/>
      </g>
     </g>
    </g>
    <g id="ytick_3">
     <g id="line2d_12">
      <g>
       <use xlink:href="#me534a1ed05" x="487.762367" y="722.085037" style="stroke: #000000; stroke-width: 0.8"/>
      </g>
     </g>
     <g id="text_12">
      <!-- 500 -->
      <g transform="translate(461.674867 725.884255) scale(0.1 -0.1)">
       <use xlink:href="#DejaVuSans-35"/>
       <use xlink:href="#DejaVuSans-30" x="63.623047"/>
       <use xlink:href="#DejaVuSans-30" x="127.246094"/>
      </g>
     </g>
    </g>
    <g id="ytick_4">
     <g id="line2d_13">
      <g>
       <use xlink:href="#me534a1ed05" x="487.762367" y="609.290362" style="stroke: #000000; stroke-width: 0.8"/>
      </g>
     </g>
     <g id="text_13">
      <!-- 600 -->
      <g transform="translate(461.674867 613.089581) scale(0.1 -0.1)">
       <defs>
        <path id="DejaVuSans-36" d="M 2113 2584 
Q 1688 2584 1439 2293 
Q 1191 2003 1191 1497 
Q 1191 994 1439 701 
Q 1688 409 2113 409 
Q 2538 409 2786 701 
Q 3034 994 3034 1497 
Q 3034 2003 2786 2293 
Q 2538 2584 2113 2584 
z
M 3366 4563 
L 3366 3988 
Q 3128 4100 2886 4159 
Q 2644 4219 2406 4219 
Q 1781 4219 1451 3797 
Q 1122 3375 1075 2522 
Q 1259 2794 1537 2939 
Q 1816 3084 2150 3084 
Q 2853 3084 3261 2657 
Q 3669 2231 3669 1497 
Q 3669 778 3244 343 
Q 2819 -91 2113 -91 
Q 1303 -91 875 529 
Q 447 1150 447 2328 
Q 447 3434 972 4092 
Q 1497 4750 2381 4750 
Q 2619 4750 2861 4703 
Q 3103 4656 3366 4563 
z
" transform="scale(0.015625)"/>
       </defs>
       <use xlink:href="#DejaVuSans-36"/>
       <use xlink:href="#DejaVuSans-30" x="63.623047"/>
       <use xlink:href="#DejaVuSans-30" x="127.246094"/>
      </g>
     </g>
    </g>
    <g id="ytick_5">
     <g id="line2d_14">
      <g>
       <use xlink:href="#me534a1ed05" x="487.762367" y="496.495688" style="stroke: #000000; stroke-width: 0.8"/>
      </g>
     </g>
     <g id="text_14">
      <!-- 700 -->
      <g transform="translate(461.674867 500.294907) scale(0.1 -0.1)">
       <defs>
        <path id="DejaVuSans-37" d="M 525 4666 
L 3525 4666 
L 3525 4397 
L 1831 0 
L 1172 0 
L 2766 4134 
L 525 4134 
L 525 4666 
z
" transform="scale(0.015625)"/>
       </defs>
       <use xlink:href="#DejaVuSans-37"/>
       <use xlink:href="#DejaVuSans-30" x="63.623047"/>
       <use xlink:href="#DejaVuSans-30" x="127.246094"/>
      </g>
     </g>
    </g>
    <g id="ytick_6">
     <g id="line2d_15">
      <g>
       <use xlink:href="#me534a1ed05" x="487.762367" y="383.701014" style="stroke: #000000; stroke-width: 0.8"/>
      </g>
     </g>
     <g id="text_15">
      <!-- 800 -->
      <g transform="translate(461.674867 387.500233) scale(0.1 -0.1)">
       <defs>
        <path id="DejaVuSans-38" d="M 2034 2216 
Q 1584 2216 1326 1975 
Q 1069 1734 1069 1313 
Q 1069 891 1326 650 
Q 1584 409 2034 409 
Q 2484 409 2743 651 
Q 3003 894 3003 1313 
Q 3003 1734 2745 1975 
Q 2488 2216 2034 2216 
z
M 1403 2484 
Q 997 2584 770 2862 
Q 544 3141 544 3541 
Q 544 4100 942 4425 
Q 1341 4750 2034 4750 
Q 2731 4750 3128 4425 
Q 3525 4100 3525 3541 
Q 3525 3141 3298 2862 
Q 3072 2584 2669 2484 
Q 3125 2378 3379 2068 
Q 3634 1759 3634 1313 
Q 3634 634 3220 271 
Q 2806 -91 2034 -91 
Q 1263 -91 848 271 
Q 434 634 434 1313 
Q 434 1759 690 2068 
Q 947 2378 1403 2484 
z
M 1172 3481 
Q 1172 3119 1398 2916 
Q 1625 2713 2034 2713 
Q 2441 2713 2670 2916 
Q 2900 3119 2900 3481 
Q 2900 3844 2670 4047 
Q 2441 4250 2034 4250 
Q 1625 4250 1398 4047 
Q 1172 3844 1172 3481 
z
" transform="scale(0.015625)"/>
       </defs>
       <use xlink:href="#DejaVuSans-38"/>
       <use xlink:href="#DejaVuSans-30" x="63.623047"/>
       <use xlink:href="#DejaVuSans-30" x="127.246094"/>
      </g>
     </g>
    </g>
    <g id="ytick_7">
     <g id="line2d_16">
      <g>
       <use xlink:href="#me534a1ed05" x="487.762367" y="270.90634" style="stroke: #000000; stroke-width: 0.8"/>
      </g>
     </g>
     <g id="text_16">
      <!-- 900 -->
      <g transform="translate(461.674867 274.705559) scale(0.1 -0.1)">
       <defs>
        <path id="DejaVuSans-39" d="M 703 97 
L 703 672 
Q 941 559 1184 500 
Q 1428 441 1663 441 
Q 2288 441 2617 861 
Q 2947 1281 2994 2138 
Q 2813 1869 2534 1725 
Q 2256 1581 1919 1581 
Q 1219 1581 811 2004 
Q 403 2428 403 3163 
Q 403 3881 828 4315 
Q 1253 4750 1959 4750 
Q 2769 4750 3195 4129 
Q 3622 3509 3622 2328 
Q 3622 1225 3098 567 
Q 2575 -91 1691 -91 
Q 1453 -91 1209 -44 
Q 966 3 703 97 
z
M 1959 2075 
Q 2384 2075 2632 2365 
Q 2881 2656 2881 3163 
Q 2881 3666 2632 3958 
Q 2384 4250 1959 4250 
Q 1534 4250 1286 3958 
Q 1038 3666 1038 3163 
Q 1038 2656 1286 2365 
Q 1534 2075 1959 2075 
z
" transform="scale(0.015625)"/>
       </defs>
       <use xlink:href="#DejaVuSans-39"/>
       <use xlink:href="#DejaVuSans-30" x="63.623047"/>
       <use xlink:href="#DejaVuSans-30" x="127.246094"/>
      </g>
     </g>
    </g>
    <g id="ytick_8">
     <g id="line2d_17">
      <g>
       <use xlink:href="#me534a1ed05" x="487.762367" y="158.111666" style="stroke: #000000; stroke-width: 0.8"/>
      </g>
     </g>
     <g id="text_17">
      <!-- 1000 -->
      <g transform="translate(455.312367 161.910885) scale(0.1 -0.1)">
       <use xlink:href="#DejaVuSans-31"/>
       <use xlink:href="#DejaVuSans-30" x="63.623047"/>
       <use xlink:href="#DejaVuSans-30" x="127.246094"/>
       <use xlink:href="#DejaVuSans-30" x="190.869141"/>
      </g>
     </g>
    </g>
   </g>
   <g id="LineCollection_1">
    <path d="M 951.818194 837.976571 
L 917.957255 846.436677 
L 887.644484 853.129365 
L 860.257047 858.312944 
L 835.536364 862.147917 
L 813.244149 864.783357 
L 793.160704 866.357626 
L 775.083192 866.998935 
L 758.823903 866.825693 
L 744.208652 865.9466 
L 731.075393 864.460511 
L 719.273198 862.456104 
L 708.661692 860.011497 
L 699.110958 857.193955 
L 690.501866 854.059884 
L 682.72662 850.65522 
L 675.689306 847.016266 
L 669.306188 843.170889 
L 663.505602 839.139914 
L 658.22737 834.938501 
L 653.421813 830.577334 
L 649.048482 826.06349 
L 645.074783 821.400959 
L 641.474677 816.590847 
L 638.227549 811.631362 
L 635.317353 806.5177 
L 632.732028 801.241952 
L 630.463165 795.793145 
L 628.505849 790.157496 
L 626.858578 784.318901 
L 625.523156 778.259659 
L 624.504474 771.961345 
L 623.810123 765.405759 
L 623.449826 758.575826 
L 623.434724 751.45636 
L 623.77658 744.034635 
L 624.486957 736.300736 
L 625.576459 728.247697 
L 627.054063 719.871481 
L 628.92658 711.170836 
L 631.198246 702.147081 
L 633.87044 692.803874 
L 636.941496 683.146984 
L 640.406608 673.184088 
L 644.257786 662.924594 
L 648.483867 652.37951 
L 653.070544 641.561337 
L 658.000429 630.483982 
L 663.25312 619.162695 
L 668.805286 607.614012 
L 674.63076 595.855692 
L 680.700645 583.906668 
L 693.445089 559.517635 
L 713.533072 522.027472 
L 727.120325 496.662538 
L 740.432736 471.251019 
L 746.86805 458.584869 
L 753.091156 445.973501 
L 759.052249 433.435988 
L 764.700679 420.988856 
L 769.984813 408.64531 
L 774.851653 396.414383 
L 779.246079 384.300064 
L 783.109557 372.300574 
L 786.378093 360.408123 
L 788.979313 348.609789 
L 790.828768 336.89059 
L 791.826319 325.240283 
L 791.941831 316.270999 
L 791.854864 313.665407 
L 791.174198 305.133227 
L 790.785661 302.206477 
L 789.278768 294.125493 
L 788.495415 290.955789 
L 786.136862 283.336878 
L 784.89655 280.064556 
L 781.666048 272.915038 
L 779.971186 269.725783 
L 775.854129 263.049059 
L 773.788079 260.130467 
L 768.776113 253.925647 
L 766.486319 251.416489 
L 760.57791 245.678013 
L 758.232881 243.639113 
L 751.433914 238.356359 
L 749.180076 236.775335 
L 739.443311 230.750054 
L 729.100797 225.464492 
L 718.205351 220.815573 
L 706.798602 216.704988 
L 694.922743 213.041269 
L 682.628774 209.738429 
L 669.981907 206.713515 
L 657.065198 203.884277 
L 617.633808 195.682441 
L 604.770889 192.750226 
L 592.392284 189.577709 
L 580.738571 186.090832 
L 570.084356 182.241607 
L 560.727793 178.029486 
L 552.953347 173.525389 
L 545.044397 167.4 
L 545.044397 167.4 
" clip-path="url(#pff3a736817)" style="fill: none; stroke: #1f77b4; stroke-width: 1.5"/>
    <path d="M 958.653475 865.334273 
L 924.415871 873.888488 
L 893.30754 880.756826 
L 865.041777 886.106644 
L 839.354354 890.09159 
L 816.002367 892.852318 
L 794.76312 894.517186 
L 775.433025 895.202932 
L 757.826544 895.015336 
L 741.775149 894.04986 
L 727.126323 892.392277 
L 713.742579 890.11927 
L 701.500513 887.299025 
L 690.289881 883.991801 
L 680.012712 880.25048 
L 670.58244 876.121104 
L 661.923072 871.643396 
L 653.968374 866.851253 
L 646.661093 861.773238 
L 639.952205 856.433038 
L 633.800185 850.849921 
L 628.170308 845.03916 
L 623.033977 839.012457 
L 618.368077 832.778334 
L 614.154352 826.342522 
L 610.378813 819.70832 
L 607.031172 812.87695 
L 604.104296 805.847887 
L 601.593694 798.619175 
L 599.497025 791.187733 
L 597.813631 783.549631 
L 596.544101 775.700368 
L 595.68985 767.635118 
L 595.252734 759.348972 
L 595.234679 750.83716 
L 595.637344 742.095252 
L 596.461802 733.119355 
L 597.708245 723.906289 
L 599.375719 714.453742 
L 601.461875 704.760422 
L 603.962749 694.826183 
L 606.872564 684.652145 
L 610.183552 674.240792 
L 613.885807 663.596061 
L 617.967149 652.723413 
L 622.413025 641.629888 
L 627.206417 630.324155 
L 632.327788 618.816535 
L 637.755037 607.119018 
L 643.463484 595.245265 
L 649.425871 583.210596 
L 655.612395 571.03196 
L 661.990746 558.727897 
L 668.526185 546.318484 
L 675.181625 533.825268 
L 681.91775 521.271184 
L 688.69314 508.680462 
L 695.464425 496.078519 
L 702.186459 483.491842 
L 708.812512 470.947849 
L 715.294482 458.474748 
L 721.583128 446.101375 
L 727.628321 433.857028 
L 733.379319 421.771274 
L 738.785055 409.873761 
L 743.79445 398.194005 
L 748.35674 386.761171 
L 752.421826 375.603838 
L 755.94064 364.749756 
L 758.86553 354.225587 
L 761.150664 344.056637 
L 762.752453 334.266578 
L 763.629989 324.877152 
L 763.745501 315.907868 
L 763.064835 307.375688 
L 761.557943 299.294704 
L 759.19939 291.675793 
L 755.968887 284.526275 
L 751.851831 277.849551 
L 746.839865 271.64473 
L 740.931456 265.906254 
L 734.132489 260.623501 
L 726.456874 255.780383 
L 717.927175 251.354936 
L 708.575246 247.318893 
L 698.442894 243.637256 
L 687.582547 240.267844 
L 676.057943 237.160849 
L 663.944835 234.258363 
L 651.331706 231.493913 
L 638.3205 228.791971 
L 625.027376 226.067465 
L 611.583462 223.225276 
L 598.135634 220.159726 
L 584.847308 216.754057 
L 571.899242 212.879898 
L 559.49035 208.396732 
L 547.838539 203.151342 
L 537.181551 196.977254 
L 527.77782 189.694175 
" clip-path="url(#pff3a736817)" style="fill: none; stroke: #8c564b; stroke-width: 1.5"/>
    <path d="M 965.488757 892.691974 
L 930.495375 901.424002 
L 898.551559 908.463597 
L 869.364591 913.972002 
L 842.665013 918.09524 
L 818.205999 920.964752 
L 795.762855 922.698127 
L 775.132587 923.4 
L 756.133482 923.163132 
L 738.604571 922.069716 
L 722.404855 920.192864 
L 707.412172 917.598187 
L 693.521641 914.345329 
L 680.643688 910.48927 
L 668.701805 906.081243 
L 657.630236 901.169164 
L 647.371856 895.79763 
L 637.876457 890.007573 
L 629.099539 883.835802 
L 621.001627 877.314622 
L 613.547991 870.471683 
L 606.708609 863.330152 
L 600.458207 855.909188 
L 594.776213 848.224657 
L 589.646528 840.289977 
L 585.057077 832.116971 
L 580.999134 823.716594 
L 577.466479 815.09946 
L 574.454488 806.276093 
L 571.959231 797.256904 
L 569.976711 788.051941 
L 568.502287 778.670485 
L 567.530336 769.120608 
L 567.054129 759.408786 
L 567.065877 749.539663 
L 567.556882 739.515994 
L 568.517712 729.338777 
L 569.938347 719.007548 
L 571.808257 708.520788 
L 574.116399 697.876392 
L 576.851129 687.072154 
L 580.000047 676.106225 
L 583.549798 664.97753 
L 587.485844 653.686122 
L 591.792236 642.233473 
L 596.451385 630.6227 
L 601.443862 618.858743 
L 606.748219 606.948487 
L 612.340845 594.900845 
L 618.195851 582.726814 
L 624.284992 570.439492 
L 630.577624 558.054087 
L 643.638716 533.060323 
L 663.857374 495.325697 
L 677.28256 470.264414 
L 690.214017 445.584774 
L 696.37069 433.471067 
L 702.253115 421.556401 
L 707.80944 409.879752 
L 712.98785 398.482563 
L 717.737228 387.409055 
L 722.008057 376.706606 
L 725.753655 366.426163 
L 728.931906 356.622578 
L 731.507671 347.35461 
L 733.456071 338.68414 
L 734.766686 330.673724 
L 735.448248 323.381169 
L 735.532367 316.849544 
L 735.073028 311.091709 
L 734.136886 306.071481 
L 732.780352 301.689425 
L 731.016829 297.786521 
L 728.789845 294.174969 
L 725.972811 290.687477 
L 722.40126 287.218649 
L 717.919347 283.736232 
L 712.414937 280.263089 
L 705.831835 276.847591 
L 698.164354 273.538511 
L 689.444872 270.370247 
L 679.731835 267.356787 
L 669.101051 264.490762 
L 657.64029 261.744589 
L 645.446246 259.07199 
L 605.316108 250.718643 
L 591.134853 247.475545 
L 576.764125 243.769368 
L 562.317604 239.400779 
L 547.914803 234.10999 
L 536.262992 228.8646 
L 533.702691 227.550988 
L 523.045703 221.3769 
L 519.914974 219.271429 
L 510.511243 211.988349 
L 510.511243 211.988349 
" clip-path="url(#pff3a736817)" style="fill: none; stroke: #17becf; stroke-width: 1.5"/>
   </g>
   <g id="patch_3">
    <path d="M 487.762367 961.2 
L 487.762367 129.6 
" style="fill: none; stroke: #000000; stroke-width: 0.8; stroke-linejoin: miter; stroke-linecap: square"/>
   </g>
   <g id="patch_4">
    <path d="M 988.237633 961.2 
L 988.237633 129.6 
" style="fill: none; stroke: #000000; stroke-width: 0.8; stroke-linejoin: miter; stroke-linecap: square"/>
   </g>
   <g id="patch_5">
    <path d="M 487.762367 961.2 
L 988.237633 961.2 
" style="fill: none; stroke: #000000; stroke-width: 0.8; stroke-linejoin: miter; stroke-linecap: square"/>
   </g>
   <g id="patch_6">
    <path d="M 487.762367 129.6 
L 988.237633 129.6 
" style="fill: none; stroke: #000000; stroke-width: 0.8; stroke-linejoin: miter; stroke-linecap: square"/>
   </g>
  </g>
 </g>
 <defs>
  <clipPath id="pff3a736817">
   <rect x="487.762367" y="129.6" width="500.475265" height="831.6"/>
  </clipPath>
 </defs>
</svg>
