<?xml version="1.0" encoding="utf-8" standalone="no"?>
<!DOCTYPE svg PUBLIC "-//W3C//DTD SVG 1.1//EN"
  "http://www.w3.org/Graphics/SVG/1.1/DTD/svg11.dtd">
<svg xmlns:xlink="http://www.w3.org/1999/xlink" width="1440pt" height="1080pt" viewBox="0 0 1440 1080" xmlns="http://www.w3.org/2000/svg" version="1.1">
 <metadata>
  <rdf:RDF xmlns:dc="http://purl.org/dc/elements/1.1/" xmlns:cc="http://creativecommons.org/ns#" xmlns:rdf="http://www.w3.org/1999/02/22-rdf-syntax-ns#">
   <cc:Work>
    <dc:type rdf:resource="http://purl.org/dc/dcmitype/StillImage"/>
    <dc:date>2023-12-11T12:07:03.279686</dc:date>
    <dc:format>image/svg+xml</dc:format>
    <dc:creator>
     <cc:Agent>
      <dc:title>Matplotlib v3.7.1, https://matplotlib.org/</dc:title>
     </cc:Agent>
    </dc:creator>
   </cc:Work>
  </rdf:RDF>
 </metadata>
 <defs>
  <style type="text/css">*{stroke-linejoin: round; stroke-linecap: butt}</style>
 </defs>
 <g id="figure_1">
  <g id="patch_1">
   <path d="M 0 1080 
L 1440 1080 
L 1440 0 
L 0 0 
z
" style="fill: #ffffff"/>
  </g>
  <g id="axes_1">
   <g id="patch_2">
    <path d="M 561.87746 961.2 
L 914.12254 961.2 
L 914.12254 129.6 
L 561.87746 129.6 
z
" style="fill: #ffffff"/>
   </g>
   <g id="matplotlib.axis_1">
    <g id="xtick_1">
     <g id="line2d_1">
      <defs>
       <path id="mfe8195c3b8" d="M 0 0 
L 0 3.5 
" style="stroke: #000000; stroke-width: 0.8"/>
      </defs>
      <g>
       <use xlink:href="#mfe8195c3b8" x="594.091513" y="961.2" style="stroke: #000000; stroke-width: 0.8"/>
      </g>
     </g>
     <g id="text_1">
      <!-- 250 -->
      <g transform="translate(584.547763 975.798437) scale(0.1 -0.1)">
       <defs>
        <path id="DejaVuSans-32" d="M 1228 531 
L 3431 531 
L 3431 0 
L 469 0 
L 469 531 
Q 828 903 1448 1529 
Q 2069 2156 2228 2338 
Q 2531 2678 2651 2914 
Q 2772 3150 2772 3378 
Q 2772 3750 2511 3984 
Q 2250 4219 1831 4219 
Q 1534 4219 1204 4116 
Q 875 4013 500 3803 
L 500 4441 
Q 881 4594 1212 4672 
Q 1544 4750 1819 4750 
Q 2544 4750 2975 4387 
Q 3406 4025 3406 3419 
Q 3406 3131 3298 2873 
Q 3191 2616 2906 2266 
Q 2828 2175 2409 1742 
Q 1991 1309 1228 531 
z
" transform="scale(0.015625)"/>
        <path id="DejaVuSans-35" d="M 691 4666 
L 3169 4666 
L 3169 4134 
L 1269 4134 
L 1269 2991 
Q 1406 3038 1543 3061 
Q 1681 3084 1819 3084 
Q 2600 3084 3056 2656 
Q 3513 2228 3513 1497 
Q 3513 744 3044 326 
Q 2575 -91 1722 -91 
Q 1428 -91 1123 -41 
Q 819 9 494 109 
L 494 744 
Q 775 591 1075 516 
Q 1375 441 1709 441 
Q 2250 441 2565 725 
Q 2881 1009 2881 1497 
Q 2881 1984 2565 2268 
Q 2250 2553 1709 2553 
Q 1456 2553 1204 2497 
Q 953 2441 691 2322 
L 691 4666 
z
" transform="scale(0.015625)"/>
        <path id="DejaVuSans-30" d="M 2034 4250 
Q 1547 4250 1301 3770 
Q 1056 3291 1056 2328 
Q 1056 1369 1301 889 
Q 1547 409 2034 409 
Q 2525 409 2770 889 
Q 3016 1369 3016 2328 
Q 3016 3291 2770 3770 
Q 2525 4250 2034 4250 
z
M 2034 4750 
Q 2819 4750 3233 4129 
Q 3647 3509 3647 2328 
Q 3647 1150 3233 529 
Q 2819 -91 2034 -91 
Q 1250 -91 836 529 
Q 422 1150 422 2328 
Q 422 3509 836 4129 
Q 1250 4750 2034 4750 
z
" transform="scale(0.015625)"/>
       </defs>
       <use xlink:href="#DejaVuSans-32"/>
       <use xlink:href="#DejaVuSans-35" x="63.623047"/>
       <use xlink:href="#DejaVuSans-30" x="127.246094"/>
      </g>
     </g>
    </g>
    <g id="xtick_2">
     <g id="line2d_2">
      <g>
       <use xlink:href="#mfe8195c3b8" x="646.945451" y="961.2" style="stroke: #000000; stroke-width: 0.8"/>
      </g>
     </g>
     <g id="text_2">
      <!-- 300 -->
      <g transform="translate(637.401701 975.798437) scale(0.1 -0.1)">
       <defs>
        <path id="DejaVuSans-33" d="M 2597 2516 
Q 3050 2419 3304 2112 
Q 3559 1806 3559 1356 
Q 3559 666 3084 287 
Q 2609 -91 1734 -91 
Q 1441 -91 1130 -33 
Q 819 25 488 141 
L 488 750 
Q 750 597 1062 519 
Q 1375 441 1716 441 
Q 2309 441 2620 675 
Q 2931 909 2931 1356 
Q 2931 1769 2642 2001 
Q 2353 2234 1838 2234 
L 1294 2234 
L 1294 2753 
L 1863 2753 
Q 2328 2753 2575 2939 
Q 2822 3125 2822 3475 
Q 2822 3834 2567 4026 
Q 2313 4219 1838 4219 
Q 1578 4219 1281 4162 
Q 984 4106 628 3988 
L 628 4550 
Q 988 4650 1302 4700 
Q 1616 4750 1894 4750 
Q 2613 4750 3031 4423 
Q 3450 4097 3450 3541 
Q 3450 3153 3228 2886 
Q 3006 2619 2597 2516 
z
" transform="scale(0.015625)"/>
       </defs>
       <use xlink:href="#DejaVuSans-33"/>
       <use xlink:href="#DejaVuSans-30" x="63.623047"/>
       <use xlink:href="#DejaVuSans-30" x="127.246094"/>
      </g>
     </g>
    </g>
    <g id="xtick_3">
     <g id="line2d_3">
      <g>
       <use xlink:href="#mfe8195c3b8" x="699.799389" y="961.2" style="stroke: #000000; stroke-width: 0.8"/>
      </g>
     </g>
     <g id="text_3">
      <!-- 350 -->
      <g transform="translate(690.255639 975.798437) scale(0.1 -0.1)">
       <use xlink:href="#DejaVuSans-33"/>
       <use xlink:href="#DejaVuSans-35" x="63.623047"/>
       <use xlink:href="#DejaVuSans-30" x="127.246094"/>
      </g>
     </g>
    </g>
    <g id="xtick_4">
     <g id="line2d_4">
      <g>
       <use xlink:href="#mfe8195c3b8" x="752.653326" y="961.2" style="stroke: #000000; stroke-width: 0.8"/>
      </g>
     </g>
     <g id="text_4">
      <!-- 400 -->
      <g transform="translate(743.109576 975.798437) scale(0.1 -0.1)">
       <defs>
        <path id="DejaVuSans-34" d="M 2419 4116 
L 825 1625 
L 2419 1625 
L 2419 4116 
z
M 2253 4666 
L 3047 4666 
L 3047 1625 
L 3713 1625 
L 3713 1100 
L 3047 1100 
L 3047 0 
L 2419 0 
L 2419 1100 
L 313 1100 
L 313 1709 
L 2253 4666 
z
" transform="scale(0.015625)"/>
       </defs>
       <use xlink:href="#DejaVuSans-34"/>
       <use xlink:href="#DejaVuSans-30" x="63.623047"/>
       <use xlink:href="#DejaVuSans-30" x="127.246094"/>
      </g>
     </g>
    </g>
    <g id="xtick_5">
     <g id="line2d_5">
      <g>
       <use xlink:href="#mfe8195c3b8" x="805.507264" y="961.2" style="stroke: #000000; stroke-width: 0.8"/>
      </g>
     </g>
     <g id="text_5">
      <!-- 450 -->
      <g transform="translate(795.963514 975.798437) scale(0.1 -0.1)">
       <use xlink:href="#DejaVuSans-34"/>
       <use xlink:href="#DejaVuSans-35" x="63.623047"/>
       <use xlink:href="#DejaVuSans-30" x="127.246094"/>
      </g>
     </g>
    </g>
    <g id="xtick_6">
     <g id="line2d_6">
      <g>
       <use xlink:href="#mfe8195c3b8" x="858.361201" y="961.2" style="stroke: #000000; stroke-width: 0.8"/>
      </g>
     </g>
     <g id="text_6">
      <!-- 500 -->
      <g transform="translate(848.817451 975.798437) scale(0.1 -0.1)">
       <use xlink:href="#DejaVuSans-35"/>
       <use xlink:href="#DejaVuSans-30" x="63.623047"/>
       <use xlink:href="#DejaVuSans-30" x="127.246094"/>
      </g>
     </g>
    </g>
    <g id="xtick_7">
     <g id="line2d_7">
      <g>
       <use xlink:href="#mfe8195c3b8" x="911.215139" y="961.2" style="stroke: #000000; stroke-width: 0.8"/>
      </g>
     </g>
     <g id="text_7">
      <!-- 550 -->
      <g transform="translate(901.671389 975.798437) scale(0.1 -0.1)">
       <use xlink:href="#DejaVuSans-35"/>
       <use xlink:href="#DejaVuSans-35" x="63.623047"/>
       <use xlink:href="#DejaVuSans-30" x="127.246094"/>
      </g>
     </g>
    </g>
   </g>
   <g id="matplotlib.axis_2">
    <g id="ytick_1">
     <g id="line2d_8">
      <defs>
       <path id="m3c0a8636cc" d="M 0 0 
L -3.5 0 
" style="stroke: #000000; stroke-width: 0.8"/>
      </defs>
      <g>
       <use xlink:href="#m3c0a8636cc" x="561.87746" y="879.420659" style="stroke: #000000; stroke-width: 0.8"/>
      </g>
     </g>
     <g id="text_8">
      <!-- 200 -->
      <g transform="translate(535.78996 883.219878) scale(0.1 -0.1)">
       <use xlink:href="#DejaVuSans-32"/>
       <use xlink:href="#DejaVuSans-30" x="63.623047"/>
       <use xlink:href="#DejaVuSans-30" x="127.246094"/>
      </g>
     </g>
    </g>
    <g id="ytick_2">
     <g id="line2d_9">
      <g>
       <use xlink:href="#m3c0a8636cc" x="561.87746" y="773.712784" style="stroke: #000000; stroke-width: 0.8"/>
      </g>
     </g>
     <g id="text_9">
      <!-- 300 -->
      <g transform="translate(535.78996 777.512003) scale(0.1 -0.1)">
       <use xlink:href="#DejaVuSans-33"/>
       <use xlink:href="#DejaVuSans-30" x="63.623047"/>
       <use xlink:href="#DejaVuSans-30" x="127.246094"/>
      </g>
     </g>
    </g>
    <g id="ytick_3">
     <g id="line2d_10">
      <g>
       <use xlink:href="#m3c0a8636cc" x="561.87746" y="668.004909" style="stroke: #000000; stroke-width: 0.8"/>
      </g>
     </g>
     <g id="text_10">
      <!-- 400 -->
      <g transform="translate(535.78996 671.804128) scale(0.1 -0.1)">
       <use xlink:href="#DejaVuSans-34"/>
       <use xlink:href="#DejaVuSans-30" x="63.623047"/>
       <use xlink:href="#DejaVuSans-30" x="127.246094"/>
      </g>
     </g>
    </g>
    <g id="ytick_4">
     <g id="line2d_11">
      <g>
       <use xlink:href="#m3c0a8636cc" x="561.87746" y="562.297034" style="stroke: #000000; stroke-width: 0.8"/>
      </g>
     </g>
     <g id="text_11">
      <!-- 500 -->
      <g transform="translate(535.78996 566.096252) scale(0.1 -0.1)">
       <use xlink:href="#DejaVuSans-35"/>
       <use xlink:href="#DejaVuSans-30" x="63.623047"/>
       <use xlink:href="#DejaVuSans-30" x="127.246094"/>
      </g>
     </g>
    </g>
    <g id="ytick_5">
     <g id="line2d_12">
      <g>
       <use xlink:href="#m3c0a8636cc" x="561.87746" y="456.589159" style="stroke: #000000; stroke-width: 0.8"/>
      </g>
     </g>
     <g id="text_12">
      <!-- 600 -->
      <g transform="translate(535.78996 460.388377) scale(0.1 -0.1)">
       <defs>
        <path id="DejaVuSans-36" d="M 2113 2584 
Q 1688 2584 1439 2293 
Q 1191 2003 1191 1497 
Q 1191 994 1439 701 
Q 1688 409 2113 409 
Q 2538 409 2786 701 
Q 3034 994 3034 1497 
Q 3034 2003 2786 2293 
Q 2538 2584 2113 2584 
z
M 3366 4563 
L 3366 3988 
Q 3128 4100 2886 4159 
Q 2644 4219 2406 4219 
Q 1781 4219 1451 3797 
Q 1122 3375 1075 2522 
Q 1259 2794 1537 2939 
Q 1816 3084 2150 3084 
Q 2853 3084 3261 2657 
Q 3669 2231 3669 1497 
Q 3669 778 3244 343 
Q 2819 -91 2113 -91 
Q 1303 -91 875 529 
Q 447 1150 447 2328 
Q 447 3434 972 4092 
Q 1497 4750 2381 4750 
Q 2619 4750 2861 4703 
Q 3103 4656 3366 4563 
z
" transform="scale(0.015625)"/>
       </defs>
       <use xlink:href="#DejaVuSans-36"/>
       <use xlink:href="#DejaVuSans-30" x="63.623047"/>
       <use xlink:href="#DejaVuSans-30" x="127.246094"/>
      </g>
     </g>
    </g>
    <g id="ytick_6">
     <g id="line2d_13">
      <g>
       <use xlink:href="#m3c0a8636cc" x="561.87746" y="350.881283" style="stroke: #000000; stroke-width: 0.8"/>
      </g>
     </g>
     <g id="text_13">
      <!-- 700 -->
      <g transform="translate(535.78996 354.680502) scale(0.1 -0.1)">
       <defs>
        <path id="DejaVuSans-37" d="M 525 4666 
L 3525 4666 
L 3525 4397 
L 1831 0 
L 1172 0 
L 2766 4134 
L 525 4134 
L 525 4666 
z
" transform="scale(0.015625)"/>
       </defs>
       <use xlink:href="#DejaVuSans-37"/>
       <use xlink:href="#DejaVuSans-30" x="63.623047"/>
       <use xlink:href="#DejaVuSans-30" x="127.246094"/>
      </g>
     </g>
    </g>
    <g id="ytick_7">
     <g id="line2d_14">
      <g>
       <use xlink:href="#m3c0a8636cc" x="561.87746" y="245.173408" style="stroke: #000000; stroke-width: 0.8"/>
      </g>
     </g>
     <g id="text_14">
      <!-- 800 -->
      <g transform="translate(535.78996 248.972627) scale(0.1 -0.1)">
       <defs>
        <path id="DejaVuSans-38" d="M 2034 2216 
Q 1584 2216 1326 1975 
Q 1069 1734 1069 1313 
Q 1069 891 1326 650 
Q 1584 409 2034 409 
Q 2484 409 2743 651 
Q 3003 894 3003 1313 
Q 3003 1734 2745 1975 
Q 2488 2216 2034 2216 
z
M 1403 2484 
Q 997 2584 770 2862 
Q 544 3141 544 3541 
Q 544 4100 942 4425 
Q 1341 4750 2034 4750 
Q 2731 4750 3128 4425 
Q 3525 4100 3525 3541 
Q 3525 3141 3298 2862 
Q 3072 2584 2669 2484 
Q 3125 2378 3379 2068 
Q 3634 1759 3634 1313 
Q 3634 634 3220 271 
Q 2806 -91 2034 -91 
Q 1263 -91 848 271 
Q 434 634 434 1313 
Q 434 1759 690 2068 
Q 947 2378 1403 2484 
z
M 1172 3481 
Q 1172 3119 1398 2916 
Q 1625 2713 2034 2713 
Q 2441 2713 2670 2916 
Q 2900 3119 2900 3481 
Q 2900 3844 2670 4047 
Q 2441 4250 2034 4250 
Q 1625 4250 1398 4047 
Q 1172 3844 1172 3481 
z
" transform="scale(0.015625)"/>
       </defs>
       <use xlink:href="#DejaVuSans-38"/>
       <use xlink:href="#DejaVuSans-30" x="63.623047"/>
       <use xlink:href="#DejaVuSans-30" x="127.246094"/>
      </g>
     </g>
    </g>
    <g id="ytick_8">
     <g id="line2d_15">
      <g>
       <use xlink:href="#m3c0a8636cc" x="561.87746" y="139.465533" style="stroke: #000000; stroke-width: 0.8"/>
      </g>
     </g>
     <g id="text_15">
      <!-- 900 -->
      <g transform="translate(535.78996 143.264752) scale(0.1 -0.1)">
       <defs>
        <path id="DejaVuSans-39" d="M 703 97 
L 703 672 
Q 941 559 1184 500 
Q 1428 441 1663 441 
Q 2288 441 2617 861 
Q 2947 1281 2994 2138 
Q 2813 1869 2534 1725 
Q 2256 1581 1919 1581 
Q 1219 1581 811 2004 
Q 403 2428 403 3163 
Q 403 3881 828 4315 
Q 1253 4750 1959 4750 
Q 2769 4750 3195 4129 
Q 3622 3509 3622 2328 
Q 3622 1225 3098 567 
Q 2575 -91 1691 -91 
Q 1453 -91 1209 -44 
Q 966 3 703 97 
z
M 1959 2075 
Q 2384 2075 2632 2365 
Q 2881 2656 2881 3163 
Q 2881 3666 2632 3958 
Q 2384 4250 1959 4250 
Q 1534 4250 1286 3958 
Q 1038 3666 1038 3163 
Q 1038 2656 1286 2365 
Q 1534 2075 1959 2075 
z
" transform="scale(0.015625)"/>
       </defs>
       <use xlink:href="#DejaVuSans-39"/>
       <use xlink:href="#DejaVuSans-30" x="63.623047"/>
       <use xlink:href="#DejaVuSans-30" x="127.246094"/>
      </g>
     </g>
    </g>
   </g>
   <g id="LineCollection_1">
    <path d="M 898.1114 867.153681 
L 850.527212 858.824242 
L 828.136918 854.706304 
L 806.793128 850.575818 
L 786.569245 846.407329 
L 767.527704 842.180583 
L 749.720992 837.880674 
L 733.192641 833.498362 
L 717.978122 829.030614 
L 704.105547 824.481426 
L 691.596007 819.862956 
L 680.463247 815.196965 
L 670.712252 810.516423 
L 662.336093 805.866806 
L 655.310369 801.306082 
L 649.58494 796.901444 
L 645.074071 792.720046 
L 641.649042 788.811332 
L 639.140851 785.182108 
L 637.360826 781.773292 
L 636.138436 778.454305 
L 635.36039 775.046775 
L 634.988368 771.370331 
L 635.046097 767.286192 
L 635.587843 762.717898 
L 636.668104 757.647188 
L 638.323787 752.09656 
L 640.568919 746.110552 
L 643.39688 739.741752 
L 646.785421 733.042473 
L 650.701751 726.060688 
L 655.106665 718.838606 
L 659.957545 711.4126 
L 665.210398 703.813745 
L 670.821214 696.068553 
L 676.74683 688.1997 
L 682.945472 680.226664 
L 696.003578 664.03313 
L 709.698878 647.597969 
L 737.994885 614.301947 
L 759.187167 589.164492 
L 772.970528 572.410943 
L 786.323316 555.686317 
L 798.942932 539.261891 
L 805.315011 530.676802 
L 811.32526 522.362274 
L 817.159782 514.057917 
L 822.81027 505.762551 
L 828.268912 497.474543 
L 833.528247 489.191797 
L 838.58101 480.911754 
L 843.419973 472.63138 
L 848.037776 464.347157 
L 852.426744 456.055077 
L 856.578688 447.750639 
L 860.484704 439.428853 
L 864.134934 431.084266 
L 867.518325 422.711004 
L 870.622365 414.302865 
L 873.432797 405.853445 
L 875.933336 397.356352 
L 878.105386 388.805504 
L 879.927798 380.195531 
L 881.376687 371.522323 
L 882.425392 362.783688 
L 883.044605 353.980141 
L 883.20278 345.115727 
L 882.866845 336.198813 
L 882.003262 327.242668 
L 880.579371 318.265654 
L 878.564875 309.290863 
L 875.933245 300.345073 
L 872.662725 291.457059 
L 868.736718 282.655457 
L 864.143373 273.96651 
L 858.874456 265.412094 
L 852.923715 257.008345 
L 846.285079 248.765071 
L 838.951039 240.685906 
L 830.911452 232.769042 
L 822.152878 225.008293 
L 812.658445 217.394245 
L 802.408127 209.915315 
L 791.379337 202.558608 
L 779.547678 195.310548 
L 766.887783 188.157266 
L 753.374153 181.084808 
L 738.981986 174.079186 
L 724.308664 167.4 
L 724.308664 167.4 
" clip-path="url(#pc2710c4a4f)" style="fill: none; stroke: #1f77b4; stroke-width: 1.5"/>
    <path d="M 893.2448 895.276841 
L 868.956391 891.073829 
L 845.456967 886.911558 
L 822.844151 882.752694 
L 801.200715 878.564221 
L 780.595615 874.317156 
L 761.084984 869.986284 
L 742.713079 865.549895 
L 725.513201 860.989534 
L 709.508559 856.289766 
L 694.713115 851.437944 
L 681.132375 846.423992 
L 668.764154 841.240192 
L 657.599304 835.880989 
L 647.622402 830.342798 
L 638.812408 824.623822 
L 631.143288 818.72388 
L 624.584609 812.644242 
L 619.102088 806.387476 
L 614.65813 799.957297 
L 611.212318 793.358434 
L 608.72188 786.59649 
L 607.142131 779.677825 
L 606.426876 772.60944 
L 606.528797 765.398864 
L 607.399805 758.054055 
L 608.991369 750.583305 
L 611.25482 742.995155 
L 614.141624 735.298307 
L 617.603646 727.501553 
L 621.593371 719.613708 
L 626.064119 711.643541 
L 630.970229 703.599725 
L 636.267223 695.490778 
L 641.911958 687.325023 
L 647.86274 679.110541 
L 654.079445 670.855139 
L 660.523594 662.566319 
L 667.158434 654.251245 
L 673.948989 645.916728 
L 680.862096 637.569202 
L 687.866435 629.214715 
L 694.932531 620.858913 
L 702.032754 612.507034 
L 709.141299 604.16391 
L 716.234156 595.833959 
L 723.28907 587.521193 
L 730.285486 579.229219 
L 737.204492 570.961254 
L 744.028738 562.720127 
L 750.742366 554.508298 
L 757.330912 546.327871 
L 763.781221 538.180609 
L 770.081334 530.067955 
L 776.22039 521.991049 
L 782.188508 513.950752 
L 787.976673 505.947665 
L 793.576615 497.982155 
L 798.980687 490.054373 
L 804.181738 482.164287 
L 809.17299 474.311698 
L 813.947909 466.496268 
L 818.50008 458.717544 
L 822.823081 450.974982 
L 826.91036 443.267972 
L 830.755111 435.595857 
L 834.350159 427.957957 
L 837.687844 420.353592 
L 840.759912 412.782097 
L 843.557408 405.242843 
L 846.070581 397.735254 
L 848.28879 390.25882 
L 850.200421 382.813108 
L 851.792812 375.397776 
L 853.052183 368.012576 
L 853.963582 360.657365 
L 854.510837 353.332102 
L 854.676522 346.036848 
L 854.44193 338.771765 
L 853.787067 331.537105 
L 852.69065 324.333202 
L 851.130126 317.160452 
L 849.081705 310.019302 
L 846.520403 302.910219 
L 843.420109 295.833666 
L 839.753663 288.790071 
L 835.492958 281.779788 
L 830.609051 274.803053 
L 825.072305 267.859943 
L 818.852543 260.950317 
L 811.919221 254.073761 
L 804.241634 247.229526 
L 795.789129 240.416454 
L 786.531353 233.632901 
L 776.438517 226.876663 
L 765.481692 220.144877 
L 753.633121 213.433931 
L 740.86656 206.73936 
L 727.157656 200.055735 
L 712.484334 193.376549 
" clip-path="url(#pc2710c4a4f)" style="fill: none; stroke: #8c564b; stroke-width: 1.5"/>
    <path d="M 888.378201 923.4 
L 840.294378 914.98189 
L 817.421434 910.773937 
L 795.439017 906.517731 
L 774.410741 902.180092 
L 754.385522 897.729988 
L 735.398449 893.137792 
L 717.471636 888.374368 
L 700.615135 883.409923 
L 684.828032 878.212578 
L 670.099961 872.746639 
L 656.413382 866.970608 
L 643.747172 860.835234 
L 632.082188 854.282256 
L 621.409427 847.24532 
L 613.740308 841.345377 
L 611.74056 839.655436 
L 605.181881 833.575798 
L 603.118575 831.453954 
L 597.636054 825.197188 
L 595.62264 822.614348 
L 591.178682 816.18417 
L 589.358604 813.168272 
L 585.912792 806.569409 
L 584.429915 803.222447 
L 581.939477 796.460503 
L 580.896872 792.949818 
L 579.317122 786.031154 
L 578.746016 782.551249 
L 578.030761 775.482863 
L 577.8886 772.206053 
L 577.990521 764.995476 
L 578.186268 762.037772 
L 579.057276 754.692963 
L 579.485115 752.107124 
L 581.641071 742.425054 
L 584.531486 732.972215 
L 588.056439 723.715604 
L 592.135116 714.6194 
L 596.700999 705.650696 
L 601.697624 696.781852 
L 607.075415 687.990952 
L 612.789526 679.261373 
L 618.798459 670.581007 
L 625.063227 661.941438 
L 631.546872 653.337176 
L 638.214201 644.765002 
L 651.822216 627.888921 
L 658.990711 619.232398 
L 673.187372 602.372595 
L 708.434543 560.86797 
L 721.988988 544.585814 
L 735.027929 528.518125 
L 747.448406 512.679212 
L 759.165579 497.081494 
L 764.738084 489.376592 
L 770.109515 481.736122 
L 775.272887 474.161448 
L 780.221707 466.654001 
L 784.949865 459.21533 
L 789.451527 451.847157 
L 793.721044 444.551431 
L 797.752861 437.330385 
L 801.541447 430.186593 
L 805.081236 423.123022 
L 808.366597 416.143072 
L 811.391817 409.250607 
L 814.15112 402.44996 
L 816.638709 395.745904 
L 818.848845 389.143576 
L 820.775939 382.648339 
L 822.414672 376.265553 
L 823.760103 370.000248 
L 824.807746 363.856664 
L 825.553573 357.837658 
L 825.993877 351.943988 
L 826.124932 346.173493 
L 825.942388 340.520271 
L 825.440351 334.973972 
L 824.610173 329.519369 
L 823.439043 324.136415 
L 821.908565 318.800905 
L 819.993614 313.485818 
L 817.661729 308.163192 
L 814.873272 302.806298 
L 811.582398 297.39171 
L 807.738688 291.900912 
L 803.289168 286.321189 
L 798.180352 280.64573 
L 792.360015 274.873047 
L 785.778515 269.005926 
L 778.389626 263.050172 
L 770.150924 257.013338 
L 761.023871 250.903603 
L 750.973695 244.728855 
L 739.969216 238.495997 
L 727.982662 232.210448 
L 714.989564 225.875807 
L 700.660004 219.353099 
L 700.660004 219.353099 
" clip-path="url(#pc2710c4a4f)" style="fill: none; stroke: #17becf; stroke-width: 1.5"/>
   </g>
   <g id="patch_3">
    <path d="M 561.87746 961.2 
L 561.87746 129.6 
" style="fill: none; stroke: #000000; stroke-width: 0.8; stroke-linejoin: miter; stroke-linecap: square"/>
   </g>
   <g id="patch_4">
    <path d="M 914.12254 961.2 
L 914.12254 129.6 
" style="fill: none; stroke: #000000; stroke-width: 0.8; stroke-linejoin: miter; stroke-linecap: square"/>
   </g>
   <g id="patch_5">
    <path d="M 561.87746 961.2 
L 914.12254 961.2 
" style="fill: none; stroke: #000000; stroke-width: 0.8; stroke-linejoin: miter; stroke-linecap: square"/>
   </g>
   <g id="patch_6">
    <path d="M 561.87746 129.6 
L 914.12254 129.6 
" style="fill: none; stroke: #000000; stroke-width: 0.8; stroke-linejoin: miter; stroke-linecap: square"/>
   </g>
  </g>
 </g>
 <defs>
  <clipPath id="pc2710c4a4f">
   <rect x="561.87746" y="129.6" width="352.24508" height="831.6"/>
  </clipPath>
 </defs>
</svg>
