<?xml version="1.0" encoding="utf-8" standalone="no"?>
<!DOCTYPE svg PUBLIC "-//W3C//DTD SVG 1.1//EN"
  "http://www.w3.org/Graphics/SVG/1.1/DTD/svg11.dtd">
<svg xmlns:xlink="http://www.w3.org/1999/xlink" width="1440pt" height="1080pt" viewBox="0 0 1440 1080" xmlns="http://www.w3.org/2000/svg" version="1.1">
 <metadata>
  <rdf:RDF xmlns:dc="http://purl.org/dc/elements/1.1/" xmlns:cc="http://creativecommons.org/ns#" xmlns:rdf="http://www.w3.org/1999/02/22-rdf-syntax-ns#">
   <cc:Work>
    <dc:type rdf:resource="http://purl.org/dc/dcmitype/StillImage"/>
    <dc:date>2023-12-11T12:06:51.644881</dc:date>
    <dc:format>image/svg+xml</dc:format>
    <dc:creator>
     <cc:Agent>
      <dc:title>Matplotlib v3.7.1, https://matplotlib.org/</dc:title>
     </cc:Agent>
    </dc:creator>
   </cc:Work>
  </rdf:RDF>
 </metadata>
 <defs>
  <style type="text/css">*{stroke-linejoin: round; stroke-linecap: butt}</style>
 </defs>
 <g id="figure_1">
  <g id="patch_1">
   <path d="M 0 1080 
L 1440 1080 
L 1440 0 
L 0 0 
z
" style="fill: #ffffff"/>
  </g>
  <g id="axes_1">
   <g id="patch_2">
    <path d="M 180 958.473769 
L 1296 958.473769 
L 1296 132.326231 
L 180 132.326231 
z
" style="fill: #ffffff"/>
   </g>
   <g id="matplotlib.axis_1">
    <g id="xtick_1">
     <g id="line2d_1">
      <defs>
       <path id="m990835ea7e" d="M 0 0 
L 0 3.5 
" style="stroke: #000000; stroke-width: 0.8"/>
      </defs>
      <g>
       <use xlink:href="#m990835ea7e" x="288.647473" y="958.473769" style="stroke: #000000; stroke-width: 0.8"/>
      </g>
     </g>
     <g id="text_1">
      <!-- 800 -->
      <g transform="translate(279.103723 973.072207) scale(0.1 -0.1)">
       <defs>
        <path id="DejaVuSans-38" d="M 2034 2216 
Q 1584 2216 1326 1975 
Q 1069 1734 1069 1313 
Q 1069 891 1326 650 
Q 1584 409 2034 409 
Q 2484 409 2743 651 
Q 3003 894 3003 1313 
Q 3003 1734 2745 1975 
Q 2488 2216 2034 2216 
z
M 1403 2484 
Q 997 2584 770 2862 
Q 544 3141 544 3541 
Q 544 4100 942 4425 
Q 1341 4750 2034 4750 
Q 2731 4750 3128 4425 
Q 3525 4100 3525 3541 
Q 3525 3141 3298 2862 
Q 3072 2584 2669 2484 
Q 3125 2378 3379 2068 
Q 3634 1759 3634 1313 
Q 3634 634 3220 271 
Q 2806 -91 2034 -91 
Q 1263 -91 848 271 
Q 434 634 434 1313 
Q 434 1759 690 2068 
Q 947 2378 1403 2484 
z
M 1172 3481 
Q 1172 3119 1398 2916 
Q 1625 2713 2034 2713 
Q 2441 2713 2670 2916 
Q 2900 3119 2900 3481 
Q 2900 3844 2670 4047 
Q 2441 4250 2034 4250 
Q 1625 4250 1398 4047 
Q 1172 3844 1172 3481 
z
" transform="scale(0.015625)"/>
        <path id="DejaVuSans-30" d="M 2034 4250 
Q 1547 4250 1301 3770 
Q 1056 3291 1056 2328 
Q 1056 1369 1301 889 
Q 1547 409 2034 409 
Q 2525 409 2770 889 
Q 3016 1369 3016 2328 
Q 3016 3291 2770 3770 
Q 2525 4250 2034 4250 
z
M 2034 4750 
Q 2819 4750 3233 4129 
Q 3647 3509 3647 2328 
Q 3647 1150 3233 529 
Q 2819 -91 2034 -91 
Q 1250 -91 836 529 
Q 422 1150 422 2328 
Q 422 3509 836 4129 
Q 1250 4750 2034 4750 
z
" transform="scale(0.015625)"/>
       </defs>
       <use xlink:href="#DejaVuSans-38"/>
       <use xlink:href="#DejaVuSans-30" x="63.623047"/>
       <use xlink:href="#DejaVuSans-30" x="127.246094"/>
      </g>
     </g>
    </g>
    <g id="xtick_2">
     <g id="line2d_2">
      <g>
       <use xlink:href="#m990835ea7e" x="535.116423" y="958.473769" style="stroke: #000000; stroke-width: 0.8"/>
      </g>
     </g>
     <g id="text_2">
      <!-- 1000 -->
      <g transform="translate(522.391423 973.072207) scale(0.1 -0.1)">
       <defs>
        <path id="DejaVuSans-31" d="M 794 531 
L 1825 531 
L 1825 4091 
L 703 3866 
L 703 4441 
L 1819 4666 
L 2450 4666 
L 2450 531 
L 3481 531 
L 3481 0 
L 794 0 
L 794 531 
z
" transform="scale(0.015625)"/>
       </defs>
       <use xlink:href="#DejaVuSans-31"/>
       <use xlink:href="#DejaVuSans-30" x="63.623047"/>
       <use xlink:href="#DejaVuSans-30" x="127.246094"/>
       <use xlink:href="#DejaVuSans-30" x="190.869141"/>
      </g>
     </g>
    </g>
    <g id="xtick_3">
     <g id="line2d_3">
      <g>
       <use xlink:href="#m990835ea7e" x="781.585373" y="958.473769" style="stroke: #000000; stroke-width: 0.8"/>
      </g>
     </g>
     <g id="text_3">
      <!-- 1200 -->
      <g transform="translate(768.860373 973.072207) scale(0.1 -0.1)">
       <defs>
        <path id="DejaVuSans-32" d="M 1228 531 
L 3431 531 
L 3431 0 
L 469 0 
L 469 531 
Q 828 903 1448 1529 
Q 2069 2156 2228 2338 
Q 2531 2678 2651 2914 
Q 2772 3150 2772 3378 
Q 2772 3750 2511 3984 
Q 2250 4219 1831 4219 
Q 1534 4219 1204 4116 
Q 875 4013 500 3803 
L 500 4441 
Q 881 4594 1212 4672 
Q 1544 4750 1819 4750 
Q 2544 4750 2975 4387 
Q 3406 4025 3406 3419 
Q 3406 3131 3298 2873 
Q 3191 2616 2906 2266 
Q 2828 2175 2409 1742 
Q 1991 1309 1228 531 
z
" transform="scale(0.015625)"/>
       </defs>
       <use xlink:href="#DejaVuSans-31"/>
       <use xlink:href="#DejaVuSans-32" x="63.623047"/>
       <use xlink:href="#DejaVuSans-30" x="127.246094"/>
       <use xlink:href="#DejaVuSans-30" x="190.869141"/>
      </g>
     </g>
    </g>
    <g id="xtick_4">
     <g id="line2d_4">
      <g>
       <use xlink:href="#m990835ea7e" x="1028.054323" y="958.473769" style="stroke: #000000; stroke-width: 0.8"/>
      </g>
     </g>
     <g id="text_4">
      <!-- 1400 -->
      <g transform="translate(1015.329323 973.072207) scale(0.1 -0.1)">
       <defs>
        <path id="DejaVuSans-34" d="M 2419 4116 
L 825 1625 
L 2419 1625 
L 2419 4116 
z
M 2253 4666 
L 3047 4666 
L 3047 1625 
L 3713 1625 
L 3713 1100 
L 3047 1100 
L 3047 0 
L 2419 0 
L 2419 1100 
L 313 1100 
L 313 1709 
L 2253 4666 
z
" transform="scale(0.015625)"/>
       </defs>
       <use xlink:href="#DejaVuSans-31"/>
       <use xlink:href="#DejaVuSans-34" x="63.623047"/>
       <use xlink:href="#DejaVuSans-30" x="127.246094"/>
       <use xlink:href="#DejaVuSans-30" x="190.869141"/>
      </g>
     </g>
    </g>
    <g id="xtick_5">
     <g id="line2d_5">
      <g>
       <use xlink:href="#m990835ea7e" x="1274.523273" y="958.473769" style="stroke: #000000; stroke-width: 0.8"/>
      </g>
     </g>
     <g id="text_5">
      <!-- 1600 -->
      <g transform="translate(1261.798273 973.072207) scale(0.1 -0.1)">
       <defs>
        <path id="DejaVuSans-36" d="M 2113 2584 
Q 1688 2584 1439 2293 
Q 1191 2003 1191 1497 
Q 1191 994 1439 701 
Q 1688 409 2113 409 
Q 2538 409 2786 701 
Q 3034 994 3034 1497 
Q 3034 2003 2786 2293 
Q 2538 2584 2113 2584 
z
M 3366 4563 
L 3366 3988 
Q 3128 4100 2886 4159 
Q 2644 4219 2406 4219 
Q 1781 4219 1451 3797 
Q 1122 3375 1075 2522 
Q 1259 2794 1537 2939 
Q 1816 3084 2150 3084 
Q 2853 3084 3261 2657 
Q 3669 2231 3669 1497 
Q 3669 778 3244 343 
Q 2819 -91 2113 -91 
Q 1303 -91 875 529 
Q 447 1150 447 2328 
Q 447 3434 972 4092 
Q 1497 4750 2381 4750 
Q 2619 4750 2861 4703 
Q 3103 4656 3366 4563 
z
" transform="scale(0.015625)"/>
       </defs>
       <use xlink:href="#DejaVuSans-31"/>
       <use xlink:href="#DejaVuSans-36" x="63.623047"/>
       <use xlink:href="#DejaVuSans-30" x="127.246094"/>
       <use xlink:href="#DejaVuSans-30" x="190.869141"/>
      </g>
     </g>
    </g>
   </g>
   <g id="matplotlib.axis_2">
    <g id="ytick_1">
     <g id="line2d_6">
      <defs>
       <path id="m4778aa35c9" d="M 0 0 
L -3.5 0 
" style="stroke: #000000; stroke-width: 0.8"/>
      </defs>
      <g>
       <use xlink:href="#m4778aa35c9" x="180" y="951.195623" style="stroke: #000000; stroke-width: 0.8"/>
      </g>
     </g>
     <g id="text_6">
      <!-- 800 -->
      <g transform="translate(153.9125 954.994842) scale(0.1 -0.1)">
       <use xlink:href="#DejaVuSans-38"/>
       <use xlink:href="#DejaVuSans-30" x="63.623047"/>
       <use xlink:href="#DejaVuSans-30" x="127.246094"/>
      </g>
     </g>
    </g>
    <g id="ytick_2">
     <g id="line2d_7">
      <g>
       <use xlink:href="#m4778aa35c9" x="180" y="827.961148" style="stroke: #000000; stroke-width: 0.8"/>
      </g>
     </g>
     <g id="text_7">
      <!-- 900 -->
      <g transform="translate(153.9125 831.760367) scale(0.1 -0.1)">
       <defs>
        <path id="DejaVuSans-39" d="M 703 97 
L 703 672 
Q 941 559 1184 500 
Q 1428 441 1663 441 
Q 2288 441 2617 861 
Q 2947 1281 2994 2138 
Q 2813 1869 2534 1725 
Q 2256 1581 1919 1581 
Q 1219 1581 811 2004 
Q 403 2428 403 3163 
Q 403 3881 828 4315 
Q 1253 4750 1959 4750 
Q 2769 4750 3195 4129 
Q 3622 3509 3622 2328 
Q 3622 1225 3098 567 
Q 2575 -91 1691 -91 
Q 1453 -91 1209 -44 
Q 966 3 703 97 
z
M 1959 2075 
Q 2384 2075 2632 2365 
Q 2881 2656 2881 3163 
Q 2881 3666 2632 3958 
Q 2384 4250 1959 4250 
Q 1534 4250 1286 3958 
Q 1038 3666 1038 3163 
Q 1038 2656 1286 2365 
Q 1534 2075 1959 2075 
z
" transform="scale(0.015625)"/>
       </defs>
       <use xlink:href="#DejaVuSans-39"/>
       <use xlink:href="#DejaVuSans-30" x="63.623047"/>
       <use xlink:href="#DejaVuSans-30" x="127.246094"/>
      </g>
     </g>
    </g>
    <g id="ytick_3">
     <g id="line2d_8">
      <g>
       <use xlink:href="#m4778aa35c9" x="180" y="704.726673" style="stroke: #000000; stroke-width: 0.8"/>
      </g>
     </g>
     <g id="text_8">
      <!-- 1000 -->
      <g transform="translate(147.55 708.525892) scale(0.1 -0.1)">
       <use xlink:href="#DejaVuSans-31"/>
       <use xlink:href="#DejaVuSans-30" x="63.623047"/>
       <use xlink:href="#DejaVuSans-30" x="127.246094"/>
       <use xlink:href="#DejaVuSans-30" x="190.869141"/>
      </g>
     </g>
    </g>
    <g id="ytick_4">
     <g id="line2d_9">
      <g>
       <use xlink:href="#m4778aa35c9" x="180" y="581.492198" style="stroke: #000000; stroke-width: 0.8"/>
      </g>
     </g>
     <g id="text_9">
      <!-- 1100 -->
      <g transform="translate(147.55 585.291417) scale(0.1 -0.1)">
       <use xlink:href="#DejaVuSans-31"/>
       <use xlink:href="#DejaVuSans-31" x="63.623047"/>
       <use xlink:href="#DejaVuSans-30" x="127.246094"/>
       <use xlink:href="#DejaVuSans-30" x="190.869141"/>
      </g>
     </g>
    </g>
    <g id="ytick_5">
     <g id="line2d_10">
      <g>
       <use xlink:href="#m4778aa35c9" x="180" y="458.257723" style="stroke: #000000; stroke-width: 0.8"/>
      </g>
     </g>
     <g id="text_10">
      <!-- 1200 -->
      <g transform="translate(147.55 462.056942) scale(0.1 -0.1)">
       <use xlink:href="#DejaVuSans-31"/>
       <use xlink:href="#DejaVuSans-32" x="63.623047"/>
       <use xlink:href="#DejaVuSans-30" x="127.246094"/>
       <use xlink:href="#DejaVuSans-30" x="190.869141"/>
      </g>
     </g>
    </g>
    <g id="ytick_6">
     <g id="line2d_11">
      <g>
       <use xlink:href="#m4778aa35c9" x="180" y="335.023248" style="stroke: #000000; stroke-width: 0.8"/>
      </g>
     </g>
     <g id="text_11">
      <!-- 1300 -->
      <g transform="translate(147.55 338.822467) scale(0.1 -0.1)">
       <defs>
        <path id="DejaVuSans-33" d="M 2597 2516 
Q 3050 2419 3304 2112 
Q 3559 1806 3559 1356 
Q 3559 666 3084 287 
Q 2609 -91 1734 -91 
Q 1441 -91 1130 -33 
Q 819 25 488 141 
L 488 750 
Q 750 597 1062 519 
Q 1375 441 1716 441 
Q 2309 441 2620 675 
Q 2931 909 2931 1356 
Q 2931 1769 2642 2001 
Q 2353 2234 1838 2234 
L 1294 2234 
L 1294 2753 
L 1863 2753 
Q 2328 2753 2575 2939 
Q 2822 3125 2822 3475 
Q 2822 3834 2567 4026 
Q 2313 4219 1838 4219 
Q 1578 4219 1281 4162 
Q 984 4106 628 3988 
L 628 4550 
Q 988 4650 1302 4700 
Q 1616 4750 1894 4750 
Q 2613 4750 3031 4423 
Q 3450 4097 3450 3541 
Q 3450 3153 3228 2886 
Q 3006 2619 2597 2516 
z
" transform="scale(0.015625)"/>
       </defs>
       <use xlink:href="#DejaVuSans-31"/>
       <use xlink:href="#DejaVuSans-33" x="63.623047"/>
       <use xlink:href="#DejaVuSans-30" x="127.246094"/>
       <use xlink:href="#DejaVuSans-30" x="190.869141"/>
      </g>
     </g>
    </g>
    <g id="ytick_7">
     <g id="line2d_12">
      <g>
       <use xlink:href="#m4778aa35c9" x="180" y="211.788773" style="stroke: #000000; stroke-width: 0.8"/>
      </g>
     </g>
     <g id="text_12">
      <!-- 1400 -->
      <g transform="translate(147.55 215.587992) scale(0.1 -0.1)">
       <use xlink:href="#DejaVuSans-31"/>
       <use xlink:href="#DejaVuSans-34" x="63.623047"/>
       <use xlink:href="#DejaVuSans-30" x="127.246094"/>
       <use xlink:href="#DejaVuSans-30" x="190.869141"/>
      </g>
     </g>
    </g>
   </g>
   <g id="LineCollection_1">
    <path d="M 1224.903754 715.179384 
L 1195.80553 734.389829 
L 1167.943966 752.295527 
L 1141.21079 768.960581 
L 1115.581858 784.396119 
L 1091.032741 798.615985 
L 1067.538801 811.636662 
L 1045.075269 823.477204 
L 1023.617286 834.15921 
L 1003.13994 843.706804 
L 983.618252 852.146655 
L 965.02711 859.508012 
L 947.341134 865.822762 
L 930.534441 871.125481 
L 914.580289 875.45346 
L 899.450608 878.846659 
L 885.115397 881.34752 
L 871.542051 883.000596 
L 858.694701 883.851897 
L 846.533696 883.947958 
L 835.015414 883.334635 
L 824.092561 882.055776 
L 813.715061 880.151962 
L 803.8315 877.659603 
L 794.39092 874.610601 
L 785.344651 871.032692 
L 776.647831 866.950377 
L 768.260356 862.386231 
L 760.14717 857.362261 
L 752.277973 851.901083 
L 744.626535 846.026725 
L 737.169818 839.765032 
L 729.887105 833.14372 
L 722.759232 826.192165 
L 715.768001 818.941046 
L 708.895758 811.421921 
L 702.125137 803.666801 
L 695.438919 795.707752 
L 688.819988 787.576562 
L 682.251344 779.304452 
L 675.71616 770.921847 
L 669.19786 762.458197 
L 662.680209 753.941829 
L 656.160053 745.416369 
L 656.13474 745.383348 
L 649.610687 736.892468 
L 649.5576 736.823711 
L 643.015796 728.392038 
L 642.935906 728.28981 
L 636.36162 719.93797 
L 636.255708 719.804689 
L 629.635206 711.551668 
L 629.503954 711.389927 
L 622.824516 703.25301 
L 622.668588 703.065592 
L 615.91853 695.060306 
L 615.738661 694.850199 
L 608.907351 686.990258 
L 608.704434 686.760658 
L 601.782309 679.057908 
L 601.557484 678.812217 
L 594.536066 671.276583 
L 594.290798 671.018385 
L 587.16271 663.657821 
L 586.898861 663.390844 
L 579.657839 656.211287 
L 579.377723 655.939354 
L 572.018631 648.944671 
L 571.725057 648.671633 
L 564.243896 641.863582 
L 563.940182 641.59324 
L 556.334104 634.971421 
L 556.024067 634.70745 
L 548.291385 628.269265 
L 547.979306 628.015132 
L 540.119499 621.755746 
L 539.810069 621.514643 
L 531.823794 615.426944 
L 531.52203 615.20174 
L 523.411125 609.2763 
L 523.122279 609.06951 
L 514.889775 603.294553 
L 514.619231 603.108336 
L 506.269349 597.469701 
L 506.022526 597.305887 
L 497.560686 591.786998 
L 497.342936 591.647143 
L 488.775758 586.228979 
L 488.592283 586.11444 
L 479.927587 580.775502 
L 479.783358 580.687539 
L 471.030169 575.403827 
L 470.929858 575.343708 
L 462.0984 570.088693 
L 462.046316 570.057817 
L 453.148027 564.802423 
L 444.223298 559.531395 
L 435.315092 554.228093 
L 426.440825 548.858359 
L 417.618284 543.385941 
L 408.86543 537.77248 
L 400.20017 531.977427 
L 391.640099 525.957874 
L 383.202235 519.668286 
L 374.90279 513.060112 
L 366.75703 506.08129 
L 358.779288 498.675674 
L 350.98319 490.782439 
L 343.382121 482.335567 
L 335.989941 473.263515 
L 328.821863 463.489175 
L 321.895372 452.930172 
L 315.231049 441.499496 
L 308.85314 429.106372 
L 302.78979 415.657232 
L 297.072939 401.056618 
L 291.737933 385.207899 
L 286.822951 368.01373 
L 282.368373 349.376243 
L 278.416172 329.197008 
L 275.009398 307.376839 
L 272.191775 283.815508 
L 270.00742 258.41143 
L 268.500663 231.061353 
L 267.715937 201.660095 
L 267.697609 169.878391 
" clip-path="url(#pc996bac8cc)" style="fill: none; stroke: #1f77b4; stroke-width: 1.5"/>
    <path d="M 1235.088241 730.605913 
L 1205.895105 749.879017 
L 1177.830831 767.914991 
L 1150.869286 784.722406 
L 1124.983655 800.312546 
L 1100.146499 814.699257 
L 1076.329803 827.89881 
L 1053.505038 839.929758 
L 1031.643211 850.812802 
L 1010.714915 860.570652 
L 990.690387 869.227896 
L 971.539553 876.810869 
L 953.232085 883.347522 
L 935.737443 888.867297 
L 919.024932 893.401002 
L 903.063744 896.980686 
L 887.82301 899.639521 
L 873.271843 901.411684 
L 859.379387 902.332237 
L 846.11486 902.437014 
L 833.4476 901.762511 
L 821.347107 900.345773 
L 809.783087 898.224284 
L 798.725491 895.435866 
L 788.144563 892.018569 
L 778.010872 888.010571 
L 768.295357 883.450078 
L 758.969364 878.375225 
L 750.004683 872.82398 
L 741.373586 866.834048 
L 733.048863 860.442778 
L 725.003857 853.687077 
L 717.212499 846.603314 
L 709.649341 839.227241 
L 702.289587 831.5939 
L 695.109128 823.737547 
L 688.084572 815.691566 
L 681.19327 807.488393 
L 674.413353 799.159436 
L 667.723752 790.735 
L 661.10423 782.244217 
L 654.535409 773.714967 
L 647.998789 765.173813 
L 641.476783 756.645935 
L 634.952731 748.155055 
L 628.410927 739.723381 
L 621.836641 731.371541 
L 615.216138 723.118519 
L 608.5367 714.981602 
L 601.786642 706.976316 
L 594.955332 699.116376 
L 588.033207 691.413625 
L 581.011789 683.877991 
L 573.883701 676.517427 
L 566.642679 669.33787 
L 559.283587 662.343187 
L 551.802426 655.535135 
L 544.196348 648.913316 
L 536.463666 642.475131 
L 528.603859 636.215745 
L 520.617583 630.128046 
L 512.506678 624.202606 
L 504.274174 618.427648 
L 495.924291 612.789013 
L 487.462451 607.270125 
L 478.895272 601.851961 
L 470.230577 596.513023 
L 461.477388 591.229311 
L 452.64593 585.974295 
L 443.747629 580.718895 
L 434.795105 575.431451 
L 425.802174 570.07771 
L 416.783839 564.620801 
L 407.756286 559.021219 
L 398.736874 553.236807 
L 389.744133 547.222744 
L 380.797745 540.931529 
L 371.918544 534.312968 
L 363.128495 527.314166 
L 354.450689 519.879517 
L 345.909322 511.950696 
L 337.529687 503.466654 
L 329.338151 494.363611 
L 321.362143 484.575056 
L 313.630131 474.031741 
L 306.171607 462.661687 
L 299.017061 450.390177 
L 292.197963 437.139765 
L 285.746738 422.830276 
L 279.696739 407.378815 
L 274.082227 390.699767 
L 268.938339 372.704812 
L 264.301062 353.302932 
L 260.207203 332.400419 
L 256.694361 309.90089 
L 253.800888 285.705298 
L 251.565866 259.71195 
L 250.029064 231.81652 
L 249.230908 201.912066 
L 249.212441 169.889052 
" clip-path="url(#pc996bac8cc)" style="fill: none; stroke: #8c564b; stroke-width: 1.5"/>
    <path d="M 1245.272727 746.032441 
L 1215.889006 765.429693 
L 1187.609725 783.601762 
L 1160.406246 800.557429 
L 1134.24892 816.308059 
L 1109.107115 830.867402 
L 1084.949254 844.251382 
L 1061.742858 856.477866 
L 1039.454609 867.566416 
L 1018.05045 877.538017 
L 997.495715 886.414783 
L 977.755332 894.21965 
L 958.794107 900.976063 
L 940.577111 906.707678 
L 923.070192 911.438114 
L 906.240609 915.190822 
L 890.057776 917.989109 
L 874.494041 919.856406 
L 859.525398 920.816831 
L 845.13196 920.896035 
L 831.29802 920.122273 
L 818.011559 918.527513 
L 805.263139 916.148336 
L 793.044327 913.026373 
L 781.345898 909.208092 
L 770.156181 904.743932 
L 759.45987 899.686941 
L 749.237479 894.091204 
L 739.46543 888.010346 
L 730.116663 881.496355 
L 721.161517 874.598786 
L 712.568703 867.364375 
L 704.30621 859.836955 
L 696.342053 852.057582 
L 688.644842 844.064766 
L 681.184182 835.894744 
L 673.930926 827.581725 
L 666.857323 819.158105 
L 659.937087 810.654621 
L 646.458965 793.523302 
L 607.364311 742.871996 
L 600.862241 734.766611 
L 594.32623 726.804418 
L 587.743903 718.998053 
L 581.10382 711.358134 
L 574.39541 703.8932 
L 567.608902 696.609679 
L 560.735261 689.511861 
L 553.766141 682.601898 
L 546.693849 675.879813 
L 539.511326 669.34353 
L 532.212157 662.988904 
L 524.790603 656.809762 
L 517.241654 650.797938 
L 509.561107 644.943286 
L 501.745661 639.233694 
L 493.793018 633.655054 
L 485.701989 628.191222 
L 477.472602 622.823941 
L 469.106189 617.532748 
L 451.974667 607.085012 
L 407.040128 580.32945 
L 397.777118 574.581353 
L 388.460798 568.602477 
L 379.111002 562.343528 
L 369.750318 555.752322 
L 360.404321 548.774096 
L 351.101742 541.351928 
L 341.874519 533.427266 
L 332.757659 524.940512 
L 323.788864 515.831578 
L 315.007906 506.040324 
L 306.455775 495.506742 
L 298.173726 484.170828 
L 290.202334 471.972105 
L 282.580745 458.848846 
L 275.346211 444.737133 
L 268.533983 429.569907 
L 262.17752 413.276146 
L 256.308937 395.780292 
L 250.959569 377.001949 
L 246.160544 356.855841 
L 241.943297 335.251956 
L 238.339966 312.095832 
L 235.383674 287.288891 
L 233.108683 260.728785 
L 231.550474 232.309718 
L 230.74574 201.922727 
L 230.727273 169.899712 
L 230.727273 169.899712 
" clip-path="url(#pc996bac8cc)" style="fill: none; stroke: #17becf; stroke-width: 1.5"/>
   </g>
   <g id="patch_3">
    <path d="M 180 958.473769 
L 180 132.326231 
" style="fill: none; stroke: #000000; stroke-width: 0.8; stroke-linejoin: miter; stroke-linecap: square"/>
   </g>
   <g id="patch_4">
    <path d="M 1296 958.473769 
L 1296 132.326231 
" style="fill: none; stroke: #000000; stroke-width: 0.8; stroke-linejoin: miter; stroke-linecap: square"/>
   </g>
   <g id="patch_5">
    <path d="M 180 958.473769 
L 1296 958.473769 
" style="fill: none; stroke: #000000; stroke-width: 0.8; stroke-linejoin: miter; stroke-linecap: square"/>
   </g>
   <g id="patch_6">
    <path d="M 180 132.326231 
L 1296 132.326231 
" style="fill: none; stroke: #000000; stroke-width: 0.8; stroke-linejoin: miter; stroke-linecap: square"/>
   </g>
  </g>
 </g>
 <defs>
  <clipPath id="pc996bac8cc">
   <rect x="180" y="132.326231" width="1116" height="826.147539"/>
  </clipPath>
 </defs>
</svg>
