<?xml version="1.0" encoding="utf-8" standalone="no"?>
<!DOCTYPE svg PUBLIC "-//W3C//DTD SVG 1.1//EN"
  "http://www.w3.org/Graphics/SVG/1.1/DTD/svg11.dtd">
<svg xmlns:xlink="http://www.w3.org/1999/xlink" width="1440pt" height="1080pt" viewBox="0 0 1440 1080" xmlns="http://www.w3.org/2000/svg" version="1.1">
 <metadata>
  <rdf:RDF xmlns:dc="http://purl.org/dc/elements/1.1/" xmlns:cc="http://creativecommons.org/ns#" xmlns:rdf="http://www.w3.org/1999/02/22-rdf-syntax-ns#">
   <cc:Work>
    <dc:type rdf:resource="http://purl.org/dc/dcmitype/StillImage"/>
    <dc:date>2023-12-11T12:07:02.048449</dc:date>
    <dc:format>image/svg+xml</dc:format>
    <dc:creator>
     <cc:Agent>
      <dc:title>Matplotlib v3.7.1, https://matplotlib.org/</dc:title>
     </cc:Agent>
    </dc:creator>
   </cc:Work>
  </rdf:RDF>
 </metadata>
 <defs>
  <style type="text/css">*{stroke-linejoin: round; stroke-linecap: butt}</style>
 </defs>
 <g id="figure_1">
  <g id="patch_1">
   <path d="M 0 1080 
L 1440 1080 
L 1440 0 
L 0 0 
z
" style="fill: #ffffff"/>
  </g>
  <g id="axes_1">
   <g id="patch_2">
    <path d="M 180 711.092925 
L 1296 711.092925 
L 1296 379.707075 
L 180 379.707075 
z
" style="fill: #ffffff"/>
   </g>
   <g id="matplotlib.axis_1">
    <g id="xtick_1">
     <g id="line2d_1">
      <defs>
       <path id="mc3f0c6f4e1" d="M 0 0 
L 0 3.5 
" style="stroke: #000000; stroke-width: 0.8"/>
      </defs>
      <g>
       <use xlink:href="#mc3f0c6f4e1" x="335.112994" y="711.092925" style="stroke: #000000; stroke-width: 0.8"/>
      </g>
     </g>
     <g id="text_1">
      <!-- 200 -->
      <g transform="translate(325.569244 725.691362) scale(0.1 -0.1)">
       <defs>
        <path id="DejaVuSans-32" d="M 1228 531 
L 3431 531 
L 3431 0 
L 469 0 
L 469 531 
Q 828 903 1448 1529 
Q 2069 2156 2228 2338 
Q 2531 2678 2651 2914 
Q 2772 3150 2772 3378 
Q 2772 3750 2511 3984 
Q 2250 4219 1831 4219 
Q 1534 4219 1204 4116 
Q 875 4013 500 3803 
L 500 4441 
Q 881 4594 1212 4672 
Q 1544 4750 1819 4750 
Q 2544 4750 2975 4387 
Q 3406 4025 3406 3419 
Q 3406 3131 3298 2873 
Q 3191 2616 2906 2266 
Q 2828 2175 2409 1742 
Q 1991 1309 1228 531 
z
" transform="scale(0.015625)"/>
        <path id="DejaVuSans-30" d="M 2034 4250 
Q 1547 4250 1301 3770 
Q 1056 3291 1056 2328 
Q 1056 1369 1301 889 
Q 1547 409 2034 409 
Q 2525 409 2770 889 
Q 3016 1369 3016 2328 
Q 3016 3291 2770 3770 
Q 2525 4250 2034 4250 
z
M 2034 4750 
Q 2819 4750 3233 4129 
Q 3647 3509 3647 2328 
Q 3647 1150 3233 529 
Q 2819 -91 2034 -91 
Q 1250 -91 836 529 
Q 422 1150 422 2328 
Q 422 3509 836 4129 
Q 1250 4750 2034 4750 
z
" transform="scale(0.015625)"/>
       </defs>
       <use xlink:href="#DejaVuSans-32"/>
       <use xlink:href="#DejaVuSans-30" x="63.623047"/>
       <use xlink:href="#DejaVuSans-30" x="127.246094"/>
      </g>
     </g>
    </g>
    <g id="xtick_2">
     <g id="line2d_2">
      <g>
       <use xlink:href="#mc3f0c6f4e1" x="552.420831" y="711.092925" style="stroke: #000000; stroke-width: 0.8"/>
      </g>
     </g>
     <g id="text_2">
      <!-- 400 -->
      <g transform="translate(542.877081 725.691362) scale(0.1 -0.1)">
       <defs>
        <path id="DejaVuSans-34" d="M 2419 4116 
L 825 1625 
L 2419 1625 
L 2419 4116 
z
M 2253 4666 
L 3047 4666 
L 3047 1625 
L 3713 1625 
L 3713 1100 
L 3047 1100 
L 3047 0 
L 2419 0 
L 2419 1100 
L 313 1100 
L 313 1709 
L 2253 4666 
z
" transform="scale(0.015625)"/>
       </defs>
       <use xlink:href="#DejaVuSans-34"/>
       <use xlink:href="#DejaVuSans-30" x="63.623047"/>
       <use xlink:href="#DejaVuSans-30" x="127.246094"/>
      </g>
     </g>
    </g>
    <g id="xtick_3">
     <g id="line2d_3">
      <g>
       <use xlink:href="#mc3f0c6f4e1" x="769.728668" y="711.092925" style="stroke: #000000; stroke-width: 0.8"/>
      </g>
     </g>
     <g id="text_3">
      <!-- 600 -->
      <g transform="translate(760.184918 725.691362) scale(0.1 -0.1)">
       <defs>
        <path id="DejaVuSans-36" d="M 2113 2584 
Q 1688 2584 1439 2293 
Q 1191 2003 1191 1497 
Q 1191 994 1439 701 
Q 1688 409 2113 409 
Q 2538 409 2786 701 
Q 3034 994 3034 1497 
Q 3034 2003 2786 2293 
Q 2538 2584 2113 2584 
z
M 3366 4563 
L 3366 3988 
Q 3128 4100 2886 4159 
Q 2644 4219 2406 4219 
Q 1781 4219 1451 3797 
Q 1122 3375 1075 2522 
Q 1259 2794 1537 2939 
Q 1816 3084 2150 3084 
Q 2853 3084 3261 2657 
Q 3669 2231 3669 1497 
Q 3669 778 3244 343 
Q 2819 -91 2113 -91 
Q 1303 -91 875 529 
Q 447 1150 447 2328 
Q 447 3434 972 4092 
Q 1497 4750 2381 4750 
Q 2619 4750 2861 4703 
Q 3103 4656 3366 4563 
z
" transform="scale(0.015625)"/>
       </defs>
       <use xlink:href="#DejaVuSans-36"/>
       <use xlink:href="#DejaVuSans-30" x="63.623047"/>
       <use xlink:href="#DejaVuSans-30" x="127.246094"/>
      </g>
     </g>
    </g>
    <g id="xtick_4">
     <g id="line2d_4">
      <g>
       <use xlink:href="#mc3f0c6f4e1" x="987.036505" y="711.092925" style="stroke: #000000; stroke-width: 0.8"/>
      </g>
     </g>
     <g id="text_4">
      <!-- 800 -->
      <g transform="translate(977.492755 725.691362) scale(0.1 -0.1)">
       <defs>
        <path id="DejaVuSans-38" d="M 2034 2216 
Q 1584 2216 1326 1975 
Q 1069 1734 1069 1313 
Q 1069 891 1326 650 
Q 1584 409 2034 409 
Q 2484 409 2743 651 
Q 3003 894 3003 1313 
Q 3003 1734 2745 1975 
Q 2488 2216 2034 2216 
z
M 1403 2484 
Q 997 2584 770 2862 
Q 544 3141 544 3541 
Q 544 4100 942 4425 
Q 1341 4750 2034 4750 
Q 2731 4750 3128 4425 
Q 3525 4100 3525 3541 
Q 3525 3141 3298 2862 
Q 3072 2584 2669 2484 
Q 3125 2378 3379 2068 
Q 3634 1759 3634 1313 
Q 3634 634 3220 271 
Q 2806 -91 2034 -91 
Q 1263 -91 848 271 
Q 434 634 434 1313 
Q 434 1759 690 2068 
Q 947 2378 1403 2484 
z
M 1172 3481 
Q 1172 3119 1398 2916 
Q 1625 2713 2034 2713 
Q 2441 2713 2670 2916 
Q 2900 3119 2900 3481 
Q 2900 3844 2670 4047 
Q 2441 4250 2034 4250 
Q 1625 4250 1398 4047 
Q 1172 3844 1172 3481 
z
" transform="scale(0.015625)"/>
       </defs>
       <use xlink:href="#DejaVuSans-38"/>
       <use xlink:href="#DejaVuSans-30" x="63.623047"/>
       <use xlink:href="#DejaVuSans-30" x="127.246094"/>
      </g>
     </g>
    </g>
    <g id="xtick_5">
     <g id="line2d_5">
      <g>
       <use xlink:href="#mc3f0c6f4e1" x="1204.344342" y="711.092925" style="stroke: #000000; stroke-width: 0.8"/>
      </g>
     </g>
     <g id="text_5">
      <!-- 1000 -->
      <g transform="translate(1191.619342 725.691362) scale(0.1 -0.1)">
       <defs>
        <path id="DejaVuSans-31" d="M 794 531 
L 1825 531 
L 1825 4091 
L 703 3866 
L 703 4441 
L 1819 4666 
L 2450 4666 
L 2450 531 
L 3481 531 
L 3481 0 
L 794 0 
L 794 531 
z
" transform="scale(0.015625)"/>
       </defs>
       <use xlink:href="#DejaVuSans-31"/>
       <use xlink:href="#DejaVuSans-30" x="63.623047"/>
       <use xlink:href="#DejaVuSans-30" x="127.246094"/>
       <use xlink:href="#DejaVuSans-30" x="190.869141"/>
      </g>
     </g>
    </g>
   </g>
   <g id="matplotlib.axis_2">
    <g id="ytick_1">
     <g id="line2d_6">
      <defs>
       <path id="m5d555e3a7b" d="M 0 0 
L -3.5 0 
" style="stroke: #000000; stroke-width: 0.8"/>
      </defs>
      <g>
       <use xlink:href="#m5d555e3a7b" x="180" y="687.125972" style="stroke: #000000; stroke-width: 0.8"/>
      </g>
     </g>
     <g id="text_6">
      <!-- 850 -->
      <g transform="translate(153.9125 690.92519) scale(0.1 -0.1)">
       <defs>
        <path id="DejaVuSans-35" d="M 691 4666 
L 3169 4666 
L 3169 4134 
L 1269 4134 
L 1269 2991 
Q 1406 3038 1543 3061 
Q 1681 3084 1819 3084 
Q 2600 3084 3056 2656 
Q 3513 2228 3513 1497 
Q 3513 744 3044 326 
Q 2575 -91 1722 -91 
Q 1428 -91 1123 -41 
Q 819 9 494 109 
L 494 744 
Q 775 591 1075 516 
Q 1375 441 1709 441 
Q 2250 441 2565 725 
Q 2881 1009 2881 1497 
Q 2881 1984 2565 2268 
Q 2250 2553 1709 2553 
Q 1456 2553 1204 2497 
Q 953 2441 691 2322 
L 691 4666 
z
" transform="scale(0.015625)"/>
       </defs>
       <use xlink:href="#DejaVuSans-38"/>
       <use xlink:href="#DejaVuSans-35" x="63.623047"/>
       <use xlink:href="#DejaVuSans-30" x="127.246094"/>
      </g>
     </g>
    </g>
    <g id="ytick_2">
     <g id="line2d_7">
      <g>
       <use xlink:href="#m5d555e3a7b" x="180" y="632.799012" style="stroke: #000000; stroke-width: 0.8"/>
      </g>
     </g>
     <g id="text_7">
      <!-- 900 -->
      <g transform="translate(153.9125 636.598231) scale(0.1 -0.1)">
       <defs>
        <path id="DejaVuSans-39" d="M 703 97 
L 703 672 
Q 941 559 1184 500 
Q 1428 441 1663 441 
Q 2288 441 2617 861 
Q 2947 1281 2994 2138 
Q 2813 1869 2534 1725 
Q 2256 1581 1919 1581 
Q 1219 1581 811 2004 
Q 403 2428 403 3163 
Q 403 3881 828 4315 
Q 1253 4750 1959 4750 
Q 2769 4750 3195 4129 
Q 3622 3509 3622 2328 
Q 3622 1225 3098 567 
Q 2575 -91 1691 -91 
Q 1453 -91 1209 -44 
Q 966 3 703 97 
z
M 1959 2075 
Q 2384 2075 2632 2365 
Q 2881 2656 2881 3163 
Q 2881 3666 2632 3958 
Q 2384 4250 1959 4250 
Q 1534 4250 1286 3958 
Q 1038 3666 1038 3163 
Q 1038 2656 1286 2365 
Q 1534 2075 1959 2075 
z
" transform="scale(0.015625)"/>
       </defs>
       <use xlink:href="#DejaVuSans-39"/>
       <use xlink:href="#DejaVuSans-30" x="63.623047"/>
       <use xlink:href="#DejaVuSans-30" x="127.246094"/>
      </g>
     </g>
    </g>
    <g id="ytick_3">
     <g id="line2d_8">
      <g>
       <use xlink:href="#m5d555e3a7b" x="180" y="578.472053" style="stroke: #000000; stroke-width: 0.8"/>
      </g>
     </g>
     <g id="text_8">
      <!-- 950 -->
      <g transform="translate(153.9125 582.271272) scale(0.1 -0.1)">
       <use xlink:href="#DejaVuSans-39"/>
       <use xlink:href="#DejaVuSans-35" x="63.623047"/>
       <use xlink:href="#DejaVuSans-30" x="127.246094"/>
      </g>
     </g>
    </g>
    <g id="ytick_4">
     <g id="line2d_9">
      <g>
       <use xlink:href="#m5d555e3a7b" x="180" y="524.145094" style="stroke: #000000; stroke-width: 0.8"/>
      </g>
     </g>
     <g id="text_9">
      <!-- 1000 -->
      <g transform="translate(147.55 527.944313) scale(0.1 -0.1)">
       <use xlink:href="#DejaVuSans-31"/>
       <use xlink:href="#DejaVuSans-30" x="63.623047"/>
       <use xlink:href="#DejaVuSans-30" x="127.246094"/>
       <use xlink:href="#DejaVuSans-30" x="190.869141"/>
      </g>
     </g>
    </g>
    <g id="ytick_5">
     <g id="line2d_10">
      <g>
       <use xlink:href="#m5d555e3a7b" x="180" y="469.818134" style="stroke: #000000; stroke-width: 0.8"/>
      </g>
     </g>
     <g id="text_10">
      <!-- 1050 -->
      <g transform="translate(147.55 473.617353) scale(0.1 -0.1)">
       <use xlink:href="#DejaVuSans-31"/>
       <use xlink:href="#DejaVuSans-30" x="63.623047"/>
       <use xlink:href="#DejaVuSans-35" x="127.246094"/>
       <use xlink:href="#DejaVuSans-30" x="190.869141"/>
      </g>
     </g>
    </g>
    <g id="ytick_6">
     <g id="line2d_11">
      <g>
       <use xlink:href="#m5d555e3a7b" x="180" y="415.491175" style="stroke: #000000; stroke-width: 0.8"/>
      </g>
     </g>
     <g id="text_11">
      <!-- 1100 -->
      <g transform="translate(147.55 419.290394) scale(0.1 -0.1)">
       <use xlink:href="#DejaVuSans-31"/>
       <use xlink:href="#DejaVuSans-31" x="63.623047"/>
       <use xlink:href="#DejaVuSans-30" x="127.246094"/>
       <use xlink:href="#DejaVuSans-30" x="190.869141"/>
      </g>
     </g>
    </g>
   </g>
   <g id="LineCollection_1">
    <path d="M 1245.272727 423.709597 
L 1227.307088 414.841043 
L 1210.077992 407.849006 
L 1193.542471 402.545894 
L 1177.667209 398.754013 
L 1162.424744 396.303397 
L 1147.789437 395.031265 
L 1133.73421 394.782953 
L 1120.228697 395.413685 
L 1107.238893 396.790382 
L 1094.727893 398.792959 
L 1082.657197 401.314866 
L 1070.988097 404.262923 
L 1059.682859 407.556658 
L 1048.705589 411.127339 
L 1038.02277 414.916897 
L 1027.603545 418.876842 
L 1017.419801 422.967226 
L 1007.446134 427.155694 
L 997.659736 431.416621 
L 978.569587 440.082335 
L 960.012925 448.865749 
L 941.884909 457.7322 
L 924.10783 466.693755 
L 906.627112 475.794163 
L 889.407519 485.095481 
L 872.429261 494.666047 
L 855.683849 504.569724 
L 847.397823 509.662868 
L 839.169716 514.856497 
L 830.999686 520.153405 
L 822.887778 525.55463 
L 814.833813 531.059308 
L 799.037621 542.263479 
L 791.012395 548.154536 
L 775.399811 559.958047 
L 759.977694 571.972625 
L 721.991311 601.981412 
L 706.915098 613.462262 
L 699.38144 618.975071 
L 691.842784 624.294896 
L 684.29312 629.390309 
L 676.726335 634.230024 
L 669.13605 638.783411 
L 661.515348 643.021029 
L 653.856362 646.915139 
L 646.149737 650.44014 
L 638.383986 653.572846 
L 630.544838 656.292522 
L 622.614694 658.580641 
L 614.572395 660.420366 
L 606.393435 661.795858 
L 598.050761 662.691631 
L 589.516087 663.092185 
L 580.761566 662.982152 
L 571.761501 662.347045 
L 562.493793 661.174571 
L 552.940911 659.456302 
L 543.090298 657.18947 
L 532.934285 654.37867 
L 522.469655 651.037337 
L 511.697025 647.188955 
L 500.620172 642.868039 
L 489.245378 638.12094 
L 477.580832 633.006562 
L 453.415514 621.975987 
L 440.88635 616.225195 
L 428.098536 610.482296 
L 415.055387 604.882959 
L 401.755108 599.583777 
L 388.188713 594.766912 
L 374.338885 590.647763 
L 360.182798 587.486954 
L 345.705637 585.606246 
L 333.18085 585.300348 
L 330.935128 585.400574 
L 317.293511 587.011859 
L 316.000188 587.322988 
L 302.533841 591.219821 
L 301.180042 591.813029 
L 288.120719 598.335229 
L 286.865503 599.190639 
L 274.437318 608.616699 
L 273.411439 609.626116 
L 261.762312 622.220621 
L 261.0104 623.247189 
L 250.781289 638.421778 
L 249.70281 640.273753 
L 239.467411 661.065785 
L 230.727273 684.741247 
L 230.727273 684.741247 
" clip-path="url(#p80fb6399e6)" style="fill: none; stroke: #1f77b4; stroke-width: 1.5"/>
    <path d="M 1238.027057 438.308498 
L 1221.141208 429.927779 
L 1205.058962 423.355038 
L 1189.71155 418.38735 
L 1175.035056 414.838149 
L 1160.970193 412.536448 
L 1147.462092 411.326065 
L 1134.460087 411.064868 
L 1121.917504 411.62404 
L 1109.791462 412.88734 
L 1098.042667 414.7504 
L 1086.63522 417.120023 
L 1075.536421 419.913496 
L 1064.716583 423.057925 
L 1054.148851 426.489583 
L 1043.809016 430.153269 
L 1033.675344 434.001686 
L 1023.728407 437.994839 
L 1013.95091 442.09944 
L 1004.327539 446.288342 
L 994.844793 450.539973 
L 985.49084 454.837806 
L 976.255365 459.16983 
L 967.129425 463.52805 
L 958.105316 467.907996 
L 949.176433 472.308254 
L 940.337146 476.730019 
L 931.582672 481.176655 
L 922.908959 485.653288 
L 914.31257 490.166407 
L 905.790576 494.723484 
L 897.340448 499.332626 
L 888.959963 504.002227 
L 880.647107 508.740658 
L 872.399988 513.555964 
L 864.216752 518.455589 
L 856.095507 523.446117 
L 848.03425 528.533036 
L 840.030796 533.720524 
L 832.082725 539.01125 
L 824.187317 544.406204 
L 816.341508 549.904546 
L 808.541843 555.503472 
L 800.784438 561.198111 
L 793.064944 566.981435 
L 785.378524 572.8442 
L 777.719827 578.774903 
L 770.082975 584.759765 
L 762.461553 590.782739 
L 754.848604 596.825535 
L 747.236633 602.867679 
L 739.617613 608.886584 
L 731.983002 614.857655 
L 724.323763 620.754413 
L 716.630387 626.548646 
L 708.892935 632.210583 
L 701.101068 637.709093 
L 693.244098 643.011912 
L 685.311042 648.085894 
L 677.290674 652.897286 
L 669.171599 657.412032 
L 660.942318 661.596101 
L 652.59131 665.415843 
L 644.107117 668.838368 
L 635.478437 671.83196 
L 626.694218 674.36651 
L 617.743771 676.413978 
L 608.616877 677.948889 
L 599.303908 678.948845 
L 589.795954 679.395078 
L 580.084958 679.273023 
L 570.163852 678.572921 
L 560.026709 677.290453 
L 549.668897 675.427402 
L 539.08724 672.992341 
L 528.280189 670.001359 
L 517.247996 666.478804 
L 505.992903 662.458069 
L 494.519327 657.982398 
L 482.834066 653.10573 
L 470.946501 647.893568 
L 458.868812 642.423882 
L 446.616198 636.788042 
L 434.20711 631.091782 
L 421.663484 625.456199 
L 409.01099 620.018775 
L 396.279282 614.934445 
L 383.502261 610.37668 
L 370.718341 606.53862 
L 357.970727 603.634226 
L 345.307702 601.899475 
L 332.782915 601.593577 
L 320.455686 603.000239 
L 308.391314 606.428952 
L 296.661392 612.216315 
L 285.344136 620.727396 
L 274.524718 632.357122 
L 264.295607 647.53171 
L 254.756919 666.710127 
L 246.016781 690.385589 
" clip-path="url(#p80fb6399e6)" style="fill: none; stroke: #8c564b; stroke-width: 1.5"/>
    <path d="M 1230.781387 452.9074 
L 1214.42656 444.790235 
L 1199.458647 438.672917 
L 1185.280218 434.083608 
L 1171.798962 430.823451 
L 1158.924128 428.716497 
L 1146.570075 427.609521 
L 1134.659562 427.370252 
L 1123.125907 427.884443 
L 1111.913666 429.052543 
L 1100.977998 430.786662 
L 1090.283208 433.008247 
L 1079.800995 435.64653 
L 1069.508771 438.637627 
L 1059.388267 441.924056 
L 1049.424475 445.454499 
L 1039.604891 449.183637 
L 1029.918991 453.071997 
L 1020.357876 457.085762 
L 1010.914025 461.196521 
L 992.353847 469.620598 
L 974.199525 478.212873 
L 956.424527 486.906033 
L 939.010539 495.6838 
L 921.943371 504.567878 
L 905.209247 513.605505 
L 888.791748 522.858012 
L 872.66965 532.390617 
L 864.711107 537.281164 
L 856.815683 542.263437 
L 848.978952 547.342862 
L 841.196088 552.523616 
L 833.461866 557.808432 
L 818.116508 568.692899 
L 802.893258 579.982853 
L 787.735858 591.632158 
L 764.981298 609.590965 
L 741.925455 627.771806 
L 726.254999 639.701385 
L 718.289907 645.52691 
L 710.218655 651.218247 
L 702.025745 656.741819 
L 693.695277 662.062025 
L 685.211287 667.141287 
L 676.558216 671.940127 
L 667.721545 676.417361 
L 658.688546 680.530451 
L 649.449135 684.236111 
L 639.996679 687.491243 
L 630.328623 690.254202 
L 620.446736 692.486366 
L 610.356841 694.153832 
L 600.067979 695.229012 
L 589.591124 695.691878 
L 578.937705 695.530681 
L 568.118257 694.742126 
L 557.141486 693.331125 
L 546.013895 691.310368 
L 534.73997 688.699948 
L 523.322818 685.527213 
L 511.765075 681.826939 
L 500.069948 677.641819 
L 488.242268 673.023215 
L 476.289524 668.032103 
L 464.222863 662.740128 
L 439.811189 651.597483 
L 415.105899 640.377443 
L 402.770215 635.076169 
L 390.517168 630.182988 
L 378.41782 625.86696 
L 366.560087 622.306965 
L 355.048783 619.684251 
L 343.998618 618.17045 
L 333.511305 617.914315 
L 323.628429 619.042052 
L 314.272973 621.700886 
L 305.23932 626.157952 
L 296.293646 632.885497 
L 287.326142 642.524612 
L 278.410178 655.751185 
L 269.741639 673.180088 
L 261.306289 696.029932 
L 261.306289 696.029932 
" clip-path="url(#p80fb6399e6)" style="fill: none; stroke: #17becf; stroke-width: 1.5"/>
   </g>
   <g id="patch_3">
    <path d="M 180 711.092925 
L 180 379.707075 
" style="fill: none; stroke: #000000; stroke-width: 0.8; stroke-linejoin: miter; stroke-linecap: square"/>
   </g>
   <g id="patch_4">
    <path d="M 1296 711.092925 
L 1296 379.707075 
" style="fill: none; stroke: #000000; stroke-width: 0.8; stroke-linejoin: miter; stroke-linecap: square"/>
   </g>
   <g id="patch_5">
    <path d="M 180 711.092925 
L 1296 711.092925 
" style="fill: none; stroke: #000000; stroke-width: 0.8; stroke-linejoin: miter; stroke-linecap: square"/>
   </g>
   <g id="patch_6">
    <path d="M 180 379.707075 
L 1296 379.707075 
" style="fill: none; stroke: #000000; stroke-width: 0.8; stroke-linejoin: miter; stroke-linecap: square"/>
   </g>
  </g>
 </g>
 <defs>
  <clipPath id="p80fb6399e6">
   <rect x="180" y="379.707075" width="1116" height="331.38585"/>
  </clipPath>
 </defs>
</svg>
