<?xml version="1.0" encoding="utf-8" standalone="no"?>
<!DOCTYPE svg PUBLIC "-//W3C//DTD SVG 1.1//EN"
  "http://www.w3.org/Graphics/SVG/1.1/DTD/svg11.dtd">
<svg xmlns:xlink="http://www.w3.org/1999/xlink" width="1440pt" height="1080pt" viewBox="0 0 1440 1080" xmlns="http://www.w3.org/2000/svg" version="1.1">
 <metadata>
  <rdf:RDF xmlns:dc="http://purl.org/dc/elements/1.1/" xmlns:cc="http://creativecommons.org/ns#" xmlns:rdf="http://www.w3.org/1999/02/22-rdf-syntax-ns#">
   <cc:Work>
    <dc:type rdf:resource="http://purl.org/dc/dcmitype/StillImage"/>
    <dc:date>2023-12-11T12:06:58.379583</dc:date>
    <dc:format>image/svg+xml</dc:format>
    <dc:creator>
     <cc:Agent>
      <dc:title>Matplotlib v3.7.1, https://matplotlib.org/</dc:title>
     </cc:Agent>
    </dc:creator>
   </cc:Work>
  </rdf:RDF>
 </metadata>
 <defs>
  <style type="text/css">*{stroke-linejoin: round; stroke-linecap: butt}</style>
 </defs>
 <g id="figure_1">
  <g id="patch_1">
   <path d="M 0 1080 
L 1440 1080 
L 1440 0 
L 0 0 
z
" style="fill: #ffffff"/>
  </g>
  <g id="axes_1">
   <g id="patch_2">
    <path d="M 180 690.833882 
L 1296 690.833882 
L 1296 399.966118 
L 180 399.966118 
z
" style="fill: #ffffff"/>
   </g>
   <g id="matplotlib.axis_1">
    <g id="xtick_1">
     <g id="line2d_1">
      <defs>
       <path id="m9beeeb34c2" d="M 0 0 
L 0 3.5 
" style="stroke: #000000; stroke-width: 0.8"/>
      </defs>
      <g>
       <use xlink:href="#m9beeeb34c2" x="336.215502" y="690.833882" style="stroke: #000000; stroke-width: 0.8"/>
      </g>
     </g>
     <g id="text_1">
      <!-- 400 -->
      <g transform="translate(326.671752 705.432319) scale(0.1 -0.1)">
       <defs>
        <path id="DejaVuSans-34" d="M 2419 4116 
L 825 1625 
L 2419 1625 
L 2419 4116 
z
M 2253 4666 
L 3047 4666 
L 3047 1625 
L 3713 1625 
L 3713 1100 
L 3047 1100 
L 3047 0 
L 2419 0 
L 2419 1100 
L 313 1100 
L 313 1709 
L 2253 4666 
z
" transform="scale(0.015625)"/>
        <path id="DejaVuSans-30" d="M 2034 4250 
Q 1547 4250 1301 3770 
Q 1056 3291 1056 2328 
Q 1056 1369 1301 889 
Q 1547 409 2034 409 
Q 2525 409 2770 889 
Q 3016 1369 3016 2328 
Q 3016 3291 2770 3770 
Q 2525 4250 2034 4250 
z
M 2034 4750 
Q 2819 4750 3233 4129 
Q 3647 3509 3647 2328 
Q 3647 1150 3233 529 
Q 2819 -91 2034 -91 
Q 1250 -91 836 529 
Q 422 1150 422 2328 
Q 422 3509 836 4129 
Q 1250 4750 2034 4750 
z
" transform="scale(0.015625)"/>
       </defs>
       <use xlink:href="#DejaVuSans-34"/>
       <use xlink:href="#DejaVuSans-30" x="63.623047"/>
       <use xlink:href="#DejaVuSans-30" x="127.246094"/>
      </g>
     </g>
    </g>
    <g id="xtick_2">
     <g id="line2d_2">
      <g>
       <use xlink:href="#m9beeeb34c2" x="508.835438" y="690.833882" style="stroke: #000000; stroke-width: 0.8"/>
      </g>
     </g>
     <g id="text_2">
      <!-- 600 -->
      <g transform="translate(499.291688 705.432319) scale(0.1 -0.1)">
       <defs>
        <path id="DejaVuSans-36" d="M 2113 2584 
Q 1688 2584 1439 2293 
Q 1191 2003 1191 1497 
Q 1191 994 1439 701 
Q 1688 409 2113 409 
Q 2538 409 2786 701 
Q 3034 994 3034 1497 
Q 3034 2003 2786 2293 
Q 2538 2584 2113 2584 
z
M 3366 4563 
L 3366 3988 
Q 3128 4100 2886 4159 
Q 2644 4219 2406 4219 
Q 1781 4219 1451 3797 
Q 1122 3375 1075 2522 
Q 1259 2794 1537 2939 
Q 1816 3084 2150 3084 
Q 2853 3084 3261 2657 
Q 3669 2231 3669 1497 
Q 3669 778 3244 343 
Q 2819 -91 2113 -91 
Q 1303 -91 875 529 
Q 447 1150 447 2328 
Q 447 3434 972 4092 
Q 1497 4750 2381 4750 
Q 2619 4750 2861 4703 
Q 3103 4656 3366 4563 
z
" transform="scale(0.015625)"/>
       </defs>
       <use xlink:href="#DejaVuSans-36"/>
       <use xlink:href="#DejaVuSans-30" x="63.623047"/>
       <use xlink:href="#DejaVuSans-30" x="127.246094"/>
      </g>
     </g>
    </g>
    <g id="xtick_3">
     <g id="line2d_3">
      <g>
       <use xlink:href="#m9beeeb34c2" x="681.455375" y="690.833882" style="stroke: #000000; stroke-width: 0.8"/>
      </g>
     </g>
     <g id="text_3">
      <!-- 800 -->
      <g transform="translate(671.911625 705.432319) scale(0.1 -0.1)">
       <defs>
        <path id="DejaVuSans-38" d="M 2034 2216 
Q 1584 2216 1326 1975 
Q 1069 1734 1069 1313 
Q 1069 891 1326 650 
Q 1584 409 2034 409 
Q 2484 409 2743 651 
Q 3003 894 3003 1313 
Q 3003 1734 2745 1975 
Q 2488 2216 2034 2216 
z
M 1403 2484 
Q 997 2584 770 2862 
Q 544 3141 544 3541 
Q 544 4100 942 4425 
Q 1341 4750 2034 4750 
Q 2731 4750 3128 4425 
Q 3525 4100 3525 3541 
Q 3525 3141 3298 2862 
Q 3072 2584 2669 2484 
Q 3125 2378 3379 2068 
Q 3634 1759 3634 1313 
Q 3634 634 3220 271 
Q 2806 -91 2034 -91 
Q 1263 -91 848 271 
Q 434 634 434 1313 
Q 434 1759 690 2068 
Q 947 2378 1403 2484 
z
M 1172 3481 
Q 1172 3119 1398 2916 
Q 1625 2713 2034 2713 
Q 2441 2713 2670 2916 
Q 2900 3119 2900 3481 
Q 2900 3844 2670 4047 
Q 2441 4250 2034 4250 
Q 1625 4250 1398 4047 
Q 1172 3844 1172 3481 
z
" transform="scale(0.015625)"/>
       </defs>
       <use xlink:href="#DejaVuSans-38"/>
       <use xlink:href="#DejaVuSans-30" x="63.623047"/>
       <use xlink:href="#DejaVuSans-30" x="127.246094"/>
      </g>
     </g>
    </g>
    <g id="xtick_4">
     <g id="line2d_4">
      <g>
       <use xlink:href="#m9beeeb34c2" x="854.075311" y="690.833882" style="stroke: #000000; stroke-width: 0.8"/>
      </g>
     </g>
     <g id="text_4">
      <!-- 1000 -->
      <g transform="translate(841.350311 705.432319) scale(0.1 -0.1)">
       <defs>
        <path id="DejaVuSans-31" d="M 794 531 
L 1825 531 
L 1825 4091 
L 703 3866 
L 703 4441 
L 1819 4666 
L 2450 4666 
L 2450 531 
L 3481 531 
L 3481 0 
L 794 0 
L 794 531 
z
" transform="scale(0.015625)"/>
       </defs>
       <use xlink:href="#DejaVuSans-31"/>
       <use xlink:href="#DejaVuSans-30" x="63.623047"/>
       <use xlink:href="#DejaVuSans-30" x="127.246094"/>
       <use xlink:href="#DejaVuSans-30" x="190.869141"/>
      </g>
     </g>
    </g>
    <g id="xtick_5">
     <g id="line2d_5">
      <g>
       <use xlink:href="#m9beeeb34c2" x="1026.695248" y="690.833882" style="stroke: #000000; stroke-width: 0.8"/>
      </g>
     </g>
     <g id="text_5">
      <!-- 1200 -->
      <g transform="translate(1013.970248 705.432319) scale(0.1 -0.1)">
       <defs>
        <path id="DejaVuSans-32" d="M 1228 531 
L 3431 531 
L 3431 0 
L 469 0 
L 469 531 
Q 828 903 1448 1529 
Q 2069 2156 2228 2338 
Q 2531 2678 2651 2914 
Q 2772 3150 2772 3378 
Q 2772 3750 2511 3984 
Q 2250 4219 1831 4219 
Q 1534 4219 1204 4116 
Q 875 4013 500 3803 
L 500 4441 
Q 881 4594 1212 4672 
Q 1544 4750 1819 4750 
Q 2544 4750 2975 4387 
Q 3406 4025 3406 3419 
Q 3406 3131 3298 2873 
Q 3191 2616 2906 2266 
Q 2828 2175 2409 1742 
Q 1991 1309 1228 531 
z
" transform="scale(0.015625)"/>
       </defs>
       <use xlink:href="#DejaVuSans-31"/>
       <use xlink:href="#DejaVuSans-32" x="63.623047"/>
       <use xlink:href="#DejaVuSans-30" x="127.246094"/>
       <use xlink:href="#DejaVuSans-30" x="190.869141"/>
      </g>
     </g>
    </g>
    <g id="xtick_6">
     <g id="line2d_6">
      <g>
       <use xlink:href="#m9beeeb34c2" x="1199.315185" y="690.833882" style="stroke: #000000; stroke-width: 0.8"/>
      </g>
     </g>
     <g id="text_6">
      <!-- 1400 -->
      <g transform="translate(1186.590185 705.432319) scale(0.1 -0.1)">
       <use xlink:href="#DejaVuSans-31"/>
       <use xlink:href="#DejaVuSans-34" x="63.623047"/>
       <use xlink:href="#DejaVuSans-30" x="127.246094"/>
       <use xlink:href="#DejaVuSans-30" x="190.869141"/>
      </g>
     </g>
    </g>
   </g>
   <g id="matplotlib.axis_2">
    <g id="ytick_1">
     <g id="line2d_7">
      <defs>
       <path id="m0404878209" d="M 0 0 
L -3.5 0 
" style="stroke: #000000; stroke-width: 0.8"/>
      </defs>
      <g>
       <use xlink:href="#m0404878209" x="180" y="682.536045" style="stroke: #000000; stroke-width: 0.8"/>
      </g>
     </g>
     <g id="text_7">
      <!-- 1050 -->
      <g transform="translate(147.55 686.335264) scale(0.1 -0.1)">
       <defs>
        <path id="DejaVuSans-35" d="M 691 4666 
L 3169 4666 
L 3169 4134 
L 1269 4134 
L 1269 2991 
Q 1406 3038 1543 3061 
Q 1681 3084 1819 3084 
Q 2600 3084 3056 2656 
Q 3513 2228 3513 1497 
Q 3513 744 3044 326 
Q 2575 -91 1722 -91 
Q 1428 -91 1123 -41 
Q 819 9 494 109 
L 494 744 
Q 775 591 1075 516 
Q 1375 441 1709 441 
Q 2250 441 2565 725 
Q 2881 1009 2881 1497 
Q 2881 1984 2565 2268 
Q 2250 2553 1709 2553 
Q 1456 2553 1204 2497 
Q 953 2441 691 2322 
L 691 4666 
z
" transform="scale(0.015625)"/>
       </defs>
       <use xlink:href="#DejaVuSans-31"/>
       <use xlink:href="#DejaVuSans-30" x="63.623047"/>
       <use xlink:href="#DejaVuSans-35" x="127.246094"/>
       <use xlink:href="#DejaVuSans-30" x="190.869141"/>
      </g>
     </g>
    </g>
    <g id="ytick_2">
     <g id="line2d_8">
      <g>
       <use xlink:href="#m0404878209" x="180" y="639.381061" style="stroke: #000000; stroke-width: 0.8"/>
      </g>
     </g>
     <g id="text_8">
      <!-- 1100 -->
      <g transform="translate(147.55 643.18028) scale(0.1 -0.1)">
       <use xlink:href="#DejaVuSans-31"/>
       <use xlink:href="#DejaVuSans-31" x="63.623047"/>
       <use xlink:href="#DejaVuSans-30" x="127.246094"/>
       <use xlink:href="#DejaVuSans-30" x="190.869141"/>
      </g>
     </g>
    </g>
    <g id="ytick_3">
     <g id="line2d_9">
      <g>
       <use xlink:href="#m0404878209" x="180" y="596.226077" style="stroke: #000000; stroke-width: 0.8"/>
      </g>
     </g>
     <g id="text_9">
      <!-- 1150 -->
      <g transform="translate(147.55 600.025296) scale(0.1 -0.1)">
       <use xlink:href="#DejaVuSans-31"/>
       <use xlink:href="#DejaVuSans-31" x="63.623047"/>
       <use xlink:href="#DejaVuSans-35" x="127.246094"/>
       <use xlink:href="#DejaVuSans-30" x="190.869141"/>
      </g>
     </g>
    </g>
    <g id="ytick_4">
     <g id="line2d_10">
      <g>
       <use xlink:href="#m0404878209" x="180" y="553.071093" style="stroke: #000000; stroke-width: 0.8"/>
      </g>
     </g>
     <g id="text_10">
      <!-- 1200 -->
      <g transform="translate(147.55 556.870312) scale(0.1 -0.1)">
       <use xlink:href="#DejaVuSans-31"/>
       <use xlink:href="#DejaVuSans-32" x="63.623047"/>
       <use xlink:href="#DejaVuSans-30" x="127.246094"/>
       <use xlink:href="#DejaVuSans-30" x="190.869141"/>
      </g>
     </g>
    </g>
    <g id="ytick_5">
     <g id="line2d_11">
      <g>
       <use xlink:href="#m0404878209" x="180" y="509.916109" style="stroke: #000000; stroke-width: 0.8"/>
      </g>
     </g>
     <g id="text_11">
      <!-- 1250 -->
      <g transform="translate(147.55 513.715327) scale(0.1 -0.1)">
       <use xlink:href="#DejaVuSans-31"/>
       <use xlink:href="#DejaVuSans-32" x="63.623047"/>
       <use xlink:href="#DejaVuSans-35" x="127.246094"/>
       <use xlink:href="#DejaVuSans-30" x="190.869141"/>
      </g>
     </g>
    </g>
    <g id="ytick_6">
     <g id="line2d_12">
      <g>
       <use xlink:href="#m0404878209" x="180" y="466.761124" style="stroke: #000000; stroke-width: 0.8"/>
      </g>
     </g>
     <g id="text_12">
      <!-- 1300 -->
      <g transform="translate(147.55 470.560343) scale(0.1 -0.1)">
       <defs>
        <path id="DejaVuSans-33" d="M 2597 2516 
Q 3050 2419 3304 2112 
Q 3559 1806 3559 1356 
Q 3559 666 3084 287 
Q 2609 -91 1734 -91 
Q 1441 -91 1130 -33 
Q 819 25 488 141 
L 488 750 
Q 750 597 1062 519 
Q 1375 441 1716 441 
Q 2309 441 2620 675 
Q 2931 909 2931 1356 
Q 2931 1769 2642 2001 
Q 2353 2234 1838 2234 
L 1294 2234 
L 1294 2753 
L 1863 2753 
Q 2328 2753 2575 2939 
Q 2822 3125 2822 3475 
Q 2822 3834 2567 4026 
Q 2313 4219 1838 4219 
Q 1578 4219 1281 4162 
Q 984 4106 628 3988 
L 628 4550 
Q 988 4650 1302 4700 
Q 1616 4750 1894 4750 
Q 2613 4750 3031 4423 
Q 3450 4097 3450 3541 
Q 3450 3153 3228 2886 
Q 3006 2619 2597 2516 
z
" transform="scale(0.015625)"/>
       </defs>
       <use xlink:href="#DejaVuSans-31"/>
       <use xlink:href="#DejaVuSans-33" x="63.623047"/>
       <use xlink:href="#DejaVuSans-30" x="127.246094"/>
       <use xlink:href="#DejaVuSans-30" x="190.869141"/>
      </g>
     </g>
    </g>
    <g id="ytick_7">
     <g id="line2d_13">
      <g>
       <use xlink:href="#m0404878209" x="180" y="423.60614" style="stroke: #000000; stroke-width: 0.8"/>
      </g>
     </g>
     <g id="text_13">
      <!-- 1350 -->
      <g transform="translate(147.55 427.405359) scale(0.1 -0.1)">
       <use xlink:href="#DejaVuSans-31"/>
       <use xlink:href="#DejaVuSans-33" x="63.623047"/>
       <use xlink:href="#DejaVuSans-35" x="127.246094"/>
       <use xlink:href="#DejaVuSans-30" x="190.869141"/>
      </g>
     </g>
    </g>
   </g>
   <g id="LineCollection_1">
    <path d="M 1245.272727 668.471278 
L 1236.154498 637.076121 
L 1226.887275 608.233921 
L 1217.461081 581.847098 
L 1207.865281 557.812664 
L 1198.088048 536.023912 
L 1188.116031 516.372485 
L 1177.934467 498.750887 
L 1167.528122 483.055442 
L 1156.883507 469.189362 
L 1145.992716 457.065238 
L 1134.858664 446.605697 
L 1123.500499 437.740921 
L 1111.956815 430.402538 
L 1100.284175 424.515277 
L 1088.5501 419.989661 
L 1076.822667 416.719125 
L 1065.160723 414.582701 
L 1053.608081 413.451531 
L 1042.192532 413.196161 
L 1030.928324 413.692263 
L 1019.820071 414.82395 
L 1008.866542 416.485042 
L 998.06358 418.579027 
L 987.406036 421.018397 
L 976.888873 423.723828 
L 966.507689 426.623408 
L 946.139543 432.750775 
L 906.834814 444.896585 
L 897.307042 447.668672 
L 887.897295 450.273022 
L 878.60195 452.687793 
L 869.416572 454.895669 
L 860.335805 456.883602 
L 851.353301 458.642528 
L 842.461712 460.167069 
L 833.65273 461.455217 
L 824.917194 462.508029 
L 816.245239 463.32933 
L 807.626484 463.925452 
L 799.050244 464.305013 
L 790.505736 464.478723 
L 781.982273 464.459236 
L 773.469431 464.261029 
L 764.957167 463.900286 
L 756.435912 463.394797 
L 739.330761 462.028046 
L 722.08804 460.330259 
L 686.907476 456.686612 
L 668.902542 455.133895 
L 659.786528 454.508503 
L 650.591454 454.012925 
L 641.315675 453.667078 
L 631.958216 453.488917 
L 622.518722 453.494125 
L 612.997364 453.695836 
L 603.39474 454.104395 
L 593.711743 454.727166 
L 583.949444 455.568387 
L 574.108967 456.629081 
L 564.191392 457.907004 
L 554.197678 459.396651 
L 544.128618 461.089277 
L 533.984821 462.972957 
L 523.766722 465.032664 
L 513.474608 467.250363 
L 492.668996 472.073226 
L 460.891649 479.886282 
L 439.301929 485.125301 
L 428.395846 487.646134 
L 417.415343 490.050892 
L 406.359757 492.300644 
L 395.227805 494.355911 
L 384.017313 496.177043 
L 372.724897 497.724579 
L 361.3456 498.959598 
L 349.872526 499.844012 
L 338.296486 500.340827 
L 326.605722 500.414346 
L 314.785745 500.030351 
L 302.819332 499.1563 
L 290.6867 497.761612 
L 278.365841 495.81809 
L 265.832961 493.300574 
L 253.062942 490.187825 
L 239.738404 486.380409 
L 239.738404 486.380409 
" clip-path="url(#p04a6099119)" style="fill: none; stroke: #1f77b4; stroke-width: 1.5"/>
    <path d="M 1229.523674 673.041949 
L 1220.540335 642.088269 
L 1211.44202 613.744621 
L 1202.227817 587.919279 
L 1192.898475 564.514785 
L 1183.456221 543.428866 
L 1173.904592 524.555315 
L 1164.248274 507.784814 
L 1154.492945 493.005713 
L 1144.645135 480.104763 
L 1134.712084 468.967804 
L 1124.701617 459.480406 
L 1114.622023 451.528466 
L 1104.48194 444.998769 
L 1094.290249 439.779503 
L 1084.055977 435.760729 
L 1073.788204 432.834825 
L 1063.495982 430.896878 
L 1053.188249 429.84505 
L 1042.873766 429.580899 
L 1032.561047 430.009675 
L 1022.2583 431.04057 
L 1011.973375 432.586946 
L 1001.713715 434.566529 
L 991.486317 436.901565 
L 981.29769 439.518956 
L 971.153829 442.350363 
L 961.060184 445.332281 
L 951.021639 448.406089 
L 941.042498 451.518076 
L 931.126468 454.619436 
L 921.276649 457.666252 
L 911.495537 460.619442 
L 901.785014 463.4447 
L 892.146355 466.112406 
L 882.580233 468.597521 
L 873.086731 470.87946 
L 863.66535 472.941959 
L 854.315025 474.77291 
L 845.034146 476.364198 
L 835.820576 477.711511 
L 826.671673 478.814142 
L 817.584315 479.674784 
L 808.554927 480.299309 
L 799.57951 480.696536 
L 790.653669 480.877998 
L 781.772645 480.857694 
L 772.931348 480.651839 
L 764.124388 480.278607 
L 755.346111 479.757872 
L 746.590632 479.110941 
L 737.851871 478.360294 
L 729.123588 477.529311 
L 720.399415 476.642007 
L 711.672895 475.72277 
L 702.937516 474.796092 
L 694.186741 473.886312 
L 685.414044 473.017362 
L 676.612942 472.212509 
L 667.777027 471.494119 
L 658.899991 470.883416 
L 649.975659 470.400253 
L 640.998012 470.062895 
L 631.961215 469.887811 
L 622.859635 469.889475 
L 613.687864 470.080186 
L 604.440736 470.469896 
L 595.113339 471.066054 
L 585.701032 471.873468 
L 576.19945 472.894184 
L 566.60451 474.12738 
L 556.912415 475.56928 
L 547.119651 477.213093 
L 537.222982 479.048965 
L 527.219442 481.06396 
L 517.106318 483.242061 
L 506.881137 485.564197 
L 496.541639 488.008293 
L 486.085754 490.54935 
L 475.511563 493.15955 
L 464.817271 495.80839 
L 454.001152 498.462845 
L 443.061513 501.087567 
L 431.996629 503.645104 
L 420.80469 506.096168 
L 409.483734 508.399921 
L 398.031571 510.514308 
L 386.445708 512.396418 
L 374.723263 514.002887 
L 362.860869 515.290337 
L 350.85458 516.215854 
L 338.69976 516.737509 
L 326.390969 516.814915 
L 313.921845 516.409831 
L 301.284969 515.486808 
L 288.471732 514.013882 
L 275.472185 511.963302 
L 262.274889 509.312323 
L 248.866747 506.044028 
L 235.232839 502.148211 
" clip-path="url(#p04a6099119)" style="fill: none; stroke: #8c564b; stroke-width: 1.5"/>
    <path d="M 1213.77462 677.61262 
L 1204.855619 646.880628 
L 1195.90831 619.007401 
L 1186.88342 593.71266 
L 1177.79187 570.904716 
L 1168.648559 550.486382 
L 1159.472469 532.354877 
L 1150.286475 516.401205 
L 1141.116548 502.508974 
L 1131.989933 490.552813 
L 1122.931865 480.396887 
L 1113.960736 471.894519 
L 1105.082375 464.890249 
L 1096.285269 459.225362 
L 1087.539283 454.746455 
L 1078.799705 451.314615 
L 1070.016023 448.811617 
L 1061.142188 447.140742 
L 1052.144452 446.222589 
L 1043.004615 445.988521 
L 1033.719005 446.374592 
L 1024.295024 447.317558 
L 1014.747092 448.753124 
L 1005.093168 450.615832 
L 995.352229 452.839803 
L 985.542696 455.359807 
L 975.681565 458.112297 
L 955.863375 464.07399 
L 916.076799 476.365418 
L 906.159311 479.249423 
L 896.269643 481.984464 
L 886.412848 484.542262 
L 876.593674 486.898982 
L 866.816681 489.035213 
L 857.086319 490.935944 
L 847.406942 492.590522 
L 837.782781 493.992588 
L 828.217855 495.139981 
L 818.715854 496.034593 
L 809.279987 496.682166 
L 799.91283 497.092042 
L 790.616177 497.276849 
L 781.390927 497.252145 
L 772.237 497.036026 
L 763.153298 496.648723 
L 754.137714 496.112183 
L 736.297629 494.685369 
L 718.681486 492.950669 
L 683.859091 489.342485 
L 666.549772 487.847344 
L 657.893911 487.251857 
L 649.224441 486.782492 
L 640.531244 486.455823 
L 631.803868 486.286734 
L 623.031609 486.288338 
L 614.20363 486.4719 
L 605.309086 486.846751 
L 596.33728 487.420181 
L 587.277806 488.197329 
L 578.120693 489.18104 
L 568.856532 490.371722 
L 559.476564 491.767187 
L 549.972745 493.362498 
L 540.337763 495.149826 
L 530.565032 497.118329 
L 520.648644 499.254059 
L 500.364237 503.955523 
L 468.725847 511.734681 
L 446.754585 517.065206 
L 435.504883 519.664339 
L 424.074756 522.165717 
L 412.461104 524.526266 
L 400.661082 526.701012 
L 388.672237 528.643458 
L 376.492678 530.306043 
L 364.121256 531.640724 
L 351.557733 532.599666 
L 338.802885 533.136079 
L 325.8585 533.205162 
L 312.72722 532.765154 
L 299.412191 531.778415 
L 285.916526 530.212482 
L 272.242604 528.041036 
L 258.391294 525.244725 
L 244.361181 521.811831 
L 230.727273 517.916014 
L 230.727273 517.916014 
" clip-path="url(#p04a6099119)" style="fill: none; stroke: #17becf; stroke-width: 1.5"/>
   </g>
   <g id="patch_3">
    <path d="M 180 690.833882 
L 180 399.966118 
" style="fill: none; stroke: #000000; stroke-width: 0.8; stroke-linejoin: miter; stroke-linecap: square"/>
   </g>
   <g id="patch_4">
    <path d="M 1296 690.833882 
L 1296 399.966118 
" style="fill: none; stroke: #000000; stroke-width: 0.8; stroke-linejoin: miter; stroke-linecap: square"/>
   </g>
   <g id="patch_5">
    <path d="M 180 690.833882 
L 1296 690.833882 
" style="fill: none; stroke: #000000; stroke-width: 0.8; stroke-linejoin: miter; stroke-linecap: square"/>
   </g>
   <g id="patch_6">
    <path d="M 180 399.966118 
L 1296 399.966118 
" style="fill: none; stroke: #000000; stroke-width: 0.8; stroke-linejoin: miter; stroke-linecap: square"/>
   </g>
  </g>
 </g>
 <defs>
  <clipPath id="p04a6099119">
   <rect x="180" y="399.966118" width="1116" height="290.867763"/>
  </clipPath>
 </defs>
</svg>
