<?xml version="1.0" encoding="utf-8" standalone="no"?>
<!DOCTYPE svg PUBLIC "-//W3C//DTD SVG 1.1//EN"
  "http://www.w3.org/Graphics/SVG/1.1/DTD/svg11.dtd">
<svg xmlns:xlink="http://www.w3.org/1999/xlink" width="1440pt" height="1080pt" viewBox="0 0 1440 1080" xmlns="http://www.w3.org/2000/svg" version="1.1">
 <metadata>
  <rdf:RDF xmlns:dc="http://purl.org/dc/elements/1.1/" xmlns:cc="http://creativecommons.org/ns#" xmlns:rdf="http://www.w3.org/1999/02/22-rdf-syntax-ns#">
   <cc:Work>
    <dc:type rdf:resource="http://purl.org/dc/dcmitype/StillImage"/>
    <dc:date>2023-12-11T12:06:39.096633</dc:date>
    <dc:format>image/svg+xml</dc:format>
    <dc:creator>
     <cc:Agent>
      <dc:title>Matplotlib v3.7.1, https://matplotlib.org/</dc:title>
     </cc:Agent>
    </dc:creator>
   </cc:Work>
  </rdf:RDF>
 </metadata>
 <defs>
  <style type="text/css">*{stroke-linejoin: round; stroke-linecap: butt}</style>
 </defs>
 <g id="figure_1">
  <g id="patch_1">
   <path d="M 0 1080 
L 1440 1080 
L 1440 0 
L 0 0 
z
" style="fill: #ffffff"/>
  </g>
  <g id="axes_1">
   <g id="patch_2">
    <path d="M 558.508104 961.2 
L 917.491896 961.2 
L 917.491896 129.6 
L 558.508104 129.6 
z
" style="fill: #ffffff"/>
   </g>
   <g id="matplotlib.axis_1">
    <g id="xtick_1">
     <g id="line2d_1">
      <defs>
       <path id="me5c27d2de7" d="M 0 0 
L 0 3.5 
" style="stroke: #000000; stroke-width: 0.8"/>
      </defs>
      <g>
       <use xlink:href="#me5c27d2de7" x="594.08297" y="961.2" style="stroke: #000000; stroke-width: 0.8"/>
      </g>
     </g>
     <g id="text_1">
      <!-- 1650 -->
      <g transform="translate(581.35797 975.798437) scale(0.1 -0.1)">
       <defs>
        <path id="DejaVuSans-31" d="M 794 531 
L 1825 531 
L 1825 4091 
L 703 3866 
L 703 4441 
L 1819 4666 
L 2450 4666 
L 2450 531 
L 3481 531 
L 3481 0 
L 794 0 
L 794 531 
z
" transform="scale(0.015625)"/>
        <path id="DejaVuSans-36" d="M 2113 2584 
Q 1688 2584 1439 2293 
Q 1191 2003 1191 1497 
Q 1191 994 1439 701 
Q 1688 409 2113 409 
Q 2538 409 2786 701 
Q 3034 994 3034 1497 
Q 3034 2003 2786 2293 
Q 2538 2584 2113 2584 
z
M 3366 4563 
L 3366 3988 
Q 3128 4100 2886 4159 
Q 2644 4219 2406 4219 
Q 1781 4219 1451 3797 
Q 1122 3375 1075 2522 
Q 1259 2794 1537 2939 
Q 1816 3084 2150 3084 
Q 2853 3084 3261 2657 
Q 3669 2231 3669 1497 
Q 3669 778 3244 343 
Q 2819 -91 2113 -91 
Q 1303 -91 875 529 
Q 447 1150 447 2328 
Q 447 3434 972 4092 
Q 1497 4750 2381 4750 
Q 2619 4750 2861 4703 
Q 3103 4656 3366 4563 
z
" transform="scale(0.015625)"/>
        <path id="DejaVuSans-35" d="M 691 4666 
L 3169 4666 
L 3169 4134 
L 1269 4134 
L 1269 2991 
Q 1406 3038 1543 3061 
Q 1681 3084 1819 3084 
Q 2600 3084 3056 2656 
Q 3513 2228 3513 1497 
Q 3513 744 3044 326 
Q 2575 -91 1722 -91 
Q 1428 -91 1123 -41 
Q 819 9 494 109 
L 494 744 
Q 775 591 1075 516 
Q 1375 441 1709 441 
Q 2250 441 2565 725 
Q 2881 1009 2881 1497 
Q 2881 1984 2565 2268 
Q 2250 2553 1709 2553 
Q 1456 2553 1204 2497 
Q 953 2441 691 2322 
L 691 4666 
z
" transform="scale(0.015625)"/>
        <path id="DejaVuSans-30" d="M 2034 4250 
Q 1547 4250 1301 3770 
Q 1056 3291 1056 2328 
Q 1056 1369 1301 889 
Q 1547 409 2034 409 
Q 2525 409 2770 889 
Q 3016 1369 3016 2328 
Q 3016 3291 2770 3770 
Q 2525 4250 2034 4250 
z
M 2034 4750 
Q 2819 4750 3233 4129 
Q 3647 3509 3647 2328 
Q 3647 1150 3233 529 
Q 2819 -91 2034 -91 
Q 1250 -91 836 529 
Q 422 1150 422 2328 
Q 422 3509 836 4129 
Q 1250 4750 2034 4750 
z
" transform="scale(0.015625)"/>
       </defs>
       <use xlink:href="#DejaVuSans-31"/>
       <use xlink:href="#DejaVuSans-36" x="63.623047"/>
       <use xlink:href="#DejaVuSans-35" x="127.246094"/>
       <use xlink:href="#DejaVuSans-30" x="190.869141"/>
      </g>
     </g>
    </g>
    <g id="xtick_2">
     <g id="line2d_2">
      <g>
       <use xlink:href="#me5c27d2de7" x="654.167805" y="961.2" style="stroke: #000000; stroke-width: 0.8"/>
      </g>
     </g>
     <g id="text_2">
      <!-- 1700 -->
      <g transform="translate(641.442805 975.798437) scale(0.1 -0.1)">
       <defs>
        <path id="DejaVuSans-37" d="M 525 4666 
L 3525 4666 
L 3525 4397 
L 1831 0 
L 1172 0 
L 2766 4134 
L 525 4134 
L 525 4666 
z
" transform="scale(0.015625)"/>
       </defs>
       <use xlink:href="#DejaVuSans-31"/>
       <use xlink:href="#DejaVuSans-37" x="63.623047"/>
       <use xlink:href="#DejaVuSans-30" x="127.246094"/>
       <use xlink:href="#DejaVuSans-30" x="190.869141"/>
      </g>
     </g>
    </g>
    <g id="xtick_3">
     <g id="line2d_3">
      <g>
       <use xlink:href="#me5c27d2de7" x="714.252641" y="961.2" style="stroke: #000000; stroke-width: 0.8"/>
      </g>
     </g>
     <g id="text_3">
      <!-- 1750 -->
      <g transform="translate(701.527641 975.798437) scale(0.1 -0.1)">
       <use xlink:href="#DejaVuSans-31"/>
       <use xlink:href="#DejaVuSans-37" x="63.623047"/>
       <use xlink:href="#DejaVuSans-35" x="127.246094"/>
       <use xlink:href="#DejaVuSans-30" x="190.869141"/>
      </g>
     </g>
    </g>
    <g id="xtick_4">
     <g id="line2d_4">
      <g>
       <use xlink:href="#me5c27d2de7" x="774.337476" y="961.2" style="stroke: #000000; stroke-width: 0.8"/>
      </g>
     </g>
     <g id="text_4">
      <!-- 1800 -->
      <g transform="translate(761.612476 975.798437) scale(0.1 -0.1)">
       <defs>
        <path id="DejaVuSans-38" d="M 2034 2216 
Q 1584 2216 1326 1975 
Q 1069 1734 1069 1313 
Q 1069 891 1326 650 
Q 1584 409 2034 409 
Q 2484 409 2743 651 
Q 3003 894 3003 1313 
Q 3003 1734 2745 1975 
Q 2488 2216 2034 2216 
z
M 1403 2484 
Q 997 2584 770 2862 
Q 544 3141 544 3541 
Q 544 4100 942 4425 
Q 1341 4750 2034 4750 
Q 2731 4750 3128 4425 
Q 3525 4100 3525 3541 
Q 3525 3141 3298 2862 
Q 3072 2584 2669 2484 
Q 3125 2378 3379 2068 
Q 3634 1759 3634 1313 
Q 3634 634 3220 271 
Q 2806 -91 2034 -91 
Q 1263 -91 848 271 
Q 434 634 434 1313 
Q 434 1759 690 2068 
Q 947 2378 1403 2484 
z
M 1172 3481 
Q 1172 3119 1398 2916 
Q 1625 2713 2034 2713 
Q 2441 2713 2670 2916 
Q 2900 3119 2900 3481 
Q 2900 3844 2670 4047 
Q 2441 4250 2034 4250 
Q 1625 4250 1398 4047 
Q 1172 3844 1172 3481 
z
" transform="scale(0.015625)"/>
       </defs>
       <use xlink:href="#DejaVuSans-31"/>
       <use xlink:href="#DejaVuSans-38" x="63.623047"/>
       <use xlink:href="#DejaVuSans-30" x="127.246094"/>
       <use xlink:href="#DejaVuSans-30" x="190.869141"/>
      </g>
     </g>
    </g>
    <g id="xtick_5">
     <g id="line2d_5">
      <g>
       <use xlink:href="#me5c27d2de7" x="834.422311" y="961.2" style="stroke: #000000; stroke-width: 0.8"/>
      </g>
     </g>
     <g id="text_5">
      <!-- 1850 -->
      <g transform="translate(821.697311 975.798437) scale(0.1 -0.1)">
       <use xlink:href="#DejaVuSans-31"/>
       <use xlink:href="#DejaVuSans-38" x="63.623047"/>
       <use xlink:href="#DejaVuSans-35" x="127.246094"/>
       <use xlink:href="#DejaVuSans-30" x="190.869141"/>
      </g>
     </g>
    </g>
    <g id="xtick_6">
     <g id="line2d_6">
      <g>
       <use xlink:href="#me5c27d2de7" x="894.507146" y="961.2" style="stroke: #000000; stroke-width: 0.8"/>
      </g>
     </g>
     <g id="text_6">
      <!-- 1900 -->
      <g transform="translate(881.782146 975.798437) scale(0.1 -0.1)">
       <defs>
        <path id="DejaVuSans-39" d="M 703 97 
L 703 672 
Q 941 559 1184 500 
Q 1428 441 1663 441 
Q 2288 441 2617 861 
Q 2947 1281 2994 2138 
Q 2813 1869 2534 1725 
Q 2256 1581 1919 1581 
Q 1219 1581 811 2004 
Q 403 2428 403 3163 
Q 403 3881 828 4315 
Q 1253 4750 1959 4750 
Q 2769 4750 3195 4129 
Q 3622 3509 3622 2328 
Q 3622 1225 3098 567 
Q 2575 -91 1691 -91 
Q 1453 -91 1209 -44 
Q 966 3 703 97 
z
M 1959 2075 
Q 2384 2075 2632 2365 
Q 2881 2656 2881 3163 
Q 2881 3666 2632 3958 
Q 2384 4250 1959 4250 
Q 1534 4250 1286 3958 
Q 1038 3666 1038 3163 
Q 1038 2656 1286 2365 
Q 1534 2075 1959 2075 
z
" transform="scale(0.015625)"/>
       </defs>
       <use xlink:href="#DejaVuSans-31"/>
       <use xlink:href="#DejaVuSans-39" x="63.623047"/>
       <use xlink:href="#DejaVuSans-30" x="127.246094"/>
       <use xlink:href="#DejaVuSans-30" x="190.869141"/>
      </g>
     </g>
    </g>
   </g>
   <g id="matplotlib.axis_2">
    <g id="ytick_1">
     <g id="line2d_7">
      <defs>
       <path id="mb51b69ae56" d="M 0 0 
L -3.5 0 
" style="stroke: #000000; stroke-width: 0.8"/>
      </defs>
      <g>
       <use xlink:href="#mb51b69ae56" x="558.508104" y="885.451553" style="stroke: #000000; stroke-width: 0.8"/>
      </g>
     </g>
     <g id="text_7">
      <!-- 200 -->
      <g transform="translate(532.420604 889.250772) scale(0.1 -0.1)">
       <defs>
        <path id="DejaVuSans-32" d="M 1228 531 
L 3431 531 
L 3431 0 
L 469 0 
L 469 531 
Q 828 903 1448 1529 
Q 2069 2156 2228 2338 
Q 2531 2678 2651 2914 
Q 2772 3150 2772 3378 
Q 2772 3750 2511 3984 
Q 2250 4219 1831 4219 
Q 1534 4219 1204 4116 
Q 875 4013 500 3803 
L 500 4441 
Q 881 4594 1212 4672 
Q 1544 4750 1819 4750 
Q 2544 4750 2975 4387 
Q 3406 4025 3406 3419 
Q 3406 3131 3298 2873 
Q 3191 2616 2906 2266 
Q 2828 2175 2409 1742 
Q 1991 1309 1228 531 
z
" transform="scale(0.015625)"/>
       </defs>
       <use xlink:href="#DejaVuSans-32"/>
       <use xlink:href="#DejaVuSans-30" x="63.623047"/>
       <use xlink:href="#DejaVuSans-30" x="127.246094"/>
      </g>
     </g>
    </g>
    <g id="ytick_2">
     <g id="line2d_8">
      <g>
       <use xlink:href="#mb51b69ae56" x="558.508104" y="765.281883" style="stroke: #000000; stroke-width: 0.8"/>
      </g>
     </g>
     <g id="text_8">
      <!-- 300 -->
      <g transform="translate(532.420604 769.081102) scale(0.1 -0.1)">
       <defs>
        <path id="DejaVuSans-33" d="M 2597 2516 
Q 3050 2419 3304 2112 
Q 3559 1806 3559 1356 
Q 3559 666 3084 287 
Q 2609 -91 1734 -91 
Q 1441 -91 1130 -33 
Q 819 25 488 141 
L 488 750 
Q 750 597 1062 519 
Q 1375 441 1716 441 
Q 2309 441 2620 675 
Q 2931 909 2931 1356 
Q 2931 1769 2642 2001 
Q 2353 2234 1838 2234 
L 1294 2234 
L 1294 2753 
L 1863 2753 
Q 2328 2753 2575 2939 
Q 2822 3125 2822 3475 
Q 2822 3834 2567 4026 
Q 2313 4219 1838 4219 
Q 1578 4219 1281 4162 
Q 984 4106 628 3988 
L 628 4550 
Q 988 4650 1302 4700 
Q 1616 4750 1894 4750 
Q 2613 4750 3031 4423 
Q 3450 4097 3450 3541 
Q 3450 3153 3228 2886 
Q 3006 2619 2597 2516 
z
" transform="scale(0.015625)"/>
       </defs>
       <use xlink:href="#DejaVuSans-33"/>
       <use xlink:href="#DejaVuSans-30" x="63.623047"/>
       <use xlink:href="#DejaVuSans-30" x="127.246094"/>
      </g>
     </g>
    </g>
    <g id="ytick_3">
     <g id="line2d_9">
      <g>
       <use xlink:href="#mb51b69ae56" x="558.508104" y="645.112213" style="stroke: #000000; stroke-width: 0.8"/>
      </g>
     </g>
     <g id="text_9">
      <!-- 400 -->
      <g transform="translate(532.420604 648.911431) scale(0.1 -0.1)">
       <defs>
        <path id="DejaVuSans-34" d="M 2419 4116 
L 825 1625 
L 2419 1625 
L 2419 4116 
z
M 2253 4666 
L 3047 4666 
L 3047 1625 
L 3713 1625 
L 3713 1100 
L 3047 1100 
L 3047 0 
L 2419 0 
L 2419 1100 
L 313 1100 
L 313 1709 
L 2253 4666 
z
" transform="scale(0.015625)"/>
       </defs>
       <use xlink:href="#DejaVuSans-34"/>
       <use xlink:href="#DejaVuSans-30" x="63.623047"/>
       <use xlink:href="#DejaVuSans-30" x="127.246094"/>
      </g>
     </g>
    </g>
    <g id="ytick_4">
     <g id="line2d_10">
      <g>
       <use xlink:href="#mb51b69ae56" x="558.508104" y="524.942542" style="stroke: #000000; stroke-width: 0.8"/>
      </g>
     </g>
     <g id="text_10">
      <!-- 500 -->
      <g transform="translate(532.420604 528.741761) scale(0.1 -0.1)">
       <use xlink:href="#DejaVuSans-35"/>
       <use xlink:href="#DejaVuSans-30" x="63.623047"/>
       <use xlink:href="#DejaVuSans-30" x="127.246094"/>
      </g>
     </g>
    </g>
    <g id="ytick_5">
     <g id="line2d_11">
      <g>
       <use xlink:href="#mb51b69ae56" x="558.508104" y="404.772872" style="stroke: #000000; stroke-width: 0.8"/>
      </g>
     </g>
     <g id="text_11">
      <!-- 600 -->
      <g transform="translate(532.420604 408.57209) scale(0.1 -0.1)">
       <use xlink:href="#DejaVuSans-36"/>
       <use xlink:href="#DejaVuSans-30" x="63.623047"/>
       <use xlink:href="#DejaVuSans-30" x="127.246094"/>
      </g>
     </g>
    </g>
    <g id="ytick_6">
     <g id="line2d_12">
      <g>
       <use xlink:href="#mb51b69ae56" x="558.508104" y="284.603201" style="stroke: #000000; stroke-width: 0.8"/>
      </g>
     </g>
     <g id="text_12">
      <!-- 700 -->
      <g transform="translate(532.420604 288.40242) scale(0.1 -0.1)">
       <use xlink:href="#DejaVuSans-37"/>
       <use xlink:href="#DejaVuSans-30" x="63.623047"/>
       <use xlink:href="#DejaVuSans-30" x="127.246094"/>
      </g>
     </g>
    </g>
    <g id="ytick_7">
     <g id="line2d_13">
      <g>
       <use xlink:href="#mb51b69ae56" x="558.508104" y="164.433531" style="stroke: #000000; stroke-width: 0.8"/>
      </g>
     </g>
     <g id="text_13">
      <!-- 800 -->
      <g transform="translate(532.420604 168.23275) scale(0.1 -0.1)">
       <use xlink:href="#DejaVuSans-38"/>
       <use xlink:href="#DejaVuSans-30" x="63.623047"/>
       <use xlink:href="#DejaVuSans-30" x="127.246094"/>
      </g>
     </g>
    </g>
   </g>
   <g id="LineCollection_1">
    <path d="M 574.825549 190.307783 
L 604.988553 199.881253 
L 632.877226 209.225341 
L 658.598922 218.373647 
L 682.188427 227.333157 
L 703.686456 236.109102 
L 723.139033 244.7046 
L 740.596987 253.120163 
L 756.115632 261.353056 
L 769.754793 269.396518 
L 781.579396 277.238926 
L 791.660974 284.863176 
L 800.080432 292.246886 
L 806.932193 299.364578 
L 812.32891 306.193464 
L 816.404048 312.724036 
L 819.307604 318.973949 
L 821.191123 324.998393 
L 822.185211 330.886945 
L 822.382034 336.743062 
L 821.8349 342.656255 
L 820.573911 348.683352 
L 818.62542 354.846313 
L 816.024766 361.141537 
L 812.820226 367.551756 
L 809.07139 374.055181 
L 804.845549 380.630779 
L 800.214179 387.260619 
L 795.250224 393.930522 
L 790.026233 400.629909 
L 779.079546 414.090133 
L 762.351449 434.453445 
L 756.943435 441.281614 
L 751.713139 448.134131 
L 746.711029 455.017242 
L 741.985116 461.93834 
L 737.581397 468.905658 
L 733.544394 475.927737 
L 729.917683 483.012551 
L 726.744275 490.166211 
L 724.066581 497.39126 
L 721.92566 504.684753 
L 720.359496 512.03659 
L 719.400345 519.428788 
L 719.071645 526.83637 
L 719.385433 534.230105 
L 720.341262 541.580549 
L 721.927083 548.862215 
L 724.121764 556.056603 
L 726.898278 563.153393 
L 730.226552 570.149913 
L 734.07539 577.049519 
L 738.413366 583.859621 
L 743.208903 590.589891 
L 748.429895 597.250877 
L 754.043131 603.85309 
L 760.013706 610.406451 
L 766.304518 616.920022 
L 772.875871 623.401896 
L 779.685194 629.859181 
L 793.831948 642.723657 
L 822.800624 668.406392 
L 829.836246 674.83036 
L 836.654231 681.252431 
L 843.183212 687.668991 
L 849.349152 694.073562 
L 855.075991 700.455985 
L 860.286849 706.801496 
L 864.906112 713.089972 
L 868.86286 719.295957 
L 872.095887 725.390817 
L 874.559697 731.349191 
L 876.22847 737.162014 
L 877.091645 742.855349 
L 877.13433 748.506261 
L 876.305528 754.239227 
L 874.494071 760.194273 
L 871.533813 766.483269 
L 867.234716 773.164309 
L 861.414994 780.245617 
L 853.916639 787.705812 
L 844.605178 795.513548 
L 833.362509 803.639372 
L 820.079375 812.060587 
L 804.649893 820.762091 
L 786.968204 829.735535 
L 766.926655 838.978033 
L 744.414892 848.49095 
L 719.319459 858.278923 
L 691.523639 868.349123 
L 660.90742 878.710717 
L 627.347481 889.374487 
L 590.633096 900.377762 
L 590.633096 900.377762 
" clip-path="url(#p669209f25b)" style="fill: none; stroke: #1f77b4; stroke-width: 1.5"/>
    <path d="M 578.460913 178.853891 
L 608.715319 188.456372 
L 636.799856 197.866084 
L 662.746224 207.094298 
L 686.593339 216.15165 
L 708.386726 225.048167 
L 728.177928 233.793293 
L 746.02394 242.395918 
L 761.986666 250.864403 
L 776.13239 259.206602 
L 788.531273 267.429889 
L 799.256869 275.541182 
L 808.385658 283.546962 
L 815.996598 291.453299 
L 822.170702 299.265871 
L 826.990622 306.989987 
L 830.540265 314.630605 
L 832.904417 322.192354 
L 834.168383 329.679549 
L 834.417656 337.096216 
L 833.737588 344.446101 
L 832.213087 351.732698 
L 829.928328 358.959255 
L 826.966478 366.128799 
L 823.409436 373.244147 
L 819.337592 380.307922 
L 814.829594 387.322569 
L 809.962138 394.290368 
L 804.809759 401.213449 
L 799.444654 408.093805 
L 793.936499 414.933305 
L 788.35229 421.733707 
L 782.756197 428.496668 
L 777.209423 435.22376 
L 771.770081 441.916477 
L 766.493083 448.576251 
L 761.43003 455.204458 
L 756.62913 461.80243 
L 752.135109 468.371468 
L 747.989144 474.912846 
L 744.228799 481.427826 
L 740.887977 487.917667 
L 737.99687 494.383628 
L 735.581931 500.826985 
L 733.665846 507.249033 
L 732.267513 513.651098 
L 731.402035 520.034544 
L 731.080715 526.400779 
L 731.311059 532.751268 
L 732.096788 539.087535 
L 733.437852 545.411172 
L 735.330455 551.72385 
L 737.76708 558.027319 
L 740.736524 564.323424 
L 744.223933 570.614103 
L 748.210848 576.9014 
L 752.675247 583.187471 
L 757.591598 589.474587 
L 762.930913 595.765146 
L 768.6608 602.061676 
L 774.745527 608.366844 
L 781.146082 614.68346 
L 787.820234 621.014487 
L 794.722604 627.363046 
L 801.804725 633.732421 
L 809.015113 640.12607 
L 816.299336 646.54763 
L 823.600079 653.000922 
L 830.857216 659.489962 
L 838.007874 666.018965 
L 844.986504 672.592353 
L 851.724944 679.214765 
L 858.152484 685.891061 
L 864.195929 692.626332 
L 869.77966 699.425909 
L 874.825691 706.295369 
L 879.253723 713.240543 
L 882.981197 720.267528 
L 885.923344 727.382692 
L 887.993224 734.592687 
L 889.101772 741.904455 
L 889.157827 749.325239 
L 888.068167 756.862593 
L 885.737535 764.524395 
L 882.068651 772.31885 
L 876.962234 780.254511 
L 870.317001 788.340283 
L 862.029674 796.585435 
L 851.994968 804.999617 
L 840.105579 813.592869 
L 826.252161 822.375631 
L 810.323295 831.358764 
L 792.205452 840.553556 
L 771.782944 849.97174 
L 748.937865 859.625508 
L 723.550031 869.527526 
L 695.496896 879.690949 
L 664.65347 890.129438 
L 630.892223 900.857174 
L 594.08297 911.888881 
" clip-path="url(#p669209f25b)" style="fill: none; stroke: #8c564b; stroke-width: 1.5"/>
    <path d="M 582.096277 167.4 
L 612.533013 177.061957 
L 640.826756 186.543912 
L 667.01299 195.860323 
L 691.135065 205.025994 
L 713.243632 214.056444 
L 733.396049 222.968381 
L 751.655687 231.78032 
L 768.091023 240.513349 
L 782.774344 249.192016 
L 795.779769 257.845172 
L 807.180233 266.506371 
L 817.043128 275.212953 
L 825.42482 284.002384 
L 832.365606 292.904156 
L 837.888913 301.926909 
L 842.009743 311.044718 
L 844.753722 320.191989 
L 846.178569 329.275889 
L 846.38351 338.203389 
L 845.499877 346.907006 
L 843.671034 355.355259 
L 841.034865 363.547538 
L 837.715162 371.502186 
L 833.820535 379.245523 
L 829.446936 386.804742 
L 824.680917 394.204353 
L 819.602336 401.464911 
L 814.286216 408.602919 
L 808.803878 415.631207 
L 797.610658 429.394654 
L 781.142511 449.43782 
L 775.97797 455.955668 
L 771.064605 462.387914 
L 766.448696 468.731649 
L 762.172244 474.982659 
L 758.272426 481.135674 
L 754.780971 487.184791 
L 751.723499 493.124197 
L 749.118954 498.949263 
L 746.979323 504.658067 
L 745.309942 510.253249 
L 744.110687 515.743863 
L 743.378168 521.146652 
L 743.108676 526.486022 
L 743.301142 531.792235 
L 743.95908 537.097967 
L 745.090723 542.434105 
L 746.707294 547.82609 
L 748.82008 553.291799 
L 751.437385 558.841264 
L 754.562165 564.477823 
L 758.190712 570.199981 
L 762.312281 576.003332 
L 766.909374 581.882175 
L 771.958346 587.830664 
L 777.430118 593.843554 
L 783.29085 599.916611 
L 789.502509 606.046809 
L 796.023346 612.232402 
L 809.809095 624.769199 
L 838.959984 650.615693 
L 846.247379 657.271504 
L 853.409674 664.021605 
L 860.381971 670.880295 
L 867.096699 677.865568 
L 873.482851 685.000024 
L 879.464534 692.311788 
L 884.958405 699.835059 
L 889.869606 707.609332 
L 894.086212 715.675563 
L 897.473755 724.066744 
L 899.874417 732.791363 
L 900.982964 740.103131 
L 901.118396 741.813684 
L 901.147013 750.14188 
L 901.051152 751.044631 
L 899.796977 759.478415 
L 899.564996 760.359797 
L 897.234363 768.021599 
L 896.610225 769.642217 
L 892.174214 778.82155 
L 886.246173 787.88445 
L 878.792575 796.859211 
L 869.750835 805.793647 
L 859.034272 814.739006 
L 846.539952 823.742073 
L 832.155165 832.84282 
L 815.76164 842.074729 
L 797.237917 851.466017 
L 776.460525 861.040965 
L 753.304465 870.821057 
L 727.643327 880.825864 
L 699.349216 891.073705 
L 668.292599 901.582134 
L 634.342097 912.368293 
L 597.532844 923.4 
L 597.532844 923.4 
" clip-path="url(#p669209f25b)" style="fill: none; stroke: #17becf; stroke-width: 1.5"/>
   </g>
   <g id="patch_3">
    <path d="M 558.508104 961.2 
L 558.508104 129.6 
" style="fill: none; stroke: #000000; stroke-width: 0.8; stroke-linejoin: miter; stroke-linecap: square"/>
   </g>
   <g id="patch_4">
    <path d="M 917.491896 961.2 
L 917.491896 129.6 
" style="fill: none; stroke: #000000; stroke-width: 0.8; stroke-linejoin: miter; stroke-linecap: square"/>
   </g>
   <g id="patch_5">
    <path d="M 558.508104 961.2 
L 917.491896 961.2 
" style="fill: none; stroke: #000000; stroke-width: 0.8; stroke-linejoin: miter; stroke-linecap: square"/>
   </g>
   <g id="patch_6">
    <path d="M 558.508104 129.6 
L 917.491896 129.6 
" style="fill: none; stroke: #000000; stroke-width: 0.8; stroke-linejoin: miter; stroke-linecap: square"/>
   </g>
  </g>
 </g>
 <defs>
  <clipPath id="p669209f25b">
   <rect x="558.508104" y="129.6" width="358.983792" height="831.6"/>
  </clipPath>
 </defs>
</svg>
