<?xml version="1.0" encoding="utf-8" standalone="no"?>
<!DOCTYPE svg PUBLIC "-//W3C//DTD SVG 1.1//EN"
  "http://www.w3.org/Graphics/SVG/1.1/DTD/svg11.dtd">
<svg xmlns:xlink="http://www.w3.org/1999/xlink" width="1440pt" height="1080pt" viewBox="0 0 1440 1080" xmlns="http://www.w3.org/2000/svg" version="1.1">
 <metadata>
  <rdf:RDF xmlns:dc="http://purl.org/dc/elements/1.1/" xmlns:cc="http://creativecommons.org/ns#" xmlns:rdf="http://www.w3.org/1999/02/22-rdf-syntax-ns#">
   <cc:Work>
    <dc:type rdf:resource="http://purl.org/dc/dcmitype/StillImage"/>
    <dc:date>2023-12-11T12:06:49.084036</dc:date>
    <dc:format>image/svg+xml</dc:format>
    <dc:creator>
     <cc:Agent>
      <dc:title>Matplotlib v3.7.1, https://matplotlib.org/</dc:title>
     </cc:Agent>
    </dc:creator>
   </cc:Work>
  </rdf:RDF>
 </metadata>
 <defs>
  <style type="text/css">*{stroke-linejoin: round; stroke-linecap: butt}</style>
 </defs>
 <g id="figure_1">
  <g id="patch_1">
   <path d="M 0 1080 
L 1440 1080 
L 1440 0 
L 0 0 
z
" style="fill: #ffffff"/>
  </g>
  <g id="axes_1">
   <g id="patch_2">
    <path d="M 579.345781 961.2 
L 896.654219 961.2 
L 896.654219 129.6 
L 579.345781 129.6 
z
" style="fill: #ffffff"/>
   </g>
   <g id="matplotlib.axis_1">
    <g id="xtick_1">
     <g id="line2d_1">
      <defs>
       <path id="mdfe3659c17" d="M 0 0 
L 0 3.5 
" style="stroke: #000000; stroke-width: 0.8"/>
      </defs>
      <g>
       <use xlink:href="#mdfe3659c17" x="622.00175" y="961.2" style="stroke: #000000; stroke-width: 0.8"/>
      </g>
     </g>
     <g id="text_1">
      <!-- 900 -->
      <g transform="translate(612.458 975.798437) scale(0.1 -0.1)">
       <defs>
        <path id="DejaVuSans-39" d="M 703 97 
L 703 672 
Q 941 559 1184 500 
Q 1428 441 1663 441 
Q 2288 441 2617 861 
Q 2947 1281 2994 2138 
Q 2813 1869 2534 1725 
Q 2256 1581 1919 1581 
Q 1219 1581 811 2004 
Q 403 2428 403 3163 
Q 403 3881 828 4315 
Q 1253 4750 1959 4750 
Q 2769 4750 3195 4129 
Q 3622 3509 3622 2328 
Q 3622 1225 3098 567 
Q 2575 -91 1691 -91 
Q 1453 -91 1209 -44 
Q 966 3 703 97 
z
M 1959 2075 
Q 2384 2075 2632 2365 
Q 2881 2656 2881 3163 
Q 2881 3666 2632 3958 
Q 2384 4250 1959 4250 
Q 1534 4250 1286 3958 
Q 1038 3666 1038 3163 
Q 1038 2656 1286 2365 
Q 1534 2075 1959 2075 
z
" transform="scale(0.015625)"/>
        <path id="DejaVuSans-30" d="M 2034 4250 
Q 1547 4250 1301 3770 
Q 1056 3291 1056 2328 
Q 1056 1369 1301 889 
Q 1547 409 2034 409 
Q 2525 409 2770 889 
Q 3016 1369 3016 2328 
Q 3016 3291 2770 3770 
Q 2525 4250 2034 4250 
z
M 2034 4750 
Q 2819 4750 3233 4129 
Q 3647 3509 3647 2328 
Q 3647 1150 3233 529 
Q 2819 -91 2034 -91 
Q 1250 -91 836 529 
Q 422 1150 422 2328 
Q 422 3509 836 4129 
Q 1250 4750 2034 4750 
z
" transform="scale(0.015625)"/>
       </defs>
       <use xlink:href="#DejaVuSans-39"/>
       <use xlink:href="#DejaVuSans-30" x="63.623047"/>
       <use xlink:href="#DejaVuSans-30" x="127.246094"/>
      </g>
     </g>
    </g>
    <g id="xtick_2">
     <g id="line2d_2">
      <g>
       <use xlink:href="#mdfe3659c17" x="678.518239" y="961.2" style="stroke: #000000; stroke-width: 0.8"/>
      </g>
     </g>
     <g id="text_2">
      <!-- 950 -->
      <g transform="translate(668.974489 975.798437) scale(0.1 -0.1)">
       <defs>
        <path id="DejaVuSans-35" d="M 691 4666 
L 3169 4666 
L 3169 4134 
L 1269 4134 
L 1269 2991 
Q 1406 3038 1543 3061 
Q 1681 3084 1819 3084 
Q 2600 3084 3056 2656 
Q 3513 2228 3513 1497 
Q 3513 744 3044 326 
Q 2575 -91 1722 -91 
Q 1428 -91 1123 -41 
Q 819 9 494 109 
L 494 744 
Q 775 591 1075 516 
Q 1375 441 1709 441 
Q 2250 441 2565 725 
Q 2881 1009 2881 1497 
Q 2881 1984 2565 2268 
Q 2250 2553 1709 2553 
Q 1456 2553 1204 2497 
Q 953 2441 691 2322 
L 691 4666 
z
" transform="scale(0.015625)"/>
       </defs>
       <use xlink:href="#DejaVuSans-39"/>
       <use xlink:href="#DejaVuSans-35" x="63.623047"/>
       <use xlink:href="#DejaVuSans-30" x="127.246094"/>
      </g>
     </g>
    </g>
    <g id="xtick_3">
     <g id="line2d_3">
      <g>
       <use xlink:href="#mdfe3659c17" x="735.034729" y="961.2" style="stroke: #000000; stroke-width: 0.8"/>
      </g>
     </g>
     <g id="text_3">
      <!-- 1000 -->
      <g transform="translate(722.309729 975.798437) scale(0.1 -0.1)">
       <defs>
        <path id="DejaVuSans-31" d="M 794 531 
L 1825 531 
L 1825 4091 
L 703 3866 
L 703 4441 
L 1819 4666 
L 2450 4666 
L 2450 531 
L 3481 531 
L 3481 0 
L 794 0 
L 794 531 
z
" transform="scale(0.015625)"/>
       </defs>
       <use xlink:href="#DejaVuSans-31"/>
       <use xlink:href="#DejaVuSans-30" x="63.623047"/>
       <use xlink:href="#DejaVuSans-30" x="127.246094"/>
       <use xlink:href="#DejaVuSans-30" x="190.869141"/>
      </g>
     </g>
    </g>
    <g id="xtick_4">
     <g id="line2d_4">
      <g>
       <use xlink:href="#mdfe3659c17" x="791.551218" y="961.2" style="stroke: #000000; stroke-width: 0.8"/>
      </g>
     </g>
     <g id="text_4">
      <!-- 1050 -->
      <g transform="translate(778.826218 975.798437) scale(0.1 -0.1)">
       <use xlink:href="#DejaVuSans-31"/>
       <use xlink:href="#DejaVuSans-30" x="63.623047"/>
       <use xlink:href="#DejaVuSans-35" x="127.246094"/>
       <use xlink:href="#DejaVuSans-30" x="190.869141"/>
      </g>
     </g>
    </g>
    <g id="xtick_5">
     <g id="line2d_5">
      <g>
       <use xlink:href="#mdfe3659c17" x="848.067707" y="961.2" style="stroke: #000000; stroke-width: 0.8"/>
      </g>
     </g>
     <g id="text_5">
      <!-- 1100 -->
      <g transform="translate(835.342707 975.798437) scale(0.1 -0.1)">
       <use xlink:href="#DejaVuSans-31"/>
       <use xlink:href="#DejaVuSans-31" x="63.623047"/>
       <use xlink:href="#DejaVuSans-30" x="127.246094"/>
       <use xlink:href="#DejaVuSans-30" x="190.869141"/>
      </g>
     </g>
    </g>
   </g>
   <g id="matplotlib.axis_2">
    <g id="ytick_1">
     <g id="line2d_6">
      <defs>
       <path id="mf9246afca6" d="M 0 0 
L -3.5 0 
" style="stroke: #000000; stroke-width: 0.8"/>
      </defs>
      <g>
       <use xlink:href="#mf9246afca6" x="579.345781" y="944.292925" style="stroke: #000000; stroke-width: 0.8"/>
      </g>
     </g>
     <g id="text_6">
      <!-- 200 -->
      <g transform="translate(553.258281 948.092144) scale(0.1 -0.1)">
       <defs>
        <path id="DejaVuSans-32" d="M 1228 531 
L 3431 531 
L 3431 0 
L 469 0 
L 469 531 
Q 828 903 1448 1529 
Q 2069 2156 2228 2338 
Q 2531 2678 2651 2914 
Q 2772 3150 2772 3378 
Q 2772 3750 2511 3984 
Q 2250 4219 1831 4219 
Q 1534 4219 1204 4116 
Q 875 4013 500 3803 
L 500 4441 
Q 881 4594 1212 4672 
Q 1544 4750 1819 4750 
Q 2544 4750 2975 4387 
Q 3406 4025 3406 3419 
Q 3406 3131 3298 2873 
Q 3191 2616 2906 2266 
Q 2828 2175 2409 1742 
Q 1991 1309 1228 531 
z
" transform="scale(0.015625)"/>
       </defs>
       <use xlink:href="#DejaVuSans-32"/>
       <use xlink:href="#DejaVuSans-30" x="63.623047"/>
       <use xlink:href="#DejaVuSans-30" x="127.246094"/>
      </g>
     </g>
    </g>
    <g id="ytick_2">
     <g id="line2d_7">
      <g>
       <use xlink:href="#mf9246afca6" x="579.345781" y="831.259947" style="stroke: #000000; stroke-width: 0.8"/>
      </g>
     </g>
     <g id="text_7">
      <!-- 300 -->
      <g transform="translate(553.258281 835.059165) scale(0.1 -0.1)">
       <defs>
        <path id="DejaVuSans-33" d="M 2597 2516 
Q 3050 2419 3304 2112 
Q 3559 1806 3559 1356 
Q 3559 666 3084 287 
Q 2609 -91 1734 -91 
Q 1441 -91 1130 -33 
Q 819 25 488 141 
L 488 750 
Q 750 597 1062 519 
Q 1375 441 1716 441 
Q 2309 441 2620 675 
Q 2931 909 2931 1356 
Q 2931 1769 2642 2001 
Q 2353 2234 1838 2234 
L 1294 2234 
L 1294 2753 
L 1863 2753 
Q 2328 2753 2575 2939 
Q 2822 3125 2822 3475 
Q 2822 3834 2567 4026 
Q 2313 4219 1838 4219 
Q 1578 4219 1281 4162 
Q 984 4106 628 3988 
L 628 4550 
Q 988 4650 1302 4700 
Q 1616 4750 1894 4750 
Q 2613 4750 3031 4423 
Q 3450 4097 3450 3541 
Q 3450 3153 3228 2886 
Q 3006 2619 2597 2516 
z
" transform="scale(0.015625)"/>
       </defs>
       <use xlink:href="#DejaVuSans-33"/>
       <use xlink:href="#DejaVuSans-30" x="63.623047"/>
       <use xlink:href="#DejaVuSans-30" x="127.246094"/>
      </g>
     </g>
    </g>
    <g id="ytick_3">
     <g id="line2d_8">
      <g>
       <use xlink:href="#mf9246afca6" x="579.345781" y="718.226968" style="stroke: #000000; stroke-width: 0.8"/>
      </g>
     </g>
     <g id="text_8">
      <!-- 400 -->
      <g transform="translate(553.258281 722.026187) scale(0.1 -0.1)">
       <defs>
        <path id="DejaVuSans-34" d="M 2419 4116 
L 825 1625 
L 2419 1625 
L 2419 4116 
z
M 2253 4666 
L 3047 4666 
L 3047 1625 
L 3713 1625 
L 3713 1100 
L 3047 1100 
L 3047 0 
L 2419 0 
L 2419 1100 
L 313 1100 
L 313 1709 
L 2253 4666 
z
" transform="scale(0.015625)"/>
       </defs>
       <use xlink:href="#DejaVuSans-34"/>
       <use xlink:href="#DejaVuSans-30" x="63.623047"/>
       <use xlink:href="#DejaVuSans-30" x="127.246094"/>
      </g>
     </g>
    </g>
    <g id="ytick_4">
     <g id="line2d_9">
      <g>
       <use xlink:href="#mf9246afca6" x="579.345781" y="605.19399" style="stroke: #000000; stroke-width: 0.8"/>
      </g>
     </g>
     <g id="text_9">
      <!-- 500 -->
      <g transform="translate(553.258281 608.993208) scale(0.1 -0.1)">
       <use xlink:href="#DejaVuSans-35"/>
       <use xlink:href="#DejaVuSans-30" x="63.623047"/>
       <use xlink:href="#DejaVuSans-30" x="127.246094"/>
      </g>
     </g>
    </g>
    <g id="ytick_5">
     <g id="line2d_10">
      <g>
       <use xlink:href="#mf9246afca6" x="579.345781" y="492.161011" style="stroke: #000000; stroke-width: 0.8"/>
      </g>
     </g>
     <g id="text_10">
      <!-- 600 -->
      <g transform="translate(553.258281 495.96023) scale(0.1 -0.1)">
       <defs>
        <path id="DejaVuSans-36" d="M 2113 2584 
Q 1688 2584 1439 2293 
Q 1191 2003 1191 1497 
Q 1191 994 1439 701 
Q 1688 409 2113 409 
Q 2538 409 2786 701 
Q 3034 994 3034 1497 
Q 3034 2003 2786 2293 
Q 2538 2584 2113 2584 
z
M 3366 4563 
L 3366 3988 
Q 3128 4100 2886 4159 
Q 2644 4219 2406 4219 
Q 1781 4219 1451 3797 
Q 1122 3375 1075 2522 
Q 1259 2794 1537 2939 
Q 1816 3084 2150 3084 
Q 2853 3084 3261 2657 
Q 3669 2231 3669 1497 
Q 3669 778 3244 343 
Q 2819 -91 2113 -91 
Q 1303 -91 875 529 
Q 447 1150 447 2328 
Q 447 3434 972 4092 
Q 1497 4750 2381 4750 
Q 2619 4750 2861 4703 
Q 3103 4656 3366 4563 
z
" transform="scale(0.015625)"/>
       </defs>
       <use xlink:href="#DejaVuSans-36"/>
       <use xlink:href="#DejaVuSans-30" x="63.623047"/>
       <use xlink:href="#DejaVuSans-30" x="127.246094"/>
      </g>
     </g>
    </g>
    <g id="ytick_6">
     <g id="line2d_11">
      <g>
       <use xlink:href="#mf9246afca6" x="579.345781" y="379.128032" style="stroke: #000000; stroke-width: 0.8"/>
      </g>
     </g>
     <g id="text_11">
      <!-- 700 -->
      <g transform="translate(553.258281 382.927251) scale(0.1 -0.1)">
       <defs>
        <path id="DejaVuSans-37" d="M 525 4666 
L 3525 4666 
L 3525 4397 
L 1831 0 
L 1172 0 
L 2766 4134 
L 525 4134 
L 525 4666 
z
" transform="scale(0.015625)"/>
       </defs>
       <use xlink:href="#DejaVuSans-37"/>
       <use xlink:href="#DejaVuSans-30" x="63.623047"/>
       <use xlink:href="#DejaVuSans-30" x="127.246094"/>
      </g>
     </g>
    </g>
    <g id="ytick_7">
     <g id="line2d_12">
      <g>
       <use xlink:href="#mf9246afca6" x="579.345781" y="266.095054" style="stroke: #000000; stroke-width: 0.8"/>
      </g>
     </g>
     <g id="text_12">
      <!-- 800 -->
      <g transform="translate(553.258281 269.894273) scale(0.1 -0.1)">
       <defs>
        <path id="DejaVuSans-38" d="M 2034 2216 
Q 1584 2216 1326 1975 
Q 1069 1734 1069 1313 
Q 1069 891 1326 650 
Q 1584 409 2034 409 
Q 2484 409 2743 651 
Q 3003 894 3003 1313 
Q 3003 1734 2745 1975 
Q 2488 2216 2034 2216 
z
M 1403 2484 
Q 997 2584 770 2862 
Q 544 3141 544 3541 
Q 544 4100 942 4425 
Q 1341 4750 2034 4750 
Q 2731 4750 3128 4425 
Q 3525 4100 3525 3541 
Q 3525 3141 3298 2862 
Q 3072 2584 2669 2484 
Q 3125 2378 3379 2068 
Q 3634 1759 3634 1313 
Q 3634 634 3220 271 
Q 2806 -91 2034 -91 
Q 1263 -91 848 271 
Q 434 634 434 1313 
Q 434 1759 690 2068 
Q 947 2378 1403 2484 
z
M 1172 3481 
Q 1172 3119 1398 2916 
Q 1625 2713 2034 2713 
Q 2441 2713 2670 2916 
Q 2900 3119 2900 3481 
Q 2900 3844 2670 4047 
Q 2441 4250 2034 4250 
Q 1625 4250 1398 4047 
Q 1172 3844 1172 3481 
z
" transform="scale(0.015625)"/>
       </defs>
       <use xlink:href="#DejaVuSans-38"/>
       <use xlink:href="#DejaVuSans-30" x="63.623047"/>
       <use xlink:href="#DejaVuSans-30" x="127.246094"/>
      </g>
     </g>
    </g>
    <g id="ytick_8">
     <g id="line2d_13">
      <g>
       <use xlink:href="#mf9246afca6" x="579.345781" y="153.062075" style="stroke: #000000; stroke-width: 0.8"/>
      </g>
     </g>
     <g id="text_13">
      <!-- 900 -->
      <g transform="translate(553.258281 156.861294) scale(0.1 -0.1)">
       <use xlink:href="#DejaVuSans-39"/>
       <use xlink:href="#DejaVuSans-30" x="63.623047"/>
       <use xlink:href="#DejaVuSans-30" x="127.246094"/>
      </g>
     </g>
    </g>
   </g>
   <g id="LineCollection_1">
    <path d="M 793.773051 167.4 
L 764.830271 180.101855 
L 738.313646 192.418509 
L 714.202356 204.379086 
L 692.455621 216.020575 
L 673.014114 227.391056 
L 655.802393 238.55446 
L 640.733894 249.597135 
L 627.721532 260.635464 
L 618.314145 270.02595 
L 616.698999 271.820341 
L 609.372861 280.89007 
L 607.6577 283.325802 
L 601.438815 293.66156 
L 600.692398 295.296405 
L 596.525784 305.725636 
L 596.01111 307.732874 
L 593.957361 318.143167 
L 593.830123 320.37051 
L 593.859737 330.528401 
L 594.165373 332.715174 
L 596.093622 342.386506 
L 596.728796 344.295254 
L 600.272365 353.365643 
L 601.064409 354.888281 
L 605.213584 362.174964 
L 606.749895 364.521403 
L 613.481619 373.344116 
L 621.058045 381.524631 
L 629.337528 389.205853 
L 638.206652 396.497331 
L 647.563036 403.48022 
L 657.30763 410.214524 
L 667.341946 416.745181 
L 677.567547 423.106447 
L 698.20181 435.42108 
L 728.295646 453.181807 
L 737.722696 458.942999 
L 746.704812 464.628688 
L 755.16644 470.237272 
L 763.037429 475.762443 
L 770.254021 481.192445 
L 776.760333 486.509291 
L 782.510658 491.688192 
L 787.472872 496.697746 
L 791.633111 501.501838 
L 795.001266 506.064638 
L 797.615561 510.360093 
L 799.542678 514.386001 
L 800.868896 518.17923 
L 801.680336 521.824045 
L 802.037807 525.444487 
L 801.959005 529.179177 
L 801.418924 533.149302 
L 800.367357 537.435764 
L 798.751922 542.073822 
L 796.535316 547.061774 
L 793.702873 552.374949 
L 790.262557 557.978204 
L 786.241223 563.834379 
L 781.680022 569.908913 
L 776.630318 576.171821 
L 771.150548 582.598178 
L 765.303933 589.167905 
L 752.777706 602.678642 
L 732.862907 623.838801 
L 726.212623 631.116379 
L 719.677473 638.509643 
L 713.325963 646.031241 
L 707.226896 653.699008 
L 701.45058 661.53636 
L 696.070888 669.572104 
L 691.168268 677.83892 
L 686.833436 686.369407 
L 683.170565 695.188417 
L 680.297389 704.301109 
L 678.738201 711.290827 
L 678.338378 713.678681 
L 677.550651 720.661927 
L 677.408242 723.247978 
L 677.424308 730.226111 
L 677.588484 732.894116 
L 678.43388 739.86924 
L 678.907455 742.481231 
L 680.60036 749.456246 
L 681.336309 751.884672 
L 683.886965 758.863333 
L 684.803841 761.018508 
L 689.220466 769.845786 
L 694.498132 778.37173 
L 700.559638 786.628771 
L 707.338674 794.662037 
L 714.774973 802.519268 
L 722.808271 810.245304 
L 731.37293 817.879786 
L 740.393773 825.456599 
L 749.783017 833.004026 
L 769.248674 848.104011 
L 779.131237 855.734946 
L 788.871315 863.400061 
L 798.293543 871.097887 
L 807.201681 878.813262 
L 815.37973 886.510639 
L 822.597241 894.124452 
L 828.624281 901.548064 
L 833.265456 908.630112 
L 836.420272 915.205444 
L 838.771561 923.4 
L 838.771561 923.4 
" clip-path="url(#p67638bad75)" style="fill: none; stroke: #1f77b4; stroke-width: 1.5"/>
    <path d="M 802.854516 188.102299 
L 774.348419 200.60705 
L 748.351636 212.674296 
L 724.858877 224.316406 
L 703.848318 235.546574 
L 685.283052 246.378719 
L 669.112472 256.82739 
L 655.273612 266.907674 
L 643.692431 276.635107 
L 634.285044 286.025593 
L 626.958907 295.095322 
L 621.613945 303.860694 
L 618.143637 312.338246 
L 616.436048 320.544585 
L 616.374817 328.496317 
L 617.84009 336.209993 
L 620.709415 343.702044 
L 624.85859 350.988727 
L 630.162458 358.086075 
L 636.495665 365.009848 
L 643.733376 371.775486 
L 651.751941 378.398069 
L 660.429523 384.892276 
L 669.646683 391.272351 
L 679.286928 397.552068 
L 689.237214 403.744706 
L 699.388411 409.863013 
L 709.635733 415.919194 
L 719.879125 421.924877 
L 730.023616 427.891106 
L 739.979635 433.828317 
L 749.663292 439.74633 
L 758.996622 445.654337 
L 767.907798 451.560894 
L 776.331306 457.473914 
L 784.208094 463.40067 
L 791.485679 469.347787 
L 798.118236 475.321251 
L 804.066644 481.326407 
L 809.298507 487.367972 
L 813.78815 493.450038 
L 817.51658 499.576088 
L 820.471425 505.749006 
L 822.646838 511.971091 
L 824.043386 518.244081 
L 824.667904 524.569162 
L 824.533331 530.946999 
L 823.658515 537.377751 
L 822.068003 543.861102 
L 819.7918 550.396284 
L 816.865114 556.982104 
L 813.328075 563.61698 
L 809.225434 570.298964 
L 804.606244 577.025783 
L 799.523523 583.794869 
L 794.033895 590.603394 
L 788.197215 597.448313 
L 782.076184 604.326397 
L 775.735933 611.234276 
L 769.24361 618.168478 
L 762.667938 625.125477 
L 756.078764 632.101728 
L 749.5466 639.09372 
L 743.142144 646.098017 
L 736.935793 653.111306 
L 730.997144 660.130445 
L 725.394488 667.152511 
L 720.194291 674.17485 
L 715.460665 681.195129 
L 711.254837 688.21138 
L 707.634606 695.222062 
L 704.653794 702.226106 
L 702.361693 709.222968 
L 700.802504 716.212686 
L 700.014778 723.195932 
L 700.030843 730.174066 
L 700.87624 737.14919 
L 702.569145 744.124206 
L 705.119801 751.102867 
L 708.529942 758.089837 
L 712.792216 765.090742 
L 717.889618 772.11223 
L 723.794911 779.162024 
L 730.470063 786.248978 
L 737.865677 793.383136 
L 745.920427 800.575784 
L 754.560502 807.839506 
L 763.699053 815.188243 
L 773.235644 822.637343 
L 783.055712 830.203619 
L 793.030032 837.905405 
L 803.014193 845.762606 
L 812.848084 853.796755 
L 822.35538 862.031063 
L 831.343052 870.490477 
L 839.600878 879.201727 
L 846.900969 888.193378 
L 852.997307 897.495885 
L 857.625298 907.141637 
L 860.501335 917.16501 
" clip-path="url(#p67638bad75)" style="fill: none; stroke: #8c564b; stroke-width: 1.5"/>
    <path d="M 811.93598 208.804598 
L 783.64927 221.213111 
L 758.131296 233.058102 
L 735.208583 244.417719 
L 714.876764 255.2851 
L 697.119993 265.645517 
L 681.911966 275.472232 
L 669.215139 284.720654 
L 658.975901 293.320943 
L 651.111492 301.171223 
L 645.482951 308.139335 
L 641.853029 314.092158 
L 639.852689 318.978753 
L 639.024732 322.957753 
L 638.997806 326.454494 
L 639.672998 330.008929 
L 641.205536 334.010513 
L 643.808358 338.581528 
L 647.600008 343.65531 
L 652.579482 349.099114 
L 658.664161 354.786925 
L 665.730517 360.623073 
L 673.639932 366.542393 
L 682.251943 372.503586 
L 691.430243 378.482389 
L 701.045141 384.466295 
L 721.103714 396.437275 
L 751.768168 414.538717 
L 761.754466 420.644978 
L 771.486354 426.811175 
L 780.896238 433.057959 
L 789.923376 439.409757 
L 798.512965 445.895562 
L 806.614517 452.549679 
L 814.179222 459.412042 
L 821.156023 466.527377 
L 827.486475 473.942027 
L 833.099328 481.696887 
L 836.827759 487.822937 
L 837.907446 489.815414 
L 840.862291 495.988331 
L 841.811326 498.287987 
L 843.986739 504.510073 
L 844.713203 507.058484 
L 846.109751 513.331473 
L 846.540585 516.022779 
L 847.165104 522.34786 
L 847.269469 525.046058 
L 847.134896 531.423895 
L 846.933608 533.99425 
L 846.058793 540.425003 
L 845.614085 542.763949 
L 843.416719 551.296858 
L 840.45037 559.576787 
L 836.814059 567.616848 
L 832.593192 575.445481 
L 827.861325 583.095906 
L 822.683946 590.599834 
L 817.122204 597.984463 
L 811.235788 605.271491 
L 805.08484 612.477162 
L 798.731084 619.612746 
L 785.672802 633.697156 
L 766.148543 654.438046 
L 759.949862 661.217295 
L 754.031825 667.904784 
L 748.465508 674.483847 
L 743.319692 680.933336 
L 738.658941 687.227208 
L 734.54093 693.334488 
L 731.012818 699.220159 
L 728.106721 704.847901 
L 725.834945 710.185916 
L 724.186859 715.216858 
L 723.130744 719.951338 
L 722.6243 724.440997 
L 722.634297 728.783156 
L 723.158623 733.109218 
L 724.238208 737.557268 
L 725.950095 742.241035 
L 728.385394 747.230671 
L 731.62492 752.551684 
L 735.723076 758.196746 
L 740.702334 764.14103 
L 746.554954 770.354709 
L 753.24762 776.810771 
L 760.726175 783.488894 
L 768.919322 790.376883 
L 777.741138 797.470918 
L 796.872119 812.310463 
L 807.010624 820.140237 
L 817.316998 828.255809 
L 827.648343 836.70844 
L 837.849559 845.569332 
L 847.749609 854.937887 
L 857.151547 864.95279 
L 864.451638 873.944441 
L 865.809024 875.802106 
L 871.905362 885.104612 
L 873.379298 887.716692 
L 878.75562 899.106238 
L 879.355072 900.906647 
L 882.231109 910.93002 
L 882.231109 910.93002 
" clip-path="url(#p67638bad75)" style="fill: none; stroke: #17becf; stroke-width: 1.5"/>
   </g>
   <g id="patch_3">
    <path d="M 579.345781 961.2 
L 579.345781 129.6 
" style="fill: none; stroke: #000000; stroke-width: 0.8; stroke-linejoin: miter; stroke-linecap: square"/>
   </g>
   <g id="patch_4">
    <path d="M 896.654219 961.2 
L 896.654219 129.6 
" style="fill: none; stroke: #000000; stroke-width: 0.8; stroke-linejoin: miter; stroke-linecap: square"/>
   </g>
   <g id="patch_5">
    <path d="M 579.345781 961.2 
L 896.654219 961.2 
" style="fill: none; stroke: #000000; stroke-width: 0.8; stroke-linejoin: miter; stroke-linecap: square"/>
   </g>
   <g id="patch_6">
    <path d="M 579.345781 129.6 
L 896.654219 129.6 
" style="fill: none; stroke: #000000; stroke-width: 0.8; stroke-linejoin: miter; stroke-linecap: square"/>
   </g>
  </g>
 </g>
 <defs>
  <clipPath id="p67638bad75">
   <rect x="579.345781" y="129.6" width="317.308439" height="831.6"/>
  </clipPath>
 </defs>
</svg>
