<?xml version="1.0" encoding="utf-8" standalone="no"?>
<!DOCTYPE svg PUBLIC "-//W3C//DTD SVG 1.1//EN"
  "http://www.w3.org/Graphics/SVG/1.1/DTD/svg11.dtd">
<svg xmlns:xlink="http://www.w3.org/1999/xlink" width="1440pt" height="1080pt" viewBox="0 0 1440 1080" xmlns="http://www.w3.org/2000/svg" version="1.1">
 <metadata>
  <rdf:RDF xmlns:dc="http://purl.org/dc/elements/1.1/" xmlns:cc="http://creativecommons.org/ns#" xmlns:rdf="http://www.w3.org/1999/02/22-rdf-syntax-ns#">
   <cc:Work>
    <dc:type rdf:resource="http://purl.org/dc/dcmitype/StillImage"/>
    <dc:date>2023-12-11T12:06:47.546715</dc:date>
    <dc:format>image/svg+xml</dc:format>
    <dc:creator>
     <cc:Agent>
      <dc:title>Matplotlib v3.7.1, https://matplotlib.org/</dc:title>
     </cc:Agent>
    </dc:creator>
   </cc:Work>
  </rdf:RDF>
 </metadata>
 <defs>
  <style type="text/css">*{stroke-linejoin: round; stroke-linecap: butt}</style>
 </defs>
 <g id="figure_1">
  <g id="patch_1">
   <path d="M 0 1080 
L 1440 1080 
L 1440 0 
L 0 0 
z
" style="fill: #ffffff"/>
  </g>
  <g id="axes_1">
   <g id="patch_2">
    <path d="M 617.840097 961.2 
L 858.159903 961.2 
L 858.159903 129.6 
L 617.840097 129.6 
z
" style="fill: #ffffff"/>
   </g>
   <g id="matplotlib.axis_1">
    <g id="xtick_1">
     <g id="line2d_1">
      <defs>
       <path id="m463ffba9f8" d="M 0 0 
L 0 3.5 
" style="stroke: #000000; stroke-width: 0.8"/>
      </defs>
      <g>
       <use xlink:href="#m463ffba9f8" x="620.738769" y="961.2" style="stroke: #000000; stroke-width: 0.8"/>
      </g>
     </g>
     <g id="text_1">
      <!-- 775 -->
      <g transform="translate(611.195019 975.798437) scale(0.1 -0.1)">
       <defs>
        <path id="DejaVuSans-37" d="M 525 4666 
L 3525 4666 
L 3525 4397 
L 1831 0 
L 1172 0 
L 2766 4134 
L 525 4134 
L 525 4666 
z
" transform="scale(0.015625)"/>
        <path id="DejaVuSans-35" d="M 691 4666 
L 3169 4666 
L 3169 4134 
L 1269 4134 
L 1269 2991 
Q 1406 3038 1543 3061 
Q 1681 3084 1819 3084 
Q 2600 3084 3056 2656 
Q 3513 2228 3513 1497 
Q 3513 744 3044 326 
Q 2575 -91 1722 -91 
Q 1428 -91 1123 -41 
Q 819 9 494 109 
L 494 744 
Q 775 591 1075 516 
Q 1375 441 1709 441 
Q 2250 441 2565 725 
Q 2881 1009 2881 1497 
Q 2881 1984 2565 2268 
Q 2250 2553 1709 2553 
Q 1456 2553 1204 2497 
Q 953 2441 691 2322 
L 691 4666 
z
" transform="scale(0.015625)"/>
       </defs>
       <use xlink:href="#DejaVuSans-37"/>
       <use xlink:href="#DejaVuSans-37" x="63.623047"/>
       <use xlink:href="#DejaVuSans-35" x="127.246094"/>
      </g>
     </g>
    </g>
    <g id="xtick_2">
     <g id="line2d_2">
      <g>
       <use xlink:href="#m463ffba9f8" x="657.557706" y="961.2" style="stroke: #000000; stroke-width: 0.8"/>
      </g>
     </g>
     <g id="text_2">
      <!-- 800 -->
      <g transform="translate(648.013956 975.798437) scale(0.1 -0.1)">
       <defs>
        <path id="DejaVuSans-38" d="M 2034 2216 
Q 1584 2216 1326 1975 
Q 1069 1734 1069 1313 
Q 1069 891 1326 650 
Q 1584 409 2034 409 
Q 2484 409 2743 651 
Q 3003 894 3003 1313 
Q 3003 1734 2745 1975 
Q 2488 2216 2034 2216 
z
M 1403 2484 
Q 997 2584 770 2862 
Q 544 3141 544 3541 
Q 544 4100 942 4425 
Q 1341 4750 2034 4750 
Q 2731 4750 3128 4425 
Q 3525 4100 3525 3541 
Q 3525 3141 3298 2862 
Q 3072 2584 2669 2484 
Q 3125 2378 3379 2068 
Q 3634 1759 3634 1313 
Q 3634 634 3220 271 
Q 2806 -91 2034 -91 
Q 1263 -91 848 271 
Q 434 634 434 1313 
Q 434 1759 690 2068 
Q 947 2378 1403 2484 
z
M 1172 3481 
Q 1172 3119 1398 2916 
Q 1625 2713 2034 2713 
Q 2441 2713 2670 2916 
Q 2900 3119 2900 3481 
Q 2900 3844 2670 4047 
Q 2441 4250 2034 4250 
Q 1625 4250 1398 4047 
Q 1172 3844 1172 3481 
z
" transform="scale(0.015625)"/>
        <path id="DejaVuSans-30" d="M 2034 4250 
Q 1547 4250 1301 3770 
Q 1056 3291 1056 2328 
Q 1056 1369 1301 889 
Q 1547 409 2034 409 
Q 2525 409 2770 889 
Q 3016 1369 3016 2328 
Q 3016 3291 2770 3770 
Q 2525 4250 2034 4250 
z
M 2034 4750 
Q 2819 4750 3233 4129 
Q 3647 3509 3647 2328 
Q 3647 1150 3233 529 
Q 2819 -91 2034 -91 
Q 1250 -91 836 529 
Q 422 1150 422 2328 
Q 422 3509 836 4129 
Q 1250 4750 2034 4750 
z
" transform="scale(0.015625)"/>
       </defs>
       <use xlink:href="#DejaVuSans-38"/>
       <use xlink:href="#DejaVuSans-30" x="63.623047"/>
       <use xlink:href="#DejaVuSans-30" x="127.246094"/>
      </g>
     </g>
    </g>
    <g id="xtick_3">
     <g id="line2d_3">
      <g>
       <use xlink:href="#m463ffba9f8" x="694.376642" y="961.2" style="stroke: #000000; stroke-width: 0.8"/>
      </g>
     </g>
     <g id="text_3">
      <!-- 825 -->
      <g transform="translate(684.832892 975.798437) scale(0.1 -0.1)">
       <defs>
        <path id="DejaVuSans-32" d="M 1228 531 
L 3431 531 
L 3431 0 
L 469 0 
L 469 531 
Q 828 903 1448 1529 
Q 2069 2156 2228 2338 
Q 2531 2678 2651 2914 
Q 2772 3150 2772 3378 
Q 2772 3750 2511 3984 
Q 2250 4219 1831 4219 
Q 1534 4219 1204 4116 
Q 875 4013 500 3803 
L 500 4441 
Q 881 4594 1212 4672 
Q 1544 4750 1819 4750 
Q 2544 4750 2975 4387 
Q 3406 4025 3406 3419 
Q 3406 3131 3298 2873 
Q 3191 2616 2906 2266 
Q 2828 2175 2409 1742 
Q 1991 1309 1228 531 
z
" transform="scale(0.015625)"/>
       </defs>
       <use xlink:href="#DejaVuSans-38"/>
       <use xlink:href="#DejaVuSans-32" x="63.623047"/>
       <use xlink:href="#DejaVuSans-35" x="127.246094"/>
      </g>
     </g>
    </g>
    <g id="xtick_4">
     <g id="line2d_4">
      <g>
       <use xlink:href="#m463ffba9f8" x="731.195579" y="961.2" style="stroke: #000000; stroke-width: 0.8"/>
      </g>
     </g>
     <g id="text_4">
      <!-- 850 -->
      <g transform="translate(721.651829 975.798437) scale(0.1 -0.1)">
       <use xlink:href="#DejaVuSans-38"/>
       <use xlink:href="#DejaVuSans-35" x="63.623047"/>
       <use xlink:href="#DejaVuSans-30" x="127.246094"/>
      </g>
     </g>
    </g>
    <g id="xtick_5">
     <g id="line2d_5">
      <g>
       <use xlink:href="#m463ffba9f8" x="768.014516" y="961.2" style="stroke: #000000; stroke-width: 0.8"/>
      </g>
     </g>
     <g id="text_5">
      <!-- 875 -->
      <g transform="translate(758.470766 975.798437) scale(0.1 -0.1)">
       <use xlink:href="#DejaVuSans-38"/>
       <use xlink:href="#DejaVuSans-37" x="63.623047"/>
       <use xlink:href="#DejaVuSans-35" x="127.246094"/>
      </g>
     </g>
    </g>
    <g id="xtick_6">
     <g id="line2d_6">
      <g>
       <use xlink:href="#m463ffba9f8" x="804.833453" y="961.2" style="stroke: #000000; stroke-width: 0.8"/>
      </g>
     </g>
     <g id="text_6">
      <!-- 900 -->
      <g transform="translate(795.289703 975.798437) scale(0.1 -0.1)">
       <defs>
        <path id="DejaVuSans-39" d="M 703 97 
L 703 672 
Q 941 559 1184 500 
Q 1428 441 1663 441 
Q 2288 441 2617 861 
Q 2947 1281 2994 2138 
Q 2813 1869 2534 1725 
Q 2256 1581 1919 1581 
Q 1219 1581 811 2004 
Q 403 2428 403 3163 
Q 403 3881 828 4315 
Q 1253 4750 1959 4750 
Q 2769 4750 3195 4129 
Q 3622 3509 3622 2328 
Q 3622 1225 3098 567 
Q 2575 -91 1691 -91 
Q 1453 -91 1209 -44 
Q 966 3 703 97 
z
M 1959 2075 
Q 2384 2075 2632 2365 
Q 2881 2656 2881 3163 
Q 2881 3666 2632 3958 
Q 2384 4250 1959 4250 
Q 1534 4250 1286 3958 
Q 1038 3666 1038 3163 
Q 1038 2656 1286 2365 
Q 1534 2075 1959 2075 
z
" transform="scale(0.015625)"/>
       </defs>
       <use xlink:href="#DejaVuSans-39"/>
       <use xlink:href="#DejaVuSans-30" x="63.623047"/>
       <use xlink:href="#DejaVuSans-30" x="127.246094"/>
      </g>
     </g>
    </g>
    <g id="xtick_7">
     <g id="line2d_7">
      <g>
       <use xlink:href="#m463ffba9f8" x="841.65239" y="961.2" style="stroke: #000000; stroke-width: 0.8"/>
      </g>
     </g>
     <g id="text_7">
      <!-- 925 -->
      <g transform="translate(832.10864 975.798437) scale(0.1 -0.1)">
       <use xlink:href="#DejaVuSans-39"/>
       <use xlink:href="#DejaVuSans-32" x="63.623047"/>
       <use xlink:href="#DejaVuSans-35" x="127.246094"/>
      </g>
     </g>
    </g>
   </g>
   <g id="matplotlib.axis_2">
    <g id="ytick_1">
     <g id="line2d_8">
      <defs>
       <path id="m9435d68818" d="M 0 0 
L -3.5 0 
" style="stroke: #000000; stroke-width: 0.8"/>
      </defs>
      <g>
       <use xlink:href="#m9435d68818" x="617.840097" y="831.083306" style="stroke: #000000; stroke-width: 0.8"/>
      </g>
     </g>
     <g id="text_8">
      <!-- 800 -->
      <g transform="translate(591.752597 834.882524) scale(0.1 -0.1)">
       <use xlink:href="#DejaVuSans-38"/>
       <use xlink:href="#DejaVuSans-30" x="63.623047"/>
       <use xlink:href="#DejaVuSans-30" x="127.246094"/>
      </g>
     </g>
    </g>
    <g id="ytick_2">
     <g id="line2d_9">
      <g>
       <use xlink:href="#m9435d68818" x="617.840097" y="683.807558" style="stroke: #000000; stroke-width: 0.8"/>
      </g>
     </g>
     <g id="text_9">
      <!-- 900 -->
      <g transform="translate(591.752597 687.606777) scale(0.1 -0.1)">
       <use xlink:href="#DejaVuSans-39"/>
       <use xlink:href="#DejaVuSans-30" x="63.623047"/>
       <use xlink:href="#DejaVuSans-30" x="127.246094"/>
      </g>
     </g>
    </g>
    <g id="ytick_3">
     <g id="line2d_10">
      <g>
       <use xlink:href="#m9435d68818" x="617.840097" y="536.53181" style="stroke: #000000; stroke-width: 0.8"/>
      </g>
     </g>
     <g id="text_10">
      <!-- 1000 -->
      <g transform="translate(585.390097 540.331029) scale(0.1 -0.1)">
       <defs>
        <path id="DejaVuSans-31" d="M 794 531 
L 1825 531 
L 1825 4091 
L 703 3866 
L 703 4441 
L 1819 4666 
L 2450 4666 
L 2450 531 
L 3481 531 
L 3481 0 
L 794 0 
L 794 531 
z
" transform="scale(0.015625)"/>
       </defs>
       <use xlink:href="#DejaVuSans-31"/>
       <use xlink:href="#DejaVuSans-30" x="63.623047"/>
       <use xlink:href="#DejaVuSans-30" x="127.246094"/>
       <use xlink:href="#DejaVuSans-30" x="190.869141"/>
      </g>
     </g>
    </g>
    <g id="ytick_4">
     <g id="line2d_11">
      <g>
       <use xlink:href="#m9435d68818" x="617.840097" y="389.256063" style="stroke: #000000; stroke-width: 0.8"/>
      </g>
     </g>
     <g id="text_11">
      <!-- 1100 -->
      <g transform="translate(585.390097 393.055281) scale(0.1 -0.1)">
       <use xlink:href="#DejaVuSans-31"/>
       <use xlink:href="#DejaVuSans-31" x="63.623047"/>
       <use xlink:href="#DejaVuSans-30" x="127.246094"/>
       <use xlink:href="#DejaVuSans-30" x="190.869141"/>
      </g>
     </g>
    </g>
    <g id="ytick_5">
     <g id="line2d_12">
      <g>
       <use xlink:href="#m9435d68818" x="617.840097" y="241.980315" style="stroke: #000000; stroke-width: 0.8"/>
      </g>
     </g>
     <g id="text_12">
      <!-- 1200 -->
      <g transform="translate(585.390097 245.779534) scale(0.1 -0.1)">
       <use xlink:href="#DejaVuSans-31"/>
       <use xlink:href="#DejaVuSans-32" x="63.623047"/>
       <use xlink:href="#DejaVuSans-30" x="127.246094"/>
       <use xlink:href="#DejaVuSans-30" x="190.869141"/>
      </g>
     </g>
    </g>
   </g>
   <g id="LineCollection_1">
    <path d="M 839.01402 167.4 
L 815.355741 173.622052 
L 794.237845 180.15169 
L 775.366231 186.945955 
L 758.48141 193.96649 
L 743.355493 201.178584 
L 729.789033 208.550416 
L 717.60781 216.052612 
L 706.659693 223.65814 
L 696.811769 231.342498 
L 687.947861 239.084092 
L 679.966504 246.864644 
L 672.779366 254.669479 
L 666.310019 262.487608 
L 660.492949 270.31157 
L 655.272683 278.137053 
L 650.602967 285.962347 
L 646.445919 293.787692 
L 642.771131 301.614595 
L 639.554727 309.445154 
L 636.778352 317.281439 
L 634.428126 325.124976 
L 632.493575 332.976354 
L 630.966562 340.834991 
L 629.840268 348.699065 
L 629.108265 356.56561 
L 628.763725 364.430761 
L 628.798792 372.290091 
L 629.204157 380.138991 
L 629.968807 387.973037 
L 631.079935 395.788276 
L 632.522968 403.581421 
L 634.28166 411.349922 
L 636.338228 419.091936 
L 638.673474 426.806215 
L 641.266906 434.491941 
L 644.096824 442.148539 
L 647.140399 449.775491 
L 650.373739 457.372169 
L 653.771963 464.937695 
L 657.309275 472.470842 
L 664.69407 487.432915 
L 672.308046 502.239531 
L 687.355141 531.338614 
L 694.338607 545.543622 
L 697.605646 552.542406 
L 700.69342 559.466659 
L 703.582524 566.312969 
L 706.256059 573.07873 
L 708.699881 579.762431 
L 710.902778 586.363979 
L 712.856569 592.885023 
L 714.556103 599.329258 
L 715.999145 605.702662 
L 717.186172 612.013622 
L 718.120095 618.272915 
L 718.805969 624.493503 
L 719.250728 630.690166 
L 719.463033 636.878985 
L 719.453245 643.076762 
L 719.233528 649.300445 
L 718.818086 655.566627 
L 718.22343 661.891187 
L 717.468661 668.289063 
L 715.56918 681.359346 
L 709.863277 716.27048 
L 708.824215 723.694146 
L 707.899874 731.267922 
L 707.12065 738.990487 
L 706.512449 746.857681 
L 706.09508 754.862504 
L 705.880687 762.99526 
L 705.872282 771.243767 
L 706.062451 779.593517 
L 706.432254 788.027642 
L 707.572066 805.067233 
L 708.886704 822.262162 
L 709.417049 830.832788 
L 709.730396 839.311217 
L 709.713692 847.642229 
L 709.246203 855.766341 
L 708.202749 863.630077 
L 706.451466 871.205702 
L 703.836286 878.517477 
L 700.136472 885.6573 
L 695.015974 892.762201 
L 687.200917 900.769934 
L 687.200917 900.769934 
" clip-path="url(#p33e3d34276)" style="fill: none; stroke: #1f77b4; stroke-width: 1.5"/>
    <path d="M 843.125148 183.070016 
L 820.129579 189.103048 
L 799.711217 195.39941 
L 781.568934 201.911824 
L 765.4342 208.598971 
L 751.068509 215.424992 
L 738.26094 222.35902 
L 726.825825 229.374735 
L 716.600547 236.449942 
L 707.443451 243.566168 
L 699.231867 250.70829 
L 691.860244 257.864176 
L 685.238395 265.02435 
L 679.28984 272.181679 
L 673.95026 279.331079 
L 669.166042 286.469239 
L 664.89293 293.594367 
L 661.094758 300.705949 
L 657.742284 307.804535 
L 654.812111 314.89153 
L 652.285686 321.969013 
L 650.148392 329.039565 
L 648.388711 336.106119 
L 646.99747 343.171813 
L 645.96716 350.239875 
L 645.291325 357.313506 
L 644.964019 364.395786 
L 644.979334 371.489589 
L 645.330985 378.597512 
L 646.01196 385.721816 
L 647.014224 392.864373 
L 648.328481 400.026635 
L 649.943987 407.209599 
L 651.84841 414.413795 
L 654.02774 421.639273 
L 656.46624 428.885603 
L 659.146439 436.151885 
L 662.049163 443.436761 
L 665.153603 450.738437 
L 668.43741 458.054715 
L 671.876827 465.383021 
L 675.446841 472.720448 
L 679.121366 480.063799 
L 682.873443 487.409635 
L 686.675457 494.754327 
L 690.499373 502.094112 
L 694.316989 509.425145 
L 698.100187 516.743566 
L 701.821204 524.045554 
L 705.4529 531.327394 
L 708.969032 538.585534 
L 712.344525 545.816651 
L 715.555736 553.017709 
L 718.580722 560.186019 
L 721.399486 567.319299 
L 723.994217 574.41573 
L 726.34952 581.474003 
L 728.452617 588.493375 
L 730.293536 595.473708 
L 731.865274 602.415517 
L 733.163935 609.319996 
L 734.18884 616.189057 
L 734.9426 623.025347 
L 735.431159 629.832267 
L 735.663804 636.613982 
L 735.653125 643.375425 
L 735.414939 650.122283 
L 734.968169 656.86099 
L 734.334668 663.598696 
L 733.539002 670.343236 
L 732.60817 677.103079 
L 731.571271 683.887278 
L 730.459112 690.705397 
L 729.303754 697.56743 
L 728.137988 704.483712 
L 726.994754 711.464807 
L 725.906474 718.521392 
L 724.904326 725.664119 
L 724.017434 732.903467 
L 723.27198 740.249577 
L 722.690236 747.712067 
L 722.289509 755.299841 
L 722.080999 763.020868 
L 722.068573 770.881952 
L 722.247434 778.88848 
L 722.602706 787.044155 
L 723.10791 795.350704 
L 723.723351 803.807572 
L 724.39439 812.411591 
L 725.049613 821.15663 
L 725.598891 830.033226 
L 725.931328 839.028188 
L 725.91309 848.124182 
L 725.385123 857.299292 
L 724.16074 866.526557 
L 722.023097 875.773484 
L 718.722528 885.001537 
L 713.973765 894.165597 
L 707.453016 903.213405 
L 698.794915 912.084967 
" clip-path="url(#p33e3d34276)" style="fill: none; stroke: #8c564b; stroke-width: 1.5"/>
    <path d="M 847.236275 198.740032 
L 824.574072 204.685604 
L 804.837477 210.77173 
L 787.410374 217.027421 
L 772.01617 223.40765 
L 758.406494 229.874442 
L 746.359323 236.39679 
L 735.677475 242.950358 
L 726.187321 249.516908 
L 717.737564 256.083443 
L 710.19791 262.641146 
L 703.457535 269.184257 
L 697.423313 275.709033 
L 692.017847 282.212914 
L 687.177431 288.693961 
L 682.850014 295.150566 
L 678.993288 301.581396 
L 675.572961 307.985514 
L 672.561234 314.362596 
L 669.935524 320.713207 
L 667.677403 327.03907 
L 665.771759 333.343282 
L 664.206153 339.630466 
L 662.970339 345.906793 
L 662.055913 352.179879 
L 661.456031 358.458548 
L 661.165159 364.752455 
L 661.178802 371.071617 
L 661.493168 377.425906 
L 662.10478 383.824543 
L 663.01002 390.275667 
L 664.204653 396.786011 
L 665.683355 403.360713 
L 667.439305 410.003251 
L 669.463835 416.715496 
L 671.746199 423.497848 
L 674.273431 430.349422 
L 677.030306 437.268264 
L 679.999383 444.251566 
L 683.161121 451.295875 
L 686.494044 458.397277 
L 693.579146 472.754362 
L 701.052684 487.287966 
L 716.31856 516.81524 
L 723.648745 531.733031 
L 727.140373 539.218648 
L 730.481504 546.71912 
L 733.647384 554.232327 
L 736.614641 561.756045 
L 739.361539 569.287748 
L 741.868275 576.824379 
L 744.117341 584.362128 
L 746.093931 591.896242 
L 747.786426 599.420911 
L 749.186894 606.929275 
L 750.291588 614.413591 
L 751.101365 621.865568 
L 751.621968 629.276845 
L 751.864117 636.63957 
L 751.843372 643.946993 
L 751.579784 651.193999 
L 751.097364 658.377509 
L 750.42343 665.496717 
L 749.587894 672.553172 
L 747.560285 686.495376 
L 741.934338 720.881585 
L 740.967208 727.774723 
L 740.118007 734.706421 
L 739.408621 741.697091 
L 738.857328 748.76897 
L 738.478302 755.945809 
L 738.280986 763.252377 
L 738.269192 770.713824 
L 738.439891 778.354993 
L 738.781621 786.19983 
L 739.877904 802.589806 
L 741.219018 820.156077 
L 741.788171 829.434901 
L 742.131628 839.06067 
L 742.086667 849.054865 
L 741.444691 859.430265 
L 739.944803 870.175413 
L 737.277095 881.229335 
L 733.976526 890.457387 
L 733.106352 892.455151 
L 728.357589 901.619212 
L 727.116532 903.63758 
L 719.855681 913.635721 
L 719.047015 914.528438 
L 710.388913 923.4 
L 710.388913 923.4 
" clip-path="url(#p33e3d34276)" style="fill: none; stroke: #17becf; stroke-width: 1.5"/>
   </g>
   <g id="patch_3">
    <path d="M 617.840097 961.2 
L 617.840097 129.6 
" style="fill: none; stroke: #000000; stroke-width: 0.8; stroke-linejoin: miter; stroke-linecap: square"/>
   </g>
   <g id="patch_4">
    <path d="M 858.159903 961.2 
L 858.159903 129.6 
" style="fill: none; stroke: #000000; stroke-width: 0.8; stroke-linejoin: miter; stroke-linecap: square"/>
   </g>
   <g id="patch_5">
    <path d="M 617.840097 961.2 
L 858.159903 961.2 
" style="fill: none; stroke: #000000; stroke-width: 0.8; stroke-linejoin: miter; stroke-linecap: square"/>
   </g>
   <g id="patch_6">
    <path d="M 617.840097 129.6 
L 858.159903 129.6 
" style="fill: none; stroke: #000000; stroke-width: 0.8; stroke-linejoin: miter; stroke-linecap: square"/>
   </g>
  </g>
 </g>
 <defs>
  <clipPath id="p33e3d34276">
   <rect x="617.840097" y="129.6" width="240.319806" height="831.6"/>
  </clipPath>
 </defs>
</svg>
