<?xml version="1.0" encoding="utf-8" standalone="no"?>
<!DOCTYPE svg PUBLIC "-//W3C//DTD SVG 1.1//EN"
  "http://www.w3.org/Graphics/SVG/1.1/DTD/svg11.dtd">
<svg xmlns:xlink="http://www.w3.org/1999/xlink" width="1440pt" height="1080pt" viewBox="0 0 1440 1080" xmlns="http://www.w3.org/2000/svg" version="1.1">
 <metadata>
  <rdf:RDF xmlns:dc="http://purl.org/dc/elements/1.1/" xmlns:cc="http://creativecommons.org/ns#" xmlns:rdf="http://www.w3.org/1999/02/22-rdf-syntax-ns#">
   <cc:Work>
    <dc:type rdf:resource="http://purl.org/dc/dcmitype/StillImage"/>
    <dc:date>2023-12-11T12:06:53.185629</dc:date>
    <dc:format>image/svg+xml</dc:format>
    <dc:creator>
     <cc:Agent>
      <dc:title>Matplotlib v3.7.1, https://matplotlib.org/</dc:title>
     </cc:Agent>
    </dc:creator>
   </cc:Work>
  </rdf:RDF>
 </metadata>
 <defs>
  <style type="text/css">*{stroke-linejoin: round; stroke-linecap: butt}</style>
 </defs>
 <g id="figure_1">
  <g id="patch_1">
   <path d="M 0 1080 
L 1440 1080 
L 1440 0 
L 0 0 
z
" style="fill: #ffffff"/>
  </g>
  <g id="axes_1">
   <g id="patch_2">
    <path d="M 180 862.36651 
L 1296 862.36651 
L 1296 228.43349 
L 180 228.43349 
z
" style="fill: #ffffff"/>
   </g>
   <g id="matplotlib.axis_1">
    <g id="xtick_1">
     <g id="line2d_1">
      <defs>
       <path id="m9590715652" d="M 0 0 
L 0 3.5 
" style="stroke: #000000; stroke-width: 0.8"/>
      </defs>
      <g>
       <use xlink:href="#m9590715652" x="226.488806" y="862.36651" style="stroke: #000000; stroke-width: 0.8"/>
      </g>
     </g>
     <g id="text_1">
      <!-- 600 -->
      <g transform="translate(216.945056 876.964947) scale(0.1 -0.1)">
       <defs>
        <path id="DejaVuSans-36" d="M 2113 2584 
Q 1688 2584 1439 2293 
Q 1191 2003 1191 1497 
Q 1191 994 1439 701 
Q 1688 409 2113 409 
Q 2538 409 2786 701 
Q 3034 994 3034 1497 
Q 3034 2003 2786 2293 
Q 2538 2584 2113 2584 
z
M 3366 4563 
L 3366 3988 
Q 3128 4100 2886 4159 
Q 2644 4219 2406 4219 
Q 1781 4219 1451 3797 
Q 1122 3375 1075 2522 
Q 1259 2794 1537 2939 
Q 1816 3084 2150 3084 
Q 2853 3084 3261 2657 
Q 3669 2231 3669 1497 
Q 3669 778 3244 343 
Q 2819 -91 2113 -91 
Q 1303 -91 875 529 
Q 447 1150 447 2328 
Q 447 3434 972 4092 
Q 1497 4750 2381 4750 
Q 2619 4750 2861 4703 
Q 3103 4656 3366 4563 
z
" transform="scale(0.015625)"/>
        <path id="DejaVuSans-30" d="M 2034 4250 
Q 1547 4250 1301 3770 
Q 1056 3291 1056 2328 
Q 1056 1369 1301 889 
Q 1547 409 2034 409 
Q 2525 409 2770 889 
Q 3016 1369 3016 2328 
Q 3016 3291 2770 3770 
Q 2525 4250 2034 4250 
z
M 2034 4750 
Q 2819 4750 3233 4129 
Q 3647 3509 3647 2328 
Q 3647 1150 3233 529 
Q 2819 -91 2034 -91 
Q 1250 -91 836 529 
Q 422 1150 422 2328 
Q 422 3509 836 4129 
Q 1250 4750 2034 4750 
z
" transform="scale(0.015625)"/>
       </defs>
       <use xlink:href="#DejaVuSans-36"/>
       <use xlink:href="#DejaVuSans-30" x="63.623047"/>
       <use xlink:href="#DejaVuSans-30" x="127.246094"/>
      </g>
     </g>
    </g>
    <g id="xtick_2">
     <g id="line2d_2">
      <g>
       <use xlink:href="#m9590715652" x="401.489326" y="862.36651" style="stroke: #000000; stroke-width: 0.8"/>
      </g>
     </g>
     <g id="text_2">
      <!-- 700 -->
      <g transform="translate(391.945576 876.964947) scale(0.1 -0.1)">
       <defs>
        <path id="DejaVuSans-37" d="M 525 4666 
L 3525 4666 
L 3525 4397 
L 1831 0 
L 1172 0 
L 2766 4134 
L 525 4134 
L 525 4666 
z
" transform="scale(0.015625)"/>
       </defs>
       <use xlink:href="#DejaVuSans-37"/>
       <use xlink:href="#DejaVuSans-30" x="63.623047"/>
       <use xlink:href="#DejaVuSans-30" x="127.246094"/>
      </g>
     </g>
    </g>
    <g id="xtick_3">
     <g id="line2d_3">
      <g>
       <use xlink:href="#m9590715652" x="576.489847" y="862.36651" style="stroke: #000000; stroke-width: 0.8"/>
      </g>
     </g>
     <g id="text_3">
      <!-- 800 -->
      <g transform="translate(566.946097 876.964947) scale(0.1 -0.1)">
       <defs>
        <path id="DejaVuSans-38" d="M 2034 2216 
Q 1584 2216 1326 1975 
Q 1069 1734 1069 1313 
Q 1069 891 1326 650 
Q 1584 409 2034 409 
Q 2484 409 2743 651 
Q 3003 894 3003 1313 
Q 3003 1734 2745 1975 
Q 2488 2216 2034 2216 
z
M 1403 2484 
Q 997 2584 770 2862 
Q 544 3141 544 3541 
Q 544 4100 942 4425 
Q 1341 4750 2034 4750 
Q 2731 4750 3128 4425 
Q 3525 4100 3525 3541 
Q 3525 3141 3298 2862 
Q 3072 2584 2669 2484 
Q 3125 2378 3379 2068 
Q 3634 1759 3634 1313 
Q 3634 634 3220 271 
Q 2806 -91 2034 -91 
Q 1263 -91 848 271 
Q 434 634 434 1313 
Q 434 1759 690 2068 
Q 947 2378 1403 2484 
z
M 1172 3481 
Q 1172 3119 1398 2916 
Q 1625 2713 2034 2713 
Q 2441 2713 2670 2916 
Q 2900 3119 2900 3481 
Q 2900 3844 2670 4047 
Q 2441 4250 2034 4250 
Q 1625 4250 1398 4047 
Q 1172 3844 1172 3481 
z
" transform="scale(0.015625)"/>
       </defs>
       <use xlink:href="#DejaVuSans-38"/>
       <use xlink:href="#DejaVuSans-30" x="63.623047"/>
       <use xlink:href="#DejaVuSans-30" x="127.246094"/>
      </g>
     </g>
    </g>
    <g id="xtick_4">
     <g id="line2d_4">
      <g>
       <use xlink:href="#m9590715652" x="751.490367" y="862.36651" style="stroke: #000000; stroke-width: 0.8"/>
      </g>
     </g>
     <g id="text_4">
      <!-- 900 -->
      <g transform="translate(741.946617 876.964947) scale(0.1 -0.1)">
       <defs>
        <path id="DejaVuSans-39" d="M 703 97 
L 703 672 
Q 941 559 1184 500 
Q 1428 441 1663 441 
Q 2288 441 2617 861 
Q 2947 1281 2994 2138 
Q 2813 1869 2534 1725 
Q 2256 1581 1919 1581 
Q 1219 1581 811 2004 
Q 403 2428 403 3163 
Q 403 3881 828 4315 
Q 1253 4750 1959 4750 
Q 2769 4750 3195 4129 
Q 3622 3509 3622 2328 
Q 3622 1225 3098 567 
Q 2575 -91 1691 -91 
Q 1453 -91 1209 -44 
Q 966 3 703 97 
z
M 1959 2075 
Q 2384 2075 2632 2365 
Q 2881 2656 2881 3163 
Q 2881 3666 2632 3958 
Q 2384 4250 1959 4250 
Q 1534 4250 1286 3958 
Q 1038 3666 1038 3163 
Q 1038 2656 1286 2365 
Q 1534 2075 1959 2075 
z
" transform="scale(0.015625)"/>
       </defs>
       <use xlink:href="#DejaVuSans-39"/>
       <use xlink:href="#DejaVuSans-30" x="63.623047"/>
       <use xlink:href="#DejaVuSans-30" x="127.246094"/>
      </g>
     </g>
    </g>
    <g id="xtick_5">
     <g id="line2d_5">
      <g>
       <use xlink:href="#m9590715652" x="926.490887" y="862.36651" style="stroke: #000000; stroke-width: 0.8"/>
      </g>
     </g>
     <g id="text_5">
      <!-- 1000 -->
      <g transform="translate(913.765887 876.964947) scale(0.1 -0.1)">
       <defs>
        <path id="DejaVuSans-31" d="M 794 531 
L 1825 531 
L 1825 4091 
L 703 3866 
L 703 4441 
L 1819 4666 
L 2450 4666 
L 2450 531 
L 3481 531 
L 3481 0 
L 794 0 
L 794 531 
z
" transform="scale(0.015625)"/>
       </defs>
       <use xlink:href="#DejaVuSans-31"/>
       <use xlink:href="#DejaVuSans-30" x="63.623047"/>
       <use xlink:href="#DejaVuSans-30" x="127.246094"/>
       <use xlink:href="#DejaVuSans-30" x="190.869141"/>
      </g>
     </g>
    </g>
    <g id="xtick_6">
     <g id="line2d_6">
      <g>
       <use xlink:href="#m9590715652" x="1101.491408" y="862.36651" style="stroke: #000000; stroke-width: 0.8"/>
      </g>
     </g>
     <g id="text_6">
      <!-- 1100 -->
      <g transform="translate(1088.766408 876.964947) scale(0.1 -0.1)">
       <use xlink:href="#DejaVuSans-31"/>
       <use xlink:href="#DejaVuSans-31" x="63.623047"/>
       <use xlink:href="#DejaVuSans-30" x="127.246094"/>
       <use xlink:href="#DejaVuSans-30" x="190.869141"/>
      </g>
     </g>
    </g>
    <g id="xtick_7">
     <g id="line2d_7">
      <g>
       <use xlink:href="#m9590715652" x="1276.491928" y="862.36651" style="stroke: #000000; stroke-width: 0.8"/>
      </g>
     </g>
     <g id="text_7">
      <!-- 1200 -->
      <g transform="translate(1263.766928 876.964947) scale(0.1 -0.1)">
       <defs>
        <path id="DejaVuSans-32" d="M 1228 531 
L 3431 531 
L 3431 0 
L 469 0 
L 469 531 
Q 828 903 1448 1529 
Q 2069 2156 2228 2338 
Q 2531 2678 2651 2914 
Q 2772 3150 2772 3378 
Q 2772 3750 2511 3984 
Q 2250 4219 1831 4219 
Q 1534 4219 1204 4116 
Q 875 4013 500 3803 
L 500 4441 
Q 881 4594 1212 4672 
Q 1544 4750 1819 4750 
Q 2544 4750 2975 4387 
Q 3406 4025 3406 3419 
Q 3406 3131 3298 2873 
Q 3191 2616 2906 2266 
Q 2828 2175 2409 1742 
Q 1991 1309 1228 531 
z
" transform="scale(0.015625)"/>
       </defs>
       <use xlink:href="#DejaVuSans-31"/>
       <use xlink:href="#DejaVuSans-32" x="63.623047"/>
       <use xlink:href="#DejaVuSans-30" x="127.246094"/>
       <use xlink:href="#DejaVuSans-30" x="190.869141"/>
      </g>
     </g>
    </g>
   </g>
   <g id="matplotlib.axis_2">
    <g id="ytick_1">
     <g id="line2d_8">
      <defs>
       <path id="m82760504e0" d="M 0 0 
L -3.5 0 
" style="stroke: #000000; stroke-width: 0.8"/>
      </defs>
      <g>
       <use xlink:href="#m82760504e0" x="180" y="829.896258" style="stroke: #000000; stroke-width: 0.8"/>
      </g>
     </g>
     <g id="text_8">
      <!-- 750 -->
      <g transform="translate(153.9125 833.695476) scale(0.1 -0.1)">
       <defs>
        <path id="DejaVuSans-35" d="M 691 4666 
L 3169 4666 
L 3169 4134 
L 1269 4134 
L 1269 2991 
Q 1406 3038 1543 3061 
Q 1681 3084 1819 3084 
Q 2600 3084 3056 2656 
Q 3513 2228 3513 1497 
Q 3513 744 3044 326 
Q 2575 -91 1722 -91 
Q 1428 -91 1123 -41 
Q 819 9 494 109 
L 494 744 
Q 775 591 1075 516 
Q 1375 441 1709 441 
Q 2250 441 2565 725 
Q 2881 1009 2881 1497 
Q 2881 1984 2565 2268 
Q 2250 2553 1709 2553 
Q 1456 2553 1204 2497 
Q 953 2441 691 2322 
L 691 4666 
z
" transform="scale(0.015625)"/>
       </defs>
       <use xlink:href="#DejaVuSans-37"/>
       <use xlink:href="#DejaVuSans-35" x="63.623047"/>
       <use xlink:href="#DejaVuSans-30" x="127.246094"/>
      </g>
     </g>
    </g>
    <g id="ytick_2">
     <g id="line2d_9">
      <g>
       <use xlink:href="#m82760504e0" x="180" y="742.395997" style="stroke: #000000; stroke-width: 0.8"/>
      </g>
     </g>
     <g id="text_9">
      <!-- 800 -->
      <g transform="translate(153.9125 746.195216) scale(0.1 -0.1)">
       <use xlink:href="#DejaVuSans-38"/>
       <use xlink:href="#DejaVuSans-30" x="63.623047"/>
       <use xlink:href="#DejaVuSans-30" x="127.246094"/>
      </g>
     </g>
    </g>
    <g id="ytick_3">
     <g id="line2d_10">
      <g>
       <use xlink:href="#m82760504e0" x="180" y="654.895737" style="stroke: #000000; stroke-width: 0.8"/>
      </g>
     </g>
     <g id="text_10">
      <!-- 850 -->
      <g transform="translate(153.9125 658.694956) scale(0.1 -0.1)">
       <use xlink:href="#DejaVuSans-38"/>
       <use xlink:href="#DejaVuSans-35" x="63.623047"/>
       <use xlink:href="#DejaVuSans-30" x="127.246094"/>
      </g>
     </g>
    </g>
    <g id="ytick_4">
     <g id="line2d_11">
      <g>
       <use xlink:href="#m82760504e0" x="180" y="567.395477" style="stroke: #000000; stroke-width: 0.8"/>
      </g>
     </g>
     <g id="text_11">
      <!-- 900 -->
      <g transform="translate(153.9125 571.194696) scale(0.1 -0.1)">
       <use xlink:href="#DejaVuSans-39"/>
       <use xlink:href="#DejaVuSans-30" x="63.623047"/>
       <use xlink:href="#DejaVuSans-30" x="127.246094"/>
      </g>
     </g>
    </g>
    <g id="ytick_5">
     <g id="line2d_12">
      <g>
       <use xlink:href="#m82760504e0" x="180" y="479.895217" style="stroke: #000000; stroke-width: 0.8"/>
      </g>
     </g>
     <g id="text_12">
      <!-- 950 -->
      <g transform="translate(153.9125 483.694435) scale(0.1 -0.1)">
       <use xlink:href="#DejaVuSans-39"/>
       <use xlink:href="#DejaVuSans-35" x="63.623047"/>
       <use xlink:href="#DejaVuSans-30" x="127.246094"/>
      </g>
     </g>
    </g>
    <g id="ytick_6">
     <g id="line2d_13">
      <g>
       <use xlink:href="#m82760504e0" x="180" y="392.394956" style="stroke: #000000; stroke-width: 0.8"/>
      </g>
     </g>
     <g id="text_13">
      <!-- 1000 -->
      <g transform="translate(147.55 396.194175) scale(0.1 -0.1)">
       <use xlink:href="#DejaVuSans-31"/>
       <use xlink:href="#DejaVuSans-30" x="63.623047"/>
       <use xlink:href="#DejaVuSans-30" x="127.246094"/>
       <use xlink:href="#DejaVuSans-30" x="190.869141"/>
      </g>
     </g>
    </g>
    <g id="ytick_7">
     <g id="line2d_14">
      <g>
       <use xlink:href="#m82760504e0" x="180" y="304.894696" style="stroke: #000000; stroke-width: 0.8"/>
      </g>
     </g>
     <g id="text_14">
      <!-- 1050 -->
      <g transform="translate(147.55 308.693915) scale(0.1 -0.1)">
       <use xlink:href="#DejaVuSans-31"/>
       <use xlink:href="#DejaVuSans-30" x="63.623047"/>
       <use xlink:href="#DejaVuSans-35" x="127.246094"/>
       <use xlink:href="#DejaVuSans-30" x="190.869141"/>
      </g>
     </g>
    </g>
   </g>
   <g id="LineCollection_1">
    <path d="M 336.389881 822.741132 
L 330.276428 775.631975 
L 325.181571 731.792307 
L 321.09241 691.006747 
L 318.014464 653.275442 
L 315.941745 618.583523 
L 314.856758 586.904022 
L 314.729951 558.200692 
L 315.518418 532.430571 
L 317.163618 509.545957 
L 319.587849 489.495066 
L 322.689507 472.220119 
L 326.33786 457.650755 
L 330.369834 445.690013 
L 334.59452 436.190857 
L 338.814738 428.925996 
L 342.874088 423.56511 
L 346.723482 419.686418 
L 350.472535 416.844087 
L 354.377137 414.672415 
L 358.752201 412.963154 
L 363.862714 411.666065 
L 369.859335 410.827472 
L 376.776448 410.51947 
L 384.566216 410.795124 
L 393.137423 411.672908 
L 402.383958 413.138673 
L 412.201146 415.154057 
L 422.493313 417.665316 
L 433.176288 420.61039 
L 444.1774 423.923922 
L 455.434452 427.540588 
L 466.894371 431.397208 
L 490.248442 439.595382 
L 537.919116 456.576107 
L 561.820676 464.69974 
L 573.727365 468.561251 
L 585.590623 472.258989 
L 597.402166 475.774346 
L 609.155275 479.091593 
L 620.84464 482.197568 
L 632.46624 485.081342 
L 644.017239 487.73389 
L 655.495903 490.147744 
L 666.901527 492.316643 
L 678.234368 494.235181 
L 689.495571 495.898442 
L 700.687089 497.301642 
L 711.811581 498.439773 
L 722.872291 499.307258 
L 733.872885 499.897617 
L 744.817257 500.203169 
L 755.709285 500.214763 
L 766.552538 499.921567 
L 777.349923 499.31093 
L 788.103278 498.368333 
L 798.812911 497.077469 
L 809.477107 495.420479 
L 820.091621 493.378371 
L 830.649221 490.931666 
L 841.139327 488.061262 
L 851.547857 484.749535 
L 861.857335 480.981597 
L 872.047378 476.746664 
L 882.095562 472.039386 
L 891.978667 466.861013 
L 901.674199 461.220294 
L 911.162003 455.134018 
L 920.425778 448.62724 
L 929.454275 441.733296 
L 938.242016 434.493775 
L 946.789455 426.958662 
L 955.102552 419.186824 
L 963.191768 411.246954 
L 971.070498 403.219002 
L 1001.080232 371.953387 
L 1008.231955 365.015817 
L 1015.191034 358.769442 
L 1021.901386 353.380952 
L 1028.287461 348.986522 
L 1034.286208 345.652224 
L 1039.925421 343.34093 
L 1045.445268 341.93658 
L 1051.388931 341.379114 
L 1058.537845 341.865188 
L 1067.679544 343.944263 
L 1079.390853 348.414166 
L 1093.997011 356.135104 
L 1111.668209 367.918085 
L 1132.533188 384.51367 
L 1156.749681 406.64826 
L 1185.210765 435.7574 
L 1185.210765 435.7574 
" clip-path="url(#p13b43aa38c)" style="fill: none; stroke: #1f77b4; stroke-width: 1.5"/>
    <path d="M 294.739009 828.146252 
L 288.589465 780.758985 
L 283.424001 736.311772 
L 279.262979 694.809454 
L 276.116305 656.235653 
L 273.984519 620.555094 
L 272.85981 587.715784 
L 272.726988 557.651076 
L 273.56439 530.281608 
L 275.344735 505.517119 
L 278.03593 483.258162 
L 281.601811 463.397689 
L 286.002851 445.822538 
L 291.196805 430.414812 
L 297.139314 417.05315 
L 303.784465 405.613908 
L 311.085298 395.972234 
L 318.994282 388.003054 
L 327.463735 381.581969 
L 336.446221 376.586066 
L 345.894888 372.894637 
L 355.763791 370.38983 
L 366.00816 368.957214 
L 376.584645 368.486269 
L 387.451524 368.870812 
L 398.56888 370.00935 
L 409.898751 371.805365 
L 421.405247 374.16755 
L 433.054641 377.009968 
L 444.815439 380.252176 
L 456.658419 383.819278 
L 468.556652 387.641943 
L 480.485504 391.656374 
L 492.422608 395.804224 
L 504.347832 400.032493 
L 516.243218 404.293365 
L 528.092913 408.544032 
L 539.883083 412.746479 
L 551.601815 416.867238 
L 563.23901 420.877129 
L 574.786263 424.750972 
L 586.236738 428.467285 
L 597.585036 432.00797 
L 608.827055 435.357983 
L 619.95985 438.504999 
L 630.981491 441.439075 
L 641.890915 444.152306 
L 652.687787 446.638488 
L 663.372353 448.89278 
L 673.945309 450.911382 
L 684.407661 452.691217 
L 694.760605 454.229629 
L 705.005408 455.524104 
L 715.143294 456.572003 
L 725.175355 457.370325 
L 735.102459 457.915495 
L 744.925182 458.203183 
L 754.643751 458.228156 
L 764.258006 457.984166 
L 773.767376 457.463877 
L 783.170883 456.658838 
L 792.467157 455.559499 
L 801.654481 454.155275 
L 810.730857 452.434671 
L 819.6941 450.385447 
L 828.541954 447.994859 
L 837.272242 445.249948 
L 845.883044 442.137903 
L 854.372905 438.646487 
L 862.741077 434.764536 
L 870.987794 430.482534 
L 879.114588 425.793265 
L 887.124634 420.69254 
L 895.023138 415.180022 
L 902.81777 409.260121 
L 910.519127 402.942992 
L 918.141251 396.245622 
L 925.702182 389.193012 
L 933.224565 381.819463 
L 940.736298 374.169962 
L 948.271233 366.301673 
L 955.869926 358.285543 
L 963.580438 350.208012 
L 971.459189 342.172848 
L 979.571871 334.303092 
L 987.994413 326.743134 
L 996.814 319.660904 
L 1006.130164 313.2502 
L 1016.05592 307.733145 
L 1026.718977 303.362772 
L 1038.263002 300.425762 
L 1050.848959 299.245304 
L 1064.656505 300.184116 
L 1079.885459 303.647601 
L 1096.757343 310.087162 
L 1115.516987 320.003666 
L 1136.434209 333.951064 
L 1159.805572 352.540177 
L 1185.956212 376.442636 
L 1215.241746 406.394998 
" clip-path="url(#p13b43aa38c)" style="fill: none; stroke: #8c564b; stroke-width: 1.5"/>
    <path d="M 253.088136 833.551372 
L 246.870128 785.607427 
L 241.633392 740.501699 
L 237.401906 698.224288 
L 234.190943 658.740545 
L 232.009005 621.992708 
L 230.860095 587.901334 
L 230.746508 556.366633 
L 231.672381 527.269946 
L 233.648259 500.475853 
L 236.696844 475.835868 
L 240.859664 453.19534 
L 245.260703 435.62019 
L 246.203243 432.406067 
L 251.397197 416.99834 
L 252.820863 413.347369 
L 258.763373 399.985707 
L 260.822221 395.956249 
L 267.467372 384.517007 
L 270.300704 380.259457 
L 277.601537 370.617782 
L 281.274347 366.386466 
L 289.183331 358.417286 
L 293.620054 354.534277 
L 302.089508 348.113192 
L 307.049081 344.877033 
L 316.031566 339.881129 
L 321.162503 337.465503 
L 330.61117 333.774074 
L 335.562525 332.185268 
L 345.431428 329.680461 
L 349.946917 328.794464 
L 360.191286 327.361848 
L 364.139849 326.998664 
L 374.716334 326.527719 
L 378.069962 326.512416 
L 391.73041 327.089218 
L 405.144649 328.527188 
L 418.344873 330.663252 
L 431.361083 333.364464 
L 444.216812 336.520261 
L 456.928342 340.036655 
L 469.505462 343.83223 
L 481.952768 347.835479 
L 494.271001 351.983076 
L 518.510905 360.492413 
L 565.409594 377.201469 
L 587.948585 384.866056 
L 598.974633 388.444619 
L 609.837433 391.833828 
L 620.53729 395.022281 
L 631.075234 398.001145 
L 641.45291 400.763791 
L 651.672422 403.305437 
L 661.736164 405.622802 
L 671.646622 407.713768 
L 681.406182 409.577076 
L 691.016926 411.212037 
L 700.48045 412.618285 
L 709.797701 413.795559 
L 718.968842 414.743531 
L 727.993167 415.46166 
L 736.869067 415.9491 
L 745.59405 416.204638 
L 754.164853 416.226662 
L 762.577612 416.013163 
L 770.828142 415.56175 
L 778.912301 414.869661 
L 786.826456 413.933765 
L 794.568036 412.750514 
L 802.136155 411.31583 
L 809.532269 409.624891 
L 816.760819 407.67182 
L 823.82977 405.449254 
L 830.750981 402.947848 
L 837.540309 400.155768 
L 844.2174 397.0583 
L 850.805158 393.637692 
L 857.328953 389.873374 
L 863.815721 385.742659 
L 870.293136 381.221946 
L 876.789082 376.288377 
L 883.331605 370.921795 
L 889.94948 365.106834 
L 896.673439 358.834925 
L 903.538077 352.106108 
L 910.584409 344.930544 
L 942.215401 312.026349 
L 951.516974 303.047161 
L 961.697051 293.99471 
L 970.516639 286.91248 
L 973.00499 285.061171 
L 982.321153 278.650467 
L 985.725337 276.539799 
L 995.651094 271.022743 
L 1000.127655 268.870555 
L 1010.790712 264.500182 
L 1016.36328 262.659332 
L 1027.907305 259.722322 
L 1031.102466 259.040532 
L 1034.340954 258.609162 
L 1046.926911 257.428704 
L 1050.310744 257.248628 
L 1053.698081 257.341927 
L 1067.505627 258.280739 
L 1070.756624 258.629344 
L 1073.970652 259.229786 
L 1089.199606 262.693271 
L 1094.862035 264.408429 
L 1111.733919 270.84799 
L 1116.38538 272.95563 
L 1135.145024 282.872134 
L 1138.817452 285.059442 
L 1159.734674 299.00684 
L 1162.578773 301.080527 
L 1188.141637 321.53892 
L 1215.987194 347.080233 
L 1245.272727 377.032596 
L 1245.272727 377.032596 
" clip-path="url(#p13b43aa38c)" style="fill: none; stroke: #17becf; stroke-width: 1.5"/>
   </g>
   <g id="patch_3">
    <path d="M 180 862.36651 
L 180 228.43349 
" style="fill: none; stroke: #000000; stroke-width: 0.8; stroke-linejoin: miter; stroke-linecap: square"/>
   </g>
   <g id="patch_4">
    <path d="M 1296 862.36651 
L 1296 228.43349 
" style="fill: none; stroke: #000000; stroke-width: 0.8; stroke-linejoin: miter; stroke-linecap: square"/>
   </g>
   <g id="patch_5">
    <path d="M 180 862.36651 
L 1296 862.36651 
" style="fill: none; stroke: #000000; stroke-width: 0.8; stroke-linejoin: miter; stroke-linecap: square"/>
   </g>
   <g id="patch_6">
    <path d="M 180 228.43349 
L 1296 228.43349 
" style="fill: none; stroke: #000000; stroke-width: 0.8; stroke-linejoin: miter; stroke-linecap: square"/>
   </g>
  </g>
 </g>
 <defs>
  <clipPath id="p13b43aa38c">
   <rect x="180" y="228.43349" width="1116" height="633.933019"/>
  </clipPath>
 </defs>
</svg>
