<?xml version="1.0" encoding="utf-8" standalone="no"?>
<!DOCTYPE svg PUBLIC "-//W3C//DTD SVG 1.1//EN"
  "http://www.w3.org/Graphics/SVG/1.1/DTD/svg11.dtd">
<svg xmlns:xlink="http://www.w3.org/1999/xlink" width="1440pt" height="1080pt" viewBox="0 0 1440 1080" xmlns="http://www.w3.org/2000/svg" version="1.1">
 <metadata>
  <rdf:RDF xmlns:dc="http://purl.org/dc/elements/1.1/" xmlns:cc="http://creativecommons.org/ns#" xmlns:rdf="http://www.w3.org/1999/02/22-rdf-syntax-ns#">
   <cc:Work>
    <dc:type rdf:resource="http://purl.org/dc/dcmitype/StillImage"/>
    <dc:date>2023-12-11T12:06:50.690580</dc:date>
    <dc:format>image/svg+xml</dc:format>
    <dc:creator>
     <cc:Agent>
      <dc:title>Matplotlib v3.7.1, https://matplotlib.org/</dc:title>
     </cc:Agent>
    </dc:creator>
   </cc:Work>
  </rdf:RDF>
 </metadata>
 <defs>
  <style type="text/css">*{stroke-linejoin: round; stroke-linecap: butt}</style>
 </defs>
 <g id="figure_1">
  <g id="patch_1">
   <path d="M 0 1080 
L 1440 1080 
L 1440 0 
L 0 0 
z
" style="fill: #ffffff"/>
  </g>
  <g id="axes_1">
   <g id="patch_2">
    <path d="M 592.223018 961.2 
L 883.776982 961.2 
L 883.776982 129.6 
L 592.223018 129.6 
z
" style="fill: #ffffff"/>
   </g>
   <g id="matplotlib.axis_1">
    <g id="xtick_1">
     <g id="line2d_1">
      <defs>
       <path id="mbe593fa3c1" d="M 0 0 
L 0 3.5 
" style="stroke: #000000; stroke-width: 0.8"/>
      </defs>
      <g>
       <use xlink:href="#mbe593fa3c1" x="640.832092" y="961.2" style="stroke: #000000; stroke-width: 0.8"/>
      </g>
     </g>
     <g id="text_1">
      <!-- 1450 -->
      <g transform="translate(628.107092 975.798437) scale(0.1 -0.1)">
       <defs>
        <path id="DejaVuSans-31" d="M 794 531 
L 1825 531 
L 1825 4091 
L 703 3866 
L 703 4441 
L 1819 4666 
L 2450 4666 
L 2450 531 
L 3481 531 
L 3481 0 
L 794 0 
L 794 531 
z
" transform="scale(0.015625)"/>
        <path id="DejaVuSans-34" d="M 2419 4116 
L 825 1625 
L 2419 1625 
L 2419 4116 
z
M 2253 4666 
L 3047 4666 
L 3047 1625 
L 3713 1625 
L 3713 1100 
L 3047 1100 
L 3047 0 
L 2419 0 
L 2419 1100 
L 313 1100 
L 313 1709 
L 2253 4666 
z
" transform="scale(0.015625)"/>
        <path id="DejaVuSans-35" d="M 691 4666 
L 3169 4666 
L 3169 4134 
L 1269 4134 
L 1269 2991 
Q 1406 3038 1543 3061 
Q 1681 3084 1819 3084 
Q 2600 3084 3056 2656 
Q 3513 2228 3513 1497 
Q 3513 744 3044 326 
Q 2575 -91 1722 -91 
Q 1428 -91 1123 -41 
Q 819 9 494 109 
L 494 744 
Q 775 591 1075 516 
Q 1375 441 1709 441 
Q 2250 441 2565 725 
Q 2881 1009 2881 1497 
Q 2881 1984 2565 2268 
Q 2250 2553 1709 2553 
Q 1456 2553 1204 2497 
Q 953 2441 691 2322 
L 691 4666 
z
" transform="scale(0.015625)"/>
        <path id="DejaVuSans-30" d="M 2034 4250 
Q 1547 4250 1301 3770 
Q 1056 3291 1056 2328 
Q 1056 1369 1301 889 
Q 1547 409 2034 409 
Q 2525 409 2770 889 
Q 3016 1369 3016 2328 
Q 3016 3291 2770 3770 
Q 2525 4250 2034 4250 
z
M 2034 4750 
Q 2819 4750 3233 4129 
Q 3647 3509 3647 2328 
Q 3647 1150 3233 529 
Q 2819 -91 2034 -91 
Q 1250 -91 836 529 
Q 422 1150 422 2328 
Q 422 3509 836 4129 
Q 1250 4750 2034 4750 
z
" transform="scale(0.015625)"/>
       </defs>
       <use xlink:href="#DejaVuSans-31"/>
       <use xlink:href="#DejaVuSans-34" x="63.623047"/>
       <use xlink:href="#DejaVuSans-35" x="127.246094"/>
       <use xlink:href="#DejaVuSans-30" x="190.869141"/>
      </g>
     </g>
    </g>
    <g id="xtick_2">
     <g id="line2d_2">
      <g>
       <use xlink:href="#mbe593fa3c1" x="691.846179" y="961.2" style="stroke: #000000; stroke-width: 0.8"/>
      </g>
     </g>
     <g id="text_2">
      <!-- 1500 -->
      <g transform="translate(679.121179 975.798437) scale(0.1 -0.1)">
       <use xlink:href="#DejaVuSans-31"/>
       <use xlink:href="#DejaVuSans-35" x="63.623047"/>
       <use xlink:href="#DejaVuSans-30" x="127.246094"/>
       <use xlink:href="#DejaVuSans-30" x="190.869141"/>
      </g>
     </g>
    </g>
    <g id="xtick_3">
     <g id="line2d_3">
      <g>
       <use xlink:href="#mbe593fa3c1" x="742.860267" y="961.2" style="stroke: #000000; stroke-width: 0.8"/>
      </g>
     </g>
     <g id="text_3">
      <!-- 1550 -->
      <g transform="translate(730.135267 975.798437) scale(0.1 -0.1)">
       <use xlink:href="#DejaVuSans-31"/>
       <use xlink:href="#DejaVuSans-35" x="63.623047"/>
       <use xlink:href="#DejaVuSans-35" x="127.246094"/>
       <use xlink:href="#DejaVuSans-30" x="190.869141"/>
      </g>
     </g>
    </g>
    <g id="xtick_4">
     <g id="line2d_4">
      <g>
       <use xlink:href="#mbe593fa3c1" x="793.874354" y="961.2" style="stroke: #000000; stroke-width: 0.8"/>
      </g>
     </g>
     <g id="text_4">
      <!-- 1600 -->
      <g transform="translate(781.149354 975.798437) scale(0.1 -0.1)">
       <defs>
        <path id="DejaVuSans-36" d="M 2113 2584 
Q 1688 2584 1439 2293 
Q 1191 2003 1191 1497 
Q 1191 994 1439 701 
Q 1688 409 2113 409 
Q 2538 409 2786 701 
Q 3034 994 3034 1497 
Q 3034 2003 2786 2293 
Q 2538 2584 2113 2584 
z
M 3366 4563 
L 3366 3988 
Q 3128 4100 2886 4159 
Q 2644 4219 2406 4219 
Q 1781 4219 1451 3797 
Q 1122 3375 1075 2522 
Q 1259 2794 1537 2939 
Q 1816 3084 2150 3084 
Q 2853 3084 3261 2657 
Q 3669 2231 3669 1497 
Q 3669 778 3244 343 
Q 2819 -91 2113 -91 
Q 1303 -91 875 529 
Q 447 1150 447 2328 
Q 447 3434 972 4092 
Q 1497 4750 2381 4750 
Q 2619 4750 2861 4703 
Q 3103 4656 3366 4563 
z
" transform="scale(0.015625)"/>
       </defs>
       <use xlink:href="#DejaVuSans-31"/>
       <use xlink:href="#DejaVuSans-36" x="63.623047"/>
       <use xlink:href="#DejaVuSans-30" x="127.246094"/>
       <use xlink:href="#DejaVuSans-30" x="190.869141"/>
      </g>
     </g>
    </g>
    <g id="xtick_5">
     <g id="line2d_5">
      <g>
       <use xlink:href="#mbe593fa3c1" x="844.888441" y="961.2" style="stroke: #000000; stroke-width: 0.8"/>
      </g>
     </g>
     <g id="text_5">
      <!-- 1650 -->
      <g transform="translate(832.163441 975.798437) scale(0.1 -0.1)">
       <use xlink:href="#DejaVuSans-31"/>
       <use xlink:href="#DejaVuSans-36" x="63.623047"/>
       <use xlink:href="#DejaVuSans-35" x="127.246094"/>
       <use xlink:href="#DejaVuSans-30" x="190.869141"/>
      </g>
     </g>
    </g>
   </g>
   <g id="matplotlib.axis_2">
    <g id="ytick_1">
     <g id="line2d_6">
      <defs>
       <path id="mde8ea84b8b" d="M 0 0 
L -3.5 0 
" style="stroke: #000000; stroke-width: 0.8"/>
      </defs>
      <g>
       <use xlink:href="#mde8ea84b8b" x="592.223018" y="930.392094" style="stroke: #000000; stroke-width: 0.8"/>
      </g>
     </g>
     <g id="text_6">
      <!-- 200 -->
      <g transform="translate(566.135518 934.191313) scale(0.1 -0.1)">
       <defs>
        <path id="DejaVuSans-32" d="M 1228 531 
L 3431 531 
L 3431 0 
L 469 0 
L 469 531 
Q 828 903 1448 1529 
Q 2069 2156 2228 2338 
Q 2531 2678 2651 2914 
Q 2772 3150 2772 3378 
Q 2772 3750 2511 3984 
Q 2250 4219 1831 4219 
Q 1534 4219 1204 4116 
Q 875 4013 500 3803 
L 500 4441 
Q 881 4594 1212 4672 
Q 1544 4750 1819 4750 
Q 2544 4750 2975 4387 
Q 3406 4025 3406 3419 
Q 3406 3131 3298 2873 
Q 3191 2616 2906 2266 
Q 2828 2175 2409 1742 
Q 1991 1309 1228 531 
z
" transform="scale(0.015625)"/>
       </defs>
       <use xlink:href="#DejaVuSans-32"/>
       <use xlink:href="#DejaVuSans-30" x="63.623047"/>
       <use xlink:href="#DejaVuSans-30" x="127.246094"/>
      </g>
     </g>
    </g>
    <g id="ytick_2">
     <g id="line2d_7">
      <g>
       <use xlink:href="#mde8ea84b8b" x="592.223018" y="828.36392" style="stroke: #000000; stroke-width: 0.8"/>
      </g>
     </g>
     <g id="text_7">
      <!-- 300 -->
      <g transform="translate(566.135518 832.163139) scale(0.1 -0.1)">
       <defs>
        <path id="DejaVuSans-33" d="M 2597 2516 
Q 3050 2419 3304 2112 
Q 3559 1806 3559 1356 
Q 3559 666 3084 287 
Q 2609 -91 1734 -91 
Q 1441 -91 1130 -33 
Q 819 25 488 141 
L 488 750 
Q 750 597 1062 519 
Q 1375 441 1716 441 
Q 2309 441 2620 675 
Q 2931 909 2931 1356 
Q 2931 1769 2642 2001 
Q 2353 2234 1838 2234 
L 1294 2234 
L 1294 2753 
L 1863 2753 
Q 2328 2753 2575 2939 
Q 2822 3125 2822 3475 
Q 2822 3834 2567 4026 
Q 2313 4219 1838 4219 
Q 1578 4219 1281 4162 
Q 984 4106 628 3988 
L 628 4550 
Q 988 4650 1302 4700 
Q 1616 4750 1894 4750 
Q 2613 4750 3031 4423 
Q 3450 4097 3450 3541 
Q 3450 3153 3228 2886 
Q 3006 2619 2597 2516 
z
" transform="scale(0.015625)"/>
       </defs>
       <use xlink:href="#DejaVuSans-33"/>
       <use xlink:href="#DejaVuSans-30" x="63.623047"/>
       <use xlink:href="#DejaVuSans-30" x="127.246094"/>
      </g>
     </g>
    </g>
    <g id="ytick_3">
     <g id="line2d_8">
      <g>
       <use xlink:href="#mde8ea84b8b" x="592.223018" y="726.335745" style="stroke: #000000; stroke-width: 0.8"/>
      </g>
     </g>
     <g id="text_8">
      <!-- 400 -->
      <g transform="translate(566.135518 730.134964) scale(0.1 -0.1)">
       <use xlink:href="#DejaVuSans-34"/>
       <use xlink:href="#DejaVuSans-30" x="63.623047"/>
       <use xlink:href="#DejaVuSans-30" x="127.246094"/>
      </g>
     </g>
    </g>
    <g id="ytick_4">
     <g id="line2d_9">
      <g>
       <use xlink:href="#mde8ea84b8b" x="592.223018" y="624.307571" style="stroke: #000000; stroke-width: 0.8"/>
      </g>
     </g>
     <g id="text_9">
      <!-- 500 -->
      <g transform="translate(566.135518 628.10679) scale(0.1 -0.1)">
       <use xlink:href="#DejaVuSans-35"/>
       <use xlink:href="#DejaVuSans-30" x="63.623047"/>
       <use xlink:href="#DejaVuSans-30" x="127.246094"/>
      </g>
     </g>
    </g>
    <g id="ytick_5">
     <g id="line2d_10">
      <g>
       <use xlink:href="#mde8ea84b8b" x="592.223018" y="522.279397" style="stroke: #000000; stroke-width: 0.8"/>
      </g>
     </g>
     <g id="text_10">
      <!-- 600 -->
      <g transform="translate(566.135518 526.078615) scale(0.1 -0.1)">
       <use xlink:href="#DejaVuSans-36"/>
       <use xlink:href="#DejaVuSans-30" x="63.623047"/>
       <use xlink:href="#DejaVuSans-30" x="127.246094"/>
      </g>
     </g>
    </g>
    <g id="ytick_6">
     <g id="line2d_11">
      <g>
       <use xlink:href="#mde8ea84b8b" x="592.223018" y="420.251222" style="stroke: #000000; stroke-width: 0.8"/>
      </g>
     </g>
     <g id="text_11">
      <!-- 700 -->
      <g transform="translate(566.135518 424.050441) scale(0.1 -0.1)">
       <defs>
        <path id="DejaVuSans-37" d="M 525 4666 
L 3525 4666 
L 3525 4397 
L 1831 0 
L 1172 0 
L 2766 4134 
L 525 4134 
L 525 4666 
z
" transform="scale(0.015625)"/>
       </defs>
       <use xlink:href="#DejaVuSans-37"/>
       <use xlink:href="#DejaVuSans-30" x="63.623047"/>
       <use xlink:href="#DejaVuSans-30" x="127.246094"/>
      </g>
     </g>
    </g>
    <g id="ytick_7">
     <g id="line2d_12">
      <g>
       <use xlink:href="#mde8ea84b8b" x="592.223018" y="318.223048" style="stroke: #000000; stroke-width: 0.8"/>
      </g>
     </g>
     <g id="text_12">
      <!-- 800 -->
      <g transform="translate(566.135518 322.022267) scale(0.1 -0.1)">
       <defs>
        <path id="DejaVuSans-38" d="M 2034 2216 
Q 1584 2216 1326 1975 
Q 1069 1734 1069 1313 
Q 1069 891 1326 650 
Q 1584 409 2034 409 
Q 2484 409 2743 651 
Q 3003 894 3003 1313 
Q 3003 1734 2745 1975 
Q 2488 2216 2034 2216 
z
M 1403 2484 
Q 997 2584 770 2862 
Q 544 3141 544 3541 
Q 544 4100 942 4425 
Q 1341 4750 2034 4750 
Q 2731 4750 3128 4425 
Q 3525 4100 3525 3541 
Q 3525 3141 3298 2862 
Q 3072 2584 2669 2484 
Q 3125 2378 3379 2068 
Q 3634 1759 3634 1313 
Q 3634 634 3220 271 
Q 2806 -91 2034 -91 
Q 1263 -91 848 271 
Q 434 634 434 1313 
Q 434 1759 690 2068 
Q 947 2378 1403 2484 
z
M 1172 3481 
Q 1172 3119 1398 2916 
Q 1625 2713 2034 2713 
Q 2441 2713 2670 2916 
Q 2900 3119 2900 3481 
Q 2900 3844 2670 4047 
Q 2441 4250 2034 4250 
Q 1625 4250 1398 4047 
Q 1172 3844 1172 3481 
z
" transform="scale(0.015625)"/>
       </defs>
       <use xlink:href="#DejaVuSans-38"/>
       <use xlink:href="#DejaVuSans-30" x="63.623047"/>
       <use xlink:href="#DejaVuSans-30" x="127.246094"/>
      </g>
     </g>
    </g>
    <g id="ytick_8">
     <g id="line2d_13">
      <g>
       <use xlink:href="#mde8ea84b8b" x="592.223018" y="216.194873" style="stroke: #000000; stroke-width: 0.8"/>
      </g>
     </g>
     <g id="text_13">
      <!-- 900 -->
      <g transform="translate(566.135518 219.994092) scale(0.1 -0.1)">
       <defs>
        <path id="DejaVuSans-39" d="M 703 97 
L 703 672 
Q 941 559 1184 500 
Q 1428 441 1663 441 
Q 2288 441 2617 861 
Q 2947 1281 2994 2138 
Q 2813 1869 2534 1725 
Q 2256 1581 1919 1581 
Q 1219 1581 811 2004 
Q 403 2428 403 3163 
Q 403 3881 828 4315 
Q 1253 4750 1959 4750 
Q 2769 4750 3195 4129 
Q 3622 3509 3622 2328 
Q 3622 1225 3098 567 
Q 2575 -91 1691 -91 
Q 1453 -91 1209 -44 
Q 966 3 703 97 
z
M 1959 2075 
Q 2384 2075 2632 2365 
Q 2881 2656 2881 3163 
Q 2881 3666 2632 3958 
Q 2384 4250 1959 4250 
Q 1534 4250 1286 3958 
Q 1038 3666 1038 3163 
Q 1038 2656 1286 2365 
Q 1534 2075 1959 2075 
z
" transform="scale(0.015625)"/>
       </defs>
       <use xlink:href="#DejaVuSans-39"/>
       <use xlink:href="#DejaVuSans-30" x="63.623047"/>
       <use xlink:href="#DejaVuSans-30" x="127.246094"/>
      </g>
     </g>
    </g>
   </g>
   <g id="LineCollection_1">
    <path d="M 725.979643 910.856863 
L 719.216498 898.277528 
L 711.937778 885.975496 
L 704.346326 873.950668 
L 696.621079 862.209015 
L 674.086105 828.724633 
L 667.196828 818.187461 
L 660.78542 807.990199 
L 654.925169 798.144079 
L 649.674876 788.660142 
L 645.079131 779.548899 
L 641.168424 770.819681 
L 637.959189 762.479476 
L 635.454044 754.531083 
L 633.64267 746.970571 
L 632.503883 739.784366 
L 632.009343 732.946845 
L 632.12876 726.419702 
L 632.835498 720.154275 
L 634.110708 714.096949 
L 635.944305 708.196225 
L 638.33247 702.408984 
L 641.273 696.703926 
L 644.760596 691.061672 
L 648.783619 685.472435 
L 653.322821 679.932747 
L 658.351647 674.442395 
L 663.837423 669.002127 
L 669.742866 663.612225 
L 676.027509 658.271765 
L 682.648912 652.978351 
L 689.563608 647.728118 
L 696.727812 642.51588 
L 704.097947 637.335325 
L 719.284892 627.039578 
L 758.02843 601.235431 
L 765.606756 595.987633 
L 773.046561 590.687289 
L 780.316486 585.323062 
L 787.386469 579.883215 
L 794.227603 574.355582 
L 800.811951 568.727548 
L 807.112285 562.986085 
L 813.101766 557.11787 
L 818.753554 551.109534 
L 824.040399 544.948098 
L 828.934273 538.621646 
L 833.406157 532.120255 
L 837.426134 525.437148 
L 840.963968 518.569925 
L 843.990266 511.5216 
L 846.478201 504.301099 
L 848.405544 496.922875 
L 849.756554 489.405527 
L 850.523225 481.769588 
L 850.705546 474.035006 
L 850.310778 466.218917 
L 849.352045 458.334212 
L 847.84673 450.389063 
L 845.815086 442.387287 
L 843.279321 434.329257 
L 840.263208 426.21303 
L 836.792143 418.035451 
L 832.89353 409.793112 
L 828.597355 401.483106 
L 823.936869 393.103604 
L 818.949316 384.654282 
L 813.676656 376.136674 
L 808.166309 367.554471 
L 796.653858 350.223791 
L 784.896947 332.701437 
L 779.128789 323.917248 
L 773.56063 315.153692 
L 768.297563 306.442893 
L 763.454651 297.826132 
L 759.155789 289.356534 
L 755.530481 281.10204 
L 752.70685 273.147179 
L 750.799047 265.589223 
L 749.89027 258.519021 
L 750.025026 251.974045 
L 751.245464 245.870795 
L 753.696189 239.982014 
L 757.724732 234.040148 
L 763.844973 227.904365 
L 772.591193 221.618809 
L 784.423286 215.340157 
L 799.731639 209.249316 
L 818.880532 203.509391 
L 842.243369 198.259286 
L 870.524529 193.570025 
L 870.524529 193.570025 
" clip-path="url(#p7f2b5ed071)" style="fill: none; stroke: #1f77b4; stroke-width: 1.5"/>
    <path d="M 714.292378 917.128432 
L 707.798606 905.027084 
L 700.720978 893.054208 
L 693.26548 881.24036 
L 685.615518 869.611877 
L 677.933415 858.191179 
L 670.361844 846.99705 
L 663.025194 836.044912 
L 656.030878 825.347082 
L 649.470583 814.91302 
L 643.421458 804.74956 
L 637.947244 794.86114 
L 633.099352 785.250008 
L 628.917887 775.916422 
L 625.432614 766.858844 
L 622.663877 758.074118 
L 620.623468 749.557637 
L 619.315448 741.303503 
L 618.736914 733.304677 
L 618.878733 725.553122 
L 619.726218 718.039927 
L 621.259775 710.755438 
L 623.455493 703.689366 
L 626.285712 696.830895 
L 629.719534 690.16878 
L 633.723314 683.691439 
L 638.261103 677.387031 
L 643.29506 671.24354 
L 648.785839 665.248837 
L 654.692932 659.390749 
L 660.974989 653.657111 
L 667.590112 648.035821 
L 674.496117 642.514884 
L 681.650771 637.082454 
L 689.01201 631.726866 
L 696.538123 626.436672 
L 704.18793 621.200662 
L 711.920928 616.007892 
L 719.697422 610.847697 
L 727.478641 605.709711 
L 735.226837 600.583879 
L 742.90537 595.46046 
L 750.478777 590.330042 
L 757.91284 585.183542 
L 765.174628 580.012206 
L 772.232545 574.807614 
L 779.056366 569.561678 
L 785.617262 564.266639 
L 791.887833 558.915063 
L 797.842122 553.499842 
L 803.455645 548.014185 
L 808.705408 542.451618 
L 813.569933 536.80598 
L 818.029282 531.071421 
L 822.06509 525.242396 
L 825.6606 519.313672 
L 828.80071 513.280323 
L 831.472021 507.137734 
L 833.662904 500.881609 
L 835.363574 494.507972 
L 836.566174 488.013185 
L 837.264882 481.393955 
L 837.456026 474.64735 
L 837.138218 467.770824 
L 836.312511 460.762234 
L 834.98257 453.619873 
L 833.154871 446.3425 
L 830.838916 438.929374 
L 828.047478 431.380302 
L 824.796872 423.695681 
L 821.107245 415.876552 
L 817.002911 407.924661 
L 812.512695 399.84252 
L 807.67033 391.633482 
L 802.51487 383.301816 
L 797.091146 374.852795 
L 791.450261 366.292784 
L 785.650109 357.629346 
L 779.755949 348.871347 
L 773.84101 340.02907 
L 767.987134 331.114344 
L 762.285475 322.140676 
L 756.83723 313.123393 
L 751.754421 304.079795 
L 747.160725 295.029316 
L 743.192353 285.993697 
L 739.998975 276.997167 
L 737.744702 268.066636 
L 736.609119 259.2319 
L 736.788369 250.525853 
L 738.496301 241.984714 
L 741.965667 233.648268 
L 747.449381 225.560109 
L 755.221843 217.76791 
L 765.580314 210.323693 
L 778.846365 203.284118 
L 795.367383 196.710785 
L 815.518148 190.670546 
L 839.702475 185.235836 
L 868.354921 180.485012 
" clip-path="url(#p7f2b5ed071)" style="fill: none; stroke: #8c564b; stroke-width: 1.5"/>
    <path d="M 702.605112 923.4 
L 696.241084 911.540432 
L 689.40124 899.969804 
L 682.115659 888.425205 
L 674.572024 876.958347 
L 651.923712 843.303139 
L 644.802221 832.406969 
L 638.07294 821.696711 
L 631.817303 811.173603 
L 626.104797 800.834515 
L 620.9949 790.672827 
L 616.539034 780.679692 
L 612.78239 770.845895 
L 609.765242 761.164419 
L 607.523274 751.633606 
L 606.086342 742.260329 
L 605.475471 733.062053 
L 605.698655 724.066414 
L 606.747057 715.307508 
L 608.593548 706.819522 
L 611.194744 698.629842 
L 614.495967 690.754162 
L 618.437227 683.194951 
L 622.958275 675.942975 
L 628.001706 668.980514 
L 633.51415 662.284827 
L 639.446159 655.831029 
L 645.751481 649.594055 
L 652.386187 643.549825 
L 659.307906 637.675811 
L 666.475277 631.951226 
L 673.847593 626.35701 
L 681.384607 620.875715 
L 689.046464 615.491363 
L 704.587335 604.956052 
L 742.984287 579.386466 
L 750.290719 574.328322 
L 757.391168 569.27188 
L 764.253809 564.211287 
L 770.848198 559.141731 
L 777.145444 554.059474 
L 783.118424 548.961875 
L 788.742056 543.847375 
L 793.993634 538.715419 
L 798.853229 533.566268 
L 803.304144 528.400655 
L 807.333358 523.219233 
L 810.9319 518.021764 
L 814.094985 512.806076 
L 816.821784 507.566855 
L 819.11465 502.294487 
L 820.977777 496.974277 
L 822.415425 491.586373 
L 823.430068 486.106671 
L 824.020979 480.508661 
L 824.183683 474.76587 
L 823.910473 468.854318 
L 823.191822 462.754421 
L 822.018283 456.452007 
L 820.382404 449.938406 
L 818.280321 443.209863 
L 815.712888 436.266581 
L 812.686353 429.111676 
L 809.212702 421.750247 
L 805.309804 414.188628 
L 801.001466 406.433856 
L 796.317479 398.493309 
L 791.293713 390.374473 
L 785.972273 382.084787 
L 774.637412 365.021607 
L 762.753999 347.309382 
L 756.792091 338.227413 
L 750.93307 328.999803 
L 745.274644 319.621959 
L 739.92704 310.082945 
L 735.016681 300.362883 
L 730.692774 290.430505 
L 727.138698 280.243398 
L 724.589268 269.757586 
L 723.364522 259.942817 
L 723.348266 258.95887 
L 723.603384 249.083314 
L 723.782191 247.925068 
L 725.808938 238.117471 
L 726.250755 236.888505 
L 730.294592 227.346619 
L 730.987357 226.205051 
L 737.219552 217.117637 
L 738.05867 216.193184 
L 746.62752 207.665318 
L 747.481332 206.997152 
L 757.839803 199.552935 
L 759.363118 198.607413 
L 773.942927 190.960115 
L 791.558984 184.005635 
L 812.610057 177.729613 
L 837.532867 172.150823 
L 866.185313 167.4 
L 866.185313 167.4 
" clip-path="url(#p7f2b5ed071)" style="fill: none; stroke: #17becf; stroke-width: 1.5"/>
   </g>
   <g id="patch_3">
    <path d="M 592.223018 961.2 
L 592.223018 129.6 
" style="fill: none; stroke: #000000; stroke-width: 0.8; stroke-linejoin: miter; stroke-linecap: square"/>
   </g>
   <g id="patch_4">
    <path d="M 883.776982 961.2 
L 883.776982 129.6 
" style="fill: none; stroke: #000000; stroke-width: 0.8; stroke-linejoin: miter; stroke-linecap: square"/>
   </g>
   <g id="patch_5">
    <path d="M 592.223018 961.2 
L 883.776982 961.2 
" style="fill: none; stroke: #000000; stroke-width: 0.8; stroke-linejoin: miter; stroke-linecap: square"/>
   </g>
   <g id="patch_6">
    <path d="M 592.223018 129.6 
L 883.776982 129.6 
" style="fill: none; stroke: #000000; stroke-width: 0.8; stroke-linejoin: miter; stroke-linecap: square"/>
   </g>
  </g>
 </g>
 <defs>
  <clipPath id="p7f2b5ed071">
   <rect x="592.223018" y="129.6" width="291.553965" height="831.6"/>
  </clipPath>
 </defs>
</svg>
