<?xml version="1.0" encoding="utf-8" standalone="no"?>
<!DOCTYPE svg PUBLIC "-//W3C//DTD SVG 1.1//EN"
  "http://www.w3.org/Graphics/SVG/1.1/DTD/svg11.dtd">
<svg xmlns:xlink="http://www.w3.org/1999/xlink" width="1440pt" height="1080pt" viewBox="0 0 1440 1080" xmlns="http://www.w3.org/2000/svg" version="1.1">
 <metadata>
  <rdf:RDF xmlns:dc="http://purl.org/dc/elements/1.1/" xmlns:cc="http://creativecommons.org/ns#" xmlns:rdf="http://www.w3.org/1999/02/22-rdf-syntax-ns#">
   <cc:Work>
    <dc:type rdf:resource="http://purl.org/dc/dcmitype/StillImage"/>
    <dc:date>2023-12-11T12:06:35.395897</dc:date>
    <dc:format>image/svg+xml</dc:format>
    <dc:creator>
     <cc:Agent>
      <dc:title>Matplotlib v3.7.1, https://matplotlib.org/</dc:title>
     </cc:Agent>
    </dc:creator>
   </cc:Work>
  </rdf:RDF>
 </metadata>
 <defs>
  <style type="text/css">*{stroke-linejoin: round; stroke-linecap: butt}</style>
 </defs>
 <g id="figure_1">
  <g id="patch_1">
   <path d="M 0 1080 
L 1440 1080 
L 1440 0 
L 0 0 
z
" style="fill: #ffffff"/>
  </g>
  <g id="axes_1">
   <g id="patch_2">
    <path d="M 180 679.092537 
L 1296 679.092537 
L 1296 411.707463 
L 180 411.707463 
z
" style="fill: #ffffff"/>
   </g>
   <g id="matplotlib.axis_1">
    <g id="xtick_1">
     <g id="line2d_1">
      <defs>
       <path id="me8e79a415c" d="M 0 0 
L 0 3.5 
" style="stroke: #000000; stroke-width: 0.8"/>
      </defs>
      <g>
       <use xlink:href="#me8e79a415c" x="277.648073" y="679.092537" style="stroke: #000000; stroke-width: 0.8"/>
      </g>
     </g>
     <g id="text_1">
      <!-- 800 -->
      <g transform="translate(268.104323 693.690974) scale(0.1 -0.1)">
       <defs>
        <path id="DejaVuSans-38" d="M 2034 2216 
Q 1584 2216 1326 1975 
Q 1069 1734 1069 1313 
Q 1069 891 1326 650 
Q 1584 409 2034 409 
Q 2484 409 2743 651 
Q 3003 894 3003 1313 
Q 3003 1734 2745 1975 
Q 2488 2216 2034 2216 
z
M 1403 2484 
Q 997 2584 770 2862 
Q 544 3141 544 3541 
Q 544 4100 942 4425 
Q 1341 4750 2034 4750 
Q 2731 4750 3128 4425 
Q 3525 4100 3525 3541 
Q 3525 3141 3298 2862 
Q 3072 2584 2669 2484 
Q 3125 2378 3379 2068 
Q 3634 1759 3634 1313 
Q 3634 634 3220 271 
Q 2806 -91 2034 -91 
Q 1263 -91 848 271 
Q 434 634 434 1313 
Q 434 1759 690 2068 
Q 947 2378 1403 2484 
z
M 1172 3481 
Q 1172 3119 1398 2916 
Q 1625 2713 2034 2713 
Q 2441 2713 2670 2916 
Q 2900 3119 2900 3481 
Q 2900 3844 2670 4047 
Q 2441 4250 2034 4250 
Q 1625 4250 1398 4047 
Q 1172 3844 1172 3481 
z
" transform="scale(0.015625)"/>
        <path id="DejaVuSans-30" d="M 2034 4250 
Q 1547 4250 1301 3770 
Q 1056 3291 1056 2328 
Q 1056 1369 1301 889 
Q 1547 409 2034 409 
Q 2525 409 2770 889 
Q 3016 1369 3016 2328 
Q 3016 3291 2770 3770 
Q 2525 4250 2034 4250 
z
M 2034 4750 
Q 2819 4750 3233 4129 
Q 3647 3509 3647 2328 
Q 3647 1150 3233 529 
Q 2819 -91 2034 -91 
Q 1250 -91 836 529 
Q 422 1150 422 2328 
Q 422 3509 836 4129 
Q 1250 4750 2034 4750 
z
" transform="scale(0.015625)"/>
       </defs>
       <use xlink:href="#DejaVuSans-38"/>
       <use xlink:href="#DejaVuSans-30" x="63.623047"/>
       <use xlink:href="#DejaVuSans-30" x="127.246094"/>
      </g>
     </g>
    </g>
    <g id="xtick_2">
     <g id="line2d_2">
      <g>
       <use xlink:href="#me8e79a415c" x="418.655661" y="679.092537" style="stroke: #000000; stroke-width: 0.8"/>
      </g>
     </g>
     <g id="text_2">
      <!-- 900 -->
      <g transform="translate(409.111911 693.690974) scale(0.1 -0.1)">
       <defs>
        <path id="DejaVuSans-39" d="M 703 97 
L 703 672 
Q 941 559 1184 500 
Q 1428 441 1663 441 
Q 2288 441 2617 861 
Q 2947 1281 2994 2138 
Q 2813 1869 2534 1725 
Q 2256 1581 1919 1581 
Q 1219 1581 811 2004 
Q 403 2428 403 3163 
Q 403 3881 828 4315 
Q 1253 4750 1959 4750 
Q 2769 4750 3195 4129 
Q 3622 3509 3622 2328 
Q 3622 1225 3098 567 
Q 2575 -91 1691 -91 
Q 1453 -91 1209 -44 
Q 966 3 703 97 
z
M 1959 2075 
Q 2384 2075 2632 2365 
Q 2881 2656 2881 3163 
Q 2881 3666 2632 3958 
Q 2384 4250 1959 4250 
Q 1534 4250 1286 3958 
Q 1038 3666 1038 3163 
Q 1038 2656 1286 2365 
Q 1534 2075 1959 2075 
z
" transform="scale(0.015625)"/>
       </defs>
       <use xlink:href="#DejaVuSans-39"/>
       <use xlink:href="#DejaVuSans-30" x="63.623047"/>
       <use xlink:href="#DejaVuSans-30" x="127.246094"/>
      </g>
     </g>
    </g>
    <g id="xtick_3">
     <g id="line2d_3">
      <g>
       <use xlink:href="#me8e79a415c" x="559.663249" y="679.092537" style="stroke: #000000; stroke-width: 0.8"/>
      </g>
     </g>
     <g id="text_3">
      <!-- 1000 -->
      <g transform="translate(546.938249 693.690974) scale(0.1 -0.1)">
       <defs>
        <path id="DejaVuSans-31" d="M 794 531 
L 1825 531 
L 1825 4091 
L 703 3866 
L 703 4441 
L 1819 4666 
L 2450 4666 
L 2450 531 
L 3481 531 
L 3481 0 
L 794 0 
L 794 531 
z
" transform="scale(0.015625)"/>
       </defs>
       <use xlink:href="#DejaVuSans-31"/>
       <use xlink:href="#DejaVuSans-30" x="63.623047"/>
       <use xlink:href="#DejaVuSans-30" x="127.246094"/>
       <use xlink:href="#DejaVuSans-30" x="190.869141"/>
      </g>
     </g>
    </g>
    <g id="xtick_4">
     <g id="line2d_4">
      <g>
       <use xlink:href="#me8e79a415c" x="700.670837" y="679.092537" style="stroke: #000000; stroke-width: 0.8"/>
      </g>
     </g>
     <g id="text_4">
      <!-- 1100 -->
      <g transform="translate(687.945837 693.690974) scale(0.1 -0.1)">
       <use xlink:href="#DejaVuSans-31"/>
       <use xlink:href="#DejaVuSans-31" x="63.623047"/>
       <use xlink:href="#DejaVuSans-30" x="127.246094"/>
       <use xlink:href="#DejaVuSans-30" x="190.869141"/>
      </g>
     </g>
    </g>
    <g id="xtick_5">
     <g id="line2d_5">
      <g>
       <use xlink:href="#me8e79a415c" x="841.678425" y="679.092537" style="stroke: #000000; stroke-width: 0.8"/>
      </g>
     </g>
     <g id="text_5">
      <!-- 1200 -->
      <g transform="translate(828.953425 693.690974) scale(0.1 -0.1)">
       <defs>
        <path id="DejaVuSans-32" d="M 1228 531 
L 3431 531 
L 3431 0 
L 469 0 
L 469 531 
Q 828 903 1448 1529 
Q 2069 2156 2228 2338 
Q 2531 2678 2651 2914 
Q 2772 3150 2772 3378 
Q 2772 3750 2511 3984 
Q 2250 4219 1831 4219 
Q 1534 4219 1204 4116 
Q 875 4013 500 3803 
L 500 4441 
Q 881 4594 1212 4672 
Q 1544 4750 1819 4750 
Q 2544 4750 2975 4387 
Q 3406 4025 3406 3419 
Q 3406 3131 3298 2873 
Q 3191 2616 2906 2266 
Q 2828 2175 2409 1742 
Q 1991 1309 1228 531 
z
" transform="scale(0.015625)"/>
       </defs>
       <use xlink:href="#DejaVuSans-31"/>
       <use xlink:href="#DejaVuSans-32" x="63.623047"/>
       <use xlink:href="#DejaVuSans-30" x="127.246094"/>
       <use xlink:href="#DejaVuSans-30" x="190.869141"/>
      </g>
     </g>
    </g>
    <g id="xtick_6">
     <g id="line2d_6">
      <g>
       <use xlink:href="#me8e79a415c" x="982.686013" y="679.092537" style="stroke: #000000; stroke-width: 0.8"/>
      </g>
     </g>
     <g id="text_6">
      <!-- 1300 -->
      <g transform="translate(969.961013 693.690974) scale(0.1 -0.1)">
       <defs>
        <path id="DejaVuSans-33" d="M 2597 2516 
Q 3050 2419 3304 2112 
Q 3559 1806 3559 1356 
Q 3559 666 3084 287 
Q 2609 -91 1734 -91 
Q 1441 -91 1130 -33 
Q 819 25 488 141 
L 488 750 
Q 750 597 1062 519 
Q 1375 441 1716 441 
Q 2309 441 2620 675 
Q 2931 909 2931 1356 
Q 2931 1769 2642 2001 
Q 2353 2234 1838 2234 
L 1294 2234 
L 1294 2753 
L 1863 2753 
Q 2328 2753 2575 2939 
Q 2822 3125 2822 3475 
Q 2822 3834 2567 4026 
Q 2313 4219 1838 4219 
Q 1578 4219 1281 4162 
Q 984 4106 628 3988 
L 628 4550 
Q 988 4650 1302 4700 
Q 1616 4750 1894 4750 
Q 2613 4750 3031 4423 
Q 3450 4097 3450 3541 
Q 3450 3153 3228 2886 
Q 3006 2619 2597 2516 
z
" transform="scale(0.015625)"/>
       </defs>
       <use xlink:href="#DejaVuSans-31"/>
       <use xlink:href="#DejaVuSans-33" x="63.623047"/>
       <use xlink:href="#DejaVuSans-30" x="127.246094"/>
       <use xlink:href="#DejaVuSans-30" x="190.869141"/>
      </g>
     </g>
    </g>
    <g id="xtick_7">
     <g id="line2d_7">
      <g>
       <use xlink:href="#me8e79a415c" x="1123.693601" y="679.092537" style="stroke: #000000; stroke-width: 0.8"/>
      </g>
     </g>
     <g id="text_7">
      <!-- 1400 -->
      <g transform="translate(1110.968601 693.690974) scale(0.1 -0.1)">
       <defs>
        <path id="DejaVuSans-34" d="M 2419 4116 
L 825 1625 
L 2419 1625 
L 2419 4116 
z
M 2253 4666 
L 3047 4666 
L 3047 1625 
L 3713 1625 
L 3713 1100 
L 3047 1100 
L 3047 0 
L 2419 0 
L 2419 1100 
L 313 1100 
L 313 1709 
L 2253 4666 
z
" transform="scale(0.015625)"/>
       </defs>
       <use xlink:href="#DejaVuSans-31"/>
       <use xlink:href="#DejaVuSans-34" x="63.623047"/>
       <use xlink:href="#DejaVuSans-30" x="127.246094"/>
       <use xlink:href="#DejaVuSans-30" x="190.869141"/>
      </g>
     </g>
    </g>
    <g id="xtick_8">
     <g id="line2d_8">
      <g>
       <use xlink:href="#me8e79a415c" x="1264.701189" y="679.092537" style="stroke: #000000; stroke-width: 0.8"/>
      </g>
     </g>
     <g id="text_8">
      <!-- 1500 -->
      <g transform="translate(1251.976189 693.690974) scale(0.1 -0.1)">
       <defs>
        <path id="DejaVuSans-35" d="M 691 4666 
L 3169 4666 
L 3169 4134 
L 1269 4134 
L 1269 2991 
Q 1406 3038 1543 3061 
Q 1681 3084 1819 3084 
Q 2600 3084 3056 2656 
Q 3513 2228 3513 1497 
Q 3513 744 3044 326 
Q 2575 -91 1722 -91 
Q 1428 -91 1123 -41 
Q 819 9 494 109 
L 494 744 
Q 775 591 1075 516 
Q 1375 441 1709 441 
Q 2250 441 2565 725 
Q 2881 1009 2881 1497 
Q 2881 1984 2565 2268 
Q 2250 2553 1709 2553 
Q 1456 2553 1204 2497 
Q 953 2441 691 2322 
L 691 4666 
z
" transform="scale(0.015625)"/>
       </defs>
       <use xlink:href="#DejaVuSans-31"/>
       <use xlink:href="#DejaVuSans-35" x="63.623047"/>
       <use xlink:href="#DejaVuSans-30" x="127.246094"/>
       <use xlink:href="#DejaVuSans-30" x="190.869141"/>
      </g>
     </g>
    </g>
   </g>
   <g id="matplotlib.axis_2">
    <g id="ytick_1">
     <g id="line2d_9">
      <defs>
       <path id="m68c43defec" d="M 0 0 
L -3.5 0 
" style="stroke: #000000; stroke-width: 0.8"/>
      </defs>
      <g>
       <use xlink:href="#m68c43defec" x="180" y="645.081993" style="stroke: #000000; stroke-width: 0.8"/>
      </g>
     </g>
     <g id="text_9">
      <!-- 975 -->
      <g transform="translate(153.9125 648.881211) scale(0.1 -0.1)">
       <defs>
        <path id="DejaVuSans-37" d="M 525 4666 
L 3525 4666 
L 3525 4397 
L 1831 0 
L 1172 0 
L 2766 4134 
L 525 4134 
L 525 4666 
z
" transform="scale(0.015625)"/>
       </defs>
       <use xlink:href="#DejaVuSans-39"/>
       <use xlink:href="#DejaVuSans-37" x="63.623047"/>
       <use xlink:href="#DejaVuSans-35" x="127.246094"/>
      </g>
     </g>
    </g>
    <g id="ytick_2">
     <g id="line2d_10">
      <g>
       <use xlink:href="#m68c43defec" x="180" y="609.830096" style="stroke: #000000; stroke-width: 0.8"/>
      </g>
     </g>
     <g id="text_10">
      <!-- 1000 -->
      <g transform="translate(147.55 613.629314) scale(0.1 -0.1)">
       <use xlink:href="#DejaVuSans-31"/>
       <use xlink:href="#DejaVuSans-30" x="63.623047"/>
       <use xlink:href="#DejaVuSans-30" x="127.246094"/>
       <use xlink:href="#DejaVuSans-30" x="190.869141"/>
      </g>
     </g>
    </g>
    <g id="ytick_3">
     <g id="line2d_11">
      <g>
       <use xlink:href="#m68c43defec" x="180" y="574.578199" style="stroke: #000000; stroke-width: 0.8"/>
      </g>
     </g>
     <g id="text_11">
      <!-- 1025 -->
      <g transform="translate(147.55 578.377417) scale(0.1 -0.1)">
       <use xlink:href="#DejaVuSans-31"/>
       <use xlink:href="#DejaVuSans-30" x="63.623047"/>
       <use xlink:href="#DejaVuSans-32" x="127.246094"/>
       <use xlink:href="#DejaVuSans-35" x="190.869141"/>
      </g>
     </g>
    </g>
    <g id="ytick_4">
     <g id="line2d_12">
      <g>
       <use xlink:href="#m68c43defec" x="180" y="539.326302" style="stroke: #000000; stroke-width: 0.8"/>
      </g>
     </g>
     <g id="text_12">
      <!-- 1050 -->
      <g transform="translate(147.55 543.12552) scale(0.1 -0.1)">
       <use xlink:href="#DejaVuSans-31"/>
       <use xlink:href="#DejaVuSans-30" x="63.623047"/>
       <use xlink:href="#DejaVuSans-35" x="127.246094"/>
       <use xlink:href="#DejaVuSans-30" x="190.869141"/>
      </g>
     </g>
    </g>
    <g id="ytick_5">
     <g id="line2d_13">
      <g>
       <use xlink:href="#m68c43defec" x="180" y="504.074405" style="stroke: #000000; stroke-width: 0.8"/>
      </g>
     </g>
     <g id="text_13">
      <!-- 1075 -->
      <g transform="translate(147.55 507.873623) scale(0.1 -0.1)">
       <use xlink:href="#DejaVuSans-31"/>
       <use xlink:href="#DejaVuSans-30" x="63.623047"/>
       <use xlink:href="#DejaVuSans-37" x="127.246094"/>
       <use xlink:href="#DejaVuSans-35" x="190.869141"/>
      </g>
     </g>
    </g>
    <g id="ytick_6">
     <g id="line2d_14">
      <g>
       <use xlink:href="#m68c43defec" x="180" y="468.822508" style="stroke: #000000; stroke-width: 0.8"/>
      </g>
     </g>
     <g id="text_14">
      <!-- 1100 -->
      <g transform="translate(147.55 472.621726) scale(0.1 -0.1)">
       <use xlink:href="#DejaVuSans-31"/>
       <use xlink:href="#DejaVuSans-31" x="63.623047"/>
       <use xlink:href="#DejaVuSans-30" x="127.246094"/>
       <use xlink:href="#DejaVuSans-30" x="190.869141"/>
      </g>
     </g>
    </g>
    <g id="ytick_7">
     <g id="line2d_15">
      <g>
       <use xlink:href="#m68c43defec" x="180" y="433.570611" style="stroke: #000000; stroke-width: 0.8"/>
      </g>
     </g>
     <g id="text_15">
      <!-- 1125 -->
      <g transform="translate(147.55 437.369829) scale(0.1 -0.1)">
       <use xlink:href="#DejaVuSans-31"/>
       <use xlink:href="#DejaVuSans-31" x="63.623047"/>
       <use xlink:href="#DejaVuSans-32" x="127.246094"/>
       <use xlink:href="#DejaVuSans-35" x="190.869141"/>
      </g>
     </g>
    </g>
   </g>
   <g id="LineCollection_1">
    <path d="M 245.604624 627.36731 
L 259.122687 624.449087 
L 263.798976 623.095703 
L 276.795743 618.339424 
L 280.379649 616.79798 
L 292.910353 610.565491 
L 295.551273 609.107814 
L 309.558106 600.490293 
L 322.616966 591.292778 
L 334.899472 581.788546 
L 346.53477 572.203625 
L 368.250815 553.50755 
L 378.536673 544.633015 
L 388.414081 536.314657 
L 397.905552 528.653508 
L 407.022405 521.728853 
L 415.768192 515.596999 
L 424.142853 510.289878 
L 432.148076 505.814146 
L 439.79393 502.15177 
L 447.106041 499.263326 
L 454.131565 497.094901 
L 460.941427 495.588308 
L 467.626692 494.692519 
L 474.288828 494.372804 
L 481.026412 494.614338 
L 487.922605 495.419313 
L 495.037167 496.799375 
L 502.404461 498.766765 
L 510.036345 501.327105 
L 517.927679 504.475194 
L 526.06229 508.193735 
L 534.418067 512.454115 
L 542.970701 517.218277 
L 551.69612 522.440944 
L 560.571891 528.071756 
L 569.57791 534.057128 
L 578.696643 540.341765 
L 597.214769 553.586022 
L 644.844879 588.252439 
L 654.545047 595.052913 
L 664.29315 601.704552 
L 674.088787 608.169498 
L 683.93195 614.412559 
L 693.822726 620.401181 
L 703.760953 626.105427 
L 713.74584 631.497992 
L 723.775573 636.554269 
L 733.846931 641.252491 
L 743.954954 645.573965 
L 754.092714 649.503389 
L 764.251232 653.029241 
L 774.419597 656.144186 
L 784.585292 658.84546 
L 794.734727 661.135143 
L 804.853936 663.020263 
L 814.929362 664.512697 
L 824.948642 665.628824 
L 834.901309 666.388983 
L 844.779347 666.816751 
L 854.577547 666.93813 
L 864.293677 666.780698 
L 873.928484 666.37278 
L 883.485562 665.742694 
L 892.971137 664.918082 
L 902.393825 663.925337 
L 911.76438 662.789119 
L 930.401459 660.173838 
L 949.003341 657.220573 
L 967.713932 654.028036 
L 996.344557 648.857516 
L 1016.071112 645.07901 
L 1036.527093 640.851862 
L 1047.085192 638.484908 
L 1057.890831 635.886226 
L 1068.961456 632.99634 
L 1080.310606 629.745013 
L 1091.946459 626.05086 
L 1103.870206 621.821418 
L 1116.074423 616.953856 
L 1128.541792 611.336409 
L 1141.244618 604.850452 
L 1154.145629 597.372857 
L 1167.200336 588.778022 
L 1180.360844 578.938789 
L 1193.580477 567.72566 
L 1206.818212 555.004151 
L 1220.041902 540.630737 
L 1233.229675 524.448271 
L 1245.272727 507.881285 
L 1245.272727 507.881285 
" clip-path="url(#p11c7de809a)" style="fill: none; stroke: #1f77b4; stroke-width: 1.5"/>
    <path d="M 238.165948 592.909185 
L 251.684011 589.990962 
L 264.680778 585.234684 
L 277.211482 579.002194 
L 289.32706 571.621607 
L 301.074368 563.389146 
L 312.496399 554.570931 
L 323.632489 545.404711 
L 334.518512 536.101545 
L 345.187079 526.84742 
L 355.667723 517.804826 
L 365.987083 509.114274 
L 376.169077 500.895762 
L 386.235075 493.250188 
L 396.204062 486.260723 
L 406.092796 479.994117 
L 415.91596 474.501971 
L 425.686312 469.821957 
L 435.414827 465.978981 
L 445.110829 462.986314 
L 454.782127 460.846666 
L 464.435141 459.553215 
L 474.07502 459.090597 
L 483.705758 459.435848 
L 493.33031 460.559298 
L 502.950689 462.425431 
L 512.568079 464.993695 
L 522.182919 468.219275 
L 531.795005 472.053823 
L 541.403573 476.446148 
L 551.007379 481.342865 
L 560.604785 486.689007 
L 570.193826 492.428601 
L 579.772283 498.505199 
L 589.33775 504.862378 
L 598.887691 511.444205 
L 608.419505 518.195658 
L 617.930571 525.063024 
L 627.418307 531.994252 
L 636.880208 538.939277 
L 646.313895 545.850313 
L 655.717149 552.682111 
L 665.087951 559.392185 
L 674.424511 565.941006 
L 683.725296 572.292175 
L 692.989059 578.41255 
L 702.214857 584.272361 
L 711.402074 589.845285 
L 720.550435 595.108499 
L 729.660019 600.042704 
L 738.73127 604.632123 
L 747.765005 608.864476 
L 756.762418 612.730927 
L 765.725084 616.226007 
L 774.654956 619.347514 
L 783.554364 622.096392 
L 792.42601 624.476588 
L 801.272959 626.49488 
L 810.098632 628.160696 
L 818.906794 629.485903 
L 827.701538 630.484581 
L 836.487269 631.17278 
L 845.26869 631.56825 
L 854.050782 631.690169 
L 862.838778 631.558837 
L 871.638147 631.195364 
L 880.454565 630.621343 
L 889.29389 629.858503 
L 898.162137 628.928351 
L 907.065447 627.8518 
L 916.010061 626.648785 
L 925.002284 625.337863 
L 934.048455 623.935811 
L 943.154917 622.457199 
L 952.32798 620.913966 
L 961.573888 619.314982 
L 970.898781 617.665595 
L 980.308662 615.967182 
L 989.80936 614.216681 
L 999.406491 612.406126 
L 1009.105422 610.522167 
L 1018.911232 608.545591 
L 1028.828675 606.450836 
L 1038.862142 604.205501 
L 1049.015619 601.769854 
L 1059.292654 599.096332 
L 1069.696315 596.129048 
L 1080.229152 592.803289 
L 1090.89316 589.045016 
L 1101.689742 584.770363 
L 1112.61967 579.885141 
L 1123.683048 574.284335 
L 1134.879277 567.851612 
L 1146.207021 560.458825 
L 1157.664166 551.965524 
L 1169.247793 542.21847 
L 1180.954141 531.051153 
L 1192.778576 518.283315 
L 1204.715557 503.72048 
L 1216.758609 487.153494 
" clip-path="url(#p11c7de809a)" style="fill: none; stroke: #8c564b; stroke-width: 1.5"/>
    <path d="M 230.727273 558.451061 
L 241.860354 556.047698 
L 250.731147 552.801355 
L 260.16094 548.111189 
L 270.021807 542.104129 
L 280.176398 534.987837 
L 290.518209 527.00359 
L 300.977878 518.39414 
L 322.158682 500.1568 
L 332.959853 490.840982 
L 343.845823 481.683254 
L 354.846851 472.823374 
L 365.997731 464.385918 
L 377.334421 456.484342 
L 388.889651 449.224845 
L 400.687171 442.709201 
L 412.734911 437.035413 
L 425.018291 432.295034 
L 434.714293 429.302367 
L 437.495939 428.566702 
L 447.167238 426.427054 
L 450.100409 425.907036 
L 459.753423 424.613585 
L 462.745349 424.341841 
L 472.385227 423.879224 
L 475.337947 423.86133 
L 484.968686 424.206581 
L 487.792875 424.421683 
L 500.04324 425.952466 
L 512.045777 428.367016 
L 523.780237 431.572388 
L 535.244933 435.476642 
L 546.450875 439.992917 
L 557.416251 445.040888 
L 568.162145 450.546595 
L 578.709648 456.441525 
L 589.078137 462.661521 
L 599.284428 469.145831 
L 609.342473 475.836402 
L 619.263401 482.677441 
L 638.725634 496.597929 
L 685.471693 530.630598 
L 694.486569 536.953785 
L 703.38225 543.028323 
L 712.156817 548.825497 
L 720.808422 554.320607 
L 729.335611 559.493161 
L 737.737679 564.327019 
L 746.01506 568.810462 
L 754.169737 572.936158 
L 762.205648 576.701026 
L 770.129061 580.105947 
L 777.948861 583.155355 
L 785.676713 585.856686 
L 793.327039 588.219744 
L 800.916788 590.256017 
L 808.464995 591.978021 
L 815.992138 593.398744 
L 823.519375 594.531233 
L 831.067727 595.388379 
L 838.657293 595.98288 
L 846.306593 596.327365 
L 854.032067 596.434615 
L 861.847775 596.317813 
L 869.765265 595.990768 
L 877.793602 595.468058 
L 885.939483 594.765062 
L 894.207421 593.897874 
L 902.599938 592.883086 
L 919.759888 590.477589 
L 937.405737 587.677128 
L 955.500203 584.59019 
L 983.347917 579.561932 
L 1002.261575 575.940764 
L 1021.336625 572.003628 
L 1030.900943 569.863281 
L 1040.465711 567.568855 
L 1050.019385 565.083513 
L 1059.552779 562.364442 
L 1069.060314 559.362424 
L 1078.541489 556.021012 
L 1088.002455 552.275165 
L 1097.457423 548.049188 
L 1106.929502 543.253973 
L 1116.450494 537.783746 
L 1126.059242 531.512822 
L 1135.798437 524.293055 
L 1145.71026 515.952743 
L 1155.831704 506.297352 
L 1166.190616 495.111961 
L 1176.80332 482.164714 
L 1188.244491 466.425703 
L 1188.244491 466.425703 
" clip-path="url(#p11c7de809a)" style="fill: none; stroke: #17becf; stroke-width: 1.5"/>
   </g>
   <g id="patch_3">
    <path d="M 180 679.092537 
L 180 411.707463 
" style="fill: none; stroke: #000000; stroke-width: 0.8; stroke-linejoin: miter; stroke-linecap: square"/>
   </g>
   <g id="patch_4">
    <path d="M 1296 679.092537 
L 1296 411.707463 
" style="fill: none; stroke: #000000; stroke-width: 0.8; stroke-linejoin: miter; stroke-linecap: square"/>
   </g>
   <g id="patch_5">
    <path d="M 180 679.092537 
L 1296 679.092537 
" style="fill: none; stroke: #000000; stroke-width: 0.8; stroke-linejoin: miter; stroke-linecap: square"/>
   </g>
   <g id="patch_6">
    <path d="M 180 411.707463 
L 1296 411.707463 
" style="fill: none; stroke: #000000; stroke-width: 0.8; stroke-linejoin: miter; stroke-linecap: square"/>
   </g>
  </g>
 </g>
 <defs>
  <clipPath id="p11c7de809a">
   <rect x="180" y="411.707463" width="1116" height="267.385073"/>
  </clipPath>
 </defs>
</svg>
