<?xml version="1.0" encoding="utf-8" standalone="no"?>
<!DOCTYPE svg PUBLIC "-//W3C//DTD SVG 1.1//EN"
  "http://www.w3.org/Graphics/SVG/1.1/DTD/svg11.dtd">
<svg xmlns:xlink="http://www.w3.org/1999/xlink" width="1440pt" height="1080pt" viewBox="0 0 1440 1080" xmlns="http://www.w3.org/2000/svg" version="1.1">
 <metadata>
  <rdf:RDF xmlns:dc="http://purl.org/dc/elements/1.1/" xmlns:cc="http://creativecommons.org/ns#" xmlns:rdf="http://www.w3.org/1999/02/22-rdf-syntax-ns#">
   <cc:Work>
    <dc:type rdf:resource="http://purl.org/dc/dcmitype/StillImage"/>
    <dc:date>2023-12-11T12:06:38.908944</dc:date>
    <dc:format>image/svg+xml</dc:format>
    <dc:creator>
     <cc:Agent>
      <dc:title>Matplotlib v3.7.1, https://matplotlib.org/</dc:title>
     </cc:Agent>
    </dc:creator>
   </cc:Work>
  </rdf:RDF>
 </metadata>
 <defs>
  <style type="text/css">*{stroke-linejoin: round; stroke-linecap: butt}</style>
 </defs>
 <g id="figure_1">
  <g id="patch_1">
   <path d="M 0 1080 
L 1440 1080 
L 1440 0 
L 0 0 
z
" style="fill: #ffffff"/>
  </g>
  <g id="axes_1">
   <g id="patch_2">
    <path d="M 180 876.694103 
L 1296 876.694103 
L 1296 214.105897 
L 180 214.105897 
z
" style="fill: #ffffff"/>
   </g>
   <g id="matplotlib.axis_1">
    <g id="xtick_1">
     <g id="line2d_1">
      <defs>
       <path id="m0f0724ac9c" d="M 0 0 
L 0 3.5 
" style="stroke: #000000; stroke-width: 0.8"/>
      </defs>
      <g>
       <use xlink:href="#m0f0724ac9c" x="311.841021" y="876.694103" style="stroke: #000000; stroke-width: 0.8"/>
      </g>
     </g>
     <g id="text_1">
      <!-- 200 -->
      <g transform="translate(302.297271 891.292541) scale(0.1 -0.1)">
       <defs>
        <path id="DejaVuSans-32" d="M 1228 531 
L 3431 531 
L 3431 0 
L 469 0 
L 469 531 
Q 828 903 1448 1529 
Q 2069 2156 2228 2338 
Q 2531 2678 2651 2914 
Q 2772 3150 2772 3378 
Q 2772 3750 2511 3984 
Q 2250 4219 1831 4219 
Q 1534 4219 1204 4116 
Q 875 4013 500 3803 
L 500 4441 
Q 881 4594 1212 4672 
Q 1544 4750 1819 4750 
Q 2544 4750 2975 4387 
Q 3406 4025 3406 3419 
Q 3406 3131 3298 2873 
Q 3191 2616 2906 2266 
Q 2828 2175 2409 1742 
Q 1991 1309 1228 531 
z
" transform="scale(0.015625)"/>
        <path id="DejaVuSans-30" d="M 2034 4250 
Q 1547 4250 1301 3770 
Q 1056 3291 1056 2328 
Q 1056 1369 1301 889 
Q 1547 409 2034 409 
Q 2525 409 2770 889 
Q 3016 1369 3016 2328 
Q 3016 3291 2770 3770 
Q 2525 4250 2034 4250 
z
M 2034 4750 
Q 2819 4750 3233 4129 
Q 3647 3509 3647 2328 
Q 3647 1150 3233 529 
Q 2819 -91 2034 -91 
Q 1250 -91 836 529 
Q 422 1150 422 2328 
Q 422 3509 836 4129 
Q 1250 4750 2034 4750 
z
" transform="scale(0.015625)"/>
       </defs>
       <use xlink:href="#DejaVuSans-32"/>
       <use xlink:href="#DejaVuSans-30" x="63.623047"/>
       <use xlink:href="#DejaVuSans-30" x="127.246094"/>
      </g>
     </g>
    </g>
    <g id="xtick_2">
     <g id="line2d_2">
      <g>
       <use xlink:href="#m0f0724ac9c" x="524.976646" y="876.694103" style="stroke: #000000; stroke-width: 0.8"/>
      </g>
     </g>
     <g id="text_2">
      <!-- 400 -->
      <g transform="translate(515.432896 891.292541) scale(0.1 -0.1)">
       <defs>
        <path id="DejaVuSans-34" d="M 2419 4116 
L 825 1625 
L 2419 1625 
L 2419 4116 
z
M 2253 4666 
L 3047 4666 
L 3047 1625 
L 3713 1625 
L 3713 1100 
L 3047 1100 
L 3047 0 
L 2419 0 
L 2419 1100 
L 313 1100 
L 313 1709 
L 2253 4666 
z
" transform="scale(0.015625)"/>
       </defs>
       <use xlink:href="#DejaVuSans-34"/>
       <use xlink:href="#DejaVuSans-30" x="63.623047"/>
       <use xlink:href="#DejaVuSans-30" x="127.246094"/>
      </g>
     </g>
    </g>
    <g id="xtick_3">
     <g id="line2d_3">
      <g>
       <use xlink:href="#m0f0724ac9c" x="738.112271" y="876.694103" style="stroke: #000000; stroke-width: 0.8"/>
      </g>
     </g>
     <g id="text_3">
      <!-- 600 -->
      <g transform="translate(728.568521 891.292541) scale(0.1 -0.1)">
       <defs>
        <path id="DejaVuSans-36" d="M 2113 2584 
Q 1688 2584 1439 2293 
Q 1191 2003 1191 1497 
Q 1191 994 1439 701 
Q 1688 409 2113 409 
Q 2538 409 2786 701 
Q 3034 994 3034 1497 
Q 3034 2003 2786 2293 
Q 2538 2584 2113 2584 
z
M 3366 4563 
L 3366 3988 
Q 3128 4100 2886 4159 
Q 2644 4219 2406 4219 
Q 1781 4219 1451 3797 
Q 1122 3375 1075 2522 
Q 1259 2794 1537 2939 
Q 1816 3084 2150 3084 
Q 2853 3084 3261 2657 
Q 3669 2231 3669 1497 
Q 3669 778 3244 343 
Q 2819 -91 2113 -91 
Q 1303 -91 875 529 
Q 447 1150 447 2328 
Q 447 3434 972 4092 
Q 1497 4750 2381 4750 
Q 2619 4750 2861 4703 
Q 3103 4656 3366 4563 
z
" transform="scale(0.015625)"/>
       </defs>
       <use xlink:href="#DejaVuSans-36"/>
       <use xlink:href="#DejaVuSans-30" x="63.623047"/>
       <use xlink:href="#DejaVuSans-30" x="127.246094"/>
      </g>
     </g>
    </g>
    <g id="xtick_4">
     <g id="line2d_4">
      <g>
       <use xlink:href="#m0f0724ac9c" x="951.247896" y="876.694103" style="stroke: #000000; stroke-width: 0.8"/>
      </g>
     </g>
     <g id="text_4">
      <!-- 800 -->
      <g transform="translate(941.704146 891.292541) scale(0.1 -0.1)">
       <defs>
        <path id="DejaVuSans-38" d="M 2034 2216 
Q 1584 2216 1326 1975 
Q 1069 1734 1069 1313 
Q 1069 891 1326 650 
Q 1584 409 2034 409 
Q 2484 409 2743 651 
Q 3003 894 3003 1313 
Q 3003 1734 2745 1975 
Q 2488 2216 2034 2216 
z
M 1403 2484 
Q 997 2584 770 2862 
Q 544 3141 544 3541 
Q 544 4100 942 4425 
Q 1341 4750 2034 4750 
Q 2731 4750 3128 4425 
Q 3525 4100 3525 3541 
Q 3525 3141 3298 2862 
Q 3072 2584 2669 2484 
Q 3125 2378 3379 2068 
Q 3634 1759 3634 1313 
Q 3634 634 3220 271 
Q 2806 -91 2034 -91 
Q 1263 -91 848 271 
Q 434 634 434 1313 
Q 434 1759 690 2068 
Q 947 2378 1403 2484 
z
M 1172 3481 
Q 1172 3119 1398 2916 
Q 1625 2713 2034 2713 
Q 2441 2713 2670 2916 
Q 2900 3119 2900 3481 
Q 2900 3844 2670 4047 
Q 2441 4250 2034 4250 
Q 1625 4250 1398 4047 
Q 1172 3844 1172 3481 
z
" transform="scale(0.015625)"/>
       </defs>
       <use xlink:href="#DejaVuSans-38"/>
       <use xlink:href="#DejaVuSans-30" x="63.623047"/>
       <use xlink:href="#DejaVuSans-30" x="127.246094"/>
      </g>
     </g>
    </g>
    <g id="xtick_5">
     <g id="line2d_5">
      <g>
       <use xlink:href="#m0f0724ac9c" x="1164.38352" y="876.694103" style="stroke: #000000; stroke-width: 0.8"/>
      </g>
     </g>
     <g id="text_5">
      <!-- 1000 -->
      <g transform="translate(1151.65852 891.292541) scale(0.1 -0.1)">
       <defs>
        <path id="DejaVuSans-31" d="M 794 531 
L 1825 531 
L 1825 4091 
L 703 3866 
L 703 4441 
L 1819 4666 
L 2450 4666 
L 2450 531 
L 3481 531 
L 3481 0 
L 794 0 
L 794 531 
z
" transform="scale(0.015625)"/>
       </defs>
       <use xlink:href="#DejaVuSans-31"/>
       <use xlink:href="#DejaVuSans-30" x="63.623047"/>
       <use xlink:href="#DejaVuSans-30" x="127.246094"/>
       <use xlink:href="#DejaVuSans-30" x="190.869141"/>
      </g>
     </g>
    </g>
   </g>
   <g id="matplotlib.axis_2">
    <g id="ytick_1">
     <g id="line2d_6">
      <defs>
       <path id="mef194eb8e3" d="M 0 0 
L -3.5 0 
" style="stroke: #000000; stroke-width: 0.8"/>
      </defs>
      <g>
       <use xlink:href="#mef194eb8e3" x="180" y="788.480971" style="stroke: #000000; stroke-width: 0.8"/>
      </g>
     </g>
     <g id="text_6">
      <!-- 900 -->
      <g transform="translate(153.9125 792.280189) scale(0.1 -0.1)">
       <defs>
        <path id="DejaVuSans-39" d="M 703 97 
L 703 672 
Q 941 559 1184 500 
Q 1428 441 1663 441 
Q 2288 441 2617 861 
Q 2947 1281 2994 2138 
Q 2813 1869 2534 1725 
Q 2256 1581 1919 1581 
Q 1219 1581 811 2004 
Q 403 2428 403 3163 
Q 403 3881 828 4315 
Q 1253 4750 1959 4750 
Q 2769 4750 3195 4129 
Q 3622 3509 3622 2328 
Q 3622 1225 3098 567 
Q 2575 -91 1691 -91 
Q 1453 -91 1209 -44 
Q 966 3 703 97 
z
M 1959 2075 
Q 2384 2075 2632 2365 
Q 2881 2656 2881 3163 
Q 2881 3666 2632 3958 
Q 2384 4250 1959 4250 
Q 1534 4250 1286 3958 
Q 1038 3666 1038 3163 
Q 1038 2656 1286 2365 
Q 1534 2075 1959 2075 
z
" transform="scale(0.015625)"/>
       </defs>
       <use xlink:href="#DejaVuSans-39"/>
       <use xlink:href="#DejaVuSans-30" x="63.623047"/>
       <use xlink:href="#DejaVuSans-30" x="127.246094"/>
      </g>
     </g>
    </g>
    <g id="ytick_2">
     <g id="line2d_7">
      <g>
       <use xlink:href="#mef194eb8e3" x="180" y="681.913158" style="stroke: #000000; stroke-width: 0.8"/>
      </g>
     </g>
     <g id="text_7">
      <!-- 1000 -->
      <g transform="translate(147.55 685.712377) scale(0.1 -0.1)">
       <use xlink:href="#DejaVuSans-31"/>
       <use xlink:href="#DejaVuSans-30" x="63.623047"/>
       <use xlink:href="#DejaVuSans-30" x="127.246094"/>
       <use xlink:href="#DejaVuSans-30" x="190.869141"/>
      </g>
     </g>
    </g>
    <g id="ytick_3">
     <g id="line2d_8">
      <g>
       <use xlink:href="#mef194eb8e3" x="180" y="575.345346" style="stroke: #000000; stroke-width: 0.8"/>
      </g>
     </g>
     <g id="text_8">
      <!-- 1100 -->
      <g transform="translate(147.55 579.144565) scale(0.1 -0.1)">
       <use xlink:href="#DejaVuSans-31"/>
       <use xlink:href="#DejaVuSans-31" x="63.623047"/>
       <use xlink:href="#DejaVuSans-30" x="127.246094"/>
       <use xlink:href="#DejaVuSans-30" x="190.869141"/>
      </g>
     </g>
    </g>
    <g id="ytick_4">
     <g id="line2d_9">
      <g>
       <use xlink:href="#mef194eb8e3" x="180" y="468.777534" style="stroke: #000000; stroke-width: 0.8"/>
      </g>
     </g>
     <g id="text_9">
      <!-- 1200 -->
      <g transform="translate(147.55 472.576752) scale(0.1 -0.1)">
       <use xlink:href="#DejaVuSans-31"/>
       <use xlink:href="#DejaVuSans-32" x="63.623047"/>
       <use xlink:href="#DejaVuSans-30" x="127.246094"/>
       <use xlink:href="#DejaVuSans-30" x="190.869141"/>
      </g>
     </g>
    </g>
    <g id="ytick_5">
     <g id="line2d_10">
      <g>
       <use xlink:href="#mef194eb8e3" x="180" y="362.209721" style="stroke: #000000; stroke-width: 0.8"/>
      </g>
     </g>
     <g id="text_10">
      <!-- 1300 -->
      <g transform="translate(147.55 366.00894) scale(0.1 -0.1)">
       <defs>
        <path id="DejaVuSans-33" d="M 2597 2516 
Q 3050 2419 3304 2112 
Q 3559 1806 3559 1356 
Q 3559 666 3084 287 
Q 2609 -91 1734 -91 
Q 1441 -91 1130 -33 
Q 819 25 488 141 
L 488 750 
Q 750 597 1062 519 
Q 1375 441 1716 441 
Q 2309 441 2620 675 
Q 2931 909 2931 1356 
Q 2931 1769 2642 2001 
Q 2353 2234 1838 2234 
L 1294 2234 
L 1294 2753 
L 1863 2753 
Q 2328 2753 2575 2939 
Q 2822 3125 2822 3475 
Q 2822 3834 2567 4026 
Q 2313 4219 1838 4219 
Q 1578 4219 1281 4162 
Q 984 4106 628 3988 
L 628 4550 
Q 988 4650 1302 4700 
Q 1616 4750 1894 4750 
Q 2613 4750 3031 4423 
Q 3450 4097 3450 3541 
Q 3450 3153 3228 2886 
Q 3006 2619 2597 2516 
z
" transform="scale(0.015625)"/>
       </defs>
       <use xlink:href="#DejaVuSans-31"/>
       <use xlink:href="#DejaVuSans-33" x="63.623047"/>
       <use xlink:href="#DejaVuSans-30" x="127.246094"/>
       <use xlink:href="#DejaVuSans-30" x="190.869141"/>
      </g>
     </g>
    </g>
    <g id="ytick_6">
     <g id="line2d_11">
      <g>
       <use xlink:href="#mef194eb8e3" x="180" y="255.641909" style="stroke: #000000; stroke-width: 0.8"/>
      </g>
     </g>
     <g id="text_11">
      <!-- 1400 -->
      <g transform="translate(147.55 259.441128) scale(0.1 -0.1)">
       <use xlink:href="#DejaVuSans-31"/>
       <use xlink:href="#DejaVuSans-34" x="63.623047"/>
       <use xlink:href="#DejaVuSans-30" x="127.246094"/>
       <use xlink:href="#DejaVuSans-30" x="190.869141"/>
      </g>
     </g>
    </g>
   </g>
   <g id="LineCollection_1">
    <path d="M 1245.272727 843.347365 
L 1242.01275 817.73308 
L 1241.820375 816.618044 
L 1236.956898 794.35767 
L 1236.608455 793.082791 
L 1230.285016 773.904653 
L 1229.724542 772.49289 
L 1222.077915 756.137866 
L 1221.256885 754.64874 
L 1212.417156 740.870105 
L 1211.31857 739.401317 
L 1201.409213 727.964564 
L 1200.764407 727.273693 
L 1200.070342 726.632327 
L 1189.208306 717.314985 
L 1187.721906 716.215993 
L 1176.017714 708.807423 
L 1174.50336 707.986186 
L 1162.061211 702.287371 
L 1160.62534 701.731651 
L 1147.54322 697.554973 
L 1146.254413 697.21638 
L 1132.624217 694.385387 
L 1131.511508 694.205018 
L 1117.41916 692.554176 
L 1116.483441 692.47925 
L 1102.009032 691.853689 
L 1101.236078 691.843668 
L 1086.453999 692.098917 
L 1085.823858 692.125353 
L 1070.80295 693.12707 
L 1070.295232 693.171105 
L 1055.098932 694.794789 
L 1054.695226 694.84443 
L 1039.381722 696.975135 
L 1039.066387 697.023027 
L 1023.688782 699.555066 
L 1023.448958 699.596904 
L 1008.055431 702.433542 
L 1007.88073 702.466992 
L 992.514705 705.520135 
L 992.396803 705.544139 
L 977.097123 708.734019 
L 977.029364 708.748338 
L 961.830468 712.003192 
L 961.807516 712.008129 
L 946.748387 715.261977 
L 931.873659 718.454145 
L 917.21386 721.533455 
L 902.784845 724.458046 
L 888.599299 727.192512 
L 874.666781 729.707529 
L 860.9938 731.979481 
L 847.583905 733.990081 
L 834.437793 735.725987 
L 821.553441 737.178403 
L 808.926261 738.34269 
L 796.549279 739.217955 
L 784.41334 739.806663 
L 772.507341 740.114238 
L 760.81849 740.148694 
L 749.33258 739.92028 
L 738.034278 739.441147 
L 726.907418 738.72505 
L 715.935287 737.787069 
L 705.100901 736.643359 
L 694.387252 735.310912 
L 683.777543 733.807334 
L 673.255384 732.150629 
L 662.804977 730.358977 
L 652.411264 728.450509 
L 642.060068 726.443076 
L 631.738216 724.354009 
L 621.433643 722.199865 
L 611.135498 719.996181 
L 600.834229 717.75721 
L 590.521676 715.495672 
L 580.189773 713.222206 
L 569.831824 710.945393 
L 559.465353 708.676515 
L 559.44881 708.672906 
L 549.057244 706.41295 
L 549.038919 706.408978 
L 538.618496 704.158742 
L 538.602022 704.155196 
L 528.139719 701.910346 
L 517.655376 699.670287 
L 507.148158 697.426562 
L 496.628382 695.169585 
L 486.105577 692.886046 
L 475.59045 690.559316 
L 465.095584 688.16962 
L 454.635423 685.694084 
L 444.226228 683.106828 
L 433.886003 680.379076 
L 423.634367 677.479306 
L 413.49236 674.373407 
L 403.482164 671.02484 
L 393.626719 667.394773 
L 383.949227 663.442149 
L 374.472555 659.123639 
L 365.218573 654.393409 
L 356.207512 649.202668 
L 347.457489 643.498967 
L 338.984367 637.225339 
L 330.802116 630.319424 
L 322.923748 622.712876 
L 315.362716 614.331335 
L 308.134499 605.095183 
L 301.257943 594.921091 
L 294.75599 583.724086 
L 288.655609 571.419757 
L 282.986986 557.926191 
L 277.782237 543.165371 
L 273.073926 527.064025 
L 268.893679 509.553995 
L 265.27099 490.572334 
L 262.232299 470.061304 
L 259.800285 447.968401 
L 257.993323 424.246475 
L 256.82505 398.854001 
L 256.30397 371.755478 
L 256.433082 342.921953 
L 257.209486 312.331657 
L 258.623972 279.970726 
L 260.665774 245.746713 
" clip-path="url(#p4ddb6280b8)" style="fill: none; stroke: #1f77b4; stroke-width: 1.5"/>
    <path d="M 1232.58692 844.961911 
L 1229.326943 819.347626 
L 1224.463466 797.087252 
L 1218.140027 777.909113 
L 1210.4934 761.55409 
L 1201.653671 747.775454 
L 1191.744313 736.338702 
L 1180.882277 727.02136 
L 1169.178086 719.612789 
L 1156.735937 713.913974 
L 1143.653817 709.737297 
L 1130.023621 706.906304 
L 1115.931273 705.255461 
L 1101.456864 704.6299 
L 1086.674785 704.885149 
L 1071.653877 705.886865 
L 1056.457577 707.510549 
L 1041.144074 709.641255 
L 1025.766469 712.173294 
L 1010.372942 715.009932 
L 995.006917 718.063075 
L 979.707237 721.252955 
L 964.508341 724.507809 
L 949.440442 727.763552 
L 934.529712 730.963446 
L 919.798465 734.057764 
L 905.265343 737.003456 
L 890.94551 739.763808 
L 876.85084 742.308096 
L 862.990108 744.611245 
L 849.369186 746.653486 
L 835.991234 748.420005 
L 822.856898 749.900601 
L 809.964497 751.089342 
L 797.310225 751.984217 
L 784.888336 752.586796 
L 772.69134 752.901888 
L 760.710194 752.937206 
L 748.934486 752.703029 
L 737.352626 752.211871 
L 725.952029 751.478157 
L 714.719293 750.517898 
L 703.640383 749.348375 
L 692.7008 747.987829 
L 681.885757 746.455152 
L 671.180342 744.769593 
L 660.569684 742.950467 
L 650.03911 741.016869 
L 639.574295 738.987402 
L 629.161415 736.879911 
L 618.787282 734.711226 
L 608.439486 732.496917 
L 598.106522 730.251057 
L 587.777909 727.985998 
L 577.444312 725.712158 
L 567.097645 723.437819 
L 556.731174 721.168942 
L 546.339608 718.908985 
L 535.919184 716.658749 
L 525.467742 714.416225 
L 514.984791 712.176463 
L 504.471565 709.931455 
L 493.931072 707.670033 
L 483.36813 705.377784 
L 472.789392 703.036979 
L 462.203366 700.626525 
L 451.620416 698.12193 
L 441.052757 695.495286 
L 430.514439 692.715278 
L 420.021312 689.7472 
L 409.590987 686.553006 
L 399.242782 683.09137 
L 388.997648 679.317768 
L 378.878093 675.184591 
L 368.908084 670.641267 
L 359.112938 665.634418 
L 349.519196 660.108028 
L 340.15449 654.003647 
L 331.047385 647.260608 
L 322.227208 639.816276 
L 313.723871 631.606322 
L 305.567662 622.565015 
L 297.789035 612.625554 
L 290.41837 601.720412 
L 283.485727 589.781717 
L 277.020576 576.741657 
L 271.051512 562.532919 
L 265.605948 547.089145 
L 260.709798 530.34543 
L 256.387133 512.238845 
L 252.659819 492.708987 
L 249.547144 471.698567 
L 247.065413 449.154022 
L 245.227531 425.026168 
L 244.042564 399.270876 
L 243.515282 371.849789 
L 243.645671 342.731067 
L 244.428435 311.89017 
L 245.852475 279.310676 
L 247.900334 244.985128 
" clip-path="url(#p4ddb6280b8)" style="fill: none; stroke: #8c564b; stroke-width: 1.5"/>
    <path d="M 1219.901113 846.576457 
L 1216.712634 821.52395 
L 1212.111272 800.463288 
L 1206.233279 782.636128 
L 1199.269787 767.74223 
L 1191.386676 755.454692 
L 1182.699523 745.42853 
L 1173.25963 737.331087 
L 1163.067914 730.87989 
L 1152.11184 725.861735 
L 1140.399985 722.122537 
L 1127.975401 719.541949 
L 1114.90987 718.011393 
L 1101.291021 717.422807 
L 1087.210967 717.665934 
L 1072.759102 718.629702 
L 1058.01847 720.204699 
L 1043.064392 722.285395 
L 1027.964267 724.771745 
L 1012.77792 727.570205 
L 997.558136 730.59429 
L 967.197691 737.009969 
L 922.338813 746.591043 
L 907.685878 749.560426 
L 893.217234 752.34855 
L 878.947022 754.923264 
L 864.886291 757.258021 
L 851.043289 759.331571 
L 837.423732 761.127656 
L 824.031045 762.634722 
L 810.866586 763.845623 
L 797.929842 764.757335 
L 785.218589 765.370668 
L 772.729037 765.68997 
L 760.455933 765.722816 
L 748.39266 765.479683 
L 736.531313 764.973607 
L 724.862776 764.21982 
L 713.376799 763.235373 
L 702.062093 762.038744 
L 690.906431 760.649452 
L 679.896778 759.087666 
L 669.019429 757.373835 
L 658.260169 755.528328 
L 637.037505 751.521402 
L 616.111349 747.216259 
L 585.038574 740.477295 
L 533.228109 729.160535 
L 469.950188 715.505956 
L 448.535719 710.532454 
L 437.790837 707.860412 
L 427.033761 705.020615 
L 416.276715 701.97481 
L 405.534121 698.68059 
L 394.822805 695.091381 
L 384.162295 691.15651 
L 373.575201 686.82142 
L 363.087655 682.028061 
L 352.729752 676.715546 
L 342.535885 670.821096 
L 332.5448 664.281247 
L 322.799193 657.033212 
L 313.34473 649.01617 
L 304.228469 640.172172 
L 295.4969 630.446399 
L 287.193973 619.786639 
L 279.35953 608.142134 
L 272.028447 595.462139 
L 265.230556 581.694623 
L 258.991153 566.785471 
L 253.331815 550.678312 
L 248.271213 533.314949 
L 243.825721 514.636216 
L 240.009751 494.583084 
L 236.835792 473.097848 
L 234.314215 450.125315 
L 232.452907 425.613911 
L 231.256791 399.516735 
L 230.727273 371.792527 
L 230.86165 342.406599 
L 231.652497 311.331738 
L 233.087035 278.549091 
L 235.134894 244.223543 
L 235.134894 244.223543 
" clip-path="url(#p4ddb6280b8)" style="fill: none; stroke: #17becf; stroke-width: 1.5"/>
   </g>
   <g id="patch_3">
    <path d="M 180 876.694103 
L 180 214.105897 
" style="fill: none; stroke: #000000; stroke-width: 0.8; stroke-linejoin: miter; stroke-linecap: square"/>
   </g>
   <g id="patch_4">
    <path d="M 1296 876.694103 
L 1296 214.105897 
" style="fill: none; stroke: #000000; stroke-width: 0.8; stroke-linejoin: miter; stroke-linecap: square"/>
   </g>
   <g id="patch_5">
    <path d="M 180 876.694103 
L 1296 876.694103 
" style="fill: none; stroke: #000000; stroke-width: 0.8; stroke-linejoin: miter; stroke-linecap: square"/>
   </g>
   <g id="patch_6">
    <path d="M 180 214.105897 
L 1296 214.105897 
" style="fill: none; stroke: #000000; stroke-width: 0.8; stroke-linejoin: miter; stroke-linecap: square"/>
   </g>
  </g>
 </g>
 <defs>
  <clipPath id="p4ddb6280b8">
   <rect x="180" y="214.105897" width="1116" height="662.588206"/>
  </clipPath>
 </defs>
</svg>
