<?xml version="1.0" encoding="utf-8" standalone="no"?>
<!DOCTYPE svg PUBLIC "-//W3C//DTD SVG 1.1//EN"
  "http://www.w3.org/Graphics/SVG/1.1/DTD/svg11.dtd">
<svg xmlns:xlink="http://www.w3.org/1999/xlink" width="1440pt" height="1080pt" viewBox="0 0 1440 1080" xmlns="http://www.w3.org/2000/svg" version="1.1">
 <metadata>
  <rdf:RDF xmlns:dc="http://purl.org/dc/elements/1.1/" xmlns:cc="http://creativecommons.org/ns#" xmlns:rdf="http://www.w3.org/1999/02/22-rdf-syntax-ns#">
   <cc:Work>
    <dc:type rdf:resource="http://purl.org/dc/dcmitype/StillImage"/>
    <dc:date>2023-12-11T12:06:37.090358</dc:date>
    <dc:format>image/svg+xml</dc:format>
    <dc:creator>
     <cc:Agent>
      <dc:title>Matplotlib v3.7.1, https://matplotlib.org/</dc:title>
     </cc:Agent>
    </dc:creator>
   </cc:Work>
  </rdf:RDF>
 </metadata>
 <defs>
  <style type="text/css">*{stroke-linejoin: round; stroke-linecap: butt}</style>
 </defs>
 <g id="figure_1">
  <g id="patch_1">
   <path d="M 0 1080 
L 1440 1080 
L 1440 0 
L 0 0 
z
" style="fill: #ffffff"/>
  </g>
  <g id="axes_1">
   <g id="patch_2">
    <path d="M 180 816.950381 
L 1296 816.950381 
L 1296 273.849619 
L 180 273.849619 
z
" style="fill: #ffffff"/>
   </g>
   <g id="matplotlib.axis_1">
    <g id="xtick_1">
     <g id="line2d_1">
      <defs>
       <path id="mbb5b1f2ae2" d="M 0 0 
L 0 3.5 
" style="stroke: #000000; stroke-width: 0.8"/>
      </defs>
      <g>
       <use xlink:href="#mbb5b1f2ae2" x="356.6594" y="816.950381" style="stroke: #000000; stroke-width: 0.8"/>
      </g>
     </g>
     <g id="text_1">
      <!-- 400 -->
      <g transform="translate(347.11565 831.548818) scale(0.1 -0.1)">
       <defs>
        <path id="DejaVuSans-34" d="M 2419 4116 
L 825 1625 
L 2419 1625 
L 2419 4116 
z
M 2253 4666 
L 3047 4666 
L 3047 1625 
L 3713 1625 
L 3713 1100 
L 3047 1100 
L 3047 0 
L 2419 0 
L 2419 1100 
L 313 1100 
L 313 1709 
L 2253 4666 
z
" transform="scale(0.015625)"/>
        <path id="DejaVuSans-30" d="M 2034 4250 
Q 1547 4250 1301 3770 
Q 1056 3291 1056 2328 
Q 1056 1369 1301 889 
Q 1547 409 2034 409 
Q 2525 409 2770 889 
Q 3016 1369 3016 2328 
Q 3016 3291 2770 3770 
Q 2525 4250 2034 4250 
z
M 2034 4750 
Q 2819 4750 3233 4129 
Q 3647 3509 3647 2328 
Q 3647 1150 3233 529 
Q 2819 -91 2034 -91 
Q 1250 -91 836 529 
Q 422 1150 422 2328 
Q 422 3509 836 4129 
Q 1250 4750 2034 4750 
z
" transform="scale(0.015625)"/>
       </defs>
       <use xlink:href="#DejaVuSans-34"/>
       <use xlink:href="#DejaVuSans-30" x="63.623047"/>
       <use xlink:href="#DejaVuSans-30" x="127.246094"/>
      </g>
     </g>
    </g>
    <g id="xtick_2">
     <g id="line2d_2">
      <g>
       <use xlink:href="#mbb5b1f2ae2" x="589.225315" y="816.950381" style="stroke: #000000; stroke-width: 0.8"/>
      </g>
     </g>
     <g id="text_2">
      <!-- 600 -->
      <g transform="translate(579.681565 831.548818) scale(0.1 -0.1)">
       <defs>
        <path id="DejaVuSans-36" d="M 2113 2584 
Q 1688 2584 1439 2293 
Q 1191 2003 1191 1497 
Q 1191 994 1439 701 
Q 1688 409 2113 409 
Q 2538 409 2786 701 
Q 3034 994 3034 1497 
Q 3034 2003 2786 2293 
Q 2538 2584 2113 2584 
z
M 3366 4563 
L 3366 3988 
Q 3128 4100 2886 4159 
Q 2644 4219 2406 4219 
Q 1781 4219 1451 3797 
Q 1122 3375 1075 2522 
Q 1259 2794 1537 2939 
Q 1816 3084 2150 3084 
Q 2853 3084 3261 2657 
Q 3669 2231 3669 1497 
Q 3669 778 3244 343 
Q 2819 -91 2113 -91 
Q 1303 -91 875 529 
Q 447 1150 447 2328 
Q 447 3434 972 4092 
Q 1497 4750 2381 4750 
Q 2619 4750 2861 4703 
Q 3103 4656 3366 4563 
z
" transform="scale(0.015625)"/>
       </defs>
       <use xlink:href="#DejaVuSans-36"/>
       <use xlink:href="#DejaVuSans-30" x="63.623047"/>
       <use xlink:href="#DejaVuSans-30" x="127.246094"/>
      </g>
     </g>
    </g>
    <g id="xtick_3">
     <g id="line2d_3">
      <g>
       <use xlink:href="#mbb5b1f2ae2" x="821.79123" y="816.950381" style="stroke: #000000; stroke-width: 0.8"/>
      </g>
     </g>
     <g id="text_3">
      <!-- 800 -->
      <g transform="translate(812.24748 831.548818) scale(0.1 -0.1)">
       <defs>
        <path id="DejaVuSans-38" d="M 2034 2216 
Q 1584 2216 1326 1975 
Q 1069 1734 1069 1313 
Q 1069 891 1326 650 
Q 1584 409 2034 409 
Q 2484 409 2743 651 
Q 3003 894 3003 1313 
Q 3003 1734 2745 1975 
Q 2488 2216 2034 2216 
z
M 1403 2484 
Q 997 2584 770 2862 
Q 544 3141 544 3541 
Q 544 4100 942 4425 
Q 1341 4750 2034 4750 
Q 2731 4750 3128 4425 
Q 3525 4100 3525 3541 
Q 3525 3141 3298 2862 
Q 3072 2584 2669 2484 
Q 3125 2378 3379 2068 
Q 3634 1759 3634 1313 
Q 3634 634 3220 271 
Q 2806 -91 2034 -91 
Q 1263 -91 848 271 
Q 434 634 434 1313 
Q 434 1759 690 2068 
Q 947 2378 1403 2484 
z
M 1172 3481 
Q 1172 3119 1398 2916 
Q 1625 2713 2034 2713 
Q 2441 2713 2670 2916 
Q 2900 3119 2900 3481 
Q 2900 3844 2670 4047 
Q 2441 4250 2034 4250 
Q 1625 4250 1398 4047 
Q 1172 3844 1172 3481 
z
" transform="scale(0.015625)"/>
       </defs>
       <use xlink:href="#DejaVuSans-38"/>
       <use xlink:href="#DejaVuSans-30" x="63.623047"/>
       <use xlink:href="#DejaVuSans-30" x="127.246094"/>
      </g>
     </g>
    </g>
    <g id="xtick_4">
     <g id="line2d_4">
      <g>
       <use xlink:href="#mbb5b1f2ae2" x="1054.357146" y="816.950381" style="stroke: #000000; stroke-width: 0.8"/>
      </g>
     </g>
     <g id="text_4">
      <!-- 1000 -->
      <g transform="translate(1041.632146 831.548818) scale(0.1 -0.1)">
       <defs>
        <path id="DejaVuSans-31" d="M 794 531 
L 1825 531 
L 1825 4091 
L 703 3866 
L 703 4441 
L 1819 4666 
L 2450 4666 
L 2450 531 
L 3481 531 
L 3481 0 
L 794 0 
L 794 531 
z
" transform="scale(0.015625)"/>
       </defs>
       <use xlink:href="#DejaVuSans-31"/>
       <use xlink:href="#DejaVuSans-30" x="63.623047"/>
       <use xlink:href="#DejaVuSans-30" x="127.246094"/>
       <use xlink:href="#DejaVuSans-30" x="190.869141"/>
      </g>
     </g>
    </g>
    <g id="xtick_5">
     <g id="line2d_5">
      <g>
       <use xlink:href="#mbb5b1f2ae2" x="1286.923061" y="816.950381" style="stroke: #000000; stroke-width: 0.8"/>
      </g>
     </g>
     <g id="text_5">
      <!-- 1200 -->
      <g transform="translate(1274.198061 831.548818) scale(0.1 -0.1)">
       <defs>
        <path id="DejaVuSans-32" d="M 1228 531 
L 3431 531 
L 3431 0 
L 469 0 
L 469 531 
Q 828 903 1448 1529 
Q 2069 2156 2228 2338 
Q 2531 2678 2651 2914 
Q 2772 3150 2772 3378 
Q 2772 3750 2511 3984 
Q 2250 4219 1831 4219 
Q 1534 4219 1204 4116 
Q 875 4013 500 3803 
L 500 4441 
Q 881 4594 1212 4672 
Q 1544 4750 1819 4750 
Q 2544 4750 2975 4387 
Q 3406 4025 3406 3419 
Q 3406 3131 3298 2873 
Q 3191 2616 2906 2266 
Q 2828 2175 2409 1742 
Q 1991 1309 1228 531 
z
" transform="scale(0.015625)"/>
       </defs>
       <use xlink:href="#DejaVuSans-31"/>
       <use xlink:href="#DejaVuSans-32" x="63.623047"/>
       <use xlink:href="#DejaVuSans-30" x="127.246094"/>
       <use xlink:href="#DejaVuSans-30" x="190.869141"/>
      </g>
     </g>
    </g>
   </g>
   <g id="matplotlib.axis_2">
    <g id="ytick_1">
     <g id="line2d_6">
      <defs>
       <path id="m73161ab909" d="M 0 0 
L -3.5 0 
" style="stroke: #000000; stroke-width: 0.8"/>
      </defs>
      <g>
       <use xlink:href="#m73161ab909" x="180" y="774.951333" style="stroke: #000000; stroke-width: 0.8"/>
      </g>
     </g>
     <g id="text_6">
      <!-- 500 -->
      <g transform="translate(153.9125 778.750551) scale(0.1 -0.1)">
       <defs>
        <path id="DejaVuSans-35" d="M 691 4666 
L 3169 4666 
L 3169 4134 
L 1269 4134 
L 1269 2991 
Q 1406 3038 1543 3061 
Q 1681 3084 1819 3084 
Q 2600 3084 3056 2656 
Q 3513 2228 3513 1497 
Q 3513 744 3044 326 
Q 2575 -91 1722 -91 
Q 1428 -91 1123 -41 
Q 819 9 494 109 
L 494 744 
Q 775 591 1075 516 
Q 1375 441 1709 441 
Q 2250 441 2565 725 
Q 2881 1009 2881 1497 
Q 2881 1984 2565 2268 
Q 2250 2553 1709 2553 
Q 1456 2553 1204 2497 
Q 953 2441 691 2322 
L 691 4666 
z
" transform="scale(0.015625)"/>
       </defs>
       <use xlink:href="#DejaVuSans-35"/>
       <use xlink:href="#DejaVuSans-30" x="63.623047"/>
       <use xlink:href="#DejaVuSans-30" x="127.246094"/>
      </g>
     </g>
    </g>
    <g id="ytick_2">
     <g id="line2d_7">
      <g>
       <use xlink:href="#m73161ab909" x="180" y="658.668375" style="stroke: #000000; stroke-width: 0.8"/>
      </g>
     </g>
     <g id="text_7">
      <!-- 600 -->
      <g transform="translate(153.9125 662.467594) scale(0.1 -0.1)">
       <use xlink:href="#DejaVuSans-36"/>
       <use xlink:href="#DejaVuSans-30" x="63.623047"/>
       <use xlink:href="#DejaVuSans-30" x="127.246094"/>
      </g>
     </g>
    </g>
    <g id="ytick_3">
     <g id="line2d_8">
      <g>
       <use xlink:href="#m73161ab909" x="180" y="542.385417" style="stroke: #000000; stroke-width: 0.8"/>
      </g>
     </g>
     <g id="text_8">
      <!-- 700 -->
      <g transform="translate(153.9125 546.184636) scale(0.1 -0.1)">
       <defs>
        <path id="DejaVuSans-37" d="M 525 4666 
L 3525 4666 
L 3525 4397 
L 1831 0 
L 1172 0 
L 2766 4134 
L 525 4134 
L 525 4666 
z
" transform="scale(0.015625)"/>
       </defs>
       <use xlink:href="#DejaVuSans-37"/>
       <use xlink:href="#DejaVuSans-30" x="63.623047"/>
       <use xlink:href="#DejaVuSans-30" x="127.246094"/>
      </g>
     </g>
    </g>
    <g id="ytick_4">
     <g id="line2d_9">
      <g>
       <use xlink:href="#m73161ab909" x="180" y="426.10246" style="stroke: #000000; stroke-width: 0.8"/>
      </g>
     </g>
     <g id="text_9">
      <!-- 800 -->
      <g transform="translate(153.9125 429.901678) scale(0.1 -0.1)">
       <use xlink:href="#DejaVuSans-38"/>
       <use xlink:href="#DejaVuSans-30" x="63.623047"/>
       <use xlink:href="#DejaVuSans-30" x="127.246094"/>
      </g>
     </g>
    </g>
    <g id="ytick_5">
     <g id="line2d_10">
      <g>
       <use xlink:href="#m73161ab909" x="180" y="309.819502" style="stroke: #000000; stroke-width: 0.8"/>
      </g>
     </g>
     <g id="text_10">
      <!-- 900 -->
      <g transform="translate(153.9125 313.618721) scale(0.1 -0.1)">
       <defs>
        <path id="DejaVuSans-39" d="M 703 97 
L 703 672 
Q 941 559 1184 500 
Q 1428 441 1663 441 
Q 2288 441 2617 861 
Q 2947 1281 2994 2138 
Q 2813 1869 2534 1725 
Q 2256 1581 1919 1581 
Q 1219 1581 811 2004 
Q 403 2428 403 3163 
Q 403 3881 828 4315 
Q 1253 4750 1959 4750 
Q 2769 4750 3195 4129 
Q 3622 3509 3622 2328 
Q 3622 1225 3098 567 
Q 2575 -91 1691 -91 
Q 1453 -91 1209 -44 
Q 966 3 703 97 
z
M 1959 2075 
Q 2384 2075 2632 2365 
Q 2881 2656 2881 3163 
Q 2881 3666 2632 3958 
Q 2384 4250 1959 4250 
Q 1534 4250 1286 3958 
Q 1038 3666 1038 3163 
Q 1038 2656 1286 2365 
Q 1534 2075 1959 2075 
z
" transform="scale(0.015625)"/>
       </defs>
       <use xlink:href="#DejaVuSans-39"/>
       <use xlink:href="#DejaVuSans-30" x="63.623047"/>
       <use xlink:href="#DejaVuSans-30" x="127.246094"/>
      </g>
     </g>
    </g>
   </g>
   <g id="LineCollection_1">
    <path d="M 1191.359505 298.536018 
L 1181.267431 313.434224 
L 1171.550084 326.866587 
L 1161.931462 339.314895 
L 1152.40761 350.857435 
L 1142.973312 361.571593 
L 1133.622142 371.53311 
L 1124.346664 380.815388 
L 1115.138757 389.488881 
L 1105.99002 397.620616 
L 1096.892221 405.273856 
L 1087.837733 412.507921 
L 1078.81991 419.378131 
L 1069.833384 425.935869 
L 1060.874246 432.2287 
L 1051.940139 438.30053 
L 1043.030237 444.191778 
L 1034.145165 449.939512 
L 1025.286849 455.577576 
L 1016.458332 461.136676 
L 1007.663562 466.644431 
L 998.932195 472.109761 
L 998.882186 472.141127 
L 990.24439 477.569708 
L 990.144271 477.632884 
L 981.602114 483.044784 
L 981.458513 483.13629 
L 973.01056 488.550629 
L 972.830451 488.6669 
L 964.474856 494.099991 
L 964.265364 494.237359 
L 955.999878 499.702797 
L 955.768099 499.857488 
L 947.590088 505.366255 
L 947.342931 505.534397 
L 939.249385 511.094967 
L 938.993441 511.272618 
L 930.980996 516.891081 
L 930.722434 517.074273 
L 922.787387 522.754458 
L 922.531875 522.93924 
L 914.670212 528.682856 
L 914.422871 528.865356 
L 906.630287 534.672125 
L 906.395669 534.848606 
L 898.667594 540.716418 
L 898.449682 540.883328 
L 890.781311 546.808386 
L 890.583544 546.962412 
L 882.969859 552.939391 
L 882.795169 553.077496 
L 875.230972 559.099696 
L 875.081828 559.219153 
L 867.561769 565.27866 
L 867.440233 565.377074 
L 859.95884 571.464921 
L 859.86662 571.540245 
L 852.418328 577.646567 
L 852.356831 577.697111 
L 844.936011 583.811309 
L 844.906393 583.835741 
L 837.508987 589.945309 
L 830.146113 596.024773 
L 822.82762 602.049582 
L 815.548464 608.007622 
L 808.303545 613.887124 
L 801.08773 619.676797 
L 793.895874 625.365935 
L 786.722822 630.944527 
L 779.563411 636.403352 
L 772.412453 641.734055 
L 765.26473 646.929209 
L 758.114965 651.982361 
L 750.957816 656.888051 
L 743.787852 661.641811 
L 736.599545 666.240147 
L 729.387274 670.680485 
L 722.14533 674.961109 
L 714.86794 679.081064 
L 707.54931 683.040055 
L 700.183669 686.838314 
L 692.765338 690.47647 
L 685.288803 693.955393 
L 677.748793 697.27604 
L 670.140362 700.439291 
L 662.458966 703.445777 
L 654.700528 706.295701 
L 646.861494 708.988651 
L 638.938868 711.52341 
L 630.930214 713.897747 
L 622.833645 716.108206 
L 614.647761 718.149877 
L 606.37156 720.01616 
L 598.004287 721.698526 
L 589.54524 723.186258 
L 580.993483 724.466195 
L 572.347484 725.522456 
L 563.604624 726.336147 
L 554.760576 726.885017 
L 545.808522 727.143049 
L 536.738198 727.079906 
L 527.534773 726.660193 
L 518.177625 725.842422 
L 508.639105 724.577634 
L 498.883463 722.807604 
L 488.866144 720.462667 
L 478.533683 717.4593 
L 467.824357 713.69769 
L 456.6696 709.059614 
L 444.995987 703.406934 
L 432.727427 696.580901 
L 419.787084 688.402215 
L 406.098652 678.671622 
L 391.586746 667.170661 
L 376.176436 653.66218 
L 359.79211 637.890367 
L 342.355945 619.580161 
L 323.786244 598.436086 
L 303.995865 574.140615 
L 282.584839 545.949332 
" clip-path="url(#pbab67f3f1b)" style="fill: none; stroke: #1f77b4; stroke-width: 1.5"/>
    <path d="M 1218.316116 316.796479 
L 1207.942087 332.110916 
L 1197.628657 346.367248 
L 1187.377042 359.634768 
L 1177.189004 371.982276 
L 1167.066743 383.477727 
L 1157.012786 394.187901 
L 1147.029898 404.178108 
L 1137.120987 413.51192 
L 1127.289023 422.250932 
L 1117.536971 430.454543 
L 1107.867713 438.179776 
L 1098.283999 445.48111 
L 1088.788386 452.410343 
L 1079.383194 459.016479 
L 1070.070463 465.345631 
L 1060.851922 471.440951 
L 1051.728954 477.34258 
L 1042.702576 483.087612 
L 1033.773414 488.710084 
L 1024.941698 494.240977 
L 1016.207243 499.70824 
L 1007.569447 505.136821 
L 999.02729 510.548722 
L 990.579337 515.963061 
L 982.223741 521.396152 
L 973.958256 526.86159 
L 965.780245 532.370357 
L 957.6867 537.930927 
L 949.674254 543.54939 
L 941.739207 549.229576 
L 933.877544 554.973191 
L 926.08496 560.77996 
L 918.356886 566.647772 
L 910.688515 572.57283 
L 903.07483 578.549809 
L 895.510633 584.572008 
L 887.990574 590.631515 
L 880.509182 596.719362 
L 873.06089 602.825685 
L 865.640071 608.939883 
L 858.241061 615.050775 
L 850.858191 621.14675 
L 843.485813 627.215919 
L 836.118326 633.246258 
L 828.750201 639.225746 
L 821.376004 645.142498 
L 813.990418 650.984886 
L 806.58826 656.741659 
L 799.164498 662.402043 
L 791.714266 667.955841 
L 784.232873 673.393514 
L 776.715814 678.706255 
L 769.158769 683.886043 
L 761.557607 688.925692 
L 753.908383 693.818875 
L 746.207327 698.560141 
L 738.450835 703.144907 
L 730.635451 707.569438 
L 722.757845 711.830804 
L 714.814788 715.926821 
L 706.803116 719.855968 
L 698.719695 723.617283 
L 690.561375 727.210236 
L 682.324941 730.634584 
L 674.007055 733.89019 
L 665.604196 736.97683 
L 657.112584 739.893961 
L 648.528107 742.640472 
L 639.846235 745.2144 
L 631.061925 747.61262 
L 622.169523 749.830506 
L 613.162655 751.861554 
L 604.034108 753.696986 
L 594.775704 755.325304 
L 585.378168 756.731829 
L 575.830979 757.898186 
L 566.122221 758.801772 
L 556.238416 759.415171 
L 546.164354 759.705543 
L 535.882906 759.633969 
L 525.374833 759.154758 
L 514.618579 758.214712 
L 503.590057 756.752354 
L 492.262421 754.697106 
L 480.605828 751.968434 
L 468.587189 748.474941 
L 456.169905 744.113418 
L 443.313594 738.767846 
L 429.973804 732.308358 
L 416.101715 724.590147 
L 401.643824 715.452324 
L 386.541621 704.716735 
L 370.73125 692.186715 
L 354.143155 677.645804 
L 336.701716 660.856397 
L 318.324865 641.558351 
L 298.923693 619.467535 
L 278.402036 594.274317 
L 256.656056 565.642009 
" clip-path="url(#pbab67f3f1b)" style="fill: none; stroke: #8c564b; stroke-width: 1.5"/>
    <path d="M 1245.272727 335.056941 
L 1234.322071 351.194934 
L 1223.392812 366.274827 
L 1212.491019 380.356532 
L 1201.625051 393.499315 
L 1190.805343 405.761852 
L 1180.044072 417.202314 
L 1169.354707 427.878451 
L 1158.751453 437.84762 
L 1148.248662 447.166727 
L 1137.860236 455.892079 
L 1127.599083 464.079127 
L 1117.476661 471.782157 
L 1107.502634 479.053922 
L 1097.684643 485.94528 
L 1088.028199 492.504848 
L 1069.413695 504.680343 
L 1060.051465 510.639733 
L 1008.23836 543.317654 
L 992.032855 553.943533 
L 976.252411 564.678674 
L 960.819231 575.612921 
L 945.65734 586.800084 
L 930.694898 598.260642 
L 915.865041 609.984811 
L 901.105703 621.936226 
L 864.179478 652.353054 
L 849.126295 664.620985 
L 833.978852 676.686362 
L 818.623986 688.506289 
L 810.856993 694.293254 
L 803.024767 699.982385 
L 795.123698 705.562412 
L 787.15063 711.022665 
L 779.102877 716.353175 
L 770.978216 721.54475 
L 762.774868 726.589053 
L 754.491453 731.478666 
L 746.126924 736.207134 
L 737.680475 740.768988 
L 729.151429 745.159749 
L 720.539098 749.375896 
L 711.842628 753.414799 
L 703.060825 757.274618 
L 694.191974 760.954163 
L 685.233646 764.4527 
L 676.182508 767.769729 
L 667.034137 770.904703 
L 657.782832 773.856708 
L 648.421453 776.624095 
L 638.94126 779.204066 
L 629.331786 781.592202 
L 619.58073 783.78195 
L 609.673891 785.764043 
L 599.595146 787.525868 
L 589.326496 789.050771 
L 578.848199 790.317312 
L 568.139 791.298478 
L 557.176506 791.960882 
L 545.9377 792.263982 
L 534.399614 792.159393 
L 522.540115 791.590352 
L 510.338755 790.491429 
L 497.777519 788.788548 
L 484.841305 786.39932 
L 471.517882 783.233631 
L 457.797137 779.194285 
L 443.669494 774.1774 
L 429.123611 768.072243 
L 414.143632 760.76023 
L 398.70644 752.113005 
L 382.779359 741.989757 
L 366.318645 730.234074 
L 349.268847 716.670763 
L 331.562941 701.102941 
L 313.122977 683.309602 
L 293.860945 663.043693 
L 273.679622 640.030614 
L 252.473253 613.966994 
L 230.727273 585.334686 
L 230.727273 585.334686 
" clip-path="url(#pbab67f3f1b)" style="fill: none; stroke: #17becf; stroke-width: 1.5"/>
   </g>
   <g id="patch_3">
    <path d="M 180 816.950381 
L 180 273.849619 
" style="fill: none; stroke: #000000; stroke-width: 0.8; stroke-linejoin: miter; stroke-linecap: square"/>
   </g>
   <g id="patch_4">
    <path d="M 1296 816.950381 
L 1296 273.849619 
" style="fill: none; stroke: #000000; stroke-width: 0.8; stroke-linejoin: miter; stroke-linecap: square"/>
   </g>
   <g id="patch_5">
    <path d="M 180 816.950381 
L 1296 816.950381 
" style="fill: none; stroke: #000000; stroke-width: 0.8; stroke-linejoin: miter; stroke-linecap: square"/>
   </g>
   <g id="patch_6">
    <path d="M 180 273.849619 
L 1296 273.849619 
" style="fill: none; stroke: #000000; stroke-width: 0.8; stroke-linejoin: miter; stroke-linecap: square"/>
   </g>
  </g>
 </g>
 <defs>
  <clipPath id="pbab67f3f1b">
   <rect x="180" y="273.849619" width="1116" height="543.100761"/>
  </clipPath>
 </defs>
</svg>
