<?xml version="1.0" encoding="utf-8" standalone="no"?>
<!DOCTYPE svg PUBLIC "-//W3C//DTD SVG 1.1//EN"
  "http://www.w3.org/Graphics/SVG/1.1/DTD/svg11.dtd">
<svg xmlns:xlink="http://www.w3.org/1999/xlink" width="1440pt" height="1080pt" viewBox="0 0 1440 1080" xmlns="http://www.w3.org/2000/svg" version="1.1">
 <metadata>
  <rdf:RDF xmlns:dc="http://purl.org/dc/elements/1.1/" xmlns:cc="http://creativecommons.org/ns#" xmlns:rdf="http://www.w3.org/1999/02/22-rdf-syntax-ns#">
   <cc:Work>
    <dc:type rdf:resource="http://purl.org/dc/dcmitype/StillImage"/>
    <dc:date>2023-12-11T12:07:03.570760</dc:date>
    <dc:format>image/svg+xml</dc:format>
    <dc:creator>
     <cc:Agent>
      <dc:title>Matplotlib v3.7.1, https://matplotlib.org/</dc:title>
     </cc:Agent>
    </dc:creator>
   </cc:Work>
  </rdf:RDF>
 </metadata>
 <defs>
  <style type="text/css">*{stroke-linejoin: round; stroke-linecap: butt}</style>
 </defs>
 <g id="figure_1">
  <g id="patch_1">
   <path d="M 0 1080 
L 1440 1080 
L 1440 0 
L 0 0 
z
" style="fill: #ffffff"/>
  </g>
  <g id="axes_1">
   <g id="patch_2">
    <path d="M 303.458169 961.2 
L 1172.541831 961.2 
L 1172.541831 129.6 
L 303.458169 129.6 
z
" style="fill: #ffffff"/>
   </g>
   <g id="matplotlib.axis_1">
    <g id="xtick_1">
     <g id="line2d_1">
      <defs>
       <path id="mba6bf650df" d="M 0 0 
L 0 3.5 
" style="stroke: #000000; stroke-width: 0.8"/>
      </defs>
      <g>
       <use xlink:href="#mba6bf650df" x="394.252468" y="961.2" style="stroke: #000000; stroke-width: 0.8"/>
      </g>
     </g>
     <g id="text_1">
      <!-- 900 -->
      <g transform="translate(384.708718 975.798437) scale(0.1 -0.1)">
       <defs>
        <path id="DejaVuSans-39" d="M 703 97 
L 703 672 
Q 941 559 1184 500 
Q 1428 441 1663 441 
Q 2288 441 2617 861 
Q 2947 1281 2994 2138 
Q 2813 1869 2534 1725 
Q 2256 1581 1919 1581 
Q 1219 1581 811 2004 
Q 403 2428 403 3163 
Q 403 3881 828 4315 
Q 1253 4750 1959 4750 
Q 2769 4750 3195 4129 
Q 3622 3509 3622 2328 
Q 3622 1225 3098 567 
Q 2575 -91 1691 -91 
Q 1453 -91 1209 -44 
Q 966 3 703 97 
z
M 1959 2075 
Q 2384 2075 2632 2365 
Q 2881 2656 2881 3163 
Q 2881 3666 2632 3958 
Q 2384 4250 1959 4250 
Q 1534 4250 1286 3958 
Q 1038 3666 1038 3163 
Q 1038 2656 1286 2365 
Q 1534 2075 1959 2075 
z
" transform="scale(0.015625)"/>
        <path id="DejaVuSans-30" d="M 2034 4250 
Q 1547 4250 1301 3770 
Q 1056 3291 1056 2328 
Q 1056 1369 1301 889 
Q 1547 409 2034 409 
Q 2525 409 2770 889 
Q 3016 1369 3016 2328 
Q 3016 3291 2770 3770 
Q 2525 4250 2034 4250 
z
M 2034 4750 
Q 2819 4750 3233 4129 
Q 3647 3509 3647 2328 
Q 3647 1150 3233 529 
Q 2819 -91 2034 -91 
Q 1250 -91 836 529 
Q 422 1150 422 2328 
Q 422 3509 836 4129 
Q 1250 4750 2034 4750 
z
" transform="scale(0.015625)"/>
       </defs>
       <use xlink:href="#DejaVuSans-39"/>
       <use xlink:href="#DejaVuSans-30" x="63.623047"/>
       <use xlink:href="#DejaVuSans-30" x="127.246094"/>
      </g>
     </g>
    </g>
    <g id="xtick_2">
     <g id="line2d_2">
      <g>
       <use xlink:href="#mba6bf650df" x="502.586636" y="961.2" style="stroke: #000000; stroke-width: 0.8"/>
      </g>
     </g>
     <g id="text_2">
      <!-- 1000 -->
      <g transform="translate(489.861636 975.798437) scale(0.1 -0.1)">
       <defs>
        <path id="DejaVuSans-31" d="M 794 531 
L 1825 531 
L 1825 4091 
L 703 3866 
L 703 4441 
L 1819 4666 
L 2450 4666 
L 2450 531 
L 3481 531 
L 3481 0 
L 794 0 
L 794 531 
z
" transform="scale(0.015625)"/>
       </defs>
       <use xlink:href="#DejaVuSans-31"/>
       <use xlink:href="#DejaVuSans-30" x="63.623047"/>
       <use xlink:href="#DejaVuSans-30" x="127.246094"/>
       <use xlink:href="#DejaVuSans-30" x="190.869141"/>
      </g>
     </g>
    </g>
    <g id="xtick_3">
     <g id="line2d_3">
      <g>
       <use xlink:href="#mba6bf650df" x="610.920805" y="961.2" style="stroke: #000000; stroke-width: 0.8"/>
      </g>
     </g>
     <g id="text_3">
      <!-- 1100 -->
      <g transform="translate(598.195805 975.798437) scale(0.1 -0.1)">
       <use xlink:href="#DejaVuSans-31"/>
       <use xlink:href="#DejaVuSans-31" x="63.623047"/>
       <use xlink:href="#DejaVuSans-30" x="127.246094"/>
       <use xlink:href="#DejaVuSans-30" x="190.869141"/>
      </g>
     </g>
    </g>
    <g id="xtick_4">
     <g id="line2d_4">
      <g>
       <use xlink:href="#mba6bf650df" x="719.254974" y="961.2" style="stroke: #000000; stroke-width: 0.8"/>
      </g>
     </g>
     <g id="text_4">
      <!-- 1200 -->
      <g transform="translate(706.529974 975.798437) scale(0.1 -0.1)">
       <defs>
        <path id="DejaVuSans-32" d="M 1228 531 
L 3431 531 
L 3431 0 
L 469 0 
L 469 531 
Q 828 903 1448 1529 
Q 2069 2156 2228 2338 
Q 2531 2678 2651 2914 
Q 2772 3150 2772 3378 
Q 2772 3750 2511 3984 
Q 2250 4219 1831 4219 
Q 1534 4219 1204 4116 
Q 875 4013 500 3803 
L 500 4441 
Q 881 4594 1212 4672 
Q 1544 4750 1819 4750 
Q 2544 4750 2975 4387 
Q 3406 4025 3406 3419 
Q 3406 3131 3298 2873 
Q 3191 2616 2906 2266 
Q 2828 2175 2409 1742 
Q 1991 1309 1228 531 
z
" transform="scale(0.015625)"/>
       </defs>
       <use xlink:href="#DejaVuSans-31"/>
       <use xlink:href="#DejaVuSans-32" x="63.623047"/>
       <use xlink:href="#DejaVuSans-30" x="127.246094"/>
       <use xlink:href="#DejaVuSans-30" x="190.869141"/>
      </g>
     </g>
    </g>
    <g id="xtick_5">
     <g id="line2d_5">
      <g>
       <use xlink:href="#mba6bf650df" x="827.589142" y="961.2" style="stroke: #000000; stroke-width: 0.8"/>
      </g>
     </g>
     <g id="text_5">
      <!-- 1300 -->
      <g transform="translate(814.864142 975.798437) scale(0.1 -0.1)">
       <defs>
        <path id="DejaVuSans-33" d="M 2597 2516 
Q 3050 2419 3304 2112 
Q 3559 1806 3559 1356 
Q 3559 666 3084 287 
Q 2609 -91 1734 -91 
Q 1441 -91 1130 -33 
Q 819 25 488 141 
L 488 750 
Q 750 597 1062 519 
Q 1375 441 1716 441 
Q 2309 441 2620 675 
Q 2931 909 2931 1356 
Q 2931 1769 2642 2001 
Q 2353 2234 1838 2234 
L 1294 2234 
L 1294 2753 
L 1863 2753 
Q 2328 2753 2575 2939 
Q 2822 3125 2822 3475 
Q 2822 3834 2567 4026 
Q 2313 4219 1838 4219 
Q 1578 4219 1281 4162 
Q 984 4106 628 3988 
L 628 4550 
Q 988 4650 1302 4700 
Q 1616 4750 1894 4750 
Q 2613 4750 3031 4423 
Q 3450 4097 3450 3541 
Q 3450 3153 3228 2886 
Q 3006 2619 2597 2516 
z
" transform="scale(0.015625)"/>
       </defs>
       <use xlink:href="#DejaVuSans-31"/>
       <use xlink:href="#DejaVuSans-33" x="63.623047"/>
       <use xlink:href="#DejaVuSans-30" x="127.246094"/>
       <use xlink:href="#DejaVuSans-30" x="190.869141"/>
      </g>
     </g>
    </g>
    <g id="xtick_6">
     <g id="line2d_6">
      <g>
       <use xlink:href="#mba6bf650df" x="935.923311" y="961.2" style="stroke: #000000; stroke-width: 0.8"/>
      </g>
     </g>
     <g id="text_6">
      <!-- 1400 -->
      <g transform="translate(923.198311 975.798437) scale(0.1 -0.1)">
       <defs>
        <path id="DejaVuSans-34" d="M 2419 4116 
L 825 1625 
L 2419 1625 
L 2419 4116 
z
M 2253 4666 
L 3047 4666 
L 3047 1625 
L 3713 1625 
L 3713 1100 
L 3047 1100 
L 3047 0 
L 2419 0 
L 2419 1100 
L 313 1100 
L 313 1709 
L 2253 4666 
z
" transform="scale(0.015625)"/>
       </defs>
       <use xlink:href="#DejaVuSans-31"/>
       <use xlink:href="#DejaVuSans-34" x="63.623047"/>
       <use xlink:href="#DejaVuSans-30" x="127.246094"/>
       <use xlink:href="#DejaVuSans-30" x="190.869141"/>
      </g>
     </g>
    </g>
    <g id="xtick_7">
     <g id="line2d_7">
      <g>
       <use xlink:href="#mba6bf650df" x="1044.257479" y="961.2" style="stroke: #000000; stroke-width: 0.8"/>
      </g>
     </g>
     <g id="text_7">
      <!-- 1500 -->
      <g transform="translate(1031.532479 975.798437) scale(0.1 -0.1)">
       <defs>
        <path id="DejaVuSans-35" d="M 691 4666 
L 3169 4666 
L 3169 4134 
L 1269 4134 
L 1269 2991 
Q 1406 3038 1543 3061 
Q 1681 3084 1819 3084 
Q 2600 3084 3056 2656 
Q 3513 2228 3513 1497 
Q 3513 744 3044 326 
Q 2575 -91 1722 -91 
Q 1428 -91 1123 -41 
Q 819 9 494 109 
L 494 744 
Q 775 591 1075 516 
Q 1375 441 1709 441 
Q 2250 441 2565 725 
Q 2881 1009 2881 1497 
Q 2881 1984 2565 2268 
Q 2250 2553 1709 2553 
Q 1456 2553 1204 2497 
Q 953 2441 691 2322 
L 691 4666 
z
" transform="scale(0.015625)"/>
       </defs>
       <use xlink:href="#DejaVuSans-31"/>
       <use xlink:href="#DejaVuSans-35" x="63.623047"/>
       <use xlink:href="#DejaVuSans-30" x="127.246094"/>
       <use xlink:href="#DejaVuSans-30" x="190.869141"/>
      </g>
     </g>
    </g>
    <g id="xtick_8">
     <g id="line2d_8">
      <g>
       <use xlink:href="#mba6bf650df" x="1152.591648" y="961.2" style="stroke: #000000; stroke-width: 0.8"/>
      </g>
     </g>
     <g id="text_8">
      <!-- 1600 -->
      <g transform="translate(1139.866648 975.798437) scale(0.1 -0.1)">
       <defs>
        <path id="DejaVuSans-36" d="M 2113 2584 
Q 1688 2584 1439 2293 
Q 1191 2003 1191 1497 
Q 1191 994 1439 701 
Q 1688 409 2113 409 
Q 2538 409 2786 701 
Q 3034 994 3034 1497 
Q 3034 2003 2786 2293 
Q 2538 2584 2113 2584 
z
M 3366 4563 
L 3366 3988 
Q 3128 4100 2886 4159 
Q 2644 4219 2406 4219 
Q 1781 4219 1451 3797 
Q 1122 3375 1075 2522 
Q 1259 2794 1537 2939 
Q 1816 3084 2150 3084 
Q 2853 3084 3261 2657 
Q 3669 2231 3669 1497 
Q 3669 778 3244 343 
Q 2819 -91 2113 -91 
Q 1303 -91 875 529 
Q 447 1150 447 2328 
Q 447 3434 972 4092 
Q 1497 4750 2381 4750 
Q 2619 4750 2861 4703 
Q 3103 4656 3366 4563 
z
" transform="scale(0.015625)"/>
       </defs>
       <use xlink:href="#DejaVuSans-31"/>
       <use xlink:href="#DejaVuSans-36" x="63.623047"/>
       <use xlink:href="#DejaVuSans-30" x="127.246094"/>
       <use xlink:href="#DejaVuSans-30" x="190.869141"/>
      </g>
     </g>
    </g>
   </g>
   <g id="matplotlib.axis_2">
    <g id="ytick_1">
     <g id="line2d_9">
      <defs>
       <path id="m7ed60f72e1" d="M 0 0 
L -3.5 0 
" style="stroke: #000000; stroke-width: 0.8"/>
      </defs>
      <g>
       <use xlink:href="#m7ed60f72e1" x="303.458169" y="905.117483" style="stroke: #000000; stroke-width: 0.8"/>
      </g>
     </g>
     <g id="text_9">
      <!-- 600 -->
      <g transform="translate(277.370669 908.916702) scale(0.1 -0.1)">
       <use xlink:href="#DejaVuSans-36"/>
       <use xlink:href="#DejaVuSans-30" x="63.623047"/>
       <use xlink:href="#DejaVuSans-30" x="127.246094"/>
      </g>
     </g>
    </g>
    <g id="ytick_2">
     <g id="line2d_10">
      <g>
       <use xlink:href="#m7ed60f72e1" x="303.458169" y="796.783315" style="stroke: #000000; stroke-width: 0.8"/>
      </g>
     </g>
     <g id="text_10">
      <!-- 700 -->
      <g transform="translate(277.370669 800.582533) scale(0.1 -0.1)">
       <defs>
        <path id="DejaVuSans-37" d="M 525 4666 
L 3525 4666 
L 3525 4397 
L 1831 0 
L 1172 0 
L 2766 4134 
L 525 4134 
L 525 4666 
z
" transform="scale(0.015625)"/>
       </defs>
       <use xlink:href="#DejaVuSans-37"/>
       <use xlink:href="#DejaVuSans-30" x="63.623047"/>
       <use xlink:href="#DejaVuSans-30" x="127.246094"/>
      </g>
     </g>
    </g>
    <g id="ytick_3">
     <g id="line2d_11">
      <g>
       <use xlink:href="#m7ed60f72e1" x="303.458169" y="688.449146" style="stroke: #000000; stroke-width: 0.8"/>
      </g>
     </g>
     <g id="text_11">
      <!-- 800 -->
      <g transform="translate(277.370669 692.248365) scale(0.1 -0.1)">
       <defs>
        <path id="DejaVuSans-38" d="M 2034 2216 
Q 1584 2216 1326 1975 
Q 1069 1734 1069 1313 
Q 1069 891 1326 650 
Q 1584 409 2034 409 
Q 2484 409 2743 651 
Q 3003 894 3003 1313 
Q 3003 1734 2745 1975 
Q 2488 2216 2034 2216 
z
M 1403 2484 
Q 997 2584 770 2862 
Q 544 3141 544 3541 
Q 544 4100 942 4425 
Q 1341 4750 2034 4750 
Q 2731 4750 3128 4425 
Q 3525 4100 3525 3541 
Q 3525 3141 3298 2862 
Q 3072 2584 2669 2484 
Q 3125 2378 3379 2068 
Q 3634 1759 3634 1313 
Q 3634 634 3220 271 
Q 2806 -91 2034 -91 
Q 1263 -91 848 271 
Q 434 634 434 1313 
Q 434 1759 690 2068 
Q 947 2378 1403 2484 
z
M 1172 3481 
Q 1172 3119 1398 2916 
Q 1625 2713 2034 2713 
Q 2441 2713 2670 2916 
Q 2900 3119 2900 3481 
Q 2900 3844 2670 4047 
Q 2441 4250 2034 4250 
Q 1625 4250 1398 4047 
Q 1172 3844 1172 3481 
z
" transform="scale(0.015625)"/>
       </defs>
       <use xlink:href="#DejaVuSans-38"/>
       <use xlink:href="#DejaVuSans-30" x="63.623047"/>
       <use xlink:href="#DejaVuSans-30" x="127.246094"/>
      </g>
     </g>
    </g>
    <g id="ytick_4">
     <g id="line2d_12">
      <g>
       <use xlink:href="#m7ed60f72e1" x="303.458169" y="580.114977" style="stroke: #000000; stroke-width: 0.8"/>
      </g>
     </g>
     <g id="text_12">
      <!-- 900 -->
      <g transform="translate(277.370669 583.914196) scale(0.1 -0.1)">
       <use xlink:href="#DejaVuSans-39"/>
       <use xlink:href="#DejaVuSans-30" x="63.623047"/>
       <use xlink:href="#DejaVuSans-30" x="127.246094"/>
      </g>
     </g>
    </g>
    <g id="ytick_5">
     <g id="line2d_13">
      <g>
       <use xlink:href="#m7ed60f72e1" x="303.458169" y="471.780809" style="stroke: #000000; stroke-width: 0.8"/>
      </g>
     </g>
     <g id="text_13">
      <!-- 1000 -->
      <g transform="translate(271.008169 475.580028) scale(0.1 -0.1)">
       <use xlink:href="#DejaVuSans-31"/>
       <use xlink:href="#DejaVuSans-30" x="63.623047"/>
       <use xlink:href="#DejaVuSans-30" x="127.246094"/>
       <use xlink:href="#DejaVuSans-30" x="190.869141"/>
      </g>
     </g>
    </g>
    <g id="ytick_6">
     <g id="line2d_14">
      <g>
       <use xlink:href="#m7ed60f72e1" x="303.458169" y="363.44664" style="stroke: #000000; stroke-width: 0.8"/>
      </g>
     </g>
     <g id="text_14">
      <!-- 1100 -->
      <g transform="translate(271.008169 367.245859) scale(0.1 -0.1)">
       <use xlink:href="#DejaVuSans-31"/>
       <use xlink:href="#DejaVuSans-31" x="63.623047"/>
       <use xlink:href="#DejaVuSans-30" x="127.246094"/>
       <use xlink:href="#DejaVuSans-30" x="190.869141"/>
      </g>
     </g>
    </g>
    <g id="ytick_7">
     <g id="line2d_15">
      <g>
       <use xlink:href="#m7ed60f72e1" x="303.458169" y="255.112472" style="stroke: #000000; stroke-width: 0.8"/>
      </g>
     </g>
     <g id="text_15">
      <!-- 1200 -->
      <g transform="translate(271.008169 258.911691) scale(0.1 -0.1)">
       <use xlink:href="#DejaVuSans-31"/>
       <use xlink:href="#DejaVuSans-32" x="63.623047"/>
       <use xlink:href="#DejaVuSans-30" x="127.246094"/>
       <use xlink:href="#DejaVuSans-30" x="190.869141"/>
      </g>
     </g>
    </g>
    <g id="ytick_8">
     <g id="line2d_16">
      <g>
       <use xlink:href="#m7ed60f72e1" x="303.458169" y="146.778303" style="stroke: #000000; stroke-width: 0.8"/>
      </g>
     </g>
     <g id="text_16">
      <!-- 1300 -->
      <g transform="translate(271.008169 150.577522) scale(0.1 -0.1)">
       <use xlink:href="#DejaVuSans-31"/>
       <use xlink:href="#DejaVuSans-33" x="63.623047"/>
       <use xlink:href="#DejaVuSans-30" x="127.246094"/>
       <use xlink:href="#DejaVuSans-30" x="190.869141"/>
      </g>
     </g>
    </g>
   </g>
   <g id="LineCollection_1">
    <path d="M 374.042413 392.12821 
L 402.193216 372.40595 
L 429.006268 354.060828 
L 454.616494 337.000318 
L 479.047591 321.208602 
L 502.32213 306.669285 
L 524.461456 293.365275 
L 545.485566 281.278627 
L 565.412941 270.39036 
L 584.260362 260.6802 
L 602.042695 252.126235 
L 618.772688 244.70444 
L 634.460827 238.388019 
L 649.115333 233.146522 
L 662.742456 228.944682 
L 675.347309 225.740983 
L 686.935561 223.486046 
L 697.516407 222.121161 
L 707.107144 221.577592 
L 715.739331 221.777741 
L 723.46562 222.639477 
L 730.365048 224.084562 
L 736.543393 226.050498 
L 742.125682 228.502473 
L 747.240902 231.440107 
L 752.003507 234.89468 
L 756.498888 238.917049 
L 760.778005 243.56134 
L 764.86132 248.87094 
L 768.748175 254.870681 
L 772.426968 261.565381 
L 775.883191 268.942541 
L 779.10445 276.97674 
L 782.082904 285.634024 
L 784.815951 294.875476 
L 787.30595 304.65981 
L 789.55951 314.945093 
L 791.58666 325.68982 
L 793.400059 336.853541 
L 795.014311 348.397194 
L 796.445404 360.283267 
L 797.710253 372.475846 
L 798.826347 384.940622 
L 799.811469 397.644854 
L 801.460163 423.648337 
L 802.797447 450.254221 
L 804.515807 490.843056 
L 806.269732 531.746468 
L 807.651348 558.907041 
L 809.326192 585.82957 
L 810.304194 599.166706 
L 811.391395 612.404635 
L 812.598961 625.532275 
L 813.937768 638.539488 
L 815.418476 651.417021 
L 817.051607 664.156439 
L 818.847638 676.750056 
L 820.817109 689.190849 
L 822.970736 701.472374 
L 825.319552 713.588666 
L 827.875059 725.534126 
L 830.649403 737.303395 
L 833.655571 748.891213 
L 836.907616 760.292248 
L 840.420905 771.500897 
L 844.212397 782.511041 
L 848.300949 793.31575 
L 852.707638 803.906909 
L 857.456096 814.274746 
L 862.572823 824.407243 
L 868.087453 834.289388 
L 874.0329 843.902254 
L 880.445302 853.22189 
L 887.363657 862.218054 
L 894.829005 870.852873 
L 902.883063 879.079605 
L 911.566272 886.841792 
L 920.915389 894.073186 
L 930.961031 900.698812 
L 941.725828 906.637381 
L 953.224007 911.804844 
L 965.463063 916.118393 
L 978.447629 919.499808 
L 992.184923 921.87708 
L 1006.690535 923.183728 
L 1021.99325 923.356 
L 1038.138049 922.328792 
L 1055.187091 920.0313 
L 1073.219111 916.383245 
L 1092.327886 911.292064 
L 1112.620425 904.65111 
L 1133.038028 896.822111 
L 1133.038028 896.822111 
" clip-path="url(#pcdff80a977)" style="fill: none; stroke: #1f77b4; stroke-width: 1.5"/>
    <path d="M 358.502192 369.94669 
L 386.775996 350.138257 
L 413.851382 331.613651 
L 439.75699 314.356368 
L 464.521056 298.349428 
L 488.171477 283.575303 
L 510.735868 270.015861 
L 532.241617 257.652322 
L 552.715932 246.465208 
L 572.185882 236.434323 
L 590.678432 227.538717 
L 608.220476 219.756678 
L 624.838861 213.065718 
L 640.560406 207.442571 
L 655.411922 202.863197 
L 669.420219 199.302793 
L 682.612118 196.735806 
L 695.014448 195.135956 
L 706.654054 194.476265 
L 717.557787 194.729083 
L 727.752497 195.866129 
L 737.265027 197.858529 
L 746.122194 200.67686 
L 754.35078 204.291199 
L 761.977507 208.671173 
L 769.02902 213.786016 
L 775.531866 219.604619 
L 781.512467 226.095598 
L 786.997095 233.227347 
L 792.011846 240.968106 
L 796.582611 249.286024 
L 800.735046 258.14922 
L 804.494547 267.525855 
L 807.886212 277.384195 
L 810.934819 287.692675 
L 813.664791 298.41997 
L 816.100165 309.535055 
L 818.264567 321.007276 
L 820.18118 332.806404 
L 821.872714 344.902706 
L 823.361385 357.266999 
L 824.668885 369.870707 
L 825.816356 382.685922 
L 826.824376 395.685449 
L 827.71293 408.842858 
L 828.501398 422.132531 
L 829.208534 435.529702 
L 829.85246 449.010493 
L 830.450651 462.551949 
L 831.019929 476.132066 
L 831.57646 489.729814 
L 832.135755 503.325152 
L 832.712673 516.899046 
L 833.321429 530.433467 
L 833.975603 543.911396 
L 834.688164 557.316814 
L 835.471483 570.634691 
L 836.337363 583.850957 
L 837.297071 596.952481 
L 838.361373 609.927026 
L 839.540575 622.76321 
L 840.844572 635.450443 
L 842.282902 647.978874 
L 843.864808 660.339307 
L 845.599299 672.523127 
L 847.495227 684.522202 
L 849.561368 696.328784 
L 851.806506 707.935393 
L 854.239529 719.334691 
L 856.86953 730.519354 
L 859.705918 741.481915 
L 862.758535 752.21461 
L 866.037783 762.709207 
L 869.554755 772.95682 
L 873.321382 782.947714 
L 877.350583 792.671094 
L 881.656425 802.11488 
L 886.254295 811.265472 
L 891.161079 820.107497 
L 896.395353 828.623545 
L 901.977577 836.793884 
L 907.930314 844.596169 
L 914.278442 852.005124 
L 921.049388 858.992224 
L 928.273371 865.525341 
L 935.983651 871.568393 
L 944.216797 877.080961 
L 953.012961 882.017899 
L 962.416163 886.328924 
L 972.474595 889.958181 
L 983.240929 892.843804 
L 994.772641 894.917444 
L 1007.132351 896.10379 
L 1020.388167 896.320062 
L 1034.614051 895.475492 
L 1049.890196 893.470781 
L 1066.303411 890.197536 
L 1083.947529 885.537688 
L 1102.923819 879.36289 
L 1123.341422 871.533891 
" clip-path="url(#pcdff80a977)" style="fill: none; stroke: #8c564b; stroke-width: 1.5"/>
    <path d="M 342.961972 347.765171 
L 371.482725 327.785761 
L 398.836041 309.073513 
L 425.054743 291.610771 
L 450.171968 275.379406 
L 474.221373 260.360806 
L 497.237364 246.535899 
L 519.255338 233.885227 
L 540.311955 222.389087 
L 560.44542 212.02777 
L 579.695766 202.781914 
L 598.105096 194.633037 
L 615.717727 187.564283 
L 632.580117 181.561434 
L 648.740378 176.614221 
L 664.247111 172.717887 
L 679.147162 169.874824 
L 693.481909 168.095809 
L 707.281855 167.4 
L 720.559879 167.81244 
L 730.754589 168.949486 
L 733.304668 169.357797 
L 742.817198 171.350197 
L 745.477229 172.050042 
L 754.334397 174.868373 
L 757.014029 175.879961 
L 765.242615 179.4943 
L 767.83866 180.805132 
L 775.465387 185.185106 
L 777.879752 186.747742 
L 784.931265 191.862584 
L 787.088648 193.602654 
L 793.591494 199.421257 
L 795.449871 201.252743 
L 802.981472 209.584992 
L 809.727557 218.501711 
L 815.747803 227.925001 
L 821.107972 237.795814 
L 825.873298 248.070203 
L 830.104803 258.714896 
L 833.857809 269.703412 
L 837.181762 281.013134 
L 840.12074 292.623331 
L 842.714194 304.513929 
L 844.997719 316.664829 
L 847.003735 329.055566 
L 848.762059 341.665207 
L 850.300359 354.47237 
L 851.644506 367.455315 
L 852.818839 380.592073 
L 853.846369 393.860583 
L 855.537399 420.528504 
L 856.261232 434.237498 
L 857.510428 461.417605 
L 860.375456 529.168491 
L 861.729469 555.802895 
L 863.35615 581.976315 
L 864.29961 594.856022 
L 865.343444 607.581053 
L 866.497158 620.139796 
L 867.76973 632.521285 
L 869.16965 644.715141 
L 870.70496 656.711487 
L 872.383297 668.500861 
L 874.211942 680.074111 
L 876.197861 691.422276 
L 878.347747 702.536463 
L 880.668063 713.407705 
L 883.165078 724.026814 
L 885.844894 734.38423 
L 888.713471 744.469857 
L 891.776634 754.272918 
L 895.040078 763.78181 
L 898.509353 772.983985 
L 902.189853 781.865871 
L 906.086803 790.412853 
L 910.205263 798.609333 
L 914.550198 806.438905 
L 919.126631 813.884661 
L 923.939987 820.929658 
L 928.996709 827.557531 
L 934.305266 833.753195 
L 939.877696 839.503516 
L 945.731742 844.79771 
L 951.893553 849.627125 
L 958.400682 853.984025 
L 965.304849 857.859061 
L 972.673715 861.237417 
L 980.590888 864.094071 
L 989.153757 866.389115 
L 998.469396 868.064259 
L 1008.649507 869.041396 
L 1019.805701 869.223412 
L 1032.046259 868.496709 
L 1045.47489 866.73445 
L 1060.191362 863.799582 
L 1076.293419 859.546995 
L 1093.879328 853.82462 
L 1113.644816 846.24567 
L 1113.644816 846.24567 
" clip-path="url(#pcdff80a977)" style="fill: none; stroke: #17becf; stroke-width: 1.5"/>
   </g>
   <g id="patch_3">
    <path d="M 303.458169 961.2 
L 303.458169 129.6 
" style="fill: none; stroke: #000000; stroke-width: 0.8; stroke-linejoin: miter; stroke-linecap: square"/>
   </g>
   <g id="patch_4">
    <path d="M 1172.541831 961.2 
L 1172.541831 129.6 
" style="fill: none; stroke: #000000; stroke-width: 0.8; stroke-linejoin: miter; stroke-linecap: square"/>
   </g>
   <g id="patch_5">
    <path d="M 303.458169 961.2 
L 1172.541831 961.2 
" style="fill: none; stroke: #000000; stroke-width: 0.8; stroke-linejoin: miter; stroke-linecap: square"/>
   </g>
   <g id="patch_6">
    <path d="M 303.458169 129.6 
L 1172.541831 129.6 
" style="fill: none; stroke: #000000; stroke-width: 0.8; stroke-linejoin: miter; stroke-linecap: square"/>
   </g>
  </g>
 </g>
 <defs>
  <clipPath id="pcdff80a977">
   <rect x="303.458169" y="129.6" width="869.083662" height="831.6"/>
  </clipPath>
 </defs>
</svg>
