<?xml version="1.0" encoding="utf-8" standalone="no"?>
<!DOCTYPE svg PUBLIC "-//W3C//DTD SVG 1.1//EN"
  "http://www.w3.org/Graphics/SVG/1.1/DTD/svg11.dtd">
<svg xmlns:xlink="http://www.w3.org/1999/xlink" width="1440pt" height="1080pt" viewBox="0 0 1440 1080" xmlns="http://www.w3.org/2000/svg" version="1.1">
 <metadata>
  <rdf:RDF xmlns:dc="http://purl.org/dc/elements/1.1/" xmlns:cc="http://creativecommons.org/ns#" xmlns:rdf="http://www.w3.org/1999/02/22-rdf-syntax-ns#">
   <cc:Work>
    <dc:type rdf:resource="http://purl.org/dc/dcmitype/StillImage"/>
    <dc:date>2023-12-11T12:06:49.532434</dc:date>
    <dc:format>image/svg+xml</dc:format>
    <dc:creator>
     <cc:Agent>
      <dc:title>Matplotlib v3.7.1, https://matplotlib.org/</dc:title>
     </cc:Agent>
    </dc:creator>
   </cc:Work>
  </rdf:RDF>
 </metadata>
 <defs>
  <style type="text/css">*{stroke-linejoin: round; stroke-linecap: butt}</style>
 </defs>
 <g id="figure_1">
  <g id="patch_1">
   <path d="M 0 1080 
L 1440 1080 
L 1440 0 
L 0 0 
z
" style="fill: #ffffff"/>
  </g>
  <g id="axes_1">
   <g id="patch_2">
    <path d="M 488.22258 961.2 
L 987.77742 961.2 
L 987.77742 129.6 
L 488.22258 129.6 
z
" style="fill: #ffffff"/>
   </g>
   <g id="matplotlib.axis_1">
    <g id="xtick_1">
     <g id="line2d_1">
      <defs>
       <path id="mbb8180cffe" d="M 0 0 
L 0 3.5 
" style="stroke: #000000; stroke-width: 0.8"/>
      </defs>
      <g>
       <use xlink:href="#mbb8180cffe" x="492.118682" y="961.2" style="stroke: #000000; stroke-width: 0.8"/>
      </g>
     </g>
     <g id="text_1">
      <!-- 550 -->
      <g transform="translate(482.574932 975.798437) scale(0.1 -0.1)">
       <defs>
        <path id="DejaVuSans-35" d="M 691 4666 
L 3169 4666 
L 3169 4134 
L 1269 4134 
L 1269 2991 
Q 1406 3038 1543 3061 
Q 1681 3084 1819 3084 
Q 2600 3084 3056 2656 
Q 3513 2228 3513 1497 
Q 3513 744 3044 326 
Q 2575 -91 1722 -91 
Q 1428 -91 1123 -41 
Q 819 9 494 109 
L 494 744 
Q 775 591 1075 516 
Q 1375 441 1709 441 
Q 2250 441 2565 725 
Q 2881 1009 2881 1497 
Q 2881 1984 2565 2268 
Q 2250 2553 1709 2553 
Q 1456 2553 1204 2497 
Q 953 2441 691 2322 
L 691 4666 
z
" transform="scale(0.015625)"/>
        <path id="DejaVuSans-30" d="M 2034 4250 
Q 1547 4250 1301 3770 
Q 1056 3291 1056 2328 
Q 1056 1369 1301 889 
Q 1547 409 2034 409 
Q 2525 409 2770 889 
Q 3016 1369 3016 2328 
Q 3016 3291 2770 3770 
Q 2525 4250 2034 4250 
z
M 2034 4750 
Q 2819 4750 3233 4129 
Q 3647 3509 3647 2328 
Q 3647 1150 3233 529 
Q 2819 -91 2034 -91 
Q 1250 -91 836 529 
Q 422 1150 422 2328 
Q 422 3509 836 4129 
Q 1250 4750 2034 4750 
z
" transform="scale(0.015625)"/>
       </defs>
       <use xlink:href="#DejaVuSans-35"/>
       <use xlink:href="#DejaVuSans-35" x="63.623047"/>
       <use xlink:href="#DejaVuSans-30" x="127.246094"/>
      </g>
     </g>
    </g>
    <g id="xtick_2">
     <g id="line2d_2">
      <g>
       <use xlink:href="#mbb8180cffe" x="561.05897" y="961.2" style="stroke: #000000; stroke-width: 0.8"/>
      </g>
     </g>
     <g id="text_2">
      <!-- 600 -->
      <g transform="translate(551.51522 975.798437) scale(0.1 -0.1)">
       <defs>
        <path id="DejaVuSans-36" d="M 2113 2584 
Q 1688 2584 1439 2293 
Q 1191 2003 1191 1497 
Q 1191 994 1439 701 
Q 1688 409 2113 409 
Q 2538 409 2786 701 
Q 3034 994 3034 1497 
Q 3034 2003 2786 2293 
Q 2538 2584 2113 2584 
z
M 3366 4563 
L 3366 3988 
Q 3128 4100 2886 4159 
Q 2644 4219 2406 4219 
Q 1781 4219 1451 3797 
Q 1122 3375 1075 2522 
Q 1259 2794 1537 2939 
Q 1816 3084 2150 3084 
Q 2853 3084 3261 2657 
Q 3669 2231 3669 1497 
Q 3669 778 3244 343 
Q 2819 -91 2113 -91 
Q 1303 -91 875 529 
Q 447 1150 447 2328 
Q 447 3434 972 4092 
Q 1497 4750 2381 4750 
Q 2619 4750 2861 4703 
Q 3103 4656 3366 4563 
z
" transform="scale(0.015625)"/>
       </defs>
       <use xlink:href="#DejaVuSans-36"/>
       <use xlink:href="#DejaVuSans-30" x="63.623047"/>
       <use xlink:href="#DejaVuSans-30" x="127.246094"/>
      </g>
     </g>
    </g>
    <g id="xtick_3">
     <g id="line2d_3">
      <g>
       <use xlink:href="#mbb8180cffe" x="629.999258" y="961.2" style="stroke: #000000; stroke-width: 0.8"/>
      </g>
     </g>
     <g id="text_3">
      <!-- 650 -->
      <g transform="translate(620.455508 975.798437) scale(0.1 -0.1)">
       <use xlink:href="#DejaVuSans-36"/>
       <use xlink:href="#DejaVuSans-35" x="63.623047"/>
       <use xlink:href="#DejaVuSans-30" x="127.246094"/>
      </g>
     </g>
    </g>
    <g id="xtick_4">
     <g id="line2d_4">
      <g>
       <use xlink:href="#mbb8180cffe" x="698.939547" y="961.2" style="stroke: #000000; stroke-width: 0.8"/>
      </g>
     </g>
     <g id="text_4">
      <!-- 700 -->
      <g transform="translate(689.395797 975.798437) scale(0.1 -0.1)">
       <defs>
        <path id="DejaVuSans-37" d="M 525 4666 
L 3525 4666 
L 3525 4397 
L 1831 0 
L 1172 0 
L 2766 4134 
L 525 4134 
L 525 4666 
z
" transform="scale(0.015625)"/>
       </defs>
       <use xlink:href="#DejaVuSans-37"/>
       <use xlink:href="#DejaVuSans-30" x="63.623047"/>
       <use xlink:href="#DejaVuSans-30" x="127.246094"/>
      </g>
     </g>
    </g>
    <g id="xtick_5">
     <g id="line2d_5">
      <g>
       <use xlink:href="#mbb8180cffe" x="767.879835" y="961.2" style="stroke: #000000; stroke-width: 0.8"/>
      </g>
     </g>
     <g id="text_5">
      <!-- 750 -->
      <g transform="translate(758.336085 975.798437) scale(0.1 -0.1)">
       <use xlink:href="#DejaVuSans-37"/>
       <use xlink:href="#DejaVuSans-35" x="63.623047"/>
       <use xlink:href="#DejaVuSans-30" x="127.246094"/>
      </g>
     </g>
    </g>
    <g id="xtick_6">
     <g id="line2d_6">
      <g>
       <use xlink:href="#mbb8180cffe" x="836.820124" y="961.2" style="stroke: #000000; stroke-width: 0.8"/>
      </g>
     </g>
     <g id="text_6">
      <!-- 800 -->
      <g transform="translate(827.276374 975.798437) scale(0.1 -0.1)">
       <defs>
        <path id="DejaVuSans-38" d="M 2034 2216 
Q 1584 2216 1326 1975 
Q 1069 1734 1069 1313 
Q 1069 891 1326 650 
Q 1584 409 2034 409 
Q 2484 409 2743 651 
Q 3003 894 3003 1313 
Q 3003 1734 2745 1975 
Q 2488 2216 2034 2216 
z
M 1403 2484 
Q 997 2584 770 2862 
Q 544 3141 544 3541 
Q 544 4100 942 4425 
Q 1341 4750 2034 4750 
Q 2731 4750 3128 4425 
Q 3525 4100 3525 3541 
Q 3525 3141 3298 2862 
Q 3072 2584 2669 2484 
Q 3125 2378 3379 2068 
Q 3634 1759 3634 1313 
Q 3634 634 3220 271 
Q 2806 -91 2034 -91 
Q 1263 -91 848 271 
Q 434 634 434 1313 
Q 434 1759 690 2068 
Q 947 2378 1403 2484 
z
M 1172 3481 
Q 1172 3119 1398 2916 
Q 1625 2713 2034 2713 
Q 2441 2713 2670 2916 
Q 2900 3119 2900 3481 
Q 2900 3844 2670 4047 
Q 2441 4250 2034 4250 
Q 1625 4250 1398 4047 
Q 1172 3844 1172 3481 
z
" transform="scale(0.015625)"/>
       </defs>
       <use xlink:href="#DejaVuSans-38"/>
       <use xlink:href="#DejaVuSans-30" x="63.623047"/>
       <use xlink:href="#DejaVuSans-30" x="127.246094"/>
      </g>
     </g>
    </g>
    <g id="xtick_7">
     <g id="line2d_7">
      <g>
       <use xlink:href="#mbb8180cffe" x="905.760412" y="961.2" style="stroke: #000000; stroke-width: 0.8"/>
      </g>
     </g>
     <g id="text_7">
      <!-- 850 -->
      <g transform="translate(896.216662 975.798437) scale(0.1 -0.1)">
       <use xlink:href="#DejaVuSans-38"/>
       <use xlink:href="#DejaVuSans-35" x="63.623047"/>
       <use xlink:href="#DejaVuSans-30" x="127.246094"/>
      </g>
     </g>
    </g>
    <g id="xtick_8">
     <g id="line2d_8">
      <g>
       <use xlink:href="#mbb8180cffe" x="974.7007" y="961.2" style="stroke: #000000; stroke-width: 0.8"/>
      </g>
     </g>
     <g id="text_8">
      <!-- 900 -->
      <g transform="translate(965.15695 975.798437) scale(0.1 -0.1)">
       <defs>
        <path id="DejaVuSans-39" d="M 703 97 
L 703 672 
Q 941 559 1184 500 
Q 1428 441 1663 441 
Q 2288 441 2617 861 
Q 2947 1281 2994 2138 
Q 2813 1869 2534 1725 
Q 2256 1581 1919 1581 
Q 1219 1581 811 2004 
Q 403 2428 403 3163 
Q 403 3881 828 4315 
Q 1253 4750 1959 4750 
Q 2769 4750 3195 4129 
Q 3622 3509 3622 2328 
Q 3622 1225 3098 567 
Q 2575 -91 1691 -91 
Q 1453 -91 1209 -44 
Q 966 3 703 97 
z
M 1959 2075 
Q 2384 2075 2632 2365 
Q 2881 2656 2881 3163 
Q 2881 3666 2632 3958 
Q 2384 4250 1959 4250 
Q 1534 4250 1286 3958 
Q 1038 3666 1038 3163 
Q 1038 2656 1286 2365 
Q 1534 2075 1959 2075 
z
" transform="scale(0.015625)"/>
       </defs>
       <use xlink:href="#DejaVuSans-39"/>
       <use xlink:href="#DejaVuSans-30" x="63.623047"/>
       <use xlink:href="#DejaVuSans-30" x="127.246094"/>
      </g>
     </g>
    </g>
   </g>
   <g id="matplotlib.axis_2">
    <g id="ytick_1">
     <g id="line2d_9">
      <defs>
       <path id="maea4acdebb" d="M 0 0 
L -3.5 0 
" style="stroke: #000000; stroke-width: 0.8"/>
      </defs>
      <g>
       <use xlink:href="#maea4acdebb" x="488.22258" y="893.008701" style="stroke: #000000; stroke-width: 0.8"/>
      </g>
     </g>
     <g id="text_9">
      <!-- 500 -->
      <g transform="translate(462.13508 896.80792) scale(0.1 -0.1)">
       <use xlink:href="#DejaVuSans-35"/>
       <use xlink:href="#DejaVuSans-30" x="63.623047"/>
       <use xlink:href="#DejaVuSans-30" x="127.246094"/>
      </g>
     </g>
    </g>
    <g id="ytick_2">
     <g id="line2d_10">
      <g>
       <use xlink:href="#maea4acdebb" x="488.22258" y="755.128125" style="stroke: #000000; stroke-width: 0.8"/>
      </g>
     </g>
     <g id="text_10">
      <!-- 600 -->
      <g transform="translate(462.13508 758.927343) scale(0.1 -0.1)">
       <use xlink:href="#DejaVuSans-36"/>
       <use xlink:href="#DejaVuSans-30" x="63.623047"/>
       <use xlink:href="#DejaVuSans-30" x="127.246094"/>
      </g>
     </g>
    </g>
    <g id="ytick_3">
     <g id="line2d_11">
      <g>
       <use xlink:href="#maea4acdebb" x="488.22258" y="617.247548" style="stroke: #000000; stroke-width: 0.8"/>
      </g>
     </g>
     <g id="text_11">
      <!-- 700 -->
      <g transform="translate(462.13508 621.046767) scale(0.1 -0.1)">
       <use xlink:href="#DejaVuSans-37"/>
       <use xlink:href="#DejaVuSans-30" x="63.623047"/>
       <use xlink:href="#DejaVuSans-30" x="127.246094"/>
      </g>
     </g>
    </g>
    <g id="ytick_4">
     <g id="line2d_12">
      <g>
       <use xlink:href="#maea4acdebb" x="488.22258" y="479.366971" style="stroke: #000000; stroke-width: 0.8"/>
      </g>
     </g>
     <g id="text_12">
      <!-- 800 -->
      <g transform="translate(462.13508 483.16619) scale(0.1 -0.1)">
       <use xlink:href="#DejaVuSans-38"/>
       <use xlink:href="#DejaVuSans-30" x="63.623047"/>
       <use xlink:href="#DejaVuSans-30" x="127.246094"/>
      </g>
     </g>
    </g>
    <g id="ytick_5">
     <g id="line2d_13">
      <g>
       <use xlink:href="#maea4acdebb" x="488.22258" y="341.486394" style="stroke: #000000; stroke-width: 0.8"/>
      </g>
     </g>
     <g id="text_13">
      <!-- 900 -->
      <g transform="translate(462.13508 345.285613) scale(0.1 -0.1)">
       <use xlink:href="#DejaVuSans-39"/>
       <use xlink:href="#DejaVuSans-30" x="63.623047"/>
       <use xlink:href="#DejaVuSans-30" x="127.246094"/>
      </g>
     </g>
    </g>
    <g id="ytick_6">
     <g id="line2d_14">
      <g>
       <use xlink:href="#maea4acdebb" x="488.22258" y="203.605817" style="stroke: #000000; stroke-width: 0.8"/>
      </g>
     </g>
     <g id="text_14">
      <!-- 1000 -->
      <g transform="translate(455.77258 207.405036) scale(0.1 -0.1)">
       <defs>
        <path id="DejaVuSans-31" d="M 794 531 
L 1825 531 
L 1825 4091 
L 703 3866 
L 703 4441 
L 1819 4666 
L 2450 4666 
L 2450 531 
L 3481 531 
L 3481 0 
L 794 0 
L 794 531 
z
" transform="scale(0.015625)"/>
       </defs>
       <use xlink:href="#DejaVuSans-31"/>
       <use xlink:href="#DejaVuSans-30" x="63.623047"/>
       <use xlink:href="#DejaVuSans-30" x="127.246094"/>
       <use xlink:href="#DejaVuSans-30" x="190.869141"/>
      </g>
     </g>
    </g>
   </g>
   <g id="LineCollection_1">
    <path d="M 606.307396 887.435907 
L 590.443455 870.628822 
L 578.935589 856.461276 
L 570.968159 844.470942 
L 566.165819 834.828677 
L 563.956505 827.702874 
L 563.500412 823.0037 
L 563.931753 820.026516 
L 564.971674 817.552749 
L 567.115014 814.635494 
L 571.003659 811.080418 
L 576.915481 807.150395 
L 584.788241 803.159997 
L 594.406822 799.322588 
L 605.521886 795.749501 
L 617.895921 792.483557 
L 631.314909 789.527176 
L 645.588048 786.860191 
L 660.544451 784.450214 
L 676.029742 782.258552 
L 691.903281 780.243566 
L 724.30931 776.573066 
L 772.993929 771.330357 
L 788.853715 769.492459 
L 804.38731 767.54552 
L 819.525124 765.451644 
L 834.205516 763.172759 
L 848.375207 760.669684 
L 861.989785 757.900737 
L 875.014167 754.819662 
L 887.422721 751.372582 
L 899.198373 747.493643 
L 910.329368 743.099231 
L 920.801171 738.081464 
L 928.368348 733.728581 
L 930.579777 732.304141 
L 937.137185 727.59834 
L 939.583105 725.609619 
L 945.104727 720.538785 
L 947.644692 717.851934 
L 953.370639 710.735131 
L 954.494631 708.96906 
L 958.932428 701.147089 
L 959.804502 699.072397 
L 962.806726 690.688671 
L 963.313336 688.472654 
L 964.827333 679.724946 
L 964.952156 677.574531 
L 965.031705 668.630606 
L 964.8508 666.707245 
L 963.876922 659.296198 
L 963.234777 656.031403 
L 961.176236 648.222691 
L 960.319747 645.559655 
L 956.265251 635.224861 
L 951.175347 624.936362 
L 945.115964 614.609652 
L 938.131889 604.177033 
L 930.258623 593.588888 
L 921.529526 582.81148 
L 911.979779 571.824002 
L 901.648442 560.615892 
L 890.579437 549.184682 
L 878.821956 537.534354 
L 866.430559 525.674124 
L 853.465115 513.617539 
L 839.990662 501.381801 
L 826.077232 488.987278 
L 797.23734 463.817001 
L 723.171019 399.967845 
L 708.777263 387.308157 
L 694.763978 374.775528 
L 681.239541 362.412537 
L 668.315177 350.26489 
L 656.104828 338.382303 
L 644.725 326.819891 
L 634.294496 315.640344 
L 624.933795 304.917312 
L 616.763493 294.740613 
L 609.900459 285.223976 
L 604.44872 276.515623 
L 600.478986 268.809402 
L 597.986812 262.345026 
L 596.823605 257.363096 
L 596.638662 253.953103 
L 596.980474 251.795793 
L 597.688339 250.080871 
L 599.223387 247.948191 
L 602.394851 245.050776 
L 607.827419 241.564795 
L 615.79009 237.847004 
L 626.317095 234.204582 
L 639.345085 230.841309 
L 654.783511 227.875824 
L 672.538597 225.369222 
L 692.517152 223.345208 
L 714.623663 221.80236 
L 738.755906 220.721083 
L 764.800735 220.067381 
L 792.630455 219.794801 
L 822.099745 219.845313 
L 853.108206 220.15022 
L 853.108206 220.15022 
" clip-path="url(#p96290d6d5a)" style="fill: none; stroke: #1f77b4; stroke-width: 1.5"/>
    <path d="M 587.25628 905.417953 
L 570.723453 887.902216 
L 557.810378 872.004691 
L 548.245737 857.610685 
L 541.771175 844.610886 
L 538.140621 832.901096 
L 537.119656 822.381975 
L 538.484906 812.9588 
L 542.023476 804.541238 
L 547.532419 797.043132 
L 554.818232 790.382297 
L 563.696389 784.480333 
L 573.990899 779.262443 
L 585.533905 774.657271 
L 598.165295 770.59674 
L 611.732356 767.015913 
L 626.089449 763.852856 
L 641.097705 761.048512 
L 656.624754 758.546585 
L 672.544474 756.293437 
L 688.736759 754.23799 
L 705.087319 752.331631 
L 721.48749 750.528141 
L 737.834069 748.78361 
L 754.029168 747.056382 
L 769.980086 745.306987 
L 785.599193 743.498092 
L 800.80384 741.594455 
L 815.516271 739.562879 
L 829.66356 737.372184 
L 843.177553 734.993168 
L 855.994829 732.398589 
L 868.056664 729.563135 
L 879.309013 726.463411 
L 889.702492 723.077925 
L 899.192379 719.387072 
L 907.738609 715.373128 
L 915.305786 711.020245 
L 921.863194 706.314443 
L 927.384816 701.243609 
L 931.849347 695.797494 
L 935.240223 689.967712 
L 937.545639 683.747743 
L 938.758569 677.132926 
L 938.876794 670.120463 
L 937.902916 662.709416 
L 935.844375 654.900703 
L 932.713461 646.697098 
L 928.527324 638.103218 
L 923.307971 629.125522 
L 917.082262 619.772296 
L 909.881898 610.053641 
L 901.743393 599.981453 
L 892.708047 589.569407 
L 882.8219 578.832927 
L 872.135675 567.789161 
L 860.704708 556.456942 
L 848.588873 544.856753 
L 835.852473 533.010679 
L 822.564138 520.942355 
L 808.796684 508.676912 
L 794.626974 496.240909 
L 780.135743 483.662263 
L 765.407417 470.970171 
L 750.5299 458.19502 
L 735.594347 445.368295 
L 720.69491 432.522473 
L 705.928462 419.690913 
L 691.394295 406.907729 
L 677.19379 394.207662 
L 663.430069 381.625936 
L 650.207605 369.198104 
L 637.631818 356.959889 
L 625.808629 344.947003 
L 614.843989 333.194962 
L 604.84338 321.738891 
L 595.911273 310.613309 
L 588.150559 299.851904 
L 581.661948 289.487299 
L 576.543323 279.550799 
L 572.889064 270.072129 
L 570.789337 261.07915 
L 570.329332 252.597569 
L 571.588475 244.65063 
L 574.639592 237.258787 
L 579.548032 230.439367 
L 586.370747 224.206212 
L 595.155329 218.569303 
L 605.939007 213.534378 
L 618.747586 209.102514 
L 633.594353 205.26971 
L 650.478926 202.026442 
L 669.386057 199.357199 
L 690.28439 197.240002 
L 713.125159 195.645909 
L 737.840842 194.538491 
L 764.343758 193.873291 
L 792.524613 193.597271 
L 822.250993 193.648224 
L 853.365793 193.954177 
" clip-path="url(#p96290d6d5a)" style="fill: none; stroke: #8c564b; stroke-width: 1.5"/>
    <path d="M 568.205163 923.4 
L 550.389061 904.419224 
L 537.475986 888.521698 
L 535.990981 886.503413 
L 526.42634 872.109407 
L 524.795898 869.2899 
L 517.455962 854.361244 
L 516.748936 852.368889 
L 513.118382 840.659099 
L 512.458772 838.07233 
L 512.065839 835.431863 
L 511.044874 824.912742 
L 510.929619 821.764745 
L 511.193044 818.625672 
L 512.968956 807.022863 
L 513.562519 804.885778 
L 514.334728 802.806561 
L 517.873299 794.388999 
L 519.234445 791.619973 
L 520.911716 789.03019 
L 526.420659 781.532084 
L 528.044299 779.535642 
L 529.855976 777.708128 
L 538.680717 769.745446 
L 540.315184 768.565775 
L 549.19334 762.663811 
L 551.852507 761.11323 
L 564.283327 754.930118 
L 577.516498 749.716938 
L 591.47984 745.266842 
L 606.095913 741.432138 
L 621.27767 738.101239 
L 636.930199 735.184813 
L 652.953587 732.607781 
L 669.245462 730.304679 
L 685.702892 728.216947 
L 718.707462 724.478755 
L 767.045123 719.274482 
L 782.464944 717.488667 
L 797.384707 715.620697 
L 811.719855 713.641219 
L 825.387701 711.524765 
L 838.306958 709.250447 
L 850.397166 706.803047 
L 861.578106 704.174671 
L 871.769404 701.367238 
L 880.890784 698.396115 
L 888.863949 695.295153 
L 895.618013 692.122943 
L 901.101707 688.968547 
L 905.306308 685.951193 
L 908.299883 683.202015 
L 910.259123 680.812011 
L 911.460271 678.746931 
L 912.189092 676.780586 
L 912.601384 674.532114 
L 912.650575 671.614382 
L 912.146107 667.775462 
L 910.869566 662.93313 
L 908.652595 657.124232 
L 905.396338 650.439339 
L 901.059495 642.979631 
L 895.63986 634.837413 
L 889.159597 626.09071 
L 881.655772 616.804001 
L 873.174876 607.030885 
L 863.769844 596.816902 
L 853.498508 586.201907 
L 842.422819 575.221896 
L 830.608465 563.910358 
L 818.124684 552.299243 
L 805.044155 540.419647 
L 791.442908 528.302278 
L 762.998551 503.476851 
L 688.62704 439.362207 
L 673.930377 426.434905 
L 659.518372 413.543604 
L 645.488254 400.714946 
L 631.937007 387.972669 
L 618.96069 375.336179 
L 606.653751 362.81848 
L 595.108495 350.423117 
L 584.41509 338.139622 
L 574.662968 325.936773 
L 565.945626 313.752981 
L 558.373037 301.484201 
L 553.254412 291.547701 
L 552.099631 288.974438 
L 548.445373 279.495767 
L 547.377902 276.028607 
L 544.854888 264.780955 
L 544.630472 262.497896 
L 544.170467 254.016315 
L 544.166725 251.249594 
L 544.454792 248.497908 
L 545.713935 240.550969 
L 546.370559 237.554453 
L 547.372961 234.655237 
L 550.424078 227.263394 
L 551.74629 224.523177 
L 553.377296 221.954743 
L 558.285735 215.135323 
L 559.977612 213.023924 
L 561.878237 211.098287 
L 570.404336 203.436697 
L 572.222691 202.15782 
L 581.007274 196.520912 
L 584.072271 194.831889 
L 594.855949 189.796963 
L 597.372827 188.777165 
L 612.199244 183.736823 
L 628.652592 179.54272 
L 646.816795 176.086361 
L 666.745541 173.293302 
L 688.460476 171.106262 
L 711.952531 169.474857 
L 737.18352 168.349429 
L 764.087178 167.677238 
L 792.569517 167.4 
L 822.508579 167.452181 
L 853.623379 167.758134 
L 853.623379 167.758134 
" clip-path="url(#p96290d6d5a)" style="fill: none; stroke: #17becf; stroke-width: 1.5"/>
   </g>
   <g id="patch_3">
    <path d="M 488.22258 961.2 
L 488.22258 129.6 
" style="fill: none; stroke: #000000; stroke-width: 0.8; stroke-linejoin: miter; stroke-linecap: square"/>
   </g>
   <g id="patch_4">
    <path d="M 987.77742 961.2 
L 987.77742 129.6 
" style="fill: none; stroke: #000000; stroke-width: 0.8; stroke-linejoin: miter; stroke-linecap: square"/>
   </g>
   <g id="patch_5">
    <path d="M 488.22258 961.2 
L 987.77742 961.2 
" style="fill: none; stroke: #000000; stroke-width: 0.8; stroke-linejoin: miter; stroke-linecap: square"/>
   </g>
   <g id="patch_6">
    <path d="M 488.22258 129.6 
L 987.77742 129.6 
" style="fill: none; stroke: #000000; stroke-width: 0.8; stroke-linejoin: miter; stroke-linecap: square"/>
   </g>
  </g>
 </g>
 <defs>
  <clipPath id="p96290d6d5a">
   <rect x="488.22258" y="129.6" width="499.554839" height="831.6"/>
  </clipPath>
 </defs>
</svg>
