<?xml version="1.0" encoding="utf-8" standalone="no"?>
<!DOCTYPE svg PUBLIC "-//W3C//DTD SVG 1.1//EN"
  "http://www.w3.org/Graphics/SVG/1.1/DTD/svg11.dtd">
<svg xmlns:xlink="http://www.w3.org/1999/xlink" width="1440pt" height="1080pt" viewBox="0 0 1440 1080" xmlns="http://www.w3.org/2000/svg" version="1.1">
 <metadata>
  <rdf:RDF xmlns:dc="http://purl.org/dc/elements/1.1/" xmlns:cc="http://creativecommons.org/ns#" xmlns:rdf="http://www.w3.org/1999/02/22-rdf-syntax-ns#">
   <cc:Work>
    <dc:type rdf:resource="http://purl.org/dc/dcmitype/StillImage"/>
    <dc:date>2023-12-11T12:06:44.856257</dc:date>
    <dc:format>image/svg+xml</dc:format>
    <dc:creator>
     <cc:Agent>
      <dc:title>Matplotlib v3.7.1, https://matplotlib.org/</dc:title>
     </cc:Agent>
    </dc:creator>
   </cc:Work>
  </rdf:RDF>
 </metadata>
 <defs>
  <style type="text/css">*{stroke-linejoin: round; stroke-linecap: butt}</style>
 </defs>
 <g id="figure_1">
  <g id="patch_1">
   <path d="M 0 1080 
L 1440 1080 
L 1440 0 
L 0 0 
z
" style="fill: #ffffff"/>
  </g>
  <g id="axes_1">
   <g id="patch_2">
    <path d="M 180 769.916184 
L 1296 769.916184 
L 1296 320.883816 
L 180 320.883816 
z
" style="fill: #ffffff"/>
   </g>
   <g id="matplotlib.axis_1">
    <g id="xtick_1">
     <g id="line2d_1">
      <defs>
       <path id="m56ff296263" d="M 0 0 
L 0 3.5 
" style="stroke: #000000; stroke-width: 0.8"/>
      </defs>
      <g>
       <use xlink:href="#m56ff296263" x="205.623257" y="769.916184" style="stroke: #000000; stroke-width: 0.8"/>
      </g>
     </g>
     <g id="text_1">
      <!-- 800 -->
      <g transform="translate(196.079507 784.514621) scale(0.1 -0.1)">
       <defs>
        <path id="DejaVuSans-38" d="M 2034 2216 
Q 1584 2216 1326 1975 
Q 1069 1734 1069 1313 
Q 1069 891 1326 650 
Q 1584 409 2034 409 
Q 2484 409 2743 651 
Q 3003 894 3003 1313 
Q 3003 1734 2745 1975 
Q 2488 2216 2034 2216 
z
M 1403 2484 
Q 997 2584 770 2862 
Q 544 3141 544 3541 
Q 544 4100 942 4425 
Q 1341 4750 2034 4750 
Q 2731 4750 3128 4425 
Q 3525 4100 3525 3541 
Q 3525 3141 3298 2862 
Q 3072 2584 2669 2484 
Q 3125 2378 3379 2068 
Q 3634 1759 3634 1313 
Q 3634 634 3220 271 
Q 2806 -91 2034 -91 
Q 1263 -91 848 271 
Q 434 634 434 1313 
Q 434 1759 690 2068 
Q 947 2378 1403 2484 
z
M 1172 3481 
Q 1172 3119 1398 2916 
Q 1625 2713 2034 2713 
Q 2441 2713 2670 2916 
Q 2900 3119 2900 3481 
Q 2900 3844 2670 4047 
Q 2441 4250 2034 4250 
Q 1625 4250 1398 4047 
Q 1172 3844 1172 3481 
z
" transform="scale(0.015625)"/>
        <path id="DejaVuSans-30" d="M 2034 4250 
Q 1547 4250 1301 3770 
Q 1056 3291 1056 2328 
Q 1056 1369 1301 889 
Q 1547 409 2034 409 
Q 2525 409 2770 889 
Q 3016 1369 3016 2328 
Q 3016 3291 2770 3770 
Q 2525 4250 2034 4250 
z
M 2034 4750 
Q 2819 4750 3233 4129 
Q 3647 3509 3647 2328 
Q 3647 1150 3233 529 
Q 2819 -91 2034 -91 
Q 1250 -91 836 529 
Q 422 1150 422 2328 
Q 422 3509 836 4129 
Q 1250 4750 2034 4750 
z
" transform="scale(0.015625)"/>
       </defs>
       <use xlink:href="#DejaVuSans-38"/>
       <use xlink:href="#DejaVuSans-30" x="63.623047"/>
       <use xlink:href="#DejaVuSans-30" x="127.246094"/>
      </g>
     </g>
    </g>
    <g id="xtick_2">
     <g id="line2d_2">
      <g>
       <use xlink:href="#m56ff296263" x="336.669321" y="769.916184" style="stroke: #000000; stroke-width: 0.8"/>
      </g>
     </g>
     <g id="text_2">
      <!-- 900 -->
      <g transform="translate(327.125571 784.514621) scale(0.1 -0.1)">
       <defs>
        <path id="DejaVuSans-39" d="M 703 97 
L 703 672 
Q 941 559 1184 500 
Q 1428 441 1663 441 
Q 2288 441 2617 861 
Q 2947 1281 2994 2138 
Q 2813 1869 2534 1725 
Q 2256 1581 1919 1581 
Q 1219 1581 811 2004 
Q 403 2428 403 3163 
Q 403 3881 828 4315 
Q 1253 4750 1959 4750 
Q 2769 4750 3195 4129 
Q 3622 3509 3622 2328 
Q 3622 1225 3098 567 
Q 2575 -91 1691 -91 
Q 1453 -91 1209 -44 
Q 966 3 703 97 
z
M 1959 2075 
Q 2384 2075 2632 2365 
Q 2881 2656 2881 3163 
Q 2881 3666 2632 3958 
Q 2384 4250 1959 4250 
Q 1534 4250 1286 3958 
Q 1038 3666 1038 3163 
Q 1038 2656 1286 2365 
Q 1534 2075 1959 2075 
z
" transform="scale(0.015625)"/>
       </defs>
       <use xlink:href="#DejaVuSans-39"/>
       <use xlink:href="#DejaVuSans-30" x="63.623047"/>
       <use xlink:href="#DejaVuSans-30" x="127.246094"/>
      </g>
     </g>
    </g>
    <g id="xtick_3">
     <g id="line2d_3">
      <g>
       <use xlink:href="#m56ff296263" x="467.715385" y="769.916184" style="stroke: #000000; stroke-width: 0.8"/>
      </g>
     </g>
     <g id="text_3">
      <!-- 1000 -->
      <g transform="translate(454.990385 784.514621) scale(0.1 -0.1)">
       <defs>
        <path id="DejaVuSans-31" d="M 794 531 
L 1825 531 
L 1825 4091 
L 703 3866 
L 703 4441 
L 1819 4666 
L 2450 4666 
L 2450 531 
L 3481 531 
L 3481 0 
L 794 0 
L 794 531 
z
" transform="scale(0.015625)"/>
       </defs>
       <use xlink:href="#DejaVuSans-31"/>
       <use xlink:href="#DejaVuSans-30" x="63.623047"/>
       <use xlink:href="#DejaVuSans-30" x="127.246094"/>
       <use xlink:href="#DejaVuSans-30" x="190.869141"/>
      </g>
     </g>
    </g>
    <g id="xtick_4">
     <g id="line2d_4">
      <g>
       <use xlink:href="#m56ff296263" x="598.761449" y="769.916184" style="stroke: #000000; stroke-width: 0.8"/>
      </g>
     </g>
     <g id="text_4">
      <!-- 1100 -->
      <g transform="translate(586.036449 784.514621) scale(0.1 -0.1)">
       <use xlink:href="#DejaVuSans-31"/>
       <use xlink:href="#DejaVuSans-31" x="63.623047"/>
       <use xlink:href="#DejaVuSans-30" x="127.246094"/>
       <use xlink:href="#DejaVuSans-30" x="190.869141"/>
      </g>
     </g>
    </g>
    <g id="xtick_5">
     <g id="line2d_5">
      <g>
       <use xlink:href="#m56ff296263" x="729.807513" y="769.916184" style="stroke: #000000; stroke-width: 0.8"/>
      </g>
     </g>
     <g id="text_5">
      <!-- 1200 -->
      <g transform="translate(717.082513 784.514621) scale(0.1 -0.1)">
       <defs>
        <path id="DejaVuSans-32" d="M 1228 531 
L 3431 531 
L 3431 0 
L 469 0 
L 469 531 
Q 828 903 1448 1529 
Q 2069 2156 2228 2338 
Q 2531 2678 2651 2914 
Q 2772 3150 2772 3378 
Q 2772 3750 2511 3984 
Q 2250 4219 1831 4219 
Q 1534 4219 1204 4116 
Q 875 4013 500 3803 
L 500 4441 
Q 881 4594 1212 4672 
Q 1544 4750 1819 4750 
Q 2544 4750 2975 4387 
Q 3406 4025 3406 3419 
Q 3406 3131 3298 2873 
Q 3191 2616 2906 2266 
Q 2828 2175 2409 1742 
Q 1991 1309 1228 531 
z
" transform="scale(0.015625)"/>
       </defs>
       <use xlink:href="#DejaVuSans-31"/>
       <use xlink:href="#DejaVuSans-32" x="63.623047"/>
       <use xlink:href="#DejaVuSans-30" x="127.246094"/>
       <use xlink:href="#DejaVuSans-30" x="190.869141"/>
      </g>
     </g>
    </g>
    <g id="xtick_6">
     <g id="line2d_6">
      <g>
       <use xlink:href="#m56ff296263" x="860.853577" y="769.916184" style="stroke: #000000; stroke-width: 0.8"/>
      </g>
     </g>
     <g id="text_6">
      <!-- 1300 -->
      <g transform="translate(848.128577 784.514621) scale(0.1 -0.1)">
       <defs>
        <path id="DejaVuSans-33" d="M 2597 2516 
Q 3050 2419 3304 2112 
Q 3559 1806 3559 1356 
Q 3559 666 3084 287 
Q 2609 -91 1734 -91 
Q 1441 -91 1130 -33 
Q 819 25 488 141 
L 488 750 
Q 750 597 1062 519 
Q 1375 441 1716 441 
Q 2309 441 2620 675 
Q 2931 909 2931 1356 
Q 2931 1769 2642 2001 
Q 2353 2234 1838 2234 
L 1294 2234 
L 1294 2753 
L 1863 2753 
Q 2328 2753 2575 2939 
Q 2822 3125 2822 3475 
Q 2822 3834 2567 4026 
Q 2313 4219 1838 4219 
Q 1578 4219 1281 4162 
Q 984 4106 628 3988 
L 628 4550 
Q 988 4650 1302 4700 
Q 1616 4750 1894 4750 
Q 2613 4750 3031 4423 
Q 3450 4097 3450 3541 
Q 3450 3153 3228 2886 
Q 3006 2619 2597 2516 
z
" transform="scale(0.015625)"/>
       </defs>
       <use xlink:href="#DejaVuSans-31"/>
       <use xlink:href="#DejaVuSans-33" x="63.623047"/>
       <use xlink:href="#DejaVuSans-30" x="127.246094"/>
       <use xlink:href="#DejaVuSans-30" x="190.869141"/>
      </g>
     </g>
    </g>
    <g id="xtick_7">
     <g id="line2d_7">
      <g>
       <use xlink:href="#m56ff296263" x="991.899641" y="769.916184" style="stroke: #000000; stroke-width: 0.8"/>
      </g>
     </g>
     <g id="text_7">
      <!-- 1400 -->
      <g transform="translate(979.174641 784.514621) scale(0.1 -0.1)">
       <defs>
        <path id="DejaVuSans-34" d="M 2419 4116 
L 825 1625 
L 2419 1625 
L 2419 4116 
z
M 2253 4666 
L 3047 4666 
L 3047 1625 
L 3713 1625 
L 3713 1100 
L 3047 1100 
L 3047 0 
L 2419 0 
L 2419 1100 
L 313 1100 
L 313 1709 
L 2253 4666 
z
" transform="scale(0.015625)"/>
       </defs>
       <use xlink:href="#DejaVuSans-31"/>
       <use xlink:href="#DejaVuSans-34" x="63.623047"/>
       <use xlink:href="#DejaVuSans-30" x="127.246094"/>
       <use xlink:href="#DejaVuSans-30" x="190.869141"/>
      </g>
     </g>
    </g>
    <g id="xtick_8">
     <g id="line2d_8">
      <g>
       <use xlink:href="#m56ff296263" x="1122.945705" y="769.916184" style="stroke: #000000; stroke-width: 0.8"/>
      </g>
     </g>
     <g id="text_8">
      <!-- 1500 -->
      <g transform="translate(1110.220705 784.514621) scale(0.1 -0.1)">
       <defs>
        <path id="DejaVuSans-35" d="M 691 4666 
L 3169 4666 
L 3169 4134 
L 1269 4134 
L 1269 2991 
Q 1406 3038 1543 3061 
Q 1681 3084 1819 3084 
Q 2600 3084 3056 2656 
Q 3513 2228 3513 1497 
Q 3513 744 3044 326 
Q 2575 -91 1722 -91 
Q 1428 -91 1123 -41 
Q 819 9 494 109 
L 494 744 
Q 775 591 1075 516 
Q 1375 441 1709 441 
Q 2250 441 2565 725 
Q 2881 1009 2881 1497 
Q 2881 1984 2565 2268 
Q 2250 2553 1709 2553 
Q 1456 2553 1204 2497 
Q 953 2441 691 2322 
L 691 4666 
z
" transform="scale(0.015625)"/>
       </defs>
       <use xlink:href="#DejaVuSans-31"/>
       <use xlink:href="#DejaVuSans-35" x="63.623047"/>
       <use xlink:href="#DejaVuSans-30" x="127.246094"/>
       <use xlink:href="#DejaVuSans-30" x="190.869141"/>
      </g>
     </g>
    </g>
    <g id="xtick_9">
     <g id="line2d_9">
      <g>
       <use xlink:href="#m56ff296263" x="1253.991768" y="769.916184" style="stroke: #000000; stroke-width: 0.8"/>
      </g>
     </g>
     <g id="text_9">
      <!-- 1600 -->
      <g transform="translate(1241.266768 784.514621) scale(0.1 -0.1)">
       <defs>
        <path id="DejaVuSans-36" d="M 2113 2584 
Q 1688 2584 1439 2293 
Q 1191 2003 1191 1497 
Q 1191 994 1439 701 
Q 1688 409 2113 409 
Q 2538 409 2786 701 
Q 3034 994 3034 1497 
Q 3034 2003 2786 2293 
Q 2538 2584 2113 2584 
z
M 3366 4563 
L 3366 3988 
Q 3128 4100 2886 4159 
Q 2644 4219 2406 4219 
Q 1781 4219 1451 3797 
Q 1122 3375 1075 2522 
Q 1259 2794 1537 2939 
Q 1816 3084 2150 3084 
Q 2853 3084 3261 2657 
Q 3669 2231 3669 1497 
Q 3669 778 3244 343 
Q 2819 -91 2113 -91 
Q 1303 -91 875 529 
Q 447 1150 447 2328 
Q 447 3434 972 4092 
Q 1497 4750 2381 4750 
Q 2619 4750 2861 4703 
Q 3103 4656 3366 4563 
z
" transform="scale(0.015625)"/>
       </defs>
       <use xlink:href="#DejaVuSans-31"/>
       <use xlink:href="#DejaVuSans-36" x="63.623047"/>
       <use xlink:href="#DejaVuSans-30" x="127.246094"/>
       <use xlink:href="#DejaVuSans-30" x="190.869141"/>
      </g>
     </g>
    </g>
   </g>
   <g id="matplotlib.axis_2">
    <g id="ytick_1">
     <g id="line2d_10">
      <defs>
       <path id="m838d55440c" d="M 0 0 
L -3.5 0 
" style="stroke: #000000; stroke-width: 0.8"/>
      </defs>
      <g>
       <use xlink:href="#m838d55440c" x="180" y="709.07838" style="stroke: #000000; stroke-width: 0.8"/>
      </g>
     </g>
     <g id="text_10">
      <!-- 50 -->
      <g transform="translate(160.275 712.877599) scale(0.1 -0.1)">
       <use xlink:href="#DejaVuSans-35"/>
       <use xlink:href="#DejaVuSans-30" x="63.623047"/>
      </g>
     </g>
    </g>
    <g id="ytick_2">
     <g id="line2d_11">
      <g>
       <use xlink:href="#m838d55440c" x="180" y="643.555349" style="stroke: #000000; stroke-width: 0.8"/>
      </g>
     </g>
     <g id="text_11">
      <!-- 100 -->
      <g transform="translate(153.9125 647.354567) scale(0.1 -0.1)">
       <use xlink:href="#DejaVuSans-31"/>
       <use xlink:href="#DejaVuSans-30" x="63.623047"/>
       <use xlink:href="#DejaVuSans-30" x="127.246094"/>
      </g>
     </g>
    </g>
    <g id="ytick_3">
     <g id="line2d_12">
      <g>
       <use xlink:href="#m838d55440c" x="180" y="578.032317" style="stroke: #000000; stroke-width: 0.8"/>
      </g>
     </g>
     <g id="text_12">
      <!-- 150 -->
      <g transform="translate(153.9125 581.831535) scale(0.1 -0.1)">
       <use xlink:href="#DejaVuSans-31"/>
       <use xlink:href="#DejaVuSans-35" x="63.623047"/>
       <use xlink:href="#DejaVuSans-30" x="127.246094"/>
      </g>
     </g>
    </g>
    <g id="ytick_4">
     <g id="line2d_13">
      <g>
       <use xlink:href="#m838d55440c" x="180" y="512.509285" style="stroke: #000000; stroke-width: 0.8"/>
      </g>
     </g>
     <g id="text_13">
      <!-- 200 -->
      <g transform="translate(153.9125 516.308503) scale(0.1 -0.1)">
       <use xlink:href="#DejaVuSans-32"/>
       <use xlink:href="#DejaVuSans-30" x="63.623047"/>
       <use xlink:href="#DejaVuSans-30" x="127.246094"/>
      </g>
     </g>
    </g>
    <g id="ytick_5">
     <g id="line2d_14">
      <g>
       <use xlink:href="#m838d55440c" x="180" y="446.986253" style="stroke: #000000; stroke-width: 0.8"/>
      </g>
     </g>
     <g id="text_14">
      <!-- 250 -->
      <g transform="translate(153.9125 450.785471) scale(0.1 -0.1)">
       <use xlink:href="#DejaVuSans-32"/>
       <use xlink:href="#DejaVuSans-35" x="63.623047"/>
       <use xlink:href="#DejaVuSans-30" x="127.246094"/>
      </g>
     </g>
    </g>
    <g id="ytick_6">
     <g id="line2d_15">
      <g>
       <use xlink:href="#m838d55440c" x="180" y="381.463221" style="stroke: #000000; stroke-width: 0.8"/>
      </g>
     </g>
     <g id="text_15">
      <!-- 300 -->
      <g transform="translate(153.9125 385.262439) scale(0.1 -0.1)">
       <use xlink:href="#DejaVuSans-33"/>
       <use xlink:href="#DejaVuSans-30" x="63.623047"/>
       <use xlink:href="#DejaVuSans-30" x="127.246094"/>
      </g>
     </g>
    </g>
   </g>
   <g id="LineCollection_1">
    <path d="M 1245.272727 525.233555 
L 1222.808209 487.523445 
L 1201.66167 455.316782 
L 1181.620636 428.034619 
L 1162.45666 405.149932 
L 1146.16553 388.317708 
L 1143.924784 386.202859 
L 1128.687104 373.071929 
L 1125.775765 370.825097 
L 1111.489638 360.982393 
L 1107.794331 358.767229 
L 1094.365178 351.83124 
L 1089.871915 349.905253 
L 1074.677052 344.756106 
L 1072.089983 344.187085 
L 1057.439378 341.666218 
L 1054.739248 341.508047 
L 1040.79031 341.3442 
L 1038.210702 341.590787 
L 1027.39722 343.041243 
L 1022.816228 343.979459 
L 1012.48398 346.846641 
L 1008.679643 348.148566 
L 998.770552 352.207498 
L 995.751848 353.620166 
L 983.887867 360.016968 
L 972.915719 367.059341 
L 962.674365 374.54091 
L 953.027504 382.304641 
L 943.86491 390.225962 
L 935.099067 398.202425 
L 926.660804 406.147787 
L 895.093057 436.44647 
L 887.604884 443.385709 
L 880.242595 449.993594 
L 872.989249 456.250645 
L 865.830192 462.144068 
L 858.752255 467.66712 
L 851.743078 472.818414 
L 844.790579 477.601131 
L 837.882565 482.022187 
L 831.006509 486.091351 
L 824.14949 489.820375 
L 817.298287 493.222161 
L 810.439607 496.310038 
L 803.560404 499.097148 
L 796.648241 501.596004 
L 789.691637 503.818189 
L 782.680368 505.774207 
L 775.605676 507.473448 
L 768.460381 508.924234 
L 761.238881 510.133918 
L 753.937073 511.109005 
L 746.552182 511.855257 
L 739.08256 512.377801 
L 731.527439 512.681196 
L 723.886685 512.769495 
L 716.160556 512.646272 
L 708.349476 512.314651 
L 700.453839 511.777326 
L 692.473837 511.036577 
L 684.409323 510.094311 
L 676.259711 508.952103 
L 668.023897 507.611264 
L 659.700224 506.07293 
L 651.286458 504.338185 
L 642.779805 502.408201 
L 634.176935 500.284418 
L 625.474029 497.968759 
L 616.66683 495.463867 
L 607.750706 492.773386 
L 598.720701 489.902273 
L 589.571581 486.857133 
L 570.893799 480.281738 
L 551.67015 473.148038 
L 511.219569 457.843372 
L 500.627493 453.989863 
L 489.820238 450.218931 
L 478.776719 446.591305 
L 467.471014 443.17952 
L 455.871797 440.071033 
L 443.942631 437.372548 
L 431.644191 435.215719 
L 418.940247 433.76391 
L 408.636785 433.243604 
L 405.809815 433.218284 
L 395.555776 433.552092 
L 392.267394 433.818957 
L 382.08378 435.144228 
L 378.389436 435.834016 
L 368.299533 438.3007 
L 364.336638 439.529573 
L 354.366145 443.300906 
L 350.352326 445.124051 
L 340.529488 450.377245 
L 336.721081 452.748934 
L 327.076823 459.675883 
L 323.698488 462.447347 
L 314.266549 471.255337 
L 311.451647 474.219544 
L 302.26872 485.131974 
L 300.044131 488.087407 
L 291.15 501.344523 
L 289.462661 504.140485 
L 280.90034 520.000113 
L 279.658162 522.549353 
L 270.578549 543.556009 
L 262.186533 567.45669 
L 254.465743 594.586659 
L 247.420514 625.309958 
L 241.073212 660.013711 
L 235.461137 699.105578 
L 230.727273 742.036935 
L 230.727273 742.036935 
" clip-path="url(#p344be653df)" style="fill: none; stroke: #1f77b4; stroke-width: 1.5"/>
    <path d="M 1215.98841 542.649879 
L 1194.304669 506.190203 
L 1174.162891 475.434355 
L 1155.428002 449.82557 
L 1137.973831 428.845727 
L 1121.682701 412.013503 
L 1106.445021 398.882573 
L 1092.158894 389.039868 
L 1078.729741 382.103879 
L 1066.069925 377.723013 
L 1054.098397 375.573996 
L 1042.740347 375.360328 
L 1031.926866 376.810784 
L 1021.594618 379.677965 
L 1011.685527 383.736897 
L 1002.146469 388.783669 
L 992.928977 394.634132 
L 983.988956 401.122629 
L 975.286404 408.100783 
L 966.785154 415.436318 
L 958.452608 423.011934 
L 950.259499 430.724223 
L 942.179651 438.482624 
L 934.189751 446.20843 
L 926.269133 453.833826 
L 918.399566 461.300979 
L 910.565059 468.561163 
L 902.751665 475.573929 
L 894.947303 482.306311 
L 887.141581 488.732076 
L 879.325635 494.831011 
L 871.49197 500.58825 
L 863.634313 505.993637 
L 855.747476 511.04113 
L 847.827217 515.728241 
L 839.870126 520.055512 
L 831.873503 524.026027 
L 823.83525 527.644964 
L 815.753776 530.919175 
L 807.6279 533.856807 
L 799.456765 536.466956 
L 791.239763 538.759352 
L 782.976465 540.744079 
L 774.666553 542.431329 
L 766.309766 543.831188 
L 757.905851 544.95345 
L 749.45452 545.807468 
L 740.955408 546.40203 
L 732.408052 546.745271 
L 723.81186 546.844611 
L 715.166097 546.706721 
L 706.469872 546.337522 
L 697.722136 545.742207 
L 688.921677 544.9253 
L 680.067134 543.890726 
L 671.157001 542.641927 
L 662.189652 541.181989 
L 653.163358 539.513802 
L 644.076321 537.640242 
L 634.926703 535.564382 
L 625.712668 533.289722 
L 616.432423 530.820445 
L 607.084271 528.161698 
L 597.666659 525.319891 
L 588.178239 522.303023 
L 578.617929 519.121026 
L 568.984984 515.786131 
L 559.27906 512.313259 
L 549.500295 508.720422 
L 539.649387 505.029157 
L 529.727677 501.264964 
L 519.737234 497.457778 
L 509.680949 493.642447 
L 499.562629 489.859233 
L 489.387091 486.15433 
L 479.160268 482.580399 
L 468.889311 479.197113 
L 458.582697 476.071729 
L 448.250339 473.279661 
L 437.903697 470.905082 
L 427.555902 469.041529 
L 417.221864 467.792527 
L 406.918402 467.272221 
L 396.664363 467.606029 
L 386.480749 468.931301 
L 376.390846 471.397985 
L 366.420353 475.169318 
L 356.597516 480.422512 
L 346.953258 487.349461 
L 337.521319 496.15745 
L 328.338393 507.069881 
L 319.444262 520.326997 
L 310.881941 536.186626 
L 302.697818 554.92492 
L 294.941796 576.837112 
L 287.667436 602.238272 
L 280.932101 631.464073 
L 274.797104 664.871559 
L 269.32785 702.839921 
L 264.593986 745.771278 
" clip-path="url(#p344be653df)" style="fill: none; stroke: #8c564b; stroke-width: 1.5"/>
    <path d="M 1186.704092 560.066203 
L 1165.397212 524.240191 
L 1146.142939 494.839534 
L 1128.556218 470.800185 
L 1112.600299 451.621235 
L 1098.272385 436.817432 
L 1085.597892 425.895305 
L 1074.605637 418.321977 
L 1065.271672 413.501102 
L 1057.436707 410.789851 
L 1050.746856 409.588952 
L 1044.696041 409.475123 
L 1038.779274 410.268763 
L 1032.645903 411.970764 
L 1026.144442 414.633872 
L 1019.269261 418.271283 
L 1012.083467 422.8322 
L 1004.664812 428.216519 
L 997.080232 434.298226 
L 989.378523 440.943854 
L 981.591236 448.023743 
L 965.82123 463.017882 
L 949.721433 478.549999 
L 941.558662 486.292095 
L 933.323405 493.917766 
L 925.00711 501.373053 
L 916.602132 508.611595 
L 908.102265 515.593746 
L 899.503158 522.285832 
L 890.802605 528.659569 
L 882.000724 534.691626 
L 873.099979 540.36331 
L 864.105068 545.66035 
L 855.022655 550.572727 
L 845.860977 555.094502 
L 836.629345 559.223607 
L 827.337604 562.961561 
L 817.995585 566.313096 
L 808.612606 569.285704 
L 799.197061 571.889112 
L 789.756127 574.134733 
L 780.295575 576.035104 
L 770.819716 577.603365 
L 761.331422 578.852787 
L 751.832241 579.796378 
L 742.322556 580.446567 
L 732.801771 580.814973 
L 723.26852 580.912255 
L 713.720868 580.748033 
L 704.156505 580.330873 
L 694.572923 579.668334 
L 684.967573 578.767059 
L 675.338002 577.632909 
L 665.681965 576.271135 
L 655.997528 574.686574 
L 646.283135 572.88388 
L 636.537679 570.867768 
L 626.760546 568.64328 
L 616.951663 566.21607 
L 607.11153 563.592698 
L 597.241269 560.780939 
L 587.342669 557.790106 
L 577.418259 554.631376 
L 567.471392 551.318142 
L 547.800447 544.393487 
L 537.544846 540.626015 
L 507.62758 529.305172 
L 487.767632 521.824827 
L 477.937937 518.245846 
L 468.209196 514.845977 
L 458.614169 511.685345 
L 449.192651 508.828357 
L 439.992419 506.342219 
L 431.069661 504.294425 
L 422.488044 502.748947 
L 414.314987 501.761127 
L 406.612979 501.372189 
L 399.423609 501.606231 
L 392.74394 502.475507 
L 386.501087 504.001701 
L 380.540567 506.256264 
L 374.647991 509.407578 
L 368.607902 513.745847 
L 362.272609 519.662043 
L 355.600694 527.59054 
L 348.649266 537.951969 
L 341.53772 551.124388 
L 334.409958 567.444046 
L 327.409537 587.221525 
L 320.668571 610.76014 
L 314.305548 638.370414 
L 308.427339 670.379586 
L 303.132491 707.137204 
L 298.460699 749.505622 
L 298.460699 749.505622 
" clip-path="url(#p344be653df)" style="fill: none; stroke: #17becf; stroke-width: 1.5"/>
   </g>
   <g id="patch_3">
    <path d="M 180 769.916184 
L 180 320.883816 
" style="fill: none; stroke: #000000; stroke-width: 0.8; stroke-linejoin: miter; stroke-linecap: square"/>
   </g>
   <g id="patch_4">
    <path d="M 1296 769.916184 
L 1296 320.883816 
" style="fill: none; stroke: #000000; stroke-width: 0.8; stroke-linejoin: miter; stroke-linecap: square"/>
   </g>
   <g id="patch_5">
    <path d="M 180 769.916184 
L 1296 769.916184 
" style="fill: none; stroke: #000000; stroke-width: 0.8; stroke-linejoin: miter; stroke-linecap: square"/>
   </g>
   <g id="patch_6">
    <path d="M 180 320.883816 
L 1296 320.883816 
" style="fill: none; stroke: #000000; stroke-width: 0.8; stroke-linejoin: miter; stroke-linecap: square"/>
   </g>
  </g>
 </g>
 <defs>
  <clipPath id="p344be653df">
   <rect x="180" y="320.883816" width="1116" height="449.032368"/>
  </clipPath>
 </defs>
</svg>
