<?xml version="1.0" encoding="utf-8" standalone="no"?>
<!DOCTYPE svg PUBLIC "-//W3C//DTD SVG 1.1//EN"
  "http://www.w3.org/Graphics/SVG/1.1/DTD/svg11.dtd">
<svg xmlns:xlink="http://www.w3.org/1999/xlink" width="1440pt" height="1080pt" viewBox="0 0 1440 1080" xmlns="http://www.w3.org/2000/svg" version="1.1">
 <metadata>
  <rdf:RDF xmlns:dc="http://purl.org/dc/elements/1.1/" xmlns:cc="http://creativecommons.org/ns#" xmlns:rdf="http://www.w3.org/1999/02/22-rdf-syntax-ns#">
   <cc:Work>
    <dc:type rdf:resource="http://purl.org/dc/dcmitype/StillImage"/>
    <dc:date>2023-12-11T12:07:00.225053</dc:date>
    <dc:format>image/svg+xml</dc:format>
    <dc:creator>
     <cc:Agent>
      <dc:title>Matplotlib v3.7.1, https://matplotlib.org/</dc:title>
     </cc:Agent>
    </dc:creator>
   </cc:Work>
  </rdf:RDF>
 </metadata>
 <defs>
  <style type="text/css">*{stroke-linejoin: round; stroke-linecap: butt}</style>
 </defs>
 <g id="figure_1">
  <g id="patch_1">
   <path d="M 0 1080 
L 1440 1080 
L 1440 0 
L 0 0 
z
" style="fill: #ffffff"/>
  </g>
  <g id="axes_1">
   <g id="patch_2">
    <path d="M 295.560026 961.2 
L 1180.439974 961.2 
L 1180.439974 129.6 
L 295.560026 129.6 
z
" style="fill: #ffffff"/>
   </g>
   <g id="matplotlib.axis_1">
    <g id="xtick_1">
     <g id="line2d_1">
      <defs>
       <path id="mc52b73eab3" d="M 0 0 
L 0 3.5 
" style="stroke: #000000; stroke-width: 0.8"/>
      </defs>
      <g>
       <use xlink:href="#mc52b73eab3" x="450.791353" y="961.2" style="stroke: #000000; stroke-width: 0.8"/>
      </g>
     </g>
     <g id="text_1">
      <!-- 600 -->
      <g transform="translate(441.247603 975.798437) scale(0.1 -0.1)">
       <defs>
        <path id="DejaVuSans-36" d="M 2113 2584 
Q 1688 2584 1439 2293 
Q 1191 2003 1191 1497 
Q 1191 994 1439 701 
Q 1688 409 2113 409 
Q 2538 409 2786 701 
Q 3034 994 3034 1497 
Q 3034 2003 2786 2293 
Q 2538 2584 2113 2584 
z
M 3366 4563 
L 3366 3988 
Q 3128 4100 2886 4159 
Q 2644 4219 2406 4219 
Q 1781 4219 1451 3797 
Q 1122 3375 1075 2522 
Q 1259 2794 1537 2939 
Q 1816 3084 2150 3084 
Q 2853 3084 3261 2657 
Q 3669 2231 3669 1497 
Q 3669 778 3244 343 
Q 2819 -91 2113 -91 
Q 1303 -91 875 529 
Q 447 1150 447 2328 
Q 447 3434 972 4092 
Q 1497 4750 2381 4750 
Q 2619 4750 2861 4703 
Q 3103 4656 3366 4563 
z
" transform="scale(0.015625)"/>
        <path id="DejaVuSans-30" d="M 2034 4250 
Q 1547 4250 1301 3770 
Q 1056 3291 1056 2328 
Q 1056 1369 1301 889 
Q 1547 409 2034 409 
Q 2525 409 2770 889 
Q 3016 1369 3016 2328 
Q 3016 3291 2770 3770 
Q 2525 4250 2034 4250 
z
M 2034 4750 
Q 2819 4750 3233 4129 
Q 3647 3509 3647 2328 
Q 3647 1150 3233 529 
Q 2819 -91 2034 -91 
Q 1250 -91 836 529 
Q 422 1150 422 2328 
Q 422 3509 836 4129 
Q 1250 4750 2034 4750 
z
" transform="scale(0.015625)"/>
       </defs>
       <use xlink:href="#DejaVuSans-36"/>
       <use xlink:href="#DejaVuSans-30" x="63.623047"/>
       <use xlink:href="#DejaVuSans-30" x="127.246094"/>
      </g>
     </g>
    </g>
    <g id="xtick_2">
     <g id="line2d_2">
      <g>
       <use xlink:href="#mc52b73eab3" x="619.145669" y="961.2" style="stroke: #000000; stroke-width: 0.8"/>
      </g>
     </g>
     <g id="text_2">
      <!-- 800 -->
      <g transform="translate(609.601919 975.798437) scale(0.1 -0.1)">
       <defs>
        <path id="DejaVuSans-38" d="M 2034 2216 
Q 1584 2216 1326 1975 
Q 1069 1734 1069 1313 
Q 1069 891 1326 650 
Q 1584 409 2034 409 
Q 2484 409 2743 651 
Q 3003 894 3003 1313 
Q 3003 1734 2745 1975 
Q 2488 2216 2034 2216 
z
M 1403 2484 
Q 997 2584 770 2862 
Q 544 3141 544 3541 
Q 544 4100 942 4425 
Q 1341 4750 2034 4750 
Q 2731 4750 3128 4425 
Q 3525 4100 3525 3541 
Q 3525 3141 3298 2862 
Q 3072 2584 2669 2484 
Q 3125 2378 3379 2068 
Q 3634 1759 3634 1313 
Q 3634 634 3220 271 
Q 2806 -91 2034 -91 
Q 1263 -91 848 271 
Q 434 634 434 1313 
Q 434 1759 690 2068 
Q 947 2378 1403 2484 
z
M 1172 3481 
Q 1172 3119 1398 2916 
Q 1625 2713 2034 2713 
Q 2441 2713 2670 2916 
Q 2900 3119 2900 3481 
Q 2900 3844 2670 4047 
Q 2441 4250 2034 4250 
Q 1625 4250 1398 4047 
Q 1172 3844 1172 3481 
z
" transform="scale(0.015625)"/>
       </defs>
       <use xlink:href="#DejaVuSans-38"/>
       <use xlink:href="#DejaVuSans-30" x="63.623047"/>
       <use xlink:href="#DejaVuSans-30" x="127.246094"/>
      </g>
     </g>
    </g>
    <g id="xtick_3">
     <g id="line2d_3">
      <g>
       <use xlink:href="#mc52b73eab3" x="787.499984" y="961.2" style="stroke: #000000; stroke-width: 0.8"/>
      </g>
     </g>
     <g id="text_3">
      <!-- 1000 -->
      <g transform="translate(774.774984 975.798437) scale(0.1 -0.1)">
       <defs>
        <path id="DejaVuSans-31" d="M 794 531 
L 1825 531 
L 1825 4091 
L 703 3866 
L 703 4441 
L 1819 4666 
L 2450 4666 
L 2450 531 
L 3481 531 
L 3481 0 
L 794 0 
L 794 531 
z
" transform="scale(0.015625)"/>
       </defs>
       <use xlink:href="#DejaVuSans-31"/>
       <use xlink:href="#DejaVuSans-30" x="63.623047"/>
       <use xlink:href="#DejaVuSans-30" x="127.246094"/>
       <use xlink:href="#DejaVuSans-30" x="190.869141"/>
      </g>
     </g>
    </g>
    <g id="xtick_4">
     <g id="line2d_4">
      <g>
       <use xlink:href="#mc52b73eab3" x="955.8543" y="961.2" style="stroke: #000000; stroke-width: 0.8"/>
      </g>
     </g>
     <g id="text_4">
      <!-- 1200 -->
      <g transform="translate(943.1293 975.798437) scale(0.1 -0.1)">
       <defs>
        <path id="DejaVuSans-32" d="M 1228 531 
L 3431 531 
L 3431 0 
L 469 0 
L 469 531 
Q 828 903 1448 1529 
Q 2069 2156 2228 2338 
Q 2531 2678 2651 2914 
Q 2772 3150 2772 3378 
Q 2772 3750 2511 3984 
Q 2250 4219 1831 4219 
Q 1534 4219 1204 4116 
Q 875 4013 500 3803 
L 500 4441 
Q 881 4594 1212 4672 
Q 1544 4750 1819 4750 
Q 2544 4750 2975 4387 
Q 3406 4025 3406 3419 
Q 3406 3131 3298 2873 
Q 3191 2616 2906 2266 
Q 2828 2175 2409 1742 
Q 1991 1309 1228 531 
z
" transform="scale(0.015625)"/>
       </defs>
       <use xlink:href="#DejaVuSans-31"/>
       <use xlink:href="#DejaVuSans-32" x="63.623047"/>
       <use xlink:href="#DejaVuSans-30" x="127.246094"/>
       <use xlink:href="#DejaVuSans-30" x="190.869141"/>
      </g>
     </g>
    </g>
    <g id="xtick_5">
     <g id="line2d_5">
      <g>
       <use xlink:href="#mc52b73eab3" x="1124.208616" y="961.2" style="stroke: #000000; stroke-width: 0.8"/>
      </g>
     </g>
     <g id="text_5">
      <!-- 1400 -->
      <g transform="translate(1111.483616 975.798437) scale(0.1 -0.1)">
       <defs>
        <path id="DejaVuSans-34" d="M 2419 4116 
L 825 1625 
L 2419 1625 
L 2419 4116 
z
M 2253 4666 
L 3047 4666 
L 3047 1625 
L 3713 1625 
L 3713 1100 
L 3047 1100 
L 3047 0 
L 2419 0 
L 2419 1100 
L 313 1100 
L 313 1709 
L 2253 4666 
z
" transform="scale(0.015625)"/>
       </defs>
       <use xlink:href="#DejaVuSans-31"/>
       <use xlink:href="#DejaVuSans-34" x="63.623047"/>
       <use xlink:href="#DejaVuSans-30" x="127.246094"/>
       <use xlink:href="#DejaVuSans-30" x="190.869141"/>
      </g>
     </g>
    </g>
   </g>
   <g id="matplotlib.axis_2">
    <g id="ytick_1">
     <g id="line2d_6">
      <defs>
       <path id="m776d3fbf4b" d="M 0 0 
L -3.5 0 
" style="stroke: #000000; stroke-width: 0.8"/>
      </defs>
      <g>
       <use xlink:href="#m776d3fbf4b" x="295.560026" y="936.200744" style="stroke: #000000; stroke-width: 0.8"/>
      </g>
     </g>
     <g id="text_6">
      <!-- 200 -->
      <g transform="translate(269.472526 939.999963) scale(0.1 -0.1)">
       <use xlink:href="#DejaVuSans-32"/>
       <use xlink:href="#DejaVuSans-30" x="63.623047"/>
       <use xlink:href="#DejaVuSans-30" x="127.246094"/>
      </g>
     </g>
    </g>
    <g id="ytick_2">
     <g id="line2d_7">
      <g>
       <use xlink:href="#m776d3fbf4b" x="295.560026" y="767.846429" style="stroke: #000000; stroke-width: 0.8"/>
      </g>
     </g>
     <g id="text_7">
      <!-- 400 -->
      <g transform="translate(269.472526 771.645648) scale(0.1 -0.1)">
       <use xlink:href="#DejaVuSans-34"/>
       <use xlink:href="#DejaVuSans-30" x="63.623047"/>
       <use xlink:href="#DejaVuSans-30" x="127.246094"/>
      </g>
     </g>
    </g>
    <g id="ytick_3">
     <g id="line2d_8">
      <g>
       <use xlink:href="#m776d3fbf4b" x="295.560026" y="599.492113" style="stroke: #000000; stroke-width: 0.8"/>
      </g>
     </g>
     <g id="text_8">
      <!-- 600 -->
      <g transform="translate(269.472526 603.291332) scale(0.1 -0.1)">
       <use xlink:href="#DejaVuSans-36"/>
       <use xlink:href="#DejaVuSans-30" x="63.623047"/>
       <use xlink:href="#DejaVuSans-30" x="127.246094"/>
      </g>
     </g>
    </g>
    <g id="ytick_4">
     <g id="line2d_9">
      <g>
       <use xlink:href="#m776d3fbf4b" x="295.560026" y="431.137798" style="stroke: #000000; stroke-width: 0.8"/>
      </g>
     </g>
     <g id="text_9">
      <!-- 800 -->
      <g transform="translate(269.472526 434.937017) scale(0.1 -0.1)">
       <use xlink:href="#DejaVuSans-38"/>
       <use xlink:href="#DejaVuSans-30" x="63.623047"/>
       <use xlink:href="#DejaVuSans-30" x="127.246094"/>
      </g>
     </g>
    </g>
    <g id="ytick_5">
     <g id="line2d_10">
      <g>
       <use xlink:href="#m776d3fbf4b" x="295.560026" y="262.783482" style="stroke: #000000; stroke-width: 0.8"/>
      </g>
     </g>
     <g id="text_10">
      <!-- 1000 -->
      <g transform="translate(263.110026 266.582701) scale(0.1 -0.1)">
       <use xlink:href="#DejaVuSans-31"/>
       <use xlink:href="#DejaVuSans-30" x="63.623047"/>
       <use xlink:href="#DejaVuSans-30" x="127.246094"/>
       <use xlink:href="#DejaVuSans-30" x="190.869141"/>
      </g>
     </g>
    </g>
   </g>
   <g id="LineCollection_1">
    <path d="M 335.781842 922.72576 
L 356.802311 923.250648 
L 377.069171 923.398925 
L 396.58735 923.147505 
L 415.365527 922.478522 
L 433.41548 921.378864 
L 450.751461 919.839765 
L 467.389599 917.856484 
L 483.347368 915.428046 
L 498.643126 912.557063 
L 513.295753 909.249609 
L 527.324421 905.515121 
L 540.748493 901.366311 
L 553.587553 896.819032 
L 565.861553 891.892062 
L 577.591021 886.6068 
L 588.797294 880.986842 
L 599.502719 875.057459 
L 609.73077 868.845015 
L 619.506055 862.376355 
L 628.854216 855.678224 
L 637.80172 848.776743 
L 646.375574 841.696983 
L 654.603001 834.462635 
L 662.511101 827.095788 
L 670.126532 819.616794 
L 677.47522 812.044207 
L 684.582124 804.394775 
L 691.471043 796.683473 
L 698.164476 788.923562 
L 704.68352 781.126654 
L 711.047815 773.302793 
L 723.383272 757.60702 
L 735.29826 741.888226 
L 746.897147 726.178354 
L 763.878322 702.657613 
L 780.527742 679.174003 
L 796.959389 655.659995 
L 813.221216 632.013219 
L 829.315063 608.11746 
L 839.94023 591.993569 
L 850.473011 575.682588 
L 860.908527 559.164401 
L 871.247803 542.427565 
L 881.500459 525.47052 
L 896.76519 499.644756 
L 937.947006 429.133797 
L 948.742818 411.373531 
L 959.92875 393.665891 
L 965.703101 384.846611 
L 971.618045 376.057001 
L 977.688807 367.30092 
L 983.9309 358.581086 
L 990.360035 349.89887 
L 996.992011 341.254086 
L 1003.842583 332.644786 
L 1010.927308 324.067053 
L 1018.261335 315.514794 
L 1025.859169 306.979515 
L 1033.734373 298.450086 
L 1041.899219 289.912475 
L 1050.364296 281.349434 
L 1059.138056 272.740143 
L 1068.226328 264.059792 
L 1077.631786 255.279087 
L 1097.385771 237.273613 
L 1129.288255 208.388 
L 1140.218158 198.230365 
L 1140.218158 198.230365 
" clip-path="url(#peb4f14d193)" style="fill: none; stroke: #1f77b4; stroke-width: 1.5"/>
    <path d="M 336.310419 901.68811 
L 356.960699 902.206954 
L 376.803935 902.356307 
L 395.845559 902.116293 
L 414.095127 901.472614 
L 431.565867 900.416015 
L 448.274253 898.941785 
L 464.239595 897.049283 
L 479.483662 894.741483 
L 494.030316 892.02455 
L 507.905176 888.907441 
L 521.135296 885.401522 
L 533.748873 881.520218 
L 545.774962 877.278675 
L 557.243222 872.693455 
L 568.183676 867.782242 
L 578.626486 862.563575 
L 588.601753 857.056597 
L 598.139329 851.280829 
L 607.268649 845.255957 
L 616.018574 839.001641 
L 624.417258 832.537338 
L 632.49202 825.882146 
L 640.269244 819.054665 
L 647.774276 812.072869 
L 655.031352 804.953996 
L 662.063524 797.714456 
L 668.892614 790.369747 
L 675.539162 782.93439 
L 682.022403 775.421873 
L 688.360242 767.844609 
L 694.569248 760.213907 
L 700.664653 752.539952 
L 706.660359 744.831797 
L 712.568964 737.097366 
L 718.401782 729.343461 
L 724.168881 721.575785 
L 729.879127 713.798971 
L 735.54023 706.016616 
L 741.158799 698.231322 
L 746.740408 690.44475 
L 752.289656 682.65767 
L 757.810243 674.870027 
L 763.305042 667.081 
L 768.776178 659.289077 
L 774.225113 651.492124 
L 779.652727 643.687461 
L 785.059405 635.871944 
L 790.445126 628.042038 
L 795.809554 620.193905 
L 801.152124 612.323481 
L 806.472132 604.426559 
L 811.768826 596.498869 
L 817.041493 588.536159 
L 822.289545 580.534274 
L 827.512604 572.489227 
L 832.710582 564.397277 
L 837.883759 556.254994 
L 843.032861 548.059326 
L 848.159125 539.807658 
L 853.264371 531.497867 
L 858.351056 523.128372 
L 863.422332 514.698174 
L 868.482093 506.206894 
L 873.535019 497.654798 
L 878.586604 489.042817 
L 883.643187 480.372559 
L 888.71197 471.646308 
L 893.801022 462.867015 
L 898.919281 454.038279 
L 904.076543 445.164316 
L 909.283442 436.249914 
L 914.551412 427.300382 
L 919.892651 418.321477 
L 925.320058 409.319325 
L 930.847165 400.300323 
L 936.48806 391.271032 
L 942.257286 382.238045 
L 948.169732 373.20785 
L 954.240511 364.186668 
L 960.484817 355.180278 
L 966.917771 346.193824 
L 973.554248 337.231603 
L 980.40869 328.296834 
L 987.494897 319.391405 
L 994.825805 310.51561 
L 1002.413242 301.667847 
L 1010.26767 292.844315 
L 1018.397898 284.038677 
L 1026.810786 275.241699 
L 1035.510922 266.440878 
L 1044.500281 257.620031 
L 1053.777858 248.758872 
L 1063.339283 239.832559 
L 1073.176415 230.811215 
L 1083.276906 221.659425 
L 1093.623749 212.335704 
L 1104.194797 202.791942 
L 1114.962255 192.972817 
L 1125.892159 182.815182 
" clip-path="url(#peb4f14d193)" style="fill: none; stroke: #8c564b; stroke-width: 1.5"/>
    <path d="M 336.838996 880.65046 
L 357.304208 881.164654 
L 376.750506 881.311019 
L 395.341981 881.076679 
L 413.088873 880.45073 
L 430.005564 879.427639 
L 446.110356 878.006666 
L 461.425257 876.191266 
L 475.97577 873.988463 
L 489.790659 871.408205 
L 502.901671 868.462701 
L 515.343189 865.165758 
L 527.151788 861.532152 
L 538.365701 857.57706 
L 549.024207 853.315594 
L 559.166957 848.762473 
L 568.833297 843.931837 
L 578.061632 838.837213 
L 586.888887 833.491602 
L 595.350093 827.90765 
L 603.478122 822.097856 
L 611.303561 816.074768 
L 618.854707 809.851139 
L 626.157655 803.440016 
L 633.236435 796.854755 
L 640.113175 790.108974 
L 646.808269 783.216453 
L 653.340519 776.190997 
L 659.727263 769.046278 
L 665.984472 761.795676 
L 672.126824 754.452129 
L 678.167757 747.027984 
L 684.119511 739.534881 
L 689.993156 731.983651 
L 695.79862 724.384231 
L 701.54472 716.745604 
L 707.239185 709.07576 
L 712.888694 701.381664 
L 718.498921 693.669249 
L 724.074578 685.943416 
L 729.619479 678.208052 
L 735.136602 670.466053 
L 740.62816 662.719359 
L 746.095681 654.969 
L 751.540091 647.21514 
L 756.9618 639.457145 
L 762.360795 631.693634 
L 767.73673 623.922556 
L 773.089017 616.141259 
L 778.416919 608.346564 
L 783.71964 600.534843 
L 788.996411 592.7021 
L 794.246575 584.844052 
L 799.469666 576.956212 
L 804.665485 569.033969 
L 809.834172 561.072672 
L 814.976271 553.067711 
L 820.092793 545.014599 
L 825.185276 536.909049 
L 830.255832 528.747054 
L 835.307202 520.524957 
L 840.342796 512.239525 
L 845.366739 503.888011 
L 850.383902 495.46822 
L 855.399939 486.978558 
L 860.421313 478.418081 
L 865.455319 469.786536 
L 870.510099 461.08439 
L 875.594411 452.313274 
L 880.713159 443.483694 
L 880.724543 443.464082 
L 885.881805 434.590119 
L 885.904993 434.550321 
L 891.111892 425.635919 
L 891.147784 425.574707 
L 896.415755 416.625175 
L 896.465241 416.541547 
L 901.80648 407.562642 
L 901.870428 407.455861 
L 907.297835 398.453709 
L 907.377078 398.323343 
L 912.904186 389.304341 
L 912.999501 389.150301 
L 918.640396 380.121009 
L 918.752469 379.943591 
L 924.521695 370.910604 
L 924.651081 370.710527 
L 930.563527 361.680332 
L 930.710598 361.458776 
L 936.781377 352.437593 
L 936.946254 352.196222 
L 943.19056 343.189832 
L 943.373045 342.930814 
L 949.805998 333.94436 
L 950.005491 333.67037 
L 956.641968 324.708149 
L 956.857384 324.422355 
L 963.711826 315.487585 
L 963.941518 315.193614 
L 971.027725 306.288185 
L 971.269413 305.990069 
L 978.600321 297.114273 
L 978.851038 296.816378 
L 986.438475 287.968615 
L 986.694534 287.675552 
L 994.548961 278.85202 
L 994.805957 278.568547 
L 1002.936184 269.762909 
L 1003.189021 269.493843 
L 1011.601909 260.696865 
L 1011.844864 260.446994 
L 1020.545001 251.646172 
L 1020.771815 251.420198 
L 1029.761174 242.599351 
L 1029.96517 242.401862 
L 1039.242746 233.540703 
L 1039.416964 233.376192 
L 1048.978389 224.449879 
L 1049.115735 224.322795 
L 1058.952867 215.301451 
L 1059.046275 215.216304 
L 1069.146766 206.064514 
L 1069.18937 206.026017 
L 1079.528871 196.708912 
L 1090.053581 187.206984 
L 1100.708919 177.490106 
L 1111.566159 167.4 
" clip-path="url(#peb4f14d193)" style="fill: none; stroke: #17becf; stroke-width: 1.5"/>
   </g>
   <g id="patch_3">
    <path d="M 295.560026 961.2 
L 295.560026 129.6 
" style="fill: none; stroke: #000000; stroke-width: 0.8; stroke-linejoin: miter; stroke-linecap: square"/>
   </g>
   <g id="patch_4">
    <path d="M 1180.439974 961.2 
L 1180.439974 129.6 
" style="fill: none; stroke: #000000; stroke-width: 0.8; stroke-linejoin: miter; stroke-linecap: square"/>
   </g>
   <g id="patch_5">
    <path d="M 295.560026 961.2 
L 1180.439974 961.2 
" style="fill: none; stroke: #000000; stroke-width: 0.8; stroke-linejoin: miter; stroke-linecap: square"/>
   </g>
   <g id="patch_6">
    <path d="M 295.560026 129.6 
L 1180.439974 129.6 
" style="fill: none; stroke: #000000; stroke-width: 0.8; stroke-linejoin: miter; stroke-linecap: square"/>
   </g>
  </g>
 </g>
 <defs>
  <clipPath id="peb4f14d193">
   <rect x="295.560026" y="129.6" width="884.879949" height="831.6"/>
  </clipPath>
 </defs>
</svg>
