<?xml version="1.0" encoding="utf-8" standalone="no"?>
<!DOCTYPE svg PUBLIC "-//W3C//DTD SVG 1.1//EN"
  "http://www.w3.org/Graphics/SVG/1.1/DTD/svg11.dtd">
<svg xmlns:xlink="http://www.w3.org/1999/xlink" width="1440pt" height="1080pt" viewBox="0 0 1440 1080" xmlns="http://www.w3.org/2000/svg" version="1.1">
 <metadata>
  <rdf:RDF xmlns:dc="http://purl.org/dc/elements/1.1/" xmlns:cc="http://creativecommons.org/ns#" xmlns:rdf="http://www.w3.org/1999/02/22-rdf-syntax-ns#">
   <cc:Work>
    <dc:type rdf:resource="http://purl.org/dc/dcmitype/StillImage"/>
    <dc:date>2023-12-11T12:06:36.540953</dc:date>
    <dc:format>image/svg+xml</dc:format>
    <dc:creator>
     <cc:Agent>
      <dc:title>Matplotlib v3.7.1, https://matplotlib.org/</dc:title>
     </cc:Agent>
    </dc:creator>
   </cc:Work>
  </rdf:RDF>
 </metadata>
 <defs>
  <style type="text/css">*{stroke-linejoin: round; stroke-linecap: butt}</style>
 </defs>
 <g id="figure_1">
  <g id="patch_1">
   <path d="M 0 1080 
L 1440 1080 
L 1440 0 
L 0 0 
z
" style="fill: #ffffff"/>
  </g>
  <g id="axes_1">
   <g id="patch_2">
    <path d="M 347.169284 961.2 
L 1128.830716 961.2 
L 1128.830716 129.6 
L 347.169284 129.6 
z
" style="fill: #ffffff"/>
   </g>
   <g id="matplotlib.axis_1">
    <g id="xtick_1">
     <g id="line2d_1">
      <defs>
       <path id="mc717976e2e" d="M 0 0 
L 0 3.5 
" style="stroke: #000000; stroke-width: 0.8"/>
      </defs>
      <g>
       <use xlink:href="#mc717976e2e" x="425.494228" y="961.2" style="stroke: #000000; stroke-width: 0.8"/>
      </g>
     </g>
     <g id="text_1">
      <!-- 900 -->
      <g transform="translate(415.950478 975.798437) scale(0.1 -0.1)">
       <defs>
        <path id="DejaVuSans-39" d="M 703 97 
L 703 672 
Q 941 559 1184 500 
Q 1428 441 1663 441 
Q 2288 441 2617 861 
Q 2947 1281 2994 2138 
Q 2813 1869 2534 1725 
Q 2256 1581 1919 1581 
Q 1219 1581 811 2004 
Q 403 2428 403 3163 
Q 403 3881 828 4315 
Q 1253 4750 1959 4750 
Q 2769 4750 3195 4129 
Q 3622 3509 3622 2328 
Q 3622 1225 3098 567 
Q 2575 -91 1691 -91 
Q 1453 -91 1209 -44 
Q 966 3 703 97 
z
M 1959 2075 
Q 2384 2075 2632 2365 
Q 2881 2656 2881 3163 
Q 2881 3666 2632 3958 
Q 2384 4250 1959 4250 
Q 1534 4250 1286 3958 
Q 1038 3666 1038 3163 
Q 1038 2656 1286 2365 
Q 1534 2075 1959 2075 
z
" transform="scale(0.015625)"/>
        <path id="DejaVuSans-30" d="M 2034 4250 
Q 1547 4250 1301 3770 
Q 1056 3291 1056 2328 
Q 1056 1369 1301 889 
Q 1547 409 2034 409 
Q 2525 409 2770 889 
Q 3016 1369 3016 2328 
Q 3016 3291 2770 3770 
Q 2525 4250 2034 4250 
z
M 2034 4750 
Q 2819 4750 3233 4129 
Q 3647 3509 3647 2328 
Q 3647 1150 3233 529 
Q 2819 -91 2034 -91 
Q 1250 -91 836 529 
Q 422 1150 422 2328 
Q 422 3509 836 4129 
Q 1250 4750 2034 4750 
z
" transform="scale(0.015625)"/>
       </defs>
       <use xlink:href="#DejaVuSans-39"/>
       <use xlink:href="#DejaVuSans-30" x="63.623047"/>
       <use xlink:href="#DejaVuSans-30" x="127.246094"/>
      </g>
     </g>
    </g>
    <g id="xtick_2">
     <g id="line2d_2">
      <g>
       <use xlink:href="#mc717976e2e" x="540.56914" y="961.2" style="stroke: #000000; stroke-width: 0.8"/>
      </g>
     </g>
     <g id="text_2">
      <!-- 1000 -->
      <g transform="translate(527.84414 975.798437) scale(0.1 -0.1)">
       <defs>
        <path id="DejaVuSans-31" d="M 794 531 
L 1825 531 
L 1825 4091 
L 703 3866 
L 703 4441 
L 1819 4666 
L 2450 4666 
L 2450 531 
L 3481 531 
L 3481 0 
L 794 0 
L 794 531 
z
" transform="scale(0.015625)"/>
       </defs>
       <use xlink:href="#DejaVuSans-31"/>
       <use xlink:href="#DejaVuSans-30" x="63.623047"/>
       <use xlink:href="#DejaVuSans-30" x="127.246094"/>
       <use xlink:href="#DejaVuSans-30" x="190.869141"/>
      </g>
     </g>
    </g>
    <g id="xtick_3">
     <g id="line2d_3">
      <g>
       <use xlink:href="#mc717976e2e" x="655.644051" y="961.2" style="stroke: #000000; stroke-width: 0.8"/>
      </g>
     </g>
     <g id="text_3">
      <!-- 1100 -->
      <g transform="translate(642.919051 975.798437) scale(0.1 -0.1)">
       <use xlink:href="#DejaVuSans-31"/>
       <use xlink:href="#DejaVuSans-31" x="63.623047"/>
       <use xlink:href="#DejaVuSans-30" x="127.246094"/>
       <use xlink:href="#DejaVuSans-30" x="190.869141"/>
      </g>
     </g>
    </g>
    <g id="xtick_4">
     <g id="line2d_4">
      <g>
       <use xlink:href="#mc717976e2e" x="770.718962" y="961.2" style="stroke: #000000; stroke-width: 0.8"/>
      </g>
     </g>
     <g id="text_4">
      <!-- 1200 -->
      <g transform="translate(757.993962 975.798437) scale(0.1 -0.1)">
       <defs>
        <path id="DejaVuSans-32" d="M 1228 531 
L 3431 531 
L 3431 0 
L 469 0 
L 469 531 
Q 828 903 1448 1529 
Q 2069 2156 2228 2338 
Q 2531 2678 2651 2914 
Q 2772 3150 2772 3378 
Q 2772 3750 2511 3984 
Q 2250 4219 1831 4219 
Q 1534 4219 1204 4116 
Q 875 4013 500 3803 
L 500 4441 
Q 881 4594 1212 4672 
Q 1544 4750 1819 4750 
Q 2544 4750 2975 4387 
Q 3406 4025 3406 3419 
Q 3406 3131 3298 2873 
Q 3191 2616 2906 2266 
Q 2828 2175 2409 1742 
Q 1991 1309 1228 531 
z
" transform="scale(0.015625)"/>
       </defs>
       <use xlink:href="#DejaVuSans-31"/>
       <use xlink:href="#DejaVuSans-32" x="63.623047"/>
       <use xlink:href="#DejaVuSans-30" x="127.246094"/>
       <use xlink:href="#DejaVuSans-30" x="190.869141"/>
      </g>
     </g>
    </g>
    <g id="xtick_5">
     <g id="line2d_5">
      <g>
       <use xlink:href="#mc717976e2e" x="885.793874" y="961.2" style="stroke: #000000; stroke-width: 0.8"/>
      </g>
     </g>
     <g id="text_5">
      <!-- 1300 -->
      <g transform="translate(873.068874 975.798437) scale(0.1 -0.1)">
       <defs>
        <path id="DejaVuSans-33" d="M 2597 2516 
Q 3050 2419 3304 2112 
Q 3559 1806 3559 1356 
Q 3559 666 3084 287 
Q 2609 -91 1734 -91 
Q 1441 -91 1130 -33 
Q 819 25 488 141 
L 488 750 
Q 750 597 1062 519 
Q 1375 441 1716 441 
Q 2309 441 2620 675 
Q 2931 909 2931 1356 
Q 2931 1769 2642 2001 
Q 2353 2234 1838 2234 
L 1294 2234 
L 1294 2753 
L 1863 2753 
Q 2328 2753 2575 2939 
Q 2822 3125 2822 3475 
Q 2822 3834 2567 4026 
Q 2313 4219 1838 4219 
Q 1578 4219 1281 4162 
Q 984 4106 628 3988 
L 628 4550 
Q 988 4650 1302 4700 
Q 1616 4750 1894 4750 
Q 2613 4750 3031 4423 
Q 3450 4097 3450 3541 
Q 3450 3153 3228 2886 
Q 3006 2619 2597 2516 
z
" transform="scale(0.015625)"/>
       </defs>
       <use xlink:href="#DejaVuSans-31"/>
       <use xlink:href="#DejaVuSans-33" x="63.623047"/>
       <use xlink:href="#DejaVuSans-30" x="127.246094"/>
       <use xlink:href="#DejaVuSans-30" x="190.869141"/>
      </g>
     </g>
    </g>
    <g id="xtick_6">
     <g id="line2d_6">
      <g>
       <use xlink:href="#mc717976e2e" x="1000.868785" y="961.2" style="stroke: #000000; stroke-width: 0.8"/>
      </g>
     </g>
     <g id="text_6">
      <!-- 1400 -->
      <g transform="translate(988.143785 975.798437) scale(0.1 -0.1)">
       <defs>
        <path id="DejaVuSans-34" d="M 2419 4116 
L 825 1625 
L 2419 1625 
L 2419 4116 
z
M 2253 4666 
L 3047 4666 
L 3047 1625 
L 3713 1625 
L 3713 1100 
L 3047 1100 
L 3047 0 
L 2419 0 
L 2419 1100 
L 313 1100 
L 313 1709 
L 2253 4666 
z
" transform="scale(0.015625)"/>
       </defs>
       <use xlink:href="#DejaVuSans-31"/>
       <use xlink:href="#DejaVuSans-34" x="63.623047"/>
       <use xlink:href="#DejaVuSans-30" x="127.246094"/>
       <use xlink:href="#DejaVuSans-30" x="190.869141"/>
      </g>
     </g>
    </g>
    <g id="xtick_7">
     <g id="line2d_7">
      <g>
       <use xlink:href="#mc717976e2e" x="1115.943696" y="961.2" style="stroke: #000000; stroke-width: 0.8"/>
      </g>
     </g>
     <g id="text_7">
      <!-- 1500 -->
      <g transform="translate(1103.218696 975.798437) scale(0.1 -0.1)">
       <defs>
        <path id="DejaVuSans-35" d="M 691 4666 
L 3169 4666 
L 3169 4134 
L 1269 4134 
L 1269 2991 
Q 1406 3038 1543 3061 
Q 1681 3084 1819 3084 
Q 2600 3084 3056 2656 
Q 3513 2228 3513 1497 
Q 3513 744 3044 326 
Q 2575 -91 1722 -91 
Q 1428 -91 1123 -41 
Q 819 9 494 109 
L 494 744 
Q 775 591 1075 516 
Q 1375 441 1709 441 
Q 2250 441 2565 725 
Q 2881 1009 2881 1497 
Q 2881 1984 2565 2268 
Q 2250 2553 1709 2553 
Q 1456 2553 1204 2497 
Q 953 2441 691 2322 
L 691 4666 
z
" transform="scale(0.015625)"/>
       </defs>
       <use xlink:href="#DejaVuSans-31"/>
       <use xlink:href="#DejaVuSans-35" x="63.623047"/>
       <use xlink:href="#DejaVuSans-30" x="127.246094"/>
       <use xlink:href="#DejaVuSans-30" x="190.869141"/>
      </g>
     </g>
    </g>
   </g>
   <g id="matplotlib.axis_2">
    <g id="ytick_1">
     <g id="line2d_8">
      <defs>
       <path id="mbdc48fd37a" d="M 0 0 
L -3.5 0 
" style="stroke: #000000; stroke-width: 0.8"/>
      </defs>
      <g>
       <use xlink:href="#mbdc48fd37a" x="347.169284" y="921.937247" style="stroke: #000000; stroke-width: 0.8"/>
      </g>
     </g>
     <g id="text_8">
      <!-- 100 -->
      <g transform="translate(321.081784 925.736465) scale(0.1 -0.1)">
       <use xlink:href="#DejaVuSans-31"/>
       <use xlink:href="#DejaVuSans-30" x="63.623047"/>
       <use xlink:href="#DejaVuSans-30" x="127.246094"/>
      </g>
     </g>
    </g>
    <g id="ytick_2">
     <g id="line2d_9">
      <g>
       <use xlink:href="#mbdc48fd37a" x="347.169284" y="806.862335" style="stroke: #000000; stroke-width: 0.8"/>
      </g>
     </g>
     <g id="text_9">
      <!-- 200 -->
      <g transform="translate(321.081784 810.661554) scale(0.1 -0.1)">
       <use xlink:href="#DejaVuSans-32"/>
       <use xlink:href="#DejaVuSans-30" x="63.623047"/>
       <use xlink:href="#DejaVuSans-30" x="127.246094"/>
      </g>
     </g>
    </g>
    <g id="ytick_3">
     <g id="line2d_10">
      <g>
       <use xlink:href="#mbdc48fd37a" x="347.169284" y="691.787424" style="stroke: #000000; stroke-width: 0.8"/>
      </g>
     </g>
     <g id="text_10">
      <!-- 300 -->
      <g transform="translate(321.081784 695.586643) scale(0.1 -0.1)">
       <use xlink:href="#DejaVuSans-33"/>
       <use xlink:href="#DejaVuSans-30" x="63.623047"/>
       <use xlink:href="#DejaVuSans-30" x="127.246094"/>
      </g>
     </g>
    </g>
    <g id="ytick_4">
     <g id="line2d_11">
      <g>
       <use xlink:href="#mbdc48fd37a" x="347.169284" y="576.712512" style="stroke: #000000; stroke-width: 0.8"/>
      </g>
     </g>
     <g id="text_11">
      <!-- 400 -->
      <g transform="translate(321.081784 580.511731) scale(0.1 -0.1)">
       <use xlink:href="#DejaVuSans-34"/>
       <use xlink:href="#DejaVuSans-30" x="63.623047"/>
       <use xlink:href="#DejaVuSans-30" x="127.246094"/>
      </g>
     </g>
    </g>
    <g id="ytick_5">
     <g id="line2d_12">
      <g>
       <use xlink:href="#mbdc48fd37a" x="347.169284" y="461.637601" style="stroke: #000000; stroke-width: 0.8"/>
      </g>
     </g>
     <g id="text_12">
      <!-- 500 -->
      <g transform="translate(321.081784 465.43682) scale(0.1 -0.1)">
       <use xlink:href="#DejaVuSans-35"/>
       <use xlink:href="#DejaVuSans-30" x="63.623047"/>
       <use xlink:href="#DejaVuSans-30" x="127.246094"/>
      </g>
     </g>
    </g>
    <g id="ytick_6">
     <g id="line2d_13">
      <g>
       <use xlink:href="#mbdc48fd37a" x="347.169284" y="346.56269" style="stroke: #000000; stroke-width: 0.8"/>
      </g>
     </g>
     <g id="text_13">
      <!-- 600 -->
      <g transform="translate(321.081784 350.361909) scale(0.1 -0.1)">
       <defs>
        <path id="DejaVuSans-36" d="M 2113 2584 
Q 1688 2584 1439 2293 
Q 1191 2003 1191 1497 
Q 1191 994 1439 701 
Q 1688 409 2113 409 
Q 2538 409 2786 701 
Q 3034 994 3034 1497 
Q 3034 2003 2786 2293 
Q 2538 2584 2113 2584 
z
M 3366 4563 
L 3366 3988 
Q 3128 4100 2886 4159 
Q 2644 4219 2406 4219 
Q 1781 4219 1451 3797 
Q 1122 3375 1075 2522 
Q 1259 2794 1537 2939 
Q 1816 3084 2150 3084 
Q 2853 3084 3261 2657 
Q 3669 2231 3669 1497 
Q 3669 778 3244 343 
Q 2819 -91 2113 -91 
Q 1303 -91 875 529 
Q 447 1150 447 2328 
Q 447 3434 972 4092 
Q 1497 4750 2381 4750 
Q 2619 4750 2861 4703 
Q 3103 4656 3366 4563 
z
" transform="scale(0.015625)"/>
       </defs>
       <use xlink:href="#DejaVuSans-36"/>
       <use xlink:href="#DejaVuSans-30" x="63.623047"/>
       <use xlink:href="#DejaVuSans-30" x="127.246094"/>
      </g>
     </g>
    </g>
    <g id="ytick_7">
     <g id="line2d_14">
      <g>
       <use xlink:href="#mbdc48fd37a" x="347.169284" y="231.487778" style="stroke: #000000; stroke-width: 0.8"/>
      </g>
     </g>
     <g id="text_14">
      <!-- 700 -->
      <g transform="translate(321.081784 235.286997) scale(0.1 -0.1)">
       <defs>
        <path id="DejaVuSans-37" d="M 525 4666 
L 3525 4666 
L 3525 4397 
L 1831 0 
L 1172 0 
L 2766 4134 
L 525 4134 
L 525 4666 
z
" transform="scale(0.015625)"/>
       </defs>
       <use xlink:href="#DejaVuSans-37"/>
       <use xlink:href="#DejaVuSans-30" x="63.623047"/>
       <use xlink:href="#DejaVuSans-30" x="127.246094"/>
      </g>
     </g>
    </g>
   </g>
   <g id="LineCollection_1">
    <path d="M 431.465136 923.4 
L 438.96457 909.089581 
L 445.078457 894.640763 
L 450.145527 880.222054 
L 454.443537 865.969398 
L 458.199861 852.003074 
L 467.98348 812.685136 
L 471.176876 800.768288 
L 474.481001 789.616801 
L 477.953577 779.29217 
L 481.631718 769.83903 
L 485.535131 761.28034 
L 489.671653 753.612414 
L 494.045768 746.801517 
L 498.669416 740.784621 
L 503.572311 735.476665 
L 508.807318 730.784318 
L 514.44717 726.622491 
L 520.572654 722.927348 
L 527.257023 719.660942 
L 534.552946 716.807136 
L 542.486016 714.36245 
L 551.05491 712.326425 
L 560.235828 710.694443 
L 569.988427 709.453781 
L 580.261425 708.58233 
L 590.997049 708.048976 
L 602.134229 707.814797 
L 613.61077 707.834525 
L 625.364792 708.057954 
L 649.464863 708.897621 
L 674.072917 709.87796 
L 686.421014 710.268459 
L 698.726585 710.508752 
L 710.94963 710.534895 
L 723.054645 710.281184 
L 735.010523 709.679294 
L 746.789887 708.657085 
L 758.367448 707.137204 
L 769.716864 705.035849 
L 780.805566 702.262508 
L 791.587415 698.722124 
L 799.719013 695.379937 
L 801.994147 694.321586 
L 809.539679 690.385139 
L 811.928666 688.982085 
L 818.865653 684.425196 
L 821.265356 682.656327 
L 827.575287 677.456943 
L 829.862381 675.345042 
L 835.530854 669.48537 
L 837.585789 667.103436 
L 842.602638 660.570065 
L 844.336726 658.030719 
L 848.696132 650.814708 
L 850.068858 648.245368 
L 853.769436 640.342334 
L 854.788597 637.857943 
L 858.541492 626.953209 
L 861.394173 615.585511 
L 863.419615 603.783861 
L 864.688539 591.560951 
L 865.266103 578.921834 
L 865.21184 565.870483 
L 864.581087 552.414017 
L 863.426804 538.565089 
L 861.801248 524.343041 
L 859.757323 509.774311 
L 857.349577 494.892421 
L 854.634884 479.737782 
L 851.672881 464.35741 
L 845.260593 433.138962 
L 835.429227 386.033033 
L 832.393492 370.57167 
L 829.60881 355.377338 
L 827.154431 340.544553 
L 825.109197 326.175333 
L 823.549644 312.380221 
L 822.547059 299.27945 
L 822.162905 287.003841 
L 822.441872 275.694361 
L 823.401934 265.49788 
L 825.022249 256.554279 
L 827.234382 248.967579 
L 829.93234 242.756147 
L 833.026785 237.796042 
L 836.552257 233.810967 
L 840.76612 230.472876 
L 846.12361 227.580378 
L 853.112958 225.163558 
L 862.093205 223.432245 
L 873.249685 222.652511 
L 886.640416 223.058898 
L 902.258839 224.825509 
L 920.075974 228.070291 
L 940.060345 232.868427 
L 962.184351 239.264291 
L 986.42434 247.279573 
L 1012.75835 256.918114 
L 1041.163316 268.168477 
L 1071.843293 281.102443 
L 1071.843293 281.102443 
" clip-path="url(#p250c97179c)" style="fill: none; stroke: #1f77b4; stroke-width: 1.5"/>
    <path d="M 407.082242 910.429755 
L 413.568903 898.235416 
L 419.040209 885.434113 
L 423.710668 872.225121 
L 427.775408 858.788613 
L 431.411045 845.28652 
L 434.776523 831.863386 
L 438.013958 818.647197 
L 441.249449 805.750203 
L 444.593885 793.269719 
L 448.143731 781.288917 
L 451.981804 769.877594 
L 456.178027 759.092938 
L 460.790176 748.980261 
L 465.8646 739.573733 
L 471.43694 730.897091 
L 477.532819 722.964335 
L 484.168525 715.780408 
L 491.351676 709.341862 
L 499.081868 703.637506 
L 507.351309 698.649041 
L 516.145436 694.351674 
L 525.443519 690.714721 
L 535.219245 687.702195 
L 545.441289 685.273371 
L 556.073871 683.383343 
L 567.077289 681.98356 
L 578.408447 681.022347 
L 590.021358 680.445408 
L 601.867637 680.196319 
L 613.896973 680.216997 
L 626.057589 680.448155 
L 638.296682 680.829745 
L 650.560851 681.301376 
L 662.796507 681.802724 
L 674.95026 682.27392 
L 686.969305 682.655923 
L 698.801775 682.890875 
L 710.397088 682.922444 
L 721.706274 682.69614 
L 732.682286 682.159627 
L 743.280292 681.263007 
L 753.457956 679.959095 
L 763.175698 678.203669 
L 772.396934 675.95571 
L 781.08831 673.177622 
L 789.219908 669.835435 
L 796.76544 665.898988 
L 803.702428 661.342099 
L 810.012359 656.142715 
L 815.680832 650.283044 
L 820.697681 643.749672 
L 825.057087 636.533661 
L 828.757665 628.630627 
L 831.802543 620.040805 
L 834.199415 610.76909 
L 835.960585 600.82507 
L 837.102987 590.223027 
L 837.648189 578.981936 
L 837.622388 567.12543 
L 837.056369 554.681761 
L 835.98547 541.683735 
L 834.449508 528.168628 
L 832.492704 514.178089 
L 830.163576 499.758023 
L 827.514829 484.95845 
L 824.603216 469.833355 
L 821.489385 454.440511 
L 818.23771 438.841291 
L 814.916102 423.100454 
L 811.595801 407.285918 
L 808.351156 391.468511 
L 805.259377 375.721708 
L 802.40028 360.121338 
L 799.856007 344.74529 
L 797.710727 329.673181 
L 796.050328 314.986018 
L 794.962075 300.765837 
L 794.534269 287.095322 
L 794.855871 274.057406 
L 796.016116 261.73485 
L 798.104111 250.20981 
L 801.208403 239.563373 
L 805.416546 229.875088 
L 810.814631 221.222463 
L 817.486811 213.680454 
L 825.514803 207.320928 
L 834.977369 202.212109 
L 845.94978 198.418001 
L 858.503265 195.997799 
L 872.704436 195.005269 
L 888.614693 195.48812 
L 906.289619 197.487344 
L 925.778347 201.036549 
L 947.122913 206.16126 
L 970.357585 212.878208 
L 995.508183 221.194596 
L 1022.591365 231.107342 
L 1051.613911 242.60231 
L 1082.571972 255.65351 
" clip-path="url(#p250c97179c)" style="fill: none; stroke: #8c564b; stroke-width: 1.5"/>
    <path d="M 382.699349 897.459511 
L 388.634646 886.301685 
L 393.296866 875.393414 
L 397.460169 863.618759 
L 401.217642 851.197962 
L 404.680557 838.337328 
L 414.572691 798.601546 
L 418.113806 785.423817 
L 421.966715 772.484565 
L 426.243485 759.86302 
L 431.050053 747.632674 
L 436.483459 735.867814 
L 442.626251 724.649529 
L 449.537944 714.068939 
L 455.633823 706.136182 
L 457.245212 704.224918 
L 463.880918 697.040991 
L 465.734695 695.214741 
L 472.917846 688.776195 
L 474.953026 687.119418 
L 482.683217 681.415063 
L 484.81622 679.989165 
L 495.22573 673.835273 
L 506.084887 668.631291 
L 517.310091 664.321538 
L 528.834783 660.832297 
L 540.60774 658.081653 
L 552.58858 655.986163 
L 564.742861 654.464418 
L 577.038054 653.438388 
L 589.44077 652.833532 
L 601.915111 652.578381 
L 614.421862 652.604007 
L 626.918242 652.84359 
L 651.691532 653.706552 
L 675.92391 654.672941 
L 687.682147 655.046655 
L 699.113538 655.273643 
L 710.158381 655.303713 
L 720.75562 655.091656 
L 730.8434 654.59856 
L 740.360025 653.793428 
L 749.245643 652.655046 
L 757.445143 651.173877 
L 764.912803 649.353406 
L 771.619075 647.209832 
L 777.559172 644.768379 
L 782.761476 642.054376 
L 787.291547 639.078585 
L 791.246277 635.819886 
L 794.735402 632.213072 
L 797.854888 628.15061 
L 800.663833 623.501036 
L 803.175853 618.136313 
L 805.366827 611.955415 
L 807.191835 604.89582 
L 808.602122 596.932972 
L 809.556831 588.072807 
L 810.028754 578.342615 
L 810.005775 567.783261 
L 809.489979 556.443701 
L 808.495858 544.377575 
L 807.048411 531.641322 
L 805.181464 518.293233 
L 802.936307 504.393047 
L 800.36064 490.001801 
L 797.507755 475.18178 
L 791.207816 444.510392 
L 781.25061 396.789521 
L 778.093852 380.700363 
L 775.152804 364.629976 
L 772.513605 348.637054 
L 770.267561 332.77566 
L 768.51287 317.093425 
L 767.35761 301.629693 
L 766.924689 286.414286 
L 767.359506 271.468452 
L 768.840524 256.811442 
L 770.928519 245.286401 
L 771.590237 242.478883 
L 774.694529 231.832446 
L 775.876811 228.560502 
L 780.967861 217.029289 
L 781.98462 215.256689 
L 788.6794 204.70628 
L 790.129408 202.922891 
L 798.495616 193.628341 
L 800.337567 192.031986 
L 810.321762 184.257445 
L 812.394071 183.018683 
L 823.867735 176.927157 
L 825.951808 176.110538 
L 836.924219 172.31643 
L 840.721551 171.299403 
L 853.275037 168.8792 
L 856.577723 168.447027 
L 870.778893 167.454497 
L 873.542211 167.4 
L 891.71879 168.045136 
L 911.2379 170.31627 
L 932.226034 174.181753 
L 954.79296 179.629711 
L 979.028128 186.656568 
L 1005.000812 195.259239 
L 1032.761379 205.430045 
L 1062.34259 217.153377 
L 1093.300651 230.204577 
L 1093.300651 230.204577 
" clip-path="url(#p250c97179c)" style="fill: none; stroke: #17becf; stroke-width: 1.5"/>
   </g>
   <g id="patch_3">
    <path d="M 347.169284 961.2 
L 347.169284 129.6 
" style="fill: none; stroke: #000000; stroke-width: 0.8; stroke-linejoin: miter; stroke-linecap: square"/>
   </g>
   <g id="patch_4">
    <path d="M 1128.830716 961.2 
L 1128.830716 129.6 
" style="fill: none; stroke: #000000; stroke-width: 0.8; stroke-linejoin: miter; stroke-linecap: square"/>
   </g>
   <g id="patch_5">
    <path d="M 347.169284 961.2 
L 1128.830716 961.2 
" style="fill: none; stroke: #000000; stroke-width: 0.8; stroke-linejoin: miter; stroke-linecap: square"/>
   </g>
   <g id="patch_6">
    <path d="M 347.169284 129.6 
L 1128.830716 129.6 
" style="fill: none; stroke: #000000; stroke-width: 0.8; stroke-linejoin: miter; stroke-linecap: square"/>
   </g>
  </g>
 </g>
 <defs>
  <clipPath id="p250c97179c">
   <rect x="347.169284" y="129.6" width="781.661433" height="831.6"/>
  </clipPath>
 </defs>
</svg>
