<?xml version="1.0" encoding="utf-8" standalone="no"?>
<!DOCTYPE svg PUBLIC "-//W3C//DTD SVG 1.1//EN"
  "http://www.w3.org/Graphics/SVG/1.1/DTD/svg11.dtd">
<svg xmlns:xlink="http://www.w3.org/1999/xlink" width="1440pt" height="1080pt" viewBox="0 0 1440 1080" xmlns="http://www.w3.org/2000/svg" version="1.1">
 <metadata>
  <rdf:RDF xmlns:dc="http://purl.org/dc/elements/1.1/" xmlns:cc="http://creativecommons.org/ns#" xmlns:rdf="http://www.w3.org/1999/02/22-rdf-syntax-ns#">
   <cc:Work>
    <dc:type rdf:resource="http://purl.org/dc/dcmitype/StillImage"/>
    <dc:date>2023-12-11T12:06:47.488594</dc:date>
    <dc:format>image/svg+xml</dc:format>
    <dc:creator>
     <cc:Agent>
      <dc:title>Matplotlib v3.7.1, https://matplotlib.org/</dc:title>
     </cc:Agent>
    </dc:creator>
   </cc:Work>
  </rdf:RDF>
 </metadata>
 <defs>
  <style type="text/css">*{stroke-linejoin: round; stroke-linecap: butt}</style>
 </defs>
 <g id="figure_1">
  <g id="patch_1">
   <path d="M 0 1080 
L 1440 1080 
L 1440 0 
L 0 0 
z
" style="fill: #ffffff"/>
  </g>
  <g id="axes_1">
   <g id="patch_2">
    <path d="M 426.105196 961.2 
L 1049.894804 961.2 
L 1049.894804 129.6 
L 426.105196 129.6 
z
" style="fill: #ffffff"/>
   </g>
   <g id="matplotlib.axis_1">
    <g id="xtick_1">
     <g id="line2d_1">
      <defs>
       <path id="m6a092912d1" d="M 0 0 
L 0 3.5 
" style="stroke: #000000; stroke-width: 0.8"/>
      </defs>
      <g>
       <use xlink:href="#m6a092912d1" x="451.897513" y="961.2" style="stroke: #000000; stroke-width: 0.8"/>
      </g>
     </g>
     <g id="text_1">
      <!-- 0 -->
      <g transform="translate(448.716263 975.798437) scale(0.1 -0.1)">
       <defs>
        <path id="DejaVuSans-30" d="M 2034 4250 
Q 1547 4250 1301 3770 
Q 1056 3291 1056 2328 
Q 1056 1369 1301 889 
Q 1547 409 2034 409 
Q 2525 409 2770 889 
Q 3016 1369 3016 2328 
Q 3016 3291 2770 3770 
Q 2525 4250 2034 4250 
z
M 2034 4750 
Q 2819 4750 3233 4129 
Q 3647 3509 3647 2328 
Q 3647 1150 3233 529 
Q 2819 -91 2034 -91 
Q 1250 -91 836 529 
Q 422 1150 422 2328 
Q 422 3509 836 4129 
Q 1250 4750 2034 4750 
z
" transform="scale(0.015625)"/>
       </defs>
       <use xlink:href="#DejaVuSans-30"/>
      </g>
     </g>
    </g>
    <g id="xtick_2">
     <g id="line2d_2">
      <g>
       <use xlink:href="#m6a092912d1" x="526.930347" y="961.2" style="stroke: #000000; stroke-width: 0.8"/>
      </g>
     </g>
     <g id="text_2">
      <!-- 100 -->
      <g transform="translate(517.386597 975.798437) scale(0.1 -0.1)">
       <defs>
        <path id="DejaVuSans-31" d="M 794 531 
L 1825 531 
L 1825 4091 
L 703 3866 
L 703 4441 
L 1819 4666 
L 2450 4666 
L 2450 531 
L 3481 531 
L 3481 0 
L 794 0 
L 794 531 
z
" transform="scale(0.015625)"/>
       </defs>
       <use xlink:href="#DejaVuSans-31"/>
       <use xlink:href="#DejaVuSans-30" x="63.623047"/>
       <use xlink:href="#DejaVuSans-30" x="127.246094"/>
      </g>
     </g>
    </g>
    <g id="xtick_3">
     <g id="line2d_3">
      <g>
       <use xlink:href="#m6a092912d1" x="601.963182" y="961.2" style="stroke: #000000; stroke-width: 0.8"/>
      </g>
     </g>
     <g id="text_3">
      <!-- 200 -->
      <g transform="translate(592.419432 975.798437) scale(0.1 -0.1)">
       <defs>
        <path id="DejaVuSans-32" d="M 1228 531 
L 3431 531 
L 3431 0 
L 469 0 
L 469 531 
Q 828 903 1448 1529 
Q 2069 2156 2228 2338 
Q 2531 2678 2651 2914 
Q 2772 3150 2772 3378 
Q 2772 3750 2511 3984 
Q 2250 4219 1831 4219 
Q 1534 4219 1204 4116 
Q 875 4013 500 3803 
L 500 4441 
Q 881 4594 1212 4672 
Q 1544 4750 1819 4750 
Q 2544 4750 2975 4387 
Q 3406 4025 3406 3419 
Q 3406 3131 3298 2873 
Q 3191 2616 2906 2266 
Q 2828 2175 2409 1742 
Q 1991 1309 1228 531 
z
" transform="scale(0.015625)"/>
       </defs>
       <use xlink:href="#DejaVuSans-32"/>
       <use xlink:href="#DejaVuSans-30" x="63.623047"/>
       <use xlink:href="#DejaVuSans-30" x="127.246094"/>
      </g>
     </g>
    </g>
    <g id="xtick_4">
     <g id="line2d_4">
      <g>
       <use xlink:href="#m6a092912d1" x="676.996017" y="961.2" style="stroke: #000000; stroke-width: 0.8"/>
      </g>
     </g>
     <g id="text_4">
      <!-- 300 -->
      <g transform="translate(667.452267 975.798437) scale(0.1 -0.1)">
       <defs>
        <path id="DejaVuSans-33" d="M 2597 2516 
Q 3050 2419 3304 2112 
Q 3559 1806 3559 1356 
Q 3559 666 3084 287 
Q 2609 -91 1734 -91 
Q 1441 -91 1130 -33 
Q 819 25 488 141 
L 488 750 
Q 750 597 1062 519 
Q 1375 441 1716 441 
Q 2309 441 2620 675 
Q 2931 909 2931 1356 
Q 2931 1769 2642 2001 
Q 2353 2234 1838 2234 
L 1294 2234 
L 1294 2753 
L 1863 2753 
Q 2328 2753 2575 2939 
Q 2822 3125 2822 3475 
Q 2822 3834 2567 4026 
Q 2313 4219 1838 4219 
Q 1578 4219 1281 4162 
Q 984 4106 628 3988 
L 628 4550 
Q 988 4650 1302 4700 
Q 1616 4750 1894 4750 
Q 2613 4750 3031 4423 
Q 3450 4097 3450 3541 
Q 3450 3153 3228 2886 
Q 3006 2619 2597 2516 
z
" transform="scale(0.015625)"/>
       </defs>
       <use xlink:href="#DejaVuSans-33"/>
       <use xlink:href="#DejaVuSans-30" x="63.623047"/>
       <use xlink:href="#DejaVuSans-30" x="127.246094"/>
      </g>
     </g>
    </g>
    <g id="xtick_5">
     <g id="line2d_5">
      <g>
       <use xlink:href="#m6a092912d1" x="752.028852" y="961.2" style="stroke: #000000; stroke-width: 0.8"/>
      </g>
     </g>
     <g id="text_5">
      <!-- 400 -->
      <g transform="translate(742.485102 975.798437) scale(0.1 -0.1)">
       <defs>
        <path id="DejaVuSans-34" d="M 2419 4116 
L 825 1625 
L 2419 1625 
L 2419 4116 
z
M 2253 4666 
L 3047 4666 
L 3047 1625 
L 3713 1625 
L 3713 1100 
L 3047 1100 
L 3047 0 
L 2419 0 
L 2419 1100 
L 313 1100 
L 313 1709 
L 2253 4666 
z
" transform="scale(0.015625)"/>
       </defs>
       <use xlink:href="#DejaVuSans-34"/>
       <use xlink:href="#DejaVuSans-30" x="63.623047"/>
       <use xlink:href="#DejaVuSans-30" x="127.246094"/>
      </g>
     </g>
    </g>
    <g id="xtick_6">
     <g id="line2d_6">
      <g>
       <use xlink:href="#m6a092912d1" x="827.061687" y="961.2" style="stroke: #000000; stroke-width: 0.8"/>
      </g>
     </g>
     <g id="text_6">
      <!-- 500 -->
      <g transform="translate(817.517937 975.798437) scale(0.1 -0.1)">
       <defs>
        <path id="DejaVuSans-35" d="M 691 4666 
L 3169 4666 
L 3169 4134 
L 1269 4134 
L 1269 2991 
Q 1406 3038 1543 3061 
Q 1681 3084 1819 3084 
Q 2600 3084 3056 2656 
Q 3513 2228 3513 1497 
Q 3513 744 3044 326 
Q 2575 -91 1722 -91 
Q 1428 -91 1123 -41 
Q 819 9 494 109 
L 494 744 
Q 775 591 1075 516 
Q 1375 441 1709 441 
Q 2250 441 2565 725 
Q 2881 1009 2881 1497 
Q 2881 1984 2565 2268 
Q 2250 2553 1709 2553 
Q 1456 2553 1204 2497 
Q 953 2441 691 2322 
L 691 4666 
z
" transform="scale(0.015625)"/>
       </defs>
       <use xlink:href="#DejaVuSans-35"/>
       <use xlink:href="#DejaVuSans-30" x="63.623047"/>
       <use xlink:href="#DejaVuSans-30" x="127.246094"/>
      </g>
     </g>
    </g>
    <g id="xtick_7">
     <g id="line2d_7">
      <g>
       <use xlink:href="#m6a092912d1" x="902.094522" y="961.2" style="stroke: #000000; stroke-width: 0.8"/>
      </g>
     </g>
     <g id="text_7">
      <!-- 600 -->
      <g transform="translate(892.550772 975.798437) scale(0.1 -0.1)">
       <defs>
        <path id="DejaVuSans-36" d="M 2113 2584 
Q 1688 2584 1439 2293 
Q 1191 2003 1191 1497 
Q 1191 994 1439 701 
Q 1688 409 2113 409 
Q 2538 409 2786 701 
Q 3034 994 3034 1497 
Q 3034 2003 2786 2293 
Q 2538 2584 2113 2584 
z
M 3366 4563 
L 3366 3988 
Q 3128 4100 2886 4159 
Q 2644 4219 2406 4219 
Q 1781 4219 1451 3797 
Q 1122 3375 1075 2522 
Q 1259 2794 1537 2939 
Q 1816 3084 2150 3084 
Q 2853 3084 3261 2657 
Q 3669 2231 3669 1497 
Q 3669 778 3244 343 
Q 2819 -91 2113 -91 
Q 1303 -91 875 529 
Q 447 1150 447 2328 
Q 447 3434 972 4092 
Q 1497 4750 2381 4750 
Q 2619 4750 2861 4703 
Q 3103 4656 3366 4563 
z
" transform="scale(0.015625)"/>
       </defs>
       <use xlink:href="#DejaVuSans-36"/>
       <use xlink:href="#DejaVuSans-30" x="63.623047"/>
       <use xlink:href="#DejaVuSans-30" x="127.246094"/>
      </g>
     </g>
    </g>
    <g id="xtick_8">
     <g id="line2d_8">
      <g>
       <use xlink:href="#m6a092912d1" x="977.127357" y="961.2" style="stroke: #000000; stroke-width: 0.8"/>
      </g>
     </g>
     <g id="text_8">
      <!-- 700 -->
      <g transform="translate(967.583607 975.798437) scale(0.1 -0.1)">
       <defs>
        <path id="DejaVuSans-37" d="M 525 4666 
L 3525 4666 
L 3525 4397 
L 1831 0 
L 1172 0 
L 2766 4134 
L 525 4134 
L 525 4666 
z
" transform="scale(0.015625)"/>
       </defs>
       <use xlink:href="#DejaVuSans-37"/>
       <use xlink:href="#DejaVuSans-30" x="63.623047"/>
       <use xlink:href="#DejaVuSans-30" x="127.246094"/>
      </g>
     </g>
    </g>
   </g>
   <g id="matplotlib.axis_2">
    <g id="ytick_1">
     <g id="line2d_9">
      <defs>
       <path id="meac0b42e88" d="M 0 0 
L -3.5 0 
" style="stroke: #000000; stroke-width: 0.8"/>
      </defs>
      <g>
       <use xlink:href="#meac0b42e88" x="426.105196" y="901.221554" style="stroke: #000000; stroke-width: 0.8"/>
      </g>
     </g>
     <g id="text_9">
      <!-- 400 -->
      <g transform="translate(400.017696 905.020772) scale(0.1 -0.1)">
       <use xlink:href="#DejaVuSans-34"/>
       <use xlink:href="#DejaVuSans-30" x="63.623047"/>
       <use xlink:href="#DejaVuSans-30" x="127.246094"/>
      </g>
     </g>
    </g>
    <g id="ytick_2">
     <g id="line2d_10">
      <g>
       <use xlink:href="#meac0b42e88" x="426.105196" y="751.155884" style="stroke: #000000; stroke-width: 0.8"/>
      </g>
     </g>
     <g id="text_10">
      <!-- 600 -->
      <g transform="translate(400.017696 754.955103) scale(0.1 -0.1)">
       <use xlink:href="#DejaVuSans-36"/>
       <use xlink:href="#DejaVuSans-30" x="63.623047"/>
       <use xlink:href="#DejaVuSans-30" x="127.246094"/>
      </g>
     </g>
    </g>
    <g id="ytick_3">
     <g id="line2d_11">
      <g>
       <use xlink:href="#meac0b42e88" x="426.105196" y="601.090214" style="stroke: #000000; stroke-width: 0.8"/>
      </g>
     </g>
     <g id="text_11">
      <!-- 800 -->
      <g transform="translate(400.017696 604.889433) scale(0.1 -0.1)">
       <defs>
        <path id="DejaVuSans-38" d="M 2034 2216 
Q 1584 2216 1326 1975 
Q 1069 1734 1069 1313 
Q 1069 891 1326 650 
Q 1584 409 2034 409 
Q 2484 409 2743 651 
Q 3003 894 3003 1313 
Q 3003 1734 2745 1975 
Q 2488 2216 2034 2216 
z
M 1403 2484 
Q 997 2584 770 2862 
Q 544 3141 544 3541 
Q 544 4100 942 4425 
Q 1341 4750 2034 4750 
Q 2731 4750 3128 4425 
Q 3525 4100 3525 3541 
Q 3525 3141 3298 2862 
Q 3072 2584 2669 2484 
Q 3125 2378 3379 2068 
Q 3634 1759 3634 1313 
Q 3634 634 3220 271 
Q 2806 -91 2034 -91 
Q 1263 -91 848 271 
Q 434 634 434 1313 
Q 434 1759 690 2068 
Q 947 2378 1403 2484 
z
M 1172 3481 
Q 1172 3119 1398 2916 
Q 1625 2713 2034 2713 
Q 2441 2713 2670 2916 
Q 2900 3119 2900 3481 
Q 2900 3844 2670 4047 
Q 2441 4250 2034 4250 
Q 1625 4250 1398 4047 
Q 1172 3844 1172 3481 
z
" transform="scale(0.015625)"/>
       </defs>
       <use xlink:href="#DejaVuSans-38"/>
       <use xlink:href="#DejaVuSans-30" x="63.623047"/>
       <use xlink:href="#DejaVuSans-30" x="127.246094"/>
      </g>
     </g>
    </g>
    <g id="ytick_4">
     <g id="line2d_12">
      <g>
       <use xlink:href="#meac0b42e88" x="426.105196" y="451.024544" style="stroke: #000000; stroke-width: 0.8"/>
      </g>
     </g>
     <g id="text_12">
      <!-- 1000 -->
      <g transform="translate(393.655196 454.823763) scale(0.1 -0.1)">
       <use xlink:href="#DejaVuSans-31"/>
       <use xlink:href="#DejaVuSans-30" x="63.623047"/>
       <use xlink:href="#DejaVuSans-30" x="127.246094"/>
       <use xlink:href="#DejaVuSans-30" x="190.869141"/>
      </g>
     </g>
    </g>
    <g id="ytick_5">
     <g id="line2d_13">
      <g>
       <use xlink:href="#meac0b42e88" x="426.105196" y="300.958874" style="stroke: #000000; stroke-width: 0.8"/>
      </g>
     </g>
     <g id="text_13">
      <!-- 1200 -->
      <g transform="translate(393.655196 304.758093) scale(0.1 -0.1)">
       <use xlink:href="#DejaVuSans-31"/>
       <use xlink:href="#DejaVuSans-32" x="63.623047"/>
       <use xlink:href="#DejaVuSans-30" x="127.246094"/>
       <use xlink:href="#DejaVuSans-30" x="190.869141"/>
      </g>
     </g>
    </g>
    <g id="ytick_6">
     <g id="line2d_14">
      <g>
       <use xlink:href="#meac0b42e88" x="426.105196" y="150.893205" style="stroke: #000000; stroke-width: 0.8"/>
      </g>
     </g>
     <g id="text_14">
      <!-- 1400 -->
      <g transform="translate(393.655196 154.692423) scale(0.1 -0.1)">
       <use xlink:href="#DejaVuSans-31"/>
       <use xlink:href="#DejaVuSans-34" x="63.623047"/>
       <use xlink:href="#DejaVuSans-30" x="127.246094"/>
       <use xlink:href="#DejaVuSans-30" x="190.869141"/>
      </g>
     </g>
    </g>
   </g>
   <g id="LineCollection_1">
    <path d="M 994.485459 170.40217 
L 996.845199 187.937106 
L 998.335574 204.196627 
L 999.029968 219.445914 
L 998.974297 233.735183 
L 998.215553 247.116746 
L 996.80103 259.645102 
L 994.77744 271.376815 
L 992.190007 282.37009 
L 989.081703 292.684024 
L 985.492736 302.377575 
L 981.460439 311.508402 
L 977.019543 320.131766 
L 972.202775 328.299701 
L 967.041609 336.060547 
L 961.566979 343.458888 
L 955.809842 350.535804 
L 949.801488 357.329313 
L 943.57363 363.874889 
L 937.158301 370.205938 
L 930.58763 376.354201 
L 923.893566 382.350045 
L 917.107592 388.22265 
L 903.382008 399.709532 
L 882.804748 416.713523 
L 869.415726 428.164767 
L 862.893979 433.986447 
L 856.515636 439.89732 
L 850.300163 445.914227 
L 844.265649 452.052261 
L 838.428774 458.324667 
L 832.804749 464.742759 
L 827.407228 471.315868 
L 822.248196 478.051322 
L 817.33785 484.95448 
L 812.684468 492.028815 
L 808.294304 499.276041 
L 804.171507 506.696286 
L 800.31808 514.28829 
L 796.733894 522.049605 
L 793.416739 529.976796 
L 790.362428 538.065614 
L 787.564915 546.311133 
L 785.016452 554.707854 
L 782.70773 563.249773 
L 780.628034 571.930411 
L 778.76537 580.742824 
L 777.106593 589.679593 
L 775.6375 598.732802 
L 774.342922 607.89401 
L 773.206785 617.154227 
L 772.21217 626.503885 
L 770.583913 645.324078 
L 769.896443 654.984735 
L 768.715446 674.216047 
L 766.461525 712.82946 
L 765.022275 731.960989 
L 764.139789 741.423352 
L 763.115027 750.792945 
L 761.922181 760.051058 
L 760.535083 769.178371 
L 758.927272 778.155032 
L 757.072049 786.960797 
L 754.94251 795.575231 
L 752.511527 803.978005 
L 749.751643 812.149279 
L 746.634811 820.070183 
L 743.131919 827.723347 
L 739.212043 835.093385 
L 734.841398 842.167211 
L 729.98206 848.933973 
L 724.590618 855.384434 
L 718.61707 861.509716 
L 712.004287 867.299501 
L 704.688295 872.740013 
L 696.599387 877.81224 
L 687.663778 882.490816 
L 677.805368 886.743759 
L 666.947129 890.532985 
L 655.011871 893.8153 
L 641.922323 896.543513 
L 627.600679 898.667411 
L 611.967799 900.134424 
L 594.942284 900.889985 
L 576.439545 900.877603 
L 556.370947 900.038735 
L 534.643061 898.312519 
L 511.157012 895.635445 
L 485.807911 891.940968 
L 458.339697 887.133811 
L 458.339697 887.133811 
" clip-path="url(#p5680012e87)" style="fill: none; stroke: #1f77b4; stroke-width: 1.5"/>
    <path d="M 1005.639834 168.901085 
L 1008.031375 186.672327 
L 1009.567096 203.426564 
L 1010.285891 219.211708 
L 1010.22798 234.075914 
L 1009.434652 248.067416 
L 1007.948029 261.234366 
L 1005.810835 273.624689 
L 1003.066185 285.285937 
L 999.757382 296.265165 
L 995.927725 306.608804 
L 991.620337 316.362552 
L 986.877995 325.571266 
L 981.742977 334.278867 
L 976.25692 342.528251 
L 970.460683 350.361208 
L 964.39423 357.818347 
L 958.096513 364.939034 
L 951.605372 371.761324 
L 944.957443 378.321918 
L 938.188068 384.65611 
L 931.331228 390.797751 
L 924.419468 396.779212 
L 917.483845 402.631358 
L 910.553872 408.383526 
L 903.657476 414.063507 
L 896.820964 419.697533 
L 890.06899 425.310274 
L 883.424534 430.924829 
L 876.908886 436.562736 
L 870.541633 442.243973 
L 864.340656 447.986968 
L 858.322128 453.808619 
L 852.50052 459.724304 
L 846.888612 465.747907 
L 841.497503 471.891841 
L 836.336635 478.167075 
L 831.413807 484.583161 
L 826.735207 491.148269 
L 822.305435 497.86922 
L 818.127536 504.751521 
L 814.203033 511.799405 
L 810.531961 519.015865 
L 807.112906 526.402702 
L 803.943039 533.960558 
L 801.018161 541.688966 
L 798.332741 549.586385 
L 795.879953 557.650249 
L 793.651723 565.877007 
L 791.638768 574.262165 
L 789.830631 582.800333 
L 788.215729 591.48526 
L 786.781385 600.309882 
L 785.513867 609.266356 
L 784.398423 618.346104 
L 783.419317 627.539845 
L 782.559853 636.837635 
L 781.802409 646.228896 
L 781.128461 655.702449 
L 780.518603 665.246547 
L 779.952565 674.848891 
L 779.409229 684.496664 
L 778.866636 694.176543 
L 778.301995 703.87472 
L 777.691678 713.576913 
L 777.01122 723.268374 
L 776.235305 732.933899 
L 775.337752 742.557822 
L 774.291487 752.124017 
L 773.068523 761.615886 
L 771.639914 771.016348 
L 769.975718 780.307818 
L 768.044944 789.472183 
L 765.815494 798.490775 
L 763.254097 807.344332 
L 760.32623 816.012959 
L 756.996041 824.476075 
L 753.226248 832.712366 
L 748.978045 840.699714 
L 744.210983 848.415138 
L 738.88285 855.83471 
L 732.94954 862.933475 
L 726.364911 869.68536 
L 719.080626 876.063075 
L 711.045991 882.038004 
L 702.207777 887.58009 
L 692.510034 892.65771 
L 681.893883 897.237544 
L 670.297309 901.284428 
L 657.654931 904.761208 
L 643.897761 907.628572 
L 628.952955 909.844884 
L 612.743539 911.366 
L 595.188134 912.145077 
L 576.200655 912.132371 
L 555.690004 911.275025 
L 533.55974 909.516842 
L 509.707741 906.798054 
L 484.025847 903.055075 
L 456.399483 898.22024 
" clip-path="url(#p5680012e87)" style="fill: none; stroke: #8c564b; stroke-width: 1.5"/>
    <path d="M 1016.794209 167.4 
L 1019.239315 185.644989 
L 1020.810371 202.914589 
L 1021.540731 219.255557 
L 1021.464857 234.713053 
L 1020.618519 249.330138 
L 1019.039169 263.147466 
L 1016.766399 276.203246 
L 1013.842378 288.533553 
L 1010.312113 300.172977 
L 1006.223393 311.155512 
L 1001.626361 321.515496 
L 996.572718 331.288406 
L 991.11473 340.511329 
L 985.304184 349.223051 
L 979.191473 357.463788 
L 972.824924 365.274669 
L 966.250378 372.697115 
L 959.511012 379.772204 
L 952.647329 386.540128 
L 945.697257 393.039751 
L 938.696281 399.308293 
L 931.677598 405.381124 
L 917.709157 417.071175 
L 897.29858 433.936306 
L 884.338141 445.017726 
L 878.112692 450.572436 
L 872.077904 456.161517 
L 866.246823 461.801852 
L 860.630459 467.508977 
L 855.23782 473.297225 
L 850.07599 479.179864 
L 845.150233 485.16922 
L 840.464134 491.276768 
L 836.019769 497.513193 
L 831.81788 503.888394 
L 827.858058 510.411455 
L 824.138902 517.090563 
L 820.658148 523.932903 
L 817.412757 530.94454 
L 814.398957 538.130289 
L 811.612244 545.493624 
L 809.047348 553.036598 
L 806.698177 560.759809 
L 804.557748 568.662403 
L 802.61812 576.742109 
L 800.870332 584.995303 
L 799.304358 593.417097 
L 797.909069 602.001434 
L 796.672221 610.741193 
L 795.580443 619.628299 
L 794.619252 628.653818 
L 793.025184 647.080651 
L 791.752391 665.93656 
L 788.230055 724.168983 
L 787.4416 733.979029 
L 786.525959 743.781487 
L 785.454141 753.562251 
L 784.195688 763.306906 
L 782.718538 773.000642 
L 780.988875 782.6281 
L 778.970971 792.173162 
L 776.627054 801.618637 
L 773.917229 810.945852 
L 770.799495 820.134131 
L 767.229931 829.160179 
L 763.16311 837.99745 
L 758.552795 846.615583 
L 753.352889 854.980112 
L 747.518541 863.052617 
L 741.007149 870.791482 
L 733.778942 878.15327 
L 725.796801 885.094483 
L 717.025204 891.573325 
L 707.428407 897.550966 
L 696.96827 902.991996 
L 685.602223 907.863999 
L 673.281726 912.13646 
L 659.951409 915.779354 
L 645.548808 918.761739 
L 630.004514 921.050578 
L 613.242521 922.609859 
L 595.180602 923.4 
L 575.730609 923.377477 
L 554.798642 922.494597 
L 532.285093 920.699355 
L 508.084554 917.935316 
L 482.085633 914.141504 
L 454.459269 909.306669 
L 454.459269 909.306669 
" clip-path="url(#p5680012e87)" style="fill: none; stroke: #17becf; stroke-width: 1.5"/>
   </g>
   <g id="patch_3">
    <path d="M 426.105196 961.2 
L 426.105196 129.6 
" style="fill: none; stroke: #000000; stroke-width: 0.8; stroke-linejoin: miter; stroke-linecap: square"/>
   </g>
   <g id="patch_4">
    <path d="M 1049.894804 961.2 
L 1049.894804 129.6 
" style="fill: none; stroke: #000000; stroke-width: 0.8; stroke-linejoin: miter; stroke-linecap: square"/>
   </g>
   <g id="patch_5">
    <path d="M 426.105196 961.2 
L 1049.894804 961.2 
" style="fill: none; stroke: #000000; stroke-width: 0.8; stroke-linejoin: miter; stroke-linecap: square"/>
   </g>
   <g id="patch_6">
    <path d="M 426.105196 129.6 
L 1049.894804 129.6 
" style="fill: none; stroke: #000000; stroke-width: 0.8; stroke-linejoin: miter; stroke-linecap: square"/>
   </g>
  </g>
 </g>
 <defs>
  <clipPath id="p5680012e87">
   <rect x="426.105196" y="129.6" width="623.789609" height="831.6"/>
  </clipPath>
 </defs>
</svg>
