<?xml version="1.0" encoding="utf-8" standalone="no"?>
<!DOCTYPE svg PUBLIC "-//W3C//DTD SVG 1.1//EN"
  "http://www.w3.org/Graphics/SVG/1.1/DTD/svg11.dtd">
<svg xmlns:xlink="http://www.w3.org/1999/xlink" width="1440pt" height="1080pt" viewBox="0 0 1440 1080" xmlns="http://www.w3.org/2000/svg" version="1.1">
 <metadata>
  <rdf:RDF xmlns:dc="http://purl.org/dc/elements/1.1/" xmlns:cc="http://creativecommons.org/ns#" xmlns:rdf="http://www.w3.org/1999/02/22-rdf-syntax-ns#">
   <cc:Work>
    <dc:type rdf:resource="http://purl.org/dc/dcmitype/StillImage"/>
    <dc:date>2023-12-11T12:07:05.623086</dc:date>
    <dc:format>image/svg+xml</dc:format>
    <dc:creator>
     <cc:Agent>
      <dc:title>Matplotlib v3.7.1, https://matplotlib.org/</dc:title>
     </cc:Agent>
    </dc:creator>
   </cc:Work>
  </rdf:RDF>
 </metadata>
 <defs>
  <style type="text/css">*{stroke-linejoin: round; stroke-linecap: butt}</style>
 </defs>
 <g id="figure_1">
  <g id="patch_1">
   <path d="M 0 1080 
L 1440 1080 
L 1440 0 
L 0 0 
z
" style="fill: #ffffff"/>
  </g>
  <g id="axes_1">
   <g id="patch_2">
    <path d="M 249.215861 961.2 
L 1226.784139 961.2 
L 1226.784139 129.6 
L 249.215861 129.6 
z
" style="fill: #ffffff"/>
   </g>
   <g id="matplotlib.axis_1">
    <g id="xtick_1">
     <g id="line2d_1">
      <defs>
       <path id="m68c72022cd" d="M 0 0 
L 0 3.5 
" style="stroke: #000000; stroke-width: 0.8"/>
      </defs>
      <g>
       <use xlink:href="#m68c72022cd" x="424.586464" y="961.2" style="stroke: #000000; stroke-width: 0.8"/>
      </g>
     </g>
     <g id="text_1">
      <!-- 800 -->
      <g transform="translate(415.042714 975.798437) scale(0.1 -0.1)">
       <defs>
        <path id="DejaVuSans-38" d="M 2034 2216 
Q 1584 2216 1326 1975 
Q 1069 1734 1069 1313 
Q 1069 891 1326 650 
Q 1584 409 2034 409 
Q 2484 409 2743 651 
Q 3003 894 3003 1313 
Q 3003 1734 2745 1975 
Q 2488 2216 2034 2216 
z
M 1403 2484 
Q 997 2584 770 2862 
Q 544 3141 544 3541 
Q 544 4100 942 4425 
Q 1341 4750 2034 4750 
Q 2731 4750 3128 4425 
Q 3525 4100 3525 3541 
Q 3525 3141 3298 2862 
Q 3072 2584 2669 2484 
Q 3125 2378 3379 2068 
Q 3634 1759 3634 1313 
Q 3634 634 3220 271 
Q 2806 -91 2034 -91 
Q 1263 -91 848 271 
Q 434 634 434 1313 
Q 434 1759 690 2068 
Q 947 2378 1403 2484 
z
M 1172 3481 
Q 1172 3119 1398 2916 
Q 1625 2713 2034 2713 
Q 2441 2713 2670 2916 
Q 2900 3119 2900 3481 
Q 2900 3844 2670 4047 
Q 2441 4250 2034 4250 
Q 1625 4250 1398 4047 
Q 1172 3844 1172 3481 
z
" transform="scale(0.015625)"/>
        <path id="DejaVuSans-30" d="M 2034 4250 
Q 1547 4250 1301 3770 
Q 1056 3291 1056 2328 
Q 1056 1369 1301 889 
Q 1547 409 2034 409 
Q 2525 409 2770 889 
Q 3016 1369 3016 2328 
Q 3016 3291 2770 3770 
Q 2525 4250 2034 4250 
z
M 2034 4750 
Q 2819 4750 3233 4129 
Q 3647 3509 3647 2328 
Q 3647 1150 3233 529 
Q 2819 -91 2034 -91 
Q 1250 -91 836 529 
Q 422 1150 422 2328 
Q 422 3509 836 4129 
Q 1250 4750 2034 4750 
z
" transform="scale(0.015625)"/>
       </defs>
       <use xlink:href="#DejaVuSans-38"/>
       <use xlink:href="#DejaVuSans-30" x="63.623047"/>
       <use xlink:href="#DejaVuSans-30" x="127.246094"/>
      </g>
     </g>
    </g>
    <g id="xtick_2">
     <g id="line2d_2">
      <g>
       <use xlink:href="#m68c72022cd" x="626.998102" y="961.2" style="stroke: #000000; stroke-width: 0.8"/>
      </g>
     </g>
     <g id="text_2">
      <!-- 1000 -->
      <g transform="translate(614.273102 975.798437) scale(0.1 -0.1)">
       <defs>
        <path id="DejaVuSans-31" d="M 794 531 
L 1825 531 
L 1825 4091 
L 703 3866 
L 703 4441 
L 1819 4666 
L 2450 4666 
L 2450 531 
L 3481 531 
L 3481 0 
L 794 0 
L 794 531 
z
" transform="scale(0.015625)"/>
       </defs>
       <use xlink:href="#DejaVuSans-31"/>
       <use xlink:href="#DejaVuSans-30" x="63.623047"/>
       <use xlink:href="#DejaVuSans-30" x="127.246094"/>
       <use xlink:href="#DejaVuSans-30" x="190.869141"/>
      </g>
     </g>
    </g>
    <g id="xtick_3">
     <g id="line2d_3">
      <g>
       <use xlink:href="#m68c72022cd" x="829.40974" y="961.2" style="stroke: #000000; stroke-width: 0.8"/>
      </g>
     </g>
     <g id="text_3">
      <!-- 1200 -->
      <g transform="translate(816.68474 975.798437) scale(0.1 -0.1)">
       <defs>
        <path id="DejaVuSans-32" d="M 1228 531 
L 3431 531 
L 3431 0 
L 469 0 
L 469 531 
Q 828 903 1448 1529 
Q 2069 2156 2228 2338 
Q 2531 2678 2651 2914 
Q 2772 3150 2772 3378 
Q 2772 3750 2511 3984 
Q 2250 4219 1831 4219 
Q 1534 4219 1204 4116 
Q 875 4013 500 3803 
L 500 4441 
Q 881 4594 1212 4672 
Q 1544 4750 1819 4750 
Q 2544 4750 2975 4387 
Q 3406 4025 3406 3419 
Q 3406 3131 3298 2873 
Q 3191 2616 2906 2266 
Q 2828 2175 2409 1742 
Q 1991 1309 1228 531 
z
" transform="scale(0.015625)"/>
       </defs>
       <use xlink:href="#DejaVuSans-31"/>
       <use xlink:href="#DejaVuSans-32" x="63.623047"/>
       <use xlink:href="#DejaVuSans-30" x="127.246094"/>
       <use xlink:href="#DejaVuSans-30" x="190.869141"/>
      </g>
     </g>
    </g>
    <g id="xtick_4">
     <g id="line2d_4">
      <g>
       <use xlink:href="#m68c72022cd" x="1031.821379" y="961.2" style="stroke: #000000; stroke-width: 0.8"/>
      </g>
     </g>
     <g id="text_4">
      <!-- 1400 -->
      <g transform="translate(1019.096379 975.798437) scale(0.1 -0.1)">
       <defs>
        <path id="DejaVuSans-34" d="M 2419 4116 
L 825 1625 
L 2419 1625 
L 2419 4116 
z
M 2253 4666 
L 3047 4666 
L 3047 1625 
L 3713 1625 
L 3713 1100 
L 3047 1100 
L 3047 0 
L 2419 0 
L 2419 1100 
L 313 1100 
L 313 1709 
L 2253 4666 
z
" transform="scale(0.015625)"/>
       </defs>
       <use xlink:href="#DejaVuSans-31"/>
       <use xlink:href="#DejaVuSans-34" x="63.623047"/>
       <use xlink:href="#DejaVuSans-30" x="127.246094"/>
       <use xlink:href="#DejaVuSans-30" x="190.869141"/>
      </g>
     </g>
    </g>
   </g>
   <g id="matplotlib.axis_2">
    <g id="ytick_1">
     <g id="line2d_5">
      <defs>
       <path id="m4198861776" d="M 0 0 
L -3.5 0 
" style="stroke: #000000; stroke-width: 0.8"/>
      </defs>
      <g>
       <use xlink:href="#m4198861776" x="249.215861" y="902.8676" style="stroke: #000000; stroke-width: 0.8"/>
      </g>
     </g>
     <g id="text_5">
      <!-- 600 -->
      <g transform="translate(223.128361 906.666818) scale(0.1 -0.1)">
       <defs>
        <path id="DejaVuSans-36" d="M 2113 2584 
Q 1688 2584 1439 2293 
Q 1191 2003 1191 1497 
Q 1191 994 1439 701 
Q 1688 409 2113 409 
Q 2538 409 2786 701 
Q 3034 994 3034 1497 
Q 3034 2003 2786 2293 
Q 2538 2584 2113 2584 
z
M 3366 4563 
L 3366 3988 
Q 3128 4100 2886 4159 
Q 2644 4219 2406 4219 
Q 1781 4219 1451 3797 
Q 1122 3375 1075 2522 
Q 1259 2794 1537 2939 
Q 1816 3084 2150 3084 
Q 2853 3084 3261 2657 
Q 3669 2231 3669 1497 
Q 3669 778 3244 343 
Q 2819 -91 2113 -91 
Q 1303 -91 875 529 
Q 447 1150 447 2328 
Q 447 3434 972 4092 
Q 1497 4750 2381 4750 
Q 2619 4750 2861 4703 
Q 3103 4656 3366 4563 
z
" transform="scale(0.015625)"/>
       </defs>
       <use xlink:href="#DejaVuSans-36"/>
       <use xlink:href="#DejaVuSans-30" x="63.623047"/>
       <use xlink:href="#DejaVuSans-30" x="127.246094"/>
      </g>
     </g>
    </g>
    <g id="ytick_2">
     <g id="line2d_6">
      <g>
       <use xlink:href="#m4198861776" x="249.215861" y="801.66178" style="stroke: #000000; stroke-width: 0.8"/>
      </g>
     </g>
     <g id="text_6">
      <!-- 700 -->
      <g transform="translate(223.128361 805.460999) scale(0.1 -0.1)">
       <defs>
        <path id="DejaVuSans-37" d="M 525 4666 
L 3525 4666 
L 3525 4397 
L 1831 0 
L 1172 0 
L 2766 4134 
L 525 4134 
L 525 4666 
z
" transform="scale(0.015625)"/>
       </defs>
       <use xlink:href="#DejaVuSans-37"/>
       <use xlink:href="#DejaVuSans-30" x="63.623047"/>
       <use xlink:href="#DejaVuSans-30" x="127.246094"/>
      </g>
     </g>
    </g>
    <g id="ytick_3">
     <g id="line2d_7">
      <g>
       <use xlink:href="#m4198861776" x="249.215861" y="700.455961" style="stroke: #000000; stroke-width: 0.8"/>
      </g>
     </g>
     <g id="text_7">
      <!-- 800 -->
      <g transform="translate(223.128361 704.25518) scale(0.1 -0.1)">
       <use xlink:href="#DejaVuSans-38"/>
       <use xlink:href="#DejaVuSans-30" x="63.623047"/>
       <use xlink:href="#DejaVuSans-30" x="127.246094"/>
      </g>
     </g>
    </g>
    <g id="ytick_4">
     <g id="line2d_8">
      <g>
       <use xlink:href="#m4198861776" x="249.215861" y="599.250142" style="stroke: #000000; stroke-width: 0.8"/>
      </g>
     </g>
     <g id="text_8">
      <!-- 900 -->
      <g transform="translate(223.128361 603.049361) scale(0.1 -0.1)">
       <defs>
        <path id="DejaVuSans-39" d="M 703 97 
L 703 672 
Q 941 559 1184 500 
Q 1428 441 1663 441 
Q 2288 441 2617 861 
Q 2947 1281 2994 2138 
Q 2813 1869 2534 1725 
Q 2256 1581 1919 1581 
Q 1219 1581 811 2004 
Q 403 2428 403 3163 
Q 403 3881 828 4315 
Q 1253 4750 1959 4750 
Q 2769 4750 3195 4129 
Q 3622 3509 3622 2328 
Q 3622 1225 3098 567 
Q 2575 -91 1691 -91 
Q 1453 -91 1209 -44 
Q 966 3 703 97 
z
M 1959 2075 
Q 2384 2075 2632 2365 
Q 2881 2656 2881 3163 
Q 2881 3666 2632 3958 
Q 2384 4250 1959 4250 
Q 1534 4250 1286 3958 
Q 1038 3666 1038 3163 
Q 1038 2656 1286 2365 
Q 1534 2075 1959 2075 
z
" transform="scale(0.015625)"/>
       </defs>
       <use xlink:href="#DejaVuSans-39"/>
       <use xlink:href="#DejaVuSans-30" x="63.623047"/>
       <use xlink:href="#DejaVuSans-30" x="127.246094"/>
      </g>
     </g>
    </g>
    <g id="ytick_5">
     <g id="line2d_9">
      <g>
       <use xlink:href="#m4198861776" x="249.215861" y="498.044323" style="stroke: #000000; stroke-width: 0.8"/>
      </g>
     </g>
     <g id="text_9">
      <!-- 1000 -->
      <g transform="translate(216.765861 501.843542) scale(0.1 -0.1)">
       <use xlink:href="#DejaVuSans-31"/>
       <use xlink:href="#DejaVuSans-30" x="63.623047"/>
       <use xlink:href="#DejaVuSans-30" x="127.246094"/>
       <use xlink:href="#DejaVuSans-30" x="190.869141"/>
      </g>
     </g>
    </g>
    <g id="ytick_6">
     <g id="line2d_10">
      <g>
       <use xlink:href="#m4198861776" x="249.215861" y="396.838504" style="stroke: #000000; stroke-width: 0.8"/>
      </g>
     </g>
     <g id="text_10">
      <!-- 1100 -->
      <g transform="translate(216.765861 400.637723) scale(0.1 -0.1)">
       <use xlink:href="#DejaVuSans-31"/>
       <use xlink:href="#DejaVuSans-31" x="63.623047"/>
       <use xlink:href="#DejaVuSans-30" x="127.246094"/>
       <use xlink:href="#DejaVuSans-30" x="190.869141"/>
      </g>
     </g>
    </g>
    <g id="ytick_7">
     <g id="line2d_11">
      <g>
       <use xlink:href="#m4198861776" x="249.215861" y="295.632685" style="stroke: #000000; stroke-width: 0.8"/>
      </g>
     </g>
     <g id="text_11">
      <!-- 1200 -->
      <g transform="translate(216.765861 299.431904) scale(0.1 -0.1)">
       <use xlink:href="#DejaVuSans-31"/>
       <use xlink:href="#DejaVuSans-32" x="63.623047"/>
       <use xlink:href="#DejaVuSans-30" x="127.246094"/>
       <use xlink:href="#DejaVuSans-30" x="190.869141"/>
      </g>
     </g>
    </g>
    <g id="ytick_8">
     <g id="line2d_12">
      <g>
       <use xlink:href="#m4198861776" x="249.215861" y="194.426866" style="stroke: #000000; stroke-width: 0.8"/>
      </g>
     </g>
     <g id="text_12">
      <!-- 1300 -->
      <g transform="translate(216.765861 198.226084) scale(0.1 -0.1)">
       <defs>
        <path id="DejaVuSans-33" d="M 2597 2516 
Q 3050 2419 3304 2112 
Q 3559 1806 3559 1356 
Q 3559 666 3084 287 
Q 2609 -91 1734 -91 
Q 1441 -91 1130 -33 
Q 819 25 488 141 
L 488 750 
Q 750 597 1062 519 
Q 1375 441 1716 441 
Q 2309 441 2620 675 
Q 2931 909 2931 1356 
Q 2931 1769 2642 2001 
Q 2353 2234 1838 2234 
L 1294 2234 
L 1294 2753 
L 1863 2753 
Q 2328 2753 2575 2939 
Q 2822 3125 2822 3475 
Q 2822 3834 2567 4026 
Q 2313 4219 1838 4219 
Q 1578 4219 1281 4162 
Q 984 4106 628 3988 
L 628 4550 
Q 988 4650 1302 4700 
Q 1616 4750 1894 4750 
Q 2613 4750 3031 4423 
Q 3450 4097 3450 3541 
Q 3450 3153 3228 2886 
Q 3006 2619 2597 2516 
z
" transform="scale(0.015625)"/>
       </defs>
       <use xlink:href="#DejaVuSans-31"/>
       <use xlink:href="#DejaVuSans-33" x="63.623047"/>
       <use xlink:href="#DejaVuSans-30" x="127.246094"/>
       <use xlink:href="#DejaVuSans-30" x="190.869141"/>
      </g>
     </g>
    </g>
   </g>
   <g id="LineCollection_1">
    <path d="M 1134.389574 174.899054 
L 1139.495706 201.98655 
L 1141.835001 224.609464 
L 1141.864986 243.665649 
L 1139.951406 259.40593 
L 1136.476766 272.165724 
L 1131.772134 282.405809 
L 1126.017473 290.679219 
L 1119.19943 297.50135 
L 1111.195519 303.21958 
L 1101.913614 307.997099 
L 1091.366343 311.892256 
L 1079.660467 314.940441 
L 1066.95375 317.19395 
L 1053.418878 318.729005 
L 1039.223348 319.639466 
L 1024.520956 320.02844 
L 1009.449385 320.00158 
L 994.130432 319.662576 
L 978.671149 319.110363 
L 917.015567 316.507258 
L 901.991749 316.129819 
L 887.229505 315.983961 
L 872.764236 316.117742 
L 858.624937 316.572239 
L 844.835016 317.381737 
L 831.413118 318.57384 
L 818.37389 320.169481 
L 805.728653 322.182818 
L 793.485877 324.62105 
L 781.651431 327.48421 
L 770.228524 330.765026 
L 759.217394 334.448968 
L 748.614786 338.514573 
L 738.413366 342.934104 
L 728.601234 347.674532 
L 719.161665 352.698744 
L 710.073162 357.966864 
L 701.309831 363.437528 
L 692.842023 369.069028 
L 684.637132 374.820243 
L 676.660459 380.651362 
L 661.247339 392.403751 
L 638.86532 409.813977 
L 631.466618 415.440077 
L 624.050509 420.933113 
L 616.58545 426.27496 
L 609.041211 431.450935 
L 601.388952 436.449711 
L 593.601364 441.263165 
L 585.652913 445.886184 
L 577.520189 450.316476 
L 569.182348 454.55442 
L 560.621626 458.603004 
L 551.823861 462.467873 
L 542.778976 466.157497 
L 533.481373 469.683439 
L 523.930199 473.060703 
L 514.129476 476.308124 
L 504.088095 479.448753 
L 483.342384 485.525196 
L 450.80947 494.724268 
L 439.702142 498.007605 
L 428.529725 501.497043 
L 417.331856 505.263245 
L 406.152222 509.384484 
L 395.039772 513.946812 
L 384.050667 519.043685 
L 373.251017 524.774545 
L 362.72003 531.24167 
L 352.552597 538.544751 
L 342.859584 546.773324 
L 333.763855 555.998618 
L 325.39116 566.26796 
L 317.857655 577.605138 
L 311.258435 590.017881 
L 305.661641 603.509746 
L 301.109719 618.091321 
L 297.62571 633.786577 
L 295.220758 650.633396 
L 293.899926 668.679897 
L 293.665247 687.978971 
L 294.51634 708.582826 
L 296.449415 730.538405 
L 299.455449 753.883848 
L 303.518047 778.645804 
L 308.611274 804.837343 
L 314.697561 832.456223 
L 321.725715 861.483319 
L 329.629021 891.881114 
L 338.269715 923.4 
L 338.269715 923.4 
" clip-path="url(#p4307805ea1)" style="fill: none; stroke: #1f77b4; stroke-width: 1.5"/>
    <path d="M 1154.28042 171.149527 
L 1159.542775 199.065768 
L 1162.074523 223.549859 
L 1162.108079 244.87565 
L 1159.867354 263.306877 
L 1155.567535 279.096948 
L 1149.414889 292.488775 
L 1141.606614 303.714643 
L 1132.330712 312.996105 
L 1121.765902 320.543917 
L 1110.081557 326.558004 
L 1097.437672 331.227451 
L 1083.984864 334.730533 
L 1069.864398 337.234767 
L 1055.208234 338.896993 
L 1040.139108 339.863485 
L 1024.770631 340.270081 
L 1009.207413 340.242345 
L 993.545212 339.895744 
L 977.871102 339.335858 
L 962.263656 338.658597 
L 946.793161 337.950452 
L 931.521839 337.288753 
L 916.504089 336.741959 
L 901.786749 336.369945 
L 887.409367 336.224325 
L 873.40449 336.348777 
L 859.797964 336.779385 
L 846.609248 337.544991 
L 833.851735 338.667567 
L 821.533089 340.162584 
L 809.655585 342.039402 
L 798.216458 344.301658 
L 787.208263 346.947671 
L 776.619234 349.970846 
L 766.433657 353.360083 
L 756.632232 357.100193 
L 747.192455 361.172314 
L 738.08899 365.554331 
L 729.294042 370.221291 
L 720.777738 375.145826 
L 712.508496 380.298567 
L 704.453398 385.648554 
L 696.578557 391.163654 
L 688.849482 396.810956 
L 681.231432 402.557176 
L 673.68977 408.369046 
L 666.190305 414.213697 
L 658.699625 420.059031 
L 651.185422 425.874088 
L 643.616808 431.629392 
L 635.964613 437.297294 
L 628.201677 442.852296 
L 620.303123 448.271361 
L 612.24662 453.534206 
L 604.012622 458.623582 
L 595.584601 463.525531 
L 586.949252 468.229628 
L 578.096683 472.729197 
L 569.020589 477.021514 
L 559.718395 481.107979 
L 550.191387 484.994272 
L 540.444811 488.690479 
L 530.487956 492.21119 
L 520.334208 495.575584 
L 510.001072 498.807465 
L 499.510177 501.935289 
L 488.887247 504.992148 
L 478.162041 508.015727 
L 467.368269 511.048231 
L 456.543465 514.136275 
L 445.728843 517.330741 
L 434.969105 520.6866 
L 424.312225 524.262696 
L 413.809188 528.121496 
L 403.513702 532.328793 
L 393.481867 536.953381 
L 383.771801 542.066677 
L 374.443237 547.74231 
L 365.55707 554.055663 
L 357.174867 561.083369 
L 349.35833 568.902766 
L 342.168723 577.591303 
L 335.666241 587.225896 
L 329.909347 597.882243 
L 324.954054 609.634083 
L 320.85316 622.552403 
L 317.655435 636.7046 
L 315.404755 652.153583 
L 314.139195 668.956826 
L 313.890052 687.165363 
L 314.680833 706.822728 
L 316.526176 727.963837 
L 319.430723 750.613813 
L 323.387933 774.786747 
L 328.37884 800.484407 
L 334.370748 827.694878 
L 341.315876 856.39114 
L 349.14993 886.529586 
L 357.790623 918.048472 
" clip-path="url(#p4307805ea1)" style="fill: none; stroke: #8c564b; stroke-width: 1.5"/>
    <path d="M 1174.171266 167.4 
L 1179.676587 196.983856 
L 1182.315662 223.51801 
L 1182.349217 244.843801 
L 1182.2013 247.318427 
L 1179.960576 265.749654 
L 1179.397356 268.625123 
L 1174.593526 286.004653 
L 1173.960397 287.547234 
L 1166.988544 302.532249 
L 1166.031676 304.046763 
L 1157.134499 316.698845 
L 1155.923566 318.023018 
L 1145.417141 328.437934 
L 1144.097218 329.465897 
L 1133.532409 337.013709 
L 1131.029242 338.541008 
L 1119.344896 344.555094 
L 1117.093808 345.545712 
L 1102.538333 350.815406 
L 1087.519436 354.660699 
L 1072.145423 357.346993 
L 1056.503784 359.096653 
L 1040.674431 360.097569 
L 1024.734557 360.511213 
L 1008.759591 360.478554 
L 992.82265 360.124007 
L 976.993593 359.557992 
L 915.880086 356.973815 
L 901.42849 356.608518 
L 887.396798 356.4664 
L 873.814602 356.587096 
L 860.704762 357.001985 
L 848.083204 357.734668 
L 835.958734 358.80154 
L 824.332902 360.212476 
L 813.199966 361.97164 
L 802.547003 364.078421 
L 792.35426 366.528426 
L 782.595783 369.314478 
L 773.240334 372.427491 
L 764.252563 375.85712 
L 755.594316 379.592106 
L 747.225928 383.620288 
L 739.107361 387.928333 
L 731.199048 392.501299 
L 723.462424 397.322153 
L 715.860155 402.371383 
L 708.356141 407.626776 
L 700.915405 413.063401 
L 686.088775 424.368184 
L 663.437271 441.986099 
L 655.66437 447.894721 
L 647.743654 453.758123 
L 639.652817 459.542895 
L 631.372913 465.217289 
L 622.888765 470.751914 
L 614.189251 476.120466 
L 605.267457 481.30043 
L 596.120679 486.273731 
L 586.750309 491.02727 
L 577.161638 495.553325 
L 567.363623 499.849783 
L 557.368692 503.920207 
L 547.192602 507.77377 
L 536.85438 511.425075 
L 526.376369 514.893891 
L 515.784335 518.204851 
L 494.379428 524.473951 
L 462.186969 533.575012 
L 451.609527 536.699419 
L 441.202861 539.945158 
L 431.023446 543.361032 
L 421.130208 546.995793 
L 411.583057 550.897279 
L 402.440661 555.111843 
L 393.75735 559.684453 
L 385.579313 564.660089 
L 377.940716 570.087081 
L 370.861137 576.022657 
L 364.346251 582.539927 
L 358.393339 589.733935 
L 353.001222 597.723323 
L 348.181402 606.645092 
L 343.965614 616.643142 
L 340.406522 627.854721 
L 337.57195 640.399705 
L 335.535911 654.375369 
L 334.369947 669.856234 
L 334.136785 686.896829 
L 334.886572 705.535169 
L 336.655045 725.795617 
L 339.462778 747.69063 
L 343.314867 771.221421 
L 348.200643 796.377773 
L 354.09324 823.137249 
L 360.948944 851.464028 
L 368.706324 881.307503 
L 377.311532 912.696945 
L 377.311532 912.696945 
" clip-path="url(#p4307805ea1)" style="fill: none; stroke: #17becf; stroke-width: 1.5"/>
   </g>
   <g id="patch_3">
    <path d="M 249.215861 961.2 
L 249.215861 129.6 
" style="fill: none; stroke: #000000; stroke-width: 0.8; stroke-linejoin: miter; stroke-linecap: square"/>
   </g>
   <g id="patch_4">
    <path d="M 1226.784139 961.2 
L 1226.784139 129.6 
" style="fill: none; stroke: #000000; stroke-width: 0.8; stroke-linejoin: miter; stroke-linecap: square"/>
   </g>
   <g id="patch_5">
    <path d="M 249.215861 961.2 
L 1226.784139 961.2 
" style="fill: none; stroke: #000000; stroke-width: 0.8; stroke-linejoin: miter; stroke-linecap: square"/>
   </g>
   <g id="patch_6">
    <path d="M 249.215861 129.6 
L 1226.784139 129.6 
" style="fill: none; stroke: #000000; stroke-width: 0.8; stroke-linejoin: miter; stroke-linecap: square"/>
   </g>
  </g>
 </g>
 <defs>
  <clipPath id="p4307805ea1">
   <rect x="249.215861" y="129.6" width="977.568278" height="831.6"/>
  </clipPath>
 </defs>
</svg>
