<?xml version="1.0" encoding="utf-8" standalone="no"?>
<!DOCTYPE svg PUBLIC "-//W3C//DTD SVG 1.1//EN"
  "http://www.w3.org/Graphics/SVG/1.1/DTD/svg11.dtd">
<svg xmlns:xlink="http://www.w3.org/1999/xlink" width="1440pt" height="1080pt" viewBox="0 0 1440 1080" xmlns="http://www.w3.org/2000/svg" version="1.1">
 <metadata>
  <rdf:RDF xmlns:dc="http://purl.org/dc/elements/1.1/" xmlns:cc="http://creativecommons.org/ns#" xmlns:rdf="http://www.w3.org/1999/02/22-rdf-syntax-ns#">
   <cc:Work>
    <dc:type rdf:resource="http://purl.org/dc/dcmitype/StillImage"/>
    <dc:date>2023-12-11T12:06:51.769405</dc:date>
    <dc:format>image/svg+xml</dc:format>
    <dc:creator>
     <cc:Agent>
      <dc:title>Matplotlib v3.7.1, https://matplotlib.org/</dc:title>
     </cc:Agent>
    </dc:creator>
   </cc:Work>
  </rdf:RDF>
 </metadata>
 <defs>
  <style type="text/css">*{stroke-linejoin: round; stroke-linecap: butt}</style>
 </defs>
 <g id="figure_1">
  <g id="patch_1">
   <path d="M 0 1080 
L 1440 1080 
L 1440 0 
L 0 0 
z
" style="fill: #ffffff"/>
  </g>
  <g id="axes_1">
   <g id="patch_2">
    <path d="M 180 711.78293 
L 1296 711.78293 
L 1296 379.01707 
L 180 379.01707 
z
" style="fill: #ffffff"/>
   </g>
   <g id="matplotlib.axis_1">
    <g id="xtick_1">
     <g id="line2d_1">
      <defs>
       <path id="m74f19e79a0" d="M 0 0 
L 0 3.5 
" style="stroke: #000000; stroke-width: 0.8"/>
      </defs>
      <g>
       <use xlink:href="#m74f19e79a0" x="235.19794" y="711.78293" style="stroke: #000000; stroke-width: 0.8"/>
      </g>
     </g>
     <g id="text_1">
      <!-- 400 -->
      <g transform="translate(225.65419 726.381368) scale(0.1 -0.1)">
       <defs>
        <path id="DejaVuSans-34" d="M 2419 4116 
L 825 1625 
L 2419 1625 
L 2419 4116 
z
M 2253 4666 
L 3047 4666 
L 3047 1625 
L 3713 1625 
L 3713 1100 
L 3047 1100 
L 3047 0 
L 2419 0 
L 2419 1100 
L 313 1100 
L 313 1709 
L 2253 4666 
z
" transform="scale(0.015625)"/>
        <path id="DejaVuSans-30" d="M 2034 4250 
Q 1547 4250 1301 3770 
Q 1056 3291 1056 2328 
Q 1056 1369 1301 889 
Q 1547 409 2034 409 
Q 2525 409 2770 889 
Q 3016 1369 3016 2328 
Q 3016 3291 2770 3770 
Q 2525 4250 2034 4250 
z
M 2034 4750 
Q 2819 4750 3233 4129 
Q 3647 3509 3647 2328 
Q 3647 1150 3233 529 
Q 2819 -91 2034 -91 
Q 1250 -91 836 529 
Q 422 1150 422 2328 
Q 422 3509 836 4129 
Q 1250 4750 2034 4750 
z
" transform="scale(0.015625)"/>
       </defs>
       <use xlink:href="#DejaVuSans-34"/>
       <use xlink:href="#DejaVuSans-30" x="63.623047"/>
       <use xlink:href="#DejaVuSans-30" x="127.246094"/>
      </g>
     </g>
    </g>
    <g id="xtick_2">
     <g id="line2d_2">
      <g>
       <use xlink:href="#m74f19e79a0" x="416.839524" y="711.78293" style="stroke: #000000; stroke-width: 0.8"/>
      </g>
     </g>
     <g id="text_2">
      <!-- 600 -->
      <g transform="translate(407.295774 726.381368) scale(0.1 -0.1)">
       <defs>
        <path id="DejaVuSans-36" d="M 2113 2584 
Q 1688 2584 1439 2293 
Q 1191 2003 1191 1497 
Q 1191 994 1439 701 
Q 1688 409 2113 409 
Q 2538 409 2786 701 
Q 3034 994 3034 1497 
Q 3034 2003 2786 2293 
Q 2538 2584 2113 2584 
z
M 3366 4563 
L 3366 3988 
Q 3128 4100 2886 4159 
Q 2644 4219 2406 4219 
Q 1781 4219 1451 3797 
Q 1122 3375 1075 2522 
Q 1259 2794 1537 2939 
Q 1816 3084 2150 3084 
Q 2853 3084 3261 2657 
Q 3669 2231 3669 1497 
Q 3669 778 3244 343 
Q 2819 -91 2113 -91 
Q 1303 -91 875 529 
Q 447 1150 447 2328 
Q 447 3434 972 4092 
Q 1497 4750 2381 4750 
Q 2619 4750 2861 4703 
Q 3103 4656 3366 4563 
z
" transform="scale(0.015625)"/>
       </defs>
       <use xlink:href="#DejaVuSans-36"/>
       <use xlink:href="#DejaVuSans-30" x="63.623047"/>
       <use xlink:href="#DejaVuSans-30" x="127.246094"/>
      </g>
     </g>
    </g>
    <g id="xtick_3">
     <g id="line2d_3">
      <g>
       <use xlink:href="#m74f19e79a0" x="598.481109" y="711.78293" style="stroke: #000000; stroke-width: 0.8"/>
      </g>
     </g>
     <g id="text_3">
      <!-- 800 -->
      <g transform="translate(588.937359 726.381368) scale(0.1 -0.1)">
       <defs>
        <path id="DejaVuSans-38" d="M 2034 2216 
Q 1584 2216 1326 1975 
Q 1069 1734 1069 1313 
Q 1069 891 1326 650 
Q 1584 409 2034 409 
Q 2484 409 2743 651 
Q 3003 894 3003 1313 
Q 3003 1734 2745 1975 
Q 2488 2216 2034 2216 
z
M 1403 2484 
Q 997 2584 770 2862 
Q 544 3141 544 3541 
Q 544 4100 942 4425 
Q 1341 4750 2034 4750 
Q 2731 4750 3128 4425 
Q 3525 4100 3525 3541 
Q 3525 3141 3298 2862 
Q 3072 2584 2669 2484 
Q 3125 2378 3379 2068 
Q 3634 1759 3634 1313 
Q 3634 634 3220 271 
Q 2806 -91 2034 -91 
Q 1263 -91 848 271 
Q 434 634 434 1313 
Q 434 1759 690 2068 
Q 947 2378 1403 2484 
z
M 1172 3481 
Q 1172 3119 1398 2916 
Q 1625 2713 2034 2713 
Q 2441 2713 2670 2916 
Q 2900 3119 2900 3481 
Q 2900 3844 2670 4047 
Q 2441 4250 2034 4250 
Q 1625 4250 1398 4047 
Q 1172 3844 1172 3481 
z
" transform="scale(0.015625)"/>
       </defs>
       <use xlink:href="#DejaVuSans-38"/>
       <use xlink:href="#DejaVuSans-30" x="63.623047"/>
       <use xlink:href="#DejaVuSans-30" x="127.246094"/>
      </g>
     </g>
    </g>
    <g id="xtick_4">
     <g id="line2d_4">
      <g>
       <use xlink:href="#m74f19e79a0" x="780.122694" y="711.78293" style="stroke: #000000; stroke-width: 0.8"/>
      </g>
     </g>
     <g id="text_4">
      <!-- 1000 -->
      <g transform="translate(767.397694 726.381368) scale(0.1 -0.1)">
       <defs>
        <path id="DejaVuSans-31" d="M 794 531 
L 1825 531 
L 1825 4091 
L 703 3866 
L 703 4441 
L 1819 4666 
L 2450 4666 
L 2450 531 
L 3481 531 
L 3481 0 
L 794 0 
L 794 531 
z
" transform="scale(0.015625)"/>
       </defs>
       <use xlink:href="#DejaVuSans-31"/>
       <use xlink:href="#DejaVuSans-30" x="63.623047"/>
       <use xlink:href="#DejaVuSans-30" x="127.246094"/>
       <use xlink:href="#DejaVuSans-30" x="190.869141"/>
      </g>
     </g>
    </g>
    <g id="xtick_5">
     <g id="line2d_5">
      <g>
       <use xlink:href="#m74f19e79a0" x="961.764279" y="711.78293" style="stroke: #000000; stroke-width: 0.8"/>
      </g>
     </g>
     <g id="text_5">
      <!-- 1200 -->
      <g transform="translate(949.039279 726.381368) scale(0.1 -0.1)">
       <defs>
        <path id="DejaVuSans-32" d="M 1228 531 
L 3431 531 
L 3431 0 
L 469 0 
L 469 531 
Q 828 903 1448 1529 
Q 2069 2156 2228 2338 
Q 2531 2678 2651 2914 
Q 2772 3150 2772 3378 
Q 2772 3750 2511 3984 
Q 2250 4219 1831 4219 
Q 1534 4219 1204 4116 
Q 875 4013 500 3803 
L 500 4441 
Q 881 4594 1212 4672 
Q 1544 4750 1819 4750 
Q 2544 4750 2975 4387 
Q 3406 4025 3406 3419 
Q 3406 3131 3298 2873 
Q 3191 2616 2906 2266 
Q 2828 2175 2409 1742 
Q 1991 1309 1228 531 
z
" transform="scale(0.015625)"/>
       </defs>
       <use xlink:href="#DejaVuSans-31"/>
       <use xlink:href="#DejaVuSans-32" x="63.623047"/>
       <use xlink:href="#DejaVuSans-30" x="127.246094"/>
       <use xlink:href="#DejaVuSans-30" x="190.869141"/>
      </g>
     </g>
    </g>
    <g id="xtick_6">
     <g id="line2d_6">
      <g>
       <use xlink:href="#m74f19e79a0" x="1143.405864" y="711.78293" style="stroke: #000000; stroke-width: 0.8"/>
      </g>
     </g>
     <g id="text_6">
      <!-- 1400 -->
      <g transform="translate(1130.680864 726.381368) scale(0.1 -0.1)">
       <use xlink:href="#DejaVuSans-31"/>
       <use xlink:href="#DejaVuSans-34" x="63.623047"/>
       <use xlink:href="#DejaVuSans-30" x="127.246094"/>
       <use xlink:href="#DejaVuSans-30" x="190.869141"/>
      </g>
     </g>
    </g>
   </g>
   <g id="matplotlib.axis_2">
    <g id="ytick_1">
     <g id="line2d_7">
      <defs>
       <path id="m3018bf8fcb" d="M 0 0 
L -3.5 0 
" style="stroke: #000000; stroke-width: 0.8"/>
      </defs>
      <g>
       <use xlink:href="#m3018bf8fcb" x="180" y="707.803613" style="stroke: #000000; stroke-width: 0.8"/>
      </g>
     </g>
     <g id="text_7">
      <!-- 1150 -->
      <g transform="translate(147.55 711.602832) scale(0.1 -0.1)">
       <defs>
        <path id="DejaVuSans-35" d="M 691 4666 
L 3169 4666 
L 3169 4134 
L 1269 4134 
L 1269 2991 
Q 1406 3038 1543 3061 
Q 1681 3084 1819 3084 
Q 2600 3084 3056 2656 
Q 3513 2228 3513 1497 
Q 3513 744 3044 326 
Q 2575 -91 1722 -91 
Q 1428 -91 1123 -41 
Q 819 9 494 109 
L 494 744 
Q 775 591 1075 516 
Q 1375 441 1709 441 
Q 2250 441 2565 725 
Q 2881 1009 2881 1497 
Q 2881 1984 2565 2268 
Q 2250 2553 1709 2553 
Q 1456 2553 1204 2497 
Q 953 2441 691 2322 
L 691 4666 
z
" transform="scale(0.015625)"/>
       </defs>
       <use xlink:href="#DejaVuSans-31"/>
       <use xlink:href="#DejaVuSans-31" x="63.623047"/>
       <use xlink:href="#DejaVuSans-35" x="127.246094"/>
       <use xlink:href="#DejaVuSans-30" x="190.869141"/>
      </g>
     </g>
    </g>
    <g id="ytick_2">
     <g id="line2d_8">
      <g>
       <use xlink:href="#m3018bf8fcb" x="180" y="662.393217" style="stroke: #000000; stroke-width: 0.8"/>
      </g>
     </g>
     <g id="text_8">
      <!-- 1200 -->
      <g transform="translate(147.55 666.192436) scale(0.1 -0.1)">
       <use xlink:href="#DejaVuSans-31"/>
       <use xlink:href="#DejaVuSans-32" x="63.623047"/>
       <use xlink:href="#DejaVuSans-30" x="127.246094"/>
       <use xlink:href="#DejaVuSans-30" x="190.869141"/>
      </g>
     </g>
    </g>
    <g id="ytick_3">
     <g id="line2d_9">
      <g>
       <use xlink:href="#m3018bf8fcb" x="180" y="616.982821" style="stroke: #000000; stroke-width: 0.8"/>
      </g>
     </g>
     <g id="text_9">
      <!-- 1250 -->
      <g transform="translate(147.55 620.78204) scale(0.1 -0.1)">
       <use xlink:href="#DejaVuSans-31"/>
       <use xlink:href="#DejaVuSans-32" x="63.623047"/>
       <use xlink:href="#DejaVuSans-35" x="127.246094"/>
       <use xlink:href="#DejaVuSans-30" x="190.869141"/>
      </g>
     </g>
    </g>
    <g id="ytick_4">
     <g id="line2d_10">
      <g>
       <use xlink:href="#m3018bf8fcb" x="180" y="571.572425" style="stroke: #000000; stroke-width: 0.8"/>
      </g>
     </g>
     <g id="text_10">
      <!-- 1300 -->
      <g transform="translate(147.55 575.371643) scale(0.1 -0.1)">
       <defs>
        <path id="DejaVuSans-33" d="M 2597 2516 
Q 3050 2419 3304 2112 
Q 3559 1806 3559 1356 
Q 3559 666 3084 287 
Q 2609 -91 1734 -91 
Q 1441 -91 1130 -33 
Q 819 25 488 141 
L 488 750 
Q 750 597 1062 519 
Q 1375 441 1716 441 
Q 2309 441 2620 675 
Q 2931 909 2931 1356 
Q 2931 1769 2642 2001 
Q 2353 2234 1838 2234 
L 1294 2234 
L 1294 2753 
L 1863 2753 
Q 2328 2753 2575 2939 
Q 2822 3125 2822 3475 
Q 2822 3834 2567 4026 
Q 2313 4219 1838 4219 
Q 1578 4219 1281 4162 
Q 984 4106 628 3988 
L 628 4550 
Q 988 4650 1302 4700 
Q 1616 4750 1894 4750 
Q 2613 4750 3031 4423 
Q 3450 4097 3450 3541 
Q 3450 3153 3228 2886 
Q 3006 2619 2597 2516 
z
" transform="scale(0.015625)"/>
       </defs>
       <use xlink:href="#DejaVuSans-31"/>
       <use xlink:href="#DejaVuSans-33" x="63.623047"/>
       <use xlink:href="#DejaVuSans-30" x="127.246094"/>
       <use xlink:href="#DejaVuSans-30" x="190.869141"/>
      </g>
     </g>
    </g>
    <g id="ytick_5">
     <g id="line2d_11">
      <g>
       <use xlink:href="#m3018bf8fcb" x="180" y="526.162028" style="stroke: #000000; stroke-width: 0.8"/>
      </g>
     </g>
     <g id="text_11">
      <!-- 1350 -->
      <g transform="translate(147.55 529.961247) scale(0.1 -0.1)">
       <use xlink:href="#DejaVuSans-31"/>
       <use xlink:href="#DejaVuSans-33" x="63.623047"/>
       <use xlink:href="#DejaVuSans-35" x="127.246094"/>
       <use xlink:href="#DejaVuSans-30" x="190.869141"/>
      </g>
     </g>
    </g>
    <g id="ytick_6">
     <g id="line2d_12">
      <g>
       <use xlink:href="#m3018bf8fcb" x="180" y="480.751632" style="stroke: #000000; stroke-width: 0.8"/>
      </g>
     </g>
     <g id="text_12">
      <!-- 1400 -->
      <g transform="translate(147.55 484.550851) scale(0.1 -0.1)">
       <use xlink:href="#DejaVuSans-31"/>
       <use xlink:href="#DejaVuSans-34" x="63.623047"/>
       <use xlink:href="#DejaVuSans-30" x="127.246094"/>
       <use xlink:href="#DejaVuSans-30" x="190.869141"/>
      </g>
     </g>
    </g>
    <g id="ytick_7">
     <g id="line2d_13">
      <g>
       <use xlink:href="#m3018bf8fcb" x="180" y="435.341236" style="stroke: #000000; stroke-width: 0.8"/>
      </g>
     </g>
     <g id="text_13">
      <!-- 1450 -->
      <g transform="translate(147.55 439.140455) scale(0.1 -0.1)">
       <use xlink:href="#DejaVuSans-31"/>
       <use xlink:href="#DejaVuSans-34" x="63.623047"/>
       <use xlink:href="#DejaVuSans-35" x="127.246094"/>
       <use xlink:href="#DejaVuSans-30" x="190.869141"/>
      </g>
     </g>
    </g>
    <g id="ytick_8">
     <g id="line2d_14">
      <g>
       <use xlink:href="#m3018bf8fcb" x="180" y="389.93084" style="stroke: #000000; stroke-width: 0.8"/>
      </g>
     </g>
     <g id="text_14">
      <!-- 1500 -->
      <g transform="translate(147.55 393.730059) scale(0.1 -0.1)">
       <use xlink:href="#DejaVuSans-31"/>
       <use xlink:href="#DejaVuSans-35" x="63.623047"/>
       <use xlink:href="#DejaVuSans-30" x="127.246094"/>
       <use xlink:href="#DejaVuSans-30" x="190.869141"/>
      </g>
     </g>
    </g>
   </g>
   <g id="LineCollection_1">
    <path d="M 254.199933 477.35913 
L 271.663782 462.574822 
L 287.321202 451.405238 
L 301.74284 443.044072 
L 315.017769 437.114107 
L 327.266729 433.252834 
L 338.647578 431.130805 
L 349.344332 430.472789 
L 359.541011 431.068705 
L 369.393317 432.766232 
L 379.012765 435.449993 
L 388.467531 439.019828 
L 397.793805 443.377029 
L 407.009085 448.419605 
L 416.122446 454.043216 
L 425.140726 460.144199 
L 434.071501 466.62256 
L 442.924118 473.384135 
L 451.70972 480.341851 
L 469.131069 494.535595 
L 486.508597 508.709545 
L 495.189892 515.626745 
L 503.884322 522.368173 
L 512.60472 528.893808 
L 521.36284 535.168282 
L 530.169201 541.160375 
L 539.032924 546.842584 
L 547.961598 552.190752 
L 556.961158 557.183788 
L 566.035793 561.803461 
L 575.187918 566.034284 
L 584.418193 569.863449 
L 593.725637 573.280819 
L 603.107808 576.278927 
L 612.56106 578.852984 
L 622.080862 581.000837 
L 631.662136 582.722881 
L 641.299602 584.02192 
L 650.988087 584.902957 
L 660.722783 585.372952 
L 670.499433 585.44055 
L 680.31444 585.11581 
L 690.164909 584.40995 
L 700.048625 583.335124 
L 709.963989 581.90425 
L 719.909917 580.130873 
L 729.885731 578.029087 
L 739.891033 575.613494 
L 749.925593 572.899202 
L 759.989235 569.901857 
L 770.081743 566.637694 
L 780.20277 563.123613 
L 790.35176 559.377264 
L 800.52789 555.417143 
L 810.73 551.262693 
L 820.956552 546.93441 
L 841.344411 537.903275 
L 851.760681 533.129507 
L 882.687024 518.618416 
L 903.343498 508.916995 
L 923.945569 499.512262 
L 934.205605 495.012193 
L 944.425168 490.69903 
L 954.592898 486.613812 
L 964.69614 482.798957 
L 974.72092 479.297974 
L 984.652004 476.15506 
L 994.473115 473.414582 
L 1004.167378 471.120449 
L 1013.718139 469.315424 
L 1023.110262 468.040509 
L 1032.332011 467.334611 
L 1041.377486 467.234859 
L 1050.249309 467.777967 
L 1058.960911 469.002959 
L 1067.537399 470.955178 
L 1076.013984 473.690768 
L 1084.431576 477.28018 
L 1092.8303 481.809096 
L 1101.242865 487.375973 
L 1109.689894 494.086857 
L 1118.178447 502.049192 
L 1126.703561 511.366513 
L 1135.251606 522.135089 
L 1143.804099 534.442609 
L 1152.340998 548.368348 
L 1160.843095 563.984067 
L 1169.293497 581.355104 
L 1177.678415 600.541276 
L 1185.987494 621.597478 
L 1194.213874 644.57395 
L 1202.354138 669.516246 
L 1210.465675 696.657209 
L 1210.465675 696.657209 
" clip-path="url(#pc76947ddff)" style="fill: none; stroke: #1f77b4; stroke-width: 1.5"/>
    <path d="M 242.463603 463.495682 
L 260.50209 448.224904 
L 277.469699 436.120666 
L 293.460417 426.849802 
L 308.561809 420.103948 
L 322.855361 415.598153 
L 336.416812 413.069537 
L 349.31647 412.276009 
L 361.61952 412.995026 
L 373.386312 415.022414 
L 384.672651 418.171226 
L 395.530059 422.270657 
L 406.006042 427.164997 
L 416.144331 432.712641 
L 425.985126 438.785132 
L 435.565319 445.266257 
L 444.918713 452.051184 
L 454.076224 459.045636 
L 463.066087 466.165116 
L 471.914032 473.334159 
L 480.64347 480.485638 
L 489.275661 487.560098 
L 497.829867 494.505127 
L 506.323513 501.274771 
L 514.772322 507.828981 
L 523.190453 514.133087 
L 531.590626 520.157317 
L 539.984243 525.876344 
L 548.381496 531.268861 
L 556.791475 536.317191 
L 565.222259 541.006925 
L 573.681011 545.32659 
L 582.174063 549.267339 
L 590.706985 552.822682 
L 599.284664 555.988223 
L 607.911366 558.761436 
L 616.590794 561.141466 
L 625.326144 563.128937 
L 634.120153 564.725804 
L 642.975144 565.935207 
L 651.89306 566.761357 
L 660.875507 567.209436 
L 669.923774 567.285516 
L 679.038869 566.996495 
L 688.221535 566.350051 
L 697.472269 565.354606 
L 706.791339 564.019314 
L 716.178798 562.354051 
L 725.634489 560.369427 
L 735.158054 558.076802 
L 744.748938 555.488318 
L 754.406391 552.616936 
L 764.129466 549.476486 
L 773.917022 546.081723 
L 783.767714 542.448383 
L 793.679996 538.593261 
L 803.652107 534.534271 
L 813.682072 530.290534 
L 823.76769 525.882449 
L 833.90653 521.331776 
L 844.09592 516.661718 
L 854.332941 511.897002 
L 864.614422 507.063962 
L 874.93693 502.190613 
L 885.296765 497.306729 
L 895.689958 492.443915 
L 906.112264 487.635672 
L 916.55916 482.917462 
L 927.025848 478.326755 
L 937.507253 473.903082 
L 947.998029 469.68807 
L 958.492564 465.725468 
L 968.984989 462.061167 
L 979.46919 458.743208 
L 989.938823 455.821766 
L 1000.387331 453.349142 
L 1010.807966 451.379718 
L 1021.193817 449.96991 
L 1031.537835 449.178106 
L 1041.832869 449.064574 
L 1052.071706 449.691366 
L 1062.247109 451.122193 
L 1072.351871 453.422285 
L 1082.378863 456.658227 
L 1092.321096 460.897773 
L 1102.17178 466.209642 
L 1111.924402 472.66328 
L 1121.572794 480.328607 
L 1131.11122 489.275732 
L 1140.534463 499.574642 
L 1149.837923 511.294865 
L 1159.017714 524.505105 
L 1168.070784 539.272841 
L 1176.995021 555.663902 
L 1185.789387 573.742008 
L 1194.454047 593.568277 
L 1202.99051 615.200699 
L 1211.401782 638.693578 
L 1219.692519 664.096934 
L 1227.869201 691.455871 
" clip-path="url(#pc76947ddff)" style="fill: none; stroke: #8c564b; stroke-width: 1.5"/>
    <path d="M 230.727273 449.632233 
L 249.953323 433.437741 
L 268.359172 420.406502 
L 286.051973 410.265122 
L 301.153364 403.519268 
L 303.100782 402.780154 
L 317.394334 398.274359 
L 319.525923 397.74174 
L 333.087374 395.213124 
L 335.301543 394.93965 
L 348.201201 394.146121 
L 350.376215 394.142791 
L 362.679265 394.861808 
L 364.703713 395.094623 
L 378.267578 397.526417 
L 391.088784 401.177995 
L 403.218575 405.813945 
L 414.725381 411.230451 
L 425.683045 417.254647 
L 436.163112 423.740357 
L 446.23092 430.563142 
L 455.944225 437.615993 
L 465.35321 444.806035 
L 474.501129 452.052127 
L 492.154581 466.434625 
L 509.215212 480.351778 
L 517.551444 486.995959 
L 525.783928 493.382354 
L 533.928462 499.48157 
L 541.99889 505.269322 
L 550.007517 510.726035 
L 557.965494 515.836459 
L 565.883172 520.589272 
L 573.770438 524.976667 
L 581.637 528.993915 
L 589.49262 532.638898 
L 597.347277 535.911634 
L 605.21125 538.813785 
L 613.095099 541.348195 
L 621.009571 543.518462 
L 628.96542 545.328581 
L 636.973177 546.782675 
L 645.042895 547.884827 
L 653.183902 548.639005 
L 661.404582 549.049084 
L 669.712222 549.118937 
L 678.11291 548.852568 
L 686.611514 548.25428 
L 695.211707 547.328838 
L 703.916042 546.081629 
L 712.726068 544.518799 
L 721.642449 542.647369 
L 730.665102 540.475329 
L 739.793323 538.011713 
L 749.025904 535.266655 
L 758.361242 532.251441 
L 767.797428 528.978548 
L 777.332321 525.461688 
L 786.963616 521.715848 
L 796.688886 517.757331 
L 806.505637 513.603807 
L 826.403435 504.789547 
L 846.636882 495.44378 
L 898.635799 471.081545 
L 909.263245 466.282971 
L 919.96295 461.591997 
L 930.735359 457.048465 
L 941.581639 452.694936 
L 952.503746 448.576977 
L 963.504438 444.74354 
L 974.587174 441.24742 
L 985.755834 438.145815 
L 997.01415 435.50094 
L 1008.364715 433.380629 
L 1019.80746 431.858735 
L 1031.337536 431.015052 
L 1042.942749 430.934356 
L 1054.600998 431.704167 
L 1066.278594 433.411073 
L 1077.930548 436.136018 
L 1089.503666 439.949731 
L 1100.942349 444.909945 
L 1112.195651 451.061749 
L 1123.223413 458.441149 
L 1133.999594 467.08054 
L 1144.512293 477.014088 
L 1154.761246 488.281488 
L 1164.754235 500.929524 
L 1174.503622 515.011775 
L 1184.023699 530.587155 
L 1193.329008 547.717989 
L 1202.43349 566.468048 
L 1211.350241 586.900797 
L 1220.091622 609.077903 
L 1228.669579 633.057993 
L 1237.096046 658.895595 
L 1245.272727 686.254532 
L 1245.272727 686.254532 
" clip-path="url(#pc76947ddff)" style="fill: none; stroke: #17becf; stroke-width: 1.5"/>
   </g>
   <g id="patch_3">
    <path d="M 180 711.78293 
L 180 379.01707 
" style="fill: none; stroke: #000000; stroke-width: 0.8; stroke-linejoin: miter; stroke-linecap: square"/>
   </g>
   <g id="patch_4">
    <path d="M 1296 711.78293 
L 1296 379.01707 
" style="fill: none; stroke: #000000; stroke-width: 0.8; stroke-linejoin: miter; stroke-linecap: square"/>
   </g>
   <g id="patch_5">
    <path d="M 180 711.78293 
L 1296 711.78293 
" style="fill: none; stroke: #000000; stroke-width: 0.8; stroke-linejoin: miter; stroke-linecap: square"/>
   </g>
   <g id="patch_6">
    <path d="M 180 379.01707 
L 1296 379.01707 
" style="fill: none; stroke: #000000; stroke-width: 0.8; stroke-linejoin: miter; stroke-linecap: square"/>
   </g>
  </g>
 </g>
 <defs>
  <clipPath id="pc76947ddff">
   <rect x="180" y="379.01707" width="1116" height="332.765861"/>
  </clipPath>
 </defs>
</svg>
