<?xml version="1.0" encoding="utf-8" standalone="no"?>
<!DOCTYPE svg PUBLIC "-//W3C//DTD SVG 1.1//EN"
  "http://www.w3.org/Graphics/SVG/1.1/DTD/svg11.dtd">
<svg xmlns:xlink="http://www.w3.org/1999/xlink" width="1440pt" height="1080pt" viewBox="0 0 1440 1080" xmlns="http://www.w3.org/2000/svg" version="1.1">
 <metadata>
  <rdf:RDF xmlns:dc="http://purl.org/dc/elements/1.1/" xmlns:cc="http://creativecommons.org/ns#" xmlns:rdf="http://www.w3.org/1999/02/22-rdf-syntax-ns#">
   <cc:Work>
    <dc:type rdf:resource="http://purl.org/dc/dcmitype/StillImage"/>
    <dc:date>2023-12-11T12:06:48.244360</dc:date>
    <dc:format>image/svg+xml</dc:format>
    <dc:creator>
     <cc:Agent>
      <dc:title>Matplotlib v3.7.1, https://matplotlib.org/</dc:title>
     </cc:Agent>
    </dc:creator>
   </cc:Work>
  </rdf:RDF>
 </metadata>
 <defs>
  <style type="text/css">*{stroke-linejoin: round; stroke-linecap: butt}</style>
 </defs>
 <g id="figure_1">
  <g id="patch_1">
   <path d="M 0 1080 
L 1440 1080 
L 1440 0 
L 0 0 
z
" style="fill: #ffffff"/>
  </g>
  <g id="axes_1">
   <g id="patch_2">
    <path d="M 506.012511 961.2 
L 969.987489 961.2 
L 969.987489 129.6 
L 506.012511 129.6 
z
" style="fill: #ffffff"/>
   </g>
   <g id="matplotlib.axis_1">
    <g id="xtick_1">
     <g id="line2d_1">
      <defs>
       <path id="m6cde7edf8a" d="M 0 0 
L 0 3.5 
" style="stroke: #000000; stroke-width: 0.8"/>
      </defs>
      <g>
       <use xlink:href="#m6cde7edf8a" x="548.990123" y="961.2" style="stroke: #000000; stroke-width: 0.8"/>
      </g>
     </g>
     <g id="text_1">
      <!-- 1200 -->
      <g transform="translate(536.265123 975.798437) scale(0.1 -0.1)">
       <defs>
        <path id="DejaVuSans-31" d="M 794 531 
L 1825 531 
L 1825 4091 
L 703 3866 
L 703 4441 
L 1819 4666 
L 2450 4666 
L 2450 531 
L 3481 531 
L 3481 0 
L 794 0 
L 794 531 
z
" transform="scale(0.015625)"/>
        <path id="DejaVuSans-32" d="M 1228 531 
L 3431 531 
L 3431 0 
L 469 0 
L 469 531 
Q 828 903 1448 1529 
Q 2069 2156 2228 2338 
Q 2531 2678 2651 2914 
Q 2772 3150 2772 3378 
Q 2772 3750 2511 3984 
Q 2250 4219 1831 4219 
Q 1534 4219 1204 4116 
Q 875 4013 500 3803 
L 500 4441 
Q 881 4594 1212 4672 
Q 1544 4750 1819 4750 
Q 2544 4750 2975 4387 
Q 3406 4025 3406 3419 
Q 3406 3131 3298 2873 
Q 3191 2616 2906 2266 
Q 2828 2175 2409 1742 
Q 1991 1309 1228 531 
z
" transform="scale(0.015625)"/>
        <path id="DejaVuSans-30" d="M 2034 4250 
Q 1547 4250 1301 3770 
Q 1056 3291 1056 2328 
Q 1056 1369 1301 889 
Q 1547 409 2034 409 
Q 2525 409 2770 889 
Q 3016 1369 3016 2328 
Q 3016 3291 2770 3770 
Q 2525 4250 2034 4250 
z
M 2034 4750 
Q 2819 4750 3233 4129 
Q 3647 3509 3647 2328 
Q 3647 1150 3233 529 
Q 2819 -91 2034 -91 
Q 1250 -91 836 529 
Q 422 1150 422 2328 
Q 422 3509 836 4129 
Q 1250 4750 2034 4750 
z
" transform="scale(0.015625)"/>
       </defs>
       <use xlink:href="#DejaVuSans-31"/>
       <use xlink:href="#DejaVuSans-32" x="63.623047"/>
       <use xlink:href="#DejaVuSans-30" x="127.246094"/>
       <use xlink:href="#DejaVuSans-30" x="190.869141"/>
      </g>
     </g>
    </g>
    <g id="xtick_2">
     <g id="line2d_2">
      <g>
       <use xlink:href="#m6cde7edf8a" x="622.666135" y="961.2" style="stroke: #000000; stroke-width: 0.8"/>
      </g>
     </g>
     <g id="text_2">
      <!-- 1300 -->
      <g transform="translate(609.941135 975.798437) scale(0.1 -0.1)">
       <defs>
        <path id="DejaVuSans-33" d="M 2597 2516 
Q 3050 2419 3304 2112 
Q 3559 1806 3559 1356 
Q 3559 666 3084 287 
Q 2609 -91 1734 -91 
Q 1441 -91 1130 -33 
Q 819 25 488 141 
L 488 750 
Q 750 597 1062 519 
Q 1375 441 1716 441 
Q 2309 441 2620 675 
Q 2931 909 2931 1356 
Q 2931 1769 2642 2001 
Q 2353 2234 1838 2234 
L 1294 2234 
L 1294 2753 
L 1863 2753 
Q 2328 2753 2575 2939 
Q 2822 3125 2822 3475 
Q 2822 3834 2567 4026 
Q 2313 4219 1838 4219 
Q 1578 4219 1281 4162 
Q 984 4106 628 3988 
L 628 4550 
Q 988 4650 1302 4700 
Q 1616 4750 1894 4750 
Q 2613 4750 3031 4423 
Q 3450 4097 3450 3541 
Q 3450 3153 3228 2886 
Q 3006 2619 2597 2516 
z
" transform="scale(0.015625)"/>
       </defs>
       <use xlink:href="#DejaVuSans-31"/>
       <use xlink:href="#DejaVuSans-33" x="63.623047"/>
       <use xlink:href="#DejaVuSans-30" x="127.246094"/>
       <use xlink:href="#DejaVuSans-30" x="190.869141"/>
      </g>
     </g>
    </g>
    <g id="xtick_3">
     <g id="line2d_3">
      <g>
       <use xlink:href="#m6cde7edf8a" x="696.342147" y="961.2" style="stroke: #000000; stroke-width: 0.8"/>
      </g>
     </g>
     <g id="text_3">
      <!-- 1400 -->
      <g transform="translate(683.617147 975.798437) scale(0.1 -0.1)">
       <defs>
        <path id="DejaVuSans-34" d="M 2419 4116 
L 825 1625 
L 2419 1625 
L 2419 4116 
z
M 2253 4666 
L 3047 4666 
L 3047 1625 
L 3713 1625 
L 3713 1100 
L 3047 1100 
L 3047 0 
L 2419 0 
L 2419 1100 
L 313 1100 
L 313 1709 
L 2253 4666 
z
" transform="scale(0.015625)"/>
       </defs>
       <use xlink:href="#DejaVuSans-31"/>
       <use xlink:href="#DejaVuSans-34" x="63.623047"/>
       <use xlink:href="#DejaVuSans-30" x="127.246094"/>
       <use xlink:href="#DejaVuSans-30" x="190.869141"/>
      </g>
     </g>
    </g>
    <g id="xtick_4">
     <g id="line2d_4">
      <g>
       <use xlink:href="#m6cde7edf8a" x="770.018159" y="961.2" style="stroke: #000000; stroke-width: 0.8"/>
      </g>
     </g>
     <g id="text_4">
      <!-- 1500 -->
      <g transform="translate(757.293159 975.798437) scale(0.1 -0.1)">
       <defs>
        <path id="DejaVuSans-35" d="M 691 4666 
L 3169 4666 
L 3169 4134 
L 1269 4134 
L 1269 2991 
Q 1406 3038 1543 3061 
Q 1681 3084 1819 3084 
Q 2600 3084 3056 2656 
Q 3513 2228 3513 1497 
Q 3513 744 3044 326 
Q 2575 -91 1722 -91 
Q 1428 -91 1123 -41 
Q 819 9 494 109 
L 494 744 
Q 775 591 1075 516 
Q 1375 441 1709 441 
Q 2250 441 2565 725 
Q 2881 1009 2881 1497 
Q 2881 1984 2565 2268 
Q 2250 2553 1709 2553 
Q 1456 2553 1204 2497 
Q 953 2441 691 2322 
L 691 4666 
z
" transform="scale(0.015625)"/>
       </defs>
       <use xlink:href="#DejaVuSans-31"/>
       <use xlink:href="#DejaVuSans-35" x="63.623047"/>
       <use xlink:href="#DejaVuSans-30" x="127.246094"/>
       <use xlink:href="#DejaVuSans-30" x="190.869141"/>
      </g>
     </g>
    </g>
    <g id="xtick_5">
     <g id="line2d_5">
      <g>
       <use xlink:href="#m6cde7edf8a" x="843.694171" y="961.2" style="stroke: #000000; stroke-width: 0.8"/>
      </g>
     </g>
     <g id="text_5">
      <!-- 1600 -->
      <g transform="translate(830.969171 975.798437) scale(0.1 -0.1)">
       <defs>
        <path id="DejaVuSans-36" d="M 2113 2584 
Q 1688 2584 1439 2293 
Q 1191 2003 1191 1497 
Q 1191 994 1439 701 
Q 1688 409 2113 409 
Q 2538 409 2786 701 
Q 3034 994 3034 1497 
Q 3034 2003 2786 2293 
Q 2538 2584 2113 2584 
z
M 3366 4563 
L 3366 3988 
Q 3128 4100 2886 4159 
Q 2644 4219 2406 4219 
Q 1781 4219 1451 3797 
Q 1122 3375 1075 2522 
Q 1259 2794 1537 2939 
Q 1816 3084 2150 3084 
Q 2853 3084 3261 2657 
Q 3669 2231 3669 1497 
Q 3669 778 3244 343 
Q 2819 -91 2113 -91 
Q 1303 -91 875 529 
Q 447 1150 447 2328 
Q 447 3434 972 4092 
Q 1497 4750 2381 4750 
Q 2619 4750 2861 4703 
Q 3103 4656 3366 4563 
z
" transform="scale(0.015625)"/>
       </defs>
       <use xlink:href="#DejaVuSans-31"/>
       <use xlink:href="#DejaVuSans-36" x="63.623047"/>
       <use xlink:href="#DejaVuSans-30" x="127.246094"/>
       <use xlink:href="#DejaVuSans-30" x="190.869141"/>
      </g>
     </g>
    </g>
    <g id="xtick_6">
     <g id="line2d_6">
      <g>
       <use xlink:href="#m6cde7edf8a" x="917.370183" y="961.2" style="stroke: #000000; stroke-width: 0.8"/>
      </g>
     </g>
     <g id="text_6">
      <!-- 1700 -->
      <g transform="translate(904.645183 975.798437) scale(0.1 -0.1)">
       <defs>
        <path id="DejaVuSans-37" d="M 525 4666 
L 3525 4666 
L 3525 4397 
L 1831 0 
L 1172 0 
L 2766 4134 
L 525 4134 
L 525 4666 
z
" transform="scale(0.015625)"/>
       </defs>
       <use xlink:href="#DejaVuSans-31"/>
       <use xlink:href="#DejaVuSans-37" x="63.623047"/>
       <use xlink:href="#DejaVuSans-30" x="127.246094"/>
       <use xlink:href="#DejaVuSans-30" x="190.869141"/>
      </g>
     </g>
    </g>
   </g>
   <g id="matplotlib.axis_2">
    <g id="ytick_1">
     <g id="line2d_7">
      <defs>
       <path id="mbabdda4e52" d="M 0 0 
L -3.5 0 
" style="stroke: #000000; stroke-width: 0.8"/>
      </defs>
      <g>
       <use xlink:href="#mbabdda4e52" x="506.012511" y="938.850664" style="stroke: #000000; stroke-width: 0.8"/>
      </g>
     </g>
     <g id="text_7">
      <!-- 200 -->
      <g transform="translate(479.925011 942.649883) scale(0.1 -0.1)">
       <use xlink:href="#DejaVuSans-32"/>
       <use xlink:href="#DejaVuSans-30" x="63.623047"/>
       <use xlink:href="#DejaVuSans-30" x="127.246094"/>
      </g>
     </g>
    </g>
    <g id="ytick_2">
     <g id="line2d_8">
      <g>
       <use xlink:href="#mbabdda4e52" x="506.012511" y="791.49864" style="stroke: #000000; stroke-width: 0.8"/>
      </g>
     </g>
     <g id="text_8">
      <!-- 400 -->
      <g transform="translate(479.925011 795.297859) scale(0.1 -0.1)">
       <use xlink:href="#DejaVuSans-34"/>
       <use xlink:href="#DejaVuSans-30" x="63.623047"/>
       <use xlink:href="#DejaVuSans-30" x="127.246094"/>
      </g>
     </g>
    </g>
    <g id="ytick_3">
     <g id="line2d_9">
      <g>
       <use xlink:href="#mbabdda4e52" x="506.012511" y="644.146616" style="stroke: #000000; stroke-width: 0.8"/>
      </g>
     </g>
     <g id="text_9">
      <!-- 600 -->
      <g transform="translate(479.925011 647.945835) scale(0.1 -0.1)">
       <use xlink:href="#DejaVuSans-36"/>
       <use xlink:href="#DejaVuSans-30" x="63.623047"/>
       <use xlink:href="#DejaVuSans-30" x="127.246094"/>
      </g>
     </g>
    </g>
    <g id="ytick_4">
     <g id="line2d_10">
      <g>
       <use xlink:href="#mbabdda4e52" x="506.012511" y="496.794592" style="stroke: #000000; stroke-width: 0.8"/>
      </g>
     </g>
     <g id="text_10">
      <!-- 800 -->
      <g transform="translate(479.925011 500.593811) scale(0.1 -0.1)">
       <defs>
        <path id="DejaVuSans-38" d="M 2034 2216 
Q 1584 2216 1326 1975 
Q 1069 1734 1069 1313 
Q 1069 891 1326 650 
Q 1584 409 2034 409 
Q 2484 409 2743 651 
Q 3003 894 3003 1313 
Q 3003 1734 2745 1975 
Q 2488 2216 2034 2216 
z
M 1403 2484 
Q 997 2584 770 2862 
Q 544 3141 544 3541 
Q 544 4100 942 4425 
Q 1341 4750 2034 4750 
Q 2731 4750 3128 4425 
Q 3525 4100 3525 3541 
Q 3525 3141 3298 2862 
Q 3072 2584 2669 2484 
Q 3125 2378 3379 2068 
Q 3634 1759 3634 1313 
Q 3634 634 3220 271 
Q 2806 -91 2034 -91 
Q 1263 -91 848 271 
Q 434 634 434 1313 
Q 434 1759 690 2068 
Q 947 2378 1403 2484 
z
M 1172 3481 
Q 1172 3119 1398 2916 
Q 1625 2713 2034 2713 
Q 2441 2713 2670 2916 
Q 2900 3119 2900 3481 
Q 2900 3844 2670 4047 
Q 2441 4250 2034 4250 
Q 1625 4250 1398 4047 
Q 1172 3844 1172 3481 
z
" transform="scale(0.015625)"/>
       </defs>
       <use xlink:href="#DejaVuSans-38"/>
       <use xlink:href="#DejaVuSans-30" x="63.623047"/>
       <use xlink:href="#DejaVuSans-30" x="127.246094"/>
      </g>
     </g>
    </g>
    <g id="ytick_5">
     <g id="line2d_11">
      <g>
       <use xlink:href="#mbabdda4e52" x="506.012511" y="349.442568" style="stroke: #000000; stroke-width: 0.8"/>
      </g>
     </g>
     <g id="text_11">
      <!-- 1000 -->
      <g transform="translate(473.562511 353.241787) scale(0.1 -0.1)">
       <use xlink:href="#DejaVuSans-31"/>
       <use xlink:href="#DejaVuSans-30" x="63.623047"/>
       <use xlink:href="#DejaVuSans-30" x="127.246094"/>
       <use xlink:href="#DejaVuSans-30" x="190.869141"/>
      </g>
     </g>
    </g>
    <g id="ytick_6">
     <g id="line2d_12">
      <g>
       <use xlink:href="#mbabdda4e52" x="506.012511" y="202.090544" style="stroke: #000000; stroke-width: 0.8"/>
      </g>
     </g>
     <g id="text_12">
      <!-- 1200 -->
      <g transform="translate(473.562511 205.889763) scale(0.1 -0.1)">
       <use xlink:href="#DejaVuSans-31"/>
       <use xlink:href="#DejaVuSans-32" x="63.623047"/>
       <use xlink:href="#DejaVuSans-30" x="127.246094"/>
       <use xlink:href="#DejaVuSans-30" x="190.869141"/>
      </g>
     </g>
    </g>
   </g>
   <g id="LineCollection_1">
    <path d="M 561.659282 923.4 
L 565.152847 910.27307 
L 567.419839 897.151461 
L 568.698431 884.103064 
L 569.196207 871.17616 
L 569.092762 858.409129 
L 568.543738 845.835607 
L 567.684572 833.486758 
L 566.633448 821.392023 
L 563.28589 786.813022 
L 562.366769 775.940681 
L 561.649507 765.439355 
L 561.179815 755.322767 
L 560.993896 745.600904 
L 561.119119 736.279499 
L 561.574813 727.359484 
L 562.373244 718.836496 
L 563.520806 710.700532 
L 565.019405 702.93589 
L 566.867933 695.521547 
L 569.063645 688.432033 
L 571.603237 681.638791 
L 574.483416 675.111842 
L 577.700886 668.821485 
L 581.25182 662.739734 
L 585.131019 656.841257 
L 589.331004 651.103754 
L 593.841297 645.507809 
L 598.648007 640.036404 
L 603.733763 634.674269 
L 609.077951 629.407221 
L 614.657156 624.221616 
L 620.445717 619.103932 
L 626.416324 614.040519 
L 638.78955 604.020598 
L 658.010414 589.0312 
L 670.960763 578.878143 
L 683.746245 568.491208 
L 690.018195 563.17895 
L 696.181098 557.77311 
L 702.21558 552.264638 
L 708.104019 546.64612 
L 713.83069 540.911962 
L 719.381937 535.058538 
L 724.746363 529.084295 
L 729.915045 522.98978 
L 734.881738 516.777613 
L 739.643068 510.452368 
L 744.198676 504.020388 
L 748.5513 497.489553 
L 752.706787 490.869 
L 756.674011 484.168839 
L 760.464726 477.399879 
L 764.093341 470.573379 
L 767.57665 463.70083 
L 774.184583 449.863657 
L 780.45859 435.978701 
L 792.801254 408.315837 
L 799.255802 394.697761 
L 802.637786 387.966377 
L 806.154213 381.29013 
L 809.827652 374.669041 
L 813.679776 368.100998 
L 817.731176 361.581724 
L 822.001096 355.104799 
L 826.507066 348.661728 
L 831.264413 342.24201 
L 836.28565 335.833159 
L 841.579771 329.420648 
L 847.151469 322.987717 
L 853.000319 316.515042 
L 859.119966 309.980238 
L 872.111852 296.615361 
L 885.977857 282.573207 
L 893.13652 275.184416 
L 900.361021 267.480837 
L 907.577473 259.39137 
L 914.695454 250.834004 
L 921.604174 241.716296 
L 928.167799 231.937916 
L 934.220937 221.396377 
L 939.566582 209.996418 
L 943.979888 197.661189 
L 947.220049 184.339831 
L 948.897717 171.946198 
L 948.897717 171.946198 
" clip-path="url(#p2c9c2ebe12)" style="fill: none; stroke: #1f77b4; stroke-width: 1.5"/>
    <path d="M 545.306323 918.958141 
L 548.465059 907.329071 
L 550.559025 895.459617 
L 551.766466 883.426334 
L 552.251169 871.298938 
L 552.163074 859.140601 
L 551.638877 847.008248 
L 550.802629 834.952839 
L 549.766315 823.01966 
L 548.630436 811.248602 
L 547.484576 799.674431 
L 546.407957 788.327066 
L 545.469994 777.231844 
L 544.730825 766.409779 
L 544.241849 755.87782 
L 544.046237 745.649107 
L 544.179446 735.733214 
L 544.669716 726.136391 
L 545.538556 716.861805 
L 546.801224 707.909766 
L 548.467189 699.27796 
L 550.540589 690.961663 
L 553.020676 682.953962 
L 555.902243 675.24596 
L 559.176051 667.826984 
L 562.829233 660.684781 
L 566.845696 653.805711 
L 571.206502 647.174931 
L 575.890243 640.776579 
L 580.873403 634.593946 
L 586.130703 628.609642 
L 591.635437 622.80576 
L 597.359797 617.164028 
L 603.27518 611.665961 
L 609.352484 606.292998 
L 615.562395 601.026641 
L 621.875649 595.848581 
L 628.263296 590.740817 
L 634.696934 585.685773 
L 641.148944 580.666405 
L 647.592698 575.666299 
L 654.002761 570.669763 
L 660.355075 565.661912 
L 666.62713 560.628748 
L 672.798116 555.557228 
L 678.84907 550.435323 
L 684.762993 545.252078 
L 690.524964 539.997655 
L 696.122234 534.663373 
L 701.544306 529.241737 
L 706.782993 523.72646 
L 711.832468 518.11248 
L 716.689296 512.395964 
L 721.352443 506.574302 
L 725.823281 500.646101 
L 730.105561 494.611164 
L 734.205384 488.470459 
L 738.131144 482.226081 
L 741.893462 475.881212 
L 745.505093 469.440057 
L 748.980827 462.907787 
L 752.337364 456.290462 
L 755.593175 449.594947 
L 758.768342 442.828823 
L 761.884383 436.000283 
L 764.964059 429.118024 
L 768.031157 422.19112 
L 771.110263 415.228898 
L 774.226509 408.240795 
L 777.405303 401.236205 
L 780.672041 394.224326 
L 784.051803 387.213979 
L 787.569017 380.213438 
L 791.247122 373.230232 
L 795.108196 366.270946 
L 799.172568 359.341009 
L 803.458417 352.444473 
L 807.981338 345.583778 
L 812.753901 338.759508 
L 817.785178 331.970139 
L 823.080257 325.211769 
L 828.639733 318.477847 
L 834.459173 311.75888 
L 840.528569 305.042137 
L 846.831759 298.311337 
L 853.345839 291.546329 
L 860.040538 284.722758 
L 866.877586 277.811719 
L 873.81005 270.779401 
L 880.781648 263.586721 
L 887.726052 256.18894 
L 894.566149 248.535273 
L 901.213299 240.568485 
L 907.566557 232.224473 
L 913.511876 223.43184 
L 918.92129 214.11145 
L 923.652064 204.175979 
L 927.545836 193.529445 
L 930.427718 182.066732 
L 932.105386 169.673099 
" clip-path="url(#p2c9c2ebe12)" style="fill: none; stroke: #8c564b; stroke-width: 1.5"/>
    <path d="M 528.953364 914.516282 
L 531.910734 903.628552 
L 533.761357 893.138467 
L 534.85483 882.240979 
L 535.303233 871.021808 
L 535.220242 859.567864 
L 534.718727 847.960466 
L 533.907953 836.272299 
L 532.89139 824.566555 
L 529.522703 789.754505 
L 528.5639 778.386564 
L 527.803577 767.195675 
L 527.299464 756.201823 
L 527.102283 745.421484 
L 527.256032 734.868652 
L 527.798103 724.555863 
L 528.759161 714.495103 
L 530.1628 704.698499 
L 532.02502 695.178635 
L 534.353673 685.94837 
L 537.148086 677.020137 
L 540.399083 668.404805 
L 544.089537 660.110347 
L 548.195483 652.140616 
L 552.687631 644.494502 
L 557.533042 637.165641 
L 562.696703 630.142677 
L 568.142828 623.409947 
L 573.83577 616.948424 
L 579.740593 610.736705 
L 585.823353 604.751943 
L 592.051196 598.970624 
L 598.392356 593.369184 
L 604.816131 587.924458 
L 617.793958 577.416315 
L 637.189645 562.289968 
L 649.806553 552.399807 
L 661.943916 542.54374 
L 667.789624 537.595568 
L 673.46828 532.618521 
L 678.969206 527.60215 
L 684.284327 522.53676 
L 689.408209 517.41329 
L 694.338032 512.223185 
L 699.073505 506.95831 
L 703.616741 501.610893 
L 707.972072 496.173522 
L 712.145858 490.639203 
L 716.146286 485.001475 
L 719.983192 479.254565 
L 723.667919 473.393581 
L 727.213216 467.414699 
L 730.633195 461.315345 
L 733.943314 455.094332 
L 737.160391 448.751949 
L 743.38961 435.711789 
L 749.482983 422.226957 
L 762.045002 394.080052 
L 768.90999 379.606424 
L 772.57607 372.316544 
L 776.429411 365.009234 
L 780.491199 357.698152 
L 784.779908 350.396698 
L 789.310689 343.117567 
L 794.094828 335.872228 
L 799.139265 328.670352 
L 804.446199 321.519252 
L 810.012766 314.423347 
L 815.83076 307.383723 
L 821.886362 300.397815 
L 828.159852 293.459208 
L 834.62525 286.557592 
L 847.993959 272.805153 
L 861.692111 258.934145 
L 868.519525 251.890223 
L 875.22926 244.74243 
L 881.7393 237.458078 
L 887.959977 230.002429 
L 893.795795 222.337994 
L 899.148174 214.42227 
L 903.918614 206.202828 
L 908.010626 197.608872 
L 911.327473 188.539793 
L 913.76254 178.85429 
L 915.313054 167.4 
L 915.313054 167.4 
" clip-path="url(#p2c9c2ebe12)" style="fill: none; stroke: #17becf; stroke-width: 1.5"/>
   </g>
   <g id="patch_3">
    <path d="M 506.012511 961.2 
L 506.012511 129.6 
" style="fill: none; stroke: #000000; stroke-width: 0.8; stroke-linejoin: miter; stroke-linecap: square"/>
   </g>
   <g id="patch_4">
    <path d="M 969.987489 961.2 
L 969.987489 129.6 
" style="fill: none; stroke: #000000; stroke-width: 0.8; stroke-linejoin: miter; stroke-linecap: square"/>
   </g>
   <g id="patch_5">
    <path d="M 506.012511 961.2 
L 969.987489 961.2 
" style="fill: none; stroke: #000000; stroke-width: 0.8; stroke-linejoin: miter; stroke-linecap: square"/>
   </g>
   <g id="patch_6">
    <path d="M 506.012511 129.6 
L 969.987489 129.6 
" style="fill: none; stroke: #000000; stroke-width: 0.8; stroke-linejoin: miter; stroke-linecap: square"/>
   </g>
  </g>
 </g>
 <defs>
  <clipPath id="p2c9c2ebe12">
   <rect x="506.012511" y="129.6" width="463.974978" height="831.6"/>
  </clipPath>
 </defs>
</svg>
