<?xml version="1.0" encoding="utf-8" standalone="no"?>
<!DOCTYPE svg PUBLIC "-//W3C//DTD SVG 1.1//EN"
  "http://www.w3.org/Graphics/SVG/1.1/DTD/svg11.dtd">
<svg xmlns:xlink="http://www.w3.org/1999/xlink" width="1440pt" height="1080pt" viewBox="0 0 1440 1080" xmlns="http://www.w3.org/2000/svg" version="1.1">
 <metadata>
  <rdf:RDF xmlns:dc="http://purl.org/dc/elements/1.1/" xmlns:cc="http://creativecommons.org/ns#" xmlns:rdf="http://www.w3.org/1999/02/22-rdf-syntax-ns#">
   <cc:Work>
    <dc:type rdf:resource="http://purl.org/dc/dcmitype/StillImage"/>
    <dc:date>2023-12-11T12:06:47.901795</dc:date>
    <dc:format>image/svg+xml</dc:format>
    <dc:creator>
     <cc:Agent>
      <dc:title>Matplotlib v3.7.1, https://matplotlib.org/</dc:title>
     </cc:Agent>
    </dc:creator>
   </cc:Work>
  </rdf:RDF>
 </metadata>
 <defs>
  <style type="text/css">*{stroke-linejoin: round; stroke-linecap: butt}</style>
 </defs>
 <g id="figure_1">
  <g id="patch_1">
   <path d="M 0 1080 
L 1440 1080 
L 1440 0 
L 0 0 
z
" style="fill: #ffffff"/>
  </g>
  <g id="axes_1">
   <g id="patch_2">
    <path d="M 180 862.507449 
L 1296 862.507449 
L 1296 228.292551 
L 180 228.292551 
z
" style="fill: #ffffff"/>
   </g>
   <g id="matplotlib.axis_1">
    <g id="xtick_1">
     <g id="line2d_1">
      <defs>
       <path id="mc0ba1328fe" d="M 0 0 
L 0 3.5 
" style="stroke: #000000; stroke-width: 0.8"/>
      </defs>
      <g>
       <use xlink:href="#mc0ba1328fe" x="258.781339" y="862.507449" style="stroke: #000000; stroke-width: 0.8"/>
      </g>
     </g>
     <g id="text_1">
      <!-- 500 -->
      <g transform="translate(249.237589 877.105886) scale(0.1 -0.1)">
       <defs>
        <path id="DejaVuSans-35" d="M 691 4666 
L 3169 4666 
L 3169 4134 
L 1269 4134 
L 1269 2991 
Q 1406 3038 1543 3061 
Q 1681 3084 1819 3084 
Q 2600 3084 3056 2656 
Q 3513 2228 3513 1497 
Q 3513 744 3044 326 
Q 2575 -91 1722 -91 
Q 1428 -91 1123 -41 
Q 819 9 494 109 
L 494 744 
Q 775 591 1075 516 
Q 1375 441 1709 441 
Q 2250 441 2565 725 
Q 2881 1009 2881 1497 
Q 2881 1984 2565 2268 
Q 2250 2553 1709 2553 
Q 1456 2553 1204 2497 
Q 953 2441 691 2322 
L 691 4666 
z
" transform="scale(0.015625)"/>
        <path id="DejaVuSans-30" d="M 2034 4250 
Q 1547 4250 1301 3770 
Q 1056 3291 1056 2328 
Q 1056 1369 1301 889 
Q 1547 409 2034 409 
Q 2525 409 2770 889 
Q 3016 1369 3016 2328 
Q 3016 3291 2770 3770 
Q 2525 4250 2034 4250 
z
M 2034 4750 
Q 2819 4750 3233 4129 
Q 3647 3509 3647 2328 
Q 3647 1150 3233 529 
Q 2819 -91 2034 -91 
Q 1250 -91 836 529 
Q 422 1150 422 2328 
Q 422 3509 836 4129 
Q 1250 4750 2034 4750 
z
" transform="scale(0.015625)"/>
       </defs>
       <use xlink:href="#DejaVuSans-35"/>
       <use xlink:href="#DejaVuSans-30" x="63.623047"/>
       <use xlink:href="#DejaVuSans-30" x="127.246094"/>
      </g>
     </g>
    </g>
    <g id="xtick_2">
     <g id="line2d_2">
      <g>
       <use xlink:href="#mc0ba1328fe" x="395.215706" y="862.507449" style="stroke: #000000; stroke-width: 0.8"/>
      </g>
     </g>
     <g id="text_2">
      <!-- 600 -->
      <g transform="translate(385.671956 877.105886) scale(0.1 -0.1)">
       <defs>
        <path id="DejaVuSans-36" d="M 2113 2584 
Q 1688 2584 1439 2293 
Q 1191 2003 1191 1497 
Q 1191 994 1439 701 
Q 1688 409 2113 409 
Q 2538 409 2786 701 
Q 3034 994 3034 1497 
Q 3034 2003 2786 2293 
Q 2538 2584 2113 2584 
z
M 3366 4563 
L 3366 3988 
Q 3128 4100 2886 4159 
Q 2644 4219 2406 4219 
Q 1781 4219 1451 3797 
Q 1122 3375 1075 2522 
Q 1259 2794 1537 2939 
Q 1816 3084 2150 3084 
Q 2853 3084 3261 2657 
Q 3669 2231 3669 1497 
Q 3669 778 3244 343 
Q 2819 -91 2113 -91 
Q 1303 -91 875 529 
Q 447 1150 447 2328 
Q 447 3434 972 4092 
Q 1497 4750 2381 4750 
Q 2619 4750 2861 4703 
Q 3103 4656 3366 4563 
z
" transform="scale(0.015625)"/>
       </defs>
       <use xlink:href="#DejaVuSans-36"/>
       <use xlink:href="#DejaVuSans-30" x="63.623047"/>
       <use xlink:href="#DejaVuSans-30" x="127.246094"/>
      </g>
     </g>
    </g>
    <g id="xtick_3">
     <g id="line2d_3">
      <g>
       <use xlink:href="#mc0ba1328fe" x="531.650072" y="862.507449" style="stroke: #000000; stroke-width: 0.8"/>
      </g>
     </g>
     <g id="text_3">
      <!-- 700 -->
      <g transform="translate(522.106322 877.105886) scale(0.1 -0.1)">
       <defs>
        <path id="DejaVuSans-37" d="M 525 4666 
L 3525 4666 
L 3525 4397 
L 1831 0 
L 1172 0 
L 2766 4134 
L 525 4134 
L 525 4666 
z
" transform="scale(0.015625)"/>
       </defs>
       <use xlink:href="#DejaVuSans-37"/>
       <use xlink:href="#DejaVuSans-30" x="63.623047"/>
       <use xlink:href="#DejaVuSans-30" x="127.246094"/>
      </g>
     </g>
    </g>
    <g id="xtick_4">
     <g id="line2d_4">
      <g>
       <use xlink:href="#mc0ba1328fe" x="668.084438" y="862.507449" style="stroke: #000000; stroke-width: 0.8"/>
      </g>
     </g>
     <g id="text_4">
      <!-- 800 -->
      <g transform="translate(658.540688 877.105886) scale(0.1 -0.1)">
       <defs>
        <path id="DejaVuSans-38" d="M 2034 2216 
Q 1584 2216 1326 1975 
Q 1069 1734 1069 1313 
Q 1069 891 1326 650 
Q 1584 409 2034 409 
Q 2484 409 2743 651 
Q 3003 894 3003 1313 
Q 3003 1734 2745 1975 
Q 2488 2216 2034 2216 
z
M 1403 2484 
Q 997 2584 770 2862 
Q 544 3141 544 3541 
Q 544 4100 942 4425 
Q 1341 4750 2034 4750 
Q 2731 4750 3128 4425 
Q 3525 4100 3525 3541 
Q 3525 3141 3298 2862 
Q 3072 2584 2669 2484 
Q 3125 2378 3379 2068 
Q 3634 1759 3634 1313 
Q 3634 634 3220 271 
Q 2806 -91 2034 -91 
Q 1263 -91 848 271 
Q 434 634 434 1313 
Q 434 1759 690 2068 
Q 947 2378 1403 2484 
z
M 1172 3481 
Q 1172 3119 1398 2916 
Q 1625 2713 2034 2713 
Q 2441 2713 2670 2916 
Q 2900 3119 2900 3481 
Q 2900 3844 2670 4047 
Q 2441 4250 2034 4250 
Q 1625 4250 1398 4047 
Q 1172 3844 1172 3481 
z
" transform="scale(0.015625)"/>
       </defs>
       <use xlink:href="#DejaVuSans-38"/>
       <use xlink:href="#DejaVuSans-30" x="63.623047"/>
       <use xlink:href="#DejaVuSans-30" x="127.246094"/>
      </g>
     </g>
    </g>
    <g id="xtick_5">
     <g id="line2d_5">
      <g>
       <use xlink:href="#mc0ba1328fe" x="804.518805" y="862.507449" style="stroke: #000000; stroke-width: 0.8"/>
      </g>
     </g>
     <g id="text_5">
      <!-- 900 -->
      <g transform="translate(794.975055 877.105886) scale(0.1 -0.1)">
       <defs>
        <path id="DejaVuSans-39" d="M 703 97 
L 703 672 
Q 941 559 1184 500 
Q 1428 441 1663 441 
Q 2288 441 2617 861 
Q 2947 1281 2994 2138 
Q 2813 1869 2534 1725 
Q 2256 1581 1919 1581 
Q 1219 1581 811 2004 
Q 403 2428 403 3163 
Q 403 3881 828 4315 
Q 1253 4750 1959 4750 
Q 2769 4750 3195 4129 
Q 3622 3509 3622 2328 
Q 3622 1225 3098 567 
Q 2575 -91 1691 -91 
Q 1453 -91 1209 -44 
Q 966 3 703 97 
z
M 1959 2075 
Q 2384 2075 2632 2365 
Q 2881 2656 2881 3163 
Q 2881 3666 2632 3958 
Q 2384 4250 1959 4250 
Q 1534 4250 1286 3958 
Q 1038 3666 1038 3163 
Q 1038 2656 1286 2365 
Q 1534 2075 1959 2075 
z
" transform="scale(0.015625)"/>
       </defs>
       <use xlink:href="#DejaVuSans-39"/>
       <use xlink:href="#DejaVuSans-30" x="63.623047"/>
       <use xlink:href="#DejaVuSans-30" x="127.246094"/>
      </g>
     </g>
    </g>
    <g id="xtick_6">
     <g id="line2d_6">
      <g>
       <use xlink:href="#mc0ba1328fe" x="940.953171" y="862.507449" style="stroke: #000000; stroke-width: 0.8"/>
      </g>
     </g>
     <g id="text_6">
      <!-- 1000 -->
      <g transform="translate(928.228171 877.105886) scale(0.1 -0.1)">
       <defs>
        <path id="DejaVuSans-31" d="M 794 531 
L 1825 531 
L 1825 4091 
L 703 3866 
L 703 4441 
L 1819 4666 
L 2450 4666 
L 2450 531 
L 3481 531 
L 3481 0 
L 794 0 
L 794 531 
z
" transform="scale(0.015625)"/>
       </defs>
       <use xlink:href="#DejaVuSans-31"/>
       <use xlink:href="#DejaVuSans-30" x="63.623047"/>
       <use xlink:href="#DejaVuSans-30" x="127.246094"/>
       <use xlink:href="#DejaVuSans-30" x="190.869141"/>
      </g>
     </g>
    </g>
    <g id="xtick_7">
     <g id="line2d_7">
      <g>
       <use xlink:href="#mc0ba1328fe" x="1077.387537" y="862.507449" style="stroke: #000000; stroke-width: 0.8"/>
      </g>
     </g>
     <g id="text_7">
      <!-- 1100 -->
      <g transform="translate(1064.662537 877.105886) scale(0.1 -0.1)">
       <use xlink:href="#DejaVuSans-31"/>
       <use xlink:href="#DejaVuSans-31" x="63.623047"/>
       <use xlink:href="#DejaVuSans-30" x="127.246094"/>
       <use xlink:href="#DejaVuSans-30" x="190.869141"/>
      </g>
     </g>
    </g>
    <g id="xtick_8">
     <g id="line2d_8">
      <g>
       <use xlink:href="#mc0ba1328fe" x="1213.821904" y="862.507449" style="stroke: #000000; stroke-width: 0.8"/>
      </g>
     </g>
     <g id="text_8">
      <!-- 1200 -->
      <g transform="translate(1201.096904 877.105886) scale(0.1 -0.1)">
       <defs>
        <path id="DejaVuSans-32" d="M 1228 531 
L 3431 531 
L 3431 0 
L 469 0 
L 469 531 
Q 828 903 1448 1529 
Q 2069 2156 2228 2338 
Q 2531 2678 2651 2914 
Q 2772 3150 2772 3378 
Q 2772 3750 2511 3984 
Q 2250 4219 1831 4219 
Q 1534 4219 1204 4116 
Q 875 4013 500 3803 
L 500 4441 
Q 881 4594 1212 4672 
Q 1544 4750 1819 4750 
Q 2544 4750 2975 4387 
Q 3406 4025 3406 3419 
Q 3406 3131 3298 2873 
Q 3191 2616 2906 2266 
Q 2828 2175 2409 1742 
Q 1991 1309 1228 531 
z
" transform="scale(0.015625)"/>
       </defs>
       <use xlink:href="#DejaVuSans-31"/>
       <use xlink:href="#DejaVuSans-32" x="63.623047"/>
       <use xlink:href="#DejaVuSans-30" x="127.246094"/>
       <use xlink:href="#DejaVuSans-30" x="190.869141"/>
      </g>
     </g>
    </g>
   </g>
   <g id="matplotlib.axis_2">
    <g id="ytick_1">
     <g id="line2d_9">
      <defs>
       <path id="m5f8e5359a4" d="M 0 0 
L -3.5 0 
" style="stroke: #000000; stroke-width: 0.8"/>
      </defs>
      <g>
       <use xlink:href="#m5f8e5359a4" x="180" y="765.741847" style="stroke: #000000; stroke-width: 0.8"/>
      </g>
     </g>
     <g id="text_9">
      <!-- 800 -->
      <g transform="translate(153.9125 769.541066) scale(0.1 -0.1)">
       <use xlink:href="#DejaVuSans-38"/>
       <use xlink:href="#DejaVuSans-30" x="63.623047"/>
       <use xlink:href="#DejaVuSans-30" x="127.246094"/>
      </g>
     </g>
    </g>
    <g id="ytick_2">
     <g id="line2d_10">
      <g>
       <use xlink:href="#m5f8e5359a4" x="180" y="629.307481" style="stroke: #000000; stroke-width: 0.8"/>
      </g>
     </g>
     <g id="text_10">
      <!-- 900 -->
      <g transform="translate(153.9125 633.1067) scale(0.1 -0.1)">
       <use xlink:href="#DejaVuSans-39"/>
       <use xlink:href="#DejaVuSans-30" x="63.623047"/>
       <use xlink:href="#DejaVuSans-30" x="127.246094"/>
      </g>
     </g>
    </g>
    <g id="ytick_3">
     <g id="line2d_11">
      <g>
       <use xlink:href="#m5f8e5359a4" x="180" y="492.873115" style="stroke: #000000; stroke-width: 0.8"/>
      </g>
     </g>
     <g id="text_11">
      <!-- 1000 -->
      <g transform="translate(147.55 496.672334) scale(0.1 -0.1)">
       <use xlink:href="#DejaVuSans-31"/>
       <use xlink:href="#DejaVuSans-30" x="63.623047"/>
       <use xlink:href="#DejaVuSans-30" x="127.246094"/>
       <use xlink:href="#DejaVuSans-30" x="190.869141"/>
      </g>
     </g>
    </g>
    <g id="ytick_4">
     <g id="line2d_12">
      <g>
       <use xlink:href="#m5f8e5359a4" x="180" y="356.438748" style="stroke: #000000; stroke-width: 0.8"/>
      </g>
     </g>
     <g id="text_12">
      <!-- 1100 -->
      <g transform="translate(147.55 360.237967) scale(0.1 -0.1)">
       <use xlink:href="#DejaVuSans-31"/>
       <use xlink:href="#DejaVuSans-31" x="63.623047"/>
       <use xlink:href="#DejaVuSans-30" x="127.246094"/>
       <use xlink:href="#DejaVuSans-30" x="190.869141"/>
      </g>
     </g>
    </g>
   </g>
   <g id="LineCollection_1">
    <path d="M 270.463282 650.867902 
L 283.881995 639.790575 
L 296.428155 627.865846 
L 308.153885 615.203888 
L 319.121314 601.908974 
L 329.397295 588.079574 
L 339.049572 573.809622 
L 348.14435 559.190118 
L 356.74496 544.310543 
L 364.911239 529.259899 
L 372.699322 514.12735 
L 380.161633 499.002527 
L 387.346914 483.975582 
L 414.232585 426.511322 
L 420.667095 413.261517 
L 427.03815 400.645699 
L 433.36385 388.749507 
L 439.65477 377.655976 
L 445.912532 367.444152 
L 452.12827 358.1868 
L 458.281425 349.946722 
L 464.33971 342.771121 
L 470.261838 336.683745 
L 476.005322 331.675602 
L 481.541602 327.697248 
L 486.878318 324.658754 
L 492.082493 322.444658 
L 497.291203 320.945921 
L 502.69641 320.098293 
L 508.50447 319.906384 
L 514.88941 320.439018 
L 521.963301 321.801077 
L 529.772566 324.100346 
L 538.312538 327.424377 
L 547.547375 331.831093 
L 557.426764 337.349173 
L 567.896754 343.982919 
L 578.905467 351.717952 
L 590.405424 360.526119 
L 602.353991 370.369162 
L 614.712943 381.201281 
L 627.447699 392.970856 
L 640.52653 405.621596 
L 653.919848 419.093302 
L 667.59962 433.322409 
L 681.538912 448.242376 
L 695.711546 463.783996 
L 710.091852 479.875668 
L 724.654502 496.443637 
L 739.374405 513.412233 
L 769.186527 548.240466 
L 829.659411 619.268316 
L 844.814182 636.832089 
L 859.937629 654.152913 
L 875.009574 671.149625 
L 890.011413 687.741864 
L 904.92658 703.85039 
L 919.74115 719.397381 
L 934.444631 734.3067 
L 949.031026 748.504087 
L 963.500241 761.917185 
L 977.859985 774.475249 
L 992.128257 786.108241 
L 1006.336481 796.744789 
L 1020.533084 806.308104 
L 1034.786547 814.708423 
L 1046.735972 820.725604 
L 1049.185238 821.830157 
L 1060.761691 826.465202 
L 1063.827878 827.512665 
L 1075.01557 830.699917 
L 1078.793831 831.528421 
L 1089.578043 833.204586 
L 1094.082109 833.575303 
L 1106.995997 833.601647 
L 1109.528055 833.317431 
L 1119.465596 831.79123 
L 1122.139708 831.260729 
L 1124.757682 830.500128 
L 1134.254313 827.28757 
L 1136.809453 826.29688 
L 1139.268412 825.087035 
L 1150.529297 818.800239 
L 1152.627228 817.287965 
L 1162.977884 809.049803 
L 1164.628158 807.428997 
L 1172.745724 798.846094 
L 1175.291649 795.786909 
L 1182.934641 785.318072 
L 1184.761987 782.51211 
L 1191.924885 770.113205 
L 1193.210456 767.640493 
L 1200.78586 751.136888 
L 1207.601402 732.932726 
L 1213.738048 712.94895 
L 1219.25231 691.107344 
L 1224.183552 667.335094 
L 1228.559581 641.565925 
L 1232.400555 613.739723 
L 1235.721611 583.801568 
L 1238.534596 551.700598 
L 1240.849174 517.388887 
L 1242.673535 480.820392 
L 1244.014815 441.949971 
L 1244.879339 400.732473 
L 1245.272727 357.121869 
L 1245.20177 311.366744 
L 1245.20177 311.366744 
" clip-path="url(#pdfdf7ba653)" style="fill: none; stroke: #1f77b4; stroke-width: 1.5"/>
    <path d="M 250.595277 626.578794 
L 262.34934 616.964206 
L 273.469475 606.474319 
L 283.99536 595.177304 
L 293.967893 583.14721 
L 303.428918 570.463054 
L 312.420961 557.207952 
L 320.986981 543.468296 
L 329.170137 529.332976 
L 337.013564 514.89264 
L 344.560166 500.238999 
L 351.852421 485.464177 
L 358.932199 470.660088 
L 365.84059 455.917865 
L 372.617749 441.327323 
L 379.302746 426.976453 
L 385.933433 412.950963 
L 392.546321 399.333844 
L 399.176469 386.204978 
L 405.857377 373.640776 
L 412.620899 361.713851 
L 419.49716 350.492718 
L 426.514486 340.041529 
L 433.699339 330.419839 
L 441.076268 321.682399 
L 448.667861 313.878975 
L 456.494712 307.054199 
L 464.575398 301.247441 
L 472.926453 296.492716 
L 481.562363 292.818601 
L 490.495562 290.248191 
L 499.736432 288.799067 
L 509.29332 288.48329 
L 519.172553 289.307418 
L 529.378462 291.27254 
L 539.913412 294.374327 
L 550.777839 298.603111 
L 561.970294 303.94397 
L 573.487485 310.376836 
L 585.324334 317.876619 
L 597.474032 326.413341 
L 609.9281 335.95229 
L 622.676452 346.454183 
L 635.707472 357.875342 
L 649.008078 370.167882 
L 662.563804 383.279906 
L 676.358876 397.155718 
L 690.376296 411.736032 
L 704.597926 426.9582 
L 719.004574 442.756438 
L 733.576084 459.062068 
L 748.291423 475.803753 
L 763.128777 492.907743 
L 778.065639 510.298126 
L 793.078904 527.897075 
L 808.144965 545.625103 
L 823.239803 563.401312 
L 838.339082 581.143645 
L 853.418246 598.769142 
L 868.452606 616.194179 
L 883.417435 633.334722 
L 898.28806 650.106562 
L 913.039947 666.425555 
L 927.648793 682.207852 
L 942.090607 697.370121 
L 956.341796 711.829765 
L 970.379243 725.50513 
L 984.180386 738.315703 
L 997.723292 750.182299 
L 1010.986724 761.027241 
L 1023.950216 770.774523 
L 1036.594125 779.349963 
L 1048.899698 786.681341 
L 1060.849123 792.698522 
L 1072.425576 797.333566 
L 1083.613268 800.520819 
L 1094.397481 802.196983 
L 1104.7646 802.301179 
L 1114.702142 800.774978 
L 1124.198773 797.562421 
L 1133.244324 792.61001 
L 1141.829797 785.866688 
L 1149.947364 777.283785 
L 1157.590356 766.814949 
L 1164.753254 754.416043 
L 1171.43166 740.04503 
L 1177.622265 723.661818 
L 1183.322811 705.228085 
L 1188.53204 684.707078 
L 1193.249633 662.063375 
L 1197.476146 637.262623 
L 1201.212929 610.271245 
L 1204.462039 581.056114 
L 1207.226143 549.584194 
L 1209.508406 515.822147 
L 1211.312376 479.735908 
L 1212.641847 441.290223 
L 1213.500723 400.448152 
L 1213.892861 357.170533 
L 1213.821904 311.415408 
" clip-path="url(#pdfdf7ba653)" style="fill: none; stroke: #8c564b; stroke-width: 1.5"/>
    <path d="M 230.727273 602.289686 
L 241.62317 593.377059 
L 251.200671 584.342376 
L 260.416987 574.450869 
L 269.295699 563.740277 
L 277.85519 552.264784 
L 286.112676 540.092488 
L 294.086794 527.302226 
L 301.798981 513.980443 
L 309.273958 500.218451 
L 316.539704 486.110163 
L 323.627152 471.7503 
L 330.569798 457.232959 
L 357.706024 399.242871 
L 364.535587 385.188273 
L 371.470027 371.472311 
L 378.561006 358.161547 
L 385.86507 345.317997 
L 393.445015 333.000316 
L 401.371215 321.266165 
L 409.722322 310.176296 
L 418.58414 299.800842 
L 428.044673 290.227706 
L 435.871525 283.402929 
L 438.182838 281.571388 
L 446.263524 275.76463 
L 449.049226 273.977745 
L 457.400281 269.223019 
L 460.641586 267.617459 
L 469.277497 263.943345 
L 472.885267 262.662236 
L 481.818465 260.091826 
L 485.634076 259.247153 
L 494.874946 257.798029 
L 498.700149 257.436278 
L 508.257037 257.120501 
L 511.901979 257.212005 
L 521.781212 258.036133 
L 525.10569 258.493521 
L 535.311598 260.458642 
L 538.241421 261.170275 
L 548.776371 264.272062 
L 551.295659 265.131502 
L 564.292043 270.282365 
L 577.27226 276.547835 
L 590.28234 283.869645 
L 603.364791 292.200943 
L 616.555002 301.501196 
L 629.880211 311.732223 
L 643.359762 322.855473 
L 657.005919 334.830287 
L 670.82482 347.612878 
L 684.817397 361.155802 
L 698.980186 375.407736 
L 713.306012 390.313462 
L 727.784556 405.813967 
L 742.402819 421.84662 
L 757.145507 438.345392 
L 771.995341 455.2411 
L 786.933319 472.461663 
L 816.990326 507.576093 
L 877.219956 578.31966 
L 892.151438 595.625461 
L 906.976895 612.606368 
L 921.667746 629.175451 
L 936.194263 645.245133 
L 950.525329 660.727337 
L 964.628084 675.533632 
L 978.467391 689.57537 
L 992.005084 702.763871 
L 1005.198886 715.010694 
L 1018.000914 726.228117 
L 1030.355631 736.33004 
L 1042.197158 745.233715 
L 1053.446003 752.862984 
L 1064.005728 759.154226 
L 1073.761306 764.066687 
L 1082.583444 767.598943 
L 1090.347416 769.810815 
L 1096.978268 770.841433 
L 1102.525823 770.897189 
L 1107.236401 770.173742 
L 1111.539819 768.717964 
L 1115.90045 766.330533 
L 1120.6241 762.620418 
L 1125.778844 757.17018 
L 1131.257436 749.665988 
L 1136.883882 739.926665 
L 1142.486625 727.870331 
L 1147.927654 713.470844 
L 1153.105733 696.726602 
L 1157.950023 677.643218 
L 1162.412209 656.225427 
L 1166.459907 632.473944 
L 1170.071801 606.384656 
L 1173.234254 577.948732 
L 1175.938968 547.153019 
L 1178.181385 513.980432 
L 1179.959558 478.410216 
L 1181.273346 440.418066 
L 1182.123808 399.9761 
L 1182.512736 357.052701 
L 1182.442037 311.464072 
L 1182.442037 311.464072 
" clip-path="url(#pdfdf7ba653)" style="fill: none; stroke: #17becf; stroke-width: 1.5"/>
   </g>
   <g id="patch_3">
    <path d="M 180 862.507449 
L 180 228.292551 
" style="fill: none; stroke: #000000; stroke-width: 0.8; stroke-linejoin: miter; stroke-linecap: square"/>
   </g>
   <g id="patch_4">
    <path d="M 1296 862.507449 
L 1296 228.292551 
" style="fill: none; stroke: #000000; stroke-width: 0.8; stroke-linejoin: miter; stroke-linecap: square"/>
   </g>
   <g id="patch_5">
    <path d="M 180 862.507449 
L 1296 862.507449 
" style="fill: none; stroke: #000000; stroke-width: 0.8; stroke-linejoin: miter; stroke-linecap: square"/>
   </g>
   <g id="patch_6">
    <path d="M 180 228.292551 
L 1296 228.292551 
" style="fill: none; stroke: #000000; stroke-width: 0.8; stroke-linejoin: miter; stroke-linecap: square"/>
   </g>
  </g>
 </g>
 <defs>
  <clipPath id="pdfdf7ba653">
   <rect x="180" y="228.292551" width="1116" height="634.214897"/>
  </clipPath>
 </defs>
</svg>
