<?xml version="1.0" encoding="utf-8" standalone="no"?>
<!DOCTYPE svg PUBLIC "-//W3C//DTD SVG 1.1//EN"
  "http://www.w3.org/Graphics/SVG/1.1/DTD/svg11.dtd">
<svg xmlns:xlink="http://www.w3.org/1999/xlink" width="1440pt" height="1080pt" viewBox="0 0 1440 1080" xmlns="http://www.w3.org/2000/svg" version="1.1">
 <metadata>
  <rdf:RDF xmlns:dc="http://purl.org/dc/elements/1.1/" xmlns:cc="http://creativecommons.org/ns#" xmlns:rdf="http://www.w3.org/1999/02/22-rdf-syntax-ns#">
   <cc:Work>
    <dc:type rdf:resource="http://purl.org/dc/dcmitype/StillImage"/>
    <dc:date>2023-12-11T12:06:46.251847</dc:date>
    <dc:format>image/svg+xml</dc:format>
    <dc:creator>
     <cc:Agent>
      <dc:title>Matplotlib v3.7.1, https://matplotlib.org/</dc:title>
     </cc:Agent>
    </dc:creator>
   </cc:Work>
  </rdf:RDF>
 </metadata>
 <defs>
  <style type="text/css">*{stroke-linejoin: round; stroke-linecap: butt}</style>
 </defs>
 <g id="figure_1">
  <g id="patch_1">
   <path d="M 0 1080 
L 1440 1080 
L 1440 0 
L 0 0 
z
" style="fill: #ffffff"/>
  </g>
  <g id="axes_1">
   <g id="patch_2">
    <path d="M 180 698.192349 
L 1296 698.192349 
L 1296 392.607651 
L 180 392.607651 
z
" style="fill: #ffffff"/>
   </g>
   <g id="matplotlib.axis_1">
    <g id="xtick_1">
     <g id="line2d_1">
      <defs>
       <path id="m6f733c11be" d="M 0 0 
L 0 3.5 
" style="stroke: #000000; stroke-width: 0.8"/>
      </defs>
      <g>
       <use xlink:href="#m6f733c11be" x="328.200241" y="698.192349" style="stroke: #000000; stroke-width: 0.8"/>
      </g>
     </g>
     <g id="text_1">
      <!-- 400 -->
      <g transform="translate(318.656491 712.790787) scale(0.1 -0.1)">
       <defs>
        <path id="DejaVuSans-34" d="M 2419 4116 
L 825 1625 
L 2419 1625 
L 2419 4116 
z
M 2253 4666 
L 3047 4666 
L 3047 1625 
L 3713 1625 
L 3713 1100 
L 3047 1100 
L 3047 0 
L 2419 0 
L 2419 1100 
L 313 1100 
L 313 1709 
L 2253 4666 
z
" transform="scale(0.015625)"/>
        <path id="DejaVuSans-30" d="M 2034 4250 
Q 1547 4250 1301 3770 
Q 1056 3291 1056 2328 
Q 1056 1369 1301 889 
Q 1547 409 2034 409 
Q 2525 409 2770 889 
Q 3016 1369 3016 2328 
Q 3016 3291 2770 3770 
Q 2525 4250 2034 4250 
z
M 2034 4750 
Q 2819 4750 3233 4129 
Q 3647 3509 3647 2328 
Q 3647 1150 3233 529 
Q 2819 -91 2034 -91 
Q 1250 -91 836 529 
Q 422 1150 422 2328 
Q 422 3509 836 4129 
Q 1250 4750 2034 4750 
z
" transform="scale(0.015625)"/>
       </defs>
       <use xlink:href="#DejaVuSans-34"/>
       <use xlink:href="#DejaVuSans-30" x="63.623047"/>
       <use xlink:href="#DejaVuSans-30" x="127.246094"/>
      </g>
     </g>
    </g>
    <g id="xtick_2">
     <g id="line2d_2">
      <g>
       <use xlink:href="#m6f733c11be" x="490.822992" y="698.192349" style="stroke: #000000; stroke-width: 0.8"/>
      </g>
     </g>
     <g id="text_2">
      <!-- 600 -->
      <g transform="translate(481.279242 712.790787) scale(0.1 -0.1)">
       <defs>
        <path id="DejaVuSans-36" d="M 2113 2584 
Q 1688 2584 1439 2293 
Q 1191 2003 1191 1497 
Q 1191 994 1439 701 
Q 1688 409 2113 409 
Q 2538 409 2786 701 
Q 3034 994 3034 1497 
Q 3034 2003 2786 2293 
Q 2538 2584 2113 2584 
z
M 3366 4563 
L 3366 3988 
Q 3128 4100 2886 4159 
Q 2644 4219 2406 4219 
Q 1781 4219 1451 3797 
Q 1122 3375 1075 2522 
Q 1259 2794 1537 2939 
Q 1816 3084 2150 3084 
Q 2853 3084 3261 2657 
Q 3669 2231 3669 1497 
Q 3669 778 3244 343 
Q 2819 -91 2113 -91 
Q 1303 -91 875 529 
Q 447 1150 447 2328 
Q 447 3434 972 4092 
Q 1497 4750 2381 4750 
Q 2619 4750 2861 4703 
Q 3103 4656 3366 4563 
z
" transform="scale(0.015625)"/>
       </defs>
       <use xlink:href="#DejaVuSans-36"/>
       <use xlink:href="#DejaVuSans-30" x="63.623047"/>
       <use xlink:href="#DejaVuSans-30" x="127.246094"/>
      </g>
     </g>
    </g>
    <g id="xtick_3">
     <g id="line2d_3">
      <g>
       <use xlink:href="#m6f733c11be" x="653.445743" y="698.192349" style="stroke: #000000; stroke-width: 0.8"/>
      </g>
     </g>
     <g id="text_3">
      <!-- 800 -->
      <g transform="translate(643.901993 712.790787) scale(0.1 -0.1)">
       <defs>
        <path id="DejaVuSans-38" d="M 2034 2216 
Q 1584 2216 1326 1975 
Q 1069 1734 1069 1313 
Q 1069 891 1326 650 
Q 1584 409 2034 409 
Q 2484 409 2743 651 
Q 3003 894 3003 1313 
Q 3003 1734 2745 1975 
Q 2488 2216 2034 2216 
z
M 1403 2484 
Q 997 2584 770 2862 
Q 544 3141 544 3541 
Q 544 4100 942 4425 
Q 1341 4750 2034 4750 
Q 2731 4750 3128 4425 
Q 3525 4100 3525 3541 
Q 3525 3141 3298 2862 
Q 3072 2584 2669 2484 
Q 3125 2378 3379 2068 
Q 3634 1759 3634 1313 
Q 3634 634 3220 271 
Q 2806 -91 2034 -91 
Q 1263 -91 848 271 
Q 434 634 434 1313 
Q 434 1759 690 2068 
Q 947 2378 1403 2484 
z
M 1172 3481 
Q 1172 3119 1398 2916 
Q 1625 2713 2034 2713 
Q 2441 2713 2670 2916 
Q 2900 3119 2900 3481 
Q 2900 3844 2670 4047 
Q 2441 4250 2034 4250 
Q 1625 4250 1398 4047 
Q 1172 3844 1172 3481 
z
" transform="scale(0.015625)"/>
       </defs>
       <use xlink:href="#DejaVuSans-38"/>
       <use xlink:href="#DejaVuSans-30" x="63.623047"/>
       <use xlink:href="#DejaVuSans-30" x="127.246094"/>
      </g>
     </g>
    </g>
    <g id="xtick_4">
     <g id="line2d_4">
      <g>
       <use xlink:href="#m6f733c11be" x="816.068494" y="698.192349" style="stroke: #000000; stroke-width: 0.8"/>
      </g>
     </g>
     <g id="text_4">
      <!-- 1000 -->
      <g transform="translate(803.343494 712.790787) scale(0.1 -0.1)">
       <defs>
        <path id="DejaVuSans-31" d="M 794 531 
L 1825 531 
L 1825 4091 
L 703 3866 
L 703 4441 
L 1819 4666 
L 2450 4666 
L 2450 531 
L 3481 531 
L 3481 0 
L 794 0 
L 794 531 
z
" transform="scale(0.015625)"/>
       </defs>
       <use xlink:href="#DejaVuSans-31"/>
       <use xlink:href="#DejaVuSans-30" x="63.623047"/>
       <use xlink:href="#DejaVuSans-30" x="127.246094"/>
       <use xlink:href="#DejaVuSans-30" x="190.869141"/>
      </g>
     </g>
    </g>
    <g id="xtick_5">
     <g id="line2d_5">
      <g>
       <use xlink:href="#m6f733c11be" x="978.691245" y="698.192349" style="stroke: #000000; stroke-width: 0.8"/>
      </g>
     </g>
     <g id="text_5">
      <!-- 1200 -->
      <g transform="translate(965.966245 712.790787) scale(0.1 -0.1)">
       <defs>
        <path id="DejaVuSans-32" d="M 1228 531 
L 3431 531 
L 3431 0 
L 469 0 
L 469 531 
Q 828 903 1448 1529 
Q 2069 2156 2228 2338 
Q 2531 2678 2651 2914 
Q 2772 3150 2772 3378 
Q 2772 3750 2511 3984 
Q 2250 4219 1831 4219 
Q 1534 4219 1204 4116 
Q 875 4013 500 3803 
L 500 4441 
Q 881 4594 1212 4672 
Q 1544 4750 1819 4750 
Q 2544 4750 2975 4387 
Q 3406 4025 3406 3419 
Q 3406 3131 3298 2873 
Q 3191 2616 2906 2266 
Q 2828 2175 2409 1742 
Q 1991 1309 1228 531 
z
" transform="scale(0.015625)"/>
       </defs>
       <use xlink:href="#DejaVuSans-31"/>
       <use xlink:href="#DejaVuSans-32" x="63.623047"/>
       <use xlink:href="#DejaVuSans-30" x="127.246094"/>
       <use xlink:href="#DejaVuSans-30" x="190.869141"/>
      </g>
     </g>
    </g>
    <g id="xtick_6">
     <g id="line2d_6">
      <g>
       <use xlink:href="#m6f733c11be" x="1141.313996" y="698.192349" style="stroke: #000000; stroke-width: 0.8"/>
      </g>
     </g>
     <g id="text_6">
      <!-- 1400 -->
      <g transform="translate(1128.588996 712.790787) scale(0.1 -0.1)">
       <use xlink:href="#DejaVuSans-31"/>
       <use xlink:href="#DejaVuSans-34" x="63.623047"/>
       <use xlink:href="#DejaVuSans-30" x="127.246094"/>
       <use xlink:href="#DejaVuSans-30" x="190.869141"/>
      </g>
     </g>
    </g>
   </g>
   <g id="matplotlib.axis_2">
    <g id="ytick_1">
     <g id="line2d_7">
      <defs>
       <path id="me9fbe2fb31" d="M 0 0 
L -3.5 0 
" style="stroke: #000000; stroke-width: 0.8"/>
      </defs>
      <g>
       <use xlink:href="#me9fbe2fb31" x="180" y="691.880627" style="stroke: #000000; stroke-width: 0.8"/>
      </g>
     </g>
     <g id="text_7">
      <!-- 1200 -->
      <g transform="translate(147.55 695.679846) scale(0.1 -0.1)">
       <use xlink:href="#DejaVuSans-31"/>
       <use xlink:href="#DejaVuSans-32" x="63.623047"/>
       <use xlink:href="#DejaVuSans-30" x="127.246094"/>
       <use xlink:href="#DejaVuSans-30" x="190.869141"/>
      </g>
     </g>
    </g>
    <g id="ytick_2">
     <g id="line2d_8">
      <g>
       <use xlink:href="#me9fbe2fb31" x="180" y="651.22494" style="stroke: #000000; stroke-width: 0.8"/>
      </g>
     </g>
     <g id="text_8">
      <!-- 1250 -->
      <g transform="translate(147.55 655.024159) scale(0.1 -0.1)">
       <defs>
        <path id="DejaVuSans-35" d="M 691 4666 
L 3169 4666 
L 3169 4134 
L 1269 4134 
L 1269 2991 
Q 1406 3038 1543 3061 
Q 1681 3084 1819 3084 
Q 2600 3084 3056 2656 
Q 3513 2228 3513 1497 
Q 3513 744 3044 326 
Q 2575 -91 1722 -91 
Q 1428 -91 1123 -41 
Q 819 9 494 109 
L 494 744 
Q 775 591 1075 516 
Q 1375 441 1709 441 
Q 2250 441 2565 725 
Q 2881 1009 2881 1497 
Q 2881 1984 2565 2268 
Q 2250 2553 1709 2553 
Q 1456 2553 1204 2497 
Q 953 2441 691 2322 
L 691 4666 
z
" transform="scale(0.015625)"/>
       </defs>
       <use xlink:href="#DejaVuSans-31"/>
       <use xlink:href="#DejaVuSans-32" x="63.623047"/>
       <use xlink:href="#DejaVuSans-35" x="127.246094"/>
       <use xlink:href="#DejaVuSans-30" x="190.869141"/>
      </g>
     </g>
    </g>
    <g id="ytick_3">
     <g id="line2d_9">
      <g>
       <use xlink:href="#me9fbe2fb31" x="180" y="610.569252" style="stroke: #000000; stroke-width: 0.8"/>
      </g>
     </g>
     <g id="text_9">
      <!-- 1300 -->
      <g transform="translate(147.55 614.368471) scale(0.1 -0.1)">
       <defs>
        <path id="DejaVuSans-33" d="M 2597 2516 
Q 3050 2419 3304 2112 
Q 3559 1806 3559 1356 
Q 3559 666 3084 287 
Q 2609 -91 1734 -91 
Q 1441 -91 1130 -33 
Q 819 25 488 141 
L 488 750 
Q 750 597 1062 519 
Q 1375 441 1716 441 
Q 2309 441 2620 675 
Q 2931 909 2931 1356 
Q 2931 1769 2642 2001 
Q 2353 2234 1838 2234 
L 1294 2234 
L 1294 2753 
L 1863 2753 
Q 2328 2753 2575 2939 
Q 2822 3125 2822 3475 
Q 2822 3834 2567 4026 
Q 2313 4219 1838 4219 
Q 1578 4219 1281 4162 
Q 984 4106 628 3988 
L 628 4550 
Q 988 4650 1302 4700 
Q 1616 4750 1894 4750 
Q 2613 4750 3031 4423 
Q 3450 4097 3450 3541 
Q 3450 3153 3228 2886 
Q 3006 2619 2597 2516 
z
" transform="scale(0.015625)"/>
       </defs>
       <use xlink:href="#DejaVuSans-31"/>
       <use xlink:href="#DejaVuSans-33" x="63.623047"/>
       <use xlink:href="#DejaVuSans-30" x="127.246094"/>
       <use xlink:href="#DejaVuSans-30" x="190.869141"/>
      </g>
     </g>
    </g>
    <g id="ytick_4">
     <g id="line2d_10">
      <g>
       <use xlink:href="#me9fbe2fb31" x="180" y="569.913564" style="stroke: #000000; stroke-width: 0.8"/>
      </g>
     </g>
     <g id="text_10">
      <!-- 1350 -->
      <g transform="translate(147.55 573.712783) scale(0.1 -0.1)">
       <use xlink:href="#DejaVuSans-31"/>
       <use xlink:href="#DejaVuSans-33" x="63.623047"/>
       <use xlink:href="#DejaVuSans-35" x="127.246094"/>
       <use xlink:href="#DejaVuSans-30" x="190.869141"/>
      </g>
     </g>
    </g>
    <g id="ytick_5">
     <g id="line2d_11">
      <g>
       <use xlink:href="#me9fbe2fb31" x="180" y="529.257877" style="stroke: #000000; stroke-width: 0.8"/>
      </g>
     </g>
     <g id="text_11">
      <!-- 1400 -->
      <g transform="translate(147.55 533.057095) scale(0.1 -0.1)">
       <use xlink:href="#DejaVuSans-31"/>
       <use xlink:href="#DejaVuSans-34" x="63.623047"/>
       <use xlink:href="#DejaVuSans-30" x="127.246094"/>
       <use xlink:href="#DejaVuSans-30" x="190.869141"/>
      </g>
     </g>
    </g>
    <g id="ytick_6">
     <g id="line2d_12">
      <g>
       <use xlink:href="#me9fbe2fb31" x="180" y="488.602189" style="stroke: #000000; stroke-width: 0.8"/>
      </g>
     </g>
     <g id="text_12">
      <!-- 1450 -->
      <g transform="translate(147.55 492.401408) scale(0.1 -0.1)">
       <use xlink:href="#DejaVuSans-31"/>
       <use xlink:href="#DejaVuSans-34" x="63.623047"/>
       <use xlink:href="#DejaVuSans-35" x="127.246094"/>
       <use xlink:href="#DejaVuSans-30" x="190.869141"/>
      </g>
     </g>
    </g>
    <g id="ytick_7">
     <g id="line2d_13">
      <g>
       <use xlink:href="#me9fbe2fb31" x="180" y="447.946501" style="stroke: #000000; stroke-width: 0.8"/>
      </g>
     </g>
     <g id="text_13">
      <!-- 1500 -->
      <g transform="translate(147.55 451.74572) scale(0.1 -0.1)">
       <use xlink:href="#DejaVuSans-31"/>
       <use xlink:href="#DejaVuSans-35" x="63.623047"/>
       <use xlink:href="#DejaVuSans-30" x="127.246094"/>
       <use xlink:href="#DejaVuSans-30" x="190.869141"/>
      </g>
     </g>
    </g>
    <g id="ytick_8">
     <g id="line2d_14">
      <g>
       <use xlink:href="#me9fbe2fb31" x="180" y="407.290813" style="stroke: #000000; stroke-width: 0.8"/>
      </g>
     </g>
     <g id="text_14">
      <!-- 1550 -->
      <g transform="translate(147.55 411.090032) scale(0.1 -0.1)">
       <use xlink:href="#DejaVuSans-31"/>
       <use xlink:href="#DejaVuSans-35" x="63.623047"/>
       <use xlink:href="#DejaVuSans-35" x="127.246094"/>
       <use xlink:href="#DejaVuSans-30" x="190.869141"/>
      </g>
     </g>
    </g>
   </g>
   <g id="LineCollection_1">
    <path d="M 254.919321 532.619345 
L 270.382263 509.920716 
L 284.861449 491.407257 
L 298.613213 476.315754 
L 311.658671 464.249061 
L 324.026513 454.826882 
L 335.762421 447.686224 
L 346.93648 442.488375 
L 357.643226 438.931116 
L 367.99133 436.760156 
L 378.086369 435.772515 
L 388.015033 435.809443 
L 397.837528 436.743105 
L 407.588887 438.463674 
L 417.285393 440.870787 
L 426.931893 443.869695 
L 436.5276 447.370466 
L 446.069818 451.288558 
L 455.555954 455.545648 
L 464.984393 460.070257 
L 474.354736 464.798015 
L 492.924971 474.640613 
L 547.502163 504.400162 
L 565.383413 513.682785 
L 574.277229 518.132042 
L 583.14346 522.441606 
L 591.984577 526.605316 
L 600.802864 530.618744 
L 609.600423 534.478964 
L 618.379184 538.184346 
L 627.140912 541.734385 
L 635.887216 545.129553 
L 644.619554 548.371178 
L 653.339235 551.461351 
L 662.047429 554.402846 
L 670.745161 557.199073 
L 679.433324 559.854034 
L 688.112671 562.37231 
L 696.78383 564.759049 
L 705.447299 567.01997 
L 722.752579 571.190196 
L 740.030306 574.940847 
L 757.280941 578.340232 
L 774.504212 581.467784 
L 800.287739 585.85138 
L 826.047747 590.189416 
L 843.204518 593.250711 
L 860.360374 596.59425 
L 868.944376 598.412079 
L 877.53713 600.348526 
L 886.143089 602.419088 
L 894.76751 604.638665 
L 903.416499 607.021318 
L 912.097031 609.579985 
L 920.816955 612.326155 
L 929.584984 615.269483 
L 938.410679 618.417343 
L 947.304434 621.774305 
L 956.277469 625.34154 
L 965.341872 629.116138 
L 974.510662 633.090357 
L 993.219076 641.577423 
L 1032.713084 659.899691 
L 1043.157354 664.468818 
L 1053.888263 668.879457 
L 1064.945408 673.025743 
L 1076.373002 676.779274 
L 1088.21771 679.984478 
L 1100.523533 682.453839 
L 1113.32269 683.964926 
L 1126.623196 684.262714 
L 1140.398045 683.070688 
L 1152.806498 680.584181 
L 1154.585365 680.10962 
L 1167.384769 675.816226 
L 1169.10678 675.113981 
L 1183.898566 667.832099 
L 1198.937727 658.006413 
L 1214.248975 645.345809 
L 1229.89447 629.505143 
L 1245.272727 610.970669 
L 1245.272727 610.970669 
" clip-path="url(#p0aa638156f)" style="fill: none; stroke: #1f77b4; stroke-width: 1.5"/>
    <path d="M 242.823297 524.379194 
L 258.55706 501.283018 
L 273.672033 481.956625 
L 288.215966 465.995778 
L 302.23331 453.030115 
L 315.765413 442.72097 
L 328.850696 434.75929 
L 341.524832 428.863648 
L 353.820909 424.778343 
L 365.769592 422.271592 
L 377.399276 421.133811 
L 388.736227 421.175976 
L 399.804726 422.228076 
L 410.627197 424.137636 
L 421.224334 426.768326 
L 431.615218 429.998648 
L 441.817433 433.72069 
L 451.847171 437.83896 
L 461.719333 442.269288 
L 471.447626 446.937794 
L 481.044652 451.779923 
L 490.521992 456.73955 
L 499.890288 461.768136 
L 509.159316 466.823952 
L 518.338058 471.871359 
L 527.434765 476.88014 
L 536.45702 481.824893 
L 545.411795 486.684464 
L 554.305504 491.441441 
L 563.144049 496.081685 
L 571.932871 500.593916 
L 580.676986 504.96933 
L 589.381029 509.201266 
L 598.049285 513.284911 
L 606.685721 517.217032 
L 615.294021 520.995759 
L 623.877607 524.620378 
L 632.439665 528.091178 
L 640.98317 531.409307 
L 649.510901 534.576664 
L 658.025462 537.595812 
L 666.529301 540.46991 
L 675.024717 543.20267 
L 683.513879 545.798325 
L 691.998838 548.261619 
L 700.481534 550.597803 
L 708.96381 552.812647 
L 717.447418 554.912458 
L 725.93403 556.904109 
L 734.425244 558.795067 
L 742.922596 560.593424 
L 751.427562 562.307936 
L 759.94157 563.948049 
L 768.466009 565.52393 
L 777.002237 567.046489 
L 785.551588 568.527388 
L 794.115386 569.979051 
L 802.694954 571.414649 
L 811.29163 572.848079 
L 819.906776 574.293925 
L 828.541797 575.767395 
L 837.198157 577.284247 
L 845.877396 578.86068 
L 854.581157 580.513209 
L 863.311203 582.258511 
L 872.069446 584.113239 
L 880.857972 586.093804 
L 889.679079 588.21613 
L 898.535301 590.495364 
L 907.429454 592.945555 
L 916.364672 595.579293 
L 925.34445 598.407299 
L 934.372694 601.437978 
L 943.453769 604.676924 
L 952.592557 608.126375 
L 961.794515 611.784618 
L 971.065738 615.64534 
L 980.413028 619.69693 
L 989.843967 623.921715 
L 999.366991 628.295144 
L 1008.991477 632.784909 
L 1018.72783 637.349999 
L 1028.587572 641.939698 
L 1038.583446 646.492501 
L 1048.729516 650.934975 
L 1059.041279 655.18054 
L 1069.535782 659.128177 
L 1080.231743 662.661059 
L 1091.14968 665.645111 
L 1102.312046 667.927479 
L 1113.743373 669.334926 
L 1125.470419 669.672135 
L 1137.522325 668.719935 
L 1149.930777 666.233428 
L 1162.730181 661.940035 
L 1175.957836 655.537438 
L 1189.654123 646.691441 
L 1203.862702 635.033718 
L 1218.630707 620.159475 
L 1234.008964 601.625001 
" clip-path="url(#p0aa638156f)" style="fill: none; stroke: #8c564b; stroke-width: 1.5"/>
    <path d="M 230.727273 516.139043 
L 247.028196 492.266411 
L 262.853737 472.098716 
L 278.277632 455.251318 
L 293.363793 441.387712 
L 308.157729 430.217489 
L 322.677627 421.488755 
L 336.910119 414.974145 
L 350.815788 410.454128 
L 364.344489 407.70509 
L 377.453712 406.497864 
L 390.121193 406.605603 
L 402.347885 407.814671 
L 414.153498 409.932739 
L 425.569274 412.792083 
L 436.63144 416.249051 
L 447.376688 420.181541 
L 457.839624 424.485893 
L 468.05162 429.073985 
L 478.040533 433.870756 
L 487.83084 438.812212 
L 497.443986 443.843819 
L 516.211735 453.999082 
L 552.353838 473.799438 
L 569.888212 483.091896 
L 587.151804 491.843112 
L 595.699931 495.999241 
L 604.200684 500.003975 
L 612.65978 503.855355 
L 621.082536 507.552634 
L 629.473909 511.096087 
L 637.838544 514.486858 
L 646.180809 517.726829 
L 654.504827 520.818524 
L 662.814513 523.765025 
L 671.113598 526.569922 
L 679.40566 529.237268 
L 687.694145 531.771564 
L 695.982388 534.177749 
L 704.273637 536.461207 
L 720.877779 540.683812 
L 737.531262 544.492182 
L 754.258031 547.94805 
L 771.081344 551.123374 
L 788.023651 554.101596 
L 848.60748 564.48151 
L 866.343424 567.940008 
L 875.287102 569.835264 
L 884.281653 571.863825 
L 893.326937 574.041962 
L 902.422485 576.384953 
L 911.567543 578.906677 
L 920.76114 581.619173 
L 930.002177 584.53216 
L 939.289547 587.652535 
L 948.622248 590.983835 
L 957.999516 594.525688 
L 967.420924 598.273237 
L 976.886467 602.216528 
L 986.396597 606.33988 
L 1005.554481 615.031327 
L 1044.552261 633.128419 
L 1054.451478 637.462808 
L 1064.405138 641.560935 
L 1074.409502 645.324199 
L 1084.459182 648.643615 
L 1094.548636 651.401229 
L 1104.675991 653.471968 
L 1114.850402 654.724661 
L 1125.103311 655.019482 
L 1135.500937 654.197983 
L 1146.150669 652.063903 
L 1157.192234 648.360154 
L 1168.77217 642.755105 
L 1181.014095 634.848435 
L 1194.002197 624.192077 
L 1207.784118 610.311011 
L 1222.7452 592.279332 
L 1222.7452 592.279332 
" clip-path="url(#p0aa638156f)" style="fill: none; stroke: #17becf; stroke-width: 1.5"/>
   </g>
   <g id="patch_3">
    <path d="M 180 698.192349 
L 180 392.607651 
" style="fill: none; stroke: #000000; stroke-width: 0.8; stroke-linejoin: miter; stroke-linecap: square"/>
   </g>
   <g id="patch_4">
    <path d="M 1296 698.192349 
L 1296 392.607651 
" style="fill: none; stroke: #000000; stroke-width: 0.8; stroke-linejoin: miter; stroke-linecap: square"/>
   </g>
   <g id="patch_5">
    <path d="M 180 698.192349 
L 1296 698.192349 
" style="fill: none; stroke: #000000; stroke-width: 0.8; stroke-linejoin: miter; stroke-linecap: square"/>
   </g>
   <g id="patch_6">
    <path d="M 180 392.607651 
L 1296 392.607651 
" style="fill: none; stroke: #000000; stroke-width: 0.8; stroke-linejoin: miter; stroke-linecap: square"/>
   </g>
  </g>
 </g>
 <defs>
  <clipPath id="p0aa638156f">
   <rect x="180" y="392.607651" width="1116" height="305.584699"/>
  </clipPath>
 </defs>
</svg>
