<?xml version="1.0" encoding="utf-8" standalone="no"?>
<!DOCTYPE svg PUBLIC "-//W3C//DTD SVG 1.1//EN"
  "http://www.w3.org/Graphics/SVG/1.1/DTD/svg11.dtd">
<svg xmlns:xlink="http://www.w3.org/1999/xlink" width="1440pt" height="1080pt" viewBox="0 0 1440 1080" xmlns="http://www.w3.org/2000/svg" version="1.1">
 <metadata>
  <rdf:RDF xmlns:dc="http://purl.org/dc/elements/1.1/" xmlns:cc="http://creativecommons.org/ns#" xmlns:rdf="http://www.w3.org/1999/02/22-rdf-syntax-ns#">
   <cc:Work>
    <dc:type rdf:resource="http://purl.org/dc/dcmitype/StillImage"/>
    <dc:date>2023-12-11T12:06:41.354589</dc:date>
    <dc:format>image/svg+xml</dc:format>
    <dc:creator>
     <cc:Agent>
      <dc:title>Matplotlib v3.7.1, https://matplotlib.org/</dc:title>
     </cc:Agent>
    </dc:creator>
   </cc:Work>
  </rdf:RDF>
 </metadata>
 <defs>
  <style type="text/css">*{stroke-linejoin: round; stroke-linecap: butt}</style>
 </defs>
 <g id="figure_1">
  <g id="patch_1">
   <path d="M 0 1080 
L 1440 1080 
L 1440 0 
L 0 0 
z
" style="fill: #ffffff"/>
  </g>
  <g id="axes_1">
   <g id="patch_2">
    <path d="M 411.843494 961.2 
L 1064.156506 961.2 
L 1064.156506 129.6 
L 411.843494 129.6 
z
" style="fill: #ffffff"/>
   </g>
   <g id="matplotlib.axis_1">
    <g id="xtick_1">
     <g id="line2d_1">
      <defs>
       <path id="mb5da3b510b" d="M 0 0 
L 0 3.5 
" style="stroke: #000000; stroke-width: 0.8"/>
      </defs>
      <g>
       <use xlink:href="#mb5da3b510b" x="444.816347" y="961.2" style="stroke: #000000; stroke-width: 0.8"/>
      </g>
     </g>
     <g id="text_1">
      <!-- 1100 -->
      <g transform="translate(432.091347 975.798437) scale(0.1 -0.1)">
       <defs>
        <path id="DejaVuSans-31" d="M 794 531 
L 1825 531 
L 1825 4091 
L 703 3866 
L 703 4441 
L 1819 4666 
L 2450 4666 
L 2450 531 
L 3481 531 
L 3481 0 
L 794 0 
L 794 531 
z
" transform="scale(0.015625)"/>
        <path id="DejaVuSans-30" d="M 2034 4250 
Q 1547 4250 1301 3770 
Q 1056 3291 1056 2328 
Q 1056 1369 1301 889 
Q 1547 409 2034 409 
Q 2525 409 2770 889 
Q 3016 1369 3016 2328 
Q 3016 3291 2770 3770 
Q 2525 4250 2034 4250 
z
M 2034 4750 
Q 2819 4750 3233 4129 
Q 3647 3509 3647 2328 
Q 3647 1150 3233 529 
Q 2819 -91 2034 -91 
Q 1250 -91 836 529 
Q 422 1150 422 2328 
Q 422 3509 836 4129 
Q 1250 4750 2034 4750 
z
" transform="scale(0.015625)"/>
       </defs>
       <use xlink:href="#DejaVuSans-31"/>
       <use xlink:href="#DejaVuSans-31" x="63.623047"/>
       <use xlink:href="#DejaVuSans-30" x="127.246094"/>
       <use xlink:href="#DejaVuSans-30" x="190.869141"/>
      </g>
     </g>
    </g>
    <g id="xtick_2">
     <g id="line2d_2">
      <g>
       <use xlink:href="#mb5da3b510b" x="576.268211" y="961.2" style="stroke: #000000; stroke-width: 0.8"/>
      </g>
     </g>
     <g id="text_2">
      <!-- 1200 -->
      <g transform="translate(563.543211 975.798437) scale(0.1 -0.1)">
       <defs>
        <path id="DejaVuSans-32" d="M 1228 531 
L 3431 531 
L 3431 0 
L 469 0 
L 469 531 
Q 828 903 1448 1529 
Q 2069 2156 2228 2338 
Q 2531 2678 2651 2914 
Q 2772 3150 2772 3378 
Q 2772 3750 2511 3984 
Q 2250 4219 1831 4219 
Q 1534 4219 1204 4116 
Q 875 4013 500 3803 
L 500 4441 
Q 881 4594 1212 4672 
Q 1544 4750 1819 4750 
Q 2544 4750 2975 4387 
Q 3406 4025 3406 3419 
Q 3406 3131 3298 2873 
Q 3191 2616 2906 2266 
Q 2828 2175 2409 1742 
Q 1991 1309 1228 531 
z
" transform="scale(0.015625)"/>
       </defs>
       <use xlink:href="#DejaVuSans-31"/>
       <use xlink:href="#DejaVuSans-32" x="63.623047"/>
       <use xlink:href="#DejaVuSans-30" x="127.246094"/>
       <use xlink:href="#DejaVuSans-30" x="190.869141"/>
      </g>
     </g>
    </g>
    <g id="xtick_3">
     <g id="line2d_3">
      <g>
       <use xlink:href="#mb5da3b510b" x="707.720074" y="961.2" style="stroke: #000000; stroke-width: 0.8"/>
      </g>
     </g>
     <g id="text_3">
      <!-- 1300 -->
      <g transform="translate(694.995074 975.798437) scale(0.1 -0.1)">
       <defs>
        <path id="DejaVuSans-33" d="M 2597 2516 
Q 3050 2419 3304 2112 
Q 3559 1806 3559 1356 
Q 3559 666 3084 287 
Q 2609 -91 1734 -91 
Q 1441 -91 1130 -33 
Q 819 25 488 141 
L 488 750 
Q 750 597 1062 519 
Q 1375 441 1716 441 
Q 2309 441 2620 675 
Q 2931 909 2931 1356 
Q 2931 1769 2642 2001 
Q 2353 2234 1838 2234 
L 1294 2234 
L 1294 2753 
L 1863 2753 
Q 2328 2753 2575 2939 
Q 2822 3125 2822 3475 
Q 2822 3834 2567 4026 
Q 2313 4219 1838 4219 
Q 1578 4219 1281 4162 
Q 984 4106 628 3988 
L 628 4550 
Q 988 4650 1302 4700 
Q 1616 4750 1894 4750 
Q 2613 4750 3031 4423 
Q 3450 4097 3450 3541 
Q 3450 3153 3228 2886 
Q 3006 2619 2597 2516 
z
" transform="scale(0.015625)"/>
       </defs>
       <use xlink:href="#DejaVuSans-31"/>
       <use xlink:href="#DejaVuSans-33" x="63.623047"/>
       <use xlink:href="#DejaVuSans-30" x="127.246094"/>
       <use xlink:href="#DejaVuSans-30" x="190.869141"/>
      </g>
     </g>
    </g>
    <g id="xtick_4">
     <g id="line2d_4">
      <g>
       <use xlink:href="#mb5da3b510b" x="839.171937" y="961.2" style="stroke: #000000; stroke-width: 0.8"/>
      </g>
     </g>
     <g id="text_4">
      <!-- 1400 -->
      <g transform="translate(826.446937 975.798437) scale(0.1 -0.1)">
       <defs>
        <path id="DejaVuSans-34" d="M 2419 4116 
L 825 1625 
L 2419 1625 
L 2419 4116 
z
M 2253 4666 
L 3047 4666 
L 3047 1625 
L 3713 1625 
L 3713 1100 
L 3047 1100 
L 3047 0 
L 2419 0 
L 2419 1100 
L 313 1100 
L 313 1709 
L 2253 4666 
z
" transform="scale(0.015625)"/>
       </defs>
       <use xlink:href="#DejaVuSans-31"/>
       <use xlink:href="#DejaVuSans-34" x="63.623047"/>
       <use xlink:href="#DejaVuSans-30" x="127.246094"/>
       <use xlink:href="#DejaVuSans-30" x="190.869141"/>
      </g>
     </g>
    </g>
    <g id="xtick_5">
     <g id="line2d_5">
      <g>
       <use xlink:href="#mb5da3b510b" x="970.623801" y="961.2" style="stroke: #000000; stroke-width: 0.8"/>
      </g>
     </g>
     <g id="text_5">
      <!-- 1500 -->
      <g transform="translate(957.898801 975.798437) scale(0.1 -0.1)">
       <defs>
        <path id="DejaVuSans-35" d="M 691 4666 
L 3169 4666 
L 3169 4134 
L 1269 4134 
L 1269 2991 
Q 1406 3038 1543 3061 
Q 1681 3084 1819 3084 
Q 2600 3084 3056 2656 
Q 3513 2228 3513 1497 
Q 3513 744 3044 326 
Q 2575 -91 1722 -91 
Q 1428 -91 1123 -41 
Q 819 9 494 109 
L 494 744 
Q 775 591 1075 516 
Q 1375 441 1709 441 
Q 2250 441 2565 725 
Q 2881 1009 2881 1497 
Q 2881 1984 2565 2268 
Q 2250 2553 1709 2553 
Q 1456 2553 1204 2497 
Q 953 2441 691 2322 
L 691 4666 
z
" transform="scale(0.015625)"/>
       </defs>
       <use xlink:href="#DejaVuSans-31"/>
       <use xlink:href="#DejaVuSans-35" x="63.623047"/>
       <use xlink:href="#DejaVuSans-30" x="127.246094"/>
       <use xlink:href="#DejaVuSans-30" x="190.869141"/>
      </g>
     </g>
    </g>
   </g>
   <g id="matplotlib.axis_2">
    <g id="ytick_1">
     <g id="line2d_6">
      <defs>
       <path id="mfa4a37d2dc" d="M 0 0 
L -3.5 0 
" style="stroke: #000000; stroke-width: 0.8"/>
      </defs>
      <g>
       <use xlink:href="#mfa4a37d2dc" x="411.843494" y="906.441418" style="stroke: #000000; stroke-width: 0.8"/>
      </g>
     </g>
     <g id="text_6">
      <!-- 900 -->
      <g transform="translate(385.755994 910.240637) scale(0.1 -0.1)">
       <defs>
        <path id="DejaVuSans-39" d="M 703 97 
L 703 672 
Q 941 559 1184 500 
Q 1428 441 1663 441 
Q 2288 441 2617 861 
Q 2947 1281 2994 2138 
Q 2813 1869 2534 1725 
Q 2256 1581 1919 1581 
Q 1219 1581 811 2004 
Q 403 2428 403 3163 
Q 403 3881 828 4315 
Q 1253 4750 1959 4750 
Q 2769 4750 3195 4129 
Q 3622 3509 3622 2328 
Q 3622 1225 3098 567 
Q 2575 -91 1691 -91 
Q 1453 -91 1209 -44 
Q 966 3 703 97 
z
M 1959 2075 
Q 2384 2075 2632 2365 
Q 2881 2656 2881 3163 
Q 2881 3666 2632 3958 
Q 2384 4250 1959 4250 
Q 1534 4250 1286 3958 
Q 1038 3666 1038 3163 
Q 1038 2656 1286 2365 
Q 1534 2075 1959 2075 
z
" transform="scale(0.015625)"/>
       </defs>
       <use xlink:href="#DejaVuSans-39"/>
       <use xlink:href="#DejaVuSans-30" x="63.623047"/>
       <use xlink:href="#DejaVuSans-30" x="127.246094"/>
      </g>
     </g>
    </g>
    <g id="ytick_2">
     <g id="line2d_7">
      <g>
       <use xlink:href="#mfa4a37d2dc" x="411.843494" y="774.989555" style="stroke: #000000; stroke-width: 0.8"/>
      </g>
     </g>
     <g id="text_7">
      <!-- 1000 -->
      <g transform="translate(379.393494 778.788773) scale(0.1 -0.1)">
       <use xlink:href="#DejaVuSans-31"/>
       <use xlink:href="#DejaVuSans-30" x="63.623047"/>
       <use xlink:href="#DejaVuSans-30" x="127.246094"/>
       <use xlink:href="#DejaVuSans-30" x="190.869141"/>
      </g>
     </g>
    </g>
    <g id="ytick_3">
     <g id="line2d_8">
      <g>
       <use xlink:href="#mfa4a37d2dc" x="411.843494" y="643.537691" style="stroke: #000000; stroke-width: 0.8"/>
      </g>
     </g>
     <g id="text_8">
      <!-- 1100 -->
      <g transform="translate(379.393494 647.33691) scale(0.1 -0.1)">
       <use xlink:href="#DejaVuSans-31"/>
       <use xlink:href="#DejaVuSans-31" x="63.623047"/>
       <use xlink:href="#DejaVuSans-30" x="127.246094"/>
       <use xlink:href="#DejaVuSans-30" x="190.869141"/>
      </g>
     </g>
    </g>
    <g id="ytick_4">
     <g id="line2d_9">
      <g>
       <use xlink:href="#mfa4a37d2dc" x="411.843494" y="512.085828" style="stroke: #000000; stroke-width: 0.8"/>
      </g>
     </g>
     <g id="text_9">
      <!-- 1200 -->
      <g transform="translate(379.393494 515.885046) scale(0.1 -0.1)">
       <use xlink:href="#DejaVuSans-31"/>
       <use xlink:href="#DejaVuSans-32" x="63.623047"/>
       <use xlink:href="#DejaVuSans-30" x="127.246094"/>
       <use xlink:href="#DejaVuSans-30" x="190.869141"/>
      </g>
     </g>
    </g>
    <g id="ytick_5">
     <g id="line2d_10">
      <g>
       <use xlink:href="#mfa4a37d2dc" x="411.843494" y="380.633964" style="stroke: #000000; stroke-width: 0.8"/>
      </g>
     </g>
     <g id="text_10">
      <!-- 1300 -->
      <g transform="translate(379.393494 384.433183) scale(0.1 -0.1)">
       <use xlink:href="#DejaVuSans-31"/>
       <use xlink:href="#DejaVuSans-33" x="63.623047"/>
       <use xlink:href="#DejaVuSans-30" x="127.246094"/>
       <use xlink:href="#DejaVuSans-30" x="190.869141"/>
      </g>
     </g>
    </g>
    <g id="ytick_6">
     <g id="line2d_11">
      <g>
       <use xlink:href="#mfa4a37d2dc" x="411.843494" y="249.182101" style="stroke: #000000; stroke-width: 0.8"/>
      </g>
     </g>
     <g id="text_11">
      <!-- 1400 -->
      <g transform="translate(379.393494 252.98132) scale(0.1 -0.1)">
       <use xlink:href="#DejaVuSans-31"/>
       <use xlink:href="#DejaVuSans-34" x="63.623047"/>
       <use xlink:href="#DejaVuSans-30" x="127.246094"/>
       <use xlink:href="#DejaVuSans-30" x="190.869141"/>
      </g>
     </g>
    </g>
   </g>
   <g id="LineCollection_1">
    <path d="M 837.27599 923.4 
L 869.579348 906.853377 
L 898.098308 891.208674 
L 923.135235 876.389392 
L 944.974167 862.319523 
L 963.880899 848.922389 
L 980.102366 836.11939 
L 993.864912 823.829023 
L 1005.370959 811.966955 
L 1014.793916 800.448764 
L 1022.272398 789.197715 
L 1027.907579 778.159512 
L 1031.257185 769.082691 
L 1031.770593 767.321832 
L 1033.825607 757.692087 
L 1033.925506 756.727825 
L 1034.505915 747.444528 
L 1034.461667 746.467629 
L 1033.803271 738.502069 
L 1033.514689 736.643742 
L 1031.757942 728.991199 
L 1031.259212 727.330067 
L 1027.880672 718.550865 
L 1023.54805 710.285827 
L 1018.400855 702.48817 
L 1012.548908 695.101777 
L 1006.078012 688.071863 
L 999.056401 681.349756 
L 991.539875 674.894123 
L 983.57533 668.670538 
L 975.203049 662.650462 
L 966.458145 656.810179 
L 957.37151 651.129839 
L 947.970463 645.592689 
L 938.27923 640.184459 
L 928.319338 634.892888 
L 918.109952 629.707345 
L 907.668186 624.618536 
L 897.00939 619.618268 
L 886.147429 614.699258 
L 875.09495 609.85497 
L 863.863641 605.079485 
L 852.464475 600.367386 
L 829.204303 591.113605 
L 805.39668 582.056865 
L 781.126449 573.163219 
L 756.487005 564.399693 
L 719.074723 551.424731 
L 656.650369 529.94068 
L 632.168214 521.277027 
L 608.289045 512.505325 
L 596.653905 508.063772 
L 585.26712 503.576901 
L 574.164989 499.038673 
L 563.3856 494.443271 
L 552.9688 489.785283 
L 542.956138 485.059926 
L 533.39078 480.263357 
L 524.317353 475.39307 
L 515.78168 470.448416 
L 507.830315 465.431234 
L 500.509749 460.346587 
L 493.865081 455.203495 
L 487.93789 450.015389 
L 482.763037 444.799747 
L 478.364403 439.575911 
L 474.750296 434.35977 
L 471.910795 429.154363 
L 469.820819 423.937577 
L 468.452285 418.652286 
L 467.793432 413.207345 
L 467.865694 407.494059 
L 468.726774 401.411745 
L 470.458001 394.888291 
L 473.145116 387.886394 
L 476.863169 380.397277 
L 481.669655 372.429565 
L 487.604071 363.999457 
L 494.690438 355.124405 
L 502.940318 345.819965 
L 512.355239 336.098705 
L 522.928272 325.970214 
L 534.64489 315.441574 
L 547.483295 304.517972 
L 561.414402 293.203299 
L 576.4016 281.500676 
L 592.400371 269.412894 
L 609.357836 256.942774 
L 627.212245 244.093458 
L 645.892441 230.868646 
L 685.395212 203.311215 
L 706.014914 188.996189 
L 706.014914 188.996189 
" clip-path="url(#p4ed6722a7f)" style="fill: none; stroke: #1f77b4; stroke-width: 1.5"/>
    <path d="M 831.284826 911.699492 
L 863.259548 895.327056 
L 891.406321 879.894381 
L 916.021323 865.335516 
L 937.382186 851.588366 
L 955.748781 838.594534 
L 971.363994 826.299167 
L 984.454484 814.6508 
L 995.231417 803.601215 
L 1003.891198 793.105287 
L 1010.616171 783.12085 
L 1015.575316 773.608556 
L 1018.924921 764.531734 
L 1020.809245 755.856267 
L 1021.361155 747.550456 
L 1020.702759 739.584896 
L 1018.946013 731.932354 
L 1016.193317 724.567648 
L 1012.538097 717.467531 
L 1008.065361 710.610577 
L 1002.852255 703.977072 
L 996.968588 697.548905 
L 990.477349 691.309464 
L 983.43521 685.243535 
L 975.893004 679.337205 
L 967.896201 673.577763 
L 959.485354 667.953613 
L 950.696541 662.45418 
L 941.561782 657.069829 
L 932.109452 651.791775 
L 922.364662 646.612008 
L 912.349645 641.523215 
L 902.084105 636.518702 
L 891.585571 631.592328 
L 880.869718 626.738431 
L 869.950686 621.951766 
L 858.841378 617.227439 
L 847.553738 612.560851 
L 836.099026 607.947636 
L 824.488067 603.383611 
L 812.731489 598.864722 
L 800.839946 594.386995 
L 788.824327 589.946492 
L 776.695946 585.539267 
L 764.466721 581.161325 
L 752.149337 576.808583 
L 739.757396 572.47684 
L 727.305543 568.161738 
L 714.809593 563.85874 
L 702.286628 559.563097 
L 689.755089 555.269825 
L 677.234849 550.973689 
L 664.74727 546.669175 
L 652.315254 542.350483 
L 639.963266 538.011508 
L 627.717354 533.64583 
L 615.605148 529.246707 
L 603.655848 524.807067 
L 591.900196 520.31951 
L 580.370432 515.7763 
L 569.10024 511.169373 
L 558.124675 506.490339 
L 547.48008 501.73049 
L 537.203984 496.880808 
L 527.334991 491.93198 
L 517.912649 486.874409 
L 508.977312 481.698232 
L 500.569981 476.393343 
L 492.732136 470.949409 
L 485.505548 465.3559 
L 478.932088 459.602111 
L 473.053508 453.677195 
L 467.911219 447.570192 
L 463.546051 441.270064 
L 459.997997 434.765731 
L 457.305948 428.04611 
L 455.507413 421.100154 
L 454.63822 413.9169 
L 454.732212 406.485509 
L 455.820921 398.795317 
L 457.933236 390.835885 
L 461.09505 382.59705 
L 465.328901 374.068983 
L 470.653593 365.242241 
L 477.083806 356.107829 
L 484.629697 346.657264 
L 493.296478 336.882632 
L 503.083988 326.77666 
L 513.986253 316.33278 
L 525.991026 305.545201 
L 539.079318 294.408981 
L 553.224918 282.920101 
L 568.393891 271.07554 
L 584.544078 258.873357 
L 601.624564 246.31277 
L 619.57515 233.394238 
L 638.325804 220.119545 
L 657.796096 206.491891 
L 677.894627 192.515976 
L 698.518443 178.198095 
" clip-path="url(#p4ed6722a7f)" style="fill: none; stroke: #8c564b; stroke-width: 1.5"/>
    <path d="M 825.293661 899.998985 
L 857.102834 883.711318 
L 884.8987 868.471042 
L 909.115918 854.147451 
L 930.025698 840.690603 
L 947.881558 828.058101 
L 962.921112 816.216007 
L 975.368729 805.139691 
L 985.439549 794.814082 
L 993.345236 785.23214 
L 999.301139 776.389526 
L 1003.532538 768.273144 
L 1006.27438 760.843254 
L 1007.75739 754.015441 
L 1008.179922 747.656677 
L 1007.679903 741.607235 
L 1006.328536 735.720561 
L 1004.151358 729.895625 
L 1001.159549 724.084157 
L 997.371909 718.277494 
L 992.822034 712.487928 
L 987.555923 706.734468 
L 981.626526 701.035076 
L 975.0888 695.403636 
L 967.996321 689.849488 
L 960.399348 684.378011 
L 952.343899 678.991508 
L 943.871461 673.690042 
L 935.019065 668.472124 
L 925.819549 663.335238 
L 916.30192 658.276217 
L 906.491754 653.291512 
L 896.411597 648.377375 
L 886.081372 643.529979 
L 875.518754 638.745492 
L 864.73954 634.020119 
L 853.757985 629.350121 
L 842.587133 624.731816 
L 819.725421 615.635778 
L 796.245404 606.703152 
L 772.235923 597.904748 
L 747.790571 589.210098 
L 710.537067 576.290213 
L 647.958625 554.752729 
L 623.229867 546.00133 
L 598.967819 537.087878 
L 587.081077 532.549474 
L 575.396568 527.944151 
L 563.945171 523.261568 
L 552.7587 518.490432 
L 541.869764 513.618311 
L 531.311631 508.631387 
L 521.11811 503.514135 
L 511.323491 498.248894 
L 501.962606 492.815328 
L 493.071107 487.189768 
L 484.686146 481.344503 
L 476.847669 475.247161 
L 469.600621 468.860602 
L 462.998242 462.144046 
L 457.106193 455.056669 
L 452.006126 447.564988 
L 447.795629 439.654305 
L 444.58044 431.34116 
L 442.781905 424.395205 
L 442.457416 422.679239 
L 441.588223 415.495984 
L 441.494085 413.750654 
L 441.716808 404.642904 
L 443.115538 395.423497 
L 445.660759 386.126081 
L 449.321017 376.751704 
L 454.073145 367.278999 
L 459.904646 357.675467 
L 466.811424 347.905751 
L 474.793987 337.936328 
L 483.853839 327.737552 
L 493.990635 317.284197 
L 505.200112 306.555273 
L 517.472607 295.533585 
L 530.791981 284.205258 
L 545.134792 272.559319 
L 560.469613 260.587369 
L 576.756429 248.283341 
L 593.946075 235.643341 
L 611.97968 222.66555 
L 630.78811 209.350186 
L 670.389931 181.723597 
L 691.021973 167.4 
L 691.021973 167.4 
" clip-path="url(#p4ed6722a7f)" style="fill: none; stroke: #17becf; stroke-width: 1.5"/>
   </g>
   <g id="patch_3">
    <path d="M 411.843494 961.2 
L 411.843494 129.6 
" style="fill: none; stroke: #000000; stroke-width: 0.8; stroke-linejoin: miter; stroke-linecap: square"/>
   </g>
   <g id="patch_4">
    <path d="M 1064.156506 961.2 
L 1064.156506 129.6 
" style="fill: none; stroke: #000000; stroke-width: 0.8; stroke-linejoin: miter; stroke-linecap: square"/>
   </g>
   <g id="patch_5">
    <path d="M 411.843494 961.2 
L 1064.156506 961.2 
" style="fill: none; stroke: #000000; stroke-width: 0.8; stroke-linejoin: miter; stroke-linecap: square"/>
   </g>
   <g id="patch_6">
    <path d="M 411.843494 129.6 
L 1064.156506 129.6 
" style="fill: none; stroke: #000000; stroke-width: 0.8; stroke-linejoin: miter; stroke-linecap: square"/>
   </g>
  </g>
 </g>
 <defs>
  <clipPath id="p4ed6722a7f">
   <rect x="411.843494" y="129.6" width="652.313013" height="831.6"/>
  </clipPath>
 </defs>
</svg>
