<?xml version="1.0" encoding="utf-8" standalone="no"?>
<!DOCTYPE svg PUBLIC "-//W3C//DTD SVG 1.1//EN"
  "http://www.w3.org/Graphics/SVG/1.1/DTD/svg11.dtd">
<svg xmlns:xlink="http://www.w3.org/1999/xlink" width="1440pt" height="1080pt" viewBox="0 0 1440 1080" xmlns="http://www.w3.org/2000/svg" version="1.1">
 <metadata>
  <rdf:RDF xmlns:dc="http://purl.org/dc/elements/1.1/" xmlns:cc="http://creativecommons.org/ns#" xmlns:rdf="http://www.w3.org/1999/02/22-rdf-syntax-ns#">
   <cc:Work>
    <dc:type rdf:resource="http://purl.org/dc/dcmitype/StillImage"/>
    <dc:date>2023-12-11T12:07:01.740878</dc:date>
    <dc:format>image/svg+xml</dc:format>
    <dc:creator>
     <cc:Agent>
      <dc:title>Matplotlib v3.7.1, https://matplotlib.org/</dc:title>
     </cc:Agent>
    </dc:creator>
   </cc:Work>
  </rdf:RDF>
 </metadata>
 <defs>
  <style type="text/css">*{stroke-linejoin: round; stroke-linecap: butt}</style>
 </defs>
 <g id="figure_1">
  <g id="patch_1">
   <path d="M 0 1080 
L 1440 1080 
L 1440 0 
L 0 0 
z
" style="fill: #ffffff"/>
  </g>
  <g id="axes_1">
   <g id="patch_2">
    <path d="M 338.173854 961.2 
L 1137.826146 961.2 
L 1137.826146 129.6 
L 338.173854 129.6 
z
" style="fill: #ffffff"/>
   </g>
   <g id="matplotlib.axis_1">
    <g id="xtick_1">
     <g id="line2d_1">
      <defs>
       <path id="mc829368733" d="M 0 0 
L 0 3.5 
" style="stroke: #000000; stroke-width: 0.8"/>
      </defs>
      <g>
       <use xlink:href="#mc829368733" x="361.570609" y="961.2" style="stroke: #000000; stroke-width: 0.8"/>
      </g>
     </g>
     <g id="text_1">
      <!-- 1200 -->
      <g transform="translate(348.845609 975.798437) scale(0.1 -0.1)">
       <defs>
        <path id="DejaVuSans-31" d="M 794 531 
L 1825 531 
L 1825 4091 
L 703 3866 
L 703 4441 
L 1819 4666 
L 2450 4666 
L 2450 531 
L 3481 531 
L 3481 0 
L 794 0 
L 794 531 
z
" transform="scale(0.015625)"/>
        <path id="DejaVuSans-32" d="M 1228 531 
L 3431 531 
L 3431 0 
L 469 0 
L 469 531 
Q 828 903 1448 1529 
Q 2069 2156 2228 2338 
Q 2531 2678 2651 2914 
Q 2772 3150 2772 3378 
Q 2772 3750 2511 3984 
Q 2250 4219 1831 4219 
Q 1534 4219 1204 4116 
Q 875 4013 500 3803 
L 500 4441 
Q 881 4594 1212 4672 
Q 1544 4750 1819 4750 
Q 2544 4750 2975 4387 
Q 3406 4025 3406 3419 
Q 3406 3131 3298 2873 
Q 3191 2616 2906 2266 
Q 2828 2175 2409 1742 
Q 1991 1309 1228 531 
z
" transform="scale(0.015625)"/>
        <path id="DejaVuSans-30" d="M 2034 4250 
Q 1547 4250 1301 3770 
Q 1056 3291 1056 2328 
Q 1056 1369 1301 889 
Q 1547 409 2034 409 
Q 2525 409 2770 889 
Q 3016 1369 3016 2328 
Q 3016 3291 2770 3770 
Q 2525 4250 2034 4250 
z
M 2034 4750 
Q 2819 4750 3233 4129 
Q 3647 3509 3647 2328 
Q 3647 1150 3233 529 
Q 2819 -91 2034 -91 
Q 1250 -91 836 529 
Q 422 1150 422 2328 
Q 422 3509 836 4129 
Q 1250 4750 2034 4750 
z
" transform="scale(0.015625)"/>
       </defs>
       <use xlink:href="#DejaVuSans-31"/>
       <use xlink:href="#DejaVuSans-32" x="63.623047"/>
       <use xlink:href="#DejaVuSans-30" x="127.246094"/>
       <use xlink:href="#DejaVuSans-30" x="190.869141"/>
      </g>
     </g>
    </g>
    <g id="xtick_2">
     <g id="line2d_2">
      <g>
       <use xlink:href="#mc829368733" x="505.678614" y="961.2" style="stroke: #000000; stroke-width: 0.8"/>
      </g>
     </g>
     <g id="text_2">
      <!-- 1300 -->
      <g transform="translate(492.953614 975.798437) scale(0.1 -0.1)">
       <defs>
        <path id="DejaVuSans-33" d="M 2597 2516 
Q 3050 2419 3304 2112 
Q 3559 1806 3559 1356 
Q 3559 666 3084 287 
Q 2609 -91 1734 -91 
Q 1441 -91 1130 -33 
Q 819 25 488 141 
L 488 750 
Q 750 597 1062 519 
Q 1375 441 1716 441 
Q 2309 441 2620 675 
Q 2931 909 2931 1356 
Q 2931 1769 2642 2001 
Q 2353 2234 1838 2234 
L 1294 2234 
L 1294 2753 
L 1863 2753 
Q 2328 2753 2575 2939 
Q 2822 3125 2822 3475 
Q 2822 3834 2567 4026 
Q 2313 4219 1838 4219 
Q 1578 4219 1281 4162 
Q 984 4106 628 3988 
L 628 4550 
Q 988 4650 1302 4700 
Q 1616 4750 1894 4750 
Q 2613 4750 3031 4423 
Q 3450 4097 3450 3541 
Q 3450 3153 3228 2886 
Q 3006 2619 2597 2516 
z
" transform="scale(0.015625)"/>
       </defs>
       <use xlink:href="#DejaVuSans-31"/>
       <use xlink:href="#DejaVuSans-33" x="63.623047"/>
       <use xlink:href="#DejaVuSans-30" x="127.246094"/>
       <use xlink:href="#DejaVuSans-30" x="190.869141"/>
      </g>
     </g>
    </g>
    <g id="xtick_3">
     <g id="line2d_3">
      <g>
       <use xlink:href="#mc829368733" x="649.78662" y="961.2" style="stroke: #000000; stroke-width: 0.8"/>
      </g>
     </g>
     <g id="text_3">
      <!-- 1400 -->
      <g transform="translate(637.06162 975.798437) scale(0.1 -0.1)">
       <defs>
        <path id="DejaVuSans-34" d="M 2419 4116 
L 825 1625 
L 2419 1625 
L 2419 4116 
z
M 2253 4666 
L 3047 4666 
L 3047 1625 
L 3713 1625 
L 3713 1100 
L 3047 1100 
L 3047 0 
L 2419 0 
L 2419 1100 
L 313 1100 
L 313 1709 
L 2253 4666 
z
" transform="scale(0.015625)"/>
       </defs>
       <use xlink:href="#DejaVuSans-31"/>
       <use xlink:href="#DejaVuSans-34" x="63.623047"/>
       <use xlink:href="#DejaVuSans-30" x="127.246094"/>
       <use xlink:href="#DejaVuSans-30" x="190.869141"/>
      </g>
     </g>
    </g>
    <g id="xtick_4">
     <g id="line2d_4">
      <g>
       <use xlink:href="#mc829368733" x="793.894626" y="961.2" style="stroke: #000000; stroke-width: 0.8"/>
      </g>
     </g>
     <g id="text_4">
      <!-- 1500 -->
      <g transform="translate(781.169626 975.798437) scale(0.1 -0.1)">
       <defs>
        <path id="DejaVuSans-35" d="M 691 4666 
L 3169 4666 
L 3169 4134 
L 1269 4134 
L 1269 2991 
Q 1406 3038 1543 3061 
Q 1681 3084 1819 3084 
Q 2600 3084 3056 2656 
Q 3513 2228 3513 1497 
Q 3513 744 3044 326 
Q 2575 -91 1722 -91 
Q 1428 -91 1123 -41 
Q 819 9 494 109 
L 494 744 
Q 775 591 1075 516 
Q 1375 441 1709 441 
Q 2250 441 2565 725 
Q 2881 1009 2881 1497 
Q 2881 1984 2565 2268 
Q 2250 2553 1709 2553 
Q 1456 2553 1204 2497 
Q 953 2441 691 2322 
L 691 4666 
z
" transform="scale(0.015625)"/>
       </defs>
       <use xlink:href="#DejaVuSans-31"/>
       <use xlink:href="#DejaVuSans-35" x="63.623047"/>
       <use xlink:href="#DejaVuSans-30" x="127.246094"/>
       <use xlink:href="#DejaVuSans-30" x="190.869141"/>
      </g>
     </g>
    </g>
    <g id="xtick_5">
     <g id="line2d_5">
      <g>
       <use xlink:href="#mc829368733" x="938.002632" y="961.2" style="stroke: #000000; stroke-width: 0.8"/>
      </g>
     </g>
     <g id="text_5">
      <!-- 1600 -->
      <g transform="translate(925.277632 975.798437) scale(0.1 -0.1)">
       <defs>
        <path id="DejaVuSans-36" d="M 2113 2584 
Q 1688 2584 1439 2293 
Q 1191 2003 1191 1497 
Q 1191 994 1439 701 
Q 1688 409 2113 409 
Q 2538 409 2786 701 
Q 3034 994 3034 1497 
Q 3034 2003 2786 2293 
Q 2538 2584 2113 2584 
z
M 3366 4563 
L 3366 3988 
Q 3128 4100 2886 4159 
Q 2644 4219 2406 4219 
Q 1781 4219 1451 3797 
Q 1122 3375 1075 2522 
Q 1259 2794 1537 2939 
Q 1816 3084 2150 3084 
Q 2853 3084 3261 2657 
Q 3669 2231 3669 1497 
Q 3669 778 3244 343 
Q 2819 -91 2113 -91 
Q 1303 -91 875 529 
Q 447 1150 447 2328 
Q 447 3434 972 4092 
Q 1497 4750 2381 4750 
Q 2619 4750 2861 4703 
Q 3103 4656 3366 4563 
z
" transform="scale(0.015625)"/>
       </defs>
       <use xlink:href="#DejaVuSans-31"/>
       <use xlink:href="#DejaVuSans-36" x="63.623047"/>
       <use xlink:href="#DejaVuSans-30" x="127.246094"/>
       <use xlink:href="#DejaVuSans-30" x="190.869141"/>
      </g>
     </g>
    </g>
    <g id="xtick_6">
     <g id="line2d_6">
      <g>
       <use xlink:href="#mc829368733" x="1082.110638" y="961.2" style="stroke: #000000; stroke-width: 0.8"/>
      </g>
     </g>
     <g id="text_6">
      <!-- 1700 -->
      <g transform="translate(1069.385638 975.798437) scale(0.1 -0.1)">
       <defs>
        <path id="DejaVuSans-37" d="M 525 4666 
L 3525 4666 
L 3525 4397 
L 1831 0 
L 1172 0 
L 2766 4134 
L 525 4134 
L 525 4666 
z
" transform="scale(0.015625)"/>
       </defs>
       <use xlink:href="#DejaVuSans-31"/>
       <use xlink:href="#DejaVuSans-37" x="63.623047"/>
       <use xlink:href="#DejaVuSans-30" x="127.246094"/>
       <use xlink:href="#DejaVuSans-30" x="190.869141"/>
      </g>
     </g>
    </g>
   </g>
   <g id="matplotlib.axis_2">
    <g id="ytick_1">
     <g id="line2d_7">
      <defs>
       <path id="md9fd8dad0d" d="M 0 0 
L -3.5 0 
" style="stroke: #000000; stroke-width: 0.8"/>
      </defs>
      <g>
       <use xlink:href="#md9fd8dad0d" x="338.173854" y="955.848723" style="stroke: #000000; stroke-width: 0.8"/>
      </g>
     </g>
     <g id="text_7">
      <!-- 200 -->
      <g transform="translate(312.086354 959.647942) scale(0.1 -0.1)">
       <use xlink:href="#DejaVuSans-32"/>
       <use xlink:href="#DejaVuSans-30" x="63.623047"/>
       <use xlink:href="#DejaVuSans-30" x="127.246094"/>
      </g>
     </g>
    </g>
    <g id="ytick_2">
     <g id="line2d_8">
      <g>
       <use xlink:href="#md9fd8dad0d" x="338.173854" y="811.740717" style="stroke: #000000; stroke-width: 0.8"/>
      </g>
     </g>
     <g id="text_8">
      <!-- 300 -->
      <g transform="translate(312.086354 815.539936) scale(0.1 -0.1)">
       <use xlink:href="#DejaVuSans-33"/>
       <use xlink:href="#DejaVuSans-30" x="63.623047"/>
       <use xlink:href="#DejaVuSans-30" x="127.246094"/>
      </g>
     </g>
    </g>
    <g id="ytick_3">
     <g id="line2d_9">
      <g>
       <use xlink:href="#md9fd8dad0d" x="338.173854" y="667.632712" style="stroke: #000000; stroke-width: 0.8"/>
      </g>
     </g>
     <g id="text_9">
      <!-- 400 -->
      <g transform="translate(312.086354 671.43193) scale(0.1 -0.1)">
       <use xlink:href="#DejaVuSans-34"/>
       <use xlink:href="#DejaVuSans-30" x="63.623047"/>
       <use xlink:href="#DejaVuSans-30" x="127.246094"/>
      </g>
     </g>
    </g>
    <g id="ytick_4">
     <g id="line2d_10">
      <g>
       <use xlink:href="#md9fd8dad0d" x="338.173854" y="523.524706" style="stroke: #000000; stroke-width: 0.8"/>
      </g>
     </g>
     <g id="text_10">
      <!-- 500 -->
      <g transform="translate(312.086354 527.323925) scale(0.1 -0.1)">
       <use xlink:href="#DejaVuSans-35"/>
       <use xlink:href="#DejaVuSans-30" x="63.623047"/>
       <use xlink:href="#DejaVuSans-30" x="127.246094"/>
      </g>
     </g>
    </g>
    <g id="ytick_5">
     <g id="line2d_11">
      <g>
       <use xlink:href="#md9fd8dad0d" x="338.173854" y="379.4167" style="stroke: #000000; stroke-width: 0.8"/>
      </g>
     </g>
     <g id="text_11">
      <!-- 600 -->
      <g transform="translate(312.086354 383.215919) scale(0.1 -0.1)">
       <use xlink:href="#DejaVuSans-36"/>
       <use xlink:href="#DejaVuSans-30" x="63.623047"/>
       <use xlink:href="#DejaVuSans-30" x="127.246094"/>
      </g>
     </g>
    </g>
    <g id="ytick_6">
     <g id="line2d_12">
      <g>
       <use xlink:href="#md9fd8dad0d" x="338.173854" y="235.308694" style="stroke: #000000; stroke-width: 0.8"/>
      </g>
     </g>
     <g id="text_12">
      <!-- 700 -->
      <g transform="translate(312.086354 239.107913) scale(0.1 -0.1)">
       <use xlink:href="#DejaVuSans-37"/>
       <use xlink:href="#DejaVuSans-30" x="63.623047"/>
       <use xlink:href="#DejaVuSans-30" x="127.246094"/>
      </g>
     </g>
    </g>
   </g>
   <g id="LineCollection_1">
    <path d="M 1101.478314 456.732238 
L 1076.898854 428.003058 
L 1053.987915 402.478465 
L 1032.584115 379.838907 
L 1012.538137 359.789715 
L 993.712816 342.060139 
L 975.983302 326.402275 
L 959.237224 312.589809 
L 943.374724 300.416524 
L 928.308191 289.694579 
L 913.961568 280.252624 
L 900.269135 271.933907 
L 887.173834 264.594566 
L 874.625274 258.102265 
L 862.577703 252.335291 
L 850.98821 247.18208 
L 839.815368 242.541063 
L 829.018437 238.320662 
L 818.557089 234.439283 
L 798.48309 227.416231 
L 769.939688 217.932718 
L 733.501708 205.851294 
L 671.220186 184.928164 
L 653.89537 179.582136 
L 644.604758 176.940589 
L 635.725146 174.612674 
L 626.83375 172.517483 
L 617.922909 170.701699 
L 608.982952 169.218611 
L 600.003032 168.129888 
L 590.973303 167.507685 
L 581.889131 167.436577 
L 572.758063 168.014172 
L 563.609523 169.34842 
L 557.137204 170.813543 
L 554.505457 171.549094 
L 548.309011 173.61945 
L 545.547226 174.712057 
L 539.642549 177.427108 
L 536.871945 178.898894 
L 531.274511 182.297126 
L 528.633768 184.120323 
L 523.358506 188.239 
L 520.974052 190.334086 
L 516.035226 195.208996 
L 513.99345 197.461502 
L 509.404534 203.126704 
L 507.739159 205.415067 
L 503.512711 211.902622 
L 502.210462 214.123267 
L 497.375203 223.543401 
L 493.187273 233.662126 
L 489.599221 244.488801 
L 486.568922 256.046836 
L 484.061782 268.366085 
L 482.050407 281.477275 
L 480.513161 295.408354 
L 479.432455 310.182259 
L 478.793135 325.815618 
L 478.581114 342.317987 
L 478.782257 359.691395 
L 479.381484 377.93002 
L 480.36205 397.019906 
L 481.704945 416.938687 
L 483.388397 437.655259 
L 485.387433 459.129421 
L 487.673485 481.311451 
L 490.214026 504.141618 
L 492.972224 527.549632 
L 498.970684 575.761421 
L 508.401569 650.025338 
L 511.412177 674.773374 
L 514.234128 699.250797 
L 516.784395 723.271494 
L 518.973163 746.627188 
L 520.704198 769.083421 
L 521.876083 790.373359 
L 522.385477 810.187625 
L 522.135353 828.156667 
L 521.056335 843.819049 
L 519.164586 856.565756 
L 516.723868 865.567325 
L 515.790867 867.504782 
L 512.690805 866.294308 
L 501.735745 859.086587 
L 486.468816 845.830436 
L 467.402148 826.055307 
L 444.639544 799.308709 
L 417.791374 764.696307 
L 417.791374 764.696307 
" clip-path="url(#p3f58fc6275)" style="fill: none; stroke: #1f77b4; stroke-width: 1.5"/>
    <path d="M 1080.669558 474.527984 
L 1056.517948 446.287248 
L 1034.085146 421.281994 
L 1013.213233 399.189924 
L 993.755242 379.711958 
L 975.574629 362.571089 
L 958.544764 347.511285 
L 942.548439 334.29643 
L 927.477397 322.709302 
L 913.231878 312.550601 
L 899.720179 303.637999 
L 886.858239 295.805245 
L 874.569228 288.90129 
L 862.783168 282.789457 
L 851.436556 277.346644 
L 840.472006 272.462555 
L 829.837912 268.038971 
L 819.488117 263.989046 
L 809.381596 260.236633 
L 799.482162 256.715644 
L 789.758171 253.369433 
L 780.182251 250.150211 
L 770.731036 247.01848 
L 761.384912 243.9425 
L 752.127782 240.897773 
L 742.946827 237.866558 
L 733.832289 234.837397 
L 724.777261 231.804673 
L 715.777483 228.768182 
L 706.831148 225.732723 
L 697.938718 222.707712 
L 689.102746 219.706805 
L 680.327706 216.747543 
L 671.619828 213.851011 
L 662.986945 211.041507 
L 654.438336 208.346227 
L 645.984585 205.794965 
L 637.637438 203.419814 
L 629.409667 201.25489 
L 621.314939 199.336053 
L 613.367686 197.700641 
L 605.582978 196.387216 
L 597.976406 195.435304 
L 590.563954 194.885146 
L 583.361887 194.777461 
L 576.386626 195.153193 
L 569.65464 196.053279 
L 563.182321 197.518402 
L 556.985874 199.588759 
L 551.081197 202.30381 
L 545.483763 205.702042 
L 540.208501 209.820719 
L 535.269676 214.69563 
L 530.68076 220.360831 
L 526.454312 226.848387 
L 522.601845 234.188094 
L 519.133689 242.407207 
L 516.058858 251.530147 
L 513.384904 261.578204 
L 511.117771 272.569229 
L 509.261639 284.517305 
L 507.818766 297.432418 
L 506.789323 311.320102 
L 506.171217 326.181075 
L 505.959912 342.010856 
L 506.148243 358.799362 
L 506.726215 376.530496 
L 507.680797 395.181703 
L 508.995712 414.723514 
L 510.651204 435.119065 
L 512.62381 456.323595 
L 514.88611 478.283918 
L 517.40647 500.937875 
L 520.148773 524.213754 
L 523.072142 548.029689 
L 526.130639 572.293029 
L 529.272968 596.899679 
L 532.442147 621.733408 
L 535.575176 646.665134 
L 538.602693 671.552169 
L 541.448606 696.237434 
L 544.029717 720.548646 
L 546.255325 744.29746 
L 548.026822 767.278585 
L 549.237256 789.268854 
L 549.770896 810.026268 
L 549.502765 829.288989 
L 548.298161 846.774298 
L 546.012157 862.177519 
L 542.489088 875.170887 
L 537.562008 885.402389 
L 531.052138 892.494547 
L 522.768284 896.043166 
L 512.506242 895.616031 
L 500.04818 890.751562 
L 485.16199 880.957411 
L 467.600631 865.709025 
L 447.101442 844.448147 
L 423.385427 816.581269 
L 396.15653 781.478036 
" clip-path="url(#p3f58fc6275)" style="fill: none; stroke: #8c564b; stroke-width: 1.5"/>
    <path d="M 1059.860801 492.32373 
L 1035.920221 464.329753 
L 1013.939961 439.828935 
L 993.572591 418.270905 
L 974.674077 399.35299 
L 957.109394 382.792826 
L 940.751374 368.327146 
L 925.479544 355.710809 
L 911.179069 344.716119 
L 897.739937 335.132465 
L 885.05655 326.766236 
L 873.027826 319.4409 
L 861.557834 312.997068 
L 850.556852 307.292349 
L 839.942643 302.200859 
L 829.641658 297.612352 
L 819.589929 293.431021 
L 809.733484 289.574146 
L 800.028245 285.970723 
L 780.940901 279.291589 
L 752.827647 269.951463 
L 716.023972 257.748321 
L 654.633472 237.116942 
L 638.281923 232.070603 
L 630.406276 229.829617 
L 622.767268 227.81961 
L 615.396481 226.072381 
L 608.329054 224.618024 
L 601.60357 223.483309 
L 595.261381 222.689626 
L 589.344902 222.250501 
L 583.894219 222.169002 
L 578.941279 222.435799 
L 574.501222 223.029447 
L 570.561686 223.921231 
L 567.073303 225.086769 
L 563.947375 226.524113 
L 561.066898 228.272867 
L 558.311544 230.424117 
L 555.587636 233.112775 
L 552.848887 236.493871 
L 550.099292 240.714472 
L 547.380836 245.893665 
L 544.755476 252.115453 
L 542.289579 259.431702 
L 540.044112 267.869611 
L 538.07013 277.439444 
L 536.407714 288.140556 
L 535.086652 299.965345 
L 534.127744 312.901472 
L 533.544142 326.932875 
L 533.342483 342.040023 
L 533.52376 358.199711 
L 534.083927 375.384619 
L 535.014296 393.562736 
L 536.30177 412.69673 
L 537.928936 432.7433 
L 539.87407 453.65252 
L 542.111063 475.36719 
L 544.609289 497.822204 
L 547.33343 520.943924 
L 553.293408 568.846664 
L 562.755319 643.35866 
L 565.803047 668.416296 
L 568.676103 693.346703 
L 571.29079 717.993887 
L 573.554859 742.19308 
L 575.365957 765.773727 
L 576.608733 788.565177 
L 577.148765 810.40736 
L 576.81854 831.170837 
L 575.382035 850.793836 
L 573.096032 866.197057 
L 572.438488 869.34285 
L 568.915419 882.336219 
L 568.145336 884.733832 
L 567.158228 887.050553 
L 562.231149 897.282055 
L 560.951251 899.637425 
L 559.447165 901.856351 
L 557.733306 903.917563 
L 551.223436 911.009721 
L 549.154095 913.03748 
L 546.882075 914.835228 
L 544.432814 916.382838 
L 541.833735 917.662981 
L 531.263267 922.072538 
L 528.909007 922.726203 
L 526.505848 923.16739 
L 524.072927 923.392587 
L 521.629617 923.4 
L 511.367575 922.972865 
L 508.365288 922.681608 
L 505.413257 922.061872 
L 502.547308 921.121179 
L 490.089246 916.256709 
L 487.474965 915.074539 
L 484.998745 913.62529 
L 470.112555 903.831139 
L 467.210469 901.631933 
L 447.889821 884.713679 
L 426.24992 862.193766 
L 401.750583 833.362998 
L 374.521686 798.259766 
L 374.521686 798.259766 
" clip-path="url(#p3f58fc6275)" style="fill: none; stroke: #17becf; stroke-width: 1.5"/>
   </g>
   <g id="patch_3">
    <path d="M 338.173854 961.2 
L 338.173854 129.6 
" style="fill: none; stroke: #000000; stroke-width: 0.8; stroke-linejoin: miter; stroke-linecap: square"/>
   </g>
   <g id="patch_4">
    <path d="M 1137.826146 961.2 
L 1137.826146 129.6 
" style="fill: none; stroke: #000000; stroke-width: 0.8; stroke-linejoin: miter; stroke-linecap: square"/>
   </g>
   <g id="patch_5">
    <path d="M 338.173854 961.2 
L 1137.826146 961.2 
" style="fill: none; stroke: #000000; stroke-width: 0.8; stroke-linejoin: miter; stroke-linecap: square"/>
   </g>
   <g id="patch_6">
    <path d="M 338.173854 129.6 
L 1137.826146 129.6 
" style="fill: none; stroke: #000000; stroke-width: 0.8; stroke-linejoin: miter; stroke-linecap: square"/>
   </g>
  </g>
 </g>
 <defs>
  <clipPath id="p3f58fc6275">
   <rect x="338.173854" y="129.6" width="799.652291" height="831.6"/>
  </clipPath>
 </defs>
</svg>
