<?xml version="1.0" encoding="utf-8" standalone="no"?>
<!DOCTYPE svg PUBLIC "-//W3C//DTD SVG 1.1//EN"
  "http://www.w3.org/Graphics/SVG/1.1/DTD/svg11.dtd">
<svg xmlns:xlink="http://www.w3.org/1999/xlink" width="1440pt" height="1080pt" viewBox="0 0 1440 1080" xmlns="http://www.w3.org/2000/svg" version="1.1">
 <metadata>
  <rdf:RDF xmlns:dc="http://purl.org/dc/elements/1.1/" xmlns:cc="http://creativecommons.org/ns#" xmlns:rdf="http://www.w3.org/1999/02/22-rdf-syntax-ns#">
   <cc:Work>
    <dc:type rdf:resource="http://purl.org/dc/dcmitype/StillImage"/>
    <dc:date>2023-12-11T12:07:00.771126</dc:date>
    <dc:format>image/svg+xml</dc:format>
    <dc:creator>
     <cc:Agent>
      <dc:title>Matplotlib v3.7.1, https://matplotlib.org/</dc:title>
     </cc:Agent>
    </dc:creator>
   </cc:Work>
  </rdf:RDF>
 </metadata>
 <defs>
  <style type="text/css">*{stroke-linejoin: round; stroke-linecap: butt}</style>
 </defs>
 <g id="figure_1">
  <g id="patch_1">
   <path d="M 0 1080 
L 1440 1080 
L 1440 0 
L 0 0 
z
" style="fill: #ffffff"/>
  </g>
  <g id="axes_1">
   <g id="patch_2">
    <path d="M 180 857.717894 
L 1296 857.717894 
L 1296 233.082106 
L 180 233.082106 
z
" style="fill: #ffffff"/>
   </g>
   <g id="matplotlib.axis_1">
    <g id="xtick_1">
     <g id="line2d_1">
      <defs>
       <path id="m3478af4be7" d="M 0 0 
L 0 3.5 
" style="stroke: #000000; stroke-width: 0.8"/>
      </defs>
      <g>
       <use xlink:href="#m3478af4be7" x="247.829056" y="857.717894" style="stroke: #000000; stroke-width: 0.8"/>
      </g>
     </g>
     <g id="text_1">
      <!-- 600 -->
      <g transform="translate(238.285306 872.316332) scale(0.1 -0.1)">
       <defs>
        <path id="DejaVuSans-36" d="M 2113 2584 
Q 1688 2584 1439 2293 
Q 1191 2003 1191 1497 
Q 1191 994 1439 701 
Q 1688 409 2113 409 
Q 2538 409 2786 701 
Q 3034 994 3034 1497 
Q 3034 2003 2786 2293 
Q 2538 2584 2113 2584 
z
M 3366 4563 
L 3366 3988 
Q 3128 4100 2886 4159 
Q 2644 4219 2406 4219 
Q 1781 4219 1451 3797 
Q 1122 3375 1075 2522 
Q 1259 2794 1537 2939 
Q 1816 3084 2150 3084 
Q 2853 3084 3261 2657 
Q 3669 2231 3669 1497 
Q 3669 778 3244 343 
Q 2819 -91 2113 -91 
Q 1303 -91 875 529 
Q 447 1150 447 2328 
Q 447 3434 972 4092 
Q 1497 4750 2381 4750 
Q 2619 4750 2861 4703 
Q 3103 4656 3366 4563 
z
" transform="scale(0.015625)"/>
        <path id="DejaVuSans-30" d="M 2034 4250 
Q 1547 4250 1301 3770 
Q 1056 3291 1056 2328 
Q 1056 1369 1301 889 
Q 1547 409 2034 409 
Q 2525 409 2770 889 
Q 3016 1369 3016 2328 
Q 3016 3291 2770 3770 
Q 2525 4250 2034 4250 
z
M 2034 4750 
Q 2819 4750 3233 4129 
Q 3647 3509 3647 2328 
Q 3647 1150 3233 529 
Q 2819 -91 2034 -91 
Q 1250 -91 836 529 
Q 422 1150 422 2328 
Q 422 3509 836 4129 
Q 1250 4750 2034 4750 
z
" transform="scale(0.015625)"/>
       </defs>
       <use xlink:href="#DejaVuSans-36"/>
       <use xlink:href="#DejaVuSans-30" x="63.623047"/>
       <use xlink:href="#DejaVuSans-30" x="127.246094"/>
      </g>
     </g>
    </g>
    <g id="xtick_2">
     <g id="line2d_2">
      <g>
       <use xlink:href="#m3478af4be7" x="449.757753" y="857.717894" style="stroke: #000000; stroke-width: 0.8"/>
      </g>
     </g>
     <g id="text_2">
      <!-- 800 -->
      <g transform="translate(440.214003 872.316332) scale(0.1 -0.1)">
       <defs>
        <path id="DejaVuSans-38" d="M 2034 2216 
Q 1584 2216 1326 1975 
Q 1069 1734 1069 1313 
Q 1069 891 1326 650 
Q 1584 409 2034 409 
Q 2484 409 2743 651 
Q 3003 894 3003 1313 
Q 3003 1734 2745 1975 
Q 2488 2216 2034 2216 
z
M 1403 2484 
Q 997 2584 770 2862 
Q 544 3141 544 3541 
Q 544 4100 942 4425 
Q 1341 4750 2034 4750 
Q 2731 4750 3128 4425 
Q 3525 4100 3525 3541 
Q 3525 3141 3298 2862 
Q 3072 2584 2669 2484 
Q 3125 2378 3379 2068 
Q 3634 1759 3634 1313 
Q 3634 634 3220 271 
Q 2806 -91 2034 -91 
Q 1263 -91 848 271 
Q 434 634 434 1313 
Q 434 1759 690 2068 
Q 947 2378 1403 2484 
z
M 1172 3481 
Q 1172 3119 1398 2916 
Q 1625 2713 2034 2713 
Q 2441 2713 2670 2916 
Q 2900 3119 2900 3481 
Q 2900 3844 2670 4047 
Q 2441 4250 2034 4250 
Q 1625 4250 1398 4047 
Q 1172 3844 1172 3481 
z
" transform="scale(0.015625)"/>
       </defs>
       <use xlink:href="#DejaVuSans-38"/>
       <use xlink:href="#DejaVuSans-30" x="63.623047"/>
       <use xlink:href="#DejaVuSans-30" x="127.246094"/>
      </g>
     </g>
    </g>
    <g id="xtick_3">
     <g id="line2d_3">
      <g>
       <use xlink:href="#m3478af4be7" x="651.68645" y="857.717894" style="stroke: #000000; stroke-width: 0.8"/>
      </g>
     </g>
     <g id="text_3">
      <!-- 1000 -->
      <g transform="translate(638.96145 872.316332) scale(0.1 -0.1)">
       <defs>
        <path id="DejaVuSans-31" d="M 794 531 
L 1825 531 
L 1825 4091 
L 703 3866 
L 703 4441 
L 1819 4666 
L 2450 4666 
L 2450 531 
L 3481 531 
L 3481 0 
L 794 0 
L 794 531 
z
" transform="scale(0.015625)"/>
       </defs>
       <use xlink:href="#DejaVuSans-31"/>
       <use xlink:href="#DejaVuSans-30" x="63.623047"/>
       <use xlink:href="#DejaVuSans-30" x="127.246094"/>
       <use xlink:href="#DejaVuSans-30" x="190.869141"/>
      </g>
     </g>
    </g>
    <g id="xtick_4">
     <g id="line2d_4">
      <g>
       <use xlink:href="#m3478af4be7" x="853.615147" y="857.717894" style="stroke: #000000; stroke-width: 0.8"/>
      </g>
     </g>
     <g id="text_4">
      <!-- 1200 -->
      <g transform="translate(840.890147 872.316332) scale(0.1 -0.1)">
       <defs>
        <path id="DejaVuSans-32" d="M 1228 531 
L 3431 531 
L 3431 0 
L 469 0 
L 469 531 
Q 828 903 1448 1529 
Q 2069 2156 2228 2338 
Q 2531 2678 2651 2914 
Q 2772 3150 2772 3378 
Q 2772 3750 2511 3984 
Q 2250 4219 1831 4219 
Q 1534 4219 1204 4116 
Q 875 4013 500 3803 
L 500 4441 
Q 881 4594 1212 4672 
Q 1544 4750 1819 4750 
Q 2544 4750 2975 4387 
Q 3406 4025 3406 3419 
Q 3406 3131 3298 2873 
Q 3191 2616 2906 2266 
Q 2828 2175 2409 1742 
Q 1991 1309 1228 531 
z
" transform="scale(0.015625)"/>
       </defs>
       <use xlink:href="#DejaVuSans-31"/>
       <use xlink:href="#DejaVuSans-32" x="63.623047"/>
       <use xlink:href="#DejaVuSans-30" x="127.246094"/>
       <use xlink:href="#DejaVuSans-30" x="190.869141"/>
      </g>
     </g>
    </g>
    <g id="xtick_5">
     <g id="line2d_5">
      <g>
       <use xlink:href="#m3478af4be7" x="1055.543844" y="857.717894" style="stroke: #000000; stroke-width: 0.8"/>
      </g>
     </g>
     <g id="text_5">
      <!-- 1400 -->
      <g transform="translate(1042.818844 872.316332) scale(0.1 -0.1)">
       <defs>
        <path id="DejaVuSans-34" d="M 2419 4116 
L 825 1625 
L 2419 1625 
L 2419 4116 
z
M 2253 4666 
L 3047 4666 
L 3047 1625 
L 3713 1625 
L 3713 1100 
L 3047 1100 
L 3047 0 
L 2419 0 
L 2419 1100 
L 313 1100 
L 313 1709 
L 2253 4666 
z
" transform="scale(0.015625)"/>
       </defs>
       <use xlink:href="#DejaVuSans-31"/>
       <use xlink:href="#DejaVuSans-34" x="63.623047"/>
       <use xlink:href="#DejaVuSans-30" x="127.246094"/>
       <use xlink:href="#DejaVuSans-30" x="190.869141"/>
      </g>
     </g>
    </g>
    <g id="xtick_6">
     <g id="line2d_6">
      <g>
       <use xlink:href="#m3478af4be7" x="1257.472541" y="857.717894" style="stroke: #000000; stroke-width: 0.8"/>
      </g>
     </g>
     <g id="text_6">
      <!-- 1600 -->
      <g transform="translate(1244.747541 872.316332) scale(0.1 -0.1)">
       <use xlink:href="#DejaVuSans-31"/>
       <use xlink:href="#DejaVuSans-36" x="63.623047"/>
       <use xlink:href="#DejaVuSans-30" x="127.246094"/>
       <use xlink:href="#DejaVuSans-30" x="190.869141"/>
      </g>
     </g>
    </g>
   </g>
   <g id="matplotlib.axis_2">
    <g id="ytick_1">
     <g id="line2d_7">
      <defs>
       <path id="m9e9eaec013" d="M 0 0 
L -3.5 0 
" style="stroke: #000000; stroke-width: 0.8"/>
      </defs>
      <g>
       <use xlink:href="#m9e9eaec013" x="180" y="805.0173" style="stroke: #000000; stroke-width: 0.8"/>
      </g>
     </g>
     <g id="text_7">
      <!-- 300 -->
      <g transform="translate(153.9125 808.816519) scale(0.1 -0.1)">
       <defs>
        <path id="DejaVuSans-33" d="M 2597 2516 
Q 3050 2419 3304 2112 
Q 3559 1806 3559 1356 
Q 3559 666 3084 287 
Q 2609 -91 1734 -91 
Q 1441 -91 1130 -33 
Q 819 25 488 141 
L 488 750 
Q 750 597 1062 519 
Q 1375 441 1716 441 
Q 2309 441 2620 675 
Q 2931 909 2931 1356 
Q 2931 1769 2642 2001 
Q 2353 2234 1838 2234 
L 1294 2234 
L 1294 2753 
L 1863 2753 
Q 2328 2753 2575 2939 
Q 2822 3125 2822 3475 
Q 2822 3834 2567 4026 
Q 2313 4219 1838 4219 
Q 1578 4219 1281 4162 
Q 984 4106 628 3988 
L 628 4550 
Q 988 4650 1302 4700 
Q 1616 4750 1894 4750 
Q 2613 4750 3031 4423 
Q 3450 4097 3450 3541 
Q 3450 3153 3228 2886 
Q 3006 2619 2597 2516 
z
" transform="scale(0.015625)"/>
       </defs>
       <use xlink:href="#DejaVuSans-33"/>
       <use xlink:href="#DejaVuSans-30" x="63.623047"/>
       <use xlink:href="#DejaVuSans-30" x="127.246094"/>
      </g>
     </g>
    </g>
    <g id="ytick_2">
     <g id="line2d_8">
      <g>
       <use xlink:href="#m9e9eaec013" x="180" y="704.052952" style="stroke: #000000; stroke-width: 0.8"/>
      </g>
     </g>
     <g id="text_8">
      <!-- 400 -->
      <g transform="translate(153.9125 707.852171) scale(0.1 -0.1)">
       <use xlink:href="#DejaVuSans-34"/>
       <use xlink:href="#DejaVuSans-30" x="63.623047"/>
       <use xlink:href="#DejaVuSans-30" x="127.246094"/>
      </g>
     </g>
    </g>
    <g id="ytick_3">
     <g id="line2d_9">
      <g>
       <use xlink:href="#m9e9eaec013" x="180" y="603.088603" style="stroke: #000000; stroke-width: 0.8"/>
      </g>
     </g>
     <g id="text_9">
      <!-- 500 -->
      <g transform="translate(153.9125 606.887822) scale(0.1 -0.1)">
       <defs>
        <path id="DejaVuSans-35" d="M 691 4666 
L 3169 4666 
L 3169 4134 
L 1269 4134 
L 1269 2991 
Q 1406 3038 1543 3061 
Q 1681 3084 1819 3084 
Q 2600 3084 3056 2656 
Q 3513 2228 3513 1497 
Q 3513 744 3044 326 
Q 2575 -91 1722 -91 
Q 1428 -91 1123 -41 
Q 819 9 494 109 
L 494 744 
Q 775 591 1075 516 
Q 1375 441 1709 441 
Q 2250 441 2565 725 
Q 2881 1009 2881 1497 
Q 2881 1984 2565 2268 
Q 2250 2553 1709 2553 
Q 1456 2553 1204 2497 
Q 953 2441 691 2322 
L 691 4666 
z
" transform="scale(0.015625)"/>
       </defs>
       <use xlink:href="#DejaVuSans-35"/>
       <use xlink:href="#DejaVuSans-30" x="63.623047"/>
       <use xlink:href="#DejaVuSans-30" x="127.246094"/>
      </g>
     </g>
    </g>
    <g id="ytick_4">
     <g id="line2d_10">
      <g>
       <use xlink:href="#m9e9eaec013" x="180" y="502.124255" style="stroke: #000000; stroke-width: 0.8"/>
      </g>
     </g>
     <g id="text_10">
      <!-- 600 -->
      <g transform="translate(153.9125 505.923474) scale(0.1 -0.1)">
       <use xlink:href="#DejaVuSans-36"/>
       <use xlink:href="#DejaVuSans-30" x="63.623047"/>
       <use xlink:href="#DejaVuSans-30" x="127.246094"/>
      </g>
     </g>
    </g>
    <g id="ytick_5">
     <g id="line2d_11">
      <g>
       <use xlink:href="#m9e9eaec013" x="180" y="401.159906" style="stroke: #000000; stroke-width: 0.8"/>
      </g>
     </g>
     <g id="text_11">
      <!-- 700 -->
      <g transform="translate(153.9125 404.959125) scale(0.1 -0.1)">
       <defs>
        <path id="DejaVuSans-37" d="M 525 4666 
L 3525 4666 
L 3525 4397 
L 1831 0 
L 1172 0 
L 2766 4134 
L 525 4134 
L 525 4666 
z
" transform="scale(0.015625)"/>
       </defs>
       <use xlink:href="#DejaVuSans-37"/>
       <use xlink:href="#DejaVuSans-30" x="63.623047"/>
       <use xlink:href="#DejaVuSans-30" x="127.246094"/>
      </g>
     </g>
    </g>
    <g id="ytick_6">
     <g id="line2d_12">
      <g>
       <use xlink:href="#m9e9eaec013" x="180" y="300.195558" style="stroke: #000000; stroke-width: 0.8"/>
      </g>
     </g>
     <g id="text_12">
      <!-- 800 -->
      <g transform="translate(153.9125 303.994777) scale(0.1 -0.1)">
       <use xlink:href="#DejaVuSans-38"/>
       <use xlink:href="#DejaVuSans-30" x="63.623047"/>
       <use xlink:href="#DejaVuSans-30" x="127.246094"/>
      </g>
     </g>
    </g>
   </g>
   <g id="LineCollection_1">
    <path d="M 230.727273 733.873474 
L 258.29522 756.268113 
L 283.953193 775.247325 
L 307.848032 791.038368 
L 330.124398 803.852787 
L 350.923276 813.883607 
L 370.377792 821.302124 
L 388.60505 826.25602 
L 405.694136 828.872293 
L 421.694641 829.269117 
L 435.05499 827.855259 
L 436.615292 827.576404 
L 448.93829 824.452514 
L 450.440936 823.955239 
L 463.162977 818.601231 
L 474.804647 811.727507 
L 485.426796 803.539983 
L 495.116915 794.220475 
L 503.973447 783.92241 
L 512.093922 772.77468 
L 519.568814 760.887913 
L 526.479567 748.359966 
L 532.898785 735.279749 
L 538.891249 721.729597 
L 544.515086 707.786646 
L 549.822825 693.523596 
L 554.862252 679.00915 
L 559.677087 664.308269 
L 564.307508 649.482347 
L 568.790566 634.589352 
L 577.449006 604.817634 
L 590.117641 560.893441 
L 594.357013 546.627255 
L 598.641755 532.614693 
L 602.991797 518.890847 
L 607.425455 505.488561 
L 611.959496 492.438549 
L 616.609198 479.769484 
L 621.388396 467.50809 
L 626.309519 455.679194 
L 631.383625 444.305763 
L 636.620439 433.408904 
L 642.0284 423.007833 
L 647.614726 413.119788 
L 653.385523 403.759918 
L 659.345944 394.941118 
L 665.500428 386.673851 
L 671.85303 378.965964 
L 678.407867 371.822561 
L 685.169638 365.245972 
L 692.14421 359.235895 
L 699.339163 353.789753 
L 706.764186 348.903291 
L 714.431205 344.571359 
L 722.354146 340.788764 
L 730.548313 337.551038 
L 739.029453 334.854924 
L 747.812691 332.698503 
L 756.911504 331.080909 
L 766.33692 330.001715 
L 776.097036 329.460142 
L 786.196844 329.454205 
L 796.638319 329.979947 
L 807.420675 331.03079 
L 818.540682 332.597039 
L 829.992999 334.665523 
L 841.770452 337.219323 
L 853.864248 340.237571 
L 866.26412 343.695272 
L 878.958411 347.563136 
L 891.934102 351.807396 
L 905.176797 356.389602 
L 918.670689 361.266399 
L 946.341454 371.704187 
L 989.291078 388.187777 
L 1003.89921 393.617421 
L 1018.608407 398.874051 
L 1033.392055 403.861764 
L 1048.222889 408.475175 
L 1063.073384 412.598035 
L 1077.916065 416.101258 
L 1092.723354 418.840108 
L 1107.466172 420.650303 
L 1122.109748 421.343276 
L 1136.604405 420.702147 
L 1150.869699 418.482849 
L 1163.259783 414.978049 
L 1164.775333 414.427708 
L 1177.38008 408.74602 
L 1178.132872 408.295271 
L 1190.028132 400.47465 
L 1190.717588 399.892866 
L 1201.748539 389.743086 
L 1202.318995 389.081018 
L 1211.879125 377.059806 
L 1212.783843 375.736281 
L 1222.018794 359.701246 
L 1229.961749 340.757872 
L 1236.551301 318.629079 
L 1241.709642 292.992585 
L 1245.272727 264.202856 
L 1245.272727 264.202856 
" clip-path="url(#p6674a288be)" style="fill: none; stroke: #1f77b4; stroke-width: 1.5"/>
    <path d="M 237.732621 725.255465 
L 264.90417 747.342489 
L 290.083217 765.986235 
L 313.396676 781.417686 
L 334.965894 793.857543 
L 354.906808 803.516522 
L 373.33011 810.595641 
L 390.341403 815.286514 
L 406.041356 817.771644 
L 420.525868 818.224709 
L 433.886216 816.810851 
L 446.209214 813.686962 
L 457.577365 809.001965 
L 468.069008 802.897097 
L 477.758475 795.506189 
L 486.716232 786.955938 
L 495.009028 777.366179 
L 502.700039 766.850159 
L 509.84901 755.514795 
L 516.512395 743.460941 
L 522.743491 730.783642 
L 528.592579 717.572388 
L 534.107053 703.911363 
L 539.331549 689.879684 
L 544.308076 675.551644 
L 549.076139 660.996942 
L 553.672858 646.280911 
L 558.133092 631.464737 
L 562.48955 616.605676 
L 566.772906 601.757264 
L 571.011906 586.969514 
L 575.233477 572.289117 
L 579.462824 557.759623 
L 583.723534 543.42163 
L 588.037668 529.312949 
L 592.42585 515.468774 
L 596.90736 501.921838 
L 601.50021 488.702558 
L 606.221228 475.839182 
L 611.086128 463.357913 
L 616.109585 451.283035 
L 621.305299 439.637025 
L 626.686053 428.440654 
L 632.263774 417.713083 
L 638.049583 407.471945 
L 644.053841 397.733417 
L 650.28619 388.512283 
L 656.755595 379.821984 
L 663.470369 371.674659 
L 670.438203 364.081176 
L 677.666185 357.051144 
L 685.160817 350.592924 
L 692.928026 344.713619 
L 700.973162 339.419056 
L 709.301004 334.713753 
L 717.915747 330.600877 
L 726.820989 327.082186 
L 736.019713 324.157955 
L 745.51426 321.826898 
L 755.306296 320.086062 
L 765.396772 318.93072 
L 775.785882 318.354244 
L 786.473008 318.347963 
L 797.456662 318.901004 
L 808.734418 320.000128 
L 820.302846 321.629537 
L 832.157423 323.770676 
L 844.292452 326.402012 
L 856.700967 329.498805 
L 869.374631 333.032853 
L 882.303625 336.972229 
L 895.476533 341.280997 
L 908.880219 345.918909 
L 922.49969 350.841091 
L 936.317961 355.997706 
L 950.315905 361.333598 
L 964.472093 366.787929 
L 978.762637 372.293781 
L 993.16101 377.777753 
L 1007.637869 383.159534 
L 1022.160863 388.351454 
L 1036.694434 393.258025 
L 1051.199614 397.775452 
L 1065.633804 401.791128 
L 1079.950551 405.183115 
L 1094.099313 407.819594 
L 1108.025219 409.558304 
L 1121.66881 410.245954 
L 1134.965786 409.717617 
L 1147.846724 407.7961 
L 1160.236807 404.2913 
L 1172.055528 398.999527 
L 1183.216388 391.702813 
L 1193.626592 382.168196 
L 1203.186722 370.146984 
L 1211.79041 355.373992 
L 1219.323996 337.566758 
L 1225.66618 316.42474 
L 1230.687655 291.628478 
L 1234.250741 262.838749 
" clip-path="url(#p6674a288be)" style="fill: none; stroke: #8c564b; stroke-width: 1.5"/>
    <path d="M 244.737969 716.637457 
L 271.714794 738.566195 
L 296.45712 756.886572 
L 319.241546 771.967849 
L 340.167715 784.036834 
L 359.327156 793.317283 
L 376.80634 800.033626 
L 392.693115 804.414413 
L 407.08727 806.692849 
L 420.113166 807.10029 
L 431.927317 805.850058 
L 442.711053 803.116373 
L 452.645903 799.022062 
L 461.884394 793.646378 
L 470.534466 787.048297 
L 478.663317 779.289243 
L 486.31203 770.444299 
L 493.510019 760.602394 
L 500.284214 749.861274 
L 506.663199 738.32189 
L 512.678224 726.084192 
L 518.36279 713.244542 
L 523.751782 699.894372 
L 528.880614 686.119625 
L 533.784525 672.000656 
L 538.498072 657.612365 
L 543.054775 643.024443 
L 547.486891 628.30167 
L 556.099373 598.68794 
L 568.816851 554.596042 
L 573.102881 540.174061 
L 577.450698 525.957201 
L 581.881756 511.980645 
L 586.416435 498.276915 
L 591.074142 484.876063 
L 595.873415 471.805852 
L 600.832031 459.091947 
L 605.967103 446.758101 
L 611.29518 434.82636 
L 616.832322 423.317279 
L 622.594159 412.25016 
L 628.595906 401.643312 
L 634.852325 391.514327 
L 641.377608 381.880379 
L 648.185169 372.758502 
L 655.287312 364.165828 
L 662.694795 356.11973 
L 670.416306 348.637807 
L 678.457908 341.737644 
L 686.822565 335.436318 
L 695.509865 329.749652 
L 704.516062 324.691313 
L 713.83449 320.271873 
L 723.45634 316.498041 
L 733.371642 313.372192 
L 743.570294 310.892275 
L 754.042924 309.052075 
L 764.781459 307.8417 
L 775.779354 307.248168 
L 787.031507 307.255936 
L 798.53395 307.847298 
L 810.283416 309.002602 
L 822.276853 310.700298 
L 834.510949 312.916834 
L 846.98171 315.626444 
L 859.684086 318.800862 
L 872.611653 322.40898 
L 885.756337 326.416484 
L 899.108173 330.785466 
L 912.655077 335.474034 
L 926.382629 340.435912 
L 954.308903 350.970156 
L 997.072542 367.383194 
L 1011.442315 372.725165 
L 1025.806707 377.860386 
L 1040.122332 382.693378 
L 1054.339901 387.121232 
L 1068.403415 391.033784 
L 1082.24935 394.314224 
L 1095.806072 396.840383 
L 1108.994042 398.486959 
L 1121.727985 399.128761 
L 1133.922948 398.64421 
L 1145.506416 396.916245 
L 1156.436029 393.82457 
L 1166.714307 389.222522 
L 1176.382099 382.901942 
L 1185.479422 374.569782 
L 1193.994071 363.86319 
L 1201.837488 350.395624 
L 1208.859997 333.79643 
L 1214.882123 313.721343 
L 1219.717988 289.84163 
L 1223.228754 261.474642 
L 1223.228754 261.474642 
" clip-path="url(#p6674a288be)" style="fill: none; stroke: #17becf; stroke-width: 1.5"/>
   </g>
   <g id="patch_3">
    <path d="M 180 857.717894 
L 180 233.082106 
" style="fill: none; stroke: #000000; stroke-width: 0.8; stroke-linejoin: miter; stroke-linecap: square"/>
   </g>
   <g id="patch_4">
    <path d="M 1296 857.717894 
L 1296 233.082106 
" style="fill: none; stroke: #000000; stroke-width: 0.8; stroke-linejoin: miter; stroke-linecap: square"/>
   </g>
   <g id="patch_5">
    <path d="M 180 857.717894 
L 1296 857.717894 
" style="fill: none; stroke: #000000; stroke-width: 0.8; stroke-linejoin: miter; stroke-linecap: square"/>
   </g>
   <g id="patch_6">
    <path d="M 180 233.082106 
L 1296 233.082106 
" style="fill: none; stroke: #000000; stroke-width: 0.8; stroke-linejoin: miter; stroke-linecap: square"/>
   </g>
  </g>
 </g>
 <defs>
  <clipPath id="p6674a288be">
   <rect x="180" y="233.082106" width="1116" height="624.635788"/>
  </clipPath>
 </defs>
</svg>
