<?xml version="1.0" encoding="utf-8" standalone="no"?>
<!DOCTYPE svg PUBLIC "-//W3C//DTD SVG 1.1//EN"
  "http://www.w3.org/Graphics/SVG/1.1/DTD/svg11.dtd">
<svg xmlns:xlink="http://www.w3.org/1999/xlink" width="1440pt" height="1080pt" viewBox="0 0 1440 1080" xmlns="http://www.w3.org/2000/svg" version="1.1">
 <metadata>
  <rdf:RDF xmlns:dc="http://purl.org/dc/elements/1.1/" xmlns:cc="http://creativecommons.org/ns#" xmlns:rdf="http://www.w3.org/1999/02/22-rdf-syntax-ns#">
   <cc:Work>
    <dc:type rdf:resource="http://purl.org/dc/dcmitype/StillImage"/>
    <dc:date>2023-12-11T12:07:02.692093</dc:date>
    <dc:format>image/svg+xml</dc:format>
    <dc:creator>
     <cc:Agent>
      <dc:title>Matplotlib v3.7.1, https://matplotlib.org/</dc:title>
     </cc:Agent>
    </dc:creator>
   </cc:Work>
  </rdf:RDF>
 </metadata>
 <defs>
  <style type="text/css">*{stroke-linejoin: round; stroke-linecap: butt}</style>
 </defs>
 <g id="figure_1">
  <g id="patch_1">
   <path d="M 0 1080 
L 1440 1080 
L 1440 0 
L 0 0 
z
" style="fill: #ffffff"/>
  </g>
  <g id="axes_1">
   <g id="patch_2">
    <path d="M 180 786.290742 
L 1296 786.290742 
L 1296 304.509258 
L 180 304.509258 
z
" style="fill: #ffffff"/>
   </g>
   <g id="matplotlib.axis_1">
    <g id="xtick_1">
     <g id="line2d_1">
      <defs>
       <path id="m0dbd17773c" d="M 0 0 
L 0 3.5 
" style="stroke: #000000; stroke-width: 0.8"/>
      </defs>
      <g>
       <use xlink:href="#m0dbd17773c" x="259.62957" y="786.290742" style="stroke: #000000; stroke-width: 0.8"/>
      </g>
     </g>
     <g id="text_1">
      <!-- 600 -->
      <g transform="translate(250.08582 800.889179) scale(0.1 -0.1)">
       <defs>
        <path id="DejaVuSans-36" d="M 2113 2584 
Q 1688 2584 1439 2293 
Q 1191 2003 1191 1497 
Q 1191 994 1439 701 
Q 1688 409 2113 409 
Q 2538 409 2786 701 
Q 3034 994 3034 1497 
Q 3034 2003 2786 2293 
Q 2538 2584 2113 2584 
z
M 3366 4563 
L 3366 3988 
Q 3128 4100 2886 4159 
Q 2644 4219 2406 4219 
Q 1781 4219 1451 3797 
Q 1122 3375 1075 2522 
Q 1259 2794 1537 2939 
Q 1816 3084 2150 3084 
Q 2853 3084 3261 2657 
Q 3669 2231 3669 1497 
Q 3669 778 3244 343 
Q 2819 -91 2113 -91 
Q 1303 -91 875 529 
Q 447 1150 447 2328 
Q 447 3434 972 4092 
Q 1497 4750 2381 4750 
Q 2619 4750 2861 4703 
Q 3103 4656 3366 4563 
z
" transform="scale(0.015625)"/>
        <path id="DejaVuSans-30" d="M 2034 4250 
Q 1547 4250 1301 3770 
Q 1056 3291 1056 2328 
Q 1056 1369 1301 889 
Q 1547 409 2034 409 
Q 2525 409 2770 889 
Q 3016 1369 3016 2328 
Q 3016 3291 2770 3770 
Q 2525 4250 2034 4250 
z
M 2034 4750 
Q 2819 4750 3233 4129 
Q 3647 3509 3647 2328 
Q 3647 1150 3233 529 
Q 2819 -91 2034 -91 
Q 1250 -91 836 529 
Q 422 1150 422 2328 
Q 422 3509 836 4129 
Q 1250 4750 2034 4750 
z
" transform="scale(0.015625)"/>
       </defs>
       <use xlink:href="#DejaVuSans-36"/>
       <use xlink:href="#DejaVuSans-30" x="63.623047"/>
       <use xlink:href="#DejaVuSans-30" x="127.246094"/>
      </g>
     </g>
    </g>
    <g id="xtick_2">
     <g id="line2d_2">
      <g>
       <use xlink:href="#m0dbd17773c" x="436.278978" y="786.290742" style="stroke: #000000; stroke-width: 0.8"/>
      </g>
     </g>
     <g id="text_2">
      <!-- 800 -->
      <g transform="translate(426.735228 800.889179) scale(0.1 -0.1)">
       <defs>
        <path id="DejaVuSans-38" d="M 2034 2216 
Q 1584 2216 1326 1975 
Q 1069 1734 1069 1313 
Q 1069 891 1326 650 
Q 1584 409 2034 409 
Q 2484 409 2743 651 
Q 3003 894 3003 1313 
Q 3003 1734 2745 1975 
Q 2488 2216 2034 2216 
z
M 1403 2484 
Q 997 2584 770 2862 
Q 544 3141 544 3541 
Q 544 4100 942 4425 
Q 1341 4750 2034 4750 
Q 2731 4750 3128 4425 
Q 3525 4100 3525 3541 
Q 3525 3141 3298 2862 
Q 3072 2584 2669 2484 
Q 3125 2378 3379 2068 
Q 3634 1759 3634 1313 
Q 3634 634 3220 271 
Q 2806 -91 2034 -91 
Q 1263 -91 848 271 
Q 434 634 434 1313 
Q 434 1759 690 2068 
Q 947 2378 1403 2484 
z
M 1172 3481 
Q 1172 3119 1398 2916 
Q 1625 2713 2034 2713 
Q 2441 2713 2670 2916 
Q 2900 3119 2900 3481 
Q 2900 3844 2670 4047 
Q 2441 4250 2034 4250 
Q 1625 4250 1398 4047 
Q 1172 3844 1172 3481 
z
" transform="scale(0.015625)"/>
       </defs>
       <use xlink:href="#DejaVuSans-38"/>
       <use xlink:href="#DejaVuSans-30" x="63.623047"/>
       <use xlink:href="#DejaVuSans-30" x="127.246094"/>
      </g>
     </g>
    </g>
    <g id="xtick_3">
     <g id="line2d_3">
      <g>
       <use xlink:href="#m0dbd17773c" x="612.928386" y="786.290742" style="stroke: #000000; stroke-width: 0.8"/>
      </g>
     </g>
     <g id="text_3">
      <!-- 1000 -->
      <g transform="translate(600.203386 800.889179) scale(0.1 -0.1)">
       <defs>
        <path id="DejaVuSans-31" d="M 794 531 
L 1825 531 
L 1825 4091 
L 703 3866 
L 703 4441 
L 1819 4666 
L 2450 4666 
L 2450 531 
L 3481 531 
L 3481 0 
L 794 0 
L 794 531 
z
" transform="scale(0.015625)"/>
       </defs>
       <use xlink:href="#DejaVuSans-31"/>
       <use xlink:href="#DejaVuSans-30" x="63.623047"/>
       <use xlink:href="#DejaVuSans-30" x="127.246094"/>
       <use xlink:href="#DejaVuSans-30" x="190.869141"/>
      </g>
     </g>
    </g>
    <g id="xtick_4">
     <g id="line2d_4">
      <g>
       <use xlink:href="#m0dbd17773c" x="789.577794" y="786.290742" style="stroke: #000000; stroke-width: 0.8"/>
      </g>
     </g>
     <g id="text_4">
      <!-- 1200 -->
      <g transform="translate(776.852794 800.889179) scale(0.1 -0.1)">
       <defs>
        <path id="DejaVuSans-32" d="M 1228 531 
L 3431 531 
L 3431 0 
L 469 0 
L 469 531 
Q 828 903 1448 1529 
Q 2069 2156 2228 2338 
Q 2531 2678 2651 2914 
Q 2772 3150 2772 3378 
Q 2772 3750 2511 3984 
Q 2250 4219 1831 4219 
Q 1534 4219 1204 4116 
Q 875 4013 500 3803 
L 500 4441 
Q 881 4594 1212 4672 
Q 1544 4750 1819 4750 
Q 2544 4750 2975 4387 
Q 3406 4025 3406 3419 
Q 3406 3131 3298 2873 
Q 3191 2616 2906 2266 
Q 2828 2175 2409 1742 
Q 1991 1309 1228 531 
z
" transform="scale(0.015625)"/>
       </defs>
       <use xlink:href="#DejaVuSans-31"/>
       <use xlink:href="#DejaVuSans-32" x="63.623047"/>
       <use xlink:href="#DejaVuSans-30" x="127.246094"/>
       <use xlink:href="#DejaVuSans-30" x="190.869141"/>
      </g>
     </g>
    </g>
    <g id="xtick_5">
     <g id="line2d_5">
      <g>
       <use xlink:href="#m0dbd17773c" x="966.227203" y="786.290742" style="stroke: #000000; stroke-width: 0.8"/>
      </g>
     </g>
     <g id="text_5">
      <!-- 1400 -->
      <g transform="translate(953.502203 800.889179) scale(0.1 -0.1)">
       <defs>
        <path id="DejaVuSans-34" d="M 2419 4116 
L 825 1625 
L 2419 1625 
L 2419 4116 
z
M 2253 4666 
L 3047 4666 
L 3047 1625 
L 3713 1625 
L 3713 1100 
L 3047 1100 
L 3047 0 
L 2419 0 
L 2419 1100 
L 313 1100 
L 313 1709 
L 2253 4666 
z
" transform="scale(0.015625)"/>
       </defs>
       <use xlink:href="#DejaVuSans-31"/>
       <use xlink:href="#DejaVuSans-34" x="63.623047"/>
       <use xlink:href="#DejaVuSans-30" x="127.246094"/>
       <use xlink:href="#DejaVuSans-30" x="190.869141"/>
      </g>
     </g>
    </g>
    <g id="xtick_6">
     <g id="line2d_6">
      <g>
       <use xlink:href="#m0dbd17773c" x="1142.876611" y="786.290742" style="stroke: #000000; stroke-width: 0.8"/>
      </g>
     </g>
     <g id="text_6">
      <!-- 1600 -->
      <g transform="translate(1130.151611 800.889179) scale(0.1 -0.1)">
       <use xlink:href="#DejaVuSans-31"/>
       <use xlink:href="#DejaVuSans-36" x="63.623047"/>
       <use xlink:href="#DejaVuSans-30" x="127.246094"/>
       <use xlink:href="#DejaVuSans-30" x="190.869141"/>
      </g>
     </g>
    </g>
   </g>
   <g id="matplotlib.axis_2">
    <g id="ytick_1">
     <g id="line2d_7">
      <defs>
       <path id="mb76bc61b93" d="M 0 0 
L -3.5 0 
" style="stroke: #000000; stroke-width: 0.8"/>
      </defs>
      <g>
       <use xlink:href="#mb76bc61b93" x="180" y="751.787628" style="stroke: #000000; stroke-width: 0.8"/>
      </g>
     </g>
     <g id="text_7">
      <!-- 800 -->
      <g transform="translate(153.9125 755.586846) scale(0.1 -0.1)">
       <use xlink:href="#DejaVuSans-38"/>
       <use xlink:href="#DejaVuSans-30" x="63.623047"/>
       <use xlink:href="#DejaVuSans-30" x="127.246094"/>
      </g>
     </g>
    </g>
    <g id="ytick_2">
     <g id="line2d_8">
      <g>
       <use xlink:href="#mb76bc61b93" x="180" y="663.462923" style="stroke: #000000; stroke-width: 0.8"/>
      </g>
     </g>
     <g id="text_8">
      <!-- 900 -->
      <g transform="translate(153.9125 667.262142) scale(0.1 -0.1)">
       <defs>
        <path id="DejaVuSans-39" d="M 703 97 
L 703 672 
Q 941 559 1184 500 
Q 1428 441 1663 441 
Q 2288 441 2617 861 
Q 2947 1281 2994 2138 
Q 2813 1869 2534 1725 
Q 2256 1581 1919 1581 
Q 1219 1581 811 2004 
Q 403 2428 403 3163 
Q 403 3881 828 4315 
Q 1253 4750 1959 4750 
Q 2769 4750 3195 4129 
Q 3622 3509 3622 2328 
Q 3622 1225 3098 567 
Q 2575 -91 1691 -91 
Q 1453 -91 1209 -44 
Q 966 3 703 97 
z
M 1959 2075 
Q 2384 2075 2632 2365 
Q 2881 2656 2881 3163 
Q 2881 3666 2632 3958 
Q 2384 4250 1959 4250 
Q 1534 4250 1286 3958 
Q 1038 3666 1038 3163 
Q 1038 2656 1286 2365 
Q 1534 2075 1959 2075 
z
" transform="scale(0.015625)"/>
       </defs>
       <use xlink:href="#DejaVuSans-39"/>
       <use xlink:href="#DejaVuSans-30" x="63.623047"/>
       <use xlink:href="#DejaVuSans-30" x="127.246094"/>
      </g>
     </g>
    </g>
    <g id="ytick_3">
     <g id="line2d_9">
      <g>
       <use xlink:href="#mb76bc61b93" x="180" y="575.138219" style="stroke: #000000; stroke-width: 0.8"/>
      </g>
     </g>
     <g id="text_9">
      <!-- 1000 -->
      <g transform="translate(147.55 578.937438) scale(0.1 -0.1)">
       <use xlink:href="#DejaVuSans-31"/>
       <use xlink:href="#DejaVuSans-30" x="63.623047"/>
       <use xlink:href="#DejaVuSans-30" x="127.246094"/>
       <use xlink:href="#DejaVuSans-30" x="190.869141"/>
      </g>
     </g>
    </g>
    <g id="ytick_4">
     <g id="line2d_10">
      <g>
       <use xlink:href="#mb76bc61b93" x="180" y="486.813515" style="stroke: #000000; stroke-width: 0.8"/>
      </g>
     </g>
     <g id="text_10">
      <!-- 1100 -->
      <g transform="translate(147.55 490.612734) scale(0.1 -0.1)">
       <use xlink:href="#DejaVuSans-31"/>
       <use xlink:href="#DejaVuSans-31" x="63.623047"/>
       <use xlink:href="#DejaVuSans-30" x="127.246094"/>
       <use xlink:href="#DejaVuSans-30" x="190.869141"/>
      </g>
     </g>
    </g>
    <g id="ytick_5">
     <g id="line2d_11">
      <g>
       <use xlink:href="#mb76bc61b93" x="180" y="398.488811" style="stroke: #000000; stroke-width: 0.8"/>
      </g>
     </g>
     <g id="text_11">
      <!-- 1200 -->
      <g transform="translate(147.55 402.28803) scale(0.1 -0.1)">
       <use xlink:href="#DejaVuSans-31"/>
       <use xlink:href="#DejaVuSans-32" x="63.623047"/>
       <use xlink:href="#DejaVuSans-30" x="127.246094"/>
       <use xlink:href="#DejaVuSans-30" x="190.869141"/>
      </g>
     </g>
    </g>
    <g id="ytick_6">
     <g id="line2d_12">
      <g>
       <use xlink:href="#mb76bc61b93" x="180" y="310.164107" style="stroke: #000000; stroke-width: 0.8"/>
      </g>
     </g>
     <g id="text_12">
      <!-- 1300 -->
      <g transform="translate(147.55 313.963326) scale(0.1 -0.1)">
       <defs>
        <path id="DejaVuSans-33" d="M 2597 2516 
Q 3050 2419 3304 2112 
Q 3559 1806 3559 1356 
Q 3559 666 3084 287 
Q 2609 -91 1734 -91 
Q 1441 -91 1130 -33 
Q 819 25 488 141 
L 488 750 
Q 750 597 1062 519 
Q 1375 441 1716 441 
Q 2309 441 2620 675 
Q 2931 909 2931 1356 
Q 2931 1769 2642 2001 
Q 2353 2234 1838 2234 
L 1294 2234 
L 1294 2753 
L 1863 2753 
Q 2328 2753 2575 2939 
Q 2822 3125 2822 3475 
Q 2822 3834 2567 4026 
Q 2313 4219 1838 4219 
Q 1578 4219 1281 4162 
Q 984 4106 628 3988 
L 628 4550 
Q 988 4650 1302 4700 
Q 1616 4750 1894 4750 
Q 2613 4750 3031 4423 
Q 3450 4097 3450 3541 
Q 3450 3153 3228 2886 
Q 3006 2619 2597 2516 
z
" transform="scale(0.015625)"/>
       </defs>
       <use xlink:href="#DejaVuSans-31"/>
       <use xlink:href="#DejaVuSans-33" x="63.623047"/>
       <use xlink:href="#DejaVuSans-30" x="127.246094"/>
       <use xlink:href="#DejaVuSans-30" x="190.869141"/>
      </g>
     </g>
    </g>
   </g>
   <g id="LineCollection_1">
    <path d="M 230.727273 414.373681 
L 245.089021 414.984842 
L 258.647304 416.206227 
L 271.870229 417.925929 
L 284.807028 420.024713 
L 297.500116 422.392369 
L 322.298906 427.535436 
L 346.596254 432.654675 
L 358.588053 435.008269 
L 370.497642 437.138117 
L 382.340165 438.990138 
L 394.127296 440.518382 
L 405.86736 441.685068 
L 417.565619 442.460585 
L 429.224701 442.823427 
L 440.84515 442.760001 
L 452.426013 442.26429 
L 463.965413 441.33736 
L 475.461032 439.986745 
L 486.910449 438.22575 
L 498.311338 436.072738 
L 509.661524 433.550436 
L 520.958932 430.685307 
L 532.201462 427.507 
L 543.386835 424.04788 
L 554.512432 420.34263 
L 565.575145 416.427921 
L 576.571259 412.342113 
L 587.496357 408.124996 
L 609.111959 399.461644 
L 640.891584 386.513471 
L 661.540511 378.421374 
L 671.669744 374.667777 
L 681.654154 371.164514 
L 691.482015 367.95145 
L 701.141208 365.066623 
L 710.619475 362.545794 
L 719.904812 360.421981 
L 728.986023 358.725011 
L 737.853487 357.481164 
L 746.500138 356.713016 
L 754.922607 356.439583 
L 763.122374 356.67693 
L 771.106691 357.439292 
L 778.888924 358.740653 
L 786.487991 360.596517 
L 793.92677 363.025398 
L 801.229635 366.049522 
L 808.419667 369.694377 
L 815.516217 373.987131 
L 822.533417 378.9543 
L 829.479846 384.61928 
L 836.35923 391.00027 
L 843.171765 398.108899 
L 849.915644 405.949573 
L 856.588469 414.519411 
L 863.188384 423.808533 
L 869.714866 433.800516 
L 876.169241 444.472867 
L 882.55497 455.797447 
L 888.877786 467.740797 
L 895.145735 480.264379 
L 901.36917 493.324724 
L 907.56073 506.873523 
L 913.735314 520.857668 
L 926.104435 549.895604 
L 945.053612 595.158183 
L 951.580724 610.396575 
L 958.264354 625.566728 
L 965.141638 640.578029 
L 972.254315 655.335371 
L 979.649852 669.73915 
L 987.383058 683.685017 
L 995.518304 697.063088 
L 1004.132385 709.755934 
L 1013.317608 721.634227 
L 1023.183535 732.54828 
L 1033.853159 742.313899 
L 1043.750232 749.611558 
L 1045.44568 750.694276 
L 1056.961011 756.953047 
L 1058.038017 757.389671 
L 1070.365548 761.782166 
L 1071.613475 762.059526 
L 1084.720251 764.332978 
L 1086.040534 764.391179 
L 1099.861815 764.337272 
L 1101.129015 764.174647 
L 1115.620791 761.638513 
L 1116.735855 761.3102 
L 1130.964653 756.514891 
L 1132.830211 755.742934 
L 1149.482155 747.392661 
L 1166.816164 736.124544 
L 1184.97262 721.752607 
L 1204.088562 704.053837 
L 1224.291837 682.78061 
L 1245.272727 658.194603 
L 1245.272727 658.194603 
" clip-path="url(#p1f4e8a7e5b)" style="fill: none; stroke: #1f77b4; stroke-width: 1.5"/>
    <path d="M 231.365664 399.372058 
L 246.08236 399.998325 
L 260.289775 401.278185 
L 274.041278 403.066631 
L 287.386309 405.231645 
L 300.370548 407.653609 
L 313.036078 410.22474 
L 325.421543 412.848521 
L 337.562307 415.439163 
L 349.490601 417.921074 
L 361.235675 420.22834 
L 372.823941 422.304218 
L 384.279111 424.100654 
L 395.622338 425.577797 
L 406.872348 426.703539 
L 418.045567 427.453058 
L 429.156252 427.808383 
L 440.216614 427.757962 
L 451.236933 427.296247 
L 462.225683 426.423288 
L 473.189637 425.14434 
L 484.133986 423.469481 
L 495.062439 421.41324 
L 505.977336 418.994235 
L 516.879742 416.234825 
L 527.769551 413.160768 
L 538.645583 409.800889 
L 549.505675 406.186762 
L 560.346772 402.352399 
L 571.165019 398.333945 
L 581.955846 394.169389 
L 592.714049 389.898278 
L 603.433876 385.561443 
L 614.109103 381.200728 
L 624.733112 376.858737 
L 635.298966 372.57858 
L 645.799483 368.403628 
L 656.227306 364.377283 
L 666.57497 360.542741 
L 676.834974 356.94278 
L 686.999841 353.619537 
L 697.062184 350.614305 
L 707.014768 347.967328 
L 716.850572 345.717608 
L 726.562843 343.902713 
L 736.145158 342.558594 
L 745.591477 341.719405 
L 754.896199 341.41733 
L 764.054215 341.682414 
L 773.06096 342.5424 
L 781.912463 344.022567 
L 790.605399 346.145578 
L 799.137135 348.931327 
L 807.505782 352.396792 
L 815.710235 356.55589 
L 823.750229 361.419339 
L 831.626376 366.994519 
L 839.340213 373.285339 
L 846.894247 380.292103 
L 854.291998 388.011383 
L 861.53804 396.43589 
L 868.638048 405.554353 
L 875.598835 415.351391 
L 882.428401 425.807392 
L 889.135967 436.898396 
L 895.732023 448.595972 
L 902.228366 460.867103 
L 908.638144 473.674065 
L 914.975894 486.974309 
L 921.25759 500.720349 
L 927.500677 514.859639 
L 933.72412 529.334459 
L 939.948443 544.081793 
L 946.195772 559.033216 
L 952.48988 574.114768 
L 958.856229 589.246839 
L 965.322014 604.344041 
L 971.916211 619.315087 
L 978.669619 634.062665 
L 985.614908 648.483308 
L 992.786669 662.467268 
L 1000.221456 675.898378 
L 1007.957841 688.653917 
L 1016.036461 700.604476 
L 1024.500071 711.613811 
L 1033.393595 721.538698 
L 1042.764181 730.228787 
L 1052.661253 737.526447 
L 1063.136573 743.266606 
L 1074.244293 747.276596 
L 1086.041018 749.37598 
L 1098.585862 749.376384 
L 1111.940519 747.081322 
L 1126.169318 742.286013 
L 1141.339293 734.777194 
L 1157.520252 724.332926 
L 1174.784845 710.722401 
L 1193.208633 693.705728 
L 1212.870166 673.033731 
L 1233.851056 648.447724 
" clip-path="url(#p1f4e8a7e5b)" style="fill: none; stroke: #8c564b; stroke-width: 1.5"/>
    <path d="M 232.004056 384.370436 
L 247.429534 385.043682 
L 262.226262 386.388382 
L 276.445811 388.245213 
L 290.139621 390.471038 
L 303.357737 392.938552 
L 328.555 398.163914 
L 352.467214 403.203635 
L 364.006853 405.470543 
L 375.311194 407.495561 
L 386.412095 409.236439 
L 397.339712 410.659461 
L 408.122697 411.738469 
L 418.788262 412.453934 
L 429.36207 412.792089 
L 439.868 412.744196 
L 450.327808 412.305964 
L 460.760781 411.477157 
L 471.183434 410.261351 
L 481.609322 408.665834 
L 492.048981 406.701562 
L 502.510023 404.383143 
L 512.997332 401.728795 
L 523.513362 398.760251 
L 534.058465 395.502604 
L 544.631244 391.984092 
L 555.228891 388.235833 
L 565.847499 384.291536 
L 587.128133 375.960698 
L 640.391038 354.396311 
L 651.009831 350.297717 
L 661.603671 346.374382 
L 672.169024 342.67095 
L 682.702928 339.232294 
L 693.202919 336.10354 
L 703.666837 333.330129 
L 714.092481 330.957894 
L 724.477069 329.033087 
L 734.816475 327.602297 
L 745.10427 326.712112 
L 755.330641 326.408417 
L 765.481412 326.735196 
L 775.537447 327.732834 
L 785.474815 329.436071 
L 795.265956 331.871986 
L 804.88187 335.058539 
L 814.294948 339.004128 
L 823.481797 343.708359 
L 832.425382 349.163812 
L 841.116031 355.358254 
L 849.551298 362.276707 
L 857.734969 369.902927 
L 865.675655 378.220133 
L 873.385364 387.21108 
L 880.878301 396.857663 
L 888.169982 407.140271 
L 895.276681 418.037068 
L 902.215116 429.523296 
L 909.002337 441.570661 
L 915.655727 454.146821 
L 922.193073 467.214953 
L 928.632665 480.733409 
L 934.99341 494.655411 
L 941.29493 508.928805 
L 953.80284 538.292847 
L 972.677774 583.379692 
L 979.094329 598.361945 
L 985.613508 613.162674 
L 992.260817 627.678561 
L 999.061303 641.798547 
L 1006.0387 655.403523 
L 1013.214164 668.36616 
L 1020.604474 680.551101 
L 1028.219585 691.815998 
L 1036.059694 702.014293 
L 1044.112726 711.001218 
L 1052.35497 718.644907 
L 1060.760897 724.843062 
L 1069.330688 729.539049 
L 1078.137148 732.718262 
L 1087.36692 734.360823 
L 1097.305274 734.361143 
L 1108.249186 732.480379 
L 1120.415195 728.38026 
L 1133.913501 721.698882 
L 1148.781405 712.102147 
L 1165.028123 699.294062 
L 1182.663738 683.005366 
L 1201.711261 662.978934 
L 1222.429385 638.700845 
L 1222.429385 638.700845 
" clip-path="url(#p1f4e8a7e5b)" style="fill: none; stroke: #17becf; stroke-width: 1.5"/>
   </g>
   <g id="patch_3">
    <path d="M 180 786.290742 
L 180 304.509258 
" style="fill: none; stroke: #000000; stroke-width: 0.8; stroke-linejoin: miter; stroke-linecap: square"/>
   </g>
   <g id="patch_4">
    <path d="M 1296 786.290742 
L 1296 304.509258 
" style="fill: none; stroke: #000000; stroke-width: 0.8; stroke-linejoin: miter; stroke-linecap: square"/>
   </g>
   <g id="patch_5">
    <path d="M 180 786.290742 
L 1296 786.290742 
" style="fill: none; stroke: #000000; stroke-width: 0.8; stroke-linejoin: miter; stroke-linecap: square"/>
   </g>
   <g id="patch_6">
    <path d="M 180 304.509258 
L 1296 304.509258 
" style="fill: none; stroke: #000000; stroke-width: 0.8; stroke-linejoin: miter; stroke-linecap: square"/>
   </g>
  </g>
 </g>
 <defs>
  <clipPath id="p1f4e8a7e5b">
   <rect x="180" y="304.509258" width="1116" height="481.781484"/>
  </clipPath>
 </defs>
</svg>
