<?xml version="1.0" encoding="utf-8" standalone="no"?>
<!DOCTYPE svg PUBLIC "-//W3C//DTD SVG 1.1//EN"
  "http://www.w3.org/Graphics/SVG/1.1/DTD/svg11.dtd">
<svg xmlns:xlink="http://www.w3.org/1999/xlink" width="1440pt" height="1080pt" viewBox="0 0 1440 1080" xmlns="http://www.w3.org/2000/svg" version="1.1">
 <metadata>
  <rdf:RDF xmlns:dc="http://purl.org/dc/elements/1.1/" xmlns:cc="http://creativecommons.org/ns#" xmlns:rdf="http://www.w3.org/1999/02/22-rdf-syntax-ns#">
   <cc:Work>
    <dc:type rdf:resource="http://purl.org/dc/dcmitype/StillImage"/>
    <dc:date>2023-12-11T12:06:34.736256</dc:date>
    <dc:format>image/svg+xml</dc:format>
    <dc:creator>
     <cc:Agent>
      <dc:title>Matplotlib v3.7.1, https://matplotlib.org/</dc:title>
     </cc:Agent>
    </dc:creator>
   </cc:Work>
  </rdf:RDF>
 </metadata>
 <defs>
  <style type="text/css">*{stroke-linejoin: round; stroke-linecap: butt}</style>
 </defs>
 <g id="figure_1">
  <g id="patch_1">
   <path d="M 0 1080 
L 1440 1080 
L 1440 0 
L 0 0 
z
" style="fill: #ffffff"/>
  </g>
  <g id="axes_1">
   <g id="patch_2">
    <path d="M 180 714.047516 
L 1296 714.047516 
L 1296 376.752484 
L 180 376.752484 
z
" style="fill: #ffffff"/>
   </g>
   <g id="matplotlib.axis_1">
    <g id="xtick_1">
     <g id="line2d_1">
      <defs>
       <path id="mcf414a7c6b" d="M 0 0 
L 0 3.5 
" style="stroke: #000000; stroke-width: 0.8"/>
      </defs>
      <g>
       <use xlink:href="#mcf414a7c6b" x="206.586615" y="714.047516" style="stroke: #000000; stroke-width: 0.8"/>
      </g>
     </g>
     <g id="text_1">
      <!-- 400 -->
      <g transform="translate(197.042865 728.645953) scale(0.1 -0.1)">
       <defs>
        <path id="DejaVuSans-34" d="M 2419 4116 
L 825 1625 
L 2419 1625 
L 2419 4116 
z
M 2253 4666 
L 3047 4666 
L 3047 1625 
L 3713 1625 
L 3713 1100 
L 3047 1100 
L 3047 0 
L 2419 0 
L 2419 1100 
L 313 1100 
L 313 1709 
L 2253 4666 
z
" transform="scale(0.015625)"/>
        <path id="DejaVuSans-30" d="M 2034 4250 
Q 1547 4250 1301 3770 
Q 1056 3291 1056 2328 
Q 1056 1369 1301 889 
Q 1547 409 2034 409 
Q 2525 409 2770 889 
Q 3016 1369 3016 2328 
Q 3016 3291 2770 3770 
Q 2525 4250 2034 4250 
z
M 2034 4750 
Q 2819 4750 3233 4129 
Q 3647 3509 3647 2328 
Q 3647 1150 3233 529 
Q 2819 -91 2034 -91 
Q 1250 -91 836 529 
Q 422 1150 422 2328 
Q 422 3509 836 4129 
Q 1250 4750 2034 4750 
z
" transform="scale(0.015625)"/>
       </defs>
       <use xlink:href="#DejaVuSans-34"/>
       <use xlink:href="#DejaVuSans-30" x="63.623047"/>
       <use xlink:href="#DejaVuSans-30" x="127.246094"/>
      </g>
     </g>
    </g>
    <g id="xtick_2">
     <g id="line2d_2">
      <g>
       <use xlink:href="#mcf414a7c6b" x="424.678757" y="714.047516" style="stroke: #000000; stroke-width: 0.8"/>
      </g>
     </g>
     <g id="text_2">
      <!-- 600 -->
      <g transform="translate(415.135007 728.645953) scale(0.1 -0.1)">
       <defs>
        <path id="DejaVuSans-36" d="M 2113 2584 
Q 1688 2584 1439 2293 
Q 1191 2003 1191 1497 
Q 1191 994 1439 701 
Q 1688 409 2113 409 
Q 2538 409 2786 701 
Q 3034 994 3034 1497 
Q 3034 2003 2786 2293 
Q 2538 2584 2113 2584 
z
M 3366 4563 
L 3366 3988 
Q 3128 4100 2886 4159 
Q 2644 4219 2406 4219 
Q 1781 4219 1451 3797 
Q 1122 3375 1075 2522 
Q 1259 2794 1537 2939 
Q 1816 3084 2150 3084 
Q 2853 3084 3261 2657 
Q 3669 2231 3669 1497 
Q 3669 778 3244 343 
Q 2819 -91 2113 -91 
Q 1303 -91 875 529 
Q 447 1150 447 2328 
Q 447 3434 972 4092 
Q 1497 4750 2381 4750 
Q 2619 4750 2861 4703 
Q 3103 4656 3366 4563 
z
" transform="scale(0.015625)"/>
       </defs>
       <use xlink:href="#DejaVuSans-36"/>
       <use xlink:href="#DejaVuSans-30" x="63.623047"/>
       <use xlink:href="#DejaVuSans-30" x="127.246094"/>
      </g>
     </g>
    </g>
    <g id="xtick_3">
     <g id="line2d_3">
      <g>
       <use xlink:href="#mcf414a7c6b" x="642.7709" y="714.047516" style="stroke: #000000; stroke-width: 0.8"/>
      </g>
     </g>
     <g id="text_3">
      <!-- 800 -->
      <g transform="translate(633.22715 728.645953) scale(0.1 -0.1)">
       <defs>
        <path id="DejaVuSans-38" d="M 2034 2216 
Q 1584 2216 1326 1975 
Q 1069 1734 1069 1313 
Q 1069 891 1326 650 
Q 1584 409 2034 409 
Q 2484 409 2743 651 
Q 3003 894 3003 1313 
Q 3003 1734 2745 1975 
Q 2488 2216 2034 2216 
z
M 1403 2484 
Q 997 2584 770 2862 
Q 544 3141 544 3541 
Q 544 4100 942 4425 
Q 1341 4750 2034 4750 
Q 2731 4750 3128 4425 
Q 3525 4100 3525 3541 
Q 3525 3141 3298 2862 
Q 3072 2584 2669 2484 
Q 3125 2378 3379 2068 
Q 3634 1759 3634 1313 
Q 3634 634 3220 271 
Q 2806 -91 2034 -91 
Q 1263 -91 848 271 
Q 434 634 434 1313 
Q 434 1759 690 2068 
Q 947 2378 1403 2484 
z
M 1172 3481 
Q 1172 3119 1398 2916 
Q 1625 2713 2034 2713 
Q 2441 2713 2670 2916 
Q 2900 3119 2900 3481 
Q 2900 3844 2670 4047 
Q 2441 4250 2034 4250 
Q 1625 4250 1398 4047 
Q 1172 3844 1172 3481 
z
" transform="scale(0.015625)"/>
       </defs>
       <use xlink:href="#DejaVuSans-38"/>
       <use xlink:href="#DejaVuSans-30" x="63.623047"/>
       <use xlink:href="#DejaVuSans-30" x="127.246094"/>
      </g>
     </g>
    </g>
    <g id="xtick_4">
     <g id="line2d_4">
      <g>
       <use xlink:href="#mcf414a7c6b" x="860.863042" y="714.047516" style="stroke: #000000; stroke-width: 0.8"/>
      </g>
     </g>
     <g id="text_4">
      <!-- 1000 -->
      <g transform="translate(848.138042 728.645953) scale(0.1 -0.1)">
       <defs>
        <path id="DejaVuSans-31" d="M 794 531 
L 1825 531 
L 1825 4091 
L 703 3866 
L 703 4441 
L 1819 4666 
L 2450 4666 
L 2450 531 
L 3481 531 
L 3481 0 
L 794 0 
L 794 531 
z
" transform="scale(0.015625)"/>
       </defs>
       <use xlink:href="#DejaVuSans-31"/>
       <use xlink:href="#DejaVuSans-30" x="63.623047"/>
       <use xlink:href="#DejaVuSans-30" x="127.246094"/>
       <use xlink:href="#DejaVuSans-30" x="190.869141"/>
      </g>
     </g>
    </g>
    <g id="xtick_5">
     <g id="line2d_5">
      <g>
       <use xlink:href="#mcf414a7c6b" x="1078.955184" y="714.047516" style="stroke: #000000; stroke-width: 0.8"/>
      </g>
     </g>
     <g id="text_5">
      <!-- 1200 -->
      <g transform="translate(1066.230184 728.645953) scale(0.1 -0.1)">
       <defs>
        <path id="DejaVuSans-32" d="M 1228 531 
L 3431 531 
L 3431 0 
L 469 0 
L 469 531 
Q 828 903 1448 1529 
Q 2069 2156 2228 2338 
Q 2531 2678 2651 2914 
Q 2772 3150 2772 3378 
Q 2772 3750 2511 3984 
Q 2250 4219 1831 4219 
Q 1534 4219 1204 4116 
Q 875 4013 500 3803 
L 500 4441 
Q 881 4594 1212 4672 
Q 1544 4750 1819 4750 
Q 2544 4750 2975 4387 
Q 3406 4025 3406 3419 
Q 3406 3131 3298 2873 
Q 3191 2616 2906 2266 
Q 2828 2175 2409 1742 
Q 1991 1309 1228 531 
z
" transform="scale(0.015625)"/>
       </defs>
       <use xlink:href="#DejaVuSans-31"/>
       <use xlink:href="#DejaVuSans-32" x="63.623047"/>
       <use xlink:href="#DejaVuSans-30" x="127.246094"/>
       <use xlink:href="#DejaVuSans-30" x="190.869141"/>
      </g>
     </g>
    </g>
   </g>
   <g id="matplotlib.axis_2">
    <g id="ytick_1">
     <g id="line2d_6">
      <defs>
       <path id="m8cb829f6f4" d="M 0 0 
L -3.5 0 
" style="stroke: #000000; stroke-width: 0.8"/>
      </defs>
      <g>
       <use xlink:href="#m8cb829f6f4" x="180" y="706.461909" style="stroke: #000000; stroke-width: 0.8"/>
      </g>
     </g>
     <g id="text_6">
      <!-- 1050 -->
      <g transform="translate(147.55 710.261127) scale(0.1 -0.1)">
       <defs>
        <path id="DejaVuSans-35" d="M 691 4666 
L 3169 4666 
L 3169 4134 
L 1269 4134 
L 1269 2991 
Q 1406 3038 1543 3061 
Q 1681 3084 1819 3084 
Q 2600 3084 3056 2656 
Q 3513 2228 3513 1497 
Q 3513 744 3044 326 
Q 2575 -91 1722 -91 
Q 1428 -91 1123 -41 
Q 819 9 494 109 
L 494 744 
Q 775 591 1075 516 
Q 1375 441 1709 441 
Q 2250 441 2565 725 
Q 2881 1009 2881 1497 
Q 2881 1984 2565 2268 
Q 2250 2553 1709 2553 
Q 1456 2553 1204 2497 
Q 953 2441 691 2322 
L 691 4666 
z
" transform="scale(0.015625)"/>
       </defs>
       <use xlink:href="#DejaVuSans-31"/>
       <use xlink:href="#DejaVuSans-30" x="63.623047"/>
       <use xlink:href="#DejaVuSans-35" x="127.246094"/>
       <use xlink:href="#DejaVuSans-30" x="190.869141"/>
      </g>
     </g>
    </g>
    <g id="ytick_2">
     <g id="line2d_7">
      <g>
       <use xlink:href="#m8cb829f6f4" x="180" y="651.938873" style="stroke: #000000; stroke-width: 0.8"/>
      </g>
     </g>
     <g id="text_7">
      <!-- 1100 -->
      <g transform="translate(147.55 655.738092) scale(0.1 -0.1)">
       <use xlink:href="#DejaVuSans-31"/>
       <use xlink:href="#DejaVuSans-31" x="63.623047"/>
       <use xlink:href="#DejaVuSans-30" x="127.246094"/>
       <use xlink:href="#DejaVuSans-30" x="190.869141"/>
      </g>
     </g>
    </g>
    <g id="ytick_3">
     <g id="line2d_8">
      <g>
       <use xlink:href="#m8cb829f6f4" x="180" y="597.415838" style="stroke: #000000; stroke-width: 0.8"/>
      </g>
     </g>
     <g id="text_8">
      <!-- 1150 -->
      <g transform="translate(147.55 601.215056) scale(0.1 -0.1)">
       <use xlink:href="#DejaVuSans-31"/>
       <use xlink:href="#DejaVuSans-31" x="63.623047"/>
       <use xlink:href="#DejaVuSans-35" x="127.246094"/>
       <use xlink:href="#DejaVuSans-30" x="190.869141"/>
      </g>
     </g>
    </g>
    <g id="ytick_4">
     <g id="line2d_9">
      <g>
       <use xlink:href="#m8cb829f6f4" x="180" y="542.892802" style="stroke: #000000; stroke-width: 0.8"/>
      </g>
     </g>
     <g id="text_9">
      <!-- 1200 -->
      <g transform="translate(147.55 546.692021) scale(0.1 -0.1)">
       <use xlink:href="#DejaVuSans-31"/>
       <use xlink:href="#DejaVuSans-32" x="63.623047"/>
       <use xlink:href="#DejaVuSans-30" x="127.246094"/>
       <use xlink:href="#DejaVuSans-30" x="190.869141"/>
      </g>
     </g>
    </g>
    <g id="ytick_5">
     <g id="line2d_10">
      <g>
       <use xlink:href="#m8cb829f6f4" x="180" y="488.369767" style="stroke: #000000; stroke-width: 0.8"/>
      </g>
     </g>
     <g id="text_10">
      <!-- 1250 -->
      <g transform="translate(147.55 492.168985) scale(0.1 -0.1)">
       <use xlink:href="#DejaVuSans-31"/>
       <use xlink:href="#DejaVuSans-32" x="63.623047"/>
       <use xlink:href="#DejaVuSans-35" x="127.246094"/>
       <use xlink:href="#DejaVuSans-30" x="190.869141"/>
      </g>
     </g>
    </g>
    <g id="ytick_6">
     <g id="line2d_11">
      <g>
       <use xlink:href="#m8cb829f6f4" x="180" y="433.846731" style="stroke: #000000; stroke-width: 0.8"/>
      </g>
     </g>
     <g id="text_11">
      <!-- 1300 -->
      <g transform="translate(147.55 437.64595) scale(0.1 -0.1)">
       <defs>
        <path id="DejaVuSans-33" d="M 2597 2516 
Q 3050 2419 3304 2112 
Q 3559 1806 3559 1356 
Q 3559 666 3084 287 
Q 2609 -91 1734 -91 
Q 1441 -91 1130 -33 
Q 819 25 488 141 
L 488 750 
Q 750 597 1062 519 
Q 1375 441 1716 441 
Q 2309 441 2620 675 
Q 2931 909 2931 1356 
Q 2931 1769 2642 2001 
Q 2353 2234 1838 2234 
L 1294 2234 
L 1294 2753 
L 1863 2753 
Q 2328 2753 2575 2939 
Q 2822 3125 2822 3475 
Q 2822 3834 2567 4026 
Q 2313 4219 1838 4219 
Q 1578 4219 1281 4162 
Q 984 4106 628 3988 
L 628 4550 
Q 988 4650 1302 4700 
Q 1616 4750 1894 4750 
Q 2613 4750 3031 4423 
Q 3450 4097 3450 3541 
Q 3450 3153 3228 2886 
Q 3006 2619 2597 2516 
z
" transform="scale(0.015625)"/>
       </defs>
       <use xlink:href="#DejaVuSans-31"/>
       <use xlink:href="#DejaVuSans-33" x="63.623047"/>
       <use xlink:href="#DejaVuSans-30" x="127.246094"/>
       <use xlink:href="#DejaVuSans-30" x="190.869141"/>
      </g>
     </g>
    </g>
    <g id="ytick_7">
     <g id="line2d_12">
      <g>
       <use xlink:href="#m8cb829f6f4" x="180" y="379.323695" style="stroke: #000000; stroke-width: 0.8"/>
      </g>
     </g>
     <g id="text_12">
      <!-- 1350 -->
      <g transform="translate(147.55 383.122914) scale(0.1 -0.1)">
       <use xlink:href="#DejaVuSans-31"/>
       <use xlink:href="#DejaVuSans-33" x="63.623047"/>
       <use xlink:href="#DejaVuSans-35" x="127.246094"/>
       <use xlink:href="#DejaVuSans-30" x="190.869141"/>
      </g>
     </g>
    </g>
   </g>
   <g id="LineCollection_1">
    <path d="M 230.727273 632.916353 
L 311.613 651.734535 
L 336.448166 657.263231 
L 360.362008 662.385204 
L 383.43872 667.126128 
L 405.76184 671.524241 
L 427.414063 675.619917 
L 448.476756 679.447245 
L 469.029234 683.027498 
L 489.147883 686.364307 
L 508.905256 689.440341 
L 528.369211 692.215272 
L 547.602118 694.62487 
L 557.14971 695.66607 
L 566.659996 696.581118 
L 576.138802 697.35548 
L 585.591387 697.973334 
L 595.022376 698.417676 
L 604.43567 698.670449 
L 613.834358 698.712703 
L 623.220612 698.524798 
L 632.595586 698.086639 
L 641.959324 697.377967 
L 651.310702 696.378687 
L 660.647404 695.069238 
L 669.965966 693.430988 
L 679.261887 691.446638 
L 688.529824 689.100606 
L 697.763856 686.37938 
L 706.957816 683.271788 
L 716.105637 679.769201 
L 725.201717 675.865634 
L 734.241228 671.557771 
L 743.220373 666.844923 
L 752.13655 661.728951 
L 760.988434 656.214173 
L 769.775966 650.30729 
L 778.500283 644.017342 
L 787.163598 637.355701 
L 795.769042 630.336117 
L 804.320512 622.974792 
L 812.822511 615.290485 
L 821.280005 607.304634 
L 829.698296 599.041485 
L 838.082913 590.528216 
L 846.439513 581.795051 
L 854.773802 572.875351 
L 871.398024 554.625883 
L 904.667506 517.659109 
L 913.014777 508.615058 
L 921.378918 499.764863 
L 929.761981 491.169015 
L 938.164695 482.889959 
L 946.586187 474.991498 
L 955.023729 467.537983 
L 963.472591 460.593207 
L 971.926147 454.218956 
L 980.376455 448.473157 
L 988.81565 443.407737 
L 997.238507 439.066468 
L 1005.646435 435.483465 
L 1014.052664 432.683356 
L 1022.487504 430.684253 
L 1031.001488 429.503931 
L 1039.663871 429.167989 
L 1048.555277 429.716855 
L 1057.756202 431.208046 
L 1067.335589 433.712119 
L 1077.343626 437.303954 
L 1087.810422 442.053011 
L 1098.749269 448.015637 
L 1110.161964 455.230635 
L 1122.043987 463.717607 
L 1134.388461 473.476941 
L 1147.18867 484.490407 
L 1160.439419 496.721722 
L 1174.137599 510.116782 
L 1188.282307 524.603498 
L 1202.874751 540.091275 
L 1217.96664 556.523024 
L 1217.96664 556.523024 
" clip-path="url(#p146f7f2a00)" style="fill: none; stroke: #1f77b4; stroke-width: 1.5"/>
    <path d="M 234.938594 614.863209 
L 249.17163 618.1834 
L 263.074144 621.446624 
L 276.661215 624.635462 
L 289.947594 627.737137 
L 302.947679 630.742876 
L 315.675489 633.647319 
L 328.14465 636.447961 
L 340.368369 639.144643 
L 352.359429 641.739072 
L 364.130165 644.234386 
L 375.692465 646.634749 
L 387.05775 648.944989 
L 398.236977 651.17026 
L 409.24063 653.315748 
L 420.078716 655.386398 
L 430.76077 657.386684 
L 441.29585 659.320396 
L 451.692545 661.190467 
L 461.958975 662.998819 
L 472.102803 664.746239 
L 482.131236 666.432287 
L 492.051042 668.055214 
L 501.868552 669.611915 
L 511.589679 671.097902 
L 521.219929 672.507293 
L 530.764414 673.832828 
L 540.22787 675.065902 
L 549.61467 676.196608 
L 558.928848 677.21381 
L 568.174109 678.105223 
L 577.353857 678.857511 
L 586.471209 679.456392 
L 595.529018 679.886768 
L 604.529897 680.132856 
L 613.476236 680.178331 
L 622.37023 680.006481 
L 631.213897 679.600369 
L 640.009106 678.943003 
L 648.757598 678.017508 
L 657.461013 676.807307 
L 666.120907 675.296305 
L 674.738788 673.469074 
L 683.316128 671.311042 
L 691.854396 668.80868 
L 700.355078 665.94969 
L 708.819704 662.723193 
L 717.249867 659.119909 
L 725.647251 655.13234 
L 734.013652 650.754941 
L 742.351003 645.984292 
L 750.661391 640.819258 
L 758.947084 635.261143 
L 767.210549 629.313834 
L 775.454473 622.983936 
L 783.681782 616.280891 
L 791.895659 609.217094 
L 800.099564 601.807984 
L 808.297247 594.072128 
L 816.492766 586.031289 
L 824.690502 577.710473 
L 832.895169 569.13796 
L 841.11183 560.345317 
L 849.345904 551.367394 
L 857.603178 542.242287 
L 865.889813 533.011298 
L 874.212349 523.718848 
L 882.577714 514.412391 
L 890.993223 505.142279 
L 899.46658 495.961618 
L 908.005877 486.926088 
L 916.619593 478.093732 
L 925.316589 469.524725 
L 934.1061 461.281101 
L 942.997728 453.426457 
L 952.00143 446.025616 
L 961.127505 439.144263 
L 970.386583 432.848541 
L 979.789599 427.204611 
L 989.347779 422.278179 
L 999.072619 418.133979 
L 1008.975852 414.835219 
L 1019.069428 412.442987 
L 1029.365481 411.015611 
L 1039.876294 410.607984 
L 1050.614264 411.270837 
L 1061.591863 413.049973 
L 1072.821597 415.985451 
L 1084.31596 420.110721 
L 1096.087386 425.451723 
L 1108.148196 432.025916 
L 1120.510547 439.841277 
L 1133.186371 448.895237 
L 1146.187314 459.173565 
L 1159.524673 470.649203 
L 1173.209328 483.281041 
L 1187.251664 497.012642 
L 1201.661506 511.770903 
L 1216.448029 527.464666 
L 1231.619684 543.983263 
" clip-path="url(#p146f7f2a00)" style="fill: none; stroke: #8c564b; stroke-width: 1.5"/>
    <path d="M 239.149915 596.810065 
L 319.768871 615.567041 
L 344.325294 621.034001 
L 367.936487 626.091491 
L 390.713629 630.771184 
L 412.753883 635.113838 
L 434.140148 639.159448 
L 454.941332 642.939502 
L 475.213128 646.471161 
L 494.99918 649.753253 
L 514.33251 652.76401 
L 533.237087 655.460479 
L 551.729505 657.779515 
L 560.824769 658.77281 
L 569.82082 659.640195 
L 578.718531 660.369369 
L 587.518733 660.947418 
L 596.222321 661.360964 
L 604.830369 661.596312 
L 613.34427 661.639588 
L 621.765871 661.476866 
L 630.097631 661.094262 
L 638.342757 660.47801 
L 646.505333 659.614498 
L 654.590407 658.490277 
L 662.604031 657.092038 
L 670.553234 655.406585 
L 678.445915 653.420811 
L 686.290665 651.121703 
L 694.09651 648.496404 
L 701.872624 645.53235 
L 709.628016 642.217482 
L 717.371237 638.540547 
L 725.110143 634.491461 
L 732.85173 630.061709 
L 740.602055 625.244763 
L 748.366248 620.036475 
L 756.148588 614.435438 
L 763.952652 608.443275 
L 771.781485 602.064881 
L 779.637798 595.308583 
L 787.524158 588.186253 
L 795.443178 580.713361 
L 803.397678 572.908993 
L 811.390835 564.795827 
L 819.426313 556.400089 
L 827.508376 547.75148 
L 843.832927 529.831294 
L 877.370747 492.569317 
L 885.993605 483.228583 
L 894.734416 473.983154 
L 903.608892 464.8887 
L 912.634973 456.00334 
L 921.833085 447.387782 
L 931.226341 439.105645 
L 940.840572 431.224046 
L 950.704006 423.814492 
L 960.846311 416.954062 
L 971.296642 410.726719 
L 982.080332 405.224281 
L 993.214146 400.546213 
L 1004.700715 396.797081 
L 1016.523813 394.080768 
L 1028.647093 392.491704 
L 1041.018458 392.105371 
L 1053.579987 392.971774 
L 1066.280161 395.114782 
L 1079.083652 398.537302 
L 1091.975502 403.229293 
L 1104.959657 409.174929 
L 1118.054118 416.356713 
L 1131.285285 424.756311 
L 1144.68317 434.353063 
L 1158.278044 445.121325 
L 1172.098435 457.027465 
L 1186.170088 470.026988 
L 1200.515526 484.06192 
L 1215.153921 499.05847 
L 1230.101073 514.924905 
L 1245.272727 531.443501 
L 1245.272727 531.443501 
" clip-path="url(#p146f7f2a00)" style="fill: none; stroke: #17becf; stroke-width: 1.5"/>
   </g>
   <g id="patch_3">
    <path d="M 180 714.047516 
L 180 376.752484 
" style="fill: none; stroke: #000000; stroke-width: 0.8; stroke-linejoin: miter; stroke-linecap: square"/>
   </g>
   <g id="patch_4">
    <path d="M 1296 714.047516 
L 1296 376.752484 
" style="fill: none; stroke: #000000; stroke-width: 0.8; stroke-linejoin: miter; stroke-linecap: square"/>
   </g>
   <g id="patch_5">
    <path d="M 180 714.047516 
L 1296 714.047516 
" style="fill: none; stroke: #000000; stroke-width: 0.8; stroke-linejoin: miter; stroke-linecap: square"/>
   </g>
   <g id="patch_6">
    <path d="M 180 376.752484 
L 1296 376.752484 
" style="fill: none; stroke: #000000; stroke-width: 0.8; stroke-linejoin: miter; stroke-linecap: square"/>
   </g>
  </g>
 </g>
 <defs>
  <clipPath id="p146f7f2a00">
   <rect x="180" y="376.752484" width="1116" height="337.295031"/>
  </clipPath>
 </defs>
</svg>
